<svg width="800" height="228.7" version="1.1" viewBox="0 0 211.67 60.509" xmlns="http://www.w3.org/2000/svg">
 <g transform="translate(126.78 90.431)">
  <g transform="matrix(5.269 0 0 -5.269 -94.118 -53.896)">
   <path d="m0 0 0.079 0.446h3.673l-0.078-0.446zm2.803 2.228v0.103l-0.044 0.038h-0.095l0.065 0.336h0.111l0.047 0.017 0.029 0.06 0.18 0.936h0.633l-0.195-1.003 0.652 2e-3 -0.065-0.348h-0.642l-0.147-0.753 0.648 2e-3 -0.142-0.724h-0.85c-6e-3 0-0.172 0.052-0.24 0.148-0.09 0.096-0.121 0.263-0.101 0.378z" fill="#2350a9"/>
  </g>
  <g transform="matrix(5.269 0 0 -5.269 -31.62 -80.519)">
   <path d="m0 0-1.482-3.596v3.017h-1.334l-0.93-4.543 1.167 2.851 0.022-4.013h2.213l2.551 6.284z" fill="#211c1c"/>
  </g>
  <g transform="matrix(5.269 0 0 -5.269 -49.089 -76.565)">
   <path d="m0 0h-0.173l-0.189-0.489-0.254-1.227-0.729-1.882-0.267 4.977h-1.534l0.389-7.673h1.322l0.225 1.068 0.282 0.685z" fill="#211c1c"/>
  </g>
  <g transform="matrix(5.269 0 0 -5.269 -5.4606 -61.417)">
   <path d="m0 0h-1.697l0.15 0.756h1.699zm2.409 1.923c-0.179 0.313-0.399 0.443-0.779 0.443h-2.822c-0.167 0.025-0.363 0.01-0.572-0.052l-1.152-5.644h0.701l0.448 2.2h1.697l-0.446-2.2h2.164l0.889 4.396c0.071 0.36 0.028 0.601-0.128 0.857" fill="#211c1c"/>
  </g>
  <g transform="matrix(5.269 0 0 -5.269 -21.422 -68.24)">
   <path d="m0 0c-0.348-0.379-0.494-1.153-0.499-1.175l-0.822-4.046h0.825l1.152 5.64c-0.224-0.083-0.461-0.208-0.656-0.419" fill="#211c1c"/>
  </g>
  <g transform="matrix(5.269 0 0 -5.269 20.545 -56.23)">
   <path d="m0 0-0.42 3.879h-1.57l0.746-5.699h1.613l0.869 4.24z" fill="#211c1c"/>
  </g>
  <g transform="matrix(5.269 0 0 -5.269 31.422 -75.494)">
   <path d="m0 0-1.24-6.084 3.933 7.331h-2.053z" fill="#211c1c"/>
  </g>
  <g transform="matrix(5.269 0 0 -5.269 66.634 -52.381)">
   <path d="m0 0 0.299 1.464h-1.534l-0.299-1.464z" fill="#211c1c"/>
  </g>
  <g transform="matrix(5.269 0 0 -5.269 69.819 -73.699)">
   <path d="m0 0-0.336-1.739h0.482l0.311 1.739zm-2.105-5.105h-1.741l0.161 0.798h1.113l0.268 1.313h-1.115l0.163 0.805h0.533l0.09 0.45h1.608l0.341 1.739h-1.683l-0.102-0.557h-2.627l-1.261-6.187h2.792l-0.015-0.081h1.723l0.041 0.212h1.197l0.33 1.643h-1.789z" fill="#211c1c"/>
  </g>
  <g transform="matrix(5.269 0 0 -5.269 -92.945 -82.585)">
   <path d="m0 0-1.395-7.194h0.301l1.405 7.194zm-1.121 0-0.065-0.38h-0.035l-2.657-1.578-0.182-0.961h0.705l-0.913-4.735h0.696l-0.106-0.542h1.262l0.207 1.002h0.132l1.385 7.194z" fill="#2350a9"/>
  </g>
  <g transform="matrix(5.269 0 0 -5.269 -52.552 -87.412)">
   <path d="m0 0c0.024-0.183 0.068-0.755 0.068-0.755h7.753c-0.1-0.248-0.387-0.983-0.387-0.983h3.533s-0.049 0.397-0.068 0.552h3.134c0.029-0.206 0.274-1.89 0.274-1.89s1.537 2.873 1.617 3.014h4.486c-0.144-0.318-0.719-1.541-0.719-1.541h5.377c-0.064-0.334-1.675-8.607-1.724-8.836h-7.727c0.039 0.234 0.186 0.965 0.186 0.965h-3.53c-0.019 0.136-0.077 0.518-0.077 0.518h-4.921s-0.232-1.033-0.269-1.222h-3.66c0.043 0.262 0.228 1.324 0.228 1.324h-3.032s-0.177-0.397-0.228-0.531h-3.75c-0.019 0.242-0.162 2.4-0.162 2.4h-3.478s-0.59-2.931-0.631-3.143c-0.219 0-5.483-4e-3 -5.806-4e-3 0.063 0.328 1.104 5.727 1.104 5.727h-0.725c0.063 0.276 0.344 1.668 0.372 1.77 0.101 0.068 3.975 2.391 4.045 2.432h1.989c-0.035-0.257-0.182-1.291-0.182-1.291h3.392s-0.052 1.25-0.066 1.494zm-1.158 0.573h-2.721s0.051-1.304 0.065-1.559h-2.823c0.041 0.307 0.037 0.266 0.182 1.349h-2.453l-4.312-2.657-0.48-2.333s0.536 2e-3 0.747 9e-3c-0.07-0.341-1.135-5.983-1.135-5.983l5.768 3e-3 0.027 0.125s0.576 2.936 0.619 3.158h3.806c0.02-0.244 0.165-2.489 0.165-2.489h4.307s0.185 0.413 0.241 0.543h3.194c-0.053-0.266-0.238-1.375-0.238-1.375h3.691s0.235 1.08 0.272 1.264h4.546c0.03-0.148 0.083-0.544 0.083-0.544h3.505c-0.048-0.249-0.193-0.995-0.193-0.995h8.51l1.869 9.806h-5.39c0.142 0.324 0.736 1.613 0.736 1.613h-5.426s-0.846-1.609-1.145-2.201c-0.074 0.479-0.162 1.031-0.162 1.031h-3.791s0.051-0.4 0.071-0.583h-2.85c0.101 0.262 0.391 1.042 0.391 1.042h-9.473c-0.024 0.182-0.049 0.776-0.049 0.776z" fill="#c03429"/>
  </g>
  <g transform="matrix(5.269 0 0 -5.269 -88.735 -65.046)">
   <path d="m0 0 0.057 0.263 0.33 4e-3 6e-3 0.037h0.658l0.128 0.697h-0.683l-0.031-0.131-0.437-0.01c-0.152 0-0.27-0.044-0.403-0.186-0.1-0.112-0.162-0.218-0.194-0.37l-0.132-0.686 1.195 2e-3 -0.051-0.3h-0.398l-0.024-0.124h-0.779l-0.117-0.548h0.785l0.026 0.129h0.466c0.17 0 0.288 0.03 0.437 0.175 0.145 0.136 0.224 0.277 0.268 0.479l0.111 0.569z" fill="#2350a9"/>
  </g>
 </g>
</svg>
