<svg width="800" height="125.57" version="1.1" viewBox="0 0 800 125.57" xml:space="preserve" xmlns="http://www.w3.org/2000/svg"><g transform="matrix(1.3333 0 0 -1.3333 -43.787 880.73)"><path d="m399.5 657.46v-87.029" fill="none" stroke="#068cce" stroke-width="2.3101"/><g transform="matrix(3.0158 0 0 3.0158 429.34 647.14)"><path d="m0 0v-2.46h0.045c0.466 0.948 1.038 1.648 1.715 2.099s1.535 0.662 2.573 0.632v-2.031c-0.767 0-1.422-0.106-1.964-0.316-0.541-0.211-0.978-0.519-1.308-0.926-0.331-0.406-0.572-0.899-0.723-1.478-0.15-0.579-0.225-1.245-0.225-1.997v-5.191h-1.918v11.668z" fill="#068cce"/></g><g transform="matrix(3.0158 0 0 3.0158 477.94 612.09)"><path d="m0 0c-0.331-0.195-0.79-0.293-1.377-0.293-0.496 0-0.891 0.139-1.185 0.417-0.293 0.278-0.44 0.734-0.44 1.366-0.526-0.632-1.139-1.088-1.839-1.366-0.699-0.278-1.455-0.417-2.268-0.417-0.527 0-1.027 0.06-1.501 0.18s-0.884 0.308-1.23 0.564-0.62 0.591-0.823 1.005c-0.203 0.413-0.305 0.914-0.305 1.5 0 0.662 0.113 1.204 0.339 1.625 0.225 0.421 0.522 0.764 0.891 1.027 0.368 0.263 0.79 0.463 1.264 0.598 0.474 0.136 0.959 0.248 1.455 0.339 0.527 0.105 1.027 0.184 1.501 0.237 0.474 0.052 0.892 0.127 1.253 0.225s0.646 0.241 0.857 0.429 0.316 0.463 0.316 0.824c0 0.421-0.079 0.76-0.237 1.016-0.158 0.255-0.361 0.451-0.609 0.586-0.248 0.136-0.527 0.226-0.835 0.271-0.309 0.045-0.613 0.068-0.914 0.068-0.813 0-1.49-0.155-2.031-0.463-0.542-0.308-0.835-0.891-0.88-1.749h-1.919c0.03 0.722 0.181 1.332 0.452 1.828 0.271 0.497 0.632 0.899 1.083 1.207 0.451 0.309 0.966 0.531 1.546 0.666 0.579 0.136 1.199 0.203 1.862 0.203 0.526 0 1.049-0.037 1.568-0.113 0.519-0.075 0.989-0.228 1.411-0.461 0.421-0.233 0.759-0.559 1.015-0.98 0.256-0.42 0.384-0.968 0.384-1.643v-5.991c0-0.45 0.026-0.78 0.079-0.991 0.053-0.21 0.229-0.315 0.53-0.315 0.166 0 0.361 0.03 0.587 0.091zm-3.114 5.981c-0.241-0.18-0.557-0.311-0.948-0.394-0.392-0.082-0.801-0.15-1.23-0.202s-0.862-0.112-1.298-0.179c-0.436-0.068-0.828-0.176-1.173-0.326-0.347-0.149-0.629-0.363-0.847-0.64s-0.327-0.655-0.327-1.134c0-0.315 0.064-0.58 0.192-0.797 0.128-0.218 0.293-0.393 0.496-0.528s0.44-0.232 0.711-0.292 0.557-0.09 0.858-0.09c0.632 0 1.173 0.086 1.625 0.258 0.451 0.173 0.82 0.39 1.106 0.652 0.285 0.262 0.496 0.546 0.631 0.853 0.136 0.307 0.204 0.595 0.204 0.865z" fill="#068cce"/></g><g transform="matrix(3.0158 0 0 3.0158 508.97 611.95)"><path d="m0 0v1.58h-0.045c-0.316-0.647-0.812-1.114-1.489-1.4-0.678-0.285-1.422-0.428-2.235-0.428-0.903 0-1.689 0.165-2.358 0.496-0.67 0.331-1.227 0.775-1.67 1.332-0.444 0.556-0.779 1.203-1.004 1.941-0.226 0.737-0.339 1.519-0.339 2.347 0 0.827 0.109 1.609 0.327 2.347 0.218 0.737 0.549 1.38 0.993 1.929s1.001 0.986 1.67 1.309c0.669 0.324 1.448 0.486 2.336 0.486 0.301 0 0.624-0.031 0.971-0.091 0.346-0.06 0.692-0.162 1.038-0.305 0.345-0.143 0.673-0.331 0.981-0.564s0.568-0.523 0.779-0.869h0.045v6.004h1.918v-16.114zm-6.894 4.141c0.142-0.519 0.361-0.981 0.654-1.388 0.293-0.406 0.669-0.73 1.128-0.97 0.459-0.241 0.997-0.361 1.614-0.361 0.647 0 1.196 0.127 1.648 0.383 0.451 0.256 0.819 0.591 1.105 1.005 0.286 0.413 0.493 0.883 0.621 1.41s0.192 1.061 0.192 1.603c0 0.571-0.068 1.124-0.203 1.658-0.136 0.534-0.35 1.005-0.643 1.411-0.294 0.406-0.674 0.733-1.14 0.982-0.467 0.248-1.031 0.372-1.693 0.372-0.647 0-1.196-0.128-1.647-0.384-0.452-0.256-0.813-0.594-1.083-1.015-0.271-0.422-0.467-0.903-0.587-1.445-0.121-0.541-0.181-1.098-0.181-1.67 0-0.541 0.071-1.072 0.215-1.591" fill="#068cce"/></g><path d="m524.01 660.55h5.7842v-7.078h-5.7842zm5.7872-48.596h-5.7842v35.188h5.7842z" fill="#068cce"/><g transform="matrix(3.0158 0 0 3.0158 537.96 636.76)"><path d="m0 0c0.241 0.745 0.602 1.391 1.084 1.941 0.481 0.549 1.075 0.982 1.782 1.298s1.52 0.474 2.438 0.474c0.932 0 1.749-0.158 2.448-0.474 0.7-0.316 1.29-0.749 1.772-1.298 0.481-0.55 0.842-1.196 1.083-1.941s0.361-1.546 0.361-2.403c0-0.858-0.12-1.656-0.361-2.393s-0.602-1.38-1.083-1.929c-0.482-0.55-1.072-0.978-1.772-1.287-0.699-0.308-1.516-0.462-2.448-0.462-0.918 0-1.731 0.154-2.438 0.462-0.707 0.309-1.301 0.737-1.782 1.287-0.482 0.549-0.843 1.192-1.084 1.929s-0.361 1.535-0.361 2.393c0 0.857 0.12 1.658 0.361 2.403m1.952-4.288c0.188-0.549 0.448-1.008 0.779-1.376 0.331-0.369 0.718-0.652 1.162-0.847 0.444-0.196 0.914-0.293 1.411-0.293 0.496 0 0.966 0.097 1.41 0.293 0.444 0.195 0.831 0.478 1.162 0.847 0.331 0.368 0.591 0.827 0.779 1.376s0.282 1.177 0.282 1.885c0 0.706-0.094 1.335-0.282 1.884s-0.448 1.012-0.779 1.388-0.718 0.662-1.162 0.858c-0.444 0.195-0.914 0.293-1.41 0.293-0.497 0-0.967-0.098-1.411-0.293-0.444-0.196-0.831-0.482-1.162-0.858s-0.591-0.839-0.779-1.388-0.282-1.178-0.282-1.884c0-0.708 0.094-1.336 0.282-1.885" fill="#068cce"/></g><g transform="matrix(3.0158 0 0 3.0158 158.29 619.68)"><path d="m0 0c0.538 0.041 1.039 0.16 1.504 0.357 0.466 0.196 0.848 0.48 1.148 0.853 0.3 0.372 0.45 0.868 0.45 1.489 0 0.93-0.31 1.643-0.931 2.14-0.62 0.496-1.333 0.744-2.14 0.744-1.117 0-1.96-0.367-2.528-1.101-0.569-0.734-0.843-1.659-0.822-2.776h-4.187c0.041 1.117 0.243 2.135 0.605 3.055 0.361 0.92 0.868 1.711 1.519 2.373 0.652 0.661 1.432 1.173 2.342 1.535s1.923 0.543 3.04 0.543c0.869 0 1.737-0.129 2.606-0.388 0.868-0.258 1.648-0.646 2.341-1.163s1.257-1.147 1.691-1.892c0.434-0.744 0.651-1.603 0.651-2.574 0-1.055-0.253-1.985-0.76-2.792-0.507-0.806-1.267-1.354-2.279-1.644v-0.062c1.199-0.269 2.14-0.848 2.822-1.737s1.024-1.954 1.024-3.195c0-1.137-0.223-2.15-0.667-3.039-0.445-0.89-1.039-1.634-1.784-2.234-0.744-0.6-1.602-1.054-2.574-1.364-0.972-0.311-1.985-0.466-3.04-0.466-1.22 0-2.332 0.176-3.334 0.528-1.004 0.351-1.857 0.863-2.559 1.535-0.704 0.672-1.246 1.494-1.629 2.466s-0.563 2.088-0.542 3.35h4.187c0.02-0.579 0.113-1.132 0.279-1.66 0.165-0.527 0.403-0.982 0.713-1.364 0.31-0.383 0.698-0.688 1.163-0.915 0.466-0.228 1.019-0.342 1.66-0.342 0.993 0 1.83 0.305 2.513 0.915 0.682 0.61 1.023 1.443 1.023 2.497 0 0.827-0.16 1.458-0.481 1.892-0.32 0.434-0.729 0.75-1.225 0.946-0.496 0.197-1.039 0.31-1.628 0.342-0.59 0.031-1.153 0.046-1.691 0.046v3.102c0.476-0.042 0.982-0.042 1.52 0" fill="#068cce"/></g><path d="m224.14 647.46 24.976-66.79h-15.248l-5.0514 14.874h-24.976l-5.2384-14.874h-14.78l25.257 66.79zm0.8414-40.972-8.42 24.509h-0.18698l-8.6974-24.509z" fill="#068cce"/><g transform="matrix(3.0158 0 0 3.0158 286.35 647.46)"><path d="m0 0c1.055 0 2.016-0.093 2.885-0.279 0.868-0.186 1.613-0.492 2.233-0.915 0.62-0.424 1.101-0.988 1.442-1.691 0.342-0.703 0.512-1.572 0.512-2.605 0-1.117-0.253-2.047-0.76-2.792-0.507-0.744-1.256-1.354-2.249-1.83 1.365-0.393 2.384-1.081 3.056-2.063 0.671-0.982 1.008-2.166 1.008-3.551 0-1.117-0.217-2.083-0.652-2.9-0.434-0.817-1.018-1.484-1.752-2.001s-1.572-0.899-2.513-1.148c-0.941-0.248-1.907-0.372-2.9-0.372h-10.732v22.147zm-0.62-8.964c0.868 0 1.582 0.206 2.14 0.62 0.558 0.413 0.837 1.086 0.837 2.016 0 0.517-0.093 0.941-0.279 1.272-0.186 0.33-0.434 0.589-0.744 0.775s-0.667 0.315-1.07 0.388c-0.404 0.072-0.822 0.109-1.257 0.109h-4.559v-5.18zm0.279-9.399c0.475 0 0.93 0.047 1.365 0.14 0.434 0.093 0.816 0.248 1.147 0.465s0.595 0.512 0.791 0.884c0.197 0.372 0.295 0.848 0.295 1.427 0 1.137-0.321 1.949-0.962 2.435s-1.488 0.729-2.543 0.729h-5.304v-6.08z" fill="#068cce"/></g><path d="m335.37 647.46 27.878-44.808h0.18697v44.808h13.749v-66.79h-14.687l-27.781 44.715h-0.18698v-44.715h-13.752v66.79z" fill="#068cce"/><g transform="matrix(3.0158 0 0 3.0158 78.773 654.8)"><path d="m0 0c-2.373 0-4.606-0.599-6.556-1.655-0.974-0.803-2.181-2.139-2.251-3.952-0.022-0.925 0.407-1.511 0.527-1.612 2.181 2.561 5.429 4.186 9.057 4.186 6.567 0 11.892-5.324 11.892-11.893 0-3.113-1.197-5.946-3.155-8.066l-0.11-0.874c2.696 2.516 4.382 6.101 4.382 10.08 0 7.615-6.172 13.786-13.786 13.786" fill="#068cce"/></g><g transform="matrix(3.0158 0 0 3.0158 90.199 600.77)"><path d="m0 0c-2.526 3.266-2.626 3.394-3.946 5.182-3.22-0.093-15.272 4.096-7.319 11.013-1.074-0.294-3.028-1.911-3.745-4.042-1.573-4.676 2.58-11.789 15.01-12.153" fill="#068cce"/></g><g transform="matrix(3.0158 0 0 3.0158 92.567 595.2)"><path d="m0 0c-5.482-0.449-12.87 2.337-15.711 7.007-1.501 2.467-1.922 5.923 0.325 8.759 0 0-1.219-0.74-2.091-2.556-3.296-6.991 2.512-17.397 16.407-19.048 2e-3 0 0.933 0.566 3.574 2.566-0.862 1.17-1.21 1.615-2.504 3.272" fill="#26b9f1"/></g><g transform="matrix(3.0158 0 0 3.0158 37.135 630.86)"><path d="m0 0c-0.108-0.104-1.05-1.535-1.335-3.869-0.771-6.199 3.437-14.499 13.339-17.514 2e-3 0 1.012 0.505 3.732 2.206-8.932 1.299-18.992 10.254-15.736 19.177" fill="#80d6f7"/></g><g transform="matrix(3.0158 0 0 3.0158 424.6 595.64)"><path d="m0 0v-1.079h0.027c0.464 0.825 1.201 1.237 2.21 1.237 0.448 0 0.82-0.062 1.118-0.184 0.298-0.123 0.54-0.294 0.724-0.513s0.314-0.48 0.388-0.783c0.075-0.303 0.112-0.639 0.112-1.007v-4.473h-1.118v4.605c0 0.421-0.123 0.754-0.369 1s-0.583 0.368-1.013 0.368c-0.342 0-0.638-0.053-0.888-0.157-0.25-0.106-0.459-0.255-0.625-0.448-0.167-0.193-0.292-0.419-0.375-0.678-0.084-0.258-0.125-0.542-0.125-0.848v-3.842h-1.118v6.802z" fill="#379b9a"/></g><g transform="matrix(3.0158 0 0 3.0158 469.91 576.44)"><path d="m0 0c-0.508-0.386-1.149-0.579-1.921-0.579-0.544 0-1.015 0.088-1.414 0.264-0.399 0.175-0.735 0.42-1.007 0.736s-0.476 0.693-0.612 1.132-0.212 0.916-0.23 1.434c0 0.518 0.079 0.991 0.237 1.421s0.379 0.803 0.664 1.119c0.285 0.315 0.623 0.561 1.014 0.736 0.39 0.175 0.817 0.263 1.282 0.263 0.606 0 1.108-0.125 1.507-0.375s0.719-0.568 0.96-0.954c0.242-0.386 0.408-0.807 0.501-1.263 0.092-0.456 0.129-0.89 0.111-1.302h-5.092c-9e-3 -0.298 0.027-0.581 0.106-0.849 0.078-0.267 0.206-0.504 0.381-0.71 0.175-0.207 0.399-0.371 0.671-0.494s0.592-0.184 0.961-0.184c0.473 0 0.862 0.11 1.164 0.329 0.303 0.219 0.502 0.552 0.599 1h1.105c-0.149-0.763-0.478-1.338-0.987-1.724m-0.269 4.368c-0.102 0.237-0.237 0.441-0.408 0.612-0.172 0.172-0.373 0.307-0.606 0.408-0.232 0.101-0.488 0.151-0.77 0.151-0.289 0-0.55-0.05-0.782-0.151-0.233-0.101-0.432-0.239-0.599-0.414-0.167-0.176-0.298-0.38-0.394-0.612-0.097-0.233-0.154-0.48-0.172-0.743h3.908c-0.018 0.263-0.077 0.513-0.177 0.749" fill="#379b9a"/></g><g transform="matrix(3.0158 0 0 3.0158 497.37 595.64)"><path d="m0 0v-0.986h-1.355v-4.224c0-0.132 0.011-0.237 0.033-0.316s0.063-0.14 0.125-0.184c0.061-0.044 0.147-0.073 0.256-0.086 0.11-0.013 0.252-0.02 0.428-0.02h0.513v-0.986h-0.855c-0.289 0-0.537 0.019-0.743 0.059s-0.373 0.112-0.5 0.217c-0.128 0.105-0.222 0.254-0.283 0.447-0.062 0.193-0.092 0.448-0.092 0.764v4.329h-1.158v0.986h1.158v2.04h1.118v-2.04z" fill="#379b9a"/></g><path d="m529.75 575.13-4.1648 16.309h-0.0814l-4.1256-16.309h-3.6491l-6.5894 20.513h3.7305l4.6443-16.783h0.0784l4.1256 16.783h3.6913l4.2854-16.783h0.0784l4.6051 16.783h3.4892l-6.5472-20.513z" fill="#379b9a"/><g transform="matrix(3.0158 0 0 3.0158 554.51 589.59)"><path d="m0 0c0.14 0.434 0.351 0.811 0.632 1.132 0.28 0.32 0.627 0.572 1.039 0.756s0.886 0.276 1.421 0.276c0.544 0 1.02-0.092 1.428-0.276s0.752-0.436 1.033-0.756c0.28-0.321 0.491-0.698 0.631-1.132s0.21-0.901 0.21-1.401-0.07-0.966-0.21-1.395c-0.14-0.43-0.351-0.805-0.631-1.125-0.281-0.32-0.625-0.57-1.033-0.75s-0.884-0.27-1.428-0.27c-0.535 0-1.009 0.09-1.421 0.27s-0.759 0.43-1.039 0.75c-0.281 0.32-0.492 0.695-0.632 1.125-0.14 0.429-0.211 0.895-0.211 1.395s0.071 0.967 0.211 1.401m1.138-2.5c0.11-0.32 0.261-0.588 0.454-0.803s0.419-0.379 0.678-0.493 0.533-0.171 0.822-0.171c0.29 0 0.564 0.057 0.823 0.171 0.258 0.114 0.484 0.278 0.677 0.493s0.344 0.483 0.454 0.803c0.109 0.32 0.165 0.686 0.165 1.099 0 0.412-0.056 0.778-0.165 1.098-0.11 0.32-0.261 0.59-0.454 0.81-0.193 0.219-0.419 0.385-0.677 0.5-0.259 0.113-0.533 0.17-0.823 0.17-0.289 0-0.563-0.057-0.822-0.17-0.259-0.115-0.485-0.281-0.678-0.5-0.193-0.22-0.344-0.49-0.454-0.81s-0.164-0.686-0.164-1.098c0-0.413 0.054-0.779 0.164-1.099" fill="#379b9a"/></g><g transform="matrix(3.0158 0 0 3.0158 592.72 595.64)"><path d="m0 0v-1.434h0.027c0.271 0.552 0.605 0.96 0.999 1.224 0.395 0.263 0.895 0.385 1.501 0.368v-1.184c-0.448 0-0.83-0.062-1.145-0.184-0.316-0.123-0.571-0.303-0.763-0.54-0.194-0.237-0.334-0.524-0.422-0.862-0.087-0.337-0.131-0.726-0.131-1.164v-3.026h-1.118v6.802z" fill="#379b9a"/></g><path d="m618.36 603.46v-16.783l9.3639 8.9658h4.5236l-8.1335-7.458 8.7306-13.055h-4.2854l-7.0267 10.712-3.1726-2.9343v-7.7776h-3.3746v28.33z" fill="#379b9a"/></g></svg>
