<svg width="800" height="602.7" version="1.1" viewBox="0 0 211.67 159.47" xmlns="http://www.w3.org/2000/svg">
 <defs>
  <clipPath id="clipPath19990">
   <path d="m443.34 384.48h9.457v2.408h-9.457z"/>
  </clipPath>
  <linearGradient id="linearGradient19502" x2="1" gradientTransform="matrix(16.286 0 0 16.286 .016548 140.9)" gradientUnits="userSpaceOnUse">
   <stop stop-color="#5467aa" offset="0"/>
   <stop stop-color="#5467aa" offset=".56263"/>
   <stop stop-color="#d1cea9" offset="1"/>
  </linearGradient>
  <linearGradient id="linearGradient19480" x2="1" gradientTransform="matrix(27.196 0 0 27.196 18.265 140.98)" gradientUnits="userSpaceOnUse">
   <stop stop-color="#5467aa" offset="0"/>
   <stop stop-color="#5467aa" offset=".57257"/>
   <stop stop-color="#d1cea9" offset="1"/>
  </linearGradient>
  <linearGradient id="linearGradient19458" x2="1" gradientTransform="matrix(25.734 0 0 25.734 46.184 140.65)" gradientUnits="userSpaceOnUse">
   <stop stop-color="#5467aa" offset="0"/>
   <stop stop-color="#5467aa" offset=".59223"/>
   <stop stop-color="#d1cea9" offset="1"/>
  </linearGradient>
  <linearGradient id="linearGradient19436" x2="1" gradientTransform="matrix(18.635 0 0 18.635 71.496 140.65)" gradientUnits="userSpaceOnUse">
   <stop stop-color="#5467aa" offset="0"/>
   <stop stop-color="#5467aa" offset=".57257"/>
   <stop stop-color="#d1cea9" offset="1"/>
  </linearGradient>
  <linearGradient id="linearGradient19414" x2="1" gradientTransform="matrix(22.55 0 0 22.55 91.005 140.65)" gradientUnits="userSpaceOnUse">
   <stop stop-color="#5467aa" offset="0"/>
   <stop stop-color="#5467aa" offset=".53242"/>
   <stop stop-color="#d1cea9" offset="1"/>
  </linearGradient>
  <linearGradient id="linearGradient19392" x2="1" gradientTransform="matrix(10.597 0 0 10.597 114.3 140.65)" gradientUnits="userSpaceOnUse">
   <stop stop-color="#5467aa" offset="0"/>
   <stop stop-color="#5467aa" offset=".53242"/>
   <stop stop-color="#d1cea9" offset="1"/>
  </linearGradient>
  <linearGradient id="linearGradient19370" x2="1" gradientTransform="matrix(37.22 0 0 37.22 123.8 140.65)" gradientUnits="userSpaceOnUse">
   <stop stop-color="#5467aa" offset="0"/>
   <stop stop-color="#5467aa" offset=".53242"/>
   <stop stop-color="#d1cea9" offset="1"/>
  </linearGradient>
  <linearGradient id="linearGradient19348" x2="1" gradientTransform="matrix(25.734 0 0 25.734 160.63 140.65)" gradientUnits="userSpaceOnUse">
   <stop stop-color="#5467aa" offset="0"/>
   <stop stop-color="#5467aa" offset=".58243"/>
   <stop stop-color="#d1cea9" offset="1"/>
  </linearGradient>
  <linearGradient id="linearGradient5752" x1="592.17" x2="744.12" y1="263.67" y2="220.18" gradientTransform="matrix(.27753 0 0 .27753 .051607 .0017365)" gradientUnits="userSpaceOnUse">
   <stop stop-color="#918dce" offset="0"/>
   <stop stop-color="#918dce" stop-opacity="0" offset="1"/>
  </linearGradient>
 </defs>
 <g stroke-width="8.4093">
  <path d="m37.719 56.385v-10.217l-7.6441 10.217zm30.358 18.795h-11.563v12.648h-24.454v-12.648h-30.719l55.174-75.179v50.599h11.563z" fill="#d3393c"/>
  <path d="m129.49 46.626c0-4.499-1.581-8.3505-4.7429-11.563-3.1619-3.2124-6.9797-4.8185-11.462-4.8185s-8.3 1.6062-11.462 4.8185c-3.1619 3.2124-4.7345 7.0638-4.7345 11.563 0 4.499 1.5725 8.3336 4.7345 11.504 3.1619 3.1703 6.9797 4.7597 11.462 4.7597s8.3-1.5894 11.462-4.7597c3.1619-3.1703 4.7429-7.005 4.7429-11.504m26.859 0c0 11.807-4.1963 21.906-12.58 30.299-8.3925 8.3925-18.534 12.589-30.425 12.589-11.882 0-21.999-4.1963-30.349-12.589-8.3589-8.3925-12.53-18.492-12.53-30.299 0-11.882 4.171-22.024 12.53-30.417 8.3505-8.3925 18.467-12.589 30.349-12.589 11.891 0 22.032 4.1963 30.425 12.589 8.3841 8.3925 12.58 18.534 12.58 30.417" fill="#d3393c"/>
  <path d="m160.63 158.48h10.596v-13.404l15.137 14.397v-36.74h-10.596v13.413l-15.137-14.405z" fill="url(#linearGradient19348)"/>
  <path d="m129.27 127.45c-3.6244 3.6412-5.4324 8.0309-5.4324 13.177 0 5.1213 1.808 9.5025 5.4324 13.135 3.6244 3.6412 8.0057 5.4576 13.161 5.4576 5.1465 0 9.5446-1.8164 13.177-5.4576 3.6328-3.6328 5.4492-8.0141 5.4492-13.135 0-5.1465-1.8164-9.5362-5.4492-13.177-3.6328-3.6328-8.0309-5.4492-13.177-5.4492-5.1549 0-9.5362 1.8164-13.161 5.4492m8.1654 18.156c-1.3707-1.3539-2.0519-3.019-2.0519-4.9783 0-1.9426 0.68116-3.616 2.0519-5.0036 1.3707-1.396 3.0274-2.0855 4.9615-2.0855 1.9426 0 3.6076 0.68956 4.9615 2.0855 1.3707 1.3875 2.0603 3.061 2.0603 5.0036 0 1.9594-0.68956 3.6244-2.0603 4.9783-1.3539 1.3875-3.0189 2.0771-4.9615 2.0771-1.9342 0-3.5908-0.68956-4.9615-2.0771" fill="url(#linearGradient19370)"/>
  <path d="m114.3 158.48h10.604v-35.765h-10.604z" fill="url(#linearGradient19392)"/>
  <path d="m91.005 122.74v10.646h6.0043v25.102h10.596v-25.102h5.9454v-10.646z" fill="url(#linearGradient19414)"/>
  <path d="m76.962 127.45c-3.6328 3.6412-5.4492 8.0309-5.4492 13.177 0 5.1213 1.8164 9.5025 5.4492 13.135 3.6412 3.6412 8.0309 5.4576 13.177 5.4576v-11.538c-1.9426 0-3.616-0.68956-5.0035-2.0771-1.3959-1.3539-2.0939-3.019-2.0939-4.9783 0-1.9426 0.69797-3.616 2.0939-5.0036 1.3875-1.396 3.061-2.0855 5.0035-2.0855v-11.538c-5.1465 0-9.5362 1.8164-13.177 5.4492" fill="url(#linearGradient19436)"/>
  <path d="m46.184 158.48h10.596v-13.404l15.137 14.397v-36.74h-10.596v13.413l-15.137-14.405z" fill="url(#linearGradient19458)"/>
  <path d="m34.831 122.74v22.907c0 0.79888-0.29433 1.4968-0.89139 2.0939-0.58865 0.60548-1.295 0.8914-2.136 0.8914-0.8157 0-1.4969-0.28592-2.0939-0.8914-0.58865-0.59706-0.88298-1.295-0.88298-2.0939v-22.907h-10.596v22.907c0 3.759 1.3371 6.9629 3.9944 9.6118 2.6573 2.6405 5.8529 3.9692 9.5782 3.9692 3.759 0 6.9713-1.3287 9.6287-3.9692 2.6658-2.6489 3.9944-5.8529 3.9944-9.6118v-22.907z" fill="url(#linearGradient19480)"/>
  <path d="m4.6417 122.74v23.336c0 1.0764-0.32796 1.9762-0.9923 2.7162-0.66434 0.7232-1.5305 1.0848-2.6069 1.0848l-1.0428-0.15137v8.8298c1.2446 0.33638 2.7583 0.51297 4.541 0.51297 3.6833 0 6.6097-1.1857 8.7709-3.5319 1.9846-2.1696 2.9769-4.9195 2.9769-8.2496v-24.547z" fill="url(#linearGradient19502)"/>
  <path d="m161.98 50.668c1.4968 0.37842 3.3049 0.57183 5.3904 0.57183 4.541 0 8.2496-1.4632 11.033-4.3644 2.5985-2.6826 3.9272-6.0968 3.9272-10.15 0-2.4892-0.47933-4.8522-1.4296-7.0386-0.38683-0.8998-1.3119-2.5228-2.7414-4.8185-1.0175-1.6566-1.5053-2.9433-1.5053-3.944 0-1.5053 0.47932-2.691 1.438-3.5235 0.86616-0.75684 1.9342-1.1016 3.1787-1.068v-10.428c-1.11-0.37001-2.4724-0.55502-4.0701-0.55502-4.6251 0-8.2075 1.3034-10.629 3.8683-2.4303 2.5733-3.6665 6.0463-3.6665 10.31 0 2.6069 0.87457 5.5333 2.5985 8.7121 1.7996 3.3301 2.6826 5.6006 2.6826 6.9377 0 1.4548-0.50456 2.6826-1.4969 3.6665-0.98389 0.9923-2.2453 1.4884-3.7421 1.4884l-0.96708-0.08409v10.419" fill="#d3393c"/>
  <path d="m147.68 119.46-141.17-3.8515 90.106-24.622 49.75 11.689z" fill="#2a3073"/>
  <path d="m93.78 112.39-8.2327 0.30274h-0.07568s-0.74002-3.8346-1.7407-6.307l-1.2278-1.85c-2.0939 1.2866-3.5403 3.5992-3.7253 6.2649l-0.02523 0.79048 0.26069 1.8753c0.87457 3.4646 3.8935 5.9958 7.4507 5.937 3.8094-0.1009 6.8788-3.1367 7.3161-7.0134" fill="#918dce"/>
  <path d="m66.114 113.49c-0.06728-3.0778-2.4807-5.5249-5.3988-5.4829-2.918 0.0841-5.2306 2.6237-5.1633 5.7015 0.05887 3.0778 2.4723 5.5249 5.3988 5.4913 2.918-0.0841 5.2306-2.6321 5.1633-5.7099" fill="#918dce"/>
  <path d="m60.984 117.52c-2.3967 0.0337-4.3813-1.9762-4.4317-4.5074l0.0084-0.32796-0.12614 1.1689c0.05045 2.5312 2.0351 4.541 4.4317 4.5074 2.2957-0.0672 4.1206-1.9762 4.2383-4.356-0.4541 1.9762-2.1023 3.4562-4.1206 3.5151" fill="#fff"/>
 </g>
 <g fill="#918dce" stroke-width="8.4093">
  <path d="m78.896 113.49-0.26069-1.8837 0.02523-0.78206c-0.80729-2.7667-3.2712-4.7597-6.1472-4.7176-3.4815 0.0925-6.2313 3.1198-6.1556 6.7863 0.07568 3.6665 2.9517 6.5761 6.4331 6.5256 3.1955-0.0925 5.7772-2.6658 6.1052-5.9286"/>
  <path d="m110.68 111.8-16.743 0.61388c0.90821 4.0533 4.3981 7.0302 8.5018 6.9713 4.1962-0.10932 7.602-3.3721 8.2411-7.5852"/>
  <path d="m137.68 111.64c-2.7751-0.6307-5.3147-0.66433-6.4584-0.63911l-0.55502 0.0253-12.404 0.45411c0.82411 4.9783 4.9951 8.7205 9.9398 8.6364 4.7513-0.11773 8.6364-3.7422 9.4773-8.4766"/>
 </g>
 <g fill="#fff" stroke-width="8.4093">
  <path d="m72.673 117.44c-2.7667 0.0421-5.054-2.2789-5.1129-5.1886l0.0084-0.38683-0.14296 1.3539c0.06728 2.9096 2.3462 5.2222 5.1129 5.1886 2.6405-0.0757 4.7513-2.2789 4.8774-5.0204-0.51297 2.2789-2.4219 3.986-4.7429 4.0533"/>
  <path d="m86.212 117.19c-3.1367 0.0421-5.7183-2.5817-5.7856-5.8781l0.0084-0.43728-0.15978 1.5305c0.06728 3.2964 2.6573 5.9202 5.7856 5.8781 2.9937-0.0841 5.382-2.5817 5.5249-5.6847-0.58024 2.5817-2.7414 4.5158-5.3736 4.5915"/>
  <path d="m102.44 116.68c-3.7085 0.0505-6.7695-3.0526-6.8536-6.9545l0.01682-0.51297-0.18501 1.808c0.07568 3.9019 3.1367 7.005 6.8452 6.9545 3.5403-0.10091 6.3574-3.0526 6.534-6.719-0.68957 3.0442-3.246 5.3399-6.3574 5.424"/>
  <path d="m128.09 117.27c-4.2215 0.0588-7.7029-3.473-7.7954-7.9216l0.0168-0.58025-0.21864 2.0603c0.0925 4.4401 3.574 7.972 7.7954 7.9132 4.0281-0.10932 7.2404-3.473 7.4422-7.6525-0.79047 3.4646-3.7001 6.0799-7.2404 6.1808"/>
 </g>
 <g fill="#5955af" stroke-width="8.4093">
  <path d="m136.33 63.114-1.6398 0.0084 1.623-0.0084z"/>
  <path d="m137.26 63.114 0.15137 0.0084-0.0757-0.0084-0.13454-0.0084z"/>
  <path d="m137.34 63.114-0.65592-0.04204 0.52137 0.03364z"/>
  <path d="m136.67 63.03-0.28591 0.0084h0.0588z"/>
  <path d="m136.42 63.114h-0.0252l0.83252 0.03364-0.0672-0.0084z"/>
  <path d="m136.42 63.114h0.0252-0.0756z"/>
  <path d="m137.17 63.114-0.51296-0.04204-0.22705 0.01681z"/>
  <path d="m82.512 104.57-0.02523-0.0336c-2.0771 1.253-3.5235 3.5151-3.759 6.1304l0.05045 0.16818c0.19341-2.6658 1.6398-4.9783 3.7337-6.2649"/>
  <path d="m82.512 104.49c-1.5053-1.6903-3.616-3.0105-3.616-3.0105l-0.05886 8e-3c0.1766 0.11773 2.1612 1.396 3.5992 3.0021l0.02523 0.0336 0.05045-0.0336"/>
  <path d="m122.12 66.142c1.11-1.4044 5.0876-2.548 10.983-2.9937l1.6482-0.08409-1.7239 0.08409c-5.8949 0.44569-9.8726 1.5894-10.983 2.9937 0 0-2.4639 0.58865-7.5684 2.4976-10.571 3.9692-12.093 5.0204-108.03 46.949h0.084093c95.934-41.929 97.456-42.98 108.03-46.949 5.1045-1.9173 7.5684-2.4976 7.5684-2.4976"/>
  <path d="m78.98 113.49-0.02523 0.1766c0.93344 3.389 3.9272 5.8361 7.4338 5.7604h0.04205c-3.5571 0.0504-6.5761-2.4723-7.4507-5.937"/>
  <path d="m168.03 119.62 7.5179 0.0589h0.0253z"/>
  <path d="m147.68 119.46s-0.80729-3.8431-5.6931-6.3154c-1.3707-0.69798-2.8255-1.1689-4.2299-1.4884v0.0168c1.3707 0.31955 2.8087 0.79047 4.1458 1.4716 4.8942 2.4807 5.7015 6.3154 5.7015 6.3154l20.435 0.15137z"/>
  <path d="m82.512 104.49-0.05045 0.0336 1.2194 1.85c1.0091 2.4723 1.7491 6.307 1.7491 6.307h0.07568c0-0.0168-0.74002-3.8431-1.7407-6.307l-1.253-1.8837"/>
  <path d="m86.464 119.37h0.04205c3.8262-0.0756 6.9209-3.1283 7.3497-7.0218l-0.07568 8e-3c-0.43728 3.8683-3.5067 6.9125-7.3161 7.0134"/>
 </g>
 <path d="m155.17 100.7 8e-3 0.0168-8e-3 -0.0168-22.688-0.22705-6.3827-0.0589-3.7085 0.65593-6.9966 1.253 5.6595-0.1009 13.547-0.24387 23.134-0.40365h0.21022l-1.068-0.85775z" fill="#918dce" stroke-width="8.4093"/>
 <g fill="#5955af" stroke-width="8.4093">
  <path d="m126.16 100.45h-0.0168l6.3827 0.0673 22.688 0.21864-22.613-0.21864z"/>
  <path d="m156.93 100.7 1.068 0.85775h0.0757l-1.068-0.85775-1.7828-0.0168z"/>
  <path d="m85.539 112.73 8.2327-0.30274z"/>
  <path d="m93.78 112.39h0.0925z"/>
  <path d="m51.313 107.43 1.5641 6.4584-46.352 1.7071 46.428-1.7071-1.5641-6.4584 27.524-5.937-0.01681-8e-3z"/>
  <path d="m128.85 74.214h-0.0589c1.4716-0.01681 2.8592-0.04205 4.1374-0.06728-1.2614 0.02523-2.6321 0.05045-4.0785 0.06728"/>
  <path d="m128.76 74.214h-0.0253c-7.3498 0.08409-17.491 3.2965-18.576 3.6496l0.0504 0.0084c0.95025-0.31114 11.151-3.5571 18.551-3.6581"/>
  <path d="m126.16 100.45-0.31114-0.89139c-1.1268-3.2292-5.0036-14.388-5.8361-16.995-0.98389-3.0526-2.3042-3.6076-2.3042-3.6076l-7.4675-1.0512-0.0253 0.0084 7.4086 1.0428s1.3287 0.55502 2.3126 3.616c0.83252 2.5985 4.7092 13.758 5.8361 16.987l0.31115 0.89139h0.0757"/>
  <path d="m141.88 73.878s-3.5151 0.16819-8.9728 0.28592c5.0456-0.10091 8.443-0.26069 8.9728-0.28592"/>
  <path d="m185.02 109.79c-2.6321-4.0533-5.2642-7.0722-5.2642-7.0722l-7.6273-0.79889v8e-3l7.5516 0.79048s2.6321 3.0189 5.2642 7.0722c2.5648 3.9608 5.1633 8.8634 5.1633 8.8634l-9.0737 0.65594h8e-3l9.1409-0.66434s-2.5985-4.9026-5.1633-8.855"/>
  <path d="m161.64 81.699 10.1 19.526 0.33637 0.65593 0.0841 8e-3 -8e-3 -8e-3 -10.436-20.182-1.1773-2.2789-0.0841-0.0084z"/>
  <path d="m175.6 119.62h0.0505l5.4576-0.39523z"/>
  <path d="m105.64 77.242-1.48-0.14296 1.2698 0.11773z"/>
  <path d="m108.75 80.269c1.4128 4.6588 6.6266 22.049 6.6266 22.049l0.0757-0.0168c-0.0757-0.24387-5.2222-17.407-6.6266-22.032-0.58025-1.9173-1.8669-2.7246-3.1871-3.0105l-0.21022-0.03364c1.3623 0.2691 2.7246 1.0596 3.3217 3.0442"/>
  <path d="m122.46 101.04 3.7169-0.66433h-0.0672l-3.7253 0.66433-6.9209 1.2362v8e-3z"/>
  <path d="m117.66 78.924s1.3287 0.55502 2.3042 3.616c0.84093 2.5985 4.7176 13.758 5.8445 16.987l0.30274 0.89138 6.45 0.0673 22.613 0.21865-13.329-26.834c-0.52979 0.02523-3.9188 0.1766-8.9728 0.27751-1.2698 0.02523-2.6573 0.05045-4.129 0.06728-7.4002 0.10091-17.592 3.3469-18.543 3.6581l7.4591 1.0512"/>
 </g>
 <path d="m108.83 80.269c1.396 4.6251 6.5509 21.789 6.6265 22.032l6.9209-1.2278 3.7253-0.66434-0.31114-0.89138c-1.1268-3.2376-4.9951-14.388-5.8361-16.995-0.98389-3.0526-2.3042-3.6076-2.3042-3.6076l-7.417-1.0512-0.0505 0.01681 0.0505-0.01681-0.0505-0.0084-0.0756 0.02523 0.0756-0.02523-4.541-0.59706c1.3202 0.28592 2.6069 1.0932 3.1871 3.0105" fill="#2a3073" stroke-width="8.4093"/>
 <path d="m162.23 93.976-0.0505-0.02523-0.0253 0.02523-4.0449-1.7239 2.8255-1.8669 0.0504 0.01681 0.0252-0.01681 3.6496 1.3034-2.4303 2.2873m9.9566 7.9048-0.0841-8e-3 -10.428-20.182c-1.9908-4.0412-3.8611-8.2667-5.9304-11.575-0.42457-0.66543-1.6989-1.9484-5.5231-3.7044-4.314-1.9762-8.5186-3.0526-12.824-3.288 1.2614 0.21023 3.5151 1.1353 5.2895 4.8774 0.52137 1.0932 1.8753 3.8935 3.7253 7.6609 5.2895 10.486 13.699 26.876 13.699 26.876s-8.4093-16.39-13.699-26.876c6.265 12.782 18.097 36.782 21.637 43.939l7.5432 0.0588 5.4997-0.39524-8.9055-17.382" fill="#2a3073" stroke-width="8.4093"/>
 <g fill="#5955af" stroke-width="8.4093">
  <path d="m142.55 67.992c0.64752 1.3707 2.0603 4.1963 3.8094 7.6609-1.8501-3.7674-3.2124-6.5677-3.7337-7.6609-1.766-3.7421-4.0197-4.6672-5.2895-4.8774l-0.14296-0.01682c1.253 0.19342 3.5571 1.0848 5.3567 4.8942"/>
  <path d="m190.15 118.62s-2.5985-4.9026-5.1633-8.8634c-2.6321-4.0533-5.2642-7.0722-5.2642-7.0722l-7.5516-0.78206 8.9055 17.374z"/>
  <path d="m65.609 103.48 43.88-9.9314-43.88 9.9314m43.804-9.923-43.88 9.923 43.88-9.923m-74.641 15.986 74.414-17.744-74.414 17.744m74.338-17.744-74.414 17.744 74.414-17.744m-7.3834-14.262-68.183 27.347 68.183-27.347s1.0848-0.3616 2.4219-0.37842l1.48 0.14296 4.541 0.60547 0.0253-0.0084-5.1213-0.69798 5.1213 0.69798c1.0848-0.35319 11.226-3.5656 18.576-3.6496h0.0841c1.4464-0.01681 2.8087-0.04205 4.0701-0.06728 5.4576-0.10932 8.9728-0.28592 8.9728-0.28592h0.0756l13.337 26.843-13.337-26.843h-0.0756l13.32 26.843 1.7912 0.0168 1.0596 0.85775h-0.0756l-0.20182 8e-3 -36.766 0.63911-5.6595 0.10092s-5.2222-17.39-6.6266-22.049c-0.60547-1.9762-1.9594-2.7751-3.3301-3.0358l-0.37842-0.05045 0.37842 0.05045-1.2614-0.11773c-1.3034 0.02523-2.3462 0.37001-2.3462 0.37001l-68.183 27.356 68.183-27.356s1.0428-0.34478 2.3462-0.37001c-1.3371 0.01681-2.4219 0.37842-2.4219 0.37842m-11.504 27.137 6.0968-0.86616 9.9482-1.4128 5.937-0.84093-5.937 0.84093-9.9482 1.4128-6.0968 0.86616-3.3974 0.47933 3.3974-0.47933m21.116-4.8101-25.758 4.129 25.758-4.129m-0.38682-1.581-26.801 4.7344 26.801-4.7344m-0.42047-1.3875-27.709 5.2726 27.709-5.2726m-28.777 4.2719 28.087-5.7183-28.087 5.7183m0.07568-8e-3 28.096-5.7099-28.096 5.7099m0.73161 3.3806 1.253 1.8753c1.0007 2.4723 1.7407 6.2986 1.7407 6.3154l8.2327-0.30274 0.09251-8e-3 16.827-0.62228 7.4759-0.26911 12.404-0.46251 0.63069-0.0252c1.1016-0.0253 3.7001 0 6.534 0.63911 1.4044 0.31955 2.8592 0.79048 4.2215 1.4884 4.8942 2.4808 5.7015 6.3154 5.7015 6.3154l20.359 0.15137c-3.5319-7.1563-15.372-31.157-21.629-43.93-1.7491-3.473-3.1619-6.2986-3.8094-7.6693-1.7996-3.801-4.1038-4.7008-5.3568-4.8858l-0.83252-0.03364h-0.0841 0.0337-1.623l-1.6482 0.08409c-5.8949 0.44569-9.8726 1.5894-10.983 2.9937 0 0-2.4639 0.58024-7.5684 2.4976-10.571 3.9607-12.093 5.0203-108.03 46.949l46.344-1.7071-1.5641-6.4584 27.583-5.9454 0.01681 8e-3 0.05887-8e-3s2.1107 1.3203 3.616 3.0105"/>
  <path d="m161.64 81.699 10.436 20.182-0.33637-0.65593z"/>
  <path d="m121.11 102.22-5.6595 0.10092v-0.0168l-0.0757 0.0168 5.6595-0.10092 13.547-0.23546 23.21-0.41206-23.134 0.41206z"/>
  <path d="m110.26 77.83-0.0504-0.0084-0.0253 0.0084 0.0505 0.0084z"/>
  <path d="m110.68 111.8h0.0757l7.4002-0.27751z"/>
  <path d="m60.816 108.02h-0.04204c2.9264-0.0337 5.3399 2.4135 5.3988 5.4913 0.06728 3.0778-2.2453 5.6258-5.1633 5.7015l0.04205 8e-3c2.9349-0.0672 5.2642-2.6237 5.2054-5.7183-0.06728-3.0862-2.506-5.5417-5.4408-5.4829"/>
  <path d="m78.728 111.55 0.02523-0.78207-0.05887-0.16818-0.02523 0.16818-0.01681 0.78207 0.26069 1.8837 0.05045 0.16818 0.02523-0.16818z"/>
  <path d="m72.841 119.37h0.03364c3.1619-0.0672 5.7183-2.5564 6.122-5.752l-0.05045-0.1766c-0.32796 3.2628-2.9096 5.8445-6.1052 5.9286"/>
  <path d="m78.728 110.8 0.02523-0.16819c-0.85775-2.691-3.2965-4.6167-6.1388-4.5578l-0.03364 8e-3c2.8844-0.0421 5.3399 1.951 6.1472 4.7176"/>
  <path d="m102.44 119.37h0.0421c4.2131-0.0841 7.6357-3.3553 8.2748-7.5852h-0.0757c-0.63911 4.2215-4.0449 7.4759-8.2411 7.5852"/>
  <path d="m128.17 120.13h0.0421c4.7597-0.10091 8.6616-3.7253 9.5109-8.4598l-0.0757-0.0168c-0.83252 4.7344-4.726 8.3589-9.4773 8.4766"/>
  <path d="m131.2 111.05c1.1437-0.0252 3.6833 8e-3 6.4584 0.6391l0.0672 0.0168 8e-3 -0.0168c-2.8424-0.64752-5.4324-0.66433-6.534-0.6391"/>
  <path d="m160.97 90.444 3.5992 1.2866-2.4051 2.2621 0.0504 0.02523 2.4387-2.2873-3.6581-1.3034z"/>
  <path d="m55.602 113.74c-0.06728-3.0778 2.2453-5.6258 5.1633-5.7099h-0.03364c-2.9433 0.0672-5.2726 2.6237-5.2054 5.7099 0.06728 3.0946 2.4976 5.5502 5.4408 5.4913l0.03364-8e-3c-2.918 0.0421-5.3315-2.4051-5.3988-5.4829"/>
  <path d="m66.366 112.9c-0.07568-3.6665 2.6742-6.6938 6.1556-6.7863h-0.04205c-3.4983 0.0672-6.2649 3.1114-6.1893 6.7863 0.07568 3.6833 2.9685 6.6013 6.4668 6.5256h0.04204c-3.4815 0.0504-6.3574-2.8592-6.4331-6.5256"/>
  <path d="m93.949 112.39h-0.07568c0.90821 4.0617 4.4149 7.0554 8.5355 6.9629h0.0421c-4.1038 0.0672-7.5936-2.918-8.5018-6.9629"/>
  <path d="m110.68 111.8-16.819 0.62229 0.07568-8e-3z"/>
  <path d="m118.25 111.47h-0.0756c0.82411 4.9951 5.012 8.7457 9.9734 8.6364h0.0421c-4.9447 0.0841-9.1157-3.6581-9.9398-8.6364"/>
  <path d="m130.61 111.05 0.56343-0.0252-0.63911 0.0252-12.404 0.46251 0.0757-8e-3z"/>
  <path d="m160.97 90.444-0.0505-0.01681-2.8171 1.8669 4.0365 1.7239 0.0252-0.02523-3.986-1.6987z"/>
  <path d="m160.97 90.444-2.7919 1.8501 3.986 1.6987 2.4051-2.2621z"/>
 </g>
 <path d="m17.003 112.48 88.971-34.873 0.90821 0.21864 0.83252 0.67274z" fill="#fff" stroke-width="8.4093"/>
 <g transform="matrix(8.4093 0 0 -8.4093 -3696.3 3343.8)" clip-path="url(#clipPath19990)">
  <g transform="translate(452.35,386.89)">
   <path d="m0 0-7.079-1.892 7.143 1.703-0.064 0.189m0.064-0.189-7.143-1.703-0.075-0.02 7.218 1.721v2e-3m0-2e-3 -7.218-1.721-1.857-0.496 5.705 1.261 0.019-0.015 3.418 0.773-0.067 0.198m0.067-0.198-3.418-0.773 2e-3 -1e-3 3.417 0.773-1e-3 1e-3m1e-3 -1e-3 -3.417-0.773 0.565-0.45 0.172 0.013 2.929 0.469-0.062 0.184-3.119-0.551 3.119 0.551-0.055 0.164-3.222-0.614 3.222 0.614-0.058 0.173-3.282-0.667 3.282 0.667-1e-3 2e-3 -3.29-0.67 3.29 0.67-0.073 0.218m0.249-0.741-2.929-0.469 0.993 0.071 2.001 0.206z" fill="#dbd9ed"/>
  </g>
 </g>
 <path d="m201.12 44.31-49.647 29.215c-0.50518 0.29433-0.87681 0.7144-1.0647 1.2166-0.54533 1.4621 0.58371 3.2057 2.5216 3.8941 0.41638 0.14717 0.84741 0.23633 1.2731 0.26551l57.471 3.3245z" fill="url(#linearGradient5752)" style="paint-order:markers stroke fill"/>
</svg>
