<svg width="800" height="283.2" version="1.1" viewBox="0 0 211.67 74.929" xmlns="http://www.w3.org/2000/svg">
 <defs>
  <clipPath id="clipPath20002">
   <path d="m0 0h612v792h-612z"/>
  </clipPath>
 </defs>
 <g transform="translate(-49.804 41.482)">
  <g transform="matrix(5.3251 0 0 -5.3251 -195.14 3193.8)">
   <g clip-path="url(#clipPath20002)">
    <g transform="translate(76.332 607.56)">
     <path d="m0 0v-5.547h2.899l-1.98-4.776c-0.067 0.212-0.181 0.393-0.339 0.541-0.267 0.249-0.637 0.375-1.1 0.375h-2.18v-4.387h2.178l-8e-3 -0.018h5.902l4.043 9.626v4.186z" fill="#fff200"/>
    </g>
    <g transform="translate(73.957 596.85)">
     <path d="m0 0c-0.112 0.276-0.27 0.521-0.471 0.727s-0.442 0.37-0.716 0.487c-0.162 0.07-0.332 0.119-0.51 0.147v4.366h-2.9c-0.815 0-1.503-0.16-2.053-0.478-0.075 0.31-0.171 0.612-0.286 0.903-0.33 0.834-0.802 1.574-1.403 2.2-0.605 0.63-1.342 1.133-2.19 1.496-0.849 0.361-1.788 0.545-2.793 0.545-1.016 0-1.961-0.184-2.809-0.546-0.782-0.333-1.469-0.787-2.046-1.35v1.693h-9.201v-5.559h2.646l-3.227-7.782h5.919l2.044 4.866c0.075-0.296 0.169-0.585 0.283-0.866 0.336-0.835 0.815-1.573 1.424-2.194 0.608-0.62 1.341-1.118 2.179-1.478 0.844-0.362 1.782-0.546 2.788-0.546 0.996 0 1.928 0.184 2.772 0.546 0.34 0.146 0.666 0.317 0.973 0.51v-0.838h2.9c1.041 0 1.876 0.289 2.483 0.857l0.191 0.2c0.092-0.158 0.201-0.301 0.326-0.429 0.2-0.206 0.44-0.37 0.712-0.488 0.273-0.117 0.571-0.177 0.884-0.177 0.318 0 0.618 0.059 0.894 0.177 0.274 0.117 0.515 0.281 0.716 0.488 0.201 0.206 0.36 0.452 0.471 0.731 0.112 0.278 0.168 0.578 0.168 0.894 0 0.32-0.057 0.622-0.168 0.898" fill="#fff200"/>
    </g>
    <g transform="translate(72.441 595.09)">
     <path d="m0 0-0.131-0.2-0.193-0.134-0.241-0.049-0.235 0.049-0.192 0.134-0.131 0.2-0.049 0.245 0.049 0.244 0.131 0.197 0.192 0.131 0.235 0.048c0.174 0 0.32-0.06 0.437-0.179 0.118-0.12 0.176-0.267 0.176-0.441l-0.048-0.245m-10.91 6.748c-0.059-0.133-0.132-0.243-0.223-0.337-0.085-0.087-0.186-0.156-0.309-0.211-0.115-0.05-0.234-0.075-0.365-0.075-0.143 0-0.272 0.025-0.394 0.078-0.13 0.056-0.237 0.127-0.328 0.218-0.088 0.088-0.155 0.189-0.206 0.311-0.05 0.119-0.074 0.243-0.074 0.38 0 0.147 0.024 0.276 0.074 0.395 0.051 0.122 0.118 0.223 0.207 0.311 0.086 0.086 0.188 0.153 0.312 0.204 0.126 0.051 0.26 0.077 0.409 0.077 0.137 0 0.261-0.025 0.38-0.074 0.117-0.049 0.213-0.114 0.294-0.197 0.091-0.094 0.164-0.204 0.222-0.335 0.051-0.116 0.076-0.24 0.076-0.381 0-0.131-0.025-0.25-0.075-0.364m11.727-4.48c-0.173 0.177-0.377 0.316-0.614 0.417-0.236 0.101-0.492 0.151-0.768 0.151s-0.531-0.05-0.765-0.151c-0.235-0.101-0.438-0.24-0.61-0.417l-0.111-0.126v1.033h1.551v3.997h-2.581c-0.934 0-1.681-0.222-2.219-0.66l-0.047-0.04c-0.079 0.456-0.201 0.899-0.37 1.326-0.314 0.795-0.764 1.5-1.336 2.097-0.575 0.599-1.277 1.078-2.086 1.423-0.808 0.344-1.706 0.519-2.668 0.519-0.972 0-1.875-0.175-2.683-0.519-0.808-0.345-1.51-0.824-2.085-1.423-0.143-0.149-0.278-0.304-0.405-0.466v2.206h-8.564v-4.922h2.804l-3.226-7.782h5.23l2.383 5.675c0.061-0.653 0.212-1.281 0.451-1.874 0.321-0.797 0.777-1.5 1.356-2.091 0.579-0.59 1.277-1.064 2.077-1.407 0.804-0.346 1.7-0.521 2.662-0.521 0.953 0 1.843 0.175 2.647 0.521 0.517 0.221 0.99 0.498 1.418 0.826v-1.129h2.581c0.957 0 1.719 0.259 2.264 0.771 0.194 0.181 0.351 0.391 0.479 0.627l0.078-0.239c0.099-0.242 0.234-0.451 0.407-0.628 0.172-0.177 0.375-0.316 0.61-0.417 0.234-0.101 0.487-0.151 0.758-0.151 0.276 0 0.532 0.05 0.768 0.151 0.237 0.101 0.441 0.24 0.614 0.417 0.172 0.177 0.307 0.386 0.403 0.628 0.097 0.241 0.145 0.499 0.145 0.775 0 0.28-0.048 0.54-0.145 0.779-0.096 0.239-0.231 0.447-0.403 0.624" fill="#ec008c"/>
    </g>
    <g transform="translate(76.651 607.24)">
     <path d="m0 0v-4.909h3.057l-2.703-6.521v0.921c0 0.349-0.104 0.62-0.311 0.813-0.206 0.193-0.5 0.289-0.882 0.289h-1.861v-3.749h1.213v2.302c0 0.216 0.101 0.324 0.303 0.324 0.203 0 0.304-0.108 0.304-0.324v-2.302h0.518l-8e-3 -0.019h5.212l3.935 9.372v3.803z" fill="#ec008c"/>
    </g>
    <g transform="translate(84.586 603.58)">
     <path d="m0 0-3.686-8.778h-3.604l3.091 7.455c0.033 0.1 0.05 0.193 0.05 0.281 0 0.144-0.056 0.268-0.166 0.372-0.11 0.105-0.27 0.157-0.479 0.157h-2.496v3.422h7.29z" fill="#f68712"/>
    </g>
    <g transform="translate(54.4 603.14)">
     <path d="m0 0-3.471-8.265h-3.393l2.911 7.02c0.031 0.093 0.046 0.181 0.046 0.264 0 0.135-0.052 0.252-0.155 0.351-0.104 0.098-0.255 0.148-0.452 0.148h-2.35v3.221h6.864z" fill="#f68712"/>
    </g>
    <g transform="translate(62.244 602.2)">
     <path d="m0 0c0 0.259-0.049 0.501-0.148 0.724s-0.228 0.417-0.389 0.583-0.353 0.296-0.576 0.39c-0.223 0.093-0.459 0.14-0.708 0.14-0.26 0-0.503-0.047-0.732-0.14-0.228-0.094-0.425-0.224-0.591-0.39s-0.296-0.36-0.389-0.583c-0.094-0.223-0.14-0.465-0.14-0.724 0-0.249 0.046-0.485 0.14-0.708 0.093-0.223 0.223-0.418 0.389-0.584s0.363-0.298 0.591-0.397c0.229-0.098 0.472-0.148 0.732-0.148 0.249 0 0.485 0.05 0.708 0.148 0.223 0.099 0.415 0.231 0.576 0.397s0.29 0.361 0.389 0.584 0.148 0.459 0.148 0.708m3.891-1.837c0-0.788-0.14-1.53-0.42-2.225-0.28-0.696-0.672-1.3-1.175-1.814-0.504-0.513-1.105-0.921-1.806-1.221-0.7-0.301-1.471-0.452-2.311-0.452-0.851 0-1.627 0.151-2.327 0.452-0.7 0.3-1.302 0.708-1.805 1.221-0.504 0.514-0.895 1.118-1.176 1.814-0.28 0.695-0.42 1.437-0.42 2.225 0 0.779 0.138 1.515 0.413 2.211 0.275 0.695 0.661 1.302 1.159 1.821 0.498 0.518 1.1 0.928 1.806 1.229 0.705 0.301 1.488 0.452 2.35 0.452 0.851 0 1.629-0.151 2.335-0.452 0.705-0.301 1.307-0.711 1.805-1.229 0.498-0.519 0.885-1.126 1.16-1.821 0.274-0.696 0.412-1.432 0.412-2.211" fill="#f68712"/>
    </g>
    <g transform="translate(69.967 599.12)">
     <path d="m0 0c-0.249 0-0.417-0.048-0.505-0.144s-0.132-0.261-0.132-0.493v-1.431c0-0.729-0.193-1.275-0.577-1.635-0.385-0.361-0.946-0.541-1.684-0.541h-1.731v2.128h0.902c0.248 0 0.418 0.048 0.511 0.144 0.092 0.096 0.138 0.261 0.138 0.493v1.876c0 0.641 0.192 1.118 0.577 1.431 0.385 0.312 0.946 0.469 1.683 0.469h1.732v-2.297z" fill="#f68712"/>
    </g>
    <g transform="translate(58.327 600.18)">
     <path d="m0 0c0.04 0.151 0.088 0.303 0.135 0.454 0.159 0.294 0.159 0.294 0.168 0.35-1.035 0.111-1.545 0.613-1.203 1.656 0.303 0.541 0.749 0.589 1.306 0.613-0.064 0.271-0.223 0.485-0.223 0.78 0.382 1.091 1.322 1.21 2.205 0.549 0.151-0.223 0.151-0.223 0.215-0.39v-0.159c0.303 0.279 0.462 0.39 0.852 0.478 0.517 0 0.844-0.064 1.242-0.406 0.071-0.152 0.151-0.303 0.231-0.462 0-0.462-0.04-0.677-0.279-1.075-0.111-0.079-0.215-0.159-0.319-0.247 0.136-0.039 0.279-0.079 0.423-0.119l0.103-0.056 0.223-0.151c0.159-0.191 0.326-0.493 0.35-0.501 0.231-0.653-0.151-1.362-0.676-1.736-0.605-0.239-1.274-0.191-1.831 0.151h-0.104c-0.111-0.27-0.111-0.27-0.247-0.501l-0.183-0.215c-0.883-0.629-2.3-0.143-2.388 0.987" fill="#fff200" fill-rule="evenodd"/>
    </g>
   </g>
  </g>
 </g>
</svg>
