<svg width="800" height="293.8" version="1.1" viewBox="0 0 211.67 77.734" xmlns="http://www.w3.org/2000/svg">
 <g transform="translate(-49.804 44.288)">
  <g transform="matrix(5.131 0 0 -5.131 -182.35 2968.9)">
   <g transform="translate(57.973 585.02)">
    <path d="m0 0-0.195-0.169c-0.196-0.187-0.389-0.373-0.568-0.573-0.092-0.104-0.182-0.203-0.27-0.31l-0.16-0.21c-0.301-0.412-0.582-0.841-0.821-1.291-0.054-0.099-0.107-0.199-0.156-0.303l-0.086-0.179c-0.104-0.278-0.195-0.565-0.256-0.857l-0.024-0.129c-0.014-0.091-0.036-0.249-0.036-0.247l-0.013-0.09c-0.011-0.119-0.016-0.238-0.016-0.354-3e-3 -0.276 3e-3 -0.555 0.034-0.83l0.049-0.305c0.029-0.157 0.062-0.312 0.102-0.466 0.08-0.309 0.167-0.614 0.281-0.914 0.034-0.1 0.071-0.203 0.113-0.302l0.037-0.099c0.055-0.125 0.109-0.25 0.169-0.368 0.105-0.207 0.215-0.409 0.342-0.603 0.058-0.097 0.125-0.195 0.192-0.29l0.118-0.153c0.126-0.15 0.252-0.296 0.391-0.437 0.196-0.201 0.401-0.396 0.621-0.576l0.186-0.15 0.173-0.124c0.41-0.279 0.833-0.535 1.278-0.747l0.316-0.143 0.217-0.086c0.233-0.082 0.467-0.16 0.704-0.223 0.232-0.064 0.471-0.12 0.709-0.165l0.186-0.031 0.222-0.024c0.277-0.02 0.553-0.032 0.827-0.02 0.117 2e-3 0.23 7e-3 0.348 0.02l0.202 0.027c0.169 0.033 0.338 0.07 0.504 0.118l0.171 0.051 0.189 0.09c0.831 0.492 1.63 1.165 2.574 1.382l0.119 0.161c0.214 0.294 0.421 0.598 0.612 0.907 0.199 0.319 0.387 0.644 0.556 0.977 0.072 0.141 0.145 0.284 0.21 0.429l0.068 0.143 0.023 0.065c0.058 0.143 0.108 0.284 0.157 0.427-0.097 0.203-0.157 0.432-0.157 0.674-3e-3 0.454-0.018 0.908-0.065 1.363l-0.029 0.255c-2e-3 0.02-0.01 0.072-0.024 0.162-0.038 0.223-0.077 0.441-0.129 0.661-0.1 0.43-0.223 0.855-0.364 1.274-0.034 0.105-0.069 0.207-0.107 0.311-0.059 0.145-0.075 0.185-0.048 0.129-0.078 0.178-0.162 0.356-0.251 0.531-0.173 0.333-0.354 0.651-0.573 0.952l-0.25 0.314c-0.13 0.157-0.261 0.307-0.386 0.462-0.139 0.168-0.275 0.337-0.402 0.507-0.703 0.223-1.402 0.463-2.12 0.626-0.189 0.045-0.381 0.085-0.571 0.117l-0.061 8e-3 -0.217 0.019c-0.18 0.01-0.36 0.019-0.536 6e-3l-0.063-6e-3 -0.17-0.032c-1.295-0.305-2.443-0.995-3.732-1.266l-0.144-0.096" fill="#f58113"/>
   </g>
   <g transform="translate(57.973 585.02)">
    <path d="m0 0-0.195-0.169c-0.196-0.187-0.389-0.373-0.568-0.573-0.092-0.104-0.182-0.203-0.27-0.31l-0.16-0.21c-0.301-0.412-0.582-0.841-0.821-1.291-0.054-0.099-0.107-0.199-0.156-0.303l-0.086-0.179c-0.104-0.278-0.195-0.565-0.256-0.857l-0.024-0.129c-0.014-0.091-0.036-0.249-0.036-0.247l-0.013-0.09c-0.011-0.119-0.016-0.238-0.016-0.354-3e-3 -0.276 3e-3 -0.555 0.034-0.83l0.049-0.305c0.029-0.157 0.062-0.312 0.102-0.466 0.08-0.309 0.167-0.614 0.281-0.914 0.034-0.1 0.071-0.203 0.113-0.302l0.037-0.099c0.055-0.125 0.109-0.25 0.169-0.368 0.105-0.207 0.215-0.409 0.342-0.603 0.058-0.097 0.125-0.195 0.192-0.29l0.118-0.153c0.126-0.15 0.252-0.296 0.391-0.437 0.196-0.201 0.401-0.396 0.621-0.576l0.186-0.15 0.173-0.124c0.41-0.279 0.833-0.535 1.278-0.747l0.316-0.143 0.217-0.086c0.233-0.082 0.467-0.16 0.704-0.223 0.232-0.064 0.471-0.12 0.709-0.165l0.186-0.031 0.222-0.024c0.277-0.02 0.553-0.032 0.827-0.02 0.117 2e-3 0.23 7e-3 0.348 0.02l0.202 0.027c0.169 0.033 0.338 0.07 0.504 0.118l0.171 0.051 0.189 0.09c0.831 0.492 1.63 1.165 2.574 1.382l0.119 0.161c0.214 0.294 0.421 0.598 0.612 0.907 0.199 0.319 0.387 0.644 0.556 0.977 0.072 0.141 0.145 0.284 0.21 0.429l0.068 0.143 0.023 0.065c0.058 0.143 0.108 0.284 0.157 0.427-0.097 0.203-0.157 0.432-0.157 0.674-3e-3 0.454-0.018 0.908-0.065 1.363l-0.029 0.255c-2e-3 0.02-0.01 0.072-0.024 0.162-0.038 0.223-0.077 0.441-0.129 0.661-0.1 0.43-0.223 0.855-0.364 1.274-0.034 0.105-0.069 0.207-0.107 0.311-0.059 0.145-0.075 0.185-0.048 0.129-0.078 0.178-0.162 0.356-0.251 0.531-0.173 0.333-0.354 0.651-0.573 0.952l-0.25 0.314c-0.13 0.157-0.261 0.307-0.386 0.462-0.139 0.168-0.275 0.337-0.402 0.507-0.703 0.223-1.402 0.463-2.12 0.626-0.189 0.045-0.381 0.085-0.571 0.117l-0.061 8e-3 -0.217 0.019c-0.18 0.01-0.36 0.019-0.536 6e-3l-0.063-6e-3 -0.17-0.032c-1.295-0.305-2.443-0.995-3.732-1.266z" fill="none" stroke="#fff" stroke-width="1.217"/>
   </g>
   <g transform="translate(56.996 582.48)">
    <path d="m0 0-0.086-0.089-4e-3 -4e-3c-0.13-0.178-0.26-0.362-0.359-0.559-0.058-0.114-0.115-0.232-0.172-0.349 8e-3 0.015-0.01-0.034-0.056-0.146-0.063-0.191-0.121-0.381-0.178-0.577h10.053c0.837 0 1.626 0.152 2.344 0.423-0.088 0.13-0.156 0.276-0.21 0.425-0.065 0.196-0.131 0.395-0.207 0.585l-0.026 0.072-0.08 0.167c-0.057 0.114-0.118 0.23-0.184 0.339l-0.15 0.16c-0.45-0.181-0.956-0.281-1.487-0.281h-9.036l-0.162-0.166" fill="#cf1550"/>
   </g>
   <g transform="translate(56.996 582.48)">
    <path d="m0 0-0.086-0.089-4e-3 -4e-3c-0.13-0.178-0.26-0.362-0.359-0.559-0.058-0.114-0.115-0.232-0.172-0.349 8e-3 0.015-0.01-0.034-0.056-0.146-0.063-0.191-0.121-0.381-0.178-0.577h10.053c0.837 0 1.626 0.152 2.344 0.423-0.088 0.13-0.156 0.276-0.21 0.425-0.065 0.196-0.131 0.395-0.207 0.585l-0.026 0.072-0.08 0.167c-0.057 0.114-0.118 0.23-0.184 0.339l-0.15 0.16c-0.45-0.181-0.956-0.281-1.487-0.281h-9.036z" fill="none" stroke="#fff" stroke-width="1.217"/>
   </g>
   <g transform="translate(57.973 585.02)">
    <path d="m0 0-0.195-0.169c-0.196-0.187-0.389-0.373-0.568-0.573-0.092-0.104-0.182-0.203-0.27-0.31l-0.16-0.21c-0.301-0.412-0.582-0.841-0.821-1.291-0.054-0.099-0.107-0.199-0.156-0.303l-0.086-0.179c-0.104-0.278-0.195-0.565-0.256-0.857l-0.024-0.129c-0.014-0.091-0.036-0.249-0.036-0.247l-0.013-0.09c-0.011-0.119-0.016-0.238-0.016-0.354-3e-3 -0.276 3e-3 -0.555 0.034-0.83l0.049-0.305c0.029-0.157 0.062-0.312 0.102-0.466 0.08-0.309 0.167-0.614 0.281-0.914 0.034-0.1 0.071-0.203 0.113-0.302l0.037-0.099c0.055-0.125 0.109-0.25 0.169-0.368 0.105-0.207 0.215-0.409 0.342-0.603 0.058-0.097 0.125-0.195 0.192-0.29l0.118-0.153c0.126-0.15 0.252-0.296 0.391-0.437 0.196-0.201 0.401-0.396 0.621-0.576l0.186-0.15 0.173-0.124c0.41-0.279 0.833-0.535 1.278-0.747l0.316-0.143 0.217-0.086c0.233-0.082 0.467-0.16 0.704-0.223 0.232-0.064 0.471-0.12 0.709-0.165l0.186-0.031 0.222-0.024c0.277-0.02 0.553-0.032 0.827-0.02 0.117 2e-3 0.23 7e-3 0.348 0.02l0.202 0.027 0.079 0.017c1.14 2.397 4.718 5.011 3.715 7.317-0.539 1.245-0.974 3.103-1.296 4.885l-0.1 0.126c-0.703 0.223-1.402 0.463-2.12 0.626-0.189 0.045-0.381 0.085-0.571 0.117l-0.061 8e-3 -0.217 0.019c-0.18 0.01-0.36 0.019-0.536 6e-3l-0.063-6e-3 -0.17-0.032c-1.295-0.305-2.443-0.995-3.732-1.266l-0.144-0.096" fill="#110f0d"/>
   </g>
   <g transform="translate(57.973 585.02)">
    <path d="m0 0-0.195-0.169c-0.196-0.187-0.389-0.373-0.568-0.573-0.092-0.104-0.182-0.203-0.27-0.31l-0.16-0.21c-0.301-0.412-0.582-0.841-0.821-1.291-0.054-0.099-0.107-0.199-0.156-0.303l-0.086-0.179c-0.104-0.278-0.195-0.565-0.256-0.857l-0.024-0.129c-0.014-0.091-0.036-0.249-0.036-0.247l-0.013-0.09c-0.011-0.119-0.016-0.238-0.016-0.354-3e-3 -0.276 3e-3 -0.555 0.034-0.83l0.049-0.305c0.029-0.157 0.062-0.312 0.102-0.466 0.08-0.309 0.167-0.614 0.281-0.914 0.034-0.1 0.071-0.203 0.113-0.302l0.037-0.099c0.055-0.125 0.109-0.25 0.169-0.368 0.105-0.207 0.215-0.409 0.342-0.603 0.058-0.097 0.125-0.195 0.192-0.29l0.118-0.153c0.126-0.15 0.252-0.296 0.391-0.437 0.196-0.201 0.401-0.396 0.621-0.576l0.186-0.15 0.173-0.124c0.41-0.279 0.833-0.535 1.278-0.747l0.316-0.143 0.217-0.086c0.233-0.082 0.467-0.16 0.704-0.223 0.232-0.064 0.471-0.12 0.709-0.165l0.186-0.031 0.222-0.024c0.277-0.02 0.553-0.032 0.827-0.02 0.117 2e-3 0.23 7e-3 0.348 0.02l0.202 0.027 0.079 0.017c1.14 2.397 4.718 5.011 3.715 7.317-0.539 1.245-0.974 3.103-1.296 4.885l-0.1 0.126c-0.703 0.223-1.402 0.463-2.12 0.626-0.189 0.045-0.381 0.085-0.571 0.117l-0.061 8e-3 -0.217 0.019c-0.18 0.01-0.36 0.019-0.536 6e-3l-0.063-6e-3 -0.17-0.032c-1.295-0.305-2.443-0.995-3.732-1.266z" fill="none" stroke="#fff" stroke-width="1.217"/>
   </g>
   <g transform="translate(58.117 585.12)">
    <path d="m0 0-0.144-0.098-0.195-0.169c-0.196-0.186-0.389-0.373-0.568-0.573-0.092-0.103-0.182-0.203-0.27-0.309l-0.16-0.21c-0.301-0.412-0.582-0.841-0.821-1.291-0.054-0.1-0.107-0.2-0.156-0.303l-0.086-0.18c-0.104-0.278-0.195-0.564-0.256-0.856l-0.024-0.129c-0.014-0.092-0.036-0.249-0.036-0.247l-0.013-0.091c-0.011-0.118-0.016-0.237-0.016-0.354-3e-3 -0.276 3e-3 -0.554 0.034-0.83l0.049-0.304c0.029-0.158 0.062-0.313 0.102-0.467 0.08-0.309 0.167-0.613 0.281-0.913 0.034-0.101 0.071-0.203 0.113-0.303l0.037-0.099c0.055-0.125 0.109-0.25 0.169-0.368 0.105-0.207 0.215-0.409 0.342-0.602 0.058-0.098 0.125-0.196 0.192-0.29l0.118-0.154c0.126-0.15 0.252-0.295 0.391-0.437 0.196-0.2 0.401-0.396 0.621-0.575l0.186-0.151 0.173-0.124c0.41-0.279 0.833-0.535 1.278-0.747l0.316-0.142 0.217-0.086c0.233-0.082 0.467-0.161 0.704-0.224l0.218-0.056 0.829 2.927 0.451 1.467-0.405 3.603-2.815 3.925c-0.28-0.095-0.566-0.178-0.856-0.24" fill="#110f0d"/>
   </g>
   <g transform="translate(58.117 585.12)">
    <path d="m0 0-0.144-0.098-0.195-0.169c-0.196-0.186-0.389-0.373-0.568-0.573-0.092-0.103-0.182-0.203-0.27-0.309l-0.16-0.21c-0.301-0.412-0.582-0.841-0.821-1.291-0.054-0.1-0.107-0.2-0.156-0.303l-0.086-0.18c-0.104-0.278-0.195-0.564-0.256-0.856l-0.024-0.129c-0.014-0.092-0.036-0.249-0.036-0.247l-0.013-0.091c-0.011-0.118-0.016-0.237-0.016-0.354-3e-3 -0.276 3e-3 -0.554 0.034-0.83l0.049-0.304c0.029-0.158 0.062-0.313 0.102-0.467 0.08-0.309 0.167-0.613 0.281-0.913 0.034-0.101 0.071-0.203 0.113-0.303l0.037-0.099c0.055-0.125 0.109-0.25 0.169-0.368 0.105-0.207 0.215-0.409 0.342-0.602 0.058-0.098 0.125-0.196 0.192-0.29l0.118-0.154c0.126-0.15 0.252-0.295 0.391-0.437 0.196-0.2 0.401-0.396 0.621-0.575l0.186-0.151 0.173-0.124c0.41-0.279 0.833-0.535 1.278-0.747l0.316-0.142 0.217-0.086c0.233-0.082 0.467-0.161 0.704-0.224l0.218-0.056 0.829 2.927 0.451 1.467-0.405 3.603-2.815 3.925c-0.28-0.095-0.566-0.178-0.856-0.24z" fill="none" stroke="#fff" stroke-width="1.217"/>
   </g>
   <g transform="translate(56.341 579.4)">
    <path d="m0 0c-0.147 0.607 1.425 1.141 1.978 0.824-0.055-0.177 2.05 0.279 2.495 0.155 0.442-0.121 1.181-0.077 1.171-0.464-9e-3 -0.39-0.417-0.862-0.417-0.862l-0.938 0.965-1.687-0.025s-1.335 0.028-1.861-0.934c-0.361-0.541-0.593-0.267-0.741 0.341" fill="#eedbca"/>
   </g>
   <g transform="translate(56.341 579.4)">
    <path d="m0 0c-0.147 0.607 1.425 1.141 1.978 0.824-0.055-0.177 2.05 0.279 2.495 0.155 0.442-0.121 1.181-0.077 1.171-0.464-9e-3 -0.39-0.417-0.862-0.417-0.862l-0.938 0.965-1.687-0.025s-1.335 0.028-1.861-0.934c-0.361-0.541-0.593-0.267-0.741 0.341z" fill="none" stroke="#fff" stroke-width="1.217"/>
   </g>
   <g transform="translate(64.38 577.72)">
    <path d="m0 0c0.058-1.067-0.229-2.632-0.281-4.137 0.115 0.069 0.228 0.14 0.346 0.214 0.114 1.335 0.344 2.746 0.234 4.277-0.212 2.953-2.169 3.05-2.169 3.05 0.13-0.114 1.702-0.283 1.87-3.404" fill="#110f0d"/>
   </g>
   <g transform="translate(64.38 577.72)">
    <path d="m0 0c0.058-1.067-0.229-2.632-0.281-4.137 0.115 0.069 0.228 0.14 0.346 0.214 0.114 1.335 0.344 2.746 0.234 4.277-0.212 2.953-2.169 3.05-2.169 3.05 0.13-0.114 1.702-0.283 1.87-3.404z" fill="none" stroke="#fff" stroke-width="1.217"/>
   </g>
   <g transform="translate(63.268 577.16)">
    <path d="m0 0c0.06-1.057-0.198-2.457-0.267-3.893l0.188 0.026 0.166 0.035c0.119 1.259 0.328 2.557 0.218 4.08-0.222 3.064-2.197 3.867-2.197 3.867 0.133-0.16 1.723-0.897 1.892-4.115" fill="#110f0d"/>
   </g>
   <g transform="translate(63.268 577.16)">
    <path d="m0 0c0.06-1.057-0.198-2.457-0.267-3.893l0.188 0.026 0.166 0.035c0.119 1.259 0.328 2.557 0.218 4.08-0.222 3.064-2.197 3.867-2.197 3.867 0.133-0.16 1.723-0.897 1.892-4.115z" fill="none" stroke="#fff" stroke-width="1.217"/>
   </g>
   <g transform="translate(63.874 577.14)">
    <path d="m0 0c0.109-1.023-0.051-2.326-0.075-3.695l0.065 0.02 0.188 0.09 0.152 0.092c0.062 1.143 0.151 2.337-0.023 3.727-0.402 3.262-2.565 4.313-2.565 4.313 0.152-0.187 1.893-1.128 2.258-4.547" fill="#110f0d"/>
   </g>
   <g transform="translate(63.874 577.14)">
    <path d="m0 0c0.109-1.023-0.051-2.326-0.075-3.695l0.065 0.02 0.188 0.09 0.152 0.092c0.062 1.143 0.151 2.337-0.023 3.727-0.402 3.262-2.565 4.313-2.565 4.313 0.152-0.187 1.893-1.128 2.258-4.547z" fill="none" stroke="#fff" stroke-width="1.217"/>
   </g>
   <g transform="translate(65.349 579.13)">
    <path d="m0 0c0.203-1.155-0.163-3.054 0.604-4.43l0.064 0.028c-0.578 1.48-0.143 2.839-0.487 4.583-0.37 1.903-1.739 2.242-1.739 2.242 0.1-0.093 1.207-0.421 1.558-2.423" fill="#110f0d"/>
   </g>
   <g transform="translate(65.349 579.13)">
    <path d="m0 0c0.203-1.155-0.163-3.054 0.604-4.43l0.064 0.028c-0.578 1.48-0.143 2.839-0.487 4.583-0.37 1.903-1.739 2.242-1.739 2.242 0.1-0.093 1.207-0.421 1.558-2.423z" fill="none" stroke="#fff" stroke-width="1.217"/>
   </g>
   <g transform="translate(65.164 578.69)">
    <path d="m0 0c0.16-1.113-0.122-2.826 0.19-4.308l0.192 0.113c-0.17 1.378 0.115 2.774-0.159 4.428-0.385 2.312-2.016 2.643-2.016 2.643 0.118-0.105 1.435-0.441 1.793-2.876" fill="#110f0d"/>
   </g>
   <g transform="translate(65.164 578.69)">
    <path d="m0 0c0.16-1.113-0.122-2.826 0.19-4.308l0.192 0.113c-0.17 1.378 0.115 2.774-0.159 4.428-0.385 2.312-2.016 2.643-2.016 2.643 0.118-0.105 1.435-0.441 1.793-2.876z" fill="none" stroke="#fff" stroke-width="1.217"/>
   </g>
   <g transform="translate(64.928 578.66)">
    <path d="m0 0c0.171-1.139-0.024-2.879 0.193-4.421l0.23 0.141c-0.105 1.414 0.081 2.902-0.2 4.574-0.432 2.598-2.111 2.77-2.111 2.77 0.122-0.104 1.479-0.325 1.888-3.064" fill="#110f0d"/>
   </g>
   <g transform="translate(64.928 578.66)">
    <path d="m0 0c0.171-1.139-0.024-2.879 0.193-4.421l0.23 0.141c-0.105 1.414 0.081 2.902-0.2 4.574-0.432 2.598-2.111 2.77-2.111 2.77 0.122-0.104 1.479-0.325 1.888-3.064z" fill="none" stroke="#fff" stroke-width="1.217"/>
   </g>
   <g transform="translate(64.638 578.43)">
    <path d="m0 0c0.1-1.176-0.249-2.982-0.119-4.58l0.258 0.167c-0.01 1.459 0.304 2.988 0.127 4.715-0.283 2.672-2.089 2.86-2.089 2.86 0.127-0.109 1.58-0.341 1.823-3.162" fill="#110f0d"/>
   </g>
   <g transform="translate(64.638 578.43)">
    <path d="m0 0c0.1-1.176-0.249-2.982-0.119-4.58l0.258 0.167c-0.01 1.459 0.304 2.988 0.127 4.715-0.283 2.672-2.089 2.86-2.089 2.86 0.127-0.109 1.58-0.341 1.823-3.162z" fill="none" stroke="#fff" stroke-width="1.217"/>
   </g>
   <g transform="translate(57.973 585.02)">
    <path d="m0 0-0.195-0.169c-0.196-0.187-0.389-0.373-0.568-0.573-0.092-0.104-0.182-0.203-0.27-0.31l-0.16-0.21c-0.301-0.412-0.582-0.841-0.821-1.291-0.054-0.099-0.107-0.199-0.156-0.303l-0.086-0.179c-0.104-0.278-0.195-0.565-0.256-0.857l-0.024-0.129c-0.014-0.091-0.036-0.249-0.036-0.247l-0.013-0.09c-0.011-0.119-0.016-0.238-0.016-0.354-3e-3 -0.276 3e-3 -0.555 0.034-0.83l0.049-0.305c0.029-0.157 0.062-0.312 0.102-0.466 0.08-0.309 0.167-0.614 0.281-0.914 0.034-0.1 0.071-0.203 0.113-0.302l0.037-0.099c0.055-0.125 0.109-0.25 0.169-0.368 0.105-0.207 0.215-0.409 0.342-0.603 0.058-0.097 0.125-0.195 0.192-0.29l0.118-0.153c0.126-0.15 0.252-0.296 0.391-0.437 0.196-0.201 0.401-0.396 0.621-0.576l0.186-0.15 0.173-0.124c0.41-0.279 0.833-0.535 1.278-0.747l0.316-0.143 0.217-0.086c0.233-0.082 0.467-0.16 0.704-0.223 0.232-0.064 0.471-0.12 0.709-0.165l0.169-0.03c0.304 1.099 0.46 2.153 0.66 2.384 0.27 1.106 0.388 1.838 0.24 3.091l-0.493 1.695s-0.678-0.298-0.468-0.367c0.212-0.067 0.2-0.661 0.111-0.806-0.182 0.118-0.247 0.131-0.406-0.054 0.145-0.16 0.092-0.134 0.075-0.305 0.048-0.066 0.197-0.021 0.164-0.125-0.183 6e-3 -0.507-0.084-0.622-0.264 0.159-0.225 0.045-0.353 7e-3 -0.508-0.114-0.011-0.196 0.057-0.271 0.143-0.138-0.059-0.019-0.208-0.141-0.272-0.193 0.049-0.191-0.093-0.278-0.201-0.066 0.022-0.031 0.127-0.106 0.221 0.068 2e-3 0.176-0.028 0.207 0.068-0.074 0.181-0.196 0.223-0.34 0.21-0.046-0.145-0.105-0.287-0.21-0.407 0.075-0.143 0.114-0.273 0.073-0.375l-0.204 6e-3c-0.113 0.266-0.283 0.373-0.445 0.501-0.177-0.026-0.076-0.232-0.209-0.202-0.119 0.022-0.125 0.08-0.173 0.222-0.181-0.036-0.093-0.167-0.234-0.216-0.039 0.105 7e-3 0.165-0.081 0.234-0.182 0-0.186-0.193-0.344-0.269-0.104 0.121 0.027 0.159-0.024 0.259-0.092-0.026-0.154 0.039-0.217 0.102-0.395 0.165-0.929-0.075-1.299 0.156l0.042 0.124c0.134 0.035 0.275-0.045 0.372 0.074-0.044 0.118-0.168-0.078-0.218 0.103-0.028 0.364 0.568 0.597 0.825 0.901-0.06 0.18-0.17 0.221-0.3 0.199l-4e-3 -0.207c-0.062 0.014-0.127 0.029-0.218-0.038-0.222-0.256-0.608 0.016-0.519 0.092 0.074-0.14 0.752 0.342 0.689 0.487-0.131 0.013 0.627 0.345 0.627 0.345s-0.771 0.336-0.985 0.216c-0.211-0.118-0.761 0.034-0.594 0.267 0.171 0.235 1.409-0.077 2.086 0.16 0.285 0.101 0.544-2e-3 0.827 0.101 0.353 0.127 0.695-0.119 1.034 0.088 0.189-0.044 0.4-0.287 0.616-0.264-0.09 0.21 1.155-0.367 1.103-0.2-0.041-8e-3 -0.54 2.459-0.702 3.5-0.105 0.703-0.35 1.326-0.632 1.811-0.82-0.311-1.621-0.678-2.477-0.859l-0.144-0.098" fill="#eedbca"/>
   </g>
   <g transform="translate(57.973 585.02)">
    <path d="m0 0-0.195-0.169c-0.196-0.187-0.389-0.373-0.568-0.573-0.092-0.104-0.182-0.203-0.27-0.31l-0.16-0.21c-0.301-0.412-0.582-0.841-0.821-1.291-0.054-0.099-0.107-0.199-0.156-0.303l-0.086-0.179c-0.104-0.278-0.195-0.565-0.256-0.857l-0.024-0.129c-0.014-0.091-0.036-0.249-0.036-0.247l-0.013-0.09c-0.011-0.119-0.016-0.238-0.016-0.354-3e-3 -0.276 3e-3 -0.555 0.034-0.83l0.049-0.305c0.029-0.157 0.062-0.312 0.102-0.466 0.08-0.309 0.167-0.614 0.281-0.914 0.034-0.1 0.071-0.203 0.113-0.302l0.037-0.099c0.055-0.125 0.109-0.25 0.169-0.368 0.105-0.207 0.215-0.409 0.342-0.603 0.058-0.097 0.125-0.195 0.192-0.29l0.118-0.153c0.126-0.15 0.252-0.296 0.391-0.437 0.196-0.201 0.401-0.396 0.621-0.576l0.186-0.15 0.173-0.124c0.41-0.279 0.833-0.535 1.278-0.747l0.316-0.143 0.217-0.086c0.233-0.082 0.467-0.16 0.704-0.223 0.232-0.064 0.471-0.12 0.709-0.165l0.169-0.03c0.304 1.099 0.46 2.153 0.66 2.384 0.27 1.106 0.388 1.838 0.24 3.091l-0.493 1.695s-0.678-0.298-0.468-0.367c0.212-0.067 0.2-0.661 0.111-0.806-0.182 0.118-0.247 0.131-0.406-0.054 0.145-0.16 0.092-0.134 0.075-0.305 0.048-0.066 0.197-0.021 0.164-0.125-0.183 6e-3 -0.507-0.084-0.622-0.264 0.159-0.225 0.045-0.353 7e-3 -0.508-0.114-0.011-0.196 0.057-0.271 0.143-0.138-0.059-0.019-0.208-0.141-0.272-0.193 0.049-0.191-0.093-0.278-0.201-0.066 0.022-0.031 0.127-0.106 0.221 0.068 2e-3 0.176-0.028 0.207 0.068-0.074 0.181-0.196 0.223-0.34 0.21-0.046-0.145-0.105-0.287-0.21-0.407 0.075-0.143 0.114-0.273 0.073-0.375l-0.204 6e-3c-0.113 0.266-0.283 0.373-0.445 0.501-0.177-0.026-0.076-0.232-0.209-0.202-0.119 0.022-0.125 0.08-0.173 0.222-0.181-0.036-0.093-0.167-0.234-0.216-0.039 0.105 7e-3 0.165-0.081 0.234-0.182 0-0.186-0.193-0.344-0.269-0.104 0.121 0.027 0.159-0.024 0.259-0.092-0.026-0.154 0.039-0.217 0.102-0.395 0.165-0.929-0.075-1.299 0.156l0.042 0.124c0.134 0.035 0.275-0.045 0.372 0.074-0.044 0.118-0.168-0.078-0.218 0.103-0.028 0.364 0.568 0.597 0.825 0.901-0.06 0.18-0.17 0.221-0.3 0.199l-4e-3 -0.207c-0.062 0.014-0.127 0.029-0.218-0.038-0.222-0.256-0.608 0.016-0.519 0.092 0.074-0.14 0.752 0.342 0.689 0.487-0.131 0.013 0.627 0.345 0.627 0.345s-0.771 0.336-0.985 0.216c-0.211-0.118-0.761 0.034-0.594 0.267 0.171 0.235 1.409-0.077 2.086 0.16 0.285 0.101 0.544-2e-3 0.827 0.101 0.353 0.127 0.695-0.119 1.034 0.088 0.189-0.044 0.4-0.287 0.616-0.264-0.09 0.21 1.155-0.367 1.103-0.2-0.041-8e-3 -0.54 2.459-0.702 3.5-0.105 0.703-0.35 1.326-0.632 1.811-0.82-0.311-1.621-0.678-2.477-0.859z" fill="none" stroke="#fff" stroke-width="1.217"/>
   </g>
   <g transform="translate(61.448 580.51)">
    <path d="m0 0 0.065-0.205c-0.182-0.06-0.224-0.168-0.156-0.312 0.057-0.105 0.184-1e-3 0.259-0.045-0.164-0.157-0.549-0.274-0.768-0.167l-0.194-0.161c-0.196 0.011-0.257 0.275-0.378 0.363-0.085-0.062-0.104-0.147-0.248-0.186l-0.108 0.151c-0.153-0.168-0.333-0.105-0.507-0.142-0.04 0.061-0.094 0.081-0.124 0.18-0.131-5e-3 -0.31-0.143-0.382 0.018 0.158 0.098 0.334 0.175 0.518 0.236 0.55 0.183 1.184 0.238 1.696 0.318l0.19-0.115 0.137 0.067" fill="#8fdae5"/>
   </g>
   <g transform="translate(61.448 580.51)">
    <path d="m0 0 0.065-0.205c-0.182-0.06-0.224-0.168-0.156-0.312 0.057-0.105 0.184-1e-3 0.259-0.045-0.164-0.157-0.549-0.274-0.768-0.167l-0.194-0.161c-0.196 0.011-0.257 0.275-0.378 0.363-0.085-0.062-0.104-0.147-0.248-0.186l-0.108 0.151c-0.153-0.168-0.333-0.105-0.507-0.142-0.04 0.061-0.094 0.081-0.124 0.18-0.131-5e-3 -0.31-0.143-0.382 0.018 0.158 0.098 0.334 0.175 0.518 0.236 0.55 0.183 1.184 0.238 1.696 0.318l0.19-0.115z" fill="none" stroke="#fff" stroke-width="1.217"/>
   </g>
   <g transform="translate(59.774 579.33)">
    <path d="m0 0c0.12-0.026 0.208-0.156 0.294-0.268 0.012-0.254-0.293-0.399-0.42-0.606-0.653-0.39-1.405-0.3-1.959-0.159-0.23 0.056-0.786 0.116-0.662 0.391 0.091 0.202 0.58 0.356 0.747 0.565 0.151-0.61 0.562-1.002 1.088-0.925 0.577 0.011 0.711 0.61 0.912 1.002" fill="#fff"/>
   </g>
   <g transform="translate(59.774 579.33)">
    <path d="m0 0c0.12-0.026 0.208-0.156 0.294-0.268 0.012-0.254-0.293-0.399-0.42-0.606-0.653-0.39-1.405-0.3-1.959-0.159-0.23 0.056-0.786 0.116-0.662 0.391 0.091 0.202 0.58 0.356 0.747 0.565 0.151-0.61 0.562-1.002 1.088-0.925 0.577 0.011 0.711 0.61 0.912 1.002z" fill="none" stroke="#fff" stroke-width="1.217"/>
   </g>
   <g transform="translate(58.626 579.04)">
    <path d="m0 0-0.058-0.166-0.168 0.059 0.061 0.167z" fill="#fff"/>
   </g>
   <g transform="translate(58.626 579.04)">
    <path d="m0 0-0.058-0.166-0.168 0.059 0.061 0.167z" fill="none" stroke="#fff" stroke-width="1.217"/>
   </g>
   <g transform="translate(54.13 575.72)">
    <path d="m0 0c-0.047-0.116-0.234-0.262-0.195-0.469 0.021-0.103 0.157-0.134 0.12-0.254-0.434 0.037-0.155 0.575 0.075 0.723" fill="#110f0d" fill-rule="evenodd"/>
   </g>
   <g transform="translate(54.13 575.72)">
    <path d="m0 0c-0.047-0.116-0.234-0.262-0.195-0.469 0.021-0.103 0.157-0.134 0.12-0.254-0.434 0.037-0.155 0.575 0.075 0.723z" fill="none" stroke="#fff" stroke-width="1.217"/>
   </g>
   <g transform="translate(68.215 578.72)">
    <path d="m0 0c-3e-3 0.102-3e-3 0.202-4e-3 0.306-0.872 1.28-1.269 2.829-2.487 4.282-1.802 2.149-4.249 1.366-4.249 1.366 0.22-0.027 2.236 0.531 4.069-1.769 0.852-1.067 1.404-3.095 2.692-4.427l-0.021 0.242" fill="#110f0d"/>
   </g>
   <g transform="translate(68.215 578.72)">
    <path d="m0 0c-3e-3 0.102-3e-3 0.202-4e-3 0.306-0.872 1.28-1.269 2.829-2.487 4.282-1.802 2.149-4.249 1.366-4.249 1.366 0.22-0.027 2.236 0.531 4.069-1.769 0.852-1.067 1.404-3.095 2.692-4.427z" fill="none" stroke="#fff" stroke-width="1.217"/>
   </g>
   <g transform="translate(67.737 582.02)">
    <path d="m0 0c-1.465 0.943-2.09 2.729-3.681 4.038l-0.101 0.08c-0.164 0.045-0.325 0.086-0.488 0.125-0.126 0.028-0.251 0.055-0.375 0.078 0.263-0.178 0.564-0.41 0.908-0.71 1.063-0.919 2.084-3.201 3.812-3.871l-0.075 0.26" fill="#110f0d"/>
   </g>
   <g transform="translate(67.737 582.02)">
    <path d="m0 0c-1.465 0.943-2.09 2.729-3.681 4.038l-0.101 0.08c-0.164 0.045-0.325 0.086-0.488 0.125-0.126 0.028-0.251 0.055-0.375 0.078 0.263-0.178 0.564-0.41 0.908-0.71 1.063-0.919 2.084-3.201 3.812-3.871z" fill="none" stroke="#fff" stroke-width="1.217"/>
   </g>
   <g transform="translate(67.723 576.62)">
    <path d="m0 0 0.105 0.197c-1.574 2.471-4.594 4.97-6.434 7.071-0.541 0.616-0.958 1.266-1.281 1.898l-0.248-0.1c0.301-0.587 0.707-1.22 1.253-1.881 1.889-2.282 4.802-4.22 6.605-7.185" fill="#110f0d"/>
   </g>
   <g transform="translate(67.723 576.62)">
    <path d="m0 0 0.105 0.197c-1.574 2.471-4.594 4.97-6.434 7.071-0.541 0.616-0.958 1.266-1.281 1.898l-0.248-0.1c0.301-0.587 0.707-1.22 1.253-1.881 1.889-2.282 4.802-4.22 6.605-7.185z" fill="none" stroke="#fff" stroke-width="1.217"/>
   </g>
   <g transform="translate(67.389 581.38)">
    <path d="m0 0c-2.041 1.431-2.093 2.956-3.173 4.693-0.169 0.05-0.339 0.096-0.512 0.137 0.857-1.402 1.269-3.653 3.685-4.83" fill="#110f0d"/>
   </g>
   <g transform="translate(67.389 581.38)">
    <path d="m0 0c-2.041 1.431-2.093 2.956-3.173 4.693-0.169 0.05-0.339 0.096-0.512 0.137 0.857-1.402 1.269-3.653 3.685-4.83z" fill="none" stroke="#fff" stroke-width="1.217"/>
   </g>
   <g transform="translate(67.706 579.31)">
    <path d="m0 0c-2.487 1.964-2.105 4.279-3.741 6.828-0.163 0.046-0.331 0.087-0.498 0.126l-0.106 0.021c0.101-0.134 0.198-0.281 0.296-0.438 1.06-1.717 1.178-5.043 4.049-6.537" fill="#110f0d"/>
   </g>
   <g transform="translate(67.706 579.31)">
    <path d="m0 0c-2.487 1.964-2.105 4.279-3.741 6.828-0.163 0.046-0.331 0.087-0.498 0.126l-0.106 0.021c0.101-0.134 0.198-0.281 0.296-0.438 1.06-1.717 1.178-5.043 4.049-6.537z" fill="none" stroke="#fff" stroke-width="1.217"/>
   </g>
   <g transform="translate(67.967 581.16)">
    <path d="m0 0c-0.027 0.115-0.057 0.232-0.087 0.351-0.45 0.739-1.045 1.564-1.44 2.092-0.561 0.749-1.04 1.486-1.25 2.164l-0.169 0.054c0.094-0.32 0.302-0.775 0.719-1.416 0.525-0.805 1.594-2.171 2.231-3.262l-4e-3 0.017" fill="#110f0d"/>
   </g>
   <g transform="translate(67.967 581.16)">
    <path d="m0 0c-0.027 0.115-0.057 0.232-0.087 0.351-0.45 0.739-1.045 1.564-1.44 2.092-0.561 0.749-1.04 1.486-1.25 2.164l-0.169 0.054c0.094-0.32 0.302-0.775 0.719-1.416 0.525-0.805 1.594-2.171 2.231-3.262z" fill="none" stroke="#fff" stroke-width="1.217"/>
   </g>
   <g transform="translate(66.678 579.15)">
    <path d="m0 0c-2.179 1.957-1.723 4.447-3.036 7.08l-0.175 0.04c-0.122 0.027-0.246 0.055-0.369 0.078 0.065-0.112 0.127-0.23 0.187-0.353 0.892-1.801 0.804-5.394 3.393-6.845" fill="#110f0d"/>
   </g>
   <g transform="translate(66.678 579.15)">
    <path d="m0 0c-2.179 1.957-1.723 4.447-3.036 7.08l-0.175 0.04c-0.122 0.027-0.246 0.055-0.369 0.078 0.065-0.112 0.127-0.23 0.187-0.353 0.892-1.801 0.804-5.394 3.393-6.845z" fill="none" stroke="#fff" stroke-width="1.217"/>
   </g>
   <g transform="translate(65.811 579.62)">
    <path d="m0 0c0-1.816-1.013-3.289-2.255-3.289v6.576c1.242 0 2.255-1.47 2.255-3.287" fill="#fff"/>
   </g>
   <g transform="translate(65.811 579.62)">
    <path d="m0 0c0-1.816-1.013-3.289-2.255-3.289v6.576c1.242 0 2.255-1.47 2.255-3.287z" fill="none" stroke="#fff" stroke-width="1.217"/>
   </g>
   <g transform="translate(64.992 576.71)">
    <path d="m0 0c0-0.558-0.451-1.007-1.007-1.007s-1.009 0.449-1.009 1.007c0 0-0.565 3.572-0.06 5.953 0.121 0.43 0.513 1.007 1.069 1.007s1.007-0.447 1.007-1.007z" fill="#fff"/>
   </g>
   <g transform="translate(64.992 576.71)">
    <path d="m0 0c0-0.558-0.451-1.007-1.007-1.007s-1.009 0.449-1.009 1.007c0 0-0.565 3.572-0.06 5.953 0.121 0.43 0.513 1.007 1.069 1.007s1.007-0.447 1.007-1.007z" fill="none" stroke="#fff" stroke-width="1.217"/>
   </g>
   <g transform="translate(62.896 586.39)">
    <path d="m0 0-0.061 8e-3 -0.207 0.019c0.88-2.042 1.358-4.759 1.358-4.759l0.319 0.961s-0.792 2.521 0 1.896c0.343-0.271 0.409-1.113 0.545-1.494 0.18-0.502 0.373-0.519 0.373-0.491-0.24 1.5-0.625 2.664-1.031 3.554-0.238 0.069-0.479 0.133-0.725 0.189-0.189 0.045-0.38 0.085-0.571 0.117" fill="#fff"/>
   </g>
   <g transform="translate(62.896 586.39)">
    <path d="m0 0-0.061 8e-3 -0.207 0.019c0.88-2.042 1.358-4.759 1.358-4.759l0.319 0.961s-0.792 2.521 0 1.896c0.343-0.271 0.409-1.113 0.545-1.494 0.18-0.502 0.373-0.519 0.373-0.491-0.24 1.5-0.625 2.664-1.031 3.554-0.238 0.069-0.479 0.133-0.725 0.189-0.189 0.045-0.38 0.085-0.571 0.117z" fill="none" stroke="#fff" stroke-width="1.217"/>
   </g>
   <g transform="translate(64.078 583.03)">
    <path d="m0 0c-0.46-0.458-0.46-5.085 0.182-6.504-0.777 3.437-0.138 5.895 0 6.26 0.139 0.367 0.779-0.03 0.779-0.03s-0.506 0.731-0.961 0.274" fill="#110f0d"/>
   </g>
   <g transform="translate(64.078 583.03)">
    <path d="m0 0c-0.46-0.458-0.46-5.085 0.182-6.504-0.777 3.437-0.138 5.895 0 6.26 0.139 0.367 0.779-0.03 0.779-0.03s-0.506 0.731-0.961 0.274z" fill="none" stroke="#fff" stroke-width="1.217"/>
   </g>
   <g transform="translate(62.674 573.25)">
    <path d="M 0,0 0.167,0.006 C 0.43,0.741 0.586,1.409 0.548,1.917 L 0.398,1.905 C 0.435,1.408 0.271,0.736 0,0" fill="#fff"/>
   </g>
   <g transform="translate(62.674 573.25)">
    <path d="m0 0 0.167 6e-3c0.263 0.735 0.419 1.403 0.381 1.911l-0.15-0.012c0.037-0.497-0.127-1.169-0.398-1.905z" fill="none" stroke="#fff" stroke-width="1.217"/>
   </g>
   <g transform="translate(68.121 580.34)">
    <path d="m0 0-0.012 0.076h-1.574v-0.206h1.603z" fill="#110f0d"/>
   </g>
   <g transform="translate(68.121 580.34)">
    <path d="m0 0-0.012 0.076h-1.574v-0.206h1.603z" fill="none" stroke="#fff" stroke-width="1.217"/>
   </g>
   <g transform="translate(57.408 579.24)">
    <path d="m0 0s0.762 0.678 1.27 0.593c-0.128 0.126 1.017 0.466 1.017 0.466s-1.695-0.085-1.78-0.34c-0.705-0.273-0.507-0.719-0.507-0.719" fill="#8fdae5"/>
   </g>
   <g transform="translate(57.408 579.24)">
    <path d="m0 0s0.762 0.678 1.27 0.593c-0.128 0.126 1.017 0.466 1.017 0.466s-1.695-0.085-1.78-0.34c-0.705-0.273-0.507-0.719-0.507-0.719z" fill="none" stroke="#fff" stroke-width="1.217"/>
   </g>
   <g transform="translate(56.066 579.69)">
    <path d="m0 0c4e-3 -3.305 2.676-5.976 5.98-5.984 3.306 8e-3 5.98 2.679 5.984 5.984-4e-3 3.307-2.678 5.979-5.984 5.982-3.304-3e-3 -5.976-2.675-5.98-5.982m-0.984 0c0 3.849 3.12 6.966 6.964 6.966 3.85 0 6.968-3.117 6.968-6.966 0-3.848-3.118-6.967-6.968-6.967-3.844 0-6.964 3.119-6.964 6.967" fill="#231f20"/>
   </g>
   <g transform="translate(56.066 579.69)">
    <path d="m0 0c4e-3 -3.305 2.676-5.976 5.98-5.984 3.306 8e-3 5.98 2.679 5.984 5.984-4e-3 3.307-2.678 5.979-5.984 5.982-3.304-3e-3 -5.976-2.675-5.98-5.982zm-0.984 0c0 3.849 3.12 6.966 6.964 6.966 3.85 0 6.968-3.117 6.968-6.966 0-3.848-3.118-6.967-6.968-6.967-3.844 0-6.964 3.119-6.964 6.967z" fill="none" stroke="#fff" stroke-width="1.217"/>
   </g>
   <g transform="translate(53.311 577.17)">
    <path d="m0 0c0 0.419-0.34 0.744-0.743 0.744h-2.934c-0.422 0-0.746-0.325-0.746-0.744 0-0.403 0.324-0.731 0.746-0.731h2.934c0.403 0 0.743 0.328 0.743 0.731m2.053 3.71c0-0.67-0.234-1.307-0.621-1.801 0.447-0.513 0.774-1.18 0.774-1.909 0-1.614-1.317-2.948-2.949-2.948h-2.997c-1.629 0-2.949 1.334-2.949 2.948 0 0.729 0.326 1.396 0.774 1.909-0.386 0.494-0.618 1.131-0.618 1.801 0 1.617 1.335 2.95 2.965 2.95h2.652c1.631 0 2.969-1.333 2.969-2.95" fill="#50ade5"/>
   </g>
   <g transform="translate(53.311 577.17)">
    <path d="m0 0c0 0.419-0.34 0.744-0.743 0.744h-2.934c-0.422 0-0.746-0.325-0.746-0.744 0-0.403 0.324-0.731 0.746-0.731h2.934c0.403 0 0.743 0.328 0.743 0.731zm2.053 3.71c0-0.67-0.234-1.307-0.621-1.801 0.447-0.513 0.774-1.18 0.774-1.909 0-1.614-1.317-2.948-2.949-2.948h-2.997c-1.629 0-2.949 1.334-2.949 2.948 0 0.729 0.326 1.396 0.774 1.909-0.386 0.494-0.618 1.131-0.618 1.801 0 1.617 1.335 2.95 2.965 2.95h2.652c1.631 0 2.969-1.333 2.969-2.95z" fill="none" stroke="#fff" stroke-width="1.217"/>
   </g>
   <g transform="translate(49.634 575.67)">
    <path d="m0 0c-0.829 0-1.514 0.669-1.517 1.499 3e-3 0.829 0.685 1.511 1.517 1.513h2.934c0.821-2e-3 1.512-0.659 1.514-1.513-8e-3 -0.851-0.696-1.497-1.514-1.499zm-2.09 5.209c0-0.489 0.174-0.965 0.461-1.327l0.39-0.501-0.419-0.48c-0.36-0.405-0.588-0.909-0.586-1.402 2e-3 -1.187 0.978-2.179 2.181-2.183h2.997c1.202 4e-3 2.178 0.996 2.182 2.183 1e-3 0.493-0.231 0.997-0.586 1.402l-0.423 0.479 0.395 0.502c0.284 0.362 0.456 0.838 0.456 1.327-2e-3 1.182-0.993 2.181-2.197 2.183h-2.652c-1.203-2e-3 -2.196-0.999-2.199-2.183m2.027-7.429c-2.06 5e-3 -3.715 1.68-3.717 3.719 0 0.736 0.249 1.396 0.606 1.945-0.289 0.525-0.452 1.132-0.452 1.765 5e-3 2.048 1.676 3.715 3.735 3.717h2.652c2.059-2e-3 3.731-1.669 3.736-3.717 0-0.633-0.164-1.24-0.453-1.765 0.357-0.549 0.606-1.209 0.608-1.945-4e-3 -2.039-1.661-3.714-3.718-3.719z" fill="#231f20"/>
   </g>
   <g transform="translate(49.634 575.67)">
    <path d="m0 0c-0.829 0-1.514 0.669-1.517 1.499 3e-3 0.829 0.685 1.511 1.517 1.513h2.934c0.821-2e-3 1.512-0.659 1.514-1.513-8e-3 -0.851-0.696-1.497-1.514-1.499zm-2.09 5.209c0-0.489 0.174-0.965 0.461-1.327l0.39-0.501-0.419-0.48c-0.36-0.405-0.588-0.909-0.586-1.402 2e-3 -1.187 0.978-2.179 2.181-2.183h2.997c1.202 4e-3 2.178 0.996 2.182 2.183 1e-3 0.493-0.231 0.997-0.586 1.402l-0.423 0.479 0.395 0.502c0.284 0.362 0.456 0.838 0.456 1.327-2e-3 1.182-0.993 2.181-2.197 2.183h-2.652c-1.203-2e-3 -2.196-0.999-2.199-2.183zm2.027-7.429c-2.06 5e-3 -3.715 1.68-3.717 3.719 0 0.736 0.249 1.396 0.606 1.945-0.289 0.525-0.452 1.132-0.452 1.765 5e-3 2.048 1.676 3.715 3.735 3.717h2.652c2.059-2e-3 3.731-1.669 3.736-3.717 0-0.633-0.164-1.24-0.453-1.765 0.357-0.549 0.606-1.209 0.608-1.945-4e-3 -2.039-1.661-3.714-3.718-3.719z" fill="none" stroke="#fff" stroke-width="1.217"/>
   </g>
   <g transform="translate(78.527 580.61)">
    <path d="m0 0c0-0.42 0.277-0.745 0.742-0.745h2.811c0.39 0 0.746 0.325 0.746 0.745 0 0.401-0.265 0.729-0.746 0.729h-2.811c-0.402 0-0.742-0.328-0.742-0.729m4.394-3.711c0 0.418-0.344 0.743-0.746 0.743h-2.935c-0.418 0-0.746-0.325-0.746-0.743 0-0.404 0.328-0.729 0.746-0.729h2.935c0.402 0 0.746 0.325 0.746 0.729m2.048 3.711c0-0.669-0.231-1.304-0.621-1.804 0.451-0.51 0.776-1.178 0.776-1.907 0-1.615-1.321-2.95-2.949-2.95h-2.998c-1.63 0-2.946 1.335-2.946 2.95 0 0.729 0.321 1.397 0.773 1.907-0.387 0.5-0.62 1.135-0.62 1.804 0 1.614 1.334 2.947 2.964 2.947h2.656c1.63 0 2.965-1.333 2.965-2.947" fill="#50ade5"/>
   </g>
   <g transform="translate(78.527 580.61)">
    <path d="m0 0c0-0.42 0.277-0.745 0.742-0.745h2.811c0.39 0 0.746 0.325 0.746 0.745 0 0.401-0.265 0.729-0.746 0.729h-2.811c-0.402 0-0.742-0.328-0.742-0.729zm4.394-3.711c0 0.418-0.344 0.743-0.746 0.743h-2.935c-0.418 0-0.746-0.325-0.746-0.743 0-0.404 0.328-0.729 0.746-0.729h2.935c0.402 0 0.746 0.325 0.746 0.729zm2.048 3.711c0-0.669-0.231-1.304-0.621-1.804 0.451-0.51 0.776-1.178 0.776-1.907 0-1.615-1.321-2.95-2.949-2.95h-2.998c-1.63 0-2.946 1.335-2.946 2.95 0 0.729 0.321 1.397 0.773 1.907-0.387 0.5-0.62 1.135-0.62 1.804 0 1.614 1.334 2.947 2.964 2.947h2.656c1.63 0 2.965-1.333 2.965-2.947z" fill="none" stroke="#fff" stroke-width="1.217"/>
   </g>
   <g transform="translate(78.171 579.55)">
    <path d="m0 0c-0.281 0.292-0.415 0.685-0.413 1.062 6e-3 0.853 0.696 1.494 1.511 1.497h2.811c0.413 5e-3 0.831-0.154 1.107-0.451 0.284-0.294 0.409-0.679 0.407-1.046-0.014-0.873-0.701-1.506-1.514-1.513h-2.828c-0.405 0-0.812 0.161-1.081 0.451m1.069-4.148c-0.829 0-1.513 0.669-1.513 1.499s0.682 1.511 1.513 1.513h2.934c0.822-2e-3 1.511-0.661 1.513-1.513-8e-3 -0.851-0.693-1.497-1.513-1.499zm-2.09 5.21c0-0.489 0.177-0.964 0.458-1.328l0.392-0.502-0.418-0.477c-0.359-0.407-0.59-0.91-0.584-1.404 0-1.188 0.981-2.181 2.179-2.181h2.997c1.201 0 2.178 0.993 2.18 2.181 2e-3 0.496-0.226 0.997-0.584 1.404l-0.422 0.477 0.394 0.502c0.284 0.364 0.458 0.839 0.458 1.328-2e-3 1.182-0.995 2.18-2.196 2.181h-2.656c-1.203-1e-3 -2.194-0.999-2.198-2.181m2.027-7.428c-2.056 1e-3 -3.712 1.675-3.717 3.717 3e-3 0.737 0.249 1.397 0.609 1.944-0.288 0.528-0.453 1.132-0.453 1.767 3e-3 2.045 1.675 3.713 3.732 3.718h2.656c2.056-5e-3 3.728-1.673 3.732-3.718 0-0.635-0.163-1.239-0.452-1.769 0.364-0.545 0.606-1.205 0.606-1.942-2e-3 -2.042-1.657-3.716-3.716-3.717z" fill="#231f20"/>
   </g>
   <g transform="translate(78.171 579.55)">
    <path d="m0 0c-0.281 0.292-0.415 0.685-0.413 1.062 6e-3 0.853 0.696 1.494 1.511 1.497h2.811c0.413 5e-3 0.831-0.154 1.107-0.451 0.284-0.294 0.409-0.679 0.407-1.046-0.014-0.873-0.701-1.506-1.514-1.513h-2.828c-0.405 0-0.812 0.161-1.081 0.451zm1.069-4.148c-0.829 0-1.513 0.669-1.513 1.499s0.682 1.511 1.513 1.513h2.934c0.822-2e-3 1.511-0.661 1.513-1.513-8e-3 -0.851-0.693-1.497-1.513-1.499zm-2.09 5.21c0-0.489 0.177-0.964 0.458-1.328l0.392-0.502-0.418-0.477c-0.359-0.407-0.59-0.91-0.584-1.404 0-1.188 0.981-2.181 2.179-2.181h2.997c1.201 0 2.178 0.993 2.18 2.181 2e-3 0.496-0.226 0.997-0.584 1.404l-0.422 0.477 0.394 0.502c0.284 0.364 0.458 0.839 0.458 1.328-2e-3 1.182-0.995 2.18-2.196 2.181h-2.656c-1.203-1e-3 -2.194-0.999-2.198-2.181zm2.027-7.428c-2.056 1e-3 -3.712 1.675-3.717 3.717 3e-3 0.737 0.249 1.397 0.609 1.944-0.288 0.528-0.453 1.132-0.453 1.767 3e-3 2.045 1.675 3.713 3.732 3.718h2.656c2.056-5e-3 3.728-1.673 3.732-3.718 0-0.635-0.163-1.239-0.452-1.769 0.364-0.545 0.606-1.205 0.606-1.942-2e-3 -2.042-1.657-3.716-3.716-3.717z" fill="none" stroke="#fff" stroke-width="1.217"/>
   </g>
   <g transform="translate(53.311 577.17)">
    <path d="m0 0c0 0.419-0.34 0.744-0.743 0.744h-2.934c-0.422 0-0.746-0.325-0.746-0.744 0-0.403 0.324-0.731 0.746-0.731h2.934c0.403 0 0.743 0.328 0.743 0.731m2.053 3.71c0-0.67-0.234-1.307-0.621-1.801 0.447-0.513 0.774-1.18 0.774-1.909 0-1.614-1.317-2.948-2.949-2.948h-2.997c-1.629 0-2.949 1.334-2.949 2.948 0 0.729 0.326 1.396 0.774 1.909-0.386 0.494-0.618 1.131-0.618 1.801 0 1.617 1.335 2.95 2.965 2.95h2.652c1.631 0 2.969-1.333 2.969-2.95" fill="#50ade5"/>
   </g>
   <g transform="translate(53.311 577.17)">
    <path d="m0 0c0 0.419-0.34 0.744-0.743 0.744h-2.934c-0.422 0-0.746-0.325-0.746-0.744 0-0.403 0.324-0.731 0.746-0.731h2.934c0.403 0 0.743 0.328 0.743 0.731zm2.053 3.71c0-0.67-0.234-1.307-0.621-1.801 0.447-0.513 0.774-1.18 0.774-1.909 0-1.614-1.317-2.948-2.949-2.948h-2.997c-1.629 0-2.949 1.334-2.949 2.948 0 0.729 0.326 1.396 0.774 1.909-0.386 0.494-0.618 1.131-0.618 1.801 0 1.617 1.335 2.95 2.965 2.95h2.652c1.631 0 2.969-1.333 2.969-2.95z" fill="none" stroke="#fff" stroke-width="1.217"/>
   </g>
   <g transform="translate(73.294 575.99)">
    <path d="m0 0h-3.22c-1.013 0-1.85 0.84-1.85 1.861 0 1.016 0.837 1.857 1.85 1.857h7.554v-1.395h-7.554c-0.251 0-0.457-0.206-0.457-0.462 0-0.26 0.216-0.464 0.457-0.464h3.22c1.027 0 1.864-0.848 1.864-1.873 0-1.014-0.837-1.854-1.864-1.854h-5.082v1.403h5.082c0.252 0 0.468 0.205 0.468 0.461 0 0.261-0.216 0.466-0.468 0.466" fill="#231f20"/>
   </g>
   <g transform="translate(73.294 575.99)">
    <path d="m0 0h-3.22c-1.013 0-1.85 0.84-1.85 1.861 0 1.016 0.837 1.857 1.85 1.857h7.554v-1.395h-7.554c-0.251 0-0.457-0.206-0.457-0.462 0-0.26 0.216-0.464 0.457-0.464h3.22c1.027 0 1.864-0.848 1.864-1.873 0-1.014-0.837-1.854-1.864-1.854h-5.082v1.403h5.082c0.252 0 0.468 0.205 0.468 0.461 0 0.261-0.216 0.466-0.468 0.466z" fill="none" stroke="#fff" stroke-width="1.217"/>
   </g>
   <g transform="translate(78.527 580.61)">
    <path d="m0 0c0-0.42 0.277-0.745 0.742-0.745h2.811c0.39 0 0.746 0.325 0.746 0.745 0 0.401-0.265 0.729-0.746 0.729h-2.811c-0.402 0-0.742-0.328-0.742-0.729m4.394-3.711c0 0.418-0.344 0.743-0.746 0.743h-2.935c-0.418 0-0.746-0.325-0.746-0.743 0-0.404 0.328-0.729 0.746-0.729h2.935c0.402 0 0.746 0.325 0.746 0.729m2.048 3.711c0-0.669-0.231-1.304-0.621-1.804 0.451-0.51 0.776-1.178 0.776-1.907 0-1.615-1.321-2.95-2.949-2.95h-2.998c-1.63 0-2.946 1.335-2.946 2.95 0 0.729 0.321 1.397 0.773 1.907-0.387 0.5-0.62 1.135-0.62 1.804 0 1.614 1.334 2.947 2.964 2.947h2.656c1.63 0 2.965-1.333 2.965-2.947" fill="#50ade5"/>
   </g>
   <g transform="translate(78.527 580.61)">
    <path d="m0 0c0-0.42 0.277-0.745 0.742-0.745h2.811c0.39 0 0.746 0.325 0.746 0.745 0 0.401-0.265 0.729-0.746 0.729h-2.811c-0.402 0-0.742-0.328-0.742-0.729zm4.394-3.711c0 0.418-0.344 0.743-0.746 0.743h-2.935c-0.418 0-0.746-0.325-0.746-0.743 0-0.404 0.328-0.729 0.746-0.729h2.935c0.402 0 0.746 0.325 0.746 0.729zm2.048 3.711c0-0.669-0.231-1.304-0.621-1.804 0.451-0.51 0.776-1.178 0.776-1.907 0-1.615-1.321-2.95-2.949-2.95h-2.998c-1.63 0-2.946 1.335-2.946 2.95 0 0.729 0.321 1.397 0.773 1.907-0.387 0.5-0.62 1.135-0.62 1.804 0 1.614 1.334 2.947 2.964 2.947h2.656c1.63 0 2.965-1.333 2.965-2.947z" fill="none" stroke="#fff" stroke-width="1.217"/>
   </g>
   <g transform="translate(71.46 581.59)">
    <path d="m0 0v1.037c0 0.118-0.115 0.207-0.207 0.207h-1.45c-0.057 0-0.206-0.089-0.206-0.207v-1.037c0-0.116 0.109-0.204 0.206-0.204h1.45c0.115 2e-3 0.207 0.088 0.207 0.204m-2.486 0v1.037c0 0.455 0.374 0.826 0.829 0.826h1.45c0.457 0 0.829-0.371 0.829-0.826v-1.037c0-0.453-0.372-0.828-0.829-0.828h-1.45c-0.455 0-0.829 0.375-0.829 0.828" fill="#231f20"/>
   </g>
   <g transform="translate(71.46 581.59)">
    <path d="m0 0v1.037c0 0.118-0.115 0.207-0.207 0.207h-1.45c-0.057 0-0.206-0.089-0.206-0.207v-1.037c0-0.116 0.109-0.204 0.206-0.204h1.45c0.115 2e-3 0.207 0.088 0.207 0.204zm-2.486 0v1.037c0 0.455 0.374 0.826 0.829 0.826h1.45c0.457 0 0.829-0.371 0.829-0.826v-1.037c0-0.453-0.372-0.828-0.829-0.828h-1.45c-0.455 0-0.829 0.375-0.829 0.828z" fill="none" stroke="#fff" stroke-width="1.217"/>
   </g>
   <g transform="translate(72.55 582.63)">
    <path d="m0 0c0 0.455 0.374 0.826 0.827 0.826h1.245c0.456 0 0.83-0.371 0.83-0.826v-1.865h-0.62v1.865c0 0.118-0.109 0.207-0.21 0.207h-1.245c-0.112 0-0.203-0.089-0.203-0.207v-1.865h-0.624z" fill="#231f20"/>
   </g>
   <g transform="translate(72.55 582.63)">
    <path d="m0 0c0 0.455 0.374 0.826 0.827 0.826h1.245c0.456 0 0.83-0.371 0.83-0.826v-1.865h-0.62v1.865c0 0.118-0.109 0.207-0.21 0.207h-1.245c-0.112 0-0.203-0.089-0.203-0.207v-1.865h-0.624z" fill="none" stroke="#fff" stroke-width="1.217"/>
   </g>
   <path d="m73.138 583.59h-0.619v-2.821h0.619z" fill="#231f20"/>
   <g transform="translate(73.138 583.59)">
    <path d="m0 0h-0.619v-2.821h0.619z" fill="none" stroke="#fff" stroke-width="1.217"/>
   </g>
   <g transform="translate(48.908 580.61)">
    <path d="m0 0c0-0.42 0.279-0.745 0.746-0.745h2.808c0.392 0 0.749 0.325 0.749 0.745 0 0.401-0.266 0.729-0.749 0.729h-2.808c-0.404 0-0.746-0.328-0.746-0.729" fill="#100f0d"/>
   </g>
   <g transform="translate(48.908 580.61)">
    <path d="m0 0c0-0.42 0.279-0.745 0.746-0.745h2.808c0.392 0 0.749 0.325 0.749 0.745 0 0.401-0.266 0.729-0.749 0.729h-2.808c-0.404 0-0.746-0.328-0.746-0.729z" fill="none" stroke="#fff" stroke-width="1.217"/>
   </g>
   <g transform="translate(57.973 585.02)">
    <path d="m0 0-0.195-0.169c-0.196-0.187-0.389-0.373-0.568-0.573-0.092-0.104-0.182-0.203-0.27-0.31l-0.16-0.21c-0.301-0.412-0.582-0.841-0.821-1.291-0.054-0.099-0.107-0.199-0.156-0.303l-0.086-0.179c-0.104-0.278-0.195-0.565-0.256-0.857l-0.024-0.129c-0.014-0.091-0.036-0.249-0.036-0.247l-0.013-0.09c-0.011-0.119-0.016-0.238-0.016-0.354-3e-3 -0.276 3e-3 -0.555 0.034-0.83l0.049-0.305c0.029-0.157 0.062-0.312 0.102-0.466 0.08-0.309 0.167-0.614 0.281-0.914 0.034-0.1 0.071-0.203 0.113-0.302l0.037-0.099c0.055-0.125 0.109-0.25 0.169-0.368 0.105-0.207 0.215-0.409 0.342-0.603 0.058-0.097 0.125-0.195 0.192-0.29l0.118-0.153c0.126-0.15 0.252-0.296 0.391-0.437 0.196-0.201 0.401-0.396 0.621-0.576l0.186-0.15 0.173-0.124c0.41-0.279 0.833-0.535 1.278-0.747l0.316-0.143 0.217-0.086c0.233-0.082 0.467-0.16 0.704-0.223 0.232-0.064 0.471-0.12 0.709-0.165l0.186-0.031 0.222-0.024c0.277-0.02 0.553-0.032 0.827-0.02 0.117 2e-3 0.23 7e-3 0.348 0.02l0.202 0.027c0.169 0.033 0.338 0.07 0.504 0.118l0.171 0.051 0.189 0.09c0.831 0.492 1.63 1.165 2.574 1.382l0.119 0.161c0.214 0.294 0.421 0.598 0.612 0.907 0.199 0.319 0.387 0.644 0.556 0.977 0.072 0.141 0.145 0.284 0.21 0.429l0.068 0.143 0.023 0.065c0.058 0.143 0.108 0.284 0.157 0.427-0.097 0.203-0.157 0.432-0.157 0.674-3e-3 0.454-0.018 0.908-0.065 1.363l-0.029 0.255c-2e-3 0.02-0.01 0.072-0.024 0.162-0.038 0.223-0.077 0.441-0.129 0.661-0.1 0.43-0.223 0.855-0.364 1.274-0.034 0.105-0.069 0.207-0.107 0.311-0.059 0.145-0.075 0.185-0.048 0.129-0.078 0.178-0.162 0.356-0.251 0.531-0.173 0.333-0.354 0.651-0.573 0.952l-0.25 0.314c-0.13 0.157-0.261 0.307-0.386 0.462-0.139 0.168-0.275 0.337-0.402 0.507-0.703 0.223-1.402 0.463-2.12 0.626-0.189 0.045-0.381 0.085-0.571 0.117l-0.061 8e-3 -0.217 0.019c-0.18 0.01-0.36 0.019-0.536 6e-3l-0.063-6e-3 -0.17-0.032c-1.295-0.305-2.443-0.995-3.732-1.266l-0.144-0.096" fill="#f58113"/>
   </g>
   <g transform="translate(56.996 582.48)">
    <path d="m0 0-0.086-0.089-4e-3 -4e-3c-0.13-0.178-0.26-0.362-0.359-0.559-0.058-0.114-0.115-0.232-0.172-0.349 8e-3 0.015-0.01-0.034-0.056-0.146-0.063-0.191-0.121-0.381-0.178-0.577h10.053c0.837 0 1.626 0.152 2.344 0.423-0.088 0.13-0.156 0.276-0.21 0.425-0.065 0.196-0.131 0.395-0.207 0.585l-0.026 0.072-0.08 0.167c-0.057 0.114-0.118 0.23-0.184 0.339l-0.15 0.16c-0.45-0.181-0.956-0.281-1.487-0.281h-9.036l-0.162-0.166" fill="#cf1550"/>
   </g>
   <g transform="translate(57.973 585.02)">
    <path d="m0 0-0.195-0.169c-0.196-0.187-0.389-0.373-0.568-0.573-0.092-0.104-0.182-0.203-0.27-0.31l-0.16-0.21c-0.301-0.412-0.582-0.841-0.821-1.291-0.054-0.099-0.107-0.199-0.156-0.303l-0.086-0.179c-0.104-0.278-0.195-0.565-0.256-0.857l-0.024-0.129c-0.014-0.091-0.036-0.249-0.036-0.247l-0.013-0.09c-0.011-0.119-0.016-0.238-0.016-0.354-3e-3 -0.276 3e-3 -0.555 0.034-0.83l0.049-0.305c0.029-0.157 0.062-0.312 0.102-0.466 0.08-0.309 0.167-0.614 0.281-0.914 0.034-0.1 0.071-0.203 0.113-0.302l0.037-0.099c0.055-0.125 0.109-0.25 0.169-0.368 0.105-0.207 0.215-0.409 0.342-0.603 0.058-0.097 0.125-0.195 0.192-0.29l0.118-0.153c0.126-0.15 0.252-0.296 0.391-0.437 0.196-0.201 0.401-0.396 0.621-0.576l0.186-0.15 0.173-0.124c0.41-0.279 0.833-0.535 1.278-0.747l0.316-0.143 0.217-0.086c0.233-0.082 0.467-0.16 0.704-0.223 0.232-0.064 0.471-0.12 0.709-0.165l0.186-0.031 0.222-0.024c0.277-0.02 0.553-0.032 0.827-0.02 0.117 2e-3 0.23 7e-3 0.348 0.02l0.202 0.027 0.079 0.017c1.14 2.397 4.718 5.011 3.715 7.317-0.539 1.245-0.974 3.103-1.296 4.885l-0.1 0.126c-0.703 0.223-1.402 0.463-2.12 0.626-0.189 0.045-0.381 0.085-0.571 0.117l-0.061 8e-3 -0.217 0.019c-0.18 0.01-0.36 0.019-0.536 6e-3l-0.063-6e-3 -0.17-0.032c-1.295-0.305-2.443-0.995-3.732-1.266l-0.144-0.096" fill="#110f0d"/>
   </g>
   <g transform="translate(58.117 585.12)">
    <path d="m0 0-0.144-0.098-0.195-0.169c-0.196-0.186-0.389-0.373-0.568-0.573-0.092-0.103-0.182-0.203-0.27-0.309l-0.16-0.21c-0.301-0.412-0.582-0.841-0.821-1.291-0.054-0.1-0.107-0.2-0.156-0.303l-0.086-0.18c-0.104-0.278-0.195-0.564-0.256-0.856l-0.024-0.129c-0.014-0.092-0.036-0.249-0.036-0.247l-0.013-0.091c-0.011-0.118-0.016-0.237-0.016-0.354-3e-3 -0.276 3e-3 -0.554 0.034-0.83l0.049-0.304c0.029-0.158 0.062-0.313 0.102-0.467 0.08-0.309 0.167-0.613 0.281-0.913 0.034-0.101 0.071-0.203 0.113-0.303l0.037-0.099c0.055-0.125 0.109-0.25 0.169-0.368 0.105-0.207 0.215-0.409 0.342-0.602 0.058-0.098 0.125-0.196 0.192-0.29l0.118-0.154c0.126-0.15 0.252-0.295 0.391-0.437 0.196-0.2 0.401-0.396 0.621-0.575l0.186-0.151 0.173-0.124c0.41-0.279 0.833-0.535 1.278-0.747l0.316-0.142 0.217-0.086c0.233-0.082 0.467-0.161 0.704-0.224l0.218-0.056 0.829 2.927 0.451 1.467-0.405 3.603-2.815 3.925c-0.28-0.095-0.566-0.178-0.856-0.24" fill="#110f0d"/>
   </g>
   <g transform="translate(56.341 579.4)">
    <path d="m0 0c-0.147 0.607 1.425 1.141 1.978 0.824-0.055-0.177 2.05 0.279 2.495 0.155 0.442-0.121 1.181-0.077 1.171-0.464-9e-3 -0.39-0.417-0.862-0.417-0.862l-0.938 0.965-1.687-0.025s-1.335 0.028-1.861-0.934c-0.361-0.541-0.593-0.267-0.741 0.341" fill="#eedbca"/>
   </g>
   <g transform="translate(64.38 577.72)">
    <path d="m0 0c0.058-1.067-0.229-2.632-0.281-4.137 0.115 0.069 0.228 0.14 0.346 0.214 0.114 1.335 0.344 2.746 0.234 4.277-0.212 2.953-2.169 3.05-2.169 3.05 0.13-0.114 1.702-0.283 1.87-3.404" fill="#110f0d"/>
   </g>
   <g transform="translate(63.268 577.16)">
    <path d="m0 0c0.06-1.057-0.198-2.457-0.267-3.893l0.188 0.026 0.166 0.035c0.119 1.259 0.328 2.557 0.218 4.08-0.222 3.064-2.197 3.867-2.197 3.867 0.133-0.16 1.723-0.897 1.892-4.115" fill="#110f0d"/>
   </g>
   <g transform="translate(63.874 577.14)">
    <path d="m0 0c0.109-1.023-0.051-2.326-0.075-3.695l0.065 0.02 0.188 0.09 0.152 0.092c0.062 1.143 0.151 2.337-0.023 3.727-0.402 3.262-2.565 4.313-2.565 4.313 0.152-0.187 1.893-1.128 2.258-4.547" fill="#110f0d"/>
   </g>
   <g transform="translate(65.349 579.13)">
    <path d="m0 0c0.203-1.155-0.163-3.054 0.604-4.43l0.064 0.028c-0.578 1.48-0.143 2.839-0.487 4.583-0.37 1.903-1.739 2.242-1.739 2.242 0.1-0.093 1.207-0.421 1.558-2.423" fill="#110f0d"/>
   </g>
   <g transform="translate(65.164 578.69)">
    <path d="m0 0c0.16-1.113-0.122-2.826 0.19-4.308l0.192 0.113c-0.17 1.378 0.115 2.774-0.159 4.428-0.385 2.312-2.016 2.643-2.016 2.643 0.118-0.105 1.435-0.441 1.793-2.876" fill="#110f0d"/>
   </g>
   <g transform="translate(64.928 578.66)">
    <path d="m0 0c0.171-1.139-0.024-2.879 0.193-4.421l0.23 0.141c-0.105 1.414 0.081 2.902-0.2 4.574-0.432 2.598-2.111 2.77-2.111 2.77 0.122-0.104 1.479-0.325 1.888-3.064" fill="#110f0d"/>
   </g>
   <g transform="translate(64.638 578.43)">
    <path d="m0 0c0.1-1.176-0.249-2.982-0.119-4.58l0.258 0.167c-0.01 1.459 0.304 2.988 0.127 4.715-0.283 2.672-2.089 2.86-2.089 2.86 0.127-0.109 1.58-0.341 1.823-3.162" fill="#110f0d"/>
   </g>
   <g transform="translate(57.973 585.02)">
    <path d="m0 0-0.195-0.169c-0.196-0.187-0.389-0.373-0.568-0.573-0.092-0.104-0.182-0.203-0.27-0.31l-0.16-0.21c-0.301-0.412-0.582-0.841-0.821-1.291-0.054-0.099-0.107-0.199-0.156-0.303l-0.086-0.179c-0.104-0.278-0.195-0.565-0.256-0.857l-0.024-0.129c-0.014-0.091-0.036-0.249-0.036-0.247l-0.013-0.09c-0.011-0.119-0.016-0.238-0.016-0.354-3e-3 -0.276 3e-3 -0.555 0.034-0.83l0.049-0.305c0.029-0.157 0.062-0.312 0.102-0.466 0.08-0.309 0.167-0.614 0.281-0.914 0.034-0.1 0.071-0.203 0.113-0.302l0.037-0.099c0.055-0.125 0.109-0.25 0.169-0.368 0.105-0.207 0.215-0.409 0.342-0.603 0.058-0.097 0.125-0.195 0.192-0.29l0.118-0.153c0.126-0.15 0.252-0.296 0.391-0.437 0.196-0.201 0.401-0.396 0.621-0.576l0.186-0.15 0.173-0.124c0.41-0.279 0.833-0.535 1.278-0.747l0.316-0.143 0.217-0.086c0.233-0.082 0.467-0.16 0.704-0.223 0.232-0.064 0.471-0.12 0.709-0.165l0.169-0.03c0.304 1.099 0.46 2.153 0.66 2.384 0.27 1.106 0.388 1.838 0.24 3.091l-0.493 1.695s-0.678-0.298-0.468-0.367c0.212-0.067 0.2-0.661 0.111-0.806-0.182 0.118-0.247 0.131-0.406-0.054 0.145-0.16 0.092-0.134 0.075-0.305 0.048-0.066 0.197-0.021 0.164-0.125-0.183 6e-3 -0.507-0.084-0.622-0.264 0.159-0.225 0.045-0.353 7e-3 -0.508-0.114-0.011-0.196 0.057-0.271 0.143-0.138-0.059-0.019-0.208-0.141-0.272-0.193 0.049-0.191-0.093-0.278-0.201-0.066 0.022-0.031 0.127-0.106 0.221 0.068 2e-3 0.176-0.028 0.207 0.068-0.074 0.181-0.196 0.223-0.34 0.21-0.046-0.145-0.105-0.287-0.21-0.407 0.075-0.143 0.114-0.273 0.073-0.375l-0.204 6e-3c-0.113 0.266-0.283 0.373-0.445 0.501-0.177-0.026-0.076-0.232-0.209-0.202-0.119 0.022-0.125 0.08-0.173 0.222-0.181-0.036-0.093-0.167-0.234-0.216-0.039 0.105 7e-3 0.165-0.081 0.234-0.182 0-0.186-0.193-0.344-0.269-0.104 0.121 0.027 0.159-0.024 0.259-0.092-0.026-0.154 0.039-0.217 0.102-0.395 0.165-0.929-0.075-1.299 0.156l0.042 0.124c0.134 0.035 0.275-0.045 0.372 0.074-0.044 0.118-0.168-0.078-0.218 0.103-0.028 0.364 0.568 0.597 0.825 0.901-0.06 0.18-0.17 0.221-0.3 0.199l-4e-3 -0.207c-0.062 0.014-0.127 0.029-0.218-0.038-0.222-0.256-0.608 0.016-0.519 0.092 0.074-0.14 0.752 0.342 0.689 0.487-0.131 0.013 0.627 0.345 0.627 0.345s-0.771 0.336-0.985 0.216c-0.211-0.118-0.761 0.034-0.594 0.267 0.171 0.235 1.409-0.077 2.086 0.16 0.285 0.101 0.544-2e-3 0.827 0.101 0.353 0.127 0.695-0.119 1.034 0.088 0.189-0.044 0.4-0.287 0.616-0.264-0.09 0.21 1.155-0.367 1.103-0.2-0.041-8e-3 -0.54 2.459-0.702 3.5-0.105 0.703-0.35 1.326-0.632 1.811-0.82-0.311-1.621-0.678-2.477-0.859l-0.144-0.098" fill="#eedbca"/>
   </g>
   <g transform="translate(61.448 580.51)">
    <path d="m0 0 0.065-0.205c-0.182-0.06-0.224-0.168-0.156-0.312 0.057-0.105 0.184-1e-3 0.259-0.045-0.164-0.157-0.549-0.274-0.768-0.167l-0.194-0.161c-0.196 0.011-0.257 0.275-0.378 0.363-0.085-0.062-0.104-0.147-0.248-0.186l-0.108 0.151c-0.153-0.168-0.333-0.105-0.507-0.142-0.04 0.061-0.094 0.081-0.124 0.18-0.131-5e-3 -0.31-0.143-0.382 0.018 0.158 0.098 0.334 0.175 0.518 0.236 0.55 0.183 1.184 0.238 1.696 0.318l0.19-0.115 0.137 0.067" fill="#8fdae5"/>
   </g>
   <g transform="translate(59.774 579.33)">
    <path d="m0 0c0.12-0.026 0.208-0.156 0.294-0.268 0.012-0.254-0.293-0.399-0.42-0.606-0.653-0.39-1.405-0.3-1.959-0.159-0.23 0.056-0.786 0.116-0.662 0.391 0.091 0.202 0.58 0.356 0.747 0.565 0.151-0.61 0.562-1.002 1.088-0.925 0.577 0.011 0.711 0.61 0.912 1.002" fill="#fff"/>
   </g>
   <g transform="translate(58.626 579.04)">
    <path d="m0 0-0.058-0.166-0.168 0.059 0.061 0.167z" fill="#fff"/>
   </g>
   <g transform="translate(54.13 575.72)">
    <path d="m0 0c-0.047-0.116-0.234-0.262-0.195-0.469 0.021-0.103 0.157-0.134 0.12-0.254-0.434 0.037-0.155 0.575 0.075 0.723" fill="#110f0d" fill-rule="evenodd"/>
   </g>
   <g transform="translate(68.215 578.72)">
    <path d="m0 0c-3e-3 0.102-3e-3 0.202-4e-3 0.306-0.872 1.28-1.269 2.829-2.487 4.282-1.802 2.149-4.249 1.366-4.249 1.366 0.22-0.027 2.236 0.531 4.069-1.769 0.852-1.067 1.404-3.095 2.692-4.427l-0.021 0.242" fill="#110f0d"/>
   </g>
   <g transform="translate(67.737 582.02)">
    <path d="m0 0c-1.465 0.943-2.09 2.729-3.681 4.038l-0.101 0.08c-0.164 0.045-0.325 0.086-0.488 0.125-0.126 0.028-0.251 0.055-0.375 0.078 0.263-0.178 0.564-0.41 0.908-0.71 1.063-0.919 2.084-3.201 3.812-3.871l-0.075 0.26" fill="#110f0d"/>
   </g>
   <g transform="translate(67.723 576.62)">
    <path d="m0 0 0.105 0.197c-1.574 2.471-4.594 4.97-6.434 7.071-0.541 0.616-0.958 1.266-1.281 1.898l-0.248-0.1c0.301-0.587 0.707-1.22 1.253-1.881 1.889-2.282 4.802-4.22 6.605-7.185" fill="#110f0d"/>
   </g>
   <g transform="translate(67.389 581.38)">
    <path d="m0 0c-2.041 1.431-2.093 2.956-3.173 4.693-0.169 0.05-0.339 0.096-0.512 0.137 0.857-1.402 1.269-3.653 3.685-4.83" fill="#110f0d"/>
   </g>
   <g transform="translate(67.706 579.31)">
    <path d="m0 0c-2.487 1.964-2.105 4.279-3.741 6.828-0.163 0.046-0.331 0.087-0.498 0.126l-0.106 0.021c0.101-0.134 0.198-0.281 0.296-0.438 1.06-1.717 1.178-5.043 4.049-6.537" fill="#110f0d"/>
   </g>
   <g transform="translate(67.967 581.16)">
    <path d="m0 0c-0.027 0.115-0.057 0.232-0.087 0.351-0.45 0.739-1.045 1.564-1.44 2.092-0.561 0.749-1.04 1.486-1.25 2.164l-0.169 0.054c0.094-0.32 0.302-0.775 0.719-1.416 0.525-0.805 1.594-2.171 2.231-3.262l-4e-3 0.017" fill="#110f0d"/>
   </g>
   <g transform="translate(66.678 579.15)">
    <path d="m0 0c-2.179 1.957-1.723 4.447-3.036 7.08l-0.175 0.04c-0.122 0.027-0.246 0.055-0.369 0.078 0.065-0.112 0.127-0.23 0.187-0.353 0.892-1.801 0.804-5.394 3.393-6.845" fill="#110f0d"/>
   </g>
   <g transform="translate(65.811 579.62)">
    <path d="m0 0c0-1.816-1.013-3.289-2.255-3.289v6.576c1.242 0 2.255-1.47 2.255-3.287" fill="#fff"/>
   </g>
   <g transform="translate(64.992 576.71)">
    <path d="m0 0c0-0.558-0.451-1.007-1.007-1.007s-1.009 0.449-1.009 1.007c0 0-0.565 3.572-0.06 5.953 0.121 0.43 0.513 1.007 1.069 1.007s1.007-0.447 1.007-1.007z" fill="#fff"/>
   </g>
   <g transform="translate(62.896 586.39)">
    <path d="m0 0-0.061 8e-3 -0.207 0.019c0.88-2.042 1.358-4.759 1.358-4.759l0.319 0.961s-0.792 2.521 0 1.896c0.343-0.271 0.409-1.113 0.545-1.494 0.18-0.502 0.373-0.519 0.373-0.491-0.24 1.5-0.625 2.664-1.031 3.554-0.238 0.069-0.479 0.133-0.725 0.189-0.189 0.045-0.38 0.085-0.571 0.117" fill="#fff"/>
   </g>
   <g transform="translate(64.078 583.03)">
    <path d="m0 0c-0.46-0.458-0.46-5.085 0.182-6.504-0.777 3.437-0.138 5.895 0 6.26 0.139 0.367 0.779-0.03 0.779-0.03s-0.506 0.731-0.961 0.274" fill="#110f0d"/>
   </g>
   <g transform="translate(62.674 573.25)">
    <path d="M 0,0 0.167,0.006 C 0.43,0.741 0.586,1.409 0.548,1.917 L 0.398,1.905 C 0.435,1.408 0.271,0.736 0,0" fill="#fff"/>
   </g>
   <g transform="translate(68.121 580.34)">
    <path d="m0 0-0.012 0.076h-1.574v-0.206h1.603z" fill="#110f0d"/>
   </g>
   <g transform="translate(57.408 579.24)">
    <path d="m0 0s0.762 0.678 1.27 0.593c-0.128 0.126 1.017 0.466 1.017 0.466s-1.695-0.085-1.78-0.34c-0.705-0.273-0.507-0.719-0.507-0.719" fill="#8fdae5"/>
   </g>
   <g transform="translate(56.066 579.69)">
    <path d="m0 0c4e-3 -3.305 2.676-5.976 5.98-5.984 3.306 8e-3 5.98 2.679 5.984 5.984-4e-3 3.307-2.678 5.979-5.984 5.982-3.304-3e-3 -5.976-2.675-5.98-5.982m-0.984 0c0 3.849 3.12 6.966 6.964 6.966 3.85 0 6.968-3.117 6.968-6.966 0-3.848-3.118-6.967-6.968-6.967-3.844 0-6.964 3.119-6.964 6.967" fill="#231f20"/>
   </g>
   <g transform="translate(53.311 577.17)">
    <path d="m0 0c0 0.419-0.34 0.744-0.743 0.744h-2.934c-0.422 0-0.746-0.325-0.746-0.744 0-0.403 0.324-0.731 0.746-0.731h2.934c0.403 0 0.743 0.328 0.743 0.731m2.053 3.71c0-0.67-0.234-1.307-0.621-1.801 0.447-0.513 0.774-1.18 0.774-1.909 0-1.614-1.317-2.948-2.949-2.948h-2.997c-1.629 0-2.949 1.334-2.949 2.948 0 0.729 0.326 1.396 0.774 1.909-0.386 0.494-0.618 1.131-0.618 1.801 0 1.617 1.335 2.95 2.965 2.95h2.652c1.631 0 2.969-1.333 2.969-2.95" fill="#50ade5"/>
   </g>
   <g transform="translate(49.634 575.67)">
    <path d="m0 0c-0.829 0-1.514 0.669-1.517 1.499 3e-3 0.829 0.685 1.511 1.517 1.513h2.934c0.821-2e-3 1.512-0.659 1.514-1.513-8e-3 -0.851-0.696-1.497-1.514-1.499zm-2.09 5.209c0-0.489 0.174-0.965 0.461-1.327l0.39-0.501-0.419-0.48c-0.36-0.405-0.588-0.909-0.586-1.402 2e-3 -1.187 0.978-2.179 2.181-2.183h2.997c1.202 4e-3 2.178 0.996 2.182 2.183 1e-3 0.493-0.231 0.997-0.586 1.402l-0.423 0.479 0.395 0.502c0.284 0.362 0.456 0.838 0.456 1.327-2e-3 1.182-0.993 2.181-2.197 2.183h-2.652c-1.203-2e-3 -2.196-0.999-2.199-2.183m2.027-7.429c-2.06 5e-3 -3.715 1.68-3.717 3.719 0 0.736 0.249 1.396 0.606 1.945-0.289 0.525-0.452 1.132-0.452 1.765 5e-3 2.048 1.676 3.715 3.735 3.717h2.652c2.059-2e-3 3.731-1.669 3.736-3.717 0-0.633-0.164-1.24-0.453-1.765 0.357-0.549 0.606-1.209 0.608-1.945-4e-3 -2.039-1.661-3.714-3.718-3.719z" fill="#231f20"/>
   </g>
   <g transform="translate(78.527 580.61)">
    <path d="m0 0c0-0.42 0.277-0.745 0.742-0.745h2.811c0.39 0 0.746 0.325 0.746 0.745 0 0.401-0.265 0.729-0.746 0.729h-2.811c-0.402 0-0.742-0.328-0.742-0.729m4.394-3.711c0 0.418-0.344 0.743-0.746 0.743h-2.935c-0.418 0-0.746-0.325-0.746-0.743 0-0.404 0.328-0.729 0.746-0.729h2.935c0.402 0 0.746 0.325 0.746 0.729m2.048 3.711c0-0.669-0.231-1.304-0.621-1.804 0.451-0.51 0.776-1.178 0.776-1.907 0-1.615-1.321-2.95-2.949-2.95h-2.998c-1.63 0-2.946 1.335-2.946 2.95 0 0.729 0.321 1.397 0.773 1.907-0.387 0.5-0.62 1.135-0.62 1.804 0 1.614 1.334 2.947 2.964 2.947h2.656c1.63 0 2.965-1.333 2.965-2.947" fill="#50ade5"/>
   </g>
   <g transform="translate(78.171 579.55)">
    <path d="m0 0c-0.281 0.292-0.415 0.685-0.413 1.062 6e-3 0.853 0.696 1.494 1.511 1.497h2.811c0.413 5e-3 0.831-0.154 1.107-0.451 0.284-0.294 0.409-0.679 0.407-1.046-0.014-0.873-0.701-1.506-1.514-1.513h-2.828c-0.405 0-0.812 0.161-1.081 0.451m1.069-4.148c-0.829 0-1.513 0.669-1.513 1.499s0.682 1.511 1.513 1.513h2.934c0.822-2e-3 1.511-0.661 1.513-1.513-8e-3 -0.851-0.693-1.497-1.513-1.499zm-2.09 5.21c0-0.489 0.177-0.964 0.458-1.328l0.392-0.502-0.418-0.477c-0.359-0.407-0.59-0.91-0.584-1.404 0-1.188 0.981-2.181 2.179-2.181h2.997c1.201 0 2.178 0.993 2.18 2.181 2e-3 0.496-0.226 0.997-0.584 1.404l-0.422 0.477 0.394 0.502c0.284 0.364 0.458 0.839 0.458 1.328-2e-3 1.182-0.995 2.18-2.196 2.181h-2.656c-1.203-1e-3 -2.194-0.999-2.198-2.181m2.027-7.428c-2.056 1e-3 -3.712 1.675-3.717 3.717 3e-3 0.737 0.249 1.397 0.609 1.944-0.288 0.528-0.453 1.132-0.453 1.767 3e-3 2.045 1.675 3.713 3.732 3.718h2.656c2.056-5e-3 3.728-1.673 3.732-3.718 0-0.635-0.163-1.239-0.452-1.769 0.364-0.545 0.606-1.205 0.606-1.942-2e-3 -2.042-1.657-3.716-3.716-3.717z" fill="#231f20"/>
   </g>
   <g transform="translate(53.311 577.17)">
    <path d="m0 0c0 0.419-0.34 0.744-0.743 0.744h-2.934c-0.422 0-0.746-0.325-0.746-0.744 0-0.403 0.324-0.731 0.746-0.731h2.934c0.403 0 0.743 0.328 0.743 0.731m2.053 3.71c0-0.67-0.234-1.307-0.621-1.801 0.447-0.513 0.774-1.18 0.774-1.909 0-1.614-1.317-2.948-2.949-2.948h-2.997c-1.629 0-2.949 1.334-2.949 2.948 0 0.729 0.326 1.396 0.774 1.909-0.386 0.494-0.618 1.131-0.618 1.801 0 1.617 1.335 2.95 2.965 2.95h2.652c1.631 0 2.969-1.333 2.969-2.95" fill="#50ade5"/>
   </g>
   <g transform="translate(73.294 575.99)">
    <path d="m0 0h-3.22c-1.013 0-1.85 0.84-1.85 1.861 0 1.016 0.837 1.857 1.85 1.857h7.554v-1.395h-7.554c-0.251 0-0.457-0.206-0.457-0.462 0-0.26 0.216-0.464 0.457-0.464h3.22c1.027 0 1.864-0.848 1.864-1.873 0-1.014-0.837-1.854-1.864-1.854h-5.082v1.403h5.082c0.252 0 0.468 0.205 0.468 0.461 0 0.261-0.216 0.466-0.468 0.466" fill="#231f20"/>
   </g>
   <g transform="translate(78.527 580.61)">
    <path d="m0 0c0-0.42 0.277-0.745 0.742-0.745h2.811c0.39 0 0.746 0.325 0.746 0.745 0 0.401-0.265 0.729-0.746 0.729h-2.811c-0.402 0-0.742-0.328-0.742-0.729m4.394-3.711c0 0.418-0.344 0.743-0.746 0.743h-2.935c-0.418 0-0.746-0.325-0.746-0.743 0-0.404 0.328-0.729 0.746-0.729h2.935c0.402 0 0.746 0.325 0.746 0.729m2.048 3.711c0-0.669-0.231-1.304-0.621-1.804 0.451-0.51 0.776-1.178 0.776-1.907 0-1.615-1.321-2.95-2.949-2.95h-2.998c-1.63 0-2.946 1.335-2.946 2.95 0 0.729 0.321 1.397 0.773 1.907-0.387 0.5-0.62 1.135-0.62 1.804 0 1.614 1.334 2.947 2.964 2.947h2.656c1.63 0 2.965-1.333 2.965-2.947" fill="#50ade5"/>
   </g>
   <g transform="translate(71.46 581.59)">
    <path d="m0 0v1.037c0 0.118-0.115 0.207-0.207 0.207h-1.45c-0.057 0-0.206-0.089-0.206-0.207v-1.037c0-0.116 0.109-0.204 0.206-0.204h1.45c0.115 2e-3 0.207 0.088 0.207 0.204m-2.486 0v1.037c0 0.455 0.374 0.826 0.829 0.826h1.45c0.457 0 0.829-0.371 0.829-0.826v-1.037c0-0.453-0.372-0.828-0.829-0.828h-1.45c-0.455 0-0.829 0.375-0.829 0.828" fill="#231f20"/>
   </g>
   <g transform="translate(72.55 582.63)">
    <path d="m0 0c0 0.455 0.374 0.826 0.827 0.826h1.245c0.456 0 0.83-0.371 0.83-0.826v-1.865h-0.62v1.865c0 0.118-0.109 0.207-0.21 0.207h-1.245c-0.112 0-0.203-0.089-0.203-0.207v-1.865h-0.624z" fill="#231f20"/>
   </g>
   <path d="m73.138 583.59h-0.619v-2.821h0.619z" fill="#231f20"/>
   <g transform="translate(48.908 580.61)">
    <path d="m0 0c0-0.42 0.279-0.745 0.746-0.745h2.808c0.392 0 0.749 0.325 0.749 0.745 0 0.401-0.266 0.729-0.749 0.729h-2.808c-0.404 0-0.746-0.328-0.746-0.729" fill="#100f0d"/>
   </g>
  </g>
 </g>
</svg>
