<svg width="800" height="402.53" version="1.1" viewBox="0 0 211.67 106.5" xmlns="http://www.w3.org/2000/svg">
 <g transform="translate(126.78 136.42)">
  <g transform="matrix(6.8472 0 0 -6.8472 -108.77 -48.759)">
   <path d="m0 0h0.585v-2.751h-0.645l-1.184 1.784v-1.784h-0.585v2.755h0.645l1.184-1.784z" fill="#3e4aa7"/>
  </g>
  <g transform="matrix(6.8472 0 0 -6.8472 -74.974 -36.57)">
   <path d="m0 0h0.704l-0.352 0.986zm1.049-0.971-0.142 0.405h-1.109l-0.143-0.405h-0.622l0.982 2.751h0.675l0.981-2.751z" fill="#3e4aa7"/>
  </g>
  <g transform="matrix(6.8472 0 0 -6.8472 -30.231 -44.858)">
   <path d="m0 0h-0.637v-2.181h-0.573v2.181h-0.637v0.57h1.847z" fill="#3e4aa7"/>
  </g>
  <path d="m-2.7409-29.923h-3.903v-18.809h3.903z" fill="#3e4aa7"/>
  <g transform="matrix(6.8472 0 0 -6.8472 30.934 -44.909)">
   <path d="m0 0c-0.112 0-0.217-0.021-0.315-0.064-0.097-0.042-0.182-0.1-0.255-0.174-0.072-0.074-0.13-0.159-0.172-0.257-0.043-0.097-0.064-0.202-0.064-0.315 0-0.112 0.021-0.217 0.064-0.314 0.042-0.098 0.1-0.183 0.172-0.257 0.073-0.074 0.158-0.132 0.255-0.174 0.098-0.043 0.203-0.064 0.315-0.064 0.11 0 0.214 0.021 0.311 0.064 0.097 0.042 0.183 0.1 0.257 0.174 0.073 0.074 0.131 0.159 0.174 0.257 0.042 0.097 0.064 0.202 0.064 0.314 0 0.113-0.022 0.218-0.064 0.315-0.043 0.098-0.101 0.183-0.174 0.257-0.074 0.074-0.16 0.132-0.257 0.174-0.097 0.043-0.201 0.064-0.311 0.064m0-2.185c-0.19 0-0.368 0.037-0.534 0.109s-0.311 0.171-0.435 0.296c-0.123 0.125-0.221 0.27-0.294 0.436-0.072 0.167-0.109 0.345-0.109 0.534 0 0.19 0.037 0.368 0.109 0.535 0.073 0.166 0.171 0.311 0.294 0.436 0.124 0.125 0.269 0.224 0.435 0.296s0.344 0.109 0.534 0.109 0.368-0.037 0.534-0.109 0.311-0.171 0.435-0.296c0.123-0.125 0.221-0.27 0.294-0.436 0.072-0.167 0.109-0.345 0.109-0.535 0-0.189-0.037-0.367-0.109-0.534-0.073-0.166-0.171-0.311-0.294-0.436-0.124-0.125-0.269-0.224-0.435-0.296s-0.344-0.109-0.534-0.109" fill="#3e4aa7"/>
  </g>
  <g transform="matrix(6.8472 0 0 -6.8472 76.937 -48.759)">
   <path d="m0 0h0.585v-2.751h-0.645l-1.184 1.784v-1.784h-0.585v2.755h0.645l1.184-1.784z" fill="#3e4aa7"/>
  </g>
  <g transform="matrix(6.8472 0 0 -6.8472 84.884 -136.42)">
   <path d="m0 0h-7.823l-3.782-4.93h4.262l-3.723-5.91h7.951l-0.136 5.91h3.251z" fill="#77c92b"/>
  </g>
  <g transform="matrix(6.8472 0 0 -6.8472 -13.025 -88.511)">
   <path d="m0 0 2.066 6.997h-6.088v-10.84h7.256l1.701 4.59z" fill="#77c92b"/>
  </g>
  <g transform="matrix(6.8472 0 0 -6.8472 -67.897 -116.01)">
   <path d="m0 0v-2.728h-1.582zm-8.6-7.858h4.043l1.484 2.564h3.077v-2.564h3.206v10.84h-4.954z" fill="#77c92b"/>
  </g>
 </g>
</svg>
