<svg width="800" height="249.31" version="1.1" viewBox="0 0 211.67 65.963" xmlns="http://www.w3.org/2000/svg">
 <g transform="translate(-37.286 84.571)" fill="#fff">
  <g transform="matrix(6.3661 0 0 -6.3661 51.948 -60.104)">
   <path d="m0 0c0.295 0 0.512 0.178 0.512 0.507 0 0.342-0.236 0.506-0.519 0.506h-0.957v-1.013zm-2.303 3.843h2.42c0.458 0 0.811-0.111 1.06-0.314 0.281-0.229 0.432-0.569 0.432-0.975 0-0.471-0.19-0.765-0.583-0.948v-0.02c0.511-0.17 0.805-0.628 0.805-1.184 0-0.53-0.201-0.945-0.536-1.191-0.28-0.205-0.648-0.301-1.132-0.301h-2.466zm2.179-1.932c0.262 0 0.452 0.144 0.452 0.434 0 0.283-0.196 0.421-0.459 0.421h-0.833v-0.855z" fill="#fff"/>
  </g>
  <path d="m65.226-84.571h8.0785v31.397h-8.0785z"/>
  <g transform="matrix(6.3661 0 0 -6.3661 75.053 -64.329)">
   <path d="m0 0c0 1.112 0.72 1.864 1.832 1.864s1.818-0.752 1.818-1.864c0-1.119-0.706-1.864-1.818-1.864s-1.832 0.745-1.832 1.864m2.394 0c0 0.615-0.196 1.001-0.575 1.001-0.38 0-0.563-0.386-0.563-1.001 0-0.621 0.183-1.008 0.563-1.008 0.379 0 0.575 0.387 0.575 1.008" fill="#fff"/>
  </g>
  <g transform="matrix(6.3661 0 0 -6.3661 99.353 -64.329)">
   <path d="m0 0c0 1.112 0.72 1.864 1.832 1.864s1.818-0.752 1.818-1.864c0-1.119-0.706-1.864-1.818-1.864s-1.832 0.745-1.832 1.864m2.394 0c0 0.615-0.196 1.001-0.575 1.001-0.38 0-0.563-0.386-0.563-1.001 0-0.621 0.183-1.008 0.563-1.008 0.379 0 0.575 0.387 0.575 1.008" fill="#fff"/>
  </g>
  <g transform="matrix(6.3661 0 0 -6.3661 124.34 -75.573)">
   <path d="m0 0h1.178v-0.536h0.019c0.236 0.418 0.556 0.641 1.06 0.641 0.445 0 0.778-0.223 0.949-0.612h0.019c0.288 0.468 0.661 0.612 1.092 0.612 0.818 0 1.172-0.602 1.172-1.413v-2.211h-1.237v1.988c0 0.36-0.111 0.596-0.425 0.596-0.308 0-0.465-0.288-0.465-0.668v-1.916h-1.236v1.988c0 0.36-0.111 0.596-0.425 0.596-0.307 0-0.464-0.288-0.464-0.668v-1.916h-1.237z" fill="#fff"/>
  </g>
  <g transform="matrix(6.3661 0 0 -6.3661 169.31 -56.121)">
   <path d="m0 0h-0.013v-0.464h-1.178v4.933h1.237v-1.78h0.02c0.235 0.308 0.549 0.471 1 0.471 0.884 0 1.394-0.798 1.394-1.858 0-1.197-0.556-1.884-1.472-1.884-0.38 0-0.772 0.184-0.988 0.582m1.204 1.315c0 0.57-0.209 0.936-0.582 0.936-0.38 0-0.622-0.366-0.622-0.936 0-0.562 0.242-0.935 0.622-0.935 0.379 0 0.582 0.366 0.582 0.935" fill="#fff"/>
  </g>
  <g transform="matrix(6.3661 0 0 -6.3661 186.04 -64.412)">
   <path d="m0 0c0 1.099 0.726 1.865 1.779 1.865 0.523 0 0.93-0.163 1.236-0.458 0.407-0.392 0.589-1.007 0.576-1.732h-2.363c0.052-0.441 0.263-0.663 0.636-0.663 0.216 0 0.406 0.096 0.484 0.328h1.19c-0.208-0.801-0.83-1.204-1.713-1.204-1.092 0-1.825 0.739-1.825 1.864m1.227 0.368h1.13c-0.019 0.427-0.256 0.65-0.552 0.65-0.341 0-0.532-0.242-0.578-0.65" fill="#fff"/>
  </g>
  <g transform="matrix(6.3661 0 0 -6.3661 218.14 -71.703)">
   <path d="m0 0h0.02c0.255 0.497 0.587 0.68 1.018 0.68 0.099 0 0.166-0.014 0.204-0.033v-1.079h-0.026c-0.732 0.131-1.157-0.216-1.157-1.008v-1.472h-1.237v3.52h1.178z" fill="#fff"/>
  </g>
  <g transform="matrix(6.3661 0 0 -6.3661 227.05 -53.089)">
   <path d="m0 0h1.191c0.045-0.149 0.202-0.295 0.497-0.295 0.399 0 0.536 0.249 0.536 0.615v0.269h-0.026c-0.196-0.235-0.458-0.404-0.844-0.404-0.759 0-1.42 0.56-1.42 1.659 0 1.007 0.544 1.793 1.361 1.793 0.471 0 0.759-0.19 0.949-0.497h0.02v0.392h1.177v-3.049c0-0.562-0.196-1-0.491-1.262-0.307-0.275-0.746-0.386-1.243-0.386-0.935 0-1.59 0.383-1.707 1.165m2.276 1.903c0 0.438-0.209 0.792-0.569 0.792-0.346 0-0.569-0.315-0.569-0.792 0-0.471 0.223-0.811 0.569-0.811 0.36 0 0.569 0.347 0.569 0.811" fill="#fff"/>
  </g>
  <g transform="matrix(6.3661 0 0 -6.3661 37.286 -50.759)">
   <path d="m0 0h2.322c0.955 0 1.766-0.464 1.766-1.472 0-0.562-0.274-0.961-0.777-1.197v-0.02c0.392-0.157 0.586-0.432 0.666-0.817 0.122-0.589 0.02-1.292 0.196-1.346v-0.081h-1.354c-0.132 0.101-0.078 0.707-0.176 1.145-0.085 0.38-0.242 0.583-0.641 0.583h-0.635v-1.728h-1.367zm1.365-2.205h0.735c0.394 0 0.61 0.204 0.61 0.572 0 0.342-0.197 0.546-0.591 0.546h-0.754z" fill="#fff"/>
  </g>
  <g transform="matrix(6.3661 0 0 -6.3661 78.157 -21.853)">
   <path d="m0 0h-0.013c-0.223-0.333-0.576-0.484-1.007-0.484-0.641 0-1.113 0.367-1.113 1.06 0 0.779 0.569 1.001 1.211 1.08 0.706 0.085 0.896 0.17 0.896 0.392 0 0.196-0.086 0.341-0.354 0.341s-0.405-0.167-0.438-0.418h-1.171c0.026 0.696 0.537 1.261 1.583 1.261 0.511 0 0.839-0.064 1.093-0.229 0.348-0.226 0.517-0.588 0.517-1.06v-1.747c0-0.304 0.023-0.461 0.128-0.533v-0.055h-1.22c-0.045 0.085-0.086 0.196-0.112 0.392m8e-3 0.884v0.31c-0.118-0.059-0.269-0.113-0.479-0.164-0.36-0.088-0.473-0.192-0.473-0.402 0-0.237 0.184-0.342 0.387-0.342 0.289 0 0.565 0.177 0.565 0.598" fill="#fff"/>
  </g>
  <g transform="matrix(6.3661 0 0 -6.3661 87.733 -30.602)">
   <path d="m0 0c0 1.164 0.602 1.858 1.492 1.858 0.477 0 0.745-0.216 0.902-0.478h0.02v1.786h1.236v-4.932h-1.177v0.496h-0.013c-0.203-0.411-0.55-0.614-0.962-0.614-0.863 0-1.498 0.602-1.498 1.884m2.46 0.02c0 0.556-0.236 0.929-0.602 0.929-0.36 0-0.602-0.327-0.602-0.929 0-0.622 0.236-0.942 0.602-0.942s0.602 0.386 0.602 0.942" fill="#fff"/>
  </g>
  <path d="m113.76-41.766h7.8686v22.409h-7.8686zm0-8.1613h7.8686v6.2959h-7.8686z"/>
  <g transform="matrix(6.3661 0 0 -6.3661 123.38 -30.518)">
   <path d="m0 0c0 1.112 0.72 1.864 1.832 1.864s1.818-0.752 1.818-1.864c0-1.118-0.706-1.864-1.818-1.864s-1.832 0.746-1.832 1.864m2.394 0c0 0.615-0.196 1.001-0.576 1.001-0.379 0-0.562-0.386-0.562-1.001 0-0.621 0.183-1.007 0.562-1.007 0.38 0 0.576 0.386 0.576 1.007" fill="#fff"/>
  </g>
 </g>
</svg>
