<svg width="800" height="519.38" version="1.1" viewBox="0 0 211.67 137.42" xmlns="http://www.w3.org/2000/svg">
 <defs>
  <linearGradient id="linearGradient12084" x2="1" gradientTransform="matrix(0 -6.1806 -6.1806 0 76.171 284.75)" gradientUnits="userSpaceOnUse">
   <stop stop-color="#51ade5" offset="0"/>
   <stop stop-color="#51ade5" offset=".35"/>
   <stop stop-color="#3972c2" offset=".88371"/>
   <stop stop-color="#3972c2" offset="1"/>
  </linearGradient>
  <clipPath id="clipPath12058">
   <path d="m0 0h612v792h-612z"/>
  </clipPath>
  <linearGradient id="linearGradient12048" x2="1" gradientTransform="matrix(0 -7.3154 -7.3154 0 73.246 285.88)" gradientUnits="userSpaceOnUse">
   <stop stop-color="#51ade5" offset="0"/>
   <stop stop-color="#51ade5" offset=".35"/>
   <stop stop-color="#3972c2" offset=".88371"/>
   <stop stop-color="#3972c2" offset="1"/>
  </linearGradient>
  <clipPath id="clipPath12022">
   <path d="m0 0h612v792h-612z"/>
  </clipPath>
  <linearGradient id="linearGradient12012" x2="1" gradientTransform="matrix(0 -6.1806 -6.1806 0 70.317 284.75)" gradientUnits="userSpaceOnUse">
   <stop stop-color="#51ade5" offset="0"/>
   <stop stop-color="#51ade5" offset=".35"/>
   <stop stop-color="#3972c2" offset=".88371"/>
   <stop stop-color="#3972c2" offset="1"/>
  </linearGradient>
  <clipPath id="clipPath11986">
   <path d="m0 0h612v792h-612z"/>
  </clipPath>
  <linearGradient id="linearGradient11976" x2="1" gradientTransform="matrix(0 -5.0449 -5.0449 0 67.397 283.61)" gradientUnits="userSpaceOnUse">
   <stop stop-color="#51ade5" offset="0"/>
   <stop stop-color="#51ade5" offset=".35"/>
   <stop stop-color="#3972c2" offset=".88371"/>
   <stop stop-color="#3972c2" offset="1"/>
  </linearGradient>
  <clipPath id="clipPath11950">
   <path d="m0 0h612v792h-612z"/>
  </clipPath>
  <linearGradient id="linearGradient11940" x2="1" gradientTransform="matrix(0 -3.9121 -3.9121 0 64.47 282.48)" gradientUnits="userSpaceOnUse">
   <stop stop-color="#51ade5" offset="0"/>
   <stop stop-color="#51ade5" offset=".35"/>
   <stop stop-color="#3972c2" offset=".88371"/>
   <stop stop-color="#3972c2" offset="1"/>
  </linearGradient>
 </defs>
 <g transform="translate(-57.043 171.94)">
  <g transform="matrix(8.68 0 0 -8.68 161.23 -161.96)">
   <path d="m0 0 2e-3 0.017c0 0.628-0.506 1.133-1.133 1.133-0.626 0-1.134-0.505-1.134-1.133v-5.045c0-0.627 0.508-1.133 1.134-1.133 0.627 0 1.133 0.506 1.133 1.133l-2e-3 0.014v5.014" fill="#244587"/>
  </g>
  <g transform="matrix(8.68 0 0 -8.68 -408.19 2322.7)">
   <path d="m63.337 281.34v-1.638c0-0.628 0.507-1.139 1.134-1.139 0.626 0 1.132 0.511 1.132 1.139v1.638c0 0.628-0.506 1.136-1.132 1.136-0.627 0-1.134-0.508-1.134-1.136" fill="url(#linearGradient11940)"/>
  </g>
  <g transform="matrix(8.68 0 0 -8.68 -408.19 2322.7)">
   <g clip-path="url(#clipPath11950)">
    <g transform="translate(68.526 285.12)">
     <path d="m0 0 4e-3 0.016c0 0.628-0.508 1.137-1.137 1.137-0.626 0-1.13-0.509-1.13-1.137v-3.911c0-0.627 0.504-1.133 1.13-1.133 0.629 0 1.137 0.506 1.137 1.133l-4e-3 0.014v3.881" fill="#244587"/>
    </g>
   </g>
  </g>
  <g transform="matrix(8.68 0 0 -8.68 -408.19 2322.7)">
   <path d="m66.263 282.48v-2.774c0-0.628 0.504-1.139 1.13-1.139 0.615 0 1.114 0.487 1.137 1.096v2.86c-0.023 0.609-0.522 1.09-1.137 1.09-0.626 0-1.13-0.504-1.13-1.133" fill="url(#linearGradient11976)"/>
  </g>
  <g transform="matrix(8.68 0 0 -8.68 -408.19 2322.7)">
   <g clip-path="url(#clipPath11986)">
    <g transform="translate(71.451 284.78)">
     <path d="m0 0v0.016c0 0.628-0.504 1.135-1.13 1.135-0.625 0-1.137-0.507-1.137-1.135l3e-3 -0.016v-3.542l-3e-3 -0.015c0-0.627 0.512-1.132 1.137-1.132 0.626 0 1.13 0.505 1.13 1.132v3.557" fill="#244587"/>
    </g>
   </g>
  </g>
  <g transform="matrix(8.68 0 0 -8.68 -408.19 2322.7)">
   <path d="m70.278 284.75c-0.605-0.023-1.094-0.522-1.094-1.136v-3.907c0-0.628 0.512-1.139 1.137-1.139 0.626 0 1.13 0.511 1.13 1.139v3.907c0 0.614-0.481 1.113-1.087 1.136z" fill="url(#linearGradient12012)"/>
  </g>
  <g transform="matrix(8.68 0 0 -8.68 -408.19 2322.7)">
   <g clip-path="url(#clipPath12022)">
    <g transform="translate(74.382 285.81)">
     <path d="m0 0v0.012c0 0.628-0.51 1.134-1.14 1.134-0.623 0-1.131-0.506-1.131-1.134v-4.592c0-0.627 0.508-1.133 1.131-1.133 0.63 0 1.14 0.506 1.14 1.133v4.58" fill="#244587"/>
    </g>
   </g>
  </g>
  <g transform="matrix(8.68 0 0 -8.68 -408.19 2322.7)">
   <path d="m72.111 284.75v-5.043c0-0.628 0.508-1.139 1.131-1.139 0.63 0 1.139 0.511 1.139 1.139v5.043c0 0.624-0.509 1.134-1.139 1.134-0.623 0-1.131-0.51-1.131-1.134" fill="url(#linearGradient12048)"/>
  </g>
  <g transform="matrix(8.68 0 0 -8.68 -408.19 2322.7)">
   <g clip-path="url(#clipPath12058)">
    <g transform="translate(77.304 285.12)">
     <path d="m0 0v0.016c0 0.628-0.506 1.137-1.134 1.137-0.624 0-1.132-0.509-1.132-1.137v-3.911c0-0.627 0.508-1.133 1.132-1.133 0.628 0 1.134 0.506 1.134 1.133v3.895" fill="#244587"/>
    </g>
   </g>
  </g>
  <g transform="matrix(8.68 0 0 -8.68 -408.19 2322.7)">
   <path d="m76.128 284.75c-0.605-0.023-1.09-0.522-1.09-1.136v-3.907c0-0.628 0.508-1.139 1.133-1.139 0.613 0 1.111 0.487 1.134 1.096v3.993c-0.022 0.595-0.497 1.07-1.091 1.093z" fill="url(#linearGradient12084)"/>
  </g>
  <g transform="matrix(8.68 0 0 -8.68 125.55 -70.288)" fill="#fff">
   <path d="m0 0c0-0.19 0-0.536 0.069-0.704 0.095-0.237 0.373-0.233 0.584-0.233 0.542 0 0.791 0.325 0.791 0.851 0 0.319-0.114 0.584-0.4 0.739-0.256 0.135-0.584 0.118-0.87 0.118h-0.174zm0 0.923h0.182c0.246 0 0.446-0.014 0.663 0.119 0.231 0.146 0.283 0.387 0.283 0.654 0 0.492-0.271 0.739-0.764 0.739l-0.327-0.029-0.037-0.234zm-0.571 0.618c0 0.177 0 0.588-0.049 0.739-0.062 0.193-0.291 0.189-0.473 0.189v0.126c0.266-6e-3 0.528-0.016 0.796-0.02 0.225 4e-3 0.439 0.014 0.661 0.02 0.585 0.016 1.365-0.132 1.365-0.873 0-0.506-0.407-0.723-0.831-0.851v-0.011c0.31-0.025 0.596-0.077 0.811-0.229 0.262-0.177 0.43-0.443 0.43-0.766 0-0.368-0.23-0.638-0.54-0.806-0.303-0.158-0.701-0.144-1.024-0.144-0.246 7e-3 -0.483 0.017-0.728 0.023-0.312-6e-3 -0.629-0.016-0.94-0.023v0.129c0.182 0 0.411-8e-3 0.473 0.186 0.049 0.152 0.049 0.563 0.049 0.742v1.569" fill="#fff"/>
  </g>
  <g transform="matrix(8.68 0 0 -8.68 149.8 -68.584)" fill="#fff">
   <path d="m0 0c0-0.329 0.028-0.771 0.462-0.771 0.44 0 0.764 0.392 0.764 0.824v0.743c0 0.422 0.031 0.551-0.422 0.616v0.112c0.154-0.011 0.303-0.017 0.459-0.028 0.145 0.011 0.295 0.017 0.435 0.028v-1.791c0-0.149 0-0.374 0.207-0.374l0.207 0.017v-0.127l-0.769-0.198-0.117 0.519c-0.199-0.305-0.559-0.519-0.929-0.519-0.562 0-0.77 0.303-0.77 0.792v0.953c0 0.422 0.034 0.551-0.422 0.616v0.107c0.156-6e-3 0.307-0.017 0.463-0.023 0.145 6e-3 0.296 0.017 0.432 0.023v-1.519" fill="#fff"/>
  </g>
  <g transform="matrix(8.68 0 0 -8.68 169.42 -60.675)" fill="#fff">
   <path d="m0 0h-0.052l-0.026 0.794h0.11c0.088-0.353 0.28-0.708 0.691-0.708 0.243 0 0.467 0.123 0.467 0.392 0 0.316-0.321 0.444-0.564 0.568-0.317 0.166-0.665 0.349-0.665 0.764 0 0.385 0.305 0.67 0.689 0.67 0.172 0 0.381-0.05 0.54-0.138l0.109 0.133h0.07l-0.013-0.697h-0.112c-0.097 0.282-0.223 0.577-0.571 0.577-0.184 0-0.357-0.109-0.357-0.31 0-0.288 0.308-0.389 0.519-0.506 0.383-0.198 0.732-0.344 0.732-0.845 0-0.454-0.388-0.732-0.816-0.732-0.211 0-0.442 0.067-0.612 0.198l-0.139-0.16" fill="#fff"/>
  </g>
  <g transform="matrix(8.68 0 0 -8.68 186.39 -90.793)" fill="#fff">
   <path d="m0 0c0 0.166 0.129 0.299 0.297 0.299s0.295-0.133 0.295-0.299c0-0.161-0.127-0.295-0.284-0.295-0.168 0-0.308 0.12-0.308 0.295m0.596-0.989v-1.786c0.012-0.367-0.049-0.535 0.391-0.564v-0.108c-0.19 6e-3 -0.395 0.016-0.595 0.022-0.217-6e-3 -0.432-0.016-0.65-0.022v0.108c0.409 0.029 0.379 0.16 0.379 0.53v0.795c0 0.106 0 0.534-0.018 0.618-0.039 0.137-0.273 0.125-0.385 0.122v0.111l0.878 0.174" fill="#fff"/>
  </g>
  <g transform="matrix(8.68 0 0 -8.68 216.53 -66.702)" fill="#fff">
   <path d="m0 0c0-0.366-0.039-0.534 0.389-0.563v-0.109c-0.199 7e-3 -0.406 0.017-0.606 0.023-0.218-6e-3 -0.427-0.016-0.644-0.023v0.109c0.417 0.029 0.386 0.16 0.386 0.53v0.71c0 0.385 0.019 0.931-0.509 0.931-0.434 0-0.713-0.339-0.713-0.745v-0.863c0-0.366-0.051-0.534 0.389-0.563v-0.109c-0.198 7e-3 -0.407 0.017-0.602 0.023-0.219-6e-3 -0.43-0.016-0.649-0.023v0.109c0.416 0.029 0.391 0.16 0.391 0.53v0.683c0 0.154 0 0.546-0.028 0.672-0.045 0.202-0.195 0.179-0.376 0.179v0.111c0.296 0.035 0.499 0.123 0.771 0.174l0.077-0.509c0.199 0.346 0.5 0.509 0.897 0.509 0.528 0 0.827-0.239 0.827-0.769v-1.017" fill="#fff"/>
  </g>
  <g transform="matrix(8.68 0 0 -8.68 231.13 -75.187)" fill="#fff">
   <path d="m0 0c0.09 0 0.271-0.026 0.271 0.112 0 0.345-0.189 0.571-0.538 0.571-0.417 0-0.583-0.32-0.652-0.683zm0.727-1.239c-0.264-0.322-0.576-0.471-0.994-0.471-0.689 0-1.256 0.482-1.256 1.194 0 0.697 0.526 1.325 1.251 1.325 0.543 0 1.062-0.305 1.062-0.91l-0.14-0.049h-1.593l-0.025-0.265c0-0.528 0.278-1.117 0.873-1.117 0.285 0 0.534 0.188 0.7 0.409l0.122-0.116" fill="#fff"/>
  </g>
  <g transform="matrix(8.68 0 0 -8.68 239.42 -60.675)" fill="#fff">
   <path d="m0 0h-0.054l-0.024 0.794h0.112c0.09-0.353 0.277-0.708 0.693-0.708 0.243 0 0.464 0.123 0.464 0.392 0 0.316-0.322 0.444-0.561 0.568-0.323 0.166-0.669 0.349-0.669 0.764 0 0.385 0.305 0.67 0.691 0.67 0.17 0 0.385-0.05 0.539-0.138l0.111 0.133h0.063l-5e-3 -0.697h-0.114c-0.097 0.282-0.219 0.577-0.567 0.577-0.188 0-0.363-0.109-0.363-0.31 0-0.288 0.308-0.389 0.519-0.506 0.383-0.198 0.734-0.344 0.734-0.845 0-0.454-0.39-0.732-0.818-0.732-0.211 0-0.444 0.067-0.614 0.198l-0.137-0.16" fill="#fff"/>
  </g>
  <g transform="matrix(8.68 0 0 -8.68 254.39 -60.675)" fill="#fff">
   <path d="m0 0h-0.057l-0.022 0.794h0.11c0.092-0.353 0.281-0.708 0.694-0.708 0.242 0 0.464 0.123 0.464 0.392 0 0.316-0.319 0.444-0.558 0.568-0.323 0.166-0.669 0.349-0.669 0.764 0 0.385 0.305 0.67 0.689 0.67 0.172 0 0.383-0.05 0.538-0.138l0.113 0.133h0.065l-0.01-0.697h-0.114c-0.095 0.282-0.22 0.577-0.571 0.577-0.183 0-0.355-0.109-0.355-0.31 0-0.288 0.306-0.389 0.519-0.506 0.383-0.198 0.734-0.344 0.734-0.845 0-0.454-0.392-0.732-0.818-0.732-0.213 0-0.444 0.067-0.612 0.198l-0.14-0.16" fill="#fff"/>
  </g>
  <g transform="matrix(8.68 0 0 -8.68 125.25 -47.138)" fill="#fff">
   <path d="m0 0c0.19 0 0.304 0.104 0.304 0.258v4e-3c0 0.168-0.121 0.256-0.314 0.256h-0.391v-0.518zm-0.798 0.874h0.822c0.23 0 0.408-0.065 0.523-0.182 0.104-0.1 0.157-0.242 0.157-0.41v-8e-3c0-0.289-0.159-0.47-0.389-0.556l0.441-0.643h-0.465l-0.385 0.577h-0.307v-0.577h-0.397z" fill="#fff"/>
  </g>
  <g transform="matrix(8.68 0 0 -8.68 162.35 -45.646)" fill="#fff">
   <path d="m0 0-0.234 0.583-0.242-0.583zm-0.416 1.06h0.37l0.77-1.813h-0.415l-0.166 0.403h-0.759l-0.164-0.403h-0.406z" fill="#fff"/>
  </g>
  <g transform="matrix(8.68 0 0 -8.68 196.05 -42.205)" fill="#fff">
   <path d="m0 0c0.327 0 0.544 0.221 0.544 0.536v0.012c0 0.313-0.217 0.538-0.544 0.538h-0.306v-1.086zm-0.698 1.442h0.698c0.568 0 0.957-0.386 0.957-0.894 0-0.512-0.389-0.904-0.957-0.904h-0.698z" fill="#fff"/>
  </g>
  <path d="m226.53-54.727h3.4373v15.615h-3.4373z" fill="#fff"/>
  <g transform="matrix(8.68 0 0 -8.68 265.15 -46.858)" fill="#fff">
   <path d="m0 0v0.012c0 0.304-0.227 0.561-0.546 0.561-0.317 0-0.54-0.252-0.54-0.561 0-0.313 0.227-0.572 0.544-0.572 0.321 0 0.542 0.254 0.542 0.56m-1.498 0v0.012c0 0.508 0.401 0.928 0.956 0.928 0.559 0 0.952-0.415 0.952-0.928 0-0.514-0.399-0.934-0.956-0.934-0.555 0-0.952 0.412-0.952 0.922" fill="#fff"/>
  </g>
  <g transform="matrix(8.68 0 0 -8.68 57.043 -92.742)">
   <path d="m0 0v-3.007c0-2.453 2.671-3.689 3.009-3.7 0.342 0.011 3.009 1.247 3.009 3.7v3.007h-6.018" fill="#244587"/>
  </g>
  <g transform="matrix(8.68 0 0 -8.68 105.88 -81.053)">
   <path d="m0 0v-0.131h-1.191l-2e-3 0.133-0.08 0.121 0.08 0.113v0.233c0 0.043-0.08 0.033-0.08 0.127l0.08 0.115v0.096h0.086v0.062h0.073l0.215 0.088 0.184-0.048h0.076l0.191 0.048 0.208-0.088h0.071v-0.062h0.093v-0.096l0.073-0.115c0-0.094-0.073-0.084-0.073-0.127v-0.233l0.073-0.113-0.077-0.123m-1.363 0.255c0.049-0.158 0.013-0.298-0.06-0.403-0.119-0.175-0.34-0.208-0.344-0.208-0.286-0.049-0.479 0.057-0.564 0.099l-0.033 0.018-0.172 0.087c-0.103 0.054-0.235 0.122-0.278 0.136l-0.174 0.033-0.144-0.036-0.129-0.159-9e-3 -9e-3c-0.085-0.062-0.214-0.159-0.355-0.159l-0.166 0.109-0.054 0.014 7e-3 0.211 0.034 0.054-0.073 0.146c0 0.099 0.2 0.575 0.307 0.627l0.027-0.045 0.135 0.141 0.182-0.02 0.016-0.01 0.015 0.024 0.118 0.081c0.099 5e-3 0.134-0.039 0.16-0.067l0.033-0.024 0.059 0.022 0.143 0.015c0.111-0.037 0.125-0.099 0.137-0.144l0.017-0.04 0.084-0.015 0.158-0.057 0.028-0.152 6e-3 -0.075 0.041-0.019 0.11-0.089v-0.144l2e-3 -0.087 0.062-0.081 0.156-0.074 0.204 0.033 0.034 0.084-0.048 0.133-0.186-0.06-0.035-0.055-0.024 0.065c-0.047 0.106-0.049 0.2-2e-3 0.275l0.177 0.116c0 0.148 0.045 0.247 0.131 0.301 0.142 0.092 0.297 0.034 0.297 0.034s-0.168-0.187-0.03-0.626m-2.7-0.255v-0.131h-1.196v0.133l-0.079 0.121 0.075 0.113v0.233c0 0.043-0.075 0.033-0.075 0.127l0.077 0.115v0.096h0.093v0.062h0.067l0.211 0.088 0.188-0.048h0.076l0.189 0.048 0.211-0.088h0.073v-0.062h0.09l2e-3 -0.096 0.078-0.115c0-0.094-0.078-0.084-0.078-0.127v-0.233l0.078-0.113-0.08-0.123m-1.404-0.546h5.695v1.741h-5.695z" fill="#a81933"/>
  </g>
  <g transform="matrix(8.68 0 0 -8.68 58.432 -75.068)">
   <path d="m0 0v-0.977c0-0.527 0.133-0.996 0.341-1.41l2.508 2.387 2.506-2.387c0.206 0.414 0.343 0.885 0.343 1.41v0.977zm4.165-1.707c-0.317 0-0.575-0.245-0.575-0.545 0-0.303 0.258-0.546 0.575-0.546 0.325 0 0.583 0.243 0.583 0.546 0 0.3-0.258 0.545-0.583 0.545m-2.074-0.545c0 0.3-0.26 0.545-0.579 0.545-0.321 0-0.579-0.245-0.579-0.545 0-0.303 0.258-0.546 0.579-0.546 0.319 0 0.579 0.243 0.579 0.546m1.341 1.173c0 0.304-0.262 0.555-0.589 0.555-0.324 0-0.592-0.251-0.592-0.555 0-0.311 0.268-0.559 0.592-0.559 0.327 0 0.589 0.248 0.589 0.559m-2.182-2.472c0.689-0.636 1.439-0.966 1.599-0.97 0.16 4e-3 0.909 0.334 1.596 0.97l-1.596 1.652-1.599-1.652" fill="#fff"/>
  </g>
  <g transform="matrix(8.68 0 0 -8.68 77.548 -81.18)">
   <path d="m0 0-0.041 0.038 0.049 0.058 0.143 0.082-0.074 0.088-0.028 0.037-0.121 0.05-0.111-0.065-0.05 0.06 0.044 0.074-0.071 0.202-0.048 0.039c-0.071-0.033-0.233-0.397-0.233-0.489l0.022-0.038 0.058-0.109-0.058-0.101-0.028-0.045c0-0.038-4e-3 -0.063 0.092-0.063l0.131 0.025 0.127 0.12 0.07-0.029-0.172-0.143-0.149-0.032 0.084-0.054 0.017 4e-3c0.117 0.016 0.22 0.091 0.299 0.148l9e-3 8e-3 0.094 0.079-6e-3 0.045-0.049 0.011" fill="#fff"/>
  </g>
  <g transform="matrix(8.68 0 0 -8.68 75.522 -81.875)">
   <path d="m0 0-0.048-0.057-0.021-4e-3 -0.037 0.023-2e-3 0.054 0.043 0.07 0.095 0.049-0.022-0.066z" fill="#244587"/>
  </g>
  <g transform="matrix(8.68 0 0 -8.68 75.963 -86.681)">
   <path d="m0 0c0.11 0.095 0.414 0.107 0.452 0.103 0.387-0.02 0.539-0.221 0.594-0.287l9e-3 -8e-3 0.013-0.027c0.034-0.047 0.113-0.163 0.197-0.265l0.018 0.052 4e-3 0.087-0.071 0.058-0.075 0.04-0.023 0.133-0.013 0.093-0.094 0.039-0.122 0.017-0.06 0.089-0.088 0.093-0.082-0.011-0.09-0.031-0.093 0.051-0.101 0.041-0.066-0.058-0.09-0.051-0.033 0.025-0.115 0.015-0.06-0.064-0.039-0.052 0.016-0.058 0.012-0.024" fill="#fff"/>
  </g>
  <g transform="matrix(8.68 0 0 -8.68 78.878 -82.689)">
   <path d="m0 0v8e-3l-2e-3 -4e-3z" fill="#fff"/>
  </g>
  <g transform="matrix(8.68 0 0 -8.68 90.5 -78.586)">
   <path d="m0 0h-5e-3z" fill="#fff"/>
  </g>
  <g transform="matrix(8.68 0 0 -8.68 93.425 -83.104)">
   <path d="m0 0c-0.096 0.319-0.034 0.501-8e-3 0.599l-0.161-0.055c-0.058-0.047-0.087-0.136-0.084-0.262v-0.037h-0.035l-0.157-0.09-7e-3 -0.175 0.188 0.062c0.123-0.014 0.131-0.13 0.123-0.204l-0.053-0.139c-0.057-0.05-0.152-0.072-0.258-0.052l-0.2 0.086-0.113 0.115c-0.106 0.115-0.201 0.248-0.24 0.305l-0.014 0.018-8e-3 0.013c-0.051 0.061-0.182 0.238-0.537 0.255-0.123 8e-3 -0.409-0.037-0.417-0.095l0.035-0.144 0.173-0.026 0.107 0.058 0.117-0.012 0.071-0.087 0.129 0.013 0.09-0.087 0.086 0.014 0.095-0.102 0.014-0.031 0.027-1e-3c0.028-3e-3 0.09-7e-3 0.112-0.108l-0.067-0.015-0.054 0.05-0.077 0.038-0.023 0.035-0.044 0.063-0.069-0.027-0.041-0.035-0.015 0.053-0.058 0.084-0.099-0.024-0.049-0.034-0.013 0.058-0.052 0.076-0.055 0.014-0.08-0.048 0.031-0.029 0.069-0.083 0.018-0.063c-5e-3 -0.046-0.034-0.08-0.147-0.128l0.027-5e-3c0.047 0.033 0.163 0.076 0.368 5e-3 0.041-0.012 0.148-0.064 0.289-0.138l0.166-0.086 0.039-0.019c0.082-0.047 0.259-0.14 0.515-0.094h4e-3c5e-3 0 0.194 0.033 0.297 0.178 0.062 0.088 0.088 0.207 0.045 0.343" fill="#fff"/>
  </g>
  <g transform="matrix(8.68 0 0 -8.68 105.92 -83.104)">
   <path d="m0 0v0.232c0 0.043 0.073 0.034 0.073 0.127l-0.073 0.116v0.095h-0.093v-0.762h-0.429l-0.08-0.062-0.076 0.062h-0.433v0.762h-0.086v-0.095l-0.08-0.116c0-0.093 0.08-0.084 0.08-0.127v-0.232l-0.08-0.113 0.08-0.121 2e-3 -0.133h1.191v0.131l0.077 0.123-0.073 0.113m-0.166-0.121v0.691l-0.209 0.09-0.131-0.015-0.057-0.027h-2e-3v-0.666l0.17-0.056 0.229-0.017m-0.646 0.017 0.173 0.056v0.666l-0.184 0.042-0.029-6e-3 -0.186-0.084v-0.691l0.226 0.017m-3.253 0.104v0.232c0 0.043 0.078 0.034 0.078 0.127l-0.078 0.116-2e-3 0.095h-0.09v-0.762h-0.434l-0.076-0.062-0.077 0.062h-0.428v0.762h-0.093v-0.095l-0.077-0.116c0-0.093 0.075-0.084 0.075-0.127v-0.232l-0.075-0.113 0.079-0.121v-0.133h1.196v0.131l0.08 0.123-0.078 0.113m-0.167-0.121v0.691l-0.211 0.09-0.129-0.015-0.056-0.027h-4e-3v-0.666l0.176-0.056 0.224-0.017m-0.644 0.017 0.17 0.056v0.666l-0.184 0.042-0.029-6e-3 -0.185-0.084v-0.691l0.228 0.017" fill="#fff"/>
  </g>
 </g>
</svg>
