<svg width="800" height="232.92" version="1.1" viewBox="0 0 211.67 61.626" xmlns="http://www.w3.org/2000/svg">
 <g transform="translate(-47.209 87.765)">
  <g transform="matrix(6.0805 0 0 -6.0805 78.017 -45.946)">
   <path d="m0 0c1.001 0 1.811 0.81 1.811 1.811 0 1-0.81 1.81-1.811 1.81-1 0-1.811-0.81-1.811-1.81 0-1.001 0.811-1.811 1.811-1.811" fill="#ed1c24"/>
  </g>
  <g transform="matrix(6.0805 0 0 -6.0805 65.302 -45.946)">
   <path d="m0 0c-1 0-1.811 0.81-1.811 1.811 0 1 0.811 1.811 1.811 1.811z" fill="#ed1c24"/>
  </g>
  <g transform="matrix(6.0805 0 0 -6.0805 90.732 -33.797)">
   <path d="M 0,0 0.001,1.718 1.72,1.717 C 1.72,0.767 0.95,0 0,0" fill="#ed1c24"/>
  </g>
  <g transform="matrix(6.0805 0 0 -6.0805 65.302 -80.125)">
   <path d="m0 0v-1.721h-1.722c0 0.951 0.772 1.721 1.722 1.721" fill="#ed1c24"/>
  </g>
  <g transform="matrix(6.0805 0 0 -6.0805 65.302 -33.788)">
   <path d="m0 0v1.72l-1.721-1e-3c0-0.95 0.77-1.719 1.721-1.719" fill="#ed1c24"/>
  </g>
  <g transform="matrix(6.0805 0 0 -6.0805 103.46 -47.493)">
   <path d="m0 0-2e-3 3.112c0.531-0.316 0.886-0.894 0.886-1.556s-0.355-1.24-0.884-1.556" fill="#ed1c24"/>
  </g>
  <g transform="matrix(6.0805 0 0 -6.0805 68.555 -82.39)">
   <path d="m0 0h3.112c-0.315 0.53-0.893 0.884-1.556 0.884-0.661 0-1.24-0.354-1.556-0.884" fill="#ed1c24"/>
  </g>
  <g transform="matrix(6.0805 0 0 -6.0805 87.34 -31.52)">
   <path d="m0 0h-3.112c0.315-0.529 0.894-0.885 1.556-0.885 0.661 0 1.24 0.355 1.556 0.885" fill="#ed1c24"/>
  </g>
  <g transform="matrix(6.0805 0 0 -6.0805 89.026 -44.24)">
   <path d="m0 0c0-1.001-0.809-1.811-1.81-1.811-1 0-1.812 0.81-1.812 1.811z" fill="#ed1c24"/>
  </g>
  <g transform="matrix(6.0805 0 0 -6.0805 90.739 -45.946)">
   <path d="m0 0c1 0 1.811 0.81 1.811 1.811 0 1-0.811 1.811-1.811 1.811z" fill="#ed1c24"/>
  </g>
  <g transform="matrix(6.0805 0 0 -6.0805 89.026 -69.652)">
   <path d="m0 0c0 1-0.809 1.811-1.81 1.811-1 0-1.812-0.811-1.812-1.811z" fill="#ed1c24"/>
  </g>
  <g transform="matrix(6.0805 0 0 -6.0805 52.584 -47.493)">
   <path d="m0 0v3.112c-0.53-0.316-0.884-0.894-0.884-1.556s0.354-1.24 0.884-1.556" fill="#ed1c24"/>
  </g>
  <g transform="matrix(6.0805 0 0 -6.0805 101.19 -69.658)">
   <path d="M 0,0 -1.719,0.001 -1.72,1.72 C -0.77,1.72 0,0.95 0,0" fill="#ed1c24"/>
  </g>
  <g transform="matrix(6.0805 0 0 -6.0805 118.84 -56.464)">
   <path d="m0 0c0 1.398 0.879 2.215 2.197 2.215 0.598 0 0.964-0.122 1.282-0.305v-0.812h-0.452c-0.159 0.147-0.415 0.281-0.799 0.281-0.647 0-1.032-0.433-1.032-1.336 0-0.977 0.336-1.392 0.977-1.392 0.457 0 0.72 0.171 0.927 0.373h0.415v-0.776c-0.323-0.237-0.781-0.414-1.416-0.414-1.281 0-2.099 0.781-2.099 2.166" fill="#231f20"/>
  </g>
  <g transform="matrix(6.0805 0 0 -6.0805 156.2 -53.235)">
   <path d="m0 0c0 0.641-0.244 0.934-0.598 0.934-0.36 0-0.604-0.293-0.604-0.934 0-0.635 0.244-0.909 0.604-0.909 0.354 0 0.598 0.274 0.598 0.909m-2.313 0.012c0 1.032 0.745 1.672 1.715 1.672 0.964 0 1.709-0.64 1.709-1.672 0-1.025-0.745-1.642-1.709-1.642-0.97 0-1.715 0.617-1.715 1.642" fill="#231f20"/>
  </g>
  <g transform="matrix(6.0805 0 0 -6.0805 177.76 -48.857)">
   <path d="m0 0v2.356h1.092v-3.217h-0.762c-0.171 0-0.263 0.049-0.306 0.36-0.292-0.225-0.665-0.408-1.098-0.408-0.531 0-0.94 0.219-0.94 0.921v2.344h1.099v-2.094c0-0.305 0.152-0.366 0.415-0.366 0.17 0 0.354 0.055 0.5 0.104" fill="#231f20"/>
  </g>
  <g transform="matrix(6.0805 0 0 -6.0805 194.64 -60.805)">
   <path d="m0 0c0.287 0.238 0.69 0.439 1.16 0.439 0.482 0 0.872-0.195 0.872-0.909v-2.356h-1.098v2.069c0 0.281-0.116 0.354-0.379 0.354-0.201 0-0.378-0.055-0.531-0.104v-2.319h-1.098v3.217h0.763c0.171 0 0.268-0.067 0.311-0.391" fill="#231f20"/>
  </g>
  <g transform="matrix(6.0805 0 0 -6.0805 209.12 -63.18)">
   <path d="m0 0h0.348v0.818h1.098v-0.818h0.599v-0.708h-0.599v-1.465c0-0.286 0.11-0.378 0.397-0.378h0.214v-0.635c-0.147-0.042-0.354-0.085-0.629-0.085-0.659 0-1.08 0.232-1.08 0.934v1.629h-0.348z" fill="#231f20"/>
  </g>
  <g transform="matrix(6.0805 0 0 -6.0805 230.79 -56.909)">
   <path d="m0 0v-2.185h-1.098v3.216h0.762c0.171 0 0.275-0.073 0.311-0.439 0.214 0.268 0.495 0.464 0.885 0.464l0.196-0.025v-0.878h-0.147c-0.415 0-0.732-0.08-0.909-0.153" fill="#231f20"/>
  </g>
  <g transform="matrix(6.0805 0 0 -6.0805 243.33 -39.134)">
   <path d="m0 0 0.421 0.891-1.159 2.813v0.251h1.043l0.671-1.825h0.019l0.622 1.825h0.94v-0.251l-1.562-3.954h-0.995z" fill="#231f20"/>
  </g>
 </g>
</svg>
