<svg width="800" height="364.26" version="1.1" viewBox="0 0 211.67 96.376" xmlns="http://www.w3.org/2000/svg">
 <g transform="translate(126.61 126.46)">
  <g transform="matrix(6.309 0 0 -6.309 9.3085 -120.52)">
   <path d="m0 0c-0.925 0.096-1.534 0.242-2.307 0.859-0.221 0.176-0.476 0.06-0.591-0.263-0.082-0.234-0.332-0.44-0.609-0.497-1.545-0.329-8.313-2.427-9.06-2.57-0.686-0.125-1.007 0.049-0.842 0.475 0.119 0.289 0.45 0.767 1.439 1.103 0.553 0.182 0.529 0.856 0.119 0.936-0.32 0.062-0.919-0.127-1.363-0.469-0.843-0.641-1.987-1.538-2.771-1.575-0.612-0.019-0.443 0.519-1.413 0.423-1.248-0.129-2.187-1.033-2.933-2.051-0.75-1.024-1.205-2.557-1.213-3.876-9e-3 -1.321 0.56-2.141 1.919-1.523 1.562 0.712 1.524 1.491 2.41 1.86 0.885 0.365 1.194 0.084 2.364 0.449 1.163 0.365 0.769 0.969 0.3 1.004-0.378 0.035-0.687 0.354-0.064 0.901 1.089 0.951 10.416 3.542 11.067 3.667 0.653 0.127 1.027 0.036 0.981-0.248-0.095-0.637 0.729 0.016 1.111 0.235 0.255 0.144 0.362 0.267 0.563 0.23 0.206-0.037 0.1-0.438 0.432-0.523 0.239-0.061 0.609 0.017 0.847 0.467 0.243 0.452 0.171 0.927-0.386 0.986" fill="#48260f"/>
  </g>
  <g transform="matrix(1.0305 0 0 1.0305 3.8639 .91799)" fill="#fff">
   <g transform="matrix(6.1221 0 0 -6.1221 -39.045 -87.697)">
    <path d="m0 0-1.24-0.16c0.206 0.619 0.049 1.082-0.325 1.035-0.567-0.072-1.075-1.092-1.075-1.883 0-0.4 0.201-0.614 0.506-0.574 0.348 0.049 0.621 0.465 0.743 0.859l1.183 0.153c-0.328-1.159-1.196-1.842-2.273-1.983-1.14-0.146-1.757 0.597-1.757 1.428 0 1.242 1.037 2.68 2.466 2.86 0.486 0.064 0.937-0.122 1.044-0.409l0.162 0.465 1.245 0.158z" fill="#fff"/>
   </g>
   <g transform="matrix(6.1221 0 0 -6.1221 -27.198 -81.599)">
    <path d="m0 0c-0.042-0.121-0.081-0.254-0.081-0.321l0.057-0.068c0.113 0.014 0.184 0.077 0.301 0.435l0.47 0.059c-0.173-0.679-0.542-1.028-1.268-1.123-0.503-0.064-0.804 0.18-0.804 0.577 0 0.144 0.024 0.231 0.067 0.365l0.849 2.442-0.586-0.073 0.249 0.711 1.88 0.247z" fill="#fff"/>
   </g>
   <g transform="matrix(6.1221 0 0 -6.1221 -8.3897 -92.079)">
    <path d="m0 0c-0.217-0.026-0.621-1.122-0.621-1.446 0-0.12 0.068-0.157 0.158-0.146 0.098 0.016 0.206 0.146 0.318 0.507l0.328 0.939c-7e-3 0.118-0.089 0.163-0.183 0.146m0.636-2.187c-0.55-0.07-0.734 0.289-0.737 0.602-0.261-0.468-0.595-0.772-0.993-0.823-0.483-0.062-0.78 0.167-0.78 0.842 0 0.909 0.775 2.093 1.512 2.185 0.402 0.048 0.616-0.091 0.659-0.433l0.165 0.479 1.287 0.166-0.694-2.015c-0.067-0.196-0.117-0.401-0.015-0.39 0.106 0.016 0.184 0.079 0.295 0.434l0.475 0.065c-0.167-0.653-0.543-1.026-1.174-1.112" fill="#fff"/>
   </g>
   <g transform="matrix(6.1221 0 0 -6.1221 19.579 -92.659)">
    <path d="m0 0c-0.246-0.032-0.46 0.088-0.46 0.338 0 0.112 0.014 0.154 0.033 0.191 0.02 0.053-0.074 0.096-0.222 0.078-0.204-0.027-0.287-0.115-0.287-0.309 0-0.319 1.08-0.36 1.08-1.087 0-0.625-0.551-1.041-1.496-1.166-0.738-0.09-1.166 0.08-1.166 0.518 0 0.257 0.197 0.489 0.44 0.514 0.274 0.042 0.469-0.141 0.469-0.355l-0.021-0.165c-0.038-0.098 0.116-0.108 0.224-0.09 0.136 0.019 0.263 0.107 0.263 0.293 0 0.34-1.024 0.353-1.024 1.075 0 0.495 0.48 1.106 1.411 1.22 0.67 0.086 1.159-0.112 1.159-0.557 0-0.259-0.189-0.473-0.403-0.498" fill="#fff"/>
   </g>
   <g transform="matrix(6.1221 0 0 -6.1221 39.361 -95.194)">
    <path d="m0 0c-0.252-0.031-0.463 0.091-0.463 0.338 0 0.111 0.017 0.157 0.03 0.189 0.025 0.055-0.072 0.098-0.22 0.077-0.202-0.03-0.289-0.109-0.289-0.307 0-0.319 1.08-0.361 1.08-1.086 0-0.629-0.546-1.039-1.496-1.164-0.738-0.095-1.163 0.079-1.163 0.512 0 0.259 0.192 0.492 0.436 0.521 0.279 0.035 0.467-0.148 0.467-0.359l-0.014-0.166c-0.038-0.095 0.111-0.104 0.222-0.09 0.132 0.017 0.262 0.107 0.262 0.295 0 0.34-1.019 0.353-1.019 1.073 0 0.497 0.478 1.105 1.407 1.221 0.669 0.087 1.16-0.113 1.16-0.559 0-0.256-0.195-0.47-0.4-0.495" fill="#fff"/>
   </g>
   <g transform="matrix(6.1221 0 0 -6.1221 55.208 -105.5)">
    <path d="m0 0c-0.322-0.041-0.579 0.184-0.579 0.494 0 0.323 0.257 0.615 0.579 0.659 0.317 0.038 0.572-0.189 0.572-0.508 0-0.312-0.255-0.609-0.572-0.645m-0.75-3.224c-0.439-0.059-0.761 0.129-0.761 0.591 0 0.18 0.048 0.393 0.161 0.651l0.186 0.444c0.053 0.122 0.106 0.256 0.106 0.33l-0.048 0.06c-0.118-0.017-0.192-0.075-0.342-0.442l-0.47-0.058 0.098 0.248c0.298 0.679 0.746 1.06 1.303 1.132 0.373 0.046 0.655-0.154 0.655-0.587 0-0.188-0.052-0.413-0.17-0.689l-0.252-0.586c-0.091-0.212-0.127-0.331-0.127-0.407l0.087-0.07c0.112 0.011 0.167 0.065 0.286 0.425l0.474 0.061c-0.172-0.678-0.548-1.024-1.186-1.103" fill="#fff"/>
   </g>
   <g transform="matrix(6.1221 0 0 -6.1221 75.799 -98.692)">
    <path d="m0 0c-0.271-0.034-0.446 0.124-0.446 0.298 0 0.213 0.103 0.223 0.103 0.33 0 0.103-0.07 0.143-0.172 0.127-0.4-0.049-0.772-1.049-0.772-1.574 0-0.272 0.109-0.393 0.438-0.353 0.331 0.044 0.676 0.37 0.76 0.724l0.467 0.027c-0.107-0.625-0.649-1.199-1.506-1.309-0.904-0.113-1.391 0.366-1.391 0.992 0 0.779 0.623 1.842 1.825 1.995 0.71 0.09 1.182-0.233 1.182-0.678 0-0.31-0.184-0.545-0.488-0.579" fill="#fff"/>
   </g>
  </g>
  <g transform="matrix(1.0305 0 0 1.0305 3.8639 .91799)">
   <g transform="matrix(6.1221 0 0 -6.1221 -56.326 -59.16)">
    <path d="m0 0-1.792-2.972h-2.838l-1.617 2.972h-0.645v1.184h4.181v-1.184h-0.701l0.858-1.702 0.972 1.702h-0.704v1.184h2.93v-1.184z" fill="#ed1c24"/>
   </g>
   <path d="m-46.038-74.517h12.673v6.2078h-12.673zm-7.9464 33.549v-7.2241h4.3038v-10.971h-4.3038v-7.2425h20.619v18.213h4.31v7.2241z" fill="#ed1c24"/>
   <g transform="matrix(6.1221 0 0 -6.1221 -5.2865 -40.967)">
    <path d="m0 0v1.18h0.315v1.168c0 0.362-0.027 0.687-0.315 0.687-0.274 0-0.548-0.26-0.727-0.783v-1.072h0.306v-1.18h-3.67v1.18h0.693v1.792h-0.693v1.183h3.364v-0.895c0.362 0.504 1.096 0.98 2.08 0.98 0.937 0 1.626-0.586 1.626-1.367v-1.693h0.705v-1.18z" fill="#ed1c24"/>
   </g>
   <g transform="matrix(6.1221 0 0 -6.1221 52.045 -59.16)">
    <path d="m0 0-1.943-3.041c-0.718-1.168-1.375-1.709-2.789-1.709-1.328 0-1.801 0.464-1.801 0.927 0 0.394 0.313 0.664 0.92 0.664 0.903 0 0.82-0.792 1.344-0.792 0.271 0 0.498 0.165 0.498 0.511 0 0.231-0.104 0.556-0.388 0.957l-1.616 2.483h-0.643v1.184h3.862v-1.184h-0.546l0.726-1.376 0.802 1.376h-0.56v1.184h2.901v-1.184z" fill="#ed1c24"/>
   </g>
   <g transform="matrix(6.1221 0 0 -6.1221 51.863 -40.967)">
    <path d="m0 0v1.18h0.705v3.538h-0.705v1.178h3.364v-4.716h0.71v-1.18z" fill="#ed1c24"/>
   </g>
  </g>
 </g>
</svg>
