<svg width="600pt" height="209.48pt" version="1.1" viewBox="0 0 600 209.48" xmlns="http://www.w3.org/2000/svg">
 <g transform="matrix(1.0129 0 0 1.0129 28.43 365.19)">
  <g transform="matrix(6.684 0 0 -6.684 62.035 -360.42)">
   <path d="m0 0c-5.786 0-10.829-3.179-13.479-7.886l3.238-1.821c2.013 3.576 5.844 5.993 10.241 5.993 6.486 0 11.744-5.258 11.744-11.744s-5.258-11.744-11.744-11.744c-4.39 0-8.217 2.41-10.232 5.978l-3.239-1.821c2.652-4.699 7.691-7.871 13.471-7.871 8.537 0 15.458 6.921 15.458 15.458s-6.921 15.458-15.458 15.458" fill="#fabf17"/>
  </g>
  <g transform="matrix(6.684 0 0 -6.684 86.22 -243.43)">
   <path d="m0 0c-0.714-1.26-2.067-2.111-3.618-2.111-2.295 0-4.156 1.861-4.156 4.156s1.861 4.156 4.156 4.156c1.558 0 2.915-0.857 3.627-2.126l3.234 1.82c-1.347 2.397-3.915 4.017-6.861 4.017-4.345 0-7.867-3.522-7.867-7.867s3.522-7.867 7.867-7.867c2.94 0 5.503 1.613 6.853 4.002z" fill="#fabf17"/>
  </g>
  <g transform="matrix(6.684 0 0 -6.684 62.079 -360.55)">
   <path d="m0 0c-5.789 0-10.836-3.182-13.487-7.893l3.24-1.822c2.014 3.579 5.848 5.998 10.247 5.998 6.49 0 11.751-5.263 11.751-11.754 0-6.492-5.261-11.754-11.751-11.754-4.393 0-8.222 2.412-10.238 5.983l-3.24-1.823c2.653-4.702 7.695-7.877 13.478-7.877 8.542 0 15.467 6.926 15.467 15.471 0 8.544-6.925 15.471-15.467 15.471" fill="#fabf17"/>
  </g>
  <g transform="matrix(6.684 0 0 -6.684 86.279 -243.46)">
   <path d="m0 0c-0.714-1.261-2.068-2.112-3.62-2.112-2.297 0-4.159 1.862-4.159 4.159s1.862 4.159 4.159 4.159c1.559 0 2.916-0.858 3.628-2.127l3.237 1.821c-1.348 2.399-3.918 4.021-6.865 4.021-4.348 0-7.872-3.525-7.872-7.874 0-4.348 3.524-7.874 7.872-7.874 2.941 0 5.506 1.615 6.857 4.006z" fill="#fabf17"/>
  </g>
 </g>
 <g transform="matrix(.45716 0 0 .45716 146.1 177.6)">
  <g transform="matrix(6.684 0 0 -6.684 207.28 -328.03)">
   <path d="m0 0c-0.384-0.448-0.607-1.231-0.607-2.765v-1.343c0-1.519 0.223-2.302 0.607-2.734 0.304-0.351 0.703-0.495 1.183-0.495 0.703 0 1.279 0.287 1.694 1.183l2.11-0.912c-0.703-1.71-2.046-2.509-3.804-2.509-1.071 0-1.902 0.287-2.558 0.815-1.071 0.847-1.63 2.35-1.63 4.636v1.454c0 2.222 0.559 3.693 1.63 4.556 0.656 0.512 1.487 0.848 2.558 0.848 1.726 0 3.101-0.784 3.804-2.59l-2.11-0.911c-0.383 0.991-1.039 1.263-1.694 1.263-0.496 0-0.879-0.16-1.183-0.496"/>
  </g>
  <g transform="matrix(6.684 0 0 -6.684 267.69 -328.03)">
   <path d="m0 0c-0.384-0.448-0.608-1.231-0.608-2.765v-1.343c0-1.519 0.224-2.302 0.608-2.734 0.304-0.351 0.703-0.495 1.183-0.495 0.479 0 0.879 0.144 1.183 0.495 0.383 0.432 0.607 1.215 0.607 2.734v1.343c0 1.534-0.224 2.317-0.607 2.765-0.304 0.336-0.688 0.496-1.183 0.496-0.496 0-0.879-0.16-1.183-0.496m-1.375-8.76c-1.071 0.847-1.63 2.35-1.63 4.636v1.454c0 2.222 0.559 3.693 1.63 4.556 0.656 0.512 1.487 0.832 2.558 0.848 1.071-0.016 1.902-0.336 2.558-0.848 1.071-0.863 1.63-2.334 1.63-4.556v-1.518c0-2.222-0.559-3.725-1.63-4.572-0.656-0.528-1.487-0.815-2.558-0.815s-1.902 0.287-2.558 0.815"/>
  </g>
  <g transform="matrix(6.684 0 0 -6.684 344.01 -265.1)">
   <path d="m0 0-1.806 6.57-0.736-6.57h-2.222l1.391 11.989h2.254l2.062-7.577 2.062 7.577h2.238l1.407-11.989h-2.222l-0.751 6.57-1.791-6.57z"/>
  </g>
  <g transform="matrix(6.684 0 0 -6.684 400.87 -345.24)">
   <path d="m0 0h6.365v-2.238h-3.967v-2.542h3.439v-2.238h-3.439v-2.733h3.967v-2.238h-6.365z"/>
  </g>
  <g transform="matrix(6.684 0 0 -6.684 480.7 -280.06)">
   <path d="m0 0c0.672 0 1.183 0.24 1.519 0.719 0.335 0.496 0.495 1.247 0.495 2.27v1.903c0 0.847-0.16 1.502-0.495 1.95-0.336 0.447-0.847 0.671-1.519 0.671h-1.167v-7.513zm-3.565 9.751h3.837c1.279 0 2.302-0.495 3.021-1.359 0.719-0.847 1.119-2.03 1.119-3.421v-2.142c0-1.518-0.4-2.781-1.119-3.676-0.719-0.879-1.742-1.391-3.021-1.391h-3.837z"/>
  </g>
  <g transform="matrix(6.684 0 0 -6.684 532.62 -303.67)">
   <path d="m0 0-3.357 6.218h2.59l1.966-3.788 1.966 3.788h2.59l-3.357-6.218v-5.771h-2.398z"/>
  </g>
 </g>
 <g transform="matrix(.45716 0 0 .45716 334.23 133.71)">
  <g transform="matrix(6.684 0 0 -6.684 495.75 -216.49)">
   <path d="m0 0-0.847-3.533h2.222l-0.847 3.533c-0.054 0.234-0.11 0.517-0.168 0.847-0.059 0.331-0.094 0.581-0.104 0.752-0.011-0.171-0.04-0.416-0.088-0.736-0.048-0.319-0.104-0.607-0.168-0.863m2.238-7.13-0.367 1.551h-3.214l-0.368-1.551h-2.446l3.438 11.99h1.934l3.469-11.99z"/>
  </g>
  <g transform="matrix(6.684 0 0 -6.684 207.28 -231.9)">
   <path d="m0 0c-0.384-0.447-0.607-1.231-0.607-2.766v-1.342c0-1.519 0.223-2.302 0.607-2.734 0.304-0.351 0.703-0.495 1.183-0.495 0.703 0 1.279 0.287 1.694 1.183l2.11-0.912c-0.703-1.71-2.046-2.509-3.804-2.509-1.071 0-1.902 0.287-2.558 0.815-1.071 0.847-1.63 2.35-1.63 4.636v1.454c0 2.223 0.559 3.693 1.63 4.556 0.656 0.512 1.487 0.848 2.558 0.848 1.726 0 3.101-0.784 3.804-2.59l-2.11-0.911c-0.383 0.991-1.039 1.263-1.694 1.263-0.496 0-0.879-0.16-1.183-0.496"/>
  </g>
  <g transform="matrix(6.684 0 0 -6.684 249.23 -249.1)">
   <path d="m0 0h6.06v-2.238h-3.662v-2.542h3.134v-2.238h-3.134v-2.733h3.662v-2.238h-6.06z"/>
  </g>
  <g transform="matrix(6.684 0 0 -6.684 301.57 -249.1)">
   <path d="m0 0h2.11l3.204-7.018v7.018h2.19v-11.989h-2.11l-3.204 6.922v-6.922h-2.19z"/>
  </g>
  <g transform="matrix(6.684 0 0 -6.684 374.7 -234.14)">
   <path d="m0 0h-2.234v2.238h6.865v-2.238h-2.233v-9.751h-2.398z"/>
  </g>
  <g transform="matrix(6.684 0 0 -6.684 437.7 -209.35)">
   <path d="m0 0c0.895 0 1.551 0.56 1.551 1.87v0.032c0 1.199-0.656 1.807-1.551 1.807h-1.151v-3.709zm-1.151-6.042h-2.398v11.989h3.821c2.11 0 3.676-1.695 3.676-3.965v-0.271c0-1.535-0.703-2.782-1.806-3.453l1.758-4.3h-2.413l-1.551 3.804h-1.087z"/>
  </g>
  <g transform="matrix(6.684 0 0 -6.684 532.62 -249.1)">
   <path d="m0 0h2.398v-9.751h3.483v-2.238h-5.881z"/>
  </g>
 </g>
 <g transform="matrix(1.9758 0 0 1.9758 -95.41 -244.34)">
  <path d="m177.7 199.6v20.053h-10.065v-58.519h17.244q3.8233 0 7.0223 1.4044 3.277 1.3264 5.6178 3.7452 2.4188 2.4188 3.7452 5.8519 1.3264 3.3551 1.3264 7.4904v1.2484q0 5.7739-2.4968 10.143-2.4188 4.2914-6.4761 6.4761l8.8168 22.159h-10.299l-7.8806-20.053zm0-9.4411h6.086q3.8232 0 6.242-2.2627t2.4188-7.6465v-0.23407q0-4.9156-2.4188-7.1783t-6.242-2.2627h-6.086z"/>
  <path d="m237.23 219.65-2.4968-9.6751h-15.917l-2.4968 9.6751h-10.299l16.853-58.519h7.8025l16.931 58.519zm-11.08-38.076-4.9156 19.194h11.08l-4.9936-19.194-0.54618-2.1847z"/>
  <path d="m251.09 219.65v-58.519h17.478q4.6815 0 8.3487 1.7166 3.7452 1.7166 6.32 4.8376 2.4968 3.043 3.8232 7.4904 1.4044 4.3694 1.4044 9.9872v9.6751q0 5.8519-1.4044 10.455-1.3264 4.6035-3.9013 7.7245-2.5748 3.121-6.32 4.9156-3.6672 1.7166-8.2707 1.7166zm10.065-9.4411h6.3981q2.6529 0 4.6815-0.9363 2.0287-0.93631 3.3551-2.8089 1.3264-1.9506 2.0287-4.9936t0.70223-7.2564v-8.7388q0-3.9013-0.70223-6.7102-0.6242-2.8089-2.0287-4.5255-1.3264-1.7946-3.3551-2.7309-2.0287-0.93631-4.6815-0.93631h-6.3981z"/>
  <path d="m295.5 219.65v-58.519h10.143v58.519z"/>
  <path d="m332.3 220.43q-3.8232 0-6.9442-1.0924t-5.5398-3.121q-3.5111-2.965-5.3838-8.1927-1.8726-5.2277-1.8726-12.874v-9.5971q0-7.4904 1.8726-12.64 1.8726-5.2277 5.3838-8.2707 2.4188-1.9506 5.5398-3.043 3.121-1.1704 6.9442-1.2484 3.8232 0.078 6.8662 1.2484 3.121 1.0924 5.5398 3.043 3.5111 3.043 5.3838 8.2707 1.8726 5.1497 1.8726 12.64v9.8312q0 7.4904-1.8726 12.718-1.8726 5.1497-5.3838 8.1146-2.4188 2.0287-5.5398 3.121-3.043 1.0924-6.8662 1.0924zm0-50.638q-1.9506 0-3.5111 0.6242t-2.8089 1.8726q-1.5605 1.7166-2.4188 4.9936t-0.85828 8.7388v8.8949q0 5.3837 0.85828 8.6608 0.85828 3.199 2.4188 4.9156 1.2484 1.2484 2.8089 1.8726t3.5111 0.6242q1.8726 0 3.4331-0.6242t2.8089-1.8726q1.5605-1.7166 2.4188-4.9156 0.85827-3.2771 0.85827-8.6608v-8.8949q0-5.4618-0.85827-8.7388-0.85828-3.2771-2.4188-4.9936-1.2484-1.2484-2.8089-1.8726-1.4825-0.6242-3.4331-0.6242z"/>
 </g>
</svg>
