<svg width="800" height="294" version="1.1" viewBox="0 0 211.67 77.788" xmlns="http://www.w3.org/2000/svg">
 <defs>
  <linearGradient id="linearGradient2491" x2="1" gradientTransform="matrix(1.9153 -2.5006 -2.5006 -1.9153 56.405 179.06)" gradientUnits="userSpaceOnUse">
   <stop stop-color="#231f20" offset="0"/>
   <stop stop-color="#5a5758" offset=".5"/>
   <stop stop-color="#231f20" offset="1"/>
  </linearGradient>
  <linearGradient id="linearGradient2493" x2="1" gradientTransform="matrix(1.9207 -2.5076 -2.5076 -1.9207 50.702 174.18)" gradientUnits="userSpaceOnUse">
   <stop stop-color="#231f20" offset="0"/>
   <stop stop-color="#5a5758" offset=".5"/>
   <stop stop-color="#231f20" offset="1"/>
  </linearGradient>
 </defs>
 <g transform="translate(129.75 104.74)">
  <g transform="matrix(5.6405 0 0 -5.6405 -51.96 -65.859)">
   <g fill="#fff">
    <path transform="translate(23.304 .28219)" d="m0 0c-0.28 0.239-0.625 0.372-1.002 0.372h-1.752c-0.243 0-0.481-0.052-0.707-0.159-0.155 0.1-0.34 0.159-0.533 0.159h-1.147c-0.105 0-0.209-0.013-0.306-0.046-0.1 0.033-0.201 0.046-0.307 0.046h-1.081c-0.254 0-0.483-0.102-0.66-0.266-0.244 0.175-0.533 0.266-0.849 0.266h-0.144l0.094 0.579h0.358c0.345 0 0.671 0.105 0.974 0.313 0.44 0.298 0.583 0.661 0.624 0.909l0.267 1.622c0.067 0.404-0.084 0.814-0.419 1.117-0.277 0.244-0.62 0.374-0.998 0.374h-2.321c-0.254 0-0.484-0.099-0.659-0.265-0.245 0.173-0.532 0.265-0.844 0.265h-1.757c-0.342 0-0.669-0.102-0.974-0.312l-0.089-0.077-9e-3 0.011c-0.277 0.246-0.622 0.378-0.999 0.378h-1.755c-0.141 0-0.281-0.024-0.418-0.056 0.047 0.282-0.035 0.569-0.22 0.79-0.185 0.22-0.458 0.342-0.744 0.342h-1.082c-0.476 0-0.883-0.342-0.96-0.812l-0.044-0.264h-0.36c-0.344 0-0.671-0.102-0.976-0.312-0.439-0.301-0.581-0.666-0.62-0.915l-0.535-3.235c-0.043-0.26 8e-3 -0.512 0.129-0.744l-0.049-0.044c-0.321-0.118-0.563-0.395-0.622-0.753l-0.124-0.758c-0.046-0.286 0.034-0.572 0.218-0.788l-0.302-1.825c-0.069-0.422 0.084-0.832 0.421-1.124 0.278-0.241 0.623-0.372 0.996-0.372h1.752c0.313 0 0.622 0.096 0.895 0.266 0.177-0.168 0.413-0.266 0.659-0.266h0.642l-0.015-0.074c-0.066-0.408 0.089-0.815 0.418-1.106 0.275-0.247 0.624-0.379 1.001-0.379h15.512c0.48 0 0.885 0.344 0.964 0.813l0.128 0.766c0.032 0.201 0 0.403-0.09 0.582 0.19 0.224 0.271 0.449 0.3 0.623l0.274 1.635c0.026 0.173 0.011 0.341-0.035 0.501 0.097 0.123 0.161 0.27 0.189 0.43l0.108 0.668c0.068 0.412-0.082 0.822-0.415 1.125"/>
    <path d="m0 0c0-3.811-3.087-6.897-6.897-6.897-3.806 0-6.894 3.086-6.894 6.897 0 3.808 3.088 6.894 6.894 6.894 3.81 0 6.897-3.086 6.897-6.894"/>
   </g>
  </g>
  <g transform="matrix(5.6405 0 0 -5.6405 31.962 -82.609)">
   <g fill="#231f20">
    <path transform="translate(-11.147 -4.9101)" d="m0 0h-1.083l-0.271-1.618h-0.666l0.367 2.202h1.751l0.124 0.763h-1.748l0.044 0.274h-1.083l-0.046-0.274h-0.348l-0.126-0.763h0.348l-0.432-2.615c-8e-3 -0.049-8e-3 -0.131 0.103-0.227 0.099-0.086 0.215-0.127 0.352-0.127h1.752c0.143 0 0.287 0.047 0.421 0.14 0.127 0.083 0.199 0.177 0.214 0.266z"/>
    <path transform="translate(-8.4062 -4.9101)" d="m0 0h-0.672l0.141 0.851h0.67zm0.979-0.631c-4e-3 0.045-0.018 0.088-0.149 0.096l-2e-3 0.31c0.09 6e-3 0.155 0.034 0.198 0.087l0.048 0.076 0.216 1.322c9e-3 0.051 9e-3 0.133-0.105 0.234-0.097 0.083-0.21 0.127-0.352 0.127h-2.318l-0.664-4.006h1.085l0.266 1.618h0.669l-0.432-2.823c-6e-3 -0.051-3e-3 -0.127 0.108-0.224 0.099-0.085 0.213-0.133 0.35-0.133h15.512l0.129 0.761h-14.944z"/>
    <path transform="translate(-4.8462 -6.5283)" d="m0 0h-0.669l0.139 0.852h0.671zm1.451 3.108c-0.097 0.087-0.213 0.131-0.348 0.131h-1.751c-0.147 0-0.285-0.046-0.426-0.14-0.129-0.088-0.196-0.18-0.212-0.27l-0.101-0.622h1.081l0.042 0.262h0.673l-0.143-0.851h-1.183c-0.146 0-0.286-0.049-0.427-0.138-0.125-0.093-0.195-0.182-0.21-0.27l-0.268-1.623c-9e-3 -0.049-9e-3 -0.131 0.103-0.227 0.101-0.086 0.214-0.127 0.355-0.127h2.319l0.605 3.645c7e-3 0.049 3e-3 0.133-0.109 0.23"/>
    <path transform="translate(.23729 -5.4531)" d="m0 0h-1.08l-0.18-1.075h-0.67l0.41 2.469h0.671l-0.133-0.808h1.082l0.203 1.217c0.01 0.049 7e-3 0.133-0.108 0.234-0.095 0.083-0.21 0.127-0.351 0.127h-1.751c-0.146 0-0.281-0.046-0.424-0.141-0.124-0.087-0.196-0.179-0.212-0.269l-0.535-3.242c-0.01-0.049-8e-3 -0.131 0.102-0.223 0.101-0.09 0.217-0.131 0.354-0.131h1.754c0.147 0 0.283 0.047 0.42 0.14 0.125 0.083 0.199 0.175 0.215 0.266z"/>
    <path transform="translate(4.4322 -3.289)" d="m0 0h-1.148l-0.397-0.517-0.278 0.122 0.062 0.395h-1.08l-0.663-4.006h1.083l0.16 0.979 0.424-0.979h1.2l-0.896 2.024z"/>
    <path transform="translate(7.6138 -5.2666)" d="m0 0c6e-3 0.05 6e-3 0.125-0.108 0.226-0.095 0.09-0.213 0.13-0.352 0.13h-1.238l0.145 0.851h0.668l-0.043-0.262h1.083l0.111 0.671c8e-3 0.049 8e-3 0.133-0.105 0.235-0.096 0.083-0.21 0.127-0.351 0.127h-1.752c-0.143 0-0.285-0.048-0.422-0.141-0.128-0.088-0.2-0.18-0.213-0.27l-0.27-1.619c-7e-3 -0.058-3e-3 -0.127 0.107-0.229 0.098-0.085 0.211-0.129 0.353-0.129h1.237l-0.142-0.852h-0.671l0.044 0.267h-1.083l-0.11-0.68c-0.01-0.049-0.01-0.131 0.103-0.226 0.1-0.086 0.21-0.127 0.352-0.127h1.754c0.142 0 0.284 0.047 0.421 0.139 0.127 0.083 0.195 0.175 0.212 0.267z"/>
    <path transform="translate(-11.748 -1.6191)" d="m0 0h-0.669l0.41 2.477h0.668zm0.714 4.32-0.176-1.072h-1.187c-0.143 0-0.282-0.049-0.422-0.146-0.125-0.082-0.199-0.177-0.213-0.272l-0.535-3.236c-0.01-0.051-8e-3 -0.131 0.103-0.229 0.1-0.086 0.213-0.127 0.355-0.127h2.319l0.838 5.082z"/>
    <path transform="translate(-8.1816 .85742)" d="m0 0h0.672l-0.144-0.857h-0.669zm1.487-1.616 0.333 2.019c6e-3 0.052 6e-3 0.133-0.106 0.234-0.098 0.09-0.211 0.134-0.346 0.134h-1.756c-0.145 0-0.281-0.048-0.42-0.146-0.129-0.082-0.199-0.177-0.216-0.271l-0.535-3.237c-7e-3 -0.051-7e-3 -0.131 0.105-0.228 0.098-0.086 0.213-0.127 0.351-0.127h1.754c0.144 0 0.286 0.045 0.424 0.141 0.122 0.083 0.194 0.169 0.209 0.269l0.107 0.623h-1.084l-0.043-0.272h-0.673l0.142 0.861z"/>
    <path transform="translate(-4.3525 .85742)" d="m0 0h0.672l-0.144-0.857h-0.668zm1.484-1.616 0.339 2.019c4e-3 0.052 3e-3 0.133-0.112 0.234-0.097 0.09-0.209 0.134-0.345 0.134h-1.757c-0.145 0-0.279-0.048-0.42-0.146-0.128-0.082-0.198-0.177-0.216-0.271l-0.533-3.237c-0.01-0.051-7e-3 -0.131 0.103-0.228 0.098-0.086 0.214-0.127 0.353-0.127h1.752c0.147 0 0.283 0.045 0.422 0.141 0.127 0.083 0.198 0.169 0.213 0.271l0.102 0.621h-1.08l-0.05-0.272h-0.665l0.143 0.861z"/>
    <path d="m0 0h-0.669l0.143 0.857h0.669zm1.293 1.261c0.011 0.051 6e-3 0.133-0.107 0.233-0.096 0.09-0.209 0.135-0.348 0.135h-2.321l-0.664-4.01h1.084l0.27 1.622h1.183c0.147 0 0.285 0.041 0.425 0.138 0.125 0.086 0.196 0.181 0.211 0.266z"/>
   </g>
  </g>
  <g transform="matrix(5.6405 0 0 -5.6405 -100.16 -66.944)">
   <path d="m0 0c0.118 0.992 0.997 1.693 1.96 1.57 0.963-0.119 1.643-1.009 1.524-1.981-0.114-0.978-0.979-1.683-1.94-1.573-0.966 0.115-1.659 1.001-1.544 1.984m7.43-1.484-2.725-1.848 0.029-0.183-1.951-0.362-0.178 1.063 1.955 0.361 0.026-0.151 3.168 2.717c-0.131 2.932-2.308 5.448-5.275 5.863-3.373 0.458-6.481-1.98-6.888-5.447-0.408-3.467 2.051-6.561 5.432-6.912 2.56-0.263 4.915 1.129 6.047 3.332 0.27 0.531 0.473 1.112 0.583 1.715z" fill="#231f20"/>
  </g>
  <g transform="matrix(5.6405 0 0 -5.6405 -90.223 -66.702)">
   <path d="m 0,0 -0.177,-0.144 0.139,-0.18 0.179,0.14 C 0.152,-0.093 0.09,-0.01 0,0" fill="#231f20"/>
  </g>
  <g transform="matrix(5.6405 0 0 -5.6405 -397.99 922.91)">
   <path d="m55.143 180.82-2e-3 -9e-3h0.015c1.408-0.065 2.672-0.68 3.563-1.728 0.887-1.038 1.295-2.387 1.144-3.79h0.011c0.149 1.404-0.259 2.756-1.146 3.797-0.892 1.047-2.162 1.662-3.572 1.73zm-2e-3 -0.023v-0.011h8e-3c1.406-0.068 2.666-0.678 3.549-1.717 0.882-1.035 1.285-2.382 1.14-3.776h0.013c0.148 1.401-0.26 2.741-1.143 3.779-0.889 1.044-2.152 1.656-3.554 1.725zm-4e-3 -0.028-1e-3 -4e-3h0.012c1.398-0.071 2.65-0.683 3.532-1.716 0.88-1.026 1.282-2.362 1.133-3.756h0.012c0.146 1.394-0.259 2.734-1.137 3.764-0.883 1.039-2.14 1.646-3.54 1.712l-6e-3 1e-3zm-3e-3 -0.022v-0.01h0.013c1.388-0.069 2.636-0.67 3.513-1.7 0.874-1.033 1.276-2.361 1.129-3.744h0.01c0.146 1.387-0.255 2.721-1.131 3.747-0.878 1.034-2.128 1.64-3.521 1.707zm0-0.035h0.013c1.378-0.067 2.619-0.668 3.491-1.693 0.873-1.023 1.272-2.347 1.128-3.726h7e-3c0.146 1.381-0.254 2.706-1.125 3.731-0.874 1.027-2.118 1.627-3.501 1.694l-0.013 2e-3zm-4e-3 -0.015-3e-3 -0.011h0.016c1.374-0.065 2.607-0.664 3.479-1.687 0.863-1.016 1.262-2.33 1.116-3.705h0.012c0.141 1.378-0.252 2.697-1.125 3.712-0.867 1.026-2.103 1.625-3.479 1.691zm-5e-3 -0.029v-0.01h0.016c1.366-0.062 2.595-0.658 3.463-1.675 0.858-1.011 1.255-2.321 1.109-3.687l8e-3 -2e-3c0.145 1.368-0.25 2.68-1.113 3.7-0.865 1.015-2.097 1.608-3.467 1.674zm-1e-3 -0.023v-0.01h0.013c1.359-0.066 2.586-0.656 3.443-1.669 0.859-1.003 1.251-2.307 1.109-3.67h0.012c0.14 1.363-0.254 2.669-1.111 3.676-0.863 1.014-2.089 1.608-3.453 1.673zm-4e-3 -0.024v-9e-3h0.014c1.354-0.064 2.571-0.656 3.428-1.658 0.854-1.009 1.243-2.3 1.102-3.658h0.01c0.139 1.361-0.251 2.654-1.106 3.661-0.856 1.006-2.075 1.598-3.434 1.664zm0-0.025-1e-3 -0.011h0.015c1.344-0.064 2.558-0.651 3.408-1.651 0.848-0.996 1.237-2.292 1.097-3.636h9e-3c0.141 1.351-0.248 2.641-1.096 3.639-0.855 1.003-2.069 1.593-3.418 1.659zm-4e-3 -0.027v-0.012h0.011c1.341-0.061 2.547-0.644 3.396-1.639 0.844-0.994 1.23-2.277 1.092-3.616h0.011c0.14 1.34-0.249 2.624-1.095 3.62-0.849 0.996-2.059 1.581-3.401 1.647zm0-0.021-4e-3 -9e-3 0.013-3e-3c1.335-0.066 2.535-0.645 3.377-1.635 0.84-0.987 1.227-2.267 1.089-3.599h7e-3c0.14 1.334-0.246 2.617-1.088 3.605-0.843 0.991-2.047 1.574-3.383 1.641zm-6e-3 -0.035h0.014c1.328-0.064 2.517-0.646 3.36-1.629 0.832-0.983 1.217-2.259 1.081-3.582h8e-3c0.139 1.328-0.245 2.606-1.083 3.585-0.839 0.991-2.036 1.565-3.365 1.629l-0.015 5e-3zm-2e-3 -0.017-2e-3 -0.013h0.014c1.322-0.061 2.51-0.629 3.344-1.618 0.831-0.978 1.216-2.24 1.075-3.562h8e-3c0.142 1.322-0.242 2.587-1.077 3.571-0.837 0.98-2.025 1.556-3.35 1.622zm-2e-3 -0.028-3e-3 -7e-3h0.016c1.314-0.061 2.494-0.635 3.322-1.611 0.831-0.975 1.208-2.231 1.073-3.547h0.01c0.136 1.322-0.242 2.578-1.072 3.552-0.834 0.975-2.017 1.551-3.332 1.613zm-3e-3 -0.032 0.013-5e-3c1.307-0.058 2.481-0.629 3.307-1.599 0.824-0.965 1.203-2.219 1.066-3.525h0.01c0.136 1.31-0.243 2.562-1.068 3.527-0.828 0.979-2.004 1.548-3.315 1.612l-0.013 2e-3zm-2e-3 -0.028h0.011c1.303-0.06 2.469-0.626 3.294-1.593 0.816-0.963 1.193-2.208 1.057-3.508h0.01c0.136 1.3-0.242 2.549-1.061 3.514-0.826 0.966-1.995 1.539-3.296 1.597l-0.015 2e-3zm-7e-3 -0.023 0.016-1e-3c1.295-0.062 2.459-0.624 3.277-1.585 0.81-0.962 1.189-2.197 1.052-3.492h8e-3c0.139 1.297-0.236 2.541-1.055 3.496-0.816 0.965-1.986 1.531-3.282 1.591l-0.012 4e-3zm0-0.016v-8e-3h0.012c1.289-0.065 2.448-0.624 3.26-1.58 0.811-0.954 1.181-2.185 1.048-3.472h9e-3c0.137 1.289-0.235 2.526-1.052 3.48-0.813 0.956-1.973 1.522-3.263 1.58zm-2e-3 -0.023-1e-3 -0.01h0.015c1.279-0.064 2.43-0.619 3.238-1.57 0.807-0.948 1.177-2.176 1.044-3.456l8e-3 -1e-3c0.136 1.285-0.235 2.512-1.041 3.467-0.812 0.949-1.966 1.508-3.249 1.57zm-4e-3 -0.026v-7e-3l0.015-2e-3c1.274-0.061 2.42-0.613 3.223-1.564 0.802-0.943 1.173-2.161 1.038-3.434h9e-3c0.133 1.277-0.237 2.498-1.04 3.441-0.808 0.948-1.952 1.507-3.23 1.566zm-3e-3 -0.024v-0.012h0.013c1.267-0.061 2.408-0.614 3.209-1.549 0.8-0.946 1.162-2.156 1.032-3.422h8e-3c0.131 1.267-0.233 2.483-1.033 3.424-0.802 0.943-1.942 1.498-3.213 1.559zm-4e-3 -0.03v-5e-3h0.013c1.263-0.064 2.396-0.612 3.192-1.547 0.795-0.93 1.159-2.142 1.027-3.401h0.011c0.131 1.264-0.234 2.472-1.03 3.41-0.798 0.939-1.932 1.486-3.198 1.543zm0-0.031h0.013c1.253-0.064 2.382-0.604 3.176-1.538 0.784-0.927 1.149-2.126 1.018-3.384h9e-3c0.132 1.259-0.23 2.461-1.023 3.39-0.794 0.933-1.923 1.481-3.18 1.541l-0.013 3e-3zm-1e-3 -0.016-2e-3 -0.01h0.013c2.569-0.127 4.441-2.319 4.169-4.894h0.012c0.272 2.584-1.601 4.781-4.18 4.904zm-4e-3 -0.024v-0.011h0.012c1.241-0.059 2.358-0.6 3.14-1.519 0.782-0.922 1.14-2.107 1.008-3.346h0.011c0.13 1.239-0.229 2.429-1.013 3.351-0.782 0.925-1.899 1.463-3.146 1.525zm-1e-3 -0.026-3e-3 -0.01h0.013c1.234-0.06 2.343-0.596 3.125-1.514 0.776-0.91 1.132-2.091 1.001-3.326h0.011c0.13 1.235-0.228 2.418-1.006 3.334-0.782 0.917-1.893 1.455-3.131 1.516zm-8e-3 -0.022v-0.014h0.014c1.228-0.059 2.333-0.593 3.108-1.504 0.772-0.907 1.125-2.086 1-3.307l8e-3 -3e-3c0.129 1.228-0.224 2.408-1.001 3.317-0.776 0.913-1.881 1.446-3.111 1.511zm-2e-3 -0.039 0.016-2e-3c2.516-0.12 4.346-2.267 4.082-4.784h9e-3c0.265 2.53-1.569 4.678-4.091 4.794l-0.014 2e-3zm-2e-3 -0.016v-0.01h0.015c2.503-0.119 4.322-2.255 4.058-4.76h0.012c0.258 2.513-1.562 4.646-4.068 4.77zm-1e-3 -0.033h0.014c2.487-0.119 4.297-2.241 4.038-4.734h0.01c0.258 2.496-1.554 4.626-4.048 4.742l-0.013 4e-3zm-4e-3 -0.015v-0.01l0.014-2e-3c2.478-0.117 4.275-2.228 4.015-4.705l0.011-2e-3c0.259 2.486-1.544 4.601-4.023 4.719zm-1e-3 -0.024v-0.011h0.01c2.466-0.118 4.249-2.22 3.996-4.682h0.011c0.255 2.469-1.538 4.571-4.007 4.693zm-2e-3 -0.028-1e-3 -0.011h0.011c2.449-0.116 4.228-2.203 3.971-4.654h0.011c0.256 2.457-1.527 4.546-3.98 4.665zm-5e-3 -0.024v-0.012h0.013c1.182-0.055 2.243-0.569 2.987-1.44 0.746-0.879 1.086-2.006 0.962-3.188h0.01c0.126 1.184-0.218 2.313-0.963 3.19-0.751 0.88-1.812 1.392-2.996 1.45zm0-0.028v-6e-3h0.012c1.174-0.056 2.228-0.565 2.97-1.445 0.74-0.866 1.078-1.987 0.954-3.159h0.013c0.12 1.174-0.219 2.299-0.958 3.17-0.742 0.874-1.802 1.387-2.978 1.44zm-5e-3 -0.025v-5e-3l0.013-3e-3c1.17-0.053 2.218-0.567 2.953-1.429 0.736-0.862 1.071-1.984 0.95-3.148h0.012c0.12 1.168-0.218 2.289-0.955 3.154-0.735 0.867-1.787 1.378-2.96 1.431zm0-0.024v-8e-3l0.012-1e-3c1.157-0.054 2.202-0.559 2.935-1.425 0.732-0.855 1.066-1.965 0.946-3.127h7e-3c0.124 1.164-0.215 2.274-0.944 3.14-0.734 0.863-1.78 1.367-2.944 1.421zm-5e-3 -0.026v-9e-3h0.014c1.155-0.054 2.19-0.556 2.919-1.416 0.725-0.848 1.061-1.956 0.942-3.108l7e-3 -2e-3c0.12 1.154-0.213 2.262-0.943 3.12-0.73 0.856-1.767 1.363-2.925 1.415zm-3e-3 -0.023v-0.012l0.013-2e-3c2.367-0.111 4.083-2.124 3.836-4.496h0.014c0.246 2.373-1.48 4.397-3.85 4.51zm0-0.025-3e-3 -0.01h0.016c2.349-0.109 4.057-2.118 3.813-4.47h0.01c0.246 2.359-1.469 4.366-3.823 4.48zm-6e-3 -0.035h0.014c1.135-0.053 2.155-0.546 2.869-1.392 0.711-0.837 1.04-1.919 0.922-3.05l0.012-3e-3c0.115 1.14-0.21 2.218-0.926 3.061-0.718 0.845-1.74 1.339-2.877 1.389l-0.011 3e-3zm-2e-3 -0.014v-0.012h0.016c2.323-0.113 4.008-2.092 3.767-4.416h8e-3c0.244 2.328-1.449 4.312-3.775 4.428zm-5e-3 -0.028v-6e-3h0.016c2.308-0.114 3.988-2.082 3.746-4.394h0.01c0.24 2.319-1.44 4.293-3.756 4.4zm0-0.023-2e-3 -0.01 0.015-4e-3c2.296-0.107 3.964-2.062 3.725-4.359h0.01c0.24 2.299-1.433 4.259-3.735 4.373zm-2e-3 -0.025-1e-3 -0.01h0.013c1.107-0.051 2.103-0.533 2.802-1.359 0.695-0.817 1.018-1.878 0.901-2.979h9e-3c0.117 1.101-0.204 2.17-0.906 2.986-0.698 0.825-1.694 1.306-2.805 1.362zm-1e-3 -0.026v-0.01h0.01c2.268-0.107 3.917-2.04 3.681-4.312h9e-3c0.237 2.275-1.415 4.211-3.687 4.322zm-4e-3 -0.026-1e-3 -7e-3h0.013c2.254-0.111 3.893-2.031 3.659-4.289h0.01c0.233 2.26-1.41 4.189-3.669 4.296zm-1e-3 -0.028-4e-3 -9e-3h0.012c2.243-0.1 3.871-2.011 3.638-4.256h8e-3c0.237 2.245-1.395 4.167-3.646 4.265zm-6e-3 -0.028h0.014c2.225-0.111 3.842-2.008 3.614-4.237h0.01c0.23 2.233-1.395 4.134-3.624 4.245l-0.012 3e-3zm-2e-3 -0.029h0.013c2.213-0.105 3.818-1.988 3.593-4.206l8e-3 -2e-3c0.232 2.223-1.381 4.114-3.6 4.216l-0.014 4e-3zm-4e-3 -0.015v-7e-3h0.017c1.066-0.052 2.023-0.517 2.695-1.312 0.672-0.783 0.982-1.806 0.869-2.872h8e-3c0.115 1.069-0.195 2.091-0.866 2.881-0.679 0.794-1.637 1.255-2.706 1.31zm0-0.02-3e-3 -0.016h0.015c1.061-0.05 2.013-0.505 2.684-1.295 0.666-0.785 0.974-1.801 0.862-2.86h6e-3c0.112 1.059-0.192 2.078-0.863 2.864-0.67 0.786-1.626 1.25-2.688 1.307zm-5e-3 -0.032v-7e-3h0.017c2.169-0.103 3.746-1.956 3.52-4.125l0.01-3e-3c0.226 2.18-1.355 4.034-3.53 4.135zm-1e-3 -0.021-2e-3 -9e-3h0.014c2.159-0.107 3.727-1.944 3.502-4.102h0.01c0.224 2.159-1.349 4.007-3.512 4.111zm-2e-3 -0.027v-0.011h0.012c2.146-0.098 3.701-1.926 3.478-4.073h9e-3c0.224 2.15-1.336 3.98-3.487 4.084zm-4e-3 -0.022v-0.01h0.012c2.13-0.104 3.676-1.922 3.456-4.051l0.01-1e-3c0.221 2.136-1.329 3.957-3.466 4.062zm-3e-3 -0.029-3e-3 -9e-3h0.015c2.118-0.1 3.657-1.903 3.433-4.023h0.01c0.223 2.122-1.32 3.932-3.44 4.032zm-3e-3 -0.02v-0.015h0.013c1.022-0.048 1.94-0.49 2.58-1.252 0.645-0.751 0.935-1.727 0.833-2.745h9e-3c0.105 1.02-0.189 1.997-0.835 2.753-0.643 0.762-1.562 1.205-2.587 1.259zm0-0.029-1e-3 -7e-3h0.011c2.087-0.105 3.608-1.883 3.391-3.973l9e-3 -3e-3c0.218 2.096-1.302 3.884-3.398 3.983zm-3e-3 -0.025-2e-3 -9e-3h0.015c2.073-0.099 3.582-1.868 3.365-3.946h7e-3c0.217 2.082-1.292 3.856-3.372 3.955zm-4e-3 -0.026v-9e-3h0.013c2.058-0.1 3.56-1.856 3.345-3.918l7e-3 -2e-3c0.216 2.067-1.286 3.828-3.352 3.929zm-4e-3 -0.025-1e-3 -6e-3h0.012c2.051-0.103 3.538-1.848 3.326-3.894l6e-3 -2e-3c0.214 2.056-1.274 3.806-3.329 3.902zm-1e-3 -0.036h0.012c2.034-0.097 3.509-1.828 3.298-3.864h0.014c0.208 2.043-1.272 3.776-3.312 3.875l-0.012 2e-3zm-4e-3 -0.012v-0.01h0.015c2.016-0.097 3.485-1.817 3.273-3.84l0.013-2e-3c0.211 2.029-1.263 3.755-3.285 3.852zm-5e-3 -0.028v-8e-3l0.016-2e-3c0.974-0.044 1.845-0.472 2.462-1.187 0.612-0.725 0.894-1.655 0.791-2.625h0.011c0.099 0.973-0.181 1.907-0.795 2.63-0.615 0.723-1.493 1.144-2.467 1.192zm0-0.026v-7e-3h0.013c0.967-0.046 1.834-0.469 2.446-1.19 0.608-0.709 0.888-1.637 0.786-2.599h0.01c0.1 0.97-0.179 1.894-0.792 2.611-0.608 0.72-1.48 1.142-2.449 1.185l-9e-3 3e-3zm-2e-3 -0.023-1e-3 -8e-3h0.012c1.978-0.094 3.418-1.78 3.21-3.76h0.012c0.204 1.98-1.235 3.669-3.221 3.768zm-1e-3 -0.025-2e-3 -6e-3 0.014-5e-3c1.965-0.097 3.39-1.767 3.186-3.732h0.011c0.203 1.974-1.228 3.651-3.197 3.743zm-4e-3 -0.035h0.012c0.945-0.042 1.796-0.457 2.396-1.16 0.594-0.702 0.866-1.606 0.769-2.547l8e-3 -1e-3c0.102 0.949-0.175 1.853-0.772 2.553-0.598 0.71-1.45 1.116-2.401 1.162l-0.012 4e-3zm-3e-3 -0.026h0.01c1.937-0.092 3.347-1.745 3.144-3.681h9e-3c0.202 1.943-1.208 3.598-3.153 3.692l-0.01 5e-3zm-5e-3 -0.014v-0.01h0.015c1.92-0.093 3.319-1.734 3.121-3.655l0.011-2e-3c0.197 1.932-1.203 3.574-3.132 3.667zm-3e-3 -0.027v-0.012h0.015c0.924-0.039 1.76-0.447 2.344-1.131 0.582-0.689 0.85-1.572 0.754-2.495h9e-3c0.098 0.923-0.171 1.814-0.755 2.501-0.589 0.689-1.421 1.095-2.351 1.137zm-2e-3 -0.033h0.015c1.894-0.092 3.272-1.706 3.076-3.605h7e-3c0.199 1.902-1.182 3.522-3.081 3.612l-0.015 4e-3zm0-0.018v-6e-3h0.013c0.91-0.046 1.73-0.439 2.309-1.118 0.572-0.676 0.833-1.544 0.742-2.463h0.012c0.094 0.919-0.172 1.79-0.746 2.465-0.578 0.681-1.402 1.079-2.317 1.122zm-4e-3 -0.024v-7e-3h0.014c1.865-0.096 3.225-1.685 3.028-3.556h0.01c0.196 1.879-1.167 3.476-3.038 3.563zm-4e-3 -0.024-1e-3 -0.011h0.014c1.855-0.087 3.204-1.667 3.01-3.52h8e-3c0.192 1.856-1.157 3.44-3.013 3.531zm-1e-3 -0.026-2e-3 -0.012h0.013c1.842-0.086 3.179-1.658 2.985-3.493h0.012c0.191 1.844-1.15 3.417-2.997 3.505zm-4e-3 -0.023v-9e-3h0.013c1.828-0.089 3.154-1.646 2.965-3.473h9e-3c0.19 1.835-1.14 3.394-2.972 3.482zm-1e-3 -0.03v-4e-3h0.014c1.81-0.091 3.128-1.632 2.938-3.447h0.014c0.188 1.821-1.138 3.369-2.952 3.451zm-3e-3 -0.019v-0.012l0.011-2e-3c1.798-0.082 3.106-1.615 2.919-3.418h0.01c0.187 1.805-1.124 3.344-2.927 3.432zm-2e-3 -0.035h0.01c1.786-0.089 3.082-1.602 2.9-3.397h8e-3c0.183 1.795-1.116 3.32-2.907 3.401l-0.011 5e-3zm-3e-3 -0.017-3e-3 -0.011h0.014c1.77-0.085 3.058-1.591 2.876-3.365l9e-3 -4e-3c0.185 1.781-1.108 3.291-2.885 3.38zm-3e-3 -0.026-2e-3 -0.01h0.014c1.756-0.087 3.031-1.581 2.853-3.337l9e-3 -3e-3c0.182 1.765-1.099 3.266-2.86 3.35zm-4e-3 -0.023v-0.011h0.015c1.739-0.084 3.009-1.567 2.827-3.313h0.013c0.177 1.747-1.09 3.239-2.84 3.324zm-3e-3 -0.028v-0.012h0.015c1.727-0.082 2.983-1.553 2.807-3.283l0.011-1e-3c0.178 1.738-1.083 3.215-2.818 3.296zm-4e-3 -0.021v-0.015h0.015c1.715-0.081 2.962-1.542 2.785-3.259h0.011c0.177 1.719-1.075 3.185-2.794 3.274zm-1e-3 -0.029v-0.011h0.012c1.702-0.081 2.941-1.532 2.764-3.234h8e-3c0.176 1.709-1.061 3.162-2.769 3.245l-0.011 2e-3zm-2e-3 -0.023v-0.013h0.012c1.689-0.08 2.918-1.518 2.742-3.205l9e-3 -4e-3c0.175 1.697-1.055 3.144-2.749 3.222zm-3e-3 -0.037h0.013c1.675-0.078 2.891-1.505 2.717-3.181h8e-3c0.177 1.679-1.045 3.11-2.725 3.191l-0.013 4e-3zm-1e-3 -0.014-2e-3 -9e-3h0.013c1.662-0.08 2.869-1.494 2.697-3.156l7e-3 -2e-3c0.173 1.667-1.038 3.088-2.704 3.167zm-2e-3 -0.038h9e-3c1.646-0.076 2.845-1.481 2.673-3.127h0.01c0.172 1.654-1.028 3.058-2.683 3.138l-9e-3 4e-3zm-4e-3 -8e-3 -1e-3 -0.013h0.013c1.632-0.081 2.819-1.47 2.65-3.104h0.011c0.167 1.639-1.022 3.034-2.661 3.117zm-5e-3 -0.032v-6e-3h0.015c1.619-0.08 2.796-1.455 2.629-3.077h0.01c0.164 1.627-1.015 3.005-2.639 3.083zm0-0.02v-0.014h0.012c0.778-0.033 1.478-0.377 1.972-0.953 0.491-0.576 0.711-1.319 0.636-2.096h6e-3c0.08 0.779-0.146 1.523-0.636 2.102-0.496 0.581-1.194 0.919-1.978 0.961zm-4e-3 -0.042h0.013c1.593-0.072 2.746-1.428 2.584-3.02l6e-3 -1e-3c0.168 1.598-0.994 2.958-2.588 3.034l-0.015 3e-3zm-3e-3 -0.021h0.016c0.764-0.039 1.451-0.367 1.936-0.94 0.48-0.562 0.7-1.293 0.624-2.059h8e-3c0.08 0.766-0.142 1.499-0.627 2.069-0.484 0.569-1.172 0.903-1.941 0.935l-0.013 4e-3zm-2e-3 -0.027h0.013c0.757-0.035 1.442-0.37 1.92-0.932 0.477-0.555 0.697-1.282 0.619-2.04h9e-3c0.077 0.762-0.141 1.488-0.623 2.051-0.479 0.566-1.163 0.897-1.925 0.934l-0.013 3e-3zm-4e-3 -0.012v-0.012h0.013c0.752-0.037 1.428-0.359 1.903-0.923 0.473-0.553 0.69-1.272 0.61-2.02h0.013c0.077 0.751-0.139 1.47-0.615 2.031-0.475 0.558-1.154 0.885-1.911 0.924zm0-0.028-3e-3 -0.011h0.016c1.535-0.07 2.651-1.377 2.49-2.916h0.011c0.158 1.54-0.961 2.855-2.501 2.927zm-3e-3 -0.025-1e-3 -7e-3h0.013c1.522-0.076 2.627-1.375 2.471-2.892l0.01-3e-3c0.157 1.529-0.953 2.831-2.481 2.902zm-3e-3 -0.023v-0.013h0.012c1.509-0.07 2.604-1.352 2.449-2.863h7e-3c0.157 1.512-0.942 2.803-2.453 2.876zm-4e-3 -0.026v-7e-3h0.014c1.495-0.075 2.578-1.348 2.425-2.843h0.01c0.155 1.501-0.936 2.777-2.433 2.85zm-1e-3 -0.025v-9e-3h0.011c1.481-0.071 2.556-1.335 2.405-2.814h9e-3c0.154 1.487-0.929 2.754-2.414 2.823zm-5e-3 -0.022v-0.014h0.013c1.466-0.07 2.534-1.32 2.378-2.785l0.014-2e-3c0.153 1.475-0.92 2.729-2.389 2.801zm0-0.027-3e-3 -0.014h0.015c1.451-0.07 2.507-1.303 2.359-2.758h0.011c0.148 1.46-0.909 2.703-2.369 2.772zm-6e-3 -0.035h0.016c1.436-0.067 2.484-1.297 2.336-2.737h0.01c0.15 1.444-0.9 2.678-2.346 2.743l-0.015 4e-3zm-2e-3 -0.025h0.014c1.422-0.071 2.46-1.284 2.317-2.712h8e-3c0.146 1.43-0.892 2.655-2.325 2.717l-0.012 4e-3zm-2e-3 -0.016-2e-3 -0.01h0.017c1.408-0.066 2.435-1.268 2.292-2.68l0.01-6e-3c0.145 1.424-0.887 2.631-2.302 2.696zm-3e-3 -0.024-3e-3 -0.013h0.016c1.399-0.069 2.414-1.254 2.272-2.653h7e-3c0.146 1.399-0.876 2.599-2.278 2.666zm-5e-3 -0.029v-8e-3h0.016c1.385-0.066 2.389-1.246 2.25-2.629h8e-3c0.141 1.393-0.871 2.576-2.256 2.637zm0-0.023-2e-3 -7e-3h0.014c1.372-0.071 2.369-1.238 2.224-2.606h0.014c0.139 1.373-0.86 2.544-2.237 2.613z" fill="url(#linearGradient2491)"/>
  </g>
  <g transform="matrix(5.6405 0 0 -5.6405 -397.99 922.91)">
   <path d="m50.172 171.89c0.844-1.071 2.077-1.735 3.481-1.858h0.013l2e-3 8e-3 -0.015 1e-3c-1.397 0.12-2.63 0.782-3.473 1.859-0.838 1.069-1.188 2.432-0.984 3.823l-0.012 7e-3c-0.204-1.398 0.148-2.761 0.988-3.84m-1.012 3.84c-0.206-1.407 0.147-2.771 0.992-3.849 0.849-1.086 2.089-1.753 3.496-1.878h0.016v0.011l-0.016 2e-3c-1.403 0.125-2.64 0.791-3.489 1.869-0.842 1.079-1.194 2.441-0.987 3.845zm0.101-0.013c-0.201-1.373 0.143-2.717 0.973-3.773 0.833-1.063 2.052-1.717 3.43-1.839h0.014v5e-3l-0.012 2e-3c-1.379 0.128-2.596 0.776-3.422 1.839-0.829 1.052-1.176 2.393-0.974 3.766zm-0.025 0c-0.204-1.38 0.143-2.726 0.977-3.793 0.834-1.066 2.061-1.719 3.447-1.844h0.012l4e-3 0.01h-0.012c-1.387 0.125-2.611 0.778-3.442 1.844-0.83 1.061-1.178 2.405-0.976 3.783zm-0.024 0c-0.204-1.385 0.144-2.737 0.981-3.806 0.84-1.07 2.068-1.734 3.461-1.854l0.014-2e-3 2e-3 0.01h-0.016c-1.389 0.123-2.615 0.78-3.454 1.854-0.834 1.064-1.184 2.413-0.98 3.798zm0.074-4e-3c-0.2-1.364 0.142-2.698 0.968-3.754 0.825-1.057 2.04-1.708 3.414-1.831h0.014v0.013h-0.014c-1.371 0.119-2.579 0.77-3.404 1.825-0.826 1.052-1.17 2.383-0.969 3.747zm0.05-2e-3c-0.2-1.356 0.142-2.675 0.959-3.718 0.818-1.049 2.018-1.692 3.381-1.811l0.012-5e-3v0.011l-0.01 2e-3c-1.359 0.12-2.559 0.763-3.379 1.806-0.813 1.041-1.149 2.359-0.955 3.715zm-0.025 0c-0.198-1.358 0.141-2.69 0.961-3.735 0.828-1.057 2.031-1.698 3.398-1.819l0.016-4e-3v8e-3l-0.014 5e-3c-1.365 0.121-2.569 0.769-3.392 1.816-0.818 1.046-1.156 2.371-0.96 3.729zm0.074-3e-3c-0.196-1.342 0.14-2.654 0.951-3.686 0.81-1.033 1.997-1.675 3.346-1.79l0.012-5e-3 4e-3 0.013-0.014 3e-3c-1.348 0.12-2.533 0.751-3.342 1.789-0.806 1.032-1.143 2.334-0.946 3.676zm-0.024 0c-0.198-1.348 0.143-2.662 0.953-3.7 0.815-1.045 2.011-1.682 3.364-1.803h0.014v0.01h-0.012c-1.354 0.123-2.546 0.761-3.356 1.797-0.812 1.037-1.15 2.348-0.953 3.696zm0.051-5e-3c-0.195-1.335 0.137-2.636 0.944-3.666 0.806-1.031 1.99-1.664 3.33-1.784h0.013l1e-3 0.011h-0.012c-1.34 0.121-2.522 0.749-3.324 1.779-0.803 1.029-1.139 2.325-0.944 3.66zm0.048-3e-3c-0.194-1.322 0.138-2.612 0.935-3.631 0.798-1.02 1.971-1.645 3.297-1.763h0.016v7e-3h-0.014c-1.325 0.115-2.493 0.748-3.29 1.763-0.795 1.015-1.127 2.305-0.935 3.624zm-0.026 0c-0.194-1.331 0.139-2.621 0.939-3.644 0.805-1.026 1.981-1.658 3.315-1.776h0.014v0.011h-0.01c-1.333 0.118-2.507 0.747-3.307 1.772-0.801 1.021-1.135 2.315-0.941 3.637zm0.052-2e-3c-0.191-1.317 0.136-2.596 0.932-3.612 0.795-1.015 1.958-1.64 3.28-1.759h0.012l6e-3 0.013h-0.017c-1.318 0.117-2.48 0.738-3.275 1.752-0.792 1.012-1.123 2.289-0.929 3.606zm0.948-3.594c0.792-1.011 1.951-1.629 3.266-1.749h0.016l1e-3 8e-3h-0.015c-1.311 0.116-2.469 0.739-3.259 1.744-0.788 1.008-1.115 2.281-0.923 3.585l-8e-3 4e-3c-0.194-1.308 0.138-2.582 0.922-3.592m-0.85 3.588c-0.188-1.289 0.137-2.548 0.914-3.541 0.777-0.994 1.919-1.607 3.214-1.723h0.012l1e-3 8e-3 -9e-3 5e-3c-1.295 0.112-2.431 0.723-3.21 1.714-0.778 0.99-1.099 2.248-0.913 3.537zm-0.023 0c-0.189-1.297 0.135-2.561 0.916-3.557 0.783-0.998 1.932-1.617 3.231-1.728h0.01l4e-3 2e-3h-0.012c-1.299 0.121-2.443 0.734-3.224 1.734-0.784 0.996-1.106 2.256-0.916 3.549zm-0.025 0c-0.192-1.302 0.136-2.574 0.921-3.573 0.787-1.007 1.942-1.621 3.245-1.741h0.016v0.011h-0.014c-1.301 0.118-2.455 0.734-3.241 1.74-0.781 1.001-1.107 2.265-0.917 3.563zm0.1-7e-3c-0.185-1.28 0.132-2.519 0.903-3.502 0.768-0.983 1.9-1.591 3.179-1.704l0.012-2e-3 4e-3 0.01h-0.016c-1.275 0.117-2.404 0.721-3.171 1.704-0.769 0.976-1.087 2.219-0.903 3.494zm-0.027 0c-0.185-1.28 0.137-2.529 0.907-3.517 0.775-0.991 1.912-1.597 3.201-1.711h0.013v6e-3h-0.012c-1.285 0.117-2.421 0.725-3.194 1.713-0.769 0.98-1.092 2.229-0.903 3.509zm0.052-3e-3c-0.185-1.27 0.131-2.504 0.897-3.482 0.767-0.978 1.889-1.584 3.164-1.696h0.016v9e-3h-0.014c-1.274 0.115-2.393 0.714-3.156 1.695-0.766 0.972-1.082 2.21-0.898 3.474zm0.94-3.447c0.758-0.97 1.87-1.569 3.129-1.682h0.012l1e-3 9e-3 -0.013 2e-3c-1.255 0.112-2.367 0.704-3.124 1.673-0.755 0.966-1.07 2.188-0.885 3.438l-0.01 3e-3c-0.186-1.258 0.132-2.48 0.89-3.443m-0.917 3.443c-0.18-1.26 0.136-2.488 0.895-3.465 0.764-0.973 1.88-1.573 3.146-1.683l0.015-4e-3 2e-3 0.011-0.017 5e-3c-1.26 0.112-2.375 0.712-3.14 1.681-0.758 0.968-1.073 2.195-0.889 3.455zm0.051-3e-3c-0.183-1.247 0.131-2.467 0.885-3.422 0.752-0.971 1.86-1.563 3.114-1.673h0.014v9e-3l-0.014 1e-3c-1.251 0.113-2.353 0.701-3.107 1.664-0.753 0.964-1.062 2.174-0.881 3.421zm0.051-6e-3c-0.178-1.235 0.128-2.438 0.875-3.387 0.744-0.957 1.839-1.541 3.081-1.654h0.014l2e-3 0.012h-0.016c-1.24 0.106-2.33 0.692-3.077 1.646-0.741 0.947-1.052 2.152-0.873 3.383zm-0.024 0c-0.377-2.563 1.404-4.835 3.976-5.065h0.015v0.012h-0.013c-2.565 0.227-4.344 2.492-3.972 5.053zm0.918-3.371c0.742-0.948 1.83-1.536 3.063-1.641h0.017v4e-3h-0.012c-1.232 0.112-2.318 0.697-3.056 1.64-0.747 0.947-1.051 2.143-0.868 3.365l-0.013 1e-3c-0.179-1.226 0.129-2.425 0.869-3.369m0.021 0.014c0.738-0.941 1.819-1.52 3.047-1.634h0.015v0.012h-0.01c-1.227 0.106-2.308 0.682-3.046 1.627-0.733 0.939-1.042 2.129-0.864 3.346l-6e-3 3e-3c-0.182-1.222 0.124-2.41 0.864-3.354m3.052-1.606h0.014l3e-3 9e-3 -0.017 1e-3c-2.509 0.223-4.248 2.44-3.884 4.942l-8e-3 5e-3c-0.367-2.508 1.376-4.735 3.892-4.957m7e-3 0.05 0.014-2e-3v8e-3h-0.012c-2.484 0.223-4.205 2.418-3.843 4.895l-7e-3 1e-3c-0.363-2.482 1.361-4.682 3.848-4.902m-3.874 4.902c-0.366-2.495 1.368-4.708 3.872-4.929h0.012l2e-3 0.01-0.012 2e-3c-2.498 0.218-4.229 2.426-3.866 4.917zm0.049-1e-3c-0.362-2.47 1.354-4.654 3.828-4.879h0.015l3e-3 0.012h-0.014c-2.471 0.219-4.183 2.4-3.822 4.867zm3.836-4.825h0.012l5e-3 9e-3h-0.016c-2.441 0.216-4.131 2.377-3.776 4.812l-0.01 2e-3c-0.36-2.447 1.338-4.607 3.785-4.823m-3.81 4.823c-0.359-2.457 1.346-4.629 3.809-4.848h0.011v4e-3h-0.011c-2.457 0.224-4.161 2.392-3.8 4.844zm0.902-3.215c0.704-0.904 1.741-1.455 2.918-1.559h0.011v7e-3h-0.011c-1.17 0.104-2.206 0.659-2.91 1.56-0.705 0.899-0.997 2.032-0.827 3.199l-9e-3 4e-3c-0.172-1.171 0.124-2.311 0.828-3.211m-0.855 3.211c-0.168-1.171 0.125-2.318 0.835-3.226 0.712-0.906 1.752-1.466 2.931-1.569l0.014-6e-3v0.013h-0.012c-1.178 0.108-2.218 0.661-2.927 1.569-0.706 0.901-1 2.048-0.829 3.219zm0.079-4e-3c-0.17-1.156 0.118-2.28 0.817-3.174 0.698-0.889 1.72-1.438 2.884-1.545h0.012v0.011h-0.012c-1.159 0.1-2.18 0.652-2.875 1.542-0.697 0.888-0.988 2.01-0.819 3.166zm-0.025 0c-0.172-1.165 0.12-2.294 0.821-3.191 0.704-0.897 1.733-1.447 2.898-1.551l0.017-3e-3 1e-3 0.011-0.016 3e-3c-1.165 0.102-2.192 0.655-2.894 1.551-0.696 0.889-0.989 2.02-0.818 3.18zm0.048-2e-3c-0.167-1.149 0.119-2.275 0.811-3.156 0.697-0.887 1.716-1.432 2.867-1.536h0.018v9e-3h-0.014c-1.152 0.107-2.167 0.649-2.861 1.535-0.687 0.881-0.978 1.999-0.81 3.148zm0.023-4e-3c-0.341-2.363 1.297-4.451 3.659-4.662h0.014l1e-3 0.01h-0.013c-2.355 0.203-3.992 2.297-3.648 4.652zm3.666-4.637h0.011l4e-3 9e-3h-0.015c-2.344 0.209-3.972 2.281-3.628 4.618l-0.012 2e-3c-0.339-2.342 1.286-4.42 3.64-4.629m-3.588 4.627c-0.339-2.315 1.271-4.373 3.595-4.574l0.01-6e-3 2e-3 0.014-0.012 1e-3c-2.316 0.202-3.923 2.253-3.588 4.565zm-0.024 0c-0.167-1.126 0.118-2.226 0.796-3.096 0.684-0.874 1.684-1.406 2.817-1.505h0.014l2e-3 8e-3 -0.015 1e-3c-1.129 0.102-2.127 0.637-2.81 1.504-0.677 0.87-0.959 1.962-0.798 3.088zm0.098-3e-3c-0.162-1.102 0.118-2.177 0.782-3.024 0.664-0.852 1.641-1.377 2.749-1.475h9e-3l7e-3 0.012h-0.016c-1.104 0.096-2.077 0.616-2.746 1.467-0.658 0.845-0.937 1.918-0.775 3.02zm-0.026 0c-0.334-2.295 1.258-4.318 3.555-4.523h0.011v6e-3l-0.011 1e-3c-2.29 0.207-3.879 2.228-3.545 4.516zm-0.025 0c-0.335-2.303 1.265-4.343 3.573-4.55l0.015-3e-3v0.01l-0.012 6e-3c-2.302 0.201-3.903 2.24-3.562 4.537zm3.584-4.475h0.015l1e-3 9e-3 -0.012 2e-3c-2.264 0.2-3.832 2.203-3.499 4.457l-0.013 4e-3c-0.331-2.265 1.245-4.267 3.508-4.472m-3.482 4.468c-0.329-2.251 1.231-4.244 3.486-4.44h0.014l2e-3 9e-3h-0.013c-2.25 0.198-3.808 2.18-3.481 4.431zm3.489-4.416 0.016-2e-3 1e-3 0.01-0.017 2e-3c-2.233 0.195-3.781 2.173-3.453 4.402l-0.013 3e-3c-0.324-2.237 1.228-4.215 3.466-4.415m-3.44 4.412c-0.323-2.222 1.22-4.191 3.447-4.39h0.012l2e-3 0.01-0.014 2e-3c-2.224 0.198-3.761 2.159-3.437 4.378zm3.449-4.363h0.012l6e-3 0.011h-0.016c-2.206 0.193-3.738 2.146-3.414 4.347l-0.01 3e-3c-0.322-2.21 1.209-4.165 3.422-4.361m-3.4 4.358c-0.154-1.061 0.113-2.097 0.756-2.912 0.641-0.819 1.581-1.328 2.648-1.42l0.014-2e-3v0.01l-0.012 3e-3c-1.065 0.091-2.005 0.596-2.647 1.413-0.638 0.815-0.903 1.849-0.747 2.908zm0.052-1e-3c-0.315-2.17 1.188-4.087 3.36-4.284h0.011l5e-3 8e-3 -0.016 5e-3c-2.165 0.194-3.666 2.104-3.353 4.271zm-0.026 0c-0.154-1.055 0.112-2.083 0.748-2.895 0.636-0.816 1.572-1.313 2.634-1.413h0.014v0.011h-0.014c-1.058 0.093-1.988 0.591-2.627 1.408-0.634 0.81-0.901 1.834-0.747 2.889zm3.388-4.255h0.014l4e-3 7e-3h-0.014c-2.152 0.19-3.647 2.09-3.332 4.239l-0.011 6e-3c-0.312-2.157 1.182-4.061 3.339-4.252m8e-3 0.049h0.014v5e-3h-0.013c-2.124 0.192-3.598 2.071-3.288 4.189l-0.011 3e-3c-0.306-2.127 1.167-4.011 3.298-4.197m-3.322 4.197c-0.311-2.136 1.176-4.03 3.318-4.225h0.014l2e-3 0.011h-0.012c-2.14 0.187-3.622 2.079-3.311 4.214zm0.049-3e-3c-0.306-2.112 1.16-3.98 3.278-4.173h0.013l1e-3 0.011h-0.013c-2.11 0.187-3.574 2.051-3.267 4.162zm0.027-2e-3c-0.148-1.014 0.107-2.008 0.719-2.786 0.613-0.785 1.515-1.269 2.537-1.355h9e-3l3e-3 5e-3 -0.012 2e-3c-1.018 0.09-1.915 0.572-2.529 1.358-0.612 0.776-0.864 1.765-0.717 2.776zm3.258-4.118h0.01l6e-3 6e-3 -0.014 4e-3c-2.082 0.187-3.528 2.026-3.224 4.104l-9e-3 2e-3c-0.305-2.085 1.143-3.934 3.231-4.116m-3.183 4.114c-0.3-2.061 1.128-3.884 3.19-4.066h0.012v9e-3h-0.012c-2.052 0.183-3.478 2-3.182 4.057zm-0.024 0c-0.302-2.07 1.136-3.907 3.209-4.085l0.016-8e-3v0.011h-0.016c-2.065 0.188-3.498 2.012-3.199 4.082zm3.221-4.014 0.014-4e-3v0.014h-0.01c-2.029 0.181-3.436 1.974-3.141 3.994l-8e-3 3e-3c-0.296-2.033 1.114-3.829 3.145-4.007m-3.173 4.007c-0.296-2.043 1.124-3.848 3.169-4.033l0.014-1e-3 2e-3 9e-3h-0.016c-2.041 0.18-3.454 1.989-3.158 4.025zm0.054-3e-3c-0.295-2.018 1.102-3.797 3.124-3.98l0.013-1e-3v0.01h-0.013c-2.012 0.182-3.41 1.963-3.12 3.971zm0.729-2.645c0.583-0.744 1.435-1.199 2.402-1.287h0.012l2e-3 0.01h-0.012c-0.966 0.089-1.817 0.545-2.397 1.287-0.578 0.737-0.819 1.672-0.679 2.63l-0.01 3e-3c-0.139-0.961 0.103-1.898 0.682-2.643m-0.706 2.643c-0.14-0.969 0.102-1.91 0.687-2.658 0.584-0.747 1.442-1.207 2.414-1.294h0.017l1e-3 8e-3 -0.018 2e-3c-0.965 0.088-1.824 0.544-2.406 1.29-0.584 0.743-0.828 1.686-0.686 2.652zm3.114-3.878 0.015-4e-3v0.01h-0.015c-1.958 0.18-3.315 1.909-3.029 3.866l-8e-3 3e-3c-0.287-1.963 1.074-3.697 3.037-3.875m-3.063 3.875c-0.29-1.976 1.081-3.722 3.059-3.9l0.014-2e-3v0.01h-0.012c-1.974 0.177-3.34 1.921-3.052 3.892zm0.046-3e-3c-0.134-0.943 0.102-1.86 0.672-2.586 0.569-0.73 1.401-1.176 2.35-1.262h0.015v0.012h-0.015c-0.944 0.08-1.774 0.531-2.346 1.256-0.562 0.72-0.802 1.637-0.662 2.58zm3.027-3.798 0.018-2e-3v0.011h-0.013c-1.918 0.173-3.25 1.867-2.97 3.78l-8e-3 3e-3c-0.282-1.92 1.052-3.618 2.973-3.792m-2.999 3.792c-0.281-1.932 1.06-3.645 2.997-3.817h0.014v0.012h-0.012c-1.93 0.17-3.27 1.873-2.991 3.805zm0.074-4e-3c-0.276-1.894 1.039-3.569 2.935-3.737h0.014v0.012h-0.012c-1.889 0.168-3.201 1.838-2.925 3.725zm-0.026 0c-0.132-0.92 0.098-1.818 0.657-2.528 0.555-0.712 1.374-1.15 2.299-1.23l0.015-2e-3v5e-3l-0.012 3e-3c-0.924 0.078-1.74 0.523-2.297 1.228-0.554 0.711-0.783 1.607-0.65 2.524zm0.052-2e-3c-0.134-0.906 0.096-1.797 0.641-2.493 0.552-0.702 1.358-1.136 2.27-1.217h0.012l4e-3 6e-3 -0.014 4e-3c-0.91 0.083-1.711 0.51-2.263 1.212-0.546 0.697-0.773 1.582-0.642 2.488zm0.025-2e-3c-0.27-1.867 1.022-3.518 2.892-3.68h0.013l1e-3 8e-3h-0.014c-1.862 0.163-3.154 1.813-2.883 3.672zm0.051-6e-3c-0.267-1.84 1.007-3.463 2.847-3.629h0.012l5e-3 0.01h-0.017c-1.833 0.166-3.104 1.783-2.839 3.619zm-0.023 0c-0.273-1.85 1.011-3.486 2.866-3.653h0.014l2e-3 0.012h-0.012c-1.849 0.162-3.135 1.796-2.864 3.641zm0.047-4e-3c-0.265-1.821 1-3.439 2.827-3.594l0.013-1e-3v3e-3l-0.011 3e-3c-1.819 0.162-3.085 1.773-2.821 3.589zm0.023-2e-3c-0.263-1.81 0.997-3.408 2.808-3.567l0.014-6e-3 2e-3 0.01h-0.014c-1.809 0.165-3.061 1.761-2.798 3.563zm2.817-3.517h0.011l2e-3 3e-3 -0.013 2e-3c-1.78 0.157-3.014 1.729-2.758 3.508l-5e-3 3e-3c-0.262-1.784 0.975-3.363 2.763-3.516m-2.791 3.516c-0.263-1.794 0.987-3.385 2.786-3.544h0.014v4e-3l-0.014 4e-3c-1.793 0.161-3.035 1.744-2.776 3.536zm2.791-3.496h0.015l2e-3 0.011h-0.012c-1.768 0.16-2.994 1.717-2.735 3.481l-0.012 1e-3c-0.256-1.771 0.971-3.336 2.742-3.493m-2.718 3.492c-0.253-1.759 0.965-3.307 2.723-3.468h0.013l3e-3 0.01h-0.012c-1.753 0.156-2.969 1.704-2.713 3.458zm0.027-2e-3c-0.252-1.742 0.954-3.287 2.7-3.437l0.016-1e-3v6e-3h-0.014c-1.739 0.16-2.946 1.695-2.694 3.432zm2.704-3.411 0.014-2e-3v6e-3h-0.014c-1.723 0.156-2.919 1.679-2.668 3.401l-0.011 2e-3c-0.252-1.724 0.949-3.255 2.679-3.407m-2.629 3.405c-0.246-1.706 0.935-3.207 2.637-3.355l0.014-3e-3v7e-3h-0.014c-1.695 0.157-2.872 1.653-2.627 3.351zm-0.024 0c-0.247-1.717 0.94-3.227 2.657-3.383l0.011-2e-3 3e-3 0.012h-0.013c-1.711 0.154-2.899 1.664-2.648 3.373zm0.075-9e-3c-0.243-1.673 0.917-3.147 2.592-3.302h0.014v0.012h-0.013c-1.666 0.149-2.827 1.627-2.584 3.29zm-0.025 0c-0.246-1.681 0.926-3.175 2.615-3.325h0.014v7e-3h-0.014c-1.682 0.153-2.848 1.641-2.605 3.318zm0.05-2e-3c-0.241-1.659 0.911-3.123 2.571-3.271h0.013l3e-3 7e-3h-0.014c-1.658 0.146-2.802 1.612-2.565 3.264zm0.047-2e-3c-0.235-1.633 0.898-3.075 2.532-3.222h0.012l3e-3 0.011h-0.013c-1.632 0.144-2.759 1.583-2.521 3.211zm-0.022 0c-0.239-1.644 0.904-3.098 2.55-3.246h0.014v9e-3h-0.013c-1.639 0.146-2.779 1.597-2.543 3.237zm0.625-2.135c0.47-0.603 1.157-0.963 1.937-1.036h0.012l4e-3 0.01h-0.016c-0.779 0.07-1.464 0.439-1.928 1.036-0.468 0.599-0.663 1.349-0.549 2.118l-0.013 2e-3c-0.109-0.775 0.084-1.531 0.553-2.13m-0.577 2.13c-0.23-1.619 0.892-3.045 2.508-3.189l0.014-3e-3 4e-3 0.012h-0.015c-1.613 0.143-2.733 1.571-2.5 3.18zm0.075-2e-3c-0.107-0.766 0.082-1.507 0.542-2.093 0.463-0.591 1.138-0.953 1.904-1.019h0.015l2e-3 3e-3 -0.017 9e-3c-0.762 0.065-1.439 0.426-1.898 1.016-0.455 0.582-0.649 1.32-0.538 2.084zm-0.025 0c-0.229-1.588 0.875-2.997 2.466-3.136l0.016-7e-3v0.015h-0.014c-1.585 0.143-2.688 1.542-2.457 3.128zm0.607-2.063c0.454-0.58 1.119-0.934 1.871-0.998l0.012-3e-3v9e-3h-0.01c-0.751 0.07-1.414 0.423-1.864 1.003-0.45 0.572-0.637 1.298-0.53 2.046l-0.012 4e-3c-0.106-0.754 0.082-1.479 0.533-2.061m-0.554 2.061c-0.112-0.758 0.08-1.494 0.534-2.074 0.457-0.585 1.128-0.943 1.889-1.013h0.013v0.011h-0.013c-0.756 0.067-1.426 0.422-1.879 1.006-0.454 0.584-0.647 1.312-0.539 2.07zm2.429-3.035 0.013-3e-3v0.011h-9e-3c-1.536 0.136-2.597 1.49-2.374 3.017l-0.012 6e-3c-0.222-1.539 0.844-2.893 2.382-3.031m-2.305 3.023c-0.216-1.496 0.82-2.818 2.313-2.949h0.016l1e-3 6e-3h-0.012c-1.491 0.138-2.526 1.453-2.309 2.943zm-0.028 0c-0.215-1.505 0.83-2.843 2.34-2.971l0.015-6e-3 2e-3 0.01h-0.016c-1.504 0.135-2.547 1.462-2.331 2.967zm-0.024 0c-0.218-1.52 0.839-2.865 2.363-2.997h0.011l1e-3 5e-3h-0.012c-1.52 0.138-2.57 1.477-2.352 2.992zm0.103-6e-3c-0.214-1.461 0.804-2.761 2.272-2.892h0.015v8e-3l-0.013 5e-3c-1.464 0.124-2.477 1.419-2.265 2.879zm-0.026 0c-0.212-1.479 0.814-2.789 2.293-2.92h0.015l2e-3 0.012-0.013 1e-3c-1.476 0.129-2.502 1.431-2.29 2.907zm0.052-3e-3c-0.213-1.455 0.796-2.733 2.252-2.864l0.012-4e-3 1e-3 0.01h-0.013c-1.45 0.131-2.453 1.409-2.245 2.858zm0.021-4e-3c-0.207-1.435 0.791-2.708 2.232-2.837h0.015l2e-3 7e-3h-0.014c-1.433 0.126-2.428 1.397-2.225 2.83zm0.026-3e-3c-0.205-1.423 0.783-2.683 2.209-2.806h0.015l2e-3 4e-3 -0.015 2e-3c-1.422 0.126-2.405 1.383-2.202 2.8zm0.026-3e-3c-0.204-1.406 0.778-2.651 2.188-2.782h0.015v8e-3h-0.013c-1.407 0.13-2.384 1.372-2.182 2.774zm0.073-1e-3c-0.195-1.369 0.756-2.583 2.125-2.709h0.018v0.011h-0.013c-1.371 0.126-2.317 1.329-2.119 2.698zm-0.023 0c-0.2-1.378 0.761-2.607 2.147-2.73l0.012-2e-3v0.014l-0.011 2e-3c-1.38 0.118-2.338 1.338-2.138 2.716zm-0.024 0c-0.204-1.396 0.765-2.631 2.165-2.75l0.013-7e-3 4e-3 0.012h-0.016c-1.391 0.12-2.36 1.359-2.156 2.745z" fill="url(#linearGradient2493)"/>
  </g>
  <g transform="matrix(5.6405 0 0 -5.6405 -84.53 -63.915)">
   <path d="m0 0-0.068-1.223 0.812 0.916-0.557-1.091 1.114 0.504-0.952-0.766 1.222 8e-3 -1.183-0.313 1.122-0.496-1.211 0.201 0.828-0.906-1.027 0.67 0.386-1.163-0.659 1.03-0.123-1.218-0.19 1.207-0.607-1.065 0.323 1.185-0.987-0.729 0.776 0.95-1.2-0.262 1.095 0.55-1.201 0.249 1.222 0.061-0.993 0.715 1.141-0.442-0.617 1.056 0.864-0.87-0.138 1.22 0.436-1.15z" fill="#00adef"/>
  </g>
 </g>
</svg>
