<svg width="800" height="273.95" version="1.1" viewBox="0 0 211.67 72.482" xmlns="http://www.w3.org/2000/svg">
 <g transform="translate(-57.043 93.645)">
  <g transform="matrix(6.945 0 0 -6.945 64.802 -65.553)">
   <path d="m0 0c0-0.828 0.673-1.5 1.499-1.5 0.825 0 1.496 0.672 1.496 1.5v0.279h-2.995zm1.499 4.045c-0.826 0-1.499-0.669-1.499-1.496v-1.915h2.995v1.915c0 0.827-0.671 1.496-1.496 1.496" fill="#7b7979"/>
  </g>
  <g transform="matrix(6.945 0 0 -6.945 61.045 -21.245)">
   <path d="m0 0h4.048l-1.997 1.386z" fill="#7b7979"/>
  </g>
  <g transform="matrix(6.945 0 0 -6.945 57.043 -65.159)">
   <path d="m0 0h0.545c0-1.159 0.923-2.09 2.054-2.092 1.132 2e-3 2.055 0.933 2.055 2.092h0.548c-4e-3 -1.455-1.162-2.641-2.603-2.641-1.438 0-2.597 1.186-2.599 2.641" fill="#7b7979"/>
  </g>
  <path d="m78.18-47.374h-6.1672v21.488h6.1672z" fill="#7b7979"/>
  <g transform="matrix(6.945 0 0 -6.945 74.114 -89.278)">
   <path d="m0 0c0 0.102-0.086 0.186-0.19 0.186-0.105 0-0.189-0.084-0.189-0.186 0-0.105 0.084-0.191 0.189-0.191 0.104 0 0.19 0.086 0.19 0.191" fill="#fff"/>
  </g>
  <g transform="matrix(6.945 0 0 -6.945 78.583 -89.278)">
   <path d="m0 0c0 0.102-0.083 0.186-0.189 0.186-0.105 0-0.188-0.084-0.188-0.186 0-0.105 0.083-0.191 0.188-0.191 0.106 0 0.189 0.086 0.189 0.191" fill="#fff"/>
  </g>
  <g transform="matrix(6.945 0 0 -6.945 71.951 -85.601)">
   <path d="m0 0c0 0.106-0.08 0.191-0.187 0.191-0.106 0-0.189-0.085-0.189-0.191 0-0.102 0.083-0.187 0.189-0.187 0.107 0 0.187 0.085 0.187 0.187" fill="#fff"/>
  </g>
  <g transform="matrix(6.945 0 0 -6.945 76.339 -85.601)">
   <path d="m0 0c0 0.106-0.081 0.191-0.188 0.191-0.105 0-0.189-0.085-0.189-0.191 0-0.102 0.084-0.187 0.189-0.187 0.107 0 0.188 0.085 0.188 0.187" fill="#fff"/>
  </g>
  <g transform="matrix(6.945 0 0 -6.945 80.727 -85.601)">
   <path d="m0 0c0 0.106-0.085 0.191-0.19 0.191-0.106 0-0.189-0.085-0.189-0.191 0-0.102 0.083-0.187 0.189-0.187 0.105 0 0.19 0.085 0.19 0.187" fill="#fff"/>
  </g>
  <g transform="matrix(6.945 0 0 -6.945 71.951 -78.588)">
   <path d="m0 0c0 0.104-0.08 0.189-0.187 0.189-0.106 0-0.189-0.085-0.189-0.189 0-0.105 0.083-0.189 0.189-0.189 0.107 0 0.187 0.084 0.187 0.189" fill="#fff"/>
  </g>
  <g transform="matrix(6.945 0 0 -6.945 76.339 -78.588)">
   <path d="m0 0c0 0.104-0.081 0.189-0.188 0.189-0.105 0-0.189-0.085-0.189-0.189 0-0.105 0.084-0.189 0.189-0.189 0.107 0 0.188 0.084 0.188 0.189" fill="#fff"/>
  </g>
  <g transform="matrix(6.945 0 0 -6.945 80.727 -78.588)">
   <path d="m0 0c0 0.104-0.085 0.189-0.19 0.189-0.106 0-0.189-0.085-0.189-0.189 0-0.105 0.083-0.189 0.189-0.189 0.105 0 0.19 0.084 0.19 0.189" fill="#fff"/>
  </g>
  <g transform="matrix(6.945 0 0 -6.945 69.916 -82.082)">
   <path d="m0 0c0 0.104-0.083 0.188-0.189 0.188-0.104 0-0.189-0.084-0.189-0.188 0-0.107 0.085-0.189 0.189-0.189 0.106 0 0.189 0.082 0.189 0.189" fill="#fff"/>
  </g>
  <g transform="matrix(6.945 0 0 -6.945 74.291 -82.082)">
   <path d="m0 0c0 0.104-0.082 0.188-0.189 0.188-0.102 0-0.187-0.084-0.187-0.188 0-0.107 0.085-0.189 0.187-0.189 0.107 0 0.189 0.082 0.189 0.189" fill="#fff"/>
  </g>
  <g transform="matrix(6.945 0 0 -6.945 78.672 -82.082)">
   <path d="m0 0c0 0.104-0.086 0.188-0.189 0.188s-0.188-0.084-0.188-0.188c0-0.107 0.085-0.189 0.188-0.189s0.189 0.082 0.189 0.189" fill="#fff"/>
  </g>
  <g transform="matrix(6.945 0 0 -6.945 83.114 -82.082)">
   <path d="m0 0c0 0.104-0.085 0.188-0.187 0.188-0.105 0-0.188-0.084-0.188-0.188 0-0.107 0.083-0.189 0.188-0.189 0.102 0 0.187 0.082 0.187 0.189" fill="#fff"/>
  </g>
  <path d="m80.395-26.72h-10.605v-2.5904h10.605z" fill="#7b7979"/>
  <path d="m89.486-23.886h-28.419v2.7225h28.419z" fill="#7b7979"/>
  <g transform="matrix(6.945 0 0 -6.945 107.79 -67.763)">
   <path d="m0 0c1.088 0 1.566 0.627 1.566 1.52 0 0.888-0.478 1.511-1.566 1.511h-0.489v-3.031zm-1.152 3.623h1.19c1.376 0 2.216-0.859 2.216-2.103 0-1.245-0.834-2.108-2.216-2.108h-1.19z" fill="#7a1d90"/>
  </g>
  <g transform="matrix(6.945 0 0 -6.945 152.39 -78.318)">
   <path d="m0 0c0 0.889-0.611 1.558-1.483 1.558-0.875 0-1.489-0.669-1.489-1.558 0-0.893 0.614-1.562 1.489-1.562 0.872 0 1.483 0.669 1.483 1.562m-3.659 0c0 1.244 0.967 2.16 2.176 2.16 1.207 0 2.17-0.916 2.17-2.16s-0.963-2.164-2.17-2.164c-1.209 0-2.176 0.92-2.176 2.164" fill="#7a1d90"/>
  </g>
  <g transform="matrix(6.945 0 0 -6.945 160.7 -78.318)">
   <path d="m0 0c0 1.244 0.946 2.16 2.148 2.16 0.781 0 1.321-0.307 1.686-0.822l-0.51-0.358c-0.279 0.379-0.637 0.578-1.192 0.578-0.838 0-1.443-0.669-1.443-1.558 0-0.913 0.617-1.562 1.464-1.562 0.547 0 0.949 0.203 1.264 0.613l0.515-0.352c-0.435-0.578-0.985-0.863-1.8-0.863-1.204 0-2.132 0.92-2.132 2.164" fill="#7a1d90"/>
  </g>
  <g transform="matrix(6.945 0 0 -6.945 199.19 -88.816)">
   <path d="m0 0h-1.25v0.592h3.163v-0.592h-1.251v-3.619h-0.662z" fill="#7a1d90"/>
  </g>
  <g transform="matrix(6.945 0 0 -6.945 238.95 -78.318)">
   <path d="m0 0c0 0.889-0.614 1.558-1.485 1.558-0.873 0-1.486-0.669-1.486-1.558 0-0.893 0.613-1.562 1.486-1.562 0.871 0 1.485 0.669 1.485 1.562m-3.658 0c0 1.244 0.967 2.16 2.173 2.16 1.208 0 2.172-0.916 2.172-2.16s-0.964-2.164-2.172-2.164c-1.206 0-2.173 0.92-2.173 2.164" fill="#7a1d90"/>
  </g>
  <g transform="matrix(6.945 0 0 -6.945 255.99 -74.601)">
   <path d="m0 0c0.811 0 1.141 0.384 1.141 1.027 0 0.639-0.336 1.02-1.141 1.02h-0.391v-2.047zm1.832-1.572h-0.784l-0.72 1.022c-0.094-0.012-0.198-0.021-0.305-0.021h-0.414v-1.001h-0.662v4.211h1.076c1.16 0 1.797-0.639 1.797-1.612 0-0.65-0.289-1.153-0.841-1.405z" fill="#7a1d90"/>
  </g>
  <g transform="matrix(6.945 0 0 -6.945 107 -33.249)">
   <path d="m0 0c0.811 0 1.136 0.386 1.136 1.028 0 0.637-0.334 1.022-1.136 1.022h-0.392v-2.05zm1.832-1.57h-0.787l-0.718 1.018c-0.093-0.012-0.197-0.017-0.306-0.017h-0.413v-1.001h-0.664v4.206h1.077c1.162 0 1.797-0.635 1.797-1.608 0-0.651-0.288-1.152-0.84-1.408z" fill="#7a1d90"/>
  </g>
  <g transform="matrix(6.945 0 0 -6.945 135.09 -42.06)">
   <path d="m0 0-0.699-1.664h1.384l-0.685 1.664m-1.19-2.839h-0.668l1.843 4.293h0.036l1.854-4.293h-0.699l-0.243 0.585h-1.882z" fill="#7a1d90"/>
  </g>
  <g transform="matrix(6.945 0 0 -6.945 160.19 -26.406)">
   <path d="m0 0c1.089 0 1.566 0.629 1.566 1.517 0 0.891-0.477 1.518-1.566 1.518h-0.49v-3.035zm-1.15 3.621h1.185c1.378 0 2.22-0.859 2.22-2.104 0-1.242-0.836-2.102-2.22-2.102h-1.185z" fill="#7a1d90"/>
  </g>
  <path d="m180.92-51.555h4.6046v29.211h-4.6046z" fill="#7a1d90"/>
  <g transform="matrix(6.945 0 0 -6.945 220.9 -36.809)">
   <path d="m0 0c0-1.211-0.986-2.198-2.197-2.198-1.212 0-2.195 0.987-2.195 2.198 0 1.215 0.983 2.194 2.195 2.194 1.211 0 2.197-0.979 2.197-2.194" fill="#7a1d90" fill-rule="evenodd"/>
  </g>
  <g transform="matrix(6.945 0 0 -6.945 205.3 -54.932)">
   <path d="m0 0v0.025z" fill="#7a1d90"/>
  </g>
  <g transform="matrix(6.945 0 0 -6.945 221.03 -46.345)">
   <path d="m0 0 0.018 0.015z" fill="#7a1d90"/>
  </g>
  <g transform="matrix(6.945 0 0 -6.945 195.81 -39.373)">
   <path d="m0 0h-2e-3v-0.655l0.063-0.06h0.114v-0.117h-0.509v0.117h0.108l0.063 0.06v0.677l-0.063 0.057h-0.108v0.112h0.453l0.453-0.735h2e-3v0.549l-0.08 0.074h-0.096v0.112h0.506v-0.112h-0.09l-0.078-0.057v-0.854h-0.231z" fill="#fff"/>
  </g>
  <g transform="matrix(6.945 0 0 -6.945 206.07 -40.703)">
   <path d="m0 0v-0.112h-0.108l-0.037-0.034 0.01-0.04 0.178-0.257 0.191 0.257 0.014 0.04-0.038 0.034h-0.113v0.112h0.489v-0.112h-0.025l-0.122-0.05-0.319-0.442v-0.241l0.062-0.061h0.13v-0.117h-0.603v0.117h0.131l0.063 0.054v0.262l-0.306 0.421-0.117 0.057h-0.025v0.112z" fill="#fff"/>
  </g>
  <g transform="matrix(6.945 0 0 -6.945 210.38 -40.703)">
   <path d="m0 0h0.55v-0.112h-0.071l-0.094-0.062v-0.572c0-0.106 0.078-0.16 0.211-0.16 0.131 0 0.218 0.057 0.218 0.208v0.502l-0.09 0.084h-0.075v0.112h0.494v-0.112h-0.088l-0.081-0.084v-0.515c0-0.271-0.203-0.342-0.4-0.342-0.201 0-0.405 0.071-0.405 0.307v0.57l-0.105 0.064h-0.064z" fill="#fff"/>
  </g>
 </g>
</svg>
