<svg width="800" height="234.86" version="1.1" viewBox="0 0 211.67 62.14" xmlns="http://www.w3.org/2000/svg">
 <g transform="translate(197.25 29.743)">
  <g transform="matrix(5.2253 0 0 -5.2253 -48.858 28.352)">
   <path d="m0 0 2e-3 7e-3 -2e-3 -7e-3m1.546 8.114c-0.65-0.021-1.319-2e-3 -1.983 0.019-0.053 0.189-0.109 0.381-0.167 0.57l-0.542 1.873c-0.111 0.396-0.523 0.627-0.917 0.513-0.395-0.116-0.622-0.525-0.504-0.916l0.546-1.886 0.031-0.109-1.752 0.033c-0.412 7e-3 -0.719-0.318-0.725-0.729-8e-3 -0.408 0.35-0.745 0.757-0.755l2.15-0.042c0.279-0.972 0.552-1.956 0.788-2.933 0.076-0.315 0.735-3.326 0.768-3.756l-3e-3 -0.044 0.051-0.251c0.141-0.381 0.572-0.572 0.955-0.426 0.583 0.222 0.781 0.296-0.331 4.827-0.207 0.851-0.436 1.699-0.675 2.532 0.53-0.01 1.063-0.017 1.598-1e-3 0.411 0.012 0.729 0.357 0.719 0.763-0.013 0.409-0.354 0.731-0.764 0.718" fill="#fbbc09"/>
  </g>
  <g transform="matrix(5.2253 0 0 -5.2253 -147.14 22.806)">
   <path d="m0 0-0.026-0.118 0.076 4e-3" fill="#231f20"/>
  </g>
  <g transform="matrix(5.2253 0 0 -5.2253 -141.25 23.137)">
   <path d="m0 0c-0.358-0.017-0.722-0.035-1.077-0.051" fill="#231f20"/>
  </g>
  <g transform="matrix(5.2253 0 0 -5.2253 -146.88 23.403)">
   <path d="m0 0 1.077 0.051 0.608 0.047 1.726 0.121 0.066 1.48-1.519-0.058s0.719 4.174 1.045 6.042c-0.48 0.012-0.963 0.025-1.441 0.04-0.404-1.89-0.876-4.249-1.285-6.121-0.111-0.496-0.217-0.994-0.327-1.488" fill="#231f20"/>
  </g>
  <g transform="matrix(5.2253 0 0 -5.2253 -149.67 21.203)">
   <path d="m0 0c-0.589-0.026-1.177-0.057-1.762-0.081 0.282 1.008 0.555 2.01 0.83 3.014 0.146 0.525 0.046 0.788-0.297 0.786-0.184 0-0.371-2e-3 -0.556-4e-3 -0.383-1.275-0.764-2.554-1.154-3.839-0.582-0.033-1.164-0.063-1.747-0.092 0.63 1.869 1.248 3.718 1.868 5.556 0.797-7e-3 1.596-0.011 2.396-0.017 1.115-0.011 1.525-0.663 1.225-1.959-0.268-1.119-0.535-2.237-0.803-3.364" fill="#231f20"/>
  </g>
  <g transform="matrix(5.2253 0 0 -5.2253 -117.46 22.265)">
   <path d="m0 0c-0.587-0.027-1.169-0.059-1.755-0.084 0.277 1.705 0.55 3.405 0.819 5.124 0.51-4e-3 1.018-0.01 1.526-0.015-0.194-1.688-0.39-3.359-0.59-5.025m0.69 5.906c-0.493 0.012-0.992 0.022-1.484 0.033 0.057 0.371 0.115 0.743 0.176 1.119 0.477-0.012 0.957-0.03 1.433-0.045-0.04-0.37-0.081-0.738-0.125-1.107" fill="#231f20"/>
  </g>
  <g transform="matrix(5.2253 0 0 -5.2253 -97.039 10.926)">
   <path d="m0 0c0.012 0.705 0.022 1.419 0.036 2.133-0.193-4e-3 -0.389-4e-3 -0.581-8e-3 -0.217-3e-3 -0.396-0.076-0.535-0.23-0.139-0.152-0.217-0.346-0.228-0.58-0.026-0.439 0.077-0.769 0.314-0.998 0.233-0.224 0.567-0.332 0.994-0.317m1.755-1.851c0.017-0.407-0.104-0.739-0.36-0.989-0.259-0.257-0.625-0.402-1.084-0.433-0.956-0.068-1.911-0.131-2.863-0.201-0.079 0.445-0.154 0.889-0.226 1.338 0.01 0 0.18-4e-3 0.524-0.013 0.339-0.01 0.639-4e-3 0.891 9e-3 0.885 0.049 1.329 0.236 1.339 0.556 0 0.107 0 0.209 2e-3 0.313-0.964-0.045-1.729 0.191-2.261 0.73-0.536 0.535-0.735 1.287-0.636 2.249 0.052 0.565 0.25 1.008 0.568 1.326 0.325 0.316 0.727 0.472 1.222 0.465 0.907-9e-3 1.813-0.02 2.72-0.031 0.057-1.8 0.11-3.561 0.164-5.319" fill="#231f20"/>
  </g>
  <g transform="matrix(5.2253 0 0 -5.2253 -58.11 18.325)">
   <path d="m0 0c-0.581-0.024-1.169-0.051-1.751-0.081-0.113 0.768-0.233 1.539-0.349 2.316-0.08 0.554-0.362 0.834-0.835 0.83-0.141-0.012-0.282-0.021-0.423-0.031 0.113-1.068 0.231-2.125 0.348-3.173-0.582-0.031-1.167-0.055-1.752-0.084-0.125 2.107-0.252 4.234-0.378 6.444 0.482-0.02 0.963-0.039 1.442-0.055 0.063-0.591 0.125-1.175 0.189-1.754 0.088-2e-3 0.227-4e-3 0.405-5e-3 0.178-5e-3 0.31-5e-3 0.395-8e-3 0.591-5e-3 1.031-0.093 1.321-0.258 0.403-0.23 0.67-0.651 0.798-1.261 0.198-0.969 0.392-1.927 0.59-2.88" fill="#231f20"/>
  </g>
  <g transform="matrix(5.2253 0 0 -5.2253 -26.584 6.5888)">
   <path d="m0 0c-0.055 0.126-0.165 0.256-0.332 0.392-0.17 0.13-0.323 0.202-0.464 0.208-0.217 0.012-0.38-0.055-0.489-0.2-0.112-0.144-0.136-0.318-0.068-0.514 0.068-0.188 0.237-0.446 0.52-0.764 0.286-7e-3 0.526 0.076 0.709 0.252 0.185 0.173 0.22 0.38 0.124 0.626m1.275 0.536c0.18-0.391 0.2-0.743 0.034-1.065-0.081-0.17-0.295-0.427-0.663-0.789 0.387-6e-3 0.773-0.016 1.155-0.028 0.052-0.366 0.1-0.73 0.142-1.094-1.403 0.021-2.437 0.165-3.083 0.437-0.901 0.373-1.483 1.095-1.79 2.171-0.191 0.666-0.088 1.131 0.282 1.367 0.295 0.19 0.8 0.253 1.532 0.201 0.583-0.043 1.027-0.122 1.342-0.242 0.487-0.193 0.84-0.515 1.049-0.958" fill="#231f20"/>
  </g>
  <g transform="matrix(5.2253 0 0 -5.2253 14.417 14.876)">
   <path d="m0 0c-0.589-0.027-1.178-0.056-1.769-0.082-0.473 0.651-0.937 1.313-1.408 1.987-0.251 0.352-0.543 0.532-0.885 0.532-0.185-2e-3 -0.372-2e-3 -0.559-3e-3 0.556-0.872 1.107-1.724 1.67-2.564-0.582-0.025-1.161-0.057-1.741-0.089-0.723 1.232-1.437 2.496-2.151 3.799 0.797-0.012 1.597-0.028 2.397-0.041 1.115-0.025 2.016-0.479 2.696-1.343 0.582-0.751 1.164-1.481 1.75-2.196" fill="#231f20"/>
  </g>
  <g transform="matrix(5.2253 0 0 -5.2253 -181.11 4.471)">
   <path d="m0 0c0.016 0.176-0.034 0.354-0.143 0.535-0.11 0.183-0.242 0.28-0.396 0.295-0.232 0.02-0.443-0.067-0.638-0.257-0.192-0.189-0.301-0.417-0.321-0.684-0.025-0.248 0.034-0.593 0.168-1.033 0.292-0.027 0.579 0.076 0.861 0.305 0.283 0.226 0.441 0.507 0.469 0.839m1.71 0.702c-0.047-0.544-0.254-1.03-0.618-1.468-0.189-0.229-0.566-0.579-1.137-1.049l1.483-0.131-0.493-1.532c-1.346 0.134-2.604 0.434-3.116 0.845-0.715 0.56-1.014 1.547-0.89 2.959 0.076 0.872 0.381 1.464 0.915 1.768 0.422 0.239 1.04 0.321 1.858 0.251 0.652-0.057 1.123-0.165 1.409-0.329 0.445-0.26 0.643-0.697 0.589-1.314" fill="#231f20"/>
  </g>
 </g>
</svg>
