<svg width="800" height="473.69" version="1.1" viewBox="0 0 211.67 125.33" xmlns="http://www.w3.org/2000/svg">
 <g transform="translate(-37.286 143.94)">
  <g transform="matrix(8.2081 0 0 -8.2081 86.95 -48.826)">
   <path d="m0 0-0.062-0.5h-1.311l0.062 0.5zm0.959 0.654c-0.166 0.126-0.299 0.147-0.791 0.147h-2.488l-4e-3 -0.045-0.326-2.674h1.105l0.092 0.75h1.312l-0.091-0.75h1.107l0.061 0.515c0.041 0.288-0.043 0.458-0.29 0.575 0.26 0.109 0.399 0.267 0.424 0.495l0.071 0.575c0.019 0.166-0.051 0.309-0.182 0.412" fill="#ef2c30"/>
  </g>
  <g transform="matrix(8.2081 0 0 -8.2081 120.05 -44.754)">
   <path d="m0 0h-1.311l0.061 0.496h1.311zm0.283 1.297h-1.566c-0.377 0-0.627-0.059-0.824-0.217-0.153-0.125-0.215-0.26-0.247-0.564l-0.011-0.061-0.229-1.877h1.11l2e-3 0.049 0.086 0.705h1.32l-0.092-0.754h1.105l0.229 1.882c0.047 0.347 0.021 0.477-0.107 0.618-0.141 0.154-0.393 0.219-0.776 0.219" fill="#ef2c30"/>
  </g>
  <g transform="matrix(8.2081 0 0 -8.2081 155.56 -48.826)">
   <path d="m0 0-0.137-1.115h-1.422l0.139 1.115zm0.141 0.801h-2.579l-2e-3 -0.045-0.326-2.674h2.579c0.457 0 0.681 0.049 0.874 0.205 0.157 0.124 0.252 0.322 0.28 0.551l0.148 1.206c0.03 0.227-0.015 0.415-0.144 0.55-0.139 0.153-0.364 0.207-0.83 0.207" fill="#ef2c30"/>
  </g>
  <g transform="matrix(8.2081 0 0 -8.2081 170.92 -55.03)">
   <path d="m0 0-0.332-2.674h1.111l0.334 2.719h-1.111z" fill="#ef2c30"/>
  </g>
  <g transform="matrix(8.2081 0 0 -8.2081 203.66 -39.671)">
   <path d="m0 0h-1.365l0.137 1.115h1.371zm1.068 1.755c-0.164 0.122-0.363 0.161-0.785 0.161h-1.455c-0.418 0-0.627-0.037-0.828-0.161-0.193-0.117-0.299-0.314-0.334-0.596l-0.148-1.206c-0.037-0.278 0.017-0.47 0.189-0.594 0.16-0.127 0.359-0.162 0.785-0.162h1.463c0.414 0 0.61 0.035 0.817 0.162 0.201 0.116 0.296 0.309 0.332 0.594l0.148 1.206c0.035 0.281-0.012 0.464-0.184 0.596" fill="#ef2c30"/>
  </g>
  <g transform="matrix(8.2081 0 0 -8.2081 37.573 -44.144)">
   <path d="m0 0c-0.018-0.185-0.035-0.371-0.035-0.551 0-0.839 0.242-1.609 0.666-2.242l0.217-0.318 0.687 0.499-0.213 0.317c-0.342 0.52-0.539 1.143-0.539 1.833 0 0.15 6e-3 0.302 0.026 0.452 0.06 0.502 0.224 0.979 0.455 1.41h-0.866c-0.197-0.435-0.336-0.91-0.398-1.4" fill="#ef2c30"/>
  </g>
  <g transform="matrix(8.2081 0 0 -8.2081 50.318 -44.144)">
   <path d="m0 0c-0.018-0.123-0.025-0.243-0.025-0.361 0-0.569 0.168-1.088 0.459-1.506l0.218-0.315 0.69 0.508-0.219 0.316c-0.213 0.304-0.332 0.675-0.332 1.087l0.012 0.261c0.07 0.535 0.32 1.02 0.683 1.393l0.02 0.017h-0.979c-0.277-0.413-0.466-0.892-0.527-1.4" fill="#ef2c30"/>
  </g>
  <g transform="matrix(8.2081 0 0 -8.2081 235.5 -49.227)">
   <path d="m0 0c0-0.148-6e-3 -0.3-0.025-0.454-0.106-0.866-0.504-1.664-1.082-2.292l-0.288-0.317 0.575-0.502 0.291 0.313c0.697 0.766 1.183 1.734 1.31 2.789 0.022 0.19 0.034 0.371 0.034 0.553 0 0.237-0.024 0.47-0.057 0.691h-0.846c0.061-0.248 0.088-0.508 0.088-0.781" fill="#ef2c30"/>
  </g>
  <g transform="matrix(8.2081 0 0 -8.2081 222.7 -47.664)">
   <path d="m0 0-0.016-0.264c-0.064-0.515-0.302-0.985-0.65-1.356l-0.293-0.314 0.566-0.513 0.289 0.309c0.477 0.508 0.807 1.159 0.893 1.866 0.016 0.12 0.023 0.244 0.023 0.361 0 0.313-0.052 0.61-0.148 0.883h-0.928c0.17-0.28 0.264-0.608 0.264-0.972" fill="#ef2c30"/>
  </g>
  <g transform="matrix(8.2081 0 0 -8.2081 52.002 -143.84)">
   <path d="m0 0h5.266l-0.198-1.725h-5.285z" fill="#ef2c30"/>
  </g>
  <g transform="matrix(8.2081 0 0 -8.2081 110.21 -143.67)">
   <path d="m0 0c0.982 0 8.848 0.012 9.438 0 0.597-7e-3 1.062-0.489 1.08-1.102 5e-3 -0.291-0.053-0.607-0.053-0.607l-12.061 6e-3s0.045 0.299 0.082 0.557c0.073 0.484 0.717 1.146 1.514 1.146" fill="#ef2c30"/>
  </g>
  <g transform="matrix(8.2081 0 0 -8.2081 201.45 -143.9)">
   <path d="m0 0s3.379 7e-3 4.473 4e-3c0.705-4e-3 1.41-0.336 1.304-1.474-0.031-0.336-0.023-0.267-0.023-0.267l-5.955 5e-3z" fill="#ef2c30"/>
  </g>
  <g transform="matrix(8.2081 0 0 -8.2081 93.362 -93.473)">
   <path d="m0 0 0.199 1.623 3.891 6e-3 0.07 0.717s-2.445-4e-3 -2.84 8e-3c-0.556 0.021-1.095 0.416-0.947 1.4 1.035 0.01 4.174 8e-3 4.523 6e-3 0.711-6e-3 1.311-0.391 1.262-1.366-0.023-0.435-0.133-1.291-0.32-1.619-0.512-0.879-1.275-0.763-1.422-0.775-0.119-4e-3 -4.416 0-4.416 0" fill="#ef2c30"/>
  </g>
  <g transform="matrix(8.2081 0 0 -8.2081 195.47 -124.09)">
   <path d="m0 0s-0.057-0.325-0.1-0.532c-0.09-0.435-0.353-0.844-0.972-0.844h-2.756l-0.334-2.352-1.996-1e-3 0.476 3.729z" fill="#ef2c30"/>
  </g>
  <g transform="matrix(8.2081 0 0 -8.2081 199.04 -124.09)">
   <path d="m0 0h2.053l-0.533-3.714-2.032-4e-3z" fill="#ef2c30"/>
  </g>
  <g transform="matrix(8.2081 0 0 -8.2081 231.41 -124.09)">
   <path d="m0 0h1.996l-0.471-3.728-1.996-1e-3z" fill="#ef2c30"/>
  </g>
  <g transform="matrix(8.2081 0 0 -8.2081 49.469 -124.29)">
   <path d="m0 0h5.299l-0.188-1.426-3.277-3e-3 -0.092-0.696 3.278-6e-3 -0.198-1.635h-5.269z" fill="#ef2c30"/>
  </g>
  <g transform="matrix(8.2081 0 0 -8.2081 51.649 -64.977)">
   <path d="m0 0c0.531 0 0.727 0.048 0.961 0.249 0.115 0.105 0.209 0.244 0.279 0.391 0.104 0.234 0.141 0.555 0.114 0.846-0.032 0.283-0.153 0.533-0.34 0.677-0.18 0.144-0.366 0.199-0.7 0.199h-0.498l-0.298-2.362zm0.395 2.94c0.498 0 0.806-0.087 1.074-0.308 0.326-0.268 0.506-0.637 0.558-1.148 0.08-0.742-0.166-1.395-0.662-1.762-0.318-0.234-0.609-0.303-1.248-0.303h-1.34l0.436 3.521z" fill="#231f20"/>
  </g>
  <g transform="matrix(8.2081 0 0 -8.2081 108.78 -75.021)">
   <path d="m0 0c0.396 0 0.58 0.072 0.697 0.279 0.067 0.114 0.096 0.266 0.082 0.41-0.033 0.286-0.24 0.45-0.572 0.45h-0.596l-0.146-1.139zm-0.764-1.805h-0.662l0.434 3.522h1.25c0.705 0 1.129-0.352 1.199-0.998 0.049-0.451-0.117-0.863-0.445-1.08-0.219-0.147-0.461-0.203-0.914-0.203h-0.7z" fill="#231f20"/>
  </g>
  <g transform="matrix(8.2081 0 0 -8.2081 136.15 -85.081)">
   <path d="m0 0c-0.674 0-1.129-0.705-1.039-1.581 0.062-0.598 0.416-0.957 0.945-0.957 0.686 0 1.121 0.676 1.026 1.592-0.061 0.591-0.409 0.946-0.932 0.946m-0.098-3.117c-0.92 0-1.515 0.569-1.617 1.548-0.131 1.235 0.576 2.152 1.67 2.152 0.906 0 1.553-0.611 1.652-1.548 0.129-1.241-0.591-2.152-1.705-2.152" fill="#231f20"/>
  </g>
  <g transform="matrix(8.2081 0 0 -8.2081 163.4 -75.79)">
   <path d="m0 0c0.48 0 0.717 0.215 0.674 0.625-0.033 0.292-0.24 0.438-0.621 0.438h-0.682l-0.137-1.063zm-0.998-1.898h-0.67l0.438 3.521h1.263c0.551 0 0.844-0.088 1.065-0.344 0.142-0.148 0.234-0.362 0.257-0.593 0.063-0.579-0.218-0.981-0.769-1.122l0.598-1.462h-0.686l-0.555 1.38h-0.771z" fill="#231f20"/>
  </g>
  <g transform="matrix(8.2081 0 0 -8.2081 197.34 -84.143)">
   <path d="m0 0h-0.955l-0.365-2.916h-0.664l0.363 2.916h-1.016l0.078 0.605h2.639z" fill="#231f20"/>
  </g>
  <g transform="matrix(8.2081 0 0 -8.2081 220.54 -84.143)">
   <path d="m0 0h-1.842l-0.103-0.787h1.697l-0.074-0.584h-1.688l-0.123-0.936h2.026l-0.075-0.609h-2.693l0.436 3.521h2.519z" fill="#231f20"/>
  </g>
  <g transform="matrix(8.2081 0 0 -8.2081 240.03 -81.065)">
   <path d="m0 0c-0.129 0.314-0.406 0.489-0.781 0.489-0.354 0-0.58-0.161-0.555-0.406 0.022-0.194 0.106-0.269 0.5-0.413l0.508-0.191c0.289-0.104 0.414-0.175 0.549-0.29 0.183-0.158 0.285-0.355 0.312-0.611 0.071-0.713-0.471-1.206-1.334-1.206-0.443 0-0.799 0.119-1.097 0.37-0.219 0.189-0.303 0.313-0.428 0.636l0.617 0.256c0.106-0.44 0.426-0.683 0.885-0.683 0.402 0 0.648 0.206 0.617 0.512-0.021 0.217-0.154 0.356-0.428 0.451l-0.385 0.132c-0.398 0.132-0.611 0.255-0.777 0.433-0.142 0.154-0.23 0.337-0.25 0.546-0.064 0.612 0.444 1.047 1.217 1.047 0.338 0 0.658-0.092 0.908-0.256 0.209-0.132 0.307-0.232 0.479-0.512z" fill="#231f20"/>
  </g>
  <g transform="matrix(8.2081 0 0 -8.2081 70.453 -77.634)">
   <path d="m0 0h3.141l-0.098-0.837h-1.963l-0.051-0.399h1.965l-0.119-0.961h-3.148z" fill="#ef2c30"/>
  </g>
  <g transform="matrix(8.2081 0 0 -8.2081 71.913 -89.161)">
   <path d="m0 0h3.148l-0.132-1.031h-3.137z" fill="#ef2c30"/>
  </g>
 </g>
</svg>
