<svg width="800" height="245.24" version="1.1" viewBox="0 0 211.67 64.886" xmlns="http://www.w3.org/2000/svg">
 <g transform="translate(-37.286 83.494)">
  <path d="m248.95-18.609h-211.67v-27.074h211.67z" fill="#ea282c"/>
  <g transform="matrix(6.5271 0 0 -6.5271 37.475 -47.335)">
   <path d="m0 0h0.787v2.46h2.362v0.761h-2.362v1.559h2.732v0.759h-3.519z" fill="#231f20"/>
  </g>
  <g transform="matrix(6.5271 0 0 -6.5271 77.964 -60.035)">
   <path d="m0 0-1e-3 -0.159c0-0.286-0.03-0.5-0.096-0.642-0.083-0.184-0.216-0.33-0.396-0.438-0.182-0.107-0.389-0.162-0.622-0.162-0.23 0-0.408 0.057-0.524 0.163-0.116 0.111-0.172 0.241-0.172 0.405 0 0.104 0.026 0.2 0.079 0.288 0.051 0.084 0.125 0.149 0.224 0.193 0.104 0.044 0.284 0.091 0.54 0.13 0.422 0.063 0.74 0.135 0.968 0.222m0.769-1.407c-0.02 0.159-0.034 0.551-0.034 1.172v0.892c0 0.301-0.012 0.507-0.033 0.624-0.037 0.191-0.107 0.349-0.206 0.477-0.1 0.124-0.255 0.23-0.46 0.312-0.207 0.082-0.472 0.123-0.793 0.123-0.325 0-0.614-0.05-0.863-0.144s-0.447-0.236-0.579-0.412c-0.132-0.179-0.229-0.413-0.286-0.696l-0.014-0.057 0.744-0.106 0.013 0.05c0.065 0.268 0.16 0.452 0.294 0.552 0.127 0.101 0.338 0.15 0.617 0.15 0.298 0 0.524-0.072 0.673-0.209 0.107-0.103 0.158-0.283 0.158-0.543l-1e-3 -0.133c-0.234-0.08-0.597-0.154-1.072-0.215-0.251-0.031-0.441-0.064-0.568-0.101-0.175-0.051-0.334-0.127-0.472-0.223-0.139-0.106-0.256-0.241-0.344-0.407-0.088-0.164-0.13-0.35-0.13-0.55 0-0.345 0.119-0.627 0.348-0.851 0.228-0.217 0.558-0.332 0.98-0.332 0.254 0 0.494 0.049 0.715 0.135 0.195 0.077 0.398 0.208 0.601 0.381 0.026-0.145 0.059-0.277 0.11-0.392l0.013-0.036h0.776l-0.042 0.083c-0.072 0.146-0.119 0.298-0.145 0.456" fill="#231f20"/>
  </g>
  <g transform="matrix(6.5271 0 0 -6.5271 114.93 -74.348)">
   <path d="m0 0c-0.456 0-0.835-0.206-1.129-0.62-0.08 0.176-0.197 0.32-0.352 0.431-0.185 0.123-0.419 0.189-0.706 0.189-0.257 0-0.484-0.063-0.685-0.183-0.145-0.09-0.274-0.199-0.376-0.327v0.42h-0.674v-4.049h0.746v2.103c0 0.347 0.03 0.618 0.095 0.804 0.064 0.177 0.167 0.315 0.302 0.405 0.138 0.09 0.29 0.138 0.453 0.138 0.214 0 0.361-0.066 0.452-0.197 0.095-0.14 0.141-0.352 0.141-0.637v-2.616h0.746v2.345c0 0.391 0.081 0.675 0.242 0.847 0.161 0.174 0.36 0.258 0.604 0.258 0.13 0 0.247-0.032 0.342-0.099 0.097-0.065 0.162-0.147 0.199-0.253 0.037-0.112 0.058-0.299 0.058-0.557v-2.541h0.745v2.757c0 0.465-0.107 0.812-0.311 1.037-0.211 0.228-0.511 0.345-0.892 0.345" fill="#231f20"/>
  </g>
  <path d="m128.39-47.334h4.8627v-26.428h-4.8627z" fill="#231f20"/>
  <path d="m128.39-77.777h4.8627v-5.7112h-4.8627z" fill="#231f20"/>
  <path d="m138.89-47.334h4.8758v-36.154h-4.8758z" fill="#231f20"/>
  <g transform="matrix(6.5271 0 0 -6.5271 159.02 -58.52)">
   <path d="m0 0c-0.074-0.215-0.138-0.437-0.195-0.657-0.068 0.24-0.141 0.47-0.218 0.691l-0.789 2.301h-0.8l1.439-3.993-0.049-0.149c-0.089-0.256-0.152-0.419-0.19-0.481l-0.185-0.19c-0.136-0.074-0.344-0.097-0.659-5e-3l-0.083 0.02 0.103-0.743 0.031-0.012c0.154-0.057 0.296-0.085 0.423-0.085 0.212 0 0.399 0.056 0.55 0.166 0.152 0.106 0.291 0.272 0.403 0.499 0.083 0.162 0.204 0.463 0.356 0.891l1.396 4.082h-0.745z" fill="#231f20"/>
  </g>
  <g transform="matrix(6.5271 0 0 -6.5271 192 -83.491)">
   <path d="m0 0h-4.139v-0.76h1.673v-4.779h0.789v4.779h1.677z" fill="#231f20"/>
  </g>
  <g transform="matrix(6.5271 0 0 -6.5271 205.68 -60.035)">
   <path d="m0 0-1e-3 -0.159c0-0.286-0.034-0.5-0.096-0.642-0.084-0.184-0.215-0.33-0.397-0.438-0.182-0.107-0.391-0.162-0.624-0.162-0.23 0-0.406 0.057-0.522 0.163-0.116 0.111-0.173 0.241-0.173 0.405 0 0.104 0.029 0.2 0.08 0.288 0.053 0.084 0.127 0.149 0.222 0.193 0.104 0.044 0.289 0.09 0.541 0.13 0.421 0.063 0.739 0.135 0.97 0.222m0.768-1.407c-0.022 0.159-0.035 0.551-0.035 1.172v0.892c0 0.294-0.011 0.507-0.031 0.624-0.038 0.191-0.108 0.349-0.208 0.477-0.097 0.124-0.253 0.23-0.462 0.312-0.201 0.082-0.467 0.123-0.789 0.123-0.328 0-0.616-0.05-0.862-0.144-0.251-0.094-0.45-0.236-0.581-0.412-0.132-0.179-0.231-0.413-0.284-0.696l-0.014-0.057 0.742-0.106 0.013 0.05c0.063 0.268 0.162 0.45 0.291 0.552 0.131 0.101 0.336 0.15 0.618 0.15 0.3 0 0.526-0.072 0.676-0.209 0.104-0.103 0.159-0.283 0.159-0.543l-1e-3 -0.133c-0.241-0.08-0.6-0.154-1.074-0.215-0.247-0.031-0.441-0.064-0.57-0.101-0.171-0.051-0.33-0.127-0.468-0.223-0.143-0.106-0.262-0.242-0.346-0.407-0.086-0.162-0.13-0.348-0.13-0.55 0-0.345 0.117-0.627 0.348-0.851 0.226-0.217 0.56-0.332 0.981-0.332 0.253 0 0.495 0.049 0.716 0.135 0.194 0.077 0.398 0.207 0.601 0.381 0.022-0.147 0.056-0.277 0.106-0.392l0.017-0.036h0.772l-0.038 0.083c-0.074 0.146-0.121 0.298-0.147 0.456" fill="#231f20"/>
  </g>
  <path d="m216.23-47.334h4.8756v-36.154h-4.8756z" fill="#231f20"/>
  <g transform="matrix(6.5271 0 0 -6.5271 238.43 -63.789)">
   <path d="m0 0 1.466 1.528h-0.963l-1.391-1.502v2.993h-0.745v-5.54h0.745v1.6l0.366 0.381 1.204-1.981h0.896z" fill="#231f20"/>
  </g>
 </g>
</svg>
