<svg width="800" height="388.19" version="1.1" viewBox="0 0 800 388.19" xml:space="preserve" xmlns="http://www.w3.org/2000/svg" xmlns:xlink="http://www.w3.org/1999/xlink"><defs>
<linearGradient id="linearGradient1063" x2="1" gradientUnits="userSpaceOnUse"><stop stop-color="#fcec98" offset="0"/><stop stop-color="#f2d781" offset=".2126"/><stop stop-color="#deac58" offset=".5"/><stop stop-color="#866537" offset=".7874"/><stop stop-color="#6f532f" offset=".9096"/><stop stop-color="#664c2c" offset="1"/></linearGradient><linearGradient id="linearGradient1069" x2="1" gradientUnits="userSpaceOnUse"><stop stop-color="#977b65" offset="0"/><stop stop-color="#f9f899" offset=".6"/><stop stop-color="#f9f8a1" offset=".6839"/><stop stop-color="#f9f8b4" offset=".7832"/><stop stop-color="#f8f8d2" offset=".8889"/><stop stop-color="#f8f9f9" offset="1"/></linearGradient><linearGradient id="linearGradient1075" x2="1" gradientUnits="userSpaceOnUse"><stop stop-color="#ae8721" offset="0"/><stop stop-color="#b58d2f" offset=".2126"/><stop stop-color="#c59b52" offset=".5"/><stop stop-color="#c3ac5a" offset="1"/></linearGradient><linearGradient id="linearGradient1314" x2="1" gradientTransform="matrix(90.658 249.08 -249.08 90.658 116.19 80.31)" gradientUnits="userSpaceOnUse" xlink:href="#linearGradient1063"/><linearGradient id="linearGradient1316" x2="1" gradientTransform="matrix(111.69 306.86 -306.86 111.69 559.26 68.099)" gradientUnits="userSpaceOnUse" xlink:href="#linearGradient1063"/><linearGradient id="linearGradient1318" x2="1" gradientTransform="matrix(89.329 245.43 -245.43 89.329 347.14 97.056)" gradientUnits="userSpaceOnUse" xlink:href="#linearGradient1063"/><linearGradient id="linearGradient1320" x2="1" gradientTransform="matrix(106.42 292.39 -292.39 106.42 785.33 81.705)" gradientUnits="userSpaceOnUse" xlink:href="#linearGradient1069"/><linearGradient id="linearGradient1322" x2="1" gradientTransform="matrix(91.879 252.44 -252.44 91.879 700.55 141.01)" gradientUnits="userSpaceOnUse" xlink:href="#linearGradient1069"/><linearGradient id="linearGradient1324" x2="1" gradientTransform="matrix(85.237 234.19 -234.19 85.237 377.84 255.1)" gradientUnits="userSpaceOnUse" xlink:href="#linearGradient1069"/><linearGradient id="linearGradient1326" x2="1" gradientTransform="matrix(37.347 102.61 -102.61 37.347 234.8 380.34)" gradientUnits="userSpaceOnUse" xlink:href="#linearGradient1075"/><linearGradient id="linearGradient1328" x2="1" gradientTransform="matrix(34.701 95.34 -95.34 34.701 349.58 388.36)" gradientUnits="userSpaceOnUse" xlink:href="#linearGradient1075"/><linearGradient id="linearGradient1330" x2="1" gradientTransform="matrix(29.749 81.734 -81.734 29.749 423.2 395.34)" gradientUnits="userSpaceOnUse" xlink:href="#linearGradient1075"/><linearGradient id="linearGradient1332" x2="1" gradientTransform="matrix(38.034 104.5 -104.5 38.034 487.04 383.83)" gradientUnits="userSpaceOnUse" xlink:href="#linearGradient1075"/><linearGradient id="linearGradient1334" x2="1" gradientTransform="matrix(38.024 104.47 -104.47 38.024 590.65 383.83)" gradientUnits="userSpaceOnUse" xlink:href="#linearGradient1075"/><linearGradient id="linearGradient1336" x2="1" gradientTransform="matrix(34.713 95.371 -95.371 34.713 701.25 388.36)" gradientUnits="userSpaceOnUse" xlink:href="#linearGradient1075"/><linearGradient id="linearGradient1338" x2="1" gradientTransform="matrix(34.701 95.34 -95.34 34.701 813.24 388.36)" gradientUnits="userSpaceOnUse" xlink:href="#linearGradient1075"/><linearGradient id="linearGradient1340" x2="1" gradientTransform="matrix(37.685 103.53 -103.53 37.685 111.3 382.78)" gradientUnits="userSpaceOnUse" xlink:href="#linearGradient1075"/></defs>
<g transform="translate(-81.301 -90.704)"><path d="m81.463 92.807v254.59h75.536v-79.741h82.329v-71.816h-81.359v-33.967h95.107l-1.1322-69.066h-170.48" fill="url(#linearGradient1314)" stroke-width="265.06"/><path d="m494.56 91.513 77.638 121.47-83.138 134.41h90.093l37.202-56.45 37.687 56.45h92.034l-85.564-133.44 79.094-122.44h-92.196l-28.953 54.185-33.32-54.185h-90.578" fill="url(#linearGradient1316)" stroke-width="326.56"/><path class="st0" d="m391.69 90.704c-77.8 0-140.88 57.744-140.88 129.07 0 71.33 63.081 129.07 140.88 129.07 77.8 0 141.04-57.744 141.04-129.07-0.16174-71.33-63.243-129.07-141.04-129.07m24.424 71.33v108.37c0 12.454-1.4557 22.483-24.586 22.483-22.968 0-22.968-12.778-22.968-12.778v-118.08s-1.1322-18.277 23.939-18.277c25.233 0 23.615 18.277 23.615 18.277z" fill="url(#linearGradient1318)" stroke-width="261.18"/><path d="m843.13 379.26-84.755-287.75h81.197l38.011 287.75h-34.452" fill="url(#linearGradient1320)" stroke-width="311.16"/><path d="m682.68 212.18 104.49 167.08h43.672l-91.549-252.65-56.611 85.564" fill="url(#linearGradient1322)" stroke-width="268.64"/><path d="m765 379.42h-683.7v-16.336h673.35l10.352 16.336" fill="url(#linearGradient1324)" stroke-width="249.22"/><path class="st0" d="m303.22 452.53c0 7.2786-2.2645 13.263-6.7934 18.601-4.5289 5.1759-10.19 7.7638-17.307 7.7638h-56.288c-7.2786 0-12.94-2.5879-17.469-7.7638-4.5289-5.3376-6.6316-11.484-6.6316-18.601v-58.876h19.895v58.876c0 4.2054 1.294 6.4699 4.2054 6.4699h56.126c2.7497 0 4.2054-2.1027 4.2054-6.4699v-58.876h20.057v58.876" fill="url(#linearGradient1326)" stroke-width="109.19"/><path class="st0" d="m417.73 452.53c0 7.1169-2.1027 13.263-6.4699 18.277-4.6907 5.3376-10.514 7.9256-17.63 7.9256h-73.433v-19.895h73.433c2.7497 0 4.2054-2.1027 4.2054-6.3081s-1.294-6.4699-4.2054-6.4699h-53.538c-7.1169 0-12.94-2.588-17.469-7.9256-4.3672-5.0142-6.6316-10.999-6.6316-18.277s2.2645-13.263 6.7934-18.601c4.5289-5.1759 10.19-7.9256 17.307-7.9256h73.433v20.057h-73.433c-2.7497 0-4.2054 2.1027-4.2054 6.4699 0 4.2054 1.294 6.4699 4.2054 6.4699h53.538c7.1169 0 12.94 2.588 17.63 7.9256 4.2054 5.0142 6.4699 11.161 6.4699 18.277" fill="url(#linearGradient1328)" stroke-width="101.46"/><path d="m428.09 393.49h19.895v85.402h-19.895z" fill="url(#linearGradient1330)" stroke-width="86.979"/><path d="m551.5 478.9h-19.895l-51.112-57.582v57.582h-19.895v-85.402h19.895l51.112 57.097v-57.097h19.895v85.402" fill="url(#linearGradient1332)" stroke-width="111.2"/><path d="m655.02 413.55h-70.845v12.778h66.154v19.895h-66.154v12.616h70.683v20.057h-90.74v-85.402h90.902v20.057" fill="url(#linearGradient1334)" stroke-width="111.17"/><path class="st0" d="m769.21 452.53c0 7.1169-2.1027 13.263-6.4699 18.277-4.6907 5.3376-10.352 7.9256-17.63 7.9256h-73.271v-19.895h73.271c2.7497 0 4.2054-2.1027 4.2054-6.3081s-1.294-6.4699-4.2054-6.4699h-53.376c-7.1169 0-12.94-2.588-17.63-7.9256-4.3672-5.0142-6.6316-10.999-6.6316-18.277s2.2645-13.263 6.7934-18.601 10.19-7.9256 17.307-7.9256h73.271v20.057h-73.271c-2.7497 0-4.2054 2.1027-4.2054 6.4699 0 4.2054 1.294 6.4699 4.2054 6.4699h53.538c7.1169 0 12.94 2.588 17.63 7.9256 4.3672 5.0142 6.4699 11.161 6.4699 18.277" fill="url(#linearGradient1336)" stroke-width="101.49"/><path class="st0" d="m881.3 452.53c0 7.1169-2.1027 13.263-6.4699 18.277-4.6907 5.3376-10.514 7.9256-17.469 7.9256h-73.595v-19.895h73.433c2.7497 0 4.2054-2.1027 4.2054-6.3081s-1.294-6.4699-4.2054-6.4699h-53.376c-7.1169 0-12.778-2.588-17.63-7.9256-4.3672-5.0142-6.4699-10.999-6.4699-18.277s2.2644-13.263 6.7934-18.601c4.5289-5.3376 10.19-7.9256 17.307-7.9256h73.433v20.057h-73.433c-2.7497 0-4.2054 2.1027-4.2054 6.4699 0 4.2054 1.294 6.4699 4.2054 6.4699h53.538c6.9551 0 12.778 2.588 17.469 7.9256 4.3672 5.0142 6.4699 11.161 6.4699 18.277" fill="url(#linearGradient1338)" stroke-width="101.46"/><path class="st0" d="m177.86 435.71c6.9551 4.2054 10.352 10.999 10.352 19.733 0 6.4699-1.941 11.808-6.1464 16.175-4.3672 5.0142-10.19 7.2786-17.792 7.2786h-82.491v-85.402h81.035c7.4404 0 13.425 2.588 17.792 7.2786 4.0437 4.3672 5.9846 9.8666 5.9846 16.336 0 7.9256-2.9114 14.072-8.7343 18.601m-15.204-9.2196c2.7497 0 4.2054-2.1027 4.2054-6.4699 0-4.2054-1.294-6.4699-4.2054-6.4699h-60.979v12.94zm1.4557 32.349c2.9114 0 4.3672-2.1027 4.3672-6.3081s-1.4557-6.4699-4.3672-6.4699h-62.596v12.778z" fill="url(#linearGradient1340)" stroke-width="110.18"/></g>
</svg>
