<svg width="800" height="166.52" version="1.1" viewBox="0 0 211.67 44.058" xmlns="http://www.w3.org/2000/svg">
 <g transform="translate(-47.209 70.197)" fill="#cba66a">
  <g transform="matrix(6.8787 0 0 -6.8787 54.487 -26.142)">
   <path d="m0 0v2.844h5.133v-2.844h1.062v6.404h-1.062v-2.599h-5.133v2.599h-1.058v-6.404h0.48z" fill="#cba66a"/>
  </g>
  <g transform="matrix(6.8787 0 0 -6.8787 216.96 -30.455)">
   <path d="m0 0c0.651-0.42 1.512-0.627 2.585-0.627 1.068 0 1.926 0.207 2.565 0.627 0.63 0.396 0.944 0.922 0.944 1.568v4.209h-1.029v-3.961c0-0.121-0.014-0.232-0.04-0.339-0.042-0.161-0.109-0.307-0.208-0.438-0.096-0.129-0.225-0.24-0.383-0.338-0.105-0.064-0.222-0.121-0.353-0.168-0.324-0.121-0.726-0.193-1.202-0.211-0.094-4e-3 -0.194-4e-3 -0.294-4e-3 -0.102 0-0.202 0-0.296 4e-3 -0.479 0.018-0.883 0.09-1.21 0.211-0.129 0.047-0.249 0.104-0.354 0.168-0.161 0.098-0.29 0.209-0.389 0.338-0.101 0.131-0.17 0.277-0.212 0.438-0.023 0.107-0.039 0.218-0.039 0.339v3.961h-1.03v-4.209c0-0.636 0.315-1.164 0.945-1.568" fill="#cba66a"/>
  </g>
  <g transform="matrix(6.8787 0 0 -6.8787 163.92 -31.704)">
   <path d="m0 0c0.713-0.541 1.601-0.809 2.65-0.809h3.289v0.918h-3.289c-0.829 0-1.515 0.215-2.045 0.645-0.521 0.426-0.783 0.965-0.788 1.619v0.035c5e-3 0.655 0.267 1.197 0.788 1.625 0.53 0.424 1.213 0.641 2.045 0.641h3.289v0.922h-3.289c-1.056 0-1.937-0.272-2.65-0.813-0.814-0.613-1.226-1.41-1.23-2.383v-0.019c4e-3 -0.973 0.416-1.764 1.23-2.381" fill="#cba66a"/>
  </g>
  <g transform="matrix(6.8787 0 0 -6.8787 108.98 -32.712)">
   <path d="m0 0v1.811h4.22c0.772 0 1.158-0.311 1.158-0.938l-0.019-0.203-0.053-0.156c-0.16-0.344-0.578-0.514-1.254-0.514zm0 4.492h4.176c0.306 0 0.548-0.08 0.722-0.23 0.107-0.096 0.179-0.209 0.221-0.338 0.029-0.09 0.048-0.18 0.048-0.285 0-0.243-0.101-0.451-0.3-0.618-0.195-0.169-0.442-0.253-0.736-0.253h-4.131zm6.468-3.769c0 0.832-0.367 1.371-1.099 1.621 0.555 0.316 0.83 0.767 0.83 1.351 0 0.532-0.185 0.957-0.555 1.276-0.374 0.318-0.882 0.478-1.531 0.478h-5.175v-6.404h5.105c1.616 0 2.425 0.559 2.425 1.678" fill="#cba66a"/>
  </g>
 </g>
</svg>
