<svg width="1e3" height="1e3" enable-background="new 0 0 1000 1000.016" space="preserve" version="1.1" viewBox="0 0 1e3 1e3" xmlns="http://www.w3.org/2000/svg">
 <link href="" rel="stylesheet" type="text/css"/>
 <style type="text/css"/>
 <path d="m957.75 0h-915.5c-23.242 0-42.249 18.99-42.249 42.215v915.52c0 23.257 19.007 42.279 42.249 42.279h915.5c23.224 0 42.246-19.022 42.246-42.279v-915.52c0-23.225-19.022-42.215-42.246-42.215" fill="#1e49d4"/>
 <polygon points="285.54 538.87 196.88 538.87 196.88 649.96 119.75 649.96 119.75 350.02 196.88 350.02 196.88 462.74 285.54 462.74 285.54 350.02 362.68 350.02 362.68 649.96 285.54 649.96" fill="#fff"/>
 <path d="m596.68 649.96h-142.9c-34.886-0.99-46.366-15.018-46.366-49.525v-250.41h77.133v217.89c0 6.915 2.747 10.587 11.001 10.587h101.14z" fill="#fff"/>
 <path d="m880.27 649.96h-58.891c-9.461 0-16.012-4.896-21.139-11.977l-86.283-144.08h-0.891v156.06h-71.792v-299.94h45.456c14.725 0 22.1 2.714 29.444 13.267l91.906 158.67h0.928v-171.94h71.261v299.94z" fill="#fff"/>
</svg>
