<svg width="800" height="305.06" version="1.1" viewBox="0 0 211.67 80.714" xmlns="http://www.w3.org/2000/svg">
 <g transform="translate(-57.043 101.88)">
  <g transform="matrix(5.7037 0 0 -5.7037 268.71 -29.998)">
   <path d="m0 0c0-0.856-0.673-1.549-1.505-1.549h-18.51c-0.833 0-1.508 0.693-1.508 1.549v10.875c0 0.857 0.675 1.55 1.508 1.55h18.51c0.832 0 1.505-0.693 1.505-1.55z" fill="#fff"/>
  </g>
  <g transform="matrix(5.7037 0 0 -5.7037 178.81 -27.861)">
   <path d="m0 0h-1.749v4.626h-0.781l4e-3 1.343h2.526z" fill="#231f20"/>
  </g>
  <g transform="matrix(5.7037 0 0 -5.7037 245.05 -27.861)">
   <path d="m0 0h-1.751v4.626h-0.779v1.343h2.53z" fill="#231f20"/>
  </g>
  <g transform="matrix(5.7037 0 0 -5.7037 137.75 -64.597)">
   <path d="m0 0v4.931s0 1.428-1.424 1.428h-9.517v-3.77h4.93v2.788h1.449v-5.377z" fill="#4d708c"/>
  </g>
  <g transform="matrix(5.7037 0 0 -5.7037 75.341 -58.678)">
   <path d="m0 0h-1.447v2.605h-0.972v1.197h0.972v3.772h-0.333s-1.428 0-1.428-1.428v-11.297s0-1.426 1.428-1.426h11.297s1.424 0 1.424 1.426v5.151h-7.941v-1.574h6.134c0.392 0 0.664-0.283 0.658-0.608v-2.59c0-0.316-0.26-0.606-0.658-0.606h-7.585v1.205h6.786v1.4h-6.134c-0.402 0-0.652 0.291-0.652 0.609v2.77c-6e-3 0.316 0.258 0.607 0.652 0.607h2.729v1.392h-4.93z" fill="#fff"/>
  </g>
  <g transform="matrix(5.7037 0 0 -5.7037 156.18 -65.447)">
   <path d="m0 0v4.98h0.985v-1.804h0.352v1.804h0.985v-4.98h-0.985v2.378h-0.352v-2.378z" fill="#85acc3"/>
  </g>
  <g transform="matrix(5.7037 0 0 -5.7037 180.56 -88.313)">
   <path d="m0 0c0 0.138-0.023 0.326-0.177 0.326s-0.175-0.188-0.175-0.326v-3.036c0-0.14 0.021-0.328 0.175-0.328s0.177 0.188 0.177 0.328zm-1.339 0.16c0 0.663 0.554 0.909 1.162 0.909 0.61 0 1.164-0.246 1.164-0.909v-3.357c0-0.664-0.554-0.908-1.164-0.908-0.608 0-1.162 0.244-1.162 0.908z" fill="#85acc3"/>
  </g>
  <g transform="matrix(5.7037 0 0 -5.7037 203.07 -93.853)">
   <path d="m0 0 0.279-3.267h0.015l0.251 3.267h0.987l-0.693-4.98h-1.13l-0.338 3.477h-0.012l-0.379-3.477h-1.106l-0.504 4.98h0.987l0.202-3.267h0.015l0.356 3.267z" fill="#85acc3"/>
  </g>
  <g transform="matrix(5.7037 0 0 -5.7037 218.82 -77.263)">
   <path d="m0 0-0.131 2.04h-0.027l-0.163-2.04zm-0.7 2.909h1.31l0.593-4.981h-1.026l-0.113 1.357h-0.47l-0.152-1.357h-0.881z" fill="#85acc3"/>
  </g>
  <g transform="matrix(5.7037 0 0 -5.7037 233.11 -82.007)">
   <path d="m0 0h0.119c0.16 0 0.229 0.078 0.229 0.315v0.733c0 0.239-0.069 0.316-0.229 0.316h-0.119zm-0.985-2.903v4.98h1.16c0.608 0 1.16-0.245 1.16-1.006v-0.441c0-0.371-0.169-0.777-0.762-0.812v-0.013c0.624-0.037 0.762-0.273 0.762-0.839v-0.987c0-0.483 0.091-0.686 0.147-0.882h-0.999c-0.071 0.141-0.135 0.301-0.135 0.645v1.132c0 0.308 0 0.551-0.348 0.551v-2.328z" fill="#85acc3"/>
  </g>
  <g transform="matrix(5.7037 0 0 -5.7037 249.06 -69.52)">
   <path d="m0 0h0.175c0.156 0 0.175 0.189 0.175 0.329v2.894c0 0.141-0.019 0.33-0.175 0.33h-0.175zm-0.987 4.266h1.162c0.61 0 1.16-0.244 1.16-0.91v-3.159c0-0.665-0.55-0.911-1.16-0.911h-1.162z" fill="#85acc3"/>
  </g>
  <g transform="matrix(5.7037 0 0 -5.7037 203.25 -54.533)">
   <path d="m0 0c-0.947 0-1.224-0.204-1.224-1.247v-0.876c0-0.979 0.293-1.201 1.224-1.201h0.883c0.953 0 1.222 0.23 1.222 1.215v0.903c0 1.002-0.269 1.206-1.222 1.206zm3.379 0.979c0.387-0.338 0.558-0.92 0.558-1.807v-1.666c0-0.879-0.171-1.47-0.558-1.805-0.429-0.371-1.06-0.421-1.996-0.421h-1.881c-0.918 0-1.553 0.042-2 0.421-0.413 0.343-0.565 0.919-0.565 1.771v1.624c0 0.921 0.136 1.521 0.556 1.883 0.425 0.362 1.056 0.418 2.001 0.418h1.889c0.941 0 1.576-0.048 1.996-0.418" fill="#231f20"/>
  </g>
 </g>
</svg>
