<svg width="800" height="425.69" version="1.1" viewBox="0 0 211.67 112.63" xmlns="http://www.w3.org/2000/svg">
 <g transform="translate(-37.286 131.24)">
  <g transform="matrix(6.8172 0 0 -6.8172 143.2 -96.584)">
   <path d="m0 0v-0.134h4e-3v-2.024c0-0.213 0.241-0.384 0.543-0.384h0.136c0.3 0 0.545 0.171 0.545 0.384v3.961c0 0.211-0.245 0.385-0.545 0.385h-0.136c-0.302 0-0.543-0.174-0.543-0.385v-0.803h-1.085v0.803c0 0.211-0.244 0.385-0.541 0.385h-0.14c-0.3 0-0.542-0.174-0.542-0.385v-3.961c0-0.213 0.242-0.384 0.542-0.384h0.14c0.297 0 0.541 0.171 0.541 0.384v1.648l-3e-3 0.02v0.49c0 0.096 0.242 0.177 0.541 0.177s0.543-0.081 0.543-0.177" fill="#8b1b8e"/>
  </g>
  <g transform="matrix(6.8172 0 0 -6.8172 175.7 -79.113)">
   <path d="m0 0c0.945 0 1.715 0.252 1.715 0.564v3.733c0 0.248-0.29 0.453-0.641 0.453h-0.162c-0.353 0-0.642-0.205-0.642-0.453v-3.388c0-0.05-0.121-0.088-0.27-0.088-0.151 0-0.274 0.038-0.274 0.088v3.388c0 0.248-0.286 0.453-0.641 0.453h-0.158c-0.357 0-0.642-0.205-0.642-0.453v-3.733c0-0.312 0.769-0.564 1.715-0.564" fill="#8b1b8e"/>
  </g>
  <g transform="matrix(6.8172 0 0 -6.8172 209.07 -105.27)">
   <path d="m0 0c0 0.153 0.127 0.282 0.285 0.282h0.107c0.155 0 0.283-0.129 0.283-0.282v-1.835c0-0.157-0.128-0.288-0.283-0.288h-0.107c-0.158 0-0.285 0.131-0.285 0.288zm-0.865-3.834h0.159c0.354 0 0.643 0.204 0.643 0.454v0.515c0.124-8e-3 0.251-0.013 0.384-0.013l0.256 5e-3 0.734-0.761c0.111-0.112 0.431-0.205 0.712-0.189l0.127 0.01c0.283 0.015 0.419 0.141 0.307 0.253l-0.843 0.876c0.258 0.101 0.412 0.229 0.412 0.368v2.667c0 0.31-0.762 0.56-1.705 0.56h-1.186c-0.353 0-0.641-0.204-0.641-0.454v-3.837c0-0.25 0.288-0.454 0.641-0.454" fill="#8b1b8e"/>
  </g>
  <g transform="matrix(6.8172 0 0 -6.8172 158.35 -78.438)">
   <path d="m0 0c-0.269 0.037-0.518-0.155-0.553-0.429l-0.49-3.53-0.489 3.53c-0.036 0.274-0.284 0.466-0.554 0.429-0.268-0.039-0.456-0.289-0.42-0.56l0.875-6.33c0.036-0.274 0.18-0.427 0.585-0.427 0.403 0 0.553 0.153 0.591 0.427l0.875 6.33c0.038 0.271-0.149 0.521-0.42 0.56" fill="#8b1b8e"/>
  </g>
  <g transform="matrix(6.8172 0 0 -6.8172 187.8 -28.557)">
   <path d="m0 0c0.254 0 0.462 0.204 0.462 0.463v6.372c0 0.254-0.208 0.461-0.462 0.461h-0.166c-0.258 0-0.464-0.207-0.464-0.461v-6.372c0-0.259 0.206-0.463 0.464-0.463z" fill="#8b1b8e"/>
  </g>
  <g transform="matrix(6.8172 0 0 -6.8172 173.88 -36.001)">
   <path d="m0 0c0-0.17-0.134-0.302-0.299-0.302-0.166 0-0.303 0.132-0.303 0.302v5.113c0 0.168 0.137 0.305 0.303 0.305 0.165 0 0.299-0.137 0.299-0.305zm-0.299 6.204c-0.706 0-1.276-0.569-1.276-1.274v-4.745c0-0.707 0.57-1.277 1.276-1.277 0.702 0 1.275 0.57 1.275 1.277v4.745c0 0.705-0.573 1.274-1.275 1.274" fill="#8b1b8e"/>
  </g>
  <g transform="matrix(6.8172 0 0 -6.8172 215.29 -28.557)">
   <path d="m0 0h1.777c0.233 0 0.422 0.188 0.422 0.422 0 0.23-0.189 0.421-0.422 0.421h-1.106c-0.069 0.052-0.126 0.916-0.126 1.975 0 1.061 0.057 1.927 0.126 1.977v4e-3h1.162c0.234 0 0.425 0.187 0.425 0.42s-0.191 0.421-0.425 0.421h-1.162v3e-3c-0.069 8e-3 -0.126 0.182-0.126 0.399 0 0.213 0.057 0.391 0.126 0.398h1.162c0.234 0 0.425 0.192 0.425 0.425 0 0.232-0.191 0.418-0.425 0.418h-1.777l-0.205-0.05c-0.161-0.073-0.275-0.233-0.275-0.422v-6.334l4e-3 -0.029-4e-3 -0.026c0-0.234 0.189-0.422 0.424-0.422" fill="#8b1b8e"/>
  </g>
  <g transform="matrix(6.8172 0 0 -6.8172 204.02 -67.177)">
   <path d="m0 0v-0.438c0-0.241 0.199-0.437 0.443-0.437 0.242 0 0.438 0.196 0.438 0.437v0.901c0 0.651-0.529 1.181-1.181 1.181-0.654 0-1.18-0.53-1.18-1.181v-4.948c0-0.651 0.526-1.18 1.18-1.18 0.652 0 1.181 0.529 1.181 1.18v0.925c0 0.243-0.196 0.439-0.438 0.439-0.244 0-0.443-0.196-0.443-0.439v-1.041c0-0.169-0.133-0.302-0.3-0.302-0.168 0-0.303 0.133-0.303 0.302v5.155c0 0.167 0.135 0.298 0.303 0.298 0.167 0 0.3-0.131 0.3-0.298v-0.297z" fill="#8b1b8e"/>
  </g>
  <g transform="matrix(6.8172 0 0 -6.8172 242.01 -78.298)">
   <path d="m0 0h-0.254c-0.563 0-1.019-0.32-1.019-0.72v-1.229c4e-3 -0.171 0.024-0.597 0.141-0.815l0.014-0.024v-3e-3l0.027-0.046c0.133-0.234 0.458-0.782 0.723-1.224 0.114-0.193 0.206-0.35 0.243-0.419 0.124-0.228 0.137-0.684 0.137-0.838v-0.054h-3e-3 3e-3v-0.496l-3e-3 -0.06v-0.355c0-0.122-0.099-0.221-0.22-0.221-0.122 0-0.223 0.099-0.223 0.221v0.607l7e-3 0.032v0.347c0 0.235-0.193 0.423-0.424 0.423s-0.422-0.188-0.422-0.423v-1.279c0-0.399 0.456-0.72 1.019-0.72h0.254c0.562 0 1.018 0.321 1.018 0.72v1.727l-1e-3 3e-3c-4e-3 0.17-0.02 0.596-0.138 0.814l-0.014 0.026v2e-3l-0.027 0.045c-0.05 0.09-0.127 0.224-0.222 0.381-0.297 0.493-0.66 1.103-0.745 1.263-0.149 0.277-0.14 0.892-0.14 0.892h4e-3v0.41c0 0.125 0.1 0.222 0.224 0.222 0.119 0 0.221-0.097 0.221-0.222v-0.607l-5e-3 -0.033v-0.127c0-0.233 0.189-0.424 0.42-0.424 0.234 0 0.423 0.191 0.423 0.424v1.06c0 0.4-0.456 0.72-1.018 0.72" fill="#8b1b8e"/>
  </g>
  <g transform="matrix(6.8172 0 0 -6.8172 83.314 -62.15)">
   <path d="m0 0c0.378-0.112 0.983-1.383 1.927-1.269 0.946 0.113 1.1 0.591 1.777 0.64 1.02 0.079 2.922 0.775 1.594 1.723-0.84 0.601-0.926 0.739-1.019 1.168-0.872 4.01-0.91 7.868-0.91 7.868s-0.457 0.108-0.572-0.761c-0.185-1.43-0.604-7.064-0.19-7.82 0.221-0.399 1.097-0.644 0.947-1.094-0.151-0.455-0.415-0.644-0.908-0.798-0.492-0.15-1.323-0.074-1.663 0.266-0.341 0.341-0.871 0.606-1.398 0.266-0.531-0.341 0.037-0.077 0.415-0.189" fill="#8b1b8e"/>
  </g>
  <g transform="matrix(6.8172 0 0 -6.8172 63.069 -116.29)">
   <path d="m0 0c-2.686 0.159-3.782-0.429-3.782-0.429l1.6-0.362c1.508-0.559 1.633-1.944 3.323-1.277 1.687 0.666 1.118 1.932-1.141 2.068" fill="#8b1b8e"/>
  </g>
  <g transform="matrix(6.8172 0 0 -6.8172 86.273 -41.873)">
   <path d="m0 0c-1.696-0.517-2.082-1.144-2.082-1.144s1.667 0.428 3.925 0.102c1.642-0.24 2.456 0.722 2.456 0.722s-1.091-1.667-2.689-1.917c-1.26-0.2-3.104 0.985-3.104 0.985s2.172-2.299 3.717-2.154c1.546 0.137 3.482 2.618 3.482 2.618-1.044 0.615-2.066 1-2.811 1.153-0.746 0.153-2.302-0.19-2.894-0.365" fill="#8b1b8e"/>
  </g>
  <g transform="matrix(6.8172 0 0 -6.8172 158.43 -87.244)">
   <path d="m0 0h-0.136c-0.302 0-0.546-0.176-0.546-0.388v-0.314c0-0.213 0.244-0.384 0.546-0.384h0.136c0.299 0 0.541 0.171 0.541 0.384v0.314c0 0.212-0.242 0.388-0.541 0.388" fill="#8b1b8e"/>
  </g>
  <g transform="matrix(6.8172 0 0 -6.8172 192.7 -79.838)">
   <path d="m0 0h0.135c0.299 0 0.544 0.172 0.544 0.385v0.313c0 0.212-0.245 0.388-0.544 0.388h-0.135c-0.302 0-0.546-0.176-0.546-0.388v-0.313c0-0.213 0.244-0.385 0.546-0.385" fill="#8b1b8e"/>
  </g>
  <g transform="matrix(6.8172 0 0 -6.8172 230.97 -79.838)">
   <path d="m0 0h0.136c0.301 0 0.546 0.172 0.546 0.385v0.313c0 0.212-0.245 0.388-0.546 0.388h-0.136c-0.303 0-0.545-0.176-0.545-0.388v-0.313c0-0.213 0.242-0.385 0.545-0.385" fill="#8b1b8e"/>
  </g>
 </g>
</svg>
