<svg width="800" height="321.89" version="1.1" viewBox="0 0 211.67 85.167" xmlns="http://www.w3.org/2000/svg">
 <g transform="translate(-47.209 111.31)">
  <g transform="matrix(5.5954 0 0 -5.5954 203.68 -98.172)" fill="#fff">
   <path d="m0 0c-0.109 0-0.202-0.096-0.202-0.211v-2.847c0-0.118 0.089-0.212 0.202-0.212 0.119 0 0.207 0.091 0.207 0.212v2.847c0 0.12-0.088 0.211-0.207 0.211" fill="#fff"/>
  </g>
  <g transform="matrix(5.5954 0 0 -5.5954 251.5 -95.918)" fill="#fff">
   <path d="m0 0c0.283 0 0.52-0.092 0.682-0.274 0.17-0.178 0.247-0.435 0.226-0.734l-0.068-0.061h-1.793c-4e-3 0.36 0.087 0.636 0.265 0.82 0.16 0.166 0.393 0.249 0.688 0.249m5e-3 0.4c-0.77 0-1.302-0.496-1.354-1.271-0.013-0.187-0.018-0.435-5e-3 -0.662 0.044-0.858 0.564-1.371 1.393-1.371 0.384 0 0.764 0.079 0.966 0.2 0.1 0.065 0.118 0.137 0.118 0.192 0 0.095-0.072 0.196-0.206 0.196l-0.106-0.022c-0.299-0.109-0.56-0.166-0.777-0.166-0.606 0-0.983 0.383-0.983 0.997l-4e-3 0.035h1.89c0.244 0 0.381 0.128 0.381 0.355v0.206c0 0.786-0.525 1.311-1.313 1.311" fill="#fff"/>
  </g>
  <g transform="matrix(5.5954 0 0 -5.5954 159.25 -98.153)" fill="#fff">
   <path d="m0 0c-0.491 0-0.815-0.22-1.009-0.353h-4e-3c-0.227 0.244-0.52 0.353-0.925 0.353-0.391 0-0.807-0.123-1.058-0.312-0.094-0.063-0.126-0.123-0.126-0.224v-2.519c0-0.121 0.084-0.214 0.2-0.214 0.12 0 0.21 0.093 0.21 0.214v2.446c0.041 0.036 0.267 0.211 0.791 0.211 0.502 0 0.737-0.251 0.737-0.787v-1.87c0-0.121 0.088-0.214 0.204-0.214 0.121 0 0.207 0.093 0.207 0.214v1.902c0 0.203-0.029 0.355-0.05 0.451 0.252 0.203 0.528 0.304 0.817 0.304 0.51 0 0.758-0.259 0.758-0.787v-1.87c0-0.121 0.092-0.214 0.21-0.214 0.114 0 0.206 0.093 0.206 0.214v1.902c0 0.755-0.404 1.153-1.168 1.153" fill="#fff"/>
  </g>
  <g transform="matrix(5.5954 0 0 -5.5954 239.72 -98.153)" fill="#fff">
   <path d="m0 0c-0.113 0-0.207-0.093-0.207-0.208v-1.715c0-0.587-0.365-0.982-0.911-0.982-0.547 0-0.91 0.395-0.91 0.982v1.715c0 0.115-0.091 0.208-0.206 0.208-0.112 0-0.207-0.093-0.207-0.208v-1.72c0-0.795 0.557-1.375 1.323-1.375s1.323 0.58 1.323 1.375v1.72c0 0.115-0.095 0.208-0.205 0.208" fill="#fff"/>
  </g>
  <g transform="matrix(5.5954 0 0 -5.5954 182.65 -98.153)" fill="#fff">
   <path d="m0 0c-0.114 0-0.207-0.093-0.207-0.208v-1.715c0-0.587-0.367-0.982-0.913-0.982-0.544 0-0.909 0.395-0.909 0.982v1.715c0 0.115-0.092 0.208-0.206 0.208-0.113 0-0.206-0.093-0.206-0.208v-1.72c0-0.795 0.559-1.375 1.321-1.375 0.768 0 1.322 0.58 1.322 1.375v1.72c0 0.115-0.089 0.208-0.202 0.208" fill="#fff"/>
  </g>
  <g transform="matrix(5.5954 0 0 -5.5954 215.58 -81.896)" fill="#fff">
   <path d="m0 0c-0.512 0-0.906 0.382-0.957 0.927-0.017 0.232-0.017 0.429 0 0.663 0.051 0.541 0.445 0.921 0.957 0.921 0.524 0 0.921-0.38 0.966-0.921 0.025-0.234 0.025-0.431 0-0.663-0.045-0.545-0.442-0.927-0.966-0.927m1.383 1.606c-0.052 0.742-0.646 1.299-1.383 1.299-0.735 0-1.31-0.544-1.367-1.299-0.019-0.247-0.019-0.45 0-0.704 0.049-0.75 0.628-1.3 1.367-1.3 0.737 0 1.331 0.561 1.383 1.3 0.02 0.254 0.02 0.457 0 0.704" fill="#fff"/>
  </g>
  <g transform="matrix(5.5954 0 0 -5.5954 218.99 -76.481)" fill="#fff">
   <path d="m0 0c0 0.11-0.094 0.203-0.21 0.203h-0.779c-0.119 0-0.213-0.093-0.213-0.203 0-0.119 0.092-0.207 0.213-0.207h0.779c0.117 0 0.21 0.088 0.21 0.207" fill="#fff"/>
  </g>
  <g transform="matrix(5.5954 0 0 -5.5954 199.54 -84.844)" fill="#fff">
   <path d="m0 0c0 0.517-0.307 0.766-1.136 0.923-0.608 0.117-0.792 0.241-0.792 0.53 0 0.198 0.093 0.531 0.713 0.531 0.278 0 0.496-0.097 0.651-0.182l0.157-0.048c0.103 0 0.192 0.092 0.192 0.198l-0.082 0.165c-0.183 0.163-0.544 0.262-0.918 0.262-0.688 0-1.126-0.366-1.126-0.938 0-0.491 0.329-0.763 1.105-0.913 0.63-0.117 0.825-0.243 0.825-0.528 0-0.177-0.072-0.308-0.206-0.396-0.131-0.086-0.317-0.129-0.56-0.129-0.406 0-0.637 0.104-0.877 0.27l-0.149 0.06c-0.121 0-0.211-0.092-0.211-0.209l0.107-0.183c0.344-0.234 0.688-0.338 1.125-0.338 0.358 0 0.655 0.082 0.859 0.241 0.108 0.08 0.184 0.175 0.24 0.288 0.057 0.114 0.083 0.248 0.083 0.396" fill="#fff"/>
  </g>
  <g transform="matrix(5.5954 0 0 -5.5954 100.35 -89.089)">
   <path d="m0 0c0 0.784 0.636 1.417 1.419 1.417 0.784 0 1.42-0.633 1.42-1.417 0-0.783-0.636-1.419-1.42-1.419-0.783 0-1.419 0.636-1.419 1.419" fill="#ed1c24"/>
  </g>
  <g transform="matrix(5.5954 0 0 -5.5954 99.123 -81.151)">
   <path d="m0 0c-0.782 0-1.42 0.636-1.42 1.419 0 0.784 0.638 1.417 1.42 1.417z" fill="#ed1c24"/>
  </g>
  <g transform="matrix(5.5954 0 0 -5.5954 117.46 -72.365)">
   <path d="m0 0v1.351l1.349-3e-3c0-0.746-0.604-1.348-1.349-1.348" fill="#ed1c24"/>
  </g>
  <g transform="matrix(5.5954 0 0 -5.5954 99.123 -105.78)">
   <path d="m0 0v-1.346h-1.352c0 0.746 0.605 1.346 1.352 1.346" fill="#ed1c24"/>
  </g>
  <g transform="matrix(5.5954 0 0 -5.5954 99.107 -72.365)">
   <path d="m0 0 3e-3 1.351-1.352-3e-3c0-0.746 0.605-1.348 1.349-1.348" fill="#ed1c24"/>
  </g>
  <g transform="matrix(5.5954 0 0 -5.5954 126.64 -82.267)">
   <path d="m0 0v2.44c0.415-0.25 0.69-0.7 0.69-1.221 0-0.518-0.275-0.973-0.69-1.219" fill="#ed1c24"/>
  </g>
  <g transform="matrix(5.5954 0 0 -5.5954 101.47 -107.42)">
   <path d="m0 0h2.438c-0.247 0.416-0.701 0.694-1.22 0.694s-0.973-0.278-1.218-0.694" fill="#ed1c24"/>
  </g>
  <g transform="matrix(5.5954 0 0 -5.5954 115.03 -70.732)">
   <path d="m0 0h-2.441c0.247-0.417 0.702-0.692 1.218-0.692 0.521 0 0.971 0.275 1.223 0.692" fill="#ed1c24"/>
  </g>
  <g transform="matrix(5.5954 0 0 -5.5954 116.23 -79.925)">
   <path d="m0 0c0-0.787-0.635-1.422-1.42-1.422-0.782 0-1.419 0.635-1.419 1.422z" fill="#ed1c24"/>
  </g>
  <g transform="matrix(5.5954 0 0 -5.5954 117.46 -81.151)">
   <path d="m0 0c0.782 0 1.417 0.636 1.417 1.419 0 0.784-0.635 1.417-1.417 1.417z" fill="#ed1c24"/>
  </g>
  <g transform="matrix(5.5954 0 0 -5.5954 116.23 -98.235)">
   <path d="m0 0c0 0.784-0.635 1.421-1.42 1.421-0.782 0-1.419-0.637-1.419-1.421z" fill="#ed1c24"/>
  </g>
  <g transform="matrix(5.5954 0 0 -5.5954 89.929 -82.267)">
   <path d="m0 0 4e-3 2.44c-0.413-0.25-0.696-0.7-0.696-1.221 0-0.518 0.279-0.973 0.692-1.219" fill="#ed1c24"/>
  </g>
  <g transform="matrix(5.5954 0 0 -5.5954 125.01 -98.241)">
   <path d="m0 0h-1.349v1.346c0.745 0 1.349-0.6 1.349-1.346" fill="#ed1c24"/>
  </g>
  <g transform="matrix(5.5954 0 0 -5.5954 47.209 -96.468)" fill="#fff">
   <path d="m0 0c0 0.182 0.146 0.325 0.316 0.325 0.183 0 0.314-0.143 0.314-0.325v-2.641c0-0.177-0.131-0.327-0.314-0.327-0.172 0-0.316 0.15-0.316 0.327z" fill="#fff"/>
  </g>
  <g transform="matrix(5.5954 0 0 -5.5954 71.279 -96.468)" fill="#fff">
   <path d="m0 0c0 0.182 0.144 0.325 0.316 0.325 0.183 0 0.317-0.143 0.317-0.325v-2.641c0-0.177-0.134-0.327-0.317-0.327-0.174 0-0.316 0.15-0.316 0.327z" fill="#fff"/>
  </g>
  <g transform="matrix(5.5954 0 0 -5.5954 65.11 -85.329)" fill="#fff">
   <path d="m0 0c0.059 0.108 0.129 0.186 0.276 0.186 0.145 0 0.308-0.126 0.308-0.296l-0.033-0.17c-0.195-0.464-0.69-0.734-1.208-0.734-0.784 0-1.322 0.574-1.38 1.311-0.021 0.243-0.021 0.497 0 0.733 0.058 0.737 0.596 1.313 1.38 1.313 0.518 0 1.013-0.267 1.208-0.732l0.033-0.171c0-0.171-0.163-0.296-0.308-0.296-0.147 0-0.223 0.093-0.276 0.185-0.136 0.253-0.37 0.406-0.657 0.406-0.447 0-0.722-0.332-0.755-0.783-0.012-0.193-0.012-0.398 0-0.592 0.033-0.454 0.308-0.762 0.755-0.762 0.287 0 0.521 0.149 0.657 0.402" fill="#fff"/>
  </g>
  <g transform="matrix(5.5954 0 0 -5.5954 162.64 -67.156)" fill="#fff">
   <path d="m0 0c0-0.061-0.047-0.135-0.163-0.135-0.112 0-0.204 0.048-0.393 0.048-0.353 0-0.528-0.161-0.528-0.527v-1.808c0-0.088-0.06-0.159-0.152-0.159l-0.152 0.159v1.821c0 0.506 0.294 0.804 0.825 0.804 0.18 0 0.348-0.023 0.437-0.053l0.126-0.15" fill="#fff"/>
  </g>
  <g transform="matrix(5.5954 0 0 -5.5954 173.33 -55.488)" fill="#fff">
   <path d="m0 0v0.771c-0.304 0.085-0.512 0.132-0.766 0.132-0.516 0-0.751-0.251-0.751-0.566 0-0.35 0.235-0.565 0.751-0.565 0.271 0 0.598 0.099 0.766 0.228m0.305-0.094-0.066-0.142c-0.142-0.106-0.538-0.291-1.054-0.291-0.654 0-1.009 0.337-1.009 0.866 0 0.481 0.355 0.854 1.037 0.854 0.263 0 0.477-0.037 0.787-0.122v0.227c0 0.486-0.228 0.689-0.715 0.689-0.267 0-0.508-0.082-0.671-0.153-0.136-0.058-0.233 0.022-0.233 0.119l0.097 0.155c0.174 0.087 0.488 0.18 0.807 0.18 0.665 0 1.02-0.274 1.02-0.942z" fill="#fff"/>
  </g>
  <g transform="matrix(5.5954 0 0 -5.5954 191.35 -53.575)" fill="#fff">
   <path d="m0 0c0-0.089-0.058-0.154-0.155-0.154l-0.15 0.154v1.566c0 0.536-0.354 0.774-0.787 0.774-0.352 0-0.661-0.112-0.816-0.206v-2.134l-0.15-0.154-0.152 0.154v2.19l0.071 0.158c0.151 0.111 0.517 0.282 1.059 0.282 0.715 0 1.08-0.383 1.08-1.055z" fill="#fff"/>
  </g>
  <g transform="matrix(5.5954 0 0 -5.5954 205.31 -56.938)" fill="#fff">
   <path d="m0 0c0.037 0.104 0.094 0.142 0.173 0.142 0.076 0 0.139-0.062 0.139-0.158 0-0.216-0.333-0.771-1.044-0.771-0.675 0-1.12 0.462-1.152 1.054-0.012 0.203-0.012 0.524 0 0.734 0.031 0.614 0.496 1.028 1.152 1.028 0.711 0 1.031-0.544 1.031-0.759 0-0.106-0.061-0.162-0.147-0.162-0.073 0-0.126 0.035-0.16 0.141-0.123 0.329-0.433 0.49-0.727 0.49-0.485 0-0.821-0.307-0.841-0.738-8e-3 -0.195-0.02-0.55 0-0.741 0.035-0.439 0.345-0.755 0.841-0.755 0.294 0 0.609 0.158 0.735 0.495" fill="#fff"/>
  </g>
  <g transform="matrix(5.5954 0 0 -5.5954 211.22 -62.515)" fill="#fff">
   <path d="m0 0c-8e-3 -0.194-0.016-0.546 0-0.736 0.042-0.451 0.362-0.755 0.832-0.755s0.782 0.304 0.824 0.755c0.013 0.19 0.011 0.542 0 0.736-0.026 0.432-0.341 0.742-0.824 0.742-0.486 0-0.806-0.31-0.832-0.742m1.966 0c0.01-0.209 0.01-0.518 0-0.73-0.034-0.603-0.504-1.054-1.134-1.054-0.638 0-1.11 0.451-1.142 1.054-0.01 0.212-0.01 0.521 0 0.73 0.032 0.617 0.504 1.032 1.142 1.032 0.63 0 1.1-0.415 1.134-1.032" fill="#fff"/>
  </g>
  <g transform="matrix(5.5954 0 0 -5.5954 141.79 -66.903)" fill="#fff">
   <path d="m0 0c0 0.155 0.104 0.275 0.283 0.275h1.398c0.093 0 0.173-0.061 0.173-0.158 0-0.089-0.082-0.162-0.173-0.162h-1.346v-0.997h1.278c0.089 0 0.166-0.069 0.166-0.163l-0.166-0.159h-1.278v-1.055c0-0.095-0.073-0.172-0.166-0.172l-0.169 0.172z" fill="#fff"/>
  </g>
  <g transform="matrix(5.5954 0 0 -5.5954 152.39 -35.762)" fill="#fff">
   <path d="m0 0c0.039 0.103 0.097 0.142 0.177 0.142 0.075 0 0.138-0.06 0.138-0.158 0-0.218-0.333-0.773-1.042-0.773-0.677 0-1.121 0.462-1.155 1.056-0.012 0.205-0.012 0.524 0 0.736 0.032 0.612 0.499 1.029 1.155 1.029 0.709 0 1.026-0.547 1.026-0.762 0-0.106-0.06-0.162-0.143-0.162-0.072 0-0.125 0.037-0.164 0.142-0.119 0.328-0.432 0.487-0.723 0.487-0.487 0-0.82-0.305-0.841-0.734-0.011-0.195-0.016-0.552 0-0.742 0.034-0.439 0.344-0.755 0.841-0.755 0.291 0 0.609 0.157 0.731 0.494" fill="#fff"/>
  </g>
  <g transform="matrix(5.5954 0 0 -5.5954 158.31 -41.331)" fill="#fff">
   <path d="m0 0c-9e-3 -0.192-0.016-0.545 0-0.734 0.045-0.452 0.365-0.755 0.832-0.755s0.782 0.303 0.825 0.755c0.017 0.189 0.01 0.542 0 0.734-0.027 0.433-0.342 0.742-0.825 0.742s-0.804-0.309-0.832-0.742m1.966 0c0.012-0.208 0.012-0.517 0-0.728-0.034-0.604-0.504-1.057-1.134-1.057-0.636 0-1.109 0.453-1.142 1.057-0.01 0.211-0.01 0.52 0 0.728 0.033 0.617 0.506 1.037 1.142 1.037 0.63 0 1.1-0.42 1.134-1.037" fill="#fff"/>
  </g>
  <g transform="matrix(5.5954 0 0 -5.5954 172.74 -46.042)" fill="#fff">
   <path d="m0 0 0.158 0.158 0.145-0.158v-1.597c0-0.452 0.291-0.734 0.795-0.734 0.372 0 0.634 0.114 0.807 0.223v2.108l0.153 0.158 0.155-0.158v-2.172l-0.067-0.142c-0.159-0.106-0.508-0.313-1.048-0.313-0.628 0-1.098 0.378-1.098 1.046z" fill="#fff"/>
  </g>
  <g transform="matrix(5.5954 0 0 -5.5954 201.79 -32.391)" fill="#fff">
   <path d="m0 0c0-0.087-0.059-0.156-0.155-0.156l-0.153 0.156v1.569c0 0.534-0.351 0.771-0.788 0.771-0.35 0-0.66-0.11-0.812-0.203v-2.137c0-0.087-0.063-0.156-0.155-0.156l-0.152 0.156v2.193l0.076 0.155c0.147 0.113 0.514 0.287 1.055 0.287 0.714 0 1.084-0.39 1.084-1.055z" fill="#fff"/>
  </g>
  <g transform="matrix(5.5954 0 0 -5.5954 208.95 -45.682)" fill="#fff">
   <path d="m0 0h-0.81c-0.097 0-0.17 0.07-0.17 0.159 0 0.1 0.073 0.162 0.17 0.162h1.945c0.095 0 0.166-0.062 0.166-0.162 0-0.089-0.075-0.159-0.166-0.159h-0.802v-2.375c0-0.093-0.072-0.171-0.166-0.171-0.096 0-0.167 0.078-0.167 0.171z" fill="#fff"/>
  </g>
  <g transform="matrix(5.5954 0 0 -5.5954 225.95 -45.979)" fill="#fff">
   <path d="m0 0c0-0.061-0.05-0.135-0.167-0.135-0.109 0-0.206 0.046-0.391 0.046-0.354 0-0.529-0.159-0.529-0.525v-1.808c0-0.088-0.06-0.163-0.151-0.163l-0.153 0.163v1.822c0 0.504 0.294 0.806 0.827 0.806 0.178 0 0.346-0.027 0.435-0.053 0.09-0.027 0.129-0.084 0.129-0.153" fill="#fff"/>
  </g>
  <g transform="matrix(5.5954 0 0 -5.5954 228.03 -45.656)" fill="#fff">
   <path d="m0 0c-0.051 0.111 0.018 0.227 0.131 0.227l0.152-0.1 0.898-2.037 0.021-0.024 0.021 0.024 0.814 2.016 0.158 0.121c0.117 0 0.179-0.121 0.13-0.23l-0.993-2.437c-0.188-0.47-0.488-0.86-0.741-1.003l-0.155-0.045-0.15 0.146 0.1 0.15c0.236 0.115 0.467 0.377 0.649 0.849z" fill="#fff"/>
  </g>
 </g>
</svg>
