<svg width="800" height="220.23" version="1.1" viewBox="0 0 211.67 58.269" xmlns="http://www.w3.org/2000/svg">
 <g transform="translate(-47.209 84.408)">
  <g transform="matrix(5.6289 0 0 -5.6289 203.7 -71.285)">
   <path d="m0 0c-0.111 0-0.204-0.097-0.204-0.209v-2.834c0-0.117 0.089-0.21 0.204-0.21 0.116 0 0.203 0.093 0.203 0.21v2.834c0 0.12-0.087 0.209-0.203 0.209" fill="#231f20"/>
  </g>
  <g transform="matrix(5.6289 0 0 -5.6289 251.5 -69.034)">
   <path d="m0 0c0.282 0 0.517-0.093 0.678-0.271 0.169-0.18 0.246-0.433 0.222-0.732l-0.065-0.06h-1.782c-4e-3 0.357 0.083 0.633 0.261 0.813 0.162 0.165 0.393 0.25 0.686 0.25m5e-3 0.399c-0.765 0-1.294-0.498-1.35-1.268-9e-3 -0.183-0.014-0.43-1e-3 -0.659 0.044-0.849 0.561-1.358 1.385-1.358 0.381 0 0.759 0.077 0.96 0.198 0.099 0.061 0.12 0.136 0.12 0.189 0 0.096-0.074 0.194-0.207 0.194l-0.106-0.021c-0.297-0.108-0.556-0.162-0.772-0.162-0.603 0-0.977 0.38-0.977 0.988l-4e-3 0.037h1.876c0.245 0 0.381 0.128 0.381 0.352v0.203c0 0.78-0.522 1.307-1.305 1.307" fill="#231f20"/>
  </g>
  <g transform="matrix(5.6289 0 0 -5.6289 159.25 -71.278)">
   <path d="m0 0c-0.488 0-0.813-0.221-1.003-0.354h-4e-3c-0.228 0.242-0.52 0.354-0.92 0.354-0.388 0-0.801-0.123-1.051-0.312-0.091-0.062-0.125-0.118-0.125-0.224v-2.505c0-0.119 0.083-0.212 0.198-0.212 0.12 0 0.209 0.093 0.209 0.212v2.432c0.041 0.038 0.268 0.21 0.786 0.21 0.5 0 0.733-0.246 0.733-0.781v-1.861c0-0.117 0.09-0.212 0.205-0.212 0.118 0 0.204 0.093 0.204 0.212v1.89c0 0.202-0.029 0.354-0.052 0.45v1e-3c0.253 0.2 0.527 0.301 0.814 0.301 0.507 0 0.756-0.254 0.756-0.781v-1.861c0-0.117 0.089-0.212 0.204-0.212 0.116 0 0.203 0.093 0.203 0.212v1.89c0 0.754-0.398 1.151-1.157 1.151" fill="#231f20"/>
  </g>
  <g transform="matrix(5.6289 0 0 -5.6289 239.72 -71.278)">
   <path d="m0 0c-0.112 0-0.206-0.096-0.206-0.209v-1.705c0-0.583-0.363-0.975-0.905-0.975-0.54 0-0.904 0.392-0.904 0.975v1.705c0 0.116-0.092 0.209-0.205 0.209-0.112 0-0.206-0.096-0.206-0.209v-1.709c0-0.794 0.553-1.367 1.315-1.367 0.761 0 1.314 0.573 1.314 1.367v1.709c0 0.116-0.093 0.209-0.203 0.209" fill="#231f20"/>
  </g>
  <g transform="matrix(5.6289 0 0 -5.6289 182.64 -71.278)">
   <path d="m0 0c-0.111 0-0.203-0.096-0.203-0.209v-1.705c0-0.583-0.364-0.975-0.907-0.975-0.541 0-0.904 0.392-0.904 0.975v1.705c0 0.116-0.091 0.209-0.205 0.209-0.108 0-0.205-0.096-0.205-0.209v-1.709c0-0.794 0.552-1.367 1.314-1.367 0.763 0 1.317 0.573 1.317 1.367v1.709c0 0.116-0.092 0.209-0.207 0.209" fill="#231f20"/>
  </g>
  <g transform="matrix(5.6289 0 0 -5.6289 215.58 -55.014)">
   <path d="m0 0c-0.509 0-0.9 0.378-0.951 0.919-0.016 0.23-0.016 0.427 0 0.657 0.051 0.543 0.442 0.916 0.951 0.916 0.52 0 0.916-0.373 0.96-0.916 0.025-0.23 0.025-0.427 0-0.657-0.044-0.541-0.44-0.919-0.96-0.919m1.375 1.596c-0.052 0.738-0.642 1.293-1.375 1.293-0.731 0-1.302-0.544-1.359-1.293-0.019-0.246-0.019-0.45 0-0.698 0.053-0.749 0.625-1.293 1.359-1.293 0.733 0 1.323 0.555 1.375 1.293 0.019 0.248 0.019 0.452 0 0.698" fill="#231f20"/>
  </g>
  <g transform="matrix(5.6289 0 0 -5.6289 218.99 -49.587)">
   <path d="m0 0c0 0.109-0.094 0.205-0.209 0.205h-0.775c-0.117 0-0.211-0.093-0.211-0.205 0-0.12 0.091-0.206 0.211-0.206h0.775c0.12 0 0.209 0.086 0.209 0.206" fill="#231f20"/>
  </g>
  <g transform="matrix(5.6289 0 0 -5.6289 199.54 -57.943)">
   <path d="m0 0c0 0.515-0.305 0.762-1.13 0.918-0.604 0.12-0.786 0.242-0.786 0.529 0 0.197 0.092 0.528 0.708 0.528 0.277 0 0.493-0.096 0.647-0.181l0.157-0.048c0.101 0 0.19 0.091 0.19 0.196l-0.078 0.166c-0.183 0.16-0.544 0.261-0.916 0.261-0.684 0-1.119-0.365-1.119-0.933 0-0.488 0.327-0.762 1.098-0.91 0.626-0.118 0.817-0.24 0.817-0.526 0-0.173-0.065-0.306-0.201-0.393-0.127-0.082-0.316-0.124-0.557-0.124-0.403 0-0.634 0.1-0.872 0.265l-0.148 0.062c-0.12 0-0.208-0.092-0.208-0.21l0.102-0.178c0.342-0.234 0.686-0.338 1.121-0.338 0.356 0 0.651 0.082 0.857 0.238 0.1 0.077 0.182 0.176 0.236 0.287 0.056 0.115 0.082 0.248 0.082 0.391" fill="#231f20"/>
  </g>
  <g transform="matrix(5.6289 0 0 -5.6289 100.33 -62.188)">
   <path d="m0 0c0 0.781 0.637 1.411 1.417 1.411 0.777 0 1.409-0.63 1.409-1.411 0-0.778-0.632-1.411-1.409-1.411-0.78 0-1.417 0.633-1.417 1.411" fill="#ed1c24"/>
  </g>
  <g transform="matrix(5.6289 0 0 -5.6289 99.123 -54.246)">
   <path d="m0 0c-0.78 0-1.412 0.633-1.412 1.411 0 0.781 0.632 1.411 1.412 1.411z" fill="#ed1c24"/>
  </g>
  <g transform="matrix(5.6289 0 0 -5.6289 117.47 -45.49)">
   <path d="m0 0v1.338h1.341c0-0.739-0.6-1.338-1.341-1.338" fill="#ed1c24"/>
  </g>
  <g transform="matrix(5.6289 0 0 -5.6289 99.123 -78.892)">
   <path d="m0 0v-1.336h-1.34c0 0.737 0.599 1.336 1.34 1.336" fill="#ed1c24"/>
  </g>
  <g transform="matrix(5.6289 0 0 -5.6289 99.108 -45.49)">
   <path d="m0 0 3e-3 1.338h-1.34c0-0.739 0.599-1.338 1.337-1.338" fill="#ed1c24"/>
  </g>
  <g transform="matrix(5.6289 0 0 -5.6289 126.64 -55.373)">
   <path d="m0 0v2.424c0.412-0.247 0.69-0.695 0.69-1.213 0-0.516-0.278-0.964-0.69-1.211" fill="#ed1c24"/>
  </g>
  <g transform="matrix(5.6289 0 0 -5.6289 101.47 -80.541)">
   <path d="m0 0h2.424c-0.246 0.412-0.697 0.687-1.211 0.687-0.518 0-0.969-0.275-1.213-0.687" fill="#ed1c24"/>
  </g>
  <g transform="matrix(5.6289 0 0 -5.6289 115.01 -43.849)">
   <path d="m0 0h-2.424c0.245-0.412 0.694-0.69 1.211-0.69 0.518 0 0.965 0.278 1.213 0.69" fill="#ed1c24"/>
  </g>
  <g transform="matrix(5.6289 0 0 -5.6289 116.23 -53.023)">
   <path d="m0 0c0-0.78-0.631-1.412-1.409-1.412-0.78 0-1.417 0.632-1.417 1.412z" fill="#ed1c24"/>
  </g>
  <g transform="matrix(5.6289 0 0 -5.6289 117.47 -54.246)">
   <path d="m0 0c0.778 0 1.413 0.633 1.413 1.411 0 0.781-0.635 1.411-1.413 1.411z" fill="#ed1c24"/>
  </g>
  <g transform="matrix(5.6289 0 0 -5.6289 116.23 -71.351)">
   <path d="m0 0c0 0.779-0.631 1.41-1.409 1.41-0.78 0-1.417-0.631-1.417-1.41z" fill="#ed1c24"/>
  </g>
  <g transform="matrix(5.6289 0 0 -5.6289 89.929 -55.373)">
   <path d="m0 0 4e-3 2.424c-0.415-0.247-0.691-0.695-0.691-1.213 0-0.516 0.276-0.964 0.687-1.211" fill="#ed1c24"/>
  </g>
  <g transform="matrix(5.6289 0 0 -5.6289 125.01 -71.369)">
   <path d="M 0,0 H -1.341 V 1.336 C -0.6,1.336 0,0.738 0,0" fill="#ed1c24"/>
  </g>
  <g transform="matrix(5.6289 0 0 -5.6289 47.209 -69.585)">
   <path d="m0 0c0 0.177 0.149 0.322 0.314 0.322 0.182 0 0.312-0.145 0.312-0.322v-2.626c0-0.177-0.13-0.325-0.312-0.325-0.171 0-0.314 0.148-0.314 0.325z" fill="#231f20"/>
  </g>
  <g transform="matrix(5.6289 0 0 -5.6289 71.264 -69.585)">
   <path d="m0 0c0 0.177 0.146 0.322 0.317 0.322 0.177 0 0.31-0.145 0.31-0.322v-2.626c0-0.177-0.133-0.325-0.31-0.325-0.176 0-0.317 0.148-0.317 0.325z" fill="#231f20"/>
  </g>
  <g transform="matrix(5.6289 0 0 -5.6289 65.11 -58.446)">
   <path d="m0 0c0.059 0.104 0.128 0.184 0.274 0.184 0.145 0 0.307-0.125 0.307-0.294l-0.033-0.169c-0.194-0.464-0.686-0.729-1.198-0.729-0.778 0-1.315 0.568-1.375 1.301-0.02 0.243-0.02 0.493 0 0.73 0.06 0.73 0.597 1.303 1.375 1.303 0.512 0 1.004-0.264 1.198-0.727l0.033-0.169c0-0.17-0.162-0.293-0.307-0.293-0.146 0-0.222 0.091-0.274 0.184-0.133 0.251-0.368 0.403-0.65 0.403-0.447 0-0.721-0.329-0.754-0.781-0.011-0.19-0.011-0.396 0-0.586 0.033-0.452 0.307-0.76 0.754-0.76 0.282 0 0.517 0.152 0.65 0.403" fill="#231f20"/>
  </g>
  <g transform="matrix(5.6289 0 0 -5.6289 152.14 -30.547)">
   <path d="m0 0c0.036 0.104 0.093 0.138 0.172 0.138 0.073 0 0.136-0.056 0.136-0.157 0-0.211-0.329-0.764-1.036-0.764-0.672 0-1.11 0.457-1.148 1.049-8e-3 0.202-8e-3 0.52 0 0.73 0.033 0.61 0.497 1.021 1.148 1.021 0.707 0 1.025-0.541 1.025-0.756 0-0.103-0.063-0.161-0.146-0.161-0.072 0-0.125 0.037-0.162 0.139-0.119 0.33-0.427 0.487-0.72 0.487-0.48 0-0.814-0.303-0.834-0.73-0.012-0.194-0.017-0.551 0-0.736 0.036-0.437 0.344-0.751 0.834-0.751 0.293 0 0.606 0.156 0.731 0.491" fill="#231f20"/>
  </g>
  <g transform="matrix(5.6289 0 0 -5.6289 181.79 -29.097)">
   <path d="m0 0v0.767c-0.303 0.083-0.51 0.131-0.762 0.131-0.511 0-0.746-0.25-0.746-0.563 0-0.351 0.235-0.557 0.746-0.557 0.271 0 0.595 0.097 0.762 0.222m0.303-0.093-0.068-0.141c-0.141-0.105-0.532-0.289-1.044-0.289-0.655 0-1.002 0.334-1.002 0.863 0 0.475 0.347 0.844 1.028 0.844 0.26 0 0.475-0.035 0.783-0.12v0.226c0 0.487-0.23 0.682-0.71 0.682-0.266 0-0.506-0.081-0.668-0.15-0.135-0.056-0.23 0.021-0.23 0.122l0.095 0.148c0.172 0.09 0.485 0.183 0.803 0.183 0.658 0 1.013-0.275 1.013-0.94z" fill="#231f20"/>
  </g>
  <g transform="matrix(5.6289 0 0 -5.6289 199.81 -27.187)">
   <path d="m0 0c0-0.088-0.057-0.157-0.149-0.157l-0.156 0.157v1.556c0 0.533-0.35 0.767-0.783 0.767-0.347 0-0.657-0.109-0.81-0.205v-2.118l-0.149-0.157-0.152 0.157v2.177l0.074 0.157c0.145 0.109 0.513 0.28 1.048 0.28 0.712 0 1.077-0.384 1.077-1.049z" fill="#231f20"/>
  </g>
  <g transform="matrix(5.6289 0 0 -5.6289 213.51 -30.712)">
   <path d="m0 0c0-0.492-0.367-0.812-0.93-0.812-0.393 0-0.685 0.082-0.941 0.295l-0.036 0.225 0.227 0.026c0.193-0.141 0.339-0.255 0.75-0.255 0.403 0 0.626 0.218 0.626 0.505 0 0.214-0.129 0.345-0.458 0.43l-0.415 0.098c-0.446 0.109-0.683 0.346-0.683 0.704 0 0.476 0.373 0.772 0.93 0.772 0.297 0 0.563-0.102 0.708-0.215l0.033-0.228-0.221-0.017c-0.177 0.109-0.326 0.169-0.52 0.169-0.407 0-0.626-0.162-0.626-0.471 0-0.188 0.103-0.323 0.447-0.411 0.191-0.049 0.361-0.082 0.405-0.094 0.478-0.129 0.704-0.36 0.704-0.721" fill="#231f20"/>
  </g>
  <g transform="matrix(5.6289 0 0 -5.6289 217.46 -36.128)">
   <path d="m0 0c-0.011-0.196-0.016-0.546 0-0.732 0.044-0.448 0.363-0.751 0.827-0.751s0.777 0.303 0.819 0.751c0.015 0.186 0.012 0.536 0 0.732-0.026 0.427-0.339 0.734-0.819 0.734s-0.798-0.307-0.827-0.734m1.951 0c0.014-0.211 0.014-0.516 0-0.725-0.028-0.601-0.498-1.049-1.124-1.049-0.633 0-1.101 0.448-1.132 1.049-0.013 0.209-0.013 0.514 0 0.725 0.031 0.61 0.499 1.026 1.132 1.026 0.626 0 1.096-0.416 1.124-1.026" fill="#231f20"/>
  </g>
  <g transform="matrix(5.6289 0 0 -5.6289 244.51 -27.187)">
   <path d="m0 0c0-0.088-0.06-0.157-0.153-0.157l-0.152 0.157v1.556c0 0.533-0.35 0.767-0.783 0.767-0.35 0-0.657-0.109-0.81-0.205v-2.118l-0.15-0.157-0.151 0.157v2.177l0.074 0.157c0.145 0.109 0.513 0.28 1.048 0.28 0.709 0 1.077-0.384 1.077-1.049z" fill="#231f20"/>
  </g>
  <g transform="matrix(5.6289 0 0 -5.6289 258.2 -30.712)">
   <path d="m0 0c0-0.492-0.364-0.812-0.927-0.812-0.394 0-0.685 0.082-0.944 0.295l-0.034 0.225 0.223 0.026c0.195-0.141 0.34-0.255 0.755-0.255 0.4 0 0.624 0.218 0.624 0.505 0 0.214-0.131 0.345-0.459 0.43l-0.412 0.098c-0.45 0.109-0.686 0.346-0.686 0.704 0 0.476 0.373 0.772 0.933 0.772 0.297 0 0.563-0.102 0.708-0.215l0.033-0.228-0.221-0.017c-0.177 0.109-0.33 0.169-0.52 0.169-0.41 0-0.631-0.162-0.631-0.471 0-0.188 0.107-0.323 0.452-0.411 0.186-0.049 0.36-0.082 0.402-0.094 0.48-0.129 0.704-0.36 0.704-0.721" fill="#231f20"/>
  </g>
  <g transform="matrix(5.6289 0 0 -5.6289 157.13 -40.695)">
   <path d="m0 0 0.159 0.162c0.094 0 0.159-0.073 0.159-0.162v-1.057h1.508v1.057l0.159 0.162c0.094 0 0.16-0.073 0.16-0.162v-2.419c0-0.088-0.066-0.165-0.16-0.165l-0.159 0.165v1.056h-1.508v-1.056c0-0.093-0.065-0.165-0.159-0.165-0.091 0-0.159 0.077-0.159 0.165z" fill="#231f20"/>
  </g>
 </g>
</svg>
