<svg width="800" height="536.4" version="1.1" viewBox="0 0 211.67 141.92" xmlns="http://www.w3.org/2000/svg">
 <g transform="translate(-47.209 168.06)">
  <g transform="matrix(8.3331 0 0 -8.3331 134.93 -117.43)">
   <path d="m0 0c0 1.201 0.974 2.171 2.174 2.171 1.197 0 2.17-0.97 2.17-2.171 0-1.2-0.973-2.17-2.17-2.17-1.2 0-2.174 0.97-2.174 2.17" fill="#ed1d24"/>
  </g>
  <g transform="matrix(8.3331 0 0 -8.3331 132.15 -99.347)">
   <path d="m0 0c-1.199 0-2.17 0.971-2.17 2.17 0 1.201 0.971 2.172 2.17 2.172z" fill="#ed1d24"/>
  </g>
  <g transform="matrix(8.3331 0 0 -8.3331 173.94 -79.38)">
   <path d="m0 0v2.062l2.061-3e-3c0-1.14-0.923-2.059-2.061-2.059" fill="#ed1d24"/>
  </g>
  <g transform="matrix(8.3331 0 0 -8.3331 132.15 -155.5)">
   <path d="m0 0v-2.062h-2.062c0 1.139 0.924 2.062 2.062 2.062" fill="#ed1d24"/>
  </g>
  <g transform="matrix(8.3331 0 0 -8.3331 132.13 -79.38)">
   <path d="m0 0 2e-3 2.062-2.062-3e-3c0-1.14 0.924-2.059 2.06-2.059" fill="#ed1d24"/>
  </g>
  <g transform="matrix(8.3331 0 0 -8.3331 194.82 -101.89)">
   <path d="m0 0v3.731c0.637-0.379 1.061-1.071 1.061-1.866 0-0.794-0.424-1.487-1.061-1.865" fill="#ed1d24"/>
  </g>
  <g transform="matrix(8.3331 0 0 -8.3331 137.5 -159.24)">
   <path d="M 0,0 H 3.728 C 3.35,0.635 2.659,1.059 1.866,1.059 1.069,1.059 0.377,0.635 0,0" fill="#ed1d24"/>
  </g>
  <g transform="matrix(8.3331 0 0 -8.3331 168.35 -75.653)">
   <path d="m0 0h-3.73c0.375-0.636 1.071-1.062 1.863-1.062 0.795 0 1.488 0.426 1.867 1.062" fill="#ed1d24"/>
  </g>
  <g transform="matrix(8.3331 0 0 -8.3331 171.13 -96.559)">
   <path d="m0 0c0-1.202-0.973-2.173-2.17-2.173-1.2 0-2.174 0.971-2.174 2.173z" fill="#ed1d24"/>
  </g>
  <g transform="matrix(8.3331 0 0 -8.3331 173.94 -99.347)">
   <path d="m0 0c1.198 0 2.171 0.971 2.171 2.17 0 1.201-0.973 2.172-2.171 2.172z" fill="#ed1d24"/>
  </g>
  <g transform="matrix(8.3331 0 0 -8.3331 171.13 -138.29)">
   <path d="m0 0c0 1.2-0.973 2.17-2.17 2.17-1.2 0-2.174-0.97-2.174-2.17z" fill="#ed1d24"/>
  </g>
  <g transform="matrix(8.3331 0 0 -8.3331 111.24 -101.89)">
   <path d="m0 0 2e-3 3.731c-0.632-0.379-1.059-1.071-1.059-1.866 0-0.794 0.422-1.487 1.057-1.865" fill="#ed1d24"/>
  </g>
  <g transform="matrix(8.3331 0 0 -8.3331 191.11 -138.32)">
   <path d="m0 0h-2.061v2.061c1.138 0 2.061-0.923 2.061-2.061" fill="#ed1d24"/>
  </g>
  <g transform="matrix(8.3331 0 0 -8.3331 128.4 -50.914)" fill="#fff">
   <path d="m0 0c-0.096 0.028-0.281 0.057-0.475 0.057-0.578 0-0.91-0.325-0.91-0.89v-1.907c0-0.11 0.084-0.2 0.188-0.2 0.109 0 0.19 0.087 0.19 0.2v1.89c0 0.373 0.166 0.539 0.539 0.539 0.112 0 0.192-0.016 0.265-0.03l0.157-0.02c0.137 0 0.202 0.089 0.202 0.172 0 0.093-0.055 0.159-0.156 0.189" fill="#fff"/>
  </g>
  <g transform="matrix(8.3331 0 0 -8.3331 236.37 -50.914)" fill="#fff">
   <path d="m0 0c-0.097 0.028-0.282 0.057-0.476 0.057-0.575 0-0.91-0.325-0.91-0.89v-1.907c0-0.11 0.084-0.2 0.191-0.2 0.106 0 0.187 0.087 0.187 0.2v1.89c0 0.373 0.167 0.539 0.539 0.539 0.115 0 0.193-0.016 0.266-0.03l0.159-0.02c0.136 0 0.198 0.089 0.198 0.172 0 0.093-0.053 0.159-0.154 0.189" fill="#fff"/>
  </g>
  <g transform="matrix(8.3331 0 0 -8.3331 194.26 -51.392)" fill="#fff">
   <path d="m0 0c-0.102 0-0.188-0.089-0.188-0.193v-2.611c0-0.106 0.085-0.193 0.188-0.193 0.109 0 0.189 0.083 0.189 0.193v2.611c0 0.11-0.08 0.193-0.189 0.193" fill="#fff"/>
  </g>
  <g transform="matrix(8.3331 0 0 -8.3331 140.36 -48.322)" fill="#fff">
   <path d="m0 0c0.257 0 0.476-0.086 0.627-0.249 0.154-0.167 0.223-0.401 0.203-0.676l-0.058-0.056h-1.646c-3e-3 0.331 0.077 0.582 0.242 0.751 0.149 0.153 0.362 0.23 0.632 0.23m5e-3 0.368c-0.707 0-1.196-0.459-1.244-1.169-0.011-0.17-0.016-0.397-4e-3 -0.607 0.042-0.785 0.52-1.254 1.277-1.254 0.354 0 0.702 0.073 0.889 0.185l0.107 0.174c0 0.086-0.065 0.178-0.189 0.178l-0.098-0.018c-0.272-0.101-0.511-0.151-0.714-0.151-0.554 0-0.897 0.348-0.897 0.911l-3e-3 0.035h1.727c0.227 0 0.352 0.115 0.352 0.325v0.186c0 0.721-0.483 1.205-1.203 1.205" fill="#fff"/>
  </g>
  <g transform="matrix(8.3331 0 0 -8.3331 206.33 -55.495)" fill="#fff">
   <path d="m0 0c0-0.102 0.09-0.189 0.193-0.189h0.716c0.106 0 0.194 0.085 0.194 0.189 0 0.109-0.083 0.189-0.194 0.189h-0.716c-0.109 0-0.193-0.08-0.193-0.189" fill="#fff"/>
  </g>
  <g transform="matrix(8.3331 0 0 -8.3331 211.08 -48.322)" fill="#fff">
   <path d="m0 0c0.26 0 0.478-0.086 0.629-0.249 0.153-0.167 0.224-0.401 0.203-0.676l-0.059-0.056h-1.644c-4e-3 0.331 0.077 0.582 0.241 0.751 0.149 0.153 0.361 0.23 0.63 0.23m7e-3 0.368c-0.708 0-1.195-0.459-1.245-1.169-0.011-0.17-0.016-0.397-5e-3 -0.607 0.044-0.785 0.521-1.254 1.278-1.254 0.354 0 0.702 0.073 0.89 0.185l0.107 0.174c0 0.086-0.066 0.178-0.19 0.178l-0.098-0.018c-0.273-0.101-0.511-0.151-0.714-0.151-0.554 0-0.898 0.348-0.898 0.911l-3e-3 0.035h1.73c0.225 0 0.352 0.115 0.352 0.325v0.186c0 0.721-0.483 1.205-1.204 1.205" fill="#fff"/>
  </g>
  <g transform="matrix(8.3331 0 0 -8.3331 248.78 -48.322)" fill="#fff">
   <path d="m0 0c0.261 0 0.478-0.086 0.629-0.249 0.152-0.167 0.225-0.401 0.203-0.676l-0.058-0.056h-1.645c-4e-3 0.331 0.078 0.582 0.242 0.751 0.148 0.153 0.359 0.23 0.629 0.23m6e-3 0.368c-0.704 0-1.192-0.459-1.244-1.169-0.011-0.17-0.015-0.397-3e-3 -0.607 0.042-0.785 0.521-1.254 1.278-1.254 0.352 0 0.701 0.073 0.888 0.185l0.108 0.174c0 0.086-0.067 0.178-0.191 0.178l-0.097-0.018c-0.274-0.101-0.513-0.151-0.715-0.151-0.553 0-0.897 0.348-0.897 0.911l-4e-3 0.035h1.727c0.228 0 0.355 0.115 0.355 0.325v0.186c0 0.721-0.486 1.205-1.205 1.205" fill="#fff"/>
  </g>
  <g transform="matrix(8.3331 0 0 -8.3331 105.38 -38.686)" fill="#fff">
   <path d="m0 0h-0.743v1.157h0.763c0.392 0 0.606-0.205 0.606-0.58 0-0.383-0.21-0.577-0.626-0.577m0.039 1.525h-0.855c-0.181 0-0.303-0.121-0.303-0.3v-2.503c0-0.103 0.087-0.194 0.187-0.194 0.103 0 0.189 0.091 0.189 0.194v0.912h0.748c0.613 0 1.008 0.372 1.008 0.948 0 0.555-0.401 0.943-0.974 0.943" fill="#fff"/>
  </g>
  <g transform="matrix(8.3331 0 0 -8.3331 178.35 -51.382)" fill="#fff">
   <path d="m0 0c-0.448 0-0.747-0.205-0.924-0.325v-1e-3l-1e-3 1e-3c-0.21 0.222-0.481 0.325-0.848 0.325-0.363 0-0.741-0.112-0.968-0.286-0.088-0.06-0.12-0.112-0.12-0.209v-2.308c0-0.111 0.079-0.195 0.184-0.195 0.11 0 0.195 0.084 0.195 0.195v2.243c0.036 0.032 0.244 0.193 0.724 0.193 0.461 0 0.673-0.229 0.673-0.721v-1.715c0-0.108 0.085-0.195 0.189-0.195 0.108 0 0.19 0.084 0.19 0.195v1.744c0 0.186-0.027 0.325-0.048 0.413 0.232 0.186 0.486 0.279 0.751 0.279 0.466 0 0.694-0.236 0.694-0.721v-1.715c0-0.108 0.083-0.195 0.19-0.195s0.189 0.084 0.189 0.195v1.744c0 0.692-0.368 1.059-1.07 1.059" fill="#fff"/>
  </g>
  <g transform="matrix(8.3331 0 0 -8.3331 47.209 -49.111)" fill="#fff">
   <path d="m0 0c0 0.166 0.136 0.296 0.294 0.296 0.162 0 0.285-0.13 0.285-0.296v-2.421c0-0.165-0.123-0.3-0.285-0.3-0.163 0-0.294 0.135-0.294 0.3z" fill="#fff"/>
  </g>
  <g transform="matrix(8.3331 0 0 -8.3331 71.654 -33.902)" fill="#fff">
   <path d="m0 0c0.056 0.097 0.118 0.169 0.254 0.169 0.137 0 0.282-0.114 0.282-0.271l-0.028-0.156c-0.182-0.427-0.637-0.672-1.109-0.672-0.718 0-1.213 0.524-1.266 1.201-0.017 0.223-0.017 0.455 0 0.672 0.053 0.676 0.548 1.204 1.266 1.204 0.472 0 0.927-0.245 1.109-0.672l0.028-0.157c0-0.155-0.145-0.271-0.282-0.271-0.136 0-0.205 0.085-0.254 0.169-0.123 0.234-0.338 0.374-0.601 0.374-0.41 0-0.661-0.306-0.693-0.72-0.013-0.176-0.013-0.364 0-0.541 0.032-0.419 0.283-0.701 0.693-0.701 0.263 0 0.478 0.139 0.601 0.372" fill="#fff"/>
  </g>
  <g transform="matrix(8.3331 0 0 -8.3331 80.055 -49.111)" fill="#fff">
   <path d="m0 0c0 0.166 0.137 0.296 0.292 0.296 0.166 0 0.288-0.13 0.288-0.296v-2.421c0-0.165-0.122-0.3-0.288-0.3-0.161 0-0.292 0.135-0.292 0.3z" fill="#fff"/>
  </g>
 </g>
</svg>
