<svg width="800" height="301.94" version="1.1" viewBox="0 0 211.67 79.888" xmlns="http://www.w3.org/2000/svg">
 <g transform="translate(-47.209 106.03)">
  <g transform="matrix(6.657 0 0 -6.657 53.726 -101.07)">
   <path d="m0 0c0-0.136-0.045-0.255-0.134-0.357-0.088-0.099-0.211-0.15-0.372-0.15-0.137 0-0.244 0.045-0.319 0.131-0.076 0.088-0.116 0.193-0.116 0.315 0 0.135 0.047 0.252 0.137 0.349 0.091 0.099 0.218 0.148 0.378 0.148 0.13 0 0.235-0.043 0.311-0.131 0.076-0.085 0.115-0.188 0.115-0.305m-0.169-5.018h-0.727c0.038 0.535 0.057 1.147 0.057 1.834 0 0.773-0.047 1.421-0.14 1.947l0.802 0.11c-0.031-0.562-0.047-1.247-0.047-2.057 0-0.642 0.017-1.254 0.055-1.834" fill="#ef2e32"/>
  </g>
  <g transform="matrix(6.657 0 0 -6.657 80.118 -67.662)">
   <path d="m0 0h-0.73c0.06 0.703 0.089 1.471 0.089 2.303 0 0.413-0.083 0.693-0.253 0.845-0.165 0.152-0.402 0.228-0.714 0.228-0.38 0-0.73-0.14-1.051-0.414 0-0.912 5e-3 -1.899 0.015-2.962h-0.73c0.045 0.909 0.067 1.566 0.067 1.976 0 0.624-0.057 1.232-0.176 1.82l0.707 0.102 0.076-0.491h0.032c0.395 0.358 0.821 0.537 1.272 0.537 0.443 0 0.788-0.096 1.032-0.294 0.243-0.197 0.364-0.547 0.364-1.05 0-0.05-2e-3 -0.151-5e-3 -0.299-7e-3 -0.152-0.01-0.251-0.01-0.304 0-0.446 5e-3 -1.112 0.015-1.997" fill="#ef2e32"/>
  </g>
  <g transform="matrix(6.657 0 0 -6.657 102.79 -105.27)">
   <path d="m0 0c0.05-0.687 0.099-1.894 0.099-2.66 0-1.11-0.024-2.106-0.072-2.99h0.771c-0.054 0.899-0.08 1.897-0.08 2.99 0 1.07 0.026 1.969 0.08 2.698z" fill="#ef2e32"/>
  </g>
  <g transform="matrix(6.657 0 0 -6.657 99.926 -105.89)">
   <path d="m0 0c-0.093 0.013-0.185 0.021-0.276 0.021-0.287 0-0.538-0.037-0.748-0.114-0.215-0.076-0.38-0.195-0.501-0.359-0.121-0.163-0.202-0.374-0.245-0.631s-0.064-0.565-0.064-0.927c-0.181 0-0.46 9e-3 -0.83 0.031l-0.025-0.589c0.402 0.017 0.69 0.024 0.855 0.024 0-1.239-0.02-2.305-0.06-3.198h0.714c-0.031 0.915-0.049 1.98-0.049 3.198 0.189 0 0.553-7e-3 1.096-0.024l0.024 0.598c-0.475-0.026-0.847-0.04-1.111-0.04 0 0.286 9e-3 0.528 0.026 0.723 0.02 0.196 0.063 0.352 0.129 0.475 0.066 0.119 0.162 0.207 0.284 0.259 0.124 0.055 0.292 0.082 0.505 0.082 0.097 0 0.2-8e-3 0.307-0.022z" fill="#ef2e32"/>
  </g>
  <g transform="matrix(6.657 0 0 -6.657 135.8 -67.684)">
   <path d="m0 0-0.62-0.024c-0.038 0.15-0.057 0.274-0.057 0.369h-0.041c-0.355-0.3-0.787-0.448-1.295-0.448-0.463 0-0.801 0.11-1.009 0.334-0.211 0.223-0.317 0.672-0.317 1.35 0 0.098 4e-3 0.239 0.01 0.43 3e-3 0.19 7e-3 0.319 7e-3 0.39 0 0.393-0.023 0.857-0.068 1.389l0.746 0.029c-0.032-0.518-0.046-0.96-0.046-1.327 0-0.843 0.052-1.392 0.161-1.647 0.106-0.255 0.353-0.383 0.732-0.383 0.429 0 0.781 0.107 1.059 0.321 0 1.487-0.013 2.49-0.039 3.007l0.722 0.029c-0.021-0.505-0.033-1.2-0.033-2.09 0-0.569 0.03-1.145 0.088-1.729" fill="#ef2e32"/>
  </g>
  <g transform="matrix(6.657 0 0 -6.657 157.85 -83.29)">
   <path d="m0 0c0 0.752-0.313 1.127-0.942 1.127-0.643 0-1.02-0.391-1.136-1.172zm0.672 7e-3c0-0.112-6e-3 -0.267-0.017-0.465l-2.757-0.048c0.027-0.392 0.177-0.719 0.453-0.981 0.276-0.264 0.641-0.396 1.096-0.396 0.405 0 0.789 0.049 1.145 0.148l-0.069-0.564c-0.264-0.105-0.64-0.156-1.136-0.156-0.695 0-1.227 0.189-1.591 0.568-0.365 0.381-0.547 0.843-0.547 1.389 0 0.584 0.165 1.086 0.499 1.507 0.333 0.423 0.781 0.633 1.341 0.633 0.518 0 0.91-0.153 1.178-0.458 0.271-0.305 0.405-0.697 0.405-1.177" fill="#ef2e32"/>
  </g>
  <g transform="matrix(6.657 0 0 -6.657 188.94 -67.662)">
   <path d="m0 0h-0.732c0.06 0.703 0.09 1.471 0.09 2.303 0 0.413-0.084 0.693-0.252 0.845-0.167 0.152-0.407 0.228-0.714 0.228-0.382 0-0.732-0.14-1.053-0.414 0-0.912 4e-3 -1.899 0.016-2.962h-0.729c0.045 0.909 0.068 1.566 0.068 1.976 0 0.624-0.061 1.232-0.177 1.82l0.707 0.102 0.076-0.491h0.031c0.395 0.358 0.82 0.537 1.272 0.537 0.443 0 0.788-0.096 1.032-0.294 0.243-0.197 0.365-0.547 0.365-1.05 0-0.05-3e-3 -0.151-7e-3 -0.299-6e-3 -0.152-0.01-0.251-0.01-0.304 0-0.446 5e-3 -1.112 0.017-1.997" fill="#ef2e32"/>
  </g>
  <g transform="matrix(6.657 0 0 -6.657 213.17 -71.742)">
   <path d="m0 0-0.039-0.538c-0.218-0.122-0.509-0.182-0.871-0.182-0.693 0-1.222 0.191-1.591 0.572-0.365 0.384-0.548 0.845-0.548 1.384 0 0.575 0.192 1.065 0.578 1.478 0.386 0.411 0.894 0.617 1.528 0.617 0.318 0 0.579-0.031 0.779-0.095l-0.109-0.63c-0.28 0.105-0.566 0.157-0.854 0.157-0.381 0-0.682-0.135-0.908-0.399-0.224-0.265-0.335-0.596-0.335-0.995 0-0.433 0.133-0.795 0.4-1.083 0.268-0.288 0.646-0.434 1.136-0.434 0.201 0 0.479 0.048 0.834 0.148" fill="#ef2e32"/>
  </g>
  <g transform="matrix(6.657 0 0 -6.657 233.73 -83.29)">
   <path d="m0 0c0 0.752-0.313 1.127-0.944 1.127-0.641 0-1.021-0.391-1.136-1.172zm0.67 7e-3c0-0.112-4e-3 -0.267-0.015-0.465l-2.758-0.048c0.028-0.392 0.178-0.719 0.454-0.981 0.274-0.264 0.641-0.396 1.094-0.396 0.407 0 0.789 0.049 1.145 0.148l-0.068-0.564c-0.263-0.105-0.641-0.156-1.137-0.156-0.695 0-1.225 0.189-1.591 0.568-0.367 0.381-0.548 0.843-0.548 1.389 0 0.584 0.166 1.086 0.501 1.507 0.331 0.423 0.779 0.633 1.342 0.633 0.516 0 0.907-0.153 1.178-0.458 0.269-0.305 0.403-0.697 0.403-1.177" fill="#ef2e32"/>
  </g>
  <g transform="matrix(6.657 0 0 -6.657 74.283 -63.853)">
   <path d="m0 0-0.044-0.928c-1.015 0.045-1.936 0.069-2.76 0.069 0.043-0.484 0.064-1.019 0.064-1.605 0.629 0 1.343 0.014 2.139 0.042v-0.877c-0.807 0.025-1.522 0.038-2.139 0.038 0-0.8 0.014-1.549 0.045-2.254h-1.349c0.043 0.854 0.064 1.814 0.064 2.886 0 1.027-0.021 1.904-0.064 2.629z" fill="#00adef"/>
  </g>
  <g transform="matrix(6.657 0 0 -6.657 99.449 -53.089)">
   <path d="m0 0c0 0.56-0.417 0.841-1.25 0.841-0.306 0-0.575-0.019-0.81-0.059 0.035-0.437 0.054-1.008 0.054-1.709 0.177-6e-3 0.331-9e-3 0.453-9e-3 1.034 0 1.553 0.311 1.553 0.936m1.832-3.898h-1.446c-0.376 1.001-0.669 1.618-0.869 1.852-0.201 0.233-0.527 0.352-0.978 0.352-0.187 0-0.37-2e-3 -0.541-6e-3 0-0.725 0.015-1.459 0.044-2.198h-1.358c0.043 0.854 0.064 1.814 0.064 2.886 0 1.027-0.021 1.903-0.064 2.629h0.845c0.097 0 0.301 6e-3 0.613 0.014s0.598 0.014 0.863 0.014c1.493 0 2.241-0.445 2.241-1.332 0-0.703-0.426-1.194-1.281-1.47v-0.064c0.331-0.078 0.617-0.302 0.866-0.666 0.246-0.366 0.58-1.036 1.001-2.011" fill="#00adef"/>
  </g>
  <g transform="matrix(6.657 0 0 -6.657 135.36 -43.082)">
   <path d="m0 0c-0.556 1.456-0.833 2.243-0.833 2.362h-0.078c0-0.109-0.288-0.897-0.864-2.362zm2.26-2.395h-1.565c0 0.187-0.147 0.715-0.443 1.585h-2.257c-0.306-0.857-0.459-1.382-0.459-1.585h-1.469c0 0.111 0.38 1.014 1.14 2.71 0.76 1.698 1.141 2.634 1.141 2.805h1.845c0-0.159 0.343-1.081 1.033-2.763 0.687-1.681 1.034-2.601 1.034-2.752" fill="#00adef"/>
  </g>
  <g transform="matrix(6.657 0 0 -6.657 184.84 -27.14)">
   <path d="m0 0h-1.208c0 0.117-0.445 0.728-1.341 1.834-0.939 1.166-1.472 1.964-1.602 2.395h-0.078c0.081-0.619 0.121-1.178 0.121-1.679 0-0.696 0.025-1.546 0.07-2.55h-1.202c0.049 0.875 0.072 1.838 0.072 2.886 0 1.029-0.023 1.906-0.072 2.629h1.451c0-0.148 0.401-0.747 1.207-1.791 0.855-1.11 1.345-1.863 1.474-2.258h0.074c-0.079 0.631-0.119 1.196-0.119 1.694 0 0.765-0.024 1.55-0.067 2.355h1.22c-0.047-0.7-0.069-1.576-0.069-2.629 0-1.062 0.022-2.023 0.069-2.886" fill="#00adef"/>
  </g>
  <g transform="matrix(6.657 0 0 -6.657 218.67 -33.823)">
   <path d="m0 0-0.081-0.973c-0.464-0.097-0.92-0.144-1.37-0.144-1.115 0-1.966 0.266-2.55 0.802-0.586 0.536-0.876 1.186-0.876 1.951 0 0.793 0.309 1.482 0.929 2.07 0.62 0.589 1.472 0.883 2.552 0.883 0.397 0 0.773-0.039 1.127-0.119l-0.171-0.978c-0.384 0.107-0.751 0.16-1.102 0.16-0.662 0-1.153-0.181-1.476-0.544-0.321-0.364-0.483-0.804-0.483-1.324 0-0.531 0.191-0.991 0.575-1.382 0.381-0.388 0.917-0.584 1.608-0.584 0.403 0 0.843 0.062 1.318 0.182" fill="#00adef"/>
  </g>
  <g transform="matrix(6.657 0 0 -6.657 236.19 -29.095)">
   <path d="m0 0c-0.22 0.045-0.36 0.169-0.458 0.336 0.188 0.2 0.462 0.309 0.458 0.696-0.305 0.054-0.71 8e-3 -1.055 0.023v0.575h0.502c-0.027 0.298-0.081 0.553-0.262 0.671-0.394 0.262-0.882-0.157-0.624-0.622-0.439 0-0.763 0.323-0.863 0.744v0.311c0.126 0.522 0.513 0.913 1.031 0.837 0.756-0.109 1.057-1.119 1.078-1.941h0.312c0.111 1.167-0.65 1.941-0.693 2.876-0.013 0.274 0.027 0.52 0.101 0.749-0.535-0.127-1.009-0.38-1.415-0.762-0.614-0.569-0.919-1.289-0.919-2.154 0-0.809 0.288-1.476 0.868-2 0.569-0.513 1.271-0.773 2.108-0.783-0.075 0.129-0.136 0.275-0.169 0.444" fill="#00adef"/>
  </g>
  <g transform="matrix(6.657 0 0 -6.657 253.09 -59.495)">
   <path d="m0 0c-0.407 0.365-0.882 0.603-1.427 0.713 0.076-0.226 0.119-0.473 0.109-0.748-0.033-0.946-0.808-1.722-0.695-2.876 0.056-0.055 0.214-8e-3 0.314-0.026 0.034 0.845 0.31 1.83 1.077 1.942 0.567 0.083 0.905-0.345 1.029-0.837v-0.312c-0.112-0.431-0.388-0.7-0.862-0.767 0.407 0.865-0.991 0.962-0.886 0 0.121-0.057 0.342-8e-3 0.502-0.026v-0.574h-1.055c-0.017-0.411 0.264-0.52 0.457-0.719-0.111-0.146-0.198-0.313-0.457-0.311-0.028-0.181-0.086-0.331-0.164-0.462 0.786 0.051 1.458 0.331 2.01 0.848 0.611 0.57 0.917 1.289 0.917 2.155 0 0.81-0.288 1.476-0.869 2" fill="#00adef"/>
  </g>
 </g>
</svg>
