<svg width="800" height="348.12" version="1.1" viewBox="0 0 211.67 92.108" xmlns="http://www.w3.org/2000/svg">
 <defs>
  <radialGradient id="radialGradient12218" cx="0" cy="0" r="1" gradientTransform="matrix(27.13 0 0 -27.13 65.852 113.45)" gradientUnits="userSpaceOnUse">
   <stop stop-color="#2651a3" offset="0"/>
   <stop stop-color="#2651a3" offset=".66292"/>
   <stop stop-color="#4aa4e0" offset=".82584"/>
   <stop stop-color="#2f67b7" offset="1"/>
  </radialGradient>
  <clipPath id="clipPath12228">
   <path d="m0 0h612v792h-612z"/>
  </clipPath>
  <radialGradient id="radialGradient12258" cx="0" cy="0" r="1" gradientTransform="matrix(27.125 0 0 -27.125 65.851 113.45)" gradientUnits="userSpaceOnUse">
   <stop stop-color="#2651a3" offset="0"/>
   <stop stop-color="#2651a3" offset=".66292"/>
   <stop stop-color="#4aa4e0" offset=".82584"/>
   <stop stop-color="#2f67b7" offset="1"/>
  </radialGradient>
  <radialGradient id="radialGradient12282" cx="0" cy="0" r="1" gradientTransform="matrix(27.11 0 0 -27.11 65.858 113.46)" gradientUnits="userSpaceOnUse">
   <stop stop-color="#2651a3" offset="0"/>
   <stop stop-color="#2651a3" offset=".66292"/>
   <stop stop-color="#4aa4e0" offset=".82584"/>
   <stop stop-color="#2f67b7" offset="1"/>
  </radialGradient>
  <clipPath id="clipPath12292">
   <path d="m0 0h612v792h-612z"/>
  </clipPath>
  <radialGradient id="radialGradient12382" cx="0" cy="0" r="1" gradientTransform="matrix(9.8487 0 0 -9.8487 65.759 129.28)" gradientUnits="userSpaceOnUse">
   <stop stop-color="#ec1d27" offset="0"/>
   <stop stop-color="#ec1d27" offset=".1236"/>
   <stop stop-color="#f8b10b" offset=".41011"/>
   <stop stop-color="#97d222" offset=".6635"/>
   <stop stop-color="#97d222" offset=".77528"/>
   <stop stop-color="#4aa4e0" offset="1"/>
  </radialGradient>
  <radialGradient id="radialGradient12404" cx="0" cy="0" r="1" gradientTransform="matrix(.07816 0 0 -.030014 59.167 128.88)" gradientUnits="userSpaceOnUse">
   <stop stop-color="#fff" offset="0"/>
   <stop stop-color="#fff" offset=".79909"/>
   <stop stop-color="#4aa4e0" offset="1"/>
  </radialGradient>
  <radialGradient id="radialGradient12428" cx="0" cy="0" r="1" gradientTransform="matrix(10.103 0 0 -3.8794 65.384 128.72)" gradientUnits="userSpaceOnUse">
   <stop stop-color="#ec1d27" offset="0"/>
   <stop stop-color="#ec1d27" offset=".53933"/>
   <stop stop-color="#f9d007" offset=".83708"/>
   <stop stop-color="#97ce43" offset="1"/>
  </radialGradient>
 </defs>
 <g transform="translate(74.281 9.7691)">
  <g transform="matrix(6.7414 0 0 -6.7414 -415.54 929.43)">
   <path d="m51.513 136c0.583-0.58 0.551-3.88 0.551-3.88s0.04 1.033 0.707 2.06c0.428 0.667 2.425 1.356 3.228 1.639 1.3 0.463 1.858 0.396 2.045-0.209 0.341-1.118 0.375-2.241-0.46-3.49-0.827-1.26-2.022-1.676-3.017-1.511-0.994 0.17-0.734 1.132-0.329 1.596-0.789-0.424-1.883-0.516-2.144-0.452 0-1.792-0.914-3.257-1.473-4.022 1.8 0 3.953 0.82 5.778 2.059 1.546 1.046 2.612 1.686 3.246 2.851 0.561 1.045 0.347 2.43 1e-3 3.61-0.168 0.568-0.178 0.88 0.714 1.155 1.469 0.466 1.187 1.24 2.008 1.574-4.692-0.915-7.166-2.98-10.855-2.98" fill="url(#radialGradient12218)"/>
   <g clip-path="url(#clipPath12228)">
    <g transform="translate(52.12 133.24)">
     <path d="m0 0c0.189 0.465 0.187 1.134 0.09 1.562-0.043 0.176-0.107 0.36-0.196 0.518l-0.167 0.279c5e-3 0.108 0.025 0.096 0.138 0.141 0.162 0.075 0.445 0.075 0.615 0.086 0.507 0.041 0.963 0.127 1.438 0.321 0.811 0.315 1.691 0.657 2.456 0.792-0.548-0.158-1.077-0.32-1.565-0.631-0.622-0.386-1.207-0.568-1.931-0.655-0.35-0.046-0.822 0.011-0.745-0.44 0.073-0.434 0.23-1.28-0.133-1.973" fill="#4aa4e0"/>
    </g>
    <g transform="translate(56.757 137.06)">
     <path d="M 0,0 C 0.792,0.178 1.385,0.052 2.11,0.412 2.666,0.693 3.321,1.08 3.901,1.322 4.126,1.42 4.546,1.566 4.779,1.623 3.987,1.457 3.013,1 2.269,0.699 1.328,0.322 0.59,0.191 0,0" fill="#4aa4e0"/>
    </g>
   </g>
   <path d="m61.405 135.79c-0.199-1.589-0.13-2.292-2.157-4.045 0 0 2.686 1.659 5.008 2.023-0.693 0.3-1.19 0.828-1.126 1.359 0.069 0.535 0.461 0.865 2.854 0.865 2.391 0 2.788-0.33 2.853-0.865 0.067-0.531-0.431-1.059-1.128-1.359 2.304-0.36 5.022-1.989 5.078-2.022-2.021 1.752-1.955 2.456-2.155 4.044-0.2 1.595-1.065 3.525-4.614 3.525-3.553 0-4.415-1.93-4.613-3.525m2.169 1.374c0.305 0.332 0.718 0.905 2.41 0.905 1.695 0 2.106-0.573 2.411-0.905 0.715-0.783-0.479-0.412-2.411-0.412-0.936 0-1.701-0.088-2.157-0.088-0.482 0-0.619 0.098-0.253 0.5" fill="url(#radialGradient12258)"/>
   <path d="m71.034 138.64c0.861-0.554 0.993-1.123 0.993-2.285s-0.17-2.154 0.366-3.487c0.529-1.326 1.229-1.66 3.083-2.886-1.059 1.428-1.225 2.397-1.325 2.955-0.1 0.561-0.333 2.825 0.036 2.657 0.357-0.169 1.226-2.258 1.987-4.779 0.302 1.424 1.131 2.953 1.395 2.884 0.268-0.065 0.333-0.727 0.365-2.091 0.035-1.361 0.07-2.492-1.458-2.259 1.163-0.954 3.655-1.521 5.543-1.757-1.062 0.331-2.093 1.559-2.455 3.418-0.365 1.858-0.199 4.284 0.728 5.112-3.086 0.299-3.752-1.325-4.118-2.984-0.928 3.119-2.619 4.948-5.14 5.502z" fill="url(#radialGradient12282)"/>
   <g clip-path="url(#clipPath12292)">
    <g transform="translate(53.814 131.92)">
     <path d="m0 0c-0.389-0.387-1.501-0.041-1.604-0.675-0.114-0.701-0.243-1.872-1.018-2.835 0.749 0.718 0.799 0.976 0.976 1.49 0.129 0.38 0.093 0.87 0.33 1.204 0.146 0.205 0.412 0.176 0.633 0.259 0.301 0.127 0.559 0.267 0.683 0.557" fill="#4aa4e0"/>
    </g>
    <g transform="translate(58.185 135.55)">
     <path d="M 0,0 C 0.449,-1.43 0.179,-3.738 -1.877,-4.695 0.4,-3.837 0.681,-1.444 0,0" fill="#4aa4e0"/>
    </g>
    <g transform="translate(51.036 127.93)">
     <path d="m0 0s1.991 0.207 3.717 1.133c1.723 0.931 5.046 2.726 5.068 4.74 0.022 2.009-0.752 3.076-0.353 3.343 0.395 0.265 1.285 0.507 1.551 0.731 0.261 0.215 0.662 0.729 0.662 0.729s-0.689-0.397-1.083-0.58c-0.402-0.177-1.084-0.772-1.416-0.903-0.332-0.136-0.867-0.509-0.49-1.154 0.377-0.638 1.107-2.15 0.706-2.944-0.393-0.793-1.101-1.66-2.19-2.191-1.081-0.529-2.032-0.974-2.609-1.261-0.572-0.288-0.866-0.247-1.151 0.204-0.285 0.435-0.912 0.098-1.172-0.451-0.576-1.212-1.24-1.396-1.24-1.396" fill="#243971"/>
    </g>
    <g transform="translate(52.474 133.96)">
     <path d="m0 0s0.461 0.876 1.329 1.169c0.864 0.285 2.038 0.797 2.498 0.979 0.469 0.168 1.172 0.415 1.443 0.168-0.291 0.405-0.932 0.275-1.527 0.091-0.597-0.18-1.573-0.664-2.369-0.861-0.801-0.197-1.332-0.227-1.332-0.598 0-0.374 0.094-0.535-0.042-0.948" fill="#243971"/>
    </g>
    <g transform="translate(60.046 132.33)">
     <path d="M 0,0 C 0.764,0.729 1.307,1.374 1.49,3.05 1.671,4.731 2.355,5.977 3.615,6.47 4.877,6.975 6.953,6.866 7.648,6.69 4.736,6.966 3.726,6.351 3.227,6.102 2.734,5.849 2.158,5.06 2.101,4.827 2.053,4.593 2.073,4.17 1.923,3.888 1.772,3.608 1.607,3.222 1.592,2.919 1.577,2.617 1.592,1.743 1.506,1.343 1.423,0.945 0.962,0.692 0.612,0.463 0.26,0.231 0,0 0,0" fill="#4aa4e0"/>
    </g>
    <g transform="translate(68.358 137.49)">
     <path d="M 0,0 C 0.25,-0.275 0.897,-1.014 -0.066,-0.977 0.495,-1.111 0.762,-0.926 0.666,-0.748 0.564,-0.566 0,0 0,0" fill="#4aa4e0"/>
    </g>
    <g transform="translate(63.711 136.56)">
     <path d="m0 0c0.544 0.046 2.457 0.102 2.959 0.046 0.492-0.046 1.408-0.084 1.408-0.084s-1.345-0.111-1.793-0.064c-0.446 0.051-1.045 0.119-1.394 0.082-0.352-0.031-1.18 0.02-1.18 0.02" fill="#4aa4e0"/>
    </g>
    <g transform="translate(68.954 135.42)">
     <path d="m 0,0 c 0.089,-0.252 0.185,-1.232 -0.776,-1.58 0.993,0.135 1.358,0 1.275,0.285 -0.08,0.279 -0.265,0.496 -0.282,0.777 C 0.201,-0.236 0,0 0,0" fill="#4aa4e0"/>
    </g>
    <g transform="translate(61.274 132.97)">
     <path d="M 0,0 C 0.747,0.415 1.358,0.663 1.791,0.718 2.223,0.767 2.605,0.782 2.273,1.074 1.934,1.378 1.738,1.561 1.738,1.988 c 0,0.435 0.187,0.948 0.768,1 0.58,0.048 1.876,0.247 2.835,0.149 C 6.303,3.036 7.053,2.952 7.318,2.804 6.952,3.15 6.734,3.137 6.192,3.255 5.637,3.372 4.781,3.235 4.326,3.27 3.88,3.302 3.566,3.384 2.965,3.32 2.369,3.255 2.175,3.102 2.006,3.331 1.84,3.567 1.934,3.979 2.123,4.237 2.302,4.481 3.201,5.33 4.709,5.257 6.222,5.194 6.62,4.877 6.849,4.696 6.471,5.227 5.696,5.474 4.965,5.492 4.35,5.517 4.126,5.407 3.285,5.206 2.436,5.013 1.889,4.545 1.621,4.151 1.396,3.804 1.358,3.78 1.558,3.587 1.756,3.384 1.658,3.003 1.375,2.724 1.091,2.44 0.994,1.923 1.058,1.495 1.126,1.061 0.778,0.55 0,0" fill="#243971"/>
    </g>
    <g transform="translate(68.875 133.69)">
     <path d="M 0,0 C 0.681,-0.205 1.441,-0.437 1.99,-0.753 2.541,-1.071 3.019,-1.451 2.604,-0.834 2.19,-0.219 1.922,-0.037 1.808,0.66 1.689,1.357 1.659,2.433 1.325,3.188 0.994,3.932 0.464,4.641 -0.318,4.99 0.427,4.412 0.909,3.695 1.011,3.127 1.11,2.567 0.795,2.666 0.809,2.354 0.828,2.032 0.994,1.787 1.263,1.221 1.521,0.66 1.672,0.356 1.338,0.258 1.011,0.162 0,0 0,0" fill="#243971"/>
    </g>
    <g transform="translate(72.214 134.05)">
     <path d="m 0,0 c -0.225,1.172 -0.068,2.388 -0.021,2.921 0.044,0.527 -0.133,0.772 -0.266,0.945 -0.132,0.18 0.201,0.225 0.576,0 C 0.667,3.651 1.438,3.227 2.122,2.363 1.083,3.208 0.442,3.495 0.332,3.274 0.219,3.054 0.537,2.833 0.219,2.229 -0.196,1.438 0,0 0,0" fill="#4aa4e0"/>
    </g>
    <g transform="translate(76.352 133.34)">
     <path d="M 0,0 C 0.357,1.389 1.151,2.72 3.499,2.656 2.898,2.5 2.766,2.148 2.215,2.127 1.659,2.107 1.418,2.059 0.911,1.552 0.4,1.035 0,0 0,0" fill="#4aa4e0"/>
    </g>
    <g transform="translate(78.102 131.41)">
     <path d="m0 0c0.09-1.663-0.266-2.233-1.04-2.233 0.817-0.245 1.438-0.2 1.325 0.22-0.11 0.419-0.155 0.688-0.155 0.926 0 0.246-0.13 1.087-0.13 1.087" fill="#4aa4e0"/>
    </g>
    <g transform="translate(74.142 135.75)">
     <path d="m0 0c-0.203 0-0.49-0.619-0.294-2.008 0.203-1.396 0.471-1.906 0.628-2.306 0.148-0.399-0.112-0.575-0.406-0.349-0.283 0.215-0.839 0.568-1.148 1.19 0.398-0.068 0.602 0.043 0.487 0.487-0.112 0.439-0.421 0.621-0.262 1.394 0.15 0.783 0.408 0.932 0.441 1.417 0.044 0.721 0.554 0.175 0.554 0.175" fill="#243971"/>
    </g>
    <g transform="translate(75.731 132.7)">
     <path d="m0 0s0.291-1.154 0.489-0.951c0.201 0.202 0.397 0.862 0.642 1.303 0.243 0.441 0.442 0.91 0.862 0.842-0.307 0.329-0.775 0.11-0.972-0.376-0.199-0.49-0.265-1.087-0.532-1.104-0.267-0.025-0.489 0.286-0.489 0.286" fill="#243971"/>
    </g>
    <g transform="translate(79.738 135.55)">
     <path d="m0 0c-0.352-0.6-0.841-2.787-0.373-4.514 0.459-1.724 0.926-2.346 1.058-2.566 0.134-0.213 0.09-0.461-0.509-0.315-0.593 0.16-1.172 0.315-1.59 0.559 0.552 0.197 0.907 0.266 0.747 0.93-0.15 0.664 0.205 0.681 0.092 1.329-0.109 0.638-0.143 1.8-0.266 2.921-0.155 1.416 0.841 1.656 0.841 1.656" fill="#243971"/>
    </g>
   </g>
   <path d="m65.623 132.9c-6.106-0.08-9.408-5.639-13.313-5.639 3.933 0 7.255-1.604 13.446-1.604 6.196 0 9.511 1.604 13.452 1.604-3.913 0-7.208 5.559-13.32 5.639z" fill="url(#radialGradient12382)"/>
   <path d="m59.144 128.92 0.027-0.075 0.019-8e-3z" fill="url(#radialGradient12404)"/>
   <path d="m62.956 132.5c-0.375-0.106-0.738-0.233-1.091-0.374l0.24 0.033c0.288 0.024 0.371 0.017 0.404 0h-1e-3l0.016-0.011-0.015 0.011c3.427 0.295 6.626-0.114 9.202-1.055-0.562 0.328-1.149 0.636-1.766 0.9-0.182 0.039-0.387 0.083-0.623 0.138l-2e-3 0.028c-1.25 0.259-2.809 0.392-4.431 0.392-0.639 0-1.288-0.02-1.933-0.062m-0.341-0.402c-0.392-0.042-0.781-0.089-1.161-0.144-1.905-0.837-3.519-2.078-5.039-3.074 0.019-0.188 0.082-0.38 0.207-0.572 0.428-0.719 1.453-1.385 2.599-1.855 0.223-0.104 0.47-0.21 0.739-0.315 1.663-0.27 3.539-0.484 5.796-0.484 0.948 0 1.829 0.038 2.655 0.102l-0.144 0.01c1.182 0.174 2.397 0.604 2.739 0.838-0.502-0.242-1.106-0.459-1.785-0.6 0.027 0.018-0.17 2e-3 -0.376-0.013-0.346-0.025-0.714-0.051-0.062 0.08-1.998-0.342-4.87-0.02-6.725 0.519 0.223-0.103 0.563-0.198 0.459-0.206-1.017 0.249-0.8 0.28-0.925 0.368-0.699 0.214-0.797 0.118-1.289 0.241-1.031 0.624-1.259 0.716-1.541 1.321l-0.188-0.058c-0.125 0.426-0.499 0.485-0.324 0.952 0.038 0.021 0.071-0.155 0.133-0.292-0.067 0.401 0.214 0.354 0.355 0.746 0.024-0.113 0.019-0.219 0.074-0.316 0.1 0.296 0.479 0.725 0.53 0.541 0.207 0.593 1.848 1.17 3.675 1.237l-0.087-0.082c0.842 0.175 3.293-8e-3 4.029-0.042l0.085-0.053c0.563-0.033 1.061-0.13 1.555-0.26 0.371-0.187 0.224-0.229 0.177-0.236h7e-3c0.986-0.505 1.305-1.173 1.159-1.572 0.335-0.11 0.038-0.869-1.331-1.231-2.771-1.11-8.18 0.126-7.059 1.653 0.283 0.711 2.525 1.098 4.183 0.876 1.848-0.16 2.293-1.285 0.465-1.607-0.502-0.048-1.149-0.082-1.827 0.061-0.295 0.09-0.547 0.21-0.641 0.385-0.185 0.203 0.497 0.413 0.93 0.38-0.551 0.065-1.215-0.2-1.071-0.372 0.029-0.16 0.192-0.255 0.341-0.348 0.343-0.188 0.952-0.274 1.832-0.274 1.351 0.074 2.053 0.258 2.554 0.78-0.09-0.09-0.274-0.167-0.402-0.238 0.193 0.787 0.389 0.631-0.536 1.132l0.322 0.068c-0.431 0.207-1.678 0.483-2.276 0.557l-0.542-0.081c-0.715 0.045-1.286 0.021-1.727-4e-3 -0.319-0.018-0.57-0.037-0.759-0.028l0.204-0.058c-0.227-0.012-1.396-0.246-1.926-0.648-0.543-0.362-0.615-0.653-0.646-0.329-0.022-0.157-0.12-0.291-0.118-0.631l-0.22-0.048c0-0.526 0.693-1.006 0.77-1.153-0.357 0.23-0.552 0.3-0.733 0.375 1.077-0.936 1.76-0.935 2-0.934h0.052c0.318 0.033 0.387-0.049 2.315-0.346l-0.09-0.052 1.072-0.047 1.134-0.074c1.468 0.066 5.806 1.027 5.307 2.291-0.069 0.394 0.126 0.888-0.748 1.584l-0.15-0.09c-0.125 0.284-1.224 0.98-3.005 1.255-1.01 0.187-2.033 0.279-2.84 0.346 1.151-4e-3 2.226-0.075 3.009-0.199-1.033 0.199-2.461 0.268-3.79 0.287-0.091 4e-3 -0.19 7e-3 -0.291 9e-3l-0.13 0.016-0.152-0.013c-0.412 3e-3 -0.812 0-0.898 0.019zm11.986-2.932-0.45 0.07c0.601-0.302 0.168-1.055-0.212-1.619-0.153-0.084-0.168-0.048-0.123 0.062-0.047-0.105-0.12-0.211-0.307-0.368 0.035 0.138 0.092 0.269 0.059 0.412-0.069-0.451-0.847-0.693-1.272-0.862 0.011-0.033 0.586 0.085-0.247-0.346-0.278-0.106-0.313-0.093-0.34-0.079l-0.066 5e-3c0-0.036-0.126-0.203-0.664-0.392 1.139 0.17 2.174 0.373 3.157 0.564 0.557 0.372 0.992 0.799 1.335 1.258l-0.448-0.427c0.243 0.46 0.486 0.765 0.49 1.17-0.321 0.202-0.646 0.418-0.976 0.641zm-6.283 0.016 9e-3 0.01zm-12.868-0.902c0.346-0.562 0.994-1.094 1.821-1.538 0.119-0.063 0.242-0.123 0.37-0.181 0.499-0.097 1.013-0.196 1.548-0.291l-0.018 7e-3c-1.453 0.519-2.396 1.209-3.047 1.748-0.064 0.154-0.156 0.339-0.232 0.521-0.148-0.092-0.295-0.181-0.442-0.266m18.374-0.584c0.056 0.127 0.18 0.335 0.272 0.56-0.192-0.271-0.212-0.417-0.272-0.56m-8e-3 -0.017 8e-3 0.017zm-3.634-1.741c0.189 0.024 0.376 0.05 0.56 0.076 0.094 0.061 0.358 0.174 0.329 0.211-0.329-0.107-0.604-0.214-0.889-0.287" fill="url(#radialGradient12428)"/>
   <g transform="translate(68.488 126.32)">
    <path d="m0 0c-0.333 0.517-0.454 1.345-0.552 2.017-0.02 0.168-0.048 0.321-0.074 0.459-0.209 1.188-0.16 1.464-0.13 1.527l-0.083-0.063-0.102-1e-3s0.055-0.027 0.172-0.173c0.778-0.944 1.365-3.364 1.118-3.725l-0.016-0.277c0.042-0.087 0.133-0.146 0.233-0.146 0.436 0 1.959 0.131 3.471 0.384 0.125 0.018 0.214 0.125 0.223 0.254 4e-3 0.124-0.081 0.24-0.206 0.269-0.695 0.184-1.082 0.662-1.348 1.643-0.189 0.713-0.193 1.688 0.109 2.008 0.053 0.054 0.141 0.122 0.322 0.083 0.133-0.031 0.263 0.042 0.311 0.157 0.045 0.123 4e-3 0.26-0.105 0.33-0.718 0.462-0.947 0.589-1.402 0.709-0.278 0.078-0.47-0.019-0.58-0.109-0.455-0.391-0.458-1.477-0.306-3.227-0.015 0.131 0.077 0.258 0.209 0.285 0.132 0.032 0.266-0.049 0.308-0.172-1.442 4.038-2.52 4.229-4.467 4.229-0.119 0-0.229-0.094-0.258-0.211-0.03-0.121 0.029-0.25 0.14-0.301 0.257-0.127 0.522-0.571 0.522-2.892 0-2.209-0.396-2.713-1.278-2.994-0.12-0.033-0.2-0.157-0.186-0.29 0.019-0.128 0.124-0.226 0.253-0.236 0.098-5e-3 2.295-0.121 3.516 0.048 0.09 9e-3 0.168 0.074 0.204 0.153l-0.018 0.262" fill="#1f204f"/>
   </g>
   <g transform="translate(64.801 126.13)">
    <path d="m 0,0 c 1.04,0.338 1.462,0.963 1.462,3.252 0,2.298 -0.25,2.924 -0.67,3.131 1.793,0 2.799,-0.086 4.218,-4.04 C 4.883,3.801 4.766,5.602 5.56,5.391 5.97,5.283 6.179,5.172 6.885,4.713 5.883,4.926 5.882,3.233 6.135,2.299 6.419,1.207 6.885,0.671 7.678,0.462 6.124,0.201 4.634,0.088 4.253,0.088 4.634,0.625 3.881,3.216 3.129,4.124 2.381,5.048 2.672,3.336 2.796,2.631 2.918,1.918 3.006,0.754 3.462,0.045 2.254,-0.125 0,0 0,0" fill="#fff"/>
   </g>
   <g transform="translate(62.412 126.48)">
    <path d="m0 0c-1.481 0.104-2.412 0.411-2.762 0.908-0.208 0.294-0.236 0.679-0.084 1.21 0.523 1.849 1.069 2.469 2.665 3.035 1.345 0.466 2.094 0.549 2.506 0.268 0.349-0.242 0.521-0.793 0.558-1.737 0.058-1.836-0.127-2.859-0.602-3.32-0.428-0.403-1.165-0.443-2.281-0.364m-0.357 5.661c-1.77-0.625-2.44-1.379-3.008-3.399-0.196-0.683-0.139-1.226 0.164-1.663 0.463-0.654 1.465-1.016 3.161-1.14 1.059-0.068 2.062-0.086 2.693 0.518 0.54 0.524 0.776 1.429 0.776 3.055 0 0.215 0 0.435-9e-3 0.668-0.037 1.144-0.282 1.81-0.788 2.164-0.579 0.397-1.446 0.336-2.989-0.203" fill="#1f204f"/>
   </g>
   <g transform="translate(62.229 127.91)">
    <path d="m0 0c-0.464 0.021-1.031 0.164-1.236 0.477-0.105 0.172-0.104 0.382 0 0.654 0.353 0.885 1.032 1.418 2.074 1.638 0.274 0.066 0.465 0.049 0.577-0.048 0.243-0.196 0.226-0.803 0.214-1.344v-0.112c-0.013-0.548-0.107-0.888-0.294-1.07-0.226-0.214-0.652-0.229-1.335-0.195m0.724 3.3c-1.209-0.263-2.038-0.923-2.461-1.974-0.213-0.543-0.093-0.923 0.047-1.141 0.385-0.594 1.292-0.708 1.665-0.729 0.701-0.036 1.32-0.034 1.728 0.345 0.302 0.288 0.45 0.732 0.464 1.455l3e-3 0.105c0.016 0.694 0.03 1.416-0.407 1.778-0.249 0.204-0.587 0.254-1.039 0.161" fill="#1f204f"/>
   </g>
   <g transform="translate(64.128 129.17)">
    <path d="m0 0c-0.036-1.496-0.663-1.59-1.911-1.529-0.831 0.043-1.911 0.406-1.474 1.5 0.377 0.931 1.092 1.557 2.265 1.81 1.208 0.26 1.137-0.77 1.12-1.781m1.43 1.011c-0.07 2.331-1.034 2.544-3.417 1.708-1.67-0.588-2.293-1.297-2.832-3.218-0.38-1.337 0.195-2.257 3.082-2.454 2.381-0.172 3.294 0.123 3.167 3.964" fill="#fff"/>
   </g>
   <g transform="translate(65.375 130.99)">
    <path d="m0 0c0.236-1.254 0.022-3.443-0.31-3.979-0.336-0.546-1.481-0.859-2.667-0.695-1.192 0.165-1.979 0.379-2.423 0.609 1.277-0.298 1.777-0.376 2.358-0.4 0.582-0.024 1.48 0.043 1.858 0.379 0.373 0.328 0.79 0.464 0.956 1.119 0.355 1.399 0.228 2.967 0.228 2.967" fill="#c6e6f8"/>
   </g>
   <g transform="translate(60.768 127.92)">
    <path d="M 0,0 C -0.527,0.485 -0.638,1.261 0.225,2.145 1.086,3.028 2.394,3.517 3.015,3.21 2.37,3.711 1.111,3.317 0.269,2.429 -0.572,1.542 -1.058,0.64 0,0" fill="#c6e6f8"/>
   </g>
   <g transform="translate(65.475 126.25)">
    <path d="M 0,0 C 0,0 1.711,0.084 2.17,0.042 2.63,0 2.502,0.227 2.335,0.576 2.17,0.941 1.918,2.023 1.899,2.609 1.879,3.191 1.731,4.51 2.17,4.379 1.775,4.67 1.671,3.98 1.711,3.38 1.749,2.771 1.838,2.109 1.838,1.523 1.838,0.941 2.21,0.65 1.686,0.523 1.168,0.406 0.788,0.062 0,0" fill="#c6e6f8"/>
   </g>
   <g transform="translate(69.311 126.38)">
    <path d="M 0,0 C 0,0 1.211,0.172 1.814,0.191 2.419,0.212 2.504,0.334 2.167,0.582 1.836,0.838 1.523,1.585 1.397,2.354 1.271,3.131 1.31,4.404 1.857,4.533 1.44,4.82 1.125,4.508 1.165,3.676 1.211,2.84 1.233,2.027 1.31,1.523 1.397,1.025 1.836,0.666 1.397,0.635 0.958,0.582 1.249,0.318 0,0" fill="#c6e6f8"/>
   </g>
  </g>
 </g>
</svg>
