<svg width="800" height="463.4" version="1.1" viewBox="0 0 211.67 122.61" xmlns="http://www.w3.org/2000/svg">
 <defs>
  <linearGradient id="linearGradient12848" x2="1" gradientTransform="matrix(0 11.619 11.619 0 65.791 250.96)" gradientUnits="userSpaceOnUse">
   <stop stop-color="#fcce06" offset="0"/>
   <stop stop-color="#f68912" offset="1"/>
  </linearGradient>
 </defs>
 <g transform="translate(-57.043 157.13)">
  <g transform="matrix(7.5324 0 0 -7.5324 -332.69 1820.7)">
   <path d="m61.129 259.92c0-1.534 1.157-2.734 2.739-2.734 1.577 0 2.733 1.2 2.733 2.734 0 1.501-1.156 2.667-2.733 2.667-1.582 0-2.739-1.166-2.739-2.667m1.325 0c0 0.856 0.629 1.501 1.414 1.501 0.781 0 1.406-0.645 1.406-1.501 0-0.893-0.625-1.567-1.406-1.567-0.785 0-1.414 0.674-1.414 1.567m9.314 2.581v-5.228h3.411v1.095h-2.131v4.133zm-4.299 0v-5.228h3.379v1.095h-2.098v0.986h1.594v1.1h-1.594v0.95h1.995v1.097zm-9.826 0v-1.097h1.401v-2.495c0-0.379-0.185-0.556-0.456-0.556-0.144 0-0.291 0.056-0.382 0.189-0.063 0.098-0.101 0.244-0.101 0.443v0.279h-1.277v-0.382c0-1.133 0.867-1.696 1.746-1.696 0.876 0 1.755 0.547 1.755 1.696v3.619zm0.165-7.735c0-1.603 2.354-1.584 2.354-2.207 0-0.314-0.284-0.414-0.547-0.414-0.656 0-1.25 0.539-1.25 0.539l-0.672-0.968s0.677-0.748 1.906-0.748c1.18 0 1.844 0.752 1.844 1.621 0 1.654-2.353 1.537-2.353 2.197 0 0.289 0.293 0.407 0.555 0.407 0.628 0 1.154-0.459 1.154-0.459l0.542 1.045s-0.557 0.591-1.682 0.591c-1.041 0-1.851-0.639-1.851-1.604m-6.067-1.064c0-1.535 1.158-2.734 2.733-2.734 1.582 0 2.736 1.199 2.736 2.734 0 1.498-1.154 2.668-2.736 2.668-1.575 0-2.733-1.17-2.733-2.668m1.326 0c0 0.855 0.626 1.498 1.407 1.498 0.782 0 1.414-0.643 1.414-1.498 0-0.891-0.632-1.567-1.414-1.567-0.781 0-1.407 0.676-1.407 1.567m25.494 2.58v-2.443c0-0.328 0.058-0.891 0.058-0.891h-0.014s-0.233 0.549-0.438 0.891l-1.446 2.443h-1.293v-5.227h1.279v2.439c0 0.323-0.062 0.888-0.062 0.888h0.013s0.238-0.551 0.443-0.888l1.452-2.439h1.289v5.227zm-7.433 0v-5.227h3.379v1.098h-2.099v0.985h1.593v1.097h-1.593v0.95h1.996v1.097zm-4.299 0v-5.227h3.377v1.098h-2.097v0.985h1.592v1.097h-1.592v0.95h1.994v1.097zm-5.093 0v-1.097h1.586v-4.13h1.277v4.13h1.586v1.097z" fill="url(#linearGradient12848)"/>
  </g>
  <g transform="matrix(7.5324 0 0 -7.5324 104.53 -48.928)" fill="#fff">
   <path d="m0 0c0.442 0 0.718 0.283 0.718 0.738 0 0.299-0.119 0.522-0.331 0.633-0.108 0.061-0.238 0.09-0.514 0.09h-0.738v-1.461zm-1.218 1.781h1.072c0.372 0 0.541-0.035 0.682-0.097 0.341-0.151 0.549-0.497 0.549-0.934 0-0.492-0.281-0.871-0.687-0.982v-0.012s0.037-0.045 0.094-0.147l0.79-1.459h-0.409l-0.823 1.53h-0.915v-1.53h-0.353z" fill="#fff"/>
  </g>
  <g transform="matrix(7.5324 0 0 -7.5324 133.97 -59.491)" fill="#fff">
   <path d="m0 0s-0.074-0.299-0.14-0.471l-0.482-1.314h1.248l-0.477 1.314c-0.061 0.172-0.139 0.471-0.139 0.471zm0.731-2.096h-1.459l-0.413-1.156h-0.377l1.332 3.631h0.381l1.334-3.631h-0.379z" fill="#fff"/>
  </g>
  <g transform="matrix(7.5324 0 0 -7.5324 164.72 -37.423)" fill="#fff">
   <path d="m0 0c0.896 0 1.489 0.523 1.489 1.496 0 0.963-0.598 1.492-1.489 1.492h-0.776v-2.988zm-1.135 3.309h1.176c1.085 0 1.822-0.666 1.822-1.813 0-1.158-0.737-1.818-1.822-1.818h-1.176z" fill="#fff"/>
  </g>
  <path d="m191.19-62.346h2.6741v27.35h-2.6741z" fill="#fff"/>
  <g transform="matrix(7.5324 0 0 -7.5324 220.09 -37.026)" fill="#fff">
   <path d="m0 0c0.814 0 1.475 0.68 1.475 1.568 0 0.87-0.661 1.524-1.475 1.524-0.824 0-1.479-0.654-1.479-1.524 0-0.888 0.655-1.568 1.479-1.568m0 3.424c1.025 0 1.848-0.811 1.848-1.856 0-1.064-0.823-1.9-1.848-1.9-1.029 0-1.85 0.836-1.85 1.9 0 1.045 0.821 1.856 1.85 1.856" fill="#fff"/>
  </g>
 </g>
</svg>
