<svg width="800" height="257.27" version="1.1" viewBox="0 0 211.67 68.068" xmlns="http://www.w3.org/2000/svg">
 <g transform="translate(197.25 35.672)">
  <g transform="matrix(6.1631 0 0 -6.1631 -1.2557 -15.801)">
   <path d="m0 0h-0.529v1.408h0.564c0.414 0 0.594-0.295 0.594-0.689 0-0.396-0.18-0.719-0.629-0.719m-5.774-1.807c-0.852 0-1.445 0.707-1.445 1.648 0 0.894 0.593 1.567 1.445 1.567 0.856 0 1.45-0.673 1.45-1.567 0-0.941-0.594-1.648-1.45-1.648m-5.562-0.091h-0.67v1.023h0.68c0.385 0 0.564-0.27 0.564-0.504 0-0.25-0.197-0.519-0.574-0.519m-0.67 3.398h0.528c0.339 0 0.465-0.216 0.465-0.43 0-0.181-0.126-0.441-0.43-0.441h-0.563zm12.408 1.525h-2.23c-0.386 0-0.592-0.201-0.592-0.585v-2.001c-0.262 1.549-1.538 2.692-3.354 2.692-2.045 0-3.394-1.444-3.394-3.29 0-0.134 4e-3 -0.267 0.019-0.398-0.155 0.212-0.38 0.393-0.708 0.497v0.017c0.486 0.287 0.728 0.861 0.728 1.361 0 1.139-0.961 1.707-2.34 1.707h-1.839c-0.383 0-0.593-0.201-0.593-0.585v-5.278c0-0.375 0.21-0.585 0.593-0.585h1.812c1.3 0 2.541 0.439 2.623 1.813 0.504-1.145 1.619-1.919 3.099-1.919 1.816 0 3.092 1.17 3.354 2.758v-2.067c0-0.375 0.206-0.585 0.592-0.585h0.719c0.386 0 0.58 0.21 0.58 0.585v1.228h0.931c1.293 0 2.141 0.995 2.141 2.329 0 1.328-0.848 2.306-2.141 2.306" fill="#293d9b"/>
  </g>
  <g transform="matrix(6.1631 0 0 -6.1631 -172.99 -15.254)">
   <path d="m0 0v0.017l1.291 2.395c0.215 0.405 0.045 0.702-0.424 0.702h-0.734c-0.32 0-0.537-0.131-0.699-0.424l-0.975-1.963h-0.502v1.802c0 0.384-0.197 0.585-0.583 0.585h-0.718c-0.386 0-0.592-0.201-0.592-0.585v-5.278c0-0.375 0.206-0.585 0.592-0.585h0.718c0.386 0 0.583 0.21 0.583 0.585v1.869h0.502l0.975-2.031c0.162-0.295 0.379-0.423 0.699-0.423h0.842c0.468 0 0.636 0.299 0.414 0.708z" fill="#ec008c"/>
  </g>
  <g transform="matrix(6.1631 0 0 -6.1631 -153.67 -34.447)">
   <path d="m0 0h-0.716c-0.386 0-0.592-0.201-0.592-0.585v-5.278c0-0.375 0.206-0.585 0.592-0.585h0.716c0.387 0 0.583 0.21 0.583 0.585v5.278c0 0.384-0.196 0.585-0.583 0.585" fill="#ec008c"/>
  </g>
  <g transform="matrix(6.1631 0 0 -6.1631 -133.49 -4.6669)">
   <path d="m0 0h-0.402v3.215h0.402c0.898 0 1.473-0.529 1.473-1.596 0-1.064-0.539-1.619-1.473-1.619m7.801 4.59-3.828 0.434c-0.387 0.044-0.602-0.129-0.647-0.514l-0.049-0.446c-0.041-0.371 0.129-0.6 0.514-0.642l1.521-0.174c0.278-0.033 0.503-0.027 0.503-0.027l-3e-3 -0.02s-0.232-0.143-0.574-0.519l-1.97-2.19c0.103 0.341 0.156 0.717 0.156 1.127 0 2.028-1.299 3.213-3.359 3.213h-1.766c-0.385 0-0.592-0.201-0.592-0.585v-5.278c0-0.375 0.207-0.585 0.592-0.585h1.766c1.108 0 1.995 0.354 2.582 0.995l-0.012-0.102c-0.043-0.374 0.128-0.602 0.513-0.642l3.977-0.451c0.309-0.039 0.516 0.08 0.605 0.326-0.119 0.098-0.18 0.252-0.18 0.459v0.751c-0.068 0.031-0.149 0.053-0.241 0.063l-1.683 0.193c-0.274 0.032-0.501 0.03-0.501 0.03l2e-3 0.017s0.231 0.145 0.574 0.522l2.281 2.535c0.196 0.215 0.282 0.421 0.314 0.707l0.019 0.166c0.04 0.373-0.13 0.593-0.514 0.637" fill="#ec008c"/>
  </g>
  <g transform="matrix(6.1631 0 0 -6.1631 -138.19 22.484)">
   <path d="m0 0c0.44 0 0.666 0.065 0.666 0.394 0 0.322-0.226 0.385-0.666 0.385h-1.044v-0.779zm-1.587 1.232h1.667c0.653 0 1.128-0.15 1.128-0.827 0-0.51-0.367-0.795-0.775-0.816l0.849-1.127h-0.666l-0.805 1.09h-0.855v-1.09h-0.543z" fill="#293d9b"/>
  </g>
  <g transform="matrix(6.1631 0 0 -6.1631 -110.34 25.18)">
   <path d="m0 0-0.578 1.235-0.58-1.235zm-0.889 1.67h0.617l1.348-2.771h-0.574l-0.291 0.635h-1.594l-0.295-0.635h-0.573z" fill="#293d9b"/>
  </g>
  <g transform="matrix(6.1631 0 0 -6.1631 -90.091 29.092)">
   <path d="m0 0c0.923 0 1.279 0.278 1.279 0.928 0 0.679-0.373 0.909-1.279 0.909h-0.551v-1.837zm-1.092 2.305h1.336c0.877 0 1.576-0.371 1.576-1.37 0-0.944-0.639-1.401-1.552-1.401h-1.36z" fill="#293d9b"/>
  </g>
  <path d="m-71.015 14.886h3.3096v17.078h-3.3096z" fill="#293d9b"/>
  <g transform="matrix(6.1631 0 0 -6.1631 -42.845 23.374)">
   <path d="m0 0c0 0.668-0.475 0.978-1.11 0.978-0.631 0-1.108-0.31-1.108-0.978 0-0.783 0.59-0.998 1.108-0.998 0.519 0 1.11 0.215 1.11 0.998m-1.11 1.445c1.221 0 1.653-0.716 1.653-1.477 0-0.572-0.342-1.432-1.653-1.432-1.308 0-1.648 0.86-1.648 1.432 0 0.761 0.431 1.477 1.648 1.477" fill="#293d9b"/>
  </g>
 </g>
</svg>
