<svg width="800" height="318.2" version="1.1" viewBox="0 0 211.67 84.191" xmlns="http://www.w3.org/2000/svg">
 <g transform="translate(-37.286 102.8)">
  <g transform="matrix(6.5284 0 0 -6.5284 42.274 -62.943)">
   <path d="m0 0 2.5 0.272-0.255-2.288 1.647 2.439 2.558 0.278-2.32-3.281 1.668-3.498-2.839-0.309-0.952 2.29-0.271-2.425-2.5-0.269z" fill="#f03e1e"/>
  </g>
  <g transform="matrix(6.5284 0 0 -6.5284 86.905 -67.792)">
   <path d="m0 0 2.519 0.273-0.764-6.79-2.521-0.276z" fill="#f03e1e"/>
  </g>
  <g transform="matrix(6.5284 0 0 -6.5284 106.97 -69.975)">
   <path d="m0 0 2.521 0.274-0.766-6.792-2.519-0.272z" fill="#f03e1e"/>
  </g>
  <g transform="matrix(6.5284 0 0 -6.5284 122.09 -42.227)">
   <path d="m0 0 2.349 0.257c-0.046-0.418 0.032-0.635 0.426-0.593 0.311 0.033 0.416 0.193 0.445 0.387 0.024 0.274-0.092 0.364-0.537 0.41l-0.315 0.03c-1.565 0.16-2.136 0.622-1.978 1.972 0.14 1.309 1.228 2.319 2.948 2.509 1.692 0.182 2.615-0.373 2.443-1.979l-2.266-0.247c0.039 0.387-0.1 0.534-0.344 0.507-0.234-0.024-0.38-0.175-0.407-0.366-0.03-0.246 0.134-0.321 0.581-0.355l0.312-0.023c1.347-0.098 2.163-0.43 2.012-1.825-0.156-1.39-1.127-2.529-3.036-2.732-1.795-0.197-2.83 0.318-2.633 2.048" fill="#f03e1e"/>
  </g>
  <g transform="matrix(6.5284 0 0 -6.5284 165.41 -76.327)">
   <path d="m0 0 4.645 0.507-0.215-1.929-2.145-0.233-0.109-0.961 1.75 0.191-0.212-1.824-1.748-0.189-0.23-2.081-2.498-0.271z" fill="#fbbe0b"/>
  </g>
  <g transform="matrix(6.5284 0 0 -6.5284 198.19 -79.891)">
   <path d="m0 0 3.187 0.348 0.424-2.499 1.033 2.657 3.132 0.339-0.765-6.788-2.472-0.268 0.39 3.519-1.545-3.646-0.838-0.092-0.708 3.405-0.393-3.526-2.209-0.24z" fill="#fbbe0b"/>
  </g>
  <g transform="matrix(6.5284 0 0 -6.5284 113.39 -87.188)">
   <path d="m0 0-0.539-0.339 0.114 0.986 0.74 0.563 1.013 0.109-0.367-3.251-1.187-0.13z" fill="#797f83"/>
  </g>
  <g transform="matrix(6.5284 0 0 -6.5284 134.83 -85.661)">
   <path d="m0 0 0.041 0.324c0.046 0.449-0.023 0.599-0.269 0.571-0.249-0.024-0.352-0.203-0.402-0.64l-0.038-0.328c-0.046-0.424 1e-3 -0.595 0.274-0.566 0.238 0.026 0.35 0.221 0.394 0.639m-1.852-0.204 0.038 0.325c0.115 1.006 0.847 1.588 1.68 1.68 0.819 0.088 1.474-0.258 1.357-1.323l-0.043-0.32c-0.11-1.016-0.793-1.622-1.721-1.725-0.921-0.099-1.424 0.355-1.311 1.363" fill="#797f83"/>
  </g>
  <g transform="matrix(6.5284 0 0 -6.5284 141.99 -77.871)">
   <path d="m0 0 1.073 1.207c0.378 0.434 0.685 0.738 0.713 1.007 0.022 0.133-0.028 0.221-0.151 0.205-0.142-0.012-0.236-0.113-0.271-0.447l-1.073-0.114c0.101 0.913 0.661 1.373 1.51 1.466 0.86 0.092 1.235-0.307 1.167-0.919-0.055-0.481-0.372-0.822-0.753-1.243l-0.186-0.204 0.801 0.088-0.096-0.88-2.747-0.299z" fill="#797f83"/>
  </g>
  <g transform="matrix(6.5284 0 0 -6.5284 161.2 -82.176)">
   <path d="m0 0c0.031 0.295 0.291 0.561 0.606 0.597 0.324 0.035 0.532-0.179 0.501-0.479-0.032-0.298-0.301-0.565-0.625-0.6-0.314-0.035-0.513 0.18-0.482 0.482" fill="#797f83"/>
  </g>
  <g transform="matrix(6.5284 0 0 -6.5284 175.89 -95.338)">
   <path d="m0 0-1.022-0.11 0.112 0.981 2.506 0.272-0.013-0.119-1.347-3.243-1.21-0.13z" fill="#797f83"/>
  </g>
 </g>
</svg>
