<svg width="800" height="185.45" version="1.1" viewBox="0 0 211.67 49.067" xmlns="http://www.w3.org/2000/svg">
 <g transform="translate(197.25 16.671)">
  <g transform="matrix(5.1756 0 0 -5.1756 -168.08 10.211)">
   <path d="m0 0v1.891h0.09l-0.09 0.116-2.436 3.187h-2.487l3.288-4.261-4.002-5.181h2.494l3.143 4.109 0.107 0.139zm2.079 1.891v3.303h-2.079v-3.187l0.09-0.116zm-1.972-1.891-0.107-0.139v-4.109h2.079v4.248zm3.984-4.248h2.056v4.248h-2.056zm6.548 7.554v1.888h-6.548v-3.303h2.056v1.415zm-4.492-1.415h2.518v-1.891h-2.518z" fill="#393536"/>
  </g>
  <g transform="matrix(5.1756 0 0 -5.1756 6.5345 -7.3878)">
   <path d="m0 0h0.44v-0.034c0-0.108 0.031-0.19 0.084-0.254 0.051-0.062 0.124-0.093 0.216-0.093 0.099 0 0.175 0.029 0.232 0.088 0.056 0.057 0.086 0.137 0.086 0.238 0 0.16-0.114 0.274-0.344 0.343l-0.068 0.023c-0.196 0.059-0.338 0.146-0.432 0.255-0.092 0.112-0.139 0.25-0.139 0.421 0 0.232 0.065 0.419 0.193 0.558 0.129 0.143 0.301 0.213 0.515 0.213 0.201 0 0.362-0.061 0.481-0.188 0.12-0.126 0.186-0.301 0.198-0.528h-0.438v0.021l-0.073 0.192-0.184 0.073-0.192-0.075-0.066-0.202 0.013-0.097 0.045-0.074c0.048-0.053 0.147-0.101 0.3-0.143l0.157-0.047c0.17-0.058 0.296-0.14 0.374-0.248 0.084-0.107 0.125-0.247 0.125-0.415 0-0.253-0.071-0.461-0.212-0.615-0.143-0.155-0.332-0.233-0.567-0.233-0.22 0-0.399 0.074-0.537 0.227-0.136 0.148-0.204 0.348-0.207 0.594m-0.097 1.707v-0.444c0-0.159-0.037-0.28-0.104-0.354-0.071-0.073-0.184-0.113-0.334-0.117v0.25l0.113 0.049 0.032 0.12v0.027h-0.145v0.469zm-2.206-2.478h-0.476v2.478h0.462l1.024-1.581v1.581h0.475v-2.478h-0.449l-1.036 1.632zm-1.237 2.478h0.487v-2.477h-0.487zm-0.14-2.478h-1.255v2.478h0.478v-2.042h0.777zm-2.563 1.232 0.748 1.246h0.541l-0.797-1.23 0.797-1.248h-0.541zm-0.01-1.232h-0.484v2.477h0.484zm-2.244 0h-0.479v2.478h0.461l1.026-1.581v1.581h0.475v-2.478h-0.45l-1.033 1.632zm-1.318 0.979-0.294 0.798-0.301-0.798zm-0.76-0.459-0.192-0.52h-0.504l0.965 2.478h0.419l0.948-2.478h-0.52l-0.196 0.52zm-1.717 0.754h0.106c0.195 0 0.343 0.036 0.448 0.107 0.099 0.07 0.152 0.175 0.152 0.31 0 0.133-0.043 0.229-0.128 0.293-0.087 0.06-0.22 0.093-0.398 0.093h-0.18zm0-1.274h-0.486v2.478h0.587c0.189 0 0.327-6e-3 0.42-0.019 0.091-0.012 0.17-0.031 0.234-0.063 0.141-0.065 0.247-0.157 0.322-0.275 0.073-0.119 0.11-0.257 0.11-0.415 0-0.192-0.053-0.356-0.159-0.491-0.104-0.133-0.25-0.217-0.43-0.253l0.62-0.962h-0.579l-0.639 1.152zm-2.025 0v2.478h1.339v-0.436h-0.859v-0.564h0.859v-0.432h-0.859v-1.046zm-2.185 1.232 0.751 1.246h0.539l-0.795-1.23 0.795-1.248h-0.539zm-6e-3 -1.232h-0.487v2.477h0.487zm-1.845 1.274h0.107c0.196 0 0.347 0.036 0.448 0.107 0.102 0.07 0.151 0.175 0.151 0.31 0 0.133-0.042 0.229-0.126 0.293-0.087 0.06-0.218 0.093-0.4 0.093h-0.18zm0-1.274h-0.485v2.478h0.589c0.187 0 0.326-6e-3 0.418-0.019 0.093-0.012 0.169-0.031 0.235-0.063 0.139-0.065 0.246-0.157 0.322-0.275 0.074-0.119 0.111-0.257 0.111-0.415 0-0.192-0.054-0.356-0.16-0.491-0.107-0.133-0.249-0.217-0.431-0.253l0.619-0.962h-0.576l-0.642 1.152zm-1.246 2.478h0.486v-2.477h-0.486zm-1.31-1.246 0.748 1.246h0.542l-0.797-1.23 0.797-1.248h-0.542zm-7e-3 -1.232h-0.487v2.477h0.487zm22.378-6.79h-3.386v6.27h3.386v-1.103h-2.17v-1.429h2.17v-1.084h-2.17v-1.55h2.17zm-7.634 1.946 1.12 5e-3v-0.091c0-0.264 0.069-0.476 0.207-0.636 0.137-0.158 0.321-0.238 0.551-0.238 0.246 0 0.443 0.076 0.584 0.223 0.145 0.148 0.217 0.347 0.217 0.6 0 0.404-0.29 0.695-0.869 0.869l-0.179 0.056c-0.487 0.151-0.851 0.368-1.085 0.648s-0.352 0.633-0.352 1.061c0 0.588 0.163 1.061 0.491 1.417 0.325 0.358 0.759 0.535 1.3 0.535 0.507 0 0.912-0.16 1.214-0.477 0.301-0.317 0.47-0.761 0.503-1.332h-1.108v0.05c0 0.202-0.063 0.364-0.183 0.486-0.119 0.125-0.277 0.186-0.473 0.186-0.199 0-0.359-0.063-0.477-0.189-0.116-0.126-0.174-0.297-0.174-0.516 0-0.093 0.014-0.173 0.038-0.244l0.112-0.192c0.12-0.127 0.373-0.249 0.757-0.356 0.173-0.048 0.306-0.086 0.4-0.117 0.43-0.146 0.746-0.357 0.951-0.628 0.205-0.274 0.31-0.621 0.31-1.046 0-0.646-0.183-1.165-0.54-1.556-0.358-0.394-0.833-0.59-1.429-0.59-0.559 0-1.01 0.192-1.357 0.571-0.341 0.379-0.52 0.878-0.529 1.501m-1.541 4.324h1.228v-6.27h-1.228zm-2.135-3.796-0.741 2.022-0.757-2.022zm-1.923-1.16-0.486-1.314h-1.266l2.43 6.27h1.061l2.397-6.27h-1.313l-0.496 1.314zm-4.342 1.906h0.27c0.496 0 0.874 0.09 1.131 0.269 0.258 0.181 0.385 0.442 0.385 0.788 0 0.33-0.107 0.574-0.322 0.734-0.216 0.16-0.552 0.236-1.008 0.236h-0.456zm0-3.22h-1.227v6.27h1.49c0.475 0 0.824-0.017 1.056-0.05 0.233-0.034 0.428-0.089 0.591-0.162 0.358-0.167 0.628-0.4 0.816-0.697 0.185-0.299 0.279-0.649 0.279-1.051 0-0.484-0.132-0.895-0.4-1.233-0.266-0.337-0.631-0.552-1.09-0.643l1.568-2.434h-1.462l-1.621 2.911zm-4.182 3.466h0.324c0.343 0 0.603 0.075 0.785 0.221 0.183 0.147 0.274 0.36 0.274 0.638 0 0.282-0.088 0.495-0.265 0.633-0.176 0.137-0.442 0.209-0.801 0.209h-0.317zm0-3.466h-1.227v6.27h1.56c0.397 0 0.707-0.023 0.937-0.067 0.228-0.04 0.413-0.112 0.552-0.207 0.258-0.174 0.461-0.406 0.609-0.692 0.15-0.289 0.221-0.594 0.221-0.922 0-0.598-0.197-1.078-0.593-1.436-0.397-0.36-0.929-0.539-1.601-0.539h-0.458z" fill="#656263"/>
  </g>
 </g>
</svg>
