<svg width="800" height="242.37" version="1.1" viewBox="0 0 211.67 64.126" xmlns="http://www.w3.org/2000/svg">
 <g transform="translate(-37.286 82.734)">
  <path d="m246.57-70.325c-2.1458-5.0197-6.2569-7.7906-11.612-7.7906-2.526 0-5.1744 0.79274-7.855 2.3263-1.669 0.93521-3.6859 2.6935-6.2247 5.387l-0.12238-5.8509-5.8574 0.72881c-7.7003 0.948-14.473 2.8867-20.072 5.7543-1.0503 0.52788-2.9255 1.4942-4.8006 2.9191l-0.20623-3.5635-13.603-2.4422-1.7077-1.6366-18.159-4.4397 0.18084-2.7192-14.705 5.8767-0.36733-6.5275-15.562 10.143c-2.4036-0.30321-4.8715 0.45117-8.087 2.4937-1.321 0.82562-2.4873 1.9848-3.557 3.3573l-0.58634-5.5094-6.534 3.0157 3.7761-9.0988-20.968 7.011-0.6057 3.5505-4.6782-15.394-19.969 34.803-4.1627 0.67584c-1.1729 0.18266-2.4809 0.46395-3.8534 0.85667 0.37372-8.1966 0.56716-14.363 0.56716-18.378 0-1.5983-0.03287-2.5903-0.07124-3.0672l-0.65721-8.7249-19.222 9.0277 2.9835 5.3355c0.10229 0.46395 0.45098 1.959 0.68296 5.8252 0.25773 4.2916 0.4382 8.3448 0.4961 12.108l0.33518 17.746 7.9065-2.8546c9.0858-3.2864 12.018-3.7567 12.875-3.8019l2.919-0.19362 7.8421 6.1795 5.5739-12.295 1.3338 0.2265 4.1498 16.438 10.278-8.886c2.6484 2.5066 5.3548 3.1574 7.3782 3.1574 2.5002 0 5.9476-0.99184 8.9053-5.271l0.34158 0.93339c3.0672 7.1332 8.0483 8.2029 10.722 8.2029l0.72168-0.01827 10.755-3.7761 0.65721 7.3783 12.643-7.3009-0.0384-0.96079 7.9774-1.3919 0.35437-16.264 3.4539-2.3262s2.5646 10.594 4.4591 14.827c3.3766 7.3718 7.9839 8.9441 11.257 8.9441 2.8417 0 6.9206-0.99184 10.162-5.5611 2.0298-2.8676 3.499-6.7467 4.4849-11.895 0.25774-1.3462 0.45756-2.7644 0.62507-4.2401 0.70889 0.67036 1.4176 1.3206 2.1329 1.8881 1.4434 1.1727 3.2863 2.5905 5.6448 4.3431 2.1136 1.6238 3.4861 2.6935 4.3947 3.4475-0.67657 0.12786-1.4112 0.1991-2.2038 0.1991-1.54 0-2.8417-0.26486-4.0145-0.79274l-5.619-2.5775-4.3302 15.027 4.9746 1.5599c2.2167 0.69593 4.6911 1.043 7.3395 1.043 4.5944 0 8.944-0.85667 12.971-2.539 1.2823-0.52788 4.2207-1.7791 6.2827-4.066 0.38012 0.9407 0.81192 1.7846 1.2952 2.6292 2.4486 4.1175 6.2763 6.3794 10.722 6.3794h0.74105c1.2759 0 2.4809-0.38724 3.5505-1.0576l4.82 3.1832 7.623-6.9721 0.18083-1.9009c1.9782-18.249 2.9255-28.933 2.9255-33.598v-0.58086c0-2.1651-0.75402-4.7941-2.3842-8.6604" fill="#231f20"/>
  <path d="m44.148-65.731 0.61867 1.096c0.21261 0.37993 0.72808 1.8622 1.1148 7.565 0.25773 4.3754 0.42523 8.5316 0.53483 12.385l0.16074 10.909 1.5272-0.55346c7.1397-2.5324 11.927-3.9113 14.241-4.079l1.5466-0.07306-1.5723-4.5236-0.97302 0.19362c-2.5002 0.38724-5.6125 1.3206-9.4853 2.8416l-0.3286 0.12786 0.02009-0.36714c0.59291-11.554 0.90215-19.937 0.90215-24.944 0-1.3864-0.02557-2.307-0.05114-2.6807l-0.12969-1.7133z" fill="#fddd04"/>
  <path d="m84.127-49.407-7.3975-1.2439 5.1679-9.5949zm-8.0161 4.1628 8.1321 1.3407 0.04567 0.14613 2.9706 11.741 3.0415-2.6677-7.172-36.962-17.469 31.839 5.8703 4.6204z" fill="#fddd04"/>
  <path d="m94.302-67.556-0.1169 0.68863c-0.72169 4.1047-1.089 8.5251-1.089 13.158-0.01306 7.3718 0.88279 12.379 2.7193 15.285 1.8816 3.0866 4.0145 4.6459 6.2956 4.6459 2.294 0 4.3238-1.6951 5.9992-5.0069 1.5851-3.1251 2.3391-7.6552 2.3391-13.893 0-2.848-0.20623-6.4115-0.67018-10.626l-0.15527-1.6366-4.2851 1.9912 0.15526 0.88224c0.36093 2.1006 0.52186 4.7683 0.52186 7.9 0 4.3173-0.39309 7.9647-1.1792 10.864-0.7668 2.8288-1.5078 3.4988-1.7077 3.6214-0.39947 0.07306-0.90855-0.32879-1.5142-1.3864-0.72808-1.2439-1.218-2.4873-1.4885-3.7761-0.29645-1.3791-0.41883-3.4733-0.41883-6.1989 0.0131-3.2734 0.18687-6.6886 0.53483-10.136 0.43162-4.2401 0.88278-5.9993 1.1792-6.708l0.98599-2.3779z" fill="#fddd04"/>
  <path d="m125-67.719c-1.1405 0-2.584 0.56624-4.53 1.8229-1.9138 1.1982-3.4926 3.486-4.8264 7.0108-1.2308 3.3637-1.888 7.3009-1.888 11.728 0 4.7749 0.71529 8.8151 2.0942 11.986 1.4885 3.486 3.5956 5.271 6.2376 5.271 1.7205 0 3.3379-0.86946 4.8328-2.5517l0.54779-0.65757 0.42524-0.58086-0.0896 3.7116 4.5042-4.4914-0.0712-0.45117c-0.0384-1.043-0.0511-2.2168-0.0511-3.486 0-4.4205 0.21902-7.868 0.61867-10.246l0.3803-2.2553-12.752 6.2698-0.12239 5.4257 7.288-3.6408-0.11508 0.49683c-0.335 1.2695-1.0118 2.5905-2.004 3.9115-0.95365 1.3078-2.4229 2.8288-3.8856 2.8288-0.97942 0-1.7849-0.88955-2.468-2.6935l-0.40587-1.3078c-0.54122-1.9846-0.80552-4.4784-0.80552-7.3716 0-3.5893 0.32221-6.2827 0.99878-8.0162 0.6572-1.8047 1.5851-3.5118 2.7644-5.1356 1.3791-1.8624 2.1844-2.0427 2.468-2.0427 0.85704 0 2.004 1.8622 2.6677 7.1138l0.18687 1.7133 3.5054-1.9267 5.6641-18.764-9.3178 6.9336-0.16074-0.09133c-0.48971-0.35436-1.0569-0.5151-1.6883-0.5151" fill="#fddd04"/>
  <path d="m136.64-65.869 0.28349 11.013c0.0767 1.2056 0.50907 9.3112 1.3982 24.312l0.12968 2.2295 3.4603-2.758-0.47692-12.043 0.10959-2.4164 3.8148-2.1008 0.51546 13.139 4.1498-0.71602 0.30924-14.84 1.7205-1.1215 1.205-4.9939-2.803 1.5855 0.0201-0.4055c0.17352-7.8872 0.41884-13.867 0.65082-17.843l0.14247-1.8494-6.3214 2.539-0.10229 5.5996c0 1.3407 0.14248 5.7158 0.41245 14.176l0.013 0.16439-3.7503 1.8881-0.013-0.37993c-0.0712-2.2617-0.10228-3.821-0.10228-4.6266l0.21262-12.134z" fill="#fddd04"/>
  <path d="m160.53-73.294 0.0256 0.64479c0.12238 1.7974 0.38669 4.7298 0.76041 8.4414 0.40587 3.8276 1.089 8.422 2.0556 13.603 0.97942 5.2129 2.3713 9.8333 4.1434 13.719 1.8429 4.0402 4.124 6.0701 6.8047 6.0701 2.4744 0 4.5816-1.1727 6.2183-3.5248 1.6238-2.2683 2.8224-5.5289 3.6794-9.9686 0.79913-4.3173 1.2308-9.4402 1.2308-15.278 0-2.4807-0.0767-4.7168-0.16806-6.7337l-0.0384-0.35436-3.5247-0.61191 0.0584 0.59912c0.17352 2.0686 0.28349 4.3045 0.28349 6.6243 0 6.605-0.67657 11.87-2.0169 15.581-1.2565 3.6084-3.0479 5.374-5.4643 5.374h-0.50907c-0.54122 0-1.8945-0.7215-3.0028-7.1526-0.88918-5.0456-1.308-12.308-1.308-21.542v-3.209z" fill="#d22027"/>
  <path d="m191.6-29.321 0.42524 0.12786c1.7462 0.55346 3.7116 0.81831 5.9025 0.81831 3.9307 0 7.6617-0.7416 11.083-2.1521 3.6085-1.4814 5.4192-3.1317 5.5546-4.9166v-0.41829c0-1.5599-0.61209-3.2091-1.8687-4.8715-1.2437-1.6439-4.0403-3.9372-8.3189-6.8176-3.4217-2.3263-5.5868-4.0275-6.4052-5.0584-0.79256-0.98636-1.192-1.9009-1.192-2.6807 0-1.5398 1.076-2.861 3.2606-4.0145 2.2553-1.1727 5.2002-1.8047 8.7507-1.7919 2.4487 0 4.8071 0.29043 6.9078 0.86946l0.60569 0.14613-0.22558-11.064-0.51547 0.05479c-7.1462 0.89503-13.352 2.6612-18.455 5.2259-5.3097 2.7322-7.8937 5.4642-7.8937 8.3188v0.54067c0 1.0832 0.57355 2.3004 1.7656 3.7244 1.1792 1.3864 2.4808 2.6807 3.8405 3.7633 1.3146 1.0832 3.093 2.4679 5.445 4.2271 3.4603 2.5839 5.7028 4.3946 6.6049 5.4 1.1469 1.211 1.3338 1.9267 1.3855 2.1908v0.37993c0 1.2567-0.84407 2.2876-2.4744 3.0802-1.7462 0.86946-3.8341 1.2951-6.2247 1.2951-2.2102 0-4.2207-0.38724-6.025-1.2183l-0.47035-0.23928z" fill="#fff"/>
  <path d="m230.68-32.757c-1.205 0-2.2167-0.65757-3.035-1.9912-0.83129-1.443-1.2501-3.2928-1.2501-5.5609v-0.41281c0-2.758 0.74105-5.5287 2.2296-8.2482 1.3855-2.642 3.1124-3.9628 5.0648-3.9628 1.2178 0 2.2102 0.67036 3.0222 2.0427 0.85065 1.3791 1.2823 3.2541 1.2823 5.5609v0.34157c0 2.7386-0.72169 5.5353-2.236 8.2545-1.4627 2.6677-3.151 3.9758-5.0777 3.9758m7.0624-2.281 0.46396 0.09133 0.0894 9.6915 3.0286-2.9963-0.0256-0.1096c1.9009-17.836 2.8546-28.649 2.8546-33.076v-0.60643c0-1.412-0.65722-3.6086-1.9718-6.7597-1.3597-3.1702-3.789-4.807-7.1268-4.807-1.6883 0-3.5376 0.56624-5.4772 1.6622-1.9332 1.1087-4.9102 4.053-9.1051 9.0341l-0.16804 0.18266 0.85703 3.1704 0.5478-0.36714c4.6331-3.2606 8.6734-4.9296 11.979-4.9296 1.4757 0 2.584 0.41281 3.2348 1.2439 0.67018 0.85667 1.0052 1.759 1.0052 2.6548l-0.18686 2.3391-0.36733-0.41281c-1.2565-1.4247-2.7386-2.1651-4.4333-2.1651-3.0157 0-5.9154 2.0363-8.596 6.0508-2.6548 3.9049-4.0016 8.8602-4.0016 14.666v1.3078c0 3.5377 0.77976 6.6307 2.3069 9.2148 1.5723 2.6548 3.7825 3.9758 6.5405 3.9758h0.73465c1.076 0 2.5517-1.2366 4.6396-3.8921 1.2437-1.5855 2.3133-3.3313 3.1768-5.1614" fill="#3b99db"/>
 </g>
</svg>
