<svg width="800" height="287.03" version="1.1" viewBox="0 0 211.67 75.943" xmlns="http://www.w3.org/2000/svg">
 <defs>
  <linearGradient id="linearGradient12194" x2="1" gradientTransform="matrix(-.44297 -7.4752 -7.4752 .44297 277.29 557.09)" gradientUnits="userSpaceOnUse">
   <stop stop-color="#fff" offset="0"/>
   <stop stop-color="#231f20" offset="1"/>
  </linearGradient>
  <linearGradient id="linearGradient12174" x2="1" gradientTransform="matrix(-.44299 -7.4755 -7.4755 .44299 273.81 557.3)" gradientUnits="userSpaceOnUse">
   <stop stop-color="#fff" offset="0"/>
   <stop stop-color="#231f20" offset="1"/>
  </linearGradient>
  <linearGradient id="linearGradient12154" x2="1" gradientTransform="matrix(-.44297 -7.4751 -7.4751 .44297 271.26 557.45)" gradientUnits="userSpaceOnUse">
   <stop stop-color="#fff" offset="0"/>
   <stop stop-color="#231f20" offset="1"/>
  </linearGradient>
  <linearGradient id="linearGradient12134" x2="1" gradientTransform="matrix(-.44295 -7.4749 -7.4749 .44295 267.04 557.7)" gradientUnits="userSpaceOnUse">
   <stop stop-color="#fff" offset="0"/>
   <stop stop-color="#231f20" offset="1"/>
  </linearGradient>
  <linearGradient id="linearGradient12114" x2="1" gradientTransform="matrix(-.44299 -7.4756 -7.4756 .44299 261.95 558.01)" gradientUnits="userSpaceOnUse">
   <stop stop-color="#fff" offset="0"/>
   <stop stop-color="#231f20" offset="1"/>
  </linearGradient>
  <linearGradient id="linearGradient12094" x2="1" gradientTransform="matrix(-.44346 -7.4835 -7.4835 .44346 257.38 559.95)" gradientUnits="userSpaceOnUse">
   <stop stop-color="#fff" offset="0"/>
   <stop stop-color="#231f20" offset="1"/>
  </linearGradient>
  <linearGradient id="linearGradient12074" x2="1" gradientTransform="matrix(-.44345 -7.4833 -7.4833 .44345 254.49 560.13)" gradientUnits="userSpaceOnUse">
   <stop stop-color="#fff" offset="0"/>
   <stop stop-color="#231f20" offset="1"/>
  </linearGradient>
  <linearGradient id="linearGradient12054" x2="1" gradientTransform="matrix(-.44327 -7.4803 -7.4803 .44327 251.74 560.29)" gradientUnits="userSpaceOnUse">
   <stop stop-color="#fff" offset="0"/>
   <stop stop-color="#231f20" offset="1"/>
  </linearGradient>
  <linearGradient id="linearGradient12034" x2="1" gradientTransform="matrix(-.44344 -7.4831 -7.4831 .44344 247.31 560.55)" gradientUnits="userSpaceOnUse">
   <stop stop-color="#fff" offset="0"/>
   <stop stop-color="#231f20" offset="1"/>
  </linearGradient>
  <linearGradient id="linearGradient12014" x2="1" gradientTransform="matrix(-.44346 -7.4835 -7.4835 .44346 244.3 560.73)" gradientUnits="userSpaceOnUse">
   <stop stop-color="#fff" offset="0"/>
   <stop stop-color="#231f20" offset="1"/>
  </linearGradient>
  <linearGradient id="linearGradient11994" x2="1" gradientTransform="matrix(-.44346 -7.4836 -7.4836 .44346 241.19 560.91)" gradientUnits="userSpaceOnUse">
   <stop stop-color="#fff" offset="0"/>
   <stop stop-color="#231f20" offset="1"/>
  </linearGradient>
 </defs>
 <g transform="translate(171.24 1.4824)">
  <g transform="matrix(5.2019 0 0 -5.2019 -77.416 74.461)">
   <path d="m0 0s0.93 3.703 0.6 4.175c-0.087 0.128-0.216 0.187-0.398 0.187-0.656 0-1.905-0.781-3.814-2.38l-4e-3 -3e-3s2.082 2.082 2.519 2.661h-2.638l-0.161 0.069-0.04-0.028-0.129-0.041h-1.157l-0.183 0.095-0.063 0.089c-0.23-0.124-0.47-0.189-0.711-0.189h-1.935c-0.166 0-0.332 0.059-0.5 0.172l-0.186-0.128-0.127-0.039h-3.354c-0.193 0-0.382 0.073-0.566 0.214l-0.243-0.175-0.126-0.039h-1.156l-0.16 0.069-0.039-0.028-0.13-0.041h-2.638l-0.18 0.095-0.488 0.692-0.03 0.191 1.707 4.876 0.084 0.11 0.486 0.345 0.126 0.037h1.401l0.18-0.091 0.492-0.692 0.041-0.122-0.012-0.067c-2e-3 -4e-3 -0.751-2.153-0.957-2.748h0.254c0.162 0.467 1.124 3.228 1.124 3.228l0.082 0.104 0.486 0.351 0.13 0.037h1.258l0.178-0.087 0.046-0.072c0.217 0.105 0.438 0.159 0.664 0.159h2.268c0.272 0 0.539-0.087 0.793-0.265l0.113-0.102 0.469 0.33 0.13 0.037h1.296l0.181-0.089s0.069-0.102 0.141-0.204c0.13 0.093 0.365 0.256 0.365 0.256l0.127 0.037h2.289l0.178-0.078 0.057 0.041 0.129 0.037h0.91c-0.358 0.525-0.886 1.197-1.574 1.994 0 0 1.661-1.55 2.232-1.994h1.835c0.233 0.657 0.253 1.841 0.059 3.613 0 0 0.709-3.112 1.163-3.626 0.203-0.041 0.388-0.143 0.533-0.289 0.709-0.023 1.744 1.081 3.14 3.408 0 0-1.704-3.564-1.488-3.945 0.027-0.046 0.079-0.105 0.236-0.105 0.547 0 1.773 0.711 3.744 2.169 0 0-2.581-2.281-2.923-2.841 0.125 0.035 0.246 0.052 0.381 0.052h1.432c0.32 0 0.599-0.091 0.833-0.276 0.137 0.096 0.365 0.261 0.365 0.261l0.051 0.015h10.367c0.235 0 0.452-0.082 0.635-0.234l0.358 0.234h1.291l0.623-0.874-0.993-2.848h0.551l0.623-0.867-0.467-1.341-0.613-0.421h-7.187l-0.084 0.156-0.246-0.156h-1.288l-0.027 0.037s-0.12 0.168-0.183 0.26h-0.493c-0.097-0.073-0.396-0.282-0.396-0.282l-0.05-0.015h-4.177l-0.086 0.113-0.132-0.098-0.053-0.015h-1.291l-0.027 0.037s-0.124 0.168-0.188 0.26h-0.21l-0.448-0.297h-0.034c0.196-0.524 0.482-1.153 0.853-1.884 0 0-0.938 1.392-1.249 1.884h-0.86l-0.028 0.037s-0.119 0.168-0.186 0.26h-0.163l-0.228-0.158c-0.054-0.605-0.043-1.46 0.035-2.609v-4e-3s-0.36 1.909-0.5 2.474h-1.074l-0.134 0.195c-0.394-0.639-0.864-1.709-1.435-3.263l-4e-3 -2e-3z" fill="#231f20"/>
  </g>
  <g transform="matrix(5.2019 0 0 -5.2019 -104.76 35.756)">
   <path d="m0 0v-9e-3z" fill="#231f20"/>
  </g>
  <g transform="matrix(5.2019 0 0 -5.2019 -1413.1 2939.6)">
   <path d="m241.13 561.04-1.705-4.878h2.639l0.388 1.155h-1.479l1.302 3.723z" fill="url(#linearGradient11994)"/>
  </g>
  <g transform="matrix(5.2019 0 0 -5.2019 -1413.1 2939.6)">
   <path d="m244.45 561.04-1.698-4.878h1.156l1.69 4.878z" fill="url(#linearGradient12014)"/>
  </g>
  <g transform="matrix(5.2019 0 0 -5.2019 -1413.1 2939.6)">
   <path d="m246.85 561.04c-0.195 0-0.36-0.059-0.492-0.174-0.126-0.104-0.215-0.244-0.266-0.41l-1.233-3.527c-0.022-0.11-0.032-0.185-0.03-0.232 3e-3 -0.098 0.028-0.186 0.064-0.26l0.071-0.119c0.093-0.102 0.171-0.156 0.238-0.156h3.355l0.436 1.16-0.554-5e-3 1.101 3.134 0.017 0.124c-6e-3 0.119-0.072 0.235-0.209 0.325-0.128 0.091-0.255 0.14-0.372 0.14zm-0.517-3.611-0.045 0.189 1e-3 0.082 0.017 0.08 0.627 1.781c0.039 0.097 0.072 0.162 0.095 0.189l0.104 0.136c0.083 0.084 0.189 0.121 0.302 0.121h0.507l0.124-0.114 0.041-0.192-0.017-0.156-0.616-1.756c-0.057-0.152-0.13-0.272-0.213-0.354-0.083-0.078-0.187-0.118-0.314-0.118h-0.483z" fill="url(#linearGradient12034)"/>
  </g>
  <g transform="matrix(5.2019 0 0 -5.2019 -1413.1 2939.6)">
   <path d="m252.79 561.04-1.129-3.251c-0.079-0.191-0.156-0.316-0.228-0.38-0.073-0.063-0.171-0.102-0.294-0.102h-0.122l-0.149 0.05-0.066 0.178 0.037 0.245 1.142 3.26h-1.142l-1.447-4.117c-0.022-0.104-0.032-0.184-0.032-0.226 8e-3 -0.102 0.027-0.186 0.063-0.262l0.07-0.117c0.094-0.102 0.172-0.156 0.24-0.156h1.932c0.218 0 0.393 0.069 0.523 0.201 0.13 0.131 0.236 0.3 0.311 0.498l1.463 4.179z" fill="url(#linearGradient12054)"/>
  </g>
  <g transform="matrix(5.2019 0 0 -5.2019 -1413.1 2939.6)">
   <path d="m254.68 561.04-1.696-4.878h1.156l1.688 4.878h-1e-3z" fill="url(#linearGradient12074)"/>
  </g>
  <g transform="matrix(5.2019 0 0 -5.2019 -1413.1 2939.6)">
   <path d="m256.52 561.04-1.699-4.878h2.76c0.231 0 0.419 0.065 0.565 0.192 0.149 0.128 0.258 0.28 0.325 0.465l1.23 3.546c0.037 0.145 0.054 0.259 0.05 0.329-0.013 0.229-0.106 0.346-0.282 0.346zm0.795-1.033h0.428c0.362 0 0.548-0.087 0.555-0.267l-0.03-0.195-0.625-1.798c-0.056-0.164-0.121-0.274-0.183-0.338-0.065-0.06-0.162-0.092-0.284-0.092h-0.805z" fill="url(#linearGradient12094)"/>
  </g>
  <g transform="matrix(5.2019 0 0 -5.2019 -1413.1 2939.6)">
   <path d="m263.28 559.47c-0.121 0-0.221-0.017-0.31-0.061-0.082-0.051-0.18-0.169-0.294-0.362l0.02 0.1c-4e-3 0.1-0.061 0.178-0.17 0.241-0.107 0.058-0.269 0.082-0.474 0.082h-1.901l-0.364-1.026h1.522c0.348 0 0.523-0.052 0.531-0.164l-0.019-0.135-1.232-3.547h1.14l1.347 3.846h0.452c0.288 0 0.438-0.071 0.442-0.22l-0.024-0.162-1.196-3.464h1.146l1.249 3.653 0.07 0.223 0.025 0.135 0.035 0.167-9e-3 0.154c-9e-3 0.194-0.066 0.336-0.168 0.418-0.103 0.082-0.23 0.122-0.386 0.122zm-3.567-1.548-1.263-3.324h1.155l1.257 3.324z" fill="url(#linearGradient12114)"/>
  </g>
  <g transform="matrix(5.2019 0 0 -5.2019 -1413.1 2939.6)">
   <path d="m266.37 559.47-1.689-4.872h2.949l0.398 1.155h-1.805l0.264 0.726h1.8l0.363 1.03h-1.815l0.331 0.935h1.796l0.352 1.026h-1e-3z" fill="url(#linearGradient12134)"/>
  </g>
  <g transform="matrix(5.2019 0 0 -5.2019 -1413.1 2939.6)">
   <path d="m273.25 559.47h-3.438l-0.363-1.026h1.161l-1.321-3.846h1.13l1.339 3.846h1.148l0.345 1.026z" fill="url(#linearGradient12154)"/>
  </g>
  <g transform="matrix(5.2019 0 0 -5.2019 -1413.1 2939.6)">
   <path d="m273.8 559.47-0.367-1.026h1.184l0.246-0.076c0.086-0.048 0.117-0.128 0.095-0.223l-0.567-2.392-1.275-4e-3 1.396 1.917-0.994 4e-3 -2.234-3.072h3.941l1.035 4.346 0.015 0.189c-5e-3 0.107-0.032 0.192-0.09 0.255l-0.212 0.082z" fill="url(#linearGradient12174)"/>
  </g>
  <g transform="matrix(5.2019 0 0 -5.2019 -1413.1 2939.6)">
   <path d="m277.37 559.47-1.702-4.872h2.636l0.382 1.155h-1.475l1.3 3.717z" fill="url(#linearGradient12194)"/>
  </g>
 </g>
</svg>
