<svg width="800" height="299.04" version="1.1" viewBox="0 0 211.67 79.121" xmlns="http://www.w3.org/2000/svg">
 <g transform="translate(197.25 46.724)">
  <g transform="matrix(5.5966 0 0 -5.5966 -158.05 -17.441)">
   <path d="m0 0 0.061-0.121c0-0.098-0.022-0.156-0.075-0.156-0.193 0-0.506 0.019-1.113 0.019-0.592 0-0.99-0.019-1.176-0.019-0.047 0-0.054 0.047-0.054 0.138l0.06 0.139c0.545 0 0.742 0.154 0.742 0.609 0 0.871 0.028 3.432 0.038 3.766-0.46-0.93-1.895-4.26-1.963-4.486-0.018-0.096-0.067-0.119-0.137-0.119-0.074 0-0.115 0.015-0.15 0.109-0.1 0.287-1.467 3.658-1.891 4.496v-3.688c0-0.503 0.156-0.687 0.703-0.687 0.025 0 0.051-0.033 0.051-0.131s-0.02-0.146-0.051-0.146c-0.104 0-0.41 0.019-0.928 0.019-0.527 0-0.804-0.019-0.924-0.019l-0.039 0.138 0.049 0.139c0.506 0 0.758 0.184 0.758 0.687 0 0.958 0.037 3.118 0.037 3.641 0 0.213-6e-3 0.545-0.773 0.545l-0.065 0.135c0 0.109 0.03 0.146 0.065 0.146 0.148 0 0.576-0.037 0.961-0.037 0.211 0 0.431 6e-3 0.697 6e-3l0.101-0.049c0.485-1.142 1.383-3.396 1.637-4.047 0.43 1.047 1.307 3.03 1.789 4.026l0.133 0.064c0.68 0 1.295 0.037 1.479 0.037l0.062-0.127c0-0.109-0.023-0.154-0.062-0.154-0.522 0-0.77-0.189-0.77-0.748v-3.494c0-0.404 0.162-0.631 0.748-0.631" fill="#231f20"/>
  </g>
  <g transform="matrix(5.5966 0 0 -5.5966 -150.17 -30.143)">
   <path d="m0 0c0.258 0.01 0.697 0.014 1.25 0.025 0.287 0.01 0.314 0.03 0.314 0.19 0 0.265-0.191 0.549-0.648 0.549-0.445 0-0.756-0.237-0.916-0.764m-0.051-0.242c-0.035-0.106-0.049-0.283-0.049-0.469 0-1.023 0.5-1.559 1.184-1.559 0.437 0 0.799 0.221 0.932 0.493l0.076 0.048 0.199-0.158-0.029-0.047c-0.186-0.386-0.629-0.742-1.328-0.742-0.995 0-1.811 0.531-1.811 1.842 0 1.076 0.756 1.922 1.869 1.922 0.99 0 1.303-0.738 1.303-1.123 0-0.16-0.043-0.207-0.182-0.207z" fill="#231f20"/>
  </g>
  <g transform="matrix(5.5966 0 0 -5.5966 -134.46 -33.455)">
   <path d="m0 0-0.041 0.092 0.041 0.152c0.352 0 0.695 0.432 0.799 1.029l0.094 0.053c0.138 0 0.173-0.029 0.173-0.078 0-0.195-0.023-0.687-0.043-0.92 0.286 0.01 0.694 0.022 0.977 0.022 0.06 0 0.074-0.071 0.074-0.202 0-0.121-0.014-0.154-0.074-0.154-0.277 0-0.715 6e-3 -0.994 6e-3 -0.014-0.512-0.026-1.35-0.026-2.355 0-0.354 0.237-0.467 0.528-0.467 0.203 0 0.383 0.113 0.392 0.222l0.11 0.094 0.131-0.101c0-0.366-0.391-0.661-0.903-0.661-0.56 0-0.916 0.248-0.916 0.926v2.342z" fill="#231f20"/>
  </g>
  <g transform="matrix(5.5966 0 0 -5.5966 -95.167 -43.948)">
   <path d="m0 0c-0.254-0.125-0.465-0.297-0.65-0.523-0.186-0.221-0.33-0.5-0.434-0.811-0.103-0.328-0.16-0.689-0.16-1.09 0-0.387 0.047-0.736 0.131-1.047 0.093-0.302 0.228-0.558 0.4-0.781 0.172-0.213 0.387-0.377 0.649-0.496 0.246-0.109 0.541-0.166 0.878-0.166 0.323 0 0.61 0.059 0.864 0.184 0.259 0.126 0.474 0.302 0.658 0.521 0.178 0.225 0.309 0.488 0.408 0.791 0.094 0.313 0.139 0.637 0.139 0.994 0 0.393-0.045 0.742-0.147 1.067-0.105 0.318-0.242 0.585-0.427 0.816-0.184 0.227-0.403 0.406-0.653 0.529-0.259 0.121-0.537 0.186-0.842 0.186-0.292 0-0.56-0.057-0.814-0.174m-0.348-5.049c-0.365 0.139-0.689 0.326-0.961 0.574-0.273 0.252-0.488 0.541-0.658 0.899-0.156 0.351-0.242 0.742-0.242 1.185 0 0.405 0.08 0.778 0.232 1.129 0.155 0.352 0.368 0.66 0.637 0.916 0.276 0.266 0.598 0.473 0.959 0.625 0.369 0.147 0.774 0.217 1.195 0.217 0.426 0 0.823-0.07 1.192-0.217 0.373-0.152 0.691-0.359 0.967-0.625 0.267-0.256 0.486-0.564 0.634-0.916 0.161-0.351 0.241-0.724 0.241-1.129 0-0.429-0.08-0.822-0.243-1.168-0.162-0.339-0.38-0.65-0.66-0.892-0.265-0.26-0.59-0.459-0.957-0.588-0.369-0.131-0.759-0.199-1.174-0.199-0.41 0-0.796 0.06-1.162 0.189" fill="#231f20"/>
  </g>
  <g transform="matrix(5.5966 0 0 -5.5966 -60.374 -33.455)">
   <path d="m0 0c-0.125-0.039-0.227-0.098-0.32-0.184-0.092-0.082-0.164-0.193-0.229-0.341-0.054-0.143-0.088-0.321-0.094-0.524v-1.308c0-0.104 0.03-0.19 0.094-0.278 0.069-0.088 0.145-0.17 0.246-0.236 0.1-0.068 0.2-0.111 0.311-0.149 0.113-0.041 0.215-0.06 0.312-0.06 0.135 0 0.27 0.031 0.403 0.084 0.144 0.053 0.269 0.135 0.379 0.26 0.107 0.119 0.205 0.289 0.275 0.498 0.07 0.215 0.105 0.47 0.105 0.783 0 0.461-0.089 0.828-0.273 1.1-0.176 0.275-0.459 0.41-0.85 0.41-0.119 0-0.242-0.022-0.359-0.055m-0.227-3.262c-0.177 0.082-0.312 0.18-0.416 0.289v-1.705c0-0.131 0.043-0.234 0.131-0.289 0.078-0.062 0.264-0.097 0.522-0.097 0.037 0 0.056-0.043 0.056-0.143l-0.017-0.111-0.039-0.03c-0.059 0-0.184 2e-3 -0.369 0.01-0.192 8e-3 -0.42 0.01-0.698 0.01-0.146 0-0.289-2e-3 -0.431-0.01-0.143-8e-3 -0.297-0.01-0.461-0.01-0.033 0-0.055 0.049-0.055 0.141l0.01 0.102 0.045 0.041c0.144 0 0.258 0.011 0.344 0.035l0.175 0.068 0.071 0.117 0.017 0.149c0 0.06 0 0.131 2e-3 0.228 2e-3 0.09 4e-3 0.225 8e-3 0.399 6e-3 0.179 0.014 0.406 0.014 0.699 4e-3 0.287 4e-3 0.662 4e-3 1.127v1.769c0 0.161-0.022 0.262-0.049 0.315l-0.176 0.072h-0.252l-0.037 0.041-0.014 0.111 0.028 0.106 0.05 0.021c0.119 0 0.268 0.02 0.426 0.049 0.162 0.028 0.324 0.08 0.49 0.153 0.057-6e-3 0.116-0.063 0.147-0.161 0.043-0.099 0.058-0.24 0.058-0.418 0.122 0.192 0.29 0.35 0.516 0.448 0.221 0.101 0.479 0.152 0.77 0.152 0.244 0 0.461-0.045 0.671-0.139 0.202-0.099 0.375-0.232 0.52-0.4 0.145-0.172 0.258-0.369 0.35-0.592 0.074-0.23 0.119-0.478 0.119-0.736 0-0.281-0.049-0.545-0.151-0.779-0.093-0.235-0.232-0.44-0.406-0.608-0.168-0.17-0.369-0.309-0.605-0.398-0.237-0.096-0.481-0.141-0.741-0.141-0.244 0-0.451 0.041-0.627 0.115" fill="#231f20"/>
  </g>
  <g transform="matrix(5.5966 0 0 -5.5966 -36.491 -32.952)">
   <path d="m0 0c-0.148-0.125-0.268-0.32-0.354-0.596 0.133 0.01 0.305 0.014 0.524 0.018 0.213 0 0.455 4e-3 0.73 0.019l0.174 0.012 0.098 0.02 0.049 0.05 8e-3 0.1-0.04 0.201-0.121 0.18-0.195 0.129c-0.082 0.033-0.184 0.049-0.303 0.049-0.22 0-0.418-0.059-0.57-0.182m-0.402-0.832-0.034-0.207-0.013-0.264c0-0.523 0.111-0.914 0.34-1.176 0.214-0.265 0.504-0.394 0.847-0.394 0.225 0 0.418 0.041 0.588 0.141 0.168 0.095 0.289 0.205 0.36 0.343l0.076 0.063 0.119-0.063 0.078-0.097-8e-3 -0.032-0.019-0.025c-0.041-0.102-0.114-0.191-0.188-0.283-0.088-0.084-0.18-0.166-0.293-0.237-0.109-0.07-0.23-0.119-0.383-0.167-0.136-0.04-0.298-0.057-0.482-0.057-0.248 0-0.488 0.033-0.701 0.105-0.225 0.069-0.418 0.176-0.582 0.328-0.157 0.147-0.291 0.342-0.391 0.581-0.098 0.234-0.142 0.517-0.142 0.849 0 0.266 0.043 0.52 0.138 0.756 0.086 0.232 0.219 0.445 0.383 0.615 0.16 0.176 0.363 0.309 0.594 0.407 0.226 0.101 0.48 0.152 0.765 0.152 0.246 0 0.459-0.039 0.629-0.125 0.164-0.078 0.293-0.176 0.405-0.291 0.101-0.117 0.168-0.242 0.214-0.377 0.047-0.125 0.071-0.24 0.071-0.336l-0.043-0.168-0.149-0.041z" fill="#231f20"/>
  </g>
  <g transform="matrix(5.5966 0 0 -5.5966 -14.279 -33.674)">
   <path d="m0 0c0.08 0.082 0.164 0.15 0.256 0.209 0.088 0.055 0.178 0.1 0.269 0.129 0.094 0.027 0.168 0.039 0.246 0.039 0.206 0 0.356-0.045 0.438-0.139 0.086-0.099 0.129-0.197 0.129-0.308 0-0.11-0.031-0.211-0.09-0.272-0.059-0.074-0.137-0.109-0.242-0.109l-0.153 0.041-0.099 0.113-0.1 0.102c-0.039 0.031-0.105 0.045-0.199 0.045l-0.209-0.045-0.215-0.166c-0.07-0.079-0.119-0.18-0.162-0.305-0.043-0.131-0.07-0.295-0.07-0.482v-1.46l0.021-0.197 0.086-0.129 0.174-0.052c0.082-8e-3 0.184-0.016 0.316-0.016 0.038 0 0.053-0.045 0.053-0.137l-0.015-0.103-0.055-0.045c-0.09 0-0.217 6e-3 -0.385 0.012-0.168 0.013-0.34 0.017-0.514 0.017-0.195 0-0.347-4e-3 -0.474-0.017-0.125-6e-3 -0.254-0.012-0.387-0.012-0.033 0-0.047 0.049-0.047 0.148 0 0.092 0.02 0.137 0.061 0.137 0.119 0 0.213 8e-3 0.271 0.023l0.151 0.077 0.066 0.136 0.012 0.203v2.229c0 0.092-0.026 0.154-0.065 0.178-0.043 0.021-0.109 0.031-0.205 0.031h-0.17l-0.08 0.131 6e-3 0.111 0.043 0.039 0.219 0.018 0.252 0.047 0.261 0.062 0.215 0.072c0.127 0 0.184-0.045 0.184-0.117v-0.529c0.062 0.119 0.123 0.207 0.207 0.291" fill="#231f20"/>
  </g>
  <g transform="matrix(5.5966 0 0 -5.5966 .32475 -17.977)">
   <path d="m0 0c0.094-0.096 0.205-0.145 0.348-0.145 0.123 0 0.259 0.047 0.388 0.122 0.125 0.08 0.262 0.199 0.414 0.367v1.201c-0.269-0.078-0.48-0.156-0.646-0.254-0.174-0.086-0.303-0.188-0.402-0.283-0.09-0.104-0.155-0.201-0.194-0.311-0.027-0.109-0.049-0.211-0.049-0.318 0-0.176 0.047-0.303 0.141-0.379m1.35-0.437c-0.112 0.087-0.17 0.247-0.184 0.457-0.164-0.194-0.348-0.346-0.559-0.452-0.214-0.107-0.423-0.166-0.634-0.166-0.291 0-0.514 0.076-0.666 0.211-0.159 0.145-0.235 0.338-0.235 0.576 0 0.145 0.032 0.297 0.098 0.444 0.06 0.137 0.168 0.281 0.328 0.418 0.156 0.129 0.367 0.263 0.631 0.386 0.271 0.123 0.613 0.235 1.021 0.338v0.409c0 0.099-3e-3 0.189-0.011 0.269l-0.08 0.205-0.184 0.127c-0.074 0.028-0.186 0.045-0.326 0.045-0.219 0-0.379-0.031-0.479-0.096-0.115-0.064-0.189-0.162-0.25-0.295l-0.146-0.168-0.19-0.072-0.199 0.074-0.086 0.198 0.067 0.23c0.041 0.084 0.121 0.156 0.23 0.231 0.1 0.068 0.246 0.128 0.418 0.181 0.182 0.047 0.397 0.069 0.66 0.069 0.244 0 0.453-0.018 0.619-0.057 0.166-0.035 0.297-0.098 0.399-0.187 0.097-0.081 0.172-0.182 0.215-0.305 0.039-0.123 0.062-0.278 0.062-0.457 0-0.086 0-0.211-4e-3 -0.356-2e-3 -0.152-0.011-0.316-0.019-0.496-8e-3 -0.178-0.014-0.373-0.024-0.572-8e-3 -0.207-0.01-0.402-0.01-0.604 0-0.099 0.02-0.187 0.057-0.246 0.037-0.062 0.1-0.092 0.197-0.092l0.153 0.045 0.115 0.145 0.072 0.021 0.065-0.039 0.047-0.074-0.043-0.125-0.127-0.164c-0.057-0.051-0.141-0.096-0.239-0.135-0.099-0.039-0.211-0.06-0.351-0.06-0.166 0-0.303 0.047-0.408 0.139" fill="#231f20"/>
  </g>
  <g transform="matrix(5.5966 0 0 -5.5966 -185.89 .63881)">
   <path d="m0 0c-0.096-2e-3 -0.172-6e-3 -0.227-0.025-9e-3 -0.135-9e-3 -0.309-0.013-0.504-0.01-0.198-0.014-0.418-0.02-0.641-4e-3 -0.221-7e-3 -0.455-0.013-0.682-4e-3 -0.222-4e-3 -0.437-4e-3 -0.64h0.521c0.244 0 0.451 0.025 0.623 0.086 0.164 0.06 0.303 0.144 0.403 0.252 0.105 0.107 0.183 0.238 0.224 0.386 0.049 0.143 0.071 0.309 0.071 0.496 0 0.174-0.018 0.348-0.065 0.506-0.043 0.159-0.115 0.291-0.213 0.411-0.101 0.113-0.219 0.205-0.369 0.269-0.146 0.061-0.328 0.1-0.545 0.1-0.152 0-0.281-6e-3 -0.373-0.014m-0.119-5.023c0.111-0.123 0.322-0.177 0.637-0.177l0.05-0.037 0.016-0.098c0-0.113-0.033-0.166-0.08-0.166-0.104 0-0.248 8e-3 -0.434 0.01-0.181 0.01-0.431 0.01-0.763 0.01-0.323 0-0.592 0-0.803-0.01-0.203-2e-3 -0.359-0.01-0.459-0.01-0.037 0-0.057 0.053-0.057 0.148 0 0.104 0.02 0.153 0.057 0.153 0.299 0 0.502 0.045 0.623 0.142 0.117 0.1 0.178 0.272 0.178 0.514v3.923c0 0.217-0.055 0.375-0.164 0.478-0.116 0.11-0.33 0.168-0.645 0.168-0.043 0-0.066 0.043-0.066 0.135 0 0.108 0.029 0.166 0.074 0.166 0.103 0 0.256-0.01 0.459-0.025 0.209-0.012 0.471-0.02 0.803-0.02 0.226 0 0.466 6e-3 0.693 0.014 0.229 0.01 0.422 0.021 0.578 0.021 0.344 0 0.641-0.048 0.889-0.13 0.25-0.081 0.459-0.192 0.627-0.333 0.164-0.138 0.289-0.298 0.371-0.48 0.078-0.187 0.127-0.375 0.127-0.578 0-0.152-0.033-0.303-0.098-0.463-0.062-0.154-0.152-0.301-0.285-0.428-0.129-0.125-0.287-0.234-0.486-0.33-0.186-0.097-0.414-0.166-0.676-0.203 0.207-0.184 0.398-0.387 0.588-0.593 0.195-0.213 0.371-0.416 0.562-0.621 0.225-0.26 0.426-0.48 0.598-0.656 0.158-0.168 0.313-0.315 0.441-0.414 0.129-0.096 0.247-0.168 0.36-0.209 0.103-0.041 0.22-0.057 0.332-0.057 0.068 0 0.107-0.056 0.107-0.156l-0.015-0.135-0.079-0.035c-0.15 0-0.328 0-0.535 4e-3 -0.209 8e-3 -0.41 8e-3 -0.609 8e-3 -0.32 0-0.799 0.412-1.438 1.232-0.173 0.235-0.334 0.438-0.47 0.619-0.137 0.18-0.254 0.328-0.362 0.461-0.191 0.245-0.32 0.378-0.377 0.396l-0.212 0.012h-0.221v-1.748c0-0.218 0.056-0.382 0.164-0.502" fill="#a7a5a6"/>
  </g>
  <g transform="matrix(5.5966 0 0 -5.5966 -156.34 28.573)">
   <path d="m0 0c0.1-0.1 0.225-0.141 0.367-0.141 0.141 0 0.279 0.039 0.414 0.123 0.135 0.077 0.279 0.211 0.447 0.391v1.274c-0.281-0.085-0.513-0.17-0.697-0.266-0.179-0.094-0.32-0.196-0.418-0.301-0.103-0.107-0.174-0.219-0.207-0.33-0.035-0.113-0.053-0.232-0.053-0.346 0-0.177 0.051-0.314 0.147-0.404m1.437-0.457c-0.115 0.096-0.181 0.256-0.195 0.486-0.168-0.207-0.367-0.373-0.596-0.486-0.216-0.121-0.445-0.176-0.668-0.176-0.312 0-0.552 0.082-0.712 0.235-0.163 0.144-0.245 0.345-0.245 0.605 0 0.156 0.032 0.32 0.094 0.463 0.069 0.16 0.184 0.305 0.348 0.457 0.168 0.141 0.392 0.275 0.682 0.406 0.287 0.133 0.646 0.252 1.083 0.366v0.432c0 0.104-5e-3 0.193-0.015 0.279l-0.082 0.217-0.196 0.139c-0.085 0.033-0.203 0.051-0.353 0.051-0.23 0-0.402-0.034-0.51-0.108-0.113-0.062-0.201-0.174-0.262-0.314l-0.15-0.178-0.209-0.076-0.211 0.076c-0.056 0.055-0.092 0.119-0.092 0.217l0.075 0.248c0.043 0.084 0.119 0.16 0.24 0.24 0.111 0.07 0.262 0.135 0.451 0.189 0.188 0.053 0.422 0.077 0.701 0.077 0.26 0 0.479-0.024 0.655-0.061 0.177-0.043 0.324-0.103 0.425-0.191 0.108-0.09 0.188-0.201 0.229-0.332 0.047-0.133 0.066-0.299 0.066-0.489 0-0.091 0-0.216-4e-3 -0.379-9e-3 -0.155-0.011-0.327-0.019-0.524-0.01-0.191-0.02-0.396-0.03-0.613-3e-3 -0.217-9e-3 -0.42-9e-3 -0.633 0-0.111 0.019-0.195 0.062-0.266 0.039-0.068 0.106-0.101 0.209-0.101l0.166 0.06 0.117 0.141 0.071 0.033 0.078-0.051 0.051-0.072-0.043-0.133-0.141-0.175c-0.064-0.059-0.145-0.104-0.252-0.147-0.105-0.043-0.228-0.057-0.373-0.057-0.178 0-0.322 0.042-0.436 0.145" fill="#a7a5a6"/>
  </g>
  <g transform="matrix(5.5966 0 0 -5.5966 -131.31 12.182)">
   <path d="m0 0c-0.16-0.07-0.295-0.17-0.41-0.305-0.111-0.14-0.201-0.314-0.27-0.517-0.06-0.201-0.091-0.441-0.091-0.718 0-0.295 0.031-0.545 0.091-0.746 0.069-0.205 0.159-0.373 0.27-0.502 0.107-0.127 0.238-0.219 0.385-0.272 0.142-0.054 0.291-0.084 0.441-0.084 0.139 0 0.26 0.016 0.377 0.051 0.107 0.033 0.205 0.074 0.297 0.131l0.225 0.188 0.152 0.205c0.013 0.121 0.016 0.263 0.016 0.421 3e-3 0.159 7e-3 0.325 0.013 0.5v0.982l-0.08 0.262c-0.047 0.099-0.115 0.183-0.209 0.257-0.086 0.067-0.199 0.127-0.326 0.182-0.115 0.041-0.246 0.067-0.379 0.067-0.18 0-0.348-0.036-0.502-0.102m2.559-3.37c-0.102-4e-3 -0.198-0.022-0.301-0.045-0.098-0.016-0.201-0.045-0.295-0.074l-0.252-0.088-0.113-0.035c-0.09 0-0.133 0.041-0.133 0.132 0 0.022 0 0.094 2e-3 0.19 4e-3 0.103 0.013 0.197 0.016 0.287-0.137-0.148-0.323-0.295-0.54-0.406-0.22-0.112-0.472-0.168-0.75-0.168-0.244 0-0.482 0.047-0.705 0.135-0.226 0.091-0.422 0.218-0.59 0.39-0.165 0.164-0.302 0.375-0.404 0.615-0.101 0.252-0.15 0.524-0.15 0.827 0 0.308 0.049 0.587 0.154 0.84 0.104 0.254 0.236 0.467 0.42 0.655 0.172 0.181 0.375 0.322 0.609 0.426 0.235 0.097 0.483 0.148 0.745 0.148 0.265 0 0.496-0.031 0.703-0.113 0.191-0.071 0.371-0.196 0.521-0.368v1.868c0 0.138-0.037 0.242-0.111 0.285-0.07 0.057-0.237 0.082-0.49 0.082l-0.047 0.039-2e-3 0.111c0 0.102 0.012 0.16 0.049 0.16 0.353 0 0.644 0.014 0.851 0.061 0.207 0.043 0.328 0.068 0.362 0.068l0.125-0.031 0.044-0.076c0-0.121-0.011-0.498-0.031-1.117-0.013-0.627-0.021-1.508-0.021-2.636v-1.494c0-0.11 0.013-0.186 0.056-0.231 0.041-0.052 0.133-0.074 0.278-0.086l0.257-0.017c0.028 0 0.042-0.057 0.042-0.166l-0.01-0.096-0.032-0.053c-0.076 0-0.164 0-0.257-0.019" fill="#a7a5a6"/>
  </g>
  <g transform="matrix(5.5966 0 0 -5.5966 -108.92 2.6939)">
   <path d="m0 0c-0.096 0.094-0.141 0.207-0.141 0.342 0 0.138 0.045 0.25 0.141 0.344 0.088 0.089 0.201 0.142 0.344 0.142 0.121 0 0.238-0.053 0.33-0.142 0.094-0.094 0.141-0.206 0.141-0.344 0-0.135-0.047-0.248-0.141-0.342-0.092-0.092-0.209-0.135-0.33-0.135-0.143 0-0.256 0.043-0.344 0.135m0.791-4.741c0.07-0.055 0.217-0.092 0.455-0.092 0.035 0 0.053-0.047 0.053-0.143l-0.016-0.111-0.05-0.047c-0.098 0-0.225 8e-3 -0.372 0.02-0.156 0.01-0.324 0.017-0.513 0.017-0.201 0-0.369-7e-3 -0.504-0.017-0.135-0.012-0.272-0.02-0.41-0.02l-0.043 0.053-0.01 0.115 0.06 0.133c0.131 0 0.227 0.01 0.295 0.031l0.157 0.073 0.07 0.119 0.021 0.171v2.419c0 0.098-0.021 0.167-0.048 0.2-0.038 0.033-0.114 0.049-0.239 0.049h-0.195l-0.062 0.043-6e-3 0.099 6e-3 0.115 0.044 0.053 0.225 0.022 0.264 0.039c0.095 0.017 0.189 0.043 0.275 0.062 0.1 0.026 0.184 0.051 0.266 0.078l0.152-0.035 0.055-0.086c0-0.058-4e-3 -0.168-4e-3 -0.31 0-0.141-4e-3 -0.338-4e-3 -0.586-8e-3 -0.241-0.014-0.542-0.016-0.894-2e-3 -0.359-6e-3 -0.783-6e-3 -1.275 0-0.129 0.038-0.231 0.1-0.295" fill="#a7a5a6"/>
  </g>
  <g transform="matrix(5.5966 0 0 -5.5966 -92.074 13.767)">
   <path d="m0 0c-0.205-0.283-0.309-0.703-0.309-1.257 0-0.558 0.104-0.984 0.311-1.271 0.213-0.286 0.498-0.424 0.869-0.424 0.369 0 0.658 0.142 0.869 0.431 0.209 0.295 0.313 0.717 0.313 1.264 0 0.515-0.104 0.917-0.313 1.222-0.211 0.299-0.5 0.455-0.869 0.455-0.377 0-0.672-0.137-0.871-0.42m0.07-3.132c-0.246 0.1-0.465 0.254-0.648 0.43-0.192 0.191-0.34 0.406-0.447 0.654-0.112 0.254-0.168 0.512-0.168 0.791 0 0.281 0.056 0.542 0.168 0.788 0.107 0.24 0.255 0.447 0.447 0.631 0.183 0.18 0.402 0.322 0.648 0.426 0.248 0.103 0.516 0.154 0.801 0.154 0.281 0 0.547-0.051 0.797-0.154 0.25-0.104 0.473-0.246 0.658-0.426 0.188-0.184 0.338-0.391 0.444-0.631 0.113-0.246 0.17-0.507 0.17-0.788 0-0.279-0.057-0.537-0.17-0.791-0.106-0.248-0.256-0.463-0.444-0.654-0.185-0.176-0.408-0.33-0.658-0.43-0.25-0.105-0.516-0.162-0.797-0.162-0.285 0-0.553 0.057-0.801 0.162" fill="#a7a5a6"/>
  </g>
 </g>
</svg>
