<svg width="800" height="135.76" version="1.1" viewBox="0 0 211.67 35.921" xmlns="http://www.w3.org/2000/svg">
 <g transform="translate(-37.857 83.228)">
  <g transform="matrix(5.9354 0 0 -5.9354 141.67 -56.252)">
   <path d="m0 0c-0.059-0.22-0.311-0.686-0.604-0.711 0 0-0.439 0-0.736-4e-3v-0.365h-3.924l-0.181 0.381h-0.393c0 0.973 0.332 1.763 0.721 1.868l-0.039 0.358-0.225 4e-3 -0.017 0.064 0.183 0.395-0.023 0.111-0.682-3e-3 0.561 0.391c0.029 1.034 1.084 1.111 1.722 0.685 0.379-0.252 0.408-0.747 0.379-1.093l-0.099-5e-3s-0.067-0.376 0.101-0.376l0.746 1e-3c0.301 9e-3 0.594-0.196 0.594-0.196l0.074 0.257-1.73 2.376h0.967l1.31-2.447 0.121-0.016 0.069-0.098v-0.096l0.082-0.01 0.074-0.109v-0.088l0.086-0.015 0.082-0.09v-0.205s0.172-0.157 0.334-0.222c0.119-0.043 0.205-0.288 0.267-0.386 0.09-0.138 0.213-0.276 0.18-0.356m-17.49 4.534v-6.041h35.646l0.016 6.052z" fill="#c21e25"/>
  </g>
  <g transform="matrix(5.9354 0 0 -5.9354 140.6 -58.367)">
   <path d="m0 0c-0.062 0.098-0.148 0.343-0.268 0.386-0.162 0.065-0.334 0.222-0.334 0.222v0.204l-0.082 0.09-0.086 0.016v0.088l-0.074 0.109-0.082 0.01v0.095l-0.068 0.098-0.121 0.016-1.311 2.447h-0.967l1.731-2.376-0.074-0.256s-0.293 0.205-0.594 0.196l-0.746-2e-3c-0.168 0-0.102 0.376-0.102 0.376l0.1 6e-3c0.029 0.345 0 0.841-0.379 1.092-0.639 0.427-1.693 0.35-1.723-0.684l-0.56-0.391 0.681 3e-3 0.024-0.112-0.184-0.395 0.018-0.064 0.224-4e-3 0.04-0.358c-0.389-0.104-0.721-0.895-0.721-1.868h0.392l0.182-0.381h3.924v0.365c0.297 4e-3 0.736 4e-3 0.736 4e-3 0.293 0.026 0.545 0.491 0.604 0.712 0.033 0.08-0.09 0.217-0.18 0.356" fill="#fff"/>
  </g>
  <g transform="matrix(5.9354 0 0 -5.9354 126.21 -80.796)">
   <path d="m0 0 1.309-2.444 0.121-0.017 0.068-0.098v-0.095l0.082-0.01 0.074-0.109v-0.088l0.086-0.016 0.082-0.089v-0.205s0.172-0.157 0.334-0.222c0.119-0.043 0.205-0.288 0.268-0.386 0.09-0.139 0.213-0.276 0.18-0.356-0.059-0.221-0.311-0.686-0.604-0.712 0 0-0.439 0-0.736-4e-3v-0.358l19.115-5e-3v5.212z" fill="#c21e25"/>
  </g>
  <g transform="matrix(5.9354 0 0 -5.9354 109.35 -52.102)">
   <path d="m0 0h-0.393c0 0.973 0.332 1.763 0.721 1.868l-0.039 0.358-0.225 4e-3 -0.017 0.064 0.183 0.395-0.023 0.111-0.682-3e-3 0.561 0.391c0.029 1.034 1.084 1.111 1.723 0.685 0.378-0.251 0.408-0.747 0.378-1.092l-0.099-6e-3s-0.067-0.376 0.101-0.376l0.747 1e-3c0.3 9e-3 0.593-0.195 0.593-0.195l0.075 0.256-1.709 2.351-13.59 0.011v-5.177l11.867-5e-3z" fill="#191d41"/>
  </g>
  <g transform="matrix(5.9354 0 0 -5.9354 247.17 -49.668)">
   <path d="m0 0h-34.879v5.299h34.879z" fill="none" stroke="#fff" stroke-width=".155"/>
  </g>
  <g transform="matrix(5.9354 0 0 -5.9354 65.689 -62.302)">
   <path d="m0 0h-1.252l0.01 1.469-0.631-1.101-0.617 1.101v-1.469h-1.246v2.744h1.246l0.619-1.104 0.629 1.104h1.242z" fill="#fff"/>
  </g>
  <g transform="matrix(5.9354 0 0 -5.9354 83.437 -62.302)">
   <path d="m0 0h-2.688l-3e-3 2.741 1.25 2e-3 7e-3 -2.157h1.44z" fill="#fff"/>
  </g>
  <g transform="matrix(5.9354 0 0 -5.9354 95.899 -73.551)">
   <path d="m0 0-0.01 0.072c-0.037 0.123-0.168 0.186-0.4 0.186h-0.176l-2e-3 -0.515h0.178c0.273 0 0.408 0.085 0.41 0.257m-2e-3 -0.971-0.014 0.113c-0.045 0.147-0.175 0.222-0.396 0.222h-0.176v-0.673h0.178c0.273 0 0.408 0.113 0.408 0.338m1.246-0.199c-2e-3 -0.48-0.273-0.723-0.818-0.723h-2.262l4e-3 2.741h2.26c0.441 0 0.707-0.144 0.787-0.432l0.027-0.217c0-0.43-0.199-0.643-0.596-0.643 0.295 0 0.485-0.135 0.557-0.401 0.027-0.095 0.039-0.201 0.041-0.325" fill="#fff"/>
  </g>
  <g transform="matrix(5.9354 0 0 -5.9354 50.723 -52.142)">
   <path d="m0 0h-0.357l-0.389 0.588c-0.051 0.075-0.102 0.169-0.15 0.278l0.031-0.221v-0.645h-0.35v1.332h0.41l0.332-0.487c0.065-0.094 0.116-0.182 0.151-0.257-0.024 0.115-0.035 0.233-0.035 0.349v0.395h0.357z" fill="#fff"/>
  </g>
  <g transform="matrix(5.9354 0 0 -5.9354 58.536 -54.043)">
   <path d="m0 0v-0.32h-1.07v1.332h1.07v-0.308h-0.644v-0.193h0.521v-0.295h-0.521v-0.216z" fill="#fff"/>
  </g>
  <g transform="matrix(5.9354 0 0 -5.9354 63.788 -58.162)">
   <path d="m0 0v-1.014h-0.416v1.014h-0.293v0.318h1.004v-0.318z" fill="#fff"/>
  </g>
  <g transform="matrix(5.9354 0 0 -5.9354 77.64 -60.049)">
   <path d="m0 0-0.377-1.332h-0.363l-0.201 0.737-0.188-0.737h-0.379l-0.381 1.332h0.41l0.2-0.768 0.191 0.768h0.348l0.211-0.768 0.197 0.768z" fill="#fff"/>
  </g>
  <g transform="matrix(5.9354 0 0 -5.9354 81.907 -53.829)">
   <path d="m0 0 0.156 0.089c0.035 0.06 0.049 0.172 0.049 0.33 0 0.233-0.064 0.349-0.195 0.349-0.147 0-0.215-0.134-0.215-0.397 0-0.248 0.068-0.371 0.205-0.371m0-0.303c-0.197 0-0.363 0.061-0.488 0.185s-0.19 0.291-0.19 0.497c0 0.203 0.061 0.368 0.184 0.496 0.115 0.127 0.289 0.195 0.498 0.195 0.201 0 0.357-0.061 0.484-0.183 0.123-0.122 0.184-0.286 0.184-0.49 0-0.212-0.061-0.384-0.188-0.509-0.123-0.128-0.283-0.191-0.484-0.191" fill="#fff"/>
  </g>
  <g transform="matrix(5.9354 0 0 -5.9354 89.604 -56.863)">
   <path d="m0 0h0.187l0.131 0.033 0.049 0.095c0 0.084-0.053 0.129-0.168 0.129h-0.199zm0.83-0.795h-0.486l-0.205 0.509h-0.139v-0.509h-0.436v1.332h0.745c0.162 0 0.289-0.035 0.378-0.105 0.09-0.074 0.139-0.17 0.139-0.284l-0.053-0.207c-0.035-0.055-0.101-0.109-0.203-0.154z" fill="#fff"/>
  </g>
  <g transform="matrix(5.9354 0 0 -5.9354 103.35 -52.142)">
   <path d="m0 0h-0.475l-0.25 0.502-0.146-0.195v-0.307h-0.41v1.332h0.41v-0.551l0.392 0.551h0.393l-0.357-0.487z" fill="#fff"/>
  </g>
  <g transform="matrix(5.9354 0 0 -5.9354 154.72 -70.116)">
   <path d="m0 0c0 0.194-0.059 0.338-0.18 0.427-0.119 0.089-0.3 0.135-0.543 0.135h-0.191v-1.108h0.191c0.241 0 0.418 0.041 0.539 0.133 0.122 0.09 0.184 0.228 0.184 0.413m1.062-2.891h-0.982l-0.994 1.875v-1.875h-0.816v4.107h1.13c0.475 0 0.834-0.097 1.08-0.292 0.249-0.196 0.37-0.48 0.37-0.851 0-0.317-0.08-0.571-0.246-0.76-0.163-0.192-0.377-0.301-0.643-0.329z" fill="#fff"/>
  </g>
  <g transform="matrix(5.9354 0 0 -5.9354 177.82 -62.233)">
   <path d="m0 0-0.535 1.747-0.527-1.747zm1.379-1.562h-0.912l-0.272 0.908h-1.447l-0.275-0.908h-0.914l1.425 4.106h0.975z" fill="#fff"/>
  </g>
  <g transform="matrix(5.9354 0 0 -5.9354 202.49 -65.148)">
   <path d="m0 0c0 0.424-0.111 0.752-0.338 0.99-0.223 0.235-0.539 0.354-0.943 0.354h-0.201v-2.69h0.201c0.404 0 0.717 0.119 0.943 0.354 0.227 0.234 0.338 0.563 0.338 0.992m0.854-5e-3c0-0.647-0.196-1.154-0.594-1.512-0.391-0.356-0.947-0.537-1.658-0.537h-0.905v4.107h0.84c0.748 0 1.318-0.177 1.719-0.529 0.4-0.351 0.598-0.862 0.598-1.529" fill="#fff"/>
  </g>
  <path d="m215.22-52.962h-4.867v-24.377h4.867z" fill="#fff"/>
  <g transform="matrix(5.9354 0 0 -5.9354 238.06 -65.148)">
   <path d="m0 0c0 0.398-0.117 0.721-0.342 0.973-0.226 0.252-0.517 0.377-0.881 0.377-0.363 0-0.656-0.125-0.882-0.377-0.227-0.252-0.338-0.575-0.338-0.973 0-0.4 0.111-0.72 0.338-0.974 0.226-0.251 0.519-0.377 0.882-0.377 0.364 0 0.655 0.126 0.881 0.377 0.225 0.254 0.342 0.574 0.342 0.974m0.846 0c0-0.612-0.196-1.122-0.594-1.528-0.397-0.409-0.891-0.613-1.475-0.613-0.586 0-1.078 0.204-1.474 0.613-0.397 0.406-0.594 0.916-0.594 1.528s0.197 1.119 0.594 1.528c0.396 0.408 0.888 0.612 1.474 0.612 0.584 0 1.078-0.204 1.475-0.612 0.398-0.409 0.594-0.916 0.594-1.528" fill="#fff"/>
  </g>
 </g>
</svg>
