<svg width="797.82" height="800" enable-background="new 0 0 303.886 304.715" version="1.1" viewBox="0 0 797.82 800" xml:space="preserve" xmlns="http://www.w3.org/2000/svg">
<g transform="scale(2.6254)">
			<g fill="#b30033">
				<path d="m199.65 52.116c0-28.785 23.334-52.115 52.117-52.116 28.781 1e-3 52.113 23.331 52.115 52.116-2e-3 28.78-23.334 52.113-52.115 52.113-28.783 0-52.117-23.333-52.117-52.113zm16.211-35.907c-9.191 9.191-14.873 21.881-14.873 35.907 0 14.022 5.682 26.713 14.873 35.904 9.191 9.189 21.881 14.873 35.906 14.873 14.023 0 26.715-5.684 35.904-14.873 9.191-9.191 14.873-21.882 14.875-35.904-2e-3 -14.026-5.684-26.716-14.875-35.907-9.189-9.191-21.881-14.873-35.904-14.873-14.025 0-26.715 5.682-35.906 14.873z"/>
				<path d="m214.08 52.116c2e-3 -20.813 16.871-37.686 37.686-37.686 20.813 0 37.684 16.872 37.684 37.686 0 20.812-16.871 37.683-37.684 37.684-20.814-1e-3 -37.684-16.872-37.686-37.684zm11.983-25.704c-6.578 6.58-10.645 15.664-10.645 25.704 0 10.039 4.066 19.121 10.645 25.7 6.58 6.579 15.662 10.646 25.703 10.646 10.039 0 19.123-4.067 25.703-10.646 6.576-6.579 10.645-15.661 10.645-25.7 0-10.04-4.068-19.124-10.645-25.704-6.58-6.578-15.664-10.646-25.703-10.646-10.041 1e-3 -19.123 4.068-25.703 10.646z"/>
				<path d="m226.71 52.116c0-13.841 11.219-25.06 25.057-25.06 13.842 0 25.059 11.219 25.059 25.06 0 13.838-11.217 25.056-25.059 25.058-13.838-2e-3 -25.057-11.22-25.057-25.058zm8.284-16.774c-4.293 4.295-6.945 10.22-6.945 16.774 0 6.552 2.652 12.478 6.945 16.772 4.297 4.294 10.223 6.947 16.773 6.947 6.555 0 12.48-2.653 16.775-6.947 4.293-4.295 6.947-10.221 6.947-16.772 0-6.555-2.654-12.479-6.947-16.774-4.295-4.295-10.221-6.949-16.775-6.949-6.551 0-12.477 2.654-16.773 6.949z"/>
			</g>
		<circle cx="251.77" cy="52.116" r="7.351" fill="#b30033"/>
	<g clip-rule="evenodd" fill="#b30033" fill-rule="evenodd">
			<path d="m54.66 80.059c1.361 6.926 2.622 13.951 3.876 20.982h-4.678c-0.162-1.574-0.569-2.905-0.668-4.544-2.809-0.31-6.19-0.046-9.222-0.133-1.291 1.336-1.966 3.29-3.208 4.677h-4.945c4.434-7.06 8.92-14.067 13.498-20.982h5.347zm-8.686 12.831h6.549c-0.516-2.738-0.829-5.676-1.47-8.286-1.595 2.859-3.392 5.516-5.079 8.286z"/>
			<path d="m70.698 80.059c-1.374 6.735-3.237 14.136-4.945 20.982h-4.543c1.632-7.054 3.147-14.227 5.078-20.982h4.41z"/>
			<path d="m79.652 80.059c-1.285 6.78-3.355 13.93-4.811 20.982h-4.678c1.634-7.053 3.17-14.204 5.078-20.982h4.411z"/>
			<path d="m97.961 80.059c-0.502 2.84-1.279 5.403-1.871 8.152h8.954c1.015-2.415 1.362-5.499 2.139-8.152h4.811c-1.511 7.133-3.255 14.031-4.945 20.982h-4.812c0.618-3.168 1.435-6.138 2.138-9.221-2.717-0.312-6.014-0.045-8.954-0.135-1.057 2.864-1.529 6.313-2.405 9.355h-4.812c1.607-7.078 3.146-14.228 5.079-20.982 1.56 1e-3 3.119 1e-3 4.678 1e-3z"/>
			<path d="m197.93 80.059c-1.391 6.763-3.41 14.055-5.078 20.982h-4.412c0.053-0.48 0.174-0.896 0.27-1.336-2.037 1.972-7.613 2.354-9.756-0.134-2.645-3.066-1.318-8.782 1.336-11.627 3.031-3.251 8.719-3.3 11.225-0.134 0.672-2.58 1.137-5.367 2.006-7.752 1.468 1e-3 2.939 1e-3 4.409 1e-3zm-13.9 18.042c6.32 2.231 8.92-10.911 1.871-9.354-3.059 0.676-5.773 7.975-1.871 9.354z"/>
			<path d="m126.69 101.04h-4.543c-0.086-0.494-0.363-0.796-0.268-1.47-1.416 0.605-2.833 1.882-5.078 1.871-4.212-0.02-6.604-4.499-3.876-7.618 2.167-2.478 6.456-1.557 10.29-2.405 2.221-3.37-4.468-3.927-4.944-1.336-1.643 0.039-2.948-0.26-4.544-0.268 1.025-5.271 14.023-6.292 14.434-0.401 0.267 3.839-2.922 7.482-1.471 11.627zm-10.423-4.41c0.034 1.371 1.635 1.9 3.207 1.604 1.898-0.358 2.908-2.439 3.208-4.276h-0.268c-2.166 0.649-6.21 0.147-6.147 2.672z"/>
			<path d="m161.18 101.04h-4.545c-0.238-0.385-0.186-1.062-0.4-1.47-2.389 2.592-9.309 2.404-9.889-1.871-0.864-6.358 6.643-5.446 11.495-6.415 1.686-3.521-4.662-3.538-5.213-1.202-1.586 0.025-2.857-0.262-4.411-0.268 0.626-4.769 12.617-6.264 14.167-1.471 1.154 3.571-2.879 8.878-1.204 12.697zm-10.424-4.544c-0.098 2.636 4.292 1.986 5.479 0.268 0.568-0.824 0.5-1.766 0.936-2.806h-0.268c-2.174 0.652-6.059 0.135-6.147 2.538z"/>
			<path d="m178.68 85.939c-0.506 1.186-1.141 2.245-1.736 3.341-6.904-0.795-6.764 6.598-8.152 11.761h-4.676c1.109-5.17 2.369-10.192 3.607-15.235h4.275c-0.021 1.002-0.379 1.67-0.535 2.539 1.198-1.344 4.041-3.877 7.217-2.406z"/>
			<path d="m213.83 89.549c-1.422 0.092-2.588 0.44-4.01 0.534-0.568-0.031-0.629-0.911-1.469-1.337-1.668-0.84-4.891-0.513-4.947 0.935-0.053 1.375 2.236 1.531 3.475 1.872 2.594 0.715 5.762 1.532 5.883 4.409 0.285 6.904-15.057 7.34-16.439 0.936 1.189-0.501 3.002-0.381 4.275-0.801 1.021 0.689 0.846 1.671 2.271 2.139 1.783 0.583 5.146 0.045 5.08-1.471-0.051-1.134-2.43-1.494-3.607-1.87-2.486-0.798-5.434-1.666-5.48-4.411-0.107-6.139 14.057-7.067 14.968-0.935z"/>
			<path d="m145.67 85.806c0.077 1.057-0.438 1.521-0.4 2.539-3.152 3.129-6.452 6.111-9.49 9.355h8.153c-0.199 1.183-0.478 2.284-0.802 3.341h-14.033c0.227-0.976 0.473-1.934 0.669-2.94 3.192-2.866 6.198-5.918 9.221-8.953h-7.483c0.31-1.116 0.339-2.513 0.935-3.342h13.23z"/>
	</g>
	<path d="m228.26 196.33h4.145v3.875h-4.145v-3.875z" clip-rule="evenodd" fill="#004896" fill-rule="evenodd"/>
	<path d="m51.587 196.6h4.678c1.207 4.94 2.416 9.879 3.341 15.102 0.988-5.025 1.927-10.1 2.94-15.102h4.677c1.069 4.99 2.227 9.891 3.074 15.102 1.193-4.999 2.282-10.103 3.475-15.102h4.544c-2.015 6.94-4.013 13.896-5.88 20.981h-4.277c-1.143-5.316-2.313-10.604-3.208-16.17-1.129 5.374-2.141 10.866-3.34 16.17h-4.143c-1.885-7.07-3.933-13.974-5.881-20.981z" clip-rule="evenodd" fill="#004896" fill-rule="evenodd"/>
	<path d="m125.76 196.6v7.083c0.803-1.769 5.018-2.835 7.485-1.47 3.989 2.208 1.876 9.512 2.405 15.368h-4.142c-0.851-3.942 2.377-13.538-3.475-12.428-3.724 0.706-1.803 8.007-2.273 12.295-1.13 0.221-3.146 0.221-4.276 0 0.09-6.905-0.178-14.166 0.134-20.849 1.38 1e-3 2.761 1e-3 4.142 1e-3z" clip-rule="evenodd" fill="#004896" fill-rule="evenodd"/>
	<path d="m188.31 207.42c0.807 0.608 1.514 0.717 2.002 1.604 0.979 1.772 0.084 4.692 0.67 6.816 0.213 0.77 0.785 0.962 0.803 1.736h-4.813c-1.17-2.11 0.189-5.483-0.936-7.216-1.262-1.939-4.709-0.468-7.484-0.936v8.151h-4.277v-20.981c7.938 0.108 17.117-1.612 17.24 5.88 0.043 2.482-1.084 4.089-3.205 4.946zm-1.738-2.538c0.826-1.101 0.598-3.08-0.135-3.877-1.33-1.45-5.355-0.528-7.752-0.802-0.311 1.604-0.043 3.786-0.133 5.613 2.869-0.326 6.75 0.751 8.02-0.934z" clip-rule="evenodd" fill="#004896" fill-rule="evenodd"/>
	<path d="m220.65 196.6h4.143v20.981h-4.008v-1.736c-1.361 2.609-6.852 2.631-8.955 0.4-4.021-4.264-2.406-14.658 4.277-14.701 2.219-0.015 3.297 0.866 4.543 2.271v-7.215zm-1.068 9.221c-0.986-0.843-3.053-1.007-4.277 0-2.127 1.749-1.775 7.851 1.07 8.686 5.076 1.174 5.74-6.52 3.207-8.686z" clip-rule="evenodd" fill="#004896" fill-rule="evenodd"/>
	<path d="m112.66 197.8h4.144v4.142h2.405c0.218 0.743 0.218 2.334 0 3.074h-2.273c-0.311 2.808-0.044 6.191-0.132 9.222 0.605 0.518 1.873 0.271 2.538 0.401-0.075 0.994 0.161 2.299-0.133 3.074-2.294-0.107-4.247 0.288-5.48-0.534-2.612-1.746-0.265-8.315-1.069-12.028-0.447-0.31-1.467-0.047-2.137-0.135v-3.074h2.137v-4.142z" clip-rule="evenodd" fill="#004896" fill-rule="evenodd"/>
	<path d="m93.817 210.9h-10.557c-0.943 3.523 5.07 5.222 6.281 2.004h4.009c-0.552 5.574-9.807 6.88-13.097 2.406-0.98-1.333-1.492-3.801-1.47-5.746 0.047-4.11 2.136-7.719 6.816-8.02 5.767-0.369 8.176 3.471 8.018 9.356zm-10.556-2.671h6.281c0.349-4.248-6.6-4.111-6.281 0z" clip-rule="evenodd" fill="#004896" fill-rule="evenodd"/>
	<path d="m109.72 217.58h-4.411c-0.229-0.438-0.307-1.027-0.4-1.603-2.487 2.92-10.49 3.138-9.756-3.342 0.183-1.618 1.116-2.944 2.406-3.608 2.426-1.249 6.969-0.38 7.216-2.271 0.358-2.736-5.667-2.409-5.211 0.267h-3.876c-0.5-5.896 8.828-7.018 12.028-3.875 2.545 2.496 0.032 9.096 1.203 12.83 0.212 0.679 0.913 0.788 0.801 1.602zm-10.157-3.207c1.569 2.237 6.822-0.657 5.078-4.277-1.693 0.641-7.271 1.152-5.078 4.277z" clip-rule="evenodd" fill="#004896" fill-rule="evenodd"/>
	<path d="m152.62 210.9h-10.558c-0.688 3.988 5.167 4.898 6.416 2.004h3.876c-0.366 2.697-2.756 4.745-5.747 5.079-6.249 0.699-9.243-4.135-8.688-9.755 0.335-3.391 2.552-6.393 6.682-6.684 5.782-0.405 8.207 3.456 8.019 9.356zm-10.558-2.671h6.282c0.342-4.268-6.579-4.079-6.282 0z" clip-rule="evenodd" fill="#004896" fill-rule="evenodd"/>
	<path d="m164.12 201.68v4.144c-7.043-1.428-4.35 6.879-5.08 11.76h-4.01v-15.637h3.875v2.54c0.898-1.171 2.394-3.548 5.215-2.807z" clip-rule="evenodd" fill="#004896" fill-rule="evenodd"/>
	<path d="m208.22 217.58h-4.41c-0.189-0.477-0.381-0.954-0.4-1.603-0.848 0.331-1.328 1.104-2.137 1.47-3.701 1.669-8.16-0.229-7.617-4.812 0.205-1.744 1.326-3.053 2.404-3.608 1.875-0.966 9.295-0.545 6.814-3.475-1.318-1.562-5.047-0.529-4.809 1.47h-3.877c-0.635-6.084 9.471-7.054 12.295-3.607 2.133 2.599-0.096 8.917 0.936 12.429 0.223 0.754 0.811 0.89 0.801 1.736zm-10.154-3.207c1.57 2.24 6.803-0.681 5.076-4.277-1.703 0.636-7.289 1.126-5.076 4.277z" clip-rule="evenodd" fill="#004896" fill-rule="evenodd"/>
	<path d="m242.3 201.68c3.506-0.295 6.146 1.138 7.484 3.209 2.674 4.134 1.17 10.331-2.807 12.295-4.414 2.18-9.385-0.016-10.957-2.941-3.052-5.67 0.382-12.067 6.28-12.563zm-1.603 12.162c1.182 0.934 3.664 0.893 4.813-0.133 1.865-1.67 1.635-7.513-0.936-8.42-0.576-0.204-1.764-0.23-2.674 0-2.971 0.749-3.598 6.659-1.203 8.553z" clip-rule="evenodd" fill="#004896" fill-rule="evenodd"/>
	<path d="m232.27 201.94c0.311 4.947 0.047 10.47 0.135 15.637h-4.145c0.09-5.167-0.178-10.691 0.135-15.637h3.875z" clip-rule="evenodd" fill="#004896" fill-rule="evenodd"/>
	<g clip-rule="evenodd" fill="#004896" fill-rule="evenodd">
			<path d="m63.08 234.55c8.438-1.674 6.428 16.021-1.203 11.627-3.562-2.049-3.183-10.757 1.203-11.627zm0.802 9.89c3.543 0.233 3.458-8.61-0.401-7.617-2.672 0.688-2.497 7.426 0.401 7.617z"/>
			<path d="m52.79 234.55c1.044 2.476 2.324 4.716 3.341 7.217 0.312-2.093 0.045-4.766 0.134-7.082 0.415-0.214 1.588-0.214 2.004 0v11.761h-2.138c-0.997-2.389-2.245-4.527-3.208-6.95-0.312 2.051-0.044 4.677-0.133 6.95h-2.005v-11.761c0.439-0.274 1.353-0.073 2.005-0.135z"/>
			<path d="m74.44 234.55c1.116 3.829 2.381 7.509 3.474 11.36 1.393-3.597 2.262-7.716 3.609-11.36h2.004c1.161 4.008 2.54 7.797 3.608 11.896h-2.138c-0.2-0.868-0.584-1.555-0.668-2.54h-3.475c-0.39 0.724-0.512 1.716-0.801 2.54h-4.143c-0.303-0.811-0.454-1.773-0.802-2.54h-3.341c-0.404 0.711-0.545 1.684-0.802 2.54h-2.138c1.134-4.034 2.288-8.048 3.608-11.896h2.005zm6.949 7.084h2.138c-0.293-1.265-0.653-2.466-1.069-3.608-0.391 1.166-0.677 2.441-1.069 3.608zm-9.087 0h2.138c-0.424-1.135-0.459-2.66-1.203-3.475-0.195 1.275-0.615 2.325-0.935 3.475z"/>
			<path d="m89.141 234.55c0.13 2.403-8e-3 4.537-1.604 5.214-0.347-0.144-0.187-0.794-0.534-0.936 0.178-0.669 1.092-0.602 0.936-1.604-0.016-0.295-0.567-0.058-0.802-0.134v-2.405c0.438-0.274 1.352-0.073 2.004-0.135z"/>
			<path d="m95.823 239.9c-0.293 0.51-1.313 0.291-1.738 0.669-0.404-0.22-0.32-0.927-0.802-1.069-0.764-0.051-1.414 0.014-1.604 0.535 0.919 1.283 3.044 0.862 3.875 2.005 3.094 4.252-5.831 7.006-5.88 1.87 0.543-0.213 1.311-0.203 1.871-0.4-0.166 1.253 2.364 2.076 2.406 0.4-1.396-1.009-4.104-1.055-4.144-3.475-0.052-3.243 5.11-3.952 6.016-0.535z"/>
			<path d="m153.16 234.55h2.006c0.457 2.394 0.902 4.8 1.203 7.351 0.814-2.212 0.945-5.112 1.736-7.351h2.139c0.635 2.306 1.084 4.797 1.469 7.351 0.793-2.147 0.832-5.049 1.471-7.351h2.004c-0.662 4.017-1.525 7.828-2.139 11.896h-2.27c-0.502-2.664-1.025-5.302-1.605-7.886-0.715 2.491-1.105 5.31-1.736 7.886h-2.271c-0.54-4.096-1.521-7.75-2.007-11.896z"/>
			<path d="m185.76 234.55v3.876c0.543-0.172 1.029-0.824 2.004-0.802 3.242 0.075 2.057 5.355 2.273 8.821h-2.006c-0.248-2.202 0.563-5.461-0.533-6.816-2.838 0.014-1.355 4.348-1.738 6.816h-2.004v-11.761c0.44-0.273 1.354-0.072 2.004-0.134z"/>
			<path d="m181.49 234.82c0.602 0.422 0.104 1.944 0.266 2.806 0.148 0.342 1.035-0.053 1.203 0.269v1.871c-0.221 0.224-0.785 0.105-1.203 0.132v4.545c0.32 0.449 0.969-0.266 1.07 0 0.354 0.313-0.1 1.436 0.266 1.736-3.65 2.392-3.578-2.769-3.34-6.146-0.016-0.295-0.566-0.058-0.801-0.135v-2.137h0.801v-1.604c0.624-0.4 1.165-0.884 1.738-1.337z"/>
			<path d="m171.46 242.97h-4.275c-0.418 1.828 2.297 2.435 2.273 0.535 0.551 0.205 1.172 0.341 1.869 0.4-0.246 1.59-1.025 2.634-2.406 2.808-4.277 0.539-4.941-6.292-2.537-8.421 2.604-2.306 5.789 0.904 5.076 4.678zm-4.275-1.603h2.273c0.432-2.267-2.673-2.171-2.273 0z"/>
			<path d="m178.55 246.45c-0.648-0.198-2.178 0.486-2.004-0.535-0.623-0.018-0.994 0.717-1.736 0.803-2.242 0.252-3.459-2.457-2.273-4.277 0.859-1.32 2.414-0.856 3.742-1.604 0.361-1.679-2.295-1.508-2.139-0.133-0.596-0.116-1.094-0.33-1.738-0.4-0.018-2.395 2.783-3.416 4.68-2.405 2.253 1.199 0.244 6.223 1.468 8.551zm-4.41-2.94c-0.072 0.695 0.213 1.036 0.533 1.336 1.422 0.129 1.641-0.944 1.605-2.271-0.835 0.189-1.741 0.308-2.138 0.935z"/>
			<path d="m197.39 242.97h-4.275c-0.449 1.878 2.293 2.414 2.271 0.535 0.551 0.205 1.174 0.341 1.871 0.4-0.184 2.68-3.094 3.529-4.813 2.271-1.918-1.402-2.018-6.481 0-8.018 2.7-2.054 5.641 1.352 4.946 4.812zm-4.275-1.603h2.271c0.111-0.915-0.336-1.268-0.67-1.738-1.297-0.185-1.564 0.661-1.601 1.738z"/>
			<path d="m203.01 238.16c-0.254 0.594-0.414 1.281-0.535 2.005-0.363 0.323-0.477-0.414-1.07-0.269-1.627 0.867-0.676 4.314-0.936 6.55h-2.006v-8.553c0.4-0.27 1.262-0.076 1.873-0.134v0.801c0.338-0.979 1.944-1.214 2.674-0.4z"/>
			<path d="m121.08 234.55c0.651 0.063 1.565-0.139 2.005 0.135v2.139c-0.439 0.273-1.354 0.072-2.005 0.134v-2.408z"/>
			<path d="m102.64 234.55c1.245 2.32 2.345 4.783 3.475 7.217 0.311-2.138 0.044-4.855 0.133-7.217 0.651 0.063 1.566-0.139 2.005 0.135v11.761h-2.138c-1.01-2.376-2.282-4.489-3.208-6.95-0.312 2.051-0.045 4.677-0.134 6.95h-2.005v-11.896h1.872z"/>
			<path d="m149.01 234.69v11.761h-2.006v-11.896c0.652 0.062 1.565-0.139 2.006 0.135z"/>
			<path d="m118.68 234.82c0.602 0.422 0.104 1.944 0.267 2.806 0.149 0.342 1.033-0.053 1.204 0.269v1.871c-0.223 0.224-0.786 0.105-1.204 0.132v4.545c0.358 0.342 0.705-0.08 1.204 0-0.031 0.698 1e-3 1.335 0.134 1.871-3.744 1.966-3.551-3.006-3.342-6.281-0.016-0.295-0.567-0.058-0.801-0.135v-2.137h0.801v-1.604c0.598-0.427 1.233-0.815 1.737-1.337z"/>
			<path d="m115.74 246.45c-0.735-0.155-2.238 0.454-2.005-0.669-1.9 2.734-6.149-0.932-3.741-3.607 1.113-1.24 2.326-0.422 3.475-1.471 0.26-1.604-2.315-1.28-2.139 0-0.596-0.116-1.095-0.33-1.738-0.4-0.344-2.467 3.672-3.578 5.213-2.006 1.615 1.65-0.197 6.243 0.935 8.153zm-3.609-1.604c0.949 0.155 1.489-0.835 1.337-2.271-1.743-0.303-2.926 2.012-1.337 2.271z"/>
			<path d="m126.96 237.76c5.505-1.115 5.088 8.565 1.069 8.954-4.777 0.46-5.154-8.128-1.069-8.954zm0.534 6.815c2.129 0.204 2.043-3.963 0.669-4.811-2.87-0.277-2.437 4.641-0.669 4.811z"/>
			<path d="m138.46 246.45h-2.005c-0.434-2.049 0.918-6.516-0.801-6.816-2.229-0.39-1.258 4.546-1.47 6.816h-2.005v-8.553c0.399-0.27 1.261-0.076 1.873-0.134v0.801c0.919-0.883 3.064-1.448 4.008 0 1.147 1.761-0.032 5.359 0.4 7.886z"/>
			<path d="m145.94 246.31c-0.511 0.149-2.38 0.512-2.139-0.535-1.816 2.751-6.122-0.932-3.742-3.607 1.011-1.138 2.19-0.548 3.475-1.338-1e-3 -0.354 0.05-0.763-0.134-0.936-0.739-0.71-1.976-0.038-2.005 0.803-0.54-0.174-1.134-0.293-1.737-0.4-0.244-2.834 4.83-3.795 5.747-1.203 0.73 2.059-0.549 5.694 0.535 7.216zm-2.673-3.743c-0.552 0.294-1.36 0.333-1.737 0.802-0.088 0.713 0.104 1.145 0.401 1.47 1.407 0.366 2.043-1.408 1.336-2.272z"/>
			<path d="m123.09 237.89v8.553h-2.005v-8.687c0.652 0.061 1.566-0.14 2.005 0.134z"/>
			<path d="m235.62 234.55c0.65 0.063 1.566-0.139 2.004 0.135v2.272h-2.004v-2.407z"/>
			<path d="m213.83 238.16c-0.531 0.226-1.41 0.104-2.141 0.133 0.791-1.432-2.447-2.522-2.805-0.936-0.375 1.666 3.361 1.847 4.275 2.808 3.09 3.247-1.299 8.82-5.211 5.881-0.73-0.55-1.264-1.68-1.471-3.609 0.707-7e-3 1.365-0.059 1.873-0.267 0.486 0.785 0.328 1.969 1.336 2.271 1.375 0.415 2.541-0.516 2.271-1.738-0.295-1.331-3.189-1.234-4.277-2.404-3.227-3.479 2.471-8.275 5.346-4.813 0.468 0.562 0.677 1.422 0.804 2.674z"/>
			<path d="m221.18 242.97h-4.277c-0.365 1.776 2.266 2.468 2.273 0.535 0.508 0.292 1.402 0.202 1.869 0.535-0.023 2.323-3.043 3.465-4.809 2.137-2.832-2.124-1.318-10.376 3.072-8.284 1.483 0.705 1.87 2.39 1.872 5.077zm-4.277-1.603h2.273c0.406-2.294-2.627-2.125-2.273 0z"/>
			<path d="m226.79 238.03c-0.119 0.818-0.447 1.424-0.535 2.272-0.375-0.113-0.549-0.433-1.068-0.402-1.523 0.972-0.725 4.268-0.936 6.55h-2.004v-8.553c0.396-0.27 1.26-0.076 1.869-0.134v0.801c0.378-0.939 1.788-1.17 2.674-0.534z"/>
			<path d="m245.1 240.56c-0.73 0.071-1.293 0.312-2.004 0.401-1.594-4.617-3.891 3.866-0.936 3.608 0.844-0.073 0.891-0.638 1.07-1.604 0.592 0.164 1.17 0.345 1.869 0.401-0.221 1.482-0.469 2.25-1.203 2.806-4.309 3.279-7.094-5.556-3.74-8.018 1.948-1.431 4.923-0.024 4.944 2.406z"/>
			<path d="m251.92 242.97h-4.275c-0.244 1.773 2.105 2.357 2.404 0.669 0.76-2e-3 1.289 0.227 1.871 0.401-0.326 1.927-2.305 3.396-4.41 2.405-4.063-1.914-1.055-11.891 3.207-8.153 1.014 0.89 1.272 2.693 1.203 4.678zm-4.275-1.603h2.404c0.244-2.182-2.654-2.206-2.404 0z"/>
			<path d="m229.07 237.76c0.564 1.663 1.074 3.38 1.471 5.211 0.707-1.563 1.088-3.454 1.604-5.211h2.004c-0.721 3.019-1.838 5.646-2.537 8.687h-1.873c-0.859-2.839-1.676-5.72-2.672-8.42 0.222-0.536 1.362-0.152 2.003-0.267z"/>
			<path d="m237.62 237.89v8.553h-2.004v-8.687c0.65 0.061 1.566-0.14 2.004 0.134z"/>
	</g>
	<g clip-rule="evenodd" fill="#004896" fill-rule="evenodd">
		<path d="m50.518 227.6h201.94v3.074c-66.801 0.622-134.76 0.089-202.07 0.267v-2.94c-0.013-0.191-0.023-0.38 0.133-0.401z"/>
		<path d="m51.319 251.66h201.94v3.073c-66.799 0.623-134.76 0.09-202.07 0.267v-2.94c-0.012-0.19-0.023-0.378 0.133-0.4z"/>
	</g>
	<path d="m120.41 103.18c12.851-0.611 23.592 4.438 24.992 15.771 0.453 3.66-0.055 7.531-1.069 11.896-2.5 10.757-5.093 21.796-7.619 33.01-0.843 3.747-1.58 7.569-2.67 10.824-3.521 10.501-15.2 16.439-29.27 16.439-7.236 0-13.135-1.662-17.374-5.48-3.753-3.382-7.193-8.788-6.949-15.771 0.068-1.928 0.888-4.003 1.336-6.146 2.572-12.284 5.227-24.783 7.885-37.02 0.456-2.101 0.708-4.312 1.336-6.015 1.879-5.085 6.57-9.727 10.959-12.429 5.139-3.164 10.619-4.705 18.443-5.079zm-9.354 26.462c-2.78 11.195-5.901 23.686-8.821 35.283-0.529 2.098-1.479 4.5-0.936 6.279 0.78 2.561 5.511 4.404 9.222 2.808 5.028-2.162 5.479-10.301 6.816-15.903 1.708-7.172 3.673-15.486 5.478-22.853 0.588-2.399 2.824-9.331 2.005-11.896-0.789-2.472-4.263-2.835-6.682-2.539-5.339 0.656-5.879 3.971-7.082 8.821z" clip-rule="evenodd" fill="#004896" fill-rule="evenodd"/>
	<path d="m31.139 240.7c-10.428 21.291-20.803 42.633-31.139 64.016 4.092-13.639 8.933-27.685 13.364-41.43-1.783 1.023-3.865 3.618-5.746 4.544 1.843-6.487 3.585-13.075 5.479-19.512-1.325 0.909-3.042 2.629-4.544 4.009-0.428 0.394-0.932 1.208-1.47 0.936 9.528-49.767 18.644-99.942 28.199-149.68 6.723-4e-3 13.276-0.179 19.913-0.269 2.167 15.964 4.305 31.957 6.281 48.112 2.735-15.663 5.117-31.68 7.618-47.577h19.378c-5.739 28.741-11.549 57.412-17.24 86.201-6.895 0.077-13.398-0.235-20.314-0.135-1.888-15.04-3.955-29.9-5.746-45.037-2.382 7.343-4.317 14.862-6.415 22.318-6.306 22.409-12.266 45.14-18.577 67.624 3.839-2.62 7.721-6.356 11.76-9.222-3.597 7.405-7.107 14.898-10.691 22.318-0.025 0.108-0.134 0.133-0.133 0.269 2.915-2.138 5.942-4.667 8.954-6.95 0.316-0.239 0.658-0.817 1.069-0.534z" clip-rule="evenodd" fill="#004896" fill-rule="evenodd"/>
	<path d="m252.32 88.756c-4e-3 -0.085 2e-3 -0.162 0.012-0.241 2e-3 -0.049 2e-3 -0.099 0-0.148-4e-3 -0.174-0.029-0.345-0.033-0.519 0-0.062 0.01-0.119 0.025-0.176v-0.041c0-0.018-2e-3 -0.032-2e-3 -0.05v-0.037h-2e-3v-12.565h8e-3c-0.016-0.399-4e-3 -0.801-4e-3 -1.202h-4e-3v-11.137c-0.029-0.072-0.045-0.155-0.047-0.249-0.01-1.749-0.195-3.485 0.043-5.226v-6.144c-0.055 0.1-0.107 0.203-0.162 0.304-0.684 1.238-1.449 2.455-2.076 3.719-0.428 0.862-0.826 1.756-1.545 2.393 0.016 0.012 0.029 0.023 0.045 0.037-2.123 4.572-4.104 9.286-6.078 14.006-0.021 0.069-0.053 0.137-0.088 0.198-0.012 0.025-0.02 0.051-0.031 0.075-0.014 0.047-0.031 0.093-0.057 0.137-0.141 0.259-0.256 0.594-0.441 0.851-1.51 3.723-3.207 7.257-4.676 11.021-0.018 0.091-0.053 0.18-0.1 0.252-6e-3 0.018-0.016 0.036-0.023 0.055-2e-3 -3e-3 -6e-3 -4e-3 -0.01-5e-3 -6e-3 0.011-0.014 0.02-0.02 0.029-0.01 0.019-0.018 0.037-0.027 0.055-0.014 0.047-0.031 0.093-0.061 0.136-2e-3 3e-3 -2e-3 5e-3 -4e-3 8e-3 -0.066 0.141-0.135 0.278-0.203 0.418-0.047 0.098-0.096 0.196-0.148 0.288-0.02 0.049-0.045 0.093-0.072 0.136 4e-3 1e-3 8e-3 4e-3 0.012 5e-3 -1.717 3.864-3.297 7.863-5.094 11.644-0.102 0.512-0.293 0.983-0.525 1.45 2e-3 1e-3 4e-3 2e-3 6e-3 4e-3 -12.84 29.347-25.557 59.528-38.355 88.473v-83.127h-23.789c-12.008 27.75-24.214 55.939-36.218 83.928-0.346 0.806-0.855 1.626-0.801 2.54h21.25c1.951-5.488 3.621-11.259 5.748-16.572 4.764 0.088 9.889-0.179 14.432 0.134v16.438h39.693c1.832-5.519 3.615-11.085 5.613-16.438h14.566v16.438h19.244v-87.537h4e-3c-4e-3 -0.046-4e-3 -0.093 0-0.139 0-5e-3 0-0.011 2e-3 -0.015-2e-3 -0.108-2e-3 -0.218-8e-3 -0.333-0.01-0.192-8e-3 -0.378 2e-3 -0.566-0.01-0.07-0.01-0.143 0-0.214v-12.491zm-78.049 68.683h-10.289c4.203-11.522 8.523-22.927 12.963-34.214-0.602 11.015-1.729 23.26-2.674 34.214zm59.873 0h-10.424c4.301-11.515 8.604-23.025 13.098-34.347-0.664 11.141-1.797 22.972-2.674 34.347z" fill="#004896"/>
</g>
</svg>
