<svg width="800" height="224.91" version="1.1" viewBox="0 0 211.67 59.508" xmlns="http://www.w3.org/2000/svg">
 <defs>
  <clipPath id="clipPath476-2">
   <path d="m0 0h612v792h-612z"/>
  </clipPath>
  <clipPath id="clipPath488-5">
   <path d="m81.069 542.63 4e-3 5e-3zm-5.098-5.518-8e-3 -0.013-6e-3 -8e-3 -1e-3 -0.011v-7e-3l1e-3 -0.034 6e-3 -0.021v-0.039l5.132 5.438-5e-3 0.018-0.012 0.037-0.01 0.052-9e-3 0.049-7e-3 0.013v0.018l0.011 0.016 6e-3 0.01c-2.393-2.442-2.7-3.076-5.098-5.518"/>
  </clipPath>
  <clipPath id="clipPath532-4">
   <path d="m80.64 535.9c1.192 0.478 2.228 0.825 4.01 1.819h-0.022l-0.015 3e-3 -0.012 1e-3 -0.014 0.013-8e-3 8e-3zm4.01 1.819h2e-3l9e-3 3e-3 0.01 9e-3zm-6.516-2.994 2.506 1.175c-0.715-0.289-1.485-0.624-2.506-1.175m-0.385-0.18 7e-3 -4e-3 6e-3 -4e-3h0.022l8e-3 1e-3 9e-3 3e-3 4e-3 4e-3c0.112 0.063 0.222 0.123 0.329 0.18z"/>
  </clipPath>
  <clipPath id="clipPath544-6">
   <path d="m0 0h612v792h-612z"/>
  </clipPath>
  <clipPath id="clipPath556-0">
   <path d="m77.657 534.58 0.012-0.01 0.024-9e-3 0.028-0.011 0.028-9e-3 6.83 3.199-0.037 0.026-0.052 0.025-0.037 0.022-0.016 9e-3z"/>
  </clipPath>
  <clipPath id="clipPath568-6">
   <path d="m0 0h612v792h-612z"/>
  </clipPath>
  <clipPath id="clipPath584-1">
   <path d="m0 0h612v792h-612z"/>
  </clipPath>
  <clipPath id="clipPath596-0">
   <path d="m83.229 538.78 0.011 7e-3zm-0.019-0.011-0.035-0.021-0.033-0.019-0.031-0.017c-0.516-0.345-0.959-0.626-1.357-0.869 0.43 0.258 0.908 0.56 1.475 0.937zm-5.281-3.12c1.531 0.952 2.383 1.316 3.825 2.194-1.409-0.847-2.266-1.217-3.825-2.194m-1.061-0.683 0.03 0.016 0.025 0.018 0.022 0.013 0.025 0.016c0.35 0.233 0.667 0.437 0.959 0.62-0.32-0.199-0.67-0.423-1.061-0.683"/>
  </clipPath>
  <clipPath id="clipPath608-9">
   <path d="m0 0h612v792h-612z"/>
  </clipPath>
  <clipPath id="clipPath620-9">
   <path d="m75.747 535.63v-4e-3l1e-3 -0.015v-0.013l2e-3 -0.017 3e-3 -0.026 2e-3 -0.026v-0.023l3e-3 -0.026 5.432 4.451-0.014 0.049-8e-3 0.044-9e-3 0.038-0.011 0.045-8e-3 0.031-2e-3 0.025-6e-3 0.017-1e-3 0.017z"/>
  </clipPath>
  <clipPath id="clipPath632-6">
   <path d="m0 0h612v792h-612z"/>
  </clipPath>
  <clipPath id="clipPath644-3">
   <path d="m76.121 534.99 0.038-0.022 0.037-0.016 0.035-0.014 0.04-0.011 5.907 3.878-0.065 0.03-0.062 0.04-0.062 0.042-0.066 0.038z"/>
  </clipPath>
  <clipPath id="clipPath656-8">
   <path d="m0 0h612v792h-612z"/>
  </clipPath>
  <clipPath id="clipPath668-2">
   <path d="m79.706 542.06 0.024 0.026zm-6e-3 -6e-3 6e-3 6e-3zm-2.585-3.068 2.509 2.943 0.025 0.049 0.033 0.043 0.018 0.033c-1.277-1.381-1.879-2.179-2.585-3.068m-1.873-2.195c0.846 0.924 1.384 1.582 1.873 2.195zm-0.189-0.206-0.02-0.02-0.02-0.027-0.018-0.028-0.02-0.032 0.267 0.313z"/>
  </clipPath>
  <clipPath id="clipPath688-8">
   <path d="m83.609 536.9 0.011 6e-3zm-0.035-0.013-0.065-0.01h-0.091l-0.117 7e-3 -4.208-1.906c1.448 0.592 2.459 0.806 4.516 1.922zm-5.8-2.506 1.319 0.597c-0.397-0.162-0.826-0.352-1.319-0.597m-0.994-0.45 0.077 7e-3 0.055 7e-3 0.045 0.01 0.032 0.016c0.28 0.153 0.54 0.289 0.785 0.41z"/>
  </clipPath>
  <clipPath id="clipPath700-8">
   <path d="m0 0h612v792h-612z"/>
  </clipPath>
  <clipPath id="clipPath720-3">
   <path d="m0 0h612v792h-612z"/>
  </clipPath>
  <clipPath id="clipPath732-4">
   <path d="m74.821 536.01 0.032-0.014 0.03-0.015 0.023-0.015 0.015-6e-3 4.752 5.088-0.024 0.018-0.043 0.033-0.053 0.041-0.064 0.032z"/>
  </clipPath>
  <clipPath id="clipPath744-9">
   <path d="m0 0h612v792h-612z"/>
  </clipPath>
  <clipPath id="clipPath756-8">
   <path d="m74.858 536.28-0.062-0.12-0.01-0.08 4e-3 -0.048 0.031-0.027 4.668 5.162-0.05 0.058-0.03 0.091 9e-3 0.133 0.071 0.186z"/>
  </clipPath>
  <clipPath id="clipPath816-0">
   <path d="m0 0h612v792h-612z"/>
  </clipPath>
  <clipPath id="clipPath828-5">
   <path d="m0 0h612v792h-612z"/>
  </clipPath>
  <clipPath id="clipPath840-8">
   <path d="m76.238 534.11 4e-3 -0.015 4e-3 -0.024v-0.034l2e-3 -0.032 8e-3 -0.03 0.044-0.026 0.087-0.018 0.148-5e-3 6.383 3.003c-0.097 5e-3 -0.177 0.021-0.235 0.037l-0.148 0.058-0.077 0.059-0.024 0.058-0.02 0.063-0.014 0.061-9e-3 0.048-7e-3 0.028z"/>
  </clipPath>
  <clipPath id="clipPath876-1">
   <path d="m0 0h612v792h-612z"/>
  </clipPath>
  <clipPath id="clipPath888-5">
   <path d="m79.892 539.51h1e-3zm-2.291-2.034 2.289 2.026v2e-3l2e-3 5e-3v1e-3c-1.059-0.936-1.695-1.502-2.291-2.034m-2.633-2.329c1.261 1.107 1.918 1.692 2.633 2.329zm-0.057-0.049v-1e-3l0.057 0.05c-0.019-0.016-0.037-0.033-0.057-0.049m-3e-3 -4e-3h3e-3v3e-3zm-2e-3 0v-3e-3l2e-3 3e-3z"/>
  </clipPath>
  <clipPath id="clipPath904-5">
   <path d="m0 0h612v792h-612z"/>
  </clipPath>
  <clipPath id="clipPath916-4">
   <path d="m80.951 538.22 3e-3 1e-3 5e-3 4e-3zm-0.019-0.011-0.023-0.012-0.03-0.019-0.162-0.117 0.234 0.159zm-2.704-1.837c0.678 0.432 1.375 0.879 2.489 1.689zm-2.82-1.911 0.014 6e-3 0.015 0.014 6e-3 2e-3 2.785 1.889c-0.77-0.489-1.516-0.958-2.82-1.911m-1e-3 0-8e-3 -6e-3 9e-3 6e-3zm-0.02-0.015 0.012 9e-3z"/>
  </clipPath>
  <clipPath id="clipPath928-4">
   <path d="m0 0h612v792h-612z"/>
  </clipPath>
  <clipPath id="clipPath940-9">
   <path d="m74.894 535.08-0.016-0.031 3e-3 -0.047 0.025-0.075 0.062-0.11 5.09 4.168-0.131 0.214-0.067 0.152-0.014 0.093 0.015 0.046c-2.35-2.069-2.617-2.337-4.967-4.41"/>
  </clipPath>
  <clipPath id="clipPath1000-9">
   <path d="m0 0h612v792h-612z"/>
  </clipPath>
  <clipPath id="clipPath1012-9">
   <path d="m0 0h612v792h-612z"/>
  </clipPath>
  <clipPath id="clipPath1024-8">
   <path d="m75.115 534.6 0.07-0.097 0.058-0.057 0.054-0.029 0.034-5e-3h0.012l2e-3 3e-3 0.011 2e-3h7e-3l5.483 3.72h-0.012l-0.012-3e-3h-0.012l-0.014 3e-3 -0.07 0.02-0.09 0.066-0.117 0.12-0.137 0.194z"/>
  </clipPath>
 </defs>
 <g transform="translate(-49.804 26.062)">
  <g transform="matrix(5.5107 0 0 -5.5107 -206.32 2964.4)">
   <path d="m84.358 540.18-6.428-4.166-0.024-0.012-0.026-8e-3 -0.021-9e-3 -9e-3 -7e-3 6.402 4.173 0.011 5e-3 0.024 9e-3 0.033 7e-3z" fill="#231f20"/>
   <g transform="translate(84.327 540.18)">
    <path d="m0 0-7e-3 -2e-3 -0.033-7e-3 -0.035-0.014-6.386-4.163 0.014 7e-3 0.026 8e-3 0.016 7e-3 8e-3 4e-3 2.528 1.639 3.898 2.527zm-6.462-4.186-4e-3 -2e-3h1e-3l4e-3 2e-3zm-6e-3 -3e-3 -9e-3 -7e-3 0.011 8e-3z" fill="#231f20"/>
   </g>
   <g transform="translate(84.252 540.15)">
    <path d="m0 0-6.402-4.173-0.681-0.299 6.171 4.172z" fill="#231f20"/>
   </g>
   <g clip-path="url(#clipPath476-2)">
    <g transform="translate(75.97 537.11)">
     <path d="m0 0c2.4 2.444 2.706 3.077 5.103 5.522l-0.01-0.014-0.011-0.016v-0.018l5e-3 -0.013 0.011-0.049 9e-3 -0.052 0.012-0.037 6e-3 -0.018-5.132-5.438v0.039l-6e-3 0.021-1e-3 0.034v7e-3l1e-3 0.01 6e-3 0.01 7e-3 0.012" fill="#231f20"/>
    </g>
   </g>
   <g clip-path="url(#clipPath488-5)">
    <g transform="translate(81.095 542.41)">
     <path d="m0 0-5.132-5.438v0.039l-6e-3 0.021-1e-3 0.035 5.101 5.5 0.011-0.05 9e-3 -0.051 0.012-0.038z" fill="#231f20"/>
    </g>
    <g transform="translate(81.058 542.57)">
     <path d="m0 0-5.102-5.5v4e-3l5.096 5.506v-6e-3h6e-3z" fill="#231f20"/>
    </g>
    <g transform="translate(81.052 542.58)">
     <path d="m0 0-5.096-5.505v5e-3l5.096 5.508v-6e-3z" fill="#231f20"/>
    </g>
    <g transform="translate(81.052 542.59)">
     <path d="m0 0-5.096-5.509v8e-3h2e-3l5.094 5.51v-5e-3z" fill="#231f20"/>
    </g>
    <g transform="translate(81.052 542.6)">
     <path d="m0 0-5.094-5.511v5e-3l5.1 5.511-6e-3 -1e-3v-1e-3z" fill="#231f20"/>
    </g>
    <g transform="translate(81.058 542.6)">
     <path d="m0 0-5.1-5.511h5e-3v5e-3l5.095 5.514v-4e-3z" fill="#231f20"/>
    </g>
    <g transform="translate(81.058 542.61)">
     <path d="m0 0-5.095-5.514 5.1 5.52h-5e-3v-3e-3z" fill="#231f20"/>
    </g>
    <g transform="translate(81.063 542.62)">
     <path d="m0 0-5.1-5.52v4e-3l4e-3 2e-3v4e-3l5.101 5.52v-4e-3l-3e-3 -2e-3z" fill="#231f20"/>
    </g>
    <g transform="translate(81.068 542.63)">
     <path d="m0 0-5.101-5.521h1e-3v3e-3h2e-3l5.103 5.522v-4e-3z" fill="#231f20"/>
    </g>
   </g>
   <g clip-path="url(#clipPath532-4)">
    <g transform="translate(84.671 537.73)">
     <path d="m0 0-6.866-3.186-4e-3 -4e-3 -8e-3 -3e-3 -9e-3 -1e-3h-0.022l-7e-3 4e-3 -6e-3 4e-3 6.83 3.199 8e-3 -8e-3 0.014-0.012 0.011-1e-3 0.016-3e-3h0.024l9e-3 3e-3z" fill="#141e01"/>
    </g>
   </g>
   <g clip-path="url(#clipPath544-6)">
    <g transform="translate(84.579 537.74)">
     <path d="m0 0-6.831-3.199-0.027 9e-3 -0.028 0.011-0.025 9e-3 -0.011 0.01 6.78 3.243 0.016-0.01 0.037-0.022 0.05-0.025z" fill="#231f20"/>
    </g>
   </g>
   <g clip-path="url(#clipPath556-0)">
    <g transform="translate(84.579 537.74)">
     <path d="m0 0-6.831-3.199-0.027 9e-3 -0.028 0.011-0.025 9e-3 -0.011 0.01 6.78 3.243 0.016-0.01 0.037-0.022 0.05-0.025z" fill="#231f20"/>
    </g>
   </g>
   <g clip-path="url(#clipPath568-6)">
    <g transform="translate(81.543 541.06)">
     <path d="m0 0-5.431-4.865-0.149 0.778 5.132 5.438z" fill="#231f20"/>
    </g>
    <g transform="translate(84.437 537.83)">
     <path d="m0 0-6.78-3.243-0.678 0.453 6.271 3.766z" fill="#231f20"/>
    </g>
   </g>
   <g clip-path="url(#clipPath584-1)">
    <g transform="translate(83.24 538.79)">
     <path d="m0 0c-2.784-1.854-3.483-1.903-6.27-3.759l-0.025-0.016-0.022-0.012-0.025-0.018-0.03-0.016c2.779 1.848 3.472 1.894 6.242 3.745l0.032 0.017 0.034 0.019 0.034 0.022 0.03 0.018" fill="#231f20"/>
    </g>
   </g>
   <g clip-path="url(#clipPath596-0)">
    <g transform="translate(83.24 538.79)">
     <path d="m0 0-6.27-3.759-0.025-0.016-0.022-0.012-0.025-0.018-0.03-0.016 6.242 3.745 0.032 0.017 0.034 0.019 0.034 0.022z" fill="#231f20"/>
    </g>
   </g>
   <g clip-path="url(#clipPath608-9)">
    <g transform="translate(81.19 539.93)">
     <path d="m0 0-5.432-4.452-4e-3 0.026v0.024l-1e-3 0.026-3e-3 0.026-3e-3 0.017v0.032l5.382 4.567 3e-3 -0.017 5e-3 -0.017 4e-3 -0.026 7e-3 -0.03 0.011-0.045 9e-3 -0.039 7e-3 -0.043z" fill="#231f20"/>
    </g>
   </g>
   <g clip-path="url(#clipPath620-9)">
    <g transform="translate(81.19 539.93)">
     <path d="m0 0-5.432-4.452-4e-3 0.026v0.024l-1e-3 0.026-3e-3 0.026-3e-3 0.017v0.032l5.382 4.567 3e-3 -0.017 5e-3 -0.017 4e-3 -0.026 7e-3 -0.03 0.011-0.045 9e-3 -0.039 7e-3 -0.043z" fill="#231f20"/>
    </g>
   </g>
   <g clip-path="url(#clipPath632-6)">
    <g transform="translate(82.178 538.81)">
     <path d="m0 0-5.907-3.877-0.04 0.01-0.035 0.015-0.037 0.016-0.038 0.021 5.802 3.965 0.066-0.038 0.062-0.042 0.062-0.04z" fill="#231f20"/>
    </g>
   </g>
   <g clip-path="url(#clipPath644-3)">
    <g transform="translate(82.178 538.81)">
     <path d="m0 0-5.907-3.877-0.04 0.01-0.035 0.015-0.037 0.016-0.038 0.021 5.802 3.965 0.066-0.038 0.062-0.042 0.062-0.04z" fill="#231f20"/>
    </g>
   </g>
   <g clip-path="url(#clipPath656-8)">
    <g transform="translate(75.052 536.59)">
     <path d="m0 0c2.254 2.436 2.423 3.066 4.677 5.501l-0.024-0.027-0.024-0.039-0.032-0.042-0.025-0.049-4.649-5.451 0.02 0.031 0.018 0.03 0.019 0.026 0.02 0.02" fill="#231f20"/>
    </g>
   </g>
   <g clip-path="url(#clipPath668-2)">
    <g transform="translate(79.624 541.93)">
     <path d="m0 0-4.649-5.452 3e-3 0.011 0.01 0.01 7e-3 8e-3 4e-3 0.01 4.658 5.472-0.01-0.015-4e-3 -0.011-7e-3 -0.015z" fill="#231f20"/>
    </g>
    <g transform="translate(79.657 541.99)">
     <path d="m0 0-4.658-5.472 0.01 0.016 0.012 0.017 0.012 0.016 0.014 0.012 4.676 5.499-0.018-0.017-0.019-0.023-0.012-0.025z" fill="#231f20"/>
    </g>
    <g transform="translate(79.723 542.08)">
     <path d="m0 0-4.676-5.499 4e-3 1e-3v5e-3l1e-3 2e-3 4.677 5.501v-5e-3l-4e-3 -5e-3z" fill="#231f20"/>
    </g>
   </g>
   <g clip-path="url(#clipPath688-8)">
    <g transform="translate(83.62 536.91)">
     <path d="m0 0-6.631-2.933-0.032-0.017-0.045-0.011-0.055-6e-3 -0.077-8e-3 6.522 2.954 0.116-8e-3h0.092l0.065 0.01z" fill="#141e01"/>
    </g>
   </g>
   <g clip-path="url(#clipPath700-8)">
    <g transform="translate(79.489 541.64)">
     <path d="m0 0-4.631-5.354 0.117 0.195 4.649 5.452z" fill="#231f20"/>
    </g>
    <g transform="translate(83.302 536.89)">
     <path d="m0 0-6.522-2.954-0.245-8e-3 6.383 3.003z" fill="#231f20"/>
    </g>
    <g transform="translate(81.13 540.19)">
     <path d="m0 0-5.383-4.567-0.827 0.332 4.754 5.087z" fill="#231f20"/>
    </g>
   </g>
   <g clip-path="url(#clipPath720-3)">
    <g transform="translate(79.673 541.05)">
     <path d="m0 0-4.754-5.087-0.013 6e-3 -0.024 0.015-0.029 0.014-0.033 0.016 4.669 5.161 0.063-0.033 0.054-0.041 0.043-0.033z" fill="#231f20"/>
    </g>
   </g>
   <g clip-path="url(#clipPath732-4)">
    <g transform="translate(79.673 541.05)">
     <path d="m0 0-4.754-5.087-0.013 6e-3 -0.024 0.015-0.029 0.014-0.033 0.016 4.669 5.161 0.063-0.033 0.054-0.041 0.043-0.033z" fill="#231f20"/>
    </g>
   </g>
   <g clip-path="url(#clipPath744-9)">
    <g transform="translate(79.489 541.17)">
     <path d="m0 0-4.669-5.161-0.03 0.026-6e-3 0.048 0.013 0.08 0.061 0.12 4.631 5.354-0.071-0.186-0.01-0.132 0.032-0.09z" fill="#231f20"/>
    </g>
   </g>
   <g clip-path="url(#clipPath756-8)">
    <g transform="translate(79.489 541.17)">
     <path d="m0 0-4.669-5.161h-5e-3v3e-3l4.669 5.16 2e-3 -2e-3z" fill="#231f20"/>
    </g>
    <g transform="translate(79.484 541.17)">
     <path d="m0 0-4.669-5.16-3e-3 2e-3 -6e-3 2e-3 -5e-3 0.01 4.657 5.172 9e-3 -5e-3 8e-3 -5e-3 3e-3 -7e-3z" fill="#231f20"/>
    </g>
    <g transform="translate(79.458 541.2)">
     <path d="m0 0-4.656-5.172h-5e-3l-3e-3 3e-3v6e-3l4.646 5.187 7e-3 -3e-3 3e-3 -9e-3 5e-3 -6e-3z" fill="#231f20"/>
    </g>
    <g transform="translate(79.44 541.22)">
     <path d="m0 0-4.646-5.187h-4e-3v8e-3l4.641 5.197 2e-3 -4e-3 3e-3 -2e-3 4e-3 -6e-3v-4e-3" fill="#231f20"/>
    </g>
    <g transform="translate(79.431 541.24)">
     <path d="m0 0-4.641-5.197v4e-3l-2e-3 3e-3 -2e-3 4e-3 4.64 5.207v-8e-3l2e-3 -5e-3z" fill="#231f20"/>
    </g>
    <g transform="translate(79.426 541.26)">
     <path d="m0 0-4.64-5.208v5e-3h-1e-3v5e-3l4.631 5.216 2e-3 -3e-3v-7e-3l2e-3 -4e-3z" fill="#231f20"/>
    </g>
    <g transform="translate(79.415 541.28)">
     <path d="m0 0-4.631-5.216v0.012l4.626 5.227v-2e-3l2e-3 -6e-3 3e-3 -8e-3z" fill="#231f20"/>
    </g>
    <g transform="translate(79.41 541.3)">
     <path d="m0 0-4.626-5.228v0.016l4.622 5.241v-9e-3l2e-3 -4e-3v-8e-3l2e-3 -5e-3" fill="#231f20"/>
    </g>
    <g transform="translate(79.406 541.33)">
     <path d="m0 0-4.622-5.241v0.01l1e-3 7e-3v6e-3l4.621 5.249v-0.03" fill="#231f20"/>
    </g>
    <g transform="translate(79.406 541.36)">
     <path d="m0 0-4.621-5.25 3e-3 5e-3v7e-3l2e-3 5e-3v8e-3l4.62 5.267-2e-3 -8e-3 -2e-3 -0.012v-8e-3z" fill="#231f20"/>
    </g>
    <g transform="translate(79.41 541.41)">
     <path d="m0 0-4.621-5.268 4e-3 0.01v0.011l3e-3 9e-3 7e-3 0.01 4.622 5.288-8e-3 -0.016v-0.011l-5e-3 -0.02z" fill="#231f20"/>
    </g>
    <g transform="translate(79.426 541.47)">
     <path d="m0 0-4.622-5.288 8e-3 0.01 3e-3 0.017 9e-3 0.013 8e-3 0.016 4.623 5.327-0.01-0.029-5e-3 -0.022-9e-3 -0.022z" fill="#231f20"/>
    </g>
    <g transform="translate(79.454 541.56)">
     <path d="m0 0-4.623-5.327 6e-3 9e-3 0.01 0.012 5e-3 0.013 6e-3 0.011 4.631 5.357-0.012-0.024-4e-3 -0.017-0.01-0.019z" fill="#231f20"/>
    </g>
   </g>
   <g clip-path="url(#clipPath816-0)">
    <g transform="translate(82.384 537.34)">
     <path d="m0 0-6.145-3.232 0.032 0.82 5.907 3.877z" fill="#231f20"/>
    </g>
   </g>
   <g clip-path="url(#clipPath828-5)">
    <g transform="translate(82.918 536.93)">
     <path d="m0 0-6.383-3.003-0.147 5e-3 -0.088 0.017-0.044 0.028-8e-3 0.029-2e-3 0.032v0.034l-4e-3 0.024-3e-3 0.014 6.145 3.232 8e-3 -0.029 8e-3 -0.047 0.015-0.061 0.019-0.063 0.024-0.058 0.078-0.059 0.147-0.058c0.058-0.016 0.138-0.033 0.235-0.037" fill="#231f20"/>
    </g>
   </g>
   <g clip-path="url(#clipPath840-8)">
    <g transform="translate(82.918 536.93)">
     <path d="m0 0-6.383-3.003h-0.097l-0.075 8e-3 -0.05 8e-3 -0.039 0.015 6.217 3.094 0.063-0.034 0.085-0.04 0.118-0.028z" fill="#231f20"/>
    </g>
    <g transform="translate(82.49 537.05)">
     <path d="m0 0-6.216-3.094-4e-3 5e-3 -2e-3 3e-3 -5e-3 3e-3 -3e-3 3e-3 6.207 3.105 3e-3 -4e-3 5e-3 -8e-3 9e-3 -5e-3z" fill="#231f20"/>
    </g>
    <g transform="translate(82.468 537.08)">
     <path d="m0 0-6.207-3.105-5e-3 3e-3v3e-3l-1e-3 4e-3 6.193 3.117 5e-3 -5e-3 2e-3 -5e-3 7e-3 -7e-3 3e-3 -5e-3" fill="#231f20"/>
    </g>
    <g transform="translate(82.448 537.1)">
     <path d="m0 0-6.192-3.117v2e-3l-6e-3 4e-3v3e-3l6.192 3.12v-0.012z" fill="#231f20"/>
    </g>
    <g transform="translate(82.442 537.11)">
     <path d="m0 0-6.194-3.121v4e-3l6.187 3.129 2e-3 -3e-3 3e-3 -6e-3z" fill="#231f20"/>
    </g>
    <g transform="translate(82.435 537.12)">
     <path d="m0 0-6.187-3.125 6.185 3.138v-5e-3l2e-3 -6e-3z" fill="#231f20"/>
    </g>
    <g transform="translate(82.433 537.13)">
     <path d="m0 0-6.186-3.138v7e-3l-1e-3 0.032v0.034l-5e-3 0.024-3e-3 0.015 6.146 3.232 7e-3 -0.029 8e-3 -0.048 0.015-0.061 0.019-0.063v-4e-3z" fill="#231f20"/>
    </g>
   </g>
   <g clip-path="url(#clipPath876-1)">
    <g transform="translate(74.912 535.1)">
     <path d="m0 0c2.36 2.072 2.629 2.337 4.981 4.413h-1e-3v-2e-3l-2e-3 -5e-3v-2e-3l-4.984-4.409v1e-3h6e-3z" fill="#231f20"/>
    </g>
   </g>
   <g clip-path="url(#clipPath888-5)">
    <g transform="translate(79.89 539.5)">
     <path d="m0 0-4.984-4.409v1e-3h4e-3l2e-3 4e-3 4.981 4.412h-2e-3v-2e-3l-1e-3 -4e-3z" fill="#231f20"/>
    </g>
    <g transform="translate(79.893 539.51)">
     <path d="m0 0-4.981-4.413z" fill="#231f20"/>
    </g>
   </g>
   <g clip-path="url(#clipPath904-5)">
    <g transform="translate(75.386 534.44)">
     <path d="m0 0c2.525 1.846 2.965 1.885 5.491 3.733l0.031 0.018 0.046 0.024 4e-3 4e-3 -5.515-3.742-7e-3 -2e-3 -0.014-0.014-0.016-6e-3 -0.02-0.015" fill="#231f20"/>
    </g>
   </g>
   <g clip-path="url(#clipPath916-4)">
    <g transform="translate(80.959 538.22)">
     <path d="m0 0-5.515-3.742-7e-3 -2e-3 -0.015-0.014-0.015-6e-3 -0.02-0.015 5.491 3.733 0.031 0.018 0.023 0.012 0.023 0.013z" fill="#231f20"/>
    </g>
   </g>
   <g clip-path="url(#clipPath928-4)">
    <g transform="translate(74.893 535.08)">
     <path d="m0 0c2.351 2.074 2.617 2.341 4.969 4.41l-0.016-0.046 0.013-0.093 0.068-0.152 0.13-0.214-5.089-4.168-0.062 0.111-0.025 0.075-3e-3 0.046 0.015 0.031" fill="#231f20"/>
    </g>
   </g>
   <g clip-path="url(#clipPath940-9)">
    <g transform="translate(80.057 538.99)">
     <path d="m0 0-5.089-4.168-3e-3 4e-3 -2e-3 6e-3 -6e-3 3e-3 5.081 4.186 7e-3 -9e-3 2e-3 -8e-3 4e-3 -8e-3z" fill="#231f20"/>
    </g>
    <g transform="translate(80.038 539.02)">
     <path d="m0 0-5.081-4.186-0.018 0.038-0.02 0.027-0.013 0.031-0.01 0.019 5.007 4.298 0.028-0.045 0.032-0.053 0.031-0.067z" fill="#231f20"/>
    </g>
    <g transform="translate(79.904 539.24)">
     <path d="m0 0-5.007-4.298-3e-3 0.015v7e-3l-6e-3 0.012-5e-3 8e-3 4.986 4.339 0.01-0.017 7e-3 -0.023 8e-3 -0.019z" fill="#231f20"/>
    </g>
    <g transform="translate(79.869 539.33)">
     <path d="m0 0-4.986-4.336v0.01l-2e-3 3e-3 -3e-3 8e-3v3e-3l4.975 4.359 4e-3 -0.013 3e-3 -8e-3 2e-3 -0.016z" fill="#231f20"/>
    </g>
    <g transform="translate(79.853 539.37)">
     <path d="m0 0-4.975-4.358-1e-3 1e-3v0.015l4.971 4.368v-2e-3l2e-3 -8e-3 3e-3 -9e-3z" fill="#231f20"/>
    </g>
    <g transform="translate(79.848 539.4)">
     <path d="m0 0-4.971-4.368v0.012l4.969 4.378v-5e-3h2e-3v-0.014" fill="#231f20"/>
    </g>
    <g transform="translate(79.846 539.42)">
     <path d="m0 0-4.969-4.378v3e-3h1e-3l4.968 4.39v-8e-3z" fill="#231f20"/>
    </g>
    <g transform="translate(79.846 539.44)">
     <path d="m0 0-4.968-4.387v6e-3l4.968 4.395v-7e-3z" fill="#231f20"/>
    </g>
    <g transform="translate(79.846 539.45)">
     <path d="m0 0-4.968-4.395 3e-3 3e-3v7e-3l4.967 4.399v-0.011z" fill="#231f20"/>
    </g>
    <g transform="translate(79.848 539.46)">
     <path d="m0 0-4.967-4.399h2e-3v1e-3l4.965 4.402v-3e-3z" fill="#231f20"/>
    </g>
    <g transform="translate(79.848 539.47)">
     <path d="m0 0-4.965-4.403v5e-3l4e-3 2e-3v3e-3l4.966 4.399-3e-3 -2e-3z" fill="#231f20"/>
    </g>
    <g transform="translate(79.853 539.47)">
     <path d="m0 0-4.965-4.398h2e-3v4e-3h3e-3l4.961 4.4-1e-3 -2e-3v-2e-3z" fill="#231f20"/>
    </g>
    <g transform="translate(79.854 539.48)">
     <path d="m0 0-4.96-4.4 4.968 4.41-2e-3 -4e-3 -3e-3 -2e-3" fill="#231f20"/>
    </g>
   </g>
   <g clip-path="url(#clipPath1000-9)">
    <g transform="translate(80.382 538.54)">
     <path d="m0 0-5.267-3.938-0.147 0.216 5.09 4.168z" fill="#231f20"/>
    </g>
   </g>
   <g clip-path="url(#clipPath1012-9)">
    <g transform="translate(80.846 538.14)">
     <path d="m0 0-5.483-3.719h-7e-3l-0.011-2e-3 -2e-3 -4e-3h-0.012l-0.034 6e-3 -0.054 0.028-0.058 0.057-0.07 0.097 5.267 3.937 0.137-0.194 0.117-0.119 0.091-0.066 0.069-0.021 0.014-2e-3h0.012l0.012 2e-3z" fill="#231f20"/>
    </g>
   </g>
   <g clip-path="url(#clipPath1024-8)">
    <g transform="translate(80.846 538.14)">
     <path d="m0 0-5.483-3.719h-7e-3l-0.011-2e-3 -2e-3 -4e-3h-0.026l-0.018 6e-3 -0.025 0.01-0.017 0.011 5.401 3.767 0.041-0.032 0.035-0.016 0.03-0.015 0.032-6e-3 0.014-2e-3h0.012l0.012 2e-3h8e-3" fill="#231f20"/>
    </g>
    <g transform="translate(80.658 538.21)">
     <path d="m0 0-5.401-3.767-0.016 7e-3 -0.013 0.013-0.015 0.016-0.012 7e-3 5.348 3.825 0.031-0.026 0.025-0.029 0.027-0.024z" fill="#231f20"/>
    </g>
    <g transform="translate(80.549 538.31)">
     <path d="m0 0-5.348-3.825-0.016 0.031-0.022 0.015-0.025 0.035-0.023 0.037 5.267 3.937 0.047-0.07 0.039-0.056 0.045-0.06z" fill="#231f20"/>
    </g>
   </g>
   <g transform="translate(81.806 542.51)">
    <path d="m0 0 0.198-0.071 0.126-0.072 0.068-0.063 0.025-0.051 9e-3 -0.047 0.015-0.05 0.01-0.038 4e-3 -0.017 0.18-1.212 0.064-0.038 0.059-0.035 0.054-0.034 0.06-0.04 0.77 0.536 8e-3 4e-3 0.026 0.011 0.034 0.011 0.031 0.017 4e-3 4e-3h0.013l7e-3 -4e-3 0.048-0.022 0.068-0.06 0.094-0.104 0.126-0.167 0.256-0.347 0.133-0.2 0.061-0.128 0.01-0.072-0.01-0.04-0.037-7e-3 -0.034-8e-3 -0.024-9e-3 -0.011-5e-3 -0.911-0.3 0.022-0.047 0.018-0.05 0.013-0.046 0.015-0.047 5e-3 -0.016v-0.014l7e-3 -0.02 7e-3 -0.015 1.228-0.735 0.016-0.013 0.039-0.034 0.051-0.032 0.035-0.023 0.048-0.056 0.035-0.083 8e-3 -0.123-0.027-0.184-0.061-0.317-0.04-0.141-0.041-0.084-0.047-0.043-0.043-0.012-0.016 4e-3h-0.012l-0.011 0.013-0.01 8e-3 -0.039 0.026-0.05 0.025-0.037 0.022-0.016 0.01-1.187 0.976-0.033-0.025-0.043-0.028-0.039-0.019-0.039-0.031 0.52-1.51 3e-3 -0.018 0.015-0.049 0.011-0.056 0.015-0.06v-0.051l-0.041-0.048-0.115-0.029c-0.048 0-0.113 0-0.203 8e-3l-0.384 0.04c-0.097 5e-3 -0.177 0.021-0.235 0.038l-0.147 0.057-0.078 0.06-0.024 0.058-0.019 0.062-0.015 0.061-8e-3 0.048-7e-3 0.025-0.206 1.469-0.065 0.03-0.062 0.04-0.062 0.042-0.066 0.038-0.965-0.736-0.01-6e-3 -0.032-0.015-0.039-0.025-0.032-0.035h-0.011l-0.012-2e-3h-0.012l-0.015 2e-3 -0.069 0.021-0.09 0.066-0.117 0.119-0.138 0.194-0.324 0.447c-0.063 0.097-0.113 0.178-0.145 0.244l-0.063 0.159v0.084l0.041 0.028 0.034 0.029 0.039 0.022 0.031 0.011 0.017 9e-3 1.179 0.356-0.015 0.048-7e-3 0.044-9e-3 0.039-0.011 0.044-8e-3 0.031-3e-3 0.026-5e-3 0.017-3e-3 0.017-1.456 0.852-0.024 0.018-0.043 0.033-0.054 0.041-0.063 0.033-0.05 0.058-0.031 0.091 9e-3 0.132 0.072 0.186 0.135 0.293 0.075 0.125 0.075 0.073 0.068 0.03h0.064l0.018-9e-3 7e-3 -9e-3 9e-3 -6e-3 0.059-0.037 0.052-0.037 0.044-0.036 0.02-0.012 1.252-1.031 0.044 0.021 0.048 0.018 0.043 0.02 0.041 0.023-0.448 1.351-6e-3 0.018-0.012 0.037-9e-3 0.052-0.011 0.05 6e-3 0.046 0.044 0.035 0.122 4e-3c0.053-4e-3 0.119-0.02 0.211-0.042z" fill="#a1d61e"/>
   </g>
   <g transform="translate(56.642 540.28)">
    <path d="m0 0 0.113-2.748-0.245-3.009-0.19 2.051z" fill="#540021"/>
   </g>
   <g transform="translate(56.642 540.28)">
    <path d="m0 0 0.113-2.748-0.245-3.009-0.19 2.051z" fill="none" stroke="#231f20" stroke-linecap="round" stroke-linejoin="round" stroke-width=".757"/>
   </g>
   <g transform="translate(55.021 539.26)">
    <path d="m0 0 0.467-2.618-3.827 0.27-1.657 2.894z" fill="#240000"/>
   </g>
   <g transform="translate(55.021 539.26)">
    <path d="m0 0 0.467-2.618-3.827 0.27-1.657 2.894z" fill="none" stroke="#231f20" stroke-linecap="round" stroke-linejoin="round" stroke-width=".757"/>
   </g>
   <g transform="translate(50.004 539.8)">
    <path d="m0 0 1.657-2.894-0.167-1.076-1.744 2.624z" fill="#540022"/>
   </g>
   <g transform="translate(50.004 539.8)">
    <path d="m0 0 1.657-2.894-0.167-1.076-1.744 2.624z" fill="none" stroke="#231f20" stroke-linecap="round" stroke-linejoin="round" stroke-width=".757"/>
   </g>
   <g transform="translate(56.32 536.57)">
    <path d="m0 0 0.19-2.051-5.196 0.2-1.837 2.335z" fill="#240000"/>
   </g>
   <g transform="translate(56.32 536.57)">
    <path d="m0 0 0.19-2.051-5.196 0.2-1.837 2.335z" fill="none" stroke="#231f20" stroke-linecap="round" stroke-linejoin="round" stroke-width=".757"/>
   </g>
   <g transform="translate(49.476 537.06)">
    <path d="m0 0 1.837-2.334-0.365-2.341-2.041 1.673z" fill="#540022"/>
   </g>
   <g transform="translate(49.476 537.06)">
    <path d="m0 0 1.837-2.334-0.365-2.341-2.041 1.673z" fill="none" stroke="#231f20" stroke-linecap="round" stroke-linejoin="round" stroke-width=".757"/>
   </g>
   <g transform="translate(48.907 534.05)">
    <path d="m0 0 2.041-1.674-1.488 0.011-2.604 1.719z" fill="#240000"/>
   </g>
   <g transform="translate(48.907 534.05)">
    <path d="m0 0 2.041-1.674-1.488 0.011-2.604 1.719z" fill="none" stroke="#231f20" stroke-linecap="round" stroke-linejoin="round" stroke-width=".757"/>
   </g>
   <g transform="translate(54.877 538)">
    <path d="m0 0 0.144 1.259-5.017 0.546-0.254-1.346 5.127-0.459m-6.423 3.323 8.188-1.043-0.322-3.706-6.843 0.484-0.569-3.001-2.052 0.056z" fill="#ec008c"/>
   </g>
   <g transform="translate(54.877 538)">
    <path d="m0 0 0.144 1.259-5.017 0.546-0.254-1.346 5.127-0.459m-6.423 3.323 8.188-1.043-0.322-3.706-6.843 0.484-0.569-3.001-2.052 0.056z" fill="none" stroke="#231f20" stroke-linecap="round" stroke-linejoin="round" stroke-width=".757"/>
   </g>
   <g transform="translate(80.305 533.16)">
    <path d="m0 0-3.637-0.926-0.595 3e-3 3.576 0.942z" fill="#0f1700"/>
   </g>
   <g transform="translate(80.305 533.16)">
    <path d="m0 0-3.637-0.926-0.595 3e-3 3.576 0.942z" fill="none" stroke="#231f20" stroke-linecap="round" stroke-linejoin="round" stroke-width=".757"/>
   </g>
   <g transform="translate(79.649 533.18)">
    <path d="m0 0-3.576-0.942-0.302 1.531 3.431 1.197z" fill="#0f1700"/>
   </g>
   <g transform="translate(79.649 533.18)">
    <path d="m0 0-3.576-0.942-0.302 1.531 3.431 1.197z" fill="none" stroke="#231f20" stroke-linecap="round" stroke-linejoin="round" stroke-width=".757"/>
   </g>
   <g transform="translate(77.274 535.98)">
    <path d="m0 0-3.2-1.387 1.65 1.58 3.25 1.549z" fill="#618f18"/>
   </g>
   <g transform="translate(77.274 535.98)">
    <path d="m0 0-3.2-1.387 1.65 1.58 3.25 1.549z" fill="none" stroke="#231f20" stroke-linecap="round" stroke-linejoin="round" stroke-width=".757"/>
   </g>
   <g transform="translate(79.202 534.97)">
    <path d="m0 0-3.431-1.197-1.866 0.072 3.239 1.271z" fill="#0f1700"/>
   </g>
   <g transform="translate(79.202 534.97)">
    <path d="m0 0-3.431-1.197-1.866 0.072 3.239 1.271z" fill="none" stroke="#231f20" stroke-linecap="round" stroke-linejoin="round" stroke-width=".757"/>
   </g>
   <g transform="translate(77.561 533.24)">
    <path d="m0 0-3.383-0.989-0.666 6e-3 3.303 1.006z" fill="#0f1700"/>
   </g>
   <g transform="translate(77.561 533.24)">
    <path d="m0 0-3.383-0.989-0.666 6e-3 3.303 1.006z" fill="none" stroke="#231f20" stroke-linecap="round" stroke-linejoin="round" stroke-width=".757"/>
   </g>
   <g transform="translate(76.815 533.26)">
    <path d="m0 0-3.303-1.007-0.631 3.898 2.966 1.677z" fill="#0f1700"/>
   </g>
   <g transform="translate(76.815 533.26)">
    <path d="m0 0-3.303-1.007-0.631 3.898 2.966 1.677z" fill="none" stroke="#231f20" stroke-linecap="round" stroke-linejoin="round" stroke-width=".757"/>
   </g>
   <g transform="translate(78.974 537.72)">
    <path d="m0 0 0.209-0.796-1.014-1.033 1.455-0.125 0.681-2.607-0.656 0.019-0.446 1.785-2.058 0.147 0.416-1.874-0.746 0.023-0.968 4.568 0.711-0.091 0.387-1.728 0.329-0.03z" fill="#8cd024"/>
   </g>
   <g transform="translate(78.974 537.72)">
    <path d="m0 0 0.209-0.796-1.014-1.033 1.455-0.125 0.681-2.607-0.656 0.019-0.446 1.785-2.058 0.147 0.416-1.874-0.746 0.023-0.968 4.568 0.711-0.091 0.387-1.728 0.329-0.03z" fill="none" stroke="#231f20" stroke-linecap="round" stroke-linejoin="round" stroke-width=".757"/>
   </g>
   <g transform="translate(74.696 536.21)">
    <path d="m0 0-2.926-1.49-0.108 0.781 2.864 1.628z" fill="#0f1700"/>
   </g>
   <g transform="translate(74.696 536.21)">
    <path d="m0 0-2.926-1.49-0.108 0.781 2.864 1.628z" fill="none" stroke="#231f20" stroke-linecap="round" stroke-linejoin="round" stroke-width=".757"/>
   </g>
   <g transform="translate(74.526 537.13)">
    <path d="m0 0-2.863-1.628-2.922 0.207 2.449 1.783z" fill="#0f1700"/>
   </g>
   <g transform="translate(74.526 537.13)">
    <path d="m0 0-2.863-1.628-2.922 0.207 2.449 1.783z" fill="none" stroke="#231f20" stroke-linecap="round" stroke-linejoin="round" stroke-width=".757"/>
   </g>
   <g transform="translate(71.19 537.49)">
    <path d="m0 0-2.449-1.783-0.078 0.803 2.396 1.93z" fill="#0f1700"/>
   </g>
   <g transform="translate(71.19 537.49)">
    <path d="m0 0-2.449-1.783-0.078 0.803 2.396 1.93z" fill="none" stroke="#231f20" stroke-linecap="round" stroke-linejoin="round" stroke-width=".757"/>
   </g>
   <g transform="translate(75.655 535.22)">
    <path d="m0 0-3.079-1.324-2.889 0.108 2.678 1.443z" fill="#0f1700"/>
   </g>
   <g transform="translate(75.655 535.22)">
    <path d="m0 0-3.079-1.324-2.889 0.108 2.678 1.443z" fill="none" stroke="#231f20" stroke-linecap="round" stroke-linejoin="round" stroke-width=".757"/>
   </g>
   <g transform="translate(71.762 533.4)">
    <path d="m0 0-2.679-1.122-0.258 2.597 2.503 1.637z" fill="#0f1700"/>
   </g>
   <g transform="translate(71.762 533.4)">
    <path d="m0 0-2.679-1.122-0.258 2.597 2.503 1.637z" fill="none" stroke="#231f20" stroke-linecap="round" stroke-linejoin="round" stroke-width=".757"/>
   </g>
   <g transform="translate(76.047 533.29)">
    <path d="m0 0-3.224-1.024-3.74 0.021 2.679 1.123z" fill="#0f1700"/>
   </g>
   <g transform="translate(76.047 533.29)">
    <path d="m0 0-3.224-1.024-3.74 0.021 2.679 1.123z" fill="none" stroke="#231f20" stroke-linecap="round" stroke-linejoin="round" stroke-width=".757"/>
   </g>
   <g transform="translate(75.113 537.92)">
    <path d="m0 0 0.542-2.704-3.29 0.228 0.153-1.018 3.329-0.163 0.2-0.981-4.285 0.119-0.434 3.112 3.368-0.306-0.17 0.919-3.336 0.362-0.131 0.95z" fill="#8cd024"/>
   </g>
   <g transform="translate(75.113 537.92)">
    <path d="m0 0 0.542-2.704-3.29 0.228 0.153-1.018 3.329-0.163 0.2-0.981-4.285 0.119-0.434 3.112 3.368-0.306-0.17 0.919-3.336 0.362-0.131 0.95z" fill="none" stroke="#231f20" stroke-linecap="round" stroke-linejoin="round" stroke-width=".757"/>
   </g>
   <g transform="translate(69.454 536.68)">
    <path d="m0 0-2.237-1.714-0.064 0.853 2.186 1.873z" fill="#240000"/>
   </g>
   <g transform="translate(69.454 536.68)">
    <path d="m0 0-2.237-1.714-0.064 0.853 2.186 1.873z" fill="none" stroke="#231f20" stroke-linecap="round" stroke-linejoin="round" stroke-width=".757"/>
   </g>
   <g transform="translate(69.34 537.69)">
    <path d="m0 0-2.187-1.872-2.573 0.177 1.72 2.026z" fill="#240000"/>
   </g>
   <g transform="translate(69.34 537.69)">
    <path d="m0 0-2.187-1.872-2.573 0.177 1.72 2.026z" fill="none" stroke="#231f20" stroke-linecap="round" stroke-linejoin="round" stroke-width=".757"/>
   </g>
   <g transform="translate(70.535 535.58)">
    <path d="m0 0-2.428-1.506-3.461 0.134 1.791 1.661z" fill="#240000"/>
   </g>
   <g transform="translate(70.535 535.58)">
    <path d="m0 0-2.428-1.506-3.461 0.134 1.791 1.661z" fill="none" stroke="#231f20" stroke-linecap="round" stroke-linejoin="round" stroke-width=".757"/>
   </g>
   <g transform="translate(69.454 536.68)">
    <path d="m0 0-0.115 1.012-3.039 0.33 0.068-1.06 3.086-0.282m-4.302 2.511 5.009-0.639 0.374-2.979-4.098 0.288 0.151-2.313-1.161 0.034z" fill="#ec008c"/>
   </g>
   <g transform="translate(69.454 536.68)">
    <path d="m0 0-0.115 1.012-3.039 0.33 0.068-1.06 3.086-0.282m-4.302 2.511 5.009-0.639 0.374-2.979-4.098 0.288 0.151-2.313-1.161 0.034z" fill="none" stroke="#231f20" stroke-linecap="round" stroke-linejoin="round" stroke-width=".757"/>
   </g>
   <g transform="translate(66.588 533.55)">
    <path d="m0 0-1.867-1.246-0.962 2e-3 1.668 1.278z" fill="#240000"/>
   </g>
   <g transform="translate(66.588 533.55)">
    <path d="m0 0-1.867-1.246-0.962 2e-3 1.668 1.278z" fill="none" stroke="#231f20" stroke-linecap="round" stroke-linejoin="round" stroke-width=".757"/>
   </g>
   <g transform="translate(65.427 533.59)">
    <path d="m0 0-1.668-1.278-0.115 4.633 1.509 2.253z" fill="#240000"/>
   </g>
   <g transform="translate(65.427 533.59)">
    <path d="m0 0-1.668-1.278-0.115 4.633 1.509 2.253z" fill="none" stroke="#231f20" stroke-linecap="round" stroke-linejoin="round" stroke-width=".757"/>
   </g>
   <g transform="translate(62.924 534.91)">
    <path d="m0 0-1.186-1.576 0.017 2.868 1.124 2.198z" fill="#240000"/>
   </g>
   <g transform="translate(62.924 534.91)">
    <path d="m0 0-1.186-1.576 0.017 2.868 1.124 2.198z" fill="none" stroke="#231f20" stroke-linecap="round" stroke-linejoin="round" stroke-width=".757"/>
   </g>
   <g transform="translate(62.879 538.4)">
    <path d="m0 0-1.124-2.199-3.122 0.219 0.376 2.401z" fill="#240000"/>
   </g>
   <g transform="translate(62.879 538.4)">
    <path d="m0 0-1.124-2.199-3.122 0.219 0.376 2.401z" fill="none" stroke="#231f20" stroke-linecap="round" stroke-linejoin="round" stroke-width=".757"/>
   </g>
   <g transform="translate(62.924 534.91)">
    <path d="m0 0-0.045 3.49-3.87 0.421-0.173-3.709 4.088-0.202m-5.231 5.236 6.336-0.808 0.178-5.716-6.956 0.197z" fill="#ec008c"/>
   </g>
   <g transform="translate(62.924 534.91)">
    <path d="m0 0-0.045 3.49-3.87 0.421-0.173-3.709 4.088-0.202m-5.231 5.236 6.336-0.808 0.178-5.716-6.956 0.197z" fill="none" stroke="#231f20" stroke-linecap="round" stroke-linejoin="round" stroke-width=".757"/>
   </g>
   <g transform="translate(64.207 533.62)">
    <path d="m0 0-1.447-1.303-5.531 0.033 0.022 1.467z" fill="#240000"/>
   </g>
   <g transform="translate(64.207 533.62)">
    <path d="m0 0-1.447-1.303-5.531 0.033 0.022 1.467z" fill="none" stroke="#231f20" stroke-linecap="round" stroke-linejoin="round" stroke-width=".757"/>
   </g>
   <g transform="translate(56.642 540.28)">
    <path d="m0 0 0.113-2.748-0.245-3.009-0.19 2.051z" fill="#540021"/>
   </g>
   <g transform="translate(55.021 539.26)">
    <path d="m0 0 0.467-2.618-3.827 0.27-1.657 2.894z" fill="#240000"/>
   </g>
   <g transform="translate(50.004 539.8)">
    <path d="m0 0 1.657-2.894-0.167-1.076-1.744 2.624z" fill="#540022"/>
   </g>
   <g transform="translate(56.32 536.57)">
    <path d="m0 0 0.19-2.051-5.196 0.2-1.837 2.335z" fill="#240000"/>
   </g>
   <g transform="translate(49.476 537.06)">
    <path d="m0 0 1.837-2.334-0.365-2.341-2.041 1.673z" fill="#540022"/>
   </g>
   <g transform="translate(48.907 534.05)">
    <path d="m0 0 2.041-1.674-1.488 0.011-2.604 1.719z" fill="#240000"/>
   </g>
   <g transform="translate(54.877 538)">
    <path d="m0 0 0.144 1.259-5.017 0.546-0.254-1.346 5.127-0.459m-6.423 3.323 8.188-1.043-0.322-3.706-6.843 0.484-0.569-3.001-2.052 0.056z" fill="#ec008c"/>
   </g>
   <g transform="translate(80.305 533.16)">
    <path d="m0 0-3.637-0.926-0.595 3e-3 3.576 0.942z" fill="#0f1700"/>
   </g>
   <g transform="translate(79.649 533.18)">
    <path d="m0 0-3.576-0.942-0.302 1.531 3.431 1.197z" fill="#0f1700"/>
   </g>
   <g transform="translate(77.274 535.98)">
    <path d="m0 0-3.2-1.387 1.65 1.58 3.25 1.549z" fill="#37520c"/>
   </g>
   <g transform="translate(79.202 534.97)">
    <path d="m0 0-3.431-1.197-1.866 0.072 3.239 1.271z" fill="#0f1700"/>
   </g>
   <g transform="translate(77.561 533.24)">
    <path d="m0 0-3.383-0.989-0.666 6e-3 3.303 1.006z" fill="#0f1700"/>
   </g>
   <g transform="translate(76.815 533.26)">
    <path d="m0 0-3.303-1.007-0.631 3.898 2.966 1.677z" fill="#0f1700"/>
   </g>
   <g transform="translate(78.974 537.72)">
    <path d="m0 0 0.209-0.796-1.014-1.033 1.455-0.125 0.681-2.607-0.656 0.019-0.446 1.785-2.058 0.147 0.416-1.874-0.746 0.023-0.968 4.568 0.711-0.091 0.387-1.728 0.329-0.03z" fill="#a1d61e"/>
   </g>
   <g transform="translate(74.696 536.21)">
    <path d="m0 0-2.926-1.49-0.108 0.781 2.864 1.628z" fill="#0f1700"/>
   </g>
   <g transform="translate(74.526 537.13)">
    <path d="m0 0-2.863-1.628-2.922 0.207 2.449 1.783z" fill="#0f1700"/>
   </g>
   <g transform="translate(71.19 537.49)">
    <path d="m0 0-2.449-1.783-0.078 0.803 2.396 1.93z" fill="#0f1700"/>
   </g>
   <g transform="translate(75.655 535.22)">
    <path d="m0 0-3.079-1.324-2.889 0.108 2.678 1.443z" fill="#0f1700"/>
   </g>
   <g transform="translate(71.762 533.4)">
    <path d="m0 0-2.679-1.122-0.258 2.597 2.503 1.637z" fill="#0f1700"/>
   </g>
   <g transform="translate(76.047 533.29)">
    <path d="m0 0-3.224-1.024-3.74 0.021 2.679 1.123z" fill="#0f1700"/>
   </g>
   <g transform="translate(75.113 537.92)">
    <path d="m0 0 0.542-2.704-3.29 0.228 0.153-1.018 3.329-0.163 0.2-0.981-4.285 0.119-0.434 3.112 3.368-0.306-0.17 0.919-3.336 0.362-0.131 0.95z" fill="#a1d61e"/>
   </g>
   <g transform="translate(69.454 536.68)">
    <path d="m0 0-2.237-1.714-0.064 0.853 2.186 1.873z" fill="#240000"/>
   </g>
   <g transform="translate(69.34 537.69)">
    <path d="m0 0-2.187-1.872-2.573 0.177 1.72 2.026z" fill="#240000"/>
   </g>
   <g transform="translate(70.535 535.58)">
    <path d="m0 0-2.428-1.506-3.461 0.134 1.791 1.661z" fill="#240000"/>
   </g>
   <g transform="translate(69.454 536.68)">
    <path d="m0 0-0.115 1.012-3.039 0.33 0.068-1.06 3.086-0.282m-4.302 2.511 5.009-0.639 0.374-2.979-4.098 0.288 0.151-2.313-1.161 0.034z" fill="#ec008c"/>
   </g>
   <g transform="translate(66.588 533.55)">
    <path d="m0 0-1.867-1.246-0.962 2e-3 1.668 1.278z" fill="#240000"/>
   </g>
   <g transform="translate(65.427 533.59)">
    <path d="m0 0-1.668-1.278-0.115 4.633 1.509 2.253z" fill="#240000"/>
   </g>
   <g transform="translate(62.924 534.91)">
    <path d="m0 0-1.186-1.576 0.017 2.868 1.124 2.198z" fill="#240000"/>
   </g>
   <g transform="translate(62.879 538.4)">
    <path d="m0 0-1.124-2.199-3.122 0.219 0.376 2.401z" fill="#240000"/>
   </g>
   <g transform="translate(62.924 534.91)">
    <path d="m0 0-0.045 3.49-3.87 0.421-0.173-3.709 4.088-0.202m-5.231 5.236 6.336-0.808 0.178-5.716-6.956 0.197z" fill="#ec008c"/>
   </g>
   <g transform="translate(64.207 533.62)">
    <path d="m0 0-1.447-1.303-5.531 0.033 0.022 1.467z" fill="#240000"/>
   </g>
   <path d="m61.62 535.29h-2.352v0.815h2.352z" fill="#231f20"/>
  </g>
 </g>
</svg>
