<svg width="800" height="115.56" version="1.1" viewBox="0 0 211.67 30.576" xmlns="http://www.w3.org/2000/svg">
 <g transform="translate(-37.286 49.185)">
  <g transform="matrix(6.317 0 0 -6.317 43.963 -36.04)">
   <path d="m0 0h1.014c0.15 0 0.257 6e-3 0.316 0.02l0.168 0.074c0.113 0.078 0.172 0.228 0.172 0.443 0 0.213-0.059 0.359-0.172 0.445l-0.168 0.077c-0.055 0.013-0.164 0.015-0.316 0.015h-1.014zm0-0.678v-1.359l0.029-0.143 0.114-0.078v-0.092h-0.944v0.092l0.112 0.082 0.031 0.139v3.473l-0.031 0.144-0.112 0.08v0.092h1.887c0.226 0 0.41-0.016 0.543-0.055 0.135-0.033 0.254-0.095 0.35-0.189 0.117-0.106 0.209-0.246 0.259-0.424 0.053-0.174 0.086-0.355 0.086-0.553 0-0.67-0.277-1.06-0.822-1.177l0.584-1.129c0.105-0.204 0.184-0.329 0.228-0.387l0.172-0.096v-0.092h-1.09v0.092l0.114 0.112c0 0.035-0.031 0.123-0.1 0.261l-0.613 1.207z" fill="#fff"/>
  </g>
  <g transform="matrix(6.317 0 0 -6.317 43.963 -36.04)">
   <path d="m0 0h1.014c0.15 0 0.257 6e-3 0.316 0.02l0.168 0.074c0.113 0.078 0.172 0.228 0.172 0.443 0 0.213-0.059 0.359-0.172 0.445l-0.168 0.077c-0.055 0.013-0.164 0.015-0.316 0.015h-1.014zm0-0.678v-1.359l0.029-0.143 0.114-0.078v-0.092h-0.944v0.092l0.112 0.082 0.031 0.139v3.473l-0.031 0.144-0.112 0.08v0.092h1.887c0.226 0 0.41-0.016 0.543-0.055 0.135-0.033 0.254-0.095 0.35-0.189 0.117-0.106 0.209-0.246 0.259-0.424 0.053-0.174 0.086-0.355 0.086-0.553 0-0.67-0.277-1.06-0.822-1.177l0.584-1.129c0.105-0.204 0.184-0.329 0.228-0.387l0.172-0.096v-0.092h-1.09v0.092l0.114 0.112c0 0.035-0.031 0.123-0.1 0.261l-0.613 1.207z" fill="none" stroke="#231f20" stroke-width=".512"/>
  </g>
  <g transform="matrix(6.317 0 0 -6.317 70.058 -29.329)">
   <path d="m0 0-0.389 1.16-0.39-1.16zm0.152-0.449h-1.092l-0.158-0.461-0.033-0.152 0.113-0.145v-0.08h-0.795v0.08l0.106 0.064 0.086 0.186 0.887 2.519 0.041 0.192-0.102 0.16v0.076h0.854v-0.076l-0.106-0.144 0.035-0.155 0.916-2.525c0.039-0.108 0.071-0.184 0.102-0.221l0.117-0.076v-0.08h-0.885v0.08l0.115 0.146-0.037 0.151z" fill="#fff"/>
  </g>
  <g transform="matrix(6.317 0 0 -6.317 70.058 -29.329)">
   <path d="m0 0-0.389 1.16-0.39-1.16zm0.152-0.449h-1.092l-0.158-0.461-0.033-0.152 0.113-0.145v-0.08h-0.795v0.08l0.106 0.064 0.086 0.186 0.887 2.519 0.041 0.192-0.102 0.16v0.076h0.854v-0.076l-0.106-0.144 0.035-0.155 0.916-2.525c0.039-0.108 0.071-0.184 0.102-0.221l0.117-0.076v-0.08h-0.885v0.08l0.115 0.146-0.037 0.151z" fill="none" stroke="#231f20" stroke-width=".512"/>
  </g>
  <g transform="matrix(6.317 0 0 -6.317 81.1 -24.603)">
   <path d="m0 0h0.66c0.213 0 0.369 0.037 0.479 0.117 0.222 0.168 0.338 0.494 0.338 0.983 0 0.355-0.063 0.625-0.182 0.81-0.07 0.106-0.152 0.18-0.248 0.223-0.098 0.049-0.225 0.066-0.387 0.066h-0.66zm-0.523-0.287v2.771l-0.024 0.116-0.092 0.062v0.076h1.342c0.297 0 0.522-0.041 0.682-0.134 0.222-0.135 0.39-0.352 0.498-0.661 0.084-0.238 0.131-0.521 0.131-0.843 0-0.565-0.131-0.995-0.385-1.293-0.106-0.121-0.235-0.213-0.375-0.264-0.143-0.059-0.324-0.082-0.551-0.082h-1.342v0.08l0.092 0.063 0.024 0.109" fill="#fff"/>
  </g>
  <g transform="matrix(6.317 0 0 -6.317 81.1 -24.603)">
   <path d="m0 0h0.66c0.213 0 0.369 0.037 0.479 0.117 0.222 0.168 0.338 0.494 0.338 0.983 0 0.355-0.063 0.625-0.182 0.81-0.07 0.106-0.152 0.18-0.248 0.223-0.098 0.049-0.225 0.066-0.387 0.066h-0.66zm-0.523-0.287v2.771l-0.024 0.116-0.092 0.062v0.076h1.342c0.297 0 0.522-0.041 0.682-0.134 0.222-0.135 0.39-0.352 0.498-0.661 0.084-0.238 0.131-0.521 0.131-0.843 0-0.565-0.131-0.995-0.385-1.293-0.106-0.121-0.235-0.213-0.375-0.264-0.143-0.059-0.324-0.082-0.551-0.082h-1.342v0.08l0.092 0.063z" fill="none" stroke="#231f20" stroke-width=".512"/>
  </g>
  <g transform="matrix(6.317 0 0 -6.317 95.547 -22.79)">
   <path d="m0 0v2.775l-0.023 0.112-0.092 0.062v0.076h0.752v-0.076l-0.088-0.062-0.026-0.112v-2.775l0.026-0.111 0.088-0.061v-0.08h-0.752v0.08l0.092 0.063z" fill="#fff"/>
  </g>
  <g transform="matrix(6.317 0 0 -6.317 95.547 -22.79)">
   <path d="m0 0v2.775l-0.023 0.112-0.092 0.062v0.076h0.752v-0.076l-0.088-0.062-0.026-0.112v-2.775l0.026-0.111 0.088-0.061v-0.08h-0.752v0.08l0.092 0.063z" fill="none" stroke="#231f20" stroke-width=".512"/>
  </g>
  <g transform="matrix(6.317 0 0 -6.317 109.28 -38.755)">
   <path d="m0 0c-0.227 0-0.418-0.09-0.572-0.281-0.18-0.221-0.27-0.504-0.27-0.86 0-0.353 0.09-0.642 0.27-0.861 0.154-0.184 0.345-0.277 0.578-0.277 0.23 0 0.42 0.093 0.574 0.277 0.09 0.107 0.158 0.242 0.207 0.404 0.041 0.145 0.064 0.291 0.064 0.446 0 0.367-0.093 0.662-0.271 0.871-0.154 0.183-0.348 0.279-0.58 0.281m-2e-3 0.561c0.422 0 0.752-0.159 1-0.467 0.262-0.321 0.389-0.744 0.389-1.254 0-0.317-0.065-0.608-0.188-0.883-0.242-0.529-0.641-0.797-1.195-0.797-0.416 0-0.748 0.152-0.994 0.465-0.131 0.166-0.231 0.365-0.297 0.592-0.061 0.205-0.092 0.418-0.092 0.642 0 0.33 0.062 0.631 0.186 0.903 0.238 0.519 0.636 0.789 1.191 0.799" fill="#fff"/>
  </g>
  <g transform="matrix(6.317 0 0 -6.317 109.28 -38.755)">
   <path d="m0 0c-0.227 0-0.418-0.09-0.572-0.281-0.18-0.221-0.27-0.504-0.27-0.86 0-0.353 0.09-0.642 0.27-0.861 0.154-0.184 0.345-0.277 0.578-0.277 0.23 0 0.42 0.093 0.574 0.277 0.09 0.107 0.158 0.242 0.207 0.404 0.041 0.145 0.064 0.291 0.064 0.446 0 0.367-0.093 0.662-0.271 0.871-0.154 0.183-0.348 0.279-0.58 0.281zm-2e-3 0.561c0.422 0 0.752-0.159 1-0.467 0.262-0.321 0.389-0.744 0.389-1.254 0-0.317-0.065-0.608-0.188-0.883-0.242-0.529-0.641-0.797-1.195-0.797-0.416 0-0.748 0.152-0.994 0.465-0.131 0.166-0.231 0.365-0.297 0.592-0.061 0.205-0.092 0.418-0.092 0.642 0 0.33 0.062 0.631 0.186 0.903 0.238 0.519 0.636 0.789 1.191 0.799z" fill="none" stroke="#231f20" stroke-width=".512"/>
  </g>
  <g transform="matrix(6.317 0 0 -6.317 142.73 -30.082)">
   <path d="m0 0 0.418-0.855-0.059-0.055-0.103 0.08c-0.027 0-0.1-0.045-0.223-0.147-0.252-0.193-0.463-0.328-0.635-0.396-0.173-0.072-0.378-0.107-0.617-0.107-0.474 0-0.863 0.156-1.164 0.462-0.181 0.18-0.32 0.403-0.426 0.664-0.119 0.303-0.175 0.635-0.175 0.999 0 0.5 0.105 0.931 0.316 1.294 0.322 0.549 0.809 0.829 1.449 0.829 0.24 0 0.444-0.036 0.615-0.102 0.172-0.07 0.385-0.205 0.637-0.4 0.123-0.098 0.196-0.147 0.223-0.147l0.103 0.078 0.059-0.051-0.418-0.859-0.064 0.057 7e-3 0.078-0.054 0.162c-0.037 0.051-0.104 0.113-0.198 0.186-0.261 0.199-0.535 0.3-0.826 0.3-0.342 0-0.617-0.115-0.82-0.353-0.242-0.268-0.359-0.631-0.359-1.072 0-0.444 0.117-0.801 0.359-1.075 0.203-0.238 0.478-0.347 0.82-0.347 0.291 0 0.565 0.095 0.826 0.293 0.094 0.074 0.161 0.134 0.198 0.189l0.054 0.164-7e-3 0.08z" fill="#fff"/>
  </g>
  <g transform="matrix(6.317 0 0 -6.317 142.73 -30.082)">
   <path d="m0 0 0.418-0.855-0.059-0.055-0.103 0.08c-0.027 0-0.1-0.045-0.223-0.147-0.252-0.193-0.463-0.328-0.635-0.396-0.173-0.072-0.378-0.107-0.617-0.107-0.474 0-0.863 0.156-1.164 0.462-0.181 0.18-0.32 0.403-0.426 0.664-0.119 0.303-0.175 0.635-0.175 0.999 0 0.5 0.105 0.931 0.316 1.294 0.322 0.549 0.809 0.829 1.449 0.829 0.24 0 0.444-0.036 0.615-0.102 0.172-0.07 0.385-0.205 0.637-0.4 0.123-0.098 0.196-0.147 0.223-0.147l0.103 0.078 0.059-0.051-0.418-0.859-0.064 0.057 7e-3 0.078-0.054 0.162c-0.037 0.051-0.104 0.113-0.198 0.186-0.261 0.199-0.535 0.3-0.826 0.3-0.342 0-0.617-0.115-0.82-0.353-0.242-0.268-0.359-0.631-0.359-1.072 0-0.444 0.117-0.801 0.359-1.075 0.203-0.238 0.478-0.347 0.82-0.347 0.291 0 0.565 0.095 0.826 0.293 0.094 0.074 0.161 0.134 0.198 0.189l0.054 0.164-7e-3 0.08z" fill="none" stroke="#231f20" stroke-width=".512"/>
  </g>
  <g transform="matrix(6.317 0 0 -6.317 150.19 -24.603)">
   <path d="m0 0h1.481l0.082 0.035 0.046 0.115h0.055v-0.843h-0.055l-0.046 0.121-0.082 0.033h-2.12v0.08l0.092 0.063 0.026 0.109v2.771l-0.026 0.116-0.092 0.062v0.076h0.754v-0.076l-0.09-0.062-0.025-0.116z" fill="#fff"/>
  </g>
  <g transform="matrix(6.317 0 0 -6.317 150.19 -24.603)">
   <path d="m0 0h1.481l0.082 0.035 0.046 0.115h0.055v-0.843h-0.055l-0.046 0.121-0.082 0.033h-2.12v0.08l0.092 0.063 0.026 0.109v2.771l-0.026 0.116-0.092 0.062v0.076h0.754v-0.076l-0.09-0.062-0.025-0.116z" fill="none" stroke="#231f20" stroke-width=".512"/>
  </g>
  <g transform="matrix(6.317 0 0 -6.317 171.92 -29.329)">
   <path d="m0 0-0.387 1.16-0.394-1.16zm0.154-0.449h-1.094l-0.162-0.461-0.035-0.152 0.121-0.145v-0.08h-0.797v0.08l0.106 0.064 0.086 0.186 0.885 2.519 0.043 0.192-0.104 0.16v0.076h0.856v-0.076l-0.106-0.144 0.035-0.155 0.918-2.525c0.037-0.108 0.07-0.184 0.098-0.221l0.121-0.076v-0.08h-0.891v0.08l0.117 0.146-0.033 0.151z" fill="#fff"/>
  </g>
  <g transform="matrix(6.317 0 0 -6.317 171.92 -29.329)">
   <path d="m0 0-0.387 1.16-0.394-1.16zm0.154-0.449h-1.094l-0.162-0.461-0.035-0.152 0.121-0.145v-0.08h-0.797v0.08l0.106 0.064 0.086 0.186 0.885 2.519 0.043 0.192-0.104 0.16v0.076h0.856v-0.076l-0.106-0.144 0.035-0.155 0.918-2.525c0.037-0.108 0.07-0.184 0.098-0.221l0.121-0.076v-0.08h-0.891v0.08l0.117 0.146-0.033 0.151z" fill="none" stroke="#231f20" stroke-width=".512"/>
  </g>
  <g transform="matrix(6.317 0 0 -6.317 193.08 -40.137)">
   <path d="m0 0-0.287-0.77-0.049 0.041 2e-3 0.036-0.103 0.177c-0.211 0.196-0.456 0.297-0.739 0.297-0.125 0-0.232-0.021-0.326-0.06l-0.166-0.147-0.064-0.209c0-0.123 0.05-0.209 0.162-0.25 0.054-0.025 0.177-0.047 0.361-0.074l0.279-0.035c0.16-0.026 0.293-0.059 0.393-0.098 0.101-0.043 0.191-0.103 0.271-0.179 0.08-0.077 0.145-0.18 0.19-0.307 0.047-0.133 0.07-0.27 0.07-0.41 0-0.233-0.053-0.436-0.164-0.617-0.098-0.166-0.252-0.284-0.457-0.364-0.156-0.062-0.326-0.09-0.5-0.09-0.318 0-0.635 0.106-0.941 0.313l-0.121 0.064-0.071-0.052-0.049 0.037 0.262 0.804 0.047-0.035v-0.029l0.078-0.201c0.076-0.088 0.192-0.174 0.352-0.238 0.162-0.067 0.314-0.102 0.453-0.102 0.16 0 0.293 0.035 0.402 0.107l0.147 0.162 0.052 0.208c0 0.105-0.041 0.185-0.129 0.232-0.056 0.031-0.179 0.06-0.359 0.088l-0.271 0.037c-0.184 0.025-0.311 0.049-0.389 0.072l-0.223 0.115c-0.109 0.073-0.189 0.18-0.256 0.323-0.052 0.129-0.08 0.279-0.08 0.447 0 0.279 0.067 0.508 0.209 0.691 0.182 0.237 0.459 0.358 0.825 0.358 0.154 0 0.296-0.024 0.429-0.065 0.135-0.043 0.295-0.121 0.498-0.236l0.123-0.055 0.09 0.055z" fill="#fff"/>
  </g>
  <g transform="matrix(6.317 0 0 -6.317 193.08 -40.137)">
   <path d="m0 0-0.287-0.77-0.049 0.041 2e-3 0.036-0.103 0.177c-0.211 0.196-0.456 0.297-0.739 0.297-0.125 0-0.232-0.021-0.326-0.06l-0.166-0.147-0.064-0.209c0-0.123 0.05-0.209 0.162-0.25 0.054-0.025 0.177-0.047 0.361-0.074l0.279-0.035c0.16-0.026 0.293-0.059 0.393-0.098 0.101-0.043 0.191-0.103 0.271-0.179 0.08-0.077 0.145-0.18 0.19-0.307 0.047-0.133 0.07-0.27 0.07-0.41 0-0.233-0.053-0.436-0.164-0.617-0.098-0.166-0.252-0.284-0.457-0.364-0.156-0.062-0.326-0.09-0.5-0.09-0.318 0-0.635 0.106-0.941 0.313l-0.121 0.064-0.071-0.052-0.049 0.037 0.262 0.804 0.047-0.035v-0.029l0.078-0.201c0.076-0.088 0.192-0.174 0.352-0.238 0.162-0.067 0.314-0.102 0.453-0.102 0.16 0 0.293 0.035 0.402 0.107l0.147 0.162 0.052 0.208c0 0.105-0.041 0.185-0.129 0.232-0.056 0.031-0.179 0.06-0.359 0.088l-0.271 0.037c-0.184 0.025-0.311 0.049-0.389 0.072l-0.223 0.115c-0.109 0.073-0.189 0.18-0.256 0.323-0.052 0.129-0.08 0.279-0.08 0.447 0 0.279 0.067 0.508 0.209 0.691 0.182 0.237 0.459 0.358 0.825 0.358 0.154 0 0.296-0.024 0.429-0.065 0.135-0.043 0.295-0.121 0.498-0.236l0.123-0.055 0.09 0.055z" fill="none" stroke="#231f20" stroke-width=".512"/>
  </g>
  <g transform="matrix(6.317 0 0 -6.317 208.12 -40.137)">
   <path d="m0 0-0.287-0.77-0.047 0.041v0.036l-0.103 0.177c-0.209 0.196-0.452 0.297-0.737 0.297-0.125 0-0.232-0.021-0.326-0.06l-0.166-0.147-0.068-0.209c0-0.123 0.056-0.209 0.164-0.25 0.056-0.025 0.179-0.047 0.363-0.074l0.275-0.035c0.164-0.026 0.297-0.059 0.399-0.098 0.103-0.043 0.191-0.103 0.269-0.179 0.08-0.077 0.145-0.18 0.19-0.307 0.047-0.133 0.07-0.27 0.07-0.41 0-0.233-0.053-0.436-0.164-0.617-0.098-0.166-0.252-0.284-0.459-0.364-0.154-0.062-0.32-0.09-0.5-0.09-0.316 0-0.631 0.106-0.937 0.313l-0.12 0.064-0.072-0.052-0.049 0.037 0.26 0.804 0.047-0.035v-0.029l0.078-0.201c0.078-0.088 0.195-0.174 0.35-0.238 0.164-0.067 0.314-0.102 0.461-0.102 0.154 0 0.285 0.035 0.396 0.107l0.147 0.162 0.054 0.208c0 0.105-0.043 0.185-0.127 0.232-0.062 0.031-0.181 0.06-0.361 0.088l-0.279 0.037c-0.18 0.025-0.307 0.049-0.381 0.072l-0.227 0.115c-0.103 0.073-0.189 0.18-0.252 0.323-0.054 0.129-0.084 0.279-0.084 0.447 0 0.279 0.071 0.508 0.209 0.691 0.186 0.237 0.457 0.358 0.827 0.358 0.154 0 0.298-0.024 0.431-0.065 0.133-0.043 0.299-0.121 0.494-0.236l0.127-0.055 0.084 0.055z" fill="#fff"/>
  </g>
  <g transform="matrix(6.317 0 0 -6.317 208.12 -40.137)">
   <path d="m0 0-0.287-0.77-0.047 0.041v0.036l-0.103 0.177c-0.209 0.196-0.452 0.297-0.737 0.297-0.125 0-0.232-0.021-0.326-0.06l-0.166-0.147-0.068-0.209c0-0.123 0.056-0.209 0.164-0.25 0.056-0.025 0.179-0.047 0.363-0.074l0.275-0.035c0.164-0.026 0.297-0.059 0.399-0.098 0.103-0.043 0.191-0.103 0.269-0.179 0.08-0.077 0.145-0.18 0.19-0.307 0.047-0.133 0.07-0.27 0.07-0.41 0-0.233-0.053-0.436-0.164-0.617-0.098-0.166-0.252-0.284-0.459-0.364-0.154-0.062-0.32-0.09-0.5-0.09-0.316 0-0.631 0.106-0.937 0.313l-0.12 0.064-0.072-0.052-0.049 0.037 0.26 0.804 0.047-0.035v-0.029l0.078-0.201c0.078-0.088 0.195-0.174 0.35-0.238 0.164-0.067 0.314-0.102 0.461-0.102 0.154 0 0.285 0.035 0.396 0.107l0.147 0.162 0.054 0.208c0 0.105-0.043 0.185-0.127 0.232-0.062 0.031-0.181 0.06-0.361 0.088l-0.279 0.037c-0.18 0.025-0.307 0.049-0.381 0.072l-0.227 0.115c-0.103 0.073-0.189 0.18-0.252 0.323-0.054 0.129-0.084 0.279-0.084 0.447 0 0.279 0.071 0.508 0.209 0.691 0.186 0.237 0.457 0.358 0.827 0.358 0.154 0 0.298-0.024 0.431-0.065 0.133-0.043 0.299-0.121 0.494-0.236l0.127-0.055 0.084 0.055z" fill="none" stroke="#231f20" stroke-width=".512"/>
  </g>
  <g transform="matrix(6.317 0 0 -6.317 209.75 -22.79)">
   <path d="m0 0v2.775l-0.023 0.112-0.09 0.062v0.076h0.752v-0.076l-0.09-0.062-0.022-0.112v-2.775l0.022-0.111 0.09-0.061v-0.08h-0.752v0.08l0.09 0.063z" fill="#fff"/>
  </g>
  <g transform="matrix(6.317 0 0 -6.317 209.75 -22.79)">
   <path d="m0 0v2.775l-0.023 0.112-0.09 0.062v0.076h0.752v-0.076l-0.09-0.062-0.022-0.112v-2.775l0.022-0.111 0.09-0.061v-0.08h-0.752v0.08l0.09 0.063z" fill="none" stroke="#231f20" stroke-width=".512"/>
  </g>
  <g transform="matrix(6.317 0 0 -6.317 229.87 -28.293)">
   <path d="m0 0 0.334-0.678-0.045-0.047-0.08 0.067c-0.022 0-0.082-0.043-0.18-0.119-0.201-0.159-0.371-0.266-0.509-0.323-0.137-0.056-0.301-0.084-0.493-0.084-0.379 0-0.691 0.123-0.935 0.37-0.143 0.142-0.252 0.32-0.336 0.531-0.094 0.242-0.139 0.51-0.139 0.799 0 0.4 0.078 0.744 0.252 1.037 0.258 0.441 0.643 0.664 1.162 0.664 0.19 0 0.352-0.029 0.489-0.086 0.136-0.053 0.304-0.16 0.509-0.32 0.098-0.077 0.158-0.116 0.18-0.116l0.08 0.063 0.045-0.043-0.334-0.684-0.049 0.045 4e-3 0.065-0.043 0.127-0.158 0.148c-0.207 0.16-0.426 0.24-0.66 0.24-0.274 0-0.492-0.095-0.656-0.281-0.194-0.221-0.29-0.504-0.29-0.859 0-0.352 0.096-0.641 0.29-0.862 0.164-0.183 0.382-0.277 0.656-0.277 0.234 0 0.453 0.08 0.66 0.238l0.158 0.147 0.043 0.133-4e-3 0.06z" fill="#fff"/>
  </g>
  <g transform="matrix(6.317 0 0 -6.317 229.87 -28.293)">
   <path d="m0 0 0.334-0.678-0.045-0.047-0.08 0.067c-0.022 0-0.082-0.043-0.18-0.119-0.201-0.159-0.371-0.266-0.509-0.323-0.137-0.056-0.301-0.084-0.493-0.084-0.379 0-0.691 0.123-0.935 0.37-0.143 0.142-0.252 0.32-0.336 0.531-0.094 0.242-0.139 0.51-0.139 0.799 0 0.4 0.078 0.744 0.252 1.037 0.258 0.441 0.643 0.664 1.162 0.664 0.19 0 0.352-0.029 0.489-0.086 0.136-0.053 0.304-0.16 0.509-0.32 0.098-0.077 0.158-0.116 0.18-0.116l0.08 0.063 0.045-0.043-0.334-0.684-0.049 0.045 4e-3 0.065-0.043 0.127-0.158 0.148c-0.207 0.16-0.426 0.24-0.66 0.24-0.274 0-0.492-0.095-0.656-0.281-0.194-0.221-0.29-0.504-0.29-0.859 0-0.352 0.096-0.641 0.29-0.862 0.164-0.183 0.382-0.277 0.656-0.277 0.234 0 0.453 0.08 0.66 0.238l0.158 0.147 0.043 0.133-4e-3 0.06z" fill="none" stroke="#231f20" stroke-width=".512"/>
  </g>
  <g transform="matrix(6.317 0 0 -6.317 247.03 -40.137)">
   <path d="m0 0-0.285-0.77-0.053 0.041v0.036l-0.098 0.177c-0.21 0.196-0.455 0.297-0.738 0.297-0.125 0-0.236-0.021-0.328-0.06l-0.168-0.147-0.062-0.209c0-0.123 0.054-0.209 0.162-0.25 0.056-0.025 0.175-0.047 0.365-0.074l0.275-0.035c0.16-0.026 0.295-0.059 0.397-0.098 0.099-0.043 0.193-0.103 0.269-0.179 0.082-0.077 0.143-0.18 0.188-0.307 0.049-0.133 0.072-0.27 0.072-0.41 0-0.233-0.053-0.436-0.164-0.617-0.098-0.166-0.252-0.284-0.461-0.364-0.154-0.062-0.318-0.09-0.496-0.09-0.318 0-0.631 0.106-0.943 0.313l-0.118 0.064-0.072-0.052-0.053 0.037 0.264 0.804 0.049-0.035v-0.029l0.08-0.201c0.074-0.088 0.189-0.174 0.354-0.238 0.154-0.067 0.306-0.102 0.453-0.102 0.154 0 0.287 0.035 0.398 0.107l0.145 0.162 0.054 0.208c0 0.105-0.041 0.185-0.127 0.232-0.062 0.031-0.181 0.06-0.361 0.088l-0.271 0.037c-0.182 0.025-0.311 0.049-0.389 0.072l-0.225 0.115c-0.105 0.073-0.189 0.18-0.254 0.323-0.052 0.129-0.08 0.279-0.08 0.447 0 0.279 0.073 0.508 0.209 0.691 0.186 0.237 0.457 0.358 0.825 0.358 0.156 0 0.296-0.024 0.429-0.065 0.135-0.043 0.301-0.121 0.494-0.236l0.127-0.055 0.086 0.055z" fill="#fff"/>
  </g>
  <g transform="matrix(6.317 0 0 -6.317 247.03 -40.137)">
   <path d="m0 0-0.285-0.77-0.053 0.041v0.036l-0.098 0.177c-0.21 0.196-0.455 0.297-0.738 0.297-0.125 0-0.236-0.021-0.328-0.06l-0.168-0.147-0.062-0.209c0-0.123 0.054-0.209 0.162-0.25 0.056-0.025 0.175-0.047 0.365-0.074l0.275-0.035c0.16-0.026 0.295-0.059 0.397-0.098 0.099-0.043 0.193-0.103 0.269-0.179 0.082-0.077 0.143-0.18 0.188-0.307 0.049-0.133 0.072-0.27 0.072-0.41 0-0.233-0.053-0.436-0.164-0.617-0.098-0.166-0.252-0.284-0.461-0.364-0.154-0.062-0.318-0.09-0.496-0.09-0.318 0-0.631 0.106-0.943 0.313l-0.118 0.064-0.072-0.052-0.053 0.037 0.264 0.804 0.049-0.035v-0.029l0.08-0.201c0.074-0.088 0.189-0.174 0.354-0.238 0.154-0.067 0.306-0.102 0.453-0.102 0.154 0 0.287 0.035 0.398 0.107l0.145 0.162 0.054 0.208c0 0.105-0.041 0.185-0.127 0.232-0.062 0.031-0.181 0.06-0.361 0.088l-0.271 0.037c-0.182 0.025-0.311 0.049-0.389 0.072l-0.225 0.115c-0.105 0.073-0.189 0.18-0.254 0.323-0.052 0.129-0.08 0.279-0.08 0.447 0 0.279 0.073 0.508 0.209 0.691 0.186 0.237 0.457 0.358 0.825 0.358 0.156 0 0.296-0.024 0.429-0.065 0.135-0.043 0.301-0.121 0.494-0.236l0.127-0.055 0.086 0.055z" fill="none" stroke="#231f20" stroke-width=".512"/>
  </g>
  <g transform="matrix(6.317 0 0 -6.317 43.95 -36.534)">
   <path d="m0 0h1.016c0.15 0 0.257 6e-3 0.316 0.02l0.168 0.072c0.113 0.082 0.172 0.23 0.172 0.443 0 0.215-0.059 0.363-0.172 0.445l-0.168 0.081c-0.059 7e-3 -0.166 0.011-0.316 0.011h-1.016zm0-0.676v-1.363l0.031-0.143 0.114-0.076v-0.094h-0.944v0.094l0.112 0.076 0.029 0.143v3.478l-0.029 0.141-0.112 0.078v0.094h1.883c0.227 0 0.414-0.02 0.545-0.053 0.135-0.035 0.256-0.103 0.351-0.191 0.118-0.106 0.204-0.244 0.26-0.426 0.053-0.17 0.084-0.355 0.084-0.553 0-0.668-0.275-1.062-0.82-1.175l0.584-1.131c0.103-0.2 0.18-0.328 0.228-0.383l0.172-0.098v-0.094h-1.09v0.094l0.114 0.11c0 0.033-0.032 0.121-0.1 0.259l-0.613 1.213z" fill="#fff"/>
  </g>
  <g transform="matrix(6.317 0 0 -6.317 70.045 -29.823)">
   <path d="m0 0-0.387 1.156-0.392-1.156zm0.152-0.449h-1.09l-0.162-0.461-0.035-0.154 0.119-0.145v-0.08h-0.795v0.08l0.106 0.068c0.025 0.028 0.051 0.092 0.084 0.186l0.887 2.516 0.043 0.191-0.102 0.158v0.082h0.854v-0.082l-0.11-0.14 0.039-0.159 0.916-2.521c0.039-0.11 0.071-0.186 0.102-0.225l0.115-0.074v-0.08h-0.885v0.08l0.115 0.145-0.035 0.154z" fill="#fff"/>
  </g>
  <g transform="matrix(6.317 0 0 -6.317 81.075 -25.085)">
   <path d="m0 0h0.664c0.211 0 0.367 0.039 0.477 0.117 0.224 0.168 0.339 0.494 0.339 0.983 0 0.351-0.062 0.625-0.187 0.81-0.064 0.104-0.147 0.18-0.246 0.225-0.094 0.045-0.223 0.066-0.383 0.066h-0.664zm-0.52-0.285v2.769l-0.023 0.116-0.092 0.06v0.082h1.342c0.297 0 0.522-0.047 0.68-0.138 0.224-0.133 0.392-0.352 0.498-0.661 0.086-0.238 0.133-0.519 0.133-0.843 0-0.565-0.131-0.993-0.385-1.291-0.11-0.123-0.235-0.213-0.375-0.268-0.145-0.055-0.326-0.08-0.551-0.08h-1.342v0.08l0.092 0.059 0.023 0.115" fill="#fff"/>
  </g>
  <g transform="matrix(6.317 0 0 -6.317 95.547 -23.283)">
   <path d="m0 0v2.773l-0.029 0.112-0.086 0.06v0.082h0.752v-0.082l-0.092-0.058-0.022-0.114v-2.773l0.026-0.115 0.088-0.059v-0.08h-0.752v0.08l0.086 0.059z" fill="#fff"/>
  </g>
  <g transform="matrix(6.317 0 0 -6.317 109.27 -39.237)">
   <path d="m0 0c-0.225 0-0.416-0.092-0.57-0.277-0.18-0.221-0.27-0.504-0.27-0.864 0-0.355 0.09-0.64 0.27-0.859 0.154-0.186 0.345-0.279 0.576-0.279 0.232 0 0.422 0.093 0.574 0.279 0.092 0.111 0.16 0.244 0.209 0.402 0.041 0.147 0.064 0.289 0.064 0.444 0 0.373-0.095 0.662-0.273 0.877-0.152 0.181-0.346 0.277-0.58 0.277m0 0.562c0.418 0 0.75-0.16 0.998-0.466 0.262-0.326 0.391-0.741 0.391-1.258 0-0.315-0.065-0.608-0.19-0.879-0.24-0.529-0.642-0.795-1.195-0.795-0.414 0-0.746 0.15-0.992 0.459-0.131 0.166-0.231 0.363-0.301 0.596-0.057 0.205-0.088 0.42-0.088 0.64 0 0.334 0.062 0.629 0.186 0.901 0.238 0.523 0.634 0.793 1.191 0.802" fill="#fff"/>
  </g>
  <g transform="matrix(6.317 0 0 -6.317 142.7 -30.588)">
   <path d="m0 0 0.422-0.857-0.059-0.055-0.103 0.076c-0.028 0-0.1-0.047-0.223-0.143-0.252-0.195-0.463-0.333-0.637-0.398-0.172-0.07-0.377-0.103-0.615-0.103-0.476 0-0.863 0.15-1.166 0.459-0.182 0.179-0.318 0.398-0.424 0.662-0.121 0.304-0.176 0.634-0.176 1.002 0 0.496 0.106 0.927 0.315 1.294 0.322 0.549 0.808 0.829 1.451 0.829 0.24 0 0.443-0.039 0.613-0.106 0.174-0.068 0.385-0.201 0.639-0.402 0.123-0.096 0.195-0.141 0.223-0.141l0.103 0.076 0.059-0.05-0.422-0.858-0.061 0.055 8e-3 0.08-0.055 0.16-0.197 0.188c-0.261 0.199-0.535 0.298-0.826 0.298-0.342 0-0.617-0.119-0.822-0.351-0.24-0.276-0.36-0.633-0.36-1.074 0-0.442 0.12-0.801 0.36-1.075 0.205-0.232 0.48-0.347 0.822-0.347 0.291 0 0.565 0.095 0.826 0.295l0.197 0.185 0.055 0.168-8e-3 0.078z" fill="#fff"/>
  </g>
  <g transform="matrix(6.317 0 0 -6.317 150.18 -25.085)">
   <path d="m0 0h1.48l0.084 0.035 0.047 0.119h0.053v-0.847h-0.053l-0.047 0.123-0.084 0.031h-2.121v0.08l0.094 0.059 0.027 0.115v2.769l-0.027 0.116-0.094 0.06v0.082h0.756v-0.082l-0.09-0.058-0.025-0.118z" fill="#fff"/>
  </g>
  <g transform="matrix(6.317 0 0 -6.317 171.89 -29.823)">
   <path d="m0 0-0.387 1.156-0.39-1.156zm0.158-0.449h-1.094l-0.162-0.461-0.035-0.154 0.121-0.145v-0.08h-0.799v0.08l0.108 0.068c0.023 0.028 0.055 0.092 0.084 0.186l0.885 2.516 0.045 0.191-0.104 0.158v0.082h0.855v-0.082l-0.105-0.14 0.033-0.159 0.914-2.521c0.043-0.11 0.076-0.186 0.104-0.225l0.121-0.074v-0.08h-0.891v0.08l0.117 0.145-0.033 0.154z" fill="#fff"/>
  </g>
  <g transform="matrix(6.317 0 0 -6.317 193.08 -40.642)">
   <path d="m0 0-0.291-0.773-0.047 0.037 2e-3 0.035-0.101 0.181c-0.211 0.2-0.456 0.297-0.739 0.297-0.125 0-0.232-0.017-0.332-0.062l-0.164-0.141-0.06-0.213c0-0.123 0.05-0.207 0.16-0.248 0.054-0.025 0.179-0.049 0.361-0.076l0.275-0.035c0.166-0.029 0.297-0.061 0.399-0.098 0.101-0.045 0.191-0.101 0.271-0.177 0.079-0.079 0.143-0.18 0.19-0.311 0.045-0.127 0.068-0.27 0.068-0.412 0-0.227-0.053-0.436-0.164-0.615-0.096-0.162-0.25-0.284-0.461-0.362-0.15-0.06-0.32-0.086-0.496-0.086-0.316 0-0.633 0.104-0.939 0.311l-0.121 0.062-0.071-0.052-0.051 0.037 0.262 0.805 0.049-0.036v-0.031l0.076-0.197c0.078-0.094 0.194-0.178 0.354-0.24 0.162-0.069 0.31-0.102 0.453-0.102 0.16 0 0.293 0.033 0.4 0.106l0.147 0.16 0.054 0.207c0 0.113-0.041 0.187-0.129 0.238-0.058 0.031-0.179 0.061-0.361 0.086l-0.271 0.037c-0.182 0.025-0.313 0.051-0.387 0.074l-0.225 0.11c-0.107 0.072-0.193 0.185-0.254 0.326-0.052 0.131-0.082 0.281-0.082 0.451 0 0.271 0.069 0.502 0.211 0.686 0.182 0.24 0.457 0.361 0.825 0.361 0.154 0 0.296-0.024 0.429-0.069 0.133-0.044 0.295-0.121 0.494-0.236l0.127-0.056 0.088 0.056z" fill="#fff"/>
  </g>
  <g transform="matrix(6.317 0 0 -6.317 208.12 -40.642)">
   <path d="m0 0-0.289-0.773-0.049 0.037 4e-3 0.035-0.105 0.181c-0.209 0.2-0.454 0.297-0.737 0.297-0.123 0-0.23-0.017-0.326-0.062l-0.166-0.141-0.066-0.213c0-0.123 0.056-0.207 0.164-0.248 0.056-0.025 0.177-0.049 0.363-0.076l0.275-0.035c0.164-0.029 0.297-0.061 0.399-0.098 0.099-0.045 0.189-0.101 0.269-0.177 0.078-0.079 0.143-0.18 0.188-0.311 0.047-0.127 0.07-0.27 0.07-0.412 0-0.227-0.056-0.436-0.162-0.615-0.098-0.162-0.252-0.284-0.459-0.362-0.156-0.06-0.32-0.086-0.5-0.086-0.318 0-0.631 0.104-0.939 0.311l-0.122 0.062-0.068-0.052-0.049 0.037 0.26 0.805 0.047-0.036v-0.031l0.078-0.197c0.076-0.094 0.191-0.178 0.35-0.24 0.164-0.069 0.314-0.102 0.457-0.102 0.154 0 0.289 0.033 0.4 0.106l0.145 0.16 0.054 0.207c0 0.113-0.041 0.187-0.131 0.238-0.056 0.031-0.175 0.061-0.357 0.086l-0.277 0.037c-0.18 0.025-0.307 0.051-0.383 0.074l-0.225 0.11c-0.107 0.072-0.195 0.185-0.252 0.326-0.054 0.131-0.084 0.281-0.084 0.451 0 0.271 0.071 0.502 0.209 0.686 0.186 0.24 0.457 0.361 0.827 0.361 0.154 0 0.298-0.024 0.431-0.069 0.133-0.044 0.299-0.121 0.494-0.236l0.127-0.056 0.084 0.056z" fill="#fff"/>
  </g>
  <g transform="matrix(6.317 0 0 -6.317 209.75 -23.283)">
   <path d="m0 0v2.773l-0.025 0.112-0.088 0.06v0.082h0.748v-0.082l-0.086-0.058-0.026-0.114v-2.773l0.026-0.115 0.086-0.059v-0.08h-0.748v0.08l0.088 0.059z" fill="#fff"/>
  </g>
  <g transform="matrix(6.317 0 0 -6.317 229.86 -28.787)">
   <path d="m0 0 0.334-0.682-0.043-0.043-0.082 0.063c-0.019 0-0.082-0.039-0.18-0.117-0.199-0.158-0.369-0.266-0.507-0.321-0.139-0.056-0.301-0.082-0.493-0.082-0.38 0-0.691 0.121-0.935 0.367-0.143 0.143-0.256 0.319-0.336 0.53-0.098 0.24-0.143 0.508-0.143 0.799 0 0.398 0.082 0.744 0.256 1.039 0.256 0.437 0.643 0.664 1.158 0.664 0.194 0 0.356-0.029 0.491-0.086 0.136-0.057 0.306-0.162 0.509-0.324 0.098-0.075 0.161-0.112 0.18-0.112l0.082 0.063 0.043-0.043-0.334-0.688-0.047 0.047 4e-3 0.065-0.043 0.129-0.158 0.146c-0.209 0.156-0.43 0.24-0.66 0.24-0.276 0-0.492-0.095-0.656-0.283-0.194-0.217-0.29-0.506-0.29-0.857 0-0.354 0.096-0.639 0.29-0.86 0.164-0.185 0.38-0.279 0.656-0.279 0.23 0 0.451 0.078 0.66 0.24l0.158 0.151 0.043 0.127-4e-3 0.062z" fill="#fff"/>
  </g>
  <g transform="matrix(6.317 0 0 -6.317 247.03 -40.642)">
   <path d="m0 0-0.291-0.773-0.047 0.037v0.035l-0.098 0.181c-0.214 0.2-0.457 0.297-0.74 0.297-0.125 0-0.234-0.017-0.326-0.062l-0.168-0.141-0.064-0.213c0-0.123 0.052-0.207 0.164-0.248 0.056-0.025 0.175-0.049 0.363-0.076l0.275-0.035c0.162-0.029 0.297-0.061 0.399-0.098 0.099-0.045 0.193-0.101 0.269-0.177 0.08-0.079 0.143-0.18 0.188-0.311 0.049-0.127 0.068-0.27 0.068-0.412 0-0.227-0.053-0.436-0.16-0.615-0.098-0.162-0.252-0.284-0.461-0.362-0.156-0.06-0.322-0.086-0.496-0.086-0.32 0-0.631 0.104-0.943 0.311l-0.12 0.062-0.07-0.052-0.053 0.037 0.264 0.805 0.049-0.036v-0.031l0.074-0.197c0.08-0.094 0.195-0.178 0.36-0.24 0.154-0.069 0.306-0.102 0.453-0.102 0.154 0 0.287 0.033 0.398 0.106l0.145 0.16 0.054 0.207c0 0.113-0.041 0.187-0.127 0.238-0.062 0.031-0.183 0.061-0.361 0.086l-0.273 0.037c-0.184 0.025-0.311 0.051-0.389 0.074l-0.223 0.11c-0.107 0.072-0.189 0.185-0.254 0.326-0.054 0.131-0.08 0.281-0.08 0.451 0 0.271 0.069 0.502 0.209 0.686 0.184 0.24 0.457 0.361 0.825 0.361 0.152 0 0.296-0.024 0.429-0.069 0.133-0.044 0.297-0.121 0.494-0.236l0.127-0.056 0.086 0.056z" fill="#fff"/>
  </g>
 </g>
</svg>
