<svg width="800" height="433.17" version="1.1" viewBox="0 0 211.67 114.61" xmlns="http://www.w3.org/2000/svg">
 <g transform="translate(-57.043 135.77)">
  <g transform="matrix(7.6025 0 0 -7.6025 262.03 -116.54)">
   <path d="m0 0 0.872-9.977c0.017-0.171 1e-3 -0.326-0.042-0.462-0.046-0.135-0.118-0.252-0.221-0.35s-0.238-0.177-0.399-0.238c-0.163-0.059-0.355-0.1-0.577-0.122l-4.696-0.478-0.185 2.113 3.334 0.325 0.012 3e-3 9e-3 6e-3v0.021l-0.041 0.502-2.007-0.195c-0.224-0.021-0.424-0.019-0.598 8e-3 -0.172 0.029-0.319 0.08-0.44 0.156-0.12 0.079-0.214 0.179-0.284 0.303-0.066 0.127-0.109 0.278-0.124 0.454l-0.65 7.443 2.706 0.218 0.552-6.322 3e-3 -0.012 5e-3 -7e-3 8e-3 -4e-3h0.013l0.632 0.058-0.555 6.34z" fill="#00adef"/>
  </g>
  <g transform="matrix(7.6025 0 0 -7.6025 194.77 -62.153)">
   <path d="m0 0-0.369 4.228-2e-3 0.01-6e-3 9e-3 -9e-3 4e-3h-0.01l-0.652-0.054 0.377-4.286 0.648 0.061 0.011 3e-3 6e-3 5e-3 5e-3 8e-3 1e-3 0.012m0.816 6.505c0.226 0.018 0.427 0.011 0.604-0.019 0.175-0.031 0.322-0.087 0.445-0.169 0.12-0.08 0.216-0.186 0.283-0.315 0.07-0.131 0.112-0.285 0.127-0.465l0.557-6.375c0.017-0.174 0-0.33-0.043-0.467-0.046-0.138-0.122-0.254-0.226-0.353-0.107-0.1-0.244-0.18-0.411-0.238-0.166-0.061-0.363-0.102-0.593-0.124l-4.814-0.466-0.755 8.601z" fill="#00adef"/>
  </g>
  <g transform="matrix(7.6025 0 0 -7.6025 165.14 -38.87)">
   <path d="m0 0 6.868 0.643 0.187-2.119-8.248-0.837c-0.237-0.023-0.444-0.021-0.627 4e-3 -0.181 0.028-0.333 0.08-0.461 0.157-0.127 0.078-0.224 0.179-0.296 0.306-0.071 0.129-0.113 0.284-0.13 0.461l-0.708 8.085-0.668-0.028 0.542-6.499-2.842-0.275-0.763 8.71 2.847 0.231 0.048-0.556c0.112 0.103 0.24 0.195 0.381 0.276 0.141 0.082 0.299 0.152 0.469 0.212 0.171 0.063 0.356 0.112 0.557 0.151 0.2 0.04 0.416 0.068 0.645 0.086 0.236 0.021 0.442 0.013 0.622-0.018 0.179-0.031 0.329-0.088 0.455-0.17 0.124-0.082 0.222-0.187 0.292-0.319 0.069-0.132 0.113-0.288 0.129-0.47z" fill="#00adef"/>
  </g>
  <g transform="matrix(7.6025 0 0 -7.6025 88.324 -52.085)">
   <path d="m0 0-0.121 1.373-0.682-0.063-0.011-1e-3 -9e-3 -8e-3 -5e-3 -9e-3v-0.012l0.114-1.317 3e-3 -0.014 5e-3 -8e-3 0.011-4e-3h0.012l0.683 0.063m0.868 6.701c0.239 0.021 0.452 0.014 0.635-0.017 0.183-0.032 0.34-0.088 0.468-0.171 0.129-0.082 0.228-0.191 0.3-0.324 0.071-0.134 0.115-0.292 0.129-0.476l0.668-7.616-5.043-0.488c-0.242-0.023-0.457-0.021-0.644 7e-3 -0.186 0.027-0.344 0.081-0.474 0.159-0.131 0.08-0.23 0.185-0.305 0.316-0.073 0.13-0.117 0.287-0.132 0.468l-0.29 3.328c-0.019 0.181 0 0.343 0.047 0.485 0.05 0.142 0.131 0.263 0.245 0.364 0.114 0.102 0.262 0.184 0.439 0.244 0.18 0.062 0.392 0.103 0.634 0.125l2.166 0.187-0.095 1.07-2e-3 0.013-5e-3 8e-3 -9e-3 4e-3 -0.013 2e-3 -0.653-0.057-0.013-3e-3 -0.01-6e-3 -4e-3 -8e-3v-0.013l0.044-0.507-2.918-0.25-0.142 1.629c-0.015 0.185 0 0.351 0.05 0.496 0.048 0.145 0.128 0.27 0.243 0.373 0.114 0.103 0.26 0.185 0.439 0.246s0.39 0.102 0.634 0.121z" fill="#00adef"/>
  </g>
  <g transform="matrix(7.6025 0 0 -7.6025 143.7 -118.01)">
   <path d="m0 0 0.121 0.053 0.085 0.07 0.045 0.084 0.012 0.101-0.01 0.077-0.055 0.121-0.07 0.084-0.087 0.049-0.101 9e-3 -0.073-5e-3h-2e-3l-0.122-0.055-0.084-0.07-0.047-0.086-9e-3 -0.1 8e-3 -0.076 0.054-0.121 0.071-0.086 0.087-0.048 0.102-9e-3 0.075 8e-3m-0.109 0.907 0.157-0.01 0.145-0.055 0.133-0.1 0.117-0.142 0.028-0.057 0.022-0.059 0.017-0.062 9e-3 -0.067-8e-3 -0.157-0.054-0.143-0.098-0.131-0.144-0.115-0.054-0.029-0.059-0.022-0.063-0.016-0.065-9e-3 -0.158 9e-3 -0.145 0.056-0.132 0.099-0.117 0.145-0.03 0.056-0.024 0.057-0.013 0.064-0.01 0.064 9e-3 0.159 0.051 0.144 0.1 0.132 0.144 0.114 0.055 0.029 0.06 0.022 0.061 0.015z" fill="#00adef"/>
  </g>
  <g transform="matrix(7.6025 0 0 -7.6025 148.7 -119.16)">
   <path d="m0 0 0.02 0.228-0.054 0.223-0.114 0.188-0.176 0.146-0.237 0.109-0.227 0.019-0.227-0.05-0.186-0.111-0.147-0.176-0.104-0.236-0.019-0.227 0.052-0.226 0.116-0.187 0.177-0.147 0.238-0.108 0.229-0.019 0.223 0.051 0.187 0.113 0.145 0.174 0.104 0.236m-0.802 1.166c0.097 6e-3 0.191 0 0.279-0.018 0.091-0.019 0.173-0.05 0.254-0.097l0.229-0.172c0.072-0.07 0.139-0.154 0.201-0.252l0.041-0.104 0.033-0.099 0.023-0.096 0.012-0.091c9e-3 -0.096 3e-3 -0.189-0.014-0.278l-0.093-0.253-0.17-0.228c-0.072-0.07-0.153-0.136-0.25-0.198l-0.104-0.041-0.1-0.031-0.096-0.022-0.091-0.012c-0.096-8e-3 -0.191-2e-3 -0.279 0.015-0.091 0.02-0.176 0.052-0.256 0.096l-0.227 0.174c-0.073 0.07-0.141 0.154-0.204 0.252l-0.041 0.103-0.034 0.101-0.023 0.096-0.013 0.091c-6e-3 0.096-3e-3 0.191 0.015 0.281l0.094 0.252 0.173 0.226c0.071 0.072 0.154 0.139 0.251 0.199l0.102 0.042 0.101 0.031 0.096 0.021 0.091 0.012" fill="#00adef"/>
  </g>
  <g transform="matrix(7.6025 0 0 -7.6025 152.02 -120.92)">
   <path d="m0 0-3e-3 0.055c-0.011 0.099-0.03 0.193-0.062 0.281l-0.132 0.25-0.202 0.221c-0.079 0.066-0.169 0.129-0.273 0.187l-0.148 0.053-0.142 0.038-0.141 0.018-0.132-1e-3 -0.057-4e-3c-0.099-8e-3 -0.191-0.028-0.281-0.058-0.09-0.032-0.172-0.074-0.251-0.13l-0.218-0.199c-0.068-0.08-0.13-0.169-0.188-0.27l-0.052-0.149-0.034-0.144-0.018-0.139 3e-3 -0.134 5e-3 -0.056c8e-3 -0.098 0.029-0.193 0.061-0.282l0.135-0.252 0.201-0.219c0.081-0.068 0.17-0.13 0.274-0.187l0.148-0.055 0.145-0.035 0.139-0.018 0.134 2e-3 0.055 3e-3c0.1 9e-3 0.192 0.029 0.282 0.06l0.25 0.131 0.217 0.2c0.067 0.077 0.13 0.168 0.184 0.269l0.053 0.149 0.034 0.142 0.017 0.14-3e-3 0.133m-0.061 0.83 0.122-0.185 0.092-0.183 0.059-0.179 0.032-0.17 0.012-0.131c8e-3 -0.103 4e-3 -0.203-0.012-0.302-0.018-0.1-0.048-0.198-0.091-0.293-0.041-0.098-0.097-0.194-0.168-0.284-0.065-0.094-0.149-0.185-0.241-0.273l-0.186-0.121-0.182-0.09-0.177-0.06-0.173-0.03-0.131-9e-3c-0.101-9e-3 -0.203-4e-3 -0.301 0.013-0.104 0.019-0.201 0.049-0.298 0.092-0.099 0.044-0.194 0.101-0.288 0.168-0.093 0.07-0.186 0.152-0.277 0.248l-0.122 0.186-0.09 0.183-0.063 0.179-0.032 0.173-0.01 0.131c-0.01 0.103-5e-3 0.203 0.013 0.303 0.016 0.101 0.046 0.199 0.089 0.296 0.044 0.096 0.1 0.192 0.169 0.284 0.068 0.093 0.149 0.185 0.244 0.273l0.187 0.121 0.181 0.09 0.179 0.058 0.172 0.027 0.131 0.01c0.103 8e-3 0.204 2e-3 0.304-0.015 0.1-0.02 0.199-0.049 0.295-0.094 0.099-0.043 0.194-0.1 0.286-0.17 0.094-0.068 0.186-0.151 0.275-0.246" fill="#00adef"/>
  </g>
  <g transform="matrix(7.6025 0 0 -7.6025 129.09 -133.74)">
   <path d="m0 0 0.014-0.012 0.061-0.683-0.013-0.014-0.227-0.018-0.014 0.012-0.059 0.685 0.011 0.012z" fill="#00adef"/>
  </g>
  <g transform="matrix(7.6025 0 0 -7.6025 128.07 -125.67)">
   <path d="m0 0 0.227 0.017 0.012-0.012 0.191-2.156-0.014-0.014-0.225-0.018-0.015 0.012-0.188 2.156z" fill="#00adef"/>
  </g>
  <g transform="matrix(7.6025 0 0 -7.6025 124.87 -125.42)">
   <path d="m0 0 0.226 0.018 0.014-0.013 0.188-2.157-0.012-0.014-0.225-0.018-0.015 0.012-0.19 2.157z" fill="#00adef"/>
  </g>
  <g transform="matrix(7.6025 0 0 -7.6025 124.17 -133.37)">
   <path d="m0 0 0.227 0.017 0.014-0.011 0.06-0.684-0.013-0.013-0.227-0.018-0.014 0.012-0.06 0.683z" fill="#00adef"/>
  </g>
  <g transform="matrix(7.6025 0 0 -7.6025 121.7 -125.18)">
   <path d="m0 0 0.23 0.017 0.012-0.013 0.19-2.158-0.011-0.014-0.23-0.018-0.012 0.012-0.189 2.159z" fill="#00adef"/>
  </g>
  <g transform="matrix(7.6025 0 0 -7.6025 121.01 -133.14)">
   <path d="m0 0 0.227 0.016 0.015-0.012 0.061-0.684-0.013-0.013-0.227-0.018-0.014 0.012-0.06 0.685z" fill="#00adef"/>
  </g>
  <g transform="matrix(7.6025 0 0 -7.6025 110.99 -117.72)">
   <path d="m0 0-7e-3 0.076-0.057 0.124-0.071 0.085-0.088 0.047-0.103 0.012-0.076-7e-3 -0.123-0.056-0.085-0.07-0.051-0.085-7e-3 -0.103 6e-3 -0.078 0.057-0.121 0.072-0.085 0.086-0.048 0.102-0.01 0.08 7e-3 0.122 0.054 0.085 0.072 0.046 0.084 0.012 0.102m-0.375 0.604 0.161-0.01 0.148-0.055 0.133-0.102 0.116-0.144 0.032-0.056 0.022-0.059 0.016-0.063 0.01-0.066-0.012-0.172-0.064-0.152-0.112-0.135-0.167-0.116-0.03-0.015-0.042-0.014-0.056-0.012-0.064-0.011-0.167 9e-3 -0.149 0.053-0.136 0.101-0.118 0.145-0.03 0.055-0.022 0.061-0.018 0.062-8e-3 0.067 8e-3 0.16 0.055 0.144 0.099 0.133 0.147 0.117 0.056 0.028 0.059 0.022 0.065 0.015z" fill="#00adef"/>
  </g>
  <g transform="matrix(7.6025 0 0 -7.6025 114.06 -116.42)">
   <path d="m0 0 0.017 0.24-0.052 0.227-0.116 0.189-0.18 0.147c-0.069 0.043-0.151 0.079-0.241 0.107l-0.232 0.022-0.229-0.051-0.19-0.113-0.15-0.176-0.105-0.239-0.019-0.23 0.053-0.223 0.114-0.186 0.174-0.15c0.071-0.043 0.149-0.082 0.24-0.112l0.242-0.02 0.223 0.05 0.187 0.112 0.152 0.172 0.112 0.234m-0.816 1.186c0.098 6e-3 0.192 1e-3 0.284-0.018 0.091-0.02 0.176-0.051 0.259-0.096l0.229-0.174c0.076-0.072 0.144-0.156 0.205-0.253l0.044-0.106 0.032-0.1 0.023-0.097 0.013-0.091c7e-3 -0.101 3e-3 -0.194-0.016-0.284-0.019-0.092-0.05-0.177-0.096-0.258l-0.177-0.227c-0.073-0.071-0.159-0.138-0.256-0.199l-0.1-0.041-0.099-0.029-0.095-0.022-0.095-0.012c-0.1-9e-3 -0.196-4e-3 -0.289 0.016-0.09 0.019-0.178 0.051-0.26 0.097l-0.231 0.178c-0.074 0.072-0.141 0.159-0.202 0.257l-0.042 0.099-0.034 0.096-0.021 0.097-0.014 0.094c-0.01 0.097-4e-3 0.193 0.015 0.282l0.096 0.255 0.173 0.229c0.073 0.07 0.157 0.14 0.254 0.201l0.106 0.041 0.1 0.031 0.098 0.022 0.096 0.012" fill="#00adef"/>
  </g>
  <g transform="matrix(7.6025 0 0 -7.6025 117.43 -118.29)">
   <path d="m0 0-4e-3 0.055c-0.012 0.104-0.031 0.203-0.067 0.296l-0.144 0.26-0.221 0.225c-0.084 0.069-0.184 0.133-0.296 0.189l-0.142 0.043-0.136 0.03-0.128 0.011h-0.118l-0.058-4e-3c-0.103-7e-3 -0.204-0.029-0.296-0.063-0.095-0.033-0.182-0.08-0.265-0.14l-0.226-0.216c-0.069-0.085-0.131-0.183-0.19-0.292l-0.041-0.144-0.028-0.133-0.013-0.127 4e-3 -0.118 5e-3 -0.057c8e-3 -0.104 0.03-0.202 0.067-0.295 0.033-0.093 0.081-0.18 0.143-0.26l0.222-0.227c0.087-0.068 0.186-0.133 0.297-0.189l0.145-0.043 0.137-0.028 0.127-0.013 0.118 2e-3 0.057 4e-3c0.1 9e-3 0.196 0.029 0.285 0.06 0.09 0.032 0.174 0.074 0.254 0.131l0.221 0.202c0.068 0.078 0.131 0.169 0.187 0.273l0.053 0.151 0.035 0.145 0.019 0.139-3e-3 0.133m0.042 2.299 0.014-0.012 0.201-2.305c0.011-0.103 6e-3 -0.206-0.012-0.306s-0.047-0.199-0.091-0.297c-0.043-0.097-0.1-0.191-0.17-0.285-0.069-0.094-0.151-0.186-0.246-0.276l-0.189-0.121-0.185-0.092-0.179-0.059-0.177-0.03-0.131-0.01c-0.105-8e-3 -0.209-4e-3 -0.311 0.014-0.101 0.017-0.202 0.048-0.299 0.093-0.1 0.043-0.198 0.1-0.293 0.169-0.097 0.071-0.19 0.153-0.28 0.248l-0.126 0.189-0.093 0.183-0.062 0.181-0.032 0.175-9e-3 0.132 4e-3 0.241 0.055 0.242 0.105 0.242 0.158 0.238 0.218 0.206 0.228 0.151 0.238 0.1 0.249 0.045 0.031 2e-3 0.033 0.012 0.038-6e-3 0.03 2e-3 0.267-0.01-0.074 0.85 0.014 0.016 0.236 0.015 0.015-9e-3 0.083-0.953 0.016-1e-3 0.026-7e-3 0.1-0.045h0.025l-0.091 1.015 0.015 0.014 0.227 0.018 0.015-0.012 0.106-1.225 0.186-0.177-0.123 1.415 0.011 0.012z" fill="#00adef"/>
  </g>
  <g transform="matrix(7.6025 0 0 -7.6025 84.523 -120.99)">
   <path d="m0 0 0.174-0.013 0.161-0.065 0.14-0.119 0.123-0.168 0.018-0.059 0.016-0.059 0.011-0.065 6e-3 -0.067 0.118-1.353-0.014-0.013-0.239-0.019-0.014 0.011-0.127 1.459-0.058 0.123-0.072 0.086-0.089 0.048-0.102 0.01-0.08-7e-3 -0.125-0.055-0.085-0.071-0.05-0.085-8e-3 -0.104 6e-3 -0.074 0.023-0.091 0.058-0.076 0.089-0.061 0.12-0.044h0.04l0.01-4e-3 2e-3 -1e-3 0.021-0.241-9e-3 -0.01-0.155 0.01-0.142 0.055-0.131 0.1-0.121 0.142-0.03 0.058-0.022 0.059-0.018 0.063-9e-3 0.068 9e-3 0.16 0.055 0.147 0.101 0.132 0.148 0.118 0.058 0.027 0.06 0.024 0.065 0.015z" fill="#00adef"/>
  </g>
  <g transform="matrix(7.6025 0 0 -7.6025 84.233 -124.14)">
   <path d="m0 0c0.101 7e-3 0.197 0 0.287-0.02 0.093-0.018 0.18-0.049 0.263-0.095l0.234-0.176c0.073-0.072 0.143-0.158 0.207-0.254l0.042-0.104 0.034-0.107 0.025-0.109 0.013-0.114 0.12-1.371-0.013-0.013-0.23-0.018-0.015 0.012-0.112 1.285c-8e-3 0.096-0.024 0.182-0.045 0.26l-0.086 0.211-0.128 0.157-0.165 0.106-0.1 0.047-0.103 0.032-0.107 0.015-0.107-2e-3 -0.232-0.049-0.191-0.115-0.151-0.178-0.11-0.239-0.017-0.23 0.054-0.229 0.116-0.189 0.183-0.15c0.07-0.042 0.152-0.08 0.244-0.108l0.21-0.021 0.028-0.242-0.013-0.013-0.229 9e-3 -0.217 0.067-0.209 0.121-0.195 0.177-0.092 0.13-0.069 0.137-0.046 0.148-0.025 0.152c-8e-3 0.098-4e-3 0.193 0.014 0.283 0.019 0.09 0.051 0.176 0.097 0.258l0.177 0.23c0.073 0.073 0.159 0.139 0.258 0.201l0.105 0.042 0.105 0.032 0.097 0.02 0.094 0.014" fill="#00adef"/>
  </g>
  <g transform="matrix(7.6025 0 0 -7.6025 93.447 -123.36)">
   <path d="m0 0 0.125-0.189 0.094-0.185 0.062-0.181 0.031-0.173 0.13-1.483-0.013-0.014-0.23-0.017-0.014 0.011-0.128 1.444c-7e-3 0.1-0.029 0.195-0.062 0.285l-0.137 0.254-0.206 0.222c-0.08 0.069-0.173 0.133-0.278 0.19l-0.152 0.056-0.149 0.036-0.143 0.018h-0.136l-0.059-6e-3c-0.101-7e-3 -0.198-0.026-0.289-0.059-0.091-0.031-0.177-0.074-0.257-0.131l-0.225-0.203c-0.069-0.078-0.134-0.171-0.193-0.273l-0.053-0.151-0.036-0.145-0.018-0.142 2e-3 -0.137 6e-3 -0.056c9e-3 -0.1 0.031-0.196 0.062-0.286 0.035-0.091 0.08-0.177 0.139-0.257l0.212-0.225c0.082-0.07 0.178-0.135 0.284-0.193l0.157-0.05 0.146-0.032 0.138-0.016h0.129l0.013-0.013 0.02-0.227-0.011-0.015-0.035-2e-3 -0.242 5e-3 -0.245 0.057-0.244 0.103-0.246 0.153-0.216 0.219-0.16 0.229-0.108 0.241-0.05 0.252-0.011 0.131c-9e-3 0.104-5e-3 0.209 0.013 0.309 0.017 0.101 0.048 0.201 0.093 0.298 0.044 0.1 0.103 0.196 0.172 0.289 0.071 0.096 0.155 0.188 0.252 0.279l0.193 0.121 0.187 0.091 0.184 0.059 0.176 0.031 0.135 8e-3c0.105 9e-3 0.208 4e-3 0.312-0.014 0.105-0.02 0.205-0.051 0.303-0.096 0.099-0.044 0.198-0.102 0.294-0.172 0.096-0.068 0.19-0.152 0.282-0.248" fill="#00adef"/>
  </g>
  <g transform="matrix(7.6025 0 0 -7.6025 71.998 -119.22)">
   <path d="m0 0 0.05-2e-3 0.024-3e-3 0.011-4e-3 5e-3 -2e-3 0.021-0.242-9e-3 -0.011-0.058 1e-3 -0.059-5e-3 -0.091-0.022-0.08-0.054-0.061-0.085-0.042-0.115-4e-3 -0.078 0.115-1.32-0.013-0.014-0.242-0.02-0.015 0.012-0.104 1.19 2e-3 0.233 0.049 0.195 0.098 0.155 0.143 0.116 0.051 0.021 0.063 0.02 0.068 0.018z" fill="#00adef"/>
  </g>
  <g transform="matrix(7.6025 0 0 -7.6025 69.37 -121.85)">
   <path d="m0 0 0.079 0.026 0.092 0.022 0.099 0.017 0.113 0.011 0.015-0.02 0.021-0.229-0.012-0.016-0.102-6e-3 -0.226-0.052-0.187-0.113-0.148-0.177-0.107-0.239-6e-3 -0.053-5e-3 -0.05-2e-3 -0.052 4e-3 -0.051 0.115-1.339-0.013-0.015-0.243-0.018-0.013 0.01-0.109 1.237c-0.011 0.13-6e-3 0.253 0.013 0.364 0.023 0.11 0.06 0.213 0.113 0.304 0.053 0.093 0.121 0.176 0.206 0.249 0.086 0.074 0.186 0.136 0.303 0.19" fill="#00adef"/>
  </g>
  <g transform="matrix(7.6025 0 0 -7.6025 71.998 -125.67)">
   <path d="m0 0 0.016-0.013 0.019-0.228-0.011-0.015-0.103-7e-3c-0.09-7e-3 -0.175-0.023-0.259-0.048l-0.235-0.106-0.212-0.158-0.187-0.216-0.094-0.179-0.066-0.18-0.031-0.183v-0.184l0.118-1.342-0.014-0.015-0.234-0.018-0.014 0.012-0.123 1.399 8e-3 0.265 0.073 0.264 0.135 0.261 0.196 0.255 0.209 0.171 0.213 0.129 0.217 0.084 0.221 0.039z" fill="#00adef"/>
  </g>
 </g>
</svg>
