<svg width="800" height="319.15" version="1.1" viewBox="0 0 211.67 84.441" xmlns="http://www.w3.org/2000/svg">
 <g transform="translate(-37.286 103.05)">
  <path d="m76.547-75.643c-0.77894 0.43435-1.3982 0.6642-1.8643 0.69496l-0.61298-0.20994-0.69587-0.14478 1.5324-0.33843 0.76609 0.0181 0.87467-0.0181m-3.5562-0.16288-0.80446 0.58094-0.19799-0.31852 0.75975-0.54837zm-6.3718-0.82346-0.15383 0.34386-1.0151-0.47236 0.08325-0.33843zm-1.6026-0.36377-0.17917 0.3511-0.82997-0.52303 0.17917-0.32576zm-14.091 0.54837-0.64483 0.26242v-0.07239l0.17193-0.49769 0.47254 0.31309m5.197 17.347c-0.21699-4.514-1.3727-7.1315-3.4732-7.8339l-0.10859 0.67686 0.10859-0.67686-1.6152-0.37101 0.10135 0.52303-0.1665 0.60628-0.48521-0.77278c0.02534 0.60085-0.1665 0.92481-0.63216 0.93928l0.33843 0.12669-0.18514 0.3511 0.53624-0.1846 0.66401 0.38368 0.19148 0.82346-0.23618 0.10859-0.17917-0.05429-0.17193-0.27509-0.37662 0.62619-0.37662-0.3511 0.32558-0.5357-0.67668 1.3338-0.95774-0.58818c-0.10859 0.73478-0.3511 1.7935-0.70872 3.1539l-0.3511-0.34567 0.25536-0.78545-0.24269-0.40178-0.21066 0.57552-0.21066 0.58818 0.53624 11.186 4.3096-0.20451c2.9241-0.14478 4.2585-3.0263 3.9967-8.6255m-12.993-10.362-0.03801-0.81079-0.40865 0.01267 0.03258 0.81079zm-0.05067-1.1239-0.1285-2.6048-0.41499 0.01267 0.1285 2.6177zm24.37 50.891-8.9065 0.42168-6.7293-23.08-3.5881 0.18098 1.1174 23.342-3.8946 0.19184-1.9665-41.614c-0.01991-0.57552-0.17193-1.0732-0.42132-1.5076l2.0239 42.917-4.8204 0.22984-0.32558-7.4573-0.70238-0.40178 0.62565-0.78545-2.2729-47.91c0.67668 0.07239 1.3662 0.09049 2.1005 0.0362 0.81079-0.0181 1.6473-0.12669 2.5283-0.28776 0.05791 0.38911 0.11402 0.89947 0.14116 1.5836l0.3064 0.18098c-0.02534-2.3368 0.04524-4.8267 0.18514-7.4381 0.1285 2.969 0.38947 5.0055 0.76609 6.0653 0.68953-0.10859 1.5132-0.14478 2.4517-0.20451 1.8388-0.09049 4.1244-0.09049 6.9017-0.0181l0.17917-0.36377-0.17193-0.24975 0.8173 0.56104 0.30006-0.38911 0.53624 0.56104 0.76609-0.32576 0.22984 0.41444c5.6248 1.5076 8.6447 6.6336 9.0533 15.425 0.15926 3.3519-0.01279 6.0206-0.53624 7.9808-0.67668 2.4197-2.0558 4.7755-4.1627 7.0292zm-29.758-7.1378-0.38313 0.01267-0.01991-0.59361 0.37028-0.01285z" fill="#55bded"/>
  <path d="m100.96-37.099-0.20432 0.87413c-0.15926 0-0.44051-0.3511-0.82364-1.0605l1.028 0.1846m-2.9944 10.19-0.01991-0.61352-0.36395 0.0181 0.038 0.58818zm-1.079-5.7908c-0.7279-0.66962-1.1045-1.142-1.1174-1.3917l0.53624-0.79812c0.03258 0.09049 0.24269 0.82346 0.58094 2.1899m-2.6751-2.8155-0.03258-0.82346-0.41499 0.0362 0.05791 0.79812zm-0.61931 1.2198-0.36395 0.0181-0.12126 0.81079 0.37662-0.01303zm-0.42132 0.38911-0.04525-1.0479-0.40865 0.0181 0.05791 1.0479zm-0.2617-1.0985-0.33192-1.2451h-0.35762l0.28088 1.2705zm-0.71505-2.8922-0.81079 0.05429-0.96408-0.6642 0.49154-0.61895c0.52991 0.20994 0.95123 0.63162 1.2833 1.2325m-2.573 1.0334-0.05067-1.2705-0.37662 0.0181 0.07058 1.2578zm5.1332-0.54837c-0.1665-0.07239-0.74057-0.48502-1.6983-1.2198-0.83631-0.6642-1.3472-0.99539-1.5003-0.97729l-1.2003 0.28776-1.2705 0.27509-0.15926 0.01285 0.19148 0.62619 0.43417-0.10859 0.62565 0.23708-0.11583 1.0732 0.02534 0.3511 0.06334 0.67686c0.29373-0.68953 0.49806-1.2379 0.64483-1.6089 0.68953 0.12669 1.0662 0.54837 1.0853 1.3085l-0.01991 0.18098 0.55543-0.28776 0.09592 0.01303-0.73423-0.69496 0.3511-0.3511 0.58728 0.33843 0.30006-0.37644 0.24269 0.43978c-0.15383-0.82346-0.24269-1.1872-0.22351-1.1112l0.54909 0.56104-0.05791 0.69496-0.07058 0.6841 0.82364-0.26242-0.14116-1.0605 0.61298 0.30043m-4.1051 4.2646-0.45335-1.3338v-0.58818l-0.41499 0.7022-0.93856-0.86146c0.10859 0.60085 0.20432 1.0479 0.27455 1.3212 0.66401-0.20994 1.028-0.0362 1.0598 0.54837l-0.11402 0.76012zm-2.2154-6.0719-0.41499 0.05429-0.15383 1.2705h0.37662zm-3.4987-37.522-0.01991-0.37644-0.8173 0.0362 0.0064 0.37644zm-0.45969 32.121-0.26821 0.61352c-0.33843 0.0181-0.70238-0.31309-1.079-0.98272 0.22984-0.01285 0.70238 0.12669 1.3472 0.37101m-0.58728 7.087-0.61298-1.0026 0.02534 0.43978 0.05791 0.78545 0.52991-0.2226m-1.1492 1.3592-0.35762-0.07239-0.22984 0.56104 0.30006 0.12669zm-0.15926-5.1778-0.01991-0.40901-1.9281 0.30586 0.01278 0.41444zm3.2178-3.7414-3.6456-17.896-1.7941 16.587 0.61931 1.0605 0.82364 0.8868-0.88752 0.26242c0.64483 0.28776 0.96408 0.5357 0.93856 0.82346l-1.3025 0.61895 2.2474-0.28957-0.23618 0.5357 0.93856 0.52303-0.43417 0.68953 1.0853-0.07239v-0.1846c-0.01991-0.43978 0.18514-1.0479 0.63198-1.8196 0.3321-0.56104 0.68953-1.1492 1.0151-1.7374m-5.0374 0.77278-0.05067-1.0479-0.40214 0.0181 0.05067 1.0352zm-8.185-4.4628-1.0471 0.05429 0.03801 0.81079 0.78527-0.0181 0.22351-0.83613m-1.8069-31.648c0.08868 1.3592-0.01278 3.3774-0.31925 6.0078-0.30006 2.6687-0.41499 4.6544-0.34477 5.9631 0.01991 0.78545 0.10135 1.5076 0.22351 2.2092-0.17917-0.8868-0.4405-2.2474-0.79812-4.0415l-0.17917-0.56285-0.01991 0.16288c0-0.16288 0.19799-1.4931 0.59379-3.9904 0.19799-1.3212 0.48521-3.3136 0.82997-5.9823zm0.53624 59.032-0.04525-0.60085-0.40214 0.01285 0.02534 0.61352zm-3.0837-24.389-0.54276-0.3511-0.50439 0.8868 1.0471-0.5357m-0.89386-0.77278-0.87467-0.24975 0.0128 0.31852 0.77894 0.23527zm-7.0358-0.26242-0.60013 0.0362-0.02534-0.37101 0.61298-0.05429zm-0.75342-2.1325-2.4836-0.81079 1.0406-0.38911c0.33192 0.26242 0.81079 0.6642 1.443 1.1999m39.923 27.109-8.6766 0.42168c-0.91938-4.4117-1.8196-8.402-2.6815-12.009-2.988-0.12669-5.6184-0.14478-7.8913-0.0362-0.7279 0.0362-1.1747 0.37644-1.3152 1.0406-0.05067 0.18098-0.05067 0.78545-0.01278 1.8196l-0.07601 0.94471c-0.13392 1.399-0.32558 3.4158-0.59379 6.0717-0.06334 0.67686-0.32558 1.1366-0.77894 1.3845l0.44702 0.12669 0.04525 1.2705-8.4532 0.39635 2.2283-18.988c-0.3958-0.16288-1.5258-0.74021-3.3966-1.7627-0.97693-0.51036-2.4134-1.1166-4.3543-1.7935-1.5387-0.47236-3.818-1.2451-6.8698-2.2921-0.15926-0.07239-0.56828-0.3511-1.1621-0.8868l-1.3599-0.56104-0.40214-0.45969 0.02534-0.16288-0.42784-0.23708c0.55543-0.27509 1.2323-0.43435 2.0303-0.47236 0.45969-0.01285 1.443 0.5357 2.956 1.6596 1.5068 1.1239 2.5219 1.6849 3.0327 1.6469 2.1899-0.10859 4.5266 0.89404 7.023 3.0263 0.49154-0.0181 1.0343-0.24975 1.6536-0.66962l-0.71505-0.65153 1.4174-0.05429 0.48521-0.05429 0.17193-0.07239 0.35762-0.37644 0.05067-0.16288c-0.03258-0.31309-0.98326-0.77278-2.8667-1.3592l-0.1285 0.62619-0.07058-0.09049 0.29373 0.54837-0.51072 0.19727-0.14116 0.5357-0.8173 0.0362c-0.08868-0.09049-0.49806-0.47236-1.2258-1.1366-0.61931-0.56104-0.93204-0.93204-0.93204-1.1166l0.17917-0.49226-0.05067-1.2578-0.48521-0.12668c-0.50439 0.0362-0.71505 0.38368-0.62565 1.0732l-1.328 0.07239 0.86834-0.30043c-0.42784-0.65696-0.95774-1.1691-1.6473-1.5329l0.59379 0.01285c0.56176-0.0181 1.2641-0.16288 2.1261-0.39634l-0.9449-0.8488c0.79179 0.36377 1.3599 0.6841 1.6855 0.99539-0.01991-0.27509-0.05791-0.72211-0.09592-1.3338 0.90019 0.40177 1.545 0.60085 1.9026 0.56104l0.42784-0.22441 0.44684-0.24975 1.0982 0.38368 0.06334-0.14478-0.37028-0.6841c0.61298-0.21718 0.90653-0.3131 0.84282-0.30043l0.64483 0.64429 0.30006-0.43435 1.0917 0.81079c0.62565-2.7708 0.93223-4.8267 0.86201-6.1227 0-0.14478-0.32558-0.76011-0.95123-1.8324-0.67668-1.1619-1.0535-1.8835-1.1876-2.1835-0.28088-0.81079-0.49806-1.8451-0.63216-3.1411 0-0.74745-0.1285-1.8324-0.33192-3.2307 0.08325 0.12669 0.42132 1.4822 1.0151 4.1245 0.49154 2.209 1.2131 3.8306 2.1005 4.9033l2.5666-20.303 10.93-0.52303c0.06334 0.26242 2.9497 13.107 8.6766 38.531l0.60013 0.36377c-0.13392 0.3511-0.18514 0.93204-0.13392 1.7428h-0.15383c-0.38947-0.0362-0.90653 0.19184-1.5771 0.71487l0.99593 1.4044-0.12126-0.24975 0.03801 0.58818c0.03801 1.1239 0.33192 2.2219 0.8173 3.205l0.28088-0.16288-0.38313-1.3085 0.75975 1.0605-0.01292 0.37101c0.02534 0.60085 0.31291 1.1112 0.83631 1.5709 0.42765 1.7374 1.0727 4.367 1.9217 7.8978m-46.435-27.013-0.48521 0.5357c-0.52339-0.19727-1.0853-0.69496-1.7492-1.4804 1.0214 0.56104 1.545 0.82346 1.5771 0.82346l0.24251-0.12668-0.1665-0.23527 0.58094 0.48503m-2.9624-0.38368-1.277-0.18098-0.02534-0.40901 1.296 0.20994z" fill="#55bded"/>
  <path d="m127.91-76.728-0.22351 0.61352-0.36395-0.10859 0.28739-0.60085zm-1.7367 19.339-0.41499 0.0181-0.038-0.82346 0.40865-0.01285zm-0.10135-2.2282-0.40865 0.0181-0.0507-0.82346 0.40866-0.0181zm-0.0507 0.76011-0.83631 0.30043-0.0199-0.3511 0.7469-0.28776zm-0.0833 10.86-0.0129-0.61352-0.37028 0.0181 0.0199 0.60085zm-0.12126-3.4413-0.41499 0.58818-0.30006-0.65153 0.0253 0.18098 0.63216 1.0207-0.34477 1.2325 0.0452 0.44702c0.30006-0.61895 0.42765-1.5582 0.35761-2.8155m-0.65116-9.0023h-0.7726l0.70871-1.399zm-0.74691-5.5481h-0.37643l-0.0579-1.2632 0.36395-0.01285zm-0.0253 4.0286-0.37662 0.0181-0.0633-1.0479 0.37661-0.01267zm-5.1139 18.937-0.31291-1.909h-0.37662l0.31925 1.9345zm-3.1859-59.657-0.58746 0.0181-0.0199-0.37101 0.60013-0.0181zm2.79 65.62-0.26169 0.58818-0.31292-0.10859 0.22351-0.5737zm-0.20432 4.9735-0.38314 0.0181-6e-3 -0.60085 0.35761-0.01285zm-0.15926-3.3136-0.37662 0.01285-0.0253-0.58818 0.36395-0.01285zm-0.0887 1.3791-0.48521 0.6642 0.0199-0.30043-0.1285-0.18098 0.1665 0.0181 0.42784-0.21718m-0.95123-14.614-0.21699 1.0207h-0.41499l0.22984-1.0207zm0.35762 10.886-0.076 0.98996-0.0887 0.99539-0.41498-1.1112 0.58094-0.87413m-0.35761-0.51036-0.36395 0.01285-0.0199-0.58818 0.37028-0.0362zm-0.40865-1.7682c-0.18515 0.77278-0.2874 1.399-0.31925 1.8322l-0.23618-0.97005-0.23618-0.76011-0.0326-0.78545h0.26822l0.23617 0.29319 0.31925 0.38911m0.27455 8.7533-0.6832 0.28776-6e-3 -0.32576 0.51073-0.28776zm0.10135-14.978-0.51724 0.58818-0.48521-0.32576-0.49805-0.48502 0.47887-0.81079 0.97041-0.0362zm-0.97023-2.0559-0.21066 0.77278-0.5938 0.20994 0.42132-1.3085 0.38314 0.32576m1.2194-1.9919c-0.12126-0.3131-0.47254-0.84879-1.079-1.6089-0.0129-0.65153-0.1466-1.3338-0.32559-2.0623 0.0453 0.75288-0.0253 1.1999-0.15383 1.3592l-0.38947-0.24975 0.0887 0.41444-0.3511 1.142 0.46602-1.1166c0.35762 1.1438 0.56177 2.0302 0.58095 2.6687l0.64483-1.1619 0.51706 0.61352m-0.0253 18.292c-0.49154-0.38911-0.76609-1.0207-0.78527-1.8963l-0.038-0.18098c-0.40231-0.67686-0.62564-1.0026-0.62564-1.0732l0.13392-0.61352 0.13393-0.63886 0.15383 0.89947c0.0129 0.3131 0.33843 1.0605 0.97693 2.2666zm-0.0507-11.371-0.77894-0.60085c-0.3064 0.73478-0.46602 1.3085-0.44684 1.7428l0.61931 0.86146-1.0598 0.05429 0.14116-0.98272-0.45335-1.1239 0.71505-0.0362c0.12125-0.16288 0.20432-0.62619 0.17917-1.399 0.29373 0.3131 0.65116 0.79812 1.0853 1.4877m-1.7812 3.403-0.37028 0.0181-0.038-0.60085 0.37029-0.01285zm-0.12849 6.2697-0.39581 0.0181-0.0253-0.58818 0.40213-0.0181zm-1.7173 1.6216-0.38947 0.0181-0.038-0.60085 0.40865-0.0181zm-2.4708-52.449-0.43417 0.01285-0.0579-1.2578 0.42132-0.0181zm-0.14117-2.8794-0.40865 0.0362-0.12126-2.3815 0.42133-0.0362zm-0.19799-4.0159-0.40865 0.01285-0.0326-0.82346h0.42132zm2.0686 48.025-0.0253-0.60085-0.38313 0.0181 0.0253 0.60085zm-0.52991-1.6089-0.33843-0.09049-0.2427 0.56104 0.30007 0.12669zm-0.30006-1.265-0.0633-1.9025-0.40231 0.0181 0.12125 1.9025zm0.33191 2.0751-0.36395 0.01285-0.17193 2.1772 0.40214-0.0181zm-0.31291-6.4485-0.35762 0.0181-0.1665 1.941 0.3958-0.0181zm-0.1285-2.6687h-0.35743l-0.1285 2.407 0.38314-0.01303zm-4.1244-6.9847-0.38313 0.0181-6e-3 -0.60085 0.37028-0.01285zm28.328-20.462-5.5673 56.127-7.5019 0.3511-3.4477-16.102-0.35761-0.34386-1.3088 0.56104 0.33192-0.75288 0.53624 0.41444 0.45335-0.61352-0.0959-0.52303-0.0959-0.51036-0.99593-0.32576 0.0633 1.3085-0.50439-0.39634-0.11583 0.33843 0.24903 0.73478-0.6832-0.82346 0.35762-0.38911c0.0959-0.97005 0.37028-2.0941 0.82997-3.3646l-0.65117-0.12669-0.0633-0.39634 0.0507-0.79812-0.25537-0.98272 0.0706-0.26242 0.25536-0.05429c-0.0453-0.93928-0.26821-1.6976-0.69587-2.3305-0.28088 0.18098-0.7469 0.39634-1.3662 0.70944l0.14659-1.399-0.51706-0.38368c-1.3088 9.0407-1.8962 15.087-1.7175 18.164-0.22985-0.23708-0.40866-1.6089-0.52358-4.0862-0.0579-1.1746-0.10859-2.5603-0.12849-4.1819l-0.79161-0.33119c0.14117 2.2921 0.2427 4.9863 0.27455 8.1274-0.2874 2.3431-0.73424 5.8867-1.3407 10.573l-7.2465 0.36377-10.886-55.329 8.1531-0.40178 5.9185 31.763 3.2753-29.318c0.0199 1.909 0.2874 3.8435 0.75342 5.8227l-0.3511 0.68953 0.58746 12.182 0.33843 0.18098c0.0959-0.07239-0.038-3.7732-0.3958-11.058l0.35743-0.6642c6e-3 0.18098 0.0326-0.09049 0.0199-0.78545l-0.0199-0.44702-0.12849-2.7581-0.40214-8.1915c-6e-3 -0.38368-0.0326-0.93204-0.0326-1.6922 0-0.75288 0-1.3031-0.0199-1.6723 0.0199 0.49769 0.076 1.2451 0.17193 2.2092 0.076 0.95738 0.13392 1.6795 0.15383 2.1899 0.44684 0.0181 1.0853 0.0181 1.8771-0.0181 1.2002-0.0362 2.9178-0.16288 5.2034-0.30586l4.4758 20.424c-0.0199-0.41444 0.26822-1.0081 0.84916-1.8062v-0.01267l-0.58094 1.0605 0.14116 3.0517 0.82364 0.67686-0.53624 0.43435 0.41498 0.36377 0.56828-0.49226 0.71505 0.41444 0.10859-0.63886 0.51724 0.61352 2.1324-24.363z" fill="#55bded"/>
  <path d="m171.69-53.236-0.40901 0.01303-0.0362-0.89947 0.42169-0.0181zm-0.0181-9.6916-0.77278 0.45245-0.22984-1.0605c0.64429-0.05429 0.97005 0.18098 1.0026 0.60628m-0.26784 8.4595-0.40178 0.0181-0.0905-1.4116 0.42711-0.01285zm-3.3966-3.5562h-0.42711l-0.0724-1.6469 0.40177-0.01285zm-1.6469-8.383-0.41445 0.0181-0.0543-0.90671 0.42711-0.0181zm-0.75976-5.2736-0.28739 0.68953-0.35762-0.14478 0.32559-0.61895zm1.3919 30.754c-0.65153 0.70944-1.2777 1.0985-1.8133 1.1239 0.38947-0.41444 0.86834-0.98996 1.4238-1.7374l0.38911 0.61352m-2.4453-6.2633-0.40866 0.01303-0.038-0.65696 0.3958-0.01285zm-1.0343-26.611-0.28088 0.68953-0.3511-0.14478 0.3064-0.63162zm1.3152 19.479-0.19148 1.1746-0.96408-0.24975 0.23618-1.1366 0.91938 0.20994m-0.51724 15.463-0.66402 0.0362-0.0199-0.41444 0.67034-0.0362zm-0.74057-2.5667-0.41499 0.01303-0.0129-0.65153 0.3958-0.0181zm9.5003-2.2346-0.29319-6.2952c-0.63886-0.28776-0.97005-0.87413-0.95195-1.7247l-0.0181-0.5357 0.19184-0.01285c0.42711 0.92481 0.62619 1.4877 0.62619 1.7103l-0.73478-15.936v-0.30043c-0.20994-2.0239-0.46693-3.9264-0.77821-5.663-0.0724-0.58637-0.45969-1.3212-1.1691-2.2346-1.2578-1.6161-2.9498-2.3687-5.1141-2.2666l-1.0343 0.07239 1.2131 1.3592 0.3064-0.51036 0.75975 0.31852c-0.32576 0.19184-0.86182 0.51036-1.5514 0.96462-0.31292 0.01285-0.69587-0.71487-1.1045-2.1835-0.11402 0.39635-0.3958 0.91938-0.88753 1.5329l-1.1366-1.4424 0.28088 5.9312 0.64483-0.51036 0.52358 0.38911c-0.26822 0.91938-0.64483 1.5709-1.1174 1.9537l0.14659 3.1094 0.97041 0.3131-0.91937 0.78545 1.5515 32.644 3.7605-0.1846c4.2584-0.20451 6.1866-3.9712 5.8355-11.288m-12.284-48.484c-0.0633 0.42711-0.6832 1.0026-1.8515 1.7229 0.62565 1.0207 0.93856 1.6795 0.95774 2.0047l-0.0199-0.1846-0.0199-0.42168-0.0832-0.40177-1.4811 0.07239-0.0887-1.3338c-0.0832-1.6216-0.0959-2.4836-0.0832-2.5922l1.0343 0.76011 0.95123 0.64429 0.68319-0.26242m-8.3638 24.906-0.14659-2.8731-0.40865 0.0181 0.12849 2.8731zm0 2.5283-0.0832-1.4424-0.6832 0.33119 0.76609 1.1112m-0.6832-11.262-0.3064 0.67686-0.33191-0.14478 0.25536-0.63162zm-4.6926-4.7373-0.37662-0.10859-0.27455 0.61895 0.36395 0.16288zm1.3535 45.592-0.55542 0.66962-1.3599 0.09049 0.7279-1.0479zm-3.9137-31.489-0.39581 0.0181-0.3511-1.8961 0.38947-0.01285zm38.186 26.662c0.19184 3.2817-0.4977 6.3973-2.1006 9.3279-1.7754 3.2433-4.1754 5.2354-7.1699 5.9823-0.39635 0.10859-0.99539 0.25518-1.8008 0.46693l-0.69496 0.1846-0.28052 0.14478-16.159 0.76554-1.7812-37.216-0.20432-0.09049-0.22985 0.12669 0.38314-0.88137c-1.2194-0.8488-1.8834-2.4836-1.9664-4.8778-0.0452-0.43435 0.0833-1.2198 0.33844-2.3687 0.29373-1.3592 0.42765-2.209 0.50439-2.5091l0.49805 0.47236c0.10859-0.37101 0.11583-1.3537 0.0326-2.988-0.1466-2.7581-0.45336-4.6671-0.97041-5.7014l-0.42766-0.1846c-0.33192 0.65696-0.46602 1.3085-0.4405 1.9663 0.0326 0.72754 0.28739 1.4623 0.71505 2.1964l-1.6152 0.07239-0.45968-0.42168c-0.2617 0.70944-0.7279 1.3085-1.4174 1.8196-0.33843-0.16288-0.84915-0.56285-1.5514-1.1872-0.42766 0.42711-0.75976 1.2831-0.89386 2.5601-0.10859 1.0081-0.19781 1.992-0.28722 2.9625-0.56176-0.39634-0.81078-0.95738-0.87467-1.6668 0-0.14478 0.1665-1.028 0.49806-2.6559-0.45336-0.72754-0.6832-1.0479-0.6832-0.97729-0.0199-0.40901-0.0199-1.0352 0-1.8453 0-0.83612 0-1.4551-0.0199-1.8706 0-0.333-0.1285-0.82346-0.31291-1.4822-0.20433-0.65153-0.31292-1.1492-0.32559-1.475 0-0.0362 0.0579-0.84336 0.17194-2.3687l0.87467-0.0362 0.74057 0.71487 0.67035-1.5329 0.29373 1.0334c0.0199 0.51036-0.076 1.1166-0.28088 1.7808l0.60646 0.14478c0.61931-0.0362 0.97693-0.26242 1.0917-0.6841-6e-3 -0.05429 0-0.51036 0.0199-1.3465 0.35111 0.12669 0.95123 0.19727 1.7877 0.14478 0.71505-0.0362 1.5195-0.98272 2.3814-2.8539l0.0579 1.0081 16.019-0.77278c3.4413-0.16288 6.5379 1.1746 9.2576 4.0415 2.6114 2.7453 4.0159 5.8737 4.2138 9.3532z" fill="#55bded"/>
  <path d="m207.52-40.03-0.67687-7.1827c-0.16288 0.81079-0.23527 1.4623-0.25518 1.9347l-0.83612 0.0181 0.0543 1.3791 0.8488-0.40901c-0.0362 0.37644-0.16289 0.91395-0.38368 1.5836 0.0362 0.38911 0.12669 0.95738 0.31852 1.7374 0.21718 0.78545 0.3312 1.3664 0.3511 1.7428l0.58095-0.81079m-3.3327-21.273h-0.3511l-0.27509 0.81079 0.33843 0.14478zm1.9984 23.744-0.55561 0.60085c-0.73478 0.0362-1.1438-0.24251-1.1492-0.81079-0.0362-0.68953 0.33843-1.0406 1.1492-1.0859 0 0.19727 0.20451 0.61895 0.55561 1.2958m-1.0153-5.1652c-0.73478 0.41444-1.0913 0.81079-1.0732 1.1619l1.104 0.48502-0.0362-1.2705zm-1.3338 2.4581-0.0905-1.399-0.58818-0.27509-0.3131 0.65153c0.0362 0.16288 0.3312 0.49769 0.98272 1.0207m-0.0905-22.723-0.64429-0.26242-0.3891 0.97729-0.4796-0.18098c-0.38367 0.01267-0.5556 0.32576-0.5357 0.92662l1.1366 0.2226c0.60085-1.0732 0.91213-1.6469 0.91213-1.6849m0.83613 12.833-1.2759-0.70944-0.51036 0.95738-1.0479-0.14478 0.57551 1.1239 0.6642-0.27509 0.31309 0.72211c0.37101-0.40178 0.80536-0.95195 1.2832-1.6723m-0.72754 14.104-1.0786-0.07239-0.55561-0.6841 0.0362-0.68953-1.0732 0.95195c0.61895-0.0362 0.95195 0.20994 0.97729 0.69496l-0.16288 0.71487 1.0859-0.05429 0.77278-0.87413m-2.7134-12.68-0.31309 0.61895-0.33119-0.10859 0.29318-0.63886zm-0.69677-9.5896-0.0543-1.1239-0.41445 0.0181 0.0543 1.1239zm-0.0905 12.833-0.0362-0.61352-0.40178 0.0181 0.0181 0.61895zm5.5418-28.698c0-0.40901-0.26242-1.1293-0.68954-2.1645-0.45244-1.028-0.85603-1.6976-1.1619-2.0494-0.76555-0.8687-1.8771-1.2831-3.3774-1.2071-1.2904 0.07239-2.4199 0.64429-3.3774 1.7555-0.93204 1.1112-1.3791 2.3113-1.3338 3.5946l1.6668 34.911c0.0181 0.63886 0.31852 1.4496 0.8687 2.4452 0.5737 1.1366 1.1293 1.6723 1.6469 1.6596l0.65696-0.0362 0.40901-0.05429-0.0362-0.8687-1.3791-0.07239c-0.3891-0.14478-0.60628-0.49769-0.63886-1.1366l0.14479-0.70944 1.4171 0.51036c0.49226-0.0181 1.0461-0.22442 1.6415-0.65153l0.80355 1.4116 0.52303-0.26242 0.85604 0.42168 0.8868 0.43978c0.19726-0.01303 0.7022-0.46693 1.4949-1.3592-0.38911-0.58818-0.8687-1.4116-1.4424-2.5091-0.31309 0.36377-0.78545 0.86146-1.437 1.5257-0.30042-0.25518-0.65152-0.74021-1.0406-1.399 0.0181 0.63162-0.0905 0.97005-0.38368 0.97005l-1.1239-0.39634-0.74021 0.39634-0.79088 0.37644c-1.0479 0.05429-1.5763-0.40178-1.6415-1.3718 0-0.22442 0.26785-0.70944 0.79812-1.4949 0.51036 0.07239 1.0913 0.18098 1.7501 0.33119l0.47236 1.0207 1.0153-0.79812-0.0181-0.85603c-0.49227-0.43978-0.84337-0.92662-1.0207-1.5003l-0.32576 1.2379c-0.61352-0.28776-1.5637-0.38911-2.8284-0.33843v-0.09049c-0.0181-0.51036 0.5176-1.1166 1.6415-1.8062l-0.31309-0.81079c-0.60628 0.16288-0.86146 0.23527-0.78545 0.23527l-0.61895-0.33119c0.50493-0.38911 1.3085-1.028 2.4068-1.9345l0.89404 0.90671 0.32577-0.88137 0.33119-0.92662c-0.0128-0.28776-0.16288-0.68229-0.43435-1.2578l-0.42711-1.2325c-0.97005 0.0362-1.551 0.14478-1.7374 0.28052-0.3891-0.40901-0.95195-1.0207-1.6542-1.7682 0.0362-0.51036 0.0181-1.1492 0-1.9602l-0.67686-0.74744c-6e-3 -0.30043 0.25518-0.8488 0.81802-1.6089-0.2045-0.61895-0.31309-1.1565-0.3511-1.5582-0.0181-0.77278 0.57552-1.3845 1.8132-1.8706 1.2252-0.47236 1.8132-1.2451 1.7682-2.3176l-0.35834-0.56285-0.95738 0.74745c-0.23709-0.38368-0.54837-0.89404-0.95196-1.5329l-1.0207-0.61352 0.39634-0.43435 0.58638 0.2226c0.75287-0.76011 1.104-1.3085 1.0786-1.6976l-0.6642 0.4796v-0.07239l0.65153-1.1872 1.066-0.76011c0.30585-0.01267 1.0786 0.24975 2.3113 0.79812l0.18098-0.72211 0.62619-0.01267 0.74744 1.1746v0.07239c-0.37101 0.14478-0.91937 0.58637-1.6668 1.399 0.62619-0.30043 0.91214-0.44702 0.85603-0.44702 0.74021-0.05429 1.1293 0.33843 1.1746 1.1366l-0.0362 0.09049c-0.60628 0.5357-0.88137 1.0859-0.86146 1.6596 0.0128 0.38911 0.18098 0.90671 0.44702 1.5709 0.31853 0.6642 0.47236 1.1619 0.4977 1.5329 6e-3 0.68953-0.26242 1.5962-0.8488 2.7326l-0.50493-0.47236 0.0905 1.928c0.59361-0.65696 1.0859-1.0081 1.4424-1.0081l0.45968 0.10859-0.0905 0.05429 0.19184 3.5052-0.36377 0.59361 0.63886 0.42711-0.41444 0.64429-0.76012 0.0181 0.0905 1.7374c0.0129 0.10859 0.19727 0.47236 0.57552 1.0859l1.0985-0.28776zm-14.544 43.907-0.33844 0.0181-0.30042-0.5737 0.30585-0.12669zm-3.7349-17.494-0.41444 0.0181-0.0362-0.91214 0.39635-0.0181zm0.16288-1.7808-0.31852 0.62619-0.30586-0.09049 0.27509-0.65153zm-1.0153-10.764-0.40902 0.01285-0.0362-0.64429 0.3891-0.01285zm1.8062 29.433-0.95195-0.20451-0.0724-0.8687 0.91395-0.27509c0.0181 0.61895 0.0543 1.0859 0.10858 1.3465m-1.7374-18.043-0.42168 0.0062-0.0543-1.5962 0.41445-0.0362zm-0.8868-18.63-0.39635 0.0181-0.0724-1.3664 0.40902-0.01267zm1.2252 23.955-0.68229-0.56104 0.64429-0.61352zm29.548 3.3393c0.18098 3.8179-1.066 7.1315-3.7414 9.9982-2.6751 2.8602-5.9184 4.3797-9.7555 4.5648-4.4117 0.20994-8.632-1.8196-12.667-6.0717-0.37101-0.8868-0.85604-2.2219-1.4297-4.0286-0.46693-2.4581-0.79088-5.4844-0.97729-9.0917-0.37101-0.09049-1.0533-0.38368-1.9792-0.8687l0.16289-0.0362 0.97005 0.5357c0.61895-0.2226 0.92661-0.7022 0.88137-1.4116l-0.10859-1.2451-0.10859-1.1872c-0.89947-15.361-1.3592-23.08-1.3592-23.119-0.1846-4.2137 0.97729-7.8657 3.5114-10.975 2.6369-3.205 6.0143-4.9225 10.139-5.1205 3.9074-0.18098 7.323 1.0605 10.222 3.6648 2.8859 2.6432 4.4373 5.8992 4.6097 9.8002zm-29.771-0.47236-1.0334 1.1565-0.25518-0.27509 1.0207-1.1293zm-1.6668 10.298-0.40901 0.01285-0.0543-0.91395h0.41444zm-1.3592-23.693-0.41444 0.0181-0.10859-1.8706 0.40178-0.0181zm-0.63162-12.807-0.40901 0.0181-0.0543-1.1619 0.40177-0.0181zm0.3312 6.857 0.0362 3.0455-0.43978 0.0181-0.013-3.0455zm1.0913 27.237h-0.46692l-0.0724-1.5962 0.46693-0.0362zm-0.22441-4.5905-0.44702 0.0181-0.0724-1.3718 0.46692-0.01285zm0.16288-1.7048-0.42711 0.0181-0.42168-3.0453 0.45968-0.0181zm-0.26242-5.7524-0.20451 2.1325h-0.41444l0.16288-2.107zm-0.31852-1.2578-0.45245 0.01285-0.24975-5.2352 0.46692-0.0181zm-0.10859-7.406-0.21718 1.3736-0.41444 0.01285 0.19184-1.3592zm-0.91214-15.278-0.65695-0.45969 0.31852-0.26242c0.14478-0.33843 0.21717-0.87413 0.21717-1.5836zm-0.33843-12.565c0.12668 3.1668 0.16288 5.6567 0.10859 7.4764v-0.07239c0-0.3511-0.4977-0.74744-1.4804-1.1746l0.86147-0.65696 0.1846 0.31852 0.0362 0.16288c0.0181-0.19727 0.0181-1.5962 0.0181-4.2266l-0.58818-0.72754zm-0.91938 3.1413-0.39634 0.0181-0.33119-1.5836 0.41444-0.0362zm-0.81621 2.6561-0.54294 0.89404-0.32577-0.23708 0.5357-0.8488zm-1.0081-0.16288-0.40902 0.0181-0.0181-0.60628 0.42168-0.0181z" fill="#55bded"/>
  <path d="m243.89-46.152c0-0.18098-0.32577-0.45969-0.92481-0.8868-0.61352-0.43435-1.0352-0.63162-1.2506-0.61895 0.25518 1.2451 0.75288 1.8578 1.5003 1.8196l0.67687-0.31309m-14.448 12.156-0.45426 0.09049-0.45968-0.05429 0.60628 0.67686 0.30585-0.71487m-3.3582-12.405-0.28776 0.69496-0.33843-0.16288 0.24251-0.58818zm2.0176 8.4403-0.71487 0.74745 0.47235 0.18098c-0.12668 0.31309-0.3511 0.74744-0.69496 1.3465l-1.3917 0.09049c0.31309-0.61895 0.58094-0.94471 0.84336-0.97005l0.30586 0.12669 0.0724 0.12668c0.16288-0.66962 0.20451-1.6469 0.14479-2.9049 0.61895 0.27509 0.93928 0.69496 0.97728 1.2705m-1.7808-0.65696-0.0905-0.37644 0.0362 0.20994c0.0129 0.14478-0.0362 0.61352-0.12668 1.4623l-0.90671 0.09049 0.67686-0.60628 0.40178-0.77278m-4.4948-51.294-0.30043 0.63886-0.33843-0.10859 0.30043-0.62619zm-0.91938-8.7596-0.0905 0.91938-0.40901 0.0181 0.10859-0.93928zm0.0543 10.847-0.40902 0.0181-0.37101-1.5962 0.45426-0.0181zm-1.2451-0.20451-0.40902 0.0181-0.0543-0.65696 0.42711-0.0181zm0.54294-1.7175-1.0406 0.60085-0.38367-0.65153 0.76554-0.8488 0.65696 0.89947m-0.65696-4.4754c-0.53027 1.1166-0.76554 1.8578-0.73478 2.1962l-0.10859-0.95195-0.10858-0.90671-6e-3 -0.28776zm1.1746 37.081-0.0362-1.0859-0.20451 0.38911h-0.12668l-0.30043-0.1846 0.0724-0.30043-0.2226 1.2071zm-0.43435-6.6081-0.8868-0.20994 0.3891 0.23527-0.1846 0.79812 0.68411-0.82346m-0.10859 2.107-0.61352-0.58818-0.23528 0.26785 0.60629 0.59361zm1.1565 33.768-0.42711 0.0181-0.0543-1.1565 0.41445-0.0181zm-0.25518-5.0758-0.40178 0.01303-0.0362-0.64429 0.42168-0.0362zm-1.6469-29.477-0.0362-0.65696-0.41445 0.01267 0.0181 0.66962zm29.458 33.493-4.3927 0.20994c-0.64428-1.3917-1.1112-2.6624-1.3736-3.7732l0.8868 0.89404c0.33119-0.23708 0.83069-0.5357 1.5076-0.94471l0.0181-0.48502c-0.0362-0.96462-0.25519-1.8324-0.63886-2.6305 0.0543-0.30043 0.14478-0.76012 0.27509-1.4116l-0.57552-0.60085-1.9792 1.4931 0.0724 1.8261 0.68953 0.39634 1.028-0.26242c0.0181 0.60085-0.10859 0.91214-0.40178 0.93928-0.56103 0.0181-1.8259 1.0081-3.7859 2.9751-1.9602 1.9473-3.652 2.9561-5.0376 3.0072l-2.0366 0.10859c-3.2052 0.14478-5.7716-0.5357-7.719-2.0813-1.7428-1.3465-3.2305-3.6073-4.4754-6.7869-0.0543 0.38911-0.28052 0.95738-0.68411 1.6976 0.013-0.54837 0.19727-1.3085 0.54837-2.2729l-0.47959-0.18098-0.12669-3.0582c0.91214 0.41444 1.4171 1.0985 1.4678 2.0496l-0.1846 0.8687c0.48502 0.27509 0.88137 0.72754 1.1945 1.3465l1.104 0.61352 0.26785-0.12668 0.20993-0.14478 0.61352 0.62619c0.24252 0.42168 0.75288 0.69496 1.5329 0.85603l0.70944 0.10859c0.66963-0.05429 1.3592-0.42168 2.1388-1.1818 0.76554-0.76011 1.1999-1.4623 1.3085-2.1325 1.992 0.8687 3.2178 1.2958 3.6201 1.2831 3.5306-0.18098 5.1778-3.3838 4.8714-9.5896l-0.27509-6.0335-5.5354 0.26785-0.37644-7.8147 14.538-0.6841zm-30.295-56.299-0.46693 1.6976-0.35834-0.10859 0.44702-1.5962zm-0.54294-6.1868-0.26242 0.62619-0.38368-0.10859 0.32576-0.63162zm1.0406 2.9816-0.58094 1.1239-0.65696 1.1239-0.0181-0.20451c0-0.45969-0.14478-1.8451-0.47236-4.1243l1.1818 0.73478-0.70944 0.61352 0.24251 0.81079 0.6642-0.76011 0.35834 0.6841m27.977 17.96-9.3981 0.44702c0-0.28776 0-0.70944 0.0543-1.2958 0.0362-0.58818 0.0905-1.0081 0.0362-1.2958-0.27509-6.2632-2.1196-9.3279-5.5036-9.1682-2.3174 0.10859-3.7859 1.2705-4.3926 3.4797-0.3312 1.1691-0.41445 3.2305-0.28776 6.1993l1.265 26.707c-0.3891-0.26242-0.95195-0.61895-1.7121-1.1239l0.76011 0.0181-0.2045-0.79812-0.28776 0.14478-0.42168-0.10859c-0.14479 0.18098-0.22261 0.54837-0.20994 1.1239l-0.30043-0.84879s-0.3511-0.14478-1.1366-0.44702l-0.27509 0.51036 0.12669 0.07239c-0.44702-0.74744-1.0533-1.265-1.7754-1.5383l0.35834-1.0081 0.0543 0.91214 0.38368 0.14478 0.40177-0.38368-0.49226-0.51036 0.69496-0.28776-0.28776 0.97005 0.5357 0.93204 0.58819-0.20994-0.0905-1.6089-1.8643-0.83612-0.95739 0.63886-0.53027 1.0081c0.0543 1.0605 0.33844 1.5836 0.89404 1.5383-0.0543 0.0063 0.21718-0.07239 0.83613-0.24251l0.0181-0.12669-0.0181-0.0362 0.0181 0.0362v0.12669l0.0362 0.46693 0.0724 2.0559 0.20451 0.5357 0.18098 0.43435-0.27509 0.63886 0.0181 0.24975 1.1293 1.0985 1.2578-0.8868-0.65696-0.24975-0.48502 0.14478v-0.07239c0-0.23708 0.12668-0.6642 0.42711-1.3592 0.14478 0.07239 0.42168 0.44702 0.79812 1.1746l0.24975-0.37644 0.37644 1.0479-1.1818 0.51036 0.0181 0.62619 1.028 1.1565c-1.6089 0.01285-2.9625 0.03619-4.067 0.10859l-0.10859-2.209-0.61352-0.43435c-0.28775 0.36377-0.74744 0.93204-1.3537 1.7428l-1.3664 0.07239-0.31852-6.7677c-0.0362-0.95195-0.0543-2.5091-0.0129-4.6926 0.0362-1.0605 0.22441-1.5709 0.54837-1.6089l0.4995 0.25337c0.56104-0.0181 0.8307-0.45969 0.77278-1.2958-0.0181-0.37101-0.3511-0.73478-1.008-1.0207l0.45968-0.51036-0.8687-0.33843c-0.14478 0.14478-0.20993 0.52303-0.18098 1.1366-0.26785-0.69496-0.43435-1.8324-0.52303-3.454l1.3085 0.12669 0.0905-0.65696-0.24975-1.1112-0.21717-0.07239-0.40902 0.20451-0.37101-0.16288-0.0905 0.07239 0.84337 1.2071-0.59361-0.61895-0.23528 0.58818-0.95738-20.207 0.67686 0.60085 0.18098-0.93204c-0.0181-0.20994-0.32576-0.30043-0.97005-0.27509-0.0362-1.0479 0.0905-2.0239 0.37644-2.9176-0.0181 0.35834-0.10859 0.89404-0.22984 1.5836l0.68953 0.58818-0.21718-0.10859-0.30042 0.37644 0.0543 0.27509c0.0905-0.09049 0.89947-1.3338 2.375-3.7095 1.2379-1.9153 2.4836-3.1923 3.7095-3.7988 3.0454-1.5003 5.414-2.2984 7.0996-2.3687 4.1115-0.19727 7.6039 1.0081 10.528 3.6136 2.9049 2.6305 4.4564 5.9759 4.6416 10.075zm-27.888-24.97c-0.40177 0.3131-1.0026 0.86146-1.813 1.6089 0.42168 0.19184 0.66419 0.7022 0.76011 1.551l-0.52303 0.31852 0.0724-0.42168-0.26785-0.81079-0.26242-0.74745 0.42168-0.84879-0.35834-0.43435 1.1999 0.52303 0.77278-0.74021m1.6017 64.209c-0.58094-0.24975-0.8868-0.6841-0.91937-1.3212l0.85603-0.0362zm-2.656-12.335-0.25519 0.67686-0.32576-0.14478 0.24251-0.61895zm1.2126 11.409-0.60628-0.38368-0.14479 0.45969-1.2126-0.27509c0.47236-0.12669 0.98996-0.35834 1.5836-0.69496l0.37644 0.89404m-4.265-55.622h-0.42711l-0.0362-0.86146 0.40901-0.0181zm0.21718 9.6598-0.41444 0.01285-0.0724-1.6089 0.40902-0.01285zm1.4677 31.214-0.24975 0.6841-0.37101-0.14478 0.28052-0.63886zm-1.6415-26.949-0.61352 0.0362-0.0362-0.40901 0.62619-0.0362zm-0.12669 4.7373-0.40177 0.0181-0.0362-0.66962 0.41445-0.0181zm1.9984 36.449-0.24251 1.1239-0.40902 0.0362 0.22442-1.1366zm-2.8539-49.257-0.40177 0.0362-0.0362-0.66962 0.41445-0.01285zm1.6415 30.065-0.57552 0.65153-0.23708-0.27509 0.56828-0.60085zm1.1619 1.028-0.54294 1.142v0.10859l0.0905 0.81079 0.14478 0.76011-0.64429 0.27509c-0.0724-1.1112-0.34567-1.6342-0.87413-1.6089l-0.64428 0.27509v-0.98272l0.0724-0.24975c0.19727 0.31852 0.75287 0.45969 1.6469 0.40901l0.45969-0.43435 0.30043-0.51036m-2.209-1.8835-0.14478 0.33843-0.61895-0.26785 0.10858-0.37101zm-1.475-21.835-0.25519 0.97005-0.33843-0.12669 0.26242-0.81079zm1.7935 26.534-1.3157 0.07239c0.22261-0.01285 0.58095-0.3131 1.0913-0.8868l0.2226 0.82346m-2.107-15.674-0.64429 0.0362-0.0543-0.41444 0.65695-0.0362zm0.94471 8.9768-1.0026-0.31309-0.63162 0.22984-0.0543-0.91214 0.6823 0.42168 0.30042-0.51036 0.7022 1.0859m-3.0327-35.785-0.46693 0.0362-0.0181-0.67686 0.42711-0.0181zm2.7902 40.689c-0.28052-0.01285-0.45969 0.47236-0.54837 1.4297l-0.22984 2.2858c-0.34567-0.61352-0.55561-1.4623-0.61352-2.5348 0.56103-0.59361 0.82345-0.98272 0.82345-1.142l-0.16288-0.41444 0.73478 0.37644m-0.0905-0.93928c-0.45969 0.01303-0.95195-0.42168-1.4677-1.3085l0.45244-0.1846-0.22984-0.3131 0.91214-0.05429-0.40902 0.86146 0.74021 0.99539m-0.91938 0.72754-0.49226-0.18098c-0.1846 0.60085-0.22984 1.3212-0.19184 2.209-0.0362-0.12669-0.0905-0.67686-0.18098-1.6089l-0.0362-1.0207 0.89946 0.60085m1.4116 19.141h-0.77821c-0.013 0.42168 0 0.95738 0.0362 1.6216-0.10859-0.38911-0.31853-1.1239-0.69496-2.2474 0.33843-0.0181 0.81802 0.19727 1.4424 0.62619m-3.7095-13.51-0.24976 0.62619-0.40177-0.10859 0.30585-0.64429zm-2.8218-44.737-0.42168 0.0181-0.0362-0.8687 0.42169-0.0181zm2.4452 56.823-0.28776 0.69496-0.3511-0.16288 0.26242-0.62619zm-0.93929-14.838-0.42168 0.01285-0.0362-0.89947 0.40177-0.0362zm0.42712 6.7549-0.66963 0.0362-0.0181-0.90671 0.65696-0.0181zm0.51036 13.318h-0.37644l-0.31852-0.54837 0.33843-0.14478zm-1.2198-10.126h-0.42169l-0.0362-0.88137 0.40901-0.0181zm-1.2252-0.44702-0.42168 0.01285-0.0362-0.87413h0.42168zm-0.19183-4.0925-0.40902 0.0181-0.0181-0.65696 0.40902-0.0181z" fill="#55bded"/>
  <path d="m196.33-38.145h-115.72v-23.042h115.72z" fill="#212155"/>
  <path d="m148.42-47.873h8.4148v-4.1627h-8.4148v-1.7501h9.0406v-4.7502h-14.729v17.27h14.863v-4.7373h-9.1746z" fill="#fff"/>
  <path d="m131.05-52.474-3.6903-6.059h-6.027v17.27h5.6503v-8.5679l3.9776 6.1482h0.0887l3.984-6.1482v8.5679h5.727v-17.27h-6.0206z" fill="#fff"/>
  <path d="m92.701-46.078c-1.9026 0-3.237-1.5709-3.237-3.8179v-0.05429c0-2.0621 1.277-3.7541 3.237-3.7541 1.5834 0 2.4836 0.84879 3.122 2.0813l4.7629-2.7708c-1.4364-2.6432-4.0223-4.5138-7.8083-4.5138-5.1523 0-9.1682 3.8561-9.1682 9.015v0.05429c0 5.3374 4.1436 8.9447 8.9512 8.9447 4.2713 0 6.6974-2.1004 8.1403-4.6671l-4.7437-2.6816c-0.72138 1.2831-1.6281 2.1708-3.2561 2.1708" fill="#fff"/>
  <path d="m113.93-49.843c0 2.0047-1.3662 3.8435-3.5817 3.8435-2.1771 0-3.6009-1.8516-3.6009-3.8947v-0.07239c0-2.0047 1.3662-3.8243 3.569-3.8243 2.209 0 3.6136 1.8324 3.6136 3.8882zm-3.5817-9.0662c-5.3056 0-9.4108 4.0159-9.4108 9.015v0.05429c0 4.9992 4.0734 8.9384 9.3789 8.9384 5.3439 0 9.4428-3.9902 9.4428-8.9894v-0.07239c0-4.999-4.0734-8.9511-9.4108-8.9511" fill="#fff"/>
  <path d="m184.03-52.861-2.9496-5.6759h-6.48l6.5185 11.147v6.1227h5.7716v-6.1929l6.4995-11.077h-6.3654z" fill="#fff"/>
  <path d="m170.19-49.856c0 2.4707-1.7048 3.5562-4.335 3.5562h-0.95123v-7.1954h0.95123c2.6304 0 4.335 1.0859 4.335 3.5626zm-4.4499-8.6767h-6.6272v17.27h6.4229c6.9848 0 10.477-3.6328 10.477-8.7277v-0.05429c0-5.1139-3.4287-8.4914-10.273-8.4914" fill="#fff"/>
 </g>
</svg>
