<svg width="800" height="794.51" version="1.1" viewBox="0 0 211.67 210.21" xmlns="http://www.w3.org/2000/svg">
 <defs>
  <clipPath id="clipPath7230">
   <path d="m0 0h612v792h-612z"/>
  </clipPath>
  <linearGradient id="linearGradient7220" x2="1" gradientTransform="matrix(-1.3689 5.0849 5.0849 0 67.301 646.49)" gradientUnits="userSpaceOnUse">
   <stop stop-color="#fcfcfc" offset="0"/>
   <stop stop-color="#fcfcfc" offset=".1517"/>
   <stop stop-color="#fcfcfc" offset=".42531"/>
   <stop stop-color="#77828a" offset=".82418"/>
   <stop stop-color="#77828a" offset="1"/>
  </linearGradient>
  <linearGradient id="linearGradient7194" x2="1" gradientTransform="matrix(-1.3695 5.0872 5.0872 0 60.448 646.49)" gradientUnits="userSpaceOnUse">
   <stop stop-color="#fcfcfc" offset="0"/>
   <stop stop-color="#fcfcfc" offset=".1517"/>
   <stop stop-color="#fcfcfc" offset=".42531"/>
   <stop stop-color="#77828a" offset=".82418"/>
   <stop stop-color="#77828a" offset="1"/>
  </linearGradient>
  <linearGradient id="linearGradient7168" x2="1" gradientTransform="matrix(-1.3689 5.0849 5.0849 0 72.836 646.49)" gradientUnits="userSpaceOnUse">
   <stop stop-color="#fcfcfc" offset="0"/>
   <stop stop-color="#fcfcfc" offset=".1517"/>
   <stop stop-color="#fcfcfc" offset=".42531"/>
   <stop stop-color="#77828a" offset=".82418"/>
   <stop stop-color="#77828a" offset="1"/>
  </linearGradient>
  <linearGradient id="linearGradient7142" x2="1" gradientTransform="matrix(1.3238 -4.9175 -4.9175 0 59.1 651.5)" gradientUnits="userSpaceOnUse">
   <stop stop-color="#fff" offset="0"/>
   <stop stop-color="#fff" offset=".31034"/>
   <stop stop-color="#fff" offset=".66155"/>
   <stop stop-color="#77828a" offset="1"/>
  </linearGradient>
  <linearGradient id="linearGradient7118" x2="1" gradientTransform="matrix(1.3244 -4.9198 -4.9198 0 65.957 651.5)" gradientUnits="userSpaceOnUse">
   <stop stop-color="#fff" offset="0"/>
   <stop stop-color="#fff" offset=".50925"/>
   <stop stop-color="#77828a" offset="1"/>
  </linearGradient>
  <linearGradient id="linearGradient7096" x2="1" gradientTransform="matrix(1.3232 -4.9152 -4.9152 0 71.52 651.49)" gradientUnits="userSpaceOnUse">
   <stop stop-color="#fff" offset="0"/>
   <stop stop-color="#fff" offset=".50925"/>
   <stop stop-color="#77828a" offset="1"/>
  </linearGradient>
  <clipPath id="clipPath7064">
   <path d="m0 0h612v792h-612z"/>
  </clipPath>
  <linearGradient id="linearGradient7054" x2="1" gradientTransform="matrix(12.637 0 0 -12.637 59.432 648.21)" gradientUnits="userSpaceOnUse">
   <stop stop-color="#77828a" offset="0"/>
   <stop stop-color="#fff" offset=".48466"/>
   <stop stop-color="#fff" offset=".69433"/>
   <stop stop-color="#77828a" offset="1"/>
  </linearGradient>
  <clipPath id="clipPath6974">
   <path d="m0 0h612v792h-612z"/>
  </clipPath>
  <linearGradient id="linearGradient6964" x2="1" gradientTransform="matrix(15.421 15.421 15.421 -15.421 58.062 640.11)" gradientUnits="userSpaceOnUse">
   <stop stop-color="#fff" offset="0"/>
   <stop stop-color="#231f20" offset=".10345"/>
   <stop stop-color="#231f20" offset=".30049"/>
   <stop stop-color="#231f20" offset=".51232"/>
   <stop stop-color="#fff" offset=".77832"/>
   <stop stop-color="#231f20" offset="1"/>
  </linearGradient>
  <linearGradient id="linearGradient6936" x2="1" gradientTransform="matrix(0 20.773 20.773 0 65.773 637.44)" gradientUnits="userSpaceOnUse">
   <stop stop-color="#77828a" offset="0"/>
   <stop stop-color="#fff" offset=".21675"/>
   <stop stop-color="#fff" offset=".31459"/>
   <stop stop-color="#77828a" offset=".40887"/>
   <stop stop-color="#77828a" offset=".62069"/>
   <stop stop-color="#fff" offset=".82266"/>
   <stop stop-color="#fff" offset=".91297"/>
   <stop stop-color="#77828a" offset="1"/>
  </linearGradient>
  <linearGradient id="linearGradient6904" x2="1" gradientTransform="matrix(15.78 15.78 15.78 -15.78 57.883 639.94)" gradientUnits="userSpaceOnUse">
   <stop stop-color="#77828a" offset="0"/>
   <stop stop-color="#fff" offset=".23153"/>
   <stop stop-color="#fff" offset=".32686"/>
   <stop stop-color="#77828a" offset=".41872"/>
   <stop stop-color="#77828a" offset=".62069"/>
   <stop stop-color="#fff" offset=".85222"/>
   <stop stop-color="#fff" offset=".92748"/>
   <stop stop-color="#77828a" offset="1"/>
  </linearGradient>
  <clipPath id="clipPath6866">
   <path d="m0 0h612v792h-612z"/>
  </clipPath>
  <linearGradient id="linearGradient6856" x2="1" gradientTransform="matrix(0 20.773 20.773 0 65.773 637.44)" gradientUnits="userSpaceOnUse">
   <stop stop-color="#77828a" offset="0"/>
   <stop stop-color="#fff" offset=".25123"/>
   <stop stop-color="#fff" offset=".33151"/>
   <stop stop-color="#77828a" offset=".40887"/>
   <stop stop-color="#77828a" offset=".62069"/>
   <stop stop-color="#fff" offset=".81281"/>
   <stop stop-color="#fff" offset=".87803"/>
   <stop stop-color="#77828a" offset=".94089"/>
   <stop stop-color="#77828a" offset="1"/>
  </linearGradient>
 </defs>
 <g transform="translate(-57.043 231.38)">
  <g transform="matrix(9.6477 0 0 -9.6477 -471.77 6123.8)">
   <path d="m61.32 658.21c-0.682 0-1.232-0.55-1.232-1.231v-18.31c0-0.68 0.55-1.232 1.232-1.232h8.905c0.681 0 1.232 0.552 1.232 1.232v18.31c0 0.681-0.551 1.231-1.232 1.231z" fill="url(#linearGradient6856)"/>
  </g>
  <g transform="matrix(9.6477 0 0 -9.6477 -471.77 6123.8)">
   <g clip-path="url(#clipPath6866)">
    <g transform="translate(71.457 638.67)">
     <path d="m0 0h0.508c0-0.96-0.778-1.739-1.74-1.739h-8.905c-0.962 0-1.74 0.778-1.741 1.739v18.311c0 0.962 0.78 1.737 1.741 1.739h8.905c0.961-2e-3 1.738-0.778 1.74-1.739v-18.311h-1.016v18.311c0 0.4-0.323 0.723-0.724 0.723h-8.905c-0.402 0-0.724-0.323-0.725-0.723v-18.311c1e-3 -0.398 0.325-0.723 0.725-0.723h8.905c0.4 0 0.723 0.325 0.724 0.723h0.508" fill="#fff"/>
    </g>
    <g transform="translate(71.457 638.67)">
     <path d="m0 0c0-0.679-0.551-1.231-1.232-1.231h-8.905c-0.681 0-1.233 0.552-1.233 1.231v18.311c0 0.681 0.552 1.231 1.233 1.231h8.905c0.681 0 1.232-0.55 1.232-1.231z" fill="#fff"/>
    </g>
   </g>
  </g>
  <g transform="matrix(9.6477 0 0 -9.6477 -471.77 6123.8)">
   <path d="m61.32 658.52c-0.849 0-1.537-0.688-1.537-1.536v-18.31c0-0.848 0.688-1.535 1.537-1.535h8.905c0.849 0 1.537 0.687 1.537 1.535v18.31c0 0.848-0.688 1.536-1.537 1.536zm-0.927-19.846v18.31c0 0.511 0.416 0.926 0.927 0.926h8.905c0.511 0 0.928-0.415 0.928-0.926v-18.31c0-0.511-0.417-0.925-0.928-0.925h-8.905c-0.511 0-0.927 0.414-0.927 0.925" fill="url(#linearGradient6904)"/>
  </g>
  <g transform="matrix(9.6477 0 0 -9.6477 -471.77 6123.8)">
   <path d="m61.32 658.21c-0.682 0-1.232-0.55-1.232-1.231v-18.31c0-0.68 0.55-1.232 1.232-1.232h8.905c0.681 0 1.232 0.552 1.232 1.232v18.31c0 0.681-0.551 1.231-1.232 1.231z" fill="url(#linearGradient6936)"/>
  </g>
  <g transform="matrix(9.6477 0 0 -9.6477 -471.77 6123.8)">
   <path d="m61.32 658.26c-0.707 0-1.284-0.577-1.284-1.283v-18.31c0-0.707 0.577-1.283 1.284-1.283h8.905c0.709 0 1.285 0.576 1.285 1.283v18.31c0 0.706-0.576 1.283-1.285 1.283zm-1.181-19.593v18.31c0 0.651 0.53 1.18 1.181 1.18h8.905c0.651 0 1.181-0.529 1.181-1.18v-18.31c0-0.65-0.53-1.179-1.181-1.179h-8.905c-0.651 0-1.181 0.529-1.181 1.179" fill="url(#linearGradient6964)"/>
  </g>
  <g transform="matrix(9.6477 0 0 -9.6477 -471.77 6123.8)">
   <g clip-path="url(#clipPath6974)">
    <g transform="translate(61.292 656.46)">
     <path d="m0 0c-0.391 0-0.563 0.111-0.628 0.255l-0.023 0.102h0.379l0.026-0.055c0.03-0.039 0.118-0.06 0.272-0.06 0.195 0 0.239 0.029 0.239 0.079 0 0.056-0.046 0.068-0.223 0.086l-0.228 0.022c-0.335 0.03-0.458 0.135-0.458 0.312 0 0.184 0.219 0.326 0.618 0.326 0.356 0 0.521-0.106 0.589-0.238l0.042-0.114h-0.384l-0.021 0.046c-0.028 0.039-0.102 0.063-0.235 0.063-0.186 0-0.235-0.021-0.235-0.068 0-0.056 0.063-0.066 0.27-0.089l0.251-0.024c0.268-0.031 0.384-0.125 0.384-0.306 0-0.219-0.214-0.337-0.635-0.337" fill="#231f20"/>
    </g>
    <path d="m62.173 657.51h0.36v-1.036h-0.36z" fill="#231f20"/>
    <g transform="translate(63.706 657.22)">
     <path d="m0 0-0.112 0.045h-0.406v-0.19h0.413l0.105 0.038 0.012 0.054-0.012 0.053m0.302-0.216-0.162-0.103 0.311-0.421h-0.393l-0.258 0.365h-0.321v-0.365h-0.351v1.036h0.826c0.16 0 0.269-0.041 0.332-0.108 0.046-0.047 0.07-0.116 0.07-0.208l-0.054-0.196" fill="#231f20"/>
    </g>
    <path d="m64.366 657.51h0.36v-1.036h-0.36z" fill="#231f20"/>
    <g transform="translate(65.638 656.46)">
     <path d="m0 0c-0.358 0-0.614 0.132-0.614 0.448v0.605h0.356v-0.605c0-0.112 0.098-0.184 0.274-0.184 0.168 0 0.27 0.075 0.27 0.183v0.606h0.351v-0.637c0-0.281-0.253-0.416-0.637-0.416" fill="#231f20"/>
    </g>
    <g transform="translate(67.161 656.46)">
     <path d="m0 0c-0.393 0-0.565 0.111-0.628 0.255l-0.025 0.102h0.381l0.028-0.055c0.03-0.039 0.118-0.06 0.27-0.06 0.193 0 0.239 0.029 0.239 0.079 0 0.056-0.049 0.068-0.223 0.086l-0.228 0.022c-0.335 0.03-0.46 0.135-0.46 0.312 0 0.184 0.218 0.326 0.62 0.326 0.356 0 0.521-0.106 0.591-0.238l0.037-0.114h-0.381l-0.021 0.046c-0.03 0.039-0.102 0.063-0.233 0.063-0.188 0-0.237-0.021-0.237-0.068 0-0.056 0.063-0.066 0.27-0.089l0.251-0.024c0.267-0.031 0.384-0.125 0.384-0.306 0-0.219-0.216-0.337-0.635-0.337" fill="#231f20"/>
    </g>
    <g transform="translate(69.204 656.48)">
     <path d="m0 0h-0.412l-0.262 0.299-0.277-0.299h-0.391l0.477 0.517-0.456 0.519h0.414l0.251-0.288 0.263 0.288h0.388l-0.462-0.508z" fill="#231f20"/>
    </g>
    <g transform="translate(70.536 656.48)">
     <path d="m0 0v0.559l-0.246-0.559h-0.303l-0.244 0.559v-0.559h-0.335v1.036h0.463l0.267-0.624 0.282 0.624h0.451v-1.036z" fill="#231f20"/>
    </g>
    <g transform="translate(75.496 646.01)">
     <path d="m0 0 0.937 2.415h-3.694l1.613 3.641h-2.443c0.213 0.794 0.518 1.336 0.518 1.336s-1.742 0.173-2.218 2.319c0 0-1.086-1.111-2.162-1.111-1.384 0-2.298 1.185-2.298 1.185s-0.911-1.185-2.294-1.185c-1.075 0-2.16 1.111-2.16 1.111-0.479-2.146-2.223-2.319-2.223-2.319s0.309-0.542 0.521-1.336h-3.579l1.01-1.001 0.167-0.205c0.032-0.065 0.051-0.146-0.012-0.288l-2.03-4.562h2.816l-0.807-1.832h2.239c0.6-1.14 1.7-2.025 3.244-2.416 1.158-0.291 1.955-0.366 2.546-0.579l0.562-0.601 0.565 0.601c0.591 0.213 1.391 0.288 2.549 0.579 1.541 0.391 2.641 1.276 3.241 2.416h1.864l-0.604 1.062 1.295 0.77z" fill="#fff"/>
    </g>
    <g transform="translate(75.496 646.01)">
     <path d="m0 0 0.937 2.415h-3.694l1.613 3.641h-2.443c0.213 0.794 0.518 1.336 0.518 1.336s-1.742 0.173-2.218 2.319c0 0-1.086-1.111-2.162-1.111-1.384 0-2.298 1.185-2.298 1.185s-0.911-1.185-2.294-1.185c-1.075 0-2.16 1.111-2.16 1.111-0.479-2.146-2.223-2.319-2.223-2.319s0.309-0.542 0.521-1.336h-3.579l1.01-1.001 0.167-0.205c0.032-0.065 0.051-0.146-0.012-0.288l-2.03-4.562h2.816l-0.807-1.832h2.239c0.6-1.14 1.7-2.025 3.244-2.416 1.158-0.291 1.955-0.366 2.546-0.579l0.562-0.601 0.565 0.601c0.591 0.213 1.391 0.288 2.549 0.579 1.541 0.391 2.641 1.276 3.241 2.416h1.864l-0.604 1.062 1.295 0.77z" fill="none" stroke="#fff" stroke-miterlimit="10" stroke-width=".437"/>
    </g>
    <g transform="translate(62.043 639.35)">
     <path d="m0 0-0.177 0.071h-0.66v-0.306h0.67c0.09 0 0.146 0.018 0.167 0.06l0.019 0.087-0.019 0.088m0.488-0.349c-0.058-0.081-0.149-0.15-0.265-0.166l0.507-0.682h-0.637l-0.414 0.589h-0.521v-0.589h-0.567v1.673h1.332c0.265 0 0.437-0.064 0.54-0.172 0.074-0.078 0.111-0.187 0.111-0.339 0-0.129-0.032-0.242-0.086-0.314" fill="#231f20"/>
    </g>
    <g transform="translate(64.131 639.24)">
     <path d="m0 0-0.058 0.151-0.065-0.154-0.212-0.403h0.535zm-0.679-1.089h-0.605l0.893 1.673h0.691l0.844-1.673h-0.614l-0.149 0.307h-0.904z" fill="#231f20"/>
    </g>
    <g transform="translate(66.972 639.01)">
     <path d="m0 0c-2e-3 0.107-0.014 0.221-0.049 0.272-0.067 0.101-0.167 0.138-0.342 0.138h-0.511v-0.855h0.507c0.181 0 0.283 0.043 0.346 0.137 0.04 0.058 0.049 0.191 0.049 0.308m-0.286-0.856h-1.186v1.674h1.172c0.402 0 0.637-0.113 0.756-0.306 0.083-0.132 0.109-0.27 0.109-0.5 0-0.26-0.028-0.402-0.105-0.534-0.114-0.21-0.344-0.334-0.746-0.334" fill="#231f20"/>
    </g>
    <path d="m67.846 639.83h0.584v-1.673h-0.584z" fill="#231f20"/>
    <g transform="translate(70.397 638.99)">
     <path d="m0 0c0 0.241-0.1 0.436-0.544 0.436-0.409 0-0.542-0.173-0.542-0.436 0-0.264 0.123-0.439 0.544-0.439 0.423 0 0.542 0.184 0.542 0.439m0.581 8e-3c0-0.535-0.332-0.875-1.123-0.875-0.72 0-1.127 0.294-1.127 0.875 0 0.513 0.388 0.862 1.127 0.862 0.749 0 1.123-0.322 1.123-0.862" fill="#231f20"/>
    </g>
    <g transform="translate(71.739 650.07)">
     <path d="m0 0c-0.021 0.174-0.03 0.355-0.03 0.553 0 1.505 0.718 2.78 0.718 2.78s-1.741 0.173-2.218 2.319c0 0-1.086-1.111-2.162-1.111-1.384 0-2.297 1.185-2.297 1.185s-0.912-1.185-2.295-1.185c-1.074 0-2.16 1.111-2.16 1.111-0.479-2.146-2.223-2.319-2.223-2.319s0.723-1.275 0.723-2.78c0-0.198-0.011-0.379-0.028-0.553-0.153-1.504-0.897-2.108-0.897-3.696 0-2.145 1.334-3.994 3.771-4.611 1.158-0.291 1.955-0.365 2.546-0.579l0.563-0.601 0.565 0.601c0.59 0.214 1.39 0.288 2.548 0.579 2.437 0.617 3.769 2.466 3.769 4.611 0 1.588-0.742 2.192-0.893 3.696" fill="#231f20"/>
    </g>
   </g>
  </g>
  <g transform="matrix(9.6477 0 0 -9.6477 -471.77 6123.8)">
   <path d="m63.471 654.04c-1.093 0-1.933 0.742-1.933 0.742-0.555-1.513-1.703-1.753-1.703-1.753s0.518-1.055 0.518-2.423c0-1.998-0.889-2.6-0.921-4.135v-0.169c0.044-2.187 1.762-3.581 3.36-3.985 1.281-0.324 2.125-0.374 2.69-0.645l0.267-0.264 0.272 0.264c0.561 0.271 1.411 0.321 2.688 0.645 1.616 0.409 3.359 1.834 3.359 4.069 0 1.599-0.915 2.186-0.915 4.22 0 1.368 0.513 2.423 0.513 2.423s-1.146 0.24-1.702 1.753c0 0-0.839-0.742-1.934-0.742-1.351 0-2.255 0.944-2.281 0.971-0.023-0.027-0.927-0.971-2.278-0.971" fill="url(#linearGradient7054)"/>
  </g>
  <g transform="matrix(9.6477 0 0 -9.6477 -471.77 6123.8)">
   <g clip-path="url(#clipPath7064)">
    <g transform="translate(71.413 647.2)">
     <path d="m0 0c-0.202 0.823-0.793 1.739-0.793 3.423 0 0.873 0.179 1.602 0.342 2.09-0.379 0.21-0.818 0.625-1.2 1.261-0.407-0.23-1.014-0.481-1.692-0.481-1.033 0-1.86 0.456-2.321 0.793-0.458-0.337-1.288-0.793-2.318-0.793-0.679 0-1.286 0.251-1.693 0.481-0.381-0.636-0.818-1.051-1.197-1.261 0.163-0.488 0.339-1.217 0.339-2.09 0-1.684-0.59-2.6-0.79-3.423-0.247-1.009-0.049-1.855 0.36-2.567 0.398-0.691 1.458-1.501 2.442-1.784 1.011-0.294 2.271-0.395 2.648-0.608 0.084-0.062 0.09-0.071 0.209-0.181 0.121 0.11 0.128 0.119 0.212 0.181 0.376 0.213 1.637 0.314 2.648 0.608 0.986 0.283 2.041 1.093 2.444 1.784 0.409 0.712 0.604 1.558 0.36 2.567" fill="#231f20"/>
    </g>
    <g transform="translate(71.053 644.63)">
     <path d="m0 0c-0.402-0.691-1.458-1.501-2.444-1.784-1.011-0.294-2.271-0.395-2.648-0.609-0.084-0.061-0.091-0.07-0.211-0.18-0.119 0.11-0.126 0.119-0.21 0.18-0.376 0.214-1.636 0.315-2.648 0.609-0.983 0.283-2.044 1.093-2.441 1.784-0.409 0.711-0.607 1.558-0.361 2.567 0.2 0.823 0.791 1.738 0.791 3.423 0 0.873-0.177 1.602-0.34 2.09 0.379 0.209 0.817 0.624 1.198 1.261 0.407-0.23 1.014-0.481 1.693-0.481 1.029 0 1.86 0.456 2.318 0.793 0.46-0.337 1.288-0.793 2.32-0.793 0.679 0 1.286 0.251 1.693 0.481 0.381-0.637 0.82-1.052 1.199-1.261-0.162-0.488-0.341-1.217-0.341-2.09 0-1.685 0.59-2.6 0.792-3.423 0.244-1.009 0.049-1.856-0.36-2.567m0.446 2.587c-0.06 0.246-0.153 0.499-0.251 0.766-0.241 0.65-0.537 1.456-0.537 2.637 0 0.699 0.114 1.391 0.337 2.062l0.024 0.07-0.068 0.037c-0.411 0.227-0.825 0.661-1.162 1.226l-0.045 0.074-0.079-0.042c-0.379-0.212-0.976-0.466-1.648-0.466-1.051 0-1.869 0.486-2.262 0.775l-0.058 0.039-0.054-0.039c-0.393-0.289-1.214-0.775-2.264-0.775-0.672 0-1.268 0.254-1.649 0.466l-0.077 0.042-0.044-0.074c-0.339-0.565-0.753-0.999-1.165-1.226l-0.067-0.037 0.023-0.07c0.226-0.671 0.337-1.363 0.337-2.062 0-1.181-0.297-1.987-0.535-2.637-0.1-0.267-0.193-0.52-0.253-0.766-0.223-0.928-0.1-1.814 0.372-2.631 0.428-0.747 1.525-1.548 2.495-1.828 0.47-0.135 0.995-0.231 1.455-0.313 0.523-0.094 0.977-0.177 1.17-0.283l0.151-0.129 0.105-0.101 0.109 0.101 0.151 0.129c0.193 0.106 0.644 0.189 1.167 0.283 0.463 0.082 0.986 0.178 1.458 0.313 0.967 0.28 2.065 1.081 2.495 1.828 0.472 0.817 0.595 1.703 0.369 2.631" fill="#fff"/>
    </g>
    <g transform="translate(75.496 646.01)">
     <path d="m0 0 0.937 2.415h-3.694l1.613 3.641h-18.338l1.01-1.001 0.167-0.205c0.032-0.065 0.051-0.146-0.012-0.288l-2.03-4.562h2.816l-0.807-1.832h6.204l0.413 0.939h0.117l-0.065-0.939h2.45l0.323 0.401c0.235-0.342 0.7-0.422 1.082-0.422 0.239 0 0.458 0.027 0.653 0.08l-0.028-0.059h5.661l-0.604 1.062 1.295 0.77z" fill="#231f20"/>
    </g>
   </g>
  </g>
  <g transform="matrix(9.6477 0 0 -9.6477 -471.77 6123.8)">
   <path d="m71.187 651.49c0.235-0.218 0.468-0.574 0.294-0.968l-1.74-3.947h5.364l0.498 1.273h-3.742l1.614 3.642z" fill="url(#linearGradient7096)"/>
  </g>
  <g transform="matrix(9.6477 0 0 -9.6477 -471.77 6123.8)">
   <path d="m68.827 651.5-0.845-1.881-2.268-6e-3 0.828 1.887h-2.227c0.2-0.192 0.464-0.55 0.279-0.974l-1.734-3.946 1.518 3e-3 0.818 1.857h2.267l-0.819-1.857h1.54l2.194 4.917z" fill="url(#linearGradient7118)"/>
  </g>
  <g transform="matrix(9.6477 0 0 -9.6477 -471.77 6123.8)">
   <path d="m61.997 651.5-1.532-3.417-0.791 3.417h-2.278c0.109-0.09 0.232-0.223 0.311-0.395 0.113-0.244 0.109-0.499-0.01-0.763l-1.674-3.759h1.512l1.376 3.079 0.719-3.079h1.676l2.195 4.917z" fill="url(#linearGradient7142)"/>
  </g>
  <g transform="matrix(9.6477 0 0 -9.6477 -471.77 6123.8)">
   <path d="m70.955 651.58s0.695-0.429 0.444-1.005l-1.797-4.078v-2e-3h5.506l0.574 1.446h-3.681l1.615 3.639zm0.526-1.053c0.174 0.394-0.059 0.753-0.294 0.97h2.288l-1.614-3.644h3.674l-0.497-1.273h-5.297z" fill="url(#linearGradient7168)"/>
  </g>
  <g transform="matrix(9.6477 0 0 -9.6477 -471.77 6123.8)">
   <path d="m57.149 651.58s0.816-0.43 0.467-1.196l-1.732-3.891h1.719l1.288 2.887 0.678-2.887h1.805l2.269 5.085h-1.709l-1.45-3.225-0.747 3.227zm4.848-0.085h1.504l-2.195-4.917h-1.676l-0.719 3.079-1.376-3.079h-1.512l1.674 3.759c0.119 0.264 0.123 0.519 0.01 0.763-0.079 0.172-0.202 0.305-0.311 0.395h2.278l0.791-3.417z" fill="url(#linearGradient7194)"/>
  </g>
  <g transform="matrix(9.6477 0 0 -9.6477 -471.77 6123.8)">
   <path d="m68.76 651.58-0.846-1.883h-2.06l0.83 1.883h-2.583s0.662-0.433 0.411-1.009l-1.795-4.076h1.723l0.821 1.86h2.06l-0.818-1.86h1.75l2.263 5.085zm-0.778-1.97 0.845 1.887h1.551l-2.194-4.917h-1.54l0.819 1.857h-2.267l-0.818-1.857h-1.518l1.734 3.943c0.185 0.424-0.079 0.782-0.279 0.974h2.227l-0.828-1.887z" fill="url(#linearGradient7220)"/>
  </g>
  <g transform="matrix(9.6477 0 0 -9.6477 -471.77 6123.8)">
   <g clip-path="url(#clipPath7230)">
    <g transform="translate(59.016 644.67)">
     <path d="m0 0-0.274 0.604-0.268-0.604h-0.565l0.588 1.342h0.605l0.258-0.585 0.256 0.585h0.569l-0.59-1.342z" fill="#fff"/>
    </g>
    <g transform="translate(60.053 644.67)">
     <path d="m0 0 0.591 1.342h1.488l-0.172-0.393h-0.91l-0.044-0.1h0.884l-0.158-0.358h-0.884l-0.044-0.1h0.923l-0.172-0.391z" fill="#fff"/>
    </g>
    <g transform="translate(63.454 645.61)">
     <path d="m0 0-0.414-0.941h-0.602l0.412 0.941h-0.545l0.177 0.401h1.695l-0.177-0.401z" fill="#fff"/>
    </g>
   </g>
  </g>
  <g transform="matrix(9.6477 0 0 -9.6477 165.39 -95.802)">
   <path d="m0 0h-0.609l0.06 0.678-0.537-0.678h-0.604l0.097 1.342h0.637l-0.1-0.721 0.545 0.721h0.585l-0.088-0.721 0.53 0.721h0.56z" fill="#fff"/>
  </g>
  <g transform="matrix(9.6477 0 0 -9.6477 186.78 -100.87)">
   <path d="m0 0 0.091 0.149 0.035 0.153c-0.014 0.061-0.066 0.128-0.275 0.128-0.195 0-0.314-0.066-0.386-0.135l-0.09-0.146-0.04-0.165c0.016-0.065 0.074-0.115 0.27-0.115 0.211 0 0.328 0.062 0.395 0.131m0.753 0.556c0.033-0.103 0.01-0.236-0.058-0.398-0.074-0.167-0.174-0.302-0.295-0.407-0.228-0.199-0.556-0.296-0.979-0.296-0.414 0-0.658 0.095-0.714 0.296-0.03 0.105-4e-3 0.244 0.065 0.404 0.066 0.149 0.161 0.277 0.279 0.377 0.238 0.199 0.57 0.318 0.986 0.318 0.412 0 0.656-0.101 0.716-0.294" fill="#fff"/>
  </g>
  <g transform="matrix(9.6477 0 0 -9.6477 209.55 -104.58)">
   <path d="m0 0-0.093 0.05h-0.456l-0.086-0.196h0.454l0.137 0.045 0.03 0.049 0.014 0.052m0.379-0.264-0.256-0.124 0.175-0.522h-0.651l-0.121 0.427h-0.312l-0.188-0.427h-0.588l0.59 1.342h1.179c0.219 0 0.346-0.047 0.398-0.126 0.046-0.066 0.037-0.161-0.024-0.297-0.048-0.112-0.123-0.21-0.202-0.273" fill="#fff"/>
  </g>
  <g transform="matrix(9.6477 0 0 -9.6477 226.22 -95.802)">
   <path d="m0 0-0.221 0.457-0.084-0.048-0.179-0.409h-0.59l0.588 1.342h0.593l-0.177-0.404 0.688 0.404h0.731l-0.998-0.593 0.426-0.749z" fill="#fff"/>
  </g>
 </g>
</svg>
