<svg width="800" height="327.67" version="1.1" viewBox="0 0 211.67 86.697" xmlns="http://www.w3.org/2000/svg">
 <defs>
  <clipPath id="clipPath44056">
   <path d="m0 0h612v792h-612z"/>
  </clipPath>
 </defs>
 <g transform="translate(-37.286 105.31)">
  <g transform="matrix(6.674 0 0 -6.674 -1583.7 1152.7)">
   <g clip-path="url(#clipPath44056)">
    <g transform="translate(271.58 186.75)">
     <path d="M 0,0 0.008,0.207 -0.147,0.213 C -0.16,0.084 -0.074,0.048 0,0" fill="#bf1d23"/>
    </g>
    <g transform="translate(260 185.78)">
     <path d="m0 0-0.049 0.054 0.049-0.054m-0.12-0.41-0.101 0.056 4e-3 0.103 0.103-4e-3 -6e-3 -0.155m-0.454 0.278c-0.018 0.109 0.041 0.135 0.06 0.205 0.112-0.046 0.202-0.112 0.196-0.267-0.058 0.045-0.136 0.073-0.256 0.062m-1.052-0.424c-0.159-0.031-0.147 0.096-0.307 0.065 8e-3 -0.092 0.084-0.122 0.202-0.112-0.042-0.161-0.14-0.062-0.26-0.042 0.061 0.073 0.06 0.125-0.046 0.158l0.11 0.151c-7e-3 -0.173 0.336-0.022 0.301-0.22m-0.665 0.183c0.011-0.209 0.029-0.128 0.091-0.314-0.098 0.025-0.125 0.116-0.254 0.113-0.014 0.214 0.225 0.152 0.172 0.408l0.048-0.105 0.105 0.047c0.137-0.052-0.033-0.209-0.162-0.149m-2.865-0.505-0.101 0.056c-0.194 0.124 0.138-0.028 0.101-0.056m-0.871 0.191c0.017 0.031 0.137 0.195 9e-3 0.207 0.085 0.096 0.184-0.018 0.305-0.116-0.051-0.088-0.166-0.107-0.314-0.091m-0.613 0.181c0.184-0.165-0.164-0.168 0 0m-0.161-0.149c-0.133 0.018 0.074 0.086 8e-3 0.207 0.128-0.013 8e-3 -0.176-8e-3 -0.207m-0.327-0.402c-0.141-0.012-0.428 0.29-0.415-0.034-0.222-6e-3 -0.338 0.086-0.458 0.174l0.049-0.054c-0.052-0.138-0.12 0.115-0.148 0.162-0.104 4e-3 -0.207 8e-3 -0.31 0.012-2e-3 0.244 0.51-0.017 0.619-0.025l0.046-0.157c0.079 0.042-0.011 0.078 0.06 0.205 0.084 1e-3 0.221-0.095 0.103-4e-3l0.101-0.057c0.118 0.01 0.193-0.02 0.202-0.111 0.098 0.052 0.141 0.28 0.265 0.144-0.061-0.06-0.151-0.087-0.114-0.255m0.103-4e-3 -0.049 0.054 0.049-0.054m-2.366 0.305c0.026 0.114 0.276 0.029 0.31-0.013-0.084-0.221-0.113 0.059-0.31 0.013m-0.224-0.406 0.11 0.152c0.133-0.011 0.045-0.224 0.252-0.167-0.037-0.109-0.32-0.035-0.362 0.015m-0.043 0.209c0.012 0.13 0.105 0.159-0.043 0.209 0.046 0.139 0.116-0.04 0.23-0.019l0.028 9e-3 -0.028-9e-3c-0.082-0.042-0.045-0.213-0.187-0.19m-0.187 0.475-0.102 0.056c0.054 0.039 0.246-0.136 0.102-0.056m0.518 0.031-0.054-0.05 0.054 0.05m-1.204-0.366c-0.135 0.163 0.151-0.148 0 0m-0.643-0.544-0.05 0.053 0.05-0.053m-0.097 0.16 0.05-0.055-0.05 0.055m-0.056-0.102-0.103 4e-3 4e-3 0.104 0.104-4e-3 -5e-3 -0.104m-0.204 0.06-0.05 0.054 0.05-0.054m-0.106-0.048-0.206 9e-3 6e-3 0.156c0.098-0.026 0.221-0.029 0.2-0.165m-2.284-0.217c-5e-3 -0.145 0.146 0.118 0.099-0.108-0.171 0.04-0.17 0.16-0.359 0.067 0.035 0.051 0.121 0.049 0.109 0.151 0.176-0.093 0.277 0.034 0.463-0.07-0.075-0.158-0.226 0.106-0.312-0.04m14.171 1.286-0.097 0.16 2e-3 0.051-0.727 0.436-5.841-0.52-4e-3 -9e-3 -0.034 5e-3 -3.65-0.325c0.013-0.119 0.025-0.24 0.198-0.211-0.046-0.191-0.282-0.051-0.254 0.113-0.099-0.059-0.178-6e-3 -0.251 0.071l-0.19-0.017 0.075-0.142c-0.166-0.038-0.156 0.088-0.254 0.114l4e-3 0.012-1.609-0.143-3e-3 -0.011-0.037 7e-3 -0.321-0.028-8e-3 -0.067-0.205 0.048-0.51-0.046-0.113-0.02-4e-3 0.01-0.133-0.012 0.031-0.046-0.107 0.039-3.204-0.286 0.092-1.036 3.339 0.298-0.158 0.054c-0.024 0.115 0.102 0.07 0.11 0.151 0.065-0.036 0.089-0.11 0.094-0.201l4.262 0.379-2e-3 0.058 0.112-0.048 2.967 0.265 0.033 0.018 0.028-0.013 7.063 0.63-0.788 0.473c0.043-0.049 0.305-0.241 0.094-0.211" fill="#bf1d23"/>
    </g>
    <g transform="translate(271.69 187.11)">
     <path d="m0 0c-0.081 8e-3 -0.035 0.133-0.15 0.109-0.05-0.104 0.124-0.237 0.15-0.109" fill="#bf1d23"/>
    </g>
    <g transform="translate(265.64 185.75)">
     <path d="m0 0-0.048 0.105 0.048-0.105m0.187 0.77 0.049-0.054-0.049 0.054m2.009-0.186-2e-3 -0.052c-0.038-0.184 0.308-0.014 0.25-0.217-0.126-0.016-0.109 0.098-0.257 0.062 0.011 0.141-0.081 0.108 9e-3 0.207m1.454 0.147c0.037-0.166-0.088-0.156-0.114-0.254-0.117 0.046-0.037 0.322 0.114 0.254m-0.151 0.111 0.05-0.054-0.05 0.054m0.267 0.196-0.047 0.105 0.047-0.105m0.037-0.364-0.056-0.102c-0.04 0.054 0.135 0.246 0.056 0.102m0.423 0.241c-0.117 0.179 0.168-0.132 0 0m0.063 0.257-2e-3 -0.052 2e-3 0.052m0.284-0.634 8e-3 0.207-0.152 0.059c0.094 0.322 0.448-0.234 0.144-0.266m1.873 0.286c0.111 0.02 0.096-0.078 0.097-0.159l-0.101 0.056 4e-3 0.103m0.213 0.148-2e-3 -0.052 2e-3 0.052m1.359 0.359c-0.103 0.07-0.258 0.093-0.247 0.269 0.148-0.029 0.231-0.119 0.247-0.269m-2.607-0.887h3e-3l2.813 0.251-0.093 1.036-2.058-0.183c0.032-0.059 0.01-0.17 0.135-0.143 0.032-0.143-0.107-0.101-0.111-0.203-0.013-0.084 0.333-0.119 0.26 0.041 0.214-0.142 0.099-0.343-0.021-0.518-0.168 0.019-0.542 0.182-0.622-0.026-0.056 0.148-0.313 0.109-0.351 0.274l0.121 0.41c0.063 0.111 0.34-0.011 0.367 0.14l-3e-3 5e-3 -2.267-0.202 0.037-0.022c-0.012-0.127-0.169-0.013-0.204 7e-3l-2.953-0.263-1.333-1.164z" fill="#bf1d23"/>
    </g>
    <g transform="translate(249.73 185.34)">
     <path d="m0 0-0.048-4e-3 8e-3 -0.02z" fill="#bf1d23"/>
    </g>
    <g transform="translate(271.99 186.79)">
     <path d="m0 0c-0.097-3e-3 -0.174-0.026-0.211-0.095 0.092 9e-3 0.257-0.062 0.211 0.095" fill="#bf1d23"/>
    </g>
    <g transform="translate(249.44 176.67)">
     <path d="m0 0 4e-3 0.103z" fill="#bf1d23"/>
    </g>
    <g transform="translate(249.6 176.71)">
     <path d="m0 0 0.097-0.159z" fill="#bf1d23"/>
    </g>
    <g transform="translate(264.73 177.37)">
     <path d="m0 0 0.059 5e-3 -8e-3 0.011z" fill="#bf1d23"/>
    </g>
    <g transform="translate(249.23 176.47)">
     <path d="m0 0c0.151-0.148-0.134 0.163 0 0" fill="#bf1d23"/>
    </g>
    <g transform="translate(249.33 176.41)">
     <path d="M 0,0 C 0.117,-0.019 0.195,0.004 0.21,0.095 0.119,0.087 -0.046,0.158 0,0" fill="#bf1d23"/>
    </g>
    <g transform="translate(245.96 176.19)">
     <path d="m0 0 4e-3 0.103z" fill="#bf1d23"/>
    </g>
    <g transform="translate(266.23 177.53)">
     <path d="m0 0 4e-3 -0.029 0.031 2e-3z" fill="#bf1d23"/>
    </g>
    <g transform="translate(260.03 177.58)">
     <path d="m0 0-2e-3 -0.052z" fill="#bf1d23"/>
    </g>
    <g transform="translate(250.94 177.19)">
     <path d="m0 0-0.028-2e-3 2e-3 -7e-3z" fill="#bf1d23"/>
    </g>
    <g transform="translate(261.29 177.94)">
     <path d="m0 0-0.049 0.054z" fill="#bf1d23"/>
    </g>
    <g transform="translate(271.67 177.99)">
     <path d="m0 0 0.189 0.017-0.172 0.082z" fill="#bf1d23"/>
    </g>
    <g transform="translate(271.54 178.2)">
     <path d="m0 0c-0.175 0.041-0.111-0.179-0.194-0.239l0.11 0.01c-0.034 0.062 0.01 0.138 0.084 0.229" fill="#bf1d23"/>
    </g>
    <g transform="translate(267.74 177.73)">
     <path d="m0 0 0.049-0.054z" fill="#bf1d23"/>
    </g>
    <g transform="translate(266.41 177.94)">
     <path d="m0 0 4e-3 0.104z" fill="#bf1d23"/>
    </g>
    <g transform="translate(267.97 177.66)">
     <path d="m0 0 0.133 0.012z" fill="#bf1d23"/>
    </g>
    <g transform="translate(267.28 177.85)">
     <path d="m0 0c-0.084-0.125-0.237-0.174-0.471-0.136 0.043 0.185-0.268 0.152-0.091 0.315-0.267 0.11-0.164-0.346-0.367-0.141l-5e-3 -0.103c0.108-0.02 0.347-0.164 0.576-0.223l0.224 0.02 0.053 4e-3 0.379 0.034c-0.122 0.03-0.244 0.067-0.298 0.23" fill="#bf1d23"/>
    </g>
    <g transform="translate(267.29 178.11)">
     <path d="m0 0 0.049-0.054-0.049 0.054m0.456-0.226c0.105-0.099 0.557-0.249 0.618-0.077-0.278 0.075-0.65 0.064-0.657 0.39 0.137-0.023 0.176-0.137 0.304-0.169 0.112 0.083-0.057 0.268-0.149 0.163 0.015 0.128-0.073 0.165-0.146 0.213 0.039-0.169-0.171-0.066-0.213-0.147-0.076-0.115 0.125-0.2-8e-3 -0.207l-0.046 0.158c-0.16-0.03-0.101-0.033-0.258 0.01-0.017-0.303 0.338-0.399 0.555-0.334" fill="#bf1d23"/>
    </g>
    <g transform="translate(264.42 177.51)">
     <path d="m0 0-6e-3 -0.156 0.052-2e-3 0.051 5e-3 6e-3 0.149z" fill="#bf1d23"/>
    </g>
    <g transform="translate(261.14 178.06)">
     <path d="m0 0 7e-3 0.041-0.125-0.011z" fill="#bf1d23"/>
    </g>
    <g transform="translate(271.12 177.94)">
     <path d="m0 0 0.141 0.013z" fill="#bf1d23"/>
    </g>
    <g transform="translate(271.49 177.97)">
     <path d="m0 0 0.026 2e-3z" fill="#bf1d23"/>
    </g>
    <g transform="translate(267.4 178.32)">
     <path d="m0 0-0.05 0.054z" fill="#bf1d23"/>
    </g>
    <g transform="translate(272.01 178.02)">
     <path d="m0 0 0.019 2e-3 0.018 0.052z" fill="#bf1d23"/>
    </g>
    <g transform="translate(266.39 177.53)">
     <path d="m0 0 3e-3 -9e-3 0.242 0.021 0.015 0.029c-0.119 0.022-0.199 0-0.26-0.041" fill="#bf1d23"/>
    </g>
    <g transform="translate(269.31 178.08)">
     <path d="m0 0 0.206-8e-3 4e-3 0.103-0.206 8e-3z" fill="#bf1d23"/>
    </g>
    <g transform="translate(268.53 177.71)">
     <path d="M 0,0 0.399,0.036 C 0.246,0.068 0.127,0.086 0,0" fill="#bf1d23"/>
    </g>
    <g transform="translate(266.15 178.01)">
     <path d="m0 0-0.048 0.105z" fill="#bf1d23"/>
    </g>
    <g transform="translate(272.2 178.07)">
     <path d="m0 0 2e-3 -0.031 0.047 5e-3z" fill="#bf1d23"/>
    </g>
    <g transform="translate(262.41 177.48)">
     <path d="m0 0-0.05 0.054 0.05-0.054m-0.192 0.371-0.049 0.054 0.049-0.054m-0.636-0.389 0.058 0.154c0.18-0.053 0.126-0.012 0.307-0.065-0.065-0.092-0.271-0.03-0.365-0.089m-0.145 0.265c0.173-0.2-0.151-0.256 0 0m-0.172-0.408-0.049 0.055 0.049-0.055m-0.206 9e-3 0.054 0.05-0.054-0.05m-0.353 0.222c0.044 0.184 0.245 0.063 0.31-0.013-0.112-0.11-0.222-0.088-0.31 0.013m-0.039 0.313 0.05-0.054-0.05 0.054m-0.899-0.482-0.049 0.054 0.049-0.054m-0.084 0.47c0.164-0.133-0.154-0.242 0 0m-0.223-0.406-0.05 0.054 0.05-0.054m-0.196 0.268-0.05 0.053 0.05-0.053m-0.284-0.611c-0.138 0.053 0.06 0.179 0.062 0.256 0.099-8e-3 -0.049-0.19-0.062-0.256m-0.233 0.632 0.209 0.043-0.209-0.043m0.08-0.574-0.049 0.054 0.049-0.054m-0.441 0.589 2e-3 0.051-2e-3 -0.051m-0.159-0.098 0.054 0.05-0.054-0.05m-0.37-0.192 0.048-0.106-0.048 0.106m-0.013-0.311c-0.156 0.045-0.19-0.045-0.311-0.038 5e-3 0.103 0.143 0.06 0.111 0.202l0.155-6e-3 0.097-0.16-0.052 2e-3m-0.41 0.069c-0.118 0.179 0.167-0.132 0 0m0.163 0.201 0.049-0.054-0.049 0.054m-0.592-0.546 5e-3 0.104-5e-3 -0.104m-0.303 0.168c-0.109-0.018-0.135 0.041-0.204 0.06l0.047-0.105c-0.155-0.117-0.386-0.104-0.463 0.07 0.058 0.157 0.174-0.03 0.205-0.06 0.043 0.08 0.167 0.071 0.163 0.2 0.132-0.165 0.202 0.129 0.31-0.012l-0.058-0.153m-0.221-0.354-0.05 0.054 0.05-0.054m-0.272 0.944 0.05-0.053-0.05 0.053m-0.583-0.339-0.049 0.054 0.049-0.054m-8e-3 -0.207-0.05 0.054 0.05-0.054m-0.424-0.241-0.204 0.059-0.048 0.106c8e-3 0.067 0.308-9e-3 0.252-0.165m-0.29 0.478 2e-3 0.052-2e-3 -0.052m-0.271-0.3c0.016 0.09 0.093 0.114 0.21 0.095l0.046-0.158c-0.053-0.138-0.09 0.142-0.256 0.063m0.144-0.265-0.049 0.054 0.049-0.054m-0.512 0.125c-0.112 0.032-0.329 0.138-0.364-0.037-0.119-0.012-0.051 0.151-0.148 0.161 0.175-7e-3 0.488 6e-3 0.727 0.074 0.042-0.19-0.234-0.034-0.215-0.198m-0.712 0.288-0.153 0.058c-0.02 0.111 0.078 0.096 0.159 0.097l-6e-3 -0.155m-0.224-0.406-0.049 0.054 0.049-0.054m-0.346 0.378-0.207 8e-3 4e-3 0.103 0.207-8e-3 -4e-3 -0.103m-0.22-0.303-0.049 0.054 0.049-0.054m-0.555 0.334c-0.092 0.044 0.034 0.054 0.106 0.047 0.092-0.043-0.033-0.054-0.106-0.047m0.027-0.623-0.05 0.053 0.05-0.053m-0.235 0.58-0.05 0.054 0.05-0.054m-0.28-0.508c0.041 0.154 0.109-0.054 0.207-8e-3 -0.054-0.171-0.118-0.04-0.207 8e-3m0.045-0.157 0.048-0.105-0.048 0.105m2.627 0.982 0.049-0.054-0.049 0.054m-3.388-0.639 2e-3 0.051-2e-3 -0.051m-0.131-0.669 2e-3 0.052-2e-3 -0.052m-0.308 0.065c-0.15 0.081 0.077 0.198 0.015 0.362l-0.103 4e-3 0.108 0.099c0.168-0.06 0.298-0.155 0.294-0.375-0.161 0.147-0.223 0.072-0.314-0.09m-1.66-0.14c-0.093 0.044 0.033 0.054 0.105 0.047 0.092-0.043-0.033-0.054-0.105-0.047m-1.07 0.407c-8e-3 0.135-6e-3 0.26 0.164 0.201-0.026-0.099-0.028-0.222-0.164-0.201m0.098-0.159-0.05 0.053 0.05-0.053m-0.153 0.057c-0.135 0.163 0.151-0.148 0 0m-0.269-0.248-0.099 0.108-0.161-0.149-0.205 0.06c-0.093-2e-3 -0.126-0.081-0.21-0.095-0.043-7e-3 -0.248 0.078-0.414 0.017 0.046 0.101 0.189 0.178 0.263 0.093 0.142 0.116 0.382 0.124 0.477 0.291 0.109-0.119 0.213 0.043 0.413-0.016 0.031-0.16-0.095-0.149-0.064-0.309m-1.13 0.202 0.05-0.054-0.05 0.054m-0.272-0.352c-0.158 0.045-0.106-0.138-0.263-0.093-0.117 0.246-0.394 0.173-0.611 0.233 0.011 0.114 0.22 0.013 0.312 0.039 0.044 0.157-0.083 0.155-0.039 0.312 0.133-0.075 0.35-0.075 0.512-0.124l-0.049 0.054c0.121 0.131 0.107-0.283 0.305-0.117-0.013-0.128 0.018-0.215 0.093-0.262 4e-3 -0.113-0.185-0.017-0.26-0.042m-0.521-0.082c0.062-0.026 0.103-0.07 0.097-0.16l-0.097 0.16m-0.347 0.377 0.05-0.054-0.05 0.054m2.239 0.375 0.05-0.054-0.05 0.054m1.614 0.245-2e-3 -0.052 2e-3 0.052m1.23-0.258-0.049 0.054 0.049-0.054m-0.2 0.164 2e-3 0.052-2e-3 -0.052m13.5 1.314-0.05 0.054 0.05-0.054m-0.112-0.203 2e-3 0.052-2e-3 -0.052m0.71-0.341c-0.097 0.027-0.314-0.057-0.254 0.115-0.158 0.069-0.347 0.111-0.295 0.374 0.112 0.046 0.23-0.025 0.366 0.09-0.057 0.087-0.152 0.141-0.255 0.187l-0.322-0.029c-0.084-0.113-0.186-0.206-0.307-0.278-0.013-0.112 0.182-0.031 0.256-0.062-1e-3 -0.234 0.313-0.176 0.293-0.427-0.163-0.018-0.14 0.136-0.198 0.216-0.131 0.045-0.291 0.063-0.355 0.169l-0.106-0.047c-0.114 0.043 0.081 0.194 0.163 0.201-0.013 0.059-0.217 0.187-0.255 0.062l-0.039 0.117-0.182-0.016c0.066-0.057 0.142-0.106 0.111-0.252-0.079 0.058-0.213 0.146-0.257 0.239l-0.863-0.077c0.028-0.057 0.122-0.054 0.086-0.171-0.097-4e-3 -0.175-0.028-0.211-0.096l-0.097 0.16-0.058-0.154c-0.286-0.056-0.114-0.23-0.17-0.355-0.162-0.018-0.179 0.137-0.095 0.211-0.192 0.038-0.154 0.044-0.411 0.069 0.052 0.164-0.073 0.165-0.146 0.213l5e-3 0.025-0.191-0.017 0.078-0.108c0.024-0.115-0.101-0.069-0.109-0.15 0.017-0.117 0.104-0.17 0.144-0.266-0.035-0.124-0.2-0.106-0.316-0.142l9e-3 0.207c-0.292-0.179 0.224-0.401 0.454-0.278 0.015-0.125-0.235 0.039-0.162-0.149-0.294 0.06-0.428 0.268-0.656 0.39l6e-3 0.156c0.082 0.149 0.199-0.077 0.362-0.015 0.113 2e-3 0.116 0.125 0.114 0.254-0.216 0.036-0.293-0.078-0.47-0.084l-0.042 0.133-2.089-0.186-0.137-0.012-0.268-0.024c0.076-0.1 0.195-0.161 0.192-0.334-0.158 0.053-0.279 0.141-0.405 0.224l0.132 0.102-0.823-0.073-0.085-0.049-0.033 0.039-0.562-0.051-0.078-0.012-0.01 5e-3 -0.451-0.041c0.138-0.052 0.186-0.187 0.239-0.319-0.105 0.036-0.362-0.068-0.305 0.117l0.101-0.056c0.141 0.042-0.129 0.101-0.043 0.258l-3.661-0.327 0.131-0.043c-0.156-0.144 0.094-0.167 0.037-0.366-0.088 0.076-0.238 0.224-0.142 0.318l-0.104 4e-3 9e-3 0.081-0.175-0.015-0.148-0.014-0.153-0.013 1e-3 -0.072c-0.113-0.027-0.13 0.032-0.187 0.055l-0.126-0.011 3e-3 -0.031-0.049 0.027-0.782-0.07 0.153-0.085-0.107-0.099c-7e-3 -0.156-0.013-0.311-0.019-0.466 0.115-0.046 0.348 0.043 0.211 0.095 0.096 0.164 0.129-0.14 0.307-0.065 0.012-0.12-0.016-0.198-0.062-0.256-0.17-0.057-0.033 0.169-0.202 0.112-0.096-4e-3 -0.039-0.174-0.112-0.203-0.121 5e-3 -0.241 0.01-0.362 0.015l0.106 0.047c-0.165 0.176-0.396-0.035-0.521-0.082-0.173 0.067-0.358 0.178-0.565 0.075-0.012 0.121 0.016 0.198 0.062 0.257-0.119-0.042-0.23-0.055-0.31 0.013-0.137-0.128-0.2-0.216-0.221-0.354-0.121-0.067-0.189 0.141-0.207 8e-3 -0.076 0.048 0.018 0.077-0.043 0.209 0.166 0.046 0.338 0.087 0.219 0.302 0.268-0.018 0.437-0.127 0.665-0.182 0.068 0.083 0.145 0.275 0.265 0.144-0.064 0.183-0.209 0.101-0.304 0.168 0.066 0.121 0.353 0.032 0.359-0.066l0.06 0.205c0.237 0.038 0.309-0.026 0.467 0.032 0.027 0.134-0.163 0.068-0.199 0.144l-1.087-0.097 0.047 4e-3c-0.026-0.173 0.213-0.102 0.196-0.267-0.289-0.052-0.308 0.147-0.456 0.226l1e-3 0.018-0.15-0.013 0.041-0.104-0.046 0.104-0.221-0.02c-0.044-0.045-0.147-0.026-0.098-0.173-0.121-0.012-0.198 0.016-0.256 0.062l0.023 0.081-3.768-0.336 0.092-1.036 3.761 0.335 0.011 0.07 0.081-0.062 0.644 0.058v0.026l0.042-0.023 3.491 0.312-3e-3 0.033 0.049-0.029 5.401 0.481 0.022 2e-3 6.957 0.62c-0.056 0.023-0.109 0.068-0.068 0.234" fill="#bf1d23"/>
    </g>
    <g transform="translate(269.59 178.69)">
     <path d="m0 0c0.156-0.022 0.059-0.277 0.194-0.32-0.095-0.115-0.222 0.158-0.194 0.32m0.303-0.169c0.103-0.021 0.162 4e-3 0.159 0.098 0.115-0.027 0.16-0.118 0.252-0.166 0.014-0.2-0.154 0.034-0.213-0.146l-0.206 8e-3 8e-3 0.206m0.452-0.329c-0.052-0.123-0.213-0.129-0.368-0.14l9e-3 0.207 0.254-0.115-0.048 0.106c0.035 0.149 0.078-0.082 0.153-0.058m0.067 0.36-0.048 0.106 0.048-0.106m0.464-0.019c0.053-0.165-0.086-0.122-0.111-0.203-0.101 0.04-0.133 0.144-0.145 0.266 0.125 0.016 0.108-0.1 0.256-0.063m0.876-0.088 0.049-0.053-0.049 0.053m0.157 0.046 0.103-4e-3 -0.058-0.153c-0.063-0.014-0.172 0.156-0.045 0.157m0.169 0.356c0.045-0.091 0.188-0.093 0.145-0.265 0.042-0.094 0.207-0.075 0.144-0.265-0.125-0.016-0.108 0.098-0.256 0.062 0.019 0.179 0.142 0.295-0.144 0.265-0.032 0.143 0.106 0.1 0.111 0.203m0.65-0.545-2e-3 -0.052 2e-3 0.052m1.31 0.413 0.05-0.054-0.05 0.054m0.25-0.218 0.103-4e-3 0.05-0.054-5e-3 -0.104-0.103 4e-3 -0.049 0.054 4e-3 0.104m9e-3 0.208 0.049-0.055-0.049 0.055m0.098-0.109 0.05-0.054-0.05 0.054m-6.102-9e-3c-0.087-0.133-0.064-0.158 0.099-0.107 0.047-0.215-0.066-0.254-0.168-0.304 0.094-0.111 0.22-0.113 0.359-0.067-0.067 0.223 0.085 0.097 0.015 0.362 0.187 0.062 0.267-0.095 0.265 0.145 0.162 0.017 0.16-0.118 0.144-0.265l-0.207 9e-3c-0.078-0.114-0.12-0.266-0.221-0.355l0.047-0.105c0.207 0.07 0.377-0.096 0.564-0.127l0.106 0.047 0.146-0.033 0.396 0.036-0.175 0.138c-0.101-0.088-0.342-0.024-0.518-0.03 0.211 0.097-0.044 0.132-0.146 0.213-5e-3 0.167 0.1 0.215 0.068 0.411l0.105 0.048c0.239-0.011 0.212-0.269 0.454-0.277 3e-3 -0.094-0.067-0.107-0.059-0.205 0.208-0.041 0.239-0.244 0.454-0.278 0.022 0.146 0.068 0.048 0.311 0.039l-0.014-0.017 0.128 0.012-0.01 1e-3c0.012 0.112 0.135 0.105 0.262 0.092l-0.044-0.075 0.04 4e-3 2e-3 0.019 0.192-2e-3 0.163 0.015 0.062 0.074c-0.116 0.059-0.176 0.169-0.355 0.17 0.104 0.22 0.545-0.104 0.731 0.178 0.191-0.042 0.318-0.171 0.515-0.074-0.058-0.183 0.227-0.11 0.206-8e-3 0.081-0.086 0.218-0.12 0.293-0.211l0.02 2e-3c0.091 0.085 0.274 0.091 0.424 0.038l0.678 0.06-0.019 0.106c0.031-0.017 0.193-0.137 0.207-9e-3l0.049-0.076 0.588 0.053-0.016 0.05 0.053-0.047 0.109 0.01-0.044 0.495-0.045 0.057 0.041-0.012-0.045 0.496-4.894-0.436 0.038-4e-3c-0.109-0.134-0.151-0.096-0.17-8e-3l-0.1-9e-3 0.058-0.13c-0.097 0.018-0.182 0.049-0.227 0.115l-0.12-0.01-0.086-8e-3 -0.029-3e-3 0.049-0.077-0.209-0.043-2e-3 0.106-0.331-0.03c0.064-0.116 0.104-0.249-0.138-0.212l0.08 0.207-0.328-0.029c0.051-0.056 0.098-0.115 0.199-0.125" fill="#bf1d23"/>
    </g>
    <g transform="translate(267.36 178.42)">
     <path d="m0 0c0.096 0.065 0.177 0.147 0.24 0.249l-0.487-0.044c0.054-0.094 0.136-0.163 0.247-0.205" fill="#bf1d23"/>
    </g>
    <g transform="translate(266.04 177.91)">
     <path d="m0 0-0.151 0.11c-0.102-0.093-0.13 0-0.258 0.011-0.042-0.128-0.06-0.211 0.039-0.313 0.071 0.161 0.151 3e-3 0.264 0.145 0.044-0.204 0.178-0.015 0.36-0.067-0.01 0.184-0.13 0.139-0.254 0.114" fill="#bf1d23"/>
    </g>
    <g transform="translate(265 177.64)">
     <path d="m0 0 2e-3 0.052-2e-3 -0.052m-0.561 0.178c-0.131 0.216 0.285 0.033 0.307-0.064-0.078-0.179-0.248 0.226-0.307 0.064m2.13 0.764-0.438-0.039-0.165-0.061-0.119 0.036-0.314-0.028-0.02-2e-3 -1.227-0.11 0.017-0.087-0.044 0.085-0.168-0.015 0.104-0.17c0.136 9e-3 0.259 7e-3 0.201-0.163-0.098 0.026-0.222 0.027-0.201 0.163-0.097-2e-3 -0.042-0.17-0.161-0.149-0.021-0.135 0.199-0.048 0.146-0.213-0.26 0.038-0.141-0.038-0.212-0.147 0.239-0.034 0.341-0.084 0.567-0.023 0.182-0.035 0.225-0.161 0.412-0.069-0.033-0.105 0.093-0.127 0.101-0.056l0.03-0.13 1.001 0.089c-4e-3 0.096-0.168 0.043-0.147 0.161-0.123-0.012-0.197-0.074-0.364-0.037l-0.047 0.105c0.054 0.365 0.288 0.793 0.647 0.648 0.118 0.021 0.123 0.249 0.262 0.093l-0.159-0.097c0.081-0.141 0.301 0.09 0.357-0.118 0.101 0.087 0.119 0.211 0.209 0.042 0.179 0.075 0.056 0.204-6e-3 0.315l-0.242-0.021v-0.024l-0.02 0.022" fill="#bf1d23"/>
    </g>
    <g transform="translate(268.14 178.49)">
     <path d="m0 0c0.012 0.143-0.129 0.144-0.203 0.207l-0.265-0.023c0.121-0.117 0.369-0.22 0.468-0.184" fill="#bf1d23"/>
    </g>
    <g transform="translate(261.71 178.08)">
     <path d="m0 0-0.014 0.062-0.287-0.026z" fill="#bf1d23"/>
    </g>
    <g transform="translate(263.77 177.95)">
     <path d="m0 0 0.049-0.054z" fill="#bf1d23"/>
    </g>
    <g transform="translate(243.82 180.84)">
     <path d="m0 0c-0.101-0.183-0.139 0.098-0.256 0.063 0.069 0.154 0.195-0.045 0.256-0.063m0.326 0.402-2e-3 -0.052 2e-3 0.052m0.193-2.86c-0.12 0.022-0.108 0.165-0.197 0.215-0.099 0.123 0.252-0.061 0.197-0.215m-0.011 2.23-3e-3 -0.051 3e-3 0.051m0.383-0.742-0.254 0.114c0.039 0.011 0.283 0.104 0.254-0.114m-0.212 1.15-2e-3 -0.052 2e-3 0.052m0.347-0.377c-0.042-0.091-0.094-4e-3 -0.155 6e-3l0.155-6e-3m0.161 0.148-0.209-0.043 0.209 0.043m-0.091-2.226-0.049 0.054 0.049-0.054m-1.514 2.19 0.293-3.285 1.597 0.142-0.159 1.784-0.078 0.045 0.069 0.053-0.305 3.427-1.597-0.142 0.168-1.885 0.068-0.039-0.056-0.1" fill="#0f3768"/>
    </g>
    <g transform="translate(245.84 182.1)">
     <path d="m0 0-2e-3 -0.052 2e-3 0.052m-0.064-0.309c-0.173 0.141 0.27 0.114 0 0m-0.248 0.27 2e-3 0.052-2e-3 -0.052m1.006-1.96c-0.232-0.095-0.291-0.266-0.527-0.238l0.101-0.056c-0.15-0.168-0.236 0.144-0.355 0.17 0.149 0.163 0.464 0.145 0.781 0.124m0.408-0.121c-0.045-0.107-0.22-0.193-0.314-0.091-0.041 0.19 0.207 0.064 0.314 0.091m5e-3 0.104-0.054-0.049-0.155 6e-3c-0.165 0.066 0.141 0.053 0.209 0.043m0.452 2.212c-0.084-0.154-0.225 0.051-0.361 0.014 0.037 0.11 0.32 0.035 0.361-0.014m-1.256-2.905 0.047-0.105-0.047 0.105m-0.211-0.095-0.05 0.054 0.05-0.054m-0.411 0.068-0.05 0.054 0.05-0.054m-0.076 0.678 0.05-0.054-0.05 0.054m5e-3 0.103-3e-3 -0.051 3e-3 0.051m-0.203 2.808-0.13-0.011 0.097-1.08 0.047 2e-3 -0.043-0.05 0.012-0.137 0.171 0.015c0.519 0.046 0.69-0.231 0.72-0.574l-0.011-0.257-0.013-0.068h-5e-3c-0.064-0.194-0.228-0.346-0.577-0.377l-0.171-0.015 0.11-1.234 0.192 0.017c2.136 0.191 2.155 1.269 2.083 2.078-0.073 0.808-0.346 1.882-2.482 1.691" fill="#0f3768"/>
    </g>
    <g transform="translate(248.57 178.05)">
     <path d="m0 0c-0.108-0.223-0.464-0.108-0.62 0.025l-0.201-0.02-0.059-0.232 1.235 0.11c-0.083 0.072-0.167 0.143-0.355 0.117" fill="#0f3768"/>
    </g>
    <g transform="translate(250.13 183.38)">
     <path d="m0 0 0.102 0.032-0.092-8e-3z" fill="#0f3768"/>
    </g>
    <g transform="translate(250.96 183.45)">
     <path d="m0 0-0.012 0.027-0.189-0.017z" fill="#0f3768"/>
    </g>
    <g transform="translate(249.81 181.89)">
     <path d="m0 0 0.049-0.054z" fill="#0f3768"/>
    </g>
    <g transform="translate(251.59 178.65)">
     <path d="m0 0-0.054-0.05c-0.102-0.127-2e-3 0.086 6e-3 0.155 0.167 0.037 0.195-0.053 0.254-0.113-0.022-0.144-0.163-0.084-0.206 8e-3m0.194-0.32c-0.116-0.023-0.07 0.103-0.151 0.111 0.026 0.127 0.2-6e-3 0.151-0.111m-0.157-0.045-0.05 0.054 0.05-0.054m-0.313 1.205c-0.051 0.037-0.049 0.122-0.151 0.111 0.037 0.067 0.115 0.092 0.211 0.094 0.018-0.109-0.041-0.135-0.06-0.205m-0.209-0.042 5e-3 0.103-5e-3 -0.103m-0.111 2.337-0.049 0.054 0.049-0.054m-0.183 0.578c-0.163-0.135 0.148 0.152 0 0m-0.103 4e-3 -0.202 0.113c-0.123 0.025 0.019-0.237-0.161-0.149 0.102 0.124-0.163 0.311 0.118 0.358-0.049 0.088-0.238 0.046-0.252 0.165-0.183-0.237-0.346 0.132-0.521-0.082-0.097 0.01-0.028 0.172-0.148 0.162 0.117 0.189 0.29-0.031 0.462-0.071l0.104-4e-3 0.109 0.151c0.103-5e-3 0.207-9e-3 0.31-0.013 0.094-0.094-0.098-0.176 0.149-0.162l-0.11-0.151c0.027-0.124 0.221-0.094 0.142-0.317m-1.196-0.157c0.013 0.154 0.3 0.153 0.365 0.088-0.078-0.077-0.205-0.101-0.365-0.088m-0.132 0.575c0.081-0.109 0.23-0.153 0.246-0.321-0.156 0.038-0.259 0.126-0.246 0.321m0.594 0.598-3e-3 -0.052 3e-3 0.052m0.041-0.261 2e-3 0.052-2e-3 -0.052m0.302-1.464 0.159 0.096c0.038-0.181-0.087-0.173-0.159-0.096m-0.987-0.115c-0.168-0.039-0.064 0.173-0.201 0.163 0.037 0.182 0.279 0.049 0.201-0.163m0.139-0.37c-0.119-0.01-0.051 0.153-0.148 0.163 0.064 0.148 0.165-0.073 0.148-0.163m0.225-0.838c-0.053-0.225-0.151-0.089-0.366-0.089-0.033 0.198 0.247 0.056 0.366 0.089m-0.461 0.122-0.049 0.054 0.049-0.054m0.053 2.539 0.049-0.054-0.049 0.054m0.851-3.198 0.047-0.105c-0.069-0.154-0.195 0.044-0.255 0.061l0.208 0.044m0.555-0.334-0.047 0.106 0.047-0.106m-1.619 2.14-0.049 0.054 0.049-0.054m-0.151-2.43c-0.092 0.044 0.033 0.054 0.105 0.047 0.093-0.044-0.033-0.054-0.105-0.047m-0.047 0.105c-0.195-0.047-0.074 0.198-0.252 0.166l0.159 0.098-4e-3 -0.104c0.031-0.054 0.116-0.059 0.097-0.16m-0.405 0.225c-0.163-0.135 0.148 0.151 0 0m0.236 1.96 0.049-0.054-0.049 0.054m0.306-1.36-0.159-0.098 0.159 0.098m3.625-1.134c-0.12-0.011-0.051 0.152-0.148 0.161 0.064 0.149 0.165-0.072 0.148-0.161m0.089-0.367 0.049-0.054-0.049 0.054m0.152-0.058c0.187 0.073 0.024-0.177 0.149-0.161-8e-3 -0.098-0.221 0.021-0.149 0.161m-0.26-0.041c-0.09 0.016-0.114 0.094-0.095 0.211 0.158 0.046 0.087-0.119 0.095-0.211m-0.699-0.306 0.346 0.03c-0.085 0.115 0.3-0.011 0.295 0.123l0.022-0.094 0.496 0.044-2e-3 0.029 0.048-0.025 0.099 9e-3 -2.266 5.131c-0.18-0.113-0.29-0.155-0.465-0.032l0.015 0.02-0.147-0.013-0.027-0.104c-0.12-0.011-0.198 0.017-0.256 0.063l5e-3 0.017-0.994-0.089-0.964-3.772c0.116-0.021 0.267-0.101 0.234-0.234-0.058 0.046-0.135 0.074-0.255 0.062-0.033-0.197 0.399-0.115 0.462-0.071l-0.153 0.058c-4e-3 0.113 0.184 0.016 0.26 0.041-0.048-0.089-0.179-0.153-8e-3 -0.206-0.058-0.136-0.375 0.011-0.321-0.247-0.217 2e-3 -0.207-0.029-0.37 7e-3l-0.064-0.251 0.011 2e-3 -0.028-0.067-0.067-0.265 0.237 0.016-6e-3 -0.156c0.039-0.067 0.324-0.313 0.359-0.066-0.036 0.116-0.32 2e-3 -0.25 0.217 0.28-0.016 0.067 0.163-0.146 0.214 0.176 0.198 0.42 1e-3 0.727 0.073 0.017-0.15 0.099-0.24 0.247-0.269l-0.199 0.164c0.01 0.136 0.333 0.209 0.367 0.141 0.129-0.147-0.209-0.09-0.118-0.358-0.131 0.011-0.265 0.02-0.252 0.165-0.166 0.018-0.222-0.083-0.415-0.035-0.041-0.187 0.099-0.208 0.25-0.217l-7e-3 -0.156c0.251 0.011 0.486 0.159 0.676 0.076-0.033-0.106-0.085-0.106-0.157-0.045l-0.213-0.197 0.366 0.032-5e-3 3e-3 0.074 0.025 0.197 0.874 1.391 0.124-0.426 1.143-0.779-0.069 0.16 0.88-0.027 0.058 0.036-7e-3 0.14 0.767c-0.093-0.084-0.177-3e-3 -0.101-0.193-0.099-0.017-0.399-0.273-0.168-0.303 9e-3 -0.142-0.306 0.065-0.152 0.058-0.036 0.116-0.176 0.136-0.25 0.218 0.09 0.077 0.159 0.231-0.041 0.26 0.011 0.114 0.22 0.014 0.312 0.039 3e-3 -0.093-0.068-0.106-0.06-0.205l0.204-0.06c-0.02 0.147-0.115 0.225-0.14 0.369-0.103 4e-3 -0.206 9e-3 -0.309 0.013 0.023 0.304 0.508 0.025 0.623 0.078 0.093-0.056-0.215-0.273 0.084-0.264l0.054 0.3 0.029-0.079 0.044 0.138c0.072-0.219 0.466 0.213 0.617-0.077l-0.466-0.033c-0.096 0-0.11-0.089-0.151-0.147l1.151-3.11 4e-3 1e-3v-0.011l0.217-0.588 0.327 0.029 0.054 0.027-0.015-0.023" fill="#0f3768"/>
    </g>
    <g transform="translate(252.84 182.7)">
     <path d="m0 0 4e-3 0.104-4e-3 -0.104m0.393 0.762h0.028l-0.019 0.211-0.835-0.075 0.207-0.11c-0.09-0.137-0.142 0.096-0.302 0.08l0.112-1.265 0.933 0.084-0.091 1.016-0.033 0.059" fill="#0f3768"/>
    </g>
    <g transform="translate(255.15 183.84)">
     <path d="m0 0-0.788-0.07z" fill="#0f3768"/>
    </g>
    <g transform="translate(254.32 183.42)">
     <path d="m0 0c-0.02-0.12-0.143-0.114-0.209-0.043-0.124-0.028-0.094-0.223-0.316-0.143l0.058 0.153-0.103 4e-3c0.093 0.115 0.395 3e-3 0.57 0.029m-0.131-0.669 0.108 0.099 0.049-0.053-0.157-0.046m0.161 0.149 0.05-0.054-0.05 0.054m-0.196-2.274c0.17 0.242 0.292-0.16 0 0m0.4-0.327c0.081 0.079 0.213 0.029 0.256-0.063 0.054 0.031 0.058 0.118 0.159 0.097 0.037-0.148-0.078-0.13-0.062-0.256-0.336-0.09-0.43 0.11-0.609 0.284l-0.107-0.099-0.1 0.107 5e-3 0.104c0.099-0.107 0.418-0.011 0.458-0.174m0.381 0.45c-0.081 0.104-0.07 0.436 0.12 0.41-0.063-0.056 0.119-0.318 0.032-0.467 0.01 0.017-0.349-0.061-0.056-0.102-0.069-0.202-0.254 0.037-0.417-0.086 0.053 0.14 0.172 0.209 0.321 0.245m-0.171 0.889 0.103-4e-3 -4e-3 -0.103-0.103 4e-3 4e-3 0.103m0.023 0.57 0.05-0.054-0.05 0.054m0.496-0.539c-0.011-0.141 0.081-0.107-9e-3 -0.207-0.099 0.025-0.033 0.202-0.2 0.164l0.209 0.043m-0.718-2.356-0.049 0.054 0.049-0.054m-0.094 0.212-0.05 0.053 0.05-0.053m-0.392 0.534 0.159 0.097-0.159-0.097m-0.045 2.698 0.05-0.054-0.05 0.054m0.833-3.663 0.049-0.055-0.049 0.055m0.46-0.123c-0.013-0.128-0.175-8e-3 -0.207 8e-3 0.014 0.129 0.176 8e-3 0.207-8e-3m-0.118-0.358-0.05 0.054 0.05-0.054m-1.562 4.783-0.051-0.013 0.089-1.007 0.119-1.327 8e-3 -0.091c0.08 0.016 0.204-0.02 0.144-0.116l-0.136 0.027 0.058-0.651 0.149-0.157c-0.102-0.023-0.11 0.042-0.143 0.082l0.038-0.422 0.118-1.327 1.182 0.105 0.394 0.036-0.1 1.126-0.052 0.134c-0.096 0.025-0.067-0.122-0.109-0.151-0.021-0.014-0.161 0.119-0.157-0.046-0.076 0.048 0.017 0.078-0.044 0.209-0.161 0.033-0.206-0.104-0.309 0.013-0.033 0.345 0.254 9e-3 0.221 0.354 9e-3 -0.08 0.247-0.195 0.308-0.064-0.069 0.086-0.253 0.065-0.304 0.168 0.112 8e-3 0.247 0.025 0.387 0.04l-0.055 0.62-0.149 6e-3c-9e-3 0.096 0.093 0.072 0.139 0.109l-0.012 0.136-0.119 1.327-3e-3 0.042-0.355-0.032v-0.012l-0.02 0.01-0.254-0.022c0.049-0.092 0.116-0.185 4e-3 -0.288 0.018 0.273-0.411-0.052-0.349 0.326 0.058-0.047 0.136-0.074 0.256-0.063l4e-3 0.017-0.074-6e-3 -0.115 1.285-0.788-0.07 0.015-0.169c0.056-8e-3 0.093-0.045 0.065-0.138" fill="#0f3768"/>
    </g>
    <g transform="translate(255.43 180.21)">
     <path d="m0 0 0.043-0.058-5e-3 0.049z" fill="#0f3768"/>
    </g>
    <g transform="translate(254.88 180.59)">
     <path d="m0 0-0.101 0.056z" fill="#0f3768"/>
    </g>
    <g transform="translate(254.65 180.14)">
     <path d="m0 0-0.049 0.053z" fill="#0f3768"/>
    </g>
    <g transform="translate(255.27 179.95)">
     <path d="m0 0-2e-3 -0.051z" fill="#0f3768"/>
    </g>
    <g transform="translate(256.51 182.67)">
     <path d="m0 0-0.115 1.286-1.254-0.112 0.114-1.286z" fill="#0f3768"/>
    </g>
    <g transform="translate(254.53 183.46)">
     <path d="m0 0-4e-3 -0.103 4e-3 0.103m0.491-0.642c-0.116-0.024-0.069 0.102-0.151 0.11-0.011 0.093 0.201-5e-3 0.151-0.11m-0.476-0.327c0.034 0.126-0.07 0.126-0.045 0.245 0.047-0.104 0.424 0.062 0.405-0.212l0.354 0.031-0.114 1.286-0.788-0.07 0.114-1.286z" fill="#0f3768"/>
    </g>
    <g transform="translate(254.6 182.58)">
     <path d="m0 0 0.033-0.077 0.254 0.022-0.182 0.102z" fill="#0f3768"/>
    </g>
    <g transform="translate(269.99 184.59)">
     <path d="m0 0-0.049 0.053 0.049-0.053m0.11 0.151-3e-3 -0.052 3e-3 0.052m-5e-3 -0.104c0.091-0.016 0.114-0.093 0.095-0.211 0.154 6e-3 0.079 0.189 0.011 0.259 0.2 0.083 0.273-0.377 0.607-0.336 0.038-0.048 0.05-0.119 0.043-0.209l0.012 0.012-0.078 0.875c-0.124-0.068-0.261-0.164-0.258 0.059l0.254-0.014-0.015 0.162-0.381-0.034 0.039-0.11-0.149 0.1-0.409-0.037 0.074-0.827c0.131 0.017 0.183 0.121 0.155 0.311" fill="#0f3768"/>
    </g>
    <g transform="translate(270.28 184.06)">
     <path d="m0 0c0.236-0.198 0.081 0.3 0 0" fill="#0f3768"/>
    </g>
    <g transform="translate(270.64 184.2)">
     <path d="m0 0c-0.153-0.038 0.024-0.168-0.011-0.258l-0.072-0.022 0.317 0.029-6e-3 0.074c-0.1 0.036-0.179 0.093-0.228 0.177" fill="#0f3768"/>
    </g>
    <g transform="translate(273.04 180.89)">
     <path d="m0 0 2e-3 0.052-2e-3 -0.052m-0.202 0.112c0.1-0.073 0.105-0.234 0.139-0.369l0.138 0.04-0.035 0.384c-0.098-0.013-0.192-0.034-0.242-0.055" fill="#0f3768"/>
    </g>
    <g transform="translate(272.06 185.35)">
     <path d="m0 0-0.076-0.062c0.073-0.229 0.128 0.046 0.209 0.043 0.096-4e-3 -0.037-0.079-5e-3 -0.104l0.093 3e-3 -0.012 0.139z" fill="#0f3768"/>
    </g>
    <g transform="translate(271.93 185.24)">
     <path d="m0 0-0.169 0.086-0.64-0.057 0.011-0.13c0.228 0.014 0.465 0.112 0.798 0.101" fill="#0f3768"/>
    </g>
    <g transform="translate(272.53 180.04)">
     <path d="m0 0 0.081 7e-3 -0.019 0.028z" fill="#0f3768"/>
    </g>
    <g transform="translate(272.9 181.25)">
     <path d="m0 0 0.163-9e-3 -9e-3 0.108z" fill="#0f3768"/>
    </g>
    <g transform="translate(272.86 181.46)">
     <path d="m0 0-4e-3 -0.103z" fill="#0f3768"/>
    </g>
    <g transform="translate(272.52 183.4)">
     <path d="m0 0c-0.137-0.055-0.215 0.169-0.208-0.044l-0.149 0.162c-0.187-0.028-0.075-0.233 0.041-0.26l-0.108-0.1c-0.161 0.106-0.024 0.2-0.139 0.368 0.144-0.048 0.136 0.068 0.26 0.042-0.083 0.089-0.029 0.305-0.033 0.468 0.228-0.084 0.059-0.238 0.138-0.42 0.144-0.049 0.137 0.067 0.261 0.041 0.031 0.162-0.086 0.186-0.038 0.364 0.1-0.09 0.066 2e-3 0.207-8e-3 -0.098-0.18 0.029-0.129 0.039-0.313-0.098-0.092-0.211-0.167-0.271-0.3m-0.732-1.474 0.01 0.259c0.032-0.219 0.213-0.302 0.237-0.528-0.179 0-0.072 0.266-0.247 0.269m0.068 0.412-2e-3 -0.051 2e-3 0.051m0.094-0.211 0.05-0.054-0.05 0.054m-0.338-1.957 0.047-0.106-0.047 0.106m-0.096 2.701c0.027 0.112 0.224-0.108 0.096-0.159l-0.096 0.159m1.24 1.245-0.208-0.043 0.019 0.029-0.191-0.018-4e-3 0.048-0.029 1e-3 -0.049 0.054 0.065 0.086-0.068 0.765-0.067-0.018 5e-3 0.103c-0.253-0.102-0.789 0.101-0.787-0.279-0.13-0.017-0.22 2e-3 -0.293 0.036l0.065-0.732 0.096 0.027c0.069-0.064-0.011-0.192-0.071-0.314l0.026-0.284c0.137 0.086 0.253 0.049 0.541 0.06l0.097-0.16c-0.052-0.132-0.093-0.246 0.039-0.313-0.023-0.142-0.164-0.083-0.207 9e-3 -0.147-0.045 0.07-0.141-0.06-0.205-0.199 0.014-0.348 0.106-0.388 0.361l0.031-0.348 6e-3 -0.065 0.027-0.303 0.101-1.139 0.058-3e-3c0.013-0.18 0.041-0.187-0.033-0.274l0.11-1.238 0.394 0.035 0.348 0.031c-0.112 0.087-0.175 0.152-0.358 0.079-0.011 0.222 0.105 0.561-0.131 0.575 0.173 0.083 0.413 0.092 0.477 0.292 0.19 0.026 0.274-0.046 0.357-0.119 0.147 0.046-0.069 0.142 0.06 0.206-0.031 0.054-0.116 0.058-0.097 0.16-0.202-0.118-0.318-0.052-0.57-0.029l9e-3 0.207c0.138-0.167 0.46 0.133 0.407-0.172l0.057 0.153c0.293 6e-3 0.239 0.389 0.336 0.608l0.103-4e-3 0.017-2e-3 -0.013 0.148-0.043 0.167-0.157-0.045c6e-3 0.162 0.089 0.099 0.184 0.058l-0.04 0.447-0.058 0.654-0.091-0.019 0.078 0.159-0.047 0.533-4e-3 0.042-0.053-5e-3 4e-3 -2e-3" fill="#0f3768"/>
    </g>
    <g transform="translate(272.35 180.45)">
     <path d="M 0,0 C 0.126,0.017 0.109,-0.099 0.256,-0.062 0.342,0.091 -0.005,0.085 0,0" fill="#0f3768"/>
    </g>
    <g transform="translate(273.01 180.16)">
     <path d="m0 0-0.048 0.105z" fill="#0f3768"/>
    </g>
    <g transform="translate(271.48 183.13)">
     <path d="m0 0c0.297-0.067 0.03 0.224 0 0" fill="#0f3768"/>
    </g>
    <g transform="translate(273.01 181.87)">
     <path d="m0 0-4e-3 0.048z" fill="#0f3768"/>
    </g>
    <g transform="translate(273.03 181.65)">
     <path d="m0 0-0.01 0.108-0.098-0.038z" fill="#0f3768"/>
    </g>
    <g transform="translate(272.27 185.37)">
     <path d="m0 0 0.147 0.013z" fill="#0f3768"/>
    </g>
    <g transform="translate(273.11 185.13)">
     <path d="m0 0c-0.047-0.075-0.17-0.068-0.262-0.093l-0.048 0.106c-0.096 0.052 0.238 0.038 0.31-0.013m0.047-0.105 0.05-0.054-0.05 0.054m-0.318-0.195c0.051 0.149 0.08 0.055 0.208 0.044l-0.208-0.044m0.893 0.327 0.049-0.055-0.049 0.055m-1.04 0.243 8e-3 -0.097h3e-3l5e-3 -0.083 0.029-0.332 0.052-4e-3 -0.048-0.041 0.065-0.729 1.255 0.112-0.112 1.261-0.024 0.023-0.476-0.043-0.017-0.039-0.101 0.029-0.448-0.04 0.027-0.123c-0.114-0.011-0.158 0.041-0.186 0.109l-0.215-0.019z" fill="#0f3768"/>
    </g>
    <g transform="translate(272.58 184.85)">
     <path d="m0 0c0.021 0.12 0 0.199-0.041 0.261l-0.058-0.154c-0.099 0.068-0.098 0.101-0.189 0.081l0.068-0.765 0.091-0.04-4e-3 -0.104-0.074 3e-3 4e-3 -0.047 0.191 0.017 0.038 0.125 0.104-5e-3 0.043-0.104 0.052 5e-3 -0.065 0.729-0.16-2e-3" fill="#0f3768"/>
    </g>
    <g transform="translate(272.45 185.22)">
     <path d="m0 0 0.05 0.143-0.089 0.012-0.147-0.013 0.012-0.139z" fill="#0f3768"/>
    </g>
    <g transform="translate(272.7 185.31)">
     <path d="m0 0-9e-3 0.097-0.182-0.016-0.01-0.021c0.092 2e-3 0.106-0.066 0.201-0.06" fill="#0f3768"/>
    </g>
    <g transform="translate(272.74 184.89)">
     <path d="M 0,0 -0.03,0.331 C -0.039,0.203 -0.097,0.029 0,0" fill="#0f3768"/>
    </g>
    <g transform="translate(257.62 180.58)">
     <path d="m0 0-0.049 0.053 0.049-0.053m-0.331 3.28c0.047 0.075 0.135 0.106 0.263 0.093-0.019-0.225-0.094-0.091-0.263-0.093m0.585-3.395-0.045 0.158 0.045-0.158m-0.011-0.259c-0.117 0.179 0.169-0.132 0 0m0.101-0.055 0.05-0.054-0.05 0.054m0.028 0.672c-0.117 0.179 0.168-0.132 0 0m0.087-1.662-0.105-0.048c-0.179 0.086 0.099 0.095 0.105 0.048m-0.12-0.41c-0.092 0.044 0.033 0.054 0.105 0.048 0.093-0.044-0.033-0.055-0.105-0.048m0.229 1.806-2e-3 -0.052 2e-3 0.052m0.179-0.682-0.105-0.048c0.041-0.078 0.163-0.081 0.254-0.113 0.017-0.163-0.117-0.162-0.265-0.145 0.078 0.058-0.161 0.452 0.116 0.306m0.463-0.071-0.054-0.049 0.054 0.049m0.092-0.262-4e-3 -0.104 4e-3 0.104m-0.118-0.359c0.037 0.068 0.114 0.092 0.211 0.095-0.016-0.09-0.094-0.114-0.211-0.095m-1.088-0.059c-0.093 0.044 0.033 0.055 0.105 0.048 0.093-0.045-0.033-0.055-0.105-0.048m-0.097 0.159-0.05 0.054 0.05-0.054m0.088 0.879c0-0.114-0.125-0.055-0.106-0.048-0.058-0.023-0.146-0.105-0.24-0.143l0.014-0.157c0.06 0.081 0.099 0.185 0.222 0.197-0.052-0.165 0.073-0.166 0.146-0.214l0.106 0.047-0.097 0.16c0.053 0.139 0.179-0.06 0.256-0.062 0.027-0.21-0.062-0.294-0.071-0.464-0.113-0.083-0.15 0.11-0.15 0.11l-0.16-0.098-0.223-1e-3 0.022-0.244 0.04 0.097-4e-3 -0.104c0.025-0.106 0.151-0.108 0.043-0.209l-0.062 0.022 0.032-0.359 1.597 0.142-0.076 0.86-0.068 3e-3 5e-3 0.103 0.053-2e-3 -0.387 4.345-1.597-0.142 0.331-3.716c0.168-1e-3 0.306-0.03 0.374-0.123" fill="#0f3768"/>
    </g>
    <g transform="translate(261.64 179.07)">
     <path d="M 0,0 -0.004,-0.004 0.388,0.031 C 0.316,0.091 0.103,0.074 0,0" fill="#0f3768"/>
    </g>
    <g transform="translate(260.95 179.77)">
     <path d="m0 0c0.047 0.075 0.169 0.068 0.263 0.093-0.013-0.113-0.135-0.106-0.263-0.093m-0.366-0.088-0.049 0.053 0.049-0.053m-0.122-0.462c-0.117 0.179 0.168-0.132 0 0m-0.061 1.039 0.054 0.049-0.054-0.049m-0.146 0.214c0.052 0.151-0.02 0.211-0.089 0.366-0.156 0.044-0.155-0.083-0.311-0.039l4e-3 0.104 0.054 0.049c0.142-0.148 0.275 0.019 0.415 0.035 0.11-0.113-0.104-0.283 0.142-0.317-0.101-0.056-0.145-0.143 0.045-0.158 4e-3 -0.112-0.184-0.015-0.26-0.04m-0.161-0.15 4e-3 0.104c0.111 0.02 0.095-0.078 0.097-0.159l-0.101 0.055m-0.203 0.113c-0.169 0.01-0.191 0.155-0.408 0.12-0.155 0.087 0.226 0.037 0.311 0.039 0.122 0.011 0.198 0.074 0.364 0.037 0.023-0.187-0.309 0.011-0.267-0.196m-0.497 0.487-0.05 0.053 0.05-0.053m0.153-0.058-4e-3 -0.104 4e-3 0.104m0.209 0.043c-5e-3 -0.385-0.082-0.039-0.099 0.108l0.099-0.108m0.214 0.199 0.05-0.054-0.05 0.054m0.386-1.935-0.103 4e-3 -0.049 0.054c-0.017 0.102 0.238 0.066 0.152-0.058m-0.256 0.063c-0.117 0.178 0.169-0.133 0 0m0.777 3.805 0.05-0.054-0.05 0.054m0.835-3.612 0.049-0.054-0.049 0.054m-0.428-0.374c0.022 0.141 0.235 0.17 0.419 0.167l-0.056-0.102c0.085 0.107 0.258 0.116 0.349 0.216l-0.284 0.3c-0.091-0.115-0.241-0.165-0.265-0.352-0.253 0.015-0.369 0.157-0.398 0.38l0.099-0.109c0.151 0.05 0.178 0.15 0.116 0.307 0.094 0.021 0.153 0.029 0.207 0.028l-0.595 0.627-0.055-0.118c-0.072 0.084-0.123 0.185-0.25 0.217l0.165 0.05-0.238 0.251c0.784 0.227 1.07 0.89 1.006 1.605l-0.027 0.231-0.672-0.585 0.106 0.479c-0.1-0.094-0.294-0.014-0.414-0.057-0.046 0.158 0.119 0.087 0.21 0.095 0.093 0.017 0.101 0.126 0.234 0.099l5e-3 0.022 0.185 0.806c-0.321 0.398-0.92 0.676-2.053 0.575l-0.173-0.015 0.113-1.265 0.121 0.011c0.559 0.05 0.723-0.145 0.758-0.539 0.032-0.352-0.083-0.593-0.653-0.643l-0.12-0.011 0.122-1.369 0.262-0.38 0.164 0.158c0.129-0.011 0.157-0.105 0.209 0.044 0.222-0.093 0.445-0.29 0.547-0.541-0.184-0.02-0.265 0.055-0.304 0.168-0.089-0.066-0.328 0.032-0.316-0.143-0.159 0.103-4e-3 0.135-0.149 0.162l-0.033-0.018 0.599-0.868 0.661 0.059-0.017 0.052 0.052-0.049 0.182 0.017-0.028 0.023 0.209 0.015" fill="#0f3768"/>
    </g>
    <g transform="translate(261.24 179.4)">
     <path d="m0 0 0.049-0.054 0.104-4e-3c0.085 0.124-0.169 0.16-0.153 0.058" fill="#0f3768"/>
    </g>
    <g transform="translate(257.48 179.66)">
     <path d="m0 0-0.098 0.106 8e-3 -0.097z" fill="#0f3768"/>
    </g>
    <g transform="translate(260.08 179.96)">
     <path d="m0 0-0.05 0.054z" fill="#0f3768"/>
    </g>
    <g transform="translate(261.41 179.7)">
     <path d="m0 0-4e-3 -0.103z" fill="#0f3768"/>
    </g>
    <g transform="translate(263.38 183.72)">
     <path d="m0 0-0.05 0.054z" fill="#0f3768"/>
    </g>
    <g transform="translate(263.74 179.71)">
     <path d="m0 0c0.139-0.053-0.06-0.18-0.062-0.257-0.098 0.01 0.049 0.192 0.062 0.257m-0.972 0.247c-3e-3 0.093 0.067 0.106 0.06 0.205 0.103-4e-3 0.207-8e-3 0.31-0.012 3e-3 -0.097 0.026-0.175 0.095-0.212-0.144-0.144-0.307 0.146-0.465 0.019m0.407-0.172-0.05 0.053 0.05-0.053m-0.523-0.135c0.091 0.046 0.092 0.189 0.264 0.146 0.013-0.159-0.172-0.101-0.264-0.146m0.032-0.467c-0.017 0.162 0.138 0.18 0.211 0.095-0.037-0.068-0.114-0.092-0.211-0.095m-0.112 1.041 4e-3 0.104 0.104-4e-3 -5e-3 -0.104-0.103 4e-3m-0.034 2.958c-0.165 0.081-0.125 0.121-0.09 0.314 0.073-0.048 0.16-0.084 0.146-0.213l-0.056-0.101m-0.013-0.311c-0.11-0.054-0.111-0.051-0.049 0.054 0.108 0.023 0.101-0.206 0.049-0.054m0.106 0.047-0.05 0.054 0.05-0.054m0.12 0.41-2e-3 -0.052 2e-3 0.052m-0.033-3.317-0.049 0.054 0.049-0.054m0.16 2.638c-0.121 0.021-0.089 0.184-0.251 0.166 0.204 0.051 0.474 0.252 0.514-0.073-0.074 0.085-0.292 0.088-0.263-0.093m0.243 0.871 0.097-0.159c-0.106-0.033-0.361-0.049-0.515 0.073 0.095 0.079 0.279 0.058 0.418 0.086m0.694 0.055-0.068 0.041-2e-3 -0.017-0.052 0.049-0.133 0.08c-0.038-0.045-0.076-0.104-0.226-0.061l0.045-0.157c-0.101 0.183-0.265-2e-3 -0.409 0.121-0.043 0.131 0.197 0.304-0.039 0.312-0.054 0.18 0.22 0.03 0.258-0.01l0.027 1e-3 -0.228 0.137-0.26-0.227 0.147-2e-3 -8e-3 -0.207c-0.046 0.057-0.19 0.024-0.149 0.161l-0.036 8e-3 -0.461-0.402 0.036-0.408 0.12 0.039c0.016-0.092-0.047-0.098-0.115-0.098l0.254-2.843 1e-3 -0.015 0.024-0.274 0.012-0.044-7e-3 -4e-3 0.053-0.604 0.498 0.045c6e-3 0.14-0.051 0.316 0.017 0.384 0.138-0.073 0.315-0.107 0.351-0.274l-0.206 9e-3 0.042-0.101 0.895 0.08z" fill="#0f3768"/>
    </g>
    <g transform="translate(243.7 185.58)">
     <path d="m0 0c0.39 0.035 0.646 0.261 0.614 0.619l-1e-3 6e-3c-0.028 0.315-0.246 0.428-0.621 0.491-0.32 0.052-0.401 0.084-0.411 0.202l-1e-3 6e-3c-8e-3 0.087 0.066 0.164 0.219 0.178 0.152 0.013 0.315-0.04 0.485-0.137l0.18 0.318c-0.196 0.131-0.428 0.194-0.691 0.17-0.37-0.033-0.614-0.273-0.584-0.601v-5e-3c0.032-0.359 0.276-0.439 0.648-0.499 0.309-0.051 0.376-0.097 0.385-0.197v-6e-3c0.01-0.105-0.083-0.179-0.246-0.193-0.206-0.019-0.384 0.051-0.559 0.171l-0.21-0.302c0.235-0.174 0.519-0.245 0.793-0.221" fill="#0f3768"/>
    </g>
    <g transform="translate(244.83 187.26)">
     <path d="m0 0-0.031 0.348-0.413-0.036 0.031-0.349z" fill="#0f3768"/>
    </g>
    <g transform="translate(244.96 185.72)">
     <path d="m0 0-0.123 1.384-0.393-0.035 0.124-1.384z" fill="#0f3768"/>
    </g>
    <g transform="translate(245.21 186.95)">
     <path d="m0 0c-0.093 0.044 0.033 0.055 0.105 0.048 0.093-0.045-0.033-0.055-0.105-0.048m0.73-0.134 0.02 1e-3 -0.036 0.411c-0.233-0.01-0.351-0.146-0.414-0.344l-0.025 0.279-0.393-0.035 0.124-1.384 0.392 0.035-0.045 0.511c-0.03 0.331 0.116 0.502 0.377 0.526" fill="#0f3768"/>
    </g>
    <g transform="translate(246.43 187.4)">
     <path d="m0 0-0.031 0.348-0.413-0.036 0.031-0.349z" fill="#0f3768"/>
    </g>
    <g transform="translate(246.44 187.25)">
     <path d="m0 0-0.392-0.035 0.123-1.384 0.392 0.035z" fill="#0f3768"/>
    </g>
    <g transform="translate(247.94 186.74)">
     <path d="m0 0 2e-3 0.051-2e-3 -0.051m8e-3 0.648-0.392-0.035 0.069-0.772c0.016-0.186-0.071-0.29-0.221-0.303-0.149-0.014-0.246 0.074-0.262 0.26l-0.069 0.772-0.392-0.035 0.079-0.896c0.029-0.318 0.219-0.498 0.516-0.472 0.199 0.018 0.306 0.134 0.386 0.258l0.017-0.196 0.392 0.035z" fill="#0f3768"/>
    </g>
    <g transform="translate(249.22 186.43)">
     <path d="m0 0c-0.134 0.163 0.151-0.148 0 0m-0.196 0.268 2e-3 0.051-2e-3 -0.051m-0.516 0.021c-0.118 0.178 0.168-0.133 0 0m-0.043 0.209-2e-3 -0.052 2e-3 0.052m-0.058-0.154-0.05 0.054 0.05-0.054m0.86-0.45 6e-3 -1e-3 0.029 0.217-1e-3 5e-3c-0.015 0.176-0.133 0.265-0.27 0.318v-0.01l-9e-3 0.014-0.14 0.042 0.041-0.156c-0.011-0.114-0.22-0.013-0.312-0.039l6e-3 0.156 0.101-0.057-0.047 0.106 0.023 0.038-0.144 0.101v5e-3c-5e-3 0.055 0.041 0.1 0.136 0.109 0.101 9e-3 0.242-0.028 0.386-0.096l0.045 0.102-0.02 0.035c-0.188-0.03-0.183 0.097 2e-3 0.052l0.036-0.047 0.063 0.143c-0.159 0.087-0.356 0.129-0.531 0.114-0.279-0.025-0.492-0.203-0.467-0.484v-6e-3c0.024-0.268 0.252-0.339 0.45-0.378 0.157-0.033 0.294-0.05 0.301-0.135l1e-3 -5e-3 -9e-3 -0.049 0.12-0.034c-0.149-0.273 0.039-0.101 0.117-0.196l0.089 0.126-2e-3 0.01" fill="#0f3768"/>
    </g>
    <g transform="translate(248.74 186.08)">
     <path d="m0 0c0.042 0.091 0.059 0.175 0.051 0.262-0.128-0.01-0.289 0.032-0.447 0.126l-0.145-0.273c0.197-0.128 0.419-0.173 0.613-0.156 0.111 0.01 0.21 0.038 0.29 0.085-0.138 4e-3 -0.224-0.048-0.362-0.044" fill="#0f3768"/>
    </g>
    <g transform="translate(249.36 186.13)">
     <path d="m0 0-6e-3 -0.011 6e-3 1e-3z" fill="#0f3768"/>
    </g>
    <g transform="translate(250.4 187.41)">
     <path d="m0 0c-0.118 0.179 0.168-0.132 0 0m0.162-1.111 0.059-0.075 0.465 0.042-0.712 0.868 0.525 0.937-0.444-0.04 0.02-0.054-0.045 0.02-0.313-0.587-0.431 0.552-0.465-0.041 0.683-0.834-0.138-0.247 0.041-0.028-0.083-0.046-0.318-0.565 0.151-0.072 0.251 0.023 0.353 0.656 0.385-0.488 0.016-6e-3v-0.015" fill="#0f3768"/>
    </g>
    <g transform="translate(252.85 186.69)">
     <path d="m0 0-0.204 0.06c0.036 0.068 0.114 0.092 0.21 0.095l-6e-3 -0.155m-0.157 1.199-0.046 0.157 0.046-0.157m-0.207 8e-3c-0.118 0.179 0.168-0.132 0 0m-0.176-0.511 4e-3 0.104-4e-3 -0.104m-0.102 0.056 5e-3 0.104-5e-3 -0.104m-0.823 0.086-0.05 0.054 0.05-0.054m1.539-0.402-0.055 0.029 0.048 0.052-0.092 1.038-0.429-0.038-0.177-0.351 0.159-0.058c-0.034-0.016-0.106-0.026-0.204-0.031l-0.185-0.367-0.543 0.722-0.428-0.038 0.161-1.807 0.389 0.035-0.104 1.172 0.571-0.72 0.011 1e-3 0.44 0.818 0.105-1.18 0.395 0.035z" fill="#0f3768"/>
    </g>
    <g transform="translate(266.91 183.99)">
     <path d="m0 0 0.042-0.12-0.011 0.125z" fill="#0f3768"/>
    </g>
    <g transform="translate(268.21 184.14)">
     <path d="m0 0c0.086-0.109-0.043-0.1 0.043-0.209 0.107 0.01 0.109 0.134 0.163 0.201 0.202-0.063 0.387-0.142 0.506-0.281-0.133-0.256-0.197 0.193-0.406 0.173-0.024-0.171 0.251-0.066 0.142-0.317-0.343 0.118-0.42 0.115-0.768 0.187 0.032 0.131 0.076 0.178-0.041 0.261 0.054 0.126 0.195-0.08 0.361-0.015m0.615-3.914c0.242 0.026 0.237-0.099-2e-3 -0.052l2e-3 0.052m0.064 1.553c0.221-0.024 0.18 0.237 0.372 0.244-0.026-0.098-0.151-0.088-0.114-0.254l0.11 0.15 0.043-0.209c0.199-1e-3 0.246 0.165 0.471 0.136l0.097-0.159c-0.123-0.154-0.359 0.25-0.417-0.087-0.143 0.068-0.355 0.072-0.566 0.075l0.047-0.105c-0.096-0.121-0.112 0.117-0.043 0.209m0.392-0.535c-0.142-0.032-0.1 0.107-0.202 0.113 0.18 0.073 0.282 0.233 0.576 0.183-0.068-0.161-0.36-0.077-0.374-0.296m-0.219-0.302-0.101 0.056 0.055 0.102 0.101-0.057-0.055-0.101m-0.309 0.064 0.048-0.105-0.048 0.105m-0.517 2.511c0.062 0.098 0.415 0.158 0.469 0.085 0.011-0.212-0.324-0.044-0.469-0.085m0.368-1.104-0.049 0.053 0.049-0.053m-0.303 0.168c-4e-3 0.112 0.184 0.016 0.26 0.041-0.01-0.132-0.197-0.114-0.26-0.041m-0.467 1.212-0.05 0.054 0.05-0.054m0.137-2.962 0.097-0.159c-0.112-0.02-0.095 0.077-0.097 0.159m0.622 0.026 4e-3 0.104-4e-3 -0.104m-1.292 3.596c0.083 0.051 0.17-0.018 0.304 0.075 0.128-0.065 0.353-0.039 0.353-0.222-0.117 0.038-0.307 0.116-0.413 0.017 0.236-0.077 0.216-0.397 0.08-0.574-0.016 0.158-0.142 0.169-0.275 0.163l0.02-0.218c0.739-0.023 0.846-0.636 0.912-1.374 0.028-0.317 0.045-0.617-7e-3 -0.868l0.031-0.012c0.143-0.029-0.029 0.284 0.114 0.254 0.174-0.01 5e-3 -0.118 0.146-0.213 0.175 0.028 0.186-0.095 0.198-0.216-0.113 0.033-0.077-0.096-0.158-0.097l-0.1 0.108c-0.076-0.099-0.196-0.104-0.323-0.083l-0.116-0.157c0.143-0.089 0.255-0.207 0.311-0.377l0.109 0.151c0.106-0.051 0.151-0.159 0.142-0.317-0.205 0.044-0.28 0.206-0.508 0.228 0.027 0.107-0.029 0.139-0.043 0.21l-0.174-0.017c-0.077-0.042-0.168-0.076-0.274-0.099l0.115-1.278c0.303 0.038 0.566 0.103 0.794 0.189 0.089 0.101 0.191 0.189 0.228 0.347 0.088-0.102 0.153 0.055 0.256-0.063l-0.016-0.047 0.128 0.091 0.049 0.105 0.044-0.027c0.655 0.582 0.747 1.48 0.671 2.332l-0.02 0.191c-0.049-0.065-0.176-0.113-0.285-0.075 0.09 0.099-2e-3 0.066 8e-3 0.207-0.086-0.195-0.489 0.051-0.299 0.271 0.104-0.083 0.293-0.252 0.461-0.122l-0.046 0.157c-0.265 0.01-0.405 0.025-0.514 0.073l0.108 0.099c-0.058 0.103-0.438 0.038-0.25 0.218l-0.258 0.01c0.2 0.222 0.486-0.13 0.675 0.077 0.096 1e-3 0.167-0.019 0.214-0.062-0.038 0.109-0.081 0.215-0.131 0.317-0.201-0.065-0.459-0.134-0.593-0.079 0 0.267 0.368 0.133 0.493 0.263-0.372 0.616-1.033 1.034-2.2 0.976l-3e-3 -0.069z" fill="#0f3768"/>
    </g>
    <g transform="translate(268.15 183.99)">
     <path d="m0 0-0.049 0.054z" fill="#0f3768"/>
    </g>
    <g transform="translate(267.64 184.06)">
     <path d="m0 0c9e-3 0.113-0.308 0.174-0.306 0.116l-6e-3 -3e-3 0.014-0.154c0.119-7e-3 0.239-0.017 0.298 0.041" fill="#0f3768"/>
    </g>
    <g transform="translate(267.31 184.39)">
     <path d="M 0,0 0.015,-0.164 C 0.055,-0.101 0.102,-0.013 0,0" fill="#0f3768"/>
    </g>
    <g transform="translate(268.52 181.49)">
     <path d="m0 0-0.054-0.049-4e-3 -0.104 0.103-4e-3c0.061 0.072 0.061 0.124-0.045 0.157" fill="#0f3768"/>
    </g>
    <g transform="translate(266.04 182.88)">
     <path d="m0 0-4e-3 -0.104z" fill="#0f3768"/>
    </g>
    <g transform="translate(269.71 182.89)">
     <path d="m0 0-8e-3 -0.207 0.159 0.097 2e-3 -2e-3 -0.02 0.13z" fill="#0f3768"/>
    </g>
    <g transform="translate(267.21 179.93)">
     <path d="m0 0 0.047-0.106-0.047 0.106m4e-3 0.103c0 0.135 0.034 0.085 0.079 0.067l-8e-3 0.097c-0.165 0.069-0.125-0.362-0.385-0.254l-4e-3 -0.104c0.037-0.153 0.167 0.025 0.258-0.011-5e-3 -0.109-9e-3 -0.22-0.014-0.33l0.208 4e-3 -0.042 0.456-0.092 0.075" fill="#0f3768"/>
    </g>
    <g transform="translate(265.7 183.47)">
     <path d="m0 0 0.049-0.054z" fill="#0f3768"/>
    </g>
    <g transform="translate(268.87 179.97)">
     <path d="m0 0-0.124-0.151 0.177 0.093z" fill="#0f3768"/>
    </g>
    <g transform="translate(266.26 183.24)">
     <path d="m0 0c-0.022-0.119 0-0.199 0.041-0.261l0.052 0.027 0.062 0.215-0.155 0.019" fill="#0f3768"/>
    </g>
    <g transform="translate(265.03 180.78)">
     <path d="m0 0 0.033-0.074 0.064 0.039z" fill="#0f3768"/>
    </g>
    <g transform="translate(269.52 183.26)">
     <path d="m0 0-0.05 0.054z" fill="#0f3768"/>
    </g>
    <g transform="translate(269.73 183.3)">
     <path d="m0 0 0.04-0.04-0.017 0.065z" fill="#0f3768"/>
    </g>
    <g transform="translate(266.09 182.78)">
     <path d="m0 0 0.049-0.053z" fill="#0f3768"/>
    </g>
    <g transform="translate(265.21 184.06)">
     <path d="m0 0 0.049-0.054-0.049 0.054m0.409-0.12c-0.109-0.018-0.136 0.04-0.205 0.06-0.012 0.092 0.293 0.08 0.205-0.06m0.264 0.144 6e-3 0.156c0.217-0.073 0.278-0.03 0.517-0.022 0.02-0.111-0.078-0.095-0.16-0.096l-8e-3 -0.207c-0.144-0.017-0.04 0.194-0.146 0.213-0.156-0.028 0.044-0.113-9e-3 -0.207l-0.105-0.048c-0.166-0.079-0.203 0.201-0.256 0.063-0.109 0.02 0.061 0.177 0.161 0.148m0.37 0.193c-0.17-0.058-0.033 0.169-0.202 0.111 0.037 0.125 0.262 0.017 0.202-0.111m0.069 0.412c0.229 0.012 0.323-0.1 0.351-0.274-0.168-0.039-0.065 0.173-0.201 0.163l-6e-3 -0.155c-0.198-0.137-0.2 0.066-0.144 0.266m0.115-0.743-0.046-0.09c-0.104 0.022-0.158 0.065 6e-3 0.155l0.05-0.054c0.099-0.037-0.015-0.034-0.01-0.011m0.053-0.198c-0.135 0.163 0.151-0.148 0 0m-0.168-0.304c-0.09 0.04-0.157 0.064-0.206 9e-3 -0.192 0.054 0.286 0.217 0.206-9e-3m0.462 1.174 0.05-0.054-0.05 0.054m-1.233-3.579 0.205-0.061-0.106-0.048 0.151-0.109c-0.076-0.216-0.327-8e-3 -0.25 0.218m0.512-0.125c-0.082-0.036-0.083-0.161-0.213-0.147 0.056 0.089 0.101 0.274 0.213 0.147m-0.032 0.468c0.249-0.063-0.013-0.388-0.17-0.356 0.094 0.077 0.079 0.274 0.17 0.356m0.392-0.534c-0.086-0.065-0.202-0.214-0.315-0.092-0.041 0.19 0.207 0.064 0.315 0.092m-0.196 0.266 0.049-0.053-0.049 0.053m0.067-0.883 0.108 0.098c0.141-0.027-4e-3 -0.162-0.108-0.098m0.08-0.574-0.05 0.053 0.05-0.053m-0.278 0.789c0.051 0.148 0.08 0.055 0.209 0.043-0.02-0.119-0.143-0.113-0.209-0.043m0.028-0.572c-0.24 0.022 0.118 0.15 0.064 0.309 0.173-0.106-0.095-0.179-0.064-0.309m-0.129 0.627c-0.109-0.017-0.135 0.042-0.204 0.061-0.013 0.092 0.293 0.081 0.204-0.061m-0.054-0.049 0.05-0.054-0.05 0.054m0.024-0.675 2e-3 0.052-2e-3 -0.052m-0.288 0.53c-0.199-0.183 0.015 0.105 4e-3 0.104 0.099 7e-3 0-0.099-4e-3 -0.104m-0.246 0.322 2e-3 0.052-2e-3 -0.052m-0.444 3.096 0.067-0.157 0.081-0.075-0.027-0.052 0.367-0.859-0.718 0.431c-0.043-0.324-0.039-0.661-0.01-0.994 0.032-0.353 0.092-0.708 0.203-1.035l0.186 0.02c-7e-3 -0.255 0.123 0.112 0.205-0.061 0.012-0.243-0.166-0.265-0.202-0.39l0.106-0.174 0.124-7e-3 -0.082-0.053c0.335-0.458 0.864-0.775 1.695-0.814l0.113 0.07c-0.088 0.228-0.263 0.065-0.459 0.175 0.026 0.08 0.164 0.038 0.112 0.202-0.082-0.018-0.051-0.16-0.211-0.095 0.064 0.16 0.04 0.145-0.095 0.211l0.209 0.044c-0.086 0.07 0.012 0.31-0.142 0.317 0.152 0.143 0.291-0.205 0.463-0.071l0.096-0.159c0.112-0.014 0.031 0.182 0.063 0.256l0.135-0.022-0.032 0.364c-0.563 0.029-0.746 0.414-0.829 0.934l-0.101 2e-3 0.09 0.075c-0.016 0.114-0.029 0.232-0.039 0.355-0.019 0.207-0.032 0.405-0.026 0.586l-0.247-0.125c-0.281 0.025-0.646 0.232-0.444 0.537-0.044 0.06-0.115 2e-3 -0.202 0.112 0.087 0.162-0.031 0.173-0.09 0.315 0.101 0.056 0.197-0.022 0.363 0.037-0.073 0.299-0.354 0.109-0.514 0.073 5e-3 0.362 0.467 0.101 0.622 0.026 0.156-0.043 0.19 0.046 0.311 0.039-0.114-0.175-0.118-0.283-0.021-0.517l0.11 0.15c0.094-0.1 0.129-0.011 0.258-0.01l3e-3 -0.048c0.098 0.151 0.256 0.26 0.497 0.314l-3e-3 0.041c-0.082 0.11-0.146 0.274-0.271 0.151-0.068 0.136-0.184 0.228-0.244 0.372 0.165-0.138 0.304-0.029 0.466 0.014l-0.016 0.177-0.082-0.05c-0.113 0.092 0.038 0.112 0.079 0.083l-0.028 0.309-0.032 0.074c-0.118-0.024 0.06-0.083-0.058-0.153-0.123 0.069-0.115 0.16-0.077 0.261-0.918-0.157-1.437-0.575-1.712-1.111l-0.01-0.095" fill="#0f3768"/>
    </g>
    <g transform="translate(269.62 183.15)">
     <path d="m0 0 0.103-4e-3 4e-3 0.103-0.049 0.054-0.103 4e-3 -4e-3 -0.104z" fill="#0f3768"/>
    </g>
    <g transform="translate(263.09 186.63)">
     <path d="m0 0 2e-3 0.052-2e-3 -0.052m-0.03 0.519 0.049-0.053-0.049 0.053m-0.317-0.142 0.151-0.109c-0.026-0.129-0.2 4e-3 -0.151 0.109m-0.169-0.356c-0.093 0.044 0.033 0.055 0.105 0.048 0.093-0.045-0.033-0.055-0.105-0.048m0.032 0.777 0.049-0.055-0.049 0.055m0.075 0.567c0.128-0.013 8e-3 -0.176-9e-3 -0.207-0.153 0.04 0.054 0.109 9e-3 0.207m0.092-0.264 0.05-0.053-0.05 0.053m-0.436-0.552c-0.037 0.149 0.078 0.132 0.062 0.257 0.106-0.018 0.041-0.194 0.147-0.213l-0.209-0.044m0.819 0.014-0.041 0.058 0.014 6e-3 -0.51 1.194-0.039 0.043-0.068-0.293 0.121-0.1-0.16-0.069-0.233-1.003 0.14-0.059c0.101 0.017 0.049 0.2 0.213 0.147l0.043-0.209c-0.078-0.077-0.266-0.035-0.415-0.035l3e-3 0.086-0.068-0.294c0.103-0.034 0.199-0.124 0.263-8e-3 0.084-9e-3 -0.058-0.218-0.163-0.2 0.013 0.129-0.054 0.164-0.115 0.141l-0.037-0.159 1.324 0.118z" fill="#0f3768"/>
    </g>
    <g transform="translate(264.12 185.49)">
     <path d="m0 0 0.111 0.097-0.159-0.015z" fill="#0f3768"/>
    </g>
    <g transform="translate(262.88 185.4)">
     <path d="m0 0c-0.118 0.179 0.168-0.132 0 0m1.035-1.235-2e-3 -0.052 2e-3 0.052m-0.019 0.779 0.049-0.055-0.049 0.055m-1.966-1.268c-0.075 0.047-0.106 0.135-0.093 0.263 0.108 0.027 0.356-0.098 0.314 0.091l6e-3 -1e-3 -0.038 0.434 1.597 0.143 0.056-0.633 0.058-0.035 0.027 0.074c0.138-0.182 0.355-0.015 0.512-0.125-0.053-0.11-0.227-0.098-0.368-0.052l0.512-0.307c0.047 0.107 0.253 5e-3 0.2-0.119l0.074-0.045-0.211 0.494-0.052 0.023 0.028 0.034-0.435 1.018-0.164 0.164 4e-3 0.103 0.056-0.024-0.072 0.167 0.118 0.103c-0.056 0.047-0.109 0.096-0.243 0.071l0.018 0.038-2.349-0.209 0.32-0.193-0.448-1.95 0.032-0.091 0.701 0.611c-0.071 0.093-0.197 0.154-0.16-0.047" fill="#0f3768"/>
    </g>
    <g transform="translate(263.68 185.99)">
     <path d="m0 0c-0.029 0.049 0.31 0.026 0.254-0.114-0.167-0.038-0.157 0.088-0.254 0.114m-0.2 0.164-0.05 0.054 0.05-0.054m0.269 0.248 0.049-0.054-0.049 0.054m-0.586-0.391c0.328 0.177 0.263-0.12 0 0m-0.35 0.274c-0.039 0.182 0.172 0.082 0.209 0.044l-0.209-0.044m1.403 0.15 0.049-0.054-0.049 0.054m0.081-0.522-0.049 0.054 0.049-0.054m0.486 0.499c-0.066-0.072-0.181-0.091-0.314-0.092 0.051 0.089 0.166 0.108 0.314 0.092m0.103-5e-3 0.05-0.054-0.05 0.054m0.059 0.153c0.03 0.224 0.297-0.066 0 0m-1.015-0.788c0.013-0.094 0.083-0.137 0.135-0.196l0.159 0.014 0.835 0.729 0.012 0.01 0.196 0.172-0.067-3e-3 0.152 0.077 0.204 0.178-1.046-0.094h-0.01l-1.076-0.096v1e-3l-1.324-0.118-1e-3 -1e-3 -0.83-0.075-0.108-0.017 3e-3 8e-3 -0.922-0.082c0.183-0.103 0.315 0.014 0.553-0.015-0.033-0.106-0.085-0.107-0.157-0.045-0.105-0.049-0.091-0.226-0.267-0.197-0.053 0.08-0.157 0.114-0.144 0.256l-0.256-0.023 1.514-0.909 2.349 0.209c0.043 0.061 0.127 0.076 0.096 0.217" fill="#0f3768"/>
    </g>
    <g transform="translate(261.33 183.05)">
     <path d="m0 0 0.065 0.057-0.031 0.091z" fill="#0f3768"/>
    </g>
    <g transform="translate(262.64 184.42)">
     <path d="m0 0 0.05-0.054-0.05 0.054m-6e-3 -0.155 0.051-0.035 0.267 0.233 0.827-0.495-0.056 0.633-1.597-0.143 0.038-0.434 0.205-0.069 0.29 0.253z" fill="#0f3768"/>
    </g>
   </g>
  </g>
 </g>
</svg>
