<svg width="800" height="465.86" version="1.1" viewBox="0 0 211.67 123.26" xmlns="http://www.w3.org/2000/svg">
 <g transform="translate(-57.043 144.42)">
  <g transform="matrix(8.3809 0 0 -8.3809 68.226 -94.259)">
   <path d="m0 0-1.223-1.221v-2.775l1.28-1.279h1.634v-1.087h-0.781v0.571h-2.133v-1.432l1.28-1.254h2.488l1.277 1.264v2.787l-1.277 1.281h-1.635v1.067h0.781v-0.59h2.131v1.428l-1.277 1.277-2.488 0.02z" fill="#a7a5a6"/>
  </g>
  <g transform="matrix(8.3809 0 0 -8.3809 158.24 -58.787)">
   <path d="m0 0c0.1-0.587 0.174-1.004 0.205-1.197h-0.406c0.033 0.193 0.101 0.61 0.201 1.197m1.162 4.041h-2.48l-1.575-8.513h2.122s0.156 0.908 0.197 1.142h1.146c0.041-0.234 0.198-1.147 0.198-1.147h2.134l-1.58 8.518z" fill="#a7a5a6"/>
  </g>
  <path d="m206.84-66.792h-6.5287v-8.934h6.5287zm6.4868-26.811h-30.909v71.338h17.893v-26.651h6.5287v26.651h17.876v-29.484s-4.5676-4.5677-6.1348-6.135c1.5672-1.5751 6.1348-6.1599 6.1348-6.1599v-18.882l-10.719-10.677z" fill="#a7a5a6"/>
  <g transform="matrix(8.3809 0 0 -8.3809 236.69 -94.259)">
   <path d="m0 0-1.227-1.221v-2.775l1.278-1.279h1.638v-1.087h-0.783v0.571h-2.133v-1.432l1.284-1.254h2.486l1.277 1.264v2.787l-1.277 1.281h-1.637v1.067h0.783v-0.59h2.131v1.428l-1.277 1.277-2.488 0.02z" fill="#a7a5a6"/>
  </g>
  <g transform="matrix(8.3809 0 0 -8.3809 143.19 -101.41)">
   <path d="m0 0h-5.426l-0.136-2.133h1.761v-6.398h2.133v6.398h1.734l0.137 2.133z" fill="#a7a5a6"/>
  </g>
  <g transform="matrix(8.3809 0 0 -8.3809 258.96 -21.163)">
   <path d="m0 0h-22.998l-1.094 13.987 24.813 0.72z" fill="#a7a5a6"/>
  </g>
  <g transform="matrix(8.3809 0 0 -8.3809 252.11 -27.834)">
   <path d="m0 0h-21.361l-1.096 12.436 23.176 0.716z" fill="#0a507a"/>
  </g>
  <g transform="matrix(8.3809 0 0 -8.3809 258.09 -26.45)">
   <path d="m0 0-0.07 2.812-3.088 2.41-3.211-1.907-3.479 1.707-2.711-1.789-4.144 1.639-5.264-1.143-0.83-2.054 0.139-1.619z" fill="#27963c"/>
  </g>
  <g transform="matrix(8.3809 0 0 -8.3809 77.703 -106.62)">
   <path d="m0 0 0.342 0.825c0.152-0.104 0.285-0.182 0.404-0.23 0.117-0.049 0.231-0.077 0.334-0.077l0.172 0.044 0.06 0.112c0 0.085-0.103 0.142-0.31 0.187l-0.158 0.036c-0.219 0.054-0.387 0.148-0.506 0.283-0.117 0.14-0.176 0.311-0.176 0.515 0 0.315 0.115 0.576 0.34 0.772 0.227 0.204 0.523 0.301 0.893 0.301 0.169 0 0.334-0.022 0.5-0.068 0.162-0.046 0.326-0.11 0.494-0.2l-0.321-0.771c-0.103 0.077-0.205 0.13-0.308 0.173-0.102 0.039-0.199 0.061-0.299 0.061l-0.168-0.04-0.061-0.102c0-0.085 0.145-0.157 0.44-0.219l0.107-0.027c0.203-0.046 0.364-0.139 0.479-0.282 0.119-0.141 0.178-0.311 0.178-0.512 0-0.326-0.12-0.594-0.356-0.802-0.234-0.206-0.541-0.311-0.92-0.311-0.193 0-0.387 0.03-0.58 0.084-0.193 0.057-0.385 0.139-0.58 0.248" fill="#fff"/>
  </g>
  <path d="m101.26-126h7.9032v21.556h-7.9032z" fill="#fff"/>
  <g transform="matrix(8.3809 0 0 -8.3809 120.92 -120.45)">
   <path d="m0 0v-0.5h0.145l0.205 0.063 0.07 0.181-0.07 0.188-0.205 0.068zm-0.906-1.91v2.572h1.164c0.338 0 0.596-0.075 0.775-0.224 0.178-0.15 0.268-0.362 0.268-0.643 0-0.184-0.049-0.332-0.139-0.451-0.086-0.117-0.209-0.186-0.359-0.209l0.687-1.045h-1.039l-0.451 0.849v-0.849z" fill="#fff"/>
  </g>
  <path d="m135.06-126h7.8864v21.556h-7.8864z" fill="#fff"/>
  <g transform="matrix(8.3809 0 0 -8.3809 146.89 -114.28)">
   <path d="m0 0v1.398h0.926v-1.404c0-0.165 0.017-0.277 0.057-0.338 0.039-0.06 0.105-0.092 0.201-0.092 0.09 0 0.158 0.033 0.199 0.092 0.039 0.067 0.058 0.176 0.058 0.338v1.404h0.926v-1.398c0-0.184-0.013-0.334-0.037-0.451-0.023-0.119-0.062-0.216-0.115-0.295-0.102-0.16-0.242-0.285-0.422-0.369-0.178-0.086-0.381-0.131-0.609-0.131-0.231 0-0.434 0.045-0.612 0.131-0.179 0.084-0.32 0.209-0.422 0.369-0.052 0.076-0.089 0.174-0.111 0.292-0.023 0.117-0.039 0.268-0.039 0.454" fill="#fff"/>
  </g>
  <g transform="matrix(8.3809 0 0 -8.3809 168.75 -106.29)">
   <path d="m0 0 0.299 0.719c0.131-0.094 0.25-0.162 0.353-0.203 0.104-0.045 0.2-0.064 0.291-0.064l0.151 0.034 0.052 0.099c0 0.071-0.091 0.126-0.271 0.163l-0.137 0.031c-0.193 0.045-0.338 0.129-0.441 0.248-0.104 0.12-0.152 0.269-0.152 0.448 0 0.275 0.095 0.5 0.292 0.673 0.2 0.174 0.459 0.263 0.78 0.263 0.146 0 0.293-0.022 0.433-0.059 0.145-0.039 0.287-0.098 0.432-0.177l-0.277-0.671c-0.09 0.064-0.178 0.115-0.27 0.15l-0.258 0.053-0.15-0.031-0.051-0.095c0-0.071 0.125-0.135 0.383-0.188l0.094-0.024c0.177-0.04 0.316-0.122 0.42-0.242 0.099-0.127 0.15-0.276 0.15-0.449 0-0.285-0.103-0.518-0.309-0.698-0.207-0.179-0.472-0.273-0.8-0.273-0.17 0-0.338 0.025-0.508 0.072-0.166 0.049-0.334 0.122-0.506 0.221" fill="#fff"/>
  </g>
  <g transform="matrix(8.3809 0 0 -8.3809 201.67 -110.14)">
   <path d="m0 0-0.062 0.146-0.032 0.098-0.027-0.094-0.072-0.15-0.334-0.671h-1.211l1.045 1.574-0.926 1.379h1.215l0.217-0.483 9e-3 -0.026c0.041-0.091 0.073-0.162 0.084-0.218l0.035 0.109 0.057 0.135 0.225 0.483h1.205l-0.92-1.379 1.049-1.574h-1.215z" fill="#fff"/>
  </g>
  <g transform="matrix(8.3809 0 0 -8.3809 238.82 -104.51)">
   <path d="m0 0-0.127 1.171-0.025 0.268-0.022 0.268c-0.012-0.082-0.029-0.173-0.049-0.268-0.023-0.095-0.05-0.194-0.082-0.303l-0.339-1.136h-0.631l-0.338 1.136c-0.035 0.109-0.061 0.208-0.084 0.303-0.02 0.095-0.037 0.186-0.051 0.268-4e-3 -0.091-0.014-0.18-0.02-0.268l-0.021-0.268-0.131-1.171h-1.037l0.5 2.953h1.096l0.211-0.73 0.029-0.103c0.09-0.308 0.143-0.562 0.164-0.761h0.018c0.013 0.126 0.039 0.259 0.072 0.401 0.031 0.141 0.072 0.299 0.129 0.475l0.219 0.718h1.093l0.465-2.953z" fill="#fff"/>
  </g>
  <g transform="matrix(8.3809 0 0 -8.3809 98.688 -34.48)">
   <path d="m0 0-1.17-1.152h-2.33l-1.17 1.141v1.162h1.754v-0.571h1.162v1.466h-1.748l-1.168 1.167v2.618l1.17 1.169 2.33-0.022 1.17-1.166v-1.157h-1.754v0.591h-1.162v-1.449h1.746l1.17-1.169z" fill="#fff"/>
  </g>
  <g transform="matrix(8.3809 0 0 -8.3809 142.23 -85.166)">
   <path d="m0 0h-1.742v-6.401h-1.752v6.401h-1.75l0.115 1.749h5.244z" fill="#fff"/>
  </g>
  <g transform="matrix(8.3809 0 0 -8.3809 161.86 -47.165)">
   <path d="m0 0-0.432 2.523-0.427-2.523zm2.242-2.898h-1.742l-0.199 1.144h-1.465l-0.199-1.143h-1.733l1.504 8.133h2.322z" fill="#fff"/>
  </g>
  <path d="m208.46-77.336h-9.7554v12.127h9.7554zm14.667 53.478h-14.667v-26.651h-9.7554v26.651h-14.667v-68.162h29.283l9.8057 9.7553v17.566l-6.7969 6.8137 6.7969 6.7971z" fill="#fff"/>
  <g transform="matrix(8.3809 0 0 -8.3809 267.14 -34.48)">
   <path d="m0 0-1.17-1.152h-2.328l-1.17 1.141v1.162h1.752v-0.571h1.162v1.466h-1.746l-1.168 1.167v2.618l1.17 1.169 2.328-0.022 1.17-1.166v-1.157h-1.754v0.591h-1.162v-1.449h1.746l1.17-1.169z" fill="#fff"/>
  </g>
 </g>
</svg>
