<svg width="800" height="296.44" version="1.1" viewBox="0 0 211.67 78.434" xmlns="http://www.w3.org/2000/svg">
 <defs>
  <linearGradient id="linearGradient83342" x2="1" gradientTransform="matrix(0 9.1609 9.1609 0 273.26 211)" gradientUnits="userSpaceOnUse">
   <stop stop-color="#24b6c4" offset="0"/>
   <stop stop-color="#2c3792" offset=".37731"/>
   <stop stop-color="#2c3792" offset=".49584"/>
   <stop stop-color="#2c3792" offset=".56233"/>
   <stop stop-color="#00adef" offset="1"/>
  </linearGradient>
  <linearGradient id="linearGradient83316" x2="1" gradientTransform="matrix(0 9.1609 9.1609 0 266.82 211)" gradientUnits="userSpaceOnUse">
   <stop stop-color="#24b6c4" offset="0"/>
   <stop stop-color="#2c3792" offset=".37731"/>
   <stop stop-color="#2c3792" offset=".49584"/>
   <stop stop-color="#2c3792" offset=".56233"/>
   <stop stop-color="#00adef" offset="1"/>
  </linearGradient>
  <linearGradient id="linearGradient83290" x2="1" gradientTransform="matrix(0 9.1609 9.1609 0 261.51 211)" gradientUnits="userSpaceOnUse">
   <stop stop-color="#24b6c4" offset="0"/>
   <stop stop-color="#2c3792" offset=".37731"/>
   <stop stop-color="#2c3792" offset=".49584"/>
   <stop stop-color="#2c3792" offset=".56233"/>
   <stop stop-color="#00adef" offset="1"/>
  </linearGradient>
  <linearGradient id="linearGradient83264" x2="1" gradientTransform="matrix(0 9.1609 9.1609 0 254.85 211)" gradientUnits="userSpaceOnUse">
   <stop stop-color="#24b6c4" offset="0"/>
   <stop stop-color="#2c3792" offset=".37731"/>
   <stop stop-color="#2c3792" offset=".49584"/>
   <stop stop-color="#2c3792" offset=".56233"/>
   <stop stop-color="#00adef" offset="1"/>
  </linearGradient>
  <linearGradient id="linearGradient83238" x2="1" gradientTransform="matrix(0 12.559 12.559 0 247.75 210.99)" gradientUnits="userSpaceOnUse">
   <stop stop-color="#24b6c4" offset="0"/>
   <stop stop-color="#2c3792" offset=".37731"/>
   <stop stop-color="#2c3792" offset=".49584"/>
   <stop stop-color="#2c3792" offset=".56233"/>
   <stop stop-color="#00adef" offset="1"/>
  </linearGradient>
 </defs>
 <g transform="translate(197.25 46.037)">
  <g transform="matrix(6.1954 0 0 -6.1954 -1696.5 1339.6)">
   <path d="m248.76 223.55c-1.834 0-3.42-0.626-4.759-1.879-1.338-1.252-2.007-2.76-2.007-4.524 0-1.701 0.57-3.152 1.711-4.353 1.14-1.202 2.552-1.802 4.235-1.802h1.567v3.153h-1.376c-0.803 0-1.476 0.302-2.017 0.904-0.542 0.603-0.813 1.308-0.813 2.117 0 0.884 0.335 1.63 1.004 2.24 0.669 0.609 1.437 0.914 2.303 0.914h1.682l3.231 3.23z" fill="url(#linearGradient83238)"/>
  </g>
  <g transform="matrix(6.1954 0 0 -6.1954 -1696.5 1339.6)">
   <path d="m256.42 220.16v-3.504h-3.273v3.504l-2.506-2.517v-6.644h2.506v3.43h3.273v-3.43h2.646v9.161z" fill="url(#linearGradient83264)"/>
  </g>
  <g transform="matrix(6.1954 0 0 -6.1954 -1696.5 1339.6)">
   <path d="m260.26 217.64v-6.644h2.506v9.161z" fill="url(#linearGradient83290)"/>
  </g>
  <g transform="matrix(6.1954 0 0 -6.1954 -1696.5 1339.6)">
   <path d="m263.93 217.64v-6.644h5.779v2.28h-3.273v6.881z" fill="url(#linearGradient83316)"/>
  </g>
  <g transform="matrix(6.1954 0 0 -6.1954 -1696.5 1339.6)">
   <path d="m270.37 217.64v-6.644h5.78v2.28h-3.273v6.881z" fill="url(#linearGradient83342)"/>
  </g>
  <g transform="matrix(6.1954 0 0 -6.1954 -122.8 -35.911)">
   <path d="m0 0h1.049c0.017-0.126 0.147-0.189 0.39-0.189 0.233 0 0.349 0.054 0.349 0.16 0 0.093-0.102 0.152-0.308 0.177l-0.647 0.08c-0.539 0.067-0.809 0.288-0.809 0.665 0 0.25 0.103 0.433 0.308 0.548s0.532 0.172 0.98 0.172c0.465 0 0.811-0.057 1.038-0.172s0.35-0.294 0.368-0.537h-1.007c-0.022 0.142-0.167 0.213-0.437 0.213-0.207 0-0.311-0.049-0.311-0.148l0.067-0.097c0.044-0.022 0.132-0.043 0.264-0.062l0.789-0.112c0.491-0.069 0.736-0.287 0.736-0.653 0-0.274-0.121-0.475-0.365-0.603s-0.629-0.192-1.154-0.192c-0.417 0-0.737 0.065-0.961 0.194-0.223 0.129-0.336 0.315-0.339 0.556" fill="#80cc28"/>
  </g>
  <path d="m-103.24-42.432h4.9006v10.743h-4.9006zm0-3.6057h4.9006v2.726h-4.9006z" fill="#80cc28"/>
  <g transform="matrix(6.1954 0 0 -6.1954 -95.616 -31.687)">
   <path d="m0 0v1.734h0.768l9e-3 -0.133c0.118 0.118 0.278 0.177 0.481 0.177 0.199 0 0.346-0.054 0.439-0.163 0.093-0.108 0.14-0.279 0.14-0.513v-0.151h-0.685v0.012c0 0.173-0.061 0.26-0.183 0.26l-0.14-0.074c-0.028-0.049-0.041-0.134-0.041-0.254v-0.895z" fill="#80cc28"/>
  </g>
  <path d="m-82.356-42.432h4.9006v10.743h-4.9006zm0-3.6057h4.9006v2.726h-4.9006z" fill="#80cc28"/>
  <g transform="matrix(6.1954 0 0 -6.1954 -66.028 -32.801)">
   <path d="m0 0c-0.203-0.143-0.431-0.215-0.685-0.215s-0.44 0.065-0.557 0.195c-0.117 0.129-0.176 0.334-0.176 0.614v0.96h0.774v-0.815c0-0.128 0.02-0.217 0.061-0.266s0.113-0.074 0.217-0.074c0.114 0 0.203 0.027 0.268 0.082 0.065 0.054 0.098 0.129 0.098 0.225v0.848h0.774v-1.734h-0.774z" fill="#80cc28"/>
  </g>
  <g transform="matrix(6.1954 0 0 -6.1954 -59.491 -35.124)">
   <path d="m0 0h0.945c0.011-0.114 0.113-0.171 0.307-0.171 0.177 0 0.266 0.039 0.266 0.118 0 0.068-0.118 0.113-0.352 0.135l-0.106 0.01h-6e-3c-0.378 0.037-0.634 0.086-0.768 0.145-0.161 0.072-0.242 0.213-0.242 0.422 0 0.201 0.092 0.347 0.276 0.44s0.476 0.139 0.876 0.139c0.379 0 0.661-0.047 0.846-0.142s0.283-0.241 0.295-0.44h-0.89c-9e-3 0.111-0.115 0.166-0.316 0.166-0.178 0-0.266-0.04-0.266-0.121 0-0.065 0.1-0.106 0.302-0.124l0.097-9e-3 0.075-6e-3c0.409-0.036 0.645-0.066 0.711-0.089 0.133-0.046 0.227-0.104 0.281-0.174 0.055-0.069 0.082-0.164 0.082-0.284 0-0.222-0.098-0.382-0.294-0.481-0.195-0.098-0.514-0.148-0.958-0.148-0.394 0-0.684 0.05-0.869 0.148-0.186 0.098-0.283 0.254-0.292 0.466" fill="#80cc28"/>
  </g>
  <g transform="matrix(6.1954 0 0 -6.1954 -44.383 -31.687)">
   <path d="m0 0 0.996 1.179-0.854 1.057h1.046l0.307-0.484 0.331 0.484h1.034l-0.866-1.057 0.978-1.179h-1.084l-0.399 0.6-0.408-0.6z" fill="#80cc28"/>
  </g>
  <g transform="matrix(6.1954 0 0 -6.1954 -25.071 -31.687)">
   <path d="m0 0v2.236h1.285l0.378-1.365 0.408 1.365h1.267v-2.236h-0.803v1.746l-0.532-1.746h-0.676l-0.526 1.746v-1.746z" fill="#80cc28"/>
  </g>
 </g>
</svg>
