<svg width="800" height="393.46" version="1.1" viewBox="0 0 211.67 104.1" xmlns="http://www.w3.org/2000/svg">
 <g transform="translate(197.25 71.705)">
  <g transform="matrix(6.4202 0 0 -6.4202 -195.63 21.223)">
   <path d="m0 0c0.018-0.109-0.018-0.228 0-0.35l0.103-0.253 0.04-0.221 14.703 1.933-0.107 0.164-0.149 0.286-0.225 0.191c-0.113 0.102-0.212 0.191-0.289 0.311-0.129 0.193-0.249 0.394-0.39 0.548-0.201 0.026-0.311 0.323-0.502 0.371-0.25 0.057-0.544 0.088-0.778 0.209l-0.151 0.114-0.176 0.027c-0.153 0.039-0.302 0.108-0.454 0.15-0.148 0.042-0.314 0.079-0.412 0.202-0.213 0.045-0.349 0.263-0.541 0.314h-0.164c-0.224 0.027-0.492 0.065-0.726 0.082-0.086 0.293-0.284 0.469-0.407 0.715-0.072 0.033-0.163 0.1-0.209 0.193 0.119 0.168 0.033 0.213 0.104 0.399 0.093 0.234 0.408 0.504 0.612 0.64 0.223 0.153 0.462 0.241 0.639 0.373l0.273 0.184c0.067 0.084 0.115 0.205 0.122 0.318 0.02 0.209-0.069 0.325-0.132 0.438l-0.067 0.16c-0.061 0.076-0.175 0.115-0.211 0.209-0.056 0.135 0.067 0.227 0.049 0.387-0.013 0.136-0.127 0.164-0.234 0.254l-7e-3 0.125c-0.095 0.129-0.13 0.304-0.222 0.443l-0.283 0.285 0.136 0.156c0.166 0.288-5e-3 0.444-0.138 0.575-0.198 0.138-0.399 0.213-0.608 0.34-0.297 0.132-0.072 0.275-0.153 0.435l-0.042 0.193-0.121 0.205-0.035 0.049-0.018 0.028-0.031 0.045-0.06 0.07-0.042 0.045-0.107 0.119-0.021 0.018-0.022 0.023-0.039 0.041-0.123 0.121c0.826 0.9 0.742 1.399 0.751 1.467l-9e-3 0.113c-0.084 0.026-0.195 0.028-0.324 0.012l-0.033-4e-3c-0.096-0.014-0.206-0.033-0.315-0.057l-0.242-0.06c-0.182-0.055-0.356-0.113-0.51-0.164-0.103-0.037-0.187-0.071-0.26-0.102h-4e-3l-0.134-0.055-0.045 0.01c-0.577 0.147-1.354 0.283-1.449 0.289l-0.077 0.035-0.105 0.051c-0.192 0.084-0.443 0.139-0.604 0.231-0.289 0.156-0.556 0.381-0.879 0.445l-0.112-4e-3c-0.093-0.027-0.138-0.141-0.22-0.224l-0.15-0.092-0.18-0.219c-0.319-0.361-0.646-0.713-0.94-1.086-0.505-0.635-0.903-1.334-1.298-2.105l-0.108-0.266c-0.065-0.19-0.167-0.428-0.173-0.586-8e-3 -0.273 0.172-0.428 0.329-0.598 0.325-0.332 0.658-0.709 0.997-0.97l0.01-0.129c0.07-0.094 0.193-0.135 0.271-0.246l0.103-0.202 0.141-0.068-0.066-0.209-0.115-0.158c-0.145-0.233-0.266-0.467-0.403-0.697-0.062-0.106-0.168-0.233-0.134-0.379h0.012c0.41-0.102 0.736 0.045 0.997 0.193l0.221 0.15 0.453 0.286 4e-3 4e-3 0.013-8e-3 0.059-0.051 5e-3 -4e-3 0.06-0.084 0.058-0.092c0.067-0.103 0.104-0.213 0.155-0.283l0.272-0.283 0.114-0.135 0.138-0.07c0.155-0.051 0.257-0.112 0.474-0.08-0.09-0.157-0.25-0.346-0.211-0.584-0.127-0.137-0.253-0.303-0.414-0.463-0.148-0.151-0.248-0.361-0.427-0.451l-0.188-0.067-0.176-0.07h-0.149c-0.112-0.025-0.25-0.176-0.39-0.242l-0.262-0.084c-0.133-0.063-0.256-0.172-0.391-0.233l-0.191-0.045-0.211-0.127-0.141-0.041-0.201-0.132c-0.219-0.123-0.539-0.135-0.715-0.256l-0.099-0.098-0.102-0.035-0.125-0.131-0.24-0.072-0.16-0.192-0.125-0.062-0.178-0.215c-0.074-0.107-0.068-0.215-0.111-0.348l-0.089-0.152c-0.101-0.232-0.067-0.666 0.089-0.789-0.03-0.113 0.056-0.182 0.074-0.291" fill="#231f20"/>
  </g>
  <g transform="matrix(6.4202 0 0 -6.4202 -171.59 -59.004)">
   <path d="m0 0 0.088-0.012-0.041 0.084c0.073 0.123 0.354 0.092 0.356-0.078l-5e-3 -2e-3 0.054-0.101 0.129-0.03-0.016-0.146-0.141-0.037c0.034-0.139 0.171 4e-3 0.229 0.011l0.065-0.093 0.453 0.511 0.484 0.28-8e-3 0.019 0.165 0.139c-0.235 0.113-0.479 0.137-0.696 0.246-0.275 0.144-0.508 0.348-0.863 0.418-0.068-0.131-0.258-0.27-0.383-0.4l-0.148-0.225c-0.011-0.108 0.162-0.15 0.07-0.285-0.119 0.019-0.199-0.041-0.209-0.192 0.147-0.021 0.205 0.067 0.279 0.133 0.082-0.055 0.178-0.117 0.138-0.24" fill="#5aa1c4"/>
  </g>
  <g transform="matrix(6.4202 0 0 -6.4202 -146.29 -40.333)">
   <path d="m0 0h-0.074l-0.111 0.193-0.145-0.152 0.096-0.111-0.026-0.03z" fill="#fff"/>
  </g>
  <g transform="matrix(6.4202 0 0 -6.4202 -174.1 -32.822)">
   <path d="m0 0 2e-3 0.076 0.05-0.053-0.052-0.023m2.424 4.604c-0.061-0.051-0.712-0.504-1.024-0.844-0.476-0.61-0.878-1.317-1.325-1.969-3e-3 -0.107-0.073-0.141-0.11-0.201-0.194-0.319-0.385-0.678-0.561-1.029-0.16-0.327-0.305-0.631-0.39-0.981 0.094-0.023 0.094 0.123 0.08 0.195 0.067 0.049 0.093 0.151 0.117 0.252 0.187 0.092 0.187 0.414 0.336 0.559-0.055-0.184 0.01-0.336-0.025-0.467-0.03-0.107-0.184-0.15-0.13-0.289 0.129 8e-3 0.198 0.096 0.227 0.232 0.19 0.03 0.18 0.309 0.315 0.407 0.074 0.23 0.201 0.396 0.349 0.529 0.065 0.199 0.196 0.313 0.244 0.535l0.1 0.09c0.194 0.385 0.457 0.693 0.663 1.065l0.159 0.089c0.104-0.117-0.035-0.24-0.118-0.295l-8e-3 -0.086c-0.2-0.267-0.35-0.597-0.555-0.863-0.015-0.113-0.103-0.131-0.103-0.258-0.179-0.156-0.249-0.437-0.417-0.609-0.043-0.193-0.145-0.307-0.234-0.447-0.102-0.303-0.274-0.518-0.364-0.832 0.099 0.068 0.149 0.201 0.24 0.277 0.017 0.117 0.03 0.238 0.118 0.266l0.033-0.162c0.106 0.048 0.081 0.201 0.135 0.298l0.099 0.127-0.039 0.118 0.201 0.103 0.024 0.117c0.148 0.151 0.229 0.395 0.362 0.567 5e-3 0.097 0.056 0.146 0.12 0.175 0.064 0.094 0.077 0.221 0.133 0.317l0.184 0.193 0.051 0.119c0.075 0.104 0.172 0.209 0.244 0.305 0.122 0.166 0.248 0.264 0.373 0.406h0.126c-0.023-0.166-0.192-0.224-0.261-0.343-0.064-0.104-0.064-0.233-0.15-0.334-0.09-0.063-0.141-0.165-0.182-0.288-0.091-0.039-0.107-0.166-0.198-0.207-0.054-0.166-0.132-0.295-0.234-0.406-0.129-0.424-0.441-0.625-0.585-1.037 0.085 0.064 0.175 0.162 0.257 0.262 0.141 0.191 0.265 0.422 0.387 0.58l0.071 0.082c0.019 0.076-0.064 0.16 0.032 0.197 0.055 0 0.159-0.049 0.169 0.061l-0.078 0.072c0.032 0.139 0.154 0.166 0.249 0.223l0.064 0.121c0.223 0.095 0.29 0.369 0.481 0.494l0.072 0.123c0.417 0.494 1.684 2.123 1.684 2.123s-1.135 0.307-1.408 0.268" fill="#fff"/>
  </g>
  <g transform="matrix(6.4202 0 0 -6.4202 -147.21 -46.452)">
   <path d="m0 0c0.145 0 0.344 0.047 0.461-0.051 0.022-0.156 0.182-0.273 0.337-0.322l0.167-0.049c0.264-0.017 0.377-0.197 0.611-0.256 0.045-0.094 0.208-0.125 0.208-0.258 0.159-0.05 0.266-0.154 0.427-0.203 0.196 0.422-0.173 0.51-0.475 0.637-0.168 0.066-0.449 0.168-0.5 0.316-0.088 0.104 0.069 0.336 0.069 0.336-0.103 0.414-0.43 0.705-0.637 0.858l-1.006-0.473c-0.286-0.262-0.551-0.58-0.59-0.859 0.274-0.133 0.689 0.318 0.928 0.324" fill="#fde3c7"/>
  </g>
  <g transform="matrix(6.4202 0 0 -6.4202 -136.09 -8.1692)">
   <path d="m0 0-0.042 0.156-0.073 0.049c0.02-0.133-0.015-0.211-0.013-0.355l0.128 0.15" fill="#fff"/>
  </g>
  <g transform="matrix(6.4202 0 0 -6.4202 -132.95 -30.414)">
   <path d="m0 0c-0.086-0.082-0.233-0.166-0.254-0.285 0.289 0.058 0.652 0.027 0.865 0.168l-0.015 0.193c-0.138 0.074-0.266 0.014-0.389-0.025l-0.207-0.051" fill="#fde3c7"/>
  </g>
  <g transform="matrix(6.4202 0 0 -6.4202 -149.84 -41.374)">
   <path d="m0 0h4e-3c0.041-2e-3 0.129 0.018 0.229 0.037 0.099 0.057 0.171 0.15 0.279 0.166l-0.028 0.123c-0.086 0.053-0.212 0.078-0.369 0.078 0.069-0.201-0.07-0.254-0.123-0.404z" fill="#fde3c7"/>
  </g>
  <g transform="matrix(6.4202 0 0 -6.4202 -138.58 -25.536)">
   <path d="m0 0-0.07 0.131c-0.24 0.156-0.325 0.584-0.177 0.918l0.035-2e-3 0.011-0.24c0.012-0.092 0.095-0.19 0.109-0.285l-0.01-0.112c0.032-0.138 0.213-0.271 0.102-0.41m0.217 1.195c-0.201 0.145-0.44 0.233-0.446 0.553-0.027 0.053-0.08 0.086-0.061 0.182-0.184 0.06-0.124 0.328-0.315 0.375l-0.092-0.069c-0.1 0.045-0.06 0.211-0.201 0.227l-0.083-0.137c-0.093 0.012-0.164-0.076-0.244-0.101l-0.26-0.106c-0.036-0.017-0.077-8e-3 -0.058-0.107 0.095-2e-3 0.184 0.019 0.21-0.063-0.141-0.158-0.464-0.045-0.607-0.213-0.011-0.103 0.012-0.242-0.077-0.257l-0.077 0.181-0.179-0.039c-0.049-0.244-0.368-0.613-0.15-0.648l0.142-0.313c0.013-0.105 0.232-0.381 0.711-0.246 0.058-0.041 0.263-0.023 0.396-0.172 0.09-0.084 0.246-0.568 0.269-0.676 0.309-0.726 1.706-0.25 1.874-0.273 0.16 0.01 0.265 0.066 0.39 0.109l0.081 0.106c0.039 0.131 0.13 0.021 0.14-0.063h0.119l0.146 0.098c0.042 0.398-0.139 0.596-0.38 0.75-0.055-0.139-0.206-0.117-0.315-0.154l-0.167-0.1c-0.254-0.041-0.342 0.119-0.482 0.141l-0.19-0.037c-0.12 0.015-0.152 0.136-0.266 0.142-0.024 0.143-0.142 0.442 6e-3 0.526 0.135-0.288 0.274-0.153 0.379-0.053l0.125 0.097c0.209 0.055 0.281 0.262 0.566 0.227l0.143 0.053c-0.118 0.234-0.205 0.498-0.449 0.623-0.026-0.242-0.174-0.346-0.282-0.504-0.094-0.068-0.196-0.123-0.293-0.072z" fill="#fde3c7"/>
  </g>
  <g transform="matrix(6.4202 0 0 -6.4202 -140.06 -1.1724)">
   <path d="m0 0-0.174-0.025c-0.059-0.018-0.027-0.129-0.125-0.112-0.054 0.106 0.093 0.201 0.113 0.313 0.116 0.08 0.232-0.055 0.186-0.176m0.379 0.176-0.127-0.051c-1e-3 -0.076-0.092-0.191-0.15-0.1l0.113 0.116c-0.034 0.107-0.143 0.091-0.227 0.134-0.129 0.08-0.233 0.215-0.363 0.291-0.183 0.106-0.41 0.217-0.627 0.315-0.346 0.154-0.74 0.318-1.106 0.414-0.365 0.097-0.747 0.135-1.053 0.26-0.087-0.08-0.189-0.143-0.214-0.285 0.223-0.172 0.391-0.405 0.626-0.567 0.079-0.154 0.198-0.271 0.352-0.348 0.108-0.162 0.217-0.322 0.44-0.367 0.202-0.306 0.506-0.511 0.805-0.728l0.035-0.1c0.236-0.16 0.353-0.441 0.566-0.627l0.012-0.09 0.127-0.06c0.207-0.237 0.375-0.512 0.539-0.793 0.168-0.164 0.301-0.365 0.44-0.563 0.051 0.293-0.087 0.639-0.104 0.85v0.193l-0.136 0.17c-0.059 0.108-0.07 0.213-0.124 0.268-0.114 0.119-0.195 0.033-0.303 0.025l-0.214 0.063-0.01 0.162c-0.133 0.191-0.196 0.652-0.077 0.906 0.153 0.053 0.318 0.092 0.439 0.176 0.167-0.063 0.666-0.123 0.616 0.185l-0.191 0.039c0.062 0.168 0.238 0.215 0.241 0.442 0.083 0.029 0.155 0.039 0.263 0.023-0.047 0.174-0.12 0.323-0.224 0.438-0.089-0.297-0.253-0.516-0.364-0.791" fill="#fff"/>
  </g>
  <g transform="matrix(6.4202 0 0 -6.4202 -193.66 19.568)">
   <path d="m0 0c0.016-0.285 0.086-0.785 0.142-0.861l0.029-0.233 4.077 0.532c-0.134 0.165-0.308 0.312-0.314 0.345l-0.176 0.125c-0.113 0.104-0.182 0.235-0.313 0.309l-0.088 0.029-0.087 0.1c-0.135 0.093-0.307 0.142-0.453 0.226-0.19 0.11-0.403 0.207-0.54 0.328-0.179 0.028-0.251 0.168-0.377 0.252v0.096c-0.172 0.127-0.425 0.17-0.566 0.33-3e-3 -0.043-0.357 0.156-0.49 0.197-0.131-0.084-0.34-0.088-0.428-0.226 0.031-6e-3 -0.232-0.209-0.406-0.506-0.149-0.252-0.213-0.588-0.167-0.733 0.012-0.14 0.095-0.212 0.157-0.31" fill="#5aa1c4"/>
  </g>
  <g transform="matrix(6.4202 0 0 -6.4202 -101.96 14.314)">
   <path d="m0 0c-0.104 0.225-0.388 0.564-0.546 0.674 0.031-0.254 0.031-0.529 0.108-0.736z" fill="#5aa1c4"/>
  </g>
  <g transform="matrix(6.4202 0 0 -6.4202 -121.39 2.0627)">
   <path d="m0 0 0.178-0.059c0.058-0.265-0.219-0.39-0.191-0.701 0.13-0.049 0.267-0.078 0.402-0.14 0.071-0.036 0.3-0.114 0.327-0.213l-0.01-0.127c-0.02-0.256 0.028-0.436 0.072-0.643 0.031-0.123 0.038-0.244 0.054-0.351l1.453 0.189c-0.032 0.092-0.072 0.176-0.086 0.277-0.019 0.133 0.018 0.286 0 0.428-0.019 0.111-0.086 0.217-0.075 0.326-0.112 0.149-0.171 0.34-0.315 0.45l-0.151 0.052c-0.07 0.096-0.154 0.225-0.276 0.276-0.139 0.056-0.321 0.058-0.478 0.117-0.18 0.058-0.34 0.135-0.477 0.223-0.372 0.125-0.811 0.177-1.08 0.4-0.245 0.107-0.392 0.308-0.74 0.312 0.135-0.173 0.196-0.427 0.375-0.562 0.323-0.108 0.651-0.197 1.018-0.254" fill="#5aa1c4"/>
  </g>
  <g transform="matrix(6.4202 0 0 -6.4202 -130.29 11.48)">
   <path d="m0 0c0.119-0.043 0.178-0.143 0.239-0.236l-0.012-0.09c0.19-0.188 0.296-0.42 0.388-0.668l1.35 0.182c-0.099 0.326-0.152 0.691-0.146 1.087-0.104 0.047-0.217 0.127-0.348 0.178-0.121 0.043-0.295 0.043-0.356 0.135-0.144 0.234 0.139 0.471 0.178 0.682-0.285 0-0.438 0.082-0.678 0.148-0.323 0.096-0.533 0.152-0.664 0.365-0.108-0.269-0.295-0.459-0.414-0.717l-0.127-0.06c-0.058-0.184-0.023-0.447 0.063-0.567 0.249-0.076 0.404-0.242 0.527-0.439" fill="#5aa1c4"/>
  </g>
  <g transform="matrix(6.4202 0 0 -6.4202 -184.94 7.091)">
   <path d="m0 0c0.123-0.039 0.236-0.131 0.377-0.176l0.228-0.041 0.098-0.103c0.096-0.059 0.274-0.094 0.238-0.258 0.159-0.092 0.297-0.193 0.455-0.277 0.158-0.165 0.28-0.362 0.501-0.467 0.41-0.221 0.748-0.508 0.852-0.528l0.551-0.597 1.785 0.232-0.188 0.166c-0.2 0.072-0.286 0.256-0.477 0.336-0.201 0.231-0.48 0.371-0.691 0.592 0.083 0.166-0.038 0.33-0.013 0.553-0.2 0.088-0.446 0.131-0.651 0.213-0.139 0.285-0.245 0.613-0.34 0.941-0.094 0.121-0.778 0.367-0.84 0.418-0.461-0.205-0.875-0.453-1.367-0.617-0.174-0.2-0.524-0.225-0.77-0.352 0.088-0.023 0.16-0.099 0.252-0.035" fill="#5aa1c4"/>
  </g>
  <g transform="matrix(6.4202 0 0 -6.4202 -112.65 -40.546)">
   <path d="m0 0c-0.243 0-0.404 0.041-0.5 0.139-0.109 0.111-0.109 0.275-0.109 0.396v0.619h0.466v-0.67c0-0.025 0-0.097 0.143-0.097 0.091 0 0.139 0.031 0.139 0.093v0.821l-0.748 0.324v0.969c0 0.138 0 0.289 0.109 0.394 0.098 0.1 0.264 0.153 0.5 0.153 0.23 0 0.398-0.053 0.496-0.147 0.102-0.107 0.111-0.262 0.111-0.4v-0.461h-0.468v0.519c0 0.063-0.048 0.098-0.139 0.098-0.096 0-0.143-0.035-0.143-0.098v-0.693l0.75-0.322v-1.102c0-0.137-9e-3 -0.287-0.107-0.392-0.102-0.102-0.262-0.143-0.5-0.143" fill="#231f20"/>
  </g>
  <g transform="matrix(6.4202 0 0 -6.4202 -34.615 -40.546)">
   <path d="m0 0c-0.241 0-0.404 0.041-0.503 0.139-0.106 0.111-0.106 0.275-0.106 0.396v0.619h0.467v-0.67c0-0.025 0-0.097 0.142-0.097 0.093 0 0.14 0.031 0.14 0.093v0.821l-0.749 0.324v0.969c0 0.138 0 0.289 0.106 0.394 0.099 0.1 0.264 0.153 0.503 0.153 0.23 0 0.398-0.053 0.496-0.147 0.102-0.107 0.111-0.262 0.111-0.4v-0.461h-0.467v0.519c0 0.063-0.047 0.098-0.14 0.098-0.098 0-0.142-0.035-0.142-0.098v-0.693l0.749-0.322v-1.102c0-0.137-9e-3 -0.287-0.107-0.392-0.102-0.102-0.262-0.143-0.5-0.143" fill="#231f20"/>
  </g>
  <path d="m-96.023-40.694h-2.9919v-19.787h2.9919z" fill="#231f20"/>
  <g transform="matrix(6.4202 0 0 -6.4202 -83.317 -52.358)">
   <path d="m0 0h0.142c0.091 0 0.139 0.029 0.139 0.094v0.685c0 0.067-0.048 0.096-0.139 0.096h-0.142zm0.767-1.807h-0.461l-0.228 1.414h-0.078v-1.414h-0.467v3.073h0.609c0.231 0 0.397-0.045 0.499-0.141 0.101-0.111 0.111-0.264 0.111-0.4l-5e-3 -0.08c0-0.071 0-0.213 5e-3 -0.491 0-0.14-0.01-0.295-0.11-0.398l-0.124-0.082z" fill="#231f20"/>
  </g>
  <path d="m-66.061-40.694h-2.9854v-19.787h2.9854z" fill="#231f20"/>
  <g transform="matrix(6.4202 0 0 -6.4202 -52.445 -40.546)">
   <path d="m0 0c-0.242 0-0.404 0.041-0.498 0.139-0.107 0.111-0.107 0.279-0.107 0.396v2.57h0.462v-2.621c0-0.025 0-0.097 0.143-0.097 0.138 0 0.138 0.072 0.138 0.097v2.621h0.465v-2.57c0-0.117 0-0.285-0.101-0.392-0.098-0.102-0.266-0.143-0.502-0.143" fill="#231f20"/>
  </g>
  <g transform="matrix(6.4202 0 0 -6.4202 -16.056 -40.696)">
   <path d="m0 0h-0.817v3.082h0.466v-2.691h0.351z" fill="#231f20"/>
  </g>
  <g transform="matrix(6.4202 0 0 -6.4202 -1.5609 -40.759)">
   <path d="m0 0h-0.463v1.455l-0.515 1.617h0.484l0.262-0.918 0.259 0.918h0.487l-0.517-1.638z" fill="#231f20"/>
  </g>
  <g transform="matrix(6.4202 0 0 -6.4202 -195.69 23.518)">
   <path d="m0 0 32.726 4.812-0.485-2.199-32.484-3.996z" fill="#231f20"/>
  </g>
  <g transform="matrix(6.4202 0 0 -6.4202 -194.6 29.386)">
   <path d="m0 0 0.107 0.547 31.965 4.623-0.285-1.201z" fill="#5aa1c4"/>
  </g>
  <g transform="matrix(6.4202 0 0 -6.4202 -79.662 -19.266)">
   <path d="m0 0-0.249-0.037-1.039-0.143-0.101-0.015-0.03-0.096-0.143-0.473-0.076-0.24 0.249 0.035 0.2 0.03-0.559-1.84c-0.069-0.229-0.044-0.448 0.075-0.61 0.121-0.16 0.31-0.246 0.541-0.246l0.137 0.01c0.22 0.02 0.408 0.217 0.452 0.389 0.026 0.099 0.019 0.191-0.026 0.259-0.041 0.073-0.115 0.122-0.211 0.139l-0.061 0.025h-1e-3l0.016 0.116 0.751 2.455zm0.017 1.531-0.071-4e-3c-0.252-0.035-0.502-0.248-0.572-0.492-0.039-0.129-0.024-0.254 0.045-0.345 0.066-0.094 0.174-0.145 0.305-0.145l0.07 0.01c0.25 0.031 0.502 0.248 0.572 0.488 0.041 0.129 0.024 0.256-0.045 0.348-0.068 0.087-0.174 0.14-0.304 0.14" fill="#231f20"/>
  </g>
  <g transform="matrix(6.4202 0 0 -6.4202 -64.439 -21.925)">
   <path d="m0 0-0.192-0.018c-0.255-0.035-0.529-0.138-0.78-0.304l-0.056 0.068-0.108 0.119-0.118-0.099-0.536-0.461-0.125-0.1 0.107-0.125c0.051-0.058 0.063-0.164 0.027-0.281l-0.736-2.401-0.072-0.236 0.251 0.033 0.589 0.08 0.1 0.014 0.027 0.096 0.701 2.287c0.076 0.244 0.365 0.488 0.629 0.525l0.062 8e-3 0.168-0.072c0.036-0.049 0.039-0.123 0.012-0.217l-0.632-2.076c-0.038-0.121-0.021-0.242 0.046-0.328 0.059-0.084 0.162-0.135 0.279-0.135l0.047 4e-3c0.237 0.031 0.459 0.221 0.521 0.447l0.606 1.983c0.102 0.334 0.067 0.632-0.094 0.861-0.159 0.207-0.415 0.328-0.723 0.328" fill="#231f20"/>
  </g>
  <g transform="matrix(6.4202 0 0 -6.4202 -52.508 -5.9876)">
   <path d="m0 0-0.123 0.039v0.186c0.067 0.228 0.324 0.457 0.537 0.488l0.275 0.037-0.089-0.293c-0.069-0.219-0.299-0.416-0.541-0.453l-0.059-4e-3m1.1 2.892-0.172-0.011c-0.352-0.047-0.731-0.24-1.042-0.526l-0.122-0.113 0.118-0.115 0.251-0.254 0.117-0.119 0.111 0.125c0.125 0.133 0.365 0.244 0.515 0.267l0.029 4e-3 0.129-0.056 0.015-0.172-0.09-0.313-0.398-0.05c-0.663-0.092-1.331-0.664-1.519-1.299-0.093-0.307-0.064-0.592 0.091-0.799 0.145-0.201 0.382-0.309 0.672-0.309l0.173 0.014c0.238 0.033 0.479 0.129 0.709 0.277l0.01-0.017c0.041-0.055 0.131-0.119 0.262-0.119l0.057 7e-3c0.206 0.028 0.414 0.198 0.482 0.397 0.041 0.129 8e-3 0.211-0.021 0.281l-8e-3 0.024-0.026 0.064 8e-3 0.193 0.451 1.504c0.094 0.307 0.058 0.588-0.095 0.799-0.151 0.203-0.401 0.316-0.707 0.316" fill="#231f20"/>
  </g>
  <g transform="matrix(6.4202 0 0 -6.4202 -23.555 -36.358)">
   <path d="m0 0-0.248-0.031-0.591-0.08-0.102-0.016-0.027-0.096-0.436-1.414-0.354-0.049-0.1-0.013-0.029-0.098-0.146-0.474-0.071-0.239 0.246 0.035 0.21 0.03-0.563-1.844c-0.072-0.234-0.044-0.449 0.076-0.613 0.117-0.159 0.311-0.246 0.539-0.246l0.136 0.011c0.224 0.032 0.407 0.229 0.452 0.391 0.028 0.1 0.019 0.187-0.022 0.262-0.042 0.072-0.111 0.111-0.203 0.138l-0.066 0.028s-0.015 0.023 0.01 0.117l0.578 1.883 0.385 0.047c0.197 0.031 0.39 0.199 0.449 0.39 0.035 0.11 0.025 0.207-0.035 0.289-0.056 0.076-0.149 0.121-0.256 0.121h-0.057l-0.24-0.037 0.394 1.272z" fill="#231f20"/>
  </g>
  <g transform="matrix(6.4202 0 0 -6.4202 -10.081 -29.461)">
   <path d="m0 0-0.195-0.021c-0.23-0.032-0.467-0.118-0.689-0.26l-0.04 0.045-0.103 0.123-0.123-0.106-0.537-0.457-0.124-0.105 0.109-0.119c0.051-0.061 0.058-0.164 0.021-0.28l-0.676-2.22c-0.037-0.123-0.018-0.235 0.043-0.323 0.062-0.08 0.158-0.125 0.267-0.125l0.061 6e-3c0.216 0.026 0.434 0.209 0.503 0.42l0.634 2.096c0.063 0.201 0.31 0.422 0.515 0.445l0.059 4e-3 0.145-0.033 0.098-0.047 0.011-4e-3 0.016-4e-3 0.059-2e-3c0.191 0 0.406 0.133 0.511 0.313 0.088 0.154 0.09 0.304 0.018 0.416v0.017l-0.065 0.055c-0.134 0.107-0.317 0.166-0.518 0.166" fill="#231f20"/>
  </g>
  <g transform="matrix(6.4202 0 0 -6.4202 -1.6361 -13.047)">
   <path d="m0 0-0.121 0.045-2e-3 0.185c0.066 0.227 0.325 0.457 0.54 0.487l0.274 0.037-0.089-0.291c-0.067-0.219-0.299-0.418-0.541-0.455l-0.061-8e-3m1.103 2.895-0.175-0.012c-0.348-0.049-0.729-0.238-1.038-0.524l-0.125-0.111 0.118-0.119 0.25-0.254 0.119-0.117 0.111 0.123c0.125 0.135 0.364 0.248 0.516 0.273l0.03 6e-3 0.126-0.062 0.018-0.174-0.094-0.313-0.395-0.049c-0.664-0.093-1.332-0.666-1.52-1.298-0.095-0.305-0.066-0.596 0.091-0.805 0.145-0.195 0.383-0.303 0.67-0.303l0.175 0.014c0.237 0.033 0.478 0.129 0.711 0.275l8e-3 -0.011c0.041-0.065 0.133-0.121 0.26-0.121l0.059 1e-3c0.206 0.028 0.415 0.2 0.482 0.405 0.039 0.127 0.01 0.207-0.018 0.281l-0.01 0.016-0.023 0.064 4e-3 0.195 0.451 1.504c0.093 0.305 0.058 0.59-0.093 0.801-0.153 0.201-0.405 0.315-0.708 0.315" fill="#231f20"/>
  </g>
  <g transform="matrix(6.4202 0 0 -6.4202 -95.731 -43.154)">
   <path d="m0 0c-0.053-4e-3 -1.262-0.039-2.734-1.855-1.111-1.358-0.934-2.407-0.807-2.797 0.141-0.426 0.432-0.743 0.76-0.828 0.02-6e-3 0.525-0.149 1.056-0.219 0.559-0.08 0.579-0.764 0.556-1.053-0.044-0.68-0.748-2.582-1.147-2.801-0.022 0.074-0.022 0.229-4e-3 0.362l4e-3 0.035c2e-3 0.043 0.043 0.291 0.444 1.4 0.201 0.553 0.269 0.893 0.224 1.129-0.055 0.32-0.272 0.527-0.605 0.572l-0.124 0.01c-0.132 0-0.307-0.027-0.404-0.162-0.044-0.065-0.085-0.172-0.033-0.332l-0.016-0.104c-0.049-0.148-0.561-1.66-0.648-2.009-0.085-0.362-0.122-1.268 0.331-1.782 0.127-0.142 0.309-0.214 0.537-0.214 0.602 0 1.505 0.562 2.059 1.796 0.406 0.905 0.613 1.602 0.661 2.194 0.055 0.75-0.182 1.332-0.667 1.648-0.291 0.188-0.634 0.274-0.935 0.346-0.369 0.096-0.686 0.172-0.817 0.396-0.099 0.176-0.09 0.452 0.028 0.844 0.076 0.166 1.086 2.205 2.135 2.461 0.014-0.07 0-0.228-0.03-0.353 0 0-0.287-0.854-0.586-1.791-0.146-0.459-0.142-0.782 0.016-0.993 0.111-0.152 0.291-0.236 0.525-0.236 0.135 0 0.26 0.025 0.341 0.051 0.284 0.076 0.251 0.312 0.235 0.398l-6e-3 0.078c6e-3 0.036 0.077 0.243 0.14 0.438 0.194 0.557 0.478 1.402 0.519 1.859 0.039 0.432 0.039 0.865-0.215 1.164-0.168 0.205-0.43 0.323-0.777 0.348z" fill="#231f20"/>
  </g>
  <g transform="matrix(6.4202 0 0 -6.4202 -79.086 -25.047)">
   <path d="m0 0c-0.103 0-0.186 0.033-0.239 0.104-0.055 0.076-0.065 0.175-0.032 0.281 0.057 0.213 0.282 0.4 0.504 0.433 0.131 0.018 0.237-0.021 0.299-0.107 0.056-0.076 0.067-0.174 0.033-0.281-0.062-0.207-0.281-0.401-0.507-0.43zm-0.856-4.185c-0.204 0-0.375 0.074-0.477 0.21-0.101 0.141-0.123 0.332-0.063 0.545l0.598 1.953-0.449-0.058 0.197 0.637 1.213 0.171-0.789-2.583-0.01-0.174 0.118-0.061 0.16-0.103 0.011-0.198c-0.033-0.142-0.2-0.312-0.39-0.33l-0.119-9e-3" fill="#f25c19"/>
  </g>
  <g transform="matrix(6.4202 0 0 -6.4202 -77.969 .38252)">
   <path d="m0 0 0.771 2.519c0.041 0.149 0.025 0.276-0.043 0.354l-0.057 0.062 0.662 0.563 0.158-0.176c0.254 0.174 0.538 0.293 0.799 0.328 0.374 0.047 0.671-0.054 0.839-0.285 0.15-0.201 0.181-0.482 0.085-0.785l-0.608-1.994c-0.052-0.184-0.249-0.356-0.447-0.381l-0.039-4e-3c-0.096 0-0.174 0.039-0.221 0.106-0.048 0.062-0.06 0.156-0.029 0.253l0.629 2.077c0.035 0.119 0.029 0.218-0.021 0.287-0.059 0.078-0.17 0.113-0.305 0.095-0.303-0.044-0.611-0.302-0.693-0.584l-0.717-2.33z" fill="#f25c19"/>
  </g>
  <g transform="matrix(6.4202 0 0 -6.4202 -44.997 -13.147)">
   <path d="m0 0-0.399-0.053c-0.247-0.037-0.529-0.289-0.605-0.543-0.036-0.107-0.031-0.199 0.014-0.256 0.06-0.085 0.168-0.08 0.26-0.066 0.267 0.039 0.525 0.26 0.601 0.506zm-1.002-1.611c-0.26 0-0.476 0.101-0.605 0.273-0.141 0.186-0.165 0.443-0.079 0.729 0.179 0.595 0.831 1.156 1.456 1.242l0.445 0.056 0.103 0.356c0.033 0.096 0.024 0.187-0.024 0.252-0.049 0.07-0.132 0.098-0.237 0.082-0.164-0.024-0.418-0.147-0.557-0.293l-0.057-0.061-0.367 0.37 0.061 0.058c0.297 0.272 0.662 0.455 0.994 0.5 0.361 0.051 0.646-0.055 0.808-0.273 0.141-0.188 0.168-0.448 0.084-0.727l-0.453-1.502c-0.028-0.096-0.028-0.178 2e-3 -0.275l0.02-0.035c0.035-0.088 0.058-0.147 0.028-0.246-0.06-0.172-0.245-0.329-0.421-0.352-0.154-0.02-0.227 0.068-0.239 0.082l-0.049 0.088c-0.243-0.172-0.499-0.275-0.751-0.315l-0.162-9e-3" fill="#f25c19"/>
  </g>
  <g transform="matrix(6.4202 0 0 -6.4202 -31.442 -5.5613)">
   <path d="m0 0c-0.206 0-0.374 0.076-0.477 0.215-0.105 0.137-0.127 0.332-0.062 0.539l0.598 1.961-0.455-0.061 0.195 0.641 0.453 0.059 0.466 1.509 0.764 0.112-0.465-1.51 0.362 0.049c0.107 0.015 0.191-0.018 0.24-0.084l0.024-0.223c-0.051-0.16-0.219-0.303-0.387-0.328l-0.434-0.055-0.593-1.939-5e-3 -0.182 0.12-0.064 0.152-0.102 0.014-0.197c-0.037-0.141-0.201-0.303-0.389-0.332l-0.121-8e-3" fill="#f25c19"/>
  </g>
  <g transform="matrix(6.4202 0 0 -6.4202 -20.852 -7.0032)">
   <path d="m0 0-0.206 0.098c-0.049 0.062-0.061 0.148-0.033 0.246l0.678 2.216c0.048 0.149 0.032 0.276-0.039 0.356l-0.051 0.064 0.658 0.561 0.135-0.162c0.232 0.158 0.48 0.258 0.72 0.291 0.256 0.043 0.49-4e-3 0.651-0.131l0.034-0.029v-0.012c0.068-0.078 0.068-0.209-5e-3 -0.342-0.106-0.176-0.319-0.297-0.489-0.275l-0.097 0.047c-0.07 0.035-0.158 0.052-0.258 0.035-0.233-0.031-0.507-0.272-0.578-0.496l-0.633-2.092c-0.064-0.186-0.256-0.348-0.441-0.373l-0.046-2e-3" fill="#f25c19"/>
  </g>
  <g transform="matrix(6.4202 0 0 -6.4202 5.8691 -20.22)">
   <path d="m0 0-0.399-0.057c-0.24-0.031-0.524-0.283-0.602-0.537-0.035-0.111-0.029-0.201 0.012-0.259l0.187-0.071 0.076 4e-3c0.264 0.047 0.527 0.262 0.602 0.512zm-0.995-1.615c-0.264 0-0.48 0.099-0.609 0.279-0.136 0.184-0.165 0.443-0.079 0.727 0.18 0.599 0.831 1.156 1.455 1.242l0.446 0.056 0.105 0.358c0.032 0.094 0.022 0.183-0.025 0.25-0.05 0.068-0.139 0.1-0.24 0.086-0.164-0.026-0.418-0.145-0.555-0.295l-0.055-0.063-0.371 0.372 0.064 0.056c0.297 0.277 0.661 0.455 0.993 0.504 0.363 0.045 0.646-0.059 0.806-0.277 0.141-0.182 0.171-0.446 0.086-0.725l-0.455-1.506c-0.024-0.086-0.024-0.177 4e-3 -0.269l0.022-0.035c0.033-0.094 0.057-0.153 0.023-0.247-0.058-0.173-0.241-0.33-0.416-0.353-0.164-0.028-0.229 0.07-0.242 0.08l-0.05 0.09c-0.241-0.172-0.497-0.28-0.747-0.315l-0.16-0.015" fill="#f25c19"/>
  </g>
  <g transform="matrix(6.4202 0 0 -6.4202 -110.2 23.204)">
   <path d="m0 0c-0.2 0-0.364 0.062-0.475 0.187-0.427 0.487-0.394 1.381-0.311 1.711 0.088 0.352 0.627 1.944 0.652 2.01l0.01 0.139c-0.037 0.105-0.031 0.195 0.019 0.264 0.11 0.154 0.378 0.138 0.446 0.126 0.305-0.05 0.495-0.23 0.545-0.513 0.039-0.221-0.025-0.545-0.223-1.086-0.441-1.221-0.45-1.414-0.449-1.43-0.022-0.17-0.025-0.414 0.031-0.48l0.044-6e-3c0.464 0.16 1.193 2.213 1.234 2.885 0.021 0.314 0 1.058-0.627 1.138-0.525 0.071-1.039 0.213-1.047 0.215-0.301 0.078-0.57 0.379-0.702 0.779-0.122 0.375-0.294 1.395 0.792 2.725 1.451 1.785 2.625 1.822 2.672 1.822 0.341-0.023 0.578-0.129 0.732-0.314 0.248-0.289 0.23-0.729 0.197-1.111-0.04-0.444-0.324-1.286-0.514-1.838-0.071-0.205-0.141-0.42-0.148-0.455l0.01-0.098c0.015-0.096 0.039-0.254-0.176-0.313-0.08-0.021-0.193-0.043-0.32-0.043-0.209 0-0.367 0.065-0.463 0.202-0.139 0.185-0.139 0.494-3e-3 0.918 0.302 0.955 0.591 1.804 0.591 1.804 0.031 0.135 0.056 0.381 5e-3 0.451l-0.039 4e-3c-1.14-0.238-2.222-2.506-2.23-2.523-0.125-0.412-0.131-0.713-0.018-0.91 0.146-0.258 0.475-0.336 0.864-0.432 0.31-0.078 0.634-0.158 0.912-0.338 0.462-0.301 0.681-0.857 0.628-1.572-0.04-0.582-0.249-1.273-0.654-2.168-0.537-1.207-1.406-1.75-1.985-1.75" fill="#f25c19"/>
  </g>
 </g>
</svg>
