<svg width="800" height="388.17" version="1.1" viewBox="0 0 211.67 102.7" xmlns="http://www.w3.org/2000/svg">
 <g transform="translate(-.048487 -27.117)">
  <g transform="matrix(6.2235 0 0 -6.2235 -305.7 4474.7)">
   <g transform="translate(82.828 705.39)">
    <path d="m0 0c0-3.829-3.104-6.933-6.933-6.933-3.828 0-6.932 3.104-6.932 6.933s3.104 6.933 6.932 6.933c3.829 0 6.933-3.104 6.933-6.933" fill="#f68712"/>
   </g>
   <g transform="translate(75.896 712.63)">
    <path d="m0 0c-3.994 0-7.243-3.249-7.243-7.243 0-3.993 3.249-7.243 7.243-7.243s7.243 3.25 7.243 7.243c0 3.994-3.249 7.243-7.243 7.243m6.622-7.243c0-3.651-2.97-6.622-6.622-6.622s-6.622 2.971-6.622 6.622c0 3.652 2.97 6.623 6.622 6.623s6.622-2.971 6.622-6.623" fill="#233485"/>
   </g>
   <g transform="translate(81.46 705.39)">
    <path d="m0 0c0-3.073-2.492-5.565-5.565-5.565s-5.565 2.492-5.565 5.565 2.492 5.565 5.565 5.565 5.565-2.492 5.565-5.565" fill="#00adef"/>
   </g>
   <g transform="translate(75.896 711.26)">
    <path d="m0 0c-3.239 0-5.875-2.636-5.875-5.875 0-3.24 2.636-5.875 5.875-5.875 3.24 0 5.875 2.635 5.875 5.875 0 3.239-2.635 5.875-5.875 5.875m5.254-5.875c0-2.898-2.357-5.255-5.254-5.255s-5.255 2.357-5.255 5.255c0 2.897 2.358 5.255 5.255 5.255s5.254-2.358 5.254-5.255" fill="#233485"/>
   </g>
   <g transform="translate(80.179 705.39)">
    <path d="m0 0c0-2.365-1.918-4.283-4.283-4.283-2.366 0-4.283 1.918-4.283 4.283 0 2.366 1.917 4.283 4.283 4.283 2.365 0 4.283-1.917 4.283-4.283" fill="#f68712"/>
   </g>
   <g transform="translate(75.896 709.98)">
    <path d="m0 0c-2.533 0-4.593-2.061-4.593-4.593 0-2.533 2.06-4.594 4.593-4.594s4.593 2.061 4.593 4.594c0 2.532-2.06 4.593-4.593 4.593m3.973-4.593c0-2.191-1.782-3.973-3.973-3.973s-3.973 1.782-3.973 3.973c0 2.19 1.782 3.973 3.973 3.973s3.973-1.783 3.973-3.973" fill="#233485"/>
   </g>
   <g transform="translate(78.833 705.39)">
    <path d="m0 0c0-1.622-1.315-2.938-2.938-2.938-1.622 0-2.937 1.316-2.937 2.938 0 1.623 1.315 2.938 2.937 2.938 1.623 0 2.938-1.315 2.938-2.938" fill="#00adef"/>
   </g>
   <g transform="translate(75.896 708.63)">
    <path d="m0 0c-1.791 0-3.248-1.457-3.248-3.248s1.457-3.248 3.248-3.248 3.248 1.457 3.248 3.248-1.457 3.248-3.248 3.248m2.628-3.248c0-1.449-1.179-2.628-2.628-2.628s-2.628 1.179-2.628 2.628 1.179 2.628 2.628 2.628 2.628-1.179 2.628-2.628" fill="#233485"/>
   </g>
   <g transform="translate(73.199 705.62)">
    <path d="m0 0v0.33l-2e-3 1e-3 -4e-3 0.844-2e-3 0.55-0.548 0.049-3.471 0.312-0.659 0.059v-0.016l-6.873 0.606-0.804 0.072-0.611 0.055v0.019l-0.55 0.049-2.476 0.223-0.659 0.059v-2.465l-2.703 0.066v2.641l-0.55 0.049-3.5 0.314-0.659 0.06v-9.6l0.662 0.062 3.499 0.33 0.548 0.052v2.689l2.703 0.078v-2.512l0.053 5e-3 -0.013-0.025 2.165 0.228 0.933 0.088 0.547 0.052v0.016l3.112 0.328-1e-3 5e-3 0.017 2e-3v4.034l0.545-0.02 0.934-0.034v-3.821l0.662 0.063 1.458 0.137 0.547 0.052v3.473l0.612-0.023 0.402-0.014v-3.387l0.662 0.062 3.476 0.328 0.548 0.052v2.793h3e-3z" fill="#233485"/>
   </g>
   <g transform="translate(59.62 707.94)">
    <path d="m0 0v-6.454l-2.476-0.234v2.471l-3.912-0.114v-2.726l-3.5-0.33v8.274l3.5-0.314v-2.678l3.912-0.096v2.423z" fill="#ec008c"/>
   </g>
   <g transform="translate(62.749 707.64)">
    <path d="m0 0v-5.804l-1.967-0.185v6.166z" fill="#ec008c"/>
   </g>
   <g transform="translate(68.133 705.76)">
    <path d="m0 0-1.238 0.045v-3.55l-1.458-0.137v3.74l-1.517 0.055v1.611l4.213-0.377z" fill="#ec008c"/>
   </g>
   <g transform="translate(69.118 703.78)">
    <path d="m0 0 2.538 0.104v0.398l-2.538-0.06v2.882l3.47-0.311 6e-3 -1.175-2.324 0.084v-0.414l2.324-0.044v-2.496l-3.476-0.328z" fill="#ec008c"/>
   </g>
   <g transform="translate(77.068 703.2)">
    <path d="m0 0v2.84h6e-3v3.41l-3.231-0.699v-1.162h0.878v-4.389h-1.48v-1.807h5.286v1.807z" fill="#f68712"/>
   </g>
   <g transform="translate(78.011 703.2)">
    <path d="m0 0v-1.807l0.516 0.516h-5.287l0.517-0.516v1.807l-0.517-0.516h1.997v5.422h-1.395l0.517-0.517v1.162l-0.407-0.505 3.231 0.699-0.625 0.505v-3.41l0.516 0.516h-0.516l-6e-3 -0.516v-3.356h1.975zm-0.427 0v2.84l-0.516-0.516h0.516l6e-3 0.516v4.05l-0.625-0.135-3.232-0.699-0.407-0.089v-2.094h1.394l-0.516 0.516v-4.389l0.516 0.516h-1.996v-2.84h6.319v2.84h-1.975z" fill="#233485"/>
   </g>
   <g transform="translate(77.068 703.2)">
    <path d="m0 0v2.84h6e-3v3.41l-3.231-0.699v-1.162h0.878v-4.389h-1.48v-1.807h5.286v1.807z" fill="#a6d71c"/>
   </g>
   <g transform="translate(78.312 703.2)">
    <path d="m0 0v-1.807l0.215 0.215h-5.287l0.216-0.215v1.807l-0.216-0.215h1.696v4.82h-1.094l0.216-0.216v1.162l-0.17-0.21 3.232 0.699-0.261 0.21v-3.41l0.215 0.215h-0.215l-6e-3 -0.215v-3.055h1.674zm-1.029 0v2.84l-0.215-0.215h0.215l6e-3 0.215v3.677l-0.26-0.057-3.232-0.699-0.169-0.036v-1.551h1.093l-0.216 0.215v-4.389l0.216 0.215h-1.695v-2.237h5.716v2.237h-1.674z" fill="#fff"/>
   </g>
   <g transform="translate(50.821 710.07)">
    <path d="m0 0c-0.632 0.055-1.257 0.344-1.686 0.689l0.518 0.918c0.296-0.253 0.803-0.526 1.166-0.563 0.382-0.038 0.501 0.025 0.496 0.23-3e-3 0.163-0.143 0.277-0.667 0.472-0.963 0.354-1.437 0.703-1.46 1.606-0.022 0.854 0.583 1.341 1.54 1.201 0.661-0.097 1.135-0.348 1.541-0.729l-0.489-0.879c-0.344 0.307-0.688 0.503-1.083 0.555-0.326 0.043-0.402-0.061-0.399-0.22 4e-3 -0.166 0.147-0.26 0.653-0.456 0.97-0.38 1.396-0.765 1.412-1.573 0.019-0.983-0.622-1.332-1.542-1.251" fill="#00adef"/>
   </g>
   <g transform="translate(53.011 709.94)">
    <path d="m0 0-0.095 3.543 0.914-0.128 0.092-3.495z" fill="#00adef"/>
   </g>
   <g transform="translate(55.862 712.31)">
    <path d="m0 0-0.506 0.065 0.019-0.748 0.492-0.058c0.269-0.031 0.372 0.092 0.366 0.333-5e-3 0.212-0.111 0.375-0.371 0.408m0.384-2.653-0.515 1.187-0.337 0.036 0.028-1.15-0.839 0.074-0.089 3.461 1.37-0.191c0.697-0.097 1.158-0.456 1.177-1.247 0.012-0.5-0.184-0.787-0.502-0.92l0.613-1.33z" fill="#00adef"/>
   </g>
   <g transform="translate(57.647 709.53)">
    <path d="m0 0-0.077 3.303 0.796-0.11 0.074-3.263z" fill="#00adef"/>
   </g>
   <g transform="translate(60.166 709.26)">
    <path d="m0 0c-0.666 0.058-1.173 0.507-1.196 1.531l-0.041 1.855 0.763-0.106 0.04-1.832c8e-3 -0.392 0.143-0.647 0.429-0.675 0.283-0.029 0.397 0.198 0.388 0.585l-0.038 1.808 0.726-0.102 0.037-1.786c0.02-0.986-0.456-1.335-1.108-1.278" fill="#00adef"/>
   </g>
   <g transform="translate(62.734 709.03)">
    <path d="m0 0c-0.391 0.034-0.777 0.23-1.041 0.465l0.32 0.636c0.183-0.172 0.496-0.356 0.721-0.378 0.236-0.024 0.31 0.021 0.308 0.163-3e-3 0.112-0.089 0.19-0.414 0.32-0.593 0.235-0.884 0.47-0.897 1.088-0.011 0.584 0.36 0.924 0.949 0.842 0.408-0.058 0.702-0.223 0.955-0.48l-0.304-0.612c-0.214 0.208-0.427 0.338-0.671 0.37-0.201 0.025-0.248-0.047-0.246-0.157 2e-3 -0.113 0.09-0.176 0.403-0.305 0.601-0.252 0.867-0.514 0.877-1.073 0.013-0.683-0.387-0.929-0.96-0.879" fill="#00adef"/>
   </g>
   <g transform="translate(65.632 708.79)">
    <path d="m0 0-0.165 0.413c-0.089 0.225-0.178 0.466-0.238 0.661-0.054-0.178-0.142-0.407-0.231-0.617l-0.16-0.387-0.783 0.068 0.795 1.694-0.81 1.852 0.805-0.117 0.141-0.361c0.09-0.233 0.187-0.481 0.241-0.672 0.054 0.177 0.146 0.399 0.23 0.606l0.132 0.319 0.749-0.108-0.737-1.587 0.791-1.831z" fill="#00adef"/>
   </g>
   <g transform="translate(68.394 708.55)">
    <path d="m0 0-4e-3 0.783c-1e-3 0.324 1e-3 0.62 0.01 0.874-0.066-0.238-0.177-0.608-0.251-0.836l-0.287-0.888-0.299 0.948c-0.078 0.246-0.197 0.646-0.266 0.904 0.011-0.261 0.016-0.563 0.018-0.893l5e-3 -0.798-0.595 0.052-0.025 3.395 0.586-0.085 0.284-0.938c0.137-0.448 0.251-0.851 0.288-1.041 0.037 0.186 0.137 0.535 0.274 0.968l0.267 0.85 0.547-0.079 0.01-3.266z" fill="#00adef"/>
   </g>
  </g>
 </g>
</svg>
