<svg width="800" height="305.55" version="1.1" viewBox="0 0 211.67 80.843" xmlns="http://www.w3.org/2000/svg">
 <g transform="translate(126.78 110.76)">
  <g transform="matrix(5.8928 0 0 -5.8928 -69.805 -70.588)">
   <path d="m0 0c-0.045-0.094-0.1-0.178-0.139-0.266-0.199-0.447-0.294-0.927-0.294-1.44v-3.04c-0.814 0.815-1.747 1.746-2.152 2.152 0.447 0.448 1.735 1.74 2.585 2.594m25.719 2.008h-1.489v-5.19c0-0.24-0.044-0.466-0.131-0.669-0.097-0.211-0.214-0.393-0.374-0.551-0.164-0.162-0.34-0.281-0.556-0.376-0.21-0.088-0.429-0.131-0.662-0.131h-2.962c-0.242 0-0.459 0.043-0.666 0.131-0.205 0.093-0.391 0.214-0.549 0.376-0.163 0.158-0.282 0.34-0.373 0.551-0.086 0.203-0.132 0.429-0.132 0.669v5.19h-1.993v-1.158l-0.051 0.067c-0.34 0.337-0.731 0.608-1.179 0.798-0.456 0.197-0.94 0.293-1.444 0.293h-1.485c-0.503 0-0.993-0.096-1.443-0.293-0.447-0.19-0.841-0.461-1.177-0.798-0.338-0.336-0.608-0.732-0.798-1.181l-0.035-0.093-0.036 0.093c-0.194 0.449-0.465 0.845-0.797 1.181-0.34 0.337-0.735 0.608-1.178 0.798-0.451 0.197-0.938 0.293-1.444 0.293h-1.485c-0.509 0-0.995-0.096-1.443-0.293-0.091-0.039-0.171-0.094-0.257-0.139l0.045 0.043h-2.777s-2.266-2.269-2.823-2.828c-0.554 0.559-2.822 2.828-2.822 2.828h-2.772s3.63-3.629 4.212-4.213c-0.586-0.584-4.312-4.307-4.312-4.307h2.776s2.362 2.369 2.918 2.921c0.559-0.552 2.922-2.921 2.922-2.921h2.614v5.195c0 0.229 0.041 0.454 0.129 0.668 0.091 0.203 0.217 0.394 0.373 0.547 0.16 0.163 0.341 0.288 0.551 0.374 0.206 0.092 0.423 0.135 0.666 0.135h1.485c0.235 0 0.451-0.043 0.663-0.135 0.213-0.089 0.392-0.211 0.551-0.374 0.156-0.153 0.279-0.344 0.373-0.547 0.089-0.214 0.134-0.439 0.134-0.668v-3.461c0-0.238 0.047-0.469 0.141-0.687 0.088-0.195 0.213-0.381 0.371-0.535 0.154-0.152 0.334-0.276 0.539-0.37 0.211-0.097 0.442-0.142 0.683-0.142 0.239 0 0.469 0.045 0.68 0.142 0.204 0.094 0.385 0.218 0.54 0.37 0.155 0.154 0.283 0.34 0.372 0.535 0.092 0.218 0.139 0.449 0.139 0.687v3.461c0 0.229 0.046 0.454 0.135 0.668 0.086 0.203 0.215 0.394 0.371 0.547 0.162 0.163 0.34 0.288 0.553 0.374 0.203 0.092 0.42 0.135 0.663 0.135h1.485c0.235 0 0.451-0.043 0.661-0.135 0.21-0.089 0.396-0.211 0.552-0.374 0.16-0.153 0.285-0.344 0.376-0.547 0.087-0.214 0.134-0.439 0.134-0.668v-5.195h1.987v1.156l0.058-0.065c0.336-0.336 0.73-0.605 1.176-0.795 0.451-0.199 0.937-0.296 1.443-0.296h2.962c0.511 0 0.995 0.097 1.443 0.296 0.447 0.19 0.843 0.457 1.181 0.795 0.336 0.337 0.606 0.73 0.795 1.184 0.195 0.447 0.292 0.935 0.292 1.444v5.19z" fill="#a7a5a6"/>
  </g>
  <g transform="matrix(5.8928 0 0 -5.8928 75.92 -79.467)">
   <path d="m0 0v-4.688c0-0.309-0.058-0.603-0.177-0.874-0.111-0.261-0.271-0.501-0.478-0.703-0.203-0.206-0.442-0.362-0.712-0.478-0.266-0.116-0.552-0.169-0.856-0.169h-2.962c-0.31 0-0.597 0.053-0.866 0.169-0.263 0.116-0.497 0.272-0.703 0.478-0.204 0.202-0.364 0.442-0.476 0.703-0.118 0.271-0.177 0.565-0.177 0.874v4.688h-0.985v-2.755c-0.043 0.276-0.109 0.535-0.219 0.787-0.169 0.395-0.403 0.731-0.697 1.026-0.289 0.291-0.631 0.527-1.021 0.689-0.387 0.176-0.8 0.253-1.242 0.253h-1.486c-0.444 0-0.853-0.077-1.243-0.253-0.389-0.162-0.731-0.398-1.022-0.689-0.297-0.295-0.527-0.631-0.697-1.026-0.161-0.385-0.248-0.8-0.248-1.241v-3.459l-0.07-0.171-0.173-0.073-0.18 0.073-0.061 0.171v3.459c0 0.441-0.088 0.856-0.258 1.241-0.167 0.395-0.397 0.731-0.69 1.026-0.293 0.291-0.631 0.527-1.021 0.689-0.389 0.176-0.803 0.253-1.245 0.253h-1.484c-0.444 0-0.856-0.077-1.247-0.253-0.388-0.162-0.725-0.398-1.019-0.689-0.295-0.295-0.524-0.631-0.694-1.026-0.166-0.385-0.25-0.8-0.25-1.245v-4.249l-3.365 3.361 3.708 3.705h-1.357l-3.031-3.022-3.028 3.022h-1.361l3.713-3.705-3.811-3.808h1.359l3.128 3.129 3.131-3.129h1.903v4.696c0 0.301 0.058 0.588 0.175 0.86 0.111 0.272 0.27 0.505 0.471 0.708 0.21 0.207 0.445 0.37 0.712 0.483 0.266 0.112 0.553 0.169 0.863 0.169h1.484c0.303 0 0.585-0.057 0.86-0.169 0.266-0.113 0.502-0.276 0.708-0.483 0.208-0.203 0.366-0.436 0.479-0.708 0.116-0.272 0.175-0.559 0.175-0.86v-3.461c0-0.165 0.031-0.33 0.097-0.476 0.063-0.151 0.153-0.279 0.266-0.391s0.242-0.201 0.391-0.267c0.15-0.062 0.306-0.101 0.479-0.101 0.169 0 0.332 0.039 0.481 0.101 0.143 0.066 0.274 0.155 0.387 0.267 0.112 0.112 0.202 0.24 0.266 0.391 0.064 0.146 0.1 0.311 0.1 0.476v3.461c0 0.301 0.058 0.588 0.172 0.86 0.116 0.272 0.275 0.505 0.478 0.708 0.205 0.207 0.445 0.37 0.708 0.483 0.266 0.112 0.552 0.169 0.861 0.169h1.486c0.299 0 0.591-0.057 0.855-0.169 0.27-0.113 0.509-0.276 0.713-0.483 0.201-0.203 0.363-0.436 0.482-0.708 0.114-0.272 0.167-0.559 0.167-0.86v-4.696h0.996v2.763c0.037-0.279 0.103-0.54 0.216-0.793 0.167-0.389 0.399-0.735 0.69-1.02 0.292-0.295 0.631-0.523 1.021-0.696 0.389-0.165 0.805-0.254 1.246-0.254h2.962c0.448 0 0.854 0.089 1.245 0.254 0.388 0.173 0.731 0.401 1.024 0.696 0.294 0.285 0.525 0.631 0.691 1.02 0.168 0.39 0.252 0.803 0.252 1.251v4.688z" fill="#eb222f"/>
  </g>
  <g fill="#fff">
   <g transform="matrix(5.8928 0 0 -5.8928 -122.47 -93.428)">
    <path d="m0 0c0.221-0.12 0.577-0.24 0.941-0.24 0.388 0 0.596 0.165 0.596 0.413 0 0.229-0.181 0.364-0.63 0.525-0.625 0.222-1.037 0.57-1.037 1.125 0 0.637 0.536 1.119 1.422 1.119 0.426 0 0.734-0.082 0.959-0.189l-0.192-0.682c-0.144 0.075-0.419 0.184-0.779 0.184-0.369 0-0.549-0.176-0.549-0.362 0-0.246 0.21-0.353 0.697-0.535 0.667-0.246 0.971-0.595 0.971-1.127 0-0.632-0.479-1.171-1.51-1.171-0.425 0-0.854 0.118-1.065 0.238z" fill="#fff"/>
   </g>
   <path d="m-76.899-88.283h-5.003v-22.121h5.003z"/>
   <g transform="matrix(5.8928 0 0 -5.8928 -44.623 -100.59)">
    <path d="m0 0h0.332c0.423 0 0.677 0.212 0.677 0.541 0 0.338-0.236 0.517-0.625 0.517-0.208 0-0.323-6e-3 -0.384-0.031zm-0.841 1.607c0.275 0.053 0.67 0.089 1.128 0.089 0.557 0 0.95-0.089 1.215-0.302 0.23-0.179 0.352-0.436 0.352-0.786 0-0.472-0.342-0.801-0.663-0.918v-0.022c0.265-0.103 0.411-0.348 0.502-0.692 0.118-0.431 0.227-0.92 0.299-1.064h-0.868c-0.056 0.109-0.15 0.413-0.256 0.873-0.102 0.474-0.267 0.6-0.62 0.605h-0.248v-1.478h-0.841z" fill="#fff"/>
   </g>
   <path d="m-2.0965-88.283h-5.0088v-22.121h5.0088z"/>
   <g transform="matrix(5.8928 0 0 -5.8928 30.188 -110.4)">
    <path d="m0 0v-2.156c0-0.654 0.252-0.98 0.68-0.98 0.447 0 0.689 0.314 0.689 0.98v2.156h0.85v-2.107c0-1.155-0.583-1.714-1.567-1.714-0.949 0-1.503 0.535-1.503 1.723v2.098z" fill="#fff"/>
   </g>
   <g transform="matrix(5.8928 0 0 -5.8928 70.712 -93.428)">
    <path d="m0 0c0.223-0.12 0.587-0.24 0.947-0.24 0.391 0 0.596 0.165 0.596 0.413 0 0.229-0.179 0.364-0.629 0.525-0.622 0.222-1.035 0.57-1.035 1.125 0 0.637 0.539 1.119 1.417 1.119 0.43 0 0.736-0.082 0.959-0.189l-0.189-0.682c-0.146 0.075-0.42 0.184-0.779 0.184-0.368 0-0.548-0.176-0.548-0.362 0-0.246 0.208-0.353 0.696-0.535 0.663-0.246 0.97-0.595 0.97-1.127 0-0.632-0.475-1.171-1.51-1.171-0.426 0-0.85 0.118-1.061 0.238z" fill="#fff"/>
   </g>
  </g>
 </g>
</svg>
