<svg width="800" height="557.65" version="1.1" viewBox="0 0 211.67 147.55" xmlns="http://www.w3.org/2000/svg">
 <g transform="translate(-37.286 166.15)">
  <path d="m54.352-137.18c-6.3588 0-10.953-5.3035-10.953-11.799v-0.10315c0-6.4951 4.5939-11.726 10.953-11.726 3.8025 0 6.659 1.6658 9.3062 4.1393l3.7479-4.3211c-3.1839-3.0475-6.8682-5.1671-13.009-5.1671-10.052 0-17.111 7.7324-17.111 17.175v0.0774c0 9.5426 7.2048 17.066 16.884 17.066 6.2132 0 9.9975-2.2641 13.482-5.8858l-3.7661-3.7844c-2.8473 2.6565-5.4672 4.312-9.5336 4.312" fill="#a78e1e"/>
  <path d="m99.934-148.89c0 6.4498-4.5849 11.708-11.171 11.708-6.6135 0-11.289-5.3489-11.289-11.799v-0.10315c0-6.4497 4.594-11.726 11.171-11.726 6.5953 0 11.289 5.3672 11.289 11.826zm-11.171-17.266c-10.207 0-17.43 7.8327-17.43 17.175v0.10314c0 9.3335 7.132 17.066 17.311 17.066 10.216 0 17.402-7.8144 17.402-17.157v-0.10315c0-9.3425-7.0865-17.075-17.284-17.075" fill="#a78e1e"/>
  <path d="m145.22-132.38v-33.204h-6.2132l-10.098 15.71-10.107-15.71h-6.2132v33.204h5.7402v-23.716l10.37 15.565h0.20887l10.471-15.656v23.807z" fill="#a78e1e"/>
  <path d="m178.62-137.6h-19.022v-8.924h16.647v-5.2215h-16.647v-8.6241h18.776v-5.2215h-24.616v33.204h24.862z" fill="#a78e1e"/>
  <path d="m191.4-160.27h6.5134c6.9683 0 11.562 4.785 11.562 11.298v0.0774c0 6.5042-4.594 11.189-11.562 11.189h-6.5134zm24.171 11.298v-0.10315c0-9.3427-7.223-16.511-17.657-16.511h-12.381v33.213h12.381c10.434 0 17.657-7.2594 17.657-16.593" fill="#a78e1e"/>
  <path d="m229.89-132.38h5.8766v-13.236l13.181-19.968h-6.6863l-9.3971 14.701-9.288-14.701h-6.8864l13.2 20.113z" fill="#a78e1e"/>
  <path d="m53.49-122.46h-5.4946c-6.2496 0-10.425 4.3757-10.425 10.889v83.046c0 5.804 4.3029 9.852 10.425 9.852h5.4946c6.2496 0 10.443-3.9662 10.443-9.852v-47.331h-14.964v6.9683h8.3055v38.871c0 3.3659-1.1008 4.6849-3.9208 4.6849h-5.2034c-2.6927 0-3.9117-1.4466-3.9117-4.6849v-80.808c0-3.293 1.3283-4.9668 3.9117-4.9668h5.2034c2.7837 0 3.9208 1.4363 3.9208 4.9668v14.155h6.659v-16.084c0-5.4399-4.5667-9.7063-10.443-9.7063" fill="#fff"/>
  <path d="m94.968-80.668c0 3.4567-1.0915 4.803-3.9481 4.803h-8.0599v-39.926h8.0599c2.6108 0 3.9481 1.573 3.9481 4.6668zm-4.3756-41.791h-14.309v103.34h6.6772v-50.079h8.0599c2.6745 0 3.9481 1.6736 3.9481 5.1215v44.957h6.6772v-45.248c0-3.5294-1.1189-6.1493-3.3568-8.0142 1.3646-0.918 3.3568-2.8837 3.3568-6.5225v-32.667c0-7.1228-3.8389-10.889-11.053-10.889" fill="#fff"/>
  <path d="m114.79-19.117h20.896v-6.6772h-14.237v-43.401h14.237v-6.6682h-14.237v-39.926h14.237v-6.6682h-20.896z" fill="#fff"/>
  <path d="m165.28-75.862h-12.008v-34.96c0-3.4477 1.3009-4.9668 4.221-4.9668h3.5569c2.9474 0 4.2301 1.4827 4.2301 4.9668zm-3.9208-46.604h-4.1573c-6.0586 0-10.616 4.1663-10.616 9.7156v93.635h6.6863v-50.079h12.008v50.079h6.668v-93.635c0-5.631-4.4393-9.7156-10.589-9.7156" fill="#fff"/>
  <path d="m234.99-122.46h-3.475c-6.4133 0-10.889 4.3574-10.889 10.598l-0.0284 33.44c0 6.6952 5.7857 9.3879 10.871 11.753 4.8214 2.246 7.7688 3.8298 7.7688 6.8409v29.074c0 3.6387-1.3646 5.4219-4.0754 5.4219h-4.1027c-2.6654 0-3.9117-1.31-3.9117-4.0846v-15.046h-6.6954v15.046c0 6.8319 3.8935 10.743 10.607 10.743h3.9299c6.6226 0 10.889-4.0936 10.889-10.452v-30.748c0-7.4866-6.4133-10.461-11.571-12.872-4.3484-2.0191-7.0138-3.4113-7.0138-5.6764l-9e-3 -32.403c0-3.475 1.1736-4.9668 3.9299-4.9668h4.0845c2.7473 0 3.939 1.493 3.939 4.9668v14.155h6.6408v-14.755c0-6.7045-4.2665-11.035-10.889-11.035" fill="#fff"/>
  <path d="m184.33-119.95-0.39119-0.86385-2.8655-1.7922-0.3458-0.12893-1.0462-0.15472c-1.9103 0-3.8025 1.4363-4.3211 3.2476-0.30918 1.083-0.18309 2.2924 0.40949 3.3203 0.53662 1.0108 1.419 1.7277 2.4379 2.0191l0.0542 0.0183 3.757 0.10315 0.61862-0.44611 0.20887-0.41774 1.319-4.2574z" fill="#fff"/>
  <path d="m212.3-107.09c0.70965 0.97215 1.1645 1.7999 0.69134 3.4113-0.9278 3.0111-2.074 5.3399-4.9124 7.6413-3.2476 2.6746-6.7135 5.6947-5.4764 12.799 0.81873 4.6305-0.90975 7.8781-1.8649 10.034l-0.41851 0.89995-0.0464-0.01857v-29.383l0.35483-0.57247v-0.34554l-0.14441-0.39969v-1.9366l0.14441-0.37391v-0.34554l-0.14441-0.39969v-2.5013l0.14441-0.41774-0.6096-1.2378 0.30016-0.0183 0.59128-0.33522 10.088 2.9564 1.1189 0.31717 0.18309 0.23208m-0.0184-3.0565c-3.2112-2.393-8.5056-3.0021-10.534-3.1565l-0.0361-0.15472 0.32749-0.30944-1.1098-0.3739 0.19082-1.1552c-0.10057-0.35586-0.41852-1.4286-4.4393-2.2383l-0.18309-0.0516-0.65498-0.0516c-0.86411 0-1.5101 0.41775-1.7739 1.1449l-7.0865-2.6292-0.55492-0.12894-1.4554 4.5941-0.20887 0.56473 8.8877 2.3646c0.32749 0.58278 0.74601 1.3744 2.1834 2.82v2.829l-0.11862 0.39969v0.34554l0.11862 0.37391v1.9366l-0.11862 0.3997v0.34554l0.37314 0.61887v78.17c-7.978 0.12893-7.978 1.2919-7.978 1.6916v1.493c0 1.3925 5.44 1.6916 9.9884 1.6916 3.7843 0 10.17-0.23208 10.179-1.6916v-1.493c0-0.39969 0-1.5549-8.0053-1.6916v-45.522l0.63667-1.3383 0.48221-1.0186 0.53662-1.2094c1.0552-2.3285 2.6199-5.2125 1.7922-10.816-0.90975-6.1496 1.3827-8.7602 5.0943-11.771 3.002-2.4832 4.2665-5.0671 5.2398-8.1965 0.34579-1.1552 0.33651-2.0732-0.0645-3.0475l-0.29113-0.44611 0.78236 0.23208 0.65498 0.18051 1.7194 0.51057 0.84606-2.638z" fill="#fff"/>
 </g>
</svg>
