<svg width="800" height="416" version="1.1" viewBox="0 0 211.67 110.07" xmlns="http://www.w3.org/2000/svg">
 <defs>
  <clipPath id="clipPath16356">
   <path d="m0 0h612v792h-612z"/>
  </clipPath>
  <linearGradient id="linearGradient16346" x2="1" gradientTransform="matrix(4.585 0 0 -4.585 268.61 323.5)" gradientUnits="userSpaceOnUse">
   <stop stop-color="#8c2b99" offset="0"/>
   <stop stop-color="#8c2b99" offset=".38225"/>
   <stop stop-color="#491547" offset="1"/>
  </linearGradient>
  <linearGradient id="linearGradient16324" x2="1" gradientTransform="matrix(4.4082 0 0 -4.4082 268.97 327.39)" gradientUnits="userSpaceOnUse">
   <stop stop-color="#8c2b99" offset="0"/>
   <stop stop-color="#8c2b99" offset=".38225"/>
   <stop stop-color="#491547" offset="1"/>
  </linearGradient>
  <clipPath id="clipPath16300">
   <path d="m0 0h612v792h-612z"/>
  </clipPath>
  <linearGradient id="linearGradient16290" x2="1" gradientTransform="matrix(4.2481 0 0 -4.2481 269.3 330.97)" gradientUnits="userSpaceOnUse">
   <stop stop-color="#8c2b99" offset="0"/>
   <stop stop-color="#8c2b99" offset=".38225"/>
   <stop stop-color="#491547" offset="1"/>
  </linearGradient>
  <clipPath id="clipPath16262">
   <path d="m0 0h612v792h-612z"/>
  </clipPath>
  <clipPath id="clipPath16216">
   <path d="m273.57 331.28h0.023-0.023l-0.026 5e-3zm0.045-3e-3 0.024-5e-3 -0.024 5e-3 -0.022 3e-3z"/>
  </clipPath>
  <clipPath id="clipPath16224">
   <path d="m273.64 331.28-0.024 5e-3 -0.022 3e-3h-0.023l-0.027 6e-3 0.027-6e-3h0.023l0.022-3e-3z"/>
  </clipPath>
  <clipPath id="clipPath16232">
   <path d="m273.55 331.29h0.096v-0.014h-0.096z"/>
  </clipPath>
  <linearGradient id="linearGradient16252" x2="1" gradientTransform="matrix(.095696 0 0 -.095696 273.55 331.28)" gradientUnits="userSpaceOnUse">
   <stop stop-color="#8c2b99" offset="0"/>
   <stop stop-color="#8c2b99" offset=".38225"/>
   <stop stop-color="#491547" offset="1"/>
  </linearGradient>
  <clipPath id="clipPath16144">
   <path d="m0 0h612v792h-612z"/>
  </clipPath>
 </defs>
 <g transform="translate(197.25 77.669)">
  <g transform="matrix(6.8916 0 0 -6.8916 2.7981 -68.544)">
   <path d="m0 0v0.066l-0.031 0.051-0.052 0.028h-0.075l-1.813-0.29-0.074-0.025-0.062-0.048-0.055-0.061-0.026-0.072v-0.067l0.026-0.053 0.055-0.028 0.062-5e-3 0.554 0.088-0.33-1.644 0.7 0.095 0.322 1.657 0.571 0.09 0.082 0.029 0.066 0.047 0.055 0.066z" fill="#231f20"/>
  </g>
  <g transform="matrix(6.8916 0 0 -6.8916 2.7981 -68.544)">
   <path d="m0 0v0.066l-0.031 0.051-0.052 0.028h-0.075l-1.813-0.29-0.074-0.025-0.062-0.048-0.055-0.061-0.026-0.072v-0.067l0.026-0.053 0.055-0.028 0.062-5e-3 0.554 0.088-0.33-1.644 0.7 0.095 0.322 1.657 0.571 0.09 0.082 0.029 0.066 0.047 0.055 0.066z" fill="none" stroke="#fff" stroke-width=".898"/>
  </g>
  <g transform="matrix(6.8916 0 0 -6.8916 -4.7661 -38.669)">
   <path d="m0 0c-0.017-0.098-0.05-0.198-0.085-0.286l-0.14-0.243-0.169-0.169-0.177-0.074-0.153 0.041-0.11 0.142-0.044 0.219c-6e-3 0.084 0 0.179 0.017 0.277 0.023 0.102 0.049 0.196 0.09 0.282l0.134 0.24 0.166 0.165 0.182 0.08 0.153-0.04 0.105-0.137 0.049-0.219c6e-3 -0.086 0-0.18-0.018-0.278m0.577 0.862c-0.091 0.092-0.207 0.16-0.342 0.2-0.131 0.041-0.279 0.054-0.449 0.033-0.164-0.021-0.323-0.073-0.475-0.144-0.155-0.075-0.295-0.169-0.422-0.286-0.127-0.116-0.235-0.246-0.319-0.387-0.088-0.138-0.154-0.295-0.183-0.453-0.031-0.154-0.031-0.3 0-0.431 0.034-0.128 0.092-0.248 0.183-0.34 0.082-0.099 0.192-0.17 0.325-0.215 0.13-0.049 0.283-0.066 0.45-0.049 0.166 0.012 0.336 0.064 0.493 0.137 0.159 0.073 0.308 0.168 0.438 0.289 0.132 0.114 0.247 0.252 0.332 0.398 0.092 0.148 0.154 0.307 0.181 0.473 0.033 0.161 0.027 0.311-0.011 0.442-0.039 0.132-0.105 0.245-0.201 0.333" fill="#231f20"/>
  </g>
  <g transform="matrix(6.8916 0 0 -6.8916 -4.7661 -38.669)">
   <path d="m0 0c-0.017-0.098-0.05-0.198-0.085-0.286l-0.14-0.243-0.169-0.169-0.177-0.074-0.153 0.041-0.11 0.142-0.044 0.219c-6e-3 0.084 0 0.179 0.017 0.277 0.023 0.102 0.049 0.196 0.09 0.282l0.134 0.24 0.166 0.165 0.182 0.08 0.153-0.04 0.105-0.137 0.049-0.219c6e-3 -0.086 0-0.18-0.018-0.278zm0.577 0.862c-0.091 0.092-0.207 0.16-0.342 0.2-0.131 0.041-0.279 0.054-0.449 0.033-0.164-0.021-0.323-0.073-0.475-0.144-0.155-0.075-0.295-0.169-0.422-0.286-0.127-0.116-0.235-0.246-0.319-0.387-0.088-0.138-0.154-0.295-0.183-0.453-0.031-0.154-0.031-0.3 0-0.431 0.034-0.128 0.092-0.248 0.183-0.34 0.082-0.099 0.192-0.17 0.325-0.215 0.13-0.049 0.283-0.066 0.45-0.049 0.166 0.012 0.336 0.064 0.493 0.137 0.159 0.073 0.308 0.168 0.438 0.289 0.132 0.114 0.247 0.252 0.332 0.398 0.092 0.148 0.154 0.307 0.181 0.473 0.033 0.161 0.027 0.311-0.011 0.442-0.039 0.132-0.105 0.245-0.201 0.333z" fill="none" stroke="#fff" stroke-width=".898"/>
  </g>
  <g transform="matrix(6.8916 0 0 -6.8916 -2.8751 7.028)">
   <path d="m0 0-0.062 0.047-0.081 0.013-0.083-0.023-0.08-0.05-0.053-0.072-0.038-0.087-0.231-1.34-0.875 1.456-0.611-0.01-0.458-2.353-2e-3 -0.091 0.033-0.077 0.057-0.046 0.077-0.024 0.08 0.022 0.075 0.046 0.059 0.077 0.039 0.089 0.255 1.342 0.866-1.508 0.648-4e-3 0.422 2.429-2e-3 0.086z" fill="#231f20"/>
  </g>
  <g transform="matrix(6.8916 0 0 -6.8916 -2.8751 7.028)">
   <path d="m0 0-0.062 0.047-0.081 0.013-0.083-0.023-0.08-0.05-0.053-0.072-0.038-0.087-0.231-1.34-0.875 1.456-0.611-0.01-0.458-2.353-2e-3 -0.091 0.033-0.077 0.057-0.046 0.077-0.024 0.08 0.022 0.075 0.046 0.059 0.077 0.039 0.089 0.255 1.342 0.866-1.508 0.648-4e-3 0.422 2.429-2e-3 0.086z" fill="none" stroke="#fff" stroke-width=".898"/>
  </g>
  <g transform="matrix(6.8916 0 0 -6.8916 -1876.8 2230.6)">
   <g clip-path="url(#clipPath16144)">
    <g transform="translate(264.1 326.68)">
     <path d="m0 0 0.18 5e-3 -0.011-0.037-0.035-0.081-0.085-0.099-0.156-0.09z" fill="#fff"/>
    </g>
    <g transform="translate(269.3 330.85)">
     <path d="m0 0c0.164-0.027 0.312-0.086 0.447-0.182 0.133-0.094 0.252-0.219 0.343-0.363 0.096-0.146 0.169-0.313 0.211-0.49 0.043-0.175 0.063-0.361 0.053-0.559l-0.355-4.944c-0.014-0.196-0.056-0.385-0.119-0.56-0.063-0.168-0.145-0.333-0.247-0.473-0.101-0.134-0.213-0.255-0.341-0.342-0.123-0.09-0.262-0.151-0.4-0.168l-19.487-3.135c-0.291-0.066-0.591-0.056-0.889 0.024-0.295 0.07-0.591 0.216-0.863 0.425-0.278 0.208-0.534 0.482-0.746 0.796-0.221 0.313-0.398 0.677-0.515 1.074l-2.52 9.778c-0.138 0.404-0.18 0.773-0.138 1.097 0.039 0.324 0.168 0.602 0.362 0.82 0.194 0.208 0.462 0.36 0.785 0.443 0.32 0.073 0.69 0.084 1.106 0.011z" fill="#231f20"/>
    </g>
    <g transform="translate(268.94 330.54)">
     <path d="m0 0c0.155-0.027 0.304-0.085 0.429-0.172 0.129-0.088 0.238-0.203 0.333-0.338 0.088-0.134 0.155-0.287 0.198-0.45 0.043-0.165 0.06-0.348 0.053-0.522l-0.34-4.604c-0.017-0.187-0.057-0.357-0.115-0.519-0.061-0.159-0.144-0.308-0.241-0.439-0.09-0.126-0.203-0.24-0.321-0.324-0.124-0.084-0.254-0.135-0.391-0.155l-18.79-2.912c-0.284-0.062-0.57-0.053-0.856 0.011-0.286 0.078-0.567 0.213-0.832 0.408-0.262 0.186-0.506 0.438-0.716 0.732-0.211 0.299-0.381 0.635-0.491 1.007l-2.42 9.096c-0.128 0.375-0.17 0.719-0.132 1.018 0.041 0.304 0.161 0.564 0.348 0.763 0.187 0.196 0.443 0.342 0.755 0.415 0.309 0.073 0.662 0.082 1.055 0.014z" fill="#fff"/>
    </g>
    <g transform="translate(268.53 330.31)">
     <path d="m0 0c0.15-0.017 0.29-0.075 0.412-0.153 0.122-0.085 0.229-0.192 0.316-0.321 0.088-0.123 0.153-0.267 0.194-0.419 0.041-0.157 0.059-0.324 0.049-0.496l-0.325-4.308c-0.013-0.171-0.052-0.336-0.112-0.488-0.056-0.15-0.133-0.289-0.228-0.408-0.091-0.12-0.2-0.225-0.314-0.305-0.116-0.077-0.243-0.127-0.372-0.147l-18.168-2.727c-0.271-0.059-0.547-0.057-0.821 0.014-0.276 0.066-0.547 0.198-0.8 0.374-0.256 0.185-0.49 0.414-0.69 0.693-0.203 0.275-0.367 0.591-0.474 0.942l-2.323 8.521c-0.129 0.352-0.168 0.676-0.132 0.961 0.037 0.28 0.153 0.524 0.336 0.71 0.183 0.185 0.428 0.318 0.727 0.387 0.291 0.069 0.632 0.076 1.015 0.012z" fill="#8c2b99"/>
    </g>
    <g transform="translate(266.46 328.25)">
     <path d="m0 0-1.346-4.107 2.171 0.11c-0.032-0.107-0.076-0.189-0.142-0.267l-0.217-0.17-0.237-0.086-0.197-0.035-2.118-0.143-0.171 0.011-0.134 0.053-0.093 0.1-0.061 0.125-0.013 0.055-5e-3 0.059v0.06l0.014 0.091 8e-3 0.032 5e-3 0.021 9e-3 0.028 1.307 4.131z" fill="#231f20"/>
    </g>
    <g transform="translate(262.75 325.87)">
     <path d="m0 0-0.541-1.907 1.711 0.075-5e-3 -0.065-4e-3 -0.062 6e-3 -0.062 0.012-0.05-0.143-0.157-0.164-0.111-0.164-0.066-0.147-0.026-1.843-0.118-0.197 4e-3 -0.157 0.055-0.115 0.09-0.063 0.143-0.171-0.174-0.197-0.118-0.2-0.063-0.161-0.026-0.589-0.033c-0.128-0.014-0.237 0-0.325 0.024-0.093 0.03-0.163 0.071-0.222 0.13l-0.094 0.226c-0.013 0.084-7e-3 0.183 0.024 0.289l0.347 1.356 0.16 0.621 1.28 0.014-0.145-0.519-0.41-1.482 0.727 0.038 0.552 1.965z" fill="#231f20"/>
    </g>
    <g transform="translate(256.84 323.53)">
     <path d="m0 0 0.374 1.623-0.867-0.023-0.252-1.108c-0.027-0.126-0.017-0.217 0.015-0.289l0.167-0.153 0.226-0.059h0.26l0.043 8e-3h0.026l8e-3 1e-3m-2.053 0.628c-0.027 0.338 0.031 0.61 0.154 0.834 0.121 0.212 0.297 0.384 0.501 0.5 0.191 0.124 0.409 0.195 0.619 0.244 0.202 0.049 0.39 0.072 0.531 0.072l3.671 0.035-0.159-0.621-2.047-0.046 0.128-0.138 0.095-0.207 0.071-0.22 0.031-0.19c0.015-0.236-0.021-0.442-0.094-0.624-0.08-0.186-0.194-0.347-0.344-0.478-0.154-0.134-0.338-0.242-0.548-0.315-0.211-0.082-0.444-0.13-0.692-0.159h-0.027l-0.01-2e-3c-0.31-0.021-0.582-3e-3 -0.816 0.043-0.228 0.05-0.415 0.134-0.568 0.251-0.15 0.116-0.264 0.26-0.351 0.434-0.081 0.173-0.128 0.366-0.145 0.587" fill="#231f20"/>
    </g>
    <g transform="translate(253.65 331.03)">
     <path d="m0 0c0.187-0.016 0.413-0.055 0.646-0.121 0.232-0.072 0.469-0.176 0.689-0.319 0.218-0.144 0.416-0.332 0.565-0.578 0.157-0.245 0.256-0.548 0.289-0.921 0.012-0.227 2e-3 -0.438-0.047-0.624-0.047-0.18-0.121-0.334-0.215-0.467-0.099-0.129-0.21-0.226-0.334-0.292-0.13-0.072-0.264-0.104-0.402-0.102-0.144 3e-3 -0.29 0.048-0.427 0.125-0.141 0.074-0.275 0.185-0.395 0.331-0.121 0.137-0.225 0.307-0.308 0.506-0.079 0.19-0.139 0.416-0.157 0.661l-0.01 0.2 0.01 0.225 0.024 0.218 0.037 0.182-0.077 0.031-0.079 0.021-0.084 0.016-0.079 9e-3c-0.091 6e-3 -0.178-5e-3 -0.261-0.039l-0.213-0.156c-0.056-0.069-0.102-0.164-0.133-0.281-0.026-0.107-0.035-0.241-0.022-0.395 0.024-0.263 0.129-0.57 0.266-0.904 0.144-0.342 0.322-0.714 0.502-1.106 0.18-0.387 0.359-0.788 0.506-1.199 0.143-0.413 0.253-0.828 0.288-1.239 0.055-0.57-0.038-1.047-0.219-1.441-0.181-0.401-0.455-0.723-0.77-0.974-0.308-0.257-0.669-0.449-1.016-0.58-0.347-0.14-0.689-0.217-0.965-0.239-0.211-0.022-0.531-0.049-0.899-0.033-0.362 0.015-0.777 0.055-1.173 0.179-0.396 0.118-0.78 0.31-1.077 0.607-0.298 0.304-0.512 0.709-0.572 1.257-0.053 0.466-2e-3 0.83 0.121 1.111 0.119 0.281 0.313 0.486 0.555 0.635 0.234 0.139 0.518 0.229 0.811 0.279 0.296 0.048 0.6 0.064 0.894 0.065l1.633 0.035 0.328-0.741-1.245-0.038c-0.131-3e-3 -0.292-0.013-0.451-0.049-0.158-0.034-0.316-0.086-0.461-0.186-0.14-0.095-0.261-0.23-0.338-0.418-0.074-0.188-0.112-0.437-0.074-0.751 0.028-0.299 0.14-0.519 0.289-0.684 0.155-0.152 0.345-0.256 0.549-0.328 0.201-0.057 0.419-0.087 0.608-0.091 0.192-8e-3 0.362 0 0.479 9e-3 0.171 0.02 0.368 0.056 0.562 0.139 0.197 0.073 0.394 0.185 0.564 0.339 0.17 0.146 0.313 0.343 0.411 0.586 0.088 0.245 0.134 0.537 0.099 0.89-0.028 0.297-0.12 0.605-0.249 0.944-0.131 0.324-0.298 0.664-0.462 1.034-0.17 0.367-0.34 0.751-0.477 1.157-0.144 0.402-0.253 0.831-0.293 1.263-0.049 0.526 0 0.937 0.13 1.251 0.125 0.316 0.318 0.541 0.553 0.7 0.233 0.151 0.506 0.238 0.777 0.282 0.277 0.037 0.553 0.035 0.799 9e-3" fill="#231f20"/>
    </g>
    <g transform="translate(267.4 328.83)">
     <path d="m0 0-1.392-4.257 2.24 0.116c-0.024-0.113-0.077-0.203-0.141-0.273l-0.228-0.182-0.242-0.09-0.21-0.037-2.19-0.147-0.176 0.015-0.139 0.057-0.101 0.094-0.063 0.133-9e-3 0.057-8e-3 0.065v0.062l0.013 0.073 4e-3 0.02 4e-3 0.026 0.012 0.031v0.023l1.358 4.284z" fill="#fff"/>
    </g>
    <g transform="translate(263.56 326.37)">
     <path d="m0 0-0.564-1.977 1.78 0.078-0.012-0.066v-0.069l5e-3 -0.061 7e-3 -0.052-0.143-0.163-0.168-0.117-0.173-0.065-0.154-0.029-1.905-0.124-0.205 9e-3 -0.164 0.053-0.12 0.097-0.063 0.144-0.18-0.179-0.205-0.124-0.203-0.062-0.171-0.026-0.605-0.04c-0.135-0.011-0.248 0-0.344 0.024-0.093 0.029-0.167 0.079-0.222 0.145l-0.102 0.225c-0.013 0.092-3e-3 0.2 0.024 0.304l0.357 1.408 0.17 0.643 1.327 8e-3 -0.151-0.538-0.422-1.53 0.748 0.037 0.576 2.037z" fill="#fff"/>
    </g>
    <g transform="translate(257.44 323.94)">
     <path d="m0 0 0.389 1.68-0.904-0.022-0.258-1.152c-0.034-0.13-0.021-0.226 0.014-0.295l0.17-0.162 0.233-0.061h0.225l0.052 3e-3 0.039 4e-3h0.027l8e-3 5e-3m-2.127 0.646c-0.028 0.353 0.038 0.634 0.16 0.866 0.122 0.223 0.307 0.397 0.513 0.521 0.209 0.122 0.434 0.205 0.646 0.253 0.209 0.051 0.408 0.069 0.555 0.073l3.805 0.038-0.167-0.642-2.125-0.054 0.135-0.143 0.099-0.207 0.073-0.232 0.033-0.194c0.019-0.25-0.021-0.467-0.099-0.651-0.076-0.194-0.2-0.356-0.359-0.498-0.156-0.131-0.346-0.247-0.563-0.325-0.219-0.079-0.457-0.138-0.719-0.16h-0.023l-0.013-3e-3c-0.328-0.031-0.608-0.01-0.844 0.039-0.238 0.054-0.434 0.143-0.59 0.261-0.156 0.123-0.278 0.276-0.364 0.453-0.085 0.177-0.136 0.38-0.153 0.605" fill="#fff"/>
    </g>
    <g transform="translate(254.12 331.71)">
     <path d="m0 0c0.196-0.018 0.426-0.062 0.669-0.134 0.242-0.068 0.488-0.175 0.714-0.323 0.229-0.152 0.431-0.345 0.587-0.603 0.156-0.254 0.268-0.56 0.299-0.955 0.018-0.237 0-0.454-0.048-0.642-0.054-0.191-0.129-0.356-0.23-0.486-0.094-0.129-0.214-0.237-0.345-0.303-0.131-0.07-0.27-0.107-0.418-0.104-0.144 5e-3 -0.291 0.046-0.437 0.125-0.143 0.082-0.284 0.194-0.408 0.341-0.127 0.145-0.236 0.321-0.32 0.528-0.084 0.202-0.144 0.434-0.167 0.689l-8e-3 0.21 0.012 0.228 0.027 0.229 0.039 0.188-0.082 0.028-0.085 0.03-0.081 0.015-0.087 5e-3 -0.263-0.039-0.224-0.159c-0.061-0.08-0.11-0.169-0.137-0.293-0.031-0.117-0.037-0.254-0.026-0.415 0.026-0.267 0.131-0.585 0.278-0.931 0.146-0.358 0.331-0.745 0.518-1.149 0.189-0.397 0.372-0.821 0.521-1.242 0.15-0.425 0.262-0.853 0.3-1.281 0.057-0.594-0.038-1.09-0.227-1.501-0.186-0.415-0.467-0.746-0.794-1.005-0.326-0.271-0.692-0.466-1.051-0.602-0.362-0.143-0.717-0.219-1.004-0.245-0.22-0.028-0.548-0.048-0.927-0.035-0.379 9e-3 -0.809 0.061-1.218 0.183-0.412 0.123-0.805 0.321-1.115 0.635-0.311 0.313-0.535 0.732-0.593 1.301-0.056 0.48-8e-3 0.852 0.118 1.154 0.131 0.29 0.332 0.497 0.58 0.646 0.247 0.149 0.535 0.242 0.844 0.293 0.301 0.053 0.617 0.069 0.922 0.073l1.695 0.03 0.336-0.759-1.29-0.046c-0.141-1e-3 -0.298-0.014-0.461-0.052-0.173-0.033-0.338-0.086-0.483-0.185-0.144-0.104-0.27-0.24-0.349-0.437-0.08-0.199-0.113-0.456-0.08-0.778 0.035-0.309 0.147-0.541 0.303-0.707 0.158-0.171 0.356-0.277 0.568-0.342 0.209-0.067 0.431-0.092 0.629-0.102 0.199-6e-3 0.375 0.01 0.497 0.017 0.177 0.014 0.379 0.059 0.584 0.141 0.203 0.076 0.402 0.193 0.581 0.353 0.178 0.152 0.331 0.359 0.424 0.611 0.096 0.249 0.144 0.556 0.107 0.922-0.027 0.311-0.129 0.624-0.259 0.968-0.138 0.342-0.307 0.699-0.479 1.081-0.177 0.377-0.352 0.776-0.496 1.195-0.142 0.419-0.257 0.865-0.302 1.309-0.053 0.545 3e-3 0.968 0.132 1.299 0.13 0.331 0.336 0.563 0.577 0.722 0.243 0.161 0.523 0.252 0.808 0.29 0.283 0.043 0.567 0.041 0.825 0.016" fill="#fff"/>
    </g>
    <g transform="translate(269.06 330.9)">
     <path d="m 0,0 0.095,-0.108 0.099,-0.069 3.7,0.463 0.589,0.1 L 4.581,0.422 4.714,0.55 4.909,3.619 4.736,3.82 3.726,3.693 0.409,2.946 c 0,0 -0.104,-0.026 -0.137,-0.159 C 0.242,2.656 0,0 0,0" fill="#fdd95c"/>
    </g>
    <g transform="translate(273.28 319.55)">
     <path d="m0 0 0.165 3.795-0.015 0.091-0.053 0.068-0.084 0.053-0.099 0.029-0.019 2e-3h-0.061l-4.436-0.147h-0.016l-0.018-5e-3h-0.016l-0.019-8e-3 -0.093-0.031-0.08-0.057-0.056-0.07-0.025-0.081-0.346-3.554 0.011-0.1 0.061-0.085 0.092-0.055 0.121-0.026 4.615-0.087 0.141 0.017 0.116 0.061 0.081 0.086z" fill="#fdd95c"/>
    </g>
    <g transform="translate(273.54 323.95)">
     <path d="m0 0 0.12 3.39-0.016 0.089-0.052 0.071-0.08 0.053-0.105 0.031-0.02 4e-3h-0.02l-0.02 2e-3h-0.017l-4.295-0.369h-0.018l-0.015-5e-3h-0.019l-0.018-6e-3 -0.091-0.033-0.081-0.055-0.058-0.071-0.027-0.081-0.337-3.269 0.015-0.103 0.054-0.081 0.097-0.059 0.121-0.021 4.514 0.241 0.138 0.02 0.116 0.053 0.081 0.089z" fill="#fdd95c"/>
    </g>
    <g transform="translate(273.68 327.71)">
     <path d="m0 0 0.116 3.235-0.011 0.081-0.048 0.07-0.082 0.049-0.098 0.028-0.018 6e-3h-0.058l-4.112-0.35h-0.037l-0.012-2e-3 -0.014-6e-3 -0.098-0.031-0.072-0.055-0.054-0.065-0.024-0.078-0.326-3.114 0.014-0.095 0.056-0.081 0.092-0.059 0.116-0.019 4.318 0.231 0.141 0.021 0.107 0.051 0.079 0.083z" fill="#fdd95c"/>
    </g>
   </g>
  </g>
  <g transform="matrix(6.8916 0 0 -6.8916 -1876.8 2230.6)">
   <g clip-path="url(#clipPath16216)">
    <g clip-path="url(#clipPath16224)">
     <g clip-path="url(#clipPath16232)">
      <path d="m273.55 331.29h0.096v-0.014h-0.096z" fill="url(#linearGradient16252)"/>
     </g>
    </g>
   </g>
  </g>
  <g transform="matrix(6.8916 0 0 -6.8916 -1876.8 2230.6)">
   <g clip-path="url(#clipPath16262)">
    <g transform="translate(272.58 333.76)">
     <path d="m0 0h0.075l0.052-0.027 0.031-0.051v-0.067l-0.025-0.076-0.055-0.065-0.066-0.048-0.082-0.028-0.571-0.09-0.322-1.657-0.7-0.095 0.33 1.644-0.554-0.088-0.062 5e-3 -0.055 0.028-0.025 0.053v0.067l0.025 0.071 0.055 0.062 0.062 0.048 0.075 0.025z" fill="#231f20"/>
    </g>
    <g transform="translate(272.91 326.7)">
     <path d="m0 0-0.035 0.065-0.061 0.042-0.078 0.014-0.086-0.026-0.074-0.054-0.059-0.069-0.03-0.085-0.245-1.417-0.061-0.164-0.112-0.141-0.146-0.096-0.162-0.04-0.151 0.025-0.112 0.083-0.064 0.128-4e-3 0.164 0.286 1.541-0.747-0.059-0.289-1.518-0.061-0.165-0.111-0.139-0.141-0.097-0.157-0.037-0.141 0.024-0.106 0.082-0.058 0.129v0.157l0.216 1.08v0.189l-0.07 0.157-0.13 0.092-0.174 0.032-0.19-0.057-0.168-0.114-0.132-0.166-0.077-0.196 0.022 0.054 0.038 0.049 0.05 0.032 0.054 0.018h0.027l0.04-0.018 0.017-0.017-0.215-1.035c-0.028-0.141-0.029-0.274-4e-3 -0.391 0.02-0.116 0.066-0.22 0.128-0.308 0.068-0.09 0.152-0.161 0.256-0.207 0.108-0.041 0.228-0.069 0.359-0.068l0.226 0.041 0.226 0.089 0.201 0.136 0.186 0.17 0.121-0.159 0.162-0.116 0.196-0.076 0.228-0.021c0.139 0.01 0.274 0.041 0.409 0.099 0.128 0.062 0.251 0.148 0.358 0.24 0.11 0.103 0.205 0.22 0.278 0.35 0.07 0.127 0.123 0.268 0.151 0.415l0.216 1.28v0.079" fill="#231f20"/>
    </g>
   </g>
  </g>
  <g transform="matrix(6.8916 0 0 -6.8916 -1876.8 2230.6)">
   <path d="m273.53 331.24h-0.037l-0.019-3e-3 -4.109-0.527-0.017-1e-3h-0.017l-0.013-9e-3 -0.02-1e-3h0.05l0.017 1e-3 4.109 0.522 0.019 5e-3 0.016 3e-3 0.016 7e-3 0.022 3e-3z" fill="url(#linearGradient16290)"/>
  </g>
  <g transform="matrix(6.8916 0 0 -6.8916 -1876.8 2230.6)">
   <g clip-path="url(#clipPath16300)">
    <g transform="translate(271.64 329.28)">
     <path d="m0 0c0.018 0.098 0.024 0.192 0.018 0.278l-0.049 0.219-0.105 0.137-0.153 0.04-0.182-0.08-0.166-0.165-0.134-0.24c-0.041-0.086-0.067-0.18-0.09-0.282-0.017-0.098-0.023-0.193-0.017-0.277l0.044-0.219 0.11-0.142 0.153-0.041 0.177 0.074 0.169 0.169 0.14 0.243c0.035 0.088 0.068 0.188 0.085 0.286m-0.214 1.095c0.17 0.021 0.318 8e-3 0.449-0.033 0.135-0.04 0.251-0.108 0.342-0.2 0.096-0.088 0.162-0.201 0.201-0.333 0.038-0.131 0.044-0.281 0.011-0.442-0.027-0.166-0.089-0.325-0.181-0.473-0.085-0.146-0.2-0.284-0.332-0.398-0.13-0.121-0.279-0.216-0.438-0.289-0.157-0.073-0.327-0.125-0.493-0.137-0.167-0.017-0.32 0-0.45 0.049-0.133 0.045-0.243 0.116-0.325 0.215-0.091 0.092-0.149 0.212-0.183 0.34-0.031 0.131-0.031 0.277 0 0.431 0.029 0.158 0.095 0.315 0.183 0.453 0.084 0.141 0.192 0.271 0.319 0.387 0.127 0.117 0.267 0.211 0.422 0.286 0.152 0.071 0.311 0.123 0.475 0.144" fill="#231f20"/>
    </g>
   </g>
  </g>
  <g transform="matrix(6.8916 0 0 -6.8916 -1876.8 2230.6)">
   <path d="m273.36 327.57h-0.058l-4.26-0.356h-0.019l-0.019-6e-3 -0.016-4e-3h-0.014 0.068l4.26 0.353h0.023l0.019 4e-3 0.016 8e-3 0.022 1e-3z" fill="url(#linearGradient16324)"/>
  </g>
  <g transform="matrix(6.8916 0 0 -6.8916 -1876.8 2230.6)">
   <path d="m273.15 323.58h-0.041l-4.436-0.147h-0.016l-0.018-5e-3h-0.016l-0.019-8e-3 0.019-1e-3h0.05l4.436 0.149h0.018l0.021 5e-3 0.02 3e-3 0.021 2e-3 -0.021 2e-3z" fill="url(#linearGradient16346)"/>
  </g>
  <g transform="matrix(6.8916 0 0 -6.8916 -1876.8 2230.6)">
   <g clip-path="url(#clipPath16356)">
    <g transform="translate(271.78 322.71)">
     <path d="m0 0 0.081-0.014 0.062-0.046 0.035-0.079 2e-3 -0.086-0.422-2.428-0.649 4e-3 -0.866 1.507-0.255-1.341-0.039-0.089-0.058-0.077-0.076-0.046-0.08-0.023-0.077 0.025-0.056 0.046-0.034 0.077 2e-3 0.091 0.458 2.353 0.612 0.01 0.875-1.456 0.231 1.34 0.037 0.086 0.054 0.073 0.08 0.05z" fill="#231f20"/>
    </g>
    <g transform="translate(269.43 333.69)">
     <path d="m0 0 0.02 0.058 0.033 0.054s1.835 0.351 3.105 0.574l0.868 0.148c0.115 0.02 0.201 0.028 0.268 0.035l0.015 0.046v-0.046h5e-3l0.079-0.021 0.046-0.036 0.012-0.047-0.127-2.929-0.017-0.056-0.04-0.053-0.034-0.032c-0.859-0.106-3.715-0.459-4.435-0.583l-0.042 0.024-0.024 0.034-5e-3 0.039zm4.162-5.815-0.017-0.063-0.044-0.061-0.045-0.036c-1.152-0.091-3.909-0.307-4.585-0.394l-0.048 0.029-0.03 0.046-6e-3 0.049 0.293 3.016 0.016 0.048 0.043 0.057 0.088 0.059c0.532 0.073 2.88 0.387 3.841 0.51l0.252 0.033 0.15 0.019 0.015 0.043v-0.043l0.069-6e-3 0.011 0.046 0.031-0.053 0.062-0.034 0.035-0.034 7e-3 -0.05zm-5.194-4.703 0.018 0.068 0.05 0.06 0.067 0.048 0.083 0.031 4.497 0.155v0.047l0.02-0.047 0.052-3e-3 0.087-0.02 0.07-0.049 0.044-0.051 0.012-0.069-0.165-3.793-0.03-0.089-0.063-0.073-0.087-0.041c-0.029-9e-3 -0.147-0.017-0.559-0.017l-4.202 0.079-0.105 0.02-0.076 0.046-0.049 0.066-8e-3 0.086zm0.367 3.79 0.024 0.062 0.044 0.053 0.067 0.052-0.023 0.039 0.058-0.025c0.826 0.071 4.198 0.371 4.378 0.38l0.014 0.046v-0.046l0.094-0.013 0.048-0.015 0.054-0.029 0.04-0.047 0.01-0.054-0.152-3.47-0.017-0.065-0.047-0.065-0.03-0.023c-1.193-0.042-4.047-0.132-4.789-0.193l-0.048 0.037-0.034 0.053-4e-3 0.06zm5.133 4.567 0.128 2.906c0.382 0.22 0.415 0.319 0.398 0.386-0.021 0.079-0.126 0.114-0.338 0.114-0.856 0-3.345-0.568-4.754-0.909-0.107-0.026-0.173-0.052-0.17-0.112 2e-3 -0.038 0.036-0.07 0.174-0.1l-4e-3 -4e-3 -0.043-0.118-0.273-2.784 7e-3 -0.085 0.024-0.047-0.033-0.014-0.054-0.089 0.081-0.055-0.044-0.074-0.025-0.082-0.295-3.011 8e-3 -0.091 0.026-0.062-0.01-7e-3 -0.065-0.085 0.075-0.058-0.01-5e-3 -0.041-0.077-0.031-0.098-0.319-3.26 4e-3 -0.102 0.031-0.064-0.028-0.011-0.068-0.08c2e-3 -0.015 7e-3 -0.048 0.105-0.065l-0.022-0.024-0.049-0.084-0.027-0.092-0.347-3.553 0.017-0.144 0.052-0.085c-0.427-0.052-0.426-0.1-0.426-0.142 0-0.05 0.04-0.082 0.395-0.103 1.054-0.074 3.025-0.195 4.382-0.195 1.494 0 1.519 0.15 1.531 0.218 0.011 0.076-0.041 0.168-0.485 0.32l5e-3 0.038 0.164 3.797-0.013 0.103-5e-3 6e-3c0.213 0.062 0.303 0.123 0.306 0.197l-0.104 0.112-0.205-8e-3 0.02 0.046 0.028 0.102 0.148 3.47-0.012 0.064c0.186 0.072 0.272 0.136 0.272 0.205l-0.11 0.108-0.176-0.012 0.024 0.05 0.022 0.096 0.14 3.181-5e-3 0.046c0.185 0.082 0.271 0.149 0.267 0.224l-0.115 0.102-0.164-0.021 0.012 0.031 0.024 0.09" fill="#3f123b"/>
    </g>
   </g>
  </g>
 </g>
</svg>
