<svg width="800" height="265.51" version="1.1" viewBox="0 0 211.67 70.251" xmlns="http://www.w3.org/2000/svg">
 <g transform="translate(197.25 37.854)">
  <g transform="matrix(5.6975 0 0 -5.6975 -70.013 -27.518)">
   <path d="m0 0-0.039 0.01h-4e-3 0.023l0.02-0.01m0.594-0.174-0.051 0.022-8e-3 4e-3c-0.125 0.052-0.287 0.093-0.465 0.136l0.012 0.067-0.191-0.039-0.147 0.025h-0.023l-0.145 0.014h-2e-3l-0.146 9e-3 -0.033 4e-3h-0.151c-1.24 0-2.443-0.718-2.443-2.129l6e-3 -0.142 4e-3 -0.033 0.011-0.106 0.01-0.035 0.023-0.103 8e-3 -0.03 0.033-0.099 0.01-0.024 0.047-0.105 0.01-0.014 0.06-0.105 8e-3 -8e-3 0.08-0.108 4e-3 -4e-3 0.102-0.109c-0.162 0.084-0.313 0.412-0.401 0.428 0.221-0.418 0.756-0.797 1.198-0.942l0.154-0.062 0.168-0.066c0.396-0.153 0.539-0.393 0.539-0.667l-0.01-0.113-6e-3 -0.043-0.011-0.064-0.014-0.053-0.016-0.057-0.025-0.048-0.016-0.047-0.033-0.053-0.021-0.035-0.043-0.065-0.018-0.017-0.059-0.063-0.015-0.015-0.067-0.059-0.015-0.01-0.078-0.058-0.01-8e-3 -0.092-0.053h-6e-3l-0.105-0.051c-0.182-0.074-0.399-0.115-0.629-0.121l-0.094 0.045 8e-3 -0.045c-0.141 0-0.272 0.01-0.395 0.02h-2e-3l4e-3 6e-3c-0.123 6e-3 -0.224 0.025-0.306 0.074l-0.102-0.012-0.168 0.049v0.014l4e-3 0.013 0.041 0.137c0.246-8e-3 0.545-0.031 0.674 6e-3 -0.15-0.014-0.297 8e-3 -0.447 0.025 0.033 0.037-0.256 0.16-0.03 0.149l-0.056 0.021v4e-3c-0.174 0.07-0.362 0.143-0.543 0.238l-0.022 0.01h-4e-3l-3e-3 6e-3c-1.245-0.693-0.342-0.193-0.625-0.348l7e-3 -0.015v-0.045l8e-3 -0.104 0.014-0.197c0.01-0.125 0.023-0.252 0.035-0.367l0.062 0.135c0.034-0.239-0.035-0.211-0.074-0.26 0.037-0.178 0.133-0.158 0.198-0.268l-0.012-0.068c0.197-0.307 0.055-0.09 0.101-0.154l6e-3 -6e-3 6e-3 -2e-3 0.014-0.012 0.025-0.016 0.096-0.052 0.154-0.082c0.094-0.047 0.188-0.08 0.34-0.184v0.1c0.219-0.115 0.275 0.017 0.518-0.063l-0.166-0.047c0.228 0 0.201-0.095 0.427-0.07l-0.183-0.1c0.177-5e-3 0.441 0.026 0.353-0.062 0.309 0.103 0.875 0.131 1.237 0.33v-0.088c0.169 0.147 0.722 0.318 0.794 0.539h0.049c0.09 0.11 0.166 0.233 0.235 0.354 0.129 0.133 0.181 9e-3 0.164 0.037 0.256 0.346 0.381 0.656 0.486 0.916-0.08 0.096-0.031 0.527-0.098 0.859-0.027 0.408-0.259 0.846-0.597 1.096-0.336 0.26-0.705 0.412-1.073 0.539-0.798 0.103-0.568 1.146 0.125 1.342l0.2 0.076 0.103 0.01 0.102 6e-3c0.556 0 0.984-0.082 1.261-0.235l0.219 0.967-0.053 0.027-9e-3 6e-3m-2.106-4.793c-0.125-0.16-0.32-0.265-0.531-0.33l0.045-4e-3c0.191 0.076 0.371 0.182 0.486 0.334m-1.681-1.767 0.045 0.011h-0.041zm3.861 6.656-0.086 0.066-0.158-0.066c0.09-0.053 0.201-0.012 0.263-0.164l0.045-0.018 0.026 0.028c-0.112 0.244-0.053 0.086-0.09 0.154m-0.199-5.182c-0.051-0.123-0.074-0.193-0.086-0.269 0.142 0.127 0.076 0.168 0.086 0.269m-3.871-1.623 0.343-0.01-0.046 0.016c-0.088-0.027-0.206 6e-3 -0.297-6e-3m3.539 0.926c-0.137-0.191 0.039-0.076 0.031-0.16-6e-3 0.207 0.199 0.228-0.031 0.16m-3.473 3.436-0.057-0.088c0.053-0.123 0.135-0.243 0.215-0.346-0.015 0.17-0.123 0.213-0.158 0.434m0.264-4.276-0.121 0.063c-0.075-0.01-0.094-0.026 0.121-0.063" fill="#4abc39"/>
  </g>
  <g transform="matrix(5.6975 0 0 -5.6975 -49.982 -8.1662)">
   <path d="m0 0 0.012-0.107-0.012 0.107m1.756 2.277 0.072 0.112-0.15 7e-3 0.078-0.119m-1.744-2.57 0.119-0.055c-0.129 0.071 0.027 0.102-0.119 0.055m1.181-1.32 0.028 4e-3c0.08 0.08 0.168 0.154 0.236 0.25-0.08-0.096-0.172-0.17-0.264-0.254m1.186 1.631 0.092 0.181-0.084-2e-3zm1.801 1.984c-0.014-0.197 0.066-0.277 0.076-0.535l0.068 0.086c-0.031 0.156-0.086 0.304-0.144 0.449m-1.362-1.047-4e-3 -0.049-9e-3 -0.121-8e-3 -0.058-0.018-0.116-0.011-0.056-0.024-0.114-0.01-0.046-0.031-0.122-0.01-0.043-0.039-0.121-0.015-0.037-0.047-0.131-0.01-0.023-0.064-0.152c2e-3 0.093 0.099 0.269 0.021 0.322 0.014-0.244-0.172-0.525-0.266-0.76v-2e-3l-0.117-0.164-0.013-0.021c-0.088-0.11-0.172-0.215-0.268-0.313l-0.014-0.01c-0.093-0.099-0.195-0.193-0.3-0.277h-4e-3c-0.162-0.129-0.332-0.236-0.506-0.33l-0.063 0.019 0.024-0.041-0.194-0.084-2e-3 6e-3 -0.166-0.033-0.041-0.047-0.099-0.027-0.035 0.166c0.103 0.1 0.244 0.166 0.291 0.228l-0.205-0.115c-8e-3 0.059-0.176 0.047-0.079 0.135-0.224-0.02-0.435-0.104-0.685-0.123l0.064-0.068c-0.125-0.028-0.105 0.041-0.127 0.078l-0.148-0.186-0.027 0.022-4e-3 0.037-0.014-0.022 6e-3 -0.01-0.045 0.024-0.047 0.105 0.018 0.086 0.088-0.103 0.082 0.16c-0.077 0.17 9e-3 0.428-0.014 0.633l0.076-0.026c-0.08 0.116 0.068 0.36-0.029 0.465l0.035 0.01-0.072 0.213c0.025 0.092 0.138 0.035 0.107 0.047 0.018 0.181 0.045 0.328 0.123 0.427-0.099 0.059-0.06 0.254-0.015 0.409 0.351 0.662 0.777 1.377 1.435 1.734l0.102 0.066 0.138 0.028h8e-3l0.141 4e-3 0.105-4e-3h0.039l0.065-6e-3 0.133-0.029-0.018-0.075 0.113 0.041 0.074-0.031 0.016-4e-3 0.068-0.039h4e-3l0.186-0.136 0.021-0.022 0.045-0.047 0.02-0.027 0.049-0.069 0.039-0.054 0.021-0.045 0.03-0.051 0.015-0.051 0.026-0.058 0.015-0.043 0.029-0.11 8e-3 -0.027 0.018-0.094 6e-3 -0.043 9e-3 -0.094 4e-3 -0.039 6e-3 -0.138-6e-3 -0.178m-2.007-3.947h-0.016l0.016 4e-3h0.013l-0.013-4e-3m-1.407 1.215 0.045 0.047 0.045-0.098-0.09 0.051m0.276 5.111 2e-3 0.152 0.123 0.024h6e-3c0.384-0.434 0.105-0.119 0.189-0.219v-0.01l2e-3 -0.015 4e-3 -0.034v-0.502l-0.104-0.132 0.049 0.033 0.055 0.074v-0.107l-0.131-0.174-0.049-0.078-0.039-0.065-0.084-0.148v-4e-3l0.022 0.088-0.045-2e-3 0.045 0.383 5e-3 0.054 0.043-6e-3h0.038l-0.069 0.077c0.014 0.142 0.024 0.263 0.069 0.369l-0.014 0.125 0.014 0.101h-0.075l-6e-3 4e-3 -3e-3 -4e-3h-0.055l8e-3 0.016m2.375-0.957 0.031-0.012-0.023-4e-3 -0.018 0.02 0.01-4e-3m0.886 0.871c-0.132 0.07-0.275 0.127-0.418 0.162l-0.013 2e-3 -0.09 0.022-0.025 5e-3 -0.077 0.012-0.033 4e-3 -0.074 6e-3 -0.029 4e-3h-0.274l-0.058-4e-3 -0.112-0.01-0.06-6e-3 -0.106-7e-3 -0.064-0.01-0.102-0.018-0.056-0.014-0.151-0.033-0.064-0.021-0.084-0.024-0.072-0.027-0.073-0.025-0.074-0.034-0.066-0.031-0.075-0.037-0.058-0.031-0.151-0.094-0.043-0.033-0.076-0.059-0.045-0.035-0.076-0.064-0.045-0.043-0.07-0.073-0.043-0.043-0.068-0.082 7e-3 0.123c0.141 0.196 0.317 0.366 0.522 0.506-0.205-0.125-0.375-0.295-0.522-0.478l0.018 0.371 0.096 0.144v2e-3c-0.657 0.745-0.182 0.211-0.326 0.371h-6e-3l-0.01 6e-3 -0.02 8e-3 -0.015 0.018 0.033 0.019 0.016 6e-3h2e-3l-0.02 0.018-0.025 4e-3 -0.121 3e-3 -0.243 8e-3c-0.166 0-0.332-8e-3 -0.5-0.011l-0.125-4e-3h-4e-3c0.086 0.068-0.752-0.631-0.396-0.334v-0.012l-4e-3 -0.016-2e-3 -0.031-8e-3 -0.058-0.029-0.245c-0.016-0.162-0.031-0.318-0.047-0.462l0.094 0.16c-0.024-0.303-0.082-0.262-0.133-0.315-2e-3 -0.226 0.094-0.217 0.139-0.369-0.158-0.439-0.121-0.512-0.299-0.879l0.092 6e-3c-0.121-0.26 9e-3 -0.322-0.098-0.611-0.019-0.012-0.023 0.103-0.031 0.201-0.016-0.272-0.119-0.229-0.127-0.49l-0.069 0.218c-0.031-0.205-0.052-0.506-0.119-0.384 0.041-0.377-0.111-0.995-0.131-1.446l-0.072 0.039c0.057-0.244-0.156-0.841-0.076-1.058l-0.037-0.028 0.027-0.478c-0.047-0.207-0.156-0.117-0.129-0.139-0.056-0.459-0.109-0.814-0.207-1.099 0.098-0.094 0.039-0.577-0.013-0.957l-0.141-0.692-0.033-0.176-0.016-0.084-0.01-0.044-5e-3 -0.036v-4e-3c-0.188 0.221 0.252-0.302 0.207-0.25h0.361l0.715 0.012 0.178 6e-3c0.089 0.072-0.19-0.166 0.199 0.158v4e-3l2e-3 6e-3 4e-3 0.037 5e-3 0.041 0.016 0.086 0.053 0.355c0.129 0.909 0.265 1.936 0.324 2.659l0.24-0.047 0.024-6e-3 0.07-0.012 0.033-8e-3 0.098-0.013 0.031-2e-3 0.096-0.014 0.027-4e-3h0.129l0.031-4e-3 0.157-2e-3 0.201 6e-3h0.023l0.178 0.018h8e-3c0.133 0.015 0.263 0.035 0.392 0.06l0.02-0.062 0.201 0.115c0.209 0.053 0.414 0.129 0.613 0.219h8e-3l0.141 0.06 0.017 0.012 0.133 0.065 0.016 9e-3c0.181 0.096 0.361 0.211 0.529 0.334l0.033 0.026 0.104 0.078 0.039 0.033 0.096 0.08 0.043 0.035 0.093 0.084 0.024 0.024 0.175 0.181 0.043 0.045 0.069 0.076 0.054 0.067 0.061 0.078 0.059 0.068 0.054 0.08 0.057 0.079 0.049 0.076 0.068 0.111 0.053 0.09 0.066 0.121 0.035 0.07 0.051 0.104 0.035 0.078 0.045 0.105 0.03 0.077 0.043 0.117 0.021 0.068 0.057 0.178 6e-3 0.021 0.043 0.186 0.013 0.068 0.028 0.133 0.011 0.08 0.018 0.131 0.01 0.08 9e-3 0.139 8e-3 0.068 4e-3 0.219-4e-3 0.164-4e-3 0.047-8e-3 0.109-5e-3 0.049-0.016 0.113-6e-3 0.039-0.027 0.147-0.035 0.14-0.012 0.036-0.031 0.099-0.014 0.033-0.039 0.11-8e-3 0.021-0.055 0.127c0.135-0.164 0.225-0.619 0.311-0.654-0.127 0.562-0.637 1.363-1.186 1.578m-5.037-2.205-0.027-0.379 0.021 0.049c-0.021 0.103 0.018 0.232 6e-3 0.33m2.207-4.277 0.147 0.123-0.365-0.022c-0.151-0.025 0.045-0.074 0.218-0.101m-3.107-0.485c0.023 0.133 0.016 0.205 8e-3 0.279-0.09-0.158-0.022-0.179-8e-3 -0.279m3.187 6.989h4e-3v-0.02l2e-3 -0.049 0.012 0.053 4e-3 0.012v4e-3c-0.18 0.197 0.398-0.456-0.402 0.451h-0.02c0.141-0.158 0.453-0.508 0.4-0.451m-3.138-6.227c0.019 0.228-0.071 0.043-0.106 0.117 0.112-0.17-0.054-0.283 0.106-0.117m2.738 6.678c-0.074 0.088-0.1 0.115 0 0m-1.816-3.053 0.072 0.142c-8e-3 0.083-0.02 0.104-0.072-0.142m0.072 0.142 4e-3 -0.054 6e-3 0.047-0.01 7e-3" fill="#4abc39"/>
  </g>
  <g transform="matrix(5.6975 0 0 -5.6975 -10.111 -9.0339)">
   <path d="m0 0 0.102-0.08c-0.11 0.102 0.041 0.088-0.102 0.08m0.043 0.273-0.01-0.105 0.01 0.105m-0.584-1.58-0.016 0.02 8e-3 -0.02zm0.045 0.059-0.045-0.059 0.045 0.059m2.803 3.281 0.068 0.117h-0.152l0.084-0.117m-1.469-3.947 0.027 4e-3 0.225 0.24c-0.078-0.09-0.16-0.172-0.252-0.244m1.109 1.605 0.094 0.18h-0.086zm-2.361-0.941 0.062-0.09-0.052 0.112zm-1.955-1.527c0.193-0.043 0.166-0.227 0.156-6e-3 -0.139 0.17-0.084-0.02-0.156 6e-3m0.707-0.473-0.219 0.141c0.076-0.158 0.135-0.104 0.219-0.141m3.047 6.504c-0.211-0.064-0.41-0.143-0.606-0.232l0.043 5e-3c0.182 0.086 0.369 0.163 0.563 0.227m1.795-5.76c0.011-0.107 0.078 0.02 0.136 0.137l-0.095 0.125zm-5.403 3.092c-0.025-0.102-0.056-0.195-0.064-0.297l0.023 0.037 0.041 0.26m4.223-3.559m1.941 6.094v6e-3zm-0.681-4.973 8e-3 0.043 2e-3 -0.023-0.01-0.02m-0.865 2.264c-0.071-0.351-0.176-0.678-0.307-0.963l0.021 0.311c0.01-0.237-0.164-0.51-0.246-0.744-0.332-0.533-0.756-0.911-1.166-1.1l-0.06 0.021 0.017-0.037-0.189-0.07v6e-3l-0.166-0.01-0.047-0.035-0.098-2e-3 2e-3 0.17c0.11 0.068 0.235 0.113 0.279 0.172l-0.187-0.082-0.041 0.142c-0.174 0.039-0.363 0.018-0.486 0.075l-0.012-0.075-0.01 0.106-0.215-0.043c-4e-3 0.17-0.06 0.17 0.024 0.328l-0.09-0.027c0.051 0.107-0.092 0.097-0.043 0.222l0.068-0.064c-0.037 0.092 0.075 0.092 0.034 0.182l0.105-0.071 0.053 0.141c-0.11 0.135-0.039 0.363-0.067 0.541l0.077-0.027c-0.075 0.107 0.072 0.304-4e-3 0.408l0.035 2e-3 -0.041 0.205 0.111 0.019c0.053 0.166 0.111 0.289 0.209 0.367-0.084 0.079 0 0.247 0.082 0.379 0.496 0.532 1.106 1.032 1.803 1.26l0.103 0.049c0.094 8e-3 0.188 0.014 0.28 0.014 0.127 0 0.244-6e-3 0.336-0.012l-2e-3 -0.072 0.091 0.064 0.061-0.012zm0.24 1.75-0.028-6e-3 -0.011 0.012 0.039-6e-3m1.488 0.977-0.111 9e-3 -0.223 0.026-0.131 8e-3c-0.09 0.127-0.125 0.179 0 0-0.138 8e-3 -0.275 0.013-0.398 8e-3 -0.276 0.017-0.584 0.027-0.926 0.027-0.631 0-1.272-0.141-1.865-0.412l-0.094 6e-3 0.027-0.036c-0.109-0.052-0.215-0.107-0.318-0.167v1e-3c-0.102-0.048-0.168-0.117-0.258-0.13l-0.056-0.069-0.145-0.101-0.094 0.14c0.154 0.194 0.41 0.379 0.516 0.473-0.135-0.084-0.262-0.178-0.387-0.279 0 0.058-0.32-0.106-0.137 0.078-0.431-0.233-0.82-0.701-1.056-1.094l0.133 0.066c-0.123-0.197-0.151-0.146-0.215-0.166-0.069-0.166 0.023-0.197 0.023-0.324-0.236-0.266-0.228-0.328-0.443-0.564l0.092-0.022c-0.143-0.17-0.039-0.242-0.145-0.443l-0.027 0.158c-0.022-0.207-0.123-0.158-0.143-0.365l-0.058 0.183c-0.043-0.162-0.061-0.404-0.131-0.302 0.047-0.303-0.047-0.789 0.025-1.155l-0.082 0.026c0.082-0.186 0.086-0.731 0.281-0.852l-0.023-0.041c0.084-0.105 0.17-0.211 0.267-0.297 0.084-0.148-0.041-0.168-3e-3 -0.162 0.246-0.306 0.496-0.486 0.691-0.648 0.109 0.054 0.473-0.094 0.781-0.123 0.721-0.143 1.533 0.025 2.096 0.545 0.178 0.15 0.312 0.328 0.428 0.521v-0.021l-0.014-0.483v-0.131l0.012-0.078-8e-3 -0.049h0.109l0.014-0.013 2e-3 0.013h0.912l0.207 1.186 0.068-0.012-0.039 0.18 0.77 4.371h2e-3l0.049 0.277 0.025 0.143c0.031-0.135-0.064-0.414 0.02-0.451-6e-3 0.121 3e-3 0.26 0.019 0.402-0.019 0.049 0.061 0.035-0.039 0.143m0.096-0.709 0.086 0.041v0.312c-0.084-0.109-0.041-0.189-0.086-0.353m-6.412-2.147 0.082 0.092c4e-3 0.068-0.02 0.09-0.082-0.092m0.082 0.092-4e-3 -0.043 0.01 0.037z" fill="#4abc39"/>
  </g>
  <g transform="matrix(5.6975 0 0 -5.6975 -149.76 -32.002)">
   <path d="m0 0c0.197 0 0.352 0.228 0.352 0.514 0 0.287-0.155 0.513-0.352 0.513-0.199 0-0.351-0.226-0.351-0.513 0-0.286 0.152-0.514 0.351-0.514m-6.185-4.789c0.078-0.063 0.232-0.057 0.367 0.08 0.742 0.781 2.509 1.369 4.535 1.553l-0.029-0.184 0.031-0.275c-0.959-0.164-1.824-0.518-2.119-1.082l-0.059-0.135c-0.037-0.125 0.014-0.203 0.078-0.234 0.088-0.045 0.229-0.022 0.322 0.113 0.28 0.4 1.084 0.721 2.049 0.869 0.258-0.258 0.633-0.41 1.032-0.41 0.404 0 0.775 0.152 1.019 0.41 0.963-0.137 1.752-0.461 2.01-0.861 0.088-0.135 0.234-0.166 0.322-0.127 0.065 0.029 0.121 0.099 0.09 0.22l-0.053 0.141c-0.267 0.582-1.15 0.941-2.121 1.104 0.022 0.087 0.027 0.179 0.02 0.271l-0.037 0.186c2.052-0.17 3.828-0.76 4.539-1.547 0.132-0.145 0.291-0.158 0.369-0.102 0.06 0.043 0.095 0.139 0.019 0.268l-0.115 0.172c-0.81 1.076-3.033 1.642-5.074 1.781-0.293 0.617-0.883 1.851-0.883 1.851l-0.131 0.098-0.127-0.099c0 1e-3 -0.609-1.264-0.896-1.856-2.012-0.152-4.196-0.715-5.045-1.758l-0.125-0.174c-0.082-0.129-0.049-0.23 0.012-0.273m7.771-0.939c0.127 0.142 0.176 0.304 0.154 0.474l-0.027 0.111c-0.047 0.139-0.17 0.196-0.262 0.182-0.101-0.012-0.17-0.086-0.179-0.191-0.022-0.209-0.471-0.496-1.262-0.496-0.795 0-1.26 0.287-1.291 0.496-0.018 0.111-0.092 0.185-0.197 0.191-0.092 8e-3 -0.206-0.049-0.248-0.182l-0.018-0.111c-0.016-0.17 0.045-0.332 0.174-0.474 0.291-0.313 0.914-0.514 1.592-0.514 0.681 0 1.29 0.201 1.564 0.514m6.43-0.084c-0.051 0.093-0.106 0.183-0.166 0.275-0.104 0.158-0.28 0.219-0.377 0.168-0.028-0.01-0.108-0.071-0.055-0.211 0.219-0.594 0.123-1.219-0.285-1.803-0.815-1.168-3.094-2.422-7.059-2.422-3.992 0-6.34 1.27-7.207 2.452-0.422 0.572-0.547 1.185-0.361 1.777 0.035 0.115-0.012 0.183-0.07 0.211-0.098 0.043-0.27-0.014-0.368-0.178l-0.146-0.269c-0.395-0.842-0.336-1.711 0.176-2.514 1.142-1.807 4.291-2.977 8.017-2.977 3.68 0 6.758 1.149 7.83 2.932 0.498 0.816 0.518 1.701 0.071 2.559m-12.893 0.902c-0.107 0.031-0.254-0.027-0.324-0.178l-0.066-0.185c-0.151-0.475-0.059-0.957 0.265-1.397 0.781-1.062 2.774-1.746 5.072-1.746 2.28 0 4.229 0.68 4.965 1.73 0.313 0.444 0.383 0.932 0.207 1.42l-0.08 0.178c-0.074 0.156-0.232 0.209-0.338 0.174-0.064-0.022-0.123-0.09-0.103-0.201 0.062-0.315-0.031-0.635-0.285-0.936-0.549-0.674-1.993-1.392-4.393-1.392-2.406 0-3.889 0.724-4.475 1.4-0.259 0.297-0.373 0.621-0.326 0.932 0.016 0.095-0.031 0.174-0.119 0.201" fill="#0d99a9"/>
  </g>
 </g>
</svg>
