<svg width="800" height="332.73" version="1.1" viewBox="0 0 211.67 88.036" xmlns="http://www.w3.org/2000/svg">
 <g transform="translate(171.24 13.575)">
  <g fill="#9fc2e5">
   <g transform="matrix(6.3971 0 0 -6.3971 -89.467 10.828)">
    <path d="m0 0c0.075 0 0.192 4e-3 0.357 0.012 0.128 8e-3 0.194 0.075 0.194 0.194l-0.06 0.14-0.143 0.062h-0.345c-0.268-2e-3 -0.497 0.085-0.689 0.279-0.193 0.183-0.287 0.409-0.287 0.682v0.945h1.3l0.14 0.059 0.06 0.146c0 0.127-0.06 0.196-0.179 0.196h-1.321v0.469l-0.065 0.139-0.14 0.065-0.138-0.06-0.061-0.132v-1.864c0-0.376 0.138-0.689 0.407-0.948 0.266-0.256 0.593-0.384 0.97-0.384" fill="#9fc2e5"/>
   </g>
   <g transform="matrix(6.3971 0 0 -6.3971 -82.754 10.619)">
    <path d="m0 0c0.136 0 0.201 0.062 0.201 0.186l0.01 1.18c0 0.267 0.097 0.493 0.284 0.683 0.188 0.19 0.415 0.286 0.684 0.286 0.265 0 0.493-0.096 0.679-0.286 0.188-0.19 0.284-0.416 0.284-0.683v-1.152l0.057-0.146 0.141-0.068 0.143 0.064 0.055 0.146v1.156c0 0.376-0.138 0.698-0.402 0.966-0.268 0.265-0.588 0.4-0.961 0.4-0.369 0-0.692-0.149-0.971-0.436v1.282l-0.061 0.143-0.139 0.061-0.142-0.059-0.058-0.127v-3.394l0.057-0.14 0.139-0.062" fill="#9fc2e5"/>
   </g>
   <g transform="matrix(6.3971 0 0 -6.3971 -60.567 -2.9057)">
    <path d="m0 0c0.178 0.146 0.385 0.22 0.616 0.22 0.225 0 0.424-0.074 0.587-0.226 0.156-0.148 0.254-0.332 0.3-0.56h-1.842c0.047 0.228 0.157 0.416 0.339 0.566m0.612-2.126c0.159 0 0.281 4e-3 0.35 0.012 0.128 8e-3 0.192 0.075 0.192 0.194 0 0.131-0.066 0.194-0.202 0.2h-0.34c-0.231 0-0.432 0.066-0.607 0.212-0.177 0.136-0.291 0.317-0.335 0.537h2.293v0.401c-3e-3 0.085-0.034 0.19-0.094 0.335-0.104 0.253-0.273 0.461-0.503 0.615-0.229 0.149-0.48 0.227-0.754 0.227-0.378 0-0.702-0.134-0.967-0.399-0.269-0.273-0.402-0.592-0.402-0.964 0-0.376 0.133-0.701 0.402-0.97 0.265-0.267 0.589-0.4 0.967-0.4" fill="#9fc2e5"/>
   </g>
   <g transform="matrix(6.3971 0 0 -6.3971 -147.61 67.541)">
    <path d="m0 0c-0.729 0-1.347 0.254-1.854 0.766-0.507 0.516-0.759 1.14-0.759 1.874 0 0.723 0.252 1.346 0.759 1.854 0.507 0.51 1.125 0.774 1.854 0.774 0.718 0 1.327-0.264 1.835-0.774 0.509-0.508 0.762-1.131 0.762-1.854 0-0.734-0.253-1.358-0.762-1.874-0.508-0.512-1.117-0.766-1.835-0.766m3.679 2.629c0 1.023-0.363 1.891-1.082 2.606-0.723 0.722-1.587 1.084-2.597 1.084-0.995 0-1.865-0.395-2.613-1.173v3.455c0 0.141-0.056 0.267-0.169 0.376-0.107 0.11-0.234 0.17-0.378 0.17-0.146 0-0.27-0.051-0.376-0.148s-0.159-0.217-0.159-0.358v-6.012c0-1.016 0.362-1.887 1.082-2.603 0.722-0.721 1.592-1.075 2.613-1.075 1.01 0 1.874 0.354 2.597 1.077 0.719 0.714 1.082 1.589 1.082 2.601" fill="#9fc2e5"/>
   </g>
   <g transform="matrix(6.3971 0 0 -6.3971 -113.23 12.547)">
    <path d="m0 0c0 0.146-0.052 0.269-0.167 0.38-0.106 0.109-0.233 0.17-0.378 0.17-0.143 0-0.266-0.055-0.38-0.158-0.101-0.099-0.153-0.216-0.153-0.348v-9.146c0-0.145 0.049-0.272 0.148-0.38 0.101-0.109 0.224-0.164 0.371-0.164 0.142 0 0.27 0.047 0.385 0.142 0.118 0.094 0.174 0.212 0.174 0.354z" fill="#9fc2e5"/>
   </g>
   <g transform="matrix(6.3971 0 0 -6.3971 -100.65 47.5)">
    <path d="m0 0c0.128 0.609 0.432 1.112 0.917 1.508 0.485 0.398 1.041 0.595 1.665 0.595 0.617 0 1.147-0.203 1.587-0.601 0.414-0.39 0.683-0.893 0.807-1.502zm6.218-1.111v1.095c-0.012 0.223-0.092 0.522-0.245 0.894-0.289 0.691-0.743 1.245-1.364 1.659-0.617 0.414-1.299 0.616-2.041 0.616-1.018 0-1.888-0.361-2.605-1.081-0.724-0.72-1.085-1.583-1.085-2.592 0-1.02 0.361-1.889 1.085-2.613 0.717-0.717 1.587-1.081 2.605-1.081 0.445 0 0.761 0.012 0.955 0.032 0.344 0.024 0.517 0.2 0.517 0.518 0 0.333-0.183 0.515-0.548 0.531h-0.924c-0.615 0-1.162 0.188-1.634 0.564-0.478 0.38-0.784 0.865-0.92 1.458z" fill="#9fc2e5"/>
   </g>
   <g transform="matrix(6.3971 0 0 -6.3971 -10.599 51.751)">
    <path d="m0 0c0 1.01-0.362 1.877-1.082 2.603-0.726 0.716-1.592 1.082-2.603 1.082-1.023 0-1.887-0.362-2.6-1.076-0.711-0.719-1.069-1.58-1.069-2.591v-3.046c0-0.148 0.051-0.265 0.156-0.368 0.106-0.099 0.235-0.154 0.375-0.154 0.145 0 0.269 0.057 0.383 0.168 0.107 0.111 0.164 0.24 0.164 0.398v2.984c0 0.721 0.254 1.344 0.76 1.855 0.51 0.516 1.126 0.774 1.856 0.774 0.713 0 1.328-0.258 1.834-0.774 0.505-0.511 0.761-1.134 0.761-1.855v-3.04c0-0.146 0.052-0.271 0.158-0.366 0.104-0.091 0.231-0.144 0.373-0.144 0.145 0 0.276 0.057 0.384 0.168 0.111 0.111 0.164 0.236 0.164 0.382z" fill="#9fc2e5"/>
   </g>
   <g transform="matrix(6.3971 0 0 -6.3971 28.64 62.64)">
    <path d="m0 0c-0.505-0.512-1.119-0.766-1.833-0.766-0.73 0-1.348 0.254-1.853 0.766-0.508 0.516-0.759 1.14-0.759 1.874 0 0.723 0.251 1.346 0.759 1.854 0.505 0.51 1.123 0.773 1.853 0.773 0.714 0 1.328-0.263 1.833-0.773 0.508-0.508 0.763-1.131 0.763-1.854 0-0.734-0.255-1.358-0.763-1.874m1.31 8.38c-0.144 0-0.273-0.059-0.376-0.169-0.105-0.109-0.158-0.235-0.158-0.376l-0.017-3.455c-0.749 0.778-1.613 1.173-2.592 1.173-1.021 0-1.891-0.362-2.612-1.084-0.72-0.715-1.084-1.583-1.084-2.606 0-1.012 0.364-1.887 1.084-2.601 0.721-0.723 1.591-1.077 2.612-1.077 1.007 0 1.872 0.354 2.592 1.075 0.725 0.716 1.083 1.587 1.083 2.603v6.012c0 0.141-0.053 0.261-0.16 0.358-0.102 0.097-0.23 0.147-0.372 0.147" fill="#9fc2e5"/>
   </g>
  </g>
 </g>
</svg>
