<svg width="800" height="346.99" version="1.1" viewBox="0 0 211.67 91.809" xmlns="http://www.w3.org/2000/svg">
 <g transform="translate(-37.286 110.42)">
  <g transform="matrix(6.8506 0 0 -6.8506 66.983 -19.25)">
   <path d="m0 0-0.238 8.889-0.232 0.075s-2.438 0.748-2.938 0.902c-9e-3 0.162-0.039 0.976-0.039 0.976l-0.888-0.479 0.016-1.048s2.949-0.869 3.133-0.918c4e-3 -0.199 0.227-8.397 0.227-8.397zm3.917 7.765-3.263 0.955-0.013-0.809 2.524-0.719zm-4.223 2.167-0.07 3.376-1.085-0.653 0.049-2.383z" fill="#f89c0e"/>
  </g>
  <g transform="matrix(6.8506 0 0 -6.8506 96.812 -57.403)">
   <path d="m0 0c-0.133 0.145-0.259 0.238-0.384 0.285-0.123 0.047-0.247 0.07-0.371 0.07-0.187 0-0.356-0.032-0.506-0.098-0.151-0.067-0.281-0.158-0.389-0.276-0.106-0.114-0.191-0.249-0.251-0.405-0.059-0.158-0.087-0.325-0.087-0.505 0-0.193 0.028-0.37 0.087-0.531 0.06-0.163 0.145-0.304 0.251-0.422 0.108-0.12 0.238-0.212 0.389-0.278 0.15-0.069 0.319-0.103 0.506-0.103 0.143 0 0.287 0.034 0.423 0.103 0.136 0.07 0.264 0.182 0.382 0.332l0.53-0.375c-0.162-0.223-0.362-0.386-0.596-0.486-0.232-0.101-0.481-0.154-0.746-0.154-0.277 0-0.533 0.047-0.763 0.135-0.231 0.09-0.431 0.218-0.599 0.381-0.169 0.165-0.298 0.36-0.392 0.593-0.095 0.229-0.144 0.484-0.144 0.766 0 0.287 0.049 0.548 0.144 0.782 0.094 0.237 0.223 0.437 0.392 0.603 0.168 0.167 0.368 0.292 0.599 0.382 0.23 0.09 0.486 0.135 0.763 0.135 0.243 0 0.47-0.043 0.679-0.129 0.207-0.084 0.399-0.233 0.583-0.439z" fill="#2a3e8f"/>
  </g>
  <g transform="matrix(6.8506 0 0 -6.8506 117.66 -47.954)">
   <path d="m0 0-0.554 1.46-0.562-1.46zm-0.812 2.222h0.553l1.547-3.594h-0.731l-0.335 0.822h-1.557l-0.325-0.822h-0.716z" fill="#2a3e8f"/>
  </g>
  <g transform="matrix(6.8506 0 0 -6.8506 131.74 -59.215)">
   <path d="m0 0h-1.102v0.578h2.842v-0.578h-1.102v-3.015h-0.638z" fill="#2a3e8f"/>
  </g>
  <g transform="matrix(6.8506 0 0 -6.8506 146.38 -63.174)">
   <path d="m0 0h0.641v-1.43h1.681v1.43h0.639v-3.593h-0.639v1.583h-1.681v-1.583h-0.641z" fill="#2a3e8f"/>
  </g>
  <g transform="matrix(6.8506 0 0 -6.8506 175.3 -51.039)">
   <path d="m0 0c0-0.193 0.029-0.37 0.089-0.531 0.057-0.163 0.141-0.304 0.252-0.422 0.106-0.12 0.237-0.212 0.386-0.278 0.151-0.069 0.319-0.103 0.507-0.103 0.185 0 0.354 0.034 0.505 0.103 0.152 0.066 0.284 0.158 0.393 0.278 0.108 0.118 0.191 0.259 0.249 0.422 0.059 0.161 0.089 0.338 0.089 0.531 0 0.18-0.03 0.347-0.089 0.505-0.058 0.155-0.141 0.291-0.249 0.405-0.109 0.118-0.241 0.208-0.393 0.276-0.151 0.066-0.32 0.097-0.505 0.097-0.188 0-0.356-0.031-0.507-0.097-0.149-0.068-0.28-0.158-0.386-0.276-0.111-0.114-0.195-0.25-0.252-0.405-0.06-0.158-0.089-0.325-0.089-0.505m-0.671-0.039c0 0.287 0.048 0.547 0.142 0.782 0.096 0.236 0.227 0.437 0.393 0.602 0.167 0.167 0.368 0.293 0.6 0.383s0.487 0.135 0.764 0.135c0.281 4e-3 0.538-0.039 0.769-0.124 0.235-0.088 0.436-0.213 0.607-0.379 0.168-0.167 0.299-0.364 0.396-0.598 0.092-0.235 0.141-0.494 0.141-0.783 0-0.279-0.049-0.534-0.141-0.765-0.097-0.231-0.228-0.428-0.396-0.593-0.171-0.167-0.372-0.297-0.607-0.39-0.231-0.092-0.488-0.141-0.769-0.145-0.277 0-0.532 0.047-0.764 0.135-0.232 0.09-0.433 0.218-0.6 0.381-0.166 0.165-0.297 0.36-0.393 0.593-0.094 0.229-0.142 0.484-0.142 0.766" fill="#2a3e8f"/>
  </g>
  <g transform="matrix(6.8506 0 0 -6.8506 200.8 -63.174)">
   <path d="m0 0h0.64v-3.015h1.528v-0.578h-2.168z" fill="#2a3e8f"/>
  </g>
  <path d="m218.42-63.176h4.3912v24.614h-4.3912z" fill="#2a3e8f"/>
  <g transform="matrix(6.8506 0 0 -6.8506 244.99 -57.403)">
   <path d="m0 0c-0.13 0.145-0.259 0.238-0.382 0.285-0.125 0.047-0.25 0.07-0.375 0.07-0.186 0-0.353-0.032-0.504-0.098-0.151-0.067-0.28-0.158-0.388-0.276-0.109-0.114-0.192-0.249-0.252-0.405-0.058-0.158-0.086-0.325-0.086-0.505 0-0.193 0.028-0.37 0.086-0.531 0.06-0.163 0.143-0.304 0.252-0.422 0.108-0.12 0.237-0.212 0.388-0.278 0.151-0.069 0.318-0.103 0.504-0.103 0.147 0 0.288 0.034 0.425 0.103 0.138 0.07 0.264 0.182 0.383 0.332l0.528-0.375c-0.162-0.223-0.359-0.386-0.594-0.486-0.235-0.101-0.483-0.154-0.747-0.154-0.277 0-0.532 0.047-0.764 0.135-0.229 0.09-0.431 0.218-0.599 0.381-0.167 0.165-0.298 0.36-0.393 0.593-0.093 0.229-0.141 0.484-0.141 0.766 0 0.287 0.048 0.548 0.141 0.782 0.095 0.237 0.226 0.437 0.393 0.603 0.168 0.167 0.37 0.292 0.599 0.382 0.232 0.09 0.487 0.135 0.764 0.135 0.244 0 0.471-0.043 0.678-0.129 0.209-0.084 0.402-0.233 0.582-0.439z" fill="#2a3e8f"/>
  </g>
  <g transform="matrix(6.8506 0 0 -6.8506 108.37 -82.34)">
   <path d="m0 0h-0.652v0.257h1.577v-0.257h-0.652v-1.764h-0.273z" fill="#2a3e8f"/>
  </g>
  <g transform="matrix(6.8506 0 0 -6.8506 116.51 -85.04)">
   <path d="m0 0h0.258v-1.013h5e-3l0.169 0.176c0.08 0.045 0.173 0.068 0.277 0.068l0.186-0.03 0.157-0.096 0.108-0.16 0.039-0.232v-0.871h-0.255v0.799l-0.027 0.162-0.068 0.109-0.1 0.06-0.115 0.017-0.149-0.025-0.12-0.082-0.08-0.141-0.027-0.203v-0.696h-0.258z" fill="#2a3e8f"/>
  </g>
  <g transform="matrix(6.8506 0 0 -6.8506 134.48 -75.655)">
   <path d="m0 0-0.027 0.158-0.072 0.123-0.122 0.083-0.17 0.03-0.173-0.037-0.132-0.09-0.084-0.13-0.032-0.137zm-0.812-0.206 0.04-0.162 0.1-0.124 0.148-0.08 0.169-0.028 0.209 0.056 0.163 0.146 0.193-0.148c-0.141-0.184-0.342-0.276-0.597-0.276-0.107 0-0.204 0.017-0.29 0.055l-0.22 0.148-0.138 0.227c-0.034 0.084-0.051 0.178-0.051 0.281 0 0.1 0.019 0.194 0.055 0.282l0.144 0.223 0.223 0.15c0.086 0.038 0.178 0.056 0.278 0.056 0.12 0 0.224-0.022 0.304-0.063l0.204-0.165 0.117-0.229 0.035-0.259v-0.09z" fill="#2a3e8f"/>
  </g>
  <g transform="matrix(6.8506 0 0 -6.8506 89.96 -28.364)">
   <path d="m0 0-0.147 0.111-0.203 0.039-0.213-0.045-0.173-0.124-0.111-0.189-0.04-0.239 0.04-0.24 0.11-0.189 0.167-0.124 0.206-0.043 0.223 0.05 0.161 0.147 0.342-0.254c-0.08-0.11-0.18-0.191-0.301-0.245-0.121-0.053-0.245-0.079-0.372-0.079-0.145 0-0.279 0.024-0.401 0.069-0.124 0.047-0.227 0.111-0.316 0.195-0.093 0.087-0.162 0.188-0.21 0.308-0.051 0.122-0.076 0.255-0.076 0.405 0 0.147 0.025 0.284 0.076 0.404 0.048 0.12 0.117 0.223 0.21 0.308 0.089 0.084 0.192 0.152 0.316 0.195 0.122 0.047 0.256 0.067 0.401 0.067l0.164-0.013 0.169-0.047 0.158-0.082 0.136-0.128z" fill="#2a3e8f"/>
  </g>
  <g transform="matrix(6.8506 0 0 -6.8506 106.84 -31.667)">
   <path d="m0 0h0.41v-0.694h0.795v0.694h0.41v-1.858h-0.41v0.804h-0.795v-0.804h-0.41z" fill="#2a3e8f"/>
  </g>
  <g transform="matrix(6.8506 0 0 -6.8506 138.75 -27.965)">
   <path d="m0 0-0.223-0.578h0.452zm-0.157 0.54h0.339l0.809-1.857h-0.462l-0.16 0.392h-0.723l-0.154-0.392h-0.451z" fill="#2a3e8f"/>
  </g>
  <g transform="matrix(6.8506 0 0 -6.8506 159.81 -31.667)">
   <path d="m0 0h0.554l0.792-1.291h4e-3v1.291h0.41v-1.858h-0.536l-0.81 1.321h-4e-3v-1.321h-0.41z" fill="#2a3e8f"/>
  </g>
  <g transform="matrix(6.8506 0 0 -6.8506 187.49 -31.667)">
   <path d="m0 0h0.557l0.789-1.291h4e-3v1.291h0.41v-1.858h-0.535l-0.809 1.321h-6e-3v-1.321h-0.41z" fill="#2a3e8f"/>
  </g>
  <g transform="matrix(6.8506 0 0 -6.8506 215.25 -31.667)">
   <path d="m0 0h1.26v-0.379h-0.851v-0.345h0.805v-0.377h-0.805v-0.379h0.898v-0.378h-1.307z" fill="#2a3e8f"/>
  </g>
  <g transform="matrix(6.8506 0 0 -6.8506 239.54 -31.667)">
   <path d="m0 0h0.408v-1.48h0.758v-0.378h-1.166z" fill="#2a3e8f"/>
  </g>
 </g>
</svg>
