<svg width="800" height="377.33" version="1.1" viewBox="0 0 211.67 99.835" xmlns="http://www.w3.org/2000/svg">
 <g transform="translate(356.32 78.868)">
  <g transform="matrix(6.106 0 0 -6.106 -182.02 -50.215)">
   <path d="m0 0h0.111c0.102 0 0.188 0.07 0.246 0.204-0.037 0.175-0.116 0.251-0.246 0.251h-0.111c-0.135 0-0.221-0.07-0.249-0.226v-0.063c0.066-0.106 0.148-0.166 0.249-0.166m-1.229 1.863-0.065 0.061-0.07-0.061v-0.127l0.044-0.039 0.091 0.081zm1.297 0.352v0.017h-0.023c-0.029 0-0.053-0.064-0.067-0.186h0.022c0.045 0.015 0.068 0.066 0.068 0.169m-0.043-0.875 0.043 0.046-0.043 0.042-0.047-0.042zm-2.796 1.795-0.045-0.037 0.045-0.04 0.046 0.04zm0.423-0.281-0.045-0.047v-0.018h0.068v0.037zm-1.898-0.5c0-0.117 0.073-0.186 0.22-0.206h0.049l0.2 0.125v0.062c0 0.108-0.076 0.167-0.221 0.191-0.111 0-0.197-0.064-0.248-0.172m0.333 0.808v0.016l-0.064 0.123h-0.021l-0.045-0.041v-0.018l0.087-0.12zm-0.243-0.088h-0.069l-0.067-0.057v-0.038l0.067-0.067h0.045l0.089 0.067-0.065 0.095m0.804-1.835c0.225-0.055 0.335-0.128 0.335-0.222l0.27 0.019h0.155l0.113 0.02 0.022-0.02 0.088 0.02h0.245c0.165 0 0.245-0.02 0.245-0.061l0.069 0.041h0.135c0.113-0.083 0.196-0.13 0.245-0.13h0.11l0.113 0.066c0.169 0 0.418-0.045 0.76-0.145 0.342-0.065 0.515-0.142 0.515-0.225l0.112 0.016c0.592-0.278 0.893-0.644 0.893-1.091 0-0.351-0.224-0.656-0.672-0.907l-0.599-0.227v-0.02h0.131c0.867 0.228 1.296 0.602 1.296 1.132 0 0.975-0.915 1.599-2.75 1.881 0 0.148-0.022 0.225-0.066 0.225-0.075-0.029-0.113-0.098-0.113-0.209h-0.066c-0.103 0.126-0.193 0.191-0.265 0.191h-0.183l-0.223-0.191h-0.042c-0.495 0-0.783-0.026-0.873-0.1zm-0.334 1.136h0.022v0.049h-0.022zm0.559 0.683-0.045 0.04-0.047-0.04 0.047-0.06 0.045 0.034zm2.878-3.649h-0.017v-0.05h0.017zm-1.338 0.696v-0.021l0.023-0.022h0.021l0.022 0.022v0.021l-0.022 0.018h-0.021zm0.023 0.312v-0.038l0.043 0.038zm-0.157-1.22h0.068v0.042h-0.022zm0.267 0.39h-0.02v-0.039h0.02zm-0.85-0.411h0.024v0.063h-0.068v-0.02zm-0.265 1.509v0.019l-0.023 0.024h-0.02l-0.025-0.024v-0.019l0.025-0.029h0.02zm3.059-1.775-0.064-0.062h0.022l0.066 0.062zm-4.958 4.391v-0.041l0.044-0.035 0.043 0.035-0.043 0.041zm5.251-3.753 0.066 0.058v0.026l-0.066 0.06h-0.046l-0.044-0.042v-0.063l0.044-0.039zm-1.23-0.761h-0.042v-0.026h0.042zm-0.603 1.63h-0.068l-0.022-0.02 0.044-0.043 0.046 0.043zm-0.29-0.976v-0.032c0-0.15 0.116-0.249 0.357-0.291 0.298 0.052 0.448 0.157 0.448 0.323 0 0.157-0.128 0.262-0.379 0.313-0.244 0-0.386-0.104-0.426-0.313m0.825 1.365h-0.02v-0.04h0.02zm-1.564-0.986 0.02-0.023 0.071 0.06v0.023l-0.022-0.023h-0.021l-0.028 0.023h-0.02l-0.023-0.023c0 0.248-0.112 0.372-0.335 0.372h-0.065c-0.255-0.03-0.382-0.132-0.382-0.312l0.09-0.225-0.043-0.105v-0.017l0.09-0.086h0.065c0.113 0.091 0.245 0.154 0.402 0.187h0.021l0.18-0.208 0.091 0.124-0.114 0.21v0.023zm-2.101 0.577-0.045-0.043v-0.043l0.069-0.062h0.024l0.089 0.082-0.066 0.066zm0.784-0.517h0.066v0.037l-0.022 0.023-0.044-0.04zm-0.246 0.761h-0.021v-0.039h0.021zm-0.739 0.598v-0.018l0.027-0.022h0.02l0.021 0.022v0.018l-0.021 0.023h-0.02zm1.476-0.473c-0.026 0.138-0.065 0.206-0.112 0.206h-0.021l-0.024-0.019c0-0.049 0.037-0.118 0.111-0.209h0.022zm-0.222-1.134 0.065 0.06-0.065 0.062h-0.024l-0.068-0.062 0.068-0.06zm-0.672 4.265c0.03 0 0.063 0.066 0.091 0.195 0 0.103-0.046 0.18-0.136 0.23l-0.09-0.102c0-0.158 0.044-0.261 0.135-0.323m-7.779-1.435c0.116 0 0.219 0.046 0.315 0.138h-0.114c-0.091-0.066-0.157-0.1-0.201-0.1zm8.492 1.731-0.041 0.038h-0.045v-0.056h0.068zm-11.084 0.038 0.022 0.026 0.066-0.064v-0.04l-0.088 0.022zm-2.571-1.856v0.087c0 0.249 0.105 0.495 0.314 0.716 0.682 0.596 1.605 0.894 2.77 0.894h0.312c0.431 0 0.854-0.06 1.278-0.175 0.607-0.192 0.915-0.453 0.915-0.775 0-0.143-0.031-0.263-0.092-0.355l0.024-0.121c0.117 0.116 0.179 0.222 0.179 0.311h-0.043l-0.026-0.023v0.023l-0.021 0.022 0.047 0.038h0.02l0.023-0.019 0.02 0.019c0 0.618-0.557 1.028-1.676 1.24-0.289 0.013-0.471 0.037-0.545 0.074-0.926-0.037-1.643-0.178-1.643-0.178-1.329-0.412-1.989-0.964-1.989-1.653v-0.125c0-0.256 0.104-0.477 0.31-0.66 0.064-0.108 0.153-0.165 0.271-0.165v-0.022l-0.023-0.018v-0.021c0.219-0.122 0.353-0.187 0.404-0.187h0.02l0.068 0.084c-0.613 0.28-0.917 0.612-0.917 0.989m11.644 1.483h-0.02v-0.035h0.02zm0.673-0.035-0.044 0.035-0.045-0.035 0.045-0.044zm1.205-4.36 0.023-0.022 0.045 0.043v0.021h-0.068zm-1.427 2.583h0.045v0.041zm0.802-1.156h0.02v-0.042h-0.066zm-0.894-0.205-0.025-0.029c0.212 0.048 0.316 0.088 0.316 0.133l0.023-0.023c0.212 0 0.333 0.061 0.358 0.187h0.023l0.017-0.021v-0.026l-0.017-0.016v-0.042l0.087-0.104 0.112 0.022h0.09l0.178-0.038h0.021c0.061 0 0.142 0.045 0.248 0.141l-0.069 0.167h-0.044l-0.024-0.019-0.066 0.081 0.025 0.017-0.07 0.046v0.12l-0.021 0.021h-0.022l-0.156-0.103v-0.038l0.021-0.023-0.133-0.102h-0.024l-0.023 0.02-0.064 0.059v0.023l0.133 0.061v0.022l-0.022 0.018-0.29-0.061c0.101-0.063 0.158-0.111 0.158-0.142h-0.028l-0.176 0.102c-0.079 0-0.301-0.074-0.67-0.232 0.053-0.045 0.098-0.121 0.134-0.221m-0.087 0.637h0.018v0.045h-0.018zm0.424 0.826-0.046-0.044 0.046-0.041h0.02l0.047 0.041-0.047 0.044zm-0.112 1.077h-0.024v-0.063h0.045l0.024 0.016zm-1.007-2.667h0.044v-0.041h-0.044zm-0.807 2.516-0.022-0.016-0.041 0.04v0.037h0.063zm-3.621-1.399v0.04h0.049zm-0.044 0.146h-0.022l-0.043 0.042v0.016h0.065zm-0.58-0.271h-0.2l-0.069-0.04v0.018c0 0.07 0.128 0.134 0.382 0.187l0.021-0.059zm-0.78-0.228h-0.025v0.045h0.025zm-2.953-0.266h-0.044v0.016h0.044zm17.882 1.379c-1.443 0.855-3.083 1.287-4.917 1.287h-0.739c-0.668 0-1.365-0.047-2.077-0.128-0.027-0.095-0.057-0.142-0.09-0.142h-0.088l-0.067 0.079h0.02v0.026l-0.02 0.015-0.716-0.1v-0.041l0.02-0.023h-0.044v0.023c-0.239 0-0.549-0.06-0.914-0.171-0.125 0-0.18-0.035-0.18-0.125h-0.046l-0.068 0.068-0.288-0.068c-1.025-0.281-1.975-0.609-2.86-0.987-0.847-0.344-1.838-0.646-2.974-0.909v-0.018l0.021-0.022-0.045-0.038h-0.042l-0.024 0.078c-0.446-0.028-0.672-0.077-0.672-0.141h-0.065v0.063l-0.332-0.023h-0.364l-0.019-0.023v0.023h-0.022l-0.027-0.023v-0.017l0.027-0.027v-0.015l-0.027-0.02-0.108 0.02v0.015l0.022 0.027-0.045 0.04h-0.131l-0.158-0.082v0.042h0.067c0 0.031-0.076 0.048-0.226 0.063l-0.047-0.046-0.107 0.063-0.067-0.04c-0.077 0.06-0.181 0.083-0.312 0.083v-0.022l0.043-0.061v-0.023l-0.024-0.017 0.024-0.027 0.155 0.027c0.098-0.081 0.389-0.126 0.874-0.126h0.869l0.158 0.064 0.042-0.041c0.423 0.025 0.796 0.072 1.123 0.143 0.638 0.096 0.957 0.173 0.957 0.229l0.069-0.027c0.339 0.076 0.516 0.129 0.537 0.149 0.973 0.275 2.155 0.679 3.553 1.221 0.46 0.116 0.692 0.218 0.692 0.288l0.157-0.019 0.134 0.038-0.09 0.161 0.046 0.047h0.025c0.037 0 0.066-0.063 0.085-0.193 1.277 0.324 2.081 0.478 2.415 0.478h0.023l0.021-0.02c0 0.033 0.248 0.067 0.74 0.082l0.067-0.041h0.086l0.089 0.063h0.83c0.68 0 1.431-0.074 2.257-0.228 2.698-0.627 4.046-1.733 4.046-3.32 0-1.003-0.499-1.832-1.496-2.499-1.433-0.838-3.165-1.257-5.212-1.257-0.666 0-1.418 0.087-2.253 0.268-1.717 0.462-2.571 1.138-2.571 2.024v0.058c0 0.865 0.648 1.532 1.94 2.001-0.102 0.096-0.153 0.175-0.153 0.228-0.12 0-0.247-0.067-0.378-0.213-0.129 0-0.336-0.11-0.63-0.345l0.023-0.062-0.088-0.083h-0.022l-0.022 0.021c-0.552-0.425-0.827-0.944-0.827-1.547 0-0.472 0.216-0.921 0.648-1.337 1.131-0.846 2.516-1.261 4.153-1.261h0.314c0.981 0 2.003 0.134 3.065 0.412 2.459 0.775 3.687 1.95 3.687 3.529 0 0.97-0.478 1.785-1.43 2.452m-8.895-1.049-0.045 0.042h-0.025l-0.018-0.026 0.043-0.035h0.021zm2.434-1.945-0.045 0.043-0.045-0.043 0.045-0.032zm0.717 1.576h-0.047l-0.045-0.045 0.045-0.04 0.047 0.04zm-2.795 0.986-0.042 0.043h-0.026l-0.044-0.043 0.044-0.039h0.026zm-0.068-0.347h0.025v0.041h-0.025zm-0.243 0.165v-0.025l0.11-0.081 0.113 0.081v0.025l-0.067 0.079-0.156-0.079" fill="#7b7979"/>
  </g>
  <g transform="matrix(6.106 0 0 -6.106 -221.26 -12.052)">
   <path d="m0 0-0.061 0.054h-0.02v-0.013l0.037-0.06h0.024zm0.212-0.146h0.019v0.036h-0.019zm0.036 0.146v-0.058l0.139-0.01 0.019 0.01c-7e-3 0.039-0.063 0.058-0.158 0.058m5.235-0.314 0.041 0.04h0.038l0.06-0.061v-0.016l-0.039-0.04h-0.059l-0.041 0.04zm1.477 0.204h0.02v-0.036h-0.02zm0.097 2.04h-0.04v0.021h0.04zm-0.427 0.075h-0.06v0.055h0.021l0.039-0.035zm-0.351 0.02-0.039-0.038-0.036 0.038v0.022l0.036 0.031 0.039-0.031zm-0.212-0.132h-0.039v0.037h0.039zm-0.215 0-0.018-0.018-0.076 0.018v0.074h0.038l0.056-0.053zm-1.103-0.165-0.06-0.018c-0.121 0-0.198 0.025-0.23 0.075l0.29-0.021zm-5.974-4.585-0.041 0.036h0.021l0.04-0.036zm1.842 3.954h-0.058v0.035h0.058zm-0.446-0.853v-0.039h-0.019l-0.114 0.072c0 0.029 0.054 0.055 0.174 0.093l-0.06-0.102zm-0.157 0.024h-0.059v0.01h0.059zm6.287 1.864-0.487-0.013c-0.373 0-0.561-0.041-0.561-0.114l0.018-0.054-0.189-0.095-0.197 0.058-0.042 0.133c-0.23-0.022-0.347-0.047-0.347-0.08l-0.02 0.02-1.009-0.17c-0.848-0.193-1.722-0.456-2.633-0.773h-0.043l0.081 0.111-0.101-0.023h-0.017c0 0.059 0.053 0.096 0.154 0.113v0.021l-0.021 0.019-0.096-0.019h-0.02v0.019l0.02 0.016v0.017l-0.058-0.017-0.074 0.017v0.019l0.013 0.022v0.015c-0.127-0.04-0.191-0.079-0.191-0.129l0.061-0.148-0.061-0.014 0.039-0.062-0.039-0.072-0.019-0.018-0.018 0.018h-0.038v0.034l0.038 0.061v0.039h-0.118v0.031l0.035 0.041-0.035 0.036-0.037-0.036-0.059 0.012-0.018-0.012v-0.023l-0.06 0.023-0.06-0.023c-0.201 0.164-0.318 0.242-0.348 0.242v0.022l0.021 0.017v0.017l-0.021 0.018-0.039-0.035c-0.21 0.134-0.508 0.284-0.891 0.462-0.622 0.257-1.42 0.438-2.389 0.539l-0.085 0.072c-0.598-0.039-1.167-0.039-1.679-0.019l-0.036-0.053c-0.643-0.084-1.148-0.184-1.514-0.295l0.075-0.189c0.834 0.189 1.623 0.279 2.368 0.279 1.834 0 3.281-0.344 4.347-1.042l-0.042-0.053v-0.017l0.042-0.036v-0.017l-0.02-0.023v-0.017l0.058-0.021h0.017v0.038h-0.037l0.081 0.062 0.038-0.039v-0.061l-0.058-0.034 0.034-0.036 0.096 0.018v-0.018l-0.018-0.018v-0.062l0.042-0.051v-0.02h-0.079l-0.017 0.057-0.058-0.02h-0.024l0.044 0.055v0.021l-0.061 0.056h-0.02l-0.06-0.056v-0.021l0.08-0.055-0.058-0.132c-0.09-0.058-0.845-0.397-2.272-1.018-0.614-0.228-0.923-0.354-0.929-0.37l0.117-0.166c0.792 0.235 1.592 0.511 2.404 0.852h0.02l0.02-0.023v0.023l0.698 0.303-0.02-0.098 0.081-0.116h0.014c0.107 0.015 0.157 0.056 0.157 0.131 0.155 0 0.235 0.032 0.235 0.092v0.022l-0.019 0.017h0.019l0.016 0.016 0.078-0.237 0.077 0.015h0.022l0.018-0.015-0.057-0.077 0.057-0.053h0.055l0.061 0.076-0.098 0.054-0.058 0.075 0.058 0.074h0.024l0.013-0.016v0.016l-0.055 0.072h0.042c0.013 0 0.073-0.08 0.152-0.244v-0.018l-0.02-0.013c0.092-0.037 0.151-0.283 0.176-0.746v-0.036c0-0.359-0.124-0.715-0.368-1.074-0.616-0.661-1.328-0.986-2.137-0.986h-0.231c-0.147 0-0.302 0.016-0.464 0.056-0.636 0.202-0.953 0.517-0.953 0.944l0.023 0.021v0.036l-0.078 0.057v-0.019l-0.025-0.021v-0.203l0.045-0.259c0.308-0.574 0.822-0.853 1.549-0.853h0.08c0.664 0 1.283 0.229 1.861 0.686 0.555 0.488 0.832 1.029 0.832 1.615 0 0.414-0.109 0.792-0.33 1.134v0.018h0.02l0.02-0.018h0.061v0.04l-0.038 0.032h-0.119v0.096l0.157 0.091c0.787 0.303 1.666 0.565 2.635 0.778l-0.056 0.076v0.017l0.056 0.02 0.039-0.037-0.039-0.058c1.155 0.226 2.063 0.337 2.716 0.337l0.114 0.071 0.1-0.071h0.249l0.135 0.071 0.12-0.039c0.137 0.09 0.228 0.134 0.27 0.134h0.036c0.161-0.021 0.237-0.091 0.237-0.205l0.969-0.152c1.99-0.453 2.987-1.302 2.987-2.541 0-0.599-0.274-1.146-0.833-1.628-0.996-0.757-2.144-1.135-3.456-1.135-0.433 0-0.895 0.046-1.377 0.147-1.187 0.34-1.783 0.873-1.783 1.618l0.059 0.404c0.363 0.799 1.228 1.213 2.599 1.244 0.22 0 0.441-0.017 0.66-0.054 0.954-0.185 1.434-0.545 1.434-1.078v-0.059l-0.018-0.122 0.018-0.021c0.048 0 0.079 0.065 0.096 0.202v0.054c0 0.177-0.075 0.37-0.229 0.58-0.502 0.481-1.133 0.727-1.901 0.727h-0.139c-0.338 0-0.695-0.056-1.066-0.152-1.084-0.392-1.627-0.943-1.627-1.653 0-0.19 0.023-0.363 0.076-0.522 0.405-0.96 1.472-1.475 3.198-1.518 0.929 0 1.833 0.217 2.718 0.65 1.137 0.628 1.706 1.39 1.706 2.281 0 0.602-0.203 1.137-0.6 1.594-0.984 1.017-2.54 1.52-4.674 1.52m-10.184-3.019c-1.02-0.3-1.996-0.445-2.931-0.445l-0.387 0.018-0.092-0.061v-0.035h0.751c0.797 0 1.716 0.119 2.754 0.351v0.057l-0.095 0.115m4.948 1.463h0.018v0.055h-0.036l-0.022-0.019zm0.155 0.109-0.096-0.086 0.036-0.038 0.117 0.07v0.021l-0.04 0.033zm-0.877-0.831 0.044-0.036h0.019l0.038 0.036v0.036h-0.057zm-7.774 2.097-0.213-0.076 0.059-0.165c0.192 0.05 0.292 0.087 0.292 0.107zm6.94-1.209v-0.075h0.04l0.043 0.036-0.043 0.039zm0.178 0.04-0.078-0.079 0.055-0.051h0.041l0.06 0.033-0.021 0.097-0.019-0.02h-0.02zm-0.197 0.592-0.038-0.037v-0.036l0.038-0.035h0.019l0.061 0.052-0.061 0.056zm0.799-1.32 0.037-0.036h0.017l0.044 0.036v0.041h-0.061zm12.199-4.213h-0.04l-0.036-0.035v-0.019l0.036-0.055 0.099 0.055zm-12.258 4.294 0.039-0.04 0.038 0.04v0.015h-0.059zm-0.621 0.814-0.06-0.074v-0.021l0.06-0.055h0.038l0.058 0.055v0.021l-0.096 0.074m0.933-0.931h-0.042c0.021-0.121 0.049-0.183 0.077-0.183zm-1.475 0.685v0.026l-0.058 0.053h-0.021l-0.057-0.053v-0.026l0.038-0.036h0.059zm0.971 0.671h-0.024v-0.037h0.024zm1.162 0.282h0.037l0.061 0.054v0.036l-0.042 0.039h-0.036l-0.08-0.075zm0.114 0.391-0.058-0.022h-0.019l-0.017 0.022v-0.06l0.094 0.018zm-0.19 0.683h-0.023l-0.018-0.019 0.041-0.037zm0.249-0.521h0.04l0.016 0.021-0.037 0.036h-0.019zm-0.059 0.374 0.059 0.038c-8e-3 0.097-0.026 0.145-0.059 0.145-0.037-3e-3 -0.058-0.055-0.058-0.145l0.042-0.038zm-0.679-0.766-0.036 0.039h-0.022v-0.054h0.04zm-0.075-0.387h-0.06v-0.017l0.02-0.017zm-0.312 0.185 0.059 0.059v0.036l-0.059 0.018-0.058-0.054v-0.018l0.04-0.041zm0.876-0.297 0.036-0.052h0.06l0.134 0.182-0.04 0.042c-0.11-0.051-0.174-0.1-0.19-0.172m-0.196 0.575c0-0.018 0.052-0.059 0.155-0.108h0.018l0.077 0.108v0.021l-0.018 0.016h0.018l-0.038 0.095v0.022l0.02 0.013v0.018h-0.02l-0.212-0.148zm0.817 1.078v-0.035l0.037 0.035zm-11.293-2.99v0.037c0 0.297 0.141 0.578 0.43 0.836 0.038 0.112 0.089 0.167 0.152 0.167 0.218 0.142 0.514 0.316 0.892 0.522l-0.094 0.091h-0.057c-0.956-0.502-1.436-1.025-1.436-1.562v-0.13c0-0.325 0.185-0.624 0.563-0.889 0.622-0.297 1.183-0.447 1.667-0.447v0.04l-0.253 0.076c-1.243 0.19-1.864 0.613-1.864 1.259m9.487 1.467-0.038 0.042h-0.02v-0.06h0.038zm0.291-0.052 0.039 0.034v0.037l-0.039 0.039h-0.04l-0.019-0.016 0.059-0.094m0.698 0.886 0.056 0.058v0.038l-0.037 0.036h-0.039l-0.056-0.054v-0.032l0.035-0.046zm0.759-0.834 0.036 0.042-0.036 0.033-0.059-0.033 0.036-0.042zm-0.258 0.391 0.04 0.036v0.039l-0.04 0.037h-0.037l-0.055-0.058v-0.018l0.036-0.036zm-0.445-0.594h-0.037v-0.018h0.037z" fill="#7b7979"/>
  </g>
  <g transform="matrix(6.106 0 0 -6.106 -280.78 -1.784)">
   <path d="m0 0h-0.02l-0.04-0.052v-0.052h0.02l0.04 0.052zm-0.02-0.391 0.038-0.052h0.022v0.082h-0.04zm0 0.957v0.049c0 0.033-0.049 0.074-0.153 0.132h-0.018l-0.024-0.02 0.076-0.238 0.119 0.077m-0.271 0.465h-0.019v0.051l0.019 0.027h0.02l0.021-0.027zm-0.351 0.105 0.097 0.128h0.022l-0.119-0.128m-0.424-0.129-0.019-0.022h-0.021l-0.017 0.022v0.024l0.017 0.02h0.021l0.019-0.02zm-0.078 0.044h-0.02v0.059h0.02zm-4.23-3.125h0.043v-0.02h-0.043zm2.116-0.439 0.058 0.027 0.04-0.053v-0.021l-0.022-0.03-0.076 0.03zm0.406 0.08v-0.053h-0.04zm0.173 0.077h0.023l0.037-0.052-0.037-0.053h-0.023l-0.036 0.053zm1.747 0.856 0.024 0.023 0.034-0.048v-0.027l-0.017-0.026-0.041 0.053zm1.323 2.569c-0.025 0.365-0.096 0.701-0.196 1.005l-0.037-0.137-0.099-0.128c-0.25 0.107-0.389 0.188-0.406 0.233l-0.019-0.028-0.933 0.335-0.059-0.103c0-0.036 0.07-0.069 0.214-0.1l0.117 0.052c0-0.09 0.064-0.146 0.193-0.156h0.02v0.077h0.017l0.021-0.026-0.038-0.079 0.832-0.334v-0.03l-0.018-0.026c0-0.045-0.159-0.124-0.482-0.232l-0.041 0.108h-0.04l-0.018-0.026 0.018-0.082v-0.022c-0.259-0.071-0.386-0.136-0.386-0.186l-0.058 0.028c-0.262-0.076-0.393-0.134-0.393-0.181l-0.011 0.02c-0.395-0.088-0.585-0.168-0.585-0.25v0.049h-0.041c-0.525-0.145-0.795-0.238-0.795-0.284l-0.02 0.028c-1.576-0.438-2.802-0.646-3.683-0.646l-0.02 0.075c0 1.123 0.695 1.912 2.075 2.358 0.376 0.053 0.562 0.101 0.562 0.152l0.039-0.051 0.194 0.026h0.153l0.063 0.129-0.023 0.028-0.542-0.053c-1.756-0.382-2.637-1.216-2.637-2.484v-0.051l0.097-0.158v-0.077l-0.059-0.153c0.033-0.26 0.148-0.58 0.35-0.959 0.703-0.918 1.585-1.371 2.657-1.371h0.33c0.887 0 1.674 0.306 2.364 0.903l-0.017 0.11v0.021l0.094-0.021 0.373 0.466-0.023 0.022c0.115 0.308 0.175 0.614 0.175 0.909v0.049c0 0.091-0.017 0.165-0.06 0.233l-0.038-0.051v-0.209c0-0.883-0.556-1.514-1.667-1.885-0.074-0.169-0.138-0.256-0.193-0.262-0.117 0-0.196 0.051-0.234 0.156-0.287-0.05-0.565-0.077-0.833-0.077h-0.291c-0.371 0-0.797 0.064-1.284 0.203-0.661 0.292-1.102 0.634-1.312 1.036-0.085 0.114-0.186 0.386-0.313 0.807v0.022l1.787 0.128c1.262 0.19 1.898 0.309 1.898 0.365v0.023l0.155-0.023 0.447 0.102-0.041 0.079v0.024h0.041l0.04-0.075h0.015c0.143 0 0.375 0.056 0.698 0.18v-0.028c0.276 0.07 0.409 0.119 0.409 0.161l0.058-0.033 0.988 0.291 0.138-0.135c0.104 0 0.154 0.084 0.154 0.232l0.098-0.031zm-0.505-2.807-0.025-0.024-0.016 0.024h-0.018l-0.018-0.024 0.036-0.047h0.079l0.016 0.021-0.039 0.05zm0.444-1.988h0.021v0.048h-0.021zm0.072 4.475-0.013 0.028h-0.023l-0.036-0.05 0.036-0.081-0.057-0.052v-0.08l0.08-0.077 0.024 2e-3 -4e-3 0.207-7e-3 0.103m-0.093-3.754-0.018-0.022v-0.03l0.018-0.022h0.021l0.02 0.022v0.03l-0.02 0.022zm-0.814 2.644 0.04 0.05v0.026l-0.04 0.054h-0.04l-0.036-0.054v-0.026l0.036-0.05zm1.107-1.246h0.022v0.056h-0.022zm-7.661 1.555h-0.059l-0.233-0.106-0.214 0.106h-0.137v-0.029l0.079-0.128h0.605l0.019 0.027-0.06 0.13m6.496 0.233-0.038 0.05v-0.08h0.02zm-0.891-1.633-0.097-0.1v-0.026l0.036-0.05h0.061l0.043 0.103 0.092 0.101v0.022l-0.039 0.058h-0.053l-0.043-0.108m0.369 3.184-0.038-0.052 0.038-0.056 0.037 0.056zm1.263-2.123h0.014v0.049h-0.014zm-2.406 2.899h0.015v-0.049h-0.015zm-0.545-0.026h0.094v0.078h0.06l0.02-0.078 1.028-0.205h0.039l0.093 0.072c-0.118 0.11-0.573 0.199-1.354 0.288h-0.019l-0.02-0.025 0.059-0.13m2.482-0.023-0.039 0.049h-0.017v-0.078h0.037zm-1.148-0.939 0.028-0.02h0.011l0.023 0.02v0.029l-0.023 0.03h-0.011l-0.028-0.03zm-8.297-1.339h0.039l-0.039-0.053zm-0.214 0.154-0.018-0.028c-0.099 0.075-0.256 0.154-0.465 0.233l-0.119-0.103v-0.023c0.411-0.188 0.801-0.328 1.165-0.414l0.058 0.051 0.157-0.103 0.058 0.023h0.019l0.019-0.023 0.178 0.075h0.014v-0.023l-0.038-0.081v-0.023h0.061l0.017 0.023 0.018-0.023h0.022v0.052h-0.057v0.023h0.116c0.137-0.023 0.211-0.069 0.211-0.129l0.523-0.024h0.079l0.098 0.13v0.023c-0.658 0-1.357 0.12-2.097 0.364zm9.508 2.69 0.014 0.026-0.037 0.054h-0.04l-0.018-0.027 0.041-0.053zm-0.081-0.334-0.04 0.05-0.038-0.05 0.038-0.054zm5.682 4.395h-0.018v-0.074h0.038l0.018 0.022zm-6.265-3.342v0.081h-0.038l-0.02-0.024 0.041-0.057zm-7.442 2.615 0.014 0.025-0.014 0.11v0.024l0.014 0.026-0.014 0.101h-0.063l0.036-0.286zm-3.708-3.129v0.158c0 0.513 0.149 0.991 0.444 1.451 0.78 0.978 1.767 1.472 2.968 1.472h0.076l0.06 0.073c-0.036 0.051-0.063 0.135-0.08 0.261-0.82 0-1.602-0.267-2.345-0.799-0.827-0.727-1.239-1.511-1.239-2.358v-0.338c0-1.018 0.488-1.859 1.476-2.535l0.018 0.031v0.022l-0.018 0.026 0.037 0.053v0.03c-0.933 0.647-1.397 1.469-1.397 2.453m4.011 3.129h-0.036v0.024h0.036zm2.35-1.86v-0.234c-7e-3 -0.16-0.065-0.351-0.175-0.572-0.509-0.685-1.225-1.028-2.133-1.028-0.256 0-0.562 0.052-0.911 0.149-0.622 0.281-0.931 0.648-0.931 1.117h-0.06v-0.209c0.033-0.158 0.096-0.347 0.194-0.572 0.364-0.424 0.65-0.642 0.855-0.642v0.104h0.058l0.058-0.104c0-0.092 0.186-0.159 0.561-0.183l0.061 0.024 0.115-0.024h0.176l0.075 0.078 0.04-0.054 0.427 0.081c1.152 0.419 1.726 1.08 1.726 1.966 0 0.608-0.273 1.142-0.815 1.604l-0.038-0.084-0.097 0.03c0 0.168-0.228 0.322-0.68 0.46h-0.019v-0.07h-0.058l0.016 0.07c0 0.078-0.326 0.158-0.983 0.239h-0.021l0.032-0.127-0.053-0.159v-0.048c0.202 0 0.464-0.036 0.797-0.106 1.187-0.353 1.783-0.923 1.783-1.706m-4.87-3.905v-0.028l0.078-0.077h0.019v0.051l-0.037 0.054z" fill="#7b7979"/>
  </g>
  <path d="m-291.2-26.906h0.12116v0.33578h-0.12116zm-0.3427 10.264h0.17308v0.32366h-0.17308zm-1.0939-15.955 0.32885 0.31138-0.17308 0.16443h-0.15577l-0.32367-0.31761 0.18347-0.15924zm-1.5751-9.1467h0.32367l0.30463 0.30532-0.30463 0.30532h-0.32367l-0.31674-0.30532zm-2.8332 3.3094v0.46404l-0.31155-0.29926 0.13847-0.16443zm0.78061-13.11c0.6906 0.28091 1.0558 0.54348 1.1112 0.78164v0.16443c-0.15578 0.94642-0.61098 1.4165-1.4158 1.4165-0.64733 0-1.0143-0.42734-1.1233-1.2638v-0.31743c0-0.30532 0.47598-0.56788 1.4279-0.78164m-2.0638 34.273 0.15577 0.14712h0.17309l0.30462-0.32972-0.13847-0.10904h-0.17308zm-0.15578-29.852h0.15578v0.31743h-0.15578zm0.31675-17.353h0.3427l0.28732 0.26862v0.18935l-0.28732 0.28091h-0.3427l-0.31675-0.28091v-0.18935zm-0.15578 43.279h0.15578l0.3427 0.29909-0.3427 0.31743h-0.15578l-0.29943-0.31743zm-1.2583-51.034h0.15577v0.29926h-0.15577zm-0.95196 64.125v0.30532l0.31675 0.31743h0.15577v-0.62275zm-0.31154-32.862h0.30462v0.30532h-0.30462zm0.31154-15.79h0.15578l0.31674 0.31743-0.47598 0.30532-0.31155-0.30532zm-0.13846 18.959 0.29943 0.32366-0.29943 0.31138-0.32886-0.31138zm-1.575 29.535v0.15924l0.30462 0.30532v-0.46403zm0-1.4532 0.45866 0.48844 0.50021-0.48844-0.50021-0.43357zm-0.17309-57.152h0.17309v0.33578h-0.17309zm-0.15577 10.429h0.15577v0.30532h-0.15577zm-0.17308 41.063h0.17308v0.30532h-0.17308zm0.80656-20.968h0.15578v0.43963l-0.95888 0.47632-0.30463-0.32366v-0.15231l0.30463-0.31743h0.17308l0.15577 0.15924h0.17309zm-1.1112-10.6h0.30463l0.5002 0.43357-0.5002 0.51908h-0.30463l-0.29943-0.36018v-0.29303zm-0.29943-17.39h0.15577v0.31743h-0.15577zm-0.34271-11.211h0.50021l-0.3427 0.32366-0.15578-0.14712zm-0.61617 17.048 0.4829 0.48844-0.15578 0.1402h-0.33058l-0.32367-0.29303zm-0.15578 38.199 0.31675 0.33578-0.31675 0.31138-0.33578-0.31138zm0.15578-17.036h0.15577l0.45867 0.47009v0.31743l-0.28732 0.32366h-0.48809l-0.47598-0.47632zm-0.80657-0.9343h0.17309v0.30532h-0.17309zm0.17309-9.1529h0.13846l0.33578 0.29926-0.33578 0.31743h-0.13846l-0.31155-0.31743zm-0.17309 14.825 0.4829 0.47632v0.15924l-0.31155 0.29909h-0.17308l-0.46386-0.45798zm-0.13846-31.421 0.13846 0.15924v0.12289l-0.13846 0.21376h-0.13847l-0.17654-0.21376v-0.12289l0.17654-0.15924zm-0.77541 23.05h0.31154v0.30532h-0.31154zm0-4.4085h0.31154l0.46387 0.45798v0.18312l-0.13847 0.1402-0.78753 1.0868-0.48809-0.44569 0.30463-0.47632-0.13847-0.62275zm-0.4881 3.3094 0.15578 0.15924v0.16443l-0.15578 0.15924h-0.15577l-0.13847-0.15924v-0.16443l0.13847-0.15924zm-0.29943-36.001h0.13847l0.30462 0.31743-0.13846 0.135h-0.29944zm-0.3479 20.345h0.17309v0.35413h-0.17309zm-0.78233 42.186h0.15577v0.31138h-0.15577zm-0.13847-21.163 0.30463 0.35413-0.30463 0.28091-0.32885-0.28091zm0-2.1859h0.13847l0.31155 0.29926v0.15231l-0.31155 0.31138h-0.47598v-0.46404zm-0.47078 18.464h0.13846v0.29926h-0.13846zm0.29251-58.446h0.32366l0.4829 0.44569-0.80656 0.50073-0.29251-0.50073v-0.10385zm-0.15578 24.003 0.32886 0.35413-0.17654 0.12808h-0.15578l-0.31155-0.30532 0.17309-0.17706zm-0.95887 1.899h0.5002l-0.33578 0.28091-0.17308-0.11596zm0.17308 24.003 0.33578 0.31743-0.33578 0.32972-0.46386-0.50073 0.18346-0.14712zm-0.46386-17.549h0.18346v0.35413h-0.18346zm-0.77541 11.382h0.12115v0.32366h-0.12115zm0-10.246h0.29943v0.15924h-0.29943zm0.47597 10.887c0.56079 0 1.0437 0.42734 1.4158 1.2334l-0.47598 0.51908v0.1402h0.15578c0.31674 0 0.45867-0.23816 0.45867-0.79376 1.1718 0.09693 1.7464 0.30532 1.7464 0.65339l-0.95888 1.0747h-0.15577l-0.94676-0.29926c0 0.5556-0.30463 0.80605-0.94677 0.80605l-0.29943-0.50679v-0.29909c0-0.21376 0.29943-0.32366 0.93984-0.32366l-0.17655-0.15231v-0.15924l-0.17308 0.15924h-0.59886v-0.15924l0.4829-0.29909v-0.18935h-0.3479l-0.13847 0.18935h-0.17308l-0.47598-0.65339v-0.31138zm-0.47597-12.78h0.30462l0.17308 0.14712h0.13847l-0.47598 0.61064h-0.13846l-0.33578-0.29303v-0.1402zm-0.33578-21.823h0.33578v0.18312h-0.33578zm0.17308 18.171 0.17308 0.15924v0.16443l-0.17308 0.15231h-0.17308l-0.13847-0.15231v-0.16443l0.13847-0.15924zm-0.17308 19.905h0.17308l0.30462 0.31743-0.30462 0.31743h-0.17308l-0.31155-0.31743zm0 11.528h0.47078l0.64041 0.62898v0.48238l-0.47079 0.45798h-0.17308c-0.70791 0-1.08-0.26257-1.08-0.77541l0.61098-0.79376m-0.79445-15.002 0.34271 0.32972-0.34271 0.29926-0.29943-0.29926zm1.7404-10.429h0.17308v0.32366c0 0.26257-0.56251 0.53725-1.7222 0.79982h-0.4829v-0.34201l1.2583-0.29303 0.17308 0.15924zm-1.7404-29.052 0.18347 0.15231v0.20147l-0.18347 0.11596h-0.13846l-0.15578-0.11596v-0.20147l0.15578-0.15231zm-0.13846 45.007h0.48809v0.31743l-0.3427 0.32972h-0.15578l-0.32885-0.32972zm-0.15578-38.388h0.4829v0.29303l-0.32885 0.34807h-0.15578l-0.31155-0.34807zm-0.62829-7.2722h0.31674l0.31155 0.34201v0.15924h-0.62829zm-0.31674 12.816 0.15578 0.17706v0.16443h-0.4829zm-1.582-8.5178h0.15577l0.32367 0.31138-0.17309 0.15924h-0.31155zm0.15577 49.129h0.32367l0.2925 0.29926v0.1402l-0.2925 0.33578h-0.32367l-0.32366-0.33578v-0.1402zm0.61617-20.547 0.96408 1.0807v0.15231l-0.31155 0.35413c-1.0627-0.31743-1.5941-0.53742-1.5941-0.67173v-0.45192l0.93984-0.46404m-1.0991-4.4146h0.15577v0.31138h-0.15577zm0.15577-13.916h0.47598l0.3427 0.32972-0.49501 0.45192h-0.15578l-0.47597-0.45192zm-0.47078-11.858h0.31155l0.32366 0.32972-0.17308 0.14712h-0.15578l-0.31154-0.31138zm0 3.9384h0.47078l0.47598 0.51908-0.63521 0.6044h-0.31155l-0.45867-0.48238v-0.12289zm-0.62829 46.607 0.30462 0.31743-0.13846 0.17135h-0.17309zm0.17308 1.8989 0.29251 0.33578-0.29251 0.29303-0.32886-0.29303zm0-51.486 0.29251 0.32366v0.32366h-0.29251l-0.32886-0.32366zm0 41.685 0.61618 0.47009-0.48291 0.50073h-0.30462l-0.32886-0.32972v-0.17135zm-0.66637-9.9222h0.15578v0.32366h-0.15578zm0.33578-24.998h0.15578l0.30462 0.34807v0.12289l-0.30462 0.34807h-0.15578l-0.33578-0.34807v-0.12289zm0-5.1473 0.32886 0.26257-0.32886 0.36019-0.33578-0.36019zm-0.33578 10.71h0.17308l0.32886 0.30532v0.17706l-0.49501 0.43963-0.45175-0.43963zm-0.59194 8.53h0.29251v0.28091zm-0.17308 15.625h0.17308v0.32972h-0.17308zm1.5577-10.728h0.32367l0.94676 0.29926 0.80656-0.135 1.2341 0.91595-0.13846 0.18312v0.29926c0.79445 0 1.4037 0.70825 1.8747 2.0699h0.47597c0.84811 0 1.2826 0.40917 1.2826 1.2457-0.21982 0.63504-0.65426 0.95871-1.2826 0.95871h-0.47597l-0.78234-0.77541v-0.67173l0.64733-0.75706c-0.50021-0.91595-1.0385-1.4899-1.6062-1.7341h-0.13846c-0.47598 0.51284-1.3864 0.8732-2.6928 1.093h-0.4829c-0.91561 0-1.4349-0.67779-1.5578-2.0455 0.61618-0.64716 1.1424-0.94642 1.5578-0.94642m-1.5578 6.0083h0.17308l0.29251 0.32366-0.29251 0.29926h-0.17308l-0.3427-0.29926zm-0.65425-30.646h0.31155l0.3427 0.31743v0.31743l-0.3427 0.31138h-0.31155l-0.46386-0.44569zm-0.63521 8.6766h0.3427l0.44655 0.61064-0.78752 0.18312-0.29251-0.32972v-0.1402zm-0.61618-14.844h0.32886v0.30532h-0.32886zm0.15578 16.73h0.17654l0.29251 0.32972-0.29251 0.31743h-0.17654l-0.31155-0.31743zm0 30.005v0.47009h-0.15578l-0.31674-0.30532 0.15577-0.16443zm0-2.5157h0.17654l1.08 0.94036v0.31761l-0.29944 0.32972h-0.48809l-0.93465-0.94036v-0.19541zm-1.8684-0.63504h0.15577v0.32366h-0.15577zm0.15577 6.0022 0.30463 0.29909v0.32366h-0.30463l-0.33578-0.32366zm1.7152 0.79982h1.5872v0.30532c0.92772 0.45192 1.4227 1.038 1.4227 1.7218v0.32972c0 1.3616-0.94676 2.2104-2.8332 2.5218-1.8134-0.33578-2.6989-1.038-2.6989-2.2104v-0.31138c0-1.3372 0.84291-2.1371 2.5218-2.3569m-2.2165-2.0516 0.34789 0.29926-0.18346 0.15231h-0.17309l-0.30462-0.32366 0.17308-0.12808zm-0.46386-48.817h0.17308v0.32366h-0.17308zm-0.32886 22.904h0.17308l0.79445 0.79982-0.17308 0.11596h-0.13847c-0.65944-0.0727-0.93464-0.20147-0.93464-0.42734v-0.17706zm0.17308 23.221 0.17308 0.16443v0.16443l-0.60405 0.47632h-0.18347v-0.47632zm-0.32366-25.096v0.44569h-0.12116l-0.31674-0.29926 0.13846-0.14712zm1.2998 36.782c1.1475 0.35413 1.7222 0.94036 1.7222 1.7524 0 0.70825-0.53656 1.1662-1.5699 1.4044h-0.50021c-1.0506-0.20147-1.5577-0.73889-1.5577-1.5875 0-0.85486 0.60406-1.3983 1.9051-1.5692m-1.4176-21.011h0.2752l0.4881 0.49467v0.135l-0.64733 0.48844-0.60406-0.48844v-0.135zm24.766 18.806h0.17308l0.47598 0.93413v1.7341l-0.17308 3.5048h0.47078c-0.53136 0.7022-1.215 1.093-2.0638 1.093-1.0316 0.62898-1.5699 1.3128-1.5699 2.0516v0.63504l0.47598 1.0624-0.17308 1.1662 0.95888 0.61064 1.7222-1.1235 0.17308 0.15924v2.3691l-0.31155 0.34201h-1.4418l-7.4249-0.17135c0-0.64733-0.47078-0.95247-1.4158-0.95247-0.31675 0.61669-0.6283 0.95247-0.95196 0.95247l-14.361-0.17135v-0.29303c0.54348 0 0.77541-0.39688 0.77541-1.1114l0.15577-0.15924h5.0741c3.0163 0 6.1913-0.15231 9.4581-0.45192l1.1354 0.10385c0-0.39688 0.77541-0.79982 2.3385-1.2701 3.0653-1.9478 4.5857-3.8651 4.5857-5.8251l1.4227-4.8726zm-24.949-11.223h0.29943l0.32367 0.31743v0.1402l-0.43963 0.50679h-0.18347l-0.47598-0.50679zm-2.0761-34.413 0.64733 0.44569v0.16443l-0.45174 0.47632h-0.47598l-0.47598-0.47632 0.75637-0.61064m-3.1323 3.9506h0.47079l-0.33059 0.29926-0.13846-0.15924zm-5.5444-2.8637h0.15577l0.33578 0.31138v0.19541l-0.33578 0.29303h-0.15577l-0.29944-0.29303v-0.19541zm-1.8866 2.2287v0.15924l-0.78233 0.61669-0.31674-0.35413v-0.26257zm-1.8928 42.321v0.31761h-0.31155zm-0.31155-11.223h0.31155v0.45192h-0.31155zm10.105-27.465 0.95196 0.78164-0.63521 0.79376v0.1402h9.1467l0.5002 0.50073v0.27486c0 0.37853-1.7585 0.65339-5.2266 0.80605-0.86023 0-1.2514 1.9051-1.2514 5.6908h0.15577l2.2163-0.62898 0.63521 0.15924 0.13847-0.15924h0.17308c0.29251 0 0.65944 0.36642 1.0991 1.1114l0.78234-0.135 0.3427 0.28091v0.135l-0.81176 0.32972v0.32366l0.17655 0.7877c-0.86022 1.386-1.8561 2.0394-3.0224 2.0394h-0.43963l-1.4349-0.29303v12.639l0.45867 0.61669v0.49467l-0.45867 0.29926v3.4743l0.2804 0.30532 0.33578-0.30532h0.5002l0.43444 0.47632v0.14712l-0.43444 0.47632h-0.65944l-0.17654-0.12808h-0.12116l-0.15578 0.12808v0.33578l0.15578 0.12808v0.17135l0.12116-0.17135h0.17654l0.48809 0.48844v0.16443c0 0.19541-0.33059 0.33578-0.94676 0.47009l0.15577 1.1051v4.9108l0.12116-0.15924h0.83599l0.59195 0.61669v0.31138c0 0.22587-0.27521 0.43357-0.93465 0.63504l-0.6231-0.135 0.12116 5.8495v4.3841l-0.75118 1.1174 0.75118 0.80605v0.29303h-6.2831l-1.0939-0.78164-0.97099 0.78164h-9.6231c-1.6979-0.067502-2.5339-0.26862-2.5339-0.62275 0-0.51908 1.6304-0.82439 4.8726-0.94036 1.5941-0.34807 2.3873-1.1114 2.3873-2.363l0.15577-1.5998v-0.64733l-0.47598-0.29303c0.17655 0 0.5556-0.37853 1.1112-1.1235v-0.6044c-0.31674 0-0.63521-0.38476-0.94676-1.1295v-0.09693l0.31155-0.51908v-18.788l-0.78753-0.63504 0.78753-1.4105v-16.126c0-1.9905-0.8983-2.9858-2.6805-2.9858h-3.0163c-0.5556 0-0.91561-0.22587-1.0991-0.6411l0.64733-0.6411h14.825l-0.45867-0.62898v-0.46403c0.17655-0.42734 0.5504-0.62275 1.0991-0.62275m-18.019 2.4912h0.4829v0.50679h-0.13847l-0.33578-0.32972zm-0.12116 13.439h0.12116l0.33578 0.33578v0.1402l-0.33578 0.33578h-0.12116l-0.32366-0.33578v-0.1402zm-0.32366-10.569v0.31138h-0.33578zm-0.4881 17.06 0.15578 0.17135v0.12808h-0.45867zm-0.30462-11.229 0.13846 0.18935v0.29303h-0.4829v-0.15924z" fill="#7b7979"/>
  <path d="m-238.38-46.384h0.17308v0.29926h-0.17308zm-1.8868 20.504h0.13847v0.32972h-0.13847zm-5.2145-14.068v0.48238l0.31674-0.32366-0.17308-0.15924zm-0.32366-15.137h0.15577v0.31743h-0.15577zm-0.15578 33.137h0.15578v-0.32366h-0.15578zm-0.6231-28.405h0.29251v0.32366h-0.29251zm0-2.0455h0.29251v0.31138h-0.29251zm-0.65425 3.4804h0.17308v0.30532h-0.17308zm-0.93984-1.9417v0.18935l-0.31155 0.31743-0.31674-0.31743 0.17308-0.18935zm-3.1446 31.122 0.61099 0.18918 0.17654-0.18918v-0.16443l-0.32886-0.29303zm-0.4829-8.6583-0.15577 0.1402v0.32972h0.47078v-0.16443zm0.31675-32.838 0.17308 0.135v0.135l-0.63522 0.51284-0.13846-0.15924v-0.17135zm-1.1233 41.496v0.48844l0.32366-0.29909-0.15577-0.18918zm-0.7806 4.1215h0.17308v-0.28697h-0.17308zm-0.6231 1.3983v0.34201l0.30462-0.34201zm-1.4297-2.5218v0.34201l0.32367-0.34201zm-0.13846-2.3691 0.31155 0.34201 0.31674-0.34201-0.31674-0.28697zm-1.9112-1.6974h0.33578v-0.19541h-0.33578zm-0.47079 6.1121v0.47632h0.47079v-0.12808l-0.29943-0.34807zm-0.46386-44.494h0.30463v0.14712h-0.30463zm-0.78752 23.532c0.0865 0.8488 0.26827 1.2578 0.4829 1.2578h0.61098v-0.16443l-0.95888-1.093zm-1.4349-25.126 0.31674 0.32972v0.12289l-0.31674 0.31743h-0.30463v-0.43963zm-0.6231 10.887-0.13846 0.77541v0.34201l1.4106 0.31138-0.32886-1.093-0.12116 0.1402h-0.36693l-0.28732-0.47632zm-0.6231 24.827h0.30463v0.12808h-0.30463zm-0.17308-19.466v0.35413h0.17308c1.0506 0 1.5629 0.12289 1.5629 0.27486l1.2514-0.42734v-0.34807c-0.32367 0-0.81176-0.25028-1.3743-0.7633-0.65425 0.61064-1.1787 0.90972-1.6114 0.90972m0.31674-16.431 0.33578 0.35413-0.17654 0.15924h-0.15578l-0.31674-0.32972 0.17309-0.18312zm-0.62829 1.1235 0.31155 0.31138-0.12116 0.18312h-0.18346zm-0.32366 35.842h0.50713v0.63504h-0.18347l-0.32366-0.33578zm0.15577-41.685 0.17309 0.19541v0.12808l-0.17309 0.16443h-0.15577l-0.15578-0.16443v-0.12808l0.15578-0.19541zm-0.61617 6.0327 0.15577 0.12289v0.18312l-0.15577 0.15924h-0.15578l-0.17308-0.15924v-0.18312l0.17308-0.12289zm-0.78753-8.0782 0.29251 0.30532-0.45174 0.50073-0.31155-0.50073zm-0.95195 0h0.31155v0.17135h-0.31155zm-0.15578 25.749h0.15578v0.29303h-0.15578zm-1.1181-12.786h0.3427v0.12808h-0.3427zm0.18347 0.92807v0.48238h-0.35482l-0.29944-0.33578 0.17655-0.14712zm-1.2635 15.808h0.29943v0.1402h-0.29943zm0.29943-28.735h0.31155l0.29944 0.29926v0.31743l-0.29944 0.33578-0.61098-0.65339zm1.1233 32.655 0.13847 0.18312h0.15577l0.4829-0.18312 0.31674 0.32366h0.78753v1.6119c-0.0519 0.34807-0.73214 0.76935-2.0394 1.2394l-1.4158-1.2394c0-0.95247 0.49502-1.5815 1.575-1.9356m-2.0761-6.7593h0.33578v0.1402h-0.33578zm0.17308 10.276 0.32886 0.28091-0.15578 0.17706h-0.17308l-0.32886-0.32366 0.15578-0.135zm0-8.4079h0.32886v0.33578l-0.32886 0.28091-0.33059-0.28091zm0-15.637 0.32886 0.51284v0.135h-0.15578l-0.50021-0.48844 0.15578-0.15924zm-0.33059-2.5218h0.33059v0.15924h-0.33059zm0.33059 0.9587v0.17135l-0.33059 0.29303-0.32886-0.29303 0.18347-0.17135zm-0.78753 22.904 0.31155 0.29926-0.18347 0.16443h-0.44482v-0.16443zm-0.66637-19.912h0.17309l0.34789 0.32366v0.16443h-0.51925zm0.17309-1.7281 0.17654 0.17135v0.12808l-0.50021 0.33578v-0.33578zm-0.17309 0.94642 0.17309 0.15231v0.14712l-0.17309 0.17706h-0.15577l-0.12116-0.17706v-0.14712l0.12116-0.15231zm-0.9156-3.34h0.47078l-0.31674 0.32972-0.15577-0.15924zm0.30462-5.99 0.17308 0.135v0.20147l-0.17308 0.17135h-0.15577l-0.15578-0.17135v-0.20147l0.15578-0.135zm-0.30462 25.602 0.15577 0.15231v0.15924l-0.30463 0.34201-0.15577-0.19541v-0.14712zm-1.1181-3.0102h0.15578l0.32885 0.32366-0.18866 0.15231h-0.13846l-0.13847-0.15231zm-0.15577-11.992h0.15577v0.32366h-0.15577zm0-1.4044h0.15577v0.28697h-0.15577zm-0.13847 15.46 0.29943 0.28091-0.47597 0.35413-0.32367-0.35413zm-1.4349 16.718 0.15578 0.19541v0.15924l-0.30463 0.28091-0.15577-0.15924v-0.12289zm-0.30462-33.632h0.30462v0.15924h-0.30462zm0.15577-11.058 0.15578 0.17135v0.15924l-0.15578 0.15924h-0.15577l-0.18347-0.15924v-0.15924l0.18347-0.17135zm-0.33578 9.6352 0.4881 0.48238v0.15231h-0.4881l-0.31155-0.32366zm-0.45867 33.302h0.15578v0.33578h-0.15578zm-0.15577-29.815 0.29943 0.30532v0.32366h-0.29943l-0.3427-0.32366zm-0.3427 16.449 0.3427 0.29926-0.3427 0.31138-0.2804-0.31138zm-0.92773-27.648h0.31155v0.12808h-0.31155zm0.17309 33.455h0.15577v0.32366l-0.31155 0.34201-0.15577-0.15924v-0.18312zm-1.1354 3.6575 0.18347 0.12808v0.18935h-0.4829zm0-27.165 0.34271 0.28697-0.34271 0.35413-0.29943-0.35413zm-0.93464 2.1982 0.33578 0.33578-0.33578 0.28697-0.29944-0.28697zm-0.61618 15.002h0.13847v0.30532h-0.13847zm0-11.351h0.13847v0.30532h-0.13847zm0.13847 4.3841 0.17654 0.20147-0.17654 0.15231v0.16443l0.17654 0.45192-0.17654 0.16443h-0.13847l-0.31155-0.34807 0.13847-0.15924h0.17308l-0.17308-0.11077v-0.16443zm-0.77022-8.6766h0.15577v0.32366h-0.15577zm0.94676 6.1609v0.34201l-0.62829 0.32366h-0.47598v-0.48844zm-0.79964-5.6724 0.17308 0.15231v0.17135h-0.47598zm-0.46386 13.891v0.16443l-0.31674 0.28091v-0.10385zm-1.2704-4.4146 0.15578 0.14712v0.16443l-0.15578 0.15231h-0.15577l-0.17309-0.15231v-0.16443l0.17309-0.14712zm-1.5699-22.439 0.13847 0.19541v0.12808l-0.13847 0.16443h-0.17308l-0.12116-0.16443v-0.12808l0.12116-0.19541zm-1.4297 53.525 0.31155 0.32366v-0.32366zm0-47.853h0.15577l0.33578 0.36018v0.12289h-0.4829zm-0.93984 9.1529h0.29943v-0.10904h-0.29943zm1.087 7.9256v0.15231l0.49501 0.135c-0.32885 1.2945-0.49501 3.4071-0.49501 6.338v3.3094l0.17308 0.16443-0.17308 0.16443v0.64716l0.33578 4.7382h-0.4829l-0.15578-0.18918-0.95888 0.80605v0.32972l0.64041 0.62275h0.31674l0.78753-0.16443 0.93464 4.8787c-0.73906 0.34807-1.2635 0.84257-1.575 1.4532v0.15231c0.2804 0.7022 0.71483 1.1662 1.2583 1.4165l0.94677-0.15924c0.25097 0.10904 0.9883 1.5204 2.2226 4.262 2.0211 3.7979 4.9214 5.6786 8.6827 5.6786h1.1112c5.0741 0 8.3408-4.262 9.7636-12.804 0.54348-2.6072 0.80657-5.2389 0.80657-7.8889v-0.48238l-0.15577 0.17706h-0.95888c-0.64733 0-1.2635-0.43963-1.8868-1.264v-1.4227c0.70791-0.68991 1.1302-1.2761 1.2704-1.9051h-0.64733l-0.45867 0.33578c-1.0679-0.70826-1.5941-1.3983-1.5941-2.0822l0.15577-0.61669-0.61617-0.61669 0.15577-0.16443h0.13847l0.4829 0.62275 0.96407-0.45798 0.59194 0.14712 0.17309-0.44569-0.17309-0.19541v-0.30532l1.1233-1.0991h0.96407l0.15578 0.17706h0.15577v-0.97688c-1.1718-0.20753-1.7341-0.73889-1.7341-1.5754l0.15578-0.47009h-0.32886l-1.08 0.30532c0.40847 0.61669 0.59194 1.1541 0.59194 1.5937l-1.7274 0.48238v1.2394l-0.31155 0.32366h-0.15577l-0.31674-0.64716-0.93465-0.17135-0.97099 0.17135h-0.60406l-0.63521-0.7877 0.2925-0.61064-0.78233-0.6411v-0.30532l0.78233-0.64716c0.63522 0 0.94677 0.43963 0.94677 1.2578l1.1181 0.48238 0.15578-0.14712v-0.17706l-0.15578-0.46404c0.23886 0 0.65425-0.43963 1.2514-1.2578l-1.8807-0.95247-0.48809-0.63504v-0.80605l0.17308-0.10904v-0.16443l-0.17308-0.15231-1.1181 0.15231h-0.77542v0.43357l1.582 0.64733-0.45175 0.79982 0.15578 0.47009-0.15578 0.1402h-0.18346l-0.17309-0.1402h-0.12115c0 0.20147-0.32367 0.39082-0.93984 0.62275l-1.2635-0.62275c0.12116-0.63504 0.45867-0.95247 0.93465-0.95247v-0.15231h-0.17308l-1.2826 0.28697-1.0679-0.59835-0.15577 0.14712-0.17654-0.14712v-0.15231h0.17654l-0.17654-0.16443v-0.18312l0.48809-1.209-0.15578-0.18935v-0.17135l0.78753-0.12808-0.17308-0.79982v-0.36642h0.17308l0.79964 0.22587v0.43357h-0.34789v0.18312h0.34789l0.15578-0.18312v0.50679l0.31155-0.32366h-0.18347l0.32886-0.61669h-0.60406l0.60406-0.32366v-0.16443h-0.32886c-1.5578 0.16443-2.3508 0.68385-2.3508 1.5571l0.32886 0.36018-0.51925 0.27486h-0.7633l0.7633 0.9343-0.28732 1.0991 0.28732 0.34807v0.94642l-0.28732 0.31138h-0.95888v-0.47009l0.4829-0.65339h-0.32366l-0.15578 0.18312h-0.13846l-0.94677-0.18312v-0.135l0.15578-0.16443-0.33578-0.78164 0.18347-0.50073h-0.18347l-0.95196 0.64733 0.19559 0.45192-0.47598 0.34807c0-0.43357-0.70272-1.0196-2.076-1.7158l-0.60406 0.11077v-0.42734l1.0627-0.20147v-0.14712l-0.76329-0.46404c0-0.98311 0.57463-1.8623 1.7341-2.6683v-0.18935c-0.971-0.46403-1.6062-1.1174-1.9051-1.8929v-0.135l0.17309-0.18312-0.17309-0.1402v-0.50679l0.17309-0.10385v-0.20147l-0.29944-0.28697 2.3448-1.2701h0.47597l1.8928 0.63504h0.17308l0.78233-0.14712 0.17655 0.14712v0.1402l-0.17655 0.17135v0.135h0.7633c0-0.40294 0.56079-0.59229 1.5941-0.59229l0.50021 0.14712c0-0.43963 0.36001-0.63504 1.106-0.63504h0.33059v-0.16443l-0.15578-0.18935v-0.135l0.15578-0.14712h0.15577l0.29943 0.28091-0.17308 0.18935 0.33059 0.65339 0.95888-0.97705 0.45867 0.135c0.31674-0.68385 0.8481-1.1479 1.5872-1.4044l0.12116 0.17706-0.12116 0.17706v0.135l0.12116 0.15231v0.14712c-0.76329 0.53725-1.3985 0.80605-1.8807 0.80605l-0.15578 0.16443v0.15231h0.15578l0.17308-0.15231h0.15577l0.17309 0.15231h0.15577l0.64733-0.15231c0.70791 0 1.6183 0.77541 2.6684 2.3691l0.76848 0.45798h0.36694v-0.135c-0.37905-1.1418-0.95196-2.4363-1.7402-3.8101h-0.35482v-0.15231l0.17309-0.135v-0.17706c-1.9479-2.65-4.5368-3.9445-7.7302-3.9445h-0.8308c-3.0409 0-5.7212 1.7829-8.0293 5.361-1.7648 2.9919-2.8027 6.0144-3.1508 8.9819l-0.17308 0.65944zm-2.5156 29.535-0.15577 0.6411h0.30462l0.15578-0.6411zm-1.7341-5.7091h0.31674v-0.63504h-0.31674zm-0.78753 4.1093v0.49467h0.13847l0.32366-0.29926v-0.19541zm-0.64041 1.2822h0.32367v-0.33578zm-1.2393-28.747-0.18347 0.16443v0.135h0.47079zm-1.7646-21.633h0.17655v0.28697h-0.17655zm-0.43963 36.813v0.28697h0.29944zm-0.18866 7.2295v0.15231l0.80657-0.15231v-0.29909h-0.48809zm-0.93984-9.4704v0.15231h0.78753v-0.27468zm-1.1112 4.9092v0.32366h0.17309l0.30462-0.32366v-0.1402zm-1.1181 6.3258h0.3427v0.31138zm30.493-41.722h0.48291c0 0.75706 0.56771 1.1235 1.7222 1.1235 5.3 1.5571 9.452 4.0238 12.474 7.4371 4.7504 5.0802 7.1258 10.582 7.1258 16.413v0.30532h0.31155v0.33578h-0.31155l0.15578 0.15924v0.12808c0 11.62-5.4222 20.034-16.26 25.126-3.2424 1.4655-7.15 2.2165-11.723 2.2165-3.6209 0-6.8877-0.6411-9.7636-1.8868l0.32367-0.95247-0.78234-0.92807h-0.64733c-0.58675 0-0.97618 0.29926-1.2583 0.92807-3.8528-1.6486-7.6812-5.1901-11.54-10.588-1.5699-2.8271-2.3446-4.7444-2.3446-5.6847-0.29251-0.41522-0.6231-1.7707-0.95888-3.9567h0.15578l-0.15578-0.47632h-0.17308l-0.15577 0.17706h-0.17309l-0.15577-0.17706v-0.14712l0.47078-0.135v-2.8576l0.17309-0.16443-0.17309-0.17135v-0.1402c0-4.3413 1.0558-8.3652 3.169-12.023v-0.1402h-0.13847l-0.63521 0.32366-0.15578-0.18312h-0.17308l-0.46386 0.18312c-0.9035 0-1.7031-0.70825-2.3875-2.0455 0-1.1602 0.73907-2.0211 2.2286-2.5401v-0.31743l0.62309 0.45798 0.17309-0.1402h0.15577c0.85503 0.17706 1.5872 0.8488 2.2044 1.8867h0.15578l-0.15578-0.15231v-0.15924c3.5842-3.456 5.471-5.2145 5.6724-5.2145 4.8603-3.7735 10.814-5.6602 17.86-5.6602l5.0497 0.12289zm-34.273 24.815h0.15578v0.32366h-0.15578z" fill="#7b7979"/>
  <path d="m-194.08-67.077h0.13847v0.31141h-0.13847zm-1.4348 8.8292h0.48809l-0.33578 0.32972-0.15578-0.16443zm-5.3548 32.069h0.29943v0.135h-0.29943zm-1.582-14.215h0.15577v0.34201h-0.15577zm-5.2207 3.9506h0.17308v0.29303h-0.17308zm-0.31674-15.631 0.15577 0.16443v0.1402l-0.15577 0.15231h-0.15577l-0.15578-0.15231v-0.1402l0.15578-0.16443zm-0.61098 0v0.45798l-0.3479-0.29303 0.17655-0.16443zm-0.80657 39.005h0.15578v0.31743h-0.15578zm0.31155-14.99 0.15578 0.17706v0.11597l-0.15578 0.17706h-0.15577l-0.15578-0.17706v-0.11597l0.15578-0.17706zm-2.0455 3.9445h0.32366v-0.14712h-0.32366zm-0.6231-25.444 0.30463 0.33578-0.17309 0.17135h-0.13846zm-2.0576 28.405 0.15578 0.18312 0.78752-0.18312h0.4881c0.62829 0 1.0195 0.34807 1.2514 0.99522 0 0.61064-0.38425 0.94036-1.0991 0.94036h-0.64041c-0.83598 0-1.2583-0.58-1.2583-1.7524l0.13847-0.18312zm-0.48809-24.442h0.17308v0.31138h-0.17308zm-1.5699 19.912h0.15577v0.29909h-0.15577zm0.15577-11.082 0.47079 0.48238-0.28732 0.48238c-0.85503-0.10385-1.2756-0.27468-1.2756-0.48238v-0.30532h0.4829l0.15578 0.14712h0.13846zm-1.4348-0.9343h0.17308l0.17308 0.135 0.15578-0.135h0.32366l0.29251 0.33578-0.47078 0.29926-0.15578-0.1402h-0.15577l-0.49502 0.1402-0.13846-0.1402v-0.15924zm-0.61098 20.498 0.17308 0.20147v0.14712l-0.17308 0.15231h-0.17309l-0.15577-0.15231v-0.14712l0.15577-0.20147zm0-28.564 0.17308 0.17135h0.15577l0.46387-0.17135 0.17308 0.17135v0.15231l-0.17308 0.15924h-0.32367l-0.13847-0.15924-0.15577 0.15924h-0.17308l-0.31674-0.31138 0.15577-0.17135zm-0.49502 3.1873h0.17308v0.29303h-0.17308zm0.32886 2.0211 0.17308 0.16443h0.17308l0.61618-0.16443 0.32885 0.50679v0.12808l-0.32885 0.31138h-1.0991l-0.32366-0.31138v-0.12808zm-0.78753-10.405h0.17308v0.32366h-0.17308zm-0.33578 8.3835h0.17654v0.29303h-0.17654zm0.50021 2.9675 0.29251 0.31138-0.45867 0.31138-0.15577-0.12808h-0.17655l-0.43963 0.12808v-0.45192h0.30463l0.13846 0.1402h0.17655zm-0.79964 13.274 0.29943 0.29926-0.29943 0.35413-0.31155-0.35413zm0.47597-10.429h0.15578l0.63521 0.61669v0.16443l-0.32366 0.35413h-1.087l-0.32886-0.35413v-0.16443l0.47079-0.43963 0.47597 0.14712zm-0.94676-4.0971h0.32886l0.30463 0.30532-0.17309 0.16443h-0.13846l-0.32886-0.30532zm-0.47078 14.685h0.47078l-0.33059 0.34201-0.13846-0.20147zm0-14.685h0.13846v0.30532h-0.13846zm-0.63522 4.8787 0.32367 0.35413-0.17308 0.16443h-0.15578l-0.32366-0.33578 0.17308-0.18312zm-0.45867-16.706h0.13847v0.29303h-0.13847zm-0.18346 16.706 0.18346 0.18312v0.17135l-0.18346 0.16443h-0.17309l-0.13846-0.16443v-0.17135l0.13846-0.18312zm-0.45867-17.707 0.29251 0.37853h-0.29251zm-0.15578 31.94h0.15578v0.30532h-0.15578zm0-4.2864h0.15578v0.36018h-0.15578zm1.4106-1.844 0.17308 0.11596v0.31761l-0.32366 0.34201h-0.93984l-0.31675-0.34201c0-0.23816 0.45175-0.40917 1.4106-0.43357m-1.0922 14.184v0.46404h-0.15578l-0.30462-0.31138 0.15577-0.15231zm-0.97792-1.7829h0.18347l0.32885 0.35413v0.16443h-0.51232zm0.18347 1.7829v0.46404h-0.18347l-0.29943-0.31138 0.17308-0.15231zm0.63521-26.86 0.15578 0.16443v0.34201l-0.46387 0.29926-0.15577-0.17135h-0.17308l-0.4829 0.17135-0.17309-0.17135v-0.47009zm-1.5993 25.279h0.4829l-0.29944 0.31743-0.18346-0.16443zm-0.43963-1.0991h0.15577l0.29251 0.30532-0.15577 0.17135h-0.29251zm0.15577-22.433h0.94676c0.20078 0 0.38425 0.32366 0.4829 0.94036h-0.17308l-0.4829-0.31138-0.17308 0.15231h-0.13847c-0.54867-0.12289-0.81176-0.29303-0.81176-0.45798zm-0.33578-15.149h0.18866v0.26862h-0.18866zm0.4829 22.592 0.32886 0.29303-0.18347 0.77541h-0.29251l-0.33578-0.61669-0.15577 0.45798h-0.15578l-0.13846-0.61669 0.13846-0.16443h0.15578l0.15577 0.16443h0.18866zm-1.106 14.99h0.46386v0.14712l-0.29943 0.32972-0.17308-0.17135zm1.106-21.493 0.15578 0.17135v0.135l-0.29251 0.36018h-0.79445l-0.32367-0.36018zm-1.4227 9.0063 0.15578 0.14712h0.15577l0.46386-0.14712 0.15578 0.14712v0.19541l-0.31155 0.28697h-0.94677l-0.30462-0.28697zm-0.6231-26.524h0.15578v0.30532h-0.15578zm-0.17308 18.623h0.17308l0.15578 0.17706 0.15577-0.17706h0.31674l0.4829 0.48238-0.32366 0.29926h-0.95196l-0.31154-0.29926v-0.15924zm0.47598-6.9486v0.47009h0.79964l0.64733 0.6655v0.135l-0.97099 0.48238h-0.78234l-0.4829-0.48238v-0.29303l0.4829-0.65339-0.17308-0.17135 0.17308-0.15231zm-1.087 0h0.29943v0.47009h-0.29943zm-1.4297 27.013h0.47598v-0.29909h-0.47598zm-2.5341 2.3935h0.32367v-0.34807zm-2.0516 12.932h0.17308v0.32366h-0.17308zm0-4.1032 0.17308 0.1402v0.15924l-0.17308 0.17135h-0.17308l-0.15578-0.17135v-0.15924l0.15578-0.1402zm-7.5776-19.747 0.31155 0.32366-0.17308 0.16443h-0.13847zm-0.15578 8.3713h0.15578v0.31743h-0.15578zm-3.9627-30.322v0.47009h-0.13847l-0.33578-0.29926 0.18347-0.17135zm0.49501 12.78v0.33578l-0.17654 0.16443v0.1402c-0.72695-0.10385-1.0991-0.25028-1.0991-0.47009l0.15578-0.17135zm-1.2756-12.78v0.47009l-0.31155-0.29926 0.15578-0.17135zm-1.7341 13.745 0.31674 0.30532-0.15578 0.135h-0.15577zm30.957-24.65c4.8359 0 8.3346 0.12289 10.588 0.31743l3.6209-0.31743 1.575 13.433-0.47598 0.31743c-0.85503 0-1.4954-1.209-1.8807-3.6331-1.466-3.4682-2.9614-5.4709-4.4268-5.9961-1.4158-1.5754-5.4833-2.3752-12.181-2.3752l-7.7181 0.18935-0.15578 0.11597v9.6474l0.15578 0.61669-0.15578 0.62275v6.9608l0.79445-0.1402 0.13847 0.1402v0.31138c0 0.21376-0.31155 0.30532-0.93984 0.30532v2.1004l0.15577 0.61669-0.15577 0.45192 0.93984 0.80605h2.3631c3.1141 0 5.7519-0.26862 7.9073-0.80605v-0.15924l-0.15577-0.15924v-0.135l0.15577-0.16443h0.18347l0.13846 0.16443v0.135l-0.13846 0.15924h0.13846l0.47079-0.62898 0.17308 0.17135h0.15578l0.30462-0.32366-0.15577-0.12808c1.0627 0 2.1064-2.8026 3.169-8.3774l0.4829-0.33578h0.46386l0.47598 0.46403v2.5401c0 0.27486-0.42752 0.97688-1.2635 2.1859v0.50073l1.0991 1.2822v8.9697l0.31674 0.35413-0.15577 0.11597v3.6514c0 1.4655-0.23193 2.1982-0.62829 2.1982h-0.46387c-0.55559 0-1.0679-1.9906-1.6062-5.9655-0.84811-2.7721-2.9064-4.1399-6.1488-4.1399h-5.3488l-1.1302 0.29909 0.15577-0.15924v-0.1402h-1.8928v18c0 3.8895 0.6906 5.8251 2.0516 5.8251 0.88445 0.23816 2.0334 0.35413 3.4926 0.35413h1.7222c0.58675 0 0.94676 0.18918 1.1112 0.6411v0.11597c0 0.21982-0.50021 0.44569-1.4158 0.65945l-17.524-0.31138-8.8476 0.31138c-0.55559-0.15231-0.80656-0.27486-0.80656-0.47632v-0.29909c0-0.45192 1.8013-0.75706 5.3794-0.99523 1.35-0.36019 2.0455-1.38 2.0455-3.1507v-10.099l-0.15577-0.14712v-0.15924l-0.17309 0.15924h-0.30462l-0.32886-0.32366 0.48809-0.47632 0.13847 0.15924h0.17308l0.15578-0.15924v-9.7818l-0.15578-0.16443v-0.14712l-0.17308 0.14712h-0.30463l-0.33058-0.29303 0.33058-0.36018 0.47079 0.18918 0.15577-0.18918v-5.1901l-0.15577-0.62898 0.15577-0.62898v-0.48238l-0.47078-0.12808-0.15578 0.12808h-0.48809v-0.47009h0.31674l0.17308 0.14712h0.15578l0.47078-0.31138v-1.7341h-0.32366v-0.44569h0.32366v-11.388c0-1.4655-1.5387-2.2104-4.5917-2.2104-1.3552-0.12808-2.0271-0.35413-2.0271-0.62898v-0.34201c0-0.29926 0.51232-0.45798 1.5508-0.45798v-0.15231h0.33578v0.15231zm-31.586 42.473h1.1181l0.31155 0.32972v0.15231l-0.4829 0.47009-0.46387-0.14712 0.30463 0.49467-0.47598 0.46404h-0.92772l-0.48809-0.46404 0.77541-0.65339 0.32885-0.64716" fill="#5a5758"/>
  <path d="m-145.17-21.679h0.33578v0.17706h-0.33578zm0.17309 8.0721h0.17308v0.63504h-0.17308l-0.31675-0.29926zm0-2.9797 0.17308 0.12808v0.18312l-0.33578 0.31138-0.15578-0.15924v-0.15231zm0 1.5754h0.17308v0.9587l-0.33578 0.30532h-0.30463v-0.17135l0.30463-0.32972-0.15578-0.15924v-0.29303zm-0.65426-8.3774h0.17309v0.30532h-0.17309zm0-7.4432h0.17309v0.31743h-0.17309zm-0.13846 5.8373h0.31674l0.30462 0.34807v0.31138l-0.4829 0.43963h-0.13846l-0.4829-0.43963v-0.17135zm0 3.8284 0.13846 0.14712v0.15231l-0.62309 0.45192h-0.13847l-0.32886-0.29909 0.95196-0.45192m-1.582-19.57 0.31155 0.28697v0.17135h-0.31155l-0.30462-0.33578 0.13846-0.12289zm0.17308 22.073 0.13847 0.14712v0.33578l-0.4829 0.45798h-0.61098v-0.45798zm-0.63521-3.1324 0.17308 0.11596v0.18312l-0.17308 0.1402h-0.18347l-0.12116-0.1402v-0.18312l0.12116-0.11596zm0.47079-13.885h0.31154l0.31675 0.26862v0.17706l-0.31675 0.31743h-0.78233l-0.31155-0.31743zm-0.94677 3.1079 0.29251 0.33578-0.12116 0.1402h-0.17308zm-0.15577-1.5387h0.15577v0.30532h-0.15577zm-0.13847 12.945h0.30463v0.29926h-0.30463zm1.2514-21.957h0.31155l0.17308 0.14712 0.13847-0.14712h0.15577c0.31155 0.03635 0.47598 0.47632 0.47598 1.2578-0.21982 0.64716-0.63521 0.96476-1.2635 0.96476-0.84811-0.0675-1.2514-0.47632-1.2514-1.264 0.21462-0.64733 0.59886-0.9587 1.2514-0.9587m-0.94677 11.351c0.77541 0 1.2029 0.15231 1.2583 0.49467v0.44569c-0.24404 0.53119-0.6906 0.78164-1.2583 0.78164l-0.47078-0.60458v-0.62275zm-19.753-1.8745v0.48844l0.32367-0.32366-0.15578-0.16443zm-1.3985 5.5259v0.32366l0.32367-0.32366zm-1.4297-7.895h0.31155v-0.17706h-0.31155zm-0.17308 2.9919 0.32366 0.34201h0.31155v-0.34201l-0.31155-0.32972zm-0.45867-13.903h0.29943v-0.32366h-0.29943zm-1.7464 18.324-0.17308 0.14712v0.33578h0.47598v-0.16443zm-16.584-23.221h0.32366v0.14712h-0.32366zm-6.1488 9.3238h0.13847v0.33578h-0.13847zm-0.80656-15.46 29.693 0.135 17.689-0.135 0.15578 0.135v0.15924c0.20077 3.5415 0.68367 8.1087 1.4227 13.751l-0.47598 0.30532c-1.0073 0-1.9418-1.9051-2.8332-5.6847-1.1112-2.65-2.589-4.5245-4.4207-5.5381-1.8257-0.91595-4.9214-1.4349-9.3238-1.4349h-2.2165v8.7132l-0.15577 0.62898 0.15577 0.6411v3.7857l-0.29943 0.46403 0.29943 0.48238v29.852c0 2.2043 1.2583 3.3216 3.7796 3.3216 2.9552 0.17706 4.4328 0.48844 4.4328 0.94036v0.29926c0 0.17135-0.36001 0.40294-1.1181 0.65339l-12.487-0.48238-13.561 0.29303-1.087 0.18918c-0.74425-0.21376-1.1181-0.39688-1.1181-0.65339v-0.14712c0-0.45798 1.8928-0.7022 5.6847-0.79376 1.6789-0.57394 2.5279-1.0319 2.5279-1.4165l0.15577-6.3136v-40.458h-0.15577c-7.9317 0-12.615 1.5631-14.062 4.5917-1.0316 2.1005-1.8134 4.6833-2.3569 7.7607l-0.4829 0.61669-0.15577 0.17706h-0.80657l-0.47078-0.65339c0.7581-9.0124 1.222-13.763 1.4348-14.184zm-3.3277 56.206h0.18347v0.31761h-0.18347zm-0.61618-69.816 0.31674 0.32366h-0.31674zm-0.63521 42.65h0.17308v0.31761h-0.17308zm0-41.38 0.32886 0.30532-0.17309 0.17706h-0.17308l-0.31674-0.29926 0.17308-0.18312z" fill="#7b7979"/>
  <g transform="matrix(6.106 0 0 -6.106 -318.51 -58.73)">
   <path d="m0 0 0.048 0.051-0.048 0.051h-0.03l-0.05-0.051 0.05-0.051zm12.151-1.88h-0.047l-0.03-0.023 0.054-0.051h0.023zm-0.385-5.379-0.05 0.079 0.076-0.027 0.079 0.075v0.028l-0.051 0.055h-0.184l-0.053-0.1-0.127-0.11 0.08-0.08h0.152zm0.232 5.379-0.025-0.023 0.05-0.051v0.074zm-12.103-2.619 0.029-0.029 0.076 0.132h-0.03l-0.075-0.079zm-1.086-3.03-0.08-0.028-0.076 0.055 0.105 0.078h0.051zm-0.131-0.443h-0.157l-0.046 0.133 0.098 0.099h0.025c0.107 0 0.16-0.051 0.16-0.153zm-0.157-0.354h-0.075l-0.128 0.125-0.155-0.026-0.105 0.081 0.025 0.151-0.076 0.054c-0.092 0-0.152 0.102-0.182 0.304l0.182 0.056h0.051l0.156-0.023 0.077 0.023 0.075-0.077c0-0.034-0.048-0.051-0.152-0.051v-0.031l0.104-0.174-0.054-0.081 0.027-0.104v-0.027l0.206 0.056c0.086 0 0.13-0.058 0.13-0.187zm-0.879 0.926 0.106 0.157h0.077c0-0.103 0.045-0.165 0.129-0.181l-0.129-0.133c-0.077 0-0.136 0.055-0.183 0.157m-0.309-0.957-0.128 0.1v0.056l0.105 0.055 0.048 0.099 0.028 0.026h0.102l0.053-0.049c0-0.088-0.068-0.187-0.208-0.287m1.9 1.442-0.01 0.449 0.101-0.03c0.109 0.036 0.154 0.074 0.154 0.11v0.05l-0.098 0.1h-0.136l-0.021-0.022v0.802l-0.026 0.177c0.102 0.026 0.156 0.049 0.156 0.082v0.019l-0.08 0.08h-0.029l-0.021-0.025v0.025l-0.026 0.028v0.052l0.026 0.024h0.021l0.029-0.024h0.107l0.072 0.078v0.026l-0.072 0.077h-0.081l-0.055-0.054-0.047 0.054v0.564l0.076 0.058v0.075l-0.076 0.1v2.071h0.021c-0.046 0.261-0.031 0.477 0.016 0.649h-0.037c0 0.624 0.065 0.928 0.206 0.928 0.567 0.03 0.855 0.069 0.855 0.132v0.049l-0.081 0.08h-1.499v0.026l0.056 0.026-0.227-0.026 0.014-0.026h-2.428l-0.105-0.101c0.03-0.074 0.089-0.107 0.18-0.107h0.494c0.292 0 0.439-0.161 0.439-0.486v-2.641c-0.086-0.094-0.13-0.167-0.13-0.232l0.13-0.108v-3.077l-0.052-0.077v-0.021c0.052-0.127 0.104-0.185 0.156-0.185v-0.103c-0.091-0.121-0.154-0.181-0.182-0.181l0.078-0.052v-0.102l-0.026-0.26c0-0.206-0.131-0.337-0.391-0.393-0.532-0.018-0.798-0.062-0.798-0.148 0-0.058 0.137-0.089 0.414-0.105h1.577l0.159 0.129 0.178-0.129h1.03v0.052l-0.123 0.132 0.123 0.18v0.722l-0.01 0.41-1e-3 0.099m-2.21 2.566h-0.051v-0.073h0.051zm0-1.887v0.057l-0.052-0.057zm10.954 6.923 0.026 0.021v0.027l-0.026 0.024h-0.026l-0.024-0.024v-0.027l0.024-0.021zm-8.287-4.982h-0.025v-0.054h0.025zm7.745 5.524 0.025 0.023v0.026l-0.025 0.029h-0.026l-0.03-0.029v-0.026l0.03-0.023zm1.108 0v0.049l-0.049 0.055h-0.052l-0.048-0.055 0.1-0.1zm0.286 0.257h-0.051v-0.026h0.051zm-2.79-0.419 0.023 0.034v0.022l-0.023 0.027h-0.028l-0.022-0.027v-0.022l0.022-0.034zm-5.575-1.146v0.024l-0.055 0.055h-0.026l-0.074-0.079 0.074-0.079zm6.659 1.075h-0.051v-0.027h0.051zm-6.946-0.689-0.073 0.103h-0.056l-0.048-0.053v-0.021l0.048-0.054zm5.706-0.141-0.054 0.054h-0.025v-0.08h0.079zm6.024-0.799h0.026v0.05h-0.026zm-5.043-0.057 0.049-0.048 0.056 0.048-0.056 0.057zm-0.154-0.358 0.041-0.042 0.039 0.065-0.03 0.028zm-0.13 0.157h-0.025v-0.054h0.025zm-0.05-0.13h0.078v0.024l-0.028 0.026zm1.397 0.773 0.024-0.023 0.052 0.048h-0.076zm0.334-0.023h0.054v0.023h-0.054zm-0.028-0.132 0.078-0.022h3e-3v0.026h-0.077zm-0.904 0.08 0.05-0.052h0.081v0.024l-0.081 0.08zm-1.058-2.2-0.026-0.029v-0.023l0.026-0.027h0.025l0.025 0.027v0.023l-0.025 0.029zm-6.891 1.976 0.053-0.05h0.019v0.081h-0.049zm0.053-0.361 0.017-0.031 0.087 0.081-0.032 0.033h-0.027l-0.045-0.055zm0.098-3.775v0.027l-0.026 0.026-0.102-0.053v-0.08h0.03zm-0.098 0.184 0.072 0.077v0.026l-0.053 0.047h-0.049l-0.079-0.073 0.079-0.077zm4.407-2.162v0.052h-0.056zm-4.282 3.479-0.08 0.075h-0.045l-0.08-0.075v-0.028l0.099-0.078 0.106 0.078zm3.802-3.619h-0.027l-0.026 0.022 0.053 0.054h0.028l0.023-0.025zm-0.337-1.58h-0.026l-0.053 0.055v0.05h0.079zm-0.284 0.282-0.075 0.078 0.075 0.08 0.081-0.08zm-0.026-0.227-0.049 0.05v0.019h0.049zm0.882 1.703v0.287l-0.078 0.157h-0.029l-0.077-0.057-0.233-0.799c0-0.318-0.249-0.641-0.751-0.96-0.256-0.068-0.384-0.133-0.384-0.206l-0.186 0.026c-0.535-0.052-1.055-0.082-1.548-0.082h-0.831l-0.026-0.019c0-0.124-0.038-0.182-0.128-0.182v-0.052l2.353-0.028c0.053 0 0.104 0.05 0.156 0.157 0.155 0 0.231-0.053 0.231-0.157l1.217-0.023h0.236l0.051 0.051v0.384l-0.028 0.027-0.282-0.177-0.157 0.101 0.026 0.18-0.078 0.183v0.103c0 0.118 0.088 0.234 0.258 0.337 0.139 0 0.251 0.059 0.338 0.178h-0.077zm-3.962 1.474 0.014 0.045-0.04 0.034h-0.021l-0.028-0.028 0.049-0.051zm12.328 2.002v0.083h0.024l0.028-0.027zm-0.054-2.869h-0.025v0.051h0.025zm-0.127 1.915c-0.106 0.061-0.155 0.162-0.155 0.31v0.105l0.076 0.079h0.025c0.054 0 0.094-0.079 0.129-0.235zm0-1.962c0-0.116-0.07-0.192-0.208-0.238-0.207 0-0.31 0.08-0.31 0.238 0 0.116 0.087 0.198 0.258 0.226 0.085 0 0.171-0.057 0.26-0.179zm-0.597 0.821 0.079 0.109 0.155-0.109-0.078-0.102-0.156 0.102m-0.05-1.134-0.028-0.024-0.101 0.024 0.076 0.075 0.053-0.049zm-0.155 1.527h0.102v-0.102h-0.048l-0.054 0.053zm0-0.18h-0.078v0.049l0.026 0.029 0.052-0.057zm-0.184-1.422v0.075h0.027l0.025-0.024zm-0.1-0.595h-0.028v0.05h0.028zm-0.13-0.29v0.055h0.049zm-0.208 0.806-0.05 0.049 0.05 0.053 0.053-0.053zm-0.026-0.385v0.048h0.052zm-0.103 0.102h-0.076l-0.081 0.071v0.028l0.081 0.105 0.155-0.105-0.079-0.099m-0.179 0.617h-0.055v0.028h0.055zm-0.055-1.085h-0.077v0.074h0.027l0.05-0.045zm-0.26 1.113c-0.233-1.399-0.768-2.098-1.599-2.098h-0.183c-0.615 0-1.091 0.31-1.421 0.93-0.202 0.453-0.323 0.685-0.364 0.703l-0.155-0.028c-0.09 0.038-0.16 0.116-0.207 0.233v0.028c0.051 0.095 0.137 0.174 0.258 0.232l-0.153 0.803-0.129-0.031h-0.051l-0.105 0.107v0.047l0.156 0.138 0.024-0.029h0.079l-0.054 0.775v0.101l0.026 0.027-0.026 0.023v0.541c0 0.485 0.026 0.834 0.08 1.04l-0.08 0.024v0.027l0.104 0.052 0.027 0.103c0.057 0.488 0.227 0.985 0.516 1.476 0.378 0.586 0.817 0.881 1.315 0.881h0.136c0.523 0 0.947-0.22 1.265-0.649v-0.026l-0.027-0.027v-0.024h0.057c0.13-0.227 0.224-0.437 0.285-0.622v-0.024h-0.06l-0.078 0.046 0.028-0.046h3e-3v-4e-3l0.041-0.072 6e-3 -4e-3h0.06l0.02 0.028 0.055-0.182-0.075 0.013c0.091-0.191 0.167-0.403 0.226-0.636 0.256-0.962 0.243-1.874 0.129-2.648-2e-3 -0.414-0.044-0.826-0.129-1.228m-3.257-1.245c-0.025-0.066-0.086-0.121-0.18-0.154-0.175 0.021-0.257 0.092-0.257 0.208l0.051 0.107c0 0.019-0.051 0.04-0.157 0.045l-0.024-0.023c-0.105 0.098-0.156 0.178-0.156 0.234v0.018l0.027 0.033c-0.122 0.049-0.184 0.12-0.184 0.203l0.133 0.133h0.051c0.12 0 0.18-0.052 0.18-0.155 0.189-0.061 0.285-0.146 0.285-0.26l-0.054-0.076v-0.08h0.13c0.105-0.043 0.155-0.11 0.155-0.206zm-0.621-0.261-0.051 0.058h0.051zm-0.39 1.919c0.08 0.12 0.141 0.185 0.186 0.185 0.171-0.028 0.258-0.079 0.258-0.159-0.038-0.119-0.087-0.188-0.156-0.206h-0.024c-0.174 0-0.264 0.054-0.264 0.18m-0.024-1.763h-0.049l0.025 0.105h0.048zm-0.256 1.037h-0.052v0.105h0.052zm-0.105-0.699-0.054-0.05h-0.022v0.081h0.076zm-0.129-0.179h-0.053l0.053 0.047zm-0.285 4.656v0.021l0.029 0.028 0.047-0.049zm0.985 1.448h0.049v-0.027h-0.049zm5.845-3.594h0.05c0.054-0.012 0.079-0.065 0.079-0.159v-0.076c-0.087 0.039-0.129 0.109-0.129 0.205zm-7.06-1.477-0.133-0.024v0.024l0.052 0.053h0.081zm-0.157 1.529h-0.129v0.023l0.129 0.028zm0.056-0.336 0.048-0.052h-0.048zm-0.29-0.437-0.05-0.06h-0.028v0.06l0.078 0.021zm8.329 1.577-0.024 0.018h0.05v0.057h-0.05v0.051c0 0.947-0.389 1.848-1.167 2.687-0.495 0.559-1.175 0.963-2.043 1.218-0.189 0-0.283 0.061-0.283 0.182h-0.079v-0.08l-0.827 0.026c-1.153 0-2.129-0.312-2.925-0.931-0.033 0-0.341-0.283-0.928-0.851v-0.029l0.026-0.024h-0.026l-0.027 0.039c-0.136-0.173-0.275-0.324-0.397-0.457l0.01 1e-3h0.027l0.025-0.023 0.104 0.05h0.024v-0.027c-0.345-0.598-0.519-1.256-0.519-1.963v-0.024l0.029-0.028-0.029-0.023v-0.467l-0.056-0.017 5e-3 -0.062h0.027l0.024 0.027h0.029l0.024-0.079h-0.024c0.055-0.362 0.108-0.573 0.156-0.643 0-0.156 0.127-0.472 0.385-0.936 0.632-0.879 1.259-1.459 1.889-1.734 0.047 0.105 0.111 0.157 0.207 0.157h0.105l0.129-0.157-0.054-0.155c0.472-0.203 1.006-0.304 1.6-0.304 0.749 0 1.388 0.118 1.919 0.361 1.775 0.836 2.664 2.205 2.664 4.11zm-3.391 5.425-0.048 0.054-0.078-0.054 0.052-0.075zm0-2.144-0.022 0.022-0.111-0.054 0.101-0.095 0.032 0.023v0.027l-0.022 0.024v0.027zm11.42 2.093h-0.023v-0.054h0.023zm7.439-4.039 0.124 0.102-0.124-0.102m-12.431-1.963 0.026 0.081 0.055-0.106h0.048l0.029 0.127-0.053 0.054-0.048-0.054h-0.031l-0.026 0.023h-0.025l-0.025-0.023 0.025-0.102zm2.484-0.392-0.025-0.021v-0.028l0.025-0.026h0.026l0.024 0.026v0.028l-0.024 0.021zm-5.069-0.543h0.025l0.026 0.031-0.051 0.049zm1.241-3.879h0.028v0.052h-0.028zm-0.027 0.724-0.024-0.027v-0.022l0.024-0.029h0.027l0.028 0.029v0.022l-0.028 0.027zm1.428 7.946h-0.031v-0.056h0.031zm-0.316-2.82-0.05-0.055v-0.027l0.05-0.053h0.157l0.026 0.032-0.112 0.098-0.017-0.021-0.025 0.026zm2.926 2.502-0.027-0.019v-0.025l0.027-0.027h0.024l0.025 0.027v0.025l-0.025 0.019zm-9.014 1.175 0.026 0.023v0.025l-0.026 0.026h-0.026l-0.028-0.026v-0.025l0.028-0.023zm8.881-1.194 0.057-0.052v0.071h-0.028zm3.126-0.044h0.053v0.028h-0.053zm-8.256-4.274h0.024v0.055h-0.024zm3.035 4.553-0.048 0.047v-0.047zm2.303-2.821h0.028v0.049h-0.028zm1.911 1.021 0.024-0.011v0.029h-0.024zm-4.135 1.694h-0.022v-0.054h0.022zm3.281 2.803 0.026 0.027-0.053 0.049h-0.024l-0.029-0.027 0.053-0.049zm-8.206-1.459v0.03l-0.026 0.026-0.099-0.079v-0.028l0.021-0.019zm-1.114-0.279h-0.05v-0.026h0.05zm2.911-6.988h0.025v0.051h-0.025zm-3.479 7.197 0.029 0.019-0.056 0.051h-0.024l-0.027-0.023 0.051-0.047zm-0.13-0.186h0.03l0.022 0.025-0.052 0.052zm-0.027 0.952 0.027 0.034v0.022l-0.027 0.027h-0.025l-0.027-0.027v-0.022l0.027-0.034zm2.536-2.658h-0.027v-0.054h0.027zm-2.174 1.862v0.03l-0.051 0.047-0.051-0.047v-0.081h0.051zm1.993-1.576v0.023h-0.077l-0.026-0.023 0.051-0.051zm7.767 3.42v-0.052h0.051zm5.352-6.287v0.08h0.027l0.026-0.029zm-0.23-0.88v0.052h0.054zm-0.157 0.806h-0.05l-0.053 0.051 0.053 0.048 0.05-0.048zm-0.025-0.395h-0.051v0.058h0.051zm-0.105 0.112h-0.127l-0.082 0.073v0.026l0.132 0.101 0.104-0.101zm-0.049 2.659h0.049v-0.052h-0.049zm0.102-1.812h0.051v-0.028h-0.051zm-0.337-1.318h-0.078v0.053l0.028 0.022 0.05-0.05zm4.114 2.588c-0.121 0.92-0.2 1.673-0.233 2.248v0.023l-0.027 0.028-2.896-0.028-4.616 0.028 0.045 0.041h-0.08v-0.025l0.019-0.016h-0.256c-0.035-0.071-0.112-0.844-0.235-2.325l0.077-0.104h0.131l0.027 0.025 0.078 0.105c0.089 0.502 0.218 0.925 0.387 1.266 0.237 0.503 1.004 0.754 2.302 0.754h0.027v-6.622l-0.027-1.036c0-0.064-0.138-0.14-0.414-0.234-0.62-0.013-0.93-0.057-0.93-0.129v-0.026c0-0.038 0.061-0.076 0.183-0.102l0.178 0.02 2.221 0.054 2.045-0.074c0.124 0.043 0.183 0.074 0.183 0.102v0.052c0 0.073-0.243 0.122-0.726 0.154-0.413 0-0.619 0.183-0.619 0.543v4.889l-0.049 0.079 0.049 0.073v0.626l-0.026 0.101 0.026 0.103v1.427h0.362c0.721 0 1.229-0.079 1.528-0.237 0.3-0.168 0.542-0.469 0.724-0.906 0.145-0.62 0.299-0.929 0.464-0.929zm-10.366-3.221h0.053v-0.024h-0.053zm-2.69-1.234h-0.078v0.049h0.078zm-0.439-0.392h-0.054l0.054 0.052zm4.087 7.113c-0.369 0.033-0.942 0.049-1.734 0.049l-4.682-0.049v0.028h-0.054v-0.028c-0.17 0-0.254-0.028-0.254-0.077v-0.056c0-0.044 0.109-0.079 0.331-0.099 0.5 0 0.753-0.121 0.753-0.361v-1.865h-0.053v-0.08h0.053v-0.283l-0.078-0.052h-0.025l-0.028 0.029h-0.052v-0.08h0.08l0.025 0.028 0.078-0.028v-0.077l-0.027-0.107 0.027-0.097v-0.856l-0.027-0.023-0.076 0.023-0.054-0.05 0.054-0.051h0.05l0.026 0.024v-0.024l0.027-0.031v-1.608l-0.027-0.018h-0.026l-0.025 0.018-0.079-0.069 0.054-0.052h0.05l0.026 0.019v-0.019l0.027-0.029v-1.65c0-0.288-0.114-0.461-0.335-0.528-0.586-0.033-0.881-0.082-0.881-0.15v-0.052c0-0.029 0.041-0.054 0.132-0.077l1.449 0.05 2.87-0.05c0.15 0.033 0.232 0.075 0.232 0.105v0.024c-0.027 0.068-0.086 0.106-0.182 0.106h-0.282c-0.239 0-0.427 0.011-0.572 0.044-0.223 0-0.336 0.325-0.336 0.962v2.951h0.31v-0.027l-0.026-0.024 0.185 0.051h0.876c0.531 0 0.867-0.221 1.007-0.672 0.088-0.653 0.172-0.982 0.263-0.982h0.076c0.065 0 0.103 0.118 0.103 0.359v0.595l0.025 0.028-0.052 0.048v1.477l-0.18 0.206v0.081c0.137 0.196 0.207 0.319 0.207 0.364v0.409l-0.079 0.081h-0.075l-0.079-0.055c-0.175-0.919-0.346-1.368-0.519-1.368l0.026-0.028-0.05-0.054h-0.025l-0.028 0.025-0.078-0.1h-0.021l0.021 0.028v0.02l-0.021 0.027h-0.03l-0.025-0.027v-0.02l0.025-0.028v-0.027c-0.353-0.087-0.786-0.132-1.295-0.132h-0.388l-0.153 0.132 0.025 0.075-0.025 0.109v0.338l0.118 9e-3 -0.046 0.102-0.072-9e-3v1.132l0.025 0.108-0.025 0.099v1.579l0.025 0.03 1.265 0.025c1.096 0 1.762-0.132 1.995-0.387 0.239-0.093 0.485-0.425 0.724-0.986 0.063-0.394 0.169-0.595 0.309-0.595l0.078 0.054-0.259 2.195zm-3.338-0.387h-0.025v-0.055h0.025zm-3.377-0.823h-0.048v-0.055h0.048zm0 0.335h-0.048v-0.055h0.048zm5.036-2.72 0.047 0.074-0.077 0.082-0.101-0.135 0.131-0.021m-1.556-1.165-0.026 0.024-0.102-0.049 0.05-0.055h0.089l0.05 0.09-0.035-0.01z" fill="#fff"/>
  </g>
  <g transform="matrix(6.106 0 0 -6.106 -322.3 -75.283)">
   <path d="m0 0v-0.452h0.654v-0.175h-0.654v-1.313c0-0.259 0.072-0.453 0.329-0.453 0.127 0 0.215 0.018 0.272 0.039l0.023-0.163c-0.07-0.033-0.18-0.054-0.314-0.054-0.164 0-0.297 0.05-0.383 0.152-0.106 0.117-0.14 0.307-0.14 0.501v1.291h-0.376v0.175h0.376v0.388z" fill="#fff"/>
  </g>
  <g transform="matrix(6.106 0 0 -6.106 -317.18 -78.7)">
   <path d="m0 0h0.21v-1.433h0.01c0.064 0.131 0.178 0.253 0.322 0.332 0.129 0.089 0.291 0.138 0.463 0.138 0.195 0 0.804-0.088 0.804-0.94v-1.177h-0.21v1.174c0 0.393-0.172 0.756-0.652 0.756-0.326 0-0.604-0.233-0.701-0.486-0.026-0.061-0.036-0.127-0.036-0.222v-1.222h-0.21z" fill="#fff"/>
  </g>
  <g transform="matrix(6.106 0 0 -6.106 -294.36 -67.232)">
   <path d="m0 0c6e-3 0.211-0.084 0.742-0.706 0.742-0.525 0-0.741-0.431-0.786-0.742zm-1.507-0.173c0-0.601 0.388-0.901 0.875-0.901 0.359 0 0.528 0.069 0.66 0.125l0.059-0.163c-0.076-0.038-0.307-0.141-0.741-0.141-0.638 0-1.057 0.433-1.057 1.032 0 0.698 0.443 1.136 1.031 1.136 0.767 0 0.899-0.678 0.899-0.955l-8e-3 -0.133z" fill="#fff"/>
  </g>
 </g>
</svg>
