<svg width="800" height="208.86" version="1.1" viewBox="0 0 211.67 55.26" xmlns="http://www.w3.org/2000/svg">
 <g transform="translate(126.78 85.182)">
  <g transform="matrix(5.284 0 0 -5.284 -96.907 -46.376)" fill="#fff">
   <path d="m0 0h5.689l0.041 0.363c0.424-0.31 0.956-0.474 1.541-0.474l0.043-3e-3c0.09 0 0.236 9e-3 0.401 0.018-0.425-0.574-0.588-1.044-0.612-1.113l-0.396-1.241 0.06-0.318 1.354 0.707c1.188 0.621 2.365 0.923 3.594 0.923 1.349 0 2.558-0.366 3.593-0.709 2.554-0.843 4.968-1.267 7.182-1.267 3.726 0 6.095 1.214 7.064 2.355 0.367 0.429 0.517 0.807 0.569 1.125 0.429-0.313 0.959-0.477 1.55-0.477 1.083 0 1.792 0.502 2.118 0.8l0.016 0.013 9e-3 8e-3c0.337 0.342 0.502 0.69 0.502 1.068 0 0.36-0.17 0.684-0.429 0.908l0.515 0.263-0.314 0.635c-0.428 0.866-1.201 1.344-2.186 1.344-0.416 0-0.827-0.106-1.195-0.293l0.034 0.356h-0.794c-0.224 0-0.579-0.054-0.928-0.308-0.291 0.171-0.667 0.29-1.132 0.29-0.619 0-1.186-0.228-1.606-0.594 0.083 0.865 0.16 1.681 0.18 1.868l0.05 0.537-0.368 0.56-0.735-0.395-1.836-0.976-0.676-0.365 0.401-0.647 0.024-0.041c-0.674-0.095-1.265-0.45-1.688-0.962 0.011 0.106 0.018 0.181 0.019 0.229 0 0 0.031 0.332 0.031 0.542 0 0.208-0.11 0.617-0.11 0.617-0.046 0.102-0.102 0.202-0.175 0.284-0.155 0.168-0.441 0.375-0.933 0.375-0.754 0-1.419-0.515-1.56-1.174-0.216 0.078-0.473 0.142-0.729 0.142-0.098 0-0.2-8e-3 -0.299-0.027l-0.161 0.401-0.952-0.486-1.405-0.72c0.091 0.201 0.139 0.396 0.157 0.573 0.049 0.452-0.092 0.89-0.396 1.225-0.395 0.439-1.043 0.686-1.772 0.686h-3.868l-0.068-0.639-0.057-0.523-0.084-0.791h0.588c-6e-3 -0.11-0.017-0.235-0.033-0.369-0.023-0.242-0.049-0.536-0.076-0.838l-0.063 0.123c-0.429 0.862-1.209 1.34-2.187 1.34-0.769 0-1.508-0.358-2.023-0.905-0.075 0.177-0.17 0.319-0.262 0.421-0.219 0.241-0.623 0.529-1.343 0.529-0.134 0-0.272-0.012-0.397-0.038l0.104 1.023 0.095 0.89-0.227 0.283-0.904-0.459-0.491-0.252-0.376 0.145-0.393 0.146-0.389 0.148-0.281-0.234h-3.948c-0.225 0-0.38 0.03-0.575 0.071l-0.561 0.106-0.233-0.517-0.626-1.383-0.326-0.731 0.76-0.246 0.403-0.128 0.596-0.193 0.269 0.561c0.122 0.248 0.321 0.52 0.525 0.52h0.035c-0.104-0.986-0.228-2.176-0.284-2.732h-0.711l-0.066-0.643-0.054-0.519-0.041-0.395 0.197-0.396h3.706z" fill="#fff"/>
  </g>
  <g transform="matrix(5.284 0 0 -5.284 -89.806 -78.029)">
   <path d="m0 0-0.385 0.146c-0.095-0.077-0.167-0.131-0.344-0.131h-4.024c-0.293 0-0.499 0.042-0.718 0.083l-0.623-1.385 0.406-0.129c0.249 0.517 0.644 0.921 1.169 0.921h0.828c-0.123-1.192-0.362-3.489-0.396-3.797-0.028-0.26-0.168-0.367-0.374-0.367h-0.373l-0.052-0.518h2.505l0.053 0.518h-0.292c-0.207 0-0.336 0.125-0.307 0.386 0.013 0.165 0.352 3.277 0.405 3.752h1.03c0.408 0 0.513-0.209 0.493-0.418-0.011-0.084-0.06-0.202-0.112-0.332l0.394-0.134z" fill="#fcd006"/>
  </g>
  <g transform="matrix(5.284 0 0 -5.284 -89.135 -75.237)">
   <path d="m0 0 1.323 0.667-0.251-2.414c0.363 0.358 0.744 0.634 1.257 0.634 0.698 0 1.066-0.367 0.995-1.014-0.065-0.68-0.141-1.419-0.172-1.718-0.025-0.208 0.024-0.3 0.19-0.3h0.21l-0.054-0.503h-1.915l0.048 0.503h0.197c0.121 0 0.223 0.07 0.239 0.228 0.011 0.108 0.119 1.125 0.147 1.436 0.036 0.328-0.134 0.498-0.429 0.498-0.392 0-0.748-0.409-0.771-0.667-0.023-0.203-0.095-0.912-0.127-1.235-0.018-0.163-0.018-0.26 0.214-0.26h0.139l-0.054-0.503h-1.941l0.052 0.503h0.242c0.192 0 0.24 0.082 0.262 0.293 0.013 0.161 0.297 2.845 0.31 3.011 0.022 0.187-0.037 0.316-0.201 0.316l-0.203-0.055z" fill="#fcd006"/>
  </g>
  <g transform="matrix(5.284 0 0 -5.284 8.7217 -69.334)">
   <path d="m0 0c0.416 0 0.838 0.252 0.878 0.653 0.018 0.16-0.079 0.385-0.476 0.385-0.439 0-0.834-0.314-0.871-0.644-0.026-0.246 0.182-0.394 0.469-0.394" fill="#f57c14"/>
  </g>
  <g transform="matrix(5.284 0 0 -5.284 4.7535 -53.337)">
   <path d="m0 0h-0.191l-0.052-0.504h1.955l0.051 0.504h-0.202c-0.134 0-0.238 0.069-0.218 0.26 0.028 0.292 0.256 2.456 0.286 2.771l-1.74-0.823 0.15-0.296 0.177 0.048c0.107 0 0.185-0.061 0.172-0.172-0.014-0.116-0.153-1.47-0.163-1.573-0.015-0.159-0.112-0.215-0.225-0.215" fill="#f57c14"/>
  </g>
  <g transform="matrix(5.284 0 0 -5.284 30.652 -56.387)">
   <path d="m0 0c-0.137-0.23-0.352-0.384-0.553-0.384-0.541 0-0.834 0.627-0.761 1.336 0.052 0.509 0.375 0.932 0.827 0.932 0.454 0 0.653-0.352 0.627-0.6-0.017-0.157-0.095-0.852-0.14-1.284m1.725-0.259-0.082 0.383c-0.081-0.048-0.153-0.083-0.262-0.083-0.209 0-0.269 0.156-0.252 0.337 0.018 0.117 0.404 4.139 0.404 4.139l-1.84-0.981 0.207-0.334c0.08 0.041 0.132 0.08 0.231 0.08 0.119 0 0.239-0.08 0.223-0.253-0.01-0.074-0.097-0.606-0.122-0.811-0.237 0.136-0.419 0.212-0.758 0.212-1.122 0-1.874-0.898-1.976-1.852-0.09-0.87 0.361-1.77 1.397-1.77 0.469 0 0.762 0.164 1.046 0.448l-0.045-0.459z" fill="#f57c14"/>
  </g>
  <g transform="matrix(5.284 0 0 -5.284 49.342 -48.807)">
   <path d="m0 0c0.475 0 0.655 5e-3 0.625-0.264-0.029-0.301-0.606-0.662-1.27-0.662-0.707 0-1.041 0.352-1.021 0.594 0.029 0.235 0.128 0.386 0.317 0.513 0.384-0.167 0.87-0.181 1.349-0.181m-0.584 2.779c0.041 0.413 0.262 0.585 0.523 0.585 0.418 0 0.673-0.547 0.623-1.002-0.033-0.349-0.248-0.512-0.506-0.512-0.382 0-0.691 0.427-0.64 0.929m-0.065-1.427c0.128-0.02 0.28-0.032 0.484-0.032 0.804 0 1.489 0.535 1.573 1.313 0.014 0.118 0.039 0.268 0.092 0.351 0.16 0.245 0.348 0.313 0.629 0.313l0.064 0.613c-0.447 0-0.729-0.343-0.896-0.65-0.126 0.313-0.495 0.629-1.161 0.629-0.899 0-1.542-0.621-1.618-1.322-0.051-0.484 0.226-0.813 0.472-1.016-0.056-0.021-0.242-0.105-0.408-0.206 0 0-0.189-0.13-0.302-0.263-0.08-0.099-0.092-0.202-0.092-0.225-0.023-0.213 0.033-0.303 0.15-0.44-0.44-0.228-0.69-0.499-0.721-0.812-0.042-0.4 0.313-0.8 0.965-0.951-2.434-0.509-6.243 0.132-10.275 1.577-0.128 0.045-0.84 0.271-0.84 0.271-0.856 0.263-0.834 0.224-1.548 0.329-0.926 0.133-1.661 0.07-1.661 0.07l-0.039-2e-3c-0.671-0.044-1.285-0.173-1.545-0.256-0.18-0.061-0.528-0.216-0.837-0.401-0.412-0.244-0.804-0.556-0.939-0.692-0.652-0.68-0.863-1.341-0.863-1.341 3.125 1.636 5.7 0.939 7.741 0.263 9.283-3.074 14.132 0.355 13.884 1.886-0.103 0.663-1.041 0.658-1.871 0.522h-0.016c-0.378 0-0.662 0.059-0.636 0.277 6e-3 0.075 0.093 0.153 0.214 0.195" fill="#f57c14"/>
  </g>
  <g transform="matrix(5.284 0 0 -5.284 66.717 -63.039)">
   <path d="m0 0c0.033 0.325 0.271 0.54 0.538 0.54 0.344 0 0.506-0.226 0.598-0.416l-1.113-0.547c-0.03 0.116-0.047 0.209-0.023 0.423m1.987-0.775c-0.314 0-0.57-0.225-0.57-0.502 0-0.135 0.067-0.265 0.168-0.356-0.15-0.074-0.303-0.121-0.455-0.121-0.383 0-0.8 0.293-0.957 0.824l2.233 1.138c-0.301 0.608-0.831 0.949-1.542 0.949-1.016 0-1.924-0.849-2.011-1.732-0.108-1.033 0.613-1.876 1.774-1.876 0.726 0 1.286 0.287 1.639 0.613 0.21 0.21 0.291 0.388 0.291 0.561 0 0.277-0.256 0.502-0.57 0.502" fill="#f57c14"/>
  </g>
  <g transform="matrix(5.284 0 0 -5.284 -62.241 -63.039)">
   <path d="m0 0c0.035 0.325 0.275 0.54 0.542 0.54 0.343 0 0.507-0.226 0.599-0.416l-1.116-0.547c-0.036 0.116-0.048 0.209-0.025 0.423m1.943-0.801c-0.318 0-0.566-0.23-0.566-0.508 0-0.135 0.058-0.257 0.154-0.346-0.068-0.154-0.26-0.196-0.439-0.178-0.375 0.047-0.758 0.372-0.919 0.903l2.239 1.138c-0.307 0.608-0.835 0.949-1.543 0.949-1.015 0-1.925-0.849-2.017-1.732-0.108-1.033 0.616-1.876 1.783-1.876 0.033 0 0.352-0.011 0.679 0.048 0.265 0.046 0.525 0.132 0.733 0.26 0.193 0.116 0.322 0.276 0.388 0.433 0.081 0.192 0.076 0.38 0.076 0.401 0 0.278-0.257 0.508-0.568 0.508" fill="#fcd006"/>
  </g>
  <g transform="matrix(5.284 0 0 -5.284 -35.005 -75.48)">
   <path d="m0 0h0.91c0.634 0 0.949-0.394 0.903-0.83-0.047-0.472-0.59-0.811-1.156-0.811h-0.831zm-1.172-0.355c-0.014-0.144-0.207-2.196-0.327-3.46l9e-3 5e-3c0.257 0.081 0.667 0.171 1.135 0.233l0.146 1.425h0.85c0.775 0 1.185-0.398 1.132-0.956-0.017-0.163-0.075-0.304-0.162-0.432 0.153-0.015 0.312-0.032 0.477-0.058 0.137-0.017 0.25-0.028 0.342-0.047 0.166-0.019 0.293-0.036 0.428-0.066 0.126 0.197 0.208 0.421 0.232 0.661 6e-3 0.049 0.02 0.287-0.062 0.488-0.044 0.108-0.174 0.359-0.352 0.495-0.242 0.187-0.568 0.266-0.779 0.303 0.705 0.238 1.061 0.615 1.115 1.138 0.074 0.699-0.621 1.123-1.455 1.123h-3.217l-0.062-0.523h0.318c0.171 0 0.258-0.104 0.232-0.329" fill="#f57c14"/>
  </g>
  <g transform="matrix(5.284 0 0 -5.284 -14.519 -62.718)">
   <path d="m0 0c0.159 0 0.211-0.142 0.196-0.263-0.014-0.169-0.115-1.118-0.13-1.285l-0.018-0.081c0.233-0.069 0.585-0.182 0.686-0.219 0.297-0.106 0.59-0.203 0.887-0.301l0.039 0.374h-0.232c-0.201 0-0.289 0.096-0.264 0.312 0.012 0.13 0.103 1.026 0.121 1.164 0.026 0.262 0.353 0.698 0.676 0.698 0.174 0 0.303-0.136 0.283-0.313l-0.064-0.204 0.396-0.137 0.622 1.327c-0.116 0.076-0.419 0.184-0.684 0.184-0.479 0-0.846-0.283-1.165-0.68l0.068 0.649-1.783-0.913 0.228-0.34 0.138 0.028" fill="#f57c14"/>
  </g>
 </g>
</svg>
