<svg width="800" height="244.96" version="1.1" viewBox="0 0 211.67 64.814" xmlns="http://www.w3.org/2000/svg">
 <defs>
  <linearGradient id="linearGradient58470" x2="1" gradientTransform="matrix(48.729 0 0 -48.729 240.59 136)" gradientUnits="userSpaceOnUse">
   <stop stop-color="#615e5e" offset="0"/>
   <stop stop-color="#d1d0d0" offset="1"/>
  </linearGradient>
  <linearGradient id="linearGradient58410" x2="1" gradientTransform="matrix(48.729 0 0 -48.729 240.59 135.97)" gradientUnits="userSpaceOnUse">
   <stop stop-color="#615e5e" offset="0"/>
   <stop stop-color="#d1d0d0" offset="1"/>
  </linearGradient>
  <linearGradient id="linearGradient58390" x2="1" gradientTransform="matrix(41.307 0 0 -41.307 242.08 126.26)" gradientUnits="userSpaceOnUse">
   <stop stop-color="#615e5e" offset="0"/>
   <stop stop-color="#d1d0d0" offset="1"/>
  </linearGradient>
  <linearGradient id="linearGradient58370" x2="1" gradientTransform="matrix(41.307 0 0 -41.307 242.08 126.39)" gradientUnits="userSpaceOnUse">
   <stop stop-color="#615e5e" offset="0"/>
   <stop stop-color="#d1d0d0" offset="1"/>
  </linearGradient>
  <linearGradient id="linearGradient58330" x2="1" gradientTransform="matrix(41.307 0 0 -41.307 242.08 126.57)" gradientUnits="userSpaceOnUse">
   <stop stop-color="#615e5e" offset="0"/>
   <stop stop-color="#d1d0d0" offset="1"/>
  </linearGradient>
  <linearGradient id="linearGradient58290" x2="1" gradientTransform="matrix(66.017 0 0 -66.017 230.36 126.4)" gradientUnits="userSpaceOnUse">
   <stop stop-color="#d1d0d0" offset="0"/>
   <stop stop-color="#615e5e" offset="1"/>
  </linearGradient>
  <clipPath id="clipPath58256">
   <path d="m0 0h612v792h-612z"/>
  </clipPath>
  <linearGradient id="linearGradient58246" x2="1" gradientTransform="matrix(-28.338 0 0 28.338 268.41 131.95)" gradientUnits="userSpaceOnUse">
   <stop stop-color="#615e5e" offset="0"/>
   <stop stop-color="#e0e0e0" offset="1"/>
  </linearGradient>
  <linearGradient id="linearGradient58226" x2="1" gradientTransform="matrix(0 .044163 .044163 0 253.74 135.55)" gradientUnits="userSpaceOnUse">
   <stop stop-color="#24485d" offset="0"/>
   <stop stop-color="#d1d0d0" offset="1"/>
  </linearGradient>
  <linearGradient id="linearGradient58206" x2="1" gradientTransform="matrix(0 .03989 .03989 0 253.67 135.24)" gradientUnits="userSpaceOnUse">
   <stop stop-color="#24485d" offset="0"/>
   <stop stop-color="#d1d0d0" offset="1"/>
  </linearGradient>
  <linearGradient id="linearGradient2276" x2="1" gradientTransform="matrix(41.307 0 0 -41.307 242.08 126.4)" gradientUnits="userSpaceOnUse">
   <stop stop-color="#615e5e" offset="0"/>
   <stop stop-color="#d1d0d0" offset="1"/>
  </linearGradient>
  <linearGradient id="linearGradient2280" x2="1" gradientTransform="matrix(48.729 0 0 -48.729 240.59 135.77)" gradientUnits="userSpaceOnUse">
   <stop stop-color="#615e5e" offset="0"/>
   <stop stop-color="#d1d0d0" offset="1"/>
  </linearGradient>
 </defs>
 <g transform="translate(197.25 32.417)">
  <g transform="matrix(5.1775 0 0 -5.1775 -1432.8 684.06)">
   <path d="m253.67 135.26-4e-3 0.019z" fill="url(#linearGradient58206)"/>
  </g>
  <g transform="matrix(5.1775 0 0 -5.1775 -1432.8 684.06)">
   <path d="m253.74 135.57-4e-3 0.02z" fill="url(#linearGradient58226)"/>
  </g>
  <g transform="matrix(5.1775 0 0 -5.1775 -1432.8 684.06)">
   <path d="m247.18 136.26 4e-3 -0.028 0.045-0.041 0.044-0.031 0.14-6e-3c-0.063-0.103-0.191-0.101-0.264-0.179l-0.027 4e-3 -0.121 0.148 0.087 0.09 5e-3 0.043h-0.506v-0.909h0.06l-0.019 0.011 0.073 0.269 0.025 0.044 0.021 9e-3 0.017-0.063c0.01-0.091 0.019-0.183 0.049-0.27h0.185v0.084l0.055 0.073 6e-3 -0.015 0.102-0.145c0.265-0.013 0.453-0.079 0.532-0.25l0.023-0.017 0.039-0.072-0.027-0.038 7e-3 -0.086c0-0.31-0.134-0.476-0.62-0.476h-0.12l-0.016-0.035c-0.081-0.078-0.133-0.177-0.198-0.268l-0.042-0.03-0.014 0.069 0.173 0.264h-0.89v1.644l-0.181-0.054-0.051 0.091 0.188 0.043 0.044 3e-3v0.124h-1.151l0.014-0.028c0.11 0.027 0.131-0.068 0.163-0.133l-0.067-0.055-0.011 0.042-0.087 0.145-0.113 0.029h-0.48c-0.176-5e-3 -0.328-0.034-0.462-0.08l0.073-0.073-0.039-0.22c-0.15 0.017-0.099 0.165-0.152 0.247-0.476-0.225-0.656-0.719-0.656-1.29 0-0.102 7e-3 -0.197 0.021-0.288l0.041 0.019c0.138 0.07 0.066 0.231 0.143 0.329l-0.026 0.024-0.019 0.085-0.039 0.096-0.031 0.047c0.11 0.042 0.085 0.137 0.1 0.216l0.025 0.06c0.012-0.234 0.071-0.431 0.012-0.635l0.014-0.068 0.015-0.112 0.014-0.186 0.283-0.011 0.06 0.014 0.016-0.037c-0.058-0.148 0.062-0.112 0.131-0.127l0.016-0.016 0.057-0.08-0.101-0.013-0.063-0.016-0.094-0.092-0.036-1e-3 -0.043 6e-3c-7e-3 0.098 0.131 0.051 0.133 0.128l-0.254 0.121-0.116-5e-3 0.061-0.095 0.06-8e-3c-0.128-0.056-0.122-0.144-0.085-0.239l0.093-0.043 0.049 0.011 0.047-0.08-0.044-1e-3 -0.085-0.028c0.114-0.119 0.255-0.211 0.42-0.275l7e-3 0.032 0.077 0.088 2e-3 -2e-3 0.14-0.184c0.122-0.026 0.254-0.041 0.395-0.041h0.617l0.028 0.155v0.166l0.043 0.079 0.049-0.011-0.028-0.075c-0.061-0.056-0.063-0.095 0.035-0.087l0.055-0.094 0.044-0.073 1e-3 -0.06h1.782c0.554 0 0.897 0.213 1.09 0.533l-0.012 0.01 0.017-2e-3c0.137 0.235 0.198 0.527 0.198 0.833l-5e-3 0.161-0.094 0.144 1e-3 9e-3 0.035 0.064-7e-3 0.065 0.033 0.015c-0.121 0.701-0.525 0.973-0.953 0.991zm-3.259-0.837c0.127 0.011 0.243 0.056 0.358 0.113l0.019 0.12 0.061 0.174-7e-3 0.109-2e-3 0.166-0.015 0.04 0.016 0.093c0.059-0.064 0.193-0.06 0.148-0.194l-0.015-0.099 6e-3 -0.139 0.043-0.102c-0.049-0.055-0.054-0.096 0.053-0.105-0.184-0.046-0.324-0.139-0.471-0.22l-0.164-0.028-0.071-0.071c0.09 0.042 0.212 0.064 0.367 0.069 0.081 0.037 0.163 0.066 0.255 0.066l0.085-0.03-0.01-0.034h0.657c0.029 0.097 0.082 0.162 0.201 0.181l0.018 0.145-0.045-6e-3 -0.038 3e-3 0.034 0.066 0.122 0.13 0.07-0.096-0.049-0.02-0.055-0.082-0.015-0.179-0.043-0.071-0.089-0.115-0.02-0.011v-0.887h-0.307c0.061-0.095 0.143-0.164 0.257-0.193l0.148-0.114 9e-3 -0.019-0.09-0.013-0.137 0.112c-0.097 0.054-0.096 0.011-0.092-0.063l-0.042-0.128c4e-3 -0.055 0.048-0.143-0.066-0.149l-8e-3 -0.201-0.048-0.014-0.024 0.049-0.026 0.162 0.031 0.053 0.043 0.012 0.062-4e-3 0.011 0.028-0.026 0.047c-0.108 0.065-0.124 0.133-0.057 0.243 0.059 0.1 0.048 0.131-0.061 0.153l-0.04 0.039h-0.156l-0.021-3e-3 -0.026 3e-3h-0.019l-0.018-0.092-0.033-0.08-0.061 6e-3 7e-3 0.049-1e-3 0.094-0.029 0.023h-0.276c-0.372 0-0.568 0.114-0.568 0.476 0 0.119 0.025 0.212 0.077 0.283l-5e-3 -1e-3c0.082 0.163 0.084 0.304-0.06 0.421l-0.028 0.047c0.018 0.125-0.072 0.216-0.098 0.327l-0.016 0.032 0.029-0.015c0.055-0.096 0.111-0.191 0.172-0.296l-0.042 0.131-0.01 0.087 0.073-0.027 0.156-0.044 0.029-0.143 2e-3 -0.079-0.069-0.114-0.013-0.071 0.022-0.01zm3.761 0.439 0.136 0.2c0-0.105-0.056-0.165-0.096-0.232l-0.025-7e-3h-3e-3zm-4.185-0.671 0.044 0.071 0.116-0.077-7e-3 -0.112-0.011-0.01-0.214-0.054c0.085 0.043 0.132 0.089 0.072 0.182m4.225-0.948 0.036 0.143 0.122 0.138 0.062 0.15 0.108 0.177 1e-3 2e-3 0.073 0.064h2e-3l0.024-0.104-0.161-0.156-0.011-0.049 0.101-0.044 0.174-0.056-0.065-0.101-0.074-0.188-0.018 0.153-0.065 0.118-0.046-0.016c0.01-0.095-0.063-0.095-0.12-0.115l-0.075-0.065 0.048-0.029-0.048-0.033-0.037-8e-3zm-0.029-0.255 0.062 0.073c0.092-0.086 0.23-0.011 0.337-0.087l-0.201-0.016-0.163-6e-3h-1e-3zm-2.386-0.345 1e-3 1e-3v-3e-3l-2e-3 -2e-3zm3.024 1.474 0.012-0.043-0.012 0.119zm-5.205-0.558h-1e-3l0.016-0.072-0.038-0.083-0.015 4e-3c0.03-0.125 0.072-0.238 0.127-0.34l0.01 0.053c0.029 0.124 1e-3 0.239 3e-3 0.357l-0.074 0.084zm2.779-1.715 0.024-0.049-0.128-0.039-0.018 0.081-0.044 7e-3h-1.675c-0.117 0-0.22-0.011-0.315-0.03l2e-3 -2e-3 -0.068-0.055-0.126 2e-3c-0.376-0.146-0.517-0.468-0.517-0.825 0-0.165 0.042-0.341 0.125-0.497 0.082-0.144 0.207-0.268 0.372-0.341v-0.02h-0.48l-3e-3 -0.016-0.101-0.08-0.039 0.088-1e-3 8e-3h-0.376l-0.012-0.06c0.108-0.18 0.101-0.194-0.095-0.217l-0.028-0.011 0.079-0.097-0.05-2e-3 -0.037 0.011 0.025-0.056 0.02-0.126-0.145 1e-3 9e-3 0.132-2e-3 0.096 0.025 0.224 0.116 0.085 0.023 0.02h-1.66l-0.032-0.056-0.039 0.018-9e-3 0.038h-0.129l0.085-0.069c-0.073-0.066-0.134-0.139-0.092-0.249l0.041-0.087c0.044-0.131 0.079-3e-3 0.119 3e-3l0.11 0.031 0.063-0.028 0.064-0.022c0.059-0.1 0.148-0.125 0.256-0.089l-0.058-0.107-0.056 0.029c0.016-0.084-0.106-0.121-0.071-0.213l-0.043-7e-3 -0.062 7e-3h-0.046l-0.151-0.045 0.016-0.126h0.885l9e-3 0.037 0.016 0.013 0.048-0.05h1.754l-0.043 0.142-0.011 0.041-0.037 0.179-0.127 0.035-0.036 7e-3 -6e-3 0.059 0.101 0.047 0.057 0.034 0.038 0.049 0.059-0.039 0.089-0.194-0.01-0.016-0.017-0.153 0.114-0.191h0.086l-0.036 0.056c0.069 0.028 0.141 0.053 0.043 0.13l-0.015 0.048 0.046-5e-3 0.067 4e-3 0.138-0.029-0.113-0.204h4.423v0.163l-4e-3 7e-3 4e-3 0.046v0.756h-3.96c-0.125 0-0.225 0.018-0.304 0.05l-0.051-0.036-0.025-0.018c-1e-3 -0.101-0.132-0.063-0.155-0.142l-0.051 7e-3 -6e-3 0.049 0.034 0.057c0.075 0.115 0.059 0.15-0.08 0.162l0.049 0.066 0.041 0.017 0.06-0.015-0.06 0.226c0 0.301 0.197 0.373 0.465 0.373h1.12l-8e-3 0.032-0.017 0.078-0.08-0.05-0.096-0.014c-0.084 0.07-0.184 0.117-0.199 0.242l-0.044 9e-3 -0.013-0.041 0.026-0.087-0.05 3e-3 -0.04 0.012-0.027 2e-3 -0.027 4e-3 -0.071 0.085 0.081 0.068 0.135 0.06 0.05-0.029 0.069-0.173 0.051-0.033 4e-3 0.056-0.042 0.199c0.078 0.01 0.153 0.034 0.122-0.089l0.026-0.032 0.039 0.029c0.064 0.141 0.199 0.152 0.298 0.026l0.053-0.068c0.055-0.014 0.119-0.034 0.133 0.063 5e-3 0.045-0.011 0.139 0.095 0.084l0.036 0.027 0.056 0.046 0.054-0.046-0.046-0.05 4e-3 -0.125c0.107-0.038 0.169-0.137 0.266-0.184h0.094l-4e-3 -0.104h1.995v0.972zm-2.582-0.343 0.045 0.146 0.073-0.043-0.013-0.164zm1.348-0.143c-0.097 0.021-0.15 0.08-0.165 0.176l0.118 0.08 0.05 0.026 9e-3 -0.07 0.021-0.15 0.025-0.048-0.03-0.018zm1.133 0.138h2e-3v-1e-3l-2e-3 -1e-3zm1.697-0.469-0.076 0.083 0.062 0.09-0.044 0.119 0.143-0.023-0.094-0.083 0.035-0.052 0.04 0.032 0.118-0.028-0.136-0.179h-0.011zm-1.116 9e-3h-4e-3zm-3.039-0.499 0.034-0.023-0.012-0.204-0.05 0.121 8e-3 0.104 3e-3 -1e-3zm1.338-0.576 0.01 0.082 0.061-0.032 0.155-0.03 0.087-0.067-0.101-0.018-0.066 0.012-0.107 0.027-0.018-1e-3 -0.014-1e-3zm-1.015 0.073 0.02-0.182-0.057-0.08-0.099-0.023c-0.136-0.017-0.142-0.015-0.117 0.116l-3e-3 0.087 0.089-0.058c-0.011 0.142 0.137 0.047 0.167 0.14m-2.658-0.305c0.063 0.069 0.175 0.08 0.214 0.179l0.083 0.114 0.08-0.057 0.042-0.069 0.023-0.09 0.041-0.051-0.144-0.082-0.04 0.016-0.067-0.014-0.107 6e-3 -0.055 0.018-0.043-0.039zm6.149 0.145 0.014 0.02 0.028-5e-3 -0.018-0.021zm-3.202-0.23 4e-3 0.108 0.03 0.052h0.031l0.023-0.028-0.026-0.048 0.037-0.164-0.052-0.01zm1.825 2.2v-6e-3l0.046 6e-3zm-0.444-0.696-0.048-0.074 0.058-0.037 0.045 0.065-0.052 0.047zm0.076-0.266-0.012-0.01h0.101l-5e-3 0.045-0.02 8e-3zm-5.338-0.753 0.029 0.051zm-0.543 0.051-0.023-0.107c-0.069-0.158-0.03-0.309 0.01-0.465 0.033-0.128 0.029-0.262-0.037-0.4h0.241l-0.022 0.159 0.124 0.12 0.084-0.095 0.016-0.117-0.029-0.067-0.114-0.068 8e-3 2e-3 0.043 0.026 0.134 0.02 0.084 0.031 0.096 0.107 0.021 3e-3 0.121-0.015 5e-3 -0.137-0.128-0.037-0.163-0.024-0.062-0.012h0.672l0.018 0.071-0.065 0.119 0.058 0.078-0.045 0.035-0.035-0.098-0.068-0.014-0.078 0.154 0.099 0.047c0.115 0.117 0.103 0.157-0.052 0.209l-0.062 0.119-0.074 0.071-0.2 0.089-0.066 0.082 2e-3 0.01 0.03 0.053-0.066-0.045-0.043 0.052 0.014 0.044zm0.051-0.689-8e-3 0.202 0.083 0.194c0.067-0.084 0.093-0.171 0.063-0.271l-0.017-0.048-0.101-0.088zm-0.092 0.288h7e-3l3e-3 -4e-3zm-0.502 0.401v-0.972h0.491c-0.086 0.129 0.082 0.246-0.031 0.368 0.021-0.11-0.174-0.074-0.105-0.211-0.181 0.071-0.193 0.095-0.155 0.318l0.051 0.254 0.096 0.073 0.028 0.031-0.025 0.051-0.042 0.088zm1.176-0.104 0.059-0.032c0.054-0.043 0.148 0.014 0.19-0.078l0.031 0.07-0.01 0.04zm3.415-0.184 5e-3 -0.031 0.018 0.016-9e-3 0.029zm-2.951-0.439 0.042 0.013 0.05 4e-3c0.079-0.107 0.108-0.014 0.151 0.032l-0.153 0.041zm-0.88-0.324-0.025-0.025 0.058 0.036zm8.36-0.331 0.011-3e-3 -0.024-0.088-0.076-0.057-0.092 0.019 0.01 0.019-0.018 0.11h-0.229l0.027-0.075-0.052 0.075h-0.088c0.021-0.062 0.031-0.135 0.031-0.248 0-0.265-0.062-0.434-0.37-0.461l0.028-0.06 9e-3 -0.072-0.013-0.127c-0.158-9e-3 -0.103 0.083-0.081 0.159l0.028 0.071-0.018 0.026-0.049-1e-3h-0.062l-1e-3 -3e-3 -0.066-0.144-0.114 0.115-0.038 0.032h-3.079v0.366l-0.105-0.073-0.056-0.111-0.045-0.124-0.091-0.11-0.027-0.077 0.069-2e-3 0.125-0.027-2e-3 -0.022-0.049-0.057-0.058-0.017-0.021-0.032c0.063-0.023-0.023-0.127 0.077-0.137l0.067-0.111c-0.217 0.054-0.384 0.148-0.5 0.322l-0.012 0.012 0.016-5e-3 0.206-7e-3 -0.074 0.063 0.051 0.15 0.026 0.029c0.071 0.089 0.143 0.176 0.171 0.289l-2e-3 0.115-0.085-0.063-0.207-0.091-0.022 0.102 0.062 0.052 0.134 0.101-0.012 0.064h-0.319v-0.599h-2.778l-0.065-9e-3 -0.055 9e-3h-0.261l-0.026-0.025-0.037 0.019-2e-3 6e-3 0.219 0.058-0.038 0.038 6e-3 7e-3h-0.383l0.031-0.04-0.088-0.195-0.055-0.025-0.014 0.07 0.042 0.155 0.011 0.035h-0.27l-0.023-0.083c-0.045-0.014-0.062-0.176-0.142-0.032l0.079 0.11 0.017 5e-3h-0.471l7e-3 -0.064-0.108 0.025-0.037 0.016 1.328-0.949 7e-3 0.041 9e-3 0.047-0.06 0.133-0.016 0.072c0.062 0.105-8e-3 0.174-0.07 0.239-0.073 0.075-0.099 0.163-0.104 0.262l0.22-0.055 0.061-0.225c-1e-3 -0.089-0.011-0.18 0.081-0.232l-0.152-0.065 0.12-0.01 0.057 8e-3h5e-3l-0.074-0.131-0.06 5e-3h-3e-3l-5e-3 -1e-3 0.011-0.033 0.049-0.065 0.025 0.031-0.017 0.063 0.059 0.024 0.123 0.019-0.031-0.056-0.075-0.071-0.02-0.056h0.011l0.1-0.032 0.01-0.015h0.759l0.139 0.016 0.029-0.016h0.768l0.01 0.018c0.028 0.044 0.111 0.146-0.047 0.146l-0.033 0.036 0.04 0.05 0.187 0.019 0.023-0.114-0.055-0.155h1.032v-0.486h0.683v0.486h2.863l9e-3 0.029c0.027 0.125-0.087 0.184-0.117 0.279l-0.014 0.086 0.027 0.078 0.046 0.055 0.049-0.051 0.029-0.069c0.144-0.027 0.056-0.099 0.033-0.155 0.015-0.097-0.045-0.232 0.132-0.242l0.018-0.01h0.741c0.465 0 0.692 0.279 0.692 1.055 0 0.254-0.018 0.49-0.029 0.611l-0.094-0.062-1e-3 0.081zm-0.427-0.14 0.016 5e-3 8e-3 -6e-3 -0.016-0.012zm-6.825-0.776 0.019 0.104 0.09-0.024 0.065-0.096 0.065-0.175-0.129 0.054-0.032 0.053 0.03 0.055-0.044 0.01-0.037-0.016zm5.741-0.08 0.043 0.095 0.054 0.039h1e-3l0.03 0.028 0.035-0.035 0.01-0.068-0.031-0.076 5e-3 -0.042-0.036-0.021zm-3.674 0.029 0.03-0.047 0.148-0.108 3e-3 -0.043-0.017-0.033c-0.137 0.042-0.186 0.112-0.164 0.231m3.29-0.288-0.021 0.109c0.063 0.024 0.096 0.131 0.19 0.066l-0.058-0.042-0.069-0.069 0.037-0.011 0.019-0.016-0.047-0.07-0.113-0.111-0.134-0.099c-0.039 0.109-0.039 0.109 0.062 0.147l-0.044 0.092 0.093-5e-3 0.052-0.015zm-0.982-0.077c0.019 0.091 0.059 0.167 0.16 0.19l0.11-0.074c1e-3 -0.138-0.011-0.151-0.202-0.202zm-4.871 0.182 2e-3 -1e-3 -1e-3 -1e-3h-1e-3zm0.75-0.331-0.042 0.111-0.059 0.081 0.108 0.029 0.036-0.026c-0.044-0.104 0.078-0.096 0.1-0.153l7e-3 7e-3 3e-3 0.01 0.023-0.016-0.042-0.065-0.046-0.075zm2.104 0.198 8e-3 -0.052c0.119-3e-3 0.14-0.122 0.213-0.178 0.049-0.108 0.038-0.239 0.13-0.331l0.055-0.051 0.035-0.109-0.119-0.021c-0.1 0.062-0.158 0.143-0.138 0.265l-5e-3 0.043c-0.094 0.066-0.108 0.178-0.165 0.264l-0.075 0.157 0.043 0.013 9e-3 -1e-3zm-3.084-0.025-0.016 8e-3 0.015 5e-3 0.051-0.038-0.035-0.033zm7.843 0.012 0.065-0.066-0.099-0.079-0.091 0.045-0.049-8e-3 -0.115-0.05-0.102 0.032c0.015 0.075 0.012 0.135 0.129 0.076l0.075-0.015zm-7.566-0.196-0.02 0.15c0.033-0.14 0.034-0.141 0.141-0.061l0.047 9e-3 0.012-0.045 2e-3 1e-3 0.083-0.02-7e-3 0.069 0.012 0.021 9e-3 -5e-3 0.052-0.147-0.147 0.011-0.035-0.075zm3.594-0.059-0.15 0.12-0.049 0.018-0.037 0.063c0.133-0.047 0.237-0.139 0.337-0.235l-0.059-0.013zm-0.536 1.437 0.012-0.038 0.047-0.019 0.03 0.029-0.019 0.017-0.017-1e-3 -0.016 0.012zm-3.371-0.541 0.011-9e-3 0.096-0.049h0.12l0.019 0.039-0.075 0.064zm0.082 0.045h0.083zm-1.551 0 0.012-8e-3zm0.024-0.017-0.012 9e-3zm9e-3 -6e-3 -9e-3 6e-3zm4.72-0.293 0.035-8e-3 1e-3 0.01-0.015 6e-3zm-3.268-0.759 0.016 0.047z" fill="url(#linearGradient58246)"/>
  </g>
  <g transform="matrix(5.1775 0 0 -5.1775 -1432.8 684.06)">
   <g clip-path="url(#clipPath58256)">
    <g transform="translate(249.64 136.74)">
     <path d="m0 0-0.024 0.013v-0.104l0.054 0.03z" fill="#9b8669"/>
    </g>
    <g transform="translate(249.64 136.82)">
     <path d="m0 0 0.061 0.096h-0.083v-0.105z" fill="#9b8669"/>
    </g>
    <g transform="translate(276.72 128.57)">
     <path d="m0 0 0.062-0.248 0.016 0.049c0.03 0.1 5e-3 0.167-0.078 0.199m-26.337 7.964c3e-3 -0.058-0.048-0.153 0.079-0.142l1e-3 -2e-3 4e-3 -1e-3 7e-3 -6e-3 -2e-3 6e-3h-5e-3l-3e-3 3e-3h-2e-3l-5e-3 0.133 0.143-0.061-0.058 0.071-0.043 0.025-0.054 0.035-0.062-0.061m0.199-0.298-0.039 0.054-0.15-0.033-0.143-0.076c-0.069-0.018-0.11-0.102-0.201-0.086l0.023-0.06 0.11-0.077c0.011 0.033-0.078 0.108 0.04 0.098v1e-3l0.024 3e-3 -0.012 0.015-4e-3 -6e-3 4e-3 6e-3 0.012 0.036 0.124-0.095 0.052-0.069 0.021 0.08 0.018 0.22 0.121-0.011m-0.111-0.514-0.139 0.048c-0.029-0.102 0.104-0.104 0.112-0.19l0.027 0.142m-0.246-3.289 0.02-0.04 0.174-0.013 0.081 0.078-0.023 0.044-0.252-0.069m0.311-1.329c0.019-0.092-0.087-0.136-0.071-0.225-0.062 0.059-0.145 0.102-0.116 0.206l-1e-3 1e-3 -0.162-4e-3 -0.084-0.042-0.029-0.058-0.056-0.09 0.092-0.012c-0.011 0.119 0.103 0.059 0.145 0.103l-0.016-0.133-0.118-0.09-3e-3 -0.069-0.154-0.078 0.09-0.222c-0.073-0.094-0.022-0.204-0.04-0.304l-0.018-0.12 0.149-0.111 0.075 0.142c-0.071 0.101-0.01 0.181 0.043 0.262l0.039 0.077-4e-3 0.099-0.089-8e-3 -0.031-0.032c-0.06 0.105-0.037 0.15 0.077 0.159l0.076 0.012-0.017 0.047 6e-3 0.09 0.051-0.051 0.059 0.052 0.1 0.115 0.024 0.054 6e-3 0.019 0.047 0.061 6e-3 0.071-0.017 0.092-0.059-0.013m-0.175-0.825 0.071-0.022 0.02 0.186-0.037 0.024-0.023-0.023-0.031-0.165m0.129-1.078-0.091-0.037-0.053-0.016-0.074-0.034-0.095-0.021 0.053-0.123c0.121-0.053 0.17 0.049 0.232 0.114l0.028 0.117m-0.226-0.464c-0.093 7e-3 -0.044 0.085-0.065 0.128l-0.137 0.014 0.123-0.089-0.087-0.071-0.042-0.041 0.072-0.032 0.136 0.091m-0.181 0.249-0.015 0.062c-0.105 0.037-0.035 0.101-0.028 0.155-0.081 0.146-0.125 0.301-0.091 0.476-0.157-0.081-0.146-0.203-0.112-0.332 0.017-0.117-8e-3 -0.217-0.113-0.286l7e-3 -0.036c0.108 0.048 0.141-0.055 0.204-0.1 0.013 0.107 0.1 0.036 0.148 0.061m0.084 6.087-4e-3 5e-3 -3e-3 -6e-3zm-0.281-1.285 0.11-3e-3 0.065-0.084 0.068-0.136 0.123 0.106-0.01 0.019h-0.043l-0.065 0.012-0.017 0.037c-0.013 0.099-0.098 0.112-0.168 0.142l-0.065 1e-3c-0.109-0.033 0.022-0.062 2e-3 -0.094m0.022 1.682-0.016-0.06 0.127-0.059-0.032-0.086 0.104-0.024-4e-3 0.071 3e-3 0.029c0.094 0.069-0.014 0.045-0.028 0.061l-0.154 0.068h1e-3l-2e-3 1e-3 1e-3 -1e-3m1.824-1.347 0.073-0.054 0.029 0.063-0.077 0.042-0.025-0.051m0.099-2.141c0.05-0.049 0.164-0.017 0.164-0.129l0.106-0.013 0.062 0.017-0.019 0.053-0.021 0.058-0.025 0.078-0.267-0.064m0.38 1.145 0.029-0.183 0.023 0.178-0.024 0.047-0.028-0.042m0.092-0.508 0.019-6e-3 0.012 0.028-0.025 7e-3 -6e-3 -0.029m-0.361-2.113c-0.024-0.098-0.042-0.174-0.061-0.25 0.076 0.092 0.091 0.153 0.061 0.25m0.015-0.459-0.045 0.024-0.017-0.049-0.035-0.174c8e-3 -0.066 0.03-0.135-0.071-0.156l-1e-3 -0.067 0.057-0.045 6e-3 -0.107-2e-3 -2e-3 1e-3 -2e-3 -0.06-0.168c0.057-6e-3 0.117 0.049 0.139-0.059l0.014 0.156 0.012 0.077c-0.034-0.028-0.066-0.112-0.105-6e-3l1e-3 2e-3v2e-3l0.047 0.061c0.028 0.123 0.058 0.246 0.025 0.373l0.033 0.081 1e-3 0.059m-0.054-0.958h1e-3l1e-3 4e-3 5e-3 8e-3 -5e-3 -3e-3v-5e-3l-3e-3 -3e-3 1e-3 -1e-3c-0.097-0.022-0.076 0.069-0.102 0.131l-0.033-0.115 0.07-0.125 0.053-1e-3 0.012 0.11m0.771 3.542 0.035-0.203c0.119 9e-3 5e-3 0.095 0.042 0.131l-1e-3 0.044-0.076 0.028m0.141-0.988 0.08-0.068 0.022 0.043-0.072 0.059-0.03-0.034m0.031 0.363 0.013-0.156c0.093 0.082 0.093 0.082-0.013 0.156m0.025-3.254v1e-3l-4e-3 3e-3 3e-3 -4e-3h1e-3m-2.576 8.113h0.458v-0.87l-0.144-0.037-5e-3 -0.072 0.149-0.093v-0.646l-0.083-8e-3 0.083-0.07v-1.024l-0.063 0.031-0.047 0.035-0.174 0.074-0.02-0.035c0.098-0.057 0.196-0.113 0.304-0.147v-0.18l-0.152-0.04 5e-3 -0.089 0.026 0.015 0.093-6e-3 0.028-4e-3v-3e-3h9e-3l0.062-0.069c0.031-0.096 0.21-0.097 0.279-7e-3l-0.111 0.064 0.05 0.124 0.08 0.076-0.017 0.047-0.128 0.035 0.232 0.165c0.196 0.097 0.418 0.146 0.627 0.146 0.366 0 0.703-0.11 0.917-0.387l-2e-3 -0.05 0.07-0.052c0.102-0.177 0.163-0.409 0.163-0.709v-1.275l-0.024-0.047 0.024-0.172v-3.136l-0.083-0.058 0.083-0.037v-0.122l-0.047-0.034 0.047-0.01v-0.055h-0.356l0.056 0.187 0.084-8e-3 0.075 0.061-0.076 0.063-0.1-0.107-0.104-0.067-0.111 8e-3 0.042-0.105-0.08-0.032h-0.272l-0.015 0.088-0.027-8e-3 -2e-3 0.012 0.028 2e-3c-0.016 0.092-0.07 0.019-0.106 0.025l-0.088 0.031v0.138l0.087-0.017 0.042 9e-3c0.029 0.095 0.118 0.177 0.068 0.289l0.011 0.065 0.048 0.1-9e-3 0.05-0.032 0.058 0.017 0.077 0.042 0.013 7e-3 0.02 3e-3 0.014-0.064 0.039-0.033 0.051-0.053-0.081-0.039-0.209-0.116-0.035-0.071 0.017c-0.014-0.156-0.043-0.309-0.027-0.468l-0.04-0.197-0.016-0.01v4.656l-9e-3 0.151 0.046 0.075-0.064 0.019c-0.049 0.181-0.172 0.299-0.442 0.299-0.3 0-0.535-0.169-0.535-0.641v-1.219l-0.051-0.024-0.039-9e-3 0.039-0.138-0.015-0.244 0.066 0.023v-2.582l-0.104-0.033 8e-3 -0.058 0.096-0.022v-0.326h-1.227v3.726l0.155-0.019-0.02 0.122-0.135 0.145v0.496l0.011 2e-3c0.043-0.081 0.045-0.082 0.21-0.109l-0.142 0.129-0.067-0.018-0.012 0.021v2.888l0.032 0.047-0.032 0.014v0.769l0.036 0.055 0.012 0.069c0.102 0.071 0.115 0.203 0.201 0.287l0.061 0.108h0.385l0.075-0.091-1e-3 0.091m26.562-8.707-0.058 0.027-0.023-0.091 0.044-0.063 0.134-0.069-0.077 0.16-0.02 0.036m-18.118 5.432c0.092 0.068 0.199 0.083 0.314 0.087l-0.043-0.118-0.134-2e-3c-0.043 0.033-0.043 0.033-0.137 0.033m-0.081-4.127-0.063-0.071-0.046 0.153 7e-3 0.13 0.048 0.01 0.054-0.222m0.29-0.182h0.058l-0.019 0.045 9e-3 0.057 0.23 0.023 0.038-0.045 0.018-0.089-0.115-0.044-0.196-0.037 0.2 0.021 0.036-0.016-0.018-0.086c-0.126 0.054-0.218-0.016-0.31-0.086l-0.11 0.013-0.084-6e-3 2e-3 -0.069c0.041-0.141 0.014-0.287 0.053-0.458l-0.053 0.208-0.018 0.059-0.033 0.078c0.026 0.134 0.014 0.154-0.097 0.162-0.032 0.098 0.075 0.067 0.115 0.119l-0.092 0.1-0.199-0.049-0.133 0.034-0.132-0.038c-0.084-0.068-0.184-0.101-0.285-0.101l-0.061 3e-3 -0.019-0.046 0.02-0.076 0.024-0.054-0.218-0.076-0.084 0.017-0.053 0.041 0.07 0.033 0.107 0.069-0.051 0.037-0.091 0.022 0.052 0.102 0.011 5e-3c-0.153 0.106-0.242 0.336-0.242 0.794v1.12h-2e-3l-0.017 0.078 0.019-5e-3v1.073l-0.022 4e-3 0.022 0.011v0.589c-0.043 0.08-0.051 0.171-0.023 0.272l-0.022 0.056c-0.129-0.01-0.185 0.072-0.198 0.175l-0.03 0.122 0.17-0.045c-0.102-0.017-0.142-0.074-0.089-0.125l0.138-3e-3v2e-3l4e-3 4e-3 0.13 0.178 8e-3 0.03 0.024 5e-3 0.015 0.039 0.02-0.029-0.033-0.012-0.01-0.05-0.154-0.161-2e-3 -6e-3h-1e-3l0.029-0.051 0.056-0.066c0.067 0.256 0.232 0.326 0.45 0.326 0.353 0 0.549-0.217 0.549-0.64v-0.464c0.123 0.015 0.247 0.03 0.372-8e-3 -0.123-0.023-0.246-0.039-0.372-0.051v-1.493c0.102-0.138 0.175-0.264 0.224-0.404l-0.042-9e-3c-0.077 0.112-0.148 0.228-0.182 0.385v-1.002l5e-3 2e-3 0.093-0.125-0.022-0.131-0.089 0.014-0.067-0.209 0.015 0.011 0.114-6e-3 0.077-0.017 0.153 0.019 0.063-0.012c0.103 3e-3 0.223 0.099 0.297-0.057m0.263-0.752h1e-3l-1e-3 -1e-3v1e-3m0.208-0.101-0.05-0.056-0.176-0.078-0.034 0.055 0.122 0.074 0.138 5e-3m-0.152-0.474-0.145-0.097c0.037 0.056-0.011 0.175 0.11 0.174l0.079-0.02-0.044-0.057m-0.069-0.898 0.065-0.091 0.043-0.153-0.014-0.06-0.026 0.02c-0.046 0.146-0.169 0.21-0.292 0.272l-0.022 0.062 0.07-0.022 0.176-0.028m-0.206 0.841-0.112-0.027-6e-3 0.034 0.045 0.089-0.136 0.023-0.015 0.127-0.011 0.011-2e-3 3e-3 -0.051 9e-3c-0.181 0.031-0.192 0.049-0.154 0.264 0.054-0.112 0.135-0.188 0.205-0.273l4e-3 -1e-3 9e-3 -0.013 0.022-0.016 0.125-0.117 0.129-0.029-0.052-0.084m-0.449-0.388-0.097-7e-3 0.091 0.127c0.032 0.044 0.076 0.116 0.139 0.025l-0.133-0.145m-0.188 1.066-3e-3 4e-3 -4e-3 1e-3 -2e-3 4e-3 4e-3 -1e-3 2e-3 -4e-3 9e-3 -3e-3 -6e-3 -1e-3m-1.15 0.475-0.025-0.064-7e-3 0.05-0.059 0.011 2e-3 -0.07-8e-3 2e-3 -0.036 0.108c0.142 0.063 0.187 0.054 0.216-0.048l-0.083 0.011m-0.122-0.413 0.038 0.279 0.012-0.072-0.05-0.207m-0.279 3.505c-0.09 0.011-0.171-0.058-0.263-0.027l-0.12 6e-3 -5e-3 0.015 0.059 0.027 0.268 0.034 0.052 1e-3 0.011 1e-3 0.217 5e-3 -0.219-0.062m0.172-0.629-0.022 0.11-0.019 0.206 0.038 0.016 0.027-0.096-0.024-0.236m-0.394 2.024 9e-3 -5e-3 -0.012-0.019 3e-3 0.024m0.042-0.32 0.093 0.051 0.136-0.025 0.024-0.03-0.058-0.14-0.096-0.023 1e-3 0.126-0.018 6e-3 -0.082-3e-3v0.038m0.339-0.508-1e-3 -1e-3 1e-3 1e-3m0.478 0.975 0.119 0.105c0.02-0.1-0.068-0.156-0.096-0.236l-0.024 0.036 1e-3 0.095m0.051-7.474-0.106-0.102-0.074 0.108 0.22 0.072 0.034 9e-3 0.04 0.014c-0.029-0.041-0.01-0.129-0.114-0.101m-0.357 0.563-0.149-0.121-0.05 0.056c6e-3 0.093 0.095 0.058 0.144 0.084l0.055-0.019m-0.219-0.111-5e-3 0.014-3e-3 1e-3 -2e-3 4e-3 -0.01 3e-3 7e-3 1e-3 3e-3 -4e-3 3e-3 -1e-3 2e-3 -4e-3 0.014-4e-3 -9e-3 -0.01m0.013 0.585c0.136-0.025 0.171 6e-3 0.156 0.137 0.061-0.104 0.19-0.073 0.288-0.145-0.233-0.071-0.463 2e-3 -0.666-0.067 0.025 0.073 0.093 0.1 0.222 0.075m2.058 5.182 0.109 6e-3 0.073 4e-3 0.091 0.011 0.157 0.017 0.022 3e-3 0.096 0.02v1.714h-0.214l0.021-0.095-2e-3 2e-3 1e-3 -2e-3 -0.124 0.091c-0.03-0.051 0.037-0.161-0.093-0.15l2e-3 0.132 5e-3 0.022h-0.744v-0.108l0.116-8e-3 0.045-0.022-0.08-0.03-0.081-1e-3v-0.036l1e-3 -7e-3 -1e-3 -0.052v-0.28h-0.026c-0.182 0.249-0.352 0.412-0.562 0.508l0.014-0.04h-1e-3c-0.092-0.022-0.147-0.111-0.135-0.22l-0.081-0.01 0.04 0.212 0.116 0.077c-0.144 0.057-0.309 0.085-0.508 0.089l-0.072-0.101-0.013-0.054-0.029-0.096-0.078 0.022-0.053 7e-3c-0.034 0.055-0.087 0.116 0.04 0.116l0.028 0.013 0.029 0.089c-0.314-0.023-0.568-0.149-0.746-0.369v-1e-3h-1e-3c-0.193-0.239-0.298-0.586-0.298-1.028v-0.085l0.013-0.027 0.081-0.152c0.086-0.073 0.082-0.195 6e-3 -0.309l-0.017 0.01c0.089 0.155-0.024 0.262-0.083 0.383v-2.093l0.013-0.024-0.013 7e-3v-0.903c0-0.298 0.049-0.552 0.139-0.76l0.185-0.239-0.045-2e-3c0.197-0.261 0.493-0.402 0.869-0.402 0.483 0 0.835 0.145 1.083 0.508h0.027v-1.376l0.068 0.021 0.062 1e-3 0.178-0.034c0.126 9e-3 0.251 0.03 0.376 0.046l0.018-2e-3 0.028-0.041-0.011-0.02-0.044-0.011c-0.12-0.045-0.242-0.066-0.371-0.048l-0.196-0.042-0.048 0.012 0.032 0.047-0.092-8e-3v-0.057c0-0.507-0.144-0.689-0.457-0.689-0.34 0-0.457 0.169-0.457 0.52v0.472h-1.227v-0.508c0-0.895 0.718-1.209 1.605-1.209 1.102 0 1.675 0.521 1.752 1.455l-0.012 0.01c-0.038-0.104-0.168-0.085-0.231-0.179l-0.109 0.079 0.033 0.089 0.124 0.057 0.079-0.085 0.034 0.011-0.031 0.137-6e-3 0.042 0.105 0.015 0.022-0.015 2e-3 0.065v1.548l-0.057 0.031-0.019 8e-3 -0.015 0.039v0.029l-7e-3 0.041-0.05 0.036-0.017 0.019 0.058 0.031c0.097 0.037 0.042 0.078-3e-3 0.101l-0.116 0.121 0.226-0.085v2.421l-9e-3 -2e-3 -0.02 0.045-0.01 0.16 0.039-5e-3v0.334l-0.017-3e-3c-0.171-9e-3 -0.342-0.019-0.513-0.026l-0.062-0.053-0.085-0.234c-0.024 0.1 0.036 0.181 0.047 0.271l0.082 0.061m17.269-1.241 0.019-0.128 0.079-0.035 0.186 0.06 0.033 0.029-0.124 0.089-0.031 0.073 0.094 0.056 0.028 0.142-0.094-0.037-0.147-5e-3 -0.043-0.244m0.087 1.956 0.162-0.11 0.09 7e-3 -0.039 0.062-0.137 0.035-0.076 6e-3m0.103-1.317 0.034-0.12 0.124-0.047c0.056 0.037 0.143 0.025 0.167 0.118l-3e-3 0.114c-0.035 0.096-0.078 0.072-0.122 7e-3 -0.049-0.073-0.096-0.151-0.2-0.072m0.287-1.653-0.07-0.04 0.085-0.026 0.045-0.022-0.04-0.043-0.071-0.024-8e-3 -0.148 0.041-0.03 0.15 5e-3v0.02c-0.03 0.095 0.028 0.066 0.059 0.037l0.061 0.018 0.049 0.017v-2e-3h2e-3v1e-3l-2e-3 1e-3 0.106 0.113-0.055 0.088c-0.111 0.078-0.22 0.149-0.352 0.035m0.326-0.612-0.024-0.05 0.015-0.114c0.104-0.03 0.186 8e-3 0.253 0.086l0.015 0.041-0.259 0.037m-0.01 0.176c-0.051 0.116-0.064 0.12-0.171 0.061l-0.036-0.04 0.047-0.015 0.16-6e-3m1.186 1.906 1e-3 -1e-3v1e-3zm0.609 0.66 0.044 0.013-0.032 0.086-0.057-0.017 0.045-0.082m-1.393-3.95 2e-3 -1e-3v2e-3h-1e-3l-1e-3 -1e-3m0.113-0.355 0.065 0.043 0.058 0.03 0.032 0.156-0.048 0.019-0.142-0.214 0.035-0.034m-0.891-1.898 0.062-0.02c0.124 0.061 0.249 0.12 0.393 0.07l0.032 7e-3 -0.04 0.049-0.147 0.057-0.112 3e-3 -0.129-0.123-0.059-0.043m0.514 0.515 0.042 5e-3 0.023 0.096 0.019 0.08 0.014 0.077-0.043 0.026-0.066-0.053-0.015-0.085-0.024-0.022 0.05-0.124m-1.58 6.431-0.287 1.157h1.305l0.044-0.238-0.026-0.053-0.067-0.042-0.044-0.076 0.062-0.077 0.058-0.036 0.02 0.071 0.017 0.101 0.145-0.787-0.035 0.024-0.165 0.13-0.03-0.038 0.047-0.07 0.199-0.132 0.288-1.561-4e-3 -0.015-0.065-0.016-0.24 0.095-9e-3 -0.065 0.196-0.114 0.142 3e-3 0.244-1.319-0.016 0.052 2e-3 1e-3 1e-3 1e-3 -2e-3 1e-3 -1e-3 -3e-3 -0.242-0.061-0.036-0.045 0.047-0.083 0.047 0.017c4e-3 0.097 0.054 0.061 0.11 0.05l0.099 0.02 0.023-0.125h0.026l0.074 0.395 0.122 7e-3 -0.109 0.062 5e-3 0.028 0.032 0.017 0.057 0.035-0.065 0.029-8e-3 2e-3 0.014 0.076c0.077-0.032 0.148-0.133 0.24-0.024h0.041l0.07 0.045-0.114 0.02-0.075 0.026h-1e-3l-0.086-0.014-0.063 5e-3 -1e-3 -1e-3 0.051 0.277 0.117 0.017 0.091 0.06 0.041 0.059-0.1 0.04-0.035-0.02-0.06-0.084-0.03 0.053 0.077 0.413 0.14 0.108 0.092 0.011 0.139-6e-3 -6e-3 0.046-1e-3 2e-3 -0.041 0.065-0.045 6e-3 -0.144-0.063-4e-3 -1e-3 -0.11-0.062 0.051 0.275 0.164 0.073 0.041 0.03 0.022 0.046-0.152 0.049-0.041-0.022 0.211 1.131 0.011 4e-3 -3e-3 0.036 0.035 0.189 0.022 0.013-0.012 0.04 0.168 0.897h1.227l-0.59-2.295c-0.071 0.023-0.127 0.061-0.099 0.184l-0.022 0.038-0.131 0.029-0.04 0.128-0.022-4e-3 -5e-3 -0.106-0.061 0.05-0.118-5e-3 5e-3 -0.061-0.021-0.084 0.038-0.137 0.112-0.052 0.018-3e-3 0.11 3e-3c0.095 0.034 0.125 0.027 0.198-0.053l0.018-3e-3 -0.477-1.856-0.03 5e-3c-0.113-0.035-0.221 0.023-0.334 0.018l-0.116-1e-3 -0.069 0.061h3e-3l6e-3 -2e-3 6e-3 5e-3 -0.012-3e-3 -3e-3 1e-3 -0.02 7e-3 -0.083 0.034c-0.142-0.065-0.232-0.169-0.265-0.326l-0.113-0.149-0.047-0.106 0.031-0.02 0.097-0.022 0.191-0.048-0.055 0.075-0.071 9e-3 -0.038-1e-3 -2e-3 9e-3 0.037 5e-3 0.071-0.011c0.064 0.018 0.151 0.011 0.122 0.123l0.025 0.049 0.02 0.066-0.07 0.024-0.075 0.055 0.121 0.139c0.107-5e-3 0.21-0.042 0.318-0.029 0.106 0.039 0.188-0.079 0.298-0.041l0.04 0.01-0.06-0.236-8e-3 -4e-3 -0.01-0.065-0.436-1.696-0.146 0.056 9e-3 -0.072-4e-3 -0.094-0.035 0.01c-0.051 0.1-0.229 0.114-0.316 0.047-0.117-0.09-0.145-0.245-0.26-0.333l-7e-3 -0.03-0.065-0.087c-0.093 0.017-0.074-0.072-0.114-0.102l-0.033-0.14-0.038-0.094-0.02-0.04-0.048-0.053-0.037-0.054-0.075-0.146-0.051-0.094 0.036-0.02 0.129-0.058-0.012-0.034-0.115-0.012-0.03-0.133 0.052-0.079 0.129 0.038c-0.038 0.108 0.056 0.199-4e-3 0.293l0.073 0.012 0.104 0.065c0.027 0.092-0.037 0.065-0.071 0.081l-0.093 0.038-0.034 7e-3 0.029 0.012 0.139 0.06 0.112 0.063 0.094 0.029c-0.08 0.064-0.161 0.124-0.123 0.233l0.084 0.135 0.07 0.046 0.108-0.038-0.06-0.077 0.114-3e-3c0.078 0.089 0.179 0.096 0.286 0.095l0.071 0.022-0.06 0.058-0.057 0.138 7e-3 0.028-0.024 0.061 0.099-0.027 0.12-0.066-0.151-0.588-0.113 0.08-0.095-0.043c-0.041-0.097 0.079-0.178-0.03-0.274 0.117 0.02 0.119 0.02 0.096 0.132-0.015 0.078-0.026 0.139 0.085 0.079l0.05-1e-3 -0.284-1.106h-1.108l0.022 0.029c0.092 0.092 0.149 0.202 0.185 0.325l0.018 0.041-0.01 0.021-0.049 2e-3 -0.012-0.012c-0.054-0.095-0.107-0.191-0.164-0.284l0.489 1.947v-1e-3l0.047-0.057c0.056-0.052 0.158-0.092 0.054-0.19l0.021-0.023-1e-3 -1e-3 4e-3 -7e-3 -2e-3 8e-3h-1e-3l0.128 0.08 0.123 0.057c0.038 0.111 0.118 0.123 0.212 0.112l0.057 0.014-0.039 0.055v1e-3l-3e-3 8e-3 2e-3 -8e-3 1e-3 -1e-3 -0.071-6e-3 -0.096 0.105-0.093 0.041-0.059-0.119 0.112-5e-3 -0.106-0.179-0.076-0.02 7e-3 0.069-4e-3 0.149-0.011 0.062 7e-3 0.181-0.026 0.142c0.068-0.028 0.144-0.04 0.123-0.15l0.088-0.06 0.049 0.081-0.092 0.132c-0.107 0.051-0.131 0.147-0.116 0.257l3e-3 0.028-0.139 0.038-0.036-0.022-0.014-0.047-0.071 0.046c4e-3 0.092-0.048 0.129-0.105 0.163l-0.028 0.111 4e-3 7e-3 0.058 9e-3 0.152-0.115 0.059 0.017-0.018 0.106-0.027 0.075-0.176 0.076-0.101 0.022-0.013 0.051 0.016 0.035-0.016 0.011h-0.011l-0.062 0.25 0.026 3e-3 0.139-0.123c0.041-0.068 0.078-0.078 0.173-0.026-0.125 8e-3 -0.142 0.084-0.162 0.179-0.016 0.081-0.062 0.171-0.183 0.151l-0.032 0.042c0.056 0.079 0.027 0.208 0.171 0.242l-0.018 0.13c-0.037 0.049-0.081 0.076 0.01 0.107l0.013 0.058 0.024 0.108 0.024 0.04 0.028 0.058c-0.083 0.03-0.158 0.104-0.277 0.041 0.1-0.018 0.083-0.118 0.145-0.157l2e-3 -0.041c-0.072-0.093-0.125-0.203-0.215-0.281l-0.57 2.291 0.046 0.064-0.049 0.059-0.029 7e-3 -0.123 0.495 3e-3 -3e-3 -6e-3 0.014m-25.271-2.196-0.067-0.053 0.097-9e-3 0.049 0.053-0.015 0.037-0.064-0.028m8.458-1.719 2e-3 0.028-0.116-0.042 0.114 0.014m-6.9-0.419 0.021 0.024-6e-3 0.043-0.014-0.032-1e-3 -0.035m24.971 1.322-4e-3 0.025-0.03-3e-3 7e-3 -0.028 0.027 6e-3m-6.012 3.259-0.012-0.045 0.087-0.136 0.113 0.525-0.016 3e-3c-0.059 0.036-0.096 0.057-0.089-0.05 4e-3 -0.061 2e-3 -0.148-0.095-0.175l5e-3 -0.064 7e-3 -0.058m-11.965-4.132 0.046 0.017-0.094 0.095 0.048-0.112m6.612-0.52 0.12 0.074 0.063 0.095h0.069l0.203-0.052 0.156-6e-3 -0.061 0.077-0.212 0.048-0.031 0.012h-1e-3c-0.038-0.011-0.106-0.063-0.086 0.032l0.109 0.195 0.017 0.022 0.099 0.161-9e-3 4e-3 9e-3 -3e-3 0.064 0.13 0.031 0.052-0.058 0.011-0.052-0.016c-0.098-0.058-0.189-0.098-0.218 0.067-0.131-0.033-0.032 0.128-0.114 0.136l-0.056 0.016-0.063-0.134 7e-3 -0.045c0.045-0.066 0.116-0.12 0.111-0.214l0.039-0.033 0.045-0.044-0.067-0.063-0.105-0.087-0.05-0.111c-0.083-0.097-0.01-0.127 0.064-0.162l-0.065-0.072 0.042-0.09m-0.07 1.414 0.021-2e-3 0.011 0.022-0.103 0.145c-0.099-0.051-0.066-0.162-0.11-0.239l0.117 0.034 0.064 0.04m-0.16 0.11 0.019 0.044c-0.126 0.043-0.037 0.096-7e-3 0.144l9e-3 0.075-0.026 0.05-0.024-0.051-0.057-0.054-0.035-0.077 0.121-0.131m-0.256 0.985 0.178 0.105-0.041 0.074-0.071 0.141-0.102-0.123 0.036-0.197m-0.01 0.568 0.092 0.048 0.025 5e-3 0.076 0.049-0.082 0.018-0.074 0.029-0.088-0.011-0.023-0.096 6e-3 -0.069 0.068 0.027m0.235-0.963c0.012-0.138 0.123 7e-3 0.173-0.052l0.061 0.045-2e-3 0.01-0.129 0.051-0.103-0.054m0.256-0.355 0.015 0.011-0.011 0.016-0.016-8e-3 0.012-0.019m-0.026-0.046-0.019-0.043 0.043-0.046 0.025 0.042-0.049 0.047m-0.047 2.646 0.018-0.055 0.073-0.076 0.066-1e-3 0.05-1e-3 6e-3 0.091-0.122 0.016-0.057 0.033-0.034-7e-3m0.207-2.832-0.041-0.052 0.061-0.12 0.092-0.067 0.145-0.065c-0.075 0.09-0.069 0.199 0.017 0.327 0.059 0.088 0.04 0.136-0.065 0.161l-0.055 0.013-0.028-0.066-0.049-0.074-0.077-0.057m0.863-0.767 0.065 0.058 0.096-0.08c-0.047-0.156 0.071-0.084 0.126-0.101l0.111-0.051 0.073-1e-3 0.013 0.112-0.067 0.041-0.046 3e-3 -0.047 0.055c-0.102-0.026-0.151 0.062-0.218 0.102l-0.129-4e-3 0.023-0.134m0.364 0.108 0.068 0.013 0.052 0.096 0.088 0.185-0.041 0.071-0.088-0.042-0.085-0.25 6e-3 -0.073m0.438 1.765 0.02 0.04 1e-3 -1e-3h1e-3l-2e-3 2e-3v-1e-3l-0.03 0.232-9e-3 0.076-0.092-0.023-0.043-0.075v-1e-3 1e-3l0.022-0.044 6e-3 -0.22 0.126 0.014m1.28-1.116 0.095 0.018 0.132-0.048 0.055-0.056 0.013-0.014 0.015 0.165c-0.07 0.064-0.163 0.105-0.183 0.215l-0.064 7e-3 -0.047-0.074-0.018-0.041-0.051-0.066 0.053-0.106m0.346-0.283-0.148-0.224 0.166-4e-3 0.068 0.023-6e-3 0.047-0.08 0.158m5e-3 -0.304-0.024 0.045-0.04-0.011-0.078-0.19 0.025-0.044 0.045 0.027 0.03 0.071 0.042 0.102m-0.048-0.997c-0.112-8e-3 -0.202 0.075-0.312 0.084l0.063-0.09 0.1-0.037 0.149 0.043m-0.171 0.562 0.063 0.053 0.014 0.155-0.105-0.123 0.028-0.085m0.987 0.732 0.177-0.095 0.063 0.096-0.026 0.039-0.118 0.078-0.044 0.014-0.052-0.132m0.272-0.119 0.012-0.014 9e-3 2e-3 -0.011 0.015-0.01-3e-3m0.202 3.475 4e-3 2e-3h1e-3l-1e-3 1e-3zm0.12-0.535 2e-3 2e-3 0.019 3e-3 -0.01-1e-3 -9e-3 -1e-3 -2e-3 -3e-3m0.011-0.867 0.04-0.074 0.159-1e-3 -0.09 0.133-0.109-0.058m-4.747-3.69-1.187 6.071h1.305l0.327-2.414-0.014-0.022 0.025-0.061 0.23-1.694-0.01-5e-3c-0.038-0.127-0.064-0.257-0.203-0.327l5e-3 -0.135 0.125 0.041 0.077 0.141 0.037 0.056 0.034-0.251-9e-3 0.036-0.011 0.017-0.053-0.054-0.035-0.161 0.024-0.126 0.112-0.126 0.08 0.048-0.015 0.03-0.09 0.136 0.042 0.045 0.024 0.031-0.051 0.079h0.014l0.092 0.559 9e-3 0.055 0.019 0.117 0.122 0.082 3e-3 0.144-0.088 2e-3 0.054 0.331 0.25 0.036 0.22 0.07 0.028 0.057 0.057 0.039c0.085-0.074 0.103-0.052 0.091 0.049l0.041 0.062-0.126 1e-3 -0.046 0.015-0.066 0.011-0.103-0.098-0.108-0.04-0.01 0.077-0.206-0.146 0.11 0.674 0.02-0.097 0.116 0.027-3e-3 0.156-0.123-0.022 0.417 2.555h1.396l0.16-1.032-0.023-0.028 0.033-0.034 0.038-0.244-0.183 0.162-7e-3 0.04c0.039 0.097 0.07 0.193 0.025 0.297l0.02 0.036 0.038 0.064-0.128 0.059-0.032-0.072-0.036-0.095-0.157 0.135-0.021 0.03-0.126 0.088-0.181 0.052-0.193 0.014c0-0.091-0.018-0.168-0.15-0.146l0.157-0.083 0.167 1e-3 0.132-0.115c0.115 0.023 0.144-0.095 0.23-0.114l0.054-0.091c-0.014-0.14 0.101-0.219 0.153-0.328l0.035-0.022 0.209 0.046 0.049-0.313-0.081-0.067-0.022-0.17 0.043-0.044 0.045 0.118 0.025 0.099 0.27-1.746-0.07 0.071c-0.057 0.127-0.1 0.132-0.201 0.031l-0.048-0.045-0.073 3e-3 6e-3 0.06 3e-3 0.069h-0.051l-0.044-0.068-0.034-0.201-0.011-0.105 0.126-3e-3 0.075 0.1 0.063 0.034c0.087-0.034 0.176-0.062 0.272-0.027l0.032-0.21-0.023-0.035 0.033-0.03 0.026-0.167c-0.053-0.106-0.062-0.23-0.131-0.328l0.012-0.075 0.077 0.038 0.06 0.12 0.013 0.042-1e-3 0.011 0.077-0.498h0.026l0.256 1.779 4e-3 3e-3 0.194 0.146 0.081 0.094-0.115 0.034-0.023 1e-3 -0.106-0.036 0.087 0.605 0.114-0.043 0.044 0.023-0.026 0.046-0.124 0.029 0.293 2.035h1.125l-4e-3 -0.016 0.055 0.016h0.051l-0.081-0.375c-0.048 0-0.087 7e-3 -0.029 0.1l0.014 0.119-0.072-0.054c-0.044-0.055-0.068-0.136-0.171-0.093l-0.089-0.031 0.026-0.08c0.024-0.05 0.123-0.092 0.017-0.159l0.01-0.074c6e-3 -0.092-0.038-0.124-0.125-0.091l-0.123 0.103-0.06 0.042-0.051 0.046-0.126 0.155-0.048 0.018-0.102 0.027-0.121 0.046 0.029-0.115 0.114 0.017 0.094-0.061 0.042-0.026 0.1-0.169 0.106-0.146c0.101-6e-3 0.129-0.068 0.131-0.148l0.057-0.089c0.065-0.027 0.168-0.058 0.16-0.172l0.033-0.019-0.572-2.663-0.093-0.029-0.024-0.015c-0.058-0.093 0.03-0.087 0.075-0.111l0.021 0.056-0.277-1.288-6e-3 0.018c-0.065 0.106-0.024 0.234-0.075 0.341l-0.113 0.023 0.049-0.176 2e-3 -5e-3c0.025-0.086-0.032-0.194 0.067-0.262l-7e-3 -0.03 0.042-0.1-0.129-0.601h-0.137l-0.038 0.018c-0.11 0.023-0.206 0.077-0.299 0.136l-0.03 0.021c-0.021 0.048-0.149 0.027-0.086 0.13l0.052 0.019-0.052-0.017-0.061 0.028c-0.015-0.067-0.077-0.143 0.032-0.189l0.118-0.021 0.037-0.028 0.039-0.022 0.128-0.075h-1.057l-7e-3 0.048 4e-3 0.043 0.018 0.071-0.08 2e-3 -0.017 0.121 7e-3 9e-3 -0.01 0.012-5e-3 0.039 0.047 0.097c0.033 0.077 0.051 0.166 0.153 0.188l0.071 0.34-0.05 0.018-0.026-0.033-0.101-0.176c-0.065-0.089-0.091-0.19-0.114-0.291l-0.585 4.229h-0.026l-0.355-1.885-2e-3 1e-3 -0.115-0.047-0.019-0.12 0.039-0.024 0.065 0.018-0.318-1.69-1e-3 1e-3 -0.024-0.131-0.019-0.104-0.076-0.076-0.034-0.073-0.062 0.054-0.04 0.088-0.035-0.051c-0.018-0.02 0.039-0.184-0.07-0.037l-0.085-1e-3 -0.087 0.018-0.034-0.025-0.101-2e-3 -0.22 0.05 2e-3 -0.049c0.099 0.031 0.108-0.053 0.149-0.099l0.082 0.065-0.012 0.031 0.1 2e-3 0.05-0.106 0.085-0.018c0.138 0.029 0.167 0.016 0.219-0.114l0.114 0.065 2e-3 -1e-3 -0.086-0.457zm-11.466 5.224 0.067-0.074 0.22-0.049 0.078 0.01 0.084-0.022-5e-3 0.011-0.026 0.017-0.053-5e-3 -0.153 0.061-0.212 0.051m0.213 0.371 0.109-0.075 0.043 1e-3 -0.088 0.218-0.043 0.034-0.029-0.047v-0.07l8e-3 -0.061m0.222 0.155 0.082-0.044-0.026 0.065-0.121 0.144-0.027-0.028 0.092-0.137m0.048-5.438-0.185-0.102 0.086-0.027 0.06 0.012 0.067-8e-3 0.128 0.064 0.01 0.041 0.07 0.06-0.03 0.025-0.084-0.058-0.122-7e-3m-0.335 3.711 0.152-0.117 0.04 4e-3 0.025 0.09-0.179 0.104-0.073-0.035 0.035-0.046m0.118-1.971-0.12 0.101c-0.103 0.069-0.109 0.067-0.13-0.065l0.023-0.117 0.058 0.044v0.02l-0.027 0.135 0.064-0.106 0.132-0.012m0.396 2.402 0.187 0.056-0.107 0.044-0.042-0.018-0.038-0.082m0.102 0.809 0.11-0.049 0.029-0.077 0.082 0.052c-0.051 0.067-0.037 0.209-0.187 0.162l-0.022-0.021-0.012-0.067m0.086-1.37-0.186 0.011c0.056-0.192 0.217-0.148 0.353-0.16l0.014 0.042-0.153 0.025-0.067 0.016 0.039 0.066m0.172-0.727-1e-3 2e-3h-2e-3l1e-3 -2e-3h2e-3l0.018-0.031 8e-3 7e-3 -0.026 0.024m-0.028 0.019m-0.084-1.826-0.035 0.094-0.109-0.068 0.109-0.149 0.035 0.123m-1.084 4.712h1.226v-0.452l-0.218 0.097-0.026 0.017-5e-3 0.044-0.064-0.032 0.069-0.013 0.026-0.018c-0.012-0.04 0.045-0.142-0.078-0.082l-0.035-0.038 0.024-0.037-0.026-0.073 0.023-1e-3 0.085 0.016 0.029-0.012 0.022 4e-3 0.141-0.017-0.033-0.021 0.038-2e-3 0.028-0.134v-0.46l-0.077-0.015-0.148 0.061-0.031-0.011 9e-3 -0.083 0.099-0.023 0.148 0.049v-4.182l-0.194-0.021-0.151-0.034-0.079-0.12 0.033-0.017c0.096-7e-3 0.161 0.064 0.239 0.098l0.136 4e-3 0.016-0.013v-0.55h-1.226v0.123l0.056-0.021 7e-3 -0.021-1e-3 4e-3 0.077-0.066 0.025 8e-3 0.136 0.168 0.024 0.078-0.073 0.029-0.105-0.027-0.146-5e-3v0.098l0.034-0.015 0.051-0.035h1e-3c0.114-2e-3 0.161 0.05 0.132 0.164l-0.05 0.019-0.133-0.071-0.035-0.021zm1.199-0.62 0.027-0.013v0.039l-0.031-4e-3 4e-3 -0.022m5.794-5.371-0.034-0.08h0.09c0.095 0.05 0.06 0.116 0.042 0.186l-0.098-0.106m-5.777 8.299 0.01-4e-3v0.095l-4e-3 -9e-3 -6e-3 -0.082m7.732-8.201-0.169 0.27-0.049 0.046v-0.494h0.304l-0.086 0.178m-2.449 0.495v-0.166l0.043-0.021-0.043 0.187m5.35 1.251 0.038 4e-3v0.024l-0.044 8e-3 6e-3 -0.036m0.088 0.116-0.012 0.02-0.02-0.019 9e-3 -0.017 0.023 0.016m-4.533 6.173 0.053 0.052c0.118-0.044 0.091 0.06 0.116 0.109l0.049 0.069 0.079-0.052 0.024-0.051v0.392h-0.433l-0.024-0.173-6e-3 -0.069 2e-3 -0.073-8e-3 -0.16 0.148-0.044m-6.592-0.378 8e-3 -0.217 0.05-0.064 0.094 0.052c-0.033 0.116 0.014 0.227 6e-3 0.342-0.081-0.016-0.012-0.198-0.158-0.113m19.835-4.012-0.037-0.089-0.053-0.075-0.063 0.055-0.06 0.012-0.16-0.183-0.183-0.229c-0.066-0.082-0.058-0.113 0.041-0.141 0.138-0.041 0.267-0.098 0.374-0.199l0.042-0.05 0.027-0.163-0.148 0.055-0.176 0.084-0.056 0.015-0.096 0.118-0.116 0.067-5e-3 0.104 0.118 0.187c0.082 0.141 0.212 0.248 0.273 0.406l0.152 0.103 0.052 0.013 0.056 0.059 0.018-0.149m0.036-1.702-2e-3 -0.099-0.077 0.047c-0.047 0.124-0.083 0.253-0.171 0.377l0.109-0.076 0.141-0.249m0.07-0.567 0.022-0.026 0.056-0.108-0.099-0.03-0.067 0.075 0.024 0.132 0.031 0.019 0.033-0.062m0.166-0.316 9e-3 -0.028c0.163 0.039 0.07-0.142 0.164-0.169-0.103-0.031-0.103-0.031-0.147 0.023l-0.123 3e-3 -0.064-0.019-0.062 0.103c0.013 0.038 0.084 0.106-0.037 0.092-2e-3 0.065-0.086 0.099-0.065 0.194 0.053-0.13 0.153-0.127 0.245-0.137l0.08-0.062m-0.061-0.548c-0.012 0.027 0.104 0.062-6e-3 0.084l-6e-3 0.04 0.038 9e-3c0.072-0.068 0.198-0.083 0.21-0.211l-0.236 0.078m-0.238 0.033-0.056 0.055 0.034 0.014-0.029 0.017v1e-3l-5e-3 0.096 0.019 0.079 0.077-0.062-0.04-0.2m-0.322 0.711c-0.039-0.027-0.11-0.043-0.062 0.063l-0.089 0.121-0.134 0.154 0.138 0.011 0.035-0.105c0.072-0.09 0.159-0.152 0.27-0.179l-0.158-0.065m0.017 0.501c-0.084 0.042-0.132 0.164-0.113 0.269 0.055-0.08 0.098-0.165 0.113-0.269m-0.255-0.511-0.147 0.02-0.01 0.016 9e-3 -0.016-0.019-6e-3v-0.011c0-0.411-0.222-0.701-0.64-0.701-0.348 0-0.459 0.097-0.479 0.75-0.063-0.095-0.127-0.19-0.192-0.283l6e-3 -0.082 0.135-0.209c-0.094 0.041-0.123 0.138-0.188 0.2l1e-3 0.103 0.061 0.091 0.04 0.061 0.047 0.079 0.081 0.135 6e-3 0.012-1e-3 0.159c0 0.768 0.102 1.106 0.441 1.209l-0.039 0.058 0.012 0.039c0.11-0.024 0.203 0.122 0.324 0.031l-0.131-0.085-0.093-0.016-0.047-0.02c0.076 0.02 0.164 0.029 0.264 0.029h0.392v-0.107l0.034 0.02 0.044-8e-3c0.124-0.098 0.248-0.198 0.37-0.3l0.021-0.064-0.069 0.016c-0.077 0.053-0.16 0.087-0.211 0.184l-0.189 0.135v-0.252l0.106-0.06 0.119-0.119 0.022-0.064-0.064-0.013-0.183 0.099v-0.219l0.013 0.016-0.013-0.094v-0.563l0.079-0.075 0.088-0.095m-1.731 2.137 0.017 0.034 0.099-0.037 0.015-0.019 0.067-0.079c0.073-0.012 0.101-0.042 0.118-0.137l-0.015 1e-3 -0.165 0.098-0.136 0.139m-0.296-3.246-0.02 0.092c0.152 0.156 0.206 0.383 0.388 0.516-0.104-0.208-0.226-0.405-0.368-0.608m0.768 2.223-0.038-0.036-0.041-0.057-0.195 0.086c0.091-9e-3 0.176 1e-3 0.251 0.05l0.023-0.043m-0.131 1.098 0.201-0.145-7e-3 -0.105-0.06 0.029c-0.038 0.108-0.151 0.104-0.228 0.154l-0.029 0.041c0.025 0.085 0.032 0.152 0.123 0.026m0.337-0.322 0.11-0.013 0.187 0.027 0.016 0.049-0.055 0.029-0.081 0.075-0.045 0.08 0.106-0.012 0.035-0.031 0.038-0.042 4e-3 -6e-3 0.044-0.035 0.127-0.038 0.05-0.047c-0.015-0.108 0.056-0.109 0.13-0.104l0.042-0.024c-0.068-0.105 0.042-0.133 0.081-0.191l-0.079-0.011-0.051 0.058c-0.065 0.192-0.23 0.168-0.379 0.182l-0.101-0.089-0.036 0.025-0.051-5e-3 -0.079-9e-3h-1e-3 1e-3l0.016 0.072-0.029 0.06v-1e-3zm1.925-0.718 0.187-0.15v2.222c0 1.064-0.613 1.476-1.735 1.476-0.21 0-0.4-0.015-0.572-0.042l0.067-0.03 0.08-0.098 0.067-0.17 0.135 0.013c0.02-0.097-0.083-0.179-0.03-0.274l-0.05-8e-3 -0.066 0.013 0.032 0.057 0.034 0.078-0.06 0.03-0.068-0.014 0.033-0.061-0.069-0.024-0.031-0.104 0.056-0.113 0.051-0.017 0.141-0.017-9e-3 -0.056c0.072 0.026 0.158 0.038 0.259 0.038 0.177 0 0.295-0.041 0.373-0.116v1e-3l0.175-0.035-9e-3 -0.061-0.012-0.153 0.135-0.052c0.116-2e-3 0.238 0.057 0.346-0.031l-0.114-0.041-0.101-0.048-0.041-0.024-0.251 0.134 8e-3 -0.154v-0.464l0.018 0.031 0.026 0.101-0.02 0.118 0.13 0.06 0.036-0.061 0.061-0.129-0.113 0.052-0.075-0.031 0.168-0.112-0.075-0.183-0.046-0.032-0.11 0.056v-0.386c-1.41 0-1.618-0.096-1.906-0.375-0.301-0.289-0.417-0.542-0.439-1.448l0.032 0.048 0.068-0.105-0.079-0.108-0.024-7e-3 -1e-3 -0.206c0-1.451 0.47-1.656 1.2-1.656 0.314 0 0.653 0.12 0.875 0.326 0.13 0.121 0.208 0.242 0.352 0.375v-0.629h1.148v1.469l-0.06-8e-3 -0.097 0.08 0.013 0.01 0.144 0.059v0.427c-0.08 0.102-0.121 0.221-0.196 0.316-0.096 0.119-0.219 0.205-0.333 0.313 0.152 0.085 0.222-0.062 0.342-0.07m-2.306 3.197-0.01-0.061-0.036-0.055-0.067-0.07 0.016 0.093 0.032 0.068 0.065 0.025m-0.489 0.068c0.129 0.084 0.282 0.15 0.461 0.196 4e-3 -0.084-0.055-0.149-0.155-0.16l-0.045 1e-3 -0.109-0.038 0.116-0.054c-0.021-0.066-0.029-0.133-0.121-0.085l-8e-3 0.06-0.139 0.08m0.484-0.017 0.083 0.174 0.08 0.036 0.023-0.086-0.186-0.124m-0.964-1.403-0.022-4e-3v0.388c0 0.247 0.046 0.456 0.135 0.632l0.127-0.037 0.05-0.037 4e-3 0.108-0.128 0.06 0.14 0.173 0.073 7e-3c-0.054-0.114-0.05-0.136 0.04-0.207l-0.056-0.111c0.057-0.079 0.134-0.101 0.239-0.057-0.027-0.091-0.05-0.167-0.072-0.243l-2e-3 -0.019 0.179-0.04 0.047 0.074 0.112 0.05 0.011 0.074-0.032 0.016-0.062 0.206-0.013 0.046 0.054-0.017 0.083-0.058 0.01 0.082 0.104-0.203 0.215 0.051-0.017-0.092 0.096-0.015 0.069-2e-3c-0.117-0.075-0.179-0.211-0.179-0.429v-0.556h-1.179l0.076 0.025-0.061 0.091-0.041 0.044m0.733 0.926 0.022-0.036-9e-3 -4e-3 -0.013 0.04m0.471 0.466-0.027 0.079 0.044 0.023 0.035-0.078-0.052-0.024m5.748-1.943 0.042-0.062 0.092 0.034-0.028 0.041-0.106-0.013m-27.559 1.87-9e-3 0.049-0.109-0.133 0.021-0.01 0.097 0.094m9.652-4.298 0.038 0.047-0.054-0.026 0.016-0.021m-0.108 4.935 0.11-0.234c-0.054 0.069 0.056 0.208-0.11 0.234m0.107-1.993-2e-3 -0.041 0.044 3e-3 0.053-0.014 0.041 7e-3 0.096 0.015 0.182 0.05c-0.156 0.084-0.284 0.014-0.414-0.02m0.038 1.968 0.123-0.063c0-0.094 0.077-0.096 0.122-0.071 0.095 0.056 0.096-5e-3 0.109-0.066l0.021-0.087-0.085-0.022-0.015-0.12 0.055-0.113 0.042 0.029 8e-3 0.223 0.034 0.138-0.164 0.159-0.042-0.028-0.084-0.041-0.014 0.092-0.11-0.03m0.202 0.532 0.141-0.119 0.035 0.104 0.011 0.058-0.032 0.099-0.017 0.029-0.068-0.015 0.019-0.108-0.061-0.02-0.028-0.028m0.156-1.25c0.045 0.149-0.013 0.114-0.096 0.083l-0.015-0.048c7e-3 -0.091 0.078-0.179 0.015-0.274l0.013-0.067 0.088 0.059-5e-3 0.247m0.174-0.614 0.011-0.06-0.049-0.017c-0.073 0.015-0.153 0.018-0.134 0.133l-0.057 0.095-0.029-0.059-0.068-0.03 0.055-0.058 0.035-0.038 1e-3 -0.044 0.132-0.026c0.079-0.128 0.197-0.245 0.084-0.412l-0.016-0.077 0.056-0.056c0.024 0.066-0.021 0.171 0.104 0.18l-6e-3 0.048c-0.049 0.057-0.091 0.113 4e-3 0.166l7e-3 0.069-0.045 0.123 1e-3 0.057 3e-3 6e-3 0.01 0.057 3e-3 0.046-0.054 0.092-0.036-0.084-0.012-0.111m0.016-0.872-0.02 0.039-0.055 0.024 0.011-0.251c-0.047-0.099-0.024-0.186-0.019-0.279l0.028-0.065 0.039 0.056c7e-3 0.159 0.012 0.317 0.016 0.476m-0.346 0.6 0.069-0.064 0.147-0.054c0 0.151-0.172 0.137-0.22 0.24l-0.038-0.014 0.042-0.108m-0.117 0.73 7e-3 -0.012 0.038 0.176 0.023 0.102 6e-3 0.023-0.029 0.101-0.039-7e-3 -0.028-0.192 0.022-0.191m0.385-1.967c-0.045-0.145-0.126-0.252-0.197-0.365l9e-3 -0.089 0.08 0.058c0.013 0.1 0.087 0.17 0.114 0.263l-6e-3 0.133m-0.054-2.482v0.045l-0.077 0.153-0.084 0.011 0.026-0.07 0.052-0.07 0.027-0.1-0.082-0.046-0.25 7e-3 -0.043-0.025 0.017-0.047c0.097-0.056 0.037-0.089-0.021-0.109l-0.064-0.108 0.059-0.036 0.081 0.091 0.112 0.143h0.03l0.173 9e-3c0.094 0.047 0.062 0.092 0.044 0.152m-0.146 2.725 0.023 0.166-0.027 0.129-0.042 0.021-0.076-0.109 0.035-0.221 0.049-0.043 0.038 0.057m-0.131-0.205c-0.096-0.048-0.164-0.16-0.147-0.253 0.074 0.075 0.116 0.161 0.147 0.253m-0.142 0.264-0.083 0.09-0.035 0.051 0.026-0.179 0.092 0.038m-0.016-1.032-0.033 0.013-0.12-0.06-0.019-0.099 0.083-0.06 0.053 0.109 7e-3 0.033 0.029 0.064m0.045 5.707 4e-3 -3e-3h1e-3v1e-3zm1.843-2.736-0.043-0.018-0.134-0.093 0.114-0.121c0 0.069-0.018 0.129 0.082 0.129 0.183 1e-3 0.08-0.121 0.087-0.211l0.075 0.124c0.094-0.121 0.086-0.267 0.107-0.405l0.044-0.018 0.1-0.051 0.101-0.067c5e-3 0.139-0.116 0.201-0.183 0.295l-0.041 0.139 0.13 0.083 0.054 0.03-0.078 0.16c-0.129 0.039-0.259 0.07-0.318 0.216l-0.045-0.101-0.045 0.013-0.073 0.043-0.042 0.051-0.054-0.079 0.125-0.072 0.037-0.047m0.554-3.401-0.093 0.113c-0.097 8e-3 -0.159-0.052-0.221-0.112l-0.091-0.092 0.021-0.084c0.033-0.065 0.144-0.021 0.159-0.113l0.044-8e-3 -4e-3 0.152 0.04 0.069 0.101-0.041 0.13 0.063-0.086 0.053m0.01 2.673 0.023-0.043 0.087-0.167c-1e-3 -0.104 0.088-0.03 0.126-0.06l0.059 0.019-0.029 0.052c-0.07 0.085-0.174 0.14-0.212 0.251l-0.054-0.052m0.19-1.146-0.05 0.045-0.028-0.077 0.033-0.046 0.03-0.085-0.08 2e-3c0.091-0.066 0.133-0.186 0.25-0.233l0.09-1e-3 0.018 0.075-0.066 0.024-0.053 0.023c-0.086 0.072-0.11 0.175-0.144 0.273m0.289-1.409c-0.088-4e-3 -0.179-0.014-0.178 0.116l-0.075-0.099 0.036-0.127 0.195-0.062 0.09 0.071-0.068 0.101m0.083-0.588-0.081-0.084 0.044-0.015-9e-3 -0.016-0.052 0.029-0.085-0.013-0.052 0.042-0.069 0.249-0.057-0.032 0.027-0.225c0.023-0.118 0.142-0.12 0.216-0.176l0.044-9e-3 0.067-0.039 1e-3 0.083 0.101 0.133-0.095 0.073m-0.128-0.884-0.038 0.017-0.103-3e-3 0.077 0.119 0.044 0.034-0.053 0.067-0.08 0.031-0.068-0.038-0.103-0.064-0.038-0.03c-0.019-0.091 0.058-0.073 0.102-0.092l0.113-0.111 0.103-0.036 0.072 3e-3 -0.028 0.103m-0.307-0.406-0.052 0.103-0.025 0.075v1e-3l-0.064 0.06-0.034 0.054-0.054-0.023c0.023-0.081-0.017-0.201 0.127-0.209l0.024-0.033 0.078-0.028m-0.294 0.225-0.015 0.041-0.132 0.032-0.019-0.107c-5e-3 -0.11-3e-3 -0.114 0.078-0.133l-0.014 0.149 0.056-0.027 0.062-0.024-0.016 0.069m-2.506 3.572v4.324h0.742l4e-3 -0.042-0.074-0.181-0.052-0.173-0.04-0.194-0.037-0.099c0.018-0.069 0.055-0.17-0.04-0.231l9e-3 -0.078c0.012-0.148-0.011-0.166-0.149-0.106l-0.108 6e-3 -0.014-0.057 0.189-0.1 0.036 0.05 0.033-0.059c0.037-0.108 0.082-0.214 0.087-0.331l0.041 0.019 1e-3 0.197 0.117-0.036 0.099-0.057 0.091-3e-3 0.032 0.127c-6e-3 0.048 0.017 0.113-0.079 0.092l-0.064 0.076-0.138-0.12-0.046 0.249-7e-3 0.017 0.011 0.077 0.048 0.209 0.043 0.018 0.042 0.04 0.048 0.043 0.197 0.03 0.093-0.041 8e-3 -0.017 0.077-0.032 0.026-0.039v-2.423h0.026c0.092 0.194 0.248 0.339 0.431 0.435 0.103 0.052 0.214 0.088 0.327 0.112l3e-3 -0.024 0.113 0.044 0.183 0.014c0.614 0 1.149-0.303 1.149-1.198v-0.679l-0.019-0.046-5e-3 -0.224 0.024 0.052v-2.38l-0.017-1e-3c-0.029 0.048 0.017 0.135-0.078 0.148-0.052-0.098-0.042-0.118 0.077-0.149l0.018-0.047v-0.297l-0.12 0.045-0.063-0.019 0.183-0.125v-1.224h-0.842l-0.128 0.218-0.071 0.092 7e-3 0.092 2e-3 -2e-3 3e-3 -6e-3 7e-3 -3e-3 -0.01 9e-3 -1e-3 3e-3 -1e-3 -1e-3 -6e-3 0.021-0.022 0.087-0.165 0.056v4.163c0 0.135-0.017 0.255-0.067 0.347l0.014 2e-3 0.027 0.066-0.126 0.067-0.032-7e-3 -0.17 0.06 1e-3 0.025-0.116 0.032 0.029 0.047c0.093 0.015 0.083 0.057 0.027 0.107l-0.034 0.055-0.042-2e-3 -7e-3 -0.059-0.037 0.03-0.057 0.067-0.06-0.021-0.158-0.036c3e-3 -0.108 0.081-0.193 0.176-0.174l0.161-0.015 0.032-0.048-0.031 1e-3c-0.3 0-0.535-0.169-0.535-0.641v-0.267l-0.185-0.015-0.08-0.067 0.017-0.133-0.036-0.147 0.021-0.053 0.039-0.191 0.045-0.152 0.115 0.12 0.014 0.064c0.016 0.145-0.016 0.283-0.067 0.418-0.037 0.096-0.017 0.12 0.088 0.117l0.029-2e-3v-2.568l-4e-3 2e-3 -0.085-0.044 0.089-0.046v-1.668h-0.531v0.055c-0.023 0.116 0.039 0.192 0.136 0.247l0.023 0.014-0.053 0.133-0.039 0.017-0.046-0.017-6e-3 0.084c0.111 0.076 0.056 0.177 0.059 0.276-0.099-0.038-0.134-0.112-0.136-0.198l-0.068-0.091-0.039-0.058c0.048-0.106 0.014-0.179-0.097-0.221-0.081-0.03-0.189-0.039-0.135-0.175l-0.017-0.038-0.044-0.028h-0.074l0.012 0.019 0.013 0.08-0.078-0.046-0.017-0.053h-0.089v0.296l0.027-8e-3c0.104-0.035 0.157-0.037 0.22 0.069l-5e-3 0.18-0.124 0.023c0.086 0.092-0.042 0.112-0.066 0.169l-0.052-0.031v0.607l2e-3 4e-3 0.035 0.019 0.145-0.104 0.064-0.028-6e-3 0.069 0.047 0.064c0.118-0.032 0.212 0.069 0.326 0.055l0.027 0.038-0.018 0.085-0.172 0.033-0.209-0.03-0.131-0.014-0.105-0.054-5e-3 1e-3v0.248l0.023-0.033 0.072-0.049 0.152 0.165-0.025 0.058-0.053-1e-3 -5e-3 -0.058-2e-3 -0.066-0.048 0.036-0.049 0.045-0.065 0.014v0.42c0.037 0.051 0.118 0.09 0.023 0.168l0.018 0.024v0.101l-0.041 0.071v0.201l3e-3 6e-3 -3e-3 -2e-3v0.517l0.012 0.048-0.012 0.013v0.99l0.13 0.01-0.013 0.042-0.117-3e-3m9.12-1.183-3e-3 6e-3 -6e-3 -0.043 9e-3 0.037" fill="#0085bc"/>
    </g>
    <g transform="translate(254.96 135.72)">
     <path d="m0 0-9e-3 -0.017-4e-3 -4e-3 -0.015-9e-3 -0.012-1e-3 -6e-3 -1e-3 -0.146 6e-3 -0.023 0.109 0.128 5e-3 0.011-1e-3h0.012l0.012-4e-3 0.016-6e-3 0.013-0.011 8e-3 -7e-3 0.015-0.026 2e-3 -0.027-2e-3 -6e-3m-0.407 0.112-0.026 0.122 0.026-0.122m-0.287 0.87-5e-3 -8e-3 -0.07 0.012 1e-3 9e-3 0.032 0.063 0.042-0.076m-0.035-0.297-8e-3 0.034 8e-3 -0.034m-0.039-0.308-0.026 0.121 0.026-0.121m-0.127 0.641-2e-3 -1e-3 -9e-3 0.044 0.025-0.029 0.018 3e-3 0.019-0.088-0.051 0.071m-0.021-1.082-0.019 0.088 0.019-0.088m-0.072 0.967 3e-3 3e-3 0.071-0.019-0.032-0.06-0.042 0.076m-0.165-0.021-0.026 0.122 0.026-0.122m-0.293-0.213-7e-3 -1e-3 -0.023 0.066-1e-3 -0.018 0.092-0.022-0.061-0.025m0.035 0.226-0.013-0.027-0.064 0.019-8e-3 0.023 0.085-0.015m-0.203-0.261-0.019 0.088 0.019-0.088m-0.141 0.324-9e-3 -0.016-0.101 0.018-8e-3 0.018 0.052 0.072 0.066-0.092m2.477-1.441-0.065 0.083 0.025 0.071-0.144 0.119-0.02 0.045-0.049 0.076 0.028 0.12 0.028 0.04-0.196 0.411-0.043 0.098 3e-3 0.011 0.097 4e-3 0.086 0.081-0.045 0.087 0.02 0.025 0.016 8e-3 -8e-3 -3e-3 0.059 0.042v0.039l-1e-3 5e-3 -7e-3 0.024-1e-3 0.023 0.011 0.044 0.015 0.013 0.055-3e-3 8e-3 -3e-3 0.044-0.108-0.021-0.01-1e-3 -2e-3 -3e-3 -0.048 0.758 0.72-0.396-0.052 5e-3 -0.014 0.026-0.115-0.037-0.064-0.037-5e-3 -0.023 0.01-9e-3 6e-3 -1e-3 1e-3 0.02 0.058-4e-3 0.014-0.016 0.062-0.012 0.035-0.028-4e-3 -1e-3 -4e-3 -0.041-0.034-0.033-0.014v-0.023l-0.039-0.033-0.083 4e-3 -0.014-3e-3 -0.024 1e-3 -4e-3 2e-3 -0.103 0.023h-1e-3l-0.012 5e-3 -0.026 0.026-0.165-0.022 1e-3 -0.046-7e-3 -0.035-0.024-0.057-0.107 0.058 0.016 0.047 8e-3 0.018-4e-3 -7e-3 -2e-3 7e-3 -0.273-0.036-0.094 0.198-0.023-5e-3 -0.074 0.019-0.026 0.013-0.01 0.01-0.02 0.013-0.014 0.065 0.026 0.014h0.01l-1e-3 2e-3 0.013 0.117-0.045 0.095-2e-3 -0.039-0.115 0.034 0.027 0.194-0.108 0.226-1e-3 -1e-3 -0.112 0.041 0.064 0.063-0.124 0.261-0.112-0.602 0.01-0.035 0.051-0.014 0.024-0.02 1e-3 -5e-3 0.015-0.022 0.031-0.073 3e-3 -3e-3 -0.016-0.084 0.011-0.015-0.086-0.049-0.046 0.061-0.062-0.089-0.025-0.131 0.022-0.034 0.036-0.042 0.087-0.056-0.02-0.096-0.132 0.076-0.018 0.017-0.01-0.055 7e-3 -4e-3 4e-3 -6e-3 9e-3 -3e-3 9e-3 -0.045-0.039 3e-3 -5e-3 -0.029 0.03-0.034 0.05-0.111-0.043-3e-3 -0.033 0.061-0.013 0.019-3e-3 4e-3 -4e-3 -0.019-0.017-2e-3 0.019-0.114-6e-3 -0.013 0.018-0.055-0.128 6e-3 -9e-3 3e-3 -0.035-0.026-0.018 0.088 0.044-0.027 9e-3 4e-3 0.097 7e-3 -0.019 0.015-0.017 0.045-0.011 1e-3 -0.045 0.014-0.016-3e-3 -0.044 0.03-0.028-0.018-0.012 0.016-1.231-0.161 0.854-0.464 0.012 0.024 0.025 7e-3 0.075-0.042-1e-3 -0.015 0.045 0.029 0.097 0.052 0.077-0.053 6e-3 -0.09 0.091 0.013 0.073-0.094-0.079-0.113-0.074-0.404 0.053-0.068-0.067-6e-3 -0.169-0.912 0.685 0.65-0.045 0.087 0.041 0.066 0.086-0.026 0.1 0.046 0.193 0.183 1.285-0.697-0.16 0.335z" fill="#b2242b"/>
    </g>
   </g>
  </g>
  <g transform="matrix(5.1775 0 0 -5.1775 -1432.8 684.06)">
   <path d="m254.18 126.69v-0.048l-0.032-0.027-0.059-4e-3 -0.089-0.097-0.04-0.012-0.018-0.078-0.02 0.096 0.011-3e-3 -8e-3 0.076 0.044 0.026-0.045 0.019-0.044 0.052h-2.948l-0.023-0.019-0.017-0.049-1e-3 -0.021v-0.014l-1e-3 1e-3 -1e-3 -0.012-0.094 0.039-2e-3 0.04-0.015 0.035h-6.228l-7e-3 -0.051-4e-3 -0.016-2e-3 -7e-3 -2e-3 -3e-3 -6e-3 -3e-3 -5e-3 -3e-3 -0.033 9e-3 -0.013 0.022-4e-3 0.017-0.011 0.035h-1.891l-0.028-0.03-0.04-0.084-0.023-0.021 0.023-0.045-0.02-0.084 0.023-0.035 0.043-0.124-0.027-0.128-0.015-0.016 2e-3 -0.011h5.284l0.043 0.059-5e-3 0.044 0.026 0.051 0.04 0.024h0.024l-3e-3 0.012 1e-3 0.026 0.023 0.028 0.149-0.021 0.013-5e-3h0.056l0.048-0.052-0.021-0.093 0.049 0.026 0.025 0.081 0.154 3e-3 0.074-0.08 0.069-0.022 0.227-0.06 0.025-0.021h3.97l0.08 0.105 4e-3 0.021 3e-3 0.011-0.021 0.017-3e-3 3e-3 -0.013 0.026v0.06l1e-3 9e-3 -1e-3 0.014 0.035 0.023 0.013-6e-3h1e-3l0.025-0.038 1e-3 -8e-3 0.024-0.026 0.011-7e-3 0.059-0.067 6e-3 -8e-3 0.016-0.032 0.151-0.06 0.03-0.037h1.255v0.578zm-14.78 0 5e-3 -0.021c-0.025-0.139-0.039-0.274-0.051-0.416l-2e-3 -4e-3 1e-3 -2e-3 0.113-0.109 0.035-0.026h2.916l-8e-3 0.024 0.035 0.043 6e-3 0.01 0.017 0.111-0.028 0.055-0.014-6e-3 -0.01-8e-3 -0.09 0.038-0.844 0.102-0.02 0.086-0.094 0.123z" fill="url(#linearGradient58290)"/>
  </g>
  <g transform="matrix(5.1775 0 0 -5.1775 -1432.8 684.06)">
   <path d="m264.3 126.69-0.084-0.087-0.039-3e-3 -0.027 0.021-0.045 9e-3 -1e-3 -1e-3 -0.012 0.016-0.015 0.033-0.013 0.012h-1.765v-0.038l-0.069 0.03-6e-3 8e-3h-0.043l-0.056-0.096-0.042-9e-3 -0.122 0.056h-0.024l-0.03 0.014-0.061 0.019-0.033 0.016h-0.577v-0.578h0.834l0.084 0.066 0.056 0.011-5e-3 0.035-0.085-2e-3 -0.028 0.083 0.174 0.032 0.113 0.011 0.093-0.041-0.025-0.036 0.043-0.05-7e-3 -0.044 9e-3 1e-3c0.102-0.014 0.208-0.03 0.301-0.066h1.481l0.058 0.036 8e-3 0.012 0.034 0.03-0.083 0.089-0.011 0.142-0.058 0.099 0.036 8e-3 0.082-0.104 0.02-0.119 4e-3 -5e-3 0.025 0.022 0.129-0.019 7e-3 -3e-3h0.071l0.045-0.047 0.022-0.092 0.021-0.01 0.048-0.039h0.993l0.037 0.044h5e-3l-0.031 0.04 0.012 0.064-0.014 0.032 0.03 0.033h0.026l0.013-3e-3 -0.036 0.105-0.013 9e-3 -2e-3 2e-3 -0.016 0.01-2e-3 0.027 6e-3 6e-3 2e-3 4e-3 -0.077 0.128-0.097 0.025-0.131-0.074-0.069 0.029-0.021 0.097zm1.477-0.537 0.03-0.024-0.013 0.027zl-0.01 3e-3z" fill="url(#linearGradient2276)"/>
  </g>
  <g transform="matrix(5.1775 0 0 -5.1775 -1432.8 684.06)">
   <path d="m264.18 126.57-3e-3 0.013z" fill="url(#linearGradient58330)"/>
  </g>
  <g transform="matrix(5.1775 0 0 -5.1775 -1432.8 684.06)">
   <path d="m273.6 126.69-0.031-0.043 0.045-0.099-0.059-0.023-0.117 0.034v-0.01l0.036-0.019c0.091-0.08-0.054-0.088-0.08-0.044l-0.04 0.05-3e-3 0.078 0.013 0.025 0.027 1e-3 0.032-2e-3 -0.05 0.052h-2.14v-0.05l-0.079-6e-3 -0.017 0.039-0.127 6e-3 -0.016 0.011h-0.557l-0.059-0.067v-0.022l0.027-0.144 0.012-0.143-0.068 0.012-6e-3 0.082-0.028-0.01-0.019 0.096 0.036-0.016-0.028 0.109-0.207 0.103h-0.98l-0.017-0.033-0.082 0.033h-0.229l-0.057-0.051-1e-3 1e-3 -0.029 3e-3 -0.027 4e-3h-4e-3l-0.065 0.043h-0.925l-0.026-0.103-0.026-0.031-0.015-0.103-0.069 0.021-9e-3 0.1-0.167 0.116h-1.52l-2e-3 -0.098-0.065 0.018v0.053h-0.01l5e-3 -0.022-3e-3 -0.024-0.04-0.024-0.039 0.01 0.131-0.173 0.049-0.235 0.036 1e-3 0.041-0.028 0.012-0.042 9e-3 -0.014h1.247l0.253 0.19 0.034 1e-3 2e-3 0.01 0.011 0.028-4e-3 0.031 0.014 0.042 0.049-0.015v-0.084l-9e-3 -0.053 0.119-0.083 0.013-0.067h0.983l4e-3 0.04 0.025 0.015 0.01 0.033 0.098-0.039-7e-3 -0.015 0.025 8e-3 0.164 0.096 0.061-0.019 0.029 0.044 0.065 1e-3 6e-3 0.052-0.063 0.084-0.013 0.064-0.051 0.044 0.062 0.045 0.03-0.014 0.044-0.119 0.059-0.1-0.03-0.157-0.036-0.025-0.01-0.025 0.096-0.013h0.021l0.035 0.018 0.038-0.018h0.396l9e-3 0.013 0.014 0.015 0.024 0.012 0.097-0.04h1.864l0.024 0.07 0.057-0.07h1.464l0.036 0.044 0.055-0.044h0.329l-0.02 0.076 0.039 0.116 0.026 0.032v8e-3l-3e-3 4e-3 -0.076 0.078-0.077 0.054 0.039 0.037 0.038 0.018 0.034-0.059 1e-3 -0.013-0.016-0.021 0.069-0.066 0.03 0.012 0.101-0.063 0.194-0.206 2e-3 -7e-3h0.972v0.578zm-6.931-0.186-0.039 0.081 3e-3 4e-3 0.035 0.025 0.046-0.05 1e-3 -5e-3 -0.033-0.057zm3.205-0.229-2e-3 5e-3 0.086-0.026-4e-3 -4e-3 -0.027-0.024h-8e-3z" fill="url(#linearGradient2276)"/>
  </g>
  <g transform="matrix(5.1775 0 0 -5.1775 -1432.8 684.06)">
   <path d="m270.29 126.38-5e-3 0.027z" fill="url(#linearGradient58370)"/>
  </g>
  <g transform="matrix(5.1775 0 0 -5.1775 -1432.8 684.06)">
   <path d="m270.39 126.25-5e-3 0.018z" fill="url(#linearGradient58390)"/>
  </g>
  <g transform="matrix(5.1775 0 0 -5.1775 -1432.8 684.06)">
   <path d="m267.9 136.06-8e-3 -0.12 0.163-4e-3 0.043 0.015 3e-3 0.091 0.033 2e-3 0.034-0.109-0.011-0.011 4e-3 -0.014 0.066-0.028v1e-3l-0.032 0.099 0.043 7e-3 0.015 0.018 1e-3 0.053z" fill="url(#linearGradient58410)"/>
  </g>
  <g transform="matrix(5.1775 0 0 -5.1775 -1432.8 684.06)">
   <path d="m271.02 136.06-0.047-0.054-0.011 6e-3 -1e-3 -7e-3 -0.073 0.022h-3e-3l-1e-3 0.012-0.053-0.014-0.055 7e-3 -0.028 0.014-0.03 0.014h-1.258l-0.054-0.064-0.022-0.061-0.035-0.03 0.018-0.055-7e-3 -0.033-0.076-0.04 9e-3 -4e-3 0.01 0.013 0.065-1e-3h0.067l0.018-0.038-0.061-4e-3h-0.054l2e-3 -0.01-1e-3 -0.026-9e-3 -0.015-0.041 0.029-0.045 0.028-0.015-7e-3 -0.038 0.049 0.018 0.01 0.026 0.016 0.052 0.09-0.039 0.032-9e-3 0.018-0.046 1e-3 -0.052 0.055 0.011 0.047h-0.825l-1e-3 -0.076 0.013-7e-3 0.023-0.048-0.025-0.052-0.018-0.014 0.01-0.043-0.099-0.032-0.037 0.043-0.076 0.046-0.011 0.026-0.079-0.016-0.168 0.01-0.026 0.033 0.012 0.13h-3.311l-0.051-0.028-0.023 0.013-0.047-0.016-0.088 0.031h-0.155l-4e-3 -0.012-5e-3 -7e-3 -5e-3 -4e-3 -8e-3 -2e-3 -0.065 0.025h-1e-3l1e-3 -0.02-0.025-0.024 5e-3 -7e-3 -0.026-0.054 2e-3 -0.033-0.028-8e-3 -2e-3 -1e-3 -0.04 0.014-0.03 0.016-0.061-1e-3h-2e-3l-7e-3 -1e-3 -0.038 0.032 0.024 0.034 0.072 0.019-0.104 0.034h-0.639v-0.578h1.653l-0.012 0.012-0.108 0.014-0.049 0.101 0.012 3e-3 3e-3 0.071 0.067 0.064 0.09 0.035-0.025 0.063 0.067-0.017h1e-3l1e-3 -2e-3 0.017-0.012 0.028-0.032-2e-3 -0.052-0.116-0.065-0.014-0.02 0.119 0.015 0.062-0.065 2e-3 -0.113h1.954l8e-3 0.04-6e-3 0.02-0.016 0.049-0.062 0.019-0.021 0.089 0.029 0.025 0.052 2e-3 0.045-0.04 5e-3 -0.016 0.046-0.044 3e-3 -0.096 0.022 5e-3 -0.013 0.05 0.023 0.028 0.097 0.01 0.041 0.078 0.046-0.031-0.058-0.104-0.083-0.016 0.019-0.045-9e-3 -0.023h2.861l-0.01 0.086 0.028 0.024-2e-3 0.029 0.012 0.019 0.018 7e-3 0.058 0.09 0.055-0.039-0.018-0.048 7e-3 -3e-3 0.048-0.048 0.068-0.091 0.014-0.026h2.801l0.11 0.146c-0.032 0.087-0.033 0.182-0.032 0.276l-0.01-1e-3 -0.114-0.018-8e-3 -2e-3 -0.052 1e-3 -0.078 0.087 2e-3 0.01-0.096 0.026-0.046 0.053zm0.53-0.106 0.038 0.042 0.015-0.045-8e-3 -0.01-0.017-0.014zm-0.033-0.129-0.03 0.087 3e-3 0.024 1e-3 6e-3v1e-3l0.026 0.012 4e-3 -1e-3h2e-3l0.026-0.022 1e-3 -5e-3h1e-3v-7e-3l1e-3 -3e-3 6e-3 -0.026-0.026-0.068zm-5.339 0.085 0.049 0.032 0.039-0.08-0.047-0.031-2e-3 -2e-3 -0.013-2e-3zm4.652-0.082 9e-3 0.017 0.061-0.01 0.011-0.026-0.036-0.063z" fill="url(#linearGradient2280)"/>
  </g>
  <g transform="matrix(5.1775 0 0 -5.1775 -1432.8 684.06)">
   <path d="m277.54 136.06-0.01-0.033 2e-3 -3e-3v-0.011h1e-3l5e-3 -0.079-0.048-0.026-0.058-0.038-0.04 0.012h-0.013l-0.057 0.045-0.011 0.021c-0.097-1e-3 -0.17 0.039-0.233 0.112h-3.839l-0.056-0.101 5e-3 -0.029c-0.03-0.098-0.01-0.187 0.014-0.277l0.019-6e-3 0.073-0.056 0.032-0.04 5e-3 -1e-3 0.042-0.039 0.055-0.029h6.084v0.144l-0.042 0.027-0.024-0.011-0.088 0.061v0.026l0.06 0.03-0.05 0.113 0.034 0.039 0.11-0.023v0.172zm0.058-0.429-0.014 0.072v0.038l-1e-3 1e-3 -0.071 0.067 8e-3 0.019 0.053-0.03 0.056-6e-3 0.023-0.037 4e-3 -0.069-0.012-0.063-0.018-0.01z" fill="url(#linearGradient2280)"/>
  </g>
  <g transform="matrix(5.1775 0 0 -5.1775 -1432.8 684.06)">
   <path d="m271.85 136.01 7e-3 -0.033z" fill="url(#linearGradient58470)"/>
  </g>
 </g>
</svg>
