<svg width="800" height="195.96" version="1.1" viewBox="0 0 211.67 51.849" xmlns="http://www.w3.org/2000/svg">
 <g transform="translate(197.25 19.452)">
  <g transform="matrix(5.7031 0 0 -5.7031 -193.54 29.511)">
   <path d="m0 0c-0.025 0.495-0.263 4.764-0.288 5.259 0.492 0.031 4.767 0.269 5.26 0.294 0.023-0.331 0.049-0.897 0.067-1.229-0.496-0.029-3.633-0.205-3.633-0.205-0.224-0.012-0.381-0.186-0.365-0.406l0.11-2.012c0.011-0.222 0.185-0.375 0.411-0.363l2.005 0.112c0.225 0.011 0.379 0.187 0.364 0.411-0.01 0.217-0.183 0.371-0.408 0.358 0 0-1.204-0.067-1.623-0.089-0.016 0.332-0.049 0.91-0.064 1.245 0.451 0.021 2.795 0.153 3.248 0.179 0.029-0.461 0.15-2.811 0.179-3.266-0.496-0.025-4.768-0.262-5.263-0.288m1.473 3.445 0.097-1.822 1.916 0.109 0.104-0.091-0.091-0.104-2.007-0.107-0.104 0.093-0.113 2.005 0.093 0.107 3.926 0.211-0.102 1.813-5.843-0.322 0.321-5.843 5.847 0.32-0.213 3.843z" fill="#99d98c"/>
  </g>
  <g transform="matrix(5.7031 0 0 -5.7031 -147.45 26.971)">
   <path d="m0 0c-0.022 0.456-0.154 2.81-0.179 3.264 0.42 0.022 1.626 0.089 1.626 0.089 0.223 0.012 0.377 0.18 0.365 0.401-0.014 0.226-0.184 0.382-0.41 0.367l-2.007-0.107c-0.222-0.015-0.374-0.192-0.365-0.414 0 0 0.174-3.148 0.201-3.644-0.333-0.019-0.908-0.045-1.24-0.064-0.028 0.496-0.266 4.763-0.295 5.259 0.502 0.032 4.768 0.267 5.263 0.295 0.028-0.459 0.157-2.789 0.186-3.246-0.417-0.026-1.631-0.091-1.631-0.091-0.221-0.01-0.371-0.182-0.363-0.4 0.011-0.227 0.181-0.381 0.403-0.373 0 0 1.211 0.068 1.632 0.096 0.015-0.334 0.05-0.915 0.067-1.251-0.453-0.032-2.796-0.155-3.253-0.181m1.484 1.432-0.096 0.093 0.085 0.1 1.92 0.103-0.21 3.818-5.846-0.317 0.328-5.848 1.818 0.103-0.213 3.935 0.091 0.099 1.999 0.115 0.109-0.092-0.096-0.1-1.91-0.103 0.214-3.842 3.829 0.212-0.102 1.833z" fill="#99d98c"/>
  </g>
  <g transform="matrix(5.7031 0 0 -5.7031 -114.96 16.361)">
   <path d="m0 0-0.107 1.815 1.837 0.104 0.099-1.821zm-0.354 2.284 0.12-2.105 0.015-0.295 2.409 0.139-0.135 2.4z" fill="#99d98c"/>
  </g>
  <g transform="matrix(5.7031 0 0 -5.7031 -123.93 25.663)">
   <path d="m0 0c-0.027 0.496-0.265 4.764-0.288 5.265 0.495 0.022 4.766 0.262 5.262 0.292 0.025-0.5 0.264-4.771 0.292-5.264-0.498-0.029-4.768-0.27-5.266-0.293m-0.648 5.335 0.324-5.842 5.841 0.327-0.328 5.834z" fill="#99d98c"/>
  </g>
  <g transform="matrix(5.7031 0 0 -5.7031 -79.992 14.446)">
   <path d="m0 0-0.097 1.819 1.832 0.106 0.097-1.825zm-0.349 2.289 0.118-2.104 0.015-0.292 2.41 0.13-0.129 2.406z" fill="#99d98c"/>
  </g>
  <g transform="matrix(5.7031 0 0 -5.7031 -88.937 23.746)">
   <path d="m0 0c-0.025 0.501-0.265 4.771-0.288 5.264 0.493 0.031 4.763 0.263 5.263 0.293 0.026-0.498 0.262-4.769 0.287-5.26-0.497-0.027-4.765-0.266-5.262-0.297m-0.652 5.342 0.325-5.841 5.845 0.321-0.324 5.844z" fill="#99d98c"/>
  </g>
  <g transform="matrix(5.7031 0 0 -5.7031 -17.013 19.764)">
   <path d="m0 0c-0.028 0.496-0.264 4.77-0.288 5.267 0.489 0.031 4.763 0.264 5.26 0.29 0.021-0.33 0.054-0.9 0.07-1.232-0.502-0.026-3.632-0.197-3.632-0.197-0.225-0.015-0.378-0.19-0.364-0.412 9e-3 -0.223 0.179-0.375 0.405-0.36 0 0 1.21 0.065 1.631 0.09 0.016-0.332 0.051-0.905 0.066-1.237-0.417-0.027-1.63-0.098-1.63-0.098-0.223-9e-3 -0.371-0.179-0.366-0.397 0.014-0.233 0.189-0.379 0.413-0.367 0 0 3.134 0.168 3.633 0.199 0.013-0.336 0.047-0.916 0.062-1.253-0.492-0.025-4.761-0.262-5.26-0.293m5.416 1.649-3.922-0.216-0.107 0.092 0.093 0.097 1.921 0.106-0.098 1.822-1.919-0.104-0.106 0.082 0.093 0.106 3.919 0.218-0.092 1.812-5.849-0.325 0.326-5.838 5.836 0.317z" fill="#99d98c"/>
  </g>
  <g transform="matrix(5.7031 0 0 -5.7031 -32.707 21.903)">
   <path d="m0 0c-0.148-8e-3 -1.688-0.095-1.84-0.102-0.103 0.094-1.897 1.703-2.006 1.796-0.01 0.151-0.179 3.162-0.199 3.51 0.281 0.022 1.335 0.076 1.623 0.094 0.024-0.358 0.21-3.783 0.21-3.783l2.408 0.129s-0.188 3.427-0.208 3.787c0.29 0.019 1.326 0.074 1.613 0.09 0.016-0.348 0.188-3.38 0.195-3.519-0.107-0.12-1.694-1.895-1.796-2.002m1.734 5.621-2.015-0.112-0.085-0.098 0.204-3.689-1.831-0.106-0.202 3.697-0.097 0.082-2.014-0.108-0.094-0.097 0.211-3.787 0.037-0.072 2.126-1.902 0.067-0.026 2.009 0.11 0.066 0.035 1.902 2.129 0.019 0.068-0.213 3.791-0.09 0.085" fill="#99d98c"/>
  </g>
  <g transform="matrix(5.7031 0 0 -5.7031 -183.07 10.263)">
   <path d="m0 0c0.015-0.335 0.048-0.913 0.064-1.245 0.419 0.022 1.623 0.089 1.623 0.089 0.225 0.013 0.398-0.141 0.408-0.358 0.015-0.224-0.139-0.4-0.364-0.411l-2.004-0.112c-0.227-0.012-0.401 0.141-0.412 0.363l-0.11 2.012c-0.016 0.22 0.141 0.394 0.365 0.406 0 0 3.137 0.176 3.633 0.205-0.017 0.332-0.044 0.898-0.067 1.229-0.493-0.025-4.768-0.263-5.26-0.294 0.025-0.495 0.263-4.764 0.288-5.259 0.495 0.026 4.767 0.263 5.263 0.288-0.029 0.455-0.15 2.805-0.179 3.266-0.453-0.026-2.797-0.158-3.248-0.179" fill="#231f20"/>
  </g>
  <g transform="matrix(5.7031 0 0 -5.7031 -138.59 19.352)">
   <path d="m0 0c-0.222-8e-3 -0.392 0.146-0.402 0.373-9e-3 0.218 0.141 0.39 0.362 0.4 0 0 1.214 0.065 1.631 0.091-0.029 0.457-0.157 2.787-0.186 3.246-0.495-0.028-4.761-0.263-5.262-0.295 0.028-0.496 0.266-4.763 0.294-5.259 0.332 0.019 0.908 0.045 1.241 0.064-0.028 0.496-0.201 3.644-0.201 3.644-0.01 0.222 0.142 0.399 0.364 0.414l2.008 0.107c0.225 0.015 0.395-0.14 0.409-0.367 0.012-0.221-0.142-0.389-0.364-0.401 0 0-1.206-0.067-1.626-0.089 0.024-0.454 0.156-2.808 0.178-3.264 0.457 0.026 2.8 0.149 3.253 0.181-0.016 0.336-0.052 0.917-0.067 1.251-0.421-0.028-1.632-0.096-1.632-0.096" fill="#231f20"/>
  </g>
  <g transform="matrix(5.7031 0 0 -5.7031 -116.21 17.024)">
   <path d="m0 0-0.016 0.295-0.12 2.105 2.409 0.139 0.136-2.399zm-1.643 3.75c0.024-0.501 0.261-4.769 0.289-5.265 0.498 0.024 4.767 0.264 5.265 0.293-0.027 0.493-0.266 4.764-0.292 5.264-0.496-0.029-4.766-0.27-5.262-0.292" fill="#231f20"/>
  </g>
  <g transform="matrix(5.7031 0 0 -5.7031 -81.223 15.058)">
   <path d="m0 0-0.016 0.292-0.117 2.104 2.413 0.14 0.13-2.405zm-1.641 3.74c0.024-0.493 0.263-4.762 0.288-5.263 0.498 0.031 4.765 0.269 5.262 0.296-0.024 0.492-0.261 4.762-0.287 5.26-0.499-0.029-4.769-0.262-5.263-0.293" fill="#231f20"/>
  </g>
  <g transform="matrix(5.7031 0 0 -5.7031 -8.0852 12.084)">
   <path d="m0 0c-0.225-0.012-0.399 0.135-0.413 0.367-6e-3 0.218 0.143 0.388 0.365 0.398 0 0 1.214 0.07 1.63 0.097-0.015 0.332-0.05 0.906-0.065 1.238-0.421-0.026-1.631-0.09-1.631-0.09-0.227-0.016-0.397 0.137-0.406 0.359-0.013 0.222 0.139 0.398 0.365 0.412 0 0 3.13 0.171 3.632 0.198-0.016 0.332-0.049 0.902-0.071 1.231-0.497-0.025-4.77-0.259-5.259-0.29 0.024-0.496 0.259-4.771 0.288-5.267 0.499 0.032 4.767 0.268 5.259 0.293-0.014 0.337-0.048 0.917-0.061 1.253-0.499-0.031-3.633-0.199-3.633-0.199" fill="#231f20"/>
  </g>
  <g transform="matrix(5.7031 0 0 -5.7031 -32.775 -9.0689)">
   <path d="m0 0c0.02-0.359 0.208-3.787 0.208-3.787l-2.408-0.129s-0.187 3.426-0.21 3.783c-0.288-0.017-1.342-0.072-1.623-0.094 0.019-0.347 0.188-3.359 0.199-3.509 0.108-0.094 1.902-1.703 2.006-1.796 0.151 7e-3 1.691 0.093 1.84 0.101 0.101 0.108 1.688 1.882 1.796 2.002-7e-3 0.139-0.179 3.171-0.196 3.52-0.286-0.017-1.322-0.071-1.612-0.091" fill="#231f20"/>
  </g>
  <g transform="matrix(5.7031 0 0 -5.7031 -177.94 -14.722)">
   <path d="m0 0c9e-3 -0.18 0.106-1.855 0.106-1.855l0.627 0.032s-0.101 1.735-0.108 1.854c0.111 7e-3 0.63 0.042 0.63 0.042l-0.036 0.529-0.102-9e-3 -1.804-0.099 0.034-0.533s0.509 0.031 0.653 0.039" fill="#231f20"/>
  </g>
  <g transform="matrix(5.7031 0 0 -5.7031 -166.01 -4.7636)">
   <path d="m0 0s-0.048 0.883-0.055 0.999c0.099 2e-3 0.553 0.026 0.694 0.035 9e-3 -0.157 0.055-0.992 0.055-0.992l0.632 0.033-0.141 2.385-0.098-2e-3 -0.528-0.027s0.045-0.755 0.048-0.865c-0.1-5e-3 -0.545-0.029-0.694-0.037-8e-3 0.156-0.047 0.859-0.047 0.859l-0.628-0.033 0.134-2.388z" fill="#231f20"/>
  </g>
  <g transform="matrix(5.7031 0 0 -5.7031 -146.78 -5.8272)">
   <path d="m0 0-0.029 0.533s-1.005-0.052-1.176-0.062c-0.011 0.122-0.02 0.351-0.023 0.438 0.117 7e-3 1.156 0.067 1.156 0.067l-0.032 0.529s-0.982-0.059-1.151-0.063c-7e-3 0.11-0.013 0.274-0.017 0.352 0.116 5e-3 1.184 0.064 1.184 0.064l-0.029 0.531-0.102-4e-3 -1.7-0.098 0.127-2.385z" fill="#231f20"/>
  </g>
 </g>
</svg>
