<svg width="800" height="202.17" version="1.1" viewBox="0 0 211.67 53.49" xmlns="http://www.w3.org/2000/svg">
 <g transform="translate(171.24 -20.971)">
  <g transform="matrix(4.9116 0 0 -4.9116 -52.882 44.948)">
   <path d="m0 0 0.175 2.181-1.754-0.022c0.371-0.878 0.7-1.593 0.99-2.147z" fill="#ed1c24"/>
  </g>
  <g transform="matrix(4.9116 0 0 -4.9116 -104.42 39.376)">
   <path d="m0 0-0.292 0.608-0.587 0.293-0.865-0.011c-0.694-0.496-1.042-1.024-1.042-1.583l6e-3 -0.179 2.749-0.054z" fill="#ed1c24"/>
  </g>
  <g transform="matrix(4.9116 0 0 -4.9116 -27.514 34.91)">
   <path d="m0 0-0.131 0.199-2.436-0.031 0.041-0.556c-0.084-0.208-0.132-0.776-0.143-1.705l2.627-0.052z" fill="#ed1c24"/>
  </g>
  <g transform="matrix(4.9116 0 0 -4.9116 -130.05 43.424)">
   <path d="m0 0c-0.021 0.186-0.045 0.373-0.075 0.565l0.222 1.107-0.48-6e-3 -0.036-1.659z" fill="#ed1c24"/>
  </g>
  <g transform="matrix(4.9116 0 0 -4.9116 -92.162 44.172)">
   <path d="m0 0 0.435-9e-3 -0.013 0.209 0.14 0.14c-0.374 0.483-0.374 0.821 0 1.016l0.114-0.011 0.182 0.143 1.437-0.14-0.068-0.174 0.912-0.089c-0.087-0.138-0.123-0.351-0.106-1.145l0.335-7e-3c4e-3 0.801-5e-3 1.476-0.026 2.029l-0.421-5e-3 -0.014-0.114-0.686-0.126-0.406 0.226-0.232-3e-3 -0.503-0.092-0.15 0.084-1.387-0.018 0.469-1.524z" fill="#ed1c24"/>
  </g>
  <g transform="matrix(4.9116 0 0 -4.9116 -144.85 35.407)">
   <path d="m0 0-4.621-0.058v-1.423l4.659-0.092z" fill="#ed1c24"/>
  </g>
  <g transform="matrix(4.9116 0 0 -4.9116 -62.735 51.95)">
   <path d="m0 0-0.179 0.238-0.017-0.561h0.345z" fill="#fbbc09"/>
  </g>
  <g transform="matrix(4.9116 0 0 -4.9116 -104.57 43.927)">
   <path d="m0 0-2.749 0.054 0.078-2.011h2.606z" fill="#fbbc09"/>
  </g>
  <g transform="matrix(4.9116 0 0 -4.9116 -27.723 45.446)">
   <path d="m0 0-2.627 0.052c-6e-3 -0.473-3e-3 -1.039 0.01-1.699h2.584z" fill="#fbbc09"/>
  </g>
  <g transform="matrix(4.9116 0 0 -4.9116 -144.42 53.536)">
   <path d="m0 0-0.051 2.118-4.659 0.092-0.752 0.015v-2.561l1.105-8e-3 -0.071 0.344z" fill="#fbbc09"/>
  </g>
  <g transform="matrix(4.9116 0 0 -4.9116 -53.224 49.234)">
   <path d="M 0,0 0.07,0.873 -0.519,0.884 C -0.329,0.52 -0.156,0.226 0,0" fill="#fbbc09"/>
  </g>
  <g transform="matrix(4.9116 0 0 -4.9116 -92.456 53.536)">
   <path d="m0 0h0.615l-0.12 1.898-0.435 9e-3z" fill="#fbbc09"/>
  </g>
  <g transform="matrix(4.9116 0 0 -4.9116 -76.921 53.536)">
   <path d="m0 0h0.24c0.014 0.672 0.022 1.286 0.025 1.84l-0.335 7e-3c8e-3 -0.424 0.032-1.014 0.07-1.847" fill="#fbbc09"/>
  </g>
  <g transform="matrix(4.9116 0 0 -4.9116 -132.08 53.536)">
   <path d="m0 0h0.457c0.054 0.636 0.039 1.322-0.044 2.059l-0.369 7e-3z" fill="#fbbc09"/>
  </g>
  <g transform="matrix(4.9116 0 0 -4.9116 -163.98 57.752)">
   <path d="m0 0 0.215 0.132h0.583l0.227-0.283 0.034 0.02h0.584l1.096-1.37 0.453-0.101c0.377 0.308 0.65 0.79 0.815 1.45l-0.024 1.01h-4.428l0.07-0.344 0.127-0.615 0.167 0.101z" fill="#639f1e"/>
  </g>
  <g transform="matrix(4.9116 0 0 -4.9116 -89.436 53.536)">
   <path d="m0 0h-0.615l-0.08-2.55 0.825 0.032 0.017 0.189z" fill="#639f1e"/>
  </g>
  <g transform="matrix(4.9116 0 0 -4.9116 -129.83 53.536)">
   <path d="m0 0h-0.457l-0.039-1.866c-0.05-0.375-0.139-0.711-0.266-1.009l1.311 0.051c-0.36 0.518-0.584 1.172-0.668 1.967 0.055 0.275 0.094 0.561 0.119 0.857" fill="#639f1e"/>
  </g>
  <g transform="matrix(4.9116 0 0 -4.9116 -105.16 61.693)">
   <path d="m0 0 0.055 1.661h-2.605l0.067-1.747 0.456-0.759 0.411-0.206 0.789 0.031z" fill="#639f1e"/>
  </g>
  <g transform="matrix(4.9116 0 0 -4.9116 -76.352 65.414)">
   <path d="m0 0 0.057 2e-3c0.03 0.877 0.052 1.682 0.067 2.416h-0.24c0.03-0.646 0.069-1.441 0.116-2.418" fill="#639f1e"/>
  </g>
  <g transform="matrix(4.9116 0 0 -4.9116 -27.883 53.536)">
   <path d="m0 0h-2.584c0.012-0.626 0.032-1.336 0.061-2.13l2.483 0.098z" fill="#639f1e"/>
  </g>
  <g transform="matrix(4.9116 0 0 -4.9116 -62.003 53.536)">
   <path d="m0 0h-0.346l-0.07-2.32 1.46 0.057z" fill="#639f1e"/>
  </g>
  <g transform="matrix(4.9116 0 0 -4.9116 -119.97 25.731)">
   <path d="m0 0-0.13-0.191c0.152 0.046 0.26 0.099 0.33 0.158z" fill="#fff"/>
  </g>
  <g transform="matrix(4.9116 0 0 -4.9116 -143.59 26.983)">
   <path d="m0 0 0.152-6.284c-0.195-0.779-0.538-1.312-1.028-1.601l-0.084 0.019-0.453 0.101-0.771 0.172-0.942 1.177-0.227 0.283h-0.584l-0.214-0.131c-0.52-0.346-0.694-0.691-0.521-1.037 1.074-1.752 2.339-2.531 3.796-2.336 1.363 0.288 2.142 1.164 2.336 2.628l0.152 7.149-0.018 0.012-0.426 0.28c-0.535 0-0.887-0.068-1.054-0.204l-0.114-0.228" fill="#231f20"/>
  </g>
  <g transform="matrix(4.9116 0 0 -4.9116 -113.3 67.538)">
   <path d="m0 0-1.215 0.607-0.455 0.76-0.152 3.936c0 0.709 0.557 1.367 1.67 1.974-0.189 0.189-0.199 0.557-0.035 1.099l0.035 0.116-0.911 0.152-0.096-0.165c-0.07-0.059-0.179-0.112-0.33-0.158-0.165-0.051-0.376-0.095-0.637-0.133l-0.068-0.095-0.691-0.968-0.304-1.518c0.203-1.309 0.203-2.469 0-3.481 0.192-1.825 1.114-2.92 2.764-3.286l0.075-0.015 0.198-0.04z" fill="#231f20"/>
  </g>
  <g transform="matrix(4.9116 0 0 -4.9116 -87.948 36.864)">
   <path d="m0 0-0.182-0.143c-0.172-0.202-0.113-0.492 0.182-0.873l-0.14-0.14 0.28-4.435-0.14-1.577 1.296-0.292 0.293 0.432c-0.245 5.062-0.319 6.281-0.22 6.714l0.068 0.174z" fill="#231f20"/>
  </g>
  <g transform="matrix(4.9116 0 0 -4.9116 -44.069 71.383)">
   <path d="m0 0c-0.195 4.384-0.195 6.818 0 7.301l-0.131 1.775-9e-3 0.129-0.876 0.14-0.22-0.144-0.224-0.148 0.152-1.168-0.292-3.645h-0.584c-0.491 0.195-1.32 1.752-2.488 4.672l-0.199 0.161-0.526 0.424-0.282-0.143-0.594-0.301c0.195-1.067 0.195-4.131 0-9.193l0.14-0.152 1.169 0.152 0.151 4.964c0.483 0.094 0.919-0.152 1.309-0.736l1.752-3.796 0.584-0.724h0.736z" fill="#231f20"/>
  </g>
  <g transform="matrix(4.9116 0 0 -4.9116 -20.266 71.324)">
   <path d="m0 0-0.152 2.511 0.152 5.175 0.292 0.444 1.927-0.14c0.296 0 0.394 0.393 0.293 1.179l-0.054 0.021-0.682 0.271-5.771-0.292 0.017-0.116 0.135-0.923 2.371-0.14 0.292-0.444-0.152-7.698c0.088-0.255 0.359-0.362 0.811-0.322l0.059 7e-3 0.17 0.023z" fill="#231f20"/>
  </g>
  <g transform="matrix(4.9116 0 0 -4.9116 -89.445 30.385)">
   <path d="m0 0 0.193-0.477 0.63-0.35 0.687 0.125 0.097 0.813-0.076 0.687-9e-3 0.083-0.552 0.176-0.764 0.011-0.076-0.135-0.18-0.32z" fill="#231f20"/>
  </g>
  <g transform="matrix(4.9116 0 0 -4.9116 -96.994 64.775)">
   <path d="m0 0 0.152 4.848-0.608 1.974c-0.192 0.384-0.546 0.687-1.06 0.91-0.297 0.129-0.648 0.23-1.054 0.304l-0.019-0.189-0.133-1.329 1.215-0.607 0.292-0.608-0.152-4.544-1.355-1.67c0-0.684 0.237-0.99 0.708-0.919l0.052 8e-3 0.166 0.084 0.733 0.371z" fill="#231f20"/>
  </g>
  <g transform="matrix(4.9116 0 0 -4.9116 -163.07 24.491)">
   <path d="m0 0-6e-3 -0.018-0.437-0.037-0.029-0.029c0-0.089-6e-3 -0.279-0.018-0.573-0.012-0.293-0.018-0.484-0.018-0.572 0-0.25 9e-3 -0.4 0.029-0.452l0.095-0.04c0.118 0.02 0.177 0.086 0.177 0.198l0.036 0.011v-0.087l-0.133-0.183-0.162-0.037c-0.217 0-0.325 0.236-0.325 0.708 0 0.1 0.013 0.283 0.039 0.55v0.473l-0.031 0.011-0.134-0.015-0.146-0.011h-0.056l-0.012 0.026 6e-3 0.015c0.09 5e-3 0.214 0.023 0.373 0.054v0.203l0.249 0.069 0.038-0.018-0.019-0.228 0.037-0.018c0.036 0 0.102 4e-3 0.196 0.011l0.196 0.011h0.043l0.012-0.022" fill="#231f20"/>
  </g>
  <g transform="matrix(4.9116 0 0 -4.9116 -154.32 32.456)">
   <path d="m0 0-6e-3 -0.022-0.746-0.053-0.012 0.025 0.117 0.022 0.112 0.033v0.61c4e-3 0.156-0.07 0.234-0.221 0.234l-0.208-0.084c-0.142-0.117-0.222-0.321-0.238-0.612l0.019-0.109 0.019-0.019 0.103 6e-3 0.097 5e-3 0.089-0.014c-0.016-0.02-0.085-0.029-0.207-0.029-0.053 0-0.245-0.011-0.575-0.033l-0.031 0.014v0.011c0.09 8e-3 0.2 0.025 0.33 0.051l-0.136 1.953-0.158-4e-3c-0.094-7e-3 -0.144-0.011-0.153-0.011h-0.03l-0.024 4e-3 0.079 0.037c0.017 2e-3 0.123 0.014 0.319 0.036 0.155 0.02 0.261 0.03 0.318 0.03 0.013-0.025 0.019-0.09 0.019-0.195 0-0.149-0.013-0.392-0.039-0.73-0.026-0.367-0.039-0.552-0.039-0.554l0.018-8e-3c0.066 0.097 0.117 0.16 0.154 0.19 0.086 0.073 0.19 0.109 0.313 0.109 0.302 0 0.454-0.123 0.454-0.37l-0.01-0.137-9e-3 -0.119c0-0.115 4e-3 -0.202 0.012-0.263 0.049 4e-3 0.121 7e-3 0.215 7e-3l0.049-4e-3 6e-3 -7e-3" fill="#231f20"/>
  </g>
  <g transform="matrix(4.9116 0 0 -4.9116 -149.12 30.167)">
   <path d="m0 0c0 0.183-0.08 0.275-0.239 0.275-0.101 0-0.183-0.056-0.244-0.169l-0.074-0.231c0.127 0 0.31 0.01 0.551 0.029l6e-3 0.096m0.116-0.716c-0.073-0.078-0.193-0.117-0.361-0.117-0.22 0-0.387 0.071-0.501 0.213-0.086 0.103-0.129 0.215-0.129 0.338 0 0.11 0.047 0.228 0.141 0.353 0.122 0.159 0.283 0.239 0.483 0.239 0.196 0 0.355-0.053 0.477-0.158 0.09-0.084 0.139-0.174 0.147-0.272-0.093-0.015-0.215-0.022-0.366-0.022l-0.58-0.022c-0.016-0.02-0.024-0.087-0.024-0.202 0-0.29 0.116-0.434 0.347-0.434 0.171 0 0.277 0.037 0.317 0.11z" fill="#231f20"/>
  </g>
  <g transform="matrix(4.9116 0 0 -4.9116 29.72 25.899)">
   <path d="m0 0 0.065-0.164 0.283-0.046c-0.105-0.089-0.062-0.2-0.177-0.159l-0.17 0.104-0.137 0.113 0.136 0.152m-2.263-0.684c0.556-0.281 0.558-0.058 0.833-0.87 0.12-0.354 0.357-0.371 0.379-0.251 0.045 0.238 0.18 0.492 0.341 0.426 0.115-0.046 0.423-0.397 0.715-0.369 0.233 0.023 0.229 0.507 0.229 0.507l-0.152 0.099-0.195-0.074c-0.096-0.053-0.204-0.113-0.314-0.113l-0.06 7e-3c-0.184 0.039-0.168 0.185-0.159 0.264l-0.035 0.179-0.055 0.016c-0.072-0.015-0.18-0.117-0.245-0.308l-0.114-0.056-0.056 0.114c0.079 0.231 0.225 0.394 0.38 0.426l0.223-0.073c0.102-0.114 0.089-0.237 0.08-0.318l-3e-3 -0.063 0.021-6e-3 0.25 0.088c0.102 0.056 0.206 0.109 0.306 0.092l0.033 0.017c0.196 0.069 0.326 0.157 0.253 0.389-0.074 0.232-0.058 0.198 0.02 0.313s0.156 0.25-0.135 0.329c-0.301 0.081-0.526 0.186-0.874 0.138l-0.116 3e-3 -0.111-0.075c-0.043-0.017 0.014-0.263-0.032-0.38-0.249 0.05-0.64 0.328-0.679 0.366l-4e-3 0.121s0.293-0.049 0.405-0.064c0.096-0.013 0.224 0.06 0.26 0.081-0.122 0.052-0.265 0.127-0.482 0.184-1.074 0.283-1.664-0.756-0.907-1.139" fill="#231f20"/>
  </g>
  <g transform="matrix(4.9116 0 0 -4.9116 -1.7878 35.332)">
   <path d="m0 0c0.261 0.273 0.421 0.289 0.421 0.289s-0.086-1.065 0.408-1.527c0.082 0.559 0.294 0.771 0.294 0.771s-0.087-0.657 0.209-1.089c0.045 0.409 0.228 0.595 0.228 0.595s-5e-3 -0.731 0.379-0.833c4e-3 0.175 0.095 0.36 0.095 0.36s0.278-0.539 0.829-0.376c-0.143 0.154-0.189 0.282-0.189 0.282s0.555-0.055 0.601 0.134c0.112 0.45 0.941 1.261 2.079 1.183l-0.023 0.093c-0.098-0.071-0.421-0.055-0.587 0.317-0.11 0.247-0.103 0.533-0.337 0.639-0.323 0.147-1.606 0.766-0.349 1.636-0.299-0.04-0.318 0.201-0.105 0.45-0.401-0.175-0.737-0.564-0.737-0.564s-0.396 0.403-0.936 0.385c0.291-0.131 0.309-0.355 0.309-0.355s-1.063 0.347-1.72-0.047c0.435-2e-3 0.462-0.22 0.462-0.22s-1.18-0.29-1.286-1.009c0.337 0.245 0.584 0.18 0.584 0.18s-0.711-0.608-0.629-1.294" fill="#231f20"/>
  </g>
  <g transform="matrix(4.9116 0 0 -4.9116 26.757 36.987)">
   <path d="m0 0c-0.596 0.072-1.371-0.234-1.371-0.234s1.246 0.109 1.299-0.741c0.043-0.678 0.286-0.727 0.767-0.896 0.694-0.245-0.065-1.198 0.503-1.711-0.013 0.506 0.357 0.422 0.419 0.945 0.303-0.554 1.013-0.168 1.013-0.168s-0.462 0.113-0.768 0.405c0.719 0.083 0.868 0.711 0.868 0.711s-0.597-0.282-1.243 0.298c1.048 0.102 1.274 0.922 1.274 0.922s-0.7-0.365-1.519-0.215c0.432 0.155 0.212 0.656 0.212 0.656s-0.147-0.191-0.555-0.236c-0.409-0.045-0.303 0.192-0.899 0.264" fill="#231f20"/>
  </g>
  <g transform="matrix(4.9116 0 0 -4.9116 37.362 68.099)">
   <path d="m0 0c-0.287 0.084-0.349-0.142-0.557-0.203-0.207-0.061-0.548 0.179-0.358 0.703 0.202 0.559-0.302 0.586-0.476 1.221-0.188 0.686-0.083 1.149-0.025 1.941 0.066 0.886-1.114 0.411-1.104 1.463 9e-3 0.966-1.359 0.771-1.359 0.771s-0.375-0.126-0.751-1.05c-0.601-0.388-1.065-0.016-1.714-0.569-0.673-0.574-0.804-1.17-0.804-1.17 0.578 0.229 1.151 0.192 1.624 0.132 2.147-0.276 3.144-2.068 3.635-3.046 0.246-0.489-0.067-0.882 0.42-1.194 0.186 0.279 0.26 0.046 0.486-0.054 0.527-0.234 0.682-0.03 1.06 0.06 0.289 0.068 0.48-0.107 0.48-0.107 0.244 0.381-0.241 1.009-0.557 1.102" fill="#231f20"/>
  </g>
  <g transform="matrix(4.9116 0 0 -4.9116 15.176 54.927)">
   <path d="m0 0c-1.038 0.469-2.411 0.536-3.531-0.162 0.034 0.394 1.448 1.767 0.713 2.423 0.452-0.748-0.392-1.442-0.781-2.152 0.438 1.081 0.797 2.692-0.521 2.782 1.186-0.325 0.385-2.19 0.385-2.19s0.179 0.557-0.188 1.028c0.288-0.872-0.107-1.426-0.107-1.426s0.057 0.582-0.353 0.836c0.432-0.881 0.108-1.647 0.023-1.835-0.085-0.187 0.017-0.409 0.012-0.5-6e-3 -0.09-0.46-1.139-0.318-1.997s0.911-0.358 0.911-0.358 0.092-0.024 0.183-0.03c0.091-5e-3 0.188 0.047 0.188 0.047s0.076-0.203 0.245-0.21c0.168-7e-3 0.305-0.044 0.746 3e-3 0.337-0.071 0.678 0.019 1.042-0.071 0.657-3e-3 1.245 0.078 1.245 0.078s0.263-0.174 0.367 0.091c0.093 0.24-0.321 0.513-0.518 0.684-0.247 0.214-0.442 0.024-0.587-0.054-0.215-0.116-0.619-0.174-0.89-0.208-0.114-0.065-0.22-0.059-0.258-0.042 0.295 0.398 0.773 0.415 1.213 0.754 0.186 0.241 0.164 0.657 0.233 0.868 0.203 0.614 0.635 0.887 0.635 0.887s-0.473 0.337-1.201 0.487c-0.376 0.077-0.842 0.09-1.325-0.041-0.707-0.191-0.424-0.587-0.94-1.115-0.752-0.767-0.248-1.524-0.636-1.573-0.292-0.062-0.558 1.523 0.667 2.452 1.481 1.124 3.267 0.379 3.969-0.295 0.474-0.455 0.475-1.043 0.294-1.274-0.182-0.232-0.701 0.09-0.117 0.464-0.895 0.312-1.004-1.112 0-1.069 0.331 0.015 0.647 0.229 0.727 0.847 0.067 0.7-0.597 1.45-1.527 1.871" fill="#231f20"/>
  </g>
  <g transform="matrix(4.9116 0 0 -4.9116 23.884 25.801)">
   <path d="m0 0 0.236-0.114 5e-3 0.189z" fill="#231f20"/>
  </g>
  <g transform="matrix(4.9116 0 0 -4.9116 -5.6949 44.375)">
   <path d="m0 0c0.244-0.028 0.499-0.293 0.507-0.304 6e-3 0.188-0.027 0.362-0.085 0.51-0.12 0.307-0.708 0.581-0.708 0.581s0.588 0.191 0.98 0.033l-0.045 0.262 0.706-0.571c-0.286 0.329-0.38 0.818-0.406 1.178l-0.013-0.013-0.35-0.366-0.06 0.503c-0.015 0.127-7e-3 0.251 0.015 0.37l-2.517-0.03-0.146-0.222-0.065-2.199 2.271-0.043c-0.042 0.176-0.084 0.311-0.084 0.311" fill="#ed1c24"/>
  </g>
  <g transform="matrix(4.9116 0 0 -4.9116 -7.5585 49.851)">
   <path d="m0 0-0.366 0.746 0.706-0.438 0.199-0.167c0.028 0.164-0.024 0.445-0.076 0.663l-2.271 0.043-0.046-1.602h2.048c-9e-3 0.231-0.063 0.487-0.194 0.755" fill="#fbbc09"/>
  </g>
  <g transform="matrix(4.9116 0 0 -4.9116 -7.5171 60.692)">
   <path d="m0 0-0.01 0.046c-0.027 0.123-0.07 0.33 0.021 0.531 0.087 0.19 0.189 0.501 0.175 0.875h-2.049l-0.04-1.373 0.034-0.569 1.732 0.064c0.039 0.13 0.076 0.243 0.105 0.328l0.032 0.098" fill="#639f1e"/>
  </g>
 </g>
</svg>
