<svg width="800" height="608.11" version="1.1" viewBox="0 0 211.67 160.9" xmlns="http://www.w3.org/2000/svg">
 <g transform="translate(-57.043 182.06)">
  <g transform="matrix(9.3484 0 0 -9.3484 57.171 -63.664)" fill="#fff">
   <path d="m0 0v-1.04h1.239v-3.426h1.187v3.426h1.229v1.04z" fill="#fff"/>
  </g>
  <g transform="matrix(9.3484 0 0 -9.3484 132.22 -58.323)" fill="#fff">
   <path d="m0 0c-0.212 0.201-0.467 0.361-0.755 0.475-0.292 0.112-0.606 0.17-0.946 0.17-0.341 0-0.658-0.058-0.946-0.17-0.29-0.114-0.542-0.274-0.754-0.475-0.213-0.205-0.384-0.449-0.503-0.732-0.12-0.282-0.182-0.594-0.182-0.932 0-0.339 0.062-0.652 0.182-0.936 0.119-0.279 0.29-0.525 0.503-0.728 0.212-0.201 0.463-0.36 0.754-0.473 0.288-0.113 0.605-0.174 0.946-0.174 0.34 0 0.654 0.061 0.946 0.174 0.288 0.113 0.545 0.272 0.755 0.473 0.211 0.203 0.379 0.449 0.498 0.728 0.12 0.284 0.182 0.597 0.182 0.936 0 0.338-0.062 0.65-0.182 0.932-0.119 0.283-0.287 0.527-0.498 0.732m-1.217-2.82c-0.143-0.064-0.305-0.098-0.484-0.098-0.18 0-0.346 0.034-0.487 0.098-0.145 0.064-0.269 0.154-0.369 0.265-0.101 0.112-0.182 0.246-0.238 0.397-0.054 0.152-0.085 0.316-0.085 0.494 0 0.177 0.031 0.344 0.085 0.494 0.056 0.152 0.137 0.285 0.238 0.396 0.1 0.112 0.224 0.2 0.369 0.265 0.141 0.067 0.307 0.098 0.487 0.098 0.179 0 0.341-0.031 0.484-0.098 0.144-0.065 0.268-0.153 0.367-0.265 0.102-0.111 0.182-0.244 0.236-0.396 0.059-0.15 0.088-0.317 0.088-0.494 0-0.176-0.029-0.342-0.088-0.494-0.054-0.151-0.134-0.285-0.236-0.397-0.099-0.111-0.223-0.201-0.367-0.265" fill="#fff"/>
  </g>
  <g transform="matrix(9.3484 0 0 -9.3484 178.7 -58.105)" fill="#fff">
   <path d="m0 0c-0.216 0.191-0.469 0.338-0.763 0.441-0.292 0.103-0.616 0.154-0.966 0.154h-1.872v-4.464h1.879c0.346 0 0.667 0.049 0.959 0.152 0.294 0.104 0.547 0.252 0.763 0.445 0.213 0.194 0.379 0.43 0.501 0.704 0.119 0.275 0.18 0.588 0.18 0.935 0 0.346-0.061 0.66-0.18 0.931-0.122 0.274-0.288 0.511-0.501 0.702m-0.524-1.633c0-0.162-0.029-0.315-0.082-0.459-0.055-0.144-0.133-0.271-0.233-0.379-0.101-0.108-0.229-0.193-0.378-0.259-0.146-0.064-0.318-0.097-0.507-0.097h-0.69v2.382h0.695c0.199 0 0.376-0.034 0.524-0.093 0.148-0.06 0.273-0.146 0.372-0.251 0.099-0.109 0.173-0.234 0.221-0.376 0.051-0.142 0.078-0.301 0.078-0.468" fill="#fff"/>
  </g>
  <g transform="matrix(9.3484 0 0 -9.3484 215.05 -63.664)" fill="#fff">
   <path d="m0 0h-1.461l-1.667-4.433-0.013-0.031h1.341l0.22 0.635h1.706l0.217-0.635h1.34l-1.676 4.447zm-0.204-2.788h-1.056l0.528 1.562z" fill="#fff"/>
  </g>
  <g transform="matrix(9.3484 0 0 -9.3484 256.14 -63.664)" fill="#fff">
   <path d="m0 0-0.934-1.604-0.945 1.604h-1.341l1.693-2.667v-1.799h1.186v1.799l1.686 2.667z" fill="#fff"/>
  </g>
  <g transform="matrix(9.3484 0 0 -9.3484 84.387 -82.461)">
   <path d="m0 0c0.29 4.322 3.894 7.746 8.281 7.746 4.406 0 8.02-3.452 8.285-7.797 0.011-0.169 0.016-0.34 0.016-0.511h2.908c0 0.154-4e-3 0.309-9e-3 0.46-0.243 5.981-5.166 10.756-11.2 10.756-5.997 0-10.888-4.711-11.192-10.634-0.011-0.192-0.014-0.388-0.014-0.582h2.904c0 0.189 7e-3 0.377 0.021 0.562" fill="#f25e1b"/>
  </g>
  <g transform="matrix(9.3484 0 0 -9.3484 119.42 -82.169)">
   <path d="m0 0c0.262 2.27 2.194 4.039 4.534 4.039 2.353 0 4.292-1.789 4.54-4.076 0.018-0.162 0.027-0.326 0.027-0.494h2.904c0 0.159-5e-3 0.318-0.014 0.475-0.245 3.91-3.49 7.003-7.457 7.003-3.961 0-7.201-3.085-7.454-6.985-0.011-0.163-0.016-0.329-0.016-0.493h2.904c0 0.179 0.011 0.355 0.032 0.531" fill="#f25e1b"/>
  </g>
  <g transform="matrix(9.3484 0 0 -9.3484 161.8 -112.17)">
   <path d="m0 0c-1.822 0-3.339-1.306-3.668-3.034-0.044-0.228-0.068-0.463-0.068-0.706h7.472c0 0.181-0.013 0.358-0.038 0.531-0.259 1.814-1.812 3.209-3.698 3.209" fill="#f25e1b"/>
  </g>
 </g>
</svg>
