<svg width="800" height="438.48" version="1.1" viewBox="0 0 211.67 116.01" xmlns="http://www.w3.org/2000/svg">
 <g transform="translate(166.18 .35488)">
  <g transform="matrix(8.2719 0 0 -8.2719 45.131 78.113)">
   <path d="m0 0c0.011 0.121 0.015 0.232 0.018 0.355 3e-3 0.097 7e-3 0.192 0.014 0.291 0.016 0.253 0.026 0.588-0.057 0.916l-0.025 0.08-0.024 0.042 9e-3 0.052c0 0.135-0.082 0.272-0.277 0.3l9e-3 0.038 0.075 0.119c0.061 0.08 0.136 0.18 0.111 0.297l0.049 0.219c0.029 0.092 0.06 0.201 0.063 0.318 6e-3 0.157 0.016 0.315 0.026 0.468l0.013 0.2c0.024 0.364-0.012 0.696-0.047 1.043l-0.026 0.258c-0.06 0.576-0.662 1.168-1.204 1.396-0.111 0.164-0.4 0.314-0.588 0.314-0.154 0-0.265-0.093-0.292-0.231l-0.033-0.151c-0.041 0.225-0.115 0.43-0.263 0.593-0.165 0.18-0.399 0.267-0.707 0.267h-0.067c-0.044 0.096-0.108 0.187-0.211 0.25-0.201 0.127-0.444 0.211-0.652 0.217l-0.149 7e-3 -0.015-0.148-0.01-0.174-2e-3 -0.056c-0.075 0.435-0.332 0.769-0.691 0.886l-0.055 0.024c-0.083 0.037-0.194 0.081-0.298 0.081-0.11 0-0.167-0.046-0.203-0.087l-1e-3 -2e-3 -0.052 0.067c-0.137 0.166-0.333 0.259-0.515 0.259-0.202 0-0.369-0.106-0.458-0.305-0.055-0.124-0.065-0.26-0.058-0.389l-0.156 0.045-5e-3 0.018c-0.102 0.678-0.608 1.084-1.32 1.043-0.551-0.028-0.726-0.514-0.785-1.012l-0.113-0.085c-0.066 0.483-0.19 0.91-0.241 0.99-0.045 0.079-0.188 0.314-0.49 0.427-0.255 0.096-0.618 0.14-1.138 0.14h-0.119l-0.034-0.109c-0.045-0.158-0.073-0.322-0.096-0.485l-0.03 7e-3 -4e-3 6e-3 -0.133 0.144-0.018 0.039-0.089 0.166c-0.093 0.123-0.209 0.202-0.284 0.252l-0.079 0.054h-0.045l-0.196 0.015c-0.234 0.022-0.483 0.031-0.651-0.024-0.242-0.088-0.649-0.377-0.693-0.593-0.03-0.163-0.015-0.315 4e-3 -0.46l-0.012-0.147-0.023-0.153c-0.021-0.149-0.03-0.295-0.039-0.442l-0.054-4e-3 -0.325 0.569-0.022 0.131c-0.05 0.492-0.254 0.785-0.606 0.863-0.223 0.049-0.393-4e-3 -0.522-0.061-0.081-0.03-0.145-0.06-0.244-0.06l-0.19 0.021-0.214 0.016c-0.317 0-0.41-0.217-0.431-0.395l-0.018-0.213h-0.034v0.028c1e-3 0.126 0.01 0.299-0.104 0.414-0.042 0.045-0.124 0.1-0.253 0.1l-0.1-0.017-0.031-0.049-0.248-0.018c-0.097-0.049-0.097-0.049-0.154-0.055l-0.108-1e-3c-0.132-0.015-0.209-0.089-0.259-0.14l-0.094-0.043c-0.244 0.043-0.431-0.043-0.575-0.252-0.188-0.259-0.156-0.617-0.132-0.927l3e-3 -0.085-0.03-0.011c-0.052 0.192-0.145 0.355-0.304 0.436-0.092 0.3-0.319 0.463-0.65 0.463-0.264 0-0.551-0.098-0.821-0.203l-0.116-0.037c-0.231-0.083-0.55-0.191-0.577-0.55-0.012-0.17-0.014-0.361-0.012-0.56-0.04 0.168-0.14 0.482-0.43 0.539-0.274 0.064-0.801-0.168-0.858-0.504l-0.251 0.103c-0.134 0-0.272-0.064-0.405-0.128l-0.23-0.093-0.091-0.019-0.057-0.163c-0.039-0.115-0.08-0.231-0.088-0.367l-7e-3 -0.071-3e-3 -0.045c-0.037 0.082-0.087 0.164-0.167 0.256-0.044 0.05-0.12 0.107-0.255 0.107-0.227 0-0.505-0.162-0.774-0.344l-0.027-0.016-0.146-0.177-0.048-0.071-0.071 0.012c-0.171 0.031-0.332-5e-3 -0.408-0.146l-0.06-0.028-0.212-0.14c-0.245-0.205-0.243-0.567-0.242-0.834l2e-3 -1.434-5e-3 -0.101c-0.035-0.596-0.013-0.823 0.087-0.93l0.014-0.012c0.1-0.297 0.336-0.522 0.635-0.611l-0.219-0.065c-0.224-0.056-0.418-0.106-0.466-0.265-0.048-0.15-0.033-0.298-0.02-0.432l9e-3 -0.204c-7e-3 -0.157-0.037-0.311-0.068-0.472-0.039-0.196-0.076-0.399-0.076-0.613v-2.458c-2e-3 -0.019-9e-3 -0.194 0.027-0.329l0.068-0.195 0.03-0.086c0.03-0.125 0.045-0.239 0.058-0.342l0.012-0.111c0.052-0.418 0.4-0.437 0.609-0.445l0.086-3e-3c0.246-0.019 0.491-0.072 0.492-0.072l0.048-8e-3 0.122 0.037c0.151 0.054 0.252 0.088 0.41 0.098l0.17-0.044c0.101-0.03 0.166-0.046 0.226-0.046l0.054 2e-3 0.032 0.012 0.158 0.101 0.043 0.03 0.045-0.022 0.245-0.077c0.18 0 0.327 0.116 0.418 0.191l0.062 0.052 0.103 0.051c0.101 0.025 0.271 0.256 0.322 0.506 0 0-0.038-0.371 0.206-0.65 0.171-0.194 0.465-0.321 0.613-0.321 0.101 0 0.211-5e-3 0.322-0.014 0.124-7e-3 0.251-0.017 0.375-0.017 0.129 0 0.385 0.01 0.484 0.028 0.208 0.042 0.236 0.247 0.248 0.341l0.012 0.072c0.031 0.039 0.23-0.073 0.574-0.073 0.138 0 0.229-0.012 0.271-0.021l0.054-0.089c0.061-0.112 0.136-0.248 0.409-0.264 0.107-8e-3 0.214-0.029 0.329-0.055l0.253-0.05 0.159-0.01c0.223 0 0.399 0.072 0.525 0.221 0.09 0.102 0.139 0.24 0.169 0.39l0.131 0.115c0.079-0.145 0.189-0.282 0.346-0.403 0.141-0.102 0.317-0.155 0.531-0.155 0.283 0 0.573 0.086 0.806 0.16l0.207 0.062 0.229-0.068c0.167-0.094 0.419-0.097 0.65-0.074l0.047 4e-3c0.061 0 0.15-9e-3 0.251-0.016 0.139-0.011 0.298-0.023 0.435-0.023 0.188 0 0.377 0.019 0.462 0.144l0.053 0.116 0.033-0.055c0.25-0.326 0.634-0.365 0.9-0.365 0.123 0 0.249 7e-3 0.37 0.017l0.135 0.01c0.345 0.023 0.44 0.105 0.527 0.331l0.098 0.2 0.075-0.016 0.246-0.02c0.179 0.036 0.308 0.05 0.486 0.026l0.122-0.358 0.118-3e-3c0.07 0 0.206-0.027 0.349-0.055 0.223-0.041 0.502-0.093 0.742-0.093 0.315 0 0.519 0.093 0.606 0.281 0.048 0.1 0.081 0.268 0.1 0.475l0.103-0.116 0.068-0.139c0.052-0.12 0.101-0.236 0.194-0.295 0.046-0.029 0.11-0.042 0.227-0.042 0.237 0 0.671 0.05 0.987 0.084 0.139 0.013 0.247 0.025 0.299 0.027l0.235-0.037c0.125-0.021 0.204-0.037 0.255-0.037l0.104 0.029h0.291l0.184 8e-3c0.164 0.027 0.308 0.114 0.395 0.16l0.032 0.024 0.037 6e-3c0.201 0.042 0.502 0.105 0.502 0.49l0.044 0.191 0.275 0.212c0-0.29 0.039-0.587 0.229-0.79 0.137-0.15 0.345-0.227 0.611-0.233 0.255-5e-3 0.517-0.011 0.78-0.011 0.374 0 0.694 0.011 0.985 0.032 0.271 0.021 0.503 0.14 0.648 0.345 0.155 0.214 0.201 0.489 0.128 0.785l0.024 0.245c0.028 0.122 0.064 0.258 0.02 0.411l-0.07 0.19v0.16c0.066 0.093 0.068 0.305 0.07 0.67l4e-3 0.099c0.011 0.207 0.023 0.424-0.026 0.643l-0.105 0.209-0.058 0.105 0.032 0.03c0.056 0.054 0.133 0.121 0.142 0.236" fill="#81217e"/>
  </g>
  <g transform="matrix(8.2719 0 0 -8.2719 -55.649 55.689)">
   <path d="m0 0-0.115 0.045-0.438 0.115c-0.293 0.18-0.297 0.615-0.301 0.932l-1e-3 0.118c-0.011 0.425-1e-3 0.854 5e-3 1.27l4e-3 0.157c6e-3 0.297-4e-3 0.611-0.01 0.917-0.016 0.643-0.033 1.311 0.077 1.929l9e-3 0.062c0.024 0.196 0.034 0.238 0.041 0.252l0.085 0.16 0.096 0.085c0.077 0.022 0.774 0.201 0.942 0.04 0.132-0.132 0.169-0.242 0.213-0.38l0.028-0.081c0.128-0.389 0.099-0.807 0.073-1.22-6e-3 -0.102-0.014-0.204-0.018-0.299l-1e-3 -0.043-0.044 3e-3 -0.109 0.018-0.249 0.031h-0.032l-5e-3 0.031-0.011 0.192c7e-3 0.13 9e-3 0.261-0.081 0.322-0.082 0.057-0.227 0.071-0.337 0.025l-0.141-0.152-0.037-0.491v-0.235c3e-3 -0.262 0.01-0.535-0.034-0.801l-9e-3 -0.047c-0.015-0.108-0.046-0.285 0.027-0.346l0.066-0.877c0.011-0.095 0.061-0.254 0.143-0.304l0.098-4e-3 0.087 0.03 0.017 0.018 0.185-0.039 2e-3 0.045 0.019 0.124c0.019 0.134 0.054 0.317-0.014 0.398l-0.121 0.043-0.064-2e-3 -0.073 0.066-0.011 0.242c-0.01 0.288-0.023 0.583 0.033 0.867l0.099 0.161c0.099 0.064 0.245 0.031 0.372 4e-3l0.142-0.028h0.024l0.012-0.019c0.12-0.273 0.104-0.664 0.091-0.974v-0.11c-9e-3 -0.148-4e-3 -0.309 0-0.48 8e-3 -0.45 0.021-0.956-0.124-1.352l-0.217-0.275c-0.109-0.073-0.162-0.11-0.201-0.11h-0.066l-0.097-0.013z" fill="#f2bd12"/>
  </g>
  <g transform="matrix(8.2719 0 0 -8.2719 -94.335 55.786)">
   <path d="m0 0h-6e-3l-0.612 0.043-0.103-0.012h-0.021l-0.046 0.051c-0.058 0.072-0.057 0.252-0.053 0.408l5e-3 0.055c3e-3 0.189 3e-3 0.373 0 0.559v0.072c0 0.209-0.016 0.422-0.031 0.639-0.027 0.406-0.057 0.832 4e-3 1.231l-6e-3 2.106c-1e-3 0.108 0.028 0.186 0.085 0.245 0.101 0.103 0.279 0.119 0.417 0.119l0.246 0.043c0.167 0.023 0.435 0.058 0.463 0.064l0.046 0.014 6e-3 -0.046c0.013-0.188 0.017-0.373 0.018-0.561l6e-3 -0.249v-0.035l-0.032-0.314-0.05-0.02h-3e-3l-0.306-0.068-0.051-0.016h-0.052l-0.069-0.012-0.156-0.087v-0.047l-0.038-0.27c-0.037-0.162-0.056-0.305 0.01-0.447 0.063-0.145 0.366-0.064 0.366-0.064h9e-3l0.282 0.048 0.03 0.016 0.043-0.053c0.064-0.207 0.02-0.672-0.019-1.012l-5e-3 -0.056c-0.035-0.193-0.217-0.197-0.373-0.201-0.211-0.012-0.341-0.03-0.341-0.247v-0.324l0.024-0.063 0.012-0.036c0-0.073 0.021-0.173 0.214-0.198l0.081-0.011 0.086-0.028 0.068 0.014h0.058c0.167 0 0.249-0.033 0.249-0.1l4e-3 -0.14 0.013-0.214c0.012-0.131 0.023-0.265 0.01-0.382l-5e-3 -0.049c-0.015-0.158-0.028-0.26-0.131-0.318l-0.103-0.016c-0.056 0-0.138-9e-3 -0.237-0.031z" fill="#f2bd12"/>
  </g>
  <g transform="matrix(8.2719 0 0 -8.2719 -1.6647 55.891)">
   <path d="m0 0-0.188 0.037-0.024 0.048-0.137 0.182-0.111 0.148c-0.019 0.033-0.041 0.101-0.07 0.203l-0.019 0.071c-0.143 0.447-0.122 0.923-0.099 1.39l0.019 0.395c0.015 0.265 0.015 0.539 0.01 0.802 0 0.252-3e-3 0.5 9e-3 0.749 3e-3 0.107 3e-3 0.221 3e-3 0.343-3e-3 0.313-7e-3 0.668 0.088 0.926l0.018 0.048 0.041-0.028 0.285-0.124 0.032-0.011c0.124-0.143 0.07-0.391 0.022-0.588l-0.035-0.181-3e-3 -0.04c-0.032-0.353-0.073-0.792 0.022-1.117l-0.022-1.201-0.01-0.183c-0.019-0.26-0.037-0.559 0.154-0.718 0.127-0.099 0.219-0.119 0.29-0.043 0.113 0.117 0.147 0.426 0.139 0.604l-1e-3 0.068c0 0.536 0.018 1.08 0.035 1.611 0.018 0.489 0.033 0.993 0.035 1.493v0.043l0.047-6e-3 0.159-0.037 0.146-0.039 0.103-0.114-0.012-0.05-0.016-0.271c1e-3 -0.244-9e-3 -0.489-0.016-0.739-0.01-0.242-0.018-0.49-0.018-0.736v-1.02c0-0.158-0.021-0.314-0.041-0.467-0.019-0.18-0.041-0.365-0.031-0.551l-0.045-0.105-0.033-0.093-0.014-0.096-0.013-0.036-0.05-0.14-0.15-0.272c-0.018-0.021-0.037-0.041-0.413-0.131z" fill="#f2bd12"/>
  </g>
  <g transform="matrix(8.2719 0 0 -8.2719 -38.339 29.452)">
   <path d="m0 0h0.094c0.197 0 0.241 0.403 0.241 0.557l-0.016 0.201c-0.026 0.368-0.043 0.656-0.486 0.733l-0.046 7e-3 -0.013-0.321c-0.018-0.317-0.024-0.559-0.022-0.786l4e-3 -0.121 0.027-0.117c0.016-0.105 0.025-0.153 0.126-0.153zm0.619-3.063s-0.114 0.059-0.239 0.059c-0.101 0-0.192 0.035-0.192 0.035l-0.033-4e-3 -0.011 0.032c-0.011 0.038-0.023 0.125-0.043 0.289-0.041 0.323-0.139 1.076-0.299 1.076l-0.035-0.013c-0.034-0.024-0.035-0.104-0.037-0.205v-0.04l-9e-3 -0.193c-2e-3 -0.112-5e-3 -0.221-0.029-0.346l0.018-0.23 0.023-0.226-0.273-0.166-0.051-2e-3 -0.076 0.038c-0.109 0.113-0.087 0.543-0.055 0.971l0.011 0.176v2.191c0 0.127 9e-3 0.252 0.019 0.377 8e-3 0.129 0.016 0.251 0.016 0.381l-7e-3 1.561 0.04 0.031 0.062 0.01 0.105 0.017 0.151-6e-3 0.182-6e-3 1e-3 4e-3 0.029 5e-3c0.718 0.095 0.799-0.837 0.835-1.323l0.039-0.09c7e-3 -0.051 7e-3 -0.126 1e-3 -0.258l-1e-3 -0.032c0-0.377-7e-3 -0.753-0.022-1.13l-0.01-0.36c-5e-3 -0.105-0.068-0.505-0.175-0.622l-0.094-0.083c-0.06-0.042-0.085-0.062-0.083-0.187l-2e-3 -0.032c-8e-3 -0.286 0.053-0.579 0.12-0.858 0.05-0.235 0.105-0.478 0.119-0.723z" fill="#f2bd12"/>
  </g>
  <g transform="matrix(8.2719 0 0 -8.2719 -79.027 18.005)">
   <path d="m0 0-0.065-0.028c-0.15-0.17-0.079-0.895-0.045-1.205l0.016-0.18v-0.045l0.042 4e-3h0.188c0.113 0 0.2 0.037 0.261 0.1 0.129 0.144 0.126 0.417 0.111 0.643-0.033 0.438-0.128 0.702-0.507 0.711zm-0.507-4.442-0.031 0.029c-0.059 0.15-0.057 0.26-0.056 0.383l1e-3 0.56c0 0.196-0.016 0.395-0.029 0.584-0.019 0.233-0.037 0.476-0.029 0.713 3e-3 0.119 9e-3 0.24 0.013 0.359 0.014 0.277 0.026 0.563 0.021 0.843-5e-3 0.223-0.017 0.446-0.024 0.667-0.01 0.265-0.024 0.53-0.025 0.793l-0.012 0.203c-6e-3 0.09-0.014 0.183-9e-3 0.274 7e-3 0.162 0.151 0.187 0.263 0.207l0.097 0.021 0.044 4e-3 0.218 0.043 0.082 0.022 0.101 9e-3c0.114 0.023 0.242 0.03 0.322-0.023l0.215-0.19 0.102-0.087 0.022-0.028 0.012-0.094 0.021-0.136 0.029-0.076c0.094-0.237 0.145-0.534 0.145-0.821l-2e-3 -0.031c-0.01-0.2-3e-3 -0.283 0.027-0.318 0.061-0.201 0.035-0.391 8e-3 -0.578l-8e-3 -0.039c-0.027-0.159-0.027-0.315-0.027-0.468l2e-3 -0.088c0-0.156-0.044-0.302-0.088-0.45l-0.062-0.206-0.189-0.191-0.056-0.12c0.016-0.214 0.027-0.356 0.059-0.395l0.018-0.111 0.022-0.132 0.085-0.24c0.093-0.264 0.198-0.558 0.158-0.826l-5e-3 -0.027-0.069-0.013-0.01 0.037-0.099-3e-3 -0.108-0.021-0.019-0.02-0.024 0.01-0.173 0.056-0.024 4e-3 -5e-3 0.024-0.073 0.18-0.037 0.175-0.029 0.106-0.043 0.217c-0.026 0.091-0.051 0.183-0.051 0.285l-0.024 0.066-0.043 0.115-0.029 0.057-0.125 0.094h-0.037v-0.041c4e-3 -0.271 4e-3 -0.545 3e-3 -0.817l-2e-3 -0.365-0.017-0.015c-0.023-0.015-0.241-0.165-0.378-0.17z" fill="#f2bd12"/>
  </g>
  <g transform="matrix(8.2719 0 0 -8.2719 -21.278 43.944)">
   <path d="m0 0 0.024-0.012 0.187-0.035 0.063-4e-3 0.12 0.051c0.149 0.148 0.139 0.56 0.137 0.834 0 0.095-4e-3 0.178 1e-3 0.227-5e-3 0.08 6e-3 0.18 0.021 0.296 0.02 0.17 0.047 0.404 0 0.465l-0.015 0.016 8e-3 0.02c0.075 0.281 0.092 0.525 0.04 0.723l-0.054 0.07-0.095 0.245-0.242 0.061v0.015l-8e-3 -0.015-2e-3 9e-3 -0.088-0.101-0.061-0.107-0.036-0.052c-0.027-0.105-0.041-0.228-0.038-0.388l2e-3 -0.361-0.041-0.293 2e-3 -0.047c5e-3 -0.183 5e-3 -0.308-2e-3 -0.376l-0.033-0.122c0.02-0.096 0.015-0.223 6e-3 -0.346-6e-3 -0.182-0.015-0.371 0.063-0.527zm-0.014-1.205-0.081 0.052c-0.015-0.013-0.142-0.019-0.237 0.026l-0.102 0.125-0.025 0.038-0.023 0.106-0.042 0.19c-0.088 0.512-0.059 1.045-0.034 1.556 8e-3 0.194 0.02 0.386 0.023 0.573l0.011 0.42c6e-3 0.247 0.015 0.498 0.015 0.749 3e-3 0.294 4e-3 0.602 0.027 0.907 0.01 0.155 0.034 0.272 0.071 0.374l0.07 0.095 0.056 0.108 0.176 0.132h2e-3c0.107 0 0.211-0.013 0.312-0.027 0.094-0.01 0.185-0.024 0.28-0.024l0.103-0.047 0.033-0.023 0.081-0.107 0.08-0.084 0.101-0.093 0.023-0.028c0.035-0.256 0.076-0.469 0.137-0.667-0.019-0.503-0.032-0.991-0.042-1.474l-0.01-0.344c-5e-3 -0.201-5e-3 -0.41-4e-3 -0.615 0-0.318 2e-3 -0.649-0.017-0.969l-3e-3 -0.072c-7e-3 -0.17-0.022-0.483-0.104-0.67-0.063-0.14-0.179-0.182-0.249-0.207l-0.037-0.016-0.195-0.074-0.396 0.09" fill="#f2bd12"/>
  </g>
  <g transform="matrix(8.2719 0 0 -8.2719 23.03 57.676)">
   <path d="m0 0h-0.037l-0.096 0.027-0.314 0.026-0.081 0.402c-0.074 0.383-0.152 0.778-0.243 1.167l-0.017 0.07-0.049-0.055c-0.153-0.151-0.127-0.342-0.104-0.543l0.021-0.23c0-0.29-9e-3 -0.493-0.025-0.613l-0.083-0.153-0.194-0.049-0.038-7e-3 -0.071 0.025-0.053 0.083c-0.105 0.045-0.093 0.42-0.032 1.044l0.016 0.191c5e-3 0.172 0.016 0.342 0.025 0.514 0.016 0.251 0.029 0.507 0.029 0.763v0.768l0.018 0.255c9e-3 0.089 0.019 0.186 0.016 0.284l-7e-3 0.129c-7e-3 0.076-0.04 0.357 0.036 0.451l0.244-0.01c0.129-0.07 0.147-0.18 0.166-0.286l0.025-0.124 0.083-0.239 0.018-0.107c0.02-0.144 0.062-0.295 0.101-0.438 0.056-0.197 0.116-0.402 0.123-0.612v-0.04h0.189v0.191c-3e-3 0.401-9e-3 0.817 0.026 1.226l4e-3 0.049 0.047-0.017c0.451-0.14 0.409-0.501 0.366-0.848l-0.02-0.231-0.01-0.151c-0.029-0.493-0.051-1.006-0.032-1.504l3e-3 -0.141c5e-3 -0.124 5e-3 -0.246 5e-3 -0.37l-0.014-0.233c-0.087-0.086-0.07-0.245-0.05-0.398l0.013-0.231z" fill="#f2bd12"/>
  </g>
  <g transform="matrix(8.2719 0 0 -8.2719 -140.06 58.225)">
   <path d="m0 0h-0.023l-0.042 0.012c-0.147 0.187-0.156 0.328-0.157 0.563v0.066c-2e-3 0.307-7e-3 0.616-0.015 0.929-8e-3 0.422-0.017 0.846-0.015 1.272l2e-3 0.232c7e-3 0.276 0.011 0.555-0.02 0.83l-7e-3 0.041 0.056 0.098c0.022 2e-3 0.063 0.023 0.226 0.119l0.042 0.015 0.065 8e-3 0.025 0.02 0.047-0.02 0.045-0.091 0.4-0.976 0.026-0.071c0.034-0.099 0.064-0.184 0.16-0.213l0.053-0.019-0.073 1.362 0.013 0.014-0.011 0.025-0.01 0.098 0.156 0.157c0.131 0.079 0.275 0.107 0.316 0.121l0.04 2e-3 7e-3 -0.035 0.045-0.088 0.014-0.036v-0.675c0-0.114 2e-3 -0.231 4e-3 -0.343 1e-3 -0.31 0.01-0.631-0.018-0.945-0.026-0.31 0.011-0.636 0.043-0.952 0.031-0.268 0.061-0.547 0.051-0.823l-5e-3 -0.332-0.014-0.14c-0.035-0.053-0.114-0.079-0.227-0.079l-0.3-0.044-0.019 0.06c-0.032 0.079-0.05 0.203-0.065 0.335-0.033 0.228-0.075 0.509-0.197 0.594l-0.168 0.561-0.046-0.053c-0.119-0.117-0.175-0.583-0.061-0.693l0.011-0.32-5e-3 -0.25 0.012-0.035 9e-3 -0.262-0.214-0.033-0.074-0.01z" fill="#f2bd12"/>
  </g>
  <g transform="matrix(8.2719 0 0 -8.2719 -114.99 23.837)">
   <path d="m0 0c-0.071 0-0.247-0.021-0.26-0.187l-2e-3 -0.041c-0.018-0.218-0.027-0.438-0.03-0.658-6e-3 -0.194-0.014-0.39-0.028-0.582l-8e-3 -0.091 0.054-0.264 0.014-0.028v-0.185c0-0.272 0.043-0.539 0.113-0.705l0.013-0.043 0.04 0.019 0.158 0.051c0.116 0.028 0.187 0.045 0.218 0.138 0.189 0.241 0.125 0.78 0.077 1.171-0.013 0.122-0.026 0.231-0.031 0.318l-0.016 0.26 8e-3 0.148c0.01 0.243 0.026 0.612-0.186 0.662l-0.134 0.017m-0.596-3.913h-0.035l-0.033 0.513c-4e-3 0.149-0.038 0.453-0.067 0.745-0.033 0.302-0.063 0.588-0.063 0.719v0.863c0 0.548-0.024 1.066-0.068 1.541l-4e-3 0.085-8e-3 0.104c0.016 0.094 0.079 0.25 0.093 0.276l0.04 0.021 0.661 0.219c0.28 0.179 0.476 9e-3 0.661-0.155l0.05-0.046 0.034-0.119 0.037-0.11c0.036-0.096 0.07-0.3 0.112-0.639l-0.032-0.336c0.041-0.224 0.041-0.433 0.041-0.638 0-0.106 0-0.21 7e-3 -0.315v-0.151c-7e-3 -0.173-0.012-0.391 0.068-0.506 0.082-0.317 0.051-1.788-0.366-1.919l-0.031-0.01-0.137-0.069-0.025-0.022c-0.039-6e-3 -0.061-8e-3 -0.157 0l-0.175 5e-3 -0.078-5e-3 -0.201-0.032c-0.11-0.011-0.219-0.019-0.324-0.019" fill="#f2bd12"/>
  </g>
  <g transform="matrix(8.2719 0 0 -8.2719 -155.15 59.009)">
   <path d="m0 0-0.01 2e-3 -0.207 0.013-0.015-0.013-0.03 9e-3c-0.166 2e-3 -0.303 0.06-0.399 0.168-0.255 0.271-0.228 0.804-0.206 1.233 5e-3 0.116 0.012 0.228 7e-3 0.315l-0.019 0.964c-1e-3 0.057 0.016 0.31 0.123 0.367l0.132 0.038 0.162 0.085 0.077 0.101-7e-3 -0.822 7e-3 -0.031c0.016-0.076 0.023-0.268 0.016-0.575v-0.086c5e-3 -0.296 0.016-0.598 0.02-0.897l3e-3 -0.028 0.03-0.01 0.191-0.075 0.171-0.062c0.041 0 0.102 0.015 0.175 0.138 0.13 0.14 0.102 0.373 0.078 0.564l-5e-3 0.052c-0.026 0.219-0.023 0.449-0.02 0.667l3e-3 0.608c1e-3 0.062-0.012 0.157-0.022 0.255-0.026 0.194-0.053 0.415-2e-3 0.541l0.227 0.144 0.171 0.087 0.058 3e-3c0.092-0.09 0.072-0.328 0.055-0.537l-0.011-0.207 0.01-0.13c0.011-0.166 0.029-0.34 0.025-0.509-2e-3 -0.172-6e-3 -0.34-7e-3 -0.51-7e-3 -0.263-0.011-0.525-0.011-0.786v-0.035c6e-3 -0.148 0-0.249-0.012-0.286l-0.022-0.027-0.085-0.196-0.049-0.155-0.046-0.065c-0.091-0.131-0.184-0.264-0.378-0.234z" fill="#f2bd12"/>
  </g>
  <g transform="matrix(8.2719 0 0 -8.2719 33.967 52.636)">
   <path d="m0 0 0.281-4e-3 0.1 0.07c0.126 0.125 0.116 0.377 0.107 0.565l-5e-3 0.086 7e-3 0.22c0.016 0.338 0.034 0.756-0.17 0.961l-0.218 0.081-0.055-6e-3 -0.03-0.094c-0.103-0.199-0.131-0.809-0.119-0.9zm0.32-0.768-0.068 8e-3 -0.087 0.013-0.142 3e-3h-0.124l-0.192 0.028-0.107 0.021-0.037 6e-3c-0.024 0.019-0.051 0.078-0.044 0.314v0.037c-4e-3 0.439 0 0.875 7e-3 1.317 6e-3 0.462 9e-3 0.923 6e-3 1.392v0.049c-4e-3 0.204-4e-3 0.413 0.042 0.609l0.066 0.02 0.298-0.17 0.124-0.046 0.083-0.06c0.201-0.066 0.397-0.343 0.541-0.55l0.136-0.18 0.023-0.023c0.056-0.196 0.05-0.73 0.05-0.752 0.045-0.069 0.029-0.241 0.016-0.391l-0.01-0.148 5e-3 -0.174c8e-3 -0.188 0.016-0.375 3e-3 -0.568-0.031-0.374-0.125-0.755-0.589-0.755" fill="#f2bd12"/>
  </g>
  <g transform="matrix(8.2719 0 0 -8.2719 31.766 107.23)">
   <path d="m0 0h-4e-3s-0.276 0.021-0.373 0.027l-0.181 0.015-0.169 0.024-0.05-6e-3c-0.065-0.011-0.179-0.029-0.292-0.029-0.144 0-0.247 0.032-0.308 0.09l-0.061 0.174v0.039l-1e-3 1.482c0 0.163 3e-3 0.324 0.014 0.481 8e-3 0.158 0.017 0.316 0.017 0.474-2e-3 0.12 0.025 0.231 0.051 0.342 0.042 0.17 0.081 0.334 0 0.504 6e-3 0.083 0.013 0.913 4e-3 1.299v0.041l0.963 0.037c0.062-0.032 0.373-0.078 0.661-0.078 0.195 0 0.256 0.023 0.273 0.035 0.027 0.011 0.077 0.014 0.184 0.018l0.154 7e-3 0.051-0.025 0.037-0.056 0.02-0.01 4e-3 -0.147c8e-3 -0.229 0.015-0.441-0.018-0.672-0.019-0.13-0.101-0.287-0.378-0.287l-0.139 7e-3 -0.022 7e-3 -0.064 0.011-0.188 0.01-0.083 0.041-0.033 0.02-0.088-0.02-0.089-0.015-0.124-0.035-0.023-0.078c-0.05-0.172-0.173-0.579-0.082-0.695 0.032-0.045 0.101-0.04 0.203 3e-3l0.405 0.028c0.026-0.016 0.048-0.035 0.156-0.035l0.211 0.019c0.139 0.023 0.214-0.012 0.274-0.084 0.075-0.096 0.092-0.25 0.049-0.432l-0.026-0.138c-0.023-0.149-0.052-0.342-0.113-0.414l-0.032-0.018c-0.071 4e-3 -0.147 9e-3 -0.246 9e-3 -0.456 0-0.776-0.074-0.906-0.208l-0.067-0.176c0.013-0.324 0.152-0.436 0.457-0.394l0.043 2e-3c5e-3 0 0.314-5e-3 0.416 0l0.083 2e-3c0.21 0 0.332-0.067 0.345-0.202l5e-3 -0.059c0.041-0.336 0.047-0.539 0.018-0.587l-0.049-0.149-9e-3 -0.065c-0.168-0.148-0.312-0.097-0.471-0.046l-0.229-0.03-0.174-0.053z" fill="#f2bd12"/>
  </g>
  <g transform="matrix(8.2719 0 0 -8.2719 -149.31 107.83)">
   <path d="m0 0c-0.122 0-0.236 0.05-0.35 0.095-0.109 0.051-0.215 0.096-0.329 0.096l-0.136-0.051-0.105-0.051-0.148 0.048c-0.177 0.094-0.322 0.243-0.411 0.428-0.197 0.407-0.14 0.842-0.087 1.264l0.027 0.205c0.017 0.151 0 0.412-0.019 0.709-0.062 0.914-0.147 2.166 0.617 2.295 5e-3 2e-3 0.265 0.033 0.498 0.033l0.133 2e-3c0.101 0 0.203-2e-3 0.29-2e-3h0.19c0.097 0 0.12 0 0.127 2e-3l0.132 0.015c0.405 0 0.74-0.221 0.85-0.562l0.033-0.071 0.045-0.187 0.011-0.071c0.039-0.266 0.074-0.569-0.011-0.818-0.102-0.081-0.212-0.058-0.329-0.044l-0.119 6e-3h-0.051c-0.105 0-0.2 0.027-0.294 0.054l-0.125 0.032-0.032 9e-3v0.034c0 0.355-0.231 0.428-0.424 0.428l-0.231-0.026-0.064-0.019-0.16-0.028-0.034-8e-3 -0.013-0.072c-7e-3 -0.062-0.031-0.475-0.031-0.594l-0.052-0.486c-0.028-0.24-0.036-0.664 0.052-0.81l0.04-0.399 0.069-0.058c0.18-0.193 0.297-0.185 0.477-0.174l0.169 7e-3 0.163-2e-3 0.088 0.096-6e-3 0.11-0.036 0.164c-0.049 0.048-0.141 0.051-0.232 0.058-0.092 2e-3 -0.186 0.012-0.238 0.071l-0.039 0.138 2e-3 0.266c-2e-3 0.236-6e-3 0.463 0.132 0.599 0.081 0.086 0.207 0.123 0.378 0.123 0.102-9e-3 0.209-0.012 0.321-0.017 0.185-4e-3 0.378-0.012 0.538-0.051l0.115-0.361v-1.101c0-0.129-0.024-0.462-0.061-0.581l-0.059-0.105c5e-3 -0.086-0.134-0.401-0.263-0.444l-0.175-0.033c-0.08-8e-3 -0.149-0.019-0.246-0.06-0.103-0.045-0.266-0.057-0.387-0.057-0.091 0-0.093 0-0.105 0.016l-0.025-0.043-0.028-0.015-0.042-2e-3" fill="#f2bd12"/>
  </g>
  <g transform="matrix(8.2719 0 0 -8.2719 -2.343 107.65)">
   <path d="m0 0-0.122 0.022-0.113 0.045-0.241 0.073-0.049 0.015-0.151 0.031-0.117-0.085-0.097-0.03c-0.239 0-0.608 0.323-0.608 0.53l-0.059 0.065c-0.026 0.071-0.061 0.255-0.053 0.797v0.034c0 0.289 0.014 0.576 0.035 0.852 0.024 0.402 0.051 0.816 0.022 1.23l-7e-3 0.099c-0.023 0.332 0.07 0.594 0.164 0.88l0.076 0.213 0.022 0.025 0.15 0.089c0.065 0.05 0.134 0.095 0.269 0.118l0.067-6e-3c0.153 0 0.332 0.049 0.352 0.055 0.094-0.01 0.231-0.018 0.274-0.018l1e-3 9e-3 0.033-1e-3 0.161-0.045 0.201-0.017c0.305 0.103 0.495 0.103 0.771 0.011 0.382-0.125 0.556-0.527 0.556-0.853l0.036-0.08c0.013-0.119 0-0.366-0.013-0.455l-4e-3 -0.032c-0.011-0.123-0.027-0.194-0.028-0.21l-0.024-0.026-0.178 9e-3 -0.055 3e-3c-0.284 2e-3 -0.515 0.023-0.727 0.058l-0.029 0.01-0.026 0.252c-0.016 0.15-0.162 0.164-0.29 0.164h-0.079l-0.135 7e-3 -0.174 0.017c-0.124 0-0.204-0.033-0.248-0.094-0.1-0.133-0.145-0.41-0.09-0.557 0.043-0.107 0.019-0.343-0.01-0.617-0.015-0.153-0.034-0.316-0.037-0.461-0.011-0.279 0.059-0.48 0.086-0.515l0.046-0.131 0.039-0.155 0.075-0.053c0.067-0.07 0.158-0.098 0.285-0.098l0.2 0.012 0.078 6e-3 0.205 0.016 0.033 1e-3 9e-3 0.05 0.024 0.064 0.1 0.157c-0.041 0.121-0.412 0.19-0.566 0.19h-0.044l-7e-3 0.046 0.031 0.873 0.091 0.223h0.032l0.134-8e-3c0.118 0 0.138 0.019 0.141 0.023l0.014 0.011 0.019-2e-3 0.214-0.028c0.19-0.026 0.364-0.049 0.555-0.036 0.311 0.028 0.355-0.201 0.355-0.448v-1.02c6e-3 -0.16 4e-3 -0.233 0-0.264l-0.065-0.268-0.046-0.111-0.047-0.066-0.136-0.248-0.111-0.177-9e-3 -0.022-0.023-8e-3h-0.167c6e-3 0-0.242-0.071-0.356-0.071h-0.246l-0.09-0.023-0.032-0.012-0.127-0.017-0.12-0.017" fill="#f2bd12"/>
  </g>
  <g transform="matrix(8.2719 0 0 -8.2719 -118.04 94.043)">
   <path d="m0 0h0.773v1.617l0.015 0.235c8e-3 0.132 0.021 0.254 4e-3 0.379l-0.084 0.142-0.093 0.115-0.018 0.028-0.033-0.01-0.111-0.039c-0.141-0.043-0.195-0.057-0.232-0.242-0.025-0.121-0.031-0.26-0.017-0.417 0.032-0.387-0.046-0.841-0.113-1.238-0.018-0.103-0.034-0.207-0.05-0.3zm-1.139-1.642-0.132 0.039c-0.062 0.06-0.053 0.412-0.043 0.617l-0.019 0.117-0.024 0.152v0.038c-3e-3 0.193-2e-3 0.282 0 0.327l0.256 0.309 0.028 0.053c0.254 0.433 0.273 1.111 0.283 1.603l8e-3 0.249c0.012 0.511 0.033 1.046-0.058 1.542l-6e-3 0.032 0.034 9e-3 0.099 0.043c0.085 0.037 0.135 0.06 0.289 0.06h0.173c0.173 0 0.344 4e-3 0.516 7e-3l0.34 9e-3h5e-3c0.182 0 0.576-0.012 0.576-0.012l0.519-0.048 7e-3 -0.024 5e-3 -0.089v-2.341l-5e-3 -0.234c-0.01-0.27-0.021-0.546 0.085-0.792l0.01-0.021 0.021-3e-3 0.112-0.01c0.13-7e-3 0.291-0.013 0.367-0.095 0.08-0.076 0.07-0.201 0.062-0.305l-5e-3 -0.076 2e-3 -0.188 0.01-0.135c0.027-0.334 0.04-0.642-0.081-0.727-0.07-0.049-0.216-0.071-0.454-0.071l-0.178 4e-3 -0.152 9e-3c-0.072 0.064-0.096 0.206-0.091 0.397l4e-3 0.043h-0.045l-0.233 0.021-0.223 0.014h-0.413l-0.56 0.016-0.061 9e-3c-0.116 0.018-0.18-9e-3 -0.206-0.097l-0.056-0.055-0.015-0.166-0.029-0.15-0.166-0.055-0.331 6e-3s-0.126-0.031-0.225-0.031" fill="#f2bd12"/>
  </g>
  <g transform="matrix(8.2719 0 0 -8.2719 -44.7 93.809)">
   <path d="m0 0h0.043l0.236-0.019 0.243-0.026c0.115 0 0.187 0.02 0.243 0.062 0.117 0.136 0.09 0.348 0.064 0.546l-0.022 0.234v1.533c0 0.073-0.053 0.105-0.144 0.142l-0.156 0.05-0.03-3e-3 -0.167-0.065c-0.119-0.116-0.112-0.371-0.107-0.563l2e-3 -0.136c0-0.119-0.029-0.253-0.059-0.4-0.044-0.217-0.092-0.44-0.044-0.608-4e-3 -0.121-0.025-0.228-0.05-0.332-0.023-0.124-0.048-0.251-0.051-0.373zm-1.374-1.659-9e-3 0.042c-0.081 0.434 0.126 1.466 0.135 1.511l0.113 0.207 0.119 0.22c0.06 0.221 0.091 0.448 0.121 0.678l0.024 0.185c0.063 0.432 0.055 0.877 0.05 1.309l-3e-3 0.141c-2e-3 0.058-0.023 0.168-0.043 0.283-0.056 0.294-0.089 0.506-0.03 0.609l0.026 0.024c0.294 0.046 0.593 0.054 0.821 0.061l0.222 2e-3 1.023 0.035c0.256-0.014 0.561-0.052 0.597-0.135 0.066-0.153 0.059-0.325 0.056-0.477l-9e-3 -0.152c-1e-3 -0.266-0.012-0.532-0.018-0.797-0.018-0.55-0.04-1.122 2e-3 -1.674l4e-3 -0.078c0.017-0.303 0.142-0.324 0.37-0.363l0.212-0.045 0.025-0.01 4e-3 -0.023 0.07-0.214c0.057-0.199 0.038-0.382 0.021-0.555-6e-3 -0.101-0.017-0.2-0.017-0.298l4e-3 -0.053c7e-3 -0.128-0.026-0.232-0.096-0.299-0.101-0.111-0.274-0.124-0.411-0.124l-0.206 9e-3 -0.059 4e-3c-0.241 8e-3 -0.256 0.172-0.253 0.42l2e-3 0.043h-0.042c-0.108 0-0.214 0.012-0.323 0.018-0.103 7e-3 -0.21 0.021-0.315 0.021l-0.92 2e-3c-0.123 0.035-0.146 0.027-0.19-0.022l-0.046-0.044-0.096-0.239c-0.01-0.136-0.035-0.224-0.357-0.209l-0.066 6e-3h-0.09l-0.032 4e-3 -0.109 0.051z" fill="#f2bd12"/>
  </g>
  <g transform="matrix(8.2719 0 0 -8.2719 -79.209 73.17)">
   <path d="m0 0c-0.173 0-0.282-0.111-0.314-0.322-0.039-0.262-9e-3 -0.533 0.022-0.772 0.027-0.201 0.253-0.226 0.351-0.226l0.119 0.012c0.124 0.02 0.231 0.095 0.233 0.097l0.223 0.316 0.018 0.07c0.047 0.169 5e-3 0.353-0.118 0.518-0.14 0.183-0.352 0.307-0.534 0.307m-0.705-3.942h-0.407l-0.113 1e-3c-0.099 0.115-0.095 0.298-0.091 0.431l2e-3 0.063 3e-3 3.648c0 0.135 3e-3 0.256 0 0.382 0.051 0.099 0.044 0.206 0.036 0.304l-7e-3 0.148 1e-3 0.035 0.031 4e-3 0.229 0.026 0.204 0.015 0.05 0.01c0.07 0.021 0.167 0.031 0.294 0.031l0.191-4e-3 0.086-4e-3h0.611c0.085 0 0.494-0.14 0.722-0.29 0.101-0.065 0.192-0.215 0.192-0.258l0.01-0.03 0.125-0.208c0.086-0.237 0.122-0.423 0.134-0.654l0.047-0.251c0.011-0.129-8e-3 -0.408-0.052-0.842l-0.011-0.103c-0.017-0.278-0.137-0.451-0.286-0.672l-0.025-0.037-0.137-0.075c-0.101-0.042-0.271-0.111-0.284-0.181l0.063-0.094 0.092-0.268c1e-3 -0.189 0.104-0.357 0.211-0.542 0.101-0.17 0.199-0.342 0.225-0.535l4e-3 -0.05-0.761 0.031-0.055-9e-3 -0.172-0.012h-0.042l-0.035 0.047c-0.034 0.078-0.069 0.164-0.103 0.258l-0.029 0.031-0.078 0.174h-5e-3l-0.015 0.029c-0.029 0.086-0.067 0.185-0.102 0.28l-0.029 0.082c-0.045 0.093-0.168 0.283-0.246 0.283l-0.049-7e-3 -0.01-0.037-0.024-0.251-0.019-0.253c0.019-0.097 0.073-0.468 0-0.565l-0.376-0.081" fill="#f2bd12"/>
  </g>
 </g>
</svg>
