<svg width="800" height="206.17" version="1.1" viewBox="0 0 211.67 54.55" xmlns="http://www.w3.org/2000/svg">
 <defs>
  <linearGradient id="linearGradient3830" x2="1" gradientTransform="matrix(6.8379 0 0 -6.8379 77.679 516.06)" gradientUnits="userSpaceOnUse">
   <stop stop-color="#9c0e21" offset="0"/>
   <stop stop-color="#e51636" offset=".15951"/>
   <stop stop-color="#4b050b" offset=".33129"/>
   <stop stop-color="#9c0e21" offset=".45399"/>
   <stop stop-color="#4b050b" offset="1"/>
  </linearGradient>
  <linearGradient id="linearGradient3856" x2="1" gradientTransform="matrix(5.2071 0 0 -5.2071 71.67 516.06)" gradientUnits="userSpaceOnUse">
   <stop stop-color="#9c0e21" offset="0"/>
   <stop stop-color="#e51636" offset=".15951"/>
   <stop stop-color="#4b050b" offset=".33129"/>
   <stop stop-color="#9c0e21" offset=".45399"/>
   <stop stop-color="#4b050b" offset="1"/>
  </linearGradient>
  <linearGradient id="linearGradient3882" x2="1" gradientTransform="matrix(7.8985 0 0 -7.8985 64.024 515.8)" gradientUnits="userSpaceOnUse">
   <stop stop-color="#9c0e21" offset="0"/>
   <stop stop-color="#e51636" offset=".15951"/>
   <stop stop-color="#4b050b" offset=".33129"/>
   <stop stop-color="#9c0e21" offset=".45399"/>
   <stop stop-color="#4b050b" offset="1"/>
  </linearGradient>
  <linearGradient id="linearGradient3908" x2="1" gradientTransform="matrix(4.7217 0 0 -4.7217 60.826 516.06)" gradientUnits="userSpaceOnUse">
   <stop stop-color="#9c0e21" offset="0"/>
   <stop stop-color="#e51636" offset=".15951"/>
   <stop stop-color="#4b050b" offset=".33129"/>
   <stop stop-color="#9c0e21" offset=".45399"/>
   <stop stop-color="#4b050b" offset="1"/>
  </linearGradient>
  <linearGradient id="linearGradient3934" x2="1" gradientTransform="matrix(5.2075 0 0 -5.2075 54.871 516.06)" gradientUnits="userSpaceOnUse">
   <stop stop-color="#9c0e21" offset="0"/>
   <stop stop-color="#e51636" offset=".15951"/>
   <stop stop-color="#4b050b" offset=".33129"/>
   <stop stop-color="#9c0e21" offset=".45399"/>
   <stop stop-color="#4b050b" offset="1"/>
  </linearGradient>
  <linearGradient id="linearGradient3960" x2="1" gradientTransform="matrix(7.894 0 0 -7.894 47.227 515.8)" gradientUnits="userSpaceOnUse">
   <stop stop-color="#9c0e21" offset="0"/>
   <stop stop-color="#e51636" offset=".15951"/>
   <stop stop-color="#4b050b" offset=".33129"/>
   <stop stop-color="#9c0e21" offset=".45399"/>
   <stop stop-color="#4b050b" offset="1"/>
  </linearGradient>
  <clipPath id="clipPath3970">
   <path d="m47.228 511h37.29v9.609h-37.29z"/>
  </clipPath>
  <linearGradient id="linearGradient3998" x2="1" gradientTransform="matrix(6.8379 0 0 -6.8379 77.679 516.06)" gradientUnits="userSpaceOnUse">
   <stop stop-color="#500000" offset="0"/>
   <stop stop-color="#650000" offset=".15951"/>
   <stop stop-color="#300" offset=".33129"/>
   <stop stop-color="#500000" offset=".45399"/>
   <stop stop-color="#300" offset="1"/>
  </linearGradient>
  <clipPath id="clipPath4008">
   <path d="m47.228 511h37.29v9.609h-37.29z"/>
  </clipPath>
  <linearGradient id="linearGradient4036" x2="1" gradientTransform="matrix(7.894 0 0 -7.894 47.227 515.8)" gradientUnits="userSpaceOnUse">
   <stop stop-color="#500000" offset="0"/>
   <stop stop-color="#650000" offset=".15951"/>
   <stop stop-color="#300" offset=".33129"/>
   <stop stop-color="#500000" offset=".45399"/>
   <stop stop-color="#300" offset="1"/>
  </linearGradient>
  <clipPath id="clipPath4046">
   <path d="m47.228 511h37.289v9.609h-37.289z"/>
  </clipPath>
  <linearGradient id="linearGradient4074" x2="1" gradientTransform="matrix(5.2075 0 0 -5.2075 54.871 516.06)" gradientUnits="userSpaceOnUse">
   <stop stop-color="#500000" offset="0"/>
   <stop stop-color="#650000" offset=".15951"/>
   <stop stop-color="#300" offset=".33129"/>
   <stop stop-color="#500000" offset=".45399"/>
   <stop stop-color="#300" offset="1"/>
  </linearGradient>
  <clipPath id="clipPath4084">
   <path d="m47.228 511h37.289v9.609h-37.289z"/>
  </clipPath>
  <linearGradient id="linearGradient4112" x2="1" gradientTransform="matrix(4.7217 0 0 -4.7217 60.826 516.06)" gradientUnits="userSpaceOnUse">
   <stop stop-color="#500000" offset="0"/>
   <stop stop-color="#650000" offset=".15951"/>
   <stop stop-color="#300" offset=".33129"/>
   <stop stop-color="#500000" offset=".45399"/>
   <stop stop-color="#300" offset="1"/>
  </linearGradient>
  <clipPath id="clipPath4148">
   <path d="m47.228 511h37.289v9.609h-37.289z"/>
  </clipPath>
  <clipPath id="clipPath4186">
   <path d="m47.228 511h37.289v9.609h-37.289z"/>
  </clipPath>
  <clipPath id="clipPath4222">
   <path d="m47.228 511h37.289v9.609h-37.289z"/>
  </clipPath>
  <clipPath id="clipPath4260">
   <path d="m68.905 520.61-0.919-2.836-0.832 2.836h-3.13l3.938-9.61 3.961 9.61z"/>
  </clipPath>
  <linearGradient id="linearGradient148767" x2="1" gradientTransform="matrix(7.8985 0 0 -7.8985 64.024 515.8)" gradientUnits="userSpaceOnUse">
   <stop stop-color="#500000" offset="0"/>
   <stop stop-color="#650000" offset=".15951"/>
   <stop stop-color="#300" offset=".33129"/>
   <stop stop-color="#500000" offset=".45399"/>
   <stop stop-color="#300" offset="1"/>
  </linearGradient>
  <linearGradient id="linearGradient148771" x2="1" gradientTransform="matrix(5.2071 0 0 -5.2071 71.67 516.06)" gradientUnits="userSpaceOnUse">
   <stop stop-color="#500000" offset="0"/>
   <stop stop-color="#650000" offset=".15951"/>
   <stop stop-color="#300" offset=".33129"/>
   <stop stop-color="#500000" offset=".45399"/>
   <stop stop-color="#300" offset="1"/>
  </linearGradient>
 </defs>
 <g transform="translate(-49.804 21.104)">
  <g transform="matrix(5.6764 0 0 -5.6764 -218.28 2934.1)">
   <path d="m77.679 520.61v-2.611zm4.775-9.09h1e-3v6.479h-1e-3z" fill="url(#linearGradient3830)"/>
   <path d="m74.526 520.61c-0.018 0-0.035 0-0.053-1e-3 0.018 1e-3 0.035 1e-3 0.053 1e-3m-0.069-1e-3h-0.042 0.042m-0.054-1e-3c-0.017 0-0.034-1e-3 -0.051-1e-3 0.017 0 0.034 1e-3 0.051 1e-3m-0.066-2e-3c-0.012 0-0.025-1e-3 -0.037-1e-3 0.012 0 0.025 1e-3 0.037 1e-3m-0.055-2e-3c-0.016-1e-3 -0.031-2e-3 -0.047-3e-3 0.016 1e-3 0.031 2e-3 0.047 3e-3m-0.064-4e-3c-0.011-1e-3 -0.022-1e-3 -0.033-2e-3 0.011 1e-3 0.022 1e-3 0.033 2e-3m-0.055-4e-3c-0.01-1e-3 -0.021-2e-3 -0.031-2e-3 0.01 0 0.021 1e-3 0.031 2e-3m-0.065-5e-3c-8e-3 -1e-3 -0.017-2e-3 -0.026-3e-3 9e-3 1e-3 0.018 2e-3 0.026 3e-3m-0.052-6e-3c-7e-3 0-0.015-1e-3 -0.022-2e-3 7e-3 1e-3 0.015 2e-3 0.022 2e-3m-0.064-7e-3c-7e-3 -1e-3 -0.015-2e-3 -0.023-3e-3 8e-3 1e-3 0.016 2e-3 0.023 3e-3m-0.05-6e-3c-6e-3 -1e-3 -0.013-2e-3 -0.019-3e-3 6e-3 1e-3 0.013 2e-3 0.019 3e-3m-0.046-7e-3c-5e-3 -1e-3 -0.01-1e-3 -0.015-2e-3 5e-3 1e-3 0.01 1e-3 0.015 2e-3m-0.066-0.01-0.015-3e-3 0.015 3e-3m-0.045-8e-3c-4e-3 -1e-3 -8e-3 -1e-3 -0.012-2e-3 4e-3 1e-3 8e-3 1e-3 0.012 2e-3m-0.066-0.013c-4e-3 0-8e-3 -1e-3 -0.012-2e-3 4e-3 1e-3 8e-3 2e-3 0.012 2e-3m-0.041-8e-3c-4e-3 -1e-3 -8e-3 -2e-3 -0.013-3e-3 5e-3 1e-3 9e-3 2e-3 0.013 3e-3m-0.065-0.014-0.012-3e-3 0.012 3e-3m-0.038-0.01c-5e-3 -1e-3 -0.011-2e-3 -0.016-4e-3 5e-3 2e-3 0.011 3e-3 0.016 4e-3m-0.042-0.01c-6e-3 -2e-3 -0.012-3e-3 -0.018-5e-3 6e-3 2e-3 0.012 3e-3 0.018 5e-3m-0.057-0.016c-7e-3 -2e-3 -0.014-4e-3 -0.02-6e-3 6e-3 2e-3 0.013 4e-3 0.02 6e-3m-0.042-0.012c-9e-3 -3e-3 -0.017-5e-3 -0.026-8e-3 9e-3 3e-3 0.017 5e-3 0.026 8e-3m-0.05-0.015c-0.01-3e-3 -0.019-6e-3 -0.028-9e-3 9e-3 3e-3 0.018 6e-3 0.028 9e-3m-0.046-0.015c-9e-3 -3e-3 -0.019-7e-3 -0.029-0.01 0.01 3e-3 0.02 7e-3 0.029 0.01m-0.04-0.014c-0.014-5e-3 -0.027-0.01-0.04-0.014 0.013 4e-3 0.026 9e-3 0.04 0.014m-0.051-0.019c-0.011-4e-3 -0.022-8e-3 -0.033-0.012 0.011 4e-3 0.022 8e-3 0.033 0.012m-0.042-0.016c-0.014-5e-3 -0.027-0.011-0.041-0.016 0.014 5e-3 0.027 0.011 0.041 0.016m-0.045-0.018c-0.013-5e-3 -0.026-0.011-0.039-0.017 0.013 6e-3 0.026 0.012 0.039 0.017m-0.044-0.019c-0.029-0.012-0.057-0.025-0.085-0.039 0.028 0.014 0.056 0.027 0.085 0.039m-0.086-0.039c-0.043-0.021-0.085-0.043-0.126-0.066 0.041 0.023 0.083 0.045 0.126 0.066m-1.34-2.15c-1e-3 -2e-3 -1e-3 -5e-3 -1e-3 -7e-3 0-8e-3 -1e-3 -0.017-1e-3 -0.025-1e-3 -4e-3 -1e-3 -8e-3 -1e-3 -0.012-1e-3 -8e-3 -1e-3 -0.015-1e-3 -0.023-1e-3 -5e-3 -1e-3 -0.01-1e-3 -0.015-1e-3 -7e-3 -1e-3 -0.014-1e-3 -0.021 0-6e-3 -1e-3 -0.012-1e-3 -0.018s0-0.013-1e-3 -0.019v-0.019c0-6e-3 -1e-3 -0.012-1e-3 -0.019v-0.021c0-6e-3 -1e-3 -0.011-1e-3 -0.016v-3.639c0-0.902 0.262-1.59 0.791-2.067 0.529-0.479 1.291-0.718 2.29-0.718h2.126v1e-3h-0.898c0.125 0.462 0.193 0.939 0.193 1.43 0 0.398-0.054 0.785-0.136 1.163h0.841v1e-3h-1.82c-0.314 0-0.523 0.031-0.626 0.096-0.101 0.058-0.152 0.183-0.152 0.373 0 0.168 0.048 0.286 0.149 0.358 0.099 0.071 0.269 0.108 0.51 0.108h1.766-0.948c-0.663 1.627-2.082 2.991-3.932 3.856 0.103 0.321 0.253 0.602 0.456 0.841-0.355-0.411-0.555-0.938-0.6-1.588m3.473-0.16h1.724zm-0.032 0h8e-3 -8e-3m-0.024-1e-3h9e-3 -9e-3m-0.022-1e-3h1e-3c2e-3 1e-3 4e-3 1e-3 6e-3 1e-3h1e-3c-3e-3 0-6e-3 0-8e-3 -1e-3m-0.023-1e-3h3e-3c0 1e-3 1e-3 1e-3 2e-3 1e-3h2e-3c-2e-3 0-4e-3 -1e-3 -7e-3 -1e-3m-0.021-1e-3h4e-3 -4e-3m-0.068-6e-3c1e-3 0 2e-3 0 3e-3 1e-3 -1e-3 -1e-3 -2e-3 -1e-3 -3e-3 -1e-3m-0.021-2e-3h3e-3 -3e-3m-0.021-3e-3h3e-3 -3e-3m-0.02-3e-3h2e-3 -2e-3m-0.059-0.011h2e-3 -2e-3m-0.021-5e-3c2e-3 0 4e-3 1e-3 5e-3 1e-3 -1e-3 0-3e-3 -1e-3 -5e-3 -1e-3m-0.018-5e-3c2e-3 1e-3 4e-3 1e-3 7e-3 2e-3 -3e-3 -1e-3 -5e-3 -1e-3 -7e-3 -2e-3m-0.017-4e-3c2e-3 0 5e-3 1e-3 7e-3 2e-3 -2e-3 -1e-3 -5e-3 -2e-3 -7e-3 -2e-3m-0.017-5e-3c3e-3 0 6e-3 1e-3 8e-3 2e-3 -2e-3 -1e-3 -5e-3 -2e-3 -8e-3 -2e-3m-0.191-0.102c0.015 0.013 0.031 0.025 0.049 0.036 2e-3 2e-3 4e-3 3e-3 7e-3 5e-3 1e-3 1e-3 2e-3 1e-3 3e-3 2e-3 0.037 0.023 0.08 0.042 0.128 0.057-0.077-0.024-0.139-0.058-0.187-0.1m0.106-0.705c-1e-3 1e-3 -2e-3 1e-3 -3e-3 2e-3 1e-3 -1e-3 2e-3 -1e-3 3e-3 -2e-3m0.018-7e-3c-4e-3 2e-3 -7e-3 3e-3 -0.01 4e-3 3e-3 -1e-3 6e-3 -2e-3 0.01-4e-3m0.383-0.062h-3e-3c-3e-3 1e-3 -7e-3 1e-3 -0.011 1e-3 -8e-3 0-0.017 1e-3 -0.025 1e-3 -2e-3 0-4e-3 0-6e-3 1e-3h-0.012c-3e-3 1e-3 -6e-3 1e-3 -9e-3 1e-3 -4e-3 0-8e-3 1e-3 -0.012 1e-3h-8e-3c-5e-3 1e-3 -9e-3 1e-3 -0.013 2e-3h-7e-3c-5e-3 1e-3 -9e-3 1e-3 -0.014 1e-3 -1e-3 1e-3 -2e-3 1e-3 -3e-3 1e-3 -0.03 3e-3 -0.058 6e-3 -0.085 0.01-0.067 0.011-0.124 0.025-0.173 0.043 0.093-0.035 0.219-0.055 0.381-0.062m0.023-1e-3c-1e-3 0-1e-3 0-2e-3 1e-3h-0.02c7e-3 0 0.014 0 0.022-1e-3m0.022 0h-0.018 0.018m0.025-1e-3h-1e-3c-5e-3 0-0.01 0-0.014 1e-3h-2e-3c6e-3 -1e-3 0.011-1e-3 0.017-1e-3m0.024 0h-0.017 0.017m0.033 0h-0.025 0.025" fill="url(#linearGradient3856)"/>
   <path d="m71.313 519.13c-0.82 0.329-1.716 0.563-2.663 0.686l0.255 0.789-0.919-2.836-0.832 2.836 0.203-0.695-0.198 8e-3c-0.947 0-1.862-0.112-2.721-0.324l3.524-8.599 3.961 9.61z" fill="url(#linearGradient3882)"/>
   <path d="m60.827 517.91v-3.138c0-1.02 0.276-1.817 0.827-2.391 0.55-0.576 1.316-0.863 2.303-0.863h1.591v2.638h-1.011c-0.401 0-0.668 0.069-0.803 0.209-0.136 0.136-0.203 0.417-0.203 0.842v4.121c-1.012-0.345-1.927-0.824-2.704-1.418" fill="url(#linearGradient3908)"/>
   <path d="m60.079 518h1e-3v2.611h-1e-3zm-2.391 2.611h-0.011 0.012-1e-3m-0.041-1e-3h-0.013 0.016-3e-3m-0.041-1e-3h-0.012 0.017-5e-3m-0.041-1e-3h-0.012 0.02-8e-3m-0.05-2e-3c8e-3 1e-3 0.015 1e-3 0.022 1e-3 -7e-3 0-0.014 0-0.022-1e-3m-0.065-3e-3 0.051 3e-3 -0.051-3e-3m-0.036-2e-3c0.01 0 0.02 1e-3 0.03 2e-3 -0.01-1e-3 -0.02-2e-3 -0.03-2e-3m-0.014-1e-3c-2e-3 0-3e-3 -1e-3 -5e-3 -1e-3 -5e-3 0-0.01 0-0.015-1e-3 9e-3 1e-3 0.019 2e-3 0.028 2e-3h-8e-3m-0.039-3e-3c-2e-3 0-4e-3 0-5e-3 -1e-3 -4e-3 0-8e-3 0-0.012-1e-3 9e-3 1e-3 0.019 2e-3 0.028 3e-3 -4e-3 -1e-3 -7e-3 -1e-3 -0.011-1e-3m-0.039-3e-3c-2e-3 -1e-3 -3e-3 -1e-3 -5e-3 -1e-3 -3e-3 0-6e-3 0-9e-3 -1e-3l0.03 3e-3c-6e-3 -1e-3 -0.011-1e-3 -0.016-1e-3m-0.144-0.016c0.042 5e-3 0.084 0.01 0.126 0.014-0.042-4e-3 -0.084-9e-3 -0.126-0.014m-0.014-1e-3c-1e-3 0-1e-3 -1e-3 -2e-3 -1e-3 -5e-3 0-0.011-1e-3 -0.016-2e-3 9e-3 1e-3 0.017 3e-3 0.026 4e-3 -3e-3 -1e-3 -5e-3 -1e-3 -8e-3 -1e-3m-0.038-5e-3s-1e-3 -1e-3 -2e-3 -1e-3c-4e-3 0-7e-3 -1e-3 -0.01-1e-3 8e-3 1e-3 0.015 2e-3 0.023 3e-3 -3e-3 0-7e-3 -1e-3 -0.011-1e-3m-0.039-6e-3c-2e-3 0-5e-3 -1e-3 -7e-3 -1e-3 7e-3 1e-3 0.014 2e-3 0.021 3e-3 -5e-3 -1e-3 -9e-3 -1e-3 -0.014-2e-3m-0.04-6e-3c5e-3 1e-3 9e-3 1e-3 0.014 2e-3 -5e-3 -1e-3 -9e-3 -1e-3 -0.014-2e-3m-2.176-2.649v-0.043 0.043m0-0.043v-3.562 3.562m2.788-0.264c4e-3 0.043 0.014 0.082 0.029 0.117-0.015-0.035-0.025-0.074-0.029-0.117m-1e-3 -0.011v9e-3 -9e-3m-1e-3 -0.012v7e-3 -7e-3m-1e-3 -0.012v5e-3 -5e-3m0-0.02v0.013-0.013m0-1e-3v-2e-3 2e-3m0-0.029v8e-3 -8e-3m2e-3 -0.03c0 5e-3 -1e-3 0.011-1e-3 0.017 0-6e-3 1e-3 -0.012 1e-3 -0.017m0.025-0.129c-0.012 0.035-0.02 0.073-0.024 0.115v8e-3c3e-3 -0.045 0.011-0.086 0.024-0.123m5e-3 -0.016c-1e-3 4e-3 -3e-3 8e-3 -4e-3 0.012 1e-3 -4e-3 3e-3 -8e-3 4e-3 -0.012m7e-3 -0.017c-1e-3 2e-3 -1e-3 4e-3 -2e-3 6e-3 1e-3 -2e-3 1e-3 -4e-3 2e-3 -6e-3m0.642-0.252h-0.019c-6e-3 0-0.012 1e-3 -0.017 1e-3h-6e-3c-7e-3 0-0.013 1e-3 -0.02 1e-3h-1e-3c-0.178 8e-3 -0.313 0.034-0.407 0.076 0.104-0.048 0.26-0.073 0.47-0.078m0.024-1e-3h-0.01c-3e-3 0-7e-3 1e-3 -0.01 1e-3h-4e-3c8e-3 -1e-3 0.016-1e-3 0.024-1e-3m0.023 0h-0.021 0.021m0.031 0h-0.025 0.025m1.462 0c-0.573-0.604-1.031-1.287-1.324-2.022h-0.411c-0.134 0-0.247-0.011-0.338-0.035 0.07 0.018 0.154 0.029 0.25 0.033h0.021c2e-3 1e-3 4e-3 1e-3 6e-3 1e-3h1.825v2.023zm-2.335-2.229c0 1e-3 1e-3 1e-3 1e-3 2e-3 0-1e-3 -1e-3 -1e-3 -1e-3 -2e-3m-0.011-0.021c1e-3 3e-3 2e-3 5e-3 3e-3 7e-3 -1e-3 -2e-3 -2e-3 -4e-3 -3e-3 -7e-3m-0.011-0.022c3e-3 5e-3 5e-3 0.011 8e-3 0.016-3e-3 -5e-3 -5e-3 -0.011-8e-3 -0.016m-0.02-0.059c6e-3 0.019 0.012 0.038 0.019 0.056-7e-3 -0.018-0.013-0.037-0.019-0.056m-5e-3 -0.024c1e-3 7e-3 3e-3 0.014 4e-3 0.02-1e-3 -6e-3 -3e-3 -0.013-4e-3 -0.02m-3e-3 -0.016c0 4e-3 1e-3 7e-3 2e-3 0.011-1e-3 -4e-3 -2e-3 -7e-3 -2e-3 -0.011m-4e-3 -0.023c1e-3 3e-3 1e-3 6e-3 1e-3 9e-3 0-3e-3 0-6e-3 -1e-3 -9e-3m-2e-3 -0.021v7e-3 -7e-3m-2e-3 -0.025v6e-3 -6e-3m-2e-3 -0.025c1e-3 1e-3 1e-3 3e-3 1e-3 4e-3 0-1e-3 0-3e-3 -1e-3 -4e-3m0-0.024m-2.611-0.317c0-4e-3 0-9e-3 1e-3 -0.013-1e-3 4e-3 -1e-3 9e-3 -1e-3 0.013m2.754-0.049c-7e-3 4e-3 -0.013 8e-3 -0.019 0.013 6e-3 -5e-3 0.012-9e-3 0.019-0.013m-2.753 0.01v-0.013 0.013m2.764-0.017c-3e-3 1e-3 -6e-3 3e-3 -8e-3 5e-3 2e-3 -2e-3 5e-3 -4e-3 8e-3 -5e-3m0.625-0.097h0.017c-0.08-0.367-0.13-0.746-0.13-1.131 0-0.505 0.071-0.991 0.201-1.462h-0.394c-0.589 0-1.096 0.082-1.521 0.248 0.079-0.031 0.16-0.059 0.245-0.084 2e-3 -1e-3 5e-3 -1e-3 7e-3 -2e-3 0.011-3e-3 0.022-6e-3 0.033-0.01 4e-3 -1e-3 7e-3 -1e-3 0.01-2e-3 0.011-3e-3 0.022-6e-3 0.033-9e-3 3e-3 -1e-3 6e-3 -2e-3 9e-3 -3e-3l0.036-9e-3c2e-3 -1e-3 4e-3 -1e-3 6e-3 -2e-3 0.014-3e-3 0.028-7e-3 0.042-0.01 4e-3 -1e-3 7e-3 -2e-3 0.011-3e-3 0.01-2e-3 0.02-4e-3 0.03-7e-3 6e-3 -1e-3 0.012-2e-3 0.018-4e-3 8e-3 -2e-3 0.016-3e-3 0.024-5e-3 7e-3 -1e-3 0.013-3e-3 0.019-4e-3 8e-3 -2e-3 0.016-3e-3 0.024-5e-3 7e-3 -1e-3 0.013-3e-3 0.02-4e-3 8e-3 -2e-3 0.016-3e-3 0.024-5e-3 6e-3 -1e-3 0.013-2e-3 0.019-3e-3 9e-3 -2e-3 0.018-4e-3 0.028-5e-3 9e-3 -2e-3 0.018-4e-3 0.027-5e-3 0.01-2e-3 0.02-4e-3 0.03-5e-3 7e-3 -1e-3 0.013-2e-3 0.02-3e-3 8e-3 -2e-3 0.016-3e-3 0.024-4e-3 7e-3 -1e-3 0.015-2e-3 0.022-4e-3 8e-3 -1e-3 0.015-2e-3 0.023-3e-3s0.015-2e-3 0.022-3e-3c8e-3 -1e-3 0.015-2e-3 0.023-3e-3 7e-3 -1e-3 0.015-2e-3 0.023-3e-3s0.016-2e-3 0.025-3e-3c6e-3 -1e-3 0.013-2e-3 0.02-3e-3 0.015-1e-3 0.029-3e-3 0.044-5e-3 6e-3 0 0.012-1e-3 0.018-1e-3 9e-3 -1e-3 0.019-2e-3 0.028-3e-3 7e-3 -1e-3 0.015-2e-3 0.022-2e-3 8e-3 -1e-3 0.017-2e-3 0.025-3e-3 8e-3 0 0.015-1e-3 0.023-2e-3 8e-3 0 0.017-1e-3 0.026-2e-3 7e-3 0 0.014-1e-3 0.021-1e-3 9e-3 -1e-3 0.018-2e-3 0.027-2e-3 7e-3 -1e-3 0.015-1e-3 0.022-2e-3 0.01 0 0.021-1e-3 0.032-2e-3 5e-3 0 0.01 0 0.015-1e-3 0.016 0 0.032-1e-3 0.048-2e-3 5e-3 0 0.011 0 0.016-1e-3 0.012 0 0.023-1e-3 0.034-1e-3 6e-3 0 0.013-1e-3 0.019-1e-3 0.01 0 0.021 0 0.031-1e-3h0.02c0.01-1e-3 0.021-1e-3 0.032-1e-3h0.018c0.012-1e-3 0.024-1e-3 0.036-1e-3h2.191v2.595h-1.817c-0.307 0-0.512 0.029-0.616 0.09 0.104-0.061 0.309-0.091 0.615-0.091m-3.388 0.073v-0.011 0.011m3e-3 -0.089v-2e-3 2e-3m2e-3 -0.039v-4e-3 4e-3m3e-3 -0.042m0.023-0.238m0.574-1.353c0 1e-3 -1e-3 1e-3 -1e-3 2e-3 0-1e-3 1e-3 -1e-3 1e-3 -2e-3m0.025-0.028c-3e-3 3e-3 -6e-3 7e-3 -9e-3 0.01 3e-3 -3e-3 6e-3 -7e-3 9e-3 -0.01m0.024-0.026c-5e-3 6e-3 -0.01 0.011-0.015 0.017 5e-3 -6e-3 0.01-0.011 0.015-0.017m0.136-0.134c0.041-0.037 0.083-0.072 0.126-0.106 4e-3 -3e-3 7e-3 -6e-3 0.011-9e-3 3e-3 -2e-3 7e-3 -5e-3 0.01-8e-3 0.016-0.012 0.032-0.024 0.049-0.035-0.069 0.049-0.134 0.102-0.196 0.158-0.047 0.042-0.091 0.086-0.134 0.132 0.043-0.046 0.087-0.09 0.134-0.132" fill="url(#linearGradient3934)"/>
   <path d="m51.187 517.77 1e-3 3e-3 -0.833 2.833zm-0.024-6.774 0.668 1.622-0.668-1.62-1.299 3.171z" fill="url(#linearGradient3960)"/>
   <g clip-path="url(#clipPath3970)">
    <g transform="translate(84.517 520.61)">
     <path d="m0 0v-2.611h-2.063 2.063v2.611m-4.768-2.611h-2.07zm2.705-6.479h-2.705z" fill="#6d6f71"/>
    </g>
   </g>
   <path d="m77.679 520.61v-2.611h2.07v-6.479h2.705v6.479h2.063v2.611z" fill="url(#linearGradient3998)"/>
   <g clip-path="url(#clipPath4008)">
    <g transform="translate(55.122 520.61)">
     <path d="m0 0h-2e-3l-3.289-7.987 3.291 7.987m-7.894 0h-1e-3l1.475-3.602-1.474 3.602m4.663-0.659-0.704-2.174 1e-3 -3e-3z" fill="#6d6f71"/>
    </g>
   </g>
   <path d="m52.105 520.61-0.213-0.659-0.704-2.177v3e-3l-1e-3 -3e-3 -0.832 2.836h-3.127l1.475-3.602 2.46-6.006 0.668 1.62 3.289 7.988z" fill="url(#linearGradient4036)"/>
   <g clip-path="url(#clipPath4046)">
    <g transform="translate(56.675 520.48)">
     <path d="m0 0c-0.417-0.117-0.769-0.312-1.054-0.585-0.423-0.41-0.666-0.951-0.732-1.632 0.066 0.681 0.309 1.222 0.732 1.631 0.285 0.274 0.636 0.469 1.054 0.586m3.404-2.479h-1.724c-0.365 0-0.586-0.092-0.666-0.275 0.08 0.183 0.301 0.275 0.666 0.275h1.724m-2.326-0.764c0.019-0.022 0.042-0.041 0.067-0.057 8e-3 -5e-3 0.017-0.01 0.026-0.015-9e-3 5e-3 -0.017 9e-3 -0.025 0.015-0.026 0.016-0.048 0.035-0.068 0.057m0.051-2.219c-0.071-0.018-0.129-0.043-0.173-0.074-0.015-0.011-0.029-0.023-0.042-0.036 0.013 0.013 0.027 0.025 0.042 0.035 0.044 0.032 0.102 0.057 0.173 0.075m-0.322-0.432c0-0.172 0.041-0.289 0.124-0.353-0.082 0.064-0.124 0.181-0.124 0.353m-2.579-0.8c0-1e-3 0-1e-3 1e-3 -2e-3 -1e-3 1e-3 -1e-3 1e-3 -1e-3 2e-3m1e-3 -5e-3c0.06-0.453 0.202-0.84 0.426-1.162-0.224 0.322-0.366 0.709-0.426 1.162m0.954-1.7c0.172-0.124 0.363-0.227 0.576-0.31-0.213 0.083-0.404 0.186-0.576 0.31" fill="#6d6f71"/>
    </g>
   </g>
   <path d="m57.728 520.61c-0.389 0-0.739-0.044-1.053-0.132-0.418-0.118-0.769-0.313-1.054-0.586-0.422-0.409-0.666-0.951-0.732-1.631-0.012-0.127-0.018-0.258-0.018-0.394v-3.562c0-0.182 0.011-0.356 0.033-0.521v-5e-3c0.06-0.453 0.202-0.841 0.425-1.162 0.097-0.139 0.208-0.266 0.335-0.38 0.061-0.056 0.126-0.108 0.195-0.157 0.17-0.125 0.362-0.228 0.575-0.311 0.425-0.166 0.932-0.248 1.521-0.248h0.394c-0.13 0.471-0.201 0.957-0.201 1.462 0 0.385 0.05 0.764 0.13 1.131h-0.017c-0.316 0-0.524 0.032-0.625 0.097-0.011 6e-3 -0.021 0.012-0.03 0.02-0.083 0.064-0.124 0.181-0.124 0.353 0 0.143 0.036 0.25 0.107 0.322 0.013 0.013 0.027 0.025 0.042 0.036 0.045 0.031 0.102 0.056 0.173 0.074 0.091 0.024 0.204 0.035 0.338 0.035h0.411c0.293 0.735 0.751 1.418 1.324 2.022h-1.462c-0.265 0-0.454 0.029-0.568 0.09-0.01 4e-3 -0.018 0.01-0.027 0.015-0.026 0.015-0.047 0.034-0.067 0.057-0.065 0.072-0.097 0.176-0.097 0.312 0 0.067 0.011 0.125 0.033 0.176 0.079 0.184 0.301 0.276 0.666 0.276h1.724v2.611z" fill="url(#linearGradient4074)"/>
   <g clip-path="url(#clipPath4084)">
    <g transform="translate(63.531 520.61)">
     <path d="m0 0h-2.705v-2.699l1e-3 1e-3v2.698h2.704" fill="#6d6f71"/>
    </g>
   </g>
   <path d="m60.827 520.61v-2.698c0.777 0.594 1.692 1.073 2.704 1.418v1.28z" fill="url(#linearGradient4112)"/>
   <path d="m68.905 520.61-0.255-0.789c0.947-0.123 1.843-0.357 2.663-0.686l0.61 1.475z" fill="url(#linearGradient148767)"/>
   <g clip-path="url(#clipPath4148)">
    <g transform="translate(64.024 520.61)">
     <path d="m0 0 0.412-1.011c1e-3 0 1e-3 0 2e-3 1e-3l-0.414 1.01" fill="#6d6f71"/>
    </g>
   </g>
   <path d="m64.024 520.61 0.414-1.011c0.859 0.212 1.774 0.324 2.721 0.324l0.198-8e-3 -0.203 0.695z" fill="url(#linearGradient148767)"/>
   <g clip-path="url(#clipPath4186)">
    <path d="m76.877 514.11v-2.593z" fill="#6d6f71"/>
   </g>
   <path d="m76.036 514.11c0.082-0.378 0.136-0.765 0.136-1.163 0-0.491-0.068-0.968-0.193-1.43h0.898v2.593z" fill="url(#linearGradient148771)"/>
   <g clip-path="url(#clipPath4222)">
    <g transform="translate(76.877 520.61)">
     <path d="m0 0h-2.351 2.351v-2.611 2.611m-3.983-0.366c-0.176-0.098-0.336-0.215-0.478-0.352-0.048-0.046-0.093-0.095-0.137-0.145 0.044 0.05 0.09 0.098 0.138 0.145 0.142 0.137 0.301 0.254 0.477 0.352m1.683-2.395c-0.083-0.074-0.124-0.174-0.124-0.301 0-0.178 0.054-0.302 0.164-0.37 0.016-0.01 0.033-0.019 0.053-0.028-0.02 9e-3 -0.037 0.018-0.053 0.028-0.11 0.068-0.164 0.192-0.164 0.37 0 0.127 0.041 0.227 0.124 0.301m2.127-0.776v-2.022z" fill="#6d6f71"/>
    </g>
   </g>
   <path d="m74.526 520.61c-0.647 0-1.191-0.122-1.632-0.367-0.176-0.097-0.335-0.215-0.477-0.351-0.048-0.046-0.094-0.095-0.137-0.145-0.203-0.239-0.353-0.52-0.456-0.841 1.85-0.865 3.269-2.229 3.932-3.856h0.948v2.023h-1.492c-0.246 0-0.425 0.025-0.542 0.077-0.02 8e-3 -0.037 0.018-0.053 0.028-0.11 0.068-0.164 0.192-0.164 0.37 0 0.127 0.042 0.228 0.125 0.301 0.113 0.099 0.305 0.15 0.575 0.15h1.724v2.611z" fill="url(#linearGradient148771)"/>
   <g clip-path="url(#clipPath4260)">
    <g transform="translate(67.486 510.27)">
     <path d="m0 0 0.198-0.478 0.275 0.673 3e-3 2.873-0.015 0.143 0.034 0.063 0.055 4e-3 0.072 0.034 4e-3 2e-3 -0.011 0.043 0.063 0.05 0.137 0.061 0.058 0.014 0.062-0.083 0.045-0.06 0.052-0.057 0.102-0.093 0.116 0.038c0.06 0.069 0.083 0.12-0.018 0.245-0.146 0.198-0.257 0.465-0.349 0.713l-0.04 0.104c-0.04 0.107-0.082 0.218-0.126 0.317l-0.029 0.069 0.091 0.109-0.034 0.132c-0.055 0.218-0.109 0.428-0.325 0.491l-0.045 0.011-0.025 0.039c-0.117 0.178-0.068 0.344-0.034 0.467 0.037 0.134 0.054 0.2-0.023 0.289l-0.027 0.028-6e-3 0.039c-0.011 0.149-0.062 0.259-0.127 0.398l-0.029 0.067c-0.034 0.153-0.099 0.289-0.16 0.422-0.057 0.122-0.114 0.243-0.152 0.378-0.075 0.064-0.182 0.099-0.298 0.099l-0.239-0.055c-0.14-0.058-0.26-0.206-0.336-0.394 0.051-0.271 0.184-0.519 0.314-0.756 0.104-0.198 0.212-0.396 0.283-0.612 0.047-0.107 0.11-0.186 0.17-0.218l0.034 6e-3c0.162 0 0.213-0.158 0.235-0.215l0.036-0.081 0.117-0.046-0.047-0.115c-0.086-0.208 0.011-0.431 0.109-0.578l0.049-0.073-0.057-0.071c-0.112-0.139-0.103-0.38-0.079-0.554l0.015-0.074-0.062-0.045c-0.089-0.067-0.092-0.152-0.089-0.319l1e-3 -0.087c0.189-0.111 0.122-0.334 0.086-0.455l-0.029-0.175 0.013-0.027z" fill="#fff"/>
    </g>
   </g>
  </g>
 </g>
</svg>
