<svg width="800" height="130.76" version="1.1" viewBox="0 0 211.67 34.596" xmlns="http://www.w3.org/2000/svg">
 <g transform="translate(197.25 2.1989)">
  <g transform="matrix(5.9175 0 0 -5.9175 -15.561 13.441)">
   <path d="m0 0 0.088-0.135 0.115 0.024c0.047 0.103 0.215 0.257 0.336 0.332 0.16 0.099 0.678 0.654 0.715 0.736l-0.092 0.186c-0.113 0.056-0.244 0.128-0.295 0.197-0.056 0.029-0.285 0.086-0.377 0.086-0.056 0-0.203-0.174-0.273-0.455-0.072-0.27-0.196-0.817-0.217-0.971m0.496-1.662 0.014-0.022c0.054-0.074 0.164-0.183 0.328-0.306 0.088-0.069 0.183-0.141 0.281-0.203 0.16-0.11 0.322-0.207 0.443-0.284 0.129-0.082 0.19-0.117 0.215-0.144 0.078 0.152 0.225 0.344 0.393 0.42 0.232 0.097 0.672 0.31 0.756 0.369 0.037 0.078 0.17 0.148 0.289 0.148 0.129 0 0.387 0.051 0.426 0.086 0.021 0.055 0.132 0.266 0.242 0.266l0.103 0.016 0.012 0.033 0.16 0.172 0.213 0.213c-2e-3 0.025-0.1 0.156-0.285 0.273l-0.19 0.096-0.16 0.052-0.98 0.209c-0.287 0.063-0.768 0.192-0.768 0.348l-0.101 0.285-0.11 0.133-0.047-0.074c-0.107-0.106-0.312-0.33-0.33-0.369 2e-3 -0.045-0.06-0.176-0.17-0.176l-0.187-0.123c-2e-3 -4e-3 -0.209-0.389-0.34-0.389l-0.144-0.066c-0.018-0.043-0.159-0.28-0.297-0.28l-0.162-0.017c0.048-0.098 0.179-0.334 0.341-0.582zm-1.603-1.385c-0.114 0-0.16 0.221-0.165 0.309l-5e-3 0.056-4e-3 0.393 0.082 0.035h-0.082c-2e-3 0.266-4e-3 0.588-0.012 0.797l8e-3 0.189 4e-3 0.063c0.021 0.178 0.158 1.057 0.261 1.123 0.038 0.029 0.19 0.248 0.229 0.41 0.193 0.75 0.248 0.75 0.303 0.75l6e-3 0.039 0.066 0.283-0.066 0.178-0.049 0.031-0.19-0.025-0.095-0.147-0.032-0.093c0-0.424-0.082-0.424-0.127-0.424-0.119 0-0.167 0.244-0.167 0.369 0 0.094 0.076 0.658 0.281 0.709 0.125 0.033 0.396 0.147 0.437 0.193 0.016 0.053 0.092 0.063 0.244 0.063 0.323 0 0.975-0.066 1.26-0.139 0.4-0.103 0.738-0.461 0.764-0.717l4e-3 -0.037 0.06 0.047 0.219 0.199 0.164 0.166 0.107 0.018c0.03 0.076 0.122 0.172 0.223 0.207 0.092 0.031 0.27 0.109 0.309 0.139 0.072 0.117 0.416 0.197 0.543 0.213 0.074 5e-3 0.181 0.013 0.302 0.013 0.512 0 0.799-0.064 0.842-0.185 0.041-0.104 0.014-0.274-0.066-0.395-0.076-0.109-0.19-0.174-0.315-0.174-0.289 0-0.845-0.047-0.951-0.086-0.035-0.064-0.139-0.261-0.244-0.261l-0.145-0.063c-0.025-0.062-0.156-0.289-0.267-0.33l-0.152-0.07c0.095-0.065 0.242-0.16 0.345-0.207 0.612-0.264 0.92-0.438 0.92-0.512l0.096-0.035c0.301 0 0.395-0.047 0.424-0.09 0.062-0.045 0.349-0.17 0.472-0.199 0.098-0.024 0.18-0.072 0.239-0.139l0.093-0.228c0-0.094-0.035-0.532-0.101-0.637l-0.092-0.102-0.242-0.148-0.151-0.08-0.041-0.047c-2e-3 -4e-3 -0.206-0.387-0.336-0.387l-0.105-0.019-0.16-0.158-0.105-0.016c-0.026-0.074-0.108-0.152-0.206-0.152l-0.191-0.03c-0.035-0.074-0.129-0.168-0.225-0.199l-0.304-0.135c-0.039-0.08-0.172-0.156-0.295-0.156-0.114 0-0.319-0.019-0.381-0.035-0.01-0.01-0.039-0.041-0.156-0.041-0.157 0-0.247 0.064-0.247 0.158v2e-3c-0.085-0.051-0.218-0.084-0.316-0.084-0.162 0-0.588 0.178-0.873 0.4-0.1 0.081-0.176 0.161-0.236 0.239-0.073 0.101-0.188 0.189-0.332 0.267l-0.145 0.067c-0.228 0.086-0.457 0.09-0.49 0.019-0.025-0.054-0.057-0.144-0.092-0.248l-0.017-0.051-0.038-0.121-0.119-0.386c-0.099-0.346-0.107-0.356-0.177-0.356" fill="#8c2b99"/>
  </g>
  <g transform="matrix(5.9175 0 0 -5.9175 -105.4 5.2235)">
   <path d="m0 0c-0.123 0-0.283-0.172-0.326-0.449-0.039-0.246-0.098-0.699-0.125-0.947l0.178 0.062 0.283 0.029c0.035 0.078 0.123 0.168 0.222 0.198 0.069 0.021 0.319 0.242 0.342 0.392 0.02 0.151-0.4 0.69-0.549 0.715zm-1.697-4.592c-0.102 0-0.164 0.186-0.164 0.315 0 0.131 0.14 0.839 0.326 1.31 0 6e-3 0.142 0.383 0.07 0.678l-0.029 0.123c-0.231 0.379-0.207 0.416-0.19 0.453l0.022 0.041h0.057l7e-3 0.035c0 0.182 0.03 0.285 0.092 0.305l0.084 0.174c4e-3 6e-3 0.111 0.504 0.215 0.568 0.033 0.026 0.164 0.213 0.184 0.344 0.021 0.148 0.019 0.394-4e-3 0.48l-0.151-0.021-0.092-0.143-0.035-0.095c0-4e-3 -6e-3 -0.428-0.168-0.428-0.099 0-0.257 0.141-0.257 0.314 0 0.161 0.269 0.713 0.585 0.967 0.264 0.205 0.756 0.223 0.901 0.223 0.168 0 0.269-4e-3 0.269-0.098l0.02-0.035c2e-3 0 0.24-8e-3 0.24-0.137l0.141-0.037c0.09 0 0.517-0.033 0.621-0.099 0.105-0.071 0.197-0.319 0.228-0.522 0.03-0.166 0.043-1.076-0.035-1.191-0.045-0.069-0.23-0.246-0.33-0.246l-0.189-0.127c-6e-3 -8e-3 -0.213-0.391-0.338-0.391l-0.149-0.064c-0.031-0.081-0.209-0.295-0.361-0.334-0.1-0.028-0.281-0.09-0.367-0.129 0.058-0.096 0.236-0.385 0.457-0.684 0.18-0.236 0.785-0.596 1.105-0.789 0.274-0.162 0.278-0.164 0.278-0.221 0-0.115-0.235-0.195-0.391-0.195-0.066 0-0.695 0.053-0.779 0.217-0.051 0.099-0.18 0.285-0.217 0.308-0.068-9e-3 -0.27 0.118-0.354 0.262-0.083 0.148-0.308 0.451-0.363 0.486l-0.17 0.055c-0.049-0.137-0.174-0.393-0.275-0.558-0.094-0.159-0.225-0.534-0.309-0.782-0.115-0.332-0.115-0.332-0.185-0.332" fill="#8c2b99"/>
  </g>
  <g transform="matrix(5.9175 0 0 -5.9175 -62.381 5.3158)">
   <path d="m0 0-0.037-0.102c0-9e-3 -0.211-0.537-0.33-0.537l-8e-3 -0.027c0-0.068-0.053-0.324-0.158-0.408-0.063-0.055-0.412-0.533-0.604-0.905-0.154-0.308-0.32-1.279-0.347-1.578 0.121 0.045 0.357 0.137 0.558 0.25 0.223 0.129 0.723 1.547 0.84 2.114l0.106 0.433c0.041 0.346 0.011 0.625-0.02 0.76m-1.736-4.201-0.135 0.09-0.012 0.052c-0.121 0.106-0.162 0.567-0.162 0.571l-0.025 1.154 0.08 0.143c0.148 0.279 0.18 0.335 0.22 0.345l0.034 0.094c0 0.072 0.051 0.424 0.16 0.523 0.058 0.051 0.285 0.358 0.328 0.53 2e-3 8e-3 0.197 0.734 0.303 0.797l0.138 0.166c0 0.138 0.018 0.306 0.122 0.306l0.06 0.065c0.023 0.066 0.156 0.289 0.262 0.334l0.222 0.127 0.121 0.173c0.042 6e-3 0.086-0.017 0.229-0.089l0.178-0.09c0.103-8e-3 0.178-0.156 0.203-0.297 0.021-0.131 0.092-0.387 0.113-0.426l-6e-3 -6e-3c0.104-0.136 0.119-0.646 0.125-0.883 0-0.49-0.345-1.439-0.576-1.845l-0.338-0.754c-0.347-0.356-0.582-0.627-0.605-0.678-0.035-0.09-0.262-0.299-0.457-0.334-0.127-0.021-0.448-0.068-0.582-0.068" fill="#8c2b99"/>
  </g>
  <g transform="matrix(5.9175 0 0 -5.9175 -185.39 29.182)">
   <path d="m0 0c-0.119 0-0.193 0.027-0.236 0.074l-0.262 0.549c-0.055 0.223-0.1 0.4-0.133 0.521l-0.127-9e-3 -0.293-0.35c0-0.062-0.064-0.299-0.183-0.363l-0.059-0.047-0.117-0.113c-0.098-0.098-0.125-0.127-0.164-0.137-0.055 0-0.094 0.027-0.211 0.123l-0.086 0.068-0.127 0.166-6e-3 0.047c-4e-3 0.344 0.037 0.43 0.076 0.453 0.018 0.028 0.049 0.108 0.049 0.213 0 0.469 0.031 0.604 0.072 0.645 0.037 0.072 0.135 0.379 0.198 0.752 2e-3 0.015 0.281 1.654 0.41 1.732l0.113 0.02c0.143 0 0.451-0.057 0.492-0.237l-0.072-0.83-0.039-0.033-0.029-0.09c0-0.427-0.082-0.427-0.129-0.427l-0.051-0.112-0.143-0.74 0.606 0.693c0.072 0.11 0.217 0.121 0.299 0.121 0.103 0 0.224-0.019 0.224-0.111 0-0.029 0.014-0.217 0.028-0.351 0.015-0.133-0.028-0.651 2e-3 -0.749l0.039-0.283 0.011-0.033 0.217 0.096 0.137 0.285c0 0.139 0.023 0.309 0.127 0.309l8e-3 0.037c0 0.029 0.025 0.291 0.125 0.351l0.142 0.17c0 0.084 0.11 0.373 0.242 0.51 0.127 0.139 0.399 0.465 0.422 0.531-4e-3 0.195 0.039 0.301 0.121 0.301l8e-3 0.033c0 0.207 0.043 0.311 0.127 0.311l2e-3 0.035c0 0.138 0.025 0.308 0.131 0.308l2e-3 0.034c0 0.084 0.088 0.32 0.219 0.369l0.256 0.293c0.119 0.15 0.136 0.168 0.183 0.168 0.104 0 0.172-0.186 0.172-0.311 0-0.076-0.045-0.533-0.164-0.637l-0.234-0.295-0.125-0.343-0.141-0.221c0-2e-3 -0.018-0.398-0.125-0.469-0.041-0.023-0.168-0.189-0.186-0.293-2e-3 -4e-3 -0.111-0.506-0.213-0.57-0.037-0.029-0.166-0.211-0.183-0.346-0.014-0.09-0.139-0.646-0.25-0.742-0.061-0.049-0.291-0.41-0.34-0.642-0.023-0.108-0.133-0.204-0.328-0.29l-0.074-0.031c-0.186-0.07-0.276-0.113-0.43-0.113" fill="#8c2b99"/>
  </g>
  <g transform="matrix(5.9175 0 0 -5.9175 -135.9 29.541)">
   <path d="m0 0c-0.111 0-0.137 0.074-0.145 0.096-0.027 0.117-0.035 0.806 0.028 1.289l0.084 2.055c0.021 0.064 0.349 0.878 0.512 0.947l0.22 0.134c0.02 0.073 0.11 0.163 0.211 0.163l0.237 0.07c0.04 0.103 0.437 0.301 0.769 0.33 0.283 0.029 0.904 0.072 1.147 0.072 0.087 0 0.179 0 0.179-0.094l0.01-0.039 0.123-0.109c0-0.057-0.025-0.068-0.143-0.146l-0.127-0.088c-0.039-0.09-0.205-0.159-0.339-0.159-0.129 0-0.379-0.021-0.467-0.037-0.029-0.068-0.108-0.136-0.199-0.136l-0.19-0.026-0.164-0.146-0.103-0.022c-0.028-0.07-0.11-0.15-0.206-0.15l-0.199-0.031c-0.051-0.096-0.23-0.246-0.357-0.317-0.102-0.06-0.303-0.472-0.385-0.648-0.057-0.115-0.084-0.168-0.107-0.193l-0.063-0.27 0.1-2e-3c0.109 0 0.254 0.023 0.406 0.066 0.268 0.073 1.135 0.293 1.256 0.293h0.084l0.012-0.08-0.059-0.183-0.062-0.053c-0.118-0.104-0.374-0.328-0.592-0.469l-0.199-0.125c-0.266-0.16-0.975-0.59-0.989-0.736l0.088-0.268c0.084-0.088 0.188-0.088 0.309 0l1.197 0.389c0.535 0.488 0.588 0.488 0.619 0.488h0.08l2e-3 -0.084c0-0.082-0.301-0.562-0.496-0.838l-0.033-0.031-1.402-0.617c-0.204-0.139-0.493-0.295-0.647-0.295" fill="#8c2b99"/>
  </g>
  <g transform="matrix(5.9175 0 0 -5.9175 -89.23 29.761)">
   <path d="m0 0c-0.359 0-0.723 0.125-0.908 0.303-0.274 0.262-0.301 2.012-0.186 2.283 0.096 0.234 0.61 0.906 0.735 0.906l0.148 0.069c2e-3 2e-3 0.125 0.275 0.254 0.275l0.191 0.133c2e-3 2e-3 0.207 0.388 0.338 0.388l0.1 0.02 0.127 0.188 0.072 0.109c0.158 0.217 0.303 0.406 0.438 0.432 0.13 0.021 0.451 0.068 0.584 0.068l0.125-0.061 0.302-0.185c0.135-0.039 0.227-0.199 0.205-0.358-0.013-0.109-0.158-0.375-0.324-0.375l-0.119 0.051c-0.039 0.047-0.174 0.084-0.305 0.084l-0.037-4e-3 -0.199-0.131-0.188-0.027-0.164-0.148-0.144-0.065s-0.123-0.277-0.252-0.277c-0.035-0.01-0.205-0.121-0.285-0.25l-0.465-0.658-0.141-0.166c4e-3 -0.075-0.084-0.34-0.201-0.458-0.09-0.087-0.33-0.472-0.33-0.634 0-0.172 6e-3 -0.508 6e-3 -0.625l0.016-8e-3c0.089-0.055 0.316-0.182 0.482-0.203 0.205-0.028 0.68-0.074 0.822-0.065 0.065 0.084 0.229 0.157 0.344 0.184 0.135 0.017 0.451 0.062 0.584 0.062 0.107 0 0.131-0.05 0.131-0.089 0-0.098 0-0.182-0.08-0.184l-0.033-0.031c-0.139-0.082-0.465-0.278-0.76-0.375l-0.606-0.153c-0.088-0.019-0.181-0.025-0.277-0.025" fill="#8c2b99"/>
  </g>
  <g transform="matrix(5.9175 0 0 -5.9175 -165.61 18.26)">
   <path d="m0 0c0.168 0 0.301-0.074 0.4-0.129l0.127-0.053c0.026 0 0.09 0.059 0.196 0.471 0.062 0.238 0.109 0.34 0.152 0.377 0.021 0.061 0.08 0.365 0.094 0.758 6e-3 0.119 0.011 0.256 0.015 0.383 0.01 0.156 0.016 0.312 0.02 0.437l-0.014 6e-3c-0.201-0.344-0.566-1.041-0.724-1.391l-0.028-0.052c-0.121-0.274-0.324-0.721-0.295-0.811l0.057 4e-3m2.461-2.215c-0.158 0-0.17 0.477-0.17 0.483 0 0.234 0.074 1.22 0.168 1.718l0.156 0.94c0.037 0.449-0.217 0.875-0.562 0.918l-0.561 0.207c0.012-0.574 0.031-1.256 0.045-1.358 0.016-0.093 0.088-0.568 0.031-0.638l-0.027-0.026h-0.037l-0.018-6e-3 -2e-3 -0.027c-0.021-0.139-0.078-0.508-0.091-0.799-0.028-0.703-0.055-1.134-0.284-1.134-0.099 0-0.226 0.07-0.474 0.617-0.074 0.156-0.59 0.293-1.131 0.293-0.416 0-0.582-0.082-0.598-0.121-0.068-0.198-0.285-0.456-0.443-0.622l-0.051-0.046c-0.111-0.112-0.146-0.12-0.174-0.12h-0.084l-2e-3 0.086 4e-3 0.106 6e-3 0.057c0.016 0.132 0.033 0.234 0.051 0.289 0.031 0.117 0.275 0.568 0.363 0.65l0.238 0.289c0 0.131 0.024 0.303 0.125 0.303l6e-3 0.031c0 0.143 0.024 0.316 0.125 0.316l0.057 0.106 0.207 0.453c0.037 0.025 0.168 0.193 0.187 0.295 0.02 0.096 0.143 0.533 0.249 0.621 0.062 0.051 0.291 0.377 0.337 0.564 0.043 0.157 0.225 0.418 0.35 0.592l0.086 0.129c-6e-3 0.113 0.584 0.281 0.588 0.285h0.041l0.158-0.066c0.102-0.106 0.162-0.317 0.156-0.568l2e-3 -0.198 0.164-0.011h2e-3c0.262 0 0.791 0.181 0.91 0.236l0.161 0.148 0.119 0.022c0.117 0.148 0.75 0.24 0.756 0.24l1.238 0.16c0.246 0.033 0.474 0.055 0.609 0.055 0.071 0 0.19 0 0.19-0.098 0-0.058-0.057-0.199-0.17-0.199-0.041-0.01-0.365-0.172-0.633-0.394-0.289-0.237-0.527-0.323-0.539-0.327-0.404-0.078-0.678-0.259-0.695-0.357-0.077-0.516-0.131-0.619-0.176-0.641l-0.041-0.15c0-0.139-0.102-0.869-0.233-1.358l-0.31-1.023c-0.272-0.922-0.315-0.922-0.379-0.922" fill="#8c2b99"/>
  </g>
  <g transform="matrix(5.9175 0 0 -5.9175 -30.031 4.9347)">
   <path d="m0 0-0.037-0.104c0-7e-3 -0.209-0.535-0.336-0.535l-4e-3 -0.031c0-0.066-0.057-0.318-0.16-0.406-0.061-0.053-0.41-0.528-0.602-0.904-0.146-0.288-0.15-1.102-0.123-1.42 0.049 0.052 0.125 0.121 0.256 0.191 0.233 0.135 0.813 1.514 0.92 2.012l0.102 0.433c0.043 0.348 0.015 0.627-0.016 0.764m-1.33-4.314c-0.166 0-0.514 0.218-0.635 0.515l-0.033 0.094-0.014 0.062c-8e-3 0.063-0.013 0.153-0.015 0.256-0.151-0.121-0.383-0.301-0.592-0.429-0.322-0.192-1.285-0.379-1.578-0.379l-0.137 0.037c-0.086 0.098-0.393 0.599-0.34 1.047 8e-3 0.06 0.27 1.377 0.432 1.377l6e-3 0.033c0 0.129 0.019 0.281 0.095 0.303l0.035 0.095c0 0.348 0.055 0.414 0.102 0.426l0.078 0.168c0.076 0.377 0.129 0.484 0.168 0.514 0.02 0.029 0.049 0.117 0.049 0.218 0 0.125 0.031 0.664 0.078 0.782 0.039 0.111 0.133 0.222 0.227 0.222h0.043l0.035-0.043c0.074-0.099 0.031-0.531-0.094-0.922l-0.457-2.966c-0.084-0.217-0.094-0.387-0.033-0.475 0.049-0.076 0.152-0.09 0.291-0.051l1.041 0.164c0.215 0.106 0.42 0.196 0.545 0.241 0 0.207 0.01 0.812 0.068 0.916l0.41 0.589c0.033 0.026 0.164 0.211 0.186 0.346 4e-3 0.01 0.109 0.625 0.217 0.694 0.031 0.021 0.164 0.185 0.183 0.287 0.074 0.4 0.131 0.496 0.174 0.519 0.059 0.063 0.32 0.397 0.408 0.545 0.114 0.186 0.332 0.305 0.49 0.268 0.465-0.125 0.469-0.137 0.487-0.18l0.013-0.039 0.016-0.035c0.063-0.149 0.207-0.496 0.274-0.795 0.091-0.418-0.192-1.457-0.377-1.889l-1.018-1.812c-0.256-0.346-0.629-0.703-0.828-0.703" fill="#8c2b99"/>
  </g>
 </g>
</svg>
