<svg width="800" height="297.41" version="1.1" viewBox="0 0 211.67 78.689" xmlns="http://www.w3.org/2000/svg">
 <defs>
  <linearGradient id="linearGradient3476" x2="1" gradientTransform="matrix(0 -15.382 -15.382 0 52.169 649.04)" gradientUnits="userSpaceOnUse">
   <stop stop-color="#dfb330" offset="0"/>
   <stop stop-color="#dfb330" offset=".067416"/>
   <stop stop-color="#e8be66" offset="1"/>
  </linearGradient>
  <linearGradient id="linearGradient3498" x2="1" gradientTransform="matrix(0 -15.382 -15.382 0 80.775 649.04)" gradientUnits="userSpaceOnUse">
   <stop stop-color="#dfb330" offset="0"/>
   <stop stop-color="#dfb330" offset=".067416"/>
   <stop stop-color="#e8be66" offset="1"/>
  </linearGradient>
  <clipPath id="clipPath3508">
   <path d="m0 0h612v792h-612z"/>
  </clipPath>
  <linearGradient id="linearGradient3540" x2="1" gradientTransform="matrix(0 -6.6888 -6.6888 0 67.01 642.35)" gradientUnits="userSpaceOnUse">
   <stop stop-color="#dfb330" offset="0"/>
   <stop stop-color="#dfb330" offset=".067416"/>
   <stop stop-color="#e8be66" offset="1"/>
  </linearGradient>
  <linearGradient id="linearGradient3562" x2="1" gradientTransform="matrix(0 2.6106 2.6106 0 47.853 646.82)" gradientUnits="userSpaceOnUse">
   <stop stop-color="#dfb330" offset="0"/>
   <stop stop-color="#dfb330" offset=".067416"/>
   <stop stop-color="#e8be66" offset="1"/>
  </linearGradient>
 </defs>
 <g transform="translate(-49.804 45.243)">
  <g transform="matrix(5.4209 0 0 -5.4209 -201.45 3478.7)">
   <g transform="translate(47.482 650.01)">
    <path d="m0 0v-1e-3c-0.371-0.107-0.673-0.325-0.87-0.635-0.175-0.28-0.263-0.619-0.263-1.012v-0.027c0.02-0.457 0.218-0.843 0.569-1.113l0.013-0.011-6e-3 -0.07c0-0.185 0.078-0.362 0.218-0.486l0.47-0.423c0.136-0.121 0.31-0.182 0.493-0.169 0.181 0.018 0.347 0.106 0.461 0.247 0.244 0.305 0.429 0.602 0.551 0.886 0.128 0.291 0.203 0.607 0.229 0.938l0.012 0.254c0 0.241-0.028 0.467-0.089 0.671-0.105 0.37-0.346 0.656-0.689 0.834-0.336 0.182-0.718 0.223-1.099 0.117" fill="#231f20"/>
   </g>
   <path d="m78.431 640.27h-9.911v3.918h9.911z" fill="#231f20"/>
   <g transform="translate(78.584 648.99)">
    <path d="m0 0 5.925 0.104-1.51-2.189-0.411-7.398s-1.675-2.299-2.225-2.197c-0.545 0.104-1.813 0.345-2.294 0.753-0.48 0.412-1.199 1.199-1.199 1.541 0 0.344 0.55 4.625 0.55 4.625z" fill="#231f20"/>
   </g>
   <g transform="translate(50.023 648.66)">
    <path d="m0 0 6.088 0.136-0.034-2.468-0.571-7.429s-3.152-2.019-3.7-1.919c-0.55 0.105-1.817 0.342-2.294 0.755-0.482 0.411-1.202 1.2-1.202 1.542 0 0.341 0.549 4.624 0.549 4.624z" fill="#231f20"/>
   </g>
   <g transform="translate(50.487 642.53)">
    <path d="m0 0c0.383 0.516 0.674 0.602 1.19 0.602 0.996 0 1.075-1.627 1.075-2.126 0-2.259-0.643-2.449-1.24-2.449-0.334 0-0.59 0.197-0.709 0.33l4e-3 4e-3c0.489 0.368 0.798 1.011 0.798 1.672 0 0.771-0.436 1.544-1.377 1.762 0.102 0.044 0.192 0.115 0.259 0.205m-1.393 7.345c-0.346 0-0.635-0.27-0.657-0.616l-0.405-6.294c-0.011-0.182 0.051-0.359 0.18-0.492 0.119-0.133 0.295-0.207 0.477-0.207h0.206c-0.717-0.25-1.349-0.949-1.349-2.613 0-2.458 1.777-3.924 4.755-3.924 2.234 0 4.49 1.65 4.49 5.337 0 3.115-1.558 4.974-4.168 4.974-0.596 0-1.148-0.096-1.674-0.271 0.024 0.39 0.031 0.499 0.048 0.792h4.448c0.349 0 0.636 0.271 0.66 0.618l0.118 1.997 2e-3 0.043c0 0.164-0.064 0.326-0.178 0.448-0.124 0.132-0.299 0.208-0.479 0.208z" fill="#231f20"/>
   </g>
   <g transform="translate(79.092 642.38)">
    <path d="m0 0c0.382 0.516 0.675 0.601 1.188 0.601 1.001 0 1.077-1.627 1.077-2.126 0-2.258-0.642-2.449-1.241-2.449-0.334 0-0.592 0.197-0.711 0.328l5e-3 9e-3c0.492 0.367 0.799 1.009 0.799 1.67 0 0.772-0.433 1.543-1.378 1.76 0.101 0.047 0.194 0.114 0.261 0.207m-1.395 7.343c-0.346 0-0.635-0.269-0.655-0.614l-0.406-6.298c-7e-3 -0.179 0.053-0.357 0.18-0.488 0.122-0.134 0.299-0.209 0.479-0.209h0.205c-0.719-0.25-1.348-0.946-1.348-2.61 0-2.46 1.776-3.927 4.752-3.927 2.236 0 4.491 1.651 4.491 5.34 0 1.609-0.398 2.867-1.189 3.741-0.734 0.805-1.761 1.233-2.979 1.233-0.595 0-1.147-0.097-1.675-0.275 0.027 0.394 0.03 0.5 0.053 0.794h4.443c0.352 0 0.641 0.272 0.658 0.618l0.122 1.998v0.041c0 0.166-0.063 0.326-0.177 0.448-0.124 0.134-0.295 0.208-0.48 0.208z" fill="#231f20"/>
   </g>
   <g transform="translate(69.131 645.35)">
    <path d="m0 0c-0.396-0.461-0.616-1.063-0.616-1.698v3e-3l-6e-3 -1.537c-6e-3 -0.726 0.236-1.375 0.683-1.826 0.42-0.421 1.006-0.654 1.647-0.654 0.606 0 1.177 0.234 1.595 0.658 0.469 0.471 0.736 1.156 0.73 1.88v1.476c-0.013 1.413-1.012 2.477-2.325 2.477-0.667 0-1.272-0.278-1.708-0.779" fill="#231f20"/>
   </g>
   <g transform="translate(75.082 646.07)">
    <path d="m0 0c-0.103 0-0.193-0.029-0.283-0.068-0.085 0.039-0.176 0.068-0.272 0.068h-1.804c-0.363 0-0.657-0.294-0.657-0.66v-0.457c0-0.309 0.217-0.567 0.515-0.635v-2.885c-0.298-0.066-0.515-0.326-0.515-0.636v-0.458c0-0.363 0.294-0.657 0.657-0.657h1.474c0.198 0 0.368 0.091 0.489 0.229 0.124-0.139 0.299-0.229 0.494-0.229h0.931c0.363 0 0.659 0.294 0.659 0.657v3.93l2e-3 0.049c0.295 0.067 0.514 0.326 0.514 0.635v0.457c0 0.366-0.294 0.66-0.657 0.66z" fill="#231f20"/>
   </g>
   <g transform="translate(66.434 639.16)">
    <path d="m0 0-0.041 0.074c0.194-0.079 0.391-0.159 0.391-0.159l0.353-0.237-3e-3 -0.018c-0.455 6e-3 -0.654 0.259-0.7 0.34m0.491 2.852c0.132 0 0.388-0.154 0.461-0.246l0.043-0.073-0.059 0.016c-0.349 0.101-0.471 0.16-0.516 0.189v0.032l0.019 0.077 0.052 5e-3m-2.367-0.319c0-0.656 0.164-1.178 0.496-1.587-0.317-0.054-0.554-0.31-0.554-0.637v-1.911c0-0.364 0.29-0.657 0.658-0.657h0.443c0.19 0 0.375 0.097 0.5 0.244l0.042-0.02c0.25-0.126 0.652-0.278 1.122-0.278 1.288 0 2.255 1.005 2.255 2.34 0 0.785-0.246 1.318-0.615 1.699 0.234 0.104 0.393 0.332 0.393 0.603v1.671c0 0.362-0.292 0.656-0.657 0.656h-0.437c-0.121 0-0.234-0.047-0.338-0.108l-0.086 0.026-0.028 9e-3c-0.209 0.065-0.562 0.136-0.934 0.136-1.288 0-2.26-0.943-2.26-2.186" fill="#231f20"/>
   </g>
   <g transform="translate(54.737 642.6)">
    <path d="m0 0c0-3.888 3.16-7.049 7.048-7.049 3.887 0 7.048 3.161 7.048 7.049 0 3.886-3.161 7.047-7.048 7.047-3.888 0-7.048-3.161-7.048-7.047" fill="#231f20"/>
   </g>
   <g transform="translate(68.175 642.6)">
    <path d="m0 0c0-3.53-2.86-6.393-6.389-6.393s-6.394 2.863-6.394 6.393c0 3.527 2.865 6.39 6.394 6.39s6.389-2.863 6.389-6.39" fill="#231f20"/>
   </g>
   <g transform="translate(68.175 642.6)">
    <path d="m0 0c0-3.53-2.86-6.393-6.389-6.393s-6.394 2.863-6.394 6.393c0 3.527 2.865 6.39 6.394 6.39s6.389-2.863 6.389-6.39z" fill="none" stroke="#dfb330" stroke-width=".125"/>
   </g>
   <g transform="translate(65.143 647.48)">
    <path d="m0 0s0.62-0.368 0.896-0.786l-2.144-1.936-0.345 0.324z" fill="#fff"/>
   </g>
   <g transform="translate(64.371 642.6)">
    <path d="m0 0c0-1.431-1.16-2.588-2.585-2.588-1.43 0-2.59 1.157-2.59 2.588 0 1.428 1.16 2.586 2.59 2.586 1.425 0 2.585-1.158 2.585-2.586" fill="#fff"/>
   </g>
   <g transform="translate(61.476 642.59)">
    <path d="m0 0c0 0.178 0.134 0.315 0.308 0.315 0.173 0 0.313-0.137 0.313-0.315 0-0.17-0.14-0.31-0.313-0.31-0.174 0-0.308 0.14-0.308 0.31" fill="#231f20"/>
   </g>
   <path d="m49.094 649.22-0.405-6.297h1.272c0.524 0.708 1.027 0.869 1.716 0.869 1.47 0 1.732-1.796 1.732-2.784 0-1.513-0.244-3.108-1.897-3.108-0.847 0-1.41 0.707-1.41 0.93s0.123 0.441 0.302 0.585c0.323 0.239 0.545 0.686 0.545 1.15 0 0.626-0.385 1.17-1.272 1.17-1.068 0-1.47-0.747-1.47-2.081 0-2.559 2.18-3.268 4.094-3.268 1.954 0 3.831 1.477 3.831 4.682 0 3.047-1.553 4.318-3.509 4.318-0.824 0-1.615-0.181-2.398-0.666l0.162 2.5h5.058l0.123 2z" fill="url(#linearGradient3476)"/>
   <path d="m77.697 649.07-0.402-6.293h1.269c0.526 0.703 1.029 0.866 1.717 0.866 1.473 0 1.734-1.797 1.734-2.786 0-1.512-0.243-3.107-1.899-3.107-0.846 0-1.41 0.707-1.41 0.928 0 0.222 0.121 0.446 0.301 0.585 0.324 0.243 0.546 0.688 0.546 1.152 0 0.624-0.384 1.168-1.271 1.168-1.071 0-1.472-0.748-1.472-2.077 0-2.563 2.178-3.27 4.095-3.27 1.954 0 3.835 1.474 3.835 4.683 0 3.046-1.556 4.317-3.512 4.317-0.827 0-1.615-0.184-2.401-0.666l0.161 2.501h5.06l0.124 1.999z" fill="url(#linearGradient3498)"/>
   <g clip-path="url(#clipPath3508)">
    <g transform="translate(70.267 641.91)">
     <path d="m0 0c0-0.586 0.089-1.102 0.572-1.102 0.476 0 0.572 0.556 0.572 1.102v2.144c0 0.449-0.096 0.893-0.572 0.893-0.483 0-0.572-0.444-0.572-0.893zm2.24 0.257c8e-3 -1.013-0.654-1.876-1.668-1.876-1.006 0-1.681 0.725-1.678 1.821l0.01 1.537c0 0.95 0.662 1.82 1.668 1.82 1.002 0 1.658-0.813 1.668-1.82z" fill="#d7d9d2"/>
    </g>
    <g transform="translate(73.754 641.48)">
     <path d="m0 0c0-0.372 0.064-0.598 0.267-0.644l0.175-0.043v-0.458h-1.473v0.458l0.258 0.043c0.193 0.037 0.257 0.272 0.257 0.644v2.785c0 0.378-0.097 0.611-0.257 0.642l-0.258 0.042v0.457h1.804l1.062-2.888h9e-3v1.747c0 0.378-0.095 0.611-0.259 0.642l-0.257 0.042v0.457h1.547v-0.457l-0.249-0.042c-0.173-0.031-0.269-0.264-0.269-0.642v-3.93h-0.932l-1.409 3.93h-0.016z" fill="#d7d9d2"/>
    </g>
    <g transform="translate(67.802 643.47)">
     <path d="m0 0 0.855 0.013-0.121-2.457-0.853-1.858-1.813-1.915-1.585-0.027 3.289 6.579z" fill="#231f20"/>
    </g>
   </g>
   <path d="m65.219 641.69c0-0.889 0.318-1.389 1.119-1.725l0.695-0.286c0.291-0.123 0.763-0.336 0.763-0.843 0-0.356-0.275-0.676-0.65-0.676-0.604 0-1.045 0.294-1.267 0.649-0.146 0.222-0.235 0.419-0.277 0.657h-0.444v-1.91h0.444c0.081 0.16 0.175 0.336 0.319 0.336 0.142 0 0.3-0.078 0.505-0.176 0.196-0.097 0.5-0.214 0.839-0.214 0.906 0 1.597 0.676 1.597 1.684 0 1.063-0.512 1.545-1.68 1.891-0.675 0.196-0.995 0.354-0.986 0.862 0 0.346 0.23 0.729 0.73 0.729 0.381 0 0.819-0.293 0.976-0.498 0.136-0.169 0.24-0.418 0.302-0.684h0.437v1.672h-0.437c-0.062-0.063-0.132-0.134-0.239-0.134-0.134 0-0.267 0.044-0.406 0.089-0.171 0.053-0.464 0.104-0.74 0.104-0.878 0-1.6-0.585-1.6-1.527" fill="url(#linearGradient3540)"/>
   <path d="m47.662 649.37c-0.218-0.062-0.385-0.181-0.498-0.359-0.109-0.165-0.158-0.387-0.158-0.654 0.012-0.26 0.114-0.467 0.312-0.616 0.199-0.152 0.422-0.172 0.672-0.057-0.032-0.249-0.168-0.432-0.406-0.548l0.469-0.421c0.209 0.262 0.362 0.504 0.459 0.737 0.101 0.227 0.162 0.47 0.181 0.733 0.02 0.258 2e-3 0.488-0.052 0.686-0.061 0.196-0.181 0.346-0.368 0.437-0.119 0.066-0.241 0.098-0.369 0.098z" fill="url(#linearGradient3562)"/>
  </g>
 </g>
</svg>
