<svg width="800" height="298.04" version="1.1" viewBox="0 0 211.67 78.857" xmlns="http://www.w3.org/2000/svg">
 <g transform="translate(-49.804 45.411)">
  <g transform="matrix(5.6214 0 0 -5.6214 -214.65 3488.4)">
   <g transform="translate(62.618 619.04)">
    <path d="m0 0c0.361-0.341 0.706-0.69 1.036-1.06-0.355-0.26-0.721-0.454-1.102-0.601 0.023 0.586 0.036 0.904 0.066 1.661m-2.593-0.662c-0.019-0.6-0.03-0.824-0.043-1.197-0.317 0.062-0.605 0.16-0.88 0.278 0.301 0.276 0.61 0.588 0.923 0.919m2.869 7.668c0.758-0.142 1.381-0.447 1.922-0.944 0.807-0.737 1.24-1.874 1.19-3.124v-2e-3c-0.028-0.74-0.205-1.384-0.56-2.009-0.966 1.12-1.91 1.934-2.691 2.55 0.015 0.356 0.106 2.64 0.139 3.529m-4.521-1.592c0.617 0.648 1.269 1.109 1.945 1.372-0.019-0.556-0.126-3.277-0.14-3.663-0.831-0.98-1.85-2.13-2.886-3.016-0.305 0.611-0.454 1.333-0.423 2.091v1e-3c0.043 1.209 0.48 2.143 1.504 3.215m-1.77 1.945c-1.355-1.362-2.154-2.548-2.229-4.557v-5e-3c-0.067-1.633 0.406-3.894 1.925-5.333 1.229-1.144 2.762-1.741 4.834-1.89 1.834-0.133 3.559 0.613 5.131 2.209 1.355 1.367 2.162 2.552 2.238 4.559 0.08 2.094-0.652 4.143-1.919 5.346-1.222 1.136-2.761 1.736-4.859 1.884-1.83 0.132-3.553-0.611-5.121-2.213" fill="#231f20"/>
   </g>
   <g transform="translate(70.265 618.71)">
    <path d="m0 0c0-1.482-0.967-2.68-2.161-2.68-1.189 0-2.155 1.198-2.155 2.68 0 1.479 0.966 2.68 2.155 2.68 1.194 0 2.161-1.201 2.161-2.68" fill="#231f20"/>
   </g>
   <g transform="translate(73.148 623.68)">
    <path d="m0 0c0-1.12-0.526-2.033-1.169-2.033-0.646 0-1.172 0.913-1.172 2.033 0 1.123 0.526 2.032 1.172 2.032 0.643 0 1.169-0.909 1.169-2.032" fill="#231f20"/>
   </g>
   <g transform="translate(68.637 617.3)">
    <path d="m0 0c-0.096 0.107-0.138 0.219-0.138 0.366 0 0.24-0.133 0.439-0.321 0.555 0.373-0.152 0.77-0.315 0.807-0.328 0.311-0.151 0.311-0.295 0.311-0.393 0-0.115-0.035-0.176-0.089-0.225-0.082-0.071-0.166-0.102-0.293-0.102-0.117 0-0.195 0.036-0.277 0.127m0.377 2.851c-0.3 0.129-0.3 0.235-0.3 0.273l0.058 0.126 0.109 0.048c0.126 0 0.182-0.036 0.218-0.068 0.022-0.018 0.046-0.038 0.046-0.136 0-0.129 0.047-0.24 0.112-0.34l-0.243 0.097m-1.724 1.871c-0.459-0.447-0.703-1.03-0.703-1.684 0-0.822 0.357-1.473 1.03-1.878l0.083-0.045s0.187-0.075 0.284-0.113l-0.147 0.028h-0.81c-0.365 0-0.664-0.295-0.664-0.664 0-0.684 0.236-1.287 0.699-1.795 0.469-0.52 1.084-0.794 1.772-0.794 0.736 0 1.358 0.248 1.849 0.732 0.494 0.491 0.741 1.113 0.741 1.852 0 0.833-0.348 1.493-1.009 1.906l-0.102 0.052s-0.186 0.074-0.276 0.115h0.579c0.368 0 0.661 0.295 0.661 0.66 0 0.617-0.235 1.177-0.688 1.623-0.447 0.441-1.008 0.673-1.616 0.673-0.655 0-1.222-0.223-1.683-0.668" fill="#231f20"/>
   </g>
   <g transform="translate(50.246 617.85)">
    <path d="m0 0h-3e-3c-0.45 0.519-0.667 1.11-0.667 1.809 0 0.668 0.217 1.228 0.67 1.714 0.436 0.466 0.963 0.697 1.611 0.697 0.649 0 1.179-0.238 1.63-0.728 0.466-0.507 0.694-1.091 0.694-1.781 0-0.663-0.228-1.23-0.696-1.726-0.457-0.48-0.987-0.718-1.628-0.718-0.657 0-1.186 0.24-1.611 0.733m1.929 10.657c-0.213 0-0.418-0.104-0.546-0.282l-2.676-3.839-0.016-0.024c-1.274-2.015-1.892-3.582-1.892-4.792 0-1.311 0.47-2.474 1.392-3.457 0.927-0.987 2.076-1.492 3.404-1.492 1.342 0 2.499 0.501 3.445 1.481 0.94 0.974 1.419 2.148 1.419 3.492 0 1.26-0.428 2.398-1.266 3.379-0.89 1.041-1.979 1.575-3.235 1.588 0.857 1.284 1.945 2.916 1.945 2.916 0.077 0.11 0.113 0.24 0.113 0.367 0 0.109-0.026 0.214-0.077 0.314-0.116 0.216-0.342 0.349-0.585 0.349z" fill="#231f20"/>
   </g>
   <g transform="translate(65.148 616.78)">
    <path d="m0 0-2.15-1.28-0.954 0.1-0.566 0.341-0.079 1.373-0.133 2.123 0.263 0.89 0.519 0.18 1.976-1.408 1.171-1.76z" fill="#231f20"/>
   </g>
   <g transform="translate(57.35 618.14)">
    <path d="m0 0 3.574 2.767 0.559-1.159-0.193-2.038 0.02-1.605-0.156-0.263-1.581 0.302-1.974 1.311z" fill="#231f20"/>
   </g>
   <g transform="translate(61.81 627.67)">
    <path d="m0 0-0.281-6.588 4.248-3.557 1.971 4.061-0.878 3.334-1.711 1.911-1.781 0.759z" fill="#231f20"/>
   </g>
   <g transform="translate(57.028 618.01)">
    <path d="m0 0-1.385 3.358 1.762 4.147 2.533 1.621 1.14 0.203 0.179-4.512-0.109-1.672-3.467-3.056z" fill="#231f20"/>
   </g>
   <g transform="translate(62.08 622.21)">
    <path d="m0 0c0.061 1.561 0.121 3.089 0.181 4.587 1.152-0.069 2.152-0.422 3.006-1.199 0.998-0.911 1.46-2.25 1.402-3.641-0.045-1.196-0.435-2.154-1.167-3.088-1.129 1.441-2.274 2.457-3.422 3.341m-0.07-1.752c0.874-0.7 1.738-1.519 2.594-2.554-0.811-0.75-1.73-1.238-2.748-1.399 0.05 1.339 0.105 2.659 0.154 3.953m-1.246-0.282c-0.051-1.266-0.1-2.513-0.147-3.737-0.995 0.062-1.88 0.343-2.655 0.911 0.927 0.759 1.862 1.735 2.802 2.826m-2.87 4.742c0.913 0.957 1.955 1.605 3.128 1.803-0.066-1.632-0.13-3.236-0.19-4.808-1.241-1.479-2.481-2.827-3.7-3.747-0.666 0.861-0.972 1.966-0.925 3.103 0.053 1.429 0.611 2.521 1.687 3.649m-1.138-7.928c1.232-1.146 2.711-1.587 4.425-1.711 1.757-0.125 3.299 0.678 4.613 2.016 1.306 1.316 1.978 2.35 2.047 4.118 0.065 1.725-0.49 3.677-1.715 4.837-1.223 1.142-2.713 1.582-4.447 1.707-1.756 0.126-3.293-0.682-4.602-2.02-1.306-1.311-1.971-2.346-2.04-4.118-0.069-1.707 0.492-3.662 1.719-4.829" fill="#bfdf14"/>
   </g>
   <g transform="translate(48.231 627.57)">
    <path d="m0 0c-0.284-0.239-0.442-0.575-0.442-0.946 0-0.267 0.082-0.727 0.581-1.06-0.026-0.064-0.141-0.281-0.622-0.673-0.159-0.132-0.243-0.324-0.243-0.514 0-0.133 0.042-0.268 0.124-0.385l0.259-0.365c0.101-0.145 0.26-0.242 0.437-0.269 0.175-0.027 0.353 0.015 0.496 0.123 0.697 0.514 1.151 0.987 1.386 1.435 0.238 0.456 0.36 0.963 0.36 1.515 0 0.381-0.138 0.734-0.397 1.014-0.347 0.378-0.729 0.457-0.987 0.457-0.366 0-0.692-0.113-0.952-0.332" fill="#231f20"/>
   </g>
   <g transform="translate(49.621 625.23)">
    <path d="m0 0c0.187 0.357 0.28 0.76 0.28 1.206 0 0.215-0.072 0.406-0.222 0.566-0.143 0.16-0.314 0.241-0.496 0.241-0.211 0-0.384-0.055-0.522-0.173-0.14-0.117-0.21-0.263-0.21-0.441 0-0.259 0.147-0.458 0.439-0.594 0.104-0.151 0.151-0.298 0.151-0.443 0-0.334-0.292-0.737-0.875-1.21l0.26-0.365c0.61 0.452 1.007 0.853 1.195 1.213" fill="#bfdf14"/>
   </g>
   <g transform="translate(71.774 623.66)">
    <path d="m0 0c0 0.411 0.033 0.684 0.068 0.875 0.039-0.191 0.069-0.464 0.069-0.875s-0.03-0.688-0.069-0.879c-0.035 0.191-0.068 0.468-0.068 0.879m-1.937 0c0-2.546 1.092-3.081 2.005-3.081 0.917 0 2.006 0.535 2.006 3.081 0 2.54-1.089 3.073-2.006 3.073-0.913 0-2.005-0.533-2.005-3.073" fill="#231f20"/>
   </g>
   <g transform="translate(74.285 626.6)">
    <path d="m0 0c-0.083 0.037-0.172 0.061-0.27 0.061h-0.591c-0.369 0-0.664-0.296-0.664-0.665v-4.679c0-0.368 0.295-0.663 0.664-0.663h0.591c0.284 0 0.521 0.178 0.615 0.425 0.1-0.247 0.334-0.425 0.616-0.425h0.595c0.366 0 0.663 0.295 0.663 0.663v3.349c0 0.382-0.025 0.828-0.2 1.213-0.245 0.552-0.732 0.855-1.367 0.855-0.226 0-0.446-0.051-0.652-0.134" fill="#231f20"/>
   </g>
   <g transform="translate(78.24 617.85)">
    <path d="m0 0c-0.452 0.519-0.671 1.11-0.671 1.809 0 0.668 0.219 1.228 0.671 1.714 0.438 0.466 0.966 0.697 1.614 0.697 0.644 0 1.178-0.238 1.628-0.728 0.467-0.507 0.69-1.091 0.69-1.781 0-0.663-0.223-1.23-0.692-1.726-0.455-0.48-0.987-0.718-1.626-0.718-0.66 0-1.186 0.24-1.614 0.733m1.93 10.657c-0.22 0-0.418-0.103-0.543-0.282l-2.678-3.839-0.021-0.024c-1.271-2.015-1.89-3.582-1.89-4.792 0-1.311 0.471-2.474 1.39-3.457 0.931-0.987 2.078-1.492 3.41-1.492 1.338 0 2.497 0.501 3.445 1.481 0.94 0.974 1.416 2.151 1.416 3.492 0 1.26-0.426 2.398-1.266 3.381-0.888 1.039-1.977 1.573-3.235 1.586 0.857 1.284 1.945 2.916 1.945 2.916 0.074 0.111 0.114 0.24 0.114 0.367 0 0.109-0.027 0.217-0.08 0.315-0.116 0.215-0.34 0.348-0.585 0.348z" fill="#231f20"/>
   </g>
   <g transform="translate(81.962 617.38)">
    <path d="m0 0c-0.583-0.621-1.286-0.928-2.108-0.928-0.854 0-1.561 0.322-2.116 0.963-0.556 0.638-0.831 1.388-0.831 2.243 0 0.838 0.281 1.557 0.847 2.166 0.566 0.607 1.266 0.909 2.1 0.909s1.537-0.313 2.115-0.942c0.578-0.633 0.869-1.372 0.869-2.23 0-0.837-0.293-1.563-0.876-2.181m0.964 5.163c-0.77 0.901-1.694 1.356-2.774 1.356-0.562 0-1.047-0.127-1.453-0.387l2.892 4.332h-1.421c-0.891-1.28-1.785-2.558-2.677-3.835-1.192-1.888-1.79-3.367-1.79-4.439 0-1.147 0.405-2.145 1.21-3.002 0.806-0.853 1.779-1.281 2.925-1.281 1.155 0 2.145 0.426 2.966 1.276 0.823 0.85 1.232 1.86 1.232 3.03 0 1.105-0.368 2.087-1.11 2.95" fill="#bfdf14"/>
   </g>
   <g transform="translate(53.967 617.38)">
    <path d="m0 0c-0.582-0.621-1.288-0.928-2.11-0.928-0.853 0-1.559 0.322-2.113 0.963-0.558 0.638-0.832 1.388-0.832 2.243 0 0.838 0.281 1.557 0.848 2.166 0.563 0.607 1.263 0.909 2.097 0.909 0.837 0 1.54-0.313 2.117-0.942 0.581-0.633 0.868-1.372 0.868-2.231 0-0.836-0.293-1.562-0.875-2.18m0.965 5.162c-0.768 0.902-1.695 1.355-2.773 1.355-0.565 0-1.05-0.125-1.453-0.385l2.894 4.332h-1.425c-0.892-1.28-1.785-2.558-2.68-3.838-1.191-1.886-1.787-3.364-1.787-4.436 0-1.147 0.404-2.148 1.209-3.002 0.803-0.853 1.782-1.281 2.924-1.281 1.158 0 2.148 0.426 2.966 1.276 0.821 0.847 1.234 1.859 1.234 3.03 0 1.105-0.37 2.087-1.109 2.949" fill="#bfdf14"/>
   </g>
   <g transform="translate(70.063 619.01)">
    <path d="m0 0c-0.435 0.175-0.871 0.353-1.306 0.533-0.471 0.205-0.706 0.501-0.706 0.886 0 0.224 0.08 0.421 0.245 0.59 0.163 0.162 0.357 0.247 0.584 0.247 0.264 0 0.48-0.076 0.661-0.233 0.178-0.156 0.264-0.366 0.264-0.633h0.81c0 0.441-0.164 0.829-0.492 1.149-0.323 0.324-0.712 0.487-1.15 0.487-0.482 0-0.887-0.163-1.226-0.487-0.329-0.32-0.497-0.724-0.497-1.206 0-0.589 0.237-1.025 0.704-1.306 0.44-0.184 0.872-0.361 1.308-0.537 0.465-0.219 0.697-0.548 0.697-0.994 0-0.29-0.103-0.527-0.306-0.713-0.206-0.186-0.449-0.281-0.74-0.281-0.307 0-0.562 0.117-0.769 0.349-0.206 0.229-0.308 0.501-0.308 0.811h-0.81c0-0.518 0.173-0.967 0.526-1.347 0.347-0.387 0.773-0.575 1.281-0.575 0.559 0 1.017 0.18 1.384 0.538 0.359 0.359 0.541 0.819 0.541 1.379 0 0.607-0.23 1.053-0.695 1.343" fill="#bfdf14"/>
   </g>
   <g transform="translate(71.115 623.66)">
    <path d="m0 0c0-0.455 0.017-1.862 0.727-1.862 0.713 0 0.732 1.407 0.732 1.862 0 0.45-0.019 1.854-0.732 1.854-0.71 0-0.727-1.404-0.727-1.854m2.069 0c0-0.884-0.107-2.416-1.342-2.416-1.232 0-1.341 1.532-1.341 2.416 0 0.877 0.109 2.408 1.341 2.408 1.235 0 1.342-1.531 1.342-2.408" fill="#fff"/>
   </g>
   <g transform="translate(74.015 625.62)">
    <path d="m0 0c0.238 0.272 0.558 0.445 0.922 0.445 0.829 0 0.904-0.766 0.904-1.403v-3.349h-0.595v3.284c0 0.557-0.032 0.985-0.529 0.985-0.675 0-0.702-0.739-0.702-1.232v-3.037h-0.591v4.679h0.591z" fill="#fff"/>
   </g>
  </g>
 </g>
</svg>
