<svg width="800" height="278.19" version="1.1" viewBox="0 0 211.67 73.604" xmlns="http://www.w3.org/2000/svg">
 <defs>
  <radialGradient id="radialGradient2534" cx="0" cy="0" r="1" gradientTransform="matrix(13.192 0 0 -13.172 65.466 562.65)" gradientUnits="userSpaceOnUse">
   <stop stop-color="#f8eec1" offset="0"/>
   <stop stop-color="#49b5db" offset=".95799"/>
   <stop stop-color="#49b5db" offset=".98901"/>
   <stop stop-color="#49b5db" offset=".9988"/>
   <stop stop-color="#49b5db" offset="1"/>
  </radialGradient>
  <radialGradient id="radialGradient2560" cx="0" cy="0" r="1" gradientTransform="matrix(3.0863 0 0 -2.8354 63.59 563.33)" gradientUnits="userSpaceOnUse">
   <stop stop-color="#f8eec1" offset="0"/>
   <stop stop-color="#b3e5e4" offset=".95799"/>
   <stop stop-color="#b3e5e4" offset=".98901"/>
   <stop stop-color="#b3e5e4" offset=".9988"/>
   <stop stop-color="#b3e5e4" offset="1"/>
  </radialGradient>
  <radialGradient id="radialGradient2586" cx="0" cy="0" r="1" gradientTransform="matrix(2.8336 0 0 -2.695 62.666 563.18)" gradientUnits="userSpaceOnUse">
   <stop stop-color="#f8eec1" offset="0"/>
   <stop stop-color="#b3e5e4" offset=".95799"/>
   <stop stop-color="#b3e5e4" offset=".98901"/>
   <stop stop-color="#b3e5e4" offset=".9988"/>
   <stop stop-color="#b3e5e4" offset="1"/>
  </radialGradient>
  <radialGradient id="radialGradient2612" cx="0" cy="0" r="1" gradientTransform="matrix(-5.4892 3.2664 3.3177 5.0433 63.151 557.91)" gradientUnits="userSpaceOnUse">
   <stop stop-color="#f8eec1" offset="0"/>
   <stop stop-color="#b3e5e4" offset=".95799"/>
   <stop stop-color="#b3e5e4" offset=".98901"/>
   <stop stop-color="#b3e5e4" offset=".9988"/>
   <stop stop-color="#b3e5e4" offset="1"/>
  </radialGradient>
  <radialGradient id="radialGradient2638" cx="0" cy="0" r="1" gradientTransform="matrix(-5.394 3.2098 3.3749 5.1307 63.147 558.05)" gradientUnits="userSpaceOnUse">
   <stop stop-color="#f8eec1" offset="0"/>
   <stop stop-color="#b3e5e4" offset=".95799"/>
   <stop stop-color="#b3e5e4" offset=".98901"/>
   <stop stop-color="#b3e5e4" offset=".9988"/>
   <stop stop-color="#b3e5e4" offset="1"/>
  </radialGradient>
  <radialGradient id="radialGradient2664" cx="0" cy="0" r="1" gradientTransform="matrix(-1.8926 -3.3077 -3.478 1.8001 66.303 558.83)" gradientUnits="userSpaceOnUse">
   <stop stop-color="#f8eec1" offset="0"/>
   <stop stop-color="#b3e5e4" offset=".95799"/>
   <stop stop-color="#b3e5e4" offset=".98901"/>
   <stop stop-color="#b3e5e4" offset=".9988"/>
   <stop stop-color="#b3e5e4" offset="1"/>
  </radialGradient>
  <radialGradient id="radialGradient2690" cx="0" cy="0" r="1" gradientTransform="matrix(4.9786 0 0 -5.3416 62.773 559.75)" gradientUnits="userSpaceOnUse">
   <stop stop-color="#3fba6a" offset="0"/>
   <stop stop-color="#b3e5e4" offset=".95799"/>
   <stop stop-color="#b3e5e4" offset=".98901"/>
   <stop stop-color="#b3e5e4" offset=".9988"/>
   <stop stop-color="#b3e5e4" offset="1"/>
  </radialGradient>
  <linearGradient id="linearGradient2710" x2="1" gradientTransform="matrix(-5.5534 -3.4761 -3.4761 5.5534 62.228 558.98)" gradientUnits="userSpaceOnUse">
   <stop stop-color="#fff" offset="0"/>
   <stop stop-color="#231f20" offset="1"/>
  </linearGradient>
  <radialGradient id="radialGradient2736" cx="0" cy="0" r="1" gradientTransform="matrix(2.0667 0 0 -2.1133 62.461 559.13)" gradientUnits="userSpaceOnUse">
   <stop stop-color="#f8eec1" offset="0"/>
   <stop stop-color="#bebca1" offset=".95799"/>
   <stop stop-color="#bebca1" offset=".98901"/>
   <stop stop-color="#bebca1" offset=".9988"/>
   <stop stop-color="#bebca1" offset="1"/>
  </radialGradient>
  <clipPath id="clipPath2746">
   <path d="m0 0h612v792h-612z"/>
  </clipPath>
  <radialGradient id="radialGradient2778" cx="0" cy="0" r="1" gradientTransform="matrix(18.488 0 0 -18.488 67.886 558.69)" gradientUnits="userSpaceOnUse">
   <stop stop-color="#f8eec1" offset="0"/>
   <stop stop-color="#49b5db" offset=".95799"/>
   <stop stop-color="#49b5db" offset=".98901"/>
   <stop stop-color="#49b5db" offset=".9988"/>
   <stop stop-color="#49b5db" offset="1"/>
  </radialGradient>
  <radialGradient id="radialGradient2800" cx="0" cy="0" r="1" gradientTransform="matrix(4.9786 0 0 -5.3416 62.773 559.75)" gradientUnits="userSpaceOnUse">
   <stop stop-color="#66bf8c" offset="0"/>
   <stop stop-color="#bfe4e9" offset=".98901"/>
   <stop stop-color="#bfe4e9" offset="1"/>
  </radialGradient>
  <linearGradient id="linearGradient2820" x2="1" gradientTransform="matrix(-5.5534 -3.4761 -3.4761 5.5534 62.228 558.98)" gradientUnits="userSpaceOnUse">
   <stop stop-color="#fff" offset="0"/>
   <stop stop-color="#58595b" offset="1"/>
  </linearGradient>
  <clipPath id="clipPath2830">
   <path d="m61.087 558.05h1.766v1.306h-1.766z"/>
  </clipPath>
 </defs>
 <g transform="translate(-49.804 40.158)">
  <g transform="matrix(5.3699 0 0 -5.3699 -198.09 2994.8)">
   <g transform="translate(47.343 565.11)">
    <path d="m0 0c-0.163-0.08-0.284-0.227-0.329-0.406l-0.832-3.333c-0.073-0.29 0.075-0.591 0.348-0.712l0.883-0.39c0.278-0.124 0.605-0.025 0.769 0.232l1.825 2.865c0.098 0.151 0.124 0.332 0.072 0.505-0.051 0.171-0.172 0.311-0.336 0.386l-1.879 0.858c-0.165 0.078-0.355 0.073-0.521-5e-3" fill="#231f20"/>
   </g>
   <g transform="translate(56.834 562.64)">
    <path d="m0 0c-1.049-0.867-1.625-2.149-1.625-3.612 0-3.469 3.096-6.529 6.629-6.552 1.491-8e-3 2.802 0.556 3.693 1.589 0.898 1.043 1.28 2.487 1.054 3.961-0.415 2.663-2.768 5.067-5.476 5.59-1.589 0.308-3.148-0.048-4.275-0.976" fill="#231f20"/>
   </g>
   <path d="m67.014 554.33h-1.39v1.325h1.39z" fill="#231f20"/>
   <path d="m71.541 556.91h-1.019v1.864h1.019z" fill="#231f20"/>
   <g transform="translate(50.291 563.83)">
    <path d="m0 0c-0.798-0.37-1.453-0.881-1.94-1.533-0.496-0.657-0.782-1.395-0.853-2.187v0.025l-0.029-0.227-6e-3 -0.082c0-0.89 0.297-1.657 0.881-2.285 0.545-0.588 1.219-1.02 2.008-1.295 0.335-0.12 0.676-0.207 1.019-0.274l-0.186-0.15c-0.492-0.385-0.898-0.651-1.222-0.805-0.157-0.074-0.278-0.215-0.327-0.384l-0.022-0.17c0-0.116 0.031-0.231 0.095-0.33l1.506-2.378c0.178-0.274 0.533-0.367 0.818-0.208 0.629 0.346 1.266 0.808 1.896 1.376l0.01 0.01 0.597 0.565 0.024 0.026 0.626 0.669 0.026 0.032 0.55 0.671 0.015 0.02c0.555 0.747 1.021 1.553 1.386 2.403 0.385 0.881 0.578 1.799 0.578 2.736 0 0.642-0.123 1.249-0.371 1.804-0.121 0.262-0.266 0.514-0.438 0.749-0.177 0.245-0.376 0.462-0.6 0.646-0.236 0.204-0.475 0.374-0.704 0.5-0.226 0.125-0.496 0.234-0.819 0.337-0.252 0.095-0.538 0.17-0.852 0.216-0.309 0.044-0.689 0.066-1.17 0.066-0.867 0-1.708-0.184-2.496-0.543" fill="#231f20"/>
   </g>
   <g transform="translate(53.859 560.05)">
    <path d="m0 0c0 0.506-0.102 0.898-0.299 1.171-0.198 0.274-0.455 0.412-0.769 0.412-0.365 0-0.681-0.122-0.942-0.366-0.264-0.263-0.396-0.67-0.396-1.217 0-0.479 0.162-0.893 0.487-1.25 0.314-0.375 0.805-0.566 1.476-0.566l0.061 0.033c0.253 0.434 0.382 1.031 0.382 1.783m-2.122-7.966-1.508 2.377c0.365 0.17 0.804 0.46 1.325 0.867 0.486 0.365 0.857 0.741 1.11 1.127-0.708 0-1.415 0.122-2.109 0.366-0.697 0.243-1.282 0.623-1.76 1.134-0.477 0.514-0.714 1.139-0.714 1.868l0.029 0.23c0.06 0.681 0.305 1.305 0.731 1.872 0.425 0.568 0.995 1.017 1.705 1.344 0.71 0.323 1.459 0.486 2.241 0.486 0.445 0 0.807-0.02 1.082-0.061 0.273-0.04 0.517-0.102 0.73-0.182 0.294-0.093 0.538-0.191 0.731-0.298 0.192-0.106 0.396-0.251 0.609-0.435 0.184-0.154 0.349-0.329 0.495-0.531 0.147-0.204 0.273-0.418 0.376-0.641 0.212-0.476 0.317-0.997 0.317-1.554 0-0.853-0.174-1.684-0.522-2.492-0.353-0.81-0.792-1.567-1.319-2.279l-0.55-0.668-0.623-0.674-0.595-0.563c-0.601-0.538-1.194-0.968-1.781-1.293" fill="#bfdf14"/>
   </g>
   <path d="m55.992 559.01c2e-3 -1.59 0.766-3.089 1.932-4.16l1.993 2.304c-0.368 0.429-0.608 0.977-0.637 1.553-0.048 0.919 0.464 1.602 1.206 1.793l-1.203 2.425c-1.881-0.307-3.299-1.768-3.291-3.915m5.223 1.52c0.076-0.012 0.152-0.028 0.226-0.049l-0.167 2.352c-0.09 0.022-0.179 0.041-0.27 0.059h-2e-3zm0.417-0.11c0.872-0.327 1.575-1.205 1.682-2.162 0.126-1.106-0.57-1.984-1.619-1.984-0.044 0-0.089 2e-3 -0.135 5e-3 -0.195 0.013-0.387 0.054-0.571 0.121l-0.3-3.02c0.372-0.083 0.754-0.129 1.14-0.133h0.052c2.711 0 4.368 2.177 3.983 4.695-0.325 2.117-2.039 4.057-4.144 4.761zm-3.259-5.945c0.091-0.07 0.185-0.137 0.28-0.202l1.601 2.549c-0.067 0.055-0.132 0.114-0.194 0.176z" fill="url(#radialGradient2534)"/>
   <path d="m59.283 562.92 1.203-2.425c0.119 0.031 0.243 0.049 0.372 0.053h0.118l0.228-0.021c4e-3 0 7e-3 -1e-3 0.011-2e-3l-0.148 1.647-0.065 0.715c-0.328 0.063-0.651 0.094-0.965 0.094-0.258 0-0.51-0.021-0.754-0.061" fill="url(#radialGradient2560)"/>
   <path d="m61.296 562.52 0.145-2.037c0.064-0.017 0.128-0.037 0.191-0.061l0.088 2.284c-0.148 0.049-0.296 0.092-0.446 0.129z" fill="url(#radialGradient2586)"/>
   <path d="m58.653 554.27c0.617-0.418 1.309-0.728 2.036-0.893l0.217 2.18 0.083 0.84c-0.264 0.094-0.513 0.239-0.735 0.422z" fill="url(#radialGradient2612)"/>
   <path d="m59.025 556.12-1.101-1.273c0.144-0.132 0.293-0.257 0.449-0.375l0.793 1.186 0.893 1.338c-0.049 0.05-0.097 0.101-0.142 0.155z" fill="url(#radialGradient2638)"/>
   <path d="m63.148 557.26 2.547-1.833 0.132 0.397-2.554 1.567c-0.103-0.011-0.021-0.119-0.125-0.131" fill="url(#radialGradient2664)"/>
   <path d="m60.858 560.55c-0.047-2e-3 -0.094-5e-3 -0.139-0.01-2e-3 0-4e-3 -1e-3 -6e-3 -1e-3h-3e-3c-0.205-0.025-0.397-0.084-0.57-0.175 0 0-1e-3 -1e-3 -2e-3 -1e-3 -0.011-6e-3 -0.023-0.012-0.034-0.019-6e-3 -3e-3 -0.011-6e-3 -0.017-9e-3 -2e-3 -2e-3 -4e-3 -3e-3 -7e-3 -4e-3l-0.024-0.015c-4e-3 -2e-3 -7e-3 -4e-3 -0.011-6e-3l-0.018-0.012c-4e-3 -3e-3 -9e-3 -6e-3 -0.014-9e-3 -4e-3 -2e-3 -7e-3 -5e-3 -0.011-7e-3 -7e-3 -5e-3 -0.014-9e-3 -0.021-0.014-2e-3 -2e-3 -5e-3 -4e-3 -8e-3 -6e-3 -7e-3 -5e-3 -0.015-0.01-0.022-0.016-2e-3 -1e-3 -3e-3 -2e-3 -4e-3 -3e-3 -8e-3 -5e-3 -0.016-0.011-0.023-0.017-1e-3 -1e-3 -2e-3 -1e-3 -3e-3 -2e-3 -8e-3 -7e-3 -0.017-0.013-0.025-0.02-1e-3 0-2e-3 -1e-3 -3e-3 -2e-3 -8e-3 -7e-3 -0.017-0.013-0.025-0.02v-1e-3c-0.372-0.311-0.599-0.798-0.591-1.39v-3e-3c1e-3 -0.014 1e-3 -0.027 1e-3 -0.04 0-1e-3 1e-3 -3e-3 1e-3 -4e-3 0-0.014 1e-3 -0.027 1e-3 -0.04 1e-3 -0.01 1e-3 -0.019 2e-3 -0.029v-7e-3c1e-3 -7e-3 1e-3 -0.014 2e-3 -0.021v-8e-3c1e-3 -7e-3 1e-3 -0.013 2e-3 -0.02 0-3e-3 1e-3 -6e-3 1e-3 -0.01 1e-3 -6e-3 1e-3 -0.012 2e-3 -0.018 0-3e-3 0-6e-3 1e-3 -9e-3 0-6e-3 1e-3 -0.013 2e-3 -0.02 0-3e-3 0-5e-3 1e-3 -8e-3 0-7e-3 1e-3 -0.014 2e-3 -0.021 0-2e-3 1e-3 -4e-3 1e-3 -6e-3 1e-3 -7e-3 2e-3 -0.015 3e-3 -0.023v-5e-3c2e-3 -8e-3 3e-3 -0.016 4e-3 -0.024v-3e-3c2e-3 -9e-3 3e-3 -0.018 4e-3 -0.027 1e-3 0 1e-3 -1e-3 1e-3 -1e-3 0.055-0.342 0.183-0.669 0.365-0.96v-1e-3c5e-3 -8e-3 0.01-0.015 0.015-0.023 0-1e-3 0-1e-3 1e-3 -2e-3 4e-3 -7e-3 9e-3 -0.014 0.014-0.022 0 0 1e-3 -1e-3 1e-3 -2e-3 5e-3 -7e-3 0.01-0.014 0.015-0.022 0 0 0-1e-3 1e-3 -1e-3 5e-3 -7e-3 9e-3 -0.014 0.014-0.021 1e-3 -1e-3 1e-3 -2e-3 2e-3 -3e-3 4e-3 -7e-3 9e-3 -0.013 0.013-0.019 1e-3 -2e-3 2e-3 -3e-3 3e-3 -5e-3 4e-3 -5e-3 7e-3 -0.01 0.011-0.015l6e-3 -9e-3c1e-3 -1e-3 2e-3 -3e-3 3e-3 -4e-3 0.046-0.063 0.094-0.125 0.145-0.184 5e-3 -6e-3 0.01-0.012 0.016-0.019 1e-3 -2e-3 3e-3 -4e-3 5e-3 -6e-3 3e-3 -4e-3 7e-3 -7e-3 0.01-0.011 0.105-0.119 0.22-0.228 0.343-0.326 1e-3 -1e-3 3e-3 -2e-3 5e-3 -4e-3 1e-3 0 1e-3 -1e-3 2e-3 -2e-3 0.211-0.166 0.444-0.298 0.691-0.386 0.022-8e-3 0.044-0.015 0.065-0.022 7e-3 -3e-3 0.013-5e-3 0.02-7e-3h1e-3c0.149-0.047 0.302-0.077 0.457-0.09 9e-3 0 0.019-1e-3 0.028-2e-3 0.362-0.025 0.687 0.051 0.956 0.206 0.547 0.314 0.866 0.948 0.806 1.696 0 1e-3 -1e-3 1e-3 -1e-3 2e-3 0 0.011-1e-3 0.021-2e-3 0.032-2e-3 0.014-3e-3 0.029-5e-3 0.043-1e-3 0.014-3e-3 0.028-5e-3 0.042 0 1e-3 0 3e-3 -1e-3 5e-3 -1e-3 0.013-3e-3 0.026-5e-3 0.039-1e-3 3e-3 -1e-3 5e-3 -1e-3 8e-3 -2e-3 0.013-4e-3 0.026-7e-3 0.039v5e-3c-3e-3 0.012-5e-3 0.025-7e-3 0.038-1e-3 1e-3 -1e-3 2e-3 -1e-3 4e-3 -3e-3 0.013-5e-3 0.026-8e-3 0.039 0 2e-3 -1e-3 5e-3 -1e-3 7e-3 -3e-3 0.013-6e-3 0.025-9e-3 0.038 0 2e-3 -1e-3 5e-3 -1e-3 7e-3 -3e-3 0.013-6e-3 0.026-0.01 0.039 0 1e-3 0 2e-3 -1e-3 3e-3l-9e-3 0.036c0 3e-3 -1e-3 6e-3 -2e-3 8e-3 -3e-3 0.012-7e-3 0.024-0.01 0.036-1e-3 3e-3 -2e-3 6e-3 -2e-3 9e-3 -4e-3 0.012-8e-3 0.024-0.011 0.036l-3e-3 9e-3c-3e-3 0.011-7e-3 0.021-0.01 0.032-1e-3 3e-3 -2e-3 7e-3 -3e-3 0.01-4e-3 0.01-7e-3 0.021-0.011 0.031-1e-3 4e-3 -3e-3 8e-3 -4e-3 0.012-4e-3 0.011-7e-3 0.021-0.011 0.032-2e-3 4e-3 -3e-3 9e-3 -5e-3 0.013-4e-3 0.01-8e-3 0.021-0.012 0.031-1e-3 5e-3 -3e-3 9e-3 -5e-3 0.013-3e-3 8e-3 -6e-3 0.016-9e-3 0.023-2e-3 6e-3 -5e-3 0.012-7e-3 0.018-4e-3 8e-3 -7e-3 0.016-0.01 0.024-3e-3 6e-3 -5e-3 0.012-8e-3 0.018-3e-3 8e-3 -7e-3 0.017-0.011 0.026-3e-3 6e-3 -6e-3 0.012-8e-3 0.018-3e-3 6e-3 -5e-3 0.011-8e-3 0.016-4e-3 0.01-8e-3 0.019-0.013 0.028-2e-3 5e-3 -4e-3 0.01-7e-3 0.015-5e-3 0.011-0.011 0.022-0.016 0.033-2e-3 3e-3 -3e-3 6e-3 -5e-3 9e-3 -3e-3 8e-3 -7e-3 0.015-0.011 0.022 0 1e-3 -1e-3 2e-3 -1e-3 3e-3 -7e-3 0.014-0.015 0.028-0.023 0.043 0 1e-3 -1e-3 2e-3 -1e-3 3e-3 -0.374 0.692-1.048 1.227-1.791 1.35h-5e-3c-7e-3 2e-3 -0.014 3e-3 -0.021 4e-3l-0.228 0.021zm0.688-3.916c-1.022 0.075-1.928 0.997-1.989 2.023-0.052 0.909 0.587 1.545 1.437 1.545l0.247-0.017c0.551-0.077 1.062-0.401 1.412-0.846 0.074-0.018 0.132-0.055 0.166-0.11 0.032-0.05 0.041-0.111 0.028-0.181 0.136-0.24 0.227-0.503 0.257-0.774 0.103-0.923-0.517-1.645-1.43-1.645-0.042 0-0.084 2e-3 -0.128 5e-3" fill="url(#radialGradient2690)"/>
   <path d="m59.554 558.76c0-0.035 1e-3 -0.07 3e-3 -0.105 0.061-1.026 0.967-1.948 1.989-2.023 0.044-3e-3 0.086-5e-3 0.128-5e-3 0.043 0 0.085 2e-3 0.126 5e-3 0.198 0.015 0.38 0.064 0.542 0.143l6e-3 3e-3c1e-3 0 1e-3 1e-3 1e-3 1e-3 0.523 0.259 0.83 0.823 0.755 1.493-1e-3 9e-3 -2e-3 0.017-3e-3 0.025v2e-3c-1e-3 8e-3 -2e-3 0.015-3e-3 0.023v2e-3c-0.036 0.253-0.124 0.497-0.251 0.722-0.013-0.071-0.047-0.151-0.101-0.233 0.06-0.139 0.099-0.288 0.117-0.443l7e-3 -0.133c1e-3 -0.336-0.138-0.642-0.364-0.853-0.225-0.213-0.534-0.334-0.867-0.334l-0.123 6e-3h1e-3c-0.774 0.078-1.411 0.724-1.474 1.505l-4e-3 0.089c-1e-3 0.343 0.143 0.652 0.372 0.861 0.228 0.21 0.536 0.325 0.863 0.325l0.173-0.01h5e-3c0.361-0.053 0.689-0.23 0.94-0.483 0.044 7e-3 0.085 9e-3 0.125 9e-3 0.049 0 0.095-4e-3 0.136-0.015-0.022 0.028-0.045 0.055-0.068 0.082l-0.015 0.018-5e-3 5e-3c-3e-3 4e-3 -6e-3 7e-3 -9e-3 0.011-3e-3 3e-3 -6e-3 7e-3 -9e-3 0.01-1e-3 1e-3 -3e-3 2e-3 -4e-3 4e-3 -0.332 0.366-0.779 0.631-1.258 0.709-1e-3 0-2e-3 1e-3 -3e-3 1e-3 -6e-3 1e-3 -0.013 2e-3 -0.019 3e-3 -7e-3 1e-3 -0.015 2e-3 -0.022 3e-3l-0.247 0.017c-0.817 0-1.438-0.587-1.44-1.44" fill="url(#linearGradient2710)"/>
   <path d="m60.656 558.65v-0.047c8e-3 -0.153 0.063-0.306 0.153-0.442-0.06 0.115-0.097 0.241-0.106 0.37-0.025 0.341 0.186 0.601 0.476 0.682-0.315-0.043-0.52-0.253-0.523-0.563m1.65-0.335v-2e-3l0.25 0.027z" fill="url(#radialGradient2736)"/>
   <g clip-path="url(#clipPath2746)">
    <g transform="translate(62.556 558.34)">
     <path d="m0 0 0.306 0.032 7e-3 -0.134c1e-3 -0.336-0.138-0.643-0.364-0.854-0.225-0.212-0.534-0.334-0.866-0.334l-0.124 6e-3h1e-3c-0.774 0.078-1.411 0.725-1.474 1.506l-3e-3 0.088c-2e-3 0.344 0.143 0.652 0.372 0.861 0.228 0.211 0.536 0.326 0.863 0.326l0.173-0.01 3e-3 -1e-3h1e-3c0.729-0.108 1.327-0.714 1.412-1.455l-0.307-0.031-0.306-0.031c-0.034 0.427-0.458 0.859-0.881 0.907l0.041 0.305-0.037-0.306-0.099 6e-3c-0.368-0.01-0.615-0.23-0.619-0.571l1e-3 -0.046c0.021-0.451 0.47-0.906 0.914-0.934h1e-3l0.068-4e-3c0.369 9e-3 0.61 0.241 0.614 0.572l-3e-3 0.07 0.306 0.032" fill="#a7a5a6"/>
    </g>
    <g transform="translate(62.303 558.35)">
     <path d="m0 0c0.041-0.442-0.317-0.768-0.746-0.725-0.438 0.043-0.824 0.454-0.854 0.911-0.034 0.449 0.345 0.758 0.772 0.702 0.419-0.057 0.788-0.452 0.828-0.888" fill="#fff"/>
    </g>
   </g>
   <path d="m55.826 559.02c0-3.129 2.856-5.917 6.018-5.936h0.034c2.525 0 4.16 1.829 4.157 4.094 0 0.136-6e-3 0.274-0.018 0.414 0 3e-3 -1e-3 5e-3 -1e-3 8e-3l-3e-3 0.036c-1e-3 0.011-2e-3 0.023-4e-3 0.034 0 5e-3 -1e-3 0.011-1e-3 0.016-4e-3 0.039-9e-3 0.078-0.014 0.117 0 1e-3 0 2e-3 -1e-3 3e-3 -2e-3 0.019-5e-3 0.038-7e-3 0.057-1e-3 1e-3 -1e-3 2e-3 -1e-3 3e-3l-9e-3 0.06c-0.373 2.412-2.502 4.598-4.981 5.078-0.339 0.066-0.674 0.098-1 0.098-2.303 0-4.169-1.585-4.169-4.082m4.211 3.96c0.314 0 0.637-0.031 0.965-0.094h2e-3c0.091-0.018 0.18-0.037 0.27-0.059 0.15-0.037 0.299-0.08 0.446-0.13 1.52-0.508 2.836-1.661 3.572-3.059 1e-3 -1e-3 1e-3 -2e-3 1e-3 -2e-3 9e-3 -0.016 0.017-0.032 0.025-0.049 1e-3 0 1e-3 -1e-3 2e-3 -2e-3l0.024-0.048c0-1e-3 1e-3 -2e-3 1e-3 -3e-3 0.042-0.083 0.082-0.168 0.12-0.253 2e-3 -4e-3 3e-3 -7e-3 4e-3 -0.01 6e-3 -0.013 0.012-0.026 0.017-0.039 3e-3 -5e-3 5e-3 -0.011 7e-3 -0.016 5e-3 -0.011 0.01-0.023 0.015-0.034 2e-3 -6e-3 4e-3 -0.011 7e-3 -0.017 4e-3 -0.011 9e-3 -0.022 0.014-0.033 2e-3 -6e-3 4e-3 -0.012 7e-3 -0.018 4e-3 -0.011 9e-3 -0.022 0.013-0.033 2e-3 -6e-3 5e-3 -0.012 7e-3 -0.018 4e-3 -0.01 8e-3 -0.021 0.012-0.031 3e-3 -7e-3 6e-3 -0.013 8e-3 -0.02 4e-3 -0.011 8e-3 -0.021 0.012-0.032 2e-3 -6e-3 5e-3 -0.012 7e-3 -0.019 5e-3 -0.013 0.01-0.027 0.015-0.04 3e-3 -7e-3 5e-3 -0.014 8e-3 -0.021 4e-3 -0.013 9e-3 -0.025 0.013-0.038 3e-3 -9e-3 6e-3 -0.018 0.01-0.028 2e-3 -7e-3 5e-3 -0.015 7e-3 -0.022 3e-3 -9e-3 6e-3 -0.018 0.01-0.028 2e-3 -8e-3 5e-3 -0.016 7e-3 -0.024 3e-3 -8e-3 6e-3 -0.016 9e-3 -0.024 2e-3 -9e-3 5e-3 -0.018 8e-3 -0.027 3e-3 -8e-3 5e-3 -0.017 8e-3 -0.026 3e-3 -8e-3 5e-3 -0.016 8e-3 -0.024 2e-3 -9e-3 5e-3 -0.018 8e-3 -0.027 2e-3 -8e-3 4e-3 -0.016 7e-3 -0.023 3e-3 -0.01 5e-3 -0.019 8e-3 -0.029l6e-3 -0.021c3e-3 -0.01 6e-3 -0.02 9e-3 -0.03 1e-3 -6e-3 3e-3 -0.013 5e-3 -0.019l9e-3 -0.033c0-2e-3 1e-3 -4e-3 2e-3 -7e-3 8e-3 -0.03 0.015-0.06 0.023-0.09v-1e-3c3e-3 -0.01 5e-3 -0.021 8e-3 -0.031 1e-3 -7e-3 3e-3 -0.014 5e-3 -0.022l6e-3 -0.027 6e-3 -0.024c2e-3 -9e-3 4e-3 -0.019 6e-3 -0.028 2e-3 -8e-3 3e-3 -0.016 5e-3 -0.024 2e-3 -0.01 4e-3 -0.019 6e-3 -0.028 2e-3 -8e-3 3e-3 -0.016 5e-3 -0.024 2e-3 -9e-3 4e-3 -0.018 5e-3 -0.027 2e-3 -9e-3 4e-3 -0.018 5e-3 -0.027 2e-3 -8e-3 4e-3 -0.017 5e-3 -0.025 2e-3 -9e-3 4e-3 -0.019 5e-3 -0.028 2e-3 -8e-3 3e-3 -0.016 5e-3 -0.024 1e-3 -0.011 3e-3 -0.021 5e-3 -0.032 1e-3 -7e-3 2e-3 -0.013 3e-3 -0.02 3e-3 -0.018 6e-3 -0.035 9e-3 -0.052 0.036-0.236 0.054-0.469 0.055-0.698 0.01-2.209-1.581-3.997-4.038-3.997h-0.052c-0.132 1e-3 -0.265 8e-3 -0.396 0.019h-7e-3c-9e-3 1e-3 -0.018 2e-3 -0.027 3e-3 -8e-3 0-0.016 1e-3 -0.024 2e-3 -3e-3 0-7e-3 1e-3 -0.011 1e-3 -0.227 0.022-0.453 0.058-0.675 0.108-0.19 0.043-0.377 0.096-0.561 0.158-7e-3 3e-3 -0.015 5e-3 -0.022 8e-3 -0.013 4e-3 -0.025 8e-3 -0.037 0.012-0.014 5e-3 -0.027 0.01-0.041 0.015l-0.018 6e-3c-0.019 7e-3 -0.038 0.014-0.056 0.021-1e-3 0-2e-3 0-3e-3 1e-3 -0.483 0.18-0.943 0.423-1.366 0.719-2e-3 1e-3 -3e-3 2e-3 -5e-3 3e-3 -1e-3 1e-3 -2e-3 2e-3 -3e-3 2e-3 -0.053 0.037-0.105 0.075-0.156 0.114-0.054 0.04-0.107 0.081-0.16 0.122-4e-3 4e-3 -8e-3 7e-3 -0.012 0.01-0.01 8e-3 -0.02 0.016-0.03 0.025-0.091 0.073-0.18 0.15-0.267 0.229-4e-3 3e-3 -8e-3 7e-3 -0.012 0.01-5e-3 5e-3 -0.011 0.01-0.016 0.015-0.07 0.064-0.138 0.13-0.205 0.197l-0.044 0.044c-5e-3 5e-3 -0.01 0.01-0.014 0.015-3e-3 3e-3 -5e-3 5e-3 -7e-3 8e-3l-0.023 0.023c-0.709 0.74-1.235 1.647-1.483 2.631v3e-3c-3e-3 0.01-6e-3 0.021-8e-3 0.031-1e-3 2e-3 -1e-3 4e-3 -2e-3 6e-3 -2e-3 0.01-4e-3 0.019-7e-3 0.029 0 2e-3 -1e-3 4e-3 -1e-3 6e-3l-6e-3 0.027-3e-3 0.012c-2e-3 8e-3 -3e-3 0.015-5e-3 0.023l-3e-3 0.012c-2e-3 7e-3 -3e-3 0.016-5e-3 0.023l-3e-3 0.012c-1e-3 8e-3 -3e-3 0.016-5e-3 0.024 0 4e-3 -1e-3 8e-3 -2e-3 0.011-1e-3 8e-3 -3e-3 0.015-4e-3 0.022-1e-3 5e-3 -2e-3 0.011-4e-3 0.016-1e-3 6e-3 -2e-3 0.012-3e-3 0.019l-3e-3 0.015c-2e-3 7e-3 -3e-3 0.014-4e-3 0.021l-3e-3 0.015c-1e-3 7e-3 -3e-3 0.015-4e-3 0.022-1e-3 4e-3 -2e-3 8e-3 -2e-3 0.012-1e-3 7e-3 -3e-3 0.014-4e-3 0.02l-3e-3 0.018c0 2e-3 -1e-3 4e-3 -1e-3 6e-3 -0.011 0.067-0.021 0.134-0.03 0.201v2e-3c-1e-3 0.01-3e-3 0.02-4e-3 0.03 0 2e-3 0 4e-3 -1e-3 6e-3 -1e-3 0.011-2e-3 0.021-3e-3 0.032 0 1e-3 0 2e-3 -1e-3 2e-3 -1e-3 0.011-2e-3 0.021-3e-3 0.031 0 2e-3 0 4e-3 -1e-3 5e-3 -1e-3 0.01-2e-3 0.02-3e-3 0.031v4e-3l-3e-3 0.03c0 2e-3 0 4e-3 -1e-3 6e-3 -1e-3 0.01-1e-3 0.02-2e-3 0.03 0 2e-3 -1e-3 3e-3 -1e-3 5e-3 -1e-3 0.01-1e-3 0.02-2e-3 0.03 0 2e-3 -1e-3 4e-3 -1e-3 7e-3 0 9e-3 -1e-3 0.018-2e-3 0.027v9e-3c-1e-3 8e-3 -2e-3 0.017-2e-3 0.026-1e-3 4e-3 -1e-3 8e-3 -1e-3 0.012-1e-3 8e-3 -1e-3 0.016-2e-3 0.024v9e-3c-1e-3 9e-3 -1e-3 0.018-2e-3 0.027v0.01c0 8e-3 -1e-3 0.017-1e-3 0.026 0 3e-3 -1e-3 6e-3 -1e-3 9e-3 0 9e-3 0 0.018-1e-3 0.026v0.011c0 9e-3 -1e-3 0.017-1e-3 0.025v0.011c-1e-3 8e-3 -1e-3 0.017-1e-3 0.025v0.014c0 7e-3 -1e-3 0.015-1e-3 0.022v0.177c1e-3 9e-3 1e-3 0.019 1e-3 0.028 0 8e-3 0 0.016 1e-3 0.024 0 0.01 0 0.02 1e-3 0.03 0 7e-3 0 0.015 1e-3 0.022 0 0.01 0 0.021 1e-3 0.031 0 6e-3 0 0.013 1e-3 0.019 0 0.012 1e-3 0.023 2e-3 0.034 0 5e-3 0 0.01 1e-3 0.015 0 0.012 1e-3 0.024 2e-3 0.036 0 4e-3 0 7e-3 1e-3 0.011 4e-3 0.059 9e-3 0.118 0.016 0.175 0 3e-3 0 7e-3 1e-3 0.01 1e-3 0.013 3e-3 0.026 4e-3 0.038 1e-3 4e-3 1e-3 7e-3 2e-3 0.011 1e-3 0.012 3e-3 0.025 5e-3 0.037 0 4e-3 1e-3 8e-3 1e-3 0.013 2e-3 0.012 4e-3 0.024 5e-3 0.036 1e-3 4e-3 1e-3 7e-3 2e-3 0.011 2e-3 0.013 4e-3 0.025 6e-3 0.038 0 2e-3 1e-3 5e-3 1e-3 8e-3 9e-3 0.058 0.02 0.114 0.031 0.17 0 3e-3 1e-3 6e-3 1e-3 8e-3 3e-3 0.012 5e-3 0.023 8e-3 0.034 1e-3 5e-3 2e-3 9e-3 3e-3 0.014 2e-3 0.011 4e-3 0.021 6e-3 0.031 2e-3 6e-3 3e-3 0.011 4e-3 0.017 2e-3 0.01 5e-3 0.02 7e-3 0.03 2e-3 6e-3 3e-3 0.011 4e-3 0.017 3e-3 9e-3 5e-3 0.019 7e-3 0.029 2e-3 6e-3 3e-3 0.012 5e-3 0.018 2e-3 9e-3 5e-3 0.019 7e-3 0.029 2e-3 5e-3 3e-3 0.01 4e-3 0.015 3e-3 0.011 6e-3 0.021 9e-3 0.031l3e-3 0.012c6e-3 0.02 0.011 0.04 0.017 0.059 2e-3 6e-3 4e-3 0.012 5e-3 0.018 3e-3 8e-3 5e-3 0.015 7e-3 0.023 3e-3 8e-3 5e-3 0.015 7e-3 0.023 3e-3 7e-3 5e-3 0.014 7e-3 0.022 3e-3 8e-3 6e-3 0.016 8e-3 0.024 2e-3 7e-3 5e-3 0.014 7e-3 0.02 3e-3 9e-3 6e-3 0.017 8e-3 0.026 3e-3 6e-3 5e-3 0.013 7e-3 0.019 3e-3 9e-3 7e-3 0.018 0.01 0.027 2e-3 6e-3 4e-3 0.012 6e-3 0.017 3e-3 0.01 7e-3 0.02 0.011 0.03 2e-3 5e-3 3e-3 0.01 5e-3 0.014l0.015 0.039c0 2e-3 1e-3 3e-3 2e-3 5e-3 0.017 0.046 0.036 0.091 0.055 0.136 1e-3 1e-3 1e-3 2e-3 2e-3 3e-3 6e-3 0.014 0.012 0.027 0.018 0.041 1e-3 1e-3 1e-3 3e-3 2e-3 4e-3 6e-3 0.014 0.012 0.027 0.018 0.041 1e-3 1e-3 1e-3 2e-3 2e-3 3e-3 0.469 1.007 1.344 1.714 2.417 2.022h1e-3c0.015 4e-3 0.029 8e-3 0.044 0.012 2e-3 1e-3 4e-3 2e-3 7e-3 2e-3 0.013 4e-3 0.026 7e-3 0.039 0.011 3e-3 0 5e-3 1e-3 8e-3 2e-3 0.013 3e-3 0.026 7e-3 0.039 0.01 3e-3 1e-3 5e-3 1e-3 8e-3 2e-3 0.013 3e-3 0.027 6e-3 0.04 0.01 2e-3 0 5e-3 1e-3 7e-3 1e-3 0.015 4e-3 0.03 8e-3 0.046 0.011 5e-3 1e-3 0.011 2e-3 0.016 4e-3l0.03 6e-3c8e-3 2e-3 0.017 4e-3 0.026 6e-3l0.018 3e-3c0.011 3e-3 0.022 5e-3 0.032 7e-3 4e-3 1e-3 8e-3 1e-3 0.012 2e-3 0.012 2e-3 0.024 5e-3 0.036 7e-3 2e-3 0 5e-3 1e-3 8e-3 1e-3 0.013 3e-3 0.026 5e-3 0.039 7e-3 1e-3 0 2e-3 1e-3 3e-3 1e-3 0.026 4e-3 0.053 9e-3 0.079 0.013 0.233 0.036 0.472 0.055 0.717 0.055" fill="url(#radialGradient2778)"/>
   <path d="m62.847 559.05c3e-3 0.019 5e-3 0.036 5e-3 0.053v0.011c0 0.044-0.011 0.083-0.033 0.117-0.034 0.055-0.092 0.092-0.166 0.11 0.072-0.092 0.137-0.189 0.194-0.291" fill="url(#radialGradient2800)"/>
   <path d="m62.392 559.35c0.149-0.152 0.271-0.332 0.354-0.53 0.054 0.082 0.088 0.162 0.101 0.233-0.057 0.102-0.122 0.199-0.194 0.291-0.041 0.011-0.087 0.015-0.136 0.015-0.04 0-0.081-2e-3 -0.125-9e-3" fill="url(#linearGradient2820)"/>
   <g clip-path="url(#clipPath2830)">
    <g transform="translate(62.392 559.35)">
     <path d="m0 0c-0.178-0.025-0.388-0.1-0.598-0.221 0.265-0.153 0.468-0.438 0.507-0.747 0.196 0.137 0.351 0.292 0.446 0.438-0.084 0.198-0.205 0.378-0.355 0.53" fill="#b7b9bc"/>
    </g>
    <g transform="translate(61.793 559.13)">
     <path d="m0 0c-0.021-0.012-0.041-0.024-0.062-0.037-0.383-0.237-0.636-0.553-0.644-0.777v-0.023c2e-3 -0.043 0.013-0.082 0.034-0.116 0.051-0.082 0.159-0.122 0.299-0.122 0.215 0 0.506 0.093 0.789 0.268 0.031 0.02 0.062 0.04 0.091 0.06-0.039 0.309-0.242 0.594-0.507 0.747" fill="#fff"/>
    </g>
   </g>
   <g transform="translate(61.938 552.96)">
    <path d="m0 0c-3.16 0.02-6.017 2.808-6.017 5.936 0 2.038 1.241 3.465 2.948 3.924-1.861-0.363-3.252-1.837-3.252-3.993 0-3.128 2.856-5.917 6.019-5.935 0.45-3e-3 0.874 0.053 1.262 0.157-0.302-0.059-0.625-0.09-0.96-0.089" fill="#231f20"/>
   </g>
   <g transform="translate(68.004 557.15)">
    <path d="m0 0-0.021-8e-3 0.021 8e-3m0.853 2.865c-0.805-0.076-1.508-0.246-2.08-0.506-0.59-0.268-1.027-0.554-1.338-0.872-0.196-0.193-0.348-0.41-0.46-0.636-0.157-0.298-0.237-0.601-0.237-0.9 0-0.713 0.416-1.331 1.23-1.84 0 0 0.358-0.216 0.454-0.272-0.241-0.046-0.501-0.079-0.795-0.079-0.182 0-0.35-0.078-0.468-0.216-0.095-0.111-0.148-0.252-0.148-0.398l8e-3 -0.099 0.25-1.508c0.052-0.319 0.342-0.544 0.665-0.513 0.265 0.025 0.532 0.063 0.792 0.114 0.268 0.053 0.514 0.115 0.738 0.187 0.473 0.139 0.905 0.334 1.28 0.57 0.39 0.24 0.705 0.52 0.943 0.817 0.253 0.326 0.417 0.688 0.48 1.073l6e-3 0.061 0.02 0.263 3e-3 0.042c0 0.521-0.232 1.269-1.321 1.852l-0.122 0.065-0.101 0.059 0.059 9e-3 0.453 0.011c0.177 6e-3 0.352 0.088 0.465 0.223 0.091 0.115 0.147 0.255 0.147 0.401l-0.01 0.094-0.243 1.487c-0.056 0.318-0.346 0.543-0.67 0.511" fill="#231f20"/>
   </g>
   <g transform="translate(70.892 558.12)">
    <path d="m0 0 0.026-6e-3c0.024-0.029 0.067-0.124 0.067-0.356l-0.01-0.135-0.033-0.153-0.062-0.1-0.079-0.018h-0.016l-0.024 0.029c-0.023 0.03-0.073 0.128-0.073 0.381l8e-3 0.128 0.03 0.075 0.018 0.033 0.084 0.112 0.017 0.01zm-0.079-0.021 8e-3 7e-3 -8e-3 -7e-3m-1.073 1.714c-0.377-0.172-0.695-0.43-0.946-0.768-0.253-0.342-0.408-0.752-0.459-1.217l-6e-3 -0.034-8e-3 -0.171v-0.031c0-0.151 0.016-0.301 0.051-0.446 0.032-0.139 0.081-0.278 0.139-0.408 0.123-0.266 0.305-0.498 0.537-0.704 0.231-0.203 0.506-0.356 0.815-0.463 0.299-0.1 0.63-0.152 0.982-0.152 0.193 0 0.379 0.018 0.554 0.058 0.16 0.036 0.322 0.089 0.477 0.153 0.312 0.126 0.576 0.302 0.793 0.522 0.213 0.218 0.386 0.466 0.498 0.747 0.068 0.152 0.11 0.29 0.141 0.423 0.028 0.136 0.042 0.283 0.042 0.44 0 0.221-0.027 0.454-0.081 0.687l-8e-3 0.028c-0.065 0.242-0.16 0.452-0.285 0.637-0.067 0.103-0.14 0.2-0.222 0.284l-0.278 0.233c-0.193 0.136-0.417 0.242-0.668 0.316-0.251 0.08-0.568 0.116-0.963 0.116-0.37 0-0.741-0.085-1.105-0.25" fill="#231f20"/>
   </g>
   <g transform="translate(72.689 559.96)">
    <path d="m0 0-0.05-0.027c-0.17-0.105-0.281-0.288-0.296-0.49l-0.025-0.427-0.021-0.437-0.039-0.742-0.026-0.392-0.01-0.243-3e-3 -0.039v-0.212l-0.016-0.311-0.028-0.507-3e-3 -0.033c0-0.152 0.058-0.3 0.159-0.415 0.113-0.121 0.269-0.192 0.431-0.198l0.917-0.037c0.168-9e-3 0.33 0.052 0.451 0.17 0.121 0.115 0.19 0.276 0.19 0.442v0.427c0.114-0.088 0.243-0.186 0.243-0.186l0.533-0.401 0.545-0.393c0.171-0.125 0.398-0.152 0.59-0.073l0.045 0.021c0.221 0.088 0.371 0.298 0.385 0.534l0.038 0.74 0.055 1.005 0.024 0.396 0.02 0.415 0.017 0.235 0.01 0.264 0.023 0.283 3e-3 0.047c0 0.152-0.057 0.301-0.158 0.414-0.115 0.124-0.274 0.2-0.445 0.202l-0.935 0.018c-0.163 4e-3 -0.322-0.057-0.438-0.172-0.118-0.112-0.185-0.267-0.187-0.43l-0.011-0.456-0.114 0.086-0.271 0.206-0.299 0.222-0.148 0.114-0.337 0.247-0.143 0.102c-0.198 0.146-0.465 0.157-0.676 0.031" fill="#231f20"/>
   </g>
   <g transform="translate(78.132 563.95)">
    <path d="m0 0c-0.803-0.365-1.457-0.88-1.943-1.53-0.495-0.659-0.783-1.396-0.851-2.189l2e-3 0.026-0.031-0.23-5e-3 -0.08c0-0.888 0.296-1.658 0.88-2.286 0.546-0.582 1.219-1.021 2.01-1.298 0.334-0.115 0.67-0.201 1.014-0.268l-0.185-0.151c-0.489-0.385-0.896-0.651-1.222-0.805-0.155-0.073-0.274-0.216-0.322-0.386l-0.025-0.168c0-0.117 0.031-0.231 0.095-0.33l1.508-2.376c0.172-0.276 0.53-0.368 0.814-0.21 0.629 0.345 1.265 0.808 1.899 1.375l9e-3 0.011 0.595 0.564 0.028 0.028 0.625 0.669 0.025 0.03 0.547 0.671 0.021 0.023c0.554 0.745 1.02 1.549 1.385 2.401 0.384 0.882 0.576 1.801 0.576 2.735 0 0.643-0.125 1.248-0.371 1.806-0.12 0.261-0.267 0.512-0.435 0.748-0.182 0.244-0.382 0.461-0.6 0.645-0.24 0.206-0.479 0.374-0.71 0.501-0.222 0.123-0.491 0.236-0.814 0.336-0.253 0.096-0.538 0.168-0.854 0.216-0.307 0.043-0.69 0.065-1.172 0.065-0.869 0-1.707-0.182-2.493-0.543" fill="#231f20"/>
   </g>
   <g transform="translate(81.697 560.17)">
    <path d="m0 0c0 0.509-0.1 0.899-0.298 1.174-0.2 0.274-0.455 0.411-0.768 0.411-0.366 0-0.678-0.122-0.942-0.364-0.266-0.265-0.396-0.671-0.396-1.221 0-0.476 0.163-0.893 0.488-1.247 0.312-0.378 0.804-0.564 1.473-0.564l0.062 0.031c0.253 0.436 0.381 1.031 0.381 1.78m-2.121-7.965-1.509 2.379c0.367 0.172 0.807 0.46 1.325 0.867 0.488 0.364 0.857 0.742 1.114 1.127-0.712 0-1.415 0.121-2.111 0.368-0.698 0.242-1.283 0.62-1.76 1.134-0.477 0.51-0.716 1.135-0.716 1.866l0.031 0.229c0.062 0.68 0.303 1.305 0.731 1.873 0.427 0.57 0.995 1.017 1.705 1.344 0.708 0.322 1.459 0.486 2.238 0.486 0.447 0 0.809-0.023 1.084-0.062 0.274-0.038 0.517-0.102 0.73-0.182 0.293-0.092 0.54-0.19 0.729-0.299 0.195-0.104 0.401-0.251 0.611-0.433 0.182-0.151 0.35-0.331 0.497-0.533 0.146-0.203 0.27-0.415 0.375-0.641 0.21-0.477 0.318-0.993 0.318-1.553 0-0.855-0.175-1.684-0.529-2.491-0.348-0.808-0.788-1.568-1.315-2.278l-0.549-0.672-0.624-0.669-0.594-0.565c-0.599-0.538-1.193-0.97-1.781-1.295" fill="#bfdf14"/>
   </g>
   <g transform="translate(65.88 558.21)">
    <path d="m0 0c0.252 0.26 0.636 0.503 1.152 0.735 0.513 0.236 1.142 0.386 1.886 0.457l0.25-1.488c-0.213 0-0.381-3e-3 -0.497-0.014-0.119-0.01-0.24-0.022-0.37-0.038-0.125-0.019-0.224-0.04-0.295-0.059-0.072-0.022-0.156-0.051-0.259-0.094-0.164-0.082-0.246-0.199-0.246-0.355 0-0.081 0.048-0.151 0.144-0.209 0.083-0.072 0.244-0.167 0.484-0.284l0.18-0.09 0.147-0.089 0.137-0.069c0.66-0.354 0.991-0.792 0.991-1.311l-9e-3 -0.134-8e-3 -0.131c-0.049-0.285-0.168-0.55-0.362-0.792-0.19-0.246-0.451-0.472-0.782-0.678-0.331-0.207-0.712-0.376-1.144-0.503-0.2-0.066-0.423-0.122-0.665-0.171-0.241-0.047-0.485-0.082-0.734-0.106l-0.249 1.509c0.473 0 0.894 0.057 1.255 0.165 0.362 0.108 0.544 0.262 0.544 0.461 0 0.085-0.046 0.162-0.137 0.236-0.092 0.075-0.174 0.135-0.251 0.181-0.031 0.025-0.113 0.072-0.24 0.143l-0.506 0.3c-0.626 0.389-0.937 0.831-0.937 1.318 0 0.202 0.054 0.41 0.167 0.62 0.081 0.172 0.199 0.333 0.354 0.49" fill="#bfdf14"/>
   </g>
   <g transform="translate(72.96 559.41)">
    <path d="m0 0 0.043 0.026 0.141-0.101 0.173-0.13 0.157-0.114 0.149-0.11 0.301-0.228 0.271-0.202 0.495-0.374 0.621-0.459v0.401l-4e-3 0.314-0.014 0.469 8e-3 0.498 0.935-0.021-0.023-0.287-0.013-0.268-0.016-0.241-0.022-0.412-0.023-0.398-0.05-1.007-0.043-0.736-0.044-0.018-0.538 0.386-0.529 0.395-0.649 0.498-0.581 0.449v-1.674l-0.919 0.037 0.032 0.507 0.017 0.327v0.229l0.013 0.245 0.023 0.397 0.041 0.748 0.02 0.425z" fill="#fff"/>
   </g>
   <g transform="translate(70.845 558.73)">
    <path d="m0 0-0.202-0.032-0.186-0.103c-0.116-0.088-0.205-0.203-0.272-0.341l-0.085-0.225c-0.02-0.083-0.028-0.173-0.028-0.273 0-0.326 0.068-0.577 0.202-0.755 0.141-0.18 0.307-0.269 0.508-0.269h0.063c0.191 0.019 0.343 0.079 0.452 0.181 0.109 0.103 0.189 0.227 0.234 0.372l0.051 0.231 0.017 0.237c0 0.312-0.062 0.556-0.187 0.731-0.13 0.163-0.303 0.246-0.52 0.246zm0 0.712c0.333 0 0.594-0.028 0.785-0.087 0.19-0.056 0.356-0.136 0.497-0.234l0.186-0.158 0.15-0.191c0.09-0.132 0.158-0.285 0.206-0.463 0.044-0.189 0.067-0.375 0.067-0.553 0-0.114-0.01-0.218-0.029-0.309-0.022-0.098-0.056-0.202-0.106-0.317-0.086-0.209-0.211-0.389-0.369-0.553-0.159-0.16-0.356-0.288-0.584-0.383-0.131-0.052-0.259-0.093-0.384-0.122-0.129-0.03-0.271-0.047-0.419-0.047-0.286 0-0.547 0.043-0.784 0.123-0.234 0.078-0.436 0.193-0.608 0.343-0.169 0.149-0.295 0.316-0.382 0.5-0.043 0.094-0.079 0.188-0.098 0.289-0.025 0.099-0.038 0.201-0.038 0.306l9e-3 0.17c0.039 0.356 0.158 0.662 0.345 0.917 0.188 0.255 0.423 0.448 0.71 0.574 0.281 0.13 0.564 0.195 0.846 0.195" fill="#fff"/>
   </g>
   <g transform="translate(47.611 564.56)">
    <path d="m0 0 1.878-0.857-1.827-2.866-0.88 0.391z" fill="#bfdf14"/>
   </g>
  </g>
 </g>
</svg>
