<svg width="800" height="444.34" version="1.1" viewBox="0 0 211.67 117.56" xmlns="http://www.w3.org/2000/svg">
 <g transform="translate(-47.209 143.7)">
  <g transform="matrix(7.4334 0 0 -7.4334 140.9 -133.91)" fill="#fff">
   <path d="m0 0-0.436 0.945-0.435-0.945zm0.061-0.125h-0.991l-0.4-0.869h-0.172l1.066 2.312 1.065-2.312h-0.17z" fill="#fff"/>
  </g>
  <g transform="matrix(7.4334 0 0 -7.4334 149.59 -143.33)" fill="#fff">
   <path d="m0 0 1.074-1.469 1.074 1.469h0.186l-0.01-0.01v-2.252h-0.16v2.032l-1.09-1.489-1.09 1.489v-2.032h-0.16v2.252l-8e-3 0.01z" fill="#fff"/>
  </g>
  <g transform="matrix(7.4334 0 0 -7.4334 181.55 -143.33)" fill="#fff">
   <path d="m0 0v-0.129h-1.268v-0.935h1.268v-0.129h-1.268v-0.94h1.268v-0.129h-1.43v2.262z" fill="#fff"/>
  </g>
  <g transform="matrix(7.4334 0 0 -7.4334 186.41 -142.34)" fill="#fff">
   <path d="m0 0v-1.213h0.484c0.215 0 0.397 0.057 0.545 0.176 0.155 0.119 0.229 0.264 0.229 0.434 0 0.166-0.074 0.312-0.229 0.427-0.148 0.123-0.33 0.176-0.545 0.176zm0.535-1.342h-0.535v-0.787h-0.162v2.262h0.75c0.221-0.024 0.404-0.1 0.558-0.217 0.182-0.143 0.274-0.318 0.274-0.519 0-0.207-0.092-0.383-0.274-0.526-0.126-0.098-0.271-0.162-0.433-0.193l0.658-0.807h-0.199z" fill="#fff"/>
  </g>
  <path d="m201.16-126.52h-1.2042v-16.814h1.2042z" fill="#fff"/>
  <g transform="matrix(7.4334 0 0 -7.4334 222.39 -129.19)" fill="#fff">
   <path d="m0 0 0.121-0.082c-0.279-0.203-0.607-0.301-0.986-0.301-0.405 0-0.752 0.112-1.035 0.338-0.286 0.225-0.428 0.496-0.428 0.818 0 0.319 0.142 0.59 0.428 0.817 0.283 0.228 0.63 0.34 1.035 0.34 0.379 0 0.707-0.102 0.986-0.307l-0.121-0.084c-0.246 0.174-0.535 0.258-0.865 0.258-0.358 0-0.664-0.098-0.918-0.299-0.254-0.199-0.383-0.443-0.383-0.725 0-0.285 0.129-0.525 0.383-0.728 0.254-0.201 0.56-0.303 0.918-0.303 0.33 0 0.619 0.088 0.865 0.258" fill="#fff"/>
  </g>
  <g transform="matrix(7.4334 0 0 -7.4334 235.92 -133.91)" fill="#fff">
   <path d="m0 0-0.437 0.945-0.434-0.945zm0.059-0.125h-0.991l-0.396-0.869h-0.174l1.065 2.312 1.064-2.312h-0.168z" fill="#fff"/>
  </g>
  <g transform="matrix(7.4334 0 0 -7.4334 243.23 -143.33)" fill="#fff">
   <path d="m0 0h0.178l1.47-2.008v2.008h0.161v-2.262h-0.161l-1.486 2.032v-2.032h-0.162z" fill="#fff"/>
  </g>
  <g transform="matrix(7.4334 0 0 -7.4334 54.57 -41.294)" fill="#fff">
   <path d="m0 0v-1.152h0.43c0.187 0 0.347 0.058 0.478 0.173 0.137 0.112 0.201 0.249 0.201 0.407 0 0.16-0.064 0.295-0.201 0.408-0.131 0.111-0.291 0.164-0.478 0.164zm0.471-1.271h-0.471v-0.743h-0.143v2.137h0.663c0.193-0.019 0.357-0.092 0.492-0.203 0.16-0.135 0.242-0.303 0.242-0.492 0-0.194-0.082-0.36-0.242-0.494-0.11-0.096-0.241-0.157-0.385-0.188l0.582-0.76h-0.174z" fill="#fff"/>
  </g>
  <g transform="matrix(7.4334 0 0 -7.4334 77.015 -33.309)" fill="#fff">
   <path d="m0 0-0.387 0.897-0.385-0.897zm0.051-0.121h-0.875l-0.354-0.818h-0.15l0.941 2.187 0.94-2.187h-0.149z" fill="#fff"/>
  </g>
  <g transform="matrix(7.4334 0 0 -7.4334 86.553 -41.28)" fill="#fff">
   <path d="m0 0v-1.885h0.01c0.377 0 0.664 0.08 0.865 0.254 0.227 0.19 0.336 0.42 0.336 0.688 0 0.271-0.109 0.498-0.336 0.689-0.201 0.17-0.488 0.254-0.865 0.254zm0 0.125h0.01c0.416 0 0.74-0.098 0.969-0.291 0.253-0.215 0.378-0.471 0.378-0.777 0-0.301-0.125-0.559-0.378-0.772-0.229-0.197-0.553-0.293-0.969-0.293h-0.01v-4e-3h-0.143v2.137z" fill="#fff"/>
  </g>
  <path d="m102.9-26.329h-1.063v-15.885h1.063z" fill="#fff"/>
  <g transform="matrix(7.4334 0 0 -7.4334 118.01 -41.526)" fill="#fff">
   <path d="m0 0c-0.318 0-0.588-0.092-0.814-0.283-0.223-0.192-0.334-0.422-0.334-0.69 0-0.271 0.111-0.498 0.334-0.689 0.226-0.191 0.496-0.287 0.814-0.287 0.32 0 0.592 0.096 0.814 0.287 0.227 0.191 0.34 0.418 0.34 0.689 0 0.268-0.113 0.498-0.34 0.69-0.222 0.191-0.494 0.283-0.814 0.283m0.92-0.195c0.252-0.219 0.381-0.475 0.381-0.778 0-0.304-0.129-0.562-0.381-0.775-0.256-0.215-0.561-0.322-0.92-0.322-0.357 0-0.664 0.107-0.916 0.322-0.254 0.213-0.379 0.471-0.379 0.775 0 0.303 0.125 0.559 0.379 0.778 0.252 0.213 0.559 0.32 0.916 0.32 0.359 0 0.664-0.107 0.92-0.32" fill="#fff"/>
  </g>
  <g transform="matrix(7.4334 0 0 -7.4334 101.22 -90.076)">
   <path d="m0 0c0.289 0.141 0.564 0.314 0.828 0.516 0.266 0.195 0.518 0.416 0.76 0.65s0.467 0.48 0.676 0.738 0.402 0.524 0.578 0.791c0.066 0.098 0.137 0.213 0.217 0.342 0.078 0.129 0.148 0.268 0.214 0.41 0.067 0.143 0.112 0.289 0.137 0.434 0.026 0.15 0.016 0.281-0.027 0.4l-0.178 0.137c-0.086 6e-3 -0.178-8e-3 -0.279-0.041-0.102-0.037-0.201-0.086-0.295-0.139-0.094-0.054-0.16-0.097-0.199-0.123-0.203-0.138-0.377-0.304-0.52-0.5-0.144-0.195-0.281-0.394-0.412-0.597-0.164-0.254-0.32-0.508-0.471-0.76-0.15-0.25-0.295-0.516-0.429-0.787-0.118-0.231-0.235-0.461-0.35-0.696-0.115-0.236-0.232-0.466-0.357-0.697l-0.01-0.113 0.117 0.035m-5.514-4.734c0.174 0.031 0.34 0.099 0.493 0.187 0.154 0.092 0.275 0.203 0.367 0.336 0.047 0.063 0.025 0.121-0.069 0.172-0.089 0.055-0.205 0.096-0.338 0.129-0.132 0.035-0.265 0.058-0.394 0.078-0.133 0.021-0.215 0.035-0.256 0.037l-0.221 0.022-0.244-0.012-0.23-0.067-0.168-0.136c-0.053-0.071-0.069-0.16-0.047-0.262 0.018-0.102 0.057-0.18 0.115-0.24 0.123-0.129 0.274-0.213 0.451-0.244 0.178-0.03 0.358-0.03 0.541 0m4.653-0.323h-0.01c-0.176 0-0.356 0.012-0.533 0.036-0.182 0.023-0.356 0.046-0.524 0.07-0.216 0.035-0.422 0.092-0.615 0.17-0.191 0.078-0.393 0.152-0.6 0.224-0.171 0.053-0.322 0.061-0.457 0.02-0.134-0.041-0.277-0.096-0.425-0.166-0.166-0.078-0.334-0.147-0.506-0.197-0.172-0.051-0.352-0.098-0.535-0.139-0.168-0.031-0.336-0.051-0.5-0.061-0.161-9e-3 -0.332-7e-3 -0.508 4e-3 -0.197 0.02-0.391 0.051-0.584 0.094-0.192 0.041-0.35 0.152-0.475 0.326-0.097 0.145-0.142 0.276-0.131 0.393 0.01 0.119 0.053 0.228 0.125 0.326 0.078 0.094 0.174 0.18 0.297 0.25 0.121 0.076 0.246 0.133 0.375 0.18 0.153 0.05 0.295 0.086 0.436 0.099 0.14 0.014 0.287 0.026 0.439 0.047 0.233 0.033 0.477 0.047 0.733 0.047s0.498-0.016 0.734-0.057c0.106-0.019 0.201-0.031 0.289-0.035 0.09-2e-3 0.172 0.035 0.248 0.113 0.172 0.168 0.315 0.36 0.428 0.563 0.115 0.209 0.224 0.414 0.328 0.623 8e-3 0.022 0.037 0.086 0.09 0.193 0.051 0.114 0.107 0.231 0.166 0.358 0.058 0.125 0.111 0.236 0.154 0.338 0.049 0.099 0.069 0.148 0.063 0.148-0.159 0.035-0.319 0.053-0.487 0.045-0.166-4e-3 -0.332 0.018-0.494 0.055-0.176 0.043-0.346 0.107-0.51 0.185-0.164 0.082-0.31 0.178-0.443 0.293-0.238 0.213-0.404 0.45-0.492 0.729-0.088 0.271-0.133 0.562-0.133 0.871 0 0.234 0.049 0.471 0.149 0.713 0.097 0.232 0.212 0.449 0.341 0.637 0.168 0.248 0.373 0.474 0.612 0.671 0.24 0.2 0.496 0.37 0.769 0.506 0.319 0.155 0.656 0.26 1.01 0.315 0.064 6e-3 0.15 0.015 0.256 0.029 0.101 0.014 0.207 0.014 0.314 0.012 0.102-8e-3 0.198-0.032 0.283-0.067 0.082-0.037 0.143-0.101 0.176-0.199 0.033-0.115 0.014-0.184-0.053-0.213-0.07-0.031-0.156-0.045-0.261-0.037-0.104 2e-3 -0.211 0.014-0.319 0.037-0.107 0.024-0.185 0.033-0.23 0.033-0.24 0-0.471-0.046-0.686-0.138-0.214-0.098-0.41-0.221-0.582-0.375-0.173-0.16-0.32-0.34-0.441-0.547s-0.207-0.42-0.258-0.645c-0.068-0.254-0.09-0.506-0.066-0.759 0.023-0.247 0.088-0.485 0.189-0.706 0.106-0.216 0.254-0.406 0.444-0.572 0.189-0.16 0.416-0.281 0.683-0.349 0.127-0.036 0.235-0.036 0.324-6e-3 0.094 0.029 0.172 0.074 0.237 0.14 0.064 0.065 0.121 0.147 0.172 0.243 0.048 0.093 0.095 0.185 0.14 0.277 0.061 0.119 0.117 0.232 0.178 0.351 0.059 0.12 0.119 0.239 0.187 0.354 0.129 0.234 0.264 0.469 0.401 0.695 0.137 0.231 0.287 0.451 0.451 0.668 0.26 0.36 0.551 0.705 0.871 1.037s0.666 0.625 1.039 0.862c0.274 0.183 0.586 0.345 0.936 0.478 0.349 0.131 0.693 0.182 1.035 0.153 0.221-0.028 0.385-0.11 0.494-0.249 0.107-0.134 0.172-0.294 0.189-0.474 0.022-0.18 8e-3 -0.369-0.039-0.563-0.045-0.197-0.103-0.367-0.175-0.511-0.065-0.123-0.139-0.241-0.213-0.364-0.08-0.115-0.168-0.23-0.256-0.341-0.127-0.17-0.256-0.334-0.395-0.489-0.136-0.156-0.281-0.312-0.429-0.461-0.301-0.289-0.62-0.56-0.955-0.818-0.338-0.258-0.692-0.478-1.065-0.66-0.176-0.092-0.357-0.18-0.545-0.268-0.183-0.082-0.363-0.17-0.531-0.261-0.1-0.051-0.164-0.129-0.197-0.227-0.032-0.096-0.069-0.193-0.108-0.285-0.111-0.242-0.234-0.471-0.373-0.695-0.135-0.223-0.281-0.438-0.429-0.645-0.094-0.133-0.184-0.26-0.28-0.393-0.095-0.128-0.199-0.252-0.308-0.363l-0.176-0.156-0.119-0.188 0.05-0.113 0.135-0.068 0.162-0.037 0.133-0.034c0.158-0.054 0.315-0.109 0.475-0.173 0.16-0.061 0.322-0.116 0.486-0.166 0.162-0.051 0.326-0.084 0.492-0.106 0.168-0.023 0.336-0.023 0.506 0 0.197 0.033 0.363 0.111 0.504 0.227 0.141 0.119 0.262 0.257 0.363 0.418 0.1 0.158 0.188 0.328 0.26 0.515 0.072 0.182 0.135 0.356 0.188 0.518 0.07 0.226 0.103 0.441 0.103 0.642-4e-3 0.2-0.025 0.413-0.064 0.641l0.017 0.217c0.028 0.076 0.09 0.105 0.188 0.076 0.125-0.025 0.218-0.102 0.283-0.223 0.066-0.125 0.111-0.263 0.133-0.42 0.021-0.156 0.033-0.316 0.031-0.47-6e-3 -0.158-0.014-0.283-0.023-0.375-0.039-0.254-0.118-0.502-0.229-0.746-0.137-0.291-0.32-0.563-0.549-0.809-0.26-0.266-0.562-0.469-0.906-0.611-0.344-0.143-0.699-0.219-1.072-0.235" fill="#ed1a3f"/>
  </g>
  <g transform="matrix(7.4334 0 0 -7.4334 123.73 -57.366)">
   <path d="m0 0c0.176 0.088 0.334 0.195 0.475 0.328 0.138 0.135 0.273 0.277 0.396 0.426 0.209 0.262 0.41 0.529 0.598 0.801 0.189 0.271 0.365 0.552 0.529 0.845 0.074 0.131 0.143 0.264 0.217 0.393 0.07 0.133 0.133 0.267 0.185 0.414 0.024 0.084 0.049 0.172 0.063 0.27 0.017 0.099-6e-3 0.187-0.063 0.269-0.072 0.088-0.168 0.121-0.285 0.098-0.117-0.031-0.218-0.065-0.303-0.112-0.236-0.129-0.447-0.308-0.632-0.537-0.186-0.23-0.358-0.449-0.516-0.668-0.09-0.117-0.174-0.236-0.254-0.363-0.078-0.125-0.158-0.246-0.244-0.371-0.084-0.123-0.164-0.252-0.234-0.381-0.075-0.133-0.145-0.267-0.217-0.402l-0.094-0.198-0.092-0.222-0.052-0.233 0.033-0.212c0.051-0.108 0.121-0.17 0.205-0.19 0.084-0.014 0.18 0 0.285 0.045m-0.902-0.682-0.02 6e-3c-0.117 0.037-0.213 0.106-0.279 0.193-0.069 0.088-0.119 0.186-0.152 0.296-0.034 0.111-0.051 0.23-0.055 0.349 0 0.121 4e-3 0.233 0.015 0.338 0.02 0.156 0.057 0.318 0.108 0.49 0.072 0.217 0.168 0.422 0.285 0.627 0.176 0.295 0.367 0.576 0.566 0.844 0.204 0.267 0.436 0.516 0.698 0.746l0.226 0.185 0.242 0.174c0.125 0.079 0.25 0.157 0.379 0.227 0.127 0.072 0.264 0.133 0.409 0.185 0.117 0.045 0.234 0.09 0.355 0.137s0.248 0.069 0.377 0.069l0.184-0.018 0.177-0.041c0.092-0.023 0.159-0.078 0.194-0.156l0.132-0.223 0.043 0.098 0.075 0.105 0.177 0.145c0.098 0.041 0.205 0.058 0.327 0.052 0.121-7e-3 0.238-7e-3 0.349 0l0.154 0.034 0.159-0.014 0.058-0.078-9e-3 -0.096-0.049-0.09-0.049-0.078c-0.203-0.307-0.393-0.607-0.57-0.92-0.176-0.308-0.354-0.621-0.54-0.931-0.05-0.096-0.103-0.188-0.154-0.278-0.053-0.093-0.107-0.179-0.168-0.273-0.115-0.19-0.24-0.387-0.371-0.59s-0.221-0.416-0.273-0.643l-0.022-0.14 0.078-0.117 0.139-4e-3 0.156 0.078 0.147 0.111 0.107 0.088c0.143 0.141 0.283 0.275 0.412 0.41 0.131 0.139 0.262 0.281 0.391 0.436 0.111 0.127 0.221 0.261 0.326 0.388 0.104 0.129 0.201 0.268 0.293 0.411l0.055 0.085 0.078 0.088 0.09 0.041 0.08-0.054 0.013-0.106-0.048-0.105-0.073-0.098-0.068-0.074-0.188-0.244-0.193-0.244-0.144-0.188-0.151-0.176c-0.117-0.136-0.238-0.271-0.357-0.406-0.121-0.133-0.244-0.267-0.369-0.398-0.082-0.094-0.19-0.192-0.319-0.297-0.127-0.11-0.263-0.197-0.404-0.27-0.145-0.066-0.289-0.099-0.434-0.111-0.144-6e-3 -0.271 0.051-0.39 0.17-0.112 0.101-0.182 0.23-0.211 0.381-0.03 0.148-0.03 0.298 6e-3 0.439l0.039 0.1 0.01 0.097-0.094-0.064-0.084-0.092-0.143-0.135-0.133-0.15c-0.199-0.217-0.429-0.397-0.685-0.539-0.129-0.078-0.276-0.139-0.442-0.182-0.16-0.041-0.318-0.045-0.468 0" fill="#ed1a3f"/>
  </g>
  <g transform="matrix(7.4334 0 0 -7.4334 154.32 -52.343)">
   <path d="m0 0c-0.092 0.027-0.184 0.074-0.273 0.148-0.159 0.116-0.258 0.262-0.301 0.434-0.041 0.174-0.053 0.354-0.03 0.543 0.024 0.189 0.071 0.377 0.143 0.561 0.072 0.183 0.147 0.345 0.227 0.48 0.246 0.461 0.511 0.92 0.796 1.371 0.286 0.449 0.583 0.889 0.897 1.315 0.098 0.119 0.178 0.226 0.236 0.33l0.065 0.138 0.101 0.11-0.177 0.052-0.225 0.01-0.186 0.045-0.058 0.156 0.111 0.149 0.205 0.045 0.229-0.01 0.181-8e-3 0.245 0.098 0.195 0.191 0.156 0.233 0.127 0.234c0.072 0.129 0.141 0.262 0.213 0.391 0.068 0.131 0.131 0.263 0.191 0.402l0.057 0.18 0.062 0.207 0.079 0.197 0.115 0.148 0.185 0.082 0.225 0.02 0.234-0.01 0.217 0.01c0.078 0.012 0.166 0.021 0.264 0.023 0.097 0 0.174-0.043 0.226-0.134l6e-3 -0.217-0.086-0.221c-0.05-0.152-0.121-0.295-0.211-0.433-0.086-0.137-0.173-0.28-0.257-0.418-0.092-0.159-0.2-0.323-0.325-0.489s-0.213-0.341-0.265-0.521l0.148-0.018 0.182 0.012h0.174l0.144-0.045 0.02-0.176-0.119-0.156c-0.09-0.055-0.194-0.07-0.307-0.055-0.115 0.014-0.221 0.022-0.318 0.014-0.137 0-0.247-0.041-0.325-0.123-0.078-0.08-0.15-0.176-0.215-0.287-0.308-0.498-0.611-0.99-0.912-1.483-0.298-0.488-0.617-0.974-0.949-1.457-0.084-0.125-0.164-0.252-0.236-0.382-0.072-0.133-0.125-0.268-0.158-0.411-0.032-0.111-0.034-0.207-8e-3 -0.285l0.127-0.176 0.217-0.048c0.084 4e-3 0.175 0.035 0.273 0.088 0.17 0.091 0.316 0.21 0.445 0.355 0.127 0.15 0.25 0.297 0.368 0.445 0.142 0.176 0.283 0.356 0.417 0.537 0.133 0.18 0.272 0.356 0.416 0.536l0.112 0.134 0.181 0.211 0.194 0.162 0.14-9e-3c0.032-0.055 0.03-0.129-0.011-0.221-0.037-0.094-0.088-0.193-0.151-0.295-0.062-0.102-0.129-0.193-0.195-0.285l-0.143-0.18c-0.123-0.17-0.255-0.332-0.396-0.484-0.141-0.153-0.283-0.305-0.426-0.457-0.138-0.143-0.291-0.307-0.457-0.489-0.166-0.183-0.348-0.349-0.543-0.496-0.195-0.144-0.402-0.257-0.617-0.324-0.215-0.076-0.438-0.072-0.666 6e-3" fill="#ed1a3f"/>
  </g>
  <g transform="matrix(7.4334 0 0 -7.4334 173.47 -52.343)">
   <path d="m0 0c-0.111 0.037-0.211 0.119-0.293 0.238-0.061 0.09-0.1 0.192-0.117 0.315-0.022 0.123-0.027 0.234-0.022 0.338 0.026 0.197 0.08 0.388 0.162 0.57 0.083 0.18 0.168 0.359 0.26 0.527 0.156 0.293 0.326 0.578 0.51 0.85 0.182 0.271 0.359 0.549 0.529 0.838 0.071 0.111 0.143 0.224 0.209 0.338 0.071 0.113 0.112 0.238 0.123 0.377l0.026 0.142 0.062 0.121c0.072 0.073 0.184 0.114 0.33 0.127 0.147 0.012 0.266 0.024 0.356 0.03l0.158 0.015 0.168-0.012 0.137-0.058 0.066-0.143-0.035-0.259-0.115-0.254-0.162-0.245-0.147-0.22c-0.189-0.293-0.377-0.586-0.559-0.881-0.183-0.297-0.363-0.594-0.539-0.902l-0.084-0.143-0.134-0.234c-0.051-0.088-0.098-0.18-0.145-0.274-0.047-0.096-0.076-0.183-0.094-0.265l0.01-0.2 0.152-0.082 0.25 0.055 0.237 0.162 0.211 0.211 0.175 0.199c0.172 0.188 0.327 0.373 0.477 0.571 0.145 0.197 0.285 0.4 0.414 0.605l0.078 0.18 0.11 0.228 0.136 0.184 0.176 0.027c0.059-0.023 0.072-0.094 0.035-0.203-0.037-0.113-0.103-0.246-0.201-0.404-0.1-0.156-0.213-0.326-0.347-0.51-0.133-0.184-0.268-0.352-0.397-0.514-0.131-0.16-0.246-0.298-0.348-0.414-0.101-0.119-0.168-0.197-0.201-0.228-0.078-0.078-0.182-0.172-0.314-0.283-0.131-0.114-0.27-0.215-0.414-0.309-0.151-0.096-0.301-0.164-0.457-0.211-0.159-0.045-0.301-0.045-0.432 0" fill="#ed1a3f"/>
  </g>
  <g transform="matrix(7.4334 0 0 -7.4334 207.27 -51.181)">
   <path d="m0 0-0.23 0.037-0.192 0.1c-0.086 0.078-0.143 0.162-0.17 0.258-0.033 0.089-0.045 0.185-0.041 0.287 4e-3 0.097 0.02 0.199 0.051 0.295 0.029 0.101 0.062 0.197 0.102 0.289 0.113 0.24 0.236 0.47 0.376 0.687 0.141 0.221 0.286 0.438 0.436 0.654 0.084 0.129 0.172 0.262 0.254 0.389 0.088 0.135 0.172 0.262 0.256 0.395l0.148 0.197 0.166 0.225 0.119 0.24-0.011 0.23-0.143 0.098-0.195-0.043-0.201-0.113-0.139-0.098c-0.123-0.092-0.236-0.193-0.34-0.303-0.107-0.105-0.209-0.217-0.305-0.326l-0.324-0.383c-0.228-0.26-0.428-0.535-0.601-0.826-0.174-0.291-0.356-0.584-0.545-0.879-0.123-0.189-0.248-0.375-0.373-0.558-0.123-0.184-0.25-0.364-0.383-0.536l-0.117-0.132-0.164-0.069-0.192-4e-3 -0.191 4e-3c-0.209 0-0.344 4e-3 -0.399 8e-3l-0.113 0.027-0.041 0.155 0.08 0.183c0.211 0.25 0.395 0.516 0.555 0.801 0.162 0.285 0.33 0.563 0.504 0.838 0.105 0.168 0.207 0.336 0.304 0.498 0.098 0.166 0.2 0.326 0.305 0.49 0.104 0.151 0.205 0.307 0.299 0.465 0.096 0.16 0.193 0.32 0.297 0.477l0.101 0.162 0.077 0.172 0.029 0.156 0.039 0.187 0.078 0.145 0.158 0.031 0.084-0.01 0.139 0.01c0.138 0.014 0.252 0.024 0.334 0.027l0.199 0.01 0.096-0.013 0.049-0.034c0.125-0.138 0.103-0.357-0.069-0.658l-0.039-0.072-0.021-0.043-8e-3 -0.022 0.111 0.114 0.133 0.101 0.146 0.112 0.147 0.105c0.133 0.084 0.267 0.16 0.402 0.225 0.137 0.066 0.282 0.113 0.432 0.148 0.1 0.016 0.203 0.024 0.314 0.014 0.112-0.012 0.213-0.035 0.309-0.078 0.094-0.045 0.172-0.102 0.24-0.18 0.065-0.078 0.102-0.18 0.108-0.305 0.013-0.23-0.024-0.447-0.114-0.648-0.088-0.203-0.193-0.395-0.318-0.57-0.135-0.192-0.275-0.389-0.416-0.579-0.141-0.197-0.277-0.386-0.406-0.587-0.19-0.268-0.358-0.54-0.502-0.821l-0.061-0.119-0.074-0.144-0.031-0.151 0.06-0.103c0.071-0.049 0.157-0.053 0.26-0.012 0.102 0.037 0.184 0.074 0.248 0.109 0.211 0.116 0.395 0.268 0.555 0.457 0.16 0.19 0.314 0.377 0.467 0.561l0.193 0.24c0.061 0.08 0.117 0.17 0.178 0.26l0.162 0.258 0.179 0.242 0.129 0.074 0.118-0.057 0.017-0.207-0.096-0.207-0.146-0.197-0.141-0.162c-0.213-0.248-0.425-0.502-0.638-0.76-0.211-0.258-0.446-0.488-0.7-0.699-0.185-0.152-0.394-0.281-0.634-0.389-0.241-0.113-0.477-0.164-0.719-0.15" fill="#ed1a3f"/>
  </g>
  <g transform="matrix(7.4334 0 0 -7.4334 236.03 -56.204)">
   <path d="m0 0c0.242 0.104 0.453 0.258 0.633 0.449 0.179 0.198 0.342 0.401 0.484 0.612l0.143 0.212 0.133 0.217c0.109 0.178 0.212 0.362 0.308 0.549 0.094 0.188 0.184 0.377 0.27 0.566 0.052 0.141 0.101 0.27 0.146 0.395 0.045 0.121 0.074 0.262 0.088 0.41 6e-3 0.084-6e-3 0.176-0.033 0.278-0.031 0.101-0.09 0.169-0.182 0.201-0.119 0.033-0.232 0.013-0.343-0.055-0.112-0.074-0.207-0.146-0.286-0.217-0.089-0.095-0.181-0.179-0.273-0.262l-0.254-0.259c-0.17-0.18-0.326-0.373-0.471-0.578-0.144-0.203-0.277-0.411-0.402-0.618-0.113-0.181-0.211-0.369-0.303-0.562-0.093-0.195-0.176-0.387-0.254-0.582-0.041-0.1-0.076-0.217-0.105-0.363-0.029-0.147-6e-3 -0.266 0.064-0.364l0.198-0.107h0.224l0.215 0.078m-0.812-0.51c-0.204 0.051-0.383 0.153-0.538 0.307-0.158 0.148-0.242 0.334-0.255 0.555-0.01 0.125 0 0.253 0.019 0.386 0.02 0.135 0.045 0.266 0.078 0.391 0.047 0.221 0.125 0.439 0.237 0.664 0.218 0.437 0.515 0.83 0.88 1.187 0.2 0.19 0.405 0.36 0.608 0.518 0.125 0.1 0.256 0.19 0.396 0.285 0.139 0.092 0.284 0.172 0.436 0.244 0.15 0.071 0.305 0.133 0.461 0.176 0.156 0.045 0.316 0.07 0.48 0.078 0.182 8e-3 0.36-0.019 0.537-0.078 0.151-0.056 0.278-0.162 0.373-0.314 0.137-0.215 0.194-0.438 0.166-0.664-0.025-0.231-0.07-0.459-0.136-0.686-0.123-0.459-0.323-0.894-0.598-1.316-0.273-0.416-0.607-0.766-0.998-1.047-0.242-0.17-0.508-0.322-0.795-0.457-0.287-0.141-0.578-0.229-0.871-0.27l-0.24-2e-3 -0.24 0.043" fill="#ed1a3f"/>
  </g>
  <path d="m124.59-132.85h-72.854v-3.2485h72.854z" fill="#ed1a3f"/>
  <path d="m254.55-31.621h-113.85v-3.278h113.85z" fill="#ed1a3f"/>
  <g transform="matrix(7.4334 0 0 -7.4334 198.92 -106.7)">
   <path d="m0 0h1.279l-1.023-0.728 0.383-1.282-1.006 1.008-1.865-1.449 1.207 1.685-1.207 0.766h1.535l0.22 1.391z" fill="#2c51a3" fill-rule="evenodd"/>
  </g>
  <g transform="matrix(7.4334 0 0 -7.4334 198.92 -106.7)">
   <path d="m0 0h1.279l-1.023-0.728 0.383-1.282-1.006 1.008-1.865-1.449 1.207 1.685-1.207 0.766h1.535l0.22 1.391z" fill="none" stroke="#fff" stroke-miterlimit="10" stroke-width=".165"/>
  </g>
 </g>
</svg>
