<svg width="800" height="393.46" version="1.1" viewBox="0 0 211.67 104.1" xmlns="http://www.w3.org/2000/svg">
 <g transform="translate(197.25 71.705)">
  <g transform="matrix(5.9869 0 0 -5.9869 14.339 -13.998)">
   <path d="m0 0c-0.01 0.081-0.031 0.161-0.07 0.265l-0.055 0.144 0.034 0.185c0.023 0.12 0.043 0.239 0.045 0.336 7e-3 0.134-5e-3 0.268-0.022 0.402-0.098 0.696-0.435 1.074-0.694 1.272l-0.443 0.309 0.185 0.451 0.323 0.719c0.132 0.338 0.207 0.664 0.213 0.981 4e-3 0.13-2e-3 0.257-0.021 0.381-0.057 0.389-0.251 0.723-0.555 0.952-0.237 0.177-0.656 0.371-1.307 0.279-0.338-0.048-0.674-0.176-1.004-0.374l-0.233-0.145-0.255 0.096c-0.278 0.096-0.594 0.123-0.942 0.076l-0.014-5e-3 0.011 0.901c8e-3 0.648-0.317 1.182-0.813 1.457l5e-3 -3e-3 -1.353 0.752-0.057 0.033c-0.095 0.047-0.2 0.088-0.305 0.117-0.216 0.059-0.45 0.072-0.695 0.043l-18.615-2.414c-0.208-0.029-0.409-0.09-0.592-0.174-0.111-0.051-0.218-0.109-0.318-0.178l-0.234-0.182-0.194-0.19-0.16-0.202-0.146-0.232c-0.053-0.095-0.1-0.19-0.135-0.288-0.084-0.218-0.133-0.454-0.135-0.691l-0.024-1.957c-0.17-9e-3 -0.341-0.026-0.509-0.049-1.037-0.146-1.999-0.529-2.861-1.138-0.936-0.655-1.612-1.485-2.01-2.456-0.166-0.412-0.255-0.809-0.266-1.195-6e-3 -0.145 4e-3 -0.289 0.024-0.433 0.025-0.165 0.062-0.33 0.118-0.486l0.155-0.434-0.394-0.236c-0.305-0.186-0.544-0.433-0.715-0.731-0.194-0.344-0.297-0.719-0.309-1.113 0-0.143 7e-3 -0.284 0.025-0.426 0.121-0.842 0.592-1.502 1.329-1.865 0.564-0.276 1.216-0.363 1.935-0.264 0.758 0.112 1.451 0.367 2.062 0.77l0.313 0.204 0.311-0.204c0.414-0.278 0.924-0.372 1.517-0.288 0.491 0.072 0.957 0.25 1.375 0.531l0.233 0.156 0.263-0.088c0.254-0.086 0.518-0.11 0.784-0.077 0.301 0.051 0.587 0.183 0.865 0.416l0.253 0.208 0.304-0.109c0.273-0.102 0.552-0.134 0.831-0.093 0.206 0.029 0.41 0.093 0.608 0.184l0.16 0.072 0.176-0.03c0.196-0.037 0.396-0.037 0.609-6e-3 0.28 0.043 0.543 0.153 0.817 0.34l0.257 0.182 0.29-0.123c0.345-0.157 0.734-0.197 1.17-0.135 0.427 0.059 0.828 0.219 1.197 0.477l0.254 0.18 0.285-0.12c0.415-0.168 0.861-0.221 1.33-0.156 0.428 0.061 0.832 0.223 1.199 0.476l0.225 0.153 0.257-0.078c0.241-0.071 0.488-0.091 0.741-0.054 0.443 0.06 0.854 0.249 1.217 0.558l0.579 0.519 0.406-0.305 0.081-0.066c0.326-0.24 0.744-0.348 1.174-0.288 0.279 0.039 0.539 0.143 0.812 0.317l0.239 0.149 0.265-0.097c0.265-0.1 0.549-0.13 0.836-0.091 0.301 0.042 0.586 0.178 0.87 0.415l0.276 0.228 0.324-0.154c0.3-0.143 0.631-0.19 0.96-0.143 0.261 0.035 0.502 0.141 0.75 0.319l0.232 0.171 0.278-0.092c0.304-0.104 0.647-0.128 1.014-0.074 0.952 0.133 1.767 0.762 2.418 1.86 0.444 0.75 0.641 1.116 0.649 1.488z" fill="#231f20"/>
  </g>
  <g transform="matrix(5.9869 0 0 -5.9869 -25.641 -64.396)">
   <path d="m0 0c0.812 0.103 1.464-0.455 1.455-1.246l-0.035-2.732c-0.012-0.793-0.681-1.527-1.486-1.632l-18.617-2.412c-0.815-0.102-1.463 0.458-1.456 1.25l0.037 2.726c0.01 0.797 0.676 1.524 1.49 1.629z" fill="#b979c0"/>
  </g>
  <g transform="matrix(5.9869 0 0 -5.9869 -21.431 -63.87)">
   <path d="m0 0c0.217-0.226 0.345-0.501 0.342-0.856l-0.037-2.727c-0.01-0.792-0.673-1.521-1.485-1.631l-18.617-2.412c-0.232-0.029-0.451-5e-3 -0.643 0.061 0.263-0.275 0.665-0.417 1.112-0.36l18.617 2.414c0.81 0.106 1.478 0.837 1.486 1.626l0.037 2.732c6e-3 0.568-0.327 0.984-0.812 1.153" fill="#8c2692"/>
  </g>
  <g transform="matrix(5.9869 0 0 -5.9869 -129.31 -42.033)">
   <path d="m0 0-0.066-0.91 0.306 0.038c0.433 0.058 0.658 0.235 0.679 0.549 7e-3 0.121-0.016 0.211-0.075 0.274-0.086 0.098-0.254 0.123-0.497 0.098zm-0.091-1.27-0.077-1.066 0.32 0.042c0.526 0.07 0.789 0.271 0.815 0.626 0.015 0.221-0.059 0.356-0.215 0.42-0.121 0.042-0.306 0.047-0.554 0.016zm-0.471-1.474 0.215 3.055 0.683 0.086c0.283 0.039 0.506 9e-3 0.668-0.089 0.209-0.119 0.3-0.328 0.281-0.62-0.017-0.229-0.121-0.438-0.308-0.613 0.115-0.051 0.208-0.136 0.269-0.247 0.072-0.125 0.106-0.285 0.094-0.465-0.043-0.578-0.428-0.921-1.147-1.015z" fill="#fff"/>
  </g>
  <g transform="matrix(5.9869 0 0 -5.9869 -113.9 -43.998)">
   <path d="m0 0-0.064-0.906 0.304 0.04c0.435 0.054 0.656 0.237 0.678 0.547 0.012 0.121-0.017 0.212-0.07 0.276-0.09 0.096-0.261 0.121-0.5 0.096zm-0.09-1.264-0.079-1.066 0.321 0.039c0.524 0.064 0.791 0.269 0.815 0.627 0.016 0.22-0.054 0.36-0.217 0.418-0.121 0.043-0.304 0.05-0.551 0.018zm-0.472-1.481 0.214 3.06 0.686 0.089c0.284 0.034 0.506 6e-3 0.669-0.093 0.206-0.114 0.3-0.329 0.276-0.616-0.015-0.234-0.119-0.441-0.308-0.617 0.119-0.055 0.21-0.134 0.273-0.243 0.072-0.132 0.104-0.288 0.092-0.462-0.042-0.582-0.427-0.925-1.143-1.018z" fill="#fff"/>
  </g>
  <g transform="matrix(5.9869 0 0 -5.9869 -96.495 -30.164)">
   <path d="m0 0 0.217 3.059 0.368 0.045-0.115-1.605 1.299 1.747 0.496 0.076-1.24-1.645 1.003-1.415-0.446-0.055-0.811 1.137-0.351-0.473-0.052-0.824z" fill="#fff"/>
  </g>
  <g transform="matrix(5.9869 0 0 -5.9869 -83.077 -31.93)">
   <path d="m0 0 0.217 3.061 0.367 0.043-0.215-3.055z" fill="#fff"/>
  </g>
  <g transform="matrix(5.9869 0 0 -5.9869 -78.891 -32.527)">
   <path d="m0 0 0.217 3.058 0.439 0.057 0.016-0.027 1.297-2.137 0.164 2.357 0.371 0.044-0.218-3.059-0.339-0.045-1.4 2.309-0.182-2.51z" fill="#fff"/>
  </g>
  <g transform="matrix(5.9869 0 0 -5.9869 -56.171 -35.227)">
   <path d="m0 0c-0.329 0-0.615 0.111-0.848 0.346-0.28 0.27-0.405 0.634-0.375 1.074 0.03 0.427 0.209 0.822 0.534 1.165 0.317 0.338 0.683 0.531 1.091 0.585 0.264 0.035 0.527-0.012 0.774-0.131 0.273-0.138 0.443-0.332 0.506-0.575l9e-3 -0.053-0.39-0.051-0.018 0.025c-0.076 0.151-0.205 0.267-0.371 0.343-0.156 0.067-0.334 0.087-0.518 0.067-0.312-0.043-0.597-0.195-0.838-0.452-0.247-0.266-0.39-0.568-0.414-0.899-0.021-0.339 0.067-0.606 0.282-0.811 0.209-0.203 0.472-0.283 0.792-0.24 0.243 0.025 0.472 0.135 0.687 0.32 0.199 0.167 0.337 0.365 0.425 0.591l-1.519-0.199 0.025 0.357 1.969 0.255-8e-3 -0.055c-0.055-0.413-0.238-0.778-0.549-1.098-0.312-0.317-0.664-0.503-1.049-0.552l-0.197-0.012" fill="#fff"/>
  </g>
  <g transform="matrix(5.9869 0 0 -5.9869 -44.777 -49.902)">
   <path d="m0 0 0.431 0.92 0.379 0.045-0.428-0.914z" fill="#fff"/>
  </g>
  <g transform="matrix(5.9869 0 0 -5.9869 -36.082 -37.789)">
   <path d="m0 0c-0.197 0-0.361 0.062-0.498 0.195-0.162 0.154-0.234 0.367-0.216 0.631v0.041l0.387 0.047-3e-3 -0.056c-4e-3 -0.153 0.035-0.27 0.126-0.367 0.087-0.092 0.2-0.127 0.334-0.107 0.149 0.015 0.274 0.085 0.39 0.206 0.112 0.115 0.171 0.253 0.183 0.409 0.014 0.218-0.079 0.354-0.284 0.429-0.198 0.054-0.407 0.107-0.616 0.162-0.245 0.112-0.356 0.326-0.336 0.635 0.019 0.244 0.111 0.457 0.283 0.632 0.17 0.179 0.371 0.285 0.598 0.311 0.221 0.03 0.41-0.029 0.558-0.18 0.147-0.145 0.213-0.337 0.196-0.574l-6e-3 -0.039-0.373-0.045v0.051c0 0.137-0.038 0.244-0.116 0.318-0.078 0.073-0.173 0.108-0.3 0.086-0.12-0.015-0.223-0.07-0.319-0.178-0.093-0.105-0.142-0.222-0.152-0.355-0.016-0.183 0.08-0.301 0.279-0.363 0.208-0.059 0.418-0.115 0.625-0.172 0.246-0.127 0.352-0.358 0.331-0.692-0.018-0.248-0.126-0.481-0.307-0.676-0.188-0.197-0.398-0.312-0.635-0.341l-0.129-8e-3" fill="#fff"/>
  </g>
  <g transform="matrix(5.9869 0 0 -5.9869 -120.92 -27.077)">
   <path d="m0 0-0.144 0.061-0.054 0.166c9e-3 0.137 0.118 0.255 0.244 0.271l0.178-0.061 0.052-0.163c-8e-3 -0.137-0.115-0.256-0.246-0.272z" fill="#fff"/>
  </g>
  <g transform="matrix(5.9869 0 0 -5.9869 -103.95 -29.299)">
   <path d="m0 0-0.144 0.064-0.055 0.165c0.01 0.136 0.117 0.257 0.246 0.27l0.174-0.054 0.056-0.171c-0.013-0.135-0.122-0.26-0.252-0.274z" fill="#fff"/>
  </g>
  <g transform="matrix(5.9869 0 0 -5.9869 -43.122 -20.839)">
   <path d="m0 0c0.013-0.093 0.091-0.396 0.541-0.396l0.2 0.018c0.314 0.047 0.517 0.133 0.635 0.285 0.121 0.153 0.158 0.374 0.108 0.694-0.08 0.573-0.453 0.632-0.609 0.632l-0.103-5e-3c-0.144-0.019-0.31-0.094-0.502-0.23-0.096-0.065-0.377-0.257-0.332-0.556z" fill="#231f20"/>
  </g>
  <g transform="matrix(5.9869 0 0 -5.9869 -24.518 -8.6372)">
   <path d="m0 0h-0.021l-0.034-3e-3c-0.155-0.019-0.308-0.138-0.642-0.673-0.113-0.169-0.193-0.274-0.252-0.342 0 0.121 0.012 0.305 0.059 0.591 0.078 0.457 0.15 0.554 0.156 0.567 0.379 0.409 0.66 0.727 0.855 0.94 0.134 0.156 0.268 0.311 0.395 0.473-0.138-0.413-0.258-0.828-0.346-1.238-0.025-0.122-0.041-0.227-0.063-0.333l-0.107 0.018m-23.15 0.484-0.014 0.104c-0.136 0.941-0.666 1.077-0.975 1.077l-0.164-0.011h-0.021c0.201 0.119 0.502 0.256 0.9 0.4 0.368 0.137 0.668 0.221 0.885 0.261l0.035-6e-3c0.067 0 0.143 6e-3 0.246 0.026 0.237 0.02 0.467 0.033 0.666 0.033l0.199-1e-3c-0.281-0.238-0.56-0.54-0.836-0.909-0.345-0.47-0.648-0.993-0.9-1.556 0.013 0.188 6e-3 0.385-0.021 0.582m25.311 1.658c0.184 0.477 0.431 1.021 0.734 1.631 0.715 1.442 1.157 1.874 1.383 1.997-0.051-0.362-0.312-1.029-1.132-2.26-0.355-0.535-0.683-0.996-0.985-1.368m-2.426-0.347c0.179 0.48 0.424 1.025 0.726 1.633 0.719 1.441 1.162 1.873 1.389 1.996-0.059-0.359-0.319-1.034-1.135-2.261-0.355-0.534-0.68-0.989-0.98-1.368m5.884-1.062c-0.023 0.158-0.14 0.268-0.289 0.279 0.193 0.337 0.271 0.683 0.219 1.051-0.108 0.753-0.581 0.861-0.858 0.861l-0.169-0.012c-0.711-0.099-1.351-0.614-1.895-1.517-0.252-0.418-0.429-0.829-0.531-1.224-0.094-0.104-0.209-0.253-0.367-0.499-0.106-0.172-0.19-0.277-0.247-0.34 0 0.115 0.014 0.303 0.057 0.588 0.078 0.457 0.148 0.552 0.155 0.562 0.378 0.412 0.663 0.728 0.853 0.942 1.116 1.287 1.929 2.572 2.422 3.826 0.135 0.334 0.182 0.645 0.142 0.924-0.046 0.327-0.299 0.518-0.674 0.518l-0.217-0.017c-0.501-0.067-1.005-0.409-1.529-1.027l-0.01 0.183c-0.045 0.321-0.297 0.519-0.675 0.519l-0.217-0.02c-0.828-0.119-1.677-0.972-2.588-2.604-0.699-1.257-1.191-2.519-1.46-3.759l-0.025-0.128c-0.122-0.114-0.238-0.312-0.374-0.613 0.158 0.58 0.374 1.223 0.646 1.914l0.173 0.43-0.466-0.059-1.069-0.157-0.177-0.023-0.047-0.174c-0.064-0.226-0.112-0.415-0.162-0.587l-0.111-0.197c-0.073-0.084-0.197-0.218-0.406-0.443l-0.049-0.054c0.224 0.506 0.308 0.939 0.258 1.297-0.096 0.679-0.487 0.775-0.709 0.775l-0.119-5e-3c-0.288-0.043-0.532-0.203-0.731-0.482l-0.285-0.063-1.147-0.255-0.155-0.036-0.045-0.15-0.464-1.596c-0.092 0.16-0.207 0.323-0.356 0.498-0.239 0.282-0.337 0.414-0.376 0.474l0.076 0.151c0.143 0.241 0.182 0.331 0.17 0.44-0.033 0.216-0.191 0.354-0.406 0.354l-0.078-8e-3c-0.235-0.028-0.358-0.266-0.44-0.462-0.089-0.218-0.238-0.459-0.437-0.718l-0.131-0.16-0.453-0.543-0.138-0.174c0.051 0.195 0.067 0.395 0.036 0.605-0.106 0.748-0.582 0.863-0.857 0.863l-0.168-0.018c-0.716-0.097-1.354-0.606-1.896-1.508-0.149-0.257-0.271-0.505-0.37-0.747l-0.062-6e-3 -0.043-6e-3 -0.065-7e-3 -0.053-0.039-0.095-0.095 0.062 0.143 0.649 1.557 0.203 0.486-0.516-0.115-1.086-0.248-0.158-0.033-0.041-0.155c-0.139-0.47-0.355-1.058-0.655-1.753-0.317-0.743-0.507-1.063-0.609-1.203l-0.015 0.057c-0.026 0.187-2e-3 0.565 0.26 1.31 0.177 0.512 0.378 0.961 0.586 1.342l0.292 0.528-0.589-0.13-0.858-0.189c0.624 0.864 1.107 1.729 1.442 2.571 0.131 0.336 0.183 0.648 0.14 0.934-0.044 0.319-0.296 0.512-0.674 0.512l-0.216-0.015c-0.834-0.12-1.676-0.967-2.588-2.607-0.534-0.954-0.944-1.913-1.229-2.864-0.172 0.267-0.402 0.48-0.699 0.628 0.327 0.2 0.605 0.415 0.832 0.659 0.48 0.51 0.682 1.076 0.594 1.679-0.074 0.522-0.325 0.926-0.762 1.208 0.096 0.072 0.168 0.168 0.181 0.288l0.01 0.102-0.058 0.084-0.035 0.055-0.078 0.107-0.133 5e-3 -0.048 1e-3 -0.096-3e-3c-0.067-6e-3 -0.185-0.04-0.7-0.266-0.412 0.128-0.848 0.191-1.301 0.191-0.241 0-0.489-0.019-0.741-0.055-0.898-0.125-1.735-0.453-2.481-0.984-0.803-0.566-1.377-1.267-1.711-2.085-0.179-0.429-0.239-0.828-0.192-1.18 0.063-0.44 0.264-0.769 0.598-0.985 0.244-0.16 0.531-0.243 0.846-0.243 0.089 0 0.185 9e-3 0.283 0.022 0.638 0.088 1.146 0.387 1.515 0.89-0.148-0.431-0.327-0.967-0.552-1.615-0.327-0.965-0.674-1.602-1.028-1.883-0.185-0.149-0.407-0.242-0.668-0.281l-0.234-0.014c-0.148 0-0.295 0.018-0.432 0.06-0.302 0.087-0.324 0.219-0.328 0.267 0 0.016 0.03 0.049 0.12 0.1 0.01 4e-3 0.109 0.043 0.47 0.18l0.027 8e-3 0.026 0.021c0.19 0.125 0.402 0.379 0.332 0.859-0.035 0.264-0.167 0.477-0.373 0.612-0.158 0.109-0.338 0.164-0.531 0.164l-0.159-0.01c-0.371-0.057-0.662-0.257-0.845-0.58-0.172-0.307-0.233-0.641-0.182-0.995 0.078-0.574 0.367-0.982 0.857-1.22 0.288-0.143 0.623-0.215 0.989-0.215 0.142 0 0.293 0.014 0.449 0.031 1.236 0.178 2.193 0.778 2.855 1.793-0.029-0.147-0.033-0.281-0.015-0.406 0.083-0.596 0.467-0.924 1.072-0.924 0.092 0 0.189 9e-3 0.289 0.02 0.671 0.092 1.256 0.457 1.731 1.082 0.054-0.144 0.142-0.271 0.26-0.369 0.159-0.133 0.337-0.199 0.535-0.199l0.124 0.011c0.336 0.047 0.715 0.408 1.202 1.148 0.058-0.19 0.164-0.359 0.334-0.501 0.179-0.155 0.378-0.238 0.597-0.238l0.123 0.013c0.246 0.027 0.557 0.141 0.81 0.453l0.047-0.061c0.124-0.122 0.299-0.185 0.514-0.185l0.185 0.011c0.36 0.052 0.737 0.364 1.195 0.989l0.079 0.113c0.109-0.554 0.463-0.861 1.008-0.861l0.248 0.019c0.576 0.081 1.094 0.445 1.551 1.074 0.098-0.244 0.287-0.441 0.566-0.564 0.213-0.093 0.44-0.146 0.679-0.146 0.09 0 0.181 9e-3 0.273 0.023 0.548 0.075 1.031 0.385 1.432 0.915l0.042 0.06 0.219-0.256c0.18-0.162 0.384-0.238 0.598-0.238l0.127 9e-3c0.285 0.04 0.55 0.162 0.789 0.362 0.212 0.178 0.45 0.439 0.716 0.771 0.221 0.281 0.376 0.522 0.483 0.734l0.082 0.017h0.016c0.198 0.027 0.396 0.11 0.609 0.255-0.115-0.33-0.161-0.627-0.125-0.879 0.105-0.738 0.523-0.845 0.763-0.845l0.126 7e-3c0.371 0.053 0.765 0.354 1.201 0.908 0.054-0.173 0.15-0.323 0.293-0.441 0.154-0.13 0.334-0.2 0.531-0.2l0.129 9e-3c0.364 0.052 0.775 0.467 1.336 1.355l0.082 0.147c6e-3 -0.138 0.014-0.264 0.029-0.386 0.035-0.234 0.143-0.431 0.321-0.581 0.158-0.133 0.336-0.201 0.532-0.201l0.13 0.013c0.307 0.039 0.644 0.349 1.071 0.964 0.149-0.429 0.477-0.659 0.957-0.659l0.248 0.016c0.679 0.096 1.284 0.589 1.798 1.449 0.555 0.936 0.54 1.037 0.525 1.143" fill="#231f20"/>
  </g>
  <g transform="matrix(5.9869 0 0 -5.9869 -127.6 -15.04)">
   <path d="m0 0c0.693 1.399 1.267 2.127 1.717 2.192 0.043 5e-3 0.109-0.052 0.205-0.175-0.012-0.518-0.41-1.369-1.197-2.547-0.709-1.078-1.323-1.841-1.828-2.289 0.145 0.694 0.515 1.639 1.103 2.819m-0.23-3.819c-0.084-0.013-0.234-0.196-0.457-0.553-0.229-0.35-0.409-0.539-0.549-0.557l-0.051 5e-3 -0.147 0.224c-0.017 0.17 2e-3 0.426 0.055 0.773 0.068 0.371 0.137 0.605 0.222 0.695 0.38 0.418 0.663 0.734 0.854 0.947 1.097 1.267 1.886 2.515 2.371 3.744 0.116 0.288 0.159 0.554 0.125 0.789-0.033 0.226-0.224 0.321-0.584 0.268-0.732-0.108-1.533-0.929-2.386-2.47-0.692-1.239-1.166-2.465-1.436-3.683l-4e-3 -0.022-0.01 0.106c-0.113 0.814-0.586 1.287-1.416 1.441 0.557 0.247 1.005 0.55 1.331 0.897 0.421 0.45 0.597 0.934 0.527 1.458-0.088 0.61-0.471 1.028-1.147 1.256 0.151 0.046 0.256 0.088 0.322 0.115 0.155 0.071 0.237 0.133 0.24 0.19l-0.036 0.056-0.096-4e-3c-0.074-0.01-0.311-0.105-0.719-0.287-0.618 0.211-1.291 0.264-2.017 0.162-0.86-0.123-1.651-0.439-2.367-0.947-0.763-0.533-1.299-1.185-1.616-1.959-0.158-0.385-0.215-0.734-0.172-1.042 0.052-0.354 0.211-0.624 0.475-0.791 0.266-0.172 0.576-0.233 0.941-0.18 0.61 0.085 1.084 0.382 1.411 0.89 0.328 0.51 0.452 1.068 0.364 1.674l-0.015 0.1c-0.09 0.628-0.361 0.904-0.826 0.84-0.525-0.07-0.916-0.378-1.17-0.907-0.226-0.464-0.305-0.971-0.226-1.521l0.063-0.151c0.187 0.194 0.484 0.455 0.905 0.789 0.011 0.217 0.062 0.461 0.144 0.731 0.113 0.359 0.246 0.55 0.393 0.569 0.129 0.019 0.201-0.05 0.223-0.204 0.08-0.556-0.033-1.088-0.339-1.589-0.321-0.54-0.754-0.847-1.299-0.925-0.215-0.031-0.399 0.022-0.551 0.165-0.147 0.145-0.239 0.326-0.272 0.547-0.068 0.494 0.128 1.06 0.592 1.701 0.416 0.567 0.859 0.996 1.332 1.29 0.215 0.135 0.531 0.277 0.951 0.428 0.422 0.153 0.751 0.246 0.994 0.283l0.023-5e-3c0.048 0 0.112 5e-3 0.204 0.017 0.715 0.074 1.26 0.043 1.625-0.09-0.447-0.215-0.897-0.618-1.336-1.217-0.478-0.651-0.861-1.387-1.147-2.203-0.171-0.511-0.429-1.273-0.777-2.294-0.353-1.021-0.722-1.691-1.117-2.003-0.225-0.185-0.494-0.301-0.805-0.343-0.27-0.035-0.529-0.02-0.779 0.054-0.315 0.091-0.491 0.254-0.524 0.491-0.021 0.145 0.069 0.272 0.267 0.378 0.018 8e-3 0.187 0.071 0.497 0.193 0.183 0.124 0.252 0.317 0.215 0.598-0.027 0.188-0.115 0.33-0.258 0.423-0.146 0.1-0.308 0.13-0.496 0.105-0.293-0.038-0.51-0.186-0.65-0.442-0.14-0.253-0.192-0.528-0.149-0.825 0.068-0.478 0.305-0.812 0.707-1.008 0.358-0.174 0.782-0.231 1.28-0.159 1.334 0.192 2.306 0.899 2.927 2.123 0.254 0.498 0.6 1.668 1.036 3.51 0.328 1.373 0.766 2.217 1.316 2.535 0.232-0.179 0.373-0.444 0.425-0.793 0.057-0.418 0-0.916-0.181-1.497-0.205-0.678-0.488-1.051-0.853-1.098-0.058-8e-3 -0.149-9e-3 -0.267-2e-3s-0.203 7e-3 -0.267 0c-0.133-0.02-0.192-0.086-0.175-0.202 0.017-0.128 0.107-0.178 0.269-0.157 0.047 5e-3 0.117 0.025 0.211 0.06 0.096 0.031 0.166 0.055 0.214 0.061 0.149 0.021 0.27-0.061 0.372-0.244 0.076-0.144 0.125-0.299 0.15-0.471 0.093-0.661-0.052-1.396-0.437-2.203-0.264-0.564-0.548-0.866-0.848-0.905-0.29-0.041-0.464 0.119-0.512 0.487-0.05 0.339 0.117 0.724 0.501 1.152 0.138 0.145 0.205 0.236 0.201 0.26l-0.1 0.068c-0.217-0.027-0.416-0.233-0.602-0.613-0.185-0.38-0.263-0.688-0.232-0.912 0.078-0.543 0.429-0.767 1.055-0.676 0.609 0.082 1.136 0.419 1.571 0.997 0.171 0.232 0.305 0.462 0.392 0.698-0.016-0.23-0.01-0.447 0.015-0.631 0.026-0.168 0.103-0.306 0.229-0.415 0.127-0.11 0.276-0.149 0.447-0.127 0.268 0.039 0.648 0.45 1.142 1.233 0.242 0.391 0.36 0.628 0.352 0.708l-0.058 0.043" fill="#5ccaef"/>
  </g>
  <g transform="matrix(5.9869 0 0 -5.9869 -105.45 3.1785)">
   <path d="m0 0-0.054 0.107-0.042-8e-3c-0.038-0.024-0.138-0.211-0.306-0.556-0.169-0.341-0.38-0.571-0.638-0.698l-0.096 0.047c0.053 0.254 0.139 0.523 0.262 0.809 0.15 0.343 0.267 0.605 0.344 0.778l0.642 1.553-1.084-0.246c-0.141-0.478-0.359-1.072-0.664-1.782-0.401-0.944-0.692-1.426-0.873-1.458-0.067-3e-3 -0.129 0.045-0.187 0.143l-0.082 0.236c-0.045 0.318 0.043 0.796 0.269 1.439 0.184 0.53 0.385 0.989 0.604 1.385l-1.147-0.26-0.799-2.75c-0.051-0.159-0.061-0.301-0.043-0.435 0.027-0.185 0.115-0.343 0.27-0.477 0.16-0.137 0.328-0.191 0.51-0.165 0.396 0.053 0.68 0.303 0.853 0.738 0.131-0.256 0.207-0.399 0.234-0.42 0.096-0.098 0.254-0.127 0.465-0.1 0.278 0.039 0.618 0.336 1.019 0.881 0.401 0.547 0.585 0.963 0.543 1.239" fill="#5ccaef"/>
  </g>
  <g transform="matrix(5.9869 0 0 -5.9869 -95.694 -3.3406)">
   <path d="m0 0c0.275 0.594 0.524 0.91 0.745 0.941l0.093-5e-3c0.041-0.061 0.07-0.14 0.086-0.239 0.051-0.357-0.083-0.74-0.404-1.153-0.291-0.378-0.616-0.64-0.978-0.786 0.104 0.385 0.254 0.8 0.458 1.242m1.389-0.619c-0.084-0.016-0.212-0.154-0.393-0.431-0.252-0.384-0.438-0.637-0.552-0.768-0.252-0.282-0.52-0.444-0.805-0.482-0.121-0.02-0.192 0.056-0.215 0.216-0.02 0.141 3e-3 0.347 0.064 0.615 0.529 0.191 0.963 0.455 1.311 0.797 0.447 0.416 0.632 0.865 0.562 1.334-0.065 0.469-0.304 0.68-0.713 0.619-0.631-0.088-1.201-0.554-1.701-1.382-0.469-0.79-0.66-1.508-0.568-2.161 0.078-0.537 0.397-0.769 0.961-0.683 0.6 0.081 1.137 0.52 1.602 1.315 0.339 0.569 0.504 0.892 0.494 0.965l-0.047 0.046" fill="#5ccaef"/>
  </g>
  <g transform="matrix(5.9869 0 0 -5.9869 -71.15 -1.3877)">
   <path d="m0 0c-0.034 0.25-0.198 0.549-0.494 0.893-0.293 0.343-0.444 0.546-0.453 0.601-7e-3 0.072 0.031 0.187 0.121 0.344 0.094 0.148 0.139 0.236 0.135 0.256-0.016 0.094-0.075 0.133-0.168 0.118-0.079-7e-3 -0.153-0.11-0.229-0.299-0.103-0.241-0.262-0.503-0.476-0.778-0.198-0.24-0.395-0.479-0.59-0.711-0.291-0.356-0.432-0.57-0.428-0.62l0.115-0.085c0.024 6e-3 0.205 0.219 0.554 0.64 0.351 0.424 0.556 0.664 0.615 0.721l0.044-0.324c0.079-0.552 0.079-1.074 6e-3 -1.563-0.104-0.703-0.363-1.082-0.773-1.14-0.163-0.022-0.313 0.015-0.449 0.127l0.171 0.022c0.106 0.018 0.194 0.079 0.258 0.179 0.066 0.099 0.088 0.203 0.073 0.31-0.043 0.315-0.216 0.448-0.52 0.41-0.158-0.025-0.289-0.095-0.376-0.218-0.089-0.127-0.123-0.268-0.101-0.426 0.042-0.268 0.197-0.464 0.477-0.589 0.242-0.11 0.508-0.142 0.797-0.103 0.48 0.068 0.896 0.337 1.254 0.809 0.357 0.474 0.507 0.948 0.437 1.426" fill="#5ccaef"/>
  </g>
  <g transform="matrix(5.9869 0 0 -5.9869 -38.9 -20.196)">
   <path d="m0 0c0.234 0.033 0.387 0.095 0.459 0.181 0.069 0.089 0.087 0.255 0.055 0.492-0.044 0.291-0.178 0.428-0.41 0.392-0.098-0.017-0.227-0.076-0.385-0.179-0.155-0.113-0.233-0.209-0.215-0.297l0.062-0.446c0.022-0.13 0.164-0.178 0.434-0.143" fill="#5ccaef"/>
  </g>
  <g transform="matrix(5.9869 0 0 -5.9869 -56.264 -3.5682)">
   <path d="m0 0c-0.162 0.128-0.259 0.292-0.293 0.501-0.031 0.235 0.03 0.485 0.186 0.747s0.355 0.407 0.589 0.441c0.129 0.021 0.203-0.034 0.219-0.155 0.039-0.254-0.199-0.767-0.701-1.534m5.52 4.397c0.698 1.393 1.271 2.126 1.722 2.19 0.039 5e-3 0.104-0.059 0.199-0.182-0.01-0.514-0.41-1.365-1.196-2.543-0.712-1.083-1.319-1.842-1.828-2.291 0.149 0.699 0.515 1.643 1.103 2.826m-0.229-3.824c-0.08-0.013-0.234-0.193-0.459-0.548-0.224-0.356-0.407-0.54-0.545-0.561l-0.053 2e-3 -0.146 0.228c-0.018 0.168 3e-3 0.424 0.055 0.77 0.064 0.371 0.136 0.601 0.222 0.699 0.377 0.417 0.664 0.732 0.852 0.944 1.097 1.268 1.887 2.516 2.373 3.744 0.114 0.293 0.158 0.554 0.125 0.789-0.032 0.226-0.229 0.316-0.585 0.266-0.734-0.1-1.528-0.924-2.388-2.469-0.688-1.238-1.168-2.465-1.432-3.681l-0.04-0.222h-0.02c-0.105-0.08-0.232-0.286-0.377-0.622-0.137-0.301-0.322-0.512-0.565-0.636l-0.113 0.058c0.155 0.8 0.436 1.719 0.844 2.749l-1.069-0.151c-0.084-0.31-0.154-0.559-0.207-0.759h-7e-3c0.01 0-0.168-0.191-0.53-0.582-0.359-0.385-0.661-0.591-0.892-0.624l-0.1-0.018c0.558 0.862 0.801 1.543 0.733 2.035-0.057 0.396-0.233 0.576-0.52 0.533-0.33-0.045-0.596-0.322-0.794-0.832-0.173-0.456-0.238-0.857-0.188-1.212 0.039-0.257 0.176-0.478 0.416-0.658-0.302-0.632-0.647-0.973-1.037-1.03-0.051-0.01-0.11 0.034-0.164 0.127-0.061 0.095-0.096 0.179-0.102 0.246-0.047 0.317 0.044 0.796 0.266 1.44 0.182 0.53 0.388 0.991 0.604 1.384l-1.141-0.257-0.805-2.753c-0.045-0.158-0.059-0.305-0.039-0.438 0.021-0.181 0.115-0.342 0.27-0.48 0.156-0.133 0.327-0.188 0.507-0.161 0.236 0.033 0.455 0.132 0.655 0.299 0.197 0.168 0.42 0.415 0.676 0.734 0.253 0.318 0.422 0.589 0.505 0.81 0.1 0.016 0.181 0.031 0.254 0.037 0.381 0.056 0.825 0.408 1.334 1.041l-0.045-0.167-0.344-0.853c-0.136-0.341-0.187-0.631-0.15-0.873 0.062-0.45 0.252-0.649 0.576-0.607 0.309 0.046 0.668 0.334 1.079 0.875 0.168 0.215 0.292 0.418 0.387 0.589-0.017-0.235-0.015-0.453 0.011-0.648 0.029-0.164 0.101-0.305 0.232-0.413 0.124-0.106 0.276-0.144 0.442-0.126 0.271 0.038 0.652 0.447 1.145 1.23 0.244 0.395 0.362 0.629 0.353 0.709l-0.059 0.043" fill="#5ccaef"/>
  </g>
  <g transform="matrix(5.9869 0 0 -5.9869 -8.6618 -31.965)">
   <path d="m0 0c0.693 1.396 1.27 2.119 1.721 2.189 0.037 4e-3 0.105-0.054 0.2-0.179-0.011-0.515-0.409-1.367-1.194-2.55-0.715-1.072-1.323-1.837-1.831-2.287 0.149 0.7 0.516 1.641 1.104 2.827m1.27-2.537c0.271 0.596 0.518 0.908 0.74 0.938l0.095-6e-3c0.043-0.057 0.071-0.137 0.084-0.236 0.048-0.356-0.084-0.738-0.404-1.149-0.286-0.38-0.612-0.643-0.976-0.786 0.105 0.383 0.255 0.794 0.461 1.239m1.383-0.617c-0.082-0.014-0.211-0.155-0.391-0.427-0.252-0.392-0.44-0.644-0.552-0.773-0.253-0.282-0.521-0.444-0.802-0.482-0.122-0.019-0.195 0.055-0.217 0.216-0.019 0.143 2e-3 0.347 0.069 0.613 0.522 0.196 0.961 0.459 1.308 0.796 0.443 0.422 0.631 0.863 0.561 1.335-0.066 0.473-0.302 0.682-0.715 0.618-0.632-0.09-1.201-0.55-1.701-1.378-0.256-0.43-0.428-0.84-0.515-1.225-0.09-0.075-0.218-0.239-0.386-0.513-0.224-0.354-0.406-0.54-0.547-0.561l-0.051 3e-3 -0.146 0.227c-0.015 0.168 3e-3 0.426 0.056 0.769 0.062 0.375 0.133 0.606 0.22 0.703 0.38 0.417 0.666 0.727 0.854 0.944 1.095 1.266 1.888 2.514 2.371 3.742 0.118 0.292 0.158 0.554 0.123 0.787-0.032 0.231-0.225 0.323-0.581 0.272-0.735-0.11-0.964-0.507-1.822-2.05-0.687-1.237-1.734-2.882-2.002-4.105-0.143-0.668-0.189-1.204-0.127-1.621 0.022-0.168 0.098-0.31 0.227-0.418 0.129-0.109 0.277-0.149 0.449-0.129 0.268 0.039 0.646 0.453 1.141 1.233 0.056 0.096 0.109 0.178 0.153 0.255-0.013-0.165-7e-3 -0.324 0.014-0.475 0.08-0.541 0.399-0.767 0.965-0.688 0.594 0.088 1.131 0.521 1.603 1.32 0.333 0.567 0.501 0.891 0.489 0.963l-0.048 0.049" fill="#5ccaef"/>
  </g>
 </g>
</svg>
