<svg width="800" height="278.48" version="1.1" viewBox="0 0 211.67 73.68" xmlns="http://www.w3.org/2000/svg">
 <defs>
  <clipPath id="clipPath17770">
   <path d="m0 0h612v792h-612z"/>
  </clipPath>
  <clipPath id="clipPath17686">
   <path d="m0 0h612v792h-612z"/>
  </clipPath>
  <clipPath id="clipPath17626">
   <path d="m0 0h612v792h-612z"/>
  </clipPath>
  <clipPath id="clipPath17450">
   <path d="m0 0h612v792h-612z"/>
  </clipPath>
  <clipPath id="clipPath17426">
   <path d="m0 0h612v792h-612z"/>
  </clipPath>
  <clipPath id="clipPath17342">
   <path d="m0 0h612v792h-612z"/>
  </clipPath>
  <clipPath id="clipPath17282">
   <path d="m0 0h612v792h-612z"/>
  </clipPath>
  <linearGradient id="linearGradient21965" x2="1" gradientTransform="matrix(0 -5.3502 -5.3502 0 436.61 665.99)" gradientUnits="userSpaceOnUse">
   <stop stop-color="#85b2d2" offset="0"/>
   <stop stop-color="#85b2d2" offset=".004762"/>
   <stop stop-color="#85b2d2" offset=".80004"/>
   <stop stop-color="#233c56" offset="1"/>
  </linearGradient>
  <linearGradient id="linearGradient21967" x2="1" gradientTransform="matrix(0 -5.3551 -5.3551 0 440.43 665.99)" gradientUnits="userSpaceOnUse">
   <stop stop-color="#85b2d2" offset="0"/>
   <stop stop-color="#85b2d2" offset=".004762"/>
   <stop stop-color="#85b2d2" offset=".80004"/>
   <stop stop-color="#233c56" offset="1"/>
  </linearGradient>
  <linearGradient id="linearGradient21969" x2="1" gradientTransform="matrix(0 -5.3523 -5.3523 0 443.98 665.99)" gradientUnits="userSpaceOnUse">
   <stop stop-color="#85b2d2" offset="0"/>
   <stop stop-color="#85b2d2" offset=".004762"/>
   <stop stop-color="#85b2d2" offset=".80004"/>
   <stop stop-color="#233c56" offset="1"/>
  </linearGradient>
  <linearGradient id="linearGradient21971" x2="1" gradientTransform="matrix(0 -5.351 -5.351 0 447.87 665.99)" gradientUnits="userSpaceOnUse">
   <stop stop-color="#85b2d2" offset="0"/>
   <stop stop-color="#85b2d2" offset=".004762"/>
   <stop stop-color="#85b2d2" offset=".80004"/>
   <stop stop-color="#233c56" offset="1"/>
  </linearGradient>
  <linearGradient id="linearGradient21973" x2="1" gradientTransform="matrix(0 -5.3481 -5.3481 0 455.97 666)" gradientUnits="userSpaceOnUse">
   <stop stop-color="#85b2d2" offset="0"/>
   <stop stop-color="#85b2d2" offset=".004762"/>
   <stop stop-color="#85b2d2" offset=".80004"/>
   <stop stop-color="#233c56" offset="1"/>
  </linearGradient>
  <linearGradient id="linearGradient21975" x2="1" gradientTransform="matrix(0 -5.3514 -5.3514 0 459.61 665.99)" gradientUnits="userSpaceOnUse">
   <stop stop-color="#85b2d2" offset="0"/>
   <stop stop-color="#85b2d2" offset=".004762"/>
   <stop stop-color="#85b2d2" offset=".80004"/>
   <stop stop-color="#233c56" offset="1"/>
  </linearGradient>
  <linearGradient id="linearGradient21977" x2="1" gradientTransform="matrix(0 -5.3571 -5.3571 0 463.55 665.99)" gradientUnits="userSpaceOnUse">
   <stop stop-color="#85b2d2" offset="0"/>
   <stop stop-color="#85b2d2" offset=".004762"/>
   <stop stop-color="#85b2d2" offset=".80004"/>
   <stop stop-color="#233c56" offset="1"/>
  </linearGradient>
  <linearGradient id="linearGradient21979" x2="1" gradientTransform="matrix(0 -5.3532 -5.3532 0 467.22 665.99)" gradientUnits="userSpaceOnUse">
   <stop stop-color="#85b2d2" offset="0"/>
   <stop stop-color="#85b2d2" offset=".004762"/>
   <stop stop-color="#85b2d2" offset=".80004"/>
   <stop stop-color="#233c56" offset="1"/>
  </linearGradient>
  <linearGradient id="linearGradient21981" x2="1" gradientTransform="matrix(0 -5.3522 -5.3522 0 451.7 665.99)" gradientUnits="userSpaceOnUse">
   <stop stop-color="#85b2d2" offset="0"/>
   <stop stop-color="#85b2d2" offset=".004762"/>
   <stop stop-color="#85b2d2" offset=".80004"/>
   <stop stop-color="#233c56" offset="1"/>
  </linearGradient>
 </defs>
 <g transform="translate(197.25 41.283)">
  <g transform="matrix(6.0777 0 0 -6.0777 -92.358 -19.323)">
   <path d="m0 0c0.142 0 0.29-0.087 0.29-0.283-2e-3 -0.298-0.08-0.508-0.283-0.508-0.191-4e-3 -0.304 0.184-0.3 0.388v2.188c0 0.359 8e-3 0.574 0.206 0.574 0.18 0 0.328-0.204 0.386-1.294l0.176-0.206c-0.203 3e-3 -0.405 3e-3 -0.61 0v-0.859zm1.991 0.579v2.225c-0.223 0.257-0.449 0.51-0.673 0.767-0.243 7e-3 -0.485 0.011-0.731 0.015 1e-3 -0.118-0.015-0.238-0.063-0.238-0.064 0-0.19 0.081-0.32 0.144-0.197 0.079-0.404 0.125-0.7 0.121-0.953-0.013-1.756-0.864-1.756-1.969v-1.311c0-1.593 1.098-2.696 2.369-2.696 0.217 0 0.471 0.035 0.674 0.114 0.15 0.059 0.261 0.09 0.358 0.09 0.1-5e-3 0.185-0.088 0.248-0.175 0.161-7e-3 0.315-9e-3 0.473-0.014v1.371c0 0.182 0.106 0.258 0.24 0.247 0.092-2e-3 0.187-6e-3 0.281-9e-3v0.866c-0.132 0.154-0.267 0.305-0.4 0.452" fill="#231f20"/>
  </g>
  <g transform="matrix(6.0777 0 0 -6.0777 1.0217 2.3407)">
   <path d="m0 0c-0.286 0.11-0.524 0.384-0.674 0.621-0.121 0.192-0.329 0.6-0.463 0.929-0.156 0.055-0.319 0.105-0.479 0.16-0.268 0.688-0.786 1.274-1.527 1.747-0.518 0.327-0.59 0.478-0.59 0.682 0 0.236 0.132 0.366 0.415 0.285 0.318-0.09 0.449-0.473 0.507-0.835 0.238-0.29 0.469-0.581 0.704-0.873 0.168-0.054 0.341-0.107 0.509-0.164v0.11c0.228-0.662 0.662-1.206 1.038-1.557 0.308-0.278 0.941-0.658 0.941-0.949 0-0.206-0.223-0.215-0.381-0.156m-11.241 4.889-0.136 0.015v0.195c0 0.156 0.064 0.239 0.15 0.233l0.182-0.02 0.133-0.156c0-0.149-0.194-0.276-0.329-0.267m11.76-2.655c-0.51 0.375-0.58 0.528-0.58 0.73 0 0.241 0.129 0.355 0.406 0.254 0.31-0.116 0.443-0.519 0.497-0.885 0.23-0.31 0.457-0.623 0.686-0.932 0.162-0.072 0.33-0.14 0.5-0.215v1.648c-0.191 0.345-0.376 0.685-0.562 1.024-0.184 0.077-0.371 0.147-0.563 0.224l-0.171-0.044c-0.077 0.027-0.185 0.106-0.338 0.202-0.147 0.098-0.362 0.21-0.582 0.289-0.619 0.228-1.157 0.114-1.415-0.329-0.186 0.325-0.379 0.647-0.568 0.969-0.194 0.057-0.384 0.119-0.574 0.171l-0.178-0.059c-0.077 0.018-0.189 0.09-0.343 0.173-0.155 0.086-0.374 0.178-0.601 0.235-0.864 0.232-1.599-0.16-1.599-1.12 0-1.061 0.678-1.885 1.225-2.335 0.311-0.252 0.96-0.574 0.96-0.868 0-0.202-0.225-0.232-0.393-0.186-0.293 0.078-0.536 0.328-0.686 0.559-0.125 0.18-0.337 0.57-0.468 0.885-0.233 0.055-0.458 0.11-0.692 0.16v-0.747c-0.267 1.093-0.538 2.183-0.804 3.27-0.296 0.369-0.595 0.733-0.888 1.092-0.301 0.057-0.605 0.11-0.903 0.162-0.299-1.065-0.604-2.128-0.905-3.196l-0.055 0.073c-0.183 0.026-0.363 0.05-0.547 0.076 0.334 0.143 0.589 0.485 0.589 0.991 0 0.91-0.708 2.306-2.162 2.449-0.825 0.072-1.649 0.127-2.474 0.157v-0.727l0.259-0.051c0.152-0.028 0.262-0.145 0.262-0.504v-2.677c0-0.274-0.055-0.49-0.206-0.517-0.107-9e-3 -0.209-0.024-0.315-0.035v-0.717c0.17-0.228 0.346-0.453 0.513-0.681 0.778-0.038 1.553-0.097 2.329-0.174v0.669c-0.182 0.239-0.368 0.48-0.55 0.715v0.922c0.126-0.01 0.251-0.021 0.375-0.032 0.055-0.167 0.078-0.875 0.318-1.39 0.287-0.638 0.773-0.982 1.219-1.041l0.207-9e-3 0.016-0.018c0.672-0.096 1.344-0.206 2.014-0.326v0.276c0.067-0.107 0.135-0.213 0.205-0.32 0.685-0.13 1.362-0.276 2.039-0.434 0.226-0.055 0.449-0.11 0.672-0.167 0.049 0.072 0.116 0.268 0.226 0.239 0.105-0.026 0.234-0.132 0.359-0.252 0.16-0.152 0.467-0.318 0.797-0.414 0.458-0.134 0.905-0.035 1.19 0.267 0.146-0.241 0.296-0.486 0.447-0.732 0.22-0.075 0.441-0.151 0.664-0.231 0.049 0.075 0.114 0.259 0.224 0.22 0.099-0.035 0.231-0.154 0.35-0.283 0.155-0.164 0.459-0.357 0.781-0.486 0.76-0.292 1.478 0.052 1.478 1.043 0 1.181-0.611 2.188-1.685 2.99" fill="#231f20"/>
  </g>
  <g transform="matrix(6.0777 0 0 -6.0777 -136.01 -16.753)">
   <path d="m0 0c0-0.618-0.122-0.956-0.25-0.976-0.188-0.037-0.334 0.02-0.334 0.842v1.419c0 0.383 0.082 0.589 0.296 0.664 0.092 0.024 0.191 0.041 0.288 0.059zm-7.794-3.063c-0.072-0.028-0.118 0.082-0.118 0.253v0.53l0.262 0.086c0.122 0.046 0.19-0.057 0.19-0.2 0-0.274-0.204-0.62-0.334-0.669m-0.118 2.539c0 0.143 0.063 0.305 0.154 0.34l0.198 0.072c0.079 0.027 0.093-0.094 0.093-0.234 0-0.185-0.183-0.356-0.309-0.406l-0.136-0.046zm9.326 4.115v-0.158l-0.12 0.142c-0.605-0.081-1.205-0.175-1.805-0.287v-0.175l-0.14 0.147c-0.731-0.138-1.458-0.287-2.182-0.463v-0.719l0.249 0.011c0.151 0.015 0.258-0.064 0.258-0.43v-1.859c0-0.203 0.011-0.39 0.033-0.563-0.086 0.095-0.173 0.193-0.254 0.283-0.255-0.057-0.513-0.116-0.766-0.18v-0.442c0-0.29-0.14-0.516-0.287-0.553-0.125-0.031-0.281-0.015-0.281 0.193v1.962c0 0.425 0.123 0.625 0.265 0.675l0.242 0.103v0.618c-0.19 0.208-0.388 0.417-0.577 0.618-0.725-0.19-1.438-0.401-2.152-0.629v-0.723l0.244 0.03c0.147 0.033 0.26-0.048 0.26-0.403v-2.679c0-0.131-0.018-0.254-0.041-0.353-0.056 0.419-0.233 0.715-0.482 0.93 0.211 0.241 0.471 0.688 0.471 1.197 0 0.975-0.753 1.922-2.083 1.438-0.789-0.287-1.564-0.599-2.342-0.936v-0.719l0.242 0.055c0.141 0.046 0.246-0.022 0.246-0.382v-2.676c0-0.274-0.053-0.52-0.194-0.61-0.099-0.057-0.197-0.114-0.294-0.171v-0.723c0.161-0.152 0.319-0.303 0.477-0.458 0.897 0.375 1.798 0.721 2.708 1.036 0.393 0.13 0.73 0.406 0.956 0.746 0.109-0.112 0.218-0.219 0.326-0.334 1.207 0.375 2.425 0.693 3.65 0.958v0.978c0.375-0.642 1.01-0.817 1.688-0.697 0.9 0.158 1.634 0.757 1.634 1.927v2.236c0 0.423 0.127 0.605 0.272 0.644l0.256 0.066v0.445c0.03-0.07 0.044-0.168 0.044-0.302v-2.675c0-0.278-0.054-0.501-0.208-0.554-0.107-0.031-0.206-0.064-0.313-0.09v-0.724c0.172-0.195 0.344-0.387 0.512-0.589 1.165 0.144 2.339 0.241 3.511 0.289v1.903c-0.21 0.261-0.416 0.524-0.628 0.789-0.131-0.013-0.263-0.02-0.399-0.031v0.356c-0.232 0.287-0.469 0.576-0.704 0.863l-6e-3 0.198c-0.011 0.146 0.055 0.278 0.192 0.291 0.129 7e-3 0.167-0.083 0.167-0.248v-0.276c0.177-0.213 0.356-0.434 0.538-0.647 0.279 0.011 0.559 0.025 0.84 0.038v1.852c-0.21 0.257-0.416 0.515-0.628 0.769-1.132-0.063-2.265-0.17-3.395-0.328" fill="#231f20"/>
  </g>
  <g transform="matrix(6.0777 0 0 -6.0777 -2839 4031.3)">
   <path d="m436.94 667.2c-0.72-0.261-1.431-0.55-2.138-0.85v-0.448l0.24 0.069c0.154 0.03 0.244-0.165 0.244-0.531v-2.716c0-0.362-0.063-0.614-0.244-0.729l-0.24-0.145v-0.441c0.773 0.326 1.55 0.635 2.34 0.92 0.766 0.278 1.274 0.945 1.274 1.924 0 0.439-0.148 0.753-0.469 0.919v5e-3c0.161 0.184 0.436 0.627 0.436 1.216 0 0.597-0.273 0.942-0.795 0.942-0.185 0-0.401-0.044-0.648-0.135m-0.796-1.453c0 0.379 0.097 0.633 0.253 0.693 0.181 0.07 0.367 0.137 0.543 0.203 0.249 0.094 0.523-0.14 0.523-0.635 0-0.423-0.219-0.765-0.638-0.919-0.229-0.083-0.455-0.171-0.681-0.26zm0-2.679v1.221c0.219 0.085 0.439 0.167 0.659 0.25 0.407 0.153 0.66-0.11 0.66-0.601 0-0.442-0.224-1.016-0.638-1.173-0.142-0.054-0.285-0.107-0.428-0.162l-0.059-0.012c-0.121 0-0.194 0.164-0.194 0.477" fill="url(#linearGradient21965)"/>
  </g>
  <g transform="matrix(6.0777 0 0 -6.0777 -2839 4031.3)">
   <path d="m438.78 667.84v-0.448l0.246 0.038c0.157 0.017 0.247-0.182 0.247-0.553v-2.716c0-0.362-0.062-0.607-0.247-0.705l-0.246-0.116v-0.45c1.084 0.349 2.186 0.653 3.288 0.909v1.61c-0.165-0.035-0.328-0.077-0.493-0.117v-0.433c0-0.377-0.197-0.605-0.744-0.748-0.572-0.154-0.679 0.061-0.679 0.511v2.514c0 0.368 0.095 0.621 0.25 0.699l0.249 0.108v0.445c-0.627-0.171-1.249-0.351-1.871-0.548" fill="url(#linearGradient21967)"/>
  </g>
  <g transform="matrix(6.0777 0 0 -6.0777 -2839 4031.3)">
   <path d="m444.37 669.22v-0.444l0.246 4e-3c0.22 5e-3 0.269-0.287 0.269-0.581v-2.135c0-0.988-0.294-1.292-0.705-1.366-0.641-0.116-0.737 0.329-0.737 1.561v1.677c0 0.364 0.096 0.614 0.253 0.673l0.254 0.09v0.448c-0.638-0.117-1.272-0.258-1.9-0.406v-0.445l0.252 0.019c0.159 0 0.252-0.204 0.252-0.568v-1.868c0-1.376 0.319-1.928 1.571-1.696 0.815 0.151 1.262 0.614 1.262 2.092v2c0 0.299 0.045 0.606 0.26 0.67l0.254 0.076v0.445c-0.511-0.068-1.022-0.153-1.531-0.246" fill="url(#linearGradient21969)"/>
  </g>
  <g transform="matrix(6.0777 0 0 -6.0777 -2839 4031.3)">
   <path d="m446.3 669.52v-0.443l0.256-9e-3c0.158-9e-3 0.255-0.229 0.255-0.598v-2.714c0-0.359-0.065-0.605-0.255-0.66l-0.256-0.07v-0.45c1.039 0.139 2.088 0.24 3.137 0.303v1.773c-0.167-0.01-0.334-0.021-0.507-0.032v-0.384c4e-3 -0.489-0.133-0.892-0.693-0.938-0.407-0.044-0.526 0.168-0.526 0.489v1.284c0.263 0.026 0.526 0.053 0.791 0.076v0.556c-0.265-0.022-0.528-0.049-0.791-0.073v1.021c0 0.358 0.119 0.562 0.526 0.595 0.375 0.037 0.693-0.248 0.693-0.835v-0.329c0.173 0.011 0.34 0.018 0.507 0.03v1.71c-1.049-0.061-2.098-0.16-3.137-0.302" fill="url(#linearGradient21971)"/>
  </g>
  <g transform="matrix(6.0777 0 0 -6.0777 -2839 4031.3)">
   <g clip-path="url(#clipPath17282)">
    <g transform="translate(448.44 665.81)">
     <path d="m0 0c0-0.127 0.028-0.243 0.111-0.234 0.097 0.01 0.247 0.206 0.247 0.672v0.123c-0.119-9e-3 -0.241-0.019-0.358-0.03z" fill="#231f20"/>
    </g>
   </g>
  </g>
  <g transform="matrix(6.0777 0 0 -6.0777 -2839 4031.3)">
   <path d="m453.77 669.42 0.257-0.052c0.161-0.038 0.253-0.27 0.253-0.638v-2.718c0-0.362-0.06-0.583-0.253-0.614l-0.257-0.028v-0.45c0.659-0.027 1.317-0.065 1.977-0.118v0.447l-0.185 0.039c-0.288 0.053-0.373 0.307-0.373 0.669v1.041c0.248-0.019 0.499-0.041 0.748-0.061 0.369-0.035 0.498-0.544 0.544-1.001 0.114-0.972 0.346-1.29 0.919-1.356 0.471-0.061 0.772 0.174 0.772 1.267v0.362c-0.155 0.022-0.308 0.042-0.461 0.06v-0.356c0-0.175-0.033-0.427-0.148-0.418-0.132 0.019-0.163 0.236-0.202 0.685-0.04 0.437-0.144 0.755-0.419 0.979v0.014c0.304 0.134 0.585 0.447 0.585 1.077 0 0.804-0.479 1.376-1.501 1.471-0.752 0.07-1.502 0.114-2.256 0.145zm2.256-1.744c-0.279 0.025-0.556 0.048-0.837 0.065v0.895c0 0.377 0.104 0.462 0.272 0.451 0.188-0.015 0.378-0.033 0.565-0.048 0.266-0.024 0.545-0.256 0.545-0.749 0-0.402-0.248-0.617-0.5-0.617z" fill="url(#linearGradient21973)"/>
  </g>
  <g transform="matrix(6.0777 0 0 -6.0777 -2839 4031.3)">
   <path d="m458.37 666.12c-0.225-0.777-0.36-0.99-0.559-1.028l-0.178-0.035v-0.445c0.565-0.072 1.126-0.158 1.688-0.251v0.449l-0.206 0.089c-0.176 0.093-0.292 0.445-0.176 0.893l0.063 0.226c0.321-0.054 0.643-0.11 0.962-0.171l0.055-0.246c0.129-0.616 0.032-0.802-0.175-0.829l-0.206-0.014v-0.452c0.652-0.115 1.297-0.241 1.944-0.382v0.447l-0.219 0.136c-0.134 0.072-0.267 0.327-0.41 0.906-0.31 1.264-0.623 2.518-0.934 3.772-0.244 0.044-0.493 0.09-0.736 0.129-0.306-1.061-0.608-2.126-0.913-3.194" fill="url(#linearGradient21975)"/>
  </g>
  <g transform="matrix(6.0777 0 0 -6.0777 -2839 4031.3)">
   <g clip-path="url(#clipPath17342)">
    <g transform="translate(459.18 666.66)">
     <path d="m0 0c0.11 0.388 0.222 0.769 0.336 1.153l0.031-9e-3c0.086-0.415 0.172-0.829 0.262-1.243-0.206 0.035-0.421 0.075-0.629 0.099" fill="#231f20"/>
    </g>
   </g>
  </g>
  <g transform="matrix(6.0777 0 0 -6.0777 -2839 4031.3)">
   <path d="m461.97 667.48c0-0.783 0.283-1.284 0.989-1.759 0.207-0.136 0.408-0.273 0.612-0.416 0.258-0.177 0.668-0.486 0.668-0.934 0-0.311-0.237-0.525-0.568-0.435-0.529 0.142-0.923 0.501-1.117 0.861-0.129 0.232-0.204 0.42-0.242 0.643-0.136 0.029-0.264 0.061-0.394 0.093v-1.69c0.13-0.026 0.258-0.059 0.394-0.092 0.067 0.127 0.154 0.258 0.279 0.228 0.127-0.026 0.268-0.136 0.445-0.267 0.177-0.13 0.442-0.305 0.736-0.388 0.797-0.222 1.4 0.188 1.4 1.076 0 0.941-0.448 1.51-1.47 2.103-0.593 0.335-0.876 0.543-0.867 0.988 0 0.311 0.206 0.598 0.643 0.478 0.331-0.088 0.712-0.461 0.854-0.68 0.119-0.184 0.211-0.429 0.265-0.684 0.127-0.035 0.254-0.072 0.384-0.114v1.478c-0.13 0.035-0.257 0.076-0.384 0.116l-0.21-0.057c-0.116 0.033-0.23 0.105-0.359 0.177-0.147 0.093-0.401 0.209-0.644 0.277-0.141 0.037-0.276 0.055-0.405 0.055-0.581 0-1.009-0.374-1.009-1.057" fill="url(#linearGradient21977)"/>
  </g>
  <g transform="matrix(6.0777 0 0 -6.0777 -2839 4031.3)">
   <path d="m465.68 666.44c0-0.783 0.279-1.307 0.97-1.846 0.197-0.154 0.397-0.31 0.594-0.469 0.253-0.205 0.655-0.545 0.655-0.991 0-0.316-0.233-0.507-0.553-0.386-0.521 0.191-0.907 0.583-1.097 0.962-0.122 0.238-0.201 0.435-0.24 0.66-0.127 0.044-0.256 0.086-0.385 0.127v-1.686c0.129-0.043 0.258-0.087 0.385-0.129 0.071 0.119 0.154 0.248 0.279 0.204 0.121-0.039 0.261-0.162 0.439-0.307 0.17-0.149 0.428-0.344 0.717-0.451 0.776-0.292 1.365 0.056 1.365 0.949 0 0.938-0.435 1.552-1.437 2.233-0.577 0.384-0.853 0.621-0.846 1.068 0 0.305 0.201 0.575 0.627 0.416 0.33-0.116 0.701-0.522 0.837-0.754 0.115-0.193 0.204-0.451 0.257-0.707 0.127-0.049 0.252-0.095 0.372-0.147v1.475c-0.12 0.05-0.245 0.103-0.372 0.149-0.053-0.036-0.109-0.073-0.203-0.036-0.118 0.044-0.227 0.128-0.349 0.214-0.14 0.104-0.395 0.241-0.631 0.326-0.18 0.067-0.353 0.1-0.512 0.1-0.509 0-0.872-0.337-0.872-0.974" fill="url(#linearGradient21979)"/>
  </g>
  <g transform="matrix(6.0777 0 0 -6.0777 -2839 4031.3)">
   <path d="m451.48 669.95c-1.051-0.013-1.663-0.945-1.663-1.824v-1.313c0-0.965 0.487-1.927 1.689-1.911 0.255 4e-3 0.505 0.03 0.631 0.083 0.129 0.054 0.241 0.107 0.33 0.107l0.177-0.142c0.141 0 0.282-4e-3 0.42-7e-3v1.238c0 0.233 0.052 0.411 0.243 0.406 0.09-4e-3 0.183-6e-3 0.275-9e-3v0.596c-0.547 0.018-1.098 0.027-1.649 0.027v-0.603l0.135 2e-3c0.158 0 0.285-0.116 0.285-0.411 0-0.654-0.375-0.777-0.72-0.783-0.514-7e-3 -0.733 0.624-0.728 1.065v2.089c-5e-3 0.437 0.093 0.875 0.575 0.886 0.624 1e-3 0.873-1.079 0.882-1.853 0.278-1e-3 0.549-0.01 0.828-0.015v2.332c-0.188 5e-3 -0.366 5e-3 -0.546 0.012 0-0.106-0.035-0.252-0.13-0.252-0.121 3e-3 -0.253 0.083-0.384 0.137-0.195 0.089-0.402 0.143-0.622 0.143z" fill="url(#linearGradient21981)"/>
  </g>
  <g transform="matrix(6.0777 0 0 -6.0777 -2839 4031.3)">
   <g clip-path="url(#clipPath17426)">
    <g transform="translate(450.9 663.42)">
     <path d="m0 0-0.258 0.513-0.196 0.061z" fill="#fff"/>
    </g>
    <g transform="translate(445.87 663.3)">
     <path d="m0 0 0.501-0.215-0.359 0.36z" fill="#fff"/>
    </g>
    <g transform="translate(457.94 662.81)">
     <path d="m0 0 0.334 0.335-0.175 0.05z" fill="#fff"/>
    </g>
    <g transform="translate(454.78 663.76)">
     <path d="m0 0 0.586-0.806-0.16 0.478-0.259 0.434z" fill="#fff"/>
    </g>
   </g>
  </g>
  <g transform="matrix(6.0777 0 0 -6.0777 -2839 4031.3)">
   <g clip-path="url(#clipPath17450)">
    <g transform="translate(465.21 662.4)">
     <path d="m0 0c1.226 0 2.217-0.989 2.217-2.218 0-1.226-0.991-2.219-2.217-2.219h-26.776c-1.22 0-2.219 0.993-2.219 2.219 0 1.229 0.999 2.218 2.219 2.218z" fill="#231f20"/>
    </g>
    <g transform="translate(439.86 661.76)">
     <path d="m0 0-0.044 0.039 0.041 0.024h0.998l0.036-0.024-0.042-0.039-0.192-0.129-0.059-0.121v-2.245c0-0.635-0.352-0.719-0.706-0.719-0.555 0-0.678 0.489-0.678 0.91l0.053 0.053 0.063-0.042c0.101-0.524 0.302-0.702 0.482-0.702 0.172 0 0.29 0.097 0.29 0.314v2.431l-0.048 0.121z" fill="#fff"/>
    </g>
    <g transform="translate(442.75 661.51)">
     <path d="m0 0-0.054 0.121-0.202 0.129-0.029 0.039 0.037 0.024h0.98l0.038-0.024-0.033-0.039-0.201-0.129-0.051-0.121v-2.376c0-0.191 0.031-0.369 0.328-0.369 0.237 0 0.3 0.178 0.3 0.369v2.376l-0.047 0.121-0.204 0.129-0.029 0.039 0.038 0.024h0.877l0.039-0.024-0.03-0.039-0.199-0.129-0.052-0.121v-2.493c0-0.267-0.304-0.471-0.743-0.471-0.5 0-0.763 0.204-0.763 0.471z" fill="#fff"/>
    </g>
    <g transform="translate(446.36 661.51)">
     <path d="m0 0-0.062 0.121-0.157 0.129-0.047 0.042 0.041 0.021h0.766l0.077-0.076 0.589-1.879h0.016v1.642l-0.06 0.116-0.18 0.134-0.042 0.042 0.037 0.021h0.847l0.037-0.021-0.046-0.042-0.159-0.129-0.055-0.121v-2.911l-0.067-0.053h-0.27l-0.126 0.11-0.749 2.378h-0.015v-2.172l0.064-0.117 0.174-0.133 0.047-0.042-0.042-0.024h-0.843l-0.041 0.024 0.047 0.042 0.157 0.129 0.062 0.121z" fill="#fff"/>
    </g>
    <g transform="translate(451.32 660.7)">
     <path d="m0 0-0.035-0.038-0.052 0.049c-0.076 0.362-0.263 0.886-0.59 0.886-0.28 0-0.332-0.417-0.332-1.335 0-1.309 0.141-1.504 0.429-1.504 0.352 0 0.485 0.804 0.485 0.843l0.051 0.038 0.044-0.044c0-0.642-0.138-1.057-0.698-1.057-0.754 0-0.838 0.998-0.838 1.726 0 0.537 0.034 1.552 0.838 1.552 0.097 0 0.21-0.04 0.301-0.093l0.113-0.026 0.121 0.055 0.119 0.064 0.044-0.077z" fill="#fff"/>
    </g>
    <g transform="translate(453.6 661.61)">
     <path d="m0 0h-0.236l-0.07-0.051-0.332-0.872-0.053-0.024-0.032 0.028v1.107l0.032 0.018h1.876l0.032-0.018v-1.107l-0.032-0.028-0.05 0.024-0.332 0.872-0.071 0.051h-0.236v-2.756l0.049-0.12 0.19-0.129 0.047-0.038-0.038-0.028h-0.993l-0.037 0.028 0.045 0.038 0.188 0.129 0.053 0.12z" fill="#fff"/>
    </g>
    <g transform="translate(456.68 661.51)">
     <path d="m0 0-0.058 0.121-0.191 0.129-0.047 0.039 0.041 0.024h1.005l0.04-0.024-0.049-0.039-0.192-0.129-0.057-0.121v-2.648l0.057-0.121 0.192-0.129 0.049-0.038-0.04-0.028h-1.005l-0.041 0.028 0.047 0.038 0.191 0.129 0.058 0.121z" fill="#fff"/>
    </g>
    <g transform="translate(459.55 660.26)">
     <path d="m0 0c0-1.136 0.145-1.504 0.327-1.504 0.194 0 0.334 0.368 0.334 1.504 0 0.967-0.14 1.335-0.334 1.335-0.182 0-0.327-0.368-0.327-1.335m1.184 2e-3c0-0.822-0.081-1.725-0.857-1.725-0.77 0-0.852 0.903-0.852 1.725 0 0.629 0.082 1.552 0.852 1.552 0.776 0 0.857-0.923 0.857-1.552" fill="#fff"/>
    </g>
    <g transform="translate(462.56 661.51)">
     <path d="m0 0-0.057 0.121-0.161 0.129-0.044 0.042 0.039 0.021h0.769l0.076-0.076 0.589-1.879h0.015v1.642l-0.058 0.116-0.184 0.134-0.044 0.042 0.042 0.021h0.84l0.044-0.021-0.049-0.042-0.157-0.129-0.058-0.121v-2.911l-0.064-0.053h-0.272l-0.126 0.11-0.75 2.378h-0.014v-2.172l0.065-0.117 0.171-0.133 0.049-0.042-0.039-0.024h-0.845l-0.039 0.024 0.044 0.042 0.161 0.129 0.057 0.121z" fill="#fff"/>
    </g>
    <g transform="translate(437.15 660.1)">
     <path d="m0 0c0.039-0.232 0.23-0.415 0.473-0.439 0.245-0.019 0.466 0.132 0.542 0.351zm0.564 0.612c-0.245 0.021-0.462-0.123-0.54-0.347l1.015-0.09c-0.041 0.228-0.23 0.419-0.475 0.437" fill="#7b7979"/>
    </g>
    <g transform="translate(465.53 659.91)">
     <path d="m0 0c0.12-0.199 0.364-0.302 0.603-0.228 0.233 0.07 0.383 0.29 0.371 0.526zm0.297 0.781c-0.239-0.073-0.382-0.292-0.375-0.529l0.977 0.298c-0.126 0.2-0.369 0.303-0.602 0.231" fill="#7b7979"/>
    </g>
    <g transform="translate(438.4 662.28)">
     <path d="m0 0c0 0.23 0.187 0.421 0.419 0.421 0.235 0 0.424-0.191 0.424-0.421 0-0.234-0.189-0.427-0.424-0.427-0.232 0-0.419 0.193-0.419 0.427" fill="#231f20"/>
    </g>
    <g transform="translate(438.4 662.28)">
     <path d="m0 0c0 0.23 0.187 0.421 0.419 0.421 0.235 0 0.424-0.191 0.424-0.421 0-0.234-0.189-0.427-0.424-0.427-0.232 0-0.419 0.193-0.419 0.427z" fill="none" stroke="#231f20" stroke-linecap="round" stroke-linejoin="round" stroke-width=".207"/>
    </g>
    <g transform="translate(465.24 662.38)">
     <path d="m0 0c0 0.18 0.118 0.327 0.26 0.327 0.144 0 0.259-0.147 0.259-0.327s-0.115-0.327-0.259-0.327c-0.142 0-0.26 0.147-0.26 0.327" fill="#231f20"/>
    </g>
    <g transform="translate(465.24 662.38)">
     <path d="m0 0c0 0.18 0.118 0.327 0.26 0.327 0.144 0 0.259-0.147 0.259-0.327s-0.115-0.327-0.259-0.327c-0.142 0-0.26 0.147-0.26 0.327z" fill="none" stroke="#231f20" stroke-linecap="round" stroke-linejoin="round" stroke-width=".207"/>
    </g>
    <g transform="translate(451.93 666.47)">
     <path d="m0 0c0.142 0 0.29-0.087 0.29-0.283-2e-3 -0.298-0.08-0.508-0.283-0.508-0.191-4e-3 -0.304 0.184-0.3 0.388v2.188c0 0.359 8e-3 0.574 0.206 0.574 0.18 0 0.328-0.204 0.386-1.294l0.176-0.206c-0.203 3e-3 -0.405 3e-3 -0.61 0v-0.859zm1.991 0.579v2.225c-0.223 0.257-0.449 0.51-0.673 0.767-0.243 7e-3 -0.485 0.011-0.731 0.015 1e-3 -0.118-0.015-0.238-0.063-0.238-0.064 0-0.19 0.081-0.32 0.144-0.197 0.079-0.404 0.125-0.7 0.121-0.953-0.013-1.756-0.864-1.756-1.969v-1.311c0-1.593 1.098-2.696 2.369-2.696 0.217 0 0.471 0.035 0.674 0.114 0.15 0.059 0.261 0.09 0.358 0.09 0.1-5e-3 0.185-0.088 0.248-0.175 0.161-7e-3 0.315-9e-3 0.473-0.014v1.371c0 0.182 0.106 0.258 0.24 0.247 0.092-2e-3 0.187-6e-3 0.281-9e-3v0.866c-0.132 0.154-0.267 0.305-0.4 0.452" fill="#231f20"/>
    </g>
    <g transform="translate(467.29 662.91)">
     <path d="m0 0c-0.286 0.11-0.524 0.384-0.674 0.621-0.121 0.192-0.329 0.6-0.463 0.929-0.156 0.055-0.319 0.105-0.479 0.16-0.268 0.688-0.786 1.274-1.527 1.747-0.518 0.327-0.59 0.478-0.59 0.682 0 0.236 0.132 0.366 0.415 0.285 0.318-0.09 0.449-0.473 0.507-0.835 0.238-0.29 0.469-0.581 0.704-0.873 0.168-0.054 0.341-0.107 0.509-0.164v0.11c0.228-0.662 0.662-1.206 1.038-1.557 0.308-0.278 0.941-0.658 0.941-0.949 0-0.206-0.223-0.215-0.381-0.156m-11.241 4.889-0.136 0.015v0.195c0 0.156 0.064 0.239 0.15 0.233l0.182-0.02 0.133-0.156c0-0.149-0.194-0.276-0.329-0.267m11.76-2.655c-0.51 0.375-0.58 0.528-0.58 0.73 0 0.241 0.129 0.355 0.406 0.254 0.31-0.116 0.443-0.519 0.497-0.885 0.23-0.31 0.457-0.623 0.686-0.932 0.162-0.072 0.33-0.14 0.5-0.215v1.648c-0.191 0.345-0.376 0.685-0.562 1.024-0.184 0.077-0.371 0.147-0.563 0.224l-0.171-0.044c-0.077 0.027-0.185 0.106-0.338 0.202-0.147 0.098-0.362 0.21-0.582 0.289-0.619 0.228-1.157 0.114-1.415-0.329-0.186 0.325-0.379 0.647-0.568 0.969-0.194 0.057-0.384 0.119-0.574 0.171l-0.178-0.059c-0.077 0.018-0.189 0.09-0.343 0.173-0.155 0.086-0.374 0.178-0.601 0.235-0.864 0.232-1.599-0.16-1.599-1.12 0-1.061 0.678-1.885 1.225-2.335 0.311-0.252 0.96-0.574 0.96-0.868 0-0.202-0.225-0.232-0.393-0.186-0.293 0.078-0.536 0.328-0.686 0.559-0.125 0.18-0.337 0.57-0.468 0.885-0.233 0.055-0.458 0.11-0.692 0.16v-0.747c-0.267 1.093-0.538 2.183-0.804 3.27-0.296 0.369-0.595 0.733-0.888 1.092-0.301 0.057-0.605 0.11-0.903 0.162-0.299-1.065-0.604-2.128-0.905-3.196l-0.055 0.073c-0.183 0.026-0.363 0.05-0.547 0.076 0.334 0.143 0.589 0.485 0.589 0.991 0 0.91-0.708 2.306-2.162 2.449-0.825 0.072-1.649 0.127-2.474 0.157v-0.727l0.259-0.051c0.152-0.028 0.262-0.145 0.262-0.504v-2.677c0-0.274-0.055-0.49-0.206-0.517-0.107-9e-3 -0.209-0.024-0.315-0.035v-0.717c0.17-0.228 0.346-0.453 0.513-0.681 0.778-0.038 1.553-0.097 2.329-0.174v0.669c-0.182 0.239-0.368 0.48-0.55 0.715v0.922c0.126-0.01 0.251-0.021 0.375-0.032 0.055-0.167 0.078-0.875 0.318-1.39 0.287-0.638 0.773-0.982 1.219-1.041l0.207-9e-3 0.016-0.018c0.672-0.096 1.344-0.206 2.014-0.326v0.276c0.067-0.107 0.135-0.213 0.205-0.32 0.685-0.13 1.362-0.276 2.039-0.434 0.226-0.055 0.449-0.11 0.672-0.167 0.049 0.072 0.116 0.268 0.226 0.239 0.105-0.026 0.234-0.132 0.359-0.252 0.16-0.152 0.467-0.318 0.797-0.414 0.458-0.134 0.905-0.035 1.19 0.267 0.146-0.241 0.296-0.486 0.447-0.732 0.22-0.075 0.441-0.151 0.664-0.231 0.049 0.075 0.114 0.259 0.224 0.22 0.099-0.035 0.231-0.154 0.35-0.283 0.155-0.164 0.459-0.357 0.781-0.486 0.76-0.292 1.478 0.052 1.478 1.043 0 1.181-0.611 2.188-1.685 2.99" fill="#231f20"/>
    </g>
    <g transform="translate(444.74 666.05)">
     <path d="m0 0c0-0.618-0.122-0.956-0.25-0.976-0.188-0.037-0.334 0.02-0.334 0.842v1.419c0 0.383 0.082 0.589 0.296 0.664 0.092 0.024 0.191 0.041 0.288 0.059zm-7.794-3.063c-0.072-0.028-0.118 0.082-0.118 0.253v0.53l0.262 0.086c0.122 0.046 0.19-0.057 0.19-0.2 0-0.274-0.204-0.62-0.334-0.669m-0.118 2.539c0 0.143 0.063 0.305 0.154 0.34l0.198 0.072c0.079 0.027 0.093-0.094 0.093-0.234 0-0.185-0.183-0.356-0.309-0.406l-0.136-0.046zm9.326 4.115v-0.158l-0.12 0.142c-0.605-0.081-1.205-0.175-1.805-0.287v-0.175l-0.14 0.147c-0.731-0.138-1.458-0.287-2.182-0.463v-0.719l0.249 0.011c0.151 0.015 0.258-0.064 0.258-0.43v-1.859c0-0.203 0.011-0.39 0.033-0.563-0.086 0.095-0.173 0.193-0.254 0.283-0.255-0.057-0.513-0.116-0.766-0.18v-0.442c0-0.29-0.14-0.516-0.287-0.553-0.125-0.031-0.281-0.015-0.281 0.193v1.962c0 0.425 0.123 0.625 0.265 0.675l0.242 0.103v0.618c-0.19 0.208-0.388 0.417-0.577 0.618-0.725-0.19-1.438-0.401-2.152-0.629v-0.723l0.244 0.03c0.147 0.033 0.26-0.048 0.26-0.403v-2.679c0-0.131-0.018-0.254-0.041-0.353-0.056 0.419-0.233 0.715-0.482 0.93 0.211 0.241 0.471 0.688 0.471 1.197 0 0.975-0.753 1.922-2.083 1.438-0.789-0.287-1.564-0.599-2.342-0.936v-0.719l0.242 0.055c0.141 0.046 0.246-0.022 0.246-0.382v-2.676c0-0.274-0.053-0.52-0.194-0.61-0.099-0.057-0.197-0.114-0.294-0.171v-0.723c0.161-0.152 0.319-0.303 0.477-0.458 0.897 0.375 1.798 0.721 2.708 1.036 0.393 0.13 0.73 0.406 0.956 0.746 0.109-0.112 0.218-0.219 0.326-0.334 1.207 0.375 2.425 0.693 3.65 0.958v0.978c0.375-0.642 1.01-0.817 1.688-0.697 0.9 0.158 1.634 0.757 1.634 1.927v2.236c0 0.423 0.127 0.605 0.272 0.644l0.256 0.066v0.445c0.03-0.07 0.044-0.168 0.044-0.302v-2.675c0-0.278-0.054-0.501-0.208-0.554-0.107-0.031-0.206-0.064-0.313-0.09v-0.724c0.172-0.195 0.344-0.387 0.512-0.589 1.165 0.144 2.339 0.241 3.511 0.289v1.903c-0.21 0.261-0.416 0.524-0.628 0.789-0.131-0.013-0.263-0.02-0.399-0.031v0.356c-0.232 0.287-0.469 0.576-0.704 0.863l-6e-3 0.198c-0.011 0.146 0.055 0.278 0.192 0.291 0.129 7e-3 0.167-0.083 0.167-0.248v-0.276c0.177-0.213 0.356-0.434 0.538-0.647 0.279 0.011 0.559 0.025 0.84 0.038v1.852c-0.21 0.257-0.416 0.515-0.628 0.769-1.132-0.063-2.265-0.17-3.395-0.328" fill="#231f20"/>
    </g>
   </g>
  </g>
  <g transform="matrix(6.0777 0 0 -6.0777 -2839 4031.3)">
   <path d="m436.94 667.2c-0.72-0.261-1.431-0.55-2.138-0.85v-0.448l0.24 0.069c0.154 0.03 0.244-0.165 0.244-0.531v-2.716c0-0.362-0.063-0.614-0.244-0.729l-0.24-0.145v-0.441c0.773 0.326 1.55 0.635 2.34 0.92 0.766 0.278 1.274 0.945 1.274 1.924 0 0.439-0.148 0.753-0.469 0.919v5e-3c0.161 0.184 0.436 0.627 0.436 1.216 0 0.597-0.273 0.942-0.795 0.942-0.185 0-0.401-0.044-0.648-0.135m-0.796-1.453c0 0.379 0.097 0.633 0.253 0.693 0.181 0.07 0.367 0.137 0.543 0.203 0.249 0.094 0.523-0.14 0.523-0.635 0-0.423-0.219-0.765-0.638-0.919-0.229-0.083-0.455-0.171-0.681-0.26zm0-2.679v1.221c0.219 0.085 0.439 0.167 0.659 0.25 0.407 0.153 0.66-0.11 0.66-0.601 0-0.442-0.224-1.016-0.638-1.173-0.142-0.054-0.285-0.107-0.428-0.162l-0.059-0.012c-0.121 0-0.194 0.164-0.194 0.477" fill="url(#linearGradient21965)"/>
  </g>
  <g transform="matrix(6.0777 0 0 -6.0777 -2839 4031.3)">
   <path d="m438.78 667.84v-0.448l0.246 0.038c0.157 0.017 0.247-0.182 0.247-0.553v-2.716c0-0.362-0.062-0.607-0.247-0.705l-0.246-0.116v-0.45c1.084 0.349 2.186 0.653 3.288 0.909v1.61c-0.165-0.035-0.328-0.077-0.493-0.117v-0.433c0-0.377-0.197-0.605-0.744-0.748-0.572-0.154-0.679 0.061-0.679 0.511v2.514c0 0.368 0.095 0.621 0.25 0.699l0.249 0.108v0.445c-0.627-0.171-1.249-0.351-1.871-0.548" fill="url(#linearGradient21967)"/>
  </g>
  <g transform="matrix(6.0777 0 0 -6.0777 -2839 4031.3)">
   <path d="m444.37 669.22v-0.444l0.246 4e-3c0.22 5e-3 0.269-0.287 0.269-0.581v-2.135c0-0.988-0.294-1.292-0.705-1.366-0.641-0.116-0.737 0.329-0.737 1.561v1.677c0 0.364 0.096 0.614 0.253 0.673l0.254 0.09v0.448c-0.638-0.117-1.272-0.258-1.9-0.406v-0.445l0.252 0.019c0.159 0 0.252-0.204 0.252-0.568v-1.868c0-1.376 0.319-1.928 1.571-1.696 0.815 0.151 1.262 0.614 1.262 2.092v2c0 0.299 0.045 0.606 0.26 0.67l0.254 0.076v0.445c-0.511-0.068-1.022-0.153-1.531-0.246" fill="url(#linearGradient21969)"/>
  </g>
  <g transform="matrix(6.0777 0 0 -6.0777 -2839 4031.3)">
   <path d="m446.3 669.52v-0.443l0.256-9e-3c0.158-9e-3 0.255-0.229 0.255-0.598v-2.714c0-0.359-0.065-0.605-0.255-0.66l-0.256-0.07v-0.45c1.039 0.139 2.088 0.24 3.137 0.303v1.773c-0.167-0.01-0.334-0.021-0.507-0.032v-0.384c4e-3 -0.489-0.133-0.892-0.693-0.938-0.407-0.044-0.526 0.168-0.526 0.489v1.284c0.263 0.026 0.526 0.053 0.791 0.076v0.556c-0.265-0.022-0.528-0.049-0.791-0.073v1.021c0 0.358 0.119 0.562 0.526 0.595 0.375 0.037 0.693-0.248 0.693-0.835v-0.329c0.173 0.011 0.34 0.018 0.507 0.03v1.71c-1.049-0.061-2.098-0.16-3.137-0.302" fill="url(#linearGradient21971)"/>
  </g>
  <g transform="matrix(6.0777 0 0 -6.0777 -2839 4031.3)">
   <g clip-path="url(#clipPath17626)">
    <g transform="translate(448.44 665.81)">
     <path d="m0 0c0-0.127 0.028-0.243 0.111-0.234 0.097 0.01 0.247 0.206 0.247 0.672v0.123c-0.119-9e-3 -0.241-0.019-0.358-0.03z" fill="#231f20"/>
    </g>
   </g>
  </g>
  <g transform="matrix(6.0777 0 0 -6.0777 -2839 4031.3)">
   <path d="m453.77 669.42 0.257-0.052c0.161-0.038 0.253-0.27 0.253-0.638v-2.718c0-0.362-0.06-0.583-0.253-0.614l-0.257-0.028v-0.45c0.659-0.027 1.317-0.065 1.977-0.118v0.447l-0.185 0.039c-0.288 0.053-0.373 0.307-0.373 0.669v1.041c0.248-0.019 0.499-0.041 0.748-0.061 0.369-0.035 0.498-0.544 0.544-1.001 0.114-0.972 0.346-1.29 0.919-1.356 0.471-0.061 0.772 0.174 0.772 1.267v0.362c-0.155 0.022-0.308 0.042-0.461 0.06v-0.356c0-0.175-0.033-0.427-0.148-0.418-0.132 0.019-0.163 0.236-0.202 0.685-0.04 0.437-0.144 0.755-0.419 0.979v0.014c0.304 0.134 0.585 0.447 0.585 1.077 0 0.804-0.479 1.376-1.501 1.471-0.752 0.07-1.502 0.114-2.256 0.145zm2.256-1.744c-0.279 0.025-0.556 0.048-0.837 0.065v0.895c0 0.377 0.104 0.462 0.272 0.451 0.188-0.015 0.378-0.033 0.565-0.048 0.266-0.024 0.545-0.256 0.545-0.749 0-0.402-0.248-0.617-0.5-0.617z" fill="url(#linearGradient21973)"/>
  </g>
  <g transform="matrix(6.0777 0 0 -6.0777 -2839 4031.3)">
   <path d="m458.37 666.12c-0.225-0.777-0.36-0.99-0.559-1.028l-0.178-0.035v-0.445c0.565-0.072 1.126-0.158 1.688-0.251v0.449l-0.206 0.089c-0.176 0.093-0.292 0.445-0.176 0.893l0.063 0.226c0.321-0.054 0.643-0.11 0.962-0.171l0.055-0.246c0.129-0.616 0.032-0.802-0.175-0.829l-0.206-0.014v-0.452c0.652-0.115 1.297-0.241 1.944-0.382v0.447l-0.219 0.136c-0.134 0.072-0.267 0.327-0.41 0.906-0.31 1.264-0.623 2.518-0.934 3.772-0.244 0.044-0.493 0.09-0.736 0.129-0.306-1.061-0.608-2.126-0.913-3.194" fill="url(#linearGradient21975)"/>
  </g>
  <g transform="matrix(6.0777 0 0 -6.0777 -2839 4031.3)">
   <g clip-path="url(#clipPath17686)">
    <g transform="translate(459.18 666.66)">
     <path d="m0 0c0.11 0.388 0.222 0.769 0.336 1.153l0.031-9e-3c0.086-0.415 0.172-0.829 0.262-1.243-0.206 0.035-0.421 0.075-0.629 0.099" fill="#231f20"/>
    </g>
   </g>
  </g>
  <g transform="matrix(6.0777 0 0 -6.0777 -2839 4031.3)">
   <path d="m461.97 667.48c0-0.783 0.283-1.284 0.989-1.759 0.207-0.136 0.408-0.273 0.612-0.416 0.258-0.177 0.668-0.486 0.668-0.934 0-0.311-0.237-0.525-0.568-0.435-0.529 0.142-0.923 0.501-1.117 0.861-0.129 0.232-0.204 0.42-0.242 0.643-0.136 0.029-0.264 0.061-0.394 0.093v-1.69c0.13-0.026 0.258-0.059 0.394-0.092 0.067 0.127 0.154 0.258 0.279 0.228 0.127-0.026 0.268-0.136 0.445-0.267 0.177-0.13 0.442-0.305 0.736-0.388 0.797-0.222 1.4 0.188 1.4 1.076 0 0.941-0.448 1.51-1.47 2.103-0.593 0.335-0.876 0.543-0.867 0.988 0 0.311 0.206 0.598 0.643 0.478 0.331-0.088 0.712-0.461 0.854-0.68 0.119-0.184 0.211-0.429 0.265-0.684 0.127-0.035 0.254-0.072 0.384-0.114v1.478c-0.13 0.035-0.257 0.076-0.384 0.116l-0.21-0.057c-0.116 0.033-0.23 0.105-0.359 0.177-0.147 0.093-0.401 0.209-0.644 0.277-0.141 0.037-0.276 0.055-0.405 0.055-0.581 0-1.009-0.374-1.009-1.057" fill="url(#linearGradient21977)"/>
  </g>
  <g transform="matrix(6.0777 0 0 -6.0777 -2839 4031.3)">
   <path d="m465.68 666.44c0-0.783 0.279-1.307 0.97-1.846 0.197-0.154 0.397-0.31 0.594-0.469 0.253-0.205 0.655-0.545 0.655-0.991 0-0.316-0.233-0.507-0.553-0.386-0.521 0.191-0.907 0.583-1.097 0.962-0.122 0.238-0.201 0.435-0.24 0.66-0.127 0.044-0.256 0.086-0.385 0.127v-1.686c0.129-0.043 0.258-0.087 0.385-0.129 0.071 0.119 0.154 0.248 0.279 0.204 0.121-0.039 0.261-0.162 0.439-0.307 0.17-0.149 0.428-0.344 0.717-0.451 0.776-0.292 1.365 0.056 1.365 0.949 0 0.938-0.435 1.552-1.437 2.233-0.577 0.384-0.853 0.621-0.846 1.068 0 0.305 0.201 0.575 0.627 0.416 0.33-0.116 0.701-0.522 0.837-0.754 0.115-0.193 0.204-0.451 0.257-0.707 0.127-0.049 0.252-0.095 0.372-0.147v1.475c-0.12 0.05-0.245 0.103-0.372 0.149-0.053-0.036-0.109-0.073-0.203-0.036-0.118 0.044-0.227 0.128-0.349 0.214-0.14 0.104-0.395 0.241-0.631 0.326-0.18 0.067-0.353 0.1-0.512 0.1-0.509 0-0.872-0.337-0.872-0.974" fill="url(#linearGradient21979)"/>
  </g>
  <g transform="matrix(6.0777 0 0 -6.0777 -2839 4031.3)">
   <path d="m451.48 669.95c-1.051-0.013-1.663-0.945-1.663-1.824v-1.313c0-0.965 0.487-1.927 1.689-1.911 0.255 4e-3 0.505 0.03 0.631 0.083 0.129 0.054 0.241 0.107 0.33 0.107l0.177-0.142c0.141 0 0.282-4e-3 0.42-7e-3v1.238c0 0.233 0.052 0.411 0.243 0.406 0.09-4e-3 0.183-6e-3 0.275-9e-3v0.596c-0.547 0.018-1.098 0.027-1.649 0.027v-0.603l0.135 2e-3c0.158 0 0.285-0.116 0.285-0.411 0-0.654-0.375-0.777-0.72-0.783-0.514-7e-3 -0.733 0.624-0.728 1.065v2.089c-5e-3 0.437 0.093 0.875 0.575 0.886 0.624 1e-3 0.873-1.079 0.882-1.853 0.278-1e-3 0.549-0.01 0.828-0.015v2.332c-0.188 5e-3 -0.366 5e-3 -0.546 0.012 0-0.106-0.035-0.252-0.13-0.252-0.121 3e-3 -0.253 0.083-0.384 0.137-0.195 0.089-0.402 0.143-0.622 0.143z" fill="url(#linearGradient21981)"/>
  </g>
  <g transform="matrix(6.0777 0 0 -6.0777 -2839 4031.3)">
   <g clip-path="url(#clipPath17770)">
    <g transform="translate(450.9 663.42)">
     <path d="m0 0-0.258 0.513-0.196 0.061z" fill="#fff"/>
    </g>
    <g transform="translate(445.87 663.3)">
     <path d="m0 0 0.501-0.215-0.359 0.36z" fill="#fff"/>
    </g>
    <g transform="translate(457.94 662.81)">
     <path d="m0 0 0.334 0.335-0.175 0.05z" fill="#fff"/>
    </g>
    <g transform="translate(454.78 663.76)">
     <path d="m0 0 0.586-0.806-0.16 0.478-0.259 0.434z" fill="#fff"/>
    </g>
   </g>
  </g>
  <g transform="matrix(6.0777 0 0 -6.0777 -8.3082 5.8421)">
   <path d="m0 0 8e-3 0.042c0 0.179-0.115 0.326-0.259 0.326-0.135 0-0.246-0.134-0.258-0.3h-26.035c-0.053 0.171-0.208 0.3-0.397 0.3-0.188 0-0.341-0.129-0.399-0.3-1.218-7e-3 -2.201-1-2.201-2.218 0-1.226 0.999-2.219 2.219-2.219h26.776c1.226 0 2.217 0.993 2.217 2.219 0 1.034-0.708 1.904-1.671 2.15" fill="#231f20"/>
  </g>
  <g transform="matrix(6.0777 0 0 -6.0777 -165.66 9.3586)">
   <path d="m0 0-0.044 0.039 0.041 0.024h0.998l0.036-0.024-0.042-0.039-0.192-0.129-0.059-0.121v-2.245c0-0.635-0.352-0.719-0.706-0.719-0.555 0-0.678 0.489-0.678 0.91l0.053 0.053 0.063-0.042c0.101-0.524 0.302-0.702 0.482-0.702 0.172 0 0.29 0.097 0.29 0.314v2.431l-0.048 0.121z" fill="#fff"/>
  </g>
  <g transform="matrix(6.0777 0 0 -6.0777 -148.15 10.878)">
   <path d="m0 0-0.054 0.121-0.202 0.129-0.029 0.039 0.037 0.024h0.98l0.038-0.024-0.033-0.039-0.201-0.129-0.051-0.121v-2.376c0-0.191 0.031-0.369 0.328-0.369 0.237 0 0.3 0.178 0.3 0.369v2.376l-0.047 0.121-0.204 0.129-0.029 0.039 0.038 0.024h0.877l0.039-0.024-0.03-0.039-0.199-0.129-0.052-0.121v-2.493c0-0.267-0.304-0.471-0.743-0.471-0.5 0-0.763 0.204-0.763 0.471z" fill="#fff"/>
  </g>
  <g transform="matrix(6.0777 0 0 -6.0777 -126.19 10.878)">
   <path d="m0 0-0.062 0.121-0.157 0.129-0.047 0.042 0.041 0.021h0.766l0.077-0.076 0.589-1.879h0.016v1.642l-0.06 0.116-0.18 0.134-0.042 0.042 0.037 0.021h0.847l0.037-0.021-0.046-0.042-0.159-0.129-0.055-0.121v-2.911l-0.067-0.053h-0.27l-0.126 0.11-0.749 2.378h-0.015v-2.172l0.064-0.117 0.174-0.133 0.047-0.042-0.042-0.024h-0.843l-0.041 0.024 0.047 0.042 0.157 0.129 0.062 0.121z" fill="#fff"/>
  </g>
  <g transform="matrix(6.0777 0 0 -6.0777 -96.061 15.754)">
   <path d="m0 0-0.035-0.038-0.052 0.049c-0.076 0.362-0.263 0.886-0.59 0.886-0.28 0-0.332-0.417-0.332-1.335 0-1.309 0.141-1.504 0.429-1.504 0.352 0 0.485 0.804 0.485 0.843l0.051 0.038 0.044-0.044c0-0.642-0.138-1.057-0.698-1.057-0.754 0-0.838 0.998-0.838 1.726 0 0.537 0.034 1.552 0.838 1.552 0.097 0 0.21-0.04 0.301-0.093l0.113-0.026 0.121 0.055 0.119 0.064 0.044-0.077z" fill="#fff"/>
  </g>
  <g transform="matrix(6.0777 0 0 -6.0777 -82.167 10.225)">
   <path d="m0 0h-0.236l-0.07-0.051-0.332-0.872-0.053-0.024-0.032 0.028v1.107l0.032 0.018h1.876l0.032-0.018v-1.107l-0.032-0.028-0.05 0.024-0.332 0.872-0.071 0.051h-0.236v-2.756l0.049-0.12 0.19-0.129 0.047-0.038-0.038-0.028h-0.993l-0.037 0.028 0.045 0.038 0.188 0.129 0.053 0.12z" fill="#fff"/>
  </g>
  <g transform="matrix(6.0777 0 0 -6.0777 -63.488 10.878)">
   <path d="m0 0-0.058 0.121-0.191 0.129-0.047 0.039 0.041 0.024h1.005l0.04-0.024-0.049-0.039-0.192-0.129-0.057-0.121v-2.648l0.057-0.121 0.192-0.129 0.049-0.038-0.04-0.028h-1.005l-0.041 0.028 0.047 0.038 0.191 0.129 0.058 0.121z" fill="#fff"/>
  </g>
  <g transform="matrix(6.0777 0 0 -6.0777 -46.027 18.419)">
   <path d="m0 0c0-1.136 0.145-1.504 0.327-1.504 0.194 0 0.334 0.368 0.334 1.504 0 0.967-0.14 1.335-0.334 1.335-0.182 0-0.327-0.368-0.327-1.335m1.184 2e-3c0-0.822-0.081-1.725-0.857-1.725-0.77 0-0.852 0.903-0.852 1.725 0 0.629 0.082 1.552 0.852 1.552 0.776 0 0.857-0.923 0.857-1.552" fill="#fff"/>
  </g>
  <g transform="matrix(6.0777 0 0 -6.0777 -27.734 10.878)">
   <path d="m0 0-0.057 0.121-0.161 0.129-0.044 0.042 0.039 0.021h0.769l0.076-0.076 0.589-1.879h0.015v1.642l-0.058 0.116-0.184 0.134-0.044 0.042 0.042 0.021h0.84l0.044-0.021-0.049-0.042-0.157-0.129-0.058-0.121v-2.911l-0.064-0.053h-0.272l-0.126 0.11-0.75 2.378h-0.014v-2.172l0.065-0.117 0.171-0.133 0.049-0.042-0.039-0.024h-0.845l-0.039 0.024 0.044 0.042 0.161 0.129 0.057 0.121z" fill="#fff"/>
  </g>
  <g transform="matrix(6.0777 0 0 -6.0777 -182.19 19.446)">
   <path d="m0 0c0.039-0.232 0.23-0.415 0.473-0.439 0.245-0.019 0.466 0.132 0.542 0.351zm0.564 0.612c-0.245 0.021-0.462-0.123-0.54-0.347l1.015-0.09c-0.041 0.228-0.23 0.419-0.475 0.437" fill="#7b7979"/>
  </g>
  <g transform="matrix(6.0777 0 0 -6.0777 -9.6854 20.579)">
   <path d="m0 0c0.12-0.199 0.364-0.302 0.603-0.228 0.233 0.07 0.383 0.29 0.371 0.526zm0.297 0.781c-0.239-0.073-0.382-0.292-0.375-0.529l0.977 0.298c-0.126 0.2-0.369 0.303-0.602 0.231" fill="#7b7979"/>
  </g>
 </g>
</svg>
