<svg width="800" height="337.56" version="1.1" viewBox="0 0 211.67 89.312" xmlns="http://www.w3.org/2000/svg">
 <defs>
  <clipPath id="clipPath16950">
   <path d="m268.94 256.46h0.131v4.02h-0.131z"/>
  </clipPath>
  <clipPath id="clipPath16938">
   <path d="m264.43 256.68h0.157v3.841h-0.157z"/>
  </clipPath>
  <clipPath id="clipPath16926">
   <path d="m274.12 256.21h0.08v4.929h-0.08z"/>
  </clipPath>
 </defs>
 <g transform="translate(197.25 56.915)">
  <g transform="matrix(6.5288 0 0 -6.5288 -179.32 -35.945)">
   <path d="m0 0 3.089 0.135c0.837 0.035 1.566-0.339 2.16-1.107 0 0 0.225-0.361 0.341-0.549 0.113 0.182 0.334 0.535 0.334 0.535 0.084 0.111 0.17 0.212 0.263 0.308-0.584 0.66-1.281 0.985-2.08 0.948 0 0-2.665-0.114-2.938-0.124v3.066l-2.998-0.267v-0.046l1.871 0.164z" fill="#231f20"/>
  </g>
  <g transform="matrix(6.5288 0 0 -6.5288 -82.928 -30.704)">
   <path d="m0 0s0.362-0.528 0.498-0.72c0.166 0.254 0.515 0.784 0.515 0.784l0.06 0.069c-0.79 0.878-1.748 1.306-2.845 1.264l-3.715-0.157c-0.255-0.013-0.503-0.059-0.744-0.127l3.443 0.147c1.073 0.046 2.015-0.381 2.788-1.26" fill="#231f20"/>
  </g>
  <g transform="matrix(6.5288 0 0 -6.5288 4.6043 -34.243)">
   <path d="m0 0c-0.963 0.947-2.14 1.402-3.485 1.345l-4.894-0.207c-0.31-0.01-0.619-0.056-0.91-0.134l4.784 0.203c1.317 0.054 2.462-0.386 3.406-1.317 0.835-0.818 1.32-1.83 1.441-2.997 0.051-0.248 0.075-0.504 0.08-0.78v-4.149h-0.047v-1.081l-5.062 0.293s0.01 4.852 0.01 5.054h-0.028v-4.019l-0.132 8e-3v-1.034l-4.353 0.254v0.992l-0.156 7e-3v-0.996l-3.294 0.19v-9e-3l14.143-0.821v5.552c-0.014 1.445-0.521 2.672-1.503 3.646" fill="#231f20"/>
  </g>
  <g transform="matrix(6.5288 0 0 -6.5288 -83.91 12.497)">
   <path d="m0 0c-0.701-0.701-1.521-1.065-2.47-1.016l-3.012 0.283-0.599 0.037v-2.256l1.131-0.096v2.163c0.253-0.013 3.5-0.2 3.5-0.2 0.519-0.03 1.003 0.075 1.45 0.291z" fill="#231f20"/>
  </g>
  <g transform="matrix(6.5288 0 0 -6.5288 -146.65 9.1635)">
   <path d="m0 0c-0.585-0.645-1.271-0.987-2.063-0.937l-2.234 0.123 0.259-0.029 2.993-0.173c0.372-0.021 0.721 0.048 1.045 0.192z" fill="#231f20"/>
  </g>
  <g transform="matrix(6.5288 0 0 -6.5288 -158.74 -10.627)">
   <path d="m0 0 0.01 0.026 0.013 0.038h-0.025l-0.015-0.046z" fill="#231f20"/>
  </g>
  <g transform="matrix(6.5288 0 0 -6.5288 -100.63 -9.6007)">
   <path d="m0 0h0.028l4e-3 0.026-0.016 0.047-2e-3 9e-3 -0.029-0.03z" fill="#231f20"/>
  </g>
  <g transform="matrix(6.5288 0 0 -6.5288 -179.01 -10.653)">
   <path d="m0 0h0.013l0.011 0.062z" fill="#231f20"/>
  </g>
  <g transform="matrix(6.5288 0 0 -6.5288 -125.25 -10.308)">
   <path d="m0 0 0.014-0.073 0.012-2e-3 -0.012 0.075z" fill="#231f20"/>
  </g>
  <g transform="matrix(6.5288 0 0 -6.5288 -1782.8 1690.9)">
   <g clip-path="url(#clipPath16926)">
    <g transform="translate(274.15 256.21)">
     <path d="m0 0h0.047v4.15c-5e-3 0.275-0.029 0.531-0.08 0.78 0.018-0.187 0.03-0.375 0.033-0.573z" fill="#231f20"/>
    </g>
   </g>
  </g>
  <g transform="matrix(6.5288 0 0 -6.5288 -1782.8 1690.9)">
   <g clip-path="url(#clipPath16938)">
    <g transform="translate(264.43 260.52)">
     <path d="m0 0v-3.835l0.155-7e-3v3.83z" fill="#231f20"/>
    </g>
   </g>
  </g>
  <g transform="matrix(6.5288 0 0 -6.5288 -1782.8 1690.9)">
   <g clip-path="url(#clipPath16950)">
    <g transform="translate(268.94 256.46)">
     <path d="m0 0 0.132-8e-3v4.02h-0.132z" fill="#231f20"/>
    </g>
   </g>
  </g>
  <g transform="matrix(6.5288 0 0 -6.5288 -179.01 -10.653)">
   <path d="m0 0 0.024 0.062 8e-3 0.038-0.032 4e-3h0.032l0.011 0.074 3.084-0.013-0.025-0.105h0.025l-0.013-0.038-0.01-0.026 0.023-0.04h-0.056l-0.026-0.094-3.045 0.029 0.013 0.109zm0.041-0.676 3.004-0.047c0.16-4e-3 0.3 0.066 0.416 0.218 0.121 0.148 0.184 0.328 0.184 0.535 0 0.205-0.05 0.376-0.145 0.513-0.1 0.137-0.222 0.206-0.373 0.206l-3.06-3e-3c-0.149-8e-3 -0.274-0.073-0.369-0.215-0.094-0.14-0.144-0.308-0.144-0.516 0-0.194 0.043-0.355 0.135-0.489 0.088-0.13 0.207-0.198 0.352-0.202" fill="#96d550"/>
  </g>
  <g transform="matrix(6.5288 0 0 -6.5288 -128.12 11.223)">
   <path d="m0 0v-2.268l-2.183 0.168v5.467c0 0.904 0.247 1.672 0.741 2.309 0.502 0.644 1.122 0.984 1.863 1.008l3.717 0.127c0.854 0.025 1.6-0.312 2.22-1.028 0.628-0.722 0.947-1.61 0.947-2.656 0-0.997-0.302-1.839-0.895-2.518-0.582-0.67-1.285-0.98-2.1-0.943l-3.639 0.179c-0.231 9e-3 -0.456 0.067-0.671 0.155m-3.11 1.061c-0.499-0.629-1.094-0.924-1.783-0.891l-2.997 0.145c-0.591 0.025-1.095 0.34-1.522 0.938-0.417 0.587-0.622 1.28-0.622 2.084v6.007l1.652 0.128v-3.13c0.2 0.075 0.38 0.111 0.542 0.12l3.088 0.099c0.659 0.027 1.22-0.267 1.684-0.876 0.478-0.614 0.714-1.368 0.714-2.257 0-0.937-0.251-1.723-0.756-2.367m11.627 4.805c0.64 0.741 1.444 1.137 2.426 1.168l4.885 0.163c1.05 0.033 1.956-0.316 2.707-1.068 0.761-0.762 1.152-1.708 1.159-2.841v-4.373l-3.111 0.151v4.188c0 0.242-0.079 0.461-0.246 0.638-0.157 0.176-0.355 0.269-0.583 0.276l-1.186-3e-3v-4.998l-2.565 0.122v4.868l-1.069-2e-3c-0.23-8e-3 -0.414-0.098-0.572-0.275-0.154-0.179-0.23-0.393-0.23-0.639v-3.861l-2.562 0.123v3.68c4e-3 1.051 0.32 1.945 0.947 2.683m-4.201-6.862c0.957-0.057 1.792 0.311 2.482 1.08l0.186 0.209v-1.445c0.183-9e-3 3.583-0.202 3.787-0.214v4.602l0.075 0.196h0.503v-4.834c0.184-8e-3 3.723-0.217 3.928-0.226v5.033l0.582-4e-3s-8e-3 -4.908-8e-3 -5.063c0.189-8e-3 4.435-0.262 4.644-0.266v5.212c-0.012 1.357-0.486 2.506-1.408 3.423-0.901 0.886-1.996 1.307-3.254 1.254l-4.89-0.207c-1.134-0.045-2.09-0.519-2.842-1.404l-0.584-0.881-0.101-0.132-0.652 0.944c-0.733 0.833-1.614 1.23-2.624 1.187l-3.713-0.157c-0.859-0.034-1.594-0.439-2.182-1.201l-0.407-0.648-0.098-0.147-0.502 0.81c-0.549 0.711-1.217 1.056-1.981 1.023l-3.09-0.136-0.18-0.018v3.064c-0.131-0.01-0.366-0.033-0.366-0.033l-1.999-0.079v-6.607c0-0.952 0.247-1.786 0.734-2.479 0.486-0.69 1.08-1.062 1.762-1.104l2.99-0.169c0.801-0.046 1.5 0.297 2.083 1.022l0.187 0.233v-3.509c0.173-0.019 2.896-0.248 3.104-0.263v2.06l0.085 0.092z" fill="#96d550"/>
  </g>
  <g transform="matrix(6.5288 0 0 -6.5288 -119.7 17.285)">
   <path d="m0 0-0.599 0.059v-0.022z" fill="#96d550"/>
  </g>
  <g transform="matrix(6.5288 0 0 -6.5288 -124.97 -9.1157)">
   <path d="m0 0-0.017 0.108-0.012 1e-3 -0.014 0.074h0.014l-0.014 0.105 3.716-4e-3 0.028-0.101h0.056l-0.015-0.027 2e-3 -9e-3 0.017-0.046-4e-3 -0.027h-0.028l0.028-0.104zm3.772-0.693c0.194-7e-3 0.345 0.067 0.465 0.22 0.12 0.154 0.175 0.342 0.175 0.569 0 0.244-0.072 0.446-0.216 0.612-0.144 0.159-0.314 0.237-0.523 0.237l-3.709-4e-3c-0.175 0-0.314-0.074-0.427-0.217-0.11-0.142-0.17-0.326-0.17-0.534 0-0.232 0.06-0.428 0.177-0.582 0.115-0.153 0.27-0.235 0.456-0.24z" fill="#96d550"/>
  </g>
  <g transform="matrix(6.5288 0 0 -6.5288 -124.41 16.304)">
   <path d="m0 0-0.085-0.092v-2.059c-0.209 0.014-2.932 0.243-3.104 0.262v3.509l-0.188-0.232c-0.582-0.726-1.281-1.069-2.082-1.023l-2.99 0.169c-0.683 0.042-1.277 0.414-1.763 1.105-0.487 0.692-0.734 1.526-0.734 2.478v6.608l2 0.079s0.234 0.022 0.366 0.032v-3.064l0.18 0.018 3.089 0.137c0.764 0.032 1.432-0.313 1.982-1.024l0.502-0.81 0.097 0.147 0.408 0.649c0.588 0.761 1.323 1.167 2.181 1.201l3.713 0.156c1.011 0.043 1.892-0.353 2.624-1.186l0.653-0.945 0.1 0.132 0.584 0.881c0.752 0.886 1.708 1.359 2.843 1.404l4.89 0.207c1.257 0.053 2.352-0.368 3.253-1.254 0.922-0.917 1.397-2.066 1.409-3.423v-5.211c-0.209 3e-3 -4.455 0.257-4.645 0.265 0 0.155 9e-3 5.064 9e-3 5.064l-0.582 4e-3v-5.034c-0.205 9e-3 -3.744 0.218-3.929 0.226v4.834h-0.503l-0.074-0.195v-4.603c-0.204 0.012-3.604 0.205-3.787 0.214v1.445l-0.187-0.209c-0.689-0.769-1.525-1.136-2.481-1.08zm10.416 0.18v3.835l0.155-0.012v-4.822l4.354-0.254v5.046h0.16c0-0.202-0.01-5.055-0.01-5.055l5.062-0.293v5.437c-3e-3 0.199-0.015 0.387-0.033 0.574-0.122 1.166-0.606 2.178-1.441 2.996-0.944 0.932-2.089 1.371-3.406 1.317l-4.784-0.203-0.105-1e-3c-1.168-0.045-2.153-0.524-2.94-1.412l-0.061-0.066s-0.348-0.533-0.515-0.787c-0.135 0.192-0.497 0.72-0.497 0.72-0.773 0.879-1.715 1.306-2.789 1.26l-3.443-0.146-0.271-8e-3c-0.803-0.038-1.498-0.367-2.075-0.981-0.093-0.097-0.179-0.197-0.263-0.308 0 0-0.221-0.353-0.334-0.535-0.117 0.188-0.341 0.549-0.341 0.549-0.594 0.768-1.323 1.142-2.16 1.107l-3.089-0.135 0.042 3.062-1.871-0.163-0.821-0.073-0.096-6.712c0-0.994 0.26-1.87 0.771-2.599 0.528-0.748 1.178-1.145 1.924-1.195l0.758-0.044 2.234-0.123c0.792-0.05 1.478 0.293 2.063 0.938v-3.179l3.529-0.297v2.29l0.599-0.058 3.012-0.283c0.949-0.049 1.769 0.315 2.47 1.016v-1.155l0.918-0.054 3.294-0.189z" fill="#2654ab"/>
  </g>
  <g transform="matrix(6.5288 0 0 -6.5288 -159.13 -9.7535)">
   <path d="m0 0 0.026 0.094h0.056l-0.022 0.04-0.017 0.018 0.015 0.046 0.024 0.105-3.084 0.012-0.011-0.073h-0.032l0.032-5e-3 -7e-3 -0.037-0.012-0.062-0.013-0.11z" fill="#2654ab"/>
  </g>
  <g transform="matrix(6.5288 0 0 -6.5288 -100.44 -8.9185)">
   <path d="m0 0-0.028 0.105-0.015 0.051 0.028 0.031 0.015 0.026h-0.056l-0.028 0.101-3.716 4e-3 0.014-0.105 0.013-0.075 0.016-0.108z" fill="#2654ab"/>
  </g>
  <g transform="matrix(6.5288 0 0 -6.5288 -180.98 -14.121)">
   <path d="m0 0c0.095 0.142 0.22 0.207 0.369 0.215l3.06 3e-3c0.151 0 0.273-0.07 0.373-0.206 0.094-0.137 0.144-0.308 0.144-0.513 0-0.207-0.062-0.388-0.183-0.535-0.117-0.152-0.256-0.222-0.416-0.218l-3.004 0.047c-0.145 4e-3 -0.264 0.072-0.352 0.202-0.093 0.134-0.136 0.295-0.136 0.488 0 0.208 0.05 0.376 0.145 0.517m5.028 1.803c-0.464 0.609-1.024 0.903-1.683 0.877l-3.088-0.1c-0.162-9e-3 -0.342-0.045-0.542-0.12v3.13l-1.652-0.128v-6.007c0-0.804 0.205-1.497 0.622-2.084 0.426-0.598 0.93-0.913 1.522-0.937l2.997-0.146c0.689-0.033 1.283 0.262 1.782 0.892 0.505 0.643 0.756 1.429 0.756 2.366 0 0.89-0.235 1.644-0.714 2.257" fill="#2654ab"/>
  </g>
  <g transform="matrix(6.5288 0 0 -6.5288 -124.97 -4.9908)">
   <path d="m0 0c-0.186 5e-3 -0.341 0.087-0.456 0.24-0.117 0.154-0.177 0.35-0.177 0.581 0 0.209 0.06 0.393 0.17 0.534 0.113 0.144 0.252 0.218 0.427 0.218l3.709 4e-3c0.209 0 0.379-0.078 0.523-0.237 0.144-0.166 0.216-0.368 0.216-0.612 0-0.227-0.055-0.416-0.175-0.569s-0.271-0.227-0.465-0.22zm3.827-2.817c0.816-0.037 1.519 0.272 2.101 0.943 0.593 0.679 0.894 1.521 0.894 2.518 0 1.046-0.318 1.933-0.946 2.656-0.62 0.716-1.366 1.053-2.221 1.027l-3.716-0.127c-0.742-0.023-1.362-0.363-1.864-1.008-0.494-0.636-0.74-1.405-0.74-2.308v-5.467l2.183-0.168v2.268c0.214-0.088 0.439-0.146 0.671-0.156z" fill="#2654ab"/>
  </g>
  <g transform="matrix(6.5288 0 0 -6.5288 -78.695 14.468)">
   <path d="m0 0 2.562-0.123v3.861c0 0.246 0.076 0.46 0.23 0.639 0.157 0.177 0.342 0.268 0.571 0.275l1.07 2e-3v-4.868l2.565-0.122v4.998l1.186 3e-3c0.228-7e-3 0.425-0.099 0.583-0.276 0.167-0.177 0.246-0.396 0.246-0.638v-4.187l3.111-0.152v4.373c-8e-3 1.133-0.398 2.079-1.159 2.841-0.751 0.752-1.657 1.102-2.707 1.068l-4.885-0.163c-0.982-0.031-1.786-0.427-2.427-1.168-0.627-0.738-0.942-1.631-0.946-2.683z" fill="#2654ab"/>
  </g>
 </g>
</svg>
