<svg width="800" height="249.69" version="1.1" viewBox="0 0 211.67 66.064" xmlns="http://www.w3.org/2000/svg">
 <g transform="translate(-49.804 32.618)">
  <g transform="matrix(5.3397 0 0 -5.3397 -196.1 2074.4)" fill="#ec4629">
   <path d="m67.333 390.24c-0.056-0.072-0.142-0.225-0.269-0.46-0.408-0.768-0.729-1.705-0.962-2.831l-0.018-0.511c-9e-3 -0.194 0.058-0.346 0.182-0.46 0.099-0.055 0.187-0.072 0.26-0.055 0.135 0.061 0.221 0.169 0.262 0.309l0.239 1.016c0.158 0.65 0.415 1.235 0.78 1.755l0.267 0.382 0.262 0.328 0.039 0.162-0.012 0.146c-0.134 0.362-0.344 0.54-0.621 0.54-0.143-0.026-0.275-0.13-0.409-0.321"/>
   <path d="m68.88 391.86c0.098-0.113 0.216-0.171 0.364-0.171 0.182 0.035 0.303 0.104 0.36 0.197 0.08 0.135 0.115 0.273 0.1 0.421l-0.02 0.208c-0.037 0.129-0.093 0.242-0.174 0.343-0.098 0.097-0.221 0.147-0.369 0.147-0.135 0-0.24-0.054-0.326-0.16-0.084-0.113-0.122-0.23-0.122-0.369l0.021-0.219c0.025-0.15 0.077-0.281 0.166-0.397"/>
   <path d="m69.824 388.28c0.162 0.347 0.511 0.668 1.044 0.974l0.145 0.065 0.161 0.059 0.331 0.121c0.205 0 0.303-0.027 0.303-0.084l-0.074-0.135-0.187-0.227-0.113-0.138c-0.427-0.336-0.894-0.587-1.402-0.758h-0.164l-0.044 0.123m13.299 1.386c0.111 0.323 0.389 0.639 0.835 0.957l0.121 0.067 0.142 0.076 0.283 0.131c0.181 0.022 0.271 0 0.274-0.044l-0.051-0.124-0.143-0.226-0.091-0.129c-0.349-0.339-0.745-0.608-1.176-0.801l-0.147-0.016-0.047 0.109m-13.301-3.968c0.774 0.162 1.529 0.408 1.529 0.408 0.115 0.063 0.232 0.129 0.346 0.196 0.116 0.076 0.177 0.162 0.177 0.259l-0.023 0.112c-0.058 0.078-0.161 0.103-0.312 0.084l-0.336-0.125-0.268-0.114c-0.306-0.103-0.54-0.175-0.701-0.222-0.095-0.022-0.157-0.039-0.181-0.057-0.136-0.022-0.233-0.033-0.295-0.043h-0.238c-0.176 0-0.322 0.043-0.443 0.147-0.12 0.086-0.182 0.218-0.182 0.383 0 0.128 0.062 0.247 0.177 0.345 0.5 0 0.974 0.09 1.423 0.268 0.59 0.234 1.042 0.505 1.351 0.803l0.25 0.236 0.291 0.295c0.192 0.191 0.336 0.412 0.427 0.66l0.044 0.302c0 0.254-0.106 0.433-0.316 0.534-0.28 0.129-0.589 0.194-0.921 0.194l-0.309-0.033-0.386-0.11-0.622-0.27c-1.327-0.737-2.143-1.578-2.45-2.513-0.055-0.117-0.088-0.216-0.102-0.292-0.016-0.066-0.016-0.159-0.01-0.268l0.017-0.299 0.082-0.235c0.076-0.233 0.231-0.397 0.456-0.516l0.234-0.106s0.52-0.182 1.291-0.023m-3.497-0.99c0.182 0.142 0.156 0.443 0.078 0.497-0.168 0.115-0.621 0.134-0.621 0.134l-0.159 0.094c-0.091 0.073-0.139 0.232-0.139 0.47 0 1.635 0.281 3.093 0.844 4.383l1.574 3.584 0.038 0.195c0 0.112-0.038 0.232-0.109 0.367-0.107 0.12-0.283 0.17-0.529 0.143-0.261-0.056-0.431-0.145-0.494-0.278l-0.229-0.44c-0.138-0.257-0.276-0.554-0.423-0.899-0.184-0.397-0.364-0.863-0.537-1.399-0.07-0.19-0.218-0.664-0.461-1.424-0.335-1.078-0.573-2.25-0.712-3.529l-0.022-0.21v-0.161l-0.098 0.035c-0.185 0.108-0.32 0.184-0.39 0.241-0.114 0.089-0.217 0.18-0.313 0.29l-0.44 0.414c-0.114 0.105-0.237 0.159-0.365 0.159l-0.186-0.039-0.377-0.174-0.299-0.213c-0.302-0.211-0.524-0.331-0.666-0.381l-0.172-0.095-0.063-0.01c-0.109 0-0.161 0.056-0.161 0.17 0 0.091 0.06 0.203 0.183 0.33l0.395 0.429 0.314 0.252 0.33 0.264c0.153 0.122 0.334 0.188 0.543 0.188l0.203-0.02c0.105-0.041 0.187-0.113 0.244-0.203 0.084-0.096 0.172-0.151 0.275-0.151l0.251 0.039 0.218 0.153c0.113 0.19 0.168 0.38 0.168 0.582 0 0.221-0.063 0.412-0.179 0.578-0.14 0.177-0.325 0.259-0.554 0.25l-0.158-0.01c-0.375-0.07-0.621-0.138-0.747-0.215-1.486-0.878-2.407-1.931-2.768-3.164v-0.293c0-0.094 0.044-0.172 0.125-0.23 0.151-0.074 0.301-0.115 0.452-0.115 0.119 0 0.245 0.024 0.375 0.057 0.372 0.072 0.726 0.26 1.074 0.572 0.362 0.341 0.702 0.496 1.001 0.473l0.113-0.011c0.127-0.017 0.279-0.098 0.458-0.246 0.23-0.194 0.379-0.306 0.441-0.34 0.227-0.136 0.467-0.275 0.724-0.403l0.098-0.045 0.034-0.144c2e-3 -7e-3 0.101-0.193 0.226-0.338 0.115-0.13 0.264-0.212 0.264-0.212 0.161-0.086 0.332-0.133 0.525-0.133 0.154 0 0.593 0.015 0.803 0.182m-5.601-0.423c0.254 0.144 0.447 0.307 0.569 0.452 0.081 0.101 0.127 0.201 0.127 0.24l-0.122 0.174-0.21 0.031c-0.792-0.281-1.454-0.53-1.978-0.756-0.358-0.16-0.719-0.291-1.068-0.382-0.322-0.099-0.684-0.147-1.085-0.147l-0.134-0.02-0.729 8e-3c-0.293 0-0.526 0.157-0.686 0.457-0.059 0.11-0.087 0.217-0.087 0.327l0.021 0.189 0.073 0.236 0.075 0.202c0.401 0.857 0.945 1.652 1.633 2.375 0.699 0.761 1.46 1.349 2.28 1.764 0.372 0.197 0.761 0.322 1.171 0.379l0.135 0.021h0.122c0.35 0 0.66-0.118 0.931-0.342l0.223 0.082 0.168 0.209 0.068 0.273 6e-3 0.082-0.054 0.207c-0.195 0.272-0.487 0.45-0.875 0.52l-0.189 0.037h-0.297l-0.431-0.027-0.409-0.074c-0.264-0.073-0.521-0.168-0.78-0.276l2.238 2.463-2.728-2.692c-0.568-0.294-1.126-0.67-1.675-1.136l1.453 4.433-2.065-4.986c-0.161-0.148-0.302-0.303-0.45-0.451l-0.877 4.221 0.333-4.86c-0.203-0.252-0.378-0.511-0.541-0.777l-4.741 5.637 4.333-6.379c-0.147-0.304-0.268-0.614-0.368-0.935l-0.029-0.1-8.023 2.463 7.92-3.12 0.018-0.21c0.051-0.224 0.14-0.408 0.26-0.56l-6.13-1.327 6.923 0.869c0.125-0.021 0.261-0.039 0.412-0.039l0.154-0.017h0.431l0.278 0.013 0.436 0.062 0.521 0.074c0.514 0.07 1.088 0.218 1.731 0.43l0.642 0.207s0.654 0.235 1.076 0.476m16.864 2.774c6e-3 0.186-0.022 0.444-0.022 0.444l-0.161 1.124c-0.049 0.204-0.155 0.369-0.313 0.497-0.307 0.267-0.677 0.396-1.103 0.396-0.257 0-0.481-0.064-0.675-0.197-0.324-0.228-0.598-0.334-0.825-0.313l-0.118 0.01c-0.098 0.033-0.142 0.098-0.142 0.186l0.025 0.126 0.068 0.235 0.098 0.252c0.039 0.152 0.045 0.268 0.023 0.354-0.045 0.142-0.101 0.224-0.159 0.238l-0.217 0.032c-0.233-0.043-0.354-0.128-0.379-0.258l-0.253-0.837-0.266-0.766c-0.267-0.706-0.485-1.253-0.637-1.62l-0.044-0.205c0-0.138 0.082-0.223 0.241-0.26l0.2-0.03c0.151 0 0.267 0.055 0.366 0.174l0.732 0.936c0.242 0.308 0.537 0.567 0.885 0.782 0.195 0.108 0.485 0.232 0.874 0.366 0.092 0.028 0.185 0.044 0.279 0.044 0.234 0 0.386-0.12 0.456-0.352l0.091-0.326c0.042-0.157 0.065-0.26 0.065-0.326l0.094-0.758c6e-3 -0.026 0.044-0.309 0.168-0.44 0.11-0.127 0.306-0.113 0.366-0.1 0.158 0.02 0.244 0.074 0.261 0.182 0 0 0.012 0.23 0.022 0.41m0.977-0.253c0.181-0.219 0.438-0.344 0.779-0.375 0.455-0.035 0.883 0.08 1.304 0.351 0 0 0.254 0.139 0.462 0.293 0.136 0.097 0.246 0.21 0.277 0.251 0.085 0.109 0.131 0.216 0.131 0.216l-8e-3 0.203-0.136 0.08c-0.047 0-0.124-0.039-0.239-0.119l-0.242-0.174c-0.086-0.055-0.495-0.416-0.784-0.416-0.139 0-0.447 0.041-0.611 0.186-0.161 0.14-0.18 0.384-0.175 0.502l0.019 0.205c0.013 0.199 0.067 0.428 0.161 0.703 0.206 0.548 0.457 1.013 0.757 1.393l0.099 0.126 0.074 0.108c0.075 0.111 0.159 0.191 0.239 0.234l1.225 0.172 0.328 0.069c0.107 0.048 0.186 0.118 0.235 0.225-0.02 0.063-0.054 0.155-0.119 0.278l-0.301 0.052-0.312-5e-3 -0.614-0.034-0.023 0.048 0.088 0.132 0.134 0.2 0.376 0.451 0.208 0.228 0.225 0.279c0.167 0.198 0.275 0.321 0.318 0.354 0.111 0.119 0.165 0.273 0.158 0.471l-0.133 0.173-0.213 0.054c-0.19 0.013-0.421-0.11-0.695-0.379-0.045-0.046-0.123-0.127-0.224-0.243-0.284-0.347-0.501-0.612-0.645-0.799l-0.558-0.716-0.207-0.237-0.071-0.08-0.429-0.033-0.731-0.054c-0.612-0.044-2.752-0.305-2.935-0.478-0.101-0.099-0.159-0.216-0.168-0.362l7e-3 -0.137c0.047-0.123 0.107-0.199 0.195-0.223l0.2-0.035 0.169 6e-3 2.459 0.265c0.389 0.061 0.601 0.078 0.641 0.049-0.248-0.419-0.472-0.871-0.677-1.357-0.151-0.354-0.242-0.728-0.274-1.105l-0.014-0.151c0.01-0.043 0.01-0.113 4e-3 -0.207 0.021-0.137 0.056-0.252 0.1-0.365zm3.21 2.279c-0.061-0.229-0.143-1.33 0.443-1.635 0.652-0.338 1.989 0.138 2.246 0.293l0.334 0.217 0.159 0.115c0.1 0.076 0.143 0.158 0.137 0.242l-0.028 0.106c-0.059 0.055-0.155 0.074-0.288 0.041l-0.285-0.143-0.231-0.125c-0.256-0.121-0.318-0.187-0.46-0.236l-0.161-0.071c-0.114-0.035-0.198-0.052-0.257-0.064l-0.212-0.021c-0.152-0.016-0.285 0.017-0.404 0.085-0.115 0.071-0.186 0.181-0.196 0.331-0.012 0.111 0.026 0.222 0.122 0.318 0.445 0.044 0.72 0.148 1.106 0.348 0.503 0.261 0.882 0.544 1.13 0.835l0.2 0.234 0.232 0.288c0.156 0.189 0.263 0.396 0.319 0.631l0.011 0.27c-0.024 0.229-0.13 0.373-0.323 0.443-0.264 0.09-0.549 0.12-0.841 0.09l-0.276-0.053-0.329-0.139-0.528-0.291c-0.574-0.398-1.394-1.235-1.62-2.109"/>
  </g>
 </g>
</svg>
