<svg width="800" height="364.75" version="1.1" viewBox="0 0 211.67 96.507" xmlns="http://www.w3.org/2000/svg">
 <defs>
  <clipPath id="clipPath15314">
   <path d="m436.22 248.85h27.473v0.136h-27.473z"/>
  </clipPath>
  <clipPath id="clipPath15286">
   <path d="m436.22 249.16h27.834v0.136h-27.834z"/>
  </clipPath>
  <clipPath id="clipPath15258">
   <path d="m436.22 249.46h28.079v0.135h-28.079z"/>
  </clipPath>
  <clipPath id="clipPath15230">
   <path d="m436.22 249.77h28.227v0.136h-28.227z"/>
  </clipPath>
  <clipPath id="clipPath15202">
   <path d="m436.22 250.08h28.227v0.136h-28.227z"/>
  </clipPath>
  <clipPath id="clipPath15174">
   <path d="m436.22 250.39h28.227v0.136h-28.227z"/>
  </clipPath>
  <clipPath id="clipPath15146">
   <path d="m436.22 250.69h28.227v0.136h-28.227z"/>
  </clipPath>
  <clipPath id="clipPath15118">
   <path d="m436.22 251h28.227v0.136h-28.227z"/>
  </clipPath>
  <clipPath id="clipPath15090">
   <path d="m436.22 251.31h28.227v0.136h-28.227z"/>
  </clipPath>
  <clipPath id="clipPath15062">
   <path d="m436.22 251.61h28.227v0.136h-28.227z"/>
  </clipPath>
  <clipPath id="clipPath15034">
   <path d="m436.22 251.92h28.227v0.136h-28.227z"/>
  </clipPath>
  <clipPath id="clipPath15006">
   <path d="m436.22 252.23h28.227v0.136h-28.227z"/>
  </clipPath>
  <clipPath id="clipPath14978">
   <path d="m436.22 252.53h28.227v0.135h-28.227z"/>
  </clipPath>
  <clipPath id="clipPath14950">
   <path d="m436.22 252.84h28.227v0.136h-28.227z"/>
  </clipPath>
  <clipPath id="clipPath14922">
   <path d="m436.22 253.15h28.227v0.135h-28.227z"/>
  </clipPath>
  <clipPath id="clipPath14894">
   <path d="m436.22 253.46h28.227v0.136h-28.227z"/>
  </clipPath>
  <clipPath id="clipPath14864">
   <path d="m436.22 253.76h28.227v0.136h-28.227z"/>
  </clipPath>
  <clipPath id="clipPath14836">
   <path d="m436.22 254.07h28.227v0.136h-28.227z"/>
  </clipPath>
  <clipPath id="clipPath14808">
   <path d="m436.22 254.38h28.227v0.135h-28.227z"/>
  </clipPath>
  <clipPath id="clipPath14780">
   <path d="m436.22 254.68h28.227v0.135h-28.227z"/>
  </clipPath>
  <clipPath id="clipPath14744">
   <path d="m436.22 254.99h28.227v0.135h-28.227z"/>
  </clipPath>
  <clipPath id="clipPath14716">
   <path d="m436.51 255.3h27.936v0.136h-27.936z"/>
  </clipPath>
  <clipPath id="clipPath14704">
   <path d="m436.81 255.6h27.639v0.136h-27.639z"/>
  </clipPath>
 </defs>
 <g transform="translate(-47.209 122.65)">
  <g transform="matrix(7.411 0 0 -7.411 247.51 -26.139)">
   <path d="m0 0c0.845 0 1.533 0.671 1.533 1.517v5.92h-26.847c-0.845 0-1.533-0.705-1.533-1.551v-5.886h26.847" fill="#322f30"/>
  </g>
  <g transform="matrix(7.411 0 0 -7.411 67.011 -82.7)">
   <path d="m0 0c-0.371 0-0.72 0.066-1.045 0.201-0.324 0.132-0.608 0.318-0.847 0.557-0.239 0.241-0.43 0.525-0.57 0.852-0.142 0.329-0.21 0.684-0.21 1.071v0.013c0 0.376 0.067 0.728 0.205 1.057 0.14 0.327 0.329 0.614 0.57 0.858 0.244 0.244 0.531 0.436 0.863 0.574 0.334 0.139 0.699 0.207 1.092 0.207 0.268 0 0.509-0.025 0.726-0.078 0.219-0.051 0.415-0.125 0.596-0.221 0.181-0.097 0.344-0.212 0.49-0.344 0.145-0.135 0.275-0.28 0.388-0.438l-1.083-0.836c-0.146 0.188-0.31 0.335-0.487 0.443-0.177 0.11-0.392 0.163-0.645 0.163-0.181 0-0.347-0.035-0.498-0.106-0.151-0.072-0.282-0.169-0.39-0.294-0.109-0.123-0.192-0.268-0.255-0.435-0.063-0.169-0.093-0.347-0.093-0.534v-0.016c0-0.191 0.03-0.373 0.093-0.543 0.063-0.171 0.146-0.317 0.255-0.44 0.108-0.125 0.239-0.222 0.39-0.292 0.151-0.073 0.317-0.11 0.498-0.11 0.134 0 0.256 0.017 0.367 0.046s0.211 0.072 0.304 0.131c0.091 0.055 0.177 0.121 0.26 0.198 0.08 0.076 0.161 0.161 0.241 0.257l1.079-0.772c-0.121-0.167-0.257-0.323-0.403-0.465-0.144-0.143-0.31-0.268-0.497-0.371-0.183-0.104-0.391-0.185-0.62-0.245-0.231-0.059-0.489-0.088-0.774-0.088" fill="#ed1c24"/>
  </g>
  <g transform="matrix(7.411 0 0 -7.411 102.4 -98.562)">
   <path d="m0 0-0.576 1.472-0.586-1.472h1.162m-1.259 3.183h1.384l2.208-5.219h-1.54l-0.377 0.924h-2.001l-0.369-0.924h-1.512z" fill="#ed1c24"/>
  </g>
  <g transform="matrix(7.411 0 0 -7.411 114.64 -121.88)">
   <path d="m0 0h1.344l2.136-2.74v2.74h1.415v-5.183h-1.263l-2.218 2.844v-2.844h-1.414z" fill="#ed1c24"/>
  </g>
  <g transform="matrix(7.411 0 0 -7.411 171.54 -98.562)">
   <path d="m0 0-0.576 1.472-0.588-1.472h1.164m-1.258 3.183h1.383l2.208-5.219h-1.54l-0.377 0.924h-2.001l-0.369-0.924h-1.511z" fill="#ed1c24"/>
  </g>
  <g transform="matrix(7.411 0 0 -7.411 198.77 -92.909)">
   <path d="m0 0c0.432 0 0.779 0.113 1.041 0.34 0.263 0.227 0.396 0.551 0.396 0.97v0.015c0 0.415-0.133 0.737-0.396 0.966-0.262 0.23-0.609 0.345-1.041 0.345h-0.586v-2.636h0.586m-2.023 3.909h1.999c0.464 0 0.879-0.062 1.24-0.188 0.363-0.126 0.67-0.303 0.918-0.53 0.251-0.227 0.44-0.497 0.571-0.811 0.132-0.314 0.197-0.658 0.197-1.033v-0.015c0-0.375-0.067-0.721-0.199-1.039-0.134-0.319-0.328-0.595-0.578-0.825-0.252-0.233-0.563-0.415-0.929-0.545-0.369-0.132-0.785-0.197-1.247-0.197h-1.972v5.183" fill="#ed1c24"/>
  </g>
  <g transform="matrix(7.411 0 0 -7.411 239.59 -98.562)">
   <path d="m0 0-0.576 1.472-0.587-1.472h1.163m-1.257 3.183h1.382l2.209-5.219h-1.54l-0.378 0.924h-2l-0.37-0.924h-1.51z" fill="#ed1c24"/>
  </g>
  <g transform="matrix(7.411 0 0 -7.411 66.965 -65.012)">
   <path d="m0 0h-1.856v1.503h5.429v-1.503h-1.858v-4.687h-1.715z" fill="#fff"/>
  </g>
  <g transform="matrix(7.411 0 0 -7.411 116.85 -48.302)">
   <path d="m0 0-0.689 1.759-0.701-1.759h1.39m-1.503 3.803h1.652l2.636-6.235h-1.839l-0.453 1.105h-2.386l-0.443-1.105h-1.804z" fill="#fff"/>
  </g>
  <g transform="matrix(7.411 0 0 -7.411 138 -76.153)">
   <path d="m0 0h1.715v-4.688h2.999v-1.502h-4.714z" fill="#fff"/>
  </g>
  <g transform="matrix(7.411 0 0 -7.411 174.44 -76.153)">
   <path d="m0 0h1.717v-2.511l2.131 2.511h2.031l-2.341-2.661 2.422-3.529h-2.06l-1.557 2.298-0.626-0.698v-1.6h-1.717z" fill="#fff"/>
  </g>
  <g transform="matrix(7.411 0 0 -7.411 236.37 -29.485)">
   <path d="m0 0c-0.554 0-1.081 0.088-1.578 0.26-0.497 0.171-0.939 0.43-1.321 0.773l0.953 1.145c0.619-0.496 1.287-0.744 2.007-0.744 0.232 0 0.406 0.037 0.527 0.109 0.12 0.075 0.18 0.179 0.18 0.314v0.017l-0.044 0.173-0.163 0.147c-0.08 0.045-0.185 0.092-0.318 0.135-0.132 0.045-0.305 0.089-0.517 0.138-0.329 0.076-0.637 0.16-0.921 0.251-0.282 0.091-0.529 0.208-0.737 0.353-0.21 0.145-0.375 0.323-0.496 0.538-0.121 0.216-0.181 0.481-0.181 0.8v0.016c0 0.29 0.055 0.553 0.165 0.795 0.108 0.242 0.267 0.451 0.476 0.627 0.21 0.176 0.463 0.313 0.757 0.411 0.295 0.096 0.627 0.144 1 0.144 0.53 0 1.002-0.069 1.417-0.208 0.416-0.139 0.791-0.346 1.127-0.619l-0.856-1.215c-0.283 0.2-0.574 0.352-0.872 0.455-0.296 0.104-0.585 0.156-0.862 0.156-0.206 0-0.36-0.038-0.464-0.116-0.103-0.076-0.154-0.169-0.154-0.281v-0.017l0.047-0.186 0.169-0.147c0.078-0.044 0.19-0.087 0.328-0.131 0.137-0.044 0.312-0.09 0.524-0.137 0.356-0.076 0.675-0.166 0.962-0.27 0.284-0.102 0.529-0.227 0.728-0.375 0.202-0.146 0.355-0.325 0.46-0.535 0.108-0.208 0.16-0.456 0.16-0.744v-0.019c0-0.317-0.061-0.599-0.182-0.847-0.121-0.246-0.291-0.457-0.509-0.63-0.219-0.175-0.48-0.307-0.787-0.398s-0.648-0.138-1.025-0.138" fill="#fff"/>
  </g>
  <g transform="matrix(7.411 0 0 -7.411 -3183.5 1816.4)">
   <g clip-path="url(#clipPath14704)">
    <g transform="translate(464.45 255.74)">
     <path d="m0 0h-27.639l1e-3 -0.136h27.639z" fill="#363536"/>
    </g>
   </g>
  </g>
  <g transform="matrix(7.411 0 0 -7.411 -3183.5 1816.4)">
   <g clip-path="url(#clipPath14716)">
    <g transform="translate(464.45 255.43)">
     <path d="m0 0h-2.515c0.227-0.03 0.441-0.075 0.642-0.136h1.874l-1e-3 0.136m-3.767 0h-24.169v-0.136h0.235v0.073h5.429v-0.073h1.605l0.05 0.118h1.652l0.05-0.118h2.656v0.073h1.715v-0.073h3.202v0.073h1.717v-0.073h2.069l0.062 0.073h2.031l-0.065-0.073h1.235c0.031 0.012 0.064 0.023 0.096 0.034 0.136 0.044 0.279 0.078 0.43 0.102" fill="#363536"/>
    </g>
    <path d="m442.18 255.37h-5.429v-0.073h5.429z" fill="#e6e7e8"/>
    <g transform="translate(445.48 255.41)">
     <path d="m0 0h-1.652l-0.05-0.118h1.752z" fill="#e6e7e8"/>
    </g>
    <path d="m449.9 255.37h-1.715v-0.073h1.715z" fill="#e6e7e8"/>
    <g transform="translate(458.99 255.37)">
     <path d="m0 0h-2.031l-0.062-0.073h2.029l0.064 0.073m-4.162 0h-1.717v-0.073h1.717z" fill="#e6e7e8"/>
    </g>
    <g transform="translate(461.93 255.43)">
     <path d="m0 0h-1.253c-0.151-0.024-0.294-0.058-0.429-0.102-0.033-0.011-0.065-0.022-0.097-0.034h2.421c-0.201 0.061-0.415 0.106-0.642 0.136" fill="#e6e7e8"/>
    </g>
   </g>
  </g>
  <g transform="matrix(7.411 0 0 -7.411 -3183.5 1816.4)">
   <g clip-path="url(#clipPath14744)">
    <g transform="translate(464.45 255.13)">
     <path d="m0 0h-1.423c0.091-0.041 0.179-0.086 0.265-0.135h1.158v0.135" fill="#363536"/>
    </g>
    <g transform="translate(436.25 255.13)">
     <path d="m0 0h-0.027v-0.065c9e-3 0.022 0.018 0.044 0.027 0.065" fill="#e6e7e8"/>
    </g>
    <g transform="translate(459.79 255.13)">
     <path d="m0 0h-1.02l-0.119-0.135h0.933c0.065 0.048 0.134 0.093 0.206 0.135m-3.044 0h-1.924v-0.135h1.81l0.114 0.135m-3.641 0h-3.202v-0.135h3.202zm-4.917 0h-2.584l0.057-0.135h2.527v0.135m-4.48 0h-1.533v-0.135h1.476l0.057 0.135m-6.962 0h-0.499c-0.01-0.021-0.019-0.043-0.027-0.065v-0.07h0.526v0.135" fill="#363536"/>
    </g>
    <path d="m442.18 255.13h-5.429v-0.135h5.429z" fill="#e6e7e8"/>
    <g transform="translate(445.61 255.13)">
     <path d="m0 0h-1.896l-0.057-0.135h2.01z" fill="#e6e7e8"/>
    </g>
    <path d="m449.9 255.13h-1.715v-0.135h1.715z" fill="#e6e7e8"/>
    <g transform="translate(458.77 255.13)">
     <path d="m0 0h-2.023l-0.115-0.135h2.019l0.119 0.135m-3.948 0h-1.717v-0.135h1.717z" fill="#e6e7e8"/>
    </g>
    <g transform="translate(463.03 255.13)">
     <path d="m0 0h-3.234c-0.072-0.042-0.141-0.087-0.206-0.135h3.705c-0.086 0.049-0.174 0.094-0.265 0.135" fill="#e6e7e8"/>
    </g>
   </g>
  </g>
  <g transform="matrix(7.411 0 0 -7.411 -3183.5 1816.4)">
   <g clip-path="url(#clipPath14780)">
    <g transform="translate(464.45 254.82)">
     <path d="m0 0h-0.88c0.062-0.043 0.123-0.088 0.183-0.135h0.697v0.135m-5.065 0h-0.883l-0.119-0.135h0.879c0.038 0.047 0.08 0.092 0.123 0.135m-2.897 0h-1.663v-0.135h1.548l0.115 0.135m-3.38 0h-3.202v-0.135h3.202zm-4.917 0h-2.454l0.057-0.135h2.397v0.135m-4.61 0h-1.403v-0.135h1.346l0.057 0.135m-6.832 0h-0.526v-0.135h0.526v0.135" fill="#363536"/>
    </g>
    <path d="m442.18 254.82h-5.429v-0.135h5.429z" fill="#e6e7e8"/>
    <g transform="translate(445.74 254.82)">
     <path d="m0 0h-2.156l-0.057-0.135h2.27z" fill="#e6e7e8"/>
    </g>
    <path d="m449.9 254.82h-1.715v-0.135h1.715z" fill="#e6e7e8"/>
    <g transform="translate(458.5 254.82)">
     <path d="m0 0h-2.014l-0.114-0.135h2.009l0.119 0.135m-3.677 0h-1.717v-0.135h1.717z" fill="#e6e7e8"/>
    </g>
    <g transform="translate(463.57 254.82)">
     <path d="m0 0h-4.184c-0.044-0.043-0.085-0.088-0.124-0.135h4.491c-0.06 0.047-0.121 0.092-0.183 0.135" fill="#e6e7e8"/>
    </g>
   </g>
  </g>
  <g transform="matrix(7.411 0 0 -7.411 -3183.5 1816.4)">
   <g clip-path="url(#clipPath14808)">
    <g transform="translate(464.45 254.51)">
     <path d="m0 0h-0.749l-0.095-0.135h0.844v0.135m-5.313 0h-0.905l-0.119-0.135h0.947c0.024 0.046 0.05 0.091 0.077 0.135m-2.909 0h-1.403v-0.135h1.288l0.115 0.135m-3.12 0h-3.202v-0.135h3.202zm-4.917 0h-2.324l0.057-0.135h2.267v0.135m-4.74 0h-1.273v-0.135h1.216l0.057 0.135m-6.702 0h-0.526v-0.135h0.526v0.135" fill="#363536"/>
    </g>
    <path d="m442.18 254.51h-5.429v-0.135h5.429z" fill="#e6e7e8"/>
    <g transform="translate(445.87 254.51)">
     <path d="m0 0h-2.416l-0.057-0.135h2.53z" fill="#e6e7e8"/>
    </g>
    <path d="m449.9 254.51h-1.715v-0.135h1.715z" fill="#e6e7e8"/>
    <g transform="translate(458.23 254.51)">
     <path d="m0 0h-2.004l-0.115-0.135h2l0.119 0.135m-3.407 0h-1.717v-0.135h1.717z" fill="#e6e7e8"/>
    </g>
    <g transform="translate(463.7 254.51)">
     <path d="m0 0h-4.564c-0.028-0.044-0.053-0.089-0.077-0.135h4.546l0.095 0.135" fill="#e6e7e8"/>
    </g>
   </g>
  </g>
  <g transform="matrix(7.411 0 0 -7.411 -3183.5 1816.4)">
   <g clip-path="url(#clipPath14836)">
    <g transform="translate(464.45 254.2)">
     <path d="m0 0h-0.964l-0.096-0.136h1.06v0.136m-5.467 0h-1.021l-0.119-0.136h1.093c0.014 0.046 0.03 0.091 0.047 0.136m-3.015 0h-1.143v-0.136h1.028l0.115 0.136m-2.86 0h-3.202v-0.136h3.202zm-4.917 0h-2.195l0.058-0.136h2.137v0.136m-4.869 0h-1.144v-0.136h1.086l0.058 0.136m-6.573 0h-0.526v-0.136h0.526v0.136" fill="#363536"/>
    </g>
    <path d="m442.18 254.2h-5.429v-0.136h5.429z" fill="#e6e7e8"/>
    <g transform="translate(446 254.2)">
     <path d="m0 0h-2.675l-0.057-0.136h2.789z" fill="#e6e7e8"/>
    </g>
    <path d="m449.9 254.2h-1.715v-0.136h1.715z" fill="#e6e7e8"/>
    <g transform="translate(457.96 254.2)">
     <path d="m0 0h-1.995l-0.115-0.136h1.991l0.119 0.136m-3.138 0h-1.717v-0.136h1.717z" fill="#e6e7e8"/>
    </g>
    <g transform="translate(463.48 254.2)">
     <path d="m0 0h-4.502c-0.018-0.045-0.034-0.09-0.047-0.136h4.453l0.096 0.136" fill="#e6e7e8"/>
    </g>
   </g>
  </g>
  <g transform="matrix(7.411 0 0 -7.411 -3183.5 1816.4)">
   <g clip-path="url(#clipPath14864)">
    <g transform="translate(464.45 253.9)">
     <path d="m0 0h-1.181l-0.095-0.136h1.276v0.136m-2.412 0h-1.331c-0.046-0.041-0.078-0.086-0.097-0.136h1.767c-0.101 0.048-0.204 0.089-0.308 0.125-0.01 4e-3 -0.021 7e-3 -0.031 0.011m-3.145 0h-1.201l-0.119-0.136h1.298c6e-3 0.046 0.014 0.091 0.022 0.136m-3.186 0h-0.882v-0.136h0.767l0.115 0.136m-2.599 0h-3.202v-0.136h3.202zm-4.917 0h-2.065l0.058-0.136h2.007v0.136m-4.999 0h-1.014v-0.032h-1.858v-0.104h2.814l0.058 0.136m-6.443 0h-0.526v-0.136h2.382v0.104h-1.856v0.032" fill="#363536"/>
    </g>
    <g transform="translate(442.18 253.9)">
     <path d="m0 0h-5.429v-0.032h1.856v-0.104h1.715v0.104h1.858z" fill="#e6e7e8"/>
    </g>
    <g transform="translate(446.13 253.9)">
     <path d="m0 0h-2.934l-0.058-0.136h3.05z" fill="#e6e7e8"/>
    </g>
    <path d="m449.9 253.9h-1.715v-0.136h1.715z" fill="#e6e7e8"/>
    <g transform="translate(457.69 253.9)">
     <path d="m0 0h-1.985l-0.116-0.136h1.981l0.12 0.136m-2.868 0h-1.717v-0.136h1.717z" fill="#e6e7e8"/>
    </g>
    <g transform="translate(463.27 253.9)">
     <path d="m0 0h-1.232c0.011-4e-3 0.021-7e-3 0.032-0.011 0.103-0.036 0.206-0.077 0.308-0.125h0.796l0.096 0.136m-2.562 0h-1.814c-9e-3 -0.045-0.016-0.09-0.022-0.136h1.739c0.019 0.05 0.051 0.095 0.097 0.136" fill="#e6e7e8"/>
    </g>
   </g>
  </g>
  <g transform="matrix(7.411 0 0 -7.411 -3183.5 1816.4)">
   <g clip-path="url(#clipPath14894)">
    <g transform="translate(464.45 253.59)">
     <path d="m0 0h-1.396l-0.096-0.136h1.492v0.136m-1.753 0h-2.098l0.034-0.136h2.274c-0.07 0.048-0.14 0.094-0.21 0.136m-3.84 0h-1.434l-0.119-0.136h1.551v0.041c0 0.032 1e-3 0.064 2e-3 0.095m-3.409 0h-0.623v-0.136h0.507l0.116 0.136m-2.34 0h-3.202v-0.136h3.202zm-4.917 0h-1.935l0.057-0.136h1.878v0.136m-5.128 0h-2.743v-0.136h2.685l0.058 0.136m-4.458 0h-2.382v-0.136h2.382v0.136" fill="#363536"/>
    </g>
    <path d="m440.32 253.59h-1.715v-0.136h1.715z" fill="#e6e7e8"/>
    <g transform="translate(446.25 253.59)">
     <path d="m0 0h-3.193l-0.057-0.136h3.307z" fill="#e6e7e8"/>
    </g>
    <path d="m449.9 253.59h-1.715v-0.136h1.715z" fill="#e6e7e8"/>
    <g transform="translate(457.42 253.59)">
     <path d="m0 0h-1.976l-0.115-0.136h1.972l0.119 0.136m-2.598 0h-1.717v-0.136h1.717z" fill="#e6e7e8"/>
    </g>
    <g transform="translate(463.05 253.59)">
     <path d="m0 0h-0.357c0.07-0.042 0.14-0.088 0.21-0.136h0.051l0.096 0.136m-2.455 0h-1.742c-1e-3 -0.031-2e-3 -0.063-2e-3 -0.095v-0.016c0-8e-3 1e-3 -0.016 1e-3 -0.025h1.777l-0.034 0.136" fill="#e6e7e8"/>
    </g>
   </g>
  </g>
  <g transform="matrix(7.411 0 0 -7.411 -3183.5 1816.4)">
   <g clip-path="url(#clipPath14922)">
    <g transform="translate(464.45 253.28)">
     <path d="m0 0h-3.622c0.076-0.04 0.18-0.079 0.305-0.119 0.017-5e-3 0.034-0.011 0.052-0.016h3.265v0.135m-5.586 0h-1.712l-0.119-0.135h1.847c-7e-3 0.044-0.012 0.089-0.016 0.135m-3.678 0h-0.361v-0.135h0.247l0.114 0.135m-2.078 0h-3.202v-0.135h3.202zm-4.917 0h-1.805l0.057-0.135h1.748v0.135m-3.51 0h-0.068l-0.054-0.135h0.175l-0.053 0.135m-1.749 0h-2.612v-0.135h2.555l0.057 0.135m-4.327 0h-2.382v-0.135h2.382v0.135" fill="#363536"/>
    </g>
    <path d="m440.32 253.28h-1.715v-0.135h1.715z" fill="#e6e7e8"/>
    <g transform="translate(446.38 253.28)">
     <path d="m0 0h-1.705l0.053-0.135h1.709l-0.057 0.135m-1.773 0h-1.68l-0.058-0.135h1.684z" fill="#e6e7e8"/>
    </g>
    <path d="m449.9 253.28h-1.715v-0.135h1.715z" fill="#e6e7e8"/>
    <g transform="translate(457.15 253.28)">
     <path d="m0 0h-1.966l-0.115-0.135h1.962l0.119 0.135m-2.327 0h-1.717v-0.135h1.717z" fill="#e6e7e8"/>
    </g>
    <g transform="translate(460.83 253.28)">
     <path d="m0 0h-1.964c4e-3 -0.046 9e-3 -0.091 0.016-0.135h2.305c-0.018 5e-3 -0.035 0.011-0.052 0.016-0.125 0.04-0.229 0.079-0.305 0.119" fill="#e6e7e8"/>
    </g>
   </g>
  </g>
  <g transform="matrix(7.411 0 0 -7.411 -3183.5 1816.4)">
   <g clip-path="url(#clipPath14950)">
    <g transform="translate(464.45 252.98)">
     <path d="m0 0h-2.563c0.171-0.041 0.334-0.086 0.487-0.135h2.076v0.135m-5.533 0h-2.036l-0.118-0.135h2.198c-0.016 0.043-0.031 0.088-0.044 0.135m-3.992 0h-0.1v-0.118l0.1 0.118m-1.817 0h-3.202v-0.135h3.202zm-4.917 0h-1.675l0.057-0.135h1.618v0.135m-3.389 0h-0.312l-0.054-0.135h0.419l-0.053 0.135m-2 0h-2.482v-0.135h2.425l0.057 0.135m-4.197 0h-2.382v-0.135h2.382v0.135" fill="#363536"/>
    </g>
    <path d="m440.32 252.98h-1.715v-0.135h1.715z" fill="#e6e7e8"/>
    <g transform="translate(446.51 252.98)">
     <path d="m0 0h-1.714l0.053-0.135h1.718l-0.057 0.135m-2.026 0h-1.688l-0.057-0.135h1.692z" fill="#e6e7e8"/>
    </g>
    <path d="m449.9 252.98h-1.715v-0.135h1.715z" fill="#e6e7e8"/>
    <g transform="translate(456.88 252.98)">
     <path d="m0 0h-1.956l-0.101-0.118v0.118h-1.717v-0.135h3.655z" fill="#e6e7e8"/>
    </g>
    <g transform="translate(461.89 252.98)">
     <path d="m0 0h-2.97c0.013-0.047 0.028-0.092 0.045-0.135h3.413c-0.154 0.049-0.316 0.094-0.488 0.135" fill="#e6e7e8"/>
    </g>
   </g>
  </g>
  <g transform="matrix(7.411 0 0 -7.411 -3183.5 1816.4)">
   <g clip-path="url(#clipPath14978)">
    <g transform="translate(464.45 252.67)">
     <path d="m0 0h-1.606c0.096-0.042 0.187-0.087 0.271-0.135h1.335v0.135m-5.407 0h-2.37l0.092-0.135h2.365c-0.031 0.043-0.06 0.088-0.087 0.135m-5.935 0h-3.202v-0.135h3.202zm-4.917 0h-1.545l0.057-0.135h1.488v0.135m-3.269 0h-0.554l-0.054-0.135h0.661l-0.053 0.135m-2.25 0h-2.352v-0.135h2.295l0.057 0.135m-4.067 0h-2.382v-0.135h2.382v0.135" fill="#363536"/>
    </g>
    <path d="m440.32 252.67h-1.715v-0.135h1.715z" fill="#e6e7e8"/>
    <g transform="translate(446.64 252.67)">
     <path d="m0 0h-1.724l0.053-0.135h1.728l-0.057 0.135m-2.278 0h-1.696l-0.057-0.135h1.699z" fill="#e6e7e8"/>
    </g>
    <path d="m449.9 252.67h-1.715v-0.135h1.715z" fill="#e6e7e8"/>
    <g transform="translate(456.67 252.67)">
     <path d="m0 0h-3.565v-0.135h3.658z" fill="#e6e7e8"/>
    </g>
    <g transform="translate(462.84 252.67)">
     <path d="m0 0h-3.801c0.027-0.047 0.056-0.092 0.087-0.135h3.985c-0.085 0.048-0.175 0.093-0.271 0.135" fill="#e6e7e8"/>
    </g>
   </g>
  </g>
  <g transform="matrix(7.411 0 0 -7.411 -3183.5 1816.4)">
   <g clip-path="url(#clipPath15006)">
    <g transform="translate(464.45 252.36)">
     <path d="m0 0h-1.077c0.057-0.043 0.109-0.088 0.158-0.136h0.919v0.136m-5.179 0h-2.389l0.093-0.136h2.444c-0.052 0.043-0.102 0.088-0.148 0.136m-6.163 0h-3.202v-0.136h3.202zm-4.917 0h-1.416l0.057-0.136h1.359v0.136m-3.15 0h-0.795l-0.054-0.136h0.902l-0.053 0.136m-2.498 0h-2.223v-0.136h2.165l0.058 0.136m-3.938 0h-2.382v-0.136h2.382z" fill="#363536"/>
    </g>
    <path d="m440.32 252.36h-1.715v-0.136h1.715z" fill="#e6e7e8"/>
    <g transform="translate(446.77 252.36)">
     <path d="m0 0h-1.733l0.053-0.136h1.737l-0.057 0.136m-2.529 0h-1.703l-0.057-0.136h1.706z" fill="#e6e7e8"/>
    </g>
    <path d="m449.9 252.36h-1.715v-0.136h1.715z" fill="#e6e7e8"/>
    <g transform="translate(456.88 252.36)">
     <path d="m0 0h-3.774v-0.136h3.867z" fill="#e6e7e8"/>
    </g>
    <g transform="translate(463.37 252.36)">
     <path d="m0 0h-4.102c0.046-0.048 0.095-0.093 0.148-0.136h4.112c-0.049 0.048-0.101 0.093-0.158 0.136" fill="#e6e7e8"/>
    </g>
   </g>
  </g>
  <g transform="matrix(7.411 0 0 -7.411 -3183.5 1816.4)">
   <g clip-path="url(#clipPath15034)">
    <g transform="translate(464.45 252.06)">
     <path d="m0 0h-0.77c0.032-0.044 0.062-0.089 0.089-0.136h0.681v0.136m-4.782 0h-2.575l0.094-0.136h2.742c-0.092 0.042-0.179 0.087-0.261 0.136m-6.56 0h-3.202v-0.136h3.202zm-4.917 0h-1.286l0.057-0.136h1.229v0.136m-3.029 0h-1.039l-0.054-0.136h1.146l-0.053 0.136m-2.749 0h-2.093v-0.136h2.036l0.057 0.136m-3.808 0h-2.382v-0.136h2.382v0.136" fill="#363536"/>
    </g>
    <path d="m440.32 252.06h-1.715v-0.136h1.715z" fill="#e6e7e8"/>
    <g transform="translate(446.9 252.06)">
     <path d="m0 0h-1.743l0.053-0.136h1.747l-0.057 0.136m-2.781 0h-1.711l-0.057-0.136h1.713z" fill="#e6e7e8"/>
    </g>
    <path d="m449.9 252.06h-1.715v-0.136h1.715z" fill="#e6e7e8"/>
    <g transform="translate(457.09 252.06)">
     <path d="m0 0h-3.986v-0.136h4.079z" fill="#e6e7e8"/>
    </g>
    <g transform="translate(463.68 252.06)">
     <path d="m0 0h-4.012c0.082-0.049 0.169-0.094 0.261-0.136h3.839c-0.027 0.047-0.056 0.092-0.088 0.136" fill="#e6e7e8"/>
    </g>
   </g>
  </g>
  <g transform="matrix(7.411 0 0 -7.411 -3183.5 1816.4)">
   <g clip-path="url(#clipPath15062)">
    <g transform="translate(464.45 251.75)">
     <path d="m0 0h-0.596c0.018-0.044 0.033-0.089 0.047-0.136h0.549v0.136m-4.046 0h-3.099l0.093-0.136h3.492c-0.168 0.043-0.33 0.089-0.486 0.136m-7.296 0h-3.202v-0.136h3.202zm-4.917 0h-1.156l0.058-0.136h1.098v0.136m-2.908 0h-1.282l-0.054-0.136h1.389l-0.053 0.136m-3 0h-1.963v-0.136h1.905l0.058 0.136m-3.678 0h-2.382v-0.136h2.382v0.136" fill="#363536"/>
    </g>
    <path d="m440.32 251.75h-1.715v-0.136h1.715z" fill="#e6e7e8"/>
    <g transform="translate(447.03 251.75)">
     <path d="m0 0h-1.752l0.053-0.136h1.756l-0.057 0.136m-3.034 0h-1.718l-0.058-0.136h1.721z" fill="#e6e7e8"/>
    </g>
    <path d="m449.9 251.75h-1.715v-0.136h1.715z" fill="#e6e7e8"/>
    <g transform="translate(457.3 251.75)">
     <path d="m0 0h-4.197v-0.136h4.29z" fill="#e6e7e8"/>
    </g>
    <g transform="translate(463.85 251.75)">
     <path d="m0 0h-3.449c0.155-0.047 0.317-0.093 0.486-0.136h3.01c-0.013 0.047-0.029 0.092-0.047 0.136" fill="#e6e7e8"/>
    </g>
   </g>
  </g>
  <g transform="matrix(7.411 0 0 -7.411 -3183.5 1816.4)">
   <g clip-path="url(#clipPath15090)">
    <g transform="translate(464.45 251.44)">
     <path d="m0 0h-0.51c8e-3 -0.044 0.014-0.089 0.018-0.136h0.492v0.136m-2.874 0h-4.061l0.093-0.136h4.34c-0.067 0.032-0.147 0.065-0.241 0.095-0.04 0.014-0.084 0.027-0.131 0.041m-6.101 0h-0.056l-0.121-0.136h0.269l-0.092 0.136m-2.367 0h-3.202v-0.136h3.202zm-4.917 0h-1.027l0.058-0.136h0.969v0.136m-6.038 0h-1.833v-0.136h1.776l0.057 0.136m-3.548 0h-2.382v-0.136h2.382v0.136" fill="#363536"/>
    </g>
    <path d="m440.32 251.44h-1.715v-0.136h1.715z" fill="#e6e7e8"/>
    <g transform="translate(447.16 251.44)">
     <path d="m0 0h-5.011l-0.058-0.136h5.126z" fill="#e6e7e8"/>
    </g>
    <path d="m449.9 251.44h-1.715v-0.136h1.715z" fill="#e6e7e8"/>
    <g transform="translate(457.51 251.44)">
     <path d="m0 0h-2.04l0.092-0.136h2.041l-0.093 0.136m-2.095 0h-2.312v-0.136h2.19z" fill="#e6e7e8"/>
    </g>
    <g transform="translate(463.94 251.44)">
     <path d="m0 0h-2.364c0.047-0.014 0.091-0.027 0.131-0.041 0.094-0.03 0.174-0.063 0.241-0.095h2.01c-4e-3 0.047-0.01 0.092-0.018 0.136" fill="#e6e7e8"/>
    </g>
   </g>
  </g>
  <g transform="matrix(7.411 0 0 -7.411 -3183.5 1816.4)">
   <g clip-path="url(#clipPath15118)">
    <g transform="translate(464.45 251.13)">
     <path d="m0 0h-0.483v-0.05c0-0.029-1e-3 -0.057-2e-3 -0.086h0.485v0.136m-2.279 0h-2.502c0.066-0.048 0.133-0.093 0.2-0.136h2.35l-0.031 0.121-0.017 0.015m-2.749 0h-1.697l0.094-0.136h1.49l0.113 0.136m-3.739 0h-0.54l-0.121-0.136h0.753l-0.092 0.136m-2.575 0h-3.202v-0.136h3.202zm-4.917 0h-0.897l0.058-0.136h0.839v0.136m-6.168 0h-1.703v-0.136h1.646l0.057 0.136m-3.418 0h-2.382v-0.136h2.382z" fill="#363536"/>
    </g>
    <path d="m440.32 251.14h-1.715v-0.136h1.715z" fill="#e6e7e8"/>
    <g transform="translate(447.29 251.13)">
     <path d="m0 0h-5.271l-0.057-0.136h5.385z" fill="#e6e7e8"/>
    </g>
    <path d="m449.9 251.14h-1.715v-0.136h1.715z" fill="#e6e7e8"/>
    <g transform="translate(457.72 251.13)">
     <path d="m0 0h-2.043l0.092-0.136h2.044l-0.093 0.136m-2.582 0h-2.036v-0.136h1.914z" fill="#e6e7e8"/>
    </g>
    <g transform="translate(463.97 251.13)">
     <path d="m0 0h-1.796l0.017-0.015 0.031-0.121h1.747c1e-3 0.029 1e-3 0.057 1e-3 0.086v0.05m-4.298 0h-0.247l-0.113-0.136h0.56c-0.067 0.043-0.134 0.088-0.2 0.136" fill="#e6e7e8"/>
    </g>
   </g>
  </g>
  <g transform="matrix(7.411 0 0 -7.411 -3183.5 1816.4)">
   <g clip-path="url(#clipPath15146)">
    <g transform="translate(464.45 250.83)">
     <path d="m0 0h-0.497c-5e-3 -0.046-0.012-0.091-0.02-0.136h0.517v0.136m-2.231 0h-2.048c0.104-0.051 0.208-0.097 0.313-0.136h1.661c0.036 0.04 0.061 0.085 0.074 0.136m-3.052 0h-1.231l0.093-0.136h1.024l0.114 0.136m-3.276 0h-1.023l-0.043-0.049v-0.087h1.158l-0.092 0.136m-2.783 0h-3.202v-0.136h3.202zm-4.917 0h-0.767l0.057-0.136h0.71v0.136m-6.298 0h-1.573v-0.136h1.516l0.057 0.136m-3.288 0h-2.382v-0.136h2.382z" fill="#363536"/>
    </g>
    <path d="m440.32 250.83h-1.715v-0.136h1.715z" fill="#e6e7e8"/>
    <g transform="translate(447.42 250.83)">
     <path d="m0 0h-5.531l-0.057-0.136h5.645z" fill="#e6e7e8"/>
    </g>
    <path d="m449.9 250.83h-1.715v-0.136h1.715z" fill="#e6e7e8"/>
    <g transform="translate(457.94 250.83)">
     <path d="m0 0h-2.046l0.092-0.136h2.047l-0.093 0.136m-3.068 0h-1.76v-0.136h1.717v0.087z" fill="#e6e7e8"/>
    </g>
    <g transform="translate(463.95 250.83)">
     <path d="m0 0h-1.734c-0.013-0.051-0.038-0.096-0.074-0.136h1.788c8e-3 0.045 0.015 0.09 0.02 0.136m-3.781 0h-1.005l-0.113-0.136h1.43c-0.105 0.039-0.209 0.085-0.312 0.136" fill="#e6e7e8"/>
    </g>
   </g>
  </g>
  <g transform="matrix(7.411 0 0 -7.411 -3183.5 1816.4)">
   <g clip-path="url(#clipPath15174)">
    <g transform="translate(464.45 250.52)">
     <path d="m0 0h-0.557c-0.013-0.046-0.028-0.092-0.044-0.136h0.601v0.136m-2.687 0h-0.548c0.102-0.01 0.206-0.016 0.31-0.016 0.088 0 0.167 6e-3 0.238 0.016m-2.851 0h-0.766l0.093-0.136h0.56l0.113 0.136m-2.814 0h-1.273v-0.136h1.365l-0.092 0.136m-2.99 0h-0.203v-0.136h0.203zm-4.917 0h-0.638l0.058-0.136h0.58v0.136m-6.427 0h-1.444v-0.136h1.387l0.057 0.136m-3.159 0h-2.382v-0.136h2.382z" fill="#363536"/>
    </g>
    <path d="m440.32 250.52h-1.715v-0.136h1.715z" fill="#e6e7e8"/>
    <g transform="translate(447.55 250.52)">
     <path d="m0 0h-5.789l-0.058-0.136h5.904z" fill="#e6e7e8"/>
    </g>
    <path d="m452.9 250.52h-4.714v-0.136h4.714z" fill="#e6e7e8"/>
    <g transform="translate(458.15 250.52)">
     <path d="m0 0h-2.048l0.092-0.136h2.049l-0.093 0.136m-3.321 0h-1.717v-0.136h1.717z" fill="#e6e7e8"/>
    </g>
    <g transform="translate(463.89 250.52)">
     <path d="m0 0h-2.13c-0.071-0.01-0.15-0.016-0.238-0.016-0.104 0-0.208 6e-3 -0.31 0.016h-2.303l-0.113-0.136h5.049c0.017 0.044 0.032 0.09 0.045 0.136" fill="#e6e7e8"/>
    </g>
   </g>
  </g>
  <g transform="matrix(7.411 0 0 -7.411 -3183.5 1816.4)">
   <g clip-path="url(#clipPath15202)">
    <g transform="translate(464.45 250.21)">
     <path d="m0 0h-0.677c-0.024-0.047-0.05-0.092-0.077-0.136h0.754v0.136m-5.795 0h-0.297l0.093-0.136h0.146c-0.011 9e-3 -0.021 0.019-0.032 0.028l0.09 0.108m-2.348 0h-1.482v-0.136h1.574l-0.092 0.136m-3.199 0h-0.203v-0.136h0.203zm-4.917 0h-0.507l0.057-0.136h0.45v0.136m-2.333 0h-2.443l-0.055-0.136h2.554l-0.056 0.136m-4.224 0h-1.314v-0.136h1.256l0.058 0.136m-3.029 0h-2.382v-0.136h2.382v0.136" fill="#363536"/>
    </g>
    <path d="m440.32 250.21h-1.715v-0.136h1.715z" fill="#e6e7e8"/>
    <g transform="translate(447.68 250.21)">
     <path d="m0 0h-1.826l0.056-0.136h1.827l-0.057 0.136m-4.269 0h-1.782l-0.057-0.136h1.784z" fill="#e6e7e8"/>
    </g>
    <path d="m452.9 250.21h-4.714v-0.136h4.714z" fill="#e6e7e8"/>
    <g transform="translate(458.36 250.21)">
     <path d="m0 0h-2.051l0.092-0.136h2.052l-0.093 0.136m-3.533 0h-1.717v-0.136h1.717z" fill="#e6e7e8"/>
    </g>
    <g transform="translate(463.77 250.21)">
     <path d="m0 0h-5.118l-0.089-0.108c0.01-9e-3 0.021-0.019 0.031-0.028h5.099c0.028 0.044 0.053 0.089 0.077 0.136" fill="#e6e7e8"/>
    </g>
   </g>
  </g>
  <g transform="matrix(7.411 0 0 -7.411 -3183.5 1816.4)">
   <g clip-path="url(#clipPath15230)">
    <g transform="translate(464.45 249.91)">
     <path d="m0 0h-0.875c-0.037-0.047-0.077-0.092-0.119-0.136h0.994v0.136m-5.644 0h-0.237l0.093-0.136h0.335c-0.065 0.043-0.129 0.089-0.191 0.136m-2.291 0h-1.69v-0.136h1.782l-0.092 0.136m-3.407 0h-0.203v-0.136h0.203zm-4.917 0h-0.377l0.057-0.136h0.32v0.136m-2.207 0h-2.692l-0.055-0.136h2.803l-0.056 0.136m-4.48 0h-1.184v-0.136h1.126l0.058 0.136m-2.899 0h-2.382v-0.136h2.382v0.136" fill="#363536"/>
    </g>
    <path d="m440.32 249.91h-1.715v-0.136h1.715z" fill="#e6e7e8"/>
    <g transform="translate(447.81 249.91)">
     <path d="m0 0h-1.83l0.056-0.136h1.831l-0.057 0.136m-4.522 0h-1.788l-0.058-0.136h1.791z" fill="#e6e7e8"/>
    </g>
    <path d="m452.9 249.91h-4.714v-0.136h4.714z" fill="#e6e7e8"/>
    <g transform="translate(458.57 249.91)">
     <path d="m0 0h-2.054l0.092-0.136h2.055l-0.093 0.136m-3.744 0h-1.717v-0.136h1.717z" fill="#e6e7e8"/>
    </g>
    <g transform="translate(463.57 249.91)">
     <path d="m0 0h-4.769c0.062-0.047 0.125-0.093 0.19-0.136h4.459c0.043 0.044 0.083 0.089 0.12 0.136" fill="#e6e7e8"/>
    </g>
   </g>
  </g>
  <g transform="matrix(7.411 0 0 -7.411 -3183.5 1816.4)">
   <g clip-path="url(#clipPath15258)">
    <g transform="translate(464.3 249.6)">
     <path d="m0 0h-1.036c-0.062-0.048-0.126-0.093-0.194-0.135h1.23l-1e-3 0.135m-5.023 0h-0.499l0.093-0.135h0.678c-0.093 0.042-0.183 0.087-0.272 0.135m-2.555 0h-1.898v-0.135h1.989l-0.091 0.135m-3.615 0h-0.203v-0.135h0.203zm-4.917 0h-0.248l0.057-0.135h0.191v0.135m-2.081 0h-2.941l-0.054-0.135h3.05l-0.055 0.135m-4.736 0h-1.054v-0.135h0.997l0.057 0.135m-2.769 0h-2.382v-0.135h2.382v0.135" fill="#363536"/>
    </g>
    <path d="m440.32 249.6h-1.715v-0.135h1.715z" fill="#e6e7e8"/>
    <g transform="translate(447.94 249.6)">
     <path d="m0 0h-1.834l0.056-0.135h1.835l-0.057 0.135m-4.774 0h-1.795l-0.057-0.135h1.798z" fill="#e6e7e8"/>
    </g>
    <path d="m452.9 249.6h-4.714v-0.135h4.714z" fill="#e6e7e8"/>
    <g transform="translate(458.78 249.6)">
     <path d="m0 0h-2.056l0.091-0.135h2.058l-0.093 0.135m-3.954 0h-1.717v-0.135h1.717z" fill="#e6e7e8"/>
    </g>
    <g transform="translate(463.26 249.6)">
     <path d="m0 0h-3.987c0.088-0.048 0.179-0.093 0.272-0.135h3.521c0.068 0.042 0.133 0.087 0.194 0.135" fill="#e6e7e8"/>
    </g>
   </g>
  </g>
  <g transform="matrix(7.411 0 0 -7.411 -3183.5 1816.4)">
   <g clip-path="url(#clipPath15286)">
    <g transform="translate(464.06 249.29)">
     <path d="m0 0h-1.329c-0.077-0.031-0.156-0.058-0.239-0.083-0.067-0.019-0.135-0.037-0.205-0.053h1.773v0.136m-4.052 0h-1.015l0.078-0.114h-2.06l-0.077 0.114h-2.106v-0.114h-1.717v0.114h-0.203v-0.114h-4.714v0.114h-0.118l0.048-0.114h-1.839l-0.047 0.114h-3.189l-0.046-0.114h-1.804l0.048 0.114h-0.924v-0.114h-1.715v0.114h-2.382v-0.136h24.322c-0.184 0.035-0.364 0.08-0.54 0.136" fill="#363536"/>
    </g>
    <path d="m440.32 249.29h-1.715v-0.114h1.715z" fill="#e6e7e8"/>
    <g transform="translate(448.07 249.29)">
     <path d="m0 0h-1.837l0.046-0.114h1.839l-0.048 0.114m-5.027 0h-1.802l-0.048-0.114h1.804z" fill="#e6e7e8"/>
    </g>
    <path d="m452.9 249.29h-4.714v-0.114h4.714z" fill="#e6e7e8"/>
    <g transform="translate(458.99 249.29)">
     <path d="m0 0h-2.059l0.077-0.114h2.06l-0.078 0.114m-4.165 0h-1.717v-0.114h1.717z" fill="#e6e7e8"/>
    </g>
    <g transform="translate(462.73 249.29)">
     <path d="m0 0h-2.722c0.176-0.056 0.356-0.101 0.539-0.136h1.739c0.07 0.016 0.139 0.034 0.205 0.053 0.083 0.025 0.163 0.052 0.239 0.083" fill="#e6e7e8"/>
    </g>
   </g>
  </g>
  <g transform="matrix(7.411 0 0 -7.411 -3183.5 1816.4)">
   <g clip-path="url(#clipPath15314)">
    <g transform="translate(463.7 248.99)">
     <path d="m0 0h-27.473v-0.136h27.473v0.136" fill="#363536"/>
    </g>
   </g>
  </g>
  <g transform="matrix(7.411 0 0 -7.411 235.87 -88.596)">
   <path d="m0 0h-0.057v0.878l-1.013-0.114 0.134 0.222-8e-3 0.055-0.839 0.605 0.272 0.066 0.029 0.07-0.136 0.414 0.427-0.137 0.061 0.026-5e-3 0.333 0.578-0.576 0.01 0.038-0.222 1.092 0.407-0.186 0.062 5e-3 0.195 0.619 0.196-0.619 0.062-5e-3 0.41 0.186-0.231-1.092 5e-3 -0.038 0.5 0.576 0.086-0.333 0.062-0.026 0.426 0.137-0.136-0.414 0.028-0.07 0.272-0.066-0.839-0.605-7e-3 -0.055 0.135-0.222-0.864 0.115z" fill="#fff" fill-rule="evenodd"/>
  </g>
 </g>
</svg>
