<svg width="800" height="344.33" version="1.1" viewBox="0 0 211.67 91.105" xmlns="http://www.w3.org/2000/svg">
 <g transform="translate(-47.209 117.24)" fill="#231f20">
  <path d="m123.52-98.268c-0.71078 0.38213-2.4121 0.68658-4.1374 0.68658-5.803 0-8.7882-4.2448-8.7882-9.8329s2.9851-9.827 8.6807-9.827c1.9464 0 3.5343 0.51938 4.2449 0.79405l-0.19123 3.1463c-0.71079-0.35827-1.833-1.0388-3.6121-1.0388-2.9074 0-5.397 1.9702-5.397 6.9254 0 4.9553 2.4896 6.9254 5.397 6.9254 1.6956 0 2.8181-0.40599 3.6121-0.98511z"/>
  <path d="m135.43-105.14-2.4119-8.9254h-0.0508l-2.6268 8.9254zm0.73955 2.6806h-6.5732l-1.3674 4.603h-3.5045l6.406-19.111h3.833l6.1611 19.111h-3.612z"/>
  <path d="m143.3-116.97h4.1613l6.3522 15.003h0.0508v-15.003h3.1762v19.111h-4.1852l-6.3283-14.896h-0.0508v14.896h-3.1762z"/>
  <path d="m169.91-105.14-2.4121-8.9254h-0.0508l-2.6268 8.9254zm0.74125 2.6806h-6.5732l-1.3674 4.603h-3.5045l6.406-19.111h3.8328l6.1613 19.111h-3.6179z"/>
  <path d="m181.14-100.54h1.1762c3.9464 0 5.7254-2.6806 5.7254-6.8717s-1.779-6.8717-5.7254-6.8717h-1.1762zm-3.5045-16.43h4.9851c5.9702 0 9.1403 3.2299 9.1403 9.5583 0 6.4359-3.8328 9.5523-9.1403 9.5523h-4.9851z"/>
  <path d="m195.09-116.97h3.5045v19.111h-3.5045z"/>
  <path d="m211.52-105.14-2.4119-8.9254h-0.0508l-2.6268 8.9254zm0.73956 2.6806h-6.5732l-1.3674 4.603h-3.5045l6.406-19.111h3.833l6.1611 19.111h-3.612z"/>
  <path d="m219.93-116.97h4.1611l6.3524 15.003h0.0508v-15.003h3.1762v19.111h-4.1852l-6.3285-14.896h-0.0508v14.896h-3.176z"/>
  <path d="m111.39-93.152h3.5045v19.111h-3.5045z"/>
  <path d="m120.04-93.154h4.1613l6.3522 15.003h0.0508v-15.003h3.1762v19.111h-4.185l-6.3285-14.896h-0.0508v14.896h-3.1762z"/>
  <path d="m141.71-76.725h1.1762c3.9464 0 5.7255-2.6806 5.7255-6.8717s-1.7792-6.8717-5.7255-6.8717h-1.1762zm-3.5045-16.43h4.9851c5.9702 0 9.1464 3.2299 9.1464 9.5583 0 6.4359-3.833 9.5523-9.1464 9.5523h-4.9851z"/>
  <path d="m155.65-93.152h3.5045v19.111h-3.5045z"/>
  <path d="m170.85-84.748h6.1911v9.9941c-0.99172 0.51938-2.6866 0.98511-5.1762 0.98511-6.1373 0-9.397-4.1612-9.397-9.8269 0-5.6717 3.2598-9.8329 9.397-9.8329 2.1911 0 3.9105 0.49552 4.6509 0.82383l-0.19123 3.1463c-1.122-0.68658-2.6509-1.1762-4.406-1.1762-3.7255 0-5.7255 3.0687-5.7255 7.0389 0 4.2985 1.9464 7.0329 5.5345 7.0329 0.8174 0 1.5586-0.16077 2.0239-0.35218v-5.1463h-2.9015z"/>
  <path d="m181.53-93.154h10.048v2.7941h-6.5433v5.0926h6.1911v2.7941h-6.1911v5.6359h6.8179v2.7941h-10.322z"/>
  <path d="m195.74-93.154h4.1613l6.3524 15.003h0.0508v-15.003h3.176v19.111h-4.185l-6.3285-14.896h-0.0508v14.896h-3.1762z"/>
  <path d="m220.36-76.451c2.2149 0 4-1.8925 4-7.1463 0-5.2597-1.7851-7.1463-4-7.1463-2.2209 0-4 1.8866-4 7.1463 0 5.2538 1.7792 7.1463 4 7.1463m0-16.979c3.9702 0 7.612 2.9612 7.612 9.8329s-3.6418 9.827-7.612 9.827-7.612-2.9552-7.612-9.827c0-6.8717 3.6418-9.8329 7.612-9.8329"/>
  <path d="m234.6-93.154v12.376c0 3.1762 0.96125 4.215 3.0149 4.215 1.9941 0 2.9792-1.0388 2.9792-4.215v-12.376h3.5104v12.376c0 5.0389-2.9074 7.009-6.4896 7.009-3.6179 0-6.5194-1.9702-6.5194-7.009v-12.376z"/>
  <path d="m248.3-77.738c0.68709 0.43578 2.1911 1.1762 4.0537 1.1762 1.535 0 2.9015-0.84769 2.9015-2.7642 0-1.3672-0.79371-1.9702-2.4894-2.9015l-1.7852-0.98511c-1.8864-1.0448-3.1164-2.5493-3.1164-5.015 0-3.4209 2.8181-5.2001 6.0241-5.2001 2.0239 0 3.4448 0.51938 3.9941 0.68658l-0.15231 2.9254c-0.84786-0.32831-1.9762-0.81791-3.5881-0.81791-1.7553 0-2.6568 0.9313-2.6568 2.2448 0 1.4209 0.95448 1.9702 2.0239 2.5732l2.0538 1.1523c2.2447 1.2598 3.3134 2.4597 3.3134 5.1463 0 3.8866-2.7643 5.7493-6.406 5.7493-1.9164 0-3.397-0.27467-4.3524-0.84769z"/>
  <path d="m116.02-60.384c2.1911 0 3.1464-1.0687 3.1464-3.1463 0-2.0836-0.95448-3.1224-3.1464-3.1224h-1.3133v6.2687zm-4.8179-8.9553h5.4747c3.9464 0 6 2.1911 6 5.809 0 3.612-2.0537 5.8269-6 5.8269h-1.9702v7.4807h-3.5045z"/>
  <path d="m125.58-69.338h10.048v2.7941h-6.5433v5.0926h6.1911v2.7941h-6.1911v5.6418h6.8179v2.7881h-10.322z"/>
  <path d="m146.66-52.635c2.2208 0 4-1.8925 4-7.1463 0-5.2597-1.7792-7.1463-4-7.1463-2.2149 0-4 1.8866-4 7.1463 0 5.2538 1.7851 7.1463 4 7.1463m0-16.979c3.9702 0 7.612 2.9612 7.612 9.8329s-3.6417 9.827-7.612 9.827-7.612-2.9552-7.612-9.827c0-6.8717 3.6418-9.8329 7.612-9.8329"/>
  <path d="m162.77-60.384c2.1911 0 3.1462-1.0687 3.1462-3.1463 0-2.0836-0.95448-3.1224-3.1462-3.1224h-1.3132v6.2687zm-4.8181-8.9553h5.4747c3.9464 0 6 2.1911 6 5.809 0 3.612-2.0536 5.8269-6 5.8269h-1.97v7.4807h-3.5047z"/>
  <path d="m172.71-69.338h3.5045v16.323h6.2986v2.7881h-9.803z"/>
  <path d="m185.58-69.338h10.048v2.7941h-6.5433v5.0926h6.1911v2.7941h-6.1911v5.6418h6.8179v2.7881h-10.322z"/>
  <path d="m199.03-53.923c0.68709 0.44187 2.1911 1.1762 4.0537 1.1762 1.535 0 2.9015-0.84769 2.9015-2.7642 0-1.3672-0.79371-1.9702-2.4894-2.9015l-1.7792-0.98511c-1.8925-1.0448-3.1224-2.5493-3.1224-5.015 0-3.4209 2.8179-5.2 6.0239-5.2 2.0239 0 3.4448 0.51938 3.9941 0.68658l-0.16923 2.9254c-0.84787-0.32239-1.9702-0.81791-3.5881-0.81791-1.7553 0-2.6568 0.93129-2.6568 2.2448 0 1.4268 0.96125 1.9702 2.0239 2.5732l2.0538 1.1523c2.2508 1.2598 3.3134 2.4597 3.3134 5.1463 0 3.8866-2.7643 5.7493-6.406 5.7493-1.9164 0-3.3911-0.27467-4.3524-0.84769z"/>
  <path d="m217.4-70.762-2.0777 6.7881h-2.6328l1.4266-6.7881z"/>
  <path d="m116.13-37.199c1.8628 0 3.1224-0.95516 3.1224-2.9015 0-2.1911-1.1525-2.7403-3.1224-2.7403h-1.4266v5.6418zm-4.9313-8.3225h5.9701c3.397 0 5.6956 1.5284 5.6956 5.0388 0 2.4896-1.5586 4.1612-3.6956 4.4896v0.07785c0.71078 0.11339 1.5045 0.44187 2.1075 2.2209l2.4957 7.2836h-3.7255l-1.8926-6.215c-0.46539-1.5045-1.3674-2-2.6507-2h-0.80048v8.215h-3.5045z"/>
  <path d="m135.98-33.694-2.4119-8.9255h-0.0508l-2.6268 8.9255zm0.74125 2.6866h-6.5732l-1.3674 4.5971h-3.5045l6.406-19.111h3.833l6.1611 19.111h-3.612z"/>
  <path d="m147.76-29.094h1.1762c3.9462 0 5.7254-2.6866 5.7254-6.8717 0-4.1911-1.7792-6.8717-5.7254-6.8717h-1.1762zm-3.5045-16.43h4.9851c5.9702 0 9.1462 3.2299 9.1462 9.5583 0 6.4359-3.8328 9.5583-9.1462 9.5583h-4.9851z"/>
  <path d="m162.25-45.522h3.5045v19.111h-3.5045z"/>
  <path d="m177.23-28.82c2.2149 0 4-1.8926 4-7.1463 0-5.2597-1.7851-7.1463-4-7.1463-2.2209 0-4 1.8866-4 7.1463 0 5.2538 1.7792 7.1463 4 7.1463m0-16.979c3.9702 0 7.612 2.9612 7.612 9.8329s-3.6418 9.8269-7.612 9.8269-7.612-2.9552-7.612-9.8269 3.6418-9.8329 7.612-9.8329"/>
  <path d="m123.52-98.268c-0.71078 0.38213-2.4121 0.68658-4.1374 0.68658-5.803 0-8.7882-4.2448-8.7882-9.8329s2.9851-9.827 8.6807-9.827c1.9464 0 3.5343 0.51938 4.2449 0.79405l-0.19123 3.1463c-0.71079-0.35827-1.833-1.0388-3.6121-1.0388-2.9074 0-5.397 1.9702-5.397 6.9254 0 4.9553 2.4896 6.9254 5.397 6.9254 1.6956 0 2.8181-0.40599 3.6121-0.98511z"/>
  <path d="m135.43-105.14-2.4119-8.9254h-0.0508l-2.6268 8.9254zm0.73955 2.6806h-6.5732l-1.3674 4.603h-3.5045l6.406-19.111h3.833l6.1611 19.111h-3.612z"/>
  <path d="m143.3-116.97h4.1613l6.3522 15.003h0.0508v-15.003h3.1762v19.111h-4.1852l-6.3283-14.896h-0.0508v14.896h-3.1762z"/>
  <path d="m169.91-105.14-2.4121-8.9254h-0.0508l-2.6268 8.9254zm0.74125 2.6806h-6.5732l-1.3674 4.603h-3.5045l6.406-19.111h3.8328l6.1613 19.111h-3.6179z"/>
  <path d="m181.14-100.54h1.1762c3.9464 0 5.7254-2.6806 5.7254-6.8717s-1.779-6.8717-5.7254-6.8717h-1.1762zm-3.5045-16.43h4.9851c5.9702 0 9.1403 3.2299 9.1403 9.5583 0 6.4359-3.8328 9.5523-9.1403 9.5523h-4.9851z"/>
  <path d="m195.09-116.97h3.5045v19.111h-3.5045z"/>
  <path d="m211.52-105.14-2.4119-8.9254h-0.0508l-2.6268 8.9254zm0.73956 2.6806h-6.5732l-1.3674 4.603h-3.5045l6.406-19.111h3.833l6.1611 19.111h-3.612z"/>
  <path d="m219.93-116.97h4.1611l6.3524 15.003h0.0508v-15.003h3.1762v19.111h-4.1852l-6.3285-14.896h-0.0508v14.896h-3.176z"/>
  <path d="m111.39-93.152h3.5045v19.111h-3.5045z"/>
  <path d="m120.04-93.154h4.1613l6.3522 15.003h0.0508v-15.003h3.1762v19.111h-4.185l-6.3285-14.896h-0.0508v14.896h-3.1762z"/>
  <path d="m141.71-76.725h1.1762c3.9464 0 5.7255-2.6806 5.7255-6.8717s-1.7792-6.8717-5.7255-6.8717h-1.1762zm-3.5045-16.43h4.9851c5.9702 0 9.1464 3.2299 9.1464 9.5583 0 6.4359-3.833 9.5523-9.1464 9.5523h-4.9851z"/>
  <path d="m155.65-93.152h3.5045v19.111h-3.5045z"/>
  <path d="m170.85-84.748h6.1911v9.9941c-0.99172 0.51938-2.6866 0.98511-5.1762 0.98511-6.1373 0-9.397-4.1612-9.397-9.8269 0-5.6717 3.2598-9.8329 9.397-9.8329 2.1911 0 3.9105 0.49552 4.6509 0.82383l-0.19123 3.1463c-1.122-0.68658-2.6509-1.1762-4.406-1.1762-3.7255 0-5.7255 3.0687-5.7255 7.0389 0 4.2985 1.9464 7.0329 5.5345 7.0329 0.8174 0 1.5586-0.16077 2.0239-0.35218v-5.1463h-2.9015z"/>
  <path d="m181.53-93.154h10.048v2.7941h-6.5433v5.0926h6.1911v2.7941h-6.1911v5.6359h6.8179v2.7941h-10.322z"/>
  <path d="m195.74-93.154h4.1613l6.3524 15.003h0.0508v-15.003h3.176v19.111h-4.185l-6.3285-14.896h-0.0508v14.896h-3.1762z"/>
  <path d="m220.36-76.451c2.2149 0 4-1.8925 4-7.1463 0-5.2597-1.7851-7.1463-4-7.1463-2.2209 0-4 1.8866-4 7.1463 0 5.2538 1.7792 7.1463 4 7.1463m0-16.979c3.9702 0 7.612 2.9612 7.612 9.8329s-3.6418 9.827-7.612 9.827-7.612-2.9552-7.612-9.827c0-6.8717 3.6418-9.8329 7.612-9.8329"/>
  <path d="m234.6-93.154v12.376c0 3.1762 0.96125 4.215 3.0149 4.215 1.9941 0 2.9792-1.0388 2.9792-4.215v-12.376h3.5104v12.376c0 5.0389-2.9074 7.009-6.4896 7.009-3.6179 0-6.5194-1.9702-6.5194-7.009v-12.376z"/>
  <path d="m248.3-77.738c0.68709 0.43578 2.1911 1.1762 4.0537 1.1762 1.535 0 2.9015-0.84769 2.9015-2.7642 0-1.3672-0.79371-1.9702-2.4894-2.9015l-1.7852-0.98511c-1.8864-1.0448-3.1164-2.5493-3.1164-5.015 0-3.4209 2.8181-5.2001 6.0241-5.2001 2.0239 0 3.4448 0.51938 3.9941 0.68658l-0.15231 2.9254c-0.84786-0.32831-1.9762-0.81791-3.5881-0.81791-1.7553 0-2.6568 0.9313-2.6568 2.2448 0 1.4209 0.95448 1.9702 2.0239 2.5732l2.0538 1.1523c2.2447 1.2598 3.3134 2.4597 3.3134 5.1463 0 3.8866-2.7643 5.7493-6.406 5.7493-1.9164 0-3.397-0.27467-4.3524-0.84769z"/>
  <path d="m116.02-60.384c2.1911 0 3.1464-1.0687 3.1464-3.1463 0-2.0836-0.95448-3.1224-3.1464-3.1224h-1.3133v6.2687zm-4.8179-8.9553h5.4747c3.9464 0 6 2.1911 6 5.809 0 3.612-2.0537 5.8269-6 5.8269h-1.9702v7.4807h-3.5045z"/>
  <path d="m125.58-69.338h10.048v2.7941h-6.5433v5.0926h6.1911v2.7941h-6.1911v5.6418h6.8179v2.7881h-10.322z"/>
  <path d="m146.66-52.635c2.2208 0 4-1.8925 4-7.1463 0-5.2597-1.7792-7.1463-4-7.1463-2.2149 0-4 1.8866-4 7.1463 0 5.2538 1.7851 7.1463 4 7.1463m0-16.979c3.9702 0 7.612 2.9612 7.612 9.8329s-3.6417 9.827-7.612 9.827-7.612-2.9552-7.612-9.827c0-6.8717 3.6418-9.8329 7.612-9.8329"/>
  <path d="m162.77-60.384c2.1911 0 3.1462-1.0687 3.1462-3.1463 0-2.0836-0.95448-3.1224-3.1462-3.1224h-1.3132v6.2687zm-4.8181-8.9553h5.4747c3.9464 0 6 2.1911 6 5.809 0 3.612-2.0536 5.8269-6 5.8269h-1.97v7.4807h-3.5047z"/>
  <path d="m172.71-69.338h3.5045v16.323h6.2986v2.7881h-9.803z"/>
  <path d="m185.58-69.338h10.048v2.7941h-6.5433v5.0926h6.1911v2.7941h-6.1911v5.6418h6.8179v2.7881h-10.322z"/>
  <path d="m199.03-53.923c0.68709 0.44187 2.1911 1.1762 4.0537 1.1762 1.535 0 2.9015-0.84769 2.9015-2.7642 0-1.3672-0.79371-1.9702-2.4894-2.9015l-1.7792-0.98511c-1.8925-1.0448-3.1224-2.5493-3.1224-5.015 0-3.4209 2.8179-5.2 6.0239-5.2 2.0239 0 3.4448 0.51938 3.9941 0.68658l-0.16923 2.9254c-0.84787-0.32239-1.9702-0.81791-3.5881-0.81791-1.7553 0-2.6568 0.93129-2.6568 2.2448 0 1.4268 0.96125 1.9702 2.0239 2.5732l2.0538 1.1523c2.2508 1.2598 3.3134 2.4597 3.3134 5.1463 0 3.8866-2.7643 5.7493-6.406 5.7493-1.9164 0-3.3911-0.27467-4.3524-0.84769z"/>
  <path d="m217.4-70.762-2.0777 6.7881h-2.6328l1.4266-6.7881z"/>
  <path d="m116.13-37.199c1.8628 0 3.1224-0.95516 3.1224-2.9015 0-2.1911-1.1525-2.7403-3.1224-2.7403h-1.4266v5.6418zm-4.9313-8.3225h5.9701c3.397 0 5.6956 1.5284 5.6956 5.0388 0 2.4896-1.5586 4.1612-3.6956 4.4896v0.07785c0.71078 0.11339 1.5045 0.44187 2.1075 2.2209l2.4957 7.2836h-3.7255l-1.8926-6.215c-0.46539-1.5045-1.3674-2-2.6507-2h-0.80048v8.215h-3.5045z"/>
  <path d="m135.98-33.694-2.4119-8.9255h-0.0508l-2.6268 8.9255zm0.74125 2.6866h-6.5732l-1.3674 4.5971h-3.5045l6.406-19.111h3.833l6.1611 19.111h-3.612z"/>
  <path d="m147.76-29.094h1.1762c3.9462 0 5.7254-2.6866 5.7254-6.8717 0-4.1911-1.7792-6.8717-5.7254-6.8717h-1.1762zm-3.5045-16.43h4.9851c5.9702 0 9.1462 3.2299 9.1462 9.5583 0 6.4359-3.8328 9.5583-9.1462 9.5583h-4.9851z"/>
  <path d="m162.25-45.522h3.5045v19.111h-3.5045z"/>
  <path d="m177.23-28.82c2.2149 0 4-1.8926 4-7.1463 0-5.2597-1.7851-7.1463-4-7.1463-2.2209 0-4 1.8866-4 7.1463 0 5.2538 1.7792 7.1463 4 7.1463m0-16.979c3.9702 0 7.612 2.9612 7.612 9.8329s-3.6418 9.8269-7.612 9.8269-7.612-2.9552-7.612-9.8269 3.6418-9.8329 7.612-9.8329"/>
  <path d="m94.749-63.75-1.3369-0.94923c0.66848 0.01862 1.0509 0.42985 1.4385 0.83585l-0.10154 0.11339m-4.3224 6.0717c0.03385-1.2418-0.05077-2.4836 0.30462-3.6896 0.10154 1.2478 0.10154 2.4836-0.30462 3.6896m-13.63-18.048c-0.77678-1.5045-1.6111-2.9791-2.0479-4.6448 0.94263 1.4268 1.7553 2.9135 2.2985 4.5314l-0.25047 0.11339m-10.49 9.6896c-1.8866 3.9344-4.1672 7.6299-6.7523 11.146-1.474 2.006-2.9492 4.0179-4.5553 5.9224l-0.33508 0.42393-0.15231 0.16754-0.76494 0.82992-0.01202 0.01862-0.0059 0.0058-0.10154 0.20291 0.0059 0.01862h-0.01185l-0.08462 0.10831-0.03385-0.07785 0.10154-0.03554 0.0118-0.0116 0.10154-0.19699v-0.01861l0.01692-0.01208 0.67524-0.91336 0.15231-0.17905 0.32831-0.43578c0.48401-0.66864 0.97986-1.3373 1.4622-2.006 3.5463-4.8956 7.2657-9.6837 9.8569-15.2l0.24539-0.23287-0.15231 0.47758m-2.1432-4.203c-1.8748 0.13708-2.8956 0.05415-3.4509-0.32239 1.1406-0.01208 2.2508 0.12523 3.4509 0.32239m1.0154-16.926c-0.5077 6e-3 -1.0154 0-1.6839 0 1.1051-0.37012 2.0657-0.6089 3.0686-0.49552 2.03 0.23879 4 0.75224 6.1016 1.3432-0.83602 0.04231-1.5282 0.02369-2.185-0.17905-1.7374-0.51346-3.5047-0.69251-5.3016-0.66864m9.7076-18.537c-0.75817-0.14892-1.4808-0.23879-2.2628-0.49552 0.60924-0.31646 1.9941 0 2.2628 0.49552m-18.15 25.66c0.17939-1.1523 0.62109-1.6776 1.4808-1.7433-0.38755 0.70452-0.73448 1.3373-1.4808 1.7433m41.171 19.129c0.5737-0.98511 0.51955-2.012 0.13539-3.0388l-0.46032-0.77018-0.05077-0.43578c0.286-1.0508 0.20308-2.0896 0.0058-3.1403-0.15231-0.81791-0.08462-1.6538-0.01202-2.4836 0.10154-1.009 0.08462-2.012-0.19631-3.003l-0.33508-1.4686c-0.29278-0.86563-0.80048-1.6001-1.3082-2.3403l-1.1406-1.5642 0.29278-0.59113 1.0746 0.7404c0.5314 1.2478 1.32 2.3761 1.791 3.6717l0.03385-1.3075-0.38755-1.403c-0.69894-1.4268-0.59063-2.9732-0.76494-4.4836-0.08462-0.68066-0.15231-1.3493-0.08462-2.0299 0.10154-1.0806-0.34693-2.0955-0.37062-3.1642l-0.5077-1.0508c-0.10154-0.84177-0.23862-1.6717-0.31647-2.5134-0.15231-1.7672-0.47216-3.4627-1.9523-4.6806l-0.55001-0.97919c-0.62109-0.87765-1.5586-1.2119-2.5373-1.4986-0.91386-0.27467-1.8567-0.22085-2.7881-0.31038-0.70401-0.07108-1.3082-0.4835-2.0477-0.5671-0.06769 1.0867 0.15231 2.1373 0.25047 3.1881 0.35201 3.7971 1.0696 7.5344 1.815 11.266 0.46032 2.2746 0.96125 4.5433 1.4503 6.818 0.82925 3.8329 2.0357 7.5702 3.0268 11.361 0.85971 3.3075 1.7673 6.6031 2.4121 9.9643 0.3097 1.6417 0.47216 3.2836 0.32154 4.9553-0.10154-1.0926-0.20816-2.1851-0.35201-3.2776-0.3097-2.4179-0.9731-4.7642-1.5113-7.1404-1.1999-5.3194-2.8597-10.508-4.221-15.785-0.91894-3.5821-1.4977-7.2299-2.2268-10.848-0.43493-2.1552-0.84786-4.3164-1.1406-6.5015-0.11846-0.92537-0.22677-1.8627-0.25724-2.8-0.10154-2.8717-0.41124-5.7254-0.51278-8.5971-0.06769-1.9522-0.10154-3.9045-0.03385-5.8568 0.01692-0.59113-0.11846-1.021-0.65663-1.3254l-1.5823 0.4896c-1.0983 6.1792-3.0746 12.102-4.5016 18.161-0.57878 2.4359-1.5282 4.7642-2.376 7.1224-1.5519 4.2806-3.0628 8.5852-4.6807 12.842-0.25724 0.66864-0.52632 1.3254-0.81232 1.9821-0.84786 1.9582-1.8149 3.8687-2.8 5.7672l-0.63294 0.90743 0.52463-1.009c0.87156-1.8985 1.7969-3.7791 2.603-5.7015 1.4808-3.5463 2.7881-7.1583 4.1075-10.764 1.54-4.1971 2.9433-8.4359 3.9105-12.794 0.95448-4.2806 1.7792-8.5852 2.6507-12.878 0.23862-1.1462 0.44847-2.2985 0.67524-3.4508l0.35878-0.4478-0.97986-0.23879 0.33508 1.2896-0.61432 0.57319c-1.1288-0.16077-2.0716-0.81198-3.1164-1.188l-1.1829-0.23879c0.86648 0.83585 1.7433 1.5761 2.7404 2.3344-0.62109 0.25673-0.93079-0.0542-1.2303-0.25081-0.91894-0.60298-1.8089-1.2537-2.7105-1.8746l-0.66848-0.26265c0.77002 0.83585 1.5163 1.7015 2.3224 2.5075 0.80048 0.80589 1.8387 1.3014 2.7702 1.9582-0.69894 0.21493-1.3251-0.066-1.9584-0.17313-1.4453-0.24471-2.8895-0.38213-4.3522-0.14385l-1.0865 0.28059c-0.90202 0.16077-1.2591 0.94923-1.815 1.5104l-0.74632 1.2955-0.30462 0.31037-1.0746 0.615c-0.96802 0.45964-1.2709 1.3134-1.4926 2.2806-0.29785 1.3314-0.55509 2.6627-1.535 3.7612-0.55001 0.615-0.70401 1.5583-1.2185 2.209-0.93756 1.1762-1.4148 2.5851-2.0418 3.8926-0.72771 1.5343-1.1576 3.212-1.5823 4.8657-0.20308 0.78812-0.51278 1.5343-0.78863 2.2985l-0.43662 0.54324c-0.64478 0.63294-1.3437 1.218-1.6365 2.1194l-0.48909 0.17905 0.16923 1.4209c-0.10154 0.59706-0.06769 1.188-0.03385 1.7791l-0.39939 1.003c-1.2845 1.5702-2.6687 3.0866-3.1701 5.1403-0.15231 0.63277-0.15231 0.63277 0.01692 1.0687 0.5077-0.47166 0.9731-0.9731 1.535-1.3672 2.0239-1.4329 4.197-1.5999 6.5255-0.91945 1.6111 0.46573 3.2596 0.80589 4.8895 1.206l0.5974 0.17905c-0.96633 0.11339-1.7492-0.09477-2.5432-0.23879-1.6365-0.28651-3.3016-0.62092-4.8777 0.08293-1.1339 0.51346-2.1792 1.2478-3.2121 1.9522-1.2422 0.85379-2.4776 1.7433-3.6417 2.7045-0.67524 0.54933-1.2236 1.2418-1.9761 1.7373 1.4859-0.45372 2.8418-1.2359 4.3762-1.594-0.94263 0.93739-2 1.7552-2.7941 2.8179l-0.51278 0.85971-0.01692 0.066c-0.40616 0.87172-0.63294 1.8209-0.99171 2.7045h0.0059l0.39939-0.19699v-0.0058l0.17262-0.01208 0.03385 0.09477c-1.535 2.5135-2.1015 5.3314-2.5911 8.1732l-0.28093 1.0985-0.17939 1.409-0.08462 0.23879c-0.52462 1.1821-0.77678 2.3702-0.28093 3.6538l0.01692 1.3732 0.74124-0.50753-0.11846 0.79997c-0.286 0.69251-0.11846 1.2955 0.28093 1.8687l-0.03385 1.0867 0.23354 0.62092 0.41801-0.35827 0.80555-0.16754 1.0983-0.23287 0.30462-0.42985-0.10154-0.209v-0.43578l0.42986-0.16754 0.32154 0.38213c0.11846 0.82383 0.22 1.6478-0.10154 2.4418l1.0509 0.16754c0.70401-0.16077 1.3793-0.46573 2.1254-0.41192l0.10154-0.04231c0.15231-0.70452 1.0746-0.67457 1.2777-1.3314l0.48909-0.45964c1.0865-0.26857 1.9284-0.90743 2.6209-1.7851 0.36385-0.46573 0.77678-0.88357 0.87156-1.5104l0.38755-0.25673c0.63801-0.17905 1.1169-0.53732 1.5468-1.0687 0.5974-0.72838 1.0628-1.4806 1.2659-2.4l0.11846-0.16754 0.16923-0.03554-0.01692 1.3193c0.99679-1.0806 2.0179-2.0955 2.7045-3.409 0.29278-0.5671 0.71078-1.0746 1.1339-1.5581 0.77002-0.87765 1.2828-1.9105 1.8567-2.9075 0.60924-1.0567 1.1948-2.1314 1.8687-3.1582l0.286-0.62684c-0.05077-0.68066 0.34693-1.1403 0.68709-1.6538 0.57878-0.87156 1.1339-1.7493 1.4808-2.7821 0.25047-0.75224 0.46032-1.4747 0.61432-2.2448l0.99171-1.4449 0.3097-0.49552c1.0391-1.7612 0.62617-3.4747-0.11846-5.1941l-0.38755-1.2478c0.72771 1.4866 1.8746 2.8239 1.6179 4.6866 0.75817-1.3193 1.9941-2.4 1.8986-4.1194h0.38247l0.24539-0.87172c0.5737-1.0687 1.3725-2.006 1.8089-3.1582l0.32831-0.78203c0.79371 1.4686 0.85971 3.1762 1.7671 4.7105 0.03385-1.0746-0.10154-2.0597 0.34693-2.9672-0.06769 1.8329 0.76494 3.5224 0.85971 5.3493 0.25724-0.95516 0.51955-1.9164 0.80048-2.9672 0.13539 1.1462-0.30462 2.0776-0.51278 3.0508-0.33508 1.5761-0.51955 3.1582 0.22 4.6926l0.42308 0.74632c0.32831 0.44187 0.58555 0.90743 0.71586 1.4806 0.11846 0.56118 0.38247 1.1462 0.96125 1.4686l0.39939 0.96125c0.05077 0.6089 0.45355 1.003 0.77002 1.4568l0.52462 0.02369 0.41801 0.71044c0.17262-0.66864-0.0059-1.3016-0.08462-1.9164-0.15231-1.0685-0.01692-2.1252 0.05077-3.182l0.46032-0.48367 0.46032 0.93739c-0.11846 1.1701-0.40616 2.3284-0.38755 3.5105l0.01692 0.14893 0.26908-1.1462 0.26908-1.1403 0.65663-0.29261c-0.42986 1.3254-0.54324 2.7105-0.98494 4.0299l-0.01202 0.10662c0.08462 1.4388-0.46032 2.8597-0.13539 4.3105l0.10154 0.47166c0.53647 0.81198 0.48909 1.7612 0.56186 2.6746l0.25047 1.0926 0.45355 0.5253 0.96802 0.31038c0.34693 0.6986 0.98494 1.003 1.7135 1.1701l0.8834 0.96125 0.95448-1.3911 0.41801-0.75224c0.58555-0.77018 0.54324-1.624 0.3757-2.4836-0.15231-0.81791 0.29278-1.5045 0.35201-2.3463l1.254 0.20291c0.05077-1.0388 0.08462-2.0299-0.17939-3.009l0.06769-0.88949"/>
  <path d="m90.526-111.14c-0.26908 0.6925-1.0933 0.90151-1.7253 0.48367 0.60247 0.0592 1.1051-0.23287 1.7253-0.48367m-3.7135 11.111 0.53816-0.0948c0.60924 0.3762 1.2659 0.16077 1.8866 0.16077l0.80555-0.25673c0.55509-0.2926 1.0036 0.0711 1.4977 0.0305 0.86648-0.0711 1.4266 0.42986 1.7851 1.1462 0.29785 0.6089 0.5314 1.2598 0.20308 1.9522l-0.08462 0.60298c0.93756-1.3911 1.0205-2.9672 1.0205-4.5791l0.4417-0.10154 0.29785-0.82993 0.64478 0.17905c0.33508-0.90743 0.17262-1.3014-0.68032-1.6478-0.65155-0.26874-1.3488-0.51346-1.8507-0.96717-0.75309-0.69251-1.6246-1.0508-2.5612-1.3911 0.91386-0.0542 1.8328-0.26265 2.6866 0.25673 0.69894 0.41784 1.3251 0.91336 1.8626 1.5284l0.23354 0.0592 0.9494-0.20291c-0.56693-0.14385-0.73955-0.63277-1.1051-1.0926 0.65663-0.0237 1.188 0.38213 1.8091 0.28059l-1.2185-0.52547c0.50093-0.46573 1.0746 0.32831 1.6246-0.19107-0.96125-0.43577-1.6839-1.218-2.9015-1.3493l1.2946-0.14385c-0.26231-0.72246 0.65663-0.54933 0.77002-1.0567l-1.056 0.46573-1.1948 0.0592-1.3793 0.10831c-0.83602 0.0829-1.6179 0.14385-2.4778-0.18514-0.84109-0.32239-1.8269-0.28652-2.7582-0.46574 1.2659-0.22694 2.5194-0.55525 3.7971-0.64478 1.2591-0.0897 2.5432 0.0542 3.9283 0.42986-0.38247-0.59706-1.0086-0.40007-1.3251-0.77019 0.8834-0.44779 1.7194-0.91944 2.7105-0.96125-0.64478-0.30445-1.2591-6e-3 -2.0178 0.12016 0.5314-0.64478 1.1694-0.72838 1.8685-0.86563-1.0983-0.53732-1.8567 0.55526-2.9254 0.50144l0.99171-0.59114-0.61432-6e-3c0.08462-0.54933 0.87832-0.42393 0.96125-1.0269l-1.2659 0.53732-0.06769 0.0423 0.03385-0.0897c0.34016-0.71045 0.90709-1.1582 1.7135-1.3552l-0.68032-0.0592-1.2473 1.1702-1.2896 0.9313c0.51278-0.55526 1.0628-1.1164 1.5637-1.7075 0.51955-0.60891 1.0865-1.1285 1.9046-1.3194l-0.72263-0.10154-0.08462-0.0829-1.1999 0.57912-0.36385 0.28059c0.11846-0.6507 0.64478-0.91352 1.1051-1.2598l-0.89017 0.34033-0.83602 0.81791-0.19123 0.13708h-0.0059l-0.13539-6e-3 0.06769-0.066 0.15231-0.16754 0.96633-1.4268-0.68709 0.23879c0.11846-0.74023 0.8174-1.1403 1.0933-1.815l-0.56186 0.11338-0.72771 0.68659c-0.74632 0.27466-1.1525 0.88949-1.6534 1.4209l-0.24539 0.16754-0.25047-0.17313c-0.08462 0.80606-0.66847 1.4568-0.79371 2.2985-0.10154 0.65679-0.79371 0.91335-1.403 0.58504 0.68709-0.80589 0.86648-1.6538 0.44847-2.2806l-0.16923 1.3373-0.85971 0.79405 0.16923-1.3194-0.3757 0.91945-0.38247 0.3762-1.5231-0.15569-0.03385-0.14385c0.69217-0.28059 1.3369-0.6507 1.9464-1.0746 0.5974-0.41191 1.1829-0.8597 1.8269-1.206 1.2236-0.65679 1.5519-0.86563 1.7253-1.3016l-0.9731 0.4478c0.55001-0.68066 1.2066-1.1164 1.8746-1.5343l1.0391 0.0711 0.27416-0.0119-0.63294-0.31037-0.42985-0.31647-0.05077-0.0423-0.93756 0.78203-1.0679 0.4835c-0.98494 0.56118-1.474 1.612-2.3821 2.2746-0.93756 0.68066-1.8687 0.99104-3.0806 0.56118 0.15231 4.4657 0.03385 8.8658 0.33339 13.308 0.55509-6e-3 1.0865 0.02369 1.5096-0.31038"/>
 </g>
</svg>
