<svg width="800" height="303.95" version="1.1" viewBox="0 0 211.67 80.42" xmlns="http://www.w3.org/2000/svg">
 <g transform="translate(-47.209 106.56)">
  <g transform="matrix(6.4003 0 0 -6.4003 76.511 -66.475)">
   <path d="m0 0c0.904 0 1.636 0.732 1.636 1.637 0 0.903-0.732 1.636-1.636 1.636s-1.636-0.733-1.636-1.636c0-0.905 0.732-1.637 1.636-1.637" fill="#ed192d"/>
  </g>
  <g transform="matrix(6.4003 0 0 -6.4003 64.407 -66.475)">
   <path d="m0 0c-0.903 0-1.636 0.732-1.636 1.637 0 0.903 0.733 1.636 1.636 1.636z" fill="#ed192d"/>
  </g>
  <g transform="matrix(6.4003 0 0 -6.4003 88.609 -54.923)">
   <path d="M 0,0 V 1.553 H 1.555 C 1.555,0.694 0.859,0 0,0" fill="#ed192d"/>
  </g>
  <g transform="matrix(6.4003 0 0 -6.4003 64.407 -98.991)">
   <path d="m0 0v-1.554h-1.555c0 0.857 0.697 1.554 1.555 1.554" fill="#ed192d"/>
  </g>
  <g transform="matrix(6.4003 0 0 -6.4003 64.407 -54.916)">
   <path d="m0 0v1.554h-1.553c0-0.859 0.695-1.554 1.553-1.554" fill="#ed192d"/>
  </g>
  <g transform="matrix(6.4003 0 0 -6.4003 100.72 -67.953)">
   <path d="m0 0-2e-3 2.813c0.477-0.286 0.798-0.809 0.798-1.407s-0.321-1.12-0.796-1.406" fill="#ed192d"/>
  </g>
  <g transform="matrix(6.4003 0 0 -6.4003 67.521 -101.15)">
   <path d="m0 0h2.81c-0.287 0.479-0.807 0.799-1.405 0.799-0.599 0-1.121-0.32-1.405-0.799" fill="#ed192d"/>
  </g>
  <g transform="matrix(6.4003 0 0 -6.4003 85.378 -52.756)">
   <path d="m0 0h-2.813c0.286-0.479 0.807-0.8 1.405-0.8 0.599 0 1.123 0.321 1.408 0.8" fill="#ed192d"/>
  </g>
  <g transform="matrix(6.4003 0 0 -6.4003 86.983 -64.86)">
   <path d="m0 0c0-0.905-0.732-1.638-1.636-1.638s-1.636 0.733-1.636 1.638z" fill="#ed192d"/>
  </g>
  <g transform="matrix(6.4003 0 0 -6.4003 88.609 -66.475)">
   <path d="m0 0c0.903 0 1.636 0.732 1.636 1.637 0 0.903-0.733 1.636-1.636 1.636z" fill="#ed192d"/>
  </g>
  <g transform="matrix(6.4003 0 0 -6.4003 86.983 -89.024)">
   <path d="m0 0c0 0.904-0.732 1.637-1.636 1.637s-1.636-0.733-1.636-1.637z" fill="#ed192d"/>
  </g>
  <g transform="matrix(6.4003 0 0 -6.4003 52.316 -67.953)">
   <path d="m0 0v2.813c-0.48-0.286-0.798-0.809-0.798-1.407s0.318-1.12 0.798-1.406" fill="#ed192d"/>
  </g>
  <g transform="matrix(6.4003 0 0 -6.4003 98.559 -89.034)">
   <path d="m0 0-1.555 2e-3v1.553c0.86 0 1.555-0.698 1.555-1.555" fill="#ed192d"/>
  </g>
  <g transform="matrix(6.4003 0 0 -6.4003 75.064 -28.736)">
   <path d="m0 0h0.181c0.173 0 0.388 0.045 0.388 0.262 0 0.246-0.199 0.283-0.388 0.283h-0.181zm0 0.826h0.156c0.16 0 0.356 0.034 0.356 0.23 0 0.22-0.193 0.236-0.365 0.236h-0.147v-0.466m-0.377 0.763h0.66c0.244 0 0.608-0.072 0.608-0.484 0-0.225-0.153-0.382-0.376-0.422v-5e-3c0.256-0.024 0.432-0.198 0.432-0.43 0-0.476-0.425-0.545-0.664-0.545h-0.66v1.886" fill="#231f20"/>
  </g>
  <g transform="matrix(6.4003 0 0 -6.4003 70.703 -27.011)">
   <path d="m0 0c-0.139-0.035-0.286-0.06-0.431-0.06-0.61 0-1.035 0.304-1.035 0.943 0 0.646 0.396 1.008 1.035 1.008 0.127 0 0.29-0.025 0.427-0.08l-0.028-0.317c-0.143 0.081-0.271 0.099-0.405 0.099-0.389 0-0.633-0.296-0.633-0.685 0-0.381 0.237-0.671 0.639-0.671 0.149 0 0.324 0.032 0.415 0.077z" fill="#231f20"/>
  </g>
  <g transform="matrix(6.4003 0 0 -6.4003 91.715 -27.011)">
   <path d="m0 0c-0.14-0.035-0.287-0.06-0.433-0.06-0.608 0-1.033 0.304-1.033 0.943 0 0.646 0.393 1.008 1.033 1.008 0.127 0 0.292-0.025 0.431-0.08l-0.03-0.317c-0.143 0.081-0.272 0.099-0.407 0.099-0.389 0-0.634-0.296-0.634-0.685 0-0.381 0.238-0.671 0.64-0.671 0.151 0 0.325 0.032 0.417 0.077z" fill="#231f20"/>
  </g>
  <g transform="matrix(6.4003 0 0 -6.4003 115.9 -106.56)">
   <path d="m0 0v-12.565" fill="none" stroke="#231f20" stroke-width=".371"/>
  </g>
  <path d="m199.73-89.032h-5.8755v5.6131h5.8755z" fill="#231f20"/>
  <g transform="matrix(6.4003 0 0 -6.4003 132.77 -64.962)">
   <path d="m0 0c0 0.508 0 1.442 0.746 1.442 0.166 0 0.331-0.027 0.414-0.075v0.927c-0.098 0.026-0.194 0.026-0.284 0.026-0.548 0-0.924-0.555-0.965-0.885h-0.015v0.804h-0.818v-3.535h0.922v1.296" fill="#231f20"/>
  </g>
  <g transform="matrix(6.4003 0 0 -6.4003 149.99 -56.12)">
   <path d="m0 0c0.419 4e-3 0.878 0.227 1.086 0.621h0.015c8e-3 -0.11 0.01-0.343 0.044-0.528l0.813 7e-3c-0.025 0.272-0.041 0.519-0.049 0.787-0.011 0.262-0.018 0.53-0.021 0.887l-4e-3 0.452c-0.01 1.043-0.459 1.486-1.538 1.477-0.391-3e-3 -0.869-0.11-1.226-0.278l0.035-0.789c0.306 0.236 0.699 0.389 1.088 0.393 0.541 4e-3 0.798-0.185 0.803-0.756l-0.508-4e-3c-0.385-3e-3 -0.838-0.042-1.185-0.214-0.347-0.175-0.601-0.486-0.598-1.016 5e-3 -0.672 0.62-1.043 1.245-1.039m0.652 1.722 0.398 2e-3c2e-3 -0.275-0.036-0.528-0.185-0.728-0.144-0.195-0.361-0.319-0.643-0.322-0.329-1e-3 -0.584 0.127-0.585 0.428-7e-3 0.544 0.603 0.617 1.015 0.62" fill="#231f20"/>
  </g>
  <g transform="matrix(6.4003 0 0 -6.4003 175.98 -56.339)">
   <path d="m0 0c0.436 4e-3 0.811 0.144 1.083 0.49h0.014l2e-3 -0.398 0.892 8e-3 -0.044 5.146-0.917-8e-3 0.017-2.023-0.015-2e-3c-0.278 0.336-0.6 0.491-1.062 0.487-1.081-0.01-1.473-0.878-1.464-1.852 9e-3 -0.967 0.415-1.858 1.494-1.848m0.216 2.988c0.592 5e-3 0.831-0.623 0.834-1.118 3e-3 -0.501-0.188-1.149-0.798-1.154-0.605-6e-3 -0.782 0.653-0.786 1.139-4e-3 0.475 0.155 1.129 0.75 1.133" fill="#231f20"/>
  </g>
  <path d="m199.73-79.291h-5.8755v22.625h5.8755z" fill="#231f20"/>
  <g transform="matrix(6.4003 0 0 -6.4003 216.61 -56.14)">
   <path d="m0 0c1.172 0 1.852 0.809 1.852 1.825 0 1.166-0.803 1.874-1.852 1.874-1.045 0-1.849-0.708-1.849-1.874 0-1.016 0.68-1.825 1.849-1.825m0 2.985c0.602 0 0.891-0.508 0.891-1.05 0-0.59-0.187-1.221-0.891-1.221-0.702 0-0.887 0.638-0.887 1.221 0 0.528 0.287 1.05 0.887 1.05" fill="#231f20"/>
  </g>
  <g transform="matrix(6.4003 0 0 -6.4003 257.35 -84.175)">
   <path d="m0 0c0-0.824-0.32-0.972-0.769-1.104 0.501-0.23 0.765-0.714 0.93-1.22 0.052-0.162 0.077-0.312 0.077-0.454 0-1.247-1.767-1.581-2.719-1.581-0.845 0-1.492 0.602-1.242 1.458 0.129 0.459 0.608 0.854 1.03 0.433 0.732-0.733-0.53-1.148-0.505-1.179 0.26-0.148 0.779-0.203 1.34-0.146 0.598 0.051 0.772 0.236 0.866 0.789 0.075 0.441 0.087 0.969-0.142 1.198-0.399 0.398-0.884 0.461-1.425 0.425l-0.039 0.529c0.624 0.077 1.68-0.123 1.689 0.789 1e-3 0.103-0.011 0.207-0.033 0.301-0.184 0.782-1.102 0.765-1.681 0.52 0.124-0.051 0.244-0.124 0.306-0.255 0.236-0.474 0.106-0.759-0.149-0.884-0.28-0.14-0.663-0.03-0.874 0.184-0.578 0.578 0.216 1.261 0.719 1.527 1.072 0.569 2.621-0.035 2.621-1.33" fill="#231f20" fill-rule="evenodd"/>
  </g>
 </g>
</svg>
