<svg width="800" height="222.16" version="1.1" viewBox="0 0 211.67 58.78" xmlns="http://www.w3.org/2000/svg">
 <g transform="translate(123.24 90.267)">
  <g transform="matrix(1.0581 0 0 1.0581 7.1628 1.83)" fill="#fff">
   <g transform="matrix(5.7159 0 0 -5.7159 -84.452 -73.434)">
    <path d="m0 0c-0.119-0.635 0-1.187 0.344-1.602 0.399-0.481 1.071-0.745 1.892-0.745 1.461 0 2.568 0.826 2.859 2.112h-1.449l-0.018-0.094c-0.129-0.668-0.475-1.039-0.977-1.039-0.215 0-0.382 0.062-0.494 0.199-0.15 0.188-0.191 0.482-0.117 0.869l0.124 0.658c0.125 0.674 0.47 1.045 0.978 1.045 0.213 0 0.38-0.067 0.492-0.205 0.103-0.119 0.156-0.295 0.156-0.515 0-0.111-0.014-0.225-0.037-0.356l-0.013-0.067h1.462c0.025 0.137 0.339 1.811 0.377 2.001h-1.463c-0.018-0.091-0.09-0.473-0.09-0.473l-0.124 0.164c-0.152 0.193-0.55 0.428-1.157 0.428-0.774 0-2.43-0.721-2.745-2.38" fill="#fff"/>
   </g>
   <g transform="matrix(5.7159 0 0 -5.7159 -49.277 -86.356)">
    <path d="m0 0c-0.023-0.111-0.115-0.597-0.145-0.752h0.474l-0.563-2.988h-0.473c-0.021-0.112-0.111-0.598-0.14-0.751h2.529c0.022 0.111 0.114 0.596 0.145 0.751h-0.473s0.663 3.538 0.704 3.74z" fill="#fff"/>
   </g>
   <g transform="matrix(5.7159 0 0 -5.7159 -28.186 -64.392)">
    <path d="m0 0c-0.035 0.043-0.073 0.12-0.051 0.235 0.051 0.276 0.325 0.451 0.73 0.473l0.118 0.01-0.096-0.504c-0.032-0.178-0.219-0.319-0.423-0.319-0.155 0-0.239 0.059-0.278 0.105m-0.992 1.727c-0.026-0.132-6e-3 -0.242 0.061-0.32 0.098-0.117 0.289-0.176 0.552-0.176 0.479 0 0.718 0.159 0.752 0.315l-1e-3 0.076 1e-3 0.117c0.013 0.063 0.067 0.221 0.328 0.221 0.105 0 0.178-0.029 0.224-0.088 0.069-0.08 0.052-0.193 0.034-0.306l-0.112-0.592h-0.078c-1.491-0.038-2.302-0.35-2.41-0.937-0.032-0.173 0-0.317 0.099-0.431 0.165-0.209 0.524-0.322 0.978-0.322 0.43 0 0.942 0.198 1.163 0.447l0.1 0.11 0.054-0.139c0.102-0.241 0.513-0.418 0.979-0.418 0.726 0 1.245 0.358 1.351 0.93h-0.404l-0.027-0.157c-0.025-0.134-0.123-0.217-0.257-0.217l-0.162 0.067c-0.027 0.031-0.055 0.086-0.036 0.186l0.277 1.466c0.035 0.186-0.014 0.36-0.137 0.508-0.248 0.305-0.771 0.469-1.463 0.469-1.125 0-1.792-0.41-1.866-0.809" fill="#fff"/>
   </g>
   <g transform="matrix(5.7159 0 0 -5.7159 -8.1134 -72.96)">
    <path d="m0 0c-0.034-0.209-7e-3 -0.375 0.09-0.516 0.244-0.352 0.879-0.464 1.344-0.541 0.367-0.067 0.561-0.101 0.634-0.209l0.026-0.122c-0.022-0.118-0.115-0.252-0.427-0.252-0.559 0-1.02 0.191-1.246 0.514h-0.629c-0.02-0.113-0.162-0.85-0.193-1.021h0.861l0.06 0.311 0.12-0.12c0.173-0.167 0.589-0.277 1.037-0.277 0.963 0 1.694 0.418 1.808 1.046 0.046 0.218 0.014 0.404-0.088 0.544-0.237 0.333-0.822 0.425-1.291 0.498-0.35 0.057-0.603 0.097-0.695 0.224l-0.031 0.149c0.028 0.153 0.168 0.233 0.411 0.233 0.493 0 0.86-0.162 0.984-0.428h0.703c0.021 0.118 0.143 0.766 0.174 0.93h-0.864l-0.092-0.417-0.116 0.251c-0.025 0.055-0.329 0.213-0.766 0.213-0.923 0-1.702-0.432-1.814-1.01" fill="#fff"/>
   </g>
   <g transform="matrix(5.7159 0 0 -5.7159 15.931 -72.96)">
    <path d="m0 0c-0.038-0.209-0.011-0.375 0.089-0.516 0.244-0.352 0.878-0.464 1.347-0.541 0.36-0.067 0.556-0.101 0.627-0.209l0.026-0.122c-0.021-0.118-0.111-0.252-0.423-0.252-0.562 0-1.02 0.191-1.244 0.514h-0.633c-0.022-0.113-0.163-0.85-0.192-1.021h0.861l0.062 0.311 0.122-0.12c0.169-0.167 0.584-0.277 1.033-0.277 0.963 0 1.695 0.418 1.81 1.046 0.043 0.218 0.012 0.404-0.089 0.544-0.236 0.333-0.82 0.425-1.291 0.498-0.353 0.057-0.601 0.097-0.697 0.224l-0.03 0.149c0.028 0.153 0.166 0.233 0.408 0.233 0.498 0 0.86-0.162 0.985-0.428h0.706c0.02 0.118 0.143 0.766 0.173 0.93h-0.865l-0.094-0.417-0.112 0.251c-0.028 0.055-0.328 0.213-0.767 0.213-0.926 0-1.702-0.432-1.812-1.01" fill="#fff"/>
   </g>
   <g transform="matrix(5.7159 0 0 -5.7159 40.712 -78.464)">
    <path d="m0 0c-0.02-0.111-0.112-0.6-0.139-0.756h0.471l-0.303-1.603h-0.471c-0.022-0.112-0.114-0.598-0.141-0.751h2.531c0.02 0.111 0.112 0.596 0.141 0.751h-0.475s0.41 2.162 0.446 2.359zm1.065 1.051c-0.018-0.106-0.089-0.475-0.118-0.619h1.195c0.02 0.101 0.092 0.476 0.118 0.619z" fill="#fff"/>
   </g>
   <g transform="matrix(5.7159 0 0 -5.7159 55.371 -69.477)">
    <path d="m0 0c-0.076-0.401 5e-3 -0.756 0.242-1.039 0.297-0.357 0.82-0.566 1.429-0.566 0.862 0 1.581 0.427 1.923 1.119h-0.516c-0.209-0.315-0.588-0.53-0.973-0.53-0.16 0-0.281 0.052-0.369 0.155-0.14 0.172-0.168 0.46-0.085 0.892 0.126 0.674 0.398 1.01 0.809 1.01 0.176 0 0.274-0.068 0.32-0.129l0.063-0.22-0.128-0.206-0.117-0.193 0.052-0.195c0.058-0.071 0.161-0.113 0.295-0.113 0.408 0 0.692 0.234 0.765 0.624 0.033 0.174-0.032 0.37-0.177 0.549-0.258 0.307-0.699 0.482-1.215 0.482-0.976 0-2.118-0.579-2.318-1.64" fill="#fff"/>
   </g>
  </g>
  <g transform="matrix(6.0481 0 0 -6.0481 -109.8 -58.377)">
   <path d="m0 0c-0.038-0.039-2.132-2.132-2.223-2.224 0.091-0.089 2.185-2.185 2.223-2.222h0.209v4.446zm3.089 0c-0.038-0.039-2.132-2.132-2.225-2.224 0.093-0.089 2.187-2.185 2.225-2.222h0.208v4.446zm2.542-1.669v0.458h1.2c0.146 0 0.263-0.118 0.263-0.265 0-0.144-0.117-0.259-0.263-0.259h-1.2zm-1.219 1.676v-4.453h1.219v1.494h0.65l0.83-1.494h1.331c-0.098 0.179-0.925 1.662-0.925 1.662l0.059 0.033c0.453 0.266 0.737 0.754 0.737 1.275 0 0.821-0.665 1.483-1.482 1.483zm5.064 0v-4.453h3.924v1.222h-2.706v0.454h2.01v1.101h-2.01v0.458h2.706v1.218zm9.166 0v-2.844s-1.352 1.352-1.44 1.444c-0.092-0.092-1.443-1.444-1.443-1.444v2.844h-1.215v-4.453h1.256l1.402 1.403 1.402-1.403h1.257v4.453zm2.481-4.453h1.22v4.453h-1.22zm5.344 4.453v-2.217l-1.681 2.217h-1.251v-4.453h1.218v2.222l1.682-2.222h1.251v4.453zm3.599-3.168v1.95h0.484c0.555 6e-3 1.008-0.452 1.008-1.005 0-0.558-0.455-1.008-1.01-1.008h-0.482zm0.482 3.168h-1.704v-4.453h1.706c1.225 2e-3 2.224 1.004 2.224 2.23 0 1.225-0.999 2.227-2.226 2.227z" fill="#a68018"/>
  </g>
 </g>
</svg>
