<svg enable-background="new 0 0 1000 704.1" space="preserve" version="1.1" viewBox="0 0 1e3 704.1" xmlns="http://www.w3.org/2000/svg">
 <style type="text/css">.st0{fill:#ED1C2E;}
	.st1{fill:#FFFFFF;}</style>
 <link href="" rel="stylesheet" type="text/css"/>
 <g transform="matrix(1.25 0 0 -1.25 -1164.8 -562.56)">
  <path class="st0" d="m1713.5-458.1h17.9c-21-73.9-82.4-119.7-162.6-119.7-91 0-163.7 61.1-228 61.1-38.8 0-64.8-14.3-83-53.4h-18.4c15.2 46.4 52.9 80.6 117.3 80.6 82.7 0 144.2-59.4 228.6-59.4 35.6 0 65.8 8.5 93.7 34.3 17.1 16.7 27.9 35.9 34.5 56.5z"/>
  <g transform="matrix(5.0084 0 0 5.0084 815.31 -4692.1)">
   <path class="st0" d="m89 810.5c-6.6-0.5-12.2-6-12.2-13.9v-37.3c0-1.3-1-2.5-2.5-2.5h-11.6c-25.2 0-23 32.2-1.5 32.2h12.9v9.4h-13.4c-8.5 0-14.9-3.2-19.2-8s-6.4-11.2-6.4-17.6 2.1-12.8 6.5-17.5c4.4-4.8 11-8 20.1-8h22c1.4 0 2.7 1.3 2.7 2.7v45.5c0 2.3 1.3 4.2 3 4.7s3.7-0.1 4.9-1.8c6.2-10.2 31.1-50 31.1-50.1 0.7-1 1.5-1.1 2.1-0.9s1.2 0.8 1.2 2.4v45.8c0 2.3 1.3 4.2 3 4.7s3.7-0.1 4.9-1.8h0.1c6.2-10.2 31.1-50 31.1-50.1 0.7-1 1.5-1.2 2.1-0.9 0.6 0.2 1.2 0.8 1.2 2.4v60.5h-9.4v-35.3s-5.6 9.6-15.2 26.1c-9.4 16.2-27.2 9.5-27.2-4.5v-21.7s-5.5 9.6-15.1 26.1c-4.3 7-10 9.7-15.2 9.4zm-26.6-0.3c-52.4 0-51.9-74.7 0.7-74.7h20.6c8.8 0 14.5 5.2 14.5 14.9v18.9s11.6-19.1 16.1-26.6c7.7-12.7 26.3-10.2 26.3 5.7v20.9s11.5-19.1 16-26.6c7.7-12.7 26.4-10.2 26.3 5.7v61.8h-9.4v-60.5c0-2.3-1.2-4-2.9-4.6-1.7-0.5-3.6 0.1-4.8 1.8v0.1s-24.8 39.7-31.1 50c-0.7 0.9-1.5 1.1-2.2 0.9s-1.4-0.8-1.4-2.4v-45.8c0-2.3-1.2-4.1-2.8-4.7-1.7-0.6-3.6 0.2-4.7 1.8 0 0-24.8 39.8-31.1 50.1-0.7 0.9-1.5 1.2-2.2 0.9-0.7-0.2-1.4-0.8-1.4-2.4v-45.5c0-2.8-2.3-5.1-5-5.1h-22c-9.6 0-16.9 3.5-21.8 8.7-4.8 5.2-7.2 12.2-7.2 19.1s2.4 13.9 7.1 19.2c4.7 5.2 11.8 8.7 20.9 8.7h13.3v9.5l-11.8 0.2z"/>
   <path class="st1" d="m171.1 810.2v-60.5c0-1.6-0.6-2.2-1.2-2.4s-1.4 0-2.1 1c0 0.1-24.9 39.9-31.1 50.1h-0.1c-1.2 1.7-3.2 2.4-4.9 1.9s-3-2.3-3-4.7v-45.8c0-1.6-0.6-2.2-1.2-2.4s-1.4 0-2.1 1c0 0.1-24.9 39.9-31.1 50.1-1.2 1.7-3.2 2.4-4.9 1.9s-3-2.3-3-4.7v-45.5c0-1.4-1.2-2.7-2.7-2.7h-22c-9.1 0-15.7 3.2-20.1 7.9-4.4 4.8-6.5 11.1-6.5 17.5s2.1 12.8 6.4 17.5c4.3 4.8 10.6 8 19.2 8h13.4v2.4h-13.4c-9.1 0-16.2-3.5-20.9-8.7s-7.1-12.2-7.1-19.2c0-6.9 2.4-13.9 7.2-19.1s12.1-8.7 21.8-8.7h22c2.8 0 5 2.3 5 5.1v45.6c0 1.5 0.7 2.1 1.4 2.3s1.6 0 2.2-1c6.3-10.3 31.2-50.1 31.2-50.1 1.2-1.7 3.1-2.4 4.7-1.8 1.7 0.6 2.8 2.4 2.8 4.7v45.8c0 1.5 0.7 2.1 1.4 2.4 0.7 0.2 1.5 0 2.2-0.9 6.3-10.3 31.2-50 31.2-50v-0.1h0.1c1.2-1.7 3.1-2.3 4.8-1.8s2.9 2.3 2.9 4.6v60.5h-2.5v-0.2z"/>
  </g>
  <path class="st0" d="m1229.1-570.1h-17.9c21 73.9 82.4 119.7 162.6 119.7 88.9 0 163.7-61.1 228-61.1 38.8 0 64.8 14.3 83 53.4h18.4c-15.2-46.4-52.9-81.2-117.3-81.2-81.7 0-146 59.7-228.6 59.7-32.9 0-65.8-8.2-93.7-34-17.1-16.8-27.9-36-34.5-56.5z"/>
 </g>
</svg>
