<svg width="800" height="301.27" version="1.1" viewBox="0 0 211.67 79.711" xmlns="http://www.w3.org/2000/svg">
 <g transform="translate(7.6275 16.082)">
  <g transform="matrix(6.5794 0 0 -6.5794 -338.14 2168.4)" fill="#fff">
   <g transform="translate(56.596 321.45)">
    <path d="m0 0h0.801l0.25 6e-3c0.272 0 0.405 0.086 0.405 0.267 0 0.114-0.042 0.194-0.13 0.233-0.092 0.043-0.265 0.058-0.52 0.058h-0.806zm-2.169 1.028h3.42l0.578-0.038c0.287-0.037 0.522-0.113 0.701-0.237 0.179-0.122 0.27-0.267 0.27-0.425 0-0.313-0.354-0.51-1.066-0.593 0.242-0.061 0.424-0.147 0.555-0.259 0.13-0.111 0.251-0.296 0.366-0.546l0.596-0.356h-1.738c-0.151 0.356-0.287 0.615-0.402 0.783-0.075 0.108-0.245 0.157-0.516 0.157h-0.595v-0.371l0.897-0.569h-3.066l0.9 0.569v1.313z" fill="#fff"/>
   </g>
   <g transform="translate(61.957 321.77)">
    <path d="m0 0-0.432-0.666h0.894zm1.726 0.712-0.589-0.45 1.028-1.434 0.926-0.57h-3.091l0.852 0.504-0.111 0.167h-1.411l-0.11-0.167 0.74-0.504h-2.293l0.724 0.57 1.01 1.434-0.576 0.45z" fill="#fff"/>
   </g>
   <g transform="translate(67.021 320.51)">
    <path d="m0 0h0.602c0.422 0 0.705 0.049 0.845 0.14 0.139 0.092 0.211 0.277 0.211 0.561 0 0.557-0.348 0.834-1.044 0.834h-0.614zm-2.167 1.97h3.223c0.367 0 0.657-0.027 0.867-0.079 0.21-0.053 0.417-0.149 0.619-0.286 0.387-0.277 0.579-0.574 0.579-0.904 0-0.349-0.197-0.635-0.597-0.855-0.399-0.219-0.917-0.33-1.553-0.33h-3.138l0.9 0.565v1.316z" fill="#fff"/>
   </g>
   <g transform="translate(70.375 322.48)">
    <path d="m0 0h3.024l-0.898-0.572v-1.312l0.898-0.57h-3.024l0.9 0.57v1.312z" fill="#fff"/>
   </g>
   <g transform="translate(75.972 322.14)">
    <path d="m0 0c-0.254 0-0.461-0.082-0.622-0.248-0.163-0.167-0.244-0.385-0.244-0.643 0-0.261 0.081-0.474 0.239-0.629 0.159-0.159 0.369-0.236 0.627-0.236 0.264 0 0.475 0.077 0.632 0.233 0.156 0.158 0.235 0.368 0.235 0.632 0 0.258-0.081 0.476-0.239 0.642-0.164 0.167-0.372 0.249-0.628 0.249m0.039 0.423c0.621 0 1.159-0.138 1.615-0.411 0.458-0.277 0.688-0.6 0.688-0.975 0-0.345-0.233-0.643-0.693-0.894-0.46-0.252-1.008-0.378-1.641-0.378-0.622 0-1.168 0.13-1.639 0.382-0.472 0.255-0.707 0.55-0.707 0.886 0 0.379 0.235 0.707 0.702 0.983 0.469 0.269 1.026 0.407 1.675 0.407" fill="#fff"/>
   </g>
   <g transform="translate(53.663 324.72)">
    <path d="m0 0c-0.078-0.039-0.184-0.078-0.316-0.108-0.638-0.154-1.277-0.324-1.912-0.504v2.931c0.713 0.201 1.428 0.388 2.147 0.557v1.01c-0.719-0.171-1.434-0.36-2.147-0.561v0.743c0.515 0.146 1.033 0.284 1.55 0.412 0.138 0.037 0.248 0.05 0.325 0.049l0.236-0.049c0.092-0.033 0.184-0.066 0.278-0.103v1.318c-1.203-0.283-2.401-0.606-3.587-0.972l0.138-0.23c0.014-0.026 0.035-0.076 0.052-0.169 0.013-0.087 0.021-0.217 0.021-0.383v-5.003c0-0.142-5e-3 -0.26-0.016-0.354l-0.066-0.25c-0.044-0.102-0.091-0.201-0.132-0.309 1.305 0.405 2.626 0.758 3.954 1.057v1.307c-0.093-0.071-0.186-0.148-0.276-0.222l-0.249-0.167" fill="#fff"/>
   </g>
   <g transform="translate(59.53 328.39)">
    <path d="m0 0c-0.151 0.183-0.344 0.367-0.572 0.554-0.294 0.222-0.583 0.443-0.856 0.664-0.327 0.258-0.359 0.403-0.359 0.456 0 0.137 0.052 0.189 0.069 0.205 0.051 0.055 0.159 0.098 0.304 0.119l0.195-8e-3c0.047-0.011 0.137-0.044 0.299-0.137l0.151-0.096c0.215 0.332 0.432 0.661 0.646 0.987l-0.176 0.082c-0.189 0.09-0.383 0.145-0.568 0.164-0.186 0.022-0.402 0.012-0.653-0.027-0.376-0.059-0.684-0.211-0.914-0.448-0.271-0.274-0.406-0.632-0.406-1.055 0-0.263 0.078-0.507 0.229-0.727 0.114-0.16 0.289-0.329 0.536-0.518 0.206-0.149 0.415-0.303 0.631-0.455 0.209-0.15 0.372-0.285 0.493-0.402 0.158-0.151 0.278-0.311 0.354-0.469 0.089-0.178 0.13-0.371 0.13-0.574 0-0.368-0.097-0.647-0.299-0.859-0.187-0.198-0.434-0.313-0.754-0.36-0.235-0.037-0.466-0.024-0.693 0.046-0.223 0.063-0.394 0.167-0.515 0.314l-0.151 0.18c-0.267-0.422-0.54-0.848-0.805-1.273l0.188-0.066c0.236-0.08 0.439-0.137 0.603-0.179 0.226-0.06 0.45-0.098 0.658-0.11 0.212-0.014 0.45 0 0.715 0.045 0.592 0.09 1.099 0.344 1.503 0.762 0.428 0.441 0.643 0.973 0.643 1.58 0 0.314-0.059 0.617-0.178 0.9-0.101 0.241-0.249 0.479-0.448 0.705" fill="#fff"/>
   </g>
   <g transform="translate(64.002 331.84)">
    <path d="m0 0c-0.08-0.017-0.179-0.03-0.3-0.034-1.15-0.055-2.301-0.149-3.447-0.276v-1.236c0.091 0.057 0.18 0.111 0.272 0.162 0.195 0.12 0.392 0.19 0.582 0.205 0.239 0.026 0.479 0.047 0.719 0.069v-4.895c0-0.158-6e-3 -0.281-0.014-0.367l-0.062-0.215c-0.048-0.095-0.097-0.187-0.143-0.284 0.475 0.042 0.951 0.08 1.424 0.104l-0.106 0.254c-0.034 0.071-0.055 0.156-0.066 0.255-0.013 0.105-0.017 0.222-0.017 0.333v4.887c0.206 0.013 0.414 0.025 0.62 0.036 0.274 0.014 0.525 0.105 0.744 0.274 0.229 0.173 0.36 0.387 0.393 0.629 0.012 0.095 0.029 0.187 0.039 0.281-0.091-0.029-0.182-0.054-0.275-0.083-0.153-0.049-0.277-0.079-0.363-0.099" fill="#fff"/>
   </g>
   <g transform="translate(66.066 330.92)">
    <path d="m0 0c0.332 2e-3 0.667 0 0.999-3e-3 0.193-2e-3 0.243-0.032 0.243-0.032l0.011-0.057-0.039-0.192-0.105-0.193c-0.222-0.293-0.419-0.551-0.594-0.778-0.173-0.217-0.347-0.436-0.515-0.657zm2.689-5.183c-0.085 0.16-0.159 0.315-0.216 0.459-0.105 0.286-0.263 0.729-0.465 1.324-0.135 0.385-0.275 0.796-0.42 1.231-0.051 0.151-0.104 0.303-0.154 0.449 0.276 0.36 0.551 0.716 0.828 1.07 0.108 0.145 0.196 0.281 0.258 0.409 0.069 0.142 0.103 0.291 0.103 0.439 0 0.297-0.146 0.461-0.268 0.547-0.154 0.109-0.356 0.167-0.6 0.174-0.997 0.028-1.997 0.028-2.995 0l0.145-0.269c0.013-0.028 0.037-0.085 0.054-0.184 0.014-0.089 0.021-0.219 0.021-0.388v-5.001c0-0.157-5e-3 -0.283-0.012-0.369l-0.063-0.207c-0.048-0.094-0.094-0.188-0.144-0.276 0.478 0.012 0.953 0.02 1.43 0.02l-0.111 0.26c-0.03 0.07-0.052 0.158-0.062 0.252-0.014 0.109-0.018 0.221-0.018 0.332v1.308c0.228 0.302 0.456 0.606 0.684 0.905l0.039-0.106c0.145-0.404 0.268-0.734 0.362-0.988 0.16-0.43 0.294-0.783 0.414-1.076l0.055-0.201 0.025-0.244-0.03-0.209-0.086-0.245c0.546-0.011 1.093-0.033 1.636-0.062-0.064 0.1-0.133 0.201-0.2 0.303-0.079 0.115-0.15 0.234-0.21 0.343" fill="#fff"/>
   </g>
   <g transform="translate(72.951 325.8)">
    <path d="m0 0c-0.079-0.01-0.185-8e-3 -0.322 0.01-0.648 0.072-1.3 0.136-1.952 0.189v2.928c0.733-0.057 1.462-0.131 2.194-0.219v1.008c-0.732 0.088-1.461 0.16-2.194 0.22v0.743c0.53-0.043 1.058-0.093 1.586-0.152 0.14-0.014 0.251-0.037 0.329-0.068l0.242-0.135c0.094-0.069 0.187-0.135 0.282-0.206v1.319c-1.223 0.152-2.448 0.263-3.675 0.334 0.047-0.093 0.095-0.188 0.147-0.28 0.013-0.03 0.033-0.091 0.05-0.189 0.015-0.092 0.022-0.221 0.022-0.393v-4.999c0-0.139-3e-3 -0.259-0.015-0.349l-0.069-0.224-0.139-0.26c1.353-0.08 2.702-0.203 4.045-0.384v1.31c-0.092-0.039-0.186-0.082-0.281-0.123l-0.25-0.08" fill="#fff"/>
   </g>
   <g transform="translate(77.457 325.07)">
    <path d="m0 0c-0.076-9e-3 -0.184 3e-3 -0.317 0.03-0.644 0.127-1.29 0.248-1.937 0.353v2.929c0.728-0.12 1.453-0.254 2.174-0.402v1.005c-0.721 0.15-1.446 0.287-2.174 0.403v0.744c0.524-0.086 1.049-0.18 1.573-0.281 0.138-0.028 0.248-0.061 0.326-0.095l0.237-0.156c0.094-0.077 0.187-0.154 0.282-0.228v1.315c-1.21 0.256-2.426 0.47-3.647 0.64 0.05-0.094 0.097-0.193 0.145-0.291 0.016-0.03 0.038-0.091 0.051-0.194 0.015-0.089 0.024-0.224 0.024-0.391v-4.998c0-0.143-6e-3 -0.265-0.019-0.353l-0.066-0.215-0.135-0.251c1.342-0.19 2.68-0.43 4.009-0.72v1.309c-0.093-0.035-0.183-0.067-0.277-0.101l-0.249-0.052" fill="#fff"/>
   </g>
   <g transform="translate(82.14 329.63)">
    <path d="m0 0c-0.147 4e-3 -0.267 9e-3 -0.349 0.017-0.078 0.012-0.178 0.032-0.293 0.067-1.116 0.324-2.24 0.609-3.371 0.858v-1.235l0.265 0.076c0.193 0.051 0.386 0.057 0.576 0.012 0.234-0.055 0.467-0.113 0.703-0.173v-4.89c0-0.16-6e-3 -0.283-0.013-0.369l-0.064-0.189-0.135-0.235c0.464-0.117 0.927-0.238 1.388-0.366-0.033 0.096-0.068 0.193-0.104 0.286-0.029 0.082-0.051 0.176-0.061 0.277-0.011 0.114-0.02 0.227-0.02 0.341v4.887c0.202-0.054 0.405-0.111 0.607-0.169 0.267-0.078 0.51-0.064 0.718 0.03 0.223 0.099 0.351 0.268 0.384 0.502l0.035 0.266-0.266 7e-3" fill="#fff"/>
   </g>
  </g>
 </g>
</svg>
