<svg width="800" height="350.68" version="1.1" viewBox="0 0 211.67 92.783" xmlns="http://www.w3.org/2000/svg">
 <g transform="translate(112.97 79.323)">
  <path d="m98.693-29.774c0 24.273-22.142 43.235-48.58 43.235h-114.5c-26.458 0-48.586-18.962-48.586-43.235 0-24.253 22.129-43.288 48.586-43.288h114.5c26.438 0 48.58 19.035 48.58 43.288" fill="#231f20"/>
  <path d="m95.487-29.774c0-22.142-20.316-40.055-45.373-40.055h-114.5c-25.07 0-45.386 17.913-45.386 40.055 0 22.149 20.316 40.015 45.386 40.015h114.5c25.057 0 45.373-17.866 45.373-40.015" fill="#fff"/>
  <path d="m-64.388-66.621c-23.676 0-42.173 16.85-42.173 36.848 0 19.997 18.497 36.815 42.173 36.815h114.5c23.676 0 42.173-16.817 42.173-36.815 0-19.997-18.497-36.848-42.173-36.848z" fill="#6ea38b"/>
  <path d="m-104.13-17.778v0.64441c5.8605 13.967 21.161 24.175 39.607 24.175h114.5c18.728 0 34.213-10.524 39.868-24.82z" fill="#e22739"/>
  <g transform="matrix(6.6393 0 0 -6.6393 -64.388 -66.621)">
   <path d="m0 0c-3.566 0-6.352-2.538-6.352-5.55s2.786-5.545 6.352-5.545h17.246c3.566 0 6.352 2.533 6.352 5.545s-2.786 5.55-6.352 5.55z" fill="none" stroke="#231f20" stroke-miterlimit="3.864" stroke-width=".397"/>
  </g>
  <g transform="matrix(6.6393 0 0 -6.6393 -62.553 -5.8232)">
   <path d="m0 0h-0.808v0.341h0.807c0.138 0 0.217-0.066 0.217-0.159 0-0.11-0.081-0.182-0.216-0.182m0.718-0.84-0.389 0.545c0.21 0.084 0.319 0.242 0.319 0.468 0 0.304-0.24 0.514-0.608 0.514h-1.286v-1.527h0.438v0.493h0.669l0.36-0.493z" fill="#fff" fill-rule="evenodd"/>
  </g>
  <g transform="matrix(6.6393 0 0 -6.6393 -43.076 -4.6241)">
   <path d="m0 0h-0.552l0.275 0.507zm0.818-0.659-0.846 1.527h-0.496l-0.849-1.527h0.449l0.177 0.316h0.939l0.178-0.316z" fill="#fff" fill-rule="evenodd"/>
  </g>
  <g transform="matrix(6.6393 0 0 -6.6393 -24.221 -2.5493)">
   <path d="m0 0h-0.646v0.834h0.643c0.279 0 0.479-0.189 0.479-0.441 0-0.216-0.208-0.393-0.476-0.393m-0.027 1.181h-1.057v-1.528h1.112c0.24 0 0.459 0.071 0.616 0.184 0.193 0.14 0.288 0.329 0.288 0.551 0 0.48-0.366 0.793-0.959 0.793" fill="#fff" fill-rule="evenodd"/>
  </g>
  <path d="m-8.396-10.388h-2.9014v10.138h2.9014z" fill="#fff"/>
  <g transform="matrix(6.6393 0 0 -6.6393 9.5845 -5.3305)">
   <path d="m0 0c0-0.276-0.238-0.467-0.622-0.467-0.386 0-0.624 0.191-0.624 0.467 0 0.275 0.242 0.463 0.624 0.463 0.379 0 0.622-0.191 0.622-0.463m0.451 0c0 0.226-0.097 0.415-0.279 0.562-0.199 0.153-0.479 0.246-0.794 0.246-0.314 0-0.596-0.093-0.794-0.246-0.184-0.147-0.278-0.336-0.278-0.562 0-0.227 0.094-0.419 0.277-0.562 0.196-0.151 0.48-0.247 0.795-0.247s0.599 0.096 0.797 0.247c0.179 0.143 0.276 0.335 0.276 0.562" fill="#fff" fill-rule="evenodd"/>
  </g>
  <g transform="matrix(6.6393 0 0 -6.6393 30.306 -.36434)">
   <path d="m0 0-0.596 0.412-0.595-0.412 0.229 0.665-0.597 0.415h0.736l0.227 0.66 0.229-0.66h0.735l-0.595-0.415z" fill="#fcce88"/>
  </g>
  <g transform="matrix(6.6393 0 0 -6.6393 46.221 -.41613)">
   <path d="m0 0-0.596 0.408-0.595-0.408 0.228 0.664-0.595 0.41h0.734l0.228 0.664 0.227-0.664h0.735l-0.595-0.41z" fill="#fcce88"/>
  </g>
  <g transform="matrix(6.6393 0 0 -6.6393 62.64 -.41613)">
   <path d="m0 0-0.593 0.408-0.595-0.408 0.227 0.664-0.593 0.41h0.734l0.227 0.664 0.227-0.664h0.736l-0.594-0.41z" fill="#fcce88"/>
  </g>
  <g transform="matrix(6.6393 0 0 -6.6393 -74.145 -22.337)">
   <path d="m0 0v1.134h0.643v3.383h-0.643v1.132h5.663v-2.033h-1.095l-0.387 0.901h-1.892v-0.918h1.243v-1.252h-1.243v-1.213h1.892l0.387 1.1h1.095v-2.234z" fill="#231f20"/>
  </g>
  <g transform="matrix(6.6393 0 0 -6.6393 -29.259 -52.324)">
   <path d="m0 0h-0.509v1.133h2.067v-4.516h0.451v-1.134h-2.518v1.134h0.509z" fill="#231f20"/>
  </g>
  <g transform="matrix(6.6393 0 0 -6.6393 -4.903 -22.337)">
   <path d="m0 0-1.158 2.6h-0.508v1.128h2.358v-1.128h-0.35l0.602-1.458 0.581 1.458h-0.351v1.128h2.319v-1.128h-0.503l-1.16-2.6z" fill="#231f20"/>
  </g>
  <g transform="matrix(6.6393 0 0 -6.6393 45.656 -22.337)">
   <path d="m0 0h-1.075v1.134h1.025c0.117-0.17 0.25-0.295 0.39-0.377 0.139-0.078 0.292-0.119 0.461-0.119 0.113 0 0.203 0.025 0.265 0.073 0.064 0.054 0.095 0.125 0.097 0.22l-0.085 0.156c-0.054 0.043-0.149 0.084-0.286 0.124l-0.668 0.189c-0.483 0.138-0.822 0.291-1.008 0.468-0.187 0.179-0.28 0.416-0.28 0.716 0 0.362 0.143 0.657 0.427 0.888 0.289 0.234 0.657 0.349 1.106 0.349 0.182 0 0.364-0.025 0.551-0.069 0.187-0.046 0.361-0.116 0.528-0.203v0.179h1.077v-1.128h-0.996c-0.052 0.161-0.137 0.286-0.252 0.364-0.118 0.087-0.266 0.127-0.442 0.127-0.126 0-0.225-0.021-0.295-0.066l-0.107-0.194 0.103-0.193c0.072-0.049 0.197-0.104 0.384-0.155l0.468-0.136c0.557-0.16 0.92-0.328 1.09-0.498 0.172-0.172 0.257-0.412 0.257-0.725 0-0.374-0.137-0.672-0.412-0.891-0.273-0.216-0.649-0.326-1.13-0.326-0.174 0-0.351 0.022-0.534 0.063-0.182 0.041-0.401 0.11-0.659 0.205z" fill="#231f20"/>
  </g>
  <g transform="matrix(6.6393 0 0 -6.6393 34.184 -29.865)">
   <path d="m0 0h0.45v-1.134h-2.515v1.134h0.509v1.466h-0.509v1.128h2.065z" fill="#231f20"/>
  </g>
  <g transform="matrix(6.6393 0 0 -6.6393 28.297 -79.323)">
   <path d="m0 0c0.455 0 0.821-0.369 0.821-0.821v-2.931c0-0.452-0.366-0.82-0.821-0.82-0.453 0-0.82 0.368-0.82 0.82v2.931c0 0.452 0.367 0.821 0.82 0.821" fill="#231f20"/>
  </g>
  <g transform="matrix(6.6393 0 0 -6.6393 34.368 -62.724)">
   <path d="m0 0c0.043 0.103 0.145 0.179 0.264 0.179 0.158 0 0.287-0.128 0.287-0.287 0-0.156-0.129-0.285-0.287-0.285-0.104 0-0.198 0.055-0.249 0.141h-1.895c-0.049-0.086-0.14-0.141-0.248-0.141-0.157 0-0.285 0.129-0.285 0.285 0 0.159 0.128 0.287 0.285 0.287 0.12 0 0.223-0.076 0.266-0.179z" fill="#231f20"/>
  </g>
  <g transform="matrix(6.6393 0 0 -6.6393 26.4 -76.334)">
   <path d="M 0,0 0.11,0.106 0.216,0 0.11,-0.105 Z" fill="#fff"/>
  </g>
  <g transform="matrix(6.6393 0 0 -6.6393 24.393 -72.897)">
   <path d="M 0,0 0.107,0.108 0.214,0 0.107,-0.107 Z" fill="#fff"/>
  </g>
  <g transform="matrix(6.6393 0 0 -6.6393 24.393 -70.537)">
   <path d="M 0,0 0.107,0.107 0.214,0 0.107,-0.107 Z" fill="#fff"/>
  </g>
  <g transform="matrix(6.6393 0 0 -6.6393 24.393 -68.157)">
   <path d="M 0,0 0.107,0.105 0.214,0 0.107,-0.105 Z" fill="#fff"/>
  </g>
  <g transform="matrix(6.6393 0 0 -6.6393 24.393 -65.81)">
   <path d="M 0,0 0.107,0.105 0.214,0 0.107,-0.109 Z" fill="#fff"/>
  </g>
  <g transform="matrix(6.6393 0 0 -6.6393 24.393 -63.424)">
   <path d="M 0,0 0.107,0.108 0.214,0 0.107,-0.105 Z" fill="#fff"/>
  </g>
  <g transform="matrix(6.6393 0 0 -6.6393 26.4 -73.986)">
   <path d="M 0,0 0.11,0.103 0.216,0 0.11,-0.109 Z" fill="#fff"/>
  </g>
  <g transform="matrix(6.6393 0 0 -6.6393 26.4 -71.613)">
   <path d="M 0,0 0.11,0.107 0.216,0 0.11,-0.111 Z" fill="#fff"/>
  </g>
  <g transform="matrix(6.6393 0 0 -6.6393 26.4 -69.247)">
   <path d="M 0,0 0.11,0.105 0.216,0 0.11,-0.109 Z" fill="#fff"/>
  </g>
  <g transform="matrix(6.6393 0 0 -6.6393 26.4 -66.861)">
   <path d="M 0,0 0.11,0.108 0.216,0 0.11,-0.105 Z" fill="#fff"/>
  </g>
  <g transform="matrix(6.6393 0 0 -6.6393 26.4 -64.488)">
   <path d="M 0,0 0.11,0.107 0.216,0 0.11,-0.105 Z" fill="#fff"/>
  </g>
  <g transform="matrix(6.6393 0 0 -6.6393 26.4 -62.115)">
   <path d="M 0,0 0.11,0.109 0.216,0 0.11,-0.108 Z" fill="#fff"/>
  </g>
  <g transform="matrix(6.6393 0 0 -6.6393 28.423 -75.056)">
   <path d="M 0,0 0.107,0.103 0.214,0 0.107,-0.109 Z" fill="#fff"/>
  </g>
  <g transform="matrix(6.6393 0 0 -6.6393 28.423 -72.657)">
   <path d="M 0,0 0.107,0.109 0.214,0 0.107,-0.102 Z" fill="#fff"/>
  </g>
  <g transform="matrix(6.6393 0 0 -6.6393 28.423 -70.297)">
   <path d="M 0,0 0.107,0.107 0.214,0 0.107,-0.105 Z" fill="#fff"/>
  </g>
  <g transform="matrix(6.6393 0 0 -6.6393 28.423 -67.911)">
   <path d="M 0,0 0.107,0.109 0.214,0 0.107,-0.104 Z" fill="#fff"/>
  </g>
  <g transform="matrix(6.6393 0 0 -6.6393 28.423 -65.551)">
   <path d="M 0,0 0.107,0.109 0.214,0 0.107,-0.104 Z" fill="#fff"/>
  </g>
  <g transform="matrix(6.6393 0 0 -6.6393 28.423 -63.178)">
   <path d="m0 0 0.107 0.11 0.107-0.11-0.107-0.104z" fill="#fff"/>
  </g>
  <path d="m24.495-59.506h7.5887v1.8789h-7.5887z" fill="#fff"/>
 </g>
</svg>
