<svg width="800" height="357.53" version="1.1" viewBox="0 0 211.67 94.596" xmlns="http://www.w3.org/2000/svg">
 <g transform="translate(-37.286 113.2)">
  <g transform="matrix(7.1235 0 0 -7.1235 87.776 -49.354)">
   <path d="m0 0-0.075-0.582h-1.527l0.071 0.582zm1.123 0.768c-0.193 0.147-0.342 0.173-0.923 0.169h-2.916l-4e-3 -0.05-0.387-3.135h1.298l0.105 0.879h1.542l-0.108-0.879h1.296l0.075 0.602c0.049 0.341-0.054 0.537-0.338 0.675 0.304 0.129 0.463 0.315 0.495 0.582l0.078 0.673c0.027 0.192-0.06 0.364-0.213 0.484" fill="#ef2c30"/>
  </g>
  <g transform="matrix(7.1235 0 0 -7.1235 121.45 -45.208)">
   <path d="m0 0h-1.537l0.068 0.582h1.541zm0.336 1.52h-1.832c-0.448 0-0.738-0.069-0.969-0.252-0.179-0.142-0.255-0.305-0.296-0.661l-6e-3 -0.068-0.274-2.205h1.302l4e-3 0.055 0.102 0.826h1.542l-0.103-0.881h1.291l0.274 2.205c0.055 0.408 0.025 0.559-0.126 0.727-0.167 0.176-0.462 0.254-0.909 0.254" fill="#ef2c30"/>
  </g>
  <g transform="matrix(7.1235 0 0 -7.1235 157.58 -49.368)">
   <path d="m0 0-0.16-1.312h-1.667l0.163 1.312zm0.171 0.936h-3.025l-6e-3 -0.051-0.383-3.135h3.028c0.532 0 0.792 0.057 1.023 0.24 0.185 0.149 0.296 0.378 0.333 0.647l0.171 1.412c0.034 0.271-0.02 0.488-0.168 0.642-0.169 0.186-0.431 0.245-0.973 0.245" fill="#ef2c30"/>
  </g>
  <g transform="matrix(7.1235 0 0 -7.1235 173.22 -55.67)">
   <path d="m0 0-0.39-3.135h1.305l0.39 3.186h-1.302z" fill="#ef2c30"/>
  </g>
  <g transform="matrix(7.1235 0 0 -7.1235 206.58 -40.046)">
   <path d="m0 0h-1.604l0.16 1.307h1.6zm1.247 2.057c-0.194 0.14-0.428 0.187-0.922 0.187h-1.71c-0.49 0-0.727-0.041-0.969-0.187-0.227-0.139-0.35-0.364-0.389-0.7l-0.173-1.412c-0.044-0.332 0.023-0.549 0.223-0.695 0.185-0.146 0.42-0.191 0.923-0.191h1.712c0.483 0 0.717 0.039 0.955 0.188 0.236 0.137 0.35 0.364 0.389 0.698l0.176 1.412c0.04 0.334-0.016 0.547-0.215 0.7" fill="#ef2c30"/>
  </g>
  <g transform="matrix(7.1235 0 0 -7.1235 37.592 -44.616)">
   <path d="m0 0c-0.03-0.226-0.043-0.437-0.043-0.649 0-0.986 0.284-1.887 0.777-2.627l0.247-0.375 0.816 0.585-0.251 0.376c-0.405 0.605-0.635 1.339-0.635 2.146 0 0.174 8e-3 0.354 0.034 0.529 0.071 0.591 0.258 1.15 0.529 1.661h-1.012c-0.231-0.522-0.394-1.075-0.462-1.646" fill="#ef2c30"/>
  </g>
  <g transform="matrix(7.1235 0 0 -7.1235 50.504 -44.616)">
   <path d="m0 0c-0.02-0.146-0.026-0.288-0.026-0.428 0-0.664 0.196-1.272 0.538-1.765l0.256-0.368 0.805 0.597-0.258 0.366c-0.246 0.356-0.388 0.794-0.388 1.277 0 0.104 6e-3 0.205 0.021 0.306 0.076 0.623 0.367 1.194 0.796 1.632l0.03 0.029h-1.15c-0.326-0.493-0.551-1.052-0.624-1.646" fill="#ef2c30"/>
  </g>
  <g transform="matrix(7.1235 0 0 -7.1235 238.93 -49.772)">
   <path d="m0 0c0-0.176-0.01-0.354-0.032-0.534-0.122-1.015-0.587-1.949-1.265-2.689l-0.336-0.367 0.673-0.592 0.335 0.368c0.823 0.898 1.386 2.037 1.54 3.271 0.025 0.219 0.039 0.437 0.039 0.647 0 0.281-0.023 0.552-0.067 0.818h-0.992c0.069-0.297 0.105-0.606 0.105-0.922" fill="#ef2c30"/>
  </g>
  <g transform="matrix(7.1235 0 0 -7.1235 225.93 -48.172)">
   <path d="m0 0c0-0.1-0.01-0.205-0.023-0.31-0.074-0.604-0.354-1.154-0.764-1.59l-0.337-0.365 0.658-0.604 0.343 0.363c0.56 0.598 0.947 1.36 1.05 2.188 0.015 0.142 0.026 0.285 0.026 0.423 0 0.366-0.066 0.719-0.175 1.041h-1.088c0.199-0.334 0.31-0.722 0.31-1.146" fill="#ef2c30"/>
  </g>
  <g transform="matrix(7.1235 0 0 -7.1235 48.591 -113.12)">
   <path d="m0 0h6.171l-0.229-2.023h-6.196z" fill="#ef2c30"/>
  </g>
  <g transform="matrix(7.1235 0 0 -7.1235 107.8 -112.96)">
   <path d="m0 0c1.148 0 10.374 7e-3 11.063-3e-3 0.702-0.014 1.253-0.57 1.269-1.292 6e-3 -0.341-0.064-0.713-0.064-0.713l-14.138 6e-3s0.051 0.351 0.1 0.658c0.078 0.564 0.835 1.344 1.77 1.344" fill="#ef2c30"/>
  </g>
  <g transform="matrix(7.1235 0 0 -7.1235 200.66 -113.17)">
   <path d="m0 0s3.962 0.01 5.236 0c0.828 0 1.659-0.387 1.53-1.717-0.038-0.398-0.024-0.32-0.024-0.32l-6.98 6e-3z" fill="#ef2c30"/>
  </g>
  <g transform="matrix(7.1235 0 0 -7.1235 90.698 -61.903)">
   <path d="m0 0 0.227 1.897 4.56 7e-3 0.084 0.843s-2.865-7e-3 -3.328 9e-3c-0.65 0.027-1.289 0.491-1.109 1.643 1.211 9e-3 4.889 9e-3 5.303 5e-3 0.83-5e-3 1.535-0.459 1.478-1.605-0.029-0.51-0.153-1.507-0.375-1.893-0.6-1.035-1.5-0.895-1.671-0.906-0.133-7e-3 -5.169 0-5.169 0" fill="#ef2c30"/>
  </g>
  <g transform="matrix(7.1235 0 0 -7.1235 194.55 -93.027)">
   <path d="m0 0s-0.072-0.381-0.12-0.627c-0.1-0.511-0.411-0.986-1.139-0.986h-3.23l-0.387-2.756h-2.343l0.555 4.369z" fill="#ef2c30"/>
  </g>
  <g transform="matrix(7.1235 0 0 -7.1235 198.16 -93.027)">
   <path d="m0 0h2.411l-0.626-4.357-2.382-1e-3z" fill="#ef2c30"/>
  </g>
  <g transform="matrix(7.1235 0 0 -7.1235 231.13 -93.027)">
   <path d="m0 0h2.339l-0.554-4.369h-2.341z" fill="#ef2c30"/>
  </g>
  <g transform="matrix(7.1235 0 0 -7.1235 46.024 -93.243)">
   <path d="m0 0h6.208l-0.221-1.677-3.841-4e-3 -0.111-0.814 3.846-7e-3 -0.229-1.91h-6.184z" fill="#ef2c30"/>
  </g>
 </g>
</svg>
