<svg width="800" height="359.64" version="1.1" viewBox="0 0 211.67 95.154" xmlns="http://www.w3.org/2000/svg">
 <g transform="translate(-37.286 113.76)">
  <g transform="matrix(7.1145 0 0 -7.1145 170.59 -48.606)">
   <path d="m0 0-0.07-0.598h-1.569l0.069 0.598zm1.152 0.787c-0.197 0.149-0.351 0.176-0.949 0.172h-2.978l-8e-3 -0.053-0.393-3.207h1.326l0.108 0.899h1.578l-0.109-0.899h1.326l0.076 0.619c0.047 0.348-0.055 0.547-0.348 0.69 0.309 0.133 0.475 0.32 0.508 0.596l0.082 0.687c0.024 0.195-0.062 0.375-0.219 0.496" fill="#ef2e31"/>
  </g>
  <g transform="matrix(7.1145 0 0 -7.1145 205.04 -44.396)">
   <path d="m0 0h-1.576l0.072 0.592h1.578zm0.34 1.551h-1.873c-0.455 4e-3 -0.754-0.071-0.99-0.258-0.188-0.146-0.264-0.313-0.303-0.676l-8e-3 -0.072-0.277-2.254h1.326l8e-3 0.059 0.103 0.841h1.58l-0.109-0.9h1.328l0.277 2.256c0.053 0.414 0.024 0.572-0.134 0.744-0.166 0.182-0.465 0.26-0.928 0.26" fill="#ef2e31"/>
  </g>
  <g transform="matrix(7.1145 0 0 -7.1145 238.27 -49.023)">
   <path d="m0 0c0-0.176-0.01-0.361-0.035-0.547-0.125-1.037-0.598-1.99-1.289-2.746l-0.348-0.379 0.689-0.603 0.344 0.375c0.84 0.922 1.42 2.086 1.576 3.345 0.028 0.223 0.041 0.446 0.041 0.664 0 0.284-0.029 0.561-0.07 0.832h-1.016c0.073-0.298 0.108-0.615 0.108-0.941" fill="#ef2e31"/>
  </g>
  <g transform="matrix(7.1145 0 0 -7.1145 224.96 -47.411)">
   <path d="m0 0c0-0.109-4e-3 -0.211-0.018-0.32-0.076-0.617-0.361-1.182-0.779-1.625l-0.351-0.373 0.675-0.617 0.352 0.367c0.57 0.613 0.969 1.392 1.074 2.24 0.016 0.148 0.024 0.291 0.024 0.433 0 0.375-0.061 0.731-0.178 1.063h-1.111c0.203-0.338 0.312-0.736 0.312-1.168" fill="#ef2e31"/>
  </g>
  <g transform="matrix(7.1145 0 0 -7.1145 100.42 -32.209)">
   <path d="m0 0-0.619 1.244h-0.018l-0.9-1.244h-1.701l1.382 1.676-0.951 1.611h1.616l0.634-1.267h0.022l0.912 1.267h1.615l-1.316-1.611 1.019-1.676z" fill="#ef2e31"/>
  </g>
  <g transform="matrix(7.1145 0 0 -7.1145 126.07 -49.287)">
   <path d="m0 0h-1.389l0.104 0.887h4.205l-0.104-0.887h-1.298l-0.262-2.4h-1.518z" fill="#ef2e31"/>
  </g>
  <g transform="matrix(7.1145 0 0 -7.1145 183.29 -113.73)">
   <path d="m0 0h-10.813c-1.109 4e-3 -1.847-0.58-1.951-1.455-0.035-0.318-0.074-0.604-0.074-0.604h14.414s0.028 0.213 0.051 0.383c0.107 0.879-0.268 1.676-1.627 1.676" fill="#ef2e31"/>
  </g>
  <g transform="matrix(7.1145 0 0 -7.1145 193.81 -93.517)">
   <path d="m0 0s-0.033-0.293-0.076-0.605c-0.086-0.631-0.555-1.102-1.426-1.102h-3.068l-0.346-2.791h-2.445l0.554 4.498z" fill="#ef2e31"/>
  </g>
  <g transform="matrix(7.1145 0 0 -7.1145 43.764 -113.76)">
   <path d="m0 0 6.539-4e-3 -0.258-2.059h-6.533z" fill="#ef2e31"/>
  </g>
  <g transform="matrix(7.1145 0 0 -7.1145 41.249 -93.517)">
   <path d="m0 0h6.535l-0.207-1.707h-4.094l-0.105-0.84h4.092l-0.242-1.951h-6.536z" fill="#ef2e31"/>
  </g>
  <g transform="matrix(7.1145 0 0 -7.1145 199.88 -113.73)">
   <path d="m0 0h5.326c0.84 0 1.725-0.391 1.549-1.74-0.035-0.242-0.045-0.319-0.045-0.319h-7.09z" fill="#ef2e31"/>
  </g>
  <g transform="matrix(7.1145 0 0 -7.1145 197.35 -93.517)">
   <path d="m0 0h2.443l-0.56-4.496-2.44-2e-3z" fill="#ef2e31"/>
  </g>
  <g transform="matrix(7.1145 0 0 -7.1145 230.38 -93.517)">
   <path d="m0 0h2.439l-0.552-4.496-2.448-2e-3z" fill="#ef2e31"/>
  </g>
  <g transform="matrix(7.1145 0 0 -7.1145 129.46 -93.517)">
   <path d="m0 0h-5.367c-0.178-1.178 0.408-1.707 1.238-1.707 0.451 0 3.307 2e-3 3.307 2e-3l-0.106-0.842h-4.756l-0.242-1.951h5.393c0.172 0.016 1.381 0.043 1.795 1.041 0.133 0.316 0.256 1.469 0.287 1.715 0.193 1.404-0.779 1.742-1.549 1.742" fill="#ef2e31"/>
  </g>
 </g>
</svg>
