<svg width="800" height="269.31" version="1.1" viewBox="0 0 211.67 71.256" xmlns="http://www.w3.org/2000/svg">
 <g transform="translate(171.24 -3.2047)">
  <g transform="matrix(6.3717 0 0 -6.3717 -104 6.8684)">
   <path d="m0 0c0.076 0.035 0.029 0.109 0.12 0.113l0.134-0.041 0.299-0.018 0.146-0.154c0.084-0.097 0.241-0.129 0.338-0.025l0.143 0.063 0.109-0.096 0.13-0.085 0.065 0.137c0.156 4e-3 0.311 6e-3 0.469 7e-3l0.076 0.062 0.159-0.021c0.159-0.064 0.314 0.043 0.491 0.037 0.109-5e-3 0.464 0.084 0.274 0.258l-0.209 0.032c-0.117-9e-3 -0.242-9e-3 -0.362-6e-3 -0.136 0-0.262 0.05-0.402 0.05-0.12 0-0.251-0.018-0.372 0.01-0.217 0.048-0.432 0.035-0.653 0.069-0.266 0.044-0.56 5e-3 -0.828 3e-3 -0.107-2e-3 -0.184 0.06-0.297 0.048l-0.254-0.05c-0.091-5e-3 -0.165 0.058-0.256 0.064-0.119 9e-3 -0.254-0.027-0.373-0.04-0.13-0.016-0.205 0.032-0.328 8e-3 -0.113-0.024-0.187-4e-3 -0.299 0.018-0.256 0.045-0.527 0.012-0.787 0.021-0.198 5e-3 -0.428 0.07-0.621 0.05l-0.211-0.035-0.244 0.022c-0.166-0.022-0.338-7e-3 -0.498 0.046l-0.199-0.027h-0.254l-0.152 0.033-0.213-0.028c-0.114 0.048-0.211 0.046-0.334 0.05l-0.249-0.044-0.116 7e-3 -0.178 0.019-0.152-0.013c-0.174-0.028-0.358-0.034-0.54-0.038-0.105 4e-3 -0.22 0.025-0.319-9e-3l-0.173 2e-3c-0.341 0.061-0.646-0.042-0.982-0.058-0.379-0.02-0.76 6e-3 -1.135 0.047-0.134 0.013-0.281-0.024-0.42-0.031-0.138-4e-3 -0.275-0.01-0.413-0.014-0.126-3e-3 -0.634 0.08-0.653-0.065-0.015-0.124 0-0.25 0-0.378l-5e-3 -0.211 0.016-0.121-3e-3 -0.123 0.024-0.192c-8e-3 -0.121-0.01-0.242-0.012-0.359-3e-3 -0.246 0.093-0.476 0.034-0.718-0.03-0.131-0.087-0.2-6e-3 -0.321 0.047-0.067 0.084-0.132 0.151-0.031 0.067 0.102 0.057 0.217 0.046 0.332-9e-3 0.137 0.015 0.198 0.072 0.321 0.043 0.096-2e-3 0.217 0.051 0.31 0.067 0.122 0.044 0.196 0.02 0.332 0.063 0.102 0.206 0.115 0.184 0.243-0.017 0.098-0.074 0.119-6e-3 0.225l0.162 0.213c0.055 0.098-0.049 0.163 0.075 0.211 0.105 0.043 0.192 0.069 0.277-0.031l0.17-0.154c0.092-6e-3 0.148 0.057 0.222-0.034l0.16-0.098 0.255 0.026c0.099 0.02 0.159 0.1 0.234 0.165 0.109 0.05 0.251 0.061 0.369 0.08l0.245-7e-3 0.194 0.014 0.092-0.206 0.15 0.119 0.116-0.263 0.233-0.138 0.212-0.017 0.143-0.018 0.144 0.215c0.128 0.232 0.295 0.047 0.442-0.039 0.101-0.061 0.195 2e-3 0.282 0.056l0.171 0.093 0.252 0.017c0.107 0.075 0.228 0.04 0.358 0.04 0.169 0 0.337-0.028 0.505-0.046 0.146-0.021 0.332 0.026 0.373-0.147 0.023-0.1-0.049-0.306 0.029-0.365l0.156 0.02 0.112 0.062c0.095-0.065 0.164-0.086 0.27-4e-3l-9e-3 0.313c0.018 0.086 0.077 0.225 0.18 0.236 0.02-0.089 0.031-0.31 0.137-0.31 0.104 0 0.1 0.152 0.096 0.234 0.148 2e-3 0.099-0.163 0.116-0.256l0.202-0.054-0.017 0.222c-0.02 0.112 5e-3 0.129 0.114 0.142l0.163-0.015c0.084-0.093 0.172 0.087 0.269 0.111 0.12 0.03 0.264 4e-3 0.375-0.044l0.162 0.068c0.045-0.109 0.045-0.095 0.161-0.068 0.094 0.024 0.076-0.027 0.156-0.064l0.174 0.025c0.142 0.042 0.291-0.039 0.432-0.047 0.134-6e-3 0.152 0.098 0.269 0.115 0.092 0.013 0.181 0.021 0.275 0.021l0.081-0.039 0.218-0.041" fill="#920f14"/>
  </g>
  <g transform="matrix(6.3717 0 0 -6.3717 -42.086 8.3925)">
   <path d="m0 0 0.068-0.039c0.116 9e-3 0.233 0.033 0.348 0.052 0.151 0.026 0.346-0.049 0.482 0.029 0.226 0.158-0.36 0.154-0.41 0.158-0.259 0.023-0.515 0.023-0.774 0.037-0.206 0.011-0.376 0.075-0.575 0.03l-0.197 0.048-0.096-0.029c-0.13 9e-3 -0.219-8e-3 -0.346-0.023-0.188-0.024-0.383 0.089-0.584 0.063-0.394-0.048-0.791-5e-3 -1.193 0.019-0.291 0.018-0.59-2e-3 -0.883 0.03-0.213 0.022-0.468 0.089-0.682 0.07-0.125-0.011-0.225-0.05-0.359-0.026-0.121 0.018-0.237 0.017-0.365 0.017-0.125 0-0.223-0.039-0.344-0.024-0.122 0.015-0.246 0.027-0.371 0.033-0.102-6e-3 -0.31 0.035-0.31-0.091 0-0.098 0.083-0.126 0.171-0.128 0.098-3e-3 0.196 0.019 0.291 0.03 0.1 0.013 0.169-9e-3 0.266-0.026l0.161 0.056 0.102-0.053c0.116-0.066 0.293-0.068 0.421-0.085 0.152-0.02 0.29-0.035 0.44-0.033 0.106 2e-3 0.219 0.016 0.323-0.013l0.242-0.021 0.239-0.02c0.113-0.097 0.169-0.067 0.304-0.017 0.104 0.039 0.197 0.032 0.304 6e-3 0.1-0.019 0.214 0.046 0.303 4e-3 0.109-0.054 0.259 0.063 0.382 0.012 0.144-0.057 0.245 0.084 0.388 0.039 0.116-0.035 0.186-0.051 0.304-0.012 0.097 0.031 0.214-0.054 0.321-0.056 0.109 0 0.227 0.043 0.334 9e-3 0.252-0.072 0.508 0.01 0.76-0.07 0.16-0.052 0.238-0.024 0.393 0.024h0.142" fill="#920f14"/>
  </g>
  <g transform="matrix(6.3717 0 0 -6.3717 -31.364 7.201)">
   <path d="m0 0c-0.13-0.035-0.024-0.176 0.08-0.163l0.058 0.126-0.138 0.037" fill="#920f14"/>
  </g>
  <g transform="matrix(6.3717 0 0 -6.3717 -25.522 8.4173)">
   <path d="m0 0 0.043 0.122-0.117 0.058c-0.113 0.024-0.237 0.015-0.352 0.011-0.155-0.045-0.025-0.159 0.068-0.178 0.118-0.024 0.239-0.017 0.358-0.013" fill="#920f14"/>
  </g>
  <g transform="matrix(6.3717 0 0 -6.3717 -100.64 12.07)">
   <path d="m0 0 0.037-0.141c0.058-0.082 0.099-0.169 0.214-0.109 0.022-0.136 0.081-0.164 0.196-0.067 0.081 0.069 0.154 0.078 0.255 0.079 0.116 4e-3 0.162 0.021 0.211 0.123l0.165 0.076c0.015 0.126-0.037 0.354-0.122 0.455l-0.148 0.087-0.125 0.041-0.035 0.146c-0.149-0.1 0.046-0.119-2e-3 -0.221l-0.241 0.03c-0.086-0.072-0.147-0.111-0.097-0.228l-0.018-0.061-0.084 0.061-0.248 0.076-0.071-0.264 0.113-0.083" fill="#920f14"/>
  </g>
  <g transform="matrix(6.3717 0 0 -6.3717 -101.5 8.1561)">
   <path d="M 0,0 -0.052,-0.147 0.07,-0.221 C 0.171,-0.171 0.101,0 0,0" fill="#920f14"/>
  </g>
  <g transform="matrix(6.3717 0 0 -6.3717 35.09 8.8908)">
   <path d="m0 0c-0.14 0.026-0.282 0.028-0.423 0.044-0.223-0.023-0.012-0.185 0.059-0.243 0.088-0.066 0.113-0.083 0.214-0.026l0.191 0.073-0.041 0.152" fill="#920f14"/>
  </g>
  <g transform="matrix(6.3717 0 0 -6.3717 -124.94 9.2329)">
   <path d="m0 0c-0.079-0.041-0.199-0.171-0.035-0.187 0.17-0.017 0.216 0.185 0.035 0.187" fill="#920f14"/>
  </g>
  <g transform="matrix(6.3717 0 0 -6.3717 40.423 10.322)">
   <path d="m0 0c4e-3 0.152-0.095 0.141-0.223 0.156-0.13 9e-3 -0.261 0.018-0.391 0.015l-0.103-0.286c-5e-3 -0.15 0.043-0.18 0.181-0.169 0.14 0.015 0.169 0 0.185-0.143l0.089-0.17c0.019-0.097-0.052-0.164-0.052-0.255 0.078-0.068 0.078-0.152 0.095-0.248 0.026-0.123 0.197-0.225 0.188-0.041-0.022 0.377 0.021 0.761 0.031 1.141" fill="#920f14"/>
  </g>
  <g transform="matrix(6.3717 0 0 -6.3717 34.673 11.053)">
   <path d="m0 0c-0.115-0.069-0.013-0.253 0.09-0.176 0.103 0.079 6e-3 0.177-0.09 0.176" fill="#920f14"/>
  </g>
  <g transform="matrix(6.3717 0 0 -6.3717 -164.75 61.003)">
   <path d="m0 0c0.09-0.187 0.363-0.26 0.552-0.28 0.141-0.013 0.273 0.028 0.412 0.018 0.108-7e-3 0.211-0.031 0.319-0.046 0.195-0.025 0.384 0.02 0.472 0.213 0.086 0.2 0.065 0.438 0.076 0.65 4e-3 0.2 0 0.389-0.027 0.588-0.027 0.235-0.086 0.506-0.037 0.738 0.019 0.104 0.039 0.208 0.064 0.31 0.018 0.087-0.025 0.178-0.013 0.269 0.013 0.147 0.146 0.139 0.227 0.23l0.294 0.05c0.213 0.021 0.417-0.076 0.629-0.089 0.471-0.035 0.592 0.318 0.582 0.713-2e-3 0.107-8e-3 0.217-6e-3 0.324 2e-3 0.11 0.067 0.207 0.064 0.314 0 0.111-0.095 0.195-0.148 0.28-0.07 0.104-0.175 0.06-0.273 0.11-0.136 0.069-0.231 0.074-0.383 0.074l-0.182 2e-3 -0.131-0.024c-0.189 0.037-0.369-0.062-0.503 0.144-0.104 0.165-0.089 0.388-0.091 0.576-5e-3 0.163-0.035 0.352 0.091 0.478 0.25 0.253 0.74 0.136 1.054 0.11l0.119-0.073 0.124-0.02c0.102-9e-3 0.205-8e-3 0.304-2e-3 0.114 4e-3 0.17-6e-3 0.25 0.075l0.207 0.194c0.164 0.178 0.11 0.356 0.055 0.566v0.158l-0.054 0.119 0.056 0.245c0.019 0.12-0.26-0.11-0.156 0.07l0.082 0.206c-0.114 0.128-0.326 0.167-0.49 0.178-0.139-0.048-0.241-4e-3 -0.385-6e-3 -0.109 0-0.212-9e-3 -0.321-3e-3 -0.231 0.017-0.464 0.052-0.699 0.052-0.274 4e-3 -0.543-0.054-0.822-0.043-0.122-0.017-0.211-0.026-0.33 0.015-0.096 0.035-0.193 0.07-0.297 0.076l-0.211-0.081-0.179-0.138c-0.119-0.091-0.106-0.326-0.109-0.46-0.01-0.227-0.024-0.455-0.033-0.679-8e-3 -0.312 0.068-0.624 0.041-0.937 5e-3 -0.254-0.028-0.505-0.024-0.761 4e-3 -0.265 8e-3 -0.527 8e-3 -0.792 0-0.147-0.035-0.284-0.032-0.435 4e-3 -0.153 0.024-0.306 0.03-0.46 0.011-0.3-2e-3 -0.603-0.026-0.901-0.034-0.46 0.075-0.956-0.095-1.395-0.063-0.157-0.135-0.355-0.055-0.52" fill="#920f14"/>
  </g>
  <g transform="matrix(6.3717 0 0 -6.3717 -123.09 13.999)">
   <path d="m0 0c0-0.176 0.093-0.033 0 0" fill="#920f14"/>
  </g>
  <g transform="matrix(6.3717 0 0 -6.3717 -133.08 49.738)">
   <path d="m0 0-0.028 0.158z" fill="#920f14"/>
  </g>
  <g transform="matrix(6.3717 0 0 -6.3717 -132.3 46.806)">
   <path d="m0 0c0.284-0.02-0.071-0.135 0 0" fill="#920f14"/>
  </g>
  <g transform="matrix(6.3717 0 0 -6.3717 -131.87 47.951)">
   <path d="m0 0 0.066-0.069z" fill="#920f14"/>
  </g>
  <g transform="matrix(6.3717 0 0 -6.3717 -112.72 63.202)">
   <path d="m0 0 7e-3 -0.03z" fill="#920f14"/>
  </g>
  <g transform="matrix(6.3717 0 0 -6.3717 -112.82 59.537)">
   <path d="m0 0c0.088-0.072 0.018-0.152-0.084-0.156-0.141-2e-3 0.055 0.138 0.084 0.156" fill="#920f14"/>
  </g>
  <g transform="matrix(6.3717 0 0 -6.3717 -115.81 16.718)">
   <path d="m0 0c0.209-0.083-0.179-0.25 0 0" fill="#920f14"/>
  </g>
  <g transform="matrix(6.3717 0 0 -6.3717 -118.77 45.634)">
   <path d="m0 0 0.039-0.085z" fill="#920f14"/>
  </g>
  <g transform="matrix(6.3717 0 0 -6.3717 -124.07 49.264)">
   <path d="m0 0c0.105-0.078-0.07-0.141 0 0" fill="#920f14"/>
  </g>
  <g transform="matrix(6.3717 0 0 -6.3717 -123.2 23.361)">
   <path d="m0 0c0.169-0.065-0.053-0.128 0 0" fill="#920f14"/>
  </g>
  <g transform="matrix(6.3717 0 0 -6.3717 -123.15 24.661)">
   <path d="m0 0 0.013-0.085z" fill="#920f14"/>
  </g>
  <g transform="matrix(6.3717 0 0 -6.3717 -121.73 47.609)">
   <path d="m0 0-0.012-0.148 0.077 0.048-0.125-0.178-0.159 0.061 0.053 0.213-0.163 0.056c-0.05 0.195-0.173-0.135-0.237-0.08l0.043 0.176c0.031 0.095 0.128 0.037 0.128 0.134l-0.101 0.15c-0.113 0.028-8e-3 0.128 0.024 0.064 0.038-0.086 0.064-0.082 0.101 0.018l0.046 0.21-0.079 0.118 0.025 0.106c0.031 0.098 0.061 0.204 0.102 0.299 0.015 0.182 0.01 0.371 0.078 0.543 0.045 0.121 0.08 0.368 0.166 0.442 0.111-0.013 0.105-0.065 0.1-0.172l-0.021-0.195c-0.011-0.16 0.104-0.271 0.104-0.423-9e-3 -0.396 3e-3 -0.783 0.041-1.177 0.016-0.178-0.021-0.226-0.191-0.265m2.091-1.67c-0.037 0.232-0.111 0.457-0.138 0.691-0.023 0.253-0.033 0.508-0.06 0.766-0.037 0.109-0.119 0.2-0.155 0.31 0 0.146 2e-3 0.285-0.024 0.43-0.089 0.512-0.116 1.032-0.184 1.549-0.035 0.273-0.079 0.538-0.104 0.813l-0.051 0.076-0.014 0.176-0.021 0.251c-0.034 0.096-0.14 0.271-0.14 0.352v0.408c0 0.13-0.037 0.229-0.034 0.359 4e-3 0.124-0.014 0.226-0.072 0.337l-0.063 0.123-0.072 0.15-0.103 0.033-0.101-0.137 5e-3 -0.133-0.014-0.088c-0.088 0.108-0.141 0.134-0.064 0.26 0.045 0.074 0.041 0.21-0.047 0.095l-0.16-0.112-0.219-0.072c-0.039-0.098-0.014-0.21-0.024-0.31l-0.203-0.141-0.241-0.15 0.081-0.045-0.015-0.105c0.095 0 0.091 0.038 0.091 0.12l0.155 2e-3c0.099-0.154-0.078-0.228-0.207-0.252-0.051-0.076 0.021-0.162-0.09-0.18-0.11-0.017-0.117 0.037-0.149 0.124-0.046 0.124 0.051 0.05 0.041-0.033 0.047-0.028 0.163-0.099 0.106 0.013l-0.033 0.17c-0.098 0.056-0.11 0.138-0.098 0.251l0.031 0.046 0.076 0.062-0.085 3e-3 -0.176-7e-3 -0.101 0.109c0.138-9e-3 0.171-0.152 0.29-7e-3l-0.01 0.245c-0.074 0.012-0.492-0.03-0.378 0.137 0.063 0.091 0.126-0.074 0.152 0.07l-0.167 0.102c-0.111-0.107-0.278-0.114-0.319-0.274-0.04-0.143-0.083-0.358-0.013-0.499l0.165-0.052-0.123-0.128c-0.094-0.033-0.18-0.054-0.221-0.158-0.04-0.105-0.046-0.219-0.074-0.328-0.065-0.236-0.145-0.473-0.157-0.72l-0.025-0.212-0.035-0.072-0.021-0.247c0.023-0.08 0.203-0.353 0.023-0.313l-0.105-0.041-0.036-0.166c-0.026-0.142-0.054-0.285-0.076-0.426-0.052-0.273-0.123-0.54-0.176-0.813-0.062-0.289-0.104-0.582-0.156-0.872-0.026-0.13-0.053-0.258-0.064-0.388-8e-3 -0.122 1e-3 -0.263-0.065-0.369-0.136-0.217-0.088-0.51-0.17-0.744-0.055-0.167-0.127-0.352-0.098-0.533 0.052-0.289 0.416-0.365 0.661-0.374 0.176-8e-3 0.353-6e-3 0.528 1e-3 0.093 6e-3 0.225-3e-3 0.312 0.037 0.09 0.082 0.208 0.157 0.21 0.287l0.059 0.255c0.047 0.125 0.098 0.33 0.231 0.39 0.142 0.065 0.33 0.065 0.485 0.05 0.14-0.017 0.282-0.033 0.222-0.194-0.066-0.179 0.107-0.52 0.194-0.672 0.106-0.184 0.265-0.214 0.468-0.204 0.252 0.011 0.493-0.043 0.744-0.03 0.209 7e-3 0.385 0.043 0.419 0.276 0.031 0.217 0.035 0.459 2e-3 0.672" fill="#920f14"/>
  </g>
  <g transform="matrix(6.3717 0 0 -6.3717 -125.85 45.257)">
   <path d="m0 0c0.206-0.052-0.039-0.167 0 0" fill="#920f14"/>
  </g>
  <g transform="matrix(6.3717 0 0 -6.3717 -126.04 32.181)">
   <path d="m0 0-0.01-0.1z" fill="#920f14"/>
  </g>
  <g transform="matrix(6.3717 0 0 -6.3717 -128.98 49.501)">
   <path d="m0 0c0.13-0.044 3e-3 -0.134 0 0" fill="#920f14"/>
  </g>
  <g transform="matrix(6.3717 0 0 -6.3717 -128.68 46.934)">
   <path d="m0 0-2e-3 0.15 0.119-0.098z" fill="#920f14"/>
  </g>
  <g transform="matrix(6.3717 0 0 -6.3717 -128.6 32.087)">
   <path d="m0 0 0.221-0.046c-0.101-0.067-0.088-0.071-0.069-0.18 0.011-0.062-0.071-0.149-0.08-0.045l-0.059 0.171c-0.05 0.056-0.118 0.06-0.013 0.1" fill="#920f14"/>
  </g>
  <g transform="matrix(6.3717 0 0 -6.3717 -129.66 32.76)">
   <path d="m0 0c0.082-0.022 0.203-0.184 0.061-0.195l-0.151 0.052 0.09 0.143" fill="#920f14"/>
  </g>
  <g transform="matrix(6.3717 0 0 -6.3717 -78.014 26.933)">
   <path d="m0 0c-4e-3 0.125 2e-3 0.254-0.041 0.371-0.041 0.11-0.039 0.258-0.119 0.343l-0.098 0.119-0.057 0.115c-0.103 0.073-0.122 0.16-0.165 0.279l-0.125 0.113-0.071 0.095c-0.093 0.049-0.146 0.109-0.244 0.116l-0.139 0.153-0.218 0.059-0.325 0.037-0.334 0.037-0.167-0.037c-0.111-0.015-0.189 0.097-0.293 0.108 0-0.136-0.226-0.082-0.311-0.145-0.06-0.078-0.084-0.08-0.184-0.096l-0.129-0.093-0.142-0.151-0.204-0.108-0.149-0.176-0.109-0.105c-0.169-0.243-0.319-0.507-0.404-0.791-0.041-0.146-0.027-0.302-0.027-0.452-0.056-0.125-0.052-0.247-0.041-0.381 0.012-0.158 0.041-0.317 0.02-0.475-0.012-0.095-0.096-0.041-0.082-0.137l0.027-0.164-0.043-0.189-7e-3 -0.191c-4e-3 -0.087 0.019-0.17 0.031-0.26 0.029-0.219 0.056-0.445 0.043-0.668-4e-3 -0.115-0.028-0.232-0.041-0.348-8e-3 -0.095-0.018-0.19-0.029-0.284-9e-3 -0.095-0.037-0.082-0.119-0.115l0.119-0.173c0.011-0.091 0.017-0.178 0.028-0.269 0.02-0.2 0.042-0.403 0.067-0.605 0.027-0.202 0.05-0.405 0.103-0.601 0.028-0.104 0.058-0.206 0.09-0.31 0.028-0.097 0.032-0.122 0.125-0.165 0.155-0.071 0.319-0.115 0.481-0.171 0.102-0.035 0.201-0.052 0.31-0.067l0.161-0.103c0.103-0.064 0.281-0.051 0.404-0.062 0.152-0.016 0.322-0.039 0.472-7e-3 0.084 0.018 0.464-0.095 0.332 0.097l-0.103 0.018 0.129 0.037 0.137-0.157 0.047 0.112c0.029 0.102 0.052 0.06 0.132 0.037 0.092-0.025-0.015-0.088 0.071-0.107 0.195-0.048 0.28 0.104 0.387 0.236l0.238 0.224 0.115 0.215c0.178 0.267 0.261 0.583 0.322 0.893 0.076 0.384 0.216 0.83 0.197 1.223-6e-3 0.117-0.068 0.219-0.109 0.326l-0.023 0.165-0.07 0.099-0.159 0.063-0.099-0.039-0.159 0.046-0.106-0.041c-0.114 0.069-0.158 0-0.279 0.027-0.099 0.022-0.197 9e-3 -0.295 0.033-0.212 0.05-0.348-0.019-0.453-0.219-0.085-0.167-0.072-0.36-0.066-0.544 6e-3 -0.228-0.031-0.445-0.06-0.675-8e-3 -0.102 0.048-0.279-0.077-0.318-0.088-0.024-0.131-0.116-0.222-0.114-0.155 7e-3 -0.365 0.248-0.369 0.385-6e-3 0.537-0.051 1.073 8e-3 1.607 0.029 0.24 0.075 0.477 0.091 0.715 0.017 0.241-0.043 0.48-0.029 0.719 9e-3 0.156 0.025 0.305 0.025 0.466 0 0.125 0.058 0.234 0.109 0.345 0.06 0.115 0.071 0.227 0.213 0.212 0.092-0.011 0.2-0.033 0.276-0.098 0.097-0.086 0.097-0.297 0.109-0.416 0.014-0.143 0.024-0.295-8e-3 -0.438-0.031-0.163-0.093-0.33 0.022-0.473 0.083-0.113 0.213-0.241 0.346-0.293 0.25-0.106 0.603-0.11 0.863-0.073l0.18 0.06 0.195 3e-3c0.165 0.026 0.191 0.434 0.197 0.564 0.012 0.24-0.021 0.475-0.067 0.713-0.017 0.106-0.048 0.212-0.052 0.319" fill="#920f14"/>
  </g>
  <g transform="matrix(6.3717 0 0 -6.3717 -101.73 52.917)">
   <path d="m0 0c0.284-0.067-0.072-0.195 0 0" fill="#920f14"/>
  </g>
  <g transform="matrix(6.3717 0 0 -6.3717 -100.09 53.415)">
   <path d="m0 0v0.03z" fill="#920f14"/>
  </g>
  <g transform="matrix(6.3717 0 0 -6.3717 -82.78 45.22)">
   <path d="m0 0-8e-3 -0.028z" fill="#920f14"/>
  </g>
  <g transform="matrix(6.3717 0 0 -6.3717 -86.209 59.491)">
   <path d="m0 0c0.111-0.013 0.069-0.174-0.022-0.174l0.022 0.174" fill="#920f14"/>
  </g>
  <g transform="matrix(6.3717 0 0 -6.3717 -87.496 59.491)">
   <path d="m0 0c0.128-0.015 0-0.15 0 0" fill="#920f14"/>
  </g>
  <g transform="matrix(6.3717 0 0 -6.3717 -47.35 17.191)">
   <path d="m0 0c-0.076 0.074-0.098 0.083-0.203 0.083l-0.179 0.01c-0.241 0.039-0.488 0.067-0.735 0.067-0.088-2e-3 -0.182-4e-3 -0.273-6e-3 -0.096-4e-3 -0.155 0.059-0.258 0.059-0.15-3e-3 -0.307-5e-3 -0.459-9e-3 -0.299 0.021-0.598 0.025-0.895 0.078-0.08-0.092-0.293-0.072-0.402-0.069l0.025-0.098c-0.101 4e-3 -0.164 0.089-0.262 0.106-0.138 0.024-0.229-0.067-0.338-0.138-0.072-0.047-0.105-0.046-0.121-0.14l-5e-3 -0.223c0-0.132-0.034-0.249-0.071-0.373-0.069-0.25-0.053-0.412 0.069-0.635l0.194-0.2c0.12-0.054 0.265-0.013 0.39-7e-3 0.189 0.013 0.335-0.064 0.508-0.138l0.083-0.172c0.025-0.174 0.047-0.345 0.064-0.52l-0.056-0.118-0.022-0.255c-0.019-0.252-9e-3 -0.504-9e-3 -0.757 0-0.56 0.015-1.126-0.022-1.685-9e-3 -0.159-0.064-0.302-0.064-0.463-4e-3 -0.138-6e-3 -0.275-0.011-0.412-4e-3 -0.245-8e-3 -0.488-0.014-0.733-2e-3 -0.108-0.064-0.238-0.01-0.343 0.128-0.067-0.041-0.108 2e-3 -0.225 0.064-0.183 0.2-0.262 0.384-0.297 0.098-0.018 0.226 2e-3 0.317-0.035l0.264 0.067 0.144 0.035 0.113-0.115 0.221 6e-3 0.204 0.118 0.148 0.206 0.062 0.247c-0.062 0.091-0.053 0.176-0.035 0.286 0.041 0.276 0.01 0.579 0.017 0.859 0.01 0.269-7e-3 0.538 0.01 0.807 0.032 0.521 0.014 1.049 0.073 1.568 0.026 0.23 0.026 0.484 9e-3 0.716l-0.043 0.267c-0.027 0.097-0.126 0.154-0.171 0.243 0.068-0.013 0.142-0.103 0.162-3e-3l0.043 0.25-0.061 0.238 0.117 0.059c0.044 0.091-0.021 0.045-0.021 0.137 0.1-0.02-0.022-0.098 0.107-0.041l0.199 0.049c0.108 2e-3 0.209-0.03 0.316-0.049 0.106-0.02 0.28-0.044 0.369 0.041l0.2 0.149c0.08 0.176 0.094 0.419 0.108 0.612 0.015 0.208 0.021 0.427-0.024 0.633-0.027 0.119-0.072 0.182-0.158 0.263" fill="#920f14"/>
  </g>
  <g transform="matrix(6.3717 0 0 -6.3717 -69.514 21.955)">
   <path d="m0 0-0.031 0.167z" fill="#920f14"/>
  </g>
  <g transform="matrix(6.3717 0 0 -6.3717 -66.726 18.053)">
   <path d="m0 0 0.031-0.128c-0.103 0-0.064 0.056-0.031 0.128" fill="#920f14"/>
  </g>
  <g transform="matrix(6.3717 0 0 -6.3717 -67.821 20.511)">
   <path d="m0 0c0.178-0.026-0.023-0.18 0 0" fill="#920f14"/>
  </g>
  <g transform="matrix(6.3717 0 0 -6.3717 -67.971 21.777)">
   <path d="m0 0-0.053 0.017z" fill="#920f14"/>
  </g>
  <g transform="matrix(6.3717 0 0 -6.3717 -68.829 18.019)">
   <path d="m0 0c0.128-0.052 0.035-0.093 0 0" fill="#920f14"/>
  </g>
  <g transform="matrix(6.3717 0 0 -6.3717 -68.593 22.676)">
   <path d="m0 0-0.1 0.083z" fill="#920f14"/>
  </g>
  <g transform="matrix(6.3717 0 0 -6.3717 -68.829 25.24)">
   <path d="m0 0-0.054 0.074z" fill="#920f14"/>
  </g>
  <g transform="matrix(6.3717 0 0 -6.3717 -68.107 24.508)">
   <path d="m0 0-0.121 0.143z" fill="#920f14"/>
  </g>
  <g transform="matrix(6.3717 0 0 -6.3717 -67.971 23.8)">
   <path d="M 0,0 -0.007,0.115 C 0.065,0.08 0.107,0 0,0" fill="#920f14"/>
  </g>
  <g transform="matrix(6.3717 0 0 -6.3717 -67.292 26.886)">
   <path d="m0 0-0.021 0.069z" fill="#920f14"/>
  </g>
  <g transform="matrix(6.3717 0 0 -6.3717 -67.056 22.735)">
   <path d="m0 0 0.052-5e-3z" fill="#920f14"/>
  </g>
  <g transform="matrix(6.3717 0 0 -6.3717 -67.734 19.011)">
   <path d="M 0,0 C 0.106,-0.024 0.177,-0.082 0.197,-0.189 0.106,-0.172 0.018,-0.1 0,0" fill="#920f14"/>
  </g>
  <g transform="matrix(6.3717 0 0 -6.3717 -56.441 17.804)">
   <path d="m0 0 0.054-0.071z" fill="#920f14"/>
  </g>
  <g transform="matrix(6.3717 0 0 -6.3717 -57.219 19.506)">
   <path d="m0 0-0.029-0.036z" fill="#920f14"/>
  </g>
  <g transform="matrix(6.3717 0 0 -6.3717 -57.555 25.822)">
   <path d="m0 0-0.051 0.045z" fill="#920f14"/>
  </g>
  <g transform="matrix(6.3717 0 0 -6.3717 -57.94 25.536)">
   <path d="m0 0-0.021 0.015z" fill="#920f14"/>
  </g>
  <g transform="matrix(6.3717 0 0 -6.3717 -58.475 23.834)">
   <path d="m0 0 0.018-0.024z" fill="#920f14"/>
  </g>
  <g transform="matrix(6.3717 0 0 -6.3717 -58.65 26.967)">
   <path d="m0 0-0.174 0.195z" fill="#920f14"/>
  </g>
  <g transform="matrix(6.3717 0 0 -6.3717 -58.519 28.858)">
   <path d="m0 0c-0.074 0.026-0.202 0.065-0.194 0.158 0.09 0 0.176-0.065 0.194-0.158" fill="#920f14"/>
  </g>
  <g transform="matrix(6.3717 0 0 -6.3717 -60.056 24.082)">
   <path d="m0 0-0.037 0.06z" fill="#920f14"/>
  </g>
  <g transform="matrix(6.3717 0 0 -6.3717 -59.919 30.501)">
   <path d="M 0,0 -0.242,0.25 C -0.15,0.228 -0.021,0.094 0,0" fill="#920f14"/>
  </g>
  <g transform="matrix(6.3717 0 0 -6.3717 -60.828 24.082)">
   <path d="m0 0 0.053-7e-3 -0.024-0.076z" fill="#920f14"/>
  </g>
  <g transform="matrix(6.3717 0 0 -6.3717 -60.293 27.026)">
   <path d="M 0,0 C -0.095,0.015 -0.101,0.059 -0.107,0.145 L 0,0" fill="#920f14"/>
  </g>
  <g transform="matrix(6.3717 0 0 -6.3717 -61.263 18.348)">
   <path d="m0 0c0.091-0.06 0-0.106 0 0" fill="#920f14"/>
  </g>
  <g transform="matrix(6.3717 0 0 -6.3717 -60.591 28.136)">
   <path d="m0 0c-0.119 0.039-0.347 0.235-0.347 0.373 0.105-0.011 0.136-0.117 0.208-0.197l0.139-0.176" fill="#920f14"/>
  </g>
  <g transform="matrix(6.3717 0 0 -6.3717 -62.421 27.853)">
   <path d="m0 0 0.076-0.097z" fill="#920f14"/>
  </g>
  <g transform="matrix(6.3717 0 0 -6.3717 -62.707 29.048)">
   <path d="m0 0c0.154-0.074 0-0.119 0 0" fill="#920f14"/>
  </g>
  <g transform="matrix(6.3717 0 0 -6.3717 -63.242 23.834)">
   <path d="M 0,0 C 0.108,0 0.273,-0.206 0.287,-0.303 0.205,-0.26 -0.016,-0.091 0,0" fill="#920f14"/>
  </g>
  <g transform="matrix(6.3717 0 0 -6.3717 -62.707 22.77)">
   <path d="m0 0 0.076-9e-3c-0.041-0.121-0.154-0.03-0.076 9e-3" fill="#920f14"/>
  </g>
  <g transform="matrix(6.3717 0 0 -6.3717 -63.378 16.955)">
   <path d="m0 0c0.113-0.026 0.07-0.094 0 0" fill="#920f14"/>
  </g>
  <g transform="matrix(6.3717 0 0 -6.3717 -63.242 25.193)">
   <path d="m0 0c0.14-0.03-0.096-0.128 0 0" fill="#920f14"/>
  </g>
  <g transform="matrix(6.3717 0 0 -6.3717 -63.591 23.171)">
   <path d="m0 0v-0.037z" fill="#920f14"/>
  </g>
  <g transform="matrix(6.3717 0 0 -6.3717 -64.536 25.146)">
   <path d="m0 0 8e-3 -0.046z" fill="#920f14"/>
  </g>
  <g transform="matrix(6.3717 0 0 -6.3717 -65.283 21.481)">
   <path d="m0 0c0.102-0.028 0.033-0.156 0 0" fill="#920f14"/>
  </g>
  <g transform="matrix(6.3717 0 0 -6.3717 -65.283 17.487)">
   <path d="m0 0-0.027 0.034z" fill="#920f14"/>
  </g>
  <g transform="matrix(6.3717 0 0 -6.3717 -65.414 22.77)">
   <path d="m0 0 0.054-0.093z" fill="#920f14"/>
  </g>
  <g transform="matrix(6.3717 0 0 -6.3717 -64.941 65.022)">
   <path d="m0 0-0.028 0.066z" fill="#920f14"/>
  </g>
  <g transform="matrix(6.3717 0 0 -6.3717 -64.66 29.533)">
   <path d="m0 0 0.049-0.068z" fill="#920f14"/>
  </g>
  <g transform="matrix(6.3717 0 0 -6.3717 -64.536 26.933)">
   <path d="m0 0 0.029-0.037z" fill="#920f14"/>
  </g>
  <g transform="matrix(6.3717 0 0 -6.3717 -63.378 26.742)">
   <path d="m0 0-0.068 0.113 0.159-0.241z" fill="#920f14"/>
  </g>
  <g transform="matrix(6.3717 0 0 -6.3717 -62.918 30.728)">
   <path d="m0 0c-0.029 0.13 0.134 0.063 0.184 0.128l0.28-0.334-0.12 0.061 0.013-0.144-0.173 0.124-0.143-4e-3 8e-3 0.103-0.049 0.066" fill="#920f14"/>
  </g>
  <g transform="matrix(6.3717 0 0 -6.3717 -62.769 63.877)">
   <path d="M 0,0 0.113,0.121 C 0.222,0.095 0.036,0.022 0,0" fill="#920f14"/>
  </g>
  <g transform="matrix(6.3717 0 0 -6.3717 -62.171 33.73)">
   <path d="M 0,0 0.02,0.187 C 0.115,0.18 0.186,0.083 0.203,0 H 0" fill="#920f14"/>
  </g>
  <g transform="matrix(6.3717 0 0 -6.3717 -60.828 65.022)">
   <path d="m0 0-0.041 0.172 0.184-0.039z" fill="#920f14"/>
  </g>
  <g transform="matrix(6.3717 0 0 -6.3717 -60.293 33.021)">
   <path d="M 0,0 0.145,-0.141 C 0.043,-0.107 0.035,-0.098 0,0" fill="#920f14"/>
  </g>
  <g transform="matrix(6.3717 0 0 -6.3717 -59.87 30.597)">
   <path d="m0 0 0.068-0.044z" fill="#920f14"/>
  </g>
  <g transform="matrix(6.3717 0 0 -6.3717 -59.82 29.25)">
   <path d="m0 0c0.128-0.028 0.353-0.261 0.334-0.393-0.105 0.042-0.303 0.288-0.334 0.393" fill="#920f14"/>
  </g>
  <g transform="matrix(6.3717 0 0 -6.3717 -58.475 32.286)">
   <path d="m0 0 0.131-0.134z" fill="#920f14"/>
  </g>
  <g transform="matrix(6.3717 0 0 -6.3717 -58.793 33.447)">
   <path d="m0 0c0.138-0.033-0.031-0.131 0 0" fill="#920f14"/>
  </g>
  <g transform="matrix(6.3717 0 0 -6.3717 -58.936 34.875)">
   <path d="M 0,0 -0.011,0.066 C 0.088,0.05 0.045,0.022 0,0" fill="#920f14"/>
  </g>
  <g transform="matrix(6.3717 0 0 -6.3717 -58.277 62.814)">
   <path d="m0 0c0.176-0.048-0.162-0.187 0 0" fill="#920f14"/>
  </g>
  <g transform="matrix(6.3717 0 0 -6.3717 -57.741 34.875)">
   <path d="m0 0-0.037 0.111z" fill="#920f14"/>
  </g>
  <g transform="matrix(6.3717 0 0 -6.3717 -57.928 30.124)">
   <path d="m0 0-0.039 0.123 0.113-0.167z" fill="#920f14"/>
  </g>
  <g transform="matrix(6.3717 0 0 -6.3717 -56.745 34.781)">
   <path d="m0 0-0.08 0.111 0.128-0.03z" fill="#920f14"/>
  </g>
  <g transform="matrix(6.3717 0 0 -6.3717 -55.29 34.414)">
   <path d="m0 0c-0.098-0.028-0.314 0.28-0.316 0.365 0.109-0.022 0.089-0.105 0.172-0.18l0.144-0.185" fill="#920f14"/>
  </g>
  <g transform="matrix(6.3717 0 0 -6.3717 -56.061 31.944)">
   <path d="m0 0-0.211 0.204 0.092-0.074 0.168 0.074z" fill="#920f14"/>
  </g>
  <g transform="matrix(6.3717 0 0 -6.3717 -55.706 21.152)">
   <path d="m0 0c0.065-0.015-0.021-0.104 0 0" fill="#920f14"/>
  </g>
  <g transform="matrix(6.3717 0 0 -6.3717 -54.761 17.863)">
   <path d="m0 0c0.159-0.024-9e-3 -0.121 0 0" fill="#920f14"/>
  </g>
  <g transform="matrix(6.3717 0 0 -6.3717 -52.963 17.521)">
   <path d="m0 0c0.161-0.046-0.095-0.126 0 0" fill="#920f14"/>
  </g>
  <g transform="matrix(6.3717 0 0 -6.3717 -120.87 16.955)">
   <path d="M 0,0 -0.124,0.176 C -0.195,0.093 -0.105,-0.035 0,0" fill="#920f14"/>
  </g>
  <g transform="matrix(6.3717 0 0 -6.3717 -31.364 21.955)">
   <path d="m0 0c0.138 0.078 0.024 0.386-3e-3 0.499-0.027 0.121-0.133 0.052-0.189 0.152-0.047 0.075-0.138 0.121-0.229 0.128l4e-3 -0.122c-0.074 0.03-0.043 0.134-0.15 0.152l-0.233 0.03c-0.165 0.029-0.347 0.042-0.515 0.02l-0.242-0.098c-0.098-0.056-0.155-0.045-0.204-0.156-0.088-0.197-0.097-0.414-0.094-0.623 3e-3 -0.227 0.055-0.494-5e-3 -0.713-0.045-0.164 0-0.331-2e-3 -0.498-4e-3 -0.216-0.043-0.422-0.033-0.643 0.013-0.225 0.037-0.449 0.023-0.675-0.027-0.433-0.06-0.85-0.027-1.286 0.015-0.193 0.039-0.384 0.074-0.574 0.044-0.222-0.082-0.404-0.084-0.621 0-0.123 0.012-0.243-0.026-0.362l-0.072-0.214 0.012-0.143 0.102 8e-3 0.058-0.193 0.148-2e-3 0.065 0.013-0.037-0.182-0.172 0.019-0.132-2e-3c-0.177-0.161-0.093-0.661 0.108-0.775 0.263-0.149 0.653-0.21 0.954-0.181 0.2 0.021 0.381-0.051 0.554 0.086 0.131 0.105 0.196 0.256 0.205 0.421 0.014 0.202-0.035 0.407-0.062 0.605-0.019 0.115-0.024 0.193 0.017 0.306 0.042 0.119-0.034 0.252-2e-3 0.377 0.036 0.148 0.018 0.23-0.023 0.378 4e-3 0.101 0.01 0.199-5e-3 0.299-0.026 0.196-0.018 0.397-2e-3 0.592l0.017 0.297c-0.041 0.105-0.037 0.15-4e-3 0.265 0.064 0.258 0.024 0.525 0.056 0.787 0.016 0.156 0.046 0.314 0.046 0.471v0.202l0.023 0.13-0.028 0.149 0.044 0.167c-5e-3 0.133-0.011 0.263-0.016 0.397 0.027 0.163 0.033 0.339 0.029 0.506-2e-3 0.176-0.082 0.225-0.174 0.362h0.051c0.025-0.133 0.127-0.093 0.184 0l0.039 0.167-0.078 0.1 0.03-0.022" fill="#920f14"/>
  </g>
  <g transform="matrix(6.3717 0 0 -6.3717 -38.116 17.664)">
   <path d="m0 0 0.022-0.039z" fill="#920f14"/>
  </g>
  <g transform="matrix(6.3717 0 0 -6.3717 -38.303 19.366)">
   <path d="m0 0 0.039-0.096z" fill="#920f14"/>
  </g>
  <g transform="matrix(6.3717 0 0 -6.3717 -38.116 23.124)">
   <path d="m0 0-0.029 0.039z" fill="#920f14"/>
  </g>
  <g transform="matrix(6.3717 0 0 -6.3717 -38.707 21.102)">
   <path d="m0 0-0.021 0.039z" fill="#920f14"/>
  </g>
  <g transform="matrix(6.3717 0 0 -6.3717 -39.112 17.947)">
   <path d="m0 0-9e-3 -0.063z" fill="#920f14"/>
  </g>
  <g transform="matrix(6.3717 0 0 -6.3717 -39.367 49.691)">
   <path d="M 0,0 0.022,0.006 C 0.054,-0.015 0.065,-0.113 0,0" fill="#920f14"/>
  </g>
  <g transform="matrix(6.3717 0 0 -6.3717 -39.603 27.026)">
   <path d="m0 0 0.06-0.062z" fill="#920f14"/>
  </g>
  <g transform="matrix(6.3717 0 0 -6.3717 -39.547 23.065)">
   <path d="m0 0c0.131-0.074 0-0.071 0 0" fill="#920f14"/>
  </g>
  <g transform="matrix(6.3717 0 0 -6.3717 -39.889 21.152)">
   <path d="m0 0c0.132-0.083-0.077-0.1 0 0" fill="#920f14"/>
  </g>
  <g transform="matrix(6.3717 0 0 -6.3717 -39.983 24.956)">
   <path d="m0 0-0.056 0.137 0.101-0.091z" fill="#920f14"/>
  </g>
  <g transform="matrix(6.3717 0 0 -6.3717 -39.808 28.089)">
   <path d="m0 0-0.02 0.03z" fill="#920f14"/>
  </g>
  <g transform="matrix(6.3717 0 0 -6.3717 -41.016 17.71)">
   <path d="m0 0c0.107 0-0.033-0.158 0 0" fill="#920f14"/>
  </g>
  <g transform="matrix(6.3717 0 0 -6.3717 -41.047 20.43)">
   <path d="m0 0 5e-3 -0.135 0.123-0.173-0.169 0.154c-0.062 0.104-0.013 0.073 0.041 0.154" fill="#920f14"/>
  </g>
  <g transform="matrix(6.3717 0 0 -6.3717 -41.016 34.414)">
   <path d="m0 0c0.14 0-0.083-0.193 0 0" fill="#920f14"/>
  </g>
  <g transform="matrix(6.3717 0 0 -6.3717 -41.047 29.343)">
   <path d="m0 0 0.044-0.023z" fill="#920f14"/>
  </g>
  <g transform="matrix(6.3717 0 0 -6.3717 -41.214 31.708)">
   <path d="m0 0-6e-3 -0.03-0.014 0.03z" fill="#920f14"/>
  </g>
  <g transform="matrix(6.3717 0 0 -6.3717 -41.768 18.729)">
   <path d="m0 0c0.095 0 9e-3 -0.121 0 0" fill="#920f14"/>
  </g>
  <g transform="matrix(6.3717 0 0 -6.3717 -41.601 22.25)">
   <path d="m0 0-0.037 0.039z" fill="#920f14"/>
  </g>
  <g transform="matrix(6.3717 0 0 -6.3717 -42.783 58.037)">
   <path d="m0 0c0.301-0.08-0.058-0.176 0 0" fill="#920f14"/>
  </g>
  <g transform="matrix(6.3717 0 0 -6.3717 -42.111 50.755)">
   <path d="m0 0 0.037 0.113z" fill="#920f14"/>
  </g>
  <g transform="matrix(6.3717 0 0 -6.3717 -41.464 55.505)">
   <path d="m0 0c-0.061 0.113-0.113 0.326 0.028 0.39 0.142 0 0.048-0.149 0.021-0.242 0.165-0.083 0.183 0.058 0.211 0.18l0.111-0.03-0.064-0.198c-0.036-0.081-0.252-0.201-0.307-0.1" fill="#920f14"/>
  </g>
  <g transform="matrix(6.3717 0 0 -6.3717 -40.281 60.875)">
   <path d="m0 0c-0.137 0 0.032 0.197 0 0" fill="#920f14"/>
  </g>
  <g transform="matrix(6.3717 0 0 -6.3717 -39.062 65.165)">
   <path d="m0 0c-0.015-0.089-2e-3 -0.172-0.105-0.098-0.1 0.076-0.145 0.089-0.062 0.196l0.142 0.121c0.091-0.032 0.039-0.152 0.025-0.219" fill="#920f14"/>
  </g>
  <g transform="matrix(6.3717 0 0 -6.3717 -38.053 64.562)">
   <path d="m0 0-0.055 0.093z" fill="#920f14"/>
  </g>
  <g transform="matrix(6.3717 0 0 -6.3717 -38.931 23.834)">
   <path d="M 0,0 C 0.115,-0.052 0.152,-0.081 0.183,-0.206 L 0,0" fill="#920f14"/>
  </g>
  <g transform="matrix(6.3717 0 0 -6.3717 -37.83 20.949)">
   <path d="m0 0-8e-3 0.037z" fill="#920f14"/>
  </g>
  <g transform="matrix(6.3717 0 0 -6.3717 -37.251 30.019)">
   <path d="m0 0-0.076 0.091z" fill="#920f14"/>
  </g>
  <g transform="matrix(6.3717 0 0 -6.3717 -37.581 18.053)">
   <path d="m0 0c0.094-5e-3 0.124-0.063 0.137-0.128l-0.137 0.128" fill="#920f14"/>
  </g>
  <g transform="matrix(6.3717 0 0 -6.3717 -36.274 27.026)">
   <path d="m0 0-0.113 0.145z" fill="#920f14"/>
  </g>
  <g transform="matrix(6.3717 0 0 -6.3717 -36.361 20.949)">
   <path d="m0 0v0.046z" fill="#920f14"/>
  </g>
  <g transform="matrix(6.3717 0 0 -6.3717 -36.33 29.153)">
   <path d="m0 0-0.04 0.054z" fill="#920f14"/>
  </g>
  <g transform="matrix(6.3717 0 0 -6.3717 -36.847 32.147)">
   <path d="m0 0 0.037-0.066z" fill="#920f14"/>
  </g>
  <g transform="matrix(6.3717 0 0 -6.3717 -36.61 49.606)">
   <path d="m0 0 0.014 0.024z" fill="#920f14"/>
  </g>
  <g transform="matrix(6.3717 0 0 -6.3717 -36.424 34.639)">
   <path d="m0 0 0.015-0.024z" fill="#920f14"/>
  </g>
  <g transform="matrix(6.3717 0 0 -6.3717 -36.05 31.615)">
   <path d="m0 0-0.049 0.145z" fill="#920f14"/>
  </g>
  <g transform="matrix(6.3717 0 0 -6.3717 -35.751 27.464)">
   <path d="m0 0-8e-3 0.017z" fill="#920f14"/>
  </g>
  <g transform="matrix(6.3717 0 0 -6.3717 -36.61 19.222)">
   <path d="m0 0c0.109-0.021 0.139-0.08 0.166-0.19l-0.166 0.19" fill="#920f14"/>
  </g>
  <g transform="matrix(6.3717 0 0 -6.3717 -35.254 20.713)">
   <path d="m0 0z" fill="#920f14"/>
  </g>
  <g transform="matrix(6.3717 0 0 -6.3717 -35.092 17.71)">
   <path d="m0 0c0.111-0.039 0.342-0.262 0.342-0.388-0.133 0.019-0.141 0.091-0.225 0.191-0.054 0.065-0.209 0.134-0.117 0.197" fill="#920f14"/>
  </g>
  <g transform="matrix(6.3717 0 0 -6.3717 -34.98 19.319)">
   <path d="m0 0c0.113 0 2e-3 -0.133 0 0" fill="#920f14"/>
  </g>
  <g transform="matrix(6.3717 0 0 -6.3717 -34.295 34.026)">
   <path d="m0 0-0.012 0.062z" fill="#920f14"/>
  </g>
  <g transform="matrix(6.3717 0 0 -6.3717 -34.258 30.019)">
   <path d="m0 0-0.097 0.083 0.037 0.045 0.095-0.065z" fill="#920f14"/>
  </g>
  <g transform="matrix(6.3717 0 0 -6.3717 -34.439 27.063)">
   <path d="m0 0 6e-3 -0.124z" fill="#920f14"/>
  </g>
  <g transform="matrix(6.3717 0 0 -6.3717 -34.874 21.102)">
   <path d="m0 0 0.149-0.013 0.018-0.137c0.115-0.053 0.074-0.079 0.096-0.19-0.094 0.051-0.234 0.241-0.263 0.34" fill="#920f14"/>
  </g>
  <g transform="matrix(6.3717 0 0 -6.3717 -32.367 26.447)">
   <path d="m0 0 7e-3 -0.069z" fill="#920f14"/>
  </g>
  <g transform="matrix(6.3717 0 0 -6.3717 -32.802 31.615)">
   <path d="m0 0c0.118-0.093-0.023-0.135 0 0" fill="#920f14"/>
  </g>
  <g transform="matrix(6.3717 0 0 -6.3717 -32.746 30.323)">
   <path d="m0 0-0.026 0.048z" fill="#920f14"/>
  </g>
  <g transform="matrix(6.3717 0 0 -6.3717 -32.864 20.57)">
   <path d="m0 0-8e-3 0.046z" fill="#920f14"/>
  </g>
  <g transform="matrix(6.3717 0 0 -6.3717 -19.262 25.856)">
   <path d="m0 0-7e-3 0.015z" fill="#920f14"/>
  </g>
  <g transform="matrix(6.3717 0 0 -6.3717 -19.885 28.955)">
   <path d="m0 0-8e-3 -0.022z" fill="#920f14"/>
  </g>
  <g transform="matrix(6.3717 0 0 -6.3717 -21.919 29.969)">
   <path d="m0 0 0.018-0.037z" fill="#920f14"/>
  </g>
  <g transform="matrix(6.3717 0 0 -6.3717 -21.228 37.015)">
   <path d="M 0,0 -0.123,0.169 C -0.025,0.143 0,0.085 0,0" fill="#920f14"/>
  </g>
  <g transform="matrix(6.3717 0 0 -6.3717 -22.143 51.772)">
   <path d="m0 0-0.085-0.039z" fill="#920f14"/>
  </g>
  <g transform="matrix(6.3717 0 0 -6.3717 -23.301 31.944)">
   <path d="m0 0 7e-3 -0.106z" fill="#920f14"/>
  </g>
  <g transform="matrix(6.3717 0 0 -6.3717 -23.344 34.132)">
   <path d="m0 0z" fill="#920f14"/>
  </g>
  <g transform="matrix(6.3717 0 0 -6.3717 -23.773 27.026)">
   <path d="m0 0c0.101-0.039-0.056-0.08 0 0" fill="#920f14"/>
  </g>
  <g transform="matrix(6.3717 0 0 -6.3717 -23.942 22.984)">
   <path d="m0 0 0.01-0.037z" fill="#920f14"/>
  </g>
  <g transform="matrix(6.3717 0 0 -6.3717 -25.335 29.378)">
   <path d="m0 0-8e-3 0.119z" fill="#920f14"/>
  </g>
  <g transform="matrix(6.3717 0 0 -6.3717 -25.584 33.93)">
   <path d="M 0,0 -0.113,0.168 C -0.076,0.146 0.101,0.065 0,0" fill="#920f14"/>
  </g>
  <g transform="matrix(6.3717 0 0 -6.3717 -26.443 35.23)">
   <path d="m0 0v0.093z" fill="#920f14"/>
  </g>
  <g transform="matrix(6.3717 0 0 -6.3717 -26.07 29.378)">
   <path d="m0 0-0.013 0.028z" fill="#920f14"/>
  </g>
  <g transform="matrix(6.3717 0 0 -6.3717 -26.53 31.328)">
   <path d="m0 0 0.047-0.06z" fill="#920f14"/>
  </g>
  <g transform="matrix(6.3717 0 0 -6.3717 -26.623 32.286)">
   <path d="m0 0 0.042-0.089z" fill="#920f14"/>
  </g>
  <g transform="matrix(6.3717 0 0 -6.3717 -21.627 58.617)">
   <path d="m0 0c0.103-7e-3 0.131-0.03 0.156-0.132 0.021-0.094-0.019-0.211-0.138-0.161-0.139 0.058-0.08 0.198-0.018 0.293" fill="#920f14"/>
  </g>
  <g transform="matrix(6.3717 0 0 -6.3717 -21.141 62.138)">
   <path d="m0 0 0.062-0.165c-0.11-0.037-0.126 0.117-0.062 0.165" fill="#920f14"/>
  </g>
  <g transform="matrix(6.3717 0 0 -6.3717 -21.185 65.094)">
   <path d="M 0,0 V 0.041 L 0.107,0.115 C 0.138,0.024 0.093,0.007 0,0" fill="#920f14"/>
  </g>
  <g transform="matrix(6.3717 0 0 -6.3717 -19.847 53.782)">
   <path d="m0 0-0.047-0.163c-0.018-0.095 0.014-0.115 0.023-0.197 0.014-0.113-0.322-0.189-0.341-0.109-0.026 0.091-4e-3 0.187-0.014 0.28-0.012 0.102-0.074 0.072-0.154 0.044-0.193-0.072-0.055-0.23 0.021-0.345 0.067-0.094-0.121-0.068-0.168-0.046l-0.15 0.102c-0.192 0.089-0.192 0.21-0.168 0.406l7e-3 0.258-0.112 0.14 0.082 0.165c0 0.104-0.039 0.133 0.039 0.213 0.086-0.058 0.162-0.037 0.093-0.162l-0.047-0.179 0.097 0.094 0.111-0.026-0.057-0.174 0.142 0.083 0.094 0.136-0.062-0.199-0.094-0.111-0.117-0.084c0-0.126 0.089-0.025 0.154-0.09l-0.102-0.077c0.012-0.102 0.078-0.078 0.15-0.044 0.087 0.043 0.171 0.108 0.212 0.198 0.068-9e-3 0.105-0.102 0.124 6e-3 0.016 0.128 0.332 0.134 0.332-0.015l-0.048-0.104" fill="#920f14"/>
  </g>
  <g transform="matrix(6.3717 0 0 -6.3717 -19.15 65.85)">
   <path d="m0 0-0.01 0.059z" fill="#920f14"/>
  </g>
  <g transform="matrix(6.3717 0 0 -6.3717 -12.212 18.927)">
   <path d="m0 0-0.037-0.03z" fill="#920f14"/>
  </g>
  <g transform="matrix(6.3717 0 0 -6.3717 -12.449 20.949)">
   <path d="M 0,0 0.097,-0.091 C 0.017,-0.104 -0.035,-0.098 0,0" fill="#920f14"/>
  </g>
  <g transform="matrix(6.3717 0 0 -6.3717 -11.976 29.153)">
   <path d="m0 0-0.081 0.132z" fill="#920f14"/>
  </g>
  <g transform="matrix(6.3717 0 0 -6.3717 -13.171 27.026)">
   <path d="m0 0 0.089-0.167z" fill="#920f14"/>
  </g>
  <g transform="matrix(6.3717 0 0 -6.3717 -14.341 18.775)">
   <path d="m0 0 0.071-0.128z" fill="#920f14"/>
  </g>
  <g transform="matrix(6.3717 0 0 -6.3717 -14.384 22.393)">
   <path d="m0 0 0.029-0.083z" fill="#920f14"/>
  </g>
  <g transform="matrix(6.3717 0 0 -6.3717 -14.092 24.91)">
   <path d="m0 0-0.03 0.032z" fill="#920f14"/>
  </g>
  <g transform="matrix(6.3717 0 0 -6.3717 -14.813 25.585)">
   <path d="m0 0-9e-3 -0.042z" fill="#920f14"/>
  </g>
  <g transform="matrix(6.3717 0 0 -6.3717 -15.628 19.543)">
   <path d="m0 0v-0.046z" fill="#920f14"/>
  </g>
  <g transform="matrix(6.3717 0 0 -6.3717 -15.772 21.528)">
   <path d="m0 0c0.011 0.083 0.126 0.017 0 0" fill="#920f14"/>
  </g>
  <g transform="matrix(6.3717 0 0 -6.3717 -15.628 23.88)">
   <path d="m0 0 0.014 0.104z" fill="#920f14"/>
  </g>
  <g transform="matrix(6.3717 0 0 -6.3717 -17.047 18.974)">
   <path d="m0 0 0.121-0.229-0.099 0.101z" fill="#920f14"/>
  </g>
  <g transform="matrix(6.3717 0 0 -6.3717 -16.705 21.186)">
   <path d="m0 0 0.054-0.061c-0.167-0.03 0.088-0.189-0.043-0.197l-0.161 0.249c0.087-0.033 0.087-0.106 0.15 9e-3" fill="#920f14"/>
  </g>
  <g transform="matrix(6.3717 0 0 -6.3717 -16.885 28.765)">
   <path d="m0 0c0.129 0-0.114-0.113 0 0" fill="#920f14"/>
  </g>
  <g transform="matrix(6.3717 0 0 -6.3717 -17.134 36.331)">
   <path d="m0 0c0.104 0 0.016-0.237 0 0" fill="#920f14"/>
  </g>
  <g transform="matrix(6.3717 0 0 -6.3717 -17.663 24.412)">
   <path d="m0 0c0.069-0.032-0.021-0.164 0 0" fill="#920f14"/>
  </g>
  <g transform="matrix(6.3717 0 0 -6.3717 -18.18 29.969)">
   <path d="m0 0-0.024 0.015z" fill="#920f14"/>
  </g>
  <g transform="matrix(6.3717 0 0 -6.3717 -18.677 19.649)">
   <path d="m0 0c0.146-0.056-0.115-0.115 0 0" fill="#920f14"/>
  </g>
  <g transform="matrix(6.3717 0 0 -6.3717 -18.777 24.129)">
   <path d="m0 0c0.106-0.054-0.023-0.071 0 0" fill="#920f14"/>
  </g>
  <g transform="matrix(6.3717 0 0 -6.3717 -18.628 30.846)">
   <path d="m0 0 0.037-0.029z" fill="#920f14"/>
  </g>
  <g transform="matrix(6.3717 0 0 -6.3717 -16.998 61.88)">
   <path d="M 0,0 -0.097,0.043 0.009,0.148 C 0.111,0.113 0.072,0.056 0,0" fill="#920f14"/>
  </g>
  <g transform="matrix(6.3717 0 0 -6.3717 -11.596 36.804)">
   <path d="m0 0c-0.039-0.137-0.074-0.225-0.074-0.371v-0.258l0.025-0.139c-0.035-0.171-0.098-0.318-0.088-0.496 7e-3 -0.126 0.067-0.263 0.046-0.385-0.024-0.132-0.059-0.234-0.032-0.374l0.03-0.231 0.04-0.142c0.045-0.159-0.127-0.372-0.136-0.538l0.099-0.089-0.083-0.137c-0.095-0.059-0.254 0.012-0.365-4e-3 -0.128-0.016-0.255 4e-3 -0.341 0.11-0.021 0.024-0.045 0.145-0.078 0.048l-0.023-0.137c-0.165 0.054-0.127 0.475 0.102 0.274 0.138-0.118 0.136 0.075 0.108 0.169-0.034 0.117-0.037 0.19 7e-3 0.304l0.035 0.206-0.031 0.212c0.04 0.134 5e-3 0.277-6e-3 0.41-0.012 0.119-8e-3 0.229 0.015 0.347 0.02 0.098 0.074 0.117 0.061 0.228-0.024 0.21-0.065 0.381-0.018 0.583 0.043 0.199 0.015 0.412 0.014 0.612-2e-3 0.275-0.063 0.941 0.295 1.03 0.125-0.037 0.192-0.145 0.301-0.208 0.099-0.053 0.112-0.28 0.099-0.389-0.014-0.128-0.107-0.223-0.076-0.355 0.025-0.111 0.113-0.15 0.074-0.28m1.719 0.154c-2e-3 0.507-0.047 0.993-0.157 1.485-0.026 0.109-0.059 0.222-0.133 0.307l-0.064 0.117-9e-3 0.158-0.196 0.182-0.168 0.191c-0.14 0-0.201 0.193-0.338 0.219-0.109 0.02-0.192 0.074-0.3 0.102-0.235 0.06-0.488 0.044-0.725 0.111-0.06-0.033-0.344 6e-3 -0.353-0.087-0.01-0.093-0.069 0.024-0.12 0l-0.177-0.145-0.1 0.088c-0.082-0.025-0.041-0.086-0.149-0.078-0.128 5e-3 -0.175-0.116-0.265-0.186-0.104-0.026-0.11-0.078-0.189-0.143-0.076-0.063-0.147-0.109-0.185-0.204l-0.142-0.204-0.058-0.167-0.084-0.093-0.028-0.1-0.113-0.165c-0.018-0.111 0-0.23 0.018-0.341l-0.076-0.281-0.069-0.143-0.016-0.167c-0.058-0.113 0.028-0.252-0.037-0.363-0.058-0.102-0.023-0.277-0.023-0.394 4e-3 -0.465-0.09-0.925-0.063-1.393 0.017-0.258 0.041-0.516 0.049-0.777 7e-3 -0.279-0.013-0.548 0.055-0.817l0.055-0.206 0.06-0.037 0.023-0.119 0.107-0.135 0.156-0.089c0.091 4e-3 0.062 0.03 0.069 0.108l-0.091 0.068 0.206-7e-3 0.089 0.09 0.045-0.051-0.045-0.139c-0.071-0.051-0.108-6e-3 -0.121-0.112-0.012-0.098-0.032-0.154-0.09-0.236l0.013-0.188c0.109-0.09 0.204-0.183 0.309-0.271 0.121-0.104 0.256-0.193 0.41-0.238 0.125-0.039 0.151 0.15 0.215-0.056 0.047-0.135 0.486-0.066 0.6-0.061l0.131 4e-3 0.08 0.103c0.106 0.106 0.052-0.033 0.065-0.081l0.229-0.026 0.109 0.052 0.041 0.117 0.155-0.097 0.047 0.017 0.178 0.067c0.158 0.067 0.353 0.204 0.466 0.33l0.122 0.214 0.133 0.098c0.093 0.069 0.099 0.204 0.142 0.308 0.05 0.115 0.141 0.191 0.141 0.321l0.059 0.196 0.013 0.166c0.018 0.152 2e-3 0.295-8e-3 0.445l0.028 0.16 0.056 0.133c-0.01 0.275-4e-3 0.542 0.012 0.815-0.037 0.541 0.011 1.083 6e-3 1.625" fill="#920f14"/>
  </g>
  <g transform="matrix(6.3717 0 0 -6.3717 -11.646 20.996)">
   <path d="m0 0v0.059z" fill="#920f14"/>
  </g>
  <g transform="matrix(6.3717 0 0 -6.3717 -3.1342 23.834)">
   <path d="m0 0c-0.119 0.028-0.041 0.143 0 0" fill="#920f14"/>
  </g>
  <g transform="matrix(6.3717 0 0 -6.3717 -4.1173 31.991)">
   <path d="m0 0-0.083 0.059z" fill="#920f14"/>
  </g>
  <g transform="matrix(6.3717 0 0 -6.3717 -4.8387 28.718)">
   <path d="M 0,0 0.086,-0.196 C 0.014,-0.174 -0.109,-0.042 0,0" fill="#920f14"/>
  </g>
  <g transform="matrix(6.3717 0 0 -6.3717 -5.5107 30.323)">
   <path d="m0 0-0.021 0.018z" fill="#920f14"/>
  </g>
  <g transform="matrix(6.3717 0 0 -6.3717 -6.0836 27.747)">
   <path d="m0 0-0.067 0.083z" fill="#920f14"/>
  </g>
  <g transform="matrix(6.3717 0 0 -6.3717 -6.7055 29.58)">
   <path d="m0 0 0.059-0.145z" fill="#920f14"/>
  </g>
  <g transform="matrix(6.3717 0 0 -6.3717 -6.4066 31.944)">
   <path d="m0 0c0.125 0-0.064-0.113-0.07-0.113l0.07 0.113" fill="#920f14"/>
  </g>
  <g transform="matrix(6.3717 0 0 -6.3717 -6.276 37.04)">
   <path d="m0 0-0.032 0.063z" fill="#920f14"/>
  </g>
  <g transform="matrix(6.3717 0 0 -6.3717 -6.8177 33.35)">
   <path d="m0 0-0.028 0.061z" fill="#920f14"/>
  </g>
  <g transform="matrix(6.3717 0 0 -6.3717 -8.3112 29.77)">
   <path d="m0 0 0.045 0.061z" fill="#920f14"/>
  </g>
  <g transform="matrix(6.3717 0 0 -6.3717 -8.0244 34.639)">
   <path d="m0 0-0.037 0.046z" fill="#920f14"/>
  </g>
  <g transform="matrix(6.3717 0 0 -6.3717 -8.0747 22.452)">
   <path d="m0 0c-0.145 0 6e-3 0.18 0 0" fill="#920f14"/>
  </g>
  <g transform="matrix(6.3717 0 0 -6.3717 -8.1678 27.499)">
   <path d="m0 0 0.054-0.206z" fill="#920f14"/>
  </g>
  <g transform="matrix(6.3717 0 0 -6.3717 -8.4042 18.868)">
   <path d="m0 0c0.184-0.056-0.093-0.184 0 0" fill="#920f14"/>
  </g>
  <g transform="matrix(6.3717 0 0 -6.3717 -8.8337 26.164)">
   <path d="m0 0c0.125-0.021-0.048-0.184 0 0" fill="#920f14"/>
  </g>
  <g transform="matrix(6.3717 0 0 -6.3717 -8.9209 30.597)">
   <path d="m0 0 0.029-0.039-0.041 8e-3z" fill="#920f14"/>
  </g>
  <g transform="matrix(6.3717 0 0 -6.3717 -9.7918 29.58)">
   <path d="m0 0c0 0.097 0.156 0.018 0 0" fill="#920f14"/>
  </g>
  <g transform="matrix(6.3717 0 0 -6.3717 -10.757 30.88)">
   <path d="M 0,0 C 0.017,-0.023 0.208,-0.213 0.114,-0.191 L 0,0" fill="#920f14"/>
  </g>
  <g transform="matrix(6.3717 0 0 -6.3717 -10.128 53.309)">
   <path d="M 0,0 -0.062,0.15 C 0.002,0.143 0.113,0.022 0,0" fill="#920f14"/>
  </g>
  <g transform="matrix(6.3717 0 0 -6.3717 -10.202 60.116)">
   <path d="m0 0c0.156-0.046-0.015-0.152 0 0" fill="#920f14"/>
  </g>
  <g transform="matrix(6.3717 0 0 -6.3717 -9.1387 64.067)">
   <path d="m0 0v0.022z" fill="#920f14"/>
  </g>
  <g transform="matrix(6.3717 0 0 -6.3717 -8.5973 57.114)">
   <path d="m0 0c-0.135-0.099-0.055 0.144-0.166 0.169-0.107 0.022-0.072 0.093-0.055 0.195l0.092 0.187 0.129-0.13c-0.068-0.011-0.139-0.037-0.098-0.128l0.176-0.056c0.171-0.02-4e-3 -0.185-0.078-0.237" fill="#920f14"/>
  </g>
  <g transform="matrix(6.3717 0 0 -6.3717 -7.5764 33.92)">
   <path d="m0 0-0.029 0.067z" fill="#920f14"/>
  </g>
  <g transform="matrix(6.3717 0 0 -6.3717 -7.5764 25.678)">
   <path d="M 0,0 C 0.058,-0.013 0.15,-0.013 0.105,-0.106 L 0,0" fill="#920f14"/>
  </g>
  <g transform="matrix(6.3717 0 0 -6.3717 -5.212 54.432)">
   <path d="m0 0-0.199-0.052-0.102 0.106 0.201 0.091z" fill="#920f14"/>
  </g>
  <g transform="matrix(6.3717 0 0 -6.3717 -3.9555 37.535)">
   <path d="m0 0-0.185 0.272c0.095-0.014 0.037-0.105 0.109-0.105 0.039 0.256 0.12-0.078 0.076-0.167" fill="#920f14"/>
  </g>
  <g transform="matrix(6.3717 0 0 -6.3717 -4.2791 33.659)">
   <path d="m0 0-0.185 0.171c-0.017 0.1-0.102 0.163-0.091 0.265l0.243-0.28 0.066-0.152 0.101-0.173-0.134 0.169" fill="#920f14"/>
  </g>
  <g transform="matrix(6.3717 0 0 -6.3717 -3.2832 31.116)">
   <path d="m0 0 0.081-0.024-0.037-0.073z" fill="#920f14"/>
  </g>
  <g transform="matrix(6.3717 0 0 -6.3717 -3.2023 35.656)">
   <path d="m0 0c0.017 0.093 0.105 0.05 0.142-0.013l0.062-0.216c-0.136 0-0.088 0.171-0.204 0.229" fill="#920f14"/>
  </g>
  <g transform="matrix(6.3717 0 0 -6.3717 -1.062 34.452)">
   <path d="m0 0v0.03z" fill="#920f14"/>
  </g>
  <g transform="matrix(6.3717 0 0 -6.3717 -122.28 17.947)">
   <path d="m0 0 0.047-0.123z" fill="#920f14"/>
  </g>
  <g transform="matrix(6.3717 0 0 -6.3717 29.913 38.151)">
   <path d="m0 0-0.122-0.117-0.123 2e-3 -0.023 0.193-0.02 0.263c-0.061 0.09-0.191 0.019-0.269 6e-3l-0.224 0.111-0.186 0.013-0.067 0.186-0.074 0.081-0.067 0.123-0.012 0.118c6e-3 0.099-0.031 0.195-0.155 0.125l-0.022-0.319c6e-3 -0.147 0.01-0.289-0.015-0.432 0.067-0.08 0.103-0.138-0.024-0.138-0.12 0-0.151 0.03-0.211 0.132-0.027 0.013-0.19 0.069-0.093 0.108l0.05 0.107-0.05 0.102v0.138c-0.017 0.152-0.054 0.302-0.095 0.45-0.031 0.114-0.057 0.256-0.123 0.357-0.076 0-9e-3 -0.178-0.107-0.193l-0.037 0.085-0.039 0.132c0.263 0.033 0.082 0.469 0.022 0.599-0.052 0.115-0.065 0.232-0.111 0.347l-0.101 0.108-0.017 0.141c-0.106 0.118-0.179 0.226-0.352 0.215-0.262-0.019-0.504 0.03-0.766 0.033l-0.131-0.013-0.249-0.068c-0.125-0.06-0.18-0.115-0.219-0.245-0.061-0.223-0.072-0.498-6e-3 -0.718 0.03-0.114 0.111-0.063 0.171-0.154l0.034-0.262-0.082-0.248c-0.043-0.056-0.189 0.061-0.16-0.092l0.129-0.105-0.064-0.067-0.041-0.087c-0.052-0.145-0.014-0.31-0.016-0.46 0-0.219-0.056-0.436-0.049-0.657 8e-3 -0.204 0.039-0.405 0.035-0.609-3e-3 -0.202-0.038-0.408 0-0.606 0.014-0.081 0.117-0.127 0.162-0.036l0.125 0.061c0.031 0.162-0.203 0.181-0.203 0.342 0.164 0.055 0.282 0.13 0.301 0.324 0.101-0.048 0.014-0.194 0.107-0.211 0.097 0.074 0.134 0.182 0.229 0.05 0.06-0.083 0.023-0.191-0.095-0.163-0.13 0.028-0.14-0.115-5e-3 -0.115-0.016-0.158-0.166-0.197-0.242-0.31-0.076-0.104-0.091-0.262-0.178-0.349-0.058 0.084-0.051 0.316-0.211 0.236-0.01-0.093-0.019-0.186-0.03-0.277-0.013-0.109 0.013-0.089 0.111-0.113 0.105-0.024 0.147-0.022 0.225 0.061l0.142 0.064 0.144-0.03v-0.145l-0.188 9e-3 -0.132-0.111-0.02-0.089 0.152 0.039c0.143 0.046 0.057-0.239 0.042-0.308l-0.165-0.076-0.023 0.113c-0.127-0.035-0.115-0.048-0.16 0.074l0.113 0.123c-0.123 0.078-0.243 0.026-0.282-0.108-0.046-0.137 0.054-0.653-0.134-0.672 0.051-0.243 0.068-0.428 0.018-0.67-0.022-0.092-0.047-0.181-0.063-0.272l0.074-0.126-0.011-0.18c-0.022-0.204 2e-3 -0.351 0.166-0.481l0.22-0.108c0.107-0.016 0.196 0.091 0.303 0.024 0.099-0.061 0.243-0.027 0.359-0.029 0.133-4e-3 0.227-0.037 0.352 0.02 0.115 0.054 0.167 0.043 0.213 0.171 0.037 0.091 0.057 0.187 0.065 0.284 0.058 0.44 0.025 0.902 0.025 1.345l-0.033 0.139 4e-3 0.158c-0.02 0.124 0.011 0.252-6e-3 0.375-0.018 0.098-0.036 0.171 0 0.267 0.033 0.102 0.091 0.197 0.109 0.301 0.166 0.105 0.176-0.281 0.229-0.366 0.072-0.111 0.038-0.214 0.072-0.337 0.029-0.123 0.017-0.246 0.077-0.359 0.091-0.172 0.074 0.109 0.071 0.165l-0.01 0.171 0.087-0.052c0.025-0.071 0.112-0.182 0.181-0.076l0.065 0.067 0.115-0.06-0.093-0.168 7e-3 -0.106 0.015-0.126c-0.015-0.071-0.03-0.223 0.079-0.203l0.136 0.112-0.016-0.134-0.021-0.087c6e-3 -0.067 0.063-0.178-0.043-0.184l-0.144 0.162-0.149 0.037 0.063 0.206-0.102 0.219c-0.111-0.095-0.18-0.271-0.191-0.412-0.014-0.197 0.115-0.443 0.172-0.631 0.054-0.189 0.111-0.375 0.185-0.559l0.075-0.254 0.201-0.113c0.109-0.034 0.234-0.043 0.351-0.054 0.124-0.011 0.256-0.026 0.382-9e-3 0.169 0.018 0.328 0.048 0.484-0.035 0.396 0.146 0.26 0.69 0.258 1.015v0.336l0.015 0.3c0.088 0.15 0.043 0.36 0.039 0.531-8e-3 0.218 0.012 0.436 0.012 0.655 3e-3 0.187 0.056 0.371 0.042 0.555l-0.087 0.161-0.082 0.202c-0.112 8e-3 -0.221 0.013-0.332 0.022l-0.098 0.075-8e-3 -0.19-0.123-0.068c-0.101 0.124-0.201-9e-3 -0.272-0.09l-0.097 0.192-0.106 0.183-0.094 0.186c-0.116 0.017-0.105 0.03-0.118 0.145l0.099-0.045 0.211-0.083c0.088 0.085 0.166 0.185 0.272 0.256l0.189 0.074 0.047 0.089 0.076-0.15c-0.104-0.058-4e-3 -0.13 0.047-0.202l0.117-0.214 0.076 0.234 8e-3 0.123 0.206 0.066 0.077 0.37c8e-3 0.153 8e-3 0.436-0.151 0.172" fill="#920f14"/>
  </g>
  <g transform="matrix(6.3717 0 0 -6.3717 5.2848 39.819)">
   <path d="M 0,0 -0.021,0.123 C 0.076,0.113 0.089,0.071 0,0" fill="#920f14"/>
  </g>
  <g transform="matrix(6.3717 0 0 -6.3717 3.6549 58.912)">
   <path d="m0 0v0.039h0.024z" fill="#920f14"/>
  </g>
  <g transform="matrix(6.3717 0 0 -6.3717 3.449 57.848)">
   <path d="m0 0v0.069c0.072 0 0.094-0.069 0-0.069" fill="#920f14"/>
  </g>
  <g transform="matrix(6.3717 0 0 -6.3717 6.598 55.919)">
   <path d="m0 0-0.054 0.029z" fill="#920f14"/>
  </g>
  <g transform="matrix(6.3717 0 0 -6.3717 6.3119 61.205)">
   <path d="m0 0-0.068-0.152-0.036 0.12-9e-3 0.121z" fill="#920f14"/>
  </g>
  <g transform="matrix(6.3717 0 0 -6.3717 6.598 58.853)">
   <path d="m0 0 0.06-0.039-2e-3 -0.13c-7e-3 -0.165-0.064-0.054-0.095 0.028-0.058 0.145-0.065-0.022-0.171 0.015-0.064 0.019-0.167 0.07-0.07 0.132 0.078 0.048 0.109 0.011 0.165 0.105l0.113 0.221c0.2-0.019-0.029-0.209 0-0.332" fill="#920f14"/>
  </g>
  <g transform="matrix(6.3717 0 0 -6.3717 8.4394 58.178)">
   <path d="m0 0c0.145 0-0.025-0.145 0 0" fill="#920f14"/>
  </g>
  <g transform="matrix(6.3717 0 0 -6.3717 9.9704 46.275)">
   <path d="m0 0-0.03 0.054z" fill="#920f14"/>
  </g>
  <g transform="matrix(6.3717 0 0 -6.3717 10.543 46.275)">
   <path d="M 0,0 0.023,0.34 C 0.162,0.34 0.125,0.043 0,0" fill="#920f14"/>
  </g>
  <g transform="matrix(6.3717 0 0 -6.3717 11.433 42.42)">
   <path d="m0 0 0.013-0.021z" fill="#920f14"/>
  </g>
  <g transform="matrix(6.3717 0 0 -6.3717 12.011 27.654)">
   <path d="M 0,0 0.037,0.121 C 0.13,0.121 0.064,0.013 0,0" fill="#920f14"/>
  </g>
  <g transform="matrix(6.3717 0 0 -6.3717 29.521 49.121)">
   <path d="m0 0 0.051-0.106-0.107-0.044c-0.092 0.046-3e-3 0.133 0.056 0.15" fill="#920f14"/>
  </g>
  <g transform="matrix(6.3717 0 0 -6.3717 21.232 44.193)">
   <path d="m0 0 4e-3 2e-3 0.017 0.097-0.017-0.097v-2e-3h-4e-3l-0.048-0.022z" fill="#920f14"/>
  </g>
  <g transform="matrix(6.3717 0 0 -6.3717 21.058 50.518)">
   <path d="M 0,0 -0.037,0.136 C 0.043,0.109 0.1,0.043 0,0" fill="#920f14"/>
  </g>
  <g transform="matrix(6.3717 0 0 -6.3717 26.366 58.52)">
   <path d="m0 0-0.03 0.091z" fill="#920f14"/>
  </g>
  <g transform="matrix(6.3717 0 0 -6.3717 25.277 51.676)">
   <path d="m0 0 0.061 0.167c-3e-3 0.111 1e-3 0.117 0.097 0.182 0.12-0.026 0.046-0.145 7e-3 -0.204l-0.095-0.151-0.07 6e-3" fill="#920f14"/>
  </g>
  <g transform="matrix(6.3717 0 0 -6.3717 23.634 50.471)">
   <path d="m0 0c0.17 0.073 0.035 0.203 0.089 0.319 0.245-0.094 0.032-0.246 0.032-0.423 0-0.094-8e-3 -0.146-0.055-0.031-0.099 0.013-0.076-0.021-0.099-0.108l-0.057 0.013c-0.025 0.095-0.017 0.189 0.09 0.23" fill="#920f14"/>
  </g>
  <g transform="matrix(6.3717 0 0 -6.3717 22.116 44.442)">
   <path d="m0 0h0.03z" fill="#920f14"/>
  </g>
  <g transform="matrix(6.3717 0 0 -6.3717 21.979 54.618)">
   <path d="m0 0c0.037-0.119 0.135-0.213 0.15-0.34 0.067-0.048 0.233-0.07 0.213 0.052l-6e-3 0.16 0.131 0.037 0.17 0.221c0.143-0.028-0.019-0.169-0.068-0.219-0.098-0.097 0.082-0.136 0.146-0.154 0.095-0.03 0.186-0.063 0.159-0.171-0.099-0.037-0.206-0.033-0.283 0.044-0.053-0.107-0.171-0.074-0.237-0.153l-0.076-0.128-0.162-0.017c-0.166 0.011-9e-3 -0.227-0.125-0.254-0.119-0.03-0.158 0.217-0.194 0.302 0.124 0.034-7e-3 0.13 0.11 0.147 0.066 9e-3 0.146-0.03 0.128 0.066l-0.118 0.065-0.103-0.105 0.165 0.447" fill="#920f14"/>
  </g>
  <g transform="matrix(6.3717 0 0 -6.3717 26.136 39.464)">
   <path d="m0 0 0.043-0.115z" fill="#920f14"/>
  </g>
  <g transform="matrix(6.3717 0 0 -6.3717 30.168 20.016)">
   <path d="m0 0-0.122 0.034-0.033 0.057c-0.262 0.074-0.572 0.067-0.841 0.067l-0.139-0.175c0-0.157 0.119-0.109 0.155 0l-0.024-0.209c-0.047-0.099-0.064-0.125 4e-3 -0.206l-0.025-0.243 0.072-0.058 0.086 0.034-0.131-0.108-0.159 0.15-0.149 0.058-0.024-0.13 0.115-0.05-0.037-0.087 2e-3 -0.143c0.021-0.106 0.054-0.208 0.051-0.318-0.125-0.104-0.073-0.128-0.053-0.272l0.119 0.059 0.043 0.106c0.011 0.141 0.415-0.15 0.367 0.193-0.013 0.076-0.129 0.239-0.024 0.252l0.155 0.093 0.068 0.117 0.087-0.061c0.026-0.058 0.096-0.195 0.146-0.086 0.047 0.097 0.051 0.204 0.051 0.31l-6e-3 0.184 0.111 0.044c0.022 0.145-0.342 0.034-0.375 0.126-0.045 0.117 0.093 0.076 0.165 0.065l0.126 0.027 0.112 0.048c0.123 7e-3 0.179-4e-3 0.213-0.128 0.029-0.11 0.123-0.032 0.106 0.055-0.019 0.095-0.093 0.217-0.212 0.195" fill="#920f14"/>
  </g>
  <g transform="matrix(6.3717 0 0 -6.3717 30.386 22.25)">
   <path d="m0 0c-0.083-0.048 0.031-0.135-0.062-0.16l-0.088-0.118 0.137-0.095c0.102 7e-3 0.031 0.097 2e-3 0.145l0.092 0.041 0.018 0.105-0.099 0.082" fill="#920f14"/>
  </g>
  <g transform="matrix(6.3717 0 0 -6.3717 26.957 26.164)">
   <path d="M 0,0 -0.047,-0.15 C 0,-0.104 0.141,-0.015 0,0" fill="#920f14"/>
  </g>
  <g transform="matrix(6.3717 0 0 -6.3717 4.6813 26.933)">
   <path d="m0 0-0.054 0.062z" fill="#920f14"/>
  </g>
  <g transform="matrix(6.3717 0 0 -6.3717 30.361 29.981)">
   <path d="m0 0c0.136 0.044 0.079 0.254-0.042 0.269-0.074-0.062-0.1-0.091-0.066-0.188l0.108-0.081" fill="#920f14"/>
  </g>
  <g transform="matrix(6.3717 0 0 -6.3717 26.366 31.116)">
   <path d="m0 0-0.104 0.165c-0.053-0.026-0.145-0.078-0.022-0.087 0.1-8e-3 0.018-0.067 0.126-0.078" fill="#920f14"/>
  </g>
  <g transform="matrix(6.3717 0 0 -6.3717 -61.114 31.366)">
   <path d="m0 0c0.025 0.089-1e-3 0.147-0.092 0.158l0.092-0.158" fill="#920f14"/>
  </g>
  <g transform="matrix(6.3717 0 0 -6.3717 24.867 31.86)">
   <path d="M 0,0 -0.104,0.154 C -0.142,0.096 -0.053,-0.121 0,0" fill="#920f14"/>
  </g>
  <g transform="matrix(6.3717 0 0 -6.3717 24.344 33.388)">
   <path d="m0 0c0.056-0.081 0.07-0.269 0.193-0.207 0.127 0.063 0.151 0.142 0.137 0.287-0.01 0.102-0.072 0.178-0.17 0.206-0.058-0.057 0.014-0.173 0-0.263l-0.226 0.044 0.066-0.067" fill="#920f14"/>
  </g>
  <g transform="matrix(6.3717 0 0 -6.3717 30.093 32.962)">
   <path d="m0 0-0.067 0.067z" fill="#920f14"/>
  </g>
  <g transform="matrix(6.3717 0 0 -6.3717 28.6 33.587)">
   <path d="m0 0 0.019-0.225 0.168-0.07z" fill="#920f14"/>
  </g>
  <g transform="matrix(6.3717 0 0 -6.3717 29.272 38.164)">
   <path d="M 0,0 -0.078,0.127 C -0.145,0.046 -0.096,0 0,0" fill="#920f14"/>
  </g>
  <g transform="matrix(6.3717 0 0 -6.3717 26.285 41.685)">
   <path d="m0 0 0.039-0.044z" fill="#920f14"/>
  </g>
  <g transform="matrix(6.3717 0 0 -6.3717 26.316 42.905)">
   <path d="m0 0c-0.153-0.13 0.122-0.096 0 0" fill="#920f14"/>
  </g>
  <g transform="matrix(6.3717 0 0 -6.3717 29.844 42.986)">
   <path d="m0 0c-0.166-0.132 0.176-0.089 0 0" fill="#920f14"/>
  </g>
  <g transform="matrix(6.3717 0 0 -6.3717 24.157 44.147)">
   <path d="m0 0c-0.082-0.161 0.267-0.018 0 0" fill="#920f14"/>
  </g>
  <g transform="matrix(6.3717 0 0 -6.3717 5.3408 44.392)">
   <path d="m0 0 0.053-0.106z" fill="#920f14"/>
  </g>
  <g transform="matrix(6.3717 0 0 -6.3717 24.78 45.979)">
   <path d="m0 0-0.054 0.106z" fill="#920f14"/>
  </g>
  <g transform="matrix(6.3717 0 0 -6.3717 -21.228 53.981)">
   <path d="m0 0c-0.115-0.071 0.023-0.136 0.105-0.1 9e-3 0.098-0.013 0.091-0.105 0.1" fill="#920f14"/>
  </g>
  <g transform="matrix(6.3717 0 0 -6.3717 -25.572 55.247)">
   <path d="m0 0-0.066 0.024z" fill="#920f14"/>
  </g>
  <g transform="matrix(6.3717 0 0 -6.3717 17.761 55.34)">
   <path d="m0 0v-0.044z" fill="#920f14"/>
  </g>
  <g transform="matrix(6.3717 0 0 -6.3717 -108.63 71.833)">
   <path d="m0 0-0.172 0.132-0.182 0.195c-0.102-4e-3 -0.197-0.036-0.294-0.034-0.131 4e-3 -0.12 0.095-0.153 0.201l-0.222 0.044c-0.127-0.044-0.254-0.239-0.403-0.204-0.166 0.035-0.26 0.132-0.431 0.024l-0.248-0.07-0.159 0.116c-0.054-0.059-0.015-0.196-0.127-0.17-0.097 0.024-0.174 0.087-0.275 0.107-0.094-0.02-0.277-0.094-0.359-0.02l-0.138 0.139c-0.106 0.034-0.217 6e-3 -0.325 0.022-0.106 0.013-0.118 0.095-0.2 0.14l-0.156-0.084-0.07 0.096-0.193 0.027c-0.139-0.019-0.314-0.054-0.429-0.14l-0.13-0.152-0.072-0.096c-0.158-0.026-0.11 0.039-0.091 0.156 0.02 0.128-0.013 0.133-0.126 0.092l-0.132-0.159c-0.11-4e-3 -0.148 0.107-0.262 0.033l-0.187-0.033-0.118-0.011-0.114-0.01c-0.07-0.083-0.228-0.068-0.329-0.081-0.139-0.015-0.239-0.049-0.348 0.05l-0.2 0.039-0.238-4e-3 -0.074-0.072-0.138 0.015c-0.083 0-0.094 0.111-0.204 0.113l-0.13-8e-3 -0.107 0.067-0.214-0.098c-0.098-0.045-0.219-4e-3 -0.318 7e-3 -0.123 0.017-0.223-0.035-0.342-0.041-0.123-9e-3 -0.169 0.097-0.283 0.125-0.123 0.029-0.15 0.044-0.193 0.154l-0.215 0.107-0.287 0.049-0.048 0.196c-0.082 0.03-0.164 0.041-0.186 0.138l-0.068 0.257c-0.181-0.196-0.071-0.502-0.047-0.732 0.017-0.127-0.065-0.23-0.087-0.351-0.02-0.115 0.055-0.269 0.18-0.271 0.124-4e-3 0.254-0.041 0.376-0.011 0.09 0.022 0.092 0.059 0.186 0.046 0.182-0.024 0.364-0.053 0.542-0.095l0.167 8e-3c0.123 0.017 0.25 4e-3 0.371-2e-3 0.15-9e-3 0.291-0.037 0.436-0.035 0.181 6e-3 0.36-0.032 0.539-0.022 0.324 0.018 0.644-0.017 0.969-0.01 0.167 0.022 0.314 0.063 0.474-5e-3 0.135-0.059 0.26-0.026 0.406-0.038 0.242-0.016 0.477 0.045 0.722 0.023 0.19-0.017 0.39-0.037 0.579-0.03l0.244-7e-3 0.133-0.051c0.098-0.014 0.201 0.056 0.297 0.081 0.099 0.029 0.252-0.051 0.349-0.081 0.131-1e-3 0.272 6e-3 0.402-0.016 0.239-0.047 0.485-0.033 0.725-0.017 0.243 0.017 0.454 0 0.688-0.065 0.115-0.027 0.244-0.085 0.366-0.066 0.113 0.015 0.21 0.039 0.327 0.024 0.168-0.024 0.393-0.06 0.541 0.04 0.143 0.097-2e-3 0.24-0.07 0.346l-0.125-0.017" fill="#920f14"/>
  </g>
  <g transform="matrix(6.3717 0 0 -6.3717 -111.24 65.899)">
   <path d="m0 0-0.145 0.143-0.152-0.082 0.107-0.117c0.067-0.014 0.208-0.061 0.19 0.056" fill="#920f14"/>
  </g>
  <g transform="matrix(6.3717 0 0 -6.3717 -135.56 67.15)">
   <path d="m0 0c0.105 0.065-0.02 0.143-0.089 0.15-0.065-0.015-0.044-0.233 0.089-0.15" fill="#920f14"/>
  </g>
  <g transform="matrix(6.3717 0 0 -6.3717 -111.15 69.409)">
   <path d="m0 0c0.093-6e-3 0.165 7e-3 0.2 0.102 0.043 0.119-0.022 0.202-0.144 0.2-0.071-0.089-0.202-0.068-0.21-0.189-6e-3 -0.111 0.056-0.106 0.154-0.113" fill="#920f14"/>
  </g>
  <g transform="matrix(6.3717 0 0 -6.3717 -117.02 69.08)">
   <path d="m0 0c0.05 0.095-0.018 0.126-0.101 0.136-0.102-0.084-4e-3 -0.158 0.101-0.136" fill="#920f14"/>
  </g>
  <g transform="matrix(6.3717 0 0 -6.3717 -105.16 73.12)">
   <path d="M 0,0 C -0.051,-0.097 0.003,-0.292 0.118,-0.173 0.227,-0.067 0.105,0.003 0,0" fill="#920f14"/>
  </g>
 </g>
</svg>
