<svg width="800" height="394.56" version="1.1" viewBox="0 0 211.67 104.39" xmlns="http://www.w3.org/2000/svg">
 <g transform="translate(-57.043 125.56)" fill="#920f14">
  <path d="m115.11-122.4 0.66389-0.62607 0.73409 0.2298 1.6404 0.10857 0.8043 0.85587 1.8576 0.12666 0.79145-0.35103 0.60001 0.5175 0.70858 0.47226 0.36388-0.75273c0.86166-0.0128 1.7235-0.0181 2.5789-0.0362l0.42124-0.33112 0.86817 0.10856c0.88736 0.35827 1.7364-0.24246 2.7002-0.20446 0.60635 0.0181 2.5661-0.45237 1.5192-1.4114l-1.149-0.18095c-0.65755 0.0362-1.3341 0.0362-1.9916 0.0362-0.75327-6e-3 -1.449-0.2678-2.2022-0.2678-0.67022 0-1.4043 0.0905-2.0554-0.0543-1.2-0.26237-2.3937-0.1918-3.6002-0.38903-1.449-0.23523-3.0832-0.0181-4.5513-0.0129-0.59368 7e-3 -1.0149-0.3257-1.6404-0.25513l-1.3851 0.26237-1.4172-0.34561c-0.65104-0.0362-1.398 0.14476-2.049 0.21714-0.70225 0.0724-1.1362-0.18095-1.8129-0.0362-0.61919 0.12666-1.0278 0.0181-1.6404-0.0905-1.4106-0.25514-2.8916-0.0724-4.3151-0.10857-1.0915-0.0362-2.3682-0.4017-3.4342-0.28046l-1.1618 0.1918-1.3404-0.12666c-0.9192 0.10856-1.8512 0.0362-2.7448-0.24971l-1.0788 0.14476h-1.4106l-0.84266-0.18457-1.1682 0.16285c-0.61919-0.2877-1.1553-0.27503-1.832-0.29313l-1.3725 0.24971-0.63204-0.0362-0.97674-0.10857-0.82981 0.0724c-0.98307 0.14476-1.9852 0.1918-2.9746 0.19723-0.58716-0.0181-1.2192-0.12666-1.7745 0.0724l-0.94471-0.0181c-1.8639-0.33113-3.5428 0.2298-5.4067 0.3257-2.081 0.10857-4.1683-0.0362-6.2365-0.25513-0.74676-0.0724-1.5511 0.12666-2.3108 0.16285-0.75961 0.0362-1.5192 0.0543-2.2725 0.0905-0.69573 0.0181-3.4981-0.42703-3.5938 0.35104-0.08866 0.6894 0 1.3842 0.0064 2.081l-0.04524 1.1689 0.10133 0.66407-0.0199 0.66407 0.12847 1.073c-0.038 0.66407-0.04524 1.3209-0.0579 1.9788-0.03257 1.3462 0.51063 2.6108 0.18511 3.945-0.16647 0.71473-0.47245 1.0911-0.03257 1.7552l0.82981 0.18095c0.36388-0.56817 0.31285-1.187 0.26165-1.8256-0.06333-0.75273 0.076-1.0983 0.38306-1.7624l0.27449-1.7172c0.37655-0.67673 0.24898-1.0784 0.114-1.8321 0.35103-0.54826 1.1362-0.63149 1.0213-1.3336-0.08866-0.53017-0.42124-0.63873-0.05067-1.225l0.90002-1.1743c0.30634-0.54283-0.27449-0.88662 0.40857-1.1689 0.58735-0.23523 1.0659-0.3637 1.5255 0.18095l0.93205 0.84863 1.2321 0.18456 0.88084 0.5356 1.4043-0.14476 1.2831-0.91377c0.60001-0.27504 1.3916-0.33113 2.0363-0.42703l1.347 0.0181 1.0596-0.0724 0.51063 1.1291 0.83615-0.6514 0.61919 1.4548 1.2957 0.75273 1.1682 0.0905 0.77879 0.10857 0.79797-1.1816c0.69573-1.2757 1.6278-0.24971 2.4257 0.22256l1.5511-0.31303 0.93838-0.4976 1.3851-0.10857c0.60635-0.40893 1.2576-0.2099 1.9724-0.2099 0.93186 0 1.8639 0.14476 2.7895 0.24971 0.8043 0.10857 1.8256-0.14476 2.0427 0.81063l0.1719 1.998 0.84899-0.10856 0.60635-0.34561c0.53614 0.35827 0.91287 0.4795 1.4937 0.0181l-0.05067-1.7172c0.10857-0.46503 0.41491-1.2449 0.98941-1.3028 0.12847 0.4976 0.1719 1.7045 0.76594 1.7045l0.52347-1.2901c0.79797 0 0.54899 0.91377 0.62553 1.4168l1.1235 0.29313-0.0959-1.2196c-0.10857-0.62607 0.03257-0.70206 0.61919-0.7853l0.91287 0.0905 1.4682-0.6134c0.65755-0.16285 1.449-0.0129 2.0618 0.24971l0.90636-0.38361c0.23613 0.6134 0.24264 0.5356 0.8745 0.37637l0.849 0.35103 0.96389-0.12666c0.78512-0.23704 1.5958 0.20989 2.381 0.2497 0.72776 0.0362 0.82981-0.53017 1.4808-0.62607l1.5065-0.10856 0.45327 0.21713 1.1937 0.21713"/>
  <path d="m168.57-121.08 0.37655 0.21713c0.63837-0.0543 1.2766-0.1918 1.9086-0.29313 0.84899-0.14476 1.9022 0.25513 2.6491-0.16285 1.2576-0.8613-1.9661-0.83597-2.2533-0.8613-1.4106-0.12666-2.8406-0.12666-4.2577-0.20447-1.1172-0.0724-2.0746-0.40893-3.1598-0.16285l-1.0788-0.26779-0.53614 0.16285c-0.70858-0.0543-1.2064 0.0362-1.8895 0.12666-1.0596 0.12666-2.1193-0.48493-3.2108-0.35104-2.1959 0.27504-4.3598 0.0362-6.5748-0.10856-1.6086-0.0905-3.2491 0.0181-4.8513-0.14476-1.1808-0.12666-2.5852-0.48493-3.7662-0.38903-0.70225 0.0543-1.2384 0.27504-1.9597 0.14476-0.67673-0.10857-1.3341-0.0905-2.0171-0.0905-0.68307 0-1.232 0.21714-1.8958 0.12667-0.67655-0.0724-1.3533-0.14476-2.0363-0.18095-0.55532 0.0181-1.7043-0.20447-1.7043 0.4976l0.93838 0.70206 1.6086-0.16285 1.4553 0.14476 0.86817-0.30037 0.58735 0.2877c0.62552 0.3637 1.6149 0.37094 2.3108 0.46684 0.82981 0.10857 1.5958 0.20447 2.4256 0.18457 0.58084-7e-3 1.1937-0.0905 1.7554 0.0724l1.3596 0.10857 1.3023 0.10857c0.62552 0.53559 0.92553 0.37093 1.6596 0.0905 0.5745-0.21713 1.098-0.16285 1.6916-0.0362l1.647-0.0129c0.61286 0.29313 1.4363-0.3456 2.1129-0.0724 0.78511 0.31846 1.347-0.46684 2.1256-0.22257 0.64471 0.1918 1.0341 0.29313 1.6788 0.0724 0.51696-0.18094 1.1808 0.2877 1.7619 0.29313 0.61919 0.0129 1.251-0.22256 1.8448-0.0362 1.3851 0.40894 2.7895-0.0362 4.1875 0.38903 0.87451 0.28047 1.2958 0.14476 2.1512-0.12666h0.78512"/>
  <path d="m177.83-122.11c-0.72776 0.18456-0.14657 0.9771 0.44042 0.8993l0.30634-0.6894-0.74676-0.2099"/>
  <path d="m182.88-121.07 0.2298-0.6695-0.64471-0.31303c-0.62552-0.12666-1.2894-0.0905-1.9214-0.0724-0.86166 0.24971-0.14656 0.8812 0.36388 0.98253 0.64471 0.12666 1.3214 0.0905 1.9724 0.0724"/>
  <path d="m118.01-117.91 0.19795 0.77263c0.32552 0.45236 0.54266 0.92644 1.1874 0.60617 0.10133 0.7473 0.42758 0.89929 1.066 0.36369l1.4043-0.43969c0.63204-0.0181 0.88735-0.10857 1.1553-0.67673l0.9192-0.40894c0.076-0.69664-0.21062-1.947-0.67655-2.5023l-0.81715-0.48494-0.67655-0.2298-0.21062-0.7853c-0.8043 0.5356 0.26165 0.63874-0.0199 1.2069l-1.3149-0.16285c-0.4596 0.39626-0.81063 0.60073-0.51696 1.2503l-0.10133 0.33113-0.46593-0.3257-1.3725-0.42703-0.37655 1.462 0.61919 0.45236"/>
  <path d="m117.27-121.28-0.27449 0.79797 0.65104 0.40893z"/>
  <path d="m235.21-120.66c-0.76594-0.12666-1.5511-0.14475-2.3171-0.2497-1.232 0.14476-0.0832 1.0332 0.31918 1.3462l1.1808 0.14475 1.0404-0.40893-0.22346-0.83597"/>
  <path d="m97.03-120.36c-0.44042 0.2298-1.1043 0.94453-0.20429 1.0332 0.93205 0.0905 1.1937-1.0079 0.20429-1.0332"/>
  <path d="m239.82-119.41c0.0199-0.8432-0.52348-0.7853-1.2255-0.84863-0.71491-0.0724-1.4427-0.10857-2.1639-0.0905l-0.54898 1.5833c-0.038 0.81063 0.2298 0.98253 0.98307 0.91196 0.78512-0.0724 0.93186 0.0129 1.0278 0.79073l0.47244 0.95177-0.26816 1.3842 0.52348 1.3607c0.14113 0.6894 1.0788 1.2576 1.0278 0.24971-0.11399-2.0809 0.12123-4.2001 0.1719-6.2875"/>
  <path d="m234.85-118.78c-0.63204 0.37637-0.0633 1.386 0.49145 0.96444 0.57449-0.4397 0.0452-0.9771-0.49145-0.96444"/>
  <path d="m62.643-75.644c0.50429 1.0205 1.998 1.424 3.0321 1.5254 0.77245 0.09047 1.5065-0.14476 2.2725-0.09047 0.59368 0.03619 1.1682 0.18094 1.7553 0.25513 1.0725 0.12666 2.132-0.10857 2.598-1.1816 0.47878-1.0911 0.36388-2.4002 0.40857-3.5619 0.05066-1.0983 0.0199-2.1513-0.12123-3.2427-0.1719-1.2956-0.48511-2.7831-0.22347-4.0599l0.3447-1.7045-0.07057-1.4801c0.076-0.81063 0.81715-0.77263 1.2576-1.2702l1.6149-0.27504c1.1808-0.10857 2.3044 0.41436 3.4725 0.4976 2.5852 0.1918 3.2491-1.7497 3.2044-3.9258-0.01278-0.60074-0.04524-1.1942-0.038-1.7932 0.01277-0.60074 0.35755-1.1291 0.35103-1.7226-0.0064-0.60616-0.52981-1.0603-0.82981-1.5326l-1.4937-0.60074c-0.74676-0.37094-1.2576-0.4017-2.1001-0.4216h-1.0023l-0.71491 0.12666c-1.0404-0.20446-2.0554 0.33113-2.7704-0.79796-0.58083-0.90654-0.49145-2.1384-0.50429-3.1662-0.01276-0.90654-0.19795-1.9341 0.50429-2.6362 1.3851-1.386 4.0726-0.7473 5.7897-0.60616l0.65755 0.40169 0.68307 0.10857 1.6788 0.0181c0.62553-0.0181 0.93187 0.0181 1.3725-0.40894l1.1363-1.073c0.90635-0.98977 0.60635-1.9533 0.30001-3.1278l-0.0064-0.85587-0.28716-0.6514 0.30634-1.3535c0.10133-0.66406-1.4235 0.6134-0.84899-0.3836l0.44042-1.1363c-0.61919-0.71474-1.7937-0.92463-2.6938-0.97711-0.75961 0.25514-1.3278 0.0181-2.1129 0.0181-0.59368 6e-3 -1.1682 0.0543-1.7619 0.0127-1.2831-0.0724-2.5597-0.28047-3.8428-0.28047-1.5192-6e-3 -3.0002 0.30037-4.5258 0.24247-0.67673 0.0905-1.1618 0.12666-1.8129-0.0905-0.54265-0.18456-1.0725-0.37636-1.647-0.40893l-1.1618 0.43427-1.0023 0.76539c-0.64471 0.4976-0.5745 1.8004-0.60001 2.5343-0.04524 1.2449-0.12123 2.4894-0.15923 3.7342-0.04524 1.7226 0.35755 3.4278 0.21695 5.1513 0.04524 1.4041-0.1538 2.7768-0.12847 4.1874 0.0199 1.4548 0.04524 2.8982 0.04524 4.3535 0 0.8034-0.19144 1.576-0.1719 2.3937 0.0199 0.8432 0.1339 1.6846 0.15923 2.5341 0.05067 1.6466-0.01279 3.3258-0.1339 4.9662-0.19144 2.5343 0.39573 5.2472-0.53614 7.6601-0.33837 0.87396-0.74676 1.9725-0.30001 2.8788"/>
  <path d="m98.613-116.24c0 0.96444 0.51063 0.18095 0 0"/>
  <path d="m89.992-85.375-0.16647-0.87396z"/>
  <path d="m90.658-87.916c1.5768 0.12666-0.37655 0.75273 0 0"/>
  <path d="m91.034-86.917 0.37655 0.37636z"/>
  <path d="m107.57-73.755 0.0452 0.16285z"/>
  <path d="m107.48-76.921-0.44693 0.85587c-0.77246 0.01303 0.29367-0.7473 0.44675-0.85587"/>
  <path d="m104.9-113.91c1.1618 0.46684-0.97674 1.3915 0 0"/>
  <path d="m102.36-88.916 0.21062 0.4596z"/>
  <path d="m97.78-85.792c0.58083 0.42703-0.38939 0.77806 0 0"/>
  <path d="m98.53-108.16c0.92553 0.35103-0.28083 0.70206 0 0"/>
  <path d="m98.571-107.03 0.07057 0.46503z"/>
  <path d="m99.798-87.217-0.0579 0.81787 0.4149-0.2678-0.69573 0.98253-0.86817-0.33837 0.29367-1.1743-0.90002-0.30037c-0.26816-1.0911-0.94471 0.73464-1.3086 0.42703l0.23613-0.96986 0.70225-0.7274-0.54899-0.83054c-0.61919-0.14476-0.03257-0.7093 0.12847-0.35103l0.55532-0.10857 0.26165-1.1436-0.44042-0.65683 0.14657-0.58807 0.56183-1.6412c0.076-1.0024 0.04524-2.049 0.41491-2.9874 0.26165-0.6695 0.44042-2.0172 0.9192-2.4321 0.60635 0.05428 0.5745 0.3637 0.54265 0.95177l-0.11399 1.073c-0.05791 0.87396 0.58083 1.4801 0.56816 2.3108-0.038 2.1766 0.0326 4.315 0.23614 6.4791 0.0959 0.98253-0.12124 1.2576-1.0469 1.4675m11.496 9.1793c-0.20429-1.2702-0.62553-2.5023-0.75327-3.7854-0.1339-1.4041-0.19144-2.8086-0.35104-4.2193-0.20428-0.60616-0.63837-1.0983-0.82981-1.7045 0-0.81063 0-1.5706-0.1339-2.3682-0.49144-2.8213-0.65755-5.6811-1.0212-8.5281-0.19144-1.5-0.42757-2.9619-0.55532-4.4748l-0.28716-0.41437-0.0832-0.96443-0.12124-1.3842-0.75327-1.9404v-2.2533c0-0.69663-0.21062-1.2576-0.19144-1.9598 0.0199-0.6894-0.076-1.2449-0.39573-1.8702l-0.35103-0.66407-0.39572-0.83596-0.5745-0.18095-0.54899 0.75997 0.0326 0.74006-0.076 0.47227c-0.49162-0.58083-0.77878-0.73464-0.36388-1.424 0.25532-0.41436 0.22347-1.1562-0.24898-0.52293l-0.88735 0.61341-1.2065 0.39627-0.12123 1.7099-1.1235 0.7654-1.3149 0.83054 0.43409 0.25513-0.08324 0.58083 0.49796-0.66407 0.85532-0.0181c0.56817 0.84863-0.42775 1.2648-1.1427 1.3915-0.28083 0.4216 0.12847 0.89387-0.49145 0.98977-0.60001 0.0905-0.63837-0.20447-0.81715-0.68397-0.24898-0.6894 0.28083-0.27504 0.22347 0.1918 0.26165 0.14476 0.89369 0.54284 0.58735-0.0905l-0.19795-0.93187c-0.52347-0.30579-0.59368-0.76539-0.53614-1.3788l0.19144-0.25513 0.41491-0.35103-0.47878-0.0181-0.96389 0.0362-0.55532-0.60616c0.76594 0.0724 0.94471 0.84863 1.6086 0.0543l-0.07057-1.3408c-0.40206-0.0905-2.6938 0.14476-2.0682-0.75997 0.33837-0.50483 0.69573 0.4017 0.83615-0.38903l-0.92553-0.56816c-0.61919 0.58807-1.5384 0.64416-1.7682 1.5127-0.21062 0.79072-0.43409 1.9725-0.0579 2.7513l0.90002 0.28046-0.67022 0.70207-1.2129 0.87396c-0.22347 0.56817-0.24898 1.2069-0.40857 1.7932-0.35755 1.3082-0.8043 2.6107-0.86166 3.9768l-0.14114 1.1617-0.19795 0.4017-0.10133 1.3535c0.1158 0.43426 1.1106 1.9404 0.12123 1.7226l-0.58735 0.2298-0.18511 0.90653c-0.14656 0.77806-0.28734 1.5579-0.43409 2.3364-0.27449 1.5055-0.66389 2.9809-0.96389 4.4746-0.32552 1.5959-0.56817 3.2045-0.86166 4.8068-0.12847 0.71473-0.28083 1.4114-0.33837 2.1384-0.06333 0.6695 0 1.4494-0.36388 2.0298-0.73409 1.1816-0.49145 2.796-0.93205 4.0917-0.30634 0.9192-0.70225 1.9341-0.53614 2.9235 0.27449 1.5887 2.2788 2.0172 3.6321 2.0682 0.96389 0.03619 1.9342 0.01809 2.898-0.01809l1.7298-0.19723c0.47878-0.45236 1.1363-0.84863 1.1427-1.5706l0.33837-1.4114c0.23613-0.68216 0.52981-1.8192 1.2576-2.1447 0.79797-0.35827 1.8129-0.35827 2.6618-0.2678 0.77879 0.09047 1.5639 0.18094 1.232 1.0658-0.36388 0.9771 0.58735 2.8598 1.066 3.696 0.58083 1.0079 1.4553 1.1689 2.5725 1.1164 1.3851-0.07238 2.7129 0.2298 4.0981 0.18094 1.1427-0.03619 2.1129-0.24247 2.3044-1.5254 0.17189-1.1942 0.19777-2.515 6e-3 -3.7023"/>
  <path d="m96.24-89.249c1.1363 0.28046-0.20429 0.91196 0 0"/>
  <path d="m96.073-100.54-0.04524 0.54284z"/>
  <path d="m93.531-85.584c0.71491 0.23523 0.0199 0.73464 0 0"/>
  <path d="m93.795-87.804-0.01277-0.81606 0.66389 0.5356z"/>
  <path d="m93.865-100.62 1.2065 0.24789c-0.54899 0.37094-0.47245 0.38904-0.37655 0.9952 0.0579 0.33837-0.37655 0.81606-0.44042 0.24247l-0.31919-0.93911c-0.27449-0.31303-0.66389-0.3257-0.07057-0.54826"/>
  <path d="m92.949-100.04c0.4596 0.10857 1.1106 1.0079 0.32552 1.0658l-0.82348-0.27504 0.49796-0.79073"/>
  <path d="m137.54-105.08c-0.0326-0.68216 0.0199-1.3842-0.22347-2.0362-0.2298-0.60616-0.21062-1.424-0.64471-1.8959l-0.5298-0.6514-0.31919-0.62607c-0.58083-0.40893-0.68306-0.88663-0.93186-1.538l-0.66389-0.62607-0.39573-0.52293-1.3533-0.64416-0.74676-0.83054-1.2129-0.33112-1.7809-0.19723-1.8448-0.20447-0.9192 0.20447c-0.60634 0.0905-1.0404-0.53017-1.6213-0.5935 0 0.7473-1.232 0.44693-1.7043 0.79073l-1.0022 0.54283-0.71491 0.51026-0.78512 0.81606-1.1235 0.58807-0.81715 0.97711-0.60001 0.58807c-0.93205 1.3281-1.7619 2.7831-2.215 4.347-0.23613 0.81064-0.15923 1.6593-0.15923 2.5023-0.30634 0.67673-0.28082 1.3408-0.21695 2.081 0.076 0.86854 0.22347 1.7425 0.10857 2.6107l-0.45327 0.75997 0.15923 0.89387-0.23613 1.0404-0.0507 1.0531 0.16647 1.4168c0.1719 1.2123 0.31286 2.4639 0.24265 3.6896-0.0326 0.63874-0.14656 1.2757-0.21695 1.9086l-0.16647 1.5634-0.66389 0.63874 0.66389 0.9572 0.14656 1.4675c0.114 1.1164 0.2298 2.2278 0.38306 3.3384 0.14657 1.111 0.26183 2.2215 0.55532 3.3066l0.48512 1.7045 0.69573 0.90653c0.85532 0.38903 1.7619 0.6315 2.6427 0.94453 0.5745 0.19723 1.1106 0.28046 1.7106 0.37094l0.89368 0.56093c0.56817 0.35103 1.5384 0.27504 2.215 0.3438 0.82981 0.09047 1.7809 0.20447 2.598 0.03619 0.4596-0.10857 2.5533 0.52293 1.832-0.52293l-0.58083-0.10857 0.72776-0.20447 0.74043 0.8613 0.28082-0.62607 0.70225-0.19723 0.40206 0.5935c1.0725 0.2678 1.5384-0.58083 2.132-1.2956l1.3023-1.2377 0.63838-1.187c0.97022-1.4675 1.4235-3.2109 1.7682-4.9152 0.43409-2.1064 1.1874-4.5513 1.0915-6.7281-0.0253-0.63874-0.3894-1.1942-0.60635-1.7805l-0.14114-0.9192-0.37654-0.54283-0.87451-0.33113-0.54265 0.20447-0.87451-0.2497-0.58083 0.2099c-0.61919-0.37636-0.88084 0.01285-1.5321-0.14476l-1.6278-0.18094c-1.1682-0.27504-1.9086 0.10857-2.4831 1.1997-0.47878 0.91196-0.39573 1.9851-0.37021 2.9809 0.0326 1.2775-0.18511 2.4639-0.32552 3.7215-0.0706 0.56093 0.25531 1.538-0.42757 1.7497l-1.2321 0.6315c-0.84266-0.03619-1.9916-1.3589-2.0044-2.1129-0.0507-2.949-0.29367-5.9109 0.0253-8.8473 0.14114-1.3082 0.42124-2.6172 0.51063-3.9321 0.0959-1.3209-0.24265-2.63-0.1719-3.9513 0.0452-0.86129 0.14114-1.6918 0.14114-2.5598 0-0.68216 0.32552-1.2956 0.61919-1.9021 0.31286-0.64417 0.37022-1.2576 1.1553-1.1617l1.5066 0.52293c0.55532 0.47951 0.55532 1.6412 0.61286 2.298 0.0633 0.7853 0.12847 1.6339-0.0326 2.4066-0.18511 0.88663-0.52981 1.8127 0.0887 2.6107 0.47878 0.6134 1.1874 1.3209 1.9214 1.6213 1.3661 0.56093 3.3193 0.5935 4.7556 0.3836l0.97674-0.31846 1.0725-0.03619c0.90002-0.14476 1.0596-2.3745 1.0915-3.096 0.0633-1.3155-0.12123-2.6298-0.36388-3.9193-0.10857-0.58807-0.27449-1.1617-0.30001-1.7624"/>
  <path d="m117.06-82.627c1.5768 0.35103-0.39573 1.0603 0 0"/>
  <path d="m118.48-82.211v-0.16285z"/>
  <path d="m133.43-89.29-0.0452 0.16285z"/>
  <path d="m130.48-76.962c0.60634 0.07238 0.37021 0.9572-0.12847 0.9572l0.12847-0.9572"/>
  <path d="m129.35-76.962c0.70858 0.09047 0 0.8233 0 0"/>
  <path d="m164.02-113.49c-0.42757-0.40894-0.53613-0.4596-1.1235-0.4596l-0.97023-0.0362c-1.3404-0.21714-2.6874-0.37094-4.047-0.37094l-1.5 0.0362-1.4043-0.31846c-0.85532 0.0127-1.7043 0.0181-2.5533 0.0362-1.6404-0.10857-3.2938-0.14476-4.9152-0.41437-0.44042 0.4976-1.6149 0.38903-2.2086 0.37094l0.12847 0.54283-1.4235-0.58807c-0.77879-0.12666-1.2768 0.3637-1.8767 0.75997l-0.66388 0.77264-0.038 1.2196c6e-3 0.73464-0.19796 1.3734-0.3894 2.0619-0.37021 1.3661-0.28734 2.2662 0.3894 3.4917l1.0788 1.0983c0.64471 0.28771 1.449 0.0724 2.1256 0.0362 1.0469-0.0724 1.8576 0.35827 2.8023 0.75997l0.4596 0.95177c0.1339 0.9572 0.25531 1.9149 0.35103 2.8725l-0.3 0.64416-0.12848 1.3915c-0.10132 1.3915-0.0579 2.7831-0.0579 4.1748 0 3.0703 0.0887 6.1983-0.10856 9.2622-0.0579 0.8812-0.3447 1.6719-0.36388 2.547-0.0129 0.75997-0.0326 1.5199-0.0452 2.2725-0.0253 1.3408-0.0507 2.6937-0.0959 4.0342-0.0199 0.60616-0.3447 1.3082-0.0507 1.8959 0.70858 0.35646-0.21695 0.58626 6e-3 1.2322 0.35755 1.0079 1.1235 1.4367 2.132 1.6285l1.7363 0.1918 1.4362-0.37636 0.81063-0.18094 0.62553 0.62607 1.2-0.0181 1.1362-0.65683 0.79796-1.1363 0.35103-1.3535c-0.34469-0.50484-0.28082-0.98253-0.19143-1.5706 0.21695-1.5254 0.0507-3.1852 0.0959-4.7364 0.0452-1.4747-0.0452-2.9554 0.0452-4.4364 0.17914-2.8725 0.076-5.7577 0.40224-8.6302 0.14657-1.2648 0.14114-2.6619 0.0579-3.945l-0.2298-1.462-0.95755-1.3336 0.90001 0.0181 0.23614-1.3716-0.3447-1.3082 0.6447-0.33837-0.10133-0.7473c0.55532 0.10857-0.12847 0.54826 0.58717 0.21713l1.0915-0.26237c0.58735-0.0127 1.1553 0.16285 1.7298 0.2678 0.59368 0.10857 1.5576 0.24247 2.0299-0.2298l1.1235-0.81063c0.4149-0.9771 0.49796-2.3108 0.5745-3.3641 0.0887-1.149 0.11399-2.3617-0.12847-3.4917-0.14114-0.6514-0.3894-0.98976-0.86818-1.4494"/>
  <path d="m144.88-109.37-0.16647-0.9192z"/>
  <path d="m147.3-112.74 0.16647 0.70931c-0.5745 0-0.36388-0.31304-0.16647-0.70931"/>
  <path d="m146.34-110.62c0.98941 0.14475-0.13389 0.98253 0 0"/>
  <path d="m146.22-109.53-0.29367-0.0905z"/>
  <path d="m145.47-112.78c0.70857 0.3058 0.19795 0.52293 0 0"/>
  <path d="m145.68-108.74-0.54265-0.4596z"/>
  <path d="m145.47-106.53-0.29368-0.41436z"/>
  <path d="m146.09-107.16-0.66389-0.79073z"/>
  <path d="m146.22-107.78-0.0452-0.62606c0.3894 0.1918 0.62553 0.62606 0.0452 0.62606"/>
  <path d="m146.8-105.12-0.12847-0.37636z"/>
  <path d="m147.01-108.7 0.29368 0.0362z"/>
  <path d="m146.43-111.91c0.58083 0.12666 0.96389 0.44694 1.0851 1.0404l-1.0851-1.0404"/>
  <path d="m156.17-112.95 0.29367 0.37637z"/>
  <path d="m155.51-111.49-0.16647 0.2099z"/>
  <path d="m155.22-106.03-0.29367-0.2497z"/>
  <path d="m154.88-106.28-0.12847-0.0905z"/>
  <path d="m154.42-107.74 0.0832 0.12666z"/>
  <path d="m154.26-105.03-0.95756-1.0857z"/>
  <path d="m154.38-103.41-1.0851-0.87396z"/>
  <path d="m153.05-107.53-0.21062-0.33113z"/>
  <path d="m153.17-101.99-1.3341-1.3716z"/>
  <path d="m152.38-107.53 0.29367 0.0362-0.12847 0.41436z"/>
  <path d="m152.84-104.99-0.58083-0.79073z"/>
  <path d="m152.01-112.49c0.50429 0.33837 0 0.5935 0 0"/>
  <path d="m152.59-104.04c-0.65104-0.21171-1.9022-1.2956-1.915-2.0427 0.58716 0.0724 0.74675 0.6315 1.1427 1.073l0.77245 0.96987"/>
  <path d="m151.01-104.28 0.40857 0.5356z"/>
  <path d="m150.76-103.24c0.86166 0.40894 0 0.6514 0 0"/>
  <path d="m150.3-107.74c0.58717 0 1.4937 1.1237 1.5831 1.6665l-1.5831-1.6665"/>
  <path d="m150.76-108.66 0.41491 0.0362c-0.21695 0.6514-0.83615 0.16285-0.41491-0.0362"/>
  <path d="m150.18-113.7c0.62552 0.16285 0.39572 0.53017 0 0"/>
  <path d="m150.3-106.58c0.76594 0.14476-0.5298 0.69664 0 0"/>
  <path d="m150.01-108.32v0.21171z"/>
  <path d="m149.18-106.62 0.0452 0.2479z"/>
  <path d="m148.55-109.78c0.55532 0.14475 0.17189 0.86129 0 0"/>
  <path d="m148.55-113.24-0.16647-0.16285z"/>
  <path d="m148.43-108.66 0.29368 0.4976z"/>
  <path d="m148.84-72.173-0.16647-0.37636z"/>
  <path d="m149.09-102.83 0.24898 0.37637z"/>
  <path d="m149.18-105.08 0.16647 0.2099z"/>
  <path d="m150.18-105.24-0.37655-0.62607 0.86818 1.3336z"/>
  <path d="m150.58-101.79c-0.1719-0.73464 0.73409-0.3637 1.0086-0.70931l1.5384 1.8321-0.66388-0.33113 0.0832 0.79073-0.96389-0.6894-0.78512 0.0181 0.0452-0.56816-0.26183-0.35104"/>
  <path d="m150.72-73.173 0.62553-0.66407z"/>
  <path d="m151.22-99.203 0.12847-1.0404 0.99574 1.0404z"/>
  <path d="m152.38-72.173-0.21062-0.9572 1.0022 0.2099z"/>
  <path d="m152.84-99.829 0.79146 0.79073z"/>
  <path d="m153.22-101.91 0.37655 0.2497z"/>
  <path d="m153.26-103.08c0.70858 0.14476 1.9405 1.4421 1.832 2.1639-0.56816-0.2298-1.6725-1.576-1.832-2.1639"/>
  <path d="m154.42-100.45 0.70858 0.7473z"/>
  <path d="m154.13-99.453c0.76594 0.19723-0.15381 0.7274 0 0"/>
  <path d="m154.01-98.204-0.0452-0.37636z"/>
  <path d="m154.59-74.089c0.95104 0.2678-0.89369 1.0205 0 0"/>
  <path d="m155.05-98.204-0.21062-0.62607z"/>
  <path d="m154.89-102.32-0.21695-0.67673 0.62553 0.91196z"/>
  <path d="m155.92-98.289-0.4596-0.62607 0.70858 0.18094z"/>
  <path d="m157.17-98.62-1.749-1.998c0.60634 0.12666 0.50429 0.59349 0.95104 0.98976l0.79797 1.0079"/>
  <path d="m156.51-100.74-1.1682-1.1237 0.50429 0.41436 0.91287-0.41436z"/>
  <path d="m156.8-110.07c0.36388 0.0905-0.0959 0.5754 0 0"/>
  <path d="m157.63-112.91c0.87451 0.12666-0.0706 0.65683 0 0"/>
  <path d="m159.17-113.2c0.88084 0.2497-0.52347 0.69663 0 0"/>
  <path d="m100.53-113.7-0.66389-0.9572c-0.39573 0.45236 0.08324 1.1562 0.66389 0.9572"/>
  <path d="m177.83-109.37c0.74042-0.43969 0.12847-2.1256-0.0129-2.7513-0.15923-0.68216-0.7341-0.2877-1.047-0.83054l-1.2702-0.7093 0.038 0.66407c-0.42124-0.16285-0.25532-0.7274-0.83615-0.84321l-1.2702-0.14475c-0.9192-0.16285-1.9086-0.24247-2.8406-0.10857l-1.3214 0.5356c-0.54898 0.29313-0.86184 0.24246-1.1362 0.86129-0.47244 1.073-0.52347 2.2788-0.51696 3.4342 0.0129 1.2449 0.30001 2.7131-0.0326 3.9194-0.24264 0.90653 0 1.8129-0.0129 2.7258-6e-3 1.1942-0.23613 2.3427-0.16647 3.549 0.0706 1.2377 0.21062 2.4704 0.12847 3.7086-0.15923 2.3874-0.33836 4.6919-0.1538 7.0919 0.076 1.0531 0.19777 2.1066 0.40206 3.147 0.24265 1.2196-0.45327 2.2215-0.46593 3.4278 0 0.66407 0.076 1.3281-0.1339 1.9725l-0.39573 1.1743 0.0706 0.79073 0.56165-0.03619 0.32552 1.0658 0.79797 0.01303 0.37655-0.09047-0.21062 1.0024-0.95105-0.10857-0.73409 0.01809c-0.96389 0.88663-0.51063 3.6321 0.59368 4.264 1.449 0.81787 3.6066 1.1617 5.2471 0.98977 1.1106-0.10857 2.1065 0.2877 3.064-0.46503 0.72124-0.5736 1.0659-1.4114 1.1172-2.3172 0.0633-1.111-0.18511-2.2278-0.35103-3.3256-0.0959-0.63874-0.12124-1.0658 0.0959-1.6792 0.23613-0.6695-0.18511-1.3987-0.0129-2.081 0.21062-0.8233 0.10857-1.2702-0.114-2.0874l-0.0253-1.6466c-0.14113-1.073-0.10856-2.1768-0.0253-3.2492l0.0959-1.6285c-0.21062-0.5935-0.19144-0.83054-0.0199-1.4675 0.37021-1.4114 0.14656-2.8852 0.30634-4.3278 0.10133-0.85587 0.25531-1.7226 0.25531-2.5852v-1.1309l0.12123-0.70749-0.1538-0.81787 0.26183-0.9192c-0.038-0.72197-0.0706-1.4494-0.10857-2.1768 0.16647-0.90654 0.19777-1.8702 0.17913-2.7894-0.0199-0.96443-0.4596-1.2377-0.97022-1.998h0.29367c0.12847 0.7473 0.70225 0.5175 1.0086 6e-3l0.19795-0.92643-0.4149-0.54284 0.16646 0.12666"/>
  <path d="m172-113.07 0.12847 0.20989z"/>
  <path d="m171.83-111.61 0.21062 0.54284z"/>
  <path d="m172-108.37-0.16647-0.2099z"/>
  <path d="m171.5-110.12-0.12847-0.2099z"/>
  <path d="m171.12-112.82-0.0452 0.33112z"/>
  <path d="m170.92-85.418 0.12847-0.03619c0.17913 0.10857 0.22347 0.66407-0.12847 0.03619"/>
  <path d="m170.71-104.99 0.33185 0.33113z"/>
  <path d="m170.75-108.41c0.72776 0.40169 0 0.3836 0 0"/>
  <path d="m170.46-110.07c0.74676 0.47226-0.42124 0.5555 0 0"/>
  <path d="m170.38-106.77-0.30001-0.75997 0.55532 0.49217z"/>
  <path d="m170.54-104.08-0.12848-0.16285z"/>
  <path d="m169.5-113.03c0.58083 0-0.17914 0.85587 0 0"/>
  <path d="m169.46-110.7 0.038 0.75273 0.67022 0.9572-0.93204-0.84863z"/>
  <path d="m169.5-98.62c0.76593 0-0.4596 1.073 0 0"/>
  <path d="m169.46-102.99 0.24898 0.12667z"/>
  <path d="m169.33-100.95-0.038 0.16285-0.0887-0.16285z"/>
  <path d="m168.83-112.16c0.52981 0 0.0579 0.6514 0 0"/>
  <path d="m169-109.12-0.21062-0.2099z"/>
  <path d="m167.96-78.212c1.6661 0.44693-0.31919 0.96986 0 0"/>
  <path d="m168.54-84.502 0.21062-0.62607z"/>
  <path d="m169.12-80.397c-0.33186-0.62607-0.62553-1.8058 0.1339-2.1447 0.78511 0 0.26816 0.81063 0.12847 1.3281 0.9192 0.4596 1.0022-0.31304 1.1618-0.9952l0.61286 0.18094-0.35754 1.0857-1.6788 0.5555"/>
  <path d="m170.13-75.755c-0.75327 0 0.17914-1.0911 0 0"/>
  <path d="m171.18-72.056-0.5745 0.5356c-0.56165-0.40894-0.8043-0.48493-0.33836-1.0857l0.77245-0.6514 0.14114 1.1997"/>
  <path d="m172.04-72.589-0.29367-0.4976z"/>
  <path d="m171.29-107.74c0.63837 0.27503 0.84266 0.44693 1.0022 1.1237l-1.0022-1.1237"/>
  <path d="m172.25-110.24-0.038-0.2099z"/>
  <path d="m172.75-102.41-0.41491-0.4976z"/>
  <path d="m172.46-112.74 0.75328 0.70931z"/>
  <path d="m173.58-104.99-0.62552-0.79073z"/>
  <path d="m173.5-110.24v-0.24971z"/>
  <path d="m173.54-103.16-0.21062-0.29313z"/>
  <path d="m173.08-100.58 0.21062 0.37636z"/>
  <path d="m173.29-85.501 0.0832-0.12666z"/>
  <path d="m173.46-98.412 0.0832 0.12666z"/>
  <path d="m173.79-101.04-0.29367-0.79254z"/>
  <path d="m174.04-104.62-0.038-0.0905z"/>
  <path d="m173.29-111.74c0.60002 0.12666 0.76594 0.45417 0.9192 1.0404l-0.9192-1.0404"/>
  <path d="m174.46-110.45z"/>
  <path d="m174.62-113.03c0.60634 0.20989 1.8767 1.4367 1.8767 2.1256-0.74676-0.10856-0.78512-0.49759-1.2447-1.0531l-0.63204-1.073"/>
  <path d="m174.71-111.66c0.62553 0 0.0129 0.74007 0 0"/>
  <path d="m175.29-98.954-0.038-0.33113z"/>
  <path d="m175.33-102.41-0.54265-0.4596 0.21062-0.2497 0.52347 0.37093z"/>
  <path d="m175.16-104.95 0.038 0.66407z"/>
  <path d="m174.79-110.12 0.82981 0.0905 0.0832 0.7473c0.63837 0.29313 0.4149 0.43427 0.54265 1.0404l-1.4553-1.8704"/>
  <path d="m176.96-105.49 0.038 0.37636z"/>
  <path d="m176.58-101.04c0.65104 0.51026-0.12847 0.75273 0 0"/>
  <path d="m176.62-102.16-0.12847-0.2497z"/>
  <path d="m176.54-110.57-0.0452-0.24971z"/>
  <path d="m188.28-105.99-0.0452-0.0905z"/>
  <path d="m187.74-103.33-0.0452 0.12667z"/>
  <path d="m185.99-102.45 0.0832 0.21171z"/>
  <path d="m186.58-96.371-0.66388-0.9192z"/>
  <path d="m185.79-83.626-0.4596 0.2099z"/>
  <path d="m184.79-100.74 0.0452 0.58083z"/>
  <path d="m184.74-98.87z"/>
  <path d="m184.37-104.99z"/>
  <path d="m184.24-108.49 0.0452 0.2099z"/>
  <path d="m183.04-102.95-0.0452-0.66407z"/>
  <path d="m182.83-99.025-0.61919-0.92644z"/>
  <path d="m182.08-97.912v-0.4976z"/>
  <path d="m182.41-102.95-0.0832-0.16285z"/>
  <path d="m182-101.29 0.24898 0.33113z"/>
  <path d="m181.91-100.45 0.24898 0.4976z"/>
  <path d="m186.24-77.712c0.56183 0.03619 0.71491 0.14476 0.84899 0.7274 0.12124 0.51026-0.12123 1.1562-0.7596 0.88663-0.75961-0.31846-0.43409-1.0983-0.0887-1.6158"/>
  <path d="m186.66-74.671 0.33837 0.91377c-0.61286 0.19723-0.69573-0.64416-0.33837-0.91377"/>
  <path d="m186.62-72.131v-0.2099l0.58083-0.41436z"/>
  <path d="m187.78-81.892-0.25532 0.8993 0.12124 1.0857c0.0887 0.61883-1.7682 1.0404-1.8831 0.5935l-0.076-1.5254-0.849-0.25513c-1.0533 0.39627-0.30633 1.2757 0.12124 1.8958l-0.9192 0.26237-0.82981-0.56817c-1.0596-0.49217-1.0596-1.1562-0.92554-2.247l0.0326-1.4041-0.61286-0.7654 0.4596-0.90653c6e-3 -0.58083-0.22346-0.73464 0.21062-1.1743 0.46594 0.3257 0.89369 0.1918 0.51063 0.88663l-0.26183 0.98977 0.53614-0.51026 0.60635 0.12666-0.30634 0.9572 0.79163-0.45236 0.49796-0.75273-0.32552 1.0983-0.52347 0.6134-0.65104 0.45236c0 0.69664 0.48511 0.14476 0.85532 0.4976l-0.56183 0.4216 0.82348 0.24247 1.1745-1.0784c0.37022 0.05428 0.58084 0.5555 0.67022-0.03619 0.10133-0.71473 1.832-0.7274 1.832 0.09047l-0.26182 0.56817"/>
  <path d="m188.37-71.464-0.038-0.33113z"/>
  <path d="m194.37-111.99-0.21062 0.16285z"/>
  <path d="m194.16-110.24 0.54265 0.4976z"/>
  <path d="m194.57-103.16-0.4596-0.7093z"/>
  <path d="m193.53-104.99 0.49796 0.91377z"/>
  <path d="m192.53-112.11 0.37654 0.70931z"/>
  <path d="m192.49-108.99 0.16647 0.4596z"/>
  <path d="m192.74-106.83-0.16647-0.16285z"/>
  <path d="m192.12-106.24-0.038 0.24971z"/>
  <path d="m191.41-111.45v0.24971z"/>
  <path d="m191.28-109.74c0.076-0.4596 0.70224-0.0905 0 0"/>
  <path d="m191.41-107.7 0.0832-0.58083z"/>
  <path d="m190.2-111.95 0.67022 1.2521-0.55532-0.54283z"/>
  <path d="m190.49-110.03 0.29368 0.33113c-0.90636 0.16285 0.47878 1.0477-0.23614 1.0911l-0.89368-1.3788c0.49144 0.1918 0.49144 0.58083 0.83614-0.0362"/>
  <path d="m190.33-103.49c0.72125 0-0.62553 0.62606 0 0"/>
  <path d="m190.12-96.954c0.56166 0 0.0887 1.3028 0 0"/>
  <path d="m189.66-107.24c0.37654 0.16285-0.10857 0.88663 0 0"/>
  <path d="m189.2-102.45-0.12847-0.0905z"/>
  <path d="m188.78-111.37c0.81064 0.31304-0.63837 0.63874 0 0"/>
  <path d="m188.7-107.49c0.59368 0.29313-0.1339 0.39627 0 0"/>
  <path d="m188.83-101.7 0.21062 0.16285z"/>
  <path d="m190.23-74.897-0.52981-0.2298 0.58083-0.58807z"/>
  <path d="m194.9-96.561c-0.21695 0.7654-0.40858 1.2449-0.40858 2.0619v1.4168l0.12848 0.75273c-0.18511 0.94453-0.52981 1.7497-0.47878 2.7321 0.0326 0.6894 0.35754 1.4494 0.24898 2.1257-0.12124 0.7274-0.31919 1.2901-0.15924 2.049l0.15381 1.2775 0.2298 0.7654c0.23613 0.89387-0.70225 2.0619-0.76594 2.9682l0.56165 0.49217-0.47245 0.75273c-0.51062 0.3257-1.3915-0.05428-2.0044 0.01809-0.70224 0.09047-1.398-0.03619-1.8639-0.60074l-0.44042-0.27504-0.1339 0.75997c-0.90635-0.30037-0.68939-2.6107 0.5745-1.5127 0.75328 0.65683 0.74043-0.41436 0.59368-0.9192-0.1851-0.63874-0.19144-1.0603 0.0326-1.6918l0.21062-1.1237-0.19144-1.1689c0.2298-0.73464 0.0452-1.5073-0.0253-2.2596-0.0706-0.65683-0.0452-1.2503 0.0887-1.8959 0.114-0.54283 0.40858-0.64416 0.33837-1.2702-0.12847-1.1418-0.35755-2.081-0.10857-3.198 0.23614-1.0857 0.0832-2.2725 0.076-3.3768-0.0129-1.5-0.33837-5.1642 1.6149-5.6556 0.70207 0.19723 1.0596 0.79073 1.6661 1.1291 0.54266 0.30579 0.61286 1.5579 0.54266 2.1639-0.0832 0.6894-0.58735 1.225-0.41491 1.9533 0.1339 0.60074 0.61286 0.81063 0.40857 1.5199m9.4601-0.83596c-0.0129-2.7831-0.26816-5.4578-0.8745-8.1642-0.1339-0.60617-0.31919-1.225-0.72776-1.6973l-0.33837-0.65141-0.0706-0.86129-1.0788-0.9952-0.90635-1.0531c-0.77879 0-1.1172-1.0603-1.8576-1.1997-0.61286-0.12666-1.0659-0.40894-1.6596-0.5555-1.3086-0.33113-2.681-0.25513-3.9832-0.61883l-1.9469 0.47226-0.66389-6e-3 -0.97022 0.80521-0.54266-0.47951c-0.4596 0.12666-0.23613 0.47227-0.82981 0.43427-0.6894-0.0362-0.96389 0.6315-1.4618 1.0205l-1.0404 0.79254-1.0214 1.1038-0.76594 1.1291-0.33185 0.92644-0.4596 0.50484-0.14114 0.5555-0.63204 0.90653c-0.10856 0.60616 0 1.2702 0.10133 1.8702l-0.4149 1.5507-0.37655 0.7853-0.10133 0.91196c-0.31285 0.62607 0.14657 1.3915-0.21062 1.998-0.32552 0.56093-0.12847 1.5254-0.12123 2.1704 0.0326 2.5662-0.50429 5.094-0.33185 7.6663 0.0887 1.4295 0.21695 2.8407 0.25531 4.2833 0.0452 1.5199-0.0706 3.0066 0.30634 4.4811l0.28716 1.1418 0.3447 0.20447 0.12123 0.6514 0.60001 0.7473 0.849 0.50484 0.37654-0.60616-0.49796-0.37636 1.1235 0.03619 0.49796-0.4976 0.24898 0.27504-0.24898 0.7654-0.66389 0.60616-0.49144 1.3028 0.0832 1.0477c0.58083 0.4795 1.1106 1.0079 1.6851 1.4874 0.67022 0.56274 1.4106 1.0531 2.2597 1.3082 0.68307 0.20447 0.81715-0.83054 1.1874 0.30037 0.24898 0.75273 2.6682 0.37637 3.3002 0.3438l0.72124-0.01809 0.43409-0.56817c0.58717-0.58083 0.30001 0.18094 0.36388 0.44693l1.2447 0.14476 0.61286-0.30037 0.21695-0.6514 0.87451 0.54283 0.23613-0.09047 0.98307-0.3836c0.86166-0.3637 1.9533-1.1164 2.5661-1.8127l0.67655-1.1743 0.71491-0.5356 0.79797-1.6973c0.26816-0.6315 0.77245-1.0531 0.77245-1.7678l0.33837-1.0784 0.0706-0.90653c0.076-0.83596 0.0129-1.6213-0.0579-2.4576l0.15381-0.8812 0.31918-0.7274c-0.0579-1.5073-0.0199-2.9811 0.0579-4.4874-0.22347-2.9747 0.0507-5.9556 0.038-8.9367"/>
  <path d="m194.86-110.2v-0.33113z"/>
  <path d="m202.2-107.74c-0.63838-0.16286-0.21696-0.79073 0 0"/>
  <path d="m201.36-100.7-0.4596-0.33113z"/>
  <path d="m200.74-103.53 0.4596 1.0857c-0.38939-0.12666-1.0596-0.84863-0.4596-1.0857"/>
  <path d="m200.15-102.16-0.12847-0.0905z"/>
  <path d="m199.65-104.37-0.37655-0.4596z"/>
  <path d="m199.11-102.79 0.33185 0.79073z"/>
  <path d="m199.36-100.74c0.70858 0-0.33836 0.62606-0.37654 0.62606l0.37654-0.62606"/>
  <path d="m199.49-96.33-0.16647-0.37636z"/>
  <path d="m199.03-99.537-0.16647-0.33113z"/>
  <path d="m197.74-102.62 0.24898-0.33113z"/>
  <path d="m197.99-98.412-0.21062-0.2497z"/>
  <path d="m197.95-108.95c-0.79797 0 0.0326-0.98253 0 0"/>
  <path d="m197.86-104.58 0.29367 1.1237z"/>
  <path d="m197.66-112.03c1.0022 0.30037-0.51696 1.0024 0 0"/>
  <path d="m197.28-105.74c0.69574 0.12666-0.25531 1.0151 0 0"/>
  <path d="m197.2-101.91 0.16647 0.20989-0.20429-0.0362z"/>
  <path d="m196.45-102.79c0-0.5356 0.8745-0.0905 0 0"/>
  <path d="m195.62-101.66 0.63204 1.0531z"/>
  <path d="m196.16-82.294-0.33204-0.83596c0.35755 0.03619 0.97023 0.7093 0.33186 0.83596"/>
  <path d="m196.11-76.422c0.84266 0.25513-0.0959 0.84863 0 0"/>
  <path d="m197.03-73.006v-0.12666z"/>
  <path d="m197.49-79.011c-0.74694 0.5356-0.30634-0.79797-0.9192-0.93186-0.58717-0.12666-0.38939-0.5175-0.30001-1.0658l0.5043-1.0332 0.70858 0.70749-0.54266 0.7093 0.97674 0.3058c0.93838 0.10857-0.0253 1.0205-0.42757 1.3082"/>
  <path d="m198.36-99.037-0.16646-0.37636z"/>
  <path d="m198.36-106.16 0.58084 0.58083z"/>
  <path d="m200.4-81.336-1.0851 0.29313-0.56165-0.58083 1.1043-0.50484z"/>
  <path d="m201.49-95.913-1.0023-1.5 0.58735 0.58083c0.21695-1.4168 0.66389 0.41436 0.41491 0.9192"/>
  <path d="m201.22-99.264-1.0212-0.9391-0.5043-1.4548 1.3278 1.5254 0.38306 0.84863 0.54265 0.9572z"/>
  <path d="m202.07-101.45 0.4596 0.12666-0.21062 0.38903z"/>
  <path d="m202.15-97.537 0.76594 0.07238 0.35755 1.1816c-0.75327 0-0.47878-0.94453-1.1235-1.2521"/>
  <path d="m203.99-98.579v-0.16285z"/>
  <path d="m99.321-112.82 0.24898 0.66406z"/>
  <path d="m230.75-95.392-0.68306 0.65683-0.67022-0.01267-0.12847-1.0658-0.10133-1.4548-1.4809-0.01809-1.2447-0.61883-1.0149-0.07238-0.36388-1.0205-0.41491-0.4596-0.37655-0.66949-0.0452-0.6514c0.0129-0.5356-0.19144-1.0857-0.86817-0.67674l-0.114 1.7552c0.0253 0.79073 0.0452 1.5833-0.0959 2.3682 0.38306 0.4397 0.56165 0.75273-0.12847 0.75273-0.66389 0.0063-0.81697-0.16285-1.1617-0.71473l-0.49796-0.5935 0.2745-0.60074-0.2745-0.5555-6e-3 -0.75997c-0.10133-0.83596-0.30634-1.6665-0.52347-2.4768-0.1719-0.62607-0.31286-1.4168-0.68307-1.966l-0.58083 1.0658-0.20429-0.47951-0.21062-0.71473c1.4427-0.18094 0.44675-2.5917 0.12123-3.3002-0.29385-0.62607-0.3769-1.2757-0.62588-1.9086l-0.53614-0.58083-0.11581-0.7853c-0.5745-0.65683-0.98307-1.2503-1.9278-1.187-1.4362 0.10857-2.7704-0.16285-4.2066-0.1918l-0.72776 0.0905-1.3725 0.36369c-0.67674 0.33113-0.98941 0.63874-1.1874 1.3589-0.33837 1.2123-0.41491 2.7256-0.0579 3.945 0.1851 0.62607 0.63204 0.34379 0.94471 0.83596l0.19144 1.4367-0.43409 1.3788c-0.25531 0.3058-1.0659-0.33113-0.90002 0.50484l0.70858 0.5754-0.33185 0.3836-0.24265 0.46684c-0.28716 0.8034-0.076 1.7045-0.0832 2.5343-6e-3 1.2123-0.30001 2.3937-0.26165 3.6193 0.0326 1.1164 0.20429 2.2278 0.19144 3.3449-0.0129 1.111-0.21695 2.2468-6e-3 3.3511l0.89368 0.18456 0.67655-0.3456c0.17914-0.8812-1.1235-0.98977-1.1235-1.8704 0.91286-0.3058 1.5702-0.72197 1.666-1.7932l0.58083 1.1689c0.54265-0.4017 0.75327-1.0079 1.2768-0.27504 0.33836 0.4596 0.14113 1.0477-0.52348 0.8993-0.71491-0.16285-0.77878 0.62607-0.0452 0.62607-0.0633 0.8613-0.89369 1.0857-1.3341 1.7045-0.40206 0.58083-0.47878 1.4494-0.95756 1.9149-0.31919-0.4596-0.28083-1.7298-1.1682-1.2901l-0.16647 1.5326c-0.0633 0.5935 0.0633 0.48493 0.60635 0.6134 0.58083 0.14476 0.81696 0.12666 1.2384-0.33837l0.8043-0.33837 0.76594 0.16285v0.79073l-1.0212-0.03619-0.73409 0.60074-0.10133 0.4976 0.82981-0.2099c0.78512-0.25513 0.32552 1.3155 0.22347 1.6973l-0.90002 0.41436-0.12847-0.62607c-0.6894 0.18456-0.63204 0.26237-0.87451-0.41436l0.62553-0.6695c-0.68307-0.42703-1.3404-0.12666-1.5702 0.60074-0.2298 0.74006 0.31285 3.5874-0.72125 3.6896 0.2745 1.3408 0.37655 2.3554 0.0832 3.696l-0.33185 1.4874 0.4149 0.6894-0.076 1.0079c-0.10133 1.1164 6e-3 1.9215 0.91919 2.63l1.2 0.60616c0.59368 0.07238 1.0916-0.51026 1.6725-0.14476 0.53614 0.33113 1.347 0.14476 1.9724 0.16285 0.74676 0.01285 1.2639 0.19723 1.9342-0.10857 0.64471-0.29313 0.92553-0.2298 1.1874-0.9391l0.36388-1.5634c0.31285-2.4192 0.11399-4.9599 0.11399-7.3983l-0.1851-0.77263 0.0507-0.86854c-0.1339-0.68216 0.0579-1.3788-0.0579-2.0619v-1.4801c0.18511-0.5555 0.51714-1.0603 0.61286-1.6466 0.91287-0.5754 0.96389 1.5453 1.2576 2.0172 0.38306 0.6134 0.20429 1.1743 0.37655 1.8576 0.17914 0.68216 0.12123 1.3535 0.44675 1.9725 0.49796 0.93187 0.40858-0.60616 0.37655-0.91377l-0.0452-0.9391 0.47878 0.28046c0.12847 0.39627 0.6192 1.0024 0.99574 0.41436l0.35755-0.37094 0.62552 0.3456-0.50429 0.92644 0.0452 0.5935 0.0706 0.6695c-0.0832 0.38903-0.15381 1.2322 0.44675 1.1164l0.73409-0.60074-0.0706 0.7274-0.1339 0.48493c0.0326 0.37094 0.35755 0.9771-0.2298 1.0024l-0.78512-0.8812-0.82347-0.2099 0.35754-1.1291-0.56165-1.1997c-0.61286 0.5175-1.0022 1.4874-1.066 2.266-0.0887 1.073 0.63838 2.4321 0.94472 3.4598 0.3 1.0404 0.61286 2.0745 1.0278 3.0768l0.41491 1.4041 1.0915 0.61883c0.61286 0.1918 1.2957 0.23523 1.9278 0.29313 0.69574 0.07238 1.4172 0.14476 2.1129 0.05428 0.92553-0.10857 1.8-0.28046 2.6619 0.1918 2.1703-0.81063 1.4427-3.8044 1.4235-5.5854-6e-3 -0.61883-6e-3 -1.2322-6e-3 -1.8511l0.0832-1.6466c0.47245-0.83054 0.22347-1.9917 0.20429-2.9235-0.0253-1.2069 0.076-2.4002 0.0832-3.6066 6e-3 -1.0223 0.30634-2.03 0.2298-3.0576l-0.49144-0.8812-0.44042-1.111c-0.61286-0.03619-1.2192-0.09047-1.832-0.12666l-0.54265-0.41436-0.038 1.0404-0.67022 0.37636c-0.56816-0.68216-1.1172 0.05428-1.4937 0.4976l-0.54266-1.0531-0.58716-1.0151-0.52348-1.0151c-0.63837-0.09047-0.56816-0.16285-0.63837-0.79073l0.53614 0.2497 1.1682 0.4596c0.49144-0.48493 0.9192-1.0404 1.5-1.4168l1.0404-0.41436 0.26183-0.49217 0.40857 0.8233c-0.5745 0.3257-0.0253 0.7274 0.25532 1.111l0.65755 1.187 0.41491-1.3028 0.0452-0.66407 1.1235-0.37094 0.44675-2.0298c0.0253-0.83596 0.038-2.3811-0.84266-0.95177"/>
  <path d="m209.48-93.956-0.12847-0.66407z"/>
  <path d="m208.07-77.462v-0.2099h0.12847z"/>
  <path d="m207.9-78.378v-0.37636z"/>
  <path d="m210.61-80.044-0.29368-0.16285z"/>
  <path d="m210.35-75.49-0.35754 0.8432-0.20429-0.66407-0.0507-0.6514z"/>
  <path d="m210.61-77.504 0.33185 0.2099-0.0253 0.72197c-0.038 0.89387-0.3447 0.28046-0.51714-0.14476-0.31286-0.79797-0.35755 0.10857-0.94471-0.09047l-0.37022-0.73464 0.90002-0.5736 0.62553-1.2196c1.1106 0.10857-0.15923 1.149 0 1.8321"/>
  <path d="m212.19-78.087c0.79796 0-0.12848 0.7853 0 0"/>
  <path d="m213.52-88.375-0.16647-0.29313z"/>
  <path d="m214.02-88.375 0.12847-1.8766c0.75327 0 0.54898 1.6466-0.12847 1.8766"/>
  <path d="m214.77-91.707 0.0832 0.12666z"/>
  <path d="m215.27-104.45 0.21062-0.66407z"/>
  <path d="m230.39-85.917 0.29367 0.58083-0.58734 0.2497z"/>
  <path d="m223.24-90.167 0.0129-0.0063 0.0959-0.5356-0.0887 0.53017 6e-3 0.01267h-0.0253l-0.26182 0.12666z"/>
  <path d="m223.1-84.709-0.21062-0.7473z"/>
  <path d="m227.69-77.796-0.16646-0.4976z"/>
  <path d="m226.74-83.709 0.33185-0.9192c-0.0253-0.6134 6e-3 -0.6315 0.52348-0.9952 0.67022 0.12666 0.25531 0.79797 0.0452 1.1164l-0.51062 0.83596-0.3894-0.03619"/>
  <path d="m225.31-84.756c0.94471-0.3836 0.21695-1.0983 0.49796-1.7425 1.3404 0.51026 0.16647 1.3462 0.16647 2.3172 0 0.53017-0.038 0.8052-0.28716 0.18094l-0.54266 0.58626-0.32552-0.05428c-0.14656-0.52293-0.0887-1.0477 0.49145-1.2829"/>
  <path d="m224.02-89.957h0.16647z"/>
  <path d="m223.89-81.169c0.20429 0.65683 0.74043 1.1743 0.82982 1.8766 0.36388 0.25513 1.2639 0.3836 1.1553-0.2877l-0.0253-0.8812 0.70857-0.2099 0.95756-1.2069c0.77879 0.14476-0.10856 0.9391-0.37654 1.1997l0.8043 0.85587c0.51714 0.16285 1.0149 0.33837 0.86184 0.94453l-1.5447-0.2497c-0.31285 0.58083-0.93838 0.39627-1.3086 0.8432l-0.42775 0.70207-0.89369 0.09047c-0.91287-0.05428-0.038 1.2503-0.6894 1.4114-0.65104 0.16285-0.8745-1.2069-1.0533-1.6719 0.67655-0.1918-0.0452-0.71473 0.60001-0.8052l0.70858-0.3637-0.65755-0.3637-0.56817 0.5736 0.9192-2.4576"/>
  <path d="m227.48-94.248 0.24898 0.62607z"/>
  <path d="m230.97-111.05-0.68307-0.18095-0.19144-0.3257c-1.4298-0.40169-3.1406-0.3637-4.6215-0.35103l-0.75327 0.9572c0 0.85587 0.64471 0.60073 0.83615 0l-0.12847 1.1436 0.0326 1.1418-0.15381 1.3281 0.40206 0.31304 0.47245-0.18095-0.72125 0.60074-0.88084-0.83054-0.81696-0.31303-0.12123 0.7093 0.63204 0.2678-0.21696 0.4795 0.0253 0.79797c0.11399 0.58807 0.29367 1.1436 0.26816 1.7425-0.68307 0.56817-0.40206 0.70206-0.29368 1.5l0.67022-0.31846 0.22347-0.5935c0.0633-0.7654 2.298 0.83596 2.0235-1.0658l-0.14113-1.3788 0.86817-0.51751 0.35103-0.63873 0.49796 0.33113c0.14114 0.31846 0.52981 1.073 0.8043 0.48493 0.24265-0.5356 0.26816-1.1363 0.26165-1.7172l-0.0199-0.99519 0.60635-0.26237c0.14656-0.7853-1.8703-0.1918-2.0554-0.68397-0.23613-0.65683 0.51062-0.42703 0.9192-0.3637l0.69573-0.14476 0.60635-0.26237c0.66388-0.0362 1.0022 0.0362 1.1745 0.71473 0.14656 0.5935 0.67655 0.18095 0.5745-0.31303-0.10133-0.52293-0.49796-1.1942-1.149-1.073"/>
  <path d="m231.14-109.12-0.33185 0.87396-0.50429 0.66407 0.77878 0.5175 0.0129-0.80339 0.50429-0.2099 0.0832-0.58083z"/>
  <path d="m228.18-105.74-0.24898 0.83597c0.24898-0.25513 1.0278-0.75273 0.24898-0.83597"/>
  <path d="m208.96-105.08-0.30634-0.33113z"/>
  <path d="m231.13-102.44c0.75327-0.2497 0.44675-1.3987-0.23614-1.4747l-0.35754 1.0278 0.59368 0.44693"/>
  <path d="m227.69-101.45-0.58083-0.91377c-0.29367 0.14475-0.79145 0.42703-0.12847 0.4795 0.56165 0.0362 0.114 0.35827 0.70858 0.43427"/>
  <path d="m152.13-101.24-0.49796-0.87397z"/>
  <path d="m226.38-100.81-0.56817-0.84864c-0.20428 0.31304 0.28716 1.5073 0.56817 0.84864"/>
  <path d="m225.93-99.496c0.3 0.44693 0.38939 1.4747 1.0533 1.1363 0.70224-0.35103 0.84266-0.77806 0.7596-1.576l-0.93838-1.1436v1.4548l-1.251-0.2497 0.37655 0.37636"/>
  <path d="m230.89-99.87-0.37655-0.37636z"/>
  <path d="m229.6-99.328 0.10856 1.2377 0.93205 0.38903z"/>
  <path d="m230.18-95.372-0.4149-0.7093z"/>
  <path d="m227.6-92.331 0.21062 0.2497z"/>
  <path d="m227.64-91.29c-0.85532 0.73464 0.66389 0.53017 0 0"/>
  <path d="m230.68-91.207c-0.90635 0.72197 0.95756 0.4795 0 0"/>
  <path d="m225.77-90.208c-0.45327 0.89387 1.4745 0.10857 0 0"/>
  <path d="m209.53-89.999 0.29368 0.58083z"/>
  <path d="m226.31-88.625-0.29368-0.58083z"/>
  <path d="m186.58-81.71c-0.63837 0.3836 0.12847 0.74006 0.58083 0.54283l-0.58083-0.54283"/>
  <path d="m182.83-80.628-0.37654-0.12666z"/>
  <path d="m220.23-80.545v0.2497z"/>
  <path d="m111.11-66.3-0.94471-0.7274-1.0149-1.0603-1.6086 0.18094c-0.71491-0.01809-0.6447-0.52293-0.83614-1.0857l-1.2255-0.25513c-0.70225 0.24789-1.4043 1.3082-2.215 1.1237-0.90002-0.20447-1.4362-0.7274-2.3618-0.14476l-1.3725 0.38903-0.86184-0.6514c-0.31285 0.33113-0.10133 1.0857-0.71491 0.94453l-1.5065-0.58807-1.9852 0.10857-0.74676-0.75997c-0.58716-0.18094-1.2-0.03619-1.7937-0.12666-0.58083-0.09047-0.65104-0.52293-1.098-0.7654l-0.86817 0.4596-0.37655-0.54283-1.0659-0.12666c-0.75961 0.09047-1.7172 0.30037-2.3491 0.75997l-0.70858 0.83054-0.42124 0.54283c-0.86817 0.14476-0.60635-0.2099-0.49796-0.86854 0.12123-0.70206-0.0579-0.71473-0.69573-0.4976l-0.72125 0.86854c-0.59368 0.03619-0.82348-0.5935-1.449-0.18094l-1.0086 0.18094-0.66389 0.07238-0.62552 0.05428c-0.37655 0.47227-1.2447 0.37636-1.8193 0.44693-0.74694 0.09047-1.3023 0.27504-1.8895-0.26237l-1.1172-0.22256-1.3149 0.01809-0.39573 0.39627-0.75961-0.09047c-0.45327 0.0063-0.52347-0.60074-1.1235-0.61883l-0.70225 0.03619-0.60001-0.3637-1.1745 0.53017-1.7619-0.03619c-0.67022-0.09047-1.2255 0.2099-1.8831 0.24247-0.67022 0.03619-0.91287-0.54283-1.5447-0.69664-0.67022-0.16285-0.82981-0.24247-1.0725-0.83596l-1.1808-0.60074-1.5768-0.2678-0.26816-1.0857-1.0086-0.7473-0.38306-1.424c-1.0023 1.0784-0.39573 2.7703-0.24898 4.0405 0.076 0.6894-0.37021 1.2775-0.48511 1.9278-0.10857 0.62607 0.30634 1.4675 0.98307 1.4874 0.67655 0.01809 1.398 0.21713 2.0682 0.05428l1.0341-0.2497c0.99574 0.12666 1.998 0.2877 2.9746 0.5175l0.92553-0.03619c0.67022-0.10857 1.3725-0.03619 2.0491 0.0062 0.8043 0.03619 1.5831 0.20447 2.3874 0.18456 0.98941-0.01809 1.9788 0.16285 2.9555 0.12666 1.7874-0.09047 3.5555 0.09047 5.3492 0.05428 0.92553-0.12666 1.7172-0.35103 2.5916 0.0181 0.75327 0.33113 1.4427 0.14476 2.2469 0.20447 1.3341 0.09047 2.6236-0.2497 3.9704-0.12666 1.0404 0.10857 2.132 0.20447 3.1789 0.18094l1.347 0.03619 0.72125 0.2678 1.647-0.44693 1.915 0.44693c0.72776 0.01303 1.4874-0.03619 2.2023 0.09047 1.3149 0.2497 2.681 0.18456 4.0087 0.09047 1.3214-0.09047 2.4895 0.0063 3.7726 0.3438 0.63837 0.18094 1.3533 0.48493 2.0171 0.38903 0.62553-0.09047 1.1553-0.22437 1.7937-0.12666 0.92553 0.12666 2.164 0.3257 2.9938-0.2298 0.77879-0.53017-6e-3 -1.3155-0.40205-1.8958l-0.68307 0.09047"/>
  <path d="m108.85-71.427-0.77879-0.7853-0.84266 0.4397 0.58084 0.65683c0.36388 0.07238 1.1618 0.3257 1.0404-0.31303"/>
  <path d="m87.868-70.34-0.49796-0.83054c-0.36388 0.09047-0.24898 1.2829 0.49796 0.83054"/>
  <path d="m108.94-68.399 1.098-0.5555c0.23613-0.6514-0.12123-1.111-0.79797-1.0911-0.39572 0.4795-1.1235 0.3637-1.1553 1.0477-0.0326 0.58626 0.30001 0.5736 0.85533 0.60074"/>
  <path d="m103.86-68.675-0.54266-0.7473c-0.5745 0.44693-0.0199 0.8613 0.54266 0.7473"/>
  <path d="m114.11-65.176c-0.28716 0.5175 0.0199 1.5959 0.66389 0.94453 0.58735-0.5935-0.076-0.96986-0.66389-0.94453"/>
  <path d="m196.41-22.596-0.31285-0.14476-1.5321 0.3257c-0.67655 0.14476-1.5447-0.12666-2.1256 0.25513-0.97674 0.75273 1.6214 0.58083 1.8576 0.58807 1.149 0.03619 2.298-0.03619 3.447-0.03619 0.90635 0 1.698 0.23704 2.5597-0.01285l0.88084 0.16285 0.42757-0.16285c0.5745 0.01303 0.97023-0.09047 1.5192-0.18456 0.84899-0.14476 1.7363 0.29313 2.6108 0.12666 1.7618-0.3257 3.5172-0.2298 5.3109-0.22256 1.3086 0.0063 2.6236-0.16285 3.9258-0.10857 0.96389 0.05428 2.1129 0.27504 3.0576 0.14476 0.56816-0.07238 0.9894-0.27504 1.5831-0.2099l1.6341-0.01303 1.5192-0.19723 1.6533 0.05428 1.3533-0.48493-0.79163-0.52293-1.2894 0.2099-1.1808-0.05428-0.6894 0.2877-0.49144-0.20447-1.8831-0.2678c-0.67022-0.05428-1.2957-0.09047-1.9661-0.03619l-1.4235 0.01809-1.1043-0.01809-1.0533-0.01809c-0.5298-0.40894-0.76594-0.25513-1.347 0l-1.3596 0.10857-1.3341 0.09047-1.7043 0.14476c-0.64471-0.22256-1.0596 0.4397-1.7043 0.28046l-1.3596 0.01303-1.4362-0.14476-1.4874 0.12666c-1.1362-0.26237-2.2469 0.16285-3.3959-0.12666-0.72124-0.18094-1.0596-0.05428-1.7363 0.2099l-0.63204 0.03619"/>
  <path d="m188.97-21.327c0.58083-0.18456 0.0706-0.79073-0.39573-0.70207l-0.21695 0.56817 0.61286 0.12666"/>
  <path d="m184.85-21.936-0.15923 0.5555 0.53614 0.21713 1.5576-0.03619c0.6894-0.23523 0.0832-0.71473-0.33836-0.77263l-1.5958 0.03619"/>
  <path d="m237.08-27.514-0.19144-0.6134-0.98941-0.43427c-0.12123-0.60074-0.38939-0.7093-0.8745-0.2497l-1.1172 0.4216-0.90002 0.60074-0.72776 0.37636 0.66388 1.9853 0.68307 0.35827 0.55532 0.14476 0.21062 0.62607c0.61919-0.47227-0.24265-0.50484-0.0452-0.9771l1.0725 0.07238 0.35755-1.035 0.0706-0.27504 0.38939 0.24247 1.1235 0.27504 0.23613-1.1942-0.51696-0.33837"/>
  <path d="m237.84-24.825 0.18511-0.65683-0.54266-0.30037z"/>
  <path d="m176.81-22.639c1.7874 0.1918 3.6002 0.09047 5.3939 0.23523 2.8214-0.47227 0.0579-2.2853-0.9192-2.93-1.1553-0.75997-1.5-0.92463-2.7448-0.18094-0.70858 0.4216-1.7298 0.56093-2.3554 1.0477-0.14657 0.73464-0.31919 1.7172 0.62552 1.8192"/>
  <path d="m254.14-26.509c0.3447-0.20447 0.84899-0.81063 0.12123-0.8432-0.75961-0.03619-0.9192 0.86854-0.12123 0.8432"/>
  <path d="m177.4-26.839c1.4106-0.91196-0.038-3.0703-1.2639-2.0617-1.2639 1.0404 0.0253 2.1639 1.2639 2.0617"/>
  <path d="m252.67-29.765c-0.0452-0.77806-0.42124-0.12666 0 0"/>
  <path d="m251.01-31.728 0.58083 0.74006z"/>
  <path d="m251.94-32.49-0.23614-0.52293z"/>
  <path d="m208.75-39.377 0.44676 0.68216z"/>
  <path d="m180.03-53.545-0.49796-0.40894z"/>
  <path d="m183-54.594 0.30634 0.09047z"/>
  <path d="m242.32-65.476 0.66389 0.60074 0.65755-0.39627-0.49796-0.50484z"/>
  <path d="m259.21-67.331 0.44041 0.6514c0.29368-0.09047 0.14114-1.0531-0.44041-0.6514"/>
  <path d="m242.1-67.916-0.86165 0.50484 0.69573 0.8432 0.88735-0.8993z"/>
  <path d="m246.22-67.931 0.47245 0.58083z"/>
  <path d="m237.78-70.278-0.58084-0.7274z"/>
  <path d="m209.95-40.588-0.0129 0.66407 0.32552-0.23523-0.51714 0.8233-0.71491-0.2298 0.17913-0.96444-0.73409-0.20447c-0.26816-0.8613-0.73409 0.64416-1.0404 0.41436l0.14656-0.79797 0.52981-0.62607-0.47878-0.63874 0.0832-0.2877 0.44676-0.10857 0.15923-0.93187-0.38939-0.51026 0.0887-0.4795 0.38306-1.3535c0.0129-0.81063-0.0579-1.6538 0.19144-2.4321l0.63204-2.0043 0.48511 0.74006-0.0452 0.87396c-6e-3 0.7093 0.53614 1.1689 0.56184 1.8384 0.076 1.7552 0.2298 3.4854 0.49796 5.2215 0.12123 0.7853-0.038 1.0151-0.77879 1.2322m8.9303 3.8556c-0.17914-1.1291-0.29368-2.2596-0.48512-3.3896l-0.74676-1.3408c-0.038-0.6514-0.076-1.2702-0.22346-1.9023-0.52348-2.2596-0.79146-4.564-1.2192-6.843-0.22347-1.2069-0.48511-2.3745-0.65755-3.5874l-0.25532-0.3257-0.10856-0.77263-0.15923-1.111-0.70225-1.5326-0.10857-1.8194-0.24264-1.5706-0.40206-1.4928-0.31919-0.52293-0.35755-0.65683-0.47244-0.10857-0.40858 0.63874 0.0633 0.5935-0.0452 0.3836-0.35755-1.1237-0.2298-0.41436-0.68306 0.5356-0.95756 0.37636-0.0199 1.386-0.86817 0.6695-1.0278 0.73464 0.36388 0.18456-0.038 0.47227 0.37022-0.56093 0.6894-0.05428c0.49796 0.65683-0.28734 1.0404-0.85533 1.1743l-0.35103 0.8233-0.6894-0.5175 0.18511 0.14476 0.46593-0.09047-0.19796-0.74006-0.49795-1.0911 0.14656-0.2099 0.31285-0.30037h-0.38306l-0.77878 0.09047-0.47878-0.46503c0.62552 0.0181 0.8043 0.63874 1.3023-0.03619l-0.114-1.0784c-0.33185-0.05428-2.1703 0.24247-1.7106-0.5175 0.25531-0.4216 0.58083 0.29313 0.65755-0.35827l-0.77245-0.40894c-0.47245 0.4976-1.2129 0.58807-1.3596 1.2956-0.12847 0.6514-0.25531 1.614 0.0832 2.2276l0.74042 0.1918-0.50429 0.5935-0.94471 0.75997-0.24265 1.4747c-0.2298 1.073-0.52981 2.1447-0.51063 3.249l-0.0579 0.9391-0.14114 0.33837-0.0253 1.0983c0.114 0.3438 0.98941 1.5127 0.17914 1.3915l-0.4596 0.20447-0.10857 0.74006c-0.0832 0.63874-0.15923 1.2775-0.24265 1.9151-0.1538 1.225-0.39572 2.4321-0.56816 3.6576-0.19144 1.3028-0.30634 2.6109-0.47245 3.9193-0.0706 0.58083-0.15923 1.1562-0.17913 1.7425l-0.19144 1.6538c-0.54266 0.98977-0.26816 2.2853-0.56184 3.3513-0.21062 0.75273-0.47878 1.5959-0.29367 2.3811 0.29367 1.2757 1.9278 1.5254 3.0257 1.5055 0.77879-0.01809 1.5639-0.07238 2.3427-0.14476l1.3851-0.23704 0.84266-1.3209 0.21062-1.1617c0.15923-0.56093 0.3447-1.4928 0.9192-1.7877 0.62552-0.3257 1.4427-0.37094 2.1384-0.33837 0.62553 0.01809 1.2702 0.07238 1.0404 0.79797-0.24898 0.8052 0.60635 2.2853 1.0341 2.9364 0.51714 0.7853 1.232 0.8812 2.132 0.7853 1.1172-0.12666 2.1958 0.05428 3.3129-0.05428 0.92553-0.09047 1.698-0.30037 1.7937-1.3408 0.0832-0.96986 0.038-2.0427-0.16647-2.9939-0.22347-1.0151-0.62553-1.9915-0.78512-3.0192"/>
  <path d="m199.97-56.233c0.29367-0.80339 0.29367-1.8896 0.31285-2.7449 0.0129-0.93187-0.0199-1.9086-0.27449-2.815l-0.76594-1.1291-0.92553-0.31304-0.78512 0.0062c-1.0916-0.10857-2.1895-0.18094-3.2874-0.10857l-1.2129 0.09047-1.149-0.1918c-0.68307 0.03619-1.3725 0.09047-2.0554 0.14476-1.3341-0.0062-2.6682 0.03619-3.9896-0.10857l-1.7682 0.40894 0.12847 0.42703-1.1745-0.40894c-0.63837-0.07238-1.0149 0.35646-1.481 0.70206l-0.49796 0.65683 0.0253 0.98977c0.038 0.58807-0.0959 1.111-0.21695 1.6792-0.24265 1.1237-0.12848 1.8447 0.47244 2.796l0.92553 0.8432 1.7172-0.07238c0.84266-0.10857 1.5192 0.20447 2.298 0.48493l0.4149 0.7473c0.15381 0.7654 0.30001 1.5326 0.42124 2.298l-0.21695 0.54283-0.038 1.1237c-0.0129 1.1291 0.0887 2.2533 0.15381 3.3768 0.14113 2.4831 0.35754 5.0046 0.33836 7.4877-6e-3 0.71473-0.19795 1.3661-0.1719 2.0745 0.0253 0.6134 0.0452 1.225 0.0706 1.8384 0.038 1.0784 0.0832 2.1768 0.10857 3.2556l0.0507 1.5326c0.58717 0.25513-0.1538 0.48493 0.0633 0.9952 0.33837 0.79797 0.97023 1.111 1.7937 1.2196l1.4172 0.07238 1.1362-0.37094 0.64471-0.18094 0.53614 0.47227 0.97022-0.07238 0.88736-0.58807 0.58716-0.95177 0.22347-1.111-0.2298-1.2576c0.10856-1.2449-0.10133-2.5788-0.14114-3.8301-0.0326-1.1942-0.17913-2.3874-0.1719-3.5874 0.0129-2.3235-0.20428-4.6535-0.076-6.9834 0.0579-1.0332-0.0129-2.1576-0.14114-3.1917l-0.25531-1.1689-0.82982-1.0332 0.72776-0.01809 0.12124-1.1164-0.33837-1.0477 0.50429-0.30037-0.11399-0.60074 0.48511 0.14476 0.86817-0.25513 1.4106 0.12666 1.6278-0.27504 0.86817-0.7093"/>
  <path d="m238.02-37.093c-0.90635-0.33837-1.9533-0.18094-2.898-0.16285-0.88735 0.01303-1.7364 0.09047-2.6108 0.25513-0.67022 0.12666-1.4043 0.29313-2.1256 0.3637l-0.076-0.8613c0.12847-0.67673 0.0326-1.0332-0.19144-1.6792l-0.0959-1.3281c-0.16646-0.8613-0.1851-1.7552-0.17189-2.63v-1.3155l-0.0832-1.187c0.23614-1.149-0.0129-2.3362 0.0507-3.5044 0.038-0.69664 0.12123-1.4041 0.076-2.1l-0.0507-0.91377 0.0706-0.5736-0.15923-0.65683 0.16647-0.75273c-0.0633-0.58083-0.12848-1.1689-0.19144-1.7497 0.0959-0.74006 0.076-1.5254 0.0129-2.266-0.0579-0.77806-0.42775-0.9771-0.8745-1.5706l0.23613-0.01285c0.1339 0.60074 0.58735 0.38903 0.81715-0.03619l0.1158-0.75997-0.36388-0.41436 0.14114 0.09047c0.58083-0.39627 6e-3 -1.7298-0.1339-2.2213l-0.88735-0.62607-1.0596-0.51026 0.0633 0.5356-0.71492-0.64416-1.0341-0.07238c-0.74676-0.09047-1.5512-0.10857-2.298 0.03619l-1.0406 0.49217-0.8745 0.75273c-0.33186 0.88663-0.31919 1.8639-0.26183 2.796 0.0633 1.0024 0.37021 2.1766 0.15923 3.166-0.15923 0.7473 0.0832 1.462 0.114 2.2023 0.0507 0.96444-0.076 1.9023 0.0326 2.8725 0.11399 0.9952 0.28082 1.9853 0.27449 2.9937-0.0199 1.9343-0.0507 3.8045 0.20429 5.7323 0.11399 0.8432 0.26182 1.6918 0.47878 2.5215 0.24898 0.9771-0.26816 1.8192-0.21696 2.7894l-0.0199 1.6014-0.26816 0.96444 0.0959 0.63874 0.45327-0.05428 0.31285 0.84863 0.64471-0.03619 0.3-0.09047-0.12123 0.81787-0.77245-0.03619-0.59368 0.03619c-0.7341 0.7654-0.24265 2.9619 0.68306 3.4152 1.2065 0.5935 2.9619 0.77263 4.2768 0.5555l1.5321-0.09047 0.37021-0.0063c2.0618 0.03619 4.2258-0.56817 6.2174 0.07238 0.71491 0.2298 1.6214 0.51026 2.3363 0.10857 0.79796-0.45236 1.0533-1.6846 1.0916-2.5213 0.0326-0.62607-0.19144-1.2123-0.18511-1.8321l0.12123-1.4295c0.0633-0.86854-0.1851-1.7099-1.0725-2.0427"/>
  <path d="m255.53-56.764-0.26816 0.12666 0.31285 0.22256z"/>
  <path d="m251.35-53.658 0.78512 0.6695 0.5745-1.0278 0.21062 1.1743c-0.26183 0.60074-0.52347 0.84863-1.1618 0.81787-0.60001-0.03619-0.25531-0.7853-0.29367-1.2196l-0.11399-0.41436m0.88083-1.1689 0.0706 0.83054-0.0706-0.83054m1.1937 0.01303 0.0507 0.8812-0.32552-0.5935 0.27449-0.2877m0.56166 3.1341 0.0959 1.5579-0.51063-0.64416 0.41491-0.91377m1.0086-0.28046 0.114 0.40894-0.114-0.40894m1.915-2.7768 0.0579 0.03619-0.0129 0.03619-0.0452-0.07238m-0.61286 1.4675-0.24264-0.54826 0.65755-0.58083c0.44675 0.31846 0.21062 1.2503-0.41491 1.1291m4.5194 18.646c-0.38306-0.81787-0.98941-1.5127-1.5321-2.2278l-0.58083-1.2322-0.81715-1.4747c-0.1719-0.65683-0.41491-0.94453-0.88735-1.4295l-0.65756-1.1617c-0.51696-0.7093-0.9192-1.5055-1.2767-2.298l-0.56166-1.1942-0.45959-0.61883 0.38939-0.7853c0.47244-0.58083 0.8745-1.2503 1.2192-1.9086 0.36388-0.6894 0.15924-1.0531 0.0959-1.7932l0.20429 0.10857 0.71491 0.4017 0.5043-0.5736-0.0832-0.54826 0.0633 0.14476 0.849-1.111 0.96389-0.79797 0.47878-2.0427 0.95756-0.6315-1.5447-1.2775-0.44042 0.29313 6e-3 -0.3438 0.43408 0.05428 0.28734-0.37636-0.19795-0.54283-0.58083 0.49217-0.6192 0.2678 0.3447 0.6695s-0.95104 0.40894-1.6788 0.75273l-0.56183-0.39627-0.28083-0.21713-0.55532 0.12666 0.24265-0.3637-0.9192-0.54283-0.26816 1.0079c-0.55532 1.4548-1.5-0.56093-1.8448-0.03619l-0.39572 0.3257-0.60002-0.03619c0.24265-0.6134 0.0959-0.81063 0.79797-0.94453l0.30634-0.68216h-0.038l0.038-0.0063v0.0063l0.40857 0.03619h0.16647l1.4298 0.33837 0.10133-0.03619 0.0832 0.01285 0.81063-0.0181 0.5043-0.31303 0.21695 0.43427 0.37654 0.65683 0.86166-1.1038 0.38306-0.71473 0.52981 0.05428-1.1745-1.2956 0.78512 0.10857 0.55532 0.18094 0.5298 0.05428 0.54265 0.96986 0.53614 0.0062-0.38939-1.2123-0.41491-0.39627v-0.30037c-0.85514-0.85587-2.0808-1.5-3.1277-2.081l-0.90635 0.3836c-0.33837 0.60074 0.21695 0.67673 0.58716 0.3257l-0.54265 0.75997-0.37655 0.31303-0.78512-0.5175c-0.21062 0.46684-2.049 1.4928-1.7682 2.1066 0.2745 0.6134-2.4767 3.1023-1.098 1.8576l0.0706-0.05428c-0.55532 0.5356-0.97656 1.2123-1.3404 1.8894-0.3447 0.62607-0.63204 1.386-1.0278 2.0427l0.0253-0.37094 0.16646-0.75273c-0.0633-0.58083-0.12847-1.1671-0.19143-1.7497 0.0959-0.74006 0.076-1.5254 0.0129-2.266-0.0579-0.77806-0.42757-0.9771-0.8745-1.5706l0.23613-0.01285c0.14114 0.60074 0.58717 0.38903 0.81697-0.03619l0.1158-0.75997-0.35755-0.41436 0.1339 0.09047c0.58083-0.39627 6e-3 -1.7298-0.1339-2.2215l-0.88735-0.62607-1.0596-0.51026 0.0633 0.5356-0.71491-0.64416-1.0341-0.07238c-0.74676-0.09047-1.5511-0.10857-2.298 0.03619l-1.0404 0.49217-0.87451 0.75273c-0.33185 0.88663-0.31919 1.8639-0.26165 2.7958 0.0706 1.0024 0.37022 2.1768 0.15924 3.1662-0.15381 0.7473 0.0832 1.462 0.11399 2.2023 0.0507 0.96444-0.076 1.9023 0.0326 2.8725 0.114 0.9952 0.28083 1.9851 0.27449 2.9937-0.0129 1.9341-0.0507 3.8045 0.21062 5.7323 0.10857 0.84863 0.25532 1.6918 0.47245 2.5213 0.24898 0.9771-0.26816 1.8194-0.21695 2.7896l-0.0199 1.6014-0.26816 0.96444 0.0959 0.63874 0.45327-0.05428 0.31285 0.84863 0.64471-0.03619 0.30001-0.09047-0.12124 0.81787-0.77245-0.03619-0.59368 0.03619c-0.73409 0.7654-0.24265 2.9619 0.68307 3.415 1.2064 0.5935 2.9619 0.77263 4.2768 0.5555 0.89368-0.14476 1.7172 0.12666 2.4512-0.52293 0.56165-0.4976 0.79797-1.1816 0.79797-1.9215 0-0.8993-0.24898-1.7877-0.44042-2.6682v-1.3589l-0.10857-1.6792c0.12847-0.67673 0.0326-1.0332-0.18511-1.6792l-0.0326-0.73464 0.48512 0.62607c0.6447 0.77263 0.53613 1.7552 0.99573 2.6109l0.67022 1.462 0.1719 0.98253 0.35755 0.5356 0.38306-0.2479 0.6447 0.63874 0.5745-0.30037 0.2298-0.20447 0.24265 0.79254-0.72125 0.29313-0.51062 0.29313c-0.33837 1.0024 1.0404 2.7831 2.0746 2.796 1.3404 0.01809 3.0066-0.56817 4.1045-1.3281 0.74676-0.51026 1.6086-0.6134 1.9916-1.5199 0.29367-0.6894 0.21695-1.4114-0.10133-2.0745"/>
  <path d="m262.14-22.892c0.60635 0.01809 1.2447-0.18094 1.8576-0.23523 0.61286-0.05428 1.2255-0.12666 1.832-0.18094 0.56165-0.05428 2.847 0.1918 2.8853-0.44693l-0.10132-1.6792-0.0199-0.94453-0.11399-0.53017-0.0129-0.54283-0.1538-0.85587-0.0452-1.6014c-0.038-1.0911-0.53614-2.081-0.33837-3.1788 0.10857-0.58083 0.33837-0.90653-0.0507-1.4168l-0.67655-0.10857-0.12848 1.4819c0.0887 0.60616-0.0129 0.89387-0.22346 1.4421l-0.14657 1.3987c-0.26816 0.56093-0.1538 0.8812-6e-3 1.4874l-0.75961 1.1237 0.0959 0.98977-0.67655 0.98977-0.27449 0.9572-1.2384-0.07238-0.79145-0.63874-1.0022-0.09047-0.74043-0.38903-1.1235 0.18094-0.99574 0.79797-1.6214 0.4397h-0.0507v1.6719c1.5321-0.12666 3.0831-0.12666 4.6215-0.05428"/>
  <path d="m227.51-22.125 1.6086-0.12666c0.60634-0.01809 1.1745 0.14476 1.7874 0.10857l1.666-0.03619c0.98307 0.14476 1.9341 0.03619 2.9236 0.14476 1.1808 0.12666 2.4895-0.12666 3.6768-0.20447l1.3341 0.12666 1.1043-0.27504 1.1618 0.21713 1.647-0.27504 1.4618-0.05428h1.3341c1.149 0.14476 2.3363-0.09047 3.4917-0.10857 0.88084-0.01809 1.9278 0.2099 2.7831 0.07238l0.93205-0.20447 1.0851 0.03619c0.7341-0.14476 1.4937-0.10857 2.2278 0.07238l0.86818-0.16285 1.1363-0.07238 0.6894 0.10857 0.93186-0.18456 1.4937 0.14476 2.9683-0.51026 0.84266-1.5199-4.8322-0.79073c-0.75327 0.03619-1.5129-0.01809-2.2661-0.07238-0.65104-0.03619-1.4682 0.19723-1.6851-0.5555l-0.23614-1.6086-0.67655 0.12666-0.47878 0.3058-1.2065 0.05428 0.12123 1.3842-0.73409 1.0983-0.70206-1.3408-0.35755 1.0658c-0.65104 0.03619-0.49145-0.7093-0.5745-1.111l-0.9192-0.18456 0.12847 0.9771-0.4596 0.66407-0.74042-0.01809-1.1618 0.56093-1.6725-0.10857-0.71492 0.35103-0.72124-0.26237-0.70207-0.2497-0.77245 0.14476c-0.62553 0.2298-1.2957-0.09047-1.9341-0.09047-0.59368 0-0.6447 0.46684-1.1682 0.5754l-1.2129 0.16285-0.37021-0.14476-0.97674-0.12666-0.51063 0.5356-0.60001-0.14476h-1.3341l-0.68307-0.65683-1.5129-0.01809-0.61919 0.31846-0.5043-0.38903-0.60001-0.35103-0.25531 0.62607-2.0873 0.14476-0.31919 0.29313-0.70858-0.05428c-0.72776-0.2497-1.3916 0.27504-2.1703 0.2877-0.49145 0.01285-2.0491 0.49217-1.1618 1.2123l0.93838 0.09047"/>
  <path d="m260.01-71.277c-0.84266-0.03619-1.7364-0.07238-2.5725 0.0062l-1.0916 0.03619-0.59368-0.18456-1.3086 0.4397-1.5702-0.2678c-0.58716 0.01809-1.2 0.09047-1.7874 0.01809-1.0725-0.12666-2.1703-0.01809-3.2364 0.12666-1.0596 0.14476-2.0108 0.10857-3.064-0.10857l-1.647-0.22256-1.4427 0.1918c-0.75327-0.07238-1.7619-0.16285-2.4065 0.33113-0.60001 0.4596 0.0706 1.0603 0.41491 1.5055l0.54898-0.10857 0.79146 0.54283 0.86817 0.81063 1.2957-0.21713 0.72776 0.83596 1.0023 0.14476c0.55532-0.23523 1.0725-1.1237 1.7363-1.0151 0.73409 0.12666 1.1874 0.52293 1.9086 0.0063l1.0916-0.3836 0.72776 0.49217 0.53614-0.79797 1.2384 0.4017 1.5958-0.18094 0.64471 0.5736 1.449 0.01809 0.92553 0.56817 0.68307-0.41436 0.32552 0.4216 0.86817 0.05428c0.60635-0.10857 1.3725-0.31846 1.8639-0.72197l0.52981-0.70206 0.0452-0.05428v-2.2339l-1.098 0.07238"/>
  <path d="m263.97-68.648 0.30634-1.5833-0.86817-1.149-1.6725 0.03619-0.82348 0.25513c-0.81063-0.07238-1.6214-0.14476-2.4256-0.28046l-0.74676 0.07238-1.6533 0.09047-0.83615-0.03619v1.8959l1.2576 0.0062 1.5066-0.28046 1.2831 0.48493 0.90002 0.6315 0.98308 0.42703 1.2831 0.14476 0.26816 0.8613 0.85532 0.5555 0.37021 1.1291c0.75961-0.9192 0.19144-2.2533 0.0129-3.2746"/>
 </g>
</svg>
