<svg width="799.98" height="344.01" version="1.1" viewBox="0 0 211.66 91.021" xmlns="http://www.w3.org/2000/svg">
 <g transform="translate(-37.285 109.63)">
  <path d="m49.587-109.63h37.729l151.2 6.5215v37.193l-198.96 5.5815-2.2735 0.02464v-4.437z" fill="#fff" style="paint-order:markers stroke fill"/>
  <path d="m40.096-56.621h206.05v36.943h-206.05z" fill="#fff" style="paint-order:markers stroke fill"/>
  <g transform="matrix(6.7791,0,0,-6.7791,87.5,-44.489)">
   <path d="m0 0-0.305-1.54h0.62l-0.302 1.54z" fill="#971a1f"/>
  </g>
  <g transform="matrix(6.7791,0,0,-6.7791,235.98,-47.65)">
   <path d="m0 0-0.995-3.356h-0.598l1.027 3.388h-1.041v0.522h1.607zm-3.175-3.792h-0.446l1.432 4.8h0.445zm-0.657 0.434h-0.573v0.586h-1.143v0.529l0.827 2.818h0.608l-0.861-2.818h0.569v1.122h0.573v-1.122h0.273v-0.529h-0.273zm-1.846 0.562v-0.562h-1.709v0.53l1.034 1.917c0.102 0.193 0.102 0.305 0.102 0.519 0 0.2 0 0.436-0.281 0.436-0.169 0-0.282-0.099-0.282-0.281v-0.321h-0.573v0.309c0 0.471 0.383 0.857 0.861 0.857 0.595 0 0.848-0.463 0.848-0.988 0-0.382-0.011-0.481-0.189-0.819l-0.845-1.597zm-2.77 2.33h-0.62v0.138c0 0.279-0.122 0.514-0.438 0.514-0.342 0-0.419-0.27-0.419-0.549 0-0.329 0.03-0.442 0.354-0.568l0.472-0.186c0.548-0.202 0.651-0.544 0.651-1.164 0-0.717-0.268-1.248-1.07-1.248-0.602 0-1.058 0.436-1.058 1.009v0.228h0.621v-0.191c0-0.222 0.121-0.437 0.437-0.437 0.419 0 0.45 0.244 0.45 0.633 0 0.455-0.055 0.526-0.359 0.645l-0.444 0.18c-0.533 0.213-0.674 0.562-0.674 1.091 0 0.646 0.353 1.165 1.065 1.165 0.618 0 1.032-0.489 1.032-0.962zm-2.373 0.652h-1.009v-1.249h0.85v-0.573h-0.85v-1.248h1.009v-0.608h-1.628v4.25h1.628zm-2.066-3.678h-0.584l-0.949 2.556h-0.011v-2.556h-0.62v4.25h0.596l0.937-2.561h0.01v2.561h0.621zm-2.62 0h-0.62v4.25h0.62zm-1.007 0h-1.627v4.25h0.62v-3.642h1.007zm-2.002 1.163c0-0.787-0.413-1.163-1.142-1.163h-0.863v4.25h0.917c0.701 0 1.088-0.411 1.088-1.099zm-2.773-1.163-0.183 0.912h-0.844l-0.182-0.912h-0.622l0.968 4.25h0.516l0.967-4.25zm-1.886 1.856h-0.85v-1.248h0.779l-0.145-0.608h-1.254v4.25h1.627v-0.572h-1.007v-1.249h0.85zm-1.932-1.856h-0.62v1.892h-0.766v-1.892h-0.621v4.25h0.621v-1.821h0.766v1.821h0.62zm-4.203-0.792h31.223v5.765h-31.223z" fill="#971a1f"/>
  </g>
  <g transform="matrix(6.7791,0,0,-6.7791,103,-48.908)">
   <path d="m0 0h-0.285v-3.105h0.285c0.348 0 0.482 0.167 0.482 0.531v2.048c0 0.335-0.117 0.526-0.482 0.526" fill="#971a1f"/>
  </g>
  <g transform="matrix(6.7791,0,0,-6.7791,37.286,-109.63)">
   <path d="m0 3.0719e-6v-6.98l2.082 6.98z" fill="#26275d"/>
  </g>
  <g transform="matrix(6.7791,0,0,-6.7791,86.388,-95.422)">
   <path d="m0 0c-0.262-1e-3 -0.464-0.248-0.464-0.526l-2e-3 -2.128c1e-3 -0.28 0.21-0.505 0.466-0.505 0.255 0 0.472 0.217 0.473 0.499l9e-3 2.134c-3e-3 0.283-0.222 0.524-0.482 0.526" fill="#26275d"/>
  </g>
  <g transform="matrix(6.7791,0,0,-6.7791,232.93,-71.589)">
   <path d="m0 0c-0.312-0.372-0.75-0.573-1.275-0.573-0.491 0-0.89 0.137-1.191 0.389-0.285 0.243-0.484 0.59-0.581 1.033l0.995 0.241c0.048-0.192 0.133-0.343 0.257-0.447 0.14-0.117 0.32-0.171 0.543-0.171 0.149 0 0.272 0.04 0.36 0.112 0.09 0.074 0.142 0.181 0.142 0.3 0 0.101-0.02 0.186-0.063 0.252-0.066 0.1-0.169 0.15-0.296 0.193-0.131 0.044-0.29 0.082-0.485 0.146-0.442 0.145-0.763 0.317-0.971 0.544-0.208 0.231-0.311 0.516-0.312 0.918 0 0.463 0.155 0.861 0.435 1.146 0.279 0.286 0.685 0.458 1.201 0.458 0.377 0 0.69-0.108 0.942-0.312 0.24-0.193 0.423-0.475 0.545-0.845l-0.896-0.329c-0.06 0.158-0.137 0.28-0.242 0.361-0.116 0.091-0.259 0.131-0.429 0.131-0.132 0-0.246-0.047-0.329-0.124s-0.133-0.186-0.133-0.304l0.059-0.217c0.062-0.085 0.154-0.131 0.271-0.173 0.117-0.039 0.262-0.076 0.435-0.129 0.389-0.125 0.734-0.204 1.026-0.502 0.236-0.24 0.362-0.589 0.362-1.025 0-0.406-0.13-0.788-0.37-1.073m-4.965-0.527-0.589 3.128-0.573-3.128h-0.976l-1.039 4.905h1.052l0.602-3.202 0.579 3.202h0.888l0.611-3.116 0.614 3.116h0.829l-1.045-4.905zm-3.389 0h-2.871v4.905h2.848v-1.046h-1.814v-0.871h1.492v-0.957h-1.492v-0.986h1.837zm-3.159 9e-3h-1.015l-1.662 3.076v-3.072l-1.056-4e-3 0.012 4.879h1.233l1.468-2.697v2.7l1.02-2e-3zm-5.629-4e-3 -0.705 1.298-0.688-1.296-1.302-2e-3 1.325 2.524-1.274 2.351h1.329l0.601-1.107 0.582 1.107h1.326l-1.24-2.335 1.379-2.54zm-4.467-0.057c-0.628 0-1.199 0.276-1.611 0.724-0.412 0.446-0.667 1.062-0.667 1.742 0 0.681 0.255 1.297 0.667 1.742 0.412 0.448 0.983 0.724 1.611 0.724 0.63 0 1.199-0.276 1.611-0.724 0.412-0.445 0.666-1.061 0.666-1.742 0-0.68-0.254-1.296-0.666-1.742-0.412-0.448-0.981-0.724-1.611-0.724m-2.624 2.911v-1.239h-1.311v-1.623h-1.212v4.889h2.735l0.079-1.242h-1.59v-0.785zm2.458 3.279-1.933-2.035-0.067 1.047h-0.719l0.681 0.988h-1.258l-0.519-0.988h-1.429v-2.732l-1.84-3.516v-0.037017l0.03 1.66e-5 1.81 2.625v-0.875l-1.662-1.75h31.044v7.273z" fill="#26275d"/>
  </g>
 </g>
</svg>
