<svg width="800.02" height="234.98" version="1.1" viewBox="0 0 1889.7 555.06" xmlns="http://www.w3.org/2000/svg">
 <g transform="matrix(9.2166 0 0 9.2166 -4.2482e-5 -4.9856e-5)">
  <g transform="matrix(5.7974 0 0 -5.7974 30.106 .28408)">
   <path d="m0 0c-1.375 0-2.669-0.536-3.64-1.508-0.974-0.971-1.507-2.263-1.507-3.639 0-1.373 0.533-2.665 1.507-3.638 0.971-0.969 2.265-1.509 3.64-1.509 1.374 0 2.666 0.54 3.637 1.509 0.974 0.973 1.511 2.265 1.511 3.638 0 1.376-0.537 2.668-1.511 3.639-0.971 0.972-2.263 1.508-3.637 1.508" fill="#111216"/>
  </g>
  <g transform="matrix(5.7974 0 0 -5.7974 30.106 .28408)">
   <path d="m0 0c-1.375 0-2.669-0.536-3.64-1.508-0.974-0.971-1.507-2.263-1.507-3.639 0-1.373 0.533-2.665 1.507-3.638 0.971-0.969 2.265-1.509 3.64-1.509 1.374 0 2.666 0.54 3.637 1.509 0.974 0.973 1.511 2.265 1.511 3.638 0 1.376-0.537 2.668-1.511 3.639-0.971 0.972-2.263 1.508-3.637 1.508z" fill="none"/>
  </g>
  <g transform="matrix(5.7974 0 0 -5.7974 30.106 .28408)">
   <path d="m0 0c-1.375 0-2.669-0.536-3.64-1.508-0.974-0.971-1.507-2.263-1.507-3.639 0-1.373 0.533-2.665 1.507-3.638 0.971-0.969 2.265-1.509 3.64-1.509 1.374 0 2.666 0.54 3.637 1.509 0.974 0.973 1.511 2.265 1.511 3.638 0 1.376-0.537 2.668-1.511 3.639-0.971 0.972-2.263 1.508-3.637 1.508" fill="#fff"/>
  </g>
  <g transform="matrix(5.7974 0 0 -5.7974 30.106 59.534)">
   <path d="m0 0c2.805 0 5.075 2.27 5.075 5.074 0 2.801-2.27 5.078-5.075 5.078l1.143-0.179 0.661-0.244 0.637-0.44 0.585-0.584 0.416-0.705s0.972-1.336-0.222-3.791l-0.182-1.298-0.31-0.283-0.351-0.234-0.106-0.574-0.789-0.384-0.194-0.433-0.04-0.282-0.287-0.364-0.128-0.17z" fill="#ed1c24"/>
  </g>
  <g transform="matrix(5.7974 0 0 -5.7974 39.73 5.0379)">
   <path d="m0 0c1.07-0.58 1.793-1.711 1.793-3.012 0-1.892-1.532-3.429-3.424-3.429-0.658 0-1.273 0.187-1.795 0.508" fill="#2056ae"/>
  </g>
  <g transform="matrix(5.7974 0 0 -5.7974 19.868 39.417)">
   <path d="m0 0c-0.979 0.603-1.629 1.685-1.629 2.921 0 1.89 1.532 3.423 3.424 3.423 0.593 0 1.147-0.148 1.631-0.411" fill="#ed1c24"/>
  </g>
  <g transform="matrix(5.7974 0 0 -5.7974 39.996 5.0379)">
   <path d="m0 0-1.044-0.504 0.393-0.088-1.426-0.683 0.924-0.155-1.755-1.043 1.125 0.09-1.617-1.217 0.987 0.048-1.045-0.938 0.768 0.048-0.74-1.478 1.308 0.43-0.385 0.169 1.047 0.462-0.446 0.153 1.583 0.814h-1.169l1.601 1.065-1.341-0.064 1.555 1.03-1.106 0.125 1.029 0.925-0.674-0.14z" fill="#fff"/>
  </g>
  <g transform="matrix(5.7974 0 0 -5.7974 37.585 10.893)">
   <path d="m0 0 0.675 0.138-0.051 0.099-1.031-0.92-0.096-0.089 0.129-0.012 1.11-0.127-0.03 0.11-1.551-1.034-0.176-0.116 0.213 0.014 1.335 0.061-0.034 0.105-1.599-1.06-0.164-0.106h1.364l-0.026 0.109-1.585-0.817-0.12-0.063 0.129-0.043 0.445-0.154-4e-3 0.107-1.046-0.457-0.122-0.057 0.122-0.055 0.384-0.166 4e-3 0.108-1.307-0.426 0.073-0.085 0.738 1.476 0.047 0.09-0.103-0.01-0.769-0.043 0.042-0.102 1.046 0.941 0.122 0.106-0.165-5e-3 -0.984-0.049 0.039-0.108 1.615 1.221 0.16 0.121-0.201-0.017-1.123-0.094 0.036-0.106 1.752 1.045 0.138 0.082-0.159 0.028-0.922 0.15 0.015-0.108 1.424 0.674 0.153 0.075-0.161 0.037-0.396 0.095 0.013-0.111 1.045 0.502-0.08 0.083-0.428-0.956-0.049-0.106zm0.391 1.06-1.044-0.503-0.15-0.072 0.164-0.037 0.395-0.094-0.013 0.111-1.426-0.679-0.094-0.062 0.11-0.049 0.922-0.153-0.021 0.107-1.752-1.042-0.14-0.102 0.173-6e-3 1.122 0.091-0.038 0.101-1.617-1.216-0.124-0.097 0.163-5e-3 0.986 0.043-0.045 0.107-1.045-0.941-0.086-0.096 0.13-4e-3 0.769 0.045-0.055 0.082-0.738-1.474 0.021-0.069 0.048-0.014 1.307 0.435 0.145 0.046-0.14 0.058-0.385 0.174v-0.112l1.046 0.462 0.134 0.058-0.138 0.051-0.446 0.157 7e-3 -0.106 1.583 0.811 0.142 0.081-0.167 0.032h-1.169l0.032-0.11 1.601 1.065 0.144 0.105h-0.18l-1.337-0.063 0.034-0.107 1.552 1.034 0.094 0.072-0.12 0.031-1.105 0.127 0.032-0.105 1.032 0.923 0.133 0.116-0.183-0.014-0.678-0.137 0.063-0.082 0.43 0.95-0.017 0.037z" fill="#111216"/>
  </g>
  <g transform="matrix(5.7974 0 0 -5.7974 39.73 5.0379)">
   <path d="m0 0c1.07-0.58 1.793-1.711 1.793-3.012 0-1.892-1.532-3.429-3.424-3.429-0.658 0-1.273 0.187-1.795 0.508" fill="none" stroke="#231f20" stroke-miterlimit="6" stroke-width=".099"/>
  </g>
  <g transform="matrix(5.7974 0 0 -5.7974 19.868 39.417)">
   <path d="m0 0c-0.979 0.603-1.629 1.685-1.629 2.921 0 1.89 1.532 3.423 3.424 3.423 0.593 0 1.147-0.148 1.631-0.411" fill="none" stroke="#231f20" stroke-miterlimit="6" stroke-width=".099"/>
  </g>
  <g transform="matrix(5.7974 0 0 -5.7974 30.106 59.534)">
   <path d="m0 0c-2.805 0-5.08 2.27-5.08 5.074 0 2.801 2.275 5.078 5.08 5.078l-1.051-0.164-0.609-0.211-0.753-0.5-0.586-0.616-0.442-0.802-0.26-0.96-0.026-0.755 0.026-0.725 0.43-1.407 0.31-1.334 0.299-0.297 0.054-0.34 0.271-0.439 0.741-0.103 0.103-0.173 0.195-0.517 0.054-0.248 0.243-0.051 0.183-0.285z" fill="#2056ae"/>
  </g>
  <g transform="matrix(5.7974 0 0 -5.7974 27.596 42.489)">
   <path d="m0 0s0.385 0.015 0.434-0.434c0 0 0.015 0.342 0.337 0.42z" fill="#111216"/>
  </g>
  <g transform="matrix(5.7974 0 0 -5.7974 42.704 46.953)">
   <path d="m 0,0 -0.08,-0.229 -0.054,-0.309 0.054,-0.015 c 0.021,0.028 0.091,0.133 0.111,0.252 C 0.051,-0.178 0.064,0 0.064,0 L 0.028,0.035 0,0" fill="#fff"/>
  </g>
  <g transform="matrix(5.7974 0 0 -5.7974 42.704 46.953)">
   <path d="m0 0-0.08-0.229-0.054-0.309 0.054-0.015c0.021 0.028 0.091 0.133 0.111 0.252 0.02 0.123 0.033 0.301 0.033 0.301l-0.036 0.035z" fill="none" stroke="#2056ae" stroke-width=".017"/>
  </g>
  <g transform="matrix(5.7974 0 0 -5.7974 44.101 46.199)">
   <path d="m0 0-0.076-0.041-9e-3 -0.053-0.045-0.33 0.02-0.14c0.069 0.02 0.087 0.236 0.097 0.33l0.013 0.234" fill="#fff"/>
  </g>
  <g transform="matrix(5.7974 0 0 -5.7974 44.101 46.199)">
   <path d="m0 0-0.076-0.041-9e-3 -0.053-0.045-0.33 0.02-0.14c0.069 0.02 0.087 0.236 0.097 0.33z" fill="none" stroke="#2056ae" stroke-width=".017"/>
  </g>
  <g transform="matrix(5.7974 0 0 -5.7974 28.761 47.997)">
   <path d="m0 0s0.277-0.24 0.121-0.779c0 0-0.042-0.155-0.138 0.019l-0.081 0.166v0.157l0.06 0.367 0.038 0.07" fill="#111216"/>
  </g>
  <g transform="matrix(5.7974 0 0 -5.7974 31.155 48.171)">
   <path d="m0 0s-0.147-0.123-0.169-0.34c-0.019-0.215 0.062-0.42 0.062-0.42s8e-3 -0.056 0.122 0.021l0.083 0.061s0.059 0.01 6e-3 0.107c-0.051 0.098-0.123 0.266-0.094 0.401l5e-3 0.052-0.015 0.118" fill="#111216"/>
  </g>
  <g transform="matrix(5.7974 0 0 -5.7974 40.698 46.026)">
   <path d="m0 0h-3e-3zm1.516 2.402v-2e-3c-0.01-0.025-0.261-0.589-0.315-0.976 0 0-0.049-0.245-0.039-0.348 0.012-0.107 0.012-0.364-0.029-0.496-0.044-0.131-0.218-0.203-0.218-0.203l-0.111-0.018 0.099 0.09c0.167 0.127 0.175 0.209 0.202 0.291 0.024 0.078 0 0.295-0.021 0.412-0.019 0.116-6e-3 0.284-6e-3 0.284-0.081-0.091-0.066-0.354-0.047-0.51 0.018-0.158-0.036-0.249-0.055-0.289l-0.166-0.149h-0.083l0.115 0.112 0.131 0.369v0.306l0.015 0.17c0 0.029 0.05 0.127 0.096 0.229 0.073 0.158 0.134 0.334 0.134 0.334s-0.213-0.377-0.292-0.514c-0.075-0.142-0.09-0.512-0.09-0.512 0.028-0.335-0.31-0.567-0.418-0.567s-0.539 0.232-0.966 0.198c-0.434-0.031-0.912-0.319-0.912-0.484 0-0.178 0.402-0.097 0.402-0.097l1.547 0.146h3e-3l7e-3 -0.043c-0.025-0.054-0.296-0.061-0.403-0.103l-0.096-0.032 0.186-0.133-0.04-0.322c-0.014-0.032-0.014-0.344-0.412-0.318l-0.282 0.017-0.055 4e-3 -0.461-0.264 0.305-2e-3s0.054-0.065 0.04-0.215l-0.031-0.042-0.04-0.067-0.04-0.045-0.062 0.086-0.045-0.052-0.187-0.227-0.124-0.014-0.094-0.047-0.178-0.029-0.136 0.057-0.121-0.105-0.091 0.048-0.093 0.067-0.108-0.012-0.077 0.074-0.116 0.02-0.129-0.082-0.113 0.023-0.056 0.143-0.058 0.175-0.079 0.264c-0.021 0.094-0.062 0.055-0.062 0.055l-0.117 7e-3c-0.178-7e-3 -0.256 0.17-0.334 0.17-0.109 0-0.185 0.053-0.223 0.08-0.039 0.022-0.164 0.149-0.117 0.319 0.049 0.166 0.256 0.134 0.256 0.134l0.031 0.026-0.063 0.108 0.112 0.064 0.145-8e-3 0.54 0.014 0.174 0.072 0.107-0.047 0.047-0.203v-0.115l0.078 0.076s0 0.115 0.031 0.211c0.05 0.146-0.026 0.127-0.163 0.229-0.069 0.05-0.208 0.138-0.359 0.198-0.165 0.073-0.343 0.12-0.402 0.13-0.109 0.024-0.534 0.024-0.604 0.024s-0.27-0.038-0.48 0.078-0.319 0.387-0.326 0.419c-7e-3 0.025 0.016 0.201 0.047 0.402 0.029 0.203-0.117 0.45-0.117 0.45l-0.086 0.1c0.071-0.12 0.152-0.475 0.124-0.598-0.038-0.168-0.093-0.25-0.124-0.354-0.064-0.225 0.279-0.475 0.279-0.475-0.269 0.045-0.412 0.35-0.338 0.497 0.069 0.148 0.099 0.28 0.105 0.455 9e-3 0.18-0.068 0.281-0.372 0.728-0.3 0.451-0.417 1.028-0.417 1.028 0.021-0.646 0.411-1.127 0.535-1.377 0.124-0.245 0.069-0.644 6e-3 -0.805-0.059-0.159-6e-3 -0.233 0.042-0.385 0.045-0.157 0.355-0.451 0.355-0.451-0.279 9e-3 -0.411 0.373-0.45 0.433-0.038 0.062-6e-3 0.456 0.016 0.639 0.023 0.176-0.093 0.442-0.093 0.442l-0.294 0.642c-0.143 0.264-0.215 0.58-0.246 0.774-0.041 0.344-0.045 0.64-0.045 0.644v2e-3l-7e-3 0.239c0 2.052 1.663 3.711 3.708 3.711 2.047 0 3.711-1.659 3.711-3.711 0-0.585-0.133-1.144-0.397-1.671m0.513 1.671c0 2.111-1.718 3.826-3.827 3.826-2.107 0-3.825-1.715-3.825-3.826l6e-3 -0.244c4e-3 -0.03-0.013-0.399 0.041-0.79 0 0 0.142-0.994 0.236-1.277 0.171-0.516 0.146-0.684 0.146-0.684s-0.028-0.26-0.022-0.378c0.035-0.543 0.68-0.729 0.68-0.729-0.105-0.706 0.459-0.789 0.529-0.811l0.604-0.056 0.129-0.413 0.08-0.207 0.025-0.265 0.153-0.121 0.225-0.041 0.085-0.303 0.908-0.108 0.906 0.184 0.047 0.118s0.123 0.128 0.223 0.234c0.102 0.106 0.113 0.177 0.113 0.177v0.189l0.044 0.166 0.12 0.235 0.021 0.086 0.367-2e-3c0.074 4e-3 0.409 0.013 0.529 0.285 0.111 0.252 0.146 0.678 0.165 0.817 0.475 0.09 0.575 0.415 0.584 0.65 8e-3 0.112 0 0.226-5e-3 0.332l-7e-3 0.172c0 0.353 0.307 1.047 0.311 1.065 0.273 0.534 0.409 1.115 0.409 1.719" fill="#111216"/>
  </g>
  <g transform="matrix(5.7974 0 0 -5.7974 10.963 34.779)">
   <path d="m0 0s0.215-0.227 0.198-0.77c-0.013-0.548-0.13-0.777 0.527-1.044 0 0-0.62 0.041-0.641 0.627l0.061 0.34s0.032 0.334-0.145 0.847" fill="#fff"/>
  </g>
  <g transform="matrix(5.7974 0 0 -5.7974 17.155 46.026)">
   <path d="m0 0-0.092-0.035-0.064 0.051 0.101 0.076z" fill="#fff"/>
  </g>
  <g transform="matrix(5.7974 0 0 -5.7974 18.494 46.431)">
   <path d="m0 0-0.077-0.043-0.056 0.059 0.083 0.079z" fill="#fff"/>
  </g>
  <g transform="matrix(5.7974 0 0 -5.7974 20.668 46.779)">
   <path d="m0 0-0.055-0.037-0.041 0.049 0.062 0.072z" fill="#fff"/>
  </g>
  <g transform="matrix(5.7974 0 0 -5.7974 19.526 46.605)">
   <path d="m0 0-0.044-0.043-0.058 0.059 0.086 0.079z" fill="#fff"/>
  </g>
  <g transform="matrix(5.7974 0 0 -5.7974 15.804 47.939)">
   <path d="m0 0s0.054-0.297 0.2-0.35c0.147-0.052-0.014 0.107-0.038 0.157l-0.044 0.249-0.083 0.024-0.035-0.08" fill="#fff"/>
  </g>
  <g transform="matrix(5.7974 0 0 -5.7974 17.613 47.765)">
   <path d="m0 0s-0.057-0.175 0.092-0.332l0.054-0.045 0.045-8e-3 -0.077 0.132c-0.012 0.027-0.064 0.093-0.059 0.22l-0.023 0.051-0.032-0.018" fill="#fff"/>
  </g>
  <g transform="matrix(5.7974 0 0 -5.7974 18.784 47.823)">
   <path d="m0 0 0.03-0.199 0.086-0.121 0.023 0.02-0.027 0.062-0.026 0.145-0.024 0.118z" fill="#fff"/>
  </g>
  <g transform="matrix(5.7974 0 0 -5.7974 37.393 51.823)">
   <path d="m0 0-0.017-0.153-8e-3 -0.08 0.047 0.053 0.101 0.202-0.039 0.058-0.078-0.051z" fill="#fff"/>
  </g>
  <g transform="matrix(5.7974 0 0 -5.7974 22.581 51.591)">
   <path d="m0 0 0.031-0.08v-0.246s0-0.141-0.05-0.044c-0.052 0.097-0.052 0.198-0.052 0.198v0.121l0.011 0.056 0.06-5e-3" fill="#fff"/>
  </g>
  <g transform="matrix(5.7974 0 0 -5.7974 23.711 51.939)">
   <path d="m0 0 0.078-0.025 0.045-0.092s0.045-0.16 0.045-0.26c0-0.094-0.039-0.049-0.039-0.049l-0.031 0.088-0.032 0.086v-0.137l5e-3 -0.139-5e-3 -0.17-0.105-0.041c-0.045 0.02-0.04 0.096-0.045 0.224-7e-3 0.134 0.039 0.209 0.039 0.209l0.07 0.103-0.012 0.086-0.013 0.117" fill="#fff"/>
  </g>
  <g transform="matrix(5.7974 0 0 -5.7974 25.248 54.896)">
   <path d="m0 0s-0.042-0.11-0.024-0.219c0.011-0.102 0.011-0.175 0.029-0.217l0.079-0.133 0.059 0.15-0.02 0.291-0.057 0.15s-0.052 0.073-0.066-0.022" fill="#fff"/>
  </g>
  <g transform="matrix(5.7974 0 0 -5.7974 27.016 55.939)">
   <path d="m0 0s-0.069-0.085-0.064-0.227c8e-3 -0.144 0.018-0.187 0.045-0.208 0.027-0.018 0.124-0.09 0.164 0.115 0.038 0.209 8e-3 0.309 8e-3 0.309l-0.08 0.073-0.073-0.062" fill="#fff"/>
  </g>
  <g transform="matrix(5.7974 0 0 -5.7974 28.645 56.519)">
   <path d="m0 0-0.013-0.111-7e-3 -0.188 0.078-0.075c0.026-0.03 0.123-0.062 0.137 0.095 0.011 0.156-0.014 0.288-0.014 0.288l-0.117 0.057-0.064-0.066" fill="#fff"/>
  </g>
  <g transform="matrix(5.7974 0 0 -5.7974 30.79 56.229)">
   <path d="m0 0-0.044-0.188 0.024-0.174 0.17-0.053c0.052 0.039 0.07 0.059 0.083 0.221l-0.1 0.237-0.122-0.022-0.011-0.021" fill="#fff"/>
  </g>
  <g transform="matrix(5.7974 0 0 -5.7974 32.79 56.345)">
   <path d="m0 0-0.015-0.176 0.047-0.188c0.046-0.032 0.16-0.07 0.142 0.171-0.014 0.212-0.046 0.232-0.046 0.232l-0.07 0.036-0.058-0.075" fill="#fff"/>
  </g>
  <g transform="matrix(5.7974 0 0 -5.7974 35.034 54.896)">
   <path d="m0 0s-0.078-0.099-0.086-0.213c-5e-3 -0.115-0.017-0.123-5e-3 -0.215 0.013-0.092 0.059-0.221 0.118-0.037 0.058 0.172 0.031 0.388 0.031 0.388l-0.045 0.1z" fill="#fff"/>
  </g>
  <g transform="matrix(5.7974 0 0 -5.7974 36.471 53.852)">
   <path d="m0 0-0.051-0.154-0.031-0.119 0.013-0.159 0.079 0.039 0.052 0.077s0.016 0.064 0 0.195l-0.017 0.129-0.045-8e-3" fill="#fff"/>
  </g>
  <g transform="matrix(5.7974 0 0 -5.7974 50.646 50.663)">
   <path d="m0 0c-0.947-0.945-2.205-1.465-3.543-1.465-1.337 0-2.596 0.52-3.542 1.465-0.948 0.945-1.468 2.203-1.468 3.545 0 1.339 0.52 2.6 1.468 3.547 0.946 0.937 2.205 1.463 3.542 1.463 1.338 0 2.596-0.526 3.543-1.463 0.945-0.947 1.466-2.208 1.466-3.547 0-1.342-0.521-2.6-1.466-3.545m0.094 7.184c-0.971 0.971-2.262 1.508-3.637 1.508s-2.668-0.537-3.64-1.508c-0.973-0.971-1.506-2.263-1.506-3.639 0-1.373 0.533-2.665 1.506-3.639 0.972-0.968 2.265-1.508 3.64-1.508s2.666 0.54 3.637 1.508c0.975 0.974 1.512 2.266 1.512 3.639 0 1.376-0.537 2.668-1.512 3.639" fill="#111216"/>
  </g>
  <g transform="matrix(5.7974 0 0 -5.7974 50.646 50.663)">
   <path d="m0 0c-0.947-0.945-2.205-1.465-3.543-1.465-1.337 0-2.596 0.52-3.542 1.465-0.948 0.945-1.468 2.203-1.468 3.545 0 1.339 0.52 2.6 1.468 3.547 0.946 0.937 2.205 1.463 3.542 1.463 1.338 0 2.596-0.526 3.543-1.463 0.945-0.947 1.466-2.208 1.466-3.547 0-1.342-0.521-2.6-1.466-3.545zm0.094 7.184c-0.971 0.971-2.262 1.508-3.637 1.508s-2.668-0.537-3.64-1.508c-0.973-0.971-1.506-2.263-1.506-3.639 0-1.373 0.533-2.665 1.506-3.639 0.972-0.968 2.265-1.508 3.64-1.508s2.666 0.54 3.637 1.508c0.975 0.974 1.512 2.266 1.512 3.639 0 1.376-0.537 2.668-1.512 3.639z" fill="none" stroke="#111216" stroke-width=".094"/>
  </g>
 </g>
 <g transform="translate(.052856 .00094247)" fill="#ed1c24" stroke-width="1.638">
  <path d="m1200.2 29.995c9.9101 0.21294 19.509-2.5717 29.092-4.7503-0.8354 5.8478-0.7698 12.154-4.0459 17.298-5.2745 8.3213-14.726 13.301-24.26 14.89-7.4367 0.99921-14.972 0.50779-22.441 0.5897 0.082 39.46-0.1474 78.937 0.1147 118.38-0.3931 7.8298 3.9641 14.546 7.5678 21.114-16.413 0-32.826 0.0164-49.223-0.0164 3.7839-5.9461 8.8455-11.859 8.567-19.345 0.2293-40.034 0.016-80.084 0.098-120.12-6.9126 0.06552-13.825-0.26209-20.705 0.19657-8.5506 0.54055-16.298 4.5046-24.063 7.7316-0.016-11.99-0.016-23.981 0-35.971 33.105 0 66.193 0.01638 99.298 0z"/>
  <path d="m587.36 53.108c22.671-17.625 52.172-23.44 80.346-22.933 26.176 0.01638 52.352 0 78.528 0.01638 0 21.18 0.0164 42.36 0 63.54-23.719-12.22-49.878-21.589-76.939-20.164-19.984 0.63884-40.722 8.9765-52.516 25.685-10.172 14.562-9.7955 33.711-5.34 50.222 6.716 24.063 21.966 44.653 38.625 62.835 19.558 21.295 42.982 39.444 69.764 50.665-0.0491-41.459 0.31123-82.918-0.18019-124.36 0.27847-11.499-5.897-21.508-12.4-30.451h76.693c-3.489 6.1427-7.535 12.105-9.4024 18.985-1.982 6.9781-1.72 14.284-1.8346 21.458 0.0164 46.389-0.0328 92.779 0.0164 139.17-0.16381 16.675 6.6832 32.171 13.792 46.881-38.216-8.9437-75.891-21.36-110.08-40.918-35.644-20.541-68.732-46.946-92.648-80.739-21.458-30.173-33.4-68.094-28.387-105.18 2.8993-21.54 14.677-41.574 31.958-54.711z"/>
  <path d="m804.11 30.061c26.651-0.01638 53.286 0.01638 79.937-0.01638 8.7472 0.09828 18.117-0.73712 26.127 3.489 5.6512 2.7355 9.5826 8.698 9.517 15.037 0.31123 8.5997-4.7176 16.135-9.9757 22.474-7.5678 8.911-15.43 17.56-23.195 26.291 7.5514 18.657 14.644 37.511 22.736 55.956 4.0296 9.2058 7.404 18.838 13.301 27.093 4.1606 5.815 8.5997 11.434 12.859 17.183h-54.154c1.8018-4.2589 4.1934-8.3868 4.9305-13.006 0.40951-5.6349-2.3096-10.827-4.5538-15.807-6.8634-14.464-13.186-29.157-19.525-43.834-5.6512 6.372-11.368 12.711-16.905 19.182 0.19656 11.286-0.13105 22.572 0.14742 33.842 0.0655 7.2402 4.2262 13.416 7.404 19.624-16.282 0-32.564 0.0164-48.846 0 4.1279-6.4211 9.1075-13.039 8.4851-21.131 0.0164-42.032 0.11467-84.081-0.0328-126.13 0.31123-7.6988-4.5538-13.973-8.2557-20.246m41.164 66.652c8.7472-9.7627 17.396-19.624 26.078-29.436 2.5226-2.7519 4.2753-6.0444 5.9625-9.3369-10.68-0.52417-21.36-0.18018-32.04-0.27847-0.0164 13.022-0.0164 26.045 0 39.051z"/>
  <path d="m1038.1 33.517c12.056-4.2425 25.062-4.4391 37.642-2.9321-3.5382 6.1099-7.7152 12.367-7.4204 19.755-0.1638 42.032-0.066 84.064-0.033 126.08-0.3932 7.8626 3.9968 14.579 7.6333 21.147-16.364 0.0164-32.728-0.0164-49.092 0.0164 3.3252-5.6185 8.0264-11.008 8.2885-17.838 0.4422-9.0748 0.082-18.15 0.1965-27.224-8.7144 5.1926-17.347 10.516-26.11 15.611-6.6341-4.9796-13.317-9.8938-19.984-14.808-0.0819 9.0256-0.34399 18.1 0.88454 27.077 0.86817 6.1427 3.9313 11.614 6.4703 17.167-16.659-0.0164-33.318 0.0164-49.977 0 4.2917-6.503 10.09-12.777 10.598-20.951 0.76988-15.348-0.86817-30.877 2.0476-46.095 3.6201-18.608 10.975-36.578 21.557-52.319 13.907-20.246 33.989-36.61 57.299-44.686m-43.719 87.373c13.645 0.0491 27.273 0.0164 40.918 0.0164 0-18.805 0.033-37.593-0.016-56.398-19.837 13.137-33.154 34.235-40.902 56.381z"/>
  <path d="m1249.2 30.028c36.987-0.01638 73.99 0 110.98 0-0.016 12.646 0.016 25.291-0.016 37.937-7.1419-3.5709-14.169-8.3704-22.441-8.5178-15.758-0.45865-31.532-0.06552-47.29-0.18018v16.905c20.951 0 41.885 0.01638 62.835 0 0.049 9.6972 0.016 19.378 0.033 29.075-20.967 0-41.918-0.0164-62.868 0v63.212c18.477-0.0655 36.954 0.14743 55.431-0.0819 9.0093 0.29485 16.839-4.5538 24.751-8.1902v37.364c-40.558 0-81.116 0-121.67-0.0164 3.8494-5.9789 8.9929-11.892 8.5179-19.493 0.4422-33.842 0.065-67.684 0.1802-101.53-0.1638-9.9265 0.4095-19.886-0.4423-29.78-0.4914-6.372-4.996-11.352-7.9937-16.708z"/>
  <path d="m1399.1 30.012c36.954-0.01638 73.909 0 110.86 0 0 12.613 0.016 25.242 0 37.872-7.2565-3.5546-14.382-8.3213-22.752-8.4523-15.643-0.40951-31.287-0.06552-46.93-0.1638-0.016 5.6349-0.016 11.27 0 16.921 19.902-0.01638 39.788-0.01638 59.69 0v29.108c-19.902 0-39.788 0-59.69 0.0164 0.033 23.129-0.082 46.275 0.049 69.42-0.2784 8.911 6.1427 15.676 10.451 22.818-17.314 0-34.612 0-51.91-0.0164 3.8003-6.028 8.7636-12.072 8.5342-19.64 0.1475-42.573 0.1475-85.162 0.016-127.73 0.1966-7.6333-4.6357-13.907-8.3213-20.148z"/>
  <path d="m1544.9 43.657c0.4096-4.6684-1.1793-9.1567-2.1786-13.645 18.444 0.04914 36.889 0 55.35 0.01638-9.9593 10.959-23.473 20.869-25.947 36.43-1.9329 20.328 7.5678 39.919 19.87 55.546 9.4679 11.892 20.967 22.245 34.186 29.845-0.016-33.826 0.1147-67.668-0.066-101.51 0.3276-7.6988-4.4555-14.022-8.1247-20.312h48.486c-3.5709 6.7979-7.5678 13.841-7.3221 21.77-0.082 42.114-0.098 84.228 0.016 126.33-0.3931 8.9437 5.422 16.184 9.5498 23.571-21.131-3.833-41.786-10.975-59.69-23.031-27.47-18.035-50.96-42.884-64.817-72.893-6.5358-14.218-8.6653-30.599-4.6685-45.816 1.4088-5.5694 4.6193-10.565 5.3564-16.299z"/>
  <path d="m1699.9 30.192c26.995 0 53.99-0.01638 80.985 0-4.8322 8.4523-10.549 16.528-13.35 25.947-2.7191 8.1411-2.0803 16.839-2.1294 25.291 0.016 66.783 0 133.58 0 200.37 26.127-0.0164 52.237 0.0328 78.364-0.0164 16.2 0.36037 31.352-5.9133 45.898-12.302v58.364c-63.294 0-126.59 0.0164-189.88 0 4.1115-5.9952 9.0093-11.745 10.991-18.903 2.2441-7.9118 1.8674-16.249 1.982-24.407-0.131-74.269 0.2457-148.55-0.1802-222.84 0.3768-11.892-5.684-22.392-12.678-31.5z"/>
  <path d="m898.56 226.66c13.629 1.8674 27.437 3.2925 40.509 7.8462 26.749 9.0748 51.992 23.981 70.976 45.095 13.022 13.989 23.195 31.549 25.029 50.861 1.5233 16.577-2.1623 34.563-13.776 47.045-11.008 12.22-27.781 17.658-43.883 17.822-26.176 0.14742-52.368 0.0164-78.544 0.0655 4.2425-6.241 9.6808-12.564 9.1239-20.623 0.0655-42.081 0.13104-84.195-0.0328-126.28 0.21295-8.3704-5.4219-15.021-9.4024-21.835m43.752 42.769c-0.0491 32.319-0.0164 64.621-0.0164 96.939 11.204-0.21295 22.441 0.45865 33.629-0.40951 9.6481-0.73712 19.1-6.7815 22.408-16.118 5.0616-14.333 0.49142-30.255-7.9445-42.343-11.925-16.905-28.469-31.008-48.077-38.068z"/>
  <path d="m1460 226.66c12.007 1.72 24.178 2.8666 35.84 6.4211 25.422 7.6988 49.371 20.934 68.667 39.28 14.235 13.891 26.716 30.746 30.828 50.583 3.6364 18.313 0.8354 39.051-11.712 53.548-10.926 12.695-27.945 18.608-44.375 18.821-26.258 0.22933-52.532-0.0491-78.806 0.13105 4.0623-6.3884 9.5826-12.744 8.8782-20.869 0.049-42.016 0.1147-84.032-0.033-126.05 0.3604-8.4032-5.34-15.021-9.2877-21.868m43.67 42.802c-0.049 32.302 0 64.588-0.016 96.89 11.352-0.19657 22.769 0.50779 34.104-0.44227 9.9757-0.85179 19.64-7.535 22.392-17.429 4.2916-14.349-0.4259-29.862-8.8782-41.737-11.876-16.577-28.289-30.32-47.602-37.282z"/>
  <path d="m1085.3 229.49c39.002 0 78.004-0.0164 117.02 0-0.016 12.269 0 24.554-0.016 36.823-7.6006-2.9649-14.923-7.5842-23.309-7.6005-16.806-0.29484-33.613-0.0491-50.403-0.11466 0 5.5202 0 11.057 0.016 16.577 22.114-0.0164 44.227 0 66.324-0.0164 0.016 9.6645 0 19.329 0.016 28.977-22.13 0.0328-44.244-0.0164-66.357 0.0328 0.065 20.836-0.098 41.672 0.082 62.524 19.968-0.22933 39.952 0.22932 59.92-0.22933 8.8946-0.0655 16.79-4.5046 24.767-7.8626v36.823c-42.769-0.0164-85.522 0-128.29-0.0164 3.8167-5.9297 9.4024-11.597 9.0748-19.182 0.1802-42.049 0.082-84.097 0.049-126.15 0.5406-8.01-4.8814-14.284-8.8946-20.59z"/>
  <path d="m1360.6 232.24c12.138-3.7184 25.013-3.7675 37.511-2.0803-3.9149 6.0444-8.3868 12.367-8.0264 19.951-0.1474 41.508-0.082 83.032-0.033 124.56-0.344 7.7807 4.5047 14.267 8.1739 20.705-17.2 0.0164-34.399 0.0164-51.598 0 3.4399-5.4547 8.3704-10.565 8.829-17.331 0.7044-8.7472 0.1802-17.527 0.3276-26.291-7.1418 5.2909-14.267 10.598-21.393 15.905-9.3041-5.6512-18.625-11.302-27.945-16.921-0.1146 9.1239-0.3439 18.297 0.7863 27.372 0.7535 6.2901 4.2589 11.728 7.06 17.265-17.544 0.0164-35.087 0.0164-52.63 0 4.4883-6.4048 10.746-12.416 11.352-20.656 0.5569-8.223 0.065-16.462 0.2293-24.685-0.016-52.45 36.938-102.84 87.357-117.79m-48.928 87.177c14.71 0.0655 29.403 0.0164 44.112 0.0328 0-18.641 0.016-37.298 0-55.939-20.983 12.433-35.251 33.613-44.112 55.906z"/>
  <path d="m1034.9 448.66c3.1615-5.3236 7.4695-11.09 14.251-11.384 6.6505-1.2122 13.383 1.9984 16.806 7.7971 16.2 23.047 32.744 45.865 48.781 69.027 6.372 11.221-10.713 23.031-19.902 15.004-5.9461-5.9461-9.9102-13.514-14.923-20.213-18.756-0.0655-37.511-0.0983-56.25 0.0164-4.9305 6.6668-8.9601 14.071-14.742 20.033-8.1738 6.9617-23.342-4.2917-17.298-13.907 14.267-22.228 28.944-44.194 43.277-66.374m16.888 19.493c-3.8822 5.7004-7.7807 11.384-11.614 17.101h23.178c-3.8494-5.7168-7.7152-11.401-11.565-17.101z"/>
  <path d="m1175.7 449.79c-0.6061-6.4539 5.1435-11.843 11.302-12.367 6.4867-1.0484 12.351 2.7847 17.134 6.6996 19.001 16.135 37.97 32.302 56.988 48.421 0.1147-14.775-0.2129-29.567 0.1311-44.325-0.2293-5.9625 5.2909-10.68 11.106-10.287 6.0772-0.88454 14.235 1.4742 14.775 8.6816 0.7535 21.295 0.033 42.638 0.344 63.966-0.049 5.8642 0.4259 13.006-4.7012 17.068-5.3564 3.8003-13.628 4.3736-18.756-0.14742-20.721-17.462-41.295-35.103-61.984-52.598-0.016 13.547-0.016 27.093 0.033 40.656-0.098 4.0296 0.082 8.7963-3.2924 11.679-4.046 3.5546-9.9757 2.9157-14.923 2.4079-5.1762-0.68797-8.4687-5.8478-8.1411-10.827-0.098-22.998-0.049-46.013-0.016-69.027z"/>
  <path d="m1358.5 441.29c6.1754-6.3065 16.528-4.4227 22.703 0.95007 20 16.544 39.624 33.547 59.445 50.304 0.2949-15.332-0.4586-30.697 0.3604-46.013 0.819-8.567 11.172-9.7136 17.904-8.2066 5.422 0.78626 8.4687 6.4048 8.0592 11.548 0.049 21.901 0.033 43.801 0 65.702 0.1311 5.0452-1.5889 10.729-6.3556 13.186-5.3892 2.5554-12.547 2.9321-17.183-1.3268-20.738-17.363-41.23-35.054-61.885-52.499-0.213 15.381 0.3276 30.779-0.2457 46.127-0.3604 7.1091-8.1575 9.8446-14.218 8.9437-5.7332 0.55694-11.86-3.5218-11.696-9.6645-0.4423-21.852 0.016-43.719-0.2129-65.571 0.082-4.6029-0.5897-10.14 3.3252-13.481z"/>
  <path d="m667.61 439.97c10.713-2.9157 21.95-1.8182 32.941-2.0312 13.612 0.19657 27.257-0.39313 40.869 0.26209 9.386 0.68798 11.319 13.547 6.2573 19.837-2.6373 3.3744-7.2074 3.5709-11.122 3.6037-16.921-0.0164-33.858 0.0164-50.796-0.0491-4.046-0.0819-8.0592 0.45865-12.007 1.3432-0.19657 13.858-0.13105 27.716-0.0328 41.574 8.7144 2.7355 17.904 1.851 26.88 1.9656 11.974 0.0164 23.948 0 35.922-0.0164 3.7184 0 7.9118 0.31123 10.598 3.2597 5.3564 6.372 3.1778 19.706-6.5686 20.115-16.036 0.49141-32.106 0.0328-48.159 0.19656-11.171-0.0491-23.244 0.16381-33.023-6.0608-6.5522-3.8003-11.99-10.369-12.122-18.231-0.32761-14.153-0.14743-28.322-0.0983-42.474 0.21295-11.401 10.107-20.279 20.459-23.293z"/>
  <path d="m818.09 449.92c-0.34399-4.7831 1.9984-10.14 7.0108-11.384 6.3228-1.3432 15.774-1.638 18.477 5.7168 1.638 9.2877 0.36037 18.854 0.76988 28.256 19.968-0.0491 39.936 0.0655 59.92-0.0655 0.32761-9.2877-0.90092-18.723 0.6716-27.912 2.1622-6.9453 10.647-7.2729 16.643-6.4048 5.1107 0.34399 8.9601 5.1107 8.7472 10.139 0.26208 22.982 0.0164 45.98 0.11466 68.962 0.39313 5.0779-1.8018 11.106-7.3548 12.236-6.3065 1.2285-15.496 1.3432-18.117-5.9297-1.6053-9.042-0.39313-18.33-0.72074-27.47-19.984-0.0328-39.952 0-59.92-0.0164-0.14742 8.1738 0.31123 16.364-0.19656 24.538-0.0164 4.8322-4.2098 9.042-9.0092 9.2386-4.9305 0.39313-10.909 0.72074-14.497-3.3416-2.7519-2.9649-2.4571-7.2893-2.5881-11.024 0.0983-21.852-0.0328-43.687 0.0491-65.538z"/>
  <path d="m1546.8 444.44c10.533-6.028 23.047-6.7324 34.907-6.5522 15.316 0.19657 30.648-0.32761 45.964 0.22933 12.728 0.29485 12.498 22.736 0.033 23.26-19.165 0.63884-38.379-0.0655-57.561 0.29485-3.0959 0.14742-6.1263 0.73712-9.1239 1.3596-0.082 3.145-0.1147 6.3065-0.1147 9.4679 15.676 0.0164 31.352 0.0328 47.028-0.0164 3.2924 0.14743 6.9944-0.14742 9.8937 1.8182 7.9937 5.34 5.8151 21.295-4.8813 21.54-17.33 0.54055-34.694 0.0164-52.024 0.2457 0.098 2.8011 0.098 5.6349 0.5078 8.4359 6.4375 2.6045 13.547 1.851 20.328 1.982 15.234 0.11466 30.484-0.26209 45.718 0.14742 9.6973-0.0164 12.4 13.006 7.5678 19.673-2.4571 3.2761-6.8143 3.6856-10.582 3.6856-16.397-0.0164-32.81-0.0164-49.223-0.0164-11.106-0.0655-22.982-1.7036-32.056-8.6325-5.3728-3.9968-8.5343-10.549-8.4196-17.232-0.049-13.743-0.1802-27.503 0.065-41.246 0.049-7.8626 5.2909-14.742 11.974-18.444z"/>
  <path d="m1710.1 439.34c5.1107-2.0967 11.401-2.1786 16.495 0.0983 5.9952 3.3908 4.521 11.286 4.7667 17.052 0.3276 15.971-0.8354 32.106 0.5405 47.978 21.131 4.3081 42.982 0.5897 64.359 2.4243 11.499 1.9329 10.68 22.703-1.4087 22.9-14.759 0.45865-29.55 0.0983-44.326 0.1638-12.007-0.21294-24.898-0.34399-35.365-7.0108-6.9289-4.2753-10.385-12.515-10.123-20.459-0.049-17.527-0.049-35.054-0.016-52.565-0.1146-4.0296 1.1466-8.698 5.078-10.582z"/>
 </g>
</svg>
