<svg width="800" height="249.15" version="1.1" viewBox="0 0 211.67 65.922" xmlns="http://www.w3.org/2000/svg">
 <g transform="translate(129.75 90.01)">
  <g transform="matrix(5.7974 0 0 -5.7974 -408.4 1455.4)">
   <g transform="translate(84.575 258.03)">
    <path d="m0 0c0-1.565-1.332-2.837-2.974-2.837h-27.721c-1.642 0-2.973 1.272-2.973 2.837v5.683c0 1.562 1.331 2.833 2.973 2.833h27.721c1.642 0 2.974-1.271 2.974-2.833z" fill="#fff"/>
   </g>
   <g transform="translate(59.434 260.88)">
    <path d="m0 0c0-3.137-2.545-5.686-5.685-5.686-3.139 0-5.685 2.549-5.685 5.686 0 3.142 2.546 5.685 5.685 5.685 3.14 0 5.685-2.543 5.685-5.685" fill="#fff"/>
   </g>
   <g transform="translate(53.726 266.03)">
    <path d="m0 0c-1.375 0-2.669-0.536-3.64-1.508-0.974-0.971-1.507-2.263-1.507-3.639 0-1.373 0.533-2.665 1.507-3.638 0.971-0.969 2.265-1.509 3.64-1.509 1.374 0 2.666 0.54 3.637 1.509 0.974 0.973 1.511 2.265 1.511 3.638 0 1.376-0.537 2.668-1.511 3.639-0.971 0.972-2.263 1.508-3.637 1.508" fill="#111216"/>
   </g>
   <g transform="translate(53.726 266.03)">
    <path d="m0 0c-1.375 0-2.669-0.536-3.64-1.508-0.974-0.971-1.507-2.263-1.507-3.639 0-1.373 0.533-2.665 1.507-3.638 0.971-0.969 2.265-1.509 3.64-1.509 1.374 0 2.666 0.54 3.637 1.509 0.974 0.973 1.511 2.265 1.511 3.638 0 1.376-0.537 2.668-1.511 3.639-0.971 0.972-2.263 1.508-3.637 1.508z" fill="none" stroke="#fff" stroke-width=".469"/>
   </g>
   <g transform="translate(53.726 266.03)">
    <path d="m0 0c-1.375 0-2.669-0.536-3.64-1.508-0.974-0.971-1.507-2.263-1.507-3.639 0-1.373 0.533-2.665 1.507-3.638 0.971-0.969 2.265-1.509 3.64-1.509 1.374 0 2.666 0.54 3.637 1.509 0.974 0.973 1.511 2.265 1.511 3.638 0 1.376-0.537 2.668-1.511 3.639-0.971 0.972-2.263 1.508-3.637 1.508" fill="#fff"/>
   </g>
   <g transform="translate(53.726 255.81)">
    <path d="m0 0c2.805 0 5.075 2.27 5.075 5.074 0 2.801-2.27 5.078-5.075 5.078l1.143-0.179 0.661-0.244 0.637-0.44 0.585-0.584 0.416-0.705s0.972-1.336-0.222-3.791l-0.182-1.298-0.31-0.283-0.351-0.234-0.106-0.574-0.789-0.384-0.194-0.433-0.04-0.282-0.287-0.364-0.128-0.17z" fill="#ed1c24"/>
   </g>
   <g transform="translate(55.386 265.21)">
    <path d="m0 0c1.07-0.58 1.793-1.711 1.793-3.012 0-1.892-1.532-3.429-3.424-3.429-0.658 0-1.273 0.187-1.795 0.508" fill="#2056ae"/>
   </g>
   <g transform="translate(51.96 259.28)">
    <path d="m0 0c-0.979 0.603-1.629 1.685-1.629 2.921 0 1.89 1.532 3.423 3.424 3.423 0.593 0 1.147-0.148 1.631-0.411" fill="#ed1c24"/>
   </g>
   <g transform="translate(55.432 265.21)">
    <path d="m0 0-1.044-0.504 0.393-0.088-1.426-0.683 0.924-0.155-1.755-1.043 1.125 0.09-1.617-1.217 0.987 0.048-1.045-0.938 0.768 0.048-0.74-1.478 1.308 0.43-0.385 0.169 1.047 0.462-0.446 0.153 1.583 0.814h-1.169l1.601 1.065-1.341-0.064 1.555 1.03-1.106 0.125 1.029 0.925-0.674-0.14z" fill="#fff"/>
   </g>
   <g transform="translate(55.016 264.2)">
    <path d="m0 0 0.675 0.138-0.051 0.099-1.031-0.92-0.096-0.089 0.129-0.012 1.11-0.127-0.03 0.11-1.551-1.034-0.176-0.116 0.213 0.014 1.335 0.061-0.034 0.105-1.599-1.06-0.164-0.106h1.364l-0.026 0.109-1.585-0.817-0.12-0.063 0.129-0.043 0.445-0.154-4e-3 0.107-1.046-0.457-0.122-0.057 0.122-0.055 0.384-0.166 4e-3 0.108-1.307-0.426 0.073-0.085 0.738 1.476 0.047 0.09-0.103-0.01-0.769-0.043 0.042-0.102 1.046 0.941 0.122 0.106-0.165-5e-3 -0.984-0.049 0.039-0.108 1.615 1.221 0.16 0.121-0.201-0.017-1.123-0.094 0.036-0.106 1.752 1.045 0.138 0.082-0.159 0.028-0.922 0.15 0.015-0.108 1.424 0.674 0.153 0.075-0.161 0.037-0.396 0.095 0.013-0.111 1.045 0.502-0.08 0.083-0.428-0.956-0.049-0.106zm0.391 1.06-1.044-0.503-0.15-0.072 0.164-0.037 0.395-0.094-0.013 0.111-1.426-0.679-0.094-0.062 0.11-0.049 0.922-0.153-0.021 0.107-1.752-1.042-0.14-0.102 0.173-6e-3 1.122 0.091-0.038 0.101-1.617-1.216-0.124-0.097 0.163-5e-3 0.986 0.043-0.045 0.107-1.045-0.941-0.086-0.096 0.13-4e-3 0.769 0.045-0.055 0.082-0.738-1.474 0.021-0.069 0.048-0.014 1.307 0.435 0.145 0.046-0.14 0.058-0.385 0.174v-0.112l1.046 0.462 0.134 0.058-0.138 0.051-0.446 0.157 7e-3 -0.106 1.583 0.811 0.142 0.081-0.167 0.032h-1.169l0.032-0.11 1.601 1.065 0.144 0.105h-0.18l-1.337-0.063 0.034-0.107 1.552 1.034 0.094 0.072-0.12 0.031-1.105 0.127 0.032-0.105 1.032 0.923 0.133 0.116-0.183-0.014-0.678-0.137 0.063-0.082 0.43 0.95-0.017 0.037z" fill="#111216"/>
   </g>
   <g transform="translate(55.386 265.21)">
    <path d="m0 0c1.07-0.58 1.793-1.711 1.793-3.012 0-1.892-1.532-3.429-3.424-3.429-0.658 0-1.273 0.187-1.795 0.508" fill="none" stroke="#231f20" stroke-miterlimit="6" stroke-width=".099"/>
   </g>
   <g transform="translate(51.96 259.28)">
    <path d="m0 0c-0.979 0.603-1.629 1.685-1.629 2.921 0 1.89 1.532 3.423 3.424 3.423 0.593 0 1.147-0.148 1.631-0.411" fill="none" stroke="#231f20" stroke-miterlimit="6" stroke-width=".099"/>
   </g>
   <g transform="translate(53.726 255.81)">
    <path d="m0 0c-2.805 0-5.08 2.27-5.08 5.074 0 2.801 2.275 5.078 5.08 5.078l-1.051-0.164-0.609-0.211-0.753-0.5-0.586-0.616-0.442-0.802-0.26-0.96-0.026-0.755 0.026-0.725 0.43-1.407 0.31-1.334 0.299-0.297 0.054-0.34 0.271-0.439 0.741-0.103 0.103-0.173 0.195-0.517 0.054-0.248 0.243-0.051 0.183-0.285z" fill="#2056ae"/>
   </g>
   <g transform="translate(53.293 258.75)">
    <path d="m0 0s0.385 0.015 0.434-0.434c0 0 0.015 0.342 0.337 0.42z" fill="#111216"/>
   </g>
   <g transform="translate(55.899 257.98)">
    <path d="m 0,0 -0.08,-0.229 -0.054,-0.309 0.054,-0.015 c 0.021,0.028 0.091,0.133 0.111,0.252 C 0.051,-0.178 0.064,0 0.064,0 L 0.028,0.035 0,0" fill="#fff"/>
   </g>
   <g transform="translate(55.899 257.98)">
    <path d="m0 0-0.08-0.229-0.054-0.309 0.054-0.015c0.021 0.028 0.091 0.133 0.111 0.252 0.02 0.123 0.033 0.301 0.033 0.301l-0.036 0.035z" fill="none" stroke="#2056ae" stroke-width=".017"/>
   </g>
   <g transform="translate(56.14 258.11)">
    <path d="m0 0-0.076-0.041-9e-3 -0.053-0.045-0.33 0.02-0.14c0.069 0.02 0.087 0.236 0.097 0.33l0.013 0.234" fill="#fff"/>
   </g>
   <g transform="translate(56.14 258.11)">
    <path d="m0 0-0.076-0.041-9e-3 -0.053-0.045-0.33 0.02-0.14c0.069 0.02 0.087 0.236 0.097 0.33z" fill="none" stroke="#2056ae" stroke-width=".017"/>
   </g>
   <g transform="translate(53.494 257.8)">
    <path d="m0 0s0.277-0.24 0.121-0.779c0 0-0.042-0.155-0.138 0.019l-0.081 0.166v0.157l0.06 0.367 0.038 0.07" fill="#111216"/>
   </g>
   <g transform="translate(53.907 257.77)">
    <path d="m0 0s-0.147-0.123-0.169-0.34c-0.019-0.215 0.062-0.42 0.062-0.42s8e-3 -0.056 0.122 0.021l0.083 0.061s0.059 0.01 6e-3 0.107c-0.051 0.098-0.123 0.266-0.094 0.401l5e-3 0.052-0.015 0.118" fill="#111216"/>
   </g>
   <g transform="translate(55.553 258.14)">
    <path d="m0 0h-3e-3zm1.516 2.402v-2e-3c-0.01-0.025-0.261-0.589-0.315-0.976 0 0-0.049-0.245-0.039-0.348 0.012-0.107 0.012-0.364-0.029-0.496-0.044-0.131-0.218-0.203-0.218-0.203l-0.111-0.018 0.099 0.09c0.167 0.127 0.175 0.209 0.202 0.291 0.024 0.078 0 0.295-0.021 0.412-0.019 0.116-6e-3 0.284-6e-3 0.284-0.081-0.091-0.066-0.354-0.047-0.51 0.018-0.158-0.036-0.249-0.055-0.289l-0.166-0.149h-0.083l0.115 0.112 0.131 0.369v0.306l0.015 0.17c0 0.029 0.05 0.127 0.096 0.229 0.073 0.158 0.134 0.334 0.134 0.334s-0.213-0.377-0.292-0.514c-0.075-0.142-0.09-0.512-0.09-0.512 0.028-0.335-0.31-0.567-0.418-0.567s-0.539 0.232-0.966 0.198c-0.434-0.031-0.912-0.319-0.912-0.484 0-0.178 0.402-0.097 0.402-0.097l1.547 0.146h3e-3l7e-3 -0.043c-0.025-0.054-0.296-0.061-0.403-0.103l-0.096-0.032 0.186-0.133-0.04-0.322c-0.014-0.032-0.014-0.344-0.412-0.318l-0.282 0.017-0.055 4e-3 -0.461-0.264 0.305-2e-3s0.054-0.065 0.04-0.215l-0.031-0.042-0.04-0.067-0.04-0.045-0.062 0.086-0.045-0.052-0.187-0.227-0.124-0.014-0.094-0.047-0.178-0.029-0.136 0.057-0.121-0.105-0.091 0.048-0.093 0.067-0.108-0.012-0.077 0.074-0.116 0.02-0.129-0.082-0.113 0.023-0.056 0.143-0.058 0.175-0.079 0.264c-0.021 0.094-0.062 0.055-0.062 0.055l-0.117 7e-3c-0.178-7e-3 -0.256 0.17-0.334 0.17-0.109 0-0.185 0.053-0.223 0.08-0.039 0.022-0.164 0.149-0.117 0.319 0.049 0.166 0.256 0.134 0.256 0.134l0.031 0.026-0.063 0.108 0.112 0.064 0.145-8e-3 0.54 0.014 0.174 0.072 0.107-0.047 0.047-0.203v-0.115l0.078 0.076s0 0.115 0.031 0.211c0.05 0.146-0.026 0.127-0.163 0.229-0.069 0.05-0.208 0.138-0.359 0.198-0.165 0.073-0.343 0.12-0.402 0.13-0.109 0.024-0.534 0.024-0.604 0.024s-0.27-0.038-0.48 0.078-0.319 0.387-0.326 0.419c-7e-3 0.025 0.016 0.201 0.047 0.402 0.029 0.203-0.117 0.45-0.117 0.45l-0.086 0.1c0.071-0.12 0.152-0.475 0.124-0.598-0.038-0.168-0.093-0.25-0.124-0.354-0.064-0.225 0.279-0.475 0.279-0.475-0.269 0.045-0.412 0.35-0.338 0.497 0.069 0.148 0.099 0.28 0.105 0.455 9e-3 0.18-0.068 0.281-0.372 0.728-0.3 0.451-0.417 1.028-0.417 1.028 0.021-0.646 0.411-1.127 0.535-1.377 0.124-0.245 0.069-0.644 6e-3 -0.805-0.059-0.159-6e-3 -0.233 0.042-0.385 0.045-0.157 0.355-0.451 0.355-0.451-0.279 9e-3 -0.411 0.373-0.45 0.433-0.038 0.062-6e-3 0.456 0.016 0.639 0.023 0.176-0.093 0.442-0.093 0.442l-0.294 0.642c-0.143 0.264-0.215 0.58-0.246 0.774-0.041 0.344-0.045 0.64-0.045 0.644v2e-3l-7e-3 0.239c0 2.052 1.663 3.711 3.708 3.711 2.047 0 3.711-1.659 3.711-3.711 0-0.585-0.133-1.144-0.397-1.671m0.513 1.671c0 2.111-1.718 3.826-3.827 3.826-2.107 0-3.825-1.715-3.825-3.826l6e-3 -0.244c4e-3 -0.03-0.013-0.399 0.041-0.79 0 0 0.142-0.994 0.236-1.277 0.171-0.516 0.146-0.684 0.146-0.684s-0.028-0.26-0.022-0.378c0.035-0.543 0.68-0.729 0.68-0.729-0.105-0.706 0.459-0.789 0.529-0.811l0.604-0.056 0.129-0.413 0.08-0.207 0.025-0.265 0.153-0.121 0.225-0.041 0.085-0.303 0.908-0.108 0.906 0.184 0.047 0.118s0.123 0.128 0.223 0.234c0.102 0.106 0.113 0.177 0.113 0.177v0.189l0.044 0.166 0.12 0.235 0.021 0.086 0.367-2e-3c0.074 4e-3 0.409 0.013 0.529 0.285 0.111 0.252 0.146 0.678 0.165 0.817 0.475 0.09 0.575 0.415 0.584 0.65 8e-3 0.112 0 0.226-5e-3 0.332l-7e-3 0.172c0 0.353 0.307 1.047 0.311 1.065 0.273 0.534 0.409 1.115 0.409 1.719" fill="#111216"/>
   </g>
   <g transform="translate(50.424 260.08)">
    <path d="m0 0s0.215-0.227 0.198-0.77c-0.013-0.548-0.13-0.777 0.527-1.044 0 0-0.62 0.041-0.641 0.627l0.061 0.34s0.032 0.334-0.145 0.847" fill="#fff"/>
   </g>
   <g transform="translate(51.492 258.14)">
    <path d="m0 0-0.092-0.035-0.064 0.051 0.101 0.076z" fill="#fff"/>
   </g>
   <g transform="translate(51.723 258.07)">
    <path d="m0 0-0.077-0.043-0.056 0.059 0.083 0.079z" fill="#fff"/>
   </g>
   <g transform="translate(52.098 258.01)">
    <path d="m0 0-0.055-0.037-0.041 0.049 0.062 0.072z" fill="#fff"/>
   </g>
   <g transform="translate(51.901 258.04)">
    <path d="m0 0-0.044-0.043-0.058 0.059 0.086 0.079z" fill="#fff"/>
   </g>
   <g transform="translate(51.259 257.81)">
    <path d="m0 0s0.054-0.297 0.2-0.35c0.147-0.052-0.014 0.107-0.038 0.157l-0.044 0.249-0.083 0.024-0.035-0.08" fill="#fff"/>
   </g>
   <g transform="translate(51.571 257.84)">
    <path d="m0 0s-0.057-0.175 0.092-0.332l0.054-0.045 0.045-8e-3 -0.077 0.132c-0.012 0.027-0.064 0.093-0.059 0.22l-0.023 0.051-0.032-0.018" fill="#fff"/>
   </g>
   <g transform="translate(51.773 257.83)">
    <path d="m0 0 0.03-0.199 0.086-0.121 0.023 0.02-0.027 0.062-0.026 0.145-0.024 0.118z" fill="#fff"/>
   </g>
   <g transform="translate(54.983 257.14)">
    <path d="m0 0-0.017-0.153-8e-3 -0.08 0.047 0.053 0.101 0.202-0.039 0.058-0.078-0.051z" fill="#fff"/>
   </g>
   <g transform="translate(52.428 257.18)">
    <path d="m0 0 0.031-0.08v-0.246s0-0.141-0.05-0.044c-0.052 0.097-0.052 0.198-0.052 0.198v0.121l0.011 0.056 0.06-5e-3" fill="#fff"/>
   </g>
   <g transform="translate(52.623 257.12)">
    <path d="m0 0 0.078-0.025 0.045-0.092s0.045-0.16 0.045-0.26c0-0.094-0.039-0.049-0.039-0.049l-0.031 0.088-0.032 0.086v-0.137l5e-3 -0.139-5e-3 -0.17-0.105-0.041c-0.045 0.02-0.04 0.096-0.045 0.224-7e-3 0.134 0.039 0.209 0.039 0.209l0.07 0.103-0.012 0.086-0.013 0.117" fill="#fff"/>
   </g>
   <g transform="translate(52.888 256.61)">
    <path d="m0 0s-0.042-0.11-0.024-0.219c0.011-0.102 0.011-0.175 0.029-0.217l0.079-0.133 0.059 0.15-0.02 0.291-0.057 0.15s-0.052 0.073-0.066-0.022" fill="#fff"/>
   </g>
   <g transform="translate(53.193 256.43)">
    <path d="m0 0s-0.069-0.085-0.064-0.227c8e-3 -0.144 0.018-0.187 0.045-0.208 0.027-0.018 0.124-0.09 0.164 0.115 0.038 0.209 8e-3 0.309 8e-3 0.309l-0.08 0.073-0.073-0.062" fill="#fff"/>
   </g>
   <g transform="translate(53.474 256.33)">
    <path d="m0 0-0.013-0.111-7e-3 -0.188 0.078-0.075c0.026-0.03 0.123-0.062 0.137 0.095 0.011 0.156-0.014 0.288-0.014 0.288l-0.117 0.057-0.064-0.066" fill="#fff"/>
   </g>
   <g transform="translate(53.844 256.38)">
    <path d="m0 0-0.044-0.188 0.024-0.174 0.17-0.053c0.052 0.039 0.07 0.059 0.083 0.221l-0.1 0.237-0.122-0.022-0.011-0.021" fill="#fff"/>
   </g>
   <g transform="translate(54.189 256.36)">
    <path d="m0 0-0.015-0.176 0.047-0.188c0.046-0.032 0.16-0.07 0.142 0.171-0.014 0.212-0.046 0.232-0.046 0.232l-0.07 0.036-0.058-0.075" fill="#fff"/>
   </g>
   <g transform="translate(54.576 256.61)">
    <path d="m0 0s-0.078-0.099-0.086-0.213c-5e-3 -0.115-0.017-0.123-5e-3 -0.215 0.013-0.092 0.059-0.221 0.118-0.037 0.058 0.172 0.031 0.388 0.031 0.388l-0.045 0.1z" fill="#fff"/>
   </g>
   <g transform="translate(54.824 256.79)">
    <path d="m0 0-0.051-0.154-0.031-0.119 0.013-0.159 0.079 0.039 0.052 0.077s0.016 0.064 0 0.195l-0.017 0.129-0.045-8e-3" fill="#fff"/>
   </g>
   <g transform="translate(57.269 257.34)">
    <path d="m0 0c-0.947-0.945-2.205-1.465-3.543-1.465-1.337 0-2.596 0.52-3.542 1.465-0.948 0.945-1.468 2.203-1.468 3.545 0 1.339 0.52 2.6 1.468 3.547 0.946 0.937 2.205 1.463 3.542 1.463 1.338 0 2.596-0.526 3.543-1.463 0.945-0.947 1.466-2.208 1.466-3.547 0-1.342-0.521-2.6-1.466-3.545m0.094 7.184c-0.971 0.971-2.262 1.508-3.637 1.508s-2.668-0.537-3.64-1.508c-0.973-0.971-1.506-2.263-1.506-3.639 0-1.373 0.533-2.665 1.506-3.639 0.972-0.968 2.265-1.508 3.64-1.508s2.666 0.54 3.637 1.508c0.975 0.974 1.512 2.266 1.512 3.639 0 1.376-0.537 2.668-1.512 3.639" fill="#111216"/>
   </g>
   <g transform="translate(57.269 257.34)">
    <path d="m0 0c-0.947-0.945-2.205-1.465-3.543-1.465-1.337 0-2.596 0.52-3.542 1.465-0.948 0.945-1.468 2.203-1.468 3.545 0 1.339 0.52 2.6 1.468 3.547 0.946 0.937 2.205 1.463 3.542 1.463 1.338 0 2.596-0.526 3.543-1.463 0.945-0.947 1.466-2.208 1.466-3.547 0-1.342-0.521-2.6-1.466-3.545zm0.094 7.184c-0.971 0.971-2.262 1.508-3.637 1.508s-2.668-0.537-3.64-1.508c-0.973-0.971-1.506-2.263-1.506-3.639 0-1.373 0.533-2.665 1.506-3.639 0.972-0.968 2.265-1.508 3.64-1.508s2.666 0.54 3.637 1.508c0.975 0.974 1.512 2.266 1.512 3.639 0 1.376-0.537 2.668-1.512 3.639z" fill="none" stroke="#111216" stroke-width=".094"/>
   </g>
   <g transform="translate(63.266 259.91)">
    <path d="m0 0c-1.138 0.266-2.09 0.737-2.859 1.417-0.819 0.725-1.227 1.521-1.227 2.379 0 0.518 0.184 0.926 0.556 1.226 0.355 0.29 0.82 0.428 1.391 0.428h1.456v-0.972c-0.432 0.218-0.852 0.329-1.26 0.329-0.364 0-0.668-0.093-0.906-0.28-0.262-0.202-0.392-0.473-0.392-0.814 0-0.489 0.244-1.009 0.733-1.554 0.458-0.512 0.956-0.867 1.498-1.064v2.282c0 0.13-0.012 0.23-0.022 0.298-0.028 0.13-0.075 0.238-0.148 0.331h1.137c-0.067-0.109-0.112-0.219-0.135-0.343-0.011-0.062-0.017-0.156-0.017-0.286v-2.634c0-0.16 0.033-0.328 0.099-0.515 0.018-0.055 0.05-0.134 0.096-0.228" fill="#fff"/>
   </g>
   <g transform="translate(63.266 259.91)">
    <path d="m0 0c-1.138 0.266-2.09 0.737-2.859 1.417-0.819 0.725-1.227 1.521-1.227 2.379 0 0.518 0.184 0.926 0.556 1.226 0.355 0.29 0.82 0.428 1.391 0.428h1.456v-0.972c-0.432 0.218-0.852 0.329-1.26 0.329-0.364 0-0.668-0.093-0.906-0.28-0.262-0.202-0.392-0.473-0.392-0.814 0-0.489 0.244-1.009 0.733-1.554 0.458-0.512 0.956-0.867 1.498-1.064v2.282c0 0.13-0.012 0.23-0.022 0.298-0.028 0.13-0.075 0.238-0.148 0.331h1.137c-0.067-0.109-0.112-0.219-0.135-0.343-0.011-0.062-0.017-0.156-0.017-0.286v-2.634c0-0.16 0.033-0.328 0.099-0.515 0.018-0.055 0.05-0.134 0.096-0.228z" fill="none" stroke="#fff" stroke-linecap="round" stroke-linejoin="round" stroke-width=".997"/>
   </g>
   <g transform="translate(65.167 264.94)">
    <path d="m0 0-0.037 0.06-0.139 9e-3h-0.572v-1.01c4e-3 5e-3 0.064 0.071 0.179 0.202 0.079 0.086 0.16 0.179 0.245 0.271 0.123 0.143 0.202 0.231 0.237 0.272l0.06 0.097 0.027 0.099m0.845-2.524h-0.726l0.04 0.088 0.012 0.094-0.012 0.109-0.031 0.09c-0.062 0.13-0.124 0.261-0.184 0.395-0.014 0.03-0.07 0.157-0.166 0.382-0.07 0.163-0.107 0.25-0.111 0.257l-0.415-0.469v-0.605l0.011-0.159 0.078-0.182h-0.633l0.083 0.173 7e-3 0.168v2.261l-7e-3 0.164-0.083 0.179h1.513c0.129 0 0.224-0.02 0.294-0.059 0.078-0.051 0.12-0.12 0.12-0.215l-0.049-0.181-0.132-0.187c-0.053-0.063-0.138-0.161-0.249-0.283l-0.201-0.223c0.03-0.075 0.068-0.172 0.115-0.291 0.106-0.265 0.176-0.434 0.211-0.521 0.073-0.181 0.151-0.362 0.234-0.55l0.128-0.24 0.153-0.195" fill="#fff"/>
   </g>
   <g transform="translate(65.167 264.94)">
    <path d="m0 0-0.037 0.06-0.139 9e-3h-0.572v-1.01c4e-3 5e-3 0.064 0.071 0.179 0.202 0.079 0.086 0.16 0.179 0.245 0.271 0.123 0.143 0.202 0.231 0.237 0.272l0.06 0.097zm0.845-2.524h-0.726l0.04 0.088 0.012 0.094-0.012 0.109-0.031 0.09c-0.062 0.13-0.124 0.261-0.184 0.395-0.014 0.03-0.07 0.157-0.166 0.382-0.07 0.163-0.107 0.25-0.111 0.257l-0.415-0.469v-0.605l0.011-0.159 0.078-0.182h-0.633l0.083 0.173 7e-3 0.168v2.261l-7e-3 0.164-0.083 0.179h1.513c0.129 0 0.224-0.02 0.294-0.059 0.078-0.051 0.12-0.12 0.12-0.215l-0.049-0.181-0.132-0.187c-0.053-0.063-0.138-0.161-0.249-0.283l-0.201-0.223c0.03-0.075 0.068-0.172 0.115-0.291 0.106-0.265 0.176-0.434 0.211-0.521 0.073-0.181 0.151-0.362 0.234-0.55l0.128-0.24z" fill="none" stroke="#fff" stroke-linecap="round" stroke-linejoin="round" stroke-width=".997"/>
   </g>
   <g transform="translate(68.105 263.67)">
    <path d="m0 0v1.261c-0.16-0.075-0.314-0.192-0.459-0.358-0.124-0.139-0.235-0.299-0.325-0.48-0.076-0.147-0.133-0.289-0.161-0.423zm0.541-1.259h-0.636l0.086 0.174 9e-3 0.168v0.552l-0.559-0.334-0.454 0.334-4e-3 -0.166-1e-3 -0.177c0-0.129 8e-3 -0.235 0.019-0.329l0.075-0.222h-0.651l0.101 0.171 0.028 0.171v0.449c0 0.334 0.086 0.677 0.253 1.014 0.17 0.336 0.398 0.607 0.684 0.816 0.309 0.225 0.612 0.336 0.905 0.336h0.059l0.086-7e-3 -0.074-0.163-0.017-0.175v-2.27l0.013-0.159 0.078-0.183" fill="#fff"/>
   </g>
   <g transform="translate(68.105 263.67)">
    <path d="m0 0v1.261c-0.16-0.075-0.314-0.192-0.459-0.358-0.124-0.139-0.235-0.299-0.325-0.48-0.076-0.147-0.133-0.289-0.161-0.423zm0.541-1.259h-0.636l0.086 0.174 9e-3 0.168v0.552l-0.559-0.334-0.454 0.334-4e-3 -0.166-1e-3 -0.177c0-0.129 8e-3 -0.235 0.019-0.329l0.075-0.222h-0.651l0.101 0.171 0.028 0.171v0.449c0 0.334 0.086 0.677 0.253 1.014 0.17 0.336 0.398 0.607 0.684 0.816 0.309 0.225 0.612 0.336 0.905 0.336h0.059l0.086-7e-3 -0.074-0.163-0.017-0.175v-2.27l0.013-0.159z" fill="none" stroke="#fff" stroke-linecap="round" stroke-linejoin="round" stroke-width=".997"/>
   </g>
   <g transform="translate(71.533 265.42)">
    <path d="m0 0c0-0.119-0.057-0.219-0.169-0.299-0.114-0.08-0.242-0.123-0.389-0.123h-0.372v-2.248l0.012-0.155 0.076-0.187h-0.634l0.082 0.174 0.014 0.168v2.248h-0.422c-0.125 0-0.262-0.037-0.409-0.111v0.467h1.779l0.252 0.027c9e-3 2e-3 0.068 0.013 0.18 0.039" fill="#fff"/>
   </g>
   <g transform="translate(71.533 265.42)">
    <path d="m0 0c0-0.119-0.057-0.219-0.169-0.299-0.114-0.08-0.242-0.123-0.389-0.123h-0.372v-2.248l0.012-0.155 0.076-0.187h-0.634l0.082 0.174 0.014 0.168v2.248h-0.422c-0.125 0-0.262-0.037-0.409-0.111v0.467h1.779l0.252 0.027c9e-3 2e-3 0.068 0.013 0.18 0.039z" fill="none" stroke="#fff" stroke-linecap="round" stroke-linejoin="round" stroke-width=".997"/>
   </g>
   <g transform="translate(74.166 262.41)">
    <path d="m0 0h-2.028l0.082 0.174 0.01 0.168v2.26l-0.01 0.165-0.082 0.178h1.838v-0.486l-0.183 0.08c-0.061 0.018-0.137 0.026-0.229 0.026h-0.884v-0.473h1.163v-0.38h-1.163v-1.335h1.078c0.105 0 0.191 0.015 0.262 0.041l0.146 0.067z" fill="#fff"/>
   </g>
   <g transform="translate(74.166 262.41)">
    <path d="m0 0h-2.028l0.082 0.174 0.01 0.168v2.26l-0.01 0.165-0.082 0.178h1.838v-0.486l-0.183 0.08c-0.061 0.018-0.137 0.026-0.229 0.026h-0.884v-0.473h1.163v-0.38h-1.163v-1.335h1.078c0.105 0 0.191 0.015 0.262 0.041l0.146 0.067z" fill="none" stroke="#fff" stroke-linecap="round" stroke-linejoin="round" stroke-width=".997"/>
   </g>
   <g transform="translate(76.753 264.87)">
    <path d="m0 0-0.181 0.08-0.227 0.026h-0.884v-0.473h1.107v-0.38h-1.107v-1.37l0.03-0.178 0.097-0.164h-0.67l0.082 0.174 0.012 0.168v2.26l-0.012 0.165-0.082 0.178h1.835z" fill="#fff"/>
   </g>
   <g transform="translate(76.753 264.87)">
    <path d="m0 0-0.181 0.08-0.227 0.026h-0.884v-0.473h1.107v-0.38h-1.107v-1.37l0.03-0.178 0.097-0.164h-0.67l0.082 0.174 0.012 0.168v2.26l-0.012 0.165-0.082 0.178h1.835z" fill="none" stroke="#fff" stroke-linecap="round" stroke-linejoin="round" stroke-width=".997"/>
   </g>
   <g transform="translate(79.62 262.37)">
    <path d="m0 0c-0.365 0.072-0.724 0.236-1.081 0.498-0.323 0.238-0.589 0.518-0.8 0.836-0.208 0.314-0.312 0.609-0.312 0.856l0.018 0.242 0.054 0.174 0.049 0.131 0.016 0.115-5e-3 0.068-0.016 0.066h0.736c-0.121-0.115-0.212-0.215-0.267-0.307-0.075-0.118-0.11-0.246-0.11-0.366 0-0.233 0.065-0.459 0.188-0.698 0.115-0.209 0.264-0.4 0.453-0.572 0.178-0.17 0.355-0.287 0.53-0.361v1.961l-0.014 0.165-0.081 0.178h0.63l-0.069-0.166-0.02-0.177v-2.28l0.02-0.185 0.081-0.178" fill="#fff"/>
   </g>
   <g transform="translate(79.62 262.37)">
    <path d="m0 0c-0.365 0.072-0.724 0.236-1.081 0.498-0.323 0.238-0.589 0.518-0.8 0.836-0.208 0.314-0.312 0.609-0.312 0.856l0.018 0.242 0.054 0.174 0.049 0.131 0.016 0.115-5e-3 0.068-0.016 0.066h0.736c-0.121-0.115-0.212-0.215-0.267-0.307-0.075-0.118-0.11-0.246-0.11-0.366 0-0.233 0.065-0.459 0.188-0.698 0.115-0.209 0.264-0.4 0.453-0.572 0.178-0.17 0.355-0.287 0.53-0.361v1.961l-0.014 0.165-0.081 0.178h0.63l-0.069-0.166-0.02-0.177v-2.28l0.02-0.185z" fill="none" stroke="#fff" stroke-linecap="round" stroke-linejoin="round" stroke-width=".997"/>
   </g>
   <g transform="translate(83.8 259.99)">
    <path d="m0 0h-3.289c0.075 0.094 0.123 0.205 0.145 0.322 0.016 0.076 0.022 0.174 0.022 0.307v4.108c0 0.126-6e-3 0.224-0.022 0.297-0.022 0.124-0.072 0.236-0.145 0.329h1.21c-0.151-0.228-0.226-0.441-0.226-0.628v-4.041h1.562c0.226 0 0.47 0.062 0.743 0.19z" fill="#fff"/>
   </g>
   <g transform="translate(83.8 259.99)">
    <path d="m0 0h-3.289c0.075 0.094 0.123 0.205 0.145 0.322 0.016 0.076 0.022 0.174 0.022 0.307v4.108c0 0.126-6e-3 0.224-0.022 0.297-0.022 0.124-0.072 0.236-0.145 0.329h1.21c-0.151-0.228-0.226-0.441-0.226-0.628v-4.041h1.562c0.226 0 0.47 0.062 0.743 0.19z" fill="none" stroke="#fff" stroke-linecap="round" stroke-linejoin="round" stroke-width=".997"/>
   </g>
   <g transform="translate(67.46 259.74)">
    <path d="m0 0c0 0.285-0.135 0.567-0.405 0.845-0.255 0.265-0.532 0.438-0.835 0.519v-1.986h0.611c0.184 0 0.335 0.053 0.444 0.152 0.123 0.11 0.185 0.264 0.185 0.47m0.487 4e-3c0-0.319-0.095-0.561-0.284-0.743-0.192-0.174-0.44-0.265-0.75-0.265h-1.269l0.088 0.177 0.011 0.17v2.256l-0.011 0.16-0.088 0.187c0.344-0.019 0.696-0.131 1.058-0.32 0.359-0.188 0.649-0.421 0.875-0.697 0.245-0.303 0.37-0.614 0.37-0.925" fill="#fff"/>
   </g>
   <g transform="translate(67.46 259.74)">
    <path d="m0 0c0 0.285-0.135 0.567-0.405 0.845-0.255 0.265-0.532 0.438-0.835 0.519v-1.986h0.611c0.184 0 0.335 0.053 0.444 0.152 0.123 0.11 0.185 0.264 0.185 0.47zm0.487 4e-3c0-0.319-0.095-0.561-0.284-0.743-0.192-0.174-0.44-0.265-0.75-0.265h-1.269l0.088 0.177 0.011 0.17v2.256l-0.011 0.16-0.088 0.187c0.344-0.019 0.696-0.131 1.058-0.32 0.359-0.188 0.649-0.421 0.875-0.697 0.245-0.303 0.37-0.614 0.37-0.925z" fill="none" stroke="#fff" stroke-linecap="round" stroke-linejoin="round" stroke-width=".997"/>
   </g>
   <g transform="translate(71.25 258.74)">
    <path d="m0 0h-2.148l0.088 0.177 0.012 0.17v2.232l-0.012 0.166-0.088 0.175h1.944v-0.482l-0.192 0.079c-0.061 0.015-0.143 0.031-0.241 0.031h-0.938v-0.471h1.235v-0.377h-1.235v-1.318h1.145c0.106 0 0.198 0.011 0.276 0.035l0.154 0.069z" fill="#fff"/>
   </g>
   <g transform="translate(71.25 258.74)">
    <path d="m0 0h-2.148l0.088 0.177 0.012 0.17v2.232l-0.012 0.166-0.088 0.175h1.944v-0.482l-0.192 0.079c-0.061 0.015-0.143 0.031-0.241 0.031h-0.938v-0.471h1.235v-0.377h-1.235v-1.318h1.145c0.106 0 0.198 0.011 0.276 0.035l0.154 0.069z" fill="none" stroke="#fff" stroke-linecap="round" stroke-linejoin="round" stroke-width=".997"/>
   </g>
   <g transform="translate(74.054 259.99)">
    <path d="m0 0v1.244c-0.174-0.068-0.336-0.187-0.488-0.353-0.132-0.137-0.246-0.295-0.344-0.469-0.082-0.152-0.139-0.293-0.173-0.422zm0.568-1.253h-0.671l0.089 0.181 0.014 0.166v0.547l-0.483-0.36-0.592 0.36-2e-3 -0.168v-0.174c0-0.125 3e-3 -0.239 0.018-0.326l0.079-0.226h-0.69l0.105 0.175 0.035 0.172v0.438c0 0.337 0.084 0.675 0.263 1.007 0.178 0.332 0.42 0.604 0.727 0.811 0.325 0.218 0.644 0.328 0.957 0.328h0.062l0.089-4e-3 -0.075-0.164-0.019-0.17v-2.246l0.013-0.162 0.081-0.185" fill="#fff"/>
   </g>
   <g transform="translate(74.054 259.99)">
    <path d="m0 0v1.244c-0.174-0.068-0.336-0.187-0.488-0.353-0.132-0.137-0.246-0.295-0.344-0.469-0.082-0.152-0.139-0.293-0.173-0.422zm0.568-1.253h-0.671l0.089 0.181 0.014 0.166v0.547l-0.483-0.36-0.592 0.36-2e-3 -0.168v-0.174c0-0.125 3e-3 -0.239 0.018-0.326l0.079-0.226h-0.69l0.105 0.175 0.035 0.172v0.438c0 0.337 0.084 0.675 0.263 1.007 0.178 0.332 0.42 0.604 0.727 0.811 0.325 0.218 0.644 0.328 0.957 0.328h0.062l0.089-4e-3 -0.075-0.164-0.019-0.17v-2.246l0.013-0.162z" fill="none" stroke="#fff" stroke-linecap="round" stroke-linejoin="round" stroke-width=".997"/>
   </g>
   <g transform="translate(77.877 259.74)">
    <path d="m0 0c0 0.285-0.135 0.567-0.401 0.845-0.254 0.265-0.534 0.438-0.837 0.519v-1.986h0.611c0.184 0 0.334 0.053 0.444 0.152 0.124 0.11 0.183 0.264 0.183 0.47m0.49 4e-3c0-0.319-0.097-0.561-0.286-0.743-0.189-0.174-0.44-0.265-0.749-0.265h-1.268l0.084 0.177 0.012 0.17v2.256l-0.012 0.16-0.084 0.187c0.343-0.019 0.696-0.131 1.055-0.32 0.358-0.188 0.651-0.421 0.877-0.697 0.245-0.303 0.371-0.614 0.371-0.925" fill="#fff"/>
   </g>
   <g transform="translate(77.877 259.74)">
    <path d="m0 0c0 0.285-0.135 0.567-0.401 0.845-0.254 0.265-0.534 0.438-0.837 0.519v-1.986h0.611c0.184 0 0.334 0.053 0.444 0.152 0.124 0.11 0.183 0.264 0.183 0.47zm0.49 4e-3c0-0.319-0.097-0.561-0.286-0.743-0.189-0.174-0.44-0.265-0.749-0.265h-1.268l0.084 0.177 0.012 0.17v2.256l-0.012 0.16-0.084 0.187c0.343-0.019 0.696-0.131 1.055-0.32 0.358-0.188 0.651-0.421 0.877-0.697 0.245-0.303 0.371-0.614 0.371-0.925z" fill="none" stroke="#fff" stroke-linecap="round" stroke-linejoin="round" stroke-width=".997"/>
   </g>
   <g transform="translate(62.533 257.51)">
    <path d="m0 0h-0.975c-0.092 0-0.193 0.012-0.274-0.043l-0.051-0.067v-0.738c0-0.147 0.268-0.142 0.368-0.142h0.926l0.124-0.125v-0.033l-0.124-0.12h-0.93c-0.192 0-0.356 9e-3 -0.481 0.082-0.132 0.078-0.216 0.163-0.216 0.328v0.748c0 0.092 0.046 0.171 0.123 0.245 0.153 0.137 0.349 0.145 0.532 0.145h0.978l0.123-0.118v-0.031l-0.123-0.131" fill="#fff"/>
   </g>
   <g transform="translate(62.533 257.51)">
    <path d="m0 0h-0.975c-0.092 0-0.193 0.012-0.274-0.043l-0.051-0.067v-0.738c0-0.147 0.268-0.142 0.368-0.142h0.926l0.124-0.125v-0.033l-0.124-0.12h-0.93c-0.192 0-0.356 9e-3 -0.481 0.082-0.132 0.078-0.216 0.163-0.216 0.328v0.748c0 0.092 0.046 0.171 0.123 0.245 0.153 0.137 0.349 0.145 0.532 0.145h0.978l0.123-0.118v-0.031z" fill="none" stroke="#fff" stroke-linecap="round" stroke-linejoin="round" stroke-width=".997"/>
   </g>
   <g transform="translate(65.877 256.24)">
    <path d="m0 0h-0.083l-0.122 0.119v0.508h-1.27v-0.508l-0.124-0.119h-0.079l-0.125 0.119v1.311l0.125 0.118h0.079l0.124-0.118v-0.522h1.27v0.522l0.122 0.118h0.083l0.124-0.118v-1.311z" fill="#fff"/>
   </g>
   <g transform="translate(65.877 256.24)">
    <path d="m0 0h-0.083l-0.122 0.119v0.508h-1.27v-0.508l-0.124-0.119h-0.079l-0.125 0.119v1.311l0.125 0.118h0.079l0.124-0.118v-0.522h1.27v0.522l0.122 0.118h0.083l0.124-0.118v-1.311z" fill="none" stroke="#fff" stroke-linecap="round" stroke-linejoin="round" stroke-width=".997"/>
   </g>
   <g transform="translate(68.333 257.45)">
    <path d="m0 0-0.371-0.535h0.734zm1.089-1.159-0.155-0.081-0.138 0.083-0.234 0.339h-1.129l-0.234-0.339-0.107-0.072-0.135 0.07-0.012 0.102 0.864 1.321 0.191 0.089 0.18-0.089 0.92-1.294z" fill="#fff"/>
   </g>
   <g transform="translate(68.333 257.45)">
    <path d="m0 0-0.371-0.535h0.734zm1.089-1.159-0.155-0.081-0.138 0.083-0.234 0.339h-1.129l-0.234-0.339-0.107-0.072-0.135 0.07-0.012 0.102 0.864 1.321 0.191 0.089 0.18-0.089 0.92-1.294z" fill="none" stroke="#fff" stroke-linecap="round" stroke-linejoin="round" stroke-width=".997"/>
   </g>
   <g transform="translate(72.412 256.23)">
    <path d="m0 0-0.139 0.074-1.236 1.057v-1l-0.122-0.119h-0.084l-0.121 0.119v1.304l0.167 0.139 0.199-0.09 1.22-1.031v0.982l0.123 0.125h0.078l0.127-0.125v-1.243c0-0.153-0.078-0.192-0.212-0.192" fill="#fff"/>
   </g>
   <g transform="translate(72.412 256.23)">
    <path d="m0 0-0.139 0.074-1.236 1.057v-1l-0.122-0.119h-0.084l-0.121 0.119v1.304l0.167 0.139 0.199-0.09 1.22-1.031v0.982l0.123 0.125h0.078l0.127-0.125v-1.243c0-0.153-0.078-0.192-0.212-0.192z" fill="none" stroke="#fff" stroke-linecap="round" stroke-linejoin="round" stroke-width=".997"/>
   </g>
   <g transform="translate(75.746 256.23)">
    <path d="m0 0-0.143 0.074-1.233 1.057v-1l-0.121-0.119h-0.085l-0.122 0.119v1.304l0.168 0.139 0.201-0.09 1.216-1.031v0.982l0.125 0.125h0.078l0.126-0.125v-1.243c0-0.153-0.076-0.192-0.21-0.192" fill="#fff"/>
   </g>
   <g transform="translate(75.746 256.23)">
    <path d="m0 0-0.143 0.074-1.233 1.057v-1l-0.121-0.119h-0.085l-0.122 0.119v1.304l0.168 0.139 0.201-0.09 1.216-1.031v0.982l0.125 0.125h0.078l0.126-0.125v-1.243c0-0.153-0.076-0.192-0.21-0.192z" fill="none" stroke="#fff" stroke-linecap="round" stroke-linejoin="round" stroke-width=".997"/>
   </g>
   <g transform="translate(78.998 256.24)">
    <path d="m0 0h-0.983c-0.224 0-0.642 0.068-0.642 0.397v0.744c0 0.332 0.436 0.407 0.668 0.407h0.949l0.119-0.118v-0.032l-0.119-0.13h-0.961c-0.094 0-0.33 0.013-0.33-0.127v-0.233h1.02l0.121-0.136v-0.026l-0.125-0.119h-1.014v-0.221c0-0.129 0.234-0.129 0.328-0.129h0.969l0.121-0.125v-0.033l-0.121-0.119" fill="#fff"/>
   </g>
   <g transform="translate(78.998 256.24)">
    <path d="m0 0h-0.983c-0.224 0-0.642 0.068-0.642 0.397v0.744c0 0.332 0.436 0.407 0.668 0.407h0.949l0.119-0.118v-0.032l-0.119-0.13h-0.961c-0.094 0-0.33 0.013-0.33-0.127v-0.233h1.02l0.121-0.136v-0.026l-0.125-0.119h-1.014v-0.221c0-0.129 0.234-0.129 0.328-0.129h0.969l0.121-0.125v-0.033z" fill="none" stroke="#fff" stroke-linecap="round" stroke-linejoin="round" stroke-width=".997"/>
   </g>
   <g transform="translate(82.093 256.24)">
    <path d="m0 0h-0.786c-0.293 0-0.771 6e-3 -0.771 0.42v1.01l0.122 0.118h0.082l0.122-0.118v-1.01l0.096-0.114c0.066-0.021 0.18-0.029 0.349-0.029h0.788l0.12-0.125v-0.033l-0.122-0.119" fill="#fff"/>
   </g>
   <g transform="translate(82.093 256.24)">
    <path d="m0 0h-0.786c-0.293 0-0.771 6e-3 -0.771 0.42v1.01l0.122 0.118h0.082l0.122-0.118v-1.01l0.096-0.114c0.066-0.021 0.18-0.029 0.349-0.029h0.788l0.12-0.125v-0.033z" fill="none" stroke="#fff" stroke-linecap="round" stroke-linejoin="round" stroke-width=".997"/>
   </g>
   <g transform="translate(63.103 259.94)">
    <path d="m0 0c-1.147 0.264-2.103 0.74-2.883 1.43-0.826 0.73-1.237 1.53-1.237 2.4 0 0.516 0.187 0.928 0.56 1.235 0.359 0.286 0.828 0.427 1.406 0.427h1.465v-0.98c-0.435 0.221-0.858 0.338-1.268 0.338-0.369 0-0.673-0.098-0.916-0.285-0.263-0.204-0.397-0.481-0.397-0.823 0-0.489 0.25-1.015 0.74-1.562 0.464-0.522 0.966-0.877 1.508-1.078v2.3c0 0.131-7e-3 0.233-0.019 0.303-0.029 0.127-0.078 0.237-0.147 0.33h1.143c-0.068-0.105-0.114-0.217-0.135-0.34-0.011-0.065-0.017-0.162-0.017-0.293v-2.649c0-0.161 0.033-0.337 0.099-0.521 0.017-0.06 0.052-0.134 0.098-0.232" fill="#ed1c24"/>
   </g>
   <g transform="translate(63.103 259.94)">
    <path d="m0 0c-1.147 0.264-2.103 0.74-2.883 1.43-0.826 0.73-1.237 1.53-1.237 2.4 0 0.516 0.187 0.928 0.56 1.235 0.359 0.286 0.828 0.427 1.406 0.427h1.465v-0.98c-0.435 0.221-0.858 0.338-1.268 0.338-0.369 0-0.673-0.098-0.916-0.285-0.263-0.204-0.397-0.481-0.397-0.823 0-0.489 0.25-1.015 0.74-1.562 0.464-0.522 0.966-0.877 1.508-1.078v2.3c0 0.131-7e-3 0.233-0.019 0.303-0.029 0.127-0.078 0.237-0.147 0.33h1.143c-0.068-0.105-0.114-0.217-0.135-0.34-0.011-0.065-0.017-0.162-0.017-0.293v-2.649c0-0.161 0.033-0.337 0.099-0.521 0.017-0.06 0.052-0.134 0.098-0.232z" fill="none" stroke="#ed1c24" stroke-width=".168"/>
   </g>
   <g transform="translate(65.018 265)">
    <path d="m0 0-0.034 0.063-0.141 0.015h-0.577v-1.025c6e-3 8e-3 0.065 0.076 0.179 0.205l0.246 0.273c0.124 0.14 0.204 0.234 0.24 0.271l0.061 0.1 0.026 0.098m0.853-2.543h-0.731l0.041 0.09 0.011 0.098-0.013 0.107-0.032 0.094c-0.06 0.131-0.123 0.259-0.181 0.396-0.018 0.029-0.074 0.16-0.171 0.387-0.07 0.166-0.111 0.249-0.111 0.256l-0.418-0.473v-0.608l0.011-0.159 0.075-0.188h-0.636l0.084 0.184 0.01 0.163v2.276l-0.01 0.17-0.084 0.184h1.526c0.128 0 0.228-0.026 0.296-0.067 0.082-0.049 0.12-0.117 0.12-0.217l-0.047-0.178-0.132-0.189c-0.058-0.066-0.141-0.164-0.254-0.287l-0.201-0.225c0.028-0.075 0.067-0.175 0.116-0.294 0.106-0.264 0.177-0.442 0.211-0.527 0.074-0.181 0.154-0.364 0.236-0.552l0.131-0.24c0.03-0.045 0.081-0.111 0.153-0.201" fill="#ed1c24"/>
   </g>
   <g transform="translate(65.018 265)">
    <path d="m0 0-0.034 0.063-0.141 0.015h-0.577v-1.025c6e-3 8e-3 0.065 0.076 0.179 0.205l0.246 0.273c0.124 0.14 0.204 0.234 0.24 0.271l0.061 0.1zm0.853-2.543h-0.731l0.041 0.09 0.011 0.098-0.013 0.107-0.032 0.094c-0.06 0.131-0.123 0.259-0.181 0.396-0.018 0.029-0.074 0.16-0.171 0.387-0.07 0.166-0.111 0.249-0.111 0.256l-0.418-0.473v-0.608l0.011-0.159 0.075-0.188h-0.636l0.084 0.184 0.01 0.163v2.276l-0.01 0.17-0.084 0.184h1.526c0.128 0 0.228-0.026 0.296-0.067 0.082-0.049 0.12-0.117 0.12-0.217l-0.047-0.178-0.132-0.189c-0.058-0.066-0.141-0.164-0.254-0.287l-0.201-0.225c0.028-0.075 0.067-0.175 0.116-0.294 0.106-0.264 0.177-0.442 0.211-0.527 0.074-0.181 0.154-0.364 0.236-0.552l0.131-0.24c0.03-0.045 0.081-0.111 0.153-0.201z" fill="none" stroke="#ed1c24" stroke-width=".168"/>
   </g>
   <g transform="translate(67.981 263.73)">
    <path d="m0 0v1.269c-0.164-0.073-0.316-0.199-0.462-0.359-0.126-0.143-0.234-0.305-0.329-0.487-0.076-0.15-0.13-0.291-0.164-0.423zm0.543-1.274h-0.637l0.083 0.183 0.011 0.166v0.557l-0.562-0.341-0.457 0.341-5e-3 -0.171-2e-3 -0.175c0-0.133 7e-3 -0.242 0.019-0.336l0.077-0.224h-0.656l0.097 0.174 0.031 0.172v0.449c0 0.345 0.086 0.685 0.257 1.025 0.167 0.34 0.397 0.611 0.688 0.825 0.311 0.224 0.616 0.336 0.913 0.336h0.057l0.086-5e-3 -0.071-0.167-0.018-0.173v-2.29l0.014-0.159 0.075-0.187" fill="#ed1c24"/>
   </g>
   <g transform="translate(67.981 263.73)">
    <path d="m0 0v1.269c-0.164-0.073-0.316-0.199-0.462-0.359-0.126-0.143-0.234-0.305-0.329-0.487-0.076-0.15-0.13-0.291-0.164-0.423zm0.543-1.274h-0.637l0.083 0.183 0.011 0.166v0.557l-0.562-0.341-0.457 0.341-5e-3 -0.171-2e-3 -0.175c0-0.133 7e-3 -0.242 0.019-0.336l0.077-0.224h-0.656l0.097 0.174 0.031 0.172v0.449c0 0.345 0.086 0.685 0.257 1.025 0.167 0.34 0.397 0.611 0.688 0.825 0.311 0.224 0.616 0.336 0.913 0.336h0.057l0.086-5e-3 -0.071-0.167-0.018-0.173v-2.29l0.014-0.159z" fill="none" stroke="#ed1c24" stroke-width=".168"/>
   </g>
   <g transform="translate(71.434 265.5)">
    <path d="m0 0c0-0.123-0.056-0.225-0.17-0.304-0.113-0.081-0.245-0.127-0.392-0.127h-0.374v-2.26l0.01-0.163 0.081-0.187h-0.639l0.084 0.184 0.01 0.163v2.263h-0.427c-0.124 0-0.262-0.036-0.41-0.108v0.474h1.79l0.254 0.022c0.013 0 0.071 0.012 0.183 0.043" fill="#ed1c24"/>
   </g>
   <g transform="translate(71.434 265.5)">
    <path d="m0 0c0-0.123-0.056-0.225-0.17-0.304-0.113-0.081-0.245-0.127-0.392-0.127h-0.374v-2.26l0.01-0.163 0.081-0.187h-0.639l0.084 0.184 0.01 0.163v2.263h-0.427c-0.124 0-0.262-0.036-0.41-0.108v0.474h1.79l0.254 0.022c0.013 0 0.071 0.012 0.183 0.043z" fill="none" stroke="#ed1c24" stroke-width=".168"/>
   </g>
   <g transform="translate(74.091 262.46)">
    <path d="m0 0h-2.046l0.085 0.184 0.011 0.163v2.276l-0.011 0.17-0.085 0.184h1.85v-0.499l-0.183 0.081c-0.058 0.019-0.136 0.032-0.228 0.032h-0.892v-0.48h1.175v-0.384h-1.175v-1.341h1.088c0.101 0 0.187 9e-3 0.264 0.038l0.147 0.07z" fill="#ed1c24"/>
   </g>
   <g transform="translate(74.091 262.46)">
    <path d="m0 0h-2.046l0.085 0.184 0.011 0.163v2.276l-0.011 0.17-0.085 0.184h1.85v-0.499l-0.183 0.081c-0.058 0.019-0.136 0.032-0.228 0.032h-0.892v-0.48h1.175v-0.384h-1.175v-1.341h1.088c0.101 0 0.187 9e-3 0.264 0.038l0.147 0.07z" fill="none" stroke="#ed1c24" stroke-width=".168"/>
   </g>
   <g transform="translate(76.699 264.94)">
    <path d="m0 0-0.185 0.081c-0.063 0.02-0.137 0.032-0.23 0.032h-0.89v-0.479h1.116v-0.385h-1.116v-1.38l0.033-0.179 0.096-0.168h-0.675l0.084 0.184 0.012 0.163v2.277l-0.012 0.169-0.084 0.184h1.851z" fill="#ed1c24"/>
   </g>
   <g transform="translate(76.699 264.94)">
    <path d="m0 0-0.185 0.081c-0.063 0.02-0.137 0.032-0.23 0.032h-0.89v-0.479h1.116v-0.385h-1.116v-1.38l0.033-0.179 0.096-0.168h-0.675l0.084 0.184 0.012 0.163v2.277l-0.012 0.169-0.084 0.184h1.851z" fill="none" stroke="#ed1c24" stroke-width=".168"/>
   </g>
   <g transform="translate(79.586 262.42)">
    <path d="m0 0c-0.368 0.07-0.729 0.236-1.087 0.498-0.327 0.242-0.597 0.523-0.807 0.846-0.21 0.322-0.318 0.609-0.318 0.863l0.019 0.238 0.056 0.183 0.05 0.129 0.015 0.12-3e-3 0.065-0.018 0.072h0.743c-0.124-0.121-0.213-0.227-0.27-0.317-0.078-0.117-0.115-0.244-0.115-0.371 0-0.23 0.066-0.465 0.193-0.699 0.117-0.209 0.269-0.404 0.459-0.58 0.177-0.168 0.357-0.285 0.529-0.362v1.975l-9e-3 0.166-0.082 0.188h0.634l-0.072-0.178-0.015-0.176v-2.297l0.014-0.184 0.084-0.179" fill="#ed1c24"/>
   </g>
   <g transform="translate(79.586 262.42)">
    <path d="m0 0c-0.368 0.07-0.729 0.236-1.087 0.498-0.327 0.242-0.597 0.523-0.807 0.846-0.21 0.322-0.318 0.609-0.318 0.863l0.019 0.238 0.056 0.183 0.05 0.129 0.015 0.12-3e-3 0.065-0.018 0.072h0.743c-0.124-0.121-0.213-0.227-0.27-0.317-0.078-0.117-0.115-0.244-0.115-0.371 0-0.23 0.066-0.465 0.193-0.699 0.117-0.209 0.269-0.404 0.459-0.58 0.177-0.168 0.357-0.285 0.529-0.362v1.975l-9e-3 0.166-0.082 0.188h0.634l-0.072-0.178-0.015-0.176v-2.297l0.014-0.184z" fill="none" stroke="#ed1c24" stroke-width=".168"/>
   </g>
   <g transform="translate(83.8 260.02)">
    <path d="m0 0h-3.317c0.076 0.093 0.125 0.206 0.151 0.325 0.01 0.074 0.02 0.178 0.02 0.309v4.135c0 0.13-0.01 0.23-0.02 0.306-0.026 0.123-0.077 0.235-0.151 0.328h1.224c-0.153-0.228-0.231-0.439-0.231-0.634v-4.068h1.576c0.227 0 0.475 0.06 0.748 0.189z" fill="#ed1c24"/>
   </g>
   <g transform="translate(83.8 260.02)">
    <path d="m0 0h-3.317c0.076 0.093 0.125 0.206 0.151 0.325 0.01 0.074 0.02 0.178 0.02 0.309v4.135c0 0.13-0.01 0.23-0.02 0.306-0.026 0.123-0.077 0.235-0.151 0.328h1.224c-0.153-0.228-0.231-0.439-0.231-0.634v-4.068h1.576c0.227 0 0.475 0.06 0.748 0.189z" fill="none" stroke="#ed1c24" stroke-width=".168"/>
   </g>
   <g transform="translate(67.328 259.77)">
    <path d="m0 0c0 0.284-0.134 0.567-0.407 0.852-0.255 0.265-0.535 0.443-0.842 0.521v-2h0.616c0.189 0 0.338 0.055 0.448 0.152 0.123 0.109 0.185 0.268 0.185 0.475m0.493 0c0-0.32-0.096-0.566-0.289-0.746-0.188-0.177-0.444-0.265-0.752-0.265h-1.28l0.087 0.177 0.011 0.168v2.273l-0.011 0.166-0.087 0.19c0.348-0.031 0.7-0.139 1.062-0.326 0.363-0.192 0.657-0.423 0.887-0.705 0.249-0.305 0.372-0.616 0.372-0.932" fill="#ed1c24"/>
   </g>
   <g transform="translate(67.328 259.77)">
    <path d="m0 0c0 0.284-0.134 0.567-0.407 0.852-0.255 0.265-0.535 0.443-0.842 0.521v-2h0.616c0.189 0 0.338 0.055 0.448 0.152 0.123 0.109 0.185 0.268 0.185 0.475zm0.493 0c0-0.32-0.096-0.566-0.289-0.746-0.188-0.177-0.444-0.265-0.752-0.265h-1.28l0.087 0.177 0.011 0.168v2.273l-0.011 0.166-0.087 0.19c0.348-0.031 0.7-0.139 1.062-0.326 0.363-0.192 0.657-0.423 0.887-0.705 0.249-0.305 0.372-0.616 0.372-0.932z" fill="none" stroke="#ed1c24" stroke-width=".168"/>
   </g>
   <g transform="translate(71.152 258.76)">
    <path d="m0 0h-2.165l0.086 0.177 0.01 0.168v2.251l-0.01 0.168-0.086 0.178h1.959v-0.488l-0.195 0.084c-0.065 0.014-0.142 0.025-0.242 0.025h-0.943v-0.476h1.24v-0.378h-1.24v-1.333h1.149c0.109 0 0.204 0.017 0.281 0.043l0.156 0.066z" fill="#ed1c24"/>
   </g>
   <g transform="translate(71.152 258.76)">
    <path d="m0 0h-2.165l0.086 0.177 0.01 0.168v2.251l-0.01 0.168-0.086 0.178h1.959v-0.488l-0.195 0.084c-0.065 0.014-0.142 0.025-0.242 0.025h-0.943v-0.476h1.24v-0.378h-1.24v-1.333h1.149c0.109 0 0.204 0.017 0.281 0.043l0.156 0.066z" fill="none" stroke="#ed1c24" stroke-width=".168"/>
   </g>
   <g transform="translate(73.976 260.02)">
    <path d="m0 0v1.252c-0.175-0.068-0.337-0.188-0.491-0.354-0.134-0.136-0.248-0.3-0.347-0.478-0.082-0.147-0.142-0.291-0.175-0.42zm0.574-1.261h-0.677l0.088 0.179 0.015 0.166v0.551l-0.485-0.36-0.598 0.36-2e-3 -0.168-2e-3 -0.175c0-0.129 8e-3 -0.242 0.019-0.33 0.015-0.094 0.041-0.166 0.081-0.223h-0.695l0.104 0.171 0.033 0.174v0.445c0 0.337 0.092 0.68 0.268 1.014 0.184 0.334 0.422 0.607 0.733 0.814 0.327 0.217 0.649 0.334 0.963 0.334h0.066l0.089-9e-3 -0.075-0.159-0.02-0.175v-2.264l0.013-0.161 0.082-0.184" fill="#ed1c24"/>
   </g>
   <g transform="translate(73.976 260.02)">
    <path d="m0 0v1.252c-0.175-0.068-0.337-0.188-0.491-0.354-0.134-0.136-0.248-0.3-0.347-0.478-0.082-0.147-0.142-0.291-0.175-0.42zm0.574-1.261h-0.677l0.088 0.179 0.015 0.166v0.551l-0.485-0.36-0.598 0.36-2e-3 -0.168-2e-3 -0.175c0-0.129 8e-3 -0.242 0.019-0.33 0.015-0.094 0.041-0.166 0.081-0.223h-0.695l0.104 0.171 0.033 0.174v0.445c0 0.337 0.092 0.68 0.268 1.014 0.184 0.334 0.422 0.607 0.733 0.814 0.327 0.217 0.649 0.334 0.963 0.334h0.066l0.089-9e-3 -0.075-0.159-0.02-0.175v-2.264l0.013-0.161z" fill="none" stroke="#ed1c24" stroke-width=".168"/>
   </g>
   <g transform="translate(77.83 259.77)">
    <path d="m0 0c0 0.284-0.136 0.567-0.407 0.852-0.254 0.265-0.538 0.443-0.843 0.521v-2h0.614c0.19 0 0.341 0.055 0.452 0.152 0.124 0.109 0.184 0.268 0.184 0.475m0.493 0c0-0.32-0.095-0.566-0.287-0.746-0.192-0.177-0.443-0.265-0.755-0.265h-1.28l0.088 0.177 9e-3 0.168v2.273l-9e-3 0.166-0.088 0.19c0.347-0.031 0.703-0.139 1.062-0.326 0.364-0.192 0.658-0.423 0.886-0.705 0.25-0.305 0.374-0.616 0.374-0.932" fill="#ed1c24"/>
   </g>
   <g transform="translate(77.83 259.77)">
    <path d="m0 0c0 0.284-0.136 0.567-0.407 0.852-0.254 0.265-0.538 0.443-0.843 0.521v-2h0.614c0.19 0 0.341 0.055 0.452 0.152 0.124 0.109 0.184 0.268 0.184 0.475zm0.493 0c0-0.32-0.095-0.566-0.287-0.746-0.192-0.177-0.443-0.265-0.755-0.265h-1.28l0.088 0.177 9e-3 0.168v2.273l-9e-3 0.166-0.088 0.19c0.347-0.031 0.703-0.139 1.062-0.326 0.364-0.192 0.658-0.423 0.886-0.705 0.25-0.305 0.374-0.616 0.374-0.932z" fill="none" stroke="#ed1c24" stroke-width=".168"/>
   </g>
   <g transform="translate(62.362 257.52)">
    <path d="m0 0h-0.979c-0.095 0-0.192 0.011-0.276-0.042l-0.052-0.069v-0.745c0-0.151 0.268-0.144 0.372-0.144h0.932l0.122-0.127v-0.033l-0.122-0.119h-0.938c-0.197 0-0.361 9e-3 -0.485 0.082-0.134 0.08-0.216 0.162-0.216 0.338v0.748l0.123 0.246c0.153 0.14 0.353 0.148 0.535 0.148h0.984l0.126-0.125v-0.03l-0.126-0.128" fill="#ed1c24"/>
   </g>
   <g transform="translate(62.362 257.52)">
    <path d="m0 0h-0.979c-0.095 0-0.192 0.011-0.276-0.042l-0.052-0.069v-0.745c0-0.151 0.268-0.144 0.372-0.144h0.932l0.122-0.127v-0.033l-0.122-0.119h-0.938c-0.197 0-0.361 9e-3 -0.485 0.082-0.134 0.08-0.216 0.162-0.216 0.338v0.748l0.123 0.246c0.153 0.14 0.353 0.148 0.535 0.148h0.984l0.126-0.125v-0.03z" fill="none" stroke="#ed1c24" stroke-width=".168"/>
   </g>
   <g transform="translate(65.733 256.24)">
    <path d="m0 0h-0.081l-0.121 0.119v0.518h-1.284v-0.518l-0.123-0.119h-0.08l-0.127 0.119v1.318l0.127 0.125h0.08l0.123-0.125v-0.523h1.284v0.523l0.121 0.125h0.081l0.126-0.125v-1.318z" fill="#ed1c24"/>
   </g>
   <g transform="translate(65.733 256.24)">
    <path d="m0 0h-0.081l-0.121 0.119v0.518h-1.284v-0.518l-0.123-0.119h-0.08l-0.127 0.119v1.318l0.127 0.125h0.08l0.123-0.125v-0.523h1.284v0.523l0.121 0.125h0.081l0.126-0.125v-1.318z" fill="none" stroke="#ed1c24" stroke-width=".168"/>
   </g>
   <g transform="translate(68.209 257.46)">
    <path d="m0 0-0.37-0.543h0.738zm1.101-1.167-0.156-0.083-0.139 0.083-0.24 0.345h-1.133l-0.237-0.345-0.105-0.071-0.139 0.069-0.015 0.103 0.871 1.332 0.192 0.089 0.185-0.089 0.923-1.306z" fill="#ed1c24"/>
   </g>
   <g transform="translate(68.209 257.46)">
    <path d="m0 0-0.37-0.543h0.738zm1.101-1.167-0.156-0.083-0.139 0.083-0.24 0.345h-1.133l-0.237-0.345-0.105-0.071-0.139 0.069-0.015 0.103 0.871 1.332 0.192 0.089 0.185-0.089 0.923-1.306z" fill="none" stroke="#ed1c24" stroke-width=".168"/>
   </g>
   <g transform="translate(72.324 256.23)">
    <path d="m0 0-0.142 0.08-1.244 1.056v-1.005l-0.125-0.119h-0.082l-0.126 0.119v1.316l0.171 0.138 0.199-0.083 1.228-1.047v0.992l0.125 0.127h0.081l0.125-0.127v-1.25c0-0.158-0.076-0.197-0.21-0.197" fill="#ed1c24"/>
   </g>
   <g transform="translate(72.324 256.23)">
    <path d="m0 0-0.142 0.08-1.244 1.056v-1.005l-0.125-0.119h-0.082l-0.126 0.119v1.316l0.171 0.138 0.199-0.083 1.228-1.047v0.992l0.125 0.127h0.081l0.125-0.127v-1.25c0-0.158-0.076-0.197-0.21-0.197z" fill="none" stroke="#ed1c24" stroke-width=".168"/>
   </g>
   <g transform="translate(75.684 256.23)">
    <path d="m0 0-0.146 0.08-1.241 1.056v-1.005l-0.124-0.119h-0.082l-0.127 0.119v1.316l0.173 0.138 0.197-0.083 1.229-1.047v0.992l0.126 0.127h0.079l0.127-0.127v-1.25c0-0.158-0.078-0.197-0.211-0.197" fill="#ed1c24"/>
   </g>
   <g transform="translate(75.684 256.23)">
    <path d="m0 0-0.146 0.08-1.241 1.056v-1.005l-0.124-0.119h-0.082l-0.127 0.119v1.316l0.173 0.138 0.197-0.083 1.229-1.047v0.992l0.126 0.127h0.079l0.127-0.127v-1.25c0-0.158-0.078-0.197-0.211-0.197z" fill="none" stroke="#ed1c24" stroke-width=".168"/>
   </g>
   <g transform="translate(78.959 256.24)">
    <path d="m0 0h-0.988c-0.229 0-0.649 0.07-0.649 0.402v0.75c0 0.338 0.436 0.41 0.672 0.41h0.957l0.123-0.125v-0.03l-0.123-0.128h-0.969c-0.094 0-0.329 0.013-0.329-0.127v-0.238h1.027l0.124-0.135v-0.023l-0.13-0.119h-1.021v-0.227c0-0.131 0.235-0.131 0.329-0.131h0.977l0.12-0.127v-0.033l-0.12-0.119" fill="#ed1c24"/>
   </g>
   <g transform="translate(78.959 256.24)">
    <path d="m0 0h-0.988c-0.229 0-0.649 0.07-0.649 0.402v0.75c0 0.338 0.436 0.41 0.672 0.41h0.957l0.123-0.125v-0.03l-0.123-0.128h-0.969c-0.094 0-0.329 0.013-0.329-0.127v-0.238h1.027l0.124-0.135v-0.023l-0.13-0.119h-1.021v-0.227c0-0.131 0.235-0.131 0.329-0.131h0.977l0.12-0.127v-0.033z" fill="none" stroke="#ed1c24" stroke-width=".168"/>
   </g>
   <g transform="translate(82.08 256.24)">
    <path d="m0 0h-0.791c-0.295 0-0.781 9e-3 -0.781 0.423v1.014l0.126 0.125h0.082l0.125-0.125v-1.014l0.098-0.113c0.064-0.021 0.179-0.031 0.349-0.031h0.793l0.123-0.127v-0.033l-0.124-0.119" fill="#ed1c24"/>
   </g>
   <g transform="translate(82.08 256.24)">
    <path d="m0 0h-0.791c-0.295 0-0.781 9e-3 -0.781 0.423v1.014l0.126 0.125h0.082l0.125-0.125v-1.014l0.098-0.113c0.064-0.021 0.179-0.031 0.349-0.031h0.793l0.123-0.127v-0.033z" fill="none" stroke="#ed1c24" stroke-width=".168"/>
   </g>
  </g>
 </g>
</svg>
