<svg width="800" height="225.58" version="1.1" viewBox="0 0 211.67 59.684" xmlns="http://www.w3.org/2000/svg">
 <defs>
  <linearGradient id="linearGradient13398" x2="1" gradientTransform="matrix(0 -10.542 -10.542 0 256.95 584.72)" gradientUnits="userSpaceOnUse">
   <stop stop-color="#f19c1b" offset="0"/>
   <stop stop-color="#ed1c24" offset=".65168"/>
   <stop stop-color="#ed1c24" offset="1"/>
  </linearGradient>
  <linearGradient id="linearGradient13376" x2="1" gradientTransform="matrix(0 -6.5547 -6.5547 0 251.83 583.56)" gradientUnits="userSpaceOnUse">
   <stop stop-color="#1ea6e6" offset="0"/>
   <stop stop-color="#173e7d" offset="1"/>
  </linearGradient>
  <linearGradient id="linearGradient13356" x2="1" gradientTransform="matrix(0 -6.5537 -6.5537 0 248.49 583.56)" gradientUnits="userSpaceOnUse">
   <stop stop-color="#1ea6e6" offset="0"/>
   <stop stop-color="#173e7d" offset="1"/>
  </linearGradient>
  <linearGradient id="linearGradient13336" x2="1" gradientTransform="matrix(0 -6.5563 -6.5563 0 244.37 583.56)" gradientUnits="userSpaceOnUse">
   <stop stop-color="#1ea6e6" offset="0"/>
   <stop stop-color="#173e7d" offset="1"/>
  </linearGradient>
  <linearGradient id="linearGradient13316" x2="1" gradientTransform="matrix(0 -8.0917 -8.0917 0 240.9 583.08)" gradientUnits="userSpaceOnUse">
   <stop stop-color="#1ea6e6" offset="0"/>
   <stop stop-color="#173e7d" offset="1"/>
  </linearGradient>
  <linearGradient id="linearGradient13296" x2="1" gradientTransform="matrix(0 -6.5461 -6.5461 0 273.48 581.01)" gradientUnits="userSpaceOnUse">
   <stop stop-color="#1ea6e6" offset="0"/>
   <stop stop-color="#173e7d" offset="1"/>
  </linearGradient>
  <linearGradient id="linearGradient13276" x2="1" gradientTransform="matrix(0 -6.5536 -6.5536 0 267.91 581.01)" gradientUnits="userSpaceOnUse">
   <stop stop-color="#1ea6e6" offset="0"/>
   <stop stop-color="#173e7d" offset="1"/>
  </linearGradient>
  <linearGradient id="linearGradient13256" x2="1" gradientTransform="matrix(0 -6.549 -6.549 0 278.28 581.01)" gradientUnits="userSpaceOnUse">
   <stop stop-color="#1ea6e6" offset="0"/>
   <stop stop-color="#173e7d" offset="1"/>
  </linearGradient>
  <linearGradient id="linearGradient13236" x2="1" gradientTransform="matrix(0 -6.5452 -6.5452 0 260.47 581.01)" gradientUnits="userSpaceOnUse">
   <stop stop-color="#1ea6e6" offset="0"/>
   <stop stop-color="#173e7d" offset="1"/>
  </linearGradient>
  <linearGradient id="linearGradient13216" x2="1" gradientTransform="matrix(0 -6.551 -6.551 0 269.89 581.01)" gradientUnits="userSpaceOnUse">
   <stop stop-color="#1ea6e6" offset="0"/>
   <stop stop-color="#173e7d" offset="1"/>
  </linearGradient>
  <linearGradient id="linearGradient13196" x2="1" gradientTransform="matrix(0 -6.5501 -6.5501 0 266.1 581.01)" gradientUnits="userSpaceOnUse">
   <stop stop-color="#1ea6e6" offset="0"/>
   <stop stop-color="#173e7d" offset="1"/>
  </linearGradient>
 </defs>
 <g transform="translate(171.24 -14.777)">
  <g transform="matrix(5.0284 0 0 -5.0284 -1368.1 2959.5)">
   <path d="m263.39 574.38h1.134v0.954h1.653l1.321-1.526 1.296 0.024-5.404 6.476zm1.134 3.104 1.108-1.516h-1.108z" fill="url(#linearGradient13196)"/>
  </g>
  <g transform="matrix(5.0284 0 0 -5.0284 -1368.1 2959.5)">
   <path d="m269.39 573.87h1.003v4.986l-1.003 0.887z" fill="url(#linearGradient13216)"/>
  </g>
  <g transform="matrix(5.0284 0 0 -5.0284 -1368.1 2959.5)">
   <path d="m261.5 581.1v-3.789l-3.305 3.737v-4.512l1.227-1.203v2.258l3.318-3.59v7.099z" fill="url(#linearGradient13236)"/>
  </g>
  <g transform="matrix(5.0284 0 0 -5.0284 -1368.1 2959.5)">
   <path d="m276.44 574.36h1e-3l1.104 0.915v1.955l2.574-2.672v5.333h-1.077v-2.484l-2.602 2.871z" fill="url(#linearGradient13256)"/>
  </g>
  <g transform="matrix(5.0284 0 0 -5.0284 -1368.1 2959.5)">
   <path d="m265.28 581.51-0.923-0.979h2.876v-4.014l1.068-1.207v5.123h3.182v1.077z" fill="url(#linearGradient13276)"/>
  </g>
  <g transform="matrix(5.0284 0 0 -5.0284 -1368.1 2959.5)">
   <path d="m273.48 581.1-0.013 0.015v-0.039l-2.497-3.695 2.497-3.368v-0.03l0.013 0.014 0.01-0.014v0.03l2.501 3.368-2.501 3.695v0.039zm2e-3 -2.034v-0.011l1.074-1.583-1.074-1.444v-0.014l-2e-3 7e-3 -8e-3 -7e-3v0.014l-1.068 1.444 1.068 1.583v0.011l8e-3 -4e-3z" fill="url(#linearGradient13296)"/>
  </g>
  <g transform="matrix(5.0284 0 0 -5.0284 -1368.1 2959.5)">
   <path d="m242.57 584.75v-3.913h-1.704v3.46l-1.147-0.798v-2.662h-1.695l1.087-0.862h0.608v-3.679h1.147v3.679h1.704v-1.684l1.184 1.434v0.25h0.02l-0.02 0.035v5.612z" fill="url(#linearGradient13316)"/>
  </g>
  <g transform="matrix(5.0284 0 0 -5.0284 -1368.1 2959.5)">
   <path d="m241.46 576.3 1.297-0.028 1.734 2.03h1.656v-1.654h1.131v6.633zm4.687 4.156v-1.508h-1.106z" fill="url(#linearGradient13336)"/>
  </g>
  <g transform="matrix(5.0284 0 0 -5.0284 -1368.1 2959.5)">
   <path d="m248.03 584.86 5e-3 -8.195h0.908v7.256z" fill="url(#linearGradient13356)"/>
  </g>
  <g transform="matrix(5.0284 0 0 -5.0284 -1368.1 2959.5)">
   <path d="m249.63 583.25v-6.623h1.133v2.21l2.038-2.329h1.229l-1.876 2.329h1.69zm1.102-2.539 1.104-1.206h-1.07z" fill="url(#linearGradient13376)"/>
  </g>
  <g transform="matrix(5.0284 0 0 -5.0284 -1368.1 2959.5)">
   <path d="m253.82 584.94c-0.089-0.067-0.447-0.261-0.463-0.478-6e-3 -0.115 0.019-0.294 0.064-0.477-3e-3 -0.26-0.026-1.304-0.146-1.708 0 0 0.157 0.439 0.182 1.583l0.091-0.254c5e-3 -0.076 0.017-0.182 0.024-0.299 2e-3 -0.633-0.019-1.393-0.115-1.79 0 0 0.108 0.348 0.156 1.156 0.029-0.609 0.044-1.305-0.029-1.68 0 0 0.171 0.68 0.048 2.318v0.083c0.077-0.314 0.179-0.61 0.274-0.905 9e-3 -0.437 2e-3 -0.851-0.051-1.121 0 0 0.047 0.179 0.079 0.581 0.011-0.439 0-0.861-0.054-1.126 0 0 0.117 0.43 0.096 1.44l0.041-0.127-0.041 0.168c-2e-3 0.111-9e-3 0.237-0.015 0.361 0.027-0.083 0.063-0.19 0.117-0.326 0.145-0.572 0.235-1.474-0.332-2.126 0 0 0.496 0.355 0.515 1.309 7e-3 -0.206 0-0.449-0.03-0.734 0 0 0.115 0.4 0.099 0.938 0.153-0.358 0.305-0.686 0.369-0.799 0.072-0.128 0.117-0.327-0.139-0.518 0.097 0.056 0.26 0.137 0.264 0.159 0.02 0.112 0.027 0.297-0.018 0.367-0.034 0.049-0.131 0.322-0.219 0.526 0.123-0.26 0.338-0.701 0.417-0.961l0.038 9e-3s-0.244 0.667-0.314 0.828l0.376-0.783-0.325 0.766 0.16-0.119c0.028-0.14 0.282-0.551 0.297-0.61v-0.023l-0.091-0.029c-0.248-0.084-0.503-0.21-0.653-0.395-0.126-0.162-0.174-0.342-0.242-0.518-0.079-0.213-0.156-0.472-0.019-0.672l0.077-0.089c-0.115-0.206-0.224-0.306-0.287-0.413-0.076-0.126-0.527-1.281-0.638-1.435-0.115-0.154-0.24-0.848-0.279-0.961l-0.043-0.067c-0.141-0.111-0.372-0.278-0.491-0.304 0 0-0.544-0.112-0.305-0.561l-0.04-9e-3 0.1-0.527s0.771-0.13 0.922 0.141c0 0 0.067 0.123 0.156 0.222l0.18-0.153 0.445 0.117-7e-3 0.515-0.18 0.489c0.014 0.107 0.039 0.211 0.098 0.313 0.022 0.042 0.065 0.137 0.12 0.254l0.086-0.024 0.18 0.221-0.163 0.044c0.049 0.11 0.095 0.22 0.144 0.327l0.249-0.074 0.185 0.221-0.328 0.091 0.1 0.207 0.099 0.093 0.151-0.047 0.082 0.26-0.131 0.035c0.076 0.138 0.144 0.28 0.193 0.315 0.068 0.061 0.226 0.224 0.355 0.381 0.13 0.166 0.546 0.671 0.546 0.671l0.144 0.035s-0.305-0.591-0.28-0.713c0.027-0.122 0.838-1.525 0.936-1.742 0.095-0.214 0.44-0.665 0.44-0.665l0.031-0.054s0.111-0.211 0.139-0.402c-7e-3 -9e-3 -0.19-0.563-0.528-0.649 0 0-0.363-0.342-0.273-0.66l-0.048-0.019 0.101-0.533s0.754-0.221 1.054 0.237c0 0 0.153 0.259 0.31 0.427l0.04 0.019 0.185-0.176 0.625 0.332v0.386l-2e-3 3e-3v8e-3l-0.134 0.288c-0.038 0.059-0.258 0.349-0.394 0.549-0.136 0.206-0.301 0.458-0.336 0.519-9e-3 0.021-0.043 0.126-0.078 0.262l0.097 0.074-0.062 0.274-0.111-0.085c-0.031 0.126-0.068 0.249-0.106 0.362l0.121 0.085-0.063 0.279-0.166-0.117-0.025 0.052-0.184 0.213 0.117 0.08-0.168 0.225-0.12-0.101c-0.105 0.12-0.191 0.23-0.182 0.294 9e-3 0.128 0.081 0.357 0.123 0.455 0.038 0.098 0.297 0.803 0.464 1.096 0.088 0.164 0.127 0.247 0.205 0.456 0.873 0.321 2.459 0.996 2.59 0.882 0.105-0.08 0.129-0.171 0.28-0.091 0.113 0.056 0.954 0.636 1.074 0.682 0.109 0.054 0.115 0.278-8e-3 0.294-0.02 0-0.137-0.021-0.295-0.054l-0.016 0.087 0.04 0.054-0.061 0.026-0.049-0.054 0.049-0.03 0.021-0.089-0.161-0.038-0.025 0.098 0.026 0.059-0.076 0.032-0.051-0.062 0.063-0.042 0.025-0.091-0.187-0.043-0.023 0.093 0.046 0.038-0.074 0.01-0.061-0.043 0.067-0.011 0.022-0.094-0.129-0.026-0.024 0.091 0.027 0.04-0.072 0.021-0.059-0.056 0.067-0.02 0.021-0.092-0.119-0.021-0.017 0.091-5e-3 0.028-0.04 0.059-0.016-0.076 0.037-0.051 0.014-0.057-0.164-0.027-0.026 0.096 0.026 0.035-0.061 0.015-0.047-0.043 0.047-0.022 0.024-0.095-0.118-9e-3 -0.072-0.131c-0.279-0.062-1.627-0.488-2.337-0.708-0.021 0.245-0.048 0.521-0.153 0.696-0.11 0.192-0.686 1.253-0.876 1.508-0.115 0.143-0.255 0.297-0.377 0.418 0.161-0.065 0.312-0.131 0.497-0.231 0 0-0.152 0.118-0.404 0.255 0.226-0.072 0.481-0.172 0.81-0.348 0 0-0.591 0.471-1.41 0.605l-0.221 0.077c-0.12 0.102-0.25 0.212-0.389 0.312 0.501-0.109 0.9-0.08 0.9-0.08-0.479 0.048-0.838 0.134-1.097 0.223l-3e-3 3e-3c0.354-0.047 0.603-0.029 0.603-0.029-0.29 0.029-0.535 0.072-0.744 0.117l-0.228 0.152-0.225 0.176c-0.134 0.069-0.444 0.148-0.614 0.148zm1.358-0.746-0.119 0.134 0.054-0.017c0.118-0.088 0.233-0.172 0.35-0.261-0.124 0.055-0.242 0.098-0.285 0.144m-1.391-1.067 0.102-0.248 0.01-0.134 3e-3 -0.132c-0.039 0.177-0.082 0.351-0.115 0.514m1.707-1.66c-0.103 0.165-0.332 0.458-0.332 0.458s0.321 0.137 0.387 0.045c0.066-0.089 0.176-0.168 0.169-0.332-0.011-0.171-0.027-0.53-0.027-0.53s-0.09 0.199-0.197 0.359m-1.4 0.361c-0.023 0.102-0.052 0.208-0.077 0.308 0.042-0.183 0.077-0.308 0.077-0.308m0.396-1.466 0.07 0.047z" fill="url(#linearGradient13398)"/>
  </g>
 </g>
</svg>
