<svg width="800" height="227.3" version="1.1" viewBox="0 0 211.67 60.139" xmlns="http://www.w3.org/2000/svg">
 <g transform="translate(197.25 27.743)">
  <g transform="matrix(5.4227 0 0 -5.4227 -78.45 -17.954)">
   <path d="m0 0s0.579 1.785 2.653 1.768c2.072-0.018 2.625-1.715 2.609-3.534-0.023-3.027-5.33-6.779-5.33-6.779h-0.018s-5.247 3.832-5.224 6.863c0.015 1.815 0.593 3.506 2.669 3.487 2.068-0.012 2.623-1.805 2.623-1.805z" fill="#ed0e58"/>
  </g>
  <g transform="matrix(5.4227 0 0 -5.4227 -82.649 -4.1109)">
   <path d="m0 0c-0.095 0.115-0.32 0.352-0.32 0.811 0 0.673 0.556 1.168 1.212 1.168 0.766 0 1.133-0.655 1.133-1.006l-0.05-0.09c-0.106 0-0.114 0.191-0.25 0.355-0.188 0.246-0.423 0.317-0.665 0.317-0.578 0-1.012-0.446-1.012-1.01 0-0.262 0.068-0.414 0.12-0.545 0.409-0.023 0.814-0.422 0.814-0.646l-0.055-0.057c-0.102 0-0.268 0.256-0.759 0.256-0.881 0-1.533-0.725-1.533-1.528 0-0.81 0.698-1.542 1.739-1.542 1.027 0 2.171 0.622 2.171 1.609 0 0.48-0.323 0.805-0.785 0.805-0.564 0-0.97-0.387-0.97-0.778 0-0.219 0.12-0.357 0.168-0.357 0.102 0 0.095 0.275 0.375 0.275 0.204 0 0.263-0.174 0.263-0.283 0-0.119-0.091-0.332-0.373-0.332-0.323 0-0.605 0.262-0.605 0.662 0 1.289 2.393 1.713 2.948 1.957 0.373 0.178 0.676 0.41 0.676 0.817 0 0.476-0.326 0.671-0.607 0.671l-0.174-0.103 0.039-0.203c0-0.155-0.112-0.295-0.3-0.295-0.197 0-0.313 0.14-0.313 0.31 0 0.348 0.423 0.453 0.669 0.453 0.4 0 0.923-0.308 0.923-0.957 0-1.336-1.611-1.361-1.781-1.386-0.516-0.076-1.024-0.108-1.256-0.317l0.021-0.015c0.074 0.025 0.17 0.041 0.269 0.041 0.539 0 1.04-0.354 1.04-1.055 0-1.258-1.47-1.69-2.438-1.69-1.105 0-2.23 0.649-2.23 1.858 0 1.033 0.834 1.83 1.753 1.83z" fill="#fff"/>
  </g>
  <g transform="matrix(5.4227 0 0 -5.4227 -82.649 -4.1109)">
   <path d="m0 0c-0.095 0.115-0.32 0.352-0.32 0.811 0 0.673 0.556 1.168 1.212 1.168 0.766 0 1.133-0.655 1.133-1.006l-0.05-0.09c-0.106 0-0.114 0.191-0.25 0.355-0.188 0.246-0.423 0.317-0.665 0.317-0.578 0-1.012-0.446-1.012-1.01 0-0.262 0.068-0.414 0.12-0.545 0.409-0.023 0.814-0.422 0.814-0.646l-0.055-0.057c-0.102 0-0.268 0.256-0.759 0.256-0.881 0-1.533-0.725-1.533-1.528 0-0.81 0.698-1.542 1.739-1.542 1.027 0 2.171 0.622 2.171 1.609 0 0.48-0.323 0.805-0.785 0.805-0.564 0-0.97-0.387-0.97-0.778 0-0.219 0.12-0.357 0.168-0.357 0.102 0 0.095 0.275 0.375 0.275 0.204 0 0.263-0.174 0.263-0.283 0-0.119-0.091-0.332-0.373-0.332-0.323 0-0.605 0.262-0.605 0.662 0 1.289 2.393 1.713 2.948 1.957 0.373 0.178 0.676 0.41 0.676 0.817 0 0.476-0.326 0.671-0.607 0.671l-0.174-0.103 0.039-0.203c0-0.155-0.112-0.295-0.3-0.295-0.197 0-0.313 0.14-0.313 0.31 0 0.348 0.423 0.453 0.669 0.453 0.4 0 0.923-0.308 0.923-0.957 0-1.336-1.611-1.361-1.781-1.386-0.516-0.076-1.024-0.108-1.256-0.317l0.021-0.015c0.074 0.025 0.17 0.041 0.269 0.041 0.539 0 1.04-0.354 1.04-1.055 0-1.258-1.47-1.69-2.438-1.69-1.105 0-2.23 0.649-2.23 1.858 0 1.033 0.834 1.83 1.753 1.83z" fill="none" stroke="#fff" stroke-width=".329"/>
  </g>
  <g transform="matrix(5.4227 0 0 -5.4227 -183.97 32.397)">
   <path d="m0 0v6.043h-1.243v-4.117h-1.206l0.439 0.644v7.153l-0.439 0.638h1.206v-3.572h1.243v3.572h1.204l-0.437-0.638v-9.08l0.437-0.643z" fill="#231f20"/>
  </g>
  <path d="m-165.49-7.3857h-4.0236v9.5656h4.0236zm-5.1244 27.086c-0.93766 0-1.5456-0.1843-2.2126-0.80792-0.59026-0.5423-0.84542-1.1767-0.84542-2.0118v-24.966c0-0.8568 0.25516-1.4695 0.84542-2.001 0.66712-0.60194 1.2743-0.7701 2.2126-0.7701h6.198c0.92228 0 1.5401 0.16816 2.2016 0.7701 0.59641 0.53139 0.86695 1.1442 0.86695 2.001v13.752h-8.1665v10.525h4.0236l4.1429-6.9898v10.498z" fill="#231f20"/>
  <path d="m-146.83 5.6667h-3.9966v10.525h3.9966zm-5.3631 14.034c-0.84542 0-1.4634-0.23318-2.0227-0.88385-0.59641-0.6562-0.79162-1.258-0.79162-2.1799v-11.648c0-0.87309 0.25977-1.4532 0.86694-2.0118 0.67788-0.629 1.2804-0.79716 2.1907-0.79716h5.1191v-9.5656h-3.9966l-4.1809 5.607v-9.0776h9.2891c0.91614 0 1.5341 0.16816 2.2015 0.77011 0.61332 0.53139 0.83467 1.1442 0.83467 2.001v24.277l2.3915 3.5085z" fill="#231f20"/>
  <g transform="matrix(5.4227 0 0 -5.4227 -126.35 -7.384)">
   <path d="m0 0h-0.738v-4.348l0.439-0.646h-1.645l0.437 0.646v4.348l-0.437 0.641h2.146c0.172 0 0.285-0.032 0.41-0.143 0.114-0.098 0.155-0.211 0.155-0.369v-1.162z" fill="#231f20"/>
  </g>
  <g transform="matrix(5.4227 0 0 -5.4227 -113.09 24.602)">
   <path d="m0 0c-0.165 0-0.281 0.033-0.405 0.147-0.113 0.101-0.159 0.214-0.159 0.375v5.376h-0.439v0.641h0.439v2.803h0.763v-2.803h0.746v-0.641h-0.746v-5.251l0.746-0.647z" fill="#231f20"/>
  </g>
  <g transform="matrix(5.4227 0 0 -5.4227 -37.16 31.369)">
   <path d="m0 0c-0.123-0.119-0.232-0.152-0.405-0.152h-1.708v2.84l0.765-2.202h0.742v5.389h-0.956c-0.17-6e-3 -0.292 0.035-0.405 0.15-0.113 0.11-0.146 0.213-0.146 0.367v3.262c0 0.156 0.047 0.27 0.154 0.375 0.114 0.102 0.242 0.143 0.397 0.143h1.72v-2.112l-0.764 1.473h-0.742v-2.926h0.951c0.172 0.012 0.295-0.035 0.409-0.146 0.111-0.113 0.146-0.217 0.146-0.373v-5.719c0-0.16-0.047-0.271-0.158-0.369" fill="#231f20"/>
  </g>
  <path d="m-23.293-7.8683h-4.0345v23.589h4.0345zm3.2861 26.295c-0.66097 0.59656-1.2958 0.77549-2.1853 0.77549h-6.2414c-0.90537 0-1.5295-0.17892-2.1853-0.77549-0.62408-0.56936-0.86695-1.1767-0.86695-2.0335v-24.928c0-0.85142 0.2444-1.475 0.86695-2.0335 0.65636-0.60732 1.2804-0.78625 2.1853-0.78625h6.2414c0.89 0 1.5233 0.17892 2.1853 0.78625 0.58565 0.5586 0.85619 1.1822 0.85619 2.0335v24.928c0 0.8568-0.27054 1.4641-0.85619 2.0335" fill="#231f20"/>
  <g transform="matrix(5.4227 0 0 -5.4227 -9.9515 19.2)">
   <path d="m0 0c-0.17 0-0.281 0.033-0.408 0.143-0.106 0.105-0.151 0.216-0.151 0.375v4.474l-0.44 0.643h1.204v-4.992h0.74v4.992h0.767v-4.992l0.435-0.643z" fill="#231f20"/>
  </g>
  <g transform="matrix(5.4227 0 0 -5.4227 5.4642 19.2)">
   <path d="m0 0 0.436 0.643v7.156l-0.436 0.635h1.2v-7.791l0.451-0.655z" fill="#231f20"/>
  </g>
 </g>
</svg>
