<svg width="800" height="305.04" version="1.1" viewBox="0 0 211.67 80.71" xmlns="http://www.w3.org/2000/svg">
 <g transform="translate(-57.043 101.87)">
  <g transform="matrix(5.7267 0 0 -5.7267 268.71 -29.994)">
   <path d="m0 0c0-0.851-0.67-1.542-1.499-1.542h-18.439c-0.829 0-1.499 0.691-1.499 1.542v10.832c0 0.852 0.67 1.543 1.499 1.543h18.439c0.829 0 1.499-0.691 1.499-1.543z" fill="#85acc3"/>
  </g>
  <g transform="matrix(5.7267 0 0 -5.7267 137.75 -64.602)">
   <path d="m0 0v4.911s0 1.421-1.42 1.421h-9.478v-3.756h4.908v2.779h1.445v-5.355z" fill="#4d708c"/>
  </g>
  <g transform="matrix(5.7267 0 0 -5.7267 75.346 -58.676)">
   <path d="m0 0h-1.443v2.595h-0.97v1.193h0.97v3.755h-0.331s-1.422 0-1.422-1.421v-11.251s0-1.421 1.422-1.421h11.252s1.42 0 1.42 1.421v5.129h-7.91v-1.567h6.111c0.387 0 0.662-0.283 0.651-0.606v-2.578c0-0.315-0.256-0.605-0.651-0.605h-7.556v1.202h6.756v1.393h-6.109c-0.397 0-0.647 0.291-0.647 0.607v2.757c-8e-3 0.318 0.258 0.607 0.647 0.607h2.717v1.385h-4.907z" fill="#fff"/>
  </g>
  <g transform="matrix(5.7267 0 0 -5.7267 156.19 -65.452)">
   <path d="m0 0v4.961h0.983v-1.798h0.35v1.798h0.978v-4.961h-0.978v2.369h-0.35v-2.369z" fill="#231f20"/>
  </g>
  <g transform="matrix(5.7267 0 0 -5.7267 180.55 -88.315)">
   <path d="m0 0c0 0.138-0.021 0.325-0.175 0.325-0.15 0-0.175-0.187-0.175-0.325v-3.024c0-0.138 0.025-0.327 0.175-0.327 0.154 0 0.175 0.189 0.175 0.327zm-1.33 0.16c0 0.66 0.551 0.905 1.155 0.905 0.608 0 1.156-0.245 1.156-0.905v-3.345c0-0.66-0.548-0.905-1.156-0.905-0.604 0-1.155 0.245-1.155 0.905z" fill="#231f20"/>
  </g>
  <g transform="matrix(5.7267 0 0 -5.7267 203.08 -93.862)">
   <path d="m0 0 0.279-3.254h0.01l0.252 3.254h0.983l-0.689-4.961h-1.126l-0.338 3.462h-0.01l-0.377-3.462h-1.101l-0.502 4.961h0.98l0.202-3.254h0.015l0.356 3.254z" fill="#231f20"/>
  </g>
  <g transform="matrix(5.7267 0 0 -5.7267 218.83 -77.263)">
   <path d="m0 0-0.133 2.033h-0.027l-0.163-2.033zm-0.698 2.899h1.302l0.591-4.961h-1.02l-0.113 1.35h-0.466l-0.154-1.35h-0.877z" fill="#231f20"/>
  </g>
  <g transform="matrix(5.7267 0 0 -5.7267 233.11 -82.008)">
   <path d="m0 0h0.119c0.16 0 0.229 0.077 0.229 0.313v0.732c0 0.237-0.069 0.313-0.229 0.313h-0.119zm-0.981-2.891v4.961h1.152c0.61 0 1.159-0.245 1.159-1.003v-0.44c0-0.37-0.166-0.773-0.759-0.809v-0.012c0.62-0.036 0.759-0.273 0.759-0.836v-0.983c0-0.481 0.09-0.683 0.146-0.878h-0.995c-0.069 0.141-0.133 0.301-0.133 0.641v1.127c0 0.308 0 0.553-0.348 0.553v-2.321z" fill="#231f20"/>
  </g>
  <g transform="matrix(5.7267 0 0 -5.7267 249.05 -69.518)">
   <path d="m0 0h0.173c0.156 0 0.175 0.19 0.175 0.33v2.881c0 0.141-0.019 0.328-0.175 0.328h-0.173zm-0.979 4.251h1.152c0.608 0 1.158-0.245 1.158-0.908v-3.146c0-0.662-0.55-0.907-1.158-0.907h-1.152z" fill="#231f20"/>
  </g>
  <g transform="matrix(5.7267 0 0 -5.7267 192.04 -54.545)">
   <path d="m0 0c-0.941 0-1.216-0.205-1.216-1.244v-0.875c0-0.971 0.294-1.194 1.216-1.194h0.883c0.947 0 1.22 0.23 1.22 1.21v0.901c0 0.997-0.273 1.202-1.22 1.202zm3.369 0.972c0.387-0.335 0.554-0.915 0.554-1.798v-1.66c0-0.876-0.167-1.462-0.554-1.798-0.427-0.369-1.06-0.417-1.991-0.417h-1.871c-0.914 0-1.545 0.04-1.989 0.417-0.414 0.342-0.564 0.914-0.564 1.766v1.616c0 0.918 0.133 1.515 0.556 1.874 0.42 0.361 1.047 0.418 1.984 0.418h1.884c0.941 0 1.57-0.049 1.991-0.418" fill="#fff"/>
  </g>
  <g transform="matrix(5.7267 0 0 -5.7267 236.03 -54.545)">
   <path d="m0 0c-0.943 0-1.22-0.205-1.22-1.244v-0.875c0-0.971 0.298-1.194 1.22-1.194h0.881c0.947 0 1.218 0.23 1.218 1.21v0.901c0 0.997-0.271 1.202-1.218 1.202zm3.367 0.972c0.385-0.335 0.554-0.915 0.554-1.798v-1.66c0-0.876-0.169-1.462-0.554-1.798-0.427-0.369-1.058-0.417-1.989-0.417h-1.876c-0.914 0-1.542 0.04-1.988 0.417-0.408 0.342-0.564 0.914-0.564 1.766v1.616c0 0.918 0.137 1.515 0.556 1.874 0.42 0.361 1.049 0.418 1.988 0.418h1.884c0.939 0 1.568-0.049 1.989-0.418" fill="#fff"/>
  </g>
  <g transform="matrix(5.7267 0 0 -5.7267 170.02 -28.039)">
   <path d="m0 0h-1.745v4.607l-0.779 1e-3 7e-3 1.336h2.517z" fill="#fff"/>
  </g>
 </g>
</svg>
