<svg width="800" height="557.81" version="1.1" viewBox="0 0 211.67 147.59" xmlns="http://www.w3.org/2000/svg">
 <g transform="translate(-47.209 173.73)">
  <g transform="matrix(8.4347 0 0 -8.4347 48.338 -72.99)">
   <path d="m0 0-0.038 0.037c-0.112 0.166-0.224 0.518 0.276 0.66l0.067 4e-3 1.162-0.506 0.748-0.327 0.648-0.282s1.035-0.536 1.736-0.968c1.204-0.701 0.63-0.635-0.193-0.376l-1.939 0.685-1.305 0.568z" fill="#ed1c24"/>
  </g>
  <g transform="matrix(8.4347 0 0 -8.4347 67.088 -117.71)">
   <path d="m0 0 0.013 0.027c0.088 0.101 0.333 0.275 0.696 0.165l0.036-0.02c3e-3 -0.012 0.052-0.224 0.123-0.537 0.036-0.156 0.078-0.338 0.122-0.532 0.023-0.096 0.045-0.196 0.069-0.298-2e-3 -0.048 0.113-0.353 0.076-0.508-0.043-0.392-0.487-0.593-0.871-0.512-0.197 0.02-0.38 0.038-0.537 0.053-0.314 0.031-0.523 0.052-0.523 0.052s-0.536 0.131-0.906 0.284c-0.631 0.225-0.356 0.368 0.054 0.419l0.973 0.05s0.503-0.049 1.01-0.099c-0.164 0.716-0.33 1.436-0.335 1.456" fill="#ed1c24"/>
  </g>
  <g transform="matrix(8.4347 0 0 -8.4347 103.66 -101.74)">
   <path d="m0 0 9e-3 -0.028c5e-3 -0.132-0.053-0.424-0.382-0.604l-0.039-0.012-2.727 1.75s-0.396 0.347-0.641 0.642c-0.433 0.471-0.134 0.48 0.239 0.349l0.851-0.374 2.69-1.723" fill="#ed1c24"/>
  </g>
  <g transform="matrix(8.4347 0 0 -8.4347 81.597 -142.93)">
   <path d="m0 0-1e-3 0.053c0.037 0.197 0.204 0.526 0.659 0.276l0.051-0.044 0.473-1.176 0.344-0.86 0.263-0.656s0.362-1.108 0.558-1.908l0.104-0.423c0.015-0.123 0.047-0.16 0.058-0.281-0.019-0.13-0.114-0.111-0.126-0.106l-0.027 0.05 0.02 0.033c-0.085-5e-3 -0.056-3e-3 -0.145 0.1-0.088 0.138-0.184 0.302-0.286 0.494l-0.9 1.849-0.226 0.563-0.346 0.86z" fill="#ed1c24"/>
  </g>
  <g transform="matrix(8.4347 0 0 -8.4347 106.95 -171.52)">
   <path d="m0 0 0.023 0.048c0.123 0.158 0.421 0.375 0.713-0.053l0.026-0.063-0.113-1.262-0.139-1.539-0.033-0.362c-0.016-0.24-0.044-0.457-0.258-0.564 0 0-0.11-0.093-0.343-0.105-0.096-0.014-0.303 0.03-0.362 0.055-0.076 0.023-0.164 0.05-0.261 0.08-0.376 0.116-0.849 0.269-1.235 0.412-1.318 0.453-0.742 0.5 0.116 0.407-0.128 0.045 2.225-0.334 1.586-0.196l0.031 0.341 0.137 1.538z" fill="#ed1c24"/>
  </g>
  <g transform="matrix(8.4347 0 0 -8.4347 142.13 -161.04)">
   <path d="m0 0 0.051 0.015c0.2 0.015 0.561-0.061 0.438-0.566l-0.03-0.06-1.013-0.761-0.616-0.462c-0.066-0.06-0.786-0.666-1.183 0.073l-0.35 0.614s-0.509 1.048-0.813 1.814c-0.545 1.281-0.124 0.885 0.381 0.186l1.143-1.709 0.301-0.527 0.048-0.084 0.023-0.041 6e-3 -0.011 3e-3 -5e-3 1e-3 -1e-3c0.05-0.039-0.441 0.34-0.233 0.18h1e-3l1e-3 -1e-3h2e-3l0.019-5e-3 0.012-3e-3 0.026 0.014 0.154 0.116 0.615 0.462z" fill="#ed1c24"/>
  </g>
  <g transform="matrix(8.4347 0 0 -8.4347 162.21 -134.16)">
   <path d="m0 0 0.046 0.026c0.192 0.058 0.561 0.063 0.552-0.456l-0.015-0.065-0.822-0.966-0.68-0.798-0.295-0.346c-0.103-0.141-0.17-0.102-0.256-0.161-0.09-0.05-0.158-0.059-0.198-0.042-0.098 0.014-0.2 0.077-0.217 0.095-0.07 0.042-0.227 0.236-0.167 0.613l-0.043 0.704-0.045 0.911-0.035 0.706s0.02 1.165 0.096 1.986c0.094 1.389 0.29 0.846 0.423-6e-3l0.247-2.042 0.03-0.606 0.055-1.109 0.503 0.59z" fill="#ed1c24"/>
  </g>
  <g transform="matrix(8.4347 0 0 -8.4347 162.82 -130.03)">
   <path d="m0 0 8e-3 0.052c0.073 0.187 0.296 0.481 0.699 0.154l0.042-0.053 0.253-1.242 0.017-0.082h1e-3l0.073 0.043 0.876 0.509 0.809 0.471s0.116 0.062 0.328 0.175c0.095 0.05 0.213 0.112 0.349 0.184l0.202 0.105 0.048 0.021-0.014-0.07-0.029-0.144c-0.069-0.331-0.152-0.727-0.246-1.173-0.069-0.289-0.122-0.456-0.185-0.669-0.375-1.341-0.456-0.769-0.413 0.093-8e-3 -0.022-1e-3 0.095 0.014 0.284 7e-3 0.09 0.015 0.192 0.023 0.299l-0.015 0.066-0.022 0.019-0.043-0.05-0.011-0.03-0.411-0.239-0.875-0.51c-0.041-0.018-0.225-0.152-0.37-0.181-0.157-0.045-0.31-0.046-0.45 0.015-0.14 0.068-0.256 0.166-0.306 0.309-0.058 0.128-0.083 0.363-0.098 0.402z" fill="#ed1c24"/>
  </g>
  <g transform="matrix(8.4347 0 0 -8.4347 109.28 -97.372)">
   <path d="m0 0c0.391 0.088 0.708 0.029 1.069-0.074 0.14-0.044 0.361-0.221 0.243-0.427-0.095-0.185-0.28-0.155-0.457-0.214-0.28-0.089-0.575 0.118-0.803 0.037-0.59-0.207-0.752-0.878-0.575-1.445 0.184-0.605 0.855-0.922 1.445-0.723 0.221 0.074 0.523 0.405 0.722 0.258 0.236-0.192 0.376-0.442 0.126-0.619-0.531-0.391-1.195-0.376-1.844-0.177-0.28 0.088-0.582 0.199-0.818 0.391-0.406 0.339-0.494 0.855-0.428 1.356 0.111 0.752 0.502 1.445 1.32 1.637" fill="#231f20"/>
  </g>
  <g transform="matrix(8.4347 0 0 -8.4347 135.15 -82.819)">
   <path d="m0 0c0.177-0.096 0.634-0.133 0.7 0.096 0.133 0.464-0.132 0.929-0.331 1.364-0.163-0.199-0.199-0.435-0.229-0.664-0.044-0.302-0.332-0.693-0.14-0.796m0.14 2.787c0.066 0.103 0.42 0.199 0.494 0.037 0.391-0.833 0.531-1.733 0.767-2.662 0-0.096 0.162-0.096 0.228-0.199v-0.199c-0.228-0.494 0.236-0.899 0.17-1.364-0.029-0.199-0.42-0.288-0.568-0.096-0.25 0.339-0.066 0.885-0.427 1.099-0.273 0.155-0.701 0.103-0.966-0.103-0.339-0.258-0.103-1.394-0.863-1.033-0.103 0.465 0.162 0.9 0.266 1.364 0.132 0.598 0.294 1.232 0.494 1.829 0.162 0.472 0.14 0.966 0.405 1.327" fill="#231f20"/>
  </g>
  <g transform="matrix(8.4347 0 0 -8.4347 151.81 -72.869)">
   <path d="m0 0c0.118 0.995 0.029 1.961 0.243 2.964 0.03 0.147 0.391 0.118 0.48 0.029 0.457-0.604 0.486-1.422 0.943-2.027 0.118 0.302 0.059 0.605 0.059 0.907 0 0.575-0.302 1.15-0.214 1.725 0.03 0.214 0.472 0.243 0.546 0.059 0.295-0.759 0.273-1.6 0.273-2.418 0-0.362-0.03-0.789-0.303-1.062-0.125-0.148-0.42-0.17-0.545-0.029-0.295 0.339-0.487 0.788-0.693 1.179-0.184-0.479 7e-3 -0.966-0.125-1.452-0.052-0.185-0.421-0.236-0.605-0.03l-0.059 0.155" fill="#231f20"/>
  </g>
  <g transform="matrix(8.4347 0 0 -8.4347 181.23 -82.819)">
   <path d="m0 0c0.177-0.096 0.634-0.133 0.7 0.096 0.133 0.464-0.132 0.929-0.331 1.364-0.163-0.199-0.2-0.435-0.229-0.664-0.044-0.302-0.332-0.693-0.14-0.796m0.14 2.787c0.066 0.103 0.42 0.199 0.494 0.037 0.391-0.833 0.531-1.733 0.767-2.662 0-0.096 0.162-0.096 0.228-0.199v-0.199c-0.228-0.494 0.236-0.899 0.17-1.364-0.03-0.199-0.42-0.288-0.568-0.096-0.25 0.339-0.066 0.885-0.427 1.099-0.273 0.155-0.701 0.103-0.966-0.103-0.339-0.258-0.104-1.394-0.863-1.033-0.103 0.465 0.162 0.9 0.266 1.364 0.132 0.598 0.294 1.232 0.493 1.829 0.163 0.472 0.141 0.966 0.406 1.327" fill="#231f20"/>
  </g>
  <g transform="matrix(8.4347 0 0 -8.4347 212.07 -79.149)">
   <path d="m0 0c0.221 0.347 0.472 0.752 0.324 1.158-0.162 0.464-0.582 0.98-1.15 1.047 0-0.244 0.074-2.588 0.14-2.588 0.281-0.059 0.568 0.199 0.686 0.383m-1.593-0.531c0.059 0.096 0.244 0.148 0.251 0.273 0.022 0.841-0.066 1.696-0.162 2.573 0 0.089-0.125 0.185-0.184 0.28v0.155c0.059 0.251 0.339 0.28 0.501 0.251 0.28 0 0.619-0.066 0.899-0.251 0.377-0.25 0.664-0.523 0.944-0.907 0.723-0.995 0-2.248-0.944-2.713-0.309-0.162-0.656-0.251-0.995-0.125-0.184 0.066-0.376 0.28-0.31 0.464" fill="#231f20"/>
  </g>
  <g transform="matrix(8.4347 0 0 -8.4347 229.86 -82.819)">
   <path d="m0 0c0.177-0.096 0.634-0.133 0.7 0.096 0.133 0.464-0.132 0.929-0.331 1.364-0.163-0.199-0.2-0.435-0.229-0.664-0.044-0.302-0.332-0.693-0.14-0.796m0.14 2.787c0.066 0.103 0.42 0.199 0.494 0.037 0.391-0.833 0.531-1.733 0.767-2.662 0-0.096 0.162-0.096 0.228-0.199v-0.199c-0.228-0.494 0.236-0.899 0.17-1.364-0.03-0.199-0.42-0.288-0.568-0.096-0.25 0.339-0.066 0.885-0.427 1.099-0.273 0.155-0.701 0.103-0.966-0.103-0.339-0.258-0.104-1.394-0.863-1.033-0.103 0.465 0.162 0.9 0.266 1.364 0.132 0.598 0.294 1.232 0.493 1.829 0.163 0.472 0.141 0.966 0.406 1.327" fill="#231f20"/>
  </g>
  <g transform="matrix(8.4347 0 0 -8.4347 104.67 -65.313)">
   <path d="m0 0c0.059 0.288 0.664 0.391 0.715 0.052 0.199-1.21-0.457-2.426-0.162-3.679 0.457 0 1.04-0.015 1.46 0.191 0.125 0.089 0.287 0.17 0.457 0.089 0.125-0.126 0.332-0.376 0.251-0.465-0.679-0.789-1.844-0.206-2.758-0.627-0.464 0.295-0.251 0.878-0.251 1.342 0 1.047 0.096 2.043 0.288 3.097" fill="#ed1c24"/>
  </g>
  <g transform="matrix(8.4347 0 0 -8.4347 137.51 -43.111)">
   <path d="m0 0c0.177-0.096 0.634-0.133 0.7 0.096 0.133 0.464-0.132 0.929-0.331 1.364-0.163-0.199-0.199-0.435-0.229-0.664-0.044-0.302-0.332-0.693-0.14-0.796m0.14 2.787c0.066 0.103 0.42 0.199 0.494 0.037 0.391-0.833 0.531-1.733 0.767-2.662 0-0.096 0.162-0.096 0.228-0.199v-0.199c-0.228-0.494 0.236-0.899 0.17-1.364-0.029-0.199-0.42-0.287-0.568-0.096-0.25 0.339-0.066 0.885-0.427 1.099-0.273 0.155-0.701 0.103-0.966-0.103-0.339-0.258-0.103-1.394-0.863-1.033-0.103 0.465 0.162 0.9 0.266 1.364 0.132 0.598 0.294 1.232 0.494 1.829 0.162 0.472 0.14 0.966 0.405 1.327" fill="#ed1c24"/>
  </g>
  <g transform="matrix(8.4347 0 0 -8.4347 155.73 -59.592)">
   <path d="m0 0c0.081 0.265 0.42 0.457 0.73 0.31 0.074-0.081 0.147-0.192 0.111-0.347-0.384-0.877-0.413-2.241 0.42-2.743 0.619-0.376 0.995 0.494 1.069 1.069 0.155 0.649-0.037 1.291-0.037 1.94-0.037 0.272 0.339 0.346 0.649 0.42 0-0.111 0.147-0.074 0.147-0.148 0.155-1.106 0.199-2.219-0.457-3.17-0.45-0.649-1.526-1.217-2.131-0.568-0.818 0.863-0.833 2.131-0.501 3.237" fill="#ed1c24"/>
  </g>
  <g transform="matrix(8.4347 0 0 -8.4347 191.49 -59.343)">
   <path d="m0 0c0.538 0.383 1.194 0.347 1.696 0 0.169-0.111 0.074-0.28-0.067-0.354-0.353-0.177-0.707 0.096-1.061 0-0.317-0.081-0.465-0.457-0.568-0.737-0.251-0.679-0.398-1.674 0.354-2.02 0.17-0.082 0.391-0.037 0.457 0.103 0.111 0.214 0.288 0.501 0.074 0.641l-0.214 0.14c-0.177 0.281 0.177 0.435 0.391 0.494 0.383 0.118 0.951-0.103 0.744-0.567l-0.147-0.104c0-0.25-0.096-0.457-0.14-0.707-0.03-0.177-0.214-0.251-0.317-0.391-0.14-0.103-0.317-0.074-0.457-0.14-0.671-0.288-1.453 0.14-1.593 0.884-0.199 1.025-0.066 2.116 0.848 2.758" fill="#ed1c24"/>
  </g>
  <g transform="matrix(8.4347 0 0 -8.4347 208.59 -46.905)">
   <path d="m0 0c0.015 0.11 0.074 0.251 0.096 0.398 0.015 0.568-0.155 1.202 0.118 1.689 0.096 0.169 0.413 0.199 0.656 0.081 0.103-0.089 0.192-0.222 0.177-0.332-0.081-0.479-0.354-1.04-0.118-1.453 0.096-0.132 0.605-0.25 0.671-0.073 0.199 0.538 0.029 1.172 0.125 1.762 0.059 0.368 0.627 0.354 0.708 0.155 0.243-0.642-0.029-1.364 0.015-2.05 0.022-0.118 0.221-0.229 0.243-0.376 0.015-0.118-0.14-0.17-0.155-0.243-0.132-0.657 0.17-1.313 0.177-1.999-1.017-0.213-0.796 1.254-1.054 1.947-0.111 0.317-0.649 0.214-0.701 0.111-0.294-0.443 0.163-1.121-0.044-1.696-0.988-0.03-0.759 1.143-0.855 1.762-0.015 0.118-0.074 0.243-0.059 0.317" fill="#ed1c24"/>
  </g>
  <g transform="matrix(8.4347 0 0 -8.4347 232.28 -58.784)">
   <path d="m0 0c0.642 0.804 1.725 0.811 2.654 1.047 0.199 0.052 0.413-0.081 0.48-0.243 0.088-0.2-0.155-0.362-0.317-0.399-0.568-0.206-1.165-0.125-1.689-0.405l-0.125-0.199c0.604-0.929 2.256-1.254 1.932-2.455-0.281-1.047-1.814-1.224-2.736-0.804-0.413 0.184-0.162 0.722 0.199 0.885 0.207 0.037 0.207-0.244 0.361-0.288 0.163-0.037 0.325 0 0.487-0.081 0.325-0.155 0.605 0.044 0.885 0.162 0.162 0.126 0.162 0.325 0.081 0.487-0.568 0.722-1.408 1.003-1.976 1.733-0.17 0.221-0.398 0.361-0.236 0.56" fill="#ed1c24"/>
  </g>
 </g>
</svg>
