<svg width="800" height="435" version="1.1" viewBox="0 0 211.67 115.09" xmlns="http://www.w3.org/2000/svg">
 <g transform="translate(197.25 82.698)">
  <g transform="matrix(7.1531 0 0 -7.1531 6.0048 16.603)">
   <path d="m0 0 5e-3 0.018 0.065 0.121c-0.07 0.129-0.15 0.263-0.224 0.397l-0.071 0.015c0.023 0.095 0.089 0.385 0.089 0.385 0.037 0.201 0.083 0.418 0.139 0.623l0.017 0.064c-0.066 0.138-0.133 0.275-0.197 0.416l-0.048 0.041-0.052 0.041c0.123 0.061 0.242 0.141 0.307 0.26l0.018 0.048v0.046l0.012 0.203 0.031 0.166c0.033 0.102 0.042 0.228 8e-3 0.371l-9e-3 0.03-0.14 0.371 0.174 0.062-0.01 0.174v2e-3c-0.024 0.191 0.016 0.406 0.053 0.632l0.055 0.371-8e-3 0.022-0.029 0.131s-0.081 0.281-0.115 0.38l0.253 0.055s0.133 0.549 0.144 0.643c7e-3 0.066-0.017 0.2-0.064 0.328l0.082 0.035 0.065 0.037 0.028 0.065c0.064 0.152 0.095 0.334 0.099 0.541-4e-3 0.114-4e-3 0.215-0.011 0.326l-0.013 0.348c-0.088 0.177-0.175 0.351-0.268 0.531l-0.064 0.043-0.125 0.072 0.101 0.07 0.106 0.094 0.111 0.076 0.139 0.047 0.02 0.733c0.023 0.138 0.06 0.277 0.094 0.421 0.062 0.249 0.136 0.499 0.134 0.76l-2e-3 0.035v0.05c-0.064 0.122-0.128 0.234-0.198 0.347l-0.051 0.095c0.126 0.049 0.428 0.169 0.428 0.169l0.011 0.05c0.053 0.234 0.079 0.477 0.082 0.754 0.012 0.237 0 0.461-0.01 0.665v0.034l-0.015 0.034 7e-3 0.052 0.018 0.108-0.068 0.191c-0.084 0.243-0.207 0.528-0.262 0.586l-0.065 0.068-0.119 0.014c-0.214 0.018-0.428 0.021-0.65 4e-3 -0.303-0.013-0.571-0.056-0.839-0.093-0.247-0.033-0.482-0.072-0.73-0.089l-0.04-3e-3 -0.033-0.012c-0.37-0.084-0.742-0.187-1.1-0.277-0.518-0.136-1.051-0.27-1.579-0.361-0.171-0.024-0.343-0.068-0.507-0.113-0.196-0.048-0.389-0.093-0.563-0.103h-0.025l-0.026-6e-3c-0.363-0.062-0.734-0.121-1.094-0.162l-0.62-0.086-0.018-8e-3c-0.539-0.134-1.104-0.107-1.709-0.068-0.38 0.022-0.777 0.039-1.191 0.022-0.428 0.01-0.682-0.088-0.977-0.253l-0.139-0.07-0.234 0.218-0.106 0.017c-0.199 0.025-0.384 0.01-0.546-4e-3 -0.127-0.013-0.246-0.022-0.366-0.013h-0.035c-0.193 0-0.381-0.016-0.568-0.028-0.338-0.024-0.693-0.05-1.026-7e-3l-0.025 7e-3h-0.034c-0.998-7e-3 -2.056 0.055-3.071 0.115l-1.322 0.076-0.469 0.03c-0.299 0.017-0.616 0.043-0.945 0.032h-0.042c-0.074-0.015-0.224 0.02-0.351 0.05-0.25 0.055-0.534 0.123-0.792 0.02l-0.14-0.085-0.158 0.151-0.066 0.043-0.081 8e-3c-0.679 0.097-1.294 0.199-1.836 0.297-0.976 0.236-1.884 0.337-2.825 0.444-0.537 0.059-1.094 0.114-1.688 0.213l-0.098 0.014-0.043-0.014c-0.122-0.028-0.243-0.063-0.365-0.099l0.07-0.17c0.249-0.573 0.321-1.191 0.405-1.785l0.082-0.609s0.173-0.113 0.301-0.191l-0.125-0.015c-0.016-0.142-0.036-0.28-0.047-0.418l-0.039-0.351c-9e-3 -0.142-6e-3 -0.258 7e-3 -0.371l3e-3 -0.034 0.018-0.023c0.063-0.109 0.247-0.231 0.384-0.318l0.013-0.01c-0.118-0.041-0.266-0.115-0.339-0.244l-0.023-0.047 0.011-0.047c0.09-0.482 0.103-0.982 0.125-1.475 0.016-0.441 0.041-0.902 0.136-1.332l0.012-0.041 0.149-0.239h-8e-3c-0.133-0.083-0.198-0.171-0.198-0.282v-0.017l4e-3 -0.018c0.048-0.149 0.069-0.311 0.081-0.49 0.023-0.331-8e-3 -0.667-0.04-0.989l-3e-3 -0.031 0.074-0.209c0.193-0.15 0.386-0.299 0.574-0.443l0.045-0.026c0.209-0.13 0.452-0.164 0.664-0.195l0.058-6e-3 -0.183-0.085-0.041-0.029-0.018-0.041c-0.06-0.147-0.063-0.293-0.062-0.437-0.131-0.044-0.266-0.081-0.433-0.124-0.157-0.037-0.329-0.072-0.493-0.122l-0.133-0.031-0.021-0.107c-0.038-0.172-0.04-0.332-0.04-0.482 0-0.144-5e-3 -0.278-0.039-0.413l-9e-3 -0.023 6e-3 -0.024c0.013-0.163-8e-3 -0.342-0.034-0.521-0.023-0.167-0.051-0.336-0.044-0.506v-0.035l0.012-0.028-4e-3 -0.035-4e-3 -0.066c4e-3 -0.096 0.066-0.176 0.191-0.238 0.098-0.061 0.455-0.313 0.541-0.352l0.078-0.037 0.101 0.016c0.514 0.095 1.055 0.171 1.585 0.236l0.826 0.095c1.81 0.232 3.857 0.317 6.355 0.366l0.151 0.014 0.063-0.018 0.159 0.062h8e-3c0.104 0.055 0.184 0.115 0.246 0.175l0.115-0.109 0.039-0.035 0.16-6e-3c1.175-0.04 2.283-0.048 3.355-0.069 1.675-0.01 3.247-0.041 5.009-0.163 0.113-8e-3 0.293 0.046 0.363 0.063l4e-3 2e-3 0.018 7e-3c0.144 0.057 0.288 0.133 0.441 0.221l0.022-8e-3c0.041-0.122 0.267-0.361 0.421-0.398l0.049-0.021h0.055c0.127 5e-3 0.275 0 0.428-8e-3 0.157-0.012 0.312-0.022 0.478-0.022 0.463-0.05 0.967-0.074 1.508-0.107 0.378-0.024 0.774-0.05 1.154-0.085l0.019-4e-3h0.013c0.437-2e-3 0.89-0.054 1.325-0.099 0.659-0.07 1.334-0.131 2.01-0.029l0.182 0.029 0.054 0.119 0.02 0.08 9e-3 0.116z" fill="#a55528"/>
  </g>
  <g transform="matrix(7.1531 0 0 -7.1531 10.14 -68.997)">
   <path d="m0 0c0.104 0.484 0.095 0.953 0.072 1.391-0.06 0.109 0.071 0.226-0.028 0.328-0.213 0.024-0.426 0.024-0.619 0-0.555-0.021-1.02-0.151-1.574-0.188-0.895-0.217-1.776-0.49-2.695-0.647-0.376-0.056-0.742-0.198-1.11-0.223-0.568-0.099-1.147-0.169-1.709-0.249-0.968-0.248-1.961-7e-3 -2.99-0.058-0.34 7e-3 -0.535-0.062-0.814-0.219-0.18-0.053-0.241-0.219-0.445-0.203l7e-3 0.084-0.256 0.252c-0.305 0.037-0.571-0.046-0.893-0.018-0.531-0.012-1.099-0.111-1.654-0.032-1.445-0.011-2.953 0.122-4.414 0.192-0.455 0.018-0.904 0.072-1.375 0.063-0.428-0.061-1.094 0.374-1.216-0.119l-0.177-0.027c-0.116 0.101-0.183 0.232-0.323 0.331-0.618 0.094-1.259 0.196-1.857 0.306-1.511 0.362-2.904 0.391-4.509 0.657l-0.055-0.019c0.311-0.764 0.344-1.57 0.462-2.351 0.201-0.103 0.532 0.028 0.683-0.103l0.316-0.056 0.137-0.043-0.19-0.069c-0.316-0.052-0.501-0.179-0.785-0.206-0.039-0.335-0.097-0.634-0.065-0.96 0.105-0.177 0.458-0.203 0.657-0.33 0.081-0.157-0.195-0.097-0.289-0.187l-0.307-0.19c0.176-0.929 0.075-1.918 0.268-2.81 0.463-0.349 3.854-0.252 4.497-0.375l-2.536 0.02s-0.509-0.04-1.528 0.048l-0.052-0.023c-0.164 0.023-0.225-0.104-0.325-0.134l-0.097-0.128c0.138-0.492 0.092-1.039 0.041-1.535l0.044-0.121c0.284-0.177 0.698-0.137 1.014-0.262 0.391-0.049 0.256-0.373 0.372-0.548 0.041-0.137-0.188-0.102-0.282-0.178-0.062-0.156-0.051-0.332-0.041-0.497-0.334-0.132-0.718-0.193-1.081-0.3-0.071-0.311 0-0.592-0.075-0.901 0.041-0.34-0.076-0.709-0.055-1.043 0.055-0.091-0.046-0.181 0.092-0.244 0.801 0.079 1.593 0.238 2.42 0.345 2.029 0.274 4.215 0.335 6.442 0.376 0.084-9e-3 0.113 0.07 0.216 0.028 0.168 0.083 0.264 0.212 0.391 0.316 0.057 0.046 0.099 0.142 0.225 0.105l0.14-0.363c2.977-0.111 5.504-0.026 8.485-0.235 0.085-6e-3 0.115 0.07 0.207 0.036 0.41 0.171 0.679 0.397 0.991 0.599l0.104-0.027c-0.053-0.184-0.211-0.307-0.234-0.468l0.28-0.274c0.29 9e-3 0.632-0.047 0.944-0.037 0.803-0.082 1.786-0.116 2.723-0.194 1.14-0.011 2.253-0.338 3.364-0.174 0.044 0.116-3e-3 0.219 0.054 0.313-0.555 0.088-1.338 0.076-1.976 0.203-0.108 0.029-0.26-0.031-0.272 0.082l0.08 0.029c0.658 0.02 1.311-0.07 1.918 0.141 0.082 0.348 0.147 0.724 0.252 1.09-0.213 0.172-0.503 0.279-0.717 0.465 0.16 0.164 0.643 0.199 0.769 0.422-0.031 0.261 0.138 0.476 0.072 0.738-0.294 0.142-0.708 0.191-0.981 0.373l0.121 0.07c0.273 6e-3 0.515 0.084 0.76 0.162l0.128 0.024c-0.035 0.315 0.088 0.723 0.131 1.072l-0.02 0.105c-0.189 0.124-0.469 0.202-0.843 0.227-0.335 0.099-0.575 0.152-0.703 0.186l-2.27 0.061 2.311 0.025c0.163 0.016 0.467 0.042 0.925 0.093 0.28-0.017 0.491 0.1 0.691 0.082-0.028 0.272 0.334 0.571-0.036 0.719-0.043 0.064-0.192 0.053-0.164 0.168 0.138 0.092 0.293 0.082 0.432 0.158 0.121 0.347 0.017 0.74 0 1.108-0.28 0.179-0.6 0.341-0.993 0.414l-0.042 0.089c0.248 0.145 0.474 0.294 0.701 0.44 0.097 0.074 0.179 0.174 0.3 0.213 0 0.209 2e-3 0.418 0.01 0.625 0.053 0.398 0.237 0.818 0.23 1.223-0.197 0.17-0.491 0.218-0.745 0.306l-6e-3 0.035c0.23 0.217 0.595 0.332 0.944 0.43" fill="#f7f571"/>
  </g>
  <g transform="matrix(7.1531 0 0 -7.1531 8.5126 -26.833)">
   <path d="m0 0c6e-3 0.039-0.072 0.143-0.1 0.242l-0.08 0.154-0.047-0.152-0.076-0.213v-0.047l0.02-0.113c0.058-0.129 0.111-0.257 0.17-0.383l0.113 0.512" fill="#a55528"/>
  </g>
  <g transform="matrix(7.1531 0 0 -7.1531 5.2572 -32.686)">
   <path d="m0 0 0.074-0.052 0.163-0.122 0.118-0.178h6e-3l0.134 0.055c-0.069 0.129-0.138 0.258-0.212 0.385l-0.168-0.053-0.115-0.035" fill="#a55528"/>
  </g>
  <g transform="matrix(7.1531 0 0 -7.1531 5.3967 -18.604)">
   <path d="m0 0c-0.037-0.229-0.102-0.436-0.079-0.64l-0.032-0.13 0.091-0.216c-1e-3 0.171 0.032 0.361 0.07 0.539l0.054 0.339-0.028 0.138-0.049 0.155-0.027-0.185" fill="#a55528"/>
  </g>
  <g transform="matrix(7.1531 0 0 -7.1531 1.5692 -10.487)">
   <path d="m0 0c0.095-0.035 0.197-0.061 0.289-0.101l0.172 0.054c-0.055 0.119-0.101 0.239-0.153 0.353l-0.076-0.027c-0.203-0.064-0.41-0.113-0.64-0.138 0.122-0.056 0.258-0.1 0.408-0.141" fill="#a55528"/>
  </g>
  <g transform="matrix(7.1531 0 0 -7.1531 10.846 -59.706)">
   <path d="m0 0-0.179 0.307c-0.02-0.196-0.072-0.382-0.118-0.565-0.043-0.159-0.078-0.304-0.098-0.443 0-4e-3 -9e-3 -0.486-0.015-0.644 0.064-0.12 0.124-0.245 0.183-0.369 2e-3 0.192 0.011 0.497 0.011 0.497l3e-3 8e-3c0.019 0.143 0.058 0.293 0.087 0.434 0.065 0.242 0.126 0.484 0.126 0.728v0.031z" fill="#a55528"/>
  </g>
  <g transform="matrix(7.1531 0 0 -7.1531 5.1664 -3.6339)">
   <path d="m0 0c0.019 0.103 0.036 0.204 2e-3 0.323l-5e-3 0.028-0.057 0.128-9e-3 -0.063-0.026-0.082-0.015-0.081-0.018-0.236-0.01-0.045-0.019-0.024 0.097-0.202 0.018 0.099 0.042 0.155" fill="#a55528"/>
  </g>
  <g transform="matrix(7.1531 0 0 -7.1531 7.9398 -33.692)">
   <path d="m0 0c0.061-0.105 0.117-0.217 0.173-0.326 0.034 0.117 0.052 0.24 0.052 0.388l-0.013 0.321-0.026 0.322c-4e-3 6e-3 -0.083 0.16-0.151 0.287l0.016-0.123c0.013-0.109 0.017-0.219 0.029-0.328 4e-3 -0.171-0.014-0.351-0.072-0.521l-8e-3 -0.02" fill="#a55528"/>
  </g>
  <g transform="matrix(7.1531 0 0 -7.1531 4.3633 16.714)">
   <path d="m0 0 0.018 0.063 0.043 0.062-0.146 0.254-0.013-0.037-4e-3 -0.076-6e-3 -0.11-0.021-0.07-0.017-0.037 0.138-0.194v0.06z" fill="#a55528"/>
  </g>
  <g transform="matrix(7.1531 0 0 -7.1531 -.80561 -.5953)">
   <path d="m0 0c0.092-0.066 0.182-0.123 0.285-0.184l0.106-0.055 0.041 0.014c0.117 0.043 0.234 0.095 0.302 0.178-0.052 0.103-0.101 0.218-0.148 0.32-0.113-0.087-0.254-0.146-0.385-0.191l-0.201-0.082" fill="#a55528"/>
  </g>
  <g transform="matrix(7.1531 0 0 -7.1531 4.447 5.5097)">
   <path d="m0 0 6e-3 0.027c-6e-3 0.016-0.072 0.149-0.119 0.255-0.044-0.183-0.084-0.362-0.125-0.546-0.03-0.154-0.065-0.302-0.1-0.454l0.119-0.241c0.034 0.147 0.077 0.332 0.077 0.332 0.039 0.204 0.082 0.418 0.142 0.627" fill="#a55528"/>
  </g>
  <g transform="matrix(7.1531 0 0 -7.1531 11.021 -68.731)">
   <path d="m0 0c0.069-0.112 0.138-0.224 0.202-0.335 0.022 0.165 0.035 0.343 0.041 0.534 6e-3 0.235-6e-3 0.464-0.017 0.666v6e-3l-0.012 0.07 0.01 0.077 0.013 0.08-0.043 0.122-0.011 8e-3 -2e-3 0.016c-0.039 0.091-0.077 0.19-0.112 0.273l-4e-3 -0.029 0.01-0.037 6e-3 -0.014v-0.011c0.013-0.206 0.017-0.424 0.015-0.658-7e-3 -0.247-0.032-0.493-0.09-0.754l-6e-3 -0.014" fill="#a55528"/>
  </g>
  <g transform="matrix(7.1531 0 0 -7.1531 -3.8586 12.593)">
   <path d="m0 0c0.29-0.024 0.589-0.037 0.849-0.065l-0.137 0.268c-0.432-0.146-0.876-0.137-1.321-0.142 0.202-0.03 0.406-0.047 0.609-0.061" fill="#a55528"/>
  </g>
  <g transform="matrix(7.1531 0 0 -7.1531 -56.564 12.719)">
   <path d="m0 0-0.139-0.018c-1.789 0.125-3.384 0.149-5.084 0.163-1.054 0.015-2.151 0.025-3.3 0.069l0.117-0.105 0.185-0.187 0.051-5e-3c1.168-0.037 2.275-0.05 3.344-0.067 1.678-0.014 3.262-0.032 5.035-0.16l0.075 0.017z" fill="#a55528"/>
  </g>
  <g transform="matrix(7.1531 0 0 -7.1531 -118.89 11.14)">
   <path d="m0 0-8e-3 0.028-0.108 0.286-0.029-0.026-0.111-0.103c-0.084-0.076-0.175-0.161-0.305-0.227l-0.031-9e-3c0.128-0.104 0.391-0.31 0.391-0.31l0.013 7e-3c0.12 0.063 0.2 0.133 0.284 0.211l0.031 0.03z" fill="#a55528"/>
  </g>
  <g transform="matrix(7.1531 0 0 -7.1531 -124.22 11.685)">
   <path d="m0 0-0.119-0.014c-2.548-0.043-4.611-0.131-6.42-0.379-0.281-0.031-0.547-0.066-0.815-0.103-0.512-0.064-1.029-0.164-1.532-0.242 0.157-0.098 0.341-0.244 0.391-0.266l0.011-5e-3 0.01 4e-3c0.52 0.099 1.058 0.177 1.595 0.239l0.818 0.095c1.816 0.235 3.874 0.312 6.387 0.362h8e-3l0.053 3e-3s-0.258 0.201-0.387 0.306" fill="#a55528"/>
  </g>
  <g transform="matrix(7.1531 0 0 -7.1531 2.4212 16.603)">
   <path d="m0 0c-0.662-0.099-1.33-0.018-1.982 0.054-0.451 0.051-0.92 0.102-1.371 0.103h-0.021c-0.391 0.039-0.794 0.072-1.183 0.093-0.549 0.031-1.062 0.058-1.531 0.104-0.158-5e-3 -0.318 9e-3 -0.479 0.019-0.156 0.015-0.3 0.016-0.439 0.016l0.014-7e-3 2e-3 -3e-3 0.019-0.03 0.052-0.041 0.094-0.128 0.109-0.075 0.011-1e-3h5e-3c0.143 1e-3 0.296-8e-3 0.458-0.024 0.152-0.012 0.312-0.016 0.465-0.016h0.013c0.465-0.044 0.965-0.076 1.508-0.107 0.385-0.023 0.78-0.056 1.168-0.088h2e-3c0.461-7e-3 0.922-0.056 1.363-0.099 0.63-0.071 1.278-0.139 1.912-0.041-0.063 0.091-0.127 0.176-0.189 0.271" fill="#a55528"/>
  </g>
  <g transform="matrix(7.1531 0 0 -7.1531 -50.738 11.434)">
   <path d="m0 0 0.011 0.034c0.01 0.106 0.067 0.188 0.12 0.275l8e-3 7e-3c-0.235-0.164-0.818-0.471-0.818-0.471l0.29-0.295 0.014 4e-3c0.166 0.072 0.523 0.284 0.523 0.284z" fill="#a55528"/>
  </g>
  <g transform="matrix(7.1531 0 0 -7.1531 -187.75 -61.564)">
   <path d="m0 0c0.085 0.027 0.178 0.059 0.285 0.082l-0.082 8e-3 -0.092-0.017-0.051 0.05c-0.029 0.035-0.098 0.035-0.242 0.031l-0.17-2e-3c0.094-0.064 0.202-0.132 0.274-0.175l0.078 0.023" fill="#a55528"/>
  </g>
  <g transform="matrix(7.1531 0 0 -7.1531 -187.83 -51.002)">
   <path d="m0 0 0.048-0.046 0.048 5e-3z" fill="#a55528"/>
  </g>
  <g transform="matrix(7.1531 0 0 -7.1531 5.5721 -43.996)">
   <path d="m0 0 0.216 0.143 0.095 0.08 0.147 0.109c-0.074 0.147-0.147 0.294-0.219 0.44l-0.143-0.095-0.101-0.085s-0.478-0.308-0.606-0.39c0.219-0.054 0.419-0.126 0.591-0.217l0.02 0.015" fill="#a55528"/>
  </g>
  <g transform="matrix(7.1531 0 0 -7.1531 4.4892 -22.837)">
   <path d="m0 0 0.32 0.047c-0.052 0.126-0.101 0.254-0.161 0.381l-0.02 2e-3 -0.246-0.038c-0.108-0.021-0.258-0.042-0.432-0.042-0.249-0.029-0.502-0.051-0.758-0.067 0.203-0.028 0.395-0.064 0.576-0.111 0.301-0.027 0.551-0.08 0.721-0.172" fill="#a55528"/>
  </g>
  <g transform="matrix(7.1531 0 0 -7.1531 9.3924 -63.981)">
   <path d="m0 0c0.129 0.051 0.323 0.138 0.389 0.162-0.086 0.143-0.177 0.291-0.262 0.436h-5e-3c-0.279-0.075-0.56-0.168-0.764-0.314l0.108-0.033c0.193-0.052 0.384-0.12 0.534-0.251" fill="#a55528"/>
  </g>
  <g transform="matrix(7.1531 0 0 -7.1531 -184.48 -9.1175)">
   <path d="m0 0 0.024-0.019c0.168-0.102 0.361-0.129 0.566-0.154l0.117-0.02c-0.029 0.171-0.057 0.242-0.211 0.257l-0.021 4e-3 -0.016 0.014c-0.12 0.044-0.267 0.065-0.414 0.085-0.116 0.018-0.232 0.039-0.346 0.065 0.143-0.106 0.297-0.228 0.301-0.232" fill="#a55528"/>
  </g>
  <g transform="matrix(7.1531 0 0 -7.1531 -187.35 -26.162)">
   <path d="m0 0 0.105 0.044-0.176 0.074z" fill="#a55528"/>
  </g>
  <g transform="matrix(7.1531 0 0 -7.1531 -153.12 -49.801)">
   <path d="m0 0-9e-3 0.141-0.043-0.141-0.074 0.055-2e-3 0.078 2e-3 -0.078 0.032-0.061 0.042 6e-3zm-0.491-0.179 0.056-0.12zm-0.027 0.499 0.058-0.142zm-0.012-0.623c-0.166-0.142 0.054-0.029-0.031-0.056zm-0.139-0.715 0.073-0.07c0.035-0.066 0.035-0.137 0.022-0.015l-0.022 0.015-0.073 0.07m-0.033 0.125 6e-3 5e-3 0.109 0.077-0.109-0.077zm-0.269-0.21 0.07 0.025-0.047 0.05-0.023-0.075-0.02-0.02c8e-3 -0.152 0-0.062 0.02 0.02m-0.022 1.143-0.061 0.159zm-0.081-1.167c9e-3 -0.182 0.03 0.039-0.044 0.035zm-2e-3 1.781-0.085 0.041zm-0.11-2.579 0.025 4e-3 -0.03 0.052zm-0.071 1.41-0.061 0.173zm2.818 2.542c0.38-2e-3 0.694 0.106 1.153 0.106-0.262-0.744-0.662-1.438-0.931-2.174 0.142-0.394 0.466-0.758 0.607-1.156 0.218-0.268 0.252-0.6 0.488-0.807 0 0-0.38 0.018-1.189-0.071-0.285 0.288-0.329 0.56-0.329 0.56-0.127 0.292-0.312 0.609-0.502 0.902l-1.154-0.055c-0.119-0.48 0.053-0.954 0.034-1.548l-1.03-0.048-0.203 4.199 1.029 0.047 0.078-1.535c0.375 0.022 1.112-0.158 1.31 0.147 0.167 0.435 0.419 0.951 0.639 1.433" fill="#fff"/>
  </g>
  <g transform="matrix(7.1531 0 0 -7.1531 -153.12 -49.801)">
   <path d="m0 0-9e-3 0.141-0.043-0.141-0.074 0.055-2e-3 0.078 2e-3 -0.078 0.032-0.061 0.042 6e-3zm-0.491-0.179 0.056-0.12zm-0.027 0.499 0.058-0.142zm-0.012-0.623c-0.166-0.142 0.054-0.029-0.031-0.056zm-0.139-0.715 0.073-0.07c0.035-0.066 0.035-0.137 0.022-0.015l-0.022 0.015zm-0.033 0.125 6e-3 5e-3 0.109 0.077-0.109-0.077zm-0.269-0.21 0.07 0.025-0.047 0.05-0.023-0.075-0.02-0.02c8e-3 -0.152 0-0.062 0.02 0.02zm-0.022 1.143-0.061 0.159zm-0.081-1.167c9e-3 -0.182 0.03 0.039-0.044 0.035zm-2e-3 1.781-0.085 0.041zm-0.11-2.579 0.025 4e-3 -0.03 0.052zm-0.071 1.41-0.061 0.173zm2.818 2.542c0.38-2e-3 0.694 0.106 1.153 0.106-0.262-0.744-0.662-1.438-0.931-2.174 0.142-0.394 0.466-0.758 0.607-1.156 0.218-0.268 0.252-0.6 0.488-0.807 0 0-0.38 0.018-1.189-0.071-0.285 0.288-0.329 0.56-0.329 0.56-0.127 0.292-0.312 0.609-0.502 0.902l-1.154-0.055c-0.119-0.48 0.053-0.954 0.034-1.548l-1.03-0.048-0.203 4.199 1.029 0.047 0.078-1.535c0.375 0.022 1.112-0.158 1.31 0.147 0.167 0.435 0.419 0.951 0.639 1.433z" fill="none" stroke="#fff" stroke-width=".153"/>
  </g>
  <g transform="matrix(7.1531 0 0 -7.1531 -125.71 -45.441)">
   <path d="m0 0-0.03 0.053 0.03-0.053m-0.119 0.655-0.033-0.024 0.035-0.026 0.039-0.037-0.039 0.037-2e-3 0.05 0.06-0.018-0.028 0.121-0.032-0.103m-7e-3 1.369-0.06-0.031 0.044-0.085 0.016 0.116m-0.113-1.282-0.033-0.093 0.051 0.045 0.01-8e-3 0.059 0.066-0.069-0.058-0.018 0.048m-9e-3 0.215-0.028-0.116 0.034-0.039zm9e-3 -1.949-0.146 3.059 0.735 0.037 0.148-3.059z" fill="#fff"/>
  </g>
  <g transform="matrix(7.1531 0 0 -7.1531 -125.71 -45.441)">
   <path d="m0 0-0.03 0.053zm-0.119 0.655-0.033-0.024 0.035-0.026 0.039-0.037-0.039 0.037-2e-3 0.05 0.06-0.018-0.028 0.121zm-7e-3 1.369-0.06-0.031 0.044-0.085zm-0.113-1.282-0.033-0.093 0.051 0.045 0.01-8e-3 0.059 0.066-0.069-0.058zm-9e-3 0.215-0.028-0.116 0.034-0.039zm9e-3 -1.949-0.146 3.059 0.735 0.037 0.148-3.059z" fill="none" stroke="#fff" stroke-width=".153"/>
  </g>
  <g transform="matrix(7.1531 0 0 -7.1531 -101.25 -62.025)">
   <path d="m0 0v-6e-3c-5e-3 -0.041 0.019-0.102 0 0l9e-3 0.015 0.028 0.029-0.028-0.029zm-0.96-2.938-0.038 0.081-7e-3 -0.029-0.078 0.099-0.015-0.082-0.01-0.031 0.01 0.031 0.093-0.017zm1.326 0.985c0.07 0.244-0.021 0.451-0.105 0.7-0.385 0.597-1.112 0.272-1.623 0.313l0.079-1.626c0.471 0.144 1.2-0.266 1.579 0.449l-0.035 0.042zm-2.203 1.362 0.053-0.14zm-0.163-0.499 0.122-0.018zm-0.325 0.561 0.041 0.161zm3.588-0.357 0.035 0.029c0.138-0.383 0.134-0.911 0.108-1.324 0.024-0.1-0.175-0.221-0.139-0.38-0.227-0.518-0.602-0.693-0.942-0.921l-0.045 0.027-0.025-0.099-2.547-0.124-0.18 3.789c0.903-0.023 2.129 0.261 2.693-0.065l0.04 0.037 0.037-0.069 0.115 7e-3c0.053-0.097 0.113-0.043 0.168-0.179l0.037 0.039 0.076-0.082c0.24-0.16 0.543-0.393 0.569-0.685" fill="#fff"/>
  </g>
  <g transform="matrix(7.1531 0 0 -7.1531 -101.25 -62.025)">
   <path d="m0 0v-6e-3c-5e-3 -0.041 0.019-0.102 0 0l9e-3 0.015 0.028 0.029-0.028-0.029zm-0.96-2.938-0.038 0.081-7e-3 -0.029-0.078 0.099-0.015-0.082-0.01-0.031 0.01 0.031 0.093-0.017zm1.326 0.985c0.07 0.244-0.021 0.451-0.105 0.7-0.385 0.597-1.112 0.272-1.623 0.313l0.079-1.626c0.471 0.144 1.2-0.266 1.579 0.449l-0.035 0.042zm-2.203 1.362 0.053-0.14zm-0.163-0.499 0.122-0.018zm-0.325 0.561 0.041 0.161zm3.588-0.357 0.035 0.029c0.138-0.383 0.134-0.911 0.108-1.324 0.024-0.1-0.175-0.221-0.139-0.38-0.227-0.518-0.602-0.693-0.942-0.921l-0.045 0.027-0.025-0.099-2.547-0.124-0.18 3.789c0.903-0.023 2.129 0.261 2.693-0.065l0.04 0.037 0.037-0.069 0.115 7e-3c0.053-0.097 0.113-0.043 0.168-0.179l0.037 0.039 0.076-0.082c0.24-0.16 0.543-0.393 0.569-0.685z" fill="none" stroke="#fff" stroke-width=".153"/>
  </g>
  <g transform="matrix(7.1531 0 0 -7.1531 -76.283 -41.607)">
   <path d="m0 0 0.023 0.097zm-0.14 0.087-0.017 0.056-0.02 0.053-0.021-0.048-0.045 0.066h-0.024l5e-3 -0.067h0.027l0.037 1e-3 0.027 4e-3 0.014-9e-3zm-0.275 1.269 0.059-0.018-0.039 0.091zm0.047 1.01v-4e-3l0.023-0.096-0.088-0.039 0.094-0.013-6e-3 0.052-0.023 0.096v0.03zm0.043-2.312-0.078 0.115 2e-3 0.041-2e-3 -0.041-0.016-0.022-9e-3 8e-3 -0.039-0.021 0.039 0.021 9e-3 -8e-3 0.094-0.093m-0.184 2.502v-0.076l0.04 0.115zm0.065-1.356-3e-3 0.062-0.071-0.069zm-0.37-1.103 0.028 0.072-0.028-0.051-0.027 0.071c-0.087-0.239 0.016 0.021 0.027-0.092m-0.187 1.113-6e-3 0.098-0.021-2e-3zm-0.041-1.053 0.041 4e-3 -0.044 0.113 3e-3 -0.117h-0.031l0.037-0.049zm6e-3 0.801 0.018-0.041 5e-3 2e-3 -5e-3 -2e-3 -0.018 0.041-6e-3 0.053h-0.031l-0.041-3e-3 0.041 3e-3 0.037-0.053m-0.049 0.188c8e-3 -0.153 0.021 0.021-0.035 0.019zm-0.012-1.264 0.033 0.109-0.056-0.068 0.023-0.041m-0.232 1.64c0.076 8e-3 0.03 0.04 0.131 0.069l-0.025 0.011-0.014 0.041 0.014-0.041-0.106-0.08m-0.018-0.134c0.096 0.041 0.062-0.074 0.129-0.124-0.067 0.05-0.033 0.165-0.129 0.124m-0.089 0.31 0.076-0.061 0.017 0.042zm3.24-1.131c-0.177 0.01 0.064-0.209-0.046-0.328-0.15-0.246-0.364-0.523-0.642-0.674-0.595-0.13-1.269-0.122-1.927-0.113l-0.112 0.092-0.02-0.035c8e-3 0.127-0.137 0.011-0.165 0.09-0.237 0.193-0.448 0.486-0.389 0.853l0.187 8e-3 0.031-0.063c0.139 0.126 0.407 0.059 0.613 0.091-0.062-0.154 0.109-0.126 0.167-0.184 0.453 0.021 0.897 0.043 1.314 0.117l0.049 0.197-0.099 0.098c-0.712 0.104-1.617-0.271-2.129 0.32-0.209 0.381-0.278 0.9-0.029 1.285 0.153 0.118 0.316 0.338 0.556 0.295l0.065 0.08c0.733-0.035 1.896 0.308 2.239-0.375 0.116-0.035 0.229-0.267 0.236-0.474l-0.989-0.047 0.03 0.076c-0.466 0.039-1.268 0.084-1.502-0.148 5e-3 -0.235 0.184-0.102 0.335-0.203 0.615 0.075 0.914 0.089 1.439 0.068l0.1-0.088 0.032 0.041c0.132-0.078 0.248-0.223 0.368-0.311 0.104-0.19 0.276-0.437 0.288-0.668" fill="#fff"/>
  </g>
  <g transform="matrix(7.1531 0 0 -7.1531 -76.283 -41.607)">
   <path d="m0 0 0.023 0.097zm-0.14 0.087-0.017 0.056-0.02 0.053-0.021-0.048-0.045 0.066h-0.024l5e-3 -0.067h0.027l0.037 1e-3 0.027 4e-3 0.014-9e-3zm-0.275 1.269 0.059-0.018-0.039 0.091zm0.047 1.01v-4e-3l0.023-0.096-0.088-0.039 0.094-0.013-6e-3 0.052-0.023 0.096v0.03zm0.043-2.312-0.078 0.115 2e-3 0.041-2e-3 -0.041-0.016-0.022-9e-3 8e-3 -0.039-0.021 0.039 0.021 9e-3 -8e-3zm-0.184 2.502v-0.076l0.04 0.115zm0.065-1.356-3e-3 0.062-0.071-0.069zm-0.37-1.103 0.028 0.072-0.028-0.051-0.027 0.071c-0.087-0.239 0.016 0.021 0.027-0.092zm-0.187 1.113-6e-3 0.098-0.021-2e-3zm-0.041-1.053 0.041 4e-3 -0.044 0.113 3e-3 -0.117h-0.031l0.037-0.049zm6e-3 0.801 0.018-0.041 5e-3 2e-3 -5e-3 -2e-3 -0.018 0.041-6e-3 0.053h-0.031l-0.041-3e-3 0.041 3e-3zm-0.049 0.188c8e-3 -0.153 0.021 0.021-0.035 0.019zm-0.012-1.264 0.033 0.109-0.056-0.068zm-0.232 1.64c0.076 8e-3 0.03 0.04 0.131 0.069l-0.025 0.011-0.014 0.041 0.014-0.041zm-0.018-0.134c0.096 0.041 0.062-0.074 0.129-0.124-0.067 0.05-0.033 0.165-0.129 0.124zm-0.089 0.31 0.076-0.061 0.017 0.042zm3.24-1.131c-0.177 0.01 0.064-0.209-0.046-0.328-0.15-0.246-0.364-0.523-0.642-0.674-0.595-0.13-1.269-0.122-1.927-0.113l-0.112 0.092-0.02-0.035c8e-3 0.127-0.137 0.011-0.165 0.09-0.237 0.193-0.448 0.486-0.389 0.853l0.187 8e-3 0.031-0.063c0.139 0.126 0.407 0.059 0.613 0.091-0.062-0.154 0.109-0.126 0.167-0.184 0.453 0.021 0.897 0.043 1.314 0.117l0.049 0.197-0.099 0.098c-0.712 0.104-1.617-0.271-2.129 0.32-0.209 0.381-0.278 0.9-0.029 1.285 0.153 0.118 0.316 0.338 0.556 0.295l0.065 0.08c0.733-0.035 1.896 0.308 2.239-0.375 0.116-0.035 0.229-0.267 0.236-0.474l-0.989-0.047 0.03 0.076c-0.466 0.039-1.268 0.084-1.502-0.148 5e-3 -0.235 0.184-0.102 0.335-0.203 0.615 0.075 0.914 0.089 1.439 0.068l0.1-0.088 0.032 0.041c0.132-0.078 0.248-0.223 0.368-0.311 0.104-0.19 0.276-0.437 0.288-0.668z" fill="none" stroke="#fff" stroke-width=".153"/>
  </g>
  <g transform="matrix(7.1531 0 0 -7.1531 -128.14 -18.129)">
   <path d="m0 0c0.143 0.041 0.205 0.245 0.108 0.365-0.395 0.151-1.241 0-1.875-0.021l0.018-0.426zm-2.203-0.926 0.07 0.095zm-0.336 1.383 0.094 9e-3 -0.041 0.124h-0.064zm-4e-3 -3.117c0.032-0.045 0.098-0.035 0 0l-0.014 0.031v0.031-0.053l0.014-9e-3m3.151 4.215c0.016-0.106 0.23 7e-3 0.221-0.215l0.05 0.068c0.303-0.449 0.611-0.763 0.443-1.469-0.369-1.509-1.875-1.011-3.05-1.182l0.034-1.628-1.059-0.051-0.207 4.484c0.515-0.015 1.179 0.124 1.567-0.02l0.049 0.054c0.571-0.019 1.542 0.191 1.952-0.041" fill="#fff"/>
  </g>
  <g transform="matrix(7.1531 0 0 -7.1531 -128.14 -18.129)">
   <path d="m0 0c0.143 0.041 0.205 0.245 0.108 0.365-0.395 0.151-1.241 0-1.875-0.021l0.018-0.426zm-2.203-0.926 0.07 0.095zm-0.336 1.383 0.094 9e-3 -0.041 0.124h-0.064zm-4e-3 -3.117c0.032-0.045 0.098-0.035 0 0l-0.014 0.031v0.031-0.053zm3.151 4.215c0.016-0.106 0.23 7e-3 0.221-0.215l0.05 0.068c0.303-0.449 0.611-0.763 0.443-1.469-0.369-1.509-1.875-1.011-3.05-1.182l0.034-1.628-1.059-0.051-0.207 4.484c0.515-0.015 1.179 0.124 1.567-0.02l0.049 0.054c0.571-0.019 1.542 0.191 1.952-0.041z" fill="none" stroke="#fff" stroke-width=".159"/>
  </g>
  <g transform="matrix(7.1531 0 0 -7.1531 -90.869 -6.7563)">
   <path d="m0 0-0.025 0.094zm-0.11-6e-3 0.018-0.054 0.021-0.022 0.026-0.02h9e-3l0.021-0.03-5e-3 0.072-0.016-0.042-0.035 0.02-0.021 0.022-0.018 0.054m-0.094-6e-3 0.019 0.099h-0.064zm-0.072 0.214v-0.026h8e-3l0.019-0.029 0.088 0.035-0.107-6e-3zm-0.159-9e-3 0.019-0.037 0.015-0.06 0.056 0.102-0.058-0.061-0.013 0.019zm-0.147-0.168-0.04 0.04 0.04-0.04 0.022 0.069zm-0.462-0.138c-0.01-0.043 0.063-0.241 0.036-0.09zm-6e-3 0.218-0.046 0.032 0.075-0.094zm-0.054-0.261 0.035-0.126zm-0.07 0.096 3e-3 -0.057 0.059 0.086h0.027l-4e-3 0.096h-0.025l-0.06-0.125m-0.034 0.156-0.092 0.032zm-0.294-0.395-0.048 0.122zm-0.505-0.088c0.016-0.058 0.189-0.023 0.043-0.033zm0.102 0.19-0.159 0.035 0.051-0.127 0.04 0.037 0.033-0.108zm-0.448-0.076c0.061-0.104 0.036-0.063 0.035-0.034zm-0.039 0.886-0.015-0.091 0.017 0.029 0.03 2e-3v0.06zm-0.037-0.406 0.037-0.133zm-0.306-0.242 0.092 4e-3zm-0.013-0.254 0.063 0.092-0.063-0.092-0.011 0.157-0.027-0.138zm0.427 2.893 0.115-2.428 2.326 0.078 0.031-0.152-0.025 0.024-0.016-0.097 0.05-0.06-0.024-0.026-0.02-0.07c0.01-0.092 0.086-0.166 0.064-0.345l-3.136-0.151-0.15 3.191z" fill="#fff"/>
  </g>
  <g transform="matrix(7.1531 0 0 -7.1531 -90.869 -6.7563)">
   <path d="m0 0-0.025 0.094zm-0.11-6e-3 0.018-0.054 0.021-0.022 0.026-0.02h9e-3l0.021-0.03-5e-3 0.072-0.016-0.042-0.035 0.02-0.021 0.022zm-0.094-6e-3 0.019 0.099h-0.064zm-0.072 0.214v-0.026h8e-3l0.019-0.029 0.088 0.035-0.107-6e-3zm-0.159-9e-3 0.019-0.037 0.015-0.06 0.056 0.102-0.058-0.061-0.013 0.019zm-0.147-0.168-0.04 0.04 0.04-0.04 0.022 0.069zm-0.462-0.138c-0.01-0.043 0.063-0.241 0.036-0.09zm-6e-3 0.218-0.046 0.032 0.075-0.094zm-0.054-0.261 0.035-0.126zm-0.07 0.096 3e-3 -0.057 0.059 0.086h0.027l-4e-3 0.096h-0.025zm-0.034 0.156-0.092 0.032zm-0.294-0.395-0.048 0.122zm-0.505-0.088c0.016-0.058 0.189-0.023 0.043-0.033zm0.102 0.19-0.159 0.035 0.051-0.127 0.04 0.037 0.033-0.108zm-0.448-0.076c0.061-0.104 0.036-0.063 0.035-0.034zm-0.039 0.886-0.015-0.091 0.017 0.029 0.03 2e-3v0.06zm-0.037-0.406 0.037-0.133zm-0.306-0.242 0.092 4e-3zm-0.013-0.254 0.063 0.092-0.063-0.092-0.011 0.157-0.027-0.138zm0.427 2.893 0.115-2.428 2.326 0.078 0.031-0.152-0.025 0.024-0.016-0.097 0.05-0.06-0.024-0.026-0.02-0.07c0.01-0.092 0.086-0.166 0.064-0.345l-3.136-0.151-0.15 3.191z" fill="none" stroke="#fff" stroke-width=".159"/>
  </g>
  <g transform="matrix(7.1531 0 0 -7.1531 -65.442 -12.422)">
   <path d="m0 0 0.059-0.113zm-0.317-0.493-0.014 0.015-0.105 0.033-0.047 0.069-0.033-4e-3 3e-3 -0.072h0.031l0.046 7e-3 0.105-0.033 0.014-0.015m-0.55 0.623c-0.06-0.123 0.196-0.088 0.079-0.086 0.02 0.065-0.092-0.035-0.079 0.086m-0.429 0.33 0.654 0.035c-0.136 0.338-0.265 0.707-0.398 1.064zm-0.271-1.019 0.032-0.024-0.149 0.144 0.077-0.187 0.04 0.067m2.523-0.583c0.168 0.014 0.024-0.187 0.129-0.252l-0.031-0.107-1.083-0.053-0.323 0.899-1.157-6e-3 -0.275-0.945c-0.304-0.084-0.725-0.059-1.092-0.084 0.303 1.393 0.535 2.799 0.942 4.154 0.501-0.013 1.08 0.117 1.528-0.01 0.041 0.098 0.171 0.01 0.303 0.096 0.297-0.446 0.13-0.773 0.391-1.218l-0.059-0.046c0.21-0.286 0.281-0.783 0.362-1.136 0.139-0.237 0.19-0.405 0.179-0.67 0.125-0.063 0.087-0.215 0.089-0.307 0.154-0.016 0.06-0.268 0.097-0.315" fill="#fff"/>
  </g>
  <g transform="matrix(7.1531 0 0 -7.1531 -65.442 -12.422)">
   <path d="m0 0 0.059-0.113zm-0.317-0.493-0.014 0.015-0.105 0.033-0.047 0.069-0.033-4e-3 3e-3 -0.072h0.031l0.046 7e-3 0.105-0.033zm-0.55 0.623c-0.06-0.123 0.196-0.088 0.079-0.086 0.02 0.065-0.092-0.035-0.079 0.086zm-0.429 0.33 0.654 0.035c-0.136 0.338-0.265 0.707-0.398 1.064zm-0.271-1.019 0.032-0.024-0.149 0.144 0.077-0.187zm2.523-0.583c0.168 0.014 0.024-0.187 0.129-0.252l-0.031-0.107-1.083-0.053-0.323 0.899-1.157-6e-3 -0.275-0.945c-0.304-0.084-0.725-0.059-1.092-0.084 0.303 1.393 0.535 2.799 0.942 4.154 0.501-0.013 1.08 0.117 1.528-0.01 0.041 0.098 0.171 0.01 0.303 0.096 0.297-0.446 0.13-0.773 0.391-1.218l-0.059-0.046c0.21-0.286 0.281-0.783 0.362-1.136 0.139-0.237 0.19-0.405 0.179-0.67 0.125-0.063 0.087-0.215 0.089-0.307 0.154-0.016 0.06-0.268 0.097-0.315z" fill="none" stroke="#fff" stroke-width=".159"/>
  </g>
  <g transform="matrix(7.1531 0 0 -7.1531 -44.555 -6.8194)">
   <path d="m0 0-0.022 0.022 0.022-0.022 0.014-0.015c-3e-3 -0.096 7e-3 -0.037 0 0l-3e-3 0.01zm-0.202 2.525-0.033-0.098zm-1.382-2.397 0.025 0.029c-0.307 0.301-0.292 0.822-0.217 1.222l0.06 0.097-8e-3 0.136 0.034-0.021c0.123 0.273 0.211 0.666 0.58 0.806-0.034 0.1 0.107 0.089 0.16 0.147l0.022-0.035c0.076 0.123 0.249 0.035 0.32 0.156 0.571 0.109 1.176-0.03 1.572-0.426l-0.549-0.641-0.098 0.085c-0.092-0.016-0.275 0.143-0.354 0.044v0.04c-0.335 0.097-0.638-0.081-0.796-0.418-0.158-0.334-0.057-0.327-0.01-0.716 0.023-0.147 0.307-0.314 0.483-0.378 0.222 9e-3 0.478-2e-3 0.707 0.066l0.091 0.102c-0.017 0.035 0.467-0.33 0.633-0.564-0.446-0.501-1.322-0.583-1.857-0.428-0.114 0.035-0.164 0.173-0.324 0.2-0.287 0.247-0.228 0.233-0.474 0.497" fill="#fff"/>
  </g>
  <g transform="matrix(7.1531 0 0 -7.1531 -44.555 -6.8194)">
   <path d="m0 0-0.022 0.022 0.022-0.022 0.014-0.015c-3e-3 -0.096 7e-3 -0.037 0 0l-3e-3 0.01zm-0.202 2.525-0.033-0.098zm-1.382-2.397 0.025 0.029c-0.307 0.301-0.292 0.822-0.217 1.222l0.06 0.097-8e-3 0.136 0.034-0.021c0.123 0.273 0.211 0.666 0.58 0.806-0.034 0.1 0.107 0.089 0.16 0.147l0.022-0.035c0.076 0.123 0.249 0.035 0.32 0.156 0.571 0.109 1.176-0.03 1.572-0.426l-0.549-0.641-0.098 0.085c-0.092-0.016-0.275 0.143-0.354 0.044v0.04c-0.335 0.097-0.638-0.081-0.796-0.418-0.158-0.334-0.057-0.327-0.01-0.716 0.023-0.147 0.307-0.314 0.483-0.378 0.222 9e-3 0.478-2e-3 0.707 0.066l0.091 0.102c-0.017 0.035 0.467-0.33 0.633-0.564-0.446-0.501-1.322-0.583-1.857-0.428-0.114 0.035-0.164 0.173-0.324 0.2-0.287 0.247-0.228 0.233-0.474 0.497z" fill="none" stroke="#fff" stroke-width=".159"/>
  </g>
  <g transform="matrix(7.1531 0 0 -7.1531 -12.457 -8.2026)">
   <path d="m0 0h0.068l-0.117 0.021zm-0.436 1.358-0.017-0.096 0.058 0.065zm-0.629-1.316-5e-3 0.065h-0.02v-0.065zm-0.128-0.078 0.031 0.141zm-0.358 0.057 0.024-0.075-0.03 0.172-0.027-0.137zm-0.096-0.042 0.031-0.127zm-0.212 0.095 0.04-0.099zm-0.441-0.259 0.03-0.091zm0.016-0.337h0.025l-0.032 0.136 7e-3 -0.136h-0.04zm-0.154 0.466-0.042 0.094zm-0.039-0.117 0.039-0.086 2e-3 -3e-3 -2e-3 3e-3 -0.039 0.086-0.06 0.047 0.06-0.047m3.047 0.494 0.041-0.904-3.315-0.165-0.161 3.434 3.158 0.157 0.027-0.064 0.035 0.064 0.098 6e-3 0.044-0.942-2.441-0.123c-0.046-0.088 3e-3 -0.19-9e-3 -0.295 0.562-0.056 1.174 0.061 1.646 0.016l0.041-0.887-1.643-0.084 0.013-0.371z" fill="#fff"/>
  </g>
  <g transform="matrix(7.1531 0 0 -7.1531 -12.457 -8.2026)">
   <path d="m0 0h0.068l-0.117 0.021zm-0.436 1.358-0.017-0.096 0.058 0.065zm-0.629-1.316-5e-3 0.065h-0.02v-0.065zm-0.128-0.078 0.031 0.141zm-0.358 0.057 0.024-0.075-0.03 0.172-0.027-0.137zm-0.096-0.042 0.031-0.127zm-0.212 0.095 0.04-0.099zm-0.441-0.259 0.03-0.091zm0.016-0.337h0.025l-0.032 0.136 7e-3 -0.136h-0.04zm-0.154 0.466-0.042 0.094zm-0.039-0.117 0.039-0.086 2e-3 -3e-3 -2e-3 3e-3 -0.039 0.086-0.06 0.047zm3.047 0.494 0.041-0.904-3.315-0.165-0.161 3.434 3.158 0.157 0.027-0.064 0.035 0.064 0.098 6e-3 0.044-0.942-2.441-0.123c-0.046-0.088 3e-3 -0.19-9e-3 -0.295 0.562-0.056 1.174 0.061 1.646 0.016l0.041-0.887-1.643-0.084 0.013-0.371z" fill="none" stroke="#fff" stroke-width=".159"/>
  </g>
  <g transform="matrix(7.1531 0 0 -7.1531 -181.26 -71.323)">
   <path d="m0 0c0-0.177-0.14-0.319-0.316-0.319-0.175 0-0.315 0.142-0.315 0.319 0 0.173 0.14 0.319 0.315 0.319 0.176 0 0.316-0.146 0.316-0.319" fill="#a55528"/>
  </g>
  <g transform="matrix(7.1531 0 0 -7.1531 1.1221 -71.323)">
   <path d="m0 0c0-0.177-0.141-0.319-0.315-0.319-0.173 0-0.316 0.142-0.316 0.319 0 0.173 0.143 0.319 0.316 0.319 0.174 0 0.315-0.146 0.315-0.319" fill="#a55528"/>
  </g>
  <g transform="matrix(7.1531 0 0 -7.1531 -5.5631 4.881)">
   <path d="m0 0c0-0.177-0.143-0.315-0.317-0.315s-0.313 0.138-0.313 0.315c0 0.176 0.139 0.32 0.313 0.32s0.317-0.144 0.317-0.32" fill="#a55528"/>
  </g>
  <g transform="matrix(7.1531 0 0 -7.1531 -176.89 7.0884)">
   <path d="m0 0c0-0.171-0.14-0.314-0.321-0.314-0.167 0-0.307 0.143-0.307 0.314 0 0.182 0.14 0.32 0.307 0.32 0.181 0 0.321-0.138 0.321-0.32" fill="#a55528"/>
  </g>
  <g transform="matrix(7.1531 0 0 -7.1531 -39.114 -.71412)">
   <path d="m0 0-14.584-0.649v-3.279l13.42-0.583z" fill="#4f2711"/>
  </g>
  <g transform="matrix(7.1531 0 0 -7.1531 -39.114 -.71412)">
   <path d="m0 0-14.584-0.649v-3.279l13.42-0.583z" fill="none" stroke="#3a1b0a" stroke-width=".228"/>
  </g>
  <g transform="matrix(7.1531 0 0 -7.1531 -40.763 -2.551)">
   <path d="m0 0-14.588-0.648v-3.277l13.42-0.589z" fill="#914a23"/>
  </g>
  <g transform="matrix(7.1531 0 0 -7.1531 -117.27 20.934)">
   <path d="m0 0 0.023 6e-3 0.038 4e-3zm-0.113-0.045 0.084 0.03-0.084-0.03m0.248 0.242-0.162-0.162-0.17-0.012-0.155-0.087v-0.027l-0.031 0.015-0.069-0.104 0.164 0.075 5e-3 -0.012c-0.172-0.12-0.442-0.063-0.621-0.188h0.019l4e-3 -0.029-0.015-2e-3 -0.032 0.041c-0.199-0.01-0.433-0.185-0.636-0.059l-0.014 0.237 8e-3 -9e-3c4e-3 0.106 0.098 0.202 0.048 0.319l-0.035-4e-3c0.037 0.429 0.126 0.876 0.057 1.34l0.035 0.172-0.031 0.123 0.029-0.052c0.03 0.119 0.076 0.269 2e-3 0.384l-2e-3 0.095 0.127 0.109 0.019 0.017c0.161-0.061 0.176-0.252 0.266-0.347l4e-3 0.011c-4e-3 -0.213 0.198-0.361 0.188-0.586l-4e-3 -0.223 0.026 0.01 0.017-0.058-0.069-4e-3 0.026-0.077-0.01-0.248-0.019-0.047c-0.015-0.222-0.03-0.503-0.041-0.711 0.109-0.023 0.247 8e-3 0.38 0.024 0.233 0.048 0.43 0.198 0.686 0.178l0.029-0.039-0.015-0.024 0.029-0.031-0.037-8e-3" fill="#fff"/>
  </g>
  <g transform="matrix(7.1531 0 0 -7.1531 -99.692 14.948)">
   <path d="m0 0 0.025 0.045-0.025-0.045m-0.139-0.223c-0.035-0.109-0.186-0.107-0.265-0.188l0.066 2e-3 -0.094-0.055 0.03 2e-3 0.188 0.084 0.16 0.18zm-0.876 1.084 9e-3 0.035zm-0.07 0.361 0.013 0.013 0.055-0.013zm-3e-3 -0.725-6e-3 8e-3 6e-3 0.126h0.014zm-0.033-0.148-6e-3 0.043h0.016l-0.01-0.043m-0.021-0.321 0.023 0.258zm-0.148 1.121-5e-3 1e-3 0.054 8e-3 3e-3 -8e-3zm-0.105-0.138 0.011 0.019 0.128 8e-3 -0.029-8e-3 0.055-0.011-0.165-8e-3m-0.132 0.257 0.041 0.02 0.013-0.018zm-0.06-0.036-0.036 9e-3 0.049 8e-3zm-0.148-2.372v0.016h0.05v-0.012zm1.725 2.748-0.215-0.146 0.235 6e-3c-0.099-0.049-0.233-0.061-0.348-0.1l0.158-0.019c0.126 0.013 0.148-2e-3 0.264-2e-3 -0.123-0.067-0.302-0.051-0.436-0.108l-0.021-0.023 0.096 6e-3 -0.102-0.072 0.086-0.04 0.162 0.012-0.248-0.072-0.084-0.122c-0.016-0.152-8e-3 -0.265 0-0.417-0.039-0.121-0.029-0.289-0.05-0.459l0.05-0.055 9e-3 0.011 0.016-0.048c0.106 0.029 0.188 0.029 0.299 0.037l0.035-0.03-0.027-0.019 0.121 0.01-0.068-0.057 0.053-0.01-0.082-0.023 0.097-0.031 0.088 0.054h0.026l7e-3 -0.023-0.046-0.015c0.023-0.092-0.129-0.022-0.127-0.137l-0.127-0.106-0.029-0.06-7e-3 4e-3 -0.142-0.162-0.016 0.059c-0.096-0.106-0.238-0.159-0.359-0.241l0.012-0.016-0.046-0.037 0.231 0.064c-0.064-0.071-0.254-0.058-0.222-0.175l0.095 0.041-4e-3 0.021 0.129 0.036c-0.297-0.245-0.648-0.211-1.024-0.286l-0.156 0.053 0.117 0.033 0.192 0.032-0.211 0.056-0.086 9e-3 0.07 0.035-0.072-9e-3 -0.236-0.035 0.226 0.048 0.01-0.013-0.029 0.102h-0.129l0.105 0.017 0.015-7e-3 0.02 0.029-0.095 0.154c0.057 0.071 0.22 0.05 0.244 0.17l0.236 0.112c-0.128 5e-3 -0.237-0.069-0.345-0.129 0.016 0.114 0.196 0.134 0.237 0.203l0.212 0.074 0.013-0.018c0.055 0.145 0.069 0.356 0.1 0.531l0.029-0.019 0.013 0.098 0.036 0.047-5e-3 0.162 0.021-0.055 4e-3 0.113-0.015-0.039 0.03 0.173 5e-3 -0.1h0.011l-2e-3 0.056 0.014-4e-3c-6e-3 0.078 0.06 0.114 0.064 0.228l-0.01 0.089-0.044-0.02-0.02-0.076-4e-3 -0.03 0.024 0.124-0.141-0.014 2e-3 -0.014-0.047 0.014v0.012l0.201 0.06-6e-3 -0.026 0.052-0.028 0.03 0.08-0.028 0.014-9e-3 -0.035-0.062 0.05 0.019-7e-3 0.014 0.093-0.137 0.017 0.02 8e-3 -0.182-0.044 6e-3 -0.036c-0.138 0-0.236-0.062-0.365-0.074l-0.035 0.043 0.247 0.031c8e-3 0.1 0.128 0.068 0.187 0.092 0.103 0.066 0.284-8e-3 0.363 0.1-0.135 0.037-0.305-0.022-0.45-0.032l-0.1 0.021h-0.15l0.082 0.048-9e-3 0.019 0.029 0.014v-0.02l0.115 0.03v0.055c0.098 0.027 0.215 0.046 0.291 0.091l-0.01 6e-3h0.022l-0.012-0.018c0.126-0.011 0.24 6e-3 0.36 0.014-0.01 0.112 0.113 0.08 0.162 0.019l0.1 0.052c0.099-0.052 0.273 1e-3 0.398-0.02l0.195 0.014-6e-3 -0.012 0.157-0.012c-0.095-0.031-0.229-0.047-0.331-0.049" fill="#fff"/>
  </g>
  <g transform="matrix(7.1531 0 0 -7.1531 -77.506 4.6579)">
   <path d="m0 0h-0.01l0.01 0.033 6e-3 -4e-3zm-0.047 0.264-0.022-0.035 0.022 0.025zm-0.049-0.448-0.015 0.048 0.047 4e-3 -0.032-0.052m-0.125 0.442 0.036 0.031 0.024 0.076zm-0.023 0.039-2e-3 0.043 0.021 5e-3 -0.019-0.048m-0.084-1.043 0.03 0.025-0.017 0.024h0.017l-9e-3 -0.016 0.024-8e-3 -9e-3 6e-3 0.014 0.014 2e-3 -8e-3 -0.052-0.037m-0.055 0.204 0.036 0.04 0.019-9e-3 -0.014-9e-3 0.031 0.046-0.072-0.068m-0.175-0.321 0.021 0.053-0.069-0.122 0.048 0.069 0.017-0.033-0.074-0.073-6e-3 -0.064 0.106 0.181zm-0.162-0.305 0.031 0.034 9e-3 0.032zm-0.098-0.148 0.033 0.035-0.033-0.035m-0.018-0.026-0.029-0.06 0.031 0.035zm-0.66 0.571-4e-3 0.025 0.023-0.025zm-0.022 0.046-0.016-1e-3 0.028 0.044-0.012-0.043m-0.042 0.107 3e-3 0.093 0.03-0.093zm-0.106 0.429-0.01 0.021 0.01 0.01 0.01-0.031zm-0.129 0.025-0.012-4e-3 7e-3 -0.057h7e-3zm-0.172 0.273h-0.011l0.037-0.052zm-0.17-1.228-9e-3 0.031h9e-3l0.01-0.031zm1.83 0.724 0.036-0.031 5e-3 0.051 0.088 0.059-0.026 0.032 0.036 4e-3 -0.103-0.167c-0.086-0.101-0.115-0.282-0.215-0.318l0.088 0.134-0.127-0.152 0.01-0.027 0.02 0.019 0.016-0.07 0.116 0.179-0.04-0.166 0.07 0.057-0.046-0.055c-0.031-0.178-0.242-0.288-0.256-0.486l-0.108-0.173 0.023-0.016c-0.151-0.086-0.186-0.278-0.312-0.411l-0.102-0.15-0.077-0.041 0.035 0.053-5e-3 0.054-0.073-0.014 0.017 0.043 0.035-0.021 0.013 0.119c-0.122-0.065-0.107-0.213-0.218-0.269l-0.023 0.016-0.125-0.076 0.012-0.01-0.225-0.062 0.012-0.011-0.098 0.054-0.046-0.076-0.063 0.126-0.014-0.084c-0.04 0.043-0.064 0.255-0.052 0.349l0.021 0.174-0.01 0.031-3e-3 0.057c-0.061-0.215-0.106-0.369-0.081-0.59l-0.012 0.182-0.036 8e-3c0.011 0.17 0.045 0.334 0.078 0.474l-0.03 0.155 0.045 0.031-0.048 0.011 0.015 0.096-0.037 0.071 0.022-6e-3 -0.034 0.22c0.049-0.087 0.129-0.291 0.082-0.384l0.032-0.216h-4e-3l8e-3 -0.043h4e-3c0.076 0.272 3e-3 0.527-0.088 0.79l-0.047 0.055 0.013 0.136c0.034 0.198 0.057 0.377 0.012 0.579l-0.053 0.041 0.022 0.046-0.037 0.018 0.035 0.025c-0.106 0 2e-3 0.071-0.022 0.123l0.045 0.041 0.023-0.011 0.012 0.029-0.015 4e-3 0.129 0.064 0.035-0.056 0.113-0.158h4e-3l0.012 0.061 0.125-0.227-0.043 0.04c0.043-0.114 0.043-0.285 0.082-0.396l-0.039 0.01 0.03-0.141 3e-3 0.098 0.027 8e-3c0.041-0.127 0.045-0.274 0.112-0.389l9e-3 0.035 0.088-0.188 0.02 0.057 0.014-0.041-0.034-0.031 0.02-0.049 0.017 0.028-0.014 0.027v0.012h0.034v-7e-3l4e-3 -0.077 0.088 0.158 0.017-0.02c0.237 0.375 0.544 0.722 0.749 1.078v-9e-3c0.099-0.017 0.036 0.096 0.129 0.074l-0.024 0.039 0.059 0.056-0.028-0.042 0.032-0.014c-4e-3 0.115 0.122 0.156 0.179 0.206l0.029-0.056 0.026 0.021c-0.016 0.065 0.178 0.076 0.217 0.181l-0.098-0.181-0.053-0.087 0.098 0.035 0.09 0.137 0.104 0.109 0.013 0.018 0.046-0.031c-0.204-0.348-0.508-0.581-0.611-0.962m-1.9-0.085c-3e-3 -0.094 5e-3 -0.266 0.018-0.363-0.026 0.117-0.039 0.236-6e-3 0.332z" fill="#fff"/>
  </g>
  <g transform="matrix(7.1531 0 0 -7.1531 -53.63 9.3732)">
   <path d="m0 0-0.092 0.028 0.099-0.017zm-0.211-1.231v5e-3l0.051-4e-3v-9e-3zm-0.134 0.878-2e-3 -0.04 0.142 0.013-0.14 0.027m-0.076-0.193 3e-3 0.028 0.067-0.02zm-0.21 0.053-0.059-2e-3 0.073-0.021-6e-3 -8e-3 0.021 3e-3 -0.029 0.028m-0.598-0.13 0.195-0.013-0.195 0.013m-0.015-0.583v-0.024l0.074 0.02zm-0.312 0.095h0.034l0.019 0.233-0.053-0.233m0.406 2.067 0.011 4e-3c-0.086-2e-3 -0.287-0.016-0.413-0.03l3e-3 -0.034 0.133 0.017-0.018-8e-3 0.114 0.014 0.015-0.021c0.092-0.024 0.125 0.076 0.211 0.015l-0.056 0.043m-0.478-0.109-0.078-6e-3v-6e-3l0.078 2e-3zm-0.304-1.965 0.016 0.1-0.016-0.1m-0.308-0.112-0.012 0.032-0.02-0.067c0.108-0.021 0.047 0.117 0.077 0.16l-0.045-0.125m9e-3 0.948c-0.019-0.111-0.063-0.264-0.088-0.377l0.065 0.027 0.014 0.031c-0.061 0.114 0.029 0.227 0.029 0.341zm-0.117-1.172 0.075-0.06-0.075 0.06m-0.075 0.426c0-0.122 3e-3 -0.267-0.044-0.339l0.095-0.081 0.024 0.461-0.075-0.041m-0.06-0.374-0.023-0.103 0.109 0.023zm2.684 2.237c-0.194-6e-3 -0.351 0.043-0.537-0.015l0.223-0.03-0.063-0.029 0.089-0.011c-0.071-6e-3 -0.127 1e-3 -0.231-0.026l-0.022 0.022c-0.171-0.022-0.406-0.014-0.584-0.063l3e-3 -0.02c-0.159 4e-3 -0.259 9e-3 -0.401-0.045l0.107-0.037-0.037-0.022 0.091-0.027-0.155-0.031c-0.035-0.13-0.035-0.246-6e-3 -0.373l0.017 0.059c0.118 0.021 0-0.131 0.108-0.17l0.062-0.017c0.172-0.042 0.284 0.071 0.45 0.02l0.062 0.036-8e-3 -0.015c0.213-0.044 0.457-0.013 0.666-0.091l0.078-0.066-0.035-8e-3 0.016-0.068c-0.028-0.11-0.119 0.064-0.116-0.064-6e-3 -0.122-0.179-0.022-0.182-0.146l9e-3 -9e-3c-0.117 0.031-0.215-0.09-0.309-0.045l-0.043-0.041 0.086-0.024c-0.191-0.101-0.432-0.052-0.658-0.101l-0.1 0.016 0.028 0.033-0.094-6e-3 0.033-0.033 8e-3 -0.01-0.041-0.04-0.011 9e-3 -0.089 0.056c-0.096 0.039-0.041-0.067-0.079-0.119l0.038-8e-3 -0.013-0.088 0.035-7e-3c-0.053-0.092-0.075-0.223-0.053-0.321 0.238-0.077 0.504-8e-3 0.775-0.031l-0.029-0.015 0.029-4e-3 3e-3 -0.01-0.152-0.03c0.134-0.011 0.233-0.035 0.362 0l-0.185 0.03h0.127v0.014h0.129l-0.079-0.012 0.159-0.023-0.156-0.018c0.107-0.026 0.235-0.033 0.345-0.019l-0.01-0.014 0.217-2e-3 -0.014-0.012 0.037-0.02c-0.066-0.015-0.082-0.05-0.179-0.058l4e-3 -0.035c-0.157-3e-3 -0.324-0.042-0.43-0.096l0.101-4e-3 -0.228-0.06 0.051-0.02c-0.072-0.085-0.227 0-0.373-0.037l-0.023-0.02 0.011-0.011c-0.121 0.014-0.313-0.084-0.476-0.075l0.103-0.025-0.119-6e-3 -0.102 0.041h-0.018l3e-3 -0.021-0.117-0.028-0.064 0.019-0.032-0.023 0.064-0.053c-0.177-0.029-0.236 0.189-0.444 0.106-0.166 0.013-0.297 0.118-0.437 0.211l0.061 0.082-0.016 8e-3 7e-3 -0.082c0.085 0.082-0.05 0.187 0.019 0.283l-0.056 0.02c0.093 0.07 0.058 0.203 0.089 0.301l-0.049 0.027 0.018 0.043 0.025-0.016c0.045 0.097 0.086 0.213 0.123 0.319 0.039 0.142 0.018 0.26 0.08 0.384 0.031 0.156 0.099 0.313 0.149 0.445v0.027l6e-3 -9e-3 0.034 0.085 0.016-0.03 0.051 0.031c-0.085 0.092 0.115 0.142 8e-3 0.207 8e-3 0.092 0.142 0.031 0.168 0.117 0.056 0.029 0.165-0.015 0.165 0.1l-9e-3 0.014 0.131 0.05-0.074 0.014c0.177 0.1 0.437 0.041 0.597 0.06l-0.037-0.019 0.162 0.014-0.043 0.036c0.106-0.072 0.257 0.02 0.335-0.015l-0.053-0.016c0.24-0.015 0.547 0.022 0.806-0.019-0.093-0.053-0.201 0-0.295-0.055l0.391-0.039-4e-3 -0.031" fill="#fff"/>
  </g>
  <g transform="matrix(7.1531 0 0 -7.1531 -150.92 -53.272)">
   <path d="m0 0-0.011 0.14-0.044-0.143-0.076 0.057-6e-3 0.078 6e-3 -0.078 0.035-0.057h0.041l0.055 3e-3m-0.496-0.175 0.057-0.122zm-0.025 0.5 0.058-0.142zm-0.013-0.633c-0.164-0.137 0.056-0.024-0.025-0.05zm-0.14-0.709 0.072-0.068c0.04-0.068 0.043-0.136 0.026-0.019l-0.026 0.019-0.072 0.068m-0.037 0.124 0.016 8e-3 0.103 0.076-0.103-0.076zm-0.266-0.206 0.074 0.025-0.044 0.043-0.03-0.068-0.018-0.025c9e-3 -0.152 3e-3 -0.06 0.018 0.025m-0.018 1.14-0.064 0.163zm-0.081-1.171c6e-3 -0.181 0.029 0.045-0.043 0.041zm-4e-3 1.778-0.08 0.054zm-0.116-2.57 0.036 3e-3 -0.039 0.047zm-0.06 1.41-0.064 0.175zm2.816 2.54c0.377-3e-3 0.692 0.102 1.15 0.106-0.263-0.742-0.66-1.432-0.933-2.174 0.144-0.391 0.471-0.758 0.612-1.158 0.215-0.266 0.251-0.604 0.491-0.804 0 0-0.384 0.021-1.187-0.076-0.294 0.292-0.335 0.565-0.335 0.565-0.126 0.294-0.319 0.61-0.5 0.897l-1.159-0.055c-0.123-0.477 0.057-0.953 0.035-1.547l-1.033-0.049-0.2 4.203 1.032 0.049 0.075-1.532c0.375 0.017 1.111-0.167 1.31 0.141 0.163 0.436 0.418 0.948 0.642 1.434" fill="#ec008c"/>
  </g>
  <g transform="matrix(7.1531 0 0 -7.1531 -123.54 -48.907)">
   <path d="m0 0-0.029 0.056 0.029-0.056m-0.116 0.656-0.034-0.023 0.034-0.026 0.04-0.037-0.04 0.037v0.049l0.056-0.019-0.026 0.122-0.03-0.103m-9e-3 1.368-0.053-0.026 0.037-0.089 0.016 0.115m-0.109-1.274-0.036-0.099 0.05 0.046 0.011-5e-3 0.055 0.062-0.066-0.057-0.014 0.053m-0.011 0.209-0.031-0.126 0.04-0.028zm0.011-1.947-0.147 3.062 0.731 0.029 0.147-3.056z" fill="#7aca2a"/>
  </g>
  <g transform="matrix(7.1531 0 0 -7.1531 -99.077 -65.511)">
   <path d="m0 0v-7e-3c-8e-3 -0.047 0.018-0.102 0 0l0.01 0.016 0.025 0.028-0.025-0.028zm-0.963-2.938-0.035 0.079-9e-3 -0.031-0.077 0.105-0.017-0.089-4e-3 -0.027 4e-3 0.027 0.094-0.016zm1.329 0.98c0.077 0.247-0.019 0.457-0.109 0.703-0.382 0.598-1.11 0.27-1.614 0.311l0.076-1.625c0.469 0.14 1.202-0.266 1.582 0.449l-0.044 0.046zm-2.204 1.362 0.057-0.135zm-0.164-0.491 0.126-0.024zm-0.321 0.555 0.038 0.163zm3.585-0.355 0.035 0.032c0.142-0.386 0.142-0.914 0.111-1.326 0.026-0.101-0.176-0.222-0.144-0.382-0.227-0.519-0.603-0.694-0.937-0.916l-0.05 0.023-0.025-0.105-2.537-0.117-0.184 3.791c0.903-0.03 2.124 0.256 2.692-0.069l0.037 0.035 0.041-0.062 0.111 2e-3c0.053-0.102 0.113-0.039 0.174-0.182l0.031 0.048 0.079-0.085c0.239-0.162 0.543-0.396 0.566-0.687" fill="#1f5ab1"/>
  </g>
  <g transform="matrix(7.1531 0 0 -7.1531 -74.097 -45.057)">
   <path d="m0 0 0.018 0.097zm-0.139 0.091-0.022 0.055-0.016 0.052-0.021-0.05-0.044 0.075-0.024-3e-3v-0.072h0.093l0.012-2e-3zm-0.275 1.267 0.054-0.015-0.033 0.092zm0.047 1.012v-4e-3l0.02-0.1-0.086-0.033 0.095-0.019-9e-3 0.052-0.02 0.1-2e-3 0.028zm0.035-2.31-0.074 0.117 9e-3 0.037-9e-3 -0.037-0.02-0.029-6e-3 7e-3 -0.039-0.015 0.039 0.015 6e-3 -7e-3 0.094-0.088m-0.178 2.5v-0.077l0.035 0.115zm0.061-1.358-2e-3 0.062-0.07-0.068zm-0.365-1.105 0.029 0.078-0.033-0.051-0.028 0.067c-0.082-0.233 0.016 0.027 0.032-0.094m-0.188 1.119-6e-3 0.095h-0.024zm-0.037-1.059 0.041 4e-3 -0.047 0.115 6e-3 -0.119h-0.033l0.033-0.046zm0 0.801 0.019-0.041h6e-3 -6e-3l-0.019 0.041v0.059h-0.037l-0.037-6e-3 0.037 6e-3 0.037-0.059m-0.046 0.19c5e-3 -0.153 0.022 0.023-0.034 0.023zm-0.015-1.261 0.037 0.108-0.061-0.067 0.024-0.041m-0.234 1.634c0.074 0.017 0.037 0.044 0.131 0.075l-0.025 0.01-0.012 0.043 0.012-0.043-0.106-0.085m-0.023-0.127c0.108 0.039 0.076-0.079 0.137-0.124-0.061 0.045-0.029 0.163-0.137 0.124m-0.081 0.311 0.075-0.063 0.021 0.039zm3.239-1.132c-0.172 8e-3 0.066-0.209-0.044-0.328-0.151-0.245-0.366-0.523-0.644-0.674-0.599-0.128-1.263-0.124-1.923-0.117l-0.113 0.092-0.024-0.035c9e-3 0.131-0.136 9e-3 -0.16 0.091-0.244 0.192-0.446 0.483-0.395 0.854l0.191 0.01 0.032-0.065c0.136 0.127 0.406 0.057 0.615 0.09-0.068-0.151 0.105-0.127 0.16-0.188 0.456 0.022 0.899 0.048 1.315 0.124l0.052 0.195-0.099 0.102c-0.711 0.099-1.619-0.279-2.133 0.315-0.205 0.377-0.273 0.897-0.026 1.288 0.151 0.111 0.315 0.334 0.555 0.299l0.068 0.07c0.737-0.031 1.898 0.308 2.241-0.369 0.111-0.037 0.222-0.275 0.234-0.476l-0.993-0.047 0.032 0.076c-0.463 0.041-1.265 0.082-1.5-0.147 5e-3 -0.24 0.178-0.111 0.332-0.205 0.617 0.076 0.919 0.094 1.442 0.068l0.101-0.089 0.03 0.043c0.13-0.073 0.25-0.219 0.375-0.313 0.099-0.189 0.27-0.441 0.279-0.664" fill="#f68512"/>
  </g>
  <g transform="matrix(7.1531 0 0 -7.1531 -125.9 -21.817)">
   <path d="m0 0c0.14 0.027 0.205 0.245 0.108 0.361-0.397 0.148-1.237-3e-3 -1.875-0.021l0.016-0.431zm-2.203-0.926 0.067 0.084zm-0.34 1.381 0.098 4e-3 -0.041 0.124h-0.061zm-2e-3 -3.123c0.039-0.039 0.1-0.039 0 0l-0.01 0.031v0.034-0.05l0.01-0.015m3.155 4.219c0.012-0.108 0.23 0.01 0.217-0.217l0.05 0.066c0.303-0.448 0.613-0.765 0.445-1.466-0.371-1.503-1.869-1.008-3.054-1.182l0.041-1.622-1.06-0.056-0.205 4.487c0.511-0.021 1.179 0.117 1.56-0.021l0.048 0.054c0.569-0.026 1.544 0.185 1.958-0.043" fill="#ad108e"/>
  </g>
  <g transform="matrix(7.1531 0 0 -7.1531 -88.627 -10.389)">
   <path d="m0 0-0.027 0.095zm-0.111-6e-3 0.016-0.046 0.021-0.026 0.027-0.024h8e-3l0.025-0.031-4e-3 0.078-0.021-0.047-0.035 0.024-0.021 0.026-0.016 0.046m-0.095-2e-3 0.019 0.1-0.058-6e-3zm-0.069 0.214 3e-3 -0.024h6e-3l0.018-0.034 0.086 0.038-0.104-4e-3zm-0.162-9e-3 0.015-0.041 0.022-0.055 0.054 0.102-0.054-0.062-0.022 0.015zm-0.147-0.168-0.041 0.039 0.041-0.039 0.016 0.066zm-0.461-0.142c-0.014-0.041 0.064-0.238 0.035-0.094zm-0.011 0.218-0.039 0.036 0.073-0.092zm-0.049-0.259 0.028-0.122zm-0.073 0.102 7e-3 -0.065 0.059 0.094h0.022l-5e-3 0.091h-0.019l-0.064-0.12m-0.031 0.153-0.092 0.03zm-0.295-0.4-0.043 0.125zm-0.506-0.083c0.02-0.055 0.186-0.026 0.04-0.032zm0.102 0.186-0.16 0.035 0.052-0.13 0.037 0.037 0.038-0.105zm-0.444-0.075c0.057-0.106 0.035-0.067 0.032-0.035zm-0.039 0.887-0.02-0.093 0.02 0.032h0.037l-8e-3 0.067zm-0.043-0.406 0.043-0.132zm-0.308-0.243 0.095 2e-3zm-8e-3 -0.256 0.061 0.096-0.061-0.096-8e-3 0.156-0.03-0.135zm0.424 2.896 0.114-2.425 2.333 0.08 0.031-0.159-0.027 0.024-0.02-0.094 0.053-0.06-0.021-0.025-0.022-0.074c0.01-0.093 0.084-0.165 0.059-0.341l-3.131-0.154-0.148 3.193z" fill="#7aca2a"/>
  </g>
  <g transform="matrix(7.1531 0 0 -7.1531 -63.2 -16.103)">
   <path d="m0 0 0.057-0.115zm-0.32-0.502-0.012 0.023-0.107 0.028-0.049 0.072h-0.032l6e-3 -0.08 0.026 4e-3 0.049 4e-3 0.107-0.028 0.012-0.023m-0.551 0.631c-0.059-0.124 0.199-0.089 0.086-0.089 0.012 0.067-0.096-0.035-0.086 0.089m-0.428 0.326 0.654 0.034c-0.131 0.332-0.267 0.707-0.394 1.062zm-0.267-1.021 0.03-0.023-0.151 0.153 0.078-0.194 0.043 0.064m2.525-0.575c0.161 4e-3 0.017-0.194 0.124-0.252l-0.032-0.111-1.086-0.054-0.313 0.9-1.168-5e-3 -0.273-0.946c-0.302-0.091-0.726-0.058-1.092-0.084 0.304 1.394 0.534 2.795 0.946 4.145 0.498-2e-3 1.078 0.126 1.525-2e-3 0.042 0.103 0.174 9e-3 0.303 0.093 0.303-0.439 0.136-0.768 0.393-1.211l-0.057-0.051c0.207-0.287 0.28-0.785 0.363-1.135 0.134-0.238 0.187-0.406 0.174-0.667 0.127-0.068 0.088-0.218 0.089-0.311 0.158-0.015 0.062-0.266 0.104-0.309" fill="#1f5ab1"/>
  </g>
  <g transform="matrix(7.1531 0 0 -7.1531 -42.299 -10.487)">
   <path d="m0 0-0.025 0.02 0.025-0.02 6e-3 -0.02c0-0.095 0.016-0.035 0 0v0.01zm-0.205 2.523-0.034-0.095zm-1.379-2.396 0.019 0.025c-0.306 0.304-0.293 0.832-0.214 1.225l0.064 0.096-0.011 0.13 0.032-0.015c0.126 0.28 0.211 0.674 0.577 0.808-0.028 0.097 0.107 0.092 0.162 0.147l0.024-0.041c0.078 0.129 0.244 0.037 0.322 0.154 0.569 0.11 1.175-0.025 1.564-0.417l-0.545-0.641-0.095 0.085c-0.097-0.021-0.277 0.146-0.355 0.04l-2e-3 0.039c-0.333 0.106-0.634-0.079-0.791-0.413-0.165-0.336-0.062-0.322-0.011-0.72 0.024-0.143 0.305-0.309 0.483-0.379 0.22 0.014 0.474 0 0.707 0.07l0.089 0.104c-0.017 0.027 0.47-0.332 0.631-0.571-0.447-0.492-1.324-0.578-1.855-0.423-0.113 0.033-0.164 0.174-0.328 0.197-0.283 0.246-0.225 0.233-0.467 0.5" fill="#ec008c"/>
  </g>
  <g transform="matrix(7.1531 0 0 -7.1531 -10.215 -11.841)">
   <path d="m0 0 0.063 3e-3 -0.118 0.02zm-0.436 1.359-0.026-0.099 0.067 0.068zm-0.633-1.311-4e-3 0.061h-0.022l2e-3 -0.061zm-0.129-0.082 0.043 0.143zm-0.359 0.057 0.033-0.078-0.035 0.18-0.028-0.137zm-0.092-0.037 0.033-0.132zm-0.215 0.088 0.043-0.095zm-0.44-0.257 0.032-0.096zm0.022-0.338 0.021 4e-3 -0.034 0.136 0.013-0.14-0.041-6e-3zm-0.162 0.466-0.037 0.103zm-0.032-0.115 0.036-0.081 7e-3 -7e-3 -7e-3 7e-3 -0.036 0.081-0.062 0.045 0.062-0.045m3.042 0.494 0.046-0.904-3.317-0.162-0.161 3.43 3.154 0.158 0.027-0.058 0.038 0.058 0.097 4e-3 0.047-0.947-2.44-0.119c-0.046-0.087 0-0.186-0.015-0.291 0.565-0.056 1.178 0.052 1.65 0.011l0.043-0.885-1.648-0.08 0.019-0.379z" fill="#f68512"/>
  </g>
  <g transform="matrix(7.1531 0 0 -7.1531 -29.768 -54.047)">
   <path d="m0 0-0.111-0.025-1.29 0.505c0.063 0.055 0.928 0.745 1.026 0.817l0.012-0.014 0.142 0.058-0.054 0.143-0.146-0.056v-0.087c-0.076-0.062-0.876-0.625-0.98-0.703 0.044 0.13 0.373 1.139 0.381 1.171l0.038 0.012 0.063 0.058-0.053 0.143-0.147-0.052-9e-3 -0.064 0.046-0.079-0.483-1.233-0.452 0.633 0.023 0.025-0.053 0.13-0.127-0.05 0.05-0.127 0.055-2e-3c0.015-0.029 0.303-0.516 0.362-0.615-0.113 0.039-1.189 0.389-1.225 0.398l-0.06 0.093-0.123-0.046 0.045-0.131 0.106 0.033 1.287-0.503-0.702-0.572-7e-3 2e-3 -0.127-0.045 0.048-0.127 0.127 0.043v0.084c0.035 0.023 0.557 0.392 0.661 0.464-0.037-0.13-0.355-1.094-0.377-1.17l-0.112-0.064 0.053-0.143 0.144 0.057-0.025 0.122 0.471 1.217 0.88-1.29-0.016-0.026 0.044-0.126 0.131 0.052-0.048 0.123-0.062 7e-3c-0.017 0.028-0.73 1.181-0.798 1.29 0.121-0.037 1.218-0.397 1.259-0.408l0.053-0.092 0.127 0.045-0.047 0.125" fill="#1f5ab1"/>
  </g>
  <g transform="matrix(7.1531 0 0 -7.1531 -153.42 -7.0495)">
   <path d="m0 0-0.113-0.037c-0.063 0.025-0.899 0.417-1.008 0.471 0.109 0.022 0.677 0.138 0.716 0.152l0.05-0.051 0.111 0.055-0.057 0.105-0.109-0.047-2e-3 -6e-3 -0.808-0.116 0.458 1.163 0.088 0.055-0.056 0.113-0.114-0.05 0.033-0.1c-0.017-0.028-0.451-0.963-0.501-1.061-0.023 0.098-0.168 0.589-0.178 0.616l0.027 0.044-0.053 0.106-0.105-0.051 0.053-0.111 0.029-4e-3 0.139-0.687-1.114 0.435-0.024 0.082-0.054 0.027-0.123-0.053 0.064-0.124 0.076 6e-3 0.032 0.013c0.029-0.013 0.9-0.421 1.018-0.474-0.122-0.026-0.989-0.2-1.08-0.219l-0.057 0.054-0.123-0.058 0.06-0.123 0.123 0.057 5e-3 0.017c0.107 0.014 1.099 0.166 1.169 0.176l-0.462-1.17-0.089-0.052 0.059-0.116 0.113 0.055-0.031 0.097c0.016 0.036 0.459 0.979 0.503 1.082 0.036-0.107 0.357-1.296 0.364-1.322l-0.031-0.045 0.053-0.111 0.109 0.057-0.049 0.111-0.031 4e-3 -0.309 1.376 1.098-0.433 0.07-0.094 0.122 0.059-0.061 0.127" fill="#ec008c"/>
  </g>
  <g transform="matrix(7.1531 0 0 -7.1531 -5.2068 -38.596)">
   <path d="m0 0-0.08-0.026-0.732 0.337 0.518 0.11 0.036-0.031 0.08 0.037-0.035 0.081-0.081-0.041-1e-3 -3e-3 -0.588-0.082 0.333 0.837 0.061 0.045-0.041 0.08-0.076-0.039 0.022-0.071-0.361-0.767-0.129 0.445 0.019 0.032-0.037 0.077-0.086-0.037 0.045-0.081 0.016-5e-3 0.105-0.496-0.803 0.318-0.021 0.055-0.039 0.026-0.085-0.046 0.048-0.085 0.053 4e-3 0.019 7e-3 0.735-0.337-0.774-0.16-0.041 0.041-0.097-0.045 0.048-0.089 0.09 0.042 4e-3 0.012 0.842 0.126-0.333-0.843-0.064-0.042 0.041-0.08 0.08 0.037-0.016 0.071 0.364 0.782 0.261-0.959-0.025-0.028 0.04-0.08 0.083 0.041-0.044 0.078h-0.02l-0.225 0.996 0.795-0.308 0.052-0.075 0.087 0.047z" fill="#ec008c"/>
  </g>
 </g>
</svg>
