<svg width="800" height="268.3" version="1.1" viewBox="0 0 211.67 70.988" xmlns="http://www.w3.org/2000/svg">
 <g transform="translate(126.78 100.91)">
  <g transform="matrix(4.8974 0 0 -4.8974 28.064 -38.419)">
   <path d="m0 0 0.059 0.067-0.054 0.113-5e-3 -3e-3v0.903l5e-3 0.037-5e-3 -0.012v0.663c0.137 0.037 0.195 0.133 0.361 0.166l0.022 0.043v-0.172l-0.104-0.152 0.104 0.13v-0.11l-9e-3 -0.03 9e-3 0.017v-0.06l-9e-3 -0.15 9e-3 1e-3v-1.05c-0.072-0.116-0.104-0.281-0.16-0.41 0.086 0.088 0.12 0.228 0.16 0.365v-1.035c0-0.135 0.108-0.24 0.242-0.24 0.133 0 0.24 0.105 0.24 0.24v0.261l0.02 0.146-0.02-0.035v1.08l8e-3 6e-3 -8e-3 -6e-3v0.677c0.034 0.098 0.066 0.203 0.107 0.288l0.074-9e-3c0.026 0.043 0.046 0.093 0.138 0.076l0.047-0.301 0.105 0.033-0.053-0.259c0.078 0.066 0.095 0.187 0.127 0.302l-0.062-0.027 0.013 0.09c0.165-0.106 0.188 0.148 0.073 0.199l0.138 0.027c0.057-0.151-0.15-0.322-0.078-0.534 0.144-2e-3 0.11 0.169 0.188 0.218l-0.011-0.175 0.065-0.137 0.172 0.16c0.057 0.119-0.019 0.272 0.025 0.366l-0.112 0.061-0.04 0.016c0.102 0.122 0.258 0.071 0.293-0.03l0.02 0.03 0.104 0.057c0.093 0.01 0.023 0.076 0.113 0.094l7e-3 -0.112 0.09 0.112 0.048-0.126 0.076-0.027 0.074-0.051c-0.036-0.126 0.034-0.271 0.067-0.438 0.016-0.101-0.019-0.273 0.097-0.263 0.014 0.112-0.073 0.12-0.061 0.222 0.092-0.024 0.172-0.178 0.277-0.121 0.023-0.31 0.037-0.556-0.08-0.779l0.049-0.232 0.037-0.027-6e-3 -0.252c-0.053-0.383 0.119 0.147 0.047-0.198-0.024-0.107 0.048-0.208 0.048-0.302 0-0.174-0.058-0.432 0.064-0.556l0.226-0.102c0.092 6e-3 0.106 0.092 0.163 0.16 0 0.233-0.085 0.459-0.113 0.714-0.05 0.404-0.069-0.233-0.087 0.223v0.227c0.013 0.102 0.078 0.178 0.087 0.287 0.015 0.187-0.05 0.405-0.039 0.629 7e-3 0.104 7e-3 0.22 0.011 0.329 0.015 0.15 0.07 0.28 0.089 0.377 0.016 0.094-0.015 0.199 0.112 0.186l0.103-0.108 0.086-0.029-0.063-0.146-0.023 0.083c-0.109 0.012-0.105-0.094-0.163-0.138 0.021-0.107 0.116-0.143 0.11-0.279 0.055-0.056 0.161-0.055 0.139-0.178l0.127-0.04c0.084 0.129-0.133 0.179-0.064 0.326l-0.1 0.138 0.037 0.016 0.127-0.055c0.041-0.081 0.154-0.099 0.186-0.202l0.127 0.015 0.01 0.025c-0.049 0.136-0.213 0.159-0.239 0.324l-0.125 0.048-0.012 0.213 0.024 0.027c0.142-4e-3 0.271-0.177 0.402-0.073l0.121-0.028v0.04l0.078 0.01 0.201-0.033c-0.07 0.159 0.088 0.18 0.063 0.302l0.174 0.01 0.136-0.26-0.062 0.277h1.307l0.092-0.017-0.018 0.017h0.033l0.015 0.034c0.115 0.026 0.301 0.063 0.386-0.034h0.657l-0.134 0.034-0.017 0.049-0.733 0.014 6e-3 9e-3 0.105-0.023-0.012-0.058-0.099-0.025h2.164l-0.012 0.044 0.179-0.01 3e-3 -0.029-0.014-5e-3h2.677v5e-3l0.023 0.011c-0.646 0.076-1.159 0.193-1.565 0.327l-0.029-0.018-6e-3 0.029c-0.373 0.123-0.649 0.254-0.864 0.384l-2e-3 -0.043-0.124 0.085-6e-3 0.038-0.099 0.069-0.018-0.107h-0.036l-7e-3 0.048c-0.09 0.049-0.135 0.059-0.176 0.155-0.113 0-0.276 0.026-0.332-0.093-0.134-0.013-0.199 0.023-0.201 0.154l0.213 0.029 0.06 0.086v0.087l0.054 0.026-0.052 9e-3 0.029 0.072 0.064-0.012 0.03-0.109 0.037 2e-3c0 0.169-0.03 1.005-2e-3 2.007l-0.028-2e-3 0.017 0.094h0.013v0.085c0.098 0.013 0.189 0.021 0.233 0.085l-0.233-0.047c0.014 0.431 0.037 0.896 0.075 1.34 0.081 0.995 0.895 1.331 1.55 1.442l-0.013 0.033-0.041 5e-3v3e-3l-1.504 0.015 8e-3 -0.041 0.013 0.023 0.115-7e-3c-0.033-0.163-0.22-0.2-0.351-0.207l-0.028 0.105-0.316-0.065-0.164-0.018-0.014-0.024-0.025 0.146-7e-3 -0.185-5e-3 -0.015 0.033-0.036-0.021-0.06 0.11-4e-3 -0.053-0.083 0.076-0.081-0.103-0.119-0.063 0.155-0.022-3e-3c0.048-0.149-0.013-0.125-0.107-0.2l-0.07 0.01 0.011 0.083-0.072 0.038v0.033l0.138-9e-3 -0.013 0.093 0.027 8e-3 -0.017 0.021-0.063-0.021c-5e-3 0.056 0.026 0.096 0.043 0.19h-0.041l-2e-3 -0.031-0.07-0.02c-0.025-0.112-0.025-0.112-0.053-0.157l-0.092 0.012 2e-3 0.067-0.177-4e-3 -0.027-0.065-0.04-0.012c0.014 0.099-0.013 0.131-0.064 0.216l-0.024-4e-3 -6e-3 -0.044-0.037 5e-3c-0.074 0.143-0.177 0.149-0.328 0.149l-0.035 0.089c0.095 0 0.176-0.036 0.235 0.057l-0.012 0.016 0.074 0.011-4e-3 -0.022-0.119 0.022-0.449 4e-3v-9e-3l-7e-3 9e-3 -0.564 2e-3 -0.015-0.011v0.011l-2.715 0.016c-0.213 0.025-0.345 4e-3 -0.564 0.113-0.27 0.162-0.467 0.322-0.467 0.322-1.388 1.162 0.703 1.703 0.703 1.703h-0.989l0.028 0.094-0.104 0.033 0.061 0.105 0.146-0.146 0.393 0.772v2e-3l-0.039-7e-3v0.033l0.041 2e-3 -0.457-0.906 0.027 0.012 0.112 0.218-6e-3 0.018 0.021 0.011 0.048 0.102-0.167 0.077v0.028l0.049 0.086-0.032 0.024v0.039l0.032 0.018-0.066 0.032-0.192-0.034 0.01 0.106c0.095-0.053 0.138-0.042 0.214-0.041v0.02l0.046 0.024 0.025-0.016 0.018-0.068h-0.026l0.041-0.071h0.072v-0.03l-0.072-0.014 0.068-0.029-0.031-0.061 0.02-0.075 0.175 0.335v0.038h0.016l0.316 0.608-0.029 0.025v-4e-3l-0.105 0.093 0.013 0.018 0.017 2e-3 -9e-3 0.078-0.069 0.061 0.048 0.086-0.139 0.197 0.047 0.059-0.156 0.109-0.016-0.119-0.042 0.018-0.061-0.038 5e-3 -5e-3 0.019-4e-3 -0.011-4e-3 0.048-0.164-0.067 0.065 0.021 0.025-0.125 0.099-6e-3 0.061-0.051-5e-3 -0.023 0.03-0.035-0.117-0.037 0.039 0.039 0.083 0.02 8e-3 -0.116 0.054-6e-3 -0.082 0.03-0.022-0.028-0.059-0.037 0.026 0.011 0.033-0.035 0.04-0.028-0.052-0.048 0.026c0.02 0.042 0.024 0.047 0.115 0.135h-0.078l-7e-3 -7e-3v7e-3h-0.067l6e-3 -0.093-0.027-3e-3 -0.039 0.037-0.064-0.066-0.02 0.023 0.032 0.024-0.044 0.022 5e-3 -0.022h-0.03l-0.01-0.031-0.098 0.031 0.014 0.065-0.262-0.509v-8e-3l-0.072-0.133 0.017-0.01-0.023-3e-3 -0.072-0.145v-0.041h-0.025l-0.19-0.371h9e-3l2e-3 -0.027h0.056l-0.058-0.17-0.054 2e-3 -0.011-0.029h-0.034l-4e-3 0.04-0.244-0.476 0.11-0.044-0.09-0.026c-0.014-0.124 0.08-0.104 0.127-0.031h0.049c0.046-0.096 0.526 0.789 0.588 0.693l0.041-0.014-0.012-0.057c-0.147 0.032-0.165 0.053-0.202 0.044v0.047l0.055 0.017-0.478-0.912-0.104-4e-3 -0.021-0.025h0.012l0.478 0.934h-0.049l-0.478-0.934h0.037l-0.112 0.222-0.056-0.116 0.035-0.01v-0.073l-0.068-0.013 0.511 0.71-9e-3 -0.199h-0.048l-0.029 0.073-0.128 0.053-0.096-0.181 0.024 2e-3 0.046-0.141-0.042-0.01 0.03-0.205-0.041-6e-3 -0.017-0.032-0.02-3e-3h-1.659l0.044 0.044v0.072l0.024 0.011 0.025-0.017 0.02 0.041-0.034 0.074-0.058 7e-3v-0.028h-0.032v0.028h-0.011l7e-3 0.17 0.054 0.018-0.113 0.119v-0.068l0.044-0.029v-0.043h-0.125l-0.014 0.075-0.016-0.032 3e-3 -0.022-0.036-0.073-0.052-4e-3 -0.02 0.034-0.035-5e-3 0.019-0.02-7e-3 -0.111-0.082 0.039v-0.027l-0.106-0.01-0.022-0.031 0.032-0.072h-0.129l-0.023-0.12 0.019-0.02h-0.116l-0.056 0.14-0.074-0.14h-0.546l0.048 0.06-0.049 0.099 0.131 0.048 0.012 0.034c-0.138-0.044-0.119 0.02-0.182 0.113l5e-3 0.066 0.083-9e-3 0.039 0.071h0.032l-0.014-0.135 0.097 7e-3 0.01 0.026v0.029l0.015-4e-3 0.046 0.086-0.075 0.043-0.025-2e-3c8e-3 0.113 0.013 0.22 0.029 0.331v2e-3l0.033 0.22 0.057-0.027 0.022-0.188 0.111 0.049-4e-3 0.026-0.048 0.01 7e-3 0.034c0.115 0.055 0.148 0.139 0.156 0.24l-0.017 0.027-0.01-0.041-0.067 0.014-0.017-0.014 0.031-0.038c-0.042-7e-3 -0.042-7e-3 -0.142 0.012-0.043-0.028-0.043-0.028-0.147-0.038v0.046c0.092 0.01 0.143 0.03 0.212 0.051l-0.065 0.024v0.024l0.098-7e-3 0.03 0.061 0.026-0.011v-0.059l0.045-0.016-4e-3 8e-3 0.01 0.018 0.017 6e-3v0.013l-8e-3 0.06-0.046 0.049h-0.033v-0.032h-0.044l0.063 0.085 8e-3 -3e-3 0.033 0.052-0.147 0.196 0.052 0.063-0.059 0.04-0.063-0.121 2e-3 -0.06-0.014 0.042-0.248-0.491 0.069-0.028v-0.033h-0.102l-0.017-0.037 7e-3 -0.026 0.124-5e-3 -0.03-0.124 0.08-0.035v-0.036l-0.07 0.036-0.094-0.041v-0.103l5e-3 -0.067h0.041l0.035 0.1 0.021-0.019-0.014-0.13 0.062-0.046-0.221-0.02-0.013-0.036-0.132 0.01 9e-3 0.064-0.029-7e-3 -0.019 0.025-0.137-0.269 7e-3 -0.076-0.043 0.01 0.286 0.592h0.032l6e-3 -0.069-0.073-4e-3 -0.03-0.063-0.013-0.059-0.02-7e-3 -0.089-0.163 0.048-0.012-9e-3 3e-3 0.05 0.018v-0.033l-0.022 4e-3 -0.026-0.027-0.045 0.013v0.022l-0.263-0.511h-1.197l0.08 0.151-0.054 0.013 0.069 0.019 0.107 0.179-0.07-0.038 0.021 0.053 0.049-0.015 0.074 0.137-0.161 0.024 0.19 0.039 0.38 0.737-7e-3 0.119-0.09-0.01-0.056 0.075-0.031-6e-3 -0.041-0.094-0.057 0.042 0.074 0.17-0.015-7e-3v0.036h0.015l-8e-3 0.066-0.027 0.021 0.018 0.056-5e-3 0.015-0.056-0.111-0.104 9e-3 -0.012-0.013-0.031 0.011 4e-3 -0.034h-0.01l-0.021-0.094 0.07-0.092 0.014-0.202 0.123 0.016-0.022-0.019v-0.102l0.035-0.015v-0.042l-0.035-0.013-0.02-0.147-0.101 0.014 0.041 0.022 0.01 0.06-0.078 0.055-0.01 0.066 0.066 6e-3v0.027h-6e-3l-3e-3 -0.023-0.039 0.016 6e-3 4e-3 -0.039-1e-3v0.049l0.035 3e-3 6e-3 0.011-0.146 0.255-0.073 0.069 0.054 0.077-0.096 0.146 9e-3 -0.051-0.096-0.014-0.027-0.113-0.094-0.01-0.017 0.059 0.078 0.093 0.076 0.014v0.047l0.058-9e-3 -0.029 0.037 0.046 0.062-0.161 0.112-8e-3 -0.125-0.045 0.013-0.065-0.032 0.067-0.177-0.071 0.068 0.021 0.026-0.044 0.037-0.096-0.189 0.084-0.014 6e-3 -0.036-0.105 0.014-0.055-0.104-0.039-0.079v-1e-3l-0.318-0.622 0.027 0.01 6e-3 -0.06 0.15 0.025v-0.062l-0.104-0.032-0.021 0.016v-0.025l-0.021-0.019 2e-3 -0.058 0.064-0.016 0.167-0.041-0.196 0.07 0.035 0.06h0.033l0.011-0.03 0.097 7e-3 0.059 0.057 0.015-0.094h-6e-3v-0.046l-0.031 4e-3 -2e-3 -0.025h9e-3l0.09-0.138-0.05 0.012-0.033 0.052-0.13-0.043-3e-3 -0.03 0.132-0.043 0.03-0.072 0.082-6e-3 -0.055-0.069 4e-3 -0.084-0.037 0.011 6e-3 0.065-0.092 0.046 0.012 0.035-0.043 0.026-0.039-0.036-6e-3 6e-3c-0.083-0.069-0.186-0.11-0.28-0.072l-7e-3 0.056 0.018-0.023 0.087 2e-3 0.021 0.029v8e-3l-0.203 0.025 0.097 0.028 0.041 0.055v0.043l-0.189-0.11-0.077-0.139 0.107 7e-3c-6e-3 -0.092-0.078-0.104-0.154-0.111l-6e-3 -7e-3 0.011-2e-3 0.011-0.038-0.044-5e-3 0.3 0.619 0.146-0.013 0.058 0.173 0.128 0.059-0.464-0.899 0.616 0.773-0.074 0.057-0.102 0.01-4e-3 -0.101-0.042-7e-3c-0.039-0.111-0.029-0.244-0.058-0.362l-0.012 0.043-0.086 0.019 0.038 0.052-0.066 4e-3 -0.016-0.056-0.112-0.043 0.017 0.024-0.043-0.018v0.062l0.05-0.016-0.011 0.167-0.269-0.527 9e-3 -0.035h-1.408l0.015 0.02-0.084 7e-3 0.088 0.124 0.06 8e-3 0.057 0.094-0.112 0.016v0.04l0.054 5e-3c0.044 0.091 0.06 0.134 0.153 0.175 4e-3 0.108 0.033 0.273-0.081 0.33-0.01 0.138-0.458-0.765-0.323-0.765l-0.091 0.124 0.013 0.063 0.08-9e-3 0.041 0.072h0.031l-0.012-0.137 0.096 0.011 0.01-0.034 0.014 0.023-0.011 0.063 0.122-0.033 0.026 0.054-8e-3 0.043c-0.117 0.028-0.117 0.028-0.155 0.055v3e-3l-0.025-3e-3c3e-3 0.116 0.012 0.226 0.027 0.335l0.034 0.217 0.053-0.025 0.027-0.19 0.107 0.057-4e-3 0.019-0.05 0.015 0.015 0.038c0.139 0.064 0.148 0.166 0.148 0.316l0.093 0.03c0-0.09-0.039-0.172 0.058-0.229l0.043 0.016 0.044 0.092h-5e-3l0.011 0.041 6e-3 -0.016 0.202 0.393-0.021 0.033 0.077 0.078 0.016 0.026h-0.056l-0.067 0.177 0.049 0.031-0.014 0.072-0.037 9e-3 -4e-3 -9e-3 -0.014 0.011-2e-3 6e-3v3e-3l-0.015 8e-3 -0.041-0.035-0.051 0.037-0.01-0.013-0.029-0.06-0.057 5e-3 0.028 0.16-0.028-0.019v-0.094l-0.068 0.068 0.02 0.026-0.12 0.097-0.022-0.017-6e-3 -0.045-0.064-0.021-8e-3 -0.014 0.012-0.034 0.021-8e-3 8e-3 -0.033-0.027-2e-3v-6e-3l0.018-0.011h9e-3l-8e-3 -3e-3 0.016-0.013-0.025-0.036 0.017-0.029-0.029-0.024-0.126-0.025-0.03-0.053 0.061-0.021-0.062-0.09-0.036 0.034-0.189-0.368v-0.053h-0.028l-0.107-0.203h0.015v0.025c0.039 0 0.039 0 0.151-0.044v-0.029h-0.103l-0.02 0.032-0.017-0.018 0.029-0.078 0.121-4e-3 -0.028-0.124 0.08-0.041-8e-3 -0.035-0.062 0.035-0.095-0.038-0.018-0.123-0.019-0.131-0.052 3e-3 -0.017 0.061-0.031 4e-3 -0.028 0.096c0.061 0.086 0.078 0.133 0.102 0.239l-0.061 0.013 5e-3 0.045-0.202-0.389 0.01-0.038-0.035-0.011 0.177 0.369v-0.025l-0.015-7e-3 -0.131-0.253 0.021-0.086 0.012 0.031 0.082 0.01v-0.028h7e-3l-7e-3 -0.039-0.037 0.011v0.028l-0.057-0.016 2e-3 -0.015-0.054-0.019 0.097-0.062-0.021-0.016 7e-3 -7e-3 -0.019-0.03-0.017 3e-3 -0.01-0.011-0.053 8e-3 -0.045 0.066-0.184-0.362h-1.545l-0.011 8e-3 0.074 0.098 0.113-0.039 0.082 0.158-0.011 0.01 0.011 0.026 0.014-8e-3 0.031 0.057h-0.09v0.062l0.096-0.02v-0.028l0.207 0.4-0.05 0.038-0.11-5e-3c0.025 0.088 0.073 0.083 0.168 0.096l-0.465-0.909 0.537 0.94-0.238-0.487-3e-3 -2e-3v0.025h0.02l0.018 0.041v0.03l-0.072-9e-3 0.034 0.167-0.108 0.035 0.056 0.106c0.1-0.028 0.145-0.104 0.163-0.186l0.623 1.211-0.02-3e-3 -0.017-0.014-0.033 0.028-0.037-0.036-0.048 0.036-0.018-0.023h2e-3l-0.025-0.059 0.054-0.014v-0.073l-0.13-0.013-0.076-0.153-0.135 0.029-0.01-0.049-0.041 6e-3 -0.022 0.043 0.073 0.021-0.102 0.097 8e-3 0.07-0.101-0.084 0.074-0.026-0.06-0.089-0.055 0.05-0.098-0.011-0.023-0.113-0.094-0.017-0.02 0.065 0.073 0.094 0.078 0.011v0.05l0.07-0.014 2e-3 -0.029 0.017 0.038-0.066 0.092-0.047-0.083 6e-3 0.038-0.069 0.046-0.108-0.131 0.046-0.028-0.054-0.047c0.027-0.101 0.175-0.156 0.144-0.25h4e-3v-0.038l-0.055 0.016 0.035 0.016-0.238 0.171 0.016 0.023-0.09 0.04 0.017 0.2 0.045 0.069-0.045 0.041 0.031 0.043 0.037-0.025 0.016 0.022 0.11-0.081-0.037-0.051 0.043-0.01 0.023 0.02-0.021 0.021 0.021 0.101-0.07 0.047 0.033 0.069-0.043-0.02 6e-3 0.039-0.05 0.024-0.015-0.029-0.064 0.039v-4e-3l-0.025 0.012-9e-3 7e-3 0.016-0.035-0.014-0.019h0.126l-0.028-0.086-0.1 0.023v0.058l-0.05-0.283-0.035-0.073 0.045-0.043-0.055-0.05 0.035-0.033-0.031-0.023-0.037 0.012-0.027-0.024-0.069 0.015 0.028-0.036-0.018-0.096 0.071-0.096 0.011-0.288-0.041 6e-3 0.018 0.028-0.027 0.019 0.017 0.022-0.147 0.252-0.068 0.072 0.05 0.081-0.144 0.196 0.053 0.063-0.088 0.06-0.021-0.024-0.053 0.049-9e-3 -0.099-0.048 0.016-0.056-0.035 0.06-0.178-0.065 0.068 0.016 0.023-0.119 0.099-5e-3 0.057-0.055-4e-3c0.043-0.093 0.185-0.152 0.132-0.249l-0.248 0.176 0.017 0.031-0.042 0.01-0.016-0.031-0.037 0.027 0.014 0.029-8e-3 6e-3 2e-3 1e-3 -0.031 0.038-0.024-0.058-9e-3 2e-3 -0.026-0.018-0.023 8e-3 -0.074-0.094 0.126 3e-3 0.016 0.035 0.064-4e-3 0.014-0.14-0.224 0.076v0.021l-0.013-0.011-4e-3 6e-3 -0.011-0.031 0.055-0.063 0.018-5e-3 -4e-3 -0.011 7e-3 -9e-3c-7e-3 -0.097 0.03-0.207 0.013-0.299l-0.041 0.012 0.017 0.025-0.028 0.02 0.022 0.027-0.026 0.024-0.018-0.037-0.052 0.034 0.028 0.054-0.083 0.178-0.035 0.032h-0.017l-0.018 0.033 8e-3 0.024 0.01 4e-3 0.037 0.051-0.02 0.02-0.01-0.061-0.052 0.021-0.025-0.043-0.026 0.017 0.088 0.094-0.097 0.151 0.027 0.034-0.078-0.074-0.028 0.02 0.055 0.054-0.043 0.106-0.044 0.033-9e-3 -0.122-0.047 0.016-0.059-0.033v-5e-3l0.059-0.175-0.066 0.062 0.021 0.027-0.066 0.057-0.017-1e-3 -0.022 0.017 0.01 7e-3 -0.031 0.02-3e-3 0.059-0.052-2e-3 -0.155 0.094-6e-3 -0.082 0.031-0.02-0.027-0.058-0.039 0.029 0.01 0.029-0.033 0.039-0.029-0.057-0.047 0.028c0.022 0.045 0.022 0.045 0.164 0.18h-0.213l0.021-0.139-0.03-3e-3 -0.04 0.04-0.063-0.059-0.017 0.013 0.031 0.031-0.078 0.035-0.037-0.035-0.035 0.029 0.012 0.017h-4e-3v0.051h0.037l0.011 0.02h-0.077l-0.077-0.078 0.014-0.031c0.175-0.052 0.286-0.099 0.42-0.235l-0.041-0.065-0.137-0.019-0.074-0.094-0.039 0.012 0.037 0.041-0.031 0.119-0.063 0.042v0.025l0.024 9e-3 -0.018 0.039-0.08 6e-3 -0.064-0.079-0.061 0.022-0.129-0.25 0.037-0.024-0.078-0.054-0.494-0.953 0.029-0.028-0.022-7e-3 -0.019 7e-3 -0.134-0.26 4e-3 -0.036-0.028-8e-3 0.17 0.356h0.079l0.134 0.209-8e-3 0.038 0.027 0.01 0.029-0.025c-0.034-0.09-0.071-0.182-0.108-0.274l0.093-0.022-0.012-0.024 0.034-0.032-0.078-0.137-0.03 0.013-0.011-0.025-0.155 0.108-0.026-0.021-0.029 0.013 0.02-0.027-0.078-0.073-0.016 2e-3 -0.072-0.13 0.047-0.027-0.016-0.036-0.035 7e-3 -0.014 0.013-0.035-0.065 3e-3 -2e-3 -0.024-0.037-0.022-0.047h-5.78l-0.011 0.025v0.207l0.122 9e-3 0.037 0.032 0.247 0.021 0.08 0.042c-0.117 7e-3 -0.197-0.032-0.283-0.022-0.116 0.012-0.146 0.168-0.269 0.144l-0.041 0.226c0.093 0.062 0.305-0.046 0.408 0.043l0.013 0.143 0.04-0.022-0.092 0.058c-0.086-0.041-0.197-0.063-0.309-0.076v0.102c0.151 0.086 0.348 0.126 0.487 0.228-0.171-0.059-0.318-0.135-0.487-0.188l-0.111-0.013v0.066l-0.106 0.017-0.048 0.101 0.089 0.086-0.083-0.04-0.056 0.051 0.134 0.129c-0.093 0.099-0.123-0.116-0.2-0.14l-0.056 0.06 0.05 0.116-0.105-0.074-0.101 0.063-0.034-0.03c-9e-3 0.109 0.088 0.116 0.086 0.224-0.125-0.014-0.1-0.175-0.197-0.219l-0.045 0.066h-0.057l0.03 0.207-0.041 0.019-0.11-0.193-0.072 0.101-0.035 8e-3 -0.024-0.036-0.068 0.076 0.068 0.198-0.121-0.085c-0.019 0.121 0.193 0.156 0.156 0.292-0.122-0.039-0.126-0.19-0.247-0.24l0.019-0.158-0.028-0.036-0.019 0.029-0.045-0.048-0.048 0.121 0.121 0.153-0.17-0.182 0.039 0.019-0.032-0.111c-0.221-0.018-0.209 0.111-0.258 0.283l-0.03-0.127c0.056-0.062 0.083-0.174 0.064-0.286-0.14 0.014-0.277 0.145-0.389 0.119l0.02 0.156-0.088 0.016c0.018-0.106-0.014-0.179-0.058-0.274h0.03l-0.185-0.104-0.072 0.066-0.116 0.017-0.028-0.03-0.02 0.093-0.022-0.03-0.06 0.18-0.094-0.107-0.07 0.036v0.121h-0.041l-0.062-0.11c-5e-3 -0.153 0.21-0.086 0.214-0.224l-0.059-0.092c-0.105 0.051-0.146 0.23-0.25 0.252l-0.027-0.172 0.131-0.072-0.164-0.04-0.041 0.154 0.074 0.031c-0.09 0.116-0.223 0.187-0.299 0.319-0.092-0.046-0.012-0.219 0.041-0.246l-0.061-0.015 8e-3 -0.119 0.073 0.03 0.03-0.146-0.12 0.051-0.026-0.07 0.043-0.098 0.053 0.076-0.014-0.101-0.122-0.021-0.061 0.195v-0.103l-0.204 0.132c0.022-0.08 0.18-0.12 0.204-0.236l-0.022-0.015-0.078 0.131c-0.063 0-0.249 0.142-0.23-0.029l-0.041-0.054 0.061-0.041-9e-3 -0.106-0.156 0.083 0.145-0.123h-0.047l-0.031-0.081h-0.067l-0.061 0.151-0.048-0.083-0.133 0.066 0.061-0.084c-0.043-0.028-0.098-0.04-0.198-0.028l0.043-0.103-0.07-0.024-0.067-0.056 0.012-0.064-0.088-0.045 0.057-0.089h0.074l0.033-0.093 0.049-9e-3 0.035-0.12-0.248-0.047c-0.152 0-0.306-6e-3 -0.461-0.016l-0.027 0.029-0.1-0.029-0.033 0.059c-0.101 0.022-0.121 0-0.225-0.012-0.017-0.101 0.096-9e-3 0.096-0.09l-0.113-0.022c-0.107 2e-3 -0.315-0.045-0.406 0.011l-0.184-0.03-4e-3 6e-3 -0.022 0.074 0.233 0.02h-0.254l-0.234 0.051c-0.11-0.102-0.27-0.059-0.417-0.057l0.344-0.045c0.082-0.073 0.18-0.073 0.274-0.092l-0.027-0.023-0.146-0.017c-0.184 0.027-0.343 8e-3 -0.51-0.027h-2.262l0.024 8e-3 0.147 0.078 0.189 0.106-0.399-0.192h-0.941l-0.2 0.138-0.115 0.079 0.16-0.163 0.131-0.054h-1.022c-0.102 0.013 0.768 0.02 0.748 5e-3h-0.015l-0.039-5e-3 -0.035 0.047-0.813 0.143c-0.054-0.091 0.798-0.143 0.703-0.19h-0.345l-4e-3 0.106 2e-3 -0.081-0.016-0.025h-0.86c-0.111 0.015-0.23 0.022-0.325 8e-3 -0.165 0.046 0.053 0.023 0.056-0.069l-0.046-0.03h-0.013l-0.039 2e-3 -5e-3 -0.013-0.027-0.026-0.235 0.02c-0.015-0.013 0.779-0.043 0.588-0.049l-0.071 0.043 0.041 0.053-0.078-0.036-0.059 8e-3 0.032-8e-3 -0.123-0.027v-5e-3l-0.206 0.042 0.542 0.077-0.07-0.017-6e-3 -9e-3 -0.119 9e-3c-0.178 0.032-0.336-0.019-0.506 0l0.135-0.09 0.035-0.017-0.044-8e-3 -0.149 8e-3 0.147-0.015-0.033-0.026-0.086-0.046h-0.048l-8e-3 -0.053c-0.083-0.085-0.083-0.205-0.118-0.356l0.011-0.047 9e-3 -0.019-9e-3 -0.037 0.017 3e-3 0.118-0.177c0.023-0.111-0.018-0.111 0.069-0.068l0.252-0.03 0.087-0.069-0.055-0.017-0.188-0.025c-0.087-0.107 0.255-0.074 0.238-0.155-0.1 0-0.083 0.068 9e-3 0.015l0.182 0.033 5e-3 -2e-3c0-0.13 0.169-0.205 0.275-0.148 0.117 0.1-0.692 0.057-0.544 0.055l0.615 0.042c-0.078 0.073-0.177 0.073-0.271 0.091l0.027 0.031 0.147 0.013c0.245-0.027-0.527 1e-3 -0.291 0.067 0.113 0.018 0.226 0.028 0.339 0.041 0.051-0.062 0.179-0.089 0.296-0.062l0.807-1.655s-0.607-0.034-0.088-0.18v0.402h0.951v0.949h1.161v-0.949h0.954v-1.163h-0.954v-0.276c0.703-0.552 1.328-1.359 1.594-2.521 0.342-1.498-0.498-2.453-1.542-3.058l-4e-3 -0.016-0.026-2e-3 -0.095-0.052c0.134-6e-3 -5e-3 -0.182-0.02-0.226 0.099-5e-3 0.115 0.018 0.148-0.084l0.082-0.159-0.076-0.024 0.012-0.06-0.086-0.045v0.073l-0.221-0.037c-2e-3 0.187-0.182 0.1-0.221 0.234l-0.12 0.031-4e-3 0.055c-0.31-0.135-0.618-0.251-0.906-0.33l0.037-6e-3 -0.014-0.067 0.163-0.037c0.083-0.065 0.243-0.032 0.338-0.032l-0.072-0.112-2e-3 -0.064h0.282c9e-3 0.041 0.011 0.085 0.022 0.183l0.048-7e-3c0.024-0.091 0.026-0.11 0.026-0.176h0.078l-2e-3 0.019 0.039 0.014 8e-3 -0.033h1.233l0.012 2e-3 -6e-3 0.041-0.05 0.01-0.013 0.072-0.095-9e-3 -1e-3 0.118-0.036 0.011-0.013-0.027-0.139 4e-3 -0.013 0.067 0.15 0.066-0.139-2e-3 2e-3 -0.034-0.174 0.088-2e-3 0.031 0.095-0.012 0.014-0.029 0.035 0.016 0.01 0.062h0.048l0.024 0.071 0.083 0.01c0.055 0.108 0.097 0.106 0.214 0.142l0.054 0.122h0.029l-3e-3 0.082h0.033l-0.015 0.095 0.056 7e-3 0.013 0.075 0.082-6e-3v-0.072l0.031 3e-3 -3e-3 0.045 0.028-0.013 5e-3 -0.039 0.048-7e-3 2e-3 -0.063h0.029l2e-3 -0.048-0.142 5e-3 -0.015 0.04-0.063-0.014-0.024-0.133 0.046 5e-3v0.029l0.193-0.023-0.083-0.017 0.033-0.203c0.091-0.022 0.091-0.022 0.126-0.05l-0.057-0.075-0.03 0.056c-0.098 0.019-0.024-0.198-0.015-0.227l0.045 0.04 0.076 6e-3c0.055 0.136-0.054 0.228 0.1 0.335v0.045h0.042l0.015 0.029 0.034-8e-3 0.157-0.094-0.018 0.083h0.109l-7e-3 -0.089-0.069-0.026-0.031-0.105 0.095 0.017-0.03-0.022v-0.087l0.172-5e-3 -2e-3 0.06 0.064-0.023c0.066 0.09 0.018 0.254 0.131 0.27 2e-3 -0.097 2e-3 -0.199 9e-3 -0.304h-0.035l0.024-0.096-0.173-0.11-0.076-5e-3 -7e-3 -0.064-0.048 6e-3 -4e-3 0.046h-0.033v0.14l0.061 1e-3 -0.012 0.032-0.034 9e-3v-0.031l-0.095-0.041 2e-3 -0.086-0.072-0.012-0.013 0.035-0.121-0.042 0.134-0.011 0.018-0.075h0.026l0.019-0.09h0.016v0.017c0.075 9e-3 0.268 0.029 0.287 0.126l0.078 0.016 0.014 0.063 0.062-0.016 0.014 0.049 0.035-7e-3 0.011-0.04 0.039-8e-3 0.028-0.062 9e-3 0.045 0.095 0.039 0.025 0.115 0.23 0.186 0.014-0.037h-0.029v-0.032l-0.032-3e-3 -0.112-0.268-0.011-0.098-0.097-3e-3 -0.017-0.082h0.217l0.033 2e-3v-2e-3h1.151l-2e-3 0.074 0.06 0.025-0.027-0.099h0.385v0.14h-0.028l-0.011-0.048-0.051-2e-3 0.024 0.123 0.099-0.025 0.046-0.106-0.035-0.013 2e-3 -0.069h1.382l-0.063 0.019v0.041l0.186-0.024-0.027-0.036h1.716c0.045 0.383 0.137 0.694 0.255 0.947l-0.011 0.043 0.028-5e-3c0.507 1.015 1.492 1.055 1.492 1.055h0.289l-0.039-0.076 0.093-0.075-7e-3 -0.031-0.069 0.064-0.03-0.025-0.02 3e-3 -0.13-0.145 0.106-0.07c0.035-0.095 0.187-0.152 0.269-0.203l-0.119-0.065-0.073-0.09 0.033 0.101c-0.105 0.095-0.183 5e-3 -0.289 0.044l-0.014-0.055 0.052-0.055-0.06-0.094-0.045 0.031-0.059-0.096 0.121-0.094 0.043 0.046-0.023-0.056 0.169-0.124 0.019 0.033 0.119-0.033-0.023-0.038-0.057 0.023-0.026-0.018 7e-3 -0.01-4e-3 -0.069 0.043-0.026 0.05 0.09c0.095-0.032 0.102-0.054 0.132-0.121h0.196l-0.044 0.144 0.042 0.04 0.062-0.073-0.027-0.044 0.049-0.018 0.357 0.685v7e-3l-0.085 0.085 0.076 0.107 0.044-0.015 0.024 0.039 0.05-0.011 0.054 0.011 0.033 0.032-0.024-0.02 0.104 0.206-0.113-0.013 0.018 0.072h1.48l-0.482-0.827 0.054-0.039 4e-3 0.011 0.025-0.012 0.034 0.085 0.054-0.025 0.051 0.059 0.07-0.044-0.037-0.065 0.024-0.015 0.018 0.04 0.025-0.023-0.017-0.035 0.035-0.039-0.032-0.049 0.025-0.013-0.025-0.045-0.113 0.083 7e-3 0.034-0.064 0.022-0.019-0.016 0.071-0.068v-0.049l0.055-0.057 0.06-0.033 0.046 0.033 0.156-0.116v0.053l0.074-0.027-8e-3 -0.057h0.064l-0.046 0.076 0.024 0.05-0.052 0.147 0.042 0.032 0.067-0.073-0.033-0.034 0.087-0.044 0.068 0.122 0.025-0.018-9e-3 -0.039 0.033-0.021 0.035 0.034 0.069-0.028 0.052 0.08 0.094-0.065 0.029 0.013-0.017 0.03 0.092 0.105 0.062-0.023-0.041-0.165 0.081 0.117-0.024 0.013 0.125 0.053v5e-3l-0.071 0.012 0.08 0.018 0.012-0.029 0.027 0.029 0.022-0.018-0.033-0.039 2e-3 -8e-3h-0.012l-0.021-0.023-0.027 6e-3 -0.013-0.031 0.04-0.041 0.012 0.05 0.099 0.012 0.12 0.231v0.013h5e-3l0.226 0.436-0.079-0.052-0.059-0.015c-0.126-0.022-0.198 8e-3 -0.324 0.015l0.086 0.026 0.39 0.073 0.054-0.01 0.054 0.1-0.023 0.053-0.144 0.032-0.019-0.061h-0.023l0.021 0.07-0.033 0.018h1.398l0.082-0.065-0.02-0.066 0.036-0.012 0.047 0.05 0.097-0.081-7e-3 -0.028-0.065 0.059-0.035-0.02-0.057 0.02-0.046-0.061-0.088 0.039-0.041-0.039-0.065 0.028-0.025-0.041-0.026 0.015-0.072-0.099-0.01-0.237 0.084-0.075 0.067-0.146-0.069-0.107 0.119-0.084 0.05 0.048-0.024-0.065 0.082-0.048 0.529 0.935-0.019 4e-3 0.047 0.067h9e-3l1e-3 9e-3h0.566l-0.125-0.245h0.021l-4e-3 -0.03h-0.041l-0.109-0.118h0.184l-0.014 0.024 0.021 0.023 6e-3 0.071 0.024-2e-3 5e-3 0.022h0.047v-0.036l0.026-7e-3 0.051 0.049-0.196 0.053 0.178 0.169-0.012 0.027h0.582l0.033-0.018-0.018-0.064 0.034-0.015 0.049 0.044 0.096-0.083-4e-3 -0.023-0.069 0.059-0.033-0.023-0.058 0.023-0.034-0.049 0.037-0.016h-0.07v0.01l-0.039 0.012v-0.031l-0.064 0.015h-0.01l-0.061 0.019-0.028-0.036v2e-3l0.089-0.137 0.256-0.014 0.028 0.024 0.023-0.015-0.014 0.059c-0.092-0.015-0.188-0.028-0.289-0.044l0.031-0.092h-0.031l-0.012-0.047-0.157-2e-3v0.029h-2e-3l-0.026-0.08 0.085-0.075 0.067-0.142-0.07-0.115 0.121-0.083 8e-3 0.041h0.05l0.023-0.086-3e-3 -4e-3 0.062-0.047 0.017-0.017 0.071-0.066v-0.071l0.112-0.064 0.027 0.012-0.058 0.033 0.013 0.021 0.045-0.013 8e-3 0.046 0.05-0.038-0.033-6e-3 0.069-0.062 0.021 0.026 0.025-0.017-0.01-0.014h0.142l9e-3 0.02-0.046 0.149 0.043 0.035 0.066-0.075-0.033-0.035 0.085-0.043 0.068 0.121 0.028-0.018-0.014-0.033 0.032-0.025 0.039 0.033 0.621 1.105h1.147v-1.207c0-0.131 0.112-0.24 0.245-0.24s0.243 0.109 0.243 0.24v1.207h0.451c0.252-0.511 0.711-0.807 1.265-0.969v-2.68c0-0.135 0.108-0.246 0.247-0.246 0.13 0 0.238 0.111 0.238 0.246v2.599l0.097-5e-3 0.231 0.012v-0.901c0-0.175 0.142-0.323 0.316-0.323 0.18 0 0.319 0.148 0.319 0.323v0.392l0.088 0.087-0.088-0.038v0.636c0.298 0.143 0.558 0.35 0.752 0.602 0.25-0.085 0.509-0.143 0.783-0.157l-8e-3 -0.136c0-0.54 0.434-0.973 0.969-0.973s0.973 0.433 0.973 0.973c0 0.212-0.068 0.32-0.19 0.478l0.122 0.08h1.14v-1.822l-0.059-0.133 0.059 0.069v-0.422l-0.078-0.11 0.078 0.064v-0.815c0-0.137 0.109-0.245 0.238-0.245 0.14 0 0.246 0.108 0.246 0.245" fill="#66402c" fill-rule="evenodd"/>
  </g>
  <g transform="matrix(4.8974 0 0 -4.8974 18.968 -92.854)">
   <path d="m0 0 0.023-0.01-0.02-0.094-0.052 0.012-0.01-0.025 0.061-0.064-0.022-0.022-0.029-0.17-0.053-6e-3 -0.029 0.067-0.043-0.018-0.01-0.032 0.01-0.163 0.513 0.852 0.015-1e-3 7e-3 -0.069-7e-3 6e-3 3e-3 -0.019 0.049-0.01 4e-3 0.038 0.07-0.02 9e-3 0.055h0.076v-0.075l-0.051-0.045 0.089-0.012v-0.027l0.063 0.029-0.014 0.128h0.06l0.048-0.077h0.063v-0.034l-0.087-7e-3 -0.125-0.082 0.047-0.119 0.089 0.014 0.026-0.122 0.05-0.033-0.037-0.054 4e-3 -0.018h0.017v0.024c0.037 2e-3 0.037 2e-3 0.148-0.043v-0.031l0.172 0.335-0.066-0.024 0.013 0.204-0.035 4e-3 0.029 0.053v0.016l0.013 5e-3 6e-3 0.028h0.046l0.01-0.018 0.115-0.015v5e-3l-0.426-0.8 0.039 0.02 0.059 0.114-0.045 0.02v0.031h0.07l0.197 0.372 1e-3 0.034c-0.096 0.035-0.103-0.107-0.223-0.107l-0.014-0.051 2e-3 -0.058-0.025-0.022-2e-3 -0.01 0.099 6e-3c-8e-3 -0.092-0.097-0.103-0.181-0.108l0.035-8e-3 0.012-0.041-0.094-3e-3 0.017 0.049h-0.013l-4e-3 -0.028c-0.091 7e-3 -0.122-0.011-0.213-5e-3l-0.019-0.094-0.024 0.081 0.037 0.027-0.064 0.13c0.086 0.062 0.051 0.169 0.062 0.267l-0.052 0.077-0.1-5e-3 2e-3 0.053-0.037 0.015-0.028 0.145 0.054 7e-3 -0.056 0.172v0.037z" fill="#66402c" fill-rule="evenodd"/>
  </g>
  <g transform="matrix(4.8974 0 0 -4.8974 21.311 -96.188)">
   <path d="m0 0 0.021-9e-3c0.02 0.036 0.02 0.036 0.053 0.138l0.05 0.01v0.03h-0.074l0.059 0.101 0.153-0.015-0.014-0.075-0.07-6e-3 -2e-3 -0.062 0.029-0.112-0.042-9e-3 0.029-0.206-0.038-3e-3 -0.021-0.033-0.094-0.018c7e-3 -0.095 0.025-0.129 0.074-0.214l0.12 0.226 0.025-7e-3 -0.01 0.013v0.029h0.033l4e-3 -0.074-0.023 0.027-0.024-0.068 0.109-0.014 0.028-0.025 0.016 0.012 0.011-0.034 0.028-0.01 7e-3 -0.108h0.012v-0.039h0.029l0.087 0.201-0.051 0.058-0.014-0.029-0.094 0.056h-0.041v0.044h0.019v0.014l0.03 2e-3v0.106l0.049-0.016 0.071 0.066 0.081-0.064 0.062-0.094 0.083 0.025 0.035-0.059v-0.08l-0.024-0.015 6e-3 -0.058 0.147 0.281h-0.01l0.016 0.041-0.142-0.054 0.062 0.104 0.095-0.018v-4e-3h4e-3v-0.01l0.014 0.026v0.032h0.017l0.369 0.705-0.064 0.067 0.018 0.031-0.125 0.091-4e-3 0.063-0.05-2e-3 -0.011 9e-3h-0.022v-0.19h-0.034l-0.016 0.035 0.037 0.155h-0.115v-5e-3l0.031-0.015-0.031-0.058-0.033 0.024-0.064 0.021-0.037 0.026v7e-3h-0.118l-8e-3 -0.013 0.082-0.043-0.027-0.051 0.025-0.028 2e-3 0.01 0.01-0.023 0.021-0.011-0.011-8e-3 -2e-3 -0.043-9e-3 0.028-0.015-0.015 0.061-0.164 0.028 6e-3 5e-3 0.04h0.061l-8e-3 -0.083-0.025 3e-3 -0.012-0.055c-0.151 0.03-0.168 0.042-0.203 0.041v0.044l0.056 0.015v0.053h-0.104l-0.019-0.024-0.085 0.092-0.014 0.01 3e-3 9e-3 -0.013 0.085-0.061-0.034 0.028 0.06-0.026 3e-3c-0.021-0.092-0.021-0.092-0.014-0.123l0.047-0.01v-0.073l-0.07-0.013 0.037-0.152h0.037c9e-3 -0.093 0-0.158-0.025-0.249 0-0.122 0.057-0.178-0.068-0.221l-0.063-0.144c0.013 0.108 0.033 0.224 0.05 0.333l-0.025 0.05-0.14 0.085h-0.074l5e-3 0.03h-7e-3l0.033 0.061v-9e-3l0.013 4e-3 -0.054 0.064-0.2-0.382 0.036-9e-3 0.031-0.11" fill="#66402c" fill-rule="evenodd"/>
  </g>
  <g transform="matrix(4.8974 0 0 -4.8974 -75.695 -53.976)">
   <path d="m0 0c-3e-3 0.18-0.095 0.354-0.223 0.477l-0.146-6e-3c-0.138-0.133-0.321-0.183-0.483-0.269l-0.206 0.102-0.043-0.064-0.294-0.011-0.045-0.136-0.25 0.195c-0.151-0.044-0.279-0.17-0.334-0.316l0.059-0.043-0.091-0.286-0.105 0.036 0.033 0.25-0.249 0.088 0.2 0.185 0.092 0.457-0.107 0.143-0.838 0.033 0.139 0.254 0.06-0.068 0.102 0.108 0.076-0.036 4e-3 -0.101 0.488-0.044c0 0.439 0.161 0.876 0.146 1.317l-0.08 0.251 0.052 0.067c0.067 0.695 0.021 1.397 0.122 2.096h0.067c-0.024 0.284-4e-3 0.988 0.151 1.221l-0.044 0.144-0.069 0.042 0.067 0.067-2e-3 0.103-0.318 0.233-0.135-0.171 0.1-0.139-0.038-0.04-0.203-3e-3v0.037c-0.269-0.027-0.543-0.01-0.779 0.122l-6e-3 0.108-0.201-9e-3 -0.092-0.109-0.051 0.058-0.2 0.039-0.142-0.108 1e-3 -0.143 0.108-0.098-0.099-0.142 0.149-0.249c-0.063-0.42 0.13-0.846 0.142-1.269l6e-3 -0.126 0.097-0.107c-0.065-0.323-0.097-0.67-0.085-1.014 6e-3 -0.137 0-0.367 0.129-0.451l2e-3 -0.092-0.094-0.11-0.049-2e-3 2e-3 -0.158c0.01-0.148 0.039-0.28 0.065-0.425l-0.104-0.091 0.108-0.091-0.044-0.069 0.026-1.02-0.09-0.104 0.097-0.096-0.058-0.086-0.023-0.493-0.101-0.094 0.111-0.251-0.127-0.445 0.039-0.046 1e-3 -0.099 2.448 0.074 0.096-0.104 0.107 0.07 0.145-0.103 0.341 0.157 0.086-0.101 2e-3 -0.043 0.295 0.114 2e-3 0.202c0.011 0.154-0.072 0.286-0.113 0.418 0.124 0.104 0.202 0.248 0.198 0.413" fill="#cce425"/>
  </g>
  <g transform="matrix(4.8974 0 0 -4.8974 -65.733 -55.014)">
   <path d="m0 0c-0.033 0.451-0.059 0.906-0.07 1.359l-0.029 1.208-0.184 0.037-5e-3 0.11 0.181 0.182-0.033 0.033-0.057 0.29 0.101 0.218-0.111 0.179 0.088 0.539-0.104 0.068 0.1 0.105v0.107l-0.027 0.05 0.066 0.056-0.051 0.178 0.082 0.224c-6e-3 0.122-0.074 0.232-0.157 0.312l-0.177-3e-3 -0.048-0.067c-0.135-0.022-0.282-0.045-0.428-0.051-0.132-8e-3 -0.266 0-0.388 0.065l-0.181-0.114c0.142-0.244 0.186-0.9 0.19-1.196v-0.237l0.214-0.035v-0.063l-0.025-0.034-0.082-0.01-0.04 0.037-0.059-0.067v-0.076l0.062-0.075-0.058-0.028 0.047-0.509 0.074-0.067 0.031 0.043 0.074-0.077 2e-3 -0.032-0.107-0.042-0.065-0.104 0.039-1.47h-0.031v-0.077l0.037-0.039-0.078-0.931-0.074-0.075 0.03-0.184 0.122-0.099 0.101-2e-3c0.21-0.01 0.401 0.095 0.612 0.098l0.139 3e-3 0.074 0.078 0.08-0.067 0.171 0.105-2e-3 0.106z" fill="#cce425"/>
  </g>
  <g transform="matrix(4.8974 0 0 -4.8974 -41.719 -84.308)">
   <path d="m0 0-0.021 0.175-0.128 0.131-0.245 6e-3c-0.091-8e-3 -0.203-0.044-0.296-0.061l-0.036-0.053c-0.532-0.023-1.066-0.082-1.597-0.096-0.625-0.015-1.223 0.238-1.842 0.219h-0.06l-0.122-0.268c0.149-0.166 0.197-0.408 0.197-0.628l0.047-0.029 2e-3 -0.095-0.043-0.036 6e-3 -0.28 0.139-0.126 0.312 0.2 1.028-0.037 0.024-0.928-0.091-0.126c0.039-0.421 0.141-0.955-0.055-1.35h-0.04l3e-3 -0.089 0.092-0.057c0.01-0.14 0.036-0.274 0.039-0.409l-0.072-0.291h-0.041l4e-3 -0.097 0.045-0.044c0.014-0.53-0.247-1.053-0.205-1.59l0.043-0.478 0.588 0.02 0.072 0.094 0.146 0.063 0.174-0.147 0.092 0.092 0.035-0.086 0.283-0.029 0.166 0.097-0.016 0.957c-0.017 0.827-0.15 1.653-0.122 2.48h0.039v0.079l-0.076 0.091 0.027 0.05-0.046 1.638 0.134 0.157c0.367-0.043 0.746-0.084 1.111-0.157l0.186 0.107c-0.067 0.308 0.161 0.615 0.12 0.931" fill="#cce425"/>
  </g>
  <g transform="matrix(4.8974 0 0 -4.8974 -30.772 -60.925)">
   <path d="m0 0 0.016 0.028h-0.051z" fill="#cce425"/>
  </g>
  <g transform="matrix(4.8974 0 0 -4.8974 -36.023 -59.194)">
   <path d="m0 0 0.074 3e-3 -0.035 0.02z" fill="#cce425"/>
  </g>
  <g transform="matrix(4.8974 0 0 -4.8974 -35.659 -59.208)">
   <path d="m0 0v-3e-3z" fill="#cce425"/>
  </g>
  <g transform="matrix(4.8974 0 0 -4.8974 -24.133 -57.338)">
   <path d="m0 0-0.109 0.078 0.08 0.029-6e-3 0.121h-0.078l-0.027 0.034-5e-3 0.098 0.048 0.067 0.197-0.269zm0.604 3.992-0.102-0.08-0.457-0.042-0.082 0.072-0.152-2e-3 -0.171-0.111-7e-3 -0.532c-2e-3 -0.341 0.125-0.671 0.125-1l4e-3 -0.269c0.091-0.073 0.15-0.187 0.187-0.293h0.078l0.028-0.057-0.096-0.082-0.086 0.104-0.041-0.038 0.049-0.071-0.056-0.075 4e-3 -0.103-0.12-0.077-0.065 0.067c-0.144-2e-3 -0.299-7e-3 -0.433 0.067l-0.072-0.08-0.399 0.064-0.072-0.075-0.107-6e-3 -0.04 0.037c-0.219-0.031-0.44 0-0.654 0.053-0.012 0.215-0.031 0.427-0.04 0.647-2e-3 0.14 0.017 0.281 0.091 0.409l-0.054 0.024-4e-3 0.205 0.076 5e-3 -1e-3 0.127 0.074 0.058-0.074-5e-3 -0.095 0.481 0.074 0.137-0.182-0.074c0.132 0.071 0.133 0.253 0.221 0.36l-0.154 0.045-2e-3 0.024-0.102-1e-3 -0.105-0.078-0.041 0.053-0.32 0.013-0.074 0.077-0.403-0.012c-0.029-0.121-0.029-0.241-0.029-0.358 0.015-0.412 0.115-0.819 0.14-1.232l0.08-0.103-0.072-0.081c-9e-3 -0.212-0.025-0.431-0.011-0.648l0.027-0.034 7e-3 -0.073-0.032-0.026c0.015-0.245 0.015-0.488-0.055-0.723l0.113-0.221-0.068-0.035v-0.108l-0.036-0.042 0.11-0.073-0.027-0.024c-0.016-0.244 0.054-1.092-0.071-1.244l0.078-0.455 0.071-0.074h0.074l0.106 0.118 0.221 0.069 0.041-0.061 0.206 0.069 0.076-0.056h0.147l0.101 0.109-6e-3 0.575c0 0.229-0.039 0.458-0.033 0.691l-0.107 0.179 0.072 0.177-0.08 0.071 0.072 0.041-0.049 0.144-0.027-0.049h-0.077l2e-3 -0.099-0.027-0.037-0.043 0.034v-0.078l-0.132-4e-3 0.027 0.145-4e-3 0.079 0.359 0.073 0.072 0.045v0.075l0.462 0.047v0.019c0.201 0.032 0.34 0.267 0.425 0.426l0.189-0.225-0.153-0.184-0.133 0.121-0.098-0.157 0.281-0.018 0.057 0.056 0.668-0.113-2e-3 0.075 0.068-0.091 0.047-0.202 0.039-0.546 0.078 0.051 0.112-0.104-0.032-0.078-0.156 0.072-0.019-0.3 0.084-0.101-0.076-0.084c-0.026-0.121-0.036-0.258-0.03-0.386 0-0.133 0.02-0.274 0.076-0.388l0.59 0.018 0.057 0.21c0.063-0.106 0.22-0.124 0.332-0.137-0.049 0.534-0.072 1.078-0.046 1.617l-0.186 0.074 0.179 0.185-0.028 0.041-0.031 0.929-0.045 0.033 0.096 0.123-0.027 0.031c0.046 0.244 0.057 0.489 0.05 0.737-4e-3 0.153-0.011 0.321-0.113 0.444 0.131 0.112 0.128 0.31 0.169 0.471l-0.081 0.181 0.102 0.073 0.025 0.232-0.11 0.13z" fill="#cce425"/>
  </g>
  <g transform="matrix(4.8974 0 0 -4.8974 -7.7142 -59.027)">
   <path d="m0 0c-0.028 0.396-0.05 0.779-0.066 1.167l-0.019 1.033-0.158 0.033-2e-3 0.089 0.15 0.163-0.029 0.023-0.043 0.255 0.084 0.176-0.092 0.155 0.074 0.462-0.089 0.059 0.085 0.089v0.089l-0.025 0.046 0.054 0.051-0.037 0.152 0.065 0.189c-2e-3 0.104-0.057 0.2-0.133 0.264l-0.149-1e-3 -0.045-0.056c-0.112-0.02-0.237-0.041-0.36-0.045-0.117-5e-3 -0.235-3e-3 -0.332 0.056l-0.156-0.094c0.124-0.21 0.159-0.775 0.161-1.019v-0.206l0.178-0.032 6e-3 -0.054-0.022-0.042h-0.07l-0.037 0.037-0.051-0.06v-0.067l0.06-0.06-0.052-0.031 0.041-0.431 0.061-0.061 0.025 0.039 0.063-0.064v-0.023l-0.084-0.034-0.062-0.097 0.036-1.254h-0.027v-0.064l0.028-0.039-0.061-0.793-0.069-0.062 0.032-0.152 0.098-0.087 0.091-5e-3c0.178-6e-3 0.344 0.085 0.521 0.087h0.124l0.058 0.063 0.07-0.055 0.144 0.094v0.088z" fill="#cce425"/>
  </g>
  <g transform="matrix(4.8974 0 0 -4.8974 17.457 -76.957)">
   <path d="m0 0-6e-3 0.132-0.078 0.065-0.174-8e-3 -0.103-0.097-0.025 0.024-0.358 0.063-0.167-0.075-2e-3 0.074-0.147-6e-3 -0.04 0.103-0.041-0.03-0.021-0.102-0.044-4e-3v-0.068l-0.064 0.025-0.042-0.106h-0.026l0.037-0.279 0.153-0.065c-0.028-0.153-0.108-0.537 0.046-0.638l-0.023-0.324 0.072-0.048-0.07-0.078 0.07-0.069-0.06-0.109 0.027-0.104 0.151-0.065-0.149-0.107 0.088-1.402-0.066-0.081c9e-3 -0.168-0.028-0.335-0.065-0.496l-0.168-0.181 2e-3 -0.078-0.173-0.138-0.249-6e-3 -0.095-0.108-0.038 0.032c-0.242-0.038-0.504 0.071-0.675 0.227l-0.034 0.133-0.048-0.026c-0.155 0.496-0.18 1.031-0.195 1.541l-0.035 1.11c-0.013 0.408-2e-3 0.816 0.089 1.213h0.029l-2e-3 0.075-0.066 0.03-0.01 0.102-0.176 0.116-0.726-0.098-0.082 0.076-2e-3 0.052-0.071-0.054-0.061-4e-3 -0.072 0.05-0.046-0.03-0.026-0.138-0.17-0.035 4e-3 -0.08 0.071-0.069 2e-3 -0.133 0.107-0.071c8e-3 -0.555 0.031-1.911 0.241-2.382l-0.067-0.105-5e-3 -0.286c-2e-3 -0.105 0.022-0.191 0.061-0.288l-0.063-0.073 0.101-0.103-0.071-0.067 0.077-0.238-0.067-0.072 0.049-0.226 0.062 6e-3c0.153-0.283 0.454-0.469 0.545-0.786l0.147-0.077 5e-3 -0.055 0.074 0.032c0.189-0.214 0.497-0.242 0.763-0.224 0.259 0 0.519 0.051 0.779 0.059 0.559 0.015 0.598 0.356 0.812 0.407l0.131 0.205 0.069 3e-3c0.103 0.147 0.187 0.301 0.235 0.484h0.033l-0.011 0.202 0.081 0.079c0.066 0.543 0.105 1.098 0.085 1.65-0.015 0.746-4e-3 1.484-0.023 2.222" fill="#cce425"/>
  </g>
  <g transform="matrix(4.8974 0 0 -4.8974 57.076 -53.005)">
   <path d="m0 0c-0.022 0.165-0.098 0.321-0.206 0.448l0.058 0.045-2e-3 0.13-0.163 0.086-2e-3 0.096 0.096 0.049c-0.024 0.301-0.101 0.596-0.189 0.893l-0.067 0.061 0.061 0.131-0.104 0.164 0.036 0.061-0.1 0.03v0.122l0.011 0.053 0.042 0.153-0.098 0.09 0.027 0.325c-0.226 0.354-0.539 2.613-0.546 3.12l7e-3 0.042-0.145 0.164-1e-3 0.129 0.139 7e-3 -4e-3 0.094-0.182 0.276-0.323 0.033-0.223-0.137-0.227 0.025c-0.12-0.11-0.249-0.207-0.407-0.273l-4e-3 -0.075 0.067-0.246-0.086-0.188h-0.042l0.044-0.043c0.033-0.154-0.013-0.313-0.081-0.457h-0.043l0.011-0.36-0.274-0.137 0.094-0.051 8e-3 -0.138-0.097-0.089c0.076-0.289-0.185-0.525-0.163-0.806l0.013-0.073-0.201-0.533 4e-3 -0.325-0.092-0.099v-0.122l-0.075-0.224-0.048 0.02-0.086-0.231-0.322-0.137-0.047 0.509-0.109 0.433-0.01 0.043-9e-3 0.026c-0.065 0.225-0.182 0.438-0.265 0.663l-0.157 0.093 0.056 0.034c0.022 0.158-0.015 0.324-0.111 0.455l-0.094-3e-3 -0.033 0.054 0.088 0.129-0.164 0.226 0.06 0.04c-0.074 0.297-0.252 0.564-0.443 0.804v0.148l0.06 2e-3 -6e-3 0.129-0.066 0.099c0.039 0.218-0.017 0.496-0.24 0.615l-0.223-0.175-0.035 0.033-0.781 0.013-0.084-0.131c0.012-0.391-0.022-0.763-0.011-1.15l0.015-0.48-0.13-0.135 0.087-0.223-0.161-0.549 0.104-0.19-0.054-0.041c-0.018-0.154-0.017-0.59-0.153-0.683l0.053-0.286-0.097-0.077 0.054-0.057c-0.098-0.162-0.154-0.352-0.167-0.551l0.091-0.13-0.086-0.089 0.041-0.141c-0.083-0.097-0.157-0.241-0.15-0.369l0.041-0.404-0.094-0.131 0.053-0.044c-0.108-0.17-0.117-0.386-0.114-0.589l0.012-0.324c0.191-2e-3 0.375-8e-3 0.559 0 0.243 5e-3 0.499 0.048 0.705 0.178l-4e-3 0.128-0.057 0.094-2e-3 0.185 0.096 7e-3c0.015 0.282 0.053 0.564 0.057 0.851l0.093 0.093-8e-3 0.36-0.227 0.056 0.089 0.13 0.134-0.044c0.018 0.349 0.12 0.7 0.146 1.058l-0.063 0.673v0.043l-0.036 0.031-0.066 0.15-0.01 0.272 0.196 5e-3 5e-3 -0.134 0.127 6e-3 0.096-0.059 4e-3 6e-3 0.047-0.132h-0.04l2e-3 -0.102 0.029-0.034 0.101 6e-3 0.033 0.033 0.165-0.255 0.013 4e-3 -0.057-0.098 0.044 0.094-0.15-0.137 0.036-0.032 0.17-0.597v-0.048l0.135-0.127-0.03-0.058 0.08-0.097 0.121-0.405c0.081-0.324 0.301-0.903 0.424-1.012l0.047-0.229 0.093-0.09 0.016-0.548c0.101-0.088 0.225-0.194 0.367-0.19l0.287 0.12 0.074 0.361h0.044l0.086 0.278c0.099 0.235 0.128 0.477 0.146 0.727l0.095 0.092-3e-3 0.103 0.42 1.181 0.041 0.419 0.125 0.17-0.134 0.146 0.077 0.078 0.151-0.07 0.032 0.041-2e-3 0.207 0.187 0.555 0.069-0.116c0.059-0.132 0.078-0.302 0.076-0.444l-5e-3 -0.188 0.086-0.079v-0.207l-0.031-0.04c8e-3 -0.104-0.015-0.218-0.037-0.324 0.199-0.124 0.236-0.405 0.245-0.618v0.105-0.105l0.098-0.531-0.08-0.147 0.104-0.129 0.072-1.319 0.096 3e-3 0.231-0.186 0.548 0.113-0.097 0.095v0.089l0.551-0.213z" fill="#cce425"/>
  </g>
 </g>
</svg>
