<svg width="800" height="450.9" version="1.1" viewBox="0 0 211.67 119.3" xmlns="http://www.w3.org/2000/svg">
 <defs>
  <linearGradient id="linearGradient11452" x2="1" gradientTransform="matrix(.065039 2.1956 2.1956 -.065039 262.48 643.34)" gradientUnits="userSpaceOnUse">
   <stop stop-color="#d0182b" offset="0"/>
   <stop stop-color="#a61625" offset=".52747"/>
   <stop stop-color="#a61625" offset=".5792"/>
   <stop stop-color="#45060b" offset=".83516"/>
   <stop stop-color="#89121e" offset=".95055"/>
   <stop stop-color="#89121e" offset="1"/>
  </linearGradient>
  <linearGradient id="linearGradient11424" x2="1" gradientTransform="matrix(0 2.0537 2.0537 0 257.04 643.77)" gradientUnits="userSpaceOnUse">
   <stop stop-color="#d0182b" offset="0"/>
   <stop stop-color="#a61625" offset=".46865"/>
   <stop stop-color="#a61625" offset=".50824"/>
   <stop stop-color="#45060b" offset=".70415"/>
   <stop stop-color="#89121e" offset=".81151"/>
   <stop stop-color="#89121e" offset="1"/>
  </linearGradient>
  <linearGradient id="linearGradient11396" x2="1" gradientTransform="matrix(0 2.0541 2.0541 0 255.58 643.77)" gradientUnits="userSpaceOnUse">
   <stop stop-color="#d0182b" offset="0"/>
   <stop stop-color="#a61625" offset=".46865"/>
   <stop stop-color="#a61625" offset=".50824"/>
   <stop stop-color="#45060b" offset=".70415"/>
   <stop stop-color="#89121e" offset=".81151"/>
   <stop stop-color="#89121e" offset="1"/>
  </linearGradient>
  <linearGradient id="linearGradient11368" x2="1" gradientTransform="matrix(0 2.0544 2.0544 0 253.73 643.77)" gradientUnits="userSpaceOnUse">
   <stop stop-color="#d0182b" offset="0"/>
   <stop stop-color="#a61625" offset=".46865"/>
   <stop stop-color="#a61625" offset=".50824"/>
   <stop stop-color="#45060b" offset=".70415"/>
   <stop stop-color="#89121e" offset=".81151"/>
   <stop stop-color="#89121e" offset="1"/>
  </linearGradient>
  <linearGradient id="linearGradient11340" x2="1" gradientTransform="matrix(0 2.0543 2.0543 0 254.52 643.77)" gradientUnits="userSpaceOnUse">
   <stop stop-color="#d0182b" offset="0"/>
   <stop stop-color="#a61625" offset=".46865"/>
   <stop stop-color="#a61625" offset=".50824"/>
   <stop stop-color="#45060b" offset=".70415"/>
   <stop stop-color="#89121e" offset=".81151"/>
   <stop stop-color="#89121e" offset="1"/>
  </linearGradient>
  <linearGradient id="linearGradient11312" x2="1" gradientTransform="matrix(0 2.053 2.053 0 252.51 643.77)" gradientUnits="userSpaceOnUse">
   <stop stop-color="#d0182b" offset="0"/>
   <stop stop-color="#a61625" offset=".46865"/>
   <stop stop-color="#a61625" offset=".50824"/>
   <stop stop-color="#45060b" offset=".70415"/>
   <stop stop-color="#89121e" offset=".81151"/>
   <stop stop-color="#89121e" offset="1"/>
  </linearGradient>
  <linearGradient id="linearGradient11284" x2="1" gradientTransform="matrix(0 2.0538 2.0538 0 250.84 643.77)" gradientUnits="userSpaceOnUse">
   <stop stop-color="#d0182b" offset="0"/>
   <stop stop-color="#a61625" offset=".46865"/>
   <stop stop-color="#a61625" offset=".50824"/>
   <stop stop-color="#45060b" offset=".70415"/>
   <stop stop-color="#89121e" offset=".81151"/>
   <stop stop-color="#89121e" offset="1"/>
  </linearGradient>
  <linearGradient id="linearGradient11256" x2="1" gradientTransform="matrix(0 2.0542 2.0542 0 249.26 643.77)" gradientUnits="userSpaceOnUse">
   <stop stop-color="#d0182b" offset="0"/>
   <stop stop-color="#a61625" offset=".46865"/>
   <stop stop-color="#a61625" offset=".50824"/>
   <stop stop-color="#45060b" offset=".70415"/>
   <stop stop-color="#89121e" offset=".81151"/>
   <stop stop-color="#89121e" offset="1"/>
  </linearGradient>
  <clipPath id="clipPath11178">
   <path d="m0 0h612v792h-612z"/>
  </clipPath>
  <linearGradient id="linearGradient11168" x2="1" gradientTransform="matrix(.2412 1.9547 1.9547 -.2412 262.56 648.86)" gradientUnits="userSpaceOnUse">
   <stop stop-color="#fff" offset="0"/>
   <stop stop-color="#deddde" offset=".52747"/>
   <stop stop-color="#deddde" offset=".5792"/>
   <stop stop-color="#7b7979" offset=".83516"/>
   <stop stop-color="#bdbcbc" offset=".95055"/>
   <stop stop-color="#bdbcbc" offset="1"/>
  </linearGradient>
  <linearGradient id="linearGradient11140" x2="1" gradientTransform="matrix(.22823 1.8496 1.8496 -.22823 260.11 648.8)" gradientUnits="userSpaceOnUse">
   <stop stop-color="#fff" offset="0"/>
   <stop stop-color="#deddde" offset=".52747"/>
   <stop stop-color="#deddde" offset=".5792"/>
   <stop stop-color="#7b7979" offset=".83516"/>
   <stop stop-color="#bdbcbc" offset=".95055"/>
   <stop stop-color="#bdbcbc" offset="1"/>
  </linearGradient>
  <linearGradient id="linearGradient11112" x2="1" gradientTransform="matrix(.21961 1.7797 1.7797 -.21961 257.37 648.76)" gradientUnits="userSpaceOnUse">
   <stop stop-color="#fff" offset="0"/>
   <stop stop-color="#deddde" offset=".52747"/>
   <stop stop-color="#deddde" offset=".5792"/>
   <stop stop-color="#7b7979" offset=".83516"/>
   <stop stop-color="#bdbcbc" offset=".95055"/>
   <stop stop-color="#bdbcbc" offset="1"/>
  </linearGradient>
  <linearGradient id="linearGradient11084" x2="1" gradientTransform="matrix(.21793 1.7661 1.7661 -.21793 253.35 648.67)" gradientUnits="userSpaceOnUse">
   <stop stop-color="#fff" offset="0"/>
   <stop stop-color="#deddde" offset=".52747"/>
   <stop stop-color="#deddde" offset=".5792"/>
   <stop stop-color="#7b7979" offset=".83516"/>
   <stop stop-color="#bdbcbc" offset=".95055"/>
   <stop stop-color="#bdbcbc" offset="1"/>
  </linearGradient>
  <linearGradient id="linearGradient11056" x2="1" gradientTransform="matrix(.18459 1.4959 1.4959 -.18459 250.84 648.63)" gradientUnits="userSpaceOnUse">
   <stop stop-color="#fff" offset="0"/>
   <stop stop-color="#deddde" offset=".52747"/>
   <stop stop-color="#deddde" offset=".5792"/>
   <stop stop-color="#7b7979" offset=".83516"/>
   <stop stop-color="#bdbcbc" offset=".95055"/>
   <stop stop-color="#bdbcbc" offset="1"/>
  </linearGradient>
  <linearGradient id="linearGradient11028" x2="1" gradientTransform="matrix(.18595 1.5069 1.5069 -.18595 249.08 648.65)" gradientUnits="userSpaceOnUse">
   <stop stop-color="#fff" offset="0"/>
   <stop stop-color="#deddde" offset=".52747"/>
   <stop stop-color="#deddde" offset=".5792"/>
   <stop stop-color="#7b7979" offset=".83516"/>
   <stop stop-color="#bdbcbc" offset=".95055"/>
   <stop stop-color="#bdbcbc" offset="1"/>
  </linearGradient>
  <linearGradient id="linearGradient11000" x2="1" gradientTransform="matrix(.20429 1.6556 1.6556 -.20429 247.9 648.79)" gradientUnits="userSpaceOnUse">
   <stop stop-color="#fff" offset="0"/>
   <stop stop-color="#deddde" offset=".52747"/>
   <stop stop-color="#deddde" offset=".5792"/>
   <stop stop-color="#7b7979" offset=".83516"/>
   <stop stop-color="#bdbcbc" offset=".95055"/>
   <stop stop-color="#bdbcbc" offset="1"/>
  </linearGradient>
  <linearGradient id="linearGradient10972" x2="1" gradientTransform="matrix(.17994 1.4582 1.4582 -.17994 246.59 648.71)" gradientUnits="userSpaceOnUse">
   <stop stop-color="#fff" offset="0"/>
   <stop stop-color="#deddde" offset=".52747"/>
   <stop stop-color="#deddde" offset=".5792"/>
   <stop stop-color="#7b7979" offset=".83516"/>
   <stop stop-color="#bdbcbc" offset=".95055"/>
   <stop stop-color="#bdbcbc" offset="1"/>
  </linearGradient>
  <clipPath id="clipPath10938">
   <path d="m0 0h612v792h-612z"/>
  </clipPath>
  <linearGradient id="linearGradient10928" x2="1" gradientTransform="matrix(0 12.621 12.621 0 256.22 642.48)" gradientUnits="userSpaceOnUse">
   <stop stop-color="#706d6e" offset="0"/>
   <stop stop-color="#706d6e" offset=".071129"/>
   <stop stop-color="#adabac" offset=".42308"/>
   <stop stop-color="#fff" offset=".52747"/>
   <stop stop-color="#fff" offset=".55969"/>
   <stop stop-color="#777475" offset=".7191"/>
   <stop stop-color="#403c3d" offset=".83516"/>
   <stop stop-color="#bdbcbc" offset=".95055"/>
   <stop stop-color="#bdbcbc" offset="1"/>
  </linearGradient>
 </defs>
 <g transform="translate(-37.286 137.91)">
  <g transform="matrix(7.4008 0 0 -7.4008 233.82 -54.568)">
   <path d="M 0,0 C 0.592,0.604 1.16,1.092 1.802,1.749 1.212,1.72 0.592,1.81 -0.003,1.752 -0.005,1.735 -0.804,0.811 0,0" fill="#231f20"/>
  </g>
  <g transform="matrix(7.4008 0 0 -7.4008 233.82 -54.568)">
   <path d="M 0,0 C 0.592,0.604 1.16,1.092 1.802,1.749 1.212,1.72 0.592,1.81 -0.003,1.752 -0.005,1.735 -0.804,0.811 0,0 Z" fill="none" stroke="#231f20" stroke-width=".195"/>
  </g>
  <g transform="matrix(7.4008 0 0 -7.4008 233.82 -54.568)">
   <path d="m0 0c0.592 0.604 1.802 1.749 1.802 1.749l-1.805 3e-3s-0.801-0.941 3e-3 -1.752" fill="#747273"/>
  </g>
  <g transform="matrix(7.4008 0 0 -7.4008 245.69 -66.913)">
   <path d="m0 0c-0.356-0.065-0.725 9e-3 -1.078-0.071-6e-3 -0.169-6e-3 -0.34-0.01-0.511 0.356 0.246 0.715 0.338 1.088 0.582" fill="#fff"/>
  </g>
  <g transform="matrix(7.4008 0 0 -7.4008 237.51 -67.206)">
   <path d="m0 0s0.761-0.08 1.106-0.04c-0.348-0.172-1.084-0.336-1.084-0.336z" fill="#231f20"/>
  </g>
  <g transform="matrix(7.4008 0 0 -7.4008 240.67 -61.825)">
   <path d="m0 0c-0.16-0.094-0.434-0.164-0.434-0.164l-0.045-0.216c0.167 0.171 0.297 0.214 0.479 0.38" fill="#231f20"/>
  </g>
  <g transform="matrix(7.4008 0 0 -7.4008 143.52 -46.334)">
   <path d="m0 0c-0.402-0.299-0.799-0.555-1.194-0.768 0.588-0.089 1.181-0.151 1.774-0.187 0-0.011 0.509 0.501-0.58 0.955" fill="#231f20"/>
  </g>
  <g transform="matrix(7.4008 0 0 -7.4008 143.52 -46.334)">
   <path d="m0 0c-0.402-0.299-0.799-0.555-1.194-0.768 0.588-0.089 1.181-0.151 1.774-0.187 0-0.011 0.509 0.501-0.58 0.955z" fill="none" stroke="#231f20" stroke-width=".195"/>
  </g>
  <g transform="matrix(7.4008 0 0 -7.4008 143.52 -46.334)">
   <path d="m0 0c-0.402-0.299-0.799-0.555-1.194-0.768 0.588-0.089 1.212-0.034 1.774-0.187 0.131-0.037 0.509 0.501-0.58 0.955" fill="#747273"/>
  </g>
  <g transform="matrix(7.4008 0 0 -7.4008 142.13 -43.945)">
   <path d="m0 0 0.087-0.118c-0.346-0.127-0.688-0.23-1.027-0.313 0.311 0.122 0.625 0.266 0.94 0.431" fill="#fff"/>
  </g>
  <g transform="matrix(7.4008 0 0 -7.4008 141.96 -44.601)">
   <path d="m0 0c-0.276-0.184-0.558-0.346-0.836-0.49 0.304 0.115 0.607 0.25 0.907 0.405l-0.071 0.085" fill="#231f20"/>
  </g>
  <g transform="matrix(7.4008 0 0 -7.4008 145.47 -40.521)">
   <path d="m 0,0 c -0.281,0.005 -0.559,0.017 -0.839,0.035 0.223,0.039 0.446,0.084 0.664,0.137 L 0,0" fill="#231f20"/>
  </g>
  <g transform="matrix(7.4008 0 0 -7.4008 206.43 -74.807)">
   <path d="m0 0c1.976 0.576 3.442-0.438 3.442-0.438l0.279-1.725c-0.118 0.253-0.281 0.507-0.48 0.706-0.172 0.17-0.371 0.324-0.585 0.442-0.19 0.106-0.398 0.177-0.605 0.239-0.179 0.054-0.363 0.075-0.549 0.095-0.35 0.041-0.704 0-1.042-0.092-0.107-0.029-0.21-0.063-0.313-0.096l-0.198-0.094" fill="#464344"/>
  </g>
  <g transform="matrix(7.4008 0 0 -7.4008 235.47 -55.275)">
   <path d="m0 0-0.13 1.862-0.068 0.224-0.092 0.166c-0.383 0.324-1.555 1.065-3.766 0.469l0.253-0.03s4.815 0.605 2.696-2.534c-2.118-3.137-10.213-3.165-12.217-0.345 0 0 1.142-3.626 6.392-3.453 5.028 0.165 6.521 2.729 6.895 3.455l0.037 0.186" fill="#231f20"/>
  </g>
  <g transform="matrix(7.4008 0 0 -7.4008 222.13 -40.428)">
   <path d="M 0,0 C 0.663,0.113 1.337,0.258 2.013,0.432 1.65,0.869 1.278,1.287 0.902,1.688 0.899,1.676 -0.078,1.365 0,0" fill="#231f20"/>
  </g>
  <g transform="matrix(7.4008 0 0 -7.4008 222.13 -40.428)">
   <path d="M 0,0 C 0.663,0.113 1.337,0.258 2.013,0.432 1.65,0.869 1.278,1.287 0.902,1.688 0.899,1.676 -0.078,1.365 0,0 Z" fill="none" stroke="#231f20" stroke-width=".195"/>
  </g>
  <g transform="matrix(7.4008 0 0 -7.4008 187.98 -28.488)">
   <path d="m0 0c0.41-0.316 0.665-0.806 1.075-1.145 0.077 0.682 0.306 1.527 0.383 2.21 0 8e-3 -0.379 0.617-1.085 0.103-0.704-0.494-0.518-1.012-0.373-1.168" fill="#231f20"/>
  </g>
  <g transform="matrix(7.4008 0 0 -7.4008 187.98 -28.488)">
   <path d="m0 0c0.41-0.316 0.665-0.806 1.075-1.145 0.077 0.682 0.306 1.527 0.383 2.21 0 8e-3 -0.379 0.617-1.085 0.103-0.704-0.494-0.518-1.012-0.373-1.168z" fill="none" stroke="#231f20" stroke-width=".195"/>
  </g>
  <g transform="matrix(7.4008 0 0 -7.4008 222.13 -40.428)">
   <path d="M 0,0 C 0.663,0.113 1.337,0.258 2.013,0.432 1.65,0.869 1.278,1.287 0.902,1.688 0.899,1.676 -0.078,1.365 0,0" fill="#747273"/>
  </g>
  <g transform="matrix(7.4008 0 0 -7.4008 187.98 -28.488)">
   <path d="m0 0c0.41-0.316 1.075-1.145 1.075-1.145s0.306 1.527 0.383 2.21c0 8e-3 -0.379 0.617-1.085 0.103-0.704-0.494-0.518-1.012-0.373-1.168" fill="#747273"/>
  </g>
  <g transform="matrix(7.4008 0 0 -7.4008 195.89 -21.532)">
   <path d="m0 0c-0.226 0.582-0.301 1.311-0.532 1.854 0.116 0.032 0.231 0.064 0.347 0.097 0.113-0.582 0.076-1.342 0.185-1.951" fill="#fff"/>
  </g>
  <g transform="matrix(7.4008 0 0 -7.4008 236.28 -44.072)">
   <path d="m0 0c-0.593-0.067-1.179-0.112-1.763-0.139 1e-3 1e-3 0.077 0.582 0.371 0.95 0.255-0.11 1.394-0.808 1.392-0.811" fill="#fff"/>
  </g>
  <g transform="matrix(7.4008 0 0 -7.4008 160.56 -38.151)">
   <path d="m0 0 0.201-0.835c0.228-0.059 0.452-0.116 0.679-0.172 0 4e-3 -0.618 0.398-0.257 0.874-0.196 0.024-0.257 0.035-0.257 0.035 2e-3 2e-3 0.16-0.722 0.047-0.679-0.112 0.047-0.162 0.702-0.162 0.7l-0.251 0.077" fill="#464344"/>
  </g>
  <g transform="matrix(7.4008 0 0 -7.4008 182.42 -36.004)">
   <path d="m0 0c-0.046-0.321-0.09-0.64-0.135-0.96 0.181 0.03 0.361 0.064 0.54 0.099 0.036 0.359 0.07 0.718 0.104 1.077 0 0-0.165-0.934-0.348-0.966-0.185-0.034 0.034 0.788 0.074 0.814l-0.235-0.064" fill="#464344"/>
  </g>
  <g transform="matrix(7.4008 0 0 -7.4008 181.35 -35.892)">
   <path d="m0 0c-0.028-0.32-0.059-0.637-0.087-0.958l-0.084-2e-3c0.017 0.315 0.032 0.629 0.049 0.942l0.122 0.018" fill="#464344"/>
  </g>
  <g transform="matrix(7.4008 0 0 -7.4008 234.4 -61.961)">
   <path d="m0 0c-0.081-0.449-0.16-0.896-0.241-1.342l-0.111-0.108c0.053 0.352 0.104 0.702 0.156 1.055 0.066 0.13 0.131 0.263 0.196 0.395" fill="#464344"/>
  </g>
  <g transform="matrix(7.4008 0 0 -7.4008 232.01 -57.452)">
   <path d="m0 0c-0.039-0.273-0.078-0.547-0.118-0.818-0.033 0.221-0.07 0.438-0.105 0.656l0.223 0.162" fill="#464344"/>
  </g>
  <g transform="matrix(7.4008 0 0 -7.4008 153.44 -40.251)">
   <path d="m0 0c-0.297-0.447-0.593-0.867-0.882-1.259 0.603 0.013 1.213 0.069 1.832 0.17 0 0 0.345 0.738-0.95 1.089" fill="#231f20"/>
  </g>
  <g transform="matrix(7.4008 0 0 -7.4008 153.44 -40.251)">
   <path d="m0 0c-0.297-0.447-0.593-0.867-0.882-1.259 0.603 0.013 1.213 0.069 1.832 0.17 0 0 0.345 0.738-0.95 1.089z" fill="none" stroke="#231f20" stroke-width=".213"/>
  </g>
  <g transform="matrix(7.4008 0 0 -7.4008 153.44 -40.251)">
   <path d="m0 0c-0.297-0.447-0.593-0.867-0.882-1.259 0.603 0.013 1.213 0.069 1.832 0.17 0 0 0.345 0.738-0.95 1.089" fill="#747273"/>
  </g>
  <g transform="matrix(7.4008 0 0 -7.4008 154.91 -38.822)">
   <path d="m0 0s0.229-0.091 0.284-0.187c-0.182-0.139-1.18-0.845-1.177-0.825 0.292 0.312 0.59 0.65 0.893 1.012" fill="#fff"/>
  </g>
  <g transform="matrix(7.4008 0 0 -7.4008 154.11 -39.594)">
   <path d="m0 0c-0.256-0.378-0.511-0.734-0.762-1.072 0.306 0.298 0.611 0.621 0.92 0.97l-0.158 0.102" fill="#231f20"/>
  </g>
  <g transform="matrix(7.4008 0 0 -7.4008 159.41 -33.113)">
   <path d="m0 0c-0.257-0.033-0.514-0.06-0.771-0.08 0.204 0.119 0.406 0.243 0.609 0.374 0 0 0.197-0.186 0.162-0.294" fill="#231f20"/>
  </g>
  <g transform="matrix(7.4008 0 0 -7.4008 166.92 -31.229)">
   <path d="m0 0c0.22-0.455 0.337-0.945 0.553-1.434 0.31 0.446 0.726 0.936 1.042 1.435 1e-3 4e-3 -0.065 0.726-0.832 0.695-0.767-0.017-0.83-0.503-0.763-0.696" fill="#231f20"/>
  </g>
  <g transform="matrix(7.4008 0 0 -7.4008 166.92 -31.229)">
   <path d="m0 0c0.22-0.455 0.337-0.945 0.553-1.434 0.31 0.446 0.726 0.936 1.042 1.435 1e-3 4e-3 -0.065 0.726-0.832 0.695-0.767-0.017-0.83-0.503-0.763-0.696z" fill="none" stroke="#231f20" stroke-width=".195"/>
  </g>
  <g transform="matrix(7.4008 0 0 -7.4008 166.92 -31.229)">
   <path d="m0 0c0.22-0.455 0.337-0.945 0.553-1.434 0.31 0.446 0.726 0.936 1.042 1.435 1e-3 4e-3 -0.065 0.726-0.832 0.695-0.767-0.017-0.83-0.503-0.763-0.696" fill="#747273"/>
  </g>
  <g transform="matrix(7.4008 0 0 -7.4008 170.17 -35.437)">
   <path d="m0 0s0.334 0.094 0.464 4e-3c0.054-0.162-0.333-1.904-0.333-1.902-0.076 0.642-0.052 1.287-0.131 1.898" fill="#fff"/>
  </g>
  <g transform="matrix(7.4008 0 0 -7.4008 170.79 -35.583)">
   <path d="m0 0s-0.175 7e-3 -0.238-0.087l0.232-1.662c-0.03 0.587 0.036 1.181 6e-3 1.749" fill="#231f20"/>
  </g>
  <g transform="matrix(7.4008 0 0 -7.4008 177.85 -31.696)">
   <path d="m0 0-0.112 0.204c-0.155-0.367-0.418-0.743-0.574-1.095 0.193 0.282 0.491 0.589 0.686 0.891" fill="#231f20"/>
  </g>
  <g transform="matrix(7.4008 0 0 -7.4008 195.22 -23.343)">
   <path d="m0 0c-0.19 0.503-0.229 1.154-0.421 1.627-0.135-0.042-0.268-0.086-0.4-0.126l0.821-1.501" fill="#231f20"/>
  </g>
  <g transform="matrix(7.4008 0 0 -7.4008 197.27 -30.04)">
   <path d="m0 0c0.032 0.267 0.066 0.533 0.099 0.8l-0.184 0.139c0.028-0.31 0.055-0.622 0.085-0.939" fill="#231f20"/>
  </g>
  <g transform="matrix(7.4008 0 0 -7.4008 206.83 -32.283)">
   <path d="m0 0c0.411-0.316 0.821-0.643 1.228-0.982 0.075 0.682 0.153 1.364 0.23 2.047 0 8e-3 -0.381 0.618-1.086 0.102-0.703-0.493-0.519-1.01-0.372-1.167" fill="#231f20"/>
  </g>
  <g transform="matrix(7.4008 0 0 -7.4008 206.83 -32.283)">
   <path d="m0 0c0.411-0.316 0.821-0.643 1.228-0.982 0.075 0.682 0.153 1.364 0.23 2.047 0 8e-3 -0.381 0.618-1.086 0.102-0.703-0.493-0.519-1.01-0.372-1.167z" fill="none" stroke="#231f20" stroke-width=".195"/>
  </g>
  <g transform="matrix(7.4008 0 0 -7.4008 206.83 -32.283)">
   <path d="m0 0c0.411-0.316 0.821-0.643 1.228-0.982 0.075 0.682 0.153 1.364 0.23 2.047 0 8e-3 -0.381 0.618-1.086 0.102-0.703-0.493-0.519-1.01-0.372-1.167" fill="#747273"/>
  </g>
  <g transform="matrix(7.4008 0 0 -7.4008 215.85 -26.531)">
   <path d="m0 0c-0.222 0.584-0.451 1.149-0.68 1.692 0.114 0.031 0.229 0.064 0.345 0.097 0.115-0.583 0.226-1.178 0.335-1.789" fill="#fff"/>
  </g>
  <g transform="matrix(7.4008 0 0 -7.4008 215.21 -28.353)">
   <path d="m0 0c-0.191 0.504-0.382 0.99-0.576 1.464-0.132-0.044-0.266-0.086-0.398-0.127l0.974-1.337" fill="#231f20"/>
  </g>
  <g transform="matrix(7.4008 0 0 -7.4008 216.13 -33.835)">
   <path d="m0 0c0.032 0.267 0.066 0.534 0.101 0.8l-0.184 0.139c0.027-0.309 0.055-0.623 0.083-0.939" fill="#231f20"/>
  </g>
  <g transform="matrix(7.4008 0 0 -7.4008 224.77 -48.508)">
   <path d="m0 0c-1e-3 -1e-3 -0.179-0.251-0.167-0.369 0.165-0.09 1.593-0.239 1.593-0.231-0.473 0.201-0.948 0.4-1.426 0.6" fill="#231f20"/>
  </g>
  <g transform="matrix(7.4008 0 0 -7.4008 227.77 -51.26)">
   <path d="m0 0c0.222-0.147 0.447-0.294 0.668-0.446-0.173 0.185-0.347 0.368-0.522 0.547l-0.146-0.101" fill="#231f20"/>
  </g>
  <g transform="matrix(7.4008 0 0 -7.4008 145.51 -43.428)">
   <path d="m0 0 0.646-0.798-0.24 0.657z" fill="#464344"/>
  </g>
  <g transform="matrix(7.4008 0 0 -7.4008 238.82 -82.03)">
   <path d="m0 0c-0.093 0.117-0.212 0.23-0.341 0.307l-0.074 0.04-7e-3 4e-3 6e-3 0.186c-0.072 0.092-0.234 0.351-0.234 0.351l-0.05 0.199c-0.034 0.034-0.478 0.517-0.962 1.047 0.103 0.111 0.056 0.175 0.056 0.175l-0.396 0.403-0.068-0.131c-0.48 0.527-0.903 0.991-0.903 0.991s0.074 0.365-0.095 0.558c-0.171 0.191-0.339 0.382-0.39 0.412-0.049 0.031-0.354 0.091-0.531-0.024-0.147-0.097-0.527-0.467-0.383-0.696l0.333-0.42c0.209-0.184 0.463-0.234 0.538-0.251l0.679-0.783-0.03-0.115 0.247-0.321-0.079-0.494c-0.094-0.094-0.178-0.487-0.085-0.615l-0.169-0.972 0.083-0.135-1.21-5.047 0.538-0.057 1.286 5.026 0.097 0.106 0.178 0.918c0.073 0.098 0.116 0.139 0.161 0.252 0.022 0.063 0.018 0.179 0.01 0.275l0.522-0.601 0.584-0.365 0.131 4e-3 0.06-0.032 0.061-0.033c0.104-0.067 0.216-0.165 0.292-0.264 0.165-0.217 0.172-0.498 0.026-0.883-0.091-0.239-0.283-0.574-0.466-0.769l0.022-0.087-0.034-0.173c0.256 0.246 0.521 0.641 0.646 0.968 0.167 0.44 0.154 0.783-0.049 1.046" fill="#0e0d15"/>
  </g>
  <g transform="matrix(7.4008 0 0 -7.4008 226.1 -52.503)">
   <path d="m0 0s-1.21-1.253-3.425-1.795l0.28 0.228s1.699 0.402 2.985 1.623z" fill="#464344"/>
  </g>
  <g transform="matrix(7.4008 0 0 -7.4008 205.26 -83.377)">
   <path d="m0 0c-0.365 0.417-0.905 0.417-1.08 0.417h-0.276c-0.102 0-0.221-4e-3 -0.346-0.025h-1.05l0.333 2.367 0.105 0.746 0.097 0.68 2e-3 5e-3v5e-3c0.035 0.284 0.051 0.456 0.051 0.593 0 0.83-0.539 1.151-0.775 1.252-0.321 0.139-0.688 0.15-1.098 0.15-0.285 0-0.576 0-0.844-0.058-0.151-0.031-0.288-0.08-0.413-0.145l-0.123 0.059c-0.319 0.133-0.67 0.144-1.093 0.144-0.234 0-0.485 0-0.728-0.037-0.174 0.352-0.465 0.529-0.664 0.615-0.359 0.154-0.767 0.166-1.225 0.166h-2.032l-0.105-0.748-0.15-1.059c-0.094 0.405-0.352 0.716-0.736 0.88-0.329 0.143-0.694 0.154-1.102 0.154h-2.756l0.108 0.773h-5.262l-0.103-0.748-0.795-5.651-0.137-0.99h3.121c-0.082-0.214-0.114-0.416-0.132-0.535l-0.034-0.236c-0.029-0.184-0.035-0.349-0.026-0.498h-0.039l-0.21-1.461v-5e-3c-0.034-0.235-0.109-0.787 0.262-1.213 0.365-0.416 0.886-0.416 1.082-0.416h0.235c0.119 0 0.23 8e-3 0.331 0.023h1.863l0.02 0.142c0.304-0.165 0.626-0.165 0.771-0.165h0.274c0.117 0 0.232 8e-3 0.331 0.023h3.598c0.149-0.023 0.274-0.023 0.349-0.023h0.237c0.231 0 0.423 0.031 0.589 0.085l-6e-3 -0.044h7.383c0.149-0.025 0.273-0.025 0.353-0.025h0.272c1.327 0 1.476 1.043 1.53 1.385l0.307 2.201c0.032 0.236 0.107 0.789-0.264 1.217" fill="#231f20"/>
  </g>
  <g transform="matrix(7.4008 0 0 -7.4008 -1772.3 4710.4)">
   <path d="m256.8 655.1h-1.129l-0.054-0.376-0.104-0.739c-0.086 0.059-0.182 0.11-0.284 0.152-0.405 0.175-0.833 0.189-1.273 0.189h-2.259l0.041 0.279 0.068 0.495h-6.137l-0.052-0.376-0.106-0.746-0.792-5.652-0.139-0.99-0.07-0.493h3.063l-3e-3 -0.037-0.037-0.237-0.02-0.217-0.042-0.283-0.214-1.461v-5e-3c-0.035-0.271-0.134-0.984 0.369-1.561 0.492-0.564 1.181-0.564 1.408-0.564h0.236c0.126 0 0.248 9e-3 0.365 0.024h2.206l1e-3 6e-3c0.176-0.03 0.324-0.03 0.412-0.03h0.275c0.127 0 0.246 9e-3 0.365 0.024h3.53c0.166-0.024 0.308-0.024 0.382-0.024h0.238c0.161 0 0.315 0.013 0.461 0.04h7.471c0.17-0.024 0.307-0.024 0.386-0.024h0.272c0.892 0 1.361 0.409 1.6 0.753 0.265 0.387 0.328 0.803 0.357 1.003l0.31 2.203c0.037 0.273 0.136 0.988-0.369 1.564-0.324 0.376-0.799 0.567-1.404 0.567h-0.278c-0.139 0-0.259-0.01-0.376-0.027h-0.518l0.228 1.638 0.035 0.235 0.104 0.746 0.095 0.68 2e-3 6e-3v8e-3c0.044 0.305 0.06 0.491 0.06 0.65 0 1.119-0.792 1.545-1.038 1.651-0.4 0.172-0.831 0.186-1.272 0.186-0.308 0-0.623 0-0.935-0.067-0.112-0.023-0.219-0.054-0.32-0.096-0.382 0.149-0.778 0.163-1.218 0.163-0.158 0-0.327 0-0.505-0.013-0.222 0.295-0.502 0.462-0.715 0.555-0.436 0.185-0.89 0.201-1.396 0.201zm-0.857-1.182 0.107 0.747h2.031c0.458 0 0.866-0.012 1.224-0.166 0.2-0.085 0.49-0.263 0.665-0.613 0.243 0.036 0.493 0.036 0.727 0.036 0.423 0 0.774-0.011 1.093-0.145l0.123-0.059c0.125 0.065 0.262 0.114 0.413 0.146 0.268 0.058 0.559 0.058 0.844 0.058 0.41 0 0.777-0.011 1.098-0.151 0.236-0.1 0.776-0.421 0.776-1.251 0-0.137-0.017-0.309-0.051-0.593v-5e-3l-3e-3 -6e-3 -0.096-0.679-0.106-0.746-0.333-2.367h1.05c0.125 0.02 0.244 0.025 0.345 0.025h0.278c0.174 0 0.714 0 1.08-0.418 0.37-0.427 0.296-0.98 0.262-1.217l-0.306-2.2c-0.053-0.343-0.203-1.385-1.53-1.385h-0.272c-0.079 0-0.204 0-0.353 0.025h-7.382l5e-3 0.043c-0.166-0.054-0.358-0.085-0.588-0.085h-0.238c-0.074 0-0.199 0-0.349 0.023h-3.598c-0.099-0.014-0.213-0.023-0.33-0.023h-0.275c-0.145 0-0.467 0-0.77 0.164l-0.02-0.141h-1.864c-0.101-0.014-0.211-0.023-0.33-0.023h-0.236c-0.196 0-0.716 0-1.082 0.416-0.372 0.426-0.296 0.978-0.262 1.214v4e-3l0.21 1.462h0.04c-9e-3 0.148-3e-3 0.313 0.026 0.497l0.033 0.236c0.018 0.12 0.049 0.322 0.132 0.536h-3.121l0.137 0.989 0.795 5.652 0.103 0.747h5.262l-0.108-0.772h2.757c0.408 0 0.773-0.012 1.102-0.154 0.383-0.164 0.641-0.475 0.736-0.879z" fill="url(#linearGradient10928)"/>
  </g>
  <g transform="matrix(7.4008 0 0 -7.4008 -1772.3 4710.4)">
   <g clip-path="url(#clipPath10938)">
    <g transform="translate(245.54 647.74)">
     <path d="m0 0 0.907 6.464h2.118l-3e-3 -0.273 0.075 0.273h2.135l-0.109-0.773h1.819l-2e-3 -0.113 0.016 0.113h1.458c0.565 0 1.419 0 1.419-0.941 0-0.101-0.013-0.278-0.053-0.531l-0.398-2.859c-0.06-0.415-0.109-0.754-0.365-1.019-0.321-0.341-0.789-0.341-1.285-0.341zm16.661-0.036c-0.49 0-0.774 0.14-0.937 0.322-0.322-0.322-0.801-0.322-1.265-0.322-0.378 0-1.004 0-1.278 0.399-0.355-0.363-0.876-0.363-1.429-0.363h-1.749l0.902 6.464h1.633c0.637 0 1.498 0 1.576-0.89 0.288 0.149 0.645 0.149 1.041 0.149 0.412 0 0.931 0 1.211-0.31 0.319 0.31 0.76 0.31 1.262 0.31 0.561 0 1.41 0 1.41-0.942 0-0.115-0.015-0.293-0.045-0.531l-0.145-1.034h-5e-3l-0.451-3.216h-1.046l-0.033 0.083c-0.202-0.094-0.41-0.119-0.652-0.119" fill="#fff"/>
    </g>
    <g transform="translate(258.08 654.61)">
     <path d="m0 0h-1.987l-0.098-0.701-0.219-1.573 5e-3 0.154c0 1.347-1.326 1.347-1.826 1.347h-2.822l0.109 0.773h-5.146l-0.099-0.7-0.793-5.652-0.129-0.926h8.199c0.534 0 1.14 0 1.585 0.474 0.235 0.243 0.338 0.528 0.399 0.82l-0.052-0.368-0.129-0.926h2.216c0.485 0 0.982 0 1.404 0.242 0.438-0.278 1.035-0.278 1.303-0.278 0.414 0 0.87 0 1.26 0.219 0.223-0.131 0.527-0.219 0.943-0.219 0.153 0 0.3 0.01 0.443 0.036h1.64l0.099 0.7 0.351 2.505 2e-3 0.011h4e-3l0.098 0.7 0.096 0.678c0.035 0.277 0.05 0.456 0.05 0.594 0 1.349-1.273 1.349-1.816 1.349-0.419 0-0.876 0-1.264-0.214-0.405 0.214-0.915 0.214-1.21 0.214-0.243 0-0.502 0-0.752-0.044-0.356 0.785-1.377 0.785-1.864 0.785m4.685-5.454-1e-3 -0.013v-3e-3l1e-3 0.016m-11.43 2.625h-0.039l-0.395-1.881h0.311l0.123 1.881m0.735 1.243-0.091-4.879h-0.905l0.067 0.961h-0.399l-0.21-0.961h-0.898l1.277 4.879h1.159m1.263-4.097c0.203 0 0.213 0.078 0.242 0.301l0.38 2.703c0.017 0.102 0.022 0.156 0.022 0.168 0 0.115-0.053 0.15-0.188 0.15l-0.089-5e-3 -0.463-3.311 0.096-6e-3m0.622 4.097c0.677 0 1.013-0.04 1.013-0.534 0-0.09-0.012-0.246-0.048-0.469l-0.399-2.865c-0.052-0.368-0.086-0.619-0.255-0.793-0.193-0.206-0.498-0.218-0.992-0.218h-1.107l0.685 4.879h1.103m6.159-4.109c0.129 0 0.161 0.084 0.181 0.246l0.401 2.854 0.015 0.096c0 0.103-0.043 0.145-0.144 0.145-0.125 0-0.149-0.091-0.169-0.241l-0.404-2.854-5e-3 -0.101c0-0.103 0.033-0.145 0.125-0.145m0.582 4.141c0.68 0 1.007-0.032 1.007-0.53 0-0.12-0.016-0.277-0.043-0.481l-0.415-2.914c-0.051-0.361-0.08-0.619-0.254-0.805-0.185-0.199-0.49-0.217-0.991-0.217-0.655 0-1.006 0.056-1.006 0.487 0 0.126 0.012 0.307 0.047 0.535l0.406 2.914c0.052 0.355 0.084 0.612 0.243 0.786 0.194 0.217 0.509 0.225 1.006 0.225m2.474 0c0.683 0 1.003-0.037 1.003-0.536 0-0.103-0.014-0.264-0.041-0.48l-0.096-0.679h-0.96l0.094 0.648 0.011 0.102c0 0.109-0.041 0.145-0.141 0.145-0.131 0-0.15-0.097-0.17-0.247l-0.401-2.853-6e-3 -0.096c0-0.098 0.03-0.146 0.116-0.146l0.013 1e-3c0.109 5e-3 0.164 0.155 0.172 0.225v-0.01 0.013l1e-3 0.013 0.105 0.709h-0.131l0.112 0.785h1.08l-0.351-2.505h-0.418l-0.129 0.325c-0.271-0.301-0.469-0.361-0.83-0.361-0.494 0-0.737 0.15-0.737 0.512 0 0.083 0.011 0.258 0.046 0.504l0.407 2.915c0.044 0.331 0.09 0.57 0.193 0.727 0.192 0.281 0.508 0.289 1.058 0.289m-12.864 0.741-0.799-5.652h-0.998l0.462 3.259h-0.047l-0.852-3.259h-0.624l0.058 3.259h-0.038l-0.456-3.259h-1.003l0.793 5.652h1.354l-0.031-2.86h0.047l0.777 2.86h1.357m7.052-4.747c0.235 0 0.253 0.091 0.285 0.347l0.437 3.134c0.019 0.119 0.026 0.182 0.026 0.195 0 0.132-0.059 0.174-0.215 0.174l-0.107-8e-3 -0.536-3.834 0.11-8e-3m0.722 4.747c0.788 0 1.176-0.047 1.176-0.619 0-0.105-0.017-0.286-0.056-0.543l-0.463-3.319c-0.061-0.425-0.1-0.718-0.296-0.92-0.223-0.236-0.576-0.251-1.148-0.251h-1.282l0.789 5.652h1.28" fill="#231f20"/>
    </g>
   </g>
  </g>
  <g transform="matrix(7.4008 0 0 -7.4008 -1772.3 4710.4)">
   <path d="m246.75 649.87c-0.164-0.01-0.413 0.01-0.413 0.01l-0.231-1.618 0.839 8e-3 0.246 1.748s-0.276-0.138-0.441-0.148" fill="url(#linearGradient10972)"/>
  </g>
  <g transform="matrix(7.4008 0 0 -7.4008 -1772.3 4710.4)">
   <path d="m248.08 650.2c-0.343-0.223-0.496-0.139-0.496-0.139l-0.028-1.811 0.459-0.019 0.533 1.959s-0.059 0.106-0.201 0.106c-0.069 0-0.157-0.025-0.267-0.096" fill="url(#linearGradient11000)"/>
  </g>
  <g transform="matrix(7.4008 0 0 -7.4008 -1772.3 4710.4)">
   <path d="m248.56 648.19h0.892l0.257 1.811c-0.043 9e-3 -0.139-3e-3 -0.238-0.014l-0.241-0.015c-0.128 9e-3 -0.378 0.121-0.378 0.121z" fill="url(#linearGradient11028)"/>
  </g>
  <g transform="matrix(7.4008 0 0 -7.4008 -1772.3 4710.4)">
   <path d="m249.71 648.25h0.754l0.201 0.916 0.536-8e-3 -0.03-0.896h0.698l0.059 1.653c-0.093 0-0.555-0.11-0.977-0.129-0.424-0.017-0.793 0.192-0.793 0.192z" fill="url(#linearGradient11056)"/>
  </g>
  <g transform="matrix(7.4008 0 0 -7.4008 -1772.3 4710.4)">
   <path d="m254.31 650.11c-0.203 9e-3 -0.522-0.026-0.522-0.026l-0.159-0.989c-0.066-0.261-0.246-0.204-0.246-0.204h-0.208l0.141 1.213s-0.338-0.02-0.448-0.096c-0.109-0.071-0.355-0.056-0.355-0.056l-0.28-1.764 1.41 0.014c0.708 6e-3 0.753 0.581 0.753 0.581l0.2 1.402s-0.086-0.081-0.286-0.075" fill="url(#linearGradient11084)"/>
  </g>
  <g transform="matrix(7.4008 0 0 -7.4008 -1772.3 4710.4)">
   <path d="m256.84 650.12c-0.345-0.13-0.48 0.021-0.48 0.021l-0.234-1.851 1.777 0.021s0.499 0.088 0.649 0.502l0.197 1.459c-9e-3 -4e-3 -0.63-0.218-0.911-0.174l-0.174-1.111s-0.348-0.261-0.585-0.196l0.217 1.481s-0.107-0.022-0.456-0.152" fill="url(#linearGradient11112)"/>
  </g>
  <g transform="matrix(7.4008 0 0 -7.4008 -1772.3 4710.4)">
   <path d="m259.76 650.4c-0.303-0.196-0.498-0.086-0.498-0.086s-0.14-1.103-0.196-1.569c-0.066-0.566 0.475-0.523 0.475-0.523l0.675-0.022c0.76-0.045 0.869 0.565 0.869 0.565l0.238 1.504s-0.259 0.065-0.432 0.153c-0.175 0.089-0.328 0-0.328 0s-0.151-1.155-0.214-1.373c-0.067-0.217-0.264-0.217-0.264-0.217-0.17 0-0.17 0.197-0.17 0.197l0.15 1.436-0.057 0.043c-0.042 0-0.117-0.024-0.248-0.108" fill="url(#linearGradient11140)"/>
  </g>
  <g transform="matrix(7.4008 0 0 -7.4008 -1772.3 4710.4)">
   <path d="m262.91 650.54-0.089-0.585 0.118-4e-3 -0.097-0.72c-0.023-0.478-0.302-0.413-0.302-0.413-0.216 0.016-0.152 0.37-0.152 0.37l0.195 1.331s-0.087 0.086-0.387-0.197c-0.306-0.283-0.459-0.087-0.459-0.087l-0.172-1.134s-0.218-0.675 0.216-0.806c0.435-0.132 0.889 0.021 0.889 0.021l0.392 0.306 0.173-0.218h0.261l0.304 2.158z" fill="url(#linearGradient11168)"/>
  </g>
  <g transform="matrix(7.4008 0 0 -7.4008 -1772.3 4710.4)">
   <g clip-path="url(#clipPath11178)">
    <g transform="translate(257.12 644.86)">
     <path d="m0 0c0.032 0.217-0.028 0.315-0.234 0.55-0.244 0.313-0.363 0.502-0.294 0.971l0.033 0.237c0.076 0.499 0.211 0.648 0.669 0.648h0.236c0.456 0 0.546-0.149 0.48-0.648l-0.077-0.566h-0.605l0.062 0.496-0.044 0.104h-0.013l-0.075-0.093-0.028-0.235c-0.035-0.216 0.021-0.315 0.229-0.555 0.246-0.309 0.363-0.496 0.295-0.967l-0.053-0.378c-0.074-0.501-0.207-0.643-0.662-0.643h-0.237c-0.455 0-0.553 0.142-0.484 0.643l0.101 0.716h0.605l-0.094-0.647 0.045-0.103h0.014l0.073 0.103zm-1.952-1.055 0.394 2.826h-0.274l0.082 0.61h1.199l-0.088-0.61h-0.272l-0.397-2.826zm-0.691 2.719-0.049 0.103h-0.075l-0.113-0.8h0.075l0.076 0.104zm0.329-2.252c-0.026-0.172-0.035-0.335 9e-3 -0.467h-0.662c-0.041 0.084-0.022 0.247 0 0.413l0.117 0.849c0.014 0.092-3e-3 0.147-0.078 0.147h-0.035l-0.197-1.409h-0.648l0.482 3.436h0.856c0.456 0 0.554-0.148 0.478-0.649l-0.067-0.474c-0.055-0.365-0.137-0.531-0.349-0.601 0.195-0.068 0.228-0.244 0.184-0.606zm-1.962 2.276-0.052 0.104h-8e-3l-0.079-0.104-0.288-2.055 0.048-0.103h9e-3l0.08 0.103zm-0.772 0.07c0.069 0.499 0.212 0.648 0.668 0.648h0.272c0.46 0 0.554-0.149 0.488-0.648l-0.309-2.194c-0.074-0.501-0.211-0.643-0.667-0.643h-0.275c-0.456 0-0.557 0.142-0.489 0.643zm-0.977 9e-3 -0.14-1.022h0.073l0.078 0.105 0.112 0.814-0.048 0.103zm-0.558 0.614h0.852c0.456 0 0.552-0.148 0.482-0.649l-0.133-0.952c-0.068-0.494-0.209-0.642-0.668-0.642h-0.2l-0.166-1.193h-0.648zm-1.19-2.381c0.033 0.217-0.026 0.315-0.233 0.55-0.247 0.313-0.362 0.502-0.297 0.971l0.036 0.237c0.075 0.499 0.209 0.648 0.667 0.648h0.237c0.455 0 0.548-0.149 0.48-0.648l-0.081-0.566h-0.603l0.064 0.496-0.043 0.104h-0.015l-0.072-0.093-0.031-0.235c-0.035-0.216 0.026-0.315 0.23-0.555 0.246-0.309 0.363-0.496 0.297-0.967l-0.055-0.378c-0.073-0.501-0.207-0.643-0.663-0.643h-0.236c-0.454 0-0.553 0.142-0.484 0.643l0.102 0.716h0.605l-0.095-0.647 0.045-0.103h0.015l0.072 0.103zm16.6 1.706-0.048 0.102h-0.01l-0.079-0.102-0.289-2.056 0.052-0.104h8e-3l0.08 0.104zm-0.768 0.067c0.069 0.502 0.211 0.649 0.667 0.649h0.277c0.454 0 0.553-0.147 0.485-0.649l-0.311-2.192c-0.073-0.502-0.21-0.643-0.668-0.643h-0.272c-0.458 0-0.555 0.141-0.486 0.643zm-0.877 0.625h0.647l-0.482-3.437h-0.648zm-1.19-0.615-0.311-2.212h0.077l0.073 0.102 0.282 2.007-0.048 0.103zm-0.558 0.615h0.854c0.454 0 0.549-0.148 0.48-0.649l-0.3-2.144c-0.068-0.5-0.206-0.644-0.662-0.644h-0.853zm-1.478-2.45h0.165c0.058 0.634 0.105 1.183 0.17 1.778-0.106-0.595-0.212-1.144-0.335-1.778m0.123-0.569h-0.241l-0.077-0.418h-0.589l0.795 3.437h0.888l-0.168-3.437h-0.643zm-1.419 2.301-0.049 0.103h-0.072l-0.114-0.798h0.073l0.074 0.103zm0.33-2.252c-0.023-0.172-0.034-0.333 9e-3 -0.467h-0.663c-0.037 0.085-0.022 0.247 0 0.413l0.116 0.849c0.017 0.094-1e-3 0.148-0.075 0.148h-0.036l-0.195-1.41h-0.647l0.48 3.437h0.853c0.456 0 0.555-0.148 0.482-0.649l-0.069-0.476c-0.053-0.364-0.137-0.53-0.349-0.599 0.197-0.068 0.23-0.244 0.182-0.608z" fill="#fff"/>
    </g>
    <g transform="translate(257.12 644.86)">
     <path d="m0 0c0.032 0.217-0.028 0.315-0.234 0.55-0.244 0.313-0.363 0.502-0.294 0.971l0.033 0.237c0.076 0.499 0.211 0.648 0.669 0.648h0.236c0.456 0 0.546-0.149 0.48-0.648l-0.077-0.566h-0.605l0.062 0.496-0.044 0.104h-0.013l-0.075-0.093-0.028-0.235c-0.035-0.216 0.021-0.315 0.229-0.555 0.246-0.309 0.363-0.496 0.295-0.967l-0.053-0.378c-0.074-0.501-0.207-0.643-0.662-0.643h-0.237c-0.455 0-0.553 0.142-0.484 0.643l0.101 0.716h0.605l-0.094-0.647 0.045-0.103h0.014l0.073 0.103zm-1.952-1.055 0.394 2.826h-0.274l0.082 0.61h1.199l-0.088-0.61h-0.272l-0.397-2.826zm-0.691 2.719-0.049 0.103h-0.075l-0.113-0.8h0.075l0.076 0.104zm0.329-2.252c-0.026-0.172-0.035-0.335 9e-3 -0.467h-0.662c-0.041 0.084-0.022 0.247 0 0.413l0.117 0.849c0.014 0.092-3e-3 0.147-0.078 0.147h-0.035l-0.197-1.409h-0.648l0.482 3.436h0.856c0.456 0 0.554-0.148 0.478-0.649l-0.067-0.474c-0.055-0.365-0.137-0.531-0.349-0.601 0.195-0.068 0.228-0.244 0.184-0.606zm-1.962 2.276-0.052 0.104h-8e-3l-0.079-0.104-0.288-2.055 0.048-0.103h9e-3l0.08 0.103zm-0.772 0.07c0.069 0.499 0.212 0.648 0.668 0.648h0.272c0.46 0 0.554-0.149 0.488-0.648l-0.309-2.194c-0.074-0.501-0.211-0.643-0.667-0.643h-0.275c-0.456 0-0.557 0.142-0.489 0.643zm-0.977 9e-3 -0.14-1.022h0.073l0.078 0.105 0.112 0.814-0.048 0.103zm-0.558 0.614h0.852c0.456 0 0.552-0.148 0.482-0.649l-0.133-0.952c-0.068-0.494-0.209-0.642-0.668-0.642h-0.2l-0.166-1.193h-0.648zm-1.19-2.381c0.033 0.217-0.026 0.315-0.233 0.55-0.247 0.313-0.362 0.502-0.297 0.971l0.036 0.237c0.075 0.499 0.209 0.648 0.667 0.648h0.237c0.455 0 0.548-0.149 0.48-0.648l-0.081-0.566h-0.603l0.064 0.496-0.043 0.104h-0.015l-0.072-0.093-0.031-0.235c-0.035-0.216 0.026-0.315 0.23-0.555 0.246-0.309 0.363-0.496 0.297-0.967l-0.055-0.378c-0.073-0.501-0.207-0.643-0.663-0.643h-0.236c-0.454 0-0.553 0.142-0.484 0.643l0.102 0.716h0.605l-0.095-0.647 0.045-0.103h0.015l0.072 0.103zm16.6 1.706-0.048 0.102h-0.01l-0.079-0.102-0.289-2.056 0.052-0.104h8e-3l0.08 0.104zm-0.768 0.067c0.069 0.502 0.211 0.649 0.667 0.649h0.277c0.454 0 0.553-0.147 0.485-0.649l-0.311-2.192c-0.073-0.502-0.21-0.643-0.668-0.643h-0.272c-0.458 0-0.555 0.141-0.486 0.643zm-0.877 0.625h0.647l-0.482-3.437h-0.648zm-1.19-0.615-0.311-2.212h0.077l0.073 0.102 0.282 2.007-0.048 0.103zm-0.558 0.615h0.854c0.454 0 0.549-0.148 0.48-0.649l-0.3-2.144c-0.068-0.5-0.206-0.644-0.662-0.644h-0.853zm-1.478-2.45h0.165c0.058 0.634 0.105 1.183 0.17 1.778-0.106-0.595-0.212-1.144-0.335-1.778zm0.123-0.569h-0.241l-0.077-0.418h-0.589l0.795 3.437h0.888l-0.168-3.437h-0.643zm-1.419 2.301-0.049 0.103h-0.072l-0.114-0.798h0.073l0.074 0.103zm0.33-2.252c-0.023-0.172-0.034-0.333 9e-3 -0.467h-0.663c-0.037 0.085-0.022 0.247 0 0.413l0.116 0.849c0.017 0.094-1e-3 0.148-0.075 0.148h-0.036l-0.195-1.41h-0.647l0.48 3.437h0.853c0.456 0 0.555-0.148 0.482-0.649l-0.069-0.476c-0.053-0.364-0.137-0.53-0.349-0.599 0.197-0.068 0.23-0.244 0.182-0.608z" fill="none" stroke="#231f20" stroke-width="1.626"/>
    </g>
    <g transform="translate(259.78 646.54)">
     <path d="m0 0-0.049 0.103h-0.072l-0.114-0.798h0.073l0.074 0.102zm0.33-2.252c-0.023-0.172-0.034-0.334 9e-3 -0.467h-0.663c-0.037 0.084-0.022 0.247 0 0.412l0.116 0.85c0.017 0.094-2e-3 0.148-0.075 0.148h-0.036l-0.195-1.41h-0.647l0.48 3.437h0.853c0.456 0 0.555-0.148 0.482-0.649l-0.069-0.476c-0.053-0.364-0.138-0.53-0.349-0.599 0.197-0.069 0.23-0.244 0.182-0.608z" fill="#d0182b"/>
    </g>
    <g transform="translate(261.08 644.81)">
     <path d="m0 0h0.165c0.058 0.633 0.105 1.183 0.17 1.778-0.106-0.595-0.212-1.145-0.335-1.778m0.123-0.569h-0.241l-0.077-0.418h-0.588l0.794 3.436h0.888l-0.168-3.436h-0.642z" fill="#d0182b"/>
    </g>
    <g transform="translate(263.11 646.65)">
     <path d="m0 0-0.311-2.212h0.077l0.073 0.102 0.282 2.007-0.048 0.103zm-0.558 0.614h0.854c0.454 0 0.549-0.147 0.48-0.648l-0.3-2.144c-0.068-0.5-0.206-0.644-0.662-0.644h-0.853z" fill="#d0182b"/>
    </g>
    <g transform="translate(264.3 647.26)">
     <path d="m0 0h0.647l-0.482-3.436h-0.648z" fill="#d0182b"/>
    </g>
    <g transform="translate(265.95 646.57)">
     <path d="m0 0-0.048 0.102h-0.01l-0.08-0.102-0.289-2.056 0.052-0.103h9e-3l0.079 0.103zm-0.769 0.067c0.07 0.503 0.212 0.649 0.668 0.649h0.276c0.454 0 0.553-0.146 0.485-0.649l-0.31-2.192c-0.074-0.501-0.21-0.643-0.668-0.643h-0.272c-0.458 0-0.555 0.142-0.487 0.643z" fill="#d0182b"/>
    </g>
    <g transform="translate(249.35 644.86)">
     <path d="m0 0c0.032 0.217-0.026 0.315-0.234 0.55-0.246 0.313-0.362 0.502-0.296 0.971l0.036 0.237c0.075 0.499 0.209 0.648 0.667 0.648h0.237c0.455 0 0.548-0.149 0.48-0.648l-0.082-0.566h-0.602l0.064 0.496-0.044 0.104h-0.014l-0.072-0.093-0.032-0.235c-0.034-0.216 0.026-0.315 0.231-0.555 0.246-0.309 0.363-0.496 0.296-0.967l-0.054-0.378c-0.073-0.501-0.208-0.643-0.663-0.643h-0.236c-0.454 0-0.553 0.142-0.484 0.643l0.102 0.716h0.605l-0.095-0.647 0.045-0.103h0.015l0.072 0.103z" fill="#d0182b"/>
    </g>
    <g transform="translate(251.1 646.63)">
     <path d="m0 0-0.14-1.021h0.073l0.079 0.104 0.111 0.815-0.048 0.102zm-0.557 0.614h0.851c0.456 0 0.552-0.148 0.482-0.648l-0.132-0.952c-0.068-0.495-0.21-0.642-0.669-0.642h-0.199l-0.166-1.194h-0.649z" fill="#d0182b"/>
    </g>
    <g transform="translate(252.84 646.55)">
     <path d="m0 0-0.052 0.104h-7e-3l-0.08-0.104-0.288-2.056 0.048-0.103h9e-3l0.08 0.103zm-0.772 0.069c0.069 0.5 0.212 0.648 0.668 0.648h0.272c0.46 0 0.554-0.148 0.488-0.648l-0.309-2.193c-0.074-0.501-0.211-0.644-0.667-0.644h-0.275c-0.455 0-0.557 0.143-0.489 0.644z" fill="#d0182b"/>
    </g>
    <g transform="translate(254.48 646.53)">
     <path d="m0 0-0.049 0.102h-0.074l-0.114-0.8h0.075l0.077 0.105zm0.33-2.252c-0.026-0.172-0.036-0.336 8e-3 -0.468h-0.661c-0.041 0.084-0.022 0.247 0 0.414l0.117 0.849c0.013 0.092-4e-3 0.147-0.079 0.147h-0.034l-0.197-1.41h-0.648l0.482 3.436h0.855c0.456 0 0.554-0.147 0.478-0.648l-0.067-0.475c-0.054-0.364-0.136-0.53-0.348-0.6 0.195-0.068 0.227-0.245 0.183-0.607z" fill="#d0182b"/>
    </g>
    <g transform="translate(255.17 643.81)">
     <path d="m0 0 0.393 2.826h-0.273l0.081 0.61h1.2l-0.089-0.61h-0.271l-0.397-2.826z" fill="#d0182b"/>
    </g>
    <g transform="translate(257.12 644.86)">
     <path d="m0 0c0.032 0.217-0.028 0.315-0.234 0.55-0.244 0.313-0.363 0.502-0.294 0.971l0.033 0.237c0.076 0.499 0.211 0.648 0.669 0.648h0.236c0.456 0 0.546-0.149 0.48-0.648l-0.077-0.566h-0.605l0.062 0.496-0.044 0.104h-0.013l-0.075-0.093-0.028-0.235c-0.035-0.216 0.021-0.315 0.229-0.555 0.246-0.309 0.363-0.496 0.295-0.967l-0.053-0.378c-0.074-0.501-0.207-0.643-0.662-0.643h-0.237c-0.455 0-0.553 0.142-0.484 0.643l0.101 0.716h0.605l-0.094-0.647 0.045-0.103h0.014l0.073 0.103z" fill="#d0182b"/>
    </g>
   </g>
  </g>
  <g transform="matrix(7.4008 0 0 -7.4008 -1772.3 4710.4)">
   <path d="m249.26 645.34c0.13-0.164 0.182-0.282 0.153-0.484l-0.058-0.369c-8e-3 -0.049-0.023-0.158-0.136-0.158h-0.015l-0.085 0.036-0.022 0.139 0.083 0.578h-0.477l-0.097-0.664c-0.033-0.256-0.02-0.397 0.045-0.473 0.06-0.067 0.174-0.097 0.38-0.097h0.236c0.415 0 0.53 0.112 0.601 0.59l0.054 0.377c0.02 0.146 0.022 0.262 0.011 0.362l-0.116-0.019-0.205 0.06-0.202 0.118-0.082 9e-3z" fill="url(#linearGradient11256)"/>
  </g>
  <g transform="matrix(7.4008 0 0 -7.4008 -1772.3 4710.4)">
   <path d="m250.36 645.25-0.037-4e-3 -0.194-1.373h0.521l0.159 1.138 6e-3 0.055h0.256c0.247 0 0.387 0.039 0.478 0.165l-0.234-0.061c-0.122-0.017-0.263-7e-3 -0.382 8e-3 -0.147 0.022-0.281 0.069-0.432 0.069l-0.083 3e-3z" fill="url(#linearGradient11284)"/>
  </g>
  <g transform="matrix(7.4008 0 0 -7.4008 -1772.3 4710.4)">
   <path d="m251.83 644.42c-0.039-0.256-0.026-0.397 0.04-0.473 0.061-0.067 0.178-0.097 0.381-0.097h0.275c0.415 0 0.535 0.116 0.603 0.59l0.093 0.65-0.194 0.027c-0.114 0.042-0.182 0.072-0.31 0.048h-7e-3l-0.093-0.675c-6e-3 -0.043-0.021-0.159-0.143-0.159h-8e-3l-0.091 0.037-0.02 0.138 0.087 0.621-0.062-2e-3c-0.139 5e-3 -0.227 0.055-0.352 0.101l-0.087 0.017z" fill="url(#linearGradient11312)"/>
  </g>
  <g transform="matrix(7.4008 0 0 -7.4008 -1772.3 4710.4)">
   <path d="m254.33 645.06-0.117-0.847c-9e-3 -0.071-0.035-0.244-0.016-0.341h0.532c-0.022 0.133-8e-3 0.281 0.011 0.412l0.085 0.638 0.017 0.123-0.111-0.012c-0.13 5e-3 -0.208 0.052-0.325 0.087l-0.072 0.014z" fill="url(#linearGradient11340)"/>
  </g>
  <g transform="matrix(7.4008 0 0 -7.4008 -1772.3 4710.4)">
   <path d="m253.57 645.16-0.178-1.289h0.521l0.167 1.222h-3e-3c-0.113-0.021-0.224-4e-3 -0.323 0.036l-0.161 0.032z" fill="url(#linearGradient11368)"/>
  </g>
  <g transform="matrix(7.4008 0 0 -7.4008 -1772.3 4710.4)">
   <path d="m255.43 645.12h-0.013l-0.176-1.25h0.518l0.169 1.208c-0.102-0.02-0.218-0.017-0.277-6e-3l-0.214 0.048z" fill="url(#linearGradient11396)"/>
  </g>
  <g transform="matrix(7.4008 0 0 -7.4008 -1772.3 4710.4)">
   <path d="m257.18 645.21-0.058-7e-3c0.061-0.105 0.081-0.206 0.063-0.35l-0.063-0.369c-6e-3 -0.049-0.021-0.158-0.135-0.158h-0.014l-0.085 0.036-0.023 0.139 0.084 0.578h-0.475l-0.096-0.664c-0.036-0.256-0.024-0.397 0.04-0.473 0.059-0.067 0.18-0.097 0.381-0.097h0.238c0.416 0 0.527 0.112 0.599 0.59l0.052 0.377c0.019 0.116 0.023 0.213 0.016 0.299-0.113-0.013-0.23 3e-3 -0.312 0.043l-0.201 0.056z" fill="url(#linearGradient11424)"/>
  </g>
  <g transform="matrix(7.4008 0 0 -7.4008 -1772.3 4710.4)">
   <path d="m258.69 643.89h0.524l0.169 1.217-0.082-0.014c-0.124-0.014-0.276 0.094-0.421 0.148zm0.98 1.311-0.034-7e-3 2e-3 -0.116-0.117-0.848c-0.012-0.07-0.037-0.244-0.017-0.34h0.537c-0.027 0.133-0.013 0.28 7e-3 0.412l0.089 0.637 0.018 0.177-0.063 0.027c-0.101 0.05-0.186 0.071-0.279 0.071zm5.608-0.041c-0.102-0.04-0.177-0.09-0.26-0.123l-0.086-0.602c-0.034-0.255-0.021-0.398 0.045-0.473 0.058-0.068 0.176-0.096 0.381-0.096h0.272c0.42 0 0.536 0.116 0.607 0.588l0.102 0.733c-0.147-0.054-0.289-0.094-0.424-0.062l-0.101 0.028-0.091-0.649c-4e-3 -0.044-0.021-0.156-0.141-0.156h-8e-3l-0.088 0.035-0.025 0.138 0.097 0.69-0.044 2e-3zm-4.393-0.053-0.247-0.064-0.268-1.153h0.456l0.072 0.365 7e-3 0.052h0.365l-6e-3 -0.069-0.029-0.348h0.515l0.053 1.138-0.112 0.011c-0.132 0.02-0.246 0.059-0.356 0.084-9e-3 -0.103-0.019-0.207-0.029-0.315l-4e-3 -0.06h-0.298l0.01 0.077 0.035 0.175 0.027 0.146zm2.198-0.085-0.068-0.493c-5e-3 -0.052-0.022-0.157-0.136-0.157h-0.147l0.013 0.072 0.072 0.538c-0.102 0.013-0.18 0.059-0.285 0.087l-0.218 0.019-0.167-1.198h0.78c0.417 0 0.534 0.115 0.599 0.587l0.087 0.606-0.139 0.029-0.031 1e-3c-0.117 0-0.24-0.052-0.36-0.091m0.97 0.013-0.16-1.145h0.518l0.16 1.128-0.23 0.037-0.071 4e-3z" fill="url(#linearGradient11452)"/>
  </g>
 </g>
</svg>
