<svg width="800" height="253.82" version="1.1" viewBox="0 0 211.67 67.157" xmlns="http://www.w3.org/2000/svg">
 <defs>
  <linearGradient id="linearGradient13176" x2="1" gradientTransform="matrix(0 -4.0525 -4.0525 0 276.07 623.11)" gradientUnits="userSpaceOnUse">
   <stop stop-color="#fab20b" offset="0"/>
   <stop stop-color="#bd3627" offset=".65168"/>
   <stop stop-color="#bd3627" offset="1"/>
  </linearGradient>
  <linearGradient id="linearGradient13154" x2="1" gradientTransform="matrix(0 -4.0525 -4.0525 0 271.39 623.11)" gradientUnits="userSpaceOnUse">
   <stop stop-color="#fab20b" offset="0"/>
   <stop stop-color="#bd3627" offset=".65168"/>
   <stop stop-color="#bd3627" offset="1"/>
  </linearGradient>
  <linearGradient id="linearGradient13132" x2="1" gradientTransform="matrix(0 -4.0525 -4.0525 0 266.47 623.11)" gradientUnits="userSpaceOnUse">
   <stop stop-color="#fab20b" offset="0"/>
   <stop stop-color="#bd3627" offset=".65168"/>
   <stop stop-color="#bd3627" offset="1"/>
  </linearGradient>
  <linearGradient id="linearGradient13110" x2="1" gradientTransform="matrix(0 -4.0525 -4.0525 0 262.37 623.11)" gradientUnits="userSpaceOnUse">
   <stop stop-color="#fab20b" offset="0"/>
   <stop stop-color="#bd3627" offset=".65168"/>
   <stop stop-color="#bd3627" offset="1"/>
  </linearGradient>
  <linearGradient id="linearGradient13088" x2="1" gradientTransform="matrix(0 -4.0541 -4.0541 0 258.01 623.11)" gradientUnits="userSpaceOnUse">
   <stop stop-color="#fab20b" offset="0"/>
   <stop stop-color="#bd3627" offset=".65168"/>
   <stop stop-color="#bd3627" offset="1"/>
  </linearGradient>
  <linearGradient id="linearGradient13066" x2="1" gradientTransform="matrix(0 -4.0541 -4.0541 0 253.23 623.11)" gradientUnits="userSpaceOnUse">
   <stop stop-color="#fab20b" offset="0"/>
   <stop stop-color="#bd3627" offset=".65168"/>
   <stop stop-color="#bd3627" offset="1"/>
  </linearGradient>
  <clipPath id="clipPath12898">
   <path d="m0 0h612v792h-612z"/>
  </clipPath>
  <clipPath id="clipPath12886">
   <path d="m0 0h612v792h-612z"/>
  </clipPath>
  <linearGradient id="linearGradient12876" x2="1" gradientTransform="matrix(0 -4.426 -4.426 0 276.23 623.27)" gradientUnits="userSpaceOnUse">
   <stop stop-color="#fab20b" offset="0"/>
   <stop stop-color="#bd3627" offset=".65168"/>
   <stop stop-color="#bd3627" offset="1"/>
  </linearGradient>
  <clipPath id="clipPath12852">
   <path d="m0 0h612v792h-612z"/>
  </clipPath>
  <linearGradient id="linearGradient12842" x2="1" gradientTransform="matrix(0 -4.3034 -4.3034 0 271.35 623.22)" gradientUnits="userSpaceOnUse">
   <stop stop-color="#fab20b" offset="0"/>
   <stop stop-color="#bd3627" offset=".65168"/>
   <stop stop-color="#bd3627" offset="1"/>
  </linearGradient>
  <clipPath id="clipPath12818">
   <path d="m0 0h612v792h-612z"/>
  </clipPath>
  <linearGradient id="linearGradient12808" x2="1" gradientTransform="matrix(0 -4.4822 -4.4822 0 266.28 623.32)" gradientUnits="userSpaceOnUse">
   <stop stop-color="#fab20b" offset="0"/>
   <stop stop-color="#bd3627" offset=".65168"/>
   <stop stop-color="#bd3627" offset="1"/>
  </linearGradient>
  <clipPath id="clipPath12784">
   <path d="m0 0h612v792h-612z"/>
  </clipPath>
  <linearGradient id="linearGradient12774" x2="1" gradientTransform="matrix(0 -4.4348 -4.4348 0 262.53 623.25)" gradientUnits="userSpaceOnUse">
   <stop stop-color="#fab20b" offset="0"/>
   <stop stop-color="#bd3627" offset=".65168"/>
   <stop stop-color="#bd3627" offset="1"/>
  </linearGradient>
  <clipPath id="clipPath12750">
   <path d="m0 0h612v792h-612z"/>
  </clipPath>
  <linearGradient id="linearGradient12740" x2="1" gradientTransform="matrix(0 -4.6213 -4.6213 0 258.35 623.38)" gradientUnits="userSpaceOnUse">
   <stop stop-color="#fab20b" offset="0"/>
   <stop stop-color="#bd3627" offset=".65168"/>
   <stop stop-color="#bd3627" offset="1"/>
  </linearGradient>
  <clipPath id="clipPath12716">
   <path d="m0 0h612v792h-612z"/>
  </clipPath>
  <linearGradient id="linearGradient12706" x2="1" gradientTransform="matrix(0 -4.5928 -4.5928 0 253.45 623.35)" gradientUnits="userSpaceOnUse">
   <stop stop-color="#fab20b" offset="0"/>
   <stop stop-color="#bd3627" offset=".65168"/>
   <stop stop-color="#bd3627" offset="1"/>
  </linearGradient>
 </defs>
 <g transform="translate(126.78 97.078)">
  <g transform="matrix(5.225 0 0 -5.225 -1374.6 3184.4)">
   <path d="m252.99 623.38h-0.351l-0.189-0.11-0.174-0.043-0.742-0.647-0.119-0.08-0.09-0.132-0.115-0.396v-0.131l-0.115-0.153 0.013-0.089-0.057-1.215 0.057-0.116 0.049-0.281 0.039-0.048 0.12-0.222 0.099-0.096 0.146-0.293h0.073l0.276-0.188 0.035-0.085 0.386-0.278 0.282-0.035 0.026-0.071 0.438-5e-3 0.221-0.093 0.718 0.065 0.137 0.053 0.275 0.022 0.362 0.284 0.139 0.038 0.48 0.573 0.146 0.15 0.088 0.336 0.147 0.186-0.032 0.293 0.086 0.231-0.133 0.621 0.047 0.109-0.028 0.091-0.106 0.081v0.121l0.033 0.145-0.033 0.036-0.069 0.26-0.233 0.275-0.021 0.085-0.372 0.367-0.057 0.023-0.225 0.196-0.16 0.038-0.31 0.119-0.348 0.05-0.6 0.034zm1.075-0.216 0.036 0.035 0.17-0.059-0.056-0.104zm0.222-0.169h0.094l0.05-0.051-0.063-0.057zm-1.925-0.164 0.111 0.048 0.037-0.1 0.078-0.04v-0.046l-0.078-0.011-0.029 0.037h-0.119zm0.48-0.393-0.035 0.091 0.105 0.068v0.072h0.047l0.023 0.076 0.087 0.049 0.131-0.028-0.072-0.109-0.087-0.015 0.015-0.126-0.031-0.089zm-0.951 0.231 0.078-0.132v-0.103l-0.107 0.063-0.166-0.01zm0.895-2.575-0.021 0.343-0.126 0.301 0.055 0.046-0.032 0.388-0.06 0.013 0.037 0.206-0.051 0.094 0.045 0.157 0.182 0.26v0.056l0.08 0.05 0.174 0.328 0.221 0.091h0.298l0.134-0.059 0.216-0.219 0.2-0.517 0.039-0.063 0.017-1.254-0.09-0.081-0.147-0.31v-0.074l-0.224-0.187-0.383-0.042-0.017-0.074h-0.077zm2.632 1.675 0.147-0.025-0.041-0.196h-0.084zm-3.128-1.21 0.211-0.05-0.139-0.163-0.086-9e-3zm3.104-0.122 0.102-0.07 0.016-0.123-0.183-0.034-0.079 0.101 0.037 0.026 0.079-0.026zm-0.204-0.539 0.033 0.119 0.051-0.093-0.048-0.182h-0.121zm-2.675 0 0.147 0.041-5e-3 -0.133-0.069-0.018zm-0.616-0.062 0.227-0.097-0.018-0.163-0.209 0.02-0.136 0.115-0.089-0.023-0.024 0.051 0.089 0.074 0.056-0.037zm1.973-0.508 0.144-0.14 0.161-0.048-0.145-0.148h-0.31l-0.287-0.186-0.102 0.186-0.256 0.058-0.198-0.114-0.064 0.293 0.199-0.081 0.215 0.04 0.121-0.055 0.202 0.138 0.102-0.042zm0.579-0.114 0.047 0.057 0.161 0.022-0.045-0.218zm-2.22-0.042 0.295 0.099-0.016-0.083-0.109-0.055v-0.058l-0.125-0.02z" fill="url(#linearGradient12706)"/>
  </g>
  <g transform="matrix(5.225 0 0 -5.225 -1374.6 3184.4)">
   <g clip-path="url(#clipPath12716)">
    <g transform="translate(255.42 621.77)">
     <path d="m0 0 0.021-0.222h0.084l0.041 0.196zm-0.132-1.434-0.037-0.025 0.079-0.102 0.183 0.035-0.015 0.123-0.102 0.07-0.029-0.126zm-0.181-0.594h0.12l0.048 0.182-0.05 0.093-0.034-0.119zm-0.607-0.471-0.047-0.057 0.163-0.139 0.045 0.217zm-0.212 3.724 0.081-0.108 0.064 0.057-0.05 0.051zm-0.222 0.17 0.15-0.129 0.058 0.105-0.171 0.058zm-1.185-4.228 0.197 0.112 0.256-0.057 0.103-0.186 0.288 0.186h0.308l0.146 0.148-0.161 0.048-0.145 0.14-0.218-0.099-0.102 0.042-0.201-0.138-0.121 0.055-0.215-0.04-0.2 0.081zm0.032 3.66-0.104-0.068 0.035-0.091 0.182-0.01 0.032 0.088-0.015 0.125 0.086 0.016 0.074 0.109-0.133 0.027-0.087-0.048-0.022-0.075h-0.048zm-0.323-1.112 0.051-0.093-0.037-0.208 0.06-0.012 0.031-0.388-0.054-0.046 0.126-0.301 0.02-0.343 0.471-0.546h0.076l0.018 0.073 0.382 0.041 0.225 0.188v0.074l0.147 0.31 0.089 0.081-0.016 1.254-0.039 0.063-0.2 0.517-0.215 0.219-0.135 0.06h-0.299l-0.221-0.092-0.173-0.328-0.081-0.049v-0.057l-0.181-0.26zm-0.074-1.587 0.074-0.11 0.068 0.018 6e-3 0.132zm-0.153 2.933v-0.112h0.119l0.03-0.037 0.078 0.011v0.046l-0.078 0.041-0.037 0.099zm-0.072-2.272-0.014-0.223 0.086 0.01 0.14 0.164zm-0.059-1.387 0.045-0.117 0.125 0.02v0.058l0.11 0.055 0.015 0.083zm-0.339 3.498-0.196-0.183 0.166 0.01 0.108-0.063v0.104zm-0.242-2.931 0.025-0.051 0.089 0.023 0.135-0.115 0.209-0.019 0.018 0.162-0.227 0.097-0.104-0.06-0.056 0.037zm-0.542 1.86-0.012 0.09 0.114 0.153v0.13l0.115 0.396 0.09 0.133 0.119 0.079 0.742 0.647 0.174 0.043 0.19 0.109h0.35l0.24 0.076 0.599-0.034 0.349-0.049 0.309-0.12 0.161-0.038 0.224-0.196 0.057-0.023 0.373-0.367 0.02-0.085 0.234-0.274 0.069-0.261 0.033-0.036-0.033-0.145v-0.119l0.106-0.082 0.028-0.092-0.047-0.11 0.132-0.62-0.085-0.23 0.031-0.294-0.146-0.186-0.088-0.336-0.147-0.151-0.48-0.571-0.139-0.039-0.361-0.284-0.276-0.023-0.136-0.053-0.719-0.064-0.221 0.094-0.437 4e-3 -0.027 0.071-0.282 0.035-0.386 0.278-0.035 0.085-0.276 0.188h-0.072l-0.147 0.293-0.099 0.096-0.12 0.221-0.039 0.049-0.049 0.282-0.056 0.115z" fill="none" stroke="#000" stroke-linecap="round" stroke-linejoin="round" stroke-width="2.123"/>
    </g>
   </g>
  </g>
  <g transform="matrix(5.225 0 0 -5.225 -1374.6 3184.4)">
   <path d="m257.78 623.36h-0.071l-0.508-0.235-0.176-8e-3 -0.305-0.458-0.199-0.192-0.14-0.25-0.048-0.239-0.099-0.18 0.037-0.167-0.093-0.291 0.046-0.775-0.074-0.112 0.156-0.273-0.016-0.158 0.204-0.328 0.033-0.194 0.125-0.07 0.456-0.466 0.241-0.143 0.188-0.016 0.2-0.176 0.702-0.012 0.374-0.045 0.202 0.112 0.359 0.021 0.078 0.116 0.17 0.043 0.668 0.695 0.195 0.373-0.028 0.099 0.1 0.068-0.02 0.144-0.075 0.071-0.39 0.063-0.396-0.021-0.127 0.027-0.256 0.026-0.08-0.082-0.108-0.367-0.23-0.138-0.26-0.232h-0.235l-0.095-0.08-0.18 0.065-0.22 0.13 0.081 0.033 0.077-0.044 0.049 0.063-0.247 0.274-0.092-0.036-0.044 0.104 0.044 0.07v0.251l-0.129 0.145-0.029 0.249 0.049 0.16-0.064 0.23 0.056 0.204 0.144 0.125 0.03 0.216 0.09 0.118-9e-3 0.124 0.169 0.182 0.032 0.111 0.098 0.109 0.394 0.05 0.196-0.13 0.069-0.14 0.147-0.069 0.113-0.194 0.066-0.305 0.139-0.072 0.176 0.019 0.276-0.013 0.092-0.047 0.116 0.047 0.44-0.028 0.152 0.176-0.104 0.139 0.042 0.236-0.126 0.145-0.011 0.186-0.077 0.106-0.013 0.16-0.367 0.351-0.196 0.088-0.188 0.175-0.398 0.161h-0.449l-0.344 0.036-0.103-0.036-0.233 0.05zm1.169-0.413 0.047 0.057 0.068-0.057 0.111 0.047 0.043-0.098-0.13-0.037zm0.532-0.359 0.233 0.15 0.242-0.09-0.11-0.162 0.11-0.219 0.172-0.013-0.014-0.171-0.167-0.014-0.037 0.148-0.087-0.044-0.057-0.104-0.082 0.065 0.082 0.165-0.034 0.056-0.11-0.056-0.048 0.094 0.14 0.068-0.038 0.127-0.219-0.089zm-2.346-0.121 0.179 0.043 0.089-0.182zm-0.829-1.344h0.047l-7e-3 -0.07h-0.063zm3.502-1.262 0.156-0.026-0.097-0.097 0.144-0.063-0.101-0.14-0.184-0.236-0.029 0.131h-0.156l0.092 0.098h0.14v0.092h-0.151zm-0.744-0.333 0.082 0.013 0.044-0.158 0.06 0.054 0.064-0.036-0.139-0.086 0.043-0.045 0.206 0.045 0.107-0.096-0.174 0.015 0.021-0.132-0.128 0.014-0.037 0.055-0.108-0.085-0.242-0.012-0.014-0.12-0.098-0.019-0.046 0.125-0.09-0.096-0.111-0.01 0.014 0.08-0.109 0.04-0.038-0.151-0.181 0.126 0.083 0.145h-0.083l9e-3 0.105h0.24l-0.03-0.128h0.146l0.112 0.144 0.366-0.023zm-1.83-0.127 0.14-0.036 0.025-0.066 0.19 5e-3 -0.023-0.07-0.252-0.035zm0.696-0.431-0.017 0.079-0.16 0.018v0.098l0.168 0.034 0.184-0.067-0.074-0.19zm0.784 0.237 0.066-0.173 0.095 0.173z" fill="url(#linearGradient12740)"/>
  </g>
  <g transform="matrix(5.225 0 0 -5.225 -1374.6 3184.4)">
   <g clip-path="url(#clipPath12750)">
    <g transform="translate(259.54 619.43)">
     <path d="m0 0h0.156l0.03-0.131 0.183 0.236 0.102 0.14-0.145 0.063 0.097 0.097-0.155 0.026-0.186-0.241h0.15v-0.091h-0.139zm-0.06 3.157-0.024-0.088 0.219 0.088 0.039-0.126-0.141-0.068 0.049-0.095 0.109 0.057 0.034-0.057-0.082-0.164 0.082-0.065 0.057 0.105 0.087 0.043 0.037-0.148 0.167 0.014 0.015 0.171-0.172 0.013-0.111 0.219 0.111 0.162-0.242 0.09zm-0.485 0.417-0.047-0.057 0.139-0.088 0.131 0.037-0.043 0.098-0.112-0.047zm-0.121-3.797-0.095-0.173-0.065 0.173zm-0.602-0.012-0.083-0.147 0.182-0.125 0.037 0.151 0.11-0.04-0.015-0.08 0.111 0.01 0.089 0.096 0.048-0.125 0.098 0.019 0.013 0.12 0.242 0.013 0.108 0.084 0.037-0.055 0.128-0.014-0.021 0.132 0.174-0.015-0.107 0.096-0.205-0.045-0.043 0.045 0.138 0.085-0.064 0.037-0.06-0.054-0.044 0.158-0.082-0.012-0.031-0.238-0.366 0.024-0.111-0.144h-0.147l0.03 0.128h-0.24l-9e-3 -0.104zm-0.519-0.03v-0.098l0.16-0.019 0.017-0.078 0.1-0.028 0.074 0.19-0.182 0.067zm-0.52 0.235 0.08-0.201 0.252 0.035 0.023 0.071-0.191-6e-3 -0.023 0.067zm-0.099 3.067 0.268-0.139-0.089 0.182zm-0.828-1.344-0.024-0.07h0.063l7e-3 0.07zm-0.128 0.217 0.092 0.291-0.037 0.167 0.099 0.18 0.048 0.239 0.14 0.25 0.2 0.193 0.304 0.457 0.176 7e-3 0.508 0.235h0.071l0.219 0.125 0.233-0.051 0.105 0.037 0.343-0.037h0.449l0.397-0.16 0.189-0.175 0.195-0.088 0.367-0.35 0.014-0.161 0.076-0.106 0.011-0.186 0.126-0.145-0.041-0.236 0.103-0.138-0.151-0.177-0.44 0.028-0.117-0.047-0.092 0.047-0.276 0.014-0.176-0.02-0.138 0.072-0.067 0.304-0.113 0.195-0.146 0.07-0.07 0.139-0.196 0.131-0.394-0.051-0.098-0.109-0.031-0.11-0.169-0.183 8e-3 -0.124-0.089-0.118-0.031-0.216-0.143-0.125-0.057-0.204 0.065-0.23-0.05-0.159 0.03-0.25 0.129-0.145v-0.251l-0.045-0.07 0.045-0.104 0.092 0.036 0.246-0.274-0.049-0.063-0.075 0.044-0.083-0.034 0.22-0.128 0.18-0.066 0.096 0.08h0.234l0.26 0.232 0.23 0.138 0.108 0.367 0.08 0.082 0.256-0.026 0.127-0.027 0.396 0.021 0.391-0.063 0.074-0.071 0.02-0.144-0.1-0.068 0.028-0.098-0.194-0.375-0.668-0.694-0.17-0.043-0.079-0.117-0.358-0.02-0.204-0.112-0.373 0.045-0.702 0.012-0.2 0.176-0.187 0.016-0.242 0.143-0.456 0.466-0.125 0.07-0.033 0.194-0.204 0.329 0.017 0.157-0.157 0.273 0.075 0.112z" fill="none" stroke="#000" stroke-linecap="round" stroke-linejoin="round" stroke-width="2.123"/>
    </g>
   </g>
  </g>
  <g transform="matrix(5.225 0 0 -5.225 -1374.6 3184.4)">
   <path d="m262.97 623.31-0.249 0.031h-0.488l-0.213-0.031-0.249 0.036-0.514-0.02h-0.137l-0.057-0.097-0.184 0.069-0.072-0.225v-0.644l0.18-0.259 0.447 0.017 0.264 0.07 0.188-0.179v-0.615l0.047-0.817-0.065-0.5 0.146-0.135-0.146-0.586 0.072-0.203-0.087-0.215-0.014-0.269 0.181-0.106 0.191 0.095 0.219-0.07 0.204 0.087 0.154-0.043h0.327l0.149 0.225 0.016 0.974-0.072 0.329 0.082 0.203-0.01 0.811 0.031 0.139-0.031 0.342-0.089 0.126 0.017 0.11 0.113 0.14 0.015 0.063 0.282 0.148 0.176-0.069 0.312 0.018 0.157 0.136-5e-3 0.754-0.1 0.191h-0.219l0.042-0.079-0.079-0.046-0.08 0.094-0.314-0.038-0.244 0.074zm0.413-0.16 0.016 0.086 0.171-0.035-0.043-0.116zm-2.148-0.528-0.014 0.229 0.099 0.058 0.06-0.174-0.073-0.153zm2.242 0.073 0.25 0.156 0.145-0.126-0.073-0.086-0.115 0.061-0.123-0.078z" fill="url(#linearGradient12774)"/>
  </g>
  <g transform="matrix(5.225 0 0 -5.225 -1374.6 3184.4)">
   <g clip-path="url(#clipPath12784)">
    <g transform="translate(263.48 622.69)">
     <path d="m0 0 0.083-0.073 0.124 0.078 0.115-0.061 0.073 0.086-0.145 0.126zm0.05 0.39 0.044 0.116-0.172 0.035-0.016-0.085zm-2.306-0.234 0.014-0.229 0.072-0.04 0.072 0.153-0.058 0.174zm-0.342 0.447 0.184-0.069 0.057 0.097h0.136l0.514 0.021 0.25-0.036 0.213 0.03h0.488l0.249-0.03 0.293 0.036 0.245-0.075 0.314 0.039 0.08-0.095 0.079 0.046-0.042 0.079h0.219l0.1-0.19 6e-3 -0.754-0.158-0.137-0.313-0.018-0.175 0.069-0.282-0.148-0.015-0.063-0.114-0.139-0.016-0.111 0.089-0.126 0.031-0.342-0.031-0.139 0.01-0.811-0.083-0.203 0.073-0.328-0.017-0.975-0.148-0.225h-0.327l-0.154 0.043-0.204-0.085-0.219 0.068-0.191-0.094-0.182 0.104 0.015 0.27 0.087 0.215-0.072 0.203 0.146 0.586-0.146 0.136 0.065 0.5-0.048 0.816v0.615l-0.185 0.179-0.266-0.069-0.447-0.018-0.18 0.26v0.643z" fill="none" stroke="#000" stroke-linecap="round" stroke-linejoin="round" stroke-width="2.123"/>
    </g>
   </g>
  </g>
  <g transform="matrix(5.225 0 0 -5.225 -1374.6 3184.4)">
   <path d="m265.51 623.37-0.143-0.226-0.021-0.361-0.146-0.208-0.012-0.118-0.08-0.134-0.053-0.134-0.057-0.101-0.073-0.459-0.117-0.209-0.101-0.403v-0.275l-0.112-0.14-7e-3 -0.188-0.1-0.148-0.147-0.353v-0.313l-0.115-0.123 7e-3 -0.19-0.146-0.215-0.114-0.307 0.086-0.079 0.878-0.027 0.206 0.134 0.141 0.208v0.143l0.145 0.371 0.18 0.158 0.159 0.042 0.171-0.042 0.238 0.083 0.17-0.112 0.143-0.017 0.102 0.088 0.205-0.071 0.133-0.274 0.049-0.257 0.061-0.104 0.066-0.244 0.084-0.076 1.068 0.021 0.247-0.051 0.072 0.051v0.221l-0.16 0.239-0.07 0.2-0.107 0.025-0.027-0.31-0.25-0.054-0.042 0.082-0.058 0.014-0.116-0.096-0.083 0.096 0.123 0.112 0.134 0.018 0.013 0.161 0.105 0.128 0.073-0.041 0.146 0.187-0.111 0.395-0.108 0.115 0.018 0.239-0.218 0.454 0.017 0.108-0.192 0.402-0.103 0.54-0.049 0.078-0.022 0.166-0.109 0.183v0.059l-0.116 0.215-0.068 0.327-0.111 0.274-0.145 0.141h-0.231l-0.041-0.045-0.643-6e-3 -0.03 0.051h-0.228l-0.172 0.037zm0.064-0.6 0.066 0.046 0.029 0.199 0.085 0.013 0.044 0.154 0.228 0.042 0.035-0.11-0.18-0.121 0.211-0.015 0.067 0.154h0.107v-0.092l0.118-0.025-9e-3 0.076 0.224-0.143-0.028-0.109 0.213 0.176 0.157-0.042 0.038-0.097-0.073-0.385 0.218-0.11v-0.113l0.112-0.096-0.15-0.111-0.01 0.111-0.104 0.017-0.013 0.155-0.146 0.087 0.043 0.144-0.02 0.264-0.155-0.056v-0.081l-0.137 0.059h-0.16l-0.03 0.055-0.154-0.073v-0.082l0.132 0.041 0.052-0.127-0.249-0.071-0.078 0.097-0.142-0.068-0.1 0.099-0.061-0.112-0.287-0.063zm0.459-0.558 0.364-0.012 0.093-0.139-0.115-0.116-0.095 0.102-0.03-0.112 0.03-0.407 0.184-0.439v-0.372l-0.08-0.084-0.323-0.012-0.148 0.06-0.126 0.409 0.094 0.134 0.032 0.314 0.096 0.184v0.109l-0.143 0.131-0.068-0.017-0.214 0.143 0.304 0.112 0.051-0.028zm-0.743-0.458 0.066 0.284 0.137-0.076-0.036-0.047 0.031-0.102 0.08 0.065 0.056-0.075-0.186-0.159zm1.834-0.151v0.228l0.108-0.036-0.035-0.13 0.063-0.036-0.028-0.041zm0.244-0.922 0.122 0.029v0.078l-0.15 0.012-0.075 0.162 0.399-0.088-5e-3 -0.348h-0.206zm-2.479 0 0.166 0.119 0.053 0.115h0.067l0.131-0.175 0.145 0.134 0.095-0.037 5e-3 -0.156-0.084-0.06-0.133 0.06-0.191-0.134-0.113 3e-3 -0.032-0.084h-0.061zm1.05-0.433 0.07-0.046-0.035-0.138-0.176 0.022-0.106 0.062 0.062 0.066 0.127-0.04zm1.808-0.257v0.096l0.057 0.047 0.101-0.048 0.046-0.143zm-3.363-1.098-0.043 0.024 0.106 0.353 0.414 0.05 0.027 0.213 0.11 0.055-0.045 0.155 0.045 0.037 0.145-0.053-0.1-0.292 0.065-0.065-0.078-0.158v-0.147l-0.122-0.056-0.128-0.159-0.131 0.019-0.017 0.048-0.098 0.058-0.113-0.028 0.081-0.182-0.133-0.019zm3.083 4e-3 0.082 0.05 0.255-0.054 0.082-0.055-0.184-0.057-0.19-0.035zm-1.645 3.952-0.024-0.141 0.132 0.015 9e-3 0.141zm0.03-0.761-0.054-0.041 0.09-0.04h0.117l0.015 0.146z" fill="url(#linearGradient12808)"/>
  </g>
  <g transform="matrix(5.225 0 0 -5.225 -1374.6 3184.4)">
   <g clip-path="url(#clipPath12818)">
    <g transform="translate(267.75 620.08)">
     <path d="m0 0v-0.096l0.205-0.049-0.046 0.144-0.102 0.048zm-0.234-1.341 0.189 0.035 0.184 0.057-0.082 0.055-0.254 0.054-0.082-0.05zm-0.248 2.216 0.076-0.163 0.149-0.011v-0.078l-0.122-0.029 0.085-0.155h0.206l6e-3 0.347zm-0.14 0.869v-0.228l0.107-0.015 0.029 0.041-0.064 0.036 0.035 0.13zm-1.273 0.257 0.168 0.065-0.015-0.146h-0.115l-0.092 0.04zm0.079 0.635-0.133-0.015 0.024 0.141 0.117 0.015zm-0.177-2.51-0.062-0.065 0.106-0.062 0.177-0.023 0.035 0.139-0.071 0.046-0.057-0.074zm-0.169 1.875 0.213-0.143 0.068 0.017 0.144-0.131v-0.109l-0.097-0.184-0.031-0.313-0.095-0.135 0.126-0.409 0.149-0.061 0.323 0.013 0.079 0.084v0.371l-0.184 0.44-0.029 0.408 0.029 0.111 0.094-0.102 0.116 0.116-0.093 0.139-0.363 0.012-0.095-0.04-0.049 0.028zm-0.117 0.369 0.286 0.063 0.061 0.112 0.1-0.099 0.143 0.069 0.078-0.098 0.249 0.072-0.052 0.126-0.133-0.041v0.082l0.154 0.073 0.031-0.055h0.159l0.138-0.059v0.082l0.155 0.055 0.019-0.263-0.043-0.144 0.147-0.088 0.013-0.155 0.104-0.017 9e-3 -0.111 0.15 0.111-0.111 0.097v0.112l-0.218 0.11 0.072 0.385-0.037 0.097-0.158 0.042-0.213-0.176 0.029 0.109-0.226 0.143 0.011-0.076-0.119 0.025v0.091h-0.106l-0.067-0.153-0.211 0.015 0.18 0.121-0.036 0.11-0.228-0.042-0.044-0.154-0.085-0.013-0.028-0.199-0.066-0.046zm-0.178-0.703 0.148-0.11 0.186 0.159-0.056 0.075-0.08-0.065-0.031 0.102 0.037 0.047-0.138 0.076zm-0.4-1.073 0.047-0.215h0.062l0.031 0.084 0.114-3e-3 0.191 0.134 0.133-0.061 0.084 0.061-4e-3 0.157-0.097 0.035-0.144-0.133-0.132 0.175h-0.067l-0.052-0.116zm-0.548-1.764 0.042-0.024-0.014-0.147 0.133 0.019-0.08 0.182 0.111 0.028 0.099-0.058 0.016-0.048 0.131-0.019 0.129 0.159 0.121 0.056v0.147l0.078 0.157-0.065 0.066 0.101 0.292-0.145 0.053-0.045-0.037 0.045-0.155-0.111-0.054-0.027-0.214-0.414-0.05zm-0.255 0.155 0.146 0.215-7e-3 0.19 0.116 0.123v0.313l0.146 0.353 0.101 0.149 7e-3 0.187 0.111 0.14v0.275l0.102 0.403 0.118 0.209 0.072 0.459 0.057 0.101 0.052 0.135 0.08 0.133 0.012 0.119 0.147 0.208 0.021 0.361 0.143 0.225 0.086 0.055 0.172-0.037h0.228l0.029-0.052 0.643 7e-3 0.042 0.045h0.231l0.144-0.141 0.111-0.274 0.068-0.328 0.116-0.213v-0.06l0.109-0.183 0.023-0.167 0.049-0.077 0.103-0.54 0.191-0.402-0.017-0.108 0.219-0.455-0.018-0.238 0.107-0.115 0.112-0.395-0.147-0.187-0.072 0.041-0.106-0.128-0.013-0.161-0.132-0.018-0.124-0.112 0.082-0.096 0.116 0.096 0.058-0.014 0.043-0.082 0.25 0.054 0.026 0.31 0.108-0.026 0.069-0.199 0.16-0.239v-0.222l-0.072-0.048-0.246 0.048-1.069-0.02-0.084 0.076-0.066 0.244-0.061 0.104-0.048 0.256-0.133 0.275-0.205 0.071-0.103-0.088-0.142 0.017-0.171 0.111-0.238-0.082-0.17 0.042-0.159-0.042-0.179-0.158-0.147-0.371v-0.144l-0.14-0.207-0.207-0.132-0.878 0.025-0.085 0.079z" fill="none" stroke="#000" stroke-linecap="round" stroke-linejoin="round" stroke-width="2.123"/>
    </g>
   </g>
  </g>
  <g transform="matrix(5.225 0 0 -5.225 -1374.6 3184.4)">
   <path d="m273.11 623.32-0.139-0.065 0.031-0.053-0.109-0.073-0.091 0.088-0.332 0.076h-0.148l-0.062-0.105-0.011-0.249-0.028-0.076v-0.178l-0.029-0.102 0.029-0.136v-0.653l0.11-0.103 0.031-0.161-0.031-0.042v-0.465l0.072-0.205-0.041-0.031-0.207 0.031-0.056 0.217-0.057 0.065-0.062 0.187-0.217 0.243-0.034 0.161-0.198 0.16-0.025 0.083-0.065 0.088v0.038l-0.108 0.144-0.03 0.084-0.06 0.051-0.064 0.151-0.184 0.206-0.301 0.485-0.17 0.082h-0.518l-0.239-0.033-0.28 0.063-0.096-0.048-0.042-0.087-0.046-0.862 0.046-1.353 0.032-0.125v-0.234l0.086-0.09-0.031-0.124-0.017-1.465 0.068-0.107 0.869-0.04 0.152 0.067 0.049 0.205 0.023 0.168-0.197 0.256v0.288l0.057 0.185-0.052 0.099v0.277l0.063 0.296 0.03 0.528-0.03 0.125 0.03 0.131-0.111 0.052 0.018 0.095 0.136 0.049 0.106-0.115-0.042-0.134 0.099-0.07 0.142-0.327 0.111-0.126 0.107-0.223 0.239-0.244 0.185-0.341 0.035-0.134 0.073-0.065 0.168-0.268 0.295-0.363 0.029-0.091 0.291-0.32 0.218-0.013 0.103 0.053 0.521 0.011 0.1 0.054v0.095l-0.04 0.042-0.067 0.162-0.075-0.026-0.138 0.033-0.085 0.162 0.269 0.123-0.032 0.337 0.184 0.244v0.161l0.03 0.107v0.64l0.031 0.092-0.031 0.167 0.031 0.108v1.747l-0.044 0.16-0.087 0.103zm-0.211-0.41 0.059 0.077 0.135 0.052 0.022-0.164-0.08-0.041zm-0.438-0.086 0.039 0.133 0.08-0.133-0.062-0.111zm-0.119-3.498v0.052l0.184-0.092 0.035-0.095-0.078-0.035zm0.319-0.318v0.076l0.104 0.164v-0.295zm-2.699 0.063h0.096l0.078-0.132-0.174-0.076-0.22 0.042-0.103-0.019-0.034 0.13 0.197 0.055 0.08-0.055z" fill="url(#linearGradient12842)"/>
  </g>
  <g transform="matrix(5.225 0 0 -5.225 -1374.6 3184.4)">
   <g clip-path="url(#clipPath12852)">
    <g transform="translate(272.96 622.98)">
     <path d="m0 0-0.059-0.078 0.137-0.076 0.08 0.041-0.022 0.164zm-0.297-3.903v-0.077l0.105-0.055v0.295zm-0.199 3.739 0.057-0.111 0.061 0.111-0.08 0.133zm-0.119-3.446v-0.051l0.14-0.171 0.079 0.035-0.036 0.095zm-2.738-0.362 0.035-0.13 0.103 0.019 0.219-0.042 0.174 0.077-0.078 0.131h-0.096l-0.08-0.055-0.08 0.055zm-0.255 4.143 0.042 0.086 0.095 0.048 0.28-0.063 0.24 0.033h0.517l0.17-0.082 0.301-0.485 0.184-0.206 0.065-0.151 0.06-0.051 0.029-0.083 0.109-0.145v-0.038l0.065-0.087 0.025-0.084 0.197-0.159 0.035-0.161 0.216-0.244 0.062-0.187 0.056-0.065 0.057-0.216 0.207-0.032 0.041 0.032-0.072 0.204v0.465l0.031 0.043-0.031 0.161-0.109 0.103v0.653l-0.03 0.135 0.03 0.102v0.178l0.027 0.076 0.012 0.249 0.061 0.105h0.149l0.332-0.076 0.091-0.088 0.109 0.073-0.031 0.053 0.138 0.065h0.14l0.087-0.103 0.045-0.16v-1.747l-0.032-0.108 0.032-0.167-0.032-0.092v-0.64l-0.03-0.108v-0.16l-0.183-0.244 0.031-0.337-0.269-0.123 0.085-0.162 0.138-0.033 0.076 0.026 0.067-0.162 0.041-0.041v-0.096l-0.102-0.054-0.521-0.011-0.103-0.053-0.218 0.014-0.291 0.319-0.029 0.091-0.295 0.364-0.167 0.267-0.073 0.065-0.035 0.134-0.186 0.341-0.238 0.245-0.108 0.222-0.11 0.126-0.143 0.327-0.098 0.07 0.041 0.134-0.106 0.115-0.135-0.048-0.019-0.096 0.111-0.052-0.029-0.131 0.029-0.125-0.029-0.528-0.063-0.296v-0.276l0.051-0.099-0.056-0.186v-0.288l0.197-0.255-0.023-0.169-0.049-0.205-0.153-0.066-0.869 0.039-0.067 0.107 0.017 1.465 0.031 0.123-0.086 0.092v0.234l-0.032 0.124-0.046 1.353z" fill="none" stroke="#000" stroke-linecap="round" stroke-linejoin="round" stroke-width="2.123"/>
    </g>
   </g>
  </g>
  <g transform="matrix(5.225 0 0 -5.225 -1374.6 3184.4)">
   <path d="m274.59 623.37-0.11-0.231-0.042-0.653-0.082-0.453 0.124-0.394v-0.73l0.039-0.174-0.026-1.959 0.097-0.086 0.152-0.025 0.299 0.025 0.998-6e-3 0.246 0.084-0.019 0.096 0.075 0.046 0.085-0.065 0.183 0.043 0.291-0.164 0.269 0.121 0.343 8e-3 0.183-0.085h0.27l0.08 0.12v0.64l-0.095 0.268-0.237-0.031-0.166 0.04h-0.604l-0.233-0.064-0.671-0.025-0.063 0.035-0.146-0.112-0.086 0.14 0.115 0.077 0.048 0.516 0.079 0.208 0.557 0.063 0.087-0.048 0.444 0.033 0.069-0.033h0.341l0.115 0.117-6e-3 0.411 0.043 0.166-0.124 0.294-0.315 0.048-0.588-0.092-0.074-0.073-0.285 0.041-0.109-0.131-0.234 0.131 0.034 0.102-0.141 0.201-0.072 0.208 0.147 0.227 0.312 0.068 0.348-0.068 0.156 0.073 1.281-0.061 0.103 0.136-0.052 0.31 0.072 0.414-0.123 0.172-0.373 0.071-0.2-0.071-0.315 0.049-0.082-0.133-0.102 0.021-0.072 0.134-1.021-0.037-0.042-0.16-0.127 0.16-0.437-0.09-0.064 0.137zm2.894-0.638v0.122l0.29 0.071 0.134-0.081 0.042-0.185-0.183-0.055zm-0.213-1.758 0.037 0.122 0.108 0.041-0.043-0.247zm0.276-1.816 0.158 0.117-0.032 0.09 0.059 0.107 0.129-0.207-0.156-0.198zm-0.719-0.294v0.071h0.144l-0.029-0.082z" fill="url(#linearGradient12876)"/>
  </g>
  <g transform="matrix(5.225 0 0 -5.225 -1374.6 3184.4)">
   <g clip-path="url(#clipPath12886)">
    <g transform="translate(277.55 619.16)">
     <path d="m0 0 0.157-0.091 0.157 0.197-0.129 0.207-0.059-0.107 0.031-0.088zm-0.063 3.695v-0.121l0.283-0.129 0.183 0.057-0.043 0.184-0.133 0.081zm-0.176-1.757-0.037-0.122 0.101-0.084 0.043 0.246zm-0.481-2.161v-0.071l0.116-0.011 0.029 0.082zm-2.389 3.551 0.042 0.653 0.109 0.231h0.548l0.063-0.138 0.438 0.091 0.127-0.16 0.042 0.16 1.02 0.036 0.073-0.133 0.101-0.021 0.082 0.133 0.316-0.049 0.2 0.07 0.373-0.07 0.123-0.173-0.072-0.413 0.051-0.31-0.102-0.136-1.281 0.062-0.157-0.074-0.347 0.068-0.313-0.068-0.146-0.228 0.072-0.208 0.141-0.2-0.034-0.101 0.234-0.132 0.109 0.132 0.284-0.042 0.075 0.073 0.587 0.092 0.316-0.048 0.124-0.294-0.043-0.166 6e-3 -0.411-0.115-0.117h-0.341l-0.07 0.033-0.443-0.033-0.088 0.049-0.556-0.063-0.079-0.209-0.048-0.516-0.116-0.075 0.086-0.142 0.147 0.111 0.062-0.034 0.672 0.025 0.233 0.063h0.604l0.165-0.039 0.238 0.031 0.094-0.267v-0.642l-0.08-0.12h-0.27l-0.182 0.086-0.343-8e-3 -0.269-0.121-0.291 0.163-0.184-0.042-0.084 0.065-0.076-0.046 0.02-0.097-0.247-0.083-0.998 5e-3 -0.299-0.024-0.152 0.024-0.096 0.087 0.026 1.959-0.039 0.173v0.73l-0.124 0.395z" fill="none" stroke="#000" stroke-linecap="round" stroke-linejoin="round" stroke-width="2.123"/>
    </g>
   </g>
  </g>
  <g transform="matrix(5.225 0 0 -5.225 -1374.6 3184.4)" fill="#fff">
   <g clip-path="url(#clipPath12898)" fill="#fff">
    <g transform="translate(249.52 620.52)">
     <path d="m0 0c-0.154-0.09-0.321-0.122-0.449 0.042 0.013 0.152 0.055 0.229 0.13 0.26l-0.177 0.162-1.935-0.049 1.134-1.063h1.072l1.079-1.015-4e-3 0.066c0.105-0.067 0.25 0.034 0.289-0.066l-0.217-0.061 0.898-0.848 0.08 0.786zm-4.663 3.315-0.245-0.073-7e-3 0.219c0.116 0 0.185-0.111 0.252-0.146m-0.454 2.625-0.178-0.071v0.068zm0.068-0.735c-0.078-0.129-0.386-0.195-0.523-0.055l0.287-0.067c0.082 0.1 0.135 0.221 0.136 0.357l0.1-0.099v1.12l-0.373-0.291c0.014-0.097-0.02-0.23-0.045-0.387-0.041-0.244-0.031-0.38-0.213-0.563h-0.015v-1.394c0.187-0.035 0.409 0.01 0.462-0.236l-0.25-0.106c-9e-3 0.146-0.098 0.183-0.212 0.175v-0.884l0.848-0.756 0.186-0.087 4e-3 -0.065-0.011-8e-3 0.38-0.338v1.503l-0.761 0.715zm2.145-2.503c-0.037 0.286 0.259 0.036 0.319 0.289l-0.112 0.21-0.063 6e-3v-4e-3 4e-3l0.035 0.035-0.114 0.1 0.147-0.064 0.041 0.072 0.061-0.1c0.236-0.047 0.444-0.029 0.469-0.395-0.39 0.29-0.4-0.147-0.783-0.153m0.943 1.085-0.105 0.067 0.033 0.143 0.042-5e-3 0.03-9e-3v1.975l-0.652 0.503v-2.505h0.045c-0.032-0.137-0.028-0.295-0.145-0.313l-0.66-0.619v-1.172l0.029-0.222h-0.029v-0.109l1.412 1.254zm-0.207-5.783 0.034 0.144c0.147 0 0.18-0.144 0.182-0.282zm-0.777-0.187c0.056 0.085-0.035 0.283 0.141 0.287l0.138 3e-3c-0.039-0.175-0.023-0.388-0.279-0.29m1 0.928-1.129 1.063-0.041-1.348 0.304 0.107c-0.047-0.121-0.088-0.243-0.139-0.364l-0.173 0.09-6e-3 -0.305 0.668-0.631c0.096-0.026 0.172-0.08 0.214-0.203l1-0.943 0.565 0.062-0.318-0.291 0.266-0.251 0.832 0.079-2.043 1.92zm-3.271-1.207c-0.046 0.256 0.19 0.544 0.388 0.283zm-0.323 0.279-5e-3 0.072h0.185zm-0.659-1.293-2e-3 0.072 0.106 0.073zm-0.718-0.514v0.071l0.108 0.106zm1.785 3.159c0.216-0.05 0.365-0.099 0.492-0.211l-0.024 0.85-1.131-1.063v-0.48c0.2-0.048 0.125-0.261 0.081-0.532-0.04-0.244-0.028-0.378-0.21-0.562-0.097 7e-3 -0.187 0.019-0.285 0.028 0.255 0 0.465 0.074 0.454 0.363l-0.073 0.137-2.012-1.889 0.833-0.079 1.377 1.295-0.186 0.072 0.21-0.048 0.183 0.175 0.033 0.167 0.073-0.07 0.707 0.666-0.022 0.785c-0.281-0.098-0.527 0.022-0.5 0.396m-0.38 6.444c-0.014 0.05-0.102 0.166-0.184 0.292v-0.609c0.114 0.047 0.187 0.139 0.184 0.317m-2.472-6.221 0.038 0.113 0.141 0.108zm1.846 1.029 0.117-0.142c0.01-0.028-0.207 0.038-0.149-0.108l-0.143-2e-3 0.175 0.252m-0.3-1.069 1.128 1.063-0.267 8e-3 -0.214-0.265 0.036 0.267-1.492 0.039-2.395-2.25 0.08-0.786 1.382 1.298-0.417 0.157c0.191 0.2 0.562 0.244 0.671 0.081l0.412 0.388z" fill="#fff"/>
    </g>
    <g transform="translate(249.52 620.52)">
     <path d="m0 0c-0.154-0.09-0.321-0.122-0.449 0.042 0.013 0.152 0.055 0.229 0.13 0.26l-0.177 0.162-1.935-0.049 1.134-1.063h1.072l1.079-1.015-4e-3 0.066c0.105-0.067 0.25 0.034 0.289-0.066l-0.217-0.061 0.898-0.848 0.08 0.786zm-4.663 3.315-0.245-0.073-7e-3 0.219c0.116 0 0.185-0.111 0.252-0.146zm-0.454 2.625-0.178-0.071v0.068zm0.068-0.735c-0.078-0.129-0.386-0.195-0.523-0.055l0.287-0.067c0.082 0.1 0.135 0.221 0.136 0.357l0.1-0.099v1.12l-0.373-0.291c0.014-0.097-0.02-0.23-0.045-0.387-0.041-0.244-0.031-0.38-0.213-0.563h-0.015v-1.394c0.187-0.035 0.409 0.01 0.462-0.236l-0.25-0.106c-9e-3 0.146-0.098 0.183-0.212 0.175v-0.884l0.848-0.756 0.186-0.087 4e-3 -0.065-0.011-8e-3 0.38-0.338v1.503l-0.761 0.715zm2.145-2.503c-0.037 0.286 0.259 0.036 0.319 0.289l-0.112 0.21-0.063 6e-3v-4e-3 4e-3l0.035 0.035-0.114 0.1 0.147-0.064 0.041 0.072 0.061-0.1c0.236-0.047 0.444-0.029 0.469-0.395-0.39 0.29-0.4-0.147-0.783-0.153zm0.943 1.085-0.105 0.067 0.033 0.143 0.042-5e-3 0.03-9e-3v1.975l-0.652 0.503v-2.505h0.045c-0.032-0.137-0.028-0.295-0.145-0.313l-0.66-0.619v-1.172l0.029-0.222h-0.029v-0.109l1.412 1.254zm-0.207-5.783 0.034 0.144c0.147 0 0.18-0.144 0.182-0.282zm-0.777-0.187c0.056 0.085-0.035 0.283 0.141 0.287l0.138 3e-3c-0.039-0.175-0.023-0.388-0.279-0.29zm1 0.928-1.129 1.063-0.041-1.348 0.304 0.107c-0.047-0.121-0.088-0.243-0.139-0.364l-0.173 0.09-6e-3 -0.305 0.668-0.631c0.096-0.026 0.172-0.08 0.214-0.203l1-0.943 0.565 0.062-0.318-0.291 0.266-0.251 0.832 0.079-2.043 1.92zm-3.271-1.207c-0.046 0.256 0.19 0.544 0.388 0.283zm-0.323 0.279-5e-3 0.072h0.185zm-0.659-1.293-2e-3 0.072 0.106 0.073zm-0.718-0.514v0.071l0.108 0.106zm1.785 3.159c0.216-0.05 0.365-0.099 0.492-0.211l-0.024 0.85-1.131-1.063v-0.48c0.2-0.048 0.125-0.261 0.081-0.532-0.04-0.244-0.028-0.378-0.21-0.562-0.097 7e-3 -0.187 0.019-0.285 0.028 0.255 0 0.465 0.074 0.454 0.363l-0.073 0.137-2.012-1.889 0.833-0.079 1.377 1.295-0.186 0.072 0.21-0.048 0.183 0.175 0.033 0.167 0.073-0.07 0.707 0.666-0.022 0.785c-0.281-0.098-0.527 0.022-0.5 0.396zm-0.38 6.444c-0.014 0.05-0.102 0.166-0.184 0.292v-0.609c0.114 0.047 0.187 0.139 0.184 0.317zm-2.472-6.221 0.038 0.113 0.141 0.108zm1.846 1.029 0.117-0.142c0.01-0.028-0.207 0.038-0.149-0.108l-0.143-2e-3zm-0.3-1.069 1.128 1.063-0.267 8e-3 -0.214-0.265 0.036 0.267-1.492 0.039-2.395-2.25 0.08-0.786 1.382 1.298-0.417 0.157c0.191 0.2 0.562 0.244 0.671 0.081l0.412 0.388z" fill="#fff" stroke="#000" stroke-linecap="round" stroke-linejoin="round" stroke-width="2.123"/>
    </g>
    <g transform="translate(248.22 618.81)">
     <path d="m0 0 0.089-0.023c0.217-0.025 0.231 0.182 0.101 0.182l-0.179-0.143v0.013c0.115 0.12 0.218 0.246 0.315 0.379h-0.326z" fill="#fff" stroke="#000" stroke-linecap="round" stroke-linejoin="round" stroke-width="2.123"/>
    </g>
    <g transform="translate(242.59 619.21)">
     <path d="m0 0c0.141-0.189 0.301-0.372 0.482-0.537v0.537z" fill="#fff" stroke="#000" stroke-linecap="round" stroke-linejoin="round" stroke-width="2.123"/>
    </g>
    <g transform="translate(248.57 623.28)">
     <path d="m0 0-0.011-0.053z" fill="#fff" stroke="#000" stroke-linecap="round" stroke-linejoin="round" stroke-width="2.123"/>
    </g>
    <g transform="translate(242.48 618.56)">
     <path d="m0 0 1e-3 -0.11c0.121 4e-3 0.324 0.018 0.466-0.038l0.053 0.046c-0.162 0.108-0.342 0.187-0.52 0.102z" fill="#fff" stroke="#000" stroke-linecap="round" stroke-linejoin="round" stroke-width="2.123"/>
    </g>
    <g transform="translate(248.57 623.28)">
     <path d="M 0,0 0.06,0.377 -0.196,0.409 C -0.288,0.22 -0.008,0.152 0,0 Z" fill="#fff" stroke="#000" stroke-linecap="round" stroke-linejoin="round" stroke-width="2.123"/>
    </g>
    <g transform="translate(245.69 624.01)">
     <path d="m0 0c0.175 0.168 0.431 0.406 0.561 0.529v0.046c-0.219 0.039-0.446 0.063-0.68 0.063-0.152 0-0.302-0.012-0.45-0.033v-0.076c0.133-0.123 0.387-0.361 0.569-0.529z" fill="#fff" stroke="#000" stroke-linecap="round" stroke-linejoin="round" stroke-width="2.123"/>
    </g>
    <g transform="translate(241.59 621.38)">
     <path d="M 0,0 0.119,-0.039 0.195,0.037 C 0.16,0.11 0.082,0.118 0,0 Z" fill="#fff" stroke="#000" stroke-linecap="round" stroke-linejoin="round" stroke-width="2.123"/>
    </g>
    <g transform="translate(242.95 624.03)">
     <path d="m0 0-0.106-0.106v-0.076z" fill="#fff" stroke="#000" stroke-linecap="round" stroke-linejoin="round" stroke-width="2.123"/>
    </g>
    <g transform="translate(242.81 623.42)">
     <path d="m0 0-2e-3 0.103c-0.18 0.144-0.395 0.281-0.606 0.169v-0.101c0.174 0 0.521 0.034 0.608-0.171z" fill="#fff" stroke="#000" stroke-linecap="round" stroke-linejoin="round" stroke-width="2.123"/>
    </g>
    <g transform="translate(241.66 622.1)">
     <path d="m0 0c-0.215 0.109-0.319-0.287-0.065-0.285 0.032 0.111-2e-3 0.257 0.065 0.285z" fill="#fff" stroke="#000" stroke-linecap="round" stroke-linejoin="round" stroke-width="2.123"/>
    </g>
    <g transform="translate(248.96 618.54)">
     <path d="m0 0c0.123 0.143 0.229 0.287 0.328 0.442-0.12 0.111-0.205 0.191-0.25 0.233h-0.486c-0.098-0.133-0.2-0.258-0.316-0.379v-0.013l0.179 0.143c0.131 0 0.116-0.207-0.1-0.182l-0.089 0.023v-0.273c0.06-0.06 0.202-0.19 0.387-0.366 0.112 0.108 0.221 0.22 0.324 0.339 0.179 0.263-0.45 0.43-0.068 0.692l0.144 2e-3c-0.244-0.195 0.077-0.454-0.053-0.661" fill="#fff"/>
    </g>
    <g transform="translate(248.96 618.54)">
     <path d="m0 0c0.123 0.143 0.229 0.287 0.328 0.442-0.12 0.111-0.205 0.191-0.25 0.233h-0.486c-0.098-0.133-0.2-0.258-0.316-0.379v-0.013l0.179 0.143c0.131 0 0.116-0.207-0.1-0.182l-0.089 0.023v-0.273c0.06-0.06 0.202-0.19 0.387-0.366 0.112 0.108 0.221 0.22 0.324 0.339 0.179 0.263-0.45 0.43-0.068 0.692l0.144 2e-3c-0.244-0.195 0.077-0.454-0.053-0.661z" fill="#fff" stroke="#000" stroke-linecap="round" stroke-linejoin="round" stroke-width="2.123"/>
    </g>
    <g transform="translate(241.66 622.1)">
     <path d="m0 0c-0.067-0.028-0.033-0.174-0.065-0.285-0.254-2e-3 -0.15 0.394 0.065 0.285m1.148 1.422 2e-3 -0.103c-0.086 0.205-0.434 0.171-0.608 0.171v0.101c0.211 0.112 0.427-0.025 0.606-0.169m0.146 0.507-0.107-0.182v0.076zm-1.368-2.647c0.081 0.117 0.159 0.11 0.195 0.036l0.048 0.045 0.154 0.145 4e-3 5e-3c-0.06 0.056-0.117 0.131-0.01 0.157h0.032c0.141 0.792 0.564 1.489 1.163 2.001v0.919c-0.692-0.443-1.245-1.069-1.586-1.809h0.141l-0.215-0.211 0.07 0.204c-0.039-0.092-0.078-0.179-0.113-0.274 0.096-0.051 0.176-0.116 0.249-0.22-0.123-0.069-0.245-0.099-0.349-0.085-0.074-0.264-0.126-0.538-0.143-0.817l0.183-0.098-0.194-0.15v-0.046c0-0.097 2e-3 -0.194 9e-3 -0.289l0.48 0.448z" fill="#fff"/>
    </g>
    <g transform="translate(241.66 622.1)">
     <path d="m0 0c-0.067-0.028-0.033-0.174-0.065-0.285-0.254-2e-3 -0.15 0.394 0.065 0.285zm1.148 1.422 2e-3 -0.103c-0.086 0.205-0.434 0.171-0.608 0.171v0.101c0.211 0.112 0.427-0.025 0.606-0.169zm0.146 0.507-0.107-0.182v0.076zm-1.368-2.647c0.081 0.117 0.159 0.11 0.195 0.036l0.048 0.045 0.154 0.145 4e-3 5e-3c-0.06 0.056-0.117 0.131-0.01 0.157h0.032c0.141 0.792 0.564 1.489 1.163 2.001v0.919c-0.692-0.443-1.245-1.069-1.586-1.809h0.141l-0.215-0.211 0.07 0.204c-0.039-0.092-0.078-0.179-0.113-0.274 0.096-0.051 0.176-0.116 0.249-0.22-0.123-0.069-0.245-0.099-0.349-0.085-0.074-0.264-0.126-0.538-0.143-0.817l0.183-0.098-0.194-0.15v-0.046c0-0.097 2e-3 -0.194 9e-3 -0.289l0.48 0.448z" fill="#fff" stroke="#000" stroke-linecap="round" stroke-linejoin="round" stroke-width="2.123"/>
    </g>
    <g transform="translate(242.48 618.45)">
     <path d="m0 0-1e-3 0.11c0.177 0.085 0.358 6e-3 0.519-0.102l0.076 0.072v0.144c-0.182 0.166-0.341 0.348-0.483 0.537h-0.332c-0.055-0.048-0.181-0.165-0.343-0.324 0.195-0.29 0.429-0.555 0.694-0.792 0.136 0.127 0.252 0.237 0.336 0.317-0.143 0.056-0.345 0.042-0.466 0.038" fill="#fff"/>
    </g>
    <g transform="translate(242.48 618.45)">
     <path d="m0 0-1e-3 0.11c0.177 0.085 0.358 6e-3 0.519-0.102l0.076 0.072v0.144c-0.182 0.166-0.341 0.348-0.483 0.537h-0.332c-0.055-0.048-0.181-0.165-0.343-0.324 0.195-0.29 0.429-0.555 0.694-0.792 0.136 0.127 0.252 0.237 0.336 0.317-0.143 0.056-0.345 0.042-0.466 0.038z" fill="#fff" stroke="#000" stroke-linecap="round" stroke-linejoin="round" stroke-width="2.123"/>
    </g>
    <g transform="translate(245.57 617.72)">
     <path d="m0 0c-0.174 0-0.345 0.013-0.51 0.032l-0.662-0.619c0.373-0.1 0.768-0.157 1.172-0.157 0.189 0 0.371 0.013 0.552 0.036-0.072 0.174-0.371 0.318-0.08 0.518l0.143 4e-3c-0.191-0.152-0.041-0.344-0.023-0.519 0.242 0.032 0.473 0.087 0.698 0.15l-0.647 0.611c-0.206-0.039-0.42-0.056-0.643-0.056" fill="#fff"/>
    </g>
    <g transform="translate(245.57 617.72)">
     <path d="m0 0c-0.174 0-0.345 0.013-0.51 0.032l-0.662-0.619c0.373-0.1 0.768-0.157 1.172-0.157 0.189 0 0.371 0.013 0.552 0.036-0.072 0.174-0.371 0.318-0.08 0.518l0.143 4e-3c-0.191-0.152-0.041-0.344-0.023-0.519 0.242 0.032 0.473 0.087 0.698 0.15l-0.647 0.611c-0.206-0.039-0.42-0.056-0.643-0.056z" fill="#fff" stroke="#000" stroke-linecap="round" stroke-linejoin="round" stroke-width="2.123"/>
    </g>
    <g transform="translate(248.38 623.69)">
     <path d="m0 0 0.256-0.033-0.06-0.376-0.01-0.053 0.01 0.053c-8e-3 0.152-0.288 0.22-0.196 0.409m0.557-1.225c0.16-6e-3 0.298-0.059 0.381-0.216-0.067 0.114-0.208 0.157-0.333 0.086 0.068-0.185 0.12-0.375 0.155-0.572l0.021-0.122 0.116 2e-3 0.65-0.612 6e-3 0.152c0 0.391-0.057 0.769-0.158 1.127l-0.12-0.069 0.079 0.198c-0.275 0.841-0.813 1.566-1.528 2.091v-0.975c0.311-0.312 0.557-0.683 0.731-1.09" fill="#fff"/>
    </g>
    <g transform="translate(248.38 623.69)">
     <path d="m0 0 0.256-0.033-0.06-0.376-0.01-0.053 0.01 0.053c-8e-3 0.152-0.288 0.22-0.196 0.409zm0.557-1.225c0.16-6e-3 0.298-0.059 0.381-0.216-0.067 0.114-0.208 0.157-0.333 0.086 0.068-0.185 0.12-0.375 0.155-0.572l0.021-0.122 0.116 2e-3 0.65-0.612 6e-3 0.152c0 0.391-0.057 0.769-0.158 1.127l-0.12-0.069 0.079 0.198c-0.275 0.841-0.813 1.566-1.528 2.091v-0.975c0.311-0.312 0.557-0.683 0.731-1.09z" fill="#fff" stroke="#000" stroke-linecap="round" stroke-linejoin="round" stroke-width="2.123"/>
    </g>
    <g transform="translate(245.96 624.9)">
     <path d="m0 0 0.293 0.177v0.255c-0.219 0.031-0.445 0.052-0.68 0.052-0.15 0-0.301-0.01-0.45-0.023v-0.75c0.149 0.02 0.299 0.033 0.45 0.033 0.235 0 0.461-0.025 0.68-0.063v0.211c-0.145 0.02-0.268 0.049-0.293 0.108" fill="#fff"/>
    </g>
    <g transform="translate(245.96 624.9)">
     <path d="m0 0 0.293 0.177v0.255c-0.219 0.031-0.445 0.052-0.68 0.052-0.15 0-0.301-0.01-0.45-0.023v-0.75c0.149 0.02 0.299 0.033 0.45 0.033 0.235 0 0.461-0.025 0.68-0.063v0.211c-0.145 0.02-0.268 0.049-0.293 0.108z" fill="#fff" stroke="#000" stroke-linecap="round" stroke-linejoin="round" stroke-width="2.123"/>
    </g>
    <g transform="translate(277.38 617.38)">
     <path d="m0 0 0.208 0.042 3e-3 -0.144zm-0.895-0.264 0.081 0.112c0.117-0.128 0.237-0.258 0.359-0.388 0-0.035-0.43 0.071-0.44 0.276m-0.595-0.254c0 0.214-6e-3 0.358 0.175 0.505 0.106-0.147 0.076-0.431-0.175-0.505m-6.658 0.198 0.285-0.065c0.087 0.105 0.136 0.225 0.136 0.355 0.372-0.247-0.209-0.49-0.421-0.29m-0.996-0.082v0.074l0.105 0.105zm-2.323 0.117c0.248 0.073 0.254-0.214 0.254-0.251-0.033-0.103-0.287 0.106-0.254 0.251m-0.274-0.216-0.179 0.067 0.135 0.143c0.037 0.074 0.111-0.102 0.044-0.21m-7.5 0.555c-0.11 0.017-0.523-0.149-0.581-0.141-0.033 0.312 0.404 0.274 0.581 0.141l0.028-0.02-0.028 0.02m-2.679-0.135v0.073l0.213 8e-3 2e-3 -0.076zm-2.626-0.071-0.218-2e-3v0.036l0.218 1e-3zm16.483 0.346c-0.021-0.171-0.041-0.289-0.196-0.44-0.094 6e-3 -0.186 0.023-0.278 0.029 0.252 5e-3 0.459 0.073 0.453 0.363l-0.026 0.048h-7.643c-0.146-0.252-0.229-0.58-0.538-0.587 0.095 0.083 0.189 0.17 0.282 0.249-0.083 0.071-0.146 0.157-0.182 0.255 0.115-0.026 0.171 0.012 0.189 0.083h-7.141c-0.063-0.048-0.108-0.109-0.087-0.289l-0.178 0.065 0.231 0.224h-3.206v-0.755h0.744c0.015 0.151 0.056 0.276 0.165 0.359 0.062-0.184 0.013-0.232-0.081-0.359h1.635c-0.069 0.114-0.15 0.236-0.273 0.236v-2e-3l-0.065-0.103 0.065 0.103c0.014 0.131-0.284 0.198-0.172 0.344 0.166 0.216 0.413-0.284 0.537-0.578h0.993v0.188h-0.117c-3e-3 0.1 0.028 0.177 0.113 0.244 0.095-0.117 0.247-0.289 0.293-0.432h1.967c-0.064 0.155-0.202 0.642-0.374 0.283l0.142-0.138-0.251-2e-3c0.253 0.248-0.325 0.319-0.079 0.6 0.227-0.044 0.45-0.156 0.608-0.316-0.067-0.062-0.123-0.276-0.029-0.355 0.152 0.031 0.308 0.051 0.462 0.081l-0.111-0.153h1.569l0.178 0.103v-0.103h2.857c-0.084 0.106-0.105 0.295 0.052 0.357l0.217-0.354-7e-3 -3e-3h2.284l-2e-3 1e-3 0.047-1e-3h7.678c-0.035 0.283 0.264 0.032 0.318 0.289-0.044 0.138-0.134 0.264-0.257 0.349 0.323-0.198 0.687 8e-3 0.724-0.487-0.392 0.289-0.404-0.15-0.785-0.151h1.328l-4e-3 0.143c0.112 0 0.182-0.113 0.251-0.143h1.421c-0.041 0.521-0.975-0.368-0.68 0.521l0.389 8e-3 -0.101-0.112c0.183-0.176 0.567 0.019 0.641-0.311l-0.249-0.106h0.435c-0.115 0.188-0.468 0.609-0.212 0.638 0.439 0.054 0.34-0.198 0.286-0.535l-0.019-0.103h2.733v0.755z" fill="#fff"/>
    </g>
    <g transform="translate(277.38 617.38)">
     <path d="m0 0 0.208 0.042 3e-3 -0.144zm-0.895-0.264 0.081 0.112c0.117-0.128 0.237-0.258 0.359-0.388 0-0.035-0.43 0.071-0.44 0.276zm-0.595-0.254c0 0.214-6e-3 0.358 0.175 0.505 0.106-0.147 0.076-0.431-0.175-0.505zm-6.658 0.198 0.285-0.065c0.087 0.105 0.136 0.225 0.136 0.355 0.372-0.247-0.209-0.49-0.421-0.29zm-0.996-0.082v0.074l0.105 0.105zm-2.323 0.117c0.248 0.073 0.254-0.214 0.254-0.251-0.033-0.103-0.287 0.106-0.254 0.251zm-0.274-0.216-0.179 0.067 0.135 0.143c0.037 0.074 0.111-0.102 0.044-0.21zm-7.5 0.555c-0.11 0.017-0.523-0.149-0.581-0.141-0.033 0.312 0.404 0.274 0.581 0.141l0.028-0.02zm-2.679-0.135v0.073l0.213 8e-3 2e-3 -0.076zm-2.626-0.071-0.218-2e-3v0.036l0.218 1e-3zm16.483 0.346c-0.021-0.171-0.041-0.289-0.196-0.44-0.094 6e-3 -0.186 0.023-0.278 0.029 0.252 5e-3 0.459 0.073 0.453 0.363l-0.026 0.048h-7.643c-0.146-0.252-0.229-0.58-0.538-0.587 0.095 0.083 0.189 0.17 0.282 0.249-0.083 0.071-0.146 0.157-0.182 0.255 0.115-0.026 0.171 0.012 0.189 0.083h-7.141c-0.063-0.048-0.108-0.109-0.087-0.289l-0.178 0.065 0.231 0.224h-3.206v-0.755h0.744c0.015 0.151 0.056 0.276 0.165 0.359 0.062-0.184 0.013-0.232-0.081-0.359h1.635c-0.069 0.114-0.15 0.236-0.273 0.236v-2e-3l-0.065-0.103 0.065 0.103c0.014 0.131-0.284 0.198-0.172 0.344 0.166 0.216 0.413-0.284 0.537-0.578h0.993v0.188h-0.117c-3e-3 0.1 0.028 0.177 0.113 0.244 0.095-0.117 0.247-0.289 0.293-0.432h1.967c-0.064 0.155-0.202 0.642-0.374 0.283l0.142-0.138-0.251-2e-3c0.253 0.248-0.325 0.319-0.079 0.6 0.227-0.044 0.45-0.156 0.608-0.316-0.067-0.062-0.123-0.276-0.029-0.355 0.152 0.031 0.308 0.051 0.462 0.081l-0.111-0.153h1.569l0.178 0.103v-0.103h2.857c-0.084 0.106-0.105 0.295 0.052 0.357l0.217-0.354-7e-3 -3e-3h2.284l-2e-3 1e-3 0.047-1e-3h7.678c-0.035 0.283 0.264 0.032 0.318 0.289-0.044 0.138-0.134 0.264-0.257 0.349 0.323-0.198 0.687 8e-3 0.724-0.487-0.392 0.289-0.404-0.15-0.785-0.151h1.328l-4e-3 0.143c0.112 0 0.182-0.113 0.251-0.143h1.421c-0.041 0.521-0.975-0.368-0.68 0.521l0.389 8e-3 -0.101-0.112c0.183-0.176 0.567 0.019 0.641-0.311l-0.249-0.106h0.435c-0.115 0.188-0.468 0.609-0.212 0.638 0.439 0.054 0.34-0.198 0.286-0.535l-0.019-0.103h2.733v0.755z" fill="#fff" stroke="#000" stroke-linecap="round" stroke-linejoin="round" stroke-width="2.123"/>
    </g>
    <g transform="translate(277.43 624.92)">
     <path d="m0 0c0.135-0.233-0.142-0.553 0.046-0.76h0.555v0.76zm-14.569-0.76h0.151-0.151m12.432 0.15c-0.142-4e-3 -0.144 0.212-0.038 0.249 0.106-0.037 0.038-0.181 0.038-0.249m-1.176 0.34c-0.086-5e-3 -0.185-0.012-0.285-0.018l-0.18-0.031-0.023 0.012c-0.094-0.012-0.182-0.022-0.256-0.048l0.034 0.218 0.222-0.17 0.203 0.019 2e-3 0.016 0.1 0.016-0.1 0.155c0.035-0.072 0.397 0.07 0.283-0.169m-1.996 0.181v0.073h0.141zm-0.247-0.643c-0.339-6e-3 -0.286 0.481-0.049 0.364 0.103-0.04 0.159-0.307 0.049-0.364m-2.944-6e-3 0.388 0.149 3e-3 -0.143zm-1.639 0.296 0.073 0.113 0.072-0.113zm-1.679 6e-3c0.097 0.198 0.211 0.038 0.214-0.066zm-5.866-0.304-2e-3 0.11h0.105zm-2.124 0.254-0.076 0.253c0.109-0.074 0.247 4e-3 0.284-0.107zm18.718 0.486 0.147-0.121c0.127 0.01 0.242 0.122 0.29-0.078-0.353-0.185-0.242-0.144-0.531 0.136-0.195-4e-3 -0.302-0.567-0.461-0.292 0.027 0.099-0.047 0.225-0.136 0.355h-0.27l0.193-0.215-0.317 0.215h-5.865c-0.087-0.044-0.146-0.101-0.111-0.199-0.158 0.151-0.34-0.303-0.425-0.221-4e-3 0.274 0.161 0.247 0.196 0.42h-8.607c0.18-0.26-0.31-0.121-0.24-0.382l-0.179-2e-3c-0.035 0.256 0.328 0.18 0.375 0.384h-3.436c0.022-0.168 0.024-0.353-0.013-0.435-0.249 0.208-0.424-0.142-0.608-0.255l0.029-0.07h6.2l-0.168 0.165c0.185 0.188 0.429-0.245 0.561 0.15 0.082-0.099 0.163-0.205 0.237-0.315h9.145l-0.072 0.069c0.172 0.042 0.242 3e-3 0.277-0.069h4.656c0.081 0.256 0.174 0.502 0.028 0.76zm-20.301 0h-0.328c0.082-0.152 0.201-0.087 0.328 0m-3.983-0.58c0.085 0.125 0.233 0.26-3e-3 0.357-0.08 0.16-0.457-0.11-0.357 0.207l-0.028 0.016h-0.9v-0.76h1.264l-0.463 0.1c-2e-3 0.281 0.322 0.077 0.487 0.08m3.861 0.452c-0.206-0.053 0.171-0.305-0.171-0.322-0.269-8e-3 -0.265 0.257-0.165 0.45h-3.336c0.16-0.184-0.155-0.398 0.068-0.502l0.277 0.142c-0.025-0.396-0.437-0.028-0.599-0.29l0.041-0.11h4.197c-0.02 0.239-0.143 0.49-0.312 0.632" fill="#fff"/>
    </g>
    <g transform="translate(277.43 624.92)">
     <path d="m0 0c0.135-0.233-0.142-0.553 0.046-0.76h0.555v0.76zm-14.569-0.76h0.151zm12.432 0.15c-0.142-4e-3 -0.144 0.212-0.038 0.249 0.106-0.037 0.038-0.181 0.038-0.249zm-1.176 0.34c-0.086-5e-3 -0.185-0.012-0.285-0.018l-0.18-0.031-0.023 0.012c-0.094-0.012-0.182-0.022-0.256-0.048l0.034 0.218 0.222-0.17 0.203 0.019 2e-3 0.016 0.1 0.016-0.1 0.155c0.035-0.072 0.397 0.07 0.283-0.169zm-1.996 0.181v0.073h0.141zm-0.247-0.643c-0.339-6e-3 -0.286 0.481-0.049 0.364 0.103-0.04 0.159-0.307 0.049-0.364zm-2.944-6e-3 0.388 0.149 3e-3 -0.143zm-1.639 0.296 0.073 0.113 0.072-0.113zm-1.679 6e-3c0.097 0.198 0.211 0.038 0.214-0.066zm-5.866-0.304-2e-3 0.11h0.105zm-2.124 0.254-0.076 0.253c0.109-0.074 0.247 4e-3 0.284-0.107zm18.718 0.486 0.147-0.121c0.127 0.01 0.242 0.122 0.29-0.078-0.353-0.185-0.242-0.144-0.531 0.136-0.195-4e-3 -0.302-0.567-0.461-0.292 0.027 0.099-0.047 0.225-0.136 0.355h-0.27l0.193-0.215-0.317 0.215h-5.865c-0.087-0.044-0.146-0.101-0.111-0.199-0.158 0.151-0.34-0.303-0.425-0.221-4e-3 0.274 0.161 0.247 0.196 0.42h-8.607c0.18-0.26-0.31-0.121-0.24-0.382l-0.179-2e-3c-0.035 0.256 0.328 0.18 0.375 0.384h-3.436c0.022-0.168 0.024-0.353-0.013-0.435-0.249 0.208-0.424-0.142-0.608-0.255l0.029-0.07h6.2l-0.168 0.165c0.185 0.188 0.429-0.245 0.561 0.15 0.082-0.099 0.163-0.205 0.237-0.315h9.145l-0.072 0.069c0.172 0.042 0.242 3e-3 0.277-0.069h4.656c0.081 0.256 0.174 0.502 0.028 0.76zm-20.301 0h-0.328c0.082-0.152 0.201-0.087 0.328 0zm-3.983-0.58c0.085 0.125 0.233 0.26-3e-3 0.357-0.08 0.16-0.457-0.11-0.357 0.207l-0.028 0.016h-0.9v-0.76h1.264l-0.463 0.1c-2e-3 0.281 0.322 0.077 0.487 0.08zm3.861 0.452c-0.206-0.053 0.171-0.305-0.171-0.322-0.269-8e-3 -0.265 0.257-0.165 0.45h-3.336c0.16-0.184-0.155-0.398 0.068-0.502l0.277 0.142c-0.025-0.396-0.437-0.028-0.599-0.29l0.041-0.11h4.197c-0.02 0.239-0.143 0.49-0.312 0.632z" fill="#fff" stroke="#000" stroke-linecap="round" stroke-linejoin="round" stroke-width="2.123"/>
    </g>
    <g transform="translate(249.52 620.52)">
     <path d="m0 0c-0.154-0.09-0.321-0.122-0.449 0.042 0.013 0.152 0.055 0.229 0.13 0.26l-0.177 0.162-1.935-0.049 1.134-1.063h1.072l1.079-1.015-4e-3 0.066c0.105-0.067 0.25 0.034 0.289-0.066l-0.217-0.061 0.898-0.848 0.08 0.786zm-4.663 3.315-0.245-0.073-7e-3 0.219c0.116 0 0.185-0.111 0.252-0.146m-0.454 2.625-0.178-0.071v0.068zm0.068-0.735c-0.078-0.129-0.386-0.195-0.523-0.055l0.287-0.067c0.082 0.1 0.135 0.221 0.136 0.357l0.1-0.099v1.12l-0.373-0.291c0.014-0.097-0.02-0.23-0.045-0.387-0.041-0.244-0.031-0.38-0.213-0.563h-0.015v-1.394c0.187-0.035 0.409 0.01 0.462-0.236l-0.25-0.106c-9e-3 0.146-0.098 0.183-0.212 0.175v-0.884l0.848-0.756 0.186-0.087 4e-3 -0.065-0.011-8e-3 0.38-0.338v1.503l-0.761 0.715zm2.145-2.503c-0.037 0.286 0.259 0.036 0.319 0.289l-0.112 0.21-0.063 6e-3v-4e-3 4e-3l0.035 0.035-0.114 0.1 0.147-0.064 0.041 0.072 0.061-0.1c0.236-0.047 0.444-0.029 0.469-0.395-0.39 0.29-0.4-0.147-0.783-0.153m0.943 1.085-0.105 0.067 0.033 0.143 0.042-5e-3 0.03-9e-3v1.975l-0.652 0.503v-2.505h0.045c-0.032-0.137-0.028-0.295-0.145-0.313l-0.66-0.619v-1.172l0.029-0.222h-0.029v-0.109l1.412 1.254zm-0.207-5.783 0.034 0.144c0.147 0 0.18-0.144 0.182-0.282zm-0.777-0.187c0.056 0.085-0.035 0.283 0.141 0.287l0.138 3e-3c-0.039-0.175-0.023-0.388-0.279-0.29m1 0.928-1.129 1.063-0.041-1.348 0.304 0.107c-0.047-0.121-0.088-0.243-0.139-0.364l-0.173 0.09-6e-3 -0.305 0.668-0.631c0.096-0.026 0.172-0.08 0.214-0.203l1-0.943 0.565 0.062-0.318-0.291 0.266-0.251 0.832 0.079-2.043 1.92zm-3.271-1.207c-0.046 0.256 0.19 0.544 0.388 0.283zm-0.323 0.279-5e-3 0.072h0.185zm-0.659-1.293-2e-3 0.072 0.106 0.073zm-0.718-0.514v0.071l0.108 0.106zm1.785 3.159c0.216-0.05 0.365-0.099 0.492-0.211l-0.024 0.85-1.131-1.063v-0.48c0.2-0.048 0.125-0.261 0.081-0.532-0.04-0.244-0.028-0.378-0.21-0.562-0.097 7e-3 -0.187 0.019-0.285 0.028 0.255 0 0.465 0.074 0.454 0.363l-0.073 0.137-2.012-1.889 0.833-0.079 1.377 1.295-0.186 0.072 0.21-0.048 0.183 0.175 0.033 0.167 0.073-0.07 0.707 0.666-0.022 0.785c-0.281-0.098-0.527 0.022-0.5 0.396m-0.38 6.444c-0.014 0.05-0.102 0.166-0.184 0.292v-0.609c0.114 0.047 0.187 0.139 0.184 0.317m-2.472-6.221 0.038 0.113 0.141 0.108zm1.846 1.029 0.117-0.142c0.01-0.028-0.207 0.038-0.149-0.108l-0.143-2e-3 0.175 0.252m-0.3-1.069 1.128 1.063-0.267 8e-3 -0.214-0.265 0.036 0.267-1.492 0.039-2.395-2.25 0.08-0.786 1.382 1.298-0.417 0.157c0.191 0.2 0.562 0.244 0.671 0.081l0.412 0.388z" fill="#fff"/>
    </g>
    <g transform="translate(248.96 618.54)">
     <path d="m0 0c0.123 0.143 0.229 0.287 0.328 0.442-0.12 0.111-0.205 0.191-0.25 0.233h-0.486c-0.098-0.133-0.2-0.258-0.316-0.379v-0.013l0.179 0.143c0.131 0 0.116-0.207-0.1-0.182l-0.089 0.023v-0.273c0.06-0.06 0.202-0.19 0.387-0.366 0.112 0.108 0.221 0.22 0.324 0.339 0.179 0.263-0.45 0.43-0.068 0.692l0.144 2e-3c-0.244-0.195 0.077-0.454-0.053-0.661" fill="#fff"/>
    </g>
    <g transform="translate(241.66 622.1)">
     <path d="m0 0c-0.067-0.028-0.033-0.174-0.065-0.285-0.254-2e-3 -0.15 0.394 0.065 0.285m1.148 1.422 2e-3 -0.103c-0.086 0.205-0.434 0.171-0.608 0.171v0.101c0.211 0.112 0.427-0.025 0.606-0.169m0.146 0.507-0.107-0.182v0.076zm-1.368-2.647c0.081 0.117 0.159 0.11 0.195 0.036l0.048 0.045 0.154 0.145 4e-3 5e-3c-0.06 0.056-0.117 0.131-0.01 0.157h0.032c0.141 0.792 0.564 1.489 1.163 2.001v0.919c-0.692-0.443-1.245-1.069-1.586-1.809h0.141l-0.215-0.211 0.07 0.204c-0.039-0.092-0.078-0.179-0.113-0.274 0.096-0.051 0.176-0.116 0.249-0.22-0.123-0.069-0.245-0.099-0.349-0.085-0.074-0.264-0.126-0.538-0.143-0.817l0.183-0.098-0.194-0.15v-0.046c0-0.097 2e-3 -0.194 9e-3 -0.289l0.48 0.448z" fill="#fff"/>
    </g>
    <g transform="translate(242.48 618.45)">
     <path d="m0 0-1e-3 0.11c0.177 0.085 0.358 6e-3 0.519-0.102l0.076 0.072v0.144c-0.182 0.166-0.341 0.348-0.483 0.537h-0.332c-0.055-0.048-0.181-0.165-0.343-0.324 0.195-0.29 0.429-0.555 0.694-0.792 0.136 0.127 0.252 0.237 0.336 0.317-0.143 0.056-0.345 0.042-0.466 0.038" fill="#fff"/>
    </g>
    <g transform="translate(245.57 617.72)">
     <path d="m0 0c-0.174 0-0.345 0.013-0.51 0.032l-0.662-0.619c0.373-0.1 0.768-0.157 1.172-0.157 0.189 0 0.371 0.013 0.552 0.036-0.072 0.174-0.371 0.318-0.08 0.518l0.143 4e-3c-0.191-0.152-0.041-0.344-0.023-0.519 0.242 0.032 0.473 0.087 0.698 0.15l-0.647 0.611c-0.206-0.039-0.42-0.056-0.643-0.056" fill="#fff"/>
    </g>
    <g transform="translate(248.38 623.69)">
     <path d="m0 0 0.256-0.033-0.06-0.376-0.01-0.053 0.01 0.053c-8e-3 0.152-0.288 0.22-0.196 0.409m0.557-1.225c0.16-6e-3 0.298-0.059 0.381-0.216-0.067 0.114-0.208 0.157-0.333 0.086 0.068-0.185 0.12-0.375 0.155-0.572l0.021-0.122 0.116 2e-3 0.65-0.612 6e-3 0.152c0 0.391-0.057 0.769-0.158 1.127l-0.12-0.069 0.079 0.198c-0.275 0.841-0.813 1.566-1.528 2.091v-0.975c0.311-0.312 0.557-0.683 0.731-1.09" fill="#fff"/>
    </g>
    <g transform="translate(245.96 624.9)">
     <path d="m0 0 0.293 0.177v0.255c-0.219 0.031-0.445 0.052-0.68 0.052-0.15 0-0.301-0.01-0.45-0.023v-0.75c0.149 0.02 0.299 0.033 0.45 0.033 0.235 0 0.461-0.025 0.68-0.063v0.211c-0.145 0.02-0.268 0.049-0.293 0.108" fill="#fff"/>
    </g>
    <g transform="translate(277.38 617.38)">
     <path d="m0 0 0.208 0.042 3e-3 -0.144zm-0.895-0.264 0.081 0.112c0.117-0.128 0.237-0.258 0.359-0.388 0-0.035-0.43 0.071-0.44 0.276m-0.595-0.254c0 0.214-6e-3 0.358 0.175 0.505 0.106-0.147 0.076-0.431-0.175-0.505m-6.658 0.198 0.285-0.065c0.087 0.105 0.136 0.225 0.136 0.355 0.372-0.247-0.209-0.49-0.421-0.29m-0.996-0.082v0.074l0.105 0.105zm-2.323 0.117c0.248 0.073 0.254-0.214 0.254-0.251-0.033-0.103-0.287 0.106-0.254 0.251m-0.274-0.216-0.179 0.067 0.135 0.143c0.037 0.074 0.111-0.102 0.044-0.21m-7.5 0.555c-0.11 0.017-0.523-0.149-0.581-0.141-0.033 0.312 0.404 0.274 0.581 0.141l0.028-0.02-0.028 0.02m-2.679-0.135v0.073l0.213 8e-3 2e-3 -0.076zm-2.626-0.071-0.218-2e-3v0.036l0.218 1e-3zm16.483 0.346c-0.021-0.171-0.041-0.289-0.196-0.44-0.094 6e-3 -0.186 0.023-0.278 0.029 0.252 5e-3 0.459 0.073 0.453 0.363l-0.026 0.048h-7.643c-0.146-0.252-0.229-0.58-0.538-0.587 0.095 0.083 0.189 0.17 0.282 0.249-0.083 0.071-0.146 0.157-0.182 0.255 0.115-0.026 0.171 0.012 0.189 0.083h-7.141c-0.063-0.048-0.108-0.109-0.087-0.289l-0.178 0.065 0.231 0.224h-3.206v-0.755h0.744c0.015 0.151 0.056 0.276 0.165 0.359 0.062-0.184 0.013-0.232-0.081-0.359h1.635c-0.069 0.114-0.15 0.236-0.273 0.236v-2e-3l-0.065-0.103 0.065 0.103c0.014 0.131-0.284 0.198-0.172 0.344 0.166 0.216 0.413-0.284 0.537-0.578h0.993v0.188h-0.117c-3e-3 0.1 0.028 0.177 0.113 0.244 0.095-0.117 0.247-0.289 0.293-0.432h1.967c-0.064 0.155-0.202 0.642-0.374 0.283l0.142-0.138-0.251-2e-3c0.253 0.248-0.325 0.319-0.079 0.6 0.227-0.044 0.45-0.156 0.608-0.316-0.067-0.062-0.123-0.276-0.029-0.355 0.152 0.031 0.308 0.051 0.462 0.081l-0.111-0.153h1.569l0.178 0.103v-0.103h2.857c-0.084 0.106-0.105 0.295 0.052 0.357l0.217-0.354-7e-3 -3e-3h2.284l-2e-3 1e-3 0.047-1e-3h7.678c-0.035 0.283 0.264 0.032 0.318 0.289-0.044 0.138-0.134 0.264-0.257 0.349 0.323-0.198 0.687 8e-3 0.724-0.487-0.392 0.289-0.404-0.15-0.785-0.151h1.328l-4e-3 0.143c0.112 0 0.182-0.113 0.251-0.143h1.421c-0.041 0.521-0.975-0.368-0.68 0.521l0.389 8e-3 -0.101-0.112c0.183-0.176 0.567 0.019 0.641-0.311l-0.249-0.106h0.435c-0.115 0.188-0.468 0.609-0.212 0.638 0.439 0.054 0.34-0.198 0.286-0.535l-0.019-0.103h2.733v0.755z" fill="#fff"/>
    </g>
    <g transform="translate(277.43 624.92)">
     <path d="m0 0c0.135-0.233-0.142-0.553 0.046-0.76h0.555v0.76zm-14.569-0.76h0.151-0.151m12.432 0.15c-0.142-4e-3 -0.144 0.212-0.038 0.249 0.106-0.037 0.038-0.181 0.038-0.249m-1.176 0.34c-0.086-5e-3 -0.185-0.012-0.285-0.018l-0.18-0.031-0.023 0.012c-0.094-0.012-0.182-0.022-0.256-0.048l0.034 0.218 0.222-0.17 0.203 0.019 2e-3 0.016 0.1 0.016-0.1 0.155c0.035-0.072 0.397 0.07 0.283-0.169m-1.996 0.181v0.073h0.141zm-0.247-0.643c-0.339-6e-3 -0.286 0.481-0.049 0.364 0.103-0.04 0.159-0.307 0.049-0.364m-2.944-6e-3 0.388 0.149 3e-3 -0.143zm-1.639 0.296 0.073 0.113 0.072-0.113zm-1.679 6e-3c0.097 0.198 0.211 0.038 0.214-0.066zm-5.866-0.304-2e-3 0.11h0.105zm-2.124 0.254-0.076 0.253c0.109-0.074 0.247 4e-3 0.284-0.107zm18.718 0.486 0.147-0.121c0.127 0.01 0.242 0.122 0.29-0.078-0.353-0.185-0.242-0.144-0.531 0.136-0.195-4e-3 -0.302-0.567-0.461-0.292 0.027 0.099-0.047 0.225-0.136 0.355h-0.27l0.193-0.215-0.317 0.215h-5.865c-0.087-0.044-0.146-0.101-0.111-0.199-0.158 0.151-0.34-0.303-0.425-0.221-4e-3 0.274 0.161 0.247 0.196 0.42h-8.607c0.18-0.26-0.31-0.121-0.24-0.382l-0.179-2e-3c-0.035 0.256 0.328 0.18 0.375 0.384h-3.436c0.022-0.168 0.024-0.353-0.013-0.435-0.249 0.208-0.424-0.142-0.608-0.255l0.029-0.07h6.2l-0.168 0.165c0.185 0.188 0.429-0.245 0.561 0.15 0.082-0.099 0.163-0.205 0.237-0.315h9.145l-0.072 0.069c0.172 0.042 0.242 3e-3 0.277-0.069h4.656c0.081 0.256 0.174 0.502 0.028 0.76zm-20.301 0h-0.328c0.082-0.152 0.201-0.087 0.328 0m-3.983-0.58c0.085 0.125 0.233 0.26-3e-3 0.357-0.08 0.16-0.457-0.11-0.357 0.207l-0.028 0.016h-0.9v-0.76h1.264l-0.463 0.1c-2e-3 0.281 0.322 0.077 0.487 0.08m3.861 0.452c-0.206-0.053 0.171-0.305-0.171-0.322-0.269-8e-3 -0.265 0.257-0.165 0.45h-3.336c0.16-0.184-0.155-0.398 0.068-0.502l0.277 0.142c-0.025-0.396-0.437-0.028-0.599-0.29l0.041-0.11h4.197c-0.02 0.239-0.143 0.49-0.312 0.632" fill="#fff"/>
    </g>
   </g>
  </g>
  <g transform="matrix(5.225 0 0 -5.225 -1374.6 3184.4)">
   <path d="m250.95 620.98c0-1.435 0.859-2.338 2.282-2.338s2.284 0.903 2.284 2.338c0 1.437-0.861 2.335-2.284 2.335s-2.282-0.898-2.282-2.335m1.443 0c0 1.089 0.29 1.442 0.839 1.442 0.534 0 0.84-0.297 0.84-1.442 0-1.21-0.378-1.444-0.84-1.444-0.468 0-0.839 0.234-0.839 1.444" fill="url(#linearGradient13066)"/>
  </g>
  <g transform="matrix(5.225 0 0 -5.225 -1374.6 3184.4)">
   <path d="m255.87 620.94c0-1.621 1.173-2.301 2.1-2.301 1.163 0 1.866 0.457 2.187 1.527l-1.024 0.211c-0.093-0.424-0.4-0.844-0.896-0.844-0.687 0-0.924 0.486-0.924 1.493 0 0.973 0.268 1.393 0.794 1.393 0.456 0 0.684-0.375 0.729-0.781l1.276 0.086c-0.092 0.826-0.75 1.588-1.945 1.588-1.157 0-2.297-0.713-2.297-2.372" fill="url(#linearGradient13088)"/>
  </g>
  <g transform="matrix(5.225 0 0 -5.225 -1374.6 3184.4)">
   <path d="m260.37 623.23v-0.894h1.315v-3.612h1.367v3.612h1.315v0.894z" fill="url(#linearGradient13110)"/>
  </g>
  <g transform="matrix(5.225 0 0 -5.225 -1374.6 3184.4)">
   <path d="m265.72 623.23-1.619-4.506h1.082l0.309 0.858h1.634l0.285-0.858h1.422l-1.637 4.506zm0.599-1.246h0.015l0.478-1.471h-1.015z" fill="url(#linearGradient13132)"/>
  </g>
  <g transform="matrix(5.225 0 0 -5.225 -1374.6 3184.4)">
   <path d="m272.36 623.23v-2.388h-0.018l-1.698 2.388h-1.273v-4.506h1.051v2.552h0.012l1.947-2.552h1.026v4.506z" fill="url(#linearGradient13154)"/>
  </g>
  <g transform="matrix(5.225 0 0 -5.225 -1374.6 3184.4)">
   <path d="m274.23 623.23v-4.506h3.668v0.964h-2.3v0.867h1.43v0.931h-1.43v0.816h2.233v0.928z" fill="url(#linearGradient13176)"/>
  </g>
 </g>
</svg>
