<svg width="800" height="316.37" version="1.1" viewBox="0 0 211.67 83.705" xmlns="http://www.w3.org/2000/svg">
 <g transform="translate(197.25 51.308)">
  <g transform="matrix(6.2565 0 0 -6.2565 -5.3911 -10.716)">
   <path d="m0 0 3.166 3.117-2.287 1.275 1.491 1.057-0.989 0.568h-4e-3v0.014c-0.782 0.151-1.57 0.264-2.367 0.338-0.811 0.07-1.633 0.108-2.471 0.117-0.842 0.01-1.705-0.019-2.574-0.06v2e-3c-0.887-0.045-1.787-0.11-2.698-0.194-0.929-0.08-1.876-0.177-2.833-0.273-0.976-0.104-1.969-0.207-2.979-0.309v4e-3c-1.032-0.097-2.088-0.197-3.162-0.273-1.08-0.076-2.182-0.137-3.308-0.174v4e-3c-0.544-0.01-1.096-0.02-1.651-0.02-1.156 0-2.338 0.035-3.543 0.116-1.248 0.082-2.521 0.216-3.825 0.41 0.034-0.741 0.108-2.227 0.108-2.227s0.315-0.836 0.582-1.244c-0.336-0.143-0.628-0.396-0.863-0.766l-1e-3 -5e-3c-0.334-0.54-0.489-1.198-0.452-1.93 0.035-0.721 0.244-1.387 0.619-1.973 0.325-0.517 1.165-1.273 1.854-1.658-0.459 0.022-0.918 0.047-1.385 0.088 0.041-0.742 0.111-2.221 0.111-2.221l0.818-0.578s2.498 0.752 2.463 1.422c0.475-0.035 0.609-6e-3 0.648 0.045l0.536-0.35 16.676 2.391 9.095 0.873 0.64 0.111c0.106-0.012 0.216-0.013 0.319-0.023l0.983 0.195-0.126 0.029 0.137 0.024z" fill="#231f20"/>
  </g>
  <g transform="matrix(6.2565 0 0 -6.2565 10.103 -21.078)">
   <path d="m0 0c-0.097-0.437-0.162-0.793-0.191-1.072-2e-3 0 0.019-0.432 0.064-1.295-0.253 0.031-0.51 0.058-0.768 0.082-0.023 0.435-0.039 0.869-0.064 1.303-0.059 0.295-0.16 0.675-0.306 1.142-0.112 0.383-0.23 0.756-0.346 1.141 0.256-0.024 0.511-0.055 0.765-0.088 0.076-0.385 0.149-0.781 0.223-1.168 0.031 0.379 0.064 0.75 0.101 1.123 0.252-0.033 0.503-0.078 0.756-0.127-0.08-0.34-0.16-0.687-0.234-1.041m-6.254 1.367c0.082-0.564 0.164-1.121 0.251-1.681 0.024 0.562 0.054 1.129 0.078 1.691 0.246 0.016 0.491 0.027 0.734 0.031 0.08-0.56 0.16-1.113 0.24-1.67 0.028 0.561 0.054 1.119 0.081 1.68 0.28 2e-3 0.564 2e-3 0.845 2e-3 -0.104-1.211-0.203-2.426-0.305-3.645-0.287-0.015-0.576-0.029-0.866-0.045-0.089 0.637-0.181 1.276-0.273 1.918-0.027-0.648-0.057-1.296-0.086-1.941-0.292-0.025-0.589-0.049-0.884-0.078-0.23 1.225-0.459 2.457-0.694 3.678 0.295 0.023 0.588 0.043 0.879 0.06m4.661-3.607c-0.272 0.015-0.55 0.033-0.826 0.035-0.019 0.184-0.038 0.363-0.058 0.549-0.099 2e-3 -0.202 6e-3 -0.301 6e-3 -3e-3 -0.182-0.01-0.364-0.015-0.545-0.271 2e-3 -0.546 0-0.821-0.01 0.107 1.209 0.219 2.412 0.327 3.611 0.338-0.013 0.679-0.031 1.015-0.051 0.227-1.199 0.454-2.396 0.679-3.595m-6.205 0.267c-0.192-0.384-0.479-0.607-0.864-0.656-0.324-0.043-0.652-0.092-0.983-0.135-0.064 1.272-0.123 2.547-0.187 3.823 0.328 0.039 0.655 0.068 0.982 0.107 0.411 0.037 0.723-0.119 0.944-0.473 0.191-0.314 0.301-0.753 0.33-1.33 0.028-0.537-0.047-0.978-0.222-1.336m-6.615-1.611c-0.386-0.064-0.713 0.115-0.979 0.529-0.241 0.367-0.374 0.815-0.397 1.342-0.027 0.524 0.06 1 0.259 1.434 0.227 0.482 0.53 0.742 0.915 0.791 0.836 0.109 1.283-0.539 1.353-1.928 0.027-0.572-0.043-1.045-0.218-1.42-0.195-0.428-0.508-0.68-0.933-0.748m3.263 4.49c0.26-1.267 0.522-2.523 0.781-3.781-0.322-0.049-0.642-0.1-0.967-0.15-0.019 0.195-0.041 0.392-0.061 0.586-0.119-0.018-0.236-0.036-0.353-0.053-6e-3 -0.199-0.014-0.399-0.022-0.6-0.318-0.053-0.639-0.103-0.96-0.158 0.132 1.34 0.263 2.674 0.4 4.01 0.394 0.051 0.792 0.097 1.182 0.146m-6.224-4.892c-0.1 0.49-0.2 0.978-0.294 1.468l-0.068-0.011c0.024-0.496 0.05-1 0.074-1.5-0.347-0.049-0.692-0.094-1.04-0.145-0.07 1.379-0.138 2.758-0.206 4.137 0.383 0.037 0.766 0.074 1.144 0.123 0.342 0.033 0.623-0.041 0.844-0.236 0.24-0.202 0.373-0.514 0.393-0.93 0.022-0.463-0.09-0.822-0.344-1.08 0.179-0.563 0.356-1.115 0.534-1.67-0.346-0.053-0.694-0.102-1.037-0.156m-4.74 3.689c0.446 0.027 0.89 0.057 1.333 0.088 0.312 0.025 0.575-0.047 0.788-0.215 0.229-0.191 0.352-0.471 0.37-0.84 0.019-0.386-0.09-0.689-0.33-0.906 0.312-0.199 0.478-0.482 0.494-0.855 0.022-0.413-0.072-0.739-0.279-0.983-0.188-0.219-0.453-0.349-0.801-0.394-0.453-0.051-0.906-0.096-1.361-0.139-0.073 1.412-0.143 2.824-0.214 4.244m22.374 1.838s-0.336 0.055-0.58 0.098c-0.136 0.021-0.25 0.041-0.259 0.041v0.01l-0.088 7e-3 -0.165 0.028v-0.01l-1.342 0.162 3e-3 -0.014-1.438 0.077h-1.279v5e-3l-0.151-5e-3h-0.191v-8e-3l-0.717-0.022v6e-3l-0.18-0.01-0.162-6e-3v-3e-3l-1.342-0.079 0.119-0.619 0.123-0.638c-0.062 0.171-0.134 0.332-0.22 0.472-0.169 0.272-0.454 0.569-0.903 0.657-0.115 0.017-0.243 0.027-0.385 0.017l-0.07-6e-3 -1.307-0.133 0.028-0.521 0.162-3.227-0.758 3.68-0.346-0.037-0.017-2e-3 -0.502-0.057-1.013-0.127-0.041-0.427-0.15-1.491c-0.101 0.565-0.279 0.995-0.55 1.293l-0.239 0.207c-0.257 0.182-0.568 0.258-0.921 0.227h-0.055c-0.52-0.064-0.951-0.43-1.248-1.055-0.088-0.201-0.161-0.4-0.213-0.609-0.112 0.455-0.336 0.738-0.531 0.906l-0.072 0.057c-0.276 0.213-0.61 0.308-0.994 0.285l-0.088-2e-3 -1.593-0.158 0.026-0.565 0.016-0.312c-0.094 0.168-0.213 0.312-0.357 0.435-0.167 0.135-0.348 0.223-0.543 0.276-0.155 0.043-0.323 0.056-0.497 0.047l-0.059 7e-3 -1.819-0.115 0.027-0.599 0.228-4.571 0.018-0.322 1.881 0.201c0.41 0.053 0.745 0.215 1.004 0.479l0.092 0.09c0.082 0.099 0.15 0.209 0.209 0.322l0.019-0.363 0.018-0.356s1.226 0.178 1.42 0.203v-4e-3s0.145 0.022 0.265 0.045c0.131 0.018 0.303 0.043 0.303 0.043 0.223 0.033 1.476 0.231 1.476 0.231l-0.146 0.455-0.078 0.248s-0.285 0.887-0.424 1.314l0.12 0.242c0.062-0.513 0.222-0.972 0.478-1.365 0.138-0.217 0.299-0.373 0.468-0.498 0.276-0.199 0.584-0.289 0.919-0.228 0.405 0.064 0.742 0.285 0.997 0.609 0.064 0.086 0.125 0.168 0.177 0.266l-0.022-0.239-0.039-0.392s1.705 0.287 1.797 0.304c0.07 6e-3 1.269 0.202 1.539 0.245l1.289 0.189c0.373 0.045 0.679 0.23 0.918 0.527 0.083 0.104 0.158 0.223 0.228 0.358 0.221 0.457 0.317 1.019 0.284 1.668l-8e-3 0.125 0.398-2.129 0.059-0.313s1.304 0.118 1.398 0.123l1.334 0.081v3e-3c0.216 2e-3 1.323 0.01 1.406 0.01 0.073 0 1.076-0.037 1.373-0.045l1.463-0.142-0.022 0.562-0.064 1.225c0.028 0.24 0.086 0.556 0.17 0.941l0.233 1.041 0.132 0.598z" fill="#f1ef82"/>
  </g>
  <g transform="matrix(6.2565 0 0 -6.2565 -42.918 -16.215)">
   <path d="m0 0c-0.032 0.654-0.152 0.973-0.363 0.953l-0.051-0.016c0.025-0.587 0.055-1.175 0.084-1.767h0.039c0.222 0.025 0.317 0.295 0.291 0.83" fill="#f1ef82"/>
  </g>
  <g transform="matrix(6.2565 0 0 -6.2565 -7.5784 -16.41)">
   <path d="M 0,0 C 0.103,-0.002 0.205,-0.008 0.309,-0.01 0.232,0.449 0.16,0.906 0.088,1.369 0.06,0.912 0.029,0.459 0,0" fill="#f1ef82"/>
  </g>
  <g transform="matrix(6.2565 0 0 -6.2565 -167.99 -4.606)">
   <path d="m0 0c0.033-0.645-0.064-1.164-0.289-1.541-0.261-0.434-0.664-0.641-1.217-0.607-0.501 0.031-0.925 0.318-1.267 0.863-0.309 0.484-0.479 1.027-0.51 1.625-0.028 0.59 0.091 1.099 0.355 1.521 0.293 0.475 0.695 0.68 1.192 0.633 1.083-0.101 1.656-0.912 1.736-2.494m3.697 2.232c0.073-1.443 0.143-2.886 0.217-4.336-0.394-0.013-0.791-0.029-1.194-0.043-0.224 0.643-0.454 1.292-0.685 1.94 0.033-0.652 0.067-1.303 0.1-1.953-0.401-6e-3 -0.803-6e-3 -1.207-6e-3 -0.073 1.479-0.147 2.957-0.22 4.436 0.427-0.018 0.847-0.028 1.265-0.038 0.218-0.656 0.435-1.308 0.65-1.961-0.032 0.653-0.062 1.305-0.098 1.957 0.395-1e-3 0.785 0 1.172 4e-3m-7.105 0.018-2e-3 -2e-3c-0.34-0.545-0.494-1.197-0.458-1.938 0.034-0.726 0.245-1.392 0.618-1.982 0.27-0.422 0.598-0.717 0.959-0.904 0.239-0.123 0.487-0.205 0.752-0.223 0.473-0.027 0.836 0.09 1.116 0.268 0.273 0.174 0.466 0.412 0.595 0.627 0.063 0.111 0.121 0.232 0.17 0.355l0.055-1.027 9e-3 -0.233s1.854 0.018 1.962 0.02v-2e-3l0.066 2e-3c0.142 2e-3 0.277 2e-3 0.277 2e-3v0.01l1.761 0.078-0.037 0.638-0.244 4.922s-0.397-4e-3 -0.837-4e-3c-0.501 0-1.057 0-1.131 4e-3 -0.114 2e-3 -2.096 0.067-2.096 0.067l0.027-0.678 0.021-0.453c-0.224 0.488-0.529 0.806-0.861 1.013-0.327 0.202-0.683 0.299-1.017 0.335h-0.037c-0.684 0.054-1.264-0.252-1.668-0.895" fill="#f1ef82"/>
  </g>
  <g transform="matrix(6.2565 0 0 -6.2565 -177.8 .7338)">
   <path d="m0 0c0.15-0.01 0.237 0.16 0.263 0.512 0.014 0.127 8e-3 0.371-8e-3 0.726-0.027 0.532-0.144 0.807-0.358 0.825-0.155 0.013-0.249-0.153-0.274-0.497-6e-3 -0.123-2e-3 -0.365 0.017-0.736 0.024-0.539 0.147-0.812 0.36-0.83" fill="#f1ef82"/>
  </g>
  <g transform="matrix(6.2565 0 0 -6.2565 -80.414 -5.8035)">
   <path d="m0 0c0.115 0.02 0.181 0.187 0.2 0.504 8e-3 0.117 6e-3 0.33-0.01 0.643-0.023 0.47-0.118 0.697-0.281 0.677-0.121-0.019-0.19-0.183-0.207-0.496-6e-3 -0.109 0-0.328 0.016-0.654 0.021-0.475 0.114-0.697 0.282-0.674" fill="#f1ef82"/>
  </g>
  <g transform="matrix(6.2565 0 0 -6.2565 -63.753 -11.632)">
   <path d="M 0,0 C 0.122,0.016 0.24,0.033 0.359,0.049 0.275,0.539 0.191,1.031 0.109,1.516 0.071,1.014 0.037,0.504 0,0" fill="#f1ef82"/>
  </g>
  <g transform="matrix(6.2565 0 0 -6.2565 -99.373 -11.523)">
   <path d="m0 0c0.012 0.053 0.015 0.158 7e-3 0.307l-0.066 0.214-0.16 0.077-0.096-0.01c0.01-0.262 0.022-0.522 0.036-0.778l0.107 0.014c0.091 8e-3 0.147 0.068 0.172 0.176" fill="#f1ef82"/>
  </g>
  <g transform="matrix(6.2565 0 0 -6.2565 -120.21 -13.306)">
   <path d="m0 0-0.132-0.01c9e-3 -0.222 0.022-0.445 0.031-0.666l0.155 8e-3c0.128 0.01 0.18 0.143 0.172 0.393-0.01 0.195-0.085 0.289-0.226 0.275" fill="#f1ef82"/>
  </g>
  <g transform="matrix(6.2565 0 0 -6.2565 -120.59 -4.0442)">
   <path d="m0 0c0.012-0.229 0.022-0.453 0.034-0.682 0.149 0.018 0.237 0.045 0.269 0.067 0.056 0.041 0.082 0.14 0.074 0.289-0.013 0.244-0.092 0.357-0.236 0.343l-0.141-0.017" fill="#f1ef82"/>
  </g>
  <g transform="matrix(6.2565 0 0 -6.2565 5.4595 1.6379)">
   <path d="m0 0c-0.457 0.033-0.918 0.064-1.383 0.074h-0.026c-0.813 0.024-1.638-2e-3 -2.472-0.053-0.84-0.05-1.694-0.132-2.559-0.242-0.89-0.101-1.79-0.234-2.705-0.379v4e-3c-0.93-0.148-1.878-0.31-2.839-0.478-0.989-0.17-1.997-0.348-3.018-0.516-1.021-0.172-2.058-0.332-3.115-0.486v8e-3c-1.1-0.157-2.218-0.295-3.363-0.405-0.512-0.052-1.032-0.097-1.553-0.134-1.175-0.082-2.369-0.131-3.593-0.141-1.261 0-2.552 0.043-3.87 0.148 0.033-0.673 0.066-1.351 0.1-2.025l0.011-0.195c1.295-0.09 2.561-0.108 3.799-0.09h0.082v4e-3c1.211 0.025 2.4 0.095 3.562 0.197v-0.01c0.53 0.047 1.046 0.106 1.565 0.16l0.201 0.024 0.057 2e-3v2e-3c1.055 0.127 2.092 0.271 3.103 0.429v0.01c1.056 0.166 2.092 0.348 3.113 0.537 1.022 0.188 2.026 0.379 3.015 0.565 0.959 0.183 1.904 0.365 2.832 0.527 0.91 0.158 1.808 0.301 2.695 0.42 0.875 0.123 1.74 0.215 2.595 0.281v2e-3c0.828 0.067 1.647 0.1 2.456 0.098 0.802-8e-3 1.601-0.049 2.386-0.139-0.029 0.565-0.056 1.133-0.084 1.701-0.332 0.041-0.658 0.071-0.992 0.1" fill="#e8292d"/>
  </g>
  <g transform="matrix(6.2565 0 0 -6.2565 9.8954 -35.559)">
   <path d="m0 0c-0.026 0.492-0.049 0.986-0.074 1.478v0.01c-0.324 0.067-0.655 0.117-0.985 0.168-0.471 0.071-0.943 0.131-1.42 0.176-0.81 0.074-1.627 0.109-2.46 0.117v2e-3h-0.018l-0.102-0.01c-0.848 0.01-1.621-2e-3 -2.498-0.05-0.353-0.02-0.714-0.055-1.069-0.079-0.108-5e-3 -0.214-0.011-0.317-0.017-0.434-0.035-0.862-0.057-1.303-0.096v2e-3c-0.943-0.082-1.901-0.178-2.877-0.275v-2e-3c-0.978-0.102-1.973-0.203-2.982-0.299-1.042-0.104-2.097-0.193-3.174-0.272-1.086-0.078-2.194-0.136-3.321-0.169v3e-3c-0.556-0.011-1.122-0.019-1.691-0.019-1.157 0-2.336 0.035-3.543 0.119-1.252 0.082-2.529 0.219-3.833 0.416 0.03-0.711 0.065-1.414 0.103-2.125l5e-3 -0.107c1.301-0.18 2.57-0.289 3.817-0.352v-2e-3l0.07-6e-3h6e-3c1.186-0.056 2.348-0.074 3.488-0.048v-4e-3c0.559 5e-3 1.112 0.025 1.66 0.043v-6e-3c1.145 0.052 2.27 0.129 3.371 0.228l-1e-3 6e-3c1.056 0.092 2.101 0.199 3.125 0.318h0.014l0.018 2e-3c1.013 0.117 2.012 0.239 2.993 0.354 0.953 0.113 1.894 0.223 2.819 0.316 0.925 0.098 1.839 0.18 2.74 0.24 0.867 0.053 1.723 0.092 2.564 0.102 0.848 6e-3 1.684-0.02 2.504-0.084 0.804-0.058 1.598-0.158 2.383-0.299l-0.012 0.221" fill="#e8292d"/>
  </g>
  <g transform="matrix(6.2565 0 0 -6.2565 -180.16 -9.0664)">
   <path d="m0 0c0.025 0.344 0.119 0.51 0.274 0.496 0.214-0.018 0.331-0.293 0.358-0.824 0.016-0.356 0.022-0.6 8e-3 -0.727-0.026-0.351-0.113-0.521-0.263-0.511-0.213 0.017-0.336 0.291-0.36 0.83-0.019 0.371-0.023 0.613-0.017 0.736m0.209 1.781c-0.497 0.047-0.899-0.158-1.192-0.633-0.264-0.421-0.382-0.931-0.355-1.521 0.031-0.598 0.201-1.141 0.51-1.625 0.343-0.545 0.766-0.832 1.267-0.863 0.553-0.034 0.957 0.173 1.217 0.607 0.225 0.377 0.322 0.897 0.289 1.541-0.08 1.582-0.653 2.393-1.736 2.494" fill="#e8292d"/>
  </g>
  <g transform="matrix(6.2565 0 0 -6.2565 -152.19 -18.549)">
   <path d="m0 0c0.035-0.652 0.065-1.305 0.098-1.957-0.215 0.652-0.432 1.305-0.651 1.961-0.418 0.01-0.838 0.019-1.264 0.037 0.073-1.478 0.147-2.957 0.219-4.436 0.405 0 0.807 0 1.207 6e-3 -0.033 0.651-0.066 1.301-0.099 1.954 0.23-0.649 0.461-1.297 0.684-1.94 0.404 0.014 0.8 0.029 1.195 0.043-0.075 1.449-0.145 2.893-0.217 4.336-0.388-4e-3 -0.777-6e-3 -1.172-4e-3" fill="#e8292d"/>
  </g>
  <g transform="matrix(6.2565 0 0 -6.2565 -119.88 -9.1276)">
   <path d="m0 0-0.154-8e-3c-0.01 0.221-0.023 0.443-0.031 0.666l0.131 0.01c0.141 0.014 0.216-0.08 0.226-0.276 9e-3 -0.25-0.044-0.382-0.172-0.392m0.027-0.795c0.145 0.014 0.224-0.1 0.237-0.344 8e-3 -0.148-0.018-0.248-0.074-0.289-0.033-0.021-0.121-0.049-0.269-0.066-0.012 0.228-0.023 0.453-0.034 0.682l0.14 0.017m0.209-1.697c0.348 0.045 0.614 0.176 0.801 0.394 0.207 0.244 0.301 0.571 0.279 0.983-0.015 0.373-0.181 0.656-0.494 0.855 0.24 0.217 0.35 0.52 0.33 0.906-0.017 0.37-0.14 0.649-0.37 0.84-0.213 0.168-0.475 0.241-0.788 0.215-0.442-0.031-0.886-0.06-1.333-0.088 0.072-1.42 0.142-2.832 0.214-4.244 0.455 0.043 0.908 0.088 1.361 0.139" fill="#e8292d"/>
  </g>
  <g transform="matrix(6.2565 0 0 -6.2565 -100.45 -10.423)">
   <path d="m0 0-0.107-0.014c-0.014 0.256-0.026 0.516-0.037 0.778l0.097 9e-3 0.16-0.076 0.066-0.215c8e-3 -0.148 5e-3 -0.254-7e-3 -0.306-0.025-0.108-0.081-0.168-0.172-0.176m0.799-0.457c0.254 0.258 0.366 0.617 0.344 1.08-0.02 0.416-0.153 0.729-0.393 0.93-0.221 0.195-0.502 0.269-0.844 0.236-0.378-0.049-0.761-0.086-1.144-0.123 0.068-1.379 0.136-2.758 0.206-4.137 0.348 0.051 0.693 0.096 1.04 0.145-0.024 0.5-0.05 1.004-0.074 1.5l0.068 0.011c0.094-0.49 0.194-0.978 0.294-1.468 0.343 0.054 0.691 0.103 1.037 0.156-0.178 0.555-0.355 1.107-0.534 1.67" fill="#e8292d"/>
  </g>
  <g transform="matrix(6.2565 0 0 -6.2565 -82.278 -14.113)">
   <path d="m0 0c0.017 0.312 0.086 0.477 0.207 0.496 0.163 0.02 0.258-0.207 0.281-0.678 0.016-0.312 0.018-0.525 0.01-0.642-0.02-0.317-0.085-0.485-0.2-0.504-0.168-0.024-0.261 0.199-0.282 0.674-0.016 0.326-0.022 0.545-0.016 0.654m1.285-1.723c0.176 0.375 0.245 0.848 0.219 1.42-0.07 1.389-0.518 2.037-1.354 1.928-0.384-0.049-0.687-0.309-0.915-0.791-0.198-0.434-0.286-0.91-0.258-1.434 0.023-0.527 0.156-0.974 0.397-1.341 0.266-0.414 0.593-0.594 0.978-0.53 0.425 0.069 0.739 0.321 0.933 0.748" fill="#e8292d"/>
  </g>
  <g transform="matrix(6.2565 0 0 -6.2565 -61.505 -11.938)">
   <path d="m0 0c-0.119-0.016-0.237-0.033-0.359-0.049 0.037 0.504 0.071 1.014 0.109 1.516 0.082-0.485 0.166-0.977 0.25-1.467m-0.887 2.221c-0.136-1.336-0.267-2.67-0.4-4.01 0.321 0.055 0.642 0.105 0.961 0.158 8e-3 0.201 0.016 0.401 0.021 0.6 0.118 0.017 0.235 0.035 0.354 0.053 0.019-0.194 0.041-0.391 0.06-0.586 0.326 0.05 0.645 0.101 0.967 0.15-0.259 1.258-0.52 2.514-0.781 3.781-0.39-0.049-0.787-0.095-1.182-0.146" fill="#e8292d"/>
  </g>
  <g transform="matrix(6.2565 0 0 -6.2565 -44.739 -11.022)">
   <path d="m0 0h-0.039c-0.029 0.592-0.059 1.18-0.084 1.768l0.051 0.015c0.211 0.02 0.331-0.299 0.363-0.953 0.026-0.535-0.069-0.805-0.291-0.83m1.189 0.971c-0.029 0.576-0.138 1.015-0.33 1.33-0.22 0.353-0.533 0.509-0.943 0.472-0.327-0.039-0.654-0.068-0.982-0.107 0.064-1.275 0.123-2.551 0.187-3.822 0.33 0.043 0.658 0.091 0.982 0.134 0.385 0.049 0.672 0.272 0.865 0.657 0.175 0.357 0.25 0.799 0.221 1.336" fill="#e8292d"/>
  </g>
  <g transform="matrix(6.2565 0 0 -6.2565 -30.185 -6.2433)">
   <path d="m0 0c0.296 0.029 0.593 0.053 0.885 0.078 0.028 0.645 0.058 1.293 0.086 1.942 0.091-0.643 0.183-1.282 0.272-1.918 0.29 0.015 0.579 0.029 0.866 0.044 0.103 1.219 0.202 2.434 0.305 3.645-0.28 0-0.564 0-0.845-2e-3 -0.026-0.561-0.052-1.119-0.081-1.68-0.08 0.557-0.16 1.11-0.24 1.67-0.242-4e-3 -0.487-0.015-0.733-0.031-0.025-0.562-0.054-1.129-0.078-1.691-0.087 0.56-0.169 1.117-0.251 1.681-0.291-0.017-0.584-0.037-0.879-0.06 0.234-1.221 0.464-2.453 0.693-3.678" fill="#e8292d"/>
  </g>
  <g transform="matrix(6.2565 0 0 -6.2565 -7.5784 -16.41)">
   <path d="m0 0c0.029 0.459 0.06 0.912 0.088 1.369 0.072-0.463 0.144-0.92 0.221-1.379-0.104 2e-3 -0.206 8e-3 -0.309 0.01m-0.461 2.152c-0.107-1.199-0.22-2.402-0.327-3.611 0.275 0.01 0.55 0.012 0.821 0.01 5e-3 0.181 0.012 0.363 0.015 0.545 0.099 0 0.202-4e-3 0.302-6e-3 0.019-0.186 0.039-0.365 0.057-0.549 0.277-2e-3 0.554-0.02 0.826-0.035-0.225 1.199-0.452 2.396-0.678 3.596-0.337 0.019-0.678 0.037-1.016 0.05" fill="#e8292d"/>
  </g>
  <g transform="matrix(6.2565 0 0 -6.2565 6.8404 -28.386)">
   <path d="m0 0c-0.037-0.373-0.07-0.744-0.102-1.123-0.074 0.387-0.146 0.783-0.222 1.168-0.254 0.033-0.51 0.064-0.766 0.088 0.116-0.385 0.235-0.758 0.347-1.141 0.145-0.467 0.247-0.847 0.306-1.142 0.025-0.434 0.041-0.868 0.064-1.303 0.258-0.024 0.515-0.051 0.768-0.082-0.045 0.863-0.067 1.295-0.065 1.295 0.029 0.279 0.095 0.635 0.192 1.072 0.074 0.354 0.154 0.701 0.234 1.041-0.253 0.049-0.504 0.094-0.756 0.127" fill="#e8292d"/>
  </g>
  <g transform="matrix(6.2565 0 0 -6.2565 -83.054 13.357)">
   <path d="m0 0h-0.042c-0.109-0.021-0.204-0.094-0.285-0.215-0.078-0.146-0.117-0.295-0.113-0.445 9e-3 -0.166 0.06-0.287 0.152-0.389l0.256-0.082c0.11 0.016 0.198 0.094 0.275 0.221 0.084 0.14 0.121 0.289 0.115 0.435-9e-3 0.163-0.056 0.286-0.152 0.379l-0.206 0.096" fill="#f1ef82"/>
  </g>
  <g transform="matrix(6.2565 0 0 -6.2565 -14.727 3.7764)">
   <path d="m0 0c-0.048 0-0.117-0.02-0.189-0.135-0.065-0.111-0.095-0.236-0.09-0.379 9e-3 -0.15 0.052-0.269 0.129-0.363 0.095-0.111 0.163-0.111 0.187-0.111h0.01c0.029 5e-3 0.101 5e-3 0.182 0.144 0.068 0.111 0.099 0.233 0.09 0.361-8e-3 0.151-0.051 0.274-0.132 0.37-0.096 0.113-0.164 0.113-0.187 0.113" fill="#f1ef82"/>
  </g>
  <g transform="matrix(6.2565 0 0 -6.2565 -30.564 5.0353)">
   <path d="m0 0c-0.048-4e-3 -0.138-0.014-0.23-0.162-0.069-0.123-0.098-0.256-0.092-0.402 6e-3 -0.149 0.049-0.27 0.127-0.364 0.092-0.097 0.162-0.097 0.185-0.097h0.022c0.05 9e-3 0.133 0.035 0.209 0.172 0.072 0.125 0.101 0.251 0.095 0.388-9e-3 0.154-0.05 0.274-0.132 0.363-0.094 0.102-0.16 0.102-0.184 0.102" fill="#f1ef82"/>
  </g>
  <g transform="matrix(6.2565 0 0 -6.2565 -64.645 10.143)">
   <path d="m0 0-0.039-6e-3c-0.102-0.012-0.185-0.08-0.256-0.197-0.078-0.139-0.116-0.281-0.108-0.434 6e-3 -0.158 0.051-0.279 0.139-0.369 0.112-0.109 0.181-0.097 0.241-0.088 0.097 0.02 0.179 0.088 0.251 0.211 0.079 0.143 0.114 0.276 0.106 0.42-8e-3 0.164-0.053 0.281-0.143 0.367l-0.191 0.096" fill="#f1ef82"/>
  </g>
  <g transform="matrix(6.2565 0 0 -6.2565 -123.12 19.259)">
   <path d="m0 0h-0.037c-0.127-0.014-0.233-0.086-0.325-0.213-0.09-0.14-0.134-0.289-0.125-0.457 0.01-0.172 0.065-0.312 0.17-0.422 0.098-0.09 0.204-0.133 0.317-0.117 0.128 0.014 0.228 0.084 0.315 0.223 0.093 0.148 0.136 0.293 0.129 0.451-0.01 0.176-0.063 0.308-0.174 0.412l-0.27 0.123" fill="#f1ef82"/>
  </g>
  <g transform="matrix(6.2565 0 0 -6.2565 -155.48 21.532)">
   <path d="m0 0c-0.156-2e-3 -0.274-0.062-0.372-0.186-0.098-0.136-0.143-0.289-0.135-0.453 0.01-0.185 0.072-0.336 0.19-0.466 0.113-0.11 0.23-0.165 0.353-0.165h0.016c0.144 0.01 0.254 0.069 0.347 0.204 0.098 0.136 0.145 0.285 0.137 0.447-9e-3 0.187-0.069 0.334-0.193 0.453-0.115 0.111-0.225 0.166-0.343 0.166" fill="#f1ef82"/>
  </g>
  <g transform="matrix(6.2565 0 0 -6.2565 -102.55 16.547)">
   <path d="m0 0-0.04-2e-3c-0.12-0.014-0.214-0.084-0.298-0.215-0.086-0.144-0.127-0.295-0.122-0.453 9e-3 -0.17 0.063-0.299 0.161-0.402 0.085-0.078 0.18-0.115 0.281-0.096 0.119 0.02 0.216 0.092 0.295 0.223 0.088 0.146 0.129 0.295 0.121 0.449-6e-3 0.166-0.06 0.293-0.158 0.389l-0.24 0.107" fill="#f1ef82"/>
  </g>
  <g transform="matrix(6.2565 0 0 -6.2565 -47.171 7.2594)">
   <path d="m0 0c-0.121-0.014-0.199-0.074-0.27-0.184-0.07-0.136-0.104-0.273-0.099-0.421 0.01-0.155 0.055-0.276 0.139-0.368l0.214-0.084c0.061 0.01 0.151 0.039 0.233 0.192 0.078 0.135 0.112 0.267 0.103 0.408-9e-3 0.154-0.052 0.273-0.136 0.361-0.096 0.096-0.161 0.096-0.184 0.096" fill="#f1ef82"/>
  </g>
  <g transform="matrix(6.2565 0 0 -6.2565 -143.94 21.043)">
   <path d="m0 0c-0.16-0.01-0.273-0.072-0.368-0.197-0.093-0.141-0.139-0.295-0.129-0.455 7e-3 -0.184 0.067-0.33 0.181-0.452 0.103-0.097 0.209-0.148 0.322-0.148l0.027 4e-3c0.135 0.01 0.246 0.074 0.336 0.207 0.098 0.146 0.139 0.293 0.133 0.451-9e-3 0.182-0.068 0.326-0.184 0.436-0.107 0.103-0.21 0.154-0.318 0.154" fill="#f1ef82"/>
  </g>
  <g transform="matrix(6.2565 0 0 -6.2565 -132.87 20.249)">
   <path d="m0 0c-0.16-0.01-0.268-0.076-0.355-0.207-0.096-0.146-0.143-0.295-0.135-0.457 0.01-0.176 0.069-0.32 0.178-0.428 0.105-0.101 0.213-0.142 0.328-0.135 0.129 0.012 0.236 0.085 0.33 0.21 0.092 0.144 0.134 0.298 0.125 0.462-8e-3 0.178-0.066 0.315-0.176 0.418-0.098 0.096-0.192 0.137-0.295 0.137" fill="#f1ef82"/>
  </g>
  <g transform="matrix(6.2565 0 0 -6.2565 -112.55 17.952)">
   <path d="m0 0h-0.042c-0.123-0.018-0.226-0.088-0.315-0.213-0.088-0.144-0.129-0.299-0.123-0.461 0.01-0.17 0.061-0.306 0.166-0.41 0.091-0.09 0.193-0.123 0.299-0.107 0.124 0.017 0.22 0.089 0.306 0.224 0.093 0.153 0.133 0.297 0.123 0.453-5e-3 0.168-0.062 0.301-0.166 0.395l-0.248 0.119" fill="#f1ef82"/>
  </g>
  <g transform="matrix(6.2565 0 0 -6.2565 -92.531 14.946)">
   <path d="m0 0-0.045-6e-3c-0.115-0.016-0.208-0.084-0.291-0.213-0.083-0.146-0.123-0.297-0.118-0.451 0.011-0.166 0.06-0.297 0.153-0.392 0.088-0.075 0.176-0.11 0.269-0.096 0.116 0.027 0.212 0.096 0.288 0.232 0.088 0.145 0.126 0.291 0.117 0.44-9e-3 0.162-0.059 0.291-0.154 0.379l-0.219 0.107" fill="#f1ef82"/>
  </g>
  <g transform="matrix(6.2565 0 0 -6.2565 -73.639 11.683)">
   <path d="m0 0-0.036-6e-3c-0.106-0.023-0.198-0.086-0.272-0.207-0.079-0.139-0.118-0.285-0.112-0.441 0.01-0.162 0.059-0.287 0.147-0.377l0.197-0.092 0.049 6e-3c0.104 0.019 0.192 0.088 0.264 0.215 0.081 0.142 0.12 0.291 0.111 0.431-8e-3 0.16-0.057 0.284-0.148 0.366l-0.2 0.105" fill="#f1ef82"/>
  </g>
  <g transform="matrix(6.2565 0 0 -6.2565 -55.675 8.6034)">
   <path d="m0 0-0.037-6e-3c-0.095-0.014-0.176-0.08-0.246-0.193-0.077-0.135-0.113-0.278-0.106-0.43 8e-3 -0.154 0.053-0.271 0.138-0.365l0.229-0.084c0.058 8e-3 0.153 0.043 0.242 0.205 0.075 0.135 0.112 0.275 0.104 0.414-0.01 0.158-0.057 0.275-0.14 0.363l-0.184 0.096" fill="#f1ef82"/>
  </g>
  <g transform="matrix(6.2565 0 0 -6.2565 -22.475 4.2531)">
   <path d="m0 0c-0.057-6e-3 -0.129-0.021-0.207-0.152-0.066-0.118-0.098-0.244-0.092-0.385 0.01-0.152 0.051-0.274 0.129-0.369 0.093-0.1 0.162-0.1 0.183-0.1l0.018 2e-3c0.049 8e-3 0.119 0.026 0.196 0.152 0.069 0.122 0.099 0.245 0.092 0.381-5e-3 0.147-0.051 0.262-0.133 0.364-0.093 0.107-0.163 0.107-0.186 0.107" fill="#f1ef82"/>
  </g>
  <g transform="matrix(6.2565 0 0 -6.2565 -38.653 6.0493)">
   <path d="m0 0c-0.08-4e-3 -0.161-0.031-0.251-0.17-0.071-0.131-0.103-0.269-0.097-0.414 8e-3 -0.152 0.053-0.269 0.132-0.363l0.18-0.092 0.028 2e-3c0.037 0.012 0.133 0.017 0.223 0.184 0.074 0.128 0.106 0.257 0.101 0.396-6e-3 0.154-0.053 0.271-0.135 0.361-0.095 0.096-0.16 0.096-0.181 0.096" fill="#f1ef82"/>
  </g>
  <g transform="matrix(6.2565 0 0 -6.2565 .46801 3.7277)">
   <path d="m0 0c-0.043 0-0.096-0.014-0.161-0.105-0.059-0.102-0.084-0.223-0.076-0.356 8e-3 -0.143 0.047-0.266 0.121-0.369l0.196-0.129h0.01c0.02 0 0.083 0 0.147 0.107 0.059 0.104 0.086 0.213 0.08 0.344-6e-3 0.147-0.046 0.272-0.127 0.373l-0.19 0.135" fill="#f1ef82"/>
  </g>
  <g transform="matrix(6.2565 0 0 -6.2565 7.8671 4.2776)">
   <path d="m0 0-0.137-0.088c-0.054-0.092-0.08-0.203-0.074-0.332 7e-3 -0.15 0.047-0.273 0.123-0.385l0.197-0.138h0.012l0.129 0.093c0.056 0.096 0.086 0.205 0.078 0.325-8e-3 0.148-0.053 0.273-0.127 0.379-0.068 0.091-0.133 0.14-0.191 0.146z" fill="#f1ef82"/>
  </g>
  <g transform="matrix(6.2565 0 0 -6.2565 -6.986 3.5812)">
   <path d="m0 0c-0.042 0-0.103-0.018-0.17-0.119-0.059-0.106-0.088-0.233-0.083-0.365 6e-3 -0.149 0.048-0.266 0.125-0.373 0.098-0.114 0.169-0.116 0.193-0.116 0.049 0 0.11 0.02 0.17 0.125 0.065 0.102 0.092 0.223 0.088 0.356-7e-3 0.144-0.049 0.269-0.13 0.365l-0.193 0.127" fill="#f1ef82"/>
  </g>
  <g transform="matrix(6.2565 0 0 -6.2565 -179.13 21.141)">
   <path d="m0 0c-0.168 0-0.276-0.049-0.374-0.158-0.101-0.129-0.149-0.279-0.14-0.45 0.01-0.191 0.079-0.357 0.207-0.501 0.129-0.131 0.264-0.203 0.413-0.207l0.019-2e-3c0.143 0 0.252 0.054 0.348 0.175 0.103 0.131 0.152 0.282 0.142 0.446-7e-3 0.191-0.078 0.349-0.21 0.488-0.13 0.135-0.262 0.201-0.401 0.209z" fill="#f1ef82"/>
  </g>
  <g transform="matrix(6.2565 0 0 -6.2565 -166.88 21.593)">
   <path d="m0 0c-0.153 0-0.266-0.053-0.366-0.17-0.101-0.131-0.15-0.283-0.14-0.455 0.012-0.184 0.076-0.348 0.2-0.48 0.257-0.25 0.562-0.241 0.746 1e-3 0.101 0.143 0.148 0.289 0.138 0.454-8e-3 0.185-0.073 0.338-0.199 0.466-0.123 0.123-0.248 0.184-0.379 0.184" fill="#f1ef82"/>
  </g>
  <g transform="matrix(6.2565 0 0 -6.2565 -95.304 -39.518)">
   <path d="m0 0c-0.098-0.01-0.204-0.035-0.305-0.197-0.088-0.137-0.129-0.278-0.121-0.428 0.011-0.166 0.061-0.299 0.16-0.41 0.069-0.065 0.149-0.1 0.24-0.108l0.085 0.014c0.087 0.018 0.166 0.076 0.234 0.172 0.082 0.133 0.118 0.279 0.112 0.432-7e-3 0.166-0.057 0.3-0.159 0.396l-0.246 0.129" fill="#f1ef82"/>
  </g>
  <g transform="matrix(6.2565 0 0 -6.2565 -85.785 -40.447)">
   <path d="m0 0c-0.098-6e-3 -0.199-0.037-0.299-0.191-0.082-0.139-0.119-0.282-0.113-0.428 8e-3 -0.164 0.059-0.295 0.154-0.399l0.231-0.103h8e-3l0.064 8e-3c0.09 0.021 0.166 0.074 0.236 0.176 0.079 0.134 0.115 0.277 0.106 0.425-8e-3 0.168-0.057 0.299-0.155 0.395l-0.232 0.117" fill="#f1ef82"/>
  </g>
  <g transform="matrix(6.2565 0 0 -6.2565 -115.42 -37.893)">
   <path d="m0 0c-0.144-0.01-0.238-0.068-0.321-0.191-0.093-0.139-0.132-0.284-0.126-0.44 8e-3 -0.172 0.062-0.308 0.168-0.422 0.07-0.072 0.151-0.117 0.248-0.121l0.138 8e-3c0.082 0.02 0.159 0.074 0.227 0.168 0.085 0.137 0.125 0.283 0.117 0.441-7e-3 0.174-0.062 0.305-0.17 0.414-0.092 0.096-0.187 0.143-0.281 0.143" fill="#f1ef82"/>
  </g>
  <g transform="matrix(6.2565 0 0 -6.2565 -67.333 -42.377)">
   <path d="m0 0c-0.117-0.014-0.198-0.074-0.264-0.185-0.08-0.133-0.117-0.272-0.11-0.415 9e-3 -0.16 0.054-0.289 0.146-0.388l0.218-0.102 0.063 8e-3c0.078 0.018 0.151 0.07 0.214 0.168 0.075 0.129 0.108 0.266 0.102 0.416-0.01 0.162-0.057 0.291-0.149 0.381l-0.22 0.117" fill="#f1ef82"/>
  </g>
  <g transform="matrix(6.2565 0 0 -6.2565 -105.34 -38.626)">
   <path d="m0 0c-0.141-0.01-0.233-0.074-0.314-0.193-0.087-0.141-0.129-0.284-0.123-0.432 8e-3 -0.17 0.064-0.307 0.166-0.414 0.076-0.076 0.154-0.113 0.251-0.121l0.086 0.01c0.095 0.019 0.176 0.078 0.246 0.177 0.085 0.135 0.123 0.28 0.116 0.432-0.01 0.172-0.064 0.305-0.166 0.408l-0.262 0.133" fill="#f1ef82"/>
  </g>
  <g transform="matrix(6.2565 0 0 -6.2565 -76.315 -41.424)">
   <path d="m0 0c-0.092-6e-3 -0.187-0.035-0.283-0.193-0.082-0.129-0.119-0.27-0.112-0.415 0.01-0.162 0.058-0.287 0.151-0.394l0.217-0.1h0.015l0.039 6e-3c0.098 0.018 0.176 0.074 0.243 0.172 0.076 0.129 0.115 0.27 0.103 0.422-7e-3 0.162-0.057 0.291-0.15 0.389l-0.223 0.113" fill="#f1ef82"/>
  </g>
  <g transform="matrix(6.2565 0 0 -6.2565 -33.094 -45.078)">
   <path d="m0 0c-0.053-2e-3 -0.127-0.02-0.204-0.15-0.069-0.116-0.103-0.239-0.098-0.379 0.011-0.151 0.053-0.278 0.136-0.377l0.195-0.11h6e-3c0.07 4e-3 0.148 0.024 0.223 0.135 0.062 0.11 0.094 0.242 0.088 0.379-0.014 0.158-0.055 0.279-0.137 0.377l-0.209 0.125" fill="#f1ef82"/>
  </g>
  <g transform="matrix(6.2565 0 0 -6.2565 -58.279 -43.269)">
   <path d="m0 0c-0.086-0.01-0.174-0.031-0.26-0.18-0.08-0.129-0.117-0.26-0.107-0.404 0.01-0.158 0.057-0.285 0.142-0.383l0.212-0.103 5e-3 2e-3 0.048 3e-3c0.043 4e-3 0.126 0.034 0.208 0.163 0.072 0.121 0.107 0.259 0.101 0.408-0.01 0.154-0.056 0.281-0.143 0.377l-0.206 0.117" fill="#f1ef82"/>
  </g>
  <g transform="matrix(6.2565 0 0 -6.2565 5.4964 -43.123)">
   <path d="m0 0-0.115-0.07c-0.056-0.094-0.082-0.201-0.078-0.325 7e-3 -0.146 0.049-0.275 0.125-0.39l0.203-0.154h0.033l0.112 0.064c0.05 0.088 0.077 0.191 0.072 0.318-8e-3 0.147-0.053 0.282-0.132 0.393l-0.202 0.164z" fill="#f1ef82"/>
  </g>
  <g transform="matrix(6.2565 0 0 -6.2565 -41.232 -44.626)">
   <path d="m0 0c-0.059 0-0.142-0.018-0.221-0.156-0.075-0.121-0.108-0.248-0.098-0.391 5e-3 -0.154 0.052-0.279 0.134-0.377l0.205-0.103h7e-3c0.071 6e-3 0.149 0.025 0.224 0.148 0.069 0.113 0.103 0.244 0.095 0.385-7e-3 0.16-0.057 0.279-0.14 0.381-0.105 0.113-0.179 0.113-0.206 0.113" fill="#f1ef82"/>
  </g>
  <g transform="matrix(6.2565 0 0 -6.2565 -49.761 -44.003)">
   <path d="m0 0c-0.073-4e-3 -0.159-0.027-0.24-0.162-0.076-0.127-0.11-0.264-0.1-0.397 6e-3 -0.162 0.051-0.287 0.136-0.386l0.202-0.102 0.012 2e-3h0.035c0.074 0.01 0.144 0.063 0.209 0.156 0.066 0.123 0.101 0.256 0.095 0.401-9e-3 0.154-0.056 0.277-0.144 0.373-0.092 0.107-0.16 0.115-0.205 0.115" fill="#f1ef82"/>
  </g>
  <g transform="matrix(6.2565 0 0 -6.2565 -1.9457 -44.186)">
   <path d="m0 0-0.133-0.092c-0.061-0.097-0.092-0.207-0.084-0.334 5e-3 -0.148 0.049-0.273 0.129-0.385l0.192-0.142h0.028l0.134 0.078c0.058 0.094 0.088 0.205 0.08 0.332-0.01 0.152-0.053 0.279-0.131 0.387l-0.201 0.156z" fill="#f1ef82"/>
  </g>
  <g transform="matrix(6.2565 0 0 -6.2565 -126.04 -37.318)">
   <path d="m0 0c-0.141-8e-3 -0.241-0.064-0.324-0.185-0.094-0.141-0.136-0.28-0.129-0.438 0.01-0.176 0.064-0.318 0.174-0.441 0.074-0.075 0.16-0.114 0.261-0.127l0.137 4e-3c0.088 0.019 0.171 0.07 0.24 0.167 0.09 0.131 0.129 0.28 0.121 0.444-5e-3 0.176-0.062 0.308-0.175 0.426-0.103 0.105-0.202 0.15-0.305 0.15" fill="#f1ef82"/>
  </g>
  <g transform="matrix(6.2565 0 0 -6.2565 -15.564 -39.738)">
   <path d="m0 0-0.165-0.103-0.219 0.119c-0.08 0.103-0.125 0.232-0.131 0.381-6e-3 0.132 0.022 0.251 0.088 0.359 0.065 0.103 0.124 0.119 0.176 0.119h3e-3c0.059 0 0.128-0.045 0.2-0.137 0.08-0.097 0.125-0.226 0.131-0.379 8e-3 -0.134-0.022-0.255-0.083-0.359" fill="#f1ef82"/>
  </g>
  <g transform="matrix(6.2565 0 0 -6.2565 -24.943 -45.274)">
   <path d="m0 0c-0.051 0-0.117-0.016-0.186-0.133-0.068-0.111-0.099-0.232-0.092-0.369 6e-3 -0.15 0.049-0.279 0.13-0.383 0.101-0.113 0.178-0.113 0.203-0.113h0.011c0.051 0 0.119 0.016 0.191 0.125 0.06 0.107 0.091 0.232 0.083 0.367-5e-3 0.154-0.051 0.276-0.133 0.377l-0.207 0.129" fill="#f1ef82"/>
  </g>
  <g transform="matrix(6.2565 0 0 -6.2565 -9.3629 -44.87)">
   <path d="m0 0c-0.039 0-0.094-0.01-0.156-0.109-0.065-0.104-0.092-0.219-0.084-0.348 6e-3 -0.146 0.049-0.27 0.127-0.379l0.199-0.133h0.018l0.156 0.096c0.058 0.1 0.085 0.213 0.078 0.34-5e-3 0.154-0.05 0.279-0.133 0.391l-0.201 0.142z" fill="#f1ef82"/>
  </g>
  <g transform="matrix(6.2565 0 0 -6.2565 -170.1 -38.113)">
   <path d="m0 0c-0.125 0-0.22-0.045-0.306-0.15-0.104-0.125-0.149-0.268-0.139-0.426 8e-3 -0.186 0.076-0.358 0.203-0.504 0.11-0.115 0.234-0.186 0.369-0.203h0.06c0.133 0 0.238 0.039 0.323 0.142 0.095 0.121 0.136 0.266 0.133 0.438-0.01 0.185-0.077 0.348-0.204 0.484-0.127 0.133-0.257 0.209-0.392 0.219z" fill="#f1ef82"/>
  </g>
  <g transform="matrix(6.2565 0 0 -6.2565 -182.5 -39.432)">
   <path d="m0 0c-0.119 0-0.214-0.049-0.295-0.139-0.107-0.121-0.154-0.263-0.142-0.42 9e-3 -0.193 0.078-0.369 0.208-0.523 0.119-0.127 0.246-0.207 0.391-0.232l0.074-8e-3h0.015c0.128 0 0.226 0.043 0.308 0.133 0.099 0.119 0.144 0.265 0.134 0.435-6e-3 0.194-0.076 0.356-0.212 0.504-0.137 0.148-0.27 0.229-0.412 0.246l-0.069 4e-3" fill="#f1ef82"/>
  </g>
  <g transform="matrix(6.2565 0 0 -6.2565 -158.48 -37.367)">
   <path d="m0 0c-0.153 0-0.256-0.051-0.34-0.16-0.1-0.131-0.146-0.276-0.14-0.434 0.012-0.183 0.076-0.338 0.198-0.482 0.11-0.11 0.223-0.172 0.356-0.188h0.046c0.13 0 0.234 0.053 0.317 0.159 0.094 0.125 0.139 0.273 0.133 0.441-9e-3 0.184-0.074 0.338-0.197 0.463-0.122 0.129-0.242 0.195-0.373 0.201" fill="#f1ef82"/>
  </g>
  <g transform="matrix(6.2565 0 0 -6.2565 -136.79 -37.037)">
   <path d="m0 0c-0.141 0-0.242-0.061-0.331-0.178-0.095-0.138-0.139-0.281-0.13-0.441 0.01-0.176 0.07-0.322 0.183-0.449 0.086-0.09 0.184-0.143 0.297-0.151l0.092 6e-3c0.106 0.014 0.196 0.066 0.274 0.162 0.09 0.139 0.131 0.283 0.121 0.449-6e-3 0.174-0.069 0.321-0.18 0.44-0.107 0.109-0.215 0.162-0.326 0.162" fill="#f1ef82"/>
  </g>
  <g transform="matrix(6.2565 0 0 -6.2565 -146.92 -37.037)">
   <path d="m0 0c-0.141 0-0.244-0.055-0.331-0.174-0.101-0.133-0.142-0.275-0.136-0.431 8e-3 -0.18 0.07-0.336 0.19-0.467 0.095-0.102 0.204-0.155 0.326-0.168h0.064c0.125 0.013 0.219 0.064 0.299 0.168 0.093 0.131 0.137 0.277 0.128 0.439-0.01 0.184-0.073 0.332-0.191 0.457-0.118 0.111-0.231 0.176-0.349 0.176" fill="#f1ef82"/>
  </g>
 </g>
</svg>
