<svg width="800" height="332.86" version="1.1" viewBox="0 0 211.67 88.068" xmlns="http://www.w3.org/2000/svg">
 <g transform="translate(197.25 55.671)">
  <g transform="matrix(6.2384 0 0 -6.2384 -16.657 26.943)">
   <path d="m0 0v0.039c0 0.573 0.585 0.965 0.656 1.007l0.026-0.022 0.05-0.073c0.207-0.31 0.316-0.64 0.316-0.927 0-0.133-0.026-0.251-0.073-0.357-0.087-0.191-0.251-0.303-0.472-0.331l-0.08 7e-3c-0.123 0.031-0.401 0.156-0.423 0.657m-0.432 1.885 2e-3 -0.051c0.011-6e-3 0.576-0.144 1.039-0.723-0.355-0.138-0.646-0.429-0.788-0.8-0.051-0.121-0.072-0.241-0.072-0.353 0-0.24 0.112-0.398 0.202-0.489 0.228-0.211 0.603-0.275 0.897-0.144 0.278 0.125 0.439 0.405 0.439 0.758l-4e-3 0.039c-9e-3 0.318-0.147 0.666-0.393 0.986l8e-3 3e-3c0.376 0.059 0.699-0.12 1.085-0.59 0.121-0.146 0.224-0.31 0.33-0.464 0.392-0.612 0.782-1.096 1.602-0.878 0.222 0.063 0.528 0.301 0.633 0.414l-0.049 0.058-4e-3 2e-3v-2e-3c-0.105-0.115-0.352-0.243-0.565-0.302-0.715-0.19-1.016 0.278-1.331 0.786l-0.099 0.149c-0.108 0.162-0.208 0.328-0.33 0.471-0.378 0.467-0.908 0.497-1.282 0.436l-0.057-0.011c-0.346 0.425-0.822 0.707-1.254 0.746l-9e-3 -0.041" fill="#7a4a30"/>
  </g>
  <g transform="matrix(6.2384 0 0 -6.2384 -171.45 31.041)">
   <path d="m0 0-0.085-7e-3c-0.223 0.028-0.38 0.14-0.471 0.331-0.046 0.106-0.07 0.224-0.07 0.357 0 0.287 0.108 0.617 0.315 0.927l0.049 0.073 0.027 0.022c0.07-0.042 0.658-0.434 0.658-1.007v-0.039c-0.025-0.501-0.307-0.626-0.423-0.657m0.845 2.583c-0.437-0.039-0.907-0.321-1.252-0.746l-0.058 0.011c-0.375 0.061-0.903 0.03-1.287-0.436-0.12-0.143-0.222-0.309-0.331-0.472l-0.096-0.148c-0.315-0.508-0.613-0.976-1.332-0.787-0.211 0.06-0.454 0.188-0.56 0.303l-4e-3 2e-3 -7e-3 -2e-3 -0.046-0.058c0.103-0.113 0.408-0.351 0.639-0.414 0.815-0.218 1.205 0.266 1.599 0.877 0.101 0.155 0.204 0.318 0.327 0.465 0.385 0.47 0.708 0.649 1.082 0.59l0.01-3e-3c-0.244-0.32-0.384-0.668-0.395-0.987v-0.038c0-0.353 0.161-0.633 0.442-0.758 0.293-0.131 0.668-0.067 0.892 0.144 0.094 0.091 0.201 0.249 0.201 0.489 0 0.112-0.021 0.232-0.072 0.353-0.143 0.37-0.43 0.662-0.785 0.8 0.461 0.579 1.025 0.717 1.033 0.723l7e-3 0.051-7e-3 0.041" fill="#7a4a30"/>
  </g>
  <g transform="matrix(6.2384 0 0 -6.2384 -188.61 2.3709)">
   <path d="m0 0c0.29-0.587 0.649-1.012 1.064-1.274-0.549 0.22-1.002 0.682-1.355 1.397-0.512 1.032-0.768 2.304-0.768 3.728s0.256 2.712 0.768 3.778c0.359 0.743 0.816 1.225 1.379 1.451-0.431-0.273-0.791-0.714-1.088-1.329-0.526-1.098-0.793-2.432-0.793-3.9 0-1.473 0.267-2.789 0.793-3.851m3.714 7.688c-0.519 1.07-1.245 1.616-2.16 1.616-0.932 0-1.664-0.555-2.177-1.64-0.502-1.077-0.762-2.366-0.762-3.834 0-1.467 0.26-2.743 0.762-3.78 0.513-1.05 1.245-1.588 2.177-1.588 0.934 0 1.666 0.533 2.175 1.577 0.503 1.037 0.761 2.31 0.761 3.791 0 1.502-0.258 2.794-0.776 3.858" fill="#794120"/>
  </g>
  <g transform="matrix(6.2384 0 0 -6.2384 -50 -14.855)">
   <path d="m0 0c0.017 0.083 0.404 2.18 0.474 2.551 0.061-0.371 0.432-2.468 0.448-2.551zm1.635-2.252-1.235 6.9c-0.482-2.404-1.319-6.608-1.319-6.608-0.043-0.212-0.211-0.448-0.336-0.527-0.082-0.059-0.215-0.115-0.324-0.167-0.203-0.09-0.251-0.111-0.244-0.159l0.067-0.096c0.156-0.013 0.293-0.02 0.414-0.02 0.11 3e-3 0.723-0.048 0.83-0.067 0.11-0.024 0.267-0.043 0.465-0.058l0.081 0.07c0.019 0.046-0.021 0.075-0.132 0.148-0.092 0.065-0.232 0.162-0.27 0.234-0.046 0.09-0.048 0.289-7e-3 0.556 0-4e-3 0.241 1.299 0.277 1.518h1.112l0.315-1.794 0.018-0.157c0-0.14-0.041-0.256-0.11-0.315-0.08-0.068-0.223-0.121-0.326-0.16-0.109-0.042-0.16-0.066-0.16-0.104v-0.012l0.071-0.087s0.167-0.018 0.337-0.033c0.371 0.227 0.568 0.293 0.476 0.938m1.733-0.964c-0.098 0.074-0.225 0.167-0.288 0.239-0.125 0.129-0.213 0.344-0.271 0.632l-1.593 8.621-0.108 0.069-0.136 0.022-0.144-0.022-0.101-0.062c0-3e-3 -0.072-0.347-0.183-0.894l1.372-7.647c0.079-0.559-0.112-0.812-0.392-0.971l0.672-0.068 0.614-0.097 0.668-0.099 0.087 0.072 1e-3 0.019c0 0.044-0.054 0.085-0.198 0.186" fill="#794120"/>
  </g>
  <g transform="matrix(6.2384 0 0 -6.2384 -125.15 -54.198)">
   <path d="m0 0-0.075 0.081-0.416-0.016c-0.139-0.012-0.284-0.023-0.445-0.023-0.155 0-0.309 0.011-0.453 0.023l-0.446 0.016-0.076-0.081c-0.018-0.048 0.028-0.069 0.161-0.136 0.11-0.06 0.265-0.139 0.352-0.23 0.133-0.128 0.194-0.288 0.194-0.477v-6.694c0-0.441-0.095-0.79-0.281-1.041-0.189-0.244-0.488-0.367-0.881-0.367-0.433 0-0.738 0.105-0.907 0.311-0.167 0.216-0.251 0.557-0.251 1.016v6.775c0 0.205 0.062 0.356 0.191 0.476 0.094 0.079 0.233 0.16 0.341 0.212 0.134 0.077 0.182 0.103 0.168 0.155l-0.078 0.081-0.683-0.016-0.662-0.023-0.665 0.023h-0.035c0.107-0.086 0.234-0.19 0.311-0.279 0.153-0.167 0.226-0.444 0.226-0.631v-3.007c-0.032-0.304-0.188-0.551-0.393-0.627 0.206-0.079 0.364-0.325 0.393-0.639v-2.266c0-0.703 0.204-1.344 0.599-1.684l-0.21 0.101c-0.436 0.329-0.654 0.88-0.654 1.583v2.281c-0.042 0.306-0.229 0.549-0.485 0.624 0.252 0.074 0.443 0.32 0.485 0.622v3.012c0 0.187-0.076 0.396-0.227 0.557-0.118 0.133-0.394 0.29-0.494 0.359l-0.203 0.01-0.075-0.081c-0.015-0.052 0.028-0.078 0.154-0.152 0.105-0.062 0.25-0.149 0.331-0.241 0.141-0.15 0.212-0.274 0.212-0.452v-2.888c-0.052-0.339-0.273-0.619-0.559-0.706l-0.126-0.038 0.126-0.037c0.286-0.09 0.507-0.372 0.564-0.72l-5e-3 -2.15c0-0.715 0.208-1.254 0.615-1.597 0.404-0.346 1.003-0.522 1.773-0.522 0.641 0 1.127 0.195 1.442 0.568 0.312 0.37 0.47 0.819 0.47 1.331v6.759c0 0.187 0.085 0.387 0.164 0.464 0.105 0.112 0.267 0.196 0.371 0.251 0.114 0.056 0.165 0.078 0.142 0.13" fill="#794120"/>
  </g>
  <g transform="matrix(6.2384 0 0 -6.2384 -62.921 -8.9606)">
   <path d="m0 0c-0.05 0.023-0.073-0.029-0.125-0.148-0.09-0.179-0.251-0.528-0.585-0.855-0.277-0.285-0.572-0.419-0.878-0.405l-0.394 8e-3h-0.049l-0.188 0.042c-0.073 0.045-0.109 0.146-0.106 0.297l-0.015 7.412c0 0.178 0 0.319 0.137 0.471 0.102 0.111 0.293 0.194 0.414 0.253 0.125 0.051 0.167 0.068 0.15 0.114l-0.077 0.089-0.683-0.018-0.661-0.017-0.66 0.017-0.087 4e-3c0.12-0.081 0.314-0.202 0.407-0.311 0.147-0.17 0.188-0.412 0.188-0.602v-3.007c-0.045-0.276-0.19-0.495-0.382-0.567 0.192-0.066 0.337-0.286 0.382-0.562v-3.08c0-0.54-0.188-0.804-0.453-0.966l0.298-3e-3 1.137-0.022 0.297-0.012 0.744-0.023 0.753-0.026 0.374-0.013 1e-3 0.039 0.059 0.836c0.031 0.368 0.058 0.686 0.096 0.942v0.015l-0.094 0.098m-3.482 2.152c-0.041 0.302-0.237 0.545-0.484 0.62 0.247 0.074 0.443 0.321 0.484 0.619v2.96c0 0.19-0.045 0.349-0.194 0.529-0.132 0.156-0.515 0.353-0.505 0.388l0.02 4e-3c-0.134 0-0.238 6e-3 -0.238 6e-3l-0.083-0.078c-0.014-0.052 0.031-0.069 0.153-0.125 0.113-0.055 0.286-0.138 0.356-0.227 0.133-0.15 0.185-0.295 0.185-0.497v-2.86c-0.058-0.326-0.28-0.595-0.557-0.678l-0.132-0.039 0.132-0.036c0.277-0.088 0.499-0.354 0.557-0.686v-2.917c0-0.178-0.056-0.423-0.167-0.528-0.097-0.101-0.278-0.178-0.398-0.231-0.129-0.054-0.165-0.069-0.157-0.12l0.073-0.086h0.361c0.389 0.234 0.594 0.303 0.594 0.965z" fill="#794120"/>
  </g>
  <g transform="matrix(6.2384 0 0 -6.2384 -30.395 -26.253)">
   <path d="m0 0c0.237 0.072 0.342 0.385 0.341 0.679l-0.591 2.887c-0.058 0.309-0.129 0.419-0.2 0.508-0.112 0.13-0.39 0.303-0.586 0.426l-0.189 5e-3 -0.071-0.088v-9e-3c0-0.041 0.043-0.064 0.156-0.14 0.128-0.077 0.317-0.194 0.416-0.316 0.068-0.077 0.135-0.177 0.195-0.496l0.553-2.675v-0.038c0-0.35-0.157-0.626-0.403-0.702l-0.126-0.039 0.126-0.036c0.3-0.093 0.596-0.388 0.717-0.717l0.96-4.661v-0.014l8e-3 -4e-3 0.09-0.047 0.146-0.02h0.062l-1.015 4.973c-0.11 0.269-0.352 0.454-0.589 0.524m7.182 4.436-0.065 0.069c-0.167 0-0.298-5e-3 -0.398-0.018-0.097-8e-3 -0.207-0.019-0.316-0.019-0.091 0-0.4 0.011-0.491 0.019-0.099 0.013-0.235 0.018-0.394 0.018l-0.082-0.077-2e-3 -0.02 0.106-0.114c0.078-0.073 0.206-0.174 0.252-0.283l0.039-0.181c0-0.075-0.018-0.171-0.052-0.324 0 0-1.077-5.256-1.285-6.278-0.081 0.315-1.017 3.92-1.017 3.92l-0.259-0.013s-1.107-3.449-1.197-3.727c-0.058 0.298-1.189 6.18-1.189 6.18l-0.011 0.063-0.024 0.233 0.035 0.172 0.196 0.227 0.098 0.125-6e-3 0.02-0.079 0.077c-0.227 0-0.404-5e-3 -0.542-0.018-0.126-8e-3 -0.301-0.019-0.509-0.019s-0.413 0.011-0.593 0.019l-0.096 5e-3c0.106-0.075 0.379-0.224 0.518-0.384 0.077-0.088 0.142-0.198 0.205-0.512l0.588-2.877c0.011-0.292-0.057-0.642-0.243-0.714 0.186-0.066 0.381-0.201 0.484-0.455l0.991-4.801c0.216 0.649 1.028 3.112 1.095 3.319 0.07-0.243 1.125-4.068 1.125-4.068h7e-3l0.075-0.048 0.162-0.02 0.142 0.02 0.093 0.048 0.01 3e-3 1.949 9.395c0.063 0.32 0.149 0.526 0.259 0.649l0.263 0.219c0.14 0.101 0.166 0.129 0.158 0.17" fill="#794120"/>
  </g>
  <g transform="matrix(6.2384 0 0 -6.2384 -184.2 -41.256)">
   <path d="m0 0-0.041-0.318-0.053-0.344 0.091-0.17 0.138-0.107v-0.091l-2e-3 -0.244-0.011-0.163-0.092-0.103c-0.053-0.061-0.231-0.371-0.332-0.525-0.09-0.159-0.182-0.282-0.19-0.354-0.012-0.074 2e-3 -0.374-0.038-0.498-0.035-0.112-0.084-0.331-0.1-0.48-0.022-0.141 0.02-0.311 0.031-0.396 0.01-0.087-0.017-0.168-0.092-0.284-0.075-0.121-0.125-0.246-0.112-0.429 0.013-0.181 0.223-0.221 0.223-0.221l-0.102-0.144c-0.106-0.064-0.14-0.16-0.14-0.16l0.187 0.107c0.119 0.068 0.228 0.182 0.228 0.182l0.146 5e-3 -0.13-0.134c-0.036-0.034-0.125-0.108-0.327-0.204-0.203-0.102-0.19-0.25-0.19-0.25l0.118 0.126c0.057 0.038 0.221 0.13 0.365 0.205 0.147 0.075 0.213 0.127 0.213 0.127l0.011-0.06-0.133-0.104c-0.093-0.043-0.246-0.087-0.334-0.249-0.07-0.121-0.226-0.239-0.226-0.239l0.121 0.039c0.06 0.037 0.128 0.129 0.228 0.223 0.103 0.087 0.27 0.127 0.27 0.127s-0.09-0.065-0.248-0.219c-0.164-0.151-0.25-0.39-0.25-0.39s0.252 0.329 0.41 0.438c0.157 0.111 0.211 0.153 0.211 0.153s-0.101-0.179-0.228-0.274c-0.116-0.081-0.173-0.245-0.173-0.245s0.154 0.167 0.3 0.266c0.145 0.098 0.187 0.318 0.225 0.253 0.035-0.069 0.075-0.089 0.086-0.234 0.021-0.151 0.075-0.298 0.077-0.321 4e-3 -0.022 0.011-0.323 0.011-0.434 4e-3 -0.104-0.013-0.279-0.013-0.395 0-0.121-0.013-0.251-0.048-0.488-0.036-0.235 0.112-0.261 0.222-0.257 0.102 6e-3 0.154 0.049 0.154 0.049l0.033-0.015s-0.021-0.064-0.045-0.209c-0.019-0.148-0.028-0.247 0.235-0.251 0.263-5e-3 0.233 0.231 0.233 0.231l-0.051 0.186v0.224c-0.019 0.079-0.063 0.232-0.071 0.365-0.011 0.133-0.013 0.273 0.023 0.459 0.039 0.186-5e-3 0.319-0.052 0.463-0.05 0.138-0.06 0.303-0.043 0.441 0.016 0.139 5e-3 0.394 0.043 0.452 0.029 0.057 0.137 0.011 0.29 0.011 0.156 0 0.206 0.05 0.224 0.043 0.019-0.01 0.025-0.107 0.015-0.206-0.011-0.1-4e-3 -0.172-0.033-0.286-0.031-0.111-0.041-0.232-0.067-0.317-0.025-0.078-0.139-0.368-0.124-0.487 0.012-0.117-6e-3 -0.381 2e-3 -0.418 0.01-0.035-0.023-0.279-0.057-0.391-0.032-0.116-0.035-0.172-0.044-0.243l-0.055-0.208-0.051-0.155-0.087-0.271c7e-3 -0.049 0.134-0.155 0.322-0.172 0.183-0.012 0.253 0.067 0.253 0.119l-0.024 0.237v0.124l0.054 0.066c0.024 0.043 9e-3 0.119 0.012 0.267 5e-3 0.154 0.045 0.502 0.067 0.638 0.019 0.127 0.047 0.202 0.08 0.302 0.026 0.092 0.012 0.225 0.012 0.343 0 0.116 0.133 0.383 0.266 0.602 0.133 0.217 0.192 0.463 0.207 0.584 0.016 0.114 0.057 0.179 0.138 0.312 0.084 0.135 0.104 0.239 0.147 0.393 0.042 0.15 0.059 0.363 0.059 0.363l0.097-0.232 0.073-0.09 0.171 0.014s0.062-0.209 0.122-0.321c0.064-0.117 0.225-0.208 0.333-0.15 0.112 0.053 0.221 0.07 0.227 0.108l0.017 0.154 0.126 0.169-0.013 0.1-0.118 0.011-0.018 0.071c-9e-3 0.045-0.094 0.135-0.185 0.221l-0.241 0.256-0.059 0.104c1e-3 0.037-0.056 0.163-0.138 0.321-0.069 0.159-0.139 0.519-0.144 0.597-1e-3 0.085-0.179 0.326-0.294 0.383-0.114 0.058-0.243 0.182-0.369 0.276-0.128 0.1-0.128 0.212-0.135 0.272-2e-3 0.057 0.033 0.214 0.048 0.322 0.017 0.107 0.066 0.319 0.066 0.393l-0.013 0.256 0.039 0.181 6e-3 0.203-1e-3 0.138-0.098 0.114c-5e-3 0.024 0.042 0.072 0.11 0.211 0.072 0.134 0.039 0.29 4e-3 0.397-0.031 0.101-0.102 0.095-0.114 0.041-0.016-0.055-0.04-0.072-0.125-0.188-0.076-0.109-0.087-0.192-0.087-0.192l-0.104 0.071-0.137-3e-3 -0.11-0.043-0.085 0.043-0.047 0.152-0.034 0.105s0.12 0.05 0.219 0.127c0.102 0.08 0.07 0.228 0.018 0.292l-0.184 0.043-0.163-0.073-0.017 0.094-0.123 0.151-0.144 0.144-0.067-0.057-0.096 0.047c-0.031-0.013-0.065-0.07-0.133-0.201-0.063-0.13-0.053-0.251-0.053-0.251l-0.056-0.029-0.137 0.102-0.157 0.012c-0.015-0.085 2e-3 -0.148 0.086-0.243 0.084-0.099 0.194-0.131 0.194-0.131l7e-3 -0.029 0.053-0.081 0.01-0.065 0.053-0.111-0.045-0.124c-0.089-0.038-0.179-0.062-0.276-0.096-0.097-0.03-0.131-0.186-0.134-0.264z" fill="#fdda73"/>
  </g>
  <g transform="matrix(6.2384 0 0 -6.2384 -148.56 12.648)">
   <path d="m0 0c-0.038-0.131-0.139-0.237-0.229-0.237-0.143 0-0.216 0.02-0.299 0.042-0.117 0.029-0.261 0.068-0.667 0.068-0.873 0-1.269-0.864-1.269-1.479 0-0.15 0.041-1.473 1.418-1.473 0.739 0 1.242 0.834 1.242 1.111l-0.074 0.108-0.074-0.066c-0.273-0.593-0.566-0.883-0.894-0.883-0.197 0-0.397 0.4-0.397 1.289 0 0.732 0.114 1.101 0.343 1.101 0.458 0 0.781-0.297 0.942-0.892l0.059-0.061 0.058 0.071v1.292l-0.066 0.085-0.093-0.076" fill="#794120"/>
  </g>
  <g transform="matrix(6.2384 0 0 -6.2384 -138.6 20.032)">
   <path d="m0 0c0 0.822 0.198 1.259 0.347 1.259 0.191 0 0.397-0.537 0.397-1.528 0-1.049-0.187-1.424-0.372-1.424-0.152 0-0.372 0.59-0.372 1.693m0.22 1.484c-1.049 0-1.431-0.963-1.431-1.601 0-1.786 1.243-1.786 1.713-1.786 1.099 0 1.49 0.901 1.49 1.675 0 0.474-0.275 1.712-1.534 1.712z" fill="#794120"/>
  </g>
  <g transform="matrix(6.2384 0 0 -6.2384 -108.95 9.1857)">
   <path d="m0 0-0.892-0.037 1e-3 -0.212h0.05c0.13-3e-3 0.312-3e-3 0.312-0.297l-2e-3 -1.816c0-0.646-0.154-1.002-0.443-1.002-0.177 0-0.383 0.092-0.383 0.801v1.677c0 0.401 0.125 0.609 0.376 0.631h0.038v0.217l-1.999-0.105v-0.219h0.039c0.173 0 0.363-0.105 0.363-0.336v-2.023c0-0.937 0.467-0.937 1.102-0.937 0.691 0 1.081 0.065 1.081 1.389v1.716c0 0.276 0.175 0.323 0.366 0.332l0.036 5e-3v0.216z" fill="#794120"/>
  </g>
  <g transform="matrix(6.2384 0 0 -6.2384 -93.888 9.1601)">
   <path d="m0 0-6e-3 -0.182h0.041c0.349-0.012 0.406-0.021 0.406-0.22v-0.047s5e-3 -1.442 7e-3 -2.027c-0.133 0.387-0.811 2.356-0.811 2.356-0.044 0.093-0.085 0.127-0.161 0.127h-1.744v-0.218h0.041c0.342 0 0.378-9e-3 0.378-0.22v-2.612c0-0.371-0.077-0.371-0.422-0.371h-0.04v-0.224h1.043v0.224h-0.038c-0.341 0-0.387 0-0.387 0.323v2.42c0.139-0.365 1.077-2.89 1.077-2.89l0.094-0.077h1.009c0.077 0 0.124 0.077 0.124 0.186l-0.015 2.939c5e-3 0.129 0.031 0.209 0.081 0.257 0.072 0.066 0.204 0.07 0.366 0.062h0.043l4e-3 0.219-1.09 0.011z" fill="#794120"/>
  </g>
  <g transform="matrix(6.2384 0 0 -6.2384 -86.675 9.8582)">
   <path d="m0 0v-1.232l0.049-0.067 0.078 0.046c0.611 1.072 0.688 1.162 0.935 1.171v-2.874c0-0.19-0.065-0.337-0.155-0.337h-0.365v-0.233h2.167v0.233h-0.044c-0.422 0-0.426 1e-3 -0.426 0.254v2.931c0.241 0 0.332-0.206 0.926-1.267l0.069-0.063 0.061 0.092v1.255l-0.102 0.134-3.093 0.103c-0.1 0-0.1-0.113-0.1-0.146" fill="#794120"/>
  </g>
  <g transform="matrix(6.2384 0 0 -6.2384 -55.581 12.34)">
   <path d="m0 0c0.237-3e-3 0.546-0.029 0.546-0.511 0-0.284-0.13-0.695-0.36-0.695h-0.186zm-1.612 0.375v-0.172l0.036-8e-3c0.374-0.023 0.374-0.043 0.374-0.21v-2.62c0-0.269-0.066-0.269-0.388-0.269h-0.038v-0.224h2.067v0.224h-0.042c-0.397 0-0.397 0-0.397 0.19v1.278c0.202-0.039 0.416-0.358 0.454-0.698 0.061-0.62 0.11-1.028 0.664-1.028 0.452 0 1.076 0 1.076 1.399v0.034h-0.16v-0.034c0-0.499-0.123-0.758-0.166-0.758l-0.022 0.1-0.014 0.091c-0.031 0.318-0.099 0.888-0.402 1.054 0.191 0.111 0.427 0.429 0.427 0.755 0 0.444-0.35 0.744-0.87 0.744l-2.599 0.2z" fill="#794120"/>
  </g>
  <g transform="matrix(6.2384 0 0 -6.2384 -44.535 11.737)">
   <path d="m0 0v-0.173l0.035-4e-3c0.352-0.036 0.447-0.081 0.503-0.246l0.464-1.709v-0.638c0-0.131-0.069-0.231-0.121-0.231h-0.388v-0.224h2.214v0.224h-0.394c-0.033 0-0.104 0.093-0.104 0.22v0.588l0.344 1.244c0.103 0.373 0.204 0.356 0.449 0.32l0.056-0.01v0.242l-0.951 0.152v-0.222l0.034-3e-3c0.123-0.018 0.214-0.07 0.259-0.137l0.03-0.1-0.012-0.069s-0.224-0.813-0.287-1.02c-0.063 0.202-0.3 0.959-0.3 0.959l-0.019 0.076-0.033 0.14-9e-3 0.076 0.016 0.075 0.231 0.023 0.045-6e-3v0.222l-2.062 0.278z" fill="#794120"/>
  </g>
  <g transform="matrix(6.2384 0 0 -6.2384 -92.712 -49.501)">
   <path d="m0 0-0.056 0.834-0.044-4e-3c-0.139-0.029-0.412-0.051-0.823-0.069-0.421-0.019-0.947-0.029-1.575-0.029-0.726 0-1.27 0.01-1.609 0.029-0.337 0.018-0.591 0.04-0.754 0.069l-0.04 4e-3 -6e-3 -0.043c-0.023-0.223-0.06-0.502-0.113-0.834-0.053-0.331-0.099-0.617-0.146-0.845l0.08-0.109 0.14-0.028c0.028 0 0.028 0 0.167 0.193 0.146 0.204 0.398 0.543 0.577 0.729 0.264 0.275 0.492 0.413 0.667 0.413h0.056c0.131 0 0.186-0.025 0.205-0.051l0.054-0.178v-3.156c-0.078-0.299-0.287-0.531-0.541-0.611l-0.131-0.039 0.131-0.036c0.254-0.082 0.463-0.318 0.541-0.614v-3.084c0-0.18-0.097-0.395-0.193-0.491-0.107-0.104-0.269-0.193-0.382-0.254-0.101-0.05-0.147-0.075-0.147-0.111l3e-3 -0.021 0.082-0.08s0.183 0.011 0.357 0.019c0.432 0.319 0.592 0.466 0.592 0.999v3.099c-0.058 0.278-0.241 0.504-0.475 0.572 0.234 0.073 0.417 0.296 0.475 0.572v3.236c0 0.183-0.052 0.35-0.106 0.353h0.061c0.161-0.02 0.304-0.175 0.304-0.394v-3.188c-0.046-0.283-0.191-0.506-0.386-0.579 0.195-0.07 0.34-0.298 0.386-0.572v-3.086c0.01-0.451-0.145-0.792-0.414-0.981 0.318 0.018 1.042 0.043 1.245 0.038l0.687-8e-3 0.073 0.084c0.018 0.051-0.034 0.075-0.173 0.134-0.117 0.057-0.278 0.128-0.359 0.214-0.152 0.148-0.18 0.364-0.183 0.484v7.501l0.054 0.171c0.043 0.037 0.113 0.058 0.206 0.058h0.101c0.202 0 0.419-0.152 0.653-0.448 0.148-0.184 0.328-0.473 0.452-0.663 0.141-0.224 0.141-0.224 0.171-0.224l0.141 0.028 0.071 0.102-0.076 0.895" fill="#794120"/>
  </g>
 </g>
</svg>
