<svg width="800" height="495.91" version="1.1" viewBox="0 0 211.67 131.21" xmlns="http://www.w3.org/2000/svg">
 <g transform="translate(126.78 161.13)">
  <g transform="matrix(7.2809 0 0 -7.2809 62.616 -32.122)">
   <path d="m0 0h-0.059c-0.265 9e-3 -0.341 0.396-0.393 0.649l-0.019 0.093-0.21 0.379c-3e-3 2e-3 -0.077 0.079-0.19 0.199-0.182 0.191-0.461 0.483-0.727 0.767l-0.058 0.061 1.048 0.988 0.933-0.835c0.078-0.014 0.314-0.072 1.093-0.255l0.091-0.022-0.03-0.087c1e-3 -0.016 0.052-0.141 0.108-0.257l0.057-0.121h-0.048c2e-3 -0.096 5e-3 -0.263 7e-3 -0.379l2e-3 -0.036-0.031-0.027c-0.123-0.106-0.168-0.142-0.342-0.156l-0.161-5e-3 -0.167-1e-3c-0.282-0.023-0.375-0.078-0.529-0.318l-0.045-0.179-0.01-0.074-0.043-0.245c-0.024-0.139-0.214-0.139-0.277-0.139" fill="#231f20"/>
  </g>
  <g transform="matrix(7.2809 0 0 -7.2809 -106.38 -72.38)">
   <path d="m0 0-0.067 0.061c-0.258 0.246-0.481 0.462-0.533 0.51l-0.347 0.162-0.362 0.12c-0.043 1e-3 -0.199 0.017-0.794 0.074l-0.032 2e-3 -0.053 0.054c-0.125 0.123-0.316 0.311-0.288 0.488l3e-3 0.033c0.018 0.127 0.031 0.175 0.142 0.269l0.282 0.238 0.195 0.012h0.193l0.161 0.04c0.238 0.102 0.282 0.217 0.387 0.46v9e-3c8e-3 0.207 0.027 0.593 0.32 0.593l0.132-0.024c0.262-0.094 0.264-0.399 0.265-0.618v-0.069l0.384-0.539 0.248-0.227 0.61-0.603z" fill="#231f20"/>
  </g>
  <g transform="matrix(7.2809 0 0 -7.2809 -114 -31.988)">
   <path d="m0 0c-0.117 0-0.184 0.064-0.193 0.189-6e-3 0.143-0.017 0.272-0.045 0.407-0.042 0.236-0.187 0.358-0.444 0.387l-0.134 3e-3h-0.102c-0.184 0-0.375 0.014-0.511 0.202-0.122 0.169-0.03 0.643 0.122 0.812 0.03 0.073 0.184 0.126 1.029 0.222l0.076 0.01c0.083 0.01 0.356 0.194 1.18 1.003l0.094 0.091 0.492-1.337-0.037-0.038c-0.133-0.138-0.484-0.512-0.531-0.578l-0.111-0.146c-0.114-0.142-0.233-0.292-0.277-0.452l-0.035-0.14c-0.057-0.254-0.141-0.6-0.449-0.625l-0.038-4e-3 -0.086-6e-3" fill="#231f20"/>
  </g>
  <g transform="matrix(7.2809 0 0 -7.2809 58.051 -73.198)">
   <path d="m0 0c-0.029 0-0.029 0-1.027 0.723l-0.084 0.056 0.074 0.073c0.498 0.471 0.839 0.817 0.892 0.903 0.073 0.114 0.242 0.443 0.252 0.529l-0.012 0.205-0.013 0.12c-0.017 0.235 0.089 0.286 0.202 0.342l0.085 0.05 0.037 0.02 0.037-0.014c0.159-0.057 0.258-0.093 0.309-0.305l0.023-0.127 0.059-0.216c0.094-0.211 0.172-0.319 0.373-0.38l0.27-0.031 0.152 2e-3 0.234-0.02c0.351-0.066 0.351-0.39 0.351-0.609-2e-3 -0.455-0.509-0.494-0.913-0.526-0.165-0.014-0.321-0.025-0.414-0.06-0.077-0.031-0.354-0.269-0.83-0.714l-0.024-0.021z" fill="#231f20"/>
  </g>
  <g transform="matrix(7.2809 0 0 -7.2809 84.884 -115.29)">
   <path d="m0 0h-3.537l-0.43 0.703-0.251 0.902h1.142l-0.618 0.856v0.656l-0.505 0.853v0.869h2.932l0.421-0.939v-0.298l-0.215-0.425h-0.363l0.622-0.948-0.278-0.432z" fill="#fff"/>
  </g>
  <g transform="matrix(7.2809 0 0 -7.2809 73.9 -148.15)">
   <path d="m0 0h-2.227l0.988-1.634h-0.635l0.361-0.548h0.598l0.662-1.057h-2.023l0.33-0.539h2.727l-0.989 1.591h0.496l-0.358 0.549h-0.491l-0.645 1.059h1.531z" fill="#ed1f24" fill-rule="evenodd"/>
  </g>
  <g transform="matrix(7.2809 0 0 -7.2809 50.727 -138.74)">
   <path d="m0 0 0.777-0.494 0.651 0.484 6e-3 2.452-0.884 0.483-0.552-0.656z" fill="#fff" fill-rule="evenodd"/>
  </g>
  <g transform="matrix(7.2809 0 0 -7.2809 59.444 -155.73)">
   <path d="m0 0-0.52 0.276v-2.067l0.52-0.277z" fill="#ed1f24" fill-rule="evenodd"/>
  </g>
  <g transform="matrix(7.2809 0 0 -7.2809 40.802 -90.655)">
   <path transform="matrix(.03634 0 0 -.03634 -23.017 9.6798)" d="m203.39 0.0039062c-65.911-0.57503-122.6 51.098-135.28 116.56h-22.922l-23.941 44.387 32.719 27.27h24.217c18.988 44.579 55.863 83.188 97.25 96.342 0 0 37.7 8.8344 71.189 1.0742 33.325-7.8152 46.809-22.758 46.809-22.758h211.81l24.629-27.656 26.609-43.121h-98.459l3.8242-6.4941h28.84l40.699-70.006-22.262 0.13672 12.686-20.857 22.701 39.131-31.893 51.596h46.863v107.46l56.027-0.33008 17.887-26.363v-80.711l22.619-23.996 27.793-45.816h-45.762l63.705-113.49h-53.303l-41.443 65.686-36.158-65.053h-54.789l-17.666 33.297h-75.566l-22.646 37.59v-37.369l-104.46 0.27539c-30.502-25.463-62.367-36.52-92.326-36.781zm10.531 72.473c10.144 0.053748 20.834 1.9469 31.635 5.8613v13.566l9.0254 17.584h44.607l-4.127 7.293h-23.172l-27.682 42.322 13.482 20.775-24.986 36.711c-25.702 17.914-71.548 4.6764-77.877-27.768h11.062l26.254-39.434-24.189-32.607h-18.768c8.7921-28.069 34.303-44.466 64.734-44.305zm178.69 15.162v21.85h60.43l-3.7148 6.4668h-23.115l-29.996 42.047v27.436h8.0625l-4.209 7.293h-54.184v-4.8164l30.021-41.359v-31.48l16.705-27.436z" fill="#fff" fill-rule="evenodd"/>
  </g>
  <g transform="matrix(7.2809 0 0 -7.2809 -52.442 -151.11)">
   <path d="m0 0c-2.058 1.874-6.781 1.288-7.403-3.29h-0.961l-0.503-0.946h1.478c0.791-3.157 2.916-4.382 5.762-3.915l-0.59 1.018c-1.947-0.193-3.463 0.684-3.888 2.866h0.967l0.483 0.932h-1.425c0.499 2.781 2.531 3.752 5.199 2.691l0.347 0.625z" fill="#ed1f24" fill-rule="evenodd"/>
  </g>
  <g transform="matrix(7.2809 0 0 -7.2809 -13.989 -148.27)">
   <path d="m0 0h3.9l-1.732-2.866h1.115l-0.636-0.968h-1.047l-1.163-1.855h3.557l-0.586-0.938h-4.779l1.73 2.783h-0.866l0.629 0.971h0.857l1.134 1.852h-2.685z" fill="#ed1f24" fill-rule="evenodd"/>
  </g>
  <g transform="matrix(7.2809 0 0 -7.2809 -54.262 -148.27)">
   <path d="m0 0h3.9l-1.733-2.866h1.115l-0.637-0.968h-1.045l-1.163-1.855h3.555l-0.584-0.938h-4.781l1.732 2.783h-0.866l0.629 0.971h0.857l1.132 1.852h-2.685z" fill="#ed1f24" fill-rule="evenodd"/>
  </g>
  <g transform="matrix(7.2809 0 0 -7.2809 16.442 -151.52)">
   <path d="m0 0h0.514l-0.252-0.43 1.461-2.879h-1.043l-0.583-0.971h1.616v-4.077h1.241v4.091h0.911l0.596 0.947h-1.529l2.362 4.294h-1.186l-1.768-2.758-1.637 2.758h-1.124z" fill="#ed1f24" fill-rule="evenodd"/>
  </g>
  <g transform="matrix(7.2809 0 0 -7.2809 -96.084 -54.349)">
   <path d="m0 0c-0.113-0.143-1.428-1.502-1.535-1.646-0.137-0.194-0.334-0.396-0.399-0.629-0.069-0.241-0.109-0.678-0.41-0.703-0.129-0.012-0.216-0.038-0.224 0.104-0.01 0.141-0.02 0.274-0.047 0.417-0.056 0.286-0.244 0.423-0.518 0.45-0.246 0.025-0.525-0.053-0.688 0.172-0.101 0.137-7e-3 0.601 0.132 0.725l1.035 0.185c0.3 0.041 1.627 1.441 1.876 1.667-0.079 0.099-0.156 0.197-0.223 0.303-0.12-0.108-1.454-1.413-1.592-1.482-0.096-0.054-0.206-0.14-0.313-0.156-0.171-0.024-0.346-0.047-0.516-0.068-0.223-0.029-0.455-0.042-0.576-0.264-0.037-0.069-0.123-0.174-0.162-0.272l-0.025-0.081c-0.012-0.17-0.02-0.338-0.028-0.502-8e-3 -0.156-9e-3 -0.178 0.088-0.299 0.061-0.083 0.18-0.203 0.277-0.236 0.1-0.036 0.207-0.05 0.313-0.052 0.109-4e-3 0.353 0.045 0.455-5e-3 0.109-0.059 0.127-0.28 0.146-0.393 0.022-0.149 0.048-0.258 0.108-0.395 0.068-0.164 0.103-0.14 0.281-0.172 0.123-0.02 0.26-0.036 0.381-8e-3 0.271 0.038 0.383 0.278 0.453 0.505 0.081 0.251 0.133 0.464 0.281 0.683 0.173 0.251 1.553 1.706 1.741 1.944-0.11 0.065-0.213 0.133-0.311 0.208" fill="#fff"/>
  </g>
  <g transform="matrix(7.2809 0 0 -7.2809 -121.46 -77.009)">
   <path d="m0 0 0.687-0.065 0.334-0.106 0.33-0.154c2e-3 -4e-3 1.22-1.187 1.336-1.264 0.066 0.106 0.137 0.207 0.211 0.304-0.137 0.093-1.377 1.293-1.377 1.293l-0.365 0.167-0.379 0.125-0.801 0.07c-0.108 0.112-0.319 0.304-0.301 0.456 0.021 0.134 0.017 0.163 0.119 0.247l0.262 0.219 0.165 0.011 0.2 2e-3 0.17 0.045c0.287 0.118 0.343 0.259 0.45 0.522 9e-3 0.212 0.019 0.628 0.338 0.512 0.243-0.082 0.208-0.41 0.214-0.631l0.4-0.562 0.135-0.127 0.123-0.116 1.441-1.42 2e-3 -6e-3c0.098 0.073 0.194 0.147 0.299 0.213l-0.031 0.049-1.297 1.287-0.133 0.127-0.283 0.266-0.307 0.424c-5e-3 0.267 0.036 0.511-0.189 0.705-0.23 0.236-0.448 0.181-0.736 0.143-0.135-0.107-0.297-0.255-0.315-0.444-0.01-0.113-0.019-0.229-0.03-0.343-7e-3 -0.093-0.081-0.152-0.138-0.22l-0.191-0.054-0.33-9e-3c-0.096-0.02-0.192-0.037-0.281-0.064-0.097-0.025-0.166-0.138-0.233-0.206-0.148-0.16-0.235-0.336-0.228-0.541l0.091-0.306 0.044-0.063 0.109-0.168c0.134-0.223 0.229-0.279 0.485-0.318" fill="#fff"/>
  </g>
  <g transform="matrix(7.2809 0 0 -7.2809 45.196 -73.547)">
   <path d="m0 0 0.057 0.064c0.162 0.131 1.506 1.397 1.636 1.598 0.056 0.092 0.25 0.45 0.262 0.564 0.014 0.11-0.017 0.232-0.023 0.34-0.016 0.23 0.089 0.216 0.25 0.315 0.152-0.057 0.214-0.079 0.253-0.25 0.03-0.116 0.034-0.242 0.086-0.353 0.096-0.215 0.182-0.351 0.423-0.424 0.221-0.072 0.446-0.01 0.668-0.052 0.279-0.052 0.284-0.288 0.283-0.527-2e-3 -0.546-0.924-0.379-1.272-0.507-0.227-0.086-1.586-1.445-1.781-1.59l-0.028-0.019c0.077-0.103 0.147-0.207 0.211-0.315 0.088 0.054 1.428 1.359 1.52 1.41 0.379 0.207 0.807 0.164 1.201 0.293l0.031 9e-3 0.071 0.024c0.214 0.087 0.343 0.36 0.396 0.635 0.032 0.162 0.037 0.325 0.02 0.447-0.029 0.192-0.315 0.333-0.463 0.423-0.234 0.141-0.438 0.044-0.677 0.108-0.295 0.082-0.278 0.309-0.319 0.579-0.028 0.175-0.209 0.418-0.397 0.435-0.095 0.01-0.185 0.038-0.282 0.038-0.122 0-0.266-0.138-0.366-0.205-0.081-0.102-0.154-0.195-0.176-0.323-0.017-0.102 0.051-0.354 2e-3 -0.427-0.086-0.131-0.171-0.261-0.258-0.394-0.1-0.155-1.494-1.546-1.633-1.68 0.104-0.07 0.207-0.139 0.305-0.216" fill="#fff"/>
  </g>
  <g transform="matrix(7.2809 0 0 -7.2809 74.646 -47.936)">
   <path d="m0 0-0.179 0.142c-0.122 0.023-0.89 0.14-0.89 0.14l-1.742 1.563-0.108 0.095c-0.065-0.112-0.136-0.216-0.208-0.315l0.091-0.082 1.672-1.489 1.109-0.26 0.115-0.323 5e-3 -0.463c-0.112-0.099-0.146-0.124-0.293-0.134-0.107-7e-3 -0.22 0-0.324-7e-3 -0.308-0.028-0.427-0.096-0.594-0.357l-0.07-0.285-0.041-0.244-0.27-0.071c-0.218 0.01-0.277 0.53-0.312 0.691l-0.221 0.391c-8e-3 0.016-1.463 1.514-1.663 1.803-0.097-0.075-0.2-0.147-0.301-0.216v-2e-3c0.188-0.273 1.782-1.971 1.782-1.971 0.072-0.263 0.126-0.735 0.35-0.922 0.149-0.127 0.318-0.141 0.501-0.155 0.239-0.02 0.357 0.087 0.462 0.271 0.086 0.16 0.064 0.384 0.132 0.554 0.065 0.162 0.269 0.137 0.421 0.137 0.141-4e-3 0.344-0.026 0.467 0.061 0.134 0.09 0.324 0.228 0.337 0.399l1e-3 0.104c0 0.192-4e-3 0.504-4e-3 0.504l-0.225 0.441" fill="#fff"/>
  </g>
  <g transform="matrix(7.2809 0 0 -7.2809 -106.35 -49.379)">
   <path d="m0 0-0.016 0.107v4.095l2.055-6e-3c0.422-0.058 0.721-0.212 0.894-0.453l0.014-0.025 0.012-0.015 0.01-0.021 0.019-0.023 0.014-0.018 0.019-0.033 0.02-0.025 0.039-0.061 0.012-0.013 0.039-0.058 0.019-0.03 0.02-0.031 0.01-0.01c0.402 0.526 1.022 0.814 1.757 0.822 0.968-0.014 1.729-0.47 2.057-1.222l2e-3 1.222h1.352l0.324-0.368v0.353h0.682l0.109 0.015h3.805l0.324-0.552 0.357 0.552h1.817c0.353 0 0.712-0.107 0.99-0.293h4e-3l0.08 0.293 1.986-3e-3c0.142-0.011 0.274-0.036 0.387-0.066l0.141 0.069h1.347c0.397 0 1.377-0.088 1.889-0.86 0.506-0.766 0.783-1.96-0.11-2.819l-0.595-0.57c-0.353-0.352-0.828-0.524-1.414-0.524h-2.101l-0.184 0.486-0.2-0.489-5.392 3e-3v0.757l-9e-3 -0.015-0.297-0.742h-5.069l-0.231 0.73c-0.396-0.445-1-0.711-1.695-0.73-0.598 5e-3 -1.119 0.211-1.494 0.582-0.186-0.237-0.525-0.495-1.133-0.578l-0.061-4e-3h-1.976z" fill="#fff"/>
  </g>
  <g transform="matrix(7.2809 0 0 -7.2809 -92.628 -54.712)">
   <path d="m0 0h-0.896v0.997h0.896c0.861-2e-3 0.928-0.937 0-0.997m-0.896 2.606h0.71c0.303 0 0.473-0.054 0.17-0.31l-0.88-0.813zm0.675-1.134 0.428 0.488c0.559 0.545 0.518 0.953-0.198 1.051h-1.468v-3.42h1.539c1.613 0.214 1.094 1.937-0.301 1.881" fill="#231f20"/>
  </g>
  <g transform="matrix(7.2809 0 0 -7.2809 -79.759 -64.759)">
   <path d="m0 0c0.014 0.77 0.472 1.242 1.273 1.253 0.67-0.018 1.236-0.423 1.245-1.016h-0.442l-0.302-0.47h0.744c-0.135-1.529-2.518-1.335-2.518 0.233m1.262 1.703c-0.994-6e-3 -1.683-0.643-1.72-1.737 6e-3 -1.023 0.726-1.685 1.685-1.699 0.923 0.028 1.722 0.593 1.791 1.5l0.318 7e-3 0.268 0.477h-0.625c-0.067 0.97-0.829 1.444-1.717 1.452" fill="#231f20"/>
  </g>
  <g transform="matrix(7.2809 0 0 -7.2809 -40.824 -68.698)">
   <path d="m0 0-0.924 1.162h-0.58l-6e-3 -3.436h0.526v2.48l0.969-1.204v-1.276h0.488v3.423h-0.473z" fill="#231f20"/>
  </g>
  <g transform="matrix(7.2809 0 0 -7.2809 -30.273 -62.732)">
   <path d="m0 0h0.658l0.174 0.429h-0.832v1.138h1.078l0.202 0.415h-1.894l-7e-3 -0.213 0.182-0.107v-2.808l-0.178-0.104v-0.205h2.043l0.176 0.437h-1.602z" fill="#231f20"/>
  </g>
  <g transform="matrix(7.2809 0 0 -7.2809 24.86 -65.192)">
   <path d="m0 0v1.282l0.822 6e-3c0.444-6e-3 0.456-0.185 0.065-0.501zm1.171 0.544c0.501 0.404 0.61 1.039-0.253 1.1h-1.434v-3.437h0.485v1.247l0.379 0.306 0.879-1.538h0.513l-0.996 1.909z" fill="#231f20"/>
  </g>
  <g transform="matrix(7.2809 0 0 -7.2809 47.243 -55.145)">
   <path d="m0 0h-0.703l-2e-3 2.62h0.523s1.161 0.105 1.322-1.328c0.13-1.137-0.829-1.292-1.14-1.292m1.212 2.395c-0.332 0.503-0.978 0.628-1.458 0.628h-0.945v-3.436h1.261c1.797 0 1.752 1.892 1.142 2.808" fill="#231f20"/>
  </g>
  <g transform="matrix(7.2809 0 0 -7.2809 13.676 -65.647)">
   <path d="m0 0h-1.142v0.867c0 0.23 0.394 0.32 0.571 0.32 0.196 0 0.571-0.083 0.571-0.32zm0.402 0.979c0 0.358-0.534 0.602-0.973 0.602-0.42 0-0.971-0.262-0.971-0.602v-2.831h0.4v1.487h1.142v-1.49l0.402 3e-3v1.487h0.183v0.365h-0.183z" fill="#231f20"/>
  </g>
  <g transform="matrix(7.2809 0 0 -7.2809 -1.6179 -77.159)">
   <path d="m0 0-0.796-1.155-0.783 1.155h-0.479l1.06-1.577h-0.418l-0.217-0.359h0.598v-1.501h0.455v1.506h0.335l0.222 0.35h-0.563l1.054 1.581z" fill="#231f20"/>
  </g>
 </g>
</svg>
