<svg width="800" height="366.72" version="1.1" viewBox="0 0 211.67 97.027" xmlns="http://www.w3.org/2000/svg">
 <g transform="translate(6.7782 32.783)">
  <g transform="matrix(6.7543 0 0 -6.7543 -348.89 1923.8)">
   <g transform="translate(52.994 285.9)">
    <path d="m0 0c-0.122-0.208-0.295-0.315-0.511-0.315h-0.873v2.578h0.873c0.216 0 0.389-0.097 0.511-0.285 0.124-0.199 0.184-0.522 0.184-0.978 0-0.454-0.06-0.79-0.184-1m-0.361 3.783h-1.982v-8.754h0.959v3.148h0.962c0.503 0 0.889 0.215 1.158 0.64 0.271 0.433 0.405 1.159 0.405 2.196 0 0.945-0.134 1.645-0.405 2.096-0.274 0.451-0.637 0.674-1.097 0.674" fill="#231f20"/>
   </g>
   <g transform="translate(64.368 285.95)">
    <path d="m0 0c-0.105-0.096-0.256-0.141-0.462-0.141h-1.038v2.349h1.063c0.198 0 0.348-0.048 0.448-0.154 0.174-0.184 0.262-0.538 0.262-1.069 0-0.489-0.092-0.818-0.273-0.985m-5.204-1.717 0.599 3.449 0.585-3.449zm6.319-1.775v0.587c0 0.616-0.043 1.066-0.133 1.368-0.091 0.3-0.242 0.53-0.452 0.697 0.253 0.162 0.436 0.447 0.546 0.848 0.111 0.398 0.167 0.812 0.167 1.226 0 0.348-0.029 0.654-0.085 0.923-0.057 0.27-0.134 0.516-0.232 0.737-0.121 0.27-0.262 0.472-0.434 0.611-0.169 0.136-0.41 0.214-0.729 0.224h-2.209v-8.579l-1.602 8.579h-1.091l-1.432-7.599v0.413h-2.556v2.257h2.245v1.522h-2.245v1.86h2.445v1.547h-3.391v-8.754h4.295l0.315 1.801h1.697l0.305-1.801h1.961v3.434h0.941c0.27 0 0.453-0.094 0.548-0.28 0.097-0.186 0.149-0.56 0.155-1.118l5e-3 -0.814c2e-3 -0.254 0.016-0.509 0.043-0.755 0.012-0.116 0.032-0.277 0.058-0.467h1.067v0.219c-0.093 0.109-0.151 0.268-0.178 0.496-0.016 0.146-0.024 0.415-0.024 0.818" fill="#231f20"/>
   </g>
   <g transform="translate(66.858 289.68)">
    <path d="m0 0h-0.964v-8.754h3.271v1.568h-2.307z" fill="#231f20"/>
   </g>
   <g transform="translate(71.784 283.56)">
    <path d="m0 0c0-0.426-0.023-0.727-0.064-0.906-0.067-0.299-0.208-0.45-0.424-0.45-0.213 0-0.357 0.135-0.422 0.411-0.063 0.276-0.103 0.757-0.11 1.431v0.203h-0.912v-0.203c0-1.03 0.099-1.842 0.303-2.443 0.198-0.592 0.592-0.891 1.176-0.891 0.587 0 0.995 0.367 1.219 1.108 0.132 0.433 0.199 1.018 0.199 1.77v6.091h-0.965z" fill="#231f20"/>
   </g>
   <g transform="translate(74.384 284.24)">
    <path d="m0 0 0.602 3.448 0.584-3.448zm5.803 5.445-0.836-6.88-0.841 6.88h-1.402v-8.383l-1.565 8.383h-1.092l-1.649-8.754h1.008l0.313 1.802h1.701l0.307-1.802h1.875v5.924c0 0.17-3e-3 0.406-5e-3 0.716 0 0.309-2e-3 0.543-2e-3 0.708l0.868-7.348h0.94l0.874 7.348c0-0.165 0-0.399-5e-3 -0.708 0-0.31-2e-3 -0.546-2e-3 -0.716v-5.924h0.902v8.754z" fill="#231f20"/>
   </g>
  </g>
  <g transform="matrix(6.7543 0 0 -6.7543 124.31 52.473)">
   <path d="m0 0c-0.326-0.488-0.901-0.732-1.723-0.732h-1.612v3.288h1.612c0.792 0 1.323-0.139 1.59-0.418 0.267-0.27 0.4-0.661 0.4-1.178 0-0.37-0.091-0.689-0.267-0.96m-9.966 0.297 1.081 1.974 1.058-1.974zm-5.026 0.982c-0.182-0.051-0.463-0.081-0.838-0.081h-1.874v1.358h1.925c0.358 0 0.626-0.031 0.805-0.095 0.319-0.104 0.476-0.309 0.476-0.611 0-0.284-0.163-0.47-0.494-0.571m16.275 1.399c-0.362 0.313-0.835 0.52-1.42 0.638-0.345 0.072-0.773 0.108-1.294 0.11h-3.595v-4.863l-2.853 4.863h-1.971l-2.874-4.853c-0.104 0.062-0.172 0.14-0.209 0.241-0.032 0.077-0.045 0.232-0.045 0.461v0.338c0 0.354-0.08 0.619-0.24 0.786-0.16 0.173-0.434 0.306-0.817 0.399 0.458 0.094 0.79 0.259 0.987 0.494 0.199 0.222 0.302 0.46 0.302 0.703 0 0.196-0.052 0.376-0.155 0.527-0.107 0.154-0.243 0.293-0.42 0.421-0.213 0.155-0.473 0.272-0.779 0.355-0.309 0.079-0.75 0.119-1.319 0.128h-3.989v-5.03h1.704v1.973h1.704c0.485 0 0.814-0.056 0.992-0.161 0.175-0.106 0.268-0.318 0.273-0.637l0.013-0.472c3e-3 -0.145 0.03-0.292 0.072-0.43 0.027-0.069 0.062-0.156 0.114-0.273h3.533l0.562 1.03h3.073l0.549-1.03h5.388c1.262 0 2.196 0.317 2.8 0.937 0.446 0.467 0.669 1.032 0.669 1.702 0 0.262-0.055 0.541-0.161 0.833-0.105 0.285-0.305 0.56-0.594 0.81" fill="#750e18"/>
  </g>
  <path d="m138.12 63.307h11.665v-33.967h-11.665z" fill="#750e18"/>
  <g transform="matrix(6.7543 0 0 -6.7543 189 55.091)">
   <path d="m0 0c-0.407-0.314-0.952-0.467-1.643-0.467-0.692 0-1.24 0.153-1.653 0.467-0.411 0.302-0.613 0.739-0.613 1.307 0 0.563 0.202 1.001 0.613 1.314 0.413 0.305 0.961 0.456 1.653 0.456 0.691 0 1.236-0.157 1.643-0.464s0.61-0.747 0.61-1.306c0-0.568-0.203-1.005-0.61-1.307m1.092 3.383c-0.632 0.392-1.541 0.585-2.735 0.585-1.192 0-2.102-0.193-2.733-0.585-0.842-0.463-1.265-1.156-1.265-2.076 0-0.908 0.423-1.599 1.265-2.075 0.631-0.391 1.541-0.587 2.733-0.587 1.194 0 2.103 0.196 2.735 0.587 0.84 0.476 1.26 1.167 1.26 2.075 0 0.92-0.42 1.613-1.26 2.076" fill="#750e18"/>
  </g>
 </g>
</svg>
