<svg width="800" height="176.27" version="1.1" viewBox="0 0 211.67 46.638" xmlns="http://www.w3.org/2000/svg">
 <g transform="translate(-37.286 65.246)">
  <g transform="matrix(6.5533 0 0 -6.5533 248.94 -42.976)">
   <path d="m0 0c0-0.422-0.178-0.775-0.539-1.045-0.363-0.277-0.75-0.41-1.176-0.41-0.369 0-0.734 0.119-1.098 0.351-0.359 0.235-0.568 0.354-0.626 0.354-0.143 0-0.227-0.057-0.262-0.164-0.033-0.107-0.067-0.287-0.098-0.541h-0.111v2.312h0.111c0.026-0.089 0.071-0.24 0.133-0.447 0.061-0.205 0.178-0.453 0.346-0.74 0.17-0.285 0.392-0.524 0.675-0.713 0.276-0.189 0.596-0.285 0.963-0.285 0.213 0 0.385 0.058 0.52 0.172 0.133 0.107 0.199 0.242 0.199 0.396 0 0.186-0.049 0.33-0.152 0.442-0.102 0.103-0.274 0.209-0.533 0.31-0.262 0.102-0.534 0.211-0.823 0.328-0.289 0.116-0.592 0.274-0.916 0.473-0.326 0.191-0.488 0.559-0.488 1.096 0 0.424 0.174 0.779 0.51 1.07 0.344 0.299 0.732 0.439 1.177 0.439 0.249 0 0.487-0.058 0.719-0.173l0.672-0.375c0.123 0 0.203 0.052 0.242 0.16 0.043 0.105 0.061 0.236 0.061 0.388h0.121v-1.711h-0.113c-0.02 0.075-0.069 0.2-0.131 0.377-0.069 0.18-0.197 0.377-0.391 0.594-0.193 0.223-0.379 0.385-0.566 0.477-0.188 0.097-0.418 0.146-0.676 0.146-0.178 0-0.342-0.052-0.49-0.156-0.155-0.102-0.229-0.234-0.229-0.391 0-0.166 0.057-0.296 0.172-0.414 0.111-0.103 0.248-0.195 0.395-0.256 0.146-0.062 0.353-0.15 0.619-0.248 0.26-0.099 0.531-0.211 0.816-0.343 0.285-0.133 0.516-0.327 0.696-0.575 0.179-0.253 0.271-0.552 0.271-0.898" fill="#315cb3"/>
  </g>
  <g transform="matrix(6.5533 0 0 -6.5533 75.953 -54.393)">
   <path d="m0 0 0.219-0.723 0.75-0.017-0.619-0.43 0.212-0.719-0.595 0.457-0.623-0.429 0.254 0.713-0.598 0.455 0.756-0.018z" fill="#ed1f24"/>
  </g>
  <g transform="matrix(6.5533 0 0 -6.5533 59.685 -56.339)">
   <path d="m0 0c0 0.242-0.035 0.482-0.1 0.717-0.064 0.23-0.162 0.365-0.294 0.4-0.129 0.037-0.26 0.059-0.381 0.063h-0.276v-2.414c0.086 4e-3 0.174 4e-3 0.266 0.013 0.09 4e-3 0.215 0.02 0.361 0.049 0.145 0.026 0.258 0.154 0.324 0.385 0.063 0.232 0.1 0.494 0.1 0.787m-0.262-3.418h-3.144v0.105h0.193c0.096 0.012 0.182 0.026 0.27 0.036l0.201 0.095c0.051 0.055 0.084 0.149 0.09 0.289l0.015 0.295v3.065l-0.015 0.295c-6e-3 0.138-0.041 0.234-0.094 0.293-0.051 0.056-0.123 0.088-0.219 0.101l-0.252 0.024-0.201 7e-3v0.104l3.016 6e-3c0.703 0 1.164-0.078 1.398-0.231 0.229-0.156 0.391-0.32 0.479-0.5 0.093-0.179 0.134-0.369 0.134-0.578 0-0.195-0.029-0.381-0.087-0.554-0.057-0.176-0.153-0.323-0.278-0.436-0.129-0.117-0.279-0.199-0.465-0.256-0.187-0.056-0.423-0.084-0.718-0.084-0.28 0-0.51-2e-3 -0.678-2e-3 -0.17-4e-3 -0.317-6e-3 -0.434-0.013v-1.241l0.016-0.295c0.01-0.14 0.043-0.234 0.088-0.285 0.054-0.058 0.125-0.088 0.22-0.101 0.096-0.016 0.188-0.024 0.278-0.024 0.092-2e-3 0.152-6e-3 0.187-0.01z" fill="#315cb3"/>
  </g>
  <g transform="matrix(6.5533 0 0 -6.5533 103.54 -60.908)">
   <path d="m0 0c-0.125 0.363-0.352 0.545-0.662 0.545-0.16 0-0.295-0.053-0.414-0.156-0.117-0.102-0.207-0.252-0.268-0.45-0.06-0.193-0.107-0.447-0.138-0.757-0.03-0.309-0.039-0.621-0.039-0.946 0-0.443 0.013-0.802 0.048-1.086 0.037-0.279 0.1-0.552 0.194-0.82 0.093-0.271 0.302-0.4 0.617-0.4 0.162 0 0.299 0.049 0.416 0.152 0.115 0.105 0.205 0.256 0.264 0.451 0.062 0.196 0.109 0.449 0.138 0.754 0.031 0.309 0.041 0.627 0.041 0.949 0 0.381-0.01 0.715-0.041 1-0.019 0.284-0.076 0.535-0.156 0.764m1.961-1.764c0-0.687-0.26-1.265-0.779-1.732-0.522-0.463-1.137-0.695-1.844-0.695-0.742 0-1.358 0.228-1.856 0.687-0.5 0.459-0.748 1.039-0.748 1.74 0 0.725 0.252 1.309 0.764 1.76 0.508 0.443 1.121 0.666 1.84 0.666s1.334-0.225 1.849-0.682c0.516-0.449 0.774-1.035 0.774-1.744" fill="#315cb3"/>
  </g>
  <g transform="matrix(6.5533 0 0 -6.5533 129.43 -64.799)">
   <path d="m0 0h5.096v-2.07h-0.11c-0.113 0.259-0.254 0.539-0.416 0.836-0.16 0.295-0.33 0.554-0.506 0.771-0.179 0.225-0.334 0.332-0.466 0.332l-0.258 0.014v-3.772l0.014-0.295c0.013-0.14 0.042-0.234 0.084-0.289 0.044-0.054 0.117-0.084 0.21-0.095 0.1-0.01 0.184-0.02 0.262-0.024l0.203-0.012v-0.105h-3.15v0.105l0.422 0.018c0.135 0.016 0.22 0.041 0.267 0.1 0.049 0.05 0.078 0.144 0.09 0.287l0.01 0.299v3.783l-0.25-0.014c-0.135 0-0.291-0.103-0.457-0.308-0.166-0.202-0.336-0.463-0.504-0.774-0.172-0.314-0.318-0.601-0.432-0.857h-0.109z" fill="#315cb3"/>
  </g>
  <g transform="matrix(6.5533 0 0 -6.5533 210.82 -64.121)">
   <path d="m0 0-0.193-8e-3c-0.071-8e-3 -0.166-0.019-0.282-0.037-0.121-0.016-0.207-0.066-0.273-0.154-0.063-0.088-0.102-0.194-0.111-0.338l-0.012-0.307v-1.918l-0.016-0.328c-0.06-0.59-0.226-1.006-0.482-1.24-0.258-0.232-0.664-0.352-1.201-0.352-0.715 0-1.268 0.133-1.655 0.407-0.386 0.271-0.58 0.609-0.58 1.013v2.543l-0.011 0.299c-0.012 0.141-0.045 0.236-0.092 0.289-0.037 0.055-0.127 0.09-0.264 0.106l-0.271 0.025v0.104h3.017v-0.104l-0.189-8e-3c-0.075 0-0.162-0.012-0.274-0.025-0.115-0.018-0.193-0.049-0.234-0.096-0.041-0.051-0.072-0.144-0.084-0.291l-0.014-0.299v-2.59l8e-3 -0.185c4e-3 -0.074 0.016-0.19 0.041-0.34 0.025-0.152 0.111-0.307 0.258-0.453 0.15-0.147 0.351-0.221 0.613-0.221 0.356 0 0.631 0.092 0.817 0.274 0.185 0.183 0.308 0.392 0.367 0.629 0.066 0.236 0.097 0.439 0.097 0.607l0.01 0.307v1.875l-0.015 0.306c-0.01 0.143-0.047 0.252-0.102 0.326-0.059 0.073-0.148 0.12-0.264 0.133-0.115 0.024-0.209 0.035-0.293 0.043l-0.216 8e-3v0.104h1.9z" fill="#315cb3"/>
  </g>
  <g transform="matrix(6.5533 0 0 -6.5533 124.26 -54.393)">
   <path d="m0 0 0.215-0.723 0.75-0.017-0.619-0.43 0.216-0.719-0.599 0.457-0.619-0.429 0.25 0.713-0.602 0.455 0.754-0.018z" fill="#ed1f24"/>
  </g>
  <g transform="matrix(6.5533 0 0 -6.5533 169.67 -54.393)">
   <path d="m0 0 0.213-0.723 0.754-0.017-0.619-0.43 0.216-0.719-0.597 0.457-0.623-0.429 0.252 0.713-0.598 0.455 0.748-0.018z" fill="#ed1f24"/>
  </g>
  <g transform="matrix(6.5533 0 0 -6.5533 214.02 -54.393)">
   <path d="m0 0 0.221-0.723 0.75-0.017-0.618-0.43 0.213-0.719-0.595 0.457-0.625-0.429 0.254 0.713-0.596 0.455 0.75-0.018z" fill="#ed1f24"/>
  </g>
  <g transform="matrix(6.5533 0 0 -6.5533 41.613 -25.454)">
   <path d="m0 0h0.186c0.097 0 0.169 0.02 0.218 0.057l0.073 0.183-0.069 0.188c-0.049 0.039-0.125 0.06-0.222 0.06h-0.186zm0-0.709c0-0.103-0.016-0.178-0.051-0.228l-0.16-0.075-0.162 0.075c-0.031 0.05-0.049 0.125-0.049 0.228v1.289c0 0.111 0.024 0.193 0.065 0.236 0.045 0.041 0.117 0.061 0.228 0.061h0.383c0.213 0 0.379-0.057 0.5-0.174 0.123-0.111 0.183-0.264 0.183-0.463 0-0.193-0.06-0.349-0.171-0.463-0.118-0.113-0.274-0.168-0.479-0.168h-0.287z" fill="#231f20"/>
  </g>
  <g transform="matrix(6.5533 0 0 -6.5533 51.391 -23.598)">
   <path d="m0 0c0-0.107 0.023-0.193 0.072-0.258l0.199-0.097 0.2 0.097c0.049 0.065 0.074 0.154 0.074 0.258 0 0.102-0.025 0.184-0.074 0.246l-0.2 0.1-0.199-0.096c-0.049-0.066-0.072-0.148-0.072-0.25m-0.434-4e-3c0 0.213 0.067 0.391 0.202 0.527 0.132 0.139 0.302 0.209 0.503 0.209 0.206 0 0.374-0.066 0.5-0.209 0.137-0.136 0.198-0.312 0.198-0.527 0-0.219-0.061-0.396-0.198-0.537-0.126-0.135-0.294-0.205-0.5-0.205-0.201 0-0.371 0.07-0.503 0.205-0.135 0.145-0.202 0.318-0.202 0.537" fill="#231f20"/>
  </g>
  <g transform="matrix(6.5533 0 0 -6.5533 59.186 -30.125)">
   <path d="m0 0c0 0.104 0.02 0.176 0.051 0.229l0.154 0.074 0.152-0.076c0.038-0.051 0.059-0.123 0.059-0.227v-1.418c0-0.103-0.018-0.18-0.059-0.225l-0.152-0.078-0.154 0.078c-0.031 0.045-0.051 0.123-0.051 0.225z" fill="#231f20"/>
  </g>
  <g transform="matrix(6.5533 0 0 -6.5533 66.609 -20.833)">
   <path d="m0 0c0-0.104-0.016-0.18-0.051-0.225l-0.156-0.078-0.152 0.078c-0.034 0.045-0.055 0.123-0.055 0.225v0.832c0 0.104 0.021 0.178 0.053 0.227l0.154 0.07 0.156-0.07c0.035-0.049 0.051-0.123 0.051-0.227zm-0.441 1.482 0.07 0.168 0.166 0.071 0.168-0.071 0.072-0.168-0.07-0.17-0.17-0.068-0.166 0.068-0.07 0.17" fill="#231f20"/>
  </g>
  <g transform="matrix(6.5533 0 0 -6.5533 69.106 -25.62)">
   <path d="m0 0h-0.016l-0.172 0.051-0.058 0.131 0.058 0.129 0.188 0.054v0.182c0 0.099 0.016 0.174 0.049 0.228l0.16 0.073 0.154-0.073c0.035-0.054 0.053-0.129 0.053-0.228v-0.182h0.035l0.192-0.049 0.066-0.134-0.066-0.137-0.196-0.045h-0.031v-0.73c0-0.104-0.018-0.18-0.053-0.225l-0.154-0.078-0.16 0.078c-0.033 0.045-0.049 0.123-0.049 0.225z" fill="#231f20"/>
  </g>
  <g transform="matrix(6.5533 0 0 -6.5533 77.067 -20.833)">
   <path d="m0 0c0-0.104-0.018-0.18-0.049-0.225l-0.154-0.078-0.158 0.078c-0.032 0.045-0.049 0.123-0.049 0.225v0.832c0 0.104 0.017 0.178 0.049 0.227l0.158 0.07 0.154-0.07c0.031-0.049 0.049-0.123 0.049-0.227zm-0.439 1.482 0.072 0.168 0.164 0.071 0.168-0.071 0.07-0.168-0.07-0.17-0.168-0.068-0.166 0.068-0.07 0.17" fill="#231f20"/>
  </g>
  <g transform="matrix(6.5533 0 0 -6.5533 78.487 -23.572)">
   <path d="m0 0c0 0.217 0.064 0.393 0.195 0.525 0.131 0.141 0.303 0.205 0.514 0.205 0.141 0 0.254-0.025 0.334-0.072l0.131-0.189-0.045-0.125-0.127-0.049-0.131 0.027-0.162 0.033-0.205-0.095c-0.051-0.063-0.082-0.149-0.082-0.252 0-0.108 0.033-0.195 0.084-0.258l0.219-0.094 0.16 0.033 0.125 0.03 0.119-0.055 0.041-0.123c0-0.078-0.041-0.141-0.137-0.197-0.094-0.053-0.209-0.078-0.346-0.078-0.205 0-0.371 0.066-0.496 0.203-0.127 0.135-0.191 0.312-0.191 0.531" fill="#231f20"/>
  </g>
  <g transform="matrix(6.5533 0 0 -6.5533 89.789 -18.747)">
   <path d="m0 0c-0.148 0-0.271 0.027-0.367 0.086-0.096 0.057-0.145 0.131-0.145 0.219l0.045 0.131 0.113 0.05 0.194-0.06 0.189-0.055 0.084 0.02 0.033 0.06c0 0.043-0.068 0.094-0.199 0.143l-0.029 0.011c-0.152 0.063-0.254 0.125-0.311 0.186-0.054 0.063-0.084 0.143-0.084 0.24 0 0.123 0.051 0.229 0.151 0.315 0.096 0.084 0.219 0.127 0.369 0.127 0.137 0 0.248-0.028 0.344-0.084 0.095-0.059 0.138-0.127 0.138-0.203l-0.046-0.127-0.125-0.047-0.157 0.047-0.172 0.054-0.066-0.019-0.027-0.051c0-0.041 0.054-0.082 0.164-0.121l0.119-0.053c0.127-0.055 0.213-0.111 0.267-0.178l0.077-0.22c0-0.139-0.051-0.25-0.161-0.34-0.103-0.09-0.236-0.131-0.398-0.131" fill="#231f20"/>
  </g>
  <g transform="matrix(6.5533 0 0 -6.5533 99.644 -23.598)">
   <path d="m0 0c0-0.107 0.027-0.193 0.08-0.258l0.197-0.097 0.198 0.097c0.046 0.065 0.072 0.154 0.072 0.258 0 0.102-0.026 0.184-0.074 0.246l-0.196 0.1-0.193-0.096c-0.057-0.066-0.084-0.148-0.084-0.25m-0.426-4e-3c0 0.213 0.067 0.391 0.197 0.527 0.135 0.139 0.305 0.209 0.506 0.209 0.205 0 0.369-0.066 0.504-0.209 0.127-0.136 0.194-0.312 0.194-0.527 0-0.219-0.067-0.396-0.194-0.537-0.135-0.135-0.299-0.205-0.504-0.205-0.201 0-0.371 0.07-0.506 0.205-0.13 0.145-0.197 0.318-0.197 0.537" fill="#231f20"/>
  </g>
  <g transform="matrix(6.5533 0 0 -6.5533 110.67 -28.013)">
   <path d="m0 0h0.064l0.19-0.049 0.07-0.135-0.064-0.136-0.196-0.045h-0.064v-0.731c0-0.101-0.016-0.175-0.051-0.222l-0.158-0.08-0.158 0.078c-0.033 0.045-0.051 0.123-0.051 0.224v0.731h-0.014l-0.175 0.051-0.059 0.13 0.059 0.129 0.189 0.055-4e-3 0.031v0.039c0 0.176 0.037 0.315 0.11 0.41 0.078 0.096 0.181 0.145 0.322 0.145l0.199-0.055 0.076-0.152-0.043-0.117-0.148-0.055-0.074-0.033-0.02-0.123z" fill="#231f20"/>
  </g>
  <g transform="matrix(6.5533 0 0 -6.5533 118.13 -25.62)">
   <path d="m0 0h-0.02l-0.171 0.051-0.059 0.131 0.059 0.129 0.191 0.054v0.182c0 0.099 0.018 0.174 0.047 0.228l0.162 0.073 0.154-0.073c0.032-0.054 0.049-0.129 0.049-0.228v-0.182h0.033l0.196-0.049 0.064-0.134-0.064-0.137-0.196-0.045h-0.033v-0.73c0-0.104-0.017-0.18-0.047-0.225l-0.156-0.078-0.162 0.078c-0.029 0.045-0.047 0.123-0.047 0.225z" fill="#231f20"/>
  </g>
  <g transform="matrix(6.5533 0 0 -6.5533 125.99 -27.45)">
   <path d="m0 0 0.152 0.098 0.207 0.031c0.159 0 0.286-0.043 0.375-0.137 0.09-0.094 0.129-0.232 0.129-0.408v-0.594c0-0.101-0.019-0.179-0.049-0.224l-0.158-0.078-0.158 0.078c-0.031 0.045-0.049 0.123-0.049 0.224v0.467c0 0.117-0.017 0.197-0.056 0.246l-0.168 0.076-0.166-0.076c-0.039-0.049-0.059-0.133-0.059-0.24v-0.473c0-0.101-0.016-0.179-0.045-0.224l-0.16-0.078-0.152 0.078c-0.04 0.045-0.053 0.123-0.053 0.224v1.418c0 0.104 0.013 0.176 0.053 0.229l0.152 0.074 0.16-0.076c0.029-0.053 0.045-0.123 0.045-0.227z" fill="#231f20"/>
  </g>
  <g transform="matrix(6.5533 0 0 -6.5533 135.64 -24.57)">
   <path d="m0 0h0.549l-0.08 0.174-0.188 0.072-0.183-0.068-0.098-0.178m8e-3 -0.27 0.095-0.183 0.217-0.065c0.082 0 0.166 0.02 0.264 0.069 0.092 0.043 0.15 0.062 0.172 0.062l0.119-0.039 0.051-0.119c0-0.086-0.069-0.166-0.186-0.238-0.129-0.074-0.271-0.106-0.437-0.106-0.211 0-0.377 0.065-0.516 0.205-0.133 0.143-0.205 0.315-0.205 0.528 0 0.211 0.064 0.388 0.197 0.525 0.135 0.145 0.301 0.209 0.502 0.209 0.188 0 0.352-0.064 0.475-0.195 0.133-0.133 0.199-0.293 0.199-0.487l-0.043-0.13-0.164-0.036z" fill="#231f20"/>
  </g>
  <g transform="matrix(6.5533 0 0 -6.5533 145.94 -24.238)">
   <path d="m0 0v0.785c0 0.104 0.018 0.178 0.053 0.229l0.158 0.072 0.162-0.072c0.035-0.051 0.057-0.125 0.057-0.229v-0.738c0-0.164 0.023-0.291 0.09-0.369 0.058-0.09 0.154-0.131 0.283-0.131 0.123 0 0.217 0.041 0.281 0.131 0.063 0.078 0.094 0.205 0.094 0.369v0.738c0 0.104 0.019 0.178 0.05 0.229l0.163 0.072 0.158-0.072c0.035-0.051 0.051-0.125 0.051-0.229v-0.785c0-0.268-0.069-0.484-0.205-0.633-0.143-0.152-0.34-0.226-0.592-0.226s-0.451 0.074-0.592 0.226c-0.141 0.149-0.211 0.365-0.211 0.633" fill="#231f20"/>
  </g>
  <g transform="matrix(6.5533 0 0 -6.5533 158.45 -20.833)">
   <path d="m0 0v0.832c0 0.104 0.016 0.178 0.055 0.227l0.156 0.07 0.109-0.029 0.082-0.1 0.157 0.105 0.212 0.034c0.161 0 0.286-0.043 0.372-0.137 0.087-0.094 0.134-0.232 0.134-0.408v-0.594c0-0.102-0.019-0.18-0.054-0.225l-0.157-0.078-0.158 0.078c-0.033 0.045-0.049 0.123-0.049 0.225v0.467c0 0.117-0.019 0.197-0.052 0.246l-0.172 0.076-0.168-0.076c-0.037-0.049-0.053-0.133-0.053-0.24v-0.473c0-0.102-0.018-0.18-0.051-0.225l-0.152-0.078-0.156 0.078c-0.039 0.045-0.055 0.123-0.055 0.225" fill="#231f20"/>
  </g>
  <g transform="matrix(6.5533 0 0 -6.5533 171.37 -20.833)">
   <path d="m0 0c0-0.104-0.016-0.18-0.051-0.225l-0.154-0.078-0.156 0.078c-0.034 0.045-0.049 0.123-0.049 0.225v0.832c0 0.104 0.012 0.178 0.049 0.227l0.156 0.07 0.154-0.07c0.035-0.049 0.051-0.123 0.051-0.227zm-0.445 1.482 0.074 0.168 0.168 0.071 0.168-0.071 0.068-0.168-0.068-0.17-0.168-0.068-0.172 0.068-0.07 0.17" fill="#231f20"/>
  </g>
  <g transform="matrix(6.5533 0 0 -6.5533 173.87 -25.62)">
   <path d="m0 0h-0.016l-0.171 0.051-0.063 0.131 0.063 0.129 0.187 0.054v0.182c0 0.099 0.016 0.174 0.051 0.228l0.154 0.073 0.156-0.073c0.034-0.054 0.051-0.129 0.051-0.228v-0.182h0.037l0.192-0.049 0.068-0.134-0.064-0.137-0.198-0.045h-0.035v-0.73c0-0.104-0.012-0.18-0.051-0.225l-0.156-0.078-0.154 0.078c-0.035 0.045-0.051 0.123-0.051 0.225z" fill="#231f20"/>
  </g>
  <g transform="matrix(6.5533 0 0 -6.5533 181.27 -24.57)">
   <path d="m0 0h0.545l-0.082 0.174-0.186 0.072-0.177-0.068-0.1-0.178m4e-3 -0.27 0.098-0.183c0.054-0.045 0.125-0.065 0.216-0.065 0.075 0 0.164 0.02 0.258 0.069 0.096 0.043 0.158 0.062 0.176 0.062l0.123-0.039 0.045-0.119c0-0.086-0.063-0.166-0.186-0.238-0.123-0.074-0.269-0.106-0.437-0.106-0.207 0-0.375 0.065-0.512 0.205-0.138 0.143-0.205 0.315-0.205 0.528 0 0.211 0.067 0.388 0.203 0.525 0.129 0.145 0.297 0.209 0.492 0.209 0.194 0 0.356-0.064 0.481-0.195 0.131-0.133 0.193-0.293 0.193-0.487l-0.043-0.13-0.16-0.036z" fill="#231f20"/>
  </g>
  <g transform="matrix(6.5533 0 0 -6.5533 190.93 -23.623)">
   <path d="m0 0c0-0.105 0.025-0.186 0.074-0.252l0.199-0.096 0.196 0.092c0.051 0.07 0.076 0.151 0.076 0.256 0 0.104-0.025 0.189-0.076 0.252l-0.196 0.098-0.199-0.098c-0.049-0.063-0.074-0.148-0.074-0.252m0.551-0.594-0.153-0.103-0.183-0.035c-0.174 0-0.322 0.068-0.449 0.212-0.127 0.143-0.194 0.321-0.194 0.522 0 0.207 0.067 0.379 0.192 0.516 0.123 0.144 0.273 0.212 0.451 0.212l0.176-0.029 0.148-0.088v0.379c0 0.104 0.016 0.176 0.047 0.229l0.162 0.074 0.154-0.076c0.032-0.051 0.051-0.123 0.051-0.227v-1.418c0-0.101-0.016-0.179-0.049-0.222l-0.156-0.081-0.113 0.038-0.084 0.097" fill="#231f20"/>
  </g>
  <g transform="matrix(6.5533 0 0 -6.5533 209.96 -22.779)">
   <path d="m0 0c0-0.189-0.066-0.34-0.197-0.455-0.135-0.115-0.309-0.172-0.53-0.172-0.168 0-0.306 0.025-0.425 0.09-0.118 0.058-0.174 0.127-0.174 0.209l0.053 0.139 0.152 0.05c0.033 0 0.099-0.013 0.201-0.05 0.104-0.03 0.186-0.045 0.256-0.045l0.148 0.058 0.061 0.137-0.061 0.141c-0.041 0.037-0.131 0.072-0.265 0.117-0.194 0.054-0.334 0.123-0.41 0.205-0.077 0.082-0.116 0.187-0.116 0.322 0 0.172 0.063 0.315 0.186 0.426 0.129 0.109 0.293 0.166 0.488 0.166 0.151 0 0.274-0.031 0.367-0.08 0.094-0.053 0.147-0.117 0.147-0.197l-0.055-0.135-0.14-0.045-0.163 0.033-0.17 0.031-0.148-0.045-0.055-0.117c0-0.074 0.08-0.138 0.245-0.191l0.089-0.028c0.18-0.058 0.307-0.132 0.391-0.226 0.086-0.092 0.125-0.205 0.125-0.338" fill="#231f20"/>
  </g>
  <g transform="matrix(6.5533 0 0 -6.5533 211.78 -25.62)">
   <path d="m0 0h-0.018l-0.171 0.051-0.057 0.131 0.057 0.129 0.189 0.054v0.182c0 0.099 0.018 0.174 0.057 0.228l0.15 0.073 0.158-0.073c0.035-0.054 0.051-0.129 0.051-0.228v-0.182h0.033l0.194-0.049 0.07-0.134-0.07-0.137-0.198-0.045h-0.029v-0.73c0-0.104-0.016-0.18-0.049-0.225l-0.16-0.078-0.15 0.078c-0.039 0.045-0.057 0.123-0.057 0.225z" fill="#231f20"/>
  </g>
  <g transform="matrix(6.5533 0 0 -6.5533 219.23 -23.598)">
   <path d="m0 0c0-0.102 0.025-0.182 0.078-0.248l0.194-0.092 0.189 0.094c0.053 0.064 0.074 0.144 0.074 0.246 0 0.098-0.021 0.176-0.074 0.238l-0.189 0.092-0.194-0.092c-0.049-0.062-0.078-0.14-0.078-0.238m0.547-0.58-0.152-0.115-0.192-0.043c-0.18 0-0.328 0.072-0.447 0.211-0.121 0.138-0.18 0.31-0.18 0.521 0 0.203 0.059 0.379 0.182 0.522 0.129 0.138 0.281 0.209 0.459 0.209l0.187-0.038 0.143-0.109 0.086 0.1 0.113 0.029 0.156-0.07c0.028-0.049 0.045-0.123 0.045-0.227v-0.832c0-0.101-0.017-0.176-0.045-0.223l-0.156-0.08-0.119 0.038-0.08 0.107" fill="#231f20"/>
  </g>
  <g transform="matrix(6.5533 0 0 -6.5533 227.9 -25.62)">
   <path d="m0 0h-0.018l-0.169 0.051-0.067 0.131 0.067 0.129 0.187 0.054v0.182c0 0.099 0.016 0.174 0.049 0.228l0.16 0.073 0.152-0.073c0.032-0.054 0.049-0.129 0.049-0.228v-0.182h0.037l0.192-0.049 0.068-0.134-0.066-0.137-0.196-0.045h-0.035v-0.73c0-0.104-0.017-0.18-0.049-0.225l-0.152-0.078-0.16 0.078c-0.033 0.045-0.049 0.123-0.049 0.225z" fill="#231f20"/>
  </g>
  <g transform="matrix(6.5533 0 0 -6.5533 235.28 -24.57)">
   <path d="m0 0h0.547l-0.084 0.174-0.182 0.072-0.183-0.068-0.098-0.178m2e-3 -0.27 0.1-0.183 0.216-0.065c0.077 0 0.164 0.02 0.262 0.069 0.094 0.043 0.15 0.062 0.174 0.062l0.121-0.039 0.043-0.119c0-0.086-0.059-0.166-0.184-0.238-0.123-0.074-0.271-0.106-0.441-0.106-0.201 0-0.371 0.065-0.508 0.205-0.135 0.143-0.205 0.315-0.205 0.528 0 0.211 0.068 0.388 0.199 0.525 0.133 0.145 0.297 0.209 0.502 0.209 0.184 0 0.346-0.064 0.475-0.195 0.127-0.133 0.193-0.293 0.193-0.487l-0.039-0.13-0.164-0.036z" fill="#231f20"/>
  </g>
  <g transform="matrix(6.5533 0 0 -6.5533 245.29 -18.747)">
   <path d="m0 0c-0.145 0-0.27 0.027-0.367 0.086-0.098 0.057-0.145 0.131-0.145 0.219l0.045 0.131 0.112 0.05 0.197-0.06 0.187-0.055 0.084 0.02 0.033 0.06c0 0.043-0.07 0.094-0.201 0.143l-0.025 0.011c-0.149 0.063-0.252 0.125-0.313 0.186-0.054 0.063-0.08 0.143-0.08 0.24 0 0.123 0.047 0.229 0.151 0.315 0.093 0.084 0.217 0.127 0.369 0.127 0.135 0 0.248-0.028 0.342-0.084l0.138-0.203-0.05-0.127-0.12-0.047-0.16 0.047-0.174 0.054-0.066-0.019-0.027-0.051c0-0.041 0.054-0.082 0.164-0.121l0.123-0.053c0.123-0.055 0.213-0.111 0.262-0.178l0.08-0.22c0-0.139-0.049-0.25-0.157-0.34-0.105-0.09-0.24-0.131-0.402-0.131" fill="#231f20"/>
  </g>
 </g>
</svg>
