<svg width="800" height="324.75" version="1.1" viewBox="0 0 211.67 85.924" xmlns="http://www.w3.org/2000/svg">
 <g transform="translate(197.25 53.527)">
  <g transform="matrix(6.0873 0 0 -6.0873 12.079 -52.955)">
   <path d="m0 0v-0.127h0.169v-0.085l-0.042-0.044h0.13v-0.385c0.136-0.033 0.063 0.022 0.127-0.082h-0.044c-0.07-0.089-0.05 0.025-0.083-0.087v-12.021c0-0.224 0.083-0.725 0.083-0.725-0.092-0.155-0.103-0.222-0.254-0.383-0.978 0.199-3.265 0.086-4.382 0.086h-1.151c-0.145 0.032-1.193 2e-3 -1.395 0.04-0.352 0.073-0.815-0.04-1.448-0.04h-4.439c-0.987 0-2.399-0.155-3.282 0.04-0.276 0.064-0.688-0.082-0.896 0.043l0.085 0.044-0.254 0.04v-0.04l0.085-0.044h-1.151c-0.144-0.153-0.653-0.083-0.938-0.083-0.824 2e-3 -1.668 0-2.515 0-1.433 2e-3 -3.369 0-5.155 0h-5.299l-0.085-0.129c-0.338-0.142-2.014 0.144-2.085 0.169l-0.169 0.175c0.248 0.161 0.169 0.621 0.169 1.021v3.624c0.064 0.182 0.202 0.638 0.173 0.894-0.169 0.083-0.173 1.263-0.173 1.916 0 1.932-0.059 4.055-0.042 5.542-0.139 0.038-0.065-0.021-0.127 0.088 0.11 0.063 0.132 0.029 0.169 0.124l0.044 0.173-0.086-0.043v0.043l-0.044 0.086 0.13-0.042v0.125c0.408-2e-3 0.25 0.123 0.469 0.171 0.127 0.03 0.118-0.077 0.169-0.129 0.111 0.079 0.127 0.063 0.259 0.088 0.116 0.023 0.19-0.036 0.252-0.043 0.28-0.036 0.962-4e-3 1.317 0 0.127 0.012 0.893 0.027 1.02 0.043 0.267-0.047 2.251-0.143 2.575-0.043 0.389 0.119 2.287 0 3.196 0h10.185c0.465 0 0.929 0.098 1.32 0h1.964l0.127-0.127c0.246-0.084 0.925-0.039 1.107 0.04l0.081 0.13c0.353 0.182 2.251-0.183 2.399-0.17 0.714 0.05 2.446 0.324 3.228 0.127z" fill="#0a4575"/>
  </g>
  <g transform="matrix(6.0873 0 0 -6.0873 10.522 27.743)">
   <path d="m0 0c-0.103-0.25-0.395 0.022-0.722-0.125-0.401-0.184-3.323-0.174-3.83-0.045-0.374 0.098-1.712 0.045-2.159 0.045-0.909 0-2.001 0.045-2.772-0.086l-0.127 0.086c-0.185-0.125-2.62 0.036-2.822 0.082-0.254-0.014-0.51-0.027-0.765-0.041l-0.127-0.166c-0.171-0.081-0.382 0.059-0.472 0.08-0.497 0.013-0.995 0.025-1.49 0.045-0.863 0-2.14-0.147-2.9 0.041-0.303 0.071-0.542-0.018-0.638-0.166-0.039 0.076-0.018 0.027 0 0.125-0.365-0.011-1.302-0.123-1.49 0.082h-1.962c-0.238 0-0.604 0.063-0.599-0.082h-2.937c-0.75-0.176-4.554-0.218-5.428 0-0.572 0.138-1.798-0.172-2.168 0.041v1.876l-0.042-0.084h-0.044c0.095 0.546 0.13 1.317 0.13 2.043-0.018 0.288-0.031 0.567-0.044 0.853 0.131 0.601 0.056 1.604-0.086 2.088-0.166 0.573 0.121 1.128 0.13 1.578 0.014 1.104 0.113 2.563-0.13 3.454l0.13 0.892c0.155 9e-3 0.306 0.063 0.425 0.088 0.378 0.084 1.098-0.066 1.486 0 0.232 0.04 1.087-0.189 1.319-0.043 0.227 2e-3 0.68-3e-3 0.676 0.127 0.335 0.013 1.497 0.17 1.981 0.04 0.198-0.047 1.158-0.224 1.235-0.212 0.107 0.022 0.342 0.17 0.513 0.212 0.131 0.039 0.269-0.032 0.341-0.04 0.454-0.061 1.016 0.064 1.493-0.041h2.938c0.974 0 2.152 0.102 2.983-0.086h0.728c0.778 0.027 1.56 0.054 2.342 0.086 1.957 0.02 4.96 0.013 6.742 0.122 0.195 0.016 0.316-0.125 0.428-0.165 0.368-0.141 1.486 0.082 1.817 0.084-0.055 0.036-0.105 0.04-0.21 0.04 0.331 0.206 0.892-0.081 1.319-0.081 1.353-0.01 3.409-0.131 4.72-0.131 0.011-1.287 0.164-2.002 0.217-2.815-0.111-0.095-0.206-0.176-0.257-0.257h-0.043c0.09-0.045 0.076-0.016 0.171 0-0.068-0.387 0.087-1.554-0.128-1.701 0.093-0.099 0.018-0.043 0.128-0.043-5e-3 -0.122-0.031-0.062 0-0.128-0.012-0.192 0.023-0.16-0.088-0.17v-2.388c0-0.31-0.051-0.755 0.088-0.94 0.02-0.153-0.024-0.106 0.087-0.123 7e-3 -0.333 0.084-1.374-0.087-1.538-5e-3 -0.22-0.029-0.245 0.087-0.254l-0.043-0.084c-0.049-0.034-0.04-0.029-0.132-0.041-7e-3 -0.575-0.046-1.977 0.088-2.134" fill="#fffee6"/>
  </g>
  <g transform="matrix(6.0873 0 0 -6.0873 -65.181 31.36)">
   <path d="m0 0s-1.432-0.123-2.148 0.047" fill="#7a4a30"/>
  </g>
  <g transform="matrix(6.0873 0 0 -6.0873 -162.29 -10.389)">
   <path d="m0 0v-0.671h-0.136l0.035-0.068 0.069 0.032c0.069-0.138 0.039-0.554 0.032-0.874v-0.102h-0.201c-0.046 0.021-0.354 5e-3 -0.505 0v0.071c0.042 0.222-0.14 0.492-0.199 0.64-0.09 0.047-0.166 0.038-0.274 0.065-0.228 0.054-0.796-0.105-1.006-0.201v-0.072h0.035l0.031 0.072 0.037-0.103-0.037-0.068c0.063-0.533 0.037-1.078 0.037-1.61l-0.068 0.032v-0.032c0.121-0.119-7e-3 -0.214-0.068-0.336 0.217 0 0.154-0.29 0.136-0.574l-0.037-0.401c0.074-0.107 0.101-0.045 0.136-0.134v-0.036c0.129-0.102 1.089-0.076 1.212 0.036l0.03 0.066c0.026 0.042 5e-3 0.036 0 0.138 0.11-0.011 0.137-0.011 0.172-0.037l-0.071 0.103h-0.033l-0.039 0.044c-0.031 0.053 4e-3 0.16 6e-3 0.257 0.262-4e-3 0.292-2e-3 0.472 0v-0.066c-0.013-0.031 0.114-0.07 0.081 0.037 0.118 0.041 7e-3 9e-3 0.186 0.029 4e-3 -0.247 9e-3 -0.356-0.065-0.505 0.109-0.019 0.069-0.447 0.065-0.668-0.298-0.074-0.588-0.299-0.804-0.371-0.016 0.084 0.019 0.05-0.101 0.068 9e-3 -0.102 0.063-0.075-0.033-0.137l-0.136-0.036c-0.315-0.054-0.688-0.101-0.976 0v0.071l-0.065-0.035c-0.188-0.067-0.428-0.04-0.706-0.036v0.071l0.065 0.066h-0.035c-0.052-0.05-0.063-0.051-0.166-0.066-0.272 0.279-0.493 0.274-0.771 0.769-0.134 0.109-0.111 0.397-0.102 0.641l0.069-0.034c-0.029 0.164-0.075 0.649-0.069 1.076h0.033c0.055-0.073-0.044 0.197-0.033 0.5h0.033c0.039-0.024-0.01 0.193-0.033 0.339 0.035 0.102 5e-3 0.499 0.069 0.639-0.101 0.016-0.075 0.231-0.069 0.439l0.134 0.029v0.036c-0.109 0.029-0.05-0.018-0.101 0.066l0.171 0.204c0.075-0.014 0.048-7e-3 0.167 0 0-0.034-0.044-0.014-0.07 0.129l0.136 0.071c0.111-0.103 0.175-0.064 0.134 0.034l-0.034 0.099 0.136 0.102 0.033 0.034 0.033-0.068 0.099 0.068v0.1l0.138 0.1h1.78c0.127-0.034 0.442-0.224 0.535-0.168 0.162 0.089 0.217 0.138 0.506 0.136" fill="#0a4575" fill-rule="evenodd"/>
  </g>
  <g transform="matrix(6.0873 0 0 -6.0873 -131.42 -10.582)">
   <path d="m0 0h0.438v-0.1h0.034c0.072 0.025 0.068 0.021 0.169-0.032l-0.069 0.132h0.34l-0.037-0.066h0.037c0.099 0.112 0.682 0.05 0.803 0.066 0.046-0.098 0.611 4e-3 0.738 0v-0.703h-0.032c-0.051 0.062-0.029 0.045-0.134 0.066v-0.066l0.066-0.104h0.035l0.033 0.036c0.098-0.15 0.03-0.207-0.169-0.204-0.033-0.02-0.064-1e-3 -0.167 0-0.033-0.093-0.048-0.071-0.101-0.132 0.099-0.138 0.073-0.945 0.068-1.44-0.114-0.035-4e-3 -0.073 0-0.304l-0.068-0.136c-0.098 0-0.046 0.032-0.1 0l0.067-0.104 0.101 0.034v-0.704c-0.087-0.183 0.068-0.492 0.033-0.641l0.671-0.131c0.092 0.065 0.274 0.083 0.335 0.269 0.107 0.114 0.068 0.66 0.068 0.672-0.042 0.058-0.037 0.192-0.033 0.3l0.066-0.033c-0.096 0.291-0.131 1.749-0.033 2.253h-0.204v0.097h-0.199c0 0.132 0.015 0.213 0.033 0.306 0.046 0 0.12 0.084-0.033 0.098v0.471c0.245 0.132 0.791 0.104 1.278 0.1 0.069-0.032 0.173-7e-3 0.337 0v-0.975h-0.236l-0.167 0.071c0.07-0.091-0.027-0.168-0.071-0.339 0.09-9e-3 0.071-0.024 0.071-0.199h-0.035l0.035-0.035v-1.75c-4e-3 -0.225-6e-3 -0.273 0-0.468h-0.134v-0.034h0.031l0.103-0.032c-4e-3 -0.131-0.062-0.224-0.071-0.269v-0.066h0.071c0.051-0.155-0.015-0.301 0-0.405l-0.134-0.032h0.063v-0.071h-0.032l-0.031-0.099c-0.157-0.237-0.48-0.432-0.508-0.5-0.193-0.12-0.316-0.234-0.638-0.24 0.017 0.093-0.121 0.027-0.101 0h-0.57c-0.052 0.023-0.346 0.036-0.438 0.07-7e-3 -0.089-0.024-0.072-0.202-0.07-0.079 0.133-0.239 0.152-0.333 0.272l0.101 0.067 0.098 0.032c-0.123-4e-3 -0.257-0.049-0.267-0.032v0.164c-0.208-4e-3 -0.34 0.154-0.504 0.375l0.068 0.097c-0.112-0.01-0.13-0.053-0.134 0.136h0.066l0.1 0.032v0.036c-0.098 0.053-0.052 0.066-0.1 0.102l-0.066-0.07v0.503c0.061 0.072-0.024 0.42 0 0.672 0.032 0.354 2e-3 0.717 0 1.243v0.065c-5e-3 0.205 2e-3 0.42 0.032 0.576 0.122 0.055 0.122 6e-3 0.148 0.154l-0.038 0.035c-0.184 0.027-0.276-0.052-0.511 0.046l-0.037 0.67z" fill="#0a4575" fill-rule="evenodd"/>
  </g>
  <g transform="matrix(6.0873 0 0 -6.0873 -102.79 -10.582)">
   <path d="m0 0c0.357-0.029 0.978-0.024 1.379 0 0-0.011 0.093-7e-3 0.303 0 0.019-7e-3 0.186-4e-3 0.3 0v-0.739c0.09-0.293 0.246-0.524 0.305-0.769l0.23-0.574c-0.029-0.061-0.02-0.099 0.073-0.133 0.025-0.032 0.18-0.377 0.199-0.471-0.097 0-0.046 0.035-0.099 0l0.033-0.067h0.033l0.066 0.067c0.076-0.356 0.282-0.623 0.372-0.975h0.034c-5e-3 0.127-0.018 0.327 0.032 0.405v-0.036l0.066-0.098v0.098c-0.158 0.126-0.088 0.584-0.098 0.706l0.098 0.039c-0.16 0.098-0.103 1.565-0.098 1.572-0.161-0.036 1e-3 0.012-0.169 0.037-0.053-0.037-0.139-0.037-0.237-0.037 8e-3 0.182 0.046 0.404 0 0.404 4e-3 0.326 0.057 0.361 0 0.571h0.536c0.058-0.066 0.042 0.025 0.071-0.066h-0.035l0.035-0.034c0.049 0.025 3e-3 4e-3 0.098 0v0.068l-0.03-0.034-0.035 0.066h0.201c0.066-0.024 0.428-4e-3 0.604 0v-0.975h-0.235c-0.112-0.166-0.142-0.313-0.136-0.637v-0.641l-0.033-0.03c-0.118 4e-3 -0.086 0.017-0.167 0l0.069-0.034c0.039-0.023 0.032-8e-3 0.131 0 6e-3 -0.561-0.038-1.359 0-1.713l-0.099-0.032 0.066-0.034 0.033-0.168-0.131-0.036v-0.066h0.032l0.066 0.066 0.033-0.168c-0.024-0.046 0-0.201 0-0.333h-0.064c0 9e-3 0.072-0.05 0.064-0.642-0.158-5e-3 -0.436-0.028-0.538 0.036 0.06 0.019-0.257-0.095-0.403 0l-0.067-0.036h-0.298c-5e-3 0.437-0.373 1.063-0.54 1.413 0.105 0 0.022 0.113 0 0.134l-0.035-0.101v0.066c-0.081 0.1-0.134 0.264-0.166 0.404l0.065 0.067c-0.141 6e-3 -0.561 0.868-0.5 1.077-0.099 0-0.015-0.03-0.102 0.033v0.067l0.067 0.03c0 0.015-0.032 0.067-0.136 0.038-0.013 0.124-0.065 0.255-0.134 0.333v-0.939c-0.01 0-0.037 0.025 0-0.166h-0.035c-0.032 0.019-0.223-0.061 0.035-0.07v-0.199l-0.067-0.069c0.041-0.054 0.061 0.016 0.067-0.165-0.03-0.039-4e-3 -0.411 0-0.642h-0.067l0.067-0.168h0.036l0.031 0.036c0.412-0.25 0.354-0.401 0.337-1.109-0.138-0.102-0.726-0.07-1.074-0.07-0.087 0.043-0.29 0.011-0.439 0 0 0.407 0.024 0.757 0 1.009h0.202c0.06 0.096 0.099 0.143 0.237 0.17l0.101-0.102v0.066c-0.134 0.051-0.141 0.115-0.136 0.303h0.068l0.068-0.065v0.032l-0.035 0.099c0.079 0.039-0.023 0.077-0.101-0.031v0.335l0.068 0.064c-0.117 0.025-0.073 0.599-0.068 0.844 0.059 0.114 2e-3 0.687 0 0.905 0.112 0.021 0.16 0.025 0.166 0.034l-0.03 0.066c-0.044-3e-3 -0.044-0.035-0.136-0.066v0.369l-0.136 0.436c-0.053-9e-3 -0.129 3e-3 -0.268 0z" fill="#0a4575" fill-rule="evenodd"/>
  </g>
  <g transform="matrix(6.0873 0 0 -6.0873 -75.186 -10.582)">
   <path d="m0 0h1.008v-0.066c-0.027-0.034 0.096-0.083 0.068 0.034l-0.033 0.032h0.405c0.224-0.081 1.086 0.114 1.309-0.066 0.099 0.072 0.246 0.07 0.434 0.066l-0.03-0.132h0.03v0.032l0.069-0.032-0.032 0.132h0.536v-0.401l-0.101-0.034 0.069 0.034v-0.034l0.032-0.105-0.101-0.063c0.138-6e-3 0.109-0.032 0.101-0.235l-0.032-0.066-0.069 0.066v-0.066h0.032c0.073-0.093 0.073-0.452 0.069-0.74v-0.105h-0.573c0.02 0.153 0.051 0.121 0.069 0.272-0.115 0.306-0.331 0.45-0.604 0.502 7e-3 -0.241-0.037-0.753 0-1.041v-1.374c-0.1 0.018-0.107 0.065-0.171-0.034h0.134l0.037-0.139c-0.065-0.071-0.011-0.075 0-0.268h-0.037l-0.03-0.029 0.067-0.071-0.067-0.066c0.092-0.015 0.076-0.112 0.067-0.303l0.067-0.102h-0.034l-0.167-0.032c0.222-0.031 0.435-0.034 0.435 0h0.234v-0.336h-0.03c-0.016 0.037 0.052-0.327 0.03-0.637h-0.602c-0.012 0.045-0.527-0.111-0.739 0.034l0.07 0.034-0.035 0.032h-0.103v-0.1h-0.267c2e-3 0.097 0.032 0.049 0 0.1-0.117-0.191-0.784-0.093-0.909-0.1v0.236h0.036l0.098-0.068v0.068l-0.035 0.031-0.032-0.031-0.031 0.067c-0.081 0.121-0.04 0.484-0.036 0.67 0.312 2e-3 0.426 0.054 0.573-0.034v0.136c-0.046 0.068-0.039 0.221-0.033 0.335h0.033l0.068-0.033 0.033 0.033c-0.123 0.062-0.136 0.08-0.134 0.268l0.066 0.502 0.068-0.029-0.033 0.099-0.068-0.07c-0.015 0.136-0.022 0.274-0.033 0.406l0.066 0.068c-0.11 0.018-0.074 0.381-0.066 0.604 0.083 0.013 0.048-0.019 0.066 0.102-0.118 0.104-0.074 0.519-0.066 0.736 0.092 0 0.108-0.018 0.134 0.138h-0.134v0.066c0.121 5e-3 0.029 0.11-0.103 0.132l-0.303-0.132c9e-3 -0.109 0.027-0.208-9e-3 -0.272-0.083-0.121-0.102-0.095-0.133-0.163 0.119-0.07 0.123-9e-3 0.133-0.207-0.257 0-0.486 7e-3 -0.731 0-5e-3 0.287 0.039 0.609 0 0.609 0.035 0.244-5e-3 0.671 0 1.14" fill="#0a4575" fill-rule="evenodd"/>
  </g>
  <g transform="matrix(6.0873 0 0 -6.0873 -24.455 -10.582)">
   <path d="m0 0h0.134c0-0.106-0.039-0.079 0.1-0.1 3e-3 0.125-0.044 0.082 0.102 0.1 0.188-0.132 0.39 0.105 0.603 0v-0.066l0.168-0.034-0.066 0.1h1.274v-0.975c-0.116 5e-3 -0.188 0.048-0.2 0.037-0.03-0.066-0.03-0.132-0.1-0.235h0.035l0.134 0.066v-0.066c0.079-0.088 0.052-0.119 0.033-0.238-0.088-0.011-0.047 0.028-0.069-0.066l0.036-0.031 0.167 0.097c0.025-0.104 0.069-0.17 0.135-0.233l-0.07-0.136c0.166-0.011 0.171-0.034 0.204-0.168l0.035 0.066 0.101 0.102c0.037-0.025 0.079 0.023 0.032 0.136l0.169 0.065-0.07 0.102c0.092 0.073 0.112 0.196 0.204 0.266 0.035 0.027 0.134 0.254 0.015 0.277-0.047-0.082-0.042-0.011-0.149-0.041v0.975c0.011 0 0.31-4e-3 0.603 0v-0.066h0.066c0.107 0.036 0.349 0.066 0.642 0.066 0.064-0.09 0.064-0.233 0.064-0.501l-0.064-0.07v-0.032l0.064 0.063v-0.267h-0.132l0.132-0.168c-0.171-9e-3 -0.197-0.075-0.266-0.065l-0.024 0.087h-0.067v-0.031c0.047-0.09 0.021-0.086 0.052-0.187-0.123-0.208-0.612-0.988-0.8-1.376l-0.07 0.027v-0.027l0.032-0.073c-0.046-2e-3 -0.093-0.074-0.135-0.231h-0.062l-0.07-0.07 0.035 0.032 0.035-0.064-0.138-0.104c0.05-0.064 0.062-0.121 0.068-0.235-0.109-0.028-0.05 0.017-0.101-0.064h0.101v-0.236h-0.101c0 0.045-0.024-0.044 0.101-0.069v-0.671c0.16-0.108 0.263-0.138 0.57-0.136v-0.499h-0.035l-0.033 0.063v-0.134c0.11-0.066 0.068-0.299 0.068-0.405-0.335-9e-3 -0.498 0.032-0.638 0.07-0.015-0.093-0.083-0.075-0.267-0.07-0.044 0.059-0.233 0.011-0.439 0l0.036 0.104h-0.101v-0.104c-0.149 0.085-1.035 2e-3 -1.213 0 5e-3 0.159 0.033 0.172 0.069 0.272-0.084 8e-3 -0.057-0.016-0.069 0.133v0.57h0.106c0.07-0.061 0.131-0.01 0.335 0 0.128 0.161 0.173 0.209 0.167 0.537h0.033l0.169 0.1-0.034 0.07-0.168-0.07v0.441c0.096 0.063 0.072 0.083 0.033 0.134-0.081 0.11-0.046 0.233 0 0.303-0.132 0.051-0.257 0.267-0.27 0.267 0 0.01-0.193 0.276-0.232 0.403l-0.07 0.068v0.031c-0.092 0.1-0.136 0.245-0.235 0.336 0.035 0.095-3e-3 0.131-0.033 0.068v0.031c-0.143 0.157-0.276 0.416-0.368 0.609l0.067 0.068c-0.021-2e-3 -0.212 0.036-0.346 0.075 0 0.167-0.015 0.356-0.024 0.528 0.211 0.134 0.088 0.182 0.068 0.097h-0.068z" fill="#0a4575" fill-rule="evenodd"/>
  </g>
  <g transform="matrix(6.0873 0 0 -6.0873 -101.8 -44.035)">
   <path d="m0 0 0.035-0.102c0.133-0.095 0.365-0.063 0.438-0.231 0.073-0.113 0.033-0.404 0.033-0.571 0-0.477 0.051-1.062-0.033-1.479-0.156-0.057-0.314-0.112-0.473-0.166v-0.105h1.85l-0.035 0.105c-0.161 0.109-0.402 0.048-0.434 0.298-0.066 0.104-0.035 0.38-0.035 0.539 0 0.465-0.048 1.041 0.035 1.447 0.157 0.052 0.311 0.109 0.469 0.163v0.102z" fill="#654f2d" fill-rule="evenodd"/>
  </g>
  <g transform="matrix(6.0873 0 0 -6.0873 -82.57 -44.035)">
   <path d="m0 0 0.035-0.102c0.312-0.215 0.495 0.043 0.47-0.569-0.081-0.134-0.025-0.328-0.066-0.499-0.082-0.404-0.156-0.809-0.235-1.213-0.151-0.061-0.393-0.093-0.436-0.271h1.44v0.105c-0.141 0.025-0.405 0.086-0.469 0.199-0.109 0.191 0.118 1.121 0.136 1.412l0.099-0.034c0.269-0.303 0.484-0.821 0.674-1.177 0.136-0.257 0.09-0.505 0.502-0.505 0.159 0.647 0.627 1.212 0.911 1.784h0.098c0.057-0.5 0.162-0.955 0.169-1.513-0.156-0.057-0.311-0.112-0.47-0.166v-0.105h1.812l-0.033 0.105c-0.171 0.122-0.408 0.054-0.435 0.336-0.171 0.256-0.266 1.481-0.269 1.948 0.156 0.052 0.311 0.109 0.469 0.163v0.102h-1.341c-0.161-0.367-0.371-0.743-0.575-1.072-0.109-0.175-0.086-0.4-0.336-0.438-0.107 0.386-0.421 0.759-0.604 1.109l-0.165 0.401h-0.339c-0.209-0.134-0.752-4e-3 -1.042 0" fill="#654f2d" fill-rule="evenodd"/>
  </g>
  <g transform="matrix(6.0873 0 0 -6.0873 -48.204 -44.035)">
   <path d="m0 0v-0.102c0.157-0.041 0.312-0.085 0.471-0.131 0.019-0.059 0.028-0.109 0.035-0.204 0.065-0.104 0.03-0.372 0.03-0.535 0-0.468 0.023-0.997-0.03-1.411-0.167-0.03-0.465-0.107-0.506-0.271h2.989c0.014 0.271 0.021 0.541 0.033 0.808h-0.133c-0.06-0.138-0.159-0.381-0.303-0.437-0.151-0.098-0.953-0.036-1.208-0.032-0.011 0.272-0.034 0.59-0.034 0.904 0.275 2e-3 0.806 0.082 1.008-0.031 0.172-0.1 0.083-0.323 0.333-0.372v1.111l-0.099-0.034c-0.067-0.113-0.136-0.226-0.201-0.335h-1.041c-3e-3 0.261 0.019 0.518 0.034 0.739h1.208c0.07-0.161 0.153-0.382 0.371-0.404v0.737z" fill="#654f2d" fill-rule="evenodd"/>
  </g>
  <g transform="matrix(6.0873 0 0 -6.0873 -168.69 -37.769)">
   <path d="m0 0-0.051-0.014-2e-3 0.039 0.053-0.025m1.773-0.08c-0.077 0.211-0.234 0.139-0.294 0.252l-0.024-0.047-0.055-5e-3 -2e-3 9e-3c-0.16-0.029-0.184-0.059-0.252-0.167-0.478 0.063-0.443 0.352-0.662 0.625v0.086l-0.072-0.043 4e-3 -4e-3 -0.099-0.043c-0.28-0.023-0.716-0.1-0.929 0.09h-0.033c0.046-0.224 0.143-0.315 0.244-0.417l0.042-0.041 0.039-0.043 2e-3 2e-3 0.13-0.087h-0.021l0.088-0.038 0.017-6e-3c-0.183-0.111-0.385 0.084-0.514 0.05l-0.07 0.041 6e-3 0.038c-0.221 0.12-0.322 0.316-0.513 0.458l-0.035 0.043v-0.015l-4e-3 0.011-0.031-0.062c-0.096-0.087-0.068-0.226-0.075-0.397-0.346 0-0.596-0.061-0.879-0.081v-0.05l-0.1-0.034c-0.183 0.032-0.367-0.163-0.59-0.208l0.024-0.055-0.024-0.011 0.044-0.023c0.063-0.095 0.155-0.122 0.252-0.129l0.259-0.111c0.07-0.125 0.747-0.182 1.014-0.173-0.013-0.168-0.028-0.296 0.07-0.419v-0.04l0.029 8e-3 7e-3 -9e-3 0.017 0.02 0.097 0.105h0.037v0.067l0.024 0.028 0.158 0.154c0.098 0.086 0.193 0.149 0.283 0.193 0.148 0.052 0.331 0.1 0.482 0.104v0.017h0.027c-0.078-0.127-0.211-0.133-0.319-0.228-0.072-0.124-0.142-0.252-0.217-0.374v-0.085c0.108 0.053 0.156 0.07 0.189 0.094l0.192 0.044c0.202-0.093 0.52-5e-3 0.676-0.138l0.035 0.024 0.013-9e-3 0.014 0.031c0.072 0.078 0.085 0.196 0.122 0.304 0.052 0.1 0.11 0.172 0.184 0.232l0.25 0.125 9e-3 4e-3c0.136-0.03 0.164-0.059 0.234-0.166h0.127l0.055-2e-3 0.206 0.073c0.167 0.082 0.257 0.226 0.112 0.428" fill="#217444"/>
  </g>
  <g transform="matrix(6.0873 0 0 -6.0873 2.8062 -36.209)">
   <path d="m0 0v0.023h5e-3 -5e-3v0.07l-0.061-0.029-0.046 0.029v0.045c-0.458 0.161-0.827 0.392-1.471 0.37 0.016 0.096 7e-3 0.09 0.035 0.143l-0.033 0.04-0.035 0.162-4e-3 0.029v0.094l-0.06 0.023-4e-3 0.013-6e-3 -9e-3 -0.042 0.02c-0.228-0.454-0.538-0.48-0.844-0.741h-0.257c0.105 0.108 0.27 0.151 0.369 0.274 0.078 0.102 0.103 0.269 0.184 0.373v0.094c-0.254-0.136-0.828-0.247-1.068 0-0.088-0.06-0.026 0.021-0.072-0.094h-0.035l0.021-0.081-0.028-0.082c-0.097-0.077-0.271-0.319-0.322-0.471l-0.025-0.016-0.144-0.061c-0.16 0.03-0.182 0.059-0.252 0.168l-0.206-0.01-0.12-0.033c-0.162-0.068-0.22-0.2-0.192-0.345l0.077-0.191 0.108-0.129 0.103 2e-3 0.055-5e-3 0.175 0.048v-5e-3h0.042l0.024 0.051 0.07 0.106c0.092-0.025 0.167-0.058 0.237-0.095 0.195-0.189 0.349-0.431 0.412-0.754 0.129 0.041 0.41 0.176 0.638 0.166l0.01-2e-3 0.196-0.07 0.048 0.029 0.101-0.029 0.02-0.011 0.102-0.046-0.032 0.097 0.02 0.051c-0.078 0.084-0.136 0.199-0.182 0.322l-0.084 9e-3 -0.149 0.123-0.101 0.058v0.046c0.174-7e-3 0.391-0.089 0.516-0.102l0.234-0.168c0.123-0.136 0.276-0.32 0.351-0.473h0.048v-2e-3h2e-3l0.025 2e-3c0.037 0.123 0.074 0.246 0.109 0.371l-0.035 0.039-0.016 0.119 0.16-0.017c0.254-0.021 0.511 0.023 0.713 0.127 0.085 0.029 0.184 0.067 0.281 0.115v-0.011l0.039 0.025 0.07 0.032 2e-3 -0.012c0.102 0.054 0.213 0.095 0.287 0.179l0.012 7e-3z" fill="#217444"/>
  </g>
  <g transform="matrix(6.0873 0 0 -6.0873 1.6885 -20.028)">
   <path d="m0 0 0.02 0.057c-0.213 0.086-0.492 0.07-0.781 0.058l-0.806 0.021-0.012 5e-3c-0.153 0.038-0.346 0.033-0.513 0.013l-0.491 0.014-0.227 0.015-0.069-4e-3 -1.014 0.027c-0.211 0.016-0.402 0.034-0.511 0.06-0.312 0.069-0.75 0.012-1.122-0.014l-0.5 0.018-0.113 0.036h-1.002l7e-3 -4e-3 -0.1 2e-3v0.045h-0.316v-0.032l-0.69 0.018c-0.702 0.08-1.539 0.096-2.23 0.096h-1.048c-0.228-0.089-0.112-0.231-0.591-0.248-0.139 0.129-0.294 0.173-0.365 0.377-0.329-0.082-0.863-0.36-1.382-0.404h-0.018c-0.195 0-0.408 0.035-0.614 0.093l-0.178 0.1-0.022-0.037-0.068 0.023v0.014c-0.118 0.057-0.28 0.177-0.41 0.184l-0.094 0.055 2e-3 0.054-0.134 0.041-0.183-0.165h-0.088l0.044-0.038-0.031-0.015-0.061 0.011c-0.276-0.054-0.542-0.238-0.912-0.293l9e-3 -0.015-0.035-2e-3 -0.018 0.017-0.037-0.022-0.119-5e-3c-0.11 0-0.217 0.01-0.326 0.025-0.402 0.08-0.906 0.279-0.978 0.379h-0.09c-0.09-0.159-0.241-0.233-0.331-0.367l-0.121-0.032c-0.099 0.022-0.16 0.032-0.224 0.026l-0.078 0.035 0.024 3e-3v0.041c-0.122 0.038-0.118 0.04-0.182 0.124h-0.056l-0.03 0.039-0.131-5e-3 -0.013 7e-3h-0.592l0.026-0.021h-0.072l2e-3 0.021c-0.633 6e-3 -1.464 0.041-2.054-0.082l-0.019-5e-3 -0.298-4e-3c-0.125 4e-3 -0.248 0.016-0.347-0.013l-0.426-0.01c-0.512 0.039-1.49 0.048-1.735-0.011-0.151-0.034-0.308-0.049-0.47-0.057l-0.081-2e-3c-0.523-9e-3 -1.09 0.075-1.592-0.022-0.15-0.032-0.468 0.047-0.685 0-0.359-0.082-0.888 6e-3 -1.32-0.042-0.413-0.047-0.997-0.042-1.55-0.042l7e-3 -0.048-0.134-0.075c0-0.054 0.156-0.081 0.309-0.081l0.187-5e-3c0.363-0.072 0.929-0.139 1.135-0.044l5e-3 8e-3 0.223-8e-3 0.044-0.038c0.291-0.011 0.578-0.068 0.708 0.019l0.153-7e-3 4e-3 -0.012c0.036 0 0.128 6e-3 0.252 6e-3l1.511-0.042c0.123-0.016 0.213-0.03 0.246-0.049h0.638l-0.026 0.019h0.093l-0.023-0.019c0.171 0 0.354 2e-3 0.543 4e-3l1.245-0.036c0.123-0.012 0.244-0.03 0.355-0.053 0.553-0.108 1.252 0.055 1.686-0.04 0.399-0.091 0.844-0.03 1.226-7e-3l0.506-0.01 0.094-0.026c0.116-3e-3 0.197 0 0.261 0.013l0.109-2e-3 0.069 0.085 0.061 0.062 0.118 0.075c0.15-0.065 0.601 0.113 0.75-0.358 0.272 0.109 0.441 0.295 0.818 0.335l-7e-3 0.022c0.092 0.019 0.193 0.031 0.301 0.04 0.269-0.044 0.644-0.085 0.852-0.059l0.272-0.077c0.171-0.125 0.394-0.244 0.579-0.298l0.054-0.05 0.077 0.059c0.196 0.062 0.561 0.236 0.708 0.334l0.128 0.036v-7e-3c0.179 7e-3 0.521 9e-3 0.738 0.07l0.228-0.021c0.296-0.171 0.689-0.114 0.904-0.384l0.032 0.034 0.012-0.01 0.023 0.042c0.417 0.38 0.639 0.28 0.949 0.155l0.071-0.085 0.147 2e-3c0.223-0.07 0.506-0.109 0.909-0.013 0.384 0.092 0.901-0.082 1.412 0.043 0.384 0.089 0.978-0.066 1.414 0.04 0.353 0.085 1.278 0 1.411 0.041l0.171 0.048 0.805 0.02c0.149-0.034 0.296-0.06 0.437 0.014l0.028 4e-3c0.289-0.011 0.859-0.042 1.052 0.03l0.945 0.025c0.283 0 0.57 0.015 0.761-0.012l-0.018 0.034 0.125 4e-3h0.576v0.017l0.414 0.013c0.288-0.047 0.648-0.075 0.863 0.055l0.021 0.025z" fill="#217444"/>
  </g>
  <g transform="matrix(6.0873 0 0 -6.0873 -147.17 -42.005)">
   <path d="m0 0c0.316 0.011 0.477-8e-3 0.737-0.068 0.092-0.157 0.164-0.24 0.169-0.503l-0.07-0.167c-0.211-0.128-0.421-0.201-0.772-0.203-0.084 0.12-0.105 0.203-0.101 0.436 0.055 0.058 0.017 0.327 0.037 0.505m-1.348 0.333 0.036-0.101c0.207-0.145 0.442-0.022 0.438-0.399 0.072-0.116-0.018-0.34 0-0.438 0.055-0.356 0.055-1.005 0-1.444-0.156-0.057-0.313-0.112-0.474-0.167v-0.104h1.848v0.104h-0.065c-0.092 0.073-0.261 0.112-0.402 0.132-0.019 0.311-0.05 0.474-0.033 0.841 0.711-0.027 1.351 9e-3 1.643 0.406 0.109 0.137 0.264 0.415 0.1 0.633-0.175 0.552-1.219 0.647-1.881 0.508-0.401 0.012-0.804 0.021-1.21 0.029" fill="#654f2d" fill-rule="evenodd"/>
  </g>
  <g transform="matrix(6.0873 0 0 -6.0873 -122.02 -36.676)">
   <path d="m0 0c-3e-3 0.309 2e-3 0.653 0.032 0.912 0.292 0.023 0.726 0.042 0.875-0.172 0.451-0.554-0.445-0.758-0.907-0.74m-1.31 1.209 0.034-0.102c0.105-0.079 0.318-0.113 0.436-0.163 0.074-0.649 7e-3 -1.466 0-2.118-0.184-0.017-0.318-0.105-0.47-0.166v-0.105h1.847v0.105c-0.621 0.113-0.531 0.358-0.505 1.072h0.371c0.206-0.344 0.504-0.653 0.739-0.973l0.1-0.204h0.303c0.186 0.121 0.609 8e-3 0.84 0l-0.033 0.105-0.27 0.099c-0.149 0.098-0.75 0.908-0.771 1.107 0.236 0.03 0.471 0.205 0.535 0.404 0.146 0.179 0.014 0.436-0.034 0.605-0.135 0.087-0.265 0.212-0.436 0.268-0.349 0.114-1.054 0.116-1.442 0.036-0.108-0.024-0.25 0.023-0.305 0.03-0.101-9e-3 -0.199-0.018-0.3-0.03-0.209 0.025-0.377 0.036-0.639 0.03" fill="#654f2d" fill-rule="evenodd"/>
  </g>
  <g transform="matrix(6.0873 0 0 -6.0873 -142.66 7.5998)">
   <path d="m0 0c-0.131 0.023-0.083 0.032-0.169 0.034l-0.032 0.032c-0.012-0.211-0.031-0.393 0.1-0.469-0.059-0.092 0-0.047-0.1-0.034-5e-3 -0.284 0-0.31 0.136-0.407v-0.132h-0.136c0.014-0.121-0.021-0.085 0.07-0.133-0.024-0.121-0.026-0.116-0.103-0.168l0.065-0.068v-0.136l-0.065 0.102c-0.307-0.102-0.502-0.161-0.739 0.034l-0.098 0.068h-7e-3 0.037c9e-3 0.256 0.021 0.513 0.033 0.774-0.044 0-0.121 0.051 0 0.066l-0.07 0.099v0.098l0.037-0.098h0.033c-0.012 0.122 0 0.113-0.07 0.168l0.037 0.066 0.033-0.034c9e-3 0.246 0.068 0.428-0.098 0.439-0.049 0.091-9e-3 0.241 0.028 0.138h0.07v0.799l-0.098 0.034h-0.039c0.047 0.098 0.047 0.043 0.137 0.035v0.301l-0.098-0.032h-0.039c0.178 0.175 0.062 0.177 0.172 0.339l0.2 0.133c0.125-0.014 0.247-0.025 0.368-0.036 0.125-0.041 0.12-0.129 0.236-0.132l-0.032-0.066v-0.977l0.1 0.068-0.068-0.068c-0.057-0.165-0.063-0.604 0-0.701 0.044-0.098 0.044-0.05 0.137-0.038l0.032-0.064zm1.342-1.01 0.102 0.1c-0.03 0.139-0.051 0.073-0.135 0.136 0.045 0.098 0.045 0.044 0.135 0.032-0.012 0.137-0.058 0.84 0 0.941 7e-3 0.24-0.012 0.308-0.135 0.405-0.046-0.084-0.038 0.024-0.066-0.067v0.167c0.123-0.044 0.077-0.065 0.167-0.067l0.034-0.033c5e-3 0.489 5e-3 0.979 0 1.478-0.124 0.145-0.247 0.291-0.368 0.436l-0.037-0.134-0.03 0.031c-0.042 0.098-0.156 0.225-0.136 0.236-0.051 0.148-0.246 0.268-0.403 0.304-0.038 0.038-0.514 0.097-0.601-0.068l-0.038 0.1h-1.512c-0.133-0.043-0.267-0.197-0.401-0.268l0.065-0.068c-0.039-0.152-0.137-0.066-0.236-0.133-0.077-0.055-0.105-0.123-0.235-0.2v-0.07c0.107-0.089 0.033-0.152 0-0.032h-0.066l-0.134-0.168c-0.01-0.224-0.012-0.377 0.101-0.472-0.055-0.089 5e-3 -0.032-0.101-0.032v-1.544c-3e-3 -0.265-0.043-1.32 0.069-1.313l0.032-0.032c-0.059-0.087-2e-3 -0.048-0.101-0.034l0.032-0.136 0.102 0.034c0.106-0.05 0.042-0.018 0.035-0.136l0.134 0.038c0.083-0.047 0.042 5e-3 0.069-0.104-0.132-0.025-0.086-0.029-0.172-0.033 0.081-0.221 0.318-0.312 0.438-0.5 0.084 0.048 0.038-0.014 0.069 0.099h0.033l0.035-0.036-0.068-0.063c0.068-0.098 0.167-0.172 0.3-0.204 0.057-0.039 0.168-0.039 0.272-0.036l0.063 0.036h0.069v-0.036c0.269 8e-3 0.269 0.027 0.269 0 0.305-5e-3 0.638 0.011 0.638 0 0.206-5e-3 0.412 0.05 0.471 0 0.261-0.019 0.339-0.06 0.335 0.136 0.085-0.05 0.038 8e-3 0.069-0.1 0.099 0.057 0.201 0.11 0.302 0.168v0.067c-0.127 0.062-0.013 0.053 0 0 0.153 0.053 0.209 0.184 0.336 0.268l-0.067 0.034c0.056 0.137 0.047 0.035 0.132 0.1 0.134 0.161-0.035 0.065 0.171 0.135l0.065 0.201c0.012 0.231 0.056 0.437-0.102 0.437" fill="#0a4575" fill-rule="evenodd"/>
  </g>
  <g transform="matrix(6.0873 0 0 -6.0873 -34.674 2.2972)">
   <path d="m0 0h-0.102c-0.017-0.091-8e-3 -0.186-0.032-0.234l-0.101-0.033 0.033 0.129c-0.125-0.023-0.298-0.033-0.469-0.029v0.369c-0.097-9e-3 -0.147 0.189-0.068 0.066h0.068v0.537l-0.037-0.068h-0.099c0.048 0.068 0.043 0.075 0.136 0.102-7e-3 0.279 0.011 0.363 0.03 0.302 0.119 0.011 0.115 3e-3 0.169 0.07 0.125-0.04 0.303-0.125 0.404-0.202v-0.674l0.033-0.101h-0.067v-0.102c0.102-0.01 0.051-0.01 0.134 0l-0.032-0.132m1.782-2.899 0.03 0.111c2e-3 5e-3 0.038 0.254 0.034 0.436-0.24 0.016-0.299 0.098-0.437-0.034h-0.033v0.068c0.063 0.045 0.026 0.045 0.134 0.068l-0.134 0.134v0.033l0.066-0.033v0.807l-0.103-0.036 0.103 0.104c0 0.111-8e-3 0.198-0.033 0.266-0.098 2e-3 -0.048 0.025-0.102 0-0.141 0.049-0.069 2e-3 -0.065 0.138l-0.168 0.064-0.101-0.032v0.032l0.031 0.038 0.037 0.029-0.104 0.068-0.1-0.068c-0.037 0.102-0.079 0.175-0.201 0.202 0.028 0.078 0.506 0.327 0.703 0.366 7e-3 0.17 0.037 0.469-0.032 0.574h-0.065l0.097 0.067c0 0.113-7e-3 0.25 0 0.272v0.301c0.011 0.679-0.437 0.659-0.703 1.04-0.183-0.011-0.294-0.064-0.334 0-0.166-0.03-0.081-0.048-0.136-0.1h-0.166c-0.033 0.055-5e-3 4e-3 0 0.1-0.132-0.011-0.123-7e-3 -0.134-0.032v-0.034l-0.068 0.034v-0.034l-0.033-0.034c0.105-0.011-0.017-0.025-0.035 0-0.068 0.066-0.092-0.038-0.168 0.1h-1.614l0.034-0.1c-0.166 0.144-0.345 0.042-0.502 0.068-0.058-0.156-0.032-0.354 0.03-0.469l-0.067 0.031c0-0.106-2e-3 -0.213 0.037-0.269v-0.032h-0.037v-0.204h0.303c0.042-0.073 0.074-0.107 0.101-0.198 0.084-0.166 5e-3 -0.542 0-0.811 0.132 0.036 0.169 0 0.169 0l-0.169-0.132c0.015-0.184 0.068-0.254 0-0.305v-0.468c0.114-0.014 0.11-0.026 0.169 0h0.068l-0.068-0.064c-0.062-0.034-0.062-0.011-0.169 0 0-0.218-0.035-1.288 0.068-1.379l-0.035-0.07c-0.013-4e-3 -0.292-0.104-0.437-0.131v-0.911c0.162 0.012 0.203 0.087 0.238 0 0.12 0.02 0.087-0.013 0.1 0.071l0.066-0.035v0.035c0.094-0.026 0.054 0.023 0.068-0.071h0.572l-0.035 0.036 0.101 0.101v-0.066c0.028-0.064 0.046 0.027 0.035-0.071h1.109c2e-3 0.114 9e-3 0.243-0.035 0.304-9e-3 -0.011-0.057 0.074 0.035 0.068v0.369l-0.035 0.067 0.035 0.168c-0.219-2e-3 -0.258 0.024-0.368 0.102 4e-3 0.27 0.066 0.789-0.068 0.941v0.035l0.068-0.035c-0.026 0.09-0.04 0.096-0.037 0.132v0.102c0.118-0.021 0.497-0.021 0.565-0.036 0.182-0.03 0.252-0.144 0.268-0.336-0.125-0.188 6e-3 -0.801 0.011-1.073h0.09v-0.034h-0.09v-0.068c0.181-0.166 0.269-0.431 0.493-0.635l0.48-0.035c0.103-0.067 0.528-0.04 0.737-0.036v0.34c-0.104 0.014-0.053 0.089-0.064 0.089" fill="#0a4575" fill-rule="evenodd"/>
  </g>
 </g>
</svg>
