<svg width="800" height="265.84" version="1.1" xmlns="http://www.w3.org/2000/svg">
 <defs>
  <linearGradient id="linearGradient11127" x2="1" gradientTransform="matrix(0 84.68 84.68 0 486 698.1)" gradientUnits="userSpaceOnUse">
   <stop stop-color="#e72e2f" offset="0"/>
   <stop stop-color="#bb2435" offset="1"/>
  </linearGradient>
  <linearGradient id="linearGradient11147" x2="1" gradientTransform="matrix(0 -68.319 -68.319 0 486.19 769.66)" gradientUnits="userSpaceOnUse">
   <stop stop-color="#e72e2f" offset="0"/>
   <stop stop-color="#bb2435" offset="1"/>
  </linearGradient>
  <clipPath id="clipPath11159">
   <path d="m378 681.73h216v90.269h-216z"/>
  </clipPath>
  <linearGradient id="linearGradient11359" x2="1" gradientTransform="matrix(0 84.68 84.68 0 486 698.1)" gradientUnits="userSpaceOnUse">
   <stop stop-color="#ef7779" offset="0"/>
   <stop stop-color="#d3727d" offset="1"/>
  </linearGradient>
  <linearGradient id="linearGradient11379" x2="1" gradientTransform="matrix(0 -68.319 -68.319 0 486.19 769.66)" gradientUnits="userSpaceOnUse">
   <stop stop-color="#ef7779" offset="0"/>
   <stop stop-color="#d3727d" offset="1"/>
  </linearGradient>
  <clipPath id="clipPath11391">
   <path d="m378 681.73h216v90.269h-216z"/>
  </clipPath>
  <clipPath id="clipPath11431">
   <path d="m378 681.73h216v90.269h-216z"/>
  </clipPath>
  <clipPath id="clipPath11463">
   <path d="m378 681.73h216v90.269h-216z"/>
  </clipPath>
  <clipPath id="clipPath11495">
   <path d="m378 681.73h216v90.269h-216z"/>
  </clipPath>
 </defs>
 <g transform="matrix(2.6667 0 0 2.6667 329.52 -488.66)">
  <g transform="matrix(1.1111 0 0 1.1111 -640.24 113.95)">
   <g transform="matrix(1.25 0 0 -1.25 -7.5 1027.4)">
    <path d="m409.05 770.31c-0.725 0-1.445-0.03-2.158-0.089l-3.651-3.589c1.875 0.475 3.817 0.727 5.809 0.727h153.76c9.549 0 13.966-3.815 15.837-5.538l-2.343-0.299c0.013-0.012 0.026-0.025 0.039-0.039 0.417 0.052 0.843 0.077 1.276 0.077 6.919 0 15.377-6.468 11.753-17.428l0.355 0.518c0.134-0.45 0.258-0.906 0.371-1.365 0.536-2.186 0.808-4.447 0.808-6.721 0-12.833-8.648-25.225-20.423-29.101l1.767-0.292-2.32 0.117c-0.049-0.015-0.099-0.03-0.147-0.045l8e-3 -0.011 2.074-1.295-1.805 0.844 1.348-2.119c12.954 4.27 22.452 17.763 22.452 31.902 0 2.609-0.193 4.711-0.801 7.24 0.504 1.433 0.93 3.2 0.941 5.202v0.159c-0.017 2.97-0.955 6.442-3.893 10.094-2.502 3.108-6.983 5.245-10.735 5.593-4.881 3.657-10.302 5.458-16.562 5.458zm-2.464-0.115-0.056-0.052 0.071 0.053c-4e-3 0-0.011-1e-3 -0.015-1e-3m-7.967-2.004 0.193-0.211 1.413-1.432-0.507 1.62 0.871-1.971c0.042 5e-3 0.087 8e-3 0.132 8e-3 0.023 0 0.046-1e-3 0.071-3e-3l0.206 2.189 0.049-2.224c0.039-8e-3 0.078-0.018 0.117-0.029l0.116 0.083 0.978 1.88-0.625-1.614 3.255 2.43 1.599 1.268c-2.737-0.267-5.377-0.954-7.868-1.994m-20.619-31.627c0-17.121 13.928-33.294 31.05-33.294h153.4l3.27 2.474 0.93 0.785c-1.257-0.201-2.54-0.307-3.845-0.307h-153.76c-15.493 0-28.096 14.85-28.096 30.342 0 11.879 7.409 23.644 17.847 28.488l-1.251 0.117 1.563 0.025c0.194 0.087 0.388 0.171 0.583 0.253l-1.856 0.981 1.642-0.626-1.561 2.087c-11.641-5.218-19.921-18.123-19.921-31.325m189.33-31.959 0.86 1.817-4.968-3.149c2.544 0.039 5.013 0.434 7.375 1.136l-0.884 1.156-0.188 0.224 0.33-1.442-0.641 1.813-0.266 0.306-0.384-2.245 0.111 2.391h-0.027c-0.029 0-0.059 1e-3 -0.089 4e-3zm-4.754-1.335h0.212l0.711 0.601z" fill="url(#linearGradient11127)"/>
   </g>
   <g transform="matrix(1.25 0 0 -1.25 -7.5 1027.4)">
    <path d="m409.05 765c-2.061 0-4.066-0.301-5.989-0.858l0.868-0.453-1.055 0.398c-0.158-0.047-0.314-0.096-0.47-0.146l1.801-2.408 1.978-2.5-0.585 0.64 1.128-1.506-5.115 5.196 0.439-1.413-0.714 1.616c-0.136-0.052-0.271-0.104-0.407-0.159l-0.157-1.68-0.047 1.597c-0.234-0.096-0.466-0.196-0.697-0.299l-0.515-1.009 0.359 0.938c-1.357-0.623-2.658-1.374-3.894-2.236l-1.378-1.029c-6.806-5.424-11.285-14.282-11.285-23.121 0-14.189 11.545-27.98 25.735-27.98h153.76c1.22 0 2.422 0.103 3.597 0.298l-0.404 0.255 0.505-0.238c0.226 0.039 0.454 0.081 0.678 0.127l-2.193 3.45-1.201 1.831 0.225-0.296-0.576 0.905 4.787-5.652c0.037 9e-3 0.074 0.018 0.111 0.027l-0.331 1.436 0.492-1.392c0.19 0.05 0.378 0.102 0.566 0.158l0.234 1.36-0.071-1.311c0.308 0.093 0.612 0.192 0.915 0.298l0.39 0.629-0.281-0.591c1.328 0.471 2.612 1.062 3.841 1.758l2.093 1.327-0.03-0.024c7.422 5.185 12.387 14.319 12.387 23.625 0 1.857-0.198 3.703-0.588 5.498l1.416 2.07c3.624 10.96-4.834 17.428-11.753 17.428-0.433 0-0.859-0.025-1.276-0.077-0.013 0.014-0.026 0.027-0.039 0.039l-1.175-0.15c-2.179 1.922-5.839 3.624-12.319 3.624z" fill="url(#linearGradient11147)"/>
   </g>
   <g transform="matrix(1.25 0 0 -1.25 -7.5 1027.4)">
    <g clip-path="url(#clipPath11159)">
     <g transform="translate(575.13 761.37)">
      <path d="m0 0c-2.179 1.922-5.839 3.624-12.319 3.624h-153.76c-14.19 0-25.734-14.24-25.734-28.431 0-14.19 11.544-27.981 25.734-27.981h153.76c14.19 0 25.735 13.791 25.735 27.981 0 1.856-0.199 3.702-0.589 5.498l1.771 2.587c0.134-0.45 0.258-0.905 0.37-1.364 0.537-2.186 0.809-4.448 0.809-6.721 0-15.493-12.603-30.342-28.096-30.342h-153.76c-15.492 0-28.096 14.849-28.096 30.342s12.604 30.794 28.096 30.794h153.76c9.549 0 13.966-3.816 15.837-5.538l-3.518-0.449" fill="#fff"/>
     </g>
     <g transform="translate(587.45 742.14)">
      <path d="m0 0c-3.616-3.786-10.253-3.314-14.828 1.054-4.572 4.368-5.35 10.979-1.735 14.763 3.616 3.787 10.254 3.314 14.827-1.053 4.574-4.37 5.351-10.979 1.736-14.764m-0.172 16.136c-4.133 4.131-10.002 5.206-14.233 2.949-0.786-0.419-1.516-0.954-2.168-1.605-1.709-1.709-2.612-3.956-2.745-6.351-0.011-0.198-0.017-0.397-0.018-0.597 0-0.141 4e-3 -0.284 9e-3 -0.426 0.013-0.385 0.046-0.772 0.097-1.16 0.043-0.317 0.099-0.635 0.167-0.953 0.15-0.7 0.36-1.399 0.633-2.087 0.138-0.346 0.097-0.368-0.211-0.206-2.705 1.449-5.8 2.261-9.083 2.261-3.277 0-6.358-0.812-9.069-2.25-0.206-0.11-0.359-0.188-0.214 0.178 1.63 4.097 1.071 8.632-1.861 11.562-3.463 3.461-9.132 3.621-13.762 0.749-0.207-0.128-0.41-0.262-0.613-0.402 4.059 2.165 8.793 2 11.984-0.816 3.759-3.318 4.133-9.216 1.194-14.033 3.098 2.158 6.865 3.425 10.927 3.425 10.57 0 19.139-8.569 19.139-19.14 0-5.791-2.571-10.98-6.634-14.49 0.137 0.096 0.274 0.193 0.41 0.294 4.765 3.524 7.856 9.187 7.856 15.569 0 3.323-0.83 6.427-2.31 9.181-0.043 0.081-0.16 0.273 0.164 0.139 0.845-0.348 1.704-0.6 2.563-0.758 0.559-0.104 1.118-0.168 1.673-0.191 0.672-0.028 1.338 2e-3 1.989 0.093 0.512 0.071 1.013 0.179 1.502 0.326 0.659 0.195 1.295 0.459 1.896 0.792 0.462 0.256 0.905 0.553 1.323 0.889 0.088 0.071 0.175 0.144 0.261 0.218 0.163 0.142 0.323 0.288 0.477 0.443 4.158 4.156 3.557 11.497-1.343 16.397" fill="#fff"/>
     </g>
     <g transform="translate(399.91 739.34)">
      <path d="m0 0c1.279 0 1.887 0.383 1.887 2.557 0 1.368-0.604 1.926-2.085 1.926h-0.539v-4.483zm1.887-16.081v8.41c0 1.615-0.577 2.188-2.205 2.188h-0.419v-10.598h-7.652v26.045h10.492c5.058 0 7.516-2.248 7.516-6.873 0-3.715-1.435-5.124-3.205-5.819 2.1-0.779 3.125-2.275 3.125-4.545v-8.808z" fill="#fff"/>
     </g>
     <g transform="translate(399.55 743.44)">
      <path d="m0 0h0.164c1.279 0 1.71-0.391 1.71-1.55 0-2.082-0.546-2.183-1.512-2.183h-0.362zm2.466 6.231h-10.868v-26.794h8.402v10.597h0.045c1.419 0 1.829-0.406 1.829-1.813v-8.784h8.402v9.183c0 2.155-0.853 3.661-2.596 4.559 1.497 0.844 2.676 2.433 2.676 5.804 0 4.877-2.581 7.248-7.89 7.248m-3.215-10.713h1.111c1.587 0 2.262 0.666 2.262 2.932 0 1.967-1.23 2.299-2.46 2.299h-0.913v-5.231m3.215 9.964c5.434 0 7.141-2.6 7.141-6.499 0-4.498-2.183-5.332-4.008-5.798v-0.067c2.221-0.5 3.928-1.632 3.928-4.498v-8.434h-6.903v8.035c0 1.697-0.635 2.563-2.579 2.563h-0.794v-10.598h-6.903v25.296h10.118" fill="#fff"/>
     </g>
     <g transform="translate(419.46 738.36)">
      <path d="m0 0c-1.022 0-1.133-0.974-1.133-1.393v-6.333c0-0.749 0.318-1.624 1.213-1.624 0.407 0 0.627 0.147 1.093 0.638v8.222c-0.263 0.235-0.647 0.49-1.173 0.49m-3.054-15.333c-3.411 0-4.937 3.235-4.937 6.44v8.033c0 4.091 2.111 6.839 5.254 6.839 1.985 0 3.195-1.285 3.91-2.577v2.245h6.859v-20.747h-6.859v2.468c-0.955-1.717-2.46-2.701-4.227-2.701" fill="#fff"/>
     </g>
     <g transform="translate(419.54 729.38)">
      <path d="m0 0c-0.619 0-0.838 0.673-0.838 1.249v6.333c0 0.675 0.255 1.018 0.758 1.018 0.33 0 0.591-0.132 0.798-0.29v-7.895c-0.374-0.379-0.498-0.415-0.718-0.415m-2.817 15.329c-3.367 0-5.629-2.899-5.629-7.214v-8.033c0-3.392 1.642-6.815 5.312-6.815 1.519 0 2.855 0.666 3.852 1.861v-1.628h7.608v21.497h-7.608v-1.393c-0.79 0.96-1.925 1.725-3.535 1.725m2.817-16.079c0.595 0 0.912 0.267 1.467 0.865v8.533c-0.237 0.232-0.753 0.701-1.547 0.701-1.15 0-1.508-0.968-1.508-1.767v-6.333c0-1.134 0.596-1.999 1.588-1.999m-2.817 15.329c2.618 0 3.768-2.499 4.205-3.832h0.079v3.5h6.11v-19.998h-6.11v3.769h-0.079c-0.714-2.367-2.3-4.002-4.522-4.002-3.215 0-4.563 3.068-4.563 6.066v8.033c0 3.631 1.785 6.464 4.88 6.464" fill="#fff"/>
     </g>
     <g transform="translate(437.15 738.26)">
      <path d="m0 0c-0.986 0-1.092-1.02-1.092-1.459v-6.566c0-0.519 0.152-1.391 1.171-1.391 0.485 0 0.686 0.101 1.094 0.408v8.383c-0.234 0.285-0.569 0.625-1.173 0.625m-2.856-15.232c-3.047 0-5.095 2.736-5.095 6.807v8.199c0 2.305 1.015 6.207 4.817 6.207 2.298 0 3.594-1.41 4.307-2.596v7.661h6.859v-26.045h-6.859v2.332c-0.684-1.186-1.906-2.565-4.029-2.565" fill="#fff"/>
     </g>
     <g transform="translate(437.23 729.21)">
      <path d="m0 0c-0.218 0-0.797 0-0.797 1.017v6.566c0 0.494 0.125 1.084 0.718 1.084 0.369 0 0.592-0.159 0.798-0.389v-8.054c-0.255-0.18-0.399-0.224-0.719-0.224m8.328 20.462h-7.609v-6.869c-0.825 0.955-2.07 1.804-3.932 1.804-3.586 0-5.192-3.306-5.192-6.582v-8.198c0-4.296 2.199-7.182 5.47-7.182 1.708 0 2.87 0.809 3.654 1.74v-1.508h7.609v26.045zm-8.328-21.211c0.675 0 0.953 0.2 1.468 0.598v8.699c-0.237 0.3-0.674 0.868-1.547 0.868-1.15 0-1.467-1.035-1.467-1.833v-6.566c0-0.366 0.079-1.766 1.546-1.766m7.578 20.461v-25.295h-6.11v3.467h-0.079c-0.475-1.199-1.586-3.7-4.324-3.7-2.816 0-4.721 2.501-4.721 6.433v8.198c0 2.233 0.952 5.833 4.443 5.833 2.976 0 4.127-2.533 4.602-3.668h0.079v8.732h6.11" fill="#fff"/>
     </g>
     <g transform="translate(451.16 744.65)">
      <path d="m0 0c-2.406 0-3.785 0.915-3.785 2.51 0 1.824 1.935 2.474 3.746 2.474 2.457 0 3.866-0.915 3.866-2.509 0-1.504-1.502-2.475-3.827-2.475m-3.429-0.649h6.86v-20.747h-6.86z" fill="#fff"/>
     </g>
     <g transform="translate(451.12 750.01)">
      <path d="m0 0c-1.992 0-4.121-0.749-4.121-2.849 0-1.485 1.05-2.477 2.87-2.784h-2.514v-21.497h7.61v21.497h-2.549c1.824 0.311 2.944 1.322 2.944 2.749 0 1.806-1.585 2.884-4.24 2.884m3.095-26.38h-6.11v19.998h6.11zm-3.095 25.631c0.476 0 3.491 0 3.491-2.135 0-1.401-1.547-2.1-3.452-2.1-0.951 0-3.411 0.168-3.411 2.135 0 1.9 2.499 2.1 3.372 2.1" fill="#fff"/>
     </g>
     <g transform="translate(465 739.52)">
      <path d="m0 0c-1.041 0-1.094-0.91-1.094-1.092v-9.531c0-0.823 0.317-1.159 1.094-1.159 0.54 0 1.092 0.149 1.092 1.258v9.531c0 0.622-0.408 0.993-1.092 0.993m0.158-16.597c-5.003 0-8.111 2.915-8.111 7.606v5.965c0 4.909 2.958 7.84 7.912 7.84 5.893 0 7.993-3.826 7.993-7.406v-6.399c0-3.663-2.44-7.606-7.794-7.606" fill="#fff"/>
     </g>
     <g transform="translate(465 728.11)">
      <path d="m0 0c-0.531 0-0.719 0.119-0.719 0.785v9.53c0 0.328 0.125 0.718 0.719 0.718 0.476 0 0.717-0.208 0.717-0.618v-9.532c0-0.819-0.297-0.883-0.717-0.883m-0.041 16.596c-5.189 0-8.286-3.07-8.286-8.214v-5.965c0-4.849 3.331-7.981 8.485-7.981 5.612 0 8.168 4.137 8.168 7.981v6.398c0 3.762-2.198 7.781-8.367 7.781m0.041-17.345c1.149 0 1.467 0.765 1.467 1.632v9.532c0 0.766-0.516 1.367-1.467 1.367-1.15 0-1.468-0.901-1.468-1.467v-9.53c0-0.9 0.357-1.534 1.468-1.534m-0.041 16.596c5.277 0 7.618-3.165 7.618-7.032v-6.398c0-3.798-2.539-7.232-7.419-7.232-4.641 0-7.736 2.665-7.736 7.232v5.965c0 3.567 1.705 7.465 7.537 7.465" fill="#fff"/>
     </g>
     <g transform="translate(515 739.13)">
      <path d="m0 0c-1.133 0.012-1.498-2.295-1.549-5.94 0.051-4.028-0.337-7.041 1.679-7.101 0.902 0.06 1.297 0.696 1.291 1.678-0.183 5.166 0.495 11.375-1.421 11.363" fill="#fff"/>
     </g>
     <g transform="translate(531.53 738.87)">
      <path d="m0 0c-0.055 0.505-2.537 0.952-3.873 0.904-2.43 0.048-9.822-0.635-9.814-4.133-8e-3 -2.267 2.954-2.08 5.811-2.065 2.603-0.015 5.338-0.564 5.423-2.066 0.062-1.685-3.027-2.516-6.844-2.453-1.244-0.063-2.243 0.373-2.195 1.291-0.048 0.518 0.387 0.801 1.033 0.775 1.278 0.026 2.431-0.81 3.874-0.775 1.388-0.035 2.529 0.447 2.583 1.033-0.054 1.085-4.467 1.109-5.941 1.162-1.845-0.053-2.728-1.288-2.711-2.195-0.017-1.354 1.749-3.954 6.327-4.002 2.765 0.048 5.978 1.366 5.94 4.647 0.038 3.446-3.322 4.104-5.682 4.133-1.06-0.029-4.731 0.076-4.777 0.774 0.046 1.74 10.791 0.374 10.846 2.97" fill="#fff"/>
     </g>
     <g transform="translate(533.72 726.47)">
      <path d="m0 0c-0.932 0.025-1.639 1.702-1.678 2.969 0.039 0.945 0.84 9.295 2.711 9.297 1.654-2e-3 4.99-7.175 5.81-7.231 0.527 0.056 0.391 1.881 0 3.615-0.482 2.654-1.355 5.396-1.291 5.552-0.064 0.275-0.135 0.84 0.387 0.904 1.22-0.064 3.739-4.301 3.745-8.651-6e-3 -1.5-0.471-5.354-2.713-5.294-2.095-0.06-4.501 6.79-5.164 6.843-0.803-0.053-0.75-5.231-0.774-5.681 0.024-0.469-6e-3 -2.298-1.033-2.323" fill="#fff"/>
     </g>
     <g transform="translate(545.6 732.15)">
      <path d="m0 0c-0.309 0.187-0.365 0.568-0.387 1.033 0.022 0.701 0.457 1.082 1.162 1.162 0.37 1.189 0.599 2.036 0.775 2.583-0.358 0.036-0.182 0.017-0.388 0-1.253 0.175-1.33 0.706-1.678 1.549-0.156 0.469 6.923 1.458 8.263 1.42 1.274 0.038 1.591-0.492 1.937-0.774 0.22-0.282 0.748-0.742 0.775-1.162-0.027-0.427-0.7-1.024-1.679-1.162-1.036-0.025-3.012-0.04-4.519 0-0.083-0.358-0.326-1.09-0.645-2.196 1.447 0.075 3.088 0.158 3.486 0.13 0.566-0.027 0.988-0.177 0.904-1.033 0.011-0.989-0.251-1.033-1.162-1.163-0.298-0.092-2.271-0.195-4.003-0.258-0.353-1.223-0.57-1.785-0.646-1.937-0.112-0.523 0.153-1.011 0.388-1.033 0.33 0.022 4.143 0.987 4.777 1.033 0.637-0.046 1.037-0.74 1.034-1.42 3e-3 -0.591-3.646-3.262-6.07-3.228-2.519-0.034-3.26 2.86-3.229 3.615-0.031 0.405 0.362 1.35 0.905 2.841" fill="#fff"/>
     </g>
     <g transform="translate(488.01 727.89)">
      <path d="m0 0c-5.341 1.805-8.465 5.073-8.522 6.068 0.057 1.297 4.628 1.893 8.522 2.066zm-7.23 25.953c-4.267-0.044-6.606-1.35-6.844-1.808-0.229-0.39-0.934-1.237-0.904-1.549-0.03-0.641 1.288-0.883 1.549-0.904 0.928 0.021 1.34 0.397 1.292 0.646 0.048 0.541-1.241 0.363-1.292 0.904 0.051 0.714 3.211 0.998 5.812 0.903 13.716-0.137 27.797-9.205 27.76-17.301 0.037-5.18-5.683-8.204-12.267-8.263-2.137 0.059-3.526 0.262-4.648 0.515-0.027 1.408-0.101 3.317-0.129 5.811 0.028 1.231-1e-3 2.346 0 3.356 0.225 0.05 0.452 0.052 0.646 0 2.395 0.052 8.526-0.279 8.522-1.678 4e-3 -1.025-1.149-1.303-1.163-1.937 0.014-0.258 0.049-0.376 1.163-0.388 1.558 0.012 2.67 1.878 2.711 2.841-0.041 3.155-6.283 4.273-10.2 4.261-0.581 0.012-1.145-0.025-1.679 0-0.193 3.911-0.604 6.155-1.808 6.198-0.646-0.043-1.02-2.619-1.162-6.585-4.913-0.811-9.359-2.721-9.297-4.777-0.062-1.801 4.02-5.834 9.168-8.264 0.099-2.208 0.482-3.177 1.678-3.228 1.179 0.051 1.534 0.426 1.55 1.936 1.698-0.549 3.334-0.862 5.036-0.902 8.457 0.04 15.412 4.16 15.366 10.974 0.046 8.132-12.135 19.195-30.86 19.239" fill="#fff"/>
     </g>
     <g transform="translate(515.52 743.78)">
      <path d="m0 0c-0.326-0.021-0.765 0.089-1.162 0.258 0.882 1.877 4.662 4.727 6.198 4.649 0.709-0.079 1.146-0.393 1.162-1.033-0.227-2.389-3.638-4.097-6.198-3.874m-3.099 1.55c-0.137 0.238-0.2 0.478-0.129 0.774 0.041 1.312 2.191 3.368 3.486 3.228 0.199 0.035 0.739-0.012 1.163-0.129h0.128c-2.041-1.015-3.631-2.602-4.648-3.873m8.91 4.777c-0.131-8e-3 -0.263-3e-3 -0.387 0 0.03 0.528-0.947 1.13-2.583 1.291-3.131 0.172-7.707-2.697-7.876-5.551-0.092-0.875 0.247-1.748 0.903-2.454-0.141-1.475 0.139-2.457 0.904-2.453 0.345-0.081 0.713 0.273 1.162 1.032 0.48-0.231 1.035-0.358 1.679-0.387 3.851-0.286 8.157 4.097 8.264 5.939 0.133 1.586-0.866 2.482-2.066 2.583" fill="#fff"/>
     </g>
     <g transform="translate(561.61 729.31)">
      <path d="m0 0c-0.142 0.067-0.322 0.097-0.517 0.13 2.946 5.649 5.16 6.954 5.681 6.972 0.363-0.05 0.621-0.765 0.646-1.549-0.187-3.827-3.876-5.558-5.81-5.553m5.036 9.685c-1.67 4e-3 -5.173-2.898-8.135-7.489-0.127 0.393-0.218 0.762-0.259 1.162 0.112 1.645 2.819 5.254 2.841 6.585 0.039 0.389 0.054 0.602-0.387 0.646-0.796-2e-3 -4.638-4.374-4.777-8.264-0.031-0.994 0.345-2.042 1.032-2.97-2.807-5.812-2.874-9.612-2.969-11.104-0.066-1.192 1.707-2.986 2.453-2.97 0.339-0.054 0.474 0.745 0.645 2.066 0.358 2.33 0.755 5.969 2.582 9.814 0.195-0.073 0.405-0.178 0.647-0.13 2.805-0.154 8.429 2.511 8.65 8.394 0.038 1.574-1.301 4.17-2.323 4.26" fill="#fff"/>
     </g>
     <g transform="translate(587.45 742.14)">
      <path d="m0 0c-3.616-3.786-10.253-3.314-14.828 1.054-4.572 4.368-5.35 10.979-1.735 14.763 3.616 3.787 10.254 3.314 14.827-1.053 4.574-4.37 5.351-10.979 1.736-14.764m-0.172 16.136c-4.133 4.131-10.002 5.206-14.233 2.949-0.786-0.419-1.516-0.954-2.168-1.605-1.709-1.709-2.612-3.956-2.745-6.351-0.011-0.198-0.017-0.397-0.018-0.597 0-0.141 4e-3 -0.284 9e-3 -0.426 0.013-0.385 0.046-0.772 0.097-1.16 0.043-0.317 0.099-0.635 0.167-0.953 0.15-0.7 0.36-1.399 0.633-2.087 0.138-0.346 0.097-0.368-0.211-0.206-2.705 1.449-5.8 2.261-9.083 2.261-3.277 0-6.358-0.812-9.069-2.25-0.206-0.11-0.359-0.188-0.214 0.178 1.63 4.097 1.071 8.632-1.861 11.562-3.463 3.461-9.132 3.621-13.762 0.749-0.207-0.128-0.41-0.262-0.613-0.402 4.059 2.165 8.793 2 11.984-0.816 3.759-3.318 4.133-9.216 1.194-14.033 3.098 2.158 6.865 3.425 10.927 3.425 10.57 0 19.139-8.569 19.139-19.14 0-5.791-2.571-10.98-6.634-14.49 0.137 0.096 0.274 0.193 0.41 0.294 4.765 3.524 7.856 9.187 7.856 15.569 0 3.323-0.83 6.427-2.31 9.181-0.043 0.081-0.16 0.273 0.164 0.139 0.845-0.348 1.704-0.6 2.563-0.758 0.559-0.104 1.118-0.168 1.673-0.191 0.672-0.028 1.338 2e-3 1.989 0.093 0.512 0.071 1.013 0.179 1.502 0.326 0.659 0.195 1.295 0.459 1.896 0.792 0.462 0.256 0.905 0.553 1.323 0.889 0.088 0.071 0.175 0.144 0.261 0.218 0.163 0.142 0.323 0.288 0.477 0.443 4.158 4.156 3.557 11.497-1.343 16.397" fill="#fff"/>
     </g>
     <g transform="translate(399.91 739.34)">
      <path d="m0 0c1.279 0 1.887 0.383 1.887 2.557 0 1.368-0.604 1.926-2.085 1.926h-0.539v-4.483zm1.887-16.081v8.41c0 1.615-0.577 2.188-2.205 2.188h-0.419v-10.598h-7.652v26.045h10.492c5.058 0 7.516-2.248 7.516-6.873 0-3.715-1.435-5.124-3.205-5.819 2.1-0.779 3.125-2.275 3.125-4.545v-8.808z" fill="#fff"/>
     </g>
     <g transform="translate(399.55 743.44)">
      <path d="m0 0h0.164c1.279 0 1.71-0.391 1.71-1.55 0-2.082-0.546-2.183-1.512-2.183h-0.362zm2.466 6.231h-10.868v-26.794h8.402v10.597h0.045c1.419 0 1.829-0.406 1.829-1.813v-8.784h8.402v9.183c0 2.155-0.853 3.661-2.596 4.559 1.497 0.844 2.676 2.433 2.676 5.804 0 4.877-2.581 7.248-7.89 7.248m-3.215-10.713h1.111c1.587 0 2.262 0.666 2.262 2.932 0 1.967-1.23 2.299-2.46 2.299h-0.913v-5.231m3.215 9.964c5.434 0 7.141-2.6 7.141-6.499 0-4.498-2.183-5.332-4.008-5.798v-0.067c2.221-0.5 3.928-1.632 3.928-4.498v-8.434h-6.903v8.035c0 1.697-0.635 2.563-2.579 2.563h-0.794v-10.598h-6.903v25.296h10.118" fill="#851b1c"/>
     </g>
     <g transform="translate(419.46 738.36)">
      <path d="m0 0c-1.022 0-1.133-0.974-1.133-1.393v-6.333c0-0.749 0.318-1.624 1.213-1.624 0.407 0 0.627 0.147 1.093 0.638v8.222c-0.263 0.235-0.647 0.49-1.173 0.49m-3.054-15.333c-3.411 0-4.937 3.235-4.937 6.44v8.033c0 4.091 2.111 6.839 5.254 6.839 1.985 0 3.195-1.285 3.91-2.577v2.245h6.859v-20.747h-6.859v2.468c-0.955-1.717-2.46-2.701-4.227-2.701" fill="#fff"/>
     </g>
     <g transform="translate(419.54 729.38)">
      <path d="m0 0c-0.619 0-0.838 0.673-0.838 1.249v6.333c0 0.675 0.255 1.018 0.758 1.018 0.33 0 0.591-0.132 0.798-0.29v-7.895c-0.374-0.379-0.498-0.415-0.718-0.415m-2.817 15.329c-3.367 0-5.629-2.899-5.629-7.214v-8.033c0-3.392 1.642-6.815 5.312-6.815 1.519 0 2.855 0.666 3.852 1.861v-1.628h7.608v21.497h-7.608v-1.393c-0.79 0.96-1.925 1.725-3.535 1.725m2.817-16.079c0.595 0 0.912 0.267 1.467 0.865v8.533c-0.237 0.232-0.753 0.701-1.547 0.701-1.15 0-1.508-0.968-1.508-1.767v-6.333c0-1.134 0.596-1.999 1.588-1.999m-2.817 15.329c2.618 0 3.768-2.499 4.205-3.832h0.079v3.5h6.11v-19.998h-6.11v3.769h-0.079c-0.714-2.367-2.3-4.002-4.522-4.002-3.215 0-4.563 3.068-4.563 6.066v8.033c0 3.631 1.785 6.464 4.88 6.464" fill="#851b1c"/>
     </g>
     <g transform="translate(437.15 738.26)">
      <path d="m0 0c-0.986 0-1.092-1.02-1.092-1.459v-6.566c0-0.519 0.152-1.391 1.171-1.391 0.485 0 0.686 0.101 1.094 0.408v8.383c-0.234 0.285-0.569 0.625-1.173 0.625m-2.856-15.232c-3.047 0-5.095 2.736-5.095 6.807v8.199c0 2.305 1.015 6.207 4.817 6.207 2.298 0 3.594-1.41 4.307-2.596v7.661h6.859v-26.045h-6.859v2.332c-0.684-1.186-1.906-2.565-4.029-2.565" fill="#fff"/>
     </g>
     <g transform="translate(437.23 729.21)">
      <path d="m0 0c-0.218 0-0.797 0-0.797 1.017v6.566c0 0.494 0.125 1.084 0.718 1.084 0.369 0 0.592-0.159 0.798-0.389v-8.054c-0.255-0.18-0.399-0.224-0.719-0.224m8.328 20.462h-7.609v-6.869c-0.825 0.955-2.07 1.804-3.932 1.804-3.586 0-5.192-3.306-5.192-6.582v-8.198c0-4.296 2.199-7.182 5.47-7.182 1.708 0 2.87 0.809 3.654 1.74v-1.508h7.609v26.045zm-8.328-21.211c0.675 0 0.953 0.2 1.468 0.598v8.699c-0.237 0.3-0.674 0.868-1.547 0.868-1.15 0-1.467-1.035-1.467-1.833v-6.566c0-0.366 0.079-1.766 1.546-1.766m7.578 20.461v-25.295h-6.11v3.467h-0.079c-0.475-1.199-1.586-3.7-4.324-3.7-2.816 0-4.721 2.501-4.721 6.433v8.198c0 2.233 0.952 5.833 4.443 5.833 2.976 0 4.127-2.533 4.602-3.668h0.079v8.732h6.11" fill="#851b1c"/>
     </g>
     <g transform="translate(451.16 744.65)">
      <path d="m0 0c-2.406 0-3.785 0.915-3.785 2.51 0 1.824 1.935 2.474 3.746 2.474 2.457 0 3.866-0.915 3.866-2.509 0-1.504-1.502-2.475-3.827-2.475m-3.429-0.649h6.86v-20.747h-6.86z" fill="#fff"/>
     </g>
     <g transform="translate(451.12 750.01)">
      <path d="m0 0c-1.992 0-4.121-0.749-4.121-2.849 0-1.485 1.05-2.477 2.87-2.784h-2.514v-21.497h7.61v21.497h-2.549c1.824 0.311 2.944 1.322 2.944 2.749 0 1.806-1.585 2.884-4.24 2.884m3.095-26.38h-6.11v19.998h6.11zm-3.095 25.631c0.476 0 3.491 0 3.491-2.135 0-1.401-1.547-2.1-3.452-2.1-0.951 0-3.411 0.168-3.411 2.135 0 1.9 2.499 2.1 3.372 2.1" fill="#851b1c"/>
     </g>
     <g transform="translate(465 739.52)">
      <path d="m0 0c-1.041 0-1.094-0.91-1.094-1.092v-9.531c0-0.823 0.317-1.159 1.094-1.159 0.54 0 1.092 0.149 1.092 1.258v9.531c0 0.622-0.408 0.993-1.092 0.993m0.158-16.597c-5.003 0-8.111 2.915-8.111 7.606v5.965c0 4.909 2.958 7.84 7.912 7.84 5.893 0 7.993-3.826 7.993-7.406v-6.399c0-3.663-2.44-7.606-7.794-7.606" fill="#fff"/>
     </g>
     <g transform="translate(465 728.11)">
      <path d="m0 0c-0.531 0-0.719 0.119-0.719 0.785v9.53c0 0.328 0.125 0.718 0.719 0.718 0.476 0 0.717-0.208 0.717-0.618v-9.532c0-0.819-0.297-0.883-0.717-0.883m-0.041 16.596c-5.189 0-8.286-3.07-8.286-8.214v-5.965c0-4.849 3.331-7.981 8.485-7.981 5.612 0 8.168 4.137 8.168 7.981v6.398c0 3.762-2.198 7.781-8.367 7.781m0.041-17.345c1.149 0 1.467 0.765 1.467 1.632v9.532c0 0.766-0.516 1.367-1.467 1.367-1.15 0-1.468-0.901-1.468-1.467v-9.53c0-0.9 0.357-1.534 1.468-1.534m-0.041 16.596c5.277 0 7.618-3.165 7.618-7.032v-6.398c0-3.798-2.539-7.232-7.419-7.232-4.641 0-7.736 2.665-7.736 7.232v5.965c0 3.567 1.705 7.465 7.537 7.465" fill="#851b1c"/>
     </g>
     <g transform="translate(515 739.13)">
      <path d="m0 0c-1.133 0.012-1.498-2.295-1.549-5.94 0.051-4.028-0.337-7.041 1.679-7.101 0.902 0.06 1.297 0.696 1.291 1.678-0.183 5.166 0.495 11.375-1.421 11.363" fill="#fff"/>
     </g>
     <g transform="translate(515 739.13)">
      <path d="m0 0 1e-3 0.056h-0.01c-0.302 1e-3 -0.556-0.158-0.754-0.44-0.595-0.847-0.802-2.824-0.842-5.555v-1e-3c4e-3 -0.315 5e-3 -0.624 5e-3 -0.926 0-0.588-5e-3 -1.148-5e-3 -1.676 0-1.33 0.031-2.446 0.26-3.245 0.225-0.797 0.673-1.29 1.473-1.31h6e-3c0.46 0.03 0.802 0.21 1.023 0.51s0.32 0.711 0.32 1.203v0.023c-0.028 0.795-0.036 1.616-0.036 2.434 0 1.011 0.012 2.02 0.012 2.977 0 1.645-0.034 3.134-0.227 4.218-0.097 0.542-0.232 0.983-0.428 1.294-0.193 0.312-0.458 0.495-0.792 0.494h-6e-3v-0.056l1e-3 0.056-1e-3 -0.056 1e-3 -0.056h5e-3c0.291-1e-3 0.513-0.15 0.697-0.441 0.553-0.874 0.64-2.99 0.638-5.453 0-0.956-0.012-1.965-0.012-2.977 0-0.819 8e-3 -1.641 0.036-2.438l0.056 2e-3h-0.056v-0.021c1e-3 -0.477-0.097-0.865-0.299-1.137-0.201-0.271-0.504-0.434-0.94-0.464l4e-3 -0.056 2e-3 0.056c-0.751 0.026-1.142 0.454-1.369 1.229-0.223 0.775-0.256 1.886-0.256 3.214 0 0.527 5e-3 1.088 5e-3 1.676 0 0.302-1e-3 0.612-5e-3 0.927l-0.056-1e-3h0.056c0.026 1.815 0.129 3.298 0.366 4.321 0.117 0.511 0.269 0.907 0.455 1.17 0.188 0.263 0.402 0.392 0.663 0.393h0.01z" fill="#851b1c"/>
     </g>
     <g transform="translate(531.53 738.87)">
      <path d="m0 0c-0.055 0.505-2.537 0.952-3.873 0.904-2.43 0.048-9.822-0.635-9.814-4.133-8e-3 -2.267 2.954-2.08 5.811-2.065 2.603-0.015 5.338-0.564 5.423-2.066 0.062-1.685-3.027-2.516-6.844-2.453-1.244-0.063-2.243 0.373-2.195 1.291-0.048 0.518 0.387 0.801 1.033 0.775 1.278 0.026 2.431-0.81 3.874-0.775 1.388-0.035 2.529 0.447 2.583 1.033-0.054 1.085-4.467 1.109-5.941 1.162-1.845-0.053-2.728-1.288-2.711-2.195-0.017-1.354 1.749-3.954 6.327-4.002 2.765 0.048 5.978 1.366 5.94 4.647 0.038 3.446-3.322 4.104-5.682 4.133-1.06-0.029-4.731 0.076-4.777 0.774 0.046 1.74 10.791 0.374 10.846 2.97" fill="#fff"/>
     </g>
     <g transform="translate(531.53 738.87)">
      <path d="m0 0 0.056 6e-3c-0.024 0.164-0.193 0.277-0.435 0.39-0.733 0.328-2.251 0.567-3.286 0.567-0.073 0-0.143-1e-3 -0.21-3e-3l2e-3 -0.056 1e-3 0.056c-0.077 1e-3 -0.159 2e-3 -0.246 2e-3 -1.327 0-3.721-0.187-5.792-0.798-1.035-0.306-1.989-0.718-2.688-1.271-0.699-0.551-1.146-1.25-1.145-2.116v-7e-3l0.056 1e-3 -0.056 1e-3v-0.01c-3e-3 -0.965 0.54-1.511 1.361-1.792 0.82-0.285 1.924-0.33 3.096-0.33 0.464 0 0.939 7e-3 1.41 0.01v0.056l-1e-3 -0.056c1.298-8e-3 2.629-0.149 3.639-0.473 0.506-0.162 0.931-0.37 1.232-0.625 0.3-0.257 0.477-0.557 0.497-0.915l0.056 3e-3 -0.056-2e-3 1e-3 -0.047c0-0.381-0.168-0.714-0.484-1.007-0.944-0.882-3.215-1.346-5.902-1.344-0.133 0-0.267 1e-3 -0.402 3e-3h-4e-3c-0.077-4e-3 -0.154-6e-3 -0.23-6e-3 -0.545 0-1.028 0.104-1.368 0.303-0.34 0.2-0.538 0.487-0.54 0.874l2e-3 0.061v8e-3l-4e-3 0.072c1e-3 0.207 0.087 0.361 0.241 0.472 0.155 0.11 0.383 0.171 0.66 0.171l0.078-1e-3h0.06c1.205 4e-3 2.326-0.774 3.728-0.777l0.09 1e-3 -2e-3 0.057-1e-3 -0.056c0.048-2e-3 0.096-2e-3 0.143-2e-3 0.668 0 1.272 0.118 1.719 0.31 0.445 0.192 0.745 0.457 0.777 0.776l1e-3 4e-3v4e-3c-8e-3 0.156-0.095 0.29-0.231 0.4-0.477 0.383-1.587 0.565-2.75 0.671-1.161 0.103-2.37 0.121-3.014 0.144h-3e-3c-1.854-0.053-2.766-1.286-2.766-2.226v-0.027l0.056 2e-3h-0.056v-0.019c2e-3 -1.403 1.805-3.991 6.382-4.04h2e-3c1.383 0.025 2.877 0.364 4.03 1.108 1.154 0.743 1.966 1.9 1.965 3.539v0.058l-0.056-1e-3h0.056v0.058c2e-3 1.717-0.85 2.754-1.991 3.35-1.14 0.597-2.568 0.766-3.746 0.781h-2e-3c-0.097-3e-3 -0.215-4e-3 -0.35-4e-3 -0.673 0-1.768 0.036-2.696 0.151-0.465 0.057-0.888 0.134-1.193 0.235-0.153 0.05-0.275 0.107-0.358 0.166-0.083 0.06-0.12 0.118-0.124 0.174l-0.055-4e-3 0.056-1e-3c4e-3 0.184 0.152 0.338 0.444 0.471 1.019 0.461 3.606 0.51 5.932 0.72 1.164 0.106 2.266 0.253 3.085 0.518 0.41 0.133 0.749 0.295 0.992 0.5 0.242 0.205 0.387 0.459 0.393 0.761v7e-3l-0.056-6e-3 -0.056 1e-3c-7e-3 -0.304-0.166-0.548-0.457-0.757-1.017-0.734-3.601-0.904-5.924-1.066-1.163-0.082-2.262-0.165-3.078-0.323-0.408-0.079-0.745-0.177-0.987-0.307-0.24-0.128-0.395-0.297-0.4-0.516l-1e-3 -3e-3 1e-3 -3e-3c7e-3 -0.103 0.073-0.188 0.17-0.257 0.338-0.24 1.111-0.375 1.959-0.462 0.847-0.084 1.761-0.112 2.353-0.112 0.136 0 0.255 2e-3 0.353 4e-3l-2e-3 0.057-1e-3 -0.057c1.169-0.013 2.582-0.184 3.696-0.768 1.114-0.586 1.929-1.572 1.931-3.25v-0.115c-1e-3 -1.6-0.785-2.715-1.913-3.445-1.13-0.729-2.606-1.066-3.972-1.089l1e-3 -0.056 1e-3 0.056c-4.535 0.047-6.275 2.611-6.272 3.927v0.044c-1e-3 0.87 0.854 2.062 2.657 2.114l-2e-3 0.056-2e-3 -0.056c0.738-0.027 2.208-0.046 3.499-0.194 0.644-0.073 1.244-0.18 1.681-0.333 0.219-0.076 0.396-0.165 0.517-0.263 0.121-0.099 0.184-0.203 0.19-0.319l0.056 3e-3 -0.056 5e-3c-0.02-0.247-0.279-0.499-0.71-0.683-0.429-0.184-1.02-0.301-1.675-0.301-0.046 0-0.093 1e-3 -0.14 2e-3h-3e-3l-0.087-1e-3c-1.359-3e-3 -2.474 0.773-3.728 0.776h-0.059l1e-3 -0.056 2e-3 0.056-0.082 2e-3c-0.293-1e-3 -0.543-0.065-0.724-0.193-0.182-0.127-0.29-0.323-0.289-0.563l4e-3 -0.083 0.056 6e-3 -0.056 3e-3 -2e-3 -0.067c-1e-3 -0.429 0.23-0.759 0.596-0.971 0.365-0.213 0.865-0.318 1.424-0.318 0.078 0 0.157 2e-3 0.236 6e-3l-3e-3 0.056v-0.056c0.135-2e-3 0.269-3e-3 0.403-3e-3 1.8 0 3.415 0.203 4.586 0.609 0.586 0.203 1.061 0.456 1.393 0.764s0.52 0.674 0.519 1.09v0.052c-0.022 0.393-0.221 0.725-0.538 0.994-0.953 0.806-2.983 1.112-4.942 1.125h-1e-3c-0.472-3e-3 -0.946-0.01-1.409-0.01-1.169 0-2.265 0.047-3.06 0.324-0.794 0.28-1.282 0.767-1.285 1.686v0.015c1e-3 0.825 0.421 1.488 1.103 2.028 2.045 1.621 6.436 2.047 8.41 2.045 0.086 0 0.167-1e-3 0.244-3e-3h1e-3l2e-3 1e-3c0.065 2e-3 0.134 3e-3 0.206 3e-3 0.679 0 1.58-0.106 2.314-0.272 0.367-0.083 0.692-0.181 0.926-0.286 0.236-0.103 0.367-0.223 0.369-0.299l0.056 6e-3 -0.056 1e-3z" fill="#851b1c"/>
     </g>
     <g transform="translate(533.72 726.47)">
      <path d="m0 0c-0.932 0.025-1.639 1.702-1.678 2.969 0.039 0.945 0.84 9.295 2.711 9.297 1.654-2e-3 4.99-7.175 5.81-7.231 0.527 0.056 0.391 1.881 0 3.615-0.482 2.654-1.355 5.396-1.291 5.552-0.064 0.275-0.135 0.84 0.387 0.904 1.22-0.064 3.739-4.301 3.745-8.651-6e-3 -1.5-0.471-5.354-2.713-5.294-2.095-0.06-4.501 6.79-5.164 6.843-0.803-0.053-0.75-5.231-0.774-5.681 0.024-0.469-6e-3 -2.298-1.033-2.323" fill="#fff"/>
     </g>
     <g transform="translate(533.72 726.47)">
      <path d="m0 0 1e-3 0.056c-0.43 9e-3 -0.831 0.414-1.125 0.988-0.294 0.572-0.479 1.303-0.498 1.927l-0.056-2e-3 0.056-2e-3c0.019 0.467 0.229 2.792 0.667 4.993 0.219 1.101 0.496 2.172 0.832 2.963 0.168 0.396 0.351 0.721 0.546 0.945 0.195 0.223 0.398 0.341 0.61 0.342 0.373 4e-3 0.894-0.431 1.447-1.103 0.833-1.005 1.759-2.521 2.553-3.79 0.397-0.635 0.761-1.208 1.065-1.627 0.153-0.21 0.29-0.381 0.411-0.503 0.122-0.121 0.224-0.199 0.33-0.208l5e-3 -1e-3 4e-3 1e-3c0.158 0.018 0.256 0.153 0.313 0.34 0.059 0.189 0.084 0.445 0.084 0.749 0 0.703-0.137 1.661-0.348 2.595l-0.054-0.013 0.055 0.01c-0.233 1.283-0.557 2.585-0.822 3.607-0.133 0.511-0.251 0.951-0.336 1.284-0.085 0.33-0.136 0.562-0.135 0.625v8e-3l-0.015 2e-3 0.014-6e-3 1e-3 4e-3 -0.015 2e-3 0.014-6e-3 7e-3 0.017-4e-3 0.018c-0.021 0.09-0.043 0.213-0.043 0.335 0 0.12 0.021 0.238 0.077 0.326 0.057 0.089 0.145 0.154 0.305 0.174l-7e-3 0.056-3e-3 -0.056c0.274-0.012 0.657-0.277 1.059-0.748 1.213-1.408 2.629-4.602 2.632-7.847-2e-3 -0.739-0.118-2.059-0.505-3.188-0.193-0.564-0.454-1.079-0.799-1.451-0.344-0.371-0.768-0.599-1.3-0.6l-0.05 1e-3h-3e-3l-0.026-1e-3c-0.49-2e-3 -1.024 0.408-1.548 1.042-0.786 0.949-1.549 2.383-2.174 3.583-0.314 0.601-0.593 1.144-0.826 1.541-0.117 0.198-0.222 0.36-0.316 0.476-0.095 0.115-0.172 0.191-0.268 0.202l-5e-3 1e-3h-4e-3c-0.133-0.011-0.23-0.119-0.309-0.272-0.273-0.539-0.391-1.797-0.452-2.983-0.059-1.182-0.055-2.288-0.065-2.48l-1e-3 -3e-3 1e-3 -3e-3c2e-3 -0.052 4e-3 -0.122 4e-3 -0.205 0-0.323-0.032-0.843-0.174-1.277-0.145-0.437-0.388-0.772-0.808-0.782l1e-3 -0.056 1e-3 0.056-1e-3 -0.056 1e-3 -0.056c0.491 0.012 0.766 0.408 0.913 0.859 0.148 0.454 0.179 0.981 0.179 1.312 0 0.085-2e-3 0.156-5e-3 0.211l-0.055-3e-3 0.055-3e-3c0.013 0.23 6e-3 1.633 0.096 2.989 0.045 0.677 0.114 1.342 0.221 1.837 0.054 0.247 0.118 0.452 0.189 0.592 0.072 0.142 0.15 0.208 0.217 0.21l-4e-3 0.056-4e-3 -0.056c0.017 0 0.059-0.02 0.108-0.069 0.191-0.184 0.486-0.707 0.838-1.376 0.53-1.005 1.199-2.349 1.922-3.443 0.725-1.093 1.495-1.95 2.273-1.956l0.029 1e-3 -2e-3 0.056-1e-3 -0.056 0.053-1e-3c0.566-1e-3 1.024 0.247 1.383 0.636 1.075 1.167 1.327 3.59 1.334 4.714v1e-3c-3e-3 2.186-0.637 4.339-1.423 5.957-0.393 0.809-0.825 1.484-1.236 1.963-0.414 0.479-0.803 0.767-1.139 0.787h-0.01c-0.186-0.022-0.313-0.109-0.385-0.226-0.073-0.116-0.095-0.254-0.095-0.386 0-0.135 0.023-0.265 0.045-0.361l0.055 0.013-0.052 0.022-7e-3 -0.048c1e-3 -0.097 0.053-0.317 0.138-0.653 0.256-1 0.809-2.965 1.156-4.883l1e-3 -1e-3v-1e-3c0.209-0.927 0.345-1.881 0.345-2.57 0-0.297-0.025-0.545-0.079-0.716-0.055-0.173-0.129-0.253-0.217-0.261l6e-3 -0.056 4e-3 0.056c-0.066-1e-3 -0.211 0.107-0.379 0.307-0.598 0.696-1.587 2.424-2.603 3.975-0.509 0.776-1.025 1.508-1.507 2.049-0.484 0.539-0.928 0.896-1.325 0.9-0.257-1e-3 -0.489-0.144-0.695-0.381-0.72-0.829-1.22-2.856-1.557-4.789-0.335-1.933-0.498-3.763-0.515-4.181l-1e-3 -1e-3 1e-3 -3e-3c0.02-0.643 0.208-1.385 0.51-1.974 0.303-0.587 0.72-1.033 1.223-1.049h2e-3z" fill="#851b1c"/>
     </g>
     <g transform="translate(545.6 732.15)">
      <path d="m0 0c-0.309 0.187-0.365 0.568-0.387 1.033 0.022 0.701 0.457 1.082 1.162 1.162 0.37 1.189 0.599 2.036 0.775 2.583-0.358 0.036-0.182 0.017-0.388 0-1.253 0.175-1.33 0.706-1.678 1.549-0.156 0.469 6.923 1.458 8.263 1.42 1.274 0.038 1.591-0.492 1.937-0.774 0.22-0.282 0.748-0.742 0.775-1.162-0.027-0.427-0.7-1.024-1.679-1.162-1.036-0.025-3.012-0.04-4.519 0-0.083-0.358-0.326-1.09-0.645-2.196 1.447 0.075 3.088 0.158 3.486 0.13 0.566-0.027 0.988-0.177 0.904-1.033 0.011-0.989-0.251-1.033-1.162-1.163-0.298-0.092-2.271-0.195-4.003-0.258-0.353-1.223-0.57-1.785-0.646-1.937-0.112-0.523 0.153-1.011 0.388-1.033 0.33 0.022 4.143 0.987 4.777 1.033 0.637-0.046 1.037-0.74 1.034-1.42 3e-3 -0.591-3.646-3.262-6.07-3.228-2.519-0.034-3.26 2.86-3.229 3.615-0.031 0.405 0.362 1.35 0.905 2.841" fill="#fff"/>
     </g>
     <g transform="translate(545.6 732.15)">
      <path d="m0 0 0.029 0.048c-0.279 0.166-0.339 0.522-0.36 0.988l-0.056-3e-3 0.056-2e-3c0.026 0.675 0.425 1.025 1.113 1.108l0.036 4e-3 0.011 0.035c0.37 1.19 0.598 2.038 0.774 2.582l0.022 0.066-0.069 7e-3c-0.15 0.016-0.205 0.022-0.242 0.022l-0.059-8e-3c-0.016-4e-3 -0.04-8e-3 -0.098-0.014l5e-3 -0.055 8e-3 0.055c-0.62 0.088-0.935 0.258-1.144 0.505s-0.315 0.586-0.49 1.01l-0.052-0.021 0.053 0.018-6e-3 -3e-3h7e-3l-1e-3 3e-3 -6e-3 -3e-3h7e-3c1e-3 7e-3 0.029 0.038 0.085 0.067 0.207 0.116 0.737 0.26 1.424 0.402 2.064 0.431 5.589 0.882 6.619 0.881l0.08-1e-3h3e-3c0.043 1e-3 0.084 2e-3 0.125 2e-3 1.152-4e-3 1.426-0.481 1.774-0.764l0.036 0.044-0.045-0.035c0.114-0.146 0.3-0.33 0.461-0.53 0.161-0.199 0.292-0.413 0.304-0.601l0.055 4e-3 -0.055 3e-3c-0.011-0.185-0.174-0.434-0.461-0.647-0.286-0.214-0.691-0.395-1.171-0.463l8e-3 -0.055-1e-3 0.056c-0.576-0.014-1.442-0.025-2.357-0.025-0.73 0-1.491 7e-3 -2.159 0.025l-0.046 1e-3 -0.01-0.045c-0.083-0.352-0.326-1.086-0.644-2.192l-0.022-0.076 0.078 4e-3c1.251 0.064 2.648 0.136 3.256 0.136 0.096 0 0.171-2e-3 0.223-6e-3h1e-3c0.256-0.012 0.474-0.051 0.621-0.159s0.24-0.285 0.241-0.613c0-0.061-4e-3 -0.128-0.011-0.2v-0.063c0-0.463-0.068-0.685-0.225-0.81-0.158-0.13-0.442-0.177-0.889-0.239l-5e-3 -1e-3 -4e-3 -1e-3c-0.131-0.042-0.706-0.093-1.45-0.138-0.747-0.045-1.673-0.086-2.538-0.117l-0.041-2e-3 -0.011-0.039c-0.352-1.221-0.57-1.784-0.643-1.927l-3e-3 -7e-3 -1e-3 -7e-3c-0.019-0.089-0.028-0.177-0.028-0.262 0-0.22 0.057-0.419 0.141-0.569 0.085-0.149 0.195-0.256 0.325-0.27l4e-3 -1e-3 5e-3 1e-3c0.094 7e-3 0.389 0.071 0.805 0.165 1.239 0.283 3.511 0.835 3.973 0.868l-5e-3 0.056-4e-3 -0.056c0.591-0.039 0.981-0.697 0.981-1.356v-8e-3h0.057-0.057c3e-3 -0.046-0.046-0.15-0.147-0.273-0.703-0.884-3.732-2.904-5.82-2.899h-0.09c-1.194 1e-3 -1.971 0.671-2.457 1.451-0.487 0.777-0.673 1.665-0.672 2.06v0.045l1e-3 4e-3 -1e-3 3e-3 -1e-3 0.044c-3e-3 0.402 0.38 1.34 0.903 2.774l0.016 0.043-0.04 0.024-0.029-0.048-0.053 0.019c-0.521-1.437-0.906-2.357-0.91-2.812l3e-3 -0.053 0.055 5e-3 -0.055 2e-3 -2e-3 -0.05c1e-3 -0.423 0.191-1.319 0.689-2.12 0.497-0.799 1.313-1.504 2.553-1.503h0.045l-1e-3 0.056-1e-3 -0.056h0.047c1.232 1e-3 2.741 0.665 3.95 1.401 0.604 0.368 1.132 0.754 1.51 1.088 0.189 0.166 0.342 0.319 0.448 0.452 0.105 0.133 0.17 0.241 0.172 0.343v2e-3 -1e-3 7e-3c-1e-3 0.696-0.409 1.415-1.085 1.468l-5e-3 1e-3 -4e-3 -1e-3c-0.329-0.024-1.436-0.277-2.512-0.527-0.536-0.125-1.064-0.249-1.477-0.343-0.412-0.094-0.717-0.159-0.787-0.163l3e-3 -0.056 6e-3 0.056c-0.068 4e-3 -0.165 0.08-0.238 0.213-0.075 0.132-0.127 0.314-0.127 0.514 0 0.077 8e-3 0.157 0.026 0.239l-0.055 0.011 0.05-0.025c0.08 0.16 0.296 0.721 0.65 1.947l-0.054 0.015 2e-3 -0.056c0.866 0.032 1.793 0.073 2.541 0.118 0.75 0.046 1.31 0.093 1.476 0.143l-0.016 0.053 8e-3 -0.055c0.446 0.064 0.743 0.104 0.943 0.262 0.201 0.162 0.268 0.429 0.268 0.898l-1e-3 0.058h-0.056l0.056-6e-3c7e-3 0.075 0.011 0.145 0.011 0.211 1e-3 0.348-0.105 0.573-0.287 0.704-0.18 0.13-0.419 0.167-0.681 0.18l-3e-3 -0.056 4e-3 0.056c-0.056 4e-3 -0.134 6e-3 -0.231 6e-3 -0.615 0-2.01-0.071-3.261-0.135l2e-3 -0.057 0.054-0.015c0.319 1.105 0.561 1.834 0.646 2.198l-0.055 0.013-1e-3 -0.057c0.669-0.017 1.431-0.024 2.162-0.024 0.916 0 1.783 0.011 2.359 0.024l3e-3 1e-3h4e-3c0.499 0.071 0.92 0.258 1.222 0.484s0.488 0.489 0.506 0.73v7e-3c-0.017 0.233-0.163 0.458-0.328 0.665-0.166 0.205-0.354 0.392-0.46 0.528l-4e-3 5e-3 -5e-3 4e-3c-0.321 0.263-0.66 0.794-1.845 0.789-0.041 0-0.085 0-0.128-2e-3l1e-3 -0.056 2e-3 0.056-0.083 1e-3c-0.76 0-2.804-0.235-4.665-0.528-0.93-0.147-1.812-0.308-2.465-0.463-0.326-0.077-0.594-0.152-0.784-0.224-0.095-0.036-0.171-0.071-0.226-0.107-0.053-0.037-0.097-0.074-0.101-0.14l6e-3 -0.033 1e-3 -2e-3v-2e-3c0.174-0.418 0.28-0.766 0.509-1.039 0.23-0.274 0.58-0.456 1.213-0.544l7e-3 -1e-3 6e-3 1e-3c0.061 5e-3 0.093 0.011 0.113 0.015l0.034 5e-3c0.023 1e-3 0.081-5e-3 0.23-0.02l6e-3 0.056-0.054 0.017c-0.177-0.55-0.405-1.395-0.775-2.583l0.054-0.017-6e-3 0.056c-0.721-0.077-1.193-0.489-1.212-1.216v-5e-3c0.023-0.465 0.075-0.87 0.414-1.078l0.029 0.048-0.053 0.019z" fill="#851b1c"/>
     </g>
     <g transform="translate(488.01 727.89)">
      <path d="m0 0c-5.341 1.805-8.465 5.073-8.522 6.068 0.057 1.297 4.628 1.893 8.522 2.066zm-7.23 25.953c-4.267-0.044-6.606-1.35-6.844-1.808-0.229-0.39-0.934-1.237-0.904-1.549-0.03-0.641 1.288-0.883 1.549-0.904 0.928 0.021 1.34 0.397 1.292 0.646 0.048 0.541-1.241 0.363-1.292 0.904 0.051 0.714 3.211 0.998 5.812 0.903 13.716-0.137 27.797-9.205 27.76-17.301 0.037-5.18-5.683-8.204-12.267-8.263-2.137 0.059-3.526 0.262-4.648 0.515-0.027 1.408-0.101 3.317-0.129 5.811 0.028 1.231-1e-3 2.346 0 3.356 0.225 0.05 0.452 0.052 0.646 0 2.395 0.052 8.526-0.279 8.522-1.678 4e-3 -1.025-1.149-1.303-1.163-1.937 0.014-0.258 0.049-0.376 1.163-0.388 1.558 0.012 2.67 1.878 2.711 2.841-0.041 3.155-6.283 4.273-10.2 4.261-0.581 0.012-1.145-0.025-1.679 0-0.193 3.911-0.604 6.155-1.808 6.198-0.646-0.043-1.02-2.619-1.162-6.585-4.913-0.811-9.359-2.721-9.297-4.777-0.062-1.801 4.02-5.834 9.168-8.264 0.099-2.208 0.482-3.177 1.678-3.228 1.179 0.051 1.534 0.426 1.55 1.936 1.698-0.549 3.334-0.862 5.036-0.902 8.457 0.04 15.412 4.16 15.366 10.974 0.046 8.132-12.135 19.195-30.86 19.239" fill="#fff"/>
     </g>
     <g transform="translate(488.01 727.89)">
      <path d="m0 0 0.018 0.053c-2.664 0.901-4.775 2.166-6.225 3.329-0.726 0.581-1.286 1.137-1.667 1.607s-0.581 0.859-0.592 1.082l-0.056-3e-3 0.056-2e-3c0.01 0.287 0.284 0.559 0.777 0.797 1.473 0.715 4.776 1.086 7.692 1.215l-3e-3 0.056h-0.056v-8.134h0.056l0.018 0.053-0.018-0.053h0.056v8.193l-0.059-3e-3c-1.948-0.087-4.066-0.279-5.708-0.613-0.821-0.167-1.522-0.368-2.027-0.613-0.502-0.244-0.821-0.532-0.84-0.893v-6e-3c0.018-0.274 0.23-0.666 0.617-1.146 1.162-1.435 3.927-3.614 7.943-4.972l0.074-0.025v0.078zm-7.23 25.953-1e-3 0.056c-2.139-0.022-3.796-0.36-4.95-0.752-0.577-0.195-1.028-0.404-1.352-0.594-0.324-0.192-0.519-0.357-0.591-0.492l0.05-0.026-0.049 0.028c-0.108-0.185-0.335-0.486-0.534-0.781-0.198-0.298-0.374-0.579-0.378-0.776l1e-3 -0.026 0.056 6e-3 -0.056 3e-3v-0.025c0-0.177 0.092-0.324 0.225-0.441 0.398-0.347 1.172-0.479 1.376-0.497h5e-3c0.447 0.01 0.779 0.101 1.003 0.225 0.224 0.123 0.346 0.28 0.348 0.437l-5e-3 0.05-0.055-0.01 0.056-5e-3 1e-3 0.034c1e-3 0.152-0.099 0.258-0.224 0.325-0.189 0.102-0.455 0.151-0.676 0.226-0.11 0.037-0.208 0.08-0.277 0.134-0.068 0.054-0.108 0.113-0.116 0.195l-0.056-5e-3 0.056-4e-3c5e-3 0.116 0.142 0.247 0.408 0.36 0.794 0.34 2.603 0.509 4.36 0.508 0.332 0 0.663-6e-3 0.985-0.017h2e-3c6.837-0.068 13.769-2.361 18.987-5.644 5.221-3.284 8.721-7.559 8.718-11.569v-0.082c0-2.553-1.411-4.572-3.646-5.968-2.234-1.395-5.292-2.16-8.565-2.189v-0.056l2e-3 0.056c-2.134 0.059-3.52 0.262-4.638 0.514l-0.012-0.055 0.056 2e-3c-0.027 1.408-0.101 3.317-0.129 5.809h-0.056l0.056-2e-3c9e-3 0.402 0.012 0.791 0.012 1.168 0 0.755-0.012 1.462-0.012 2.123v0.067h-0.056l0.012-0.055c0.11 0.025 0.22 0.037 0.325 0.037 0.104 0 0.204-0.012 0.295-0.036l7e-3 -2e-3h8e-3c0.152 3e-3 0.319 5e-3 0.499 5e-3 1.322 0 3.326-0.093 4.996-0.349 0.834-0.128 1.586-0.297 2.124-0.513 0.269-0.108 0.484-0.228 0.628-0.357 0.145-0.13 0.217-0.263 0.218-0.406v-8e-3l0.056 6e-3h-0.056v-6e-3c-1e-3 -0.487-0.272-0.795-0.559-1.07-0.283-0.274-0.592-0.505-0.604-0.86v-4e-3c4e-3 -0.065 8e-3 -0.128 0.037-0.189 0.044-0.093 0.141-0.155 0.317-0.191 0.177-0.037 0.445-0.056 0.864-0.061h1e-3c0.803 7e-3 1.484 0.488 1.968 1.084 0.485 0.598 0.777 1.31 0.799 1.811v3e-3c-0.01 0.804-0.415 1.479-1.07 2.032-1.963 1.656-6.174 2.282-9.123 2.284h-0.064l1e-3 -0.056 1e-3 0.056c-0.086 2e-3 -0.172 3e-3 -0.257 3e-3 -0.34 0-0.672-0.012-0.995-0.012-0.144 0-0.286 2e-3 -0.426 9e-3l-2e-3 -0.056 0.056 3e-3c-0.097 1.957-0.247 3.498-0.527 4.561-0.14 0.532-0.312 0.944-0.529 1.232-0.217 0.286-0.487 0.447-0.806 0.458h-6e-3c-0.202-0.018-0.351-0.21-0.482-0.524-0.39-0.946-0.625-3.137-0.732-6.115l0.056-2e-3 -9e-3 0.056c-2.444-0.404-4.772-1.078-6.494-1.91-1.718-0.832-2.845-1.816-2.851-2.881l1e-3 -0.044 0.056 2e-3 -0.056 2e-3 -1e-3 -0.043c5e-3 -0.948 1.03-2.397 2.687-3.931 1.658-1.531 3.954-3.134 6.514-4.343l0.024 0.051-0.056-3e-3c0.05-1.106 0.169-1.905 0.433-2.444 0.263-0.54 0.686-0.814 1.299-0.837h5e-3c0.593 0.026 0.997 0.133 1.251 0.441 0.253 0.309 0.344 0.792 0.352 1.551h-0.056l-0.017-0.053c1.702-0.55 3.344-0.865 5.052-0.905h1e-3c4.224 0.02 8.075 1.055 10.875 2.937s4.547 4.619 4.547 8.026v0.067h-0.056 0.056v0.046c-2e-3 4.092-3.057 8.89-8.445 12.674-5.389 3.784-13.115 6.553-22.471 6.575h-1e-3l1e-3 -0.056v-0.056c9.334-0.022 17.037-2.785 22.406-6.555 5.37-3.77 8.399-8.547 8.398-12.582v-0.113c-1e-3 -3.367-1.722-6.064-4.498-7.932-2.775-1.867-6.606-2.899-10.812-2.919v-0.056l1e-3 0.056c-1.696 0.04-3.326 0.352-5.02 0.9l-0.072 0.024-1e-3 -0.077c-7e-3 -0.752-0.103-1.211-0.326-1.48-0.221-0.27-0.584-0.375-1.17-0.401l2e-3 -0.056 3e-3 0.056c-0.583 0.028-0.95 0.265-1.203 0.774-0.251 0.511-0.373 1.299-0.422 2.4l-1e-3 0.034-0.031 0.014c-2.549 1.204-4.837 2.802-6.486 4.324-1.65 1.52-2.655 2.977-2.65 3.849l1e-3 0.039v3e-3l-1e-3 0.041c-6e-3 0.976 1.076 1.956 2.787 2.78 1.707 0.825 4.028 1.498 6.463 1.9l0.045 7e-3 2e-3 0.046c0.071 1.982 0.2 3.616 0.391 4.757 0.096 0.57 0.207 1.017 0.333 1.319 0.125 0.306 0.265 0.451 0.386 0.455l-4e-3 0.056-2e-3 -0.056c0.283-0.011 0.516-0.146 0.72-0.414 0.617-0.805 0.891-2.801 1.034-5.731l2e-3 -0.051 0.051-2e-3c0.142-7e-3 0.286-9e-3 0.431-9e-3 0.325 0 0.657 0.011 0.995 0.011 0.084 0 0.169 0 0.254-2e-3h0.065c1.955 0 4.476-0.281 6.506-0.951 1.015-0.335 1.908-0.767 2.545-1.307 0.638-0.54 1.02-1.182 1.03-1.947h0.056l-0.056 3e-3c-0.019-0.463-0.303-1.166-0.774-1.745-0.471-0.58-1.126-1.037-1.881-1.042v-0.057 0.057c-0.554 5e-3 -0.839 0.039-0.972 0.096-0.067 0.029-0.092 0.057-0.109 0.091-0.017 0.035-0.022 0.083-0.025 0.147l-0.057-3e-3 0.057-1e-3c1e-3 0.278 0.274 0.502 0.569 0.781 0.29 0.277 0.593 0.618 0.593 1.151v0.011l-0.048-4e-3h0.048v4e-3l-0.048-4e-3h0.048v1e-3c0 0.184-0.096 0.348-0.255 0.49-0.558 0.492-1.925 0.793-3.453 0.986-1.527 0.19-3.209 0.261-4.37 0.261-0.181 0-0.349-1e-3 -0.501-5e-3l1e-3 -0.056 0.014 0.055c-0.101 0.026-0.21 0.039-0.323 0.039-0.114 0-0.232-0.013-0.349-0.039l-0.044-0.01-1e-3 -0.045v-0.067c0-0.663 0.013-1.37 0.013-2.123 0-0.377-3e-3 -0.765-0.012-1.165l-1e-3 -1e-3v-1e-3c0.029-2.494 0.103-4.404 0.13-5.811l1e-3 -0.044 0.043-0.01c1.125-0.254 2.519-0.457 4.659-0.517h2e-3c3.289 0.031 6.366 0.798 8.624 2.207 2.257 1.408 3.699 3.466 3.698 6.063v0.082c-2e-3 4.078-3.534 8.369-8.769 11.664-5.237 3.294-12.186 5.592-19.047 5.661v-0.056l2e-3 0.056c-0.324 0.012-0.656 0.018-0.99 0.018-1.178 0-2.374-0.074-3.286-0.227-0.455-0.077-0.84-0.172-1.118-0.291-0.275-0.119-0.458-0.259-0.476-0.455v-0.01c0.015-0.157 0.121-0.263 0.252-0.333 0.198-0.107 0.467-0.158 0.683-0.23 0.108-0.036 0.202-0.077 0.264-0.127 0.062-0.051 0.093-0.102 0.094-0.179l-1e-3 -0.024-1e-3 -8e-3 2e-3 -8e-3 2e-3 -0.029c2e-3 -0.091-0.084-0.227-0.289-0.339-0.203-0.113-0.519-0.201-0.951-0.211l1e-3 -0.056 4e-3 0.056c-0.121 0.01-0.508 0.074-0.855 0.211-0.174 0.068-0.338 0.155-0.455 0.259-0.118 0.104-0.187 0.22-0.187 0.356v0.019l1e-3 4e-3 -1e-3 5e-3 -1e-3 0.014c-4e-3 0.131 0.161 0.424 0.359 0.713 0.197 0.292 0.423 0.591 0.538 0.787l1e-3 2e-3 1e-3 1e-3c0.046 0.094 0.233 0.263 0.548 0.447 0.947 0.556 3.056 1.298 6.247 1.331l-1e-3 0.056v-0.056z" fill="#851b1c"/>
     </g>
     <g transform="translate(515.52 743.78)">
      <path d="m0 0c-0.326-0.021-0.765 0.089-1.162 0.258 0.882 1.877 4.662 4.727 6.198 4.649 0.709-0.079 1.146-0.393 1.162-1.033-0.227-2.389-3.638-4.097-6.198-3.874m-3.099 1.55c-0.137 0.238-0.2 0.478-0.129 0.774 0.041 1.312 2.191 3.368 3.486 3.228 0.199 0.035 0.739-0.012 1.163-0.129h0.128c-2.041-1.015-3.631-2.602-4.648-3.873m8.91 4.777c-0.131-8e-3 -0.263-3e-3 -0.387 0 0.03 0.528-0.947 1.13-2.583 1.291-3.131 0.172-7.707-2.697-7.876-5.551-0.092-0.875 0.247-1.748 0.903-2.454-0.141-1.475 0.139-2.457 0.904-2.453 0.345-0.081 0.713 0.273 1.162 1.032 0.48-0.231 1.035-0.358 1.679-0.387 3.851-0.286 8.157 4.097 8.264 5.939 0.133 1.586-0.866 2.482-2.066 2.583" fill="#fff"/>
     </g>
     <g transform="translate(515.52 743.78)">
      <path d="m0 0-4e-3 0.056-0.078-2e-3c-0.302-1e-3 -0.699 0.102-1.058 0.256l-0.022-0.052 0.051-0.024c0.426 0.91 1.563 2.073 2.786 2.999 1.222 0.928 2.541 1.622 3.298 1.619l0.06-1e-3 3e-3 0.056-6e-3 -0.056c0.348-0.039 0.624-0.135 0.811-0.293 0.187-0.159 0.293-0.378 0.301-0.686l0.056 2e-3 -0.056 5e-3c-0.103-1.099-0.901-2.061-1.99-2.748-1.087-0.686-2.459-1.095-3.692-1.094-0.155 0-0.306 6e-3 -0.455 0.019h-9e-3l4e-3 -0.056-5e-3 -0.056c0.152-0.013 0.307-0.02 0.465-0.02 1.257 1e-3 2.646 0.415 3.753 1.112 1.105 0.698 1.931 1.683 2.041 2.833l1e-3 3e-3 -1e-3 3e-3c-7e-3 0.333-0.128 0.59-0.341 0.769-0.212 0.178-0.51 0.278-0.871 0.319h-3e-3l-0.066 2e-3c-0.816-3e-3 -2.131-0.709-3.365-1.642-1.233-0.936-2.377-2.099-2.821-3.041l-0.025-0.052 0.054-0.023c0.371-0.158 0.775-0.265 1.102-0.266l0.085 3e-3 -3e-3 0.056-5e-3 -0.056zm-3.099 1.55 0.049 0.028c-0.096 0.166-0.151 0.326-0.151 0.506 0 0.072 8e-3 0.147 0.028 0.226l1e-3 6e-3v6e-3c0.017 0.607 0.522 1.412 1.188 2.055 0.664 0.645 1.489 1.128 2.113 1.126 0.042 0 0.083-2e-3 0.123-7e-3h8e-3l8e-3 1e-3c0.038 7e-3 0.095 0.01 0.163 0.01 0.249 1e-3 0.649-0.048 0.975-0.138l7e-3 -2e-3h0.136v0.056l-0.025 0.05c-2.051-1.02-3.647-2.613-4.667-3.888l0.044-0.035 0.049 0.028-0.049-0.028 0.044-0.035c1.013 1.267 2.599 2.848 4.629 3.857l-0.025 0.107h-0.128v-0.056l0.015 0.054c-0.339 0.093-0.743 0.143-1.005 0.143-0.073 0-0.134-4e-3 -0.183-0.013l0.01-0.055 6e-3 0.056c-0.044 5e-3 -0.089 7e-3 -0.135 7e-3 -0.679-2e-3 -1.512-0.502-2.191-1.157-0.677-0.658-1.199-1.47-1.222-2.133l0.056-1e-3 -0.054 0.013c-0.022-0.088-0.032-0.172-0.032-0.253 0-0.204 0.065-0.386 0.167-0.562l0.041-0.071 0.051 0.064zm8.91 4.777-3e-3 0.056c-0.05-3e-3 -0.101-4e-3 -0.151-4e-3 -0.078 0-0.156 2e-3 -0.233 4e-3v-0.056l0.056-3e-3v0.027c-3e-3 0.298-0.266 0.583-0.717 0.82-0.453 0.236-1.105 0.423-1.916 0.503h-3e-3c-0.091 5e-3 -0.183 8e-3 -0.276 8e-3 -1.575-1e-3 -3.442-0.701-4.941-1.75-1.498-1.049-2.633-2.447-2.719-3.862l0.057-3e-3 -0.057 5e-3c-9e-3 -0.096-0.014-0.192-0.014-0.287 0-0.795 0.34-1.572 0.933-2.211l0.041 0.039-0.056 5e-3c-0.024-0.246-0.035-0.478-0.035-0.695 0-0.546 0.074-0.994 0.235-1.312 0.159-0.319 0.417-0.509 0.756-0.507h4e-3v0.056l-0.012-0.055 0.109-0.013c0.363 7e-3 0.702 0.382 1.113 1.072l-0.048 0.028-0.025-0.05c0.488-0.235 1.052-0.364 1.702-0.393l2e-3 0.056-4e-3 -0.056c0.122-9e-3 0.245-0.014 0.367-0.014 1.898 1e-3 3.856 1.051 5.355 2.321 1.499 1.273 2.544 2.758 2.602 3.685l-0.056 3e-3 0.055-4e-3c8e-3 0.097 0.012 0.191 0.012 0.283 3e-3 1.44-0.977 2.266-2.128 2.36h-8e-3l3e-3 -0.056-5e-3 -0.056c1.105-0.096 2.024-0.864 2.026-2.248 0-0.088-3e-3 -0.18-0.012-0.274v-1e-3c-0.045-0.858-1.074-2.35-2.561-3.607-1.486-1.259-3.427-2.294-5.283-2.293-0.12 0-0.24 4e-3 -0.359 0.013h-1e-3c-0.639 0.029-1.186 0.155-1.658 0.382l-0.046 0.022-0.027-0.044c-0.403-0.687-0.745-1.023-1.016-1.016l-0.084 9e-3 -7e-3 2e-3h-0.01c-0.296 1e-3 -0.506 0.152-0.656 0.445-0.148 0.293-0.223 0.727-0.223 1.262 0 0.213 0.012 0.442 0.035 0.684l2e-3 0.025-0.017 0.019c-0.577 0.622-0.903 1.371-0.903 2.134 0 0.092 5e-3 0.184 0.014 0.276v2e-3c0.079 1.358 1.188 2.74 2.672 3.777 1.482 1.038 3.334 1.73 4.876 1.73 0.091 0 0.181-3e-3 0.27-8e-3l3e-3 0.056-6e-3 -0.056c0.801-0.078 1.44-0.264 1.876-0.491 0.438-0.227 0.66-0.497 0.657-0.72l-1e-3 -0.021-3e-3 -0.058 0.058-1e-3c0.076-2e-3 0.155-4e-3 0.235-4e-3 0.052 0 0.104 1e-3 0.157 4e-3l-3e-3 0.056-5e-3 -0.056z" fill="#851b1c"/>
     </g>
     <g transform="translate(561.61 729.31)">
      <path d="m0 0c-0.142 0.067-0.322 0.097-0.517 0.13 2.946 5.649 5.16 6.954 5.681 6.972 0.363-0.05 0.621-0.765 0.646-1.549-0.187-3.827-3.876-5.558-5.81-5.553m5.036 9.685c-1.67 4e-3 -5.173-2.898-8.135-7.489-0.127 0.393-0.218 0.762-0.259 1.162 0.112 1.645 2.819 5.254 2.841 6.585 0.039 0.389 0.054 0.602-0.387 0.646-0.796-2e-3 -4.638-4.374-4.777-8.264-0.031-0.994 0.345-2.042 1.032-2.97-2.807-5.812-2.874-9.612-2.969-11.104-0.066-1.192 1.707-2.986 2.453-2.97 0.339-0.054 0.474 0.745 0.645 2.066 0.358 2.33 0.755 5.969 2.582 9.814 0.195-0.073 0.405-0.178 0.647-0.13 2.805-0.154 8.429 2.511 8.65 8.394 0.038 1.574-1.301 4.17-2.323 4.26" fill="#fff"/>
     </g>
     <g transform="translate(561.61 729.31)">
      <path d="m0 0 0.024 0.051c-0.152 0.071-0.337 0.101-0.531 0.135l-0.01-0.056 0.05-0.026c1.471 2.821 2.758 4.555 3.74 5.585 0.979 1.03 1.667 1.353 1.893 1.357l-2e-3 0.056-8e-3 -0.056c0.145-0.016 0.296-0.187 0.405-0.464 0.11-0.275 0.181-0.644 0.193-1.031l0.056 2e-3 -0.056 3e-3c-0.093-1.892-1.048-3.264-2.222-4.168-1.175-0.903-2.571-1.332-3.524-1.332h-8e-3v-0.056l0.024 0.051-0.024-0.051v-0.056h8e-3c0.985 1e-3 2.396 0.437 3.592 1.355 1.195 0.918 2.173 2.323 2.266 4.251v5e-3c-0.013 0.398-0.084 0.777-0.2 1.069-0.117 0.289-0.277 0.501-0.494 0.534h-0.01c-0.295-0.014-0.975-0.353-1.97-1.392-0.991-1.039-2.284-2.782-3.759-5.61l-0.035-0.068 0.076-0.013c0.194-0.034 0.371-0.064 0.502-0.126l0.011-5e-3h0.013zm5.036 9.685v0.056h-4e-3c-0.866-3e-3 -2.16-0.737-3.62-2.038-1.458-1.303-3.076-3.179-4.559-5.477l0.048-0.03 0.053 0.017c-0.126 0.391-0.216 0.755-0.256 1.15l-0.056-5e-3 0.056-4e-3c0.052 0.798 0.754 2.115 1.448 3.388 0.692 1.277 1.378 2.504 1.393 3.2l-0.056 1e-3 0.056-6e-3c0.01 0.098 0.018 0.185 0.018 0.264 0 0.119-0.019 0.224-0.093 0.305-0.075 0.079-0.191 0.121-0.363 0.138l-3e-3 1e-3h-2e-3c-0.125-2e-3 -0.274-0.077-0.461-0.206-1.287-0.908-4.245-4.677-4.373-8.112v-1e-3l-1e-3 -0.116c0-0.974 0.378-1.988 1.045-2.888l0.045 0.033-0.05 0.025c-2.812-5.819-2.881-9.634-2.975-11.125v-1e-3l-2e-3 -0.068c2e-3 -0.62 0.436-1.35 0.96-1.935 0.527-0.582 1.134-1.021 1.541-1.026h0.011l-1e-3 0.056-9e-3 -0.055 0.041-3e-3c0.105-1e-3 0.19 0.067 0.253 0.169 0.19 0.306 0.29 0.987 0.415 1.948l-0.055 7e-3 0.055-8e-3c0.359 2.331 0.756 5.962 2.577 9.798l-0.05 0.024-0.02-0.052c0.157-0.059 0.335-0.145 0.541-0.146 0.044 0 0.09 4e-3 0.136 0.013l-0.01 0.055-4e-3 -0.056c0.078-4e-3 0.158-6e-3 0.239-6e-3 1.454 0 3.511 0.674 5.24 2.066 1.727 1.393 3.123 3.509 3.231 6.387v1e-3l1e-3 0.069c-1e-3 0.805-0.333 1.836-0.791 2.682-0.462 0.845-1.038 1.513-1.584 1.567h-5e-3v-0.056l-5e-3 -0.056c0.461-0.034 1.047-0.673 1.495-1.508 0.452-0.832 0.778-1.854 0.777-2.629v-0.066l0.056-1e-3 -0.056 2e-3c-0.107-2.843-1.482-4.927-3.19-6.304-1.707-1.377-3.749-2.043-5.169-2.042-0.079 0-0.157 2e-3 -0.232 7e-3h-7e-3l-8e-3 -2e-3 -0.114-0.011c-0.174 0-0.338 0.076-0.502 0.139l-0.048 0.018-0.022-0.046c-1.831-3.855-2.228-7.502-2.587-9.83v-2e-3c-0.083-0.638-0.157-1.154-0.248-1.507-0.046-0.175-0.096-0.309-0.151-0.395-0.055-0.087-0.105-0.117-0.158-0.117l-0.023 2e-3 -5e-3 1e-3h-5e-3l-9e-3 -1e-3c-0.33-5e-3 -0.947 0.416-1.457 0.989-0.515 0.571-0.934 1.293-0.932 1.86l1e-3 0.062v-1e-3c0.096 1.494 0.162 5.279 2.965 11.084l0.014 0.03-0.02 0.028c-0.655 0.884-1.023 1.876-1.023 2.821l2e-3 0.113v-3e-3 3e-3c0.068 1.927 1.058 3.987 2.133 5.56 0.536 0.787 1.093 1.453 1.565 1.921 0.235 0.234 0.449 0.418 0.627 0.543 0.177 0.125 0.321 0.187 0.396 0.185v0.057l-6e-3 -0.056c0.16-0.016 0.246-0.055 0.291-0.104 0.046-0.048 0.064-0.119 0.064-0.228 0-0.071-8e-3 -0.156-0.018-0.253v-4e-3c-7e-3 -0.635-0.686-1.877-1.38-3.149-0.693-1.276-1.401-2.586-1.461-3.434v-4e-3l1e-3 -5e-3c0.04-0.405 0.133-0.778 0.26-1.173l0.036-0.113 0.065 0.1c1.477 2.289 3.089 4.158 4.539 5.453 1.448 1.295 2.739 2.013 3.545 2.01h3e-3l1e-3 0.056-5e-3 -0.056z" fill="#851b1c"/>
     </g>
     <g transform="translate(571.86 705.94)">
      <path d="m0 0-1.805 0.844 4.174-6.562-4.705 5.57 0.33-1.443-0.641 1.814-0.266 0.306-0.384-2.245 0.119 2.549-0.05-0.034-1.303-2.131 0.86 1.817-6.705-4.251 5.619 4.74-1.365-0.3 1.72 0.601 0.371 0.311-2.216 0.379 2.344-0.14-0.135 0.224-1.824 1.151 1.589-0.75-4.15 6.529 4.947-5.842-0.381 1.653 0.739-2.089 0.144-0.17 0.409 2.385-0.125-2.332 0.242 0.146 1.117 1.801-0.745-1.562 6.399 4.058-5.806-4.896 1.743 0.395-2.173-0.797-0.132-0.093 2.43-0.402-2.506 0.126 0.047-0.065z" fill="#fff"/>
     </g>
     <g transform="translate(573.36 700.8)">
      <path d="m0 0-2.759 3.612c0.026 8e-3 0.05 0.015 0.076 0.023l1.328-1.573 1.355-2.062m-11.67 1.895 0.765 0.579h0.125l-0.89-0.579" fill="#fff"/>
     </g>
    </g>
   </g>
   <g transform="matrix(1.25 0 0 -1.25 -7.5 1027.4)">
    <path d="m568.64 706.74-0.074-0.12c0.03-3e-3 0.06-4e-3 0.089-4e-3h0.027l8e-3 0.159zm-6.182-3.466h0.125l0.923 0.601 2.222 1.873zm8.146 1.139c0.025 7e-3 0.05 0.014 0.075 0.023l-0.959 1.133z" fill="url(#linearGradient11359)"/>
   </g>
   <g transform="matrix(1.25 0 0 -1.25 -7.5 1027.4)">
    <path d="m563.79 714.31 1.201-1.831-0.976 1.535z" fill="url(#linearGradient11379)"/>
   </g>
   <g transform="matrix(1.25 0 0 -1.25 -7.5 1027.4)">
    <g clip-path="url(#clipPath11391)">
     <g transform="translate(567.7 707.42)">
      <path d="m0 0c-3e-3 0.045-4e-3 0.089-2e-3 0.133l0.134-0.023-0.132-0.11m0.259 0.349-0.235 0.014c0.016 0.079 0.041 0.155 0.073 0.228l0.027-0.018 0.135-0.224" fill="#fff"/>
     </g>
     <g transform="translate(572 702.86)">
      <path d="m0 0-1.328 1.573-0.959 1.134-0.821 1.076c-0.074-0.017-0.146-0.027-0.217-0.029l8e-3 0.158-0.05-0.034-0.074-0.12c-0.18 0.017-0.354 0.086-0.52 0.208l-4.54-2.954 2.221 1.874 1.996 1.51c-8e-3 0.054-0.014 0.107-0.017 0.159l0.131 0.11-0.134 0.023c3e-3 0.08 0.011 0.156 0.026 0.23l0.235-0.014-0.134 0.224-0.027 0.018c0.016 0.037 0.035 0.073 0.055 0.109l-2.862 4.363-0.976 1.535 4.263-5.599c0.053 9e-3 0.109 0.014 0.166 0.014 0.202 0 0.432-0.058 0.689-0.172l6.197 4.087-5.915-4.546c0.111-0.276 0.078-0.56-0.096-0.854l2.683-4.083" fill="#fff"/>
     </g>
     <g transform="translate(403.93 763.69)">
      <path d="m0 0-1.864 0.704 4.66-6.226-5.114 5.196 0.438-1.413-0.776 1.76-0.289 0.284-0.213-2.267-0.075 2.551-0.046-0.038-1.138-2.224 0.72 1.877-6.363-4.749 5.242 5.153-1.338-0.402 1.669 0.73 0.347 0.338-2.24 0.21 2.349 0.038-0.152 0.214-1.907 1.007 1.642-0.626-4.635 6.195 5.378-5.449-0.506 1.62 0.896-2.028 0.156-0.158 0.227 2.409 0.053-2.335 0.229 0.165 0.978 1.881-0.624-1.615 6.07 4.533-5.415-5.324 1.707 0.527-2.105-0.96-0.125-0.104 2.453-0.215-2.507-0.065 0.051-0.061z" fill="#fff"/>
     </g>
    </g>
   </g>
   <g transform="matrix(1.25 0 0 -1.25 -7.5 1027.4)">
    <path d="m404.2 761.53 1.393-1.86 0.585-0.64z" fill="url(#linearGradient11379)"/>
   </g>
   <g transform="matrix(1.25 0 0 -1.25 -7.5 1027.4)">
    <g clip-path="url(#clipPath11431)">
     <g transform="translate(394.39 759.9)">
      <path d="m0 0 3.092 2.796-1.876-1.844z" fill="#fff"/>
     </g>
    </g>
   </g>
   <g transform="matrix(1.25 0 0 -1.25 -7.5 1027.4)">
    <path d="m400.59 766.2 0.025-0.057 0.157-0.158 0.021 0.22c-0.025 2e-3 -0.048 3e-3 -0.071 3e-3 -0.045 0-0.09-3e-3 -0.132-8e-3m0.461-0.141 0.114 0.082c-0.039 0.011-0.078 0.021-0.117 0.029z" fill="url(#linearGradient11359)"/>
   </g>
   <g transform="matrix(1.25 0 0 -1.25 -7.5 1027.4)">
    <g clip-path="url(#clipPath11463)">
     <g transform="translate(398.61 768.19)">
      <path d="m 0,0 -2.008,2.035 -1.129,1.43 3.149,-3.46 C 0.008,0.003 0.004,0.002 0,0" fill="#fff"/>
     </g>
    </g>
   </g>
   <g transform="matrix(1.25 0 0 -1.25 -7.5 1027.4)">
    <path d="m398.61 768.19 0.205-0.207-0.193 0.211c-4e-3 -1e-3 -8e-3 -3e-3 -0.012-4e-3" fill="url(#linearGradient11359)"/>
   </g>
   <g transform="matrix(1.25 0 0 -1.25 -7.5 1027.4)">
    <g clip-path="url(#clipPath11495)">
     <g transform="translate(406.49 770.19)">
      <path d="M 0,0 0.651,0.516 0.099,0.009 C 0.065,0.006 0.034,0.003 0,0" fill="#fff"/>
     </g>
    </g>
   </g>
   <g transform="matrix(1.25 0 0 -1.25 -7.5 1027.4)">
    <path d="m406.49 770.19-1.599-1.268 1.642 1.226 0.056 0.052c-0.034-3e-3 -0.065-6e-3 -0.099-0.01" fill="url(#linearGradient11359)"/>
   </g>
  </g>
 </g>
</svg>
