<svg width="800" height="301.11" version="1.1" viewBox="0 0 211.67 79.668" xmlns="http://www.w3.org/2000/svg">
 <g transform="translate(123.7 112.04)">
  <g transform="matrix(6.203 0 0 -6.203 -426.14 1414.5)">
   <g transform="translate(51.235 233.34)">
    <path d="m0 0v3.615l-0.155-0.857-0.536-2.758h-0.568l-0.535 2.758-0.158 0.857v-3.615h-0.525v4.714h0.836l0.531-2.933 0.155-0.859 0.149 0.862 0.522 2.93h0.823v-4.714z" fill="#1d6434"/>
   </g>
   <g transform="translate(53.452 236.97)">
    <path d="m0 0-0.333-2.019h0.655zm0.6-3.624-0.19 1.08h-0.833l-0.2-1.08h-0.559l0.884 4.714h0.625l0.877-4.714z" fill="#1d6434"/>
   </g>
   <g transform="translate(56.66 237.13)">
    <path d="m0 0c0 0.248-0.107 0.396-0.362 0.396h-0.551v-1.646h0.494c0.264 0 0.419 0.168 0.419 0.463zm0.613-3.828c-0.431 0-0.591 0.127-0.591 0.564v1.075c0 0.284-0.129 0.47-0.405 0.47h-0.53v-2.066h-0.595v4.714h1.154c0.6 0 0.943-0.298 0.943-0.952v-0.713c0-0.403-0.13-0.658-0.504-0.75 0.368-0.082 0.523-0.397 0.523-0.737v-1.006c0-0.123 0.043-0.186 0.161-0.186v-0.413z" fill="#1d6434"/>
   </g>
   <g transform="translate(59.852 233.34)">
    <path d="m0 0-0.127 0.318c-0.135-0.271-0.418-0.402-0.78-0.402-0.634 0-1.021 0.451-1.021 1.126v2.63c0 0.62 0.394 1.125 1.114 1.125 0.721 0 1.055-0.459 1.055-1.125v-0.464h-0.553v0.544c0 0.269-0.153 0.506-0.502 0.506-0.352 0-0.523-0.252-0.523-0.516v-2.775c0-0.283 0.164-0.53 0.523-0.53 0.354 0 0.524 0.247 0.524 0.53v0.909h-0.503v0.497h1.068v-2.373z" fill="#1d6434"/>
   </g>
   <g transform="translate(61.808 236.97)">
    <path d="m0 0-0.334-2.019h0.653zm0.601-3.624-0.191 1.08h-0.836l-0.198-1.08h-0.558l0.884 4.714h0.622l0.879-4.714z" fill="#1d6434"/>
   </g>
   <g transform="translate(65.016 237.13)">
    <path d="m0 0c0 0.248-0.108 0.396-0.36 0.396h-0.555v-1.646h0.498c0.259 0 0.417 0.168 0.417 0.463zm0.616-3.828c-0.432 0-0.595 0.127-0.595 0.564v1.075c0 0.284-0.129 0.47-0.405 0.47h-0.531v-2.066h-0.593v4.714h1.153c0.602 0 0.94-0.298 0.94-0.952v-0.713c0-0.403-0.125-0.658-0.5-0.75 0.368-0.082 0.522-0.397 0.522-0.737v-1.006c0-0.123 0.042-0.186 0.164-0.186v-0.413z" fill="#1d6434"/>
   </g>
   <path d="m66.282 238.06h0.596v-4.714h-0.596z" fill="#1d6434"/>
   <g transform="translate(68.762 237.51)">
    <path d="m0 0v-4.166h-0.586v4.166h-0.804v0.548h2.173v-0.548z" fill="#1d6434"/>
   </g>
   <g transform="translate(70.815 236.97)">
    <path d="m0 0-0.333-2.019h0.65zm0.601-3.624-0.192 1.08h-0.835l-0.2-1.08h-0.558l0.886 4.714h0.623l0.877-4.714z" fill="#1d6434"/>
   </g>
   <g transform="translate(73.687 233.34)">
    <path d="m0 0h-0.577l-0.906 4.714h0.615l0.596-3.624 0.622 3.624h0.589z" fill="#1d6434"/>
   </g>
   <path d="m75.122 238.06h0.596v-4.714h-0.596z" fill="#1d6434"/>
   <g transform="translate(76.419 233.34)">
    <path d="m0 0v4.714h0.588v-4.169h1.224v-0.545z" fill="#1d6434"/>
   </g>
   <g transform="translate(78.727 233.34)">
    <path d="m0 0v4.714h0.589v-4.169h1.223v-0.545z" fill="#1d6434"/>
   </g>
   <g transform="translate(81.038 233.34)">
    <path d="m0 0v4.714h1.843v-0.539h-1.259v-1.468h0.915v-0.518h-0.915v-1.654h1.259v-0.535z" fill="#1d6434"/>
   </g>
  </g>
  <g transform="matrix(6.203 0 0 -6.203 -426.14 1414.5)">
   <g transform="translate(76.734 239.83)">
    <path d="m0 0c-0.233 0-0.421 0.051-0.579 0.164-0.201 0.156-0.283 0.359-0.24 0.627 0.042 0.295 0.171 0.574 0.385 0.84 0.213 0.274 0.487 0.51 0.815 0.695 0.306 0.182 0.602 0.265 0.907 0.265 0.256 0 0.446-0.052 0.592-0.163 0.192-0.153 0.272-0.358 0.234-0.617-0.078-0.514-0.421-0.991-1.018-1.418-0.373-0.27-0.733-0.393-1.096-0.393m-6.211 2.088c-0.018-0.152-0.117-0.358-0.288-0.606-0.202-0.293-0.463-0.565-0.772-0.8-0.498-0.379-0.983-0.569-1.443-0.569-0.169 0-0.292 0.033-0.39 0.112-0.112 0.089-0.16 0.2-0.14 0.336 0.036 0.215 0.167 0.488 0.404 0.804 0.291 0.391 0.673 0.702 1.141 0.924 0.341 0.153 0.649 0.236 0.912 0.236 0.198 0 0.334-0.031 0.423-0.089 0.128-0.09 0.178-0.204 0.153-0.348m-5.52-0.46c-0.026-0.169-0.162-0.393-0.401-0.659-0.27-0.287-0.624-0.524-1.068-0.696-0.338-0.14-0.652-0.21-0.94-0.21-0.191 0-0.345 0.029-0.467 0.098-0.146 0.069-0.204 0.161-0.185 0.29 0.033 0.215 0.19 0.445 0.467 0.682 0.261 0.232 0.617 0.429 1.054 0.596 0.372 0.138 0.69 0.208 0.96 0.208 0.199 0 0.346-0.032 0.446-0.078 0.108-0.058 0.147-0.13 0.134-0.231m-6.841-0.443-0.085-1.081c-6e-3 -0.137 9e-3 -0.25 0.042-0.35h-4.01c0.589 0.246 1.114 0.568 1.583 0.948 0.316 0.256 0.598 0.503 0.986 0.963l0.091 0.124c0.081-0.06 0.186-0.109 0.32-0.147 0.198-0.053 0.454-0.08 0.795-0.08 0.094 0 0.2 2e-3 0.315 0.01-9e-3 -0.115-0.018-0.242-0.037-0.387m22.183-1.607v5e-3l-0.011 0.038-0.022 0.038-3e-3 4e-3 -0.023 0.031-0.013 4e-3 -0.019 0.019-0.025 0.012-8e-3 8e-3 -0.039 7e-3h-1e-3l-0.044 0.01h-2.18c0.241 0.103 0.474 0.221 0.709 0.359 0.427 0.253 0.775 0.535 1.038 0.845 0.265 0.312 0.424 0.626 0.468 0.924 0.055 0.384-0.085 0.702-0.42 0.94-0.338 0.248-0.788 0.371-1.337 0.371-0.788 0-1.577-0.236-2.359-0.699-0.407-0.239-0.741-0.529-1.008-0.852-0.259-0.326-0.418-0.642-0.465-0.96-0.047-0.351 0.064-0.645 0.347-0.883l0.062-0.045h-1.591c0.247 0.103 0.352 0.185 0.368 0.283 0.022 0.149-0.127 0.252-0.368 0.252-0.065 0-0.134-0.014-0.251-0.049l0.018 0.026 1.506 2.089c0.261 0.352 0.285 0.42 0.291 0.467 0.021 0.135-0.085 0.286-0.454 0.286-0.132 0-0.343-0.022-0.91-0.241-0.713-0.276-0.861-0.39-0.877-0.51-0.025-0.15 0.119-0.255 0.351-0.255l0.172 0.025-0.035-0.057-1.321-1.966-0.062-0.086c-0.1-0.14-0.138-0.217-0.167-0.264h-0.912c0.591 0.248 0.718 0.359 0.735 0.467 0.021 0.145-0.126 0.246-0.364 0.246-0.091 0-0.179-0.018-0.262-0.049l-0.206-0.087 0.017 0.017 3.562 4.906c0.209 0.293 0.233 0.358 0.237 0.396 0.026 0.182-0.133 0.297-0.402 0.297-0.099 0-0.268-0.025-0.782-0.176-0.938-0.279-1.136-0.417-1.159-0.562-0.02-0.141 0.115-0.238 0.324-0.238 0.069 0 0.161 0.017 0.397 0.09l-0.054-0.077s-1.162-1.618-1.468-2.046c-0.221 0.156-0.512 0.24-0.871 0.24-0.407 0-0.85-0.084-1.326-0.244-0.838-0.287-1.569-0.749-2.184-1.35-0.44-0.44-0.692-0.845-0.741-1.199-0.035-0.224 0.037-0.44 0.207-0.631h-0.899c0.137 0.07 0.244 0.149 0.258 0.248 0.02 0.143-0.124 0.238-0.355 0.238l-0.12-0.01c0.064 0.092 0.896 1.208 0.896 1.208 0.231 0.314 0.761 0.963 0.791 1.16 0.04 0.253-0.065 0.475-0.31 0.652-0.327 0.244-0.806 0.365-1.421 0.365-0.667 0-1.06-8e-3 -1.779-0.306-0.352-0.143-0.981-0.416-0.661-0.789 0.165-0.194 0.561 0.057 0.748 0.127 0.503 0.175 0.88 0.292 1.427 0.33 0.242 0.013 0.437-0.043 0.582-0.133 0.098-0.061 0.168-0.156-0.141-0.498-0.25 0.084-0.505 0.129-0.774 0.129-0.143 0-0.288-0.01-0.436-0.028-0.775-0.133-1.457-0.38-1.892-0.565-0.365-0.177-0.667-0.334-0.899-0.491-0.482-0.327-0.757-0.689-0.816-1.069-0.034-0.222 0.035-0.408 0.198-0.568h-0.995c0.111 0.054 0.216 0.1 0.34 0.163 0.133 0.067 0.309 0.171 0.329 0.308 0.021 0.141-0.115 0.242-0.341 0.242-0.093 0-0.201-0.022-0.514-0.147l-0.133-0.054c-0.01 0.023-0.029 0.1-0.029 0.296 0.019 0.479 7e-3 0.889-0.024 1.221 0.647 0.192 1.169 0.403 1.541 0.637 0.687 0.439 1.083 0.945 1.165 1.514 0.092 0.615-0.272 1.156-1.083 1.591-0.436 0.235-1.004 0.422-1.694 0.556-0.682 0.131-1.415 0.194-2.185 0.194-0.848 0-1.699-0.08-2.541-0.24-1.199-0.23-2.155-0.604-2.848-1.115-0.462-0.348-0.728-0.711-0.779-1.082-0.058-0.363 0.102-0.672 0.472-0.915 0.511-0.332 1.221-0.495 2.117-0.495 0.233 0 0.426 8e-3 0.581 0.025 0.273 0.035 0.38 0.159 0.398 0.254 0.017 0.115-0.061 0.209-0.216 0.242-0.062 0.017-0.155 0.026-0.407 0.022-0.53-5e-3 -0.945 0.092-1.266 0.299-0.28 0.173-0.4 0.384-0.362 0.64 0.041 0.25 0.21 0.503 0.518 0.755 0.412 0.345 1.034 0.62 1.844 0.81 0.684 0.163 1.402 0.248 2.139 0.248 0.568 0 1.129-0.054 1.665-0.153 0.59-0.107 1.076-0.25 1.437-0.435 0.673-0.348 0.959-0.777 0.879-1.318-0.051-0.36-0.268-0.698-0.643-1.01-0.174-0.147-0.342-0.264-0.499-0.342-0.106-0.051-0.252-0.106-0.409-0.154-0.247 0.336-0.675 0.511-1.255 0.511-0.185 0-0.364-0.025-0.529-0.07l1.476 2.009c0.257 0.349 0.259 0.386 0.268 0.421 0.024 0.151-0.127 0.261-0.382 0.261-0.107 0-0.284-0.025-0.765-0.18-0.334-0.108-0.675-0.234-1.023-0.378-0.124-0.057-0.296-0.14-0.315-0.266-0.022-0.15 0.122-0.251 0.361-0.251 0.084 0 0.187 0.017 0.31 0.061l-0.039-0.057c-0.882-1.225-1.597-2.322-2.329-3.091-0.434-0.457-0.632-0.556-1.007-0.768-0.286-0.161-0.668-0.347-0.998-0.45-0.242-0.081-0.462-0.178-1.038-0.239-0.382-0.035-0.434-0.241-0.438-0.289-0.021-0.119 0.083-0.268 0.438-0.268 0.136 0 0.304 0.01 0.497 0.04h27.629c0.126 0 0.225 0.097 0.225 0.222l-5e-3 0.049" fill="#18498b"/>
   </g>
   <g transform="translate(74.349 243.51)">
    <path d="m0 0c-0.092-0.047-0.209-0.121-0.22-0.217-0.023-0.142 0.126-0.242 0.352-0.242 0.134 0 0.283 0.049 0.553 0.18 0.566 0.269 0.876 0.555 0.919 0.838l-0.047 0.265c-0.109 0.198-0.298 0.24-0.43 0.24-0.093 0-0.191-0.024-0.334-0.086l-0.454-0.191h3e-3c-0.152-0.067-0.302-0.148-0.32-0.262-0.018-0.104 0.091-0.176 0.184-0.234l0.037-0.047c-0.012-0.077-0.092-0.158-0.243-0.244" fill="#18498b"/>
   </g>
  </g>
 </g>
</svg>
