<svg width="800" height="276.12" version="1.1" viewBox="0 0 211.67 73.057" xmlns="http://www.w3.org/2000/svg">
 <g transform="translate(197.25 40.66)">
  <g transform="matrix(5.5845 0 0 -5.5845 -148.9 -27.79)">
   <path d="m0 0c0.179 0.229 0.398 0.346 0.65 0.346 0.232 0 0.43-0.098 0.596-0.284 0.171-0.191 0.256-0.417 0.256-0.689 0-0.142-0.024-0.246-0.076-0.307l-0.207-0.087h-1.494c8e-3 0.455 0.099 0.793 0.275 1.021m0.666-3.086c0.682 0 1.199 0.348 1.558 1.045l-0.241 0.104c-0.29-0.547-0.676-0.825-1.157-0.825-0.326 0-0.597 0.125-0.81 0.364-0.182 0.218-0.282 0.589-0.291 1.113h2.472c-5e-3 0.346-0.054 0.627-0.136 0.853-0.124 0.323-0.305 0.569-0.553 0.735-0.242 0.176-0.53 0.258-0.862 0.258-0.457 0-0.841-0.168-1.15-0.516-0.312-0.344-0.469-0.797-0.469-1.352 0-0.519 0.161-0.945 0.476-1.279s0.703-0.5 1.163-0.5" fill="#231f20"/>
  </g>
  <g transform="matrix(5.5845 0 0 -5.5845 -121.98 -18.584)">
   <path d="m0 0c0-0.328-0.108-0.604-0.319-0.824-0.216-0.219-0.465-0.328-0.753-0.328-0.164 0-0.291 0.052-0.395 0.162-0.101 0.107-0.15 0.252-0.15 0.441 0 0.27 0.096 0.477 0.291 0.623 0.258 0.194 0.7 0.332 1.326 0.42zm-1.68 0.262c-0.421-0.235-0.633-0.531-0.633-0.891 0-0.236 0.09-0.433 0.276-0.584 0.185-0.152 0.452-0.224 0.807-0.224 0.25 0 0.461 0.041 0.637 0.121 0.177 0.08 0.379 0.242 0.615 0.492 0.085-0.231 0.187-0.389 0.302-0.481 0.112-0.089 0.255-0.132 0.421-0.132 0.218 0 0.417 0.089 0.599 0.271l-0.135 0.211c-0.105-0.08-0.207-0.121-0.303-0.121l-0.209 0.121c-0.054 0.08-0.078 0.199-0.078 0.373v1.877c0 0.254-0.112 0.473-0.328 0.652-0.217 0.178-0.529 0.262-0.937 0.262-0.444 0-0.805-0.096-1.079-0.299-0.271-0.203-0.41-0.426-0.41-0.668 0-0.133 0.042-0.24 0.122-0.32 0.083-0.084 0.187-0.129 0.308-0.129 0.117 0 0.208 0.037 0.281 0.109 0.07 0.075 0.11 0.16 0.11 0.272 0 0.072-0.04 0.162-0.111 0.261l-0.088 0.176c0 0.063 0.056 0.125 0.164 0.194 0.154 0.088 0.341 0.132 0.552 0.132 0.233 0 0.422-0.064 0.57-0.201 0.151-0.13 0.227-0.289 0.227-0.476v-0.528c-0.699-0.072-1.261-0.234-1.68-0.47" fill="#231f20"/>
  </g>
  <g transform="matrix(5.5845 0 0 -5.5845 -109.3 -38.097)">
   <path d="m0 0c0.068-0.055 0.101-0.144 0.101-0.267v-3.985c0-0.096-0.028-0.174-0.083-0.225-0.053-0.056-0.138-0.082-0.25-0.082h-0.348v-0.277h1.954v0.277h-0.366l-0.225 0.075-0.062 0.158v4.785l-1.366-0.064v-0.274h0.311c0.131 0 0.244-0.039 0.334-0.121" fill="#231f20"/>
  </g>
  <g transform="matrix(5.5845 0 0 -5.5845 -171.78 -3.9467)">
   <path d="m0 0c-0.146 0-0.246 0.029-0.314 0.082-0.052 0.043-0.077 0.113-0.077 0.215v2.43h0.506c0.266 0 0.495-0.047 0.689-0.141 0.19-0.094 0.334-0.217 0.425-0.379 0.091-0.154 0.158-0.418 0.199-0.787 0.072-0.635 0.139-1.031 0.195-1.182 0.076-0.203 0.188-0.349 0.336-0.457l0.104-0.056h-1.473v0.275zm-0.391 5.252c0 0.111 0.038 0.193 0.113 0.238 0.08 0.043 0.286 0.065 0.614 0.065 0.501 0 0.834-0.034 1.006-0.104 0.172-0.068 0.31-0.199 0.414-0.385 0.101-0.195 0.156-0.451 0.156-0.771 0-0.477-0.135-0.803-0.418-0.99-0.278-0.186-0.664-0.278-1.157-0.278h-0.728zm10.074-5.527h-6.753c0.363 0.181 0.568 0.621 0.609 1.324h-0.285c-0.017-0.322-0.062-0.543-0.135-0.67-0.073-0.129-0.153-0.189-0.24-0.189-0.084 0-0.16 0.048-0.234 0.152-0.094 0.135-0.184 0.381-0.27 0.75-0.114 0.506-0.221 0.848-0.311 1.01-0.089 0.166-0.21 0.3-0.363 0.408-0.148 0.103-0.425 0.211-0.824 0.316 0.549 0.057 0.949 0.151 1.203 0.272 0.258 0.131 0.451 0.298 0.589 0.513 0.136 0.209 0.204 0.457 0.204 0.727 0 0.457-0.171 0.826-0.515 1.107-0.342 0.284-0.821 0.422-1.44 0.422h-3.193v-0.312h0.607c0.131 0 0.229-0.024 0.291-0.076 0.065-0.053 0.099-0.137 0.099-0.239v-4.943c0-0.09-0.034-0.162-0.096-0.215s-0.159-0.082-0.294-0.082h-0.607v-0.275h-0.947l-0.028 4e-3c-0.115 0.287-0.383 0.507-0.712 0.566v0.334l-0.145 0.142h-0.311l-0.142-0.142v-2.428l0.142-0.142h0.311l0.145 0.142v0.336c0.329 0.065 0.602 0.279 0.714 0.567h12.243v-2.94c0-0.34-0.247-0.685-0.813-0.685-0.556 0-0.802 0.345-0.802 0.685v0.385h-1.129v-0.354c0-0.945 0.753-1.66 1.931-1.66 1.181 0 1.943 0.715 1.943 1.66v3.53z" fill="#231f20"/>
  </g>
  <g transform="matrix(5.5845 0 0 -5.5845 -102.26 15.327)">
   <path d="m0 0 0.828 2.078 0.83-2.078zm0.122 3.156-2.071-5.074h1.199l0.398 1.016h2.373l0.398-1.016h1.198l-2.07 5.074z" fill="#231f20"/>
  </g>
  <g transform="matrix(5.5845 0 0 -5.5845 -54.466 2.456)">
   <path d="m0 0v0.852h-4.456v-0.899h3.08l-3.183-3.316v-0.86h4.635v0.899h-3.258z" fill="#231f20"/>
  </g>
  <g transform="matrix(5.5845 0 0 -5.5845 -43.679 21.02)">
   <path d="m0 0 3.179 3.324v0.852h-4.454v-0.899h3.076l-3.177-3.316v-0.859h4.63v0.898z" fill="#231f20"/>
  </g>
  <g transform="matrix(5.5845 0 0 -5.5845 -22.154 -2.2998)">
   <path d="m0 0h-0.273v-0.623h0.273c1.484 0 2.149-1.32 2.149-2.496 0-1.152-0.674-2.469-2.149-2.469h-23.579c-2.176 0-3.165 1.682-3.165 3.049 0 0.514 0.134 1.059 0.413 1.539h-0.691c-0.233-0.5-0.344-1.031-0.344-1.539 0-1.723 1.299-3.674 3.787-3.674h23.579c1.815 0 2.768 1.59 2.768 3.094 0 1.435-0.863 3.119-2.768 3.119" fill="#6070a2"/>
  </g>
  <g transform="matrix(5.5845 0 0 -5.5845 12.144 -31.629)">
   <path d="m0 0c-0.965-2.851-2.942-3.99-5.734-4.215h-8.559v0.492c0 0.133-0.11 0.237-0.242 0.237h-0.299v0.623h0.167c0.146 0 0.263 0.113 0.263 0.26 0 0.138-0.117 0.259-0.263 0.259h-0.808c-0.14 0-0.257-0.121-0.257-0.259 0-0.147 0.117-0.26 0.257-0.26h0.172v-0.623h-0.302c-0.131 0-0.24-0.104-0.24-0.237v-0.492h-0.481v0.492c0 0.133-0.109 0.237-0.238 0.237h-0.303v0.623h0.168c0.144 0 0.26 0.113 0.26 0.26 0 0.138-0.116 0.259-0.26 0.259h-0.808c-0.141 0-0.26-0.121-0.26-0.259 0-0.147 0.119-0.26 0.26-0.26h0.171v-0.623h-0.301c-0.133 0-0.238-0.104-0.238-0.237v-0.492h-0.486v0.492c0 0.133-0.105 0.237-0.237 0.237h-0.304v0.623h0.17c0.142 0 0.261 0.113 0.261 0.26 0 0.138-0.119 0.259-0.261 0.259h-0.809c-0.141 0-0.258-0.121-0.258-0.259 0-0.147 0.117-0.26 0.258-0.26h0.172v-0.623h-0.303c-0.131 0-0.238-0.104-0.238-0.237v-0.492h-9.117c-0.035-0.234-0.086-0.439-0.157-0.617h6.771v-6e-3h16.796c2.732-0.248 4.666-1.392 5.617-4.205h0.407v9.043z" fill="#6070a2"/>
  </g>
 </g>
</svg>
