<svg width="765.49" height="251.35" version="1.1" viewBox="0 0 202.54 66.502" xmlns="http://www.w3.org/2000/svg">
 <g transform="translate(-37.286 85.111)">
  <g transform="matrix(6.2523 0 0 -6.2523 37.317 -39.92)">
   <path d="m0 0-5e-3 4.404 0.306 0.44 1.971 0.484-2e-3 -6e-3 0.372 0.086c0.754 0.168 1.208 0.121 1.543-0.144l0.149-0.155c0.312 0.545 0.917 0.873 1.927 1.051 0.92 0.152 1.454 0.08 1.844-0.25 0.272-0.228 0.399-0.555 0.459-0.887l0.662 1.536 1.895 0.226 0.778-1.799v1.473l0.311 0.436 0.282 0.025c0.636 0.053 1.276 0.098 1.904 0.133 0.132 6e-3 0.268 0.011 0.393 0.011 0.652 0 1.081-0.128 1.39-0.423 0.355-0.336 0.522-0.856 0.522-1.643 0-0.252-0.016-0.475-0.052-0.678-0.053-1.357-0.661-1.949-2.113-2.021-0.198-6e-3 -0.809-0.051-0.844-0.053l-1.381-0.101-1.842-0.182-0.166 0.486-0.481-0.054-0.161-0.526-2.488-0.342 0.023 0.053c-0.269-0.105-0.583-0.189-0.951-0.252-0.561-0.098-1.217-0.189-1.217-0.189l-0.729-0.145c-0.457-0.092-0.922-0.189-1.375-0.291l-0.368-0.082-0.294 0.592v-0.154l-0.043-8e-3 -3e-3 -0.506z" fill="#231f20"/>
  </g>
  <g transform="matrix(6.2523 0 0 -6.2523 239.82 -40.664)">
   <path d="m0 0-1.831 0.73-0.093-3e-3c-0.233 2e-3 -0.372 3e-3 -0.466 0.013-0.648 0.078-1.533 0.28-2.011 1.156l-0.112-0.109c-0.417-0.348-0.986-0.426-1.944-0.256-1.02 0.168-1.646 0.494-1.98 1.037l-0.125-0.129c-0.367-0.328-0.856-0.429-1.662-0.332-0.193 0.022-0.803 0.082-0.839 0.084l-1.72 0.163v4.328l0.328 0.427 0.332-0.027c0.631-0.055 1.268-0.117 1.9-0.184 0.931-0.109 1.638-0.339 1.99-1.06 0.065 0.101 0.137 0.189 0.229 0.266 0.39 0.33 0.93 0.404 1.85 0.251 1.094-0.189 1.717-0.56 2.008-1.216l0.217 0.224c0.235 0.184 0.533 0.28 0.908 0.28 0.331 0 0.673-0.071 0.994-0.145 1.005-0.238 1.28-0.309 1.356-0.328l0.34-0.088-0.037-0.484-0.178-0.817 0.546-0.136z" fill="#231f20"/>
  </g>
  <g transform="matrix(6.2523 0 0 -6.2523 48.814 -59.311)">
   <path d="m0 0v0.91l0.03 4e-3c0.162 0.039 0.324 0.078 0.488 0.115 0.572 0.131 0.638-0.093 0.638-0.332 0-0.332-0.141-0.459-0.624-0.57-0.161-0.037-0.322-0.076-0.489-0.115zm-1.178 1.4v-3.408c0.394 0.102 0.788 0.199 1.182 0.291v0.949l0.028 8e-3c0.221 0.051 0.439 0.102 0.659 0.153l0.029 5e-3 0.428-0.849c0.428 0.094 0.866 0.185 1.295 0.273-0.215 0.307-0.436 0.616-0.661 0.918l-0.018 0.033 0.035 0.018c0.387 0.254 0.548 0.609 0.548 1.23 0 0.34-0.059 0.583-0.184 0.733-0.203 0.254-0.589 0.295-1.27 0.148-0.183-0.039-0.701-0.162-0.826-0.193l-0.028-0.01c-0.406-0.094-0.81-0.193-1.217-0.299" fill="#0994dc"/>
  </g>
  <g transform="matrix(6.2523 0 0 -6.2523 75.846 -58.846)">
   <path d="m0 0c-0.473 0-0.537 0.437-0.537 0.867 0 0.479 0.085 0.981 0.7 1.09 0.705 0.119 0.699-0.553 0.699-0.861 0-0.5-0.084-0.973-0.699-1.08l-0.163-0.016m0.875 2.789c-0.204 0-0.435-0.021-0.706-0.068-1.588-0.278-1.881-0.924-1.881-2.09 0-1.162 0.255-1.662 1.858-1.383 1.596 0.268 1.89 0.898 1.888 2.037 0 0.557-0.069 0.903-0.225 1.135-0.182 0.252-0.476 0.369-0.934 0.369" fill="#0994dc"/>
  </g>
  <g transform="matrix(6.2523 0 0 -6.2523 98.345 -64.611)">
   <path d="m0 0 0.114 0.375c0.097 0.318 0.29 1.033 0.29 1.033l0.035 0.133 0.034-0.133c3e-3 -6e-3 0.178-0.666 0.28-0.967l0.112-0.337-0.044-8e-3c-0.255-0.03-0.509-0.061-0.767-0.088zm-0.237 2.229c-0.467-1.192-0.932-2.383-1.402-3.584 0.427 0.066 0.859 0.125 1.291 0.177l0.159 0.534 0.026 1e-3c0.389 0.049 0.78 0.094 1.176 0.137l0.029 4e-3 0.169-0.494c0.432 0.047 0.864 0.086 1.294 0.127-0.467 1.088-0.936 2.172-1.404 3.252-0.449-0.047-0.89-0.098-1.338-0.154" fill="#0994dc"/>
  </g>
  <g transform="matrix(6.2523 0 0 -6.2523 123.32 -64.672)">
   <path d="m0 0v1.861l0.037 4e-3c0.195 0.014 0.392 0.026 0.589 0.035 0.639 0.037 0.708-0.502 0.708-0.904 0-0.428-0.083-0.926-0.704-0.957-0.197-0.016-0.392-0.023-0.588-0.039zm-1.195 2.549v-3.406c0.411 0.037 0.82 0.064 1.232 0.091v-5e-3c0.066 0.019 0.27 0.037 0.864 0.064 1.234 0.061 1.63 0.486 1.63 1.746 0 1.553-0.701 1.703-1.87 1.639-0.595-0.033-1.218-0.078-1.856-0.129" fill="#0994dc"/>
  </g>
  <g transform="matrix(6.2523 0 0 -6.2523 176.16 -64.672)">
   <path d="m0 0-0.122 6e-3c-0.185 0.019-0.37 0.043-0.558 0.06l-0.058 4e-3v1.867l0.039-3e-3c0.194-0.02 0.388-0.043 0.588-0.063 0.623-0.068 0.697-0.615 0.697-1.019 0-0.399-0.07-0.852-0.586-0.852m-0.699-0.697c0.013 0 0.673-0.065 0.861-0.088 0.166-0.022 0.311-0.029 0.445-0.029 0.867 0 1.17 0.39 1.17 1.496 0 1.488-0.6 1.818-1.864 1.957-0.599 0.068-1.221 0.132-1.848 0.183v-3.402c0.41-0.035 0.824-0.074 1.236-0.117" fill="#0994dc"/>
  </g>
  <g transform="matrix(6.2523 0 0 -6.2523 201.92 -60.825)">
   <path d="m0 0-0.165 0.016c-0.606 0.101-0.69 0.576-0.69 1.076 0 0.476 0.078 0.969 0.713 0.861 0.605-0.105 0.689-0.584 0.689-1.086 0-0.189-0.013-0.428-0.096-0.603-0.085-0.174-0.23-0.264-0.451-0.264m-0.865 2.789c-0.46 0-0.759-0.121-0.939-0.369-0.159-0.234-0.232-0.582-0.232-1.137 0-1.17 0.282-1.769 1.875-2.033 1.598-0.275 1.874 0.256 1.874 1.385 0 1.166-0.29 1.81-1.874 2.086-0.272 0.045-0.503 0.068-0.704 0.068" fill="#0994dc"/>
  </g>
  <g transform="matrix(6.2523 0 0 -6.2523 229.94 -51.165)">
   <path d="m0 0 0.038-0.016c0.365-0.156 0.747-0.33 1.122-0.507v2.164c-0.569 0.146-1.144 0.289-1.723 0.42l-0.155-0.657c0.239-0.052 0.485-0.109 0.729-0.166l0.027-9e-3v-0.028c0-0.215 6e-3 -0.555 6e-3 -0.555l-0.041-5e-3 -8e-3 -0.028c-0.014 4e-3 -0.345 0.082-0.469 0.11-0.596 0.14-0.838 0.468-0.829 1.152 0 0.588 0.117 0.934 0.782 0.781 0.01-4e-3 0.895-0.209 1.137-0.279l0.155 0.719c-0.111 0.027-0.423 0.103-1.307 0.312-0.288 0.067-0.62 0.137-0.909 0.137-0.483 0-1.037-0.162-1.037-1.422 0-1.676 1.002-2.01 1.878-2.113 0.068-8e-3 0.205-0.01 0.394-0.01z" fill="#0994dc"/>
  </g>
  <g transform="matrix(6.2523 0 0 -6.2523 77.31 -43.582)">
   <path d="m0 0h1.848v-0.393h-0.679v-1.191h-0.484v1.191h-0.685z" fill="#231f20"/>
  </g>
  <g transform="matrix(6.2523 0 0 -6.2523 97.026 -38.71)">
   <path d="m0 0h0.8c0.13 0 0.179 0.057 0.179 0.168v0.051c0 0.14-0.07 0.168-0.223 0.168h-0.756zm-0.487 0.779h1.464c0.373 0 0.474-0.183 0.474-0.47v-0.098c0-0.215-0.048-0.338-0.273-0.389v-8e-3c0.143-0.023 0.266-0.087 0.266-0.345v-0.274h-0.485v0.194c0 0.164-0.047 0.22-0.201 0.22h-0.758v-0.414h-0.487z" fill="#231f20"/>
  </g>
  <g transform="matrix(6.2523 0 0 -6.2523 111.95 -43.582)">
   <path d="m0 0h0.481v-0.914c0-0.201 0.075-0.279 0.272-0.279h0.481c0.199 0 0.27 0.078 0.27 0.279v0.914h0.486v-1.018c0-0.392-0.201-0.582-0.648-0.582h-0.696c-0.445 0-0.646 0.19-0.646 0.582z" fill="#231f20"/>
  </g>
  <g transform="matrix(6.2523 0 0 -6.2523 130.03 -40.102)">
   <path d="m0 0c0 0.465 0.261 0.576 0.696 0.576h0.569c0.69 0 0.777-0.15 0.775-0.597h-0.486v0.042c0 0.114-0.085 0.147-0.227 0.147h-0.524c-0.259 0-0.308-0.119-0.308-0.316v-0.172c0-0.231 0.049-0.317 0.279-0.317h0.516c0.221 0 0.283 0.024 0.283 0.221h0.486v-0.15c0-0.264-0.097-0.477-0.583-0.477h-0.78c-0.435 0-0.696 0.109-0.696 0.572z" fill="#231f20"/>
  </g>
  <g transform="matrix(6.2523 0 0 -6.2523 148.53 -43.582)">
   <path d="m0 0h0.485v-0.582h0.225l0.616 0.582h0.656l-0.857-0.771 0.956-0.813h-0.685l-0.698 0.611h-0.213v-0.611h-0.485z" fill="#231f20"/>
  </g>
  <path d="m166.65-43.581h3.0324v9.9036h-3.0324z" fill="#231f20"/>
  <g transform="matrix(6.2523 0 0 -6.2523 175.69 -43.582)">
   <path d="m0 0h0.753l0.908-1.148h4e-3v1.148h0.486v-1.584h-0.75l-0.913 1.152h-3e-3v-1.152h-0.485z" fill="#231f20"/>
  </g>
  <g transform="matrix(6.2523 0 0 -6.2523 194.77 -40.102)">
   <path d="m0 0c0 0.465 0.259 0.576 0.696 0.576h0.732c0.547 0 0.626-0.199 0.626-0.508v-0.048h-0.476c0 0.152-0.091 0.173-0.245 0.173h-0.527c-0.247 0-0.307-0.058-0.307-0.328v-0.197c0-0.27 0.06-0.328 0.307-0.328h0.517c0.13 0 0.255 0.014 0.255 0.172v0.045h-0.605v0.326h1.089v-0.449c0-0.452-0.238-0.477-0.783-0.477h-0.583c-0.437 0-0.696 0.109-0.696 0.572z" fill="#231f20"/>
  </g>
  <g transform="matrix(6.2523 0 0 -6.2523 106.45 -23.739)">
   <path d="m0 0h0.799c0.135 0 0.18 0.053 0.18 0.166v0.053c0 0.138-0.071 0.168-0.221 0.168h-0.758zm-0.482 0.775h1.458c0.373 0 0.473-0.185 0.473-0.464v-0.104c0-0.211-0.044-0.336-0.267-0.389v-4e-3c0.14-0.025 0.261-0.087 0.261-0.349v-0.27h-0.484v0.192c0 0.164-0.047 0.218-0.199 0.218h-0.76v-0.41h-0.482z" fill="#231f20"/>
  </g>
  <g transform="matrix(6.2523 0 0 -6.2523 125.8 -22.591)">
   <path d="m0 0h0.623l-0.315 0.594zm-7e-3 0.959h0.632l0.865-1.58h-0.536l-0.151 0.281h-0.984l-0.143-0.281h-0.538z" fill="#231f20"/>
  </g>
  <g transform="matrix(6.2523 0 0 -6.2523 143.15 -21.248)">
   <path d="m0 0h0.861c0.206 0 0.29 0.059 0.29 0.285v0.213c0 0.223-0.084 0.287-0.29 0.287h-0.861zm-0.48 1.174h1.459c0.484 0 0.653-0.16 0.653-0.551v-0.478c0-0.391-0.169-0.551-0.653-0.551h-1.459z" fill="#231f20"/>
  </g>
  <path d="m159.16-28.588h3.0324v9.8786h-3.0324z" fill="#231f20"/>
  <g transform="matrix(6.2523 0 0 -6.2523 171.1 -23.129)">
   <path d="m0 0c0-0.229 0.046-0.32 0.273-0.32h0.624c0.228 0 0.276 0.091 0.276 0.32v0.17c0 0.193-0.048 0.316-0.306 0.316h-0.562c-0.259 0-0.305-0.123-0.305-0.316zm-0.5 0.32c0 0.461 0.26 0.571 0.696 0.571h0.777c0.439 0 0.698-0.11 0.698-0.571v-0.468c0-0.465-0.259-0.575-0.698-0.575h-0.777c-0.436 0-0.696 0.11-0.696 0.575z" fill="#231f20"/>
  </g>
  <g transform="matrix(6.2523 0 0 -6.2523 148.71 -64.049)">
   <path d="m0 0-0.565 0.678 0.301 0.832 0.868 0.15 0.572-0.678-0.306-0.834z" fill="#231f20"/>
  </g>
  <g transform="matrix(6.2523 0 0 -6.2523 152.89 -70.485)">
   <path d="m0 0c0.104-0.201 0.028-0.451-0.172-0.557-0.203-0.105-0.454-0.029-0.559 0.17-0.106 0.203-0.03 0.453 0.171 0.561 0.202 0.103 0.455 0.025 0.56-0.174" fill="#9fa3a5"/>
  </g>
 </g>
</svg>
