<svg width="800" height="404.45" version="1.1" viewBox="0 0 211.67 107.01" xmlns="http://www.w3.org/2000/svg">
 <defs>
  <linearGradient id="linearGradient12708" x2="1" gradientTransform="matrix(1.0341 -10.81 -10.81 -1.0341 257.84 306.53)" gradientUnits="userSpaceOnUse">
   <stop stop-color="#1770c1" offset="0"/>
   <stop stop-color="#252877" offset=".31236"/>
   <stop stop-color="#1966b7" offset=".5046"/>
   <stop stop-color="#243181" offset=".69554"/>
   <stop stop-color="#1966b7" offset="1"/>
  </linearGradient>
  <clipPath id="clipPath12660">
   <path d="m0 0h612v792h-612z"/>
  </clipPath>
  <linearGradient id="linearGradient12650" x2="1" gradientTransform="matrix(3.8128 -13.259 -13.259 -3.8128 260.06 309.54)" gradientUnits="userSpaceOnUse">
   <stop stop-color="#ed192f" offset="0"/>
   <stop stop-color="#c82a25" offset=".31236"/>
   <stop stop-color="#e41b22" offset=".50208"/>
   <stop stop-color="#a81318" offset=".70455"/>
   <stop stop-color="#e21b22" offset="1"/>
  </linearGradient>
  <clipPath id="clipPath12622">
   <path d="m0 0h612v792h-612z"/>
  </clipPath>
  <linearGradient id="linearGradient12612" x2="1" gradientTransform="matrix(3.8077 -13.241 -13.241 -3.8077 245.97 305.49)" gradientUnits="userSpaceOnUse">
   <stop stop-color="#ed192f" offset="0"/>
   <stop stop-color="#c82a25" offset=".31236"/>
   <stop stop-color="#e41b22" offset=".50208"/>
   <stop stop-color="#a81318" offset=".70455"/>
   <stop stop-color="#e21b22" offset="1"/>
  </linearGradient>
 </defs>
 <g transform="translate(-37.286 125.62)">
  <g transform="matrix(6.8227 0 0 -6.8227 185.29 -88.827)">
   <path d="m0 0-0.419 1.002 0.121 0.557zm-0.745-0.232 0.273 1.101 0.555-1.404zm0.531-1.084-0.518 0.908 0.826-0.287zm0.762-1.426-0.696 1.297 0.316 0.621zm-0.51-1.086-0.746 0.982 1.265-0.299zm1.002-1.381-0.9 1.24 0.5 0.67zm0.288-1.307-0.872-0.027 0.688 0.869zm-1.952 1.141 1.636-0.187-0.734-0.897zm-0.156-1.094 9e-3 1 0.911-1.047zm0.788 2.354 0.994-1.254-1.71 0.195zm-0.779 1.111 0.697-0.992-0.715-0.955zm0.557 1.408 0.717-1.39-1.228 0.336zm-0.073 0.131-0.502-1.047-9e-3 2.03zm-0.383 2.873 0.111-0.205 0.021-0.127-0.233-0.908-0.027 1.1zm0.281 0.213-0.094-0.379-0.11 0.211zm-1.032-3.039 0.472 0.883 0.01-1.924zm0.455-5.092-0.867 0.03 0.894 1.029zm-1.764 0.932 1.661 0.193-0.901-1.074zm-0.327-0.902 0.215 0.761 0.653-0.791zm0.679 3.181 0.545-0.685-0.907-1.168zm1.366 0.453-0.715-0.99-0.565 0.711zm-0.901 2.012 0.316-0.621-0.695-1.311zm0.911-1.846-1.274-0.269 0.743 1.353zm-0.831 2.012 0.851 0.27-0.496-0.954zm0.801-4.512-1.691-0.179 0.938 1.259zm-0.632 1.241 0.706 0.947 9e-3 -1.959zm0.391 4.775 0.297-1.078-0.863-0.313zm-0.318-0.037s0.119 0.041 0.229 0.088l0.155 0.068c0.112 0.053 0.258 0.193 0.258 0.193l-0.027-0.878-0.231 0.621-0.11-0.055-0.438-0.885zm1.599 1.027-0.334 0.223s-0.063-0.223-0.128-0.326c-0.066-0.102-0.242-0.221-0.242-0.221l-0.392 0.367 0.317-0.471-0.139-0.183c-0.086-0.067-0.4-0.27-0.492-0.317-0.093-0.044-0.262-0.056-0.262-0.056l-1.485-7.459h4.598l-1.69 8.232z" fill="#231f20" fill-rule="evenodd"/>
  </g>
  <g transform="matrix(6.8227 0 0 -6.8227 174.41 -109.96)">
   <path d="m0 0c0-0.326-0.206-0.59-0.464-0.594-0.261-4e-3 -0.47 0.258-0.472 0.584-4e-3 0.324 0.205 0.594 0.46 0.594 0.259 2e-3 0.474-0.256 0.476-0.584" fill="#231f20" fill-rule="evenodd"/>
  </g>
  <g transform="matrix(6.8227 0 0 -6.8227 175.39 -110.76)">
   <path d="m0 0-0.021 0.105 0.519 0.26 0.048-0.224zm0.497-0.613-0.535 0.213 0.034 0.13 0.55-0.113-0.049-0.23m-0.357-0.623-0.367 0.525 0.105 0.133-0.024-0.061 0.426-0.425-0.14-0.172m-0.543-0.309-0.102 0.682 0.075 0.021 0.23-0.633-0.203-0.07m-0.735 1.428c0 0.369 0.235 0.666 0.529 0.666 0.291 0 0.527-0.297 0.527-0.666s-0.236-0.668-0.527-0.668c-0.294 0-0.529 0.299-0.529 0.668m0.33-1.432-0.188 0.057 0.214 0.648 0.061-0.017zm-0.558 0.315-0.116 0.14 0.438 0.44 0.057-0.065zm-0.354 0.611-0.053 0.228 0.562 0.112 0.024-0.108zm0 1.006 0.524-0.258-0.013-0.06-0.56 0.122 0.049 0.196m0.372 0.631 0.342-0.553-0.04-0.045-0.434 0.443 0.132 0.155m0.538 0.297 0.072-0.69h3e-3l-0.071-0.021 0.018 0.015-0.178 0.653 0.156 0.043m0.418-6e-3 0.171-0.059-0.196-0.631 0.057-0.041-0.13 0.047zm0.192-0.85 0.349 0.528 0.131-0.155-0.43-0.443-0.081 0.092zm1.738 0.053-0.018-6e-3 9e-3 -0.525-0.337-0.01-3e-3 0.342-0.595-0.155-0.053 0.235 0.566 0.279-0.333 0.67-0.463-0.475-0.133 0.158 0.407 0.612-0.566 0.398-0.226-0.736-0.179 0.057 0.111 0.771-0.622 0.055 0.083-0.819-0.167-0.047-0.186 0.69-0.594-0.312 0.389-0.633-0.147-0.164-0.445 0.451-0.348-0.664 0.551-0.272-0.051-0.213-0.593 0.129-8e-3 -0.841 0.596 0.115 0.056-0.245-0.593-0.255 0.371-0.69 0.462 0.465 0.124-0.146-0.388-0.53 0.548-0.426 0.227 0.694 0.198-0.061-0.097-0.758 0.625 0.018-0.112 0.744 0.209 0.069 0.253-0.709 0.484 0.398-0.387 0.557 0.148 0.177 0.463-0.466 0.333 0.705-0.566 0.23 0.053 0.236 0.606-0.122-4e-3 0.314 0.336 0.016 6e-3 -0.356 2.238-0.533 0.034 1.939v0.03z" fill="#231f20"/>
  </g>
  <g transform="matrix(6.8227 0 0 -6.8227 185.37 -69.225)">
   <path d="m0 0 0.358 0.592 0.124-0.588zm-4.576 1.883c-0.052-0.24-0.128-0.424-0.231-0.557-0.096-0.121-0.205-0.203-0.335-0.25-0.061-0.021-0.202-0.055-0.514-0.068l0.331 1.586c0.532 0 0.687-0.112 0.723-0.145 0.029-0.029 0.113-0.15 0.026-0.566m-9.386 0.379-0.479-2.311c-0.082-0.388-0.115-0.734-0.101-1.023 8e-3 -0.213 0.053-0.408 0.127-0.596l-0.277-4e-3c-0.094 0-0.171 0.029-0.238 0.084-0.024 0.022-0.149 0.156-0.46 0.863-0.201 0.467-0.361 0.772-0.495 0.975 0.704 0.32 1.134 0.828 1.273 1.512 0.063 0.295 0.049 0.572-0.034 0.834l0.376 2e-3c0.199 4e-3 0.298-0.018 0.336-0.034 6e-3 -0.039 0.01-0.126-0.028-0.302m-2.883-0.442c-0.048-0.24-0.124-0.427-0.23-0.554-0.096-0.123-0.206-0.207-0.332-0.252-0.065-0.022-0.203-0.055-0.515-0.067l0.329 1.582c0.53 0 0.688-0.109 0.721-0.144 0.031-0.026 0.115-0.147 0.027-0.565m25.094-1.908-0.077-0.191c-0.165-0.385-0.382-0.698-0.649-0.92-0.252-0.213-0.593-0.319-1.036-0.321-0.37 0-0.467 0.043-0.476 0.047l-0.019 0.012c2e-3 0.049 0.014 0.152 0.055 0.354l0.698 3.345c0.055 0.272 0.129 0.364 0.159 0.395 8e-3 8e-3 0.085 0.076 0.389 0.076l0.373 2e-3 0.231 1.107-3.799-0.021-0.23-1.106 0.475 2e-3c0.162 0 0.242-0.017 0.274-0.029 6e-3 -0.039 0.013-0.127-0.023-0.307l-0.722-3.466c-0.056-0.27-0.135-0.368-0.161-0.395s-0.132-0.07-0.349-0.076l-0.204 0.074c-3e-3 6e-3 -0.099 0.102-0.204 0.615l-0.949 4.782-0.944-8e-3 -2.842-4.695c-0.337-0.551-0.593-0.733-0.761-0.78l-0.123 0.071c-0.02 0.017-0.148 0.154-0.456 0.859-0.202 0.465-0.362 0.769-0.494 0.976 0.706 0.319 1.13 0.825 1.271 1.508 0.069 0.323 0.049 0.627-0.062 0.912-0.111 0.289-0.302 0.522-0.567 0.688-0.242 0.152-0.506 0.25-0.784 0.289-0.253 0.037-0.639 0.053-1.186 0.049l-0.53-8e-3 -2.36-0.016-2.24-0.011-0.229-1.106 0.39 2e-3c0.175 0 0.298-0.033 0.349-0.096 0.056-0.066 0.065-0.222 0.023-0.42l-0.41-1.97c-0.089-0.442-0.197-0.783-0.312-1.02-0.11-0.209-0.273-0.385-0.517-0.537s-0.505-0.228-0.805-0.23c-0.252 0-0.442 0.056-0.583 0.175-0.134 0.116-0.201 0.245-0.216 0.405-0.016 0.207 0.016 0.511 0.099 0.902l0.479 2.313c0.056 0.275 0.13 0.371 0.161 0.4 0 2e-3 0.073 0.07 0.382 0.072h0.354l0.23 1.108-3.75-0.022-0.227-1.086-0.018 0.057c-0.111 0.289-0.303 0.521-0.567 0.685-0.242 0.155-0.509 0.252-0.786 0.293-0.249 0.036-0.637 0.049-1.185 0.047l-0.53-4e-3 -2.611-0.017-0.234-1.112 0.509 2e-3c0.161 4e-3 0.239-0.015 0.271-0.025 8e-3 -0.039 0.012-0.127-0.024-0.309l-0.725-3.464c-0.054-0.272-0.128-0.37-0.161-0.399-4e-3 -4e-3 -0.08-0.07-0.387-0.07l-0.371-4e-3 -0.23-1.108 3.814 0.02 0.231 1.107-0.493-1e-3c-0.16 0-0.242 0.019-0.276 0.027-5e-3 0.037-0.011 0.127 0.029 0.308l0.231 1.131c0.2-8e-3 0.253-0.023 0.26-0.025l0.073-0.088c0.031-0.057 0.113-0.227 0.293-0.734 0.393-1.116 0.558-1.432 0.649-1.571l0.091-0.148 2.268 0.014 0.201 0.939 0.07-0.131c0.178-0.277 0.461-0.504 0.849-0.674 0.367-0.168 0.81-0.246 1.303-0.242 0.472 0 0.925 0.086 1.346 0.25 0.424 0.166 0.781 0.391 1.062 0.666 0.28 0.278 0.487 0.57 0.612 0.875 0.116 0.283 0.218 0.649 0.309 1.086l0.408 1.957c0.049 0.235 0.106 0.361 0.149 0.422 0.045 0.078 0.115 0.135 0.211 0.178 0.098 0.049 0.185 0.072 0.259 0.078 0.125-6e-3 0.19-0.018 0.218-0.029 4e-3 -0.038 0.012-0.127-0.024-0.307l-0.723-3.467c-0.056-0.269-0.134-0.365-0.16-0.392-9e-3 -0.01-0.083-0.077-0.389-0.077l-0.375-2e-3 -0.23-1.107 3.816 0.02 0.23 1.107-0.494-2e-3c-0.161 0-0.241 0.018-0.271 0.029-0.01 0.037-0.016 0.123 0.024 0.305l0.237 1.133c0.196-8e-3 0.249-0.026 0.256-0.026l0.073-0.087c0.032-0.057 0.115-0.225 0.293-0.735 0.394-1.117 0.556-1.433 0.646-1.572l0.098-0.147 3.986 0.022 0.233 1.105-0.391-4e-3c-0.106 0-0.177 0.01-0.217 0.018 0.011 0.033 0.048 0.121 0.167 0.32l0.086 0.141 1.364 4e-3 0.034-0.178 0.033-0.144 0.019-0.123c-0.025-0.01-0.117-0.028-0.335-0.028l-0.255-4e-3 -0.232-1.107 8.788 0.047 0.57 2.576z" fill="#231f20"/>
  </g>
  <g transform="matrix(6.8227 0 0 -6.8227 -1622.2 1995.4)">
   <path d="m247.72 306-0.531-0.01-2.363-0.015-0.098-0.477h0.117c0.287 4e-3 0.465-0.051 0.536-0.156 0.073-0.103 0.082-0.289 0.022-0.559l-0.719-3.465c-0.056-0.259-0.14-0.445-0.252-0.554-0.109-0.107-0.309-0.162-0.605-0.164h-0.117l-0.102-0.483 3.171 0.016 0.1 0.479h-0.105c-0.285 0-0.463 0.05-0.535 0.155-0.069 0.106-0.079 0.294-0.022 0.556l0.291 1.39c0.321 0 0.529-0.018 0.617-0.051 0.092-0.034 0.171-0.106 0.239-0.224 0.067-0.117 0.174-0.384 0.317-0.791 0.284-0.805 0.488-1.307 0.615-1.503l1.844 7e-3 0.095 0.482c-0.172-2e-3 -0.325 0.051-0.45 0.162-0.125 0.109-0.306 0.433-0.539 0.97-0.298 0.694-0.544 1.108-0.725 1.239 0.845 0.26 1.342 0.74 1.488 1.44 0.054 0.257 0.037 0.503-0.05 0.73-0.086 0.225-0.235 0.404-0.443 0.535-0.206 0.129-0.424 0.213-0.657 0.244-0.223 0.033-0.573 0.047-1.049 0.047zm-0.644-0.549c0.099 4e-3 0.181 6e-3 0.243 6e-3 0.475 4e-3 0.796-0.072 0.957-0.23 0.162-0.159 0.2-0.444 0.115-0.856-0.062-0.287-0.158-0.516-0.292-0.685-0.131-0.167-0.291-0.285-0.474-0.352-0.179-0.065-0.504-0.094-0.966-0.094h-0.042z" fill="url(#linearGradient12612)"/>
  </g>
  <g transform="matrix(6.8227 0 0 -6.8227 -1622.2 1995.4)">
   <g clip-path="url(#clipPath12622)">
    <g transform="translate(248.1 303.69)">
     <path d="m0 0c-0.132-0.166-0.291-0.285-0.475-0.352-0.184-0.066-0.522-0.095-1.007-0.093l0.461 2.211c0.097 4e-3 0.179 5e-3 0.241 5e-3 0.474 4e-3 0.796-0.072 0.957-0.23 0.162-0.158 0.2-0.443 0.115-0.856-0.062-0.287-0.158-0.515-0.292-0.685zm1.146-1.922c-0.297 0.695-0.544 1.11-0.724 1.24 0.845 0.26 1.342 0.74 1.487 1.44 0.055 0.258 0.038 0.504-0.049 0.73-0.087 0.225-0.235 0.404-0.443 0.535-0.206 0.129-0.425 0.213-0.657 0.244-0.238 0.036-0.617 0.049-1.139 0.047l-0.531-9e-3 -2.363-0.016-0.098-0.477h0.117c0.287 4e-3 0.465-0.05 0.536-0.156 0.072-0.103 0.081-0.289 0.022-0.558l-0.719-3.465c-0.057-0.26-0.141-0.446-0.252-0.555-0.108-0.107-0.31-0.162-0.606-0.164h-0.117l-0.101-0.482 3.171 0.015 0.1 0.481h-0.105c-0.285 0-0.463 0.048-0.534 0.154-0.07 0.105-0.08 0.293-0.023 0.557l0.29 1.388c0.321 0 0.53-0.017 0.618-0.051 0.092-0.033 0.171-0.105 0.24-0.224 0.066-0.117 0.173-0.383 0.316-0.789 0.283-0.807 0.488-1.309 0.615-1.504l1.844 6e-3 0.096 0.482c-0.173-2e-3 -0.326 0.053-0.451 0.162-0.125 0.11-0.305 0.434-0.54 0.969z" fill="none" stroke="#fff" stroke-miterlimit="10" stroke-width=".048"/>
    </g>
   </g>
  </g>
  <g transform="matrix(6.8227 0 0 -6.8227 -1622.2 1995.4)">
   <path d="m266.17 306.19-2.752-4.552c-0.353-0.574-0.697-0.881-1.036-0.935-0.121 0.019-0.232 0.071-0.327 0.153-0.126 0.113-0.306 0.435-0.541 0.971-0.296 0.694-0.539 1.107-0.725 1.24 0.846 0.259 1.345 0.741 1.489 1.437 0.055 0.262 0.037 0.506-0.046 0.733-0.091 0.226-0.238 0.404-0.445 0.536-0.204 0.127-0.426 0.21-0.66 0.247-0.235 0.031-0.615 0.045-1.138 0.045l-0.53-7e-3 -2.36-0.019-1.986-9e-3 -0.101-0.481c0.581 4e-3 0.81-0.297 0.685-0.895l-0.41-1.969c-0.096-0.466-0.21-0.831-0.34-1.092-0.128-0.263-0.342-0.482-0.632-0.664-0.288-0.185-0.612-0.277-0.969-0.279-0.326 0-0.59 0.082-0.786 0.25-0.201 0.169-0.309 0.378-0.327 0.618-0.022 0.24 0.015 0.572 0.098 0.993l0.485 2.309c0.055 0.268 0.138 0.452 0.245 0.559 0.109 0.107 0.309 0.16 0.602 0.164h0.101l0.099 0.478-3.104-0.015-0.101-0.48c0.32 3e-3 0.517-0.045 0.592-0.147 0.076-0.1 0.082-0.289 0.026-0.564l-0.481-2.313c-0.076-0.363-0.107-0.68-0.099-0.947 0.017-0.266 0.092-0.512 0.237-0.738 0.142-0.225 0.382-0.409 0.711-0.557 0.324-0.145 0.717-0.217 1.173-0.215 0.433 0 0.845 0.078 1.231 0.23 0.389 0.151 0.704 0.354 0.954 0.598 0.257 0.248 0.433 0.504 0.541 0.772 0.112 0.265 0.211 0.609 0.296 1.031l0.411 1.955c0.044 0.224 0.107 0.401 0.187 0.527 0.073 0.125 0.189 0.221 0.342 0.293 0.145 0.068 0.272 0.103 0.39 0.108 0.256-6e-3 0.417-0.057 0.483-0.153 0.07-0.107 0.079-0.294 0.02-0.56l-0.721-3.463c-0.055-0.264-0.136-0.447-0.248-0.559-0.11-0.105-0.312-0.162-0.607-0.162l-0.118-2e-3 -0.1-0.48 3.17 0.019 0.102 0.476h-0.104c-0.287-1e-3 -0.467 0.052-0.536 0.155-0.071 0.106-0.077 0.293-0.023 0.558l0.289 1.387c0.324 0 0.53-0.017 0.619-0.052 0.091-0.031 0.171-0.104 0.238-0.221 0.068-0.119 0.174-0.383 0.318-0.789 0.286-0.809 0.49-1.313 0.618-1.508l1.617 0.01h0.222l1.721 6e-3 0.097 0.482c-0.215 0-0.363 0.026-0.45 0.08-0.084 0.057-0.111 0.153-0.079 0.297 0.017 0.084 0.086 0.228 0.21 0.43l0.174 0.292 1.807 0.01 0.082-0.427 0.029-0.133c0.027-0.113 0.034-0.203 0.022-0.271l-0.139-0.196c-0.072-0.051-0.241-0.074-0.5-0.08l-0.103-0.474 2.783 9e-3 0.137 4e-3 5.226 0.026 0.432 1.949-0.469-2e-3c-0.182-0.435-0.426-0.784-0.734-1.039-0.311-0.264-0.723-0.395-1.239-0.395-0.307-2e-3 -0.512 0.027-0.621 0.084-0.113 0.06-0.175 0.129-0.186 0.209-0.013 0.082 9e-3 0.244 0.058 0.499l0.696 3.341c0.057 0.259 0.14 0.448 0.248 0.558 0.112 0.106 0.316 0.159 0.611 0.165h0.116l0.1 0.476-3.152-0.013-0.103-0.481h0.089c0.287 4e-3 0.463-0.05 0.537-0.154 0.067-0.103 0.075-0.292 0.02-0.559l-0.72-3.465c-0.056-0.259-0.138-0.447-0.25-0.558-0.106-0.102-0.296-0.156-0.569-0.163-0.133 5e-3 -0.263 0.047-0.389 0.134-0.126 0.091-0.237 0.36-0.327 0.81l-0.898 4.526zm-6.824-0.674c0.098 1e-3 0.18 3e-3 0.239 3e-3 0.478 2e-3 0.797-0.073 0.961-0.228 0.162-0.158 0.201-0.445 0.114-0.855-0.059-0.292-0.159-0.516-0.289-0.688-0.134-0.168-0.292-0.285-0.477-0.352-0.176-0.06-0.488-0.092-0.934-0.092h-0.074zm6.083-1.464 0.37-1.743-1.427-8e-3z" fill="url(#linearGradient12650)"/>
  </g>
  <g transform="matrix(6.8227 0 0 -6.8227 -1622.2 1995.4)">
   <g clip-path="url(#clipPath12660)">
    <g transform="translate(264.37 302.3)">
     <path d="m0 0 1.059 1.752 0.369-1.744zm-4.001 1.447c-0.134-0.168-0.292-0.285-0.477-0.351-0.185-0.065-0.522-0.096-1.007-0.092l0.46 2.211c0.098 2e-3 0.179 4e-3 0.238 4e-3 0.478 2e-3 0.798-0.074 0.962-0.229 0.162-0.158 0.2-0.445 0.114-0.855-0.06-0.291-0.159-0.516-0.29-0.688zm13.018-1.531c-0.182-0.436-0.426-0.783-0.735-1.039-0.31-0.264-0.722-0.395-1.238-0.395-0.307-2e-3 -0.513 0.028-0.621 0.084-0.113 0.061-0.176 0.129-0.187 0.209-0.012 0.082 9e-3 0.245 0.058 0.498l0.696 3.342c0.057 0.26 0.14 0.448 0.248 0.559 0.113 0.105 0.316 0.158 0.612 0.164h0.116l0.099 0.476-3.152-0.013-0.102-0.481h0.088c0.287 4e-3 0.463-0.05 0.537-0.154 0.069-0.103 0.075-0.291 0.02-0.559l-0.72-3.464c-0.055-0.26-0.137-0.448-0.25-0.559-0.105-0.102-0.296-0.154-0.569-0.162-0.133 4e-3 -0.263 0.047-0.389 0.133-0.126 0.092-0.236 0.361-0.327 0.81l-0.897 4.526-0.505-2e-3 -2.753-4.551c-0.353-0.574-0.696-0.881-1.035-0.936-0.122 0.02-0.233 0.073-0.327 0.153-0.126 0.113-0.306 0.435-0.541 0.972-0.296 0.694-0.54 1.106-0.726 1.239 0.847 0.259 1.345 0.74 1.489 1.437 0.055 0.262 0.038 0.506-0.046 0.733-0.09 0.226-0.238 0.404-0.444 0.537-0.205 0.127-0.427 0.209-0.66 0.246-0.236 0.031-0.615 0.045-1.139 0.045l-0.53-6e-3 -2.36-0.02-1.986-9e-3 -0.1-0.481c0.581 4e-3 0.809-0.297 0.684-0.894l-0.411-1.969c-0.095-0.467-0.209-0.83-0.339-1.092-0.128-0.264-0.342-0.482-0.633-0.664-0.287-0.186-0.611-0.277-0.967-0.279-0.327 0-0.591 0.082-0.787 0.25-0.201 0.168-0.309 0.377-0.327 0.617-0.021 0.24 0.015 0.572 0.098 0.994l0.485 2.309c0.055 0.267 0.138 0.451 0.245 0.558 0.109 0.108 0.31 0.16 0.602 0.164h0.101l0.099 0.479-3.104-0.016-0.101-0.48c0.32 4e-3 0.518-0.045 0.592-0.147 0.076-0.099 0.082-0.289 0.026-0.564l-0.48-2.313c-0.076-0.363-0.109-0.679-0.099-0.947 0.016-0.266 0.092-0.512 0.236-0.738 0.143-0.225 0.382-0.409 0.711-0.557 0.325-0.145 0.717-0.217 1.173-0.215 0.433 0 0.845 0.078 1.232 0.231 0.388 0.15 0.703 0.353 0.954 0.597 0.256 0.248 0.432 0.504 0.54 0.772 0.113 0.265 0.211 0.609 0.297 1.031l0.409 1.955c0.045 0.225 0.108 0.4 0.188 0.527 0.074 0.125 0.189 0.221 0.342 0.293 0.145 0.069 0.273 0.104 0.391 0.108 0.256-6e-3 0.416-0.057 0.482-0.153 0.071-0.107 0.079-0.294 0.021-0.56l-0.721-3.463c-0.056-0.264-0.137-0.445-0.249-0.559-0.109-0.105-0.311-0.162-0.607-0.162l-0.118-2e-3 -0.1-0.48 3.17 0.019 0.102 0.477h-0.104c-0.287-2e-3 -0.467 0.051-0.535 0.154-0.072 0.108-0.078 0.293-0.024 0.559l0.289 1.387c0.324 0 0.531-0.018 0.619-0.053 0.091-0.031 0.171-0.104 0.238-0.221 0.068-0.119 0.175-0.383 0.318-0.789 0.286-0.808 0.49-1.312 0.619-1.508l1.616 0.01h0.222l1.722 6e-3 0.096 0.482c-0.214 0-0.363 0.028-0.45 0.08-0.084 0.057-0.11 0.155-0.079 0.297 0.018 0.084 0.087 0.229 0.21 0.43l0.175 0.293 1.807 0.01 0.081-0.428 0.03-0.133c0.026-0.113 0.034-0.203 0.021-0.271l-0.138-0.196c-0.073-0.05-0.241-0.074-0.501-0.08l-0.103-0.474 2.783 9e-3 0.137 4e-3 5.227 0.028 0.431 1.947z" fill="none" stroke="#fff" stroke-miterlimit="10" stroke-width=".048"/>
    </g>
    <g transform="translate(249.79 300.8)">
     <path d="m0 0c-0.047 0.041-0.108 0.119-0.172 0.233-0.599 0.06-1.194 0.132-1.787 0.22 0.211-0.578 0.364-0.943 0.47-1.103l1.844 5e-3 0.095 0.483c-0.173-2e-3 -0.326 0.053-0.45 0.162" fill="#ed1d24"/>
    </g>
    <g transform="translate(246.24 300.77)">
     <path d="m0 0c-0.069 0.105-0.079 0.293-0.022 0.557l0.038 0.173c-0.496 0.092-0.987 0.19-1.475 0.297l-0.097-0.476c-0.056-0.26-0.14-0.446-0.252-0.555-0.108-0.107-0.309-0.162-0.605-0.164h-0.117l-0.102-0.482 3.171 0.015 0.101 0.481h-0.106c-0.285 0-0.463 0.048-0.534 0.154" fill="#ed1d24"/>
    </g>
    <g transform="translate(254.09 300.81)">
     <path d="m0 0c-0.229-0.103-0.48-0.154-0.745-0.156-0.273 0-0.502 0.06-0.684 0.174-0.332 0.011-0.66 0.027-0.99 0.043-0.267 0.017-0.531 0.031-0.798 0.052l0.059-0.103c0.142-0.225 0.382-0.408 0.711-0.557 0.324-0.144 0.717-0.217 1.173-0.215 0.432 0 0.844 0.079 1.231 0.231 0.356 0.139 0.654 0.318 0.898 0.545-0.287-8e-3 -0.57-0.01-0.855-0.014" fill="#ed1d24"/>
    </g>
    <g transform="translate(258.51 300.83)">
     <path d="m0 0-0.059 0.211c-0.56-0.057-1.123-0.104-1.686-0.143l-0.063-0.074c-0.109-0.105-0.311-0.162-0.607-0.162l-0.117-2e-3 -0.101-0.48 3.17 0.019 0.103 0.477h-0.105c-0.287-2e-3 -0.467 0.05-0.535 0.154" fill="#ed1d24"/>
    </g>
    <g transform="translate(272.66 301.18)">
     <path d="m0 0c-0.311-0.264-0.723-0.395-1.238-0.395-0.307-1e-3 -0.513 0.028-0.621 0.084-0.114 0.061-0.176 0.129-0.187 0.209-0.013 0.082 9e-3 0.245 0.058 0.498l0.59 2.821c-0.552-0.238-1.112-0.465-1.676-0.682l-0.472-2.269c-0.056-0.26-0.138-0.448-0.25-0.559-0.105-0.102-0.296-0.154-0.569-0.162-0.133 4e-3 -0.263 0.047-0.389 0.133-0.126 0.092-0.236 0.361-0.327 0.81l-0.245 1.252c-0.518-0.166-1.035-0.326-1.56-0.472l0.032-0.137-0.551-4e-3c-0.559-0.15-1.119-0.289-1.683-0.416l-0.148-0.25c-0.353-0.574-0.697-0.881-1.036-0.936-0.121 0.02-0.232 0.073-0.327 0.153-0.096 0.088-0.225 0.302-0.392 0.642-0.511-0.09-1.027-0.175-1.547-0.25 0.202-0.537 0.35-0.886 0.454-1.043l1.616 0.01h0.222l1.722 6e-3 0.096 0.482c-0.215 0-0.363 0.028-0.45 0.08-0.084 0.057-0.11 0.155-0.079 0.297 0.018 0.084 0.087 0.229 0.21 0.43l0.175 0.293 1.806 0.01 0.081-0.428 0.031-0.133c0.026-0.113 0.034-0.203 0.021-0.271l-0.139-0.196c-0.072-0.05-0.241-0.074-0.5-0.08l-0.103-0.474 2.783 0.01 0.137 3e-3 5.226 0.028 0.432 1.947-0.469-2e-3c-0.181-0.435-0.425-0.783-0.734-1.039" fill="#ed1d24"/>
    </g>
   </g>
  </g>
  <g transform="matrix(6.8227 0 0 -6.8227 -1622.2 1995.4)">
   <path d="m267.3 300.44c-0.185-0.027-0.362-0.07-0.531-0.124-0.169-0.052-0.34-0.128-0.507-0.217-0.198-0.108-0.378-0.226-0.5-0.386l0.145 0.688-3.218-0.018-0.159-0.806c-0.073 0.112-0.157 0.206-0.258 0.292-0.268 0.224-0.575 0.372-0.911 0.441-0.312 0.065-0.7 0.098-1.186 0.098l-6.081-0.017-0.344-1.547c0.041 0.321-0.014 0.601-0.167 0.857-0.192 0.319-0.485 0.524-0.868 0.609-0.113 0.025-0.235 0.045-0.376 0.06-0.128 0.015-0.282 0.027-0.541 0.038-0.159 6e-3 -0.332 0.011-0.513 0.011l-2.608-0.023-0.448-1.84 0.314 0.039-0.356-1.425-0.369-0.024-0.446-1.836 3.102 0.022 0.21 1.006 0.292-1.03 8.01-0.011c0.587 0 1.029 0.026 1.35 0.079 0.335 0.057 0.663 0.179 0.976 0.366 0.085 0.046 0.172 0.105 0.204 0.197l-0.131-0.642 3.219 0.02 0.153 0.779 0.07-0.095c0.409-0.516 1.036-0.779 1.868-0.779h9e-3c0.814 0 1.538 0.252 2.153 0.749 0.615 0.5 1.016 1.097 1.193 1.773 0.093 0.341 0.117 0.672 0.07 0.984-0.045 0.323-0.16 0.623-0.342 0.896-0.373 0.57-1.015 0.86-1.912 0.86-0.193 0-0.386-0.014-0.566-0.044m-0.163-2.694c0.151 0.576 0.267 0.758 0.308 0.81l0.108 0.083c0-0.085-0.018-0.28-0.124-0.677-0.149-0.567-0.266-0.756-0.309-0.809l-0.105-0.118c-6e-3 0.057-5e-3 0.241 0.122 0.711m-13.444 0.819 0.077 0.037-0.208-0.364c0.055 0.104 0.098 0.214 0.131 0.327m3.589-0.014 0.411 0.037-0.287-1.312zm2.878-0.02 0.089-0.013 0.028-0.13c0-0.144-0.019-0.297-0.058-0.453-0.07-0.26-0.17-0.467-0.296-0.618l-0.124-0.146zm-7.251-1.02c0.127 0.081 0.249 0.186 0.372 0.324 0.075 0.082 0.14 0.168 0.198 0.259l-0.468-0.815z" fill="url(#linearGradient12708)"/>
  </g>
  <g transform="matrix(6.8227 0 0 -6.8227 103.72 -34.43)">
   <path d="m0 0 0.183 0.145-0.151-0.243zm6.899-0.21 0.317 1.194 0.051-0.011 0.014-0.096c0-0.142-0.02-0.292-0.059-0.446-0.068-0.254-0.165-0.458-0.288-0.604l-0.035-0.037m-2.548 1.217h0.326l-0.239-0.898zm9.729-1.395c6e-3 0.098 0.032 0.286 0.121 0.616 0.154 0.586 0.271 0.759 0.303 0.798l0.05 0.048c-7e-3 -0.102-0.034-0.29-0.121-0.615-0.151-0.577-0.27-0.758-0.304-0.799l-0.049-0.048m0.82 3.391c-0.202 0-0.394-0.015-0.571-0.044-0.175-0.026-0.351-0.067-0.535-0.125-0.163-0.051-0.335-0.125-0.513-0.219-0.138-0.075-0.273-0.159-0.41-0.254l0.13 0.481 0.021 0.077h-0.081l-3.188 6e-3h-0.048l-0.012-0.046-0.181-0.689-0.186 0.191c-0.273 0.228-0.584 0.378-0.925 0.447-0.314 0.067-0.704 0.099-1.192 0.099l-6.051 6e-3h-0.047l-0.012-0.046-0.294-1.111c-0.027 0.152-0.081 0.296-0.161 0.43-0.197 0.326-0.496 0.536-0.889 0.622-0.11 0.025-0.234 0.045-0.378 0.062-0.132 0.016-0.286 0.027-0.472 0.035l-0.07 2e-3c-0.159 6e-3 -0.333 0.012-0.516 0.012h-2.625l-0.012-0.046-0.478-1.801-0.021-0.077h0.343l-0.353-1.326h-0.338l-0.012-0.046-0.477-1.797-0.02-0.077h0.08l3.072-2e-3h0.048l0.012 0.045 0.209 0.781 0.203-0.78 0.012-0.046h0.048l8.01-0.012c0.589 0 1.032 0.026 1.355 0.079 0.338 0.057 0.671 0.182 0.988 0.371l0.114 0.068-0.117-0.441-0.02-0.077h0.08l3.187-4e-3h0.048l0.012 0.046 0.177 0.667c0.412-0.519 1.047-0.783 1.884-0.783 0.831 0 1.562 0.253 2.183 0.754 0.619 0.505 1.024 1.108 1.203 1.79 0.095 0.344 0.119 0.68 0.071 0.997-0.046 0.326-0.162 0.632-0.347 0.908-0.378 0.579-1.031 0.873-1.938 0.873m-8.097-3.335 0.178 0.119c0.133 0.158 0.232 0.371 0.301 0.629 0.039 0.154 0.061 0.311 0.061 0.461l-0.038 0.151c-3e-3 0-0.042 0.011-0.134 0.027l-0.368-1.387m-2.393 0.094 0.347 1.307h-0.474l0.127-1.307m-4.394-4e-3 0.814 1.314h-0.129c-0.077-0.263-0.213-0.511-0.408-0.728-0.113-0.125-0.234-0.234-0.366-0.318l0.089-0.268m-1.98 1.371 0.113 0.01 0.048 0.015-0.153 0.01-8e-3 -0.035m15.982-1.607 0.16 0.099c0.042 0.053 0.163 0.241 0.315 0.823 0.119 0.447 0.129 0.646 0.123 0.722l-0.16-0.101c-0.045-0.055-0.162-0.243-0.315-0.821-0.123-0.457-0.129-0.652-0.123-0.722m0.882 3.42c0.889 0 1.522-0.288 1.887-0.846 0.18-0.27 0.292-0.563 0.337-0.883 0.046-0.305 0.023-0.635-0.069-0.973-0.178-0.677-0.578-1.263-1.183-1.757-0.608-0.491-1.325-0.741-2.134-0.741h-0.01c-0.823 0-1.44 0.258-1.842 0.768l-0.07 0.092-0.209-0.789-3.187 4e-3 0.16 0.603-0.248-0.162c-0.309-0.184-0.633-0.307-0.967-0.363-0.308-0.051-0.746-0.078-1.345-0.078l-8.01 0.011-0.262 1.006-0.27-1.006-3.072 2e-3 0.477 1.797h0.338l0.385 1.449h-0.343l0.478 1.801h2.578c0.209 0 0.406-8e-3 0.583-0.014 0.187-7e-3 0.34-0.019 0.468-0.035 0.139-0.015 0.261-0.035 0.372-0.06 0.383-0.084 0.664-0.287 0.849-0.594 0.149-0.25 0.202-0.527 0.163-0.836l0.404 1.533 6.051-6e-3c0.491 0 0.876-0.033 1.179-0.097 0.337-0.069 0.638-0.217 0.898-0.434 0.099-0.084 0.182-0.178 0.253-0.285l0.214 0.814 3.188-5e-3 -0.175-0.649c0.17 0.127 0.347 0.244 0.544 0.352 0.165 0.088 0.334 0.162 0.502 0.215 0.168 0.052 0.343 0.095 0.527 0.123 0.178 0.029 0.37 0.043 0.561 0.043" fill="#100f0d"/>
  </g>
  <g transform="matrix(6.8227 0 0 -6.8227 155.9 -36.59)">
   <path d="m0 0c-0.079-0.312-0.206-0.574-0.375-0.781-0.169-0.205-0.448-0.309-0.828-0.309h-0.155l0.588 2.229h0.063c0.322 0 0.531-0.051 0.634-0.153 0.095-0.101 0.147-0.242 0.151-0.427 0-0.182-0.026-0.366-0.078-0.559m-5.9-0.1 0.706 1.18 0.045-1.18zm-3.116 0.922c-0.03-0.109-0.084-0.195-0.162-0.258-0.079-0.066-0.169-0.111-0.262-0.125-0.089-0.013-0.253-0.021-0.491-0.021h-0.181l0.217 0.814h0.149c0.244 0 0.413-7e-3 0.5-0.021 0.094-0.014 0.164-0.053 0.207-0.121 0.042-0.069 0.052-0.156 0.023-0.268m10.859-0.308c0.01 0.168-4e-3 0.324-0.038 0.472-0.066 0.309-0.203 0.553-0.41 0.733-0.214 0.179-0.459 0.299-0.734 0.355-0.274 0.057-0.64 0.084-1.1 0.084l-2.014 2e-3 -0.27-1.019h0.331l-0.591-2.227h-0.328l-0.257 2e-3 -0.217 2.225h0.34l0.269 1.023-3.018 2e-3 -0.274-1.02h0.339l-1.379-2.228h-0.356l-0.324 0.977c0.207 0.084 0.391 0.212 0.549 0.394 0.161 0.176 0.271 0.379 0.33 0.602 0.08 0.293 0.054 0.546-0.074 0.767-0.127 0.213-0.329 0.352-0.606 0.416-0.101 0.02-0.208 0.041-0.33 0.053-0.121 0.016-0.273 0.023-0.441 0.029-0.174 0.01-0.365 0.012-0.569 0.012l-2.284 6e-3 -0.274-1.026 0.342-2e-3 -0.59-2.22h-0.342l-0.269-1.024 2.285-2e-3 0.27 1.022h-0.317l0.191 0.721h0.518l0.452-1.747h1.517l1.399-1e-3 0.246 0.935h-0.345l0.326 0.535h1.076l0.02-0.535h-0.373l-0.246-0.937h2.195l1.904-4e-3c0.571 0 0.997 0.023 1.284 0.074 0.287 0.049 0.565 0.152 0.836 0.312 0.282 0.164 0.536 0.395 0.767 0.698 0.239 0.304 0.407 0.642 0.504 1.013 0.049 0.184 0.076 0.362 0.08 0.528" fill="#fff"/>
  </g>
  <g transform="matrix(6.8227 0 0 -6.8227 186.75 -44.293)">
   <path d="m0 0 0.275 1.025-2.397 2e-3 -0.273-1.023h0.389l-0.592-2.225h-0.383l-0.274-1.023h2.397l0.272 1.021h-0.384l0.589 2.223z" fill="#fff"/>
  </g>
  <g transform="matrix(6.8227 0 0 -6.8227 205.13 -36.764)">
   <path d="m0 0c-0.131-0.482-0.263-0.807-0.395-0.967-0.134-0.164-0.291-0.246-0.474-0.246-0.185 0-0.301 0.086-0.342 0.254-0.045 0.168-9e-3 0.486 0.118 0.961 0.13 0.484 0.26 0.807 0.393 0.967 0.132 0.164 0.291 0.244 0.471 0.244 0.189 0 0.306-0.086 0.348-0.252 0.043-0.174 3e-3 -0.49-0.119-0.961m1.881 0.822c-0.034 0.254-0.126 0.494-0.273 0.717-0.293 0.447-0.82 0.672-1.572 0.674-0.171 0-0.341-0.012-0.506-0.039-0.162-0.022-0.317-0.061-0.463-0.109-0.15-0.045-0.295-0.108-0.444-0.188-0.414-0.229-0.753-0.506-1.009-0.84-0.259-0.332-0.439-0.676-0.533-1.033-0.172-0.65-0.094-1.182 0.238-1.596 0.327-0.41 0.843-0.619 1.545-0.621 0.728 0 1.362 0.219 1.907 0.658 0.544 0.44 0.893 0.957 1.055 1.555 0.071 0.289 0.095 0.561 0.055 0.822" fill="#fff"/>
  </g>
 </g>
</svg>
