<svg width="800" height="293.44" version="1.1" viewBox="0 0 211.67 77.639" xmlns="http://www.w3.org/2000/svg">
 <defs>
  <clipPath id="clipPath15758">
   <path d="m0 0h612v792h-612z"/>
  </clipPath>
  <clipPath id="clipPath15794">
   <path d="m262.34 430.06h7.195v7.103h-7.195z"/>
  </clipPath>
 </defs>
 <g transform="translate(171.24 3.1779)">
  <g transform="matrix(6.3846 0 0 -6.3846 -1719.5 2787.9)">
   <g clip-path="url(#clipPath15758)">
    <g transform="translate(268.3 427.21)">
     <path d="m0 0h-2.73v0.01l2.73 1.695zm1.404-0.57h0.063v0.57h2e-3v2.922h-1.795l-3.621-2.203v-1.856h3.947v-1.019h1.469v0.761c-0.043 0.151-0.065 0.327-0.065 0.532z" fill="#231f20"/>
    </g>
    <g transform="translate(273.94 428.47)">
     <path d="m0 0h-1.762c-0.56 0-0.771-0.115-0.966-0.314v0.884h4.187v1.092h-5.535v-3.048h1.348c0.048 0.228 0.216 0.334 0.455 0.334h1.644c0.713 0 0.901-0.061 0.901-0.637 0-0.493-0.075-0.688-0.792-0.688h-1.458c-0.717 0-0.835 0.119-0.835 0.547h-1.367v-0.566h2e-3v-0.258c0.217-0.711 0.95-0.817 2.221-0.817h1.219c1.65 0 2.441 0.135 2.441 1.679v0.319c0 1.125-0.625 1.473-1.703 1.473" fill="#231f20"/>
    </g>
    <g transform="translate(242.49 432.67)">
     <path d="m0 0h1.557c8e-3 -0.536 0.221-0.58 0.672-0.58h1.902c0.329 0 0.666 0.038 0.666 0.43 0 0.44-0.181 0.466-2.185 0.466-2.339 0-2.602 0.286-2.602 1.527 0 0.919 0.08 1.624 2.041 1.624h2.172c1.791 0 1.961-0.609 1.961-1.497v-0.163h-1.557c0 0.372-0.041 0.526-0.753 0.526h-1.725c-0.346 0-0.584-0.118-0.584-0.392 0-0.439 0.187-0.458 1.852-0.448 2.418 9e-3 2.976-0.142 2.976-1.619 0-1.365-0.461-1.589-2.529-1.589h-1.879c-1.419 0-1.985 0.267-1.985 1.365z" fill="#231f20"/>
    </g>
    <g transform="translate(248.99 436.08)">
     <path d="m0 0h1.553v-1.809h3.279v1.809h1.553v-5.069h-1.553v1.916h-3.279v-1.916h-1.553z" fill="#231f20"/>
    </g>
    <g transform="translate(258.02 433)">
     <path d="m0 0h1.988l-1.01 1.902zm-0.027 3.083h2.019l2.789-5.069h-1.73l-0.483 0.891h-3.154l-0.451-0.891h-1.738z" fill="#231f20"/>
    </g>
    <g transform="translate(275.31 431.01)">
     <path d="m0 0h-5.637v1.217h4.084v0.812h-3.781v1.047h3.781v0.813h-3.994v1.18h5.547z" fill="#231f20"/>
    </g>
    <g transform="translate(269.59 436.16)">
     <path d="m0 0v-1e-3z" fill="#231f20"/>
    </g>
   </g>
   <g clip-path="url(#clipPath15794)">
    <g transform="translate(268.76 435.92)">
     <path d="m0 0c-0.555 0.699-1.525 0.799-2.402 0.799-0.799 0-1.45-0.059-1.922-0.102-0.299-0.027-0.533-0.05-0.707-0.05-0.41 0-0.707 0.177-0.785 0.455l-0.038 0.136-0.136-0.025-0.168-0.029-0.018-0.114-0.011-0.238c0-0.85 0.552-1.398 1.408-1.398 0 0 0.521 0.02 0.742 0.028-0.578-0.463-0.908-1.053-0.983-1.763l-0.142 3e-3c-0.699 0-1.166-0.387-1.219-1.012l-0.043-0.498 0.317 0.388c0.136 0.168 0.298 0.26 0.46 0.26 0.272 0 0.452-0.228 0.452-0.58 0-0.307-0.545-0.979-0.891-1.33l-0.012-0.014 0.233-0.326 0.047 0.031c0.904 0.649 1.478 1.09 1.705 1.417 0.285 0.414 0.429 0.894 0.429 1.387v1.192c0 0.499 0.166 0.729 0.637 0.888l0.227 0.024h0.748c0.896 0 1.31-0.386 1.377-1.287 2e-3 -0.015 0.103-0.906 0.103-1.217l0.01-0.682c0-0.128-4e-3 -0.272-0.01-0.419-0.519 0.136-1.072 0.228-1.613 0.266l-0.211 9e-3c-0.09 0.012-0.275 0.019-0.441 0.014h-0.034l2e-3 8e-3c0.127 0.301 0.188 0.609 0.188 0.918l-2e-3 0.106c-0.018 0.36-0.024 0.652-0.024 0.888 0 0.78-0.033 0.801-0.017 0.962 0.019 0.166 0.07 0.368 0.07 0.368l-0.342-0.221c-0.019-0.012-0.222-0.153-0.222-0.804v-1.396c2e-3 -0.028 0.031-0.663-0.75-1.216l-0.01-6e-3 -0.012-0.011-0.117-0.1c-0.404-0.305-0.955-0.698-1.684-1.195l0.272-0.378c0.988 0.565 1.711 0.82 2.326 0.82 0.733 0 1.531-0.145 2.256-0.405l0.092-0.039 0.07 0.071c0.488 0.478 0.945 0.776 1.436 0.95l0.095 0.037 6e-3 0.098c0.018 0.312 0.029 0.596 0.029 0.844 0 1.672-0.259 2.851-0.771 3.488" fill="#231f20"/>
    </g>
   </g>
  </g>
 </g>
</svg>
