<svg width="800" height="349.76" version="1.1" viewBox="0 0 211.67 92.539" xmlns="http://www.w3.org/2000/svg">
 <defs>
  <clipPath id="clipPath57910">
   <path d="m0 0h612v792h-612z"/>
  </clipPath>
 </defs>
 <g transform="translate(197.25 60.143)">
  <g transform="matrix(2.3499 0 0 -2.3499 -1270.6 418.7)">
   <g clip-path="url(#clipPath57910)">
    <g transform="translate(543.89 198.07)">
     <path d="m0 0h-65.799c-1.617 0-2.942-1.325-2.942-2.945v-22.716c0-1.619 1.325-2.938 2.942-2.938h65.799c1.616 0 2.942 1.319 2.942 2.938v22.716c0 1.62-1.326 2.945-2.942 2.945" fill="#22813d"/>
    </g>
    <g transform="translate(544.69 173.85)">
     <path d="m0 0c0-1.277-1.036-2.315-2.311-2.315h-50.842c2.394 1.879 4.059 4.643 4.059 8.127 0 3.21-0.822 5.089-1.544 6.747-0.616 1.413-1.148 2.628-1.148 4.626 0 2.379 1.411 3.566 1.411 3.566 0.353 0.29 0.925 0.772 1.276 1.063l0.027 0.023 0.16 0.184h46.601c1.275 0 2.311-1.038 2.311-2.315zm-2.311 22.496h-46.517c-0.029 0.146-0.113 0.285-0.247 0.395l-0.028 0.019c-0.355 0.291-0.939 0.76-1.293 1.047l-4.239 3.408c-0.359 0.287-0.83 0.666-1.051 0.847-0.22 0.177-0.595 0.177-0.836 6e-3 -0.237-0.178-2.191-1.868-5.259-1.868-2.164 0-4.97 2.366-4.97 2.366-0.348 0.294-0.852 0.75-1.117 1.012-0.267 0.258-0.702 0.258-0.968 0-0.269-0.262-0.773-0.718-1.122-1.012 0 0-2.804-2.366-4.972-2.366-3.071 0-5.02 1.69-5.255 1.865-0.237 0.174-0.617 0.165-0.848-0.016s-0.707-0.566-1.067-0.854l-4.388-3.53c-0.356-0.288-0.904-0.727-1.221-0.983-0.313-0.255-0.286-0.701 0.066-0.992l0.034-0.026c0.351-0.291 0.927-0.773 1.276-1.063 0 0 1.409-1.187 1.409-3.566 0-1.998-0.533-3.213-1.146-4.626-0.722-1.658-1.543-3.537-1.543-6.747 0-6.284 5.426-10.124 10.768-10.826 5.093-0.669 7.687-3.853 7.96-4.18 0.291-0.352 0.771-0.352 1.064 0 0.292 0.353 2.603 3.608 7.96 4.18 2.124 0.227 4.259 0.989 6.061 2.221h51.489c1.535 0 2.788 1.254 2.788 2.793v19.706c0 1.539-1.253 2.79-2.788 2.79" fill="#fff"/>
    </g>
    <g transform="translate(469.59 195.62)">
     <path d="m0 0h-1.022v-0.847h1.022c0.273 0 0.474 0.168 0.474 0.433 0 0.233-0.201 0.414-0.474 0.414m19.197 4.558c-0.836-0.53-3.001-1.72-5.747-1.72-2.842 0-5.679 2.241-6.721 3.162-1.044-0.921-3.879-3.162-6.721-3.162-2.746 0-4.91 1.19-5.748 1.72-0.535-0.433-3.961-3.187-4.769-3.834 0.806-0.831 2.25-2.657 2.298-5.117h29.878c0.05 2.46 1.493 4.286 2.3 5.117-0.81 0.647-4.233 3.401-4.77 3.834" fill="#ed1c24"/>
    </g>
    <g transform="translate(483.67 179.71)">
     <path d="m0 0c-1.364 0-1.72 0.391-1.72 1.548v2.777h-0.861v1.148h0.861v1.471h1.434v-1.471h1.199v-1.148h-1.199v-2.525c0-0.546 0.048-0.62 0.889-0.62h0.31v-1.122c-0.367-0.045-0.637-0.058-0.913-0.058m-5.145-0.12c-0.835 0-1.631 0.201-2.343 0.637l0.493 1.015c0.557-0.342 1.173-0.607 1.841-0.607 0.546 0 0.822 0.129 0.822 0.588 0 0.41-0.635 0.575-1.349 0.782-0.776 0.236-1.609 0.647-1.609 1.73 0 0.963 0.775 1.613 2.176 1.613 0.684 0 1.361-0.136 1.995-0.446l-0.367-1.057c-0.466 0.258-0.967 0.426-1.491 0.426-0.586 0-0.942-0.1-0.942-0.449 0-0.411 0.672-0.566 1.371-0.789 0.774-0.236 1.598-0.608 1.598-1.7 0-1.203-0.776-1.743-2.195-1.743m-10.474 4.468 3.081 2.596h3.348v-14.15h-3.434v10.422h-0.061l-2.916-2.573zm24.54 1.513c-0.56 1.286-1.133 2.605-1.295 4.484h-29.956c-0.16-1.879-0.735-3.198-1.293-4.484-0.691-1.591-1.409-3.233-1.409-6.097 0-5.253 4.647-8.541 9.232-9.074 3.088-0.362 6.569-1.979 8.449-3.86 1.88 1.881 5.361 3.498 8.45 3.86 4.586 0.533 9.231 3.821 9.231 9.074 0 2.864-0.718 4.506-1.409 6.097" fill="#196abd"/>
    </g>
    <g transform="translate(498.28 186.39)">
     <path d="m0 0c0-1.177 0.517-1.839 1.647-1.839l1.476 0.084v1.496h-0.787l-0.122-6e-3c-0.506 0-0.603 0.304-0.603 0.821v2.25h1.534v1.455h-1.534v2.372l-1.611-0.038v-2.363h-1.131v-1.426h1.131z" fill="#fff"/>
    </g>
    <g transform="translate(504.3 187.95)">
     <path d="m0 0c0 0.85 0.233 1.277 0.958 1.277 0.308 0 0.713-0.146 0.946-0.527l0.555 1.645c-0.405 0.324-0.788 0.447-1.279 0.447-0.43 0-0.777-0.123-1.18-0.447v0.301h-1.65v-6.016h1.65z" fill="#fff"/>
    </g>
    <g transform="translate(510.69 186.28)">
     <path d="m0 0c-0.466-0.255-0.897-0.313-1.243-0.313-0.575 0-1.07 0.313-1.07 0.695 0 0.368 0.409 0.665 0.923 0.665 0.321 0 0.9-0.087 1.39-0.271zm-3.876 0.297c0-1.192 0.95-2.026 2.289-2.026 0.456 0 1.01 0.058 1.587 0.281v-0.197h1.561v3.675c0 1.671-0.984 2.486-2.63 2.486-0.813 0-1.415-0.174-2.314-0.64l0.604-1.306c0.581 0.323 1.13 0.469 1.71 0.469 0.603 0 1.046-0.233 1.069-0.812-0.49 0.172-1.046 0.233-1.39 0.233-1.413 0-2.486-0.921-2.486-2.163" fill="#fff"/>
    </g>
    <g transform="translate(513.97 184.63)">
     <path d="m0 0h1.561v4.597h1.13v1.419h-1.13v0.343c0 0.294 0.21 0.465 0.492 0.465 0.173 0 0.236 0 0.638-0.087v1.526c-0.341 0.061-0.748 0.087-1.042 0.087-1.122 0-1.649-0.517-1.649-1.613v-0.721h-0.776v-1.455h0.776z" fill="#fff"/>
    </g>
    <g transform="translate(519.53 184.63)">
     <path d="m0 0v4.597h1.131v1.419h-1.131v0.343c0 0.294 0.208 0.465 0.495 0.465 0.169 0 0.232 0 0.636-0.087v1.526c-0.344 0.061-0.748 0.087-1.042 0.087-1.12 0-1.649-0.517-1.649-1.613v-0.721h-0.776v-1.455h0.776v-4.561z" fill="#fff"/>
    </g>
    <path d="m521.7 184.63h1.649v6.016h-1.649z" fill="#fff"/>
    <g transform="translate(522.51 191.39)">
     <path d="m0 0c0.453 0 0.81 0.382 0.81 0.811 0 0.469-0.357 0.815-0.81 0.815-0.432 0-0.789-0.346-0.789-0.815 0-0.429 0.357-0.811 0.789-0.811" fill="#fff"/>
    </g>
    <g transform="translate(527.53 189.23)">
     <path d="m0 0c0.554 0 1.022-0.343 1.254-0.98l1.096 1.349c-0.208 0.235-0.294 0.358-0.428 0.468-0.495 0.469-1.219 0.728-1.922 0.728-1.695 0-3.086-1.329-3.086-3.123 0-1.82 1.391-3.123 3.086-3.123 0.619 0 1.219 0.197 1.712 0.553 0.244 0.171 0.381 0.291 0.638 0.624l-1.155 1.157c-0.321-0.543-0.702-0.773-1.195-0.773-0.773 0-1.461 0.663-1.461 1.562 0 0.895 0.688 1.558 1.461 1.558" fill="#fff"/>
    </g>
    <g transform="translate(536.89 185.76)">
     <path d="m0 0c-0.642 0-1.131 0.456-1.131 1.093 0 0.468 0.345 0.876 1.028 1.267l1.393-1.697c-0.409-0.443-0.81-0.663-1.29-0.663m0.43 5.929c0.406 0 0.664-0.324 0.664-0.767 0-0.426-0.213-0.688-0.751-0.947l-0.446 0.495c-0.107 0.11-0.17 0.343-0.17 0.517 0 0.43 0.273 0.702 0.703 0.702m2.334-7.06h1.859l-1.513 1.907c0.616 0.747 0.873 1.412 0.983 2.482h-1.474c-0.112-0.539-0.283-1.008-0.494-1.328l-0.969 1.28c0.924 0.456 1.463 1.238 1.463 2.101 0 1.132-0.886 1.907-2.226 1.907-1.243 0-2.19-0.863-2.19-1.991 0-0.643 0.195-1.012 0.811-1.762l-0.184-0.122c-0.75-0.453-0.946-0.602-1.203-1.006-0.236-0.368-0.409-0.863-0.409-1.354 0-1.339 1.096-2.286 2.635-2.286 0.92 0 1.558 0.259 2.272 0.947z" fill="#fff"/>
    </g>
    <g transform="translate(503.09 178.45)">
     <path d="m0 0-0.721 2.861h-1.818l-0.844-2.9-0.862 2.9h-1.69l1.755-6.084h1.603l0.975 3.01 0.757-3.01h1.605l1.792 6.084h-1.728z" fill="#fff"/>
    </g>
    <g transform="translate(507.64 179.12)">
     <path d="m0 0c0.174 0.546 0.588 0.847 1.036 0.847 0.457 0 0.721-0.239 0.958-0.847zm1.036 2.337c-1.495 0-2.816-1.406-2.816-3.158 0-1.794 1.347-3.162 2.903-3.162 0.808 0 1.455 0.324 2.077 1.057l-1.146 0.993c-0.263-0.359-0.586-0.556-0.931-0.556-0.535 0-1.036 0.407-1.21 1.105h3.811v0.24c0 0.756-0.126 1.341-0.349 1.904-0.45 0.957-1.355 1.577-2.339 1.577" fill="#fff"/>
    </g>
    <g transform="translate(515.85 176.9)">
     <path d="m0 0c-0.472-0.262-0.908-0.33-1.254-0.33-0.587 0-1.083 0.33-1.083 0.712 0 0.374 0.407 0.672 0.931 0.672 0.323 0 0.908-0.084 1.406-0.272zm-1.083 4.564c-0.821 0-1.432-0.171-2.339-0.646l0.611-1.319c0.584 0.323 1.145 0.475 1.728 0.475 0.611 0 1.059-0.239 1.083-0.821-0.498 0.171-1.055 0.233-1.406 0.233-1.431 0-2.512-0.931-2.512-2.192 0-1.206 0.957-2.049 2.316-2.049 0.458 0 1.017 0.061 1.602 0.284v-0.197h1.581v3.721c0 1.69-0.994 2.511-2.664 2.511" fill="#fff"/>
    </g>
    <g transform="translate(527.16 181.49)">
     <path d="m0 0c-0.562 0-0.975-0.113-1.67-0.495v2.722l-1.669-0.646v-7.839h1.669v3.72c0 0.498 0.645 0.935 1.232 0.935 0.548 0 0.957-0.437 0.957-0.999v-3.656h1.644v4.218c0 1.132-0.97 2.04-2.163 2.04" fill="#fff"/>
    </g>
    <g transform="translate(532.21 179.12)">
     <path d="m0 0c0.173 0.546 0.583 0.847 1.031 0.847 0.462 0 0.723-0.239 0.959-0.847zm1.031 2.337c-1.493 0-2.811-1.406-2.811-3.158 0-1.794 1.342-3.162 2.9-3.162 0.808 0 1.455 0.324 2.077 1.057l-1.147 0.993c-0.259-0.359-0.581-0.556-0.93-0.556-0.537 0-1.031 0.407-1.209 1.105h3.811v0.24c0 0.756-0.126 1.341-0.352 1.904-0.446 0.957-1.354 1.577-2.339 1.577" fill="#fff"/>
    </g>
    <g transform="translate(538.7 181.01)">
     <path d="m0 0v0.301h-1.668v-6.084h1.668v3.355c0 0.863 0.236 1.3 0.973 1.3 0.312 0 0.722-0.152 0.959-0.54l0.559 1.668c-0.411 0.327-0.796 0.449-1.292 0.449-0.439 0-0.785-0.122-1.199-0.449" fill="#fff"/>
    </g>
    <g transform="translate(521.02 183.67)">
     <path d="m0 0-1.611-0.039v-2.363h-1.132v-1.425h1.132v-2.803c0-1.18 0.517-1.843 1.65-1.843l1.475 0.084v1.5h-0.788l-0.122-0.013c-0.505 0-0.604 0.311-0.604 0.828v2.247h1.539v1.451h-1.539z" fill="#fff"/>
    </g>
    <g transform="translate(462.17 193.18)">
     <path d="m0 0 0.656 0.786c0.421-0.337 0.889-0.511 1.381-0.511 0.315 0 0.488 0.107 0.488 0.291v0.013c0 0.174-0.142 0.274-0.721 0.407-0.905 0.207-1.604 0.462-1.604 1.338v0.01c0 0.792 0.629 1.361 1.646 1.361 0.724 0 1.288-0.197 1.752-0.566l-0.588-0.831c-0.39 0.272-0.818 0.417-1.193 0.417-0.286 0-0.427-0.119-0.427-0.271v-0.01c0-0.197 0.149-0.284 0.737-0.414 0.976-0.213 1.587-0.53 1.587-1.325v-0.016c0-0.87-0.687-1.384-1.719-1.384-0.754 0-1.474 0.236-1.995 0.705" fill="#fff"/>
    </g>
    <path d="m466.47 196.12h0.994v-3.566h-0.994z" fill="#fff"/>
    <g transform="translate(469.81 194.4)">
     <path d="m0 0c0.333 0 0.529 0.165 0.529 0.427v6e-3c0 0.281-0.206 0.424-0.537 0.424h-0.647v-0.857zm-1.642 1.713h1.687c0.545 0 0.92-0.145 1.161-0.388 0.207-0.203 0.315-0.478 0.315-0.83v-0.013c0-0.54-0.289-0.906-0.734-1.093l0.852-1.241h-1.141l-0.716 1.079h-0.437v-1.079h-0.987z" fill="#fff"/>
    </g>
    <path d="m471.9 196.12h0.994v-3.566h-0.994z" fill="#fff"/>
    <g transform="translate(473.55 194.11)">
     <path d="m0 0v2.001h1.002v-1.981c0-0.518 0.257-0.76 0.658-0.76 0.396 0 0.656 0.236 0.656 0.734v2.007h1.002v-1.975c0-1.154-0.654-1.658-1.67-1.658-1.011 0-1.648 0.514-1.648 1.632" fill="#fff"/>
    </g>
    <g transform="translate(477.24 193.08)">
     <path d="m0 0 0.549 0.66c0.353-0.285 0.744-0.434 1.155-0.434 0.266 0 0.409 0.094 0.409 0.246v0.01c0 0.148-0.118 0.229-0.6 0.342-0.761 0.175-1.348 0.385-1.348 1.119v0.013c0 0.663 0.525 1.138 1.382 1.138 0.604 0 1.078-0.162 1.467-0.475l-0.494-0.692c-0.327 0.226-0.684 0.349-0.999 0.349-0.239 0-0.356-0.104-0.356-0.23v-9e-3c0-0.165 0.123-0.236 0.618-0.346 0.818-0.178 1.328-0.443 1.328-1.112v-0.01c0-0.727-0.575-1.161-1.441-1.161-0.631 0-1.235 0.201-1.67 0.592" fill="#fff"/>
    </g>
    <g transform="translate(482.09 194.71)">
     <path d="m0 0-1.398 2.091h1.356l0.752-1.196 0.761 1.196h1.324l-1.399-2.081 1.46-2.173h-1.356l-0.813 1.28-0.821-1.28h-1.324z" fill="#fff"/>
    </g>
    <g transform="translate(485.45 196.8)">
     <path d="m0 0h1.243l1.015-1.649 1.015 1.649h1.248v-4.254h-1.175v2.444l-1.088-1.668h-0.024l-1.08 1.655v-2.431h-1.154z" fill="#fff"/>
    </g>
   </g>
  </g>
 </g>
</svg>
