<svg width="800" height="227.62" version="1.1" viewBox="0 0 211.67 60.226" xmlns="http://www.w3.org/2000/svg">
 <g transform="translate(-47.209 86.365)">
  <path d="m123.48-85.896h-5.7v2.8944h5.7z" fill="#231f20"/>
  <path d="m141.18-85.896h-5.6998v2.8944h5.6998z" fill="#231f20"/>
  <path d="m190.25-64.694 6e-3 -13.648 1.9759 13.648zm-14.394 0 0.39446-2.6329c0.26192-1.57 0.46231-3.0613 0.60589-4.4697 0.456 2.7331 0.95775 5.0876 1.4911 7.1027zm22.109 0h-1.8813l1.8757-13.994zm60.578 10.414c-0.37868-2.0816-1.3254-4.041-2.744-5.6663-1.5479-1.7645-3.6014-2.9947-6.1118-3.6516-1.7033-0.44022-3.9744-0.62956-7.5981-0.62956h-4.3138c-2.0706 0-3.9465 0.8189-5.3325 2.143-1.1739-0.77945-2.4936-1.3412-3.9242-1.6531-1.5808-0.34555-3.7239-0.49071-7.1637-0.49071h-4.0857c-1.9649 0-3.7516 0.73528-5.1098 1.9426-1.3743-1.2134-3.1729-1.9426-5.121-1.9426h-4.03v-21.669h-7.509l-1.3254 10.359-0.8189-5.6443c-0.23352-1.809-0.4623-3.3788-0.68478-4.7146h-7.4643v21.202h-1.4911l-2.8109-11.389 2.0261-9.8132h-4.8372l-1.2354 6.0561c-0.14201-0.91357-0.35029-1.9149-0.59012-3.0003-0.29979-1.4248-0.50017-2.4436-0.60115-3.0558h-5.5774l2.0985 9.8132-1.9316 11.389h-2.2598l0.81259-1.0351c0.38342-0.75736 0.57907-1.8704 0.57907-3.351 0-1.3254-0.25088-2.3377-0.75737-3.028-0.50017-0.69583-1.5589-1.4358-3.1617-2.2208-1.207-0.59485-2.0038-1.0461-2.3936-1.3585l-0.70056-0.85677c-0.0789-0.26192-0.11045-0.66743-0.11045-1.2244l0.23352-0.92462 0.70214-0.31241 0.71792 0.33924c0.0947 0.22248 0.142 0.75736 0.142 1.5919v0.99088h4.9095v-1.0572c0-0.91357-0.0473-1.5864-0.14201-2.0151-0.0947-0.42917-0.37237-0.89621-0.82363-1.3964-0.45127-0.50018-1.1013-0.90726-1.9482-1.2134-0.84099-0.3061-1.8702-0.456-3.0725-0.456-1.2197 0-2.2877 0.18303-3.2006 0.56171-0.9183 0.37237-1.57 0.90726-1.9538 1.592-0.38341 0.68952-0.57907 1.7645-0.57907 3.2172 0 1.024 0.1783 1.9093 0.53489 2.6497 0.35659 0.74632 1.3475 1.5747 2.978 2.4881 1.9314 1.0792 3.0058 1.7255 3.2174 1.9482 0.20038 0.21774 0.29979 0.7621 0.29979 1.6309 0 0.62956-0.0789 1.0414-0.22879 1.2418l-0.82363 0.29506-0.73528-0.44022c-0.12622-0.29506-0.18303-0.92935-0.18303-1.9037v-1.1518h-4.9094v0.87412c0 1.5195 0.18934 2.6497 0.56171 3.401l0.96248 1.125h-3.1282v-17.2h-5.5385v12.235c0 1.4911-0.0316 2.3769-0.11044 2.6495l-0.72897 0.41182-0.70687-0.40077c-0.0947-0.26192-0.12623-1.1076-0.12623-2.5214v-12.374h-5.5329v12.263c0 1.5636 0.0316 2.6105 0.0947 3.1338 0.0631 0.52384 0.22879 1.0303 0.4844 1.5147l0.18934 0.28874h-2.6162v-17.2h-5.6998v17.2h-4.5699v-6.1952c0-1.7645 0.0631-2.8889 0.16725-3.3786l0.87413-1.1471c0.47809-0.27297 1.2197-0.40708 2.2377-0.40708v-6.4013c-1.5305 0.09467-2.6942 1.0082-3.4957 2.7164l0.21774-2.3879h-5.5329v17.2h-1.8982v-17.2h-5.7053v17.2h-3.1506l1.0303-1.196c0.37237-0.74632 0.55698-1.9092 0.55698-3.49 0-2.1765-0.3345-3.7516-1.0019-4.7313-0.66269-0.97353-2.282-2.2265-4.8538-3.7518-0.89622-0.52858-1.4358-0.97984-1.6253-1.3585-0.20512-0.37237-0.3061-0.92935-0.3061-1.6698 0-0.57907 0.0947-1.0082 0.27297-1.2923l0.78418-0.42286 0.68479 0.31241c0.142 0.21143 0.20669 0.70214 0.20669 1.469v1.6421h5.3604v-0.87412c0-1.7645-0.17199-3.0113-0.5128-3.7516-0.34555-0.73527-1.0461-1.3412-2.0985-1.8257-1.0572-0.4844-2.3322-0.72896-3.8296-0.72896-1.3696 0-2.5438 0.22248-3.5123 0.66743-0.96879 0.44022-1.67 1.0572-2.0985 1.8424-0.44022 0.78419-0.65638 2.0261-0.65638 3.7239 0 1.1802 0.15778 2.1485 0.46231 2.9056 0.3061 0.7621 0.69109 1.3522 1.1581 1.7811 0.46704 0.43391 1.4138 1.125 2.8499 2.0708 1.4358 0.94039 2.3322 1.6141 2.6997 2.0149 0.35659 0.40077 0.53489 1.2575 0.53489 2.566 0 0.59011-0.0947 1.0414-0.2777 1.3412l-0.85677 0.45126-0.80154-0.35659c-0.15779-0.23983-0.22879-0.77314-0.22879-1.6031v-2.6995h-5.3604v1.4532c0 1.6643 0.17198 2.9446 0.5128 3.8518 0.23352 0.63429 0.66742 1.1802 1.2749 1.6588h-1.9592c-2.3156 0-4.4587 0.42286-6.3791 1.2639-1.5195 0.66269-2.8387 1.57-3.9632 2.6773-0.72896-0.69583-1.5479-1.3301-2.4657-1.8757-2.3101-1.3696-5.0543-2.0651-8.1491-2.0651-2.3267 0-4.4976 0.43391-6.4403 1.2907-1.469 0.65165-2.744 1.5195-3.8406 2.5548-0.90253-0.87412-2.0596-1.72-3.5792-2.4157-2.0651-0.95144-4.4418-1.4311-7.0525-1.4311-2.4769 0-4.7368 0.456-6.724 1.3633-2.4603 1.1297-4.4142 2.9056-5.6443 5.1321-1.0966 1.9927-1.6086 4.364-1.6086 7.4588 0 2.0039 0.1783 7.3531 0.1783 8.4719v1.4532c0 2.6161 0.32346 4.7591 0.99088 6.5403 0.69583 1.8704 2.2543 4.4864 5.7332 6.3456 2.221 1.1913 4.7758 1.7923 7.5979 1.7923 2.566 0 4.9317-0.50649 7.0302-1.5147 1.2197-0.5838 2.2822-1.2907 3.1894-2.1041 0.71318 0.64534 1.5084 1.2307 2.3879 1.72 2.2544 1.2575 4.9262 1.8981 7.9432 1.8981 3.1393 0 5.9392-0.78419 8.3215-2.3322 0.80154-0.52384 1.4911-1.0792 2.0818-1.6421 1.207 1.1913 2.6273 2.143 4.2638 2.8164 1.8757 0.76841 3.9408 1.1581 6.1283 1.1581 2.3156 0 4.4642-0.42286 6.3791-1.2639 0.8899-0.38342 1.6976-0.87412 2.4546-1.4201 1.3964 1.3696 3.3064 2.221 5.4104 2.221h5.7722l0.87412-0.04734 0.87886 0.04734h5.3549c1.3916 0 2.6885-0.37237 3.8128-1.013 1.125 0.6406 2.4269 1.013 3.8129 1.013h10.003c1.3143 0 2.555-0.3345 3.6349-0.91357 1.0856 0.57907 2.321 0.91357 3.6402 0.91357h6.674c3.4178 0 5.4996-0.24457 7.1749-0.84099 1.4027-0.49544 2.6497-1.2686 3.7071-2.2599 1.1029 0.9972 2.3601 1.8147 3.7963 2.4046 1.8757 0.76841 3.9353 1.1581 6.1285 1.1581 2.3155 0 4.464-0.42286 6.3789-1.2639 0.66743-0.28874 1.2859-0.6406 1.8814-1.0193 1.3806 1.1629 3.1282 1.8202 4.954 1.8202h5.9671l1.3585-0.12623 1.3633 0.12623h5.9105c1.2465 0 2.4158-0.3061 3.4567-0.82994 1.0414 0.52384 2.2098 0.82994 3.4566 0.82994h5.7722l0.87412-0.04734 0.87886 0.04734h5.3547c1.3917 0 2.6886-0.37237 3.813-1.013 1.125 0.6406 2.4269 1.013 3.8129 1.013h7.2751c1.9871 0 3.4956-0.14201 4.7592-0.40708 1.8702-0.41182 3.529-1.2023 4.9372-2.3489 1.7033-1.3806 2.9278-3.2786 3.5457-5.5051 0.40077-1.4311 0.56171-3.1894 0.56171-6.0561v-7.7706c0-2.683-0.0947-4.3528-0.31242-5.5941" fill="#231f20"/>
  <path d="m68.249-47.302c1.1076-0.28401 1.9314-1.2907 1.9314-2.4938v-0.87412c0-2.193-0.23983-3.7294-0.75736-4.837-0.60747-1.3017-1.7367-2.3379-3.3564-3.0782-1.3853-0.6406-3.0392-0.96248-4.9039-0.96248-1.7367 0-3.2786 0.29979-4.5811 0.89621-1.4753 0.67847-2.5771 1.67-3.2841 2.939-0.65165 1.185-0.9688 2.8109-0.9688 4.9762 0 1.5258 0.21143 2.7887 0.64534 3.863 0.3345 0.84099 0.7621 1.5636 1.2749 2.1653-1.013 0.34555-1.7423 1.308-1.7423 2.4381v1.4532c0 1.9927 0.21774 3.5457 0.66743 4.748 0.56171 1.5037 1.6866 2.7163 3.3398 3.6069 1.469 0.78419 3.2062 1.1802 5.1711 1.1802 1.7867 0 3.4066-0.33924 4.8093-1.013 1.5864-0.75736 2.7107-1.7924 3.3398-3.067 0.55698-1.1187 0.82363-2.6329 0.82363-4.6311 0-2.7276-0.47335-4.748-1.4469-6.1787l-0.96248-1.1297" fill="#fff"/>
  <path d="m87.594-58.202c-1.5021-0.8899-3.3621-1.3475-5.5218-1.3475-1.6086 0-3.0725 0.28874-4.364 0.85677-1.3743 0.60589-2.4826 1.4753-3.2952 2.5772-0.79681 1.0856-1.2859 2.2599-1.4532 3.4845-0.12623 0.92462-0.18934 2.2153-0.18934 3.9465v6.4846c0 2.4659 0.21774 4.325 0.66269 5.6888 0.55698 1.6866 1.72 3.0615 3.3676 3.9855 1.48 0.82363 3.3064 1.2418 5.4327 1.2418 2.1318 0 3.9855-0.50018 5.5106-1.4974 1.6031-1.0461 2.6718-2.3434 3.1894-3.863 0.42286-1.2528 0.61851-3.067 0.61851-5.7053v-0.86781c0-0.70687-0.28401-1.3475-0.75105-1.8147 0.46704-0.46231 0.75105-1.1076 0.75105-1.8145v-2.1097c0-2.3879-0.21774-4.1691-0.66743-5.4327-0.55067-1.5589-1.6588-2.8444-3.2896-3.8129" fill="#fff"/>
  <path d="m110.58-56.177c-0.85676-1.1518-1.9871-2.0261-3.3731-2.5938-1.2528-0.51753-2.6552-0.77945-4.1746-0.77945-1.6031 0-3.056 0.28401-4.3195 0.83468-1.3696 0.59642-2.4771 1.48-3.2952 2.6217-0.81259 1.125-1.308 2.3879-1.4579 3.7572-0.11045 1.0351-0.1783 2.6774-0.1783 5.0264v3.7961c0 2.4103 0.06311 4.0801 0.18303 5.0988 0.16094 1.3585 0.67374 2.6217 1.5195 3.7628 0.85204 1.1581 1.9871 2.0261 3.3731 2.5938 1.2528 0.51753 2.655 0.77945 4.1747 0.77945 1.6031 0 3.056-0.28401 4.3195-0.83468 1.3632-0.59485 2.4714-1.4753 3.3008-2.6217 0.80628-1.125 1.297-2.3879 1.4532-3.7572 0.11045-1.0461 0.17198-2.6885 0.17198-5.0208v-3.7961c0-2.4103-0.0631-4.0801-0.18303-5.1043-0.16094-1.3585-0.67374-2.6217-1.5132-3.7628" fill="#fff"/>
  <path d="m131.35-56.065c-0.97353-1.3806-2.3267-2.2934-3.9132-2.644-0.74001-0.16094-2.1708-0.37237-6.0783-0.37237h-4.0857c-1.4201 0-2.5716 1.1518-2.5716 2.5716v22.187c0 1.4248 1.1518 2.5772 2.5716 2.5772h5.7722l0.87412-0.15778 0.87886 0.15778h5.3604c1.4201 0 2.5716-1.1518 2.5716-2.5772v-5.85c0-2.4883-0.0789-3.351-0.21774-3.8798-0.12623-0.56171-0.37869-1.114-0.74001-1.6643 0.66269-1.0682 0.95775-2.5493 0.95775-4.7313 0-2.4603-0.45127-4.2973-1.3806-5.6165" fill="#fff"/>
  <path d="m148.22-41.297c0.8899-0.40708 1.5084-1.3017 1.5084-2.3434v-4.2191c0-0.8189-0.38342-1.5479-0.97353-2.0206 0.72896-0.45126 1.2197-1.2639 1.2197-2.1875v-4.4419c0-1.4201-1.1518-2.5716-2.5717-2.5716h-9.624c-1.4201 0-2.5716 1.1518-2.5716 2.5716v22.187c0 1.4248 1.1518 2.5772 2.5716 2.5772h10.008c1.4201 0 2.5717-1.1518 2.5717-2.5772v-4.4363c0-1.2749-0.92462-2.3322-2.1375-2.5383" fill="#fff"/>
  <path d="m169.82-46.371c0.56171-0.9467 0.82994-2.182 0.82994-3.8241 0-2.4602-0.42286-4.2916-1.297-5.5996-0.91357-1.3696-2.143-2.2934-3.6625-2.7554-1.1913-0.35659-2.7832-0.53489-4.8762-0.53489h-5.7555c-1.4201 0-2.5716 1.1518-2.5716 2.5772v22.187c0 1.4201 1.1518 2.5717 2.5716 2.5717h6.674c3.479 0 4.748-0.28874 5.4606-0.54593 1.3964-0.48913 2.4714-1.4579 3.1115-2.8054 0.50649-1.0792 0.75736-2.5328 0.75736-4.4309v-2.0594c0-1.9873-0.37868-3.5124-1.1581-4.6591l-0.0789-0.12623" fill="#fff"/>
  <path d="m190.09-56.176c-0.85677-1.1518-1.9871-2.0261-3.3731-2.5993-1.2528-0.5128-2.6552-0.77314-4.1748-0.77314-1.6031 0-3.0613 0.28401-4.3193 0.83468-1.3696 0.59485-2.4771 1.4753-3.3008 2.6216-0.81259 1.125-1.3017 2.3881-1.4532 3.7518-0.11045 1.0303-0.1783 2.6718-0.1783 5.0264v3.7961c0 2.4158 0.0631 4.0801 0.18303 5.1043 0.16726 1.3585 0.67374 2.6273 1.5147 3.7627 0.85677 1.1518 1.9928 2.0263 3.3731 2.594 1.2528 0.51753 2.6607 0.77314 4.1803 0.77314 1.6031 0 3.056-0.2777 4.3195-0.82994 1.3632-0.59485 2.4769-1.48 3.2952-2.6217 0.81259-1.125 1.3017-2.3879 1.4579-3.7572 0.11044-1.0351 0.17198-2.6774 0.17198-5.0264v-3.7963c0-2.4046-0.0631-4.0689-0.18303-5.1042-0.16094-1.3585-0.67374-2.6217-1.5147-3.7573" fill="#fff"/>
  <path d="m209.58-56.887c-0.18934-1.2639-1.2686-2.1932-2.5438-2.1932h-8.3383c-1.2922 0-2.3824 0.95144-2.5548 2.2322l-2.939 22.187c-0.0947 0.74001 0.12623 1.48 0.61221 2.0373 0.48913 0.55698 1.1976 0.87412 1.9371 0.87412h5.9614l1.3633-0.38342 1.3585 0.38342h5.9003l0.0112 0.0054c1.4248-0.0054 2.5772-1.1518 2.5772-2.5772l-0.0947-0.67374z" fill="#fff"/>
  <path d="m231.34-56.065c-0.97353-1.3806-2.3267-2.2934-3.9132-2.644-0.74-0.16094-2.1763-0.37237-6.0783-0.37237h-4.0857c-1.4201 0-2.5716 1.1518-2.5716 2.5716v22.187c0 1.4248 1.1518 2.5772 2.5716 2.5772h5.7722l0.87412-0.15778 0.87886 0.15778h5.3604c1.4201 0 2.5716-1.1518 2.5716-2.5772v-5.85c0-2.7554-0.11045-3.4512-0.21774-3.8853-0.12623-0.56171-0.37868-1.1076-0.74632-1.6588 0.66269-1.0682 0.96248-2.5493 0.96248-4.7313 0-2.4603-0.45126-4.2973-1.3806-5.6165" fill="#fff"/>
  <path d="m253.47-53.367c-0.21143-1.1802-0.73527-2.2543-1.5526-3.1894-0.85676-0.97984-2.0428-1.6698-3.5347-2.0596-0.76841-0.20039-2.2599-0.46704-6.2954-0.46704h-4.3193c-1.4201 0-2.5717 1.1518-2.5717 2.5772v22.187c0 1.4201 1.1518 2.5716 2.5717 2.5716h7.2751c1.5807 0 2.7775-0.09467 3.6514-0.28401 1.0792-0.23983 2.0206-0.67847 2.7999-1.3143 0.88517-0.71792 1.5021-1.6866 1.8368-2.8833 0.17199-0.62956 0.37237-1.7255 0.37237-4.6867v-7.7706c0-3.0225-0.12623-4.1191-0.23352-4.6813" fill="#fff"/>
  <path d="m65.987-48.078h1.6198c0.9467 0 1.7145-0.76841 1.7145-1.7143v-0.87886c0-2.0596-0.21774-3.4845-0.67374-4.4697-0.51753-1.114-1.5084-2.0094-2.939-2.6662-1.2749-0.5838-2.8054-0.87886-4.5477-0.87886-1.6086 0-3.028 0.27297-4.2193 0.8189-1.308 0.60116-2.2765 1.4642-2.8944 2.5716-0.57907 1.0572-0.86308 2.5438-0.86308 4.5589 0 1.4137 0.19407 2.5771 0.5838 3.5457 0.40077 0.99088 0.93566 1.7978 1.5864 2.399l0.9972 0.80786h-1.2749c-0.9467 0-1.7143 0.76841-1.7143 1.72v1.4532c0 1.8869 0.20039 3.3398 0.61851 4.4475 0.4844 1.3017 1.4753 2.3601 2.9389 3.1505 1.3412 0.71318 2.9446 1.0745 4.7648 1.0745 1.6588 0 3.1562-0.31241 4.4419-0.92462 1.409-0.67374 2.399-1.5747 2.9389-2.6718 0.49544-1.0019 0.73527-2.3936 0.73527-4.2583 0-2.5493-0.42286-4.4085-1.297-5.6943-0.50018-0.72896-1.3191-1.5147-2.5159-2.3879" fill="#3a3c45"/>
  <path d="m87.157-57.464c-1.3696-0.81259-3.0782-1.2244-5.0821-1.2244-1.4911 0-2.8389 0.26192-4.0188 0.78419-1.2354 0.54593-2.2322 1.3191-2.9502 2.2988-0.71318 0.96879-1.1471 2.0095-1.297 3.0893-0.12623 0.8899-0.18303 2.143-0.18303 3.8353v6.4791c0 2.3769 0.20512 4.1524 0.62325 5.4216 0.49544 1.4974 1.4911 2.6773 2.9725 3.5068 1.3475 0.75105 3.0391 1.136 5.0152 1.136 1.9594 0 3.657-0.46231 5.0431-1.3633 1.4358-0.93566 2.3879-2.0818 2.8387-3.4122 0.38973-1.1518 0.57907-2.9278 0.57907-5.4382v-0.86308c0-0.9467-0.76841-1.8535-1.7198-1.8535 0.95144 0 1.7198-0.82994 1.7198-1.7812v-2.1041c0-2.2934-0.20512-3.9799-0.61851-5.1488-0.4844-1.3633-1.469-2.4938-2.9222-3.3621" fill="#3a3c45"/>
  <path d="m109.89-55.666c-0.7621-1.024-1.7702-1.8035-3.0113-2.3156-1.1471-0.46704-2.4436-0.70687-3.8463-0.70687-1.4863 0-2.8221 0.25561-3.98 0.75736-1.2244 0.53489-2.2154 1.3254-2.9446 2.3379-0.72423 1.0082-1.1629 2.1318-1.297 3.3509-0.11045 1.0082-0.17198 2.6162-0.17198 4.9317v3.7963c0 2.3767 0.06311 4.0132 0.1783 4.9984 0.14201 1.207 0.60116 2.3379 1.3522 3.3565 0.7621 1.024 1.7757 1.8035 3.0113 2.31 1.1471 0.47335 2.4436 0.71318 3.852 0.71318 1.48 0 2.8164-0.25561 3.9743-0.7621 1.2197-0.53489 2.2098-1.3191 2.9446-2.3379 0.72423-1.0082 1.1629-2.1318 1.3017-3.3509 0.11045-1.013 0.16725-2.6217 0.16725-4.9262v-3.7961c0-2.3713-0.0631-4.0077-0.1783-5.0041-0.142-1.207-0.60116-2.3322-1.3522-3.3509" fill="#3a3c45"/>
  <path d="m131.87-50.451c0-2.2767-0.40077-3.9522-1.2244-5.121-0.85676-1.2197-1.9983-1.9927-3.3955-2.2989-1.0966-0.23983-3.0225-0.35028-5.8947-0.35028h-4.0857c-0.94671 0-1.7143 0.76841-1.7143 1.7145v22.187c0 0.9467 0.76841 1.7145 1.7143 1.7145h5.7722l0.87412-0.23983 0.87886 0.23983h5.3604c0.9467 0 1.7143-0.76841 1.7143-1.7145v-5.8502c0-2.5438-0.0947-3.2786-0.18934-3.6849-0.15778-0.61851-0.46704-1.2307-0.97353-1.8702l0.19408-0.23983c0.66269-0.91357 0.96879-2.3379 0.96879-4.4864" fill="#3a3c45"/>
  <path d="m147.78-40.476h-2.5216v-1.4469h1.8926c0.9467 0 1.7143-0.76841 1.7143-1.7143v-4.2248c0-0.9467-0.76841-1.7145-1.7143-1.7145h-1.8926v-0.77314h2.1375c0.9467 0 1.7145-0.76841 1.7145-1.72v-4.4363c0-0.95144-0.76841-1.72-1.7145-1.72h-9.6185c-0.9467 0-1.7143 0.76841-1.7143 1.72v22.187c0 0.9467 0.76841 1.7145 1.7143 1.7145h10.003c0.94671 0 1.7145-0.76841 1.7145-1.7145v-4.4418c0-0.9467-0.76841-1.7145-1.7145-1.7145" fill="#3a3c45"/>
  <path d="m168.74-46.327 0.0789-0.09467c0.66742-0.84099 0.98457-2.0428 0.98457-3.7796 0-2.2822-0.37868-3.9575-1.1518-5.1209-0.80155-1.2023-1.8757-2.0095-3.2005-2.4103-1.1076-0.3345-2.6217-0.49544-4.6311-0.49544h-5.7556c-0.94671 0-1.7143 0.76841-1.7143 1.7145v22.187c0 0.9467 0.76841 1.7145 1.7143 1.7145h6.674c3.39 0 4.5811-0.28401 5.1823-0.49544 1.1692-0.41182 2.0763-1.2307 2.6162-2.3657 0.45599-0.96248 0.67373-2.2934 0.67373-4.0634v-2.0596c0-1.809-0.32819-3.1782-1.0082-4.1747l-0.45599-0.56171" fill="#3a3c45"/>
  <path d="m189.4-55.666c-0.7621-1.0303-1.77-1.8035-3.0113-2.3155-1.1471-0.46704-2.4436-0.70687-3.8463-0.70687-1.4863 0-2.8276 0.25561-3.98 0.75736-1.2197 0.53489-2.2098 1.3191-2.9446 2.3377-0.72422 1.0082-1.1629 2.132-1.297 3.351-0.11045 0.99562-0.17199 2.6105-0.17199 4.9317v3.7961c0 2.3769 0.0631 4.0132 0.1783 4.9986 0.14201 1.207 0.60116 2.3377 1.3522 3.3509 0.7621 1.0303 1.7757 1.809 3.0115 2.3155 1.1471 0.47335 2.4434 0.71318 3.8518 0.71318 1.48 0 2.8221-0.25561 3.9743-0.7621 1.2244-0.53489 2.2154-1.3191 2.9446-2.3377 0.72423-1.0019 1.1629-2.132 1.3017-3.3509 0.11045-1.0019 0.16725-2.6162 0.16725-4.9262v-3.7963c0-2.3712-0.0631-4.0077-0.17829-5.004-0.14201-1.207-0.60116-2.3379-1.3522-3.351" fill="#3a3c45"/>
  <path d="m208.73-56.761c-0.12623-0.84099-0.84572-1.4642-1.6978-1.4642h-8.3383c-0.86308 0-1.5864 0.6406-1.7033 1.4911l-2.939 22.187 0.40708 1.3585 1.2922 0.5838h5.9671c0.55067 0 1.0461-0.26192 1.3585-0.67374 0.31715 0.41182 0.81259 0.67374 1.3633 0.67374h5.9061c0.95144 0 1.72-0.76841 1.72-1.7143l-0.0789-0.49544z" fill="#3a3c45"/>
  <path d="m231.87-50.451c0-2.2711-0.40077-3.9465-1.2244-5.121-0.85677-1.2197-1.9982-1.9927-3.3954-2.2989-1.0966-0.23983-3.0225-0.35028-5.8947-0.35028h-4.0857c-0.94671 0-1.7145 0.76841-1.7145 1.7145v22.187c0 0.9467 0.76841 1.7145 1.7145 1.7145h5.7722l0.87886-0.23983 0.87413 0.23983h5.3602c0.94671 0 1.7145-0.76841 1.7145-1.7145v-5.8502c0-2.5438-0.0947-3.2896-0.19407-3.6904-0.14201-0.6122-0.46231-1.2244-0.9688-1.8592l0.19408-0.24456c0.66269-0.91357 0.96879-2.3379 0.96879-4.4864" fill="#3a3c45"/>
  <path d="m252.63-53.215c-0.18303-1.024-0.6406-1.9594-1.3585-2.7776-0.73527-0.84572-1.7812-1.4469-3.1005-1.7923-1.1518-0.29979-3.0837-0.44022-6.0838-0.44022h-4.3195c-0.9467 0-1.7143 0.76841-1.7143 1.7143v22.193c0 0.9467 0.76841 1.7143 1.7143 1.7143h7.2808c1.5195 0 2.6495-0.09467 3.4678-0.26666 0.94039-0.20512 1.7645-0.59011 2.4379-1.1408 0.74632-0.60116 1.2638-1.4248 1.5526-2.4491 0.14201-0.52858 0.33924-1.5636 0.33924-4.453v-7.7706c0-2.2544-0.0631-3.6904-0.21774-4.5309" fill="#3a3c45"/>
  <path d="m67.605-49.794h-5.3604v-1.6421c0-0.76841-0.06311-1.2575-0.20039-1.469l-0.68952-0.31241-0.78419 0.42286c-0.1783 0.28401-0.26666 0.71318-0.26666 1.2923 0 0.74001 0.09467 1.297 0.29979 1.6698 0.18934 0.37868 0.73527 0.82994 1.6309 1.3585 2.5662 1.5258 4.1859 2.772 4.8539 3.7516 0.66269 0.97984 0.9972 2.555 0.9972 4.7258 0 1.5808-0.18303 2.7497-0.55698 3.4957-0.36764 0.75105-1.0792 1.3806-2.143 1.8869-1.0572 0.50649-2.2934 0.75736-3.7016 0.75736-1.5416 0-2.8611-0.28874-3.952-0.87412-1.0903-0.5838-1.809-1.3301-2.143-2.232-0.33924-0.90726-0.50649-2.1877-0.50649-3.852v-1.4532h5.3547v2.6997c0 0.82994 0.07889 1.3633 0.22879 1.6031l0.80154 0.35659 0.85677-0.45126c0.18303-0.3061 0.2777-0.75105 0.2777-1.3475 0-1.3017-0.1783-2.1597-0.53489-2.5605-0.36132-0.40077-1.2639-1.0745-2.6997-2.0149-1.4311-0.95144-2.3822-1.6421-2.8499-2.0708-0.46231-0.42917-0.85204-1.024-1.1581-1.7811-0.3061-0.75736-0.456-1.7257-0.456-2.9056 0-1.6978 0.21774-2.939 0.65165-3.7295 0.43391-0.78419 1.136-1.3964 2.1041-1.8423 0.9688-0.44022 2.1375-0.66269 3.5068-0.66269 1.4974 0 2.7721 0.23983 3.8296 0.72423 1.0572 0.4844 1.7535 1.0966 2.0985 1.8312 0.33924 0.73527 0.5128 1.9871 0.5128 3.7461z" fill="#fff"/>
  <path d="m88.979-46.48h-5.7667v-4.2248c0-1.1187-0.06311-1.8202-0.18934-2.0985l-0.81259-0.41813-0.90726 0.50649c-0.12623 0.33924-0.18934 1.0682-0.18934 2.1932v10.309c0 1.0792 0.06311 1.7812 0.18934 2.1096l0.86308 0.49544 0.84572-0.49544c0.12623-0.32819 0.20039-1.1076 0.20039-2.321v-3.2229h5.7667v1.297c0 2.2932-0.16094 3.9242-0.4844 4.8872-0.32819 0.95775-1.0414 1.8035-2.1542 2.5214-1.1076 0.72423-2.4771 1.0856-4.1024 1.0856-1.6921 0-3.0837-0.3061-4.1802-0.9183-1.0966-0.6122-1.8257-1.4579-2.182-2.5381-0.35659-1.0856-0.53489-2.7164-0.53489-4.8872v-6.4848c0-1.5974 0.06311-2.7997 0.16725-3.5957 0.11045-0.80154 0.43391-1.57 0.97984-2.31 0.54593-0.74001 1.297-1.3254 2.2599-1.7479 0.96248-0.42286 2.0706-0.63429 3.3229-0.63429 1.6978 0 3.106 0.32819 4.2081 0.98457 1.1076 0.65638 1.8314 1.4753 2.182 2.4548 0.34555 0.97984 0.51753 2.5048 0.51753 4.5754z" fill="#fff"/>
  <path d="m103.94-50.807c0-1.0351-0.0631-1.6922-0.17198-1.9816l-0.70688-0.42917-0.69109 0.34555c-0.16094 0.23352-0.23983 0.92462-0.23983 2.0651v10.359c0 1.2923 0.0473 2.0873 0.15778 2.3879l0.73528 0.45126 0.75105-0.52384c0.11045-0.34555 0.16725-1.1692 0.16725-2.4771zm5.7722 7.2918c0 2.2265-0.0631 3.8073-0.16094 4.7313-0.11045 0.92935-0.43391 1.7755-0.98457 2.5438-0.55067 0.76841-1.297 1.3585-2.2432 1.77-0.94039 0.41182-2.0373 0.61851-3.2841 0.61851-1.1913 0-2.2544-0.19408-3.2007-0.5838-0.9467-0.38973-1.7088-0.9688-2.2822-1.7478-0.57907-0.77314-0.9183-1.6198-1.0303-2.5328-0.11045-0.9183-0.16725-2.5159-0.16725-4.7981v-3.7961c0-2.2322 0.06311-3.8073 0.16094-4.737 0.11045-0.92462 0.43391-1.7755 0.98457-2.5438 0.55067-0.7621 1.3017-1.3522 2.2432-1.7645 0.94039-0.41182 2.0373-0.61851 3.2896-0.61851 1.185 0 2.2544 0.19565 3.1951 0.5838 0.9467 0.38342 1.7088 0.96879 2.2822 1.7478 0.57907 0.77314 0.9183 1.6198 1.0303 2.5328 0.11045 0.91357 0.16725 2.5103 0.16725 4.7981z" fill="#fff"/>
  <path d="m123.04-52.713v4.9317c0.64534 0 1.1029-0.09467 1.3633-0.26666 0.26192-0.1783 0.38973-0.75105 0.38973-1.731v-1.2197c0-0.70687-0.12623-1.1629-0.37869-1.3853-0.25087-0.21774-0.70687-0.32819-1.3743-0.32819m-5.7667-3.7963h4.0801c2.7219 0 4.5644 0.11045 5.5329 0.31715 0.96248 0.21143 1.7478 0.74632 2.3544 1.6088 0.60747 0.86308 0.91357 2.2432 0.91357 4.1302 0 1.731-0.21774 2.8889-0.64533 3.4845-0.42918 0.59011-1.2749 0.9467-2.5326 1.0682 1.1408 0.28401 1.9092 0.66269 2.2989 1.136l0.73527 1.308c0.0947 0.40077 0.14201 1.4911 0.14201 3.2841v5.8502h-5.3604v-7.3698c0-1.1913-0.0947-1.9259-0.2777-2.2099-0.18934-0.28401-0.67847-0.42286-1.4753-0.42286v10.003h-5.7669z" fill="#fff"/>
  <path d="m137.78-56.509h9.6185v4.4418h-3.852v4.2081h3.607v4.2193h-3.607v4.8817h4.236v4.4363h-10.003z" fill="#fff"/>
  <path d="m160.83-44.325v6.2064c0.81259-0.03156 1.3301-0.15778 1.5589-0.38342 0.22247-0.22879 0.3345-0.7905 0.3345-1.681v-2.0706c0-0.95144-0.0947-1.5258-0.29979-1.7255-0.20039-0.2067-0.73528-0.31715-1.592-0.34555m0-8.3884v4.9372l0.57906-0.01578c0.56172 0 0.92462-0.14201 1.0792-0.41813 0.15778-0.2777 0.23352-1.0745 0.23352-2.3934 0-0.68952-0.0631-1.1802-0.19408-1.4579l-0.50017-0.52858c-0.20039-0.07889-0.60116-0.11045-1.1976-0.12623m-5.7665-3.7961h5.7555c1.8145 0 3.195 0.14201 4.1302 0.42286 0.93566 0.28401 1.6921 0.85677 2.271 1.7198 0.57275 0.86308 0.86308 2.2544 0.86308 4.1691 0 1.297-0.20512 2.2042-0.61221 2.7164-0.4055 0.50649-1.207 0.90095-2.4046 1.1739 1.3364 0.29979 2.2377 0.80154 2.7107 1.5021 0.47808 0.70214 0.71318 1.77 0.71318 3.2174v2.0539c0 1.5037-0.16725 2.6105-0.5128 3.3341-0.33923 0.72423-0.8899 1.2134-1.6364 1.48-0.75105 0.26666-2.2877 0.39446-4.6034 0.39446h-6.674z" fill="#fff"/>
  <path d="m183.45-50.807c0-1.0351-0.0631-1.6922-0.17198-1.9816l-0.70688-0.42917-0.68951 0.34555c-0.16094 0.23352-0.23984 0.92462-0.23984 2.0651v10.359c0 1.2923 0.0473 2.0873 0.15779 2.3879l0.73527 0.45126 0.75105-0.52384c0.11045-0.34555 0.16726-1.1692 0.16726-2.4771zm5.7667 7.2918c0 2.2265-0.0473 3.8073-0.15779 4.7313-0.11045 0.92935-0.4339 1.7755-0.98457 2.5438-0.55067 0.76841-1.3017 1.3585-2.2432 1.77-0.94039 0.41182-2.0372 0.61851-3.2896 0.61851-1.185 0-2.2543-0.19408-3.195-0.5838-0.94671-0.38973-1.709-0.9688-2.2822-1.7478-0.57907-0.77314-0.91831-1.6198-1.0303-2.5328-0.11045-0.9183-0.16725-2.5159-0.16725-4.7981v-3.7961c0-2.2322 0.0631-3.8073 0.16094-4.737 0.11044-0.92462 0.4339-1.7755 0.98457-2.5438 0.55067-0.7621 1.3017-1.3522 2.2432-1.7645 0.94039-0.41182 2.0316-0.61851 3.2841-0.61851 1.1913 0 2.2598 0.19565 3.2005 0.5838 0.9467 0.38342 1.709 0.96879 2.2822 1.7478 0.57907 0.77314 0.9183 1.6198 1.0303 2.5328 0.11045 0.91357 0.16094 2.5103 0.16094 4.7981z" fill="#fff"/>
  <path d="m203.98-42.242c-0.29505-2.5159-0.5838-5.6218-0.87885-9.3179-0.59012 4.2471-0.95775 7.3531-1.1076 9.3179zm3.0558-14.266 3.3008 22.187h-5.8946l-0.31242-3.9853h-2.0651l-0.34554 3.9853h-5.9671l2.9446-22.187z" fill="#fff"/>
  <path d="m223.04-52.713v4.9317c0.64533 0 1.1029-0.09467 1.3632-0.26666 0.26192-0.1783 0.38973-0.75105 0.38973-1.731v-1.2197c0-0.70687-0.12623-1.1629-0.37868-1.3853-0.25088-0.21774-0.70688-0.32819-1.3743-0.32819m-5.7665-3.7963h4.08c2.7219 0 4.5644 0.11045 5.5329 0.31715 0.96248 0.21143 1.7479 0.74632 2.3546 1.6088 0.60589 0.86308 0.91357 2.2432 0.91357 4.1302 0 1.731-0.21774 2.8889-0.64533 3.4845-0.42918 0.59011-1.2749 0.9467-2.5328 1.0682 1.1408 0.28401 1.9093 0.66269 2.2989 1.136l0.73527 1.308c0.0947 0.40077 0.14201 1.4911 0.14201 3.2841v5.8502h-5.3602v-7.3698c0-1.1913-0.0947-1.9259-0.2777-2.2099-0.18934-0.28401-0.67848-0.42286-1.4753-0.42286v10.003h-5.7667z" fill="#fff"/>
  <path d="m243.54-52.713v14.595c0.82994 0 1.3412-0.16725 1.5368-0.50175 0.18934-0.32819 0.28401-1.2354 0.28401-2.7163v-8.6221c0-1.0082-0.0316-1.6477-0.0947-1.9316l-0.44021-0.62325c-0.22879-0.12623-0.65639-0.20039-1.2859-0.20039m-5.7722-3.7961h4.3195c2.7887 0 4.6701 0.12623 5.6553 0.38342 0.97984 0.25561 1.7255 0.67847 2.2377 1.2639 0.5128 0.5838 0.82995 1.2354 0.96249 1.9482 0.12622 0.71792 0.18934 2.1263 0.18934 4.2304v7.7706c0 1.9927-0.0947 3.3231-0.2777 3.9965-0.18934 0.66743-0.51754 1.1976-0.97984 1.5747-0.46704 0.37868-1.0461 0.64534-1.7312 0.79523-0.68478 0.15778-1.7143 0.22248-3.0948 0.22248h-7.2806z" fill="#fff"/>
 </g>
</svg>
