<svg width="800" height="258.08" version="1.1" viewBox="0 0 211.67 68.285" xmlns="http://www.w3.org/2000/svg">
 <defs>
  <clipPath id="clipPath3750">
   <path d="m0 0h612v792h-612z"/>
  </clipPath>
 </defs>
 <g transform="translate(-49.804 34.838)">
  <g transform="matrix(5.5644 0 0 -5.5644 -210.9 2398)" fill="#fff">
   <g clip-path="url(#clipPath3750)" fill="#fff">
    <g transform="translate(80.38 433.35)">
     <path d="m0 0s0.483 1.711 2.257 1.711c1.77 0 2.255-1.424 2.255-2.96 0-2.55-4.512-5.844-4.512-5.844h-0.018s-4.51 3.294-4.51 5.844c0 1.536 0.482 2.96 2.257 2.96 1.769 0 2.253-1.711 2.253-1.711z" fill="#ec047c"/>
    </g>
    <g transform="translate(77.494 431.52)">
     <path d="m0 0c0.98 0.3 1.691 1.009 1.635 2.005-0.053 0.996-0.828 1.453-1.816 1.232-0.988-0.222-2.247-1.542-1.924-2.855 0.281-1.144 1.002-2.173 1.993-3.142 0.586-0.571 1.897-1.869 2.071-2.548 0 0-0.543 0.807-1.751 1.57-1.21 0.765-2.351 1.783-3.24 2.817-0.89 1.032-1.025 2.689-0.411 3.644 0.613 0.95 1.926 2.063 3.522 1.818 1.597-0.242 2.273-1.164 2.319-1.994 0.046-0.831-0.284-1.46-0.725-1.915-0.577-0.592-1.673-0.632-1.673-0.632" fill="#fff"/>
    </g>
    <g transform="translate(80.157 433.79)">
     <path d="M 0,0 C 0.37,0.854 1.605,1.833 2.703,1.562 3.8,1.288 4.615,0.124 4.491,-1.185 4.361,-2.566 2.965,-4.108 1.938,-5.166 0.916,-6.221 0.149,-7.217 -0.593,-8.089 c 0,0 0.591,1.385 1.138,2.224 0.61,0.951 0.831,1.363 1.372,2.141 0.539,0.78 0.903,1.088 1.217,2.066 C 3.313,-1.105 3.427,-0.316 2.855,0.37 2.545,0.74 1.532,0.961 0.961,0.722 0.343,0.46 0,0 0,0" fill="#fff"/>
    </g>
    <g transform="translate(77.554 427.58)">
     <path d="m 0,0 c -0.523,0.349 -1.749,1.355 -2.357,1.881 -0.616,0.524 -1.487,1.484 -1.663,2.267 0,0 0.262,-1.306 1.222,-2.4 C -2.366,1.261 0,0 0,0" fill="#fff"/>
    </g>
    <g transform="translate(81.791 434.44)">
     <path d="M 0,0 C 0.482,0 1.183,-0.535 1.311,-0.917 1.46,-1.354 1.486,-2.009 1.05,-2.533 c 0,0 0.307,1.137 -0.132,1.747 C 0.571,-0.302 0,0 0,0" fill="#fff"/>
    </g>
    <g transform="translate(71.885 430.36)">
     <path d="m0 0c0.343 0 0.499-0.314 0.464-0.619-0.027-0.229-0.14-0.431-0.294-0.596-0.474-0.501-1.229-0.714-1.877-0.867 0.109 0.546 0.334 1.085 0.701 1.509 0.248 0.287 0.607 0.573 1.006 0.573m2.06-2.222c-0.121 0-0.175-0.199-0.21-0.285-0.063-0.142-0.125-0.285-0.199-0.424-0.166-0.311-0.38-0.602-0.648-0.835-0.461-0.403-1.092-0.594-1.698-0.483-0.52 0.095-0.906 0.456-1.034 0.972-0.062 0.246-0.058 0.491-0.041 0.744l0.496 0.119c0.179 0.034 0.36 0.075 0.537 0.117 0.532 0.126 1.076 0.265 1.565 0.516 0.329 0.169 0.639 0.404 0.795 0.75 0.173 0.379 0.171 0.889-0.091 1.225-0.337 0.443-0.957 0.475-1.463 0.376-1.109-0.218-2.063-1.067-2.595-2.04-0.518-0.946-0.813-2.431 0.01-3.301 0.761-0.802 2.09-0.647 2.942-0.09 0.544 0.353 0.97 0.864 1.299 1.416 0.16 0.267 0.3 0.542 0.417 0.829l0.073 0.202-0.155 0.192m-6.715 2.859-0.196-0.023-0.086-0.092c-0.13-0.146-0.263-0.292-0.391-0.437l-0.146-0.164-0.027-0.14 7e-3 -0.085 0.147-0.035c0.144-0.041 0.282-0.102 0.405-0.179 0.493-0.312 0.736-0.883 0.718-1.455-0.015-0.536-0.278-1.025-0.59-1.45-0.225-0.306-0.481-0.59-0.746-0.859-0.15 0.722-0.526 1.351-0.893 1.98-0.359 0.612-0.692 1.303-0.311 1.987 0.12 0.214 0.285 0.396 0.458 0.567 0.077 0.077 0.202 0.189 0.049 0.272l-0.16-9e-3c-0.353-0.146-0.677-0.42-0.945-0.688-0.367-0.367-0.691-0.834-0.747-1.362-0.077-0.711 0.439-1.33 0.807-1.886 0.383-0.583 0.714-1.191 0.914-1.865l0.097-0.034c0.095 0.017 0.193 0.034 0.29 0.05 0.092 0.016 0.182 0.03 0.272 0.048 0.09 0.012 0.092 5e-3 0.137 0.09 0.334 0.668 0.875 1.18 1.393 1.702 0.643 0.677 1.185 1.497 1.083 2.47-0.084 0.806-0.668 1.597-1.539 1.597m-6.287-4.989c-0.532 0-0.99 0.291-1.233 0.761-0.299 0.581-0.275 1.292-0.055 1.891 0.094 0.263 0.225 0.507 0.367 0.742l0.1 0.182 0.161 0.077c0.185 0.054 0.367 0.125 0.55 0.185 0.242 0.075 0.538 5e-3 0.769-0.087 0.236-0.097 0.443-0.253 0.606-0.449 0.857-1.069 0.286-3.302-1.265-3.302m-11.628-0.522c-0.558 0-1.052 0.295-1.098 0.888s0.393 0.996 0.959 1.063c0.355 0.04 0.732-0.019 1.075-0.113 0.181-0.047 0.363-0.113 0.535-0.186 0.09-0.041 0.18-0.079 0.269-0.125l0.135-0.069 0.054-0.13c-0.279-0.556-0.738-1.039-1.341-1.235-0.189-0.06-0.389-0.093-0.588-0.093m12.054 5.491c-0.283 0-0.558-0.053-0.785-0.233-0.246-0.195-0.434-0.471-0.583-0.745l-0.086-0.175-0.076-0.047-0.224-0.181c-0.209-0.187-0.393-0.402-0.558-0.629-0.392-0.538-0.58-1.172-0.921-1.739-0.317-0.531-0.764-1.046-1.372-1.243-0.737-0.237-1.421 0.093-2.084 0.397-0.774 0.356-1.551 0.701-2.367 0.935 0.255 0.71 0.413 1.431 0.353 2.187-0.062 0.836-0.304 1.641-0.486 2.458-0.164 0.723-0.296 1.484-0.169 2.222 0.092 0.535 0.32 1.046 0.681 1.454 0.739 0.833 2.009 1.171 3.078 0.869 1.109-0.31 1.742-1.398 1.625-2.524-0.058-0.549-0.351-1.081-0.864-1.326-0.455-0.216-1.102-0.214-1.438 0.211-0.353 0.446-0.312 1.166 0.038 1.597 0.102 0.121 0.531 0.412 0.344 0.581-0.1 0.09-0.325-0.027-0.421-0.072-0.855-0.382-1.721-1.433-1.099-2.373 0.322-0.485 0.93-0.653 1.482-0.649 0.643 8e-3 1.28 0.21 1.818 0.562 0.976 0.633 1.63 1.799 1.215 2.957-0.398 1.116-1.584 1.69-2.71 1.736-1.152 0.045-2.32-0.323-3.217-1.057-0.875-0.713-1.445-1.742-1.631-2.854-0.157-0.931-0.025-1.87 0.196-2.783 0.227-0.95 0.626-1.947 0.398-2.932-0.742 0.204-1.5 0.348-2.271 0.313-0.593-0.028-1.22-0.136-1.725-0.462-0.378-0.242-0.647-0.62-0.657-1.079-0.013-0.517 0.308-0.942 0.761-1.168 0.554-0.276 1.233-0.293 1.835-0.182 0.613 0.111 1.178 0.397 1.657 0.795 0.266 0.225 0.508 0.482 0.722 0.753 0.323-0.232 0.648-0.459 0.98-0.67 0.514-0.326 1.057-0.629 1.648-0.777 1.562-0.387 3.137 0.597 3.914 1.913 0.011-0.539 0.167-1.094 0.562-1.481 0.38-0.369 0.923-0.523 1.445-0.499 1.098 0.049 2.028 0.949 2.506 1.878 0.43 0.839 0.613 1.917 0.293 2.822-0.281 0.785-0.982 1.24-1.807 1.24" fill="#fff"/>
    </g>
    <g transform="translate(62.04 435.36)">
     <path d="m0 0-0.033-0.095-0.098-0.124-0.111-0.017c-0.067 0-0.153 0.025-0.26 0.076-0.152 0.071-0.232 0.107-0.239 0.109-0.101 0.036-0.203 0.051-0.306 0.051-0.186 0-0.346-0.031-0.473-0.091-0.164-0.08-0.248-0.202-0.248-0.363 0-0.104 0.053-0.193 0.155-0.258 0.06-0.04 0.16-0.081 0.296-0.123 0.108-0.026 0.263-0.073 0.472-0.135 0.243-0.088 0.439-0.224 0.594-0.414 0.106-0.13 0.161-0.288 0.161-0.466 0-0.106-0.045-0.216-0.129-0.332-0.06-0.084-0.158-0.16-0.287-0.234-0.203-0.117-0.432-0.175-0.69-0.175-0.257 0-0.536 0.084-0.832 0.251l-0.223 0.167c-0.092 0.088-0.139 0.164-0.139 0.228l0.044 0.122 0.093 0.089 0.111 0.016c0.09 0 0.185-0.047 0.284-0.137 0.09-0.085 0.178-0.167 0.269-0.251 0.114-0.09 0.234-0.135 0.357-0.135 0.193 0 0.335 0.045 0.431 0.137 0.105 0.099 0.158 0.194 0.158 0.287 0 0.106-0.05 0.204-0.153 0.291-0.093 0.081-0.201 0.139-0.326 0.182-0.168 0.04-0.419 0.109-0.753 0.204-0.104 0.033-0.204 0.087-0.299 0.164-0.053 0.038-0.097 0.11-0.128 0.211l-0.04 0.243c0 0.114 0.043 0.229 0.132 0.342 0.086 0.115 0.199 0.207 0.341 0.279 0.045 0.031 0.114 0.071 0.212 0.126 0.239 0.113 0.52 0.17 0.846 0.17 0.197 0 0.35-0.019 0.463-0.059 0.231-0.082 0.348-0.192 0.348-0.336" fill="#fff"/>
    </g>
    <g transform="translate(62.755 434.3)">
     <path d="m0 0-0.083-0.651 4e-3 0.039c-0.015-0.167-0.021-0.263-0.019-0.292v-0.068c0-0.172-0.067-0.26-0.201-0.26l-0.166 0.059c-0.022 0.029-0.038 0.093-0.048 0.191-0.01 0.107-0.034 0.272-0.072 0.489-0.033 0.19-0.05 0.306-0.05 0.357 0 0.112 0.037 0.199 0.108 0.263 0.066 0.059 0.156 0.089 0.267 0.089 0.174 0 0.26-0.07 0.26-0.216m0.055 0.917c0-0.11-0.042-0.209-0.128-0.292s-0.183-0.124-0.292-0.124l-0.211 0.077-0.092 0.202c0 0.112 0.048 0.216 0.147 0.319 0.098 0.104 0.194 0.156 0.289 0.156l0.215-0.106c0.049-0.064 0.072-0.14 0.072-0.232" fill="#fff"/>
    </g>
    <g transform="translate(64.205 434.47)">
     <path d="m0 0c0-0.107-0.037-0.182-0.109-0.228l-0.103-0.022-0.056 1e-3 -0.053 5e-3 -0.234-0.074c-0.095-0.057-0.167-0.133-0.217-0.225-0.077-0.144-0.112-0.385-0.104-0.722 4e-3 -0.197-0.064-0.296-0.203-0.296l-0.146 0.059-0.063 0.143 2e-3 0.027 0.093 0.538c-0.049 0.198-0.074 0.288-0.074 0.267l0.054 0.135 0.051 0.103v0.348c-1e-3 0.155-1e-3 0.234-1e-3 0.234 0.018 0.103 0.107 0.156 0.265 0.156l0.121-0.076 0.04-0.14-0.016-0.103-0.012-0.106 0.031-0.029c1e-3 0 0.071 0.047 0.208 0.147s0.245 0.148 0.323 0.148c0.073 0 0.13-0.047 0.17-0.138l0.01-0.089 0.012-0.034 0.011-0.029" fill="#fff"/>
    </g>
    <g transform="translate(64.832 434.3)">
     <path d="m0 0-0.081-0.651 1e-3 0.039c-0.013-0.167-0.018-0.263-0.016-0.292v-0.068c0-0.172-0.067-0.26-0.202-0.26l-0.167 0.059c-0.02 0.029-0.038 0.093-0.046 0.191-0.01 0.107-0.035 0.272-0.073 0.489-0.033 0.19-0.048 0.306-0.048 0.357 0 0.112 0.036 0.199 0.107 0.263 0.067 0.059 0.154 0.089 0.266 0.089 0.173 0 0.259-0.07 0.259-0.216m0.056 0.917c0-0.11-0.042-0.209-0.128-0.292-0.085-0.083-0.183-0.124-0.291-0.124l-0.212 0.077-0.091 0.202c0 0.112 0.049 0.216 0.147 0.319 0.098 0.104 0.195 0.156 0.289 0.156 0.091 0 0.162-0.034 0.215-0.106 0.047-0.064 0.071-0.14 0.071-0.232" fill="#fff"/>
    </g>
    <g transform="translate(66.44 434.24)">
     <path d="m0 0c0-0.033-0.01-0.102-0.028-0.206l-0.03-0.178c-0.027-0.19-0.04-0.356-0.04-0.493v-0.212c0-6e-3 4e-3 -0.068 0.012-0.183 6e-3 -0.116 0.01-0.178 0.01-0.182 0-0.142-0.031-0.232-0.096-0.271l-0.078-0.042-0.02 8e-3 -0.016 4e-3c-0.091 2e-3 -0.151 0.041-0.176 0.117-0.01 0.026-0.016 0.099-0.016 0.224l-0.021 0.047-0.01 2e-3 -0.05-0.019-0.056-0.039-0.203-0.043c-0.33 0-0.535 0.2-0.619 0.6-5e-3 0.025-8e-3 0.087-8e-3 0.191 0 0.127 0.017 0.258 0.058 0.392 0.048 0.169 0.117 0.29 0.2 0.365l0.157 0.045 0.115-0.039 0.053-0.092c0-0.041-0.038-0.141-0.107-0.298-0.07-0.153-0.104-0.302-0.104-0.445 0-0.012 0.011-0.068 0.038-0.167l0.1-0.165 0.168-0.066c0.09 0 0.179 0.073 0.266 0.212 0.037 0.058 0.062 0.138 0.078 0.237 0.021 0.138 0.031 0.236 0.031 0.296v0.257c0 0.137 5e-3 0.217 0.015 0.242 0.026 0.056 0.097 0.084 0.213 0.084 0.109 0 0.164-0.059 0.164-0.183" fill="#fff"/>
    </g>
    <g transform="translate(68.115 434.39)">
     <path d="m0 0-0.07-0.16-0.17-0.061-0.156 0.034-0.201 0.036c-0.109 0-0.208-0.036-0.297-0.106-0.095-0.074-0.143-0.164-0.143-0.274 0-0.112 0.048-0.197 0.141-0.263 0.056-0.023 0.137-0.065 0.242-0.123 0.237-0.15 0.354-0.302 0.354-0.451 0-0.174-0.072-0.321-0.219-0.438-0.133-0.1-0.292-0.154-0.47-0.154-0.154 0-0.287 0.024-0.405 0.072-0.172 0.074-0.258 0.186-0.258 0.338l0.07 0.143 0.073 0.012c0.034 0 0.118-0.041 0.252-0.124 0.133-0.084 0.234-0.126 0.3-0.126 0.161 0 0.241 0.069 0.241 0.206 0 0.085-0.055 0.164-0.165 0.236-0.023 0.017-0.088 0.055-0.193 0.114-0.052 0.026-0.131 0.069-0.233 0.125-0.157 0.087-0.234 0.2-0.234 0.34 0 0.086 0.044 0.205 0.132 0.357 0.045 0.075 0.129 0.157 0.251 0.244 0.083 0.059 0.209 0.118 0.379 0.172 0.174 0.059 0.315 0.089 0.424 0.089 0.238 0 0.355-0.079 0.355-0.238" fill="#fff"/>
    </g>
    <g transform="translate(70.29 436.03)">
     <path d="m0 0-0.046-0.097c-0.104-0.109-0.242-0.275-0.408-0.495-0.036-0.056-0.085-0.137-0.148-0.245-0.108-0.191-0.18-0.321-0.217-0.392-0.076-0.152-0.132-0.285-0.163-0.4l-2e-3 -0.093c0-0.089 0.024-0.188 0.074-0.293 0.026-0.056 0.067-0.144 0.123-0.257l0.241-0.392c0.112-0.172 0.229-0.327 0.353-0.464l0.045-0.1-0.031-0.115-0.219-0.117c-0.094 0-0.178 0.042-0.252 0.125-0.07 0.073-0.13 0.17-0.186 0.285-0.045 0.098-0.087 0.194-0.13 0.29-0.085 0.169-0.172 0.363-0.259 0.582l-0.05 0.058c-0.024 0-0.063-0.054-0.12-0.164-0.084-0.152-0.2-0.377-0.351-0.684-0.022-0.052-0.057-0.151-0.108-0.294-0.05-0.159-0.115-0.236-0.194-0.236l-0.207 0.066-0.092 0.192 0.04 0.153c0.049 0.086 0.161 0.262 0.339 0.535 7e-3 9e-3 0.048 0.086 0.126 0.228 0.04 0.074 0.096 0.175 0.168 0.311 0.057 0.121 0.086 0.225 0.086 0.309 0 0.114-0.074 0.307-0.223 0.583-0.059 0.111-0.133 0.226-0.221 0.351-0.091 0.126-0.15 0.214-0.176 0.262l-0.095 0.139-0.044 0.102 0.053 0.156 0.2 0.104c0.111 0 0.193-0.042 0.244-0.13 0.015-0.027 0.092-0.198 0.235-0.515 0.063-0.142 0.109-0.243 0.136-0.298 0.056-0.109 0.11-0.204 0.167-0.285 0.109 0.176 0.268 0.441 0.473 0.795 0.064 0.105 0.155 0.257 0.265 0.458l0.099 0.168 0.145 0.071 0.14-8e-3 0.129-0.109 0.061-0.14" fill="#fff"/>
    </g>
    <g transform="translate(72.848 433.13)">
     <path d="m0 0-0.07-0.18-0.162-0.082-0.166 0.04-0.027 0.035-0.067 0.168c5e-3 -0.076 9e-3 -0.015 9e-3 0.187 0 0.051 3e-3 0.142 8e-3 0.278 7e-3 0.12 9e-3 0.216 7e-3 0.28-4e-3 0.239-9e-3 0.597-0.019 1.076l-0.017 0.058h-0.017l-0.081-0.131-0.046-0.16c-0.086-0.261-0.148-0.46-0.186-0.598-0.064-0.232-0.1-0.364-0.112-0.4-0.047-0.142-0.105-0.256-0.174-0.344l-0.16-0.079c-0.161 0-0.264 0.075-0.312 0.22-0.031 0.097-0.061 0.227-0.089 0.386-0.023 0.114-0.051 0.282-0.092 0.506-0.014 0.101-0.027 0.151-0.041 0.151l-0.049-0.033c-0.022-0.062-0.062-0.202-0.121-0.421-0.068-0.257-0.151-0.62-0.246-1.091-7e-3 -0.068-0.027-0.17-0.059-0.3l-0.016-0.075-0.066-0.062-0.079-0.031-0.039 0.011-0.171 0.121-0.067 0.174c0 0.054 0.021 0.144 0.062 0.27 0.028 0.091 0.058 0.184 0.087 0.276 0.057 0.143 0.126 0.362 0.213 0.66 0.04 0.163 0.101 0.409 0.182 0.737 0.053 0.217 0.099 0.447 0.136 0.696l0.011 0.083 0.051 0.102 0.23 0.112c0.092 0 0.165-0.037 0.221-0.112l0.043-0.122c9e-3 -0.148 0.021-0.346 0.041-0.601 9e-3 -0.076 0.024-0.185 0.044-0.325 0.013-0.203 0.043-0.364 0.082-0.485l0.047-0.168 0.036-0.024 0.028 9e-3c0.021 0.04 0.047 0.113 0.078 0.218 0.08 0.262 0.193 0.648 0.339 1.165 0.027 0.085 0.064 0.213 0.112 0.389l0.104 0.144 0.124 0.046c0.126 0 0.207-0.048 0.243-0.144 3e-3 -9e-3 0.013-0.07 0.026-0.18 0.012-0.127 0.019-0.217 0.019-0.275 0-0.447 0.023-0.936 0.07-1.469 9e-3 -0.094 0.028-0.238 0.057-0.433 0.028-0.184 0.041-0.273 0.041-0.273" fill="#fff"/>
    </g>
   </g>
  </g>
 </g>
</svg>
