<svg width="800" height="779.81" version="1.1" viewBox="0 0 211.67 206.32" xmlns="http://www.w3.org/2000/svg">
 <defs>
  <linearGradient id="linearGradient7988" x2="1" gradientTransform="matrix(-.64592 -2.2526 -2.2526 .64592 454.16 731.09)" gradientUnits="userSpaceOnUse">
   <stop stop-color="#235285" offset="0"/>
   <stop stop-color="#15263e" offset="1"/>
  </linearGradient>
  <linearGradient id="linearGradient7968" x2="1" gradientTransform="matrix(-.6005 -2.0942 -2.0942 .6005 452.01 731.08)" gradientUnits="userSpaceOnUse">
   <stop stop-color="#235285" offset="0"/>
   <stop stop-color="#15263e" offset="1"/>
  </linearGradient>
  <linearGradient id="linearGradient7948" x2="1" gradientTransform="matrix(-.45982 -1.6036 -1.6036 .45982 450.57 730.57)" gradientUnits="userSpaceOnUse">
   <stop stop-color="#235285" offset="0"/>
   <stop stop-color="#15263e" offset="1"/>
  </linearGradient>
  <linearGradient id="linearGradient7928" x2="1" gradientTransform="matrix(-.44771 -1.5614 -1.5614 .44771 449.22 730.61)" gradientUnits="userSpaceOnUse">
   <stop stop-color="#235285" offset="0"/>
   <stop stop-color="#15263e" offset="1"/>
  </linearGradient>
  <linearGradient id="linearGradient7908" x2="1" gradientTransform="matrix(-.50616 -1.7652 -1.7652 .50616 448.36 730.85)" gradientUnits="userSpaceOnUse">
   <stop stop-color="#235285" offset="0"/>
   <stop stop-color="#15263e" offset="1"/>
  </linearGradient>
  <linearGradient id="linearGradient7888" x2="1" gradientTransform="matrix(-.42527 -1.4831 -1.4831 .42527 447.65 730.54)" gradientUnits="userSpaceOnUse">
   <stop stop-color="#235285" offset="0"/>
   <stop stop-color="#15263e" offset="1"/>
  </linearGradient>
  <linearGradient id="linearGradient7868" x2="1" gradientTransform="matrix(-.50608 -1.7649 -1.7649 .50608 447.13 730.85)" gradientUnits="userSpaceOnUse">
   <stop stop-color="#235285" offset="0"/>
   <stop stop-color="#15263e" offset="1"/>
  </linearGradient>
  <linearGradient id="linearGradient7848" x2="1" gradientTransform="matrix(-.59735 -2.0832 -2.0832 .59735 446.19 731.07)" gradientUnits="userSpaceOnUse">
   <stop stop-color="#235285" offset="0"/>
   <stop stop-color="#15263e" offset="1"/>
  </linearGradient>
  <linearGradient id="linearGradient7828" x2="1" gradientTransform="matrix(9.0527 9.0527 9.0527 -9.0527 445.7 716.16)" gradientUnits="userSpaceOnUse">
   <stop stop-color="#212733" offset="0"/>
   <stop stop-color="#eaeef5" offset=".33129"/>
   <stop stop-color="#212733" offset=".58282"/>
   <stop stop-color="#eaeef5" offset=".84663"/>
   <stop stop-color="#212733" offset="1"/>
  </linearGradient>
  <linearGradient id="linearGradient7802" x2="1" gradientTransform="matrix(0 6.5712 6.5712 0 450.23 713.78)" gradientUnits="userSpaceOnUse">
   <stop stop-color="#288e3e" offset="0"/>
   <stop stop-color="#0a240a" offset=".7"/>
   <stop stop-color="#0a240a" offset="1"/>
  </linearGradient>
  <linearGradient id="linearGradient7780" x2="1" gradientTransform="matrix(-1.0399 .43673 .43673 1.0399 446.01 718.44)" gradientUnits="userSpaceOnUse">
   <stop stop-color="#235285" offset="0"/>
   <stop stop-color="#15263e" offset="1"/>
  </linearGradient>
  <linearGradient id="linearGradient7760" x2="1" gradientTransform="matrix(.51917 -2.0485 -2.0485 -.51917 454.15 720.18)" gradientUnits="userSpaceOnUse">
   <stop stop-color="#235285" offset="0"/>
   <stop stop-color="#15263e" offset="1"/>
  </linearGradient>
  <linearGradient id="linearGradient7740" x2="1" gradientTransform="matrix(.22618 -.56207 -.5632 -.22602 449.2 721.84)" gradientUnits="userSpaceOnUse">
   <stop stop-color="#235285" offset="0"/>
   <stop stop-color="#15263e" offset="1"/>
  </linearGradient>
  <linearGradient id="linearGradient7720" x2="1" gradientTransform="matrix(-.71901 -2.4374 -2.4415 .7166 449.4 718.38)" gradientUnits="userSpaceOnUse">
   <stop stop-color="#235285" offset="0"/>
   <stop stop-color="#15263e" offset="1"/>
  </linearGradient>
  <linearGradient id="linearGradient7700" x2="1" gradientTransform="matrix(.91058 .12563 .12545 -.90886 444.93 718.54)" gradientUnits="userSpaceOnUse">
   <stop stop-color="#c1c5ce" offset="0"/>
   <stop stop-color="#2a2a2b" offset="1"/>
  </linearGradient>
  <linearGradient id="linearGradient7680" x2="1" gradientTransform="matrix(2.0438 .28197 .28157 -2.0399 453.41 718.68)" gradientUnits="userSpaceOnUse">
   <stop stop-color="#c1c5ce" offset="0"/>
   <stop stop-color="#2a2a2b" offset="1"/>
  </linearGradient>
  <linearGradient id="linearGradient7660" x2="1" gradientTransform="matrix(3.6554 .50433 .50361 -3.6485 447.56 721.11)" gradientUnits="userSpaceOnUse">
   <stop stop-color="#c1c5ce" offset="0"/>
   <stop stop-color="#2a2a2b" offset="1"/>
  </linearGradient>
  <linearGradient id="linearGradient7640" x2="1" gradientTransform="matrix(3.9057 .53886 .53808 -3.8983 447.34 717.03)" gradientUnits="userSpaceOnUse">
   <stop stop-color="#c1c5ce" offset="0"/>
   <stop stop-color="#2a2a2b" offset="1"/>
  </linearGradient>
  <linearGradient id="linearGradient7620" x2="1" gradientTransform="matrix(-3.3696 3.7215 3.7215 3.3696 447.72 718.84)" gradientUnits="userSpaceOnUse">
   <stop stop-color="#fff" offset="0"/>
   <stop stop-color="#717780" offset="1"/>
  </linearGradient>
  <linearGradient id="linearGradient7600" x2="1" gradientTransform="matrix(1.9432 3.9794 3.9794 -1.9432 450.97 718.94)" gradientUnits="userSpaceOnUse">
   <stop stop-color="#fff" offset="0"/>
   <stop stop-color="#717780" offset="1"/>
  </linearGradient>
  <linearGradient id="linearGradient7580" x2="1" gradientTransform="matrix(1.8274 -2.6262 -2.6262 -1.8274 451.7 717.61)" gradientUnits="userSpaceOnUse">
   <stop stop-color="#fff" offset="0"/>
   <stop stop-color="#717780" offset="1"/>
  </linearGradient>
  <linearGradient id="linearGradient7560" x2="1" gradientTransform="matrix(.40358 -2.7362 -2.7414 -.40408 447.14 720.7)" gradientUnits="userSpaceOnUse">
   <stop stop-color="#fff" offset="0"/>
   <stop stop-color="#717780" offset="1"/>
  </linearGradient>
  <linearGradient id="linearGradient7540" x2="1" gradientTransform="matrix(-.19575 -2.4856 -2.49 .19427 451.46 721.25)" gradientUnits="userSpaceOnUse">
   <stop stop-color="#fff" offset="0"/>
   <stop stop-color="#717780" offset="1"/>
  </linearGradient>
  <linearGradient id="linearGradient7520" x2="1" gradientTransform="matrix(3.0249 .80254 .80264 -3.019 451.2 716.36)" gradientUnits="userSpaceOnUse">
   <stop stop-color="#fff" offset="0"/>
   <stop stop-color="#717780" offset="1"/>
  </linearGradient>
  <linearGradient id="linearGradient7500" x2="1" gradientTransform="matrix(-.10997 -1.3964 -1.3989 .10914 452.91 721.64)" gradientUnits="userSpaceOnUse">
   <stop stop-color="#fff" offset="0"/>
   <stop stop-color="#717780" offset="1"/>
  </linearGradient>
  <linearGradient id="linearGradient7480" x2="1" gradientTransform="matrix(-.13497 -1.7138 -1.7169 .13395 446.81 721.49)" gradientUnits="userSpaceOnUse">
   <stop stop-color="#fff" offset="0"/>
   <stop stop-color="#717780" offset="1"/>
  </linearGradient>
  <linearGradient id="linearGradient7460" x2="1" gradientTransform="matrix(4.186 4.186 4.186 -4.186 450.76 723.26)" gradientUnits="userSpaceOnUse">
   <stop stop-color="#288e3e" offset="0"/>
   <stop stop-color="#0a240a" offset="1"/>
  </linearGradient>
  <linearGradient id="linearGradient7440" x2="1" gradientTransform="matrix(5.449 5.449 5.449 -5.449 444.1 722.77)" gradientUnits="userSpaceOnUse">
   <stop stop-color="#288e3e" offset="0"/>
   <stop stop-color="#0a240a" offset="1"/>
  </linearGradient>
  <linearGradient id="linearGradient7420" x2="1" gradientTransform="matrix(6.4312 6.4312 6.4312 -6.4312 443.53 722.1)" gradientUnits="userSpaceOnUse">
   <stop stop-color="#212733" offset="0"/>
   <stop stop-color="#eaeef5" offset=".33129"/>
   <stop stop-color="#212733" offset=".58282"/>
   <stop stop-color="#eaeef5" offset=".84663"/>
   <stop stop-color="#212733" offset="1"/>
  </linearGradient>
  <linearGradient id="linearGradient7394" x2="1" gradientTransform="matrix(4.6921 4.6921 4.6921 -4.6921 450.51 723)" gradientUnits="userSpaceOnUse">
   <stop stop-color="#212733" offset="0"/>
   <stop stop-color="#eaeef5" offset=".33129"/>
   <stop stop-color="#212733" offset=".58282"/>
   <stop stop-color="#eaeef5" offset=".84663"/>
   <stop stop-color="#212733" offset="1"/>
  </linearGradient>
 </defs>
 <g transform="translate(-37.286 224.93)">
  <g transform="matrix(11.69 0 0 -11.69 -5120.3 8320.8)">
   <path d="m450.42 726.93v-3.122c0-1.158 0.707-1.629 2.437-1.629 1.731 0 2.44 0.471 2.44 1.629v0.885h-1.569v-0.883h-1.744v3.116h1.744v-0.884h1.569v0.888c0 1.46-1.394 1.63-2.44 1.63-1.047 0-2.437-0.17-2.437-1.63" fill="url(#linearGradient7394)"/>
  </g>
  <g transform="matrix(11.69 0 0 -11.69 -5120.3 8320.8)">
   <path d="m449.68 728.45h-3.31c-0.666 0-1.208-0.538-1.208-1.204v-6.783l1.565 1.556v2.146h2.887v1.565h-2.887v1.159h3.31v1.561z" fill="url(#linearGradient7420)"/>
  </g>
  <g transform="matrix(11.69 0 0 -11.69 -5120.3 8320.8)">
   <path d="m446.37 728.09c-0.471 0-0.848-0.377-0.848-0.847v-5.893l0.848 0.799v2.371h2.886v0.848h-2.886v1.875h3.31v0.847z" fill="url(#linearGradient7440)"/>
  </g>
  <g transform="matrix(11.69 0 0 -11.69 -5120.3 8320.8)">
   <path d="m450.78 726.93v-3.122c0-0.7 0.2-1.272 2.078-1.272 1.879 0 2.078 0.572 2.078 1.272v0.528h-0.845v-0.883h-2.465v3.83h2.465v-0.882h0.845v0.529c0 0.698-0.339 1.27-2.078 1.27-1.738 0-2.078-0.572-2.078-1.27" fill="url(#linearGradient7460)"/>
  </g>
  <g transform="matrix(11.69 0 0 -11.69 -5120.3 8320.8)">
   <path d="m445.4 719.3c0.072 0.067 0.185 0.137 0.312 0.134 0.053 0.063 1.709 1.546 1.856 1.609l0.469 0.452-0.029 3e-3c-0.439 0-2.236-1.38-2.608-2.198" fill="url(#linearGradient7480)"/>
  </g>
  <g transform="matrix(11.69 0 0 -11.69 -5120.3 8320.8)">
   <path d="m450.88 721.86 0.324-0.455c0.756-0.263 1.851-0.785 2.168-1.188 0.078 0.032 1.283-0.509 1.424-0.599 0.125 0.128-0.924 1.003-1.684 1.435-0.689 0.395-1.932 0.822-2.187 0.822z" fill="url(#linearGradient7500)"/>
  </g>
  <g transform="matrix(11.69 0 0 -11.69 -5120.3 8320.8)">
   <path d="m451.1 717.91c-0.035-0.033-0.72-1.981-0.713-2.211 0.094-0.087 0.444-0.495 0.803-0.915l0.061-0.067 3.207 2.641-0.067 0.09c-0.365 0.487-0.848 1.081-0.928 1.129-0.134 0-2.144-0.453-2.363-0.667" fill="url(#linearGradient7520)"/>
  </g>
  <g transform="matrix(11.69 0 0 -11.69 -5120.3 8320.8)">
   <path d="m449.19 720.89c-0.072-0.185-0.162-1.717-0.092-1.874 0.15-0.056 1.926-1.101 2.033-1.076 0.24 0.053 2.18 0.64 2.364 0.59 0.076 0.214-0.045 1.581-0.145 1.693-0.25 0.463-1.84 1.118-2.123 1.175l-0.2 0.029c-0.555 0-1.827-0.362-1.837-0.537" fill="url(#linearGradient7540)"/>
  </g>
  <g transform="matrix(11.69 0 0 -11.69 -5120.3 8320.8)">
   <path d="m447.63 721.1c-0.554-0.167-1.804-1.376-1.953-1.686-0.057-0.142-0.349-1.428-0.139-1.61 0.139 0.039 1.381-0.045 1.731-0.264 0.037 0.016 1.66 1.397 1.82 1.545 0.016 0.089 0.067 1.503 0.088 1.774-0.059 0.151-0.93 0.256-1.35 0.256-0.091 0-0.161-5e-3 -0.197-0.015" fill="url(#linearGradient7560)"/>
  </g>
  <g transform="matrix(11.69 0 0 -11.69 -5120.3 8320.8)">
   <path d="m451.32 717.68c-0.03-0.029-0.653-1.789-0.641-1.997 0.08-0.077 0.381-0.428 0.701-0.799l0.06-0.07 3.069 2.159-0.136 0.185c-0.336 0.453-0.838 1.081-0.918 1.127-0.122 0-1.938-0.411-2.135-0.605" fill="url(#linearGradient7580)"/>
  </g>
  <g transform="matrix(11.69 0 0 -11.69 -5120.3 8320.8)">
   <path d="m449.37 720.78-0.099-1.569c0.136-0.05 1.744-0.9 1.949-1.063 0.219 0.051 1.934 0.55 2.106 0.502 0.068 0.196-0.018 1.454-0.112 1.554-0.23 0.425-1.732 1.048-1.99 1.099l-0.041 4e-3c-0.307 0-1.805-0.351-1.813-0.527" fill="url(#linearGradient7600)"/>
  </g>
  <g transform="matrix(11.69 0 0 -11.69 -5120.3 8320.8)">
   <path d="m447.54 720.92c-0.506-0.152-1.641-1.253-1.778-1.534-0.052-0.132-0.318-1.3-0.125-1.463 0.125 0.033 1.15-0.113 1.469-0.314 0.033 0.014 1.615 1.344 1.759 1.479 0.015 0.08 0.062 1.367 0.081 1.613-0.055 0.137-0.851 0.233-1.231 0.233z" fill="url(#linearGradient7620)"/>
  </g>
  <g transform="matrix(11.69 0 0 -11.69 -5120.3 8320.8)">
   <path d="m447.26 717.57c0.049-0.232 0.629-2.152 0.887-2.172 0.28-0.114 2.154 0.166 2.323 0.247 0.103 0.506 0.616 1.987 0.716 2.318-0.102 0.121-1.41 0.934-2.094 1.173-0.279-0.185-1.557-1.227-1.832-1.566" fill="url(#linearGradient7640)"/>
  </g>
  <g transform="matrix(11.69 0 0 -11.69 -5120.3 8320.8)">
   <path d="m448.02 721.49-0.446-0.419c0.217 0.069 1.486-0.077 1.629-0.221 0.349 0.283 1.787 0.644 2.047 0.547 0.011 0.117-0.131 0.337-0.373 0.457-0.156 0.037-0.36 0.053-0.587 0.053-0.841 0-2.005-0.219-2.27-0.417" fill="url(#linearGradient7660)"/>
  </g>
  <g transform="matrix(11.69 0 0 -11.69 -5120.3 8320.8)">
   <path d="m453.34 720.24c0.165-0.304 0.057-1.495 0.092-1.682 0.094-0.096 0.659-0.766 1.033-1.268l0.042-0.052 1.078 0.813-0.022 0.069c-0.173 0.534-0.527 1.221-0.769 1.51-0.207 0.226-1.045 0.649-1.35 0.649z" fill="url(#linearGradient7680)"/>
  </g>
  <g transform="matrix(11.69 0 0 -11.69 -5120.3 8320.8)">
   <path d="m444.95 718.41c-0.014-0.039 0.492-0.771 0.63-0.586-0.232 0.177 0.043 1.434 0.149 1.658-0.301-0.022-0.572-0.493-0.779-1.072" fill="url(#linearGradient7700)"/>
  </g>
  <g transform="matrix(11.69 0 0 -11.69 -5120.3 8320.8)">
   <path d="m447.35 717.5c0.048-0.217 0.633-1.959 0.874-1.979 0.261-0.106 2.011 0.154 2.167 0.23 0.098 0.473 0.579 1.856 0.67 2.166-0.093 0.112-1.316 0.871-1.955 1.093-0.259-0.171-1.498-1.193-1.756-1.51" fill="url(#linearGradient7720)"/>
  </g>
  <g transform="matrix(11.69 0 0 -11.69 -5120.3 8320.8)">
   <path d="m448.06 721.52-0.348-0.376c0.21 0.063 1.273-0.042 1.407-0.163 0.342 0.247 1.726 0.578 1.976 0.497 0.012 0.103-0.12 0.288-0.351 0.387-0.136 0.026-0.307 0.038-0.499 0.038-0.794 0-1.922-0.204-2.185-0.383" fill="url(#linearGradient7740)"/>
  </g>
  <g transform="matrix(11.69 0 0 -11.69 -5120.3 8320.8)">
   <path d="m453.49 720.18c0.149-0.292 0.11-1.342 0.144-1.521 0.083-0.093 0.621-0.768 0.963-1.251l0.045-0.069 0.931 0.787-0.03 0.083c-0.17 0.496-0.515 1.139-0.736 1.417-0.187 0.217-0.936 0.593-1.218 0.593z" fill="url(#linearGradient7760)"/>
  </g>
  <g transform="matrix(11.69 0 0 -11.69 -5120.3 8320.8)">
   <path d="m444.93 718.45-0.022-0.059s0.443-0.685 0.568-0.51c-0.214 0.171 0.152 1.403 0.176 1.558-0.271-0.022-0.527-0.454-0.722-0.989" fill="url(#linearGradient7780)"/>
  </g>
  <g transform="matrix(11.69 0 0 -11.69 -5120.3 8320.8)">
   <path d="m457.96 720.35-7.734-4.92-7.758 4.92h-0.357l8.115-6.572 8.113 6.572z" fill="url(#linearGradient7802)"/>
  </g>
  <g transform="matrix(11.69 0 0 -11.69 -5120.3 8320.8)">
   <path d="m458.34 720.68h-0.476l-0.08-0.051-7.557-4.807-7.582 4.807-0.082 0.051h-1.389l0.728-0.59 8.116-6.571 0.209-0.169 0.209 0.169 8.116 6.571 0.728 0.59zm-0.379-0.332h0.379l-8.113-6.572-8.115 6.572h0.357l7.758-4.92z" fill="url(#linearGradient7828)"/>
  </g>
  <g transform="matrix(11.69 0 0 -11.69 -5120.3 8320.8)">
   <path d="m445.76 730.99c-0.148 0-0.271-0.066-0.376-0.203-0.102-0.139-0.155-0.301-0.155-0.494v-0.325l0.088-0.113h0.953v-0.081c0-0.095-0.027-0.176-0.075-0.244l-0.181-0.1h-0.697l-0.088-0.112v-0.131l0.088-0.112h0.697c0.144 0 0.268 0.066 0.371 0.205 0.107 0.137 0.154 0.298 0.154 0.494v0.325l-0.082 0.112h-0.956v0.082c0 0.092 0.023 0.174 0.075 0.241l0.184 0.1h0.697l0.082 0.113v0.13l-0.082 0.113z" fill="url(#linearGradient7848)"/>
  </g>
  <g transform="matrix(11.69 0 0 -11.69 -5120.3 8320.8)">
   <path d="m446.84 730.9-0.084-0.111v-0.097l0.084-0.111h0.073l0.085 0.111v0.097l-0.085 0.111zm0-0.584-0.084-0.11v-1.073l0.084-0.112h0.073l0.085 0.112v1.073l-0.085 0.11z" fill="url(#linearGradient7868)"/>
  </g>
  <g transform="matrix(11.69 0 0 -11.69 -5120.3 8320.8)">
   <path d="m447.38 730.35c-0.082-0.108-0.122-0.234-0.122-0.387v-0.829l0.087-0.112h0.073l0.082 0.112v0.829c0 0.093 0.024 0.157 0.07 0.188l0.107 0.042h0.035l0.085 0.109v0.099l-0.085 0.111h-0.024l-0.011 1e-3c-0.118 0-0.214-0.053-0.297-0.163" fill="url(#linearGradient7888)"/>
  </g>
  <g transform="matrix(11.69 0 0 -11.69 -5120.3 8320.8)">
   <path d="m448.08 730.9-0.087-0.111v-0.097l0.087-0.111h0.074l0.084 0.111v0.097l-0.084 0.111zm0-0.584-0.087-0.11v-1.073l0.087-0.112h0.074l0.084 0.112v1.073l-0.084 0.11z" fill="url(#linearGradient7908)"/>
  </g>
  <g transform="matrix(11.69 0 0 -11.69 -5120.3 8320.8)">
   <path d="m449.44 730.52-0.086-0.112v-0.828l-0.051-0.164-0.121-0.067h-0.297l-0.122 0.067-0.054 0.164v0.828l-0.081 0.112h-0.075l-0.084-0.112v-0.828c0-0.153 0.042-0.282 0.122-0.389 0.083-0.108 0.179-0.162 0.294-0.162h0.297c0.115 0 0.213 0.054 0.293 0.162 0.082 0.107 0.121 0.236 0.121 0.389v0.828l-0.082 0.112z" fill="url(#linearGradient7928)"/>
  </g>
  <g transform="matrix(11.69 0 0 -11.69 -5120.3 8320.8)">
   <path d="m450.26 730.52c-0.117 0-0.211-0.053-0.294-0.163-0.082-0.108-0.122-0.234-0.122-0.387v-0.245l0.085-0.111h0.659v-0.034l-0.053-0.164-0.12-0.067h-0.486l-0.085-0.111v-0.097l0.085-0.112h0.486c0.115 0 0.212 0.054 0.295 0.162 0.082 0.107 0.12 0.236 0.12 0.389v0.245l-0.083 0.109h-0.661v0.036l0.051 0.161 0.123 0.069h0.487l0.083 0.111v0.097l-0.083 0.112z" fill="url(#linearGradient7948)"/>
  </g>
  <g transform="matrix(11.69 0 0 -11.69 -5120.3 8320.8)">
   <path d="m451.07 730.96-0.068-0.092v-0.163l0.512-0.671-0.512-0.671v-0.162l0.07-0.09 0.058-0.042 0.065 0.042 0.508 0.672 0.509-0.672 0.123 2e-3 0.071 0.088-2e-3 0.163-0.51 0.67 0.51 0.674v0.16l-0.07 0.092h-0.122l-0.509-0.673-0.512 0.673-0.06 0.046z" fill="url(#linearGradient7968)"/>
  </g>
  <g transform="matrix(11.69 0 0 -11.69 -5120.3 8320.8)">
   <path d="m454.18 730.99c-0.132 0-0.254-0.06-0.353-0.179l-0.043-0.051-0.04 0.051c-0.1 0.119-0.218 0.179-0.353 0.179h-0.251c-0.149 0-0.271-0.066-0.374-0.203-0.105-0.139-0.156-0.301-0.156-0.494v-1.106l0.086-0.112h0.1l0.082 0.112v1.106c0 0.092 0.029 0.174 0.078 0.241l0.184 0.1h0.251l0.182-0.1c0.051-0.067 0.078-0.149 0.078-0.241v-1.106l0.086-0.112h0.097l0.087 0.112v1.106c0 0.092 0.025 0.174 0.078 0.241l0.181 0.1h0.252l0.183-0.1c0.05-0.067 0.077-0.149 0.077-0.241v-1.106l0.084-0.112h0.101l0.084 0.112v1.106c0 0.193-0.05 0.355-0.154 0.494-0.105 0.137-0.227 0.203-0.375 0.203z" fill="url(#linearGradient7988)"/>
  </g>
 </g>
</svg>
