<svg width="800" height="478.26" version="1.1" viewBox="0 0 211.67 126.54" xmlns="http://www.w3.org/2000/svg">
 <defs>
  <clipPath id="clipPath6678">
   <path d="m62.592 743.37h6.43v5.088h-6.43z"/>
  </clipPath>
  <clipPath id="clipPath6634">
   <path d="m0 0h612v792h-612z"/>
  </clipPath>
  <linearGradient id="linearGradient6624" x2="1" gradientTransform="matrix(1.525 -1.1902 -1.1902 -1.525 71.076 753.69)" gradientUnits="userSpaceOnUse">
   <stop stop-color="#4d717b" offset="0"/>
   <stop stop-color="#4d717b" offset=".022472"/>
   <stop stop-color="#4d717b" offset=".36018"/>
   <stop stop-color="#fff" offset=".45506"/>
   <stop stop-color="#fff" offset=".479"/>
   <stop stop-color="#395054" offset="1"/>
  </linearGradient>
  <linearGradient id="linearGradient6596" x2="1" gradientTransform="matrix(2.541 -1.6816 -1.6816 -2.541 57.441 754.16)" gradientUnits="userSpaceOnUse">
   <stop stop-color="#4d717b" offset="0"/>
   <stop stop-color="#4d717b" offset=".022472"/>
   <stop stop-color="#4d717b" offset=".36018"/>
   <stop stop-color="#fff" offset=".45506"/>
   <stop stop-color="#fff" offset=".479"/>
   <stop stop-color="#395054" offset="1"/>
  </linearGradient>
  <clipPath id="clipPath6566">
   <path d="m0 0h612v792h-612z"/>
  </clipPath>
  <linearGradient id="linearGradient6556" x2="1" gradientTransform="matrix(12.377 -6.3751 -6.3751 -12.377 58.73 756.56)" gradientUnits="userSpaceOnUse">
   <stop stop-color="#4d717b" offset="0"/>
   <stop stop-color="#4d717b" offset=".022472"/>
   <stop stop-color="#4d717b" offset=".36018"/>
   <stop stop-color="#fff" offset=".45506"/>
   <stop stop-color="#fff" offset=".479"/>
   <stop stop-color="#395054" offset="1"/>
  </linearGradient>
  <linearGradient id="linearGradient6528" x2="1" gradientTransform="matrix(-4.0529 3.5462 3.5462 4.0529 68.662 750.42)" gradientUnits="userSpaceOnUse">
   <stop stop-color="#4d717b" offset="0"/>
   <stop stop-color="#4d717b" offset=".022472"/>
   <stop stop-color="#4d717b" offset=".36018"/>
   <stop stop-color="#fff" offset=".45506"/>
   <stop stop-color="#fff" offset=".479"/>
   <stop stop-color="#395054" offset="1"/>
  </linearGradient>
  <clipPath id="clipPath6442">
   <path d="m0 0h612v792h-612z"/>
  </clipPath>
  <linearGradient id="linearGradient6432" x2="1" gradientTransform="matrix(.87258 -2.6858 -2.6858 -.87258 75.723 745.89)" gradientUnits="userSpaceOnUse">
   <stop stop-color="#4d717b" offset="0"/>
   <stop stop-color="#4d717b" offset=".022472"/>
   <stop stop-color="#4d717b" offset=".36018"/>
   <stop stop-color="#fff" offset=".45506"/>
   <stop stop-color="#fff" offset=".479"/>
   <stop stop-color="#395054" offset="1"/>
  </linearGradient>
  <clipPath id="clipPath6402">
   <path d="m0 0h612v792h-612z"/>
  </clipPath>
  <linearGradient id="linearGradient6392" x2="1" gradientTransform="matrix(.86323 -2.657 -2.657 -.86323 75.562 745.82)" gradientUnits="userSpaceOnUse">
   <stop stop-color="#4d717b" offset="0"/>
   <stop stop-color="#4d717b" offset=".022472"/>
   <stop stop-color="#4d717b" offset=".36018"/>
   <stop stop-color="#fff" offset=".45506"/>
   <stop stop-color="#fff" offset=".479"/>
   <stop stop-color="#395054" offset="1"/>
  </linearGradient>
  <clipPath id="clipPath6362">
   <path d="m0 0h612v792h-612z"/>
  </clipPath>
  <linearGradient id="linearGradient6352" x2="1" gradientTransform="matrix(-4.2381 -1.3769 -1.3769 4.2381 78.184 745.34)" gradientUnits="userSpaceOnUse">
   <stop stop-color="#4d717b" offset="0"/>
   <stop stop-color="#4d717b" offset=".022472"/>
   <stop stop-color="#4d717b" offset=".36018"/>
   <stop stop-color="#fff" offset=".45506"/>
   <stop stop-color="#fff" offset=".479"/>
   <stop stop-color="#395054" offset="1"/>
  </linearGradient>
  <linearGradient id="linearGradient6324" x2="1" gradientTransform="matrix(.86023 -2.6478 -2.6478 -.86023 76.526 746.13)" gradientUnits="userSpaceOnUse">
   <stop stop-color="#4d717b" offset="0"/>
   <stop stop-color="#4d717b" offset=".022472"/>
   <stop stop-color="#4d717b" offset=".36018"/>
   <stop stop-color="#fff" offset=".45506"/>
   <stop stop-color="#fff" offset=".479"/>
   <stop stop-color="#395054" offset="1"/>
  </linearGradient>
  <linearGradient id="linearGradient6296" x2="1" gradientTransform="matrix(1.0503 -3.2327 -3.2327 -1.0503 76.323 746.75)" gradientUnits="userSpaceOnUse">
   <stop stop-color="#4d717b" offset="0"/>
   <stop stop-color="#4d717b" offset=".022472"/>
   <stop stop-color="#4d717b" offset=".36018"/>
   <stop stop-color="#fff" offset=".45506"/>
   <stop stop-color="#fff" offset=".479"/>
   <stop stop-color="#395054" offset="1"/>
  </linearGradient>
  <linearGradient id="linearGradient6268" x2="1" gradientTransform="matrix(-4.1955 -1.3631 -1.3631 4.1955 78.468 744.4)" gradientUnits="userSpaceOnUse">
   <stop stop-color="#4d717b" offset="0"/>
   <stop stop-color="#4d717b" offset=".022472"/>
   <stop stop-color="#4d717b" offset=".36018"/>
   <stop stop-color="#fff" offset=".45506"/>
   <stop stop-color="#fff" offset=".479"/>
   <stop stop-color="#395054" offset="1"/>
  </linearGradient>
  <clipPath id="clipPath6238">
   <path d="m0 0h612v792h-612z"/>
  </clipPath>
  <linearGradient id="linearGradient6228" x2="1" gradientTransform="matrix(1.0495 -3.2302 -3.2302 -1.0495 75.53 746.5)" gradientUnits="userSpaceOnUse">
   <stop stop-color="#4d717b" offset="0"/>
   <stop stop-color="#4d717b" offset=".022472"/>
   <stop stop-color="#4d717b" offset=".36018"/>
   <stop stop-color="#fff" offset=".45506"/>
   <stop stop-color="#fff" offset=".479"/>
   <stop stop-color="#395054" offset="1"/>
  </linearGradient>
  <linearGradient id="linearGradient6200" x2="1" gradientTransform="matrix(1.0711 -3.2969 -3.2969 -1.0711 77.12 748.65)" gradientUnits="userSpaceOnUse">
   <stop stop-color="#4d717b" offset="0"/>
   <stop stop-color="#4d717b" offset=".022472"/>
   <stop stop-color="#4d717b" offset=".36018"/>
   <stop stop-color="#fff" offset=".45506"/>
   <stop stop-color="#fff" offset=".479"/>
   <stop stop-color="#395054" offset="1"/>
  </linearGradient>
  <clipPath id="clipPath6170">
   <path d="m0 0h612v792h-612z"/>
  </clipPath>
  <linearGradient id="linearGradient6160" x2="1" gradientTransform="matrix(1.0787 -3.3202 -3.3202 -1.0787 76.907 748.6)" gradientUnits="userSpaceOnUse">
   <stop stop-color="#4d717b" offset="0"/>
   <stop stop-color="#4d717b" offset=".022472"/>
   <stop stop-color="#4d717b" offset=".36018"/>
   <stop stop-color="#fff" offset=".45506"/>
   <stop stop-color="#fff" offset=".479"/>
   <stop stop-color="#395054" offset="1"/>
  </linearGradient>
  <clipPath id="clipPath6130">
   <path d="m0 0h612v792h-612z"/>
  </clipPath>
  <linearGradient id="linearGradient6120" x2="1" gradientTransform="matrix(-5.1807 -1.6831 -1.6831 5.1807 80.131 747.97)" gradientUnits="userSpaceOnUse">
   <stop stop-color="#4d717b" offset="0"/>
   <stop stop-color="#4d717b" offset=".022472"/>
   <stop stop-color="#4d717b" offset=".36018"/>
   <stop stop-color="#fff" offset=".45506"/>
   <stop stop-color="#fff" offset=".479"/>
   <stop stop-color="#395054" offset="1"/>
  </linearGradient>
  <linearGradient id="linearGradient6092" x2="1" gradientTransform="matrix(1.0807 -3.3265 -3.3265 -1.0807 78.091 748.99)" gradientUnits="userSpaceOnUse">
   <stop stop-color="#4d717b" offset="0"/>
   <stop stop-color="#4d717b" offset=".022472"/>
   <stop stop-color="#4d717b" offset=".36018"/>
   <stop stop-color="#fff" offset=".45506"/>
   <stop stop-color="#fff" offset=".479"/>
   <stop stop-color="#395054" offset="1"/>
  </linearGradient>
  <linearGradient id="linearGradient6064" x2="1" gradientTransform="matrix(1.2947 -3.9852 -3.9852 -1.2947 77.853 749.72)" gradientUnits="userSpaceOnUse">
   <stop stop-color="#4d717b" offset="0"/>
   <stop stop-color="#4d717b" offset=".022472"/>
   <stop stop-color="#4d717b" offset=".36018"/>
   <stop stop-color="#fff" offset=".45506"/>
   <stop stop-color="#fff" offset=".479"/>
   <stop stop-color="#395054" offset="1"/>
  </linearGradient>
  <linearGradient id="linearGradient6036" x2="1" gradientTransform="matrix(-5.1729 -1.6806 -1.6806 5.1729 80.499 746.83)" gradientUnits="userSpaceOnUse">
   <stop stop-color="#4d717b" offset="0"/>
   <stop stop-color="#4d717b" offset=".022472"/>
   <stop stop-color="#4d717b" offset=".36018"/>
   <stop stop-color="#fff" offset=".45506"/>
   <stop stop-color="#fff" offset=".479"/>
   <stop stop-color="#395054" offset="1"/>
  </linearGradient>
  <clipPath id="clipPath6006">
   <path d="m0 0h612v792h-612z"/>
  </clipPath>
  <linearGradient id="linearGradient5996" x2="1" gradientTransform="matrix(1.2882 -3.9652 -3.9652 -1.2882 76.884 749.39)" gradientUnits="userSpaceOnUse">
   <stop stop-color="#4d717b" offset="0"/>
   <stop stop-color="#4d717b" offset=".022472"/>
   <stop stop-color="#4d717b" offset=".36018"/>
   <stop stop-color="#fff" offset=".45506"/>
   <stop stop-color="#fff" offset=".479"/>
   <stop stop-color="#395054" offset="1"/>
  </linearGradient>
  <linearGradient id="linearGradient5968" x2="1" gradientTransform="matrix(1.2701 -3.9092 -3.9092 -1.2701 77.085 752.25)" gradientUnits="userSpaceOnUse">
   <stop stop-color="#4d717b" offset="0"/>
   <stop stop-color="#4d717b" offset=".022472"/>
   <stop stop-color="#4d717b" offset=".36018"/>
   <stop stop-color="#fff" offset=".45506"/>
   <stop stop-color="#fff" offset=".479"/>
   <stop stop-color="#395054" offset="1"/>
  </linearGradient>
  <clipPath id="clipPath5938">
   <path d="m0 0h612v792h-612z"/>
  </clipPath>
  <linearGradient id="linearGradient5928" x2="1" gradientTransform="matrix(1.2583 -3.873 -3.873 -1.2583 76.843 752.15)" gradientUnits="userSpaceOnUse">
   <stop stop-color="#4d717b" offset="0"/>
   <stop stop-color="#4d717b" offset=".022472"/>
   <stop stop-color="#4d717b" offset=".36018"/>
   <stop stop-color="#fff" offset=".45506"/>
   <stop stop-color="#fff" offset=".479"/>
   <stop stop-color="#395054" offset="1"/>
  </linearGradient>
  <clipPath id="clipPath5898">
   <path d="m0 0h612v792h-612z"/>
  </clipPath>
  <linearGradient id="linearGradient5888" x2="1" gradientTransform="matrix(-6.1159 -1.987 -1.987 6.1159 80.643 751.44)" gradientUnits="userSpaceOnUse">
   <stop stop-color="#4d717b" offset="0"/>
   <stop stop-color="#4d717b" offset=".022472"/>
   <stop stop-color="#4d717b" offset=".36018"/>
   <stop stop-color="#fff" offset=".45506"/>
   <stop stop-color="#fff" offset=".479"/>
   <stop stop-color="#395054" offset="1"/>
  </linearGradient>
  <linearGradient id="linearGradient5860" x2="1" gradientTransform="matrix(1.2607 -3.8805 -3.8805 -1.2607 78.245 752.61)" gradientUnits="userSpaceOnUse">
   <stop stop-color="#4d717b" offset="0"/>
   <stop stop-color="#4d717b" offset=".022472"/>
   <stop stop-color="#4d717b" offset=".36018"/>
   <stop stop-color="#fff" offset=".45506"/>
   <stop stop-color="#fff" offset=".479"/>
   <stop stop-color="#395054" offset="1"/>
  </linearGradient>
  <linearGradient id="linearGradient5832" x2="1" gradientTransform="matrix(1.5203 -4.6795 -4.6795 -1.5203 77.96 753.49)" gradientUnits="userSpaceOnUse">
   <stop stop-color="#4d717b" offset="0"/>
   <stop stop-color="#4d717b" offset=".022472"/>
   <stop stop-color="#4d717b" offset=".36018"/>
   <stop stop-color="#fff" offset=".45506"/>
   <stop stop-color="#fff" offset=".479"/>
   <stop stop-color="#395054" offset="1"/>
  </linearGradient>
  <linearGradient id="linearGradient5804" x2="1" gradientTransform="matrix(-6.1222 -1.989 -1.989 6.1222 81.085 750.09)" gradientUnits="userSpaceOnUse">
   <stop stop-color="#4d717b" offset="0"/>
   <stop stop-color="#4d717b" offset=".022472"/>
   <stop stop-color="#4d717b" offset=".36018"/>
   <stop stop-color="#fff" offset=".45506"/>
   <stop stop-color="#fff" offset=".479"/>
   <stop stop-color="#395054" offset="1"/>
  </linearGradient>
  <clipPath id="clipPath5774">
   <path d="m0 0h612v792h-612z"/>
  </clipPath>
  <linearGradient id="linearGradient5764" x2="1" gradientTransform="matrix(1.5275 -4.7017 -4.7017 -1.5275 76.803 753.13)" gradientUnits="userSpaceOnUse">
   <stop stop-color="#4d717b" offset="0"/>
   <stop stop-color="#4d717b" offset=".022472"/>
   <stop stop-color="#4d717b" offset=".36018"/>
   <stop stop-color="#fff" offset=".45506"/>
   <stop stop-color="#fff" offset=".479"/>
   <stop stop-color="#395054" offset="1"/>
  </linearGradient>
  <linearGradient id="linearGradient5736" x2="1" gradientTransform="matrix(-.86957 -2.6765 2.6765 -.86957 55.855 745.89)" gradientUnits="userSpaceOnUse">
   <stop stop-color="#4d717b" offset="0"/>
   <stop stop-color="#4d717b" offset=".022472"/>
   <stop stop-color="#4d717b" offset=".36018"/>
   <stop stop-color="#fff" offset=".45506"/>
   <stop stop-color="#fff" offset=".479"/>
   <stop stop-color="#395054" offset="1"/>
  </linearGradient>
  <clipPath id="clipPath5706">
   <path d="m0 0h612v792h-612z"/>
  </clipPath>
  <linearGradient id="linearGradient5696" x2="1" gradientTransform="matrix(-.86941 -2.6761 2.6761 -.86941 56.022 745.83)" gradientUnits="userSpaceOnUse">
   <stop stop-color="#4d717b" offset="0"/>
   <stop stop-color="#4d717b" offset=".022472"/>
   <stop stop-color="#4d717b" offset=".36018"/>
   <stop stop-color="#fff" offset=".45506"/>
   <stop stop-color="#fff" offset=".479"/>
   <stop stop-color="#395054" offset="1"/>
  </linearGradient>
  <clipPath id="clipPath5666">
   <path d="m0 0h612v792h-612z"/>
  </clipPath>
  <linearGradient id="linearGradient5656" x2="1" gradientTransform="matrix(4.1594 -1.3513 1.3513 4.1594 53.426 745.33)" gradientUnits="userSpaceOnUse">
   <stop stop-color="#4d717b" offset="0"/>
   <stop stop-color="#4d717b" offset=".022472"/>
   <stop stop-color="#4d717b" offset=".36018"/>
   <stop stop-color="#fff" offset=".45506"/>
   <stop stop-color="#fff" offset=".479"/>
   <stop stop-color="#395054" offset="1"/>
  </linearGradient>
  <linearGradient id="linearGradient5628" x2="1" gradientTransform="matrix(-.86269 -2.6554 2.6554 -.86269 55.053 746.13)" gradientUnits="userSpaceOnUse">
   <stop stop-color="#4d717b" offset="0"/>
   <stop stop-color="#4d717b" offset=".022472"/>
   <stop stop-color="#4d717b" offset=".36018"/>
   <stop stop-color="#fff" offset=".45506"/>
   <stop stop-color="#fff" offset=".479"/>
   <stop stop-color="#395054" offset="1"/>
  </linearGradient>
  <linearGradient id="linearGradient5600" x2="1" gradientTransform="matrix(-1.0471 -3.2228 3.2228 -1.0471 55.252 746.75)" gradientUnits="userSpaceOnUse">
   <stop stop-color="#4d717b" offset="0"/>
   <stop stop-color="#4d717b" offset=".022472"/>
   <stop stop-color="#4d717b" offset=".36018"/>
   <stop stop-color="#fff" offset=".45506"/>
   <stop stop-color="#fff" offset=".479"/>
   <stop stop-color="#395054" offset="1"/>
  </linearGradient>
  <linearGradient id="linearGradient5572" x2="1" gradientTransform="matrix(4.195 -1.3629 1.3629 4.195 53.108 744.4)" gradientUnits="userSpaceOnUse">
   <stop stop-color="#4d717b" offset="0"/>
   <stop stop-color="#4d717b" offset=".022472"/>
   <stop stop-color="#4d717b" offset=".36018"/>
   <stop stop-color="#fff" offset=".45506"/>
   <stop stop-color="#fff" offset=".479"/>
   <stop stop-color="#395054" offset="1"/>
  </linearGradient>
  <clipPath id="clipPath5542">
   <path d="m0 0h612v792h-612z"/>
  </clipPath>
  <linearGradient id="linearGradient5532" x2="1" gradientTransform="matrix(-1.0458 -3.2191 3.2191 -1.0458 56.049 746.49)" gradientUnits="userSpaceOnUse">
   <stop stop-color="#4d717b" offset="0"/>
   <stop stop-color="#4d717b" offset=".022472"/>
   <stop stop-color="#4d717b" offset=".36018"/>
   <stop stop-color="#fff" offset=".45506"/>
   <stop stop-color="#fff" offset=".479"/>
   <stop stop-color="#395054" offset="1"/>
  </linearGradient>
  <linearGradient id="linearGradient5504" x2="1" gradientTransform="matrix(-1.0708 -3.296 3.296 -1.0708 54.464 748.65)" gradientUnits="userSpaceOnUse">
   <stop stop-color="#4d717b" offset="0"/>
   <stop stop-color="#4d717b" offset=".022472"/>
   <stop stop-color="#4d717b" offset=".36018"/>
   <stop stop-color="#fff" offset=".45506"/>
   <stop stop-color="#fff" offset=".479"/>
   <stop stop-color="#395054" offset="1"/>
  </linearGradient>
  <clipPath id="clipPath5474">
   <path d="m0 0h612v792h-612z"/>
  </clipPath>
  <linearGradient id="linearGradient5464" x2="1" gradientTransform="matrix(-1.0771 -3.3154 3.3154 -1.0771 54.675 748.6)" gradientUnits="userSpaceOnUse">
   <stop stop-color="#4d717b" offset="0"/>
   <stop stop-color="#4d717b" offset=".022472"/>
   <stop stop-color="#4d717b" offset=".36018"/>
   <stop stop-color="#fff" offset=".45506"/>
   <stop stop-color="#fff" offset=".479"/>
   <stop stop-color="#395054" offset="1"/>
  </linearGradient>
  <clipPath id="clipPath5434">
   <path d="m0 0h612v792h-612z"/>
  </clipPath>
  <linearGradient id="linearGradient5424" x2="1" gradientTransform="matrix(5.1504 -1.6733 1.6733 5.1504 51.465 747.97)" gradientUnits="userSpaceOnUse">
   <stop stop-color="#4d717b" offset="0"/>
   <stop stop-color="#4d717b" offset=".022472"/>
   <stop stop-color="#4d717b" offset=".36018"/>
   <stop stop-color="#fff" offset=".45506"/>
   <stop stop-color="#fff" offset=".479"/>
   <stop stop-color="#395054" offset="1"/>
  </linearGradient>
  <linearGradient id="linearGradient5396" x2="1" gradientTransform="matrix(-1.0822 -3.3311 3.3311 -1.0822 53.495 748.99)" gradientUnits="userSpaceOnUse">
   <stop stop-color="#4d717b" offset="0"/>
   <stop stop-color="#4d717b" offset=".022472"/>
   <stop stop-color="#4d717b" offset=".36018"/>
   <stop stop-color="#fff" offset=".45506"/>
   <stop stop-color="#fff" offset=".479"/>
   <stop stop-color="#395054" offset="1"/>
  </linearGradient>
  <linearGradient id="linearGradient5368" x2="1" gradientTransform="matrix(-1.2966 -3.991 3.991 -1.2966 53.733 749.73)" gradientUnits="userSpaceOnUse">
   <stop stop-color="#4d717b" offset="0"/>
   <stop stop-color="#4d717b" offset=".022472"/>
   <stop stop-color="#4d717b" offset=".36018"/>
   <stop stop-color="#fff" offset=".45506"/>
   <stop stop-color="#fff" offset=".479"/>
   <stop stop-color="#395054" offset="1"/>
  </linearGradient>
  <linearGradient id="linearGradient5340" x2="1" gradientTransform="matrix(5.1852 -1.6846 1.6846 5.1852 51.08 746.83)" gradientUnits="userSpaceOnUse">
   <stop stop-color="#4d717b" offset="0"/>
   <stop stop-color="#4d717b" offset=".022472"/>
   <stop stop-color="#4d717b" offset=".36018"/>
   <stop stop-color="#fff" offset=".45506"/>
   <stop stop-color="#fff" offset=".479"/>
   <stop stop-color="#395054" offset="1"/>
  </linearGradient>
  <clipPath id="clipPath5310">
   <path d="m0 0h612v792h-612z"/>
  </clipPath>
  <linearGradient id="linearGradient5300" x2="1" gradientTransform="matrix(-1.2879 -3.9642 3.9642 -1.2879 54.7 749.39)" gradientUnits="userSpaceOnUse">
   <stop stop-color="#4d717b" offset="0"/>
   <stop stop-color="#4d717b" offset=".022472"/>
   <stop stop-color="#4d717b" offset=".36018"/>
   <stop stop-color="#fff" offset=".45506"/>
   <stop stop-color="#fff" offset=".479"/>
   <stop stop-color="#395054" offset="1"/>
  </linearGradient>
  <linearGradient id="linearGradient5272" x2="1" gradientTransform="matrix(-1.2707 -3.9111 3.9111 -1.2707 54.499 752.25)" gradientUnits="userSpaceOnUse">
   <stop stop-color="#4d717b" offset="0"/>
   <stop stop-color="#4d717b" offset=".022472"/>
   <stop stop-color="#4d717b" offset=".36018"/>
   <stop stop-color="#fff" offset=".45506"/>
   <stop stop-color="#fff" offset=".479"/>
   <stop stop-color="#395054" offset="1"/>
  </linearGradient>
  <clipPath id="clipPath5242">
   <path d="m0 0h612v792h-612z"/>
  </clipPath>
  <linearGradient id="linearGradient5232" x2="1" gradientTransform="matrix(-1.259 -3.8753 3.8753 -1.259 54.739 752.15)" gradientUnits="userSpaceOnUse">
   <stop stop-color="#4d717b" offset="0"/>
   <stop stop-color="#4d717b" offset=".022472"/>
   <stop stop-color="#4d717b" offset=".36018"/>
   <stop stop-color="#fff" offset=".45506"/>
   <stop stop-color="#fff" offset=".479"/>
   <stop stop-color="#395054" offset="1"/>
  </linearGradient>
  <clipPath id="clipPath5202">
   <path d="m0 0h612v792h-612z"/>
  </clipPath>
  <linearGradient id="linearGradient5192" x2="1" gradientTransform="matrix(6.1799 -2.0078 2.0078 6.1799 50.915 751.45)" gradientUnits="userSpaceOnUse">
   <stop stop-color="#4d717b" offset="0"/>
   <stop stop-color="#4d717b" offset=".022472"/>
   <stop stop-color="#4d717b" offset=".36018"/>
   <stop stop-color="#fff" offset=".45506"/>
   <stop stop-color="#fff" offset=".479"/>
   <stop stop-color="#395054" offset="1"/>
  </linearGradient>
  <linearGradient id="linearGradient5164" x2="1" gradientTransform="matrix(-1.2622 -3.8851 3.8851 -1.2622 53.341 752.61)" gradientUnits="userSpaceOnUse">
   <stop stop-color="#4d717b" offset="0"/>
   <stop stop-color="#4d717b" offset=".022472"/>
   <stop stop-color="#4d717b" offset=".36018"/>
   <stop stop-color="#fff" offset=".45506"/>
   <stop stop-color="#fff" offset=".479"/>
   <stop stop-color="#395054" offset="1"/>
  </linearGradient>
  <linearGradient id="linearGradient5136" x2="1" gradientTransform="matrix(-1.5242 -4.6914 4.6914 -1.5242 53.627 753.49)" gradientUnits="userSpaceOnUse">
   <stop stop-color="#4d717b" offset="0"/>
   <stop stop-color="#4d717b" offset=".022472"/>
   <stop stop-color="#4d717b" offset=".36018"/>
   <stop stop-color="#fff" offset=".45506"/>
   <stop stop-color="#fff" offset=".479"/>
   <stop stop-color="#395054" offset="1"/>
  </linearGradient>
  <linearGradient id="linearGradient5108" x2="1" gradientTransform="matrix(6.1347 -1.9931 1.9931 6.1347 50.494 750.09)" gradientUnits="userSpaceOnUse">
   <stop stop-color="#4d717b" offset="0"/>
   <stop stop-color="#4d717b" offset=".022472"/>
   <stop stop-color="#4d717b" offset=".36018"/>
   <stop stop-color="#fff" offset=".45506"/>
   <stop stop-color="#fff" offset=".479"/>
   <stop stop-color="#395054" offset="1"/>
  </linearGradient>
  <clipPath id="clipPath5078">
   <path d="m0 0h612v792h-612z"/>
  </clipPath>
  <linearGradient id="linearGradient5068" x2="1" gradientTransform="matrix(-1.5283 -4.704 4.704 -1.5283 54.779 753.13)" gradientUnits="userSpaceOnUse">
   <stop stop-color="#4d717b" offset="0"/>
   <stop stop-color="#4d717b" offset=".022472"/>
   <stop stop-color="#4d717b" offset=".36018"/>
   <stop stop-color="#fff" offset=".45506"/>
   <stop stop-color="#fff" offset=".479"/>
   <stop stop-color="#395054" offset="1"/>
  </linearGradient>
  <linearGradient id="linearGradient5040" x2="1" gradientTransform="matrix(13.306 -9.0121 -9.0121 -13.306 59.336 752.32)" gradientUnits="userSpaceOnUse">
   <stop stop-color="#3a565c" offset="0"/>
   <stop stop-color="#3a565c" offset=".022472"/>
   <stop stop-color="#3a565c" offset=".34264"/>
   <stop stop-color="#d3dee3" offset=".43258"/>
   <stop stop-color="#d3dee3" offset=".45752"/>
   <stop stop-color="#29383a" offset="1"/>
  </linearGradient>
  <linearGradient id="linearGradient5012" x2="1" gradientTransform="matrix(0 -12.328 -12.328 0 65.791 754.82)" gradientUnits="userSpaceOnUse">
   <stop stop-color="#4d717b" offset="0"/>
   <stop stop-color="#4d717b" offset=".022472"/>
   <stop stop-color="#4d717b" offset=".36018"/>
   <stop stop-color="#fff" offset=".45506"/>
   <stop stop-color="#fff" offset=".479"/>
   <stop stop-color="#395054" offset="1"/>
  </linearGradient>
 </defs>
 <g transform="translate(-60.718 112.37)">
  <g transform="matrix(7.6405 0 0 -7.6405 -336.13 5662.5)">
   <path d="m54.825 747.94c0-3.262 4.91-5.902 10.966-5.902 6.059 0 10.965 2.64 10.965 5.902s-4.906 5.906-10.965 5.906c-6.056 0-10.966-2.644-10.966-5.906m3.28 0c0 3.008 3.44 5.449 7.686 5.449 4.245 0 7.687-2.441 7.687-5.449 0-1.758-1.177-3.325-3.001-4.323-1.295-0.709-2.918-1.13-4.686-1.13-4.246 0-7.686 2.438-7.686 5.453" fill="url(#linearGradient5012)"/>
  </g>
  <g transform="matrix(7.6405 0 0 -7.6405 -336.13 5662.5)">
   <path d="m57.576 747.94c0-3.137 3.673-5.674 8.215-5.674s8.225 2.537 8.225 5.674c0 3.135-3.683 5.668-8.225 5.668s-8.215-2.533-8.215-5.668m0.529 0c0 3.008 3.44 5.449 7.686 5.449 4.245 0 7.687-2.441 7.687-5.449 0-1.758-1.177-3.325-3.001-4.323-1.295-0.709-2.918-1.13-4.686-1.13-4.246 0-7.686 2.438-7.686 5.453" fill="url(#linearGradient5040)"/>
  </g>
  <g transform="matrix(7.6405 0 0 -7.6405 -336.13 5662.5)">
   <path d="m53.048 749.31 0.68-0.923-0.483 1.501z" fill="url(#linearGradient5068)"/>
  </g>
  <g transform="matrix(7.6405 0 0 -7.6405 -336.13 5662.5)">
   <g clip-path="url(#clipPath5078)">
    <g transform="translate(51.94 748.92)">
     <path d="m0 0 1.108 0.392 0.197 0.578z" fill="#50656c"/>
    </g>
   </g>
  </g>
  <g transform="matrix(7.6405 0 0 -7.6405 -336.13 5662.5)">
   <path d="m52.607 749.86-0.667-0.944 1.305 0.97z" fill="url(#linearGradient5108)"/>
  </g>
  <g transform="matrix(7.6405 0 0 -7.6405 -336.13 5662.5)">
   <path d="m52.607 749.86 0.638 0.026-1.273 0.938z" fill="url(#linearGradient5136)"/>
  </g>
  <g transform="matrix(7.6405 0 0 -7.6405 -336.13 5662.5)">
   <path d="m53.245 749.89-0.197 0.586-1.076 0.352z" fill="url(#linearGradient5164)"/>
  </g>
  <g transform="matrix(7.6405 0 0 -7.6405 -336.13 5662.5)">
   <path d="m53.048 750.48 0.197-0.586 0.464 1.446z" fill="url(#linearGradient5192)"/>
  </g>
  <g transform="matrix(7.6405 0 0 -7.6405 -336.13 5662.5)">
   <g clip-path="url(#clipPath5202)">
    <g transform="translate(53.245 749.89)">
     <path d="m0 0 0.49 0.364-0.026 1.082z" fill="#748d9a"/>
    </g>
   </g>
  </g>
  <g transform="matrix(7.6405 0 0 -7.6405 -336.13 5662.5)">
   <path d="m53.245 749.89h2e-3l1.526 0.024-1.039 0.338z" fill="url(#linearGradient5232)"/>
  </g>
  <g transform="matrix(7.6405 0 0 -7.6405 -336.13 5662.5)">
   <g clip-path="url(#clipPath5242)">
    <g transform="translate(53.246 749.89)">
     <path d="m0 0 0.478-0.382 1.049 0.406z" fill="#748d9a"/>
    </g>
   </g>
  </g>
  <g transform="matrix(7.6405 0 0 -7.6405 -336.13 5662.5)">
   <path d="m53.728 748.39-4e-3 1.119-0.479 0.382z" fill="url(#linearGradient5272)"/>
  </g>
  <g transform="matrix(7.6405 0 0 -7.6405 -336.13 5662.5)">
   <path d="m53.238 746.18 0.58-0.781v1e-3l-0.413 1.266z" fill="url(#linearGradient5300)"/>
  </g>
  <g transform="matrix(7.6405 0 0 -7.6405 -336.13 5662.5)">
   <g clip-path="url(#clipPath5310)">
    <g transform="translate(52.303 745.85)">
     <path d="m0 0 0.935 0.331 0.168 0.486z" fill="#50656c"/>
    </g>
   </g>
  </g>
  <g transform="matrix(7.6405 0 0 -7.6405 -336.13 5662.5)">
   <path d="m52.865 746.64-0.562-0.794 1.102 0.817h-1e-3z" fill="url(#linearGradient5340)"/>
  </g>
  <g transform="matrix(7.6405 0 0 -7.6405 -336.13 5662.5)">
   <path d="m52.865 746.64 0.54 0.023-1.077 0.796z" fill="url(#linearGradient5368)"/>
  </g>
  <g transform="matrix(7.6405 0 0 -7.6405 -336.13 5662.5)">
   <path d="m53.405 746.66-0.16 0.502-0.917 0.294z" fill="url(#linearGradient5396)"/>
  </g>
  <g transform="matrix(7.6405 0 0 -7.6405 -336.13 5662.5)">
   <path d="m53.245 747.16 0.16-0.502 0.385 1.222z" fill="url(#linearGradient5424)"/>
  </g>
  <g transform="matrix(7.6405 0 0 -7.6405 -336.13 5662.5)">
   <g clip-path="url(#clipPath5434)">
    <g transform="translate(53.405 746.66)">
     <path d="m0 0 0.418 0.31-0.033 0.911z" fill="#748d9a"/>
    </g>
   </g>
  </g>
  <g transform="matrix(7.6405 0 0 -7.6405 -336.13 5662.5)">
   <path d="m53.405 746.66 1.292 0.028-0.872 0.283z" fill="url(#linearGradient5464)"/>
  </g>
  <g transform="matrix(7.6405 0 0 -7.6405 -336.13 5662.5)">
   <g clip-path="url(#clipPath5474)">
    <g transform="translate(53.405 746.66)">
     <path d="m0 0 0.401-0.32 0.89 0.348z" fill="#748d9a"/>
    </g>
   </g>
  </g>
  <g transform="matrix(7.6405 0 0 -7.6405 -336.13 5662.5)">
   <path d="m53.405 746.66 0.413-1.267v1e-3l-0.011 0.947z" fill="url(#linearGradient5504)"/>
  </g>
  <g transform="matrix(7.6405 0 0 -7.6405 -336.13 5662.5)">
   <path d="m54.857 743.87 0.479-0.632-0.346 1.032z" fill="url(#linearGradient5532)"/>
  </g>
  <g transform="matrix(7.6405 0 0 -7.6405 -336.13 5662.5)">
   <g clip-path="url(#clipPath5542)">
    <g transform="translate(54.095 743.6)">
     <path d="m0 0 0.761 0.267 0.135 0.401z" fill="#50656c"/>
    </g>
   </g>
  </g>
  <g transform="matrix(7.6405 0 0 -7.6405 -336.13 5662.5)">
   <path d="m54.989 744.27-0.431-0.022-0.463-0.647 0.895 0.669z" fill="url(#linearGradient5572)"/>
  </g>
  <g transform="matrix(7.6405 0 0 -7.6405 -336.13 5662.5)">
   <path d="m54.115 744.92 0.443-0.665 0.432 0.022z" fill="url(#linearGradient5600)"/>
  </g>
  <g transform="matrix(7.6405 0 0 -7.6405 -336.13 5662.5)">
   <path d="m54.115 744.92 0.875-0.643-0.13 0.401z" fill="url(#linearGradient5628)"/>
  </g>
  <g transform="matrix(7.6405 0 0 -7.6405 -336.13 5662.5)">
   <path d="m54.86 744.67 0.13-0.401 0.324 0.993z" fill="url(#linearGradient5656)"/>
  </g>
  <g transform="matrix(7.6405 0 0 -7.6405 -336.13 5662.5)">
   <g clip-path="url(#clipPath5666)">
    <g transform="translate(54.991 744.27)">
     <path d="m0 0 0.345 0.248-0.022 0.745z" fill="#748d9a"/>
    </g>
   </g>
  </g>
  <g transform="matrix(7.6405 0 0 -7.6405 -336.13 5662.5)">
   <path d="m54.99 744.27 1.056 0.018-0.709 0.231z" fill="url(#linearGradient5696)"/>
  </g>
  <g transform="matrix(7.6405 0 0 -7.6405 -336.13 5662.5)">
   <g clip-path="url(#clipPath5706)">
    <g transform="translate(54.99 744.27)">
     <path d="m0 0 0.337-0.267 0.719 0.285z" fill="#748d9a"/>
    </g>
   </g>
  </g>
  <g transform="matrix(7.6405 0 0 -7.6405 -336.13 5662.5)">
   <path d="m54.99 744.27 0.346-1.032v1e-3l-9e-3 0.765z" fill="url(#linearGradient5736)"/>
  </g>
  <g transform="matrix(7.6405 0 0 -7.6405 -336.13 5662.5)">
   <path d="m77.855 748.39 0.677 0.923-0.193 0.578z" fill="url(#linearGradient5764)"/>
  </g>
  <g transform="matrix(7.6405 0 0 -7.6405 -336.13 5662.5)">
   <g clip-path="url(#clipPath5774)">
    <g transform="translate(78.532 749.31)">
     <path d="m0 0 1.11-0.392-1.303 0.97z" fill="#50656c"/>
    </g>
   </g>
  </g>
  <g transform="matrix(7.6405 0 0 -7.6405 -336.13 5662.5)">
   <path d="m78.339 749.89 1.304-0.97-0.669 0.944z" fill="url(#linearGradient5804)"/>
  </g>
  <g transform="matrix(7.6405 0 0 -7.6405 -336.13 5662.5)">
   <path d="m78.339 749.89 0.635-0.026 0.639 0.964z" fill="url(#linearGradient5832)"/>
  </g>
  <g transform="matrix(7.6405 0 0 -7.6405 -336.13 5662.5)">
   <path d="m78.532 750.48-0.193-0.586 1.274 0.938z" fill="url(#linearGradient5860)"/>
  </g>
  <g transform="matrix(7.6405 0 0 -7.6405 -336.13 5662.5)">
   <path d="m77.875 751.34 0.464-1.446 0.193 0.586-0.656 0.86z" fill="url(#linearGradient5888)"/>
  </g>
  <g transform="matrix(7.6405 0 0 -7.6405 -336.13 5662.5)">
   <g clip-path="url(#clipPath5898)">
    <g transform="translate(77.851 750.25)">
     <path d="m0 0 0.488-0.364-0.464 1.447z" fill="#748d9a"/>
    </g>
   </g>
  </g>
  <g transform="matrix(7.6405 0 0 -7.6405 -336.13 5662.5)">
   <path d="m76.807 749.92 1.53-0.024h1e-3l-0.487 0.362z" fill="url(#linearGradient5928)"/>
  </g>
  <g transform="matrix(7.6405 0 0 -7.6405 -336.13 5662.5)">
   <g clip-path="url(#clipPath5938)">
    <g transform="translate(77.856 749.51)">
     <path d="m0 0 0.482 0.382-1.531 0.024z" fill="#748d9a"/>
    </g>
   </g>
  </g>
  <g transform="matrix(7.6405 0 0 -7.6405 -336.13 5662.5)">
   <path d="m77.856 749.51-1e-3 -1.118v-1e-3l0.484 1.501z" fill="url(#linearGradient5968)"/>
  </g>
  <g transform="matrix(7.6405 0 0 -7.6405 -336.13 5662.5)">
   <path d="m77.766 745.4 0.579 0.781-0.167 0.486z" fill="url(#linearGradient5996)"/>
  </g>
  <g transform="matrix(7.6405 0 0 -7.6405 -336.13 5662.5)">
   <g clip-path="url(#clipPath6006)">
    <g transform="translate(78.345 746.18)">
     <path d="m0 0 0.935-0.331-1.102 0.817z" fill="#50656c"/>
    </g>
   </g>
  </g>
  <g transform="matrix(7.6405 0 0 -7.6405 -336.13 5662.5)">
   <path d="m78.179 746.66h-1e-3l1.101-0.817-0.562 0.794z" fill="url(#linearGradient6036)"/>
  </g>
  <g transform="matrix(7.6405 0 0 -7.6405 -336.13 5662.5)">
   <path d="m78.178 746.66 0.539-0.023 0.54 0.819z" fill="url(#linearGradient6064)"/>
  </g>
  <g transform="matrix(7.6405 0 0 -7.6405 -336.13 5662.5)">
   <path d="m78.34 747.16-0.162-0.5v-1e-3l1.079 0.795z" fill="url(#linearGradient6092)"/>
  </g>
  <g transform="matrix(7.6405 0 0 -7.6405 -336.13 5662.5)">
   <path d="m78.178 746.66 0.162 0.502-0.548 0.72z" fill="url(#linearGradient6120)"/>
  </g>
  <g transform="matrix(7.6405 0 0 -7.6405 -336.13 5662.5)">
   <g clip-path="url(#clipPath6130)">
    <g transform="translate(77.759 746.97)">
     <path d="m0 0 0.42-0.31-0.387 1.221z" fill="#748d9a"/>
    </g>
   </g>
  </g>
  <g transform="matrix(7.6405 0 0 -7.6405 -336.13 5662.5)">
   <path d="m76.886 746.69 1.292-0.028-0.419 0.311z" fill="url(#linearGradient6160)"/>
  </g>
  <g transform="matrix(7.6405 0 0 -7.6405 -336.13 5662.5)">
   <g clip-path="url(#clipPath6170)">
    <g transform="translate(77.778 746.34)">
     <path d="m0 0 0.4 0.32-1.292 0.027z" fill="#748d9a"/>
    </g>
   </g>
  </g>
  <g transform="matrix(7.6405 0 0 -7.6405 -336.13 5662.5)">
   <path d="m77.777 746.34-0.011-0.948 0.412 1.267z" fill="url(#linearGradient6200)"/>
  </g>
  <g transform="matrix(7.6405 0 0 -7.6405 -336.13 5662.5)">
   <path d="m76.25 743.24 0.471 0.632-0.136 0.4z" fill="url(#linearGradient6228)"/>
  </g>
  <g transform="matrix(7.6405 0 0 -7.6405 -336.13 5662.5)">
   <g clip-path="url(#clipPath6238)">
    <g transform="translate(76.721 743.87)">
     <path d="m0 0 0.76-0.267-0.896 0.668z" fill="#50656c"/>
    </g>
   </g>
  </g>
  <g transform="matrix(7.6405 0 0 -7.6405 -336.13 5662.5)">
   <path d="m76.586 744.27 0.895-0.669-0.454 0.647z" fill="url(#linearGradient6268)"/>
  </g>
  <g transform="matrix(7.6405 0 0 -7.6405 -336.13 5662.5)">
   <path d="m76.585 744.27 0.442-0.022 0.436 0.665z" fill="url(#linearGradient6296)"/>
  </g>
  <g transform="matrix(7.6405 0 0 -7.6405 -336.13 5662.5)">
   <path d="m76.721 744.67-0.135-0.4 0.877 0.642z" fill="url(#linearGradient6324)"/>
  </g>
  <g transform="matrix(7.6405 0 0 -7.6405 -336.13 5662.5)">
   <path d="m76.585 744.27 0.136 0.401-0.454 0.592z" fill="url(#linearGradient6352)"/>
  </g>
  <g transform="matrix(7.6405 0 0 -7.6405 -336.13 5662.5)">
   <g clip-path="url(#clipPath6362)">
    <g transform="translate(76.248 744.52)">
     <path d="m0 0 0.337-0.248-0.318 0.992z" fill="#748d9a"/>
    </g>
   </g>
  </g>
  <g transform="matrix(7.6405 0 0 -7.6405 -336.13 5662.5)">
   <path d="m75.538 744.29 1.047-0.018-0.337 0.249z" fill="url(#linearGradient6392)"/>
  </g>
  <g transform="matrix(7.6405 0 0 -7.6405 -336.13 5662.5)">
   <g clip-path="url(#clipPath6402)">
    <g transform="translate(76.263 744)">
     <path d="m0 0 0.323 0.267-1.048 0.018z" fill="#748d9a"/>
    </g>
   </g>
  </g>
  <g transform="matrix(7.6405 0 0 -7.6405 -336.13 5662.5)">
   <path d="m76.262 744.01-0.012-0.766 0.335 1.031v1e-3z" fill="url(#linearGradient6432)"/>
  </g>
  <g transform="matrix(7.6405 0 0 -7.6405 -336.13 5662.5)">
   <g clip-path="url(#clipPath6442)">
    <g transform="translate(68.598 741.67)">
     <path d="m0 0c-0.098 0-0.177-0.081-0.177-0.173v-0.283c0-0.098 0.085-0.177 0.181-0.177h0.634v-1.146h-0.638c-0.098 0-0.177-0.078-0.177-0.177v-0.283c0-0.096 0.085-0.175 0.181-0.175h1.942c0.1 0 0.174 0.079 0.174 0.175v0.283c0 0.099-0.082 0.177-0.174 0.177h-0.634v1.146h0.634c0.1 0 0.174 0.079 0.174 0.177v0.283c0 0.092-0.082 0.173-0.174 0.173z" fill="#12376e"/>
    </g>
    <g transform="translate(72.545 740.14)">
     <path d="m0 0v0.674c0 0.2 0.056 0.252 0.253 0.252h0.58c0.198 0 0.246-0.052 0.246-0.252v-0.674c0-0.202-0.048-0.25-0.246-0.25h-0.58c-0.197 0-0.253 0.048-0.253 0.25m0.206 1.552c-0.549 0-0.881-0.33-0.881-0.878v-0.674c0-0.554 0.332-0.885 0.881-0.885h0.667c0.555 0 0.892 0.331 0.892 0.885v0.674c0 0.548-0.337 0.878-0.892 0.878z" fill="#12376e"/>
    </g>
    <g transform="translate(58.754 741.04)">
     <path d="m0 0c0.2 0 0.248-0.045 0.248-0.252l-1e-3 -0.115c0-0.204-0.047-0.254-0.247-0.254h-0.718v0.621zm-1.225 0.633c-0.093 0-0.168-0.082-0.168-0.173v-1.081h-0.266c-0.084 0-0.166-0.077-0.166-0.17v-0.295l0.166-0.166h0.266v-0.354c0-0.096 0.075-0.176 0.168-0.176h0.327c0.106 0 0.18 0.08 0.18 0.176v0.354h0.654c0.05-0.094 0.233-0.413 0.233-0.413l0.165-0.117h0.402l0.134 0.076 0.019 0.083-0.017 0.076c0 4e-3 -0.175 0.301-0.268 0.465 0.203 0.148 0.325 0.393 0.325 0.713v0.117c0 0.557-0.33 0.885-0.887 0.885z" fill="#12376e"/>
    </g>
    <g transform="translate(62.395 741.04)">
     <path d="m0 0c0.044-0.105 0.154-0.43 0.223-0.621h-0.634c0.07 0.191 0.183 0.516 0.227 0.621zm-0.508 0.633c-0.037 0-0.123-0.021-0.162-0.134 0 0-0.327-0.851-0.427-1.12h-0.342c-0.091 0-0.171-0.077-0.171-0.17v-0.295c0-0.087 0.08-0.166 0.171-0.166h0.102c-0.055-0.145-0.116-0.311-0.116-0.311l-0.012-0.06 0.026-0.089 0.127-0.07h0.378l0.159 0.128c0 4e-3 0.09 0.248 0.13 0.38h1.095c0.048-0.113 0.14-0.37 0.14-0.37 0.039-0.121 0.119-0.138 0.164-0.138h0.381l0.124 0.066 0.01 0.153-0.785 2.062c-0.045 0.113-0.12 0.134-0.166 0.134z" fill="#12376e"/>
    </g>
    <g transform="translate(66.286 741.04)">
     <path d="m0 0c0.209 0 0.259-0.045 0.259-0.252v-0.644c0-0.203-0.05-0.25-0.259-0.25h-0.659v1.146zm-1.527 0.633c-0.09 0-0.168-0.079-0.168-0.168v-0.297c0-0.092 0.078-0.168 0.168-0.168h0.191v-1.606c0-0.096 0.078-0.176 0.176-0.176h1.215c0.55 0 0.884 0.334 0.884 0.886v0.644c0 0.557-0.334 0.885-0.884 0.885z" fill="#12376e"/>
    </g>
    <g transform="translate(68.76 739.46)">
     <path d="m0 0-0.05 0.05v0.279l0.047 0.048h0.762v1.408h-0.759l-0.05 0.046v0.282l0.047 0.048h1.942l0.055-0.048v-0.282l-0.051-0.046h-0.762v-1.408h0.758l0.055-0.048v-0.279l-0.051-0.05z" fill="none" stroke="#fff" stroke-width=".124"/>
    </g>
    <g transform="translate(68.76 739.46)">
     <path d="m0 0-0.05 0.05v0.279l0.047 0.048h0.762v1.408h-0.759l-0.05 0.046v0.282l0.047 0.048h1.942l0.055-0.048v-0.282l-0.051-0.046h-0.762v-1.408h0.758l0.055-0.048v-0.279l-0.051-0.05z" fill="#db2d26"/>
    </g>
    <g transform="translate(73.909 740.89)">
     <path d="m0 0c0 0.269-0.105 0.379-0.374 0.379h-0.578c-0.27 0-0.374-0.11-0.374-0.379v-0.668c0-0.273 0.104-0.381 0.374-0.381h0.578c0.269 0 0.374 0.108 0.374 0.381zm-0.327-1.427h-0.665c-0.488 0-0.765 0.281-0.765 0.759v0.668c0 0.485 0.277 0.756 0.765 0.756h0.665c0.485 0 0.754-0.271 0.754-0.756v-0.668c0-0.478-0.269-0.759-0.754-0.759z" fill="none" stroke="#fff" stroke-width=".124"/>
    </g>
    <g transform="translate(73.909 740.89)">
     <path d="m0 0c0 0.269-0.105 0.379-0.374 0.379h-0.578c-0.27 0-0.374-0.11-0.374-0.379v-0.668c0-0.273 0.104-0.381 0.374-0.381h0.578c0.269 0 0.374 0.108 0.374 0.381zm-0.327-1.427h-0.665c-0.488 0-0.765 0.281-0.765 0.759v0.668c0 0.485 0.277 0.756 0.765 0.756h0.665c0.485 0 0.754-0.271 0.754-0.756v-0.668c0-0.478-0.269-0.759-0.754-0.759" fill="#db2d26"/>
    </g>
    <g transform="translate(59.288 740.75)">
     <path d="m0 0c0-0.27-0.105-0.379-0.376-0.379h-0.842v0.877h0.842c0.271 0 0.378-0.109 0.378-0.381zm0.386-1.237-0.322 0.56c0.24 0.114 0.359 0.349 0.359 0.677v0.117c0 0.483-0.273 0.757-0.754 0.757h-1.267l-0.048-0.047v-1.206h-0.383l-0.044-0.041v-0.298l0.044-0.04h0.383v-0.479l0.048-0.05h0.333l0.047 0.05v0.479h0.848l0.274-0.479 0.058-0.05h0.393z" fill="none" stroke="#fff" stroke-width=".124"/>
    </g>
    <g transform="translate(59.288 740.75)">
     <path d="m0 0c0-0.27-0.105-0.379-0.376-0.379h-0.842v0.877h0.842c0.271 0 0.378-0.109 0.378-0.381zm0.386-1.237-0.322 0.56c0.24 0.114 0.359 0.349 0.359 0.677v0.117c0 0.483-0.273 0.757-0.754 0.757h-1.267l-0.048-0.047v-1.206h-0.383l-0.044-0.041v-0.298l0.044-0.04h0.383v-0.479l0.048-0.05h0.333l0.047 0.05v0.479h0.848l0.274-0.479 0.058-0.05h0.393l0.031 0.05" fill="#db2d26"/>
    </g>
    <g transform="translate(62.277 741.25)">
     <path d="m0 0h0.367l0.313-0.877h-0.991zm1.43-1.735-0.788 2.064-0.043 0.047h-0.823l-0.05-0.047-0.461-1.206h-0.431l-0.037-0.041v-0.298l0.037-0.04h0.286l-0.179-0.479 0.02-0.05h0.381l0.046 0.05 0.158 0.456h1.274l0.168-0.456 0.042-0.05h0.378z" fill="none" stroke="#fff" stroke-width=".124"/>
    </g>
    <g transform="translate(62.277 741.25)">
     <path d="m0 0h0.367l0.313-0.877h-0.991zm1.43-1.735-0.788 2.064-0.043 0.047h-0.823l-0.05-0.047-0.461-1.206h-0.431l-0.037-0.041v-0.298l0.037-0.04h0.286l-0.179-0.479 0.02-0.05h0.381l0.046 0.05 0.158 0.456h1.274l0.168-0.456 0.042-0.05h0.378z" fill="#db2d26"/>
    </g>
    <g transform="translate(66.83 740.22)">
     <path d="m0 0c0-0.273-0.1-0.382-0.374-0.382h-0.795v1.407h0.795c0.274 0 0.374-0.109 0.374-0.381zm-0.335 1.401h-1.577l-0.044-0.042v-0.297l0.044-0.037h0.314v-1.734l0.051-0.05h1.212c0.481 0 0.76 0.281 0.76 0.759v0.644c0 0.484-0.279 0.757-0.76 0.757z" fill="none" stroke="#fff" stroke-width=".124"/>
    </g>
    <g transform="translate(66.83 740.22)">
     <path d="m0 0c0-0.273-0.1-0.382-0.374-0.382h-0.795v1.407h0.795c0.274 0 0.374-0.109 0.374-0.381zm-0.335 1.401h-1.577l-0.044-0.042v-0.297l0.044-0.037h0.314v-1.734l0.051-0.05h1.212c0.481 0 0.76 0.281 0.76 0.759v0.644c0 0.484-0.279 0.757-0.76 0.757" fill="#db2d26"/>
    </g>
   </g>
  </g>
  <g transform="matrix(7.6405 0 0 -7.6405 -336.13 5662.5)">
   <path d="m59.117 754.12c-0.668-0.374-0.904-1.218-0.526-1.886 0.38-0.663 1.223-0.9 1.889-0.524 1.24 0.705 3.235 1.127 5.331 1.127 2.09 0 4.083-0.422 5.326-1.122 0.661-0.375 1.507-0.139 1.884 0.529 0.379 0.666 0.144 1.51-0.525 1.885-1.663 0.936-4.099 1.476-6.685 1.476-2.593 0-5.036-0.542-6.694-1.485" fill="url(#linearGradient6528)"/>
  </g>
  <g transform="matrix(7.6405 0 0 -7.6405 -336.13 5662.5)">
   <path d="m59.008 754.31c-0.768-0.435-1.041-1.415-0.605-2.183 0.435-0.769 1.415-1.038 2.181-0.606 1.211 0.686 3.168 1.093 5.227 1.093s4.007-0.407 5.217-1.089c0.372-0.208 0.807-0.262 1.217-0.148 0.411 0.117 0.758 0.386 0.967 0.756 0.209 0.375 0.261 0.809 0.144 1.221-0.114 0.413-0.38 0.752-0.753 0.963-1.697 0.955-4.17 1.505-6.792 1.505-2.629 0-5.108-0.551-6.803-1.512m-0.227-1.969c-0.321 0.56-0.12 1.274 0.443 1.593 1.628 0.924 4.031 1.453 6.587 1.453 2.551 0 4.948-0.527 6.579-1.447 0.27-0.156 0.469-0.403 0.552-0.706 0.083-0.299 0.045-0.614-0.108-0.887-0.154-0.271-0.406-0.469-0.703-0.551-0.302-0.083-0.621-0.047-0.889 0.109-1.273 0.715-3.303 1.143-5.431 1.143-2.134 0-4.167-0.428-5.44-1.15-0.181-0.103-0.379-0.152-0.574-0.152-0.407 0-0.803 0.214-1.016 0.595" fill="url(#linearGradient6556)"/>
  </g>
  <g transform="matrix(7.6405 0 0 -7.6405 -336.13 5662.5)">
   <g clip-path="url(#clipPath6566)">
    <g transform="translate(60.48 751.71)">
     <path d="m0 0c1.24 0.704 3.235 1.127 5.331 1.127 2.091 0 4.083-0.423 5.326-1.122 0.661-0.375 1.508-0.139 1.884 0.528 0.38 0.666 0.145 1.511-0.524 1.886-1.663 0.936-4.099 1.476-6.686 1.476-2.593 0-5.035-0.542-6.695-1.485-0.667-0.375-0.903-1.219-0.525-1.887 0.38-0.664 1.223-0.9 1.889-0.523" fill="#12376e"/>
    </g>
   </g>
  </g>
  <g transform="matrix(7.6405 0 0 -7.6405 -336.13 5662.5)">
   <path d="m59.098 752.89c0-0.143 0.116-0.259 0.261-0.259 0.146 0 0.263 0.116 0.263 0.259 0 0.145-0.117 0.261-0.263 0.261-0.145 0-0.261-0.116-0.261-0.261" fill="url(#linearGradient6596)"/>
  </g>
  <g transform="matrix(7.6405 0 0 -7.6405 -336.13 5662.5)">
   <path d="m71.859 752.88c0-0.143 0.115-0.263 0.257-0.263 0.145 0 0.263 0.12 0.263 0.263s-0.118 0.26-0.263 0.26c-0.142 0-0.257-0.117-0.257-0.26" fill="url(#linearGradient6624)"/>
  </g>
  <g transform="matrix(7.6405 0 0 -7.6405 -336.13 5662.5)">
   <g clip-path="url(#clipPath6634)">
    <g transform="translate(60.559 753.27)">
     <path d="m0 0 0.011-0.05 0.061-0.038 0.133-0.019 0.171 8e-3 0.191 0.035c0.123 0.03 0.208 0.072 0.255 0.113l0.056 0.139-0.09 0.037-0.195-0.022c-0.077-0.013-0.157-0.026-0.248-0.043-0.09-0.015-0.171-0.024-0.254-0.024l-0.217 0.036-0.131 0.148-9e-3 0.175 0.085 0.162 0.17 0.137c0.071 0.042 0.152 0.074 0.248 0.104l0.245 0.05 0.208 0.018 0.152 5e-3 0.091 1e-3 0.038 0.022 0.021 0.031 0.03-1e-3c-0.031-0.124-0.064-0.245-0.097-0.367l-0.033 7e-3 -4e-3 0.025-0.063 0.031-0.135 7e-3 -0.174-0.017-0.187-0.037c-0.106-0.03-0.181-0.064-0.219-0.101l-0.042-0.093 0.064-0.046 0.125 7e-3 0.166 0.031 0.197 0.035 0.196 0.015 0.18-0.021 0.145-0.079 0.083-0.155v-0.163l-0.077-0.161-0.186-0.146c-0.081-0.048-0.182-0.085-0.311-0.123-0.098-0.025-0.189-0.046-0.263-0.058l-0.192-0.021-0.131-2e-3 -0.073-6e-3 -0.016-0.014-0.017-0.032-0.031-3e-3c0.012 0.157 0.03 0.312 0.048 0.468l0.025-5e-3" fill="#fff"/>
    </g>
    <g transform="translate(62.04 753.19)">
     <path d="m0 0 0.047 0.026 5e-3 0.024c-0.072 0.329-0.145 0.656-0.216 0.982l-0.018 0.023h-0.055l-5e-3 0.025c0.156 0.037 0.313 0.068 0.472 0.101l7e-3 -0.026-0.051-0.026-6e-3 -0.027c0.064-0.328 0.13-0.655 0.195-0.984l0.016-0.022 0.052-2e-3 4e-3 -0.026c-0.148-0.029-0.293-0.058-0.441-0.092l-6e-3 0.024" fill="#fff"/>
    </g>
    <g transform="translate(63.387 754.07)">
     <path d="m0 0 0.132 0.052 0.029 0.09-0.049 0.076-0.142 0.015c-0.128-0.015-0.253-0.035-0.383-0.057l0.038-0.231c0.124 0.022 0.249 0.038 0.375 0.055m-0.268-0.66 0.049-5e-3 5e-3 -0.026c-0.147-0.023-0.295-0.05-0.443-0.076l-6e-3 0.024 0.047 0.024 6e-3 0.028c-0.057 0.328-0.116 0.658-0.173 0.987l-0.015 0.022-0.056 6e-3 -7e-3 0.022c0.281 0.052 0.561 0.097 0.845 0.134 0.17 0.023 0.298 7e-3 0.383-0.04 0.081-0.049 0.131-0.135 0.142-0.259 0.011-0.098-0.011-0.177-0.068-0.239l-0.212-0.146c0.1-0.109 0.204-0.218 0.299-0.325l0.069-0.033 2e-3 -0.023c-0.151-0.018-0.3-0.036-0.451-0.055l-5e-3 0.025 0.046 0.044-0.022 0.029-0.051 0.055-0.068 0.07-0.072 0.071-0.067 0.061-0.031 0.037-0.219-0.032c0.02-0.118 0.038-0.238 0.058-0.359l0.015-0.021" fill="#fff"/>
    </g>
    <g transform="translate(64.183 753.53)">
     <path d="m0 0 0.052 0.018 4e-3 0.024c-0.027 0.335-0.06 0.668-0.087 1.002l-0.012 0.022-0.057 0.01-4e-3 0.026c0.16 0.016 0.323 0.026 0.484 0.037v-0.027l-0.055-0.015-9e-3 -0.027c0.022-0.332 0.043-0.667 0.069-0.999l0.011-0.029 0.054-7e-3 3e-3 -0.023c-0.153-0.012-0.301-0.024-0.453-0.037z" fill="#fff"/>
    </g>
    <g transform="translate(65.818 754.66)">
     <path d="m0 0-0.057 0.012v0.026c0.16 0 0.321-1e-3 0.482-4e-3v-0.029l-0.057-0.011-0.011-0.024c-4e-3 -0.19-0.01-0.386-0.014-0.577-2e-3 -0.095-0.018-0.175-0.051-0.237l-0.135-0.155-0.195-0.077-0.232-0.023-0.235 0.016-0.195 0.078-0.137 0.147c-0.035 0.064-0.055 0.143-0.057 0.235-8e-3 0.195-0.019 0.388-0.025 0.578l-0.016 0.026-0.052 8e-3 -2e-3 0.027c0.159 9e-3 0.318 0.013 0.481 0.018v-0.027l-0.058-0.013-9e-3 -0.026c8e-3 -0.191 0.012-0.386 0.016-0.577l0.079-0.175 0.207-0.05 0.206 0.054 0.074 0.179c2e-3 0.192 2e-3 0.382 2e-3 0.575l-9e-3 0.026" fill="#fff"/>
    </g>
    <g transform="translate(66.559 753.99)">
     <path d="m0 0-7e-3 -0.045 0.04-0.05 0.101-0.056 0.146-0.049 0.168-0.029c0.114-7e-3 0.194-1e-3 0.252 0.018l0.084 0.104-0.062 0.058-0.168 0.039-0.221 0.039-0.219 0.056-0.17 0.097-0.059 0.168 0.045 0.146 0.12 0.11 0.178 0.064 0.233 0.012 0.225-0.032 0.172-0.046 0.131-0.044 0.075-0.021 0.041 6e-3 0.027 0.018 0.023-0.01c-0.065-0.095-0.128-0.189-0.189-0.281l-0.027 0.015 1e-3 0.024-0.042 0.046-0.106 0.044-0.152 0.042-0.165 0.022c-0.097 9e-3 -0.171 0-0.21-0.019l-0.062-0.064 0.036-0.06 0.105-0.032 0.15-0.025 0.17-0.03 0.17-0.046 0.145-0.071 0.095-0.107 0.022-0.158-0.045-0.138-0.114-0.113-0.199-0.065c-0.083-0.014-0.18-0.02-0.299-0.01l-0.234 0.031-0.169 0.04-0.106 0.039-0.06 0.016-0.023-8e-3 -0.024-0.016-0.025 8e-3c0.057 0.124 0.121 0.251 0.18 0.374l0.022-0.011" fill="#fff"/>
    </g>
    <g transform="translate(67.701 753.49)">
     <path d="m0 0 0.061 0.032c0.186 0.171 0.378 0.335 0.573 0.501-0.128 0.21-0.262 0.416-0.401 0.625l-0.027 0.027-0.026 0.012 3e-3 0.028c0.203-0.025 0.406-0.054 0.611-0.085l-8e-3 -0.028h-0.045l-0.021-0.022 0.028-0.049 0.061-0.096 0.066-0.101 0.041-0.06 0.064 0.047 0.09 0.074 0.087 0.071 0.037 0.037-0.011 0.028-0.034 0.013 4e-3 0.029c0.199-0.035 0.398-0.074 0.591-0.113l-3e-3 -0.029-0.071-0.015c-0.195-0.148-0.385-0.3-0.57-0.449 0.134-0.237 0.259-0.47 0.381-0.705l0.019-0.014 0.022-8e-3 -5e-3 -0.025c-0.187 0.036-0.376 0.07-0.565 0.108l8e-3 0.026 0.047 4e-3 -0.019 0.047-0.041 0.09-0.063 0.113-0.065 0.116-0.036-0.034-0.063-0.049-0.068-0.057-0.07-0.055-0.049-0.045-0.023-0.032 0.02-0.026 0.036-5e-3 -7e-3 -0.032c-0.187 0.026-0.371 0.053-0.56 0.076l1e-3 0.03" fill="#fff"/>
    </g>
    <g transform="translate(70.519 752.92)">
     <path d="m0 0 0.061-4e-3 0.019 0.026c0.085 0.279 0.168 0.563 0.251 0.848l-3e-3 5e-3c-0.237-0.255-0.465-0.512-0.691-0.777-0.057 0.342-0.123 0.685-0.196 1.026l-6e-3 2e-3c-0.069-0.293-0.141-0.584-0.21-0.875l4e-3 -0.029 0.05-0.03-4e-3 -0.03c-0.144 0.035-0.281 0.067-0.422 0.098l5e-3 0.031 0.058 2e-3 0.018 0.024c0.082 0.366 0.165 0.731 0.246 1.096l-4e-3 0.03-0.06 0.029 6e-3 0.026c0.225-0.045 0.45-0.101 0.672-0.161l-5e-3 -0.025-0.072-0.029 3e-3 -0.039 0.016-0.096 0.024-0.127 0.029-0.126 0.018-0.111 0.012-0.063 0.132 0.151 0.127 0.128 0.089 0.101 0.041 0.048-0.047 0.061 6e-3 0.028c0.231-0.063 0.461-0.135 0.688-0.208l-7e-3 -0.03-0.067 7e-3 -0.021-0.027c-0.11-0.353-0.225-0.71-0.342-1.064l5e-3 -0.031 0.05-0.034-0.01-0.028c-0.155 0.053-0.315 0.102-0.471 0.147l8e-3 0.03" fill="#fff"/>
    </g>
    <g transform="translate(69.445 751.48)">
     <path d="m0 0s-0.774-0.603-1.867-0.332c-1.276 0.322-1.771 1.277-1.771 1.277s-0.497-0.955-1.773-1.277c-1.092-0.271-1.869 0.332-1.869 0.332v-6.34c0-0.214 0.093-1.13 1.795-1.375 0.675-0.099 1.18-0.316 1.542-0.663 0.129-0.124 0.229-0.255 0.305-0.368 0.075 0.113 0.175 0.244 0.306 0.368 0.361 0.347 0.863 0.564 1.537 0.663 1.706 0.245 1.795 1.161 1.795 1.375z" fill="#12376e"/>
    </g>
   </g>
  </g>
  <g transform="matrix(7.6405 0 0 -7.6405 -336.13 5662.5)">
   <g clip-path="url(#clipPath6678)">
    <g transform="translate(65.808 743.37)">
     <path d="m0 0s0.495 0.615 1.781 0.812c1.476 0.227 1.434 0.921 1.434 0.953v3.323h-6.431v-3.323c0-0.032-0.043-0.726 1.432-0.953 1.287-0.197 1.784-0.812 1.784-0.812" fill="#fff"/>
    </g>
   </g>
  </g>
  <g transform="matrix(7.6405 0 0 -7.6405 155.24 -37.574)">
   <path d="m0 0-1e-3 1.583-0.199 0.11v0.411h0.902v-0.411l-0.19-0.11v-3.223l-0.48 0.145-0.699 2.058v-1.357l0.225-0.171v-0.415l-0.971 0.244v0.353l0.223 0.093v2.269l-0.228 0.114v0.411h0.731z" fill="#db1f26"/>
  </g>
  <g transform="matrix(7.6405 0 0 -7.6405 167.91 -26.557)">
   <path d="m0 0 0.192-0.231v-0.411l-0.957 0.359v0.348l0.211 0.086v2.874l-0.211 0.105v0.415h1.666v-0.835h-0.367l-0.11 0.341h-0.424v-0.963h0.317l0.127 0.185h0.254v-0.856h-0.254l-0.119 0.172h-0.325z" fill="#db1f26"/>
  </g>
  <g transform="matrix(7.6405 0 0 -7.6405 175.99 -25.475)">
   <path d="m0 0v0.407l0.24 0.197v2.563l-0.204 0.105v0.415h0.96v-0.415l-0.188-0.105v-2.404l0.412 0.109 0.078 0.631h0.393v-1.054z" fill="#db1f26"/>
  </g>
  <g transform="matrix(7.6405 0 0 -7.6405 143.39 -61.328)">
   <path d="m0 0-0.29 0.217h0.353l0.12 0.338 0.116-0.338h0.353l-0.289-0.217 0.109-0.344-0.289 0.205-0.29-0.205z" fill="#fff"/>
  </g>
  <g transform="matrix(7.6405 0 0 -7.6405 153.03 -61.328)">
   <path d="m0 0-0.29 0.217h0.353l0.12 0.338 0.117-0.338h0.352l-0.287-0.217 0.107-0.344-0.289 0.205-0.29-0.205z" fill="#fff"/>
  </g>
  <g transform="matrix(7.6405 0 0 -7.6405 143.39 -70.013)">
   <path d="m0 0-0.29 0.221h0.353l0.12 0.337 0.116-0.337h0.353l-0.289-0.221 0.109-0.341-0.289 0.201-0.29-0.201z" fill="#fff"/>
  </g>
  <g transform="matrix(7.6405 0 0 -7.6405 153.03 -70.013)">
   <path d="m0 0-0.29 0.221h0.353l0.12 0.337 0.117-0.337h0.352l-0.287-0.221 0.107-0.341-0.289 0.201-0.29-0.201z" fill="#fff"/>
  </g>
  <g transform="matrix(7.6405 0 0 -7.6405 190.75 -58.701)">
   <path d="m0 0-0.288 0.205-0.286-0.205 0.102 0.344-0.289 0.217h0.355l0.118 0.338 0.116-0.338h0.356l-0.291-0.217z" fill="#fff"/>
  </g>
  <g transform="matrix(7.6405 0 0 -7.6405 181.14 -58.701)">
   <path d="m0 0-0.289 0.205-0.29-0.205 0.106 0.344-0.291 0.217h0.357l0.118 0.338 0.117-0.338h0.354l-0.289-0.217z" fill="#fff"/>
  </g>
  <g transform="matrix(7.6405 0 0 -7.6405 190.75 -67.409)">
   <path d="m0 0-0.288 0.201-0.286-0.201 0.102 0.341-0.289 0.221h0.355l0.118 0.337 0.116-0.337h0.356l-0.291-0.221z" fill="#fff"/>
  </g>
  <g transform="matrix(7.6405 0 0 -7.6405 181.14 -67.409)">
   <path d="m0 0-0.289 0.201-0.29-0.201 0.106 0.341-0.291 0.221h0.357l0.118 0.337 0.117-0.337h0.354l-0.289-0.221z" fill="#fff"/>
  </g>
  <g transform="matrix(7.6405 0 0 -7.6405 168.77 -71.93)">
   <path d="m0 0c-0.129 0.105-0.273 0.172-0.429 0.206l0.109 0.093c0.191-0.046 0.324-0.131 0.41-0.205l-0.09-0.094m-0.187-0.228c-0.123 0.105-0.27 0.181-0.44 0.215l0.086 0.102c0.129-0.02 0.295-0.089 0.438-0.211l-0.084-0.106m-0.166-0.234c-0.133 0.111-0.291 0.178-0.441 0.206l0.072 0.118c0.189-0.038 0.339-0.125 0.444-0.213l-0.075-0.111m0.879 1.124s-0.152-0.076-0.361-0.287l0.131-0.086-0.094-0.087c-0.138 0.114-0.278 0.17-0.391 0.198l0.115 0.077 0.117-0.042c0.236 0.182 0.442 0.263 0.442 0.263l-0.09 7e-3c-0.928-0.011-1.789-0.707-1.625-1.898 0.016-0.127 0.064-0.359 0.125-0.457 0.022 0.199 0.098 0.637 0.319 1.108l-0.144 0.037 0.059 0.107c0.161-0.031 0.307-0.098 0.43-0.197l-0.066-0.104-0.137 0.09c-0.248-0.436-0.363-0.844-0.408-1.061l0.05-0.02c1.023 0.135 1.501 0.658 1.648 1.225 0.095 0.367 0.064 0.754-0.064 1.07l-0.056 0.057" fill="#fff"/>
  </g>
 </g>
</svg>
