<svg width="485.5" height="800" version="1.1" viewBox="0 0 128.45 211.67" xmlns="http://www.w3.org/2000/svg">
 <g transform="translate(-57.043 232.83)">
  <g transform="matrix(9.2726 0 0 -9.2726 69.363 -82.953)">
   <path d="m0 0c0-0.987 0.801-1.785 1.788-1.785h6.859c0.987 0 1.787 0.798 1.787 1.785v10.76c0 0.986-0.8 1.786-1.787 1.762h-6.859c-0.987 0.024-1.788-0.776-1.788-1.762z" fill="#173a79"/>
  </g>
  <g transform="matrix(9.2726 0 0 -9.2726 85.942 -195.51)">
   <path d="m0 0c-0.762 0-1.38-0.617-1.38-1.378v-10.76c0-0.763 0.618-1.378 1.38-1.378h6.859c0.762 0 1.378 0.615 1.378 1.378v10.76c0 0.761-0.616 1.378-1.378 1.378z" fill="#fff"/>
  </g>
  <g transform="matrix(9.2726 0 0 -9.2726 85.853 -193.56)">
   <path d="m0 0c-0.645 0-1.167-0.524-1.167-1.168v-10.761c0-0.644 0.522-1.169 1.167-1.169h6.861c0.645 0 1.17 0.525 1.17 1.169v10.761c0 0.644-0.525 1.168-1.17 1.168z" fill="#173a79"/>
  </g>
  <g transform="matrix(9.2726 0 0 -9.2726 85.586 -169.23)">
   <path d="m0 0-0.072-0.07h-0.113v-0.15h0.736v0.15h-0.124l-0.075 0.07v0.274h0.206c0.343 0 0.525 0.089 0.525 0.327 0 0.237-0.182 0.325-0.489 0.325h-0.781v-0.153h0.115l0.072-0.068zm0.352 0.773h0.19c0.105 0 0.191-0.067 0.191-0.175 0-0.107-0.088-0.173-0.22-0.173h-0.161z" fill="#fff"/>
  </g>
  <g transform="matrix(9.2726 0 0 -9.2726 109.43 -171.38)">
   <path d="m0 0h-0.086l-0.074-0.068v-0.397h-0.163l-0.039 0.083c-0.108-0.075-0.247-0.103-0.371-0.103-0.386 0-0.659 0.202-0.659 0.589 0 0.392 0.261 0.626 0.659 0.626 0.11 0 0.246-0.035 0.34-0.116l0.036 0.095h0.168v-0.403h-0.173c-7e-3 0.172-0.117 0.261-0.304 0.261-0.218 0-0.321-0.147-0.321-0.448 0-0.297 0.103-0.441 0.321-0.441l0.156 0.107v0.147l-0.072 0.068h-0.099v0.153h0.681z" fill="#fff"/>
  </g>
  <g transform="matrix(9.2726 0 0 -9.2726 114.01 -171.46)">
   <path d="m0 0 0.173 0.385 0.155-0.385zm0.93-0.33c-0.125 0.02-0.13 0.05-0.178 0.153l-0.366 0.851h-0.283l-0.352-0.788c-0.053-0.112-0.091-0.203-0.25-0.219v-0.131h0.561v0.131l-0.016 3e-3 -0.147 0.065 0.024 0.073 0.022 0.055h0.446l0.024-0.055 0.024-0.087-0.152-0.054v-0.131h0.664v0.131z" fill="#fff"/>
  </g>
  <g transform="matrix(9.2726 0 0 -9.2726 136.43 -143.08)">
   <path d="m0 0-0.106 0.283 0.523 0.354 9e-3 -0.061-0.426-0.576m1.735 2.136c0.18 0.18 0.18 0.612 0.18 0.612-0.178 0.326-0.549 0.423-0.549 0.423l-0.182-0.023-3.001 1.83c-0.218 0.113-0.52-0.274-0.594-0.414l0.132-0.171c0.273-0.178 0.403 0.279 0.503 0.443l2.905-1.835 0.017-0.157c-5e-3 -0.237 0.186-0.434 0.074-0.781-0.029-0.483-0.554-0.579-0.839-0.88-0.261-0.255-0.779-0.224-0.997-0.435l-5e-3 -6e-3 -2e-3 9e-3c-0.187 0.489-0.297 0.516-0.355 0.713-0.23 0.086-0.498 0.108-0.716-0.01-0.211-0.139-0.317-0.397-0.278-0.626 4e-3 -0.235 0.335-0.488 0.508-0.59-0.113-0.161-0.166-0.357-0.168-0.439-0.026-0.349 0.249-0.679 0.323-0.817 0.324-0.48 0.508-0.863 0.58-1l0.012-0.083c-2e-3 -9e-3 -0.28-0.493 0.178-1.186 0.184-0.356 0.45-1.152 0.453-1.159 0.105-0.111-0.142-0.044-0.17-0.304-0.175-0.072-1.534-1.108-1.841-1.383-0.122-0.035-0.28-0.03-0.328-0.183l-0.084-0.18c-0.134-0.148-0.288-0.418-0.314-0.68-0.029-0.133 2e-3 -0.395 0.16-0.465h0.118l0.12 0.277c0.11 0.262 0.268 0.334 0.635 0.698 0.182-0.052 0.261-0.16 0.45-0.205 0.511 0.472 1.021 0.904 1.525 1.39-0.08-0.751-0.152-1.522-0.149-1.728-0.031-0.132-0.034-0.357 0.057-0.468 0 0 0.83-0.049 0.99-0.038l0.084 0.053s0.077 0.112-0.125 0.263c-0.062 0.043-0.201 0.217-0.309 0.288 0.144 0.031 0.295 0.056 0.329 0.056-0.039 0.396-0.046 1.247-0.075 2.363-0.124 1.156-0.136 1.545-0.711 3.912 0.409 0.462 0.393 0.751 0.783 1.228 0.211 0.412 0.537 1.246 0.676 1.688" fill="#fff"/>
  </g>
  <g transform="matrix(9.2726 0 0 -9.2726 94.674 -93.525)">
   <path d="m0 0v0.268h0.254l0.125-0.129-0.125-0.139zm0.043-0.901-0.045 0.039v0.247h0.16l0.077-0.063v-0.223zm0.302 5.069c0-0.388-0.086-0.586-0.252-0.586-0.083 0-0.254 0-0.254 0.586 0 0.584 0.178 0.584 0.254 0.584 0.106 0 0.252 0 0.252-0.584m-0.307-1.704h0.377l0.031-0.032v-0.979c0-0.071-0.06-0.128-0.211-0.128-0.156 0-0.235 0.057-0.235 0.128v0.979l0.038 0.032m1.191-3.368-0.083 0.081v0.078c0 0.123-0.01 0.248-0.07 0.363l-0.048 0.073 0.022 0.013 4e-3 2e-3v2e-3c0.135 0.112 0.202 0.264 0.202 0.451 0 0.124-0.031 0.257-0.089 0.368l-2e-3 6e-3 -3e-3 6e-3c-0.083 0.137-0.201 0.229-0.362 0.276 0.216 0.129 0.326 0.347 0.326 0.655v0.994h0.262l-5e-3 0.65h-0.609c0.352 0.198 0.556 0.566 0.556 1.054 0 0.537-0.228 0.867-0.544 1.046h0.235v0.605h-0.458v1.08c0.103-1e-3 0.173-0.106 0.18-0.268l7e-3 -0.199 0.63-2e-3v1.126h-2.561v-1.126l0.632 2e-3 5e-3 0.199c7e-3 0.162 0.079 0.267 0.18 0.268v-1.08h-0.458v-0.605h0.194c-0.311-0.179-0.544-0.509-0.544-1.046 0-0.488 0.206-0.856 0.559-1.054h-0.552v-0.65h0.259v-1.057c0-0.2 0.091-0.408 0.319-0.55l-0.587 2e-3v-0.643h0.247l0.038-0.044c0-0.181-2e-3 -0.827 0-1.025l-0.038-0.048h-0.247v-0.638h1.555v0.189c0.122-0.134 0.292-0.201 0.518-0.201h0.537v0.645z" fill="#fff"/>
  </g>
  <g transform="matrix(9.2726 0 0 -9.2726 105.54 -162.02)">
   <path d="m0 0h-2.186v-0.787h0.302v0.038c0.015 0.302 0.187 0.434 0.355 0.434 0.11 0 0.163-0.02 0.163-0.067v-1.216l-0.105-0.139h-0.35v-0.267h1.5v0.267h-0.355l-0.103 0.139v1.216c0 0.047 0.053 0.067 0.163 0.067 0.168 0 0.343-0.132 0.355-0.434l2e-3 -0.038h0.3v0.787z" fill="#ee293d"/>
  </g>
  <g transform="matrix(9.2726 0 0 -9.2726 105.94 -120.84)">
   <path d="m0 0h-0.896v-0.312h0.165l0.115-0.029 0.017-0.101v-1.105c-5e-3 -0.053-0.055-0.24-0.381-0.24-0.254 0-0.405 0.096-0.405 0.257v1.082c0 0.124 0.057 0.136 0.112 0.136h0.202v0.312h-1.141v-0.312h0.129l0.113-0.029 0.019-0.099v-1.099c0-0.269 0.242-0.558 0.918-0.558 0.69 0 0.777 0.331 0.777 0.622v1.027c0 0.124 0.055 0.136 0.112 0.136h0.146z" fill="#ee293d"/>
  </g>
  <g transform="matrix(9.2726 0 0 -9.2726 95.541 -125.18)">
   <path d="m0 0c-0.185 0-0.427 0.064-0.427 0.754 0 0.517 0.142 0.754 0.427 0.754 0.3 0 0.419-0.207 0.419-0.754 0-0.506-0.143-0.754-0.419-0.754m-0.014 1.803c-0.523 0-1.081-0.264-1.081-1.049 0-0.667 0.405-1.049 1.081-1.049 0.678 0 1.083 0.382 1.083 1.049 0 0.785-0.561 1.049-1.083 1.049" fill="#ee293d"/>
  </g>
  <g transform="matrix(9.2726 0 0 -9.2726 93.096 -97.568)">
   <path d="m0 0c0.062 0 0.28-1e-3 0.439-1e-3 0.139 0 0.239-0.062 0.268-0.171l-0.012-0.258c-0.041-0.112-0.132-0.17-0.264-0.17h-0.431v0.552zm1.407-1.503c-0.079-1e-3 -0.252 8e-3 -0.252 0.244v0.079c0 0.094-2e-3 0.2-0.048 0.286-0.045 0.094-0.153 0.148-0.213 0.173l0.23 0.122c0.091 0.08 0.141 0.183 0.141 0.322 0 0.098-0.024 0.203-0.069 0.292-0.098 0.159-0.264 0.236-0.52 0.236l-1.503 2e-3v-0.305h0.197l0.091-0.085s2e-3 -0.949 2e-3 -1.26l-0.091-0.1h-0.199v-0.307h1.244v0.304h-0.309l-0.096 0.112s-2e-3 0.379-2e-3 0.504l0.366-1e-3c0.043 0 0.204-0.018 0.202-0.208l-5e-3 -0.133c0-0.114-0.01-0.208 0.038-0.336 0.086-0.172 0.237-0.257 0.47-0.257h0.362v0.316z" fill="#ee293d"/>
  </g>
  <g transform="matrix(9.2726 0 0 -9.2726 60.142 -215.05)">
   <path d="m0 0v-0.077c0-0.359 0.23-0.473 0.446-0.473 0.268 0 0.474 0.114 0.474 0.43 0 0.584-1.191 0.521-1.191 1.316 0 0.47 0.336 0.721 0.779 0.721 0.484 0 0.755-0.235 0.733-0.775h-0.349c2e-3 0.291-0.092 0.481-0.41 0.481-0.202 0-0.408-0.104-0.408-0.391 0-0.582 1.189-0.497 1.189-1.338 0-0.557-0.383-0.737-0.822-0.737-0.781-8e-3 -0.781 0.59-0.774 0.843h0.333" fill="#7b7979"/>
  </g>
  <path d="m79.337-207.74h-2.7076v-21.253h2.7076z" fill="#7b7979"/>
  <g transform="matrix(9.2726 0 0 -9.2726 87.119 -219.87)">
   <path d="m0 0h0.436c0.211 0 0.312 0.18 0.312 0.382 0 0.163-0.084 0.346-0.305 0.346h-0.443zm0-0.255v-1.053h-0.292v2.292h0.79c0.408 0 0.549-0.286 0.549-0.572 0-0.27-0.148-0.477-0.419-0.523v-8e-3c0.263-0.042 0.359-0.128 0.374-0.59 2e-3 -0.096 0.036-0.458 0.081-0.599h-0.307c-0.081 0.159-0.059 0.459-0.088 0.761-0.024 0.28-0.245 0.292-0.348 0.292z" fill="#7b7979"/>
  </g>
  <path d="m103.9-207.74h-2.7076v-21.253h2.7076z" fill="#7b7979"/>
  <g transform="matrix(9.2726 0 0 -9.2726 108.94 -228.99)">
   <path d="m0 0h0.287v-1.469c0-0.498 0.156-0.627 0.432-0.627 0.275 0 0.429 0.129 0.429 0.627v1.469h0.287v-1.454c0-0.636-0.232-0.886-0.716-0.886-0.487 0-0.719 0.25-0.719 0.886z" fill="#7b7979"/>
  </g>
  <g transform="matrix(9.2726 0 0 -9.2726 129.07 -214.07)">
   <path d="m0 0v-0.067c0-0.311 0.199-0.409 0.386-0.409 0.23 0 0.41 0.098 0.41 0.37 0 0.508-1.031 0.451-1.031 1.141 0 0.405 0.29 0.622 0.674 0.622 0.419 0 0.651-0.205 0.632-0.671h-0.302c3e-3 0.252-0.079 0.416-0.354 0.416-0.173 0-0.35-0.087-0.35-0.336 0-0.506 1.025-0.433 1.025-1.16 0-0.48-0.333-0.637-0.707-0.637-0.68-6e-3 -0.68 0.511-0.673 0.731z" fill="#7b7979"/>
  </g>
  <g transform="matrix(9.2726 0 0 -9.2726 159.47 -207.74)">
   <path d="m0 0h-0.405l-0.618 1.134-0.585-1.134h-0.367l0.762 1.373-0.721 1.278h0.388l0.544-1.029 0.551 1.029h0.37l-0.712-1.278z" fill="#7b7979"/>
  </g>
  <g transform="matrix(9.2726 0 0 -9.2726 165.6 -207.74)">
   <path d="m0 0h-0.316v2.651h0.546l0.669-2.225h7e-3l0.676 2.225h0.558v-2.651h-0.34v2.356h-5e-3l-0.743-2.356h-0.319l-0.726 2.356h-7e-3z" fill="#7b7979"/>
  </g>
  <g transform="matrix(9.2726 0 0 -9.2726 64.674 -42.414)">
   <path d="m0 0h0.367c0.323 0 0.417 0.325 0.417 0.575 0 0.372-0.156 0.516-0.417 0.516h-0.367zm0-2.229h-0.815v3.922h1.51c0.563 0 0.92-0.359 0.92-1.026 0-0.5-0.196-0.874-0.726-0.961v-0.01c0.178-0.022 0.71-0.066 0.71-0.773 0-0.249 0.016-0.986 0.093-1.152h-0.803c-0.11 0.239-0.088 0.508-0.088 0.761 0 0.468 0.043 0.865-0.585 0.865h-0.216z" fill="#7b7979"/>
  </g>
  <g transform="matrix(9.2726 0 0 -9.2726 97.096 -51.114)">
   <path d="m0 0h-7e-3l-0.376-1.693h0.781zm-1.577-3.167 1.086 3.922h1.078l1.067-3.922h-0.863l-0.218 0.871h-1.122l-0.218-0.871z" fill="#7b7979"/>
  </g>
  <g transform="matrix(9.2726 0 0 -9.2726 123.74 -27.342)">
   <path d="m0 0h0.4c0.496 0 0.597 0.377 0.597 1.358 0 0.723 0 1.358-0.57 1.358h-0.427zm-0.817 3.319h1.366c1.078 0 1.28-0.719 1.28-1.939 0-0.601 0.091-1.983-1.314-1.983h-1.332z" fill="#7b7979"/>
  </g>
  <path d="m146.77-58.113h7.6036v36.367h-7.6036z" fill="#7b7979"/>
  <g transform="matrix(9.2726 0 0 -9.2726 177.78 -39.931)">
   <path d="m0 0c0 1.005-0.062 1.44-0.522 1.44s-0.523-0.435-0.523-1.44c0-1.004 0.063-1.437 0.523-1.437s0.522 0.433 0.522 1.437m-1.874 0c0 1.038 0 2.025 1.352 2.025 1.354 0 1.354-0.987 1.354-2.025 0-1.025 0-2.024-1.354-2.024-1.352 0-1.352 0.999-1.352 2.024" fill="#7b7979"/>
  </g>
 </g>
</svg>
