<svg width="800" height="366.58" version="1.1" viewBox="0 0 211.67 96.991" xmlns="http://www.w3.org/2000/svg">
 <g transform="translate(-37.286 115.6)">
  <g transform="matrix(7.3582 0 0 -7.3582 142.75 -54.238)">
   <path d="m0 0c2.321 0 4.667-0.302 6.679-0.832 2.028-0.53 1.431-0.339 1.71-0.554l-0.02-3.017c-3.702 0.866-8.664 2.479-17.134-0.051 0 0-0.013 2.69-5e-3 2.806v0.088c0.1 0.164-0.045 0.198 1.983 0.728 2.018 0.53 4.358 0.832 6.684 0.832h0.103" fill="#a21217" stroke="#a21217" stroke-width=".579"/>
  </g>
  <g transform="matrix(7.3582 0 0 -7.3582 142.75 -54.238)">
   <path d="m0 0c2.321 0 4.667-0.302 6.679-0.832 2.028-0.53 1.431-0.339 1.71-0.554l-0.02-3.017c-3.702 0.866-8.664 2.479-17.134-0.051 0 0-0.013 2.69-5e-3 2.806v0.088c0.1 0.164-0.045 0.198 1.983 0.728 2.018 0.53 4.358 0.832 6.684 0.832h0.103" fill="#042644"/>
  </g>
  <g transform="matrix(7.3582 0 0 -7.3582 91.57 -39.238)">
   <path d="m0 0c-3e-3 -0.125 0-0.25-3e-3 -0.374l0.098 0.029c0.132 0.034 0.218 0.062 0.265 0.078l0.123 0.093 0.053 0.132-0.049 0.11-0.133 0.023c-0.046-9e-3 -0.139-0.029-0.274-0.067l-0.08-0.024m0.183-1.486c-0.414-0.108-0.829-0.229-1.246-0.356-6e-3 0.155-6e-3 0.305-0.016 0.463l0.197 0.058c-0.012 0.336-0.012 0.675-0.012 1.014l-0.19-0.061c0 0.155 0 0.309 2e-3 0.465 0.425 0.137 0.845 0.266 1.258 0.383 0.113 0.031 0.217 0.06 0.311 0.082 0.093 0.021 0.174 0.037 0.242 0.05l0.185 0.021c0.157 0.013 0.286-0.02 0.381-0.098 0.099-0.076 0.146-0.184 0.146-0.321 0-0.103-0.036-0.204-0.091-0.302-0.062-0.095-0.14-0.176-0.238-0.235 0.105-0.13 0.209-0.258 0.31-0.384l0.163 0.032c1e-3 -0.158 1e-3 -0.316 1e-3 -0.476-0.263-0.056-0.533-0.117-0.806-0.185-0.166 0.231-0.334 0.458-0.502 0.681-0.091-0.026-0.186-0.052-0.278-0.077 0-0.109 0-0.219 4e-3 -0.331l0.172 0.048c2e-3 -0.159 2e-3 -0.316 7e-3 -0.471" fill="#fff"/>
  </g>
  <g transform="matrix(7.3582 0 0 -7.3582 118.52 -44.49)">
   <path d="m0 0c-0.071-0.193-0.136-0.39-0.207-0.587 0.131 0.022 0.263 0.038 0.392 0.053-0.062 0.179-0.121 0.36-0.185 0.534m-0.201-1.533c-0.29-0.041-0.583-0.087-0.87-0.135-3e-3 0.159-3e-3 0.316-6e-3 0.478l0.171 0.032c0.136 0.37 0.271 0.743 0.412 1.114l-0.176-0.027c0 0.16 4e-3 0.32 6e-3 0.479 0.526 0.09 1.047 0.16 1.565 0.213-4e-3 -0.161-4e-3 -0.324-4e-3 -0.484l-0.176-0.017c0.137-0.336 0.277-0.678 0.418-1.018l0.158 0.012c2e-3 -0.16 2e-3 -0.322 2e-3 -0.485-0.379-0.03-0.756-0.067-1.133-0.115-1e-3 0.148-1e-3 0.296-1e-3 0.446l0.192 0.023-0.086 0.244c-0.185-0.023-0.373-0.049-0.562-0.076l-0.098-0.267 0.184 0.027c2e-3 -0.15 2e-3 -0.296 4e-3 -0.444" fill="#fff"/>
  </g>
  <g transform="matrix(7.3582 0 0 -7.3582 143.42 -46.297)">
   <path d="m0 0c3e-3 -0.354 5e-3 -0.706 5e-3 -1.06l0.08-1e-3c0.196-3e-3 0.323 0.043 0.383 0.14 0.056 0.096 0.086 0.216 0.084 0.368l-0.039 0.265-0.14 0.209c-0.065 0.049-0.178 0.077-0.34 0.077l-0.033 2e-3m5e-3 -1.546c-0.332 4e-3 -0.666 0-1.002-0.011 0 0.163-1e-3 0.325 0 0.487l0.17 4e-3c-6e-3 0.355-6e-3 0.706-6e-3 1.06l-0.17-3e-3v0.483c0.346 0.015 0.688 0.02 1.03 0.015 0.232-6e-3 0.426-0.024 0.576-0.057 0.151-0.034 0.291-0.099 0.422-0.194 0.133-0.092 0.238-0.215 0.312-0.364l0.091-0.234 0.029-0.25c4e-3 -0.177-0.039-0.337-0.112-0.474-0.08-0.139-0.179-0.243-0.303-0.315-0.117-0.07-0.247-0.113-0.386-0.129-0.141-0.018-0.354-0.021-0.651-0.018" fill="#fff"/>
  </g>
  <g transform="matrix(7.3582 0 0 -7.3582 171.97 -32.256)">
   <path d="m0 0c-0.42 0.072-0.833 0.132-1.251 0.184v0.483l0.201-0.024c0 0.348-5e-3 0.702-9e-3 1.053l-0.203 0.025c0 0.164 0 0.323-8e-3 0.483 0.415-0.053 0.833-0.121 1.25-0.197 4e-3 -0.16 4e-3 -0.317 6e-3 -0.481l-0.198 0.036c4e-3 -0.348 0.01-0.697 0.012-1.047l0.2-0.034c-3e-3 -0.163 0-0.322 0-0.481" fill="#fff"/>
  </g>
  <g transform="matrix(7.3582 0 0 -7.3582 187.97 -36.13)">
   <path d="m0 0c0-0.22 0.023-0.373 0.074-0.464 0.045-0.089 0.119-0.145 0.219-0.172 0.101-0.029 0.175-0.012 0.223 0.049 0.052 0.063 0.075 0.203 0.073 0.427 0 0.213-0.027 0.367-0.074 0.459-0.047 0.09-0.127 0.149-0.227 0.178-0.099 0.029-0.175 0.013-0.222-0.048-0.048-0.064-0.066-0.204-0.066-0.429m-0.98 0.239c-3e-3 0.167 0.043 0.318 0.132 0.453 0.086 0.132 0.224 0.228 0.414 0.286l0.209 0.031 0.232-0.013c0.086-0.01 0.174-0.029 0.27-0.057 0.412-0.115 0.736-0.319 0.968-0.595 0.114-0.137 0.2-0.274 0.262-0.41 0.058-0.136 0.088-0.269 0.088-0.4 0-0.271-0.121-0.466-0.36-0.597-0.234-0.13-0.55-0.142-0.944-0.035-0.381 0.098-0.683 0.269-0.92 0.515-0.236 0.246-0.351 0.519-0.351 0.822" fill="#fff"/>
  </g>
  <g transform="matrix(7.3582 0 0 -7.3582 248.61 -64.769)">
   <path d="m0 0-0.037 0.214v3.841l-1.066 6e-3 -0.952 6e-3 -1.066 2e-3c-0.717 5e-3 -1.436 9e-3 -2.155 0.012l-0.497 2e-3 -0.206 0.018c-0.548 1e-3 -0.817 3e-3 -1.349 3e-3l-1.068 2e-3v-0.014l-0.316 2e-3h-6e-3c-0.177 0-0.354-0.039-0.516-0.11-0.154 0.065-0.318 0.099-0.488 0.099h-0.016l-0.452-5e-3v0.019l-1.073 4e-3c-0.409 0-0.612 0-1.021 1e-3 -0.147 0-0.293-0.024-0.433-0.073v0.073h-1.073l-0.127 2e-3h-1.354v-2e-3h-1.386l-0.047-1e-3v1e-3l-0.959-5e-3h-0.326l-1.067-2e-3h-0.185l-0.413-1e-3h-0.463l-0.933-4e-3 -0.607-2e-3v0.016l-0.845-3e-3h-0.088l-0.754-4e-3 -1.071-3e-3v-0.016l-0.188-2e-3v0.018l-1.072-4e-3c-0.662-4e-3 -1.317-7e-3 -1.98-9e-3l-1.064-3e-3v-3.927l0.182 0.022v-1.035l-0.182-0.052v-4.023l1.445 0.544c0.485 0.178 0.712 0.261 1.171 0.427l0.35 0.123 0.345 0.12c0.377 0.13 0.556 0.189 0.909 0.308l0.203 0.067 0.203 0.063c0.348 0.115 0.516 0.166 0.854 0.271l0.135 0.042 0.103 0.028c0.346 0.106 0.516 0.155 0.856 0.248l0.776 0.217c0.095 0.023 0.19 0.042 0.311 0.071l0.841 0.191v0.011c0.375 0.083 0.561 0.123 0.934 0.195l0.19 0.036 0.203 0.038c0.307 0.057 0.453 0.08 0.756 0.128l0.171 0.026 0.169 0.023c0.295 0.045 0.439 0.061 0.726 0.096l0.082 6e-3 0.088 0.01c0.424 0.044 0.628 0.063 1.044 0.09l0.154 0.021 0.682 0.018c0.269 9e-3 0.425 0.013 0.623 0.013 0.076 0 0.154-3e-3 0.246-3e-3l0.711-5e-3 0.707-0.048c0.418-0.027 0.625-0.044 1.043-0.093l0.092-6e-3 0.432-0.054c0.36-0.05 0.537-0.076 0.903-0.134l1.064-0.176 0.211-0.061c0.311-0.067 0.465-0.102 0.789-0.177l0.09-0.018 0.502-0.127c0.339-0.08 0.505-0.125 0.846-0.221l0.372-0.1 0.062-0.021c0.256-0.071 0.383-0.108 0.643-0.187l0.295-0.087 0.312-0.099c0.42-0.131 0.627-0.198 1.061-0.34l0.388-0.132 0.415-0.145c0.523-0.183 0.79-0.275 1.346-0.483 0.14-0.05 0.286-0.076 0.434-0.076 0.286 0 0.557 0.097 0.788 0.28 0.187 0.154 0.34 0.356 0.456 0.611 0.078 0.177 0.139 0.38 0.18 0.601 0.037 0.2 0.054 0.414 0.054 0.636v1.562c0 0.204-0.013 0.409-0.047 0.609" fill="#a21217"/>
  </g>
  <g transform="matrix(7.3582 0 0 -7.3582 188.79 -93.009)">
   <path d="m0 0v-0.013h-0.588c-0.177 0-0.354-0.049-0.515-0.139-0.153 0.083-0.319 0.127-0.489 0.131h-0.013l-0.726-0.011v0.025h-1.823c-0.208 0-0.414-0.059-0.593-0.176l-0.108-0.08v0.26h-2.069l-0.57-2e-3h-0.619c-0.087-2e-3 -0.174-2e-3 -0.277-2e-3h-0.137c-0.096 0-0.191-0.012-0.286-0.037l-3e-3 0.037h-1.307l-0.803-4e-3h-0.19l-0.161-2e-3h-0.976l-0.667-2e-3 -0.741-4e-3h-0.072l-7e-3 0.016-0.632-4e-3h-0.839l-0.808-6e-3v-0.016c-0.285-3e-3 -0.485-3e-3 -0.724-3e-3v0.019l-0.802-2e-3c-0.66-4e-3 -1.317-6e-3 -1.975-0.01l-0.801-4e-3v-3.362l0.18 0.018v-1.53l-0.18-0.051v-3.433l1.086 0.405c0.485 0.18 0.712 0.266 1.169 0.429l0.357 0.125 0.346 0.12c0.378 0.131 0.553 0.192 0.908 0.308l0.212 0.07 0.198 0.064c0.35 0.114 0.516 0.164 0.858 0.27l0.135 0.041 0.1 0.031c0.353 0.105 0.521 0.154 0.866 0.25l0.591 0.164v9e-3c0.18 0.043 0.3 0.069 0.51 0.119l0.629 0.14v0.011l0.207 0.047c0.387 0.086 0.569 0.126 0.943 0.198l0.194 0.039 0.203 0.039c0.308 0.053 0.456 0.081 0.76 0.124l0.18 0.027 0.169 0.025c0.297 0.043 0.436 0.061 0.731 0.094l0.078 9e-3 0.095 0.011c0.427 0.047 0.632 0.065 1.052 0.092l0.146 0.018 0.705 0.02c0.27 7e-3 0.428 0.012 0.628 0.012l0.246-4e-3 0.72-1e-3 0.718-0.052c0.422-0.027 0.629-0.045 1.054-0.093l0.083-5e-3 0.447-0.058c0.362-0.046 0.539-0.073 0.909-0.136l0.937-0.151s0.223-0.061 0.35-0.086c0.312-0.066 0.467-0.101 0.793-0.18l0.085-0.01 0.513-0.13c0.342-0.086 0.511-0.132 0.854-0.226l0.381-0.103 0.054-0.015c0.256-0.076 0.385-0.114 0.647-0.19l0.291-0.089 0.32-0.1c0.422-0.131 0.63-0.198 1.059-0.342l0.401-0.134 0.412-0.145c0.524-0.181 0.789-0.274 1.346-0.482 0.113-0.041 0.228-0.059 0.344-0.059 0.223 0 0.439 0.075 0.62 0.219 0.155 0.125 0.281 0.298 0.379 0.511 0.07 0.157 0.124 0.339 0.158 0.541 0.037 0.183 0.052 0.38 0.052 0.587v1.562c0 0.191-0.013 0.385-0.042 0.569l-0.039 0.226v3.603l-0.801 4e-3 -1.011 5e-3h-0.204l-0.802 4e-3c-0.721 4e-3 -1.438 7e-3 -2.156 0.011l-0.521 4e-3 -0.181 0.014c-0.549 2e-3 -0.817 4e-3 -1.349 7e-3z" fill="#042644"/>
  </g>
  <g transform="matrix(7.3582 0 0 -7.3582 111.75 -109.66)">
   <path d="m0 0-0.08 0.147c-0.053 0.035-0.129 0.049-0.223 0.049h-0.232v-0.398h0.188c0.232 0 0.347 0.068 0.347 0.202m0.826-0.937v-0.289h-0.644l-0.479 0.75h-0.238v-0.461h0.261v-0.289h-1.107v0.289h0.293v1.133h-0.293v0.292h1.28c0.237 0 0.411-0.049 0.517-0.146 0.108-0.1 0.159-0.21 0.159-0.335 0-0.194-0.124-0.336-0.366-0.426l0.346-0.518zm11.562 1.722h-1.274l-0.545-1.174-0.546 1.174h-1.245v-0.337h0.324v-1.331h-0.324v-0.339h1.048v0.339h-0.322v1.331h0.056l0.78-1.67h0.267l0.771 1.67h0.058v-1.331h-0.302v-0.339h1.254v0.339h-0.324v1.331h0.324zm-3.703-1.668h-0.355l-0.653 0.671 0.588 0.66h0.347v0.337h-1.124v-0.337h0.229l-0.317-0.353-0.344 0.353h0.233v0.337h-1.299v-0.337h0.344l0.605-0.639-0.605-0.692h-0.368v-0.339h1.153v0.339h-0.254l0.359 0.398 0.372-0.398h-0.249v-0.339h1.338zm-2.874 0.148c0 0.093-0.024 0.178-0.073 0.252l-0.195 0.177c-0.087 0.044-0.206 0.095-0.363 0.151-0.161 0.059-0.261 0.103-0.293 0.135l-0.052 0.101 0.06 0.098 0.151 0.043 0.2-0.069 0.103-0.187h0.361v0.522h-0.361v-0.144c-0.092 0.108-0.219 0.16-0.389 0.16-0.146 0-0.28-0.039-0.398-0.12-0.115-0.085-0.173-0.2-0.173-0.352 0-0.12 0.045-0.223 0.134-0.294 0.086-0.073 0.25-0.16 0.498-0.254 0.113-0.045 0.197-0.086 0.242-0.122l0.063-0.132-0.069-0.129-0.162-0.053-0.225 0.074c-0.063 0.051-0.099 0.13-0.102 0.236h-0.36v-0.584h0.36v0.148c0.099-0.113 0.249-0.167 0.429-0.167 0.168 0 0.312 0.039 0.434 0.126 0.122 0.086 0.18 0.213 0.18 0.384m-1.597 1.223h-0.844v-0.292h0.209v-0.751c0-0.126-0.011-0.215-0.022-0.256l-0.092-0.103-0.182-0.043-0.173 0.045-0.081 0.113c-0.015 0.044-0.019 0.121-0.019 0.224v0.771h0.209v0.292h-1.009v-0.292h0.249v-0.771c0-0.144 8e-3 -0.242 0.023-0.299l0.103-0.178c0.054-0.059 0.135-0.106 0.242-0.141 0.114-0.036 0.25-0.052 0.403-0.052 0.136 0 0.254 0.013 0.361 0.047 0.102 0.032 0.183 0.075 0.236 0.126l0.106 0.158c0.016 0.053 0.023 0.138 0.023 0.254v0.856h0.258zm-2.124 0h-1.202v-0.292h0.317v-1.133h-0.317v-0.289h1.202v0.289h-0.326v1.133h0.326zm-3.609 0h-1.196v-0.292h0.324v-1.133h-0.324v-0.289h1.196v0.289h-0.321v1.133h0.321zm-1.61-1.583c-0.144-0.103-0.312-0.15-0.508-0.15-0.217 0-0.385 0.063-0.504 0.193v-0.17h-0.42v0.686h0.42c1e-3 -0.127 0.048-0.217 0.12-0.277 0.079-0.059 0.167-0.09 0.261-0.09l0.196 0.063 0.077 0.152-0.076 0.155c-0.054 0.042-0.147 0.092-0.284 0.144-0.29 0.113-0.478 0.209-0.581 0.299-0.102 0.083-0.155 0.198-0.155 0.344 0 0.175 0.069 0.313 0.204 0.41 0.134 0.094 0.29 0.143 0.461 0.143 0.197 0 0.354-0.061 0.459-0.185v0.163h0.42v-0.607h-0.42c-0.012 0.092-0.051 0.166-0.12 0.218l-0.234 0.077-0.177-0.048-0.069-0.114 0.058-0.119c0.039-0.034 0.154-0.091 0.344-0.156 0.184-0.065 0.323-0.126 0.42-0.18 0.1-0.054 0.178-0.125 0.239-0.208 0.052-0.084 0.083-0.184 0.083-0.294 0-0.199-0.074-0.349-0.214-0.449" fill="#a21217"/>
  </g>
  <g transform="matrix(7.3582 0 0 -7.3582 193.33 -90.019)">
   <path d="m0 0v-0.308c-2e-3 -0.498-4e-3 -0.741-4e-3 -1.195v-0.235l0.142-0.024c0-0.538 0-1.073-2e-3 -1.61l-6e-3 -0.067-0.14 0.015-2e-3 -0.305v-0.637l-2e-3 -0.567v-0.214l0.205-0.056c0.348-0.09 0.52-0.137 0.876-0.239l0.356-0.101v0.01l0.091-0.037c0.263-0.08 0.394-0.119 0.664-0.206l0.358-0.112 2e-3 0.378 3e-3 1.071v0.49l-0.162 0.056-9e-3 0.354c-5e-3 0.19-0.029 0.357-0.063 0.496l-0.096 0.208 0.08 0.155c0.05 0.132 0.076 0.286 0.084 0.47v5e-3c8e-3 0.309 0.012 0.465 0.021 0.79v0.044c0 0.163-0.017 0.317-0.045 0.465-0.027 0.15-0.074 0.286-0.122 0.405-0.059 0.13-0.124 0.236-0.206 0.319-0.135 0.147-0.285 0.175-0.381 0.175-0.555 2e-3 -0.828 4e-3 -1.366 4e-3zm1.36-2.223c4e-3 0.237 4e-3 0.353 5e-3 0.595l-0.213 0.018c-2e-3 -0.239-2e-3 -0.355-2e-3 -0.586l0.21-0.027m-1.084 1.943c0.538-2e-3 0.811-3e-3 1.366-3e-3l0.182-0.09c0.056-0.062 0.105-0.142 0.151-0.241 0.044-0.099 0.079-0.216 0.103-0.345 0.027-0.131 0.036-0.267 0.033-0.412v-0.041c-3e-3 -0.322-6e-3 -0.478-0.014-0.787-5e-3 -0.155-0.027-0.28-0.067-0.38-0.036-0.102-0.134-0.219-0.134-0.245-4e-3 -0.036 0.106-0.18 0.142-0.297 0.032-0.114 0.054-0.257 0.057-0.421 2e-3 -0.22 7e-3 -0.329 0.01-0.556l0.158-0.053c-2e-3 -0.518-2e-3 -0.785-3e-3 -1.359-0.268 0.085-0.407 0.127-0.668 0.204l-0.103 0.089-0.073 0.173-0.043 0.211-0.013 0.216c5e-3 0.543 5e-3 0.795 5e-3 1.296l-0.215 0.038c0-0.715-2e-3 -1.072-4e-3 -1.891-0.359 0.101-0.533 0.148-0.883 0.241 2e-3 0.512 2e-3 0.746 4e-3 1.2l0.145-0.011c0 0.738 6e-3 1.476 8e-3 2.217l-0.147 0.024c0 0.463 3e-3 0.702 3e-3 1.223" fill="#a21217"/>
  </g>
  <g transform="matrix(7.3582 0 0 -7.3582 142.62 -89.998)">
   <path d="m0 0h-1.047l-0.276-2e-3 2e-3 -0.278c0-0.421 0-0.61 2e-3 -0.977l2e-3 -0.279 0.246 2e-3c0.067-0.226 0.119-0.399 0.174-0.593 0.025-0.098 0.059-0.203 0.094-0.322v-0.254l-0.131-2e-3v-0.273l2e-3 -0.841v-0.425l0.287 8e-3c0.28 8e-3 0.443 0.011 0.654 0.011h0.253l0.283-3e-3 -2e-3 0.282c0 0.422 0 0.611-2e-3 0.978v0.274l-0.131 1e-3v0.287c0.033 0.109 0.062 0.205 0.09 0.296 0.058 0.191 0.107 0.351 0.172 0.568l0.231-6e-3 -2e-3 0.281v1.267h-0.458zm0-0.279h0.621c2e-3 -0.427 2e-3 -0.617 2e-3 -0.988l-0.16 2e-3c-0.135-0.457-0.201-0.666-0.33-1.099 0-0.236 3e-3 -0.358 3e-3 -0.604l0.126-2e-3c0-0.365 3e-3 -0.554 3e-3 -0.976h-0.256c-0.222 0-0.392-4e-3 -0.662-0.011 0 0.421 0 0.611-2e-3 0.98l0.131 3e-3c-2e-3 0.232-2e-3 0.344-2e-3 0.565-0.134 0.458-0.201 0.677-0.334 1.155h-0.183c0 0.364 0 0.553-4e-3 0.975h0.652c0.074-0.402 0.115-0.582 0.189-0.93 0.087 0.348 0.126 0.532 0.206 0.93" fill="#a21217"/>
  </g>
  <g transform="matrix(7.3582 0 0 -7.3582 135.41 -89.998)">
   <path d="m0 0-0.277-2e-3h-1.026c-0.111 0-0.218-0.036-0.316-0.102-0.081-0.058-0.155-0.137-0.215-0.233-0.052-0.089-0.093-0.191-0.123-0.303-0.028-0.113-0.043-0.234-0.043-0.364l6e-3 -0.685v-0.142c0-0.117 0.012-0.23 0.037-0.338 0.024-0.112 0.059-0.211 0.104-0.3l-0.1-7e-3 2e-3 -0.259c5e-3 -0.51 7e-3 -0.764 9e-3 -1.367l3e-3 -0.31 0.302 0.037c0.446 0.047 0.661 0.064 1.094 0.098 0.079 6e-3 0.202 0.035 0.317 0.15 0.066 0.064 0.126 0.148 0.172 0.247 0.042 0.092 0.078 0.191 0.101 0.301 0.022 0.107 0.036 0.219 0.036 0.327l-4e-3 0.682v0.211c-3e-3 0.107-0.013 0.211-0.037 0.312l-0.065 0.216 0.033 2e-3v0.274c-6e-3 0.472-7e-3 0.714-7e-3 1.278zm-0.277-0.279c4e-3 -0.562 4e-3 -0.804 4e-3 -1.28-0.236-3e-3 -0.349-7e-3 -0.588-0.011-2e-3 0.118-4e-3 0.18-4e-3 0.302l-0.189-5e-3c0-0.179 0-0.265 2e-3 -0.437 0.193 7e-3 0.291 7e-3 0.486 0.015h7e-3l0.14-0.052 0.114-0.146 0.073-0.213 0.031-0.253c0-0.344 4e-3 -0.517 4e-3 -0.893 0-0.094-0.01-0.182-0.027-0.27l-0.081-0.237-0.12-0.171-0.134-0.072c-0.441-0.029-0.663-0.048-1.105-0.099-4e-3 0.602-5e-3 0.856-7e-3 1.366 0.257 0.02 0.383 0.026 0.638 0.041 0-0.13 4e-3 -0.196 4e-3 -0.331l0.177 0.01c-5e-3 0.197-5e-3 0.291-7e-3 0.478-0.18-6e-3 -0.273-0.013-0.46-0.022h-9e-3l-0.15 0.053-0.123 0.16-0.088 0.236c-0.018 0.09-0.029 0.184-0.029 0.281-4e-3 0.319-4e-3 0.483-4e-3 0.828 0 0.105 0.011 0.201 0.031 0.29l0.098 0.228 0.132 0.152 0.158 0.051c0.411 0 0.617 0 1.026 1e-3" fill="#a21217"/>
  </g>
  <g transform="matrix(7.3582 0 0 -7.3582 158.44 -89.984)">
   <path d="m0 0h-4e-3c-0.111 0-0.215-0.032-0.311-0.1-0.084-0.057-0.155-0.134-0.217-0.229-0.052-0.087-0.093-0.184-0.123-0.294-0.031-0.109-0.041-0.23-0.041-0.357v-0.804c0-0.116 8e-3 -0.229 0.034-0.337 0.019-0.097 0.049-0.183 0.085-0.263l-0.083 3e-3v-1.882l0.261-0.018c0.434-0.031 0.649-0.052 1.089-0.103l0.053-2e-3c0.108 0 0.21 0.04 0.296 0.111 0.075 0.062 0.139 0.144 0.19 0.246 0.046 0.087 0.079 0.187 0.107 0.3 0.021 0.106 0.036 0.219 0.036 0.338v0.935c0 0.107-0.012 0.214-0.032 0.32l-0.068 0.236h0.035v0.29l1e-3 0.763v0.845h-0.277c-0.417 0-0.622 2e-3 -1.031 2e-3m0-0.278h1.031v-1.332c-0.242 8e-3 -0.359 0.013-0.602 0.023v0.306l-0.191 3e-3v-0.437c0.199-7e-3 0.29-9e-3 0.491-0.02l0.148-0.065 0.118-0.161 0.076-0.23c0.017-0.088 0.024-0.175 0.024-0.265-5e-3 -0.363-5e-3 -0.546-5e-3 -0.935 0-0.098-4e-3 -0.191-0.026-0.28l-0.082-0.232-0.118-0.157-0.121-0.047h-0.022c-0.444 0.051-0.665 0.073-1.1 0.103-3e-3 0.588-3e-3 0.836-3e-3 1.332 0.254-0.011 0.378-0.019 0.632-0.035v-0.333l0.179-0.012v0.484c-0.183 0.013-0.279 0.019-0.459 0.027l-0.158 0.071-0.125 0.171-0.08 0.238c-0.02 0.088-0.035 0.181-0.035 0.274v0.807c0 0.102 0.015 0.194 0.041 0.281l0.092 0.224 0.138 0.146 0.153 0.051h4e-3" fill="#a21217"/>
  </g>
  <g transform="matrix(7.3582 0 0 -7.3582 83.867 -89.984)">
   <path d="m0 0-0.223-2e-3c-0.337 0-0.505 0-0.851-1e-3h-0.276l2e-3 -0.28c2e-3 -0.556 2e-3 -0.827 6e-3 -1.306v-0.372l0.167 0.015 0.011-1.937-0.166-0.038 2e-3 -0.222c0-0.522 2e-3 -0.79 7e-3 -1.37l2e-3 -0.376 0.356 0.111c0.364 0.115 0.537 0.168 0.889 0.268l0.201 0.062v0.023l0.266 0.067c0.275 0.068 0.404 0.101 0.67 0.165l0.213 0.051v0.221c-3e-3 0.786-7e-3 1.576-0.014 2.364l-4e-3 0.811 0.143 0.024v0.264c-5e-3 0.436-7e-3 0.671-8e-3 1.17l-4e-3 0.278h-0.275l-0.858-6e-3h-0.252zm-0.22-0.278c0.198-0.841 0.295-1.194 0.494-1.888-6e-3 0.71-0.011 1.061-0.014 1.874 0.345 1e-3 0.516 1e-3 0.854 4e-3 3e-3 -0.513 6e-3 -0.746 8e-3 -1.198l-0.144-0.023c7e-3 -1.141 0.012-2.276 0.024-3.414-0.271-0.064-0.404-0.099-0.678-0.168-0.193 0.77-0.294 1.11-0.488 1.813 5e-3 -0.743 0.01-1.111 0.012-1.965-0.354-0.102-0.532-0.153-0.895-0.269 0 0.579-3e-3 0.847-3e-3 1.369l0.168 0.038c-7e-3 0.822-0.01 1.64-0.013 2.46l-0.17-0.013c-2e-3 0.527-2e-3 0.792-6e-3 1.377 0.345 3e-3 0.513 3e-3 0.851 3e-3" fill="#a21217"/>
  </g>
  <g transform="matrix(7.3582 0 0 -7.3582 120.15 -89.969)">
   <path d="m0 0h-0.253c-0.395 0-0.599-1e-3 -0.994-1e-3h-0.277l-0.023-0.257c-0.067-0.802-0.139-1.619-0.213-2.409l-0.031-0.385-0.184-0.025 2e-3 -0.243c4e-3 -0.413 6e-3 -0.626 7e-3 -1.096l2e-3 -0.333 0.329 0.061c0.319 0.063 0.47 0.09 0.783 0.141l0.184 0.026 0.173 0.028c0.306 0.046 0.456 0.067 0.76 0.099l0.246 0.03v0.249c-5e-3 0.445-8e-3 0.644-0.011 1.034v0.299l-0.178-0.014-0.021 0.165c-0.093 0.781-0.188 1.589-0.276 2.382zm-0.79-2.428 0.117 0.01c-0.023 0.269-0.039 0.4-0.063 0.672-0.022-0.273-0.032-0.411-0.054-0.682m0.537 2.152c0.103-0.942 0.217-1.882 0.329-2.821l0.148 0.014c2e-3 -0.388 4e-3 -0.589 6e-3 -1.036-0.303-0.033-0.459-0.056-0.762-0.099-0.027 0.406-0.035 0.591-0.066 0.948-0.092-0.01-0.141-0.016-0.239-0.029-0.021-0.366-0.033-0.557-0.058-0.974-0.313-0.051-0.473-0.08-0.791-0.141-2e-3 0.472-4e-3 0.683-9e-3 1.095l0.159 0.023c0.092 1.004 0.182 2.01 0.268 3.017 0.41 0 0.611 3e-3 1.015 3e-3" fill="#a21217"/>
  </g>
  <g transform="matrix(7.3582 0 0 -7.3582 109.99 -89.962)">
   <path d="m0 0h-0.28c-0.65-4e-3 -1.303-7e-3 -1.955-7e-3h-0.281l2e-3 -0.281c3e-3 -0.784 8e-3 -1.132 0.011-1.786v-0.067l4e-3 -0.305 0.304 0.033c0.134 0.014 0.231 0.021 0.334 0.035v-0.1c2e-3 -0.27 2e-3 -0.539 4e-3 -0.807l-0.125-0.023v-0.233c1e-3 -0.443 5e-3 -0.671 7e-3 -1.17l2e-3 -0.348 0.34 0.08c0.396 0.092 0.586 0.133 0.967 0.213l0.222 0.047v0.224c0 0.48 0 0.696-8e-3 1.118v0.32l-0.136-0.019-6e-3 0.798c0.111 8e-3 0.205 0.018 0.353 0.029l0.254 0.02-2e-3 0.257c-1e-3 0.635-8e-3 0.945-0.011 1.694zm-0.278-0.281c4e-3 -0.746 4e-3 -1.06 9e-3 -1.691-0.213-0.018-0.319-0.026-0.536-0.045 0 0.245-6e-3 0.372-6e-3 0.625l-0.068-7e-3c8e-3 -0.664 9e-3 -1.331 0.013-2.002l0.134 0.023c7e-3 -0.425 7e-3 -0.64 9e-3 -1.117-0.386-0.079-0.578-0.122-0.973-0.216-4e-3 0.501-4e-3 0.729-0.01 1.172l0.13 0.022c-7e-3 0.691-0.013 1.387-0.018 2.081l-0.073-7e-3c0-0.26 0-0.386 4e-3 -0.64-0.224-0.02-0.334-0.031-0.562-0.053 0 0.696-6e-3 1.042-9e-3 1.851 0.651 4e-3 1.304 4e-3 1.956 4e-3" fill="#a21217"/>
  </g>
  <g transform="matrix(7.3582 0 0 -7.3582 185.01 -89.933)">
   <path d="m0 0c-0.105 0-0.21-0.036-0.308-0.107-0.08-0.058-0.151-0.138-0.21-0.237-0.052-0.086-0.095-0.186-0.129-0.297-0.034-0.112-0.048-0.242-0.048-0.38l-4e-3 -1.201c0-0.513-2e-3 -1.025-2e-3 -1.542 0-0.122 8e-3 -0.239 0.033-0.352 0.024-0.111 0.061-0.214 0.103-0.305 0.047-0.1 0.102-0.184 0.167-0.255 0.083-0.09 0.184-0.148 0.291-0.169 0.324-0.071 0.485-0.109 0.817-0.19l0.102-0.012c0.083 0 0.206 0.023 0.316 0.142 0.072 0.075 0.129 0.171 0.178 0.288 0.037 0.097 0.064 0.214 0.085 0.343 0.019 0.123 0.03 0.249 0.03 0.378l5e-3 1.393 6e-3 1.397c0 0.129-0.013 0.254-0.037 0.371-0.025 0.119-0.06 0.229-0.103 0.324-0.049 0.108-0.113 0.197-0.185 0.264-0.124 0.118-0.253 0.144-0.337 0.144l-0.765 3e-3zm0.446-3.536c4e-3 0.694 8e-3 1.387 0.012 2.078l-0.19 0.013c-2e-3 -0.684-8e-3 -1.37-8e-3 -2.058l0.186-0.033m-0.446 3.259c0.305 0 0.459-3e-3 0.77-4e-3l0.148-0.067 0.12-0.18c0.035-0.076 0.065-0.164 0.086-0.264 0.019-0.097 0.028-0.205 0.028-0.314-6e-3 -0.932-6e-3 -1.859-7e-3 -2.79 0-0.113-8e-3 -0.226-0.027-0.335-0.02-0.106-0.045-0.202-0.074-0.289l-0.118-0.195-0.114-0.056-0.037 5e-3c-0.334 0.083-0.499 0.121-0.827 0.189l-0.141 0.092-0.122 0.183c-0.032 0.071-0.061 0.155-0.083 0.248-0.019 0.092-0.031 0.186-0.029 0.29 4e-3 0.913 5e-3 1.829 0.01 2.743 0 0.112 0.011 0.214 0.039 0.3l0.099 0.234 0.134 0.153 0.145 0.057" fill="#a21217"/>
  </g>
  <g transform="matrix(7.3582 0 0 -7.3582 60.592 -89.912)">
   <path d="m0 0h-0.278c-0.589-5e-3 -1.185-8e-3 -1.779-0.01l-0.217-2e-3 -0.277-2e-3v-2.352l0.185 0.019v-2.691l-0.185-0.055v-2.375l0.379 0.148c0.488 0.191 0.725 0.281 1.194 0.454l0.177 0.07v2.201l-0.17-0.047v0.283c0.094 0.025 0.18 0.047 0.305 0.075l0.213 0.052v0.22l-6e-3 0.666v0.545l0.228 0.029 0.239 0.033v0.244c-2e-3 0.617-2e-3 1.231-6e-3 1.849v0.368zm-0.273-0.281c0-0.739 1e-3 -1.477 4e-3 -2.215-0.297-0.039-0.446-0.063-0.749-0.101v0.646c-0.095-0.01-0.143-0.014-0.238-0.025 2e-3 -0.315 2e-3 -0.47 2e-3 -0.779 0.209 0.031 0.312 0.045 0.52 0.074 0-0.535 3e-3 -0.798 3e-3 -1.331-0.207-0.05-0.312-0.077-0.519-0.128v-0.866l0.172 0.048v-1.646c-0.465-0.175-0.708-0.265-1.194-0.457v1.758l0.18 0.055v3.207l-0.18-0.019v1.77c0.664 4e-3 1.33 8e-3 1.999 9e-3" fill="#a21217"/>
  </g>
  <g transform="matrix(7.3582 0 0 -7.3582 177.5 -89.854)">
   <path d="m0 0h-2e-3c-0.36-6e-3 -0.599-9e-3 -0.876-0.013l-0.437-5e-3 -0.275-3e-3v-0.275l-1e-3 -0.404v-0.879l0.142-7e-3v-0.636l-2e-3 -0.625-0.14 2e-3v-0.64l-4e-3 -0.674v-0.241l0.244-0.031c0.371-0.054 0.554-0.083 0.942-0.146l0.322-0.057v0.331c0 0.38 0 0.59 2e-3 0.883l1e-3 0.184v0.171l0.065-9e-3 0.054-2e-3c0.096 0 0.19 0.03 0.271 0.086 0.077 0.052 0.14 0.128 0.197 0.224 0.042 0.081 0.078 0.171 0.1 0.274 0.022 0.096 0.035 0.202 0.038 0.31 0 0.469 0 0.697 4e-3 1.198 0 0.12-0.014 0.233-0.042 0.342-0.022 0.108-0.063 0.206-0.104 0.293-0.053 0.095-0.116 0.172-0.185 0.232-0.093 0.075-0.202 0.117-0.311 0.117zm-0.311-1.914c0 0.207 0 0.315 3e-3 0.529l-0.188 8e-3v-0.525l0.185-0.012m0.314 1.635 0.137-0.054 0.116-0.15 0.079-0.224c0.019-0.087 0.031-0.178 0.031-0.274-2e-3 -0.504-2e-3 -0.732-6e-3 -1.201l-0.03-0.247-0.072-0.204-0.111-0.129-0.112-0.037-0.021 2e-3c-0.208 0.024-0.312 0.035-0.518 0.056v-0.467l0.142-0.028v-1.067c-0.386 0.065-0.574 0.094-0.953 0.144v1.031l0.142-3e-3v1.812l-0.141 6e-3v1.017c0.525 6e-3 0.786 0.01 1.317 0.017" fill="#a21217"/>
  </g>
  <g transform="matrix(7.3582 0 0 -7.3582 208.63 -89.84)">
   <path d="m0 0-1e-3 -0.28v-0.796c-2e-3 -0.443-2e-3 -0.886-7e-3 -1.328v-0.245l0.243-0.032c0.181-0.025 0.295-0.038 0.445-0.058-2e-3 -0.404-2e-3 -0.807-5e-3 -1.209l-0.139 0.033v-0.352l-6e-3 -1.194v-0.425l0.192-0.066c0.426-0.136 0.638-0.211 1.086-0.365l0.366-0.127 4e-3 0.388v1.726l-0.154 0.041v0.879l2e-3 0.463c0.122-0.015 0.23-0.032 0.387-0.055l0.319-0.049v0.322c0 0.812 2e-3 1.624 5e-3 2.439v0.277l-0.275 2e-3c-0.733 2e-3 -1.455 7e-3 -2.182 9e-3zm0.276-0.28c0.731-4e-3 1.453-4e-3 2.182-0.01 0-0.812-4e-3 -1.627-4e-3 -2.437-0.252 0.037-0.375 0.054-0.622 0.091v0.856l-0.078 7e-3c-3e-3 -0.908-3e-3 -1.822-5e-3 -2.734l0.156-0.037c0-0.578 0-0.876-5e-3 -1.512-0.442 0.156-0.661 0.231-1.09 0.371 0 0.597 1e-3 0.874 4e-3 1.416l0.139-0.032c0 0.865 5e-3 1.732 7e-3 2.598l-0.085 7e-3c0-0.321 0-0.476-2e-3 -0.789-0.242 0.031-0.365 0.048-0.603 0.078 2e-3 0.71 6e-3 1.417 6e-3 2.127" fill="#a21217"/>
  </g>
  <g transform="matrix(7.3582 0 0 -7.3582 72.24 -89.807)">
   <path d="m0 0h-0.254c-0.463-3e-3 -0.702-4e-3 -1.182-6e-3h-0.256l-0.018-0.258c-0.074-1.035-0.153-2.088-0.229-3.103-0.027-0.371-0.056-0.742-0.082-1.113l-0.206-0.054v-0.215l7e-3 -1.378v-0.595l0.371 0.133c0.388 0.139 0.571 0.205 0.93 0.33l0.176 0.062 0.244 0.079c0.351 0.12 0.524 0.177 0.876 0.288l0.195 0.062v0.205c-6e-3 0.594-6e-3 0.868-6e-3 1.404l-5e-3 0.351-0.197-0.049c-0.114 1.186-0.236 2.404-0.341 3.603zm-0.875-3.349 0.136 0.025c-0.034 0.386-0.049 0.577-0.078 0.967-0.027-0.399-0.038-0.594-0.058-0.992m0.621 3.07c0.117-1.307 0.246-2.614 0.375-3.923l0.166 0.04c2e-3 -0.536 4e-3 -0.81 4e-3 -1.403-0.349-0.112-0.523-0.169-0.881-0.287-0.026 0.549-0.044 0.808-0.069 1.314-0.112-0.029-0.166-0.045-0.277-0.071-0.032-0.532-0.044-0.806-0.076-1.389-0.368-0.126-0.552-0.191-0.93-0.33-2e-3 0.666-4e-3 0.974-4e-3 1.581l0.19 0.049c0.107 1.472 0.22 2.944 0.32 4.412 0.48 7e-3 0.719 7e-3 1.182 7e-3" fill="#a21217"/>
  </g>
  <g transform="matrix(7.3582 0 0 -7.3582 232.26 -89.721)">
   <path d="m0 0h-4e-3c-0.092 0-0.231-0.025-0.373-0.15-0.09-0.078-0.172-0.183-0.235-0.316-0.058-0.119-0.103-0.257-0.136-0.414-0.034-0.153-0.051-0.322-0.051-0.506l-4e-3 -1.325c0-0.17 0.01-0.336 0.04-0.503 0.026-0.166 0.061-0.319 0.108-0.458l0.088-0.209-0.191 0.042v-1.636l-2e-3 -0.858-2e-3 -0.195 0.185-0.068c0.538-0.196 0.812-0.296 1.376-0.515l0.164-0.032c0.106 0 0.209 0.04 0.297 0.114 0.091 0.075 0.164 0.186 0.227 0.33 0.054 0.121 0.093 0.268 0.123 0.436 0.031 0.159 0.043 0.334 0.043 0.517v1.653c0 0.174-0.012 0.35-0.035 0.518-0.026 0.177-0.062 0.335-0.108 0.472l-0.099 0.231 0.161-0.022v2.887h-0.279l-0.81 4e-3 -0.482 3e-3zm0-0.278c0.509-2e-3 0.763-3e-3 1.293-7e-3v-2.291c-0.306 0.043-0.457 0.06-0.76 0.1v0.526c-0.095 0.011-0.141 0.016-0.236 0.025 0-0.302 0-0.45-4e-3 -0.746 0.244-0.037 0.369-0.056 0.619-0.092l0.187-0.133c0.058-0.076 0.106-0.178 0.149-0.299 0.041-0.119 0.071-0.262 0.093-0.419 0.023-0.158 0.036-0.318 0.036-0.479v-1.653c0-0.169-0.015-0.324-0.039-0.471-0.026-0.146-0.062-0.271-0.103-0.373-0.047-0.102-0.099-0.178-0.157-0.228l-0.115-0.048-0.062 0.015c-0.567 0.215-0.838 0.321-1.38 0.518v2.143c0.311-0.073 0.471-0.113 0.791-0.19 0-0.226 0-0.339-4e-3 -0.569 0.093-0.027 0.136-0.039 0.225-0.063v0.837c-0.232 0.053-0.348 0.079-0.574 0.133l-0.202 0.149c-0.054 0.084-0.106 0.189-0.147 0.311-0.041 0.121-0.073 0.259-0.097 0.411-0.027 0.151-0.037 0.304-0.037 0.46 0 0.52 0 0.779 1e-3 1.325 0 0.162 0.015 0.312 0.045 0.448 0.03 0.134 0.067 0.249 0.118 0.351 0.045 0.097 0.1 0.174 0.162 0.228l0.194 0.081h4e-3" fill="#a21217"/>
  </g>
  <g transform="matrix(7.3582 0 0 -7.3582 202.85 -74.264)">
   <path d="m0 0v0.448l-0.072 7e-3v-0.447zm0.947-3.433c-0.272 0.082-0.399 0.121-0.669 0.204l-0.14 0.118-0.082 0.186-0.043 0.225-0.013 0.224 1e-3 1.238-0.073 0.012c-3e-3 -0.659-5e-3 -1.021-5e-3 -1.807v-0.092l-0.091 0.023c-0.36 0.103-0.53 0.151-0.881 0.242l-0.053 0.014 6e-3 1.331 0.143-0.011s3e-3 1.484 9e-3 2.081l-0.146 0.024 8e-3 1.352 1.431-4e-3 0.227-0.111c0.064-0.067 0.123-0.155 0.169-0.261 0.046-0.103 0.081-0.224 0.11-0.359 0.022-0.135 0.037-0.276 0.037-0.425v-0.041c-7e-3 -0.324-7e-3 -0.48-0.017-0.79-8e-3 -0.161-0.027-0.295-0.071-0.402l-0.103-0.185-0.026-0.038 0.034-0.062 0.103-0.21c0.036-0.125 0.053-0.272 0.057-0.443l8e-3 -0.505 0.161-0.052-3e-3 -1.505z" fill="#fff"/>
  </g>
  <g transform="matrix(7.3582 0 0 -7.3582 194.35 -88.992)">
   <path d="m0 0v-0.169c0-0.501 0-0.74-2e-3 -1.195l-6e-3 -0.118 0.124-0.02 0.025-1e-3c-2e-3 -0.58-5e-3 -1.153-5e-3 -1.728v-0.222l-0.146 0.015-3e-3 -0.155v-0.635l-2e-3 -0.565v-0.105l0.103-0.03c0.35-0.092 0.522-0.137 0.881-0.24l0.177-0.053v0.273l0.087-0.201 0.182-0.152c0.263-0.076 0.397-0.116 0.664-0.201l0.181-0.053v0.184l2e-3 1.068v0.393l-0.093 0.031-0.064 0.022v0.08l-9e-3 0.375c-5e-3 0.178-0.025 0.334-0.064 0.461l-0.108 0.227-0.014 0.022 6e-3 5e-3 0.106 0.196c0.045 0.116 0.074 0.259 0.076 0.426 9e-3 0.313 0.012 0.469 0.02 0.789v0.045c0 0.151-0.013 0.299-0.042 0.436-0.027 0.143-0.064 0.271-0.112 0.377-0.054 0.114-0.11 0.209-0.176 0.278-0.085 0.089-0.18 0.137-0.284 0.137-0.555 1e-3 -0.828 1e-3 -1.365 3e-3zm1.223-2.083c4e-3 0.236 4e-3 0.353 5e-3 0.594l-0.213 0.019c-2e-3 -0.239-2e-3 -0.356-2e-3 -0.586l0.21-0.027m-1.084 1.943c0.537-2e-3 0.81-3e-3 1.365-3e-3l0.182-0.091c0.056-0.062 0.105-0.141 0.151-0.24 0.044-0.1 0.079-0.216 0.103-0.345 0.027-0.131 0.037-0.267 0.034-0.412v-0.041c-3e-3 -0.322-7e-3 -0.478-0.015-0.788-5e-3 -0.154-0.026-0.279-0.066-0.379-0.037-0.103-0.135-0.22-0.135-0.246-4e-3 -0.035 0.106-0.179 0.142-0.297 0.033-0.114 0.054-0.256 0.057-0.42 2e-3 -0.22 7e-3 -0.33 0.01-0.556l0.158-0.053c-2e-3 -0.519-2e-3 -0.786-3e-3 -1.36-0.268 0.086-0.407 0.127-0.668 0.205l-0.102 0.088-0.074 0.173-0.043 0.211-0.012 0.217c5e-3 0.542 5e-3 0.794 5e-3 1.296l-0.215 0.037c0-0.715-3e-3 -1.071-5e-3 -1.891-0.359 0.101-0.532 0.148-0.883 0.242 2e-3 0.512 2e-3 0.745 4e-3 1.2l0.145-0.011c0 0.737 6e-3 1.476 8e-3 2.217l-0.146 0.023c0 0.464 3e-3 0.703 3e-3 1.224" fill="#011124"/>
  </g>
  <g transform="matrix(7.3582 0 0 -7.3582 137.28 -68.599)">
   <path d="m0 0 0.129 1e-3v0.489c-0.039 0.132-0.07 0.244-0.101 0.35-0.071 0.243-0.131 0.437-0.215 0.743l-0.196-1e-3 -5e-3 1.118h0.777l9e-3 -0.057c0.056-0.271 0.087-0.44 0.126-0.627 0.039 0.187 0.079 0.357 0.135 0.627l0.01 0.057h0.749l5e-3 -1.131h-0.184c-0.087-0.291-0.141-0.477-0.212-0.712-0.031-0.097-0.062-0.203-0.099-0.326l2e-3 -0.523h0.129l3e-3 -1.116h-0.327c-0.215 0-0.381-2e-3 -0.659-0.011l-0.07-2e-3z" fill="#fff"/>
  </g>
  <g transform="matrix(7.3582 0 0 -7.3582 142.62 -88.977)">
   <path d="m0 0h-0.112l-0.023-0.112c-0.028-0.118-0.048-0.219-0.064-0.311-0.02 0.092-0.036 0.193-0.064 0.309l-0.019 0.114h-0.903l3e-3 -0.141v-1.117l0.141 2e-3h0.076c0.076-0.279 0.132-0.465 0.201-0.696 0.029-0.1 0.062-0.21 0.098-0.338l1e-3 -0.205v-0.205l-0.13-5e-3v-0.134l2e-3 -0.838v-0.142l1e-3 -0.143 0.142 5e-3c0.282 9e-3 0.444 9e-3 0.659 9e-3h0.394v0.141c0 0.421 0 0.61-2e-3 0.976v0.138h-0.131v0.446c0.034 0.12 0.068 0.218 0.095 0.314 0.068 0.22 0.121 0.401 0.201 0.667h0.199v0.138l-3e-3 0.849v0.279h-0.319zm0-0.14h0.621c2e-3 -0.427 2e-3 -0.617 2e-3 -0.988l-0.16 2e-3c-0.135-0.457-0.201-0.666-0.33-1.099 0-0.236 3e-3 -0.358 3e-3 -0.605l0.126-1e-3c0-0.366 3e-3 -0.555 3e-3 -0.976h-0.256c-0.222 0-0.392-4e-3 -0.662-0.011 0 0.421 0 0.611-2e-3 0.98l0.131 3e-3c-2e-3 0.231-2e-3 0.343-2e-3 0.564-0.134 0.459-0.201 0.677-0.334 1.156h-0.183c0 0.364 0 0.553-4e-3 0.975h0.652c0.074-0.402 0.115-0.582 0.189-0.93 0.087 0.348 0.126 0.531 0.206 0.93" fill="#011124"/>
  </g>
  <g transform="matrix(7.3582 0 0 -7.3582 128.15 -77.94)">
   <path d="m0 0 0.056 3e-3 -2e-3 0.297h-0.054zm-0.746-2.462c-7e-3 0.602-7e-3 0.856-0.01 1.365v0.065l0.066 4e-3c0.252 0.018 0.377 0.027 0.639 0.041l0.072 6e-3 2e-3 -0.331 0.042 2e-3 -5e-3 0.34c-0.137-5e-3 -0.227-0.011-0.386-0.022h-0.016l-0.194 0.072-0.142 0.181c-0.037 0.075-0.068 0.158-0.088 0.254-0.021 0.091-0.036 0.192-0.037 0.293l-4e-3 0.83c0 0.111 0.015 0.213 0.038 0.306 0.024 0.095 0.062 0.18 0.103 0.248l0.154 0.17 0.196 0.066 1.095 3e-3v-0.071c6e-3 -0.563 6e-3 -0.804 6e-3 -1.28v-0.068l-0.299-5e-3 0.125-0.064 0.135-0.166 0.08-0.232c0.023-0.084 0.029-0.172 0.029-0.265l2e-3 -0.893c0-0.095-6e-3 -0.192-0.029-0.284-0.018-0.093-0.047-0.177-0.082-0.252l-0.133-0.191-0.184-0.093c-0.437-0.029-0.653-0.047-1.099-0.097l-0.076-0.01z" fill="#fff"/>
  </g>
  <g transform="matrix(7.3582 0 0 -7.3582 134.4 -88.977)">
   <path d="m0 0h-0.987l-0.178-1e-3 -0.236-0.077-0.176-0.194c-0.042-0.077-0.081-0.162-0.108-0.266-0.028-0.098-0.036-0.207-0.036-0.324v-0.83c4e-3 -0.107 0.015-0.209 0.036-0.308 0.025-0.101 0.056-0.193 0.098-0.271l0.132-0.181-0.09-5e-3 -0.129-0.011 2e-3 -0.129c2e-3 -0.509 2e-3 -0.763 6e-3 -1.365v-0.157l0.156 0.018c0.443 0.05 0.661 0.071 1.097 0.101l0.226 0.11 0.146 0.209c0.041 0.081 0.067 0.173 0.09 0.269 0.02 0.097 0.031 0.197 0.031 0.299l-5e-3 0.681v0.212c0 0.097-0.012 0.191-0.028 0.281-0.023 0.094-0.055 0.176-0.092 0.249l-0.091 0.133h0.145l-2e-3 0.137c-1e-3 0.476-3e-3 0.717-5e-3 1.28zm-0.14-0.14c4e-3 -0.563 5e-3 -0.804 5e-3 -1.28-0.236-3e-3 -0.349-7e-3 -0.589-0.012-2e-3 0.119-4e-3 0.181-4e-3 0.302l-0.188-5e-3c0-0.178 0-0.264 2e-3 -0.436 0.192 7e-3 0.291 7e-3 0.486 0.014h7e-3l0.14-0.052 0.114-0.145 0.073-0.214 0.03-0.252c0-0.344 4e-3 -0.517 4e-3 -0.893 0-0.094-9e-3 -0.182-0.026-0.27l-0.081-0.237-0.12-0.172-0.134-0.071c-0.441-0.029-0.663-0.049-1.105-0.099-4e-3 0.602-5e-3 0.856-7e-3 1.365 0.257 0.02 0.383 0.027 0.637 0.041 0-0.129 4e-3 -0.195 4e-3 -0.331l0.178 0.011c-5e-3 0.196-5e-3 0.291-8e-3 0.478-0.179-6e-3 -0.272-0.013-0.46-0.022h-9e-3l-0.149 0.052-0.123 0.161-0.088 0.235c-0.018 0.091-0.029 0.184-0.029 0.282-4e-3 0.319-4e-3 0.483-4e-3 0.828 0 0.105 0.011 0.2 0.031 0.289l0.098 0.229 0.132 0.152 0.158 0.051c0.411 0 0.617 0 1.025 1e-3" fill="#011124"/>
  </g>
  <g transform="matrix(7.3582 0 0 -7.3582 161.12 -77.854)">
   <path d="m0 0v0.299l-0.055 4e-3v-0.303zm0.379-2.53-0.028 2e-3c-0.447 0.054-0.664 0.072-1.102 0.104l-0.065 3e-3v1.471l0.073-4e-3c0.254-0.01 0.379-0.019 0.637-0.035l0.065-4e-3v-0.333l0.041-4e-3v0.346c-0.15 9e-3 -0.235 0.014-0.399 0.024l-0.201 0.088-0.139 0.19c-0.038 0.077-0.064 0.16-0.088 0.255-0.021 0.094-0.028 0.191-0.028 0.288v0.807c0 0.109 7e-3 0.209 0.034 0.3 0.028 0.091 0.063 0.173 0.102 0.242l0.157 0.166 0.194 0.063h1.105l-4e-3 -1.477-0.323 0.015 0.152-0.08 0.127-0.178c0.037-0.072 0.065-0.153 0.085-0.247 0.017-0.09 0.027-0.185 0.027-0.279l-5e-3 -0.936c0-0.102-7e-3 -0.2-0.029-0.293-0.021-0.094-0.049-0.179-0.088-0.251l-0.134-0.178-0.166-0.065" fill="#fff"/>
  </g>
  <g transform="matrix(7.3582 0 0 -7.3582 158.44 -88.977)">
   <path d="m0 0h-4e-3l-0.234-0.078-0.175-0.189c-0.044-0.073-0.083-0.162-0.105-0.257-0.029-0.098-0.043-0.205-0.043-0.319v-0.807c0-0.104 0.013-0.206 0.031-0.305 0.024-0.099 0.052-0.189 0.095-0.266l0.117-0.177-0.057 2e-3 -0.143 7e-3v-1.609l0.128-8e-3c0.437-0.032 0.653-0.049 1.097-0.101l0.036-3e-3 0.21 0.08 0.154 0.202c0.037 0.078 0.071 0.166 0.095 0.264 0.02 0.101 0.031 0.204 0.031 0.31v0.935c0 0.099-0.011 0.196-0.028 0.292-0.018 0.101-0.05 0.189-0.087 0.264l-0.093 0.148 0.145-6e-3v1.617l-0.139 3e-3c-0.417 0-0.622 0-1.031 1e-3m0-0.141h1.031v-1.332c-0.242 8e-3 -0.359 0.013-0.602 0.023v0.306l-0.191 2e-3v-0.437c0.199-6e-3 0.29-8e-3 0.491-0.019l0.148-0.065 0.118-0.161 0.076-0.23c0.017-0.088 0.024-0.175 0.024-0.265-5e-3 -0.364-5e-3 -0.546-5e-3 -0.935 0-0.098-4e-3 -0.191-0.026-0.28l-0.082-0.232-0.118-0.157-0.121-0.047h-0.022c-0.444 0.051-0.665 0.073-1.1 0.103-3e-3 0.588-3e-3 0.836-3e-3 1.332 0.254-0.011 0.378-0.019 0.632-0.035v-0.333l0.179-0.012v0.483c-0.183 0.014-0.279 0.019-0.459 0.028l-0.158 0.071-0.125 0.171-0.08 0.238c-0.02 0.088-0.035 0.181-0.035 0.274v0.807c0 0.102 0.015 0.194 0.041 0.281l0.092 0.224 0.138 0.146 0.153 0.051h4e-3" fill="#011124"/>
  </g>
  <g transform="matrix(7.3582 0 0 -7.3582 75.603 -59.904)">
   <path d="m0 0 0.168 0.041-0.012 2.327-0.168-0.013s-3e-3 0.894-3e-3 1.452l-5e-3 0.07 0.975 2e-3 0.016-0.054c0.144-0.615 0.234-0.972 0.348-1.382 0 0.414-6e-3 1.422-6e-3 1.422l0.993 3e-3 0.01-1.326-0.146-0.025 0.01-0.99c2e-3 -0.789 6e-3 -1.574 0.011-2.362l3e-3 -0.055-0.057-0.012c-0.263-0.064-0.397-0.097-0.675-0.165l-0.065-0.02-0.018 0.067c-0.142 0.567-0.232 0.895-0.345 1.312 0-0.448 7e-3 -1.498 7e-3 -1.498l-0.048-0.015c-0.355-0.102-0.53-0.156-0.892-0.269l-0.091-0.028z" fill="#fff"/>
  </g>
  <g transform="matrix(7.3582 0 0 -7.3582 83.069 -88.967)">
   <path d="m0 0h-0.111c-0.34-3e-3 -0.508-3e-3 -0.852-5e-3h-0.138v-0.138c1e-3 -0.558 1e-3 -0.826 6e-3 -1.306v-0.223l0.151 0.014h0.017l0.013-2.197-0.062-0.014-0.106-0.025v-0.111c4e-3 -0.521 4e-3 -0.79 4e-3 -1.369l5e-3 -0.189 0.181 0.058c0.363 0.112 0.538 0.167 0.887 0.268l0.101 0.028v0.106c-2e-3 0.373-4e-3 0.658-4e-3 0.919 0.061-0.229 0.125-0.476 0.207-0.802l0.033-0.133 0.133 0.032c0.28 0.07 0.411 0.103 0.673 0.167l0.109 0.025v0.11c-4e-3 0.788-0.012 1.574-0.015 2.363l-6e-3 0.931 0.024 5e-3 0.12 0.019v0.15c-4e-3 0.434-4e-3 0.668-8e-3 1.167l-2e-3 0.137h-0.137l-0.855-2e-3 -0.14-4e-3 2e-3 -0.138c0-0.328 0-0.579 3e-3 -0.812-0.061 0.241-0.126 0.511-0.211 0.861zm-0.111-0.14c0.197-0.84 0.295-1.193 0.494-1.887-7e-3 0.71-0.012 1.061-0.015 1.874 0.345 1e-3 0.517 1e-3 0.855 3e-3 3e-3 -0.513 6e-3 -0.746 7e-3 -1.198l-0.144-0.023c8e-3 -1.141 0.013-2.276 0.024-3.414-0.27-0.064-0.404-0.098-0.677-0.168-0.194 0.77-0.294 1.11-0.489 1.813 5e-3 -0.743 0.01-1.11 0.012-1.965-0.353-0.102-0.531-0.153-0.894-0.269 0 0.579-3e-3 0.848-3e-3 1.37l0.168 0.038c-7e-3 0.821-0.01 1.639-0.014 2.46l-0.17-0.014c-2e-3 0.527-2e-3 0.792-6e-3 1.377 0.346 3e-3 0.514 3e-3 0.852 3e-3" fill="#011124"/>
  </g>
  <g transform="matrix(7.3582 0 0 -7.3582 107.22 -57.489)">
   <path d="m0 0c-5e-3 0.468-5e-3 0.683-7e-3 1.095v0.059l0.164 0.025 0.049 0.549c0.07 0.791 0.146 1.607 0.209 2.411l0.01 0.062 1.142 4e-3 7e-3 -0.061c0.085-0.796 0.184-1.605 0.276-2.386l0.044-0.365 0.159 0.014 5e-3 -1.171-0.063-7e-3c-0.306-0.039-0.451-0.057-0.763-0.102l-0.073-0.01-7e-3 0.073c-0.021 0.378-0.036 0.565-0.056 0.876l-0.11-0.012c-0.021-0.331-0.032-0.523-0.056-0.919l-4e-3 -0.056-0.052-7e-3c-0.317-0.051-0.473-0.078-0.791-0.139l-0.083-0.015z" fill="#fff"/>
  </g>
  <g transform="matrix(7.3582 0 0 -7.3582 119.22 -88.945)">
   <path d="m0 0h-0.127c-0.395 0-0.599-2e-3 -0.994-4e-3h-0.153l-5e-3 -0.123c-0.07-0.807-0.144-1.623-0.215-2.415l-0.046-0.494-0.049-6e-3 -0.118-0.017v-0.121c0-0.412 8e-3 -0.627 8e-3 -1.095v-0.167l0.164 0.032c0.319 0.06 0.472 0.085 0.785 0.137l0.112 0.019 6e-3 0.111c0.019 0.303 0.029 0.485 0.043 0.699 0.017-0.2 0.025-0.371 0.042-0.644l8e-3 -0.15 0.15 0.021c0.31 0.045 0.459 0.065 0.765 0.102l0.121 0.015-4e-3 0.124c-2e-3 0.443-2e-3 0.645-2e-3 1.033l-2e-3 0.15-0.147-0.015h-0.013l-0.039 0.299c-0.093 0.784-0.192 1.588-0.276 2.384zm-0.664-2.289 0.117 0.01c-0.023 0.269-0.039 0.401-0.063 0.673-0.022-0.274-0.033-0.412-0.054-0.683m0.537 2.152c0.103-0.942 0.217-1.882 0.329-2.821l0.148 0.015c2e-3 -0.388 4e-3 -0.59 6e-3 -1.036-0.303-0.034-0.459-0.057-0.762-0.1-0.027 0.406-0.035 0.592-0.066 0.948-0.092-0.01-0.141-0.015-0.239-0.029-0.021-0.366-0.033-0.557-0.058-0.974-0.313-0.051-0.473-0.08-0.791-0.141-2e-3 0.472-4e-3 0.683-9e-3 1.095l0.159 0.023c0.092 1.005 0.182 2.011 0.267 3.017 0.411 0 0.612 3e-3 1.016 3e-3" fill="#011124"/>
  </g>
  <g transform="matrix(7.3582 0 0 -7.3582 96.923 -64.345)">
   <path d="m0 0 0.129 0.021-0.01 1.308c-0.223-0.021-0.335-0.029-0.561-0.054l-0.075-8e-3v0.14c-5e-3 0.654-6e-3 1.002-0.016 1.789v0.069h0.073c0.652 2e-3 1.306 5e-3 1.957 5e-3h0.068v-0.068c8e-3 -0.747 8e-3 -1.061 0.016-1.692v-0.067l-0.063-4e-3c-0.218-0.016-0.326-0.025-0.54-0.043h-7e-3l7e-3 -1.232 0.138 0.02 6e-3 -1.255-0.052-0.011c-0.388-0.078-0.578-0.119-0.978-0.214l-0.08-0.02z" fill="#fff"/>
  </g>
  <g transform="matrix(7.3582 0 0 -7.3582 108.98 -88.913)">
   <path d="m0 0h-0.142c-0.651 0-1.304-2e-3 -1.957-5e-3h-0.14v-0.138c4e-3 -0.787 9e-3 -1.135 0.011-1.789v-0.064l3e-3 -0.153 0.152 0.016c0.197 0.021 0.309 0.031 0.485 0.05v-0.252c6e-3 -0.309 6e-3 -0.617 7e-3 -0.923l-0.011-3e-3 -0.117-0.02v-0.116c4e-3 -0.445 8e-3 -0.67 0.011-1.171v-0.173l0.168 0.038c0.397 0.094 0.59 0.135 0.971 0.215l0.113 0.022v0.114c-3e-3 0.477-3e-3 0.696-9e-3 1.118v0.16l-0.133-0.024-0.012 1.09c0.182 0.017 0.285 0.026 0.481 0.038l0.129 0.011v0.13c-4e-3 0.631-8e-3 0.945-0.01 1.692zm-0.142-0.139c5e-3 -0.745 5e-3 -1.059 0.01-1.69-0.214-0.019-0.319-0.027-0.536-0.045 0 0.245-6e-3 0.371-6e-3 0.625l-0.068-7e-3c8e-3 -0.665 9e-3 -1.332 0.013-2.002l0.134 0.022c7e-3 -0.424 7e-3 -0.639 9e-3 -1.116-0.387-0.079-0.578-0.122-0.974-0.216-3e-3 0.501-3e-3 0.728-9e-3 1.171l0.13 0.022c-7e-3 0.692-0.013 1.387-0.018 2.081l-0.073-6e-3c0-0.26 0-0.386 4e-3 -0.64-0.224-0.021-0.334-0.031-0.562-0.053 0 0.696-6e-3 1.041-0.01 1.85 0.652 4e-3 1.305 4e-3 1.956 4e-3" fill="#011124"/>
  </g>
  <g transform="matrix(7.3582 0 0 -7.3582 187.79 -64.521)">
   <path d="m0 0 9e-3 1.933-0.052 2e-3 -6e-3 -1.927 0.049-8e-3m0.435-1.385-0.054 4e-3c-0.339 0.083-0.499 0.119-0.824 0.191l-0.179 0.111-0.132 0.201c-0.038 0.076-0.067 0.164-0.088 0.263-0.022 0.094-0.031 0.197-0.031 0.304l7e-3 2.744c0 0.117 0.014 0.226 0.043 0.319 0.028 0.096 0.062 0.183 0.106 0.249l0.155 0.175 0.184 0.07 0.77-5e-3 0.194-0.084 0.14-0.201c0.037-0.085 0.065-0.176 0.087-0.281 0.019-0.103 0.034-0.211 0.034-0.328l-0.012-2.789c0-0.118-9e-3 -0.232-0.025-0.346-0.021-0.113-0.045-0.214-0.081-0.301-0.034-0.091-0.077-0.164-0.128-0.22l-0.166-0.076" fill="#fff"/>
  </g>
  <g transform="matrix(7.3582 0 0 -7.3582 185.01 -88.913)">
   <path d="m0 0-0.227-0.081-0.171-0.197c-0.047-0.074-0.084-0.166-0.115-0.265-0.029-0.099-0.046-0.214-0.046-0.339l-3e-3 -1.201c-2e-3 -0.514-2e-3 -1.025-3e-3 -1.542 0-0.112 0.011-0.221 0.034-0.322 0.02-0.099 0.051-0.194 0.091-0.277l0.145-0.217 0.215-0.128c0.327-0.073 0.485-0.111 0.824-0.192l0.068-0.01 0.217 0.1c0.055 0.062 0.108 0.147 0.143 0.242 0.036 0.092 0.062 0.198 0.083 0.317 0.018 0.115 0.026 0.236 0.026 0.355l7e-3 1.393 4e-3 1.396c0 0.121-0.011 0.236-0.035 0.345-0.023 0.109-0.053 0.206-0.09 0.292-0.043 0.092-0.094 0.167-0.154 0.225l-0.243 0.102zm0.446-3.397c4e-3 0.694 8e-3 1.387 0.012 2.078l-0.19 0.012c-2e-3 -0.684-8e-3 -1.369-8e-3 -2.057l0.186-0.033m-0.446 3.258c0.305 0 0.459-2e-3 0.77-4e-3l0.148-0.066 0.12-0.18c0.035-0.076 0.065-0.164 0.086-0.264 0.019-0.097 0.028-0.205 0.028-0.315-6e-3 -0.931-6e-3 -1.859-7e-3 -2.789 0-0.114-8e-3 -0.226-0.027-0.335-0.02-0.107-0.045-0.202-0.074-0.289l-0.118-0.196-0.114-0.055-0.037 5e-3c-0.334 0.083-0.499 0.121-0.827 0.189l-0.141 0.092-0.122 0.183c-0.032 0.071-0.061 0.155-0.083 0.248-0.019 0.092-0.031 0.186-0.029 0.29 4e-3 0.913 5e-3 1.829 0.01 2.743 0 0.111 0.011 0.214 0.039 0.299 0.027 0.091 0.058 0.169 0.099 0.235l0.134 0.153 0.145 0.056" fill="#011124"/>
  </g>
  <g transform="matrix(7.3582 0 0 -7.3582 51.883 -70.23)">
   <path d="m0 0 0.096 0.016v0.631l-0.096-0.011zm-1.158-2.573 0.182 0.052-1e-3 3.079-0.181-0.019v1.917l2.137 7e-3 3e-3 -2.347s-0.339-0.044-0.464-0.063l2e-3 -1.446-0.051-0.012c-0.189-0.045-0.295-0.073-0.464-0.116v-0.718l0.169 0.046v-1.785l-0.041-0.017c-0.472-0.176-0.707-0.264-1.201-0.455l-0.09-0.041z" fill="#fff"/>
  </g>
  <g transform="matrix(7.3582 0 0 -7.3582 59.586 -88.874)">
   <path d="m0 0h-0.142c-0.588-3e-3 -1.18-6e-3 -1.778-9e-3h-0.357v-2.063l0.154 0.017 0.032 1e-3v-2.95l-0.086-0.023-0.1-0.028v-2.068l0.189 0.074c0.491 0.191 0.729 0.279 1.198 0.454l0.088 0.034v1.207l-2e-3 0.537v0.183l-0.168-0.049-2e-3 0.382v0.194c0.142 0.035 0.244 0.06 0.41 0.1l0.108 0.025v0.111l-2e-3 0.672-3e-3 0.659c0.106 0.015 0.212 0.029 0.346 0.047l0.123 0.015v0.124c-3e-3 0.614-3e-3 1.226-5e-3 1.844l-3e-3 0.373zm-0.137-0.14c0-0.739 1e-3 -1.477 5e-3 -2.215-0.298-0.039-0.446-0.062-0.749-0.101v0.646c-0.096-0.01-0.143-0.014-0.238-0.024 2e-3 -0.316 2e-3 -0.471 2e-3 -0.78 0.209 0.032 0.311 0.045 0.519 0.074 0-0.535 3e-3 -0.798 3e-3 -1.331-0.207-0.05-0.311-0.077-0.518-0.128v-0.866l0.172 0.048v-1.645c-0.465-0.176-0.708-0.266-1.195-0.457v1.757l0.181 0.055v3.208l-0.181-0.02v1.771c0.664 3e-3 1.33 7e-3 1.999 8e-3" fill="#011124"/>
  </g>
  <g transform="matrix(7.3582 0 0 -7.3582 174.68 -76.312)">
   <path d="m0 0 5e-3 0.388-0.053 4e-3v-0.389zm8e-3 -2.531c-0.39 0.067-0.574 0.093-0.949 0.145l-0.062 6e-3 1e-3 1.162 0.143-3e-3 1e-3 1.677-0.14 4e-3v1.151l1.381 0.02 0.183-0.07 0.132-0.169c0.036-0.069 0.068-0.151 0.086-0.243 0.025-0.092 0.033-0.187 0.033-0.29l-3e-3 -1.2c0-0.093-0.011-0.182-0.03-0.266l-0.08-0.218-0.136-0.154-0.15-0.049-0.027 3e-3c-0.183 0.02-0.281 0.033-0.441 0.049v-0.337l0.141-0.029-5e-3 -1.204z" fill="#fff"/>
  </g>
  <g transform="matrix(7.3582 0 0 -7.3582 177.5 -88.826)">
   <path d="m0 0c-0.362-4e-3 -0.601-8e-3 -0.875-0.012l-0.439-4e-3 -0.137-3e-3v-1.289l0.136-4e-3h4e-3v-0.77l-3e-3 -0.768-0.137 4e-3v-0.499l-2e-3 -0.674v-0.121l0.119-0.016c0.375-0.052 0.562-0.077 0.946-0.144l0.162-0.029v0.166c4e-3 0.38 4e-3 0.59 4e-3 0.883v0.293l-0.112 0.022-0.028 6e-3v0.207c0.114-0.016 0.212-0.025 0.358-0.042l0.039-5e-3 0.19 0.064 0.156 0.177c0.039 0.065 0.065 0.146 0.088 0.238 0.02 0.087 0.032 0.18 0.032 0.278 2e-3 0.469 2e-3 0.697 2e-3 1.201 0 0.107-0.012 0.211-0.034 0.306-0.023 0.098-0.054 0.184-0.092 0.26l-0.152 0.189-0.222 0.086zm-0.311-1.774c0 0.207 0 0.315 3e-3 0.529l-0.188 8e-3v-0.525l0.185-0.012m0.314 1.634 0.137-0.053 0.116-0.15 0.079-0.224c0.019-0.087 0.031-0.179 0.031-0.274-2e-3 -0.504-2e-3 -0.732-6e-3 -1.201l-0.03-0.247-0.072-0.204-0.111-0.129-0.112-0.037-0.021 2e-3c-0.208 0.024-0.312 0.035-0.518 0.055v-0.467l0.142-0.028v-1.066c-0.386 0.064-0.574 0.093-0.953 0.144v1.031l0.142-3e-3v1.811l-0.141 6e-3v1.018c0.525 6e-3 0.786 0.01 1.317 0.016" fill="#011124"/>
  </g>
  <g transform="matrix(7.3582 0 0 -7.3582 222.43 -44.806)">
   <path d="m0 0c-0.448 0.156-0.662 0.228-1.089 0.368l-0.046 0.016 2e-3 1.557 0.14-0.035c0 0.552 0 1.106 5e-3 1.655l-0.024 5e-3c-0.243 0.033-0.364 0.048-0.604 0.077l-0.061 0.011 7e-3 2.257h0.074c0.727-5e-3 1.45-9e-3 2.178-0.011h0.072l-7e-3 -2.589-0.079 0.012c-0.253 0.037-0.375 0.056-0.623 0.091l-6e-3 -1.743 0.158-0.043-4e-3 -1.658z" fill="#fff"/>
  </g>
  <g transform="matrix(7.3582 0 0 -7.3582 209.62 -88.805)">
   <path d="m0 0v-0.935c-1e-3 -0.443-3e-3 -0.886-3e-3 -1.332v-0.121l0.12-0.014c0.227-0.031 0.349-0.046 0.565-0.076-3e-3 -0.503-3e-3 -1.005-3e-3 -1.508l-0.14 0.036v-0.176l-5e-3 -1.201v-0.217l-4e-3 -0.101 0.1-0.033c0.427-0.139 0.639-0.211 1.088-0.369l0.186-0.063v0.807l2e-3 0.899v0.107l-0.1 0.029-0.054 0.012 1e-3 0.985 2e-3 0.627c0.197-0.03 0.321-0.046 0.543-0.082l0.16-0.022v0.16c0 0.812 2e-3 1.626 2e-3 2.439v0.137l-0.138 3e-3c-0.728 4e-3 -1.451 6e-3 -2.178 9e-3zm0.141-0.139c0.73-4e-3 1.453-4e-3 2.181-0.01 0-0.813-4e-3 -1.627-4e-3 -2.437-0.252 0.036-0.375 0.054-0.622 0.09v0.856l-0.078 7e-3c-3e-3 -0.908-3e-3 -1.822-5e-3 -2.733l0.156-0.038c0-0.578 0-0.875-4e-3 -1.512-0.443 0.157-0.662 0.231-1.091 0.372 0 0.597 2e-3 0.874 5e-3 1.415l0.138-0.032c0 0.865 5e-3 1.732 7e-3 2.599l-0.085 7e-3c0-0.321 0-0.476-2e-3 -0.789-0.242 0.03-0.365 0.048-0.603 0.077 3e-3 0.71 7e-3 1.418 7e-3 2.128" fill="#011124"/>
  </g>
  <g transform="matrix(7.3582 0 0 -7.3582 57.415 -55.269)">
   <path d="m0 0 0.189 0.053c0.034 0.418 0.064 0.837 0.093 1.258 0.079 1.018 0.157 2.07 0.228 3.103l6e-3 0.065 1.306 5e-3 8e-3 -0.063c0.111-1.283 0.24-2.583 0.363-3.84l0.172 0.041 4e-3 -0.09c7e-3 -0.533 0.01-1.456 0.01-1.456l-0.047-0.014c-0.352-0.11-0.528-0.168-0.883-0.289l-0.088-0.028-4e-3 0.09c-0.028 0.519-0.043 0.78-0.064 1.231l-0.15-0.038c-0.024-0.497-0.04-0.773-0.065-1.335l-5e-3 -0.047-0.046-0.015c-0.36-0.127-0.545-0.191-0.929-0.331l-0.096-0.031z" fill="#fff"/>
  </g>
  <g transform="matrix(7.3582 0 0 -7.3582 71.291 -88.78)">
   <path d="m0 0h-0.125c-0.463-2e-3 -0.702-2e-3 -1.182-5e-3h-0.128l-9e-3 -0.131c-0.074-1.034-0.15-2.084-0.228-3.104-0.031-0.402-0.06-0.805-0.088-1.209l-0.094-0.025-0.102-0.027 2e-3 -0.106 2e-3 -1.397v-0.38l0.185 0.065c0.389 0.142 0.571 0.205 0.93 0.331l0.091 0.029 3e-3 0.094c0.028 0.531 0.041 0.808 0.067 1.287l0.013 1e-3c0.024-0.402 0.038-0.661 0.063-1.145l0.012-0.182 0.171 0.057c0.358 0.121 0.532 0.176 0.883 0.29l0.096 0.031v0.102c-2e-3 0.595-5e-3 0.869-8e-3 1.405v0.175l-0.173-0.041h-2e-3l-0.012-5e-3c-0.117 1.237-0.244 2.508-0.352 3.763zm-0.746-3.209 0.136 0.025c-0.034 0.386-0.049 0.577-0.078 0.966-0.027-0.398-0.039-0.593-0.058-0.991m0.621 3.069c0.117-1.306 0.246-2.613 0.375-3.922l0.166 0.04c2e-3 -0.537 4e-3 -0.811 4e-3 -1.404-0.349-0.112-0.523-0.168-0.881-0.287-0.026 0.549-0.044 0.808-0.069 1.315-0.112-0.029-0.166-0.045-0.278-0.072-0.031-0.531-0.044-0.806-0.075-1.389-0.368-0.125-0.552-0.191-0.93-0.329-2e-3 0.666-4e-3 0.973-4e-3 1.581l0.19 0.048c0.107 1.473 0.22 2.944 0.32 4.413 0.48 6e-3 0.719 6e-3 1.182 6e-3" fill="#011124"/>
  </g>
  <g transform="matrix(7.3582 0 0 -7.3582 239.35 -38.717)">
   <path d="m0 0-0.088 0.016c-0.571 0.217-0.838 0.32-1.379 0.516l-0.049 0.017 4e-3 2.284 0.088-0.023c0.314-0.077 0.469-0.111 0.786-0.193l0.056-0.013v-0.57l0.084-0.025v0.692c-0.196 0.046-0.314 0.072-0.525 0.119-0.087 0.02-0.168 0.083-0.237 0.18-0.06 0.086-0.114 0.196-0.158 0.326-0.044 0.128-0.076 0.271-0.107 0.423-0.02 0.154-0.033 0.313-0.033 0.472l5e-3 1.325c0 0.166 0.015 0.324 0.045 0.461 0.031 0.141 0.071 0.264 0.123 0.366 0.05 0.108 0.112 0.192 0.179 0.253l0.239 0.098 1.366-9e-3v-2.44l-0.08 9e-3c-0.304 0.044-0.454 0.065-0.754 0.103l-0.063 0.01v0.525l-0.1 9e-3v-0.614c0.207-0.026 0.329-0.045 0.553-0.079 0.088-0.013 0.169-0.067 0.235-0.163 0.061-0.082 0.115-0.187 0.159-0.314 0.043-0.125 0.075-0.273 0.099-0.433 0.02-0.16 0.032-0.324 0.032-0.489v-1.653c0-0.172-0.012-0.334-0.034-0.483-0.03-0.147-0.068-0.282-0.11-0.39-0.051-0.112-0.109-0.196-0.172-0.252l-0.164-0.061" fill="#fff"/>
  </g>
  <g transform="matrix(7.3582 0 0 -7.3582 232.26 -88.708)">
   <path d="m0 0h-4e-3c-0.1 0-0.194-0.042-0.28-0.115-0.08-0.067-0.145-0.158-0.201-0.277-0.058-0.107-0.097-0.236-0.127-0.38-0.032-0.144-0.051-0.304-0.051-0.476l-2e-3 -1.325c0-0.161 0.014-0.324 0.041-0.482 0.022-0.158 0.057-0.306 0.101-0.434 0.048-0.137 0.105-0.253 0.17-0.345l0.127-0.136-0.22 0.053-0.172 0.042v-2.42l0.087-0.032c0.544-0.197 0.81-0.299 1.382-0.517l0.112-0.02 0.205 0.077c0.075 0.064 0.141 0.155 0.192 0.28 0.051 0.111 0.088 0.25 0.116 0.403 0.028 0.155 0.04 0.32 0.04 0.496v1.653c0 0.165-0.012 0.335-0.04 0.5-0.019 0.165-0.052 0.315-0.099 0.443-0.049 0.133-0.103 0.248-0.166 0.337l-0.124 0.122 0.187-0.025 0.155-0.02v2.59h-0.136l-0.809 5e-3zm0-0.14c0.509-2e-3 0.763-3e-3 1.293-7e-3v-2.292c-0.306 0.043-0.457 0.061-0.76 0.101v0.526c-0.095 0.011-0.141 0.016-0.236 0.025 0-0.302 0-0.451-4e-3 -0.747 0.244-0.037 0.369-0.055 0.619-0.091l0.187-0.133c0.058-0.076 0.106-0.179 0.149-0.299 0.041-0.119 0.071-0.262 0.093-0.419 0.023-0.158 0.036-0.318 0.036-0.479v-1.653c0-0.169-0.015-0.325-0.039-0.471-0.026-0.146-0.062-0.271-0.103-0.374-0.047-0.102-0.099-0.177-0.157-0.228l-0.115-0.047-0.062 0.015c-0.567 0.215-0.838 0.321-1.38 0.517v2.144c0.311-0.074 0.471-0.113 0.791-0.191 0-0.225 0-0.338-4e-3 -0.568 0.093-0.027 0.136-0.039 0.225-0.063v0.837c-0.232 0.053-0.348 0.079-0.574 0.133l-0.202 0.149c-0.054 0.084-0.106 0.189-0.147 0.311-0.041 0.121-0.073 0.259-0.097 0.411-0.027 0.151-0.037 0.304-0.037 0.46 0 0.519 0 0.779 1e-3 1.325 0 0.162 0.015 0.311 0.045 0.448 0.03 0.134 0.067 0.249 0.118 0.35 0.045 0.097 0.1 0.175 0.162 0.228l0.194 0.082h4e-3" fill="#011124"/>
  </g>
  <g transform="matrix(7.3582 0 0 -7.3582 118.75 -70.934)">
   <path d="m0 0 0.071-0.584 0.056 5e-3 -0.06 0.485c-0.087 0.739-0.178 1.499-0.26 2.251h-0.056c0.08-0.723 0.163-1.453 0.249-2.157" fill="#bdbcbc"/>
  </g>
  <g transform="matrix(7.3582 0 0 -7.3582 126.74 -67.251)">
   <path d="m0 0-2e-3 0.236-0.067-6e-3 2e-3 -0.234z" fill="#bdbcbc"/>
  </g>
  <g transform="matrix(7.3582 0 0 -7.3582 126.54 -81.727)">
   <path d="m0 0 0.418 0.01v0.094l-0.486-0.012 6e-3 -0.745 0.068 4e-3z" fill="#bdbcbc"/>
  </g>
  <g transform="matrix(7.3582 0 0 -7.3582 159.19 -69.012)">
   <path d="m0 0-0.063 3e-3v-0.244l0.063-6e-3z" fill="#bdbcbc"/>
  </g>
  <g transform="matrix(7.3582 0 0 -7.3582 53.672 -77.47)">
   <path d="m0 0-0.53-0.052 4e-3 -1.096 0.067 9e-3v0.993l0.459 0.047z" fill="#bdbcbc"/>
  </g>
  <g transform="matrix(7.3582 0 0 -7.3582 139.58 -81.519)">
   <path d="m0 0h0.046c-0.056 0.257-0.093 0.428-0.149 0.72h-0.052c0.055-0.268 0.093-0.441 0.155-0.72" fill="#bdbcbc"/>
  </g>
  <g transform="matrix(7.3582 0 0 -7.3582 164.95 -86.804)">
   <path d="m0 0h-0.067v-0.927l-0.241 0.01v-0.09c0.11-4e-3 0.198-7e-3 0.302-0.013z" fill="#bdbcbc"/>
  </g>
  <g transform="matrix(7.3582 0 0 -7.3582 71.471 -60.141)">
   <path d="m0 0 0.025-0.265 0.058 0.012-0.013 0.161c-0.121 1.21-0.246 2.458-0.354 3.69h-0.058c0.105-1.2 0.225-2.42 0.342-3.598" fill="#bdbcbc"/>
  </g>
  <g transform="matrix(7.3582 0 0 -7.3582 113.16 -77.893)">
   <path d="m0 0-0.067-0.861 0.078 3e-3 0.056 0.764 0.234 7e-3 -0.012 0.092z" fill="#bdbcbc"/>
  </g>
  <g transform="matrix(7.3582 0 0 -7.3582 64.63 -73.215)">
   <path d="m0 0-0.07-1.188 0.07 0.015 0.068 1.082h0.235l-8e-3 0.095z" fill="#bdbcbc"/>
  </g>
  <g transform="matrix(7.3582 0 0 -7.3582 104.6 -81.58)">
   <path d="m0 0-0.366-0.018 0.02-2.329 0.064 0.01-9e-3 2.224 0.291 0.019z" fill="#bdbcbc"/>
  </g>
  <g transform="matrix(7.3582 0 0 -7.3582 84.333 -74.419)">
   <path d="m0 0 0.039 7e-3c-0.166 0.586-0.266 0.952-0.437 1.676h-0.047c0.169-0.701 0.268-1.063 0.445-1.683" fill="#bdbcbc"/>
  </g>
  <g transform="matrix(7.3582 0 0 -7.3582 131.82 -80.329)">
   <path d="m0 0-0.229-5e-3v-0.095c0.105 1e-3 0.195 5e-3 0.299 5e-3 -2e-3 0.341-2e-3 0.575-8e-3 0.976h-0.065c0-0.343 3e-3 -0.568 3e-3 -0.881" fill="#bdbcbc"/>
  </g>
  <g transform="matrix(7.3582 0 0 -7.3582 240.69 -86.498)">
   <path d="m0 0-0.067 2e-3v-1.873c-0.143 0.017-0.259 0.033-0.394 0.051v-0.082c0.168-0.022 0.295-0.04 0.461-0.064z" fill="#bdbcbc"/>
  </g>
  <g transform="matrix(7.3582 0 0 -7.3582 233.47 -56.602)">
   <path d="m0 0-0.068 0.013v-0.488l0.068-0.019z" fill="#bdbcbc"/>
  </g>
  <g transform="matrix(7.3582 0 0 -7.3582 222.7 -78.458)">
   <path d="m0 0-0.372 0.035-7e-3 -3.018 0.066-0.018 5e-3 2.943 0.308-0.029z" fill="#bdbcbc"/>
  </g>
  <g transform="matrix(7.3582 0 0 -7.3582 231.69 -61.754)">
   <path d="m0 0-0.07 0.046 0.024-0.046 0.109-0.094c0.232-0.05 0.348-0.077 0.581-0.131l0.049-0.011v0.074l-0.118 0.03c-0.231 0.053-0.347 0.082-0.575 0.132" fill="#bdbcbc"/>
  </g>
  <g transform="matrix(7.3582 0 0 -7.3582 232.86 -77.47)">
   <path d="m0 0-2e-3 -1.05 0.066-8e-3 4e-3 0.966 0.466-0.047v0.088z" fill="#bdbcbc"/>
  </g>
  <g transform="matrix(7.3582 0 0 -7.3582 206.36 -85.704)">
   <path d="m0 0c0.043-0.087 0.072-0.191 0.094-0.31 0.027-0.119 0.035-0.249 0.035-0.382v-0.039c-4e-3 -0.317-8e-3 -0.475-0.015-0.785-6e-3 -0.134-0.026-0.247-0.056-0.329l-0.08-0.139-0.066-0.156 0.066-0.183 0.08-0.159c0.03-0.107 0.049-0.237 0.051-0.387l0.012-0.663 0.066-0.021-7e-3 0.592c-7e-3 0.151-0.024 0.28-0.055 0.384l-0.08 0.159-0.069 0.185 0.069 0.159 0.08 0.137c0.033 0.083 0.055 0.195 0.056 0.328 9e-3 0.311 9e-3 0.466 0.016 0.784v0.041c0 0.134-0.01 0.263-0.035 0.382-0.024 0.118-0.054 0.223-0.09 0.309l-0.121 0.196 0.049-0.103" fill="#bdbcbc"/>
  </g>
  <g transform="matrix(7.3582 0 0 -7.3582 157.79 -73.097)">
   <path d="m0 0-0.069 0.032-0.011 9e-3 0.076-0.103 0.069-0.03c0.185-9e-3 0.275-0.015 0.463-0.027l0.072-6e-3v0.088l-0.139 0.01c-0.185 0.012-0.279 0.016-0.461 0.027" fill="#bdbcbc"/>
  </g>
  <g transform="matrix(7.3582 0 0 -7.3582 158.63 -82.42)">
   <path d="m0 0v-0.743l0.067-4e-3v0.656l0.418-0.011v0.092z" fill="#bdbcbc"/>
  </g>
  <g transform="matrix(7.3582 0 0 -7.3582 200.23 -73.535)">
   <path d="m0 0 0.069-0.012v0.808l0.437-0.034v0.085l-0.505 0.039z" fill="#bdbcbc"/>
  </g>
  <g transform="matrix(7.3582 0 0 -7.3582 172.22 -75.483)">
   <path d="m0 0 0.069-4e-3 4e-3 0.74 0.414-0.02v0.091l-0.482 0.022z" fill="#bdbcbc"/>
  </g>
  <g transform="matrix(7.3582 0 0 -7.3582 185.33 -63.87)">
   <path d="m0 0 0.068-0.01 0.01 2.269 0.412-0.025v0.086l-0.485 0.032z" fill="#bdbcbc"/>
  </g>
  <g transform="matrix(7.3582 0 0 -7.3582 128.56 -73.158)">
   <path d="m0 0c-0.187-0.01-0.279-0.017-0.463-0.027l-0.065 0.02-0.013 0.013 0.084-0.103 0.059-0.024c0.187 0.013 0.278 0.019 0.463 0.026l0.088 6e-3v0.095z" fill="#bdbcbc"/>
  </g>
  <g transform="matrix(7.3582 0 0 -7.3582 191.68 -85.568)">
   <path d="m0 0-0.087 0.133 0.02-0.041 0.073-0.23c0.017-0.088 0.022-0.184 0.022-0.283l-5e-3 -2.788c0-0.105-0.012-0.212-0.023-0.308-0.02-0.098-0.039-0.184-0.067-0.256l-0.086-0.148-9e-3 -0.01h-6e-3c-0.337 0.084-0.5 0.121-0.829 0.19l-0.063 0.044 0.063-0.089 0.072-0.045c0.323-0.072 0.487-0.11 0.826-0.193h4e-3l0.011 0.012 0.084 0.145c0.026 0.071 0.049 0.158 0.067 0.258 0.014 0.099 0.021 0.202 0.023 0.306l9e-3 2.79c0 0.098-9e-3 0.195-0.028 0.282l-0.071 0.231" fill="#bdbcbc"/>
  </g>
  <g transform="matrix(7.3582 0 0 -7.3582 178.42 -85.784)">
   <path d="m0 0-0.066 0.092v-2e-3l0.063-0.186 0.025-0.24v-1.198l-0.025-0.214-0.058-0.158-0.064-0.08-0.031-0.012c-0.215 0.024-0.32 0.034-0.525 0.054l-0.161 0.018-2e-3 -0.763 0.068-0.014 4e-3 0.685 0.16-0.016c0.205-0.022 0.308-0.033 0.522-0.057l0.031 0.011 0.065 0.077 0.059 0.164 0.027 0.213 2e-3 1.198-0.026 0.24-0.068 0.188" fill="#bdbcbc"/>
  </g>
  <g transform="matrix(7.3582 0 0 -7.3582 173.24 -60.195)">
   <path d="m0 0c-0.22 0.034-0.381 0.061-0.593 0.092v-0.085c0.247-0.032 0.417-0.061 0.662-0.101l2e-3 0.762-0.069 0.015z" fill="#bdbcbc"/>
  </g>
  <g transform="matrix(7.3582 0 0 -7.3582 142.98 -67.028)">
   <path d="m0 0 2e-3 -0.579h-0.112c-0.155 0-0.28-2e-3 -0.446-6e-3l2e-3 -0.094c0.2 6e-3 0.339 8e-3 0.515 8e-3h0.108v0.668z" fill="#bdbcbc"/>
  </g>
  <g transform="matrix(7.3582 0 0 -7.3582 145.64 -86.815)">
   <path d="m0 0v-0.587h-0.127l-0.031-0.11c-0.094-0.322-0.152-0.515-0.225-0.76-0.033-0.104-0.111-0.362-0.111-0.362l4e-3 -0.777h0.068l-2e-3 0.688s0.076 0.257 0.108 0.357c0.076 0.247 0.131 0.442 0.226 0.762l0.032 0.11 0.123-2e-3v0.681z" fill="#bdbcbc"/>
  </g>
  <g transform="matrix(7.3582 0 0 -7.3582 216.27 -79.047)">
   <path d="m0 0-0.378 0.031-4e-3 -0.784-0.239 0.033v-0.086c0.112-0.014 0.2-0.023 0.311-0.04v0.787l0.31-0.029z" fill="#bdbcbc"/>
  </g>
  <g transform="matrix(7.3582 0 0 -7.3582 203.96 -67.223)">
   <path d="m0 0-0.336 0.061-0.172 0.029s-2e-3 -1.188-6e-3 -1.874c-0.186 0.052-0.336 0.092-0.52 0.143v-0.076c0.225-0.058 0.377-0.098 0.589-0.159 2e-3 0.685 7e-3 1.872 7e-3 1.872l0.17-0.029 0.266-0.047z" fill="#bdbcbc"/>
  </g>
  <g transform="matrix(7.3582 0 0 -7.3582 221.04 -47.516)">
   <path d="m0 0c-0.272 0.096-0.463 0.162-0.729 0.249v-0.07c0.303-0.097 0.501-0.169 0.795-0.271l2e-3 1.181-0.066 0.018z" fill="#bdbcbc"/>
  </g>
  <g transform="matrix(7.3582 0 0 -7.3582 241.06 -62.975)">
   <path d="m0 0c-0.022 0.148-0.051 0.279-0.086 0.388-0.041 0.105-0.08 0.193-0.129 0.259l-0.031 0.04 0.091-0.205c0.037-0.112 0.069-0.241 0.086-0.391 0.024-0.149 0.035-0.303 0.035-0.456v-1.654c0-0.159-0.013-0.309-0.035-0.442-0.025-0.133-0.058-0.248-0.096-0.338-0.044-0.1-0.081-0.148-0.113-0.173l-0.027-0.011-7e-3 3e-3c-0.515 0.196-0.784 0.299-1.218 0.458v-0.071c0.473-0.169 0.748-0.271 1.284-0.479l0.011-3e-3 0.031 0.014c0.021 0.019 0.065 0.069 0.106 0.169 0.037 0.093 0.074 0.206 0.094 0.337 0.022 0.135 0.037 0.285 0.037 0.444v1.653c0 0.154-0.015 0.307-0.033 0.458" fill="#bdbcbc"/>
  </g>
  <g transform="matrix(7.3582 0 0 -7.3582 225.12 -71.757)">
   <path d="m0 0c-0.093 0.012-0.172 0.025-0.263 0.037v-0.083c0.123-0.016 0.212-0.031 0.326-0.046 6e-3 0.703 6e-3 1.405 8e-3 2.107l-0.071 1e-3z" fill="#bdbcbc"/>
  </g>
  <g transform="matrix(7.3582 0 0 -7.3582 208.39 -51.676)">
   <path d="m0 0c-0.154 0.047-0.275 0.084-0.464 0.14l0.031-0.064 0.018-0.025c0.197-0.057 0.32-0.094 0.48-0.143v1.042l-0.063 0.022z" fill="#bdbcbc"/>
  </g>
  <g transform="matrix(7.3582 0 0 -7.3582 164.8 -75.03)">
   <path d="m0 0-0.082 0.113 0.013-0.023 0.061-0.186 0.023-0.234v-0.938l-0.029-0.242-0.066-0.195-0.078-0.11-0.034-0.012h-4e-3c-0.371 0.04-0.584 0.063-0.904 0.088v-0.088c0.359-0.027 0.574-0.048 0.973-0.096h6e-3l0.029 0.015 0.078 0.111 0.074 0.194 0.022 0.244v0.936l-0.02 0.235-0.062 0.188" fill="#bdbcbc"/>
  </g>
  <g transform="matrix(7.3582 0 0 -7.3582 67.871 -58.525)">
   <path d="m0 0-0.168-0.045c-0.113-0.03-0.166-0.045-0.28-0.075l-0.103-0.027-7e-3 -0.111c-0.028-0.5-0.041-0.769-0.07-1.282-0.218-0.077-0.373-0.13-0.576-0.206v-0.114c0.237 0.084 0.403 0.141 0.646 0.229 0.026 0.51 0.041 0.782 0.069 1.281l8e-3 0.114 0.102 0.025c0.112 0.029 0.166 0.044 0.278 0.072l0.11 0.031z" fill="#bdbcbc"/>
  </g>
  <g transform="matrix(7.3582 0 0 -7.3582 83.413 -66.12)">
   <path d="m0 0-0.027 0.101-0.29-0.043c4e-3 -0.707 9e-3 -1.077 0.011-1.848-0.202-0.058-0.348-0.103-0.53-0.16v-0.114c0.214 0.069 0.369 0.114 0.599 0.181-4e-3 0.771-7e-3 1.139-0.011 1.846z" fill="#bdbcbc"/>
  </g>
  <g transform="matrix(7.3582 0 0 -7.3582 57.013 -86.71)">
   <path d="m0 0 1e-3 -1.836c-0.142-0.018-0.254-0.033-0.388-0.051v-0.101c0.164 0.023 0.289 0.038 0.457 0.062l-4e-3 1.926z" fill="#bdbcbc"/>
  </g>
  <g transform="matrix(7.3582 0 0 -7.3582 72.786 -57.676)">
   <path d="m0 0 4e-3 -0.993c-0.205-0.065-0.351-0.114-0.536-0.173l2e-3 -0.115c0.22 0.074 0.377 0.122 0.6 0.198l-7e-3 1.097z" fill="#bdbcbc"/>
  </g>
  <g transform="matrix(7.3582 0 0 -7.3582 51.078 -51.816)">
   <path d="m0 0v-1.225c-0.319-0.122-0.532-0.203-0.832-0.32v-0.116c0.336 0.128 0.56 0.215 0.902 0.342l-3e-3 1.337z" fill="#bdbcbc"/>
  </g>
  <g transform="matrix(7.3582 0 0 -7.3582 53.607 -68.839)">
   <path d="m0 0 2e-3 -0.935c-0.137-0.034-0.239-0.06-0.405-0.101l-0.113-0.028 2e-3 -1.186 0.066 0.019v1.076l0.114 0.027c0.168 0.043 0.266 0.066 0.402 0.1v1.037l-0.068-9e-3" fill="#bdbcbc"/>
  </g>
  <g transform="matrix(7.3582 0 0 -7.3582 98.849 -80.56)">
   <path d="m0 0v0.093l-0.37-0.019 5e-3 -0.645-0.197-0.021v-0.098c0.091 8e-3 0.17 0.016 0.265 0.025l-5e-3 0.645z" fill="#bdbcbc"/>
  </g>
  <g transform="matrix(7.3582 0 0 -7.3582 116.26 -67.855)">
   <path d="m0 0-0.153-0.019c-0.097-0.012-0.144-0.015-0.24-0.027l-0.118-0.017-9e-3 -0.128c-0.022-0.33-0.035-0.517-0.054-0.855-0.165-0.024-0.29-0.046-0.442-0.075l4e-3 -0.106c0.182 0.036 0.316 0.058 0.504 0.091 0.019 0.336 0.032 0.523 0.054 0.853l0.01 0.127 0.121 0.018c0.094 0.013 0.141 0.017 0.237 0.026l0.092 0.01z" fill="#bdbcbc"/>
  </g>
  <g transform="matrix(7.3582 0 0 -7.3582 90.981 -86.71)">
   <path d="m0 0h-0.066c4e-3 -0.308 4e-3 -0.521 6e-3 -0.82l-0.143-0.023 5e-3 -1.168c7e-3 -0.751 9e-3 -1.5 0.015-2.254-0.14-0.032-0.248-0.059-0.381-0.092l0.029-0.102c0.154 0.036 0.265 0.067 0.423 0.104-8e-3 0.75-0.013 1.499-0.019 2.252l-5e-3 1.168 0.143 0.025c-1e-3 0.327-1e-3 0.55-7e-3 0.91" fill="#bdbcbc"/>
  </g>
  <g transform="matrix(7.3582 0 0 -7.3582 106.37 -86.771)">
   <path d="m0 0c0-0.529 6e-3 -0.83 9e-3 -1.306l-0.177-0.013 2e-3 -0.096 0.24 0.017c-1e-3 0.498-1e-3 0.812-0.01 1.398z" fill="#bdbcbc"/>
  </g>
  <g transform="matrix(7.3582 0 0 -7.3582 120.2 -66.001)">
   <path d="m0 0c7e-3 -0.205 7e-3 -0.376 9e-3 -0.629-0.159-0.019-0.277-0.038-0.422-0.056l8e-3 -0.103c0.176 0.026 0.303 0.043 0.478 0.063-1e-3 0.294-1e-3 0.482-1e-3 0.732z" fill="#bdbcbc"/>
  </g>
  <g transform="matrix(7.3582 0 0 -7.3582 103.05 -63.727)">
   <path d="m0 0c3e-3 -0.233 5e-3 -0.423 5e-3 -0.711-0.235-0.046-0.4-0.086-0.614-0.135v-0.106c0.251 0.058 0.424 0.096 0.685 0.149-5e-3 0.328-5e-3 0.534-5e-3 0.813z" fill="#bdbcbc"/>
  </g>
  <g transform="matrix(7.3582 0 0 -7.3582 132.68 -74.247)">
   <path d="m0 0-0.061 0.171-0.065 0.088 0.059-0.165 0.022-0.219 4e-3 -0.894-0.025-0.236-0.063-0.202-0.093-0.129-0.045-0.029c-0.36-0.025-0.572-0.043-0.88-0.076v-0.099c0.347 0.038 0.563 0.054 0.95 0.081l0.049 0.03 0.082 0.13 0.069 0.203 0.027 0.235-3e-3 0.893-0.027 0.218" fill="#bdbcbc"/>
  </g>
 </g>
</svg>
