<svg width="800" height="473.5" version="1.1" viewBox="0 0 211.67 125.28" xmlns="http://www.w3.org/2000/svg">
 <g transform="translate(-37.286 143.89)">
  <g transform="matrix(7.3786 0 0 -7.3786 37.286 -64.647)" fill="#fff">
   <path d="m0 0v2.316h1.16v-2.292c0-0.592 0.3-0.876 0.759-0.876s0.759 0.272 0.759 0.848v2.32h1.16v-2.284c0-1.332-0.757-1.914-1.928-1.914-1.174 0-1.91 0.594-1.91 1.882" fill="#fff"/>
  </g>
  <g transform="matrix(7.3786 0 0 -7.3786 84.613 -67.141)" fill="#fff">
   <path d="m0 0c0.388 0 0.613 0.187 0.613 0.488v0.012c0 0.323-0.237 0.487-0.621 0.487h-0.746v-0.987zm-1.897 1.979h1.953c0.626 0 1.062-0.167 1.339-0.449 0.242-0.235 0.363-0.554 0.363-0.96v-0.012c0-0.631-0.337-1.048-0.847-1.265l0.985-1.437h-1.32l-0.83 1.248h-0.5v-1.248h-1.143z" fill="#fff"/>
  </g>
  <g transform="matrix(7.3786 0 0 -7.3786 116.61 -58.105)" fill="#fff">
   <path d="m0 0c0.347 0 0.548 0.135 0.548 0.379v9e-3c0 0.222-0.177 0.371-0.56 0.371h-0.871v-0.759zm-0.164 1.56c0.345 0 0.538 0.117 0.538 0.36v0.01c0 0.223-0.173 0.352-0.517 0.352h-0.74v-0.722zm-1.832 1.643h2.111c0.521 0 0.884-0.132 1.128-0.373 0.164-0.165 0.264-0.381 0.264-0.664v-0.013c0-0.476-0.271-0.76-0.635-0.918 0.5-0.164 0.817-0.448 0.817-1.008v-9e-3c0-0.707-0.578-1.137-1.559-1.137h-2.126z" fill="#fff"/>
  </g>
  <g transform="matrix(7.3786 0 0 -7.3786 150.84 -63.308)" fill="#fff">
   <path d="m0 0-0.457 1.173-0.466-1.173zm-1 2.526h1.099l1.754-4.15h-1.225l-0.298 0.735h-1.591l-0.291-0.735h-1.205z" fill="#fff"/>
  </g>
  <g transform="matrix(7.3786 0 0 -7.3786 167.52 -81.739)" fill="#fff">
   <path d="m0 0h1.063l1.695-2.18v2.18h1.13v-4.122h-0.999l-1.761 2.261v-2.261h-1.128z" fill="#fff"/>
  </g>
  <g transform="matrix(7.3786 0 0 -7.3786 37.286 -46.042)">
   <path d="m0 0h0.466l1.311-3.179 1.317 3.179h0.449l-1.587-3.718h-0.369z" fill="#27984e"/>
  </g>
  <path d="m86.67-46.045h3.0843v27.227h-3.0843z" fill="#27984e"/>
  <g transform="matrix(7.3786 0 0 -7.3786 115.3 -46.042)">
   <path d="m0 0h2.669v-0.38h-2.253v-1.26h2.014v-0.381h-2.014v-1.292h2.279v-0.377h-2.695z" fill="#27984e"/>
  </g>
  <g transform="matrix(7.3786 0 0 -7.3786 155.91 -46.042)">
   <path d="m0 0h0.453l1.054-3.074 1.013 3.084h0.342l1.013-3.084 1.056 3.074h0.434l-1.312-3.718h-0.357l-1.012 2.994-1.019-2.994h-0.345z" fill="#27984e"/>
  </g>
  <g transform="matrix(7.3786 0 0 -7.3786 106.42 -87.31)">
   <path d="m0 0 7.248-0.01h-4e-3 0.83l1.257 3.898-1.021-1.908z" fill="#ea272c"/>
  </g>
  <g transform="matrix(7.3786 0 0 -7.3786 207.02 -90.091)" fill="#fff">
   <path d="m0 0-4.451 7.291 2.232-6.892h-2e-3l0.255-0.786 4.096 6e-3z" fill="#fff"/>
  </g>
  <g transform="matrix(7.3786 0 0 -7.3786 248.95 -96.929)">
   <path d="m0 0-5.869-4.251v2e-3l-0.667-0.486 1.271-3.891-0.295 2.141z" fill="#27984e"/>
  </g>
  <g transform="matrix(7.3786 0 0 -7.3786 37.286 -88.866)">
   <path d="m0 0 0.158 0.184c0.141-0.123 0.279-0.192 0.457-0.192 0.159 0 0.262 0.074 0.262 0.185v5e-3c0 0.106-0.059 0.161-0.33 0.223-0.314 0.077-0.485 0.168-0.485 0.438v3e-3c0 0.252 0.205 0.424 0.496 0.424 0.216 0 0.383-0.061 0.533-0.183l-0.14-0.194c-0.131 0.098-0.261 0.152-0.395 0.152-0.152 0-0.239-0.079-0.239-0.174v-6e-3c0-0.111 0.066-0.162 0.347-0.231 0.312-0.074 0.472-0.186 0.472-0.429v-3e-3c0-0.273-0.218-0.438-0.527-0.438-0.221 0-0.433 0.079-0.609 0.236" fill="#ea272c"/>
  </g>
  <path d="m47.8-95.438h1.8594v8.1534h-1.8594zm-0.09621-3.0326h2.0144v1.7778h-2.0144z" fill="#ea272c"/>
  <g transform="matrix(7.3786 0 0 -7.3786 52.094 -95.438)">
   <path d="m0 0h0.254v-0.25c0.07 0.166 0.195 0.279 0.391 0.272v-0.27h-0.017c-0.218 0-0.374-0.144-0.374-0.438v-0.419h-0.254z" fill="#ea272c"/>
  </g>
  <path d="m58.573-95.438h1.8743v8.1534h-1.8743zm-0.06693-3.0326h2.0217v1.7778h-2.0217z" fill="#ea272c"/>
  <g transform="matrix(7.3786 0 0 -7.3786 62.802 -90.243)">
   <path d="m0 0v0.704h0.255v-0.63c0-0.169 0.084-0.268 0.233-0.268 0.15 0 0.252 0.101 0.252 0.275v0.623h0.253v-1.105h-0.253v0.171c-0.069-0.104-0.178-0.193-0.347-0.193-0.248 0-0.393 0.166-0.393 0.423" fill="#ea272c"/>
  </g>
  <g transform="matrix(7.3786 0 0 -7.3786 71.802 -88.347)">
   <path d="m0 0 0.115 0.172c0.117-0.09 0.246-0.136 0.359-0.136 0.111 0 0.171 0.046 0.171 0.118v8e-3c0 0.082-0.116 0.112-0.245 0.152-0.164 0.046-0.344 0.113-0.344 0.325v5e-3c0 0.209 0.172 0.335 0.391 0.335 0.14 0 0.291-0.046 0.407-0.125l-0.101-0.178c-0.108 0.063-0.218 0.103-0.312 0.103-0.098 0-0.152-0.047-0.152-0.112v-4e-3c0-0.079 0.117-0.11 0.248-0.153 0.16-0.051 0.345-0.123 0.345-0.324v-4e-3c0-0.231-0.183-0.348-0.414-0.348-0.157 0-0.33 0.059-0.468 0.166" fill="#ea272c"/>
  </g>
  <g transform="matrix(7.3786 0 0 -7.3786 83.526 -92.786)">
   <path d="m0 0-0.513 0.721h0.304l0.365-0.526 0.363 0.526h0.295l-0.506-0.716 0.529-0.751h-0.304l-0.386 0.556-0.384-0.556h-0.297z" fill="#ea272c"/>
  </g>
  <g transform="matrix(7.3786 0 0 -7.3786 91.668 -98.104)">
   <path d="m0 0h0.271l0.447-0.693 0.446 0.693h0.276v-1.467h-0.259v1.052l-0.463-0.692h-7e-3l-0.459 0.687v-1.047h-0.252z" fill="#ea272c"/>
  </g>
 </g>
</svg>
