<svg width="770.26" height="800" version="1.1" viewBox="0 0 203.8 211.67" xmlns="http://www.w3.org/2000/svg">
 <g transform="translate(197.25 179.27)" fill="#110f0d">
  <g transform="matrix(13.826 0 0 -13.826 -129.5 -140.93)">
   <path d="m0 0c0.115-0.214 0.307-0.189 0.493-0.081 0.105 0.061 0.236 0.217 0.149 0.364-0.065 0.115-0.21 0.095-0.32 0.062l-0.258-0.077c-0.137-0.04-0.284-0.045-0.374 0.114-0.059 0.097-0.103 0.325 0.182 0.493 0.202 0.117 0.443 0.11 0.565-0.098l-0.098-0.057c-0.097 0.153-0.268 0.155-0.412 0.072-0.135-0.078-0.232-0.201-0.141-0.353 0.054-0.095 0.149-0.094 0.242-0.065l0.287 0.083c0.168 0.046 0.323 0.053 0.421-0.115 0.044-0.071 0.141-0.307-0.219-0.522-0.242-0.139-0.482-0.135-0.616 0.122z" fill="#110f0d"/>
  </g>
  <g transform="matrix(13.826 0 0 -13.826 -129.06 -153.88)">
   <path d="m0 0 0.82 0.477 0.048-0.083-0.34-0.198 0.548-0.938-0.098-0.057-0.545 0.942-0.384-0.225z" fill="#110f0d"/>
  </g>
  <g transform="matrix(13.826 0 0 -13.826 -119.01 -159.61)">
   <path d="m0 0 0.094 0.064 0.368-0.633c0.135-0.24 0.303-0.265 0.489-0.156 0.189 0.111 0.248 0.266 0.113 0.503l-0.372 0.632 0.097 0.058 0.38-0.654c0.123-0.211 0.115-0.454-0.17-0.622-0.283-0.164-0.501-0.051-0.62 0.159z" fill="#110f0d"/>
  </g>
  <g transform="matrix(13.826 0 0 -13.826 -98.044 -154.54)">
   <path d="m0 0 0.207 0.12c0.294 0.171 0.35 0.369 0.172 0.675-0.177 0.305-0.376 0.354-0.671 0.181l-0.208-0.121zm-0.642 0.882 0.354 0.208c0.309 0.169 0.566 0.097 0.766-0.24 0.195-0.334 0.129-0.597-0.176-0.785l-0.353-0.206z" fill="#110f0d"/>
  </g>
  <g transform="matrix(13.826 0 0 -13.826 -95.653 -173.31)">
   <path d="m0 0 0.096 0.057 0.594-1.022-0.096-0.058z" fill="#110f0d"/>
  </g>
  <g transform="matrix(13.826 0 0 -13.826 -80.139 -164.56)">
   <path d="m0 0c0.271 0.157 0.253 0.451 0.123 0.676-0.129 0.221-0.375 0.383-0.644 0.224-0.271-0.157-0.254-0.45-0.124-0.673 0.13-0.222 0.377-0.384 0.645-0.227m-0.571 0.984c0.322 0.186 0.629 0.026 0.793-0.253 0.162-0.28 0.148-0.625-0.172-0.811-0.322-0.189-0.63-0.028-0.792 0.253-0.16 0.277-0.151 0.624 0.171 0.811" fill="#110f0d"/>
  </g>
  <g transform="matrix(13.826 0 0 -13.826 -44.67 -5.0602)">
   <path d="m0 0 0.393 0.228c0.124 0.074 0.188 0.216 0.111 0.35-0.081 0.134-0.206 0.172-0.362 0.081l-0.392-0.225zm-0.406 0.459 0.503 0.293c0.179 0.105 0.382 0.105 0.5-0.093 0.078-0.138 0.075-0.293-0.053-0.403l2e-3 -1e-3c0.152 0.064 0.255-0.011 0.336-0.136l0.216-0.253-0.12-0.066-0.125 0.153c-0.097 0.148-0.212 0.311-0.405 0.189l-0.395-0.231 0.283-0.487-0.107-0.06z" fill="#110f0d"/>
  </g>
  <g transform="matrix(13.826 0 0 -13.826 -30.751 -10.448)">
   <path d="m0 0 0.432 0.252-0.539 0.439zm-0.222 0.764 0.118 0.067 1.068-0.845-0.113-0.065-0.332 0.262-0.501-0.291 0.067-0.417-0.113-0.065z" fill="#110f0d"/>
  </g>
  <g transform="matrix(13.826 0 0 -13.826 -17.478 -11.893)">
   <path d="m0 0 0.227 0.13c0.311 0.181 0.373 0.394 0.18 0.72-0.189 0.328-0.403 0.381-0.719 0.198l-0.221-0.133zm-0.689 0.946 0.377 0.219c0.337 0.185 0.615 0.106 0.826-0.254 0.208-0.359 0.14-0.641-0.186-0.84l-0.38-0.22z" fill="#110f0d"/>
  </g>
  <g transform="matrix(13.826 0 0 -13.826 -14.913 -31.997)">
   <path d="m0 0 0.103 0.061 0.639-1.096-0.103-0.061z" fill="#110f0d"/>
  </g>
  <g transform="matrix(13.826 0 0 -13.826 1.776 -22.64)">
   <path d="m0 0c0.289 0.172 0.267 0.483 0.129 0.723-0.137 0.24-0.402 0.409-0.689 0.242-0.291-0.17-0.271-0.483-0.132-0.723 0.138-0.238 0.402-0.41 0.692-0.242m-0.611 1.055c0.344 0.199 0.672 0.027 0.847-0.273 0.174-0.299 0.159-0.671-0.184-0.871-0.345-0.199-0.675-0.027-0.85 0.272s-0.161 0.67 0.187 0.872" fill="#110f0d"/>
  </g>
  <g transform="matrix(13.826 0 0 -13.826 -83.232 -67.128)">
   <path d="m0 0c-0.453 0.638-1.324 1.539-2.684 1.77l-0.011-3.352z" fill="#110f0d"/>
  </g>
  <g transform="matrix(13.826 0 0 -13.826 -127.77 -32.672)">
   <path d="m0 0-0.01 4.316h-0.107c-1.481 0.066-2.356-0.489-2.762-0.736-1.02-0.625-1.546-1.692-1.546-1.692l0.026 2.219 3.976 2.312 0.016 0.702-4.618-2.688 0.032-6.27s0.424 0.267 0.544 0.319c0 0-9e-3 1.671 0.04 2.016 0.296 1.547 1.826 3.204 3.885 3.268l0.101-7.925s-0.827-0.054-1.854 0.441c-0.488 0.237-1.057 0.696-1.515 1.389l2.865 1.668 0.01 0.737-3.658-2.128c0.883-1.937 2.639-2.502 3.324-2.594 1.54-0.232 2.59 0.262 3.048 0.525 0.554 0.316 1.775 1.176 2.21 2.919 0.216 0.874 0.19 2.006-0.389 3.039 0 0-0.034 0.079-0.107 0.208z" fill="#110f0d"/>
  </g>
  <g transform="matrix(13.826 0 0 -13.826 -121.86 -43.163)">
   <path d="m0 0 0.02 6.564 2.801-4.816-0.027-0.015 0.058-0.075zm8.737-0.1-2.031 3.491 0.42 0.245v0.582l-0.673-0.391-2.952 5.073-3.911-2.28 0.085 0.047v-7.272l3.368 1.961 0.04-0.07h6e-3l2.03-3.49z" fill="#110f0d" fill-rule="evenodd"/>
  </g>
 </g>
</svg>
