<svg width="800" height="303.61" version="1.1" viewBox="0 0 211.67 80.331" xmlns="http://www.w3.org/2000/svg">
 <g transform="translate(197.25 47.934)">
  <g transform="matrix(5.8856 0 0 -5.8856 -135.23 -9.3425)" fill="#fff">
   <path d="m0 0 0.119-0.127 0.053-0.139c0-0.107-0.08-0.31-0.207-0.531l-0.322-0.578-0.04-0.068-7e-3 0.031c-0.09 0.328-0.309 0.881-0.504 1.199-0.092 0.145-0.145 0.213-0.358 0.213h-0.607l0.148-0.131c0.178-0.162 0.418-0.523 0.612-0.918 0.185-0.377 0.328-0.689 0.328-1.008v-0.433c0-0.203 0-0.444-0.096-0.58l-0.076-0.121h0.92l-0.076 0.121c-0.094 0.136-0.094 0.377-0.094 0.58v0.201c0 0.564 0.146 0.789 0.441 1.24l0.063 0.088 0.617 0.961z" fill="#fff"/>
  </g>
  <g transform="matrix(5.8856 0 0 -5.8856 -113.44 8.8318)" fill="#fff">
   <path d="m0 0-0.037-0.104h0.935l-0.06 0.116c-0.09 0.166-0.111 0.357-0.135 0.558l-4e-3 0.037c-0.045 0.442-0.045 0.905-0.039 1.356l4e-3 0.375-4e-3 0.074c0 0.203 0 0.418 0.088 0.565l0.07 0.111h-0.623c-0.162 0-0.218-0.131-0.256-0.225l-7e-3 -0.017-0.828-2.002-0.016 0.045-0.705 2.076c-0.018 0.055-0.07 0.123-0.221 0.123h-0.855l0.224-0.141c0.078-0.052 0.082-0.082 0.082-0.201v-1.189c0-0.305 0-1.215-0.181-1.479l-0.125-0.182h0.855l-0.078 0.122c-0.094 0.136-0.094 0.441-0.094 0.796 0 0 2e-3 1.215 2e-3 1.487l0.029-0.061 0.973-2.515s0.994 2.351 1.088 2.566v-1.461c0-0.252 0-0.605-0.082-0.83" fill="#fff"/>
  </g>
  <g transform="matrix(5.8856 0 0 -5.8856 -102.63 .11805)" fill="#fff">
   <path d="m0 0v1.314h0.303c0.377 0 0.517-0.166 0.517-0.584 0-0.623-0.383-0.673-0.754-0.72l-0.066-0.01m0.506 1.656c-0.186 0-0.369-0.01-0.559-0.021-0.179-0.014-0.369-0.028-0.558-0.028h-0.139l0.078-0.119c0.09-0.142 0.09-0.373 0.09-0.582v-1.808c0-0.184 0-0.424-0.09-0.561l-0.08-0.121h0.941l-0.078 0.121c-0.111 0.168-0.111 0.477-0.111 0.58v0.77l0.037-0.022c0.094-0.058 0.182-0.115 0.449-0.115 0.592 0 0.983 0.414 0.983 1.031 0 0.547-0.358 0.875-0.963 0.875" fill="#fff"/>
  </g>
  <g transform="matrix(5.8856 0 0 -5.8856 -78.11 5.3145)" fill="#fff">
   <path d="m0 0v1.789c0 0.221 6e-3 0.42 0.1 0.592l0.064 0.109h-0.906l0.062-0.109c0.092-0.172 0.098-0.371 0.098-0.592v-0.603h-1.256v0.603c0 0.221 8e-3 0.42 0.096 0.592l0.066 0.109h-0.904l0.059-0.109c0.091-0.172 0.103-0.371 0.103-0.592v-1.789c0-0.223-0.012-0.418-0.103-0.586l-0.059-0.115h0.904l-0.066 0.115c-0.088 0.166-0.096 0.363-0.096 0.586v0.844h1.256v-0.844c0-0.223-6e-3 -0.42-0.098-0.586l-0.062-0.115h0.906l-0.064 0.115c-0.094 0.166-0.1 0.363-0.1 0.586" fill="#fff"/>
  </g>
  <g transform="matrix(5.8856 0 0 -5.8856 -67.258 7.7405)" fill="#fff">
   <path d="m0 0c-0.861 0-0.906 1.15-0.906 1.381 0 0.596 0.238 1.236 0.906 1.236 0.859 0 0.906-1.15 0.906-1.383 0-0.601-0.24-1.234-0.906-1.234m0.037 2.983c-0.951 0-1.59-0.7-1.59-1.735 0-1.012 0.567-1.611 1.516-1.611s1.592 0.695 1.592 1.734c0 1.008-0.571 1.612-1.518 1.612" fill="#fff"/>
  </g>
  <g transform="matrix(5.8856 0 0 -5.8856 -40.658 -8.7105)" fill="#fff">
   <path d="m0 0 0.055 0.107h-0.75l0.062-0.107c0.051-0.102 0.104-0.242 0.104-0.578v-1.606l-0.942 1.33-0.291 0.452c-0.107 0.173-0.213 0.334-0.263 0.402-0.079 0.107-0.155 0.107-0.25 0.107h-0.666l0.13-0.13c0.121-0.12 0.129-0.352 0.129-0.581v-1.013c0-0.412 0-0.983-0.158-1.36l-0.049-0.107h0.78l-0.045 0.107c-0.127 0.305-0.135 0.713-0.135 1.057v1.252c0.105-0.158 1.707-2.432 1.707-2.432h0.457l-0.016 0.514v1.906c0 0.287 0.047 0.502 0.141 0.68" fill="#fff"/>
  </g>
  <g transform="matrix(5.8856 0 0 -5.8856 -29.174 -9.3425)" fill="#fff">
   <path d="m0 0 0.117-0.127 0.053-0.139c0-0.107-0.08-0.31-0.205-0.531l-0.323-0.578-0.039-0.068-5e-3 0.031c-0.09 0.328-0.309 0.881-0.508 1.199-0.09 0.145-0.143 0.213-0.356 0.213h-0.605l0.144-0.131c0.184-0.162 0.422-0.523 0.614-0.918 0.183-0.377 0.328-0.689 0.328-1.008v-0.433c0-0.203 0-0.444-0.096-0.58l-0.076-0.121h0.918l-0.074 0.121c-0.092 0.136-0.092 0.377-0.092 0.58v0.201c0 0.564 0.144 0.789 0.441 1.24l0.059 0.088 0.621 0.961z" fill="#fff"/>
  </g>
  <g transform="matrix(5.8856 0 0 -5.8856 -125.67 28.213)" fill="#fff">
   <path d="m0 0v1.793c0 0.221 8e-3 0.42 0.1 0.586l0.062 0.113h-0.906l0.062-0.113c0.092-0.166 0.104-0.365 0.104-0.586v-0.606h-1.26v0.606c0 0.221 4e-3 0.42 0.1 0.586l0.06 0.113h-0.908l0.064-0.113c0.094-0.166 0.102-0.365 0.102-0.586v-1.793c0-0.219-8e-3 -0.416-0.102-0.586l-0.064-0.111h0.908l-0.06 0.111c-0.096 0.17-0.1 0.367-0.1 0.586v0.844h1.26v-0.844c0-0.219-0.012-0.416-0.104-0.586l-0.062-0.111h0.906l-0.062 0.111c-0.092 0.17-0.1 0.367-0.1 0.586" fill="#fff"/>
  </g>
  <g transform="matrix(5.8856 0 0 -5.8856 -116.76 22.465)" fill="#fff">
   <path d="m0 0c0.07 0.172 0.371 0.918 0.371 0.918l8e-3 0.014 6e-3 0.011 6e-3 -0.017s0.248-0.76 0.298-0.926zm1.885-1.387c-0.424 0.782-0.707 1.668-0.983 2.535l-0.117 0.368h-0.691l-6e-3 -0.202c0-0.378-0.973-2.396-1.24-2.73l-0.2-0.258h0.834l-5e-3 0.086-0.012 0.172c0 0.246 0.191 0.676 0.39 1.076h0.971c0.033-0.094 0.518-1.334 0.518-1.334h0.695z" fill="#fff"/>
  </g>
  <g transform="matrix(5.8856 0 0 -5.8856 -93.319 28.857)" fill="#fff">
   <path d="m0 0c-0.211-0.201-0.424-0.246-0.697-0.246h-0.282v2.148c0 0.203 0 0.446 0.092 0.586l0.076 0.114h-0.919l0.076-0.114c0.092-0.14 0.092-0.383 0.092-0.586v-1.334c0-0.408-0.045-0.908-0.145-1.039l-0.096-0.117h1.475l0.357 0.018 0.01 0.06 0.135 0.688z" fill="#fff"/>
  </g>
  <g transform="matrix(5.8856 0 0 -5.8856 -81.375 28.857)" fill="#fff">
   <path d="m0 0c-0.213-0.201-0.424-0.246-0.695-0.246h-0.284v2.148c0 0.203 0 0.446 0.088 0.586l0.079 0.114h-0.92l0.076-0.114c0.094-0.14 0.094-0.383 0.094-0.586v-1.334c0-0.408-0.045-0.908-0.145-1.039l-0.098-0.117h1.477l0.359 0.018 6e-3 0.06 0.139 0.688z" fill="#fff"/>
  </g>
  <g transform="matrix(5.8856 0 0 -5.8856 -129.99 -26.424)" fill="#fff">
   <path d="m0 0c-0.074 0.496-0.643 1.014-1.479 1.014-1.296 0-2.638-1.305-2.638-3.483 0-0.515 0.021-1.025 0.041-1.521 0.023-0.487 0.041-0.987 0.041-1.485 0-2.439-1.496-4.013-3.807-4.013-1.76 0-3.082 1.099-3.082 2.562 0 1.508 1.322 2.602 3.153 2.602 1.324 0 2.082-0.465 2.082-1.272 0-0.814-0.748-1.449-1.7-1.449-0.521 0-0.922 0.201-1.22 0.619l-0.096 0.129-0.389-0.316 0.08-0.117c0.381-0.551 0.91-0.817 1.625-0.817 1.248 0 2.19 0.836 2.19 1.951 0 1.194-1.1 2.094-2.551 2.094-2.027 0-3.678-1.537-3.678-3.424 0-1.75 1.541-3.068 3.586-3.068 2.789 0 4.971 2.15 4.971 4.892 0 0.469-0.078 0.948-0.16 1.452-0.088 0.535-0.176 1.084-0.176 1.642 0 1.637 0.889 2.524 1.728 2.524 0.481 0 0.667-0.262 0.702-0.397 0.025-0.125-0.035-0.269-0.127-0.299-0.18-0.049-0.354 0.135-0.356 0.137l-0.158 0.164-0.096-0.205c-0.072-0.17-9e-3 -0.43 0.159-0.621 0.209-0.25 0.513-0.338 0.834-0.254 0.412 0.109 0.595 0.451 0.521 0.959" fill="#fff"/>
  </g>
  <g transform="matrix(5.8856 0 0 -5.8856 14.405 12.557)">
   <path d="m0 0c-0.254 2.525-1.117 4.76-2.49 6.467-1.489 1.842-3.508 3.035-6.002 3.543-2.477 0.502-5.192 0.299-8.067-0.617-2.408-0.762-4.929-2.032-7.289-3.674l-0.068-0.061-0.082-0.066 0.033-0.045c3.029 2.008 9.002 5.185 14.955 3.906 2.293-0.496 4.166-1.586 5.576-3.246 1.301-1.531 2.168-3.549 2.514-5.834v-0.014l0.873-0.398 0.049 0.014zm-4.301-3.336 6e-3 0.035c0.938 4.17 0.615 8.606-3.56 10.428-5.663 2.469-12.512-0.518-18.043-2.943l0.107 5e-3c5.254 2.125 11.455 4.678 16.838 2.729 4.447-1.609 4.836-5.994 3.932-10.205l-8e-3 -0.047zm-3.531 11.941c-5.496 1.963-12.213-0.908-16.93-3.664l-2e-3 -0.043c4.524 2.481 10.768 5.016 15.977 3.37 4.631-1.465 6.137-5.528 5.898-9.715l0.703-0.412c0.452 4.357-0.906 8.777-5.646 10.464" fill="#ecbd62"/>
  </g>
 </g>
</svg>
