<svg width="800" height="460.74" version="1.1" viewBox="0 0 211.67 121.9" xmlns="http://www.w3.org/2000/svg">
 <g transform="translate(197.25 89.508)" fill="#fff">
  <g transform="matrix(6.8923 0 0 -6.8923 -147.74 -11.341)">
   <path d="m0 0c0.141 0.081 0.504 0.101 1.271 0.101 2.198 0 3.63-0.162 3.63-1.372 0-0.625-0.686-2.178-4.175-2.178-1.25 0-2.259 0.545-2.259 1.593 0 0.444 0.908 1.493 1.533 1.856m0.182 5.708c0 0.988 0.242 2.259 1.653 2.259 1.513 0 1.715-1.513 1.715-2.541 0-1.271-0.343-2.34-1.735-2.34-1.533 0-1.633 1.694-1.633 2.622m0.262-9.802c1.23 0 5.345 0.625 5.345 3.186 0 1.916-1.654 2.219-3.772 2.219-2.017 0-2.259 0.141-2.259 0.585 0 0.827 1.593 0.807 2.017 0.827 3.066 0.202 3.066 2.622 3.066 2.924 0 0.787 0.101 0.928 0.222 0.928h0.927c0.303 0 0.363 0.02 0.363 0.343 0 0.242 0 0.504-0.141 0.504h-0.827c-0.806 0-1.371 0.222-1.896 0.464-0.524 0.242-1.028 0.444-1.734 0.444-1.755 0-2.985-1.15-2.985-2.763 0-1.271 0.605-1.957 1.593-2.663-0.343-0.06-2.138-0.443-2.138-1.069 0-0.463 1.21-1.331 1.553-1.532-1.129-0.545-2.602-1.11-2.602-2.461 0-0.787 0.726-1.936 3.268-1.936" fill="#fff"/>
  </g>
  <g transform="matrix(6.8923 0 0 -6.8923 -80.777 15.16)">
   <path d="m0 0c-0.475 0-0.788 0.333-0.788 0.778v1.82c0 0.445 0.313 0.778 0.788 0.778 0.479 0 0.739-0.313 0.739-0.749v-0.469h-0.46v0.479c0 0.157-0.088 0.269-0.269 0.269s-0.269-0.112-0.269-0.264v-1.908c0-0.152 0.088-0.264 0.269-0.264s0.269 0.112 0.269 0.269v0.484h0.46v-0.474c0-0.436-0.26-0.749-0.739-0.749" fill="#fff"/>
  </g>
  <g transform="matrix(6.8923 0 0 -6.8923 -64.286 14.755)">
   <path d="m0 0v1.37h-0.548v-1.37h-0.519v3.258h0.519v-1.414h0.548v1.414h0.519v-3.258z" fill="#fff"/>
  </g>
  <g transform="matrix(6.8923 0 0 -6.8923 -51.604 -1.8017)">
   <path d="m0 0-0.191-1.331h0.352zm0.303-2.402-0.083 0.636h-0.474l-0.098-0.636h-0.475l0.543 3.258h0.573l0.543-3.258z" fill="#fff"/>
  </g>
  <g transform="matrix(6.8923 0 0 -6.8923 -34.236 14.755)">
   <path d="m0 0-0.548 1.478-0.181 0.498v-1.976h-0.47v3.258h0.46l0.509-1.492 0.166-0.504v1.996h0.465v-3.258z" fill="#fff"/>
  </g>
  <g transform="matrix(6.8923 0 0 -6.8923 -18.724 14.755)">
   <path d="m0 0-0.548 1.478-0.181 0.498v-1.976h-0.47v3.258h0.46l0.509-1.492 0.166-0.504v1.996h0.465v-3.258z" fill="#fff"/>
  </g>
  <g transform="matrix(6.8923 0 0 -6.8923 -11.438 14.755)">
   <path d="m0 0v3.258h1.301v-0.46h-0.782v-0.9h0.543v-0.43h-0.543v-0.993h0.782v-0.475z" fill="#fff"/>
  </g>
  <g transform="matrix(6.8923 0 0 -6.8923 1.4789 14.755)">
   <path d="m0 0v3.258h0.519v-2.788h0.748v-0.47z" fill="#fff"/>
  </g>
  <g transform="matrix(6.8923 0 0 -6.8923 -79.9 -78.798)">
   <path d="m0 0v-2.784h-0.519v2.784h-0.503v0.475h1.516v-0.475z" fill="#fff"/>
  </g>
  <g transform="matrix(6.8923 0 0 -6.8923 -65.567 -59.611)">
   <path d="m0 0v1.37h-0.548v-1.37h-0.519v3.258h0.519v-1.413h0.548v1.413h0.519v-3.258z" fill="#fff"/>
  </g>
  <g transform="matrix(6.8923 0 0 -6.8923 -57.473 -59.611)">
   <path d="m0 0v3.258h1.301v-0.46h-0.782v-0.9h0.543v-0.43h-0.543v-0.993h0.782v-0.475z" fill="#fff"/>
  </g>
  <g transform="matrix(6.8923 0 0 -6.8923 -92.321 -21.839)">
   <path d="m0 0 0.153 0.318c0.025 0.306 0.025 0.739 0.025 0.994l-0.102 0.102c-0.356 0-0.968-0.217-1.311-0.382-0.128-0.09-0.255-0.179-0.255-0.484 0-0.561 0.535-0.765 0.802-0.765 0.191 0 0.446 0.09 0.688 0.217m0.841 3.796c0.191-0.268 0.254-0.523 0.254-1.058 0-0.496-0.051-2.101-0.051-2.241 0-0.586 0.408-0.637 0.51-0.637 0.051 0 0.344 0.089 0.484 0.191l0.076-0.038 0.039-0.128c0-0.242-0.574-0.789-1.147-0.789-0.293 0-0.662 0.165-0.815 0.636l-0.076 0.051c-0.472-0.331-1.019-0.547-1.147-0.585-0.14-0.051-0.445-0.077-0.509-0.077-0.446 0-0.879 0.548-0.879 1.185 0 0.229 0.102 0.471 0.242 0.649 0.127 0.166 0.318 0.229 0.51 0.319 0.191 0.076 1.21 0.356 1.49 0.445 0.293 0.09 0.369 0.153 0.369 0.23 0.013 0.114 0.026 0.891 0.026 1.044 0 0.319-0.37 0.853-0.994 0.853-0.267 0-0.433-0.076-0.522-0.14-0.077-0.038-0.115-0.267-0.089-0.522l-0.077-0.14c-0.127-0.102-0.764-0.42-0.827-0.42l-0.153 0.165c0 0.37 0.356 0.726 0.955 1.121 0.369 0.267 0.942 0.484 1.184 0.484 0.637 0 0.956-0.318 1.147-0.598" fill="#fff"/>
  </g>
  <g transform="matrix(6.8923 0 0 -6.8923 -75.601 -49.052)">
   <path d="m0 0c0.42 0.14 0.815 0.331 0.943 0.408 0.152 0.101 0.216 0.152 0.254 0.152l0.115-0.152c0-0.23-0.026-0.459-0.026-0.701l0.09-0.051c0.496 0.471 1.057 0.79 1.452 0.79 0.522 0 0.636-0.319 0.636-0.433l-0.076-0.179c-0.14-0.203-0.446-0.547-0.522-0.586l-0.178 0.039c-0.141 0.127-0.446 0.28-0.701 0.28-0.217 0-0.433-0.038-0.56-0.178-0.09-0.102-0.128-0.217-0.128-0.281 0-0.254 0.064-2.56 0.077-2.751 0.025-0.369 0.102-0.611 0.331-0.649l0.586-0.153c0.203-0.064 0.229-0.153 0.229-0.204 0-0.063-0.115-0.114-0.306-0.114-0.318 0-0.764 0.063-1.503 0.063-0.382 0-0.535-0.051-0.84-0.051-0.141 0-0.268 0.051-0.268 0.153 0 0.076 0.153 0.127 0.255 0.166 0.497 0.165 0.535 0.293 0.548 1.057v2.433c0 0.127 0 0.292-0.14 0.382-0.306 0.242-0.434 0.293-0.434 0.344 0 0.038 0.026 0.165 0.166 0.216" fill="#fff"/>
  </g>
  <g transform="matrix(6.8923 0 0 -6.8923 -28.619 -51.247)">
   <path d="m0 0 0.14-0.102c0 0.038 0.038-0.318 0.038-0.484 0-0.115-0.242-0.14-0.331-0.14h-1.388l-0.115-0.089c-0.012-0.255-0.025-2.127-0.025-2.739 0-0.318 0.076-0.484 0.216-0.624 0.242-0.216 0.51-0.242 0.777-0.242 0.166 0 0.433 0.077 0.624 0.191 0.115 0.064 0.14 0.077 0.191 0.077 0.013 0 0.077-0.026 0.077-0.14 0-0.102-0.089-0.23-0.179-0.319-0.343-0.331-0.789-0.56-1.362-0.56-0.523 0-0.968 0.318-1.121 0.599-0.14 0.216-0.166 0.483-0.166 0.84 0 0.471 0.051 2.382 0.051 2.828 0 0.089-0.229 0.178-0.484 0.254-0.102 0.039-0.178 0.102-0.178 0.14l0.076 0.14c0.446 0.357 0.841 0.663 1.019 0.879 0.153 0.179 0.242 0.281 0.293 0.281l0.179-0.14v-0.599l0.101-0.102c0.281 0 1.516 0.051 1.567 0.051" fill="#fff"/>
  </g>
  <g transform="matrix(6.8923 0 0 -6.8923 5.6362 -48.086)">
   <path d="m0 0c0.255-0.344 0.37-0.828 0.37-1.376l0.05-2.356c0-0.318 0.166-0.42 0.497-0.496 0.255-0.051 0.357-0.128 0.357-0.204 0-0.115-0.102-0.166-0.344-0.166-0.433 0-0.573 0.038-1.006 0.038-0.293 0-0.548-0.025-0.917-0.025-0.191 0-0.255 0.063-0.255 0.153 0 0.076 0.114 0.14 0.267 0.178 0.319 0.102 0.357 0.14 0.408 0.624 0.025 0.242 0 1.643 0 1.847 0 0.7-0.064 1.108-0.204 1.274-0.204 0.242-0.535 0.42-1.032 0.42-0.547 0-0.967-0.242-1.018-0.293-0.026-0.025-0.192-0.229-0.204-0.624-0.038-0.535-0.038-2.191-0.026-2.649 0.026-0.421 0.204-0.497 0.497-0.573 0.178-0.051 0.28-0.141 0.28-0.204 0-0.115-0.14-0.153-0.318-0.153-0.102 0-0.739 0.025-1.045 0.025-0.293 0-0.751-0.038-0.968-0.038-0.114 0-0.293 0.038-0.293 0.166 0 0.063 0.102 0.14 0.37 0.216 0.331 0.115 0.458 0.255 0.497 0.726 0.038 0.535 0.127 2.255 0.127 3.541 0 0.509 0.013 2.662-0.038 3.031-0.038 0.332-0.064 0.357-0.421 0.586-0.051 0.026-0.127 0.153-0.127 0.255l0.038 0.064c0.395 0.114 0.968 0.242 1.274 0.445l0.242 0.09 0.076-0.141c-0.127-0.917-0.178-4.088-0.178-4.457l0.089-0.077c0.522 0.472 1.07 0.739 1.605 0.739 0.637 0 1.083-0.217 1.35-0.586" fill="#fff"/>
  </g>
  <g transform="matrix(6.8923 0 0 -6.8923 -193.64 -20.205)">
   <path d="m0 0c-0.388 4.959 3.317 9.294 8.277 9.683 2.542 0.199 4.919-0.68 6.685-2.25-1.813 1.786-4.36 2.808-7.097 2.594-5.01-0.392-8.753-4.772-8.361-9.782 0.29-3.707 2.765-6.719 6.062-7.877-3.044 1.25-5.292 4.127-5.566 7.632" fill="#fff"/>
  </g>
 </g>
</svg>
