<svg width="800" height="292.67" version="1.1" viewBox="0 0 211.67 77.436" xmlns="http://www.w3.org/2000/svg">
 <g transform="translate(197.25 45.039)">
  <g transform="matrix(4.9444 0 0 -4.9444 -128.72 -25.138)">
   <path d="m0 0c-0.661 0.385-1.884 1.044-2.956 0.317-0.284-0.197-0.689-0.847-1.026-0.803-0.266 0.038-0.588 0.705-0.71 1.204-0.14 0.575-0.085 1.249-0.222 1.739-0.364 1.28-1.867 1.2-3.476 1.2-1.585 0-4.396 0.368-4.396 0.368l0.03-0.052c1.157-2.613 2.745-4.8 4.897-6.421-0.367-0.501-0.52-0.695-0.935-0.976-1.253-0.844-3.442-0.421-5.034-0.184-0.27-3.579 1.22-5.792 3.657-6.814 0.244 1.674 1.335 3.036 2.672 3.519 0.25 0.094 0.512 0.155 0.779 0.206l-0.01 0.45c-0.192-0.027-0.374-0.063-0.55-0.117-1.499-0.501-2.47-1.541-3.12-3.08-1.744 0.825-2.778 2.362-2.627 5.084 1.25-0.086 2.787-0.295 3.879 0.087 1.048 0.536 1.219 0.793 1.782 1.563 0.425-0.231 0.789-0.395 1.29-0.137-2.404 1.443-4.341 3.35-5.613 5.929 0.971-0.055 2.034-0.048 3.076 0 1.129 0.049 2.431 0.177 2.939-0.537 0.436-0.618 0.266-1.825 0.579-2.539 0.181-0.406 0.596-0.926 1.028-0.985 0.985-0.126 0.987 0.868 1.832 1.154 0.845 0.29 1.508-0.483 2.49-0.796-0.408-0.209-0.647-0.377-0.937-0.623-0.588-0.503-0.963-1.238-1.373-1.975l0.535 0.01-0.052 0.095c0.424 0.666 1.258 1.64 2.048 2.135 0.244 0.156 0.724 0.495 0.724 0.495s-0.537 0.094-1.2 0.484" fill="#80cc28"/>
  </g>
  <g fill="#fff">
   <g transform="matrix(4.9444 0 0 -4.9444 -116.09 -20.932)">
    <path d="m0 0v-0.393h0.428v-0.226h-0.428v-0.893c0-0.204 0.057-0.317 0.226-0.317l0.17 0.02 0.01-0.227c-0.052-0.021-0.144-0.042-0.261-0.042-0.14 0-0.256 0.051-0.326 0.129-0.08 0.09-0.114 0.233-0.114 0.428v0.902h-0.254v0.226h0.254v0.302z" fill="#fff"/>
   </g>
   <g transform="matrix(4.9444 0 0 -4.9444 -113.15 -22.777)">
    <path d="m0 0h0.295v-1.025h0.011c0.048 0.084 0.118 0.164 0.216 0.21 0.084 0.056 0.19 0.086 0.303 0.086 0.222 0 0.577-0.139 0.577-0.701v-0.983h-0.3v0.945c0 0.272-0.1 0.495-0.379 0.495-0.199 0-0.348-0.141-0.407-0.303l-0.021-0.146v-0.991h-0.295z" fill="#fff"/>
   </g>
   <g transform="matrix(4.9444 0 0 -4.9444 -99.501 -15.727)">
    <path d="m0 0c2e-3 0.186-0.078 0.484-0.411 0.484-0.305 0-0.436-0.278-0.461-0.484zm-0.872-0.215c4e-3 -0.404 0.264-0.572 0.558-0.572 0.212 0 0.345 0.042 0.459 0.084l0.054-0.213c-0.111-0.042-0.292-0.103-0.551-0.103-0.503 0-0.808 0.337-0.808 0.826 0 0.503 0.292 0.894 0.772 0.894 0.537 0 0.674-0.471 0.674-0.777l-7e-3 -0.143z" fill="#fff"/>
   </g>
   <g transform="matrix(4.9444 0 0 -4.9444 -158.36 1.1774)">
    <path d="m0 0c0 0.574-0.025 1.023-0.046 1.472h0.861l0.048-0.878h0.036c0.299 0.513 0.809 1.002 1.72 1.002 0.727 0 1.291-0.449 1.528-1.091h0.02c0.168 0.318 0.39 0.544 0.619 0.71 0.324 0.246 0.674 0.381 1.19 0.381 0.73 0 1.797-0.47 1.797-2.361v-3.2h-0.961v3.076c0 1.057-0.395 1.674-1.182 1.674-0.577 0-1.002-0.41-1.184-0.884-0.042-0.147-0.075-0.329-0.075-0.497v-3.369h-0.967v3.258c0 0.875-0.381 1.492-1.134 1.492-0.607 0-1.072-0.49-1.225-0.987-0.053-0.144-0.078-0.314-0.078-0.483v-3.28h-0.967z" fill="#fff"/>
   </g>
   <g transform="matrix(4.9444 0 0 -4.9444 -99.13 4.6736)">
    <path d="m0 0c0.013 0.614-0.259 1.608-1.359 1.608-1.018 0-1.441-0.921-1.517-1.608zm-2.889-0.712c0.024-1.333 0.864-1.883 1.856-1.883 0.705 0 1.144 0.123 1.505 0.268l0.178-0.694c-0.353-0.161-0.953-0.35-1.82-0.35-1.659 0-2.672 1.111-2.672 2.741 0 1.653 0.977 2.943 2.558 2.943 1.779 0 2.238-1.558 2.238-2.558 0-0.204-0.013-0.359-0.034-0.474z" fill="#fff"/>
   </g>
   <g transform="matrix(4.9444 0 0 -4.9444 -93.196 15.846)">
    <path d="m0 0c0.304-0.181 0.819-0.379 1.314-0.379 0.709 0 1.046 0.346 1.046 0.807 0 0.469-0.278 0.73-1.002 1-0.985 0.362-1.451 0.89-1.451 1.539 0 0.878 0.723 1.595 1.878 1.595 0.554 0 1.036-0.143 1.326-0.334l-0.235-0.71c-0.215 0.123-0.604 0.314-1.107 0.314-0.59 0-0.904-0.339-0.904-0.741 0-0.461 0.314-0.663 1.024-0.933 0.932-0.348 1.427-0.819 1.427-1.642 0-0.966-0.753-1.636-2.023-1.636-0.596 0-1.146 0.154-1.528 0.382z" fill="#fff"/>
   </g>
   <g transform="matrix(4.9444 0 0 -4.9444 -75.364 15.846)">
    <path d="m0 0c0.304-0.181 0.821-0.379 1.313-0.379 0.708 0 1.049 0.346 1.049 0.807 0 0.469-0.282 0.73-0.998 1-0.993 0.362-1.452 0.89-1.452 1.539 0 0.878 0.72 1.595 1.878 1.595 0.549 0 1.031-0.143 1.319-0.334l-0.231-0.71c-0.213 0.123-0.607 0.314-1.11 0.314-0.584 0-0.901-0.339-0.901-0.741 0-0.461 0.317-0.663 1.022-0.933 0.932-0.348 1.431-0.819 1.431-1.642 0-0.966-0.757-1.636-2.027-1.636-0.596 0-1.144 0.154-1.528 0.382z" fill="#fff"/>
   </g>
   <g transform="matrix(4.9444 0 0 -4.9444 -42.699 7.0587)">
    <path d="m0 0c-1.075 0.021-2.299-0.169-2.299-1.226 0-0.65 0.423-0.945 0.918-0.945 0.72 0 1.181 0.45 1.337 0.909 0.036 0.104 0.044 0.217 0.044 0.317zm0.971-1.474c0-0.471 0.018-0.93 0.08-1.301h-0.889l-0.093 0.684h-0.033c-0.293-0.425-0.888-0.806-1.661-0.806-1.103 0-1.661 0.773-1.661 1.56 0 1.312 1.162 2.033 3.268 2.024v0.109c0 0.448-0.127 1.271-1.237 1.259-0.515 0-1.044-0.148-1.425-0.405l-0.229 0.665c0.448 0.281 1.111 0.47 1.798 0.47 1.676 0 2.082-1.135 2.082-2.223z" fill="#fff"/>
   </g>
   <g transform="matrix(4.9444 0 0 -4.9444 -16.133 4.456)">
    <path d="m0 0c0 0.16-0.013 0.303-0.053 0.439-0.185 0.586-0.657 1.058-1.384 1.058-0.942 0-1.62-0.798-1.62-2.07 0-1.053 0.549-1.953 1.607-1.953 0.618 0 1.17 0.38 1.372 1.023 0.055 0.155 0.078 0.347 0.078 0.528zm0.989-2.506c0-1.257-0.26-2.011-0.776-2.494-0.539-0.482-1.306-0.651-1.985-0.651-0.656 0-1.375 0.158-1.816 0.451l0.249 0.763c0.362-0.237 0.922-0.441 1.598-0.441 1.011 0 1.754 0.528 1.754 1.913v0.594h-0.026c-0.293-0.505-0.887-0.909-1.728-0.909-1.346 0-2.316 1.147-2.316 2.661 0 1.845 1.204 2.878 2.461 2.878 0.946 0 1.449-0.488 1.695-0.935h0.029l0.03 0.811h0.873c-0.033-0.381-0.042-0.82-0.042-1.483z" fill="#fff"/>
   </g>
   <g transform="matrix(4.9444 0 0 -4.9444 9.7148 4.6736)">
    <path d="m0 0c0.011 0.614-0.261 1.608-1.36 1.608-1.013 0-1.44-0.921-1.52-1.608zm-2.887-0.712c0.022-1.333 0.862-1.883 1.849-1.883 0.714 0 1.147 0.123 1.506 0.268l0.184-0.694c-0.351-0.161-0.96-0.35-1.823-0.35-1.665 0-2.674 1.111-2.674 2.741 0 1.653 0.98 2.943 2.559 2.943 1.774 0 2.237-1.558 2.237-2.558 0-0.204-0.01-0.359-0.031-0.474z" fill="#fff"/>
   </g>
  </g>
 </g>
</svg>
