<svg width="800" height="312.56" version="1.1" viewBox="0 0 211.67 82.698" xmlns="http://www.w3.org/2000/svg">
 <g transform="translate(-25.114 50.364)">
  <g transform="matrix(5.6864 0 0 -5.6864 136.94 -20.194)">
   <path d="m0 0-0.277 0.11 0.125-0.192 0.038-0.07-6e-3 0.018zm0.491 0.732v0.232l0.173-0.084zm-0.699 0.32c0.08 0.059 0.203 0.315 0.412 0.246l-0.117-0.077 0.231-0.23zm0.046 1.879 0.125-0.451c-0.103-0.039-0.145 0.105-0.226 0.146 0.033 0.113-0.041 0.255 0.037 0.347-0.322 0.194-0.687 0.287-1.089 0.236l-0.073-0.026c0.316-0.821 0.409-1.511 0.683-2.219l0.267-0.058c-0.048-0.106-0.133-0.082-0.219-0.067 0.093-0.223 0.204-0.448 0.351-0.68 0.22 0.016 0.406-0.066 0.538-0.241l-0.064-0.29-0.168 0.144-0.081-0.075-3e-3 0.022c0.029-0.2-0.024-0.443-0.021-0.605 0-0.15 0.132-0.092 0.291 0.028l-0.099 0.014 0.099-0.014c0.126 0.1 0.269 0.245 0.377 0.358l-0.098 0.128h0.147l0.012-0.055 0.077 0.094c0.201 0.317 0.279 0.777 0.271 1.15-0.026 0.799-0.463 1.674-1.134 2.114m-1.828-1.904v0.383l0.294-0.383zm0.058-0.377 0.086 0.082 0.15-0.378c-0.15 0.063-0.277 0.063-0.236 0.296m0.086 2.313v-0.186zm0.14 0.098c-0.04 0.102-0.475-0.242-0.551-0.33-0.141-0.145-0.246-0.335-0.315-0.539 0.034-0.103 0.075-0.209 0.117-0.319l-0.179 0.124c-0.066-0.241-0.086-0.488-0.074-0.705 0.072-1.22 0.948-2.511 2.262-2.354l0.079 9e-3c-0.057 0.681-0.615 1.37-0.994 1.903-0.126 0.177-0.126 1.645-0.345 2.211" fill="#ab633d"/>
  </g>
  <g transform="matrix(5.6864 0 0 -5.6864 158.7 14.879)">
   <path d="m0 0c0 0.313-0.251 0.019-0.439 0.23l-0.019 0.055c-0.184-0.441-0.391-0.946-0.428-1.263-0.014-0.104 0.533-0.01 0.644 0.026 0.369 0.133 0.705 0.458 0.928 0.806-0.091-0.046-0.182-0.031-0.274 0h-0.032c-0.133 0.058-0.258 0.123-0.38 0.146m0.804 1.87v0.145c0.024-0.233 0.273-0.463 0.063-0.693-0.337 0.083 0.044 0.399-0.063 0.548m0-0.991v0.232l0.063-0.549zm0.063 1.523v-0.242l-0.23 0.086 0.21 0.193c-0.188 0.357-0.485 0.65-0.909 0.816l-0.076 0.028c-0.267-0.624-0.1-1.496-0.021-2.145 0.015-0.099-0.112-0.412-0.268-0.78l0.01 0.027c0.201-0.158 0.574-0.172 0.784-0.517l0.045-0.014h0.274l0.143 0.26 0.059 0.139-0.021 0.016 0.036 0.028c0.257 0.678 0.271 1.485-0.036 2.105m-2.666 0.432 0.081 0.086-0.081-0.086m0.845-2.373c0.152 0.64 0.271 1.252 0.169 2.068-0.028 0.241 0.236 0.531 0.34 0.726 0.168 0.314-0.843-0.034-0.976-0.109l-0.255-0.188 0.041-0.038-0.212-0.148 0.048 0.062c-0.161-0.173-0.301-0.379-0.397-0.574-0.215-0.439-0.308-0.969-0.261-1.482l0.063 0.016v-0.064c0.463-0.186 0.274 0.486 0.547 0.675 0.02-0.232-0.084-0.694-0.168-1.053 0.084 0.484-0.339-0.125-0.379 0.298-0.036-0.32 0.39-0.695 0.431-1.108 0.174-0.203 0.393-0.364 0.658-0.463l0.078-0.015c0.06 0.487 0.162 0.904 0.258 1.309l-0.084 4e-3 0.099 0.084" fill="#ab633d"/>
  </g>
  <g transform="matrix(5.6864 0 0 -5.6864 106.07 7.6492)">
   <path d="m0 0-0.059 0.064h-0.111v0.102l0.111-0.102 0.088-0.04-0.029-0.024m-1.756 3.253 5e-3 3e-3 -5e-3 -3e-3m2.138-3.133 0.043 0.082 0.013 0.032c9e-3 0.103-0.06 0.167-0.116 0.199l-0.064 0.217 0.01 0.114-5e-3 0.05v0.045l-0.014 0.06-0.099 0.222-0.041 0.13-0.047 0.096v0.116l-0.027 0.07 0.043 0.077 4e-3 0.065-0.01 0.035-0.039 0.055-0.039 0.022-0.056 0.064-0.043 0.025-1e-3 0.023-0.011 0.061-0.074 0.11-0.016 0.152-0.091 0.148-0.029 0.034-0.061 0.06-0.057 0.086-0.157 0.154-5e-3 0.015v-4e-3l-0.131-0.074 0.105 0.124-0.016 0.034-0.036 0.034-0.08 0.046-0.028 0.057-0.017 0.021-7e-3 0.017-0.041 0.048-0.042 0.02c-0.039 0.106-0.103 0.142-0.153 0.168l-0.033 0.012-0.018 0.013-0.04 0.065-0.037 0.04-0.072 0.042-0.024 0.047-0.023 0.024-0.133 0.064-0.12 0.05-0.181 0.117-0.017 0.014-0.204 0.117-0.034 0.059-0.017 0.012-0.142 0.078-0.07 0.01-0.019-0.01-0.205 0.12-0.06 9e-3 -0.094-0.018-0.063-0.043-0.059-0.12-0.01-0.066 0.01-0.032 0.042-0.056 0.072-0.041 0.023-2e-3 0.021-0.019 0.035-0.021 0.098-0.108 0.025-0.024 0.045-0.042 0.077-0.085 0.03-0.034 0.034-0.022 0.031-0.051 0.017-9e-3 0.04-0.029 0.025-0.051 0.029-0.025 0.138-0.078 0.064-0.117 0.062-0.043 0.044-0.021 0.088-0.108 0.039-0.055 0.086-0.05 0.014-0.082 0.049-0.089 0.04-0.03 0.04-0.022 0.085-0.038 3e-3 -0.114 0.081-0.196 0.028-0.027 0.109-0.061 0.048-0.159 0.131-0.176 0.013-0.043 0.1-0.097 0.047-0.126-6e-3 -0.044 6e-3 -0.082 0.042-0.191 0.127-0.011-0.114-0.044c0.032-0.109 0.061-0.206 0.077-0.278l-0.026-0.033-9e-3 -0.059 0.013-0.122 0.04-0.12-0.011-0.054v-0.068l2e-3 -0.019-9e-3 -0.018c0.165-0.184 0.416-0.304 0.357-0.658l-0.215 0.318c-0.244-0.074 0-0.261 0-0.383h-0.223l-3e-3 -7e-3v-0.158h-0.023v-0.074l5e-3 -0.037-0.022-0.04-8e-3 -0.068 8e-3 -0.022-0.038-0.063-0.01-0.054-0.016-0.08-0.03-0.049-0.047-0.08-0.01-0.052 8e-3 -0.074-0.043-0.042-0.015-0.017-0.078-0.141-0.01-0.053 0.01-0.04-0.191-0.345-0.027-6e-3 -0.052-7e-3 -0.069-0.03-0.027-0.029-0.117-0.217-0.015-0.034-5e-3 -0.018-0.042-0.015-0.05-0.039-0.064-0.111-0.024-0.012-0.083-0.047-0.097-0.083-0.027-0.01-0.053-0.038-0.044-0.078-0.022-2e-3 -0.05-0.046-0.041-0.068-0.062-0.044-0.084-0.038-0.091-0.06-0.033-0.028-0.036-0.071-0.03-0.011-0.116-0.026-0.12-0.045-0.046-0.022-0.019-0.012-0.376-0.096h-0.048c-0.042-0.014-0.147-0.026-0.248-0.045l-0.067-0.015c0.164-0.25 0.239-0.578 0.227-0.924l-0.019-0.01c0.119 0.049 0.268 0.079 0.425 0.103 0.172 0.034 0.344 0.062 0.484 0.112 0.151 0.045 0.287 0.129 0.41 0.211 0.119 0.079 0.229 0.161 0.345 0.217l0.041 0.032 0.053 0.106c0.186 0.028 0.309 0.097 0.414 0.269l0.039 0.016 0.04 0.038 0.343 0.335 0.044 0.042 0.118 0.208 0.07 0.014 0.08 0.111 0.037 0.032 0.063 0.126 0.014 0.085 0.061 0.041 0.063 0.112 1e-3 0.073-1e-3 0.019 0.037 0.063v0.09l0.091 0.165 0.026 4e-3 0.046 0.045 0.066 0.118v0.084l3e-3 0.022 4e-3 0.023v0.032l-3e-3 0.016 0.136 0.243 0.011 0.049-8e-3 0.171 9e-3 0.065 0.031 0.033 0.047 0.087 0.011 0.033-0.025 0.116-0.028 0.062-7e-3 0.035 2e-3 0.029-0.01 0.113 0.099 0.176 4e-3 0.068-0.027 0.062 0.027 0.03m-1.122-0.668 9e-3 0.071-9e-3 -0.069zm-7.405 0.215-4e-3 4e-3v5e-3zm3.409-3.343 0.06 0.055v0.048l0.061-0.106-0.121 3e-3m-0.215 0.103 0.18-0.103-0.18 0.103m-2.968 1.494 0.172 0.106c0.06-0.106-0.107-0.24-0.172-0.106m4.385-1.205-0.065-0.015-0.064-0.021-0.067-0.041-0.011-0.018-0.018-0.038-0.078-0.018 0.061 0.011 0.075-0.011c-0.259-0.166 0.072-0.756-0.434-0.551 0.064 0.099 0.088 0.189-9e-3 0.215h0.213c0.071 0.08-0.049 0.206-0.097 0.311l-0.049-0.011-0.021-0.132 4e-3 0.13-0.095-0.014-0.047 0.018-0.03 0.01-0.055-1e-3 -0.04 0.019-0.049 9e-3 -0.107-0.014-0.055-0.013-0.211 0.024-0.15-0.044-0.023 0.044-0.026 0.022-0.019 6e-3 4e-3 -0.044-0.137 0.082-0.064 8e-3 -0.103 0.029-0.067 0.022-0.153-8e-3 -0.071 0.012-0.017 4e-3 -0.086 0.03-0.027-1e-3 -0.072 0.037-0.055 8e-3 -0.071 6e-3 -0.028 0.022-0.073 0.042-0.043 0.01-0.052-0.01-0.025 0.016-0.093 0.05-0.036 0.069-0.019 0.013-0.107 0.061-0.037 0.01-0.064-8e-3 -0.203 0.116-0.091 0.096-0.023 0.011-0.025 0.013-0.154 0.153-0.045 0.056-0.052 0.064-0.076 0.032-0.058 4e-3c-0.146 0.276-0.335 0.51-0.481 0.759l0.058-0.104 0.033-0.206h-0.165l0.058 0.061-0.166 0.052 0.019-0.023-0.024 0.023-0.1-2e-3v0.081c-0.163 0.103-0.357 0.161-0.364 0.387l0.364-0.362v0.122l0.105-0.063 0.064 0.111-0.064 0.056 0.068 0.016-0.046 0.12 0.014-0.038-0.141 0.053-0.229-0.042 0.079 0.101c-0.117 0.051-0.228 0.105-0.341 0.138l0.01-0.055 0.064-0.19 0.093-0.218 0.152-0.052v-0.107l-0.036 0.012 7e-3 -6e-3 0.078-0.287 0.041-0.053 0.083-0.05 0.034-0.067 0.025-0.051 0.03-0.058 0.073-0.075 0.012-0.025-2e-3 4e-3 0.209-0.036 0.078 0.062-0.061-0.06-0.017-2e-3 -0.106-0.094 0.093-0.067 4e-3 -7e-3c0.026 0.112 0.192 0.152 0.282 0.204-0.213 0.139-0.365-0.06-0.55 0.15 0.014 0.01 0.108 0.193 0.273 0.122l0.059 0.108h0.109c0.049-0.108-0.136-0.35 0.167-0.337l-0.058-0.105 0.098-0.099c-0.049 0.027-0.152-0.194-0.348-0.123l9e-3 -0.019 0.104-0.116 0.026-0.044 0.043-0.07 0.027-0.033 0.279-0.146 0.051-0.08 0.131-0.024 0.103-0.054c0.03-0.097 0.272-0.202 0.332-0.189l0.073-0.042 0.171-0.097 0.082-0.041 0.021-0.012 0.03-2e-3 0.025-0.022 0.016-0.015 0.152-0.06 0.063-0.022 0.017-6e-3 0.204-0.113 9e-3 -0.025 0.039-0.044 0.127-0.066 0.163-2e-3 0.073-0.047 0.032-0.017 0.04-0.022 0.055 6e-3 0.024 9e-3 0.042 0.013 0.049-0.033 0.052-0.07 0.125-0.018 0.028-0.017 0.073-0.011 0.014 8e-3 0.104-0.058 0.064-8e-3 0.014 4e-3 0.201-0.012 0.061 0.027h0.065l0.07 0.016c0.033 0.023 0.109 0.038 0.232 0.04 0.108 3e-3 0.224-2e-3 0.307 0l0.154-0.031c-9e-3 0.111 0.177 0.231 0.063 0.331-0.237 0.191-0.1 0.439-0.186 0.674m-4.245 1.692-0.039 0.094zm-0.218 0.526 0.04-0.087-0.089-0.033 0.127-0.125 0.026 7e-3 -0.016-0.013 0.036-0.04-0.074 0.18-0.073 0.185-0.034-0.027 0.054-0.035 3e-3 -7e-3 5e-3 -1e-3 -5e-3 -4e-3m2.485 5.28v0.054l0.129-0.054zm0.02 0.263 0.021 4e-3c0.06-0.039 0.119-0.099 0.06-0.196-0.237 0 0.017 0.11-0.081 0.192m0.656 0.116 0.341-0.379-0.443 0.226zm-3.357-5.635 0.133-0.126 0.063 0.102v5e-3l-0.059 0.041h-0.165l0.055 0.253c-0.015-0.093 0.051-0.131 0.11-0.192l0.028-1e-3v-6e-3l-0.023 0.056-0.031 0.091-6e-3 0.013-0.011 0.045c-0.03 0.061-0.035 0.147-0.039 0.261l-4e-3 0.125c-0.045-0.129-0.157-0.371-0.281-0.284 0.096 0.124 0.153 0.216 0.274 0.339l-0.025 0.124 0.017 0.028 8e-3 0.076-0.023 0.071c0.048 0.122 0.027 0.335 8e-3 0.506l-0.031 0.181-0.056 0.052v0.168h0.021v-3e-3l-4e-3 0.048 0.013 0.025 0.015 3e-3 0.057 0.043 0.089 0.153 6e-3 0.047-8e-3 0.055-0.018 0.03 0.083 0.147 6e-3 0.067-6e-3 0.023 0.061 0.106 8e-3 0.035-4e-3 0.091-4e-3 0.047 0.14 0.246 1e-3 0.081 0.079 0.132 0.023 9e-3 0.037 0.039 0.068 0.114 6e-3 0.082 0.039 0.069 0.02 0.01 0.046 0.039 0.017 0.031 0.04 0.018 0.036 0.037 0.074 0.127 0.14 0.053 0.042 0.042 0.017 0.03 0.041 0.015 0.035 0.037 0.038 0.063 0.04 0.024 0.034 0.043 0.076 0.096 0.063 0.034 0.069 0.051 0.057 4e-3 0.068 0.032 0.022 0.026 0.061 0.018-0.112 0.042 0.119 0.067-0.119 0.112 0.119-0.034c0.098 0.068-7e-3 0.153-0.032 0.215-0.097-0.034-0.143-0.105-0.265-0.034 0.084 0.118-0.01 0.133 0.217 0.118l0.048-0.057c0.096 0.144 0.13-0.068 0.298 0l-0.049-0.027c0.209-5e-3 -9e-3 -0.089 0.065-0.134l-0.099-0.013 0.104-0.102 0.204 0.163 0.114 0.03 0.192 0.033 0.191 0.053 0.119 0.091c0.11 0.043 0.222 0.07 0.335 0.09 0.117 0.021 0.241 0.034 0.361 0.056l0.226-4e-3 0.074 0.049 0.021 0.016 0.069-0.044 0.055-0.01 0.03 4e-3 0.048-6e-3 0.162 0.057 0.023 0.012 0.079 0.038 0.09 0.061-7e-3 0.169-0.017 9e-3 -0.176 0.102-0.034 0.013-0.058-6e-3 -0.034 0.059-0.021 0.013-0.104 0.062-0.024 4e-3 -0.193-0.016-0.117-0.036c-0.103 0.052-0.223 0.018-0.307-0.017l-0.204-0.106c-0.133 0.055-0.242 0.027-0.328-7e-3l-0.135-0.037-0.12 1e-3h-0.044l-0.168-0.047 0.062 0.018 0.196-0.157h0.057l-0.032-0.018c0.116-0.081 0.232-0.163 0.345-0.201-0.148 0.036-0.277 0.092-0.397 0.167l-0.052-2e-3v0.033l-0.207 0.152 0.028 8e-3 -0.175-0.032-0.055-0.021-0.055-0.053-0.027-1e-3 0.061-0.053c-0.093-0.16-0.2-0.108-0.317-0.068l-0.014-0.01-0.049-0.034-0.033-0.022-0.054-0.039-0.037-0.074c-0.192-0.058-0.352-0.151-0.468-0.342l-0.034-0.016-0.071-0.063-0.071-0.062-0.044-0.033-0.03-0.033-0.016-0.034-0.039-0.012-0.043-0.047-0.063-0.11-0.033-0.016-0.071-0.04-0.036-0.031-0.055-0.084-0.027-0.018-0.062-0.031-0.036-0.035-0.067-0.113-4e-3 -0.068 4e-3 -0.022-0.128-0.229-0.114-0.062-0.045-0.059-0.031-0.064-9e-3 -0.062 5e-3 -0.018-0.155-0.284-0.014-0.032-0.012-0.031-0.026-0.03-0.063-0.112-0.012-0.033-0.054-0.16-0.115-0.21-6e-3 -0.072 1e-3 -0.197-8e-3 -0.133 7e-3 -0.096-0.021-0.038-0.01-0.054 9e-3 -0.038-0.018-0.032-7e-3 -0.066 7e-3 -0.021-0.058-0.107-0.011-0.051c7e-3 -0.096 0.017-0.128 0.05-0.2l-0.018-0.034-4e-3 -0.069 4e-3 -0.021-0.019-0.03-9e-3 -0.05c7e-3 -0.116 0.037-0.263 0.074-0.413h0.047v-0.109h-0.019c0.063-0.241 0.156-0.489 0.231-0.668v-4e-3c0.072-0.036 0.165-0.026 0.29 0.057" fill="#ab633d"/>
  </g>
  <g fill="#fff">
   <g transform="matrix(5.6864 0 0 -5.6864 222.73 -29.327)">
    <path d="m0 0-0.072 0.322 0.131 0.398 0.212 0.301 0.266 0.136 0.243-0.06 0.156-0.221 0.11-0.318 0.028-0.354-0.153-0.234-0.479-0.064zm0.525-0.463 0.025 5e-3 0.359-0.079 0.431 0.016 0.488 0.076 0.358 0.133 0.095 0.28-0.042 0.329-0.121 0.396-0.326 0.44-0.454 0.289-0.398 0.086-0.344 0.062-0.379-0.081-0.387-0.085-0.334-0.207-0.295-0.264-0.08-0.076 0.043-0.048h0.248l0.084 0.15c-0.17-0.466 0.334-0.719 0.524-1.075l-0.084-0.067c0.176-0.069 0.377-0.171 0.589-0.28m-0.735-1h0.23c0.063-0.147-0.084-0.295-0.23-0.229zm1.832-0.463-0.091-0.149-0.143 0.149zm-2.501 2.783-0.209-0.202-0.149-0.384-0.161-0.392-0.052-0.435 0.052-0.432 0.104-0.407 0.229-0.319 0.214-0.307 0.311-0.216 0.316-0.221c0.014 0.084 0.06 0.183 0.16 0.301 0-0.099 0.028-0.211 0.064-0.342l0.192-0.037 0.434-0.028 0.459 0.032 0.416 0.204 0.38 0.318 0.232 0.375-0.041 0.149-0.327-0.236-0.407-0.2-0.348-0.103-0.409 0.124-0.357 0.323-0.305 0.408-9e-3 0.057-0.269 0.702-0.842-0.084c0.314 0.169 0.718 0 0.991 0.169-0.06 0.432-0.375 0.827-0.626 1.135l-0.043 0.048" fill="#fff" fill-rule="evenodd"/>
   </g>
   <g transform="matrix(5.6864 0 0 -5.6864 150.42 -27.994)">
    <path d="m0 0c0.383 0.024 0.403-0.485 0.697-0.526-0.294 0.023-0.508 0.4-0.697 0.526m0.233-1.893-0.525 0.083 0.525 0.088zm-0.013 3.388v0.323l0.18-0.323zm-0.367 0.524 0.068 0.049 0.179-0.171c-0.1 0-0.163 0.078-0.247 0.122m2.41 1.824-0.398 0.091-0.379-0.03-0.344-0.112-0.34-0.177-0.33-0.263-0.311-0.375-0.205-0.449-0.058-0.273 4e-3 0.013c0.243 0 0.203 0.451 0.481 0.174v-0.166l-0.232 0.082c0.07-0.148-0.106-0.165-0.276-0.223l-5e-3 -0.03-0.191-0.304-0.246-0.229-0.022-0.119 0.221-0.316 0.065-0.402 0.041 0.031 0.546-0.316c-0.188 0.068-0.357 0.209-0.572 0.234h-4e-3l0.01-0.04 0.047-0.565 0.025-0.482 6e-3 -0.438-0.06-0.438-0.047-0.377-0.237-0.23-0.238-0.158 0.071-0.208 0.48-0.051 0.555 0.033 0.407-0.027 0.332-0.012 0.331 0.069 0.133 0.042-0.109 0.281-0.036 0.012-0.11 0.09h2e-3l-0.741-0.078c0.225 0.12 0.489 0.067 0.722 0.091l-0.175 0.14-0.051 0.401 1e-3 0.459v0.054l-0.13 0.161-0.049 0.061 0.049-0.061 0.117-0.01 5e-3 -0.078-0.026 0.326 0.04 0.485-0.063 0.548 0.12 0.471 0.381 0.168 0.375 0.154 0.038 0.105-0.342 0.115-0.423 0.14-0.158 0.439 0.108 0.505 0.15 0.435 0.257 0.236 0.192-0.033 0.181-0.317 0.216-0.287 0.215 0.037 0.122 0.396 0.076 0.383z" fill="#fff" fill-rule="evenodd"/>
   </g>
   <g transform="matrix(5.6864 0 0 -5.6864 101.46 -23.288)">
    <path d="m0 0-0.065-3e-3v0.046c-0.181 0.117-0.352 0.256-0.526 0.4 0.164 0.01 0.39-0.184 0.633-0.365h0.073l-0.043-0.029c0.16-0.12 0.322-0.232 0.476-0.282-0.199 0.048-0.379 0.13-0.548 0.233m0 1.206-0.065-0.078-0.181 0.078zm0.05-0.327 0.065-0.124-0.115 0.082zm0.182-0.801 0.181-0.081h-0.181zm0.045 0.657 0.021-7e-3 -0.021 7e-3m-0.073-0.348c-0.189 0.063 0.335-0.018 0.169-0.293-0.358 0 0.105 0.19-0.169 0.293m0.09 0.932 0.169-0.204 0.063 0.046 0.116-0.123c-0.164 0.101-0.363 0.101-0.527 0.201zm0.549 1.108 0.048-0.051-0.081 0.039zm1.994-2.963-0.313-0.145-0.337-0.21-0.364-0.064-0.429 0.201-0.434 0.306-0.256 0.506-0.111 0.591 0.088 0.581 0.201 0.521 0.44 0.291 0.402 0.211 0.27-0.172 0.248-0.375 0.152-0.396 0.213 9e-3 0.147 0.437 0.053 0.463-0.286 0.277-0.416 0.112-0.411 0.035-0.417-0.092-0.404-0.118-0.415-0.128-0.379-0.208-0.261-0.351-0.025-0.04 0.207-0.064c-0.109 0.029-0.185 0-0.261-0.02l-0.156-0.241-0.219-0.417-0.088-0.369 0.042-0.245 0.101-0.338 0.11-0.424 0.185-0.373 0.314-0.246 0.011-0.013-0.02 0.035v0.234l0.232-0.15c0.013-0.1-0.1-0.185-0.179-0.144l-0.016 0.014 0.281-0.229 0.394-0.118 0.401-0.079 0.421-0.029 0.423 0.064 0.378 0.168 0.383 0.247 0.179 0.355z" fill="#fff" fill-rule="evenodd"/>
   </g>
   <g transform="matrix(5.6864 0 0 -5.6864 171.03 -23.21)">
    <path d="m0 0-0.021 0.309c0.15 0.249 0.053 0.373-3e-3 0.544v0.065l-0.01-0.476zm1.9 4.342 0.148 0.166h0.149zm-0.686-4.303c-0.152 0.14-0.38 0.338-0.359 0.618l0.019 0.1-0.019-0.1c0.036-0.157 0.202-0.455 0.359-0.618m-0.953 1.389v0.322l0.318-0.467c-0.15-0.043-0.232 0.064-0.318 0.145m2.24 3.267-0.402 0.064-0.381-0.013-0.345-0.119-0.328-0.19-0.335-0.256-0.114-0.158 0.052 0.07 0.08-0.088 0.059-0.072-0.059 0.072-0.136 0.016-0.168-0.223-0.192-0.446-0.168-0.399-0.125-0.341-0.313-0.12-0.029-0.257 0.283-0.251 0.118-0.499-0.028 0.131v0.046l0.062-0.234h-0.037l3e-3 0.057-0.022-0.567 9e-3 0.264c0.088-0.204 0.079-0.493 0.276-0.573-0.273-0.209 0.044-0.337 0.086-0.609l0.011-0.206 5e-3 -0.086 0.048-0.76c-0.049 0.207-0.073 0.432-0.101 0.646l-0.027 0.149-0.131 0.138 0.087 0.085c-0.028 0.112-0.069 0.224-0.123 0.331-0.154-0.098-0.028-0.643-0.114-0.742l-0.098-0.366-0.106-0.092-0.087-0.273-0.157 0.048 0.118 0.108-0.206-0.192 0.071-0.139 0.458-0.047 0.559 0.023 0.406-0.034 0.327-0.045 0.337-8e-3 0.243 0.133 0.013 0.117-0.251 0.211-0.303 0.191-0.11 0.388 6e-3 0.459-6e-3 0.456-7e-3 0.485 0.058 0.547 0.046 0.331-0.046 0.055 0.051-0.037 0.015 0.123 0.102 0.04-0.055 0.031v0.04h0.184v-0.022l0.142 0.059 0.227 0.056-0.068 0.032 0.231 0.032-0.11-0.049 0.127 0.035 0.034 0.224-0.376 0.105-0.442 0.081-0.105 0.454 0.084 0.506 0.162 0.432 0.239 0.234 0.169-0.042 0.186-0.305-0.109 0.178c0.089 0.063 0.123 0.124 0.242-0.073l0.167-0.294-0.101-0.026 0.05-0.051 0.188 0.022 0.172 0.377 0.053 0.402z" fill="#fff" fill-rule="evenodd"/>
   </g>
   <g transform="matrix(5.6864 0 0 -5.6864 205.62 -32.769)">
    <path d="m0 0 0.23 0.032-0.23-0.032m0.095-1.1c-0.046 0.164-0.191 0.337-0.192 0.464-0.231-0.086 0.165-0.296-0.135-0.42 0.052 0.254-0.015 0.363-0.138 0.491l0.025 0.032-0.074-0.101-0.476-0.07-0.444 0.099-0.074 0.321 0.122 0.404 0.221 0.301 0.268 0.131 0.242-0.057 0.171-0.215 0.1-0.328 0.035-0.353-0.035-0.056 0.22-0.088 0.069 0.056-0.013-0.102c-5e-3 -0.222 0.077-0.369 0.188-0.491zm-1.696 0.298v0.313l0.316-0.463c-0.147-0.04-0.231 0.066-0.316 0.15m-0.294 0v0.229l0.064-0.229zm2.663 0.886-0.316 0.436-0.451 0.309-0.403 0.061-0.341 0.069-0.382-0.069-0.391-0.087-0.344-0.19-0.261-0.298-0.265-0.295-0.229-0.336-0.132-0.41 0.032-0.436 2e-3 -0.428 0.149-0.384 0.167-0.345 0.215-0.297 0.275-0.262 0.355-0.162 0.055-0.016c-0.023 0.138-0.037 0.277-0.061 0.414l-0.02 0.151-0.133 0.136 0.085 0.084c-0.026 0.116-0.068 0.226-0.121 0.333-0.169-0.107 0-0.761-0.148-0.761-0.021 0.088 0.017 0.294-3e-3 0.46l-0.044-0.116-0.063 0.233h0.074c-0.039 0.086-0.123 0.141-0.281 0.116l-0.063 0.068 0.23 0.081v0.147l0.15-0.228c0.252 0.396-0.125 0.481 0 0.927 0.106-0.215 0.084-0.531 0.294-0.613-0.275-0.21 0.043-0.337 0.085-0.607l0.014-0.209 5e-3 -0.086 0.031-0.535-0.018 5e-3 0.336-0.079 0.434-0.013 0.451 0.038 0.442 0.143 0.361 0.349 0.228 0.379-0.022 0.097-0.364-0.155-0.381-0.25-0.346-0.035-0.398 0.108-0.388 0.271-0.282 0.431-0.103 0.432 0.103 0.19 0.265 0.05 0.358 7e-3 0.359-7e-3 0.432-0.017 0.484 0.091 0.348 0.114 0.065 0.276 0.051 0.334z" fill="#fff" fill-rule="evenodd"/>
   </g>
   <g transform="matrix(5.6864 0 0 -5.6864 139.31 19.086)">
    <path d="m0 0v0.036l0.027-0.036zm-0.168 0.584-0.147 0.061v0.231c0.188 0.024 0.147-0.184 0.147-0.292m-2.654 0.759 0.169-0.99-0.169 0.672zm0.382-1.211 0.083 0.073-0.083-0.073c-0.024-0.09 0.069-0.218-0.147-0.157l0.147 0.157m-0.557 4.53 6e-3 0.178-6e-3 -0.178m-0.035-4.367v-0.176l-0.092 0.186-0.097 0.073v0.081l0.064-0.047c-0.057 0.254-5e-3 0.484-0.191 0.759 0.189-0.253 0.296-0.554 0.316-0.848l0.041-0.028zm3.475-0.12 0.023-0.027-0.218 0.251-0.118 0.369-0.165 0.415 0.124 0.483-0.105 0.49 0.061 0.487-0.172 0.467-0.131 0.489-0.459 0.308-0.575 0.107-0.524-0.061-0.358-0.187-0.238-0.118-0.062 0.094-0.066 0.485 0.112 0.637-0.062 0.65-0.107 0.449-0.291 0.127-0.427-0.095-0.441-0.013-0.362-0.083 0.049-0.226 0.263-0.257 0.046-0.38 0.054-0.358-0.041-0.362-0.023-0.363 6e-3 -0.361v-0.364l6e-3 -0.243c0.035-0.086 0.093-0.159 0.183-0.21l-0.172 0.068 0.077-0.373 0.178 6e-3c0.187-0.21-0.063-0.168-0.083-0.377l-0.137 0.141-0.046-0.229 0.093-0.495-0.054-0.49-0.143-0.431-0.204-0.386-0.019-0.141 0.399-0.084 0.579-0.044 0.601-0.022 0.458 0.121 0.07 0.136-0.187 0.164-0.23 0.243-0.05 0.285-6e-3 0.334-0.068 0.333 0.114 0.333-0.134 0.331v0.074-0.011h-0.186l0.12 0.121 0.066-0.069v0.22l0.068 0.31-0.084 0.025-0.298 0.205 0.182 0.087-0.182 0.2c0.128 0.014 0.193 0.09 0.298 0.117 0.215-0.117-0.153-0.384 0.127-0.52l-0.038-0.093 0.135 0.282 0.334 0.257 0.359-0.113 0.258-0.191 0.066-0.384 0.147-0.443-0.021-0.533-0.056-0.575-0.015-0.571 0.067-0.457 0.377-0.163 0.462 2e-3 0.462 0.026 0.334-0.034z" fill="#fff" fill-rule="evenodd"/>
   </g>
   <g transform="matrix(5.6864 0 0 -5.6864 190.12 9.2425)">
    <path d="m0 0-0.086-0.379-0.231 0.152zm-0.379 0.611 0.062-0.545-0.062 0.315zm0 0.759v0.147c0.022-0.234 0.272-0.465 0.062-0.697-0.337 0.087 0.042 0.401-0.062 0.55m-0.17 0.376 0.232 0.215v-0.298zm0.314 0.379-0.109 0.087 0.109-0.087m0.699-3.425-0.258 0.269-0.021-0.077c-0.066 0.105-0.146 0.524-0.463 0.378 0.062 0.062 0.231 0.191 0.379 0.146 0.17-0.056-0.05-0.194 0.102-0.224l3e-3 -0.223-7e-3 0.396-0.02 0.415-0.021 0.41-0.06 0.421 0.016 0.41 0.046 0.414-0.014 0.415-0.129 0.257-0.307 0.105-0.447-0.013-0.447-0.053-0.337-0.111-0.076-0.192 0.282-0.231 0.168-0.244 0.033-0.475 0.031-0.588 0.045-0.586-0.034-0.107 6e-3 9e-3c0.092-0.061 0.182-0.136 0.252-0.254l0.04-0.012h0.284c-0.085-0.045-0.183-0.033-0.284 0h-0.029c-0.108 0.046-0.206 0.097-0.304 0.13l-0.074-0.25-0.208-0.31-0.379-0.017-0.334 0.219-0.222 0.311-0.032 0.428 0.056 0.552-0.056 0.62 0.077 0.612-0.133 0.437-0.301 0.125-0.426-0.013-0.411-0.077-0.329-0.087-0.071-0.194 0.301-0.274 0.14-0.485-0.051-0.521 0.025-0.346c0.41-0.131 0.242 0.51 0.503 0.692 0.021-0.234-0.082-0.697-0.166-1.054 0.068 0.405-0.207 0.05-0.331 0.158l-0.012-0.089c0.136-0.351 0.546-0.757 0.343-1.204l0.166-0.168 0.148 0.226c-0.085-0.131-0.102-0.261-0.094-0.388l-0.09 0.04 0.314-0.145 0.42-0.134 0.377 0.102 0.336 0.101 0.282 0.208 0.225 0.14 0.092-0.034 0.15-0.208 0.133-0.057 0.02 0.027 0.083-0.072 0.107-0.048-0.033 0.015 0.136-0.042-0.103 0.027 0.436-0.146 0.43 0.093 0.311 0.097 0.039 0.16zm-3.9 0.231 0.257-0.45 0.04-0.017c-0.103 0.196-0.234 0.389-0.339 0.599z" fill="#fff" fill-rule="evenodd"/>
   </g>
   <g transform="matrix(5.6864 0 0 -5.6864 224.44 .97679)">
    <path d="m0 0 0.215 0.302 0.272 0.129 0.24-0.056 0.047-0.062-0.018 0.067 0.024-0.055c0.111-0.203 0.572-0.51 0.229-0.598l-0.017 0.102 0.047-0.347-0.175-0.227-0.47-0.078-0.318 0.08-7e-3 -0.121 0.078-0.102-0.078 0.102-0.153 0.19h0.028l-0.072 0.273zm-0.355-1.158-0.108 0.021 0.108-0.021 0.187-0.037-0.187 0.037m0.124-1.787h-0.38l0.148 0.147c-0.418 0.058-0.373 0.388-0.486 0.618l-0.032 0.065-9e-3 0.011v0.036l9e-3 -0.047 0.032-0.065c0.231 0.032 0.231 0.267 0.404-7e-3l0.165-0.297-0.165-0.083zm-0.314 1.22-0.294-0.168 0.146 0.168zm0.23 1.35-0.065-0.299-0.165 0.151-0.148-0.066-0.066 0.066 0.214 0.23-0.378 0.15c0.25 0.038 0.46-0.044 0.608-0.232m0.257 1.044 0.169-0.086-0.169-0.145zm0.732-1.72c-0.025 0.106 0.106 0.146 0.149 0.232l0.081-0.232zm0-1.747 0.082-0.063c-0.211 0.041-0.082-0.273-0.315-0.17zm0.676-0.063 0.079-0.221-0.079-0.014zm-1.211 1.632 0.356-1e-3 0.363-0.017 0.431 0.024 0.474 0.12 0.341 0.095 0.067 0.25-9e-3 0.328-0.118 0.391-0.303 0.446-0.477 0.241-0.369 0.171-0.355 0.015-0.375-0.082-0.361-0.13-0.356-0.163-0.329-0.216-0.217-0.341-0.208-0.348-0.09-0.41-0.048-0.423 0.045-0.423 0.047-0.42 0.239-0.311 0.226-0.3 0.283-0.237 0.358-0.147 0.386-0.128 0.436-0.056 0.181 0.01-0.062-2e-3 -0.059 0.09c0.104 6e-3 0.133-0.03 0.144-0.088l0.253 0.012 0.427 0.214 0.413 0.294 0.208 0.406-0.064 0.147-0.326-0.227-0.414-0.186-0.341-0.096-0.413 0.088-0.371 0.32-0.228 0.445-0.162 0.416 0.113 0.203z" fill="#fff" fill-rule="evenodd"/>
   </g>
   <g transform="matrix(5.6864 0 0 -5.6864 212.57 15.823)">
    <path d="m0 0-0.839-0.085c0.264 0.143 0.597 0.041 0.858 0.11zm-1.365 1.808c0.38 0.023 0.398-0.481 0.692-0.524-0.294 0.02-0.503 0.397-0.692 0.524m-1.37-1.515h-0.02l0.045 0.297c0.077-0.084 0.127-0.18-0.025-0.297m2.86-0.078c-0.102 0.381-0.376 0.727-0.598 1.006l-0.052 0.063 0.052-0.063h0.241l0.086 0.147c-0.12-0.332 0.106-0.552 0.313-0.783v-0.286l-3e-3 0.394-0.125 0.389-0.193 0.321-0.335 0.216-0.45 0.283-0.47 0.248-0.291 0.224-0.078 0.24 0.181 0.213 0.313 0.173 0.339-2e-3 0.175-0.197 0.176-0.281 0.183-0.245 0.2 0.085 0.127 0.492 3e-3 0.483-0.124 0.065-0.397-0.051-0.383 0.023-0.032 0.013 0.043-0.084h-0.177v0.129l-0.089 0.03-0.255-0.06-0.432-0.12-0.464-0.246-0.256-0.395-0.139-0.43 0.07 0.215 0.258-0.082c0.069 0.013 0.154-4e-3 0.271-0.071-0.083 0.019-0.176 0.045-0.271 0.071-0.133-0.019-0.2-0.133-0.322-0.177l0.03-0.251c0.147 0.043 0.298 0.129 0.397 0.063 0.143-0.307-0.146-0.275-0.208-0.442l0.027-0.039 0.264-0.291 0.372-0.194 0.375-0.201 0.354-0.192 0.224-0.225 0.044-0.248-0.202-0.274-0.392-0.17-0.403 0.155-0.36 0.42-0.276 0.385-0.165 9e-3 -0.067-0.463 0.016-0.49 0.376-0.239 0.42-0.156h0.438l0.522 0.053 0.539 0.234 0.424 0.329 0.198 0.361z" fill="#fff" fill-rule="evenodd"/>
   </g>
   <g transform="matrix(5.6864 0 0 -5.6864 89.848 -36.234)">
    <path d="m0 0 0.07-0.023 0.07 0.04-0.017-8e-3 -0.121-0.011-2e-3 2e-3m-3.03-7.595h0.062l-0.062 0.153zm4.596 8.714h-0.061v0.151h0.061zm0.164-0.295-7e-3 -0.024c0.156 0.155 0.319 0.319 0.319 0.56l-0.128 0.096c-0.069-0.09-0.193-0.084-0.285-0.136l-0.115 0.018-0.091-0.075-0.115 0.019-0.187-0.114-0.052 9e-3 0.039-5e-3c0.059-0.225 0.182-0.457 0.262-0.633-0.121 0.055-0.184-0.082-0.273-0.112l0.157-0.077 0.203 0.135 0.148 0.197-4e-3 -1e-3c0.049 0.112 0.093 0.228 0.025 0.315h0.127l0.06 0.258c0.045-0.06 0.045-0.354-0.083-0.43m-5.169-8.774v-0.039h0.027l-9e-3 0.177-0.018-0.138m0.409-0.593 0.167 0.122c-0.167 0.064-0.105 0.307-0.335 0.214-0.196-0.071-0.077-0.289-0.111-0.442l0.111-0.11-0.029-0.017c0.2-0.245 0.496-0.435 0.669-0.547-0.134 0.238-0.297 0.468-0.305 0.78zm-0.215 0.991c0.089 0.126 0.036 0.216 0.047 0.306l0.011 5e-3 -0.019-0.011c8e-3 -0.062-0.051-0.168-0.11-0.291l0.071-9e-3m2.944 7.745c-0.146-0.026-0.31-0.053-0.274-0.251-0.051 0.201-0.099 0.306-0.088 0.485l0.168-0.169 0.044 0.061c0.065 0.115 0.055-0.099 0.15-0.126l0.082 0.018-0.082-0.018m-0.439-1.716-0.279 0.102s0.216 0.049 0.279-0.102m0.794-3.766 0.051-0.336-0.172 0.336zm-0.332-3.301-0.173 0.112 0.232 0.165zm-0.217 0.719 0.044-0.394-0.044 0.229zm0 0.55v0.107c0.017-0.166 0.199-0.338 0.044-0.503-0.24 0.064 0.033 0.291-0.044 0.396m-0.282-1.458h-0.026c-0.097 0.04-0.188 0.087-0.275 0.103 0 0.231-0.182 0.017-0.319 0.169-0.029 0.197-0.307 0.076-0.447 0.107 0.073 0.102 0.287 0.095 0.363 0.212 0.012-0.349 0.455-0.233 0.674-0.584l0.03-7e-3h0.202-0.202m0.326 1.888v-0.213l-0.164 0.061zm-0.044 0.506c0-0.098-0.012-0.217 0.017-0.3l0.092-0.082-0.092 0.082-0.078 0.237zm1.422 6.767h0.063c0.137 0.109-0.032 0.212-0.063 0.321l0.17 0.166c-0.035 0.078-0.056 0.187-0.062 0.312l-0.031 0.013-0.19-0.107c-0.129 0.018-0.323-4e-3 -0.406-0.122-0.2-0.021-1.062-0.309-1.132-0.281l-0.083-0.073-0.116 8e-3c-0.111-0.079-0.273-0.11-0.406-0.125l-0.209-0.213c-0.097-0.236 0.186-0.553 0.096-0.812l0.077-0.152 0.013 0.032c0.13 0 0.046-0.073-0.021-0.183l0.021 0.112-0.024-0.11 0.063-0.092c-0.07-0.315 0.409-1.379 0.302-1.619l0.068-0.092c-0.024-0.097-0.019-0.234 0.069-0.302l-0.016-0.108 0.066-0.092c-0.015-0.143 0.304-1.661 0.362-1.713-0.047-0.1-0.016-0.225 0.063-0.304 3e-3 -0.098 0.03-0.207 0.01-0.31l0.096-0.187-0.033-0.117c0.122-0.089 0.107-0.269 0.092-0.401l0.047-0.094-0.553 0.133-0.114-0.034-0.108 0.069c-0.107-0.044-0.237-0.094-0.346-0.037-0.139-0.057-0.565-0.169-0.706-0.146l-0.071-0.078c-0.081-0.023-0.178-0.064-0.273-0.106l0.091-0.094-0.151-0.104-0.012 0.161c-0.106-0.057-0.21-0.12-0.286-0.18-0.022-0.097-0.107-0.186-0.211-0.195-0.076-0.071-0.081-0.173-0.145-0.264 0.054-0.094 0.047-0.248 0.209-0.183 0.032-0.231-0.027-0.502-0.276-0.502l-0.17 0.17c-0.134-0.138 0.034-0.295 0.064-0.448l0.047 0.065c0.09 0.165-0.029-0.14 0.168-0.108l0.213 0.043v-0.043c0.338-0.134 0.2 0.353 0.399 0.491 0.014-0.17-0.061-0.507-0.123-0.768 0.062 0.353-0.244-0.092-0.276 0.214-0.029-0.289 0.459-0.639 0.276-1.04l0.123-0.121 0.105 0.166-0.068-0.217-0.03-4e-3c0.144 0.014 0.323-0.031 0.456-0.094l0.097 0.035c0.326-0.164 0.425 0.052 0.682 0.014l0.09 0.053c0.182-0.086 0.705 0.31 0.918 0.387l0.023 0.046c-0.047 0.102-0.123 0.206-0.275 0.138 0.047 0.047 0.168 0.136 0.271 0.107 0.143-0.042-0.072-0.17 0.126-0.17l-0.097-0.032 0.097 0.03 0.051 0.081 0.095 0.035 0.019 0.108c0.084 0.048 0.102 0.153 0.196 0.188 0.039 0.176 0.126 0.309 0.195 0.463l-0.049-2e-3 -0.044 0.047 0.123 0.021c0.044 0.106 0.078 0.229 0.08 0.38 0.018 0.508-0.702 3.086-0.628 3.257l-0.06 0.103-0.557 2.563c0.01 0.109-0.097 0.717-0.163 0.784l-0.178 0.774 0.224 0.082c0.093-0.051 0.215-0.046 0.338-0.023l-5e-3 0.093 0.08-0.08 0.202 0.029h-5e-3c0.114 0.11 0.244 0.183 0.469 0.129l-0.055-0.064-0.037-6e-3c0.193 0.04 0.461 0.057 0.659 0.158l-0.072 0.242-0.036 0.086 0.036-0.086 0.072-0.071m-1.233-0.417-0.067-8e-3z" fill="#fff"/>
   </g>
   <g transform="matrix(5.6864 0 0 -5.6864 67.849 -24.506)">
    <path d="m0 0 0.154 0.17c-0.022-0.094 0.071-0.236-0.154-0.17m-0.238 1.098v0.33l0.176-1.031zm1.341 0.752h0.12l-0.193-0.094zm0.053-0.387h-0.054v0.13h0.054zm0.377-1.183c-0.088-0.118-0.303-0.24-0.396-0.306l-0.08-0.064-6e-3 -0.038-0.254-0.022-0.015-3e-3 0.015 3e-3 -0.127 0.046c-0.249 0.053-0.089-0.031-0.296 0.13-0.241 0.171-0.282 0.3-0.328 0.583l-0.043 0.105 0.013 0.128c0.029 0.279-0.031 0.038 0.243 0.038l0.207-4e-3h-0.039l0.061 0.159 0.125 0.062c-0.099 0.022-0.23 0.052-0.395 0.052-0.373 0-0.143 0.463 0 0.677l0.056 0.088 4e-3 0.03h-0.016 0.016l0.253 0.112 0.111-0.127c0.217-0.157 0.265-0.422 0.216-0.686-0.025-0.128-0.076-0.161-0.167-0.155l-0.211-0.212c0.221-2e-3 0.44-4e-3 0.652 0.032 0.091 0.017 0.488 0.102 0.488 0.032-0.018 0.02 0.266 0.728-0.458 1.15l0.061-0.071-0.436 0.125-0.135 0.036 0.135-0.036 0.184 0.04c-0.147 0.06-0.292 0.086-0.438 0.086v-0.042l-0.119 0.04c-0.557-0.053-1.02-0.499-1.181-1.051 0.186-0.257 0.284-0.557 0.306-0.85l0.04-0.031h-0.04v-0.177l-0.098 0.186-0.103 0.078v0.092l0.071-0.054c-0.057 0.25-0.01 0.481-0.176 0.756-0.104-0.373-0.07-0.786 0.169-1.158 0.089-0.136 0.183-0.235 0.283-0.316h0.04v-0.033c0.356-0.258 0.798-0.231 1.281-0.144 0.299 0.059 0.358 0.195 0.51 0.442l0.14 0.1-0.123 0.172m-8.143 1.035-0.119 0.084 0.051 0.05zm-0.375 0.472h0.256l-0.07-0.082zm0.569-0.506-0.024 0.01 0.024-0.01m-0.069-0.675 0.128-0.058 3e-3 -0.026h-0.131zm0.924 1.308 0.047 0.16c0.129 0.3-0.314 0.125-0.6 0.125-0.663 0 0.286 0.999-0.446 0.796-0.52-0.142-0.345-0.652-0.589-0.777l0.036 0.029 0.074 0.089 0.31-0.089c-0.195 0.04-0.285-0.073-0.472-0.046l0.048 0.015-0.128-0.022-0.172 0.05-0.026-0.163c-0.173-0.469 0.33 0.17 0.33-0.409 0-0.607-0.027-1.169 0.093-1.764 0.04-0.191 0.173-0.307 0.347-0.366v0.172l0.241-0.151-9e-3 -0.071c0.224-0.022 0.467 0.018 0.644 0.09 0.221 0.101 0.345 0.197 0.345 0.393l-0.139 0.179c0.12-0.158-0.361-0.207-0.511-0.162l-0.167 4e-3 -6e-3 0.158c-0.031 0.155-0.043 0.33-0.046 0.506v-0.037c-0.341 2e-3 0.12 0.194-0.158 0.302-0.128 0.047 0.059 0.023 0.158-0.073v-0.048c0 0.293 0.021 0.595 0.021 0.86l-3e-3 0.052c-0.093 0.026-0.18 0.053-0.271 0.104l0.194 0.083 0.068-0.091c-9e-3 0.102-9e-3 0.054 0.208 0.079 0.106 0.012 0.538 0.074 0.579 0.023m3.525-1.224-0.045 0.127c-0.127 0.143-0.46 0.175-0.11 0.334l0.11-0.334 0.045-0.127m-0.395-0.636 0.086 0.24 0.309 0.153zm0.134 1.513v-0.078l-0.186 0.078zm0.794-1.79-0.126 0.049-0.163 0.231 0.026 0.024 0.011 0.116-7e-3 0.651-3e-3 0.187-0.034-0.016 0.033 0.044c0 0.084-9e-3 0.174-0.016 0.265l-0.264 0.071-0.127 0.041 0.127-0.041c0.105 0 0.206 0.041 0.24 0.092-0.019 0.1-0.049 0.196-0.085 0.285-0.269 0.151-0.483 0.359-0.813 0.479l-0.145-0.02c-0.096-0.019-0.321-0.02-0.542-0.282l-0.17 0.054c0.092-0.022 0.116 0.114 0.116 0.173l0.025 1.294c0 0.381-0.572 0.123-0.871 0.079l-0.119-4e-3v-0.026h-0.069v0.041l6e-3 -1e-3c-0.07 0.025-0.075 0.05-0.133-0.128l-0.061-0.141 0.221-0.02 0.092-0.063-6e-3 0.011-0.05 0.058c0.44-0.198 0.132-0.831 0.55-1.098-0.328 0.055-0.34 0.346-0.378 0.632v9e-3c-0.012-0.112-0.028-0.233-0.028-0.368l-7e-3 -2.032 9e-3 -0.331c-2e-3 -0.268 0.064-0.128-0.169-0.266-0.095-0.061-0.152-0.081-0.154-0.049l-0.019-0.147c-4e-3 -0.052 0.065-0.077 0.164-0.071 0.386 4e-3 0.795 0.013 1.184 4e-3l0.223 0.07c0.085 0.305-0.176 0.11-0.315 0.239l0.026-0.022 0.032-0.221 0.04-0.033h-0.035v-0.033h-0.078l-0.026 0.049-0.1 0.074v0.086l0.071-0.051c-0.059 0.262-7e-3 0.504-0.203 0.794 0.08-0.103 0.144-0.212 0.192-0.326-0.014 0.543-0.29 1.924 0.538 1.561l0.08-0.053-0.069 0.045 0.033 0.039 0.122-0.129h-0.038l-0.036 0.031c0.358-0.327 0.196-1.454 0.169-1.906-0.015-0.214-0.104-0.211 0.023-0.197l0.122 2e-3c0.308-4e-3 0.62-0.01 0.928-0.034 0.039-4e-3 0.252 0.053 0.212 0.15l-0.156 0.079" fill="#fff"/>
   </g>
  </g>
 </g>
</svg>
