<svg width="800" height="268.91" version="1.1" viewBox="0 0 211.67 71.148" xmlns="http://www.w3.org/2000/svg">
 <g transform="translate(126.78 101.07)">
  <g transform="matrix(6.2762 0 0 -6.2762 -118.18 -76.318)">
   <path d="m0 0-0.1-0.158-0.15-0.024 0.125 0.276 0.041 0.424 0.013 0.06 0.166 0.108 0.369 0.435s0.026-0.088-0.071-0.193c-0.094-0.108-0.176-0.555-0.189-0.619l-0.204-0.309m0.063-4.051 0.043 0.157-0.043 0.179c0 0.072 0.125 0.231 0.125 0.351 0 0.117 0.084 0.154 0.111 0.189l0.151 0.283 0.124 0.248 0.082 0.076 0.039 0.193 0.052-0.014s0.059-0.568-8e-3 -1.12c-0.071-0.556 0.367-1.143 0.482-1.27 0.106-0.117 1.038-1.672 1.038-1.672l0.22 6e-3v-0.151l0.027-0.279-0.247-0.277-0.012-0.216s0.033-0.044 0.355-0.014c0.656 0.06 0.825 0.605 0.825 0.605-0.014 0.181-0.151 0.332-0.151 0.332l0.028 0.208-0.139 0.145-0.066 0.219-0.14 0.143c-0.069 0.051-0.082 0.086-0.094 0.218-0.016 0.132-0.618 1.194-0.631 1.233l-0.099 0.214-0.206 0.047-0.039 0.168-0.041 0.11 0.025 0.207-0.07 0.215c0.125 0.242 0.443 1.592 0.443 1.592 0.109 0.039 0.163 0.267 0.163 0.267l0.74 0.013 0.342-0.234 0.196-0.021 0.021-0.102-5e-3 -9e-3h-0.045l8e-3 -0.098 0.173 4e-3 -0.018 0.1h-0.032l-7e-3 9e-3v0.082l0.234-0.011 0.016-0.071-0.059-6e-3v-0.103h0.19l-5e-3 0.113h-0.037l-0.01 0.067 0.21-0.043v-0.087h-0.042l-1e-3 -0.083 0.185 5e-3 -7e-3 0.078h-0.047l-0.012 0.07 0.187 0.018 0.173 0.315-0.031 0.398-0.091 8e-3 -9e-3 0.106h0.018l-1e-3 0.064-0.133-4e-3v-0.063h0.043v-0.115l-0.263 4e-3 -3e-3 0.087h0.057v0.087l-0.207 0.014v-0.086l0.065-2e-3 3e-3 -0.1-0.286 0.037 8e-3 0.087h0.046v0.074h-0.164v-0.067h0.058l-0.016-0.08-0.249 0.036-0.345-0.149-0.861 0.056s-0.096 0.13-0.112 0.268c-0.015 0.129 0.427 0.508 0.427 0.508h0.153s0.393 0.563 0.575 0.803c0.177 0.24 0.137 0.81-0.013 0.928-0.151 0.122-0.41 0.468-0.41 0.468l-0.058 0.088-0.178 0.266 9e-3 0.224c0.128 0 0.169 0.293 0.209 0.319 0.041 0.022 0.128 0.218 0.128 0.314 0 0.094-0.218 0.348-0.253 0.398-0.038 0.056-0.074 0.063-0.231 0.202l-0.259 0.036c-0.072 0.034-0.18 0.136-0.303 0.17-0.12 0.035-0.449-0.013-0.449-0.013l-0.062-0.06c-0.183 0.099-0.243-0.091-0.422-0.217l-0.046-0.232 0.052-0.19 0.017-0.153-0.015-0.081 0.185-0.2 0.096-0.278s0.056-0.144-0.19-0.05c-0.25 0.1-0.484 0.035-0.62-0.083-0.137-0.12-0.37-0.47-0.439-0.542l-0.384-0.314 0.071-0.12s-0.125-0.412-0.343-0.628c-0.219-0.215-0.261-0.492-0.315-0.641-0.058-0.145 0.122-0.734 0.122-0.734s-0.287-0.326-0.453-0.987c-0.166-0.664 0.221-0.844 0.221-0.844s-0.109-1.458-0.152-1.582c-0.039-0.118 0.043-0.201-0.014-0.275l0.178-0.314c0.04-0.024 0.027-0.133-0.058-0.227-0.077-0.098 0.141-0.414 0.252-0.498 0.107-0.082 0.398-0.312 0.38-0.473-0.011-0.154 0.057-0.298 0.018-0.332-0.043-0.037-0.193-0.109-0.33-0.159-0.138-0.048-0.563-0.29-0.631-0.325-0.172-0.092-0.125-0.037-0.069-0.171 0.056-0.132 0.303-0.132 0.632-0.108 0.329 0.025 0.573 0.242 0.697 0.265 0.123 0.025 0.289 0 0.412 0 0.121 0 0.302 0.138 0.302 0.138v0.028l-4e-3 0.073c-0.015 0.127-0.052 0.293-0.052 0.293s0.027 0.215-0.108 0.459l-0.067 0.135-0.081 0.191-0.191 0.681" fill="#1b4892"/>
  </g>
  <g transform="matrix(6.2762 0 0 -6.2762 -437.13 902.46)" fill="#fff">
   <g transform="translate(72.312 151.75)">
    <path d="m0 0h0.505c0.309 0 0.714 0.012 0.714 0.431 0 0.387-0.348 0.451-0.659 0.451h-0.56zm-0.913 1.602h1.559c0.792 0 1.459-0.27 1.459-1.176 0-0.541-0.291-0.958-0.842-1.057l0.984-1.631h-1.02l-0.808 1.542h-0.419v-1.542l-0.91 3e-3z" fill="#fff"/>
   </g>
   <g transform="translate(78.181 150.98)">
    <path d="m0 0c0-0.911-0.555-1.59-1.626-1.59-1.074 0-1.63 0.679-1.63 1.59v2.374h0.846v-2.341c0-0.477 0.328-0.838 0.784-0.838 0.447 0 0.774 0.361 0.774 0.838v2.341h0.852z" fill="#fff"/>
   </g>
   <g transform="translate(78.809 153.35)">
    <path d="m0 0h1.288l0.891-2.522h9e-3l0.892 2.522h1.286v-3.864h-0.852v2.963h-0.013l-1.016-2.963h-0.646l-0.978 2.963h-0.013v-2.963h-0.848z" fill="#fff"/>
   </g>
   <g transform="translate(69.076 152.57)">
    <path d="m0 0h-1.102v0.752h3.057v-0.752h-1.103l0.023-3.111h-0.875z" fill="#fff"/>
   </g>
   <g transform="translate(56.588 152.44)">
    <path d="m0 0c-0.139 0.178-0.409 0.256-0.62 0.256-0.239 0-0.571-0.11-0.571-0.401 0-0.702 1.78-0.25 1.78-1.601 0-0.863-0.694-1.274-1.49-1.274-0.495 0-0.933 0.147-1.3 0.487l0.61 0.665c0.174-0.23 0.455-0.364 0.741-0.364 0.277 0 0.589 0.13 0.589 0.404 0 0.711-1.814 0.328-1.814 1.608 0 0.831 0.716 1.261 1.471 1.261 0.442 0 0.86-0.117 1.189-0.403z" fill="#fff"/>
   </g>
   <g transform="translate(58.612 151.75)">
    <path d="m0 0h0.57c0.299 0 0.595 0.102 0.595 0.46 0 0.402-0.399 0.45-0.727 0.45h-0.438zm-0.85 1.637h1.436c0.8 0 1.464-0.254 1.464-1.177 0-0.907-0.614-1.187-1.428-1.187h-0.622v-1.503h-0.85z" fill="#fff"/>
   </g>
   <g transform="translate(61.183 153.38)">
    <path d="m0 0h2.625v-0.79h-1.775v-0.718h1.677v-0.788h-1.677v-0.782h1.871v-0.789h-2.721z" fill="#fff"/>
   </g>
   <g transform="translate(67.065 152.38)">
    <path d="m0 0c-0.169 0.203-0.415 0.316-0.73 0.316-0.646 0-1.119-0.523-1.119-1.246 0-0.72 0.473-1.242 1.092-1.242 0.342 0 0.619 0.151 0.795 0.414l0.711-0.531c-0.322-0.459-0.868-0.67-1.397-0.67-1.207 0-2.086 0.789-2.086 2.029 0 1.241 0.879 2.032 2.086 2.032 0.428 0 0.975-0.144 1.304-0.57z" fill="#fff"/>
   </g>
  </g>
  <g transform="matrix(6.2762 0 0 -6.2762 -437.13 902.46)">
   <g transform="translate(63.517 155.68)">
    <path d="m0 0c0.01 0.238-0.17 0.443-0.413 0.443-0.303 0-0.463-0.22-0.48-0.443zm0.574-1.011c-0.215-0.286-0.574-0.456-0.924-0.456-0.679 0-1.222 0.478-1.222 1.212 0 0.731 0.462 1.198 1.142 1.198 0.632 0 1.11-0.467 1.11-1.198v-0.224h-1.573c0.053-0.272 0.249-0.445 0.512-0.445 0.219 0 0.367 0.115 0.482 0.274z" fill="#bd3627"/>
   </g>
   <g transform="translate(58.405 156.21)">
    <path d="m0 0h-0.673v-0.857c0-0.272 0.038-0.475 0.364-0.475l0.309 0.074v-0.664c-0.167-0.058-0.357-0.078-0.536-0.078-0.508 0-0.803 0.21-0.779 0.797l4e-3 2.604h0.638v-0.759h0.673z" fill="#bd3627"/>
   </g>
   <g transform="translate(59.852 157.65)">
    <path d="m0 0v-1.391h8e-3c0.061 0.182 0.286 0.372 0.613 0.372 0.687 0 0.815-0.473 0.815-1.09v-1.27h-0.679v1.127c0 0.268-2e-3 0.61-0.353 0.61-0.349 0-0.404-0.292-0.404-0.59v-1.147h-0.678v3.379z" fill="#bd3627"/>
   </g>
  </g>
 </g>
</svg>
