<svg width="800" height="562.54" version="1.1" viewBox="0 0 211.67 148.84" xmlns="http://www.w3.org/2000/svg">
 <defs>
  <clipPath id="clipPath68578">
   <path d="m59.64 80.424h10.821v17.822h-10.821z"/>
  </clipPath>
  <clipPath id="clipPath67842">
   <path d="m64.465 96.353c-0.181-0.291-0.874-0.255-0.874-0.255l-0.299-0.137c-0.198-0.2-0.138-0.341-0.138-0.341l0.186 0.097-0.96-4.817-0.15-0.031c-0.047-0.035-0.079-0.342 0.112-0.519s1.756-0.863 1.781-0.934c0.025-0.07 0.051-0.258-0.028-0.66 0 0-0.523-0.291-0.303-0.903l0.134-0.025s0.114-0.245 0.224-0.315l0.105-0.018-0.061-0.999-0.117-0.087-0.029-0.482-0.187-0.213-0.126-1.275-0.104-0.094-0.02-0.33 0.237-0.012c0.058-0.047-0.034-0.082-0.142-0.07l-0.071-0.803 0.09-0.241 0.179-0.119-0.124-0.082-0.02-0.288 0.267-0.018 0.03 0.378 0.113-0.078 4e-3 -0.289 0.195-0.101c-5e-3 -0.023-0.365-0.045-0.477-0.035l-0.087-0.018-7e-3 1e-3s-0.194-0.15 0.146-0.262l-0.017-0.198-0.058-0.041-0.116-1.315h1.149l0.095 1.166 0.123 0.017s0.144-0.106 0.387-0.041c0 0-0.052 0.177 0.095 0.248l0.067-0.118 0.013-0.171 0.33-0.013-1e-3 6e-3h0.013s0.05 0.16 0.098 0.254l0.015 0.036 7e-3 -1e-3 -4e-3 0.012 0.023 0.09 0.016-0.013 0.012 0.106-0.012 1e-3 0.109 0.138 0.023-2e-3s0.141 2.003 0.149 2.393c7e-3 0.388-0.386 0.555-0.504 0.589-0.111 0.035-0.297 0.048-0.358 0.068l-0.047 0.24c0.02 0.295 0.073 0.825 0.073 0.825s0.018 0.067-0.113 0.134l0.064 1.018s-0.227 0.173-0.291 0.272l-0.029 0.178 0.189-0.092c0.096-0.126 0.294-0.331 0.506-0.229 0.211 0.102 0.418 0.551 0.153 0.999l0.229 0.576 0.071 9e-3c0.164 0.036 0.515 0.294 0.425 0.826 0 0-1.096 0.82-1.278 0.883l0.021 3e-3 1.396 4.198c0.064-0.11 0.042-0.174 0.042-0.174-0.611-2.091-1.399-3.977-1.399-3.977 0.641-0.308 1.085-0.701 1.085-0.701l0.016 0.079 0.06 0.226c-0.087 0.143-0.692 0.56-0.692 0.56l0.024 0.047c0.458-0.244 0.802-0.63 0.802-0.63 0.014 0.094-0.082 0.245-0.082 0.245l0.021 0.228c-0.113 0.227-0.596 0.535-0.596 0.535l0.038 0.086c0.475-0.315 0.683-0.583 0.683-0.583l-0.058 0.237s0.077 0.133 0.038 0.229c-0.042 0.093-0.557 0.463-0.557 0.463l0.062 0.086c0.349-0.227 0.627-0.559 0.627-0.559 0.016 0.095-0.08 0.205-0.08 0.205s0.052 0.205-0.013 0.33c-0.064 0.126-0.444 0.378-0.444 0.378l0.038 0.094s0.278-0.205 0.421-0.338c0.143-0.134 0.153-0.236 0.153-0.236 0.069 0.094-0.059 0.259-0.059 0.259s0.1 0.22 0.019 0.315c-0.08 0.094-0.421 0.346-0.421 0.346l0.039 0.078s0.135-0.109 0.309-0.243c0.175-0.134 0.217-0.307 0.217-0.307 0.061 0.11-0.059 0.275-0.059 0.275l0.021 0.266-0.391 0.371 0.047 0.087s0.175-0.158 0.334-0.308 0.138-0.251 0.138-0.251c0.091 0.101-0.084 0.314-0.084 0.314l0.013 0.299-0.311 0.299 0.039 0.079s0.071-0.071 0.254-0.229c0.182-0.156 0.161-0.292 0.161-0.292 0.077 0.127-0.059 0.316-0.059 0.316s0.046 0.047 0.044 0.165c-1e-3 0.118-0.31 0.385-0.31 0.385l0.038 0.095c0.404-0.307 0.383-0.511 0.383-0.511 0.101 0.118-0.067 0.345-0.067 0.345l0.03 0.158c-0.066 0.165-0.248 0.353-0.248 0.353l0.014 0.048c0.206-0.111 0.304-0.401 0.304-0.401h0.087c5e-3 0.212-0.025 0.384-0.081 0.542h6e-3l0.048 0.424-1.441 1.387c-0.21 0.041-0.494 0.069-0.773 0.069-0.419 0-0.823-0.063-0.932-0.239"/>
  </clipPath>
  <clipPath id="clipPath67650">
   <path d="m59.64 80.424h10.821v17.822h-10.821z"/>
  </clipPath>
  <clipPath id="clipPath67602">
   <path d="m53.483 80.424h25.277v17.822h-25.277z"/>
  </clipPath>
 </defs>
 <g transform="translate(356.32 127.87)">
  <g fill="#140f0e">
   <g transform="matrix(9.071 0 0 -9.071 -850.47 750.49)" clip-path="url(#clipPath67602)">
    <g transform="translate(57.956 86.397)">
     <path d="m0 0-0.125 0.134c-0.072 0.03-0.157 0.05-0.254 0.06s-0.198 0.01-0.303-2e-3c-0.105-0.011-0.588-0.03-0.66-0.056l-0.03-0.219 0.013-0.203c0.112-0.015 0.623-0.023 0.745-0.023 0.12 0 0.228 0.011 0.324 0.032s0.171 0.054 0.228 0.098l0.062 0.179m0.503-0.591 0.057-0.053 0.063-0.024 0.067-0.016 0.084-0.035 0.057-0.036 0.073-0.055 0.07-0.064 0.05-0.058 0.032-0.087 0.027-0.107 0.043-0.091 0.07-0.037 0.07 0.021 0.026 0.047 0.015 0.053 0.041 0.037 0.103 0.011 0.102-0.011 0.039-0.251v-0.244l-0.052-0.096-0.097-0.086-0.122-0.07-0.125-0.046c-0.076-0.019-0.165-0.032-0.271-0.038-0.104-6e-3 -0.209-5e-3 -0.316 4e-3 -0.106 8e-3 -0.207 0.025-0.3 0.053-0.095 0.027-0.17 0.063-0.228 0.109l-0.124 0.131-0.092 0.148-0.022 0.12-0.011 0.121-0.024 0.116-0.062 0.112-0.179 0.111c-0.072 0.023-0.435 0.036-0.561 0.043l-0.24 0.017-0.07-5e-3 -0.082-0.093 2e-3 -0.146 0.068-0.146 0.109-0.084 0.216-0.016 0.07 3e-3h0.076l0.095-0.018 0.024-0.126 0.011-0.149-3e-3 -0.148-0.017-0.119c-0.072-0.024-0.151-0.034-0.241-0.03l-0.393 5e-3c-0.253 0-0.517-1e-3 -0.794-2e-3 -0.276-1e-3 -0.536 2e-3 -0.782 9e-3l-0.027 0.123-6e-3 0.143 6e-3 0.147 0.011 0.13 0.127 0.019 0.141 0.016 0.124 0.027 0.084 0.059 0.027 0.147v0.194l6e-3 0.168 5e-3 0.173 8e-3 0.196 6e-3 0.203-0.019 0.178-0.06 0.12-0.089 0.043-0.119 0.021-0.128 0.01-0.113 0.01-0.011 0.125-6e-3 0.141 6e-3 0.139 0.027 0.119c0.281 0.02 0.578 0.028 0.89 0.026 0.313-2e-3 0.754-5e-3 1.061-8e-3 0.133 0 0.524 3e-3 0.645 0.01 0.121 5e-3 0.237 6e-3 0.349 1e-3 0.173-9e-3 0.34-0.037 0.501-0.08 0.161-0.045 0.293-0.098 0.398-0.161l0.132-0.094 0.125-0.129 0.084-0.156 0.011-0.171-0.095-0.195-0.176-0.152-0.227-0.123-0.25-0.103" fill="#140f0e"/>
    </g>
    <g transform="translate(62.186 86.246)">
     <path d="m0 0h-0.267l-0.17-0.226-0.097-0.243 0.114-0.011 0.261-4e-3 0.259 6e-3 0.101 0.017-0.087 0.237-0.114 0.224m0.612 0.909c0.101-0.161 0.199-0.333 0.295-0.517 0.096-0.183 0.195-0.372 0.3-0.568l0.152-0.261c0.054-0.087 0.108-0.179 0.163-0.275l0.083-0.173 0.111-0.178 0.182-0.121c0.074-0.029 0.174-0.036 0.3-0.023 0.036-0.074 0.051-0.161 0.046-0.261-5e-3 -0.096-0.011-0.185-0.019-0.263-0.155-0.022-0.324-0.032-0.506-0.031s-0.365 2e-3 -0.549 2e-3c-0.188 0-0.375-1e-3 -0.561-4e-3 -0.185-2e-3 -0.362 5e-3 -0.528 0.021l-0.022 0.127v0.147l0.011 0.148 0.011 0.14 0.165 5e-3 0.163 0.027 0.092 0.06-0.041 0.113c-0.072 5e-3 -0.155 0.01-0.249 0.015s-0.32 8e-3 -0.416 8e-3c-0.095 0-0.32-3e-3 -0.41-8e-3s-0.168-0.014-0.233-0.026l-8e-3 -0.106 0.095-0.058 0.149-0.022 0.159 3e-3 0.035-0.126 9e-3 -0.153-6e-3 -0.157-0.01-0.143c-0.141-5e-3 -0.291-8e-3 -0.45-9e-3s-0.317-2e-3 -0.474-2e-3 -0.311 1e-3 -0.463 2e-3c-0.151 1e-3 -0.292 4e-3 -0.422 9e-3l-0.024 0.121-9e-3 0.145 9e-3 0.144 0.024 0.122 0.119 0.021 0.124 0.019 0.114 0.03 0.092 0.051 0.085 0.098 0.078 0.134 0.07 0.141 0.065 0.122c0.119 0.213 0.234 0.422 0.344 0.627s0.227 0.42 0.348 0.645l0.071 0.135 0.093 0.096 0.197 0.029c0.085 3e-3 0.438 1e-3 0.534-4e-3s0.19-0.01 0.282-0.016 0.168-6e-3 0.23-2e-3" fill="#140f0e"/>
    </g>
    <g transform="translate(67.32 86.136)">
     <path d="m0 0-0.013-0.197-3e-3 -0.214v-0.136l-5e-3 -0.173 0.011-0.17 0.038-0.111 0.127-0.06 0.455-0.013 0.203 0.022 0.154 0.039c0.091 0.038 0.159 0.093 0.203 0.168 0.046 0.075 0.076 0.16 0.093 0.255 0.016 0.095 0.03 0.196 0.025 0.305-6e-3 0.107-0.011 0.208-0.033 0.314l-0.068 0.202-0.154 0.147c-0.066 0.039-0.144 0.066-0.236 0.08-0.092 0.015-0.457 0.016-0.569 4e-3l-0.163-0.053-0.062-0.105-8e-3 -0.141 5e-3 -0.163m-1.564-1.636-0.025 0.122-7e-3 0.141 7e-3 0.141 0.025 0.122 0.082 0.015 0.099 7e-3 0.103 8e-3 0.084 0.024 0.082 0.097 0.024 0.154-6e-3 0.175-9e-3 0.16 0.011 0.207 6e-3 0.219v0.112l-2e-3 0.121-0.012 0.109-0.028 0.08-0.082 0.056-0.119 0.023-0.135 9e-3 -0.125 0.015c-7e-3 0.078-0.013 0.167-0.019 0.267-5e-3 0.1 5e-3 0.186 0.029 0.257 0.178 3e-3 0.362 7e-3 0.553 0.014 0.191 8e-3 0.385 0.014 0.58 0.02 0.194 6e-3 0.385 9e-3 0.573 9e-3s0.631-4e-3 0.805-0.014l0.216-0.029 0.201-0.048c0.14-0.04 0.275-0.091 0.403-0.157s0.242-0.144 0.341-0.234c0.099-0.089 0.181-0.187 0.244-0.294 0.063-0.109 0.102-0.223 0.116-0.345 0.015-0.118 0.021-0.245 0.021-0.381 0-0.135-0.03-0.265-0.091-0.389-0.044-0.094-0.108-0.185-0.192-0.275-0.085-0.091-0.186-0.173-0.304-0.245-0.117-0.072-0.249-0.132-0.395-0.181-0.146-0.048-0.306-0.08-0.479-0.092-0.188-0.014-0.643-0.019-0.84-0.016-0.196 4e-3 -0.394 6e-3 -0.593 6e-3 -0.195 0-0.387-3e-3 -0.576-9e-3s-0.379 1e-3 -0.566 0.019" fill="#140f0e"/>
    </g>
    <g transform="translate(72.647 87.13)">
     <path d="m0 0 0.024-0.132 9e-3 -0.156-6e-3 -0.154-0.011-0.127-0.213-5e-3 -0.1 3e-3h-0.1l-0.087-0.015-0.1-0.113-0.025-0.186 0.014-0.219 9e-3 -0.375-6e-3 -0.186-3e-3 -0.085-2e-3 -0.09 8e-3 -0.084 0.024-0.063 0.081-0.058 0.119-0.027 0.133-0.011 0.248-0.014 0.024-0.122 8e-3 -0.144-8e-3 -0.145-0.024-0.122c-0.152-4e-3 -0.446-8e-3 -0.621-0.01s-0.352-4e-3 -0.531-4e-3 -0.357 2e-3 -0.533 6e-3c-0.177 3e-3 -0.475 8e-3 -0.63 0.016-7e-3 0.086-0.016 0.177-0.027 0.271-0.011 0.096-8e-3 0.187 0.011 0.271l0.116 0.017 0.264 0.011 0.119 0.021 0.081 0.044 0.041 0.131 3e-3 0.183c0 0.064 2e-3 0.141 5e-3 0.232 4e-3 0.091 6e-3 0.184 6e-3 0.282l8e-3 0.194v0.184l-0.046 0.146-0.124 0.085-0.174 7e-3 -0.283 0.012-0.024 0.122-9e-3 0.149 9e-3 0.149 0.024 0.122c0.155 8e-3 0.452 0.013 0.627 0.017s0.352 5e-3 0.531 5e-3c0.178 0 0.354-3e-3 0.527-7e-3 0.174-5e-3 0.466-0.014 0.614-0.026" fill="#140f0e"/>
    </g>
    <g transform="translate(74.479 86.276)">
     <path d="m0 0c-0.022-0.061-0.048-0.135-0.066-0.238-0.024-0.141-0.016-0.135-9e-3 -0.264 6e-3 -0.095 0.021-0.187 0.046-0.268 0.03-0.098 0.057-0.148 0.09-0.193 0.056-0.089 0.142-0.159 0.26-0.21 0.116-0.052 0.376-0.082 0.51-0.092 0.135-0.01 0.401 3e-3 0.529 0.038 0.128 0.036 0.256 0.12 0.338 0.204l0.113 0.18c0.046 0.092 0.066 0.185 0.079 0.279 0.013 0.091 0.012 0.185 0.011 0.283-2e-3 0.097-0.012 0.165-0.04 0.243l-0.117 0.193-0.183 0.153c-0.076 0.041-0.166 0.071-0.268 0.09-0.102 0.018-0.35 0.022-0.472 0.013-0.201-0.017-0.49-0.062-0.599-0.132-0.107-0.071-0.181-0.164-0.222-0.279m0.478 0.997c0.194 0.015 0.631 0.018 0.791 8e-3 0.159-0.01 0.304-0.03 0.435-0.059 0.131-0.03 0.25-0.067 0.357-0.112 0.108-0.046 0.21-0.096 0.306-0.155 0.161-0.099 0.302-0.216 0.422-0.354s0.205-0.29 0.255-0.454c0.061-0.208 0.06-0.408-6e-3 -0.601-0.064-0.193-0.172-0.368-0.324-0.524-0.152-0.157-0.34-0.287-0.565-0.393-0.223-0.105-0.462-0.173-0.716-0.205-0.14-0.019-0.426-0.027-0.596-0.022-0.17 6e-3 -0.453 0.022-0.589 0.051-0.148 0.03-0.286 0.069-0.417 0.119-0.13 0.051-0.251 0.11-0.362 0.177-0.112 0.067-0.211 0.14-0.301 0.22-0.09 0.078-0.166 0.163-0.232 0.251-0.064 0.091-0.119 0.199-0.166 0.328-0.046 0.128-0.063 0.258-0.048 0.39 0.011 0.113 0.039 0.219 0.086 0.322 0.046 0.1 0.105 0.196 0.177 0.284l0.239 0.243c0.088 0.075 0.18 0.142 0.277 0.2 0.122 0.071 0.261 0.133 0.419 0.187s0.343 0.087 0.558 0.099" fill="#140f0e"/>
    </g>
   </g>
   <g transform="matrix(9.071 0 0 -9.071 -356.32 -107.7)">
    <path d="m0 0h0.651v-6.172h0.636v6.172h0.602v0.637h-1.889z" fill="#140f0e"/>
   </g>
   <g transform="matrix(9.071 0 0 -9.071 -332.06 -104.64)">
    <path d="m0 0c0 0.192 0.116 0.398 0.372 0.398 0.244 0 0.373-0.2 0.373-0.398v-4.861c0-0.235-0.154-0.399-0.373-0.399-0.226 0-0.372 0.156-0.372 0.399zm0.372 1.055c-0.575 0-1.009-0.506-1.009-1.178v-4.616c0-0.671 0.434-1.178 1.009-1.178s1.01 0.507 1.01 1.178v4.616c0 0.672-0.435 1.178-1.01 1.178" fill="#140f0e"/>
   </g>
   <g transform="matrix(9.071 0 0 -9.071 -301.67 -75.505)">
    <path d="m0 0-0.091-0.934-0.091 0.934-0.438 4.169-1e-3 0.017h-0.909v-6.809h0.563v4.696l0.073-0.755 0.487-3.925 2e-3 -0.016h0.568l0.469 3.941 0.064 0.72v-4.661h0.612v6.809h-0.879z" fill="#140f0e"/>
   </g>
   <g transform="matrix(9.071 0 0 -9.071 -225.96 -107.52)">
    <path d="m0 0h0.382c0.174 0 0.263-0.124 0.263-0.369v-1.85c0-0.241-0.091-0.369-0.263-0.369h-0.382zm0.382 0.656h-1.019v-6.808h0.637v2.938h0.382c0.273 0 0.909 0.106 0.909 1.086v1.699c0 0.979-0.636 1.085-0.909 1.085" fill="#140f0e"/>
   </g>
   <g transform="matrix(9.071 0 0 -9.071 -205.93 -80.675)">
    <path d="m0 0h0.741v0.616h-0.741v2.384h0.88v0.616h-1.516v-6.809h1.657v0.616h-1.021z" fill="#140f0e"/>
   </g>
   <g transform="matrix(9.071 0 0 -9.071 -182.24 -113.47)">
    <path d="m0 0h-1.518v-0.637h0.651v-6.172h0.637v6.172h0.88v-6.172h0.637v6.172h0.601v0.637h-1.518z" fill="#140f0e"/>
   </g>
   <g transform="matrix(9.071 0 0 -9.071 -144.65 -113.47)">
    <path d="m0 0h-0.609l-0.504-3.078-0.493 3.063-3e-3 0.015h-0.608l0.745-4.137v-2.672h0.637v2.669l0.831 4.118z" fill="#140f0e"/>
   </g>
  </g>
  <g transform="matrix(9.071 0 0 -9.071 -850.47 750.49)" clip-path="url(#clipPath67650)">
   <g transform="translate(65.225 96.538)">
    <path d="m0 0 0.052 3e-3 -0.052-3e-3m-0.118-9e-3 0.116 9e-3 -0.116-9e-3m0.957-0.159c-0.197 0.091-0.408 0.143-0.604 0.171h-0.18 0.18c0.195-0.028 0.406-0.08 0.602-0.17l2e-3 -1e-3m0.052-0.031-0.05 0.03 0.05-0.03m0.054-0.036-0.049 0.032 0.049-0.032m0.055-0.04-0.05 0.037 0.05-0.037m0.479-0.953-0.018 0.014 0.019-0.014zm-1.575 1.088 0.029-1e-3 -0.029 1e-3m-0.054 3e-3 0.03-1e-3 -0.03 1e-3m0.265-0.383s-0.793 0.068-1.562-0.149l-1e-3 1e-3c0.769 0.216 1.563 0.148 1.563 0.148m-0.549 0.37-0.013-1e-3 0.013 1e-3m-0.189-0.018 0.094 0.056-0.094-0.056m0.301 0.029-0.04-3e-3 -0.051-5e-3 0.051 5e-3 0.04 3e-3m0.044 2e-3 -0.031-1e-3 0.031 1e-3m0.049 2e-3 -0.034-1e-3 0.034 1e-3m0.058-1e-3 -0.046 1e-3 0.046-1e-3m-0.357 0.024c0.119 0.058 0.269 0.088 0.409 0.103-0.14-0.015-0.29-0.045-0.409-0.103m0.627-0.046 0.018-2e-3 -0.018 2e-3m-0.058 7e-3 0.022-2e-3 -0.022 2e-3m-0.067 6e-3 0.034-2e-3 -0.034 2e-3m0.34-0.046 6e-3 -2e-3 -6e-3 2e-3m-0.057 9e-3 7e-3 -1e-3 -7e-3 1e-3m1.194-1.025-0.182 0.118 0.182-0.118m-0.39 0.177-4e-3 2e-3 4e-3 -2e-3m0.066-0.019-8e-3 3e-3 8e-3 -3e-3m0.067-0.019-6e-3 3e-3 6e-3 -3e-3m-0.12 0.022 0.014-6e-3 -0.014 6e-3m0.322-0.16h1e-3zm-0.076 0.041 4e-3 -2e-3 -4e-3 2e-3m-0.164 0.08 9e-3 -4e-3 -9e-3 4e-3m-1.935 0.402 0.072 2e-3 -0.072-2e-3m-0.07-3e-3 0.052 2e-3 -0.052-2e-3m1.999-0.335 0.057-0.032-0.057 0.032m-0.069 0.036 0.054-0.029-0.054 0.029m-0.076 0.038 0.042-0.02-0.042 0.02m0.205-0.108 1e-3 -1e-3 -0.29 0.15zm-0.208 0.779c0.089-0.068 0.176-0.15 0.251-0.246-0.076 0.097-0.162 0.178-0.251 0.246m5.025-25.127c-0.17 0.425-2.603-0.018-2.603-0.018l6e-3 -4e-3c-0.714 0.198-2.098 0.381-2.745 0.444h-2e-3l-0.058 6e-3h-8e-3l-0.052 5e-3 -0.047 3e-3 -0.056 4e-3 -0.01 1e-3 -0.053 3e-3 -0.063 3e-3 -0.02 2e-3 -0.06 2e-3 -0.026 1e-3 -0.043 2e-3 -0.028 1e-3 -0.065 3e-3 -0.032 1e-3 -0.044 2e-3 -0.035 1e-3 -0.065 2e-3 -0.038 1e-3 -0.049 1e-3 -0.037 1e-3 -0.064 2e-3 -0.036 1e-3 -0.069 2e-3 -0.025 1e-3c-0.132 3e-3 -0.27 6e-3 -0.41 9e-3l0.093 0.105c0.023 0.019-0.161 0.089-0.198 0.302-0.039 0.212-0.082 0.383-0.026 0.666l0.727 8.898 0.123 0.018s0.143-0.106 0.384-0.041c0 0-0.05 0.177 0.097 0.247l0.066-0.118 0.014-0.171 0.33-0.012v5e-3l0.012 1e-3s0.051 0.159 0.098 0.254l0.014 0.034v2e-3l8e-3 -1e-3 -4e-3 0.011 0.024 0.091 0.015-0.014 0.011 0.106-0.011 2e-3 0.109 0.137 0.023-3e-3s0.141 2.005 0.149 2.394c7e-3 0.389-0.386 0.555-0.503 0.589-0.112 0.035-0.299 0.048-0.359 0.068l-0.046 0.24c0.02 0.296 0.073 0.826 0.073 0.826s0.017 0.066-0.115 0.134l0.065 1.017s-0.226 0.174-0.29 0.272l-0.029 0.179 0.188-0.093c0.096-0.125 0.295-0.33 0.506-0.229 0.211 0.103 0.418 0.551 0.153 0.999l0.228 0.577 0.071 9e-3c0.165 0.035 0.516 0.294 0.426 0.825 0 0-1.095 0.821-1.278 0.883l0.011 1e-3 7e-3 1e-3h4e-3l1.395 4.2v-1e-3c0.063-0.111 0.042-0.174 0.042-0.174-0.611-2.091-1.399-3.977-1.399-3.977 0.641-0.307 1.086-0.701 1.086-0.701l0.015 0.079 0.06 0.227c-0.089 0.142-0.691 0.559-0.691 0.559l0.024 0.047c0.458-0.243 0.801-0.629 0.801-0.629 0.015 0.094-0.082 0.243-0.082 0.243l0.021 0.229c-0.112 0.227-0.596 0.535-0.596 0.535l0.038 0.086c0.475-0.315 0.683-0.582 0.683-0.582l-0.058 0.236s0.078 0.134 0.037 0.228-0.555 0.464-0.555 0.464l0.061 0.087c0.349-0.229 0.628-0.56 0.628-0.56 0.014 0.095-0.081 0.205-0.081 0.205s0.052 0.205-0.012 0.331c-0.064 0.125-0.446 0.377-0.446 0.377l0.039 0.095s0.278-0.205 0.421-0.339 0.152-0.236 0.152-0.236c0.07 0.095-0.059 0.26-0.059 0.26s0.101 0.22 0.02 0.314c-0.079 0.095-0.421 0.347-0.421 0.347l0.039 0.078s0.135-0.11 0.309-0.244c0.175-0.134 0.216-0.307 0.216-0.307 0.062 0.11-0.057 0.276-0.057 0.276l0.02 0.266-0.39 0.37 0.046 0.087s0.175-0.158 0.335-0.307c0.158-0.15 0.136-0.252 0.136-0.252 0.092 0.102-0.082 0.314-0.082 0.314l0.012 0.299-0.311 0.3 0.039 0.078s0.071-0.071 0.254-0.229c0.182-0.156 0.161-0.291 0.161-0.291 0.076 0.126-0.06 0.315-0.06 0.315s0.048 0.047 0.046 0.165c-2e-3 0.119-0.312 0.386-0.312 0.386l0.039 0.094c0.404-0.307 0.383-0.511 0.383-0.511 0.101 0.118-0.067 0.346-0.067 0.346l0.03 0.157c-0.065 0.166-0.248 0.354-0.248 0.354l0.014 0.047c0.206-0.11 0.304-0.401 0.304-0.401h0.087v0.088l-2e-3 0.058-1e-3 9e-3c-8e-3 0.145-0.035 0.27-0.078 0.387h6e-3l0.048 0.425-0.129 0.025 0.053 0.306s-0.669 0.962-1.945 1.161l0.042-2e-3 -0.133 0.015-0.144 0.015-3e-3 -4e-3c-0.729 0.04-1.18-0.172-1.446-0.387-0.195-0.047-0.373-0.111-0.498-0.205-0.335-0.251-0.254-0.44-0.254-0.44l0.076 0.041-0.069-0.038c0.035 8e-3 0.073 0.016 0.181 1e-3l-0.939-4.721-0.019 0.022-4e-3 -0.025-0.151-0.032c-0.046-0.035-0.078-0.342 0.113-0.519s1.756-0.863 1.781-0.933c0.024-0.071 0.05-0.259-0.028-0.66 0 0-0.523-0.291-0.303-0.904l0.134-0.024s0.114-0.244 0.224-0.315l0.105-0.019-0.06-0.998-0.118-0.087-0.029-0.484-0.186-0.212-0.127-1.274-0.104-0.094-0.02-0.331 0.236-0.011c0.06-0.048-0.034-0.083-0.141-0.071l-0.072-0.802 0.091-0.242 0.179-0.118-0.123-0.082-0.02-0.289 0.265-0.018 0.032 0.377 0.112-0.076 4e-3 -0.289 0.195-0.101c-5e-3 -0.024-0.365-0.046-0.477-0.035l-0.085-0.018h-1e-3l-8e-3 1e-3 -1e-3 -1e-3c-0.011-9e-3 -0.182-0.153 0.146-0.261h1e-3l-0.016-0.199-0.059-0.041-0.852-9.677s-0.064-0.177-0.204-0.183l-0.016-0.182-0.036-0.057c-0.213 2e-3 -0.374 4e-3 -0.453 4e-3 -2.431 0.097-3.571-1.128-3.421-1.813 0.149-0.684 1.548-1.252 4.216-1.443s4.589 0.892 5.364 1.174c0.774 0.283 2.943 1.151 2.772 1.575" fill="#140f0e"/>
   </g>
   <g transform="translate(66.694 95.137)">
    <path d="m0 0-0.087 0.027-8e-3 6e-3h-1e-3l-3e-3 2e-3 -4e-3 4e-3 -0.012 9e-3 -3e-3 2e-3 -0.012 9e-3 -0.05 3e-3 -0.071 0.03-0.072 0.073-0.021 7e-3 -0.013 5e-3 -9e-3 1e-3 -0.011-0.026 0.01 0.026-0.023 5e-3 -0.036 0.014-0.011 1e-3 -0.014 3e-3 -5e-3 -0.011-0.047 0.032-0.075 0.091-0.051 0.026-0.076 0.237 0.237 0.076 0.059-0.031 0.017-6e-3 0.027-0.013 0.029-0.018 0.025-0.01 2e-3 -1e-3 0.062-0.033 0.011-5e-3 0.063-0.035 0.01-6e-3 0.02-0.016 0.033-0.015 0.193-0.124 6e-3 -5e-3 0.018-0.013 1e-3 -1e-3v-1e-3h1e-3v-1e-3h1e-3l3e-3 -3e-3h1e-3v-1e-3l1e-3 -1e-3h1e-3v-1e-3h1e-3v-1e-3h1e-3v-1e-3h1e-3v-1e-3l3e-3 -3e-3v-1e-3h2e-3v-1e-3l1e-3 -1e-3v-1e-3h1e-3v-1e-3h1e-3l0.011-0.231-0.138-0.07m0.39-0.687-0.039-0.131 0.056 0.027 0.062 5e-3 -0.044 0.048-0.035 0.051m-0.136-0.439-0.046-0.144 0.089 0.043 0.045 1e-3 -0.042 0.037-0.046 0.063m-0.134-0.411-0.063-0.189 0.11 0.066h0.06l-0.054 0.047-0.053 0.076m-0.142-0.421-0.088-0.256 6e-3 0.012 0.12 0.093 0.086-3e-3 -0.068 0.06-0.056 0.094m-0.14-0.404-0.093-0.261 0.108 0.087 0.111-5e-3 -0.054 0.041-0.072 0.138m-0.685-1.815 0.256-0.142-0.111 0.078-0.056 0.224 0.023 0.047 0.104 0.088 0.136-0.012c0.143-0.077 0.275-0.165 0.391-0.253-0.116 0.112-0.295 0.245-0.424 0.327l-0.066 0.219 0.038 0.086 0.11 0.098 0.104-1e-3 -0.049 0.035-0.041 0.245 0.062 0.087 0.19 0.068-0.055 0.037-0.079 0.161c-0.237-0.651-0.436-1.153-0.533-1.392m-3.795-19.488c-1.825 0-2.576-0.758-2.763-0.991-0.176-0.219-0.256-0.442-0.218-0.614 0.11-0.498 1.233-1.103 4.058-1.305 0.203-0.015 0.41-0.022 0.614-0.022 1.893 0 3.338 0.62 4.202 0.99 0.187 0.081 0.346 0.149 0.474 0.196 1.499 0.546 2.562 1.124 2.66 1.345-0.038 0.022-0.167 0.073-0.546 0.073-0.651 0-1.564-0.149-1.797-0.19l-0.128-0.01c-0.667 0.184-2.014 0.37-2.715 0.438l-0.404 0.028-0.028 1e-3 -0.059 3e-3 -0.03 1e-3 -0.062 3e-3 -0.033 1e-3 -0.409 0.012h-0.03l-0.427 0.01-0.156 0.102 0.014 0.174c-0.056 0.064-0.111 0.154-0.133 0.276l-0.011 0.059c-0.036 0.197-0.071 0.383-0.014 0.672l0.724 8.879 0.15 0.16 0.123 0.017 0.13-0.032 0.104-0.028c0.021 0.101 0.082 0.196 0.196 0.251l0.155-1e-3c0.068-0.034 0.152-0.123 0.163-0.262l1e-3 -0.015 0.054-2e-3 0.066 0.158 7e-3 0.019 5e-3 0.016 0.015 0.057 0.017 0.048 0.033 0.122 0.101 0.128c0.027 0.394 0.135 1.961 0.142 2.295 5e-3 0.301-0.362 0.412-0.378 0.417l-0.198 0.037-0.166 0.032-0.106 0.099c-0.047 0.111-0.067 0.219-0.06 0.321 0.017 0.243 0.055 0.645 0.069 0.783l-0.016 8e-3 -0.095 0.167 0.059 0.926-0.256 0.256c-0.1 0.153-0.061 0.294-0.047 0.334l0.165 0.117h2e-3c0.132-1e-3 0.247-0.059 0.326-0.162 0.107-0.139 0.208-0.216 0.291-0.177 0.047 0.023 0.116 0.104 0.153 0.226 0.029 0.099 0.059 0.298-0.075 0.525l-0.012 0.154 0.228 0.576 0.158 0.112 0.04 5e-3c0.059 0.012 0.333 0.16 0.298 0.557-0.506 0.377-1.068 0.774-1.172 0.813l-0.114 0.186 0.049 0.104 1.372 4.133 0.149 0.12 0.171-0.088c0.095-0.167 0.067-0.286 0.056-0.318l-0.023-0.08 0.029 0.015 0.149-8e-3 0.052-0.031 0.011 0.081 0.025 0.222-0.11 0.194 0.04 0.23c-0.092 0.113-0.332 0.383-0.709 0.623l-0.065-0.165-0.108-0.038-0.139 0.067v1e-3l-0.058 0.067-0.158 0.144-2e-3 1e-3 -1e-3 2e-3h-1e-3l-2e-3 2e-3 -0.042 0.031-3e-3 2e-3 -0.043 0.028-9e-3 5e-3 -0.037 0.023c-0.082 0.038-0.172 0.07-0.267 0.096l-2e-3 -6e-3c-0.023-0.094-0.117-0.153-0.213-0.128l-0.027 5e-3 -0.035 6e-3 -0.053 0.023-0.077-3e-3 -0.024 3e-3 -0.01 1e-3 -0.028 2e-3 -0.019 3e-3 -0.026 2e-3 -0.028 5e-3 -0.026-1e-3 -1e-3 0.01-0.023 0.011-3e-3 -1e-3 -2e-3 -0.018-0.025 3e-3v-1e-3 1e-3l-0.012 3e-3 -0.017-2e-3v-1e-3h-0.013l-0.033 3e-3 -0.024-2e-3v6e-3l-0.018-4e-3v-2e-3 2e-3l-0.032-3e-3 -0.011-1e-3 -0.022-1e-3 -0.032-3e-3 -0.056-5e-3 -0.014-1e-3v-1e-3 1e-3 -1e-3h-1e-3l-0.012-1e-3v-1e-3l-0.093 0.015-0.244 0.038-0.034 0.089c-0.148-0.057-0.281-0.132-0.398-0.226l-0.044-0.026c0.69 0.145 1.37 0.092 1.37 0.092l0.135-0.085v-1e-3h1e-3v-1e-3l1e-3 -1e-3v-1e-3l1e-3 -1e-3v-1e-3h1e-3v-2e-3h1e-3v-2e-3h1e-3v-2e-3h1e-3v-2e-3l2e-3 -2e-3v-2e-3h1e-3l0.014-0.088v-2e-3c-9e-3 -0.096-0.099-0.162-0.189-0.158h-2e-3c-0.025 2e-3 -0.339 0.023-0.72-8e-3l-0.081-0.13-7e-3 -4e-3v-0.02l-0.066-2e-3h-1e-3l-0.015-1e-3 -0.05-2e-3 -0.171 0.11c-0.127-0.021-0.257-0.049-0.387-0.086l-0.145 0.023-0.076 0.174 0.046 0.094-0.124-0.072-0.134-0.124 0.105-0.07 0.03-0.136-0.939-4.721-0.092-0.122-0.07-0.019-9e-3 -2e-3 -0.035-5e-3 0.092-0.243c0.085-0.078 0.672-0.362 1.022-0.531 0.752-0.364 0.773-0.379 0.805-0.474 0.037-0.104 0.064-0.32-0.02-0.75l-0.087-0.121c-0.037-0.021-0.338-0.208-0.251-0.596l0.026-5e-3 0.129-0.098c0.044-0.095 0.112-0.199 0.149-0.234l0.077-8e-3 0.119-0.177-0.06-0.998-0.119-0.157c-6e-3 -0.246-0.018-0.4-0.037-0.458l-0.147-0.176-0.032-0.025c-0.015-0.21-0.098-0.994-0.125-1.25l-0.081-0.13-0.032-0.022-4e-3 -0.067 0.163-0.06c0.09-0.072 0.097-0.166 0.074-0.231l-0.162-0.14-0.059-0.655 0.011-0.072 0.19-0.114c0.139 0.049 0.272-0.069 0.32-0.175 9e-3 -0.02 0.033-0.071 0.027-0.246 0.119-0.053 0.215-0.126 0.183-0.257-0.022-0.098-0.067-0.161-0.453-0.171l0.032-0.093c9e-3 -0.186-7e-3 -0.269-0.064-0.329l-0.018-0.017-0.845-9.595-0.01-0.043c-8e-3 -0.023-0.069-0.183-0.213-0.26v-0.015l-0.031-0.137-0.024-0.038-0.155-0.089-0.452 3e-3c-0.095 4e-3 -0.183 6e-3 -0.268 6e-3m1.691-3.284c-0.212 0-0.427 8e-3 -0.64 0.023-2.64 0.189-4.194 0.751-4.375 1.581-0.061 0.28 0.04 0.603 0.287 0.909 0.565 0.703 1.7 1.122 3.037 1.122 0.09 0 0.182-1e-3 0.276-5e-3l0.308-3e-3 0.018 0.102 0.163 0.136 0.04 0.052 0.85 9.648 0.057 0.115c-0.078 0.044-0.16 0.114-0.18 0.226l0.045 0.204-0.031 0.112 0.02 0.289 0.01 0.046c-0.137 0.085-0.156 0.29-0.157 0.382l0.065 0.735-0.025 0.017-0.063 0.14c9e-3 0.319 0.021 0.357 0.028 0.378l0.106 0.138c0.047 0.45 0.115 1.11 0.117 1.178-2e-3 0.131 0.1 0.209 0.167 0.26l0.029 0.023c8e-3 0.067 0.017 0.258 0.019 0.415l7e-3 0.045 0.117 0.156 0.045 0.743-0.015 9e-3c-0.104 0.067-0.194 0.208-0.247 0.305l-0.047 9e-3 -0.135 0.113c-0.191 0.535 0.087 0.908 0.31 1.07 0.043 0.251 0.038 0.388 0.029 0.451-0.108 0.063-0.396 0.202-0.635 0.317-0.594 0.288-0.993 0.484-1.108 0.59-0.204 0.19-0.207 0.457-0.203 0.534 6e-3 0.122 0.041 0.207 0.104 0.255l0.131 0.049 0.873 4.388-0.028 7e-3 -0.107 0.098c-0.014 0.032-0.123 0.325 0.31 0.65 0.125 0.094 0.297 0.168 0.525 0.226 0.268 0.205 0.74 0.435 1.503 0.403l0.037 1e-3 0.154-0.015 0.122-0.014 0.068-0.016c1.274-0.239 1.94-1.178 1.968-1.219l0.029-0.13-0.025-0.141 0.102-0.18-0.045-0.398c0.04-0.122 0.062-0.248 0.07-0.383l3e-3 -0.067v-0.105l-0.051-0.117-0.093-0.06c0.068-0.142 0.089-0.31-0.018-0.435l-0.072-0.05c0.042-0.102 0.071-0.246-8e-3 -0.375l-0.088-0.073c0.079-0.141 0.106-0.303-4e-3 -0.425l-0.074-0.048c0.043-0.094 0.079-0.232 7e-3 -0.359l-0.118-0.087c0.062-0.118 0.088-0.264 2e-3 -0.38l-0.106-0.068-2e-3 -0.015c0.04-0.066 0.083-0.165 0.068-0.271l-0.126-0.144-0.011-2e-3 -0.014-0.046c0.038-0.092 0.068-0.212 0.024-0.309l-0.099-0.093-0.016-0.085c0.038-0.075 0.081-0.187 0.064-0.289l-0.124-0.141-0.021-5e-3 -0.06-0.119-5e-3 -0.024-1e-3 -8e-3 0.067-0.05 0.068-0.111c0.098-0.584-0.261-0.95-0.545-1.023l-0.161-0.406c0.115-0.234 0.139-0.489 0.068-0.727-0.062-0.204-0.188-0.369-0.337-0.441-0.09-0.044-0.19-0.054-0.281-0.037l-0.054-0.862c0.107-0.092 0.112-0.192 0.107-0.242-2e-3 -0.022-0.052-0.532-0.072-0.819l6e-3 -0.076 0.026-4e-3 0.249-0.048c0.235-0.07 0.635-0.309 0.627-0.761-8e-3 -0.389-0.143-2.321-0.148-2.403l-0.065-0.124-0.04-0.025-0.021-0.026-7e-3 -0.072-0.03-0.082-0.05-0.112-0.083-0.22-0.112-0.113-0.074-0.015-0.33 0.013-0.116 0.05-8e-3 -3e-3c-0.147-0.039-0.297-0.028-0.393 2e-3l-0.712-8.721c-0.047-0.243-0.021-0.383 0.012-0.56l0.011-0.061 0.11-0.162 0.083-0.106 0.154-3e-3 0.032-2e-3 0.244-6e-3 0.042-1e-3 0.307-0.011 0.027-0.178 7e-3 0.176 0.058-2e-3 0.035-2e-3 0.036-2e-3 0.076-5e-3 0.148-0.011 0.027-2e-3 0.058-6e-3c0.565-0.054 1.951-0.231 2.724-0.435 0.195 0.034 1.169 0.198 1.883 0.198 0.528 0 0.8-0.09 0.882-0.294 0.023-0.057 0.039-0.149-0.011-0.262-0.247-0.554-2.255-1.322-2.864-1.544-0.123-0.045-0.276-0.11-0.457-0.188-0.888-0.381-2.375-1.019-4.34-1.019" fill="#fce9a2"/>
   </g>
   <g transform="translate(65.612 89.54)">
    <path d="m0 0c-0.011-0.087 0.436-0.182 0.595 0.011 0.158 0.193 0.027 0.275 0.027 0.275l-0.069-0.153-0.028 0.094s-0.109-0.102-0.239-0.117c-0.129-0.016-0.275-0.024-0.286-0.11" fill="#fce9a2"/>
   </g>
   <g transform="translate(65.901 89.303)">
    <path d="m0 0c-0.126 0-0.302 0.032-0.38 0.121l-0.044 0.133c0.024 0.184 0.232 0.207 0.37 0.223l0.035 4e-3 0.163 0.083 0.076 0.034 0.051 0.046 0.134-6e-3c0.015-0.01 0.092-0.064 0.11-0.174 0.016-0.096-0.019-0.198-0.105-0.302-0.086-0.105-0.232-0.162-0.41-0.162" fill="#fce9a2"/>
   </g>
   <g transform="translate(63.306 95.96)">
    <path d="m0 0c-0.199-0.2-0.139-0.341-0.139-0.341l0.186 0.096-0.96-4.816-0.151-0.031c-0.046-0.035-0.078-0.342 0.113-0.519s1.756-0.863 1.781-0.934c0.024-0.07 0.05-0.259-0.028-0.66 0 0-0.523-0.291-0.303-0.904l0.134-0.024s0.114-0.243 0.224-0.315l0.105-0.018-0.06-0.999-0.118-0.087-0.029-0.483-0.186-0.212-0.127-1.275-0.104-0.093-0.02-0.331 0.236-0.012c0.06-0.047-0.034-0.082-0.14-0.07l-0.073-0.802 0.091-0.242 0.179-0.118-0.123-0.083-0.02-0.289 0.265-0.017 0.032 0.377 0.112-0.077 4e-3 -0.289 0.195-0.1c-5e-3 -0.024-0.364-0.047-0.477-0.035l-0.085-0.019-8e-3 1e-3s-0.195-0.15 0.145-0.262l-0.016-0.198-0.059-0.041-0.852-9.677s-0.063-0.177-0.204-0.183l-0.016-0.183-0.036-0.057c-0.213 3e-3 -0.374 4e-3 -0.453 4e-3 -2.431 0.097-3.571-1.128-3.421-1.812s1.548-1.252 4.216-1.443 4.589 0.891 5.364 1.174c0.775 0.282 2.836 1.128 2.665 1.553-0.169 0.424-2.496 4e-3 -2.496 4e-3l6e-3 -5e-3c-0.761 0.212-2.287 0.407-2.864 0.455-0.26 0.022-0.798 0.038-1.376 0.049l0.093 0.106c0.023 0.018-0.16 0.089-0.198 0.301-0.039 0.212-0.082 0.384-0.026 0.667l0.727 8.898 0.123 0.017s0.143-0.106 0.384-0.041c0 0-0.05 0.177 0.097 0.248l0.066-0.118 0.014-0.171 0.33-0.013v5e-3l0.012 1e-3s0.051 0.159 0.098 0.254l0.014 0.036 8e-3 -1e-3 -4e-3 0.011 0.024 0.091 0.016-0.014 0.01 0.107-0.011 1e-3 0.109 0.138 0.023-4e-3s0.141 2.005 0.149 2.395c7e-3 0.388-0.386 0.554-0.503 0.589-0.112 0.034-0.299 0.047-0.359 0.067l-0.046 0.241c0.02 0.295 0.073 0.825 0.073 0.825s0.017 0.067-0.115 0.135l0.065 1.017s-0.226 0.173-0.29 0.271l-0.029 0.179 0.188-0.092c0.096-0.126 0.295-0.331 0.506-0.229s0.418 0.551 0.153 0.999l0.228 0.576 0.071 9e-3c0.165 0.036 0.516 0.295 0.426 0.826 0 0-1.095 0.82-1.278 0.883l0.022 2e-3 1.395 4.199c0.063-0.111 0.042-0.174 0.042-0.174-0.611-2.091-1.399-3.978-1.399-3.978 0.641-0.307 1.086-0.701 1.086-0.701l0.015 0.079 0.06 0.228c-0.089 0.142-0.691 0.559-0.691 0.559l0.024 0.047c0.458-0.244 0.801-0.629 0.801-0.629 0.015 0.094-0.082 0.243-0.082 0.243l0.021 0.228c-0.112 0.228-0.596 0.536-0.596 0.536l0.038 0.086c0.475-0.315 0.683-0.582 0.683-0.582l-0.057 0.235s0.077 0.134 0.036 0.228c-0.041 0.095-0.555 0.465-0.555 0.465l0.061 0.086c0.349-0.228 0.628-0.559 0.628-0.559 0.014 0.094-0.081 0.205-0.081 0.205s0.052 0.204-0.012 0.33-0.446 0.378-0.446 0.378l0.039 0.094s0.278-0.204 0.421-0.338 0.152-0.237 0.152-0.237c0.07 0.095-0.059 0.26-0.059 0.26s0.101 0.22 0.02 0.315c-0.079 0.094-0.42 0.346-0.42 0.346l0.038 0.078s0.135-0.109 0.309-0.243c0.175-0.134 0.216-0.307 0.216-0.307 0.062 0.11-0.057 0.275-0.057 0.275l0.02 0.267-0.39 0.37 0.046 0.086s0.175-0.157 0.335-0.306c0.158-0.15 0.136-0.252 0.136-0.252 0.092 0.102-0.082 0.314-0.082 0.314l0.012 0.299-0.311 0.299 0.039 0.079s0.071-0.072 0.254-0.229c0.182-0.157 0.161-0.291 0.161-0.291 0.077 0.126-0.06 0.315-0.06 0.315s0.048 0.047 0.046 0.165c-1e-3 0.118-0.312 0.385-0.312 0.385l0.039 0.094c0.404-0.307 0.383-0.511 0.383-0.511 0.101 0.118-0.067 0.346-0.067 0.346l0.03 0.158c-0.065 0.165-0.248 0.354-0.248 0.354l0.014 0.047c0.206-0.11 0.305-0.402 0.305-0.402h0.086c4e-3 0.213-0.024 0.385-0.082 0.543h7e-3l0.048 0.424z" fill="#fce9a2"/>
   </g>
   <g transform="translate(65.796 90.942)">
    <path d="m0 0c0.385-0.197 0.687-0.414 0.855-0.545v0.035c-0.082 0.092-0.38 0.321-0.636 0.498l-0.044 0.172 0.024 0.047 0.08 0.068 0.105-9e-3c0.216-0.115 0.406-0.259 0.551-0.383l2e-3 0.049c-0.068 0.138-0.371 0.367-0.546 0.478l-0.051 0.168 0.038 0.086 0.085 0.076 0.114-0.017c0.191-0.127 0.341-0.246 0.453-0.346l0.01 0.062c-0.033 0.045-0.292 0.25-0.51 0.407l-0.031 0.189 0.061 0.086 0.185 0.035c0.133-0.087 0.254-0.187 0.356-0.279l-0.017 0.08c-0.026 0.05-0.213 0.203-0.399 0.327l-0.051 0.164 0.039 0.094 0.088 0.079 0.117-0.021c0.01-7e-3 0.196-0.144 0.344-0.269l4e-3 0.077c-0.045 0.052-0.259 0.219-0.395 0.32l-0.041 0.17 0.04 0.078 0.092 0.071 0.114-0.027s0.12-0.097 0.278-0.219l1e-3 0.051c-0.018 0.017-0.202 0.187-0.357 0.323l-0.029 0.166 0.046 0.086 0.096 0.069 0.114-0.032s0.085-0.077 0.191-0.175l-1e-3 0.066c-0.019 0.028-0.161 0.159-0.278 0.258l-0.034 0.164 0.039 0.079 0.099 0.073 0.117-0.038c3e-3 -2e-3 0.052-0.051 0.171-0.155v0.017c-0.012 0.036-0.14 0.177-0.265 0.285l-0.037 0.154 0.038 0.094 0.09 0.08 0.118-0.023 0.089-0.072c-0.057 0.091-0.136 0.181-0.17 0.215l-0.032 0.136 0.015 0.047 0.078 0.085 0.115-6e-3 0.145-0.111-0.028 0.086 4e-3 0.102 0.029 0.259-0.38 0.073 2e-3 -3e-3c0.088-0.152 0.063-0.257 0.053-0.286-0.518-1.773-1.172-3.422-1.353-3.868m-3.744-19.429c-1.843 0-2.606-0.77-2.795-1.006-0.184-0.228-0.266-0.464-0.226-0.648 0.113-0.513 1.247-1.133 4.094-1.337 0.205-0.015 0.413-0.022 0.618-0.022 1.901 0 3.35 0.622 4.217 0.994 0.187 0.08 0.345 0.148 0.472 0.195 1.145 0.417 2.438 1.031 2.58 1.349 6e-3 0.027-0.06 0.131-0.597 0.131-0.64 0-1.515-0.145-1.705-0.177l-0.092-9e-3c-0.728 0.202-2.213 0.398-2.84 0.451-0.221 0.019-0.668 0.034-1.367 0.049l-0.12 0.078 0.018 0.142 0.013 0.016c-0.06 0.063-0.124 0.153-0.147 0.282l-0.011 0.059c-0.035 0.193-0.069 0.376-0.014 0.657l0.725 8.883 0.115 0.123 0.123 0.018 0.1-0.025s0.059-0.039 0.163-0.036c0.012 0.094 0.058 0.197 0.179 0.255l0.12-1e-3c0.058-0.029 0.13-0.106 0.14-0.228l4e-3 -0.051 0.119-4e-3 0.075 0.181 6e-3 0.01 5e-3 0.021 0.019 0.074 0.019 0.045 0.023 0.105 0.109 0.137c0.026 0.373 0.136 1.972 0.143 2.31 6e-3 0.331-0.39 0.452-0.406 0.457l-0.204 0.038-0.16 0.03-0.081 0.076c-0.045 0.107-0.064 0.206-0.057 0.303 0.018 0.259 0.06 0.697 0.071 0.805l-0.04 0.025-0.073 0.129 0.06 0.946-0.264 0.26c-0.089 0.137-0.055 0.263-0.043 0.298l0.129 0.09c0.119-1e-3 0.224-0.053 0.295-0.145 0.121-0.159 0.242-0.237 0.34-0.189 0.057 0.027 0.133 0.116 0.174 0.251 0.032 0.104 0.063 0.316-0.079 0.556l-0.01 0.119 0.228 0.577 0.123 0.085 0.047 6e-3c0.106 0.023 0.372 0.211 0.328 0.619-0.519 0.387-1.097 0.795-1.196 0.829l-0.09 0.144 0.046 0.087 1.375 4.141 0.047 0.065-3.433 0.656 0.021-0.103-0.96-4.816-0.114-0.107-0.068-0.011c-7e-3 -0.073 7e-3 -0.217 0.104-0.306 0.088-0.083 0.656-0.357 1.031-0.539 0.731-0.353 0.758-0.373 0.785-0.45 0.029-0.082 0.064-0.286-0.022-0.73l-0.068-0.093c-0.04-0.023-0.378-0.231-0.264-0.666l0.052-0.01 0.1-0.076c0.047-0.101 0.129-0.229 0.174-0.258l-7e-3 -3e-3 0.082-2e-3 0.092-0.136-0.06-0.998-0.1-0.123-0.018-6e-3c-3e-3 -0.164-0.012-0.404-0.035-0.476l-0.134-0.156-0.047-0.038c-0.011-0.18-0.106-1.077-0.126-1.265l-0.062-0.1-0.049-0.035-7e-3 -0.126 0.18-0.054 0.061-0.186-0.162-0.121-0.062-0.684 0.019-0.107 0.212-0.131c0.118 0.061 0.249-0.043 0.294-0.143 8e-3 -0.017 0.031-0.068 0.022-0.255 0.12-0.05 0.213-0.11 0.185-0.222-0.017-0.072-0.032-0.141-0.523-0.141h-0.026l0.035-0.012 0.093-0.124c7e-3 -0.175-6e-3 -0.248-0.054-0.298l-0.028-0.024-0.846-9.611-8e-3 -0.034c-0.026-0.075-0.097-0.193-0.212-0.246l-2e-3 -0.047-0.024-0.108-0.026-0.042-0.119-0.07-2e-3 1e-3c-0.212 2e-3 -0.372 3e-3 -0.451 3e-3 -0.095 4e-3 -0.182 6e-3 -0.268 6e-3m1.691-3.284c-0.212 0-0.426 8e-3 -0.638 0.023-2.62 0.188-4.161 0.738-4.338 1.549-0.059 0.268 0.04 0.579 0.279 0.876 0.557 0.693 1.681 1.107 3.006 1.107 0.089 0 0.181-2e-3 0.274-6e-3 0.061 0 0.184-1e-3 0.346-2e-3l0.02 0.132 0.127 0.106 0.077 0.08 0.85 9.656 0.075 0.11 1e-3 0.024c-0.081 0.038-0.179 0.104-0.199 0.218l0.057 0.198-9e-3 0.01-0.033 0.098 0.02 0.289 0.023 0.067c-0.15 0.059-0.169 0.273-0.17 0.365l0.067 0.758-0.042 0.024-0.048 0.107c9e-3 0.314 0.021 0.351 0.026 0.367l0.105 0.13c0.049 0.454 0.119 1.133 0.12 1.198-2e-3 0.112 0.086 0.18 0.151 0.229l0.048 0.04c3e-3 0.026 0.013 0.248 0.016 0.429l5e-3 0.035 0.118 0.143 0.047 0.789-0.035 0.021c-0.103 0.066-0.194 0.217-0.242 0.307l-0.067 0.012-0.103 0.088c-0.188 0.523 0.094 0.884 0.308 1.033 0.052 0.291 0.041 0.439 0.03 0.499-0.097 0.059-0.403 0.207-0.655 0.328-0.591 0.286-0.987 0.481-1.098 0.584-0.192 0.178-0.194 0.429-0.19 0.501 6e-3 0.11 0.035 0.185 0.088 0.225l0.117 0.042 0.892 4.467-0.045 6e-3 -0.082 0.076c-0.01 0.023-0.089 0.232 0.167 0.489l0.121 0.037 4.318-0.824 0.11-0.149-0.047-0.408c0.056-0.167 0.079-0.342 0.074-0.546l-0.039-0.092-0.124-0.061c0.059-0.106 0.131-0.295 0.011-0.436l-0.1-0.047c0.047-0.093 0.099-0.248 0.017-0.383l-0.116-0.065h-3e-3c0.067-0.102 0.156-0.288 0.031-0.427l-0.101-0.045-1e-3 -7e-3c0.044-0.082 0.103-0.232 0.03-0.363l-0.118-0.069-0.011-0.037c0.062-0.109 0.095-0.249 0.015-0.356l-0.108-0.056h-2e-3l-8e-3 -0.06c0.038-0.059 0.085-0.156 0.07-0.256l-0.096-0.111-0.033-5e-3 -0.025-0.083 0.03-0.292-0.099-0.078-0.021-0.12c0.037-0.071 0.083-0.181 0.067-0.279l-0.096-0.109-0.042-5e-3 -0.066-0.139-6e-3 -0.034-9e-3 -0.031 0.09-0.067 0.052-0.086c0.106-0.626-0.32-0.936-0.531-0.981h-3e-3l-0.175-0.443c0.117-0.229 0.143-0.48 0.072-0.714-0.058-0.193-0.176-0.349-0.316-0.416-0.097-0.047-0.205-0.051-0.3-0.023l-0.058-0.931c0.13-0.101 0.111-0.213 0.105-0.239 1e-3 0-0.049-0.513-0.069-0.801l0.013-0.114 0.054-8e-3 0.243-0.047c0.225-0.067 0.606-0.294 0.598-0.721-7e-3 -0.389-0.143-2.32-0.148-2.402l-0.05-0.095-0.039-0.023-0.035-0.043-8e-3 -0.085-0.03-0.071v-3e-3l-0.043-0.1-0.089-0.231-0.088-0.087-0.058-0.012-0.33 0.012-0.106 0.058-0.03-0.012c-0.166-0.045-0.332-0.017-0.419 0.018l-0.716-8.773c-0.047-0.246-0.021-0.389 0.013-0.571l0.011-0.06c0.018-0.098 0.081-0.151 0.123-0.186l0.078-0.115c0.577-0.012 0.956-0.027 1.158-0.044 0.512-0.043 2.038-0.232 2.846-0.448 0.161 0.028 1.078 0.183 1.768 0.183 0.516 0 0.779-0.084 0.856-0.274 0.02-0.051 0.035-0.134-0.011-0.237-0.258-0.578-2.482-1.402-2.735-1.494-0.124-0.045-0.277-0.111-0.458-0.189-0.886-0.38-2.368-1.016-4.324-1.016" fill="#fce9a2"/>
   </g>
   <g transform="translate(64.504 86.348)">
    <path d="m0 0s0.11-0.278 0.04-0.416c-0.066 0.145-0.144 0.368-0.183 0.489l0.016 0.069 0.185-1e-3 0.042-2e-3z" fill="#fce9a2"/>
   </g>
   <g transform="translate(64.544 85.796)">
    <path d="m0 0h-3e-3l-0.12 0.079c-0.065 0.143-0.139 0.352-0.189 0.502l-4e-3 0.07 0.017 0.076 0.132 0.102 0.233-2e-3 0.116-0.077-0.012-0.138-0.059-0.082c0.035-0.112 0.081-0.314 0.01-0.455l-0.121-0.075" fill="#fce9a2"/>
   </g>
   <g transform="translate(65.101 86.678)">
    <path d="m0 0c-0.01-0.102-0.051-0.151-0.088-0.175l-0.03 3e-3c-0.107 0.062-0.082 0.247-0.079 0.545 4e-3 0.347 0.07 0.417 0.07 0.417l-0.073 0.15c0.019 0.011 0.098-0.024 0.178-0.142 0.081-0.118 0.042-0.59 0.022-0.798" fill="#fce9a2"/>
   </g>
   <g transform="translate(65.012 86.368)">
    <path d="m0 0-0.011 1e-3 -0.028 2e-3 -0.059 0.019c-0.159 0.092-0.155 0.277-0.149 0.532l3e-3 0.131c2e-3 0.203 0.025 0.328 0.051 0.406-0.063 0.106-0.062 0.147-0.054 0.184l0.063 0.09c0.099 0.061 0.252-0.017 0.363-0.18 0.034-0.05 0.114-0.168 0.044-0.888-0.015-0.158-0.09-0.237-0.15-0.275l-0.073-0.022" fill="#fce9a2"/>
   </g>
   <g transform="translate(64.826 87.886)">
    <path d="m0 0c0.079-0.152 0.053-0.212 3e-3 -0.193l-0.121 0.164 0.118 0.029" fill="#fce9a2"/>
   </g>
   <g transform="translate(64.846 87.554)">
    <path d="m0 0-0.066 0.013c-0.064 0.024-0.117 0.088-0.191 0.227l-2e-3 0.122 0.097 0.074 0.106 0.026 0.156-0.068c0.072-0.137 0.085-0.241 0.039-0.316l-0.139-0.078" fill="#fce9a2"/>
   </g>
   <g transform="translate(64.638 87.85)">
    <path d="m0 0 0.014-1e-3 0.043-0.16c-0.013-0.165-0.043-0.939-0.042-1.042l-0.041-0.11c-0.056 0.045-0.113 0.136-0.103 0.315 0.02 0.337 0.082 1.006 0.129 0.998" fill="#fce9a2"/>
   </g>
   <g transform="translate(64.612 86.401)">
    <path d="m0 0-0.085 0.03c-0.078 0.063-0.167 0.188-0.154 0.428 0.066 1.126 0.145 1.126 0.264 1.126l0.112-0.041c0.043-0.045 0.093-0.128 0.081-0.266-0.013-0.162-0.043-0.928-0.042-1.029l-0.072-0.199-0.104-0.049" fill="#fce9a2"/>
   </g>
   <g transform="translate(65.504 87.188)">
    <path d="m0 0c0.017-0.024-0.03-0.649-0.04-0.775l-0.045 0.015c0.024 0.666 0.064 0.788 0.085 0.76" fill="#fce9a2"/>
   </g>
   <g transform="translate(65.463 86.278)">
    <path d="m0 0-0.047 9e-3 -0.038 0.013-0.095 0.134c0.029 0.812 0.067 0.894 0.215 0.894l0.115-0.059c0.032-0.046 0.05-0.07-0.015-0.866l-0.062-0.104-0.073-0.021" fill="#fce9a2"/>
   </g>
   <g transform="translate(65.286 87.319)">
    <path d="m0 0s0.051-0.027 0.032-0.402c-0.013-0.279-0.055-0.397-0.074-0.439-0.033 0.046-0.053 0.152-0.032 0.405 0.028 0.326 0.074 0.436 0.074 0.436" fill="#fce9a2"/>
   </g>
   <g transform="translate(65.244 86.342)">
    <path d="m0 0-0.11 0.056c-0.063 0.088-0.079 0.231-0.057 0.496 0.029 0.33 0.075 0.455 0.084 0.477l0.079 0.075 0.11-8e-3c0.078-0.042 0.123-0.145 0.104-0.528-0.014-0.277-0.054-0.419-0.086-0.489l-0.11-0.078-0.014-1e-3" fill="#fce9a2"/>
   </g>
   <g transform="translate(65.18 88.541)">
    <path d="m0 0c-0.042-0.349-0.121-0.851 0.044-0.826l-5e-3 -0.089c-0.012-0.012-0.129-8e-3 -0.225 0.063l-0.068 0.239c0.067 0.04 0.157 0.117 0.071 0.213-0.128 0.141-0.01 0.11 0.013 0.196 0.022 0.087 0.079 0.684 0.241 0.825 0.164 0.142-0.027-0.267-0.071-0.621" fill="#fce9a2"/>
   </g>
   <g transform="translate(65.19 87.485)">
    <path d="m0 0c-0.072 0-0.183 0.025-0.277 0.095-0.132 0.097-0.13 0.284-0.122 0.36l0.064 0.104 0.029 0.019-0.081 0.186 0.077 0.134 0.014 0.082c0.049 0.316 0.114 0.666 0.268 0.8l0.138 0.062 0.118-0.059c0.057-0.075 0.034-0.163-0.018-0.357-0.031-0.115-0.07-0.257-0.086-0.387l-0.012-0.097c-0.021-0.169-0.058-0.469-0.038-0.58l0.049-0.026 0.046-0.098-0.046-0.195-0.123-0.043" fill="#fce9a2"/>
   </g>
   <g transform="translate(65.027 90.806)">
    <path d="m0 0c-0.132 0.037-0.286 0.082-0.473 0.105 0.103-4e-3 0.177-8e-3 0.194-0.014 0.044-0.015 0.232-0.032 0.373-0.043 0.014-0.032 0.023-0.082-0.094-0.048" fill="#fce9a2"/>
   </g>
   <g transform="translate(65.09 90.66)">
    <path d="m0 0-0.1 0.016c-0.138 0.039-0.282 0.08-0.453 0.102l-0.119 0.145 0.141 0.124c0.173-6e-3 0.206-0.012 0.228-0.019 0.014-4e-3 0.072-0.016 0.345-0.039l0.111-0.077-4e-3 -0.176c-0.014-0.023-0.058-0.076-0.149-0.076" fill="#fce9a2"/>
   </g>
   <g transform="translate(65.46 96.542)">
    <path d="m0 0c0.196-0.028 0.407-0.08 0.604-0.171 0.145-0.084 0.291-0.198 0.414-0.354-0.54 0.309-1.274 0.415-1.614 0.38-0.076-8e-3 -0.165-0.017-0.262-0.027 0.227 0.171 0.671 0.177 0.858 0.172" fill="#fce9a2"/>
   </g>
   <g transform="translate(66.478 95.881)">
    <path d="m0 0-0.067 0.018c-0.499 0.285-1.202 0.397-1.534 0.363l-0.261-0.026-0.14 0.085 0.045 0.158c0.219 0.165 0.587 0.2 0.858 0.2l0.084-2e-3c0.254-0.035 0.469-0.097 0.658-0.183 0.19-0.11 0.343-0.24 0.463-0.394l-4e-3 -0.172-0.102-0.047" fill="#fce9a2"/>
   </g>
   <g transform="translate(66.822 95.215)">
    <path d="M 0,0 C -0.156,0.101 -0.382,0.214 -0.599,0.312 -0.52,0.288 -0.432,0.263 -0.333,0.236 -0.186,0.15 -0.077,0.07 0,0" fill="#fce9a2"/>
   </g>
   <g transform="translate(66.822 95.08)">
    <path d="m0 0-0.074 0.022c-0.167 0.108-0.408 0.224-0.581 0.302l-0.071 0.171 0.166 0.082c0.078-0.023 0.164-0.048 0.263-0.074l0.033-0.014c0.134-0.079 0.246-0.158 0.334-0.234l0.071-0.119-0.138-0.136h-3e-3" fill="#fce9a2"/>
   </g>
   <g transform="translate(62.674 90.942)">
    <path d="m0 0c0.088 6e-3 0.181 0.011 0.276 0.015-0.07-6e-3 -0.21-0.018-0.347-0.033z" fill="#fce9a2"/>
   </g>
   <g transform="translate(62.603 90.789)">
    <path d="m0 0-0.133 0.112 0.1 0.155 0.071 0.018c0.112 0.01 0.206 0.015 0.302 0.019l0.142-0.126-0.123-0.144-0.032-3e-3c-0.074-7e-3 -0.195-0.017-0.312-0.03l-0.015-1e-3" fill="#fce9a2"/>
   </g>
   <g transform="translate(62.992 90.959)">
    <path d="m0 0c0.174 7e-3 0.357 0.01 0.541 0.011l-9e-3 -0.047s0.365 0 0.697-4e-3c-0.389-0.03-1.126-0.137-1.235-0.087-0.118 0.053-0.016 0.115 6e-3 0.127" fill="#fce9a2"/>
   </g>
   <g transform="translate(63.102 90.684)">
    <path d="m0 0-0.172 0.025c-0.114 0.051-0.134 0.131-0.135 0.174l0.131 0.195 0.06 0.017c0.176 7e-3 0.361 0.01 0.546 0.011l0.103-0.047c0.134 0 0.368-1e-3 0.588-5e-3l0.133-0.131-0.125-0.139c-0.12-9e-3 -0.272-0.025-0.43-0.042-0.263-0.029-0.537-0.058-0.699-0.058" fill="#fce9a2"/>
   </g>
   <g transform="translate(65.557 90.826)">
    <path d="m0 0c-3e-3 -8e-3 -0.026-0.029-0.199 1e-3l0.199-1e-3" fill="#fce9a2"/>
   </g>
   <g transform="translate(65.499 90.676)">
    <path d="M 0,0 -0.164,0.018 -0.276,0.168 -0.131,0.286 0.047,0.285 0.163,0.235 0.188,0.111 C 0.175,0.07 0.134,0 0,0" fill="#fce9a2"/>
   </g>
   <g transform="translate(65.339 96.018)">
    <path d="m0 0-0.11 0.102c-0.064 0.063 0.274 0.063 0.534-8e-3s0.207-0.205 0.207-0.205c0.197-0.063 0.168-0.181 0.168-0.181l8e-3 -0.094c0.11-0.052 0.206-0.102 0.29-0.15l-0.29 0.15s-0.044 0.059-0.461 0.158c-0.417 0.098-0.382 0.091-1.168 0.067-0.784-0.023-1.11-0.12-1.11-0.12v-8e-3l-0.034-5e-3c0.864 0.388 1.966 0.294 1.966 0.294" fill="#fce9a2"/>
   </g>
   <g transform="translate(65.469 95.978)">
    <path d="m0 0c0.068-0.013 0.144-0.031 0.242-0.054l0.125-0.031 1e-3 0.039-0.109 0.05-0.253 0.044-6e-3 -0.048m0.967-0.63-0.062 0.015-0.289 0.149-0.03 0.021c-0.016 9e-3 -0.102 0.056-0.4 0.126-0.396 0.093-0.385 0.086-0.979 0.068l-0.154-4e-3c-0.619-0.019-0.946-0.084-1.044-0.107l-0.05-0.02-0.043 0.103 8e-3 -0.108-0.149 0.096 0.074 0.162c0.643 0.289 1.405 0.319 1.772 0.315l7e-3 0.028c0.04 0.097 0.152 0.111 0.267 0.111 0.134 0 0.301-0.023 0.436-0.06 0.143-0.039 0.239-0.105 0.284-0.195l0.018-0.048c0.148-0.079 0.179-0.199 0.173-0.276v-2e-3l0.229-0.121 0.052-0.182-0.12-0.071" fill="#fce9a2"/>
   </g>
   <g transform="translate(64.002 89.652)">
    <path d="m0 0c-0.024 0.013-0.165 0.077-0.354 0.161l0.084 0.075s1e-3 -0.075 0.128-0.142c0.126-0.067 0.189-0.075 0.37-0.048 0.18 0.028 0.159 0.162-0.227 0.233-0.297 0.054-0.448-0.016-0.502-0.052-0.461 0.205-1.078 0.48-1.124 0.517-0.071 0.059 0.153 0.083 0.342 0.011 0.19-0.07 0.533-0.118 0.802 0.036 0.269 0.152 1.496 0.187 1.649 0.163s1.459-0.756 1.497-0.91c0.034-0.141-0.1-0.452-0.351-0.527-0.095 0-0.302 7e-3 -0.484 0.072-0.245 0.086-0.529 0.197-0.529 0.197s-0.495-0.082-0.601-0.082-0.049 0.118-0.049 0.118l0.576 0.223 0.119-0.153 0.154-0.023 0.152 0.141s-0.205 0.366-0.608 0.425c0 0-8e-3 -0.259-0.231-0.318-0.224-0.059-0.564-0.165-0.564-0.165l0.273-0.189-0.354 0.059-0.168 0.178" fill="#fce9a2"/>
   </g>
   <g transform="translate(65.422 89.67)">
    <path d="m0 0 0.015-2e-3 0.025 0.028c-0.065 0.075-0.17 0.173-0.313 0.226l-0.077-0.14 0.108 0.042 0.156-0.043zm0.202-0.209 0.253-0.092c0.146-0.052 0.317-0.063 0.418-0.064 0.176 0.065 0.256 0.297 0.241 0.36-0.088 0.115-1.216 0.766-1.389 0.808l-0.163 4e-3c-0.471 0-1.23-0.058-1.396-0.152-0.139-0.079-0.303-0.119-0.486-0.119h-1e-3c0.13-0.058 0.261-0.117 0.374-0.167l0.021-9e-3c0.104 0.046 0.298 0.077 0.531 0.034 0.266-0.049 0.414-0.133 0.443-0.252 0.102 0.03 0.216 0.063 0.31 0.088 0.121 0.032 0.131 0.186 0.131 0.193l0.05 0.098 0.105 0.03c0.463-0.068 0.697-0.476 0.706-0.493l3e-3 -0.127-0.103-0.073-0.048-0.067m0.692-0.428c-0.114 0-0.334 0.011-0.53 0.081-0.194 0.068-0.414 0.152-0.497 0.184-0.133-0.021-0.484-0.077-0.586-0.077l-0.151 0.06-0.026-2e-3c-0.014 0-0.035 0-0.38 0.062l-0.09 0.06-0.121 0.133c-0.026 0.015-0.162 0.075-0.342 0.155l-0.063 0.058-0.084 8e-3 -0.081 0.036c-0.816 0.365-1.027 0.463-1.073 0.5l-0.054 0.177c0.028 0.079 0.109 0.119 0.241 0.119 0.094 0 0.199-0.019 0.288-0.053 0.046-0.017 0.173-0.057 0.335-0.057 0.136 0 0.254 0.028 0.352 0.083 0.27 0.154 1.219 0.188 1.53 0.188 0.101 0 0.175-3e-3 0.207-8e-3 0.145-0.023 1.545-0.757 1.608-1.011 0.049-0.205-0.12-0.593-0.444-0.69l-0.039-6e-3" fill="#fce9a2"/>
   </g>
   <g transform="translate(64.153 87.631)">
    <path d="m0 0-0.012 0.346s9e-3 0.503 0.109 0.762l0.048-0.063s-0.096-0.566-0.03-0.739l0.109-0.023-0.092-0.119-0.011-0.18-0.121 0.016" fill="#fce9a2"/>
   </g>
   <g transform="translate(64.224 87.456)">
    <path d="m0 0-0.17 0.083c-0.065 0.07-0.101 0.185-0.094 0.307l0.048 0.177c4e-3 0.134 0.026 0.53 0.116 0.764l0.107 0.085 0.127-0.052 0.048-0.062 0.026-0.105c-0.036-0.21-0.06-0.469-0.049-0.602l0.023-5e-3 0.106-0.153-0.096-0.177-6e-3 -0.109-0.039-0.088-0.147-0.063" fill="#fce9a2"/>
   </g>
   <g transform="translate(64.266 82.687)">
    <path d="m0 0-0.192 0.162c0.514-0.029 0.554 0.135 0.554 0.135s0.178 2.123 0.19 2.421c9e-3 0.228-0.061 0.273-0.137 0.337l0.11 0.241c0.081 0.142-0.015 0.284 0.041 0.484 0 0 0.248 0 0.237-0.095s-0.04-0.507-0.088-0.542l-0.163-0.095s0.259-0.035 0.306 0.059c0.046 0.094 0.087 0.59 0.087 0.59l0.107-0.071-0.352-3.975 0.04-6e-3c-3e-3 -0.031-0.022-0.118-0.126-0.148-0.143 0.026-0.35 0.078-0.369 0.126l0.045 0.253 0.177 0.029-0.015-0.259 0.123 6e-3 0.031 0.401-0.299-0.106-0.061 0.129-0.064-0.105-0.182 0.029" fill="#fce9a2"/>
   </g>
   <g transform="translate(64.64 82.805)">
    <path d="m0 0 4e-3 -0.018 0.167 0.073 0.067 0.014c0.074 0.825 0.18 2.009 0.245 2.751l-0.184-0.033 0.014-0.193c-0.012-0.298-0.184-2.34-0.191-2.427l-0.122-0.167m0.24-0.757-0.025 2e-3c-0.419 0.076-0.453 0.163-0.471 0.21l4e-3 0.247c-0.112 0-0.187 0.035-0.234 0.101-9e-3 0.013-0.063 0.06-0.16 0.13l-0.049 0.156 0.135 0.09c0.278-0.017 0.388 0.031 0.417 0.05 0.016 0.212 0.174 2.101 0.186 2.376 5e-3 0.148-0.02 0.169-0.077 0.216l-0.052 0.165 0.118 0.258 0.012 0.155c-7e-3 0.081-0.016 0.181 0.017 0.299l0.131 0.099 0.32-0.096 0.043 0.012 0.028 1e-3c0.134 0 0.228-0.084 0.229-0.205 1e-3 -0.081-0.252-2.886-0.343-3.895l0.031-0.101c-0.01-0.1-0.074-0.222-0.223-0.265l-0.037-5e-3" fill="#fce9a2"/>
   </g>
   <g transform="translate(63.354 95.721)">
    <path d="m0 0s1.428 0.235 2.233 0.077c0 0 1.216-0.473 1.408-0.725l-1.41-4.245s-0.244-0.031-0.477 0.048-1.57 0.128-2.434 0.066l-0.283-0.047z" fill="#140f0e"/>
   </g>
   <g transform="translate(63.449 95.721)">
    <path d="m0 0s1.333 0.235 2.138 0.077c0 0 1.217-0.473 1.408-0.725l-1.41-4.245s-0.244-0.031-0.476 0.048c-0.233 0.079-1.571 0.128-2.435 0.066l-0.188-0.047z" fill="#140f0e"/>
   </g>
   <g transform="translate(64.332 86.506)">
    <path d="m0 0s0.18-0.567 0.276-0.692c0.096-0.126 0.221-0.11 0.21-0.409-0.013-0.298-0.191-2.421-0.191-2.421s-0.045-0.189-0.675-0.126l0.289 3.349z" fill="#140f0e"/>
   </g>
   <g transform="translate(63.811 82.239)">
    <path d="m0 0s-0.199-0.153 0.156-0.265c0.355-0.113 1.6-0.132 1.6-0.132s0.165-0.053 0.185-0.201c0.02-0.147 0.284-0.124 0.284-0.124s0.051 0.159 0.099 0.254c0.045 0.094 0.055 0.229 0.055 0.229l0.122 0.154 0.148 2.364s-0.513 0.431-0.672 0.472c-0.16 0.043-0.232 0.13-0.252 0.26-0.018 0.131 0.054 0.962 0.054 0.962l-0.173 0.177-0.035-0.018-0.389-3.945 0.014-0.082s2e-3 -0.177-0.217-0.171c-0.218 6e-3 -0.979 0.066-0.979 0.066" fill="#140f0e"/>
   </g>
   <g transform="translate(62.268 71.643)">
    <path d="m0 0s2.813-0.015 3.522-0.074c0.707-0.06 2.834-0.339 3.244-0.599s-0.784-0.477-2.473-0.328c-1.688 0.149-4.303 0.806-4.293 1.001" fill="#140f0e"/>
   </g>
   <g transform="translate(63.29 95.659)">
    <path d="m0 0-0.941-4.735 2.4-0.027 0.537-0.056 0.86 4.791s-0.625 0.136-0.797 0.185-2.059-0.158-2.059-0.158" fill="#fce9a2"/>
   </g>
  </g>
  <g transform="matrix(9.071 0 0 -9.071 -850.47 750.49)" clip-path="url(#clipPath67842)">
   <g transform="translate(65.909 102.9)">
    <path d="m0 0-14.102-27.674-0.061 0.025 14.102 27.675z" fill="#fce9a2"/>
   </g>
   <g transform="translate(66.025 102.85)">
    <path d="m0 0-14.102-27.674-0.061 0.024 14.102 27.675z" fill="#fce9a2"/>
   </g>
   <g transform="translate(66.141 102.81)">
    <path d="m0 0-14.1-27.675-0.061 0.024 14.1 27.675z" fill="#fce9a2"/>
   </g>
   <g transform="translate(66.258 102.76)">
    <path d="m0 0-14.102-27.674-0.061 0.025 14.102 27.674z" fill="#fce9a2"/>
   </g>
   <g transform="translate(66.375 102.71)">
    <path d="m0 0-14.102-27.675-0.061 0.025 14.102 27.676z" fill="#fce9a2"/>
   </g>
   <g transform="translate(66.491 102.67)">
    <path d="m0 0-14.1-27.675-0.062 0.025 14.101 27.674z" fill="#fce9a2"/>
   </g>
   <g transform="translate(66.609 102.62)">
    <path d="m0 0-14.102-27.675-0.062 0.025 14.103 27.675z" fill="#fce9a2"/>
   </g>
   <g transform="translate(66.725 102.57)">
    <path d="m0 0-14.102-27.674-0.061 0.024 14.102 27.676z" fill="#fce9a2"/>
   </g>
   <g transform="translate(66.841 102.52)">
    <path d="m0 0-14.102-27.675-0.061 0.025 14.102 27.675z" fill="#fce9a2"/>
   </g>
   <g transform="translate(66.958 102.48)">
    <path d="m0 0-14.102-27.675-0.062 0.025 14.103 27.675z" fill="#fce9a2"/>
   </g>
   <g transform="translate(67.075 102.43)">
    <path d="m0 0-14.102-27.674-0.062 0.025 14.103 27.675z" fill="#fce9a2"/>
   </g>
   <g transform="translate(67.191 102.38)">
    <path d="m0 0-14.101-27.675-0.062 0.025 14.102 27.674z" fill="#fce9a2"/>
   </g>
   <g transform="translate(67.308 102.33)">
    <path d="m0 0-14.102-27.675-0.06 0.025 14.101 27.674z" fill="#fce9a2"/>
   </g>
   <g transform="translate(67.425 102.29)">
    <path d="m0 0-14.102-27.674-0.061 0.024 14.102 27.675z" fill="#fce9a2"/>
   </g>
   <g transform="translate(67.541 102.24)">
    <path d="m0 0-14.102-27.675-0.06 0.026 14.101 27.674z" fill="#fce9a2"/>
   </g>
   <g transform="translate(67.658 102.19)">
    <path d="m0 0-14.102-27.675-0.061 0.025 14.102 27.675z" fill="#fce9a2"/>
   </g>
   <g transform="translate(67.774 102.14)">
    <path d="m0 0-14.102-27.674-0.061 0.024 14.102 27.675z" fill="#fce9a2"/>
   </g>
   <g transform="translate(67.891 102.1)">
    <path d="m0 0-14.102-27.675-0.06 0.025 14.102 27.675z" fill="#fce9a2"/>
   </g>
   <g transform="translate(68.007 102.05)">
    <path d="m0 0-14.102-27.675-0.06 0.025 14.101 27.675z" fill="#fce9a2"/>
   </g>
   <g transform="translate(68.124 102)">
    <path d="m0 0-14.102-27.675-0.061 0.025 14.101 27.674z" fill="#fce9a2"/>
   </g>
   <g transform="translate(68.241 101.95)">
    <path d="m0 0-14.102-27.675-0.06 0.025 14.101 27.675z" fill="#fce9a2"/>
   </g>
   <g transform="translate(68.358 101.91)">
    <path d="m0 0-14.102-27.675-0.061 0.025 14.102 27.675z" fill="#fce9a2"/>
   </g>
   <g transform="translate(68.474 101.86)">
    <path d="m0 0-14.102-27.675-0.061 0.025 14.102 27.675z" fill="#fce9a2"/>
   </g>
   <g transform="translate(68.591 101.81)">
    <path d="m0 0-14.102-27.674-0.061 0.025 14.103 27.674z" fill="#fce9a2"/>
   </g>
   <g transform="translate(68.707 101.76)">
    <path d="m0 0-14.102-27.676-0.06 0.026 14.101 27.674z" fill="#fce9a2"/>
   </g>
   <g transform="translate(68.824 101.72)">
    <path d="m0 0-14.102-27.675-0.06 0.025 14.101 27.675z" fill="#fce9a2"/>
   </g>
   <g transform="translate(68.94 101.67)">
    <path d="m0 0-14.102-27.675-0.06 0.025 14.101 27.675z" fill="#fce9a2"/>
   </g>
   <g transform="translate(69.057 101.62)">
    <path d="m0 0-14.101-27.675-0.061 0.025 14.101 27.675z" fill="#fce9a2"/>
   </g>
   <g transform="translate(69.174 101.57)">
    <path d="m0 0-14.102-27.675-0.061 0.025 14.102 27.675z" fill="#fce9a2"/>
   </g>
   <g transform="translate(69.29 101.53)">
    <path d="m0 0-14.102-27.675-0.06 0.025 14.101 27.675z" fill="#fce9a2"/>
   </g>
   <g transform="translate(69.407 101.48)">
    <path d="m0 0-14.102-27.675-0.061 0.025 14.102 27.675z" fill="#fce9a2"/>
   </g>
   <g transform="translate(69.524 101.43)">
    <path d="m0 0-14.102-27.675-0.061 0.025 14.102 27.675z" fill="#fce9a2"/>
   </g>
   <g transform="translate(69.64 101.39)">
    <path d="m0 0-14.102-27.675-0.061 0.025 14.102 27.675z" fill="#fce9a2"/>
   </g>
   <g transform="translate(69.757 101.34)">
    <path d="m0 0-14.102-27.675-0.06 0.026 14.101 27.674z" fill="#fce9a2"/>
   </g>
   <g transform="translate(69.874 101.29)">
    <path d="m0 0-14.102-27.675-0.061 0.025 14.102 27.675z" fill="#fce9a2"/>
   </g>
   <g transform="translate(69.99 101.24)">
    <path d="m0 0-14.102-27.675-0.061 0.025 14.102 27.675z" fill="#fce9a2"/>
   </g>
   <g transform="translate(70.107 101.2)">
    <path d="m0 0-14.101-27.675-0.061 0.025 14.101 27.675z" fill="#fce9a2"/>
   </g>
   <g transform="translate(70.223 101.15)">
    <path d="m0 0-14.101-27.675-0.061 0.025 14.101 27.674z" fill="#fce9a2"/>
   </g>
   <g transform="translate(70.34 101.1)">
    <path d="m0 0-14.102-27.675-0.061 0.025 14.102 27.675z" fill="#fce9a2"/>
   </g>
   <g transform="translate(70.457 101.05)">
    <path d="m0 0-14.102-27.675-0.061 0.025 14.101 27.675z" fill="#fce9a2"/>
   </g>
   <g transform="translate(70.573 101.01)">
    <path d="m0 0-14.102-27.675-0.06 0.025 14.101 27.675z" fill="#fce9a2"/>
   </g>
   <g transform="translate(70.69 100.96)">
    <path d="m0 0-14.102-27.675-0.06 0.024 14.101 27.676z" fill="#fce9a2"/>
   </g>
   <g transform="translate(70.807 100.91)">
    <path d="m0 0-14.103-27.675-0.06 0.024 14.101 27.676z" fill="#fce9a2"/>
   </g>
   <g transform="translate(70.923 100.86)">
    <path d="m0 0-14.102-27.675-0.061 0.025 14.102 27.675z" fill="#fce9a2"/>
   </g>
   <g transform="translate(71.053 100.81)">
    <path d="m0 0-14.102-27.674-0.061 0.025 14.102 27.674z" fill="#fce9a2"/>
   </g>
   <g transform="translate(71.17 100.76)">
    <path d="m0 0-14.102-27.675-0.06 0.025 14.101 27.675z" fill="#fce9a2"/>
   </g>
   <g transform="translate(71.286 100.72)">
    <path d="m0 0-14.102-27.675-0.061 0.025 14.102 27.675z" fill="#fce9a2"/>
   </g>
   <g transform="translate(71.403 100.67)">
    <path d="m0 0-14.102-27.675-0.061 0.025 14.101 27.675z" fill="#fce9a2"/>
   </g>
   <g transform="translate(71.52 100.62)">
    <path d="m0 0-14.102-27.675-0.062 0.025 14.103 27.674z" fill="#fce9a2"/>
   </g>
   <g transform="translate(71.636 100.57)">
    <path d="m0 0-14.102-27.675-0.061 0.025 14.102 27.675z" fill="#fce9a2"/>
   </g>
   <g transform="translate(71.753 100.53)">
    <path d="m0 0-14.102-27.675-0.061 0.025 14.102 27.675z" fill="#fce9a2"/>
   </g>
   <g transform="translate(71.869 100.48)">
    <path d="m0 0-14.101-27.675-0.062 0.025 14.102 27.675z" fill="#fce9a2"/>
   </g>
   <g transform="translate(71.986 100.43)">
    <path d="m0 0-14.102-27.675-0.061 0.025 14.102 27.675z" fill="#fce9a2"/>
   </g>
   <g transform="translate(72.103 100.38)">
    <path d="m0 0-14.102-27.675-0.061 0.025 14.102 27.675z" fill="#fce9a2"/>
   </g>
   <g transform="translate(72.219 100.34)">
    <path d="m0 0-14.102-27.675-0.06 0.025 14.101 27.675z" fill="#fce9a2"/>
   </g>
   <g transform="translate(72.336 100.29)">
    <path d="m0 0-14.102-27.675-0.061 0.025 14.101 27.675z" fill="#fce9a2"/>
   </g>
   <g transform="translate(72.453 100.24)">
    <path d="m0 0-14.102-27.675-0.061 0.025 14.101 27.675z" fill="#fce9a2"/>
   </g>
   <g transform="translate(72.569 100.19)">
    <path d="m0 0-14.102-27.675-0.061 0.025 14.102 27.675z" fill="#fce9a2"/>
   </g>
   <g transform="translate(72.685 100.15)">
    <path d="m0 0-14.101-27.675-0.061 0.025 14.101 27.675z" fill="#fce9a2"/>
   </g>
   <g transform="translate(72.802 100.1)">
    <path d="m0 0-14.101-27.676-0.061 0.025 14.101 27.675z" fill="#fce9a2"/>
   </g>
   <g transform="translate(72.918 100.05)">
    <path d="m0 0-14.101-27.675-0.061 0.025 14.101 27.675z" fill="#fce9a2"/>
   </g>
   <g transform="translate(73.036 100.01)">
    <path d="m0 0-14.102-27.675-0.061 0.025 14.101 27.675z" fill="#fce9a2"/>
   </g>
   <g transform="translate(73.152 99.958)">
    <path d="m0 0-14.102-27.675-0.061 0.025 14.102 27.674z" fill="#fce9a2"/>
   </g>
   <g transform="translate(73.268 99.91)">
    <path d="m0 0-14.102-27.675-0.061 0.025 14.102 27.675z" fill="#fce9a2"/>
   </g>
   <g transform="translate(73.386 99.863)">
    <path d="m0 0-14.102-27.675-0.061 0.025 14.102 27.675z" fill="#fce9a2"/>
   </g>
   <g transform="translate(73.502 99.815)">
    <path d="m0 0-14.101-27.675-0.062 0.025 14.102 27.675z" fill="#fce9a2"/>
   </g>
   <g transform="translate(73.618 99.768)">
    <path d="m0 0-14.101-27.675-0.062 0.025 14.102 27.675z" fill="#fce9a2"/>
   </g>
   <g transform="translate(73.735 99.721)">
    <path d="m0 0-14.101-27.675-0.061 0.025 14.101 27.675z" fill="#fce9a2"/>
   </g>
   <g transform="translate(73.852 99.673)">
    <path d="m0 0-14.101-27.675-0.062 0.025 14.101 27.675z" fill="#fce9a2"/>
   </g>
   <g transform="translate(73.969 99.626)">
    <path d="m0 0-14.102-27.675-0.061 0.025 14.102 27.675z" fill="#fce9a2"/>
   </g>
   <g transform="translate(74.086 99.578)">
    <path d="m0 0-14.102-27.675-0.061 0.025 14.102 27.675z" fill="#fce9a2"/>
   </g>
   <g transform="translate(74.202 99.531)">
    <path d="m0 0-14.102-27.675-0.061 0.025 14.102 27.675z" fill="#fce9a2"/>
   </g>
   <g transform="translate(74.318 99.484)">
    <path d="m0 0-14.102-27.675-0.061 0.025 14.102 27.675z" fill="#fce9a2"/>
   </g>
   <g transform="translate(74.435 99.436)">
    <path d="m0 0-14.102-27.675-0.061 0.025 14.102 27.675z" fill="#fce9a2"/>
   </g>
   <g transform="translate(74.551 99.389)">
    <path d="m0 0-14.102-27.675-0.06 0.025 14.101 27.675z" fill="#fce9a2"/>
   </g>
   <g transform="translate(74.668 99.341)">
    <path d="m0 0-14.102-27.675-0.061 0.025 14.102 27.675z" fill="#fce9a2"/>
   </g>
   <g transform="translate(74.784 99.294)">
    <path d="m0 0-14.101-27.675-0.061 0.025 14.101 27.675z" fill="#fce9a2"/>
   </g>
   <g transform="translate(74.901 99.246)">
    <path d="m0 0-14.102-27.675-0.06 0.025 14.101 27.675z" fill="#fce9a2"/>
   </g>
   <g transform="translate(75.018 99.199)">
    <path d="m0 0-14.102-27.675-0.061 0.024 14.102 27.676z" fill="#fce9a2"/>
   </g>
   <g transform="translate(75.134 99.152)">
    <path d="m0 0-14.101-27.675-0.062 0.024 14.102 27.676z" fill="#fce9a2"/>
   </g>
   <g transform="translate(75.251 99.104)">
    <path d="m0 0-14.102-27.675-0.06 0.025 14.101 27.675z" fill="#fce9a2"/>
   </g>
   <g transform="translate(75.368 99.057)">
    <path d="m0 0-14.102-27.675-0.061 0.024 14.101 27.675z" fill="#fce9a2"/>
   </g>
   <g transform="translate(75.484 99.009)">
    <path d="m0 0-14.101-27.675-0.061 0.025 14.101 27.675z" fill="#fce9a2"/>
   </g>
   <g transform="translate(75.601 98.962)">
    <path d="m0 0-14.101-27.675-0.062 0.025 14.102 27.675z" fill="#fce9a2"/>
   </g>
   <g transform="translate(75.718 98.915)">
    <path d="m0 0-14.102-27.675-0.06 0.025 14.101 27.675z" fill="#fce9a2"/>
   </g>
   <g transform="translate(75.834 98.867)">
    <path d="m0 0-14.102-27.675-0.061 0.025 14.103 27.674z" fill="#fce9a2"/>
   </g>
   <g transform="translate(75.951 98.82)">
    <path d="m0 0-14.102-27.675-0.061 0.025 14.102 27.675z" fill="#fce9a2"/>
   </g>
   <g transform="translate(76.068 98.772)">
    <path d="m0 0-14.102-27.675-0.061 0.025 14.102 27.675z" fill="#fce9a2"/>
   </g>
   <g transform="translate(76.184 98.725)">
    <path d="m0 0-14.102-27.675-0.061 0.025 14.102 27.675z" fill="#fce9a2"/>
   </g>
   <g transform="translate(76.301 98.678)">
    <path d="m0 0-14.102-27.675-0.06 0.025 14.101 27.674z" fill="#fce9a2"/>
   </g>
   <g transform="translate(76.43 98.625)">
    <path d="m0 0-14.101-27.675-0.061 0.025 14.101 27.675z" fill="#fce9a2"/>
   </g>
   <g transform="translate(76.547 98.577)">
    <path d="m0 0-14.101-27.674-0.061 0.024 14.101 27.675z" fill="#fce9a2"/>
   </g>
   <g transform="translate(76.664 98.53)">
    <path d="m0 0-14.102-27.675-0.061 0.024 14.102 27.676z" fill="#fce9a2"/>
   </g>
   <g transform="translate(76.78 98.483)">
    <path d="m0 0-14.102-27.675-0.061 0.025 14.102 27.674z" fill="#fce9a2"/>
   </g>
   <g transform="translate(76.898 98.436)">
    <path d="m0 0-14.102-27.675-0.061 0.025 14.101 27.675z" fill="#fce9a2"/>
   </g>
   <g transform="translate(77.014 98.388)">
    <path d="m0 0-14.102-27.674-0.06 0.024 14.101 27.675z" fill="#fce9a2"/>
   </g>
   <g transform="translate(77.13 98.34)">
    <path d="m0 0-14.101-27.675-0.061 0.025 14.101 27.675z" fill="#fce9a2"/>
   </g>
   <g transform="translate(77.247 98.293)">
    <path d="m0 0-14.101-27.675-0.061 0.025 14.101 27.675z" fill="#fce9a2"/>
   </g>
   <g transform="translate(77.364 98.246)">
    <path d="m0 0-14.102-27.675-0.061 0.024 14.102 27.676z" fill="#fce9a2"/>
   </g>
   <g transform="translate(77.48 98.198)">
    <path d="m0 0-14.101-27.675-0.061 0.025 14.102 27.675z" fill="#fce9a2"/>
   </g>
   <g transform="translate(77.596 98.151)">
    <path d="m0 0-14.101-27.675-0.061 0.024 14.101 27.675z" fill="#fce9a2"/>
   </g>
   <g transform="translate(77.714 98.103)">
    <path d="m0 0-14.102-27.675-0.061 0.025 14.102 27.675z" fill="#fce9a2"/>
   </g>
   <g transform="translate(77.83 98.056)">
    <path d="m0 0-14.101-27.675-0.062 0.025 14.102 27.675z" fill="#fce9a2"/>
   </g>
   <g transform="translate(77.947 98.008)">
    <path d="m0 0-14.102-27.675-0.061 0.025 14.101 27.675z" fill="#fce9a2"/>
   </g>
   <g transform="translate(78.063,97.961)">
    <path d="m0 0-14.102-27.675-0.061 0.025 14.102 27.675z" fill="#fce9a2"/>
   </g>
   <g transform="translate(78.18 97.914)">
    <path d="m0 0-14.102-27.675-0.06 0.025 14.101 27.675z" fill="#fce9a2"/>
   </g>
   <g transform="translate(78.296 97.866)">
    <path d="m0 0-14.102-27.675-0.061 0.025 14.102 27.675z" fill="#fce9a2"/>
   </g>
   <g transform="translate(78.413 97.819)">
    <path d="m0 0-14.102-27.675-0.06 0.025 14.101 27.675z" fill="#fce9a2"/>
   </g>
   <g transform="translate(78.53 97.771)">
    <path d="m0 0-14.102-27.675-0.061 0.025 14.102 27.675z" fill="#fce9a2"/>
   </g>
   <g transform="translate(78.646 97.724)">
    <path d="m0 0-14.101-27.675-0.062 0.025 14.102 27.675z" fill="#fce9a2"/>
   </g>
   <g transform="translate(78.763 97.676)">
    <path d="m0 0-14.102-27.675-0.06 0.026 14.101 27.674z" fill="#fce9a2"/>
   </g>
   <g transform="translate(78.88 97.629)">
    <path d="m0 0-14.102-27.675-0.061 0.025 14.101 27.675z" fill="#fce9a2"/>
   </g>
   <g transform="translate(78.996 97.581)">
    <path d="m0 0-14.102-27.674-0.06 0.024 14.1 27.675z" fill="#fce9a2"/>
   </g>
   <g transform="translate(79.113,97.534)">
    <path d="m0 0-14.101-27.675-0.061 0.025 14.101 27.675z" fill="#fce9a2"/>
   </g>
   <g transform="translate(79.23 97.487)">
    <path d="m0 0-14.102-27.675-0.061 0.025 14.102 27.675z" fill="#fce9a2"/>
   </g>
   <g transform="translate(79.346 97.44)">
    <path d="m0 0-14.102-27.675-0.061 0.025 14.102 27.675z" fill="#fce9a2"/>
   </g>
   <g transform="translate(79.462 97.392)">
    <path d="m0 0-14.1-27.675-0.062 0.025 14.101 27.675z" fill="#fce9a2"/>
   </g>
   <g transform="translate(79.579 97.345)">
    <path d="m0 0-14.101-27.675-0.062 0.025 14.102 27.675z" fill="#fce9a2"/>
   </g>
   <g transform="translate(79.696 97.297)">
    <path d="m0 0-14.102-27.675-0.062 0.025 14.103 27.675z" fill="#fce9a2"/>
   </g>
   <g transform="translate(79.813 97.25)">
    <path d="m0 0-14.102-27.674-0.06 0.024 14.1 27.675z" fill="#fce9a2"/>
   </g>
   <g transform="translate(79.93 97.202)">
    <path d="m0 0-14.102-27.675-0.061 0.025 14.101 27.675z" fill="#fce9a2"/>
   </g>
   <g transform="translate(80.046 97.155)">
    <path d="m0 0-14.102-27.675-0.061 0.025 14.102 27.674z" fill="#fce9a2"/>
   </g>
   <g transform="translate(80.162 97.108)">
    <path d="m0 0-14.1-27.675-0.062 0.025 14.101 27.674z" fill="#fce9a2"/>
   </g>
   <g transform="translate(80.279 97.06)">
    <path d="m0 0-14.101-27.675-0.061 0.025 14.101 27.675z" fill="#fce9a2"/>
   </g>
   <g transform="translate(80.395 97.013)">
    <path d="m0 0-14.101-27.675-0.062 0.026 14.102 27.674z" fill="#fce9a2"/>
   </g>
   <g transform="translate(80.512 96.966)">
    <path d="m0 0-14.101-27.675-0.063 0.024 14.103 27.676z" fill="#fce9a2"/>
   </g>
   <g transform="translate(80.63 96.918)">
    <path d="m0 0-14.102-27.675-0.06 0.024 14.1 27.675z" fill="#fce9a2"/>
   </g>
   <g transform="translate(80.745 96.871)">
    <path d="m0 0-14.102-27.675-0.061 0.025 14.102 27.675z" fill="#fce9a2"/>
   </g>
   <g transform="translate(80.862 96.823)">
    <path d="m0 0-14.102-27.675-0.062 0.025 14.103 27.675z" fill="#fce9a2"/>
   </g>
   <g transform="translate(80.979 96.776)">
    <path d="m0 0-14.101-27.675-0.062 0.024 14.102 27.675z" fill="#fce9a2"/>
   </g>
   <g transform="translate(81.095 96.728)">
    <path d="m0 0-14.101-27.675-0.061 0.025 14.101 27.675z" fill="#fce9a2"/>
   </g>
   <g transform="translate(81.212 96.681)">
    <path d="m0 0-14.102-27.676-0.06 0.026 14.101 27.674z" fill="#fce9a2"/>
   </g>
   <g transform="translate(81.329 96.633)">
    <path d="m0 0-14.101-27.675-0.062 0.025 14.102 27.675z" fill="#fce9a2"/>
   </g>
   <g transform="translate(81.446 96.586)">
    <path d="m0 0-14.102-27.675-0.061 0.024 14.102 27.676z" fill="#fce9a2"/>
   </g>
   <g transform="translate(81.562 96.539)">
    <path d="m0 0-14.102-27.675-0.061 0.025 14.101 27.674z" fill="#fce9a2"/>
   </g>
   <g transform="translate(81.678 96.492)">
    <path d="m0 0-14.101-27.675-0.061 0.025 14.101 27.675z" fill="#fce9a2"/>
   </g>
   <g transform="translate(81.808 96.439)">
    <path d="m0 0-14.101-27.675-0.061 0.024 14.101 27.676z" fill="#fce9a2"/>
   </g>
   <g transform="translate(81.925 96.391)">
    <path d="m0 0-14.102-27.675-0.06 0.025 14.101 27.675z" fill="#fce9a2"/>
   </g>
   <g transform="translate(82.042 96.344)">
    <path d="m0 0-14.102-27.675-0.061 0.025 14.102 27.675z" fill="#fce9a2"/>
   </g>
   <g transform="translate(82.158 96.297)">
    <path d="m0 0-14.101-27.675-0.061 0.024 14.101 27.676z" fill="#fce9a2"/>
   </g>
   <g transform="translate(68.173 68.574)">
    <path d="m0 0-0.061 0.025" fill="#fce9a2"/>
   </g>
   <g transform="translate(68.29 68.526)">
    <path d="m0 0-0.061 0.026" fill="#fce9a2"/>
   </g>
   <g transform="translate(68.407 68.48)">
    <path d="m0 0-0.061 0.024" fill="#fce9a2"/>
   </g>
   <g transform="translate(68.523 68.432)">
    <path d="m0 0-0.061 0.025" fill="#fce9a2"/>
   </g>
   <g transform="translate(68.64,68.384)">
    <path d="m0 0-0.061 0.026" fill="#fce9a2"/>
   </g>
   <g transform="translate(68.756 68.338)">
    <path d="m0 0-0.06 0.024" fill="#fce9a2"/>
   </g>
   <g transform="translate(68.873 68.29)">
    <path d="m0 0-0.061 0.025" fill="#fce9a2"/>
   </g>
   <g transform="translate(68.99 68.242)">
    <path d="m0 0-0.061 0.026" fill="#fce9a2"/>
   </g>
   <g transform="translate(69.106 68.195)">
    <path d="m0 0-0.061 0.025" fill="#fce9a2"/>
   </g>
   <g transform="translate(69.223 68.148)">
    <path d="m0 0-0.061 0.024" fill="#fce9a2"/>
   </g>
   <g transform="translate(69.339 68.1)">
    <path d="m0 0-0.061 0.025" fill="#fce9a2"/>
   </g>
   <g transform="translate(69.457 68.053)">
    <path d="m0 0-0.061 0.025" fill="#fce9a2"/>
   </g>
   <g transform="translate(69.573 68.006)">
    <path d="m0 0-0.061 0.024" fill="#fce9a2"/>
   </g>
   <g transform="translate(69.689 67.957)">
    <path d="m0 0-0.061 0.025" fill="#fce9a2"/>
   </g>
   <g transform="translate(69.806 67.911)">
    <path d="m0 0-0.061 0.025" fill="#fce9a2"/>
   </g>
   <g transform="translate(69.923 67.863)">
    <path d="m0 0-0.061 0.024" fill="#fce9a2"/>
   </g>
   <g transform="translate(70.039 67.815)">
    <path d="m0 0-0.061 0.026" fill="#fce9a2"/>
   </g>
   <g transform="translate(70.156 67.768)">
    <path d="m0 0-0.061 0.025" fill="#fce9a2"/>
   </g>
   <g transform="translate(70.273 67.721)">
    <path d="m0 0-0.061 0.024" fill="#fce9a2"/>
   </g>
   <g transform="translate(70.389 67.673)">
    <path d="m0 0-0.061 0.024" fill="#fce9a2"/>
   </g>
   <g transform="translate(70.506 67.626)">
    <path d="m0 0-0.061 0.026" fill="#fce9a2"/>
   </g>
   <g transform="translate(70.623 67.579)">
    <path d="m0 0-0.061 0.025" fill="#fce9a2"/>
   </g>
   <g transform="translate(70.739 67.532)">
    <path d="m0 0-0.061 0.023" fill="#fce9a2"/>
   </g>
   <g transform="translate(70.856 67.483)">
    <path d="m0 0-0.062 0.026" fill="#fce9a2"/>
   </g>
   <g transform="translate(70.972 67.437)">
    <path d="m0 0-0.061 0.025" fill="#fce9a2"/>
   </g>
   <g transform="translate(71.089 67.39)">
    <path d="m0 0-0.061 0.024" fill="#fce9a2"/>
   </g>
   <g transform="translate(71.205 67.341)">
    <path d="m0 0-0.061 0.026" fill="#fce9a2"/>
   </g>
   <g transform="translate(71.322 67.294)">
    <path d="m0 0-0.061 0.025" fill="#fce9a2"/>
   </g>
   <g transform="translate(71.439 67.247)">
    <path d="m0 0-0.061 0.024" fill="#fce9a2"/>
   </g>
   <g transform="translate(71.555 67.198)">
    <path d="m0 0-0.061 0.026" fill="#fce9a2"/>
   </g>
   <g transform="translate(71.672 67.152)">
    <path d="m0 0-0.061 0.026" fill="#fce9a2"/>
   </g>
   <g transform="translate(71.789 67.105)">
    <path d="m0 0-0.062 0.024" fill="#fce9a2"/>
   </g>
   <g transform="translate(71.905 67.056)">
    <path d="m0 0-0.061 0.025" fill="#fce9a2"/>
   </g>
   <g transform="translate(72.022 67.01)">
    <path d="m0 0-0.061 0.025" fill="#fce9a2"/>
   </g>
   <g transform="translate(72.138 66.962)">
    <path d="m0 0-0.06 0.024" fill="#fce9a2"/>
   </g>
   <g transform="translate(72.255 66.915)">
    <path d="m0 0-0.061 0.025" fill="#fce9a2"/>
   </g>
   <g transform="translate(72.372 66.867)">
    <path d="m0 0-0.061 0.026" fill="#fce9a2"/>
   </g>
   <g transform="translate(72.489 66.82)">
    <path d="m0 0-0.062 0.025" fill="#fce9a2"/>
   </g>
   <g transform="translate(72.605 66.773)">
    <path d="m0 0-0.061 0.023" fill="#fce9a2"/>
   </g>
   <g transform="translate(72.722 66.724)">
    <path d="m0 0-0.061 0.026" fill="#fce9a2"/>
   </g>
   <g transform="translate(72.839 66.678)">
    <path d="m0 0-0.061 0.025" fill="#fce9a2"/>
   </g>
   <g transform="translate(72.955 66.63)">
    <path d="m0 0-0.061 0.024" fill="#fce9a2"/>
   </g>
  </g>
  <g transform="matrix(9.071 0 0 -9.071 -850.47 750.49)" clip-path="url(#clipPath68578)">
   <g transform="translate(64.504 95.556)">
    <path d="m0 0-0.055-0.063-0.376-0.026-0.063 0.054 0.054 0.064 0.376 0.026z" fill="#140f0e"/>
   </g>
   <g transform="translate(64.47 95.344)">
    <path d="m0 0-0.054-0.063-0.376-0.026-0.063 0.055 0.053 0.063 0.376 0.026z" fill="#140f0e"/>
   </g>
   <g transform="translate(64.412 95.126)">
    <path d="m0 0-0.054-0.063-0.376-0.026-0.064 0.055 0.054 0.063 0.376 0.025z" fill="#140f0e"/>
   </g>
   <g transform="translate(64.37 94.915)">
    <path d="m0 0-0.054-0.063-0.376-0.027-0.064 0.056 0.054 0.062 0.376 0.026z" fill="#140f0e"/>
   </g>
   <g transform="translate(64.329 94.704)">
    <path d="m0 0-0.054-0.063-0.376-0.026-0.063 0.055 0.053 0.063 0.376 0.025z" fill="#140f0e"/>
   </g>
   <g transform="translate(64.287 94.492)">
    <path d="m0 0-0.054-0.063-0.376-0.025-0.063 0.054 0.053 0.063 0.377 0.026z" fill="#140f0e"/>
   </g>
   <g transform="translate(64.245 94.281)">
    <path d="m0 0-0.053-0.063-0.376-0.026-0.064 0.055 0.054 0.062 0.376 0.027z" fill="#140f0e"/>
   </g>
   <g transform="translate(64.204 94.07)">
    <path d="m0 0-0.054-0.064-0.376-0.025-0.064 0.055 0.054 0.062 0.376 0.026z" fill="#140f0e"/>
   </g>
   <g transform="translate(64.162 93.858)">
    <path d="m0 0-0.054-0.063-0.376-0.026-0.063 0.055 0.054 0.063 0.375 0.026z" fill="#140f0e"/>
   </g>
   <g transform="translate(64.12 93.647)">
    <path d="m0 0-0.054-0.063-0.376-0.026-0.063 0.055 0.053 0.062 0.376 0.027z" fill="#140f0e"/>
   </g>
   <g transform="translate(64.079 93.436)">
    <path d="m0 0-0.054-0.063-0.376-0.026-0.064 0.055 0.054 0.062 0.376 0.027z" fill="#140f0e"/>
   </g>
   <g transform="translate(64.037 93.225)">
    <path d="m0 0-0.054-0.063-0.376-0.026-0.063 0.055 0.054 0.062 0.375 0.026z" fill="#140f0e"/>
   </g>
   <g transform="translate(63.995 93.013)">
    <path d="m0 0-0.054-0.063-0.376-0.026-0.063 0.055 0.053 0.063 0.376 0.026z" fill="#140f0e"/>
   </g>
   <g transform="translate(63.954 92.802)">
    <path d="m0 0-0.054-0.063-0.376-0.026-0.063 0.055 0.053 0.062 0.376 0.026z" fill="#140f0e"/>
   </g>
   <g transform="translate(63.912 92.592)">
    <path d="m0 0-0.054-0.063-0.376-0.026-0.064 0.054 0.054 0.063 0.376 0.026z" fill="#140f0e"/>
   </g>
   <g transform="translate(63.87 92.38)">
    <path d="m0 0-0.054-0.063-0.376-0.026-0.063 0.054 0.054 0.063 0.375 0.027z" fill="#140f0e"/>
   </g>
   <g transform="translate(63.829 92.169)">
    <path d="m0 0-0.054-0.063-0.376-0.027-0.064 0.055 0.054 0.063 0.376 0.026z" fill="#140f0e"/>
   </g>
   <g transform="translate(63.786 91.957)">
    <path d="m0 0-0.054-0.063-0.376-0.026-0.063 0.055 0.054 0.063 0.375 0.026z" fill="#140f0e"/>
   </g>
   <g transform="translate(63.745 91.746)">
    <path d="m0 0-0.054-0.063-0.376-0.026-0.063 0.055 0.053 0.062 0.376 0.026z" fill="#140f0e"/>
   </g>
   <g transform="translate(63.704 91.535)">
    <path d="m0 0-0.054-0.063-0.376-0.026-0.063 0.054 0.053 0.063 0.376 0.026z" fill="#140f0e"/>
   </g>
   <g transform="translate(63.662 91.324)">
    <path d="m0 0-0.054-0.063-0.376-0.026-0.063 0.054 0.054 0.063 0.375 0.026z" fill="#140f0e"/>
   </g>
   <g transform="translate(63.62 91.112)">
    <path d="m0 0-0.054-0.063-0.376-0.026-0.063 0.055 0.053 0.063 0.377 0.026z" fill="#140f0e"/>
   </g>
   <g transform="translate(65.113 95.686)">
    <path d="m0 0-0.055-0.063-0.375-0.026-0.063 0.055 0.053 0.062 0.376 0.027z" fill="#140f0e"/>
   </g>
   <g transform="translate(65.079 95.474)">
    <path d="m0 0-0.054-0.063-0.376-0.026-0.064 0.055 0.054 0.063 0.377 0.026z" fill="#140f0e"/>
   </g>
   <g transform="translate(65.021 95.256)">
    <path d="m0 0-0.054-0.063-0.376-0.026-0.063 0.055 0.053 0.063 0.377 0.026z" fill="#140f0e"/>
   </g>
   <g transform="translate(64.979 95.044)">
    <path d="m0 0-0.054-0.063-0.376-0.026-0.063 0.055 0.054 0.062 0.375 0.027z" fill="#140f0e"/>
   </g>
   <g transform="translate(64.938 94.833)">
    <path d="m0 0-0.053-0.063-0.377-0.026-0.064 0.054 0.054 0.063 0.376 0.027z" fill="#140f0e"/>
   </g>
   <g transform="translate(64.896 94.621)">
    <path d="m0 0-0.054-0.063-0.376-0.026-0.063 0.055 0.053 0.063 0.376 0.026z" fill="#140f0e"/>
   </g>
   <g transform="translate(64.854 94.41)">
    <path d="m0 0-0.053-0.063-0.377-0.026-0.063 0.055 0.054 0.063 0.375 0.026z" fill="#140f0e"/>
   </g>
   <g transform="translate(64.813 94.2)">
    <path d="m0 0-0.054-0.063-0.376-0.027-0.064 0.056 0.054 0.062 0.376 0.026z" fill="#140f0e"/>
   </g>
   <g transform="translate(64.771 93.988)">
    <path d="m0 0-0.054-0.063-0.376-0.027-0.063 0.055 0.054 0.063 0.376 0.026z" fill="#140f0e"/>
   </g>
   <g transform="translate(64.729 93.777)">
    <path d="m0 0-0.053-0.063-0.377-0.026-0.063 0.054 0.054 0.063 0.376 0.026z" fill="#140f0e"/>
   </g>
   <g transform="translate(64.688 93.565)">
    <path d="m0 0-0.054-0.063-0.376-0.026-0.064 0.055 0.054 0.062 0.376 0.027z" fill="#140f0e"/>
   </g>
   <g transform="translate(64.646 93.354)">
    <path d="m0 0-0.053-0.063-0.376-0.026-0.064 0.054 0.054 0.063 0.376 0.026z" fill="#140f0e"/>
   </g>
   <g transform="translate(64.605 93.143)">
    <path d="m0 0-0.054-0.063-0.377-0.026-0.064 0.055 0.054 0.062 0.377 0.027z" fill="#140f0e"/>
   </g>
   <g transform="translate(64.563 92.932)">
    <path d="m0 0-0.054-0.063-0.376-0.026-0.063 0.054 0.054 0.063 0.375 0.026z" fill="#140f0e"/>
   </g>
   <g transform="translate(64.521 92.721)">
    <path d="m0 0-0.054-0.063-0.376-0.026-0.064 0.055 0.054 0.062 0.376 0.027z" fill="#140f0e"/>
   </g>
   <g transform="translate(64.48 92.509)">
    <path d="m0 0-0.054-0.063-0.376-0.026-0.063 0.055 0.053 0.062 0.376 0.027z" fill="#140f0e"/>
   </g>
   <g transform="translate(64.438 92.299)">
    <path d="m0 0-0.054-0.064-0.375-0.026-0.064 0.055 0.054 0.063 0.375 0.026z" fill="#140f0e"/>
   </g>
   <g transform="translate(64.397 92.087)">
    <path d="m0 0-0.054-0.063-0.376-0.026-0.064 0.054 0.054 0.063 0.376 0.026z" fill="#140f0e"/>
   </g>
   <g transform="translate(64.355 91.876)">
    <path d="m0 0-0.054-0.064-0.376-0.025-0.063 0.054 0.053 0.064 0.376 0.025z" fill="#140f0e"/>
   </g>
   <g transform="translate(64.312 91.664)">
    <path d="m0 0-0.053-0.063-0.377-0.026-0.063 0.055 0.054 0.063 0.376 0.026z" fill="#140f0e"/>
   </g>
   <g transform="translate(64.271 91.453)">
    <path d="m0 0-0.054-0.063-0.376-0.026-0.063 0.055 0.053 0.063 0.377 0.026z" fill="#140f0e"/>
   </g>
   <g transform="translate(64.23 91.242)">
    <path d="m0 0-0.054-0.063-0.376-0.026-0.063 0.055 0.053 0.063 0.376 0.026z" fill="#140f0e"/>
   </g>
   <g transform="translate(63.936 95.616)">
    <path d="m0 0-0.054-0.063-0.376-0.026-0.063 0.055 0.054 0.063 0.375 0.026z" fill="#140f0e"/>
   </g>
   <g transform="translate(63.902 95.404)">
    <path d="m0 0-0.054-0.064-0.376-0.026-0.063 0.055 0.053 0.063 0.376 0.026z" fill="#140f0e"/>
   </g>
   <g transform="translate(63.845 95.185)">
    <path d="m0 0-0.054-0.062-0.376-0.027-0.064 0.055 0.054 0.063 0.376 0.026z" fill="#140f0e"/>
   </g>
   <g transform="translate(63.803 94.974)">
    <path d="m0 0-0.054-0.063-0.376-0.025-0.063 0.054 0.053 0.063 0.376 0.026z" fill="#140f0e"/>
   </g>
   <g transform="translate(63.761 94.763)">
    <path d="m0 0-0.054-0.063-0.376-0.026-0.064 0.055 0.055 0.062 0.375 0.027z" fill="#140f0e"/>
   </g>
   <g transform="translate(63.719 94.551)">
    <path d="m0 0-0.054-0.062-0.375-0.026-0.064 0.054 0.054 0.063 0.376 0.026z" fill="#140f0e"/>
   </g>
   <g transform="translate(63.678 94.341)">
    <path d="m0 0-0.054-0.064-0.376-0.025-0.063 0.055 0.054 0.063 0.375 0.026z" fill="#140f0e"/>
   </g>
   <g transform="translate(63.636 94.129)">
    <path d="m0 0-0.054-0.063-0.375-0.027-0.064 0.055 0.053 0.063 0.376 0.026z" fill="#140f0e"/>
   </g>
   <g transform="translate(63.595 93.918)">
    <path d="m0 0-0.054-0.063-0.376-0.026-0.064 0.054 0.054 0.063 0.376 0.026z" fill="#140f0e"/>
   </g>
   <g transform="translate(63.553 93.707)">
    <path d="m0 0-0.054-0.063-0.375-0.026-0.064 0.054 0.054 0.063 0.375 0.026z" fill="#140f0e"/>
   </g>
   <g transform="translate(63.511 93.495)">
    <path d="m0 0-0.054-0.063-0.376-0.026-0.064 0.055 0.055 0.063 0.375 0.026z" fill="#140f0e"/>
   </g>
   <g transform="translate(63.47 93.284)">
    <path d="m0 0-0.054-0.063-0.376-0.026-0.063 0.055 0.053 0.062 0.376 0.027z" fill="#140f0e"/>
   </g>
   <g transform="translate(63.428 93.073)">
    <path d="m0 0-0.055-0.063-0.375-0.026-0.063 0.055 0.053 0.062 0.376 0.027z" fill="#140f0e"/>
   </g>
   <g transform="translate(63.386 92.862)">
    <path d="m0 0-0.054-0.063-0.376-0.026-0.064 0.055 0.054 0.063 0.376 0.026z" fill="#140f0e"/>
   </g>
   <g transform="translate(63.345 92.65)">
    <path d="m0 0-0.054-0.062-0.376-0.026-0.063 0.054 0.053 0.063 0.376 0.026z" fill="#140f0e"/>
   </g>
   <g transform="translate(63.303 92.439)">
    <path d="m0 0-0.054-0.063-0.375-0.026-0.064 0.055 0.054 0.062 0.376 0.027z" fill="#140f0e"/>
   </g>
   <g transform="translate(63.261 92.228)">
    <path d="m0 0-0.054-0.063-0.376-0.026-0.063 0.055 0.053 0.062 0.376 0.026z" fill="#140f0e"/>
   </g>
   <g transform="translate(63.22 92.017)">
    <path d="m0 0-0.055-0.063-0.375-0.026-0.064 0.055 0.054 0.062 0.376 0.026z" fill="#140f0e"/>
   </g>
   <g transform="translate(63.178 91.806)">
    <path d="m0 0-0.053-0.063-0.377-0.026-0.063 0.054 0.054 0.064 0.375 0.025z" fill="#140f0e"/>
   </g>
   <g transform="translate(63.136 91.594)">
    <path d="m0 0-0.054-0.063-0.376-0.026-0.064 0.055 0.054 0.063 0.376 0.026z" fill="#140f0e"/>
   </g>
   <g transform="translate(63.094 91.383)">
    <path d="m0 0-0.054-0.063-0.376-0.026-0.063 0.055 0.053 0.063 0.376 0.026z" fill="#140f0e"/>
   </g>
   <g transform="translate(63.053 91.171)">
    <path d="m0 0-0.054-0.063-0.376-0.026-0.064 0.055 0.054 0.063 0.376 0.026z" fill="#140f0e"/>
   </g>
   <g transform="translate(65.803 95.455)">
    <path d="m0 0-0.123 0.055-0.179 0.059-0.114 4e-3 -0.138-3e-3 -0.062 0.056 0.056 0.062 0.143 2e-3 0.124-4e-3c0.12-0.013 0.34-0.124 0.345-0.125l0.027-0.079-0.053-0.033-0.026 6e-3" fill="#140f0e"/>
   </g>
   <g transform="translate(65.758 95.219)">
    <path d="m0 0-0.123 0.055-0.18 0.059-0.114 3e-3 -0.138-2e-3 -0.061 0.056 0.055 0.061 0.143 3e-3 0.124-4e-3c0.121-0.013 0.339-0.125 0.344-0.125l0.029-0.079-0.053-0.033-0.026 6e-3" fill="#140f0e"/>
   </g>
   <g transform="translate(65.712 94.981)">
    <path d="m0 0-0.123 0.055-0.181 0.059-0.112 3e-3 -0.138-3e-3 -0.062 0.057 0.055 0.061 0.143 3e-3 0.124-4e-3c0.12-0.013 0.339-0.124 0.344-0.125l0.029-0.079-0.054-0.033-0.025 6e-3" fill="#140f0e"/>
   </g>
   <g transform="translate(65.665 94.742)">
    <path d="m0 0-0.123 0.055-0.179 0.059-0.114 3e-3 -0.138-3e-3 -0.062 0.057 0.056 0.061 0.143 3e-3 0.124-4e-3c0.12-0.013 0.34-0.125 0.345-0.125l0.027-0.079-0.053-0.033-0.026 6e-3" fill="#140f0e"/>
   </g>
   <g transform="translate(65.619 94.504)">
    <path d="m0 0-0.123 0.055-0.18 0.058-0.114 4e-3 -0.137-3e-3 -0.063 0.057 0.055 0.061 0.144 3e-3 0.123-5e-3c0.122-0.013 0.34-0.123 0.345-0.124l0.029-0.079-0.053-0.034-0.026 7e-3" fill="#140f0e"/>
   </g>
   <g transform="translate(65.574 94.265)">
    <path d="m0 0-0.124 0.055-0.18 0.058-0.113 4e-3 -0.138-3e-3 -0.062 0.057 0.056 0.061 0.143 3e-3 0.123-4e-3c0.12-0.013 0.34-0.124 0.345-0.125l0.029-0.079-0.054-0.033-0.025 6e-3" fill="#140f0e"/>
   </g>
   <g transform="translate(65.526 94.026)">
    <path d="m0 0-0.123 0.055-0.179 0.059-0.114 3e-3 -0.138-3e-3 -0.062 0.057 0.056 0.062 0.142 3e-3 0.125-5e-3c0.12-0.013 0.34-0.124 0.345-0.125l0.026-0.079-0.052-0.033-0.026 6e-3" fill="#140f0e"/>
   </g>
   <g transform="translate(65.481 93.787)">
    <path d="m0 0-0.124 0.055-0.179 0.058-0.114 4e-3 -0.138-2e-3 -0.062 0.056 0.055 0.061 0.144 3e-3 0.124-4e-3c0.12-0.013 0.339-0.124 0.344-0.125l0.028-0.079-0.052-0.033-0.026 6e-3" fill="#140f0e"/>
   </g>
   <g transform="translate(65.434 93.548)">
    <path d="m0 0-0.123 0.055-0.18 0.059-0.113 3e-3 -0.138-2e-3 -0.062 0.056 0.055 0.062 0.143 3e-3 0.124-5e-3c0.12-0.013 0.34-0.124 0.344-0.125l0.029-0.079-0.054-0.033-0.025 6e-3" fill="#140f0e"/>
   </g>
   <g transform="translate(65.388 93.31)">
    <path d="m0 0-0.123 0.055-0.179 0.059-0.114 3e-3 -0.138-2e-3 -0.063 0.057 0.056 0.061 0.143 3e-3 0.125-5e-3c0.12-0.013 0.339-0.124 0.344-0.125l0.027-0.079-0.052-0.033-0.026 6e-3" fill="#140f0e"/>
   </g>
   <g transform="translate(65.341 93.071)">
    <path d="m0 0-0.123 0.055-0.18 0.059-0.114 4e-3 -0.137-4e-3 -0.062 0.057 0.055 0.061 0.143 3e-3 0.124-4e-3c0.121-0.013 0.34-0.125 0.344-0.125l0.029-0.079-0.052-0.033-0.027 6e-3" fill="#140f0e"/>
   </g>
   <g transform="translate(65.296 92.833)">
    <path d="m0 0-0.123 0.055-0.181 0.059-0.113 3e-3 -0.137-3e-3h-1e-3 1e-3l-0.063 0.057 0.056 0.061 0.143 3e-3 0.123-4e-3c0.12-0.013 0.34-0.124 0.345-0.125l0.029-0.079-0.054-0.033-0.025 6e-3" fill="#140f0e"/>
   </g>
   <g transform="translate(65.249 92.594)">
    <path d="m0 0-0.123 0.055-0.18 0.059-0.113 4e-3 -0.138-3e-3 -0.063 0.056 0.056 0.061 0.143 3e-3 0.125-5e-3c0.119-0.013 0.339-0.124 0.343-0.124l0.028-0.079-0.052-0.033-0.026 6e-3" fill="#140f0e"/>
   </g>
   <g transform="translate(65.203 92.356)">
    <path d="m0 0-0.123 0.055-0.18 0.058-0.114 4e-3 -0.137-2e-3 -0.063 0.056 0.056 0.061 0.143 3e-3 0.124-4e-3c0.121-0.013 0.34-0.125 0.344-0.125l0.028-0.079-0.052-0.034-0.026 7e-3" fill="#140f0e"/>
   </g>
   <g transform="translate(65.157 92.117)">
    <path d="m0 0-0.123 0.055-0.181 0.059-0.113 4e-3 -0.138-3e-3 -0.062 0.056 0.055 0.062 0.144 3e-3 0.124-5e-3c0.119-0.013 0.339-0.124 0.344-0.125l0.028-0.079-0.053-0.033-0.025 6e-3" fill="#140f0e"/>
   </g>
   <g transform="translate(65.11 91.878)">
    <path d="m0 0-0.124 0.055-0.179 0.059-0.113 3e-3 -0.138-3e-3h-1e-3 1e-3l-0.063 0.057 0.056 0.061 0.143 3e-3 0.124-4e-3c0.12-0.013 0.34-0.125 0.345-0.125l0.027-0.079-0.053-0.033-0.025 6e-3" fill="#140f0e"/>
   </g>
   <g transform="translate(65.064 91.639)">
    <path d="m0 0-0.123 0.056-0.18 0.058-0.113 4e-3 -0.138-3e-3 -0.062 0.057 0.055 0.061 0.143 3e-3 0.125-4e-3c0.12-0.013 0.339-0.125 0.343-0.126l0.029-0.078-0.053-0.034-0.026 6e-3" fill="#140f0e"/>
   </g>
   <g transform="translate(65.017 91.4)">
    <path d="m0 0-0.123 0.055-0.18 0.059-0.113 4e-3 -0.137-3e-3h-1e-3l-0.062 0.057 0.055 0.06 0.143 4e-3 0.124-5e-3c0.12-0.012 0.34-0.124 0.344-0.125l0.029-0.079-0.053-0.033-0.026 6e-3" fill="#140f0e"/>
   </g>
   <g transform="translate(64.972 91.162)">
    <path d="m0 0-0.124 0.056-0.179 0.058-0.114 4e-3 -0.138-3e-3 -0.062 0.056 0.055 0.062 0.144 3e-3 0.124-4e-3c0.12-0.014 0.34-0.125 0.344-0.126l0.028-0.078-0.053-0.034-0.025 6e-3" fill="#140f0e"/>
   </g>
   <g transform="translate(64.924 90.923)">
    <path d="m0 0-0.122 0.055-0.18 0.059-0.114 3e-3 -0.138-2e-3 -0.062 0.056 0.056 0.062 0.142 2e-3 0.125-4e-3c0.12-0.012 0.34-0.124 0.344-0.125l0.028-0.079-0.052-0.033-0.027 6e-3" fill="#140f0e"/>
   </g>
   <g transform="translate(66.403 95.295)">
    <path d="m0 0-0.079-0.025-0.338 0.174-0.027 0.079 0.08 0.025 0.337-0.174z" fill="#140f0e"/>
   </g>
   <g transform="translate(66.358 95.1)">
    <path d="m0 0-0.08-0.025-0.337 0.173-0.025 0.081 0.079 0.025 0.338-0.175z" fill="#140f0e"/>
   </g>
   <g transform="translate(66.322 94.89)">
    <path d="m0 0-0.079-0.026-0.338 0.174-0.027 0.08 0.08 0.025 0.337-0.174z" fill="#140f0e"/>
   </g>
   <g transform="translate(66.283 94.679)">
    <path d="m0 0-0.077-0.026-0.339 0.174-0.025 0.079 0.079 0.025 0.337-0.173z" fill="#140f0e"/>
   </g>
   <g transform="translate(66.247 94.468)">
    <path d="m0 0-0.079-0.025-0.338 0.173-0.026 0.08 0.078 0.025 0.338-0.174z" fill="#140f0e"/>
   </g>
   <g transform="translate(66.21 94.256)">
    <path d="m0 0-0.078-0.025-0.338 0.175-0.025 0.078 0.079 0.026 0.337-0.174z" fill="#140f0e"/>
   </g>
   <g transform="translate(66.173 94.046)">
    <path d="m0 0-0.08-0.025-0.337 0.174-0.027 0.079 0.08 0.026 0.337-0.174z" fill="#140f0e"/>
   </g>
   <g transform="translate(66.137 93.835)">
    <path d="m0 0-0.079-0.025-0.338 0.174-0.026 0.08 0.079 0.025 0.337-0.174z" fill="#140f0e"/>
   </g>
   <g transform="translate(66.099 93.624)">
    <path d="m0 0-0.079-0.025-0.337 0.174-0.026 0.079 0.078 0.025 0.337-0.173z" fill="#140f0e"/>
   </g>
   <g transform="translate(66.063 93.413)">
    <path d="m0 0-0.079-0.025-0.337 0.174-0.027 0.079 0.079 0.025 0.337-0.173z" fill="#140f0e"/>
   </g>
   <g transform="translate(66.025 93.202)">
    <path d="m0 0-0.079-0.025-0.338 0.174-0.025 0.079 0.078 0.025 0.339-0.174z" fill="#140f0e"/>
   </g>
   <g transform="translate(65.989 92.991)">
    <path d="m0 0-0.079-0.025-0.338 0.174-0.026 0.079 0.079 0.026 0.337-0.175z" fill="#140f0e"/>
   </g>
   <g transform="translate(65.951 92.781)">
    <path d="m0 0-0.079-0.025-0.338 0.173-0.024 0.08 0.078 0.025 0.338-0.174z" fill="#140f0e"/>
   </g>
   <g transform="translate(65.915 92.57)">
    <path d="m0 0-0.079-0.025-0.337 0.174-0.027 0.079 0.079 0.025 0.337-0.174z" fill="#140f0e"/>
   </g>
   <g transform="translate(65.877 92.359)">
    <path d="m0 0-0.079-0.025-0.337 0.174-0.025 0.079 0.079 0.026 0.337-0.174z" fill="#140f0e"/>
   </g>
   <g transform="translate(65.841 92.148)">
    <path d="m0 0-0.079-0.025-0.337 0.174-0.027 0.079 0.079 0.026 0.337-0.174z" fill="#140f0e"/>
   </g>
   <g transform="translate(65.803 91.937)">
    <path d="m0 0-0.078-0.025-0.338 0.174-0.025 0.08 0.079 0.025 0.337-0.174z" fill="#140f0e"/>
   </g>
   <g transform="translate(65.767 91.726)">
    <path d="m0 0-0.079-0.025-0.337 0.174-0.027 0.08 0.079 0.024 0.337-0.173z" fill="#140f0e"/>
   </g>
   <g transform="translate(65.712 91.525)">
    <path d="m0 0-0.077-0.026-0.323 0.167-0.024 0.078 0.077 0.026 0.322-0.166z" fill="#140f0e"/>
   </g>
   <g transform="translate(65.666 91.319)">
    <path d="m0 0-0.076-0.027-0.317 0.163-0.023 0.078 0.076 0.027 0.318-0.163z" fill="#140f0e"/>
   </g>
   <g transform="translate(65.597 91.124)">
    <path d="m0 0-0.072-0.029-0.292 0.151-0.02 0.076 0.072 0.03 0.294-0.152z" fill="#140f0e"/>
   </g>
   <g transform="translate(65.543 90.922)">
    <path d="m0 0-0.07-0.03-0.279 0.144-0.017 0.075 0.07 0.031 0.279-0.145z" fill="#140f0e"/>
   </g>
   <g transform="translate(66.108 93.181)">
    <path d="m0 0 0.022-0.081 0.147-0.09 0.039 0.115-0.127 0.076-0.081-0.02m0.036 0.227 0.021-0.082 0.182-0.108 0.038 0.114-0.16 0.095-0.081-0.019m0.073 0.453 0.021-0.081 0.246-0.147 0.038 0.114-0.224 0.134-0.081-0.02m-0.183-1.133 0.022-0.081 0.085-0.052 0.038 0.114-0.063 0.038-0.082-0.019m0.037 0.226 0.021-0.081 0.117-0.07 0.039 0.113-0.096 0.058-0.081-0.02m0.11 0.68 0.022-0.081 0.212-0.128 0.038 0.114-0.191 0.115-0.081-0.02m0.588 0.958-0.325 0.196-0.081-0.02 0.022-0.081 0.324-0.196 0.057-1e-3 0.026 0.076-0.023 0.026m0.037 0.228-0.325 0.195-0.08-0.02 0.019-0.081 0.328-0.195 0.079 0.02-0.021 0.081m0.036 0.226-0.325 0.195-0.081-0.019 0.022-0.082 0.324-0.195 0.082 0.02-0.022 0.081m-0.514-0.504 0.019-0.081 0.326-0.196 0.017-6e-3 0.037 0.11-0.318 0.192-0.081-0.019m-0.074-0.454 0.022-0.081 0.276-0.167 0.038 0.115-0.254 0.153-0.082-0.02m0.035 0.226 0.022-0.08 0.309-0.187 0.038 0.115-0.287 0.172z" fill="#140f0e"/>
   </g>
   <g transform="translate(65.692 90.876)">
    <path d="m0 0s0.787 1.887 1.398 3.977c0 0 0.045 0.314-0.944 0.779l-8e-3 0.095s0.03 0.118-0.167 0.181c0 0 0.052 0.133-0.208 0.204s-0.598 0.072-0.534 9e-3l0.11-0.103s-1.29 0.112-2.172-0.399c0 0-0.081 0.189 0.254 0.441 0.335 0.251 1.06 0.296 1.442 0.336 0.448 0.047 1.574-0.151 2.045-0.733 0.472-0.582 0.758-0.858 0.742-1.495h-0.086s-0.098 0.292-0.304 0.402l-0.015-0.048s0.184-0.188 0.249-0.353l-0.03-0.158s0.168-0.228 0.067-0.346c0 0 0.021 0.204-0.383 0.511l-0.039-0.094s0.31-0.267 0.312-0.385c1e-3 -0.118-0.046-0.165-0.046-0.165s0.136-0.189 0.06-0.315c0 0 0.021 0.134-0.161 0.291-0.183 0.157-0.255 0.228-0.255 0.228l-0.038-0.078 0.311-0.299-0.012-0.299s0.174-0.213 0.082-0.315c0 0 0.022 0.102-0.137 0.252s-0.334 0.307-0.334 0.307l-0.047-0.086 0.39-0.37-0.02-0.267s0.12-0.165 0.058-0.275c0 0-0.041 0.173-0.216 0.306-0.174 0.134-0.309 0.244-0.309 0.244l-0.039-0.078s0.341-0.252 0.421-0.346c0.081-0.095-0.02-0.315-0.02-0.315s0.128-0.165 0.059-0.26c0 0-9e-3 0.103-0.152 0.237s-0.421 0.338-0.421 0.338l-0.039-0.094s0.381-0.252 0.446-0.378c0.064-0.126 0.012-0.33 0.012-0.33s0.095-0.111 0.081-0.205c0 0-0.279 0.331-0.628 0.559l-0.061-0.086s0.514-0.37 0.555-0.465c0.041-0.094-0.037-0.228-0.037-0.228l0.058-0.235s-0.208 0.267-0.684 0.582l-0.037-0.086s0.484-0.308 0.596-0.536l-0.022-0.228s0.098-0.149 0.082-0.244c0 0-0.342 0.386-0.8 0.63l-0.024-0.047s0.602-0.418 0.69-0.559l-0.059-0.228-0.015-0.079s-0.376 0.394-1.017 0.701" fill="#140f0e"/>
   </g>
   <g transform="translate(65.304 89.438)">
    <path d="m0 0s-0.495-0.083-0.601-0.082c-0.106 0-0.049 0.118-0.049 0.118l0.576 0.223 0.119-0.153 0.154-0.024 0.151 0.142s-0.204 0.366-0.607 0.425c0 0-8e-3 -0.259-0.231-0.318-0.224-0.059-0.565-0.165-0.565-0.165l0.274-0.189-0.281 0.06-0.193 0.166-1.523 0.764c-0.072 0.06 0.036 0.086 0.226 0.015 0.189-0.071 0.498-0.131 0.768 0.022 0.269 0.153 1.496 0.188 1.649 0.164s1.459-0.757 1.497-0.91c0.037-0.153-0.24-0.512-0.535-0.547 0 0 0.118-0.065 0.282-0.031 0.165 0.036 0.516 0.295 0.427 0.826 0 0-1.119 0.838-1.285 0.885 0 0 0.013-0.047-0.271 0.012-0.284 0.06-0.177 0.035-0.177 0.035s0.083-0.117-0.081-0.07c-0.167 0.048-0.368 0.107-0.627 0.119-0.26 0.012-1.284-0.152-1.415-0.093-0.13 0.059 0.011 0.13 0.011 0.13l-0.755-0.094c-0.046-0.035-0.078-0.342 0.113-0.519s1.756-0.863 1.781-0.934c0.025-0.07 0.05-0.259-0.028-0.66 0 0-0.523-0.29-0.303-0.904l0.134-0.023s0.114-0.244 0.224-0.315c0.111-0.071 0.11 0 0.11 0l0.014 0.118h-0.133l-0.012 0.346s9e-3 0.503 0.108 0.762l0.048-0.063s-0.095-0.566-0.03-0.739l0.11-0.023-0.092-0.119-0.079-1.305h0.503s-0.22 0.024-0.201 0.362c0.02 0.338 0.082 1.006 0.129 0.998l0.228 0.047s0.258 0.102 0.131 0.244c-0.128 0.142-0.01 0.11 0.013 0.197 0.022 0.086 0.079 0.683 0.241 0.825 0.164 0.141-0.027-0.267-0.071-0.622-0.043-0.353-0.123-0.864 0.05-0.825l-0.017 0.134s0.149 0.039 0.244-0.087c0.096-0.126 0.295-0.331 0.506-0.229s0.418 0.551 0.153 0.999l0.251 0.636s-0.291-0.015-0.534 0.072c-0.245 0.086-0.529 0.197-0.529 0.197" fill="#140f0e"/>
   </g>
   <g transform="translate(66.137,89.767)">
    <path d="m0 0s-0.11-0.102-0.239-0.117c-0.129-0.016-0.275-0.024-0.286-0.11-0.011-0.087 0.435-0.182 0.594 0.01 0.158 0.194 0.027 0.276 0.027 0.276l-0.069-0.153-0.027 0.094" fill="#140f0e"/>
   </g>
   <g transform="translate(63.478 89.86)">
    <path d="m0 0s0.14 0.141 0.525 0.07c0.387-0.071 0.408-0.204 0.228-0.232-0.181-0.027-0.244-0.019-0.37 0.047-0.127 0.067-0.128 0.142-0.128 0.142l-0.085-0.082-0.17 0.055" fill="#140f0e"/>
   </g>
   <g transform="translate(64.697 87.881)">
    <path d="m0 0 0.132-0.188c0.052-0.02 0.078 0.042-6e-3 0.2l0.105 0.055s-0.029-0.189 0.066-0.26c0.096-0.071 0.213-0.074 0.225-0.063l3e-3 0.122-0.03 0.134 0.079-0.02s-0.037-0.086 0.027-0.185c0.064-0.098 0.29-0.271 0.29-0.271l-0.066-1.038-0.06 0.024 0.042 0.797c-0.02 0.028-0.061-0.094-0.085-0.762l-0.185 0.032s0.066 0.086 0.084 0.459c0.019 0.374-0.032 0.402-0.032 0.402s-0.046-0.11-0.073-0.437c-0.028-0.326 0.013-0.408 0.064-0.432l-0.342 0.031s0.145-0.011 0.166 0.197 0.059 0.68-0.021 0.798c-0.081 0.118-0.16 0.153-0.179 0.142l0.073-0.15s-0.066-0.07-0.07-0.417c-4e-3 -0.346-0.037-0.538 0.14-0.566l0.032-0.019-0.515 0.023s0.093 0.056 0.092 0.158c-1e-3 0.103 0.029 0.876 0.042 1.042 0.014 0.165-0.092 0.193-0.092 0.193z" fill="#140f0e"/>
   </g>
   <g transform="translate(64.383 86.514)">
    <path d="m0 0s-0.259 0.013-0.293-0.106l-0.03-0.483-0.186-0.212-0.126-1.274-0.104-0.094-0.02-0.331 0.236-0.011c0.059-0.048-0.035-0.083-0.141-0.071l-0.072-0.802 0.096-0.153c0.082-0.036 0.467-0.101 0.554-1e-3l0.276 2.488-0.132 0.19s0.178-0.071 0.18-0.203c2e-3 -0.129-0.207-2.333-0.207-2.333s2e-3 -0.178-0.104-0.213c0 0 0.165 0 0.185 0.26 0.02 0.259 0.196 2.31 0.196 2.31s-0.05 0.225-0.216 0.26c-0.165 0.036-0.193 0.425-0.092 0.779" fill="#140f0e"/>
   </g>
   <g transform="translate(64.297 82.976)">
    <path d="m0 0s-0.069-0.094-0.27-0.094l0.239-0.195 0.182-0.029 0.064 0.105 0.061-0.129 0.299 0.105-0.031-0.4-0.123-7e-3 0.015 0.26-0.177-0.029-0.045-0.253 0.492-0.142 0.189-0.066-1.369 0.12s-0.03 0.046 0.082 0.035c0.112-0.012 0.472 0.011 0.477 0.035l-0.195 0.1-4e-3 0.289-0.112 0.077-0.032-0.377-0.265 0.017 0.02 0.289 0.123 0.083-0.179 0.118-0.091 0.242z" fill="#140f0e"/>
   </g>
   <g transform="translate(65.158 82.114)">
    <path d="m0 0s0.112-0.13-0.051-0.212l-0.166 0.041c-0.083 0.03-0.779 0.066-0.985 0.06l-0.015-0.225-0.059-0.04-0.852-9.677s-0.063-0.177-0.204-0.183l-0.015-0.183-0.052-0.124c0.03-0.011 0.237-0.136 1.676-0.16l0.089-0.048 0.052 0.107 0.295 0.034s-0.396 0.054-0.514 0.042l0.151 0.177c0.024 0.018-0.16 0.088-0.198 0.301-0.039 0.212-0.082 0.384-0.026 0.667l0.727 8.898 0.123 0.017s0.143-0.106 0.384-0.041c0 0-0.05 0.177 0.097 0.248l0.066-0.118 0.015-0.171 0.33-0.013-0.078 0.048-0.094 0.071s-0.109 0.094 0.045 0.105c0.154 0.012 0.194-0.012 0.194-0.012l-0.077 0.048-0.213 0.041 0.354-6e-3s0 0.041-0.094 0.048c-0.095 5e-3 -0.301 0.065-0.32 0.094l0.39-1e-3 0.06-0.053 0.01 0.107-1.093 0.142z" fill="#140f0e"/>
   </g>
   <g transform="translate(64.646 81.49)">
    <path d="m0 0-0.758-9.353 0.11-0.016 0.758 9.353z" fill="#fce9a2"/>
   </g>
   <g transform="translate(64.835 81.426)">
    <path d="m0 0-0.774-9.337s0.152 0.393 0.164 0.707c0.012 0.315 0.676 8.394 0.676 8.394z" fill="#fce9a2"/>
   </g>
   <g transform="translate(63.799 69.117)">
    <path d="M 0,0 C 0.033,-0.23 1.258,-0.001 1.379,0.376 1.501,0.753 -0.103,0.708 0,0" fill="#fce9a2"/>
   </g>
   <g transform="translate(66.098 68.879)">
    <path d="M 0,0 C 0.061,-0.12 0.768,0.172 0.579,0.298 0.387,0.425 -0.048,0.095 0,0" fill="#fce9a2"/>
   </g>
   <g transform="translate(60.697 69.419)">
    <path d="m0 0c-0.066-0.107 0.634-0.393 0.869-0.284 0.234 0.11-0.761 0.457-0.869 0.284" fill="#fce9a2"/>
   </g>
   <g transform="translate(63.583 95.864)">
    <path d="m0 0s0.422 0.979 2.062 0.762c0 0-1.121 0.074-1.646-0.455 0 0-0.269-0.257-0.416-0.307" fill="#140f0e"/>
   </g>
   <g transform="translate(66.902 95.545)">
    <path d="m0 0s-0.052 0.354-0.504 0.755c-0.454 0.402-1.397 0.379-1.654 0.261 0 0 1.671 0.187 1.992-0.945z" fill="#140f0e"/>
   </g>
   <g transform="translate(65.546 96.537)">
    <path d="m0 0s-0.898 0.072-1.058-0.306l-0.354 0.048s0.465 0.519 1.412 0.258" fill="#140f0e"/>
   </g>
   <g transform="translate(67.548 95.466)">
    <path d="m0 0s-0.751 1.081-2.179 1.189l-0.024-0.059c0.036 0 0.802-0.06 1.2-0.674 0.397-0.613 0.886-1.12 0.886-1.12z" fill="#140f0e"/>
   </g>
   <g transform="translate(65.346 86.05)">
    <path d="m0 0-0.38-3.712 1.274-0.084 0.119 0.98-0.235-0.882-0.931 0.148z" fill="#fce9a2"/>
   </g>
   <g transform="translate(64.631 86.526)">
    <path d="m0 0-0.127-0.178s0.121-0.306 0.029-0.435l2e-3 -0.213 0.084-0.117s0.091 0.259 0.172 0.4c0.081 0.142-0.015 0.283 0.041 0.484 0 0 0.248 0 0.237-0.095s-0.04-0.507-0.088-0.543l-0.163-0.094s0.259-0.036 0.305 0.059c0.047 0.094 0.088 0.59 0.088 0.59l0.106-0.071-0.351-3.975 1.358-0.201s0.141 2.005 0.148 2.394c8e-3 0.389-0.385 0.554-0.503 0.589-0.118 0.037-0.318 0.049-0.367 0.071-0.047 0.025 0.193-0.306 0.149-0.554 0 0 0.106 0.059 0.295 0.024 0.188-0.036 0.356-0.201 0.358-0.331 2e-3 -0.129-0.164-2.075-0.164-2.075l-1.17 0.154 0.354 3.916 0.143-0.13c0.024-0.071-0.095-0.933-0.069-1.086 0.025-0.152 0.345-0.236 0.345-0.236s-0.299 0.26-0.278 0.555c0.02 0.295 0.072 0.826 0.072 0.826s0.068 0.247-1.006 0.272" fill="#140f0e"/>
   </g>
   <g transform="translate(66.146 95.633)">
    <path d="m0 0s-0.044 0.059-0.46 0.158c-0.418 0.098-0.383 0.091-1.168 0.067-0.785-0.023-1.139-0.121-1.139-0.121l-0.205-0.114c0.625 0.143 1.942 0.148 2.086 0.148 0.43 0 0.49-0.124 1.244-0.323z" fill="#140f0e"/>
   </g>
   <g transform="translate(65.397 88.153)">
    <path d="m0 0s-0.065 0.155 0.028 0.302c0.114 0.184 0.248 0.197 0.248 0.197s-0.056-0.031-0.166-0.244c-0.112-0.212-0.11-0.255-0.11-0.255" fill="#fce9a2"/>
   </g>
   <g transform="translate(65.55 88.553)">
    <path d="m0 0-0.096-0.115-0.045-0.151 0.068 0.137 0.073 0.129m-0.152-0.435-0.032 0.022c-3e-3 7e-3 -0.071 0.173 0.031 0.333 0.121 0.196 0.267 0.212 0.272 0.212l0.035-0.023-0.015-0.039s-0.053-0.037-0.152-0.23c-0.102-0.19-0.107-0.239-0.107-0.241l-0.026-0.033-6e-3 -1e-3" fill="#fce9a2"/>
   </g>
   <g transform="translate(63.911 88.138)">
    <path d="m 0,0 c 0,0 -0.059,0.142 0.015,0.283 0.092,0.173 0.206,0.19 0.206,0.19 0,0 -0.047,-0.031 -0.135,-0.232 C -0.003,0.04 0,0 0,0" fill="#fce9a2"/>
   </g>
   <g transform="translate(65.752 88.108)">
    <path d="m0 0c-0.013-0.103 0.027-0.194 0.087-0.203 0.061-7e-3 0.12 0.07 0.133 0.174 0.012 0.103-0.028 0.193-0.088 0.201-0.06 9e-3 -0.119-0.068-0.132-0.172" fill="#fce9a2"/>
   </g>
   <g transform="translate(65.875 88.269)">
    <path d="m0 0c-0.051 0-0.1-0.071-0.111-0.163-0.012-0.095 0.023-0.181 0.076-0.189h7e-3c0.052 0 0.101 0.071 0.112 0.163 0.012 0.095-0.023 0.181-0.077 0.188l-7e-3 1e-3m-0.028-0.376-0.01 1e-3c-0.067 9e-3 -0.111 0.106-0.097 0.215 0.013 0.105 0.07 0.184 0.135 0.184l0.01-1e-3c0.068-9e-3 0.111-0.105 0.098-0.215-0.013-0.105-0.071-0.184-0.136-0.184" fill="#fce9a2"/>
   </g>
  </g>
 </g>
</svg>
