<svg width="800" height="283.87" version="1.1" viewBox="0 0 211.67 75.107" xmlns="http://www.w3.org/2000/svg">
 <defs>
  <clipPath id="clipPath58024">
   <path d="m242.1 61.232h33.937v11.464h-33.937z"/>
  </clipPath>
 </defs>
 <g transform="translate(197.25 42.71)">
  <g transform="matrix(6.0761 0 0 -6.0761 -1665.6 401.75)">
   <g clip-path="url(#clipPath58024)">
    <g transform="translate(276.04 72.697)">
     <path d="m0 0h-33.938v-11.465h33.938v5.733l-7e-3 -8e-3 7e-3 0.24z" fill="#fff"/>
    </g>
   </g>
  </g>
  <g transform="matrix(6.0761 0 0 -6.0761 11.683 -6.545)">
   <path d="m0 0-7e-3 -0.24 7e-3 8e-3v-5.733h-33.938v11.465h33.938zm0.45 5.952h-34.836v-12.361h34.836v6.177l-0.016-0.058 0.016 0.29z" fill="#7b7979"/>
  </g>
  <path d="m-192.26-1.3949h201.73v28.813h-201.73z" fill="#bf2033"/>
  <path d="m-192.38-1.2977h34.464v-36.42h-34.464z" fill="#155196"/>
  <g transform="matrix(6.0761 0 0 -6.0761 -183.16 -21.569)">
   <path d="m0 0 9e-3 8e-3 -0.015 0.017h-9e-3l-0.019-0.039v-0.01h0.021l0.013 0.024m2.71-2.229-0.019-0.023 0.023-4e-3 0.01-0.011 5e-3 -6e-3 0.012 0.017-0.017 0.046zm-0.853 0.519-0.012 0.016-0.028-9e-3 6e-3 -0.059 0.011-0.033 0.015-7e-3h2e-3l0.023 0.012v0.032l-0.017 0.02-6e-3 8e-3 6e-3 0.02m0.872-0.976-0.019 0.017-0.013 4e-3 -9e-3 -0.021 0.036-0.026 5e-3 0.015 3e-3 7e-3zm-2.726 2.576h-3e-3zm0.048 0.036-0.03-5e-3 -6e-3 -2e-3 -0.028-7e-3 -7e-3 -0.013 7e-3 -5e-3 0.013-0.011h3e-3l-3e-3 -0.014 0.011 2e-3h4e-3v5e-3l0.015 5e-3 0.032 0.02-2e-3 6e-3 -9e-3 0.019m3.632 0.2v7e-3l8e-3 -5e-3 -8e-3 -2e-3m-0.024 0.162-8e-3 6e-3 8e-3 4e-3zm-0.215-0.263h-4e-3zm-0.104 0.111h-1e-3l-4e-3 5e-3h5e-3zm-9e-3 -0.106-8e-3 7e-3 8e-3 4e-3v-4e-3zm-0.155 0.202v9e-3l3e-3 -9e-3zm0.074-0.265v5e-3l3e-3 -5e-3zm-0.018-0.147v-0.013l-6e-3 -0.023h-2e-3l-7e-3 9e-3v4e-3h-6e-3v0.03l-4e-3 0.012-0.013 9e-3 4e-3 3e-3 7e-3 -3e-3 0.021-4e-3 3e-3 -0.015 3e-3 -9e-3m-0.124 0.38 5e-3 -4e-3 -5e-3 -1e-3 -2e-3 1e-3zm0.099-0.315v-2e-3zm-0.056-0.046h-3e-3l3e-3 5e-3zm-0.065 0.055v5e-3l3e-3 -5e-3zm-0.076 0.22v2e-3zm0.028-0.371 3e-3 4e-3h6e-3l-9e-3 -4e-3m-0.314 0.545-3e-3 4e-3h3e-3zm0.114-0.656v-5e-3zm-0.221 0.572-6e-3 -4e-3 5e-3 8e-3 1e-3 -2e-3zm0.148-0.623-2e-3 3e-3h2e-3zm-0.257 0.73-8e-3 -0.047 8e-3 -5e-3 -8e-3 -0.015-0.052-0.021 0.016 0.018 0.017 0.023-0.011 0.015-6e-3 4e-3v5e-3h-9e-3l-7e-3 8e-3 -3e-3 5e-3 3e-3 4e-3 0.019 5e-3 0.033 0.018h8e-3l9e-3 -9e-3 -9e-3 -8e-3m0.041-0.286h-7e-3l-0.012-3e-3 -0.013-0.014-0.036-0.01v-0.026l0.019-0.028-6e-3 -6e-3 -4e-3 -9e-3 -0.026-0.039-3e-3 4e-3 -0.013 5e-3 -3e-3 -9e-3h-5e-3l5e-3 0.014-3e-3 3e-3 -2e-3 5e-3v0.017l5e-3 9e-3 0.019 0.02-3e-3 3e-3 -0.021 0.018 2e-3 0.011v0.013l6e-3 5e-3 0.022 0.036-0.015 0.029-3e-3 3e-3 0.012 0.019 6e-3 4e-3 -6e-3 8e-3 0.012 3e-3 -6e-3 0.012h7e-3l0.031-6e-3 9e-3 -0.014v2e-3l6e-3 -5e-3v-0.012h2e-3l-2e-3 -9e-3 0.012-0.034 0.014-0.019m0.092-0.483 6e-3 3e-3 -6e-3 -3e-3m-0.042 0.111m-0.038 0.114v3e-3zm0-7e-3h-4e-3v5e-3zm-0.038-3e-3 -0.023-0.051v-2e-3 2e-3l-0.01 0.014v0.029h4e-3v0.011l0.019 7e-3 0.012-2e-3 -2e-3 -8e-3m-0.02-0.089v0.01l0.012-0.017 8e-3 -0.011-0.02 0.018m-0.096 0.419h-3e-3zm0.144-0.621 3e-3 5e-3v-5e-3zm-0.133 0.441v-3e-3zm0.09-0.311-1e-3 6e-3 1e-3 -6e-3m-0.14 0.429-3e-3 5e-3 -5e-3 0.012h8e-3zm0.072-0.241h2e-3zm-0.051 0.092-0.04-7e-3 -2e-3 7e-3 -0.03 1e-3 6e-3 6e-3 3e-3 0.011 9e-3 0.025v-6e-3l0.01-6e-3 0.017-6e-3 6e-3 6e-3 0.015-0.012 0.027-0.019zm0.033-0.188 0.012 0.018 0.011-7e-3 -3e-3 -0.011h-0.015zm0.086-0.182-8e-3 -0.023v-0.01h-0.024l-9e-3 4e-3 -0.012 3e-3v0.017l-3e-3 4e-3 3e-3 0.015 4e-3 7e-3 -4e-3 0.017-7e-3 5e-3 0.011 0.019-4e-3 0.017-0.015 0.026-0.015 3e-3h-7e-3l9e-3 0.01 0.013 0.012 0.019-5e-3 2e-3 -9e-3h-2e-3 2e-3l3e-3 -0.018v-0.023l9e-3 -0.012 8e-3 -1e-3 7e-3 -0.019 0.012-0.022 8e-3 -7e-3zm-0.014-0.046-4e-3 6e-3 0.01 7e-3 -6e-3 -0.013m-0.188 0.543 3e-3 -0.013h-0.01l7e-3 0.013m0 5e-3h3e-3zm-0.061 0.233v3e-3zm0.066-0.426h-2e-3v1e-3l2e-3 -1e-3m-0.037-6e-3 5e-3 2e-3v-2e-3h-5e-3m-0.061 0.199h8e-3zm0.132-0.452h-3e-3l3e-3 3e-3zm-0.078 0.233 5e-3 4e-3v-9e-3l-5e-3 5e-3m0-0.179-0.022 0.017 0.012 0.019 0.013-7e-3 0.017-0.029zm0.042-0.104-0.019-2e-3v-3e-3 3e-3 -3e-3 9e-3l9e-3 -4e-3 7e-3 4e-3zm0.033-0.281h-4e-3l-3e-3 4e-3v5e-3l0.01-5e-3 -3e-3 -4e-3m-0.274 0.879v3e-3h7e-3zm0 3e-3 -2e-3 3e-3zm-0.185 0.62h4e-3l-4e-3 -3e-3zm0.344-1.25-6e-3 -4e-3 -5e-3 4e-3h0.014zm0.202-0.709 5e-3 -4e-3 -5e-3 4e-3m-0.289 0.967h-2e-3v1e-3l7e-3 -1e-3zm-0.074 0.194v-0.012l-0.011-0.016-0.016-0.011-9e-3 4e-3 -9e-3 5e-3 -0.011 8e-3v0.012l8e-3 0.019 3e-3 6e-3 0.018-0.015 0.019-0.01v0.039l8e-3 3e-3 9e-3 -3e-3 -9e-3 -0.029m0.084-0.297-5e-3 7e-3h5e-3zm0.12-0.442 2e-3 -4e-3 -2e-3 4e-3m-0.195 0.594-0.031-0.032-5e-3 8e-3 9e-3 5e-3 -9e-3 5e-3 -6e-3 0.023-3e-3 4e-3 0.018 0.03 0.01 0.017 0.01-0.017v-0.011l7e-3 -0.013 9e-3 -0.014zm0.114-0.417v2e-3zm0.251-0.854-6e-3 7e-3 2e-3 3e-3 6e-3 -3e-3 -2e-3 -7e-3m-0.323 1.056v-4e-3 9e-3 -5e-3m0.033-0.164v5e-3zm-0.281 0.956v-1e-3l-3e-3 1e-3zm-0.054 0.216 2e-3 -9e-3h-2e-3l-3e-3 7e-3 3e-3 2e-3m-0.264 0.727 3e-3 -6e-3 -0.014-4e-3 -0.019-8e-3v8e-3l-8e-3 0.01 0.015 0.04 0.012 0.038 0.014 0.013v5e-3l7e-3 -5e-3 5e-3 0.014h0.027v-0.014l-2e-3 -0.023-9e-3 -0.018v-2e-3l-0.018-0.027-0.013-0.021m0.922-3.016h-3e-3zm0.057-0.201v4e-3zm0.021-0.114v3e-3h6e-3l-6e-3 -3e-3m-0.261 0.863 8e-3 3e-3v-3e-3h-8e-3m-0.204 0.68h-2e-3v3e-3h2e-3zm-0.118 0.396h2e-3v-5e-3l-2e-3 5e-3m0.062-0.211-0.014-2e-3v5e-3h0.014zm0.036-0.081v-0.01l-8e-3 0.01zm-0.085 0.249 6e-3 7e-3 -6e-3 -7e-3m0.067-0.216-9e-3 4e-3v5e-3l3e-3 2e-3 6e-3 -0.011m0.392-1.4 2e-3 2e-3v-4e-3zm0.095-0.245h-3e-3l-0.024-0.017-8e-3 -4e-3 -0.019 0.01-0.014 8e-3 -0.019 0.014-8e-3 4e-3 -0.024 0.022-2e-3 0.013v5e-3l0.015 6e-3 0.013 3e-3 3e-3 -3e-3 0.022-0.011 0.029-0.011-2e-3 -2e-3v-5e-3l0.014-0.014 7e-3 2e-3 0.017-0.014 3e-3 -6e-3m0.076-0.481v-3e-3h-0.031l6e-3 0.027v0.01l-8e-3 9e-3 -0.024 8e-3v9e-3h0.032v-0.018l3e-3 -8e-3 0.013-0.013 9e-3 -0.018zm-0.096 0.175 2e-3 5e-3 -9e-3 0.011 5e-3 7e-3 2e-3 2e-3h0.02l-0.012-0.012-6e-3 -8e-3v-0.01zm-0.12 0.362-6e-3 5e-3 -0.01 3e-3 -0.03-9e-3h-4e-3l-0.016-5e-3 -0.012-2e-3 -0.018-5e-3 -0.025-0.011-0.036-7e-3v-5e-3 9e-3l-0.011 0.014-0.02-4e-3 -0.013 0.022-5e-3 8e-3 -8e-3 0.038-5e-3 0.019 5e-3 -7e-3 0.01-0.019 0.022 5e-3 8e-3 7e-3 0.022-0.018-5e-3 0.025 0.026 0.025 0.026 0.032 0.019 8e-3 0.011 2e-3 9e-3 -2e-3h0.018l0.031-4e-3 -8e-3 -4e-3 -2e-3 -0.021 0.01-0.018 0.011-0.014 6e-3 -6e-3 -9e-3 -0.034 0.014-0.019-5e-3 -8e-3m0.069-0.357v4e-3zm0.03-0.108h-0.01l-3e-3 -7e-3 -0.011-5e-3 -0.018 5e-3 -0.012 5e-3 0.015 0.018v6e-3l-0.041 0.026-0.01 2e-3 6e-3 4e-3 0.03 0.012 0.012-0.012 0.018-0.012v-8e-3l-6e-3 -0.012 0.013-4e-3 0.013-2e-3 -9e-3 -8e-3 0.013-8e-3m-0.06 0.089v-2e-3h-5e-3l5e-3 2e-3m-0.108 0.326v5e-3zm-0.099-0.036 3e-3 9e-3h3e-3l-3e-3 -5e-3v-4e-3zm0.111-0.242v-0.011h-0.048l-7e-3 -0.014-0.011 7e-3 -5e-3 -3e-3 0.042 0.029h-0.037l9e-3 0.014v7e-3l6e-3 4e-3 3e-3 0.035-7e-3 0.015-0.013 0.013 0.013 0.018v6e-3l-0.033 0.03 7e-3 4e-3 -8e-3 0.015-4e-3 0.01v3e-3l0.025-0.023-6e-3 0.031 6e-3 4e-3 0.02-0.012 0.016-8e-3 5e-3 -1e-3 -0.012-0.03 0.016-3e-3 0.014-4e-3 0.045-0.01 9e-3 0.031 6e-3 -3e-3h0.015l-9e-3 -0.028v-8e-3l-2e-3 -0.016 2e-3 -8e-3 0.012-0.018 0.011-4e-3 -2e-3 -8e-3 -9e-3 -0.02 3e-3 -0.018-6e-3 7e-3 -0.055-0.033zm4e-3 -0.021h-7e-3zm-0.153 0.161-8e-3 -0.018-0.016-0.02-2e-3 -6e-3 -0.018 6e-3 -5e-3 2e-3 -0.013 8e-3 0.018 0.014 0.026 0.028h5e-3l-5e-3 3e-3 0.018 0.025 0.021-7e-3 -0.014-1e-3 6e-3 -0.01-0.013-0.024m-0.078 0.268-0.025-0.024 5e-3 0.014 2e-3 0.016 9e-3 9e-3 2e-3 -5e-3 7e-3 -0.01m-0.101 0.054 6e-3 -0.014 2e-3 -6e-3v-0.017l-0.012 6e-3 4e-3 6e-3 -6e-3 7e-3v0.048l-7e-3 0.019h-0.012l-4e-3 -5e-3 -2e-3 0.03-9e-3 0.016v8e-3l9e-3 0.019 8e-3 -2e-3h0.017l0.044 0.021 7e-3 7e-3h0.043l0.013-3e-3 0.016-4e-3v-7e-3l-0.023-0.035h4e-3l-6e-3 -2e-3 -0.011-0.043-7e-3 -0.03-0.018 0.011-0.016 0.01-2e-3 -0.014-0.024 6e-3 -0.014-0.032m-0.542 1.709 6e-3 6e-3 0.011 0.016h7e-3l-0.024-0.022m0.415-1.371v3e-3zm-0.45 1.475-3e-3 7e-3 3e-3 7e-3zm-0.109 0.34h-3e-3l5e-3 4e-3 -2e-3 -4e-3m0.109-0.353h-3e-3zm-0.074 0.363h3e-3l5e-3 4e-3 2e-3 -4e-3zm0.389-1.303h5e-3l-5e-3 -2e-3zm-0.05 0.171v5e-3h3e-3l-3e-3 -5e-3m3e-3 0-3e-3 -4e-3v4e-3zm-0.177 0.604v-4e-3zm-0.152 0.509-3e-3 5e-3 3e-3 4e-3zm-0.023 0.064 7e-3 5e-3v-5e-3l6e-3 -0.022v-7e-3h-6e-3l-0.025 0.011h-5e-3v4e-3l-2e-3 3e-3 0.025 0.011m-0.06 0.144v3e-3l6e-3 3e-3v0.012l5e-3 -1e-3 4e-3 -0.019-9e-3 -4e-3 -6e-3 -2e-3zm-0.093 0.389 3e-3 -3e-3 -9e-3 3e-3zm0.344-1.128h-2e-3l6e-3 4e-3zm6e-3 0v4e-3h2e-3l-2e-3 -4e-3v-2e-3h-6e-3v2e-3zm0.328-1.028-3e-3 3e-3 3e-3 4e-3v2e-3zm-0.121 0.407 1e-3 3e-3 -1e-3 -3e-3m-0.213 0.758h-2e-3zm-0.061 0.199v-2e-3zm0.034-0.037h7e-3l-5e-3 -6e-3zm0.149-0.466-0.013-5e-3 5e-3 0.022 0.011 1e-3 4e-3 -1e-3 -7e-3 -0.017m0.092-0.335h3e-3v-2e-3zm0.091-0.295h6e-3v-2e-3h-0.01zm-7e-3 0.152-3e-3 4e-3 3e-3 -4e-3m-0.073 0.317-0.012-0.023h-7e-3l8e-3 0.02 0.011 5e-3zm-0.465 1.128v0.027l-5e-3 5e-3 5e-3 2e-3 4e-3 0.016 2e-3 6e-3v0.021l-0.011 3e-3 0.011 7e-3 6e-3 0.012-8e-3 -3e-3 2e-3 0.02v0.012h-0.011v0.029l-6e-3 4e-3v4e-3h0.011l6e-3 5e-3 6e-3 -5e-3 9e-3 0.023 3e-3 -9e-3 0.019-9e-3 -4e-3 -4e-3 0.015-9e-3h8e-3l-8e-3 -0.01 0.024-5e-3 0.018-4e-3 0.01-8e-3v-2e-3l0.024-0.024v-8e-3l-7e-3 -0.019-6e-3 -0.015-0.011-0.028 8e-3 -2e-3 -8e-3 -0.032v-0.05l-8e-3 -5e-3 -2e-3 -8e-3 -9e-3 -0.011-9e-3 7e-3 3e-3 4e-3 5e-3 0.02 6e-3 -6e-3v0.026l-0.025 0.011-8e-3 -0.014h-0.01v0.014l0.023 0.026-0.034-0.012-0.043-0.025v0.014l5e-3 9e-3m-5e-3 0.128v-5e-3 7e-3zm-0.091 0.318h-3e-3zm0.183-0.267h-6e-3zm-0.075 0.23v-1e-3h-4e-3l-2e-3 1e-3 -0.027 0.018 7e-3 4e-3 0.026-8e-3zm-0.026 0.117-7e-3 -9e-3 -3e-3 0.011h6e-3 -3e-3l0.01 4e-3v-4e-3h-7e-3zm0.852-2.803 7e-3 -6e-3h-0.011v6e-3zm-0.249 0.818-2e-3 7e-3 2e-3 -5e-3zm-0.16 0.564v3e-3h3e-3v-5e-3h-3e-3zm0.017-0.046v-8e-3l-0.01 2e-3 0.01 6e-3m0.439-1.482-9e-3 -0.015v-0.012l0.013-0.016-0.013-4e-3 -2e-3 0.013-7e-3 0.015-4e-3 0.015-5e-3 8e-3 0.013 6e-3h0.014zm-0.03 0.139h3e-3 -5e-3 2e-3m-0.39 1.28-8e-3 -5e-3 8e-3 8e-3h6e-3zm-0.578 1.701 0.012 0.017 0.014-0.017h0.01l8e-3 2e-3 0.01-6e-3 5e-3 -6e-3v-4e-3l0.024-2e-3 9e-3 -6e-3h3e-3l-0.018-0.019-0.021 8e-3 7e-3 0.014-0.015-0.01-0.045 7e-3 -0.021 3e-3 0.018 0.019m5e-3 0.061 4e-3 -5e-3 -4e-3 2e-3zm0.643-1.934h-1e-3zm-0.154 0.518v-3e-3zm0.44-1.447-4e-3 -2e-3v2e-3zm-0.201 0.692v-5e-3 5e-3m-0.693 2.288 8e-3 5e-3 6e-3 4e-3h9e-3l0.039 0.023 6e-3 -0.01 0.011 0.01 0.063 9e-3 -2e-3 3e-3 5e-3 -0.012 0.026-0.013-6e-3 -0.033 6e-3 -0.017 8e-3 -6e-3v-0.011l0.017-0.012-6e-3 -0.014h-3e-3l-0.016 0.019-0.044-0.041-0.016-0.021 0.011-8e-3 0.01-7e-3 -3e-3 -5e-3 -7e-3 -0.015-0.011-0.024-0.012-2e-3 -8e-3 7e-3 -0.01-0.011-4e-3 -6e-3 2e-3 0.027v5e-3l-2e-3 5e-3 8e-3 0.041-4e-3 6e-3 -0.019 0.013v0.043l-0.01 0.017-0.011 2e-3 -7e-3 2e-3 -0.011 9e-3 0.026 0.023-0.037-5e-3 -0.012-2e-3zm0.127 0.126h-5e-3v3e-3l5e-3 -3e-3m-0.039 0.079h-7e-3l0.01 0.012 0.02 0.016 0.024 0.013-6e-3 -0.019h6e-3l-3e-3 -4e-3 -5e-3 -0.025v-0.015l-5e-3 -0.017-6e-3 -0.016-0.025-5e-3 -6e-3 -4e-3h-6e-3l0.032 0.05-0.023 0.014m-9e-3 0.138v-9e-3l2e-3 -5e-3 -2e-3 -3e-3v5e-3h-0.011l0.011 0.012m0.025-0.586v5e-3l7e-3 -5e-3v-2e-3l-7e-3 2e-3m0.69-2.34h-9e-3zm-0.042 0.145v-4e-3zm-0.03 0.078v7e-3h2e-3l-2e-3 -7e-3m-0.295 1.028-5e-3 4e-3h5e-3zm0.394-1.299v-4e-3zm-0.277 0.919h-4e-3l4e-3 0.01 1e-3 -0.01zm0.363-0.851 4e-3 4e-3h7e-3l-0.011-4e-3m-0.104 0.365-4e-3 -6e-3 4e-3 6e-3m-0.056 0.175v2e-3zm0.042-0.128v-4e-3h-4e-3zm-0.526 1.619 0.016 0.013 7e-3 -2e-3 -0.023-0.011m0.12-0.369v-4e-3l-2e-3 4e-3h2e-3m-0.038 0.125h4e-3v-3e-3zm0.01-0.14v5e-3l7e-3 2e-3h2e-3v-2e-3l-9e-3 -5e-3m0.107-0.366v2e-3zm-0.098 0.292v2e-3 -4e-3zm0.388-1.294v-4e-3zm0.259-0.875v-7e-3l-0.022-5e-3 0.022 0.012m-0.389 1.237h2e-3v-3e-3l-2e-3 3e-3m2e-3 -5e-3h-2e-3v2e-3zm-0.097 0.399-8e-3 9e-3 7e-3 5e-3 0.018-0.014-6e-3 -5e-3 -0.011 5e-3m0.043-0.039-4e-3 0.01 4e-3 -0.01m0.436-1.463v-3e-3l-3e-3 3e-3zm-0.313 1.04v8e-3l6e-3 -3e-3 -6e-3 -5e-3m0.306-0.971-5e-3 -8e-3v6e-3l5e-3 2e-3m-0.01 0.022 5e-3 2e-3zm0.01 5e-3v-3e-3zm-0.472 1.629v-0.013 0.013m-0.035 0.078-0.028-0.046-0.01 0.056-4e-3 0.01-2e-3 0.015 0.042-0.035 5e-3 0.01 0.01 0.01 4e-3 -0.01-4e-3 -6e-3zm0.409-1.28h-1e-3zm-0.341 1.172-1e-3 3e-3h-3e-3l4e-3 -3e-3m-0.052 0.178v4e-3zm0.333-1.1v-4e-3zm0.07-0.21h-4e-3zm-0.44 1.47-4e-3 5e-3 4e-3 2e-3zm0.631-2.072h-9e-3 9e-3m6e-3 0.043-6e-3 -4e-3 6e-3 4e-3m0.083-0.276v-2e-3zm-0.441 1.478v2e-3l2e-3 4e-3 -2e-3 -6e-3m-0.35 1.274-7e-3 3e-3h9e-3l-2e-3 -3e-3m0.062-0.209v-3e-3zm0.237-0.81 4e-3 -4e-3v-0.012l-0.01 6e-3v5e-3l6e-3 5e-3m0.129-0.457 3e-3 -0.011-3e-3 -2e-3h-7e-3l2e-3 0.016 5e-3 -3e-3m0.228-0.749v-5e-3 5e-3m-0.298 0.986-6e-3 0.027 0.025-0.025-0.019-2e-3m-0.465 1.57-0.017-0.011 0.01-8e-3 0.025-0.023v-0.018l-5e-3 -0.014 5e-3 -0.024 0.016-8e-3 -0.016-0.015-7e-3 -7e-3 -0.025-0.024-0.011-3e-3h-0.018l-0.034 9e-3h-0.018l-0.019 7e-3v9e-3l-0.014-0.012-6e-3 -4e-3 -0.024-0.014v-0.014l5e-3 -7e-3 2e-3 -0.012 3e-3 5e-3v-0.018l6e-3 -4e-3 0.02-0.015v-2e-3l6e-3 -6e-3 -0.017-8e-3h-0.012l-3e-3 8e-3v0.013l-0.013 0.046-0.01 0.035v0.018l-4e-3 0.028 0.017 7e-3 5e-3 2e-3 2e-3 4e-3 -2e-3 0.015-5e-3 4e-3 5e-3 1e-3h0.011l0.02 0.017 0.023 1e-3 0.022 0.01 0.018-6e-3 -2e-3 0.012 7e-3 2e-3 2e-3 5e-3h3e-3l0.03 0.014 0.012 0.011 7e-3 -6e-3m-0.017 0.128h-2e-3v4e-3zm-0.073 0.252-5e-3 -6e-3v0.022l0.027-0.018-3e-3 -4e-3 -0.014-0.01-0.01 2e-3 5e-3 0.012zm-0.024 0.17-0.014 0.021v9e-3h6e-3l0.019 9e-3v-0.056l0.013-0.012-0.032-0.018-2e-3 0.01 0.018 0.019v0.013l-8e-3 5e-3m-0.034 0.166v-4e-3l-3e-3 4e-3zm0.357-1.016 6e-3 -2e-3h-6e-3zm0.977-3.465v0.017h4e-3l2e-3 -5e-3v-0.018l2e-3 -0.01 7e-3 -5e-3h3e-3l5e-3 -5e-3 0.012-0.018-0.031-0.012-4e-3 4e-3 -0.011 0.01 0.011 0.042m0.125-0.192 4e-3 -0.011v4e-3l-4e-3 7e-3m-1.273 2.187-4e-3 -1e-3v5e-3l-3e-3 3e-3h3e-3l0.01 0.019-6e-3 -0.026m0.111-0.321v-6e-3zm0.301-1.026h-8e-3l8e-3 9e-3zm-0.021 0.019-2e-3 0.011 0.012 4e-3zm-0.114 0.344v0.016l3e-3 -6e-3h0.013v-0.012l-6e-3 -8e-3 -0.01 0.01m-0.141 0.492-3e-3 2e-3 3e-3 -2e-3m-0.226 0.802h-2e-3zm-0.173 0.535 0.017-0.013-8e-3 4e-3v-4e-3l-9e-3 4e-3zm-0.025 0.067 6e-3 -3e-3zm0.76-2.551v4e-3zm-0.741 2.374-7e-3 0.012-0.014 4e-3h2e-3l-6e-3 6e-3 -0.012 0.015 0.018 4e-3 0.025 6e-3 -6e-3 -0.047m-0.01-0.028-3e-3 -4e-3 3e-3 0.013 7e-3 5e-3 3e-3 0.013 0.015-0.018-0.025-9e-3m0.162-0.468h-0.016v-6e-3l-0.023-6e-3 -6e-3 -0.018-4e-3 4e-3v0.019h4e-3v0.014l0.01 0.012h0.029l2e-3 -6e-3 4e-3 -6e-3zm0.257-0.94h-7e-3v4e-3l7e-3 -4e-3m-0.174 0.46h-4e-3l4e-3 7e-3zm0.132-0.442v-4e-3h-7e-3l7e-3 4e-3m-0.078 0.244-6e-3 -2e-3 6e-3 2e-3m-0.283 1.075v2e-3zm0.026-0.067-0.015-0.015-6e-3 6e-3h-5e-3v0.016l5e-3 0.012 6e-3 -7e-3 -2e-3 -0.01 0.017-2e-3m-0.147 0.372 0.016 3e-3 0.011-0.011 7e-3 -6e-3 -7e-3 -0.018-0.017 0.014-5e-3 -9e-3 -5e-3 0.011-5e-3 8e-3 5e-3 8e-3m0.102-0.397h-6e-3zm0.116-0.421v-0.018l4e-3 -0.021 0.01-0.016-8e-3 -0.013-0.017 4e-3 -9e-3 -4e-3v-0.012h-0.048l-3e-3 5e-3 -0.021 0.011 4e-3 3e-3v2e-3l-0.018 0.016-7e-3 4e-3h-3e-3l0.01 0.019 3e-3 0.018v6e-3l-3e-3 8e-3 3e-3 7e-3 6e-3 0.022v7e-3l5e-3 -7e-3h0.038l5e-3 3e-3 0.011 4e-3 0.015 2e-3 3e-3 -2e-3 6e-3 -6e-3 -9e-3 -0.018 0.012 2e-3 0.011-7e-3 -0.017-7e-3zm0.201-0.717 7e-3 1e-3 -7e-3 -1e-3m0.017-0.016h-2e-3v9e-3l2e-3 -9e-3m0.125-0.657v3e-3l1e-3 -3e-3zm-0.229 0.763m0.045-0.215 7e-3 2e-3 -7e-3 -2e-3m0.01-0.033h3e-3zm-0.169 0.554 4e-3 -5e-3 -4e-3 -4e-3zm-0.033 0.068h3e-3v-4e-3l-3e-3 4e-3m0.335-1.112h4e-3zm-0.045 0.079 5e-3 4e-3 -5e-3 -4e-3m-0.441 1.413-7e-3 2e-3h-0.017v0.025l-5e-3 0.019-0.01 0.018-0.022 5e-3v4e-3h4e-3l0.033 0.024 8e-3 0.01v8e-3l-0.018 0.032-0.023-0.013-0.01 2e-3 -0.011 2e-3 -3e-3 -2e-3v7e-3l-0.013 0.017-0.016-6e-3 -6e-3 0.011h0.012l0.023 0.017 0.018-8e-3 0.017-9e-3 0.019 0.017 3e-3 7e-3 0.039 0.022h4e-3l0.023-0.027 0.011-0.012v-6e-3l-0.011-0.012h0.014l4e-3 -0.018 0.011-0.019h0.01l-3e-3 -8e-3 3e-3 -0.017v-0.01l-0.028 0.017-0.048-0.03-5e-3 -5e-3 9e-3 -0.014 3e-3 -4e-3 0.015-0.019v-0.014l-0.022-5e-3 -5e-3 -8e-3m0.123-0.43 7e-3 1e-3zm0.306-1.011h2e-3zm-8e-3 0h3e-3 -3e-3m-0.161 0.477-9e-3 -0.021-0.01-0.017-8e-3 -0.016-0.011 9e-3 5e-3 7e-3 0.033 0.047zm0.181-0.605v2e-3zm-0.154 0.471v2e-3h2e-3l-2e-3 -2e-3m0.063-0.317v2e-3zm-0.186 0.77v-0.015l-5e-3 0.015zm-0.016 0.016 6e-3 -0.016-6e-3 6e-3 -7e-3 8e-3v-8e-3l-4e-3 8e-3 -6e-3 6e-3 0.015 2e-3 5e-3 -2e-3 -3e-3 -4e-3m-0.067 0.17 6e-3 6e-3v-0.041h-9e-3l3e-3 0.035m-0.267 0.769-0.02 4e-3 -0.019-0.01-0.025 0.01-0.031-0.01-0.017-0.043 0.013-0.01v-4e-3l-2e-3 -4e-3h2e-3v-4e-3l0.01-0.028 7e-3 -0.018v-9e-3l-0.052-0.046-6e-3 -2e-3 -4e-3 -2e-3v2e-3l-9e-3 2e-3 -0.02 0.019 0.042 0.046-3e-3 0.026-0.015 0.024-0.032-2e-3 -0.013-8e-3 0.013-0.014-0.019-0.023-0.011-0.022-0.022-0.012-3e-3 -6e-3v4e-3l-3e-3 4e-3 3e-3 0.023 8e-3 0.014-0.016 3e-3 5e-3 0.018h3e-3l8e-3 0.011 0.025-4e-3 0.011 0.017 0.019 0.022-0.011 5e-3v0.014l-5e-3 0.016-5e-3 8e-3 2e-3 5e-3 -2e-3 5e-3 -0.017 0.05v0.053l8e-3 5e-3 0.03 0.037h7e-3l7e-3 8e-3 0.025-0.013 0.021 7e-3 -0.031-0.055-2e-3 -5e-3 -0.046-0.043v-0.042l3e-3 -0.014 0.014-0.025 0.035-0.011v0.012l3e-3 0.015 0.015 0.021v9e-3l-0.012 3e-3 0.018 0.026v-2e-3l0.023-7e-3 0.048-3e-3v3e-3l0.025 3e-3 5e-3 4e-3 6e-3 8e-3 5e-3 0.014v0.034l0.013-2e-3 0.054-3e-3v3e-3l4e-3 -3e-3v-0.014l3e-3 -0.01 2e-3 -8e-3 4e-3 3e-3 6e-3 -3e-3 -6e-3 -0.011v-8e-3l0.011-0.015-0.011-0.012-0.041-0.011-0.026-0.015-9e-3 -4e-3m0.031-0.094v4e-3l8e-3 -6e-3 -8e-3 2e-3m0.353-1.191v-4e-3zm-0.154 0.51-2e-3 -2e-3 -4e-3 2e-3 6e-3 3e-3zm0.056-0.212-4e-3 4e-3 4e-3 1e-3zm4e-3 -0.021v2e-3zm-0.203 0.639-0.015 0.011 0.015 2e-3v-2e-3h0.012l3e-3 2e-3 -3e-3 -2e-3 -0.012-0.011m0.083-0.289v6e-3l4e-3 -6e-3zm-0.011 0.028-2e-3 2e-3 -0.01 6e-3 0.012-6e-3zm-0.076 0.115-1e-3 3e-3 1e-3 -3e-3m-0.041 0.194 6e-3 0.013h3e-3l0.019-0.02-0.048-0.013 6e-3 0.013 0.014 7e-3m-0.011 0v7e-3zm-3e-3 0.091-0.013-7e-3 -3e-3 -4e-3 3e-3 9e-3v0.023l5e-3 -9e-3 8e-3 -0.012m-0.061 0.149v3e-3zm0.018-0.038 6e-3 -7e-3 9e-3 -0.01-4e-3 -2e-3 4e-3 -7e-3v-5e-3h-4e-3l9e-3 -0.017 0.015-0.013-8e-3 -0.015-7e-3 0.015v-6e-3l-9e-3 0.014-7e-3 -2e-3 -6e-3 0.029h-0.01v1e-3l0.012 0.025m0.297-0.955-4e-3 -0.03v-2e-3l4e-3 -0.028h-0.036l0.032 0.013-5e-3 0.011-0.013 0.022-0.012 0.017 6e-3 9e-3v3e-3l0.013 3e-3 6e-3 -6e-3 0.011-6e-3zm0.181-0.67-0.024 2e-3 5e-3 5e-3 0.019 4e-3zm-0.173 0.477v6e-3l0.019-4e-3 -0.019-2e-3m-0.307 0.965h-3e-3zm0.182-0.62-3e-3 -2e-3v7e-3l3e-3 2e-3zm-0.17 0.472 1e-3 3e-3 -1e-3 -3e-3m0.301-1.084v2e-3l3e-3 -2e-3zm-0.229 0.557v5e-3 -2e-3zm0.09-0.312h5e-3l-0.01-7e-3v0.011zm0.119-0.207-0.022 0.021-6e-3 -0.021-6e-3 -2e-3 -0.037 9e-3 -0.026-9e-3 0.016 0.05-4e-3 0.023-5e-3 9e-3 9e-3 0.012 0.01 0.016h0.019l-3e-3 -2e-3 0.014-9e-3 4e-3 -9e-3 7e-3 -0.016 2e-3 -0.019 9e-3 -0.017 0.016-2e-3 3e-3 -0.034m-0.153 0.195v-7e-3h-4e-3l4e-3 7e-3m-0.254 0.825h-3e-3v3e-3l3e-3 -3e-3m-0.042 0.08 0.014 9e-3v4e-3l0.025-0.012h5e-3l-0.015-1e-3 -2e-3 3e-3 -0.027-3e-3m-0.016 0.088h5e-3v-2e-3l-5e-3 -0.011zm-0.065 0.241v-4e-3l-2e-3 4e-3zm0.025 0.352h1e-3zm0.083-0.054 2e-3 -9e-3 -5e-3 4e-3 3e-3 5e-3m-0.018 0.041v4e-3h5e-3 -5e-3l5e-3 -5e-3 6e-3 -4e-3 -6e-3 -7e-3 -5e-3 0.012m0.078-0.102-0.013-4e-3v2e-3l0.013 2e-3m-0.067 0.258v-3e-3zm0.149-0.184 4e-3 -5e-3 3e-3 -0.015-3e-3 2e-3 -9e-3 5e-3 5e-3 0.013m0.08-0.022 0.013-0.01 0.019-8e-3 -6e-3 -7e-3 -0.01-0.017h-5e-3l-0.011 7e-3 -9e-3 4e-3v2e-3l-4e-3 9e-3h-5e-3l0.018 0.02m-0.032 0.242 9e-3 0.016h-0.025v0.011l3e-3 0.013v-5e-3l0.02-0.019h7e-3v-6e-3l0.014-0.026h4e-3v-3e-3l-0.032-0.024-5e-3 -4e-3 -0.017-0.016 0.022 0.063m-0.041 0.163 6e-3 4e-3 -9e-3 -8e-3h-0.011l0.014 4e-3m0.174-0.64-9e-3 4e-3h-0.016l0.018 0.02 0.035 0.034v-3e-3l8e-3 -2e-3 -8e-3 -0.029-0.028-0.024m0.014-7e-3 0.014 0.02-0.01-0.027-4e-3 7e-3m0.022 0.104-0.012-0.031v-8e-3l-0.019 5e-3 -0.02 0.015 3e-3 4e-3h3e-3l0.014 0.019 0.031-4e-3m0.537-2.014v-7e-3l-7e-3 3e-3 7e-3 4e-3m-0.697 0.742 5e-3 -0.03-0.043-0.029-0.01-0.014h-9e-3l-0.016-6e-3v2e-3l-9e-3 0.022 0.014 0.01 4e-3 -1e-3 0.02 0.023 6e-3 0.019h-0.01l0.015 9e-3 2e-3 0.01h6e-3l0.023 6e-3 2e-3 -0.021m0.087-0.484 3e-3 4e-3 -3e-3 -4e-3m-0.315 0.924v0.012-0.012l9e-3 -0.021v-3e-3l-0.018 9e-3 9e-3 0.015m-0.123 0.318-0.016-0.027-9e-3 -4e-3 9e-3 -0.022 5e-3 3e-3v-0.012l0.021-6e-3 8e-3 2e-3v0.016l2e-3 -0.013h6e-3l-3e-3 -0.014 3e-3 -0.019v2e-3 -2e-3h-3e-3l-5e-3 2e-3 -0.012 9e-3 -0.014 0.014-0.017-4e-3h-9e-3l4e-3 -0.012 0.012-0.043 0.01 0.013 4e-3 -4e-3 -7e-3 -5e-3 -5e-3 -0.028-0.041-0.044-0.031-0.019-9e-3 7e-3 -0.013 0.012h-7e-3l2e-3 2e-3 0.031 0.018 5e-3 0.031-0.025 0.017h0.01l-3e-3 0.013-2e-3 0.018-9e-3 0.014h-7e-3l-0.02 0.019 2e-3 8e-3h0.01l-5e-3 5e-3 0.013 7e-3 -0.02 0.011h0.036l0.029 0.047 0.015 0.029-5e-3 2e-3 3e-3 4e-3v9e-3l-0.019 0.016-5e-3 2e-3 2e-3 5e-3h9e-3l0.018 4e-3 0.01-9e-3v-4e-3l5e-3 -5e-3 0.019-6e-3v-3e-3l9e-3 -5e-3 -0.016-0.017 0.025-4e-3 6e-3 -4e-3 -6e-3 -0.026m0.194-0.691h-4e-3v4e-3l4e-3 -4e-3m-0.168 0.421 3e-3 6e-3 -3e-3 -6e-3m0.061-0.222h1e-3zm0.022-0.096h5e-3zm5e-3 -2e-3v2e-3h9e-3v-7e-3l-9e-3 5e-3m0.058-0.227-3e-3 4e-3v5e-3l3e-3 -9e-3m-0.128 0.383-7e-3 5e-3 -0.017 7e-3 6e-3 7e-3h0.028l-8e-3 -3e-3 -2e-3 -0.016m0.227-0.776v4e-3h0.01l-0.01-4e-3m0.042-0.125-6e-3 -2e-3v2e-3l3e-3 4e-3h3e-3zm-0.267 0.887 9e-3 -2e-3 -1e-3 -1e-3 -0.012 8e-3 2e-3 9e-3v-9e-3zm0.223-0.785h-4e-3v4e-3h4e-3zm-0.087 0.266-6e-3 -2e-3 -4e-3 2e-3 -8e-3 9e-3 0.012 7e-3 9e-3 -0.012-3e-3 -4e-3m-0.108 0.26v-0.011l-0.012-0.017 3e-3 -0.023-0.01-0.018-0.018-9e-3 -0.011-3e-3 3e-3 0.016 0.015 3e-3 0.01 0.029-8e-3 5e-3 -2e-3 4e-3v7e-3h-2e-3l-0.013 0.012 0.015 4e-3 0.034 9e-3zm0.021-0.224-0.014-7e-3 6e-3 -0.011v-0.025l-0.022-0.017-0.039-0.039 0.011-2e-3v-0.027l7e-3 -0.019-7e-3 3e-3 -0.019-5e-3 2e-3 0.035-2e-3 0.013-0.012 0.019 0.012 0.014-0.018 4e-3h-8e-3v1e-3l-0.029 6e-3 7e-3 0.012v0.025h-7e-3l0.012 0.013-0.016 5e-3 -0.014 5e-3 0.013 0.014 1e-3 7e-3h4e-3 -4e-3l-1e-3 -9e-3 8e-3 -3e-3h0.026l8e-3 -2e-3 0.026 0.014 0.011 9e-3 7e-3 3e-3 0.025 0.013 1e-3 -0.01-8e-3 -0.015 0.019-2e-3h7e-3l-0.01-0.012zm0.063-0.358h-4e-3v3e-3l4e-3 -3e-3m0.047-0.177v2e-3l7e-3 -2e-3h-7e-3m-0.069 0.171 3e-3 6e-3 -3e-3 -6e-3m-4e-3 -0.077v7e-3zm-0.034-6e-3h-3e-3l-5e-3 6e-3 8e-3 -6e-3m-0.011 0.021v2e-3zm-0.139 0.522-3e-3 -9e-3 -2e-3 3e-3v4e-3l5e-3 2e-3m0-6e-3v6e-3l4e-3 -6e-3zm0.018-0.025 6e-3 7e-3 -9e-3 -0.023 3e-3 0.016m-0.083 0.104 2e-3 4e-3 7e-3 0.032-7e-3 0.014-5e-3 0.03h-6e-3v8e-3h0.02l0.042-2e-3 -0.02-0.032h0.018-4e-3l4e-3 -0.015 9e-3 -0.012-0.022-0.023-0.015 4e-3 -0.012-4e-3 -0.011-4e-3m0.099-0.376v-4e-3h-0.019l-0.018 7e-3 -0.039 0.012-5e-3 -0.01h-0.011l6e-3 0.017 7e-3 9e-3v9e-3l0.037-0.016 0.049-0.014-7e-3 -0.01m-0.012-0.054v4e-3zm-0.115 0.172 0.01 0.01 9e-3 0.032-2e-3 2e-3 -5e-3 7e-3 -2e-3 9e-3 -0.019 0.02v-2e-3 0.014l-2e-3 7e-3 9e-3 5e-3 0.012-3e-3v-0.039l9e-3 -9e-3 6e-3 -7e-3 3e-3 -0.031v-7e-3l2e-3 -0.013-0.018-5e-3h-2e-3v-2e-3l-7e-3 5e-3zm0.129-0.427-2e-3 -0.011v4e-3l-7e-3 0.015 9e-3 -8e-3m-0.11 0.526h3e-3l-3e-3 -7e-3 -2e-3 5e-3zm-0.488 0.871 3e-3 0.019 0.012-0.019h-0.012zm0.3 0.067 2e-3 2e-3v-2e-3zm-0.108-0.268v5e-3zm0.08-0.199 7e-3 0.021v4e-3l-0.022 0.015h-4e-3v0.023l-0.011 9e-3 -2e-3 4e-3 0.013 0.041v5e-3l-0.017 0.014v0.022l-1e-3 3e-3 -0.041 2e-3h-0.011l0.022 0.027h0.013v2e-3h0.017l0.013 0.05-6e-3 0.01h-7e-3l5e-3 8e-3v4e-3l-0.017 0.012-6e-3 3e-3v-0.01l-0.028-0.023-0.031-0.024-3e-3 0.013 7e-3 0.011 6e-3 0.037v3e-3l0.015 8e-3 0.011 0.025 0.011 5e-3 -1e-3 -0.016 0.017 2e-3 0.04 0.01-0.013 0.013 9e-3 6e-3v3e-3l-3e-3 4e-3 -6e-3 0.01 5e-3 5e-3 8e-3 4e-3h-8e-3v0.039l0.052 0.029 0.01 0.017 2e-3 0.026-8e-3 0.017-7e-3 -8e-3 3e-3 0.016-0.02-8e-3 -6e-3 -2e-3v0.01h-0.062l-0.028-0.01-9e-3 -0.072-0.015-8e-3 -7e-3 -0.019-3e-3 -4e-3 3e-3 -0.013-3e-3 -7e-3 -0.017-0.039v-0.01h6e-3l0.013-9e-3 -7e-3 -0.021h5e-3l-8e-3 -1e-3 -0.023 0.027 4e-3 -0.032h-0.014l-0.027-0.014v-0.027l5e-3 -0.014 8e-3 -0.014v-0.022l6e-3 -0.01v-0.01h-6e-3l-5e-3 -0.014-0.025 3e-3h-0.012l-7e-3 2e-3v0.01l0.019 0.067 6e-3 0.03-0.016-6e-3 4e-3 8e-3 6e-3 0.011 6e-3 0.08-0.012 0.029 0.023 0.033v8e-3l-0.027 0.014h-9e-3l0.013 3e-3 0.031 0.059v2e-3l-8e-3 0.022v-9e-3l-0.027 0.015 4e-3 3e-3v5e-3l-0.013 0.023 0.019 0.037-0.025-0.01-6e-3 -2e-3v0.017l2e-3 2e-3 -2e-3 2e-3 2e-3 5e-3 -2e-3 5e-3 -6e-3 0.013-5e-3 -7e-3 -9e-3 0.011h-0.019l-0.021-0.023 2e-3 0.014v0.051l-0.022-0.023-9e-3 -0.012 0.024-0.038-6e-3 -0.034v-8e-3l-0.018-0.011 0.015-0.012 0.012-5e-3 -0.012-0.015 3e-3 -7e-3 0.011-0.019 0.017-8e-3 -0.015-9e-3v-0.019l4e-3 -3e-3 0.011-7e-3 -0.017-0.014 0.021-8e-3h-9e-3l-0.055-0.054-0.013-0.016h-3e-3l-0.04 0.01 0.025-0.034-6e-3 -6e-3h-3e-3l5e-3 -0.025h-0.011l-0.018 0.011h-5e-3l3e-3 5e-3 -7e-3 5e-3h-0.026l-1e-3 0.01 1e-3 7e-3 0.01 0.01 0.03 0.026v0.015l-0.021 0.026-2e-3 0.01 2e-3 0.017-2e-3 0.012-7e-3 0.018h0.013l7e-3 -4e-3 0.029-7e-3v0.015l3e-3 1e-3 2e-3 0.018-2e-3 3e-3 -0.013 0.014h-9e-3v4e-3l0.016 0.023 0.021 0.041-7e-3 9e-3h-8e-3l-3e-3 -2e-3 -0.012 2e-3v5e-3l0.015 0.028-3e-3 0.039v2e-3l-6e-3 0.014-0.027 0.015-9e-3 -8e-3 -7e-3 -7e-3 -3e-3 -0.011h3e-3l-3e-3 -5e-3 -8e-3 8e-3 -0.017 8e-3 -0.032 0.021 9e-3 0.024 0.01 6e-3 0.02 0.081v0.031h0.01l6e-3 -3e-3 0.033 0.019v-0.016h0.021-3e-3 3e-3l9e-3 -0.017 0.015-0.029-0.024-0.048 0.036 0.022 0.042 5e-3 -6e-3 -0.027 0.017 9e-3 0.018 0.01v0.011l7e-3 -0.011v3e-3l5e-3 5e-3v-5e-3l-2e-3 -9e-3 -6e-3 -6e-3h3e-3v-2e-3l9e-3 -7e-3 0.022-0.022 0.035-0.024v-0.012l-0.037-0.025 0.037 2e-3v-4e-3l0.011-0.015 0.068 0.019 2e-3 -4e-3v-5e-3l-0.017-4e-3 -0.012-8e-3 0.01-0.012 0.048-0.031 0.013 0.023v4e-3l-7e-3 9e-3 0.012 7e-3 8e-3 6e-3 5e-3 2e-3v-2e-3l-0.012-0.03 0.013 4e-3v-4e-3l0.035-0.031 0.019 0.037-2e-3 0.011-9e-3 7e-3 -0.019 0.037 0.019 0.019 0.014-0.012v-2e-3h4e-3l-4e-3 -5e-3 0.018-3e-3 4e-3 1e-3 5e-3 2e-3 3e-3 -0.013-8e-3 -0.048-4e-3 -6e-3v-0.013l0.058-0.048h0.018l-9e-3 -7e-3 0.013-0.01v-3e-3l7e-3 -0.012-0.011-7e-3 -0.018-0.053v-0.026l-0.017-8e-3h0.017l-0.019-0.079-6e-3 -0.01 0.012-0.011 3e-3 -4e-3h3e-3l-0.01 4e-3 -0.012-6e-3 -5e-3 -8e-3v-9e-3l-0.032-0.034 0.024 7e-3 -7e-3 -0.029v-0.032 4e-3 -0.019l-2e-3 -0.012-7e-3 -0.037v-4e-3l0.024-0.018-2e-3 -0.019 2e-3 -4e-3 -5e-3 -0.041v-5e-3l0.01-0.027-0.022-0.019-0.025-0.021zm3e-3 -0.073v4e-3l4e-3 -2e-3zm-0.139 0.253v6e-3zm0.026-0.113-5e-3 9e-3 -0.01 0.014-0.019 9e-3v4e-3l0.022 0.014h5e-3v-0.024h0.01l-3e-3 -0.026m-0.285 0.236-2e-3 3e-3 2e-3 2e-3zm-2e-3 -3e-3h-3e-3v3e-3zm-8e-3 -0.011-7e-3 -0.017-6e-3 0.016 6e-3 8e-3v4e-3h3e-3l7e-3 -6e-3 -3e-3 -5e-3m-0.169 0.524v-4e-3zm-0.054 0.21 6e-3 4e-3 -6e-3 -8e-3zm0.149-0.093 7e-3 -3e-3h-7e-3zm0.051 0.043h-2e-3l2e-3 1e-3zm0.042-0.072v-0.01l0.01-0.011-0.019-3e-3v3e-3l-7e-3 0.011 0.016 0.01m-0.026 0.117 0.015 0.02 0.024-7e-3 0.012-4e-3 3e-3 -4e-3 9e-3 -0.017-3e-3 3e-3v5e-3l-0.024-0.028-0.012-0.013-9e-3 -0.014-0.012 9e-3h-3e-3l3e-3 2e-3v7e-3l-0.021 9e-3 0.018 0.032m-0.023 0.036 5e-3 1e-3 -5e-3 -5e-3zm0.113-0.134 2e-3 -2e-3 0.022-8e-3 0.017-0.014-0.041-7e-3 -4e-3 7e-3 4e-3 0.024m0.057-0.06 3e-3 -5e-3 -7e-3 -2e-3 4e-3 7e-3m0.069-0.089-6e-3 -4e-3 6e-3 4e-3m-0.025 0.188 9e-3 -1e-3 -9e-3 -9e-3v-4e-3zm0.072-0.01 1e-3 -4e-3 -4e-3 -3e-3 3e-3 7e-3m0.113-0.272v-3e-3h-1e-3l1e-3 3e-3m-0.019 0.082h1e-3l0.017-7e-3 -0.012-0.022h-5e-3l-1e-3 0.012v0.012zm-0.025 0.19v-7e-3zm0 0.019h2e-3l-2e-3 -9e-3zm0.338-0.991v8e-3l0.018-2e-3 -4e-3 -6e-3 -3e-3 -0.012-3e-3 5e-3 -8e-3 7e-3m0.042-0.147-4e-3 -2e-3v9e-3l4e-3 -7e-3m-6e-3 0.041v-4e-3l-4e-3 -7e-3 -5e-3 0.014 2e-3 7e-3 3e-3 -7e-3v-2e-3l4e-3 -1e-3m-4e-3 0.169h-3e-3zm-8e-3 0.077v-6e-3h-0.01zm-0.034 0.037 0.024-5e-3 -3e-3 -0.023 3e-3 -0.015h-6e-3l6e-3 -6e-3 -0.027-0.017-9e-3 -9e-3 -4e-3 9e-3 -5e-3 5e-3 9e-3 2e-3 0.016 0.049v5e-3l-0.016 9e-3h-4e-3v1e-3l6e-3 0.023 5e-3 -2e-3 2e-3 -3e-3 -2e-3 -4e-3v-0.01l5e-3 -9e-3m-0.032 0.154h-2e-3zm-2e-3 0.125-7e-3 -3e-3 -0.01 3e-3 7e-3 8e-3 0.01-8e-3m-0.035 0.126h-1e-3zm0.016 0.048h-4e-3zm0.05 0.135-0.013-0.012v5e-3l-5e-3 1e-3 0.018 6e-3m-0.212 0.034-5e-3 5e-3 2e-3 0.014v0.036l7e-3 -0.01 8e-3 0.02 0.017 0.03 0.026 0.013h2e-3l0.03 0.017 4e-3 -2e-3 0.014 2e-3 0.069 9e-3 9e-3 -9e-3v-0.03l0.011 0.012-5e-3 -0.035v-9e-3l0.012-0.018 4e-3 -8e-3 -0.016-0.011-0.036-0.021 0.011-5e-3h-6e-3 4e-3l-0.033-3e-3h-0.016v3e-3h-3e-3l-5e-3 -3e-3h-2e-3l-0.016-2e-3 -0.03 0.024-0.018 0.022-0.012-0.022 2e-3 -5e-3 -0.014 5e-3 2e-3 -0.019 7e-3 -0.015h5e-3l-8e-3 -9e-3v-0.01l3e-3 -2e-3 3e-3 -0.01 9e-3 -0.012 0.012-0.012-5e-3 -0.021h-0.019l5e-3 0.021-0.012-2e-3 -2e-3 0.018-3e-3 5e-3 -8e-3 9e-3 6e-3 6e-3 2e-3 0.017zm-0.119 0.394v-5e-3 5e-3m0.075-0.245 5e-3 -3e-3 -5e-3 -2e-3zm-8e-3 0.203 8e-3 -7e-3 -8e-3 3e-3 -5e-3 -3e-3 5e-3 7e-3m0.073-0.229h3e-3zm0.015 9e-3 3e-3 2e-3 -3e-3 -7e-3zm-0.041 0.225 2e-3 -5e-3h-2e-3zm0.104-0.175v1e-3l4e-3 -3e-3h-0.01zm0.122-0.062v-5e-3zm-0.047 0.063 0.036 0.015-9e-3 -0.015 4e-3 5e-3h-2e-3v-5e-3l-0.011-8e-3 -0.011 5e-3 -7e-3 -5e-3 -7e-3 0.013 7e-3 -5e-3m-3e-3 0.118-7e-3 7e-3 7e-3 -7e-3m0.212-0.662h4e-3l-4e-3 -4e-3zm0.191-0.616v-5e-3zm-0.259 0.885 0.012 0.01 8e-3 5e-3 0.013-0.025-2e-3 -3e-3 -8e-3 -9e-3 -0.023 0.022m-0.054 0.236h0.011l-4e-3 -2e-3 -1e-3 -8e-3 -6e-3 8e-3zm0.2-0.552v-7e-3h-3e-3l-0.01-0.017-0.011 0.012h4e-3l2e-3 5e-3 0.018 7e-3m-0.207 0.646v4e-3zm0.129-0.402h4e-3l-4e-3 -5e-3zm0.188-0.654-3e-3 -9e-3 3e-3 9e-3m-0.095 0.362-9e-3 -0.032h-4e-3l-0.015 6e-3 -0.011 6e-3 0.011-6e-3v0.014l0.013 0.016 2e-3 -4e-3h0.01l3e-3 4e-3zm-0.282-1.334 5e-3 -2e-3 -0.013-0.016-0.012 0.014v4e-3l-7e-3 6e-3 0.014 0.011 0.011 0.012-0.016 6e-3h0.016l0.023-6e-3 -0.021-0.029m9e-3 -0.04v2e-3zm7e-3 -0.09-9e-3 -0.014-2e-3 -5e-3 -0.016-0.017-0.028 6e-3 -9e-3 9e-3 -0.017 8e-3 0.017 0.031-7e-3 5e-3 0.014 2e-3 9e-3 -2e-3h0.014l0.027-0.011v6e-3l7e-3 5e-3zm-0.145 0.205v-3e-3zm-0.147 0.429v-3e-3l0.012-4e-3 -0.03-0.021-0.022-0.025 6e-3 0.014 3e-3 0.025-3e-3 5e-3 0.016 0.024 0.013 0.017 0.017 0.012h5e-3l2e-3 -3e-3 -2e-3 -0.021-5e-3 -2e-3 -0.012-0.018m0.147-0.576m-0.158 0.5 5e-3 -3e-3 -5e-3 3e-3m0.126-0.464v4e-3zm0.035-0.14v4e-3zm-0.011 0.319v2e-3l7e-3 -2e-3h-7e-3m0.063-0.186h3e-3 -0.02l2e-3 7e-3 -2e-3 7e-3 0.01 0.016 7e-3 -5e-3v-0.02zm-0.045 0.15 0.012 4e-3 4e-3 -9e-3v-3e-3l2e-3 3e-3v-3e-3h0.012l-2e-3 -2e-3v-7e-3l4e-3 -4e-3v-7e-3l-0.014 9e-3 -0.018 0.014v5e-3m-0.071 0.369-4e-3 -6e-3 -3e-3 6e-3zm0.137-0.355-2e-3 -4e-3 2e-3 4e-3m-0.223 0.137h-2e-3v3e-3zm0.147-0.589v3e-3zm-0.25 0.509-0.014-0.013-0.011-1e-3 -8e-3 0.011h-0.029l-0.01-6e-3h-3e-3l-6e-3 9e-3v-3e-3 0.02l0.012 8e-3 -0.018 5e-3 -3e-3 9e-3 3e-3 0.02-0.014 0.01 3e-3 0.016h0.038v-0.016l-9e-3 -8e-3h-0.012l0.012-0.022 0.019-0.035 6e-3 2e-3h0.044zm0.053-0.25v4e-3zm2e-3 -0.123-0.01-0.01-8e-3 -0.01 8e-3 -4e-3 8e-3 -3e-3 -4e-3 -7e-3 4e-3 -6e-3 0.016-0.01h-3e-3l6e-3 -0.013 7e-3 -7e-3 -7e-3 -3e-3 -3e-3 -5e-3 -0.042-0.014-7e-3 -4e-3 -9e-3 0.023-3e-3 0.014-8e-3 -4e-3h-0.014l-0.03-5e-3 0.052 0.03 0.029 0.025v3e-3l-0.013 0.018 0.021 0.011 3e-3 -9e-3 7e-3 -5e-3zm0.024-0.193v5e-3zm6e-3 -0.114 0.012 0.01h6e-3l-0.018-0.01m-4e-3 4e-3v-4e-3zm-9e-3 -4e-3 -0.012-0.028-0.012 2e-3v8e-3l-3e-3 4e-3 0.015 6e-3 -0.011 4e-3 0.023 8e-3zm-0.151 0.403h4e-3zm0.023-0.017v-7e-3zm-0.099 0.133-0.011 8e-3 5e-3 4e-3 6e-3 -4e-3v6e-3l3e-3 7e-3v4e-3l0.039 0.05v-2e-3l0.021-0.023h0.017v-2e-3l6e-3 -0.011 9e-3 -7e-3 -0.021-9e-3 2e-3 -3e-3h-2e-3l-0.029-6e-3h-7e-3zm-0.015 0.055 4e-3 -0.016h-2e-3l-2e-3 9e-3v2e-3zm0.031 0.057v0.016l0.01 0.033 5e-3 4e-3 4e-3 -0.053v-0.014l3e-3 -8e-3 4e-3 -8e-3h-0.016l-6e-3 8e-3 -4e-3 0.022m0.058-0.7-6e-3 5e-3 6e-3 -5e-3m-0.107 0.28v2e-3l4e-3 -2e-3zm-0.018-0.064 6e-3 4e-3zm-0.047 0.118v2e-3zm0.026-0.18 3e-3 -2e-3 -3e-3 2e-3m0.036-0.246h3e-3zm3e-3 -0.042v6e-3l4e-3 -4e-3 -4e-3 -2e-3m-3e-3 0-6e-3 6e-3 9e-3 -4e-3v-2e-3zm-0.121 0.018v2e-3zm-0.067-0.099m-3e-3 -0.086-0.01 4e-3h0.013l-3e-3 -4e-3m-0.136-0.111-3e-3 -3e-3v5e-3l3e-3 7e-3v-9e-3m0.191 2.348-4e-3 3e-3 7e-3 2e-3 -3e-3 -5e-3m-0.26 0.768v2e-3zm0.048-0.199h2e-3l-2e-3 -0.021v-8e-3h2e-3l-2e-3 -7e-3 -1e-3 -0.01 0.013-3e-3 6e-3 -4e-3v-0.014l3e-3 -0.012-0.04-2e-3h-0.034l-9e-3 0.021-0.044 4e-3 -0.017-9e-3 -2e-3 0.012 0.014 0.017 5e-3 0.012-5e-3 5e-3 0.033 0.019 0.03 7e-3 0.048 0.012zm0.109-0.342v-3e-3 5e-3zm-0.287 0.533v-5e-3l-7e-3 5e-3zm0.123-0.024v-3e-3h-7e-3l-2e-3 2e-3 9e-3 1e-3m-0.049-0.453h0.011-0.011m-0.334 0.361v5e-3l0.014 4e-3 -0.014-9e-3m-0.189 0.059-0.015-0.027 3e-3 -8e-3v-1e-3l7e-3 -4e-3v-2e-3l-4e-3 -6e-3 -0.015 6e-3v6e-3l-0.012 0.018v0.012h2e-3l0.034 0.019 1e-3 -0.012zm5e-3 -0.027h3e-3zm1.953 0.636 3e-3 -5e-3 -7e-3 2e-3zm0.083 0.377h-1e-3l1e-3 2e-3zm0.025-0.156v3e-3zm0.322 0.906 3e-3 0.012v4e-3h4e-3l0.031 0.01v-0.029l-5e-3 -0.021 5e-3 -8e-3 5e-3 -2e-3 -5e-3 -8e-3 -7e-3 8e-3 -0.031 0.031zm0.076 0.069h3e-3v-0.011l-7e-3 -6e-3 -3e-3 2e-3 -0.011 0.01 0.018 5e-3m0.147-0.509v-9e-3zm2.203-1.176-0.01 9e-3v1e-3l-1e-3 4e-3v5e-3h-0.01l-0.067-5e-3 -3e-3 -4e-3v9e-3l-0.058-0.069 0.023-5e-3 -9e-3 -0.017-5e-3 -6e-3v0.015l-9e-3 -5e-3v-4e-3l-0.022 9e-3 -0.048 0.01 0.011 0.03v0.019h-0.028v0.018l-7e-3 -5e-3 -4e-3 0.014-9e-3 -4e-3 -0.017-0.028-0.032 5e-3h-2e-3l-5e-3 4e-3 -0.029 0.019-0.019-0.019-1e-3 -9e-3 -2e-3 9e-3 -0.027 0.019h-7e-3l-2e-3 -0.01v-9e-3l-6e-3 -0.023 0.01-0.017h5e-3l-1e-3 -0.03v-2e-3l0.023-0.029 0.018-6e-3 -5e-3 -3e-3 -0.013-4e-3 8e-3 -0.019-3e-3 -5e-3 -5e-3 0.012v6e-3l-0.011-4e-3 -0.011-9e-3 -7e-3 -3e-3 -8e-3 -2e-3 -0.026 0.033 2e-3 -0.04v-2e-3l-9e-3 -4e-3 -0.01-0.017 0.017-0.011 9e-3 -2e-3 3e-3 -2e-3 -5e-3 -0.033-0.014-0.013v-6e-3l-7e-3 0.02-3e-3 -0.014-3e-3 4e-3 -2e-3 9e-3v0.016l-0.011 0.038-9e-3 7e-3 3e-3 0.019 0.017 3e-3 -0.017 7e-3h6e-3l5e-3 0.016-0.011 0.047-8e-3 -5e-3v0.018l0.014 0.027 0.011 5e-3v-4e-3l8e-3 4e-3v9e-3l-0.025 0.028-0.066-0.019h-0.068l-0.027-9e-3h-4e-3l-1e-3 0.023-0.016-0.023-2e-3 -9e-3 -7e-3 -4e-3 -0.012 4e-3 -3e-3 -5e-3 -0.01 5e-3v9e-3l-0.049 9e-3 -0.022 9e-3 -0.032-0.013-6e-3 -9e-3h-0.013l-0.036-0.01v1e-3l-6e-3 0.013v0.023l-0.018 5e-3h-0.023l-0.013-5e-3v0.012l-0.012 0.011h-5e-3l-9e-3 -9e-3v-5e-3l-0.014-4e-3h-0.025l-0.059-0.028h-0.09l8e-3 -4e-3 -0.022 4e-3h-0.01l-4e-3 9e-3h-0.044v9e-3l-3e-3 1e-3 -0.034 4e-3 -0.062-5e-3h-0.057l-0.025 1e-3 -0.013-0.014h-4e-3l-0.061 0.027-7e-3 0.014-0.027-0.046-0.012 9e-3 -0.021 0.01v-1e-3l-2e-3 -5e-3 -0.043-4e-3v4e-3h-6e-3l-0.032-8e-3 -7e-3 -5e-3 2e-3 9e-3 -0.025 9e-3 -0.033 1e-3 -0.014-6e-3 -0.013-4e-3h-0.018l-0.021-4e-3 -5e-3 0.023-0.018-9e-3v-1e-3l-0.01 0.01-0.051-0.019h-2e-3l2e-3 -9e-3 -0.022 9e-3 -5e-3 4e-3v-4e-3l-0.015 0.01-0.018 0.027 0.01-9e-3 -0.01 0.03-0.027 0.089-2e-3 -0.013-3e-3 0.013h3e-3l-3e-3 0.044-9e-3 -9e-3h-3e-3v0.037l-6e-3 0.029-7e-3 0.017h-9e-3l3e-3 5e-3 6e-3 4e-3 -2e-3 0.018-7e-3 5e-3 -0.01 0.025-0.01 7e-3h-9e-3v8e-3l3e-3 0.01-3e-3 0.029-0.013 0.018 9e-3 0.032v4e-3l-0.015 0.011v7e-3l-9e-3 0.041 0.012-0.013-0.021 0.048v0.025l-5e-3 4e-3 5e-3 0.011-8e-3 8e-3 -7e-3 5e-3v0.018l-0.01 0.01-0.011 4e-3 -3e-3 -9e-3 -0.033-0.012h-5e-3v7e-3l0.012 0.019 0.032 0.021-0.018 0.011 8e-3 5e-3 0.01 0.024-0.01 2e-3 -0.01 0.01-4e-3 0.019-2e-3 0.02-0.01 0.016-4e-3 3e-3 -4e-3 5e-3v0.017l-7e-3 0.01-3e-3 0.011-1e-3 0.019-3e-3 7e-3 3e-3 9e-3 -3e-3 0.033-0.012 0.031-0.018 0.032-5e-3 0.019v0.013l0.023 0.023h-0.035v3e-3l0.01-3e-3 -0.011 0.015v0.014l1e-3 0.031 0.035 0.017-0.036 7e-3 -0.025 0.013v0.014l-0.012 0.021 3e-3 0.061 9e-3 9e-3h-9e-3l-0.026 0.029-6e-3 0.029-0.011 0.048-4e-3 8e-3 -5e-3 -5e-3 -0.029-0.024-0.02-0.025 0.01-8e-3 8e-3 -0.01v-7e-3 4e-3 -0.022h2e-3 -0.01v-0.017l0.01-0.028-0.038-8e-3 -0.018-5e-3 -0.013 5e-3 0.01 4e-3 5e-3 4e-3 0.023 0.028-5e-3 3e-3 -0.012 0.014-0.011 0.012h3e-3l-0.018 0.02-8e-3 5e-3 0.013 0.034 3e-3 2e-3 0.015 0.024 3e-3 0.024-3e-3 4e-3h9e-3l-2e-3 0.022h-7e-3l-8e-3 9e-3 -3e-3 3e-3 -4e-3 0.01-0.014 0.029-2e-3 0.02-7e-3 0.018v6e-3h7e-3l8e-3 -0.013v-0.011l0.015-0.02h8e-3l7e-3 -0.01 0.02 0.012 0.022 0.024h2e-3l-0.024 0.029-5e-3 0.013 2e-3 0.062 7e-3 0.012v0.022l-0.031 0.022 0.013 0.015-0.018 4e-3h-0.01l4e-3 0.02 3e-3 0.023 0.017 0.029-0.017 8e-3 -0.023 4e-3 8e-3 0.018v0.021l-0.015 0.018-7e-3 0.016-0.014-5e-3 -0.018 3e-3 3e-3 0.016 2e-3 0.024-0.012 1e-3 -0.06-8e-3 -8e-3 -0.036 8e-3 -0.018 0.01-0.028-2e-3 -4e-3v-0.018l-0.019-4e-3h-0.033v4e-3l6e-3 8e-3v0.014h5e-3v4e-3l-0.023 6e-3 -0.099-0.264 9e-3 1e-3 -0.038-0.113 2e-3 -3e-3 -4e-3 -0.015h-4e-3v-6e-3l-0.07-0.177-0.018-0.05h0.018l4e-3 -0.01v-9e-3l0.015-0.015v-2e-3l-0.037-0.01h-0.017l-0.021-0.056-4e-3 -0.019-7e-3 -0.029v-2e-3l-0.076-0.205 0.034 0.017 5e-3 -3e-3 5e-3 -4e-3 4e-3 -7e-3 0.01-5e-3v-3e-3l0.018-0.01 7e-3 -5e-3 0.025-7e-3v-0.01l0.017-0.016 0.013-0.029 9e-3 -0.019v-0.013l-7e-3 -0.026 7e-3 -0.02 0.012 0.011 6e-3 6e-3 -3e-3 -0.021 6e-3 -9e-3v-6e-3l-3e-3 6e-3 -8e-3 -6e-3 -0.01-0.074 5e-3 -0.027 0.013 5e-3 -3e-3 -0.019 6e-3 -0.017 0.018-0.038-0.024-0.023-0.022 8e-3 3e-3 -0.024-5e-3 -7e-3 -0.015-0.017h2e-3l-2e-3 4e-3 -0.018-0.023-6e-3 -8e-3 -0.016-0.015v-2e-3l-1e-3 -0.017-0.019 7e-3 -0.015-7e-3 -9e-3 5e-3v0.018l-0.011-4e-3 -0.019-4e-3 0.013 0.022h6e-3l6e-3 0.012 5e-3 9e-3 5e-3 0.039-5e-3 0.012-4e-3 -2e-3v9e-3l-7e-3 5e-3h0.011l-5e-3 0.018 1e-3 0.014-0.013-6e-3 -7e-3 -4e-3 -0.012-4e-3v8e-3l6e-3 6e-3 3e-3 9e-3 -7e-3 0.027-2e-3 -5e-3 2e-3 9e-3 -9e-3 0.01 9e-3 0.011 0.01-0.021 0.013 0.01 3e-3 9e-3v-0.019l0.022 0.021-2e-3 -0.011-0.017 0.059-6e-3 7e-3 -0.016 0.02-0.017 0.027-6e-3 0.014-9e-3 0.033-0.013 0.014-0.096-0.285-0.011-0.01h6e-3v-8e-3l-6e-3 -7e-3 -6e-3 -0.033 2e-3 -2e-3h4e-3l-0.024-0.036-0.011-0.041-0.019-5e-3 0.013-6e-3 -0.062-0.18-0.026-9e-3 -6e-3 -1e-3 -0.016-0.022v-5e-3l-0.016-5e-3 1e-3 0.014-0.017-9e-3 -0.027 0.014v0.013h-0.128l-0.014 1e-3 5e-3 -1e-3h-0.01l-7e-3 -5e-3v5e-3l-0.028 1e-3 -0.191-0.01v9e-3l-0.024-0.013h-0.027v-5e-3l-0.018 9e-3 -9e-3 -0.018 9e-3 -0.028 3e-3 -9e-3v-0.027l5e-3 -8e-3 -0.014-0.011 0.014-4e-3 -8e-3 -0.014v-5e-3h-0.02l0.011 0.056v5e-3l-0.016 0.022v1e-3l-8e-3 -1e-3v7e-3l-0.011 0.011-0.037-0.011-6e-3 -6e-3v8e-3l-0.011 0.014-0.022-9e-3h0.01l-0.031-9e-3 -5e-3 -0.046-0.033 0.042-9e-3 6e-3 9e-3 0.012v0.013l-5e-3 5e-3 -7e-3 0.013-0.028-0.013-0.021-0.018-3e-3 4e-3 9e-3 5e-3h-6e-3l-8e-3 0.013-0.046-0.018-0.011 0.014-0.026-0.014-7e-3 9e-3h-0.052v-4e-3l-0.069 0.013-0.035-9e-3 -3e-3 -9e-3 -0.013-4e-3 -0.019-1e-3v0.019l-0.01 0.013-1e-3 1e-3 -6e-3 -1e-3 -8e-3 0.01-0.069-0.042-0.016-0.011-0.018-7e-3 -0.037-0.012h-3e-3l3e-3 3e-3 -5e-3 0.016v7e-3l-0.013 0.018h-5e-3v0.019l-9e-3 -0.014-0.036-5e-3h-0.013l-0.022-0.023-5e-3 9e-3 -2e-3 5e-3h-4e-3l-0.015 9e-3 -0.02-0.013-9e-3 4e-3 -9e-3 9e-3 -0.014-9e-3 -7e-3 0.014-0.012-5e-3 -0.022-9e-3 -5e-3 -5e-3v-4e-3l-0.012 4e-3 -0.04 1e-3h-8e-3l-0.019 9e-3 0.019 4e-3 -0.019 0.018-0.037-9e-3h-7e-3l3e-3 -0.013v-5e-3 5e-3l-0.012 0.013-9e-3 -9e-3 -0.027-0.014v0.014l-0.019-9e-3 -0.015-4e-3 -0.01 0.013-0.032 5e-3 -6e-3 -5e-3h-0.013l-0.044-0.014-0.016-4e-3 2e-3 0.027-0.018-0.018-8e-3 9e-3h-0.048l-7e-3 9e-3 -0.012-4e-3 -0.05-0.014 4e-3 0.014-0.013 4e-3 -0.01-4e-3 -0.048 4e-3 -0.01-9e-3 0.489-0.375h4e-3l0.209-0.164 0.01 0.012 1e-3 0.01 0.017-0.014 0.041-0.027 0.015 9e-3h6e-3l6e-3 -0.019 0.019-9e-3 0.02-0.01 0.011-6e-3 0.02 6e-3v-0.012l7e-3 -8e-3 0.022-6e-3v-5e-3l0.011-0.014 0.015 4e-3 -1e-3 -0.026v-2e-3l0.032-0.016 0.032 4e-3h0.039l0.012-6e-3 -0.015-0.041-0.02-0.043 9e-3 -0.015 0.12-0.092-2e-3 -4e-3 2e-3 4e-3 0.065-0.048v-2e-3l0.06-0.051 0.027-0.019 0.154-0.117 0.033-0.028 0.064-0.05 0.043-0.038 1e-3 -8e-3 -0.013-0.019-5e-3 -0.03 0.017-0.018 7e-3 -1e-3h0.011l-5e-3 -0.019 0.013 1e-3v-7e-3l-0.019-4e-3 0.012-0.014 0.039 2e-3 7e-3 7e-3 0.026-0.016v-0.039l-0.017-0.012-4e-3 0.012-0.026-0.036v-8e-3l-9e-3 -0.014-4e-3 -0.014h9e-3l0.027-8e-3 7e-3 -5e-3h3e-3l-0.01-5e-3 -0.017-0.018h-6e-3l0.014-0.022 7e-3 3e-3 -3e-3 -8e-3 -7e-3 -5e-3 0.01-0.012-7e-3 -0.011-3e-3 -4e-3 3e-3 4e-3 -0.014 4e-3v0.042l-4e-3 0.013-0.014-4e-3 -8e-3 7e-3 -0.011 7e-3v9e-3l-7e-3 -1e-3 -0.017-4e-3v5e-3h-1e-3l-0.012 0.018 0.018 0.028 7e-3 0.016 0.01 0.023v0.01l8e-3 0.014 9e-3 0.015-0.017 0.014-5e-3 7e-3h-0.012l-5e-3 0.01 3e-3 8e-3 -0.016 0.012-1e-3 -1e-3 -5e-3 -0.018-0.068-0.188 7e-3 4e-3 -0.018-0.027-0.117-0.34 0.036 0.027 0.056 0.041 0.011 2e-3 0.022 0.024 3e-3 -2e-3 0.024-3e-3h0.013l0.021-0.019 0.016-0.017v-0.015l0.013-0.023v5e-3l-0.013-0.058-1e-3 3e-3 -0.021-9e-3v-0.011l-0.014-7e-3h-4e-3l-0.018 9e-3 -0.019-0.024h-9e-3l1e-3 0.01-0.014 0.014-0.011-5e-3 -3e-3 3e-3v0.011l-0.016 9e-3 -6e-3 0.027-0.019-4e-3 -0.036-0.032 4e-3 0.018v0.014l-0.019 4e-3 -0.274-0.804-6e-3 -0.01-8e-3 -0.029 8e-3 -4e-3 -0.04-0.097-8e-3 -0.032-0.012 1e-3 -6e-3 -0.025-0.01-0.038-0.021-0.023 0.012 5e-3v-0.011l3e-3 -3e-3 -7e-3 -0.016-5e-3 0.019-0.012-0.03v-6e-3l-2e-3 -2e-3 -0.079-0.232 0.012 7e-3v-3e-3l0.012-6e-3 0.034 0.027 2e-3 8e-3 9e-3 4e-3 0.012 6e-3 -9e-3 0.012 0.015 2e-3 6e-3 -2e-3 5e-3 0.01 0.029 0.014v0.011l0.038 0.021 0.032 0.023v-5e-3l0.011 0.013h7e-3 -3e-3l3e-3 5e-3 0.02 0.014 0.011 0.015 6e-3 4e-3 8e-3 4e-3 0.026 0.019 0.01 0.027 7e-3 -0.011 8e-3 7e-3 0.088 0.041-9e-3 0.014v2e-3l0.066 0.043 0.011 0.026 0.019 2e-3 9e-3 5e-3v0.014l8e-3 5e-3 0.015-1e-3 0.013 3e-3 0.023 0.029 0.022 0.012 5e-3 2e-3h9e-3l1e-3 0.012 0.033 0.02 8e-3 -4e-3 -7e-3 0.014h0.015l-4e-3 -7e-3 0.025 0.019 0.072 0.06 0.043 8e-3 3e-3 7e-3v2e-3h3e-3l2e-3 9e-3 0.052 0.051 0.011 5e-3 0.051 0.055 6e-3 -4e-3 0.039 0.034 3e-3 0.01 0.018-4e-3 0.018 0.023 0.039 0.012 8e-3 0.016-8e-3 3e-3 5e-3 2e-3h-2e-3v9e-3l5e-3 -4e-3h0.011l0.041 4e-3 -9e-3 0.017-7e-3 0.01v-6e-3l-2e-3 0.016-0.01 2e-3 3e-3 0.016 3e-3 0.027-3e-3 4e-3 9e-3 0.019 0.023-0.032 0.022 5e-3 0.015-0.011 6e-3 6e-3 0.012 0.026-8e-3 0.011h8e-3l0.033 7e-3 3e-3 0.025h6e-3v0.04l-9e-3 0.015-0.025 0.021 0.017 7e-3 0.017-0.014h2e-3l-2e-3 -5e-3v-9e-3l0.01-0.011 9e-3 -8e-3v-0.015l9e-3 -0.032 0.017-7e-3 9e-3 0.023 0.024 0.013h8e-3l-4e-3 0.012h4e-3l7e-3 -9e-3 0.106 0.078 0.078 0.055-7e-3 5e-3 0.026 9e-3v-2e-3 2e-3h6e-3l0.039 0.034 0.062 0.048-4e-3 0.012 0.016 0.028v4e-3h0.027l-0.018 0.013 0.018 6e-3 9e-3 -6e-3 0.021-0.011 0.012 5e-3 0.026 6e-3 0.064-0.05 0.075-0.059-6e-3 -7e-3 0.012 7e-3 0.023-0.021 7e-3 -9e-3 0.038-0.014v-7e-3l0.018-0.018 7e-3 -2e-3 0.255-0.202-8e-3 0.027-0.011 0.034-3e-3 0.014v0.032l6e-3 0.04v0.038l-3e-3 2e-3 3e-3 4e-3 -6e-3 2e-3 -4e-3 0.011h-0.029l7e-3 -2e-3 3e-3 -0.011v-4e-3h-0.015l-4e-3 -0.013 4e-3 -9e-3 -0.018 3e-3 1e-3 0.019h-1e-3l1e-3 4e-3 -8e-3 0.031h-0.014l-3e-3 3e-3 7e-3 4e-3v5e-3l0.047-0.012-0.035 0.03-0.012 2e-3 -1e-3 0.021h1e-3v0.027l-0.011 0.014 0.032 5e-3 0.01 4e-3 0.023 0.012 0.073 0.011 3e-3 -9e-3 3e-3 -0.023 9e-3 -0.02 5e-3 -7e-3 6e-3 -0.01-0.015-6e-3 0.015-0.021 0.041-0.059 0.017-6e-3 -4e-3 -2e-3 0.016-0.016h-0.01l-0.023 5e-3 0.01-0.023 0.013-0.021 7e-3 7e-3 3e-3 2e-3 6e-3 -0.011 3e-3 -0.021 2e-3 -0.032-2e-3 -0.028 2e-3 -4e-3 -0.019-0.024-8e-3 -0.022-7e-3 -0.018v-9e-3l-6e-3 -5e-3v-0.011l-0.038-4e-3 0.235-0.178 0.031-2e-3 9e-3 7e-3 0.022 5e-3v-0.033l-8e-3 -0.01 8e-3 -0.018 0.027-0.023 0.056-0.039 0.107-0.074-1e-3 -4e-3 0.11-0.083 0.012 0.019h-4e-3l4e-3 2e-3v-7e-3l7e-3 -0.01-7e-3 -0.02 0.173-0.134 0.015 0.017v5e-3h-3e-3l-8e-3 7e-3 -8e-3 0.011 0.019 0.013 0.036-5e-3 8e-3 -0.026 0.015-0.041 0.021-6e-3 9e-3 4e-3 0.034 2e-3v0.019l8e-3 -6e-3 -3e-3 -0.015 0.011-0.015 0.023-7e-3 -4e-3 0.022v2e-3 -2e-3 2e-3l0.025 0.026-0.03-7e-3h-0.01l-0.012 0.017v5e-3h-3e-3l-0.014 0.014h-8e-3l8e-3 0.017 9e-3 5e-3 8e-3 0.022v-3e-3l8e-3 0.016v0.02l-1e-3 3e-3 -0.01 2e-3 -0.021 4e-3v-4e-3h-1e-3l-0.019-2e-3 6e-3 0.012v8e-3l0.03 0.016 0.011 0.017-0.027 0.014-1e-3 4e-3 -0.011 0.016-0.011 9e-3 3e-3 3e-3 0.015 0.016-0.015 6e-3 8e-3 0.038-8e-3 0.018-0.01 7e-3 -0.036 0.047v0.017l3e-3 0.037 4e-3 8e-3 -7e-3 -8e-3 -0.019 2e-3 -7e-3 2e-3 -0.02-2e-3v-9e-3l-0.01-7e-3v-0.054l0.01-0.016v-2e-3 2e-3l-0.01 6e-3 -4e-3 -6e-3 -3e-3 0.024-2e-3 0.021-9e-3 0.011v0.032l-4e-3 0.015h-2e-3l0.01 0.014-8e-3 0.024-4e-3 -2e-3v3e-3l-0.036 0.025h-7e-3l-0.03 0.022v8e-3l4e-3 0.024 2e-3 5e-3v9e-3l6e-3 0.024-6e-3 5e-3 -0.026 6e-3 -0.015 7e-3 0.024 0.01 0.036 0.02 0.012-0.043 6e-3 5e-3v-1e-3l0.012-0.014v-5e-3 5e-3 -0.033l0.022-6e-3 0.046 2e-3 -6e-3 0.037-8e-3 0.014-0.014 0.027 0.014 0.037v5e-3l-4e-3 4e-3 -0.032 0.046-6e-3 0.019-4e-3 0.016 0.01 0.037 0.022 0.02h-0.028l-0.019 0.017-5e-3 8e-3 -1e-3 9e-3v0.013l-5e-3 -4e-3 0.023 0.025-0.023 6e-3 -9e-3 0.016-7e-3 9e-3 -6e-3 0.036-3e-3 0.046-6e-3 0.014-2e-3 9e-3h-8e-3l-5e-3 8e-3 -2e-3 2e-3 -9e-3 0.022 7e-3 6e-3 -7e-3 0.014v0.026l-3e-3 0.037-0.016 0.021h-3e-3v0.011h0.012l-0.012 0.01v8e-3h-7e-3l-8e-3 0.014-2e-3 3e-3 -2e-3 0.03v6e-3l2e-3 0.017v0.029l-7e-3 9e-3v0.012l-0.012 0.019-6e-3 0.011v0.021l-2e-3 0.039-0.015-5e-3 -3e-3 0.012 3e-3 0.012v2e-3l-0.018 0.022 9e-3 0.033-3e-3 0.015-0.016 0.017-9e-3 7e-3 -7e-3 5e-3 7e-3 0.032v0.028l-9e-3 -5e-3 -2e-3 5e-3v3e-3l2e-3 2e-3v0.02l-9e-3 0.023-8e-3 0.024v2e-3l-0.031 8e-3v8e-3l0.01 7e-3 0.038 0.029h-0.03l3e-3 9e-3 -3e-3 0.037-2e-3 7e-3h0.021l-0.012 0.017 6e-3 8e-3 4e-3 0.019-0.025-5e-3h-6e-3l-5e-3 0.011v0.036l-0.01 0.01h-0.012v0.016l0.012 7e-3 0.018 0.016 0.021 9e-3v3e-3l0.015-3e-3v3e-3l0.012 0.012h0.011v-8e-3l0.014 8e-3 0.058 0.036 3e-3 -4e-3 3e-3 7e-3 0.019 0.014 0.069 0.048 0.036 0.022 8e-3 0.017 6e-3 -7e-3 8e-3 0.017 8e-3 5e-3 0.011 9e-3v-9e-3l0.012 0.014 0.138 0.101 0.136 0.105v-8e-3l0.013 0.016 0.035 0.024 0.037 0.022 0.011 0.018 0.013 0.014h0.013l4e-3 0.01 0.031 0.018 0.017 0.013 0.048 0.036 9e-3 -3e-3 -3e-3 5e-3 0.015 0.013v-3e-3l0.191 0.14v6e-3l0.017 6e-3 0.011 0.012 0.013 0.013v9e-3l-5e-3 8e-3 0.022 0.037 0.017 0.032 0.072 0.024v3e-3l3e-3 9e-3 0.024-6e-3 0.049-3e-3 -0.016 0.016v5e-3l7e-3 0.08 5e-3 -7e-3 7e-3 0.014 0.013 0.03 6e-3 5e-3 0.012 0.023 5e-3 -0.01v-7e-3l0.019 7e-3 2e-3 -5e-3 0.019-2e-3v-0.01l-0.019-7e-3 -2e-3 -0.031 2e-3 -7e-3v-1e-3l-0.019-0.014 0.011-0.02 0.019 0.017 0.027 0.017 0.081 0.056 0.014 2e-3h-8e-3l0.068 0.067-0.016 0.021 8e-3 -2e-3 8e-3 2e-3v9e-3l-8e-3 0.028 0.01 9e-3zm-3.803-0.683-4e-3 0.015-2e-3 3e-3 -0.018 0.015 2e-3 3e-3 -2e-3 6e-3v6e-3l-5e-3 4e-3 -0.013 4e-3 -0.022-5e-3 0.013-0.015 6e-3 -7e-3 -9e-3 -0.011h9e-3v-0.016l-6e-3 -2e-3 9e-3 -0.024-9e-3 -5e-3 0.015-0.012 0.025-9e-3 0.014 0.024v8e-3h6e-3zm1.317 2.402 6e-3 0.011 8e-3 0.026v6e-3h-8e-3v5e-3l-6e-3 6e-3 -0.02-0.044 0.02-0.013zm0.087 0.096h4e-3l2e-3 -6e-3 0.048 0.018-0.027 5e-3 -0.014 0.013-0.015-6e-3 -3e-3 -4e-3v-0.015l3e-3 -4e-3zm-0.322-1.344 3e-3 -2e-3h2e-3zm-0.027 4e-3 -0.025-0.017 0.016-0.01 6e-3 -0.023 0.024-0.052 6e-3 -2e-3 3e-3 2e-3 0.014 0.017-5e-3 0.027-4e-3 0.013-5e-3 0.039-0.013 0.011-0.017-5e-3m0.484 0.926h-4e-3v-8e-3l-2e-3 -0.017v-9e-3l0.017-5e-3 0.014-4e-3v0.017l-2e-3 0.033-0.019 5e-3z" fill="#fff"/>
  </g>
  <g transform="matrix(6.0761 0 0 -6.0761 -178.56 7.1584)">
   <path d="m0 0v-0.653h0.131c0.179 0 0.296 4e-3 0.358 0.018l0.168 0.097c0.045 0.05 0.07 0.12 0.07 0.21l-0.07 0.212-0.173 0.098c-0.072 0.012-0.191 0.018-0.378 0.018zm0.232-2.682h-1.678v0.822h0.251v1.788h-0.251v0.822h1.678c0.152 0 0.29-3e-3 0.417-9e-3 0.132-5e-3 0.244-0.011 0.332-0.02 0.096-0.012 0.182-0.029 0.252-0.044 0.22-0.053 0.393-0.163 0.527-0.333 0.138-0.178 0.207-0.383 0.207-0.618 0-0.178-0.041-0.339-0.125-0.486-0.082-0.144-0.189-0.25-0.326-0.313l0.424-0.787h0.227v-0.822h-1.115l-0.676 1.402h-0.376v-0.58h0.232z" fill="#fff"/>
  </g>
  <g transform="matrix(6.0761 0 0 -6.0761 -155.87 12.974)">
   <path d="m0 0c0-0.379 0.036-0.637 0.103-0.771 0.062-0.134 0.163-0.206 0.301-0.206 0.135 0 0.236 0.069 0.299 0.2 0.065 0.129 0.1 0.389 0.1 0.777 0 0.377-0.032 0.633-0.099 0.771-0.064 0.137-0.162 0.201-0.3 0.201s-0.233-0.063-0.301-0.194c-0.067-0.13-0.103-0.388-0.103-0.778m-1.34 0c0 0.285 0.063 0.566 0.191 0.83 0.124 0.268 0.317 0.494 0.579 0.677 0.091 0.063 0.187 0.115 0.286 0.154 0.102 0.037 0.204 0.065 0.322 0.085 0.117 0.023 0.236 0.031 0.366 0.031 0.554 0 0.98-0.18 1.283-0.538 0.152-0.175 0.266-0.372 0.343-0.577 0.078-0.207 0.115-0.429 0.115-0.662 0-0.478-0.156-0.893-0.467-1.247-0.319-0.357-0.738-0.531-1.274-0.531-0.517 0-0.939 0.166-1.26 0.499-0.323 0.331-0.484 0.755-0.484 1.279" fill="#fff"/>
  </g>
  <g transform="matrix(6.0761 0 0 -6.0761 -133.63 7.8797)">
   <path d="m0 0-0.29-0.95h0.548zm-0.29-2.564h-1.227v0.822h0.237l0.579 1.788h-0.245v0.823h2.22v-0.823h-0.251l0.594-1.788h0.225v-0.822h-1.613v0.753h0.272l-0.121 0.435h-0.787l-0.137-0.435h0.254z" fill="#fff"/>
  </g>
  <g transform="matrix(6.0761 0 0 -6.0761 -112.01 7.5977)">
   <path d="m0 0v-1.788h0.111c0.285 0 0.465 0.083 0.553 0.249 0.08 0.167 0.12 0.377 0.12 0.629 0 0.15-0.017 0.302-0.05 0.449-0.035 0.149-0.103 0.259-0.196 0.342-0.091 0.08-0.254 0.119-0.493 0.119zm0-2.61h-1.437v0.822h0.243v1.788h-0.243v0.823h1.479c0.338 0 0.614-0.023 0.828-0.065 0.213-0.048 0.415-0.142 0.606-0.287 0.184-0.146 0.338-0.339 0.443-0.585 0.052-0.123 0.092-0.247 0.123-0.381 0.027-0.136 0.041-0.279 0.041-0.425 0-0.3-0.058-0.571-0.171-0.817-0.112-0.242-0.253-0.431-0.43-0.559-0.165-0.131-0.349-0.215-0.556-0.256-0.199-0.04-0.504-0.058-0.926-0.058" fill="#fff"/>
  </g>
  <g transform="matrix(6.0761 0 0 -6.0761 -86.858 23.456)">
   <path d="m0 0h-1.621v0.822h0.231v1.788h-0.24v0.823h1.63v-0.823h-0.196v-0.522h0.716v0.522h-0.201v0.823h1.624v-0.823h-0.23v-1.788h0.23v-0.822h-1.624v0.822h0.201v0.566h-0.716v-0.566h0.196z" fill="#fff"/>
  </g>
  <g transform="matrix(6.0761 0 0 -6.0761 -64.263 12.974)">
   <path d="m0 0c0-0.379 0.029-0.637 0.097-0.771s0.167-0.206 0.3-0.206c0.135 0 0.238 0.069 0.303 0.2 0.065 0.129 0.102 0.389 0.102 0.777 0 0.377-0.037 0.633-0.098 0.771-0.062 0.137-0.168 0.201-0.307 0.201-0.133 0-0.232-0.063-0.3-0.194-0.068-0.13-0.097-0.388-0.097-0.778m-1.342 0c0 0.285 0.062 0.566 0.189 0.83 0.122 0.268 0.315 0.494 0.577 0.677 0.096 0.063 0.19 0.115 0.29 0.154 0.096 0.037 0.206 0.065 0.32 0.085 0.113 0.023 0.236 0.031 0.363 0.031 0.555 0 0.986-0.18 1.287-0.538 0.151-0.175 0.263-0.372 0.341-0.577 0.078-0.207 0.117-0.429 0.117-0.662 0-0.478-0.159-0.893-0.472-1.247-0.315-0.357-0.736-0.531-1.273-0.531-0.514 0-0.935 0.166-1.254 0.499-0.325 0.331-0.485 0.755-0.485 1.279" fill="#fff"/>
  </g>
  <g transform="matrix(6.0761 0 0 -6.0761 -47.632 7.5977)">
   <path d="m0 0h-0.239v0.823h1.581v-0.823h-0.149v-1.153c0-0.278 0.027-0.467 0.075-0.568 0.044-0.099 0.13-0.149 0.253-0.149 0.105 0 0.176 0.041 0.224 0.128 0.042 0.082 0.069 0.251 0.069 0.504v1.238h-0.155v0.823h1.159v-0.823h-0.247v-1.24c0-0.32-0.038-0.58-0.123-0.783-0.08-0.201-0.218-0.356-0.412-0.471-0.187-0.111-0.427-0.169-0.708-0.169-0.225 0-0.428 0.029-0.601 0.089-0.179 0.058-0.322 0.153-0.421 0.273-0.105 0.118-0.183 0.265-0.232 0.437-0.051 0.166-0.074 0.419-0.074 0.767z" fill="#fff"/>
  </g>
  <g transform="matrix(6.0761 0 0 -6.0761 -24.264 23.456)">
   <path d="m0 0h-0.698v1.101h0.698c0.084-0.3 0.239-0.449 0.466-0.449 0.168 0 0.248 0.076 0.248 0.221l-0.085 0.195c-0.062 0.056-0.192 0.131-0.394 0.23-0.254 0.128-0.437 0.236-0.553 0.328-0.112 0.084-0.205 0.202-0.284 0.349-0.078 0.145-0.115 0.309-0.115 0.485 0 0.321 0.088 0.573 0.277 0.749 0.182 0.178 0.409 0.269 0.685 0.269 0.269 0 0.497-0.084 0.686-0.257v0.212h0.702v-0.978h-0.695c-0.084 0.274-0.232 0.406-0.444 0.406-0.152 0-0.232-0.071-0.232-0.215l0.067-0.155c0.041-0.036 0.172-0.118 0.403-0.238 0.302-0.17 0.505-0.292 0.607-0.369l0.161-0.159 0.133-0.212c0.084-0.16 0.118-0.334 0.118-0.523 0-0.287-0.092-0.534-0.286-0.731-0.192-0.201-0.431-0.303-0.723-0.303-0.276 0-0.522 0.088-0.742 0.271z" fill="#fff"/>
  </g>
  <g transform="matrix(6.0761 0 0 -6.0761 6.6736 23.456)">
   <path d="m0 0h-2.943v0.822h0.234v1.788h-0.241v0.823h2.95v-1.096h-0.81v0.273h-0.704v-0.527h0.612v-0.695h-0.612v-0.566h0.704v0.274h0.81z" fill="#fff"/>
  </g>
  <g transform="matrix(6.0761 0 0 -6.0761 -123.87 -30.98)">
   <path d="m0 0c-0.208 0-0.336-0.18-0.389-0.534l-0.604-3.862h-1.056l-0.419 2.204-0.38-2.204h-1.111l-0.65 3.812c-0.062 0.389-0.201 0.584-0.41 0.584v1.099h1.645v-1.067c-0.136-0.014-0.209-0.15-0.209-0.412 0-0.128 0.055-0.459 0.155-0.982 0.069-0.336 0.141-0.671 0.207-1.01 0.069 0.337 0.134 0.669 0.201 0.996 0.102 0.524 0.154 0.849 0.154 0.974 0 0.284-0.07 0.426-0.205 0.434v1.067h1.443v-1.044h-0.064c-0.113 0-0.165-0.113-0.165-0.342 0-0.253 0.05-0.624 0.147-1.108 0.073-0.351 0.146-0.705 0.223-1.057 0.073 0.34 0.138 0.687 0.209 1.039 0.096 0.512 0.144 0.854 0.144 1.02 0 0.156-0.015 0.271-0.033 0.331l-0.162 0.094v1.067h1.329z" fill="#bf2033"/>
  </g>
  <g transform="matrix(6.0761 0 0 -6.0761 -109.83 -4.3083)">
   <path d="m0 0h-1.794v0.846l0.197 0.114c0.068 0.082 0.1 0.196 0.1 0.337v2.664c0 0.163-0.03 0.297-0.093 0.398-0.06 0.109-0.132 0.159-0.212 0.159v0.942h1.763v-0.942c-0.085 0-0.158-0.05-0.215-0.15-0.054-0.108-0.08-0.244-0.08-0.412v-2.644c0-0.126 0.038-0.241 0.119-0.334l0.215-0.114z" fill="#bf2033"/>
  </g>
  <g transform="matrix(6.0761 0 0 -6.0761 -87.333 -4.3083)">
   <path d="m0 0h-3.188v0.94c0.086 0 0.162 0.044 0.214 0.139 0.055 0.096 0.079 0.229 0.079 0.398v2.484c0 0.163-0.027 0.297-0.087 0.398-0.06 0.109-0.138 0.159-0.215 0.159v0.942h1.758v-0.942c-0.081 0-0.155-0.05-0.208-0.15-0.052-0.108-0.084-0.244-0.084-0.412v-2.554c0-0.145 0.01-0.248 0.032-0.319l0.087-0.076h0.37c0.202 0 0.309 0.359 0.309 1.082v0.415h0.933z" fill="#bf2033"/>
  </g>
  <g transform="matrix(6.0761 0 0 -6.0761 -64.839 -4.3083)">
   <path d="m0 0h-3.183v0.94c0.086 0 0.153 0.044 0.209 0.139 0.056 0.096 0.081 0.229 0.081 0.398v2.484c0 0.163-0.025 0.297-0.089 0.398-0.064 0.109-0.133 0.159-0.211 0.159v0.942h1.759v-0.942c-0.087 0-0.156-0.05-0.211-0.15-0.054-0.108-0.081-0.244-0.081-0.412v-2.554c0-0.145 8e-3 -0.248 0.024-0.319l0.094-0.076h0.369c0.2 0 0.309 0.359 0.309 1.082v0.415h0.93z" fill="#bf2033"/>
  </g>
  <g transform="matrix(6.0761 0 0 -6.0761 -50.794 -4.3083)">
   <path d="m0 0h-1.792v0.846l0.197 0.114c0.067 0.082 0.099 0.196 0.099 0.337v2.664c0 0.163-0.029 0.297-0.092 0.398-0.064 0.109-0.133 0.159-0.213 0.159v0.942h1.764v-0.942c-0.086 0-0.16-0.05-0.215-0.15-0.054-0.108-0.081-0.244-0.081-0.412v-2.644c0-0.126 0.04-0.241 0.12-0.334l0.213-0.114z" fill="#bf2033"/>
  </g>
  <g transform="matrix(6.0761 0 0 -6.0761 -26.062 -4.3083)">
   <path d="m0 0h-3.554l-4e-3 0.943c0.082 0 0.155 0.05 0.215 0.153 0.059 0.103 0.086 0.237 0.086 0.403v2.462c0 0.155-0.03 0.292-0.09 0.398-0.063 0.104-0.135 0.159-0.216 0.159v0.942h3.563v-2.433h-0.937c0 0.437-0.01 0.714-0.023 0.842-0.039 0.362-0.133 0.541-0.282 0.541h-0.761l-0.091-0.138c-0.011-0.037-0.018-0.106-0.018-0.207v-0.641c0.033-0.112 0.129-0.159 0.289-0.127 0.06 0.129 0.094 0.271 0.096 0.43h0.467v-1.856h-0.435c-6e-3 0.153-0.04 0.278-0.099 0.381-0.059 0.104-0.124 0.158-0.197 0.158l-0.056-0.017-0.047-0.135v-0.846c0-0.115 9e-3 -0.196 0.021-0.244l0.094-0.161h0.737c0.143 0 0.237 0.166 0.278 0.498 0.017 0.136 0.027 0.403 0.027 0.799h0.937z" fill="#bf2033"/>
  </g>
  <g transform="matrix(6.0761 0 0 -6.0761 -17.019 -31.428)">
   <path d="m0 0c0-0.283-0.065-0.566-0.195-0.845-0.137-0.3-0.291-0.45-0.456-0.45h-0.199v0.369c0.069 0 0.13 0.057 0.19 0.172 0.05 0.087 0.09 0.196 0.111 0.315l-0.121 0.102c-0.093 0.042-0.162 0.095-0.199 0.146-0.069 0.095-0.109 0.227-0.109 0.393 0 0.219 0.047 0.402 0.149 0.548 0.101 0.146 0.213 0.217 0.343 0.217 0.146 0 0.268-0.099 0.358-0.3 0.083-0.187 0.128-0.41 0.128-0.667" fill="#bf2033"/>
  </g>
  <g transform="matrix(6.0761 0 0 -6.0761 5.5288 -15.318)">
   <path d="m0 0c0-0.647-0.185-1.145-0.564-1.479-0.285-0.255-0.614-0.383-0.985-0.383-0.129 0-0.305 0.062-0.538 0.186-0.233 0.122-0.391 0.183-0.47 0.183l-0.106-0.101-0.063-0.21h-0.509v1.675h0.655c0.034-0.245 0.138-0.44 0.3-0.587 0.134-0.121 0.278-0.183 0.426-0.183 0.095 0 0.195 0.027 0.29 0.071 0.135 0.068 0.203 0.17 0.203 0.296 0 0.26-0.173 0.457-0.505 0.591-0.504 0.21-0.816 0.369-0.93 0.467-0.335 0.291-0.502 0.753-0.502 1.378 0 0.643 0.186 1.138 0.562 1.489 0.296 0.283 0.625 0.416 0.981 0.416 0.114 0 0.275-0.064 0.484-0.191 0.213-0.131 0.369-0.197 0.467-0.197 0.046 0 0.094 0.081 0.147 0.255h0.493v-1.496h-0.592c-0.253 0.464-0.542 0.697-0.859 0.697l-0.227-0.079c-0.086-0.062-0.131-0.164-0.131-0.301 0-0.195 0.17-0.348 0.511-0.45 0.458-0.144 0.777-0.301 0.951-0.465 0.341-0.328 0.511-0.854 0.511-1.582" fill="#bf2033"/>
  </g>
 </g>
</svg>
