<svg width="800" height="435.14" space="preserve" version="1.1" viewBox="0 0 800 435.14" xmlns="http://www.w3.org/2000/svg">
 <defs>
  <radialGradient id="a" cx="316.37" cy="330.67" r="12.506" gradientTransform="matrix(.97246 .96368 -2.0845 2.1035 715.65 -957.6)" gradientUnits="userSpaceOnUse">
   <stop stop-color="#ee277c" offset="0"/>
   <stop stop-color="#f16476" offset=".46666"/>
   <stop stop-color="#f6a358" offset=".7891"/>
   <stop stop-color="#fbc42b" offset=".91524"/>
   <stop stop-color="#fbce13" offset="1"/>
  </radialGradient>
 </defs>
 <link href="" rel="stylesheet" type="text/css"/>
 <style type="text/css"/>
 <g transform="matrix(8.3187 0 0 8.3187 -2199.9 -134.25)" stroke-width="1.0666">
  <path d="m359.79 16.971c-1.1866 0.35722-2.4446 0.27342-3.6675 0.34073-2.5295 0.04565-5.0684 0.11493-7.5721 0.50832-2.3463 0.37275-4.6719 1.0158-6.7842 2.1195-1.1038 0.59846-2.1785 1.2881-3.0834 2.161-1.7768 1.5263-3.068 3.5598-3.9419 5.7187-1.0168 2.5493-1.462 5.292-1.5915 8.0224-0.1108 2.4996 0.0238 5.0072 0.33441 7.4892 3.5556 0.40796 7.1724 0.54566 10.722 0 2.4156-0.3769 4.8023-1.0923 6.926-2.3204 1.3679-0.80454 2.6466-1.7964 3.6654-3.0183 1.6556-1.8316 2.749-4.1199 3.4355-6.4796 1.0778-3.6623 1.1753-7.5121 1.2332-11.301 0.0549-1.082 0.0119-2.1899 0.32404-3.2409z" fill="#da2e76"/>
  <path d="m360.63 16.139c-1.1866 0.35722-2.4446 0.27342-3.6675 0.34073-2.5295 0.04565-5.0684 0.11493-7.5721 0.50832-2.3463 0.37275-4.6719 1.0158-6.7842 2.1195-1.1038 0.59846-2.1785 1.2881-3.0834 2.161-1.7768 1.5263-3.068 3.5598-3.9419 5.7187-1.0168 2.5493-1.462 5.292-1.5915 8.0224-0.1108 2.4996 0.0238 5.0072 0.33441 7.4892 3.5556 0.40796 7.1724 0.54566 10.722 0 2.4156-0.3769 4.8023-1.0923 6.926-2.3204 1.3679-0.80454 2.6466-1.7964 3.6654-3.0183 1.6556-1.8316 2.749-4.1199 3.4355-6.4796 1.0778-3.6623 1.1753-7.5121 1.2332-11.301 0.0549-1.082 0.0119-2.1899 0.32404-3.2409z" fill="url(#a)"/>
 </g>
 <style type="text/css">.st0{fill:#90298D;}
	.st1{opacity:0.6;fill:url(#SVGID_1_);}</style>
 <g transform="matrix(2.7027 0 0 2.7027 -86.756 -334.87)">
  <g fill="#90298d">
   <path class="st0" d="m75.6 230.8c8.7 0 14.3 3.4 17 5.5 1.7 1.1 1.8 2.9 0.6 4.6l-1 1.5c-1.2 1.8-2.7 1.9-4.6 0.8-2.1-1.5-6.1-3.9-11.5-3.9-10.4 0-18 7.8-18 18.4 0 10.5 7.6 18.6 18.2 18.6 6.2 0 10.7-2.9 13.2-4.7 1.8-1.2 3.4-1 4.6 0.9l0.8 1.5c1 1.7 0.7 3.4-0.9 4.5-2.9 2.3-9.1 6.3-18.4 6.3-16.2 0-27.6-11.5-27.6-27 0-15.3 11.5-27 27.6-27"/>
   <path class="st0" d="m129.4 230.8c15.4 0 27.9 11.3 27.9 26.9 0 15.7-12.5 27.1-27.9 27.1s-27.8-11.4-27.8-27.1c0-15.6 12.4-26.9 27.8-26.9m0 45.5c9.8 0 17.8-7.8 17.8-18.6 0-10.7-8-18.4-17.8-18.4-9.7 0-17.8 7.7-17.8 18.4 0 10.8 8.1 18.6 17.8 18.6"/>
   <path class="st0" d="m168.2 215c0-2.2 1.1-3.4 3.4-3.4h3.2c2.1 0 3.4 1.1 3.4 3.4v53.4c0 5.8 2.6 6.6 4.7 6.8 1.5 0.2 2.7 1 2.7 3v2.5c0 2.1-0.9 3.5-3.5 3.5-5.5 0-13.8-1.5-13.8-14.5v-54.7z"/>
   <path class="st0" d="m219 230.8c15.4 0 27.9 11.3 27.9 26.9 0 15.7-12.5 27.1-27.9 27.1s-27.8-11.4-27.8-27.1c0-15.6 12.4-26.9 27.8-26.9m0 45.5c9.8 0 17.8-7.8 17.8-18.6 0-10.7-8-18.4-17.8-18.4-9.7 0-17.8 7.7-17.8 18.4 0 10.8 8.1 18.6 17.8 18.6"/>
   <path class="st0" d="m257.8 235.4c0-2.2 1.2-3.4 3.4-3.4h2.9c2.2 0 3.4 1.1 3.4 3.4v5.9c0 2.1-0.3 3.9-0.3 3.9h0.2c2.2-6.8 8.1-13.6 15.8-13.6 2.3 0 3.3 1.1 3.3 3.4v2.9c0 2.2-1.3 3.4-3.7 3.4-10.1 0-15 10.9-15 21.1v18c0 2.2-1.1 3.4-3.4 3.4h-3.2c-2.1 0-3.4-1.1-3.4-3.4z"/>
   <path class="st0" d="m291 274.7 1-1.4c1.3-1.7 2.7-1.8 4.7-0.7 2.3 1.5 6.6 4.2 12.7 4.2 5.1 0 8.8-2.5 8.8-6.8 0-10.1-26.6-6.7-26.6-24.2 0-9.8 8.6-14.9 18.7-14.9 7.1 0 11.8 2.5 14.3 4 1.8 0.9 2.1 2.7 1.1 4.5l-0.9 1.5c-1 1.8-2.6 2-4.5 1.1-2.1-1.2-5.6-3-10.5-3s-8.7 2.1-8.7 6.5c0 10.3 26.6 6.6 26.6 24.2 0 8.8-7.5 15.2-18.6 15.2-8.6 0-14.5-3.5-17.4-5.6-1.7-1.2-1.8-2.9-0.7-4.6"/>
  </g>
 </g>
 <g transform="matrix(2.7027 0 0 2.7027 -86.756 -334.87)">
  <g fill="#90298d">
   <path class="st0" d="m46.9 195.8h1.3v-0.6c0-4.1-2.4-5.5-5.4-5.5-2.5 0-4.5 0.9-5.6 1.6-0.9 0.4-1.7 0.3-2.2-0.6l-0.4-0.7c-0.5-0.9-0.3-1.7 0.5-2.2 1.5-0.8 4.3-2.1 8.1-2.1 6.2 0 9.8 3.5 9.8 9.8v14.1c0 1.1-0.6 1.6-1.6 1.6h-1.2c-1 0-1.6-0.5-1.6-1.6v-1.6c0-0.9 0.1-1.5 0.1-1.5h-0.1s-2.3 5.2-8.1 5.2c-4.4 0-8.4-2.7-8.4-7.4-0.1-7.7 9.6-8.5 14.8-8.5zm-5.4 12.1c4.2 0 6.8-4.2 6.8-7.9v-1.1h-1.3c-3.5 0-10.1 0.3-10.1 5-0.1 2 1.5 4 4.6 4z"/>
   <path class="st0" d="m72.4 195.8h1.3v-0.6c0-4.1-2.4-5.5-5.4-5.5-2.5 0-4.5 0.9-5.6 1.6-0.9 0.4-1.7 0.3-2.2-0.6l-0.4-0.7c-0.5-0.9-0.3-1.7 0.5-2.2 1.5-0.8 4.3-2.1 8.1-2.1 6.2 0 9.8 3.5 9.8 9.8v14.1c0 1.1-0.6 1.6-1.6 1.6h-1.2c-1 0-1.6-0.5-1.6-1.6v-1.6c0-0.9 0.1-1.5 0.1-1.5h-0.2s-2.3 5.2-8.1 5.2c-4.4 0-8.4-2.7-8.4-7.4 0-7.7 9.7-8.5 14.9-8.5zm-5.4 12.1c4.2 0 6.8-4.2 6.8-7.9v-1.1h-1.3c-3.5 0-10.1 0.3-10.1 5-0.1 2 1.5 4 4.6 4z"/>
   <path class="st0" d="m85 187.8c0-1.1 0.5-1.6 1.6-1.6h1.1c1.1 0 1.6 0.5 1.6 1.4v1.5c0 0.7-0.1 1.3-0.1 1.3h0.1s2.1-4.8 8.4-4.8c6.7 0 10.9 5.3 10.9 13.1 0 7.9-4.8 13.1-11.3 13.1-5.7 0-7.7-4.4-7.7-4.4h-0.1s0.1 0.9 0.1 2.2v9.9c0 1.1-0.5 1.6-1.6 1.6h-1.5c-1.1 0-1.6-0.5-1.6-1.6v-31.7zm11.7 19.8c3.9 0 7.2-3.2 7.2-8.9 0-5.4-2.9-8.9-7-8.9-3.7 0-7.2 2.6-7.2 9 0 4.4 2.4 8.8 7 8.8z"/>
   <path class="st0" d="m114.2 178c0-1.1 0.5-1.6 1.6-1.6h1.5c1 0 1.6 0.5 1.6 1.6v17.4h3.6l6.1-8.1c0.4-0.7 1-1 1.9-1h1.8c1.3 0 1.8 0.9 1 2l-6.9 9v0.1l8 11.9c0.7 1.1 0.2 2-1.1 2h-2c-0.9 0-1.5-0.3-1.9-1.1l-6.8-10.5h-3.6v10.1c0 1.1-0.5 1.6-1.6 1.6h-1.5c-1.1 0-1.6-0.5-1.6-1.6v-31.8z"/>
   <path class="st0" d="m152.1 195.8h1.3v-0.6c0-4.1-2.4-5.5-5.4-5.5-2.5 0-4.5 0.9-5.6 1.6-0.9 0.4-1.7 0.3-2.2-0.6l-0.4-0.7c-0.5-0.9-0.3-1.7 0.5-2.2 1.5-0.8 4.3-2.1 8.1-2.1 6.2 0 9.8 3.5 9.8 9.8v14.1c0 1.1-0.6 1.6-1.6 1.6h-1.2c-1 0-1.6-0.5-1.6-1.6v-1.6c0-0.9 0.1-1.5 0.1-1.5h-0.1s-2.3 5.2-8.1 5.2c-4.4 0-8.4-2.7-8.4-7.4 0-7.7 9.7-8.5 14.8-8.5zm-5.4 12.1c4.2 0 6.8-4.2 6.8-7.9v-1.1h-1.3c-3.5 0-10.1 0.3-10.1 5 0 2 1.6 4 4.6 4z"/>
  </g>
 </g>
</svg>
