<svg width="800" height="192.1" data-name="Layer 1" version="1.1" viewBox="0 0 800 192.1" xmlns="http://www.w3.org/2000/svg">
 <path class="cls-1" d="m716.88 49.276c-4.3386-8.2914-8.4377-16.708-12.623-25.078l-22.956-1.06e-4c6.382 12.501 13.118 24.823 19.348 37.401-16.762 14.478-34.069 28.34-51.165 42.427h26.421c11.965-9.6835 22.112-17.57 32.429-26.896 4.877 8.6741 9.5841 18.03 13.722 25.562h22.498c-6.7701-12.712-12.848-25.798-19.868-38.375 24.999-20.295 50.192-40.356 75.31-60.504l-39.742 119.27h-142.15l39.67-121.17 116.9-2.061e-4c-19.449 15.556-38.21 31.982-57.792 47.371z" fill="#013ca6" stroke-width="19.052"/>
 <g transform="translate(-13.55 422.63)" fill="#013ca6" stroke-width="1.2842">
  <path d="m502.91-314.75h28.382l24.015-72.816 36.729 72.816h29.024l35.573-107.88h-28.253l-24.144 72.559-37.114-72.303-36.729 24.272z"/>
  <path class="st1" d="m293.58-353.02 11.815-35.959c2.44-5.3938 7.9623-8.7328 13.87-8.476h48.287l37.885-25.171h-83.347c-5.9075 0-35.445 0.77054-42.894 23.373l-17.209 52.525c-5.137 19.649 8.2191 31.978 26.327 31.978h76.797l8.2191-25.043h-64.726c-10.274 0-17.594-3.9811-15.026-13.228"/>
  <path class="st1" d="m221.28-422.63-139.21 107.88h41.224l22.731-17.466 68.578-16.952-10.017 34.418h31.849l30.18-107.88zm-4.8801 67.551h-40.454l52.268-40.325z"/>
  <path class="st1" d="m417.25-353.02 11.815-35.959c2.4401-5.3938 7.9623-8.7328 13.87-8.476h48.287l37.885-25.171h-83.347c-5.9075 0-35.445 0.77054-42.894 23.373l-17.209 52.525c-5.137 19.649 8.0907 31.978 26.198 31.978h76.797l8.2191-25.043h-64.854c-10.017 0-17.337-3.9811-14.769-13.228"/>
 </g>
 <path d="m-0.0044 162.78 595.38-41.206h-542.06z" fill="#a5a8a9" stroke-width="1.3466"/>
 <g transform="matrix(.93145 0 0 .93145 149.07 334.85)" fill="#a5a8a9" stroke-width="1.3466">
  <path class="st0" d="m590.34-191.22c0.6733-5.925-1.7506-11.177-10.907-11.177h-72.177c-7.4062 0-12.254 3.9051-12.927 9.6954-0.26931 2.1545-0.53863 4.0398-0.53863 4.0398h96.281c-0.13466 0 0.13465-1.4812 0.26931-2.5585"/>
  <path class="st0" d="m543.88-183.41-3.6358 30.029h16.294l2.2892-18.718h20.468c5.7903 0 8.8875-3.0972 9.5608-7.2716 0.26931-2.1545 0.53863-4.0398 0.53863-4.0398z"/>
  <path d="m492.17-202.4h-43.764l-1.6159 13.735h43.629z"/>
  <path d="m486.11-153.39 1.6159-13.062h-27.336l0.67329-5.6557h27.336l1.3466-11.311h-43.629l-3.6358 30.029z"/>
  <path class="st0" d="m630.6-202.4h-35.55l-1.7506 13.735h47.265s0-0.53864 0.26932-2.1545c1.2119-9.0221-4.5784-11.581-10.234-11.581"/>
  <path d="m588.99-153.39h16.294l3.6358-30.029h-16.294z"/>
  <path d="m619.96-153.39h16.294l3.7704-30.029h-16.428z"/>
  <path class="st0" d="m528.94-183.41h-35.819c-1.2119 7.8102 2.6932 11.446 8.2142 11.446h22.084l-0.67329 5.6557h-31.779l-1.6159 13.062h35.954c1.2119-0.13466 9.2915-0.26932 11.985-6.8676 0.94262-2.1545 1.7506-9.8301 1.8852-11.446 1.3466-9.6954-5.117-11.85-10.234-11.85"/>
 </g>
</svg>
