<svg width="704.59" height="130.13" version="1.1" viewBox="0 0 660.55 122" xmlns="http://www.w3.org/2000/svg">
 <g transform="translate(98.14 283.56)">
  <path d="m-40.085-236.76c0.14413-6.3128 1.8929-9.9641 7.9655-9.9641 4.8683 0 6.8669 2.8601 6.8669 7.2705 0 5.5537-1.2075 6.6139-7.8021 8.3626-6.0726 1.6206-14.163 2.9626-19.573 5.9477-5.3872 2.9658-8.9039 10.099-8.9039 18.637 0 15.748 7.1552 22.241 19.428 22.241 7.2993 0 14.166-3.7762 17.142-10.259h0.29146c0.08327 2.8409 0.37473 5.8164 1.1851 8.3626h21.03c-2.5399-3.2221-2.5399-10.265-2.5399-15.777v-37.515c0-15.364-7.9655-21.562-25.917-21.562-9.0288 0-15.246 1.2043-20.345 4.6922-5.1374 3.5135-8.0904 9.5989-8.2377 19.563zm-0.39395 28.083c0-4.0676 1.0794-6.3673 3.3694-8.0808 2.0178-1.6238 4.99-1.768 11.857-5.4192 0 2.9626-0.10249 6.7708-0.10249 12.824 0 7.2609-4.2053 9.9833-8.779 9.9833-4.058 0-6.3448-3.5039-6.3448-9.3075"/>
  <path d="m41.124-186.16h21.052v-96.323h-21.863v31.308h-0.27224c-3.616-7.8406-10.252-9.8392-16.306-9.8392-17.952 0-21.155 16.309-21.155 38.982 0 27.24 7.7989 37.768 22.506 37.768 9.6918 0 14.166-5.7972 15.768-10.81h0.26904zm-0.39395-36.016c0 14.153-1.374 21.984-7.8214 21.984-8.2377 0-8.5292-11.178-8.5292-22.92 0-13.241 0.41637-22 8.3819-22 7.4274 0 7.9687 9.9737 7.9687 22.936"/>
  <path d="m129.74-186.16h-21.03v-8.6317h-0.27224c-3.0972 6.4794-9.442 10.528-17.513 10.528-12.44 0-19.054-6.2007-19.054-20.252v-54.615h21.859v49.779c0 5.2527 2.3093 8.3306 6.3448 8.3306 4.1637 0 7.8246-3.2125 7.8246-10.348v-47.761h21.84z"/>
  <path d="m140-282.48h21.863v96.323h-21.863z"/>
  <path d="m177.38-244.03h-9.0481v-15.101h9.0481v-21.446h21.863v21.446h10.108v15.101h-10.108v36.839c0 5.0989 1.8737 6.7196 7.0078 6.7196 0.93523 0 2.1651-0.12491 3.1004-0.24982v14.56c-4.1797 0.54129-8.3819 0.81033-12.546 0.81033-15.098 0-19.425-2.6904-19.425-19.698z"/>
  <path d="m254.76-209.35c0.16655 3.2445 0.41637 6.0726 1.4957 8.2345 1.2299 2.0306 3.2285 3.3726 6.7644 3.3726 5.115 0 7.8182-3.2765 7.8182-7.4274 0-3.379-1.6206-6.6043-8.3626-8.9007-17.952-6.0566-26.58-9.5701-26.58-24.953 0-14.573 10.252-21.988 27.807-21.988 20.489 0 26.443 9.9641 26.443 20.492v2.4534h-19.448v-1.3836c0-6.3128-2.5623-8.052-7.1584-8.052-5.8036 0-7.4242 2.7993-7.4242 6.71 0 12.949 34.946 4.3463 34.946 32.669 0 14.685-9.8616 23.861-27.897 23.861-19.576 0-27.81-7.2801-27.81-21.843v-3.2445z"/>
  <path d="m293.61-259.13h21.84l7.0527 53.814h0.24982l8.2185-53.814h23.483l7.6964 53.814h0.24982l7.7221-53.814h21.027l-15.768 72.971h-24.691l-7.9463-53.834h-0.26904l-8.5292 53.834h-25.066z"/>
  <path d="m397.62-283.56h21.882v16.735h-21.882zm0 24.431h21.882v72.971h-21.882z"/>
  <path d="m429.47-259.13h21.03v8.6221h0.29146c3.0811-6.4922 9.4452-10.505 17.516-10.505 6.3416 0 14.727 1.2043 17.949 11.181 5.163-8.4779 9.9865-11.181 18.099-11.181 12.398 0 18.993 6.1975 18.993 20.22v54.634h-21.863v-49.779c0-5.2527-2.2676-8.3594-6.3256-8.3594-4.1797 0-7.8406 3.2541-7.8406 10.4v47.738h-21.843v-49.779c0-5.2527-2.2836-8.3594-6.3448-8.3594-4.1605 0-7.8182 3.2541-7.8182 10.4v47.738h-21.843z"/>
  <path d="m-98.14-282.67h34.133v15.111h-13.913v90.903h13.913v15.092h-34.133z"/>
  <path d="m528.32-176.65h13.894v-90.903h-13.894v-15.111h34.094v121.11h-34.094z"/>
 </g>
</svg>
