<svg width="1065.6" height="650.8" version="1.1" viewBox="0 0 999 610.13" xmlns="http://www.w3.org/2000/svg">
 <g transform="translate(-37 -974.83)">
  <g transform="matrix(1.4322 0 0 1.4322 -15.99 -684.97)">
   <path d="m165 1212.9-93 221h78.406l11.25-29h77.344l11.344 29h25.656v-128l-39-93zm35.25 86.188 20.406 53.812h-40.656z" fill="#a62029"/>
   <path d="m286 1380.9v-222h73.5v77.5h67.5v-77.5h73v222l-73-28.058v-53.442h-67.5v53.5z" fill="#a62029"/>
   <path d="m286 1433.9v-43.529l107-41.471 107 41.411v43.589l-106.76-40.882z" fill="#203165"/>
   <path d="m510 1393.9v-146c22.126-24.069 51.033-38.12 88.822-38.12 46.049 0 79.297 20.99 99.058 56.773l-60.542 35.571c-11.709-19.036-20.076-26.384-39.812-26.384-22.479 0-41.225 17.57-41.225 48.056 0 31.469 18.008 49.117 41.461 49.117 20.605 0 31.449-11.994 41.225-27.444l60.895 34.04c-19.364 32.434-52.395 59.364-102.47 59.364-45.202 0-75.784-23.508-87.409-44.973z" fill="#a62029"/>
   <rect x="37" y="1469.9" width="697.54" height="10" fill="#203165"/>
   <g transform="matrix(1.3441 0 0 1.3441 45.736 376.26)" fill="#203165" stroke="#203165" stroke-width="1.2976">
    <path d="m59.775 870.66-12-28.199h-5.6799l-12.001 28.199h6.2805l2.5598-6.2805h11.84l2.561 6.2805zm-11.2-11.72h-7.4402l3.7207-9.0796z"/>
    <path d="m93.979 870.66v-28h-6.6394l-7.3608 11.841-7.3596-11.841h-6.6394v28h6.0388v-18.16l7.8003 11.841h0.15991l7.8809-11.96v18.28z"/>
    <path d="m125.08 870.66v-5.4797h-15.2v-5.8801h13.199v-5.4797h-13.199v-5.6799h15v-5.481h-21.119v28z"/>
    <path d="m158.23 870.66-6.8396-10c1.7863-0.6665 3.2328-1.713 4.3396-3.1396 1.1067-1.4266 1.6601-3.2735 1.6602-5.5408v-0.0793c-3e-5 -2.9069-0.92675-5.1737-2.7802-6.8005-1.8534-1.6268-4.4468-2.4402-7.7802-2.4402h-12.799v28h6.1597v-8.96h4.8401l5.9998 8.96zm-7.0801-18.361c-2e-5 1.2004-0.40672 2.1607-1.2201 2.8809-0.81342 0.72023-1.9798 1.0803-3.4992 1.0803h-6.2402v-8.0408h6.1194c1.5202 2e-5 2.7069 0.33348 3.5602 1.0004 0.85326 0.66693 1.2799 1.6669 1.2799 2.9999z"/>
    <path d="m172.23 870.66v-28h-6.1597v28z"/>
    <path d="m205.62 866.14-3.9197-3.96c-1.0938 1.0132-2.194 1.8132-3.3008 2.3999-1.1068 0.58676-2.4601 0.88014-4.0601 0.88013-1.1996 1e-5 -2.2994-0.23335-3.2996-0.70007-1.0002-0.46671-1.8536-1.1-2.5604-1.9-0.7068-0.79996-1.2602-1.7332-1.6602-2.7997-0.39999-1.0665-0.59998-2.1999-0.59997-3.4003v-0.0793c-1e-5 -1.2004 0.19998-2.3273 0.59997-3.3807 0.39998-1.0534 0.96007-1.9802 1.6803-2.7802 0.7202-0.79995 1.5802-1.4266 2.58-1.8799 0.99975-0.45326 2.0864-0.6799 3.2599-0.67993 1.4136 3e-5 2.687 0.27997 3.8202 0.83985 1.1332 0.55991 2.2467 1.3334 3.3405 2.3206l3.9197-4.5203c-0.63967-0.63962-1.3328-1.2262-2.0795-1.7596-0.74669-0.53343-1.5601-0.98692-2.4402-1.3605-0.88015-0.37351-1.8602-0.66688-2.9401-0.88013-1.0799-0.21318-2.2734-0.31979-3.5803-0.31982-2.1598 3e-5 -4.1331 0.38007-5.9198 1.1401-1.7867 0.76012-3.3201 1.8002-4.6002 3.1201-1.2801 1.32-2.2801 2.8534-2.9999 4.6002-0.71981 1.7468-1.0797 3.62-1.0797 5.6195v0.0806c-1e-5 1.9995 0.3599 3.8794 1.0797 5.6396 0.7198 1.7603 1.7198 3.287 2.9999 4.5801s2.8001 2.313 4.5599 3.0597c1.7598 0.74666 3.6664 1.12 5.7196 1.12 1.3607 0 2.5877-0.11332 3.681-0.33996 1.0933-0.22665 2.1-0.5599 3.02-0.99976 0.91998-0.43986 1.7665-0.96659 2.5397-1.5802 0.77309-0.6136 1.5198-1.307 2.24-2.0801z"/>
    <path d="m240.31 870.66-12-28.199h-5.6799l-12.001 28.199h6.2805l2.5598-6.2805h11.84l2.561 6.2805zm-11.2-11.72h-7.4402l3.7207-9.0796z"/>
    <path d="m271.71 870.66v-28h-6.0803v17.24l-13.119-17.24h-5.6799v28h6.0791v-17.8l13.561 17.8z"/>
    <path d="m317.32 870.66v-28h-6.1597v11.08h-11.36v-11.08h-6.1597v28h6.1597v-11.24h11.36v11.24z"/>
    <path d="m348.58 870.66v-5.4797h-15.2v-5.8801h13.199v-5.4797h-13.199v-5.6799h15v-5.481h-21.119v28z"/>
    <path d="m381.23 870.66-6.8396-10c1.7863-0.6665 3.2328-1.713 4.3396-3.1396 1.1067-1.4266 1.6601-3.2735 1.6602-5.5408v-0.0793c-3e-5 -2.9069-0.92675-5.1737-2.7802-6.8005-1.8534-1.6268-4.4468-2.4402-7.7802-2.4402h-12.799v28h6.1597v-8.96h4.8401l5.9998 8.96zm-7.0801-18.361c-2e-5 1.2004-0.40672 2.1607-1.2201 2.8809-0.81342 0.72023-1.9798 1.0803-3.4992 1.0803h-6.2402v-8.0408h6.1194c1.5202 2e-5 2.7069 0.33348 3.5602 1.0004 0.85326 0.66693 1.2799 1.6669 1.2799 2.9999z"/>
    <path d="m416.62 856.66v-0.0793c-3e-5 -2.0003-0.36665-3.8739-1.0999-5.6207-0.73326-1.7468-1.7599-3.2668-3.0798-4.5599-1.32-1.2931-2.8868-2.3197-4.7003-3.0798-1.8136-0.76007-3.8003-1.1401-5.9601-1.1401-2.1598 3e-5 -4.153 0.38007-5.9796 1.1401-1.8266 0.76012-3.3999 1.8002-4.7198 3.1201-1.32 1.32-2.3533 2.8534-3.1 4.6002-0.74666 1.7468-1.12 3.62-1.12 5.6195v0.0806c-1e-5 1.9995 0.36661 3.8727 1.0998 5.6195 0.73323 1.7468 1.7598 3.2668 3.0798 4.5599s2.8866 2.3198 4.6997 3.0798c1.8131 0.7601 3.8 1.1401 5.9607 1.1401 2.1598 0 4.153-0.38004 5.9796-1.1401 1.8266-0.76008 3.3998-1.8001 4.7198-3.1201s2.3533-2.8532 3.1-4.5996c0.74663-1.7464 1.12-3.6198 1.12-5.6201zm-6.4404 0.0806c-3e-5 1.1996-0.20653 2.3261-0.61951 3.3795-0.41303 1.0535-0.98635 1.9802-1.72 2.7802-0.73366 0.79997-1.6205 1.4266-2.6605 1.8799-1.0401 0.45329-2.1733 0.67994-3.3997 0.67993-1.2533 1e-5 -2.3932-0.23335-3.4198-0.70007-1.0266-0.46671-1.92-1.1-2.68-1.9-0.7601-0.79996-1.3469-1.7332-1.7603-2.7997-0.41342-1.0665-0.62012-2.1999-0.62011-3.4003v-0.0793c-1e-5 -1.2004 0.20669-2.3273 0.62011-3.3807 0.4134-1.0534 0.98673-1.9802 1.72-2.7802 0.73323-0.79995 1.6134-1.4266 2.6404-1.8799 1.027-0.45326 2.1671-0.6799 3.4204-0.67993 1.2264 3e-5 2.3596 0.23338 3.3997 0.70008 1.04 0.46673 1.9401 1.1001 2.7002 1.9 0.76007 0.79999 1.3466 1.7334 1.7596 2.8003 0.41298 1.0669 0.61948 2.2001 0.61951 3.3997z"/>
    <path d="m445.39 870.66v-5.4797h-15.2v-5.8801h13.199v-5.4797h-13.199v-5.6799h15v-5.481h-21.119v28z"/>
    <path d="m474.89 862.38v-0.0806c-3e-5 -1.2264-0.1933-2.2796-0.57984-3.1598-0.38657-0.88011-0.9599-1.6467-1.72-2.2998-0.76011-0.65306-1.6935-1.213-2.8003-1.6797s-2.3666-0.88683-3.7793-1.2604c-1.2004-0.31981-2.1938-0.59975-2.9803-0.83984-0.78655-0.24006-1.4065-0.49335-1.8597-0.75989-0.4533-0.2665-0.76661-0.56639-0.93995-0.89966-0.17334-0.33323-0.26001-0.7265-0.26001-1.1798v-0.0806c0-0.69334 0.29988-1.2734 0.89966-1.7401 0.59977-0.46669 1.4998-0.70005 2.7002-0.70007 1.1995 2e-5 2.3993 0.24681 3.5992 0.74036 1.1999 0.49359 2.4269 1.1668 3.681 2.0196l3.1995-4.6399c-1.4396-1.1466-3.0196-2.0266-4.74-2.6398-1.7204-0.61317-3.6072-0.91977-5.6604-0.9198-1.4396 3e-5 -2.7594 0.20002-3.9594 0.59997-1.2 0.40001-2.2333 0.97334-3.1 1.72-0.86671 0.74669-1.5401 1.6333-2.0203 2.6599-0.48014 1.0266-0.72021 2.18-0.72021 3.4601v0.0793c0 1.3867 0.21993 2.5468 0.65979 3.4802 0.43986 0.93345 1.06 1.7135 1.8604 2.3401 0.80037 0.62664 1.7739 1.1534 2.9205 1.5802 1.1466 0.42685 2.4263 0.81361 3.8391 1.1603 1.1735 0.29298 2.1269 0.57272 2.8601 0.83923 0.73322 0.26653 1.3066 0.53325 1.72 0.80017 0.4134 0.26694 0.69355 0.5536 0.84046 0.85998 0.14687 0.30641 0.22032 0.6598 0.22033 1.0602v0.0806c-1e-5 0.82602-0.35341 1.4724-1.0602 1.9391-0.7068 0.46672-1.7002 0.70008-2.9803 0.70007-1.6 1e-5 -3.0733-0.30659-4.4202-0.9198-1.3468-0.61319-2.6599-1.4398-3.9392-2.4799l-3.6401 4.3604c1.6797 1.5194 3.5461 2.6459 5.5994 3.3795 2.0532 0.73364 4.1467 1.1005 6.2805 1.1005 1.5202 0 2.9069-0.19349 4.1602-0.58045 1.2532-0.38696 2.3332-0.94706 3.2398-1.6803 0.90655-0.73323 1.6131-1.6398 2.1198-2.7197 0.50657-1.0799 0.75986-2.3132 0.75989-3.7z"/>
   </g>
   <g transform="matrix(.8562 0 0 .8562 168.68 855.28)" fill="#203165" stroke="#203165" stroke-width="1.4669">
    <path d="m173.24 846.57-2.0801-2.0398c-1.3338 1.2793-2.6939 2.2724-4.0802 2.9791-1.3863 0.70679-3.0398 1.0602-4.9603 1.0602-1.5462 0-2.9793-0.29988-4.2993-0.89966-1.32-0.59977-2.4666-1.4197-3.4399-2.4597-0.97331-1.04-1.7334-2.2668-2.2803-3.6804-0.54688-1.4136-0.82032-2.9337-0.82031-4.5605-1e-5 -1.626 0.27343-3.139 0.82031-4.5392 0.54687-1.4001 1.307-2.6202 2.2803-3.6603 0.9733-1.04 2.12-1.8534 3.4399-2.4402 1.32-0.58673 2.7531-0.8801 4.2993-0.88013 1.9206 3e-5 3.5675 0.36014 4.9408 1.0803 1.3733 0.72024 2.6597 1.6402 3.8592 2.76l2.1606-2.3206c-0.69338-0.66648-1.4134-1.273-2.16-1.8195-0.74669-0.54644-1.5601-1.0132-2.4402-1.4002-0.88015-0.38693-1.8335-0.68702-2.8601-0.90027-1.0266-0.21318-2.18-0.31979-3.4601-0.31982-2.0532 3e-5 -3.9465 0.38007-5.6799 1.1401-1.7334 0.76012-3.2267 1.8002-4.48 3.1201-1.2533 1.32-2.2333 2.8599-2.9401 4.6198-0.70679 1.7599-1.0602 3.6399-1.0602 5.6402-1e-5 2.0264 0.35339 3.9197 1.0602 5.6799 0.70678 1.7603 1.6868 3.287 2.9401 4.5801 1.2532 1.2931 2.7332 2.313 4.4397 3.0597 1.7065 0.74666 3.5734 1.12 5.6006 1.12 1.2801 0 2.4402-0.12003 3.4802-0.36011 1.04-0.24007 2.0133-0.57332 2.9199-0.99975 0.90655-0.42643 1.7531-0.93974 2.5397-1.5399 0.78652-0.60017 1.5399-1.2734 2.2601-2.0196z"/>
    <path d="m202.96 838.41v12.6h3.1604v-28h-3.1604v12.44h-16.16v-12.44h-3.1604v28h3.1604v-12.6z"/>
    <path d="m232.31 822.81h-2.9602l-12.76 28.199h3.2398l3.3203-7.3999h15.24l3.2788 7.3999h3.4009zm4.8401 17.959h-12.76l6.4001-14.28z"/>
    <path d="m274.94 845.45-17.64-22.44h-2.9602v28h3.0798v-22.96l18.08 22.96h2.5208v-28h-3.0798z"/>
    <path d="m311.56 845.45-17.64-22.44h-2.9602v28h3.0798v-22.96l18.08 22.96h2.5208v-28h-3.0798z"/>
    <path d="m346.27 823.01h-20.24v28h20.439v-2.8796h-17.279v-9.7998h15.28v-2.8809h-15.28v-9.5593h17.08z"/>
    <path d="m358.27 851.01h18.92v-2.9199h-15.759v-25.081h-3.1604z"/>
   </g>
  </g>
 </g>
</svg>
