<svg width="600pt" height="291.36pt" version="1.1" viewBox="0 0 800 388.49" xmlns="http://www.w3.org/2000/svg">
 <g transform="matrix(3.6217 0 0 3.6217 -118.62 -66.005)" fill="#fff">
  <path d="m171.81 18.225h7.7432c3.0106 2.3168 2.7868 7.1067 0.48 9.7352l-83.98 97.53-20.91 2.5e-4c-2.8877-2.5659-2.2415-7.5763-0.3-10.34l46.77-69.99c1.8111-2.7548 0.59678-7.0414-2.57-5.49l-31.17 15.51c-12.333 6.6794-8.518 10.335-3.6445 10.335h6.8145c6.0448 0 4.9343 11.985-2.92 11.985h-47.253c-12.61-1.3441-7.5951-9.1311-4.2669-10.58l89.45-37.76c17.655-8.1601 15.568 0.6128 9 11.73l-19.38 32.01c-1.2798 2.5329 0.84685 6.3631 2.6 4.61z"/>
  <path d="m192.02 18.225h19.12c6.9968 0 6.2831 6.3241 3.2 11.095l-44.94 67.77c-0.68875 1.1848-0.19122 4.1965 1.58 3.67l28.39-14.7c2.1373-1.234 1.2378-6.2489-2.6942-6.8756-4.4297-0.87498-5.371-5.2019-3.6998-7.4757l5.1739-6.2037h47.744c11.939 0 8.8401 9.9518-0.89445 14.335l-88.05 37.51c-8.0262 3.4651-11.616-2.7265-8.52-7.58l22.19-36.75c0.58411-0.94343 0.82238-1.8459 0.68428-2.7028-0.16736-1.0384-2.2381-3.1105-3.1243-2.1072l-51.32 57.28h-6.2855c-7.162 0.0827-5.7178-6.9348-2.5045-10.55z"/>
 </g>
</svg>
