<svg width="749.1" height="195.43" enable-background="new 0 0 770.132 212.854" version="1.1" viewBox="0 0 749.1 195.43" xml:space="preserve" xmlns="http://www.w3.org/2000/svg"><path d="m68.228 91.015 19.175 19.397s-12.939 30.991-55.294 32.552c-35.601 0.132-32.008-36.343-32.008-36.343s4.808-61.537 78.607-71.793c0 0 49.498-9.587 52.619 39.241 0 0-0.154 39.73-14.891 68.936h-29.75s16.77-50.652 15.655-70.719-12.708-22.742-22.965-21.627-54.904 12.506-56.855 50.389c0 0-1.561 12.04 8.026 11.817 1e-3 0 15.378 1.632 37.681-21.85z" fill="#ee3439"/><path d="m445.23 91.015 19.175 19.397s-12.939 30.991-55.295 32.552c-35.6 0.132-32.008-36.343-32.008-36.343s4.808-61.537 78.607-71.793c0 0 49.498-9.587 52.619 39.241 0 0-0.154 39.73-14.892 68.936h-29.749s16.77-50.652 15.655-70.719-12.708-22.742-22.965-21.627-54.904 12.506-56.854 50.389c0 0-1.562 12.04 8.025 11.817 1e-3 0 15.378 1.632 37.682-21.85z" fill="#ee3439"/><path d="m138.78 143.01s15.063-64.701 22.421-80.085 34.113-18.283 44.146-18.283h45.261s2.453 16.053-32.106 14.938-36.193 12.68-36.193 12.68l-16.125 70.75z" fill="#ee3439"/><path d="m281.78 143.01s15.063-64.701 22.421-80.085c7.357-15.384 34.112-18.283 44.146-18.283h45.261s2.453 16.053-32.105 14.938c-34.56-1.115-36.193 12.679-36.193 12.679l-16.125 70.75h-27.405z" fill="#ee3439"/><path d="m261.31 44.638s-26.984 96.584-27.876 98.368h29.001s21.172-76.072 25.631-98.368z" fill="#ee3439"/><path d="m284.72 0s-14.716 0.27-18.506 18.553c-0.446 11.371 11.371 11.148 11.371 11.148s13.601 0.445 17.837-10.256 5.797-19.445-10.702-19.445z" fill="#ee3439"/><path d="m508.2 143.01 23.733-98.368h59s37.228 0.259 34.525 19.002-16.381 74.975-19.082 79.365h-26.511s17.224-69.74 17.393-73.455 0-8.95-18.237-9.119-22.966-0.337-24.316 5.235-17.562 68.558-17.562 68.558-2.194 8.612-10.807 8.781-18.136 1e-3 -18.136 1e-3z" fill="#ee3439"/><path d="m707.06 45.506s-63.913 2.092-71.344 65.415c-2.026 34.279 32.111 32.085 33.969 32.085 0 0 28.171 1.687 39.654-13.173 0 0-7.183 53.043-40.279 50.173l-13.146-0.122-4.663 15.116s37.993 4.067 56.399-12.819 37.304-39.176 41.448-101.49c1e-3 -1e-3 1.022-41.606-42.038-35.189zm15.972 33.853c-6.404 43.161-41.908 42.326-41.908 42.326s-26.314 2.228-22.973-20.606c7.24-42.326 45.945-42.883 45.945-42.883s20.885-2.506 18.936 21.163z" fill="#ee3439"/></svg>
