<svg width="800" height="130.78" version="1.1" viewBox="0 0 211.67 34.601" xmlns="http://www.w3.org/2000/svg">
 <path d="m163.12 17.3c0 9.5543-7.7468 17.301-17.301 17.301s-17.301-7.7468-17.301-17.301c0-9.5543 7.7468-17.301 17.301-17.301s17.301 7.7468 17.301 17.301" clip-path="url(#b)" fill="#fff" stroke-width="1.2911"/>
 <g transform="matrix(1.4062 0 0 1.4062 -39.875 -19.271)" fill="#fff" stroke-width=".91816">
  <path d="m175.3 24.63c-1.3772-0.73453-2.479-1.2854-2.479-2.3872 0-0.73453 0.64271-1.1936 1.7445-1.1936 1.1936 0 2.3872 0.36726 3.3972 0.91816v-2.7545c-1.1018-0.45908-2.2036-0.73453-3.3972-0.73453-3.2136 0-4.6826 1.9281-4.6826 4.0399 0 2.479 1.6527 3.6726 3.489 4.5908 1.8363 1.01 2.479 1.3772 2.479 2.3872 0 0.82634-0.73453 1.3772-2.02 1.3772-1.3772 0-2.7545-0.5509-3.8563-1.4691v2.9381c1.1018 0.73453 2.479 1.1018 3.7644 1.1936 3.1217 0 5.1417-1.6527 5.1417-4.3153 0.0918-2.6627-2.2954-3.8563-3.5808-4.5908" clip-path="url(#b)"/>
  <path d="m151.24 18.662h-3.9481v14.782h2.9381v-4.6826h0.55089c3.6726 0 5.8762-1.9281 5.8762-5.0499s-2.02-5.0499-5.4171-5.0499m-1.01 2.479h0.82634c1.7445 0 2.8463 1.01 2.8463 2.479 0 1.6527-1.01 2.5708-2.7545 2.5708h-0.91816z" clip-path="url(#b)"/>
  <path d="m166.02 25.456c1.01-0.73453 1.469-1.6527 1.469-3.0299 0-2.2954-1.7445-3.7644-4.499-3.7644h-4.499v14.782h4.6826c3.5808 0 5.2335-2.2954 5.2335-4.499 0-1.6527-0.91816-3.0299-2.3872-3.489m-3.2136-4.3153c1.1018 0 1.8363 0.73453 1.8363 1.8363 0 1.1018-0.82634 1.8363-2.02 1.8363h-1.1936v-3.6726zm-1.4691 9.8243v-3.8563h1.8363c1.469 0 2.3872 0.73453 2.3872 1.9281 0 1.2854-0.91816 1.9281-2.5708 1.9281z" clip-path="url(#b)"/>
 </g>
 <g transform="matrix(1.2911 0 0 1.2911 -506.72 -1049)" fill="#2638c4">
  <path d="m515.2 826.1-1.5 0.3v2.8c0 0.9-0.8 1.7-1.7 1.7h-0.8v3.2h-2.5v-3.2h0.8c0.9 0 1.7-0.7 1.7-1.6v-2.8l1.5-0.3c0.3-0.1 0.4-0.3 0.4-0.6v-0.1l-3.9-7.5h2.5l3.9 7.5c0.1 0.2 0 0.5-0.2 0.7-0.1-0.2-0.2-0.1-0.2-0.1" clip-path="url(#b)"/>
  <path d="m510.2 825.4-3.9-7.5h-4c-3.7 0-6.8 3-6.7 6.7 0.1 2.7 1.8 4.8 4.3 5.6v3.8h6v-3.2h0.8c0.9 0 1.7-0.7 1.7-1.6v-2.8l1.5-0.3c0.3-0.1 0.4-0.3 0.4-0.6l-0.1-0.1m-5.1-0.5c-0.8 0-1.5-0.7-1.5-1.5s0.7-1.5 1.5-1.5 1.5 0.7 1.5 1.5-0.7 1.5-1.5 1.5" clip-path="url(#b)"/>
 </g>
 <g transform="matrix(.71842 0 0 .71842 568.64 532.86)" fill="#fff" aria-label="Arkansas">
  <path d="m-774.07-708.41h-9.2l-1.64 5h-6.6l10.24-27.24h5.36l10.24 27.24h-6.72zm-1.68-4.88-3-8.88-2.92 8.88z"/>
  <path d="m-751.97-723.89q1.12 0 1.84 0.2v5.76q-0.56-0.16-1.2-0.28-0.6-0.12-1.28-0.12-1.4 0-2.52 0.64-1.12 0.6-1.84 1.56v12.72h-6v-20.16h5.16l0.72 2.48q0.76-1.32 2.04-2.04 1.32-0.76 3.08-0.76z"/>
  <path d="m-734.16-703.41-6.64-9.16v9.16h-6v-29.08h6v17.88l6.36-8.96h7.08l-7.28 9.92 7.64 10.24z"/>
  <path d="m-716.29-724.05q4.52 0 6.72 2.2 2.24 2.16 2.24 6.04v12.4h-4.8l-0.68-1.68q-1 0.88-2.6 1.52-1.56 0.6-3.44 0.6-3 0-4.84-1.64-1.84-1.68-1.84-4.6 0-3.56 2.68-5.12 2.68-1.6 6.64-1.6 1.48 0 2.88 0.24 0-1.76-0.8-2.68-0.76-0.96-3.16-0.96-1.52 0-3.2 0.4-1.68 0.36-3.2 1.08v-4.88q3.68-1.32 7.4-1.32zm-3.08 14.4q0 0.92 0.64 1.48t1.8 0.56q1.8 0 3.6-1.2v-3.2q-0.92-0.12-1.88-0.12-1.84 0-3 0.56t-1.16 1.92z"/>
  <path d="m-690.19-724.05q3.28 0 5.16 1.88 1.92 1.88 1.92 5.36v13.4h-6v-12.12q0-3.32-3.08-3.32-2.16 0-4 1.84v13.6h-6v-20.16h5.16l0.48 1.84q1.32-1.12 2.8-1.72 1.52-0.6 3.56-0.6z"/>
  <path d="m-672.61-702.97q-3.68 0-6.44-1.16v-4.88q1.16 0.64 2.84 1.08 1.68 0.4 3.12 0.4 1.52 0 2.4-0.44t0.88-1.24q0-0.56-0.32-0.92-0.28-0.4-1.04-0.76t-2.36-0.92q-3.04-1.08-4.36-2.52-1.28-1.44-1.28-3.68 0-1.76 1-3.12 1-1.4 2.88-2.16 1.92-0.8 4.52-0.8 3.16 0 5.64 0.92v4.6q-0.96-0.4-2.4-0.68-1.4-0.28-2.72-0.28-1.52 0-2.4 0.4-0.84 0.36-0.84 0.96 0 0.52 0.44 0.92 0.48 0.36 1.44 0.76 1 0.4 2.16 0.8 2.88 1.08 4.12 2.52t1.24 3.88q0 2.88-2.24 4.6-2.2 1.72-6.28 1.72z"/>
  <path d="m-652-724.05q4.52 0 6.72 2.2 2.24 2.16 2.24 6.04v12.4h-4.8l-0.68-1.68q-1 0.88-2.6 1.52-1.56 0.6-3.44 0.6-3 0-4.84-1.64-1.84-1.68-1.84-4.6 0-3.56 2.68-5.12 2.68-1.6 6.64-1.6 1.48 0 2.88 0.24 0-1.76-0.8-2.68-0.76-0.96-3.16-0.96-1.52 0-3.2 0.4-1.68 0.36-3.2 1.08v-4.88q3.68-1.32 7.4-1.32zm-3.08 14.4q0 0.92 0.64 1.48t1.8 0.56q1.8 0 3.6-1.2v-3.2q-0.92-0.12-1.88-0.12-1.84 0-3 0.56t-1.16 1.92z"/>
  <path d="m-632.53-702.97q-3.68 0-6.44-1.16v-4.88q1.16 0.64 2.84 1.08 1.68 0.4 3.12 0.4 1.52 0 2.4-0.44t0.88-1.24q0-0.56-0.32-0.92-0.28-0.4-1.04-0.76t-2.36-0.92q-3.04-1.08-4.36-2.52-1.28-1.44-1.28-3.68 0-1.76 1-3.12 1-1.4 2.88-2.16 1.92-0.8 4.52-0.8 3.16 0 5.64 0.92v4.6q-0.96-0.4-2.4-0.68-1.4-0.28-2.72-0.28-1.52 0-2.4 0.4-0.84 0.36-0.84 0.96 0 0.52 0.44 0.92 0.48 0.36 1.44 0.76 1 0.4 2.16 0.8 2.88 1.08 4.12 2.52t1.24 3.88q0 2.88-2.24 4.6-2.2 1.72-6.28 1.72z"/>
 </g>
</svg>
