<svg width="600pt" height="465.5pt" version="1.1" viewBox="0 0 600 465.5" xmlns="http://www.w3.org/2000/svg">
 <path d="m300.01 0c-111.49 0-232.34 3.3731-248.04 8.0115-21.613 8.1203-34.63 12.175-40.361 47.366-5.833 35.182-11.612 127.31-11.612 177.37s5.7794 142.19 11.612 177.38c5.7311 35.191 18.748 39.246 40.361 47.366 15.695 4.6384 136.55 8.0115 248.04 8.0115 118.83 0 233.06-2.8773 248.09-8.0115 21.613-8.1203 34.63-12.184 40.361-47.366 5.7699-35.186 11.539-127.31 11.539-177.38s-5.7689-142.19-11.539-177.37c-5.7312-35.182-18.748-39.246-40.361-47.366-15.031-5.1342-129.26-8.0115-248.09-8.0115z" fill="#c00" stroke-width="4.6259"/>
 <g transform="matrix(1.5704 0 0 1.5704 -14.534 -411.31)" fill="#fff">
  <path d="m40.218 350.4h148.67v45.272h-47.63v125.92h-53.407v-125.92h-47.629z"/>
  <path d="m196.37 350.4h51.808l30.516 109.71 30.929-109.71h50.366l-53.016 171.19h-56.558z"/>
 </g>
 <g transform="matrix(2.038 0 0 2.038 -1303.5 521.28)" fill="#fff" stroke="#fff" stroke-width="1.1558" aria-label="AS SEEN ON">
  <path d="m693.49-198.98h-6.2891l-2.5-6.5039h-11.445l-2.3633 6.5039h-6.1328l11.152-28.633h6.1133zm-10.645-11.328-3.9453-10.625-3.8672 10.625z"/>
  <path d="m695.11-208.3 5.625-0.54687q0.50781 2.832 2.0508 4.1602 1.5625 1.3281 4.1992 1.3281 2.793 0 4.1992-1.1719 1.4258-1.1914 1.4258-2.7734 0-1.0156-0.60547-1.7188-0.58594-0.72266-2.0703-1.25-1.0156-0.35157-4.6289-1.25-4.6484-1.1524-6.5234-2.832-2.6367-2.3633-2.6367-5.7617 0-2.1875 1.2305-4.082 1.25-1.9141 3.5742-2.9102 2.3438-0.9961 5.6445-0.9961 5.3906 0 8.1055 2.3633 2.7344 2.3633 2.8711 6.3086l-5.7812 0.25391q-0.3711-2.207-1.6016-3.1641-1.2109-0.97656-3.6523-0.97656-2.5195 0-3.9453 1.0352-0.91797 0.66406-0.91797 1.7773 0 1.0156 0.85937 1.7383 1.0938 0.91797 5.3125 1.9141 4.2188 0.9961 6.2305 2.0703 2.0312 1.0547 3.1641 2.9102 1.1524 1.8359 1.1524 4.5508 0 2.4609-1.3672 4.6094t-3.8672 3.2031q-2.5 1.0352-6.2305 1.0352-5.4297 0-8.3398-2.5-2.9102-2.5195-3.4766-7.3242z"/>
  <path d="m732.92-208.3 5.625-0.54687q0.50781 2.832 2.0508 4.1602 1.5625 1.3281 4.1992 1.3281 2.793 0 4.1992-1.1719 1.4258-1.1914 1.4258-2.7734 0-1.0156-0.60547-1.7188-0.58594-0.72266-2.0703-1.25-1.0156-0.35157-4.6289-1.25-4.6484-1.1524-6.5234-2.832-2.6367-2.3633-2.6367-5.7617 0-2.1875 1.2305-4.082 1.25-1.9141 3.5742-2.9102 2.3438-0.9961 5.6445-0.9961 5.3906 0 8.1055 2.3633 2.7344 2.3633 2.8711 6.3086l-5.7812 0.25391q-0.3711-2.207-1.6016-3.1641-1.2109-0.97656-3.6523-0.97656-2.5195 0-3.9453 1.0352-0.91797 0.66406-0.91797 1.7773 0 1.0156 0.85937 1.7383 1.0938 0.91797 5.3125 1.9141 4.2188 0.9961 6.2305 2.0703 2.0312 1.0547 3.1641 2.9102 1.1524 1.8359 1.1524 4.5508 0 2.4609-1.3672 4.6094t-3.8672 3.2031q-2.5 1.0352-6.2305 1.0352-5.4297 0-8.3398-2.5-2.9102-2.5195-3.4766-7.3242z"/>
  <path d="m761.11-198.98v-28.633h21.23v4.8438h-15.449v6.3476h14.375v4.8242h-14.375v7.793h15.996v4.8242z"/>
  <path d="m787.83-198.98v-28.633h21.23v4.8438h-15.449v6.3476h14.375v4.8242h-14.375v7.793h15.996v4.8242z"/>
  <path d="m814.6-198.98v-28.633h5.625l11.719 19.121v-19.121h5.3711v28.633h-5.8008l-11.543-18.672v18.672z"/>
  <path d="m853.37-213.12q0-4.375 1.3086-7.3438 0.97656-2.1875 2.6562-3.9258 1.6992-1.7383 3.7109-2.5781 2.6758-1.1328 6.1719-1.1328 6.3281 0 10.117 3.9258 3.8086 3.9258 3.8086 10.918 0 6.9336-3.7695 10.859-3.7695 3.9062-10.078 3.9062-6.3867 0-10.156-3.8867-3.7695-3.9062-3.7695-10.742zm5.957-0.19531q0 4.8633 2.2461 7.3828 2.2461 2.5 5.7031 2.5t5.6641-2.4805q2.2266-2.5 2.2266-7.4805 0-4.9219-2.168-7.3438-2.1484-2.4219-5.7226-2.4219t-5.7617 2.4609q-2.1875 2.4414-2.1875 7.3828z"/>
  <path d="m885.7-198.98v-28.633h5.625l11.719 19.121v-19.121h5.3711v28.633h-5.8008l-11.543-18.672v18.672z"/>
 </g>
</svg>
