<svg width="2084.5" height="442.82" version="1.1" viewBox="0 0 1954.3 415.14" xmlns="http://www.w3.org/2000/svg">
 <g transform="translate(42.749 -195.2)">
  <g transform="matrix(.51748 0 0 .51897 -94.464 318.01)">
   <path d="m900.16 163.32c0 220.88-179.12 399.97-400.11 399.97-220.98 0-400.11-179.09-400.11-399.97s179.12-399.97 400.11-399.97c220.98 1e-3 400.11 179.09 400.11 399.97z" fill="#fff"/>
   <path d="m254.7 479.2c67.835 52.511 152.98 84.06 245.35 84.06 101.09 0 193.25-37.531 263.58-99.141 0.854-0.753 0.432-1.251-0.408-0.753-31.561 21.079-121.52 67.09-263.17 67.09-123.1 0-200.9-27.468-244.84-51.989-0.841-0.415-1.152 0.216-0.521 0.733m272.51 20.443c98.461 0 206.66-26.84 271.37-79.97 17.708-14.478 34.575-33.743 49.683-59.637 8.696-14.899 17.202-32.599 24.131-49.998 0.308-0.848-0.217-1.263-0.854-0.309-60.177 88.557-234.44 143.79-414.37 143.79-127.18 0-264.03-40.671-317.6-118.33-0.528-0.718-1.055-0.41-0.733 0.414 49.91 106.08 201.32 164.03 388.37 164.03m-107.58-175.98c-204.78 0-301.34-95.374-318.86-160.46-0.217-0.943-0.837-0.736-0.837 0.109 0 21.911 2.192 50.188 5.968 68.956 1.799 9.138 9.234 23.474 20.135 34.902 49.588 51.686 173.21 124.11 387.32 124.11 291.7 0 358.4-97.168 372.02-129.12 9.739-22.854 14.784-64.151 14.784-98.845 0-8.396-0.211-15.1-0.528-21.683 0-1.067-0.619-1.155-0.832-0.114-14.575 78.194-263.8 182.15-479.17 182.15m-281.12-331.93c-11.732 23.287-24.74 62.574-28.607 82.908-1.695 8.711-0.973 12.896 2.082 19.396 24.545 52.076 148.7 135.4 438.29 135.4 176.67 0 313.92-43.404 336.15-122.61 4.096-14.581 4.313-29.976-0.946-50.72-5.876-23.182-16.883-50.211-26.198-69.192-0.308-0.62-0.85-0.526-0.739 0.205 3.46 103.89-286.25 170.84-432.42 170.84-158.33 0-290.43-63.084-290.43-142.74 0-7.652 1.585-15.309 3.562-23.275 0.198-0.731-0.426-0.852-0.746-0.213m625.77-127.55c1.682 2.633 2.52 5.445 2.52 9.231-1e-3 44.438-136 123.05-352.51 123.05-159.08 0-188.86-59.014-188.86-96.544 0-13.415 5.145-27.143 16.477-41.083 0.619-0.829 0.093-1.148-0.622-0.533-20.666 17.514-39.654 37.221-56.312 58.493-7.958 10.061-12.898 18.974-12.898 24.313 0 77.773 195.02 134.16 377.36 134.16 194.29 0 281-63.426 281-119.17 0-19.921-7.755-31.55-27.591-54.095-12.877-14.668-25.056-26.609-37.948-38.365-0.623-0.512-1.057-0.093-0.623 0.534m-59.565-44.429c-59.964-35.941-129.59-56.389-204.66-56.389-75.592 0-147.32 21.163-207.5 58.056-18.053 11.109-28.211 20.01-28.211 31.456 0 33.735 78.84 70.007 218.71 70.007 138.42 0 245.78-39.73 245.78-77.975 2e-3 -9.127-7.976-15.514-24.121-25.155" fill="#139dd8"/>
  </g>
 </g>
 <g fill="#189cd6">
  <path d="m869.12 5.1562c-6.5265 0.086-13.104 0.68997-17.125 1.75-15.859 4.1808-30.977 14.539-37.781 25.875-6.2137 10.352-7.5548 15.127-7.5938 27.25-0.0359 11.15 0.47376 13.297 6.8125 28.625 0.51687 1.2499-0.8539 2.4733-5.875 5.2812-10.593 5.9242-20.979 14.826-26.5 22.688-6.5198 9.2838-9.1489 16.424-9.8125 26.625-1.7579 27.021 13.701 46.309 41.062 51.25 6.9358 1.2525 26.676 0.43178 34.438-1.4375 7.6998-1.8545 16.869-5.6371 24.656-10.188 3.2428-1.8949 6.2031-3.0985 6.5938-2.6562 0.39069 0.44226 2.5786 3.4 4.875 6.5625l4.1875 5.75h69.844l-42.094-43.625 43.562-54.375h-49.938l-17.656 20.719-10.75-14.125 3.2188-1.9688c20.082-12.158 29.756-21.274 35.625-33.562 3.3723-7.0612 3.625-8.2135 3.625-17.125 0-9.0263-0.19767-9.9686-3.75-17.156-6.0686-12.279-17.797-21.184-32.75-24.875-3.8729-0.95597-10.348-1.3673-16.875-1.2812zm-3.125 37.5c2.2842-0.10817 4.5354 0.4905 6.375 1.9375 5.6272 4.4264 2.3548 13.452-7.8438 21.688-2.8948 2.3375-5.5599 4.25-5.9375 4.25s-1.564-1.9125-2.625-4.25c-2.5416-5.599-2.5339-13.282 0-17.438 2.3157-3.7979 6.2243-6.0072 10.031-6.1875zm-30.219 79.688 18.375 25.188-4.6562 2c-6.0223 2.5815-16.696 4.1986-22-2.3125-6.12-7.5123-1.6936-15.025 4.8125-21.531z"/>
  <path d="m557.78 8.0938-104.31 184.44 60.281-0.78125 15.5-29.375h45.312l3.3438 29.375 59.844 0.78125-26.125-184.44zm13.886 68.249 2.4463 40.313h-22.694z" fill-rule="evenodd"/>
  <path d="m652.91 8.0938-10 50.125h41.75l-24.875 134.31h59.844l24.906-134.31h43.688l12.25-50.125z" fill-rule="evenodd"/>
  <path d="m958.15 8.0938-10 50.125h41.75l-24.875 134.31h59.844l24.906-134.31h43.688l12.25-50.125z" fill-rule="evenodd"/>
 </g>
 <g fill="#fff">
  <path d="m1171.3 222.35-10 50.125h41.75l-24.875 134.31h59.844l24.906-134.31h43.688l12.25-50.125z" fill-rule="evenodd"/>
  <path d="m1805.6 222.35-10 50.125h41.75l-24.875 134.31h59.844l24.906-134.31h43.688l12.25-50.125z" fill-rule="evenodd"/>
  <path d="m459.46 388.12 18.342-42.701s27.978 13.174 42.906 12.864c9.2607-0.1926 23.865-0.133 26.263-9.0801 4.2154-15.732-68.63-10.713-62.748-74.776 2.6675-29.051 24.737-55.676 67.526-55.676 40.329 0 68.105 17.82 68.105 17.82l-17.895 43.226s-29.743-13.087-44.718-11.111c-6.1183 0.80699-17.584 3.8211-16.212 8.9409 3.5552 13.268 63.37 15.897 63.37 65.984 0 44.28-34.003 64.312-64.334 64.312-63.64 0-80.604-19.802-80.604-19.802z"/>
  <path d="m1295.8 388.12 18.342-42.701s27.978 13.174 42.906 12.864c9.2607-0.1926 23.865-0.133 26.263-9.0801 4.2154-15.732-68.63-10.713-62.748-74.776 2.6675-29.051 24.737-55.676 67.526-55.676 40.329 0 68.105 17.82 68.105 17.82l-17.895 43.226s-29.743-13.087-44.718-11.111c-6.1184 0.80699-17.584 3.8211-16.212 8.9409 3.5552 13.268 63.37 15.897 63.37 65.984 0 44.28-34.003 64.312-64.334 64.312-63.64 0-80.604-19.802-80.604-19.802z"/>
  <path d="m710.56 220.56c-6.9199 0.12504-11.438 0.75-11.438 0.75h-45.719l-38.938 183.91h55.406l11.375-51.688s93.259 10.032 102-63.188c7.6651-64.204-47.974-70.228-72.688-69.781zm-6.625 48.91c9.1019-0.2028 26.804 1.1659 23.344 17.902-4.6332 22.411-36.469 18.938-36.469 18.938l8-36.812c0.0265-8e-3 2.091 0.0404 5.125-0.0272z"/>
  <path d="m1061.6 221.31h-45.719l-38.938 183.91h55.406l11.375-51.688s7.3205 0.78553 18.031 0.3125l-0.3438 0.0937 15.688 51.469h59.437l-23.406-64.812c16.134-9.2312 30.66-26.321 33.718-51.936 3.8364-67.414-42.853-67.345-85.249-67.345zm4.8124 48.156c9.1019-0.2028 26.804 1.1699 23.344 17.906-4.6332 22.411-36.469 18.938-36.469 18.938l8-36.812c0.026-8e-3 2.0912 0.0364 5.125-0.0312z"/>
  <path d="m897.09 218.81c-62.136 0-97.856 46.03-100.62 91.219-4.0438 65.995 23.331 98.344 84.875 98.344 54.366 0 91-48.024 93.719-91.625 2.5973-41.65-9.3852-97.938-77.969-97.938zm-3.25 50.812c21.869 0 25.713 25.656 24.531 41.75-1.4638 19.937-12.544 46.719-37.594 46.719-25.997 0-29.703-23.444-27.469-45.125 1.6865-16.366 10.587-43.344 40.531-43.344z"/>
  <path d="m1450.8 405.53h54l18.874-85.438 28.876 85.438h52.094l38.156-183.5h-54l-18.749 85.436-31.029-85.436h-50.065z" fill-rule="evenodd"/>
  <path d="m1668.3 222.03-9.5624 44.406h0.3437l-28.938 139.09h123.94l9.5313-44.375h-70.219l5.3125-25.562h55.375l9.5313-44.406h-55.688l5.1563-24.75h68.031l9.5312-44.406h-68.344z" fill-rule="evenodd"/>
 </g>
</svg>
