<svg width="600pt" height="584.13pt" version="1.1" viewBox="0 0 600 584.13" xmlns="http://www.w3.org/2000/svg">
 <g transform="matrix(11.647 0 0 11.647 -408.89 -3734.2)" fill="#dc4811">
  <polygon transform="translate(34.237 320.11)" points="17.474 35.1 0.87 35.1 0.87 0.506 17.474 0.506"/>
  <polygon transform="translate(34.237 320.11)" points="33.656 32.808 19.711 32.808 19.711 3.412 33.656 3.412"/>
  <polygon transform="translate(34.237 320.11)" points="52.386 35.028 36.008 35.028 36.008 0.506 52.386 0.506"/>
  <path d="m38.293 366.65h-0.656l0.327-2.481zm0.858-6.544h-2.358l-1.062 6.721-0.502 3.779h1.883l0.289-2.148h1.138l0.281 2.148h1.891l-0.503-3.8z"/>
  <polygon transform="translate(34.237 320.11)" points="7.905 50.493 9.777 50.493 9.777 41.795 11.147 41.795 11.147 39.994 6.535 39.994 6.535 41.795 7.905 41.795"/>
  <path d="m48.088 361.91h0.312c0.294 0 0.435 0.161 0.435 0.515v1.522c0 0.25-0.091 0.409-0.276 0.481-0.024 0.011-0.104 0.026-0.335 0.026h-0.133zm2.616 2.037v-1.522c0-1.531-0.728-2.312-2.153-2.313h-2.334v10.5h1.871v-4.302l1.139 4.302h2.04l-1.67-4.798c0.734-0.3 1.107-0.926 1.107-1.867z"/>
  <polygon transform="translate(34.237 320.11)" points="21.605 44.344 19.6 44.344 19.6 41.795 21.931 41.795 21.931 39.994 17.728 39.994 17.728 50.493 21.931 50.493 21.931 48.695 19.6 48.695 19.6 46.147 21.605 46.147"/>
  <path d="m59.356 359.95c-1.525 0-2.304 0.774-2.304 2.309v0.951c0 0.983 0.487 1.833 1.448 2.516 0.854 0.616 1.292 1.147 1.292 1.577v1.158c0 0.348-0.14 0.509-0.435 0.509-0.298 0-0.438-0.161-0.438-0.509v-1.543h-1.871v1.543c0 1.53 0.776 2.31 2.309 2.312 1.528 0 2.305-0.774 2.305-2.312v-1.281c0-0.962-0.487-1.797-1.447-2.479-0.856-0.615-1.292-1.129-1.292-1.521v-0.92c0-0.456 0.243-0.509 0.437-0.509 0.295 4e-3 0.436 0.165 0.436 0.509v1.543h1.871v-1.543c-3e-3 -1.533-0.779-2.31-2.311-2.31"/>
  <polygon transform="translate(34.237 320.11)" points="32.448 44.344 30.442 44.344 30.442 41.795 32.773 41.795 32.773 39.994 28.571 39.994 28.571 50.493 32.773 50.493 32.773 48.695 30.442 48.695 30.442 46.147 32.448 46.147"/>
  <path d="m69.87 361.91h0.312c0.295 0 0.432 0.161 0.432 0.515v1.522c0 0.25-0.091 0.409-0.274 0.481-0.025 0.011-0.104 0.026-0.335 0.026h-0.132zm2.615 2.037v-1.522c0-1.531-0.726-2.312-2.15-2.313h-2.333v10.5h1.871v-4.302l1.139 4.302h2.039l-1.67-4.798c0.731-0.3 1.104-0.926 1.104-1.867z"/>
  <polygon transform="translate(34.237 320.11)" points="41.408 50.494 39.536 50.494 39.536 39.994 41.408 39.994"/>
  <polygon transform="translate(34.237 320.11)" points="46.557 44.344 44.551 44.344 44.551 41.795 46.883 41.795 46.883 39.994 42.681 39.994 42.681 50.493 46.883 50.493 46.883 48.695 44.551 48.695 44.551 46.147 46.557 46.147"/>
  <path d="m86.616 363.8v-1.543c0-1.532-0.777-2.309-2.312-2.309-1.527 0-2.303 0.773-2.303 2.309v0.951c0 0.983 0.486 1.833 1.447 2.516 0.854 0.616 1.292 1.147 1.292 1.577v1.158c0 0.348-0.141 0.509-0.435 0.509-0.298 0-0.438-0.161-0.438-0.509v-1.543h-1.871v1.543c0 1.528 0.773 2.31 2.309 2.312 1.527 0 2.303-0.774 2.303-2.312v-1.281c0-0.962-0.484-1.797-1.445-2.479-0.856-0.613-1.292-1.127-1.292-1.521v-0.92c0-0.456 0.242-0.509 0.437-0.509 0.295 3e-3 0.436 0.165 0.436 0.509v1.543z"/>
 </g>
 <g transform="matrix(11.647 0 0 11.647 -408.89 -3734.2)" fill="#fff">
  <path d="m44.222 341.2h-1.757l0.904-7.062zm5.806 9.357-3.754-25.286c-0.021-0.132-0.135-0.23-0.269-0.229h-5.258c-0.134 0-0.249 0.097-0.271 0.229l-3.691 25.286c-0.011 0.079 0.013 0.158 0.064 0.218s0.126 0.095 0.206 0.095h4.249c0.135-1e-3 0.25-0.1 0.269-0.234l0.635-4.742c0.019-0.135 0.134-0.235 0.27-0.234h1.816c0.135 0 0.249 0.102 0.269 0.231l0.69 4.749c0.021 0.133 0.134 0.23 0.27 0.23h4.24c0.079-2e-3 0.152-0.037 0.203-0.097s0.073-0.138 0.062-0.216z"/>
  <path d="m65.407 331.59c0-2.049-1.336-4.594-4.304-4.594s-4.671 1.884-4.671 4.436v2.665c0 0.316 0.192 0.476 0.581 0.476h2.85c0.39 0 0.581-0.177 0.581-0.525v-2.665c0-0.317 0.158-0.479 0.478-0.479 0.314 0 0.476 0.144 0.476 0.424v4.695c4e-3 0.141-0.049 0.277-0.149 0.377-0.099 0.1-0.235 0.154-0.376 0.151h-0.848c-0.313 0.044-0.476 0.202-0.476 0.476v2.405c0 0.272 0.158 0.431 0.476 0.476h0.848c0.141-4e-3 0.277 0.05 0.377 0.15 0.099 0.1 0.153 0.237 0.148 0.377v4.697c0 0.28-0.158 0.422-0.476 0.422-0.316 0-0.478-0.158-0.478-0.476v-2.8c0-0.353-0.191-0.525-0.581-0.525h-2.85c-0.389 0-0.581 0.156-0.581 0.475v2.798c0 2.555 1.703 4.438 4.671 4.438s4.304-2.544 4.304-4.594v-4.013c0-1.086-0.476-1.945-1.107-2.626 0.635-0.68 1.107-1.541 1.107-2.626z"/>
  <path d="m79.613 334.34h3.948c0.117 0 0.229-0.046 0.312-0.129s0.129-0.195 0.129-0.312l-3e-3 -3.477c0-3.84-1.878-5.761-5.639-5.761-5.029 0-5.499 3.671-5.499 5.375v3.104c0 1.87 0.688 3.66 2.653 5.238 2.446 1.787 3.67 2.789 3.67 4.109v2.779c0 0.507-0.123 1.08-0.756 1.08-0.547 0-0.825-0.354-0.825-1.07v-3.496c0-0.203-0.165-0.368-0.368-0.369h-4.03c-0.091 0-0.178 0.036-0.243 0.1-0.064 0.064-0.101 0.152-0.101 0.243v3.964c0 3.917 2.455 5.375 5.375 5.375 2.924 0 5.763-0.995 5.763-5.76v-2.97c0-2.271-0.876-4.31-2.848-5.814-2.362-1.668-3.547-3.039-3.547-4.109v-2.045c0-0.555 0.224-0.993 0.834-0.993 0.432 0 0.792 0.373 0.794 0.97v3.594c5e-3 0.207 0.174 0.373 0.381 0.374"/>
 </g>
</svg>
