<svg width="800" height="171.36" version="1.1" xmlns="http://www.w3.org/2000/svg">
 <g transform="matrix(9.8112 0 0 9.8112 -60.758 -32.4)" fill-rule="evenodd">
  <path d="m26.986 8.0191 6.3087 9.9472s0.52803 0.65741-0.81119 1.2661c0 0-6.1506 3.1438-8.3183-3.6918 0 0-1.5826-5.2445 0.41055-7.455 0 0 1.3177-1.5907 2.4102-0.066511" fill="#fec526"/>
  <path d="m24.23 3.3023c-0.04744 0.00875-0.09992 0.021528-0.14781 0.031604-3.4596 0.73025-10.293 3.2974-11.966 12.28 0 0-0.59219 3.0604 1.2886 3.5864 2.2297 0.62211 2.357-2.2769 2.357-2.2769s-0.26988-9.8921 8.4464-13.264c0.03006-0.011783 0.06217-0.022134 0.09339-0.034852 0.04706-0.032705 0.07966-0.085122 0.07966-0.14662 0-0.08837-0.06549-0.15929-0.15108-0.17641" fill="#0971ce"/>
  <path d="m26.153 3.4511c-0.05603 0.013379-0.1136 0.026539-0.17173 0.041019-2.9253 0.72238-9.5764 3.5307-9.5221 14.122 0 0-0.2489 2.9729 1.8467 3.049 2.359 0.0882 1.6793-2.9908 1.6793-2.9908s-2.2124-10.068 6.1411-13.928c0.02513-0.011452 0.04894-0.02307 0.07429-0.034687 0.03405-0.028135 0.05874-0.068273 0.05874-0.11524 0-0.067558-0.04523-0.12113-0.10635-0.1437" fill="#753cbe"/>
  <path d="m26.756 4.2038c-0.03111 0.00721-0.06344 0.015306-0.09611 0.021748-0.02829 0.011122-0.05514 0.021473-0.08586 0.03287-2.2776 0.87797-8.0373 4.1868-5.5917 14.699 0 0 0.55709 2.3756 2.7471 1.6853 1.7543-0.55324 0.56883-3.0539 0.56883-3.0539s-4.2283-7.9902 2.4239-13.089c0.04146-0.031824 0.08354-0.061666 0.12589-0.093435 0.0082-0.0185 0.01461-0.038266 0.01461-0.059519 0-0.067613-0.04434-0.12108-0.10662-0.14282" fill="#f4313f"/>
  <path d="m15.899 5.2401s-1.5648-0.78993-9.5485-0.53958l0.00642 0.0011c-0.034877 8.81e-4 -0.069366 0.0033-0.10463 0.00463-0.03532 0.01817-0.059568 0.053077-0.059568 0.095197 0 0.026373 0.011017 0.05115 0.027569 0.069595 0.01456 0.011838 0.031555 0.022574 0.047001 0.034027l-0.00598-0.00132c1.0482 0.74891 4.8471 3.6555 6.2756 7.4316 0 0 0.72915-2.9031 3.9293-5.7983 0 0 0.59191-0.82424-0.56711-1.2969" fill="#00b755"/>
 </g>
 <g transform="matrix(6.7038 0 0 6.7038 -2491.7 5370.3)" fill="#5f5f5f" aria-label="uno">
  <path d="m413.67-796.4h7.8711v9.8242q0 2.5 0.83984 3.7891 0.85938 1.2891 2.5977 1.2891t2.5781-1.2891q0.85938-1.2891 0.85938-3.7891v-9.8242h7.8711v20.43h-7.8711v-2.6758q-0.54688 0.87891-1.3672 1.543-0.35156 0.29297-0.82031 0.5664-0.44922 0.27344-1.0156 0.48829-0.5664 0.21484-1.25 0.33203-0.68359 0.13672-1.4844 0.13672-2.5 0-4.1992-0.83985-1.6797-0.83984-2.7148-2.3242-1.0156-1.4844-1.4648-3.4961-0.42969-2.0117-0.42969-4.3359z"/>
  <path d="m463.24-775.97h-7.8711v-9.8242q0-2.5-0.85937-3.7891-0.83985-1.2891-2.5781-1.2891t-2.5976 1.2891q-0.83985 1.2891-0.83985 3.7891v9.8242h-7.8711v-20.43h7.8711v2.6758q0.50782-0.85937 1.3477-1.5234 0.35156-0.29297 0.80078-0.56641 0.46875-0.27344 1.0352-0.48828 0.5664-0.21484 1.25-0.35156 0.70312-0.13672 1.5039-0.13672 2.5 0 4.1797 0.85937 1.6992 0.83985 2.7148 2.3242 1.0352 1.4648 1.4648 3.4766 0.44922 2.0117 0.44922 4.3359z"/>
  <path d="m478.91-775.58q-2.6172 0-4.8438-0.76172-2.207-0.78125-3.8281-2.1875-1.6016-1.4062-2.5195-3.3594-0.91797-1.9531-0.91797-4.2969t0.91797-4.2969q0.91797-1.9531 2.5195-3.3594 1.6211-1.4062 3.8281-2.168 2.2266-0.78125 4.8438-0.78125 2.5977 0 4.8242 0.78125 2.2266 0.76172 3.8281 2.168 1.6211 1.4062 2.5391 3.3594 0.91796 1.9531 0.91796 4.2969t-0.91796 4.2969q-0.91797 1.9531-2.5391 3.3594-1.6016 1.4062-3.8281 2.1875-2.2266 0.76172-4.8242 0.76172zm0-5.918q0.89844 0 1.6797-0.3125 0.78125-0.33203 1.3476-0.91797 0.56641-0.60547 0.87891-1.4648 0.33203-0.8789 0.33203-1.9922t-0.33203-1.9727q-0.3125-0.87891-0.87891-1.4648-0.5664-0.60547-1.3476-0.91797-0.78125-0.33203-1.6797-0.33203-0.91797 0-1.6992 0.33203-0.76172 0.3125-1.3281 0.91797-0.56641 0.58593-0.89844 1.4648-0.3125 0.85938-0.3125 1.9727t0.3125 1.9922q0.33203 0.85938 0.89844 1.4648 0.5664 0.58594 1.3281 0.91797 0.78125 0.3125 1.6992 0.3125z"/>
 </g>
</svg>
