<svg width="1e3px" height="501.06px" enable-background="new 0 0 1000 501.0641174" version="1.1" viewBox="0 0 1e3 501.06" xml:space="preserve" xmlns="http://www.w3.org/2000/svg">
<g fill="#fff">
	<g fill="#fff">
		<g fill="#fff">
			<path d="m887.87 39.655c-1.3442-0.22404-2.6885-0.44808-4.1447-0.67212l-1.5684-0.22404c-2.3524-0.33606-4.7048-0.5601-7.0572-0.78414-1.5683-0.22404-3.2486-0.22404-4.8168-0.33606-2.8005-0.11201-5.601-0.22404-8.4015-0.22404h-3.1365c-2.2404 0.11201-4.5928 0.22404-6.7212 0.33606-1.2322 0.11202-2.4644 0.22404-3.6967 0.33606-1.7922 0.22404-3.5846 0.33606-5.3769 0.5601l-1.4562 0.22404-1.6803 0.22404-2.0164 0.33606c-0.89612 0.22404-1.7923 0.33606-2.5764 0.44808-1.2322 0.22404-2.3524 0.44808-3.5847 0.67212-7.1693 1.5683-13.778 3.4726-19.94 5.937-3.1365 1.2322-6.2731 2.5765-9.0735 4.0327-2.3524 1.2322-4.7048 2.3524-6.9453 3.6967-2.1284 1.2322-4.2567 2.4644-6.2731 3.8087-1.1202 0.78414-2.2404 1.4563-3.3606 2.2404-1.0082 0.78414-1.9044 1.3442-2.8005 2.1284-1.9044 1.4563-3.8087 3.0245-5.489 4.4808-1.5683 1.4563-3.2486 2.9125-4.7048 4.3688-1.2322 1.2322-2.5764 2.5765-3.6967 3.8087-1.2322 1.3442-2.4644 2.8005-3.5847 4.1447-1.2322 1.5683-2.4644 3.1366-3.6966 4.8168-0.78418 1.2322-1.6803 2.4644-2.5765 3.6967-0.56006 0.89616-1.1202 1.6803-1.6803 2.5765-3.1365 5.1529-5.937 10.642-8.1774 16.579-2.8005 7.3933-4.9289 15.235-5.9371 23.636-0.33606 2.5765-0.67206 5.2649-0.78412 8.0654-0.112 2.1284-0.22406 4.2568-0.22406 6.3851 0 1.6803 0 3.2486 0.112 4.8168 0.112 1.6803 0.22406 3.2486 0.44806 4.9289l0.112 1.1202c0.22406 1.9043 0.56012 3.8087 0.89618 5.601 0.112 0.78413 0.22406 1.4563 0.44812 2.1284 0.336 1.5683 0.67206 3.1366 1.1202 4.5928 0.56006 1.9043 1.1202 3.9207 1.6803 5.713 0.78412 2.3524 1.5683 4.5928 2.5764 6.7212 1.4562 3.4726 3.0245 6.8332 4.7048 9.9698 1.1202 1.9043 2.0164 3.6967 3.1365 5.3769 0.89618 1.4563 1.7923 2.8005 2.6885 4.0327 1.2322 1.7923 2.3524 3.3606 3.5847 4.9288 1.3442 1.6803 2.5764 3.2486 3.9207 4.7048 1.5683 1.9043 3.2486 3.5846 4.8168 5.1529l0.78418 0.89616c1.3442 1.2322 2.8005 2.5764 4.3688 3.9207 1.1202 1.0082 2.2404 1.9043 3.4726 2.9125 1.1202 0.89616 2.3524 1.9043 3.5847 2.8005 1.4562 1.1202 3.1365 2.2404 4.8168 3.2486 1.7922 1.2322 3.6966 2.3524 5.713 3.4726 3.9207 2.2404 8.4015 4.3688 13.218 6.2731 1.7923 0.78413 3.6967 1.4563 5.601 2.1284 1.9044 0.67212 3.8087 1.3442 5.9371 1.9043 3.4726 1.0082 7.1693 1.9043 10.978 2.5765 3.1365 0.56009 6.2731 1.1202 9.6337 1.4563 3.3606 0.44807 6.7212 0.78413 10.306 0.89616 1.6803 0.11203 3.4725 0.11203 5.2649 0.22403h2.4645c6.3851 0 12.21-0.33606 17.699-0.67212l1.1202-0.11203c2.1284-0.22403 4.2568-0.44807 6.2731-0.67212 3.1365-0.44807 6.1611-0.78413 8.9616-1.3442 1.7923-0.33606 3.4726-0.67212 5.1529-1.0082 2.5764-0.5601 5.0408-1.1202 7.3932-1.7923 1.6803-0.44807 3.3606-1.0082 5.0409-1.4563 2.0164-0.5601 3.8087-1.2322 5.601-1.7923l1.6803-0.5601c0.89618-0.33606 2.0164-0.78413 3.4726-1.2322 1.7923-0.78413 4.0327-1.5683 6.4971-2.6885 1.4562-0.67212 3.1365-1.3442 4.8168-2.1284 1.4562-0.67212 3.0245-1.4563 4.5928-2.2404 0.67212-0.33606 1.3442-0.67213 2.0164-1.0082v-38.871c-0.44812 0.33607-1.0082 0.5601-1.3442 0.89616l-2.6885 1.5683c-2.5764 1.6803-5.1528 3.1366-7.7294 4.5928-2.8005 1.5683-5.601 3.0245-8.2895 4.2568-4.8168 2.2404-9.4097 4.1447-13.89 5.825-8.5135 3.0245-16.243 4.9289-23.076 6.1611-0.78418 0.11203-1.5683 0.22403-2.3524 0.33606-1.9043 0.22404-3.6966 0.5601-5.489 0.67212-2.6885 0.33607-5.1529 0.44807-7.5054 0.5601-1.4562 0.11203-2.8005 0.11203-4.1447 0.11203-2.8005 0-5.601 0-8.4015-0.22404-3.3606-0.22403-6.8332-0.67212-10.306-1.2322-5.601-0.89615-11.314-2.3524-16.803-4.3688-0.78418-0.33606-1.6803-0.56009-2.4645-1.0082-0.56006-0.22404-1.1202-0.33606-1.5683-0.5601-0.89612-0.44807-1.7923-0.78413-2.6885-1.2322-1.9044-0.89616-3.8087-1.7923-5.601-2.8005-0.89612-0.5601-1.7923-1.1202-2.6885-1.6803-0.89612-0.56009-1.9044-1.2322-2.6885-1.7923-1.1202-0.78413-2.2404-1.6803-3.3606-2.4644-1.0082-0.89616-2.1284-1.7923-3.0246-2.5765l-1.3442-1.1202-0.67206-0.5601-0.33606-0.33606-0.44812-0.44807c-1.7923-1.7923-3.3606-3.4726-4.8168-5.2649-0.78412-1.0082-1.5683-1.9043-2.3524-2.9125-0.67212-1.0082-1.3442-2.0164-2.0164-2.9125-0.67212-0.89615-1.1202-1.7923-1.6803-2.6885-0.78418-1.3442-1.5683-2.8005-2.2404-4.1447-0.56006-1.2322-1.1202-2.3524-1.5683-3.4726-0.89612-2.0164-1.5683-3.9207-2.2404-5.713-0.44812-1.4563-0.78418-2.9125-1.1202-4.3688-1.0082-4.0327-1.5683-7.7294-1.9043-10.978-0.112-1.2322-0.22406-2.2404-0.22406-3.3606 0-1.5683-0.112-2.9125-0.112-4.0327v-2.4644c0.112-2.2404 0.22406-5.0409 0.78412-8.1774 0.33606-1.9043 0.67212-4.0327 1.2322-6.2731 0.336-1.3442 0.78412-2.8005 1.2322-4.3688 0.44806-1.3442 0.89612-2.8005 1.4562-4.1447 0.33606-1.0082 0.78412-1.9043 1.1202-2.9125 0.56012-1.3442 1.2322-2.5765 1.9044-3.9207 0.44812-1.0082 1.1202-2.0164 1.6803-2.9125 1.3442-2.2404 2.8005-4.4808 4.3688-6.6092 0.56012-0.78413 1.2322-1.5683 1.7923-2.3524 0.78418-1.0082 1.6803-2.0164 2.5764-3.0245 0.44812-0.44807 0.89618-1.0082 1.3443-1.4563 7.1693-7.1693 15.123-12.434 23.412-16.243 1.2322-0.67212 2.5765-1.1202 3.9207-1.6803 1.3442-0.44808 2.5764-1.0082 3.9207-1.3442 1.4563-0.5601 2.9125-1.0082 4.3688-1.3442 1.4562-0.33606 2.8005-0.67211 4.1447-1.0082 1.4562-0.33606 2.8005-0.5601 4.1448-0.78413 1.4562-0.33606 3.0245-0.5601 4.4808-0.67212 1.5683-0.22404 3.0245-0.33606 4.4808-0.44808 2.8005-0.22404 5.601-0.33606 8.2895-0.33606h2.6885c2.1284 0 4.0327 0.11202 5.937 0.22404 1.3442 0.11201 2.6885 0.22404 3.9207 0.33606 2.4645 0.22404 4.8168 0.5601 7.1693 0.89616 1.9044 0.33605 3.9207 0.67212 5.713 1.0082 2.8005 0.5601 5.377 1.2322 7.6174 1.7923 1.4562 0.33607 2.9125 0.78413 4.1447 1.1202 1.9044 0.5601 3.4726 1.1202 4.8168 1.5683 2.1284 0.78413 3.3606 1.1202 3.3606 1.1202 1.9044 0.67212 3.8087 1.4563 5.601 2.1284 2.4644 1.0082 4.8168 2.1284 7.0572 3.1366 1.9044 0.78413 3.6967 1.6803 5.377 2.5765 1.4562 0.67212 2.6885 1.4563 3.9207 2.0164 2.1284 1.1202 3.9207 2.1284 5.3769 2.9125l3.9207 2.2404v-38.535s-2.3524-1.0082-6.4971-2.4644c-1.7923-0.78414-3.9207-1.5683-6.3851-2.3524-1.3442-0.44808-2.8005-1.0082-4.2568-1.5683-1.2322-0.44808-2.4644-0.78414-3.6966-1.2322-1.4562-0.44808-2.9125-1.0082-4.5928-1.4563-1.1202-0.33606-2.2404-0.78414-3.4726-1.0082l-1.0082-0.33606c-1.1202-0.33606-2.3524-0.67212-3.4725-1.0082-1.3443-0.33606-2.8005-0.78414-4.2568-1.1202-0.89612-0.22404-1.7923-0.44808-2.6885-0.67212-1.4562-0.33606-3.0245-0.67212-4.5928-1.0082-1.456-0.22404-3.0243-0.44808-4.7046-0.78414zm-190.55-39.655h302.57v284.75h-302.57v-284.75z"/>
			<path d="m464.77 157.05v55.898h36.294s0.78418 0 1.9044-0.11201c1.2322 0 3.0246-0.11203 5.0409-0.33607 3.9207-0.33606 9.0736-1.1202 14.114-2.8005 4.5928-1.4563 9.0736-3.8087 12.434-7.1693 1.2322-1.3442 2.3524-2.6885 3.2486-4.0327 2.8005-4.4808 3.5846-9.0736 3.8087-11.65v-1.7923s0-0.44807 0-1.3442c0-1.1202-0.11206-3.1366-0.78418-5.3769-0.67212-2.6885-1.9044-5.825-4.1447-8.6255-0.44806-0.44807-0.89618-1.0082-1.4562-1.5683-1.0082-1.0082-2.0164-2.0164-3.2486-2.8005-2.0164-1.4563-4.2567-2.8005-6.7212-3.8087-3.2485-1.3442-6.8332-2.4644-10.866-3.2486-2.1284-0.44806-4.2567-0.67212-6.4971-1.0082-1.3442-0.11203-2.6885-0.22403-4.2567-0.33606-1.2322-0.11203-2.5764-0.11203-3.8087-0.11203-12.882 0.22401-35.062 0.22401-35.062 0.22401z"/>
			<path d="m464.77 71.917v53.097h17.587s1.1202 0 2.6884-0.11202c1.2322 0 2.6885-0.11201 3.9207-0.11201 3.6967-0.22404 8.6255-0.78413 13.666-2.2404 1.0081-0.22404 1.9043-0.5601 2.9125-0.89616 3.9207-1.4563 7.7293-3.4726 10.642-6.3851 2.3524-2.2404 3.8087-4.8168 4.9288-7.2813 1.2322-3.0245 1.6803-5.937 1.9044-7.9534 0.22406-1.9043 0.22406-3.0245 0.22406-3.0245s0-0.78413 0-2.2404c-0.22406-2.3524-0.67212-6.0491-2.4644-9.7457-0.89618-1.6803-2.1284-3.3606-3.6967-5.0409-2.0164-1.9043-4.3688-3.4726-7.0572-4.5928-4.9289-2.1284-10.642-3.1366-15.347-3.3606-2.1284-0.11202-4.0327-0.22404-5.601-0.22404-3.6967 0.112-24.308 0.112-24.308 0.112z"/>
			<path d="m428.03 39.991v205.11h77.182s37.639 1.0082 58.474-19.715c16.915-16.915 15.683-36.518 15.683-36.518s1.2322-20.5-14.451-36.182c-13.33-13.33-30.469-16.915-30.469-16.915s7.6173-3.5846 13.666-9.5217c2.6885-2.8005 12.546-11.762 12.546-33.27 0-21.844-14.451-34.278-14.451-34.278s-15.907-18.707-51.641-18.707h-66.54v-7.7e-6zm-79.422-39.991h302.57v284.75h-302.57v-284.75z"/>
			<path d="m116.05 157.05v55.898h36.406s0.67212 0 1.9043-0.11201c1.2322 0 2.9125-0.11203 5.0409-0.33607 3.9207-0.33606 9.1856-1.1202 14.226-2.8005 4.4808-1.4563 8.9616-3.8087 12.322-7.1693 1.3442-1.3442 2.4644-2.6885 3.2486-4.0327 2.8005-4.4808 3.5846-9.0736 3.6967-11.65 0.11203-1.1202 0.11203-1.7923 0.11203-1.7923s0-0.44807 0-1.3442c0-1.1202-0.11203-3.1366-0.67213-5.3769-0.78413-2.6885-2.0164-5.825-4.2567-8.6255-0.44807-0.44807-0.89616-1.0082-1.4563-1.5683-1.0082-1.0082-2.0164-2.0164-3.2486-2.8005-2.0164-1.4563-4.2567-2.8005-6.7212-3.8087-3.2486-1.3442-6.9452-2.4644-10.978-3.2486-2.1284-0.44806-4.2568-0.67212-6.4971-1.0082-1.3442-0.11203-2.6885-0.22403-4.1447-0.33606-1.2322-0.11203-2.5764-0.11203-3.8087-0.11203-12.882 0.22401-35.174 0.22401-35.174 0.22401z"/>
			<path d="m116.05 71.917v53.097h17.587s1.1202 0 2.6885-0.11202c1.2322 0 2.6885-0.11201 3.9207-0.11201 3.6967-0.22404 8.6255-0.78413 13.666-2.2404 1.0082-0.22404 2.0164-0.5601 2.9125-0.89616 3.9207-1.4563 7.7294-3.4726 10.642-6.3851 2.3524-2.2404 3.9207-4.8168 4.8168-7.2813 1.3442-3.0245 1.6803-5.937 1.9043-7.9534 0.22403-1.9043 0.22403-3.0245 0.22403-3.0245s0-0.78413-0.11201-2.2404c-0.11203-2.3524-0.5601-6.0491-2.4644-9.7457-0.89616-1.6803-2.0164-3.3606-3.6967-5.0409-1.9043-1.9043-4.3688-3.4726-6.9452-4.5928-4.9289-2.1284-10.642-3.1366-15.459-3.3606-2.0164-0.11202-3.9207-0.22404-5.601-0.22404-3.3606 0.112-24.084 0.112-24.084 0.112z"/>
			<path d="m79.31 39.991v205.11h77.182s37.751 1.0082 58.474-19.715c16.915-16.915 15.683-36.518 15.683-36.518s1.2322-20.5-14.451-36.182c-13.33-13.33-30.357-16.915-30.357-16.915s7.7294-3.5846 13.554-9.5217c2.8005-2.8005 12.658-11.762 12.658-33.27 0-21.844-14.451-34.278-14.451-34.278s-15.907-18.707-51.753-18.707h-66.54v-7.7e-6zm-79.31-39.991h302.57v284.75h-302.57v-284.75z"/>
			<path d="m84.015 339.87h-16.019l-67.996 159.18h23.188l19.94-46.6h67.324l21.06 46.6h23.188l-70.684-159.18zm-8.4015 34.726 25.54 57.354h-49.177l23.636-57.354z"/>
			<polygon points="318.14 340.76 297.08 340.76 244.43 405.74 191.89 340.76 170.61 340.76 170.61 499.05 193.35 499.05 193.35 375.83 193.79 375.83 242.52 437.1 246.22 437.1 294.95 375.83 295.4 375.83 295.4 499.05 318.14 499.05"/>
			<polygon points="452.78 340.76 363.06 340.76 363.06 499.05 454.91 499.05 454.91 478.55 385.8 478.55 385.8 429.37 450.43 429.37 450.43 408.98 385.8 408.98 385.8 361.15 452.78 361.15"/>
			<path d="m496.81 340.76v158.28h22.74v-68.668h9.5217c11.538 0 21.06 3.6966 42.007 36.182l20.948 32.486h27.109c-10.866-15.123-14.787-20.388-21.62-31.366-12.098-19.715-20.836-34.278-35.286-43.8 16.915-6.7212 26.437-20.388 26.437-38.759 0-27.445-19.94-44.36-51.977-44.36l-39.879 3.05e-5zm22.74 19.491h14.563c22.068 0 30.917 9.0736 31.141 23.86 0.22406 13.218-6.7212 25.765-31.141 25.765h-14.563v-49.625z"/>
			<polygon points="642.43 499.05 665.17 499.05 665.17 340.76 642.43 340.76"/>
			<path d="m837.8 351.63c-21.508-9.0736-38.087-12.994-54.33-12.994-50.409 0-86.815 35.286-86.815 83.567 0 33.158 25.989 78.862 85.359 78.862 24.868 0 41.783-5.713 57.354-13.89v-24.868c-17.923 11.538-37.415 17.811-55.226 17.811-38.087 0-64.075-24.644-64.075-60.043 0-34.838 26.885-60.603 63.067-60.603 18.371 0 35.062 5.0409 54.554 16.467l0.112-24.308z"/>
			<path d="m929.2 339.87h-16.019l-67.996 159.18h23.188l20.052-46.6h67.212l21.172 46.6h23.188l-70.797-159.18zm-8.2895 34.726 25.54 57.354h-49.177l23.636-57.354z"/>
		</g>
	</g>
</g>
</svg>
