<svg width="800" height="169.21" version="1.1" viewBox="0 0 211.67 44.769" xmlns="http://www.w3.org/2000/svg">
 <g transform="translate(155.98 -244.47)">
  <g transform="matrix(9.493 0 0 -9.493 -8.5632 289.24)">
   <path d="m0 0-0.257 0.685h-1.711l-0.264-0.685h-1.976l1.912 4.714h2.296l1.911-4.714zm-1.12 3.345-0.506-1.505h1.013z" fill="#d11c2d"/>
  </g>
  <g transform="matrix(9.493 0 0 -9.493 38.905 289.21)">
   <path d="m0 0-2.089 2.26v-2.26h-0.825l-0.886 2.166v2.547h1.853l1.997-2.389v2.389h1.718v-4.713z" fill="#203b77"/>
  </g>
  <g transform="matrix(9.493 0 0 -9.493 -83.417 289.21)">
   <path d="m0 0c-0.338 0-0.622 0.015-0.852 0.046-0.231 0.031-0.417 0.088-0.56 0.171-0.142 0.084-0.245 0.198-0.306 0.343-0.062 0.145-0.093 0.334-0.093 0.567v2.459c0 0.229 0.031 0.416 0.093 0.564 0.061 0.147 0.164 0.262 0.306 0.346 0.143 0.083 0.329 0.14 0.56 0.171 0.23 0.031 0.514 0.046 0.852 0.046h2.985l-0.489-1.198h-1.983c-0.19 0-0.323-0.026-0.399-0.078-0.076-0.053-0.114-0.133-0.114-0.243v-1.675c0-0.214 0.171-0.321 0.513-0.321l3.436-8e-3 -0.463-1.192z" fill="#203b77"/>
  </g>
  <g transform="matrix(9.493 0 0 -9.493 -102.24 278.52)">
   <path d="m0 0c0-0.233-0.032-0.423-0.096-0.57-0.064-0.148-0.168-0.262-0.31-0.343-0.143-0.08-0.33-0.136-0.56-0.167-0.231-0.031-0.512-0.047-0.845-0.047h-3.85v4.713h3.85c0.333 0 0.613-0.015 0.841-0.046s0.411-0.088 0.549-0.171 0.237-0.199 0.296-0.346c0.06-0.147 0.089-0.335 0.089-0.563v-0.585c0-0.19-0.051-0.336-0.153-0.438-0.102-0.103-0.22-0.173-0.353-0.211 0.138-0.033 0.263-0.103 0.374-0.21 0.112-0.107 0.168-0.267 0.168-0.481zm-3.85 2.389v-0.614h1.768c0.128 0 0.213 0.026 0.253 0.079 0.04 0.052 0.061 0.133 0.061 0.242 0 0.11-0.023 0.186-0.068 0.228-0.045 0.043-0.127 0.065-0.246 0.065zm0-1.704v-0.614h1.804c0.109 0 0.183 0.024 0.221 0.072 0.038 0.047 0.057 0.125 0.057 0.235 0 0.123-0.023 0.205-0.068 0.246-0.045 0.04-0.115 0.061-0.21 0.061z" fill="#203b77"/>
  </g>
 </g>
</svg>
