<svg width="850.84" height="500" enable-background="new 0 0 129.9 76.3" version="1.1" viewBox="0 0 850.84 500" xml:space="preserve" xmlns="http://www.w3.org/2000/svg">
		<path d="m850.84 9.1739h-198.55c-34.075-0.65529-62.252 26.211-62.907 60.286v177.58h198.55c34.075 0.65528 62.252-26.211 62.907-60.286z" fill="#5d2e8f" stroke-width="6.5528"/>
		<path d="m679.81 53.078c1.3106-3.2764 3.2764-5.8975 5.2422-8.5186 2.6211-2.6211 5.2422-4.587 8.5186-5.8975 3.2764-1.3106 7.2081-1.9658 11.14-1.9658 3.2764 0 7.2081 0.65528 10.484 1.3106 3.2764 0.65529 6.5528 1.9658 9.1739 2.6211l7.8634 2.6211c2.6211 0.65528 4.587 1.3106 7.2081 1.3106s4.587-0.65529 6.5528-1.9658c1.9658-1.9658 3.2764-4.587 3.9317-7.2081h15.727c-0.65528 3.2764-1.3106 6.5528-2.6211 9.8292-1.3106 3.2764-3.2764 5.8975-5.2422 8.5186s-4.587 4.587-7.8634 5.8975-7.2081 2.6211-10.484 1.9658c-3.2764 0-7.2081-0.65528-10.484-1.3106-3.2764-0.65528-6.5528-1.9658-9.1739-2.6211l-8.5187-2.6211c-2.6211-0.65528-5.2422-1.3106-7.8634-1.3106-5.2422 0-10.484 3.2764-11.14 9.1739h-15.727c0.65529-3.2764 1.9658-6.5528 3.2764-9.8292m98.292 139.57h-33.419v-66.183c0-1.9658 0-4.587-0.65528-6.5528-0.65528-2.6211-1.9658-5.2422-3.2764-7.2081-1.9658-2.6211-4.587-4.587-7.2081-5.8975-3.9317-1.9658-8.5186-2.6211-13.106-2.6211-6.5528 0-13.106 1.9658-18.348 6.5528-4.587 3.9317-7.2081 9.8292-7.2081 16.382v66.183h-33.419v-114.02h32.109v11.14c3.9317-4.587 9.1739-7.8634 15.071-10.484 5.8975-2.6211 12.45-3.9317 19.003-3.9317 7.2081 0 14.416 1.3106 20.969 3.9317 5.8975 1.9658 11.795 5.8975 16.382 10.484 4.587 4.587 7.8634 9.8292 10.484 15.727 2.6211 6.5528 3.9317 13.761 3.9317 20.314z" fill="#fff" stroke-width="6.5528"/>
		<g transform="matrix(3.7794 0 0 3.7794 0 .0090049)" stroke-width=".88194"><path class="cls-3" d="m0-0.0013826v132.29h116.51c10.048 0.14544 19.708-3.8738 26.688-11.104 6.1874-6.434 9.6908-14.983 9.7984-23.909v-97.278z" fill="#5d2e8f"/><path class="cls-4" d="m22.26 95.248c-2.196 0-3.7835-0.46743-4.7096-1.4023a2.5223 2.5223 0 0 1-0.78493-1.6933 4.7801 4.7801 0 0 1 1.173-3.2896 5.6444 5.6444 0 0 1 4.3303-1.5522 5.4416 5.4416 0 0 1 4.1892 1.5081 5.4945 5.4945 0 0 1 1.2347 3.7835 1.5875 1.5875 0 1 0 3.175 0c0-8.3255-8.2285-8.4225-8.5636-8.4225-8.352 0-8.5901 7.0555-8.5901 7.9375 0 2.3548 1.8168 6.3411 8.6607 6.3411 2.3107 0 3.9599 0.49389 4.9124 1.4817a2.981 2.981 0 0 1 0.88194 2.1696 4.3391 4.3391 0 0 1-1.1465 3.0692c-0.97895 1.0054-2.5135 1.5169-4.5684 1.5169a5.5386 5.5386 0 0 1-4.2333-1.5434 4.8948 4.8948 0 0 1-1.2612-3.4219 1.5875 1.5875 0 0 0-3.175 0 7.7346 7.7346 0 0 0 2.1696 5.618 8.89 8.89 0 0 0 6.447 2.54c6.6498 0 9.0046-4.1892 9.0046-7.7699 0-4.1628-3.5278-6.8527-9.0134-6.8527m107.22 0c-2.196 0-3.7835-0.46743-4.7096-1.4023a2.5753 2.5753 0 0 1-0.79374-1.6933 4.7889 4.7889 0 0 1 1.1818-3.2896 5.6444 5.6444 0 0 1 4.198-1.5699 5.4328 5.4328 0 0 1 4.1716 1.5169 5.4945 5.4945 0 0 1 1.2788 3.7747 1.5699 1.5699 0 1 0 3.1309 0c0-8.3255-8.2285-8.4225-8.5636-8.4225h-0.0441c-8.352 0-8.5901 7.0555-8.5901 7.9375 0 2.3548 1.8168 6.3411 8.6695 6.3411 2.293 0 3.9511 0.49389 4.9036 1.4905a2.9545 2.9545 0 0 1 0.88194 2.1608 4.3215 4.3215 0 0 1-1.1465 3.078c-0.97013 1.0054-2.5135 1.5169-4.5684 1.5169a5.5474 5.5474 0 0 1-4.2333-1.5434 4.9212 4.9212 0 0 1-1.2524-3.4219 1.5875 1.5875 0 0 0-3.175 0 7.6905 7.6905 0 0 0 2.1608 5.618 8.8988 8.8988 0 0 0 6.4558 2.54c6.641 0 8.9958-4.1892 8.9958-7.7699 0-4.1716-3.5278-6.8615-8.9958-6.8615m-86.43-11.086a8.2461 8.2461 0 0 0-8.5989 8.6254v14.993a1.6052 1.6052 0 0 0 3.2103 0v-6.3764h5.3887a8.6254 8.6254 0 0 0 0-17.242m0 14.111h-5.3798v-5.4592a5.1505 5.1505 0 0 1 5.3622-5.5209 5.4857 5.4857 0 0 1 0.30868 10.963h-0.32632zm23.892-14.111a12.841 12.841 0 1 0 12.868 12.832 12.832 12.832 0 0 0-12.868-12.832m0 22.534a9.7013 9.7013 0 1 1 9.7013-9.7013 9.7013 9.7013 0 0 1-9.7013 9.7013m27.137-5.8384a8.6607 8.6607 0 0 0-3.1838-16.757 8.3079 8.3079 0 0 0-8.6695 8.6606v14.905a1.614 1.614 0 0 0 3.2279 0v-6.2265h5.1241l4.2598 6.9673a1.6316 1.6316 0 1 0 2.8928-1.4993 0.56444 0.56444 0 0 0-0.07055-0.12347zm-8.5989-2.5576v-5.4945c0-3.3161 2.1696-5.5386 5.3975-5.5386a5.5209 5.5209 0 0 1 0.29104 11.033h-5.6532zm33.496-12.03a1.6051 1.6051 0 0 1-1.6051 1.6051h-5.5739v19.861a1.614 1.614 0 0 1-3.2279 0v-19.861h-5.5739a1.614 1.614 0 1 1 0-3.2191h14.376a1.6051 1.6051 0 0 1 1.6051 1.6051z" fill="#fff"/><path class="cls-3" d="m151.26 65.483h-149.5v-63.72h149.5z" fill="#fff"/><path class="cls-3" d="m30.057 21.809a16.528 16.528 0 0 0-13.3 6.641v-16.157a1.561 1.561 0 0 0-3.1221 0v26.511a16.237 16.237 0 0 0 16.422 15.945c9.8336 0 16.439-8.5725 16.439-16.58 0-10.107-8.5372-16.36-16.439-16.36m0 29.651a13.291 13.291 0 1 1 13.159-13.361v0.07056a13.273 13.273 0 0 1-13.229 13.291m51.364-13.176a1.5258 1.5258 0 0 1-1.464 1.5787h-17.268a1.6228 1.6228 0 0 1-1.5434-1.7021 1.6404 1.6404 0 0 1 1.5434-1.5522h15.407a13.229 13.229 0 1 0-1.8256 8.5548 1.5963 1.5963 0 0 1 1.0319-0.69673 1.5434 1.5434 0 0 1 1.2083 0.24694 1.614 1.614 0 0 1 0.46743 2.2225 16.483 16.483 0 1 1 2.4518-8.6695zm9.1986 13.802a3.2014 3.2014 0 0 1-6.3059 0v-27.525a3.2014 3.2014 0 0 1 6.3059 0zm41.839 1.7639a11.254 11.254 0 0 1-4.295 0.88194 10.213 10.213 0 0 1-8.1491-4.2157c-1.1818-1.7639-12.241-19.253-12.709-20.029 0-0.06174-1.2347-2.54-3.5983-2.4077-4.101 0.37042-3.907 3.8012-3.907 3.9423v19.835a3.1662 3.1662 0 0 1-6.2618 0.35278v-20.717c0-0.07056 0.14993-6.4293 6.1736-8.9252a10.213 10.213 0 0 1 12.568 4.0481l12.656 19.932a3.9599 3.9599 0 0 0 5.2916 1.3405 3.7394 3.7394 0 0 0 2.0285-3.1132v-20.285a3.1573 3.1573 0 0 1 3.1221-2.6458 3.1132 3.1132 0 0 1 3.1221 2.6458v20.285a9.622 9.622 0 0 1-6.0589 9.0928z" fill="#5d2e8f"/></g>
</svg>
