<svg width="800" height="254.35" version="1.1" viewBox="0 0 800 254.35" xml:space="preserve" xmlns="http://www.w3.org/2000/svg"><g transform="matrix(1.0088 0 0 1.0088 -7.0233 .0041556)" stroke-width="4.3447"><path d="m393.3 50.111c24.96 55.564-40.093 134.6-145.3 176.55-105.21 41.944-210.74 30.904-235.7-24.66s40.093-134.6 145.3-176.55c105.21-41.944 210.74-30.904 235.7 24.66" fill="#7eca2b"/><path d="m367.84 55.194c25.59 53.162-27.467 127.79-118.51 166.67-91.039 38.889-185.59 27.319-211.18-25.838-25.59-53.166 27.467-127.79 118.51-166.68 91.039-38.889 185.59-27.319 211.18 25.842" fill="#141316"/><path d="m141.96 153.21c6.2172-13.812 0.42144-22.866-7.6467-30.252 10.592-6.1217 21.993-12.639 26.698-23.088 4.5228-10.045 4.084-21.424-20.894-21.424h-56.676l-8.6416 18.669 42.882 0.0043c5.8306 0 16.571-1.034 13.017 6.8646-2.8849 6.4128-15.354 12.465-22.293 15.919l-8.1202 4.2752c7.0601 4.3708 19.742 14.529 15.063 24.917-3.554 7.903-12.647 8.2375-18.852 8.2375h-19.273l23.783-52.84h-24.747l-32.181 71.514h51.858c29.687 0 41.401-12.526 46.023-22.797" fill="#fff"/><path d="m141.39 175.98h66.713l14.003-18.673h-47.566l9.9884-22.201h34.81l14.012-18.678h-40.414l8.7024-19.334 39.302-0.0043 13.864-18.673h-69.511z" fill="#fff"/><path d="m278.95 122.19 4.6271 53.792h29.77l-6.3259-54.852 44.763-42.713h-27.793zm-54.209 53.792h24.743l43.907-97.564h-24.747z" fill="#fff"/></g><g transform="matrix(1.0088 0 0 1.0088 -7.0233 .0041556)" fill="#fff" stroke-width="4.3447"><path d="m430.97 134.44 3.2064-9.1499h16.314l-2.5416 7.0645c-0.44316 1.3903-0.23462 1.8899 1.26 1.8899h14.82c1.4902 0 2.0768-0.49964 2.6198-1.8899l2.4721-7.2643c0.75163-1.9899 0.22592-2.3896-1.5771-2.8849l-16.501-4.5793c-8.3505-2.2853-12.322-4.575-9.0804-13.925l4.0058-11.44c3.3411-9.3541 9.1847-13.729 18.235-13.729h23.275c9.05 0 11.861 4.3751 8.6199 13.729l-2.9631 8.3548h-16.314l2.1984-6.2694c0.56047-1.4902 0.23462-1.8899-1.16-1.8899h-13.625c-1.2904 0-1.9595 0.39971-2.42 1.8899l-2.3331 6.4692c-0.65171 1.9899-0.34323 2.4852 1.5597 2.9848l16.618 4.475c8.3679 2.1897 12.322 4.575 9.0804 13.929l-4.3447 12.235c-3.2238 9.2542-9.1847 13.729-18.235 13.729h-24.669c-9.05 0-11.844-4.475-8.5199-13.729"/><path d="m533.37 111.46c1.2904 0 1.8595-0.39537 2.4243-1.8899l5.3136-14.924c0.46054-1.4902 0.13469-1.8899-1.1557-1.8899h-16.91l-6.5822 18.704zm-21.845-32.928h38.294c9.05 0 11.861 4.3751 8.6199 13.729l-6.9558 19.699c-3.3367 9.3498-9.1847 13.725-18.335 13.725h-21.684l-7.9421 22.484h-16.51z"/><path d="m587.42 133.83c1.2947 0 1.8812-0.4953 2.4243-1.8899l13.125-37.208c0.46054-1.4902 0.23027-1.8899-1.16-1.8899h-16.61c-1.2947 0-1.9594 0.39971-2.42 1.8899l-13.125 37.208c-0.54743 1.3946-0.23896 1.8899 1.1557 1.8899zm-35.114 0.59522 14.798-42.178c3.3367-9.3541 9.1803-13.729 18.235-13.729h26.355c9.1543 0 11.961 4.3751 8.6242 13.729l-14.798 42.178c-3.3237 9.2542-9.189 13.729-18.339 13.729h-26.355c-9.0543 0-11.844-4.475-8.5199-13.729"/><path d="m659.5 110.46c1.3903 0 1.9595-0.39971 2.5199-1.8899l4.979-14.129c0.56046-1.4902 0.23027-1.8899-1.0601-1.8899h-16.91l-6.3389 17.909zm24.795-18.204-6.1521 17.405c-2.7632 7.764-7.3165 12.139-13.99 13.334l2.9196 25.169h-16.41l-3.0326-23.974h-9.7495l-8.5026 23.974h-16.51l24.513-69.637h38.294c9.05 0 11.861 4.3751 8.6199 13.729"/><path d="m708.11 92.949h-17.605l5.0268-14.424h51.823l-5.0312 14.424h-17.705l-19.482 55.212h-16.51z"/><path d="m733.53 134.44 3.2064-9.1499h16.314l-2.5416 7.0645c-0.44316 1.3903-0.23462 1.8899 1.2556 1.8899h14.82c1.4946 0 2.0768-0.49964 2.6242-1.8899l2.4721-7.2643c0.75163-1.9899 0.22592-2.3896-1.5815-2.8849l-16.497-4.5793c-8.3505-2.2853-12.322-4.575-9.0804-13.925l4.0058-11.44c3.3411-9.3541 9.1803-13.729 18.235-13.729h23.27c9.0543 0 11.865 4.3751 8.6242 13.729l-2.9631 8.3548h-16.314l2.1984-6.2694c0.56047-1.4902 0.23462-1.8899-1.16-1.8899h-13.625c-1.2947 0-1.9595 0.39971-2.4243 1.8899l-2.3288 6.4692c-0.65171 1.9899-0.34323 2.4852 1.5597 2.9848l16.618 4.475c8.3635 2.1897 12.322 4.575 9.0804 13.929l-4.349 12.235c-3.2194 9.2542-9.1803 13.729-18.23 13.729h-24.669c-9.05 0-11.844-4.475-8.5199-13.729"/></g></svg>
