<svg width="800" height="191.72" version="1.1" viewBox="0 0 800 191.72" xml:space="preserve" xmlns="http://www.w3.org/2000/svg"><g transform="matrix(1.0064 0 0 1.0064 -5.1091 -.013511)"><path d="m296.99 37.879c18.858 41.982-30.297 101.71-109.79 133.4-79.495 31.69-159.23 23.35-178.09-18.632-18.861-41.982 30.297-101.71 109.79-133.4 79.498-31.693 159.24-23.35 178.1 18.632" fill="#72b509" stroke-width="2.571"/><g transform="matrix(2.571 0 0 -2.571 277.74 41.735)"><path d="m0 0c7.521-15.624-8.073-37.555-34.829-48.984-26.757-11.429-54.544-8.029-62.065 7.595s8.073 37.555 34.83 48.984c26.756 11.429 54.543 8.029 62.064-7.595" fill="#131210"/></g><path d="m107.09 115.75c4.6972-10.436 0.31623-17.277-5.7796-22.859 8.0061-4.6252 16.622-9.5461 20.175-17.444 3.4169-7.5896 3.0852-16.19-15.789-16.19h-42.825l-6.5278 14.11 32.4 0.0026c4.4093 0 12.523-0.78416 9.8367 5.1857-2.1802 4.8438-11.603 9.4176-16.845 12.03l-6.1344 3.2292c5.3348 3.3037 14.917 10.976 11.384 18.83-2.6867 5.9699-9.559 6.2218-14.246 6.2218h-14.562l17.969-39.925h-18.699l-24.317 54.035h39.187c22.429 0 31.279-9.4613 34.773-17.226" fill="#fff" stroke-width="2.571"/><path d="m106.66 132.98h50.407l10.582-14.11h-35.94l7.5485-16.776h26.301l10.585-14.11h-30.538l6.5766-14.611 29.698-0.0026 10.477-14.107h-52.523z" fill="#fff" stroke-width="2.571"/><path d="m210.58 92.358 3.4966 40.642h22.494l-4.7795-41.445 33.824-32.271h-21.003zm-40.961 40.642h18.696l33.176-73.716h-18.699z" fill="#fff" stroke-width="2.571"/></g><g transform="matrix(1.0064 0 0 1.0064 -5.1091 -.013511)" fill="#fff"><g stroke-width="2.571"><path d="m325.44 101.59 2.4219-6.9134h12.325l-1.918 5.3348c-0.3368 1.0515-0.1774 1.4295 0.95127 1.4295h11.197c1.1261 0 1.5709-0.37794 1.9797-1.4295l1.8691-5.4865c0.56819-1.504 0.16969-1.8048-1.193-2.1802l-12.467-3.458c-6.3092-1.7277-9.3122-3.458-6.862-10.523l3.0286-8.6437c2.5222-7.0677 6.9391-10.374 13.775-10.374h17.588c6.8389 0 8.9599 3.3063 6.5124 10.374l-2.2394 6.3144h-12.325l1.6609-4.7358c0.42422-1.1287 0.17483-1.4295-0.87414-1.4295h-10.299c-0.97441 0-1.4809 0.30081-1.8306 1.4295l-1.7611 4.8875c-0.48849 1.5015-0.2571 1.8768 1.1801 2.2548l12.557 3.3809c6.3221 1.6532 9.3096 3.458 6.862 10.523l-3.2832 9.2453c-2.4347 6.9906-6.9391 10.374-13.781 10.374h-18.637c-6.8389 0-8.9497-3.3834-6.4378-10.374"/><path d="m402.83 84.234c0.97441 0 1.4038-0.29824 1.8306-1.4269l4.0159-11.276c0.34966-1.1261 0.10284-1.4269-0.87414-1.4269h-12.778l-4.9723 14.13zm-16.506-24.88h28.934c6.8389 0 8.9625 3.3063 6.5149 10.371l-5.2577 14.884c-2.5222 7.0677-6.9391 10.374-13.853 10.374h-16.382l-6.0033 16.989h-12.477z"/><path d="m443.67 101.13c0.97698 0 1.4192-0.37537 1.8306-1.4295l9.9164-28.111c0.34966-1.1287 0.1774-1.4269-0.87414-1.4269h-12.552c-0.97699 0-1.4809 0.29824-1.828 1.4269l-9.9189 28.111c-0.41136 1.0541-0.1774 1.4295 0.87414 1.4295zm-26.533 0.44993 11.181-31.87c2.5222-7.0651 6.9391-10.371 13.778-10.371h19.918c6.9134 0 9.0345 3.3063 6.5124 10.371l-11.181 31.87c-2.5093 6.9931-6.9417 10.374-13.855 10.374h-19.915c-6.8414 0-8.9471-3.3809-6.4378-10.374"/><path d="m498.13 83.462c1.0515 0 1.4809-0.30081 1.9051-1.4269l3.7614-10.675c0.42421-1.1287 0.17483-1.4295-0.80215-1.4295h-12.778l-4.7872 13.531zm18.735-13.757-4.6484 13.156c-2.0876 5.8645-5.5276 9.1708-10.572 10.073l2.2085 19.018h-12.4l-2.2933-18.115h-7.3634l-6.4275 18.115h-12.475l18.524-52.618h28.931c6.8414 0 8.9625 3.3063 6.5149 10.371"/><path d="m534.87 70.247h-13.302l3.8-10.898h39.156l-3.7999 10.898h-13.38l-14.722 41.72h-12.474z"/><path d="m554.07 101.59 2.4219-6.9134h12.328l-1.9205 5.3348c-0.3368 1.0515-0.1774 1.4295 0.95127 1.4295h11.197c1.1287 0 1.5709-0.37794 1.9822-1.4295l1.8666-5.4865c0.56819-1.504 0.16969-1.8048-1.1904-2.1802l-12.469-3.458c-6.3092-1.7277-9.3096-3.458-6.862-10.523l3.0286-8.6437c2.5247-7.0677 6.9366-10.374 13.778-10.374h17.586c6.8414 0 8.9625 3.3063 6.5149 10.374l-2.2394 6.3144h-12.328l1.6609-4.7358c0.42422-1.1287 0.1774-1.4295-0.87414-1.4295h-10.297c-0.97698 0-1.4809 0.30081-1.8306 1.4295l-1.7637 4.8875c-0.48849 1.5015-0.25453 1.8768 1.1801 2.2548l12.557 3.3809c6.3221 1.6532 9.3096 3.458 6.862 10.523l-3.2832 9.2453c-2.4347 6.9906-6.9391 10.374-13.778 10.374h-18.64c-6.8389 0-8.9471-3.3834-6.4378-10.374"/></g><path d="m654.73 84.157c2.5761 0 4.3193-1.5297 5.2706-4.4324l4.2653-12.482c0.96669-2.9798 0.19025-4.4273-2.3859-4.4273h-17.519l-7.15 21.342zm-15.082-28.43h25.471c6.6229 0 8.8108 3.8642 6.3272 11.276l-4.4196 12.966c-2.4862 7.4071-7.2142 11.274-13.914 11.274h-18.329l-7.0651 20.861h-7.0651z" stroke-width="2.571"/><path d="m654.73 84.157c2.5761 0 4.3193-1.5297 5.2706-4.4324l4.2653-12.482c0.96669-2.9798 0.19025-4.4273-2.3859-4.4273h-17.519l-7.15 21.342zm-15.082-28.43h25.471c6.6229 0 8.8108 3.8642 6.3272 11.276l-4.4196 12.966c-2.4862 7.4071-7.2142 11.274-13.914 11.274h-18.329l-7.0651 20.861h-7.0651z" stroke-miterlimit="10"/><path d="m685.11 53.33h6.6975l-19.861 58.794h-6.7z" stroke-width="2.571"/><path d="m685.11 53.33h6.6975l-19.861 58.794h-6.7z" stroke-miterlimit="10"/><path d="m686.01 101.64 11.122-33.022h6.6975l-11.078 32.78c-1.0104 3.2215-0.41393 4.4298 3.4888 4.4298 5.6665 0 9.0885-1.45 13.943-4.3501l11.019-32.86h6.6975l-14.66 43.491h-6.6975l2.0954-6.0393c-4.7178 3.7845-8.4997 6.4429-15.418 6.4429-7.803 0-9.7698-3.4631-7.2091-10.873" stroke-width="2.571"/><path d="m686.01 101.64 11.122-33.022h6.6975l-11.078 32.78c-1.0104 3.2215-0.41393 4.4298 3.4888 4.4298 5.6665 0 9.0885-1.45 13.943-4.3501l11.019-32.86h6.6975l-14.66 43.491h-6.6975l2.0954-6.0393c-4.7178 3.7845-8.4997 6.4429-15.418 6.4429-7.803 0-9.7698-3.4631-7.2091-10.873z" stroke-miterlimit="10"/><path d="m726.17 100.28 0.59133-1.6917h6.5509l-0.61961 1.8537c-1.4758 4.1882-0.82015 5.4762 1.9051 5.4762h9.5693c2.7227 0 4.3193-1.5298 6.0958-6.6023 1.5606-4.6741 0.65818-5.3991-1.702-5.8002l-10.654-1.7714c-5.5122-0.887-7.1937-3.4631-4.7204-10.793 2.9566-8.8597 7.2502-12.323 13.801-12.323h9.6438c6.5509 0 8.5177 3.4631 5.8002 11.356l-0.47821 1.45h-6.5483l0.59133-1.6917c1.2289-3.6225 0.57076-4.9106-2.2265-4.9106h-8.0961c-2.7253 0-4.2447 1.5297-5.7462 5.8773-1.3883 4.1085-0.56047 4.8335 1.8743 5.2346l10.58 1.7714c5.5122 0.887 7.1937 3.4631 4.5352 11.438-3.2215 9.5024-7.4379 12.966-13.989 12.966h-11.117c-6.5509 0-8.5177-3.4631-5.6408-11.839" stroke-width="2.571"/><path d="m726.17 100.28 0.59133-1.6917h6.5509l-0.61961 1.8537c-1.4758 4.1882-0.82015 5.4762 1.9051 5.4762h9.5693c2.7227 0 4.3193-1.5298 6.0958-6.6023 1.5606-4.6741 0.65818-5.3991-1.702-5.8002l-10.654-1.7714c-5.5122-0.887-7.1937-3.4631-4.7204-10.793 2.9566-8.8597 7.2502-12.323 13.801-12.323h9.6438c6.5509 0 8.5177 3.4631 5.8002 11.356l-0.47821 1.45h-6.5483l0.59133-1.6917c1.2289-3.6225 0.57076-4.9106-2.2265-4.9106h-8.0961c-2.7253 0-4.2447 1.5297-5.7462 5.8773-1.3883 4.1085-0.56047 4.8335 1.8743 5.2346l10.58 1.7714c5.5122 0.887 7.1937 3.4631 4.5352 11.438-3.2215 9.5024-7.4379 12.966-13.989 12.966h-11.117c-6.5509 0-8.5177-3.4631-5.6408-11.839z" stroke-miterlimit="10"/><path d="m780.45 85.545h-10.896l2.2419-6.4429h10.896l3.9414-11.919h5.8876l-4.0159 11.919h10.896l-2.1674 6.4429h-10.893l-4.0185 11.919h-5.8876z" stroke-width="2.571"/><path d="m780.45 85.545h-10.896l2.2419-6.4429h10.896l3.9414-11.919h5.8876l-4.0159 11.919h10.896l-2.1674 6.4429h-10.893l-4.0185 11.919h-5.8876z" stroke-miterlimit="10"/></g></svg>
