<svg width="800" height="206.97" version="1.1" viewBox="0 0 800 206.97" xml:space="preserve" xmlns="http://www.w3.org/2000/svg"><g transform="matrix(1.3333 0 0 -1.3333 -336.18 618.81)"><path d="m330.07 367.17c0-13.24-3.4169-27.545-18.576-27.545s-18.576 14.305-18.576 27.545c0 13.023 3.4169 27.328 18.576 27.328s18.576-14.305 18.576-27.328m-77.936-55.517h40.785v12.169h0.42711c5.3352-7.0437 11.742-14.942 32.453-14.942 31.389 0 46.548 30.962 46.548 58.717 0 26.046-10.033 57.652-47.185 57.652-12.603 0-23.918-5.5524-30.325-14.949h-0.42711v53.808h-42.276zm241.28 110.82h-43.131l-17.511-67.469h-0.42711l-17.294 67.469h-44.622l36.297-110.82h49.964zm117.01-55.3c0 30.745-18.793 58.079-60.425 58.079-41.639 0-60.432-27.335-60.432-58.079 0-30.745 18.793-58.289 60.432-58.289 41.632 0 60.425 27.545 60.425 58.289m-42.276 0c0-11.742-2.1355-27.545-18.148-27.545-16.02 0-18.156 15.803-18.156 27.545s2.1355 27.328 18.156 27.328c16.013 0 18.148-15.586 18.148-27.328m161.42 55.3h-43.131l-17.511-67.469h-0.42711l-17.294 67.469h-44.622l36.297-110.82h49.964zm7.2608-110.82h42.276v58.507c0 17.721 9.6136 21.355 16.867 21.355 12.386 0 13.885-8.9693 13.885-21.783v-58.079h42.276v76.018c0 25.409-18.148 37.578-38.005 37.578-16.874 0-28.189-5.7696-36.087-16.867h-0.42711v14.087h-40.785z" fill="#00a0e4"/></g></svg>
