<!DOCTYPE svg  PUBLIC '-//W3C//DTD SVG 1.1//EN'  'http://www.w3.org/Graphics/SVG/1.1/DTD/svg11.dtd'>
<svg width="1e3px" height="647.58px" enable-background="new -194 77.432 999.999 647.584" version="1.1" viewBox="-194 77.432 1e3 647.58" xml:space="preserve" xmlns="http://www.w3.org/2000/svg">
	<path d="m806 199.61-126.43 0.189-39.038-122.27-38.634 122.39-126.46 0.2 102.61 73.135-39.174 119.27 102.02-74.115 102.29 73.805-39.541-119.15 102.35-73.456zm-212.43-122.18-378.96 0.588c-34.543 0.058-55.339 4.816-72.344 15.26-14.19 9.008-27.414 21.32-37.804 36.49-7.172 10.121-12.876 20.519-17.346 31.563v-0.322c-0.069-41.15-26.617-74.236-63.997-79.852-9.93-1.401-26.479-2.793-38.777-2.781l-178.35 0.278 0.489 315.53 174.55-0.27c45.423-0.08 65.282-5.307 82.288-20.939 15.582-14.227 23.576-36.479 23.543-62.495 0-0.7-0.031-1.401-0.047-2.103 13.073 36.97 36.226 63.727 66.288 74.406 21.286 7.525 48.745 10.796 87.991 10.741l72.571-0.112-0.123-81.073-52.373 0.088c-63.003-0.034-83.634 5.684-94.699-40.215l147.01-0.222-0.116-71.232-147.17 0.111s7.307-41.694 50.947-41.773c12.891-9e-3 21.497-0.033 44.197-0.065l100.68-0.156 0.36 234.45 91.466-0.146-0.364-234.45 114.97-0.178 25.103-81.121zm-710.02 82.421 98.869-0.155c24.445-0.032 23.269 20.487 23.269 20.487 0.034 21.441-23.31 20.608-23.31 20.608l-98.76 0.154-0.068-41.094zm122.5 132.64c0.034 21.43-23.299 20.609-23.299 20.609l-98.793 0.154-0.066-41.104 98.88-0.156c24.467-0.033 23.278 20.497 23.278 20.497zm35.3-56.197c14.611-6.039 27.077-18.439 35.275-33.821-1.243 9.7-1.824 19.942-1.801 30.929 0.023 12.268 0.859 24.034 2.472 35.267-7.557-14.014-19.508-24.958-35.946-32.375z" fill="#24AEE4"/>
	<path d="m-56.882 535.9c50.703-0.076 91.063 41.46 91.142 90.864 0.078 50.271-40.594 93.222-90.862 93.302l-120.04 0.186-0.103-63.7 113.1-0.175c16.905-0.025 30.746-12.188 30.727-29.08-0.021-16.894-13.922-28.996-30.816-28.975l-38.998 0.055c-49.826 0.076-89.327-42.331-89.406-91.735-0.076-48.952 39.299-89.757 89.126-89.837l100.96-0.153 0.099 61.963-96.193 0.142c-16.041 0.026-28.58 12.617-28.557 28.647 0.021 16.022 12.617 28.584 28.641 28.563l41.171-0.067z" fill="#221F1F"/>
	<path d="m426.57 415.99 0.31 202.79c0.036 23.398 19.566 42.866 43.397 42.834 23.836-0.033 43.314-19.57 43.268-42.969l-0.303-202.8 64.574-0.099 0.31 202.81c0.088 59.369-47.933 106.24-108.17 106.33-60.24 0.091-107.54-46.629-107.62-105.99l-0.313-202.8 64.549-0.109z" fill="#221F1F"/>
	<path d="m594.01 415.72 64.997-0.098 0.379 242.66 114.39-0.179 0.091 60.674-179.4 0.276-0.456-303.33z" fill="#221F1F"/>
	<path d="m348.61 568.39c0 86.549-69.294 156.63-154.65 156.63-85.494 0-154.78-70.078-154.78-156.63 0-86.413 69.291-156.5 154.78-156.5 85.359 0 154.65 70.082 154.65 156.5z" fill="#221F1F"/>
	<path d="m313.3 571.82c0 66.392-53.217 120.27-118.95 120.27-65.602 0-118.82-53.877-118.82-120.27s53.22-120.27 118.82-120.27c65.737 1e-3 118.95 53.878 118.95 120.27z" fill="#24AEE4"/>
	<path d="m284.46 571.42c0 50.584-40.576 91.688-90.502 91.688-50.056 0-90.631-41.104-90.631-91.688 0-50.589 40.575-91.685 90.631-91.685 49.926 0 90.502 41.096 90.502 91.685z" fill="#fff"/>
</svg>
