<svg width="1e3" height="315.58" enable-background="new 0 0 1000 456.989" version="1.1" viewBox="0 0 1e3 315.58" xml:space="preserve" xmlns="http://www.w3.org/2000/svg">
<g transform="translate(0 -141.41)" fill="#fff"><polygon transform="translate(0 141.41)" points="732.53 315.04 834.66 241.1 936.88 315.04 897.54 195.86 1e3 122.56 873.52 122.56 834.66 0.181 795.86 122.56 669.37 122.56 771.89 195.86"/><path d="m787.76 141.41h-379.06c-34.531 0-55.365 4.735-72.375 15.146-14.223 8.98-27.44 21.282-37.852 36.439-7.182 10.1-12.928 20.505-17.425 31.54 0-0.091 9e-3 -0.203 9e-3 -0.332 0-41.149-26.498-74.278-63.889-79.948-9.909-1.421-26.461-2.845-38.801-2.845h-178.37v315.58h174.59c45.427 0 65.301-5.17 82.342-20.828 15.615-14.201 23.667-36.437 23.667-62.446 0-0.69-0.064-1.408-0.083-2.138 13.04 37.007 36.148 63.822 66.223 74.522 21.263 7.571 48.708 10.89 87.98 10.89h72.559v-81.074h-52.355c-63.014-0.152-83.687 5.556-94.662-40.381h147.02v-71.24l-147.17-0.129s7.352-41.668 51.008-41.668h144.89v234.49h91.48v-234.49h115.02l25.254-81.09zm-710.3 81.331h98.851c24.504 0 23.27 20.517 23.27 20.517 0 21.469-23.34 20.587-23.34 20.587h-98.781v-41.104zm122.34 132.85c0 21.481-23.342 20.575-23.342 20.575h-98.775v-41.08h98.841c24.459 0 23.276 20.505 23.276 20.505m35.356-56.145c14.66-6.025 27.129-18.367 35.336-33.776-1.24 9.701-1.855 19.95-1.855 30.944 0 12.256 0.863 24.043 2.422 35.266-7.528-14.041-19.445-25.01-35.903-32.434"/></g>
</svg>
