<svg width="405.34" height="380.14" version="1.1" viewBox="0 0 405.34 380.14" xml:space="preserve" xmlns="http://www.w3.org/2000/svg"><defs><clipPath id="clipPath56"><path d="m313.75 0h407.25v380.25h-407.25z"/></clipPath><clipPath id="clipPath76"><path d="m407.27 112.97c-21.471 21.47-34.751 51.132-34.751 83.894 0-32.762 13.28-62.424 34.751-83.894"/></clipPath><clipPath id="clipPath88"><path d="m313.75 0h407.25v380.25h-407.25z"/></clipPath><clipPath id="clipPath100"><path d="m491.16 315.5m-83.893-34.749c-21.471-21.471-34.751-51.131-34.751-83.895 0-32.762 13.28-62.424 34.751-83.894 21.47-21.47 51.131-34.752 83.893-34.752 32.765 0 62.427 13.282 83.898 34.752s34.752 51.132 34.752 83.894c0 32.764-13.281 62.424-34.752 83.895-21.471 21.47-51.133 34.749-83.898 34.749v-8.54c30.415-2e-3 57.927-12.318 77.86-32.247 19.931-19.933 32.248-47.443 32.25-77.857-2e-3 -30.412-12.319-57.923-32.25-77.856-19.934-19.93-47.445-32.248-77.86-32.249-30.412 1e-3 -57.922 12.319-77.854 32.249-19.932 19.933-32.248 47.444-32.25 77.856 2e-3 30.414 12.318 57.924 32.25 77.857 19.932 19.929 47.442 32.245 77.854 32.247v8.54c-32.762 0-62.423-13.279-83.893-34.749"/></clipPath><clipPath id="clipPath244"><path d="m432.42 103.72c-1.002 0.633-1.993 1.283-2.973 1.947 0.98-0.665 1.971-1.314 2.973-1.947m58.749-16.967h-0.225 0.225c22.871 1e-3 44.098 6.965 61.698 18.894-17.6-11.929-38.827-18.893-61.698-18.894m-58.704 16.938c-0.015 0.01-0.03 0.02-0.045 0.029 0.015-0.01 0.03-0.019 0.045-0.029m0.18-0.113c-0.06 0.038-0.12 0.076-0.18 0.113 0.06-0.038 0.12-0.075 0.18-0.113m0.126-0.079c-0.042 0.026-0.084 0.053-0.126 0.079 0.042-0.027 0.084-0.053 0.126-0.079m0.054-0.034c-0.018 0.011-0.036 0.022-0.054 0.034 0.019-0.012 0.036-0.023 0.054-0.034m0.987-0.611c9.799-5.993 20.607-10.495 32.11-13.194 1.601-0.375 3.216-0.716 4.843-1.02-13.713 2.569-26.527 7.679-37.94 14.825 0.328-0.206 0.657-0.409 0.987-0.611m36.962-14.216c-3e-3 1e-3 -6e-3 1e-3 -9e-3 2e-3 2e-3 -1e-3 6e-3 -2e-3 9e-3 -2e-3m0.224-0.042c-0.075 0.014-0.149 0.028-0.224 0.042 0.075-0.014 0.149-0.028 0.224-0.042m0.041-7e-3c-0.013 2e-3 -0.027 5e-3 -0.041 7e-3 0.014-2e-3 0.028-5e-3 0.041-7e-3m0.199-0.037c-0.066 0.012-0.132 0.024-0.199 0.037 0.066-0.013 0.133-0.025 0.199-0.037m0.055-0.01c-0.018 3e-3 -0.037 7e-3 -0.055 0.01 0.018-3e-3 0.037-7e-3 0.055-0.01m0.17-0.031c-0.057 0.01-0.113 0.021-0.17 0.031 0.057-0.01 0.114-0.021 0.17-0.031m0.084-0.015c-0.028 5e-3 -0.056 0.01-0.084 0.015 0.028-5e-3 0.056-0.01 0.084-0.015m0.117-0.021c-0.039 7e-3 -0.079 0.014-0.117 0.021 0.039-7e-3 0.077-0.014 0.117-0.021m0.572-0.101c-0.191 0.033-0.382 0.067-0.572 0.101 0.189-0.034 0.382-0.068 0.572-0.101-1e-3 1e-3 1e-3 0 0 0m18.529-1.621c-0.399 2e-3 -0.797 6e-3 -1.195 0.011-3.041 0.043-6.057 0.211-9.033 0.496-2.8 0.268-5.567 0.641-8.301 1.114 6.021-1.043 12.214-1.597 18.529-1.621m0.012 0h-0.012 0.012m0.167 0h-0.167 0.167"/></clipPath><clipPath id="clipPath254"><path d="m313.75 0h407.25v380.25h-407.25z"/></clipPath><radialGradient id="radialGradient304" cx="0" cy="0" r="1" gradientTransform="matrix(89.949 0 0 -105.52 492.74 104.56)" gradientUnits="userSpaceOnUse"><stop stop-color="#f47719" offset="0"/><stop stop-color="#f47719" offset=".005102"/><stop stop-color="#f45916" offset=".86785"/><stop stop-color="#f45916" offset="1"/></radialGradient><clipPath id="clipPath314"><path d="m313.75 0h407.25v380.25h-407.25z"/></clipPath><clipPath id="clipPath358"><path d="m345.67 34.554h304.01v314.64h-304.01z"/></clipPath><clipPath id="clipPath374"><path d="m313.75 0h407.25v380.25h-407.25z"/></clipPath></defs><g transform="matrix(1.3333 0 0 -1.3333 -460.89 465.58)"><g clip-path="url(#clipPath56)"><g transform="translate(365.66 196.86)"><path d="m0 0c0 69.648 56.461 126.11 126.11 126.11s126.11-56.461 126.11-126.11-56.461-126.11-126.11-126.11-126.11 56.46-126.11 126.11" fill="#f94d12"/></g><g transform="translate(491.17 67.86)"><path d="m0 0c-70.907 0-128.39 57.482-128.39 128.39s57.481 128.39 128.39 128.39 128.39-57.481 128.39-128.39c0-70.906-57.482-128.39-128.39-128.39m0.606 255.11c-69.649 0-126.11-56.461-126.11-126.11s56.461-126.11 126.11-126.11c69.648 0 126.11 56.46 126.11 126.11 0 69.648-56.461 126.11-126.11 126.11" fill="#ffd3c0"/></g><g transform="translate(491.77 70.752)"><path d="m0 0c-69.649 0-126.11 56.46-126.11 126.11 0 69.648 56.46 126.11 126.11 126.11 69.648 0 126.11-56.461 126.11-126.11s-56.461-126.11-126.11-126.11m-119.25 126.11c0-32.762 13.28-62.423 34.751-83.894 21.47-21.47 51.132-34.751 83.893-34.751 32.765 0 62.427 13.281 83.899 34.751 0.018 0.019 0.037 0.038 0.056 0.057 2e-3 1e-3 1e-3 1e-3 2e-3 2e-3l0.024 0.024c0.01 0.01 0.02 0.019 0.03 0.03l6e-3 6e-3c6e-3 6e-3 0.014 0.014 0.02 0.021 1e-3 1e-3 3e-3 1e-3 4e-3 3e-3 1e-3 1e-3 0 0 2e-3 1e-3 7e-3 8e-3 0.015 0.016 0.023 0.024 2e-3 1e-3 4e-3 4e-3 5e-3 6e-3 2e-3 1e-3 4e-3 3e-3 5e-3 4e-3 6e-3 7e-3 0.013 0.013 0.019 0.019l4e-3 4e-3 2e-3 1e-3c4e-3 6e-3 0.01 0.011 0.015 0.017 3e-3 2e-3 2e-3 2e-3 5e-3 4e-3 5e-3 6e-3 0.011 0.011 0.016 0.017 5e-3 4e-3 0.013 0.012 0.018 0.017l0.021 0.021c2e-3 3e-3 8e-3 9e-3 0.01 0.011l0.024 0.024c2e-3 1e-3 2e-3 2e-3 3e-3 3e-3l0.059 0.059c5e-3 5e-3 0.01 0.01 0.015 0.016l0.023 0.023v1e-3c7e-3 6e-3 0.014 0.013 0.021 0.02l0.019 0.019c0.013 0.014 0.025 0.025 0.038 0.039l0.023 0.023c0.012 0.011 0.026 0.027 0.038 0.038 7e-3 7e-3 0.013 0.014 0.019 0.02 0.017 0.018 0.033 0.033 0.05 0.05 2e-3 3e-3 6e-3 7e-3 8e-3 9e-3l0.06 0.06c4e-3 5e-3 7e-3 8e-3 0.012 0.013l0.046 0.046c6e-3 7e-3 0.011 0.012 0.018 0.018 0.014 0.015 0.028 0.029 0.042 0.044 5e-3 4e-3 0.011 0.011 0.016 0.016 0.014 0.015 0.03 0.03 0.044 0.045 5e-3 5e-3 0.011 0.011 0.016 0.017 0.017 0.017 0.033 0.033 0.049 0.05 4e-3 3e-3 7e-3 6e-3 9e-3 9e-3 0.02 0.019 0.04 0.04 0.059 0.06l0.012 0.012c0.016 0.016 0.032 0.032 0.047 0.049 5e-3 4e-3 0.011 0.011 0.016 0.015 0.014 0.015 0.028 0.03 0.042 0.044 6e-3 5e-3 0.013 0.013 0.019 0.019 0.015 0.016 0.028 0.028 0.043 0.044l0.015 0.015c0.018 0.019 0.034 0.035 0.052 0.054l6e-3 6e-3c0.039 0.041 0.079 0.081 0.118 0.123 5e-3 4e-3 8e-3 8e-3 0.013 0.012 0.015 0.016 0.031 0.034 0.047 0.049 5e-3 6e-3 8e-3 8e-3 0.013 0.014 0.015 0.016 0.031 0.032 0.046 0.048l0.014 0.014c0.018 0.019 0.034 0.035 0.052 0.054l6e-3 6e-3c0.041 0.043 0.08 0.083 0.121 0.126 1e-3 1e-3 3e-3 3e-3 4e-3 5e-3 0.019 0.018 0.035 0.035 0.053 0.054 4e-3 4e-3 9e-3 9e-3 0.013 0.014 0.015 0.016 0.032 0.033 0.047 0.049l0.012 0.012c0.018 0.019 0.034 0.036 0.052 0.055 2e-3 1e-3 5e-3 5e-3 6e-3 6e-3 0.04 0.041 0.08 0.083 0.119 0.125l8e-3 8e-3c0.017 0.018 0.035 0.036 0.051 0.054l0.012 0.012c0.015 0.015 0.033 0.034 0.048 0.051l0.011 0.011c0.017 0.019 0.035 0.037 0.053 0.056l5e-3 5e-3c0.059 0.063 0.119 0.126 0.179 0.19 3e-3 2e-3 5e-3 4e-3 7e-3 7e-3 0.018 0.019 0.036 0.037 0.053 0.056 3e-3 2e-3 5e-3 5e-3 7e-3 7e-3 0.018 0.019 0.038 0.041 0.056 0.059 1e-3 2e-3 1e-3 2e-3 3e-3 4e-3 0.061 0.064 0.12 0.128 0.181 0.192l2e-3 3e-3c0.02 0.02 0.038 0.04 0.057 0.06 2e-3 3e-3 3e-3 3e-3 6e-3 6e-3 0.018 0.02 0.037 0.04 0.056 0.061l2e-3 1e-3c0.061 0.066 0.12 0.129 0.181 0.194 1e-3 2e-3 1e-3 2e-3 3e-3 3e-3 0.019 0.021 0.038 0.041 0.056 0.061l4e-3 4e-3c6.312 6.791 11.837 14.321 16.432 22.449 4e-3 6e-3 6e-3 0.011 0.01 0.017 7e-3 0.012 0.015 0.026 0.021 0.038 8e-3 0.012 0.014 0.025 0.022 0.037 5e-3 0.01 0.011 0.021 0.016 0.03 9e-3 0.016 0.018 0.032 0.028 0.049 4e-3 7e-3 7e-3 0.013 0.011 0.021 0.818 1.452 1.608 2.926 2.365 4.416 5.687 11.186 9.653 23.391 11.549 36.272 0 2e-3 0 6e-3 1e-3 8e-3 4e-3 0.025 7e-3 0.052 0.011 0.077 1e-3 8e-3 2e-3 0.013 3e-3 0.021 4e-3 0.023 7e-3 0.045 0.01 0.068 1e-3 5e-3 2e-3 0.015 3e-3 0.021 3e-3 0.023 7e-3 0.045 0.01 0.069 1e-3 8e-3 2e-3 0.012 3e-3 0.02 4e-3 0.028 8e-3 0.058 0.012 0.086 1e-3 4e-3 2e-3 8e-3 2e-3 0.012 3e-3 0.023 7e-3 0.049 0.011 0.072 1e-3 0.013 3e-3 0.023 5e-3 0.036 2e-3 0.015 4e-3 0.034 7e-3 0.049 2e-3 0.014 3e-3 0.027 5e-3 0.041 2e-3 0.013 5e-3 0.028 6e-3 0.042 2e-3 0.015 5e-3 0.031 7e-3 0.047 1e-3 0.011 3e-3 0.02 4e-3 0.031 3e-3 0.02 5e-3 0.036 8e-3 0.055 0 2e-3 1e-3 5e-3 1e-3 7e-3 0.01 0.073 0.021 0.148 0.031 0.221 0 2e-3 1e-3 5e-3 1e-3 7e-3 3e-3 0.025 6e-3 0.047 0.01 0.072 0 2e-3 1e-3 6e-3 1e-3 7e-3 3e-3 0.024 7e-3 0.05 0.01 0.073 0 2e-3 0 2e-3 1e-3 4e-3 0.73 5.322 1.107 10.756 1.107 16.279v0.196c-1e-3 0.731-9e-3 1.463-0.023 2.191 0 6e-3 0 0.015-1e-3 0.021v4e-3c-0.132 6.608-0.804 13.085-1.973 19.385-0.374 2.013-0.799 4.007-1.273 5.983-7e-3 0.03-0.014 0.058-0.021 0.088l-1e-3 4e-3c-7e-3 0.03-0.013 0.055-0.021 0.085l-1e-3 5e-3c-7e-3 0.028-0.013 0.056-0.02 0.084 0 3e-3 0 2e-3 -1e-3 6e-3 -7e-3 0.026-0.014 0.056-0.02 0.082-1e-3 4e-3 -1e-3 4e-3 -2e-3 7e-3 -6e-3 0.027-0.013 0.055-0.02 0.081 0 4e-3 -1e-3 7e-3 -2e-3 0.01-7e-3 0.026-0.013 0.052-0.019 0.078-1e-3 4e-3 -2e-3 8e-3 -3e-3 0.011-6e-3 0.027-0.012 0.051-0.019 0.077-1e-3 4e-3 -2e-3 9e-3 -3e-3 0.013-7e-3 0.026-0.012 0.05-0.019 0.076-1e-3 3e-3 -2e-3 9e-3 -3e-3 0.013-6e-3 0.024-0.013 0.051-0.018 0.075-2e-3 6e-3 -3e-3 9e-3 -4e-3 0.014-6e-3 0.025-0.013 0.051-0.019 0.076-1e-3 5e-3 -2e-3 7e-3 -3e-3 0.013-6e-3 0.023-0.013 0.05-0.018 0.074-2e-3 6e-3 -3e-3 9e-3 -4e-3 0.015-6e-3 0.024-0.013 0.05-0.019 0.075-1e-3 5e-3 -2e-3 8e-3 -3e-3 0.013-6e-3 0.025-0.013 0.05-0.019 0.074-1e-3 5e-3 -2e-3 0.01-3e-3 0.016-6e-3 0.024-0.013 0.049-0.019 0.073-1e-3 6e-3 -2e-3 9e-3 -4e-3 0.015-5e-3 0.024-0.011 0.048-0.018 0.072-1e-3 6e-3 -3e-3 0.012-4e-3 0.017-6e-3 0.024-0.013 0.05-0.019 0.074-1e-3 4e-3 -2e-3 0.01-3e-3 0.014-7e-3 0.026-0.013 0.048-0.019 0.074-1e-3 4e-3 -3e-3 0.011-4e-3 0.015-6e-3 0.026-0.013 0.05-0.02 0.077 0 3e-3 -1e-3 7e-3 -2e-3 0.011-7e-3 0.026-0.013 0.05-0.02 0.076-1e-3 3e-3 -2e-3 9e-3 -3e-3 0.013-7e-3 0.029-0.014 0.055-0.022 0.085v2e-3c-7e-3 0.027-0.014 0.054-0.021 0.08-1e-3 4e-3 -1e-3 6e-3 -2e-3 9e-3 -0.015 0.06-0.03 0.117-0.045 0.176-4e-3 0.013-7e-3 0.026-0.011 0.039-3e-3 0.015-8e-3 0.034-0.012 0.048-4e-3 0.017-9e-3 0.031-0.013 0.049-3e-3 0.012-7e-3 0.025-0.01 0.038-4e-3 0.016-9e-3 0.034-0.013 0.051-4e-3 0.013-6e-3 0.024-0.01 0.037-5e-3 0.018-9e-3 0.036-0.014 0.055-2e-3 9e-3 -6e-3 0.022-8e-3 0.031-5e-3 0.02-0.01 0.036-0.015 0.057-2e-3 9e-3 -5e-3 0.021-8e-3 0.03-5e-3 0.021-0.01 0.039-0.016 0.059-2e-3 9e-3 -5e-3 0.018-7e-3 0.027-5e-3 0.021-0.01 0.04-0.016 0.061-2e-3 7e-3 -5e-3 0.019-7e-3 0.026-6e-3 0.023-0.011 0.041-0.016 0.063-3e-3 7e-3 -4e-3 0.016-7e-3 0.023-5e-3 0.023-0.011 0.043-0.017 0.065-2e-3 7e-3 -4e-3 0.015-5e-3 0.022-6e-3 0.022-0.013 0.044-0.019 0.067-1e-3 6e-3 -3e-3 0.013-5e-3 0.019-6e-3 0.022-0.012 0.045-0.017 0.067-3e-3 7e-3 -4e-3 0.012-6e-3 0.02-6e-3 0.022-0.012 0.047-0.018 0.069-2e-3 5e-3 -3e-3 0.011-5e-3 0.017-6e-3 0.023-0.012 0.045-0.019 0.069-1e-3 6e-3 -2e-3 0.011-4e-3 0.017-6e-3 0.023-0.014 0.05-0.02 0.073-1e-3 4e-3 -1e-3 7e-3 -3e-3 0.011-6e-3 0.025-0.014 0.051-0.02 0.077-2e-3 3e-3 -2e-3 5e-3 -3e-3 8e-3 -7e-3 0.026-0.014 0.053-0.021 0.078 0 2e-3 -1e-3 6e-3 -2e-3 8e-3 -7e-3 0.028-0.015 0.053-0.022 0.08l-1e-3 4e-3c-8e-3 0.028-0.015 0.056-0.023 0.083v3e-3c-5.513 20.152-16.206 38.165-30.558 52.516-21.472 21.47-51.134 34.75-83.899 34.75-12.417 0-24.392-1.909-35.641-5.447-12.373-3.892-23.869-9.755-34.125-17.223l-1e-3 -1e-3c-0.048-0.035-0.094-0.068-0.142-0.103l-3e-3 -2e-3c-0.023-0.017-0.045-0.033-0.069-0.051-1e-3 -1e-3 -3e-3 -1e-3 -4e-3 -3e-3 -0.045-0.032-0.092-0.067-0.137-0.1l-9e-3 -6e-3c-0.045-0.033-0.089-0.066-0.134-0.099-3e-3 -2e-3 -5e-3 -4e-3 -8e-3 -6e-3 -0.02-0.015-0.043-0.032-0.064-0.047-5e-3 -3e-3 -7e-3 -5e-3 -0.011-9e-3 -0.022-0.015-0.044-0.031-0.064-0.047l-2e-3 -1e-3c-0.02-0.015-0.042-0.031-0.063-0.047-6e-3 -4e-3 -0.01-7e-3 -0.016-0.011-0.019-0.015-0.041-0.031-0.06-0.045-5e-3 -3e-3 -8e-3 -5e-3 -0.012-9e-3 -0.018-0.013-0.037-0.027-0.055-0.04-4e-3 -4e-3 -8e-3 -6e-3 -0.013-0.01-0.019-0.014-0.041-0.03-0.059-0.044-7e-3 -5e-3 -0.011-9e-3 -0.018-0.013-0.017-0.013-0.036-0.027-0.054-0.04-6e-3 -5e-3 -9e-3 -7e-3 -0.015-0.012-0.018-0.013-0.035-0.026-0.053-0.039-6e-3 -4e-3 -0.014-0.01-0.02-0.015-0.019-0.014-0.038-0.028-0.058-0.043-4e-3 -3e-3 -0.011-8e-3 -0.015-0.011-0.018-0.014-0.034-0.026-0.052-0.039-4e-3 -3e-3 -8e-3 -6e-3 -0.013-0.01-0.019-0.014-0.038-0.028-0.057-0.043-8e-3 -5e-3 -0.014-0.011-0.022-0.016-0.016-0.012-0.035-0.026-0.05-0.038-8e-3 -6e-3 -0.014-0.011-0.022-0.016-0.015-0.011-0.03-0.022-0.044-0.034-8e-3 -5e-3 -0.018-0.013-0.025-0.018-0.018-0.014-0.035-0.027-0.053-0.04-8e-3 -6e-3 -0.015-0.011-0.022-0.017-0.014-0.01-0.028-0.021-0.041-0.031-9e-3 -6e-3 -0.015-0.01-0.023-0.017-0.017-0.012-0.035-0.026-0.052-0.038-8e-3 -7e-3 -0.016-0.013-0.025-0.02-0.014-0.011-0.031-0.023-0.046-0.035-0.01-7e-3 -0.019-0.014-0.029-0.021-0.012-9e-3 -0.027-0.021-0.039-0.03-9e-3 -7e-3 -0.017-0.013-0.025-0.019-0.018-0.014-0.033-0.025-0.051-0.039-9e-3 -6e-3 -0.019-0.014-0.028-0.021-0.01-8e-3 -0.023-0.017-0.033-0.025-0.015-0.011-0.026-0.02-0.041-0.031-0.011-8e-3 -0.024-0.018-0.034-0.026s-0.02-0.015-0.031-0.023c-0.012-9e-3 -0.025-0.019-0.036-0.028-0.015-0.011-0.028-0.021-0.043-0.032-8e-3 -7e-3 -0.017-0.014-0.026-0.021-0.018-0.013-0.035-0.026-0.052-0.039l-0.027-0.021c-0.011-8e-3 -0.023-0.017-0.033-0.025-9e-3 -7e-3 -0.017-0.013-0.027-0.02-0.017-0.013-0.034-0.026-0.051-0.04-9e-3 -7e-3 -0.017-0.013-0.026-0.019-0.01-8e-3 -0.023-0.018-0.033-0.026-8e-3 -6e-3 -0.018-0.014-0.027-0.02-0.019-0.015-0.035-0.027-0.053-0.042-7e-3 -4e-3 -0.016-0.011-0.022-0.016-0.023-0.018-0.046-0.035-0.069-0.053-3e-3 -2e-3 -6e-3 -5e-3 -9e-3 -7e-3 -0.013-0.01-0.026-0.02-0.04-0.03-4e-3 -4e-3 -9e-3 -7e-3 -0.013-0.011-0.024-0.018-0.047-0.036-0.07-0.054-3e-3 -2e-3 -8e-3 -6e-3 -0.01-8e-3 -0.042-0.032-0.083-0.064-0.124-0.095-4e-3 -4e-3 -6e-3 -5e-3 -0.011-9e-3 -0.026-0.02-0.053-0.041-0.079-0.061l-3e-3 -2e-3c-0.015-0.012-0.027-0.022-0.042-0.033-1e-3 -1e-3 -3e-3 -2e-3 -4e-3 -3e-3 -0.028-0.022-0.054-0.042-0.082-0.064l-4e-3 -3e-3c-0.044-0.034-0.085-0.066-0.128-0.1l-3e-3 -2e-3c-3.066-2.393-6.012-4.933-8.827-7.611l-2e-3 -2e-3c-0.038-0.037-0.079-0.075-0.118-0.112-1e-3 -1e-3 -2e-3 -2e-3 -3e-3 -4e-3 -0.026-0.024-0.05-0.046-0.075-0.071l-4e-3 -4e-3c-0.039-0.037-0.077-0.073-0.116-0.111-2e-3 -2e-3 -4e-3 -3e-3 -7e-3 -6e-3 -0.025-0.024-0.049-0.047-0.074-0.071l-1e-3 -1e-3c-0.014-0.013-0.026-0.025-0.039-0.038l-3e-3 -3e-3c-0.024-0.023-0.047-0.045-0.071-0.068-4e-3 -3e-3 -8e-3 -7e-3 -0.012-0.011-0.014-0.014-0.032-0.03-0.046-0.044-1e-3 -2e-3 -1e-3 -2e-3 -2e-3 -3e-3 -8e-3 -7e-3 -0.016-0.014-0.024-0.022-1e-3 -2e-3 -1e-3 -2e-3 -2e-3 -3e-3 -0.011-0.01-0.024-0.023-0.035-0.033-5e-3 -5e-3 -0.01-9e-3 -0.015-0.015-0.02-0.019-0.039-0.038-0.059-0.057-4e-3 -4e-3 -0.01-9e-3 -0.014-0.014-0.012-0.011-0.022-0.021-0.035-0.033l-0.011-0.011c-0.02-0.019-0.042-0.041-0.062-0.059-5e-3 -6e-3 -0.01-0.01-0.015-0.016h-1e-3c-0.016-0.016-0.031-0.031-0.047-0.046-4e-3 -4e-3 -6e-3 -6e-3 -0.011-0.01-1e-3 -2e-3 -3e-3 -3e-3 -4e-3 -5e-3 -3e-3 -2e-3 -7e-3 -6e-3 -0.01-9e-3 -0.011-0.011-0.022-0.021-0.032-0.032-2e-3 -1e-3 0 0-1e-3 -1e-3 -6e-3 -5e-3 -0.014-0.013-0.019-0.018-0.017-0.017-0.033-0.032-0.05-0.049-8e-3 -8e-3 -0.015-0.014-0.023-0.022-9e-3 -9e-3 -0.02-0.019-0.029-0.028-0.015-0.015-0.029-0.028-0.043-0.043-8e-3 -7e-3 -0.018-0.017-0.026-0.025-9e-3 -9e-3 -0.018-0.018-0.028-0.026-1e-3 -2e-3 -2e-3 -3e-3 -3e-3 -4e-3 -0.012-0.012-0.022-0.021-0.034-0.033-0.011-0.01-0.022-0.022-0.033-0.032l-0.026-0.026c-0.012-0.012-0.021-0.02-0.033-0.032-9e-3 -9e-3 -0.02-0.02-0.03-0.029-1e-3 -1e-3 -3e-3 -4e-3 -4e-3 -5e-3 -0.011-0.01-0.021-0.021-0.032-0.031-8e-3 -7e-3 -0.015-0.015-0.023-0.022l-0.046-0.046c-8e-3 -8e-3 -0.015-0.015-0.023-0.022l-0.039-0.039c-8e-3 -8e-3 -0.016-0.016-0.024-0.023l-0.06-0.06c-0.016-0.015-0.033-0.033-0.049-0.048-5e-3 -5e-3 -9e-3 -0.01-0.015-0.014-0.013-0.014-0.026-0.027-0.04-0.04-6e-3 -6e-3 -0.012-0.012-0.019-0.018-0.015-0.016-0.033-0.034-0.048-0.049-6e-3 -6e-3 -0.013-0.012-0.017-0.017l-2e-3 -2e-3c-0.013-0.012-0.028-0.028-0.041-0.04l-6e-3 -6e-3c-4e-3 -5e-3 -9e-3 -9e-3 -0.012-0.013-0.016-0.016-0.033-0.031-0.049-0.047-5e-3 -6e-3 -9e-3 -9e-3 -0.014-0.015-0.017-0.017-0.036-0.036-0.053-0.052-4e-3 -5e-3 -8e-3 -8e-3 -0.011-0.012-0.016-0.015-0.032-0.031-0.048-0.047l-0.077-0.077c-0.018-0.018-0.038-0.038-0.056-0.057-21.471-21.47-34.751-51.13-34.751-83.895" fill="#fb561a"/></g></g><g clip-path="url(#clipPath76)"><g transform="translate(407.27 112.97)"><path d="m0 0c-21.47 21.471-34.751 51.132-34.751 83.894 0-32.762 13.281-62.423 34.751-83.894" fill="#b33700"/></g></g><g clip-path="url(#clipPath88)"><g transform="translate(491.17 306.96)"><path d="m0 0c30.415-2e-3 57.926-12.317 77.86-32.247 19.931-19.933 32.248-47.443 32.25-77.857-2e-3 -30.412-12.319-57.922-32.25-77.856-19.934-19.93-47.445-32.247-77.86-32.249-30.412 2e-3 -57.922 12.319-77.855 32.249-19.931 19.934-32.248 47.444-32.25 77.856 2e-3 30.414 12.319 57.924 32.25 77.857 19.933 19.93 47.443 32.245 77.855 32.247" fill="#ea4800"/></g></g><g clip-path="url(#clipPath100)"><g transform="translate(491.17 306.96)"><path d="m0 0v8.54c32.764 0 62.427-13.279 83.898-34.749 21.472-21.47 34.752-51.131 34.752-83.895 0-32.762-13.28-62.423-34.752-83.894-21.471-21.47-51.134-34.751-83.898-34.751-32.762 0-62.423 13.281-83.894 34.751-21.47 21.471-34.751 51.132-34.751 83.894 0 32.764 13.281 62.425 34.751 83.895 21.471 21.47 51.132 34.749 83.894 34.749v-8.54c-30.412-2e-3 -57.922-12.317-77.855-32.247-19.931-19.933-32.248-47.443-32.25-77.857 2e-3 -30.412 12.319-57.922 32.25-77.856 19.933-19.93 47.443-32.247 77.855-32.249 30.415 2e-3 57.926 12.319 77.86 32.249 19.931 19.934 32.248 47.444 32.25 77.856-2e-3 30.414-12.319 57.924-32.25 77.857-19.934 19.93-47.445 32.245-77.86 32.247" fill="#ff4e00"/></g><g transform="translate(491.17 306.99)"><path d="m0 0c-0.637-0.65-1.84-0.463-2.976-0.275-0.564 0.093-1.112 0.187-1.564 0.177-12.87-0.278-45.963-4.161-75.225-34.126-13.892-14.227-30.428-39.394-30.315-78.503 0.151-52.072 44.676-107.7 110.72-107.52 99.075 0.28 148.14 121.09 77.201 190.09-34.414 33.478-77.61 30.383-77.838 30.149v8.511c32.764 0 62.427-13.279 83.898-34.749 21.472-21.47 34.752-51.131 34.752-83.895 0-32.762-13.28-62.424-34.752-83.894-21.471-21.471-51.134-34.751-83.898-34.751-32.762 0-62.423 13.28-83.894 34.751-21.47 21.47-34.751 51.132-34.751 83.894 0 32.764 13.281 62.425 34.751 83.895 21.471 21.47 51.132 34.749 83.894 34.749v-8.511" fill="#ff4e00"/></g><g transform="translate(491.17 307.32)"><path d="m0 0c-0.631-0.654-1.834-0.485-2.969-0.316-0.562 0.083-1.107 0.167-1.557 0.15-57.417-2.097-105.79-51.707-105.62-108.33 0.203-70.37 56.488-112.27 110.78-112.12 99.162 0.264 148.28 121.17 77.296 190.25-30.632 29.807-66.234 30.235-77.933 30.376v8.186c32.764 0 62.427-13.279 83.898-34.749 21.472-21.47 34.752-51.131 34.752-83.895 0-32.762-13.28-62.424-34.752-83.894-21.471-21.471-51.134-34.751-83.898-34.751-32.762 0-62.423 13.28-83.894 34.751-21.47 21.47-34.751 51.132-34.751 83.894 0 32.764 13.281 62.425 34.751 83.895 21.471 21.47 51.132 34.749 83.894 34.749v-8.186" fill="#fc4d00"/></g><g transform="translate(491.17 307.64)"><path d="m0 0c-0.62-0.652-1.812-0.502-2.936-0.353-0.554 0.074-1.091 0.148-1.535 0.125-60.351-3.071-106.79-52.772-105.72-113.15 1.073-60.576 53.326-109.83 114.1-107.56 99.36 3.712 145.03 126.03 71.869 192.47-30.873 28.035-64.674 28.363-75.781 28.471v7.864c32.764 0 62.427-13.279 83.898-34.749 21.472-21.47 34.752-51.131 34.752-83.895 0-32.762-13.28-62.423-34.752-83.894-21.471-21.47-51.134-34.751-83.898-34.751-32.762 0-62.423 13.281-83.894 34.751-21.47 21.471-34.751 51.132-34.751 83.894 0 32.764 13.281 62.425 34.751 83.895 21.471 21.47 51.132 34.749 83.894 34.749v-7.864" fill="#f94c00"/></g><g transform="translate(491.17 307.89)"><path d="m0 0c-0.272-0.281-0.79-0.207-1.279-0.134-0.242 0.037-0.477 0.073-0.671 0.067-67.087-2.318-108.46-58.384-108.31-109 0.203-70.424 56.545-112.37 110.9-112.24 99.448 0.237 148.71 121.36 77.515 190.59-20.641 20.072-46.935 30.407-78.153 30.72v7.617c32.764 0 62.427-13.279 83.898-34.749 21.472-21.471 34.752-51.131 34.752-83.896 0-32.761-13.28-62.423-34.752-83.893-21.471-21.471-51.134-34.752-83.898-34.752-32.762 0-62.423 13.281-83.894 34.752-21.47 21.47-34.751 51.132-34.751 83.893 0 32.765 13.281 62.425 34.751 83.896 21.471 21.47 51.132 34.749 83.894 34.749v-7.617" fill="#f64b00"/></g><g transform="translate(491.17 308.02)"><path d="m0 0c-0.626-0.656-1.829-0.498-2.962-0.341-0.56 0.077-1.102 0.155-1.55 0.134-52.945-2.427-106.99-45.564-105.79-113.55 1.072-60.621 53.378-109.93 114.22-107.68 99.551 3.687 145.37 126.23 72.092 192.83-20.684 18.799-46.257 28.423-76.008 28.605v7.485c32.764 0 62.427-13.279 83.898-34.749 21.472-21.471 34.752-51.131 34.752-83.896 0-32.761-13.28-62.423-34.752-83.893-21.471-21.471-51.134-34.752-83.898-34.752-32.762 0-62.423 13.281-83.894 34.752-21.47 21.47-34.751 51.132-34.751 83.893 0 32.765 13.281 62.425 34.751 83.896 21.471 21.47 51.132 34.749 83.894 34.749v-7.485" fill="#f24a00"/></g><g transform="translate(491.17 308.15)"><path d="m0 0c-0.63-0.657-1.837-0.496-2.974-0.334-0.563 0.08-1.108 0.16-1.558 0.14-51.821-2.215-107.02-46.314-105.82-113.7 1.072-60.642 53.403-109.98 114.27-107.73 99.647 3.674 145.53 126.34 72.202 193.01-20.808 18.92-46.418 28.547-76.12 28.614v7.353c32.764 0 62.427-13.279 83.898-34.749 21.472-21.47 34.752-51.131 34.752-83.895 0-32.762-13.28-62.423-34.752-83.894-21.471-21.47-51.134-34.751-83.898-34.751-32.762 0-62.423 13.281-83.894 34.751-21.47 21.471-34.751 51.132-34.751 83.894 0 32.764 13.281 62.425 34.751 83.895 21.471 21.47 51.132 34.749 83.894 34.749v-7.353" fill="#ef4900"/></g><g transform="translate(491.17 308.28)"><path d="m0 0c-0.634-0.659-1.846-0.492-2.987-0.325-0.566 0.082-1.114 0.165-1.566 0.147-51.842-2.027-107.06-46.129-105.86-113.84 1.072-60.666 53.43-110.03 114.33-107.79 99.74 3.663 145.7 126.44 72.311 193.19-20.928 19.037-46.576 28.668-76.231 28.624v7.223c32.764 0 62.427-13.279 83.898-34.749 21.472-21.471 34.752-51.131 34.752-83.896 0-32.761-13.28-62.423-34.752-83.894-21.471-21.47-51.134-34.751-83.898-34.751-32.762 0-62.423 13.281-83.894 34.751-21.47 21.471-34.751 51.133-34.751 83.894 0 32.765 13.281 62.425 34.751 83.896 21.471 21.47 51.132 34.749 83.894 34.749v-7.223" fill="#ec4800"/></g><g transform="translate(491.17 308.41)"><path d="m0 0c-102.66-3.643-149.24-124.63-74.387-193.23 73.191-67.072 189.82-11.828 186.25 88.226-1.849 51.889-44.197 105.35-111.86 105v7.093c32.764 0 62.427-13.279 83.898-34.749 21.472-21.471 34.752-51.131 34.752-83.896 0-32.761-13.28-62.423-34.752-83.893-21.471-21.471-51.134-34.752-83.898-34.752-32.762 0-62.423 13.281-83.894 34.752-21.47 21.47-34.751 51.132-34.751 83.893 0 32.765 13.281 62.425 34.751 83.896 21.471 21.47 51.132 34.749 83.894 34.749v-7.093" fill="#e94700"/></g><g transform="translate(491.17 308.54)"><path d="m0 0c-0.641-0.661-1.859-0.484-3.009-0.307-0.569 0.087-1.123 0.175-1.579 0.16-57.596-1.837-106.12-52.013-105.95-109.57 0.203-70.558 56.687-112.63 111.18-112.54 100.34 0.165 150.04 121.93 78.214 191.6-12.068 11.705-38.358 31.252-78.853 30.657v6.963c32.764 0 62.427-13.279 83.898-34.749 21.472-21.47 34.752-51.131 34.752-83.895 0-32.762-13.28-62.423-34.752-83.894-21.471-21.47-51.134-34.751-83.898-34.751-32.762 0-62.423 13.281-83.894 34.751-21.47 21.471-34.751 51.132-34.751 83.894 0 32.764 13.281 62.425 34.751 83.895 21.471 21.47 51.132 34.749 83.894 34.749v-6.963" fill="#e64600"/></g><g transform="translate(491.17 308.67)"><path d="m0 0c-0.644-0.662-1.865-0.48-3.016-0.298-0.573 0.09-1.127 0.18-1.585 0.167-56.627-1.606-106.16-52.873-105.99-109.71 0.203-70.583 56.715-112.68 111.23-112.6 100.5 0.151 150.34 122.08 78.411 191.86-12.122 11.76-38.51 31.37-79.051 30.582v6.835c32.764 0 62.427-13.28 83.898-34.75 21.472-21.47 34.752-51.13 34.752-83.895 0-32.762-13.28-62.423-34.752-83.894-21.471-21.47-51.134-34.751-83.898-34.751-32.762 0-62.423 13.281-83.894 34.751-21.47 21.471-34.751 51.132-34.751 83.894 0 32.765 13.281 62.425 34.751 83.895 21.471 21.47 51.132 34.75 83.894 34.75v-6.835" fill="#e34500"/></g><g transform="translate(491.17 308.88)"><path d="m0 0c-0.643-0.663-1.865-0.485-3.018-0.307-0.571 0.088-1.126 0.176-1.584 0.161-56.655-1.792-106.21-53.149-106.05-109.9 0.203-70.611 56.744-112.73 111.29-112.65 98.354 0.133 149.08 124.06 78.661 192.17-12.117 11.72-38.532 31.272-79.301 30.535v6.626c32.764 0 62.427-13.279 83.898-34.749 21.472-21.47 34.752-51.131 34.752-83.895 0-32.762-13.28-62.423-34.752-83.894-21.471-21.47-51.134-34.751-83.898-34.751-32.762 0-62.423 13.281-83.894 34.751-21.47 21.471-34.751 51.132-34.751 83.894 0 32.764 13.281 62.425 34.751 83.895 21.471 21.47 51.132 34.749 83.894 34.749v-6.626" fill="#df4400"/></g><g transform="translate(491.17 309.1)"><path d="m0 0c-103.31-3.394-149.98-124.91-74.526-194.06 72.755-66.682 190-11.34 187.24 88.38-1.664 60.221-51.176 106.64-112.72 105.68v6.409c32.764 0 62.427-13.279 83.898-34.749 21.472-21.47 34.752-51.131 34.752-83.895 0-32.762-13.28-62.423-34.752-83.894-21.471-21.47-51.134-34.751-83.898-34.751-32.762 0-62.423 13.281-83.894 34.751-21.47 21.471-34.751 51.132-34.751 83.894 0 32.764 13.281 62.425 34.751 83.895 21.471 21.47 51.132 34.749 83.894 34.749v-6.409" fill="#dc4300"/></g><g transform="translate(491.17 309.31)"><path d="m0 0c-0.644-0.665-1.869-0.49-3.024-0.315-0.573 0.087-1.128 0.174-1.587 0.158-56.709-1.93-106.31-53.483-106.15-110.32 0.203-70.663 56.799-112.83 111.4-112.77 96.726 0.103 149.07 120.72 82.368 189.79-12.404 12.844-39.683 34.271-83.009 33.457v6.194c32.764 0 62.427-13.279 83.898-34.749 21.472-21.47 34.752-51.131 34.752-83.895 0-32.762-13.28-62.423-34.752-83.894-21.471-21.47-51.134-34.751-83.898-34.751-32.762 0-62.423 13.281-83.894 34.751-21.47 21.471-34.751 51.132-34.751 83.894 0 32.764 13.281 62.425 34.751 83.895 21.471 21.47 51.132 34.749 83.894 34.749v-6.194" fill="#d94200"/></g><g transform="translate(491.17 309.53)"><path d="m0 0c-0.172-0.177-0.499-0.129-0.807-0.081-0.153 0.024-0.301 0.048-0.423 0.045-59.567-1.764-109.75-52.443-109.58-110.67 0.203-70.69 56.827-112.88 111.45-112.83 97.158 0.09 149.76 120.98 82.762 190.22-12.499 12.919-39.954 34.424-83.403 33.306v5.971c32.764 0 62.427-13.279 83.898-34.749 21.472-21.47 34.752-51.131 34.752-83.895 0-32.762-13.28-62.423-34.752-83.894-21.471-21.47-51.134-34.751-83.898-34.751-32.762 0-62.423 13.281-83.894 34.751-21.47 21.471-34.751 51.132-34.751 83.894 0 32.764 13.281 62.425 34.751 83.895 21.471 21.47 51.132 34.749 83.894 34.749v-5.971" fill="#d64100"/></g><g transform="translate(491.17 309.86)"><path d="m0 0c-0.637-0.665-1.857-0.504-3.007-0.342-0.569 0.08-1.12 0.16-1.575 0.139-52.041-2.302-107.47-47.08-106.27-115.41 1.07-60.844 53.635-110.41 114.78-108.24 97.94 3.476 146.74 126.63 76.792 193.79-12.127 11.642-38.739 31.029-80.729 30.067v5.646c32.764 0 62.427-13.279 83.898-34.749 21.472-21.471 34.752-51.131 34.752-83.895 0-32.762-13.28-62.424-34.752-83.894-21.471-21.471-51.134-34.751-83.898-34.751-32.762 0-62.423 13.28-83.894 34.751-21.47 21.47-34.751 51.132-34.751 83.894 0 32.764 13.281 62.424 34.751 83.895 21.471 21.47 51.132 34.749 83.894 34.749v-5.646" fill="#d34000"/></g><g transform="translate(491.17 310.18)"><path d="m0 0c-0.637-0.666-1.861-0.505-3.012-0.344-0.57 0.08-1.122 0.16-1.578 0.14-51.781-2.304-107.15-47.205-106.31-115.73 0.649-53.118 44.284-109.64 113.64-108.33 100.48 1.896 150.38 125.44 78.511 194.41-14.738 14.144-40.8 30.805-81.254 29.854v5.326c32.764 0 62.427-13.279 83.898-34.749 21.472-21.47 34.752-51.131 34.752-83.895 0-32.762-13.28-62.423-34.752-83.894-21.471-21.47-51.134-34.751-83.898-34.751-32.762 0-62.423 13.281-83.894 34.751-21.47 21.471-34.751 51.132-34.751 83.894 0 32.764 13.281 62.425 34.751 83.895 21.471 21.47 51.132 34.749 83.894 34.749v-5.326" fill="#d03f00"/></g><g transform="translate(491.17 310.6)"><path d="m0 0c-0.622-0.658-1.823-0.515-2.954-0.372-0.557 0.071-1.098 0.141-1.543 0.116-52.132-2.97-107.66-48.199-106.47-116.09 1.066-60.781 53.69-110.43 114.91-108.42 99.131 3.256 148.63 127.23 77.892 195.07-14.875 14.266-41.147 30.998-81.835 29.696v4.908c32.764 0 62.427-13.279 83.898-34.749 21.472-21.47 34.752-51.131 34.752-83.895 0-32.762-13.28-62.423-34.752-83.894-21.471-21.47-51.134-34.751-83.898-34.751-32.762 0-62.423 13.281-83.894 34.751-21.47 21.471-34.751 51.132-34.751 83.894 0 32.764 13.281 62.425 34.751 83.895 21.471 21.47 51.132 34.749 83.894 34.749v-4.908" fill="#cc3f00"/></g><g transform="translate(491.17 311.07)"><path d="m0 0c-0.703-0.746-2.064-0.589-3.345-0.432-0.631 0.077-1.243 0.155-1.747 0.124-51.903-3.137-107.19-48.575-106-116.51 1.066-60.85 53.746-110.55 115.04-108.54 99.233 3.264 149.08 127.66 78.44 195.74-15.049 14.504-41.558 31.415-82.387 29.616v4.438c32.764 0 62.427-13.279 83.898-34.749 21.472-21.47 34.752-51.131 34.752-83.895 0-32.762-13.28-62.423-34.752-83.894-21.471-21.47-51.134-34.751-83.898-34.751-32.762 0-62.423 13.281-83.894 34.751-21.47 21.471-34.751 51.132-34.751 83.894 0 32.764 13.281 62.425 34.751 83.895 21.471 21.47 51.132 34.749 83.894 34.749v-4.439" fill="#c93e00"/></g><g transform="translate(491.17 311.7)"><path d="m0 0c-0.599-0.641-1.764-0.516-2.86-0.391-0.539 0.061-1.061 0.123-1.491 0.093-52.314-3.574-108.04-49.383-106.86-117.16 1.064-60.918 53.801-110.68 115.16-108.65 101 3.328 150.24 131.34 76.364 198.51-22.271 20.248-48.543 29.277-80.316 27.602v3.808c32.764 0 62.427-13.279 83.898-34.749 21.472-21.47 34.752-51.131 34.752-83.895 0-32.762-13.28-62.423-34.752-83.894-21.471-21.47-51.134-34.751-83.898-34.751-32.762 0-62.423 13.281-83.894 34.751-21.47 21.471-34.751 51.132-34.751 83.894 0 32.764 13.281 62.425 34.751 83.895 21.471 21.47 51.132 34.749 83.894 34.749v-3.808" fill="#c63d00"/></g><g transform="translate(491.17 312.5)"><path d="m0 0c-0.193-0.209-0.57-0.173-0.924-0.138-0.174 0.018-0.342 0.035-0.48 0.024-63.751-5.188-111.01-55.982-109.93-118.15 1.063-60.987 53.857-110.8 115.28-108.77 78.738 2.599 134.14 84.457 105.86 156.41 5.697-13.881 8.839-29.082 8.839-45.017 0-32.762-13.28-62.423-34.752-83.894-21.471-21.47-51.134-34.751-83.898-34.751-32.762 0-62.423 13.281-83.894 34.751-21.47 21.471-34.751 51.132-34.751 83.894 0 32.764 13.281 62.425 34.751 83.895 21.471 21.47 51.132 34.749 83.894 34.749v-3.002" fill="#c33c00"/></g><g transform="translate(491.17 313.51)"><path d="m0 0c-0.497-0.545-1.479-0.465-2.4-0.384-0.45 0.039-0.885 0.079-1.244 0.045-53.92-5.012-108.99-50.871-107.8-118.94 1.06-61.054 53.91-110.92 115.41-108.88 74.441 2.462 122.52 74.939 112.69 133.3 1.313-7.065 1.999-14.351 1.999-21.797 0-32.762-13.28-62.424-34.752-83.894-21.471-21.471-51.134-34.751-83.898-34.751-32.762 0-62.423 13.28-83.894 34.751-21.47 21.47-34.751 51.132-34.751 83.894 0 32.764 13.281 62.425 34.751 83.895 21.471 21.47 51.132 34.749 83.894 34.749v-1.994" fill="#c03b00"/></g><g transform="translate(491.17 314.66)"><path d="m0 0c-0.338-0.367-1.001-0.308-1.624-0.248-0.305 0.029-0.6 0.058-0.843 0.037-53.389-4.557-110.28-51.814-109.1-120.21 1.056-61.122 53.963-111.04 115.53-109 72.302 2.394 115.51 68.076 114.66 114.11 0.017-0.827 0.026-1.656 0.026-2.488 0-32.762-13.28-62.423-34.752-83.894-21.471-21.47-51.134-34.751-83.898-34.751-32.762 0-62.423 13.281-83.894 34.751-21.47 21.471-34.751 51.132-34.751 83.894 0 32.765 13.281 62.425 34.751 83.895 21.471 21.47 51.132 34.75 83.894 34.75v-0.846" fill="#bd3a00"/></g><g transform="translate(491.17 315.46)"><path d="m0 0c-0.429-0.446-1.25-0.332-2.023-0.219-0.384 0.057-0.756 0.113-1.062 0.101-24.336-0.928-57.216-17.398-76.482-38.31-8.145-8.841-32.93-35.745-32.12-82.805 1.069-62.057 52.952-111 115.66-109.11 65.512 1.977 108.1 57.069 113.66 96.079-3.494-26.498-15.735-50.241-33.727-68.232-21.471-21.47-51.134-34.751-83.898-34.751-32.762 0-62.423 13.281-83.894 34.751-21.47 21.471-34.751 51.132-34.751 83.894 0 32.764 13.281 62.425 34.751 83.895 21.471 21.47 51.132 34.749 83.894 34.749v-0.04" fill="#b93900"/></g><g transform="translate(474.56 314.34)"><path d="m0 0c-83.354-13.772-142.15-142.73-47.093-209.31 71.295-49.932 159.73 0.165 177.48 58.091-5.684-19.197-16.096-36.366-29.885-50.155-21.472-21.47-51.134-34.751-83.898-34.751-32.762 0-62.423 13.281-83.894 34.751-21.471 21.471-34.751 51.132-34.751 83.894 0 32.764 13.28 62.425 34.751 83.895 18.249 18.248 42.415 30.58 69.372 33.869-0.626-0.085-1.461-0.191-2.085-0.285" fill="#b63800"/></g><g transform="translate(452 308.84)"><path d="m0 0c-78.216-30.241-110.34-168.7-5.236-215.03 67.465-29.739 132.68 15.615 150.24 49.36-5.7-11.213-13.13-21.401-21.939-30.209-21.471-21.47-51.133-34.751-83.898-34.751-32.762 0-62.423 13.281-83.894 34.751-21.47 21.471-34.751 51.132-34.751 83.894 0 32.764 13.281 62.425 34.751 83.895 13.334 13.333 29.826 23.508 48.257 29.304-0.715-0.239-1.669-0.559-2.384-0.799-0.343-0.126-0.801-0.289-1.142-0.418" fill="#b33700"/></g><g transform="translate(552.74 298.3)"><path d="m0 0c-14.598 8.498-32.162 16.101-61.576 14.206v3.002c22.901 0 44.288-6.488 62.421-17.727-0.253 0.156-0.589 0.366-0.845 0.519" fill="#c33c00"/></g><g transform="translate(531.31 308.54)"><path d="m0 0c-11.563 3.906-22.816 6.246-40.15 4.971v1.994c14.267 0 27.946-2.518 40.617-7.133-0.141 0.05-0.326 0.119-0.467 0.168" fill="#c03b00"/></g><g transform="translate(599.03 221.71)"><path d="m0 0c-11.037 38.425-32.62 62.942-69.982 79.493 38.274-14.036 63.556-43.77 71.19-83.725-0.359 1.27-0.843 2.963-1.208 4.232" fill="#ff631f"/></g><g transform="translate(597.29 229.05)"><path d="M 0,0 C -10.619,31.043 -30.045,53.45 -59.391,68.501 -20.638,50.266 -5.23,19.763 0.871,-2.616 0.609,-1.831 0.268,-0.783 0,0" fill="#ff6c2b"/></g><g transform="translate(508.32 314.23)"><path d="m0 0c-7.464 0.984-13.533 0.637-17.159 0.43v0.846c7.587 0 15.008-0.712 22.199-2.073-1.509 0.257-3.522 0.597-5.04 0.797" fill="#bd3a00"/></g><g transform="translate(591.99 242.98)"><path d="M 0,0 C -13.28,27.547 -31.822,41.499 -44.614,49.597 -22.45,36.726 -6.483,17.883 2.844,-6.406 2.015,-4.474 0.913,-1.894 0,0" fill="#ff7335"/></g><g transform="translate(588.8 249.65)"><path d="m0 0c-8.043 14.163-16.987 24.67-29.907 35.132 8.306-6.436 20.481-17.152 30.285-35.813-0.114 0.205-0.263 0.478-0.378 0.681" fill="#ff783d"/></g><g transform="translate(491.17 315.46)"><path d="m0 0v0.04c1.421 0 2.836-0.025 4.245-0.074-0.863 0.014-2.014 0.033-2.877 0.048l-1.368-0.014" fill="#b93900"/></g></g><g clip-path="url(#clipPath244)"><path d="m429.44 105.67h123.42v-18.914h-123.42z" fill="#fc5d20"/></g><g clip-path="url(#clipPath254)"><g transform="translate(491.17 86.756)"><path d="m0 0c-22.88 1e-3 -44.118 6.974-61.722 18.914-28.905 19.734-47.876 52.94-47.876 90.579 0 60.53 49.07 109.6 109.6 109.6s109.6-49.07 109.6-109.6c0-37.65-18.985-70.867-47.904-90.598-17.6-11.929-38.827-18.894-61.698-18.895m-73.869 114.44c-4.2 0-8.023-0.912-10.872-3.442-17.233-15.299-12.877-40.74-0.599-58.36 19.193-27.54 54.327-46.277 85.945-46.277 33.399 0 71.623 20.526 89.354 51.614 9.675 16.966 11.361 39.38-4.012 53.023-2.814 2.498-6.538 3.381-10.587 3.381-7.485 0-16.078-3.021-22.073-4.449-17.39-4.141-34.687-7.544-52.682-7.544-16.674 0-32.925 2.807-49.061 6.655-6.657 1.586-16.825 5.399-25.413 5.399m74.754 18.921c15.032 0 29.677-2.157 44.224-5.114 6.001-1.219 15.166-4.148 22.909-4.148 3.786 0 7.233 0.701 9.803 2.645 15.529 11.752 11.605 31.302 0.538 44.839-17.306 21.161-48.972 35.555-77.474 35.555-30.109 0-64.564-15.769-80.547-39.656-8.72-13.035-10.237-30.254 3.619-40.738 2.536-1.92 5.891-2.6 9.541-2.6 6.746 1e-3 14.494 2.322 19.9 3.419 15.671 3.185 31.268 5.798 47.487 5.798" fill="#f0530e"/></g><g transform="translate(491.47 86.752)"><path d="m0 0c-0.636 0-1.274 5e-3 -1.906 0.015 0.533-7e-3 1.065-0.011 1.6-0.011 22.871 1e-3 44.098 6.965 61.698 18.894-13.78-9.402-29.814-15.741-47.126-18.041-4.526-0.552-9.17-0.844-13.935-0.857h-0.331" fill="#ff570e"/></g><g transform="translate(491.52 86.694)"><path d="m0 0c-3.659 0-7.33 0.191-10.989 0.569 2.977-0.285 5.992-0.452 9.034-0.496 0.632-0.01 1.269-0.015 1.906-0.015h0.33c4.766 0.013 9.409 0.305 13.936 0.857-2.068-0.274-4.15-0.491-6.253-0.649-2.526-0.169-5.086-0.259-7.682-0.265-0.097-1e-3 -0.186-1e-3 -0.282-1e-3" fill="#ff570e"/></g><g transform="translate(491.17 86.649)"><path d="m0 0c-4.038 0-8.025 0.218-11.95 0.644-4.462 0.516-8.902 1.308-13.299 2.371 4.761-1.117 9.638-1.924 14.614-2.401 3.659-0.378 7.329-0.569 10.989-0.569 0.096 0 0.185 0 0.282 1e-3 2.596 6e-3 5.156 0.096 7.682 0.265-2.744-0.205-5.521-0.311-8.318-0.311" fill="#fd560e"/></g><g transform="translate(479.22 87.293)"><path d="m0 0c-12.626 1.369-24.612 4.884-35.579 10.17-3.373 1.635-6.65 3.435-9.83 5.394 9.799-5.993 20.607-10.496 32.11-13.194 4.397-1.062 8.837-1.854 13.299-2.37" fill="#f9550e"/></g><g transform="translate(443.64 97.463)"><path d="m0 0c-4.951 2.386-9.693 5.133-14.195 8.207 1.431-0.971 2.887-1.909 4.365-2.813 3.18-1.959 6.457-3.759 9.83-5.394" fill="#f6540e"/></g><g transform="translate(559.18 210.86)"><path d="m0 0c-7.743 0-16.908 2.929-22.909 4.148-14.547 2.957-29.192 5.114-44.224 5.114-16.219 0-31.816-2.614-47.487-5.798-5.406-1.097-13.154-3.418-19.9-3.419-3.65 0-7.006 0.68-9.541 2.599-13.856 10.484-12.339 27.704-3.619 40.739 15.983 23.887 50.437 39.656 80.547 39.656 28.502 0 60.168-14.394 77.474-35.555 11.067-13.537 14.99-33.087-0.538-44.84-2.57-1.943-6.017-2.644-9.803-2.644" fill="#f36f17"/></g></g><path d="m406.42 197.75c-17.234-15.298-12.878-40.74-0.601-58.359 19.195-27.54 54.328-46.277 85.946-46.277 33.4 0 71.624 20.526 89.354 51.614 9.676 16.966 11.361 39.38-4.012 53.022-2.814 2.499-6.537 3.382-10.586 3.382-7.486 0-16.079-3.021-22.075-4.45-17.389-4.14-34.687-7.543-52.681-7.543-16.674 0-32.925 2.806-49.061 6.655-6.657 1.586-16.825 5.4-25.413 5.4-4.2 0-8.023-0.913-10.871-3.444" fill="url(#radialGradient304)"/><g clip-path="url(#clipPath314)"><g transform="translate(493.9 283.44)"><path d="M 0,0 C 31.943,0 60.261,-11.053 77.829,-28.083 64.755,-3.758 34.83,13.251 0,13.251 -34.829,13.251 -64.75,-3.758 -77.826,-28.083 -60.255,-11.053 -31.94,0 0,0" fill="#ffede0"/></g></g><g clip-path="url(#clipPath358)"><g transform="translate(553.95 66.351)"><path d="m0 0s0.643 0.408 1.889 1.199c0.625 0.39 1.401 0.876 2.324 1.453 0.461 0.287 0.958 0.597 1.491 0.931 0.509 0.351 1.052 0.726 1.629 1.124 1.144 0.791 2.423 1.675 3.83 2.648 1.375 1.027 2.877 2.148 4.499 3.36 1.602 1.23 3.263 2.632 5.057 4.073 1.756 1.494 3.57 3.143 5.501 4.839 3.707 3.59 7.801 7.523 11.755 12.252 0.504 0.578 1.014 1.163 1.529 1.753l0.194 0.221 0.096 0.111c0.055 0.059-0.131-0.132-7e-3 6e-3l0.383 0.483c0.256 0.323 0.515 0.648 0.773 0.973 1.035 1.304 2.091 2.633 3.165 3.985 0.988 1.341 1.901 2.665 2.883 4.019 0.481 0.682 0.979 1.342 1.458 2.053 0.468 0.728 0.941 1.461 1.417 2.201 0.476 0.738 0.956 1.481 1.439 2.229 0.242 0.375 0.484 0.749 0.728 1.126 0.224 0.389 0.449 0.78 0.675 1.172 0.91 1.557 1.834 3.137 2.771 4.741 0.854 1.646 1.719 3.315 2.598 5.007 0.457 0.834 0.843 1.712 1.242 2.589 0.404 0.874 0.81 1.753 1.219 2.639 3.203 7.103 5.94 14.816 8.047 23.016 2.061 8.21 3.543 16.904 4.061 25.949 0.609 9.034 0.24 18.399-1.016 27.868-0.14 1.186-0.383 2.362-0.568 3.549-0.206 1.184-0.381 2.376-0.608 3.562-0.257 1.181-0.515 2.365-0.774 3.553-0.264 1.186-0.488 2.383-0.821 3.56-0.642 2.357-1.17 4.758-1.966 7.098-0.368 1.178-0.736 2.359-1.106 3.543-0.39 1.178-0.835 2.34-1.249 3.515l-0.631 1.762c-0.207 0.59-0.417 1.179-0.67 1.752-0.48 1.156-0.962 2.316-1.445 3.478l-0.721 1.747-0.802 1.716c-0.532 1.146-1.066 2.295-1.601 3.446-0.536 1.151-1.173 2.256-1.755 3.391-0.611 1.119-1.147 2.282-1.795 3.388-0.645 1.107-1.292 2.216-1.941 3.328l-0.969 1.672-1.058 1.622c-0.699 1.087-1.399 2.177-2.1 3.269-0.337 0.556-0.727 1.077-1.105 1.607l-1.137 1.588c-0.768 1.053-1.495 2.141-2.297 3.176-0.808 1.031-1.618 2.063-2.43 3.097l-1.215 1.558c-0.422 0.505-0.864 0.996-1.295 1.496-0.863 1.001-1.728 2.003-2.594 3.007-0.422 0.514-0.877 0.996-1.34 1.473l-1.378 1.446c-0.854 0.899-1.71 1.8-2.566 2.702-1.057 1.009-2.115 2.02-3.174 3.032l-1.59 1.519c-0.274 0.272-0.512 0.467-0.755 0.676l-0.729 0.627c-0.969 0.843-1.941 1.688-2.912 2.534l-0.727 0.641-0.796 0.626-1.594 1.256c-1.071 0.829-2.115 1.701-3.21 2.505-1.108 0.787-2.218 1.574-3.329 2.362l-1.667 1.188-1.728 1.098c-1.153 0.738-2.306 1.475-3.46 2.214-9.376 5.685-19.574 10.262-30.273 13.512l-4.044 1.123c-0.675 0.181-1.346 0.392-2.028 0.551l-2.051 0.463-4.113 0.9-4.156 0.707-2.08 0.354-2.096 0.252-4.196 0.513-4.217 0.308-2.112 0.157-2.116 0.056-4.234 0.1-4.236-0.099-2.12-0.049c-0.705-0.029-1.409-0.098-2.113-0.144l-4.23-0.304c-5.613-0.624-11.233-1.365-16.728-2.676-11.046-2.394-21.699-6.34-31.694-11.397-0.625-0.317-1.265-0.605-1.876-0.945l-1.831-1.026c-1.222-0.681-2.443-1.363-3.662-2.043-1.184-0.741-2.367-1.482-3.548-2.222-1.184-0.737-2.375-1.461-3.499-2.284-1.141-0.797-2.282-1.593-3.42-2.388l-0.854-0.597-0.821-0.639-1.648-1.27c-1.092-0.855-2.214-1.67-3.28-2.552-1.053-0.899-2.104-1.797-3.154-2.694l-1.577-1.342c-0.516-0.458-1.005-0.944-1.509-1.414-1.003-0.947-2.004-1.892-3.003-2.836l-0.375-0.354-0.188-0.176c-3e-3 3e-3 -0.258-0.259-0.054-0.036l-0.751-0.787-1.499-1.571c-0.99-1.044-2.015-2.096-2.972-3.129-0.867-1.007-1.732-2.011-2.597-3.015-0.864-1.007-1.747-1.975-2.566-3.078-1.653-2.151-3.386-4.239-4.882-6.483-6.218-8.805-11.383-18.182-15.248-27.873-3.864-9.691-6.567-19.622-8.195-29.477-1.627-9.859-2.146-19.648-1.659-29.084 0.467-9.44 1.877-18.526 4.013-27.065 2.148-8.537 4.969-16.546 8.292-23.89 3.348-7.335 7.172-14.001 11.169-20.007 1.026-1.484 2.016-2.96 3.025-4.387 1.06-1.39 2.103-2.756 3.127-4.098 0.996-1.368 2.103-2.605 3.149-3.854 0.527-0.621 1.048-1.238 1.564-1.848 0.517-0.611 1.02-1.223 1.569-1.783 1.07-1.147 2.118-2.27 3.145-3.369 0.256-0.275 0.512-0.55 0.765-0.822l0.38-0.407c0.063-0.064 0.02-0.028 0.062-0.067l0.101-0.099 0.201-0.197c0.534-0.524 1.063-1.043 1.586-1.555 2.081-2.105 4.11-3.867 6.027-5.621 7.886-6.846 14.781-11.415 19.57-14.339 1.206-0.719 2.256-1.385 3.192-1.907 0.938-0.52 1.728-0.956 2.364-1.308 1.272-0.704 1.929-1.068 1.929-1.068l0.041-0.022c0.59-0.327 0.803-1.068 0.477-1.658-0.314-0.568-1.018-0.785-1.596-0.508 0 0-0.688 0.331-2.02 0.973-0.668 0.322-1.496 0.72-2.48 1.194-0.983 0.479-2.089 1.095-3.36 1.759-5.05 2.707-12.352 6.967-20.869 13.558-2.094 1.704-4.379 3.489-6.528 5.434-0.551 0.482-1.108 0.97-1.672 1.463l-0.212 0.185-0.106 0.092-0.139 0.13-0.416 0.398c-0.278 0.266-0.558 0.534-0.839 0.804-1.124 1.078-2.273 2.181-3.445 3.307-0.598 0.552-1.152 1.158-1.72 1.763-0.567 0.606-1.141 1.217-1.72 1.834-1.151 1.241-2.367 2.471-3.475 3.837-1.138 1.342-2.296 2.71-3.473 4.101-1.127 1.432-2.239 2.916-3.389 4.412-4.493 6.056-8.86 12.839-12.779 20.385-3.897 7.553-7.323 15.867-10.01 24.837-2.691 8.965-4.648 18.586-5.619 28.677-0.988 10.089-0.926 20.651 0.336 31.403 1.246 10.752 3.724 21.689 7.521 32.465 3.789 10.779 9.025 21.33 15.492 31.342 1.557 2.547 3.362 4.936 5.099 7.392 0.841 1.231 1.833 2.433 2.791 3.645 0.966 1.21 1.933 2.423 2.902 3.638 0.957 1.121 1.905 2.179 2.861 3.275l1.433 1.632 0.717 0.816 0.93 0.963c1.066 1.096 2.134 2.193 3.203 3.291 0.54 0.546 1.064 1.108 1.617 1.641l1.69 1.571c1.13 1.048 2.262 2.097 3.395 3.148 1.149 1.034 2.36 2.001 3.542 3.006l1.787 1.496 0.897 0.744 0.931 0.704c1.246 0.934 2.493 1.87 3.742 2.807 1.233 0.962 2.538 1.824 3.837 2.699 1.3 0.875 2.602 1.751 3.905 2.628 1.345 0.813 2.69 1.628 4.037 2.443l2.025 1.222c0.677 0.405 1.383 0.758 2.074 1.139 11.066 6.086 22.97 10.956 35.41 14.11 6.193 1.691 12.546 2.771 18.924 3.688l4.808 0.515c0.802 0.08 1.603 0.182 2.407 0.242l2.416 0.145 4.836 0.273 4.846 0.055 2.424 0.024 2.423-0.081 4.85-0.172 4.837-0.398 2.419-0.202 2.407-0.309 4.815-0.634c1.595-0.266 3.186-0.566 4.78-0.85l2.391-0.422c0.796-0.147 1.581-0.345 2.372-0.516l4.737-1.069c6.26-1.634 12.482-3.473 18.488-5.864l2.263-0.868 1.132-0.436 1.108-0.486c1.479-0.651 2.956-1.302 4.432-1.952 1.491-0.623 2.912-1.386 4.358-2.098 1.436-0.731 2.892-1.426 4.309-2.19 1.402-0.793 2.802-1.585 4.201-2.376l2.095-1.193 2.034-1.289c1.355-0.862 2.708-1.724 4.06-2.584 1.338-0.882 2.623-1.835 3.935-2.752l1.955-1.388 0.976-0.695 0.978-0.768c1.299-1.03 2.596-2.059 3.891-3.087l0.968-0.776c0.323-0.259 0.658-0.523 0.914-0.758l1.654-1.45c1.101-0.966 2.201-1.931 3.299-2.893l0.205-0.182c0.019-0.011 0.569-0.529 0.437-0.409l1.272-1.245 1.693-1.66 1.688-1.66c0.567-0.549 1.126-1.104 1.651-1.693 1.066-1.162 2.13-2.321 3.191-3.479 0.527-0.583 1.064-1.157 1.58-1.748l1.498-1.814c0.997-1.21 1.991-2.419 2.983-3.625 0.982-1.214 1.868-2.501 2.801-3.747l1.38-1.881c0.459-0.628 0.928-1.247 1.343-1.902 0.855-1.296 1.707-2.589 2.558-3.879 6.707-10.389 11.889-21.501 15.606-32.782 3.729-11.282 6.046-22.731 6.978-33.956 0.982-11.223 0.579-22.207-0.769-32.651-1.435-10.438-3.83-20.353-7.09-29.502-3.21-9.167-7.233-17.567-11.652-25.152-0.564-0.941-1.126-1.876-1.683-2.804-0.56-0.926-1.106-1.851-1.721-2.726-1.193-1.766-2.371-3.507-3.532-5.224-1.242-1.654-2.467-3.285-3.673-4.891-0.304-0.398-0.607-0.795-0.908-1.19-0.321-0.38-0.64-0.76-0.959-1.138-0.636-0.754-1.267-1.502-1.892-2.244-0.625-0.74-1.246-1.474-1.861-2.202-0.633-0.723-1.314-1.425-1.96-2.127-1.304-1.386-2.587-2.802-3.85-4.07-1.253-1.19-2.484-2.358-3.69-3.504-0.302-0.287-0.602-0.572-0.902-0.855l-0.447-0.426c0.055 0.064-0.199-0.204-0.218-0.215l-0.121-0.105-0.241-0.209c-0.643-0.556-1.279-1.107-1.908-1.652-4.985-4.404-9.96-7.948-14.477-11.028-1.159-0.727-2.288-1.435-3.384-2.123-1.103-0.676-2.143-1.369-3.214-1.951-2.136-1.168-4.098-2.309-5.976-3.271-1.896-0.922-3.65-1.776-5.257-2.557-1.639-0.736-3.16-1.345-4.495-1.917-0.67-0.28-1.3-0.545-1.891-0.793-0.59-0.218-1.142-0.421-1.653-0.61-1.023-0.37-1.884-0.681-2.578-0.931-1.391-0.492-2.109-0.746-2.109-0.746-0.639-0.225-1.341 0.109-1.567 0.749-0.194 0.55 0.027 1.146 0.5 1.446" fill="#60c"/></g></g><g clip-path="url(#clipPath374)"><g transform="translate(554.74 65.994)"><path d="m0 0s0.662 0.37 1.944 1.085c0.642 0.356 1.44 0.798 2.388 1.323 0.473 0.263 0.984 0.547 1.531 0.851 0.529 0.325 1.094 0.672 1.694 1.041 4.824 2.842 11.765 7.421 19.752 14.138 3.922 3.449 8.22 7.305 12.431 11.952 0.538 0.569 1.08 1.144 1.627 1.725l0.206 0.217 0.103 0.11c0.046 0.047-0.03-0.029 0.05 0.058l0.399 0.468c0.268 0.313 0.537 0.627 0.807 0.943 1.08 1.262 2.182 2.549 3.303 3.859 1.061 1.319 2.063 2.669 3.123 4.033 0.522 0.688 1.065 1.359 1.581 2.075 0.504 0.728 1.012 1.463 1.525 2.203 8.373 11.699 15.748 26.355 20.538 43.236 4.763 16.866 6.671 36.072 4.248 55.902-0.13 1.24-0.363 2.472-0.538 3.715-0.197 1.24-0.364 2.488-0.583 3.732-0.252 1.238-0.503 2.48-0.755 3.725-0.258 1.245-0.477 2.501-0.809 3.736-0.638 2.475-1.166 4.994-1.965 7.455-0.369 1.238-0.741 2.48-1.113 3.725-0.4 1.236-0.859 2.456-1.286 3.69l-0.652 1.851c-0.213 0.619-0.432 1.237-0.692 1.84-0.497 1.215-0.995 2.433-1.495 3.654l-0.746 1.835-0.831 1.805c-0.552 1.204-1.105 2.412-1.661 3.623-0.557 1.21-1.217 2.373-1.821 3.567-0.631 1.179-1.205 2.393-1.884 3.554-0.679 1.16-1.359 2.322-2.041 3.488l-1.022 1.75-1.111 1.702c-0.736 1.138-1.473 2.28-2.211 3.424-0.356 0.58-0.765 1.126-1.162 1.681l-1.195 1.664c-0.809 1.102-1.572 2.242-2.42 3.321-0.857 1.074-1.714 2.149-2.574 3.226l-1.288 1.619c-0.447 0.527-0.913 1.037-1.368 1.558-0.914 1.04-1.828 2.082-2.744 3.125-0.447 0.533-0.928 1.034-1.417 1.53l-1.454 1.501-1.454 1.504-0.729 0.754-0.363 0.377c-0.162 0.158 0.016-4e-3 -0.077 0.081l-0.2 0.187c-1.068 0.997-2.137 1.994-3.208 2.994l-1.608 1.5c-0.537 0.508-1.056 0.901-1.586 1.359-1.05 0.889-2.103 1.78-3.156 2.672l-0.789 0.672-0.841 0.644-1.685 1.29c-1.131 0.852-2.234 1.745-3.389 2.569-1.169 0.805-2.34 1.612-3.512 2.419l-1.758 1.214-1.819 1.123c-1.214 0.751-2.429 1.502-3.646 2.254-9.877 5.774-20.569 10.371-31.732 13.6l-4.216 1.11c-0.705 0.179-1.404 0.386-2.114 0.542l-2.137 0.452-4.279 0.888-4.32 0.689-2.163 0.343-2.177 0.24-4.355 0.484-4.376 0.273-2.189 0.138-2.193 0.036-4.388 0.062-4.386-0.143-2.193-0.073c-0.73-0.037-1.458-0.114-2.188-0.168l-4.374-0.357c-5.804-0.697-11.607-1.524-17.277-2.929-11.394-2.584-22.36-6.761-32.623-12.075-0.641-0.333-1.297-0.638-1.925-0.994l-1.88-1.075c-1.253-0.715-2.505-1.429-3.756-2.143-1.214-0.775-2.426-1.549-3.637-2.323-1.212-0.772-2.432-1.531-3.583-2.388-1.169-0.832-2.335-1.663-3.501-2.493l-0.873-0.623-0.841-0.666-1.682-1.326c-1.114-0.893-2.259-1.746-3.345-2.666-1.073-0.937-2.145-1.873-3.215-2.807l-1.605-1.4c-0.525-0.477-1.023-0.982-1.536-1.47-1.019-0.985-2.037-1.968-3.053-2.95l-0.381-0.368-0.19-0.184c-0.034-0.03-0.194-0.192-0.124-0.113l-0.742-0.795-1.483-1.586c-0.982-1.057-1.987-2.11-2.944-3.165-0.893-1.059-1.784-2.116-2.673-3.171-0.888-1.058-1.798-2.085-2.623-3.219-1.673-2.229-3.425-4.391-4.936-6.711-6.281-9.107-11.463-18.778-15.309-28.741-3.846-9.962-6.493-20.144-8.033-30.223-1.541-10.081-1.951-20.065-1.343-29.666 0.588-9.604 2.131-18.827 4.402-27.476 2.275-8.65 5.256-16.735 8.728-24.131 3.497-7.386 7.462-14.08 11.587-20.097 1.058-1.486 2.08-2.964 3.119-4.391 1.091-1.39 2.163-2.755 3.217-4.096 1.025-1.367 2.16-2.602 3.233-3.848 0.54-0.62 1.075-1.235 1.605-1.843 0.529-0.609 1.046-1.219 1.607-1.777 1.096-1.142 2.17-2.26 3.221-3.353 0.525-0.535 1.044-1.119 1.559-1.597 0.542-0.516 1.078-1.026 1.608-1.531 2.098-2.065 4.191-3.834 6.152-5.575 8.043-6.782 15.041-11.274 19.894-14.144 1.223-0.705 2.288-1.358 3.235-1.87 0.95-0.508 1.749-0.935 2.393-1.279 1.287-0.689 1.952-1.044 1.952-1.044l0.02-0.011c0.297-0.159 0.409-0.528 0.25-0.825-0.156-0.292-0.516-0.405-0.809-0.259 0 0-0.681 0.34-1.998 0.997-0.659 0.329-1.478 0.738-2.451 1.223-0.971 0.49-2.063 1.118-3.318 1.796-4.984 2.761-12.185 7.098-20.544 13.753-2.05 1.718-4.27 3.497-6.403 5.481-0.544 0.489-1.094 0.985-1.65 1.486-0.597 0.525-1.098 1.063-1.661 1.604-1.1 1.084-2.223 2.192-3.37 3.323-0.585 0.555-1.126 1.163-1.68 1.77-0.555 0.607-1.115 1.22-1.68 1.838-1.125 1.244-2.312 2.476-3.391 3.843-1.108 1.344-2.236 2.712-3.384 4.103-1.096 1.431-2.177 2.914-3.294 4.407-4.365 6.046-8.592 12.802-12.362 20.296-3.746 7.502-7.014 15.74-9.573 24.596-2.556 8.856-4.381 18.34-5.23 28.266-0.868 9.925-0.697 20.293 0.651 30.821 1.335 10.528 3.868 21.215 7.683 31.719 3.808 10.507 9.026 20.764 15.431 30.475 1.542 2.471 3.329 4.785 5.045 7.165 0.835 1.198 1.8 2.342 2.735 3.503 0.94 1.158 1.882 2.319 2.825 3.482 0.957 1.099 1.925 2.156 2.889 3.238l1.449 1.617 0.726 0.809 0.852 0.864c1.049 1.058 2.1 2.117 3.153 3.177 0.53 0.527 1.046 1.07 1.59 1.584l1.662 1.514c1.11 1.01 2.221 2.022 3.334 3.035 1.129 0.995 2.317 1.925 3.477 2.892l1.752 1.439 0.878 0.719 0.912 0.676c1.218 0.9 2.439 1.801 3.661 2.703 1.206 0.927 2.483 1.754 3.753 2.595s2.542 1.683 3.815 2.527c1.314 0.78 2.628 1.561 3.944 2.343l1.977 1.172c0.66 0.389 1.35 0.726 2.024 1.091 10.798 5.829 22.389 10.468 34.48 13.432 6.02 1.595 12.189 2.591 18.375 3.435l4.664 0.462c0.777 0.071 1.554 0.165 2.334 0.218l2.342 0.12 4.686 0.23 4.693 0.016 2.347 5e-3 2.345-0.101 4.692-0.205 4.676-0.427 2.339-0.215 2.325-0.32 4.65-0.652c1.54-0.272 3.075-0.576 4.614-0.863l2.306-0.432c0.767-0.15 1.523-0.351 2.286-0.525l4.564-1.082c6.026-1.65 12.011-3.482 17.773-5.86l2.171-0.864 1.085-0.432 1.062-0.483c1.417-0.646 2.833-1.291 4.246-1.935 1.43-0.615 2.788-1.371 4.172-2.074 1.374-0.721 2.767-1.406 4.122-2.158 1.339-0.779 2.678-1.558 4.015-2.336l2.004-1.168 1.943-1.263c1.294-0.843 2.586-1.685 3.878-2.527 1.277-0.862 2.503-1.794 3.754-2.688l1.866-1.355 0.932-0.678 0.914-0.735c1.218-0.984 2.433-1.968 3.646-2.95 0.591-0.492 1.243-0.988 1.781-1.477l1.636-1.469c1.09-0.979 2.179-1.956 3.265-2.932l0.204-0.183 0.316-0.299 0.405-0.402 0.809-0.803 1.616-1.606 1.612-1.605c0.541-0.53 1.075-1.067 1.575-1.637 1.015-1.122 2.029-2.242 3.041-3.361 0.503-0.563 1.014-1.117 1.506-1.687l1.425-1.752c0.949-1.167 1.895-2.333 2.84-3.496 0.936-1.171 1.785-2.405 2.678-3.601l1.322-1.807c0.439-0.603 0.889-1.196 1.285-1.826 0.818-1.244 1.633-2.486 2.447-3.725 6.391-9.986 11.434-20.599 15.038-31.416 3.635-10.805 6.01-21.768 7.021-32.557 1.052-10.784 0.841-21.364-0.323-31.455-1.206-10.09-3.371-19.7-6.332-28.614-2.929-8.927-6.645-17.15-10.771-24.607-0.527-0.927-1.05-1.847-1.569-2.762-0.518-0.914-1.022-1.828-1.597-2.693-1.111-1.749-2.208-3.474-3.289-5.175-1.163-1.643-2.31-3.263-3.44-4.859-0.285-0.396-0.569-0.791-0.851-1.184-0.302-0.379-0.603-0.757-0.902-1.133-0.599-0.752-1.194-1.499-1.783-2.238-0.59-0.739-1.174-1.472-1.754-2.199-0.594-0.719-1.231-1.41-1.837-2.106-1.225-1.377-2.418-2.766-3.609-4.055-1.206-1.232-2.39-2.443-3.553-3.63-0.29-0.297-0.579-0.592-0.867-0.887l-0.431-0.439-0.161-0.164-0.115-0.106-0.229-0.213c-0.609-0.565-1.213-1.125-1.81-1.679-4.726-4.487-9.498-8.108-13.8-11.33-1.11-0.761-2.189-1.501-3.239-2.22-1.057-0.708-2.052-1.436-3.081-2.049-2.052-1.234-3.941-2.436-5.751-3.464-1.825-0.998-3.514-1.921-5.062-2.767-1.577-0.799-3.039-1.473-4.329-2.101-0.646-0.31-1.254-0.602-1.824-0.875-0.577-0.248-1.115-0.478-1.613-0.69-0.998-0.423-1.838-0.777-2.514-1.062-1.355-0.567-2.054-0.859-2.054-0.859-0.312-0.13-0.67 0.017-0.8 0.328-0.121 0.29-2e-3 0.62 0.266 0.769" fill="#93f"/></g><g transform="translate(413.08 179.77)"><path d="m0 0-12.087-0.319 0.229 14.334 11.858-0.317c4.106 0 6.157-2.195 6.157-6.584 0-4.742-2.051-7.114-6.157-7.114m-1.003 34.827c3.533 0 5.299-1.888 5.299-5.663 0-4.082-1.766-6.123-5.299-6.123l-10.855-0.319-0.229 12.105zm13.793-14.889c1.419 1.924 2.524 4.935 2.576 9.65v0.319c0 5.708-1.506 10.002-4.48 12.765-2.725 2.519-6.365 3.965-10.818 4.3l-0.078 5e-3 -23.26-0.504 0.997-58.983 20.876 0.078h0.286c6.129 0 10.754 1.712 13.746 5.086 3.124 3.508 4.707 7.872 4.707 13.018-0.1 6.756-1.628 11.533-4.552 14.266" fill="#fff"/></g><g transform="translate(472 226.29)"><path d="m0 0-12.58-0.463 0.057-2.413c0.246-10.697 0.371-19.248 0.371-25.414 0-10.976-0.34-13.108-0.441-13.493-0.665-2.435-1.37-3.549-1.845-4.054-0.464-0.495-1.491-1.17-3.752-1.583-1.978-0.365-3.585-0.263-4.742 0.213-1.091 0.466-1.99 1.361-2.747 2.737-0.821 1.494-1.296 3.002-1.451 4.615-0.111 1.129-0.243 6.323-0.243 24.661v12.349l-12.121-0.363-0.039-2.309c-0.152-9.138-0.229-16.502-0.229-21.888 0-7.024 0.11-11.394 0.334-13.363 0.408-3.577 1.11-6.681 2.089-9.228 0.998-2.598 2.38-4.933 4.107-6.937 1.822-2.111 4.464-3.597 7.829-4.409 1.957-0.503 3.941-0.758 5.899-0.758 1.211 0 2.445 0.089 3.682 0.267 3.309 0.518 6.284 1.866 8.842 4.007 2.681 2.244 4.657 5.91 5.875 10.897 0.863 3.563 1.285 12.659 1.285 27.805 0 4.576-0.049 10.187-0.145 16.68z" fill="#fff"/></g><g transform="translate(490.1 180.4)"><path d="m0 0 20.745 32.95-0.429 12.292-35.646-1.268v-15.588l18.195 1.232-20.085-32.188v-11.936l38.907-1.656-0.501 15.518z" fill="#fff"/></g><g transform="translate(530.75 180.4)"><path d="m0 0 20.744 32.95-0.43 12.292-35.645-1.268v-15.588l18.194 1.232-20.085-32.188v-12.546l38.906-1.046-0.5 15.518z" fill="#fff"/></g><g transform="translate(575.69 198.82)"><path d="m0 0h-11.399l0.23 15.467 10.739 0.319c2.081-0.213 3.681-0.797 4.799-1.752 1.117-0.956 1.761-3.25 1.933-6.884 0-4.768-2.101-7.15-6.302-7.15m7.583-9.73c2.85 1.673 4.989 4.13 6.365 7.311 1.456 3.25 2.191 9.288 2.191 13.13 0 0.464-8e-3 -1.498-0.031-0.987-0.214 4.437-1.455 8.408-3.684 11.804-2.33 3.547-6.175 5.518-11.425 5.861l-23.104 4e-3 0.56-62.03 11.901-0.227 0.288 22.235 5.558 0.103 11.394-27.641 11.646 3.102z" fill="#fff"/></g></g></g></svg>
