<svg width="1e3" height="905.65" version="1.1" viewBox="0 0 100 90.565" xmlns="http://www.w3.org/2000/svg">
 <g transform="translate(88.001 -106.19)" fill="#fff" fill-rule="evenodd" shape-rendering="auto">
  <path d="m-71.334 146.45c4.3394 0 7.3707 3.585 7.3707 7.3338 0 3.9642-3.1229 7.3707-7.3707 7.3707-4.4838 0-7.3338-3.6009-7.3338-7.3707v-19.63c0.03706-2.6306-2.1063-4.772-4.7368-4.7325-2.5756 0.0388-4.6328 2.1569-4.5965 4.7325v19.63c0 8.7116 7.0629 16.704 16.667 16.704 9.3373 0 16.704-7.7049 16.704-16.704 0-8.8228-7.2201-16.667-16.704-16.667-4.0793 0-7.3336 1.7038-7.3336 1.7038v14.963c0-4.3475 3.6603-7.3338 7.3336-7.3338z" color="#000000" color-rendering="auto" dominant-baseline="auto" image-rendering="auto" solid-color="#000000" style="font-feature-settings:normal;font-variant-alternates:normal;font-variant-caps:normal;font-variant-ligatures:normal;font-variant-numeric:normal;font-variant-position:normal;isolation:auto;mix-blend-mode:normal;shape-padding:0;text-decoration-color:#000000;text-decoration-line:none;text-decoration-style:solid;text-indent:0;text-orientation:mixed;text-transform:none;white-space:normal"/>
  <path d="m-47.329 137.05a4.6673 4.6673 0 0 0-4.5965 4.7325v5.2222c0 6.1496 4.0086 12.232 10.259 14.298v4.7764a4.6673 4.6673 0 1 0 9.3341 0v-4.7851c6.1585-2.0533 10.222-8.0397 10.222-14.29v-5.2222a4.6673 4.6673 0 1 0-9.3341 0v5.2222c0 3.0212-1.911 5.704-5.5557 5.704-3.7195 0-5.5926-2.9028-5.5926-5.704v-5.2222a4.6673 4.6673 0 0 0-4.7368-4.7325z" color="#000000" color-rendering="auto" dominant-baseline="auto" image-rendering="auto" solid-color="#000000" style="font-feature-settings:normal;font-variant-alternates:normal;font-variant-caps:normal;font-variant-ligatures:normal;font-variant-numeric:normal;font-variant-position:normal;isolation:auto;mix-blend-mode:normal;shape-padding:0;text-decoration-color:#000000;text-decoration-line:none;text-decoration-style:solid;text-indent:0;text-orientation:mixed;text-transform:none;white-space:normal"/>
  <path d="m-13.221 137.11c-2.5756 0.0388-4.6328 2.1569-4.5965 4.7325v13.617c0 7.5695 6.0735 15.038 14.926 15.038 8.6896 0 14.89-7.3182 14.89-15.038v-13.617c0.02689-2.5964-2.0705-4.7156-4.667-4.7156s-4.6939 2.1192-4.667 4.7156v13.617c0 3.0212-1.911 5.704-5.5557 5.704-3.7195 0-5.5926-2.9028-5.5926-5.704v-13.617c0.037057-2.6306-2.1063-4.772-4.7368-4.7325z" color="#000000" color-rendering="auto" dominant-baseline="auto" image-rendering="auto" solid-color="#000000" style="font-feature-settings:normal;font-variant-alternates:normal;font-variant-caps:normal;font-variant-ligatures:normal;font-variant-numeric:normal;font-variant-position:normal;isolation:auto;mix-blend-mode:normal;shape-padding:0;text-decoration-color:#000000;text-decoration-line:none;text-decoration-style:solid;text-indent:0;text-orientation:mixed;text-transform:none;white-space:normal"/>
  <path d="m-22.929 171.49a2.7411 2.7411 0 0 0-2.6997 2.78v3.3515h-3.0745a2.7411 2.7411 0 1 0 0 5.4819h3.0745v5.3727c0 4.5382 3.7475 8.2757 8.2967 8.2757a2.7411 2.7411 0 1 0 0-5.4819c-1.5987 0-2.8155-1.2266-2.8155-2.7938v-5.3727h3.2228a2.7411 2.7411 0 1 0 0-5.4819h-3.2228v-3.3515a2.7411 2.7411 0 0 0-2.7815-2.78z" color="#000000" color-rendering="auto" dominant-baseline="auto" image-rendering="auto" solid-color="#000000" style="font-feature-settings:normal;font-variant-alternates:normal;font-variant-caps:normal;font-variant-ligatures:normal;font-variant-numeric:normal;font-variant-position:normal;isolation:auto;mix-blend-mode:normal;shape-padding:0;text-decoration-color:#000000;text-decoration-line:none;text-decoration-style:solid;text-indent:0;text-orientation:mixed;text-transform:none;white-space:normal"/>
  <path d="m3.7366 177.61a2.7411 2.7411 0 0 0-2.576 1.5893l-4.0677 8.4768-4.0641-8.4768a2.7411 2.7411 0 1 0-4.943 2.3706l6.5345 13.628a2.7411 2.7411 0 0 0 4.943 7.4e-4l6.5396-13.628a2.7411 2.7411 0 0 0-2.3662-3.9606z" color="#000000" color-rendering="auto" dominant-baseline="auto" image-rendering="auto" solid-color="#000000" style="font-feature-settings:normal;font-variant-alternates:normal;font-variant-caps:normal;font-variant-ligatures:normal;font-variant-numeric:normal;font-variant-position:normal;isolation:auto;mix-blend-mode:normal;shape-padding:0;text-decoration-color:#000000;text-decoration-line:none;text-decoration-style:solid;text-indent:0;text-orientation:mixed;text-transform:none;white-space:normal"/>
  <path d="m-69.539 176.22a2.3336 2.3336 0 0 0-1.7441 3.855c7.9513 9.518 20.023 16.007 35.055 16.007a2.3337 2.3337 0 1 0 0-4.6674c-13.703 0-24.331-5.7822-31.473-14.331a2.3336 2.3336 0 0 0-1.8374-0.86302z" color="#000000" color-rendering="auto" dominant-baseline="auto" image-rendering="auto" solid-color="#000000" style="font-feature-settings:normal;font-variant-alternates:normal;font-variant-caps:normal;font-variant-ligatures:normal;font-variant-numeric:normal;font-variant-position:normal;isolation:auto;mix-blend-mode:normal;shape-padding:0;text-decoration-color:#000000;text-decoration-line:none;text-decoration-style:solid;text-indent:0;text-orientation:mixed;text-transform:none;white-space:normal"/>
  <path d="m-37 106.19c-17.632 0-30.26 10.042-36.242 18.547a2.3336 2.3336 0 1 0 3.8167 2.6845c5.1912-7.3808 16.581-16.565 32.426-16.565 16.599 0 28.68 9.5959 34.663 19.56a2.3336 2.3336 0 1 0 4.0011-2.4024c-6.7326-11.212-20.269-21.824-38.664-21.824z" color="#000000" color-rendering="auto" dominant-baseline="auto" image-rendering="auto" solid-color="#000000" style="font-feature-settings:normal;font-variant-alternates:normal;font-variant-caps:normal;font-variant-ligatures:normal;font-variant-numeric:normal;font-variant-position:normal;isolation:auto;mix-blend-mode:normal;shape-padding:0;text-decoration-color:#000000;text-decoration-line:none;text-decoration-style:solid;text-indent:0;text-orientation:mixed;text-transform:none;white-space:normal"/>
 </g>
</svg>
