<svg enable-background="new 0 0 490.06 101.37" version="1.1" viewBox="0 0 490.06 101.37" xml:space="preserve" xmlns="http://www.w3.org/2000/svg">
	<path d="m455.48 83.17 22.84-27.47c6.11-7.42 11.59-14.98 11.59-25.93 0.01-17.25-13.5-29.77-32.1-29.77-20.33 0-32.39 11.95-33.08 32.78l-0.02 0.74h18.37l0.03-0.69c0.3-7.41 3.1-16.25 14.7-16.25 7.85 0 13.33 5.48 13.33 13.33 0 5.75-3.11 9.74-7.42 15.25l-42.58 53.33v1.26h68.93v-16.58h-34.59z" fill="#BA0C2F"/>
	<g fill="#001A72">
		<path d="M91.93,70.72V47.24h23.48v23.48H91.93z"/>
		<path d="m185.14 75.19c0 17.68-12.91 26.17-30.71 26.17-17.72 0-31.38-8.1-32.82-26.74h18.9c2.13 14.86 25.9 13.45 25.9 1.73 0-13.2-42.69-6.22-42.69-35.48 0-15.12 13.26-24.31 29.66-24.31 16.31 0 29.03 8.06 30.62 25.7h-19.18c-1.39-13.7-21.82-11.75-21.82-1.97 0 13.91 42.14 5.63 42.14 34.9zm44.92 3.46c17.24 0 30.05-13.16 30.05-30.17s-12.81-30.29-30.05-30.29h-38.32v81.54h19.8v-21.08h18.52zm-18.53-17.01v-26.44h15.73c7.34 0 13.05 5.36 13.05 13.28s-5.71 13.16-13.05 13.16h-15.73zm100.25 38.09h21.43l-35.06-81.53h-14.91l-35.06 81.54h21.43l4.08-11.53h33.9l4.19 11.52zm-21.08-58.47 11.07 30.75h-22.25l11.18-30.75zm104.34 25.51-41.46-48.57h-17.47v81.54h19.8v-48.46l41.47 48.46h17.47v-81.54h-19.8v48.57zm-330.18 3.95c-3.14 7.57-10.23 13.41-21.41 13.41-15.61 0-23.65-11.3-23.65-25.16s8.04-25.16 23.65-25.16c11.19 0 18.27 5.85 21.41 13.43h19.7c-3.83-16.32-18.96-30.67-40.99-30.67-27.03-0.01-43.57 19.33-43.57 42.39s16.54 42.4 43.56 42.4c22.02 0 37.15-14.34 40.99-30.65h-19.69z"/>
	</g>
</svg>
