<svg enable-background="new 0 0 414.84 84.8" version="1.1" viewBox="0 0 414.84 84.8" xml:space="preserve" xmlns="http://www.w3.org/2000/svg">
	<path d="M91.93,54.15V30.67h23.48v23.48H91.93z" fill="#3C50FF"/>
	<path d="m185.13 58.63c0 17.68-12.91 26.17-30.71 26.17-17.72 0-31.38-8.1-32.82-26.74h18.9c2.13 14.86 25.9 13.45 25.9 1.73 0-13.2-42.69-6.22-42.69-35.48 0-15.12 13.27-24.31 29.67-24.31 16.31 0 29.03 8.06 30.62 25.7h-19.18c-1.39-13.71-21.82-11.75-21.82-1.97 0 13.9 42.13 5.63 42.13 34.9zm44.92 3.46c17.24 0 30.05-13.16 30.05-30.17s-12.81-30.28-30.05-30.28h-38.32v81.54h19.8v-21.09h18.52zm-18.52-17.01v-26.44h15.72c7.34 0 13.05 5.36 13.05 13.28s-5.71 13.16-13.05 13.16h-15.72zm100.25 38.09h21.43l-35.06-81.54h-14.91l-35.06 81.54h21.43l4.08-11.53h33.9l4.19 11.53zm-21.08-58.47 11.07 30.75h-22.25l11.18-30.75zm104.34 25.5-41.47-48.57h-17.47v81.54h19.8v-48.46l41.47 48.45h17.47v-81.53h-19.8v48.57zm-330.18 3.95c-3.14 7.57-10.23 13.41-21.41 13.41-15.61 0-23.65-11.3-23.65-25.16s8.04-25.16 23.65-25.16c11.19 0 18.27 5.85 21.41 13.43h19.7c-3.84-16.32-18.97-30.67-41-30.67-27.02 0-43.56 19.34-43.56 42.4s16.54 42.4 43.56 42.4c22.02 0 37.15-14.34 40.98-30.65h-19.68z" fill="#001A72"/>
</svg>
