<svg width="800" height="402.65" version="1.1" viewBox="0 0 800 402.65" xmlns="http://www.w3.org/2000/svg">
 <g transform="matrix(5.298 0 0 5.298 -.0015894 0)" fill-rule="evenodd">
  <path d="m7.6328 43.531v12.705c0 1.0069 0.32168 1.6738 0.96593 1.9996 0.62443 0.32939 1.8309 0.50882 3.6042 0.50882v0.74806h-11.708v-0.74806c1.7579 0 2.9401-0.17943 3.5655-0.50882 0.61632-0.32582 0.91457-0.99265 0.91457-1.9996v-14.5c-1.5669-1.2569-3.2303-1.9228-4.9747-1.9817v-0.7552h9.5791l21.285 14.067v-10.816c0-0.998-0.30906-1.6657-0.94971-1.9987-0.63524-0.33475-1.8408-0.49632-3.615-0.49632v-0.7552h11.701v0.7552c-1.7895 0-2.987 0.16157-3.5862 0.49632-0.58929 0.33296-0.89654 1.0007-0.89654 2.0085v15.207c0 0.78466 0.06938 1.622 0.19553 2.5334l-1.3552-0.02767c-2.8834-1.9701-6.1452-4.1143-9.7728-6.4629-0.45323-0.28565-0.98124-0.62933-1.5678-1.0391l-13.384-8.9392"/>
  <path d="m40 39h29.682l0.31751 4.5628h-1.362c-0.45642-1.2505-1.3891-2.1012-2.826-2.5512-1.1185-0.36224-2.8964-0.54794-5.3525-0.54794h-6.3925c-0.92005 0-1.5091 0.05306-1.7896 0.15002-0.38155 0.12075-0.56466 0.42994-0.56466 0.90012v6.6942h7.576c1.7508 0 3.0831-0.20124 4.0094-0.58361 0.92456-0.397 1.5316-1.094 1.804-2.0875h1.3043v7.3272h-1.2484c-0.3121-1.2056-1.0869-2.0527-2.3046-2.5494-1.0851-0.43085-2.7259-0.6449-4.9187-0.6449h-6.2221v7.0592c0 0.7748 0.25166 1.2733 0.77934 1.4901 0.51685 0.21405 1.4829 0.32291 2.8837 0.32291h5.4617c2.7178 0 4.9277-0.33388 6.609-0.97879 1.6813-0.66137 3.0957-1.7225 4.2485-3.187h1.3061l-2.5761 5.6239h-30.424v-0.76656c1.7598 0 2.9721-0.18386 3.5999-0.52141 0.64133-0.33388 0.96515-1.0172 0.96515-2.049v-14.388c0-1.0364-0.32382-1.7188-0.96515-2.06-0.6278-0.34303-1.8401-0.50769-3.5999-0.50769v-0.7071"/>
  <path d="m87.998 59.988-10.851-17.468c-1.0284-1.6674-2.4161-2.5925-4.1472-2.7647v-0.75475h13.566v0.75475c-2.2005 0.05888-3.2892 0.44964-3.2892 1.1758 0 0.39878 0.16947 0.83147 0.50221 1.3275l7.2332 11.965 5.6858-8.5137-2.2094-3.4374c-1.0763-1.6174-2.763-2.4587-5.0682-2.5176v-0.75475h15.367v0.75475c-2.5474 0.07851-3.8207 0.52725-3.8207 1.3676 0 0.25604 0.10559 0.54866 0.30435 0.89035l7.8907 12.249 6.7239-11.357c0.38864-0.63252 0.59981-1.1919 0.59981-1.6924 0-0.91801-1.3505-1.3989-4.0168-1.4578v-0.75475h10.531v0.75475c-1.9254 0.30422-3.4853 1.4408-4.6468 3.408l-10.131 16.825-1.748-0.0071-8.4107-12.458-8.2385 12.477-1.8269-0.01249"/>
  <path d="m126 61v-6.9467l1.4854 0.0937c1.0134 1.6157 2.4195 2.9211 4.1975 3.9127 2.0896 1.1581 4.4764 1.7449 7.1729 1.7449 1.7269 0 3.1878-0.32204 4.3552-0.94521 1.171-0.63135 1.7424-1.4574 1.7424-2.4772 0-1.6912-2.671-3.4661-8.0305-5.281-0.32261-0.10644-0.75092-0.23744-1.2777-0.42212-2.9909-1.0307-5.0605-1.8677-6.2461-2.5254-1.9867-1.1463-2.9918-2.4426-2.9918-3.8718 0-1.7003 1.1109-3.013 3.309-3.9337 1.9575-0.84241 4.4581-1.2663 7.5183-1.2663 1.1656 0 2.7604 0.17194 4.7662 0.51673 2.0076 0.35025 3.3163 0.50854 3.9104 0.50854 1.1109 0 1.8673-0.36844 2.3002-1.1071h1.4308v6.672h-1.5447c-0.85298-1.5265-2.0778-2.7738-3.6762-3.7226-1.849-1.109-4.0244-1.6684-6.5159-1.6684-1.5328 0-2.7959 0.23471-3.7911 0.69503-1.1036 0.49398-1.664 1.179-1.664 2.0514 0 0.66319 0.3381 1.2709 1.0198 1.8022 0.71173 0.61498 2.6483 1.4228 5.7896 2.4444 1.5665 0.514 2.6884 0.89608 3.3554 1.1235 2.6574 0.92883 4.5976 1.8249 5.8378 2.64 1.6969 1.1181 2.5471 2.4308 2.5471 3.9109 0 1.8813-1.1783 3.3906-3.5113 4.5114-2.1644 1.0234-4.9275 1.5402-8.2911 1.5402-1.2868 0-2.9827-0.20014-5.117-0.60588-2.1197-0.41211-3.4694-0.61589-4.0499-0.61589-1.1318 0-1.9684 0.41575-2.4952 1.2218h-1.5356"/>
  <path d="m33.555 7.0026c1.0756 0.90415 1.9012 1.7834 2.4507 2.9578 0.65116 1.4509 1.349 3.2477 0.79109 5.6872 0 0.01511-0.3461 0.79658-0.36569 0.84014-0.4114 0.60988-0.44312 0.92016-0.88251 1.4794-0.10355 0.16003-0.76684 0.91304-0.89651 1.0909-0.78269 1.0748-1.1475 1.7034-1.8061 2.8894-0.61571 1.066-1.3713 2.2155-1.1624 4.1616 0.09142 0.61877 0.74538 1.106-0.32185 0.79391-0.15206-0.08001-0.52148-0.27294-0.67261-0.36806-0.62877-0.31116-2.405-1.4314-2.9004-2.3462l-0.38995-0.58677c-2.6-6.9478 8.4371-9.2434 6.6356-15.226-0.1362-0.38495-0.54761-1.4358-0.4795-1.3736"/>
  <path d="m30.746 13.109c0.95818-0.54723-1.1031 1.1469-1.1536 1.1709-3.5962 3.3633-7.7589 8.1969-1.9762 12.72-3.3531-0.90079-6.4015-2.1116-7.398-5.3612-0.43375-1.3192-0.20285-2.6686 0.52443-3.684 1.7182-2.4634 4.6946-3.1279 8.0515-4.1415 0.54593-0.18389 1.4116-0.43085 1.9519-0.70447"/>
  <path d="m37.805 13.991c1.1732 1.19 2.1438 2.6573 2.6152 4.6182 1.1804 4.8049-2.4464 5.1621-5.2 6.5818-0.74196 0.3841-1.5188 1.0428-2.0759 1.6638-0.16786-0.63449-0.42589-1.5831-0.26964-2.5577 0.15536-1.1299 0.88571-2.0399 1.3714-2.8431 1.3634-2.2786 3.1705-4.1767 3.5589-7.4631"/>
  <path d="m28.258 0.31141c6.2554 0 12.181 0.2109 17.933 0.96654 0.77054 0.098718 2.5321-0.072692 3.0509 0.53397 0.22946 0.27103-0.18393 3.4363-0.22768 4.0537-0.10089 1.1855 0.24911 3.0486-0.36786 3.9846-1.0625 1.6235-1.6098-1.8137-1.8062-2.2203-3.008-6.0415-19.372-5.7535-25.524-4.1794-2.725 0.69551-5.4964 2.0219-7.4991 4.1686-2.2205 2.3683-3.1286 5.04-3.2929 8.4772-0.42768 9.1915 8.8991 14.113 16.339 15.614 2.6911 0.54026 5.5964 0.59231 8.6455 0.59231 0.41964-0.01077 0.82589-0.0332 1.2438-0.05205 0.275-0.01256 0.55714-0.03231 0.825-0.05474 0.25089-0.01885 0.49911-0.03679 0.73304-0.04936 0.18661-0.01346 0.38393-0.02962 0.56518-0.05564 0.1375-0.01795 0.28214-0.04039 0.42321-0.05115 0.13929-0.02603 0.27679-0.04038 0.40625-0.05205 0.12589-0.01615 0.25179-0.02692 0.37679-0.04756 0.09018-0.02603 0.20179-0.04218 0.30179-0.05833 0.10536-0.01346 0.20625-0.02423 0.30625-0.05385 0.77857-0.21 1.5411-0.42449 2.317-0.64346 2.6857-0.9468 3.7884-2.2768 5.183-4.6487 0.18928-0.33115 0.6375-0.5259 1.0125-0.35359 0.23661 0.11936 0.30893 0.38051 0.30893 0.64705 0.04732 1.3776-1.0598 5.7526-2.0652 6.5145-1.4848 1.1182-5.2321 1.155-7.2741 1.3165-11.416 0.92076-23.93 0.03678-32.519-5.5614-7.1562-4.6676-9.8473-13.714-3.5214-20.494 2.6384-2.8296 5.8732-4.4764 9.283-5.7795 1.8295-0.68295 4.2741-1.6306 6.3518-1.6306 0.10268-0.016154 0.2-0.036795 0.30357-0.052949 0.10446-0.015256 0.20536-0.035897 0.30893-0.056538 0.11429-0.010769 0.21072-0.023333 0.31696-0.052949 0.10893-0.00987 0.24375-0.025128 0.36607-0.051154 0.10982-0.010769 0.24196-0.034103 0.3625-0.047564 0.13304-0.015256 0.27232-0.03141 0.41696-0.056538 0.12232-0.013462 0.26696-0.026923 0.40625-0.036795 0.14375-0.03141 0.27143-0.044872 0.41072-0.06282 0.15625-0.020641 0.31161-0.030513 0.46607-0.052051 0.15804-0.020641 0.31429-0.03141 0.47946-0.052051 0.16875-0.020641 0.34554-0.034103 0.50893-0.060128 0.19107-0.008077 0.37054-0.026026 0.57054-0.041282 0.23036-0.010769 0.45-0.036795 0.67321-0.054744 0.24107-0.023333 0.47946-0.034103 0.73393-0.047564 0.30089-0.025128 0.60893-0.041282 0.92589-0.054744 0.41161-0.03859 0.82411-0.072692 1.2411-0.10321"/>
  <path d="m99.373 0c1.592 0.050924 2.8905 1.3374 4.119 2.1629 1.7409 1.1489 3.4846 2.3032 5.2354 3.4601 9.6649 6.2279 19.338 12.434 29.001 18.662 0.26922 0.18136 1.1702 0.94254 1.5229 0.6772 0.0332-0.3252 0.0844-0.63521 0.11576-0.95147-0.1723-4.8556-0.34729-9.7121-0.5169-14.572-0.0422-1.9556 0.25396-4.8896-0.67304-6.4485-0.77713-1.307-2.5118-1.3848-4.0176-1.4473-0.4837-0.028589-2.606 0.067898-2.606-0.5137 0.26653-0.087553 0.52228-0.16617 0.78522-0.25462 3.691 0.016081 7.3927 0.036629 11.089 0.05271 0.63984-0.016081 1.2868-0.036629 1.9249-0.05271 0.61471-0.13401 4.6233-0.18672 4.6476 0.32252 0.018 0.46367-1.0724 0.39667-1.4143 0.40918-1.3918 0.012508-3.0359 0.14294-3.752 1.3178-0.97995 1.5643-0.62099 5.5435-0.67663 7.6466-0.18127 6.386-0.35985 12.759-0.53305 19.144-0.0386 1.0801 0.25217 4.1668-0.87854 4.3669-1.574 0.29035-5.7289-2.8821-7.1297-3.7317-8.6481-5.2032-17.076-10.684-25.565-16.202-0.98892-0.63878-6.3275-4.609-7.0373-4.609 0.1714 3.9863 0.33832 7.9834 0.52587 11.978 0.11038 2.7025-0.0718 5.699 0.46305 8.2461 0.1714 0.7576 0.41998 1.5429 0.97726 2.0923 1.0428 1.0417 4.3685 1.1293 5.9524 1.1293-0.11935 0.6093-0.7206 0.6093-1.3039 0.61376-2.8447-0.02412-5.6876-0.06433-8.5377-0.10274-2.7254 0.03842-5.4435 0.07862-8.1734 0.10274-0.81842-0.02412-1.3317-0.72008-0.47382-0.72008 0.62996-0.01251 1.2563-0.03127 1.8728-0.0545 0.23691-0.0098 0.46126-0.03663 0.68022-0.04824 0.16153-0.02502 0.31229-0.03842 0.47202-0.05628 0.12743-0.01072 0.24319-0.02234 0.36434-0.05092 0.86418-0.36808 1.5318-0.53336 1.889-1.5179 0.83457-2.3237 0.42446-5.6356 0.51241-8.2845 0.15256-5.95 0.30332-11.903 0.45587-17.846 0.04487-1.4679-0.38229-3.9846 0.68291-4.9199"/>
  <path transform="translate(2)" d="m80.118 30.444c-1.2039 1.072-2.5574 1.3304-4.0598 1.8419-0.09089 0.01431-0.20584 0.03219-0.30832 0.05454-0.10069 0.01431-0.20762 0.02593-0.30564 0.04739-0.12475 0.01878-0.24059 0.03487-0.37337 0.04828-0.14436 0.02503-0.29941 0.03666-0.45267 0.05633-0.25307 0.01699-0.4803 0.02951-0.73426 0.05901-2.2607 0-6.6743 0.03666-7.8496-1.7829-0.96683-1.5227-0.47317-6.5083-0.47317-8.6613 0-1.0864-0.29495-4.771 0.20762-5.4488v-0.05096c3.3603 0 6.6609-0.02057 9.3689 1.1981 3.4646 1.5665 6.6083 4.6575 6.6083 8.8768 0 1.5781-0.50436 2.7744-1.628 3.7616zm-14.383-27.917c0.36624-0.55256 1.4329-0.36838 2.054-0.45153 2.2117 0 4.222 0.30042 5.932 1.2509 3.4592 1.934 5.261 7.1422 1.7002 9.9927-0.84654 0.69741-1.7875 0.82974-2.7713 1.2679-0.10871 0.01788-0.21208 0.03219-0.31277 0.04739-0.14436 0.01252-0.27178 0.03845-0.41436 0.05275-0.19069 0.01699-0.38317 0.03845-0.56584 0.05365-0.37871 0.01609-0.75654 0.03666-1.1272 0.04918-0.94545 0-3.9235 0.15915-4.4465-0.37911-0.23436-0.2289-0.37515-11.386-0.04812-11.884zm15.166 13.483c-1.2092-0.35586-2.4327-0.70904-3.6544-1.0613h-0.09802v-0.05275c0.6496-0.35407 1.3037-0.69831 1.9515-1.0577 2.8978-1.7221 6.7001-5.0294 4.6043-8.9126-2.1814-4.011-9.3475-4.6682-13.904-4.6682-1.0559 0.010729-2.1333 0.031294-3.207 0.052753-0.6995 0.012518-1.4052 0.025035-2.119 0.051859-4.7718-0.039341-9.5436-0.073318-14.326-0.10461-0.20852 0.10461-0.43931 0.21012-0.66475 0.31205 0 0.65628 2.2972 0.50607 2.8488 0.55256 1.3429 0.10372 3.1054 0.15647 3.7827 1.3921 0.90267 1.6452 0.50436 5.9986 0.50436 8.1713-0.01604 4.9159-0.02049 9.8281-0.03386 14.743-0.07753 2.0708 0.01782 4.172-0.4598 6.0192-0.27624 1.0792-0.80198 1.5593-1.784 1.984-0.13544 0.0098-0.27267 0.02235-0.41792 0.04381-0.13544 0.01878-0.27178 0.03755-0.41703 0.05901-0.20228 0.01073-0.40366 0.02235-0.60594 0.04202-0.5195 0.02235-1.0363 0.03666-1.5576 0.06259-0.27356 0-0.84742 0.30042-0.44376 0.57671 0.3101 0.20922 0.84564 0.19671 1.2832 0.19671 3.5938-0.04202 7.1947-0.06795 10.796-0.10461 7.4246 0.11713 15.084 0.77341 21.213-2.2156 2.3186-1.1427 4.7495-3.0445 5.4802-5.6651 1.5915-5.7197-4.6978-8.884-8.7719-10.417z"/>
  <path transform="translate(2)" d="m10.105 69.519v-0.09567c0-0.39699-0.12832-0.6688-0.38584-0.85388-0.25485-0.1824-0.65139-0.27807-1.2128-0.27807h-2.422c-1.0372 0-1.7047 0.13412-1.9969 0.38268-0.3003 0.24767-0.45 0.77878-0.45 1.5853v1.3778c0 0.72513 0.16842 1.2071 0.49455 1.4708 0.3199 0.2736 0.98198 0.40682 1.9524 0.40682h1.7456c0.96594 0 1.6111-0.10014 1.906-0.28969 0.29495-0.19581 0.44465-0.55256 0.44465-1.0765v-0.1064h3.0645c0 0.01073 0 0.02861 0.0053 0.06795 0.02673 0.2888 0.02673 0.51233 0.02673 0.65181 0 0.63572-0.08554 1.1597-0.24327 1.5754-0.1604 0.40861-0.41168 0.75106-0.74317 1.0005-0.32163 0.23247-0.76718 0.40683-1.3 0.50965-0.53911 0.0912-1.3331 0.152-2.365 0.152h-3.3888c-1.0301 0-1.7991-0.0608-2.2874-0.16094-0.48386-0.12339-0.90089-0.30489-1.2422-0.57402-0.40366-0.32188-0.68703-0.70009-0.86881-1.1615-0.18891-0.45958-0.28248-1.0479-0.28248-1.7462v-2.7101c0-1.4342 0.33861-2.4222 1.0141-2.9792 0.67277-0.56955 1.8962-0.85299 3.6668-0.85299h3.3888c1.0755 0 1.8775 0.05275 2.3979 0.14574 0.51505 0.10461 0.92139 0.26019 1.2163 0.49534 0.3101 0.24499 0.54 0.56598 0.70663 0.97459 0.13455 0.40325 0.20673 0.91379 0.20673 1.5316v0.33887c0 0.07332-0.0053 0.14664-0.01158 0.21816h-3.0368"/>
  <polyline points="27.954 76 25 76 25 66 27.954 66 27.954 69.684 34.021 69.684 34.021 66 37 66 37 76 34.021 76 34.021 72.099 27.954 72.099 27.954 76"/>
  <path d="m52.571 71.939h3.907l-1.9727-3.5332zm-2.1781 4.061h-3.3927l5.5708-10h3.9693l5.4599 10h-3.411l-0.98729-1.6587h-6.2134z"/>
  <polyline points="83 76 78.698 76 72.94 68.734 72.94 76 70 76 70 66 74.344 66 80.077 73.337 80.077 66 83 66 83 76"/>
  <polyline points="107 76 102.71 76 96.937 68.734 96.937 76 94 76 94 66 98.347 66 104.08 73.337 104.08 66 107 66 107 76"/>
  <polyline points="128.88 68.444 121.03 68.444 121.03 69.964 128.42 69.964 128.42 72.059 121.03 72.059 121.03 73.59 129 73.59 129 76 118 76 118 66 128.88 66 128.88 68.444"/>
  <polyline points="142.14 73.59 149 73.59 149 76 139 76 139 66 142.14 66 142.14 73.59"/>
 </g>
</svg>
