<svg width="662.4" height="174.25" version="1.1" xmlns="http://www.w3.org/2000/svg" xmlns:xlink="http://www.w3.org/1999/xlink">
 <defs>
  <linearGradient id="linearGradient11599" x1="424.46" x2="424.46" y1="2.8114" y2="175.07" gradientUnits="userSpaceOnUse">
   <stop stop-color="#61819f" offset="0"/>
   <stop stop-color="#071f2f" offset="1"/>
  </linearGradient>
  <linearGradient id="linearGradient11602" x1="512.74" x2="512.74" y1="23.399" y2="158.17" gradientUnits="userSpaceOnUse">
   <stop stop-color="#3e5467" offset="0"/>
   <stop stop-color="#0d2536" offset="1"/>
  </linearGradient>
  <linearGradient id="linearGradient11605" x1="88.705" x2="88.705" y1="34.122" y2="147" gradientUnits="userSpaceOnUse">
   <stop stop-color="#3e5467" offset="0"/>
   <stop stop-color="#142d3f" offset="1"/>
  </linearGradient>
  <linearGradient id="linearGradient11608" x1="86.754" x2="86.754" y1="31.242" y2="141.05" gradientUnits="userSpaceOnUse">
   <stop stop-color="#e7ecf2" offset="0"/>
   <stop stop-color="#cfd8e5" offset="1"/>
  </linearGradient>
  <linearGradient id="linearGradient11614" x1="-77.065" x2="-77.065" y1="290.03" y2="340.65" gradientTransform="matrix(2.1315 0 0 2.141 251.35 -586.15)" gradientUnits="userSpaceOnUse">
   <stop stop-color="#4f6d89" offset="0"/>
   <stop stop-color="#152f41" offset="1"/>
  </linearGradient>
  <linearGradient id="linearGradient11617" x1="493.71" x2="493.71" y1="23.846" y2="155.8" gradientUnits="userSpaceOnUse">
   <stop stop-color="#e9eef3" offset="0"/>
   <stop stop-color="#ccd6e3" offset="1"/>
  </linearGradient>
  <linearGradient id="linearGradient11652" x1="1079.6" x2="1079.6" y1="90.141" y2="381" gradientTransform="matrix(.37719 0 0 .37719 -4.0129 -1.8794)" gradientUnits="userSpaceOnUse">
   <stop stop-color="#61819e" offset="0"/>
   <stop stop-color="#082030" offset="1"/>
  </linearGradient>
 </defs>
 <path d="m175.02 10.111h466.19v153.87h-466.19z" fill="url(#linearGradient11617)" fill-rule="evenodd"/>
 <path d="m32.217 86.437c0-30.18 24.322-54.626 54.337-54.626 30.031 0 54.369 24.445 54.369 54.626 0 30.148-24.338 54.594-54.369 54.594-30.015 0-54.337-24.445-54.337-54.594" fill="url(#linearGradient11614)"/>
 <path d="m32.065 86.565c0-30.311 24.46-54.88 54.638-54.88 30.186 0 54.655 24.568 54.655 54.88 0 30.32-24.469 54.905-54.655 54.905-30.178 0-54.638-24.585-54.638-54.905m105.98 0c-8.2836-18.142-27.51-32.726-51.341-32.726s-43.049 14.584-51.333 32.726c8.2836 18.151 27.502 32.726 51.333 32.726s43.058-14.575 51.341-32.726" fill="url(#linearGradient11608)"/>
 <path d="m57.477 86.29c0-16.077 12.956-29.1 28.946-29.1 15.998 0 28.963 13.022 28.963 29.1 0 16.06-12.965 29.083-28.963 29.083-15.989 0-28.946-13.022-28.946-29.083" fill="url(#linearGradient11608)"/>
 <path d="m142.56 86.473c0 30.961-24.987 56.06-55.81 56.06s-55.81-25.099-55.81-56.06 24.987-56.06 55.81-56.06 55.81 25.099 55.81 56.06z" fill="none" stroke="url(#linearGradient11605)" stroke-width="3"/>
 <path d="m174.6 15.961h466.24v144.67h-466.24z" fill="none" stroke="url(#linearGradient11602)" stroke-width="3"/>
 <path d="m0 0v174.25h662.4v-174.25zm175.03 15.098h466.17v145.6h-466.17zm-88.281 15.777c30.823 0 55.812 25.101 55.812 56.062s-24.989 56.062-55.812 56.062-55.812-25.101-55.812-56.062 24.989-56.062 55.812-56.062z" fill="url(#linearGradient11599)" fill-rule="evenodd"/>
 <path d="m264.53 72.331c3.8856 0 6.0134-2.1278 6.0134-5.5104 0-3.238-2.3533-5.2906-5.7937-5.2906h-11.512v10.801zm-11.292-19.116h10.558c3.5907 0 5.9382-2.203 5.9382-5.5161 0-3.0819-2.4227-5.0709-5.4988-5.0709h-10.998zm20.156 3.7526c4.5448 0.36427 9.4538 3.8972 9.4538 11.321 0 8.1644-5.4872 13.819-16.202 13.819h-25.511v-49.252h25.441c9.0143 0 14.895 5.3658 14.895 13.455 0 6.7651-4.776 9.9973-8.0776 10.367z" fill="url(#linearGradient11652)"/>
 <path d="m480.45 57.554c0-8.4535-6.0712-14.692-14.068-14.692-7.9851 0-14.074 6.2389-14.074 14.692 0 8.3899 6.0886 14.559 14.074 14.559 7.9967 0 14.068-6.1695 14.068-14.559m12.108 0c0 14.334-11.512 25.649-26.176 25.649-14.669 0-26.17-11.316-26.17-25.649 0-14.397 11.501-25.794 26.17-25.794 14.663 0 26.176 11.397 26.176 25.794" fill="url(#linearGradient11652)"/>
 <path d="m571.1 43.443v38.665h-12.033v-38.665h-15.901v-10.587h43.84v10.587z" fill="url(#linearGradient11652)"/>
 <path d="m417.17 55.578h-10.714v-12.345h10.714c4.6315 0 7.4589 2.3938 7.5399 6.1753-0.0809 3.7757-2.9084 6.1695-7.5399 6.1695m1.3877-22.724h-24.181v49.258h12.079v-16.167h12.102c11.079 0 18.04-6.6552 18.04-16.537 0-9.8932-6.9617-16.554-18.04-16.554" fill="url(#linearGradient11652)"/>
 <path d="m509.59 43.229h10.714c4.6199 0 7.4647 2.3996 7.5341 6.1695-0.0693 3.7873-2.9142 6.1811-7.5341 6.1811h-10.714zm32.935 38.885-14.877-16.89c7.5456-1.989 12.09-7.8463 12.09-15.826 0-9.8874-6.9675-16.543-18.04-16.543h-24.198v49.258h12.09v-16.161h4.1573l14.178 16.161z" fill="url(#linearGradient11652)"/>
 <path d="m227.91 66.809c-4.0475 3.6832-7.7423 5.3196-11.975 5.3196-7.6613 0-13.432-6.2389-13.432-14.513v-0.26598c0-8.2684 5.7706-14.513 13.432-14.513 4.2325 0 7.9273 1.6479 11.975 5.3196l0.46257 0.43366 7.5688-8.7541-0.41054-0.41054c-5.3774-5.3022-11.397-7.6671-19.532-7.6671-14.744 0-25.858 11.067-25.858 25.725v0.012c0 14.652 11.113 25.713 25.858 25.713 8.1354 0 14.155-2.3591 19.532-7.6613l0.41054-0.41053-7.5688-8.7484-0.46257 0.4221z" fill="url(#linearGradient11652)"/>
 <path d="m314.54 52.98-10.165-2.3475c-3.0819-0.68807-3.9492-2.1683-3.9376-4.1516 0.0173-2.7928 2.5962-4.9784 6.6321-4.9495 3.7352 0.01739 7.3549 2.1741 8.3783 6.4471l11.512-3.8567c-2.4748-7.7307-9.8123-12.299-19.682-12.362-11.495-0.08095-19.457 5.8168-19.538 15.363-0.0578 8.9739 6.077 12.692 13.108 14.363l10.246 2.2666c3.5098 0.76903 4.5332 2.1625 4.5216 4.3771-0.0232 3.0067-2.7581 5.0536-7.297 5.0189-4.724-0.0347-8.1181-2.122-9.448-6.7882l-12.166 4.0764c2.2839 8.1759 10.732 12.703 20.879 12.773 10.928 0.06937 20.278-5.2964 20.347-15.808 0.0521-7.7885-4.9032-12.455-13.391-14.421" fill="url(#linearGradient11652)"/>
 <path d="m375.11 52.98-10.165-2.3475c-3.0819-0.68807-3.9492-2.1683-3.9376-4.1516 0.0174-2.7928 2.5962-4.9784 6.6321-4.9495 3.7352 0.01739 7.3548 2.1741 8.3783 6.4471l11.512-3.8567c-2.4747-7.7307-9.8122-12.299-19.682-12.362-11.495-0.08095-19.457 5.8168-19.538 15.363-0.0578 8.9739 6.077 12.692 13.108 14.363l10.246 2.2666c3.5098 0.76903 4.5332 2.1625 4.5216 4.3771-0.023 3.0067-2.7581 5.0536-7.297 5.0189-4.724-0.0347-8.1181-2.122-9.448-6.7882l-12.166 4.0764c2.2839 8.1759 10.732 12.703 20.879 12.773 10.928 0.06937 20.278-5.2964 20.347-15.808 0.052-7.7885-4.9032-12.455-13.391-14.421" fill="url(#linearGradient11652)"/>
 <path d="m616.58 52.98-10.165-2.3475c-3.0818-0.68807-3.9492-2.1683-3.9376-4.1516 0.0174-2.7928 2.5962-4.9784 6.6321-4.9495 3.7353 0.01739 7.3549 2.1741 8.3783 6.4471l11.512-3.8567c-2.4748-7.7307-9.8123-12.299-19.682-12.362-11.495-0.08095-19.457 5.8168-19.538 15.363-0.0578 8.9739 6.077 12.692 13.108 14.363l10.246 2.2666c3.5098 0.76903 4.5332 2.1625 4.5216 4.3771-0.023 3.0067-2.758 5.0536-7.297 5.0189-4.724-0.0347-8.1181-2.122-9.448-6.7882l-12.166 4.0764c2.2839 8.1759 10.732 12.703 20.879 12.773 10.928 0.06937 20.278-5.2964 20.347-15.808 0.0521-7.7885-4.9033-12.455-13.391-14.421" fill="url(#linearGradient11652)"/>
 <path d="m318.08 102.26v38.665h-12.033v-38.665h-15.901v-10.587h43.84v10.587z" fill="url(#linearGradient11652)"/>
 <path d="m448.49 115.9c0-8.4535-6.0712-14.692-14.068-14.692-7.9851 0-14.074 6.2389-14.074 14.692 0 8.3899 6.0886 14.559 14.074 14.559 7.9967 0 14.068-6.1695 14.068-14.559m12.108 0c0 14.334-11.512 25.649-26.176 25.649-14.669 0-26.17-11.316-26.17-25.649 0-14.397 11.501-25.794 26.17-25.794 14.663 0 26.176 11.397 26.176 25.794" fill="url(#linearGradient11652)"/>
 <path d="m477.62 101.57h10.714c4.6199 0 7.4647 2.3996 7.5341 6.1695-0.0693 3.7873-2.9142 6.1811-7.5341 6.1811h-10.714zm32.935 38.885-14.877-16.89c7.5456-1.989 12.09-7.8463 12.09-15.826 0-9.8874-6.9675-16.543-18.04-16.543h-24.198v49.258h12.09v-16.161h4.1573l14.178 16.161z" fill="url(#linearGradient11652)"/>
 <path d="m239.51 140.11h-9.9823l-24.607-28.09v28.322h-12.072v-49.099h9.8662l24.84 29.366v-29.366h12.188z" fill="url(#linearGradient11652)"/>
 <path d="m246.71 91.356v48.987h37.601v-10.561h-25.767v-9.0525h24.14v-9.8658h-24.14v-8.9346h25.767v-10.573h-25.767z" fill="url(#linearGradient11652)" fill-rule="evenodd"/>
 <path d="m338.17 91.245h12.536l8.5894 31.34 8.4733-31.456h11.027l8.8216 31.456 8.5894-31.34h12.652l-14.277 49.099h-13l-8.1251-30.295-8.1251 30.179h-12.884z" fill="url(#linearGradient11652)"/>
 <path d="m546.08 91.345-16.679 19.519h-1.7445v-19.413h-12.105v49.058h12.105v-18.635h2.7228l15.924 18.529h15.689l-22.348-24.305 20.934-24.753z" fill="url(#linearGradient11652)" fill-rule="evenodd"/>
</svg>
