<svg width="1e3" height="1e3" version="1.0" xmlns="http://www.w3.org/2000/svg">
 <g transform="matrix(8.1903 0 0 8.8742 1153.8 153.48)">
  <path d="m-79.735-17.295c-34.057 0-61.141 25.326-61.141 56.174 0 31.186 27.083 56.512 61.141 56.512 34.237 0 60.955-25.326 60.955-56.507 6e-3 -30.848-26.718-56.179-60.955-56.179zm0 23.842c27.808 0 48.184 16.081 56.793 32.337-8.6085 16.504-28.985 32.67-56.793 32.67-27.988 0-48.19-16.166-56.793-32.664 8.6027-16.25 28.811-32.342 56.793-32.342zm0 2.5552c-18.116 0-32.88 13.357-32.88 29.776 0 16.667 14.765 29.945 32.88 29.945 18.116 0 32.695-13.278 32.695-29.935 0-16.419-14.579-29.787-32.695-29.787z"/>
 </g>
</svg>
