<svg width="800" height="738.66" version="1.1" xmlns="http://www.w3.org/2000/svg">
 <defs>
  <clipPath id="clipPath6748">
   <path d="m433.82 854.7h19.494v18h-19.494z"/>
  </clipPath>
  <clipPath id="clipPath6736">
   <path d="m432.08 854.7h22.979v18h-22.979z"/>
  </clipPath>
  <clipPath id="clipPath6720">
   <path d="m433.82 854.7h19.494v18h-19.494z"/>
  </clipPath>
 </defs>
 <g transform="translate(-227.82 99.052)">
  <g transform="matrix(41.039 0 0 -41.039 449.09 351.81)">
   <path d="m0 0-0.166 7e-3c-0.52 1e-3 -1.146 0.517-1.146 1.156v1.664c0 0.64 0.626 1.155 1.146 1.157l0.166 6e-3 0.166-6e-3c0.468-2e-3 1.173-0.463 1.173-1.157l-2e-3 -0.247h-0.898v0.154c0 0.208-0.221 0.365-0.365 0.365h-4e-3l-0.07 3e-3 -0.074-3e-3c-0.144 0-0.365-0.158-0.365-0.368v-1.472c0-0.209 0.221-0.367 0.365-0.367h4e-3l0.07-3e-3 0.074 3e-3c0.144 0 0.365 0.156 0.365 0.364v0.155h0.898l2e-3 -0.247c0-0.695-0.705-1.156-1.173-1.157z"/>
  </g>
  <g transform="matrix(41.039 0 0 -41.039 620.4 351.76)">
   <path d="m0 0h-0.874v1.534h-0.781v-1.534h-0.873v3.987h0.873v-1.547h0.781v1.547h0.874z"/>
  </g>
  <g transform="matrix(41.039 0 0 -41.039 686.84 351.81)">
   <path d="m0 0-0.166 7e-3c-0.52 1e-3 -1.146 0.517-1.146 1.156v1.664c0 0.64 0.626 1.155 1.146 1.157l0.166 6e-3 0.166-6e-3c0.468-2e-3 1.172-0.463 1.172-1.157v-0.247h-0.899v0.154c0 0.208-0.221 0.365-0.365 0.365h-4e-3l-0.07 3e-3 -0.074-3e-3c-0.144 0-0.365-0.158-0.365-0.368v-1.472c0-0.209 0.221-0.367 0.365-0.367h4e-3l0.07-3e-3 0.074 3e-3c0.144 0 0.365 0.156 0.365 0.364v0.155h0.899v-0.247c0-0.695-0.704-1.156-1.172-1.157z"/>
  </g>
  <g transform="matrix(41.039 0 0 -41.039 858.14 351.76)">
   <path d="m0 0h-0.874v1.534h-0.781v-1.534h-0.873v3.987h0.873v-1.547h0.781v1.547h0.874z"/>
  </g>
  <g transform="matrix(41.039 0 0 -41.039 391.91 100.68)">
   <path d="m0 0c0.908 0.472 2.541 0.686 3.836 0.784 6e-3 0.803 0.219 1.596 0.631 2.312 0.22 0.382 0.491 0.726 0.8 1.026-0.68 0.469-1.496 0.733-2.346 0.733-0.72 0-1.433-0.192-2.06-0.555-1.967-1.139-2.641-3.665-1.503-5.633 0.093-0.159 0.195-0.312 0.307-0.456 0.145 1.077 0.335 1.789 0.335 1.789" fill="#f58113"/>
  </g>
  <g transform="matrix(41.039 0 0 -41.039 -17576 35715)">
   <g clip-path="url(#clipPath6720)">
    <g transform="translate(450.32 869.65)">
     <path d="m0 0c-0.286 1.063-0.969 1.951-1.923 2.501-0.626 0.36-1.336 0.55-2.053 0.55-1.472 0-2.842-0.791-3.576-2.065-0.353-0.614-0.539-1.292-0.551-1.98 0.778 0.042 1.328 0.042 1.328 0.042s2.539 0 4.428-0.423c0.382 0.099 0.779 0.15 1.184 0.151h6e-3c0.446 0 0.878-0.063 1.288-0.179 0.037 0.465-6e-3 0.939-0.131 1.403" fill="#a32b9b"/>
    </g>
    <g transform="translate(449.32 867.83)">
     <path d="m0 0c0.013-0.049 0.498-1.899 0.498-4.135 0-0.55-0.029-1.076-0.074-1.557 0.277-0.28 0.521-0.596 0.722-0.944 0.222-0.384 0.387-0.79 0.493-1.209 0.421 0.201 0.81 0.474 1.149 0.814 0.777 0.779 1.205 1.815 1.204 2.916-3e-3 2.227-1.782 4.046-3.992 4.115" fill="#e51636"/>
    </g>
   </g>
  </g>
  <g transform="matrix(41.039 0 0 -41.039 -17576 35715)">
   <g clip-path="url(#clipPath6736)">
    <g transform="translate(449.96 860.9)">
     <path d="m0 0c-0.091 0.157-0.192 0.307-0.301 0.448-0.145-1.073-0.334-1.78-0.334-1.78-0.91-0.474-2.548-0.688-3.843-0.785-6e-3 -0.804-0.219-1.596-0.631-2.311-0.22-0.383-0.491-0.726-0.8-1.026 0.68-0.469 1.496-0.734 2.346-0.734 0.72 0 1.433 0.193 2.06 0.556 0.954 0.551 1.635 1.441 1.918 2.505 0.284 1.064 0.136 2.174-0.415 3.127" fill="#0098c9"/>
    </g>
   </g>
  </g>
  <g transform="matrix(41.039 0 0 -41.039 -17576 35715)">
   <g clip-path="url(#clipPath6748)">
    <g transform="translate(443.57 858.7)">
     <path d="m0 0s-2.547 0-4.438 0.425c-0.383-0.1-0.781-0.152-1.187-0.152h-6e-3c-0.446 0-0.878 0.062-1.288 0.179-0.037-0.466 6e-3 -0.939 0.131-1.403 0.286-1.064 0.969-1.952 1.923-2.501 0.626-0.36 1.336-0.551 2.053-0.551 1.472 0 2.842 0.792 3.576 2.066 0.353 0.613 0.539 1.291 0.551 1.979-0.771-0.042-1.315-0.042-1.315-0.042" fill="#fee901"/>
    </g>
    <g transform="translate(437.32 863.69)">
     <path d="m0 0c0 0.55 0.029 1.076 0.074 1.558-0.279 0.281-0.525 0.6-0.728 0.95-0.225 0.388-0.388 0.795-0.492 1.21-0.422-0.201-0.81-0.474-1.15-0.815-0.778-0.779-1.205-1.815-1.204-2.916 3e-3 -2.092 1.573-3.824 3.595-4.083l0.124-0.014 0.279-0.018c-0.012 0.046-0.498 1.89-0.498 4.128" fill="#4fbe37"/>
    </g>
   </g>
  </g>
 </g>
</svg>
