<svg width="800" height="252.78" version="1.1" viewBox="0 0 800 252.78" xmlns="http://www.w3.org/2000/svg">
 <g transform="matrix(19.629 0 0 19.629 -2.787 -176.66)" fill="#fff">
  <path d="m3.5889 18.868c-1.8592 0-3.4466-1.4023-3.4466-3.3982-0.01338-0.89597 0.33399-1.7597 0.96399-2.3969 0.62999-0.63722 1.4897-0.99443 2.3858-0.99127 1.4236 0 2.3077 0.60361 2.8629 1.4236l-1.3339 0.90399c-0.2534-0.38865-0.66198-0.78868-1.5005-0.78868-0.97375 0-1.566 0.80861-1.566 1.8507s0.60788 1.8578 1.6243 1.8578c0.85417 0 1.2812-0.38865 1.566-0.91538l1.3624 0.87694c-0.65913 1.1047-1.5745 1.5774-2.9184 1.5774z"/>
  <path d="m7.3159 12.179h1.7724v6.6226h-1.7724z"/>
  <path d="m12.148 15.5v3.3014h-1.6656v-6.7095c0-0.05837 0.02847-0.10677 0.14236-0.01993l4.1569 3.4281v-3.3213h1.6656v6.7194c0 0.0783-0.0299 0.10677-0.14236 0.01993z"/>
  <path d="m17.818 12.169h4.6424v1.4905h-2.8714v1.5389h2.3945v1.4108h-2.3945v0.70184l3.0081-0.01v1.4905h-4.7791z"/>
  <path d="m19.199 11.75 0.39007-1.7724h1.8308l-0.92535 1.7724z"/>
 </g>
 <g transform="matrix(19.629 0 0 19.629 -2.787 -176.66)" fill="#de1e2c">
  <path d="m22.778 12.052c0-0.05837 0.03844-0.06833 0.08826-0.01851l3.3982 3.2814 3.3583-3.2743c0.03986-0.03986 0.08826-0.0299 0.08826 0.01851v6.7323h-1.7695v-3.048l-1.6642 1.6457c-0.03986 0.03844-0.04983 0.03844-0.08826 0l-1.6357-1.6457v3.048h-1.7752z"/>
  <path d="m30.736 15.48c0-1.9931 1.6457-3.3882 3.559-3.3882s3.559 1.3923 3.559 3.3882-1.6457 3.3982-3.559 3.3982-3.559-1.4023-3.559-3.3982zm5.2973 0c0-1.0421-0.63208-1.8507-1.7425-1.8507-1.1104 0-1.7439 0.80861-1.7439 1.8507 0 1.0421 0.63351 1.8592 1.7439 1.8592 1.1104 0 1.7425-0.81715 1.7425-1.8592z"/>
  <path d="m38.906 12.169h1.7724v6.6226h-1.7724z"/>
  <path d="m40.899 10.105c5.76e-4 0.44752-0.26856 0.8513-0.68186 1.023-0.41329 0.17166-0.8893 0.07737-1.206-0.23887-0.31665-0.31624-0.41155-0.79213-0.24042-1.2056 0.17113-0.41351 0.57456-0.68317 1.0221-0.68317 0.61035-5e-7 1.1054 0.49437 1.1061 1.1047z"/>
  <path d="m24.126 20.305h0.20785v1.5546h-0.18792l-1.0207-1.1973v1.1973h-0.205v-1.5546h0.17653l1.0293 1.2072z"/>
  <path d="m25.44 20.282c0.21888-0.0061 0.43092 0.0766 0.58795 0.2292 0.15514 0.14817 0.24045 0.35499 0.2349 0.56944 0.0065 0.2152-0.08018 0.42273-0.23774 0.56944-0.16117 0.15213-0.37641 0.23361-0.59792 0.22636-0.21268 5e-3 -0.41826-0.07668-0.56944-0.22636-0.15396-0.14855-0.23732-0.35566-0.2292-0.56944-0.0051-0.21352 0.07838-0.41964 0.23062-0.56944 0.15439-0.1522 0.36411-0.23496 0.58083-0.2292zm0.0071 0.21212c-0.15906-0.0047-0.31321 0.0554-0.42708 0.16656-0.11394 0.11225-0.17543 0.26725-0.16941 0.42708-0.0036 0.1569 0.05768 0.30833 0.16941 0.41854 0.17155 0.17158 0.42979 0.22248 0.65362 0.12883s0.36887-0.31328 0.36711-0.55591c0.0025-0.15613-0.0593-0.30641-0.17083-0.41569-0.11123-0.11283-0.26444-0.17422-0.42281-0.16941z"/>
  <path d="m26.567 21.859v-1.5546h0.38295c0.13258-0.0072 0.26322 0.03429 0.36729 0.11674 0.09317 0.07812 0.14559 0.1945 0.14236 0.31604 0.0025 0.08313-0.02034 0.16505-0.06549 0.2349-0.04734 0.06604-0.11399 0.11577-0.19076 0.14236 0.05328 0.03797 0.10117 0.08299 0.14236 0.13382 0.0708 0.09427 0.13593 0.19267 0.19504 0.29469 0.05267 0.08826 0.09538 0.15517 0.12812 0.1993l0.07972 0.11104h-0.2591l-0.06549-0.1025-0.01424-0.01851-0.04271-0.06121-0.06691-0.11389-0.0726-0.12101c-0.03713-0.05402-0.07854-0.10496-0.12385-0.15233-0.0298-0.03215-0.06437-0.05952-0.1025-0.08115-0.04797-0.02068-0.10023-0.02947-0.15233-0.02562h-0.05552v0.67622zm0.28472-1.3652h-0.06549v0.49115h0.08257c0.0775 0.0046 0.15519-5e-3 0.2292-0.02847 0.04025-0.01872 0.07361-0.04959 0.09538-0.08826 0.02367-0.04008 0.03597-0.08585 0.03559-0.1324 6.56e-4 -0.04742-0.01272-0.09398-0.03844-0.13382-0.02537-0.03957-0.06357-0.06923-0.10819-0.08399-0.07515-0.01999-0.15296-0.02816-0.23062-0.0242z"/>
  <path d="m27.618 20.305h1.2741v0.19788h-0.53101v1.3567h-0.22066v-1.3567h-0.52246z"/>
  <path d="m30.199 20.305h0.21781v1.5546h-0.21781v-0.67622h-0.85417v0.67622h-0.21781v-1.5546h0.21781v0.67194h0.85417z"/>
  <path d="m31.702 20.296h0.15233l0.68476 1.566h-0.22351l-0.20358-0.45983h-0.65059l-0.18934 0.45983h-0.22351zm0.32885 0.90542-0.24913-0.56944-0.2292 0.56944z"/>
  <path d="m33.95 20.305h0.205v1.5546h-0.22066v-1.2101l-0.46837 0.60076h-0.04129l-0.47121-0.60076v1.2101h-0.21069v-1.5546h0.20642l0.50396 0.63778z"/>
  <path d="m34.517 20.305h0.86413v0.19788h-0.6449v0.47549h0.62496v0.20073h-0.62496v0.4826h0.66625v0.19788h-0.88406z"/>
  <path d="m35.67 21.859v-1.5546h0.38295c0.13258-0.0072 0.26322 0.03429 0.36729 0.11674 0.09052 0.0795 0.14024 0.19567 0.13524 0.31604 0.0025 0.08313-0.02034 0.16505-0.06549 0.2349-0.04734 0.06604-0.11399 0.11577-0.19076 0.14236 0.05362 0.03756 0.10156 0.08262 0.14236 0.13382 0.07189 0.09381 0.13752 0.19225 0.19646 0.29469 0.05267 0.08826 0.09538 0.15517 0.12812 0.1993l0.07972 0.11104h-0.2591l-0.06691-0.1025c-0.0036-0.0066-0.0079-0.01279-0.01281-0.01851l-0.04271-0.06121-0.06691-0.11389-0.0726-0.12101c-0.03713-0.05402-0.07854-0.10496-0.12385-0.15233-0.03003-0.0319-0.06456-0.05923-0.1025-0.08115-0.04802-0.02051-0.10024-0.0293-0.15233-0.02562h-0.05695v0.67622zm0.28472-1.3652h-0.06691v0.49115h0.08399c0.07703 0.0047 0.15426-5e-3 0.22778-0.02847 0.04067-0.01863 0.07451-0.04949 0.09681-0.08826 0.02324-0.0402 0.03505-0.08598 0.03417-0.1324 6.56e-4 -0.04742-0.01272-0.09398-0.03844-0.13382-0.02484-0.03948-0.06256-0.06915-0.10677-0.08399-0.07515-0.01999-0.15296-0.02816-0.23062-0.0242z"/>
  <path d="m37.048 20.305h0.2954v1.55h-0.2954z"/>
  <path d="m38.951 21.499v0.24486c-0.17007 0.09134-0.36077 0.13742-0.55378 0.13382-0.14921 0.0036-0.29666-0.03279-0.42708-0.10535-0.11912-0.06713-0.21759-0.1656-0.28472-0.28472-0.0691-0.1209-0.10495-0.25794-0.10392-0.39719-0.0034-0.21462 0.08274-0.42096 0.23774-0.56944 0.15574-0.15296 0.36688-0.23618 0.5851-0.23062 0.18469 0.0057 0.3663 0.04881 0.53385 0.1267v0.24059c-0.15749-0.09809-0.3384-0.15217-0.52389-0.1566-0.16169-0.0046-0.31834 0.05653-0.4342 0.16941-0.22933 0.23412-0.22933 0.60866 0 0.84278 0.11688 0.10714 0.27153 0.16347 0.42993 0.1566 0.19322-0.0024 0.38141-0.06185 0.54097-0.17083z"/>
  <path d="m39.793 20.296h0.15375l0.68333 1.566h-0.22351l-0.20215-0.45983h-0.65059l-0.19076 0.45983h-0.22351zm0.32316 0.90542-0.24771-0.56944-0.23062 0.56944z"/>
 </g>
</svg>
