<svg width="536.07pt" height="600pt" version="1.1" viewBox="0 0 1592.4 1784.7" xmlns="http://www.w3.org/2000/svg">
 <g stroke-width="2.265">
  <path d="m-0.48659 0h0.29446c-0.090602 0.0226-0.2265 0.0453-0.29446 0.0679z" fill="#0a5a9b"/>
  <path d="m1226.8 49.423c1.4723-1.5629 3.1031-2.9672 4.8925-4.1903 0.1133 65.709 0.023 131.44 0.045 197.15-0.1585 26.705 0.8154 53.432-1.6535 80.047-75.222 0.1359-150.42 0.0679-225.64 0.0453 74.067-91.055 148.22-182.04 222.36-273.05z" fill="#0a5a9b"/>
  <path d="m529.44 20.295c100.93-10.94 204.44-2.2424 301.14 29.287 71.598 23.171 140.32 57.759 197.51 107.16-75.335 93.025-150.65 186.03-226.05 279.01-14.995-16.784-32.458-31.439-52.073-42.56-39.185-22.333-85.007-31.122-129.81-29.559-48.88 1.2911-97.85 17.713-135.74 48.993-47.113 38.234-74.271 97.193-80.024 156.92-5.0737 54.361 2.0838 111.12 27.747 159.87 22.062 43.172 59.14 78.665 103.83 97.714 50.216 21.79 107.63 22.809 160.27 9.6944 45.527-11.438 87.521-37.554 116.06-75.064 81.021 88.133 162.06 176.24 243.06 264.4-33.342 32.662-71.598 60.092-112.39 82.652-70.601 38.891-148.18 64.939-227.84 77.034-98.62 14.859-200.71 11.189-296.88-16.104-79.367-22.333-154.77-60.182-217.87-113.5-59.14-49.446-106.98-111.94-140.84-181.11-39.638-79.05-57.532-167.5-60.024-255.5v-36.648c0.92867-22.311 2.2877-44.644 5.2323-66.819 16.897-134.57 83.354-263.09 186.03-352.15 94.09-82.04 215.18-130.1 338.67-143.72z" fill="#1b82ea"/>
  <path d="m1231.7 45.233c120.82 0.15855 241.61 0.0226 362.43 0.0679v1119.4h-363.92c-0.1359-280.75 0.068-561.48-0.1133-842.23 2.4689-26.614 1.495-53.342 1.6535-80.047-0.023-65.709 0.068-131.44-0.045-197.15z" fill="#1b82ea"/>
 </g>
 <g transform="matrix(2.265 0 0 2.265 -.48659 0)">
  <g fill="#0a5a9b">
   <path d="m504.58 595.77c12.47-1.88 25.86 0.02 36.52 7.04 8.77 5.64 14.98 14.96 17.01 25.17 2.35 12.03 0.38 25.24-6.94 35.28-7.74 10.92-21 17.01-34.17 17.66-12.67 0.84-26.01-2.72-35.5-11.42-16.58-14.98-18.06-43.53-3.14-60.15 6.71-7.54 16.34-12.04 26.22-13.58m4.92 24.89c-4.74 1.1-8.85 4.56-10.61 9.11-2.82 7.1-1.74 16.07 3.77 21.62 5.51 5.53 15.32 5.76 21.1 0.51 6.58-5.9 7.6-16.56 3.41-24.11-3.41-6.01-11.06-8.84-17.67-7.13z"/>
   <path d="m564.44 597.38c9.12-0.02 18.25 0 27.37-0.01 7.94 13.87 15.66 27.87 23.69 41.69-0.27-13.9-0.75-27.79-1.11-41.68 8.72-0.02 17.44-0.01 26.17 0 0.01 27.12 0 54.24 0.01 81.36-9.41-0.02-18.83 0.09-28.23-0.05-7.61-13.02-14.93-26.22-22.93-38.99 0.36 13.02 0.78 26.04 1.14 39.06-8.7-0.03-17.41 0-26.12-0.02 0.01-27.12 0-54.24 0.01-81.36z"/>
   <path d="m647.82 597.37h56.18v22.82h-30.3c-0.01 2.3-0.01 4.61-0.01 6.92 9.52 0.02 19.04 0 28.56 0.02 0 7.1 0 14.2-0.01 21.3-9.52 0.03-19.04-0.02-28.56 0.03 0 2.49 0.01 4.98 0.02 7.48 10.1 0 20.2-0.01 30.3 0v22.81c-18.73 0-37.45 0.01-56.18 0-0.01-27.13-0.02-54.25 0-81.38z"/>
  </g>
  <path d="m89.52 597.76c0.83 6.55 0.27 13.14 0.21 19.71-5.47 0.19-10.95 0.06-16.43 0.08 5.4-6.6 10.69-13.3 16.22-19.79z" fill="#0a5a9b"/>
  <path d="m23.03 600.13c16.47-8.04 37.62-6.27 52.09 5.19-5.43 6.89-10.8 13.89-16.68 20.4-6.58-7.65-20.54-6.77-25.93 1.86-4.82 7.7-3.57 19.33 3.93 24.91 7.01 5.08 17.57 3.48 23.15-3.02 5.73 6.52 11.77 12.77 17.54 19.25-17.74 16.24-48.82 16.73-65.65-1.12-5.46-5.94-9.34-13.51-10.4-21.54-0.09-5.7-0.22-11.41 0.08-17.1 2.2-12.34 10.56-23.39 21.87-28.83z" fill="#1b82ea"/>
  <path d="m89.48 597.35c9.03 0.05 18.05-0.01 27.08 0.03 0.01 27.12 0 54.24 0.01 81.36-8.89 0.07-17.78-0.08-26.67 0.09-0.36-20.45-0.02-40.91-0.17-61.36 0.06-6.57 0.62-13.16-0.21-19.71z" fill="#1b82ea"/>
  <path d="m124 597.28c9.1 0.24 18.22-0.05 27.33 0.15 7.78 13.89 15.6 27.77 23.53 41.59-0.05-13.92-0.99-27.82-0.9-41.73 8.65 0.17 17.31 0.05 25.96 0.07 0.05 27.11 0.03 54.22 0.01 81.34-9.41-0.07-18.81 0.08-28.21-0.08-7.56-13-14.99-26.1-22.81-38.94 0.12 13 0.75 26 1.04 39.01-8.69 0.01-17.39-0.03-26.08 0.02-0.01-27.14-0.27-54.3 0.13-81.43z" fill="#1b82ea"/>
  <path d="m207.2 597.37c19.41 0.02 38.83-0.04 58.25 0.03-0.03 7.59 0.01 15.19-0.02 22.78-10.77 0.01-21.53 0.01-32.3 0 0 2.31-0.01 4.62 0 6.93 9.5 0.03 19-0.02 28.5 0.03-0.03 7.1 0.05 14.21-0.04 21.32-9.48-0.05-18.97 0-28.45-0.03-0.01 2.5-0.02 5-0.01 7.5 10.76 0.02 21.53 0 32.3 0.01 0.04 7.58-0.05 15.15 0.05 22.73-19.42 0.2-38.86 0.03-58.29 0.08-0.01-27.13-0.01-54.25 0.01-81.38z" fill="#1b82ea"/>
  <path d="m272.61 597.5c12.01-0.31 24.03-0.04 36.05-0.14 4.35 12.73 8.62 25.49 12.94 38.23 0.68 1.92 1.1 3.98 2.3 5.68 4.33-14.56 8.67-29.13 12.8-43.75 12.41-0.36 24.85-0.03 37.27-0.17 0.06 27.14 0.03 54.28 0.01 81.41-8.94-0.01-17.88-0.02-26.83 0.01 0.19-15.37 0.63-30.74 0.74-46.11-0.3 0.52-0.89 1.57-1.18 2.09-4.94 14.67-9.67 29.41-14.72 44.04-6.47-0.11-12.95 0.06-19.42-0.09-4.06-12.69-8.26-25.32-12.38-37.98-0.97-2.77-1.59-5.68-3.03-8.25 0.32 15.38 0.71 30.76 1.31 46.12-8.61 0.29-17.25 0.24-25.85 0.03 0.11-27.04 0.12-54.08-0.01-81.12z" fill="#1b82ea"/>
  <path d="m411.05 597.29c9.73 0.24 19.47-0.1 29.2 0.18 10.48 27.14 21.24 54.17 31.78 81.28-9.98 0.01-19.97-0.01-29.95 0.01-1.46-3.97-2.87-7.96-4.29-11.93-8.63-0.03-17.27-0.01-25.9-0.02-1.4 3.97-2.7 7.97-4.09 11.95-9.69-0.02-19.38 0.01-29.07-0.01 10.64-27.2 21.34-54.4 32.32-81.46m7.43 48.51c4.38 0.01 8.76 0.02 13.15 0-2.16-6.6-4.31-13.19-6.49-19.78-2.35 6.55-4.43 13.19-6.66 19.78z" fill="#1b82ea"/>
 </g>
 <g transform="matrix(6.5068 0 0 6.5068 1876.2 -1442.4)" fill="#0a5a9b" aria-label="GLOBAL">
  <path d="m-232.29 495.88q-6.8 0-11.24-4.08t-4.44-10.8q0-6.68 4.4-10.8 4.44-4.16 10.96-4.16 3.28 0 6.28 1.08t4.88 2.96l-5.56 6.68q-1.88-2.28-5.04-2.28-2.44 0-4.28 1.84-1.8 1.84-1.8 4.68 0 3.12 1.6 4.92 1.6 1.76 4.88 1.76 1.44 0 2.24-0.4v-2.16h-4.56v-7.48h13v15.48q-2.04 1.2-5.16 2-3.08 0.76-6.16 0.76z"/>
  <path d="m-216.23 495.16v-28.32h9.6v20.16h9.4v8.16z"/>
  <path d="m-196.72 480.84q0-6.68 4.44-10.72 4.44-4.08 11.28-4.08t11.28 4.08q4.48 4.04 4.48 10.72 0 6.72-4.48 10.92t-11.28 4.2-11.28-4.2q-4.44-4.2-4.44-10.92zm10.12 0q0 2.76 1.56 4.56 1.6 1.76 4.04 1.76 2.4 0 4-1.76 1.6-1.8 1.6-4.56 0-2.72-1.6-4.4-1.56-1.68-4-1.68t-4.04 1.68q-1.56 1.68-1.56 4.4z"/>
  <path d="m-149.99 474.24h-2.36v3.48h2.56q2.28 0 2.28-1.88 0-1.6-2.48-1.6zm0.08 9.6h-2.44v3.84h2.84q1.16 0 1.84-0.52t0.68-1.44q0-1-0.92-1.44-0.88-0.44-2-0.44zm7.2-3.52v0.12q2.2 0.52 3.76 2.24t1.56 4.2q0 2.24-0.92 3.92-0.92 1.64-2.52 2.56t-3.48 1.36-4.08 0.44h-12.84v-28.32h11.64q11.04 0 11.04 7.52 0 4.36-4.16 5.96z"/>
  <path d="m-136.77 495.16 11.16-28.32h10.12l11.04 28.32h-10.36l-1.48-4.16h-9l-1.4 4.16zm18.36-11.44-2.28-7-2.32 7z"/>
  <path d="m-102.48 495.16v-28.32h9.6v20.16h9.4v8.16z"/>
 </g>
</svg>
