<svg width="800" height="267.61" version="1.0" xmlns="http://www.w3.org/2000/svg">
 <g transform="matrix(1.3162 0 0 1.3162 -61.061 -505.51)">
  <g transform="translate(.99959 .9989)" fill-rule="evenodd">
   <path d="m204.81 448.8h-49.497s-1.9794-27.274-26.517-27.274c-27.577 0-31.69 28.239-31.819 44.699-0.13181 16.832 0.30292 46.214 31.819 46.214 23.794 0 26.517-26.264 26.517-26.264h49.497s-4.5945 65.155-76.014 65.155c-67.873 0-83.612-49.583-83.398-85.105 0.2107-35.089 17.497-83.085 83.398-83.085 74.056 0 76.014 65.66 76.014 65.66z"/>
   <path d="m212.14 383.08v32.857h46.429v-32.857z"/>
   <path d="m212.86 430.93v116.43h45.357v-90.536h13.929s0.53571 61.316 0.53571 61.316c0 18.853 13.192 29.22 30.893 29.22h36.786v-32.5h-8.9286c-7.832 0-12.768-5.5579-12.768-10.357v-47.679h16.339s31.468 83.178 31.468 88.75c0 7.4468-10.04 8.9286-10.04 8.9286h-14.286v31.786h27.143s31.34 3.2312 43.571-25.714l35.357-103.75h15.862v61.316c0 22.83 12.545 29.22 31.638 29.22h35.714v-32.5h-10.357c-7.8168 0-10.714-5.1513-10.714-10.357v-47.679h20.714l31.786 90.536h51.786l38.571-116.43h-44.643l-19.643 71.965-20-71.965h-58.929v-36.25h-45.357v36.25h-51.071l-20 71.965-21.429-71.965h-53.393v-36.25h-45.536v36.25z"/>
  </g>
 </g>
</svg>
