<svg width="800" height="229.07" enable-background="new 0 0 409.765 117.33" version="1.1" viewBox="0 0 1771.1 507.1" xml:space="preserve" xmlns="http://www.w3.org/2000/svg">
<g transform="matrix(4.3222 0 0 4.3222 0 -.0025278)" fill="#faed56">
	<path class="letter-c" d="m71.105 86.056c-4.96 9-13.86 13.87-23.665 13.87-17.065 0-28.775-12.5-28.775-29.552 0-17.425 11.975-29.345 28.44-29.35 10.325 0 18.47 4.96 23.08 12.16l14.85-9.4c-8.275-11.5-20.185-19.935-37.93-19.935-27.625 1e-3 -47.105 19.735-47.105 46.501 0 26.765 18.64 46.979 47.44 46.979 26.835 0 38.3-21.555 38.3-21.555z"/>
	<path class="letter-l" d="m159.38 107.36-65.145 4.585v-89.705l17.84-1.255v73l47.305-3.33z"/>
	<path class="letter-e" d="m235.18 102.02-66.875 4.71v-89.729l66.34-4.67v16.399l-48.5 3.41v20.295l46.285-3.255v16.405l-46.285 3.27v19.875l49.035-3.45z"/>
		<path class="letter-o" d="m337.84 53.416c0 26.789-19.545 46.524-47.17 46.524s-47.102-19.735-47.102-46.524c0-26.791 19.5-46.531 47.102-46.531 27.6 0 47.17 19.74 47.17 46.531zm-75.625 0c0 17.43 12 29.35 28.455 29.35s28.465-11.92 28.465-29.35c0-17.431-11.924-29.355-28.459-29.355s-28.461 11.919-28.461 29.355z"/>
	<polygon class="tv" points="336.14 5.195 336.14 14.851 350.14 13.825 350.14 49 359.67 48.33 359.67 13.176 369.55 12.476 381.92 46.745 393.92 45.916 409.76 0 399.38 0.78 387.84 36.03 376.67 2.336"/>
</g>
</svg>
