<svg enable-background="new 0 0 800 125.8" version="1.1" viewBox="0 0 800 125.8" xml:space="preserve" xmlns="http://www.w3.org/2000/svg">
<path d="m54.4 0c7 0 13.8 1.5 20.4 4.6 3.1 1.4 5.2 2.2 6.4 2.2 0.9 0 2.3-0.2 4.2-0.6 0.6-0.2 1.3-0.3 2.1-0.3 2.5 0 4.7 1.2 6.6 3.5 4.6 5.6 6.9 12.5 6.9 20.8 0 5.8-2 10.1-6 12.8-2.2 1.4-4.6 2.2-7.3 2.2-2.5 0-4.5-0.5-6-1.6s-3-2.9-4.5-5.6c-2.1-3.8-3.8-6.5-5-8.2-1.3-1.7-2.9-3.2-4.8-4.5-4.7-3.3-9.6-4.9-14.7-4.9-5 0-8.9 1.8-11.8 5.4s-4.3 8.4-4.3 14.4c0 8.3 2.1 15.9 6.3 22.7 5.7 9.2 13.8 13.8 24.4 13.8 3.9 0 7.7-0.7 11.6-2s6.8-3 9-5c1.8-1.7 3.3-2.6 4.5-2.6 1.7 0 3.1 0.8 4.3 2.4 1.2 1.5 1.8 3.4 1.8 5.6 0 2.8-0.8 5.9-2.5 9.4s-3.7 6.2-6.1 8.2c-1 0.8-3.1 1.5-6.3 2.2-1.8 0.3-4.3 1.2-7.3 2.7-7.1 3.4-14.5 5.1-22.2 5.1-8 0-16-1.8-24-5.4-9.3-4.2-16.6-10.6-22-19.3-5.5-8.6-8.1-17.4-8.1-26.6 0-10.7 3.3-20.4 10-29.2 5.8-7.7 13.3-13.5 22.6-17.5 7-3.2 14.3-4.7 21.8-4.7zm96.1 28.6c8.8 0 16.5 2.3 23.2 6.9 4.8 3.3 8.6 7.5 11.5 12.8 3 5.5 4.5 11.2 4.5 17.2 0 10.4-4.8 19.3-14.4 26.6-9.1 7-19.6 10.5-31.4 10.5-11.5 0-20.8-3.3-27.9-9.8-6.9-6.3-10.4-14.6-10.4-24.8 0-11.4 4.2-20.6 12.7-27.9 8.8-7.7 19.6-11.5 32.2-11.5zm-5.8 16.7c-2.1 0-3.8 0.8-5.1 2.4-1.3 1.5-1.9 3.6-1.9 6.2 0 2.9 0.5 6.8 1.6 11.8s2.4 9.4 3.9 13.2c1.5 3.9 3.9 5.9 7.3 5.9 4.3 0 6.4-2.7 6.4-8.2 0-4-0.6-8.6-1.7-13.8s-2.4-9.3-3.9-12.6c-1.5-3.2-3.7-4.8-6.6-4.9zm85.1-16.1c2.7 0 4.1 1.9 4.1 5.8v1.2c-0.1 0.8-0.1 1.4-0.1 1.9 0 2.6 0.8 3.9 2.3 3.9 0.8 0 2.1-1 3.8-3.1 2.6-3 5.9-5.3 9.8-7.1s8-2.7 12.1-2.7c8 0 13.6 2.9 16.7 8.8 1.2 2.2 2.2 3.2 3 3.2 0.5 0 1.8-1 3.8-2.9 6.3-6.1 13.4-9.2 21.3-9.2 6.2 0 11.3 1.7 15.2 5.1 4.1 3.6 6.2 8.9 6.2 16 0 1.5 0 4.1-0.1 7.8-0.1 1.3-0.1 5-0.1 11.3 0 4 0 6.9-0.1 8.5 0 1-0.1 1.7-0.1 2.2 0 3.1 1 5.8 2.9 8.1 1.2 1.4 1.9 2.3 2.1 2.8 0.3 0.4 0.4 1 0.4 1.8 0 6.2-7.2 9.2-21.7 9.2-6.4 0-11.6-0.8-15.5-2.3s-5.8-3.6-5.8-6.1c0-1 0.1-1.7 0.4-2.2s1.2-1.9 2.8-4c1.5-2 2.2-8.5 2.2-19.7 0-6.5-0.5-11-1.4-13.6-1.1-3-3.2-4.6-6.4-4.6-1.6 0-3 0.5-4.3 1.5-1.2 1-2 2.2-2.4 3.7-0.4 1.7-0.7 6.4-0.7 13.9 0.1 8.1 0.4 13 0.7 14.7 0.4 1.7 1.6 4.1 3.7 7.2 0.5 0.7 0.7 1.6 0.7 2.7 0 5.7-7.5 8.6-22.4 8.6-9 0-15.1-0.7-18.2-2-2.5-1.1-3.8-2.9-3.8-5.6 0-1.2 0.1-2 0.4-2.5s1.4-1.6 3.2-3.3c1.1-1 1.7-2 2-2.8 0.3-0.9 0.6-2.5 0.7-4.9 0.3-5.3 0.5-10.6 0.5-16 0-9.4-2.4-14.1-7.2-14.1-3.6 0-5.8 2-6.4 6.1-0.6 3.8-0.9 9.2-0.9 16.3 0 5.3 0.1 8.8 0.3 10.4s0.8 3.3 1.8 5.1c1.2 2.1 1.7 3.8 1.7 5.1 0 3.1-2.2 5.3-6.6 6.5-4.8 1.3-10 1.9-15.7 1.9-7.4 0-12.9-0.6-16.3-1.7-3.5-1.2-5.2-3.1-5.2-5.6 0-1 0.2-1.8 0.7-2.5s1.5-1.7 3.2-3.2c2.2-2 3.4-4.7 3.8-8.2 0.5-6 0.8-12.1 0.8-18.6 0-4.6-0.2-7.7-0.7-9.5-0.4-1.8-1.4-3.3-2.9-4.4-1.4-1.1-2.4-2-2.8-2.5-0.4-0.6-0.6-1.4-0.6-2.4 0-3.2 2.5-5.8 7.6-7.6 12.3-4.2 21.4-6.4 27.5-6.4zm174.3 39h-33.9c-1.5 0-2.2 0.7-2.2 2 0 3.1 1.7 6.1 5 8.9 3.4 2.7 7.1 4.1 11 4.1 2.3 0 4.9-0.4 7.6-1.3 2.8-0.9 5.2-2 7-3.3 1.6-1.2 2.9-1.7 3.9-1.7 1.2 0 2.5 0.8 3.7 2.3s1.8 3.1 1.8 4.8c0 3.5-2.2 6.8-6.5 10-7.6 5.7-16.5 8.6-26.5 8.6-10.1 0-18.6-2.9-25.4-8.8-3.3-2.9-6.1-6.4-8.2-10.5-2.8-5.4-4.3-11.2-4.3-17.2 0-8.1 2.5-15.4 7.4-21.8 4.2-5.6 9.6-9.7 16.2-12.5 4.9-2.1 10.2-3.1 16-3.1 9.1 0 16.9 2.6 23.3 7.8 3.2 2.6 5.8 5.7 7.8 9.2 2.3 4 3.4 8 3.4 11.8 0 3.1-0.7 5.7-2 7.7s-3 3-5.1 3zm-32-13.5h7.3c3.1 0 4.6-1.4 4.6-4.3 0-2.6-0.7-4.7-2.2-6.4-1.5-1.6-3.4-2.4-5.8-2.4-2.7 0-4.8 1.1-6.4 3.2-1.4 2-2.2 4-2.2 6 0 1.4 0.3 2.5 1 3 0.7 0.6 1.9 0.9 3.7 0.9zm128.2-46.9v65.9c0 3.8 0.1 6.2 0.4 7.2 0.3 1.1 1.2 2.1 2.7 3.1 1.7 1.2 2.9 2.3 3.5 3.2s0.9 2 0.9 3.3c0 3.9-3.9 6.8-11.6 8.8-7 1.8-14 2.7-20.9 2.7-1.5 0-2.6-0.2-3-0.7-0.4-0.4-0.7-1.5-0.9-3.2-0.2-2.5-1.1-3.7-2.6-3.7-0.8 0-2.1 0.7-3.8 2.2-4.9 4-10.4 6-16.4 6-7.5 0-14.2-2.8-20.1-8.3-3.5-3.3-6.3-7.1-8.5-11.5-2.9-5.6-4.3-11.3-4.3-17.1 0-6.8 1.9-13.3 5.6-19.6 3.5-5.8 8.2-10.3 14.2-13.4 5-2.6 9.9-3.9 14.8-3.9 5.6 0 10.6 1.3 15 3.8 0.7 0.4 1.3 0.6 1.7 0.6 1.5 0 2.3-2.1 2.3-6.2 0-1.8-0.4-3.1-1.3-4-0.8-1-2.3-1.8-4.5-2.4-3-1-4.5-2.6-4.5-5.1 0-3.5 3.5-6.3 10.5-8.2 12.3-3.4 20.6-5.1 24.8-5.1 4-0.3 6 1.7 6 5.6zm-39.2 36.3c-3.1 0-5.6 1.7-7.4 5-2.5 4.4-3.7 10.3-3.7 17.5 0 6.5 1.2 11.5 3.5 14.8 1.7 2.4 4 3.6 6.9 3.6 3.1 0 5.4-1.8 6.8-5.4 1.4-3.7 2.2-9.5 2.2-17.6 0-7.4-0.8-12.3-2.5-14.8-1.3-2-3.3-3-5.8-3.1zm119.8 20.1-9.5 26.2c-2.4 6.5-4.7 11.8-7.2 15.9-2.4 4.1-5.1 7.7-8.1 10.5-6.3 6-13.8 9-22.6 9-7.1 0-12.9-1.9-17.3-5.6-3.4-2.9-5.1-6.6-5.1-11 0-3.7 1.2-6.8 3.5-9.3 2.4-2.6 5.3-3.8 8.8-3.8s6.3 1.2 8.4 3.5c1 1.1 1.7 2 2 2.8s0.8 2.6 1.5 5.4c0.5 2.1 1.7 3.2 3.6 3.2 1.5 0 2.7-0.6 3.8-1.9 1-1.3 1.5-2.9 1.5-4.8 0-2.3-1.3-6-3.8-11.3l-17.4-37c-1.8-3.9-3.2-6.3-4.1-7.2s-2.9-2.1-6.1-3.5c-1-0.4-1.8-1.1-2.5-2.2-0.7-1.2-1-2.3-1-3.3 0-4.3 4.3-7.2 12.8-8.7 5.7-1 12.2-1.5 19.4-1.5 5.1 0 9.1 0.5 12.1 1.6 3.9 1.4 5.9 3.8 5.9 7.1 0 1.2-0.6 2.6-1.7 4.3-1.1 1.5-1.6 2.9-1.6 4.1s0.2 2.4 0.7 3.6c0.5 1.3 1.6 3.4 3.2 6.4 1.8 3.4 3.4 5.1 4.8 5.1 1.5 0 3-1.5 4.6-4.4 1.6-3 2.4-5.9 2.4-8.6 0-2.2-0.6-4-1.8-5.4-1.8-2.2-2.7-4-2.7-5.6 0-2.5 1.6-4.4 4.9-5.8 3.3-1.5 7.7-2.2 13.1-2.2 10.2 0 15.3 2.5 15.3 7.4 0 1.8-0.5 3.2-1.6 4.3-1 1.1-2.9 2.1-5.6 3-2.3 0.9-4.1 2.3-5.5 4.3-1.9 2.6-4.3 8-7.1 15.4zm102.6-16.6v24.4c0 2.9 0.7 5.2 2.1 7.1 1.4 1.8 3.3 2.7 5.5 2.7 1.9 0 4.4-0.9 7.4-2.6 0.7-0.4 1.4-0.6 2.2-0.6 1.2 0 2.2 0.7 3.2 2.1s1.4 2.9 1.4 4.6c0 3-1.6 5.9-4.9 8.6-6.8 5.8-15.1 8.7-24.8 8.7-7.7 0-13.9-2.2-18.6-6.5-4.7-4.4-7-10.1-7-17.2v-33.5c0-1.1-0.1-1.8-0.4-2-0.2-0.3-0.9-0.4-2-0.4h-7.4c-1.4 0-2.3-0.2-2.7-0.6-0.4-0.5-0.6-1.6-0.6-3.2v-3.2c0-1.4 0.6-2.5 1.7-3.2l33.1-20.8c0.8-0.4 1.8-0.6 3-0.6h5.8c1.2 0 2 0.3 2.4 0.9 0.4 0.5 0.6 1.6 0.6 3.2v9.7c0 1.4 0.2 2.4 0.7 2.8s1.5 0.6 3 0.6h13.4c1.8 0 2.9 0.3 3.5 1 0.5 0.6 0.8 2 0.8 4.1v4.3c0 2.3-0.3 3.9-1 4.8s-1.9 1.3-3.7 1.3h-13.2c-1.3 0-2.3 0.2-2.7 0.7s-0.8 1.4-0.8 2.8zm101 3.7-18.7 36.4c-2.9 5.6-5.3 9.5-7.4 11.8-2 2.2-4.2 3.3-6.5 3.3s-4.1-0.8-5.5-2.5c-2.9-3.3-5.5-7-7.7-11.1l-20.5-38.9c-1.1-2.1-2.2-3.6-3.2-4.5-1-1-2.4-1.7-4.3-2.2-3.7-1.1-5.5-3-5.5-5.9s2.3-5.1 6.8-6.4 11.7-2 21.4-2c8.2 0 14.2 0.6 18 1.8 3.9 1.2 5.8 3 5.8 5.4 0 1.7-0.9 3.4-2.7 5-1.2 1.1-1.9 1.8-2.2 2.4-0.3 0.5-0.5 1.2-0.5 2 0 1.6 1.1 4.4 3.2 8.2 2.1 3.7 4.1 5.6 5.9 5.6 1.2 0 2.2-0.5 3-1.4s2.2-3.3 4.2-7.1c1.5-2.8 2.2-4.9 2.2-6.4 0-1.2-0.8-2.5-2.3-4.1-1.6-1.7-2.4-3.3-2.4-4.8 0-2.3 1.5-4 4.5-5 3.1-1 8.1-1.5 15.1-1.5 9.8 0 14.7 2.1 14.7 6.4 0 2.5-1.8 4.2-5.3 5.3-2.7 0.9-4.6 1.8-5.6 2.8-0.9 0.8-2.4 3.3-4.5 7.4z" fill="#334A8D"/>
<path d="m615.5 87.1c4.6 0 8.5 1.6 11.9 4.8s5.1 7.4 5.1 12.5c0 4.8-1.7 8.8-5.1 12.1-3.4 3.2-7.3 4.8-11.9 4.8s-8.5-1.6-11.9-4.8c-3.4-3.3-5.1-7.4-5.1-12.3 0-5 1.7-9.1 5.1-12.3 3.3-3.1 7.3-4.7 11.9-4.8z" fill="#EC1C24"/>
</svg>
