<svg width="751.36" height="177" enable-background="new 0 0 792 612" version="1.1" viewBox="0 0 751.36 177" xml:space="preserve" xmlns="http://www.w3.org/2000/svg"><path d="m3.3821 136.51h463.29v39.843h-463.29z" clip-path="url(#SVGID_2_)" fill="#94c947"/><path d="m695.44 121.78c30.878 0 54.923-17.86 54.923-60.783 0-1.9226-0.0463-3.7526-0.16215-5.5826h-54.019v22.562h20.454c-3.2198 11.443-10.192 18.323-21.033 18.439h-0.3243c-15.451-0.18531-23.095-14.038-23.095-35.418 0-21.844 7.4357-34.677 23.095-34.677h0.3243c10.957 0 17.883 6.3007 21.056 17.535h32.175c-5.8837-30.577-27.959-43.665-53.394-43.665-29.743 0-54.923 17.906-54.923 60.806s24.068 60.783 54.923 60.783" clip-path="url(#SVGID_41_)"/><path d="m172.6 0.0015891c-28.353 0-57.633 17.883-57.633 60.783s29.28 60.806 57.633 60.806c28.168 0 57.471-17.906 57.471-60.806s-29.303-60.783-57.471-60.783m0 96.271c-16.632 0-25.967-13.922-25.967-35.465 0-21.52 9.3352-34.654 25.967-34.654 16.447 0 25.805 13.134 25.805 34.654 0 21.543-9.3584 35.465-25.805 35.465" clip-path="url(#SVGID_41_)"/><path d="m294.53 0.0015891c-28.353 0-57.633 17.883-57.633 60.783s29.28 60.806 57.633 60.806c28.168 0 57.447-17.906 57.447-60.806s-29.303-60.783-57.447-60.783m0 96.271c-16.632 0-25.967-13.922-25.967-35.465 0-21.52 9.3352-34.654 25.967-34.654 16.447 0 25.805 13.134 25.805 34.654-0.0232 21.543-9.3584 35.465-25.805 35.465" clip-path="url(#SVGID_41_)"/><polygon transform="matrix(23.164 0 0 23.164 -4816.4 -1854.2)" points="226.59 85.199 228.14 85.199 226.49 82.638 227.9 80.141 226.34 80.141 224.97 82.636" clip-path="url(#SVGID_41_)"/><rect x="362.89" y="1.5999" width="31.851" height="117.81" clip-path="url(#SVGID_41_)"/><rect x="478.06" y="2.2253" width="31.666" height="117.14" clip-path="url(#SVGID_41_)"/><polygon transform="matrix(23.164 0 0 23.164 -4816.4 -1854.2)" points="231.88 85.197 231.88 82.368 231.89 82.368 233.82 85.197 235.09 85.197 235.09 80.141 233.84 80.141 233.84 82.977 233.82 82.977 231.97 80.141 230.62 80.141 230.62 85.197" clip-path="url(#SVGID_41_)"/><path d="m55.085 96.458h-0.3243c-15.451-0.18532-23.095-14.061-23.095-35.441 0-21.844 7.4357-34.677 23.095-34.677h0.3243c10.957 0 17.883 6.3007 21.056 17.535h32.175c-5.8837-30.577-27.959-43.642-53.394-43.642-29.766 0-54.923 17.883-54.923 60.783s24.068 60.783 54.923 60.783c27.102 0 48.946-13.783 53.88-46.166h-32.059c-2.8955 12.903-10.1 20.709-21.659 20.825" clip-path="url(#SVGID_41_)"/><polygon transform="matrix(23.164 0 0 23.164 -4816.4 -1854.2)" points="231.63 87.655 231.63 85.907 231.33 85.907 231.33 86.604 230.54 86.604 230.54 85.907 230.25 85.907 230.25 87.655 230.54 87.655 230.54 86.877 231.33 86.877 231.33 87.655" clip-path="url(#SVGID_41_)"/><path d="m569.45 135.65-14.339 40.63h6.3934l3.3357-9.6132h15.381l3.2662 9.6132h7.0188l-14.339-40.63h-6.7176zm-2.5481 24.994 5.6289-16.4h0.11583l5.5131 16.4h-11.258z" clip-path="url(#SVGID_41_)"/><polygon transform="matrix(23.164 0 0 23.164 -4816.4 -1854.2)" points="235.11 87.655 235.11 85.907 234.84 85.907 234.84 87.154 234.83 87.154 234.01 85.907 233.71 85.907 233.71 87.655 233.98 87.655 233.98 86.382 233.98 86.382 234.84 87.655" clip-path="url(#SVGID_41_)"/><polygon transform="matrix(23.164 0 0 23.164 -4816.4 -1854.2)" points="236.97 87.655 236.97 85.907 236.7 85.907 236.7 87.154 236.69 87.154 235.87 85.907 235.57 85.907 235.57 87.655 235.84 87.655 235.84 86.382 235.84 86.382 236.7 87.655" clip-path="url(#SVGID_41_)"/><polygon transform="matrix(23.164 0 0 23.164 -4816.4 -1854.2)" points="238.6 87.654 238.6 87.385 237.72 87.385 237.72 86.877 238.34 86.877 238.34 86.615 237.72 86.615 237.72 86.181 238.56 86.181 238.56 85.906 237.43 85.906 237.43 87.654" clip-path="url(#SVGID_41_)"/><polygon transform="matrix(23.164 0 0 23.164 -4816.4 -1854.2)" points="240.06 87.654 240.06 87.385 239.25 87.385 239.25 85.907 238.95 85.907 238.95 87.654" clip-path="url(#SVGID_41_)"/><path d="m494.58 170.77c-6.7871-0.0463-10.864-5.3278-10.864-14.941 0-9.1267 4.0538-14.501 10.818-14.547 5.0035 0 7.4357 2.8724 8.9646 7.9917h7.0883c-2.0848-9.2889-7.621-14.246-15.983-14.269h-0.0464c-10.146 0.0232-17.721 7.3431-17.721 20.894 0 13.922 7.3662 21.08 17.721 21.103h0.0464c8.7329 0 14.269-5.1193 16.122-15.057h-7.042c-1.413 5.6984-3.9148 8.8024-9.1036 8.8256" clip-path="url(#SVGID_41_)"/></svg>
