<svg width="800" height="174.24" version="1.1" viewBox="0 0 800 174.24" xml:space="preserve" xmlns="http://www.w3.org/2000/svg"><g transform="matrix(1.3333 0 0 -1.3333 411.44 727.58)"><g transform="matrix(10.248 0 0 10.248 -201.52 519.1)"><path d="m0 0c-1.073 1.104-2.57 1.687-4.331 1.687-0.072 0-0.144-1e-3 -0.217-3e-3h-8e-3c-3.282-0.177-6.031-2.923-5.885-5.878 0.024-0.978 0.404-2.474 2.073-4.047 1.149-1.084 2.438-1.743 3.205-1.916l0.214 0.535c-1.498 0.834-2.54 1.821-3.098 2.934-0.497 0.991-0.549 1.944-0.538 2.663v0.016c-0.087 2.06 1.447 4.382 4.076 4.545 0.064 1e-3 0.127 2e-3 0.189 2e-3 1.811 0 3.172-0.783 3.833-2.205 0.699-1.505 0.452-3.503-0.573-4.644-0.541-0.586-1.265-0.909-2.04-0.909-1.303 0-2.454 0.875-2.8 2.127l-4e-3 0.013c-0.243 0.74-0.21 1.863 0.324 2.578 0.402 0.538 1.024 0.768 1.835 0.679 1.07-0.18 1.382-1.051 1.317-1.807-0.068-0.798-0.572-1.623-1.297-1.623-0.094 0-0.191 0.014-0.288 0.041l-0.202-0.544c0.356-0.153 0.738-0.234 1.102-0.234 1 0 2.083 0.63 2.123 2.404 0 1.39-1.111 2.868-3.17 2.868-0.027 0-0.055-1e-3 -0.08-1e-3 -1.445-0.011-3.089-1.065-3.437-3.062-0.361-2.185 1.531-4.114 3.453-4.479 0.294-0.057 0.598-0.085 0.906-0.085 2.287 0 4.734 1.621 4.869 4.333 0.061 1.106-0.315 2.74-1.551 4.012" fill="#e37c26"/></g><g transform="matrix(10.248 0 0 10.248 2853.9 -3838.1)" fill="#fff"><g transform="translate(-289.86 423.54)"><path d="m0 0c-0.03 0.532-0.651 0.857-1.227 0.857-1.515 0-1.833-1.3-1.833-2.513 0-1.167 0.288-2.616 1.757-2.616 0.667 0 1.303 0.488 1.303 1.123h1.56c0-1.567-1.56-2.394-2.969-2.394-2.242 0-3.211 1.877-3.211 3.873 0 1.98 1.136 3.799 3.348 3.799 1.408 0 2.605-0.68 2.832-2.129z" fill="#fff"/></g><g transform="translate(-285.08 424.72)"><path d="m0 0h0.03c0.47 0.606 1.167 0.946 1.97 0.946 1.333 0 2.302-0.931 2.302-2.247v-0.295h-1.56v0.221c0 0.577-0.288 1.183-0.955 1.183-1.484 0-1.787-1.449-1.787-2.572v-3.829h-1.56v7.406h1.56z" fill="#fff"/></g><g transform="translate(-278.62 421.53)"><path d="m0 0c-0.076-1.345 0.818-2.262 2.212-2.262 0.454 0 1.03 0.045 1.197 0.518h1.545c-0.076-1.405-1.636-1.789-2.818-1.789-2.409 0-3.696 1.478-3.696 3.784 0 2.203 1.106 3.888 3.499 3.888 2.378 0 3.302-1.523 3.302-3.681v-0.458zm3.681 1.271c-0.015 0.991-0.772 1.597-1.772 1.597-0.955 0-1.848-0.606-1.909-1.597z" fill="#fff"/></g><g transform="translate(-266.79 418.84)"><path d="m0 0c-0.591-0.547-1.394-0.843-2.197-0.843-1.469 0-2.726 0.784-2.726 2.292 0 1.921 1.848 2.498 3.514 2.498h1.409v0.266c0 0.843-0.121 1.463-1.409 1.463-0.803 0-1.621-0.118-1.621-0.842h-1.56c0.106 1.641 1.712 1.995 3.105 1.995 2.197 0 3.045-0.753 3.045-2.926v-4.613h-1.56zm-1.621 2.794c-0.848 0-1.742-0.311-1.742-1.286 0-0.769 0.561-1.198 1.318-1.198 1.378 0 2.045 1.02 2.045 2.232v0.252z" fill="#fff"/></g><g transform="translate(-260.69 425.67)"><path d="m0 0h2.71v-1.271h-2.71v-3.711c0-0.695 0.121-1.419 1.014-1.419 0.53 0 1.272 0.266 1.696 0.577v-1.405c-0.484-0.28-1.151-0.443-1.726-0.443-1.832 0-2.544 1.183-2.544 2.838v3.563h-1.559v1.271h1.559v1.685l1.56 0.399z" fill="#fff"/></g><g transform="translate(-255.28 421.53)"><path d="m0 0c-0.076-1.345 0.819-2.262 2.213-2.262 0.455 0 1.03 0.045 1.197 0.518h1.546c-0.076-1.405-1.637-1.789-2.819-1.789-2.41 0-3.698 1.478-3.698 3.784 0 2.203 1.106 3.888 3.501 3.888 2.38 0 3.304-1.523 3.304-3.681v-0.458zm3.683 1.271c-0.015 0.991-0.773 1.597-1.773 1.597-0.955 0-1.849-0.606-1.91-1.597z" fill="#fff"/></g></g></g></svg>
