<svg width="800" height="379.67" enable-background="new 0 0 377 187" version="1.1" viewBox="0 0 800 379.67" xml:space="preserve" xmlns="http://www.w3.org/2000/svg">
<g transform="matrix(2.1922 0 0 2.1922 -11.971 -15.613)">
	<g clip-rule="evenodd" fill-rule="evenodd">
		<path d="m221.78 50.975c-6.706 7.072-12.956 13.791-19.371 20.347-0.805 0.823-2.29 2.464-2.29 2.464l0.048 13.495s6.323-0.07 8.969-0.07c0 1.409 0 2.516 1e-3 3.624 2e-3 12.058-0.093 24.116 0.066 36.171 0.048 3.703 0.48 7.466 1.284 11.081 1.868 8.402 7.46 13.128 15.786 14.618 8.368 1.498 16.567 0.617 24.592-2.172 1.205-0.418 2.662-1.279 2.662-1.279s9e-3 -22.848-0.028-23.523c-3.387 0.444-6.561 1.171-9.741 1.204-4.714 0.049-7.217-1.725-7.364-6.393-0.328-10.417 0.091-20.952-0.051-31.375-9e-3 -0.689-0.093-1.932-0.093-1.932h17.419l0.048-20.003s-12.198 0.073-17.125 0.073v-11.703c5.24 1.844 10.18 3.521 15.075 5.323 5.204 1.915 10.331 4.042 15.559 5.886 2.175 0.768 2.794 1.954 2.777 4.212-0.184 24.974-0.352 78.998-0.352 78.998l26.417-0.048s0.144-68.56 0.144-70.06c0.486 0.159 9.985 4.639 20.817 11.103 12.061 7.198 25.932 16.793 34.162 24.302 6.749 6.157 12.85 12.885 16.625 21.366 5.276 11.852 2.393 22.224-8.281 29.638-8.596 5.971-18.437 8.76-28.551 10.643-24.791 4.613-49.698 3.842-74.629 1.365-42.368-4.211-83.515-13.916-123.71-27.773-29.917-10.316-58.821-22.875-85.46-40.178-11.832-7.686-23.027-16.18-32.003-27.229-4.438-5.464-8.122-11.355-9.358-18.471-1.449-8.344 1.468-15.061 7.759-20.404 7.814-6.638 17.282-9.69 27.046-11.885 19.301-4.34 38.893-4.69 58.534-3.768 40.253 1.89 79.46 9.752 118.07 20.94 1.363 0.393 2.712 0.841 4.542 1.413zm-32.538 40.245c0-6.107 0.109-20.688 0.109-20.688s-1.96-0.839-3.088-1.272c-10.553-4.053-29.876-3.752-41.022 10.896-9.415 12.373-10.515 26.446-7.525 40.977 5.322 25.869 28.085 33.056 48.269 26.891 1.117-0.341 3.031-1.114 3.031-1.114v-22.348s-4.012 1.23-5.646 1.582c-9.274 1.994-17.097-1.719-19.381-9.835-1.087-3.86-1.47-8.177-1.029-12.161 1.409-12.75 11.51-18.505 23.525-13.831 0.765 0.297 1.561 0.513 2.757 0.903z" fill="#0270bb"/>
		<path d="m280.52 45.132c-1.438-0.208-2.974-0.305-4.446-0.665-5.4-1.323-7.921-5.65-6.059-10.896 0.881-2.476 2.153-4.978 3.833-6.976 8.938-10.631 20.166-17.436 34.077-19.301 2.415-0.323 4.988-0.168 7.396 0.274 5.466 1.002 8.345 5.572 6.135 10.659-1.711 3.939-4.173 7.82-7.166 10.882-9.186 9.397-20.393 14.958-33.77 16.023z" fill="#d54632"/>
	</g>
</g>
</svg>
