<svg width="1e3" height="260.34" version="1.2" xmlns="http://www.w3.org/2000/svg">
 <g transform="matrix(.69271 0 0 .69271 -4.5673 -148.06)" stroke-linecap="square" stroke-linejoin="bevel">
  <g transform="matrix(3.2967 0 0 3.2967 0 203.85)" fill="#005fff">
   <path d="m123.1 6h106.2v108h-106.2v-108" fill-rule="evenodd"/>
  </g>
  <g transform="matrix(3.2967 0 0 3.2967 0 203.85)" fill="#eb0000">
   <path d="m116 60c0 31.48-25.52 57-57 57s-57-25.52-57-57 25.52-57 57-57 57 25.52 57 57"/>
  </g>
  <g transform="matrix(3.2967 0 0 3.2967 0 203.85)" fill="#23be19">
   <path d="M 234.2,6 298.1,116.9 362,6 H 234.2"/>
  </g>
  <g transform="matrix(3.2967 0 0 3.2967 0 203.85)" fill="#fff">
   <path d="m82.6 73.8c-4.8 8.1-13.6 13.6-23.6 13.6-15.1 0-27.4-12.3-27.4-27.4s12.3-27.4 27.4-27.4c10.1 0 18.9 5.5 23.7 13.6l8.1-4.7c-6.4-10.9-18.3-18.3-31.8-18.3-20.3 0-36.8 16.5-36.8 36.8s16.4 36.8 36.8 36.8c13.6 0 25.4-7.4 31.8-18.3l-8.2-4.7"/>
  </g>
  <g transform="matrix(3.2967 0 0 3.2967 0 203.85)" fill="#fff">
   <path d="m210 24.8h-67.5v9.4h28.9v61h9.7v-61h28.9v-9.4"/>
  </g>
  <g transform="matrix(3.2967 0 0 3.2967 0 203.85)" fill="#fff">
   <path d="m338.6 24.8h-11.2l-29.3 51.4-29.3-51.4h-11.2l40.5 70.4 40.5-70.4"/>
  </g>
 </g>
 <path d="m829.81 62.954 37.336 9.0424c5.01-19.495 22.313-33.326 40.472-33.326 22.813 0 43.664 17.004 43.664 43.377 0 19.92-19.576 38.23-34.96 56.308l-103.05 119.28h186.73l-21.157-36.853h-84.481l74-85.633c12.352-14.479 21.49-33.194 21.49-55.42 0-37.124-30.216-77.883-80.338-77.883-41.471 0-67.923 25.272-79.705 61.109z" fill="#eb0000"/>
</svg>
