<svg width="800" height="332.6" version="1.1" viewBox="0 0 800 332.6" xmlns="http://www.w3.org/2000/svg">
 <g transform="scale(6.3548)" fill="#e01362">
  <path transform="translate(4.866e-5 -.31462)" d="m-4.866e-5 0.31462v8.9123c9.5605 0 17.312 7.7253 17.312 17.257 0 9.5312-7.7514 17.258-17.312 17.258v8.9103c14.476 0 26.252-11.739 26.252-26.168 0-14.43-11.776-26.17-26.252-26.17"/>
  <path d="m46.513 14.717c-10.404 0-18.869 8.4388-18.869 18.811 0 10.372 8.4652 18.811 18.869 18.811 2.9599 0 5.7525-0.69899 8.2472-1.918v-10.93c-1.8578 2.5442-4.8576 4.2071-8.2472 4.2071-5.6255 0-10.202-4.5621-10.202-10.171 0-5.6079 4.5769-10.169 10.202-10.169 5.626 0 10.202 4.5612 10.202 10.169v18.248h8.6671v-18.248c0-10.372-8.4647-18.811-18.869-18.811"/>
  <path d="m86.194 14.717c-2.9599 0-5.7525 0.69899-8.2467 1.919v10.929c1.8573-2.5428 4.8571-4.2061 8.2467-4.2061 5.626 0 10.202 4.5612 10.202 10.169 0 5.6084-4.5764 10.171-10.202 10.171s-10.202-4.5621-10.202-10.171v-33.527h-8.6671v33.527c0 10.372 8.4652 18.811 18.869 18.811s18.869-8.4388 18.869-18.811c0-10.372-8.4652-18.811-18.869-18.811"/>
  <path d="m115.69 33.528v-33.527h-8.6686v33.527c0 10.372 8.4662 18.811 18.871 18.811v-8.6401c-5.6255 0-10.202-4.5621-10.202-10.171"/>
 </g>
 <path class="logo__accent" d="m0.0015461 69.153v194.3c53.733 0 97.45-43.584 97.45-97.156 0-53.566-43.717-97.147-97.45-97.147" fill="#85e20f"/>
</svg>
