<svg width="800" height="246.69" version="1.1" viewBox="0 0 800 246.69" xmlns="http://www.w3.org/2000/svg">
 <path d="m429.76 105.06v-35.978c-1.2325-0.79141-2.852-1.4548-4.8407-1.9872-1.9904-0.53242-4.0062-0.80103-6.043-0.80103-9.3859 0-14.073 6.3724-14.073 19.122 0 6.1038 1.3717 11.02 4.1151 14.737 2.7464 3.7217 6.8152 5.5795 12.215 5.5795 1.7682 0 3.3989-0.0678 4.9128-0.20108 1.5092-0.12895 2.7416-0.28457 3.7138-0.46991zm0-52.437v-31.6l19.792-3.1847v100.77c-1.7712 0.53242-3.808 1.0408-6.1197 1.5251-2.2988 0.48608-4.7017 0.90157-7.2292 1.2631-2.5196 0.34861-5.0855 0.63143-7.6912 0.85851-2.6219 0.22228-5.1174 0.33244-7.5107 0.33244-5.7521 0-10.885-0.84256-15.394-2.5226-4.5194-1.6786-8.3244-4.0943-11.424-7.2388-3.0983-3.1366-5.4643-6.9415-7.1046-11.419-1.6355-4.4635-2.4604-9.4882-2.4604-15.061 0-5.664 0.70814-10.774 2.1279-15.338 1.4117-4.561 3.4531-8.4299 6.1134-11.621 2.6553-3.1829 5.9008-5.6129 9.7551-7.3013 3.8543-1.6786 8.2459-2.5211 13.211-2.5211 2.7416 0 5.1908 0.2638 7.3684 0.79622 2.1646 0.53067 4.3612 1.2869 6.5658 2.2588z" fill-rule="evenodd" stroke-width="21.856"/>
 <path d="m475.18 78.912c0.26228-1.6786 0.68738-3.3364 1.2646-4.9782 0.56914-1.6355 1.3925-3.0743 2.4492-4.3164 1.0648-1.2406 2.3917-2.2333 3.9936-2.991 1.5874-0.74814 3.4915-1.1254 5.704-1.1254 2.2973 0 4.2237 0.39975 5.7729 1.1958 1.5492 0.79141 2.8345 1.8112 3.8543 3.0518 1.0056 1.2486 1.7634 2.6601 2.2573 4.2556 0.47647 1.5874 0.7689 3.2293 0.86179 4.908zm13.143-29.742c-4.2493 0-8.3867 0.79928-12.414 2.3884-4.027 1.5955-7.5904 3.9391-10.687 7.0373-3.0966 3.0983-5.5939 6.9734-7.501 11.624-1.9024 4.6458-2.8601 10.064-2.8601 16.262 0 5.1334 0.73371 9.9181 2.1935 14.343 1.4628 4.4235 3.7201 8.2459 6.7785 11.475 3.0551 3.2373 6.9015 5.7808 11.547 7.637 4.641 1.8578 10.11 2.7897 16.402 2.7897 2.4732 0 4.9463-0.1355 7.4307-0.39975 2.4811-0.2638 4.7977-0.5947 6.9671-0.99445 2.1727-0.39167 4.1374-0.87294 5.9086-1.3957 1.7666-0.52914 3.1829-1.0646 4.2478-1.594l-2.6522-16.063c-2.2206 0.97195-5.0711 1.7905-8.5626 2.4588-3.4979 0.66356-7.0661 0.99446-10.69 0.99446-5.6721 0-10.182-1.1958-13.541-3.5827-3.37-2.39-5.266-5.6273-5.7106-9.6961h44.871c0.094-1.0568 0.18797-2.2748 0.27649-3.653 0.0787-1.3636 0.12458-2.6282 0.12458-3.7794 0-11.776-2.8664-20.692-8.6234-26.759-5.7582-6.0574-13.587-9.0933-23.504-9.0933z" fill-rule="evenodd" stroke-width="21.856"/>
 <path d="m418.28 188.87c-2.035 0-4.0447-0.25265-6.0334-0.7866-1.9983-0.53067-3.6098-1.1942-4.8569-1.9935v-35.715c0.97041-0.17703 2.2191-0.32303 3.7138-0.46357 1.5124-0.13332 3.1462-0.19015 4.9176-0.19015 5.3954 0 9.4723 1.8401 12.224 5.4995 2.7353 3.6786 4.1166 8.572 4.1166 14.674 0 12.658-4.7002 18.976-14.081 18.976m24.702-46.128c-3.1158-3.1381-6.9079-5.581-11.424-7.3011-4.5146-1.7314-9.648-2.593-15.397-2.593-2.3915 0-4.8967 0.11147-7.5089 0.3261-2.6042 0.22709-5.1812 0.51952-7.7008 0.87447-2.5196 0.35647-4.9222 0.76737-7.234 1.2565-2.2988 0.49242-4.3404 1.0023-6.1071 1.5332v92.002h19.779v-26.282c2.2191 0.97042 4.5164 1.7282 6.9031 2.2494 2.3915 0.53067 4.9574 0.80409 7.7072 0.80409 4.9511 0 9.3267-0.89851 13.135-2.6601 3.8143-1.7682 6.9975-4.2493 9.5568-7.4322 2.5738-3.1893 4.5179-6.9894 5.8592-11.419 1.3269-4.4252 1.9808-9.3348 1.9808-14.738 0-5.5714-0.81043-10.622-2.4604-15.127-1.6322-4.5164-3.9984-8.3563-7.0886-11.493" fill-rule="evenodd" stroke-width="21.856"/>
 <path d="m474.85 162.33c0.26053-1.6818 0.67951-3.3429 1.255-4.9767 0.57723-1.6355 1.3925-3.0791 2.4571-4.3179 1.0664-1.2421 2.3917-2.2366 3.9807-2.9816 1.6018-0.75622 3.4979-1.135 5.7185-1.135 2.2958 0 4.2237 0.40128 5.7648 1.1942 1.557 0.80256 2.8361 1.813 3.8528 3.0614 1.0152 1.2327 1.773 2.6538 2.2669 4.2493 0.47646 1.5874 0.7689 3.2244 0.86179 4.9063zm13.141-29.735c-4.2493 0-8.3851 0.79447-12.415 2.3836-4.0255 1.5955-7.5874 3.9391-10.684 7.0375-3.0983 3.0951-5.6018 6.9734-7.5059 11.613-1.8993 4.6569-2.8553 10.073-2.8553 16.268 0 5.1334 0.73371 9.9133 2.1917 14.34 1.4628 4.4316 3.7138 8.254 6.7719 11.483 3.0631 3.2341 6.9015 5.7777 11.554 7.637 4.641 1.8576 10.112 2.7897 16.396 2.7897 2.4811 0 4.9544-0.13988 7.437-0.40281 2.4732-0.26052 4.7977-0.59951 6.9686-0.99445 2.171-0.38839 4.131-0.86966 5.9007-1.3925 1.7745-0.53395 3.191-1.0648 4.2556-1.6018l-2.6522-16.056c-2.2206 0.97194-5.0711 1.7937-8.569 2.4571-3.5012 0.66181-7.0613 0.99446-10.686 0.99446-5.6721 0-10.18-1.1942-13.547-3.5842-3.3619-2.3948-5.266-5.6177-5.7025-9.6928h44.869c0.0852-1.0648 0.1814-2.275 0.26205-3.6546 0.094-1.3669 0.13988-2.6378 0.13988-3.7776 0-11.776-2.8824-20.693-8.6328-26.759-5.7488-6.0653-13.586-9.0885-23.498-9.0885z" fill-rule="evenodd" stroke-width="21.856"/>
 <polygon transform="matrix(21.856 0 0 21.856 -.00063947 8e-4)" points="26.41 9.3469 26.41 6.1514 25.504 6.1514 25.504 9.3469" fill-rule="evenodd"/>
 <path d="m628.58 188.49c-2.7513 0.43975-5.3093 0.66355-7.6993 0.66355-6.7289 0-11.438-1.7249-14.142-5.1797-2.7067-3.4515-4.0478-8.3244-4.0478-14.606 0-5.9248 1.434-10.711 4.31-14.335 2.8745-3.6305 7.2357-5.4483 13.079-5.4483 2.7416 0 5.223 0.26053 7.4418 0.79448 2.2094 0.53875 4.2493 1.1558 6.1053 1.8656l4.1151-15.803c-2.9257-1.239-5.9326-2.1869-9.0292-2.8505-3.1014-0.67142-6.5066-0.99446-10.222-0.99446-5.6688 0-10.714 0.97195-15.136 2.9128-4.4252 1.9504-8.1836 4.5865-11.282 7.9087-3.0999 3.3141-5.4643 7.2069-7.1061 11.677-1.6355 4.4698-2.4571 9.226-2.4571 14.273 0 5.2276 0.68104 10.076 2.0543 14.538 1.3813 4.4716 3.5475 8.3371 6.5066 11.619 2.9654 3.2693 6.7527 5.8671 11.352 7.7631 4.6025 1.912 10.094 2.8601 16.471 2.8601 4.1549 0 7.9614-0.35648 11.422-1.0648 3.4515-0.70989 6.318-1.5492 8.6234-2.5196l-2.7928-16.201c-2.3006 0.97041-4.82 1.6818-7.5666 2.1262" fill-rule="evenodd" stroke-width="21.856"/>
 <path d="m682.11 188.35c-1.2517 0.18141-2.6601 0.33899-4.2556 0.46685-1.5874 0.13332-3.0983 0.19452-4.5164 0.19452-4.5961 0-7.7393-1.4117-9.4178-4.2478-1.6818-2.828-2.5307-7.4385-2.5307-13.812v-36.506h-19.777v38.906c0 4.7769 0.48915 9.1556 1.4517 13.138 0.97829 3.9855 2.6219 7.4163 4.9144 10.289 2.3069 2.8824 5.426 5.1189 9.3586 6.7064 3.9472 1.5955 8.8776 2.39 14.815 2.39 5.8384 0 11.413-0.42532 16.721-1.255 5.3141-0.84409 9.6528-1.7522 13.013-2.7226v-67.453h-19.776z" fill-rule="evenodd" stroke-width="21.856"/>
 <path d="m781.01 189.95c-1.0568 0.17485-2.4763 0.31495-4.246 0.38839-1.7649 0.10272-3.6338 0.13988-5.5762 0.13988-3.6354 0-6.4858-0.59952-8.569-1.7856-2.0798-1.1975-3.1126-3.3477-3.1126-6.4443 0-1.594 0.35495-2.9224 1.0648-3.987 0.70989-1.0535 1.677-1.8945 2.9143-2.5196 1.239-0.62355 2.6794-1.0408 4.3131-1.2646 1.6434-0.21419 3.3892-0.3309 5.2582-0.3309 1.3157 0 2.7738 0.094 4.3771 0.26862 1.5874 0.1814 2.7816 0.35647 3.5763 0.53547zm17.534-40.626c-0.98004-3.546-2.6378-6.5529-4.9878-9.0262-2.3421-2.4796-5.461-4.3852-9.3556-5.7106-3.8992-1.335-8.7639-1.9887-14.609-1.9887-2.3006 0-4.5817 0.10928-6.8327 0.32304-2.2591 0.22708-4.4093 0.48761-6.4443 0.79622-2.0368 0.31495-3.9151 0.67142-5.6418 1.0679-1.7266 0.39494-3.1574 0.77371-4.3164 1.1271l2.5274 15.931c2.39-0.88562 5.2197-1.5618 8.4953-2.0591 3.2804-0.48433 6.5962-0.7289 9.9581-0.7289 5.047 0 8.5849 1.0183 10.618 3.0583 2.035 2.035 3.0535 4.7321 3.0535 8.094v1.8656c-1.2327-0.36457-2.8505-0.64913-4.8392-0.86485-1.9887-0.22534-4.2797-0.33091-6.8471-0.33091-3.792 0-7.4722 0.37877-11.01 1.1254-3.5394 0.74661-6.6825 1.9727-9.429 3.6465-2.7434 1.6818-4.9319 3.9359-6.5722 6.7752-1.6418 2.8361-2.4492 6.2876-2.4492 10.356 0 2.3677 0.26861 4.4635 0.69699 6.4203 0.23496 0.024 0.38533 0.0699 0.617 0.0852l-0.19889 1.1765c0.30861 1.0504 0.55471 2.1502 1.0104 3.0662 1.4051 2.9224 3.4434 5.298 6.0957 7.0998 2.6601 1.8256 5.8288 3.1287 9.4961 3.9247 3.6786 0.79142 7.7697 1.1927 12.286 1.1927 7.1669 0 13.271-0.42533 18.318-1.255 5.0486-0.83928 8.9798-1.5811 11.816-2.1966v-41.155c0-4.3372-0.49242-8.2684-1.4548-11.816z" fill-rule="evenodd" stroke-width="21.856"/>
 <path d="m550.41 188.09c-1.4165-0.617-2.5115-1.4165-3.2533-2.3869-0.75295-0.97347-1.2631-2.1742-1.5332-3.5857-0.26862-1.4148-0.3932-3.0102-0.3932-4.7848v-76.071l-19.793 3.1844v76.881c0 3.7138 0.38685 7.0534 1.135 10.016 0.74661 2.9703 2.1646 5.4898 4.2478 7.573 2.0798 2.0783 4.9144 3.6976 8.5001 4.844 3.5619 1.151 8.2059 1.7586 13.925 1.8608v-16.719c-1.0823-0.20544-2.056-0.47165-2.8345-0.81064" fill-rule="evenodd" stroke-width="21.856"/>
 <path d="m735.46 188.09c-1.4165-0.617-2.4971-1.4165-3.25-2.3869-0.75623-0.97347-1.2677-2.1742-1.5284-3.5857-0.26053-1.4148-0.398-3.0102-0.398-4.7848v-76.071l-19.784 3.1844v76.881c0 3.7138 0.37243 7.0534 1.1302 10.016 0.74814 2.9703 2.1646 5.4898 4.2478 7.573 2.072 2.0783 4.9063 3.6976 8.4986 4.844 3.5698 1.151 8.2236 1.7586 13.95 1.8608v-16.743c-1.0919-0.19889-2.0798-0.44761-2.8664-0.7866" fill-rule="evenodd" stroke-width="21.856"/>
 <path d="m575.3 101.26-20.114 13.343 3.5138 6.7048c1.2469 1.7553 3.2373 2.8984 5.4724 2.8984 0.82332 0 1.6115-0.18141 2.3452-0.45723l17.339-8.8231z" fill-rule="evenodd" stroke-width="21.856"/>
 <path d="m334.76 0-334.76 122.3 335.31 124.39zm-93.145 62.879v92.889c-1.6307 0.49068-3.5231 0.97071-5.6348 1.4087-2.1246 0.44761-4.3301 0.82953-6.6593 1.1526-2.3277 0.3309-4.6785 0.61218-7.0862 0.81107-2.4171 0.20304-4.7126 0.29882-6.9154 0.29882-5.3028 0-10.054-0.75292-14.215-2.3052-4.1614-1.5476-7.6411-3.8052-10.501-6.702-2.8601-2.8905-5.0236-6.3783-6.5312-10.501-1.5107-4.1166-2.2625-8.7748-2.2625-13.916 0-5.2197 0.61155-9.9283 1.921-14.13 1.3046-4.2012 3.1856-7.7715 5.6348-10.715 2.4507-2.9366 5.4693-5.1528 9.0072-6.702 3.5604-1.557 7.6034-2.3478 12.166-2.3478 2.5355 0 4.7827 0.2729 6.7874 0.76838 2.0016 0.49242 4.0186 1.1553 6.0617 2.049v-29.113zm34.278 29.369c5.3028 0 10.054 0.74636 14.215 2.3052 4.1599 1.5474 7.6411 3.8067 10.501 6.702 2.8584 2.8984 5.0648 6.3846 6.574 10.501 1.5124 4.1262 2.2624 8.7669 2.2624 13.916 0 5.2118-0.65272 9.9283-1.9636 14.13-1.3031 4.2093-3.1919 7.7778-5.6348 10.715-2.451 2.9368-5.4612 5.1528-9.0071 6.702-3.5523 1.549-7.6082 2.3052-12.166 2.3052-2.5355 0-4.7921-0.23021-6.7874-0.72569-2.0031-0.48434-4.0267-1.1553-6.0617-2.049v29.113l-18.228 2.9455v-92.889c1.6322-0.4828 3.523-0.96262 5.6348-1.4087 2.1262-0.44762 4.3301-0.82954 6.6593-1.1526 2.3292-0.33091 4.6881-0.61218 7.0862-0.81108 2.409-0.2037 4.7029-0.29881 6.9154-0.29881zm-62.538 15.325c-8.6487 0-12.977 5.8719-12.977 17.63 0 5.6225 1.2718 10.154 3.7992 13.575 2.5292 3.4214 6.2914 5.1226 11.27 5.1226 1.6353 0 3.134-0.0462 4.5249-0.17075 1.3828-0.12152 2.5198-0.26514 3.415-0.42688v-33.169c-1.1429-0.72585-2.6485-1.3432-4.4822-1.8356-1.8353-0.48609-3.6757-0.7257-5.5494-0.7257zm62.41 0.21344c-1.6353 0-3.1406 0.0484-4.5249 0.17075-1.3909 0.12305-2.5183 0.26515-3.415 0.42688v33.169c1.1431 0.72584 2.6548 1.3432 4.4822 1.8356 1.8431 0.48608 3.6709 0.72569 5.5494 0.72569 8.6489 0 12.977-5.8734 12.977-17.63 0-5.6243-1.2718-10.146-3.7992-13.575-2.5211-3.4214-6.2914-5.1226-11.27-5.1226z" stroke-width="21.856"/>
</svg>
