<svg width="451.16" height="162.58" version="1.1" xmlns="http://www.w3.org/2000/svg">
 <polygon transform="translate(225.58 81.29)" points="225.58 -81.29 225.58 81.289 -163.71 81.289 -163.74 22.443 -225.58 -4.489 -162.75 -28.43 -162.75 -81.29" fill="#ee4f25"/>
 <g transform="matrix(1 0 0 -1 225.58 82.409)" opacity=".2">
  <g fill="#231f20">
   <path d="m-119.79 47.296h26.865c4.663 0 8.231-3.84 8.231-8.222v-79.623c0-4.386-3.702-8.081-8.231-8.081h-26.865zm22.756-12.337h-10.417v-71.256h10.417z"/>
   <path d="m-39.604-48.63h-31.786v95.926h30.831v-12.337h-18.496v-26.447h13.012v-12.329h-13.012v-32.479h19.45z"/>
   <path d="m-6.783 18.516v16.443h-10.415v-71.256h10.415v16.582h12.333v-20.834c0-4.386-3.7-8.081-8.22-8.081h-18.643c-4.38 0-8.221 3.695-8.221 8.081v79.623c0 4.382 3.84 8.222 8.221 8.222h18.643c4.653 0 8.22-3.84 8.22-8.222v-20.558z"/>
   <path d="m42.839-29.859h-13.711l-1.916-18.771h-12.334l10.143 95.926h21.93l9.865-95.926h-12.065zm-12.339 12.337h10.967l-5.487 52.481z"/>
   <path d="m66.146 47.296h26.854c4.666 0 8.226-3.84 8.226-8.222v-79.623c0-4.386-3.692-8.081-8.226-8.081h-26.854zm22.75-12.337h-10.421v-71.256h10.422z"/>
   <path d="m147.42-48.63h-31.795v95.926h30.836v-12.337h-18.504v-26.447h13.025v-12.329h-13.025v-32.479h19.463z"/>
   <path d="m168.73-19.715v-16.582h10.417v30.964h-14.524c-4.799 0-8.228 3.98-8.228 8.088v36.319c0 4.796 3.289 8.222 8.228 8.222h18.629c4.662 0 8.225-3.426 8.225-8.087v-20.15h-12.329v15.9h-10.417v-27.957h14.521c4.662 0 8.225-3.834 8.225-8.22v-39.331c0-4.386-3.695-8.081-8.225-8.081h-18.629c-4.395 0-8.228 3.695-8.228 8.081v20.834z"/>
  </g>
 </g>
 <g transform="matrix(1 0 0 -1 225.58 82.409)">
  <g fill="#fff">
   <path d="m-122 49.749h26.865c4.663 0 8.231-3.84 8.231-8.222v-79.623c0-4.388-3.702-8.081-8.231-8.081h-26.865zm22.755-12.337h-10.417v-71.256h10.417z"/>
   <path d="m-41.818-46.177h-31.785v95.926h30.831v-12.337h-18.496v-26.447h13.012v-12.329h-13.012v-32.479h19.45z"/>
   <path d="m-8.997 20.969v16.443h-10.415v-71.256h10.415v16.582h12.332v-20.834c0-4.388-3.699-8.081-8.219-8.081h-18.643c-4.38 0-8.221 3.693-8.221 8.081v79.623c0 4.382 3.84 8.222 8.221 8.222h18.643c4.653 0 8.219-3.84 8.219-8.222v-20.558z"/>
   <path d="m40.625-27.406h-13.711l-1.914-18.771h-12.334l10.143 95.926h21.928l9.866-95.926h-12.064zm-12.338 12.337h10.967l-5.486 52.481z"/>
   <path d="m63.931 49.749h26.854c4.666 0 8.225-3.84 8.225-8.222v-79.623c0-4.388-3.692-8.081-8.225-8.081h-26.854zm22.752-12.337h-10.424v-71.256h10.422z"/>
   <path d="m145.2-46.177h-31.795v95.926h30.836v-12.337h-18.504v-26.447h13.025v-12.329h-13.025v-32.479h19.463z"/>
   <path d="m166.52-17.262v-16.582h10.417v30.964h-14.524c-4.799 0-8.228 3.979-8.228 8.088v36.319c0 4.796 3.289 8.222 8.228 8.222h18.629c4.662 0 8.225-3.426 8.225-8.087v-20.15h-12.329v15.9h-10.417v-27.957h14.521c4.662 0 8.225-3.834 8.225-8.22v-39.331c0-4.388-3.695-8.081-8.225-8.081h-18.629c-4.395 0-8.228 3.693-8.228 8.081v20.834z"/>
  </g>
 </g>
</svg>
