<svg width="1e3" height="661.89" version="1.1" xmlns="http://www.w3.org/2000/svg" xmlns:xlink="http://www.w3.org/1999/xlink">
 <defs>
  <linearGradient id="linearGradient4193" x1="472.25" x2="472.25" y1="659.24" y2="18.917" gradientUnits="userSpaceOnUse">
   <stop stop-color="#4765a8" offset="0"/>
   <stop stop-color="#8aa7e5" offset="1"/>
  </linearGradient>
 </defs>
 <g fill="#8aa7e5">
  <path d="m732.77 2.395h-18.605l-18.073 29.864-17.757-29.864h-19.142l28.603 45.063v29.332h16.374v-29.651z"/>
  <path d="m596.88 2.4062v74.375h16.375v-23.812h12.875l15.938 23.812h19.156l-18.188-26.562c9.466-3.507 15.938-11.052 15.938-23.062v-0.21875c0-15.306-10.518-24.531-28.062-24.531zm16.375 14.75h16.281c7.976 0 12.875 3.611 12.875 10.625v0.21875c0 6.269-4.5865 10.531-12.562 10.531h-16.594z"/>
  <path d="m586.58 76.79v-14.561h-40.403v-15.623h35.089v-14.56h-35.089v-15.091h39.871v-14.561h-56.139v74.395h56.671z"/>
  <path d="m522.68 2.395h-17.65l-19.457 52.394-19.459-52.394h-18.074l30.09 74.927h14.459z"/>
  <path d="m409.44 1.125c-22.966 0-39.656 17.32-39.656 38.469v0.21875c0 21.148 16.472 38.25 39.438 38.25 22.968 0 39.688-17.32 39.688-38.469v-0.21875c0-21.148-16.501-38.25-39.469-38.25zm-0.21875 15.094c13.187 0 22.562 10.621 22.562 23.375v0.21875c0 12.752-9.1578 23.156-22.344 23.156-13.185 0-22.531-10.622-22.531-23.375v-0.21875c0-12.752 9.1295-23.156 22.312-23.156z"/>
  <path d="m366.39 64.78-10.42-10.521c-5.848 5.314-11.058 8.713-19.563 8.713-12.759 0-21.583-10.627-21.583-23.38v-0.213c0-12.752 9.035-23.167 21.583-23.167 7.443 0 13.29 3.188 19.033 8.396l10.42-12.011c-6.912-6.801-15.312-11.478-29.348-11.478-22.861 0-38.809 17.324-38.809 38.473v0.213c0 21.361 16.267 38.259 38.172 38.259 14.354 0 22.86-5.101 30.515-13.284z"/>
  <path d="m291.01 54.789v-0.21c0-12.966-8.506-18.387-23.604-22.32-12.867-3.294-16.057-4.889-16.057-9.778v-0.213c0-3.612 3.296-6.482 9.568-6.482 6.275 0 12.761 2.764 19.353 7.334l8.506-12.329c-7.55-6.058-16.8-9.459-27.646-9.459-15.205 0-26.049 8.928-26.049 22.426v0.211c0 14.773 9.676 18.917 24.668 22.744 12.44 3.189 14.993 5.314 14.993 9.458v0.213c0 4.356-4.042 7.014-10.739 7.014-8.507 0-15.525-3.507-22.223-9.033l-9.676 11.584c8.93 7.97 20.307 11.903 31.578 11.903 16.056 0 27.328-8.29 27.328-23.063z"/>
  <path d="m206.48 76.79h16.373v-74.395h-16.373z"/>
  <path d="m126.84 2.4062v74.375h29.031c23.391 0 39.562-16.252 39.562-37.188v-0.21875c0-20.936-16.17-36.969-39.562-36.969zm16.375 14.75h12.656c13.396 0 22.438 9.2585 22.438 22.438v0.21875c0 13.178-9.0415 22.219-22.438 22.219h-12.656z"/>
 </g>
 <g fill="url(#linearGradient4193)">
  <path d="m577.18 194.7c5.071-12.538 25.524-10.92 53.459-10.92h31.082v-88.32h-26.308c-73.171-4.834-155.34-4.646-155.34 118.2v17.161h-29.734v77.386h20.182c3.281 0.08 6.465 0.123 9.553 0.156v353.52h97.102v-340.91c4.509-14.488 21.548-11.994 53.459-12.768h20.187v-77.386h-73.646v-36.121z"/>
  <path d="m830.38 219.31c-101.38 0-172.22 81.865-172.22 181.25v1.3125c0 106.54 77.341 179.94 181.97 179.94 63.051 0 109.82-24.695 142.31-64.969l-56.531-50.031c-27.299 25.338-51.323 35.719-84.469 35.719-44.191 0-75.408-23.37-85.156-68.188h242.41c0.655-9.101 1.3125-14.944 1.3125-24.688v-1.3125c0-98.736-53.287-189.03-169.62-189.03zm0 79.25c41.589 0 67.586 29.888 73.438 74.062h-148.81c7.794-44.826 34.432-74.062 75.375-74.062z"/>
  <path d="m330.16 99.781c-22.347-0.308-32.656 17.96-32.656 35.969v51.75h103.97v-87.719s-57.142 0.2-71.312 0zm-30.062 126.03v348.19h98.781v-348.19z"/>
  <path d="m186.01 484.68h74.542v89.327h-260.55v-574.01h99.843v465.76c0.163 0.308 0.3 0.614 0.4 0.914 0 15.22 12.729 17.706 32.883 18.007h13.879c2.57-0.015 5.213-0.031 7.931-0.031h31.076z"/>
 </g>
</svg>
