<svg width="2644.3" height="2238" version="1.1" xmlns="http://www.w3.org/2000/svg">
 <g transform="translate(0 -2.0249)">
  <path d="m0 844.92 2644.3-802.05-695.11 2197.1z" fill="#fa4f98"/>
  <path d="m1997.8 2176.8-1954.1-1288.1 2483.9-821.49z" fill="#520d9c"/>
  <path d="m191.4 2.0971c-30.409 0.82235-54.863 4.3119-60.351 9.7809-4.7773 4.9559-10.912 8.9221-11.039 15.545-0.16661 6.4296 7.9397 7.0191 12.828 6.9645 4.805 0 9.3084-0.39299 9.249-3.1366 0-3.6787-6.5549-2.8928-6.5549-6.7244 0-4.3301 25.144-5.2943 37.679-5.2943 107.57-0.35659 231.45 69.241 231.64 128.31 0.1667 45.822-63.775 56.138-99.029 56.138-12.554 0.0583-24.684-1.1498-36.21-3.2494-0.59116-14.591-1.484-45.193-1.8767-64.602 4.0551-0.0583 7.8682-0.14191 11.098-0.14191 26.144-0.0545 60.446 8.5692 60.474 14.256 0 4.8759-9.1418 8.2817-9.1418 12.928 0.0795 3.4859 8.4634 2.7836 15.661 3.3331 1.3292 0.15282 16.082-7.5867 16.066-19.78-0.0918-16.101-21.537-35.103-91.609-34.837h-3.0711c-0.64279-18.11-3.4441-46.532-14.546-46.517-9.0743 0.05822-11.725 31.424-12.499 48.588-39.325 5.6509-74.246 20.544-74.186 35.263 0 12.03 28.148 42.289 73.575 60.723 0.80546 13.656 3.5591 22.986 16.558 22.924 9.4237 0 12.558-6.4478 13.546-13.238 14.705 3.5077 30.655 5.5818 47.57 5.5272 65.933-0.16375 118.93-33.098 118.73-78.2-0.14286-60.552-130.8-147.49-244.56-144.56m-17.724 150.6c0-10.509 34.234-14.609 65.961-16.105-0.19045 16.545-0.4286 40.251-0.37306 56.182-39.024-12.852-65.588-33.269-65.588-40.077" fill="#08ee59"/>
  <path d="m459.58 113.05c-11.114 0.1128-11.459 42.1-11.773 57.437-0.7459 34.921 4.8011 39.003 14.764 39.003 8.9077 0 11.947-1.0079 11.185-30.245-1.4007-55.52-5.428-66.196-14.177-66.196" fill="#08ee59"/>
  <path d="m465.44 99.134c24.62-0.1128 63.969-26.293 63.826-48.024 0-9.7627-5.42-14.82-18.839-16.567-5.7097-5.0869-14.018-10.807-26.414-10.778-38.452 0.09824-63.406 28.764-63.406 44.276 0.0155 5.8256 1.98 12.823 7.4953 18.67 0.24196 12.481 3.4401 15.701 7.769 15.701 4.8447 0 7.7769-2.6199 9.5664-5.7346 5.4796 1.6083 12.086 2.5107 20.002 2.4561m2.4919-17.553c-5.6621 0-10.408-0.71683-14.471-1.9103 10.943-11.455 37.274-33.207 50.256-33.261 8.4474 0 9.9592 6.3241 9.9592 8.722 0 14.504-31.965 26.392-45.745 26.45m1.8292-38.694c-11.753 6.5424-23.843 15.537-32.008 24.594-0.35706-1.1644-0.61109-2.347-0.61109-3.4313 0-6.9718 10.916-17.859 32.62-21.163" fill="#08ee59"/>
  <path d="m593.28 120.59c0-9.6171-26.707-9.5189-41.749-9.5043-11.277 0.0837-68.457 1.2626-68.397 31.093 0.0433 20.122 32.084 15.195 53.324 17.204 17.26 1.601 38.23 6.939 38.357 12.193 0 11.866-45.852 16.56-55.236 16.56-19.486 0.10553-19.879-5.1451-19.879-7.8341s3.2298-7.2156 10.547-7.2156c7.2572-0.0254 22.228 8.642 32.619 8.6128 10.261-0.0873 18.875-4.3046 18.875-8.642 0-7.936-34.234-11.731-44.852-11.731-11.158 0.0691-27.148 4.3228-27.061 19.918 0 8.1071 14.181 27.228 54.01 27.057 39.266-0.1601 49.193-20.93 49.138-31.639-0.0598-26.05-26.584-29.07-49.689-30.922-17.324-1.3936-35.913-2.1832-35.849-5.7492 0.13491-11.913 85.844-3.1875 85.844-19.402" fill="#08ee59"/>
  <path d="m658.54 98.567c-3.2298 0-3.8448 3.1948-3.8448 6.5715 0 10.305 15.209 45.757 15.209 59.395 0 2.78-0.23814 7.805-2.6188 8.5109-3.6186 0.97883-35.238-52.903-48.312-53.824-13.495-0.97517-20.756 52.852-20.688 66.112 0 13.139 2.5474 22.076 13.086 22.022 15.562 0 7.5072-53.747 13.76-53.747 4.6542 0 30.108 49.159 44.293 49.104 15.344-0.0437 24.438-21.09 24.406-34.761-0.0836-31.26-22.367-69.496-35.29-69.383" fill="#08ee59"/>
  <path d="m764.52 181.62c-5.424 0-36.036 6.335-38.047 4.6685-2.0355-1.743 1.8053-18.23 5.6185-19.318 3.8369-1.0916 27.775-0.82236 31.58-1.037 11.114-0.58947 9.0149-14.591 2.1506-15.123-3.4956-0.29836-25.081-0.35658-26.319-2.216-1.1269-1.8121 0.40071-11.164 2.7616-12.128 4.9677-1.9576 37.813-2.7036 40.297-3.2894 4.0947-1.0116 7.0706-3.0201 8.0586-6.2695 0.97218-3.293-11.411-16.607-26.743-15.097-26.366 2.6599-60.501 2.5471-60.501 10.585 0 7.5467 16.046 10.581 16.455 12.677 0.42064 2.0122-2.0672 9.8464-3.0076 12.317-0.94038 2.6199-12.415 3.424-13.165 10.727-0.16269 1.7248 2.8648 4.3555 2.337 6.4696-1.8212 6.1749-7.3127 18.961-7.2968 24.223 0 8.1908 6.5072 26.377 24.362 25.758 28.294-0.80416 53.621-19.223 54.05-22.473 0.59127-4.8213-7.1619-10.476-12.59-10.476" fill="#08ee59"/>
  <path d="m874.08 119.14c-15.439 0.78232-45.082 31.311-62.374 51.895-1.099-2.1141-1.7062-4.1481-1.7062-5.9457-0.0392-8.7911 17.506-34.822 20.78-41.379 3.4202-6.7498-0.41671-15.777-4.7138-12.528-8.1975 6.2804-34.536 34.983-34.472 61.676 0 6.1422 1.7101 13.591 5.3684 20.435-5.8486 17.892-20.268 57.736-19.819 81.878 0.26983 12.463 13.776 24.714 21.914 23.16 3.091-0.68044 3.694-17.069 7.8365-28.131 5.6581-15.974 14.808-45.178 17.95-57.615 1.476 0.14919 2.96 0.25835 4.555 0.25835 32.151-0.10916 67.862-32.203 67.802-59.773-0.11107-27.672-17.633-34.273-23.121-33.931m-37.139 68.259c12.967-20.974 31.822-48.752 38.766-48.642 4.8606 0 6.7175 4.6357 6.7175 11.411 0 20.522-26.469 37.519-45.483 37.231" fill="#08ee59"/>
  <path d="m1226.4 1266.2v-280.08c-0.1206-3.6727-0.8992-7.2182-2.3279-10.72-1.6078-3.6728-4.072-7.0367-6.8827-9.5868l-185.88-176.71c-6.4117-6.143-6.4117-16.104 0-22.16l185.88-176.74c2.8107-2.6701 5.2711-5.8269 6.8827-9.5977 1.4249-3.4911 2.2852-7.1892 2.3279-10.738v-280c0-4.0178-1.5727-8.0392-4.7882-11.051-3.274-3.0806-7.5406-4.4646-11.624-4.4646h-283.25c-3.7684 0-7.5173 0.60303-11.208 2.1796-3.9668 1.395-7.3226 3.7344-10.137 6.3646l-197.41 187.64c-6.4311 6.1284-16.779 6.1284-23.295-0.0582l-197.45-187.58c-2.7445-2.6301-6.1625-4.9696-10.024-6.3646-3.7411-1.5766-7.4861-2.1796-11.317-2.1796h-283.11c-4.1227 0-8.4127 1.3804-11.597 4.4646-3.2896 3.0152-4.7844 7.0366-4.7844 10.996v280.06c0.0152 3.5456 0.76302 7.2473 2.2617 10.738 1.6156 3.7708 3.9903 6.9276 6.7504 9.5977l185.89 176.74c6.544 6.0558 6.544 16.013 0 22.16l-185.89 176.71c-2.7601 2.5938-5.1349 5.914-6.7504 9.5868-1.4948 3.5019-2.2462 7.091-2.2617 10.72v280.08c0 3.9525 1.5415 7.9775 4.7844 10.949 3.1844 3.0552 7.4705 4.5701 11.597 4.5701h294.54c3.8618-0.083 7.6146-0.7992 11.399-2.1579 3.8578-1.4712 7.2486-3.7053 10.11-6.4481l185.85-176.7c6.5168-6.1503 16.864-6.1503 23.393-0.055l185.81 176.75c2.764 2.7462 6.182 4.9767 10.118 6.448 3.7839 1.3587 7.5524 2.0707 11.356 2.1578h294.63c4.0877 0 8.3543-1.5148 11.624-4.5699 3.2078-2.9679 4.7843-6.993 4.7843-10.946" fill="#08ee59"/>
  <path d="m2007.3 1281.8c3.71-0.083 7.4939-0.7991 11.235-2.1578 3.9786-1.4713 7.3304-3.7054 10.063-6.448l203.16-193.07c2.6316-2.5501 4.7766-5.6889 6.3377-9.1908 1.5922-3.6765 2.328-7.4581 2.328-11.272v-563.18c0-3.778-0.7319-7.5343-2.328-11.269-1.5611-3.531-3.7061-6.6406-6.3377-9.1509l-203.16-193.07c-2.7329-2.6301-6.0808-4.9405-10.063-6.3646-3.7411-1.5766-7.525-2.1796-11.235-2.1796h-711.9c-4.2199 0-8.3659 1.3804-11.566 4.4646-3.2584 3.0442-4.8817 7.0366-4.9518 10.996v976.38c0.074 3.9524 1.6973 7.9775 4.9518 10.949 3.1961 3.0551 7.346 4.5698 11.566 4.5698h711.9z" fill="#08ee59"/>
  <path d="m1486 1390.8c-3.3778 0-6.0938 2.716-6.0938 6.0938v366.72c0 3.3778 2.716 6.0937 6.0938 6.0937h76.656c3.3779 0 6.0938-2.7159 6.0938-6.0937v-148.34h48.518v148.34c0 3.3778 2.716 6.0937 6.0938 6.0937h76.92c3.3779 0 6.0938-2.7159 6.0938-6.0937v-366.72c0-3.3778-2.7159-6.0938-6.0938-6.0938h-76.92c-3.3778 0-6.0938 2.716-6.0938 6.0938v139.38h-48.518v-139.38c0-3.3778-2.7159-6.0938-6.0938-6.0938z" fill="#08ee59" fill-rule="evenodd"/>
  <path d="m1752 1389.9c-2.9305 0-5.2812 2.636-5.2812 5.9063v367.69c0 3.2702 2.3507 5.9063 5.2812 5.9063h108.41c0.597 0 1.1892-0.021 1.7813-0.031v0.031c35.274 0.4725 62.928-7.1481 86.75-33.625 46.776-61.983 33.589-271.62 2.5937-306.91-14.658-25.793-54.145-38.076-80.219-38.906-3.5053-0.097-7.1968-0.062-10.906-0.062h-108.41zm85.906 80.312h22.469c0.7695 0 1.554 0.01 2.2812 0.062 5.4088 0.4789 13.584 7.5305 16.625 22.406 6.4297 20.354 9.1723 141.28-0.5312 177.03-4.9418 15.27-10.683 19.648-18 19.375-0.1229 0.01-0.2511 0-0.375 0h-22.469c-0.6079 0-1.0937-1.5202-1.0937-3.4062v-212.06c0-1.8859 0.4859-3.4062 1.0937-3.4062z" fill="#08ee59" fill-rule="evenodd"/>
 </g>
</svg>
