<svg width="1001" height="887.61" version="1.1" xmlns="http://www.w3.org/2000/svg">
 <g transform="translate(760.5 -872.11)">
  <path d="m-759.17 1542.6v210.83h76.25c52.668 0 105.33-42.982 105.33-105.05 0-58.359-46.594-105.78-109.08-105.78zm52.5 44.583h16.25c30.636 0 60.417 25.694 60.417 60.834 0 34.515-28.654 60.833-60.833 60.833h-15.833z" fill="#fff"/>
  <path d="m-450.66 1537.7c-63.084 0-112.68 50.154-112.68 110.55 0 59.586 49.426 110.35 112.47 110.35 63.354 0 112.57-50.993 112.57-109.91 0-61.967-50.675-110.99-112.36-110.99zm-0.156 48.099c33.335 0 60.273 29.863 60.273 62.448 0 30.172-25.552 62.292-60.326 62.292-33.896 0-60.052-31.33-60.052-62.136 0-35.132 29.104-62.604 60.104-62.604z" fill="#fff"/>
  <path d="m-229.58 1672.2 15-44.583h92.083v109.17c-18.287 10.919-53.555 21.714-88.861 21.714-62.04 0-112.89-49.403-112.89-110.25 0-63.999 53.511-110.66 112.79-110.66 33.647 0 63.506 12.931 82.736 29.639l-30.808 37.978c-8.0049-7.67-25.134-19.353-49.616-19.353-31.44 0-62.89 21.736-62.89 62.293 0 35.396 26.252 62.344 67.098 62.344 22.373 0 29.945-7.459 29.945-7.459v-30.833z" fill="#fff"/>
  <path d="m-59.167 1755.9v-174.17h-57.276l9.7755-39.166h140.83v39.166h-52.917v171.67z" fill="#ff6308"/>
  <path d="m56.667 1542.6 43.563-4.819 46.654 132.4 51.564-132.51 40.835 4.988-92.451 216.54z" fill="#ff6308"/>
  <path d="m-760 1436.8v-564.17h1e3v564.17h-189.41s2.1301-12.954 2.1301-32.817c0-33.424-7.6876-55.734-21.651-69.45-14.275-13.716-30.03-15.286-39.446-15.286-3.5747 0-7.0377 0.47-7.0377 0.47l-19.583-13.333 9.1667-27.084c24.078-15.768 32.891-40.278 32.891-72.915 0-34.313-10.124-72.988-22.373-102.94 0 0 14.18 8.853 35.561 8.853 22.509 0 34.512-10.132 42.252-23.979 7.8512-11.643 17.909-17.351 42.329-28.116 6.6523-3.459 9.2477-6.843 9.2477-10.962 0-3.828-1.9349-9.543-4.0523-15.326-17.55-49.103-60.06-75.099-105.65-81.935-37.246 7.93-76.183 37.235-73.951 79.902-10.827-7.324-25.754-9.678-44.525-10.066-34.083 0-67.92 9.065-103.18 19.87-35.982 12.764-63.456 30.165-70.878 46.77-10.227-19.517-32.303-38.903-69.244-38.903-17.871 0-34.082 4.364-34.082 4.364-32.659 25.14-54.759 62.234-54.759 104.37 0 7.558 1.4183 19.104 3.4289 28.003 1.8529 7.919 3.783 11.326 14.755 11.326 8.7512 0 16.976-1.784 25.457-1.662 11.14 0 19.65 2.237 29.236 7.623 6.37 3.469 12.964 5.729 21.21 5.729 23.399 0 45.376-21.656 50.862-31.848 8.6688 64.232 33.047 131.78 78.793 145.58l27.083 15.637-17.083 23.947c-34.582 3.856-63.456 29.117-67.083 74.166z" fill="#ff6308"/>
  <path d="m-212.5 1362.6-10-39.584 196.67-43.75 10.417 40.417z" fill="#3c1c00"/>
 </g>
</svg>
