<svg width="800" height="256.56" version="1.1" viewBox="0 0 211.67 67.881" xmlns="http://www.w3.org/2000/svg">
 <g transform="translate(25.239 -83.232)">
  <g transform="matrix(4.9268 0 0 -4.9268 -1157.6 2986.6)">
   <path d="m234.84 584.58v1.738h-4.999v-7.669h4.999v1.741h-3.005v1.303h2.585v1.586h-2.584l1e-3 1.301z" fill="#243368" fill-rule="evenodd"/>
   <g transform="translate(243.38 578.7)">
    <path d="m0 0c0.328-0.052 1.309-0.262 2.57-0.157 1.108 0.095 2.5 0.749 2.524 2.493 0.01 0.752-0.221 1.624-1.311 2.053l-1.638 0.586c-0.177 0.072-0.322 0.23-0.327 0.374-0.011 0.288 0.221 0.554 0.738 0.617 0.461 0.058 1.185-0.015 2.081-0.224l-0.012 1.786c-0.308 0.083-1.05 0.276-2.048 0.305-1.322 0.041-2.645-0.809-2.727-2.465-0.041-0.82 0.334-1.739 1.303-2.089l1.51-0.547c0.375-0.162 0.387-0.321 0.397-0.448 0.017-0.23-0.207-0.408-0.504-0.523-0.392-0.153-1.55-0.165-2.549 0.137z" fill="#243368" fill-rule="evenodd"/>
   </g>
   <g transform="translate(238.33 584.6)">
    <path d="m0 0c0.884 0.153 1.85-0.086 1.85-0.713 0-0.625-0.966-0.864-1.85-0.711zm0-2.828c0.884 0.151 1.85-0.088 1.85-0.713s-0.966-0.864-1.85-0.712zm-1.997 4.547v-7.673h2.986c2.467 0 2.872 1.507 2.872 2.114 0 0.904-0.382 1.435-0.995 1.721 0.527 0.287 0.891 0.827 0.891 1.664 0 0.722-0.457 2.174-2.786 2.174z" fill="#243368" fill-rule="evenodd"/>
   </g>
   <g transform="translate(251.48 582.41)">
    <path d="m0 0c0 3.805 3.085 6.89 6.89 6.89 3.803 0 6.889-3.085 6.889-6.89s-3.086-6.888-6.889-6.888c-3.805 0-6.89 3.083-6.89 6.888" fill="#243368"/>
   </g>
   <g transform="translate(266.69 582.41)">
    <path d="m0 0c0 1.686 1.367 3.052 3.053 3.052 1.687 0 3.053-1.366 3.053-3.052s-1.366-3.053-3.053-3.053c-1.686 0-3.053 1.367-3.053 3.053" fill="#243368"/>
   </g>
  </g>
  <g transform="matrix(4.9268 0 0 -4.9268 119.21 117.22)">
   <path d="m0 0c0 1.685 1.366 3.052 3.053 3.052s3.054-1.367 3.054-3.052c0-1.687-1.367-3.054-3.054-3.054s-3.053 1.367-3.053 3.054" fill="#f46d16"/>
  </g>
  <g transform="matrix(4.9268 0 0 -4.9268 100.36 117.26)">
   <path d="m0 0c0 1.686 1.367 3.052 3.053 3.052s3.052-1.366 3.052-3.052-1.366-3.053-3.052-3.053-3.053 1.367-3.053 3.053" fill="#90d123"/>
  </g>
  <g transform="matrix(4.9268 0 0 -4.9268 119.21 117.24)">
   <path d="m 0,0 c 0,-0.963 0.446,-1.822 1.144,-2.381 0.692,0.559 1.135,1.414 1.135,2.375 0,0.963 -0.446,1.822 -1.143,2.381 C 0.443,1.816 0,0.96 0,0" fill="#fff"/>
  </g>
 </g>
</svg>
