<svg width="865.83" height="633.83" version="1.1" xmlns="http://www.w3.org/2000/svg">
 <g transform="translate(530.06 -309.73)">
  <g transform="matrix(1.3333 0 0 -1.3333 -530.06 749.4)">
   <path d="m0 0v329.75l164.44-204.29 162.69 204.29 13.134-204.95 308.08 201.67v-326.47z" fill="#f7ad1c"/>
  </g>
  <g transform="matrix(1.3333 0 0 -1.3333 -530.06 797.33)">
   <path d="m0 0v16.493h110.01v-24.037h-25.074v7.476h-44.378v-12.245h56.124v-15.939h-56.115v-12.897h44.337v7.799h25.106v-24.39h-110.01v16.591h11.631v41.09z" fill="#404040"/>
  </g>
  <g transform="matrix(1.3333 0 0 -1.3333 14.564 797.33)">
   <path d="m0 0v16.493h110.01v-24.037h-25.074v7.476h-44.381v-12.245h56.125v-15.939h-56.111v-12.897h44.332v7.799h25.109v-24.39h-110.01v16.591h11.63v41.09z" fill="#404040"/>
  </g>
  <g transform="matrix(1.3333 0 0 -1.3333 -365.56 797.29)">
   <path d="m0 0v16.464h55.997v-16.464h-15.302v-41.316h30.882v20.241h24.973v-36.445h-96.55v16.283h11.825v41.237z" fill="#404040"/>
  </g>
  <g transform="matrix(1.3333 0 0 -1.3333 -49.943 811.93)">
   <path d="m0 0-4.312-3.614h-45.633v14.464h45.496l4.449-4.038zm28.281-30.687v9.675l-9.361 9.559v1.198l9.361 8.998v15.86l-12.328 12.706h-105.64v-16.327l11.778 0.099v-41.768h-11.778v-15.28h55.837v15.776h-15.957v10.299h45.265l5.104-4.921v-15.673l6.3-6.027h29.682v15.826z" fill="#404040"/>
  </g>
  <g transform="matrix(1.3333 0 0 -1.3333 176.24 797.16)">
   <path d="m0 0v16.365h52.132v-16.365h-10.118l18.875-18.247h1.183l18.994 18.301h-11.415v16.311h50v-16.552h-10.295l-35.53-33.389v-8.193h16.695v-15.643h-62.24v15.643h17.446v8.193l-35.531 33.576z" fill="#404040"/>
  </g>
  <g transform="matrix(1.3333 0 0 -1.3333 -386.25 910.81)">
   <path d="m0 0v7.014h34.737v-10.231h-7.917v3.188h-14.015v-5.206h17.721v-6.788h-17.716v-5.482h14v3.316h7.927v-10.373h-34.737v7.057h3.669v17.476z" fill="#f7ad1c"/>
  </g>
  <g transform="matrix(1.3333 0 0 -1.3333 -514.12 909.95)">
   <path d="m0 0h-3.479v6.365h16.463l11.5-19.71h0.696v13.301h-3.989v6.409h16.002v-6.409h-3.205v-25.039h-13.398l-11.317 20.82h-0.975v-14.524h4.129v-6.296h-15.722v6.296h3.249z" fill="#f7ad1c"/>
  </g>
  <g transform="matrix(1.3333 0 0 -1.3333 -251.7 917.6)">
   <path d="m0 0h-7.419v12.053h35.29v-12.053h-6.957v5.79h-5.337v-18.728h5.337v-6.493h-21.472v6.44h5.98v18.732h-5.422z" fill="#f7ad1c"/>
  </g>
  <g transform="matrix(1.3333 0 0 -1.3333 -136.29 901.53)">
   <path d="m0 0h16.21v-5.978h-3.897l2.716-16.208h0.902l6.122 22.186h11.756l6.191-22.672h0.766l3.06 16.346h-4.661v6.326h15.231v-6.263h-3.06l-5.561-25.25h-12.106l-5.705 22.544h-0.766l-5.703-22.544h-13.217l-5.562 25.32h-2.716z" fill="#f7ad1c"/>
  </g>
  <g transform="matrix(1.3333 0 0 -1.3333 48.185 931.3)">
   <path d="m0 0-1.67-2.225h-12.033l-1.739 2.157v13.633l1.739 2.02h11.615l2.088-1.803zm4.455 21.916h-24.077l-5.28-5.084v-20.314l5.28-5.417h24.214l5.56 5.908v19.406z" fill="#f7ad1c"/>
  </g>
  <g transform="matrix(1.3333 0 0 -1.3333 177.85 917.18)">
   <path d="m0 0-1.109-1.577h-13.783v7.235h13.036l1.856-1.616zm9.671-13.237v5.496l-3.202 2.923v1.178l3.202 3.134v7.161l-4.528 5.152h-33.453v-6.4h4.239v-18.782h-4.239v-6.33h18.566v6.252h-4.661v5.569h13.296l1.109-1.738v-7.161l2.299-2.922h9.941v6.468z" fill="#f7ad1c"/>
  </g>
  <g transform="matrix(1.3333 0 0 -1.3333 272.14 909.88)">
   <path d="m0 0v6.263h17.858v-6.263h-4.126v-8.256h1.017l8.168 7.746v0.741h-3.251v6.032h19.656v-6.312h-5.142l-6.582-5.511v-1.812l8.487-11.464h3.846v-6.296h-19.151v6.351h4.494v0.467l-4.68 6.394h-1.115l-5.795-4.4v-2.364h3.806v-6.448h-17.211v6.404h3.802v18.728z" fill="#f7ad1c"/>
  </g>
 </g>
</svg>
