<svg width="4e3" height="1781.8" version="1.1" viewBox="0 0 400 178.18" xmlns="http://www.w3.org/2000/svg">
 <defs>
  <radialGradient id="radialGradient43" cx="699.84" cy="19.381" r="52.4" gradientTransform="matrix(.81028 .18944 -.13758 .58846 -373.8 -228.58)" gradientUnits="userSpaceOnUse">
   <stop stop-color="#E0C479" offset=".2228"/>
   <stop stop-color="#907231" offset="1"/>
  </radialGradient>
 </defs>
 <g transform="translate(65.764 90.358)">
  <path d="m-2.6734-50.213c-39.382 0-63.091 30.909-63.091 69.018s21.709 69.018 63.091 69.018c31.636 0 51.564-17.2 59.2-42.327l-33.855-5.3818c-5.0909 9.2364-13.745 15.418-25.455 15.418-15.273 0-24.691-9.4182-28.145-23.455h90.255c0.47273-3.8182 0.72727-7.7455 0.72727-11.745 0-38.145-23.382-70.545-62.727-70.545zm-27.673 54.109c4-13.091 13.636-21.782 27.564-21.782 14.655 0 24.655 8.4 28.291 21.782zm149.53-51.418h-56.073v132.73h33.891v-36.327h22.691c26.327 0 47.164-21.782 47.164-48.764-0.03637-26.291-20.545-47.636-47.673-47.636zm13.6 48.582c0 8.3273-6.0727 14.436-13.6 14.436h-22.182v-31.091h22.182c7.5273 0 13.6 6.0727 13.6 14.436zm201.45 84.145h-40.436l-25.855-40.182-25.927 40.182h-71.964v-132.73h33.891v128.04l44.509-65.745-38.291-62.291h39.127l18.655 35.455 19.855-35.455h39.891l-40.218 62.291z" stroke-width=".36364"/>
  <path d="m206.05-71.304a19.055 19.055 0 0 1-19.055 19.055 19.055 19.055 0 0 1-19.055-19.055 19.055 19.055 0 0 1 19.055-19.055 19.055 19.055 0 0 1 19.055 19.055z" fill="url(#radialGradient43)" fill-rule="evenodd"/>
 </g>
</svg>
