<svg width="416.4mm" height="269.35mm" version="1.1" viewBox="0 0 416.4 269.35" xmlns="http://www.w3.org/2000/svg">
 <defs>
  <linearGradient id="linearGradient1186" x1="41.288" x2="63.167" y1="32.731" y2="-5.1645" gradientTransform="matrix(.67131 0 0 .67131 1362.6 -7.5208)" gradientUnits="userSpaceOnUse">
   <stop stop-color="#8d6f2f" offset="0"/>
   <stop stop-color="#ae9047" offset=".34636"/>
   <stop stop-color="#c6a958" offset=".6333"/>
   <stop stop-color="#e0c479" offset="1"/>
  </linearGradient>
 </defs>
 <g transform="translate(-1141.3 22.881)">
  <path d="m1205.2 18.067c-39.872 0-63.965 29.769-63.965 70.317 0 42.177 26.763 69.55 65.008 69.55 32.362 0 52.426-21.375 59.241-42.73l-34.424-5.5047c-5.6789 10.135-15.35 15.288-25.787 15.288-16.812 0-27.01-12.29-28.28-23.456h91.416s0.5873-4.563 0.5873-10.91c0-39.096-22.583-72.555-63.797-72.555zm0.5488 32.624c17.345 0 27.148 13.634 28.031 22.169h-56.363c0.9457-7.3519 8.899-22.169 28.332-22.169z" fill="#fff"/>
  <path d="m1272 20.636v134.7h34.558v-36.832h24.584c25.725 0 46.26-23.387 46.26-49.253 0-26.823-20.342-48.619-48.603-48.619zm34.558 32.5h21.986c7.338 7.1e-5 14.25 4.9658 14.25 15.764 0 9.8296-6.0591 15.764-13.591 15.764h-22.644z" fill="#fff" fill-rule="evenodd"/>
  <path d="m1380.5 20.636v134.7h34.558v-134.7z" fill="#fff" fill-rule="evenodd"/>
  <path d="m1411.8 155.34 48.283-71.456-38.852-63.248 39.735-1.52e-4 18.921 35.838 20.349-35.838h40.389l-40.892 63.262 47.475 71.442h-41.065l-26.265-40.531-26.24 40.531z" fill="#fff"/>
  <path d="m1417.3-3.4227a19.459 19.459 0 0 1-19.458 19.459 19.459 19.459 0 0 1-19.459-19.459 19.459 19.459 0 0 1 19.459-19.459 19.459 19.459 0 0 1 19.458 19.459z" fill="url(#linearGradient1186)" fill-rule="evenodd" style="paint-order:normal"/>
  <path d="m1380.7 162.85-19.41 83.61h176.93l19.41-83.61zm78.758 11.572c4.4786 0.37261 7.0908 4.1054 6.3451 8.5849-1.1203 4.4795-5.5981 8.5849-10.451 8.5849-4.48 0-7.4657-3.7324-6.3462-8.5849 1.1209-4.4795 5.5992-8.5849 10.452-8.5849zm-66.068 2.6127h15.677l-4.4785 20.156h18.664l4.4787-20.156h15.676l-12.691 55.242h-15.303l4.4786-19.783h-18.663l-4.4794 19.783h-16.05zm84.358 1.1199h14.931l-2.6135 10.824h10.079l-2.9865 13.064h-10.077l-2.9857 13.811c-0.747 2.9856 0.3727 4.1047 2.9857 4.1047 1.8657 0 4.1066-0.3733 5.9723-1.4928l-2.6144 11.571c-2.9853 1.4935-6.7173 2.6127-10.824 2.6127-8.9578 0-13.437-4.1064-11.198-14.184l3.7326-16.423h-5.2253l2.9864-13.064h5.2263zm44.791 9.331c5.9722 0 11.571 1.8659 15.676 4.8532l-7.0921 9.3318c-3.7318-2.613-7.8386-4.1064-11.198-4.1064-2.2391 0-3.3591 0.74584-3.7325 2.2388-0.7466 2.6126 1.4936 3.3598 5.5992 4.8524 7.4643 2.2392 13.811 5.2261 11.944 13.437-2.2396 9.3312-10.824 14.183-20.529 14.183-6.7183 0-13.064-2.2384-17.543-6.3444l7.839-10.078c3.7325 3.3591 7.4653 5.2254 12.69 5.2254 2.6123 0 3.7326-0.74674 3.7326-1.8659 0.3735-1.8661-1.4931-2.613-5.5992-3.7326-7.4652-2.2395-13.81-5.2257-11.572-13.81 2.24-8.9591 10.452-14.185 19.783-14.185zm-76.145 8.2119h16.05l-8.5859 36.58h-16.05z" fill="#fff" stroke-width=".26458"/>
 </g>
</svg>
