<svg width="759.97" height="800" version="1.1" viewBox="0 0 759.97 800" xmlns="http://www.w3.org/2000/svg">
 <g transform="matrix(32.794 0 0 32.794 -304.49 -120.08)" fill="none" fill-rule="evenodd">
  <g transform="translate(9,3)">
   <path d="m23.201 9.6119c0.12917 0.38505-0.06736 0.78113-0.06736 0.78113l-4.1125 11.895c-0.15364 0.35334-0.47201 0.42405-0.47201 0.42405l-6.6743 2.3435-4.98e-4 -0.10419-5.69e-4 0.10419-6.6742-2.3435s-0.31844-0.07071-0.47201-0.42405l-4.1124-11.895s-0.19667-0.39607-0.06743-0.78113l4.2474-8.5478s0.22462-0.42412 0.53929-0.40172h13.08c0.31453-0.022393 0.53944 0.40172 0.53944 0.40172z" fill="#363436"/>
   <path d="m23.201 9.6119-4.2473-8.5478s-0.22491-0.42412-0.53944-0.40172h-13.08c-0.31467-0.022393-0.53929 0.40172-0.53929 0.40172l-4.2474 8.5478c-0.12924 0.38505 0.06743 0.78113 0.06743 0.78113l4.1124 11.895c0.15357 0.35334 0.47201 0.42405 0.47201 0.42405l6.6742 2.3435 0.0011 4.24e-4v-4.24e-4l6.6743-2.3435s0.31837-0.07071 0.47201-0.42405l4.1125-11.895s0.19653-0.39607 0.06736-0.78113m-0.89899 0.42405-3.5955 12.141c-0.08649 0.28249-0.42705 0.42405-0.42705 0.42405l-6.4051 2.2463-6.4052-2.2463s-0.34049-0.14156-0.42698-0.42405l-3.5957-12.141c-0.04858-0.17109-0.15726-0.4167-0.067429-0.6472l3.6406-8.2354s0.13756-0.29916 0.42698-0.31237h12.855c0.28942 0.01321 0.42691 0.31237 0.42691 0.31237l3.6407 8.2354c0.08983 0.2305-0.01885 0.47611-0.0675 0.6472" fill="#77787b"/>
   <path d="m18.543 22.592c0.11167-0.08201 0.2365-0.20747 0.28956-0.38053l3.6856-12.142c0.0079-0.02741 0.01679-0.0551 0.02603-0.084202 0.05456-0.17179 0.12931-0.40709 0.03834-0.64084l-3.7242-8.2222 4.2402 8.5344c0.10605 0.32854-0.06188 0.67912-0.06366 0.68266l-0.0019 0.0038-3e-3 0.0071-4.1117 11.894c-0.11416 0.25804-0.3247 0.33299-0.37534 0.34747m-13.317-2.2e-5c-0.055053-0.01618-0.2626-0.09261-0.37506-0.3474l-4.1135-11.898-0.002063-0.0041c-0.002845-0.0061-0.17078-0.3575-0.06494-0.68534l4.2394-8.5321-3.7209 8.2145c-0.093462 0.23918-0.018635 0.47448 0.036062 0.64628 0.00925 0.029103 0.018066 0.056794 0.025322 0.082648l3.6861 12.143c0.05299 0.17335 0.17789 0.29887 0.28956 0.38096" fill="#bcbec0"/>
   <path d="m10.75 3.7404c0.01814-0.057641 0.05164-0.096069 0.10164-0.11585 0.05961-0.02324 0.98591-0.34521 0.98591-0.34521s0.92673 0.32197 0.98662 0.34521c0.05007 0.019779 0.08308 0.058207 0.10114 0.11585l0.02354 0.10801h-2.2153z" fill="#4d4d4f"/>
   <path d="m10.75 2.2734c0.01814-0.057359 0.05164-0.095645 0.10164-0.11521 0.05961-0.023452 0.98591-0.34564 0.98591-0.34564s0.92673 0.32219 0.98662 0.34564c0.05007 0.019567 0.08308 0.057853 0.10114 0.11521l0.02354 0.10815h-2.2153z" fill="#4d4d4f"/>
   <path d="m19.061 6.1882c-0.17405-0.46424-1.5578-4.2386-1.5626-4.251-0.0052-0.012574-0.01892-0.037651-0.06295-0.037651h-0.06999c0.35443 2.2947-0.04702 4.8228-1.0592 6.6825h-8.9284c-1.0119-1.8596-1.4137-4.3878-1.0594-6.6825h-0.069634c-0.044384 0-0.058396 0.025077-0.063091 0.037651-0.00526 0.012362-1.3883 3.7868-1.563 4.251-0.025677 0.068096-0.00121 0.11571-0.00121 0.11571s2.1891 4.93 2.2196 4.9955c0.029447 0.06435 0.052208 0.10893 0.11715 0.13598 0.017142 0.0076 4.8839 1.7511 4.8839 1.7511s4.8663-1.7435 4.8836-1.7511c0.06508-0.02705 0.0877-0.07163 0.11693-0.13598 0.03051-0.06555 2.2197-4.9955 2.2197-4.9955s0.02418-0.047611-0.0014-0.11571m-7.2205 6.4852h-0.0075c-0.55565 0-2.2991-0.71607-3.554-2.5968h7.1157c-1.2548 1.8808-2.9983 2.5968-3.5543 2.5968" fill="#4d4d4f"/>
   <path d="m6.918 9.3523c0.044882 0 0.4794-0.77371 0.4794-0.77371h8.8841l0.4794 0.78862z" fill="#c7c8ca"/>
   <polygon points="16.753 9.3596 6.9329 9.3596 8.2962 10.089 15.375 10.096" fill="#6d6e71"/>
   <path d="m19.064 6.1891c-0.17434-0.4641-1.5582-4.2385-1.5628-4.251-0.0051-0.012432-0.01878-0.037651-0.06295-0.037651h-0.05676c0.07803 0.42659 0.491 2.7343 0.491 3.8371 0 0.067036-0.36624 3.3254-2.2208 5.0662 0 0-2.2437 1.8301-3.8692 2.1648-1.5956-0.33469-3.7979-2.1648-3.7979-2.1648-1.8203-1.7408-2.1798-4.9992-2.1798-5.0662 0-1.1028 0.40529-3.4105 0.48196-3.8371h-0.034995c-0.044313 0-0.058467 0.025218-0.063091 0.037651-0.00526 0.012503-1.3884 3.7869-1.563 4.251-0.025748 0.068237-0.00121 0.11564-0.00121 0.11564s2.1892 4.93 2.2195 4.9956c0.029518 0.06435 0.052208 0.10907 0.11722 0.13598 0.017142 0.0076 4.8839 1.7511 4.8839 1.7511s4.8664-1.7436 4.8837-1.7511c0.06501-0.02691 0.0877-0.07163 0.117-0.13598 0.03023-0.06555 2.2194-4.9956 2.2194-4.9956s0.02426-0.047399-0.0011-0.11564" fill="#c7c8ca"/>
   <path d="m15.651 10.804s-2.2438 1.8301-3.8692 2.1647c-1.481-0.3106-3.4842-1.9092-3.7645-2.1373l-1.0968 0.58263c0.011309 0.0085 0.024397 0.01596 0.039832 0.02246 0.017355 0.0074 4.8839 1.7511 4.8839 1.7511s4.4756-1.6037 4.8577-1.7417l-1.0009-0.69022c-0.01679 0.0161-0.03315 0.03235-0.05007 0.04832" fill="#808285"/>
   <path d="m19.062 6.2723s0.02425-0.047399-0.0014-0.11571c-0.17405-0.46417-1.5578-4.2386-1.5625-4.2509-0.0053-0.012644-0.01899-0.037721-0.06295-0.037721h-0.05697c0.07817 0.42638 0.49114 2.7343 0.49114 3.8371 0 0.00777-0.0052 0.059337-0.01679 0.14608l1.2034 0.43457c4e-3 -0.00883 0.0061-0.013492 0.0061-0.013492" fill="#939598"/>
   <path d="m5.8093 5.7163c0-1.1028 0.40529-3.4107 0.48196-3.837h-0.035066c-0.044313 0-0.058254 0.025006-0.06302 0.037651-0.00526 0.012362-1.3883 3.7867-1.563 4.251-0.00555 0.014764-0.00854 0.028256-0.0101 0.0409l1.1915-0.4641c-0.00149-0.015541-0.00228-0.025359-0.00228-0.028397" fill="#939598"/>
   <path d="m12.825 2.1788c-0.05989-0.024851-0.98662-0.36633-0.98662-0.36633s-0.92637 0.34148-0.98591 0.36633c-0.0106 0.00442-0.02034 0.00996-0.02937 0.016019h2.0312c-0.0092-0.00606-0.01885-0.011602-0.02931-0.016019" fill="#c7c8ca"/>
   <path d="m12.825 3.6417c-0.05989-0.024852-0.98662-0.36641-0.98662-0.36641s-0.92637 0.34156-0.98591 0.36641c-0.0106 0.00442-0.02034 0.00988-0.02937 0.015944h2.0312c-0.0092-0.00606-0.01885-0.011528-0.02931-0.015944" fill="#c7c8ca"/>
   <path d="m1.3631 19.256 0.064727-0.20125c0.017071-0.05291 0.045878-0.09918 0.088839-0.1429 0.10186-0.10695 0.40913-0.4042 0.48239-0.4742 0.073689-0.07015 0.16772-0.10144 0.305-0.10144l1.0482-0.01264c0.33715 0.91951 0.61803 1.7706 0.82772 2.3954z" fill="#2d2a2b"/>
   <path d="m22.374 19.256-0.06466-0.20125c-0.01721-0.05291-0.04595-0.09918-0.0887-0.1429-0.10186-0.10695-0.4092-0.4042-0.4826-0.4742-0.07348-0.07015-0.16765-0.10144-0.30493-0.10144l-1.0481-0.01264c-0.33715 0.91951-0.59108 1.7723-0.82032 2.388z" fill="#2d2a2b"/>
   <path d="m22.378 13.833c0.14126 0 0.31318 0.01794 0.40187 0.10596 0.08166 0.08123 0.43744 0.43521 0.53929 0.54675 0.02973 0.0327 0.14887 0.06696 0.0941 0.29591-0.02824 0.11818-0.88028 3.2588-1.0668 4.0293-0.02049-0.06619 0.01401 0.35666-0.04004 0.2993-0.11124-0.12164-0.44092-0.45372-0.51369-0.52619-0.09176-0.09113-0.21104-0.13351-0.3757-0.13351h-19.054c-0.16431 0-0.28359 0.04238-0.37563 0.13351-0.072906 0.07248-0.40244 0.40455-0.51354 0.52619-0.054129 0.05736-0.044882 0.09748-0.065153 0.16353-0.18643-0.7706-0.9832-4.3127-1.0114-4.4308-0.054769-0.22887 0.052564-0.33928 0.082224-0.37213 0.10164-0.11161 0.42463-0.43704 0.50636-0.51842 0.088626-0.08809 0.2003-0.11931 0.34134-0.11931z" fill="#3b3b3c"/>
   <path d="m13.635 4.841s-0.86627 7.07e-5 -1.5943 1.413e-4c-0.74549 1.413e-4 -1.5064 1.413e-4 -1.6834-2.826e-4 -0.33565-3.532e-4 -0.55814 0.17533-0.58965 0.43803-0.011594 0.096776-0.022903 0.18211-0.022903 0.18211h4.3671s0.0083-0.063999 0.01465-0.11528c0.03336-0.26476-0.07981-0.50472-0.49142-0.50472" fill="#da2228"/>
   <path d="m14.083 5.6973s-0.0098 0.087451-0.02297 0.18281c-0.02675 0.18903-0.16857 0.32996-0.43218 0.32996h-0.92993l-0.10534 0.84018h-0.74031l0.16793-1.353z" fill="#da2228"/>
   <polygon points="7.6154 5.461 7.6925 4.8405 9.6735 4.8411 9.5959 5.461" fill="#da2228"/>
   <polygon points="8.2622 6.2101 8.2305 6.4632 9.4705 6.4633 9.3968 7.0502 7.4167 7.0502 7.5858 5.6973 9.5664 5.6973 9.5022 6.2101" fill="#da2228"/>
   <path d="m14.34 4.841h1.615c0.25535 0 0.52108 0.11776 0.46831 0.52471-0.0095 0.07297-0.01216 0.095292-0.01216 0.095292h-2.1484z" fill="#da2228"/>
   <polygon points="14.064 7.0502 14.233 5.6971 14.974 5.6974 14.805 7.0499" fill="#da2228"/>
   <polygon points="15.471 7.0502 15.64 5.6971 16.381 5.6974 16.212 7.0499" fill="#da2228"/>
   <path d="m11.343 5.6975c-0.12824 0-1.3738-2.119e-4 -1.6268-2.119e-4 -0.054769 0.35305 0.12298 0.51277 0.3752 0.51277 0.13721 0 1.0019-4.239e-4 1.0019-4.239e-4l-0.03144 0.25352-1.4416 1.413e-4 -0.072978 0.58694s1.5689 4.945e-4 1.6327 0c0.05235-0.00381 0.41951-0.013704 0.5447-0.31194 0.04061-0.096776 0.07696-0.44383 0.08706-0.51673 0.05825-0.42299-0.23643-0.52407-0.4688-0.52407" fill="#da2228"/>
   <path d="m3.943 18.544 1.0996 3.6333c0.086492 0.28249 0.42698 0.42405 0.42698 0.42405l6.4052 2.2463 6.405-2.2463s0.34063-0.14156 0.42705-0.42405l1.0996-3.6333z" fill="#42683c"/>
   <path d="m23.459 14.568c-0.02433-0.05199-0.04168-0.1032-0.08557-0.14997l-0.0048-5e-3c-0.10335-0.11345-0.423-0.43584-0.51042-0.52287-0.10463-0.1037-0.2232-0.15717-0.44377-0.14862l-10.688-0.0034h-10.403c-0.18287 0-0.3168 0.04839-0.42136 0.15223-0.087416 0.08703-0.40707 0.40935-0.51056 0.52294l-0.004552 0.0048c-0.043957 0.0469-0.077885 0.09635-0.10214 0.14834l0.053346 0.21142c0.002134 0.01646 0.004837 0.0332 0.009104 0.05079 0.028167 0.11804 0.82921 3.6885 1.0159 4.46l-0.00121 0.0022 2.8404 1.4881-0.041183-0.10794-2.6775-1.4169c0.015648-0.03045 0.035564-0.0592 0.061241-0.08653l0.00149-0.0015c0.10961-0.12002 0.43765-0.45075 0.5097-0.52209 0.070203-0.06965 0.16132-0.10066 0.29547-0.10066h9.3675v-2.12e-4h9.6746c0.13408 0 0.22526 0.03094 0.29554 0.1008 0.07198 0.07127 0.40002 0.40208 0.50949 0.52202l0.0016 0.0015c0.02034 0.02162 0.03734 0.0438 0.05114 0.06718l-2.6616 1.4067-0.04118 0.10787 2.7729-1.4504 0.01757-0.0047 0.03663-0.01794-4.27e-4 -9.89e-4c0.18685-0.773 0.98939-4.3341 1.0176-4.4521 0.02312-0.09678 0.01223-0.1749-0.01003-0.23565 0.02049 0.04154 0.03492 0.09642 0.03016 0.17335zm-11.74 3.8788v7.1e-5h-9.3675c-0.058467 0-0.11089 0.0057-0.15847 0.01702l-1.0476-4.6068c0.051852-0.01491 0.11018-0.02261 0.17789-0.02261h10.403v-1.41e-4h10.71c0.06338 0.0013 0.11886 0.0083 0.16857 0.02133l-1.0632 4.606c-0.04495-0.0097-0.09396-0.01483-0.14844-0.01483zm9.9973 0.09317c0.0202 0.01342 0.04026 0.02932 0.06259 0.05136 0.02461 0.02444 0.07411 0.07643 0.1328 0.13916-0.06971-0.07057-0.12839-0.12941-0.15406-0.15498-0.01309-0.01293-0.02689-0.02451-0.04133-0.03553z" fill="#77787b"/>
   <polygon points="4.902 19.283 4.902 19.666 6.1696 19.666 6.1696 19.283" fill="#fff"/>
   <polygon points="5.3304 20.421 5.3304 20.803 6.5975 20.803 6.5975 20.421" fill="#fff"/>
   <polygon points="5.7333 21.559 5.7333 21.941 7.0004 21.941 7.0004 21.559" fill="#fff"/>
   <polygon points="17.567 19.283 17.567 19.666 18.834 19.666 18.834 19.283" fill="#fff"/>
   <polygon points="17.138 20.421 17.138 20.803 18.406 20.803 18.406 20.421" fill="#fff"/>
   <polygon points="16.735 21.559 16.735 21.941 18.003 21.941 18.003 21.559" fill="#fff"/>
   <path d="m3.2261 15.063v1.7223l-0.34881 0.39311h1.1509v-0.52238h-0.35934v-0.70851h1.1455v1.5049c0 0.03617-0.020769 0.08794-0.046802 0.1138l-0.29148 0.28962c-0.031296 0.02578-0.083362 0.04648-0.11978 0.04648h-1.4529c-0.036631 0-0.088554-0.0207-0.11452-0.04648l-0.2917-0.28962c-0.031296-0.02585-0.052066-0.07763-0.052066-0.1138v-2.6737c0-0.03617 0.02077-0.08795 0.052066-0.11387l0.28643-0.27917c0.026175-0.02592 0.078241-0.04662 0.11459-0.04662h1.4581c0.036418 0 0.088483 0.0207 0.11978 0.04662l0.29148 0.27917 0.046802 0.11387v0.74461h-0.78618v-0.46036z" fill="#e6e7e8"/>
   <path d="m7.5294 14.779v2.6789c0 0.04139-0.026104 0.08788-0.051995 0.11373l-0.2917 0.28453c-0.025891 0.02578-0.078099 0.04648-0.11445 0.04648h-1.4582c-0.036418 0-0.088554-0.0207-0.11445-0.04648l-0.29689-0.28453c-0.026104-0.02585-0.046945-0.07234-0.046945-0.11373v-2.6789c0-0.03617 0.020841-0.08788 0.046945-0.1138l0.29689-0.27917c0.031225-0.02599 0.083149-0.04669 0.11978-0.04669h1.4529c0.036347 0 0.088555 0.02592 0.11445 0.04669l0.2917 0.27917c0.025891 0.02592 0.051995 0.07763 0.051995 0.1138zm-0.78113 0.28425h-0.81243v1.7171l-0.34355 0.3984h1.156z" fill="#e6e7e8"/>
   <path d="m9.4374 17.489h-0.87993l-0.093747 0.41373h-0.78646l0.88533-3.5632h0.86442l0.88533 3.5632h-0.79678zm-0.13543-0.62558-0.31232-1.5516-0.31239 1.5516z" fill="#e6e7e8"/>
   <path d="m12.475 17.153v0.74976h-1.531c-0.03642 0-0.08856-0.01547-0.11971-0.04648l-0.2917-0.28969c-0.02603-0.02578-0.0468-0.07756-0.0468-0.11373v-3.1134h0.7812v2.4204l-0.3491 0.39311z" fill="#e6e7e8"/>
   <path d="m15.245 17.153v0.74976h-1.5309c-0.03642 0-0.08855-0.01547-0.11985-0.04648l-0.29162-0.28969c-0.0261-0.02578-0.04687-0.07756-0.04687-0.11373v-3.1134h0.7812v2.4204l-0.34896 0.39311z" fill="#e6e7e8"/>
   <polygon points="15.481 14.34 15.481 17.903 16.262 17.903 16.262 14.34" fill="#e6e7e8"/>
   <polygon points="17.255 15.788 17.255 17.903 16.578 17.903 16.578 14.34 17.291 14.34 18.286 16.481 18.286 14.34 18.963 14.34 18.963 17.903 18.218 17.903" fill="#e6e7e8"/>
   <path d="m19.736 17.903c-0.03663 0-0.08863-0.0207-0.11466-0.04648l-0.29155-0.28969c-0.0261-0.02578-0.05214-0.07756-0.05214-0.11373v-3.1134h2.0831v0.72391h-1.2967v0.70865h1.0155v0.69827h-1.0207v0.31011l-0.34888 0.3984h1.6352v0.72391z" fill="#e6e7e8"/>
  </g>
 </g>
</svg>
