<svg width="800" height="738.09" version="1.1" viewBox="0 0 800 738.09" xmlns="http://www.w3.org/2000/svg">
 <g transform="matrix(29.413 0 0 29.413 -224.95 -105.62)" fill="none" fill-rule="evenodd">
  <g transform="translate(7,3)">
   <path d="m24.66 19.268 2.9235-1.2603c-0.345-0.13344-7.7913-2.9053-13.292-2.8987-5.6285 0.0067-12.693 2.6074-13.385 2.8766l2.7522 1.216-0.12615 2.2819-0.020291 0.03177s5.1944-2.9254 10.849-2.9009c5.2994 0.02305 10.386 2.8676 10.386 2.8676l0.02272-0.02355-0.11116-2.1903" fill="#262261"/>
   <polygon points="26.691 13.138 14.219 0.59091 1.7472 13.138 14.219 25.685" fill="#4069b1"/>
   <path d="m17.669 21.048-6.8424-0.0045-0.58048-0.58398 8.0061 0.0052zm-6.0581 0.78444-0.58805-0.59155 6.449 0.0043-0.59097 0.59085zm3.9104 0.9222 0.44062 2.49e-4 -0.44062 0.44069zm-2.5735-0.0016v0.42436l-0.42211-0.42466zm3.736-0.71991-0.5249 0.52483-0.63759-4.48e-4v-0.40753h-2.5735v0.40574l-0.61839-4.48e-4 -0.52218-0.52533 4.8766 0.0031zm-8.2239-3.3706-0.68174-0.68585 12.955 0.0074-0.68619 0.68615zm0.7969 0.80166-0.60072-0.6043 11.194 0.0075-0.60339 0.60335zm0.19613 0.19732 9.5964 0.0063-0.59988 0.59986-8.3994-0.0055zm11.588-1.8104 0.06498-0.06413-13.811-0.0091 0.15822 0.15031 5.6077 5.6414 1.1791 1.1863 1.4034-1.4119-0.0049-0.0031 2.8416-2.8759h0.0091v-0.0092l2.5736-2.6047z" fill="#fff"/>
   <polygon points="22.753 18.235 22.914 18.72 20.455 19.442 21.849 18.16" fill="#929497"/>
   <polygon points="5.6682 18.293 5.6063 18.778 8.0149 19.5 6.6704 18.218" fill="#929497"/>
   <polygon points="24.257 11.678 22.854 13.09 24.257 14.502 25.66 13.09" fill="#faaf40"/>
   <polygon points="4.18 11.681 2.7768 13.093 4.1801 14.505 5.5833 13.093" fill="#faaf40"/>
   <path d="m16.92 19.846c0 1.4892-1.1999 2.6963-2.6801 2.6963s-2.6802-1.2071-2.6802-2.6963c0-1.489 1.2-2.6962 2.6802-2.6962 1.4803 0 2.6801 1.2072 2.6801 2.6962" fill="#fff"/>
   <path d="m16.755 19.858c0 1.4018-1.1297 2.5382-2.5232 2.5382s-2.5232-1.1364-2.5232-2.5382c0-1.402 1.1297-2.5384 2.5232-2.5384s2.5232 1.1364 2.5232 2.5384" fill="#262261"/>
   <path d="m5.5754 18.71s3.0663-1.5313 8.7209-1.5068c5.2995 0.023 8.6543 1.4734 8.6543 1.4734l3.742-3.4678s-5.625-2.2709-12.368-2.2577c-7.5689 0.014787-12.368 2.2577-12.368 2.2577l3.6182 3.5012" fill="#262261"/>
   <path d="m24.558 19.204 0.0035 0.06926 0.10408 2.0507c-0.37222-0.19766-1.5106-0.77806-3.0886-1.3606-0.38048-0.14041-0.7873-0.28081-1.2143-0.41614l2.5902-0.76074 0.01767 0.0076 0.02014-0.01867 0.01767-0.0052-0.0028-0.0086 1.7348-1.6076c0.51297 0.15838 0.97373 0.30775 1.3664 0.43909 0.54994 0.18407 0.96656 0.33259 1.21 0.42152zm-2.8163-0.84344c0.21949 0.06672 0.41033 0.12906 0.56999 0.18387 0.17901 0.06139 0.31912 0.11327 0.41894 0.15176l-1.9892 0.58423zm-7.4449-1.2564c-0.04514-1.99e-4 -0.09007-2.98e-4 -0.13486-2.98e-4 -3.5551 0-6.0757 0.61221-7.4419 1.059l-1.1603 0.39428-3.4274-3.3166c0.81952-0.35301 5.3809-2.1762 12.193-2.1893 0.01945 0 0.0389-5e-5 0.0583-5e-5 3.3472-5e-5 6.4171 0.56282 8.6492 1.1259 1.116 0.28151 2.0226 0.56297 2.6497 0.77393 0.31362 0.1055 0.55727 0.19333 0.72242 0.25472 0.03905 0.01454 0.07339 0.02743 0.10353 0.03893l-3.5717 3.3099-1.1906-0.40066c-1.435-0.43202-4.0417-1.0348-7.4495-1.0497zm-6.5584 2.2355-1.9941-0.59762c0.16515-0.07329 0.49308-0.20976 0.97858-0.37073zm-0.97972 0.63153c-1.5678 0.57104-2.7006 1.1418-3.1176 1.3621l0.1214-2.195-2.5923-1.1453c0.44126-0.16336 1.3779-0.49586 2.6159-0.876l1.7424 1.6861 2.4363 0.76024c-0.42448 0.13274-0.82823 0.27026-1.206 0.40783zm18.004-0.63885 3.084-1.3295-0.22741-0.08793c-0.08844-0.03421-0.6177-0.23212-1.4502-0.51069-0.36569-0.12233-0.78987-0.26025-1.2603-0.40643l1.9663-1.8221-0.14555-0.0588c-0.0066-0.0022-5.6077-2.2643-12.346-2.2649-0.01955 0-0.03905 4.9e-5 -0.0587 4.9e-5 -7.5884 0.01499-12.401 2.2629-12.409 2.267l-0.13105 0.06124 1.8383 1.7789c-1.4766 0.45637-2.5059 0.83836-2.751 0.93381l-0.2236 0.08703 2.9089 1.2852-0.12086 2.1867-0.00614 0.0097-0.028259 0.23072 0.15986-0.09002s0.0046-0.0026 0.014303-8e-3c0.1503-0.0832 1.474-0.8042 3.438-1.5035 0.38905-0.13862 0.80358-0.27618 1.2388-0.40798l-1.3689-1.3636c1.3708-0.43765 3.8336-1.0161 7.2781-1.0161 0.04449 0 0.08913 1e-4 0.13397 2.99e-4 2.6408 0.01145 4.7968 0.3786 6.2916 0.74256 0.37103 0.09032 0.68169 0.17471 0.96854 0.2591l-1.3838 1.3907c0.47214 0.14688 0.91979 0.30083 1.3364 0.45468 0.96374 0.35575 1.7625 0.71084 2.32 0.97682 0.27873 0.13299 0.49718 0.24367 0.64566 0.32099 0.07429 0.03869 0.131 0.06901 0.16916 0.08962 0.01905 0.01031 0.03346 0.01817 0.04306 0.02345 0.0096 0.0053 0.01411 0.0078 0.01411 0.0078l0.17747 0.09918-0.0056-0.17152z" fill="#fff"/>
   <path d="m6.5352 16.799 0.61873-0.16575-0.043997-0.166 0.77547-0.20777 0.20925 0.79011-2.5451 0.68192-0.1652-0.62416 0.20623-0.055217-0.40251-1.5205-0.20628 0.055266-0.16431-0.62083 1.357-0.36356 0.16436 0.62083-0.20623 0.05522zm-0.38657-2.1611-1.2911 0.34589 0.1503 0.5677 0.20623-0.05527 0.41741 1.5769-0.20623 0.05527 0.1503 0.5677 2.4749-0.66315-0.19425-0.73365-0.70119 0.18786 0.043898 0.166-0.68881 0.18457-0.41741-1.5769 0.20623-0.05522zm0.23726 2.3647 0.99818-0.26747-0.043898-0.166 0.39598-0.1061 0.12828 0.48465-2.1655 0.5803-0.084431-0.31875 0.20628-0.05522-0.48338-1.8259-0.20623 0.05522-0.084382-0.31865 0.97759-0.26194 0.084382 0.3187-0.20623 0.05527z" fill="#fff"/>
   <path d="m8.3693 14.102 1.5501-0.22774 0.62744 0.36959 0.27972 1.9275-0.49605 0.53464-1.5502 0.22774-0.62739-0.36959-0.27982-1.9275zm0.42819 2.8014 1.5121-0.22216 0.48075-0.52204-0.27542-1.8968-0.60849-0.35854-1.5121 0.22216-0.48546 0.51926 0.27537 1.8969zm-0.30882-2.6627 1.3601-0.19981 0.51891 0.30566 0.25755 1.7746-0.41033 0.44218-1.3601 0.19981-0.51891-0.30566-0.25755-1.7745zm1.0694 0.1762-0.68847 0.10112-0.19395 0.20907 0.22058 1.5195 0.24483 0.1411 0.68852-0.10117 0.19445-0.20563-0.22058-1.5195zm0.18985 1.7532-0.55751 0.08195-0.14154-0.0834-0.20479-1.4107 0.1119-0.12064 0.55756-0.0819 0.14149 0.08335 0.20484 1.4108zm-0.25161-1.5844-0.5153 0.07568-0.10066 0.10854 0.19979 1.3768 0.12694 0.07165 0.5153-0.07578 0.097002-0.10446-0.19989-1.3768z" fill="#fff"/>
   <path d="m13.609 14.253-0.17916 0.0076 0.7142 1.5446 0.21326-0.0091 0.02707 0.64532-1.3647 0.05795-0.02707-0.64532 0.11937-5e-3 -0.06092-0.12811-0.67812 0.02883-0.04994 0.13279 0.11516-0.0049 0.02707 0.64532-1.3605 0.05771-0.02702-0.64527 0.21321-0.0091 0.58656-1.5997-0.15778 0.0067-0.02697-0.64184 1.8893-0.08026 0.02697 0.64184zm-1.8564 0.05133 0.17059-0.0072-0.60542 1.659-0.20474 0.0087 0.02465 0.58687 1.2923-0.05482-0.02465-0.58692-0.13219 0.0056 0.06879-0.19209 0.7336-0.03112 0.08463 0.18552-0.12793 0.0054 0.02465 0.58697 1.2922-0.05487-0.0246-0.58692-0.20474 0.0086-0.74226-1.6017 0.19623-0.0083-0.02465-0.58702-1.8211 0.07737 0.0246 0.58692zm1.6535-0.20085-0.25161 0.01065 0.86391 1.8545 0.14931-0.0063 0.01376 0.32951-0.9723 0.04128-0.01386-0.32951 0.19613-0.0083-0.20207-0.43845-0.96809 0.04113-0.16466 0.45403 0.19192-0.0082 0.01381 0.32951-0.96814 0.04108-0.01381-0.32956 0.15352-0.0065 0.70128-1.9209-0.22607 0.0096-0.01376-0.32951 1.4969-0.06353 0.01381 0.32951zm-0.32456 1.2241-0.4274-0.92056-0.34881 0.95352zm-0.22711-0.11755-0.32837 0.01389 0.1455-0.40155 0.18287 0.38766zm-0.0481-0.02544-0.1309-0.26956-0.09933 0.27927z" fill="#fff"/>
   <path d="m16.966 13.71 0.54133 0.48824-0.10848 1.9448-0.59231 0.42421-2.1991-0.12418 0.03593-0.64487 0.21311 0.01205 0.0876-1.571-0.21301-0.012 0.03568-0.64144 2.1992 0.12418zm0.39969 2.4139 0.10675-1.914-0.52505-0.47355-2.148-0.12124-0.03271 0.58652 0.21306 0.01205-0.09091 1.6293-0.21306-0.01205-0.03276 0.58652 2.148 0.12129 0.57464-0.4149zm-0.50639-2.2651 0.44779 0.40379-0.09987 1.7905-0.48991 0.35082-1.9051-0.10755 0.01846-0.32931 0.21306 0.01205 0.10527-1.8865-0.21316-0.01205 0.01841-0.32931 1.905 0.1076zm-0.46026 2.1968 0.23137-0.16236 0.08552-1.5332-0.21162-0.19089-0.77141-0.04356-0.10527 1.8865 0.77141 0.04357zm0.02979-1.76 0.12204 0.11013-0.07933 1.4235-0.13362 0.0956-0.54123-0.03047 0.09091-1.6293 0.54123 0.03057zm-0.11046 1.5972 0.12002-0.0827 0.07745-1.3892-0.10987-0.09908-0.4859-0.02743-0.0876 1.571z" fill="#fff"/>
   <path d="m19.483 16.247 0.01712-0.11203 0.79319 0.12208-0.11413 0.75048-2.5865-0.39812 0.0971-0.63845 0.21088 0.03246 0.23662-1.5553-0.21103-0.03246 0.09661-0.63502 2.5865 0.39812-0.11363 0.74709-0.79319-0.12208 0.01693-0.11208-0.61601-0.09485-0.07023 0.4619 0.14352 0.02206 0.01698-0.11208 0.78913 0.12149-0.13076 0.85912-0.78898-0.12144 0.01702-0.11203-0.14352-0.02211-0.06963 0.45846 0.61596 0.0948zm-0.3644-0.5566-0.01762 0.11556 0.72158 0.11103 0.12239-0.80485-0.72153-0.11103-0.01707 0.11208-0.21093-0.03251 0.07849-0.51622 0.68352 0.10521-0.01703 0.11208 0.72153 0.11108 0.10537-0.69277-2.5148-0.38716-0.08829 0.58075 0.21088 0.03251-0.24533 1.6131-0.21093-0.03246-0.08834 0.5807 2.5148 0.38701 0.10591-0.69611-0.72153-0.11108-0.01762 0.11551-0.68352-0.10526 0.07899-0.51955 0.21103 0.03241zm0.89024 1.1311-2.1983-0.33837 0.04954-0.32607 0.21108 0.03256 0.28398-1.8678-0.21098-0.03246 0.04959-0.32602 2.1983 0.33837-0.06706 0.44148-0.40513-0.06234 0.01762-0.11546-1.0042-0.1546-0.11784 0.77428 0.52742 0.08121 0.01762-0.11551 0.40503 0.06234-0.08359 0.55018-0.40518-0.06239 0.01712-0.11203-0.52742-0.08121-0.11729 0.77094 1.0043 0.15455 0.01697-0.11208 0.40513 0.06229z" fill="#fff"/>
   <path d="m23.342 14.885 0.4223 0.59533-0.52787 1.8741-0.67006 0.2839-2.1191-0.6042 0.17505-0.62142 0.20524 0.05855 0.42651-1.5138-0.20534-0.05855 0.17406-0.61814zm-0.13372 2.4436 0.5195-1.8444-0.40968-0.57741-2.0699-0.59011-0.15916 0.56521 0.20534 0.0585-0.4423 1.5701-0.20529-0.05855-0.15921 0.56521 2.0698 0.5901zm-0.0027-2.3218 0.34936 0.49242-0.4861 1.7254-0.5541 0.23481-1.8358-0.52339 0.08943-0.31731 0.20529 0.05855 0.51213-1.818-0.20534-0.0585 0.08933-0.31736zm-0.92587 2.0427 0.26101-0.1076 0.41622-1.4775-0.16515-0.23277-0.7434-0.21195-0.51208 1.818zm0.41102-1.711 0.09522 0.13433-0.38638 1.3717-0.15119 0.06403-0.52158-0.14867 0.4423-1.57zm-0.45452 1.5345 0.13516-0.05437 0.37712-1.3386-0.08582-0.12089-0.46818-0.13344-0.42646 1.5138z" fill="#fff"/>
   <path d="m16.156 21.012c0-0.06284 0.04773-0.11032 0.10903-0.11032 0.06046 0 0.10835 0.04747 0.10835 0.11032 0 0.06391-0.04788 0.111-0.10835 0.111-0.0613 0-0.10903-0.0471-0.10903-0.111zm0.10903 0.13311c0.07281 0 0.13503-0.05611 0.13503-0.13311 0-0.07632-0.06222-0.13235-0.13503-0.13235-0.07365 0-0.13595 0.05603-0.13595 0.13235 0 0.077 0.06229 0.13311 0.13595 0.13311zm-0.02844-0.12258h0.02691l0.04072 0.06648h0.02615l-0.04384-0.06761c0.02272-0.0027 0.04003-0.01461 0.04003-0.04202 0-0.03021-0.01815-0.04369-0.05459-0.04369h-0.05863v0.15333h0.02325zm0-0.0044v-0.0628h0.0419c0.0215 0 0.044 0.0047 0.044 0.0298 0 0.031-0.023 0.033-0.0491 0.033z" fill="#006dad"/>
   <path d="m8.4965 11.933-0.57479 0.88625-2.824 0.59742-0.21637-1.0351 0.27363-0.057855-0.52708-2.5216-0.27359 0.057856-0.21524-1.0295 2.824-0.59742 0.88089 0.57826 0.24518 1.1727-0.2377 0.3665 0.36425 0.23919zm-0.69173-3.0905-0.85441-0.56093-2.7583 0.58353 0.19682 0.94147 0.27363-0.057856 0.54663 2.6152-0.27363 0.057906 0.19678 0.94152 2.7583-0.58358 0.55638-0.86509-0.27047-1.2939-0.39073-0.25652 0.25493-0.39314zm0.18218 1.9104 0.23137 1.1067-0.47546 0.733-2.4463 0.51756-0.11051-0.52862 0.27368-0.057856-0.63294-3.0282-0.27368 0.057856-0.11046-0.52852 2.4464-0.51751 0.72855 0.47828 0.19682 0.94147-0.32416 0.49979zm-1.1747-0.45288 0.22474-0.34649-0.12541-0.60016-0.34446-0.22609-0.99061 0.20956 0.24513 1.1727zm-0.28898-0.94501 0.19876 0.13045 0.088588 0.42396-0.12972 0.19991-0.695 0.14708-0.15773-0.75431zm-0.018114 0.049839-0.62398 0.13199 0.13932 0.66623 0.62383-0.13199 0.11675-0.17994-0.077156-0.36889zm0.69495 2.7506 0.22583-0.34101-0.1599-0.76532-0.34337-0.22057-0.99051 0.20956 0.2773 1.3269zm-0.32238-1.1046 0.19876 0.13045 0.12303 0.58911-0.12957 0.1999-0.69505 0.14703-0.19222-0.91946zm-0.018114 0.04984-0.62398 0.13199 0.17267 0.82586 0.62388-0.13199 0.11779-0.17441-0.1116-0.53404z" fill="#fff"/>
   <path d="m11.708 8.7175-0.23399 0.020912 1.0735 2.491 0.27853-0.02489 0.09304 1.0536-1.7826 0.15943-0.09309-1.0536 0.15604-0.01394-0.09121-0.20643-0.88579 0.07912-0.0536 0.21947 0.1504-0.01349 0.09304 1.0536-1.7769 0.15888-0.093092-1.0535 0.27853-0.0249 0.62562-2.6429-0.20613 0.018422-0.092597-1.048 2.4678-0.22062zm-2.4271 0.17177 0.22286-0.019916-0.64501 2.7407-0.26745 0.0239 0.084629 0.9583 1.6879-0.15091-0.08463-0.9583-0.17272 0.01544 0.073-0.31716 0.95819-0.08569 0.12749 0.29928-0.16708 0.01494 0.08463 0.9583 1.6878-0.15091-0.08468-0.9583-0.26735 0.0239-1.1152-2.5832 0.25621-0.022953-0.08468-0.95825-2.3786 0.2126zm2.1481-0.40668-0.32862 0.029376 1.2972 2.9907 0.19499-0.01743 0.04751 0.53803-1.2701 0.11352-0.04751-0.53803 0.25626-0.0229-0.30392-0.70711-1.2645 0.11312-0.17515 0.74988 0.25072-0.02241 0.04746 0.53803-1.2645 0.11302-0.047511-0.53798 0.20054-0.01797 0.74712-3.1734-0.29526 0.026388-0.047462-0.53798 1.9552-0.17476zm-0.31595 2.0165-0.64204-1.4846-0.37182 1.5753zm-0.30793-0.18143-0.42894 0.03834 0.15476-0.6634zm-0.06528-0.03933-0.19559-0.43441-0.10527 0.46125z" fill="#fff"/>
   <path d="m13.612 10.468-0.73761-0.75441 0.01128-1.384 0.74998-0.74211 2.0523 0.017028 0.73771 0.75451-0.0077 0.9226-1.2806-0.010605 0.0038-0.46698-0.14412-0.1531-0.68223-0.00563-0.15223 0.15061-0.0039 0.47255 0.14976 0.1532 1.3646 0.011302 0.73761 0.75446-0.01119 1.3615-0.74984 0.74206-2.0524-0.01703-0.73766-0.75446 0.0074-0.90014 1.2806 0.01065-0.0037 0.44447 0.14981 0.14753 0.68228 0.0056 0.14659-0.14504 0.0037-0.45015-0.14412-0.15305zm1.5606 0.64313-0.16916 0.16739-0.73816-0.0061-0.16634-0.17018 0.0035-0.42759-1.1911-0.0099-0.0068 0.82705 0.72103 0.73738 2.0021 0.01663 0.72737-0.72538 0.01084-1.3108-0.71549-0.73181-1.3702-0.011352-0.16634-0.17018 0.0044-0.52886 0.16916-0.16739 0.73816 0.00612 0.16629 0.17018-0.0036 0.4501 1.1856 0.00986 7e-3 -0.85519-0.71549-0.73171-2.002-0.01663-0.73286 0.71971-0.01109 1.339 0.72108 0.73186 1.3702 0.0113 0.16629 0.17018zm-1.4298-0.90089-0.61012-0.62396 0.0093-1.1308 0.62022-0.61376 1.8007 0.014987 0.61012 0.62396-0.0045 0.54012-0.77171-0.00647 0.0027-0.32627-0.28843-0.295-0.91152-0.00752-0.29318 0.29012-0.0058 0.7089 0.28843 0.28933 1.3589 0.011252 0.61002 0.62401-9e-3 1.1083-0.62017 0.61376-1.8007-0.01494-0.61007-0.62401 0.0043-0.51756 0.76607 0.0063-0.0025 0.30944 0.28843 0.28938 0.91147 0.0076 0.29318-0.28455 0.0056-0.6863-0.28838-0.295z" fill="#fff"/>
   <path d="m18.887 11.462 0.01792-0.18477 1.0464 0.10217-0.11947 1.2376-3.4121-0.33324 0.1016-1.0528 0.27839 0.02719 0.24745-2.5647-0.27829-0.027185 0.10101-1.0472 3.4121 0.33329-0.11888 1.2319-1.0465-0.10217 0.01787-0.18482-0.81274-0.079365-0.07344 0.76158 0.18925 0.018472 0.01782-0.18477 1.0409 0.10167-0.13679 1.4168-1.0408-0.10167 0.01772-0.18482-0.18925-0.01847-0.0729 0.756zm-0.50109-0.86295-0.01836 0.19045 0.95186 0.09296 0.12808-1.3272-0.95186-0.092957-0.01777 0.18477-0.27839-0.027185 0.0822-0.85115 0.90172 0.088078-0.01792 0.18477 0.95196 0.092957 0.11017-1.1423-3.3175-0.32403-0.0924 0.95755 0.27834 0.027185-0.25671 2.66-0.27829-0.02718-0.0924 0.95755 3.3174 0.32403 0.11091-1.1479-0.95196-0.09301-0.01836 0.19044-0.90167-0.08808 0.08265-0.85678zm1.2148 1.7353-2.9-0.28325 0.05187-0.53758 0.27834 0.02719 0.29719-3.0799-0.27829-0.027185 0.05192-0.53758 2.9 0.28325-0.07018 0.72797-0.53435-0.052179 0.01836-0.1904-1.3248-0.1294-0.12318 1.2768 0.69579 0.068013 0.01836-0.19045 0.53435 0.052229-0.0876 0.90717-0.53435-0.05218 0.01791-0.18482-0.69579-0.06796-0.12274 1.2712 1.3248 0.1294 0.01782-0.18482 0.5343 0.05223z" fill="#fff"/>
   <path d="m20.931 10.97-0.57855-0.88372 0.27715-1.3557 0.87836-0.58214 2.0104 0.41604 0.5787 0.88376-0.1849 0.90373-1.2543-0.2596 0.09349-0.45737-0.11195-0.1783-0.66832-0.13832-0.17832 0.11815-0.09473 0.46294 0.11754 0.17944 1.3365 0.27653 0.5787 0.88376-0.2727 1.3336-0.87841 0.58214-2.0104-0.41604-0.57865-0.88372 0.18034-0.88172 1.2543 0.2596-0.08898 0.43536 0.11858 0.17386 0.66832 0.13832 0.17173-0.11377 0.09012-0.44089-0.11205-0.1783zm1.4076 0.93465-0.19816 0.1313-0.72306-0.14962-0.13046-0.19936 0.08562-0.41883-1.1667-0.24143-0.16574 0.81008 0.56573 0.8638 1.9611 0.40578 0.85297-0.57014 0.2627-1.284-0.56137-0.85713-1.342-0.27773-0.13056-0.19936 0.10601-0.51801 0.19806-0.13134 0.72306 0.14967 0.13056 0.19936-0.09022 0.44084 1.1613 0.24038 0.17129-0.83766-0.56123-0.85718-1.9611-0.40583-0.85748 0.56352-0.26814 1.3116 0.56672 0.85827 1.3421 0.27778 0.13046 0.19931zm-1.2297-1.162-0.47862-0.73091 0.22647-1.1077 0.72657-0.48151 1.7638 0.36506 0.47862 0.73086-0.10809 0.52911-0.75607-0.15649 0.06543-0.31965-0.22627-0.34549-0.89286-0.18482-0.34337 0.22764-0.14199 0.69437 0.22731 0.34001 1.3311 0.27549 0.47858 0.73086-0.22202 1.0856-0.72648 0.48152-1.7639-0.36506-0.47858-0.73086 0.10363-0.50696 0.75048 0.15524-0.06196 0.30317 0.22736 0.33996 0.89286 0.18477 0.34228-0.22211 0.13754-0.67231-0.22627-0.34554z" fill="#fff"/>
   <path d="m15.372 5.3481s-2.1838 1.494e-4 -2.3085 0c-0.23637-3.485e-4 -0.39291 0.12507-0.41493 0.31243-0.0081 0.069008-0.01594 0.12995-0.01594 0.12995h3.0758s0.0058-0.045707 0.01025-0.082352c0.02311-0.1888-0.05667-0.36003-0.34663-0.36003" fill="#fff"/>
   <path d="m15.688 5.959s-0.0067 0.062436-0.01613 0.13045c-0.01851 0.13493-0.11833 0.23541-0.30402 0.23541h-0.65486l-0.07354 0.59947h-0.52134l0.11784-0.96532h1.4521" fill="#fff"/>
   <polygon points="11.187 5.3481 12.582 5.3481 12.528 5.7905 11.133 5.7905" fill="#fff"/>
   <polygon points="11.589 6.3248 11.567 6.5055 12.441 6.5055 12.389 6.9243 10.995 6.9243 11.112 5.959 12.507 5.959 12.462 6.3248" fill="#fff"/>
   <path d="m15.869 5.3481h1.1375c0.17975 0 0.36608 0.083995 0.32926 0.37437-0.0066 0.05198-0.0085 0.068013-0.0085 0.068013h-1.5122l0.05395-0.44238" fill="#fff"/>
   <polygon points="15.676 6.9243 15.794 5.9588 16.316 5.9591 16.198 6.9241" fill="#fff"/>
   <polygon points="16.667 6.9243 16.785 5.9588 17.307 5.9591 17.189 6.9241" fill="#fff"/>
   <path d="m13.758 5.9593c-0.09022 0-0.96745-2.489e-4 -1.1457-2.489e-4 -0.03826 0.25198 0.08715 0.3658 0.26473 0.3658 0.09661 0 0.70564-2.49e-4 0.70564-2.49e-4l-0.02197 0.18089-1.015 4.98e-5 -0.05112 0.41878s1.105 3.485e-4 1.1498 0c0.03697-0.00284 0.29551-0.00976 0.38345-0.22251 0.02856-0.069108 0.0538-0.31666 0.06087-0.36864 0.04063-0.30187-0.16708-0.37387-0.33075-0.37387" fill="#fff"/>
   <path d="m11.803 4.3339 0.52332-0.52538 3.8096-0.00264 0.51852 0.52488zm2.4372-2.4468 1.7011 1.7218-3.4183 0.00219zm6.8229 6.6257-6.753-6.8347-0.07245 0.072892-0.06963-0.070054-6.7997 6.8264 0.17302 0.10491 1.6874-1.6941 1.3071-0.010207 9.9e-5 -0.19717-1.1092 0.00866 0.61581-0.61824 0.6508-0.010257 9.8e-5 -0.19722-0.45136 0.00712 1.3641-1.3695 5.2429-0.00358 1.3521 1.3686-0.46378 0.00762-9.9e-5 0.19722 0.65006-0.010705v-0.00568l0.64704 0.65488-1.4059 0.00881-9.9e-5 0.19722 1.5996-0.010008 1.6512 1.6712z" fill="#fff"/>
   <polygon points="14.24 1.6081 12.837 3.0199 14.24 4.4316 15.644 3.0199" fill="#faaf40"/>
   <path d="m16.376 19.859c0 1.1824-0.9528 2.141-2.1281 2.141s-2.1281-0.95855-2.1281-2.141c0-1.1824 0.9528-2.141 2.1281-2.141s2.1281 0.95855 2.1281 2.141" fill="#0083c7"/>
   <path d="m15.573 19.808-0.06562 0.23326h0.08626l-0.27458 0.43805-0.03841-0.67131h-0.5641l-0.06424 0.23222 0.08596 1e-3 -0.36831 0.56232-0.30338-0.0013c-0.03187 0-0.15431-0.02957-0.15431-0.18223 0-0.15285 0.14456-0.37467 0.29145-0.37467l0.06157 0.0014c-0.01034 0.03774-0.03192 0.11586-0.03192 0.11586h0.27002l0.0972-0.35465-0.41627-0.0016c-0.25879 0-0.46804 0.18726-0.53415 0.3795l0.10784-0.37671-0.36999-0.0012-0.06538 0.23326 0.09571-4.48e-4 -0.09641 0.34171-0.24211-0.57333h-0.34673l-0.06513 0.23222h0.09502l-0.21489 0.78737h0.27735s0.10675-0.39015 0.13422-0.49073c0.039 0.09495 0.20177 0.49073 0.20177 0.49073h0.30862l0.1412-0.50014c-0.01237 0.07448-0.01312 0.15246-1.49e-4 0.22938 0.02722 0.16396 0.18569 0.27076 0.35866 0.27076h0.56009l0.09621-0.14638h0.39508l0.0079 0.14494h0.35044l0.08918-0.14494h0.40414l0.01584 0.14638h0.24795l0.05469-0.11158-0.06216-0.90921h-0.55613m-0.78765 0.63068 0.21464-0.32786 0.01153 0.32786h-0.22617m0.8597-0.0044 0.21434-0.32667 0.01084 0.32667h-0.22518" fill="#fff"/>
  </g>
 </g>
</svg>
