<svg width="38.158" height="14.158" version="1.1" viewBox="0 0 38.158 14.158" xmlns="http://www.w3.org/2000/svg">
 <polygon transform="translate(-1.17e-5 -.039033)" points="35.531 7.9485 32.969 7.9485 33.554 3.1688 36.115 3.1688" fill="#ef2e31"/>
 <polygon transform="translate(-1.17e-5 -.039033)" points="30.353 7.9485 27.792 7.9485 28.366 3.1547 30.94 3.1547" fill="#ef2e31"/>
 <path d="m28.458 2.2771h7.8053s0.14546-0.67861 0.06407-1.1051c-0.077656-0.42625-0.26689-0.71636-0.58386-0.93276-0.42906-0.28886-1.1825-0.23768-1.1759-0.23136l-5.7892-0.0078862z" fill="#ef2e31"/>
 <path d="m12.291 2.2644s0.04724-0.77613 0.23967-1.1722c0.18259-0.37487 0.41969-0.65253 0.82727-0.87904 0.24072-0.13258 0.6674-0.21312 0.6674-0.21312h12.431s0.52217 0.012493 0.74845 0.10752c0.24143 0.10076 0.58651 0.24521 0.77386 0.69118 0.18181 0.43562 0.13941 0.57351 0.13941 0.99843 0 0.42707-0.0071 0.4688-0.0071 0.4688z" fill="#ef2e31"/>
 <path d="m20.455 3.1157h7.4974s-0.07109 0.86788-0.26817 1.1718c-0.20703 0.32045-0.3865 0.49277-0.7324 0.57171-0.34703 0.080853-0.86628 0.080853-0.86628 0.080853h-3.2694l-0.33356 2.9694h-2.6155z" fill="#ef2e31"/>
 <path d="m12.184 3.1157h6.35s0.57394-0.00242 0.82766 0.16046c0.26993 0.17451 0.40013 0.39966 0.47981 0.74603 0.07964 0.34563-0.13372 2.103-0.26782 2.5288-0.13278 0.42668-0.2871 0.8295-0.94619 1.1579-0.58955 0.29538-1.4812 0.20055-1.4812 0.20055h-5.4958l0.32006-2.1042h5.1496l0.10642-0.8913h-3.5479s-0.57788 0.08628-1.1213-0.37994c-0.33317-0.28664-0.3705-0.71323-0.3931-0.90555-0.01316-0.10994 0.01975-0.51272 0.01975-0.51272" fill="#ef2e31"/>
 <polygon transform="translate(-1.17e-5 -.039033)" points="11.426 4.9655 7.1054 4.9655 6.9978 5.8443 11.32 5.8443 11.053 7.9485 4.1304 7.9485 4.7304 3.1284 11.64 3.1284" fill="#ef2e31"/>
 <polygon transform="translate(-1.17e-5 -.039033)" points="11.747 2.3034 4.8502 2.3034 5.1308 0.039033 12.041 0.039033" fill="#ef2e31"/>
 <path d="m1.88 13.13c0.82458 0 1.1268-0.07328 1.4857-0.38322 0.17865-0.16331 0.32767-0.37573 0.4339-0.60396 0.158-0.35953 0.21949-0.85733 0.17186-1.3059-0.045834-0.43284-0.23331-0.81646-0.52697-1.0452-0.26821-0.22035-0.5623-0.30155-1.0765-0.30155h-0.76731l-0.45518 3.6398zm0.61302-4.5379c0.76727 0 1.2473 0.13867 1.659 0.48157 0.50019 0.40821 0.78117 0.9793 0.86499 1.7712 0.12091 1.1426-0.26142 2.1548-1.0261 2.7181-0.49246 0.35906-0.93819 0.46482-1.9261 0.46482h-2.0648l0.67291-5.4356z" fill="#111"/>
 <path d="m12.625 11.245c0.61235 0 0.89392-0.11458 1.0808-0.43277 0.09522-0.17955 0.14437-0.40829 0.1211-0.62859-0.04763-0.44909-0.36741-0.69356-0.88166-0.69356h-0.92222l-0.22234 1.7549zm-1.1742 2.7825h-1.0284l0.67287-5.4356h1.9264c1.0855 0 1.7475 0.547 1.853 1.5425 0.07332 0.69399-0.18564 1.3305-0.68891 1.6654-0.33497 0.22827-0.71726 0.3183-1.411 0.3183h-1.0774z"/>
 <path d="m17.771 9.351c-1.0366 0-1.7459 1.0856-1.6024 2.4407 0.09764 0.92222 0.638 1.4775 1.4543 1.4775 1.0612 0 1.7338-1.0447 1.5844-2.4568-0.097055-0.91437-0.62816-1.4614-1.4363-1.4614m-0.15183 4.8075c-1.4203 0-2.337-0.87307-2.497-2.383-0.20239-1.9099 0.88868-3.322 2.5782-3.322 1.3957 0 2.393 0.93846 2.5468 2.3914 0.20235 1.9099-0.9141 3.3137-2.628 3.3137"/>
 <path d="m22.894 11.098c0.74271 0 1.1071-0.33497 1.0406-0.96356-0.04759-0.44858-0.37374-0.67728-0.96153-0.67728h-1.0447l-0.2098 1.6408zm-1.5425 2.9296h-1.0285l0.67294-5.4356h1.9509c0.84874 0 1.2961 0.13871 1.6396 0.53033 0.22101 0.23698 0.36148 0.56359 0.39966 0.92265 0.09327 0.88138-0.33778 1.51-1.1887 1.7225l0.92511 2.2602h-1.0612l-0.85402-2.1298h-1.192z"/>
 <polygon transform="translate(-1.17e-5 -.039033)" points="27.236 14.067 26.208 14.067 26.768 9.5696 25.209 9.5696 25.322 8.6311 29.395 8.6311 29.274 9.5696 27.797 9.5696"/>
 <polygon transform="translate(-1.17e-5 -.039033)" points="30.345 13.129 33.471 13.129 33.35 14.067 29.195 14.067 29.868 8.6311 33.753 8.6311 33.633 9.5696 30.792 9.5696 30.635 10.786 33.255 10.786 33.138 11.684 30.526 11.684"/>
 <path d="m37.301 10.11c-0.1988-0.48992-0.62699-0.75946-1.2066-0.75946-0.54673 0-0.89552 0.25326-0.85577 0.62859 0.03205 0.30206 0.16643 0.41614 0.76926 0.63648l0.78226 0.29409c0.44159 0.16338 0.64062 0.26954 0.84742 0.44908 0.28703 0.24455 0.44132 0.54653 0.48282 0.9385 0.11681 1.1018-0.72514 1.8607-2.0556 1.8607-0.68567 0-1.2351-0.17951-1.6919-0.56316-0.34133-0.29366-0.46732-0.48157-0.65955-0.98765l0.94592-0.39158c0.16155 0.67736 0.65846 1.053 1.3688 1.053 0.62012 0 1.0025-0.31861 0.95244-0.79186-0.03529-0.33442-0.23748-0.54692-0.66108-0.69395l-0.59299-0.20414c-0.60904-0.20364-0.94732-0.39154-1.1971-0.669-0.22101-0.23655-0.3575-0.52233-0.39107-0.84102-0.10053-0.94682 0.68567-1.6157 1.8774-1.6157 0.52236 0 1.0185 0.13863 1.4046 0.3915 0.32357 0.2041 0.4706 0.35902 0.73685 0.79186z"/>
 <polygon transform="translate(-1.17e-5 -.039033)" points="10.117 12.082 7.0839 12.082 7.0091 12.699 10.042 12.699 9.8548 14.176 4.9966 14.176 5.4176 10.793 10.267 10.793" fill="#ef2e31"/>
 <polygon transform="translate(-1.17e-5 -.039033)" points="10.342 10.213 5.5019 10.213 5.699 8.6249 10.548 8.6249" fill="#ef2e31"/>
</svg>
