<svg width="40.055" height="5.356" version="1.1" viewBox="0 0 40.055 5.356" xmlns="http://www.w3.org/2000/svg">
 <g transform="translate(-.95453 -13.361)" fill="#ef2e31" fill-rule="evenodd">
  <g fill="#ef2e31" fill-rule="nonzero">
   <g transform="translate(0,13)" fill="#ef2e31">
    <g transform="translate(.95454 .34364)" fill="#ef2e31">
     <path d="m0.62481 0.019001-0.17531 1.5012h4.7887l0.17539-1.5012zm-0.62482 5.3498h4.7664l0.17051-1.4275h-2.9729l0.071906-0.6159h2.9805l0.14401-1.2323-4.7737-0.0017284z"/>
     <polygon points="26.966 3.9413 23.993 3.9413 24.065 3.3255 27.045 3.3255 27.189 2.0932 22.416 2.0914 22.029 5.3688 26.795 5.3688"/>
     <path d="m16.432 1.5202 0.04727-0.40549c0.092131-0.78765-0.57712-1.0958-1.0736-1.0958h-7.9898c-1.1012 0-1.7607 0.26508-1.8528 1.0528l-0.05512 0.44848zm-5.2899 0.57209h5.1637l-0.02268 0.19335c-0.0819 0.70161-0.24218 1.0384-1.2224 1.0384h-2.2743l-0.24273 2.0447h-1.7882zm-5.7035 0.00113h4.105c0.97225 0 1.2625 0.26437 1.1615 1.0384l-0.13874 1.1927c-0.068666 0.58727-0.6057 1.0443-1.3869 1.0443h-4.0813l0.17055-1.4275h3.6127l0.067807-0.62857h-1.9197c-0.92857 0-1.6224-0.044261-1.6224-0.92566z"/>
     <path d="m16.615 2.0914h1.7899l-0.38678 3.2774h-1.7882zm5.0218 3.2796h-1.7991l0.38705-3.2796h1.7928zm-4.9587-3.8521 0.17699-1.5018h3.8105c1.4552 0 1.5183 0.48308 1.43 1.5018z"/>
     <polygon points="22.654 0.019016 22.478 1.5202 29.187 1.52 29.102 0.018001"/>
     <polygon points="34.58 0.018001 34.164 1.52 32.483 1.52 32.922 0.018001"/>
     <polygon points="31.815 0.017513 31.959 1.52 29.711 1.52 30.204 0.017513"/>
     <polygon points="33.054 5.373 34 2.0931 32.321 2.0931 32.089 2.9283 32.014 2.0931 29.534 2.0931 29.263 2.9283 29.219 2.0931 27.544 2.0906 27.768 5.373 30 5.373 30.657 3.3614 30.875 5.373"/>
     <path d="m40.055 0.019756h-3.6711c-1.1012 0-1.7608 0.26493-1.8528 1.0528l-0.05516 0.44848h5.4024zm-5.6483 2.0744h4.105c0.97237 0 1.2623 0.26425 1.1616 1.0386l-0.13889 1.1926c-0.06855 0.58727-0.60554 1.0441-1.3869 1.0441h-4.0815l0.17063-1.4275h3.6128l0.06769-0.62879h-1.9198c-0.9283 0-1.6221-0.044262-1.6221-0.92536z"/>
    </g>
   </g>
  </g>
 </g>
</svg>
