<svg width="39.136" height="7.438" version="1.1" viewBox="0 0 39.136 7.438" xmlns="http://www.w3.org/2000/svg">
 <g transform="translate(-.93182 -12.228)" fill="#ef2c2f" fill-rule="evenodd">
  <g fill="#ef2c2f">
   <g transform="translate(0,12)" fill="#ef2c2f">
    <g transform="translate(.93182 .18182)" fill="#ef2c2f">
     <path d="m0.89378 0.046259h6.7064l-0.28758 2.1013h-6.6534zm-0.33758 2.8668h6.706l-0.2211 1.7052h-4.1214l-0.13212 0.87853h4.136l-0.24907 1.9873h-6.6746zm29.519 4.571h-2.4804l0.54316-4.571h2.5087zm-4.9894 0h-2.4793l0.54399-4.571h2.5086zm-1.8482-5.3365h7.4962c0.33817-1.4061-0.36566-2.1013-1.0997-2.1013h-6.1177zm-7.6862 0.76549h7.3041l-0.15937 0.79656s-0.16138 0.90868-1.2921 0.90868h-3.5798l-0.33711 2.8658h-2.4785zm-7.9653 0s-0.00142 0.44746-0.00142 0.68237c0 0.46122 0.47527 1.0229 1.2029 1.0229 0.45441 0 3.6905 0.00264 3.6905 0.00264l-0.11766 0.87589h-4.9962l-0.26495 1.9873h5.8551c0.49174 0 1.6371-0.38406 1.8323-1.5176 0-9.171e-4 0.2294-1.862 0.23497-1.9318 0.03081-0.36159-0.19717-1.1217-1.215-1.1217zm1.7524-2.8668h12.242s1.5698-0.056176 1.3644 2.1013h-15.229c0-1.4539 1.0345-2.1013 1.622-2.1013zm29.762 2.0342c-0.11968 0.91499-0.27158 1.3143-0.9343 1.5876 0.68428 0.37867 0.61912 0.94663 0.5543 1.4302-0.11944 0.91441-0.23935 2.3445-2.4778 2.3445h-3.6795l0.20618-1.6613h3.343c0.33675 0 0.45607-0.21015 0.51046-0.64133 0.05427-0.43095-0.06541-0.6098-0.34777-0.6098h-2.0365l0.20914-1.6822h2.0773c0.31519 0 0.41306-0.25234 0.45643-0.5785 0.04396-0.35724-0.04337-0.52542-0.31495-0.52542h-3.6551l0.20582-1.6613h3.9488c1.5326 0 2.1304 0.4313 1.9345 1.9976z" fill="#ef2c2f"/>
    </g>
   </g>
  </g>
 </g>
</svg>
