<svg width="575.12pt" height="575.17pt" version="1.1" viewBox="0 0 575.12 575.17" xmlns="http://www.w3.org/2000/svg">
 <defs>
  <radialGradient id="radialGradient903" cx="148.37" cy="521.06" r="256.61" gradientTransform="matrix(-.24884 .63995 -.83264 -.32376 672.68 203.51)" gradientUnits="userSpaceOnUse">
   <stop stop-color="#ff3902" offset="0"/>
   <stop stop-color="#d9000d" offset="1"/>
  </radialGradient>
 </defs>
 <g transform="translate(-25.99 -17.871)" fill="url(#radialGradient903)" stroke-opacity="0" style="font-variant-east_asian:normal;paint-order:normal">
  <path d="m437.95 46.09c37.56 18 71.1 44.31 97.56 76.47 24.35 29.47 42.73 63.85 53.66 100.48 11.12 37.08 14.37 76.41 10.17 114.86-4.38 39.48-17.12 78-37.16 112.3-34.11 58.86-89.77 104.85-154.1 127.05-31.13 10.79-64.14 16.3-97.1 15.75h-284.98c-0.01-98.33 0.01-196.67-0.01-295 1.06-47.79 14.44-95.23 38.46-136.57 22.17-38.28 53.27-71.38 90.18-95.77 39.61-26.41 85.93-42.61 133.36-46.68 51.21-4.49 103.65 4.67 149.96 27.11z" style="font-variant-east_asian:normal;paint-order:normal"/>
  <path d="m351 272c9.03 0.19 18.13-0.55 27.09 0.81 4.86 0.64 9.99 3.79 10.57 9.07 1.45 6.1-1.66 13.34-8.17 14.74-9.67 2.12-19.66 0.73-29.47 1.14-0.04-8.58-0.02-17.17-0.02-25.76z" style="font-variant-east_asian:normal;paint-order:normal"/>
 </g>
 <g transform="translate(-25.99 -17.871)" fill="#fff">
  <path d="m383.05 241.99c14.56-0.54 30.79 3.95 39.22 16.7 6.61 10.07 7.03 23.34 2.85 34.43-2.82 7.64-8.76 14.1-16.4 17.07 8.45 3.36 13.92 11.4 16.47 19.84 4.17 12.64 1.17 26.58 6.3 38.98-12.91-0.03-25.83 0.01-38.74-0.02-2.13-7.45-2.81-15.18-3.45-22.87-0.58-5.47-1.23-11.29-4.48-15.9-2.65-3.76-7.37-5.56-11.85-5.47-7.32-0.01-14.64 0.01-21.96 0.01-0.02 14.74 0 29.49-0.01 44.24h-39v-127c23.68-0.01 47.37 0.02 71.05-0.01zm-32.05 30.01c0 8.59-0.02 17.18 0.02 25.76 9.81-0.41 19.8 0.98 29.47-1.14 6.51-1.4 9.62-8.64 8.17-14.74-0.58-5.28-5.71-8.43-10.57-9.07-8.96-1.36-18.06-0.62-27.09-0.81z"/>
  <path d="m74.76 242.51c32.49-0.01 64.99-0.02 97.48 0 0 10.75 0.04 21.5-0.02 32.25-19.57-0.01-39.14-0.01-58.71 0-0.01 5.33-0.05 10.67 0.03 16.01 16.82-0.04 33.64-0.01 50.45-0.01 0.01 10 0.02 20 0 30-16.81-0.04-33.61 0.03-50.41-0.04-0.19 16.09-0.02 32.18-0.09 48.28-12.91 0-25.82 0.01-38.73-0.01-0.01-42.16-0.01-84.32 0-126.48z"/>
  <path d="m227.43 243.55c16.95-2.89 35.39 0.27 49.36 10.65 11.36 8.37 19.09 21.15 22.1 34.86 4.23 18.9 1.53 39.9-9.71 55.97-7.93 11.4-20.28 19.43-33.77 22.52-17.31 4.01-36.5 1.62-51.41-8.38-12.98-8.62-21.58-22.92-24.52-38.09-3.41-17.33-1.12-36.22 8.27-51.39 8.53-14.02 23.54-23.59 39.68-26.14m5 30.08c-5.57 1.67-10.14 5.84-12.84 10.94-4.19 7.75-4.65 16.83-4.33 25.46 0.41 8.04 2.42 16.57 8.14 22.56 5.08 5.58 13.23 7.93 20.56 6.36 6.56-1.24 12.21-5.8 15.26-11.68 3.92-7.42 4.63-16.06 4.36-24.31-0.32-8.36-2.26-17.19-8.06-23.54-5.72-6.19-15.13-8.51-23.09-5.79z"/>
  <path d="m486.19 243.31c16.49-2.45 34.26 0.78 47.8 10.85 11.61 8.51 19.39 21.61 22.34 35.61 3.72 17.66 1.52 37.01-8.07 52.51-7.74 12.66-20.76 21.79-35.16 25.19-17.29 4.08-36.48 1.83-51.46-8.06-12.93-8.41-21.58-22.44-24.7-37.41-3.49-16.62-1.71-34.66 6.53-49.66 8.45-15.88 24.99-26.69 42.72-29.03m4.99 29.88c-5.25 1.25-9.94 4.57-12.91 9.07-5.26 7.81-6.09 17.6-5.77 26.77 0.28 8.97 2.55 18.76 9.57 24.92 9.1 8.53 25.32 6.77 32.4-3.48 5.15-6.99 6.34-15.96 6.48-24.41-0.08-8.96-1.49-18.54-7.33-25.7-5.28-6.46-14.4-9.3-22.44-7.17z"/>
  <path d="m433 384c6.92 0 13.84-0.01 20.76 0.01 0 5.49-0.02 10.98 0 16.48 10.47 0.04 20.93-0.04 31.39 0.04 2.77 10.82 5.41 21.68 8.39 32.45 2.64-10.86 5.64-21.63 8.33-32.47 7.08-0.02 14.16-0.02 21.24 0-5.98 17.99-11.84 36.03-17.92 53.99h-24.31c-4.54-13.73-9.06-27.47-13.51-41.23-4.54-0.04-9.07-0.02-13.6-0.02-0.03 6.26-0.01 12.51-0.03 18.77 0.05 2.14-0.04 4.98 2.2 6.11 2.66 1.31 5.72 0.68 8.56 0.55 0 5.26 0.01 10.51 0 15.77-7.97-0.08-16.29 1.93-23.97-1.05-4.94-1.89-7.43-7.29-7.5-12.31-0.1-9.28 0.02-18.57-0.04-27.85-3.66 0.01-7.32 0.01-10.98 0.01-0.02-4.26-0.04-8.52 0.04-12.78 3.65 0.04 7.3 0.03 10.95 0.02 0-5.5-0.01-10.99 0-16.49z"/>
 </g>
</svg>
