<svg width="800" height="640.99" version="1.1" viewBox="0 0 800 640.99" xmlns="http://www.w3.org/2000/svg">
 <g fill="#565e67" fill-rule="evenodd">
  <path d="m641.34 549.99h-27.039l-59.188-170.57h27.769l35.556 108.68c3.1559 9.9956 8.0372 25.103 9.5046 31.204 1.4526-6.1006 6.3266-21.452 9.4899-31.44l35.084-108.44h27.275z"/>
  <path d="m64.04 291.74h130.41c3.8712-15.978 12.078-29.684 23.5-40.735v-21.961h-217.95v320.36h64.04v-135.01h81.862v-62.246h-81.862z"/>
  <path d="m313.02 554.44c-53.525 0-100.19-22.426-124.43-58.122l46.211-41.192c22.408 26.085 51.232 36.619 81.877 36.619 37.967 0 55.811-10.534 55.811-34.774 0-20.611-10.979-29.758-71.362-43.479-59.011-13.736-100.19-32.51-100.19-95.656 0-58.13 51.239-93.826 114.36-93.826 49.86 0 86.47 18.767 116.66 50.34l-46.203 44.851c-20.595-21.046-43.46-32.945-72.741-32.945-34.317 0-45.746 14.643-45.746 28.836 0 20.131 13.722 26.542 64.504 38.441s107.05 29.286 107.05 98.85c0 60.881-38.424 102.06-125.81 102.06"/>
  <polygon transform="matrix(6.1825 0 0 6.1825 .0022121 -1.1914)" points="0.036853 103.74 0.036853 96.142 5.4945 96.142 5.4945 96.934 0.89438 96.934 0.89438 99.649 5.0067 99.649 5.0067 100.43 0.89438 100.43 0.89438 103.74"/>
  <path d="m70.506 617.17c7.0492 0 12.078-3.6147 12.078-9.6637v-0.1328c0-5.7687-4.4315-9.2653-12.012-9.2653h-14.489v19.062zm-19.717-23.96h20.189c5.7662 0 10.397 1.7483 13.354 4.7064 2.2784 2.2721 3.6131 5.5695 3.6131 9.258v0.1328c0 7.79-5.3606 12.349-12.742 13.691l14.423 19.195h-6.5109l-13.619-18.258h-13.413v18.258h-5.2943z"/>
  <polygon transform="matrix(6.1825 0 0 6.1825 .0022121 -1.1914)" points="22.831 102.96 22.831 103.74 17.287 103.74 17.287 96.142 22.778 96.142 22.778 96.925 18.144 96.925 18.144 99.517 22.289 99.517 22.289 100.3 18.144 100.3 18.144 102.96"/>
  <polygon transform="matrix(6.1825 0 0 6.1825 .0022121 -1.1914)" points="31.19 102.96 31.19 103.74 25.645 103.74 25.645 96.142 31.135 96.142 31.135 96.925 26.503 96.925 26.503 99.517 30.647 99.517 30.647 100.3 26.503 100.3 26.503 102.96"/>
  <path d="m231.02 633.34 3.2813-3.8876c4.8961 4.4188 9.5931 6.6466 16.097 6.6466 6.3118 0 10.471-3.3565 10.471-7.9892v-0.13293c0-4.3671-2.3522-6.8458-12.211-8.926-10.795-2.3532-15.765-5.8425-15.765-13.559v-0.1328c0-7.3842 6.5109-12.821 15.433-12.821 6.8354 0 11.731 1.9475 16.495 5.7687l-3.0822 4.1015c-4.3578-3.563-8.7156-5.1048-13.553-5.1048-6.1054 0-9.9913 3.3565-9.9913 7.5834v0.12538c0 4.4409 2.4186 6.9268 12.749 9.1325 10.463 2.2868 15.293 6.1154 15.293 13.286v0.14034c0 8.0629-6.71 13.286-16.038 13.286-7.4474 0-13.545-2.4712-19.179-7.517"/>
  <path d="m301.58 618.78c7.7792 0 12.882-4.1606 12.882-10.335v-0.1328c0-6.7129-5.0362-10.21-12.616-10.21h-11.872v20.677zm-16.9-25.576h17.571c10.603 0 17.579 5.6433 17.579 14.901v0.14016c0 10.128-8.4576 15.359-18.449 15.359h-11.407v16.583h-5.2943z"/>
  <polygon transform="matrix(6.1825 0 0 6.1825 .0022121 -1.1914)" points="59.978 102.96 59.978 103.74 54.434 103.74 54.434 96.142 59.924 96.142 59.924 96.925 55.291 96.925 55.291 99.517 59.436 99.517 59.436 100.3 55.291 100.3 55.291 102.96"/>
  <polygon transform="matrix(6.1825 0 0 6.1825 .0022121 -1.1914)" points="68.337 102.96 68.337 103.74 62.792 103.74 62.792 96.142 68.283 96.142 68.283 96.925 63.65 96.925 63.65 99.517 67.794 99.517 67.794 100.3 63.65 100.3 63.65 102.96"/>
  <path d="m436.75 616.84v-0.14016c0-13.286 9.9249-24.292 23.743-24.292 8.5165 0 13.619 3.0245 18.316 7.4506l-3.6278 3.895c-3.9523-3.7622-8.3838-6.44-14.762-6.44-10.389 0-18.169 8.4465-18.169 19.261v0.12538c0 10.873 7.8529 19.401 18.169 19.401 6.4446 0 10.677-2.486 15.168-6.7793l3.4951 3.4228c-4.9035 4.9573-10.271 8.2473-18.788 8.2473-13.553 0-23.544-10.667-23.544-24.152"/>
  <polygon transform="matrix(6.1825 0 0 6.1825 .0022121 -1.1914)" points="81.047 100.32 81.047 103.74 80.189 103.74 80.189 96.142 81.047 96.142 81.047 99.517 85.43 99.517 85.43 96.142 86.287 96.142 86.287 103.74 85.43 103.74 85.43 100.32"/>
  <polygon transform="matrix(6.1825 0 0 6.1825 .0022121 -1.1914)" points="91.367 96.934 91.367 96.142 97.334 96.142 97.334 96.934 94.784 96.934 94.784 103.74 93.917 103.74 93.917 96.934"/>
  <polygon transform="matrix(6.1825 0 0 6.1825 .0022121 -1.1914)" points="101.84 102.69 104.55 96.142 105.47 96.142 102.21 103.8 101.45 103.8 98.181 96.142 99.137 96.142"/>
  <polygon transform="matrix(6.1825 0 0 6.1825 .0022121 -1.1914)" points="83.17 89.152 79.033 89.152 79.033 65.621 70.996 65.621 70.996 61.562 91.206 61.562 91.206 65.621 83.17 65.621"/>
 </g>
 <path d="m731.33 182.38c3.4214-4.4335 7.0787-10.925 11.001-19.534 3.9154-8.594 5.8694-16.937 5.8694-25.044 0-8.8375-2.2711-15.418-6.8132-19.718-4.5569-4.3007-10.242-6.4474-17.07-6.4474-6.5699 0-11.938 1.8958-16.111 5.6949-4.1809 3.7917-6.2602 8.8448-6.2602 15.167 0 5.8277 1.5116 10.438 4.5495 13.854 3.038 3.4081 7.204 5.3777 12.52 5.872 5.0509 0.50165 7.58 2.6557 7.58 6.4474 0 10.623-5.9505 22.263-17.822 34.907h12.513c3.2812-3.0393 6.6289-6.7646 10.043-11.198m-55.457 0c3.414-4.4335 7.0713-10.925 11.001-19.534 3.908-8.594 5.8694-16.937 5.8694-25.044 0-8.8375-2.2711-15.418-6.8206-19.718-4.5495-4.3007-10.235-6.4474-17.07-6.4474-6.5773 0-11.938 1.8958-16.111 5.6949-4.1734 3.7917-6.2528 8.8448-6.2528 15.167 0 5.8277 1.5116 10.438 4.5422 13.854 3.0453 3.4081 7.2114 5.3777 12.513 5.872 5.0657 0.50165 7.5875 2.6557 7.5875 6.4474 0 10.623-5.9431 22.263-17.822 34.907h12.513c3.2813-3.0393 6.6363-6.7646 10.05-11.198m-120.17-59.546c-3.414 4.4187-7.0787 10.94-11.001 19.527-3.9228 8.6014-5.8694 16.945-5.8694 25.044 0 8.6014 2.2784 15.108 6.8206 19.519 4.5569 4.4335 10.109 6.6539 16.687 6.6539 6.5699 0 11.997-1.9622 16.296-5.8794 4.2988-3.9245 6.4519-8.9186 6.4519-14.99 0-5.8203-1.5853-10.49-4.7486-14.038-3.1485-3.5261-7.3884-5.4294-12.697-5.6876-4.8002-0.50165-7.1967-2.7811-7.1967-6.8162 0-10.379 5.9284-21.88 17.815-34.531h-12.513c-3.2813 3.0319-6.6289 6.7646-10.043 11.198m-62.757 11.751c-6.0611 10.239-9.0991 21.194-9.0991 32.82 0 8.6014 2.2711 15.108 6.8206 19.519 4.5495 4.4335 10.117 6.6539 16.687 6.6539 6.828 0 12.321-1.9622 16.502-5.8794 4.1735-3.9245 6.2528-8.9186 6.2528-14.99 0-5.8203-1.5853-10.49-4.7486-14.038-3.1559-3.5261-7.3884-5.4294-12.69-5.6876-4.8076-0.50165-7.2114-2.7811-7.2114-6.8162 0-10.379 5.9358-21.88 17.822-34.531h-12.513c-5.8178 5.0605-11.746 12.71-17.822 22.949m171.87 168.04c-24.672 5.6949-49.565 6.9195-73.456 4.2786-42.45 28.947-101.72 38.574-165.71 22.197 27.717-13.994 50.052-35.099 64.556-61.921-24.392-18.804-43.032-43.309-52.552-71.976-27.282-81.979 30.202-166.87 128.37-189.58 98.202-22.684 199.92 25.398 227.2 107.44 27.246 82.008-30.232 166.88-128.41 189.56" fill="#2271c6" fill-rule="evenodd"/>
</svg>
