<svg width="1059.6" height="1e3" version="1.1" viewBox="0 0 280.36 264.58" xmlns="http://www.w3.org/2000/svg">
 <link href="" rel="stylesheet" type="text/css"/>
 <style type="text/css"/>
 <g transform="translate(21.246 -32.417)">
  <path d="m223.83 137.77a105.35 105.35 0 0 1-105.35 105.35 105.35 105.35 0 0 1-105.35-105.35 105.35 105.35 0 0 1 105.35-105.35 105.35 105.35 0 0 1 105.35 105.35z" fill="#007aff" stroke-width=".85195"/>
  <path class="cls-2" d="m161.28 110.99a14.145 14.145 0 0 1 4.8221 1.1022v-26.085c-43.353-7.2561-44.731 16.992-44.731 36.097h-16.028a13.272 13.272 0 0 1 2.3422-9.185 5.3732 5.3732 0 0 1 4.1792-1.7911 14.145 14.145 0 0 1 4.8221 1.1022v-26.223c-43.353-7.2561-44.731 16.992-44.731 36.097h-7.9909v26.82h7.9909v42.113h33.939v-42.113h15.477v42.113h34.122v-42.113h9.782v-26.82h-10.517a13.272 13.272 0 0 1 2.3422-9.185 5.2814 5.2814 0 0 1 4.1792-1.9289z" stroke-width=".85195"/>
  <g transform="matrix(.37697 0 0 .37697 431.01 -2.5705)" letter-spacing="0px" word-spacing="0px">
   <g font-family="'Futura LH Extra Bold'" text-anchor="middle">
    <path d="m-1199.7 710.69v81.763h29.356v-28.688h21.432v-21.43h-21.432v-8.3712h24.333v-23.274z" text-align="center"/>
    <path d="m-1137.9 710.69v81.763h28.853v-27.236l13.339 27.236h33.876l-21.543-32.426c2.2697-0.63252 4.169-1.4138 5.6945-2.3439 1.5255-0.93019 2.9764-2.2329 4.353-3.9072 1.3767-1.7115 2.5099-3.8878 3.4029-6.5295s1.3394-5.5455 1.3394-8.7081c0-4.8369-0.9851-9.0586-2.9571-12.668-1.9348-3.6091-4.4652-6.5859-7.5906-8.9299-3.0882-2.3812-6.6402-4.0188-10.659-4.9118-3.9811-0.89296-9.5248-1.3394-16.631-1.3394zm28.686 22.491h2.1221c3.8696 0 6.4923 0.57732 7.8689 1.7307 1.3767 1.1534 2.0635 2.8661 2.0635 5.1357 0 2.7533-1.0774 4.7987-3.2354 6.1382-1.1162 0.66973-3.4041 1.0045-6.8644 1.0045h-1.9547z" text-align="center"/>
    <path d="m-1059.8 710.69v81.763h54.919v-22.213h-25.785v-8.4842h22.715v-21.039h-22.715v-7.9254h24.835v-22.102z" text-align="center"/>
    <path d="m-998.44 710.69v81.763h54.917v-22.213h-25.783v-8.4842h22.715v-21.039h-22.715v-7.9254h24.835v-22.102z" text-align="center"/>
    <path d="m-934.91 710.69v81.763h29.356v-28.688h21.432v-21.43h-21.432v-8.3712h24.333v-23.274z" text-align="center"/>
    <path d="m-831.08 708.85c-6.7345 0-12.911 1.043-18.53 3.1266-5.581 2.0464-10.436 5.1885-14.566 9.4301-4.0928 4.2416-7.1447 9.135-9.1539 14.679-1.972 5.5438-2.9571 10.845-2.9571 15.905 0 6.288 1.1911 12.28 3.5724 17.973 1.6371 3.9812 4.1289 7.7564 7.4776 11.328 3.3486 3.5719 7.3664 6.4929 12.054 8.7625 6.3252 3.0882 13.545 4.6314 21.656 4.6314 13.432 0 24.277-3.9985 32.537-11.998 8.26-8.0367 12.389-18.306 12.389-30.808 0-12.576-4.0929-22.882-12.278-30.919-8.1855-8.0739-18.919-12.111-32.202-12.111zm-0.33486 26.957c4.1672 0 7.6634 1.5066 10.491 4.5204 2.8278 2.9766 4.2421 6.902 4.2421 11.776 0 4.5392-1.4144 8.2587-4.2421 11.161-2.8277 2.8649-6.3798 4.2986-10.659 4.2986-4.2044 0-7.7027-1.395-10.493-4.1856-2.7533-2.8277-4.1291-6.4935-4.1291-10.996 0-5.023 1.4144-9.0407 4.2421-12.054 2.8649-3.0138 6.3805-4.5204 10.548-4.5204z" text-align="center"/>
    <path d="m-780.01 710.69v81.763h28.853v-27.236l13.339 27.236h33.878l-21.543-32.426c2.2696-0.63252 4.1669-1.4138 5.6924-2.3439 1.5255-0.93017 2.9763-2.2329 4.353-3.9072 1.3766-1.7115 2.512-3.8878 3.405-6.5295 0.89296-2.6417 1.3394-5.5455 1.3394-8.7081 0-4.8369-0.98723-9.0586-2.9592-12.668-1.9348-3.6091-4.4652-6.5859-7.5906-8.9299-3.0882-2.3812-6.6402-4.0188-10.659-4.9118-3.9812-0.89296-9.5249-1.3394-16.631-1.3394zm28.686 22.491h2.1221c3.8695 0 6.4922 0.57732 7.8689 1.7307 1.3767 1.1534 2.0656 2.8661 2.0656 5.1357 0 2.7533-1.0795 4.7987-3.2376 6.1382-1.1162 0.66973-3.4041 1.0045-6.8644 1.0045h-1.9547z" text-align="center"/>
    <path d="m-692.78 710.69-13.785 81.763h28.575l4.6335-43.645 12.948 43.645h17.356l14.009-43.645 3.8507 43.645h28.853l-13.003-81.763h-30.417l-11.665 39.681-11.328-39.681z" text-align="center"/>
   </g>
   <g font-family="'Century Gothic'" font-size="40px">
    <path d="m-591.99 710.95h6.2199v35.906h49.477v-35.906h6.2199v80.294h-6.2199v-38.269h-49.477v38.269h-6.2199z"/>
    <path d="m-517.92 791.24v-80.294h26.535c24.348 0 35.382 15.932 35.382 41.843 0.26146 24.049-14.253 38.451-36.267 38.451zm6.22-6.22h22.901c20.759 0 26.606-22.118 26.606-32.327 0-29.033-16.365-35.527-25.817-35.527h-23.691z"/>
   </g>
  </g>
 </g>
</svg>
