<svg width="899.01" height="1e3" version="1.1" viewBox="0 0 237.86 264.58" xmlns="http://www.w3.org/2000/svg">
 <link href="" rel="stylesheet" type="text/css"/>
 <style type="text/css"/>
 <g transform="translate(0 -32.417)">
  <g fill="#fff">
   <path d="m200.89 265.14-5.285 31.347h10.955l1.7764-16.733 4.9641 16.733h6.6538l5.3708-16.733 1.4763 16.733h11.062l-4.985-31.347h-11.661l-4.4722 15.213-4.3431-15.213z" font-family="'Futura LH Extra Bold'" letter-spacing="0px" text-align="center" text-anchor="middle" word-spacing="0px"/>
   <path class="cls-3" d="m0 265.14h20.992v8.9714h-9.521v3.2446h8.3508v8.1558h-8.3508v10.975h-11.471z" stroke-width=".32891"/>
   <path class="cls-3" d="m24.822 265.14h13.758c7.092 0 13.049 2.9964 13.049 10.886 0 4.7516-1.773 6.7374-6.0636 8.1558v0.24822c0.58508 0.46097 8.7409 12.056 8.7409 12.056h-13.156l-4.9821-10.053h-0.21276v10.053h-11.134zm11.134 13.847h0.79785c1.773 0 3.741-0.28368 3.741-2.624 0-2.3404-1.7021-2.695-3.6701-2.695h-0.86878z" stroke-width=".32891"/>
   <path class="cls-3" d="m56.505 265.14h21.418v8.5281h-9.9288v2.9964h8.865v8.1558h-8.865v3.0318h9.9288v8.5636h-21.418z" stroke-width=".32891"/>
   <path class="cls-3" d="m81.753 265.14h21.418v8.5281h-9.9465v2.9964h8.7763v8.1558h-8.7763v3.0318h9.9465v8.5636h-21.418z" stroke-width=".32891"/>
   <path class="cls-3" d="m106.98 265.14h21.01v8.9714h-9.521v3.2446h8.3508v8.1558h-8.3508v10.975h-11.489z" stroke-width=".32891"/>
   <path class="cls-3" d="m167.39 265.14h13.758c7.092 0 13.067 2.9964 13.067 10.886 0 4.7516-1.773 6.7374-6.0814 8.1558v0.24822c0.58508 0.46097 8.7409 12.056 8.7409 12.056h-13.102l-4.9998-10.053h-0.31914v10.053h-11.134zm11.063 13.847h0.79783c1.773 0 3.741-0.28368 3.741-2.624 0-2.3404-1.773-2.695-3.6524-2.695h-0.8865z" stroke-width=".32891"/>
   <path class="cls-3" d="m164.53 280.9c0 10.053-7.7657 16.099-17.34 16.099-9.5742 0-17.34-6.0459-17.34-16.099 0-10.053 7.8189-16.258 17.34-16.258 9.521 0 17.34 6.4005 17.34 16.258zm-23.209 0.15958c9.8e-4 1.5359 0.63367 3.062 1.72 4.1477 1.0863 1.0857 2.6127 1.7178 4.1486 1.7178s3.0623-0.63203 4.1486-1.7178 1.7192-2.6118 1.72-4.1477l-9.9e-4 -0.5023c0-3.3934-2.9014-5.8433-5.8602-5.8433-3.2088 0-5.8764 2.6288-5.8764 5.8667z" stroke-width=".32891"/>
  </g>
  <path d="m223.83 137.77a105.35 105.35 0 0 1-105.35 105.35 105.35 105.35 0 0 1-105.35-105.35 105.35 105.35 0 0 1 105.35-105.35 105.35 105.35 0 0 1 105.35 105.35z" fill="#007aff" stroke-width=".85195"/>
  <path class="cls-2" d="m161.28 110.99a14.145 14.145 0 0 1 4.8221 1.1022v-26.085c-43.353-7.2561-44.731 16.992-44.731 36.097h-16.028a13.272 13.272 0 0 1 2.3422-9.185 5.3732 5.3732 0 0 1 4.1792-1.7911 14.145 14.145 0 0 1 4.8221 1.1022v-26.223c-43.353-7.2561-44.731 16.992-44.731 36.097h-7.9909v26.82h7.9909v42.113h33.939v-42.113h15.477v42.113h34.122v-42.113h9.782v-26.82h-10.517a13.272 13.272 0 0 1 2.3422-9.185 5.2814 5.2814 0 0 1 4.1792-1.9289z" stroke-width=".85195"/>
 </g>
</svg>
