<svg width="160.86" height="64.862" version="1.1" xmlns="http://www.w3.org/2000/svg">
 <g transform="translate(-16.161 -16.105)" fill="#183059">
  <path d="m37.297 80.937v-22.011l-3.016-3.3352h24.849v-13.914h-21.833v-11.519h22.5l13.342-13.936h-56.977v64.715z"/>
  <path d="m111.89 80.857h-45.549v-2.6521l11.161-11.208h20.206l1.9175-1.9074v-8.0654l-1.5557-1.5622-21.707-0.03633-7.7423-7.6657v-17.148l14.327-14.351h37.337v8.8283l-4.9927 5.0863h-23.987l-1.628 1.9255v8.1017l1.4833 1.4895h21.816l7.7061 8.1017v22.307z"/>
  <path d="m176.85 80.967h-46.788v-29.559l7.2631-7.432h20.607l1.858-2.0269v-11.824l-1.5202-1.1824h-9.459l-1.3513 1.3513v5.9119h-17.229v-10.979l8.7833-9.1212h29.053l8.7833 9.459v24.323l-7.0942 7.2631h-26.688l4.8984 4.5606v5.2362h29.053z"/>
 </g>
</svg>
