<svg width="1641.8pt" height="426.85pt" version="1.1" viewBox="0 0 1641.8 426.85" xmlns="http://www.w3.org/2000/svg">
 <g transform="translate(-34.753 .00033195)" fill="#fff" stroke-width="1.1648">
  <g transform="translate(0 1.4726)">
   <path d="m820.65 51.414v321.07h126.83v-128h142.54v128h126.83v-321.07h-126.83v111.67h-142.54v-111.67z"/>
   <path d="m1521.1 51.414c98.773 0 156.37 61.377 155.37 160.53 0 116.91-55.01 160.54-155.37 160.54h-257.71v-321.07zm-130.71 81.43v158.2h53.761c65.374 0 99.962-16.628 99.962-79.101 0-63.141-34.39-79.1-99.962-79.1z"/>
  </g>
  <path d="m804.13 3.11e-4h866v14.664h-866z"/>
  <path d="m804.13 412.18h866v14.664h-866z"/>
 </g>
 <path transform="scale(.71526)" d="m689.85 455.81 73.706 140.96h235.43l-189.57-311.63 190.59-285.15h-237.18l-72.786 133.12-74.633-133.12-615.41 0.092v596.68h207.84v-194.1h202.4v-162.55h-202.4v-71.952h285.06l79.058 117.43-191.51 311.17h234.78z" fill="#fff"/>
</svg>
