<svg width="1892.9" height="514.24" enable-background="new 0 0 1000 514.243" version="1.1" viewBox="0 0 1892.9 514.24" xml:space="preserve" xmlns="http://www.w3.org/2000/svg">
<path d="m1e3 0v411.04h-138.76v-202.35c-31.21 44.35-95.312 157.47-95.312 157.47l-157.86-247.54-52.97 77.38 129.24 215.04h-161.03s-33.54-64.629-50.89-96.42c-17.81 31.53-51.8 96.42-51.8 96.42h-161.1c43.25-71.879 131.38-214.01 131.38-214.01l-54.07-80.55h-193.79v48.76h139.85v112.35h-139.85v133.45h-143.04v-411.04h419.45l52.97 90.07 50.89-90.07h152.55c32.12 45.2 58.658 95.96 90.068 141.93 30.292-46.61 58.122-95.55 88.602-141.93z" fill="#fff"/><g clip-rule="evenodd" fill="#fff" fill-rule="evenodd">
		<polygon points="9.776 467.11 9.776 442.29 49.636 442.29 49.636 433.02 0 433.02 0 512.99 9.776 512.99 9.776 476.64 44.373 476.64 44.373 467.11"/>
		<path d="m54.902 512.99 28.578-41.61-25.32-38.356h11.782l13.287 20.557c2.758 4.011 4.764 7.52 6.017 9.775 1.503-3.007 3.509-6.016 5.765-9.273l14.791-21.059h10.53l-25.82 37.605 27.825 42.36h-12.033l-18.55-28.577c-1.004-1.755-2.005-3.51-3.26-5.264-1.503 2.758-2.756 4.766-3.509 6.014l-18.3 27.827h-11.783z"/>
		<path d="m159.19 512.99v-79.966h14.791l17.296 56.652c1.754 5.271 2.758 9.025 3.511 11.783 1.002-3.003 2.254-7.271 4.011-12.779l17.547-55.656h13.288v79.966h-9.528v-66.93l-21.307 66.93h-8.774l-21.309-68.185v68.185z"/>
		<path d="m252.44 474.13c0 9.776 2.257 17.292 7.021 22.808 5.013 5.518 10.778 8.275 18.049 8.275 7.269 0 13.287-2.758 18.049-8.275 4.764-5.761 7.271-13.537 7.271-24.064 0-6.516-1.004-12.032-3.009-17.045-2.257-4.764-5.013-8.523-9.024-11.281-3.762-2.508-8.272-4.012-13.036-4.012-7.02 0-12.786 2.758-17.8 7.771-5.013 5.266-7.521 13.789-7.521 25.823m-10.026-0.253c0-13.287 3.258-23.565 9.776-31.086 6.519-7.52 15.042-11.281 25.571-11.281 6.769 0 12.786 1.757 18.3 5.266s9.527 8.523 12.534 14.791c2.759 6.268 4.262 13.536 4.262 21.56 0 8.022-1.503 15.293-4.513 21.813-3.007 6.268-7.269 11.025-12.786 14.533-5.514 3.264-11.531 4.766-18.049 4.766-6.769 0-13.036-1.754-18.551-5.264-5.517-3.762-9.527-8.771-12.284-15.039s-4.26-13.041-4.26-20.059"/>
		<path d="m346.45 512.99-28.578-79.966h10.529l19.05 58.161c1.506 4.513 2.758 9.026 4.013 13.032 1.002-4.512 2.254-8.772 3.76-13.032l20.054-58.161h9.776l-28.829 79.966z"/>
		<polygon points="405.36 512.99 395.59 512.99 395.59 433.02 405.36 433.02"/>
		<polygon points="473.3 466.86 473.3 476.39 432.44 476.39 432.44 503.46 477.56 503.46 477.56 512.99 422.66 512.99 422.66 433.02 476.06 433.02 476.06 442.29 432.44 442.29 432.44 466.86"/>
		<path d="m572.32 484.92 9.775 2.758c-2.256 8.52-5.766 15.293-11.029 19.805-5.518 4.506-11.783 6.766-19.557 6.766-8.021 0-14.289-1.754-19.299-5.264-5.014-3.508-8.777-8.527-11.535-15.293-2.504-6.52-3.758-13.791-3.758-21.307 0-8.274 1.502-15.545 4.26-21.813 3.008-6.268 7.271-11.029 12.535-14.289 5.516-3.007 11.529-4.764 18.051-4.764 7.27 0 13.537 2.008 18.549 6.268 5.014 4.01 8.523 9.777 10.531 17.047l-9.777 2.508c-1.754-5.766-4.01-10.027-7.27-12.785-3.262-2.508-7.521-4.012-12.287-4.012-5.766 0-10.527 1.504-14.289 4.514-3.758 3.006-6.516 7.02-8.021 11.781-1.502 5.015-2.256 10.277-2.256 15.545 0 6.766 1.004 12.535 2.758 17.799 1.756 5.01 4.766 8.771 8.523 11.277 3.762 2.506 8.021 3.762 12.535 3.762 5.516 0 10.029-1.754 13.787-5.01 3.763-3.51 6.268-8.529 7.774-15.293"/>
		<polygon points="652.04 433.02 652.04 512.99 642.27 512.99 642.27 475.14 604.16 475.14 604.16 512.99 594.38 512.99 594.38 433.02 604.16 433.02 604.16 465.86 642.27 465.86 642.27 433.02"/>
		<path d="m681.62 480.15h24.816l-7.77-22.311c-2.258-6.519-4.012-12.283-5.016-16.546-1.002 5.264-2.256 10.278-4.01 15.291zm-21.312 32.837 28.33-79.966h10.277l30.334 79.966h-11.279l-8.523-24.31h-30.834l-8.025 24.31z"/>
		<polygon points="794.94 512.99 784.91 512.99 746.3 450.07 746.3 512.99 737.02 512.99 737.02 433.02 747.06 433.02 785.66 495.69 785.66 433.02 794.94 433.02"/>
		<polygon points="869.39 512.99 859.36 512.99 820.5 450.07 820.5 512.99 811.23 512.99 811.23 433.02 821.26 433.02 859.86 495.69 859.86 433.02 869.39 433.02"/>
		<polygon points="936.32 466.86 936.32 476.39 895.71 476.39 895.71 503.46 940.84 503.46 940.84 512.99 885.93 512.99 885.93 433.02 939.08 433.02 939.08 442.29 895.71 442.29 895.71 466.86"/>
		<polygon points="953.87 512.99 953.87 433.02 963.65 433.02 963.65 503.46 1e3 503.46 1e3 512.99"/>
	</g>
<g transform="matrix(.96297 0 0 .96297 278.46 .00061193)" fill="#fff" stroke-width="1.1648"><g transform="translate(0 1.4726)"><path d="m820.65 51.414v321.07h126.83v-128h142.54v128h126.83v-321.07h-126.83v111.67h-142.54v-111.67z"/><path d="m1521.1 51.414c98.773 0 156.37 61.377 155.37 160.53 0 116.91-55.01 160.54-155.37 160.54h-257.71v-321.07zm-130.71 81.43v158.2h53.761c65.374 0 99.962-16.628 99.962-79.101 0-63.141-34.39-79.1-99.962-79.1z"/></g><path d="m804.13 3.11e-4h866v14.664h-866z"/><path d="m804.13 412.18h866v14.664h-866z"/></g></svg>
