<svg width="1676.5pt" height="598.57pt" version="1.1" viewBox="0 0 1676.5 598.57" xmlns="http://www.w3.org/2000/svg">
 <path d="m344.41 171.78h-188.34v-51.481h208.74l62.881 93.241-27.48 40.921zm227.4 255.06h176.88l-143.58-212.64 144.9-214.2-178.02-3.11e-4 -55.561 82.681-55.801-82.681-460.63 0.05999v426.73h156.06v-138.78h89.821l65.941 97.801-143.04 212.76h176.22l55.381-81.781 55.201 81.781h176.82l-143.46-212.64 27.66-40.861z" fill="#fff"/>
 <g fill="#fff" stroke-width="1.1648">
  <g transform="translate(0 1.4726)">
   <path d="m820.65 51.414v321.07h126.83v-128h142.54v128h126.83v-321.07h-126.83v111.67h-142.54v-111.67z"/>
   <path d="m1521.1 51.414c98.773 0 156.37 61.377 155.37 160.53 0 116.91-55.01 160.54-155.37 160.54h-257.71v-321.07zm-130.71 81.43v158.2h53.761c65.374 0 99.962-16.628 99.962-79.101 0-63.141-34.39-79.1-99.962-79.1z"/>
  </g>
  <path d="m804.13 3.11e-4h866v14.664h-866z"/>
  <path d="m804.13 412.18h866v14.664h-866z"/>
 </g>
</svg>
