<svg width="1e3" height="676.85" version="1.1" xmlns="http://www.w3.org/2000/svg">
 <link href="" rel="stylesheet" type="text/css"/>
 <style type="text/css"/>
 <g transform="translate(-54 -278.51)">
  <g fill="#fff">
   <path d="m107.72 816.71v-262.73h-53.224v-99.654h53.224v-48.695c0-71.837 36.355-123.44 135.86-123.44h24.948l29.443 90.595h-19.309c-33.039 0-46.372 17.734-46.372 48.946v32.589h44.165l35.631 99.654h-79.796v262.73z"/>
   <path d="m309.3 454.33h118.33l73.608 203.55 73.477-203.55h118.48l-132.94 369.86c-30.369 90.341-78.656 130.68-151.3 130.68l-33.973-93.992c31.817 0 53.535-13.391 66.659-38.472z"/>
   <path d="m690.2 553.98 35.834-99.654h160.81v362.38h-124.57v-262.73z"/>
   <circle cx="823.34" cy="346.14" r="67.13"/>
  </g>
  <path d="m986.49 820.1c-44.089 0-67.264-33.582-67.264-66.698 0-39.331 31.423-66.992 66.992-66.992 32.391 0 67.278 26.437 67.278 67.278 0 13.86-5.9577 27.72-11.556 44.006l-35.065 94.882h-20.384z" fill="#57b6a5"/>
 </g>
</svg>
