<svg width="1e3" height="887" version="1.1" xmlns="http://www.w3.org/2000/svg">
 <link href="" rel="stylesheet" type="text/css"/>
 <style type="text/css"/>
 <g transform="translate(-160 -1052.4)">
  <path transform="translate(-199 450.78)" d="m359 1488.6v-123.5l83-83.5h847l70 83.5v123.5z" fill="#1e2f5a"/>
  <path transform="translate(-199 450.78)" d="m1359 977.59v387.5h-1e3v-387.5l160-160h720z" fill="#3dbac4"/>
  <path transform="translate(-199 450.78)" d="m1121 977.59-124.71-216 124.71-160h238v376z" fill="#b51f30"/>
  <path transform="translate(-199 450.78)" d="m837 977.59-123-213.04 123-162.96h284v376z" fill="#ec3e28"/>
  <path transform="translate(-199 450.78)" d="m598 977.59-169-169 169-207h239v376z" fill="#9e2c20"/>
  <path transform="translate(-199 450.78)" d="m359 977.59v-376h239v376z" fill="#e8642d"/>
  <path transform="translate(-199 450.78)" d="m475 784.59h96v99c0 48.617-33.131 79-89.959 79-53.847 0-95.041-27.935-95.041-88v-164c0-53.423 40.21-84.115 93.836-84.115 56.166 0 90.664 32.715 90.664 76.115v35.6h-59v-29.6c0-16.923-14.063-27.137-30.733-27.137-20.559 0-28.767 14.019-28.767 29.137v167c0 17.823 11.444 29.049 28.881 29.049 17.318 0 27.119-8.9735 27.119-27.049v-46h-33z" fill="#fff7e7"/>
  <path transform="translate(-199 450.78)" d="m674.97 631.12-66.344 326.47h59.844l13.219-73h66.312l13 73h65.656l-63.438-326.47h-88.25zm40.188 71.25 22.125 129.72h-45.156l23.031-129.72z" fill="#fff7e7"/>
  <path transform="translate(-199 450.78)" d="m862 957.59v-326h82.437l35.762 130.63 37.363-130.63h78.438v326h-57v-231l-37.496 141h-44.504l-38-141v231z" fill="#fff7e7"/>
  <path transform="translate(-199 450.78)" d="m1160.5 957.59v-326h157v54.5h-93v76.5h73.5v55h-73.5v84.5h93.5v55.5z" fill="#fff7e7"/>
  <path transform="translate(-199 450.78)" d="m482.66 1286.8c9.9526 0 23.565-6.0415 23.565-29.457 0-50.499-108.33-85.908-108.33-170.93 0-45.091 29.055-83.689 86.87-83.689 58.112 0 80.04 42.359 81.149 92.72l-56.937 1.5116c-2.4978-26.544-10.22-42.402-27.829-42.402-14.452 0-23.178 11.346-23.178 26.744 0 42.703 111.7 87.774 111.7 171.66 0 53.627-38.127 86.665-87.711 86.665-53.853 0-85.871-34.901-88.913-94.184l60.27-1.9379c1.9658 23.563 8.5162 43.294 29.34 43.294z" fill="#fff7e7"/>
  <path transform="translate(-199 450.78)" d="m601 1334.6v-326h64.4v132h56.6v-132h64.7v326h-64.7v-135.5h-56.6v135.5z" fill="#fff7e7"/>
  <path transform="translate(-199 450.78)" d="m910.84 1003.4c-61.981 0-94.844 38.284-94.844 84.219v167c0 52.222 33.959 85 93.781 85 60.234 0 94.219-38.111 94.219-84v-167c0-47.494-30.613-85.219-93.156-85.219zm-1.25 56.125c14.363 0 30.219 9.8986 30.219 30.219v162.06c0 18.562-11.784 30.75-29.625 30.75-16.293 0-29.188-10.815-29.188-29.187v-165.75c0-17.198 12.151-28.094 28.594-28.094z" fill="#fff7e7"/>
  <path transform="translate(-199 450.78)" d="m1029 1008.6h63.813l26.584 195.46 29.26-195.47h62.13l27.554 195.11 26.658-195.1h56.677l-52.677 327h-60l-32.329-210.86-33.671 210.86h-60.821z" fill="#fff7e7"/>
  <path transform="translate(-199 450.78)" d="m413 1386.6h23.67l26.13 32.671v-32.671h24.7v74.5h-22.5l-27.2-34.5v34.5h-24.8z" fill="#3dbac4"/>
  <path transform="translate(-199 450.78)" d="m549 1386.6h63.4v20.488h-39v7.5117h36.1v18h-36.1v8h39.2v20.5h-63.6z" fill="#3dbac4"/>
  <path transform="translate(-199 450.78)" d="m669.6 1407.6v-21h68.4v21h-22v53.5h-24.5v-53.5z" fill="#3dbac4"/>
  <path transform="translate(-199 450.78)" d="m792 1386.6h26.31l10.612 35.543 11.69-35.543h21.698l12.078 35.465 10.225-35.465h25.775l-24.388 75h-21.612l-13.085-37.38-12.992 37.38h-21.698z" fill="#3dbac4"/>
  <path transform="translate(-199 450.78)" d="m1002.6 1384.9c-25.459 0-41.25 19.596-41.25 38.812 0 19.791 16.083 39 40.562 39 21.097 0 40.781-15.306 40.781-38.938 0-19.239-14.915-38.875-40.094-38.875zm-0.3125 22c9.553 0 15.188 8.5345 15.188 16.875 0 10.245-7.4646 16.875-15.469 16.875-9.2878 0-15.375-8.3576-15.375-16.938 0-8.3308 5.9968-16.812 15.656-16.812z" fill="#3dbac4"/>
  <path transform="translate(-199 450.78)" d="m1102.4 1386.6v74.5h24.594v-21.5h5.2812l14.219 21.5h28.5l-17.719-25.344c7.2202-2.9461 14.906-9.743 14.906-23.156 0-17.493-13.473-26-30.188-26h-39.594zm24.594 20.781h11c5.5099 0 9.5312 2.6051 9.5312 7.4062 0 4.5046-4.1244 7.2188-8.5312 7.2188h-12v-14.625z" fill="#3dbac4"/>
  <path transform="translate(-199 450.78)" d="m1231 1461.1v-74.5h25v28l21-28h29l-26 32.603 27 41.897h-30l-14.616-23.61-6.3837 7.7807v15.829z" fill="#3dbac4"/>
 </g>
</svg>
