<svg width="800" height="190.77" enable-background="new 0 0 130 130" version="1.1" viewBox="0 0 800 190.77" xml:space="preserve" xmlns="http://www.w3.org/2000/svg">
<g transform="matrix(7.619 0 0 7.619 -102.86 -407.47)">
		<path d="m118.5 78.519h-105v-25.038h105z" fill="#fff"/>
	</g><path d="m49.173 159.43s-19.04-16.99-19.04-61.996c0-44.99 18.126-57.006 18.126-57.006s17.227-15.992 77.036-16.99c59.817-0.98286 63.436 2.019 63.436 2.019s7.9543 26.286 7.9543 75.97c0 49.036-10.659 73.996-10.659 73.996h11.718s12.328-22.636 12.312-72.015c0-59.787-14.979-82.979-14.979-82.979s-34.179-10.796-77.021-6.979c-17.189 1.5162-60.731 10.987-74.339 26.979-13.592 16.008-23.284 32-22.651 59.01 0.9219 39.977 28.107 59.992 28.107 59.992z" stroke-width="7.619"/><path d="m234.94 17.41h546.81v155.98h-546.81z" style="paint-order:stroke fill markers"/>
<radialGradient id="SVGID_1_" cx="33.349" cy="62.208" r="6.2925" gradientTransform="matrix(7.619 0 0 7.568 -102.86 -404.29)" gradientUnits="userSpaceOnUse">
	<stop stop-color="#fff" offset="0"/>
	<stop stop-color="#1C76B3" offset="1"/>
</radialGradient>
<circle cx="137.56" cy="80.015" r="42.933" fill="url(#SVGID_1_)" stroke-width="7.619"/>
<g transform="translate(-13.5 112.25)" fill="#fff" stroke-width="7.619"><path d="m714.57-7.4391 26.491-66.484h30.91l-46.728 109.45h-22.057l-45.943-109.45h30.857z"/><path d="m633.94 35.517h-28.434v-85.25h-23.474v-24.19h75.482v24.19h-23.573z"/><path d="m554.3 12.988h34.834v24.594h-63.87v-111.83h29.036z"/><path d="m456.14-77.831c16.122 0.09905 30.423 5.5238 43.017 16.244 12.533 10.72 18.804 24.533 18.804 41.425 0 18.095-5.8133 32.884-17.417 44.343-11.604 11.474-26.423 17.189-44.396 17.189-17.912 0-32.678-5.7143-44.358-17.196-11.634-11.444-17.478-26.225-17.478-44.328 0-16.891 6.3162-30.705 18.819-41.425 12.579-10.75 26.865-16.114 43.017-16.114v-0.13714zm-22.324 37.242c-6.2019 5.9962-9.2495 12.838-9.2495 20.541 0 9.6 3.0476 17.6 9.2495 23.931 6.1714 6.3314 13.623 9.501 22.324 9.501s16.122-3.1619 22.354-9.5238c6.141-6.3619 9.2495-14.347 9.2495-23.962 0-7.7486-3.1086-14.606-9.2495-20.632-6.2324-5.981-13.653-8.9829-22.354-8.9829-8.701 0.1219-16.16 3.1543-22.324 9.1276z"/><path d="m387.71-24.711c-0.0914 8.2057-0.80762 15.901-2.08 23.063-1.2952 7.139-4.4038 14.24-9.3333 21.25-5.4324 7.5962-12.107 13.12-20.061 16.61-7.9695 3.4438-16.64 5.1505-26.004 5.1505-17.63 0-31.924-5.4019-43.002-16.198-11.048-10.827-16.564-25.021-16.564-42.621 0-18.171 5.5924-32.754 16.8-43.703 11.208-10.987 25.813-16.45 43.779-16.45 11.49 0 21.516 2.56 30.171 7.7638 8.6171 5.2114 15.39 13.036 20.236 23.49l-27.581 11.429c-1.9733-5.2724-5.021-9.539-9.1886-12.83-4.1372-3.2686-9.1429-4.9295-14.987-4.9295-8.9676 0-15.901 3.3905-20.762 10.103-4.9067 6.7276-7.6114 14.095-8.0838 22.118-0.12953 0.48762-0.17524 1.0133-0.17524 1.5771v2.4457c0.20571 8.4952 2.8419 16.32 7.8628 23.459 5.0514 7.1162 12.251 10.674 21.63 10.674 6.301 0 11.65-1.6381 16.008-4.8914 4.3581-3.2533 6.8038-8.1295 7.4362-14.537h-23.756v-22.971z"/></g></svg>
