<svg width="337.55" height="97.558" version="1.1" xmlns="http://www.w3.org/2000/svg">
 <g transform="translate(-25.172 -514.67)">
  <g transform="matrix(1.25 0 0 -1.25 25.172 612.23)">
   <g transform="scale(.1)">
    <path d="m2091.2 278.32h355.41l70.22 225.68h-425.63v-225.68" fill="#9e192d"/>
    <path d="m2091.2 3.7109h171.73l68.15 225.63h-239.88v-225.63" fill="#9e192d"/>
    <path d="m2091.2 778.52v-225.64h540.96l68.31 225.64h-609.27" fill="#9e192d"/>
    <path d="m939.07 573.63-3.812 15.336c-9.957-8.106-27.93-17.969-55.664-17.969-59.469 0-101.9 42.676-101.9 103.32 0 64.305 46.09 106.15 102.24 106.15 29.687 0 42.043-10.25 49.851-19.235l3.078 16.793h27.586v-63.378h-30.664c-5.613 20.367-22.461 31.445-47.113 31.445-41.508 0-61.625-34.176-61.625-70.215 0-38.18 17.723-71.285 62.742-71.285 22.563 0 34.867 5.762 42.676 11.18v34.23h-46.875v34.031h87.746v-110.4h-28.27" fill="#808080"/>
    <path d="m1147.4 678.22c20.8 0 34.09 9.375 34.09 33.402 0 24.805-13.97 33.934-34.09 33.934h-32.37v-67.336zm1.27 99.804c41.71 0 76.03-18.945 76.03-66.402 0-29.691-15.96-48.391-39.99-57.422l29.49-50.98h19.54v-29.59h-49.03l-41.99 74.027h-27.69v-44.437h18.27v-29.59h-76.52v29.59h16.21v145.37h-16.21v29.437h91.89" fill="#808080"/>
    <path d="m1310 573.63v29.59h16.31v145.37h-16.31v29.437h151.51v-56.445h-30.07l-5.77 23.977h-57.27v-53.176h53.47v-32.129h-53.47v-54.148h61.52l5.72 24.074h30.12v-56.547h-155.76" fill="#808080"/>
    <path d="m1793.1 718.16v59.859h160.93v-59.859h-26.7l-5.33 27.391h-27.48v-142.34h18.06v-29.59h-77.98v29.59h17.92v142.34h-27.34l-5.42-27.391h-26.66" fill="#808080"/>
    <path d="m340.14 321.63v-29.492h-66.996v29.492h16.214v145.46h-16.214v29.488h50.785l63.57-95.703 59.035 95.703h53.371v-29.488h-16.117v-145.46h16.117v-29.492h-72.851v29.492h16.211v61.918c0 17.133 1.804 51.656 1.804 51.656s-10.695-13.914-18.41-27.441l-40.086-63.766-45.847 63.766c-8.497 13.867-18.657 27.441-18.657 27.441s1.86-34.523 1.86-51.656v-61.918h16.211" fill="#808080"/>
    <path d="m579.4 292.14v29.492h16.164v145.46h-16.164v29.488h151.37v-56.539h-30.082l-5.563 24.02h-57.473v-53.125h53.516v-32.223h-53.516v-54.102h61.571l5.715 24.071h30.125v-56.543h-155.66" fill="#808080"/>
    <path d="m907.18 396.73c20.851 0 34.035 9.328 34.035 33.347 0 25.051-13.871 33.985-34.035 33.985h-32.375v-67.332zm1.218 99.851c41.797 0 76.028-18.941 76.028-66.504 0-29.683-15.914-48.34-39.992-57.418l29.496-51.027h19.582v-29.492h-49.078l-41.989 73.972h-27.64v-44.48h18.308v-29.492h-76.609v29.492h16.211v145.46h-16.211v29.488h91.894" fill="#808080"/>
    <path d="m1128.2 321.63h16.26v-29.492h-74.61v29.492h16.22v145.46h-16.22v29.488h74.61v-29.488h-16.26v-145.46" fill="#808080"/>
    <path d="m1373.2 433.1c-5.82 20.461-22.56 31.54-47.17 31.54-38.77 0-59.87-33.981-59.87-69.09 0-38.133 21.1-71.192 61.92-71.192 27.93 0 41.79 14.696 51.9 31.25l30.67-20.215c-17.09-25.488-38.43-45.847-84.62-45.847-60.5 0-103.13 42.285-103.13 102.39 0 63.184 44.44 106.98 100.35 106.98 29.73 0 42.03-10.254 49.95-19.242l3.22 16.894h27.3v-63.473h-30.52" fill="#808080"/>
    <path d="m1902 467.09h-17.93v29.488h69.92v-29.488h-16.25v-174.95h-30.57l-86.18 113.62c-9.77 12.597-16.85 27.343-17.78 29.441 0-1.219 1.52-23.191 1.52-39.894v-73.68h17.62v-29.492h-69.77v29.492h16.21v145.46h-16.21v29.488h50.05l85.6-112.69c7.12-9.961 16.59-26.465 17.72-28.274-0.3 1.465-3.95 22.801-3.95 36.961v74.516" fill="#808080"/>
    <path d="m341.31 143.65c-5.664 20.364-22.457 31.497-47.071 31.497-38.863 0-59.863-33.934-59.863-69.141 0-38.184 21-71.188 61.914-71.188 27.93 0 41.801 14.742 51.856 31.293l30.714-20.164c-17.14-25.586-38.429-45.945-84.621-45.945-60.543 0-103.12 42.379-103.12 102.49 0 63.086 44.387 106.98 100.39 106.98 29.691 0 42.09-10.297 49.805-19.332l3.32 16.894h27.348v-63.383h-30.668" fill="#808080"/>
    <path d="m621.39 104.84c0 42.133-25.102 70.309-62.407 70.309-37.304 0-62.5-28.176-62.5-70.309 0-42.047 25.196-70.316 62.5-70.316 37.305 0 62.407 28.27 62.407 70.316zm-168.22 0c0 60.398 45.558 104.83 105.81 104.83 60.012 0 105.77-44.43 105.77-104.83 0-60.406-45.754-104.84-105.77-104.84-60.25 0-105.81 44.43-105.81 104.84" fill="#808080"/>
    <path d="m918.07 76.609c0-51.711-34.035-76.609-82.621-76.609-47.461 0-80.859 22.801-80.859 74.512v103.13h-16.11v29.394h74.415v-29.394h-16.258v-103.13c0-29.738 14.449-41.16 40.863-41.16 26.566 0 41.801 11.422 41.801 41.16v103.13h-16.313v29.394h71.387v-29.394h-16.305v-101.03" fill="#808080"/>
    <path d="m1161.3 177.64h-18.02v29.394h69.92v-29.394h-16.21v-174.9h-30.61l-86.28 113.57c-9.57 12.601-16.9 27.343-17.73 29.394 0-1.269 1.52-23.094 1.52-39.937v-73.586h17.73v-29.441h-69.69v29.441h16.22v145.46h-16.22v29.394h49.86l85.59-112.75c7.28-9.8633 16.6-26.465 17.78-28.176-0.29 1.4219-3.86 22.754-3.86 36.965v74.563" fill="#808080"/>
    <path d="m1289.6 147.27v59.765h161.13v-59.765h-26.8l-5.37 27.195h-27.45v-142.29h18.17v-29.441h-78.18v29.441h17.97v142.29h-27.19l-5.57-27.195h-26.71" fill="#808080"/>
    <path d="m1617.7 107.23c20.8 0 34.09 9.324 34.09 33.398 0 24.949-13.91 33.836-34.09 33.836h-32.41v-67.234zm1.28 99.804c41.75 0 76.07-18.945 76.07-66.406 0-29.691-16.01-48.391-39.99-57.426l29.39-51.023h19.53v-29.441h-48.92l-42.09 73.875h-27.68v-44.434h18.3v-29.441h-76.51v29.441h16.16v145.46h-16.16v29.394h91.9" fill="#808080"/>
    <path d="m1948.6 177.64h-15.92l-51.31-98.684v-46.777h17.92v-29.441h-78.08v29.441h18.12v43.606l-56.06 101.86h-18.11v29.394h78.66v-29.394h-16.02l22.02-40.285c7.47-14.454 12.9-27.102 13.53-28.27 0.24 0.539 4.73 13.523 12.6 28.707l19.82 39.848h-20.21v29.394h73.04v-29.394" fill="#808080"/>
    <path d="m75.684 384.86h44.336s-20.7 65.727-21.286 68.461c-0.4883-1.566-23.051-68.461-23.051-68.461zm7.0312 111.72h37.406l64.059-174.95h15.871v-29.492h-77.879v29.492h18.992l-11.719 33.25h-63.718l-11.672-33.25h26.32v-29.492h-80.375v29.492h16.113l66.602 174.95" fill="#808080"/>
    <path d="m1616.6 666.36h44.39s-20.7 65.676-21.29 68.309c-0.64-1.465-23.1-68.309-23.1-68.309zm7.03 111.67h37.55l63.87-174.8h15.97v-29.59h-77.89v29.59h18.95l-11.77 33.105h-63.57l-11.77-33.105h26.42v-29.59h-80.52v29.59h16.21l66.55 174.8" fill="#808080"/>
    <path d="m1555.2 384.86h44.43s-20.61 65.727-21.19 68.461c-0.69-1.566-23.24-68.461-23.24-68.461zm6.98 111.72h37.55l63.96-174.95h15.92v-29.492h-77.78v29.492h18.95l-11.78 33.25h-63.72l-11.66-33.25h26.41v-29.492h-80.61v29.492h16.36l66.4 174.95" fill="#808080"/>
   </g>
  </g>
 </g>
</svg>
