<svg width="600pt" height="417.03pt" version="1.1" viewBox="0 0 600 417.03" xmlns="http://www.w3.org/2000/svg">
 <defs>
  <linearGradient id="linearGradient3143-1" x1="518.06" x2="518.06" y1="591.91" y2="663.25" gradientTransform="matrix(.43454 0 0 .43454 -395.54 -553.96)" gradientUnits="userSpaceOnUse">
   <stop stop-color="#f1f1f1" offset="0"/>
   <stop stop-color="#c0c1c4" offset=".99681"/>
   <stop stop-color="#c0c1c4" stop-opacity="0" offset="1"/>
  </linearGradient>
 </defs>
 <g transform="translate(272.18 390.82)">
  <path d="m-96.136-144.87h-65.709v-93.85h-42.649v93.85h-67.461l-0.22779-241.9h67.689v89.977h42.649v-89.977h65.709zm301.07 1.139c67.759-0.0353 122.9-56.317 122.88-124.09-0.0173-69.196-55.125-122.94-122.88-122.99-67.671-0.0526-102.26 49.763-110.79 69.879 0.07012-30.191-29.683-65.814-64.482-65.866h-112.13v241.84l104.54 0.0353c42.159 0 72.139-36.517 72.192-67.829 9.6198 19.713 43 69.038 110.67 69.02zm-191.62-98.405c9.6723 0 17.295 9.5497 17.295 20.431 0 10.881-7.6222 20.449-17.295 20.449h-33.24v-40.88zm0.12264-90.801c9.6723 0 17.295 9.5497 17.295 20.431 0 10.881-7.6222 20.431-17.295 20.431h-33.24v-40.862zm44.261 65.166c7.6222-0.96373 20.308-9.6723 24.794-15.244-1.577 6.9038-1.6996 26.862 0.14008 33.748-5.099-7.8675-17.189-17.54-24.934-18.504zm85.719 0c0-33.993 27.563-61.556 61.556-61.556 34.011 0 61.574 27.563 61.574 61.556s-27.563 61.556-61.574 61.556c-33.993 0-61.556-27.563-61.556-61.556zm61.556 48.397c26.739 0 48.397-21.675 48.397-48.397s-21.658-48.397-48.397-48.397c-26.722 0-48.397 21.675-48.397 48.397s21.675 48.397 48.397 48.397" fill="#b9bbbd"/>
  <path d="m-96.136-144.87h-65.709v-93.85h-42.649v93.85h-67.461l-0.22778-241.9h67.689v89.977h42.649v-89.977h65.709zm301.07 1.139c67.759-0.0353 122.9-56.317 122.88-124.09-0.0174-69.196-55.125-122.94-122.88-122.99-67.671-0.0526-102.26 49.763-110.79 69.879 0.07005-30.191-29.683-65.814-64.482-65.866h-112.13v241.84l104.54 0.0353c42.159 0 72.139-36.517 72.192-67.829 9.6198 19.713 43 69.038 110.67 69.02zm-191.62-98.405c9.6723 0 17.295 9.5497 17.295 20.431 0 10.881-7.6222 20.449-17.295 20.449h-33.24v-40.88zm0.12264-90.801c9.6723 0 17.295 9.5497 17.295 20.431 0 10.881-7.6222 20.431-17.295 20.431h-33.24v-40.862zm44.261 65.166c7.6222-0.96373 20.308-9.6723 24.794-15.244-1.577 6.9038-1.6996 26.862 0.14008 33.748-5.099-7.8675-17.189-17.54-24.934-18.504zm85.719 0c0-33.993 27.563-61.556 61.556-61.556 34.011 0 61.574 27.563 61.574 61.556s-27.563 61.556-61.574 61.556c-33.993 0-61.556-27.563-61.556-61.556zm61.556 48.397c26.739 0 48.397-21.675 48.397-48.397s-21.658-48.397-48.397-48.397c-26.722 0-48.397 21.675-48.397 48.397s21.675 48.397 48.397 48.397" fill="url(#linearGradient3143-1)"/>
 </g>
 <g transform="matrix(1.1735 0 0 1.1735 -72.447 -201.17)" fill="#939598">
  <path d="m65.338 429.48h20.641v75.854h47.474v19.579h-68.114z" stroke-width="6.0708"/>
  <path d="m325.58 429.48h21.269v95.433h-21.269z" stroke-width="1.2515"/>
  <path d="m366.95 429.24h19.678l44.424 58.362v-58.362h21.099v95.858h-18.22l-45.895-60.255v60.255h-21.087z" stroke-width="1.2574"/>
  <path d="m141.14 525.22h22.216l8.8508-21.652h39.057l8.8508 21.652h22.216l-40.631-95.919h-19.884zm50.595-69.304 11.952 28.874h-23.904z" stroke-width="1.2502"/>
  <path d="m234.81 429.6v19.381h28.741v75.991h21.614v-75.991h28.743v-19.381z" stroke-width="1.2508"/>
  <path d="m518.26 427.34a51.157 49.725 0 0 0-51.157 49.727 51.157 49.725 0 0 0 51.157 49.724 51.157 49.725 0 0 0 51.159-49.724 51.157 49.725 0 0 0-51.159-49.727zm0 19.547a29.039 30.18 0 0 1 29.04 30.18 29.039 30.18 0 0 1-29.04 30.18 29.039 30.18 0 0 1-29.037-30.18 29.039 30.18 0 0 1 29.037-30.18z" stroke-width="1.2084"/>
 </g>
</svg>
