<svg width="600pt" height="354.62pt" version="1.1" viewBox="0 0 600 354.62" xmlns="http://www.w3.org/2000/svg">
 <defs>
  <linearGradient id="linearGradient3143" x1="518.06" x2="518.06" y1="633.14" y2="704.75" gradientTransform="matrix(.43454 0 0 .43454 -338.51 -481.4)" gradientUnits="userSpaceOnUse">
   <stop offset="0"/>
   <stop stop-opacity="0" offset="1"/>
  </linearGradient>
 </defs>
 <g transform="matrix(.84966 0 0 .84966 227.41 270.41)">
  <path d="m-39.112-72.315h-65.709v-93.85h-42.649v93.85h-67.461l-0.22779-241.9h67.689v89.977h42.649v-89.977h65.709zm301.07 1.1389c67.759-0.03525 122.9-56.317 122.88-124.09-0.0173-69.196-55.125-122.94-122.88-122.99-67.671-0.0526-102.26 49.763-110.79 69.879 0.0701-30.191-29.683-65.814-64.482-65.866h-112.13v241.84l104.54 0.0353c42.159 0 72.139-36.517 72.192-67.829 9.6198 19.713 43 69.038 110.67 69.021zm-191.62-98.405c9.6724 0 17.295 9.5497 17.295 20.431 0 10.881-7.6222 20.449-17.295 20.449h-33.24v-40.88zm0.12264-90.801c9.6723 0 17.295 9.5497 17.295 20.431 0 10.881-7.6222 20.431-17.295 20.431h-33.24v-40.862zm44.261 65.166c7.6222-0.96373 20.308-9.6723 24.794-15.244-1.577 6.9038-1.6996 26.862 0.14009 33.748-5.099-7.8675-17.189-17.54-24.934-18.504zm85.719 0c0-33.993 27.563-61.556 61.556-61.556 34.011 0 61.574 27.563 61.574 61.556s-27.563 61.556-61.574 61.556c-33.993 0-61.556-27.563-61.556-61.556zm61.556 48.397c26.739 0 48.397-21.675 48.397-48.397s-21.658-48.397-48.397-48.397c-26.722 0-48.397 21.675-48.397 48.397s21.675 48.397 48.397 48.397" fill="#454341"/>
  <path d="m-39.112-72.315h-65.709v-93.85h-42.649v93.85h-67.461l-0.22779-241.9h67.689v89.977h42.649v-89.977h65.709zm301.07 1.1389c67.759-0.03525 122.9-56.317 122.88-124.09-0.0173-69.196-55.125-122.94-122.88-122.99-67.671-0.0526-102.26 49.763-110.79 69.879 0.0701-30.191-29.683-65.814-64.482-65.866h-112.13v241.84l104.54 0.0353c42.159 0 72.139-36.517 72.192-67.829 9.6198 19.713 43 69.038 110.67 69.021zm-191.62-98.405c9.6724 0 17.295 9.5497 17.295 20.431 0 10.881-7.6222 20.449-17.295 20.449h-33.24v-40.88zm0.12264-90.801c9.6723 0 17.295 9.5497 17.295 20.431 0 10.881-7.6222 20.431-17.295 20.431h-33.24v-40.862zm44.261 65.166c7.6222-0.96373 20.308-9.6723 24.794-15.244-1.577 6.9038-1.6996 26.862 0.14009 33.748-5.099-7.8675-17.189-17.54-24.934-18.504zm85.719 0c0-33.993 27.563-61.556 61.556-61.556 34.011 0 61.574 27.563 61.574 61.556s-27.563 61.556-61.574 61.556c-33.993 0-61.556-27.563-61.556-61.556zm61.556 48.397c26.739 0 48.397-21.675 48.397-48.397s-21.658-48.397-48.397-48.397c-26.722 0-48.397 21.675-48.397 48.397s21.675 48.397 48.397 48.397" fill="url(#linearGradient3143)"/>
 </g>
 <g transform="matrix(2.0596 0 0 2.0596 -8.5893 -131.36)" fill="#f89925">
  <path d="m28.937 187.82a24.766 24.073 0 0 0-24.766 24.073 24.766 24.073 0 0 0 24.766 24.073 24.766 24.073 0 0 0 18.664-8.294l-7.273-7.2392a14.059 14.611 0 0 1-11.391 6.0718 14.059 14.611 0 0 1-14.058-14.612 14.059 14.611 0 0 1 14.058-14.61 14.059 14.611 0 0 1 10.812 5.291l6.7368-7.645a24.766 24.073 0 0 0-17.549-7.1089z" stroke-width=".58503"/>
  <path d="m74.571 187.68a24.766 24.073 0 0 0-24.766 24.074 24.766 24.073 0 0 0 24.766 24.072 24.766 24.073 0 0 0 24.767-24.072 24.766 24.073 0 0 0-24.767-24.074zm0 9.463a14.059 14.611 0 0 1 14.059 14.611 14.059 14.611 0 0 1-14.059 14.611 14.059 14.611 0 0 1-14.058-14.611 14.059 14.611 0 0 1 14.058-14.611z" stroke-width=".58503"/>
  <path d="m250.48 211.72c0 18.802-10.281 23.422-27.618 23.512l-15.351 8e-3v-46.7h15.351c17.067 0 27.618 6.0188 27.618 23.18zm-32.784-13.98v27.96h8.259c9.5966 0.1476 13.619-5.467 13.756-13.98 0-8.2183-5.3418-13.9-13.756-13.98z"/>
  <path d="m267.26 216.82-17.954-28.299h12.013l11.147 18.755 11.345-18.755h11.681l-17.954 28.099v18.62h-10.278z" stroke-width="2.932"/>
  <path d="m106.83 188.54v46.692h10.22v-29.93l13.125 19.578 13.125-19.578v29.93h10.221v-46.692h-11.24l-12.105 19.54-12.105-19.54z"/>
  <path d="m163.63 188.54h35.177v9.2102h-24.761v9.3171h21.892v9.1793h-21.892v9.6539h25.257v9.3322h-35.673z" stroke-width=".61236"/>
 </g>
</svg>
