<svg width="1362.3pt" height="247.08pt" version="1.1" viewBox="0 0 1362.3 247.08" xmlns="http://www.w3.org/2000/svg">
 <defs>
  <linearGradient id="linearGradient3143" x1="518.06" x2="518.06" y1="633.14" y2="704.75" gradientTransform="matrix(.43454 0 0 .43454 -439.85 -487.68)" gradientUnits="userSpaceOnUse">
   <stop offset="0"/>
   <stop stop-opacity="0" offset="1"/>
  </linearGradient>
 </defs>
 <g transform="translate(-22.877 81.09)" fill="#6d6e71" stroke-width="3.793">
  <path d="m912.69 164.01v-242.5h15.779v242.5z"/>
  <path d="m1016.5 139.56h42.594v-77.736h78.156v77.736h42.595v-193.59h-42.595v76.652h-78.156v-76.652l-42.594 0.03229z"/>
  <path d="m1286.8-54.03c30.078-0.03793 60.498 13.939 79.008 37.911 24.768 31.709 25.678 79.387 3.4137 112.65-17.182 25.944-47.792 41.703-78.515 43.031h-83.616v-193.59zm-36.906 38.555v116.48h32.038c11.155 0 23.262-2.6227 33.012-8.7618 34.364-20.634 34.175-78.211-0.076-98.883-10.366-6.8697-20.887-8.8386-32.936-8.8386z"/>
 </g>
 <g transform="translate(316.5 324.54)">
  <path d="m-140.45-78.598h-65.709v-93.85h-42.649v93.85h-67.461l-0.22779-241.9h67.689v89.977h42.649v-89.977h65.709zm301.07 1.1389c67.759-0.03525 122.9-56.317 122.88-124.09-0.0173-69.196-55.125-122.94-122.88-122.99-67.671-0.0526-102.26 49.763-110.79 69.879 0.07012-30.191-29.683-65.814-64.482-65.867h-112.13v241.84l104.54 0.0353c42.159 0 72.139-36.517 72.192-67.829 9.6198 19.713 43 69.038 110.67 69.021zm-191.62-98.406c9.6723 0 17.295 9.5497 17.295 20.431 0 10.881-7.6222 20.449-17.295 20.449h-33.24v-40.88zm0.12264-90.801c9.6723 0 17.295 9.5497 17.295 20.431 0 10.881-7.6222 20.431-17.295 20.431h-33.24v-40.862zm44.261 65.166c7.6223-0.96373 20.308-9.6723 24.794-15.244-1.577 6.9038-1.6997 26.862 0.14008 33.748-5.099-7.8675-17.189-17.54-24.934-18.504zm85.719 0c0-33.993 27.563-61.556 61.556-61.556 34.011 0 61.574 27.563 61.574 61.556s-27.563 61.556-61.574 61.556c-33.993 0-61.556-27.563-61.556-61.556zm61.556 48.397c26.739 0 48.397-21.675 48.397-48.397s-21.658-48.397-48.397-48.397c-26.722 0-48.397 21.675-48.397 48.397s21.675 48.397 48.397 48.397" fill="#454341"/>
  <path d="m-140.45-78.598h-65.709v-93.85h-42.649v93.85h-67.461l-0.22779-241.9h67.689v89.977h42.649v-89.977h65.709zm301.07 1.1389c67.759-0.03525 122.9-56.317 122.88-124.09-0.0173-69.196-55.125-122.94-122.88-122.99-67.671-0.0526-102.26 49.763-110.79 69.879 0.07012-30.191-29.683-65.814-64.482-65.867h-112.13v241.84l104.54 0.0353c42.159 0 72.139-36.517 72.192-67.829 9.6198 19.713 43 69.038 110.67 69.021zm-191.62-98.406c9.6723 0 17.295 9.5497 17.295 20.431 0 10.881-7.6222 20.449-17.295 20.449h-33.24v-40.88zm0.12264-90.801c9.6723 0 17.295 9.5497 17.295 20.431 0 10.881-7.6222 20.431-17.295 20.431h-33.24v-40.862zm44.261 65.166c7.6223-0.96373 20.308-9.6723 24.794-15.244-1.577 6.9038-1.6997 26.862 0.14008 33.748-5.099-7.8675-17.189-17.54-24.934-18.504zm85.719 0c0-33.993 27.563-61.556 61.556-61.556 34.011 0 61.574 27.563 61.574 61.556s-27.563 61.556-61.574 61.556c-33.993 0-61.556-27.563-61.556-61.556zm61.556 48.397c26.739 0 48.397-21.675 48.397-48.397s-21.658-48.397-48.397-48.397c-26.722 0-48.397 21.675-48.397 48.397s21.675 48.397 48.397 48.397" fill="url(#linearGradient3143)"/>
 </g>
 <g transform="matrix(2.2836 0 0 2.2836 -56.845 -180.11)">
  <path d="m332.56 93.26c7.9-2.98 16.82-3.18 24.92-0.84 7.3 2.13 13.73 7.57 16.26 14.85 3.23 9.43 1.65 20.69-5.06 28.27-8.27 9.46-19.12 16.085-28.67 24.115h36.195v15.88h-61.97v-14.505c10.55-8.72 21.245-17.28 31.715-26.1 3.64-3.31 7.54-6.67 9.53-11.28 1.65-4.08 1.56-9.28-1.43-12.74-3.36-3.81-9.25-4.3-13.79-2.62-5.08 1.99-8.63 6.37-12.05 10.41l-12.99-10.56c4.74-6 10.01-12.06 17.34-14.88z" fill="#0071bb"/>
 </g>
</svg>
