<svg width="600pt" height="354.62pt" version="1.1" viewBox="0 0 600 354.62" xmlns="http://www.w3.org/2000/svg">
 <defs>
  <linearGradient id="linearGradient3143-5" x1="518.06" x2="518.06" y1="591.91" y2="663.25" gradientTransform="matrix(.57939 0 0 .57939 -164.47 -217.52)" gradientUnits="userSpaceOnUse">
   <stop stop-color="#f1f1f1" offset="0"/>
   <stop stop-color="#c0c1c4" offset=".99681"/>
   <stop stop-color="#c0c1c4" stop-opacity="0" offset="1"/>
  </linearGradient>
 </defs>
 <g transform="matrix(.63724 0 0 .63724 44.604 .00029588)">
  <path d="m234.73 327.92h-87.612v-125.13h-56.866v125.13h-89.948l-0.30372-322.53h90.252v119.97h56.866v-119.97h87.612zm401.43 1.5186c90.345-0.04705 163.87-75.089 163.85-165.46-0.02306-92.261-73.5-163.92-163.85-163.99-90.228-0.0701-136.35 66.351-147.73 93.172 0.0935-40.255-39.577-87.752-85.976-87.822h-149.5v322.46l139.38 0.0471c56.212 0 96.186-48.689 96.256-90.439 12.826 26.284 57.333 92.051 147.56 92.027zm-255.5-131.21c12.896 0 23.059 12.733 23.059 27.241s-10.163 27.265-23.059 27.265h-44.32v-54.506zm0.16352-121.07c12.896 0 23.059 12.733 23.059 27.241 0 14.509-10.163 27.241-23.059 27.241h-44.32v-54.483zm59.015 86.887c10.163-1.285 27.078-12.896 33.059-20.326-2.1027 9.2051-2.2662 35.816 0.18678 44.997-6.7987-10.49-22.919-23.386-33.246-24.671zm114.29 0c0-45.324 36.75-82.075 82.075-82.075 45.348 0 82.098 36.75 82.098 82.075 0 45.324-36.75 82.075-82.098 82.075-45.324 0-82.075-36.75-82.075-82.075zm82.075 64.529c35.652 0 64.529-28.9 64.529-64.529s-28.877-64.529-64.529-64.529c-35.629 0-64.529 28.9-64.529 64.529s28.9 64.529 64.529 64.529" fill="#b9bbbd"/>
  <path d="m234.73 327.92h-87.612v-125.13h-56.866v125.13h-89.948l-0.3037-322.53h90.252v119.97h56.866v-119.97h87.612zm401.43 1.5186c90.345-0.04706 163.87-75.089 163.85-165.46-0.02326-92.261-73.5-163.92-163.85-163.99-90.228-0.0701-136.35 66.351-147.73 93.172 0.0934-40.255-39.577-87.752-85.976-87.822h-149.5v322.46l139.38 0.0471c56.212 0 96.186-48.689 96.256-90.439 12.826 26.284 57.333 92.051 147.56 92.027zm-255.5-131.21c12.896 0 23.059 12.733 23.059 27.241s-10.163 27.265-23.059 27.265h-44.32v-54.506zm0.16352-121.07c12.896 0 23.059 12.733 23.059 27.241 0 14.509-10.163 27.241-23.059 27.241h-44.32v-54.483zm59.015 86.887c10.163-1.285 27.078-12.896 33.059-20.326-2.1027 9.2051-2.2662 35.816 0.18678 44.997-6.7987-10.49-22.919-23.386-33.246-24.671zm114.29 0c0-45.324 36.75-82.075 82.075-82.075 45.348 0 82.098 36.75 82.098 82.075 0 45.324-36.75 82.075-82.098 82.075-45.324 0-82.075-36.75-82.075-82.075zm82.075 64.529c35.652 0 64.529-28.9 64.529-64.529s-28.877-64.529-64.529-64.529c-35.629 0-64.529 28.9-64.529 64.529s28.9 64.529 64.529 64.529" fill="url(#linearGradient3143-5)"/>
 </g>
 <g transform="matrix(2.0596 0 0 2.0596 -8.5893 -131.36)" fill="#f89925">
  <path d="m28.937 187.82a24.766 24.073 0 0 0-24.766 24.073 24.766 24.073 0 0 0 24.766 24.073 24.766 24.073 0 0 0 18.664-8.294l-7.273-7.2392a14.059 14.611 0 0 1-11.391 6.0718 14.059 14.611 0 0 1-14.058-14.612 14.059 14.611 0 0 1 14.058-14.61 14.059 14.611 0 0 1 10.812 5.291l6.7368-7.645a24.766 24.073 0 0 0-17.549-7.1089z" stroke-width=".58503"/>
  <path d="m74.571 187.68a24.766 24.073 0 0 0-24.766 24.074 24.766 24.073 0 0 0 24.766 24.072 24.766 24.073 0 0 0 24.767-24.072 24.766 24.073 0 0 0-24.767-24.074zm0 9.463a14.059 14.611 0 0 1 14.059 14.611 14.059 14.611 0 0 1-14.059 14.611 14.059 14.611 0 0 1-14.058-14.611 14.059 14.611 0 0 1 14.058-14.611z" stroke-width=".58503"/>
  <path d="m250.48 211.72c0 18.802-10.281 23.422-27.618 23.512l-15.351 8e-3v-46.7h15.351c17.067 0 27.618 6.0188 27.618 23.18zm-32.784-13.98v27.96h8.259c9.5966 0.1476 13.619-5.467 13.756-13.98 0-8.2183-5.3418-13.9-13.756-13.98z"/>
  <path d="m267.26 216.82-17.954-28.299h12.013l11.147 18.755 11.345-18.755h11.681l-17.954 28.099v18.62h-10.278z" stroke-width="2.932"/>
  <path d="m106.83 188.54v46.692h10.22v-29.93l13.125 19.578 13.125-19.578v29.93h10.221v-46.692h-11.24l-12.105 19.54-12.105-19.54z"/>
  <path d="m163.63 188.54h35.177v9.2102h-24.761v9.3171h21.892v9.1793h-21.892v9.6539h25.257v9.3322h-35.673z" stroke-width=".61236"/>
 </g>
</svg>
