<svg width="795.12" height="800" space="preserve" version="1.1" viewBox="0 0 795.12 800" xmlns="http://www.w3.org/2000/svg">
 <defs>
  <linearGradient id="SVGID_1_" x1="1311.4" x2="490.95" y1="632.74" y2="-93.216" gradientTransform="matrix(1.0613 0 0 -1.0613 -621.45 629.22)" gradientUnits="userSpaceOnUse">
   <stop stop-color="#3DDDFF" offset="0"/>
   <stop stop-color="#31AB8D" offset="1"/>
  </linearGradient>
  <linearGradient id="SVGID_2_" x1="1417.3" x2="596.83" y1="513.1" y2="-212.86" gradientTransform="matrix(1.0613 0 0 -1.0613 -621.45 629.22)" gradientUnits="userSpaceOnUse">
   <stop stop-color="#3DDDFF" offset="0"/>
   <stop stop-color="#31AB8D" offset="1"/>
  </linearGradient>
 </defs>
 <link href="" rel="stylesheet" type="text/css"/>
 <path d="m80.34 292.49 165.67-14.858 192.73-17.193 158.56-14.221 66.543-5.9432c3.3961-0.31838 6.3677 3.1839 6.3677 6.3677v121.41l11.037-0.95516 113.88-9.6577c-21.226-200.9-191.14-357.44-397.77-357.44-185.83 0-342.16 126.82-386.95 298.75 23.242-2.2287 46.591-4.139 69.939-6.2616z" fill="url(#SVGID_1_)" stroke-width="1.0613"/>
 <path d="m718.07 506.98-166.73 14.009-191.88 16.025-159.62 13.266-66.543 5.5187c-3.5022 0.31839-6.3677-3.1839-6.3677-6.3677v-114.3l-10.188 0.84904-116.74 9.7639c22.605 199.42 191.88 354.26 397.35 354.26 185.83 0 342.05-126.72 386.95-298.43-22.075 1.9103-44.15 3.6084-66.224 5.4126z" fill="url(#SVGID_2_)" stroke-width="1.0613"/>
 <g fill="url(#SVGID_2_)" stroke-width="1.0613" style="font-variant-east_asian:normal">
  <path d="m273.6 422.39c1.0613-0.10613 2.0164 0.7429 2.1226 1.9103v100.19c-0.10613 1.1674-0.95516 2.1226-2.1226 2.2287l-27.169 2.3348c-1.0613 0.10612-2.0164-0.74291-2.1226-1.9103v-52.746h-0.31838c-1.9103 3.9268-4.0329 7.6413-6.4739 11.144l-25.365 36.827-25.259-32.369c-2.441-3.1839-4.5635-6.4739-6.4739-10.082h-0.53064v52.852c-0.10613 1.1674-0.95516 2.1226-2.1226 2.2287l-27.169 2.3348c-1.0613 0.10613-2.0164-0.7429-2.1226-1.9103v-100.19c0.10613-1.1674 0.95516-2.1226 2.1226-2.2287l23.348-2.0164c1.2736-0.10613 2.5471 0.42451 3.29 1.4858l34.598 44.468h0.31839l34.598-50.517c0.7429-1.1674 1.9103-1.9103 3.29-2.0164z" style="font-variant-east_asian:normal"/>
  <path d="m408.17 462.83c0 33.749-26.957 56.354-58.689 59.114-31.733 2.7594-58.689-15.07-58.689-48.819s26.957-56.248 58.689-59.114c31.733-2.8655 58.689 15.07 58.689 48.819zm-85.964 7.5352c0 17.087 12.735 26.426 27.381 25.153 14.646-1.2736 27.275-12.842 27.275-29.928 0-16.874-12.735-26.426-27.275-25.153-15.707 1.2736-27.594 14.327-27.381 29.928z" style="font-variant-east_asian:normal"/>
  <path d="m462.72 449.03c2.441 5.5187 4.5636 11.25 6.2616 16.981l1.0613-0.10613s3.1839-10.719 6.2616-18.148l18.573-42.558c1.0613-2.1226 1.6981-2.441 3.8206-2.5471l29.079-2.5471c0.63677-0.10613 1.1674 0.21226 1.3797 0.84903v0.21226c-0.21225 1.0613-0.53064 2.1226-1.0613 3.0777l-45.742 104.22-25.789 2.2287-45.742-96.259c-0.53065-0.84903-0.84904-1.9103-1.0613-2.8655 0-0.7429 0.63677-1.3797 1.3797-1.3797l29.079-2.5471c2.1226-0.21226 2.7594-0.10613 3.8206 1.9103z" style="font-variant-east_asian:normal"/>
  <path d="m572.25 498.59c-0.10613 1.1674-0.95516 2.1226-2.1226 2.2287l-27.169 2.3348c-1.0613 0.10613-2.0164-0.84903-2.1226-1.9103v-100.29c0.10613-1.1674 0.95516-2.1226 2.1226-2.2287l27.169-2.3348c1.0613-0.10613 2.0164 0.7429 2.1226 1.9103z" style="font-variant-east_asian:normal"/>
  <path d="m623.4 455.82v13.903l57.097-4.9881c1.2735 0.10613 2.2287 0.95516 2.441 2.2287v21.544c-0.21225 1.2735-1.1674 2.3348-2.441 2.6532l-86.283 7.5352c-1.0613 0.10613-2.0164-0.74291-2.1226-1.9103v-100.19c0.10613-1.1674 0.95516-2.1226 2.1226-2.2287l85.646-7.5352c1.2736 0.10613 2.2287 0.95516 2.441 2.2287v21.544c-0.21226 1.2735-1.1674 2.3348-2.441 2.6532l-56.354 4.9881v12.842l51.154-4.4574c1.2735 0.10613 2.2287 0.95516 2.441 2.2287v19.846c-0.21226 1.2736-1.1674 2.3348-2.441 2.6532z" style="font-variant-east_asian:normal"/>
  <path d="m720.62 452.53c1.9103-0.31838 3.7145 0.74291 4.3513 2.5471 2.7594 5.8371 8.0658 8.1719 18.997 7.2168 14.434-1.2736 19.634-5.731 19.634-10.719 0-2.7594-2.441-5.5187-10.613-5.731l-25.895-0.21226c-21.226 0-33.749-8.3842-33.749-25.046 0-20.377 17.724-38.313 48.925-40.966 32.369-2.8655 47.121 10.825 47.121 26.32 0 2.2287-1.6981 4.139-4.0329 4.3513l-23.667 2.1226c-1.4858 0.31839-3.0777-0.53065-3.6084-1.9103-1.6981-3.5023-6.58-6.58-15.813-5.731-11.356 0.95516-17.617 5.5187-17.617 10.294 0 2.9716 2.1226 4.9881 9.021 5.0942l25.577 0.21226c26.108 0.21226 35.659 11.356 35.659 26.638 0 18.573-16.238 37.464-50.942 40.541-31.839 2.7594-50.305-9.6577-50.305-26.957v-1.3797c0.10613-2.3348 1.8042-4.2452 4.139-4.5636z" style="font-variant-east_asian:normal"/>
 </g>
 <g fill="url(#SVGID_1_)" stroke-width="1.0613" style="font-variant-east_asian:normal">
  <path d="m126.4 414.75c-0.10613 1.2735-1.0613 2.2287-2.2287 2.441l-29.079 2.5471c-1.1674 0.10613-2.1226-0.84903-2.2287-2.0164v-36.084l-52.534 4.5636v36.084c-0.10613 1.2736-1.0613 2.2287-2.2287 2.441l-29.079 2.5471c-1.1674 0.10613-2.1226-0.84903-2.2287-2.0164v-107.3c0.10613-1.2735 1.0613-2.2287 2.2287-2.441l29.079-2.5471c1.1674-0.10613 2.1226 0.84904 2.2287 2.0164v42.876l52.534-4.5636v-42.876c0.10613-1.2736 1.0613-2.2287 2.2287-2.441l29.079-2.5471c1.1674-0.10613 2.1226 0.84903 2.2287 2.0164z" style="font-variant-east_asian:normal"/>
  <path d="m151.02 414.86c-1.1674 0.10612-2.1226-0.84904-2.2287-2.0164v-107.3c0.10613-1.2736 1.0613-2.2287 2.2287-2.441l48.395-4.2452c36.721-3.1839 62.828 16.344 62.828 50.411 0 33.537-21.969 57.84-62.404 61.343zm31.202-86.177v55.187l17.299-1.4858c19.528-1.6981 29.079-13.16 29.079-30.141 0-17.511-11.886-26.532-29.292-25.046z" style="font-variant-east_asian:normal"/>
  <path d="m324.97 352.14c-3.9268-3.7145-7.6413-7.6413-11.144-11.674l-0.74291 0.10613v57.946c-0.10613 1.2735-1.0613 2.2287-2.2287 2.441l-29.079 2.5471c-1.1674 0.10613-2.1226-0.84903-2.2287-2.0164v-107.4c0.10613-1.2736 1.0613-2.2287 2.2287-2.441l25.153-2.2287 47.864 44.256c3.6084 3.3961 7.0045 6.8984 10.295 10.613h0.53064v-57.734c0.10613-1.2735 1.0613-2.2287 2.2287-2.441l29.079-2.5471c1.1674-0.10612 2.1226 0.84904 2.2287 2.0164v107.3c-0.10613 1.2736-1.0613 2.2287-2.2287 2.441l-25.153 2.2287z" style="font-variant-east_asian:normal"/>
  <path d="m454.97 345.03v14.858l61.13-5.3064c1.2736 0.10613 2.441 1.0613 2.6532 2.3348v23.136c-0.21226 1.3797-1.2736 2.441-2.6532 2.8655l-92.332 8.0658c-1.1674 0.10613-2.1226-0.84903-2.2287-2.0164v-107.3c0.10613-1.2735 1.0613-2.2287 2.2287-2.441l91.589-8.0658c1.2736 0.10613 2.441 1.0613 2.6532 2.441v23.136c-0.21225 1.3797-1.2735 2.441-2.6532 2.8655l-60.387 5.3064v13.797l54.763-4.7758c1.2735 0.10613 2.441 1.0613 2.6532 2.441v21.226c-0.21226 1.3797-1.2736 2.441-2.6532 2.8655z" style="font-variant-east_asian:normal"/>
  <path d="m538.82 297.48c-1.2736-0.10613-2.441-1.0613-2.6532-2.3348v-23.136c0.21225-1.3797 1.2735-2.441 2.6532-2.8655l107.3-9.4455c1.2735 0.10613 2.441 1.0613 2.6532 2.441v23.136c-0.21226 1.3797-1.2736 2.441-2.6532 2.8655l-36.933 3.1839v81.189c-0.10613 1.2736-1.0613 2.2287-2.2287 2.441l-29.079 2.5471c-1.1674 0.10612-2.1226-0.84904-2.2287-2.0164v-81.189z" style="font-variant-east_asian:normal"/>
 </g>
</svg>
