<svg width="600pt" height="442.81pt" version="1.1" viewBox="0 0 600 442.81" xmlns="http://www.w3.org/2000/svg">
 <defs>
  <mask id="mask-2_1_" x="0" y="0" width="43.5" height="43.5" maskUnits="userSpaceOnUse">
   <g filter="url(#Adobe_OpacityMaskFilter)">
    <polygon points="43.5 43.5 43.5 0 0 0 0 43.5" fill="#fff"/>
   </g>
  </mask>
  <filter id="Adobe_OpacityMaskFilter" x="0" y="0" width="43.5" height="43.5" filterUnits="userSpaceOnUse">
   <feColorMatrix values="1 0 0 0 0  0 1 0 0 0  0 0 1 0 0  0 0 0 1 0"/>
  </filter>
 </defs>
 <g transform="matrix(.36763 0 0 .36763 463.41 132.15)">
  <path d="m182.93 1.0927c98.674 0 180.8 55.865 179.21 150.46-2.1288 65.97-37.48 107.32-73.987 144.64l-134.47 127.11h217.85v86.7h-363.84v-77.747l158.74-154.81c51.019-48.049 94.656-102.55 74.82-151.57-13.772-28.836-39.478-38.147-67.927-38.053-47.114 0-73.316 26.703-97.933 58.003l-74.64-57.95c46.779-59.769 107.62-86.777 182.18-86.777z" fill="#0077c8"/>
 </g>
 <g transform="matrix(.73685 0 0 .73685 337.92 376.7)">
  <path transform="matrix(13.783 0 0 13.783 -458.6 -511.24)" d="m 21.8,0 c 12,0 21.8,9.7 21.8,21.8 0,12 -9.7,21.8 -21.8,21.8 C 9.7,43.5 0,33.8 0,21.8 0,9.7 9.7,0 21.8,0" fill="#0077c8" mask="url(#mask-2_1_)"/>
  <g transform="matrix(.75 0 0 .75 -458.61 -511.17)" fill="#fefefe" stroke-width="18.378">
   <path d="m231.56 306.27v77.186h-124.97v-77.186h-40.431v200.32h40.431v-84.538h123.13v84.538h40.431v-200.32h-3.6756z"/>
   <path d="m501.72 449.61c3.6755-56.971-67.998-64.322-106.59-66.16-40.431-3.6756-56.971-9.1889-55.133-25.729 1.8378-16.54 33.08-23.891 55.133-23.891 27.567 1.8378 45.944 3.6756 77.186 23.891 0 0 11.027-12.864 22.053-27.567-36.755-27.567-77.186-31.242-99.24-31.242-16.54 0-93.726 3.6756-95.564 60.646 0 53.295 69.835 58.809 95.564 62.484 18.378 1.8378 64.322 3.6756 64.322 25.729 0 20.216-36.755 27.567-64.322 25.729-40.431-3.6756-56.971-16.54-77.186-36.755l-25.729 25.729c22.053 25.729 64.322 45.944 102.92 47.782 23.891 1.8378 104.75-1.8378 106.59-60.646"/>
   <path d="m698.36 506.58h34.918v-198.48h-40.431v132.32c-12.864-14.702-121.29-132.32-121.29-132.32h-44.107v198.48h40.431v-145.18c12.864 14.702 130.48 145.18 130.48 145.18"/>
  </g>
 </g>
</svg>
