<svg enable-background="new 0 0 799.9 800" version="1.1" viewBox="0 0 799.9 800" xml:space="preserve" xmlns="http://www.w3.org/2000/svg"><defs>
					<mask id="mask-2_1_" x="0" y="0" width="43.5" height="43.5" maskUnits="userSpaceOnUse">
						<g filter="url(#Adobe_OpacityMaskFilter)">
							<polygon points="0 0 0 43.5 43.5 43.5 43.5 0" fill="#fff"/>
						</g>
					</mask>
					</defs>
<path transform="matrix(18.378 0 0 18.378 .003738 -.094462)" d="m 21.8,0 c 12,0 21.8,9.7 21.8,21.8 0,12 -9.7,21.8 -21.8,21.8 C 9.7,43.5 0,33.8 0,21.8 0,9.7 9.7,0 21.8,0" fill="#0077c8" mask="url(#mask-2_1_)"/><g fill="#fefefe" stroke-width="18.378"><path d="m231.56 306.27v77.186h-124.97v-77.186h-40.431v200.32h40.431v-84.538h123.13v84.538h40.431v-200.32h-3.6756z"/><path d="m501.72 449.61c3.6755-56.971-67.998-64.322-106.59-66.16-40.431-3.6756-56.971-9.1889-55.133-25.729 1.8378-16.54 33.08-23.891 55.133-23.891 27.567 1.8378 45.944 3.6756 77.186 23.891 0 0 11.027-12.864 22.053-27.567-36.755-27.567-77.186-31.242-99.24-31.242-16.54 0-93.726 3.6756-95.564 60.646 0 53.295 69.835 58.809 95.564 62.484 18.378 1.8378 64.322 3.6756 64.322 25.729 0 20.216-36.755 27.567-64.322 25.729-40.431-3.6756-56.971-16.54-77.186-36.755l-25.729 25.729c22.053 25.729 64.322 45.944 102.92 47.782 23.891 1.8378 104.75-1.8378 106.59-60.646"/><path d="m698.36 506.58h34.918v-198.48h-40.431v132.32c-12.864-14.702-121.29-132.32-121.29-132.32h-44.107v198.48h40.431v-145.18c12.864 14.702 130.48 145.18 130.48 145.18"/></g>
</svg>
