<svg width="800" height="276.64" version="1.1" viewBox="0 0 800 276.64" xml:space="preserve" xmlns="http://www.w3.org/2000/svg">
<style type="text/css">
	.st0{fill:#C6007E;}
	.st1{fill:#FFFFFF;}
</style>
<path class="st0" d="m743.6 0h-687.58c-30.695 0-56.019 25.324-56.019 56.019v164.6c0 30.695 25.324 56.019 56.019 56.019h687.96c30.695 0 56.019-25.324 56.019-56.019v-164.6c-0.38369-30.695-25.707-56.019-56.403-56.019z" fill="#c6007e" stroke-width="3.8369"/>
<g transform="scale(3.8369)" fill="#fff">
	<path class="st1" d="m143.1 22.2c0 0.7 0.6 1.3 1.3 1.3h4.9c0.7 0 1.3-0.6 1.3-1.3s-0.6-1.3-1.3-1.3h-4.9c-0.7 0-1.3 0.6-1.3 1.3"/>
	<path class="st1" d="m147.1 25.6c-4.8 0-8.2 3.2-8.6 8-0.1 1.2-0.1 2.7 0 4.2 0.3 5.4 3.6 8.6 8.8 8.6 2.4 0 4.8-0.5 6.1-1.3 0.6-0.4 0.7-0.9 0.7-1.2 0-0.6-0.5-1.2-1.3-1.2-0.2 0-0.4 0-0.7 0.1-1.9 0.7-3.5 1-4.9 1-3.8 0-6.2-2.4-6.2-6.3v-0.2h11.9c1.6 0 2.4-0.8 2.4-2.2v-1.3c0.1-4.9-3.2-8.2-8.2-8.2m0 2.5c1.8 0 3.3 0.6 4.3 1.7 1.1 1.2 1.5 2.8 1.4 4.6 0 0.3-0.1 0.4-0.4 0.4h-11.3c0-2.3 0.5-4 1.7-5.2 1-0.9 2.4-1.5 4.3-1.5"/>
	<path class="st1" d="m177 22.2c0 0.7 0.6 1.3 1.3 1.3h4.9c0.7 0 1.3-0.6 1.3-1.3s-0.6-1.3-1.3-1.3h-4.9c-0.8 0-1.3 0.6-1.3 1.3"/>
	<path class="st1" d="m180.9 25.6c-4.8 0-8.2 3.2-8.6 8-0.1 1.2-0.1 2.7 0 4.2 0.3 5.4 3.6 8.6 8.8 8.6 2.4 0 4.8-0.5 6.1-1.3 0.6-0.4 0.7-0.9 0.7-1.2 0-0.6-0.5-1.2-1.3-1.2-0.2 0-0.4 0-0.7 0.1-1.9 0.7-3.5 1-4.9 1-3.8 0-6.2-2.4-6.2-6.3v-0.2h11.9c1.6 0 2.4-0.8 2.4-2.2v-1.3c0.1-4.8-3.2-8.2-8.2-8.2m0 2.6c1.8 0 3.3 0.6 4.3 1.7 1.1 1.1 1.5 2.8 1.4 4.6 0 0.3-0.1 0.4-0.4 0.4h-11.3c0-2.3 0.5-4 1.7-5.2 1-1 2.4-1.5 4.3-1.5"/>
	<path class="st1" d="m170.2 43.6h-9.2v-16.7c0-0.8-0.6-1.3-1.3-1.3s-1.3 0.6-1.3 1.3v18c0 0.7 0.6 1.3 1.3 1.3h10.5c0.8 0 1.3-0.6 1.3-1.3s-0.6-1.3-1.3-1.3"/>
	<path class="st1" d="m136.7 25.6h-12.7c-0.7 0-1.3 0.6-1.3 1.3s0.6 1.3 1.3 1.3h5.1v16.7c0 0.7 0.6 1.3 1.3 1.3s1.3-0.6 1.3-1.3v-16.7h5c0.8 0 1.3-0.6 1.3-1.3s-0.6-1.3-1.3-1.3"/>
</g>
<g transform="scale(3.8369)" fill="#fff">
	<path class="st1" d="m18.9 27.5c0-1.1 0.9-2 2-2s2 0.9 2 2v16.7c0 1.1-0.8 2.1-2 2.1-1.1 0-2-0.9-2-2.1z"/>
	<path class="st1" d="m46 27.5c0-1.1 0.9-2 2-2s2 0.9 2 2v16.7c0 1.1-0.8 2.1-2 2.1-1.1 0-2-0.9-2-2.1z"/>
	<path class="st1" d="m39.1 40.1c0.4-0.7 0.8-1.2 1.7-1.2s1.9 0.8 1.9 1.9c0 0.4 0 0.6-0.2 1.1-1.3 2.9-4.4 4.6-7.6 4.6-4.9 0-8.3-3.6-8.7-8.3-0.1-1.5-0.1-3.1 0-4.6 0.4-4.7 3.8-8.3 8.7-8.3 3.3 0 6.4 1.7 7.6 4.6 0.2 0.5 0.2 0.7 0.2 1.1 0 1.1-1 1.9-1.9 1.9s-1.4-0.6-1.7-1.2c-0.8-1.6-2.3-2.6-4.1-2.6-2.8 0-4.6 2.1-4.8 4.9-0.1 1.2-0.1 2.5 0 3.7 0.2 2.9 1.9 4.8 4.8 4.8 1.7 0.1 3.2-0.8 4.1-2.4"/>
</g>
<g transform="scale(3.8369)" fill="#fff">
	<circle class="st1" cx="87.8" cy="35.8" r="9"/>
		<path class="st1" d="m68.5 35.8c0 4.9 4 9 9 9v-17.9c-5 0-9 4-9 8.9z"/>
		<path class="st1" d="m98.1 26.9v17.9c4.9 0 9-4 9-9 0-4.9-4-8.9-9-8.9z"/>
		<path class="st1" d="m87.8 55.1c4.9 0 9-4 9-9h-17.9c-0.1 5 3.9 9 8.9 9z"/>
		<path class="st1" d="m78.8 25.5h17.9c0-4.9-4-9-9-9-4.9 0-8.9 4-8.9 9z"/>
		<path class="st1" d="m68.9 25.5h8.5v-8.5c-4.7 0-8.5 3.8-8.5 8.5z"/>
		<path class="st1" d="m98.1 17v8.5h8.5c0-4.7-3.8-8.5-8.5-8.5z"/>
		<path class="st1" d="m68.9 46.2h8.5v8.5c-4.7 0-8.5-3.8-8.5-8.5z"/>
		<path class="st1" d="m98.1 54.7v-8.5h8.5c0 4.7-3.8 8.5-8.5 8.5z"/>
			<path class="st1" d="m108.5 43.5v-15.4c2.6 1.6 4.4 4.4 4.4 7.7-0.1 3.3-1.8 6.2-4.4 7.7z"/>
			<path class="st1" d="m67.1 28.1v15.4c-2.6-1.6-4.4-4.4-4.4-7.7 0-3.2 1.8-6.1 4.4-7.7z"/>
			<path class="st1" d="m95.5 15.1h-15.4c1.6-2.6 4.4-4.4 7.7-4.4 3.2 0.1 6.1 1.8 7.7 4.4z"/>
			<path class="st1" d="m80.1 56.5h15.4c-1.6 2.6-4.4 4.4-7.7 4.4s-6.2-1.8-7.7-4.4z"/>
</g>
</svg>
