<svg width="746.99" height="345.23" version="1.1" xmlns="http://www.w3.org/2000/svg">
 <g transform="translate(-34.542 45.187)">
  <path d="m103.42 76.958h68.867v-68.955h-68.867z" fill="#c91e25"/>
  <path d="m103.42 145.92h68.867v-68.964h-68.867z" fill="#2c3383"/>
  <path d="m34.542 145.92h68.874v-68.964h-68.874z" fill="#47aa39"/>
  <path d="m34.542 76.958h68.874v-68.955h-68.874z" fill="#f2ab0e"/>
  <g fill="#100f0d">
   <path d="m589.27 238.03c0-8.2763-1.7894-15.172-5.3645-20.694-4.2298-6.4408-10.197-9.6565-17.913-9.6565-16.629 0-24.944 10.119-24.944 30.35 0 8.363 1.8415 15.263 5.5133 20.686 4.4084 6.4348 10.882 9.6565 19.431 9.6565 7.7157 0 13.683-3.2218 17.913-9.6565 3.5751-5.5178 5.3645-12.406 5.3645-20.686zm-57.094 62.012v-97.64h8.0058v13.532h0.28273c2.0349-4.8202 5.3385-8.6319 9.9143-11.454 4.5758-2.8266 9.7766-4.2432 15.599-4.2432 10.357 0 18.441 3.7857 24.27 11.357 5.2678 6.8258 7.9017 15.639 7.9017 26.437 0 10.787-2.6227 19.604-7.8794 26.434-5.8109 7.5711-13.873 11.354-24.189 11.354-5.5356 0-10.513-1.3515-14.937-4.0297-4.7023-2.7785-7.9724-6.6702-9.8138-11.669h-0.28273v39.924h-8.8726"/>
   <path d="m611.68 273.66h8.8732v-98.614h-8.8732z"/>
   <path d="m642.26 232.86h46.063c-0.18601-6.9244-2.2544-12.774-6.2053-17.523-4.2261-5.1034-9.6985-7.658-16.413-7.658-6.7075 0-12.228 2.6052-16.54 7.8005-3.8653 4.5587-6.1643 10.364-6.9047 17.38zm54.943 7.4433h-54.943c0.0967 7.3823 1.9457 13.638 5.5468 18.808 4.3526 6.1719 10.361 9.26 18.035 9.26 11.845 0 19.341-6.0673 22.481-18.197h8.8801c-3.9992 17.092-14.445 25.642-31.35 25.642-10.777 0-19.047-3.742-24.802-11.219-5.1152-6.7326-7.6636-15.59-7.6636-26.569 0-10.422 2.5409-19.105 7.6264-26.027 5.8295-7.8358 14.059-11.767 24.698-11.767 10.818 0 19.047 4.1923 24.695 12.577 4.8995 7.2733 7.1651 16.443 6.7968 27.49"/>
   <path d="m700.49 273.66 27.619-37.013-25.546-34.245h10.904l20.305 27.058 19.884-27.058h10.904l-25.68 34.102 27.831 37.155h-11.06l-22.396-29.976-21.986 29.976h-10.777"/>
   <path d="m206.86 145.83v-138.57h37.667v138.57zm37.667-191.12v31.157h-37.667v-31.157h37.667"/>
   <path d="m269.19 145.83v-138.57h36.134v19.473h0.7976c9.4039-15.462 23.42-23.193 42.05-23.193 18.977 0 32.377 5.1807 40.179 15.542 6.7432 8.937 10.116 22.779 10.116 41.53v85.217h-37.667v-78.43c0-22.725-8.1468-34.097-24.423-34.097-10.374 0-17.894 3.1391-22.545 9.4024-4.6502 6.2529-6.9754 16.374-6.9754 30.34v72.785h-37.667"/>
   <path d="m521.17 76.14c0-12.628-2.3326-22.772-6.9977-30.42-5.7402-8.8935-14.345-13.348-25.826-13.348-11.659 0-20.357 4.5412-26.09 13.617-5.0297 7.6424-7.5371 17.784-7.5371 30.42 0 12.105 2.6897 22.154 8.0728 30.161 5.9151 9.431 14.438 14.148 25.554 14.148 21.878 0 32.823-14.86 32.823-44.578zm0.53571 69.689v-17.665h-0.53571c-8.3853 14.256-22.396 21.385-42.019 21.385-19.806 0-35.334-7.5873-46.569-22.773-10.353-13.746-15.528-30.895-15.528-51.443 0-20.003 5.1896-36.603 15.565-49.82 11.261-14.648 26.558-21.973 45.885-21.973 18.601 0 32.377 6.9318 41.32 20.781v-69.608h37.667v191.12h-35.784"/>
   <path d="m587.63 145.83v-138.57h37.667v138.57zm37.667-191.12v31.157h-37.667v-31.157h37.667"/>
   <path d="m681.12 61.661h62.168c-3.59-19.522-13.727-29.288-30.409-29.288-10.77 0-19.021 3.5531-24.762 10.652-4.3117 5.3277-6.6442 11.537-6.9977 18.636zm100.17 24.181h-100.17c1.0751 23.251 12.444 34.877 34.114 34.877 7.3362 0 13.958-1.9416 19.87-5.8217 5.5542-3.3422 8.9545-7.3094 10.212-11.894h33.575c-10.171 31.033-31.767 46.547-64.776 46.547-21.596 0-38.764-6.7428-51.525-20.228-12.757-13.486-19.137-31.035-19.137-52.651 0-21.07 6.5512-38.521 19.669-52.363 13.114-13.842 30.111-20.766 50.993-20.766 22.481 0 39.877 8.4069 52.19 25.206 11.421 15.375 16.413 34.394 14.989 57.095"/>
  </g>
 </g>
</svg>
