<svg width="800" height="452" version="1.1" viewBox="0 0 800 452" xml:space="preserve" xmlns="http://www.w3.org/2000/svg"><g transform="matrix(1.3333 0 0 -1.3333 5.1324e-5 452)"><g transform="matrix(6.7253 0 0 6.7253 407.4 71.046)"><path d="m0 0c0.261-0.602 0.618-1.126 1.072-1.572 0.456-0.446 0.984-0.798 1.586-1.058 0.605-0.261 1.249-0.388 1.937-0.388 0.685 0 1.331 0.127 1.935 0.388 0.603 0.26 1.131 0.612 1.587 1.058 0.454 0.446 0.811 0.97 1.071 1.572 0.261 0.605 0.391 1.247 0.391 1.935 0 0.687-0.13 1.333-0.391 1.937-0.26 0.602-0.617 1.125-1.071 1.572-0.456 0.446-0.984 0.798-1.587 1.057-0.604 0.262-1.25 0.391-1.935 0.391-0.688 0-1.332-0.129-1.937-0.391-0.602-0.259-1.13-0.611-1.586-1.057-0.454-0.447-0.811-0.97-1.072-1.572-0.259-0.604-0.389-1.25-0.389-1.937 0-0.688 0.13-1.33 0.389-1.935m1.448-8.561v-2.003h-6.098v2.003h1.7v15.76h-1.643v1.977h4.399v-1.588c0.65 0.594 1.396 1.053 2.24 1.379 0.845 0.323 1.751 0.486 2.715 0.486 1.003 0 1.954-0.195 2.854-0.584 0.901-0.389 1.685-0.928 2.353-1.615 0.669-0.687 1.198-1.486 1.588-2.395 0.389-0.909 0.583-1.883 0.583-2.924 0-1.038-0.198-2.013-0.597-2.922-0.4-0.911-0.933-1.708-1.601-2.393-0.668-0.687-1.449-1.227-2.34-1.616-0.891-0.391-1.837-0.586-2.84-0.586-0.964 0-1.874 0.172-2.728 0.515-0.853 0.344-1.615 0.811-2.283 1.407v-4.901z" fill="#fff"/></g><g transform="matrix(6.7253 0 0 6.7253 370.33 132.76)"><path d="m0 0v-4.178h-1.976v0.864c-0.352 0.371-0.86 0.692-1.517 0.959-0.659 0.271-1.378 0.406-2.158 0.406-1.634 0-2.45-0.558-2.45-1.672 0-0.408 0.203-0.755 0.612-1.043 0.408-0.288 1.142-0.561 2.2-0.822 1.764-0.426 3.122-1.025 4.078-1.795 0.957-0.771 1.435-1.807 1.435-3.106 0-0.796-0.152-1.465-0.46-2.005-0.306-0.537-0.709-0.973-1.21-1.307s-1.068-0.576-1.7-0.725c-0.63-0.149-1.281-0.223-1.948-0.223-0.502 0-0.941 0.03-1.323 0.084-0.38 0.056-0.714 0.135-1.002 0.238-0.288 0.101-0.544 0.216-0.766 0.348-0.223 0.129-0.437 0.269-0.64 0.418v-0.781h-1.921v4.316h1.976v-1.002c0.391-0.297 0.85-0.568 1.379-0.807 0.529-0.242 1.248-0.361 2.158-0.361 0.983 0 1.699 0.179 2.144 0.54 0.445 0.365 0.668 0.786 0.668 1.267 0 0.315-0.056 0.595-0.167 0.837s-0.302 0.459-0.571 0.654c-0.269 0.193-0.636 0.381-1.099 0.555-0.466 0.177-1.042 0.358-1.727 0.543-0.502 0.13-1.027 0.299-1.572 0.503-0.549 0.204-1.045 0.462-1.491 0.777-0.445 0.318-0.812 0.707-1.1 1.171s-0.431 1.04-0.431 1.726c0 0.632 0.139 1.193 0.417 1.686 0.279 0.491 0.645 0.904 1.099 1.239 0.456 0.333 0.985 0.589 1.589 0.764 0.603 0.177 1.229 0.266 1.878 0.266 0.948 0 1.709-0.107 2.284-0.321 0.575-0.213 1.02-0.449 1.336-0.709v0.696z" fill="#fff"/></g><g transform="matrix(6.7253 0 0 6.7253 193.19 47.75)"><path d="m0 0h1.698v10.941h-1.698v1.699h4.4v-1.365c0.184 0.222 0.394 0.44 0.626 0.655 0.232 0.212 0.511 0.403 0.835 0.57s0.706 0.301 1.142 0.403 0.961 0.153 1.572 0.153c1.654 0 2.957-0.459 3.913-1.377 0.957-0.918 1.434-2.158 1.434-3.717v-7.962h1.698v-1.701h-6.098v1.701h1.699v7.822c0 0.873-0.264 1.568-0.794 2.089-0.528 0.519-1.248 0.78-2.157 0.78-0.575 0-1.081-0.093-1.518-0.278-0.436-0.186-0.817-0.41-1.141-0.67-0.326-0.259-0.585-0.533-0.779-0.821-0.195-0.288-0.34-0.533-0.432-0.739v-8.183h1.698v-1.701h-6.098z" fill="#fff"/></g><g transform="matrix(6.7253 0 0 6.7253 184.49 150.82)"><path d="m0 0c-0.325-0.325-0.719-0.487-1.184-0.487-0.464 0-0.858 0.162-1.183 0.487s-0.487 0.719-0.487 1.183 0.162 0.858 0.487 1.184c0.325 0.325 0.719 0.486 1.183 0.486 0.465 0 0.859-0.161 1.184-0.486 0.324-0.326 0.487-0.72 0.487-1.184s-0.163-0.858-0.487-1.183m-4.163-2.686h4.399v-12.64h9e-3v-1.7h-4.408v1.7h1.699v10.941h-1.699z" fill="#fff"/></g><g transform="matrix(6.7253 0 0 6.7253 54.602 36.077)"><path d="m0 0c0.878 21.14 18.287 38.015 39.649 38.015 21.357 0 38.768-16.875 39.645-38.015h1.792c0 0.147 0.011 0.29 0.011 0.439 0 24.634-19.971 44.604-44.608 44.604-24.639 0-44.608-19.97-44.608-44.604 0-0.149 9e-3 -0.292 0.011-0.439z" fill="#ffbf3b"/></g></g></svg>
