<svg width="799.98" height="800" data-name="Layer 1" version="1.1" viewBox="0 0 799.98 800" xmlns="http://www.w3.org/2000/svg">
 <g transform="matrix(1.203 0 0 1.203 -9.8644 -10.346)" data-name="Layer 5">
  <path d="m583.76 8.6h-486.13a90 90 0 0 0-89.43 90v485.59a90 90 0 0 0 90 89.43h485a90 90 0 0 0 90-89.43v-485.59a90 90 0 0 0-89.44-90z" fill="#054f88"/>
  <path d="m269 269.84a111.42 111.42 0 1 0 111.36 111.47v-0.06a111.54 111.54 0 0 0-111.36-111.41zm0 165.9a54.48 54.48 0 1 1 54.5-54.48 54.48 54.48 0 0 1-54.5 54.47z" fill="#fff"/>
  <path d="m123 273h-44.71a8.3 8.3 0 0 0-8.29 8.2v199.8a8.3 8.3 0 0 0 8.3 8.24h44.7a8.3 8.3 0 0 0 8.3-8.24v-199.8a8.3 8.3 0 0 0-8.3-8.2z" fill="#fff"/>
  <path d="m122.87 182h-44.87a8.3 8.3 0 0 0-8.24 8.3v44.79a8.3 8.3 0 0 0 8.3 8.24h44.74a8.3 8.3 0 0 0 8.3-8.24v-44.79a8.3 8.3 0 0 0-8.23-8.3z" fill="#fff"/>
  <path d="m509.93 269.84c-56.93 0-103.26 44.92-103.26 100.16v111.1a8.3 8.3 0 0 0 8.3 8.19h45a8.3 8.3 0 0 0 8.27-7.73v-108c0-22.15 18.71-40.15 41.66-40.15s41.66 18 41.66 40.15v107.89a8.3 8.3 0 0 0 8.28 7.81h45.47a8.3 8.3 0 0 0 8.3-8.24v-111.02c0.03-55.24-46.49-100.16-103.68-100.16z" fill="#fff"/>
  <path d="m570.49 549.6h-15.43l-43.57 100.18h20l9.05-22.92h43.43l9.36 22.92h20.37zm-23.92 62 15.71-40.74 15.42 40.74z" fill="#fff"/>
  <rect x="453.89" y="549.6" width="17.83" height="100.17" fill="#fff"/>
  <path d="m407.71 573.31a44.56 44.56 0 0 0-18.1-17.47 54.3 54.3 0 0 0-26-6.22h-39.9v100.17h37.77a55.77 55.77 0 0 0 26.1-6.36 49.81 49.81 0 0 0 19.42-17.54q7.15-11.17 7.15-26.17t-6.44-26.41zm-22.85 51.46q-10.61 8.92-29.24 8.91h-14v-67.95h16.38q18.1 0 27.8 8.7t9.69 25.26q0 16.13-10.58 25.07z" fill="#fff"/>
  <polygon points="281.35 606.49 281.35 590.36 235.37 590.36 235.37 565.73 283.9 565.73 283.9 549.6 217.55 549.6 217.55 649.78 286.45 649.78 286.45 633.65 235.37 633.65 235.37 606.49" fill="#fff"/>
  <polygon points="130.12 649.78 160.53 566.6 160.82 566.6 160.82 649.78 177.8 649.78 177.8 549.6 150.91 549.6 123.89 619.78 97.15 549.6 69.99 549.6 69.99 649.78 86.97 649.78 86.97 566.6 87.25 566.6 117.67 649.78" fill="#fff"/>
 </g>
</svg>
