<svg width="800" height="333.67" version="1.1" viewBox="0 0 800 333.67" xml:space="preserve" xmlns="http://www.w3.org/2000/svg"><defs><radialGradient id="radialGradient30" cx="0" cy="0" r="1" gradientTransform="matrix(33.082 0 0 -33.082 694.53 340.96)" gradientUnits="userSpaceOnUse"><stop stop-color="#72c93e" offset="0"/><stop stop-color="#72c93e" offset=".58533"/><stop stop-color="#63c442" offset="1"/></radialGradient><radialGradient id="radialGradient52" cx="0" cy="0" r="1" gradientTransform="matrix(69.859 0 0 -69.859 134.24 369.56)" gradientUnits="userSpaceOnUse"><stop stop-color="#fddd04" offset="0"/><stop stop-color="#fddd04" offset=".58533"/><stop stop-color="#fcd205" offset="1"/></radialGradient><radialGradient id="radialGradient74" cx="0" cy="0" r="1" gradientTransform="matrix(83.088 0 0 -83.088 615.95 285.34)" gradientUnits="userSpaceOnUse"><stop stop-color="#f68512" offset="0"/><stop stop-color="#f46f16" offset=".72951"/><stop stop-color="#f46f16" offset="1"/></radialGradient><radialGradient id="radialGradient100" cx="0" cy="0" r="1" gradientTransform="matrix(104.24 0 0 -104.24 466.51 288.35)" gradientUnits="userSpaceOnUse"><stop stop-color="#e41c92" offset="0"/><stop stop-color="#e41c92" offset=".0022912"/><stop stop-color="#da1e92" offset=".031662"/><stop stop-color="#da1e92" offset=".092841"/><stop stop-color="#c10f7e" offset="1"/></radialGradient><radialGradient id="radialGradient124" cx="0" cy="0" r="1" gradientTransform="matrix(138.34 0 0 -138.34 256.06 305.87)" gradientUnits="userSpaceOnUse"><stop stop-color="#5acaf5" offset="0"/><stop stop-color="#5acaf5" offset=".58532"/><stop stop-color="#4dc6f4" offset=".99998"/><stop stop-color="#4dc6f4" offset="1"/></radialGradient><clipPath id="clipPath134"><path d="m0 612h792v-612h-792z"/></clipPath></defs><g transform="matrix(1.3333 0 0 -1.3333 -85.844 557.08)"><g transform="matrix(.90466 0 0 .90466 6.1385 15.975)"><path d="m661.44 340.95c0-18.262 14.813-33.071 33.085-33.071 18.275 0 33.088 14.809 33.088 33.071 0 18.272-14.813 33.086-33.088 33.086-18.272 0-33.085-14.814-33.085-33.086" fill="url(#radialGradient30)"/></g><g transform="matrix(.90466 0 0 .90466 6.1385 15.975)"><path d="m64.383 369.56c0-38.583 31.276-69.863 69.857-69.863 38.575 0 69.855 31.28 69.855 69.863 0 38.584-31.28 69.861-69.855 69.861-38.581 0-69.857-31.277-69.857-69.861" fill="url(#radialGradient52)"/></g><g transform="matrix(.90466 0 0 .90466 6.1385 15.975)"><path d="m532.84 285.34c0-45.89 37.245-83.076 83.126-83.076 45.891 0 83.082 37.186 83.082 83.076 0 45.881-37.191 83.07-83.082 83.07-45.881 0-83.126-37.189-83.126-83.07" fill="url(#radialGradient74)"/></g><g transform="matrix(.90466 0 0 .90466 6.1385 15.975)"><path d="m362.26 288.35c0-57.586 46.673-104.24 104.24-104.24 57.569 0 104.24 46.655 104.24 104.24 0 57.575-46.676 104.24-104.24 104.24-57.562 0-104.24-46.662-104.24-104.24" fill="url(#radialGradient100)"/></g><g transform="matrix(.90466 0 0 .90466 6.1385 15.975)"><path d="m117.68 305.88c0-76.398 61.925-138.32 138.3-138.32 76.392 0 138.44 61.925 138.44 138.32 0 76.386-62.052 138.3-138.44 138.3-76.379 0-138.3-61.917-138.3-138.3" fill="url(#radialGradient124)"/></g><g transform="matrix(.90466 0 0 .90466 6.1385 15.975)"><g clip-path="url(#clipPath134)"><g transform="translate(224.17 267.64)"><path d="m0 0-15.594 20.763 14.761 17.404c1.596 1.915 2.308 3.715 2.308 5.832 0 4.633-3.828 8.549-8.365 8.549-2.744 0-4.813-0.89-6.516-2.807 0 0-20.437-24.251-20.755-24.823 0 2.958-7e-3 5.415-7e-3 5.415l0.018 4.05c0 7.305-2.228 18.246-15.229 18.246-2.357 0-4.071-0.409-6.201-1.418-5.135-2.427-6.386-8.108-5.23-11.502 1.234-3.622 4.193-6.023 8.468-5.321l-3e-3 -0.559-0.029 5e-3 -8e-3 -0.507c0-0.012-6e-3 -34.106-7e-3 -38.087 0-5.249 3.921-9.21 9.119-9.21 5.199 0 9.118 3.961 9.118 9.21-2e-3 3.409-4e-3 13.118-5e-3 21.386 0.304-0.569 20.215-26.901 20.215-26.901 1.81-2.347 4.441-3.695 7.207-3.695 4.659 0 8.741 4.087 8.741 8.741 0 1.754-0.654 3.468-2.006 5.229" fill="#fff"/></g><g transform="translate(472.73 279.43)"><path d="m0 0c-2.547 0-4.927-1.129-7.048-3.356-3.451-3.542-7.194-5.193-11.781-5.193-9.456 0-15.797 6.441-15.797 16.051 0 9.576 6.487 16.264 15.797 16.264 4.763 0 8.639-1.705 11.87-5.202 2.128-2.23 4.5-3.36 7.053-3.36 4.734 0 8.588 3.806 8.588 8.491 0 2.306-0.912 4.56-2.62 6.49-5.67 6.736-14.937 10.759-24.799 10.759-19.498 0-34.761-14.641-34.761-33.34 0-18.693 15.219-33.327 34.669-33.327 9.863 0 19.132 4.027 24.834 10.805 1.74 2.254 2.591 4.362 2.591 6.439 0 4.668-3.86 8.479-8.596 8.479" fill="#fff"/></g><g transform="translate(407.44 320.19)"><path d="m0 0c-3.951 0-7.472-2.345-8.956-5.961l-8.719-20.318-10.806 20.412c-2.071 3.838-5.15 5.867-8.9 5.867-5.299 0-9.61-4.304-9.61-9.605 0-1.651 0.496-3.527 1.366-5.168l17.672-31.656c-1.664-2.068-4.223-2.959-8.585-2.959-5.214 0-8.853-3.442-8.853-8.37 0-3.051 1.41-5.379 4.308-7.092 1.87-1.145 4.323-1.674 7.741-1.674 11.677 0 19.321 4.686 24.054 14.738l17.575 37.105c0.813 1.809 1.318 3.261 1.318 4.886 0 5.399-4.311 9.795-9.605 9.795" fill="#fff"/></g><g transform="translate(260.89 267.4)"><path d="m0 0c-4.042 0-7.333 3.29-7.333 7.329 0 4.04 3.291 7.338 7.333 7.338 4.045 0 7.342-3.298 7.342-7.338 0-4.039-3.297-7.329-7.342-7.329m1.768 53.011c-9.274 0-17.691-2.879-23.1-7.901-2.495-2.356-3.763-4.827-3.763-7.342 0-4.298 3.534-7.664 8.045-7.664 1.87 0 3.405 0.607 5.521 2.196 3.51 3.025 7.28 4.498 11.529 4.498 7.11 0 11.027-3.649 11.027-10.271v-2.059h-14.943c-15.011 0-24.336-7.245-24.336-18.906 0-11.588 8.967-19.389 22.316-19.389 7.077 0 13.247 2.105 17.926 6.101 1.233-3.57 4.611-5.973 8.596-5.973 5.089 0 8.927 3.944 8.927 9.176v30.042c0 17.47-10.114 27.492-27.745 27.492" fill="#fff"/></g><g transform="translate(329.19 289.58)"><path d="m0 0c-3.936 0-7.136 3.201-7.136 7.135 0 3.937 3.2 7.144 7.136 7.144 3.934 0 7.142-3.207 7.142-7.144 0-3.934-3.208-7.135-7.142-7.135m0.917 29.411h-25.15c-4.454 0-8.064-3.608-8.064-8.062 0-4.375 3.482-7.924 7.824-8.052v-40.012c0-5.295 3.958-9.288 9.202-9.288 5.237 0 9.198 3.993 9.198 9.288v11.235h6.99c14.499 0 25.022 9.452 25.022 22.489 0 13.187-10.295 22.402-25.022 22.402" fill="#fff"/></g><g transform="translate(651.84 270.14)"><path d="m0 0c-4.043 0-7.334 3.291-7.334 7.332 0 4.04 3.291 7.343 7.334 7.343 4.045 0 7.343-3.303 7.343-7.343 0-4.041-3.298-7.332-7.343-7.332m1.617 29.633h-8.587v11.242c0 5.303-3.955 9.295-9.194 9.295-5.33 0-9.198-3.908-9.198-9.295v-46.826c0-5.293 3.994-9.286 9.291-9.286h17.688c14.727 0 25.02 9.202 25.02 22.367 0 13.036-10.523 22.503-25.02 22.503" fill="#fff"/></g><g transform="translate(606.29 319.08)"><path d="m0 0h-36.776c-4.455 0-8.064-3.606-8.064-8.061 0-4.44 3.674-8.106 8.105-8.134-0.943-12.042-1.596-20.755-5.022-30.847 0 0-2.127 1.269-4.652 0.969-6.517-0.775-8.631-6.64-7.116-11.299 1.895-5.828 7.881-7.756 12.949-7.756 10.887 0 16.329 6.699 18.997 25.159 1.093 7.566 2.031 16.172 2.723 23.844h9.817v-40.049c0-5.261 3.929-9.235 9.137-9.235 5.21 0 9.137 3.974 9.137 9.235v46.938c0 5.266-3.97 9.236-9.235 9.236" fill="#fff"/></g><g transform="translate(520.75 292.35)"><path d="m0 0c-4.206 0-7.63 3.429-7.63 7.637 0 4.201 3.424 7.634 7.63 7.634s7.636-3.433 7.636-7.634c0-4.208-3.43-7.637-7.636-7.637m28.975 6.149c-1.468 7.258-9.974 21.832-29.571 21.832-18.726 0-32.848-14.23-32.848-33.097 0-22.638 19.953-33.528 32.821-33.528 11.876 0 15.022 1.812 19.098 3.604 3.872 1.706 6.288 4.713 6.616 8.09 0.471 4.814-2.865 8.805-7.758 9.284-1.537 0.15-2.979-0.141-4.676-0.943-1.898-0.957-5.536-2.392-11.202-2.392-9.111 0-15.877 4.955-16.703 10.546h27.686c12.962 0 18.856 5.145 16.537 16.604" fill="#fff"/></g><g transform="translate(179.72 359.14)"><path d="m0 0h-5.243v-13.301h-4.776v13.301h-5.267v3.846h15.286z" fill="#fff"/></g><g transform="translate(197.92 349.59)"><path d="m0 0v-3.749h-13.768v17.147h13.45v-3.749h-8.65v-2.888h7.619v-3.628h-7.619v-3.133z" fill="#fff"/></g><g transform="translate(218.89 362.99)"><path d="m0 0v-17.146h-4.776v13.3h-4.925l-0.1-2.791c-0.079-2.451-0.28-4.444-0.598-5.979-0.318-1.536-0.861-2.722-1.629-3.562-0.768-0.841-1.854-1.262-3.258-1.262-0.654 0-1.39 0.096-2.207 0.294l0.27 3.966c0.215-0.049 0.432-0.072 0.664-0.072 0.637 0 1.124 0.252 1.47 0.76 0.342 0.505 0.588 1.211 0.733 2.117 0.149 0.909 0.246 2.089 0.294 3.541l0.246 6.834z" fill="#fff"/></g><g transform="translate(238.53 349.59)"><path d="m0 0v-3.749h-13.768v17.147h13.45v-3.749h-8.646v-2.888h7.618v-3.628h-7.618v-3.133z" fill="#fff"/></g><g transform="translate(250.44 352.41)"><path d="m0 0h-2.203v-6.564h-4.825v17.147h4.825v-6.661h2.328l4.091 6.661h5.094l-5.364-8.28 5.412-8.867h-5.461z" fill="#fff"/></g><g transform="translate(273.56 352.75)"><path d="m0 0-2.206 5.488-2.203-5.488zm1.421-3.576h-7.252l-1.349-3.33h-4.945l7.567 17.146h4.78l7.59-17.146h-5.045z" fill="#fff"/></g><g transform="translate(301.85 362.99)"><path d="m0 0v-17.146h-4.852v6.688h-6.613v-6.688h-4.852v17.146h4.852v-6.443h6.613v6.443z" fill="#fff"/></g><g transform="translate(318.14 352.75)"><path d="m0 0-2.207 5.488-2.203-5.488zm1.421-3.576h-7.252l-1.349-3.33h-4.945l7.567 17.146h4.779l7.591-17.146h-5.045z" fill="#fff"/></g><g transform="translate(346.31 362.99)"><path d="m0 0v-17.146h-4.776v13.3h-4.925l-0.097-2.791c-0.083-2.451-0.28-4.444-0.602-5.979-0.318-1.536-0.861-2.722-1.629-3.562-0.767-0.841-1.853-1.262-3.258-1.262-0.653 0-1.386 0.096-2.202 0.294l0.269 3.966c0.211-0.049 0.433-0.072 0.661-0.072 0.636 0 1.127 0.252 1.47 0.76 0.342 0.505 0.588 1.211 0.736 2.117 0.145 0.909 0.243 2.089 0.294 3.541l0.243 6.834z" fill="#fff"/></g></g></g></g></svg>
