<svg width="488.38" height="81.127" version="1.1" viewBox="0 0 488.38 81.127" xmlns="http://www.w3.org/2000/svg">
 <path d="M 0,81.127 H 488.38 V 0 H 0 Z" fill="#1075bc"/>
 <path d="m189.92 78.328h-187.07v-75.347h187.07z" fill="#fff"/>
 <path d="m262.18 15.749s-7.0875 26.048-8.3951 30.494c-1.3076-4.3937-8.552-30.494-8.552-30.494h-10.095s-7.2967 25.892-8.5782 30.494c-1.2554-4.6029-8.3167-30.494-8.3167-30.494h-10.932l14.07 49.508h10.435s7.1136-25.865 8.3167-30.364c1.2553 4.4983 8.4213 30.364 8.4213 30.364h10.435l14.096-49.508h-10.906z" fill="#fff"/>
 <path d="m297.06 14.844c-7.6628 0-13.809 2.3913-18.281 7.125-4.4722 4.6029-6.75 10.889-6.75 18.656 0 7.9244 2.2778 14.314 6.75 18.969 4.4722 4.7598 10.566 7.2188 18.281 7.2188 7.4536 0 13.653-2.4589 18.125-7.2188 4.5245-4.6552 6.8438-11.044 6.8438-18.969 0-7.7674-2.3193-14.053-6.8438-18.656-4.4722-4.7337-10.671-7.125-18.125-7.125zm0 9.375c4.2368 0 7.453 1.597 9.9375 4.5 2.4845 3.1122 3.6562 7.0156 3.6562 11.906 0 5.126-1.1717 9.2526-3.6562 12.312-2.4845 2.903-5.7007 4.4062-9.9375 4.4062-4.446 0-7.7763-1.5033-10.156-4.4062-2.43-3.059-3.65-7.186-3.65-12.312 0-4.8906 1.224-8.794 3.6562-11.906 2.3799-2.903 5.7102-4.5 10.156-4.5z" fill="#fff"/>
 <path d="m327.44 15.75v49.625h10.688v-18.969h7.6875c0.41845 0.54921 14.25 19.031 14.25 19.031h13.188s-14.193-19.093-15.344-20.531c3.1122-1.1769 5.5749-2.9071 7.5625-5.1562 2.1969-2.4584 3.2812-5.4707 3.2812-8.6875 0-4.6552-1.8386-8.4153-5.5-11.188-3.5568-2.7984-8.0972-4.125-13.406-4.125h-22.406zm10.688 9.5h12.094c2.0661 0 3.7542 0.5534 5.2188 1.4688 1.3861 0.81075 2.0625 2.3038 2.0625 4.3438 0 1.9353-0.69611 3.3971-2.3438 4.3125-1.7 0.96766-3.5545 1.5938-5.4375 1.5938h-11.594v-11.719z" fill="#fff"/>
 <path d="m377.6 15.802v49.586h37.137v-9.4412h-26.519v-40.145h-10.618z" fill="#fff"/>
 <path d="m420 15.656v49.844h18.781c7.689 0 11.736-2.4647 16.156-7.0938 4.4983-4.7598 6.75-10.73 6.75-17.844 0-7.1921-2.2517-13.074-6.75-17.781-4.4199-4.6291-8.4673-7.125-16.156-7.125h-18.781zm10.656 9.5938h6.8125c5.126 0 8.8911 1.4822 11.219 4.4375 2.4584 2.9553 3.5625 6.5859 3.5625 10.875 0 4.2368-1.1041 7.9924-3.5625 11-2.3276 2.903-6.0928 4.375-11.219 4.375h-6.8125v-30.688z" fill="#fff"/>
 <path d="m144.27 34.036c-2.1707-0.65383-3.4522-3.3214-3.1907-5.6752 0.26153-2.4061 2.1968-5.806 6.7213-5.806h24.767v-8.0813h-23.512c-4.7337-0.52306-8.892 0.65382-8.892 0.65382s-8.4474 1.0723-10.775 9.2582c-1.543 5.7275 0 12.606 5.466 16.398 8.0028 5.4137 17.392 0.70613 25.552 3.766 3.8445 1.4384 5.2045 6.0936 3.4784 9.7551 0 0-2.4322 4.6029-6.7213 4.1583h-26.519v8.212l31.959 0.15691s10.095-0.86305 13.129-10.017c2.2492-6.6429 1.4123-11.324-3.583-16.895-7.2182-7.8198-18.202-2.9291-27.879-5.8844" fill="#1075bc"/>
 <path d="m71.604 14.523h-13.573l-19.615 24.427v-24.427h-11.324v52.306h11.455v-26.048c0-0.15692 0.91536 0.31383 1.02 0.4446l18.987 25.447h14.803l-21.524-26.756 19.771-25.394z" fill="#1075bc"/>
 <path d="m78.312 14.25v52.844l29.094-0.0625h3.125c10.357-0.75843 16.01-9.952 14.781-17.562-0.62767-4.446-3.4215-8.5314-7.1875-10.938 0 0 2.9481-3.5358 4.125-6.125 0.8892-2.0661 0.59375-6.0938 0.59375-6.0938-0.86305-6.8521-5.1426-12.062-13.25-12.062h-31.281zm10.812 8.5312h17.469s4.9164-0.27673 4.9688 6c0 0 0.26185 5.514-4.9688 5.9062h-17.469v-11.906zm0 20.594h17.594s6.1862-0.18188 6.5 7.0625c0 0 0.44451 7.107-6.0938 7.6562h-18v-14.719z" fill="#1075bc"/>
</svg>
