<svg width="800" height="243.88" enable-background="new 0 0 307.333 97.333" space="preserve" version="1.1" viewBox="0 0 800 243.88" xmlns="http://www.w3.org/2000/svg">
 <link href="" rel="stylesheet" type="text/css"/>
 <style type="text/css"/>
 <path d="m682.22 116.21c7.4312 0 13.457-6.0204 13.457-13.446 0-7.4286-6.023-13.452-13.457-13.452-7.4154 0-13.436 6.0204-13.436 13.452 0 7.4259 6.0204 13.446 13.436 13.446m-26.779-60.808h37.177l30.801 69.373h-13.528v20.535c-0.0923 7.4681-5.5562 12.8-13.602 13.583h-6.8932v35.521h-49.692v-36.953c-23.873-3.6233-39.851-22.592-39.851-49.168-3e-3 -31.587 25.084-52.891 55.589-52.891m95.648 69.37v20.469c-0.11076 9.1163-7.9349 13.797-13.713 13.652h-6.5056v35.521h-19.791v-35.521c15.145 0.20305 19.809-4.5621 19.773-15.722v-18.399h13.9l-30.492-69.373h19.957l30.4 69.373z" fill="#030303" stroke-width="2.637"/>
 <g fill="#fff">
  <polygon transform="matrix(2.637 0 0 2.637 -6.0467 -8.668)" points="22.964 59.808 19.111 76.248 2.293 76.248 18.97 3.974 35.784 3.974 25.844 47.123 49.163 24.086 68.437 24.086 44.285 46.799 58.218 76.248 40.615 76.248 30.349 53.21"/>
  <path d="m263.85 107.03c0-7.6738-1.6745-13.517-5.0236-17.515-3.349-4.0057-9.1426-6.0019-17.394-6.0019-4.33 0-8.5704 0.78056-12.729 2.318-4.1665 1.4794-8.5862 3.4387-13.238 5.8806l-15.915 69.08c2.8506 1.1524 5.8674 2.0885 9.0556 2.8216 3.1855 0.65134 6.7772 0.98625 10.783 0.98625 13.636 0 24.451-5.3506 32.467-16.046 7.9876-10.78 11.993-24.625 11.993-41.523m46.67-8.2065c0 12.492-2.049 24.622-6.1285 36.37-4.0004 11.764-9.5118 22.014-16.537 30.745-7.1833 8.9027-15.59 16.009-25.221 21.315-9.6384 5.2319-20.292 7.8347-31.969 7.8347-7.6791 0-14.578-0.77265-20.706-2.3232-6.0388-1.5532-11.434-3.9582-16.162-7.2281l-3.3148 6.859h-42.499l43.97-190.59h44.339l-15.551 67.374c7.9164-5.4692 15.421-9.8335 22.528-13.111 7.1965-3.3411 15.187-5.013 24.013-5.0209 14.206 0 24.939 4.2483 32.209 12.737 7.3547 8.4122 11.028 20.086 11.028 35.038" clip-rule="evenodd" fill-rule="evenodd" stroke-width="2.637"/>
  <path d="m358.67 195.1c-15.271 0-26.175-2.4999-32.702-7.4708-6.5372-5.0658-9.7993-12.536-9.7993-22.412 0-2.6107 0.20042-5.1475 0.60916-7.6 0.40874-2.4551 0.94142-5.3084 1.5954-8.5678l14.936-65.172h-18.122l6.7376-29.029h18.122l9.0688-39.313h44.215l-9.0609 39.313h41.399l-6.7376 29.029h-41.41l-11.384 49.611c-0.82012 3.4255-1.5901 6.8985-2.3232 10.411-0.73837 3.4202-1.1023 6.3553-1.1023 8.8183 0 4.897 1.3396 8.3252 4.0426 10.284 2.7689 1.8776 7.0093 2.8164 12.729 2.8164 2.2942 0 5.2714-0.40083 8.9422-1.2183 3.7604-0.91242 6.7376-1.8881 8.9501-2.935h3.6708l-6.8616 29.509c-4.9787 1.2262-10.245 2.1545-15.791 2.8137-5.4798 0.73837-12.046 1.1128-19.725 1.1128" stroke-width="2.637"/>
  <path d="m473.71 196.07c-9.3932 0-18.209-1.1867-26.46-3.5495-8.1643-2.2837-15.311-5.8806-21.429-10.778-5.965-4.8126-10.614-10.862-13.966-18.13-3.349-7.265-5.0209-15.672-5.0209-25.229 0-12.331 2.3285-23.76 6.9829-34.3 4.7388-10.606 11.35-19.875 19.836-27.802 8.3331-7.7529 18.491-13.881 30.503-18.375 11.996-4.5753 24.986-6.8563 38.952-6.8563 8.4095 0 16.735 0.94142 24.986 2.8137 8.3252 1.8802 16.038 4.6122 23.156 8.2065l-9.3193 37.604h-6.234c-4.8311-5.7909-10.295-10.084-16.421-12.864-6.0467-2.8533-12.869-4.2799-20.45-4.2878-13.881 0-25.041 4.9418-33.44 14.82-8.4174 9.8019-12.618 22.048-12.618 36.75 0 10.211 2.5738 17.85 7.7213 22.903 5.2214 5.0737 13.296 7.6026 24.25 7.6026 8.4834 0 16.207-1.7273 23.145-5.1475 7.0145-3.5126 13.019-7.3969 17.998-11.632h6.263l-9.3193 37.594c-8.8183 3.8474-16.576 6.5768-23.277 8.2144-6.6137 1.6244-15.216 2.4419-25.838 2.4419" stroke-width="2.637"/>
  <path d="m682.22 116.21c7.4312 0 13.457-6.0204 13.457-13.441 0-7.4312-6.023-13.454-13.457-13.454-7.4154 0-13.436 6.0204-13.436 13.454 0 7.4206 6.0204 13.441 13.436 13.441m-26.779-60.794c-30.505 0-55.602 21.302-55.602 52.894 0 26.566 15.988 45.536 39.862 49.149v36.953h49.692v-35.505h6.8932c8.0377-0.79111 13.51-6.1232 13.591-13.591v-20.535h13.539l-30.793-69.365zm95.64 69.362h13.536l-30.4-69.365h-19.957l30.492 69.365h-13.9v18.399c0.0369 11.149-4.628 15.925-19.783 15.73v35.505h19.791v-35.505h6.5161c5.7778 0.15822 13.602-4.5436 13.705-13.649zm-194.95-2.8401c0-67.34 54.587-121.94 121.92-121.94 67.345 0 121.94 54.597 121.94 121.94 0 67.353-54.597 121.94-121.94 121.94-67.337 0.00264-121.92-54.587-121.92-121.94" stroke-width="2.637"/>
 </g>
</svg>
