<svg width="392" height="312.06" version="1.1" xmlns="http://www.w3.org/2000/svg">
 <link href="" rel="stylesheet" type="text/css"/>
 <style type="text/css"/>
 <g transform="translate(-2.6145 -1.205)">
  <rect x="194.54" y="1.205" width="11.061" height="310.62" clip-path="url(#SVGID_2_)" fill="#fff"/>
  <rect x="2.6145" y="153.43" width="391.99" height="8.4681" clip-path="url(#SVGID_2_)" fill="#fff"/>
  <path d="m66.601 1.2054h130.34v153.61h-194.32v-96.002c0-31.817 28.641-57.605 63.986-57.605" clip-path="url(#SVGID_2_)" fill="#0a92ce"/>
  <path d="m66.601 311.82h130.34v-153.59h-194.32v95.987c0 31.817 28.641 57.605 63.986 57.605" clip-path="url(#SVGID_2_)" fill="#b1b3b6"/>
  <path d="m330.63 311.82h-129.87v-153.59h193.86v95.987c-0.0153 31.817-28.657 57.605-63.986 57.605" clip-path="url(#SVGID_2_)" fill="#93cff2"/>
  <path d="m330.63 1.2054h-129.87v153.61h193.86v-96.002c-0.01534-31.817-28.657-57.605-63.986-57.605" clip-path="url(#SVGID_2_)" fill="#636466"/>
  <path d="m94.169 76.682c3.1755-6.213 7.2869-10.969 12.349-14.267 5.0624-3.3136 10.677-4.9551 16.859-4.9551 11.69 0 20.679 3.6818 26.954 11.03 6.305 7.3636 9.4499 17.903 9.4499 31.648v54.766h-21.907v-46.191c0-10.646-1.5034-18.225-4.4948-22.735-3.0068-4.5255-7.9465-6.7653-14.804-6.7653-7.2715 0-12.472 2.5926-15.632 7.7778-3.1295 5.1698-4.7096 14.19-4.7096 27.046v40.883h-21.907v-42.279c0-0.0614-0.03068-0.52159-0.0767-1.3807-0.06136-0.87442-0.10738-1.7182-0.10738-2.5312 0-10.693-1.5187-18.302-4.5562-22.781-3.0221-4.4795-8.0232-6.7192-15.019-6.7192-6.934 0-11.981 2.6693-15.141 7.9925-3.1449 5.3386-4.725 14.282-4.725 26.831v40.883h-22.382v-95.511h21.692v10.861c3.3596-4.4642 7.1795-7.7164 11.46-9.7567 4.2647-2.0403 9.3272-3.0375 15.172-3.0375 7.2408 0 13.469 1.5954 18.746 4.817 5.2926 3.1755 9.5419 7.9925 12.779 14.374" clip-path="url(#SVGID_2_)" fill="#fff"/>
  <path d="m248.85 59.393-51.576 126.42h-23.088l13.3-33.596-34.486-92.827h23.456l23.333 66.686 25.604-66.686z" clip-path="url(#SVGID_2_)" fill="#fff"/>
  <path d="m248.91 312.29v-154.07h-40.402l-11.273 27.617h13.618v126.46z" font-family="TeXGyreAdventor" font-size="13.8px" font-weight="bold"/>
  <path d="m297.08 202.54h-38.028s3.1355-18.606 8.7758-25.677c7.0682-8.8615 18.024-14.779 28.928-17.877 13.549-3.8486 28.657-3.6758 42.254 0 10.171 2.7497 20.545 7.8429 27.302 15.926 5.4737 6.5478 9.0467 15.522 8.7758 24.052-0.20479 6.448-1.2472 18.358-7.6936 24.413-3.8281 3.5956-13.433 8.09-13.433 8.09 2.3258-0.41044 18.6 10.141 22.102 18.852 3.0367 7.5531 4.4378 23.731 0 34.778-3.5136 8.7465-11.333 15.773-19.502 20.477-9.2684 5.3372-20.521 6.93-31.203 7.4757-13.864 0.70827-28.479-0.15064-41.279-5.5255-8.6123-3.6165-15.894-9.865-22.102-17.227-6.9178-8.2033-7.4757-27.953-7.4757-27.953h39.654s1.3032 10.573 4.8754 13.976c3.5988 3.4289 9.3308 4.165 14.301 4.2254 5.834 0.0709 12.383-0.85878 16.902-4.5504 3.0016-2.4526 4.5674-6.2872 4.7195-10.16 0.16971-4.3223-0.95313-8.8252-4.3945-12.267-3.8021-3.8021-8.4019-4.2254-8.4019-4.2254h-24.751v-32.503h21.127s6.985-1.0794 10.401-4.5504c1.719-1.7468 3.0427-5.6684 2.7693-8.7758-0.3192-3.628-2.2052-7.145-5.0445-9.4258-3.0184-2.4246-9.1067-4.0994-12.975-3.9361-4.9406 0.20867-8.8576 0.44076-12.569 3.1526-3.0126 2.2012-4.0338 9.2342-4.0338 9.2342z"/>
 </g>
</svg>
