<svg width="800" height="717.73" version="1.1" xmlns="http://www.w3.org/2000/svg">
 <link href="" rel="stylesheet" type="text/css"/>
 <style type="text/css"/>
 <g transform="scale(1.5921)" fill="#fff">
  <g transform="translate(-2.7969e-6 .064628)">
   <path d="m227.57 33.277 23.182 41.567 21.139-10.658v145.75h51.071v-207.13h-33.751c-20.942 10.224-42.978 21.215-61.64 30.465z" fill-rule="evenodd"/>
   <path d="m371.94 84.512 33.374-0.563s29.484-2.4256 29.484-18.889c0-14.851-17.812-20.671-28.688-20.671-20.578 0-46.638 14.437-46.638 14.437l-23.904-39.608s37.696-19.217 76.451-19.217c49.266 0 85.075 20.003 85.075 58.357 0 32.857-25.78 43.592-25.78 43.592s31.171 13.902 31.171 49.686c0 39.189-37.918 65.154-89.294 65.154-41.045 0-84.138-23.485-84.138-23.485l20.903-40.31s31.03 14.014 56.485 14.014c14.791 0 33.941-3.7213 33.841-20.389-0.12201-20.283-32.014-21-32.014-21l-36.094-0.51587z"/>
   <path d="m224.83 128.79c-0.62066 23.965-5.0997 40.489-11.995 50.901-4.9405 6.2104-8.1678 1.7298-10.312-0.36641l-27.804-28.063c-2.9292-2.3886-5.7918-5.0169-5.509-12.364v-62.241c-0.99366-16.377-12.84-25.611-25.161-25.611h-64.486c-14.989 0-24.335 13.587-24.335 24.722v59.544c0 14.785 13.078 22.878 23.597 22.878h71.192c6.9576-0.41598 9.0203 2.4568 12.142 4.8092l65.021 64.14c3.0932 5.2891-0.62127 7.2869-3.9169 8.1633h-24.677l-58.754-24.879h-66.979c-31.054 0-72.854-8.8641-72.854-77.961v-47.987c0-29.186 2.6704-83.965 69.721-83.965h86.564c37.662 3.838 64.364 13.61 68.546 76.774z"/>
   <path d="m227.57 33.212 23.182 41.567 21.139-10.658v145.75h51.071v-207.13h-33.751c-20.942 10.224-42.978 21.215-61.64 30.465z" fill-rule="evenodd"/>
   <path d="m371.94 84.448 33.374-0.563s29.484-2.4256 29.484-18.889c0-14.851-17.812-20.671-28.688-20.671-20.578 0-46.638 14.437-46.638 14.437l-23.904-39.608s37.696-19.217 76.451-19.217c49.266 0 85.075 20.003 85.075 58.357 0 32.857-25.78 43.592-25.78 43.592s31.171 13.902 31.171 49.686c0 39.189-37.918 65.154-89.294 65.154-41.045 0-84.138-23.485-84.138-23.485l20.903-40.31s31.03 14.014 56.485 14.014c14.791 0 33.941-3.7213 33.841-20.389-0.12201-20.283-32.014-21-32.014-21l-36.094-0.51587z"/>
  </g>
  <g transform="translate(1.221 -1.0646)" fill-rule="evenodd">
   <path d="m238.92 260.94c-50.596 0-91.634 42.244-91.634 94.368s41.038 94.368 91.634 94.368 91.634-42.244 91.634-94.368-41.038-94.368-91.634-94.368zm0.79376 37.571c9.8133 0 17.727 7.9139 17.727 17.727v76.377c0 9.8132-7.9138 17.727-17.727 17.727-9.8133 0-17.639-7.9139-17.639-17.727v-76.377c0-9.8132 7.8257-17.727 17.639-17.727z"/>
   <path d="m31.662 257.06v194.29h52.564v-61.472h53.711v-53.711h-53.711v-25.488h66.411l-5.0271-53.622h-61.383z"/>
   <path d="m305.59 257.06 53.446 95.427-56.709 99.395h61.383l25.488-45.508 25.488 45.508h61.383l-56.709-99.395 53.446-95.427h-59.267l-24.342 42.598-24.342-42.598z"/>
  </g>
 </g>
</svg>
