<svg width="206.81mm" height="92.882mm" version="1.1" viewBox="0 0 732.79 329.11" xmlns="http://www.w3.org/2000/svg">
 <g transform="translate(-22.857 -466.15)">
  <path d="m120.89 525.64h536.73c54.31 0 98.032 43.722 98.032 98.032s-43.722 98.032-98.032 98.032h-536.73c-54.31 0-98.032-43.722-98.032-98.032s43.722-98.032 98.032-98.032z" fill="#800000" opacity=".98"/>
  <g transform="matrix(8.843 0 0 8.843 -758.33 -4976)" fill="#fff" stroke-width="1px">
   <path transform="matrix(.088182 0 0 .088182 86.323 582.5)" d="m132.9 484.04v178.61h58.43v-88.539l41.08 63.533h1.0195l41.08-63.533v88.539h59.451v-178.61h-62.258l-38.273 62.768-38.271-62.768h-62.258z"/>
   <path transform="matrix(.088182 0 0 .088182 86.323 582.5)" d="m525.16 484.04v178.61h59.705v-51.031h12.758l33.68 51.031h68.127l-41.59-60.727c10.887-5.2732 19.476-12.418 25.77-21.434 6.2938-9.0154 9.4414-20.072 9.4414-33.17v-0.50977c0-9.1855-1.3604-17.18-4.082-23.984-2.7216-6.8041-6.8048-12.928-12.248-18.371-6.2938-6.2938-14.63-11.227-25.006-14.799-10.206-3.7422-23.303-5.6133-39.293-5.6133h-87.262zm59.705 50.01h26.025c6.9742 0 12.503 1.4462 16.586 4.3379 4.0824 2.7216 6.123 6.9744 6.123 12.758v0.50977c0 5.4433-2.0406 9.696-6.123 12.758-4.0824 3.0618-9.6956 4.5918-16.84 4.5918h-25.771v-34.955z"/>
   <path d="m148.01 625.18v15.75h13.545v-4.3201h-8.3699v-1.7099h7.695v-3.8025h-7.695v-1.5976h8.2574v-4.3199h-13.432z"/>
  </g>
  <g transform="matrix(.20943 0 0 .20943 418.59 355.07)" fill="#800000">
   <g transform="matrix(8.8756 0 0 8.8882 378.68 -6388.6)" fill="#800000">
    <path transform="translate(-308 148.36)" d="m140.53 630.12c-9.2589 0-16.781 7.561-16.781 16.875s7.5223 16.844 16.781 16.844c9.2545 0 16.75-7.5297 16.75-16.844s-7.491-16.875-16.75-16.875zm0.0312 6.9375c1.5698 0 2.9375 1.417 2.9375 3l0.0625 13.844c0 1.583-1.4257 2.8125-3 2.8125-1.5698 0-2.8438-1.2651-2.8438-2.8438v-13.812c0-1.583 1.2694-3 2.8438-3z" fill="#800000"/>
    <path d="m-205.21 778.54v33.535h9.593l-0.0255-10.841h9.4192v-9.1492h-9.342v-4.3751h11.468l-0.63324-9.1692h-20.479z" fill="#800000"/>
    <path d="m-155.24 778.59 9.4926 16.144-10.052 17.289 10.307 0.0179 4.9134-8.4709 4.975 8.453h10.595l-10.238-17.399 9.3053-16.034h-10.251l-4.2568 7.22-4.1798-7.22h-10.61z" fill="#800000"/>
    <path d="m-84.818 824.61c-21.037 0-38.128 16.892-38.128 37.701s17.091 37.631 38.128 37.631c21.027 0 38.057-16.822 38.057-37.631s-17.02-37.701-38.057-37.701zm0.07089 15.499c3.5667 0 6.6742 3.1657 6.6742 6.7024l0.142 30.929c0 3.5367-3.2393 6.2835-6.8162 6.2835-3.5667 0-6.4612-2.8264-6.4612-6.3533v-30.859c0-3.5367 2.8842-6.7024 6.4612-6.7024z" fill="#fff"/>
    <path d="m-107.4 778.45-16.879 20.397v6.5326h18.921v6.5449h7.3199v-6.5326h5.4869v-6.0405h-5.4254v-20.902h-9.4236zm2.0053 7.6767v13.25l-10.703 0.0492 10.703-13.299z"/>
   </g>
  </g>
  <path d="m265.68 730.59c-2.4749 0-4.7568 0.46608-6.846 1.3982-2.0892 0.89996-3.8893 2.1541-5.4 3.7612-1.5107 1.5749-2.6998 3.4228-3.5676 5.5442-0.83569 2.1214-1.254 4.3711-1.254 6.7496v0.0964c0 2.4106 0.41829 4.6768 1.254 6.7982 0.86783 2.1214 2.0569 3.9693 3.5676 5.5442 1.5107 1.5428 3.2943 2.764 5.3514 3.664 2.0571 0.89997 4.3068 1.3504 6.7496 1.3504 1.5428 0 2.9411-0.14492 4.1946-0.43418 1.2535-0.28929 2.427-0.69115 3.5198-1.2054s2.1049-1.1245 3.037-1.8316c0.96426-0.73926 1.8808-1.5594 2.7486-2.4594l-2.5072-2.4586c-1.6071 1.5428-3.2466 2.7484-4.918 3.6162-1.6714 0.83569-3.6642 1.2532-5.9784 1.2532-1.8642 0-3.5993-0.35329-5.2064-1.0604-1.5749-0.73925-2.9575-1.7357-4.1468-2.9892-1.1571-1.2535-2.0728-2.716-2.7478-4.3874-0.64283-1.7035-0.964-3.5357-0.964-5.4964v-0.0964c0-1.9285 0.32117-3.7286 0.964-5.4 0.67498-1.7035 1.5907-3.1817 2.7478-4.4352 1.1892-1.2535 2.5718-2.2343 4.1468-2.9414 1.6071-0.70712 3.3422-1.0604 5.2064-1.0604 2.3142 0 4.2913 0.43397 5.9306 1.3018 1.6714 0.86783 3.2302 1.977 4.6766 3.327l2.6036-2.7964c-0.8357-0.80355-1.7036-1.5274-2.6036-2.1702-0.89997-0.67497-1.8807-1.2374-2.9414-1.6874-1.0607-0.48213-2.2177-0.85186-3.4712-1.109-1.2214-0.25713-2.6032-0.38561-4.146-0.38561z" fill="#fff"/>
  <path d="m300.18 731.17v33.749h3.8082v-15.187h19.478v15.187h3.809v-33.749h-3.809v14.994h-19.478v-14.994h-3.8082z" fill="#fff"/>
  <path d="m361.4 730.93-15.38 33.99h3.9054l4.0018-8.9198h18.369l3.954 8.9198h4.0974l-15.379-33.99h-3.5676zm1.7352 4.4352 7.6658 17.213h-15.379l7.7136-17.213z" fill="#fff"/>
  <path d="m397.13 731.17v33.749h3.7126v-27.674l21.792 27.674h3.037v-33.749h-3.7118v27.047l-21.262-27.047h-3.5676z" fill="#fff"/>
  <path d="m445.54 731.17v33.749h3.7126v-27.674l21.792 27.674h3.037v-33.749h-3.7118v27.047l-21.262-27.047h-3.5676z" fill="#fff"/>
  <path d="m493.75 731.17v33.749h24.637v-3.4712h-20.828v-11.813h18.417v-3.4712h-18.417v-11.523h20.587v-3.4712h-24.396z" fill="#fff"/>
  <path d="m539.3 731.17v33.749h22.805v-3.5198h-18.996v-30.229h-3.809z" fill="#fff"/>
  <path d="m595.81 727.66c-2.9834 0-5.6489 0.31867-7.9975 0.95343-2.3486 0.57129-4.5067 1.4593-6.4745 2.6653-1.9043 1.1426-3.7143 2.5705-5.4282 4.2843-1.6504 1.7139-3.301 3.6817-4.9514 5.9033l10.284 8.2839c2.4756-3.0469 4.6971-5.3008 6.6648-6.7608 2.0312-1.46 4.3487-2.1886 6.9512-2.1886 2.666 0 4.8241 0.72866 6.4745 2.1886s2.475 3.6196 2.475 6.476c0 1.3965-0.22123 2.6975-0.66557 3.9036-0.38086 1.1426-1.0476 2.3477-1.9998 3.6172-0.88867 1.2061-2.0628 2.5071-3.5228 3.9036-1.46 1.333-3.2375 2.8568-5.3322 4.5707l-22.185 18.187v11.616h49.321v-12.664h-29.04l10.853-8.3783c2.9199-2.2852 5.491-4.3798 7.7127-6.2841 2.2217-1.9678 4.0317-3.9046 5.4281-5.8089 1.46-1.9678 2.5382-4.0299 3.2365-6.1881 0.76172-2.2217 1.1423-4.7294 1.1423-7.5223v-0.19038c0-3.1104-0.57085-5.9352-1.7134-8.4742-1.0791-2.5391-2.6338-4.6971-4.6651-6.4745-1.9678-1.7774-4.3796-3.1418-7.236-4.094-2.793-1.0156-5.904-1.5246-9.3317-1.5246z" fill="#fff"/>
  <path d="m625 728.61v12.663h31.326l-29.803 53.987h16.568l29.897-55.606v-11.044h-47.988z" fill="#fff"/>
 </g>
</svg>
