<svg width="1e3" height="1440" version="1.1" xmlns="http://www.w3.org/2000/svg">
 <defs>
  <radialGradient id="radialGradient3628" cx="57.426" cy="-50.127" r="61.809" gradientTransform="matrix(-.83193 .83191 -.84314 -.84316 67.692 -35.647)" gradientUnits="userSpaceOnUse">
   <stop stop-color="#fff" stop-opacity="0" offset="0"/>
   <stop stop-color="#fff" stop-opacity="0" offset=".42496"/>
   <stop stop-color="#fff" stop-opacity=".3431" offset=".7453"/>
   <stop stop-color="#fff" offset="1"/>
  </radialGradient>
 </defs>
 <g transform="scale(8)">
  <path d="m1 1h123v178h-123z" fill="#be1321"/>
  <path d="m1 55h123v98h-123z" fill="#1358a0"/>
  <path d="m6.25 54.031-5.1875 71.938 0.1875 27.969 22.844-99.906h-17.844zm37.656 0-40.812 98.781 0.59375-0.0312 59.281-92.406 59.312 92.406 0.59375 0.0312-40.812-98.781h-38.156zm57.719 0 22.844 99.906 0.1875-27.969-5.1875-71.938h-17.844z" fill="url(#radialGradient3628)"/>
  <path d="m61.086 6c-11.063 0-20.029 8.7319-20.029 19.501 0 10.769 8.9663 19.499 20.029 19.499 11.058 0 20.027-8.7296 20.027-19.499 0-10.769-8.964-19.501-20.027-19.501zm-45.085 0.0623v38.774h11.462l-0.0305-12.535h11.255v-10.579h-11.162v-5.0587h13.702l-0.75663-10.602h-24.47zm59.709 0.06 11.342 18.666-12.011 19.99 12.316 0.0207 5.8707-9.7944 5.9444 9.7736h12.659l-12.233-20.117 11.118-18.539h-12.249l-5.0863 8.3481-4.9942-8.3481h-12.678zm-14.566 7.8983c1.8757 0 3.5178 1.6344 3.5178 3.4647l0.0488 16.016c0 1.8304-1.6898 3.2664-3.5708 3.2664-1.8757 0-3.3956-1.4872-3.3956-3.3125v-15.97c0-1.8304 1.5145-3.4647 3.3956-3.4647z" fill="#fff"/>
  <path d="m0 53v102h125v-102zm2 3h121v96h-121z" fill="#0e4176"/>
  <path d="m0 0v54h125v-54h-125zm2 2h121v50h-121v-50z" fill="#94050f"/>
  <path d="m0 154v26h125v-26zm2 2h121v22h-121z" fill="#94050f"/>
  <path d="m63.833 62.666-42.875 51.813v16.594h48.062v16.625h18.594v-16.594h13.938v-15.344h-13.781v-53.094h-23.938zm5.0938 19.5v33.656l-27.188 0.125 27.188-33.781z" fill="#fff" stroke="#000" stroke-width="1.25"/>
  <path d="m62.807 61.85-42.875 51.813v16.594h48.062v16.625h18.594v-16.594h13.938v-15.344h-13.781v-53.094h-23.938zm5.0938 19.5v33.656l-27.188 0.125 27.188-33.781z" fill="#fff" stroke="#9ec8f4" stroke-width="1.25"/>
  <path d="m6.1831 158.73h6.1719v6.2079l6.4716-6.2079h8.2019l-7.2755 6.1967 7.6024 10.231h-7.6024l-4.21-6.757-3.1881 2.7454v4.0116h-6.1719z" fill="#fff"/>
  <path d="m35.617 158.73h9.9779c1.9669 2e-5 3.5558 0.20172 4.7666 0.6051 1.2108 0.40342 2.2115 0.98238 3.0023 1.7369 0.79072 0.75454 1.364 1.6323 1.7198 2.6333s0.53371 2.0618 0.53373 3.1824c-2.1e-5 1.7556-0.26442 3.117-0.79321 4.0844-0.52881 0.96742-1.2627 1.778-2.2017 2.4316-0.93899 0.65367-1.9472 1.0888-3.0245 1.3055-1.4728 0.29882-2.8071 0.44822-4.0031 0.44822h-9.9779zm6.7162 3.7203v8.9757h1.6457c1.4035 1e-5 2.4018-0.11764 2.9949-0.35297 0.59304-0.23532 1.0576-0.64619 1.3937-1.2326 0.33604-0.58642 0.50408-1.537 0.50409-2.8518-1e-5 -1.7406-0.37562-2.9321-1.1268-3.5746-0.75119-0.64245-1.9966-0.96366-3.7362-0.96368z" fill="#fff"/>
  <path d="m65.27 158.73h16.605v3.5298h-9.8593v2.8686h8.4212v3.3169h-8.4212v6.7122h-6.7459z" fill="#fff"/>
  <path d="m89.393 158.73h6.3752l2.298 9.1774 3.3507-9.1774h6.3604l3.3655 9.1774 2.298-9.1774h6.3456l-4.7888 16.427h-6.5828l-3.8103-10.343-3.7955 10.343h-6.5828z" fill="#fff"/>
 </g>
</svg>
