<svg width="600pt" height="168.11pt" version="1.1" viewBox="0 0 600 168.11" xmlns="http://www.w3.org/2000/svg">
 <g fill="#005eb8" stroke-width="4.3004">
  <path d="m360.08 5.1374e-4h32.49v74.613l41.112-74.613h35.264l-42.101 78.01 56.508 88.298h-40.553l-50.229-77.202v77.202h-32.49z"/>
  <path d="m474.7 0.0014337 47.133 88.848v77.458h31.025v-77.458l47.139-88.848h-37.116l-25.535 51.964-25.535-51.964z"/>
 </g>
 <g transform="matrix(.99148 0 0 -.99148 -1.4872 169.6)">
  <g transform="matrix(.1 0 0 .1 1.5 1.5)" fill="#005eb8">
   <path d="m3029.5 1238.2v-1220h-169.87v1391.4h589.28v-171.4h-419.41"/>
   <path d="m1414.4 1275c-96.35-126.87-123.48-271.35-123.48-432.78 0-142.14 34.17-310.3 146.08-447.4 117.92-144.52 295.63-229.86 551.29-229.86 196.51 0 367.35 59.648 456.06 94.727v-164.93c-34.37-14.043-207.63-94.758-468.23-94.758-184.19 0-338.14 45.742-471.48 120.76-142.91 80.41-224.1 187.43-272.85 265.27-95.65 152.64-179.12 293.01-285.2 414.04-106.08 121.08-235.54 197.11-338.14 226.93-16.52 3.52-40.102 10.78-40.102 10.78s28.012 9.26 45 15c120.83 40.83 246.7 154.1 337.12 287.46 90.433 133.35 124.81 237.73 159.59 355.3h187.81c-15.64-88.89-50.02-216.68-124.79-344.78-74.79-128.08-191.98-261.79-217.96-288.02-9.961-10.05-25.047-21.26-25.047-21.26s9.371-6.41 28.488-22.43c32.082-26.888 106.23-97.708 163.67-155.78 0 41.567-3.48 96.493 27.82 230.53 30.4 130.11 113.05 273.03 227.83 385.32 94.46 92.42 300.84 216.42 589.54 216.42l1481.4-0.01v-162.18h-1443.2c-325.2 0-497.22-134.52-591.27-258.36"/>
   <path d="m292.57 1091.4v604.17h160.44v-395.38c66.387 8.77 160.1 61.13 222.7 143.6 53.36 70.27 93.508 165.8 114.38 251.78h191.3c-27.824-83.62-45.324-213.37-204.81-402.68-147.82-175.45-341.4-201.49-484-201.49"/>
   <path d="m0 1695.6h169.87v-1677.4h-169.87v1677.4"/>
   <path d="m666.6 866.78c133.91-84.238 248.68-200.03 323.46-305.28 74.784-105.28 136.96-232.97 203.48-317.61 64.45-82 181.05-183.16 266.07-225.69h-269.56c-86.95 59.648-154.77 141.48-208.68 222.21-53.906 80.692-119.99 236.88-252.16 356.17-132.17 119.34-208.08 164.93-276.21 175.45v-753.83h-160.44v971.41c90.426 0 240.13-38.602 374.04-122.82"/>
   <path d="m2002.2 428.14c210.43 0 341.29 59.648 442.15 112.28v-170.21c-39.59-19.285-191.73-99.969-445.63-99.969-253.89 0-386.07 105.25-457.37 191.21-68.77 82.949-118.26 205.29-126.95 338.62h822.32v-171.38h-589.29c40-127.57 144.35-200.56 354.77-200.56"/>
   <path d="m1730.9 1179.1c-48.69-33.34-78.26-75.84-88.68-102.83h594.5v-171.43h-818.85c0 112.31 33.04 243.23 121.75 333.32 88.67 90.07 224.32 171.4 441.71 171.4h746.14v-1391.4h-169.88v1220h-605.83c-125.21 0-172.17-25.72-220.86-59.06"/>
  </g>
 </g>
</svg>
