<svg width="1e3" height="562.06" version="1.1" xmlns="http://www.w3.org/2000/svg">
 <link href="" rel="stylesheet" type="text/css"/>
 <style type="text/css"/>
 <g transform="matrix(3.0041 0 0 3.0041 -17.369 -14.431)" fill="#fff">
  <g transform="matrix(1.2467 0 0 1.2496 -302.58 -590.41)">
   <g transform="matrix(10.781 0 0 -10.781 -2172.7 2556.1)" clip-path="url(#id9)" fill="#fff">
    <g transform="translate(232.99 183)">
     <path d="m0 0c1.205 0.035 2.297 0.551 3.114 1.366 0.742-0.837 1.824-1.366 3.025-1.366 1.207 0 2.293 0.534 3.035 1.379 0.743-0.845 1.829-1.379 3.036-1.379 2.225 0 4.044 1.818 4.044 4.044v5.88h-2.64v-5.88c0-0.862-0.689-1.568-1.551-1.568-0.863 0-1.569 0.706-1.569 1.568v5.88h-2.64v-5.88c0-0.862-0.706-1.568-1.569-1.568-0.862 0-1.551 0.706-1.551 1.568v5.88h-2.64v-4.995c-0.019-1.234-0.92-2.258-2.026-2.291l-3.861 1e-3c-1.148 0-2.081 1.038-2.081 2.315 0 1.286 0.933 2.332 2.081 2.332h3.868v2.639h-3.868c-2.603 0-4.72-2.227-4.72-4.971 0-2.728 2.117-4.954 4.72-4.954z" fill="#fff"/>
    </g>
    <g transform="translate(229.42 187.15)">
     <path d="m0 0v1.355h0.482v0.267h-1.297v-0.267h0.482v-1.355z" fill="#fff"/>
    </g>
    <g transform="translate(232.85 188.5)">
     <path d="m0 0v0.267h-1.05v-1.622h1.08v0.267h-0.746v0.421h0.655v0.273h-0.655v0.394z" fill="#fff"/>
    </g>
    <g transform="translate(231.49 187.15)">
     <path d="m0 0v1.622h-0.332v-0.661h-0.69v0.661h-0.332v-1.621h0.332v0.687h0.69v-0.688z" fill="#fff"/>
    </g>
   </g>
  </g>
  <g transform="matrix(4.2439 0 0 4.2439 -1055.8 119.07)">
   <g fill="#fff" font-family="TeXGyreAdventor" font-size="13.8px" font-weight="bold">
    <path d="m261.65 13.89c0.0195-0.68251-0.16101-1.2667-0.54164-1.7526-0.38066-0.48586-1.0787-0.91826-2.0941-1.2972-0.46115-0.17077-0.75324-0.28116-0.87629-0.3312-0.12305-0.05002-0.20815-0.09142-0.25529-0.1242-0.18659-0.11787-0.32746-0.25472-0.42262-0.41054-0.0952-0.15582-0.14289-0.32716-0.14318-0.51404 5e-3 -0.30876 0.10206-0.55716 0.29153-0.74519 0.18945-0.18801 0.44187-0.28461 0.75726-0.2898 0.31912 0.00173 0.57096 0.094882 0.75554 0.27945 0.18457 0.18458 0.29152 0.45023 0.32085 0.79694h1.9596c-0.0656-0.9056-0.37605-1.6128-0.93149-2.1217-0.55544-0.50886-1.2523-0.7676-2.0907-0.77624-0.84208 0.019848-1.5418 0.30102-2.0993 0.84351-0.55745 0.54251-0.84667 1.2273-0.86766 2.0544 3e-3 0.64515 0.18658 1.204 0.55027 1.6767 0.36368 0.47265 0.88865 0.83834 1.5749 1.0971 0.64629 0.2415 1.0718 0.4071 1.2765 0.49679 0.2047 0.0897 0.368 0.1863 0.4899 0.2898 0.15237 0.11989 0.26852 0.26996 0.34844 0.45022 0.0799 0.18026 0.12017 0.37519 0.12075 0.58477-7e-3 0.37174-0.13484 0.67016-0.38467 0.89526-0.24984 0.22511-0.58161 0.34068-0.99531 0.34672-0.42061 5.76e-4 -0.74548-0.10407-0.97461-0.31395-0.22914-0.20987-0.36426-0.52842-0.40537-0.95564h-1.9734c0.10005 0.97404 0.4554 1.7307 1.066 2.2701 0.61064 0.53934 1.3731 0.81304 2.2873 0.82109 0.93867-0.0207 1.7109-0.33465 2.3166-0.94184 0.60574-0.60719 0.91911-1.3834 0.94011-2.3287z"/>
    <path d="m271.95 16.981-4.278-10.198h-1.4904l-4.2503 10.198h2.0838l1.1316-2.6358h3.6294l1.0902 2.6358zm-3.933-4.4435h-2.1804l1.0902-3.0912z"/>
    <path d="m281.26 16.981v-10.198h-1.8906v7.4243l-4.2228-7.4243h-2.1528v10.198h1.8906v-7.4105l4.2641 7.4105z"/>
    <path d="m295.08 11.903c-4e-3 -0.97461-0.19616-1.8405-0.57725-2.5978-0.38111-0.75726-0.92848-1.3541-1.6421-1.7905-0.40035-0.24178-0.90235-0.42405-1.506-0.54682-0.60367-0.12275-1.3056-0.18427-2.1056-0.18457h-2.3297v10.198h2.371c0.76104 0.0023 1.3997-0.04025 1.9161-0.12765 0.51635-0.0874 0.97584-0.23345 1.3785-0.43814 0.79147-0.39761 1.4038-0.98927 1.8368-1.775 0.43306-0.78572 0.65247-1.6982 0.65823-2.7375zm-1.9023 0c-5e-3 0.62358-0.1367 1.1842-0.39631 1.6819-0.25963 0.49766-0.61919 0.87543-1.0787 1.1333-0.28001 0.15784-0.62291 0.27341-1.0287 0.34672-0.4058 0.07331-0.89 0.10954-1.4526 0.10867h-0.41355v-6.5825h0.37219c0.58931-0.00172 1.0718 0.029333 1.4474 0.093149 0.37563 0.063832 0.70648 0.17078 0.99252 0.32085 0.48706 0.25617 0.86729 0.63739 1.1407 1.1437 0.27339 0.50629 0.41238 1.0911 0.41699 1.7543z"/>
    <path d="m298.31 16.981v-10.198h-1.8885v10.198z"/>
    <path d="m305.61 16.981v-1.8078h-3.5841v-2.3736h3.4325v-1.8078h-3.4325v-2.4012h3.5841v-1.8078h-5.4726v10.198z"/>
    <path d="m316.82 12.027v-0.2484h-6.6581v1.7664h4.2182c-0.28231 0.56982-0.68265 1.0103-1.201 1.3213-0.51838 0.31107-1.1152 0.46862-1.7903 0.47264-1.0215-0.02214-1.8595-0.35391-2.514-0.99531-0.65449-0.6414-0.9928-1.4596-1.0149-2.4546 0.0167-0.98352 0.33485-1.8006 0.95461-2.4512 0.61974-0.6506 1.4411-0.98812 2.4641-1.0126 0.59562 0.00116 1.1309 0.11616 1.606 0.345 0.47499 0.22885 0.87245 0.56465 1.1924 1.0074h2.2194c-0.35813-0.93522-0.99281-1.6936-1.904-2.2752-0.91125-0.5816-1.9354-0.88117-3.0723-0.89871-1.5261 0.036235-2.792 0.54683-3.7978 1.5318-1.0057 0.98497-1.5273 2.227-1.5646 3.726 0.0354 1.5249 0.56777 2.7807 1.5973 3.7674 1.0296 0.98669 2.3443 1.4973 3.9442 1.5318 1.5364-0.04054 2.7989-0.5494 3.7874-1.5266 0.98849-0.9772 1.4997-2.1795 1.5336-3.6069z"/>
    <path d="m328.24 11.875c-0.0365-1.4935-0.54595-2.7361-1.5284-3.7277-0.98247-0.99156-2.2191-1.5062-3.7099-1.5439-1.5508 0.033935-2.8259 0.54223-3.8253 1.5249-0.99942 0.98267-1.5164 2.2362-1.5508 3.7605 0.0365 1.5056 0.55628 2.7516 1.5594 3.738 1.0031 0.9864 2.2708 1.4976 3.8029 1.5335 1.5155-0.03392 2.7613-0.54222 3.7374-1.5249 0.97614-0.98266 1.481-2.2361 1.5146-3.7605zm-1.9023 0.0276c-0.0196 1.0005-0.33889 1.8181-0.95806 2.4529-0.61918 0.63479-1.421 0.96254-2.4055 0.98324-0.98793-0.023-1.8035-0.35649-2.4468-1.0005-0.6433-0.64399-0.97644-1.4605-0.9994-2.4495 0.0213-1.0077 0.35093-1.8316 0.98906-2.4719 0.63813-0.64025 1.4572-0.97087 2.4572-0.99186 0.96638 0.022433 1.763 0.35708 2.39 1.0039 0.62691 0.64687 0.95143 1.4714 0.97356 2.4736z"/>
   </g>
  </g>
 </g>
</svg>
