<svg width="800" height="356.68" version="1.1" viewBox="0 0 800 356.68" xml:space="preserve" xmlns="http://www.w3.org/2000/svg">
<g transform="matrix(2.5332 0 0 2.5332 -56.745 -277.14)">
	<linearGradient id="SVGID_1_" x1="109.56" x2="109.56" y1="203.23" y2="133.24" gradientUnits="userSpaceOnUse">
		<stop stop-color="#004B45" offset="0"/>
		<stop stop-color="#00504A" offset=".1647"/>
		<stop stop-color="#005551" offset=".2957"/>
		<stop stop-color="#00665F" offset=".3819"/>
		<stop stop-color="#008E80" offset=".5715"/>
		<stop stop-color="#009887" offset=".6219"/>
		<stop stop-color="#009283" offset=".6757"/>
		<stop stop-color="#008377" offset=".776"/>
		<stop stop-color="#006962" offset=".9107"/>
		<stop stop-color="#005551" offset="1"/>
	</linearGradient>
	<path d="m53.5 172.8v-9.8h-3.5v-1.9h9.5v1.9h-3.5v9.8zm17.2-11.7v11.7h-2.4v-5h-5v5h-2.4v-11.7h2.4v4.8h5v-4.8zm9.8 9.8v1.9h-8v-11.7h7.7v1.9h-5.2v2.9h4.8v2h-4.8v3zm87.8 32.3c-8.5 0-16.1-3.8-21.4-9.7-5.2 6-12.9 9.7-21.4 9.7s-16.1-3.7-21.3-9.6c-5.7 5.8-13.4 9.4-21.9 9.6h-26.7c-18.3 0-33.2-15.7-33.2-34.9 0-19.4 14.9-35.1 33.2-35.1h27.2v18.6h-27.2c-8.1 0-14.6 7.4-14.6 16.4s6.6 16.3 14.6 16.3h27.2c7.8-0.2 14.1-7.5 14.3-16.2v-35.2h18.6v41.5c0 6.1 4.9 11.1 10.9 11.1 6.1 0 11-5 11-11.1v-41.5h18.6v41.5c0 6.1 5 11.1 11 11.1 6.1 0 10.9-5 10.9-11.1v-41.5h18.6v41.5c0 15.8-12.8 28.6-28.4 28.6z" clip-rule="evenodd" fill="url(#SVGID_1_)" fill-rule="evenodd"/>
		<linearGradient id="SVGID_2_" x1="65.919" x2="65.919" y1="249.48" y2="211.85" gradientUnits="userSpaceOnUse">
			<stop stop-color="#004B45" offset="0"/>
			<stop stop-color="#00524E" offset=".2228"/>
			<stop stop-color="#005551" offset=".292"/>
			<stop stop-color="#005652" offset=".553"/>
			<stop stop-color="#005A55" offset=".6636"/>
			<stop stop-color="#00605A" offset=".7456"/>
			<stop stop-color="#006861" offset=".8136"/>
			<stop stop-color="#00736A" offset=".873"/>
			<stop stop-color="#008075" offset=".9262"/>
			<stop stop-color="#008F80" offset=".9739"/>
			<stop stop-color="#009887" offset="1"/>
		</linearGradient>
		<path d="m83.5 249.5v-37.6h-9.7v14h-15.7v-14h-9.7v37.6h9.7v-15.1h15.7v15.1z" fill="url(#SVGID_2_)"/>
		<linearGradient id="SVGID_3_" x1="107.34" x2="107.34" y1="250.16" y2="211.23" gradientUnits="userSpaceOnUse">
			<stop stop-color="#004B45" offset="0"/>
			<stop stop-color="#00524E" offset=".2228"/>
			<stop stop-color="#005551" offset=".292"/>
			<stop stop-color="#005652" offset=".553"/>
			<stop stop-color="#005A55" offset=".6636"/>
			<stop stop-color="#00605A" offset=".7456"/>
			<stop stop-color="#006861" offset=".8136"/>
			<stop stop-color="#00736A" offset=".873"/>
			<stop stop-color="#008075" offset=".9262"/>
			<stop stop-color="#008F80" offset=".9739"/>
			<stop stop-color="#009887" offset="1"/>
		</linearGradient>
		<path d="m107.4 250.2c11.5 0 20.1-8 20.1-19.5s-8.6-19.5-20.1-19.5-20.2 8-20.2 19.5c0 11.4 8.6 19.5 20.2 19.5zm0-8.6c-6.2 0-10.3-4.8-10.3-10.9s4.1-10.9 10.3-10.9 10.2 4.7 10.2 10.9c0 6.1-4 10.9-10.2 10.9z" fill="url(#SVGID_3_)"/>
		<linearGradient id="SVGID_4_" x1="149.06" x2="149.06" y1="250.16" y2="211.85" gradientUnits="userSpaceOnUse">
			<stop stop-color="#004B45" offset="0"/>
			<stop stop-color="#00524E" offset=".2228"/>
			<stop stop-color="#005551" offset=".292"/>
			<stop stop-color="#005652" offset=".553"/>
			<stop stop-color="#005A55" offset=".6636"/>
			<stop stop-color="#00605A" offset=".7456"/>
			<stop stop-color="#006861" offset=".8136"/>
			<stop stop-color="#00736A" offset=".873"/>
			<stop stop-color="#008075" offset=".9262"/>
			<stop stop-color="#008F80" offset=".9739"/>
			<stop stop-color="#009887" offset="1"/>
		</linearGradient>
		<path d="m149.1 250.2c12.1 0 17.7-6.6 17.7-16v-22.3h-9.8v22.1c0 4.5-2.7 7.7-7.9 7.7-5.3 0-8-3.2-8-7.7v-22.1h-9.9v22.4c0.1 9.2 5.8 15.9 17.9 15.9z" fill="url(#SVGID_4_)"/>
		<linearGradient id="SVGID_5_" x1="185.74" x2="185.74" y1="250.16" y2="211.29" gradientUnits="userSpaceOnUse">
			<stop stop-color="#004B45" offset="0"/>
			<stop stop-color="#00524E" offset=".2228"/>
			<stop stop-color="#005551" offset=".292"/>
			<stop stop-color="#005652" offset=".553"/>
			<stop stop-color="#005A55" offset=".6636"/>
			<stop stop-color="#00605A" offset=".7456"/>
			<stop stop-color="#006861" offset=".8136"/>
			<stop stop-color="#00736A" offset=".873"/>
			<stop stop-color="#008075" offset=".9262"/>
			<stop stop-color="#008F80" offset=".9739"/>
			<stop stop-color="#009887" offset="1"/>
		</linearGradient>
		<path d="m186.2 250.2c10.1 0 15.7-5 15.7-12.6 0-14-21.3-10.5-21.3-15.1 0-1.6 1.2-2.6 4.1-2.6 3.7 0 7.9 1.3 11 3.9l5.3-7.3c-4-3.4-9.3-5.2-15.3-5.2-9.7 0-15 5.6-15 12 0 14.5 21.3 10.4 21.3 15.3 0 1.9-2 3-5.3 3-5.2 0-9.4-2.3-12.1-5l-5.1 7.6c3.8 3.5 9.1 6 16.7 6z" fill="url(#SVGID_5_)"/>
		<linearGradient id="SVGID_6_" x1="218.87" x2="218.87" y1="249.48" y2="211.85" gradientUnits="userSpaceOnUse">
			<stop stop-color="#004B45" offset="0"/>
			<stop stop-color="#00524E" offset=".2228"/>
			<stop stop-color="#005551" offset=".292"/>
			<stop stop-color="#005652" offset=".553"/>
			<stop stop-color="#005A55" offset=".6636"/>
			<stop stop-color="#00605A" offset=".7456"/>
			<stop stop-color="#006861" offset=".8136"/>
			<stop stop-color="#00736A" offset=".873"/>
			<stop stop-color="#008075" offset=".9262"/>
			<stop stop-color="#008F80" offset=".9739"/>
			<stop stop-color="#009887" offset="1"/>
		</linearGradient>
		<path d="m223.8 249.5v-29.2h10.5v-8.5h-30.8v8.5h10.5v29.2z" fill="url(#SVGID_6_)"/>
		<linearGradient id="SVGID_7_" x1="254.76" x2="254.76" y1="250.16" y2="211.23" gradientUnits="userSpaceOnUse">
			<stop stop-color="#004B45" offset="0"/>
			<stop stop-color="#00524E" offset=".2228"/>
			<stop stop-color="#005551" offset=".292"/>
			<stop stop-color="#005652" offset=".553"/>
			<stop stop-color="#005A55" offset=".6636"/>
			<stop stop-color="#00605A" offset=".7456"/>
			<stop stop-color="#006861" offset=".8136"/>
			<stop stop-color="#00736A" offset=".873"/>
			<stop stop-color="#008075" offset=".9262"/>
			<stop stop-color="#008F80" offset=".9739"/>
			<stop stop-color="#009887" offset="1"/>
		</linearGradient>
		<path d="m254.8 250.2c11.5 0 20.1-8 20.1-19.5s-8.6-19.5-20.1-19.5-20.2 8-20.2 19.5c0 11.4 8.7 19.5 20.2 19.5zm0-8.6c-6.2 0-10.3-4.8-10.3-10.9s4.1-10.9 10.3-10.9 10.2 4.7 10.2 10.9c0 6.1-4 10.9-10.2 10.9z" fill="url(#SVGID_7_)"/>
		<linearGradient id="SVGID_8_" x1="296.2" x2="296.2" y1="249.48" y2="211.85" gradientUnits="userSpaceOnUse">
			<stop stop-color="#004B45" offset="0"/>
			<stop stop-color="#00524E" offset=".2228"/>
			<stop stop-color="#005551" offset=".292"/>
			<stop stop-color="#005652" offset=".553"/>
			<stop stop-color="#005A55" offset=".6636"/>
			<stop stop-color="#00605A" offset=".7456"/>
			<stop stop-color="#006861" offset=".8136"/>
			<stop stop-color="#00736A" offset=".873"/>
			<stop stop-color="#008075" offset=".9262"/>
			<stop stop-color="#008F80" offset=".9739"/>
			<stop stop-color="#009887" offset="1"/>
		</linearGradient>
		<path d="m313.7 249.5v-37.6h-9.8v20.7l-15.3-20.7h-10v37.6h9.7v-21.8l15.9 21.8z" fill="url(#SVGID_8_)"/>
	<linearGradient id="SVGID_9_" x1="268.22" x2="268.22" y1="202" y2="109.35" gradientUnits="userSpaceOnUse">
		<stop stop-color="#004B45" offset="0"/>
		<stop stop-color="#00504A" offset=".1069"/>
		<stop stop-color="#005551" offset=".1918"/>
		<stop stop-color="#005A55" offset=".2399"/>
		<stop stop-color="#006861" offset=".3235"/>
		<stop stop-color="#007E73" offset=".4326"/>
		<stop stop-color="#009887" offset=".5552"/>
		<stop stop-color="#007A70" offset=".7452"/>
		<stop stop-color="#00605A" offset=".9172"/>
		<stop stop-color="#005551" offset="1"/>
	</linearGradient>
	<path d="m299.5 109.4c-15.9 0-27.9 8-32.4 19.8-2.4-12.2-14.7-19.7-33.5-19.7-15.8 0-27.1 6-34.4 14.2l9.6 12c6.3-6 14.1-9.3 22.9-9.3 9.3 0 16.7 3.5 16.7 10.6 0 6.6-6.7 9.5-16.7 9.5-3.4 0-9.6 0-11.2-0.1v17.2c1.3-0.1 7.4-0.3 11.2-0.3 12.5 0 18.1 3.2 18.1 10.3 0 6.7-6.1 11.4-17 11.4-8.8 0-18.6-3.8-24.7-10.2l-10.1 12.8c6.6 8.1 19 14.4 35.4 14.4 21.6 0 35.4-10.9 35.4-26.3 0-13.4-11.9-20.5-21-21.5 7-1.2 13.9-5.2 17.3-11.4 1.3 17.3 15.1 26.5 30.5 26.5 9.8 0 18.9-5.5 23.2-11.5v2c0 12.8-7.7 25.2-22.5 25.2-7.9 0-13.1-2.4-17.9-7l-8.5 14.6c6.3 5.6 15.5 9.3 26.4 9.3 26.5 0 41.9-19.2 41.9-46.3 0.1-25.3-11.3-46.2-38.7-46.2zm1.7 43.5c-8.4 0-16.6-4-16.6-13.4 0-6.2 5.7-13.2 16-13.2 12.5 0 17.4 9.5 18.2 18.1-4.3 5.4-10.8 8.5-17.6 8.5z" fill="url(#SVGID_9_)"/>
</g>
</svg>
