<svg width="2990.9" height="1500" version="1.1" xmlns="http://www.w3.org/2000/svg">
 <link href="" rel="stylesheet" type="text/css"/>
 <style type="text/css"/>
 <g fill="#231f20">
  <path d="m1500 750c0 414.21-335.79 750-750 750s-750-335.79-750-750 335.79-750 750-750 750 335.79 750 750z" fill-rule="evenodd"/>
  <g font-family="'Gotham Book'">
   <path d="m1713.7 764.04c16.184 1.9e-4 30.956-2.0702 44.315-6.2113 13.358-4.1407 24.836-10.068 34.433-17.781 9.5966-7.7129 16.936-16.839 22.02-27.378 5.0824-10.539 7.6238-22.395 7.6241-35.571v-1.1372c-3e-4 -28.222-9.6919-49.581-29.075-64.077-19.384-14.496-45.07-21.743-77.06-21.744h-99.932v173.9zm-142.28-215.11h147.92c22.214 3.9e-4 42.448 2.918 60.7 8.7527 18.252 5.8355 33.87 14.117 46.856 24.845 12.985 10.729 22.958 23.809 29.919 39.241 6.9604 15.432 10.441 32.935 10.441 52.507v1.1199c-4e-4 21.457-4.1383 40.183-12.414 56.177-8.2763 15.995-19.473 29.451-33.589 40.369-14.117 10.918-30.586 19.105-49.406 24.561-18.821 5.4562-38.77 8.1842-59.847 8.1841h-95.969v139.46h-44.608z" font-size="45.557px"/>
   <path d="m1948.5 548.93h44.608v354h222.44v41.213h-267.04z" font-size="45.557px"/>
   <path d="m2449.6 950.34c-24.466-2e-5 -46.767-3.6699-66.903-11.01-20.136-7.3398-37.449-18.255-51.939-32.745s-25.687-32.461-33.589-53.912c-7.9028-21.451-11.854-46.104-11.854-73.958v-229.79h44.59v226.97c-1e-4 42.913 10.633 75.848 31.901 98.803 21.267 22.956 50.91 34.434 88.931 34.433 36.504 3e-5 65.484-10.915 86.941-32.745 21.456-21.83 32.185-54.385 32.185-97.666v-229.79h44.59v226.4c-4e-4 28.992-3.9517 54.403-11.854 76.233-7.9031 21.83-19.099 40.082-33.589 54.756s-31.803 25.681-51.939 33.021c-20.136 7.3398-42.626 11.01-67.471 11.01z" font-size="45.557px"/>
   <path d="m2856 949.79c-31.611 0-60.496-5.1775-86.657-15.533-26.16-10.355-51.095-26.255-74.803-47.7l27.654-32.754c20.71 18.826 41.604 32.848 62.681 42.066 21.078 9.2179 45.354 13.827 72.83 13.827 26.717 4e-5 48.074-6.3031 64.069-18.91 15.994-12.606 23.992-28.696 23.992-48.269v-1.1372c-2e-4 -9.0282-1.5049-17.212-4.5142-24.552-3.0097-7.3397-8.279-14.022-15.808-20.047-7.5296-6.0245-17.974-11.483-31.332-16.377-13.359-4.8931-30.388-9.5968-51.086-14.111-22.582-4.893-42.25-10.539-59.003-16.937-16.753-6.3977-30.586-14.114-41.498-23.148-10.912-9.0339-19.004-19.573-24.276-31.616-5.2724-12.043-7.9085-26.157-7.9085-42.342v-1.1372c0-15.426 3.1989-29.727 9.597-42.902 6.3978-13.175 15.432-24.561 27.102-34.158 11.67-9.5965 25.408-17.123 41.213-22.579 15.805-5.4557 33.121-8.1837 51.947-8.1841 28.98 4e-4 54.29 4.0465 75.931 12.138 21.64 8.0926 42.626 20.231 62.957 36.415l-25.982 34.442c-18.436-15.058-36.969-25.976-55.6-32.754-18.631-6.7766-38.112-10.165-58.443-10.166-25.971 3.8e-4 -46.483 6.1169-61.536 18.35-15.053 12.233-22.58 27.384-22.579 45.452v1.1372c-2e-4 9.4077 1.5046 17.781 4.514 25.121 3.0094 7.3401 8.4654 14.114 16.368 20.322 7.9027 6.2087 18.818 11.854 32.745 16.937s31.809 9.8814 53.644 14.395c44.039 9.7866 76.502 23.338 97.391 40.653 20.888 17.316 31.332 41.027 31.332 71.133v1.1372c-3e-4 16.931-3.3888 32.265-10.166 46.003s-16.093 25.5-27.946 35.286c-11.854 9.7864-26.063 17.316-42.626 22.588-16.564 5.2723-34.632 7.9084-54.204 7.9084z" font-size="45.557px"/>
   <text x="2222.8147" y="950.39929" font-size="743.57px" style="line-height:0%" space="preserve"/>
  </g>
 </g>
 <g fill="#fff" font-family="'Gotham Black'" font-size="60px" font-weight="bold">
  <path d="m78.249 546.45h110.02v161.08l136.67-161.08h130.42l-150.28 170.72 155.38 226.27h-132.14l-99.809-147.45-40.256 44.808v102.65h-110.02z"/>
  <path d="m480.94 546.45-86.391 98.149h90.82v298.85h110.03v-298.85h106.25l120.81 301.66h102.06l161.06-399.81h-120.81l-90.156 251.25-90.188-251.25h-125.66z"/>
  <path d="m1167.4 546.45-0.1875 0.1875h-62.094l-48.375 115.75h0.1563l-0.1563 0.15625v106.78c0 31.003 4.2333 57.939 12.656 80.812 8.4228 22.874 20.487 41.783 36.219 56.719s34.844 26.005 57.313 33.188c22.468 7.1824 47.752 10.781 75.844 10.781 28.08-1e-5 53.436-3.5989 76.094-10.781 22.657-7.1824 41.929-18.252 57.844-33.188 15.914-14.936 28.293-34.032 37.094-57.281 8.7996-23.249 13.187-50.949 13.187-83.094v-220.03h-110.66v223.47c-3e-4 27.98-6.5479 44.204-19.656 57.438-13.109 13.234-30.721 19.844-52.813 19.844-22.092 9e-5 -39.673-6.9193-52.781-20.719-13.109-13.799-19.688-30.665-19.688-59.406z"/>
 </g>
</svg>
