<svg width="800" height="322.6" version="1.1" xmlns="http://www.w3.org/2000/svg">
 <link href="" rel="stylesheet" type="text/css"/>
 <style type="text/css"/>
 <defs>
  <radialGradient id="radialGradient3702" cx="172.53" cy="84.004" r="90.396" gradientTransform="matrix(.9796 4.2362e-5 -4.1087e-5 .96533 3.5235 -2.39)" gradientUnits="userSpaceOnUse">
   <stop stop-color="#fef107" offset="0"/>
   <stop stop-color="#ffb90f" offset="1"/>
  </radialGradient>
  <radialGradient id="radialGradient3706" cx="254.65" cy="129.93" r="51.996" gradientTransform="matrix(4.0116 4.8916e-5 -4.8472e-5 3.9752 -276.09 -39.361)" gradientUnits="userSpaceOnUse">
   <stop stop-color="#efd745" offset="0"/>
   <stop stop-color="#ffb40b" offset=".54505"/>
   <stop stop-color="#fdc206" offset="1"/>
  </radialGradient>
  <radialGradient id="radialGradient3745" cx="279.91" cy="116.78" r="66.221" gradientTransform="matrix(.78339 0 0 .50808 59.826 44.813)" gradientUnits="userSpaceOnUse">
   <stop stop-color="#fdd400" offset="0"/>
   <stop stop-color="#fcb904" offset=".8698"/>
   <stop stop-color="#fdb805" stop-opacity="0" offset="1"/>
  </radialGradient>
  <linearGradient id="linearGradient3751" x1="253.04" x2="376.9" y1="75.947" y2="75.947" gradientUnits="userSpaceOnUse">
   <stop stop-color="#ffb90f" offset="0"/>
   <stop stop-color="#fef700" offset="1"/>
  </linearGradient>
 </defs>
 <g transform="translate(983.75 -109.23)">
  <g transform="matrix(4.0424 0 0 4.0424 -2503.4 -1371)">
   <g transform="matrix(.61667 0 0 .6033 341.82 366.16)">
    <path d="m296.21 91.246s3.3545-12.632 15.722-12.632c9.9612 0 15.35 8.1055 15.483 16.192 0.17104 10.42-6.3931 16.054-15.687 16.054-13.36 0-16.641-12.868-16.641-12.868h-50.963s-4.5396 13.671 19.077 27.306c12.008 6.9327 28.138 6.9813 42.004 6.9813 20.725 0 40.723-4.1337 56.022-16.113 7.8863-6.1752 14.989-13.217 14.989-26.044 0-22.465-28.875-30.353-48.902-30.353-14.71 0-21.487 2.08-21.487 2.08l3.1256-9.0124h59.207l4.8715-27.73h-98.366l-28.292 66.139z" fill="url(#linearGradient3751)"/>
    <path d="m296.21 91.246s3.3545-12.632 15.722-12.632c9.9612 0 15.35 8.1055 15.483 16.192 0.17104 10.42-6.3931 16.054-15.687 16.054-13.36 0-16.641-12.868-16.641-12.868h-50.963s-4.5396 13.671 19.077 27.306c12.008 6.9327 28.138 6.9813 42.004 6.9813 20.725 0 40.723-4.1337 56.022-16.113 7.8863-6.1752 14.989-13.217 14.989-26.044 0-22.465-28.875-30.353-48.902-30.353-14.71 0-21.487 2.08-21.487 2.08l3.1256-9.0124h59.207l4.8715-27.73h-98.366l-28.292 66.139z" fill="url(#radialGradient3745)"/>
    <path d="m164.01 17.623c0 9.7328-7.8586 17.623-17.553 17.623s-17.553-7.89-17.553-17.623c0-9.7328 7.8586-17.623 17.553-17.623s17.553 7.89 17.553 17.623z" fill="url(#radialGradient3702)" fill-rule="evenodd"/>
    <path d="m115.77 40.105h63.537l-6.3704 30.718h-63.52z" fill="url(#radialGradient3702)" fill-rule="evenodd"/>
    <path d="m109.15 76.936h63.272l-9.815 53.241h-63.52z" fill="url(#radialGradient3702)" fill-rule="evenodd"/>
    <path d="m254.9 130.13h-57.912l-28.062-52.31 46.056-52.683h57.936l-47.398 52.905z" fill="url(#radialGradient3702)"/>
    <path d="m127.24 22.951c0 9.7328-7.8586 17.623-17.553 17.623-9.694 0-17.553-7.89-17.553-17.623 0-9.7328 7.8586-17.623 17.553-17.623 9.694 0 17.553 7.89 17.553 17.623z" fill="url(#radialGradient3702)" fill-rule="evenodd"/>
    <path d="m200.79 22.951c0 9.7328-7.8586 17.623-17.553 17.623-9.694 0-17.553-7.89-17.553-17.623 0-9.7328 7.8586-17.623 17.553-17.623 9.694 0 17.553 7.89 17.553 17.623z" fill="url(#radialGradient3702)" fill-rule="evenodd"/>
    <path transform="matrix(.26744 0 0 .27336 55.286 -1.3067e-7)" d="m645.53 301.09c-79.304 27.678-111.89 90.392-115.88 174.56l0.21875 0.40625h216.53z" fill="url(#radialGradient3706)"/>
   </g>
   <g transform="matrix(.15684 0 0 .16096 318.43 418.28)">
    <path d="m500.04 18.923c3.688-6.022 9.807-12.323 16.396-14.988 11.341-5.16 26.542-2.941 35.795 5.224 8.954 8.112 13.495 19.23 11.353 31.66 2.196-0.405 4.413-1.812 6.738-2.611 13.898-3.923 28.599 0.331 37.511 12.248 6.694 8.506 8.443 21.724 4.425 32.001-1.994 5.169-5.395 9.816-9.816 13.783l0.445 0.448c12.932 0.627 25.64 10.669 29.562 22.982 4.253 12.419 0.512 25.689-8.57 34.773-7.42 7.334-16.961 9.872-27.567 9.658h-192.55c-15.809 0.341-28.025-6.663-34.602-20.722-5.161-12.068-2.613-27.503 7.023-36.702 6.076-6.354 13.689-8.956 21.896-10.266-9.295-8.624-13.773-20.424-11.161-33.078 1.866-10.254 10.607-20.637 20.648-24.219 8.847-3.519 20.83-2.9 28.932 1.875l0.288-0.352c-2.441-13.954 3.742-26.543 15.317-34.261 10.32-6.981 26.82-6.801 36.925 0.62 4.542 2.781 8.283 7.557 11.012 11.927" fill="#fff"/>
    <path d="m554.56 24.136c4.138 8.347 1.707 19.283-2.61 26.778l-33.408 75.163-0.289 0.352-12.076-76.25c-0.969-7.322 6.854-10.446 11.459-13.964-0.234-1.076-1.418-1.023-2.163-1.524l-11.288-0.117-0.343-0.341c0.064-9.466 5.16-18.207 13.794-22.801 9.021-5.211 21.725-3.794 29.549 2.889 3.176 2.833 5.852 6.126 7.375 9.815" fill="#57229e"/>
    <path d="m493.01 21.524c2.729 5.053 4.308 10.789 3.348 17.141l-13.623 87.305c0.073 0.106-0.054 0.225-0.161 0.276l-3.528-7.024-34.144-76.25c-3.177-9.818-0.234-20.083 6.918-27.12 7.206-7.312 19.06-9.295 28.483-5.329 4.991 2.154 9.755 6.12 12.707 11.001" fill="#bd111f"/>
    <path d="m603.98 58.279c4.594 7.834 3.561 19.689-1.548 26.959-3.164 5.106-8.389 7.654-12.813 11l-70.748 48.566h-0.162l0.79-2.323 37.502-84.65c5.618-9.978 16.342-15.03 27.684-13.506 7.771 1.419 15.542 6.471 19.295 13.954" fill="#005cb5"/>
    <path d="m443.26 57.831 39.027 86.963h-0.628l-78.681-54.227c-8.006-6.747-11.288-16.853-8.571-27.065 2.037-7.653 8.39-14.805 15.947-17.643 12.375-4.529 26.317 0.289 32.906 11.972" fill="#ff6a20"/>
    <path d="m624.51 119.67c3.922 8.283 2.377 19.625-3.229 26.67-5.563 6.749-13.005 10.437-21.736 10.202l-83.893 0.054 70.278-48.896c6.867-4.424 17.304-5.226 24.797-1.644 5.787 2.272 11.235 7.943 13.783 13.614" fill="#009a3d"/>
    <path d="m376.08 119.67c-3.911 8.283-2.376 19.625 3.241 26.67 5.563 6.749 12.983 10.437 21.725 10.202l83.894 0.054-70.281-48.896c-6.865-4.424-17.3-5.226-24.784-1.644-5.791 2.272-11.236 7.943-13.795 13.614" fill="#fde400"/>
   </g>
  </g>
 </g>
</svg>
