<svg width="800" height="234.51" enable-background="new 0 0 337.333 182.334" space="preserve" version="1.1" viewBox="0 0 800 234.51" xmlns="http://www.w3.org/2000/svg">
 <link href="" rel="stylesheet" type="text/css"/>
 <style type="text/css"/>
 <g transform="matrix(1.7005 0 0 1.7005 23.468 40.386)">
  <path d="m379.55 110.64c36.336 0 65.799-29.464 65.799-65.799 0-36.345-29.463-65.809-65.799-65.809-36.344 0-65.807 29.464-65.807 65.809 0 36.335 29.463 65.799 65.807 65.799" fill="#2145c0"/>
  <path d="m379.19-23.24c-37.805 0-68.456 30.641-68.456 68.446 0 37.795 30.651 68.445 68.456 68.445s68.457-30.65 68.457-68.445c0-37.806-30.652-68.446-68.457-68.446z" fill="none" stroke="#fff" stroke-width=".342"/>
  <path d="m-13.801-12.661h470.46v114.45h-470.46z" fill="#2145c0" fill-rule="evenodd"/>
  <path d="m379.19-23.25c-37.805 0-68.456 30.65-68.456 68.456 0 37.805 30.651 68.455 68.456 68.455s68.447-30.65 68.447-68.455c0-37.806-30.642-68.456-68.447-68.456m4.332 126.09 40.715-92.508h-90.766l14.951 27.079h32.51l-26.465 60.056c-19.555-9.276-33.084-29.181-33.084-52.259 0-31.927 25.881-57.808 57.807-57.808s57.809 25.881 57.809 57.808c-1e-3 30.466-23.577 55.412-53.477 57.632" fill="#fff" stroke="#e6e6e6"/>
  <path d="m30.838 47.201-14.097 10.573v29.579h-16.741v-85.842h16.741v36.628l45.439-36.628h22.153l-41.285 34.74 41.285 51.103h-20.517z" fill="#fff" font-family="'Media Gothic'" font-size="32px" letter-spacing="0px" stroke="#e6e6e6" word-spacing="0px"/>
  <path d="m89.493 1.5104h16.741v85.842h-16.741z" fill="#fff" font-family="'Media Gothic'" font-size="32px" letter-spacing="0px" stroke="#e6e6e6" word-spacing="0px"/>
  <path d="m129.9 52.361v34.991h-16.74v-85.842h48.711c6.4612 8.4e-5 11.58 0.37768 15.356 1.1328 3.776 0.75529 7.0485 2.0559 9.8177 3.9019 3.1047 2.1818 5.4542 5.1607 7.0486 8.9367 1.4264 3.6083 2.1396 7.4683 2.1398 11.58-1.2e-4 14.013-8.0137 22.195-24.041 24.544l24.544 35.747h-18.251l-24.167-34.991zm0-14.223h29.957c4.3634 4.8e-5 7.4471-0.12583 9.2513-0.3776 1.804-0.2517 3.5452-0.75516 5.2236-1.5104 3.5242-1.7621 5.2864-4.8669 5.2865-9.3143-8e-5 -4.5312-1.7622-7.636-5.2865-9.3143-1.5944-0.83905-3.2936-1.3845-5.0977-1.6363-1.8042-0.25166-4.9299-0.37752-9.3772-0.3776h-29.957z" fill="#fff" font-family="'Media Gothic'" font-size="32px" letter-spacing="0px" stroke="#e6e6e6" word-spacing="0px"/>
  <path d="m247.57 0c14.768 8.5e-5 26.432 4.0279 34.991 12.083 9.0624 8.4752 13.594 19.426 13.594 32.852-1.2e-4 8.2234-2.1818 15.901-6.5452 23.034-8.4752 13.929-22.447 20.894-41.914 20.894-14.601 0-26.181-4.0278-34.74-12.083-4.5313-4.3634-8.0136-9.566-10.447-15.608-2.0978-5.2864-3.1468-10.867-3.1467-16.741-4e-5 -8.6429 2.1817-16.531 6.5452-23.663 8.1394-13.594 22.027-20.516 41.662-20.768zm0.12567 14.475c-8.4752 7.2e-5 -15.524 2.4335-21.146 7.3004-6.713 5.79-10.07 13.342-10.069 22.656-4e-5 9.3143 3.3564 16.824 10.069 22.53 5.6221 4.8669 12.713 7.3004 21.272 7.3004 8.4751 1.3e-5 15.524-2.4334 21.146-7.3004 3.3564-2.853 5.9157-6.3773 7.678-10.573 1.5942-3.776 2.3914-7.636 2.3915-11.58-1.2e-4 -9.7338-3.3566-17.412-10.069-23.034-5.7061-4.7829-12.797-7.2164-21.272-7.3004z" fill="#fff" font-family="'Media Gothic'" font-size="32px" letter-spacing="0px" stroke="#e6e6e6" word-spacing="0px"/>
 </g>
</svg>
