<svg width="800" height="207.19" version="1.1" xmlns="http://www.w3.org/2000/svg">
 <g transform="matrix(1.3781 0 0 1.3781 -1.2519 .070094)">
  <g transform="matrix(14.567 0 0 -14.567 124.92 148.1)" fill="#297b3b">
   <path d="m0 0c1.205 0.035 2.297 0.551 3.114 1.366 0.742-0.837 1.824-1.366 3.025-1.366 1.207 0 2.293 0.534 3.035 1.379 0.743-0.845 1.829-1.379 3.036-1.379 2.225 0 4.044 1.818 4.044 4.044v5.88h-2.64v-5.88c0-0.862-0.689-1.568-1.551-1.568-0.863 0-1.569 0.706-1.569 1.568v5.88h-2.64v-5.88c0-0.862-0.706-1.568-1.569-1.568-0.862 0-1.551 0.706-1.551 1.568v5.88h-2.64v-4.995c-0.019-1.234-0.92-2.258-2.026-2.291l-3.861 1e-3c-1.148 0-2.081 1.038-2.081 2.315 0 1.286 0.933 2.332 2.081 2.332h3.868v2.639h-3.868c-2.603 0-4.72-2.227-4.72-4.971 0-2.728 2.117-4.954 4.72-4.954z" fill="#297b3b"/>
  </g>
  <g transform="matrix(14.567 0 0 -14.567 72.792 87.633)" fill="#297b3b">
   <path d="m0 0v1.355h0.482v0.267h-1.297v-0.267h0.482v-1.355z" fill="#297b3b"/>
  </g>
  <g transform="matrix(14.567 0 0 -14.567 122.87 67.891)" fill="#297b3b">
   <path d="m0 0v0.267h-1.05v-1.622h1.08v0.267h-0.746v0.421h0.655v0.273h-0.655v0.394z" fill="#297b3b"/>
  </g>
  <g transform="matrix(14.567 0 0 -14.567 102.99 87.633)" fill="#297b3b">
   <path d="m0 0v1.622h-0.332v-0.661h-0.69v0.661h-0.332v-1.621h0.332v0.687h0.69v-0.688z" fill="#297b3b"/>
  </g>
  <path d="m470.4 101.55c-8e-3 -9.1425-1.908-16.848-5.6993-23.116-3.7914-6.2683-9.4252-11.075-16.901-14.42 4.2048-3.0051 7.2919-6.5262 9.2613-10.563 1.9693-4.0369 2.9437-8.8354 2.9233-14.396-0.22937-11.431-3.947-20.75-11.153-27.956-7.2061-7.2058-16.525-10.923-27.956-11.153-10.338 0.012433-19.043 3.1323-26.114 9.3596-7.0709 6.2276-11.206 15.489-12.406 27.784h26.531c0.58136-4.5036 1.8752-7.8282 3.8814-9.9737 2.0062-2.1453 4.7739-3.2098 8.3032-3.1936 3.7995 0.06978 6.862 1.3553 9.1876 3.8568 2.3255 2.5017 3.521 5.8017 3.5866 9.9 0.0983 4.9829-1.5723 8.6759-5.0114 11.079-3.4393 2.4035-9.2368 3.6891-17.393 3.8568v25.155h4.3236c8.7536 0.09399 15.665 2.3133 20.734 6.6573 5.0687 4.3441 7.6563 10.248 7.7628 17.712-0.12703 7.1118-2.2806 12.885-6.4608 17.319-4.1804 4.4342-9.6258 6.7188-16.336 6.8539-6.3749-0.0819-11.657-2.129-15.845-6.1415-4.1885-4.0124-6.7679-9.4988-7.7382-16.459h-26.335c1.0318 13.892 6.0923 25.069 15.182 33.532 9.0893 8.4629 20.734 12.811 34.933 13.044 14.326-0.27428 25.962-4.8845 34.908-13.831 8.946-8.946 13.556-20.582 13.831-34.908z" fill="#1f562e"/>
  <path d="m581.42 125.92v-23.387h-15.329v-100.03h-22.011l-66.819 102.19v21.225h62.692v21.814h26.138v-21.814zm-41.467-23.387h-36.161l36.161-56.01z" fill="#1f562e"/>
 </g>
</svg>
