<svg width="800" height="122.6" enable-background="new 0 0 2083.6 319.4" version="1.1" viewBox="0 0 800 122.6" xmlns="http://www.w3.org/2000/svg" xmlns:xlink="http://www.w3.org/1999/xlink">
 <clipPath id="a">
  <path d="m1408.7-187.3h698.1v537.2h-698.1z"/>
 </clipPath>
 <clipPath id="b">
  <path d="m-125.9-91.6h1712.3v1317.5h-1712.3z"/>
 </clipPath>
 <clipPath id="c">
  <path d="m-178.2-91.6h1712.3v1317.5h-1712.3z"/>
 </clipPath>
 <clipPath id="d">
  <path d="m-264.1-91.6h1712.3v1317.5h-1712.3z"/>
 </clipPath>
 <clipPath id="e">
  <path d="m-226.7-91.6h1712.3v1317.5h-1712.3z"/>
 </clipPath>
 <clipPath id="f">
  <path d="m1408.7-187.3h698.1v537.2h-698.1z"/>
 </clipPath>
 <linearGradient id="g">
  <stop stop-color="#999" offset="0"/>
  <stop stop-color="#999" stop-opacity="0" offset="1"/>
 </linearGradient>
 <linearGradient id="h" x1="922.7" x2="922.7" y1="580.62" y2="535.11" gradientTransform="matrix(3.1123,0,0,-3.1123,-956.37,1823.6)" gradientUnits="userSpaceOnUse" xlink:href="#g"/>
 <clipPath id="i">
  <path d="m-125.9-91.6h1712.3v1317.5h-1712.3z"/>
 </clipPath>
 <linearGradient id="j" x1="559.45" x2="559.45" y1="572.06" y2="553.5" gradientTransform="matrix(7.633,0,0,-7.633,-4113.8,4383.1)" gradientUnits="userSpaceOnUse" xlink:href="#g"/>
 <clipPath id="k">
  <path d="m-178.2-91.6h1712.3v1317.5h-1712.3z"/>
 </clipPath>
 <linearGradient id="l" x1="605.28" x2="605.28" y1="572.06" y2="553.5" gradientTransform="matrix(7.633,0,0,-7.633,-4166.1,4383.1)" gradientUnits="userSpaceOnUse" xlink:href="#g"/>
 <clipPath id="m">
  <path d="m-264.1-91.6h1712.3v1317.5h-1712.3z"/>
 </clipPath>
 <linearGradient id="n" x1="714.55" x2="714.55" y1="572.06" y2="553.5" gradientTransform="matrix(7.633,0,0,-7.633,-4252.1,4383.1)" gradientUnits="userSpaceOnUse" xlink:href="#g"/>
 <clipPath id="o">
  <path d="m-226.7-91.6h1712.3v1317.5h-1712.3z"/>
 </clipPath>
 <linearGradient id="p" x1="659.94" x2="659.94" y1="572.06" y2="553.5" gradientTransform="matrix(7.633,0,0,-7.633,-4214.7,4383.1)" gradientUnits="userSpaceOnUse" xlink:href="#g"/>
 <clipPath id="q">
  <path d="m1408.7-187.3h698.1v537.2h-698.1z"/>
 </clipPath>
 <linearGradient id="r" x1="922.7" x2="922.7" y1="487.03" y2="540" gradientTransform="matrix(3.1123,0,0,-3.1123,-956.37,1823.6)" gradientUnits="userSpaceOnUse" xlink:href="#g"/>
 <clipPath id="s">
  <path d="m-125.9-91.6h1712.3v1317.5h-1712.3z"/>
 </clipPath>
 <linearGradient id="t" x1="559.45" x2="559.45" y1="533.9" y2="555.5" gradientTransform="matrix(7.633,0,0,-7.633,-4113.8,4383.1)" gradientUnits="userSpaceOnUse" xlink:href="#g"/>
 <clipPath id="u">
  <path d="m-178.2-91.6h1712.3v1317.5h-1712.3z"/>
 </clipPath>
 <linearGradient id="v" x1="605.28" x2="605.28" y1="533.9" y2="555.5" gradientTransform="matrix(7.633,0,0,-7.633,-4166.1,4383.1)" gradientUnits="userSpaceOnUse" xlink:href="#g"/>
 <clipPath id="w">
  <path d="m-264.1-91.6h1712.3v1317.5h-1712.3z"/>
 </clipPath>
 <linearGradient id="x" x1="714.55" x2="714.55" y1="533.9" y2="555.5" gradientTransform="matrix(7.633,0,0,-7.633,-4252.1,4383.1)" gradientUnits="userSpaceOnUse" xlink:href="#g"/>
 <clipPath id="y">
  <path d="m-226.7-91.6h1712.3v1317.5h-1712.3z"/>
 </clipPath>
 <linearGradient id="z" x1="659.94" x2="659.94" y1="533.9" y2="555.5" gradientTransform="matrix(7.633,0,0,-7.633,-4214.7,4383.1)" gradientUnits="userSpaceOnUse" xlink:href="#g"/>
 <linearGradient id="A" x1="1548.2" x2="1548.2" y1="8.386" y2="151.13" gradientTransform="matrix(.38395 0 0 -.38395 0 123.63)" gradientUnits="userSpaceOnUse">
  <stop stop-color="#366aa5" offset="0"/>
  <stop offset="1"/>
 </linearGradient>
 <linearGradient id="B">
  <stop offset="0"/>
  <stop stop-opacity="0" offset="1"/>
 </linearGradient>
 <linearGradient id="C" x1="1645.3" x2="1816.6" y1="771.03" y2="672.1" gradientTransform="matrix(.38395 0 0 -.38395 -83.129 330.1)" gradientUnits="userSpaceOnUse" xlink:href="#B"/>
 <linearGradient id="D" x1="1658.9" x2="1783.5" y1="861.96" y2="717.31" gradientTransform="matrix(.38395 0 0 -.38395 -83.129 330.1)" gradientUnits="userSpaceOnUse" xlink:href="#g"/>
 <linearGradient id="E" x1="160.95" x2="296.85" y1="702.36" y2="702.36" gradientTransform="matrix(.38395 0 0 -.38395 -83.129 330.1)" gradientUnits="userSpaceOnUse" xlink:href="#B"/>
 <g transform="scale(.38395)" fill="#fff">
  <path d="m1917.3 163.8h-77.9l77.9-98.1zm98.3 0 0.1-151.9h-148.9l-119.8 151.9v72h170.3v72.4h98.3v-72.4h68v-72z" clip-path="url(#a)"/>
  <path d="m97.2 110.9 87.9-99.1h113.7l-109.1 110.3 123.2 188.9h-116.8l-74.7-119.8-24.2 24.6v95.2h-97.2v-299.2h97.2z" clip-path="url(#b)"/>
  <path d="m454.2 244c41.6 0 59.4-26.2 59.4-82.4s-17.9-82.4-59.4-82.4c-41.6 0-59.9 26.2-59.9 82.4s18.3 82.4 59.9 82.4m0-240.1c98 0 158.3 60.3 158.3 157.7s-60.3 157.7-158.3 157.7c-98.1 0-158.8-60.3-158.8-157.7 0-97.3 60.7-157.7 158.8-157.7" clip-path="url(#c)"/>
  <path d="m1202.3 244c41.6 0 59.4-26.2 59.4-82.4s-17.8-82.4-59.4-82.4-59.8 26.2-59.8 82.4c-0.1 56.2 18.2 82.4 59.8 82.4m0-240.1c98 0 158.3 60.3 158.3 157.7s-60.3 157.7-158.3 157.7c-98.1 0-158.7-60.3-158.7-157.7-0.1-97.3 60.6-157.7 158.7-157.7" clip-path="url(#d)"/>
  <path d="m875.4 11.8-43.3 149.8c-2.1 7.1-5.5 21.6-9.7 43.3-6-25.4-9.4-39.9-10.2-43.7l-42.4-149.4h-119.3v299.2h87.4v-199.7 0.3-0.3c4.2 21.6 8.1 40.4 12.3 56.6l38.2 143.1h68.3l37.8-146.5c2.6-9.9 7.2-27.7 12.7-52.9l0.1-0.4v199.8h87.5v-299.2z" clip-path="url(#e)"/>
 </g>
 <path transform="scale(.38395)" d="m1917.3 163.8h-77.9l77.9-98.1zm98.3 0 0.1-151.9h-148.9l-119.8 151.9v72h170.3v65h98.3v-65h68v-72z" clip-path="url(#f)" fill="url(#h)"/>
 <path transform="scale(.38395)" d="m0 11.8h97.2v99.1l87.9-99.1h113.7l-109.1 110.3 123.2 188.9h-116.8l-74.7-119.8-24.2 24.6v95.2h-97.2z" clip-path="url(#i)" fill="url(#j)"/>
 <path transform="scale(.38395)" d="m454.2 244c41.6 0 59.4-26.2 59.4-82.4s-17.9-82.4-59.4-82.4c-41.6 0-59.9 26.2-59.9 82.4s18.3 82.4 59.9 82.4m0-240.1c98 0 158.3 60.3 158.3 157.7s-60.3 157.7-158.3 157.7c-98.1 0-158.8-60.3-158.8-157.7 0-97.3 60.7-157.7 158.8-157.7" clip-path="url(#k)" fill="url(#l)"/>
 <path transform="scale(.38395)" d="m1202.3 244c41.6 0 59.4-26.2 59.4-82.4s-17.8-82.4-59.4-82.4-59.8 26.2-59.8 82.4c-0.1 56.2 18.2 82.4 59.8 82.4m0-240.1c98 0 158.3 60.3 158.3 157.7s-60.3 157.7-158.3 157.7c-98.1 0-158.7-60.3-158.7-157.7-0.1-97.3 60.6-157.7 158.7-157.7" clip-path="url(#m)" fill="url(#n)"/>
 <path transform="scale(.38395)" d="m875.4 11.8-43.3 149.8c-2.1 7.1-5.5 21.6-9.7 43.3-6-25.4-9.4-39.9-10.2-43.7l-42.4-149.4h-119.3v299.2h87.4v-199.7 0.3-0.3c4.2 21.6 8.1 40.4 12.3 56.6l38.2 143.1h68.3l37.8-146.5c2.6-9.9 7.2-27.7 12.7-52.9l0.1-0.4v199.8h87.5v-299.2z" clip-path="url(#o)" fill="url(#p)"/>
 <path transform="scale(.38395)" d="m1917.3 163.8h-77.9l77.9-98.1zm98.3 0 0.1-151.9h-148.9l-119.8 151.9v72h170.3v72.4h98.3v-72.4h68v-72z" clip-path="url(#q)" fill="url(#r)"/>
 <path transform="scale(.38395)" d="m97.2 110.9 87.9-99.1h113.7l-109.1 110.3 123.2 188.9h-116.8l-74.7-119.8-24.2 24.6v95.2h-97.2v-299.2h97.2z" clip-path="url(#s)" fill="url(#t)"/>
 <path transform="scale(.38395)" d="m454.2 244c41.6 0 59.4-26.2 59.4-82.4s-17.9-82.4-59.4-82.4c-41.6 0-59.9 26.2-59.9 82.4s18.3 82.4 59.9 82.4m0-240.1c98 0 158.3 60.3 158.3 157.7s-60.3 157.7-158.3 157.7c-98.1 0-158.8-60.3-158.8-157.7 0-97.3 60.7-157.7 158.8-157.7" clip-path="url(#u)" fill="url(#v)"/>
 <path transform="scale(.38395)" d="m1202.3 244c41.6 0 59.4-26.2 59.4-82.4s-17.8-82.4-59.4-82.4-59.8 26.2-59.8 82.4c-0.1 56.2 18.2 82.4 59.8 82.4m0-240.1c98 0 158.3 60.3 158.3 157.7s-60.3 157.7-158.3 157.7c-98.1 0-158.7-60.3-158.7-157.7-0.1-97.3 60.6-157.7 158.7-157.7" clip-path="url(#w)" fill="url(#x)"/>
 <path transform="scale(.38395)" d="m875.4 11.8-43.3 149.8c-2.1 7.1-5.5 21.6-9.7 43.3-6-25.4-9.4-39.9-10.2-43.7l-42.4-149.4h-119.3v299.2h87.4v-199.7 0.3-0.3c4.2 21.6 8.1 40.4 12.3 56.6l38.2 143.1h68.3l37.8-146.5c2.6-9.9 7.2-27.7 12.7-52.9l0.1-0.4v199.8h87.5v-299.2z" clip-path="url(#y)" fill="url(#z)"/>
 <path d="m655.1 60.549c0 33.442-27.145 60.549-60.664 60.549s-60.664-27.107-60.664-60.549 27.184-60.549 60.664-60.549c33.481 0 60.664 27.107 60.664 60.549z" fill="url(#A)" stroke-width=".38395"/>
 <path d="m655.1 60.549c0 33.442-27.145 60.549-60.664 60.549s-60.664-27.107-60.664-60.549 27.184-60.549 60.664-60.549c33.481 0 60.664 27.107 60.664 60.549z" fill="url(#C)" stroke-width=".38395"/>
 <path d="m534.96 48.263c2.1117-7.7558 3.9547-15.742 14.629-28.643 6.0664-5.6441 11.365-11.211 24.304-16.088 15.396-5.0298 31.33-5.0298 47.418 2.9948-0.57592 21.309-6.6424 31.945-14.744 38.625-16.241 12.363-30.371 16.088-43.847 17.009-12.555 0.65271-21.04-8.0246-27.76-13.899z" fill="url(#D)" stroke-width=".38395"/>
 <path d="m594.43 0c-33.519 0-60.664 27.107-60.664 60.549s27.145 60.549 60.664 60.549 60.664-27.107 60.664-60.549-27.145-60.549-60.664-60.549zm-0.11518 1.1518c32.789 0 59.397 26.531 59.397 59.282s-26.569 59.244-59.397 59.244-59.359-26.531-59.359-59.244 26.569-59.282 59.359-59.282z" stroke-width=".38395"/>
 <path d="m555.46 41.889c-10.098 0-18.238 8.2933-18.238 18.545 0 10.251 8.1014 18.545 18.238 18.545 6.22 0 8.6389-4.4538 8.6389-4.4538v4.0699h9.5988v-18.161c0-10.29-8.1014-18.545-18.238-18.545zm0 9.6756c4.8378 0 8.6773 3.9547 8.6773 8.8693s-3.8779 8.8693-8.6773 8.8693-8.6773-3.9547-8.6773-8.8693 3.8779-8.8693 8.6773-8.8693z" fill="url(#E)" stroke-width=".38395"/>
 <path d="m632.87 43.732c-8.8693 0-15.972 7.4103-15.972 16.625s7.1031 16.625 15.972 16.625c7.6406 0 14.014-5.5289 15.588-12.978h-8.8309c-1.267 2.5341-3.8011 4.2618-6.7575 4.2618-4.2235 0-7.6022-3.5323-7.6022-7.9478 0-4.377 3.3788-7.9478 7.6022-7.9478 2.9564 0 5.5289 1.7278 6.7575 4.3002h8.8309c-1.6126-7.3719-7.9478-12.939-15.588-12.939z" fill="#fff" opacity=".25" stroke-width=".38395"/>
 <path d="m554.62 41.543c-10.52 0-19.006 8.4853-19.006 19.006 0 10.52 8.4469 19.006 19.006 19.006 6.4504 0 8.9844-4.569 8.9844-4.569v4.1467h9.9827v-18.583c0-10.52-8.4469-19.006-18.967-19.006zm0 9.9443c5.0298 0 9.0612 4.0315 9.0612 9.0612 0 5.0298-4.0315 9.0612-9.0612 9.0612s-9.0612-4.0315-9.0612-9.0612c0-5.0298 4.0315-9.0612 9.0612-9.0612z" fill="#fff" stroke="#000" stroke-width=".30278"/>
 <path d="m576 28.451v32.098c0 10.52 8.4469 19.006 19.006 19.006 10.52 0 18.967-8.4853 18.967-19.006 0-10.52-8.4469-19.006-18.967-19.006-6.4504 0-9.0228 4.569-9.0228 4.569v-17.662zm19.006 23.037c5.0298 0 9.0612 4.0699 9.0612 9.0612 0 5.0298-4.0315 9.0612-9.0612 9.0612s-9.0612-4.0699-9.0612-9.0612c0-5.0298 4.0315-9.0612 9.0612-9.0612z" fill="#fff" stroke="#000" stroke-width=".30278"/>
 <path d="m634.59 41.543c-10.52 0-19.006 8.4853-19.006 19.006 0 10.52 8.4469 19.006 19.006 19.006 9.0996 0 16.625-6.3352 18.545-14.82h-10.52c-1.4974 2.8796-4.5306 4.8762-8.0246 4.8762-5.0298 0-9.0612-4.0315-9.0612-9.0612 0-5.0298 4.0315-9.0612 9.0612-9.0612 3.5324 0 6.5656 1.9966 8.063 4.9146h10.482c-1.9198-8.5237-9.4452-14.859-18.545-14.859z" fill="#fff" stroke="#000" stroke-width=".30278"/>
</svg>
