<svg width="800" height="135.79" enable-background="new 0 0 2085.7 320.3" version="1.1" viewBox="0 0 800 135.79" xmlns="http://www.w3.org/2000/svg" xmlns:xlink="http://www.w3.org/1999/xlink">
 <filter id="a" color-interpolation-filters="sRGB">
  <feColorMatrix result="result7" values="1 0 0 0 0 0 1 0 0 0 0 0 1 0 0 0 0 0 1 0"/>
  <feGaussianBlur result="result6" stdDeviation="5"/>
  <feComposite in="result6" in2="result7" operator="atop" result="result91"/>
  <feComposite in2="result91" operator="in"/>
 </filter>
 <clipPath id="b">
  <path d="m1409.8-187.3h698.1v537.2h-698.1z"/>
 </clipPath>
 <clipPath id="c">
  <path d="m-124.8-91.6h1712.3v1317.5h-1712.3z"/>
 </clipPath>
 <clipPath id="d">
  <path d="m-177.1-91.6h1712.3v1317.5h-1712.3z"/>
 </clipPath>
 <clipPath id="e">
  <path d="m-263-91.6h1712.3v1317.5h-1712.3z"/>
 </clipPath>
 <clipPath id="f">
  <path d="m-225.6-91.6h1712.3v1317.5h-1712.3z"/>
 </clipPath>
 <linearGradient id="g" x1="1549.3" x2="1549.3" y1="8.386" y2="151.13" gradientTransform="matrix(.37821 0 0 -.37821 11.418 128.64)" gradientUnits="userSpaceOnUse">
  <stop stop-color="#366aa5" offset="0"/>
  <stop offset="1"/>
 </linearGradient>
 <linearGradient id="h">
  <stop offset="0"/>
  <stop stop-opacity="0" offset="1"/>
 </linearGradient>
 <linearGradient id="i" x1="1645.5" x2="1816.9" y1="771.51" y2="672.57" gradientTransform="matrix(.37821 0 0 -.37821 -70.469 332.02)" gradientUnits="userSpaceOnUse" xlink:href="#h"/>
 <linearGradient id="j" x1="1659.5" x2="1784.1" y1="862.51" y2="717.85" gradientTransform="matrix(.37821 0 0 -.37821 -70.469 332.02)" gradientUnits="userSpaceOnUse">
  <stop stop-color="#999" offset="0"/>
  <stop stop-color="#999" stop-opacity="0" offset="1"/>
 </linearGradient>
 <linearGradient id="k" x1="160.95" x2="296.85" y1="702.36" y2="702.36" gradientTransform="matrix(.37821 0 0 -.37821 -70.469 332.02)" gradientUnits="userSpaceOnUse" xlink:href="#h"/>
 <clipPath id="l">
  <path d="m1409.8-187.3h698.1v537.2h-698.1z"/>
 </clipPath>
 <linearGradient id="m">
  <stop stop-color="#9caabd" offset="0"/>
  <stop stop-color="#9caabd" stop-opacity="0" offset="1"/>
 </linearGradient>
 <radialGradient id="n" cx="608.31" cy="177.56" r="54.393" gradientTransform="matrix(0,1.7694,1.5577,0,1487.9,-849.08)" gradientUnits="userSpaceOnUse" xlink:href="#m"/>
 <clipPath id="o">
  <path d="m-124.8-91.6h1712.3v1317.5h-1712.3z"/>
 </clipPath>
 <radialGradient id="p" cx="396.08" cy="520.78" r="20.626" gradientTransform="matrix(-1.1323e-4,14.228,13.303,-7.6e-7,-6924.2,-5625.4)" gradientUnits="userSpaceOnUse" xlink:href="#m"/>
 <clipPath id="q">
  <path d="m-263-91.6h1712.3v1317.5h-1712.3z"/>
 </clipPath>
 <radialGradient id="r" cx="599.44" cy="471.39" r="20.9" gradientTransform="matrix(4.8619e-4,8.9584,8.9571,-4.7992e-4,-2954.6,-5055.1)" gradientUnits="userSpaceOnUse" xlink:href="#m"/>
 <clipPath id="s">
  <path d="m1409.8-187.3h698.1v537.2h-698.1z"/>
 </clipPath>
 <radialGradient id="t" cx="576.64" cy="445.57" r="54.393" gradientTransform="matrix(6.7822e-4,3.0968,2.6963,-5.9051e-4,835.42,-1499.5)" gradientUnits="userSpaceOnUse" xlink:href="#m"/>
 <g transform="matrix(.37821 0 0 .37821 11.418 6.8532)" stroke="#000">
  <path d="m1918.4 163.8h-77.9l77.9-98.1zm98.3 0 0.1-151.9h-148.9l-119.8 151.9v72h170.3v65h98.3v-65h68v-72z" clip-path="url(#b)" stroke-width=".6426"/>
  <path d="m190.8 122.1 123.2 188.9h-116.8l-74.7-119.8-24.2 24.6v95.2h-97.2v-299.2h97.2v99.1l87.9-99.1h113.7z" clip-path="url(#c)" stroke-width=".262"/>
  <path d="m455.3 244c41.6 0 59.4-26.2 59.4-82.4s-17.9-82.4-59.4-82.4c-41.6 0-59.9 26.2-59.9 82.4s18.3 82.4 59.9 82.4m0-240.1c98 0 158.3 60.3 158.3 157.7s-60.3 157.7-158.3 157.7c-98.1 0-158.8-60.3-158.8-157.7 0-97.3 60.7-157.7 158.8-157.7" clip-path="url(#d)" stroke-width=".262"/>
  <path d="m1203.4 244c41.6 0 59.4-26.2 59.4-82.4s-17.8-82.4-59.4-82.4-59.8 26.2-59.8 82.4 18.2 82.4 59.8 82.4m0-240.1c98 0 158.3 60.3 158.3 157.7s-60.3 157.7-158.3 157.7c-98.1 0-158.7-60.3-158.7-157.7-0.1-97.3 60.6-157.7 158.7-157.7" clip-path="url(#e)" stroke-width=".262"/>
  <path d="m876.5 11.8-43.3 149.8c-2.1 7.1-5.5 21.6-9.7 43.3-6-25.4-9.4-39.9-10.2-43.7l-42.4-149.4h-119.3v299.2h87.4v-199.7 0.3-0.3c4.2 21.6 8.1 40.4 12.3 56.6l38.2 143.1h68.3l37.8-146.5c2.6-9.9 7.2-27.7 12.7-52.9l0.1-0.4v199.8h87.5v-299.2z" clip-path="url(#f)" stroke-width=".262"/>
 </g>
 <path d="m657.14 66.497c0 32.942-26.74 59.644-59.758 59.644s-59.758-26.702-59.758-59.644 26.777-59.644 59.758-59.644c32.98 0 59.758 26.702 59.758 59.644z" fill="url(#g)" stroke-width=".37821"/>
 <path d="m657.14 66.497c0 32.942-26.74 59.644-59.758 59.644s-59.758-26.702-59.758-59.644 26.777-59.644 59.758-59.644c32.98 0 59.758 26.702 59.758 59.644z" fill="url(#i)" stroke-width=".37821"/>
 <path d="m538.8 54.395c2.0802-7.6399 3.8956-15.507 14.41-28.215 5.9758-5.5597 11.195-11.044 23.941-15.847 15.166-4.9546 30.862-4.9546 46.709 2.9501-0.56732 20.991-6.5431 31.467-14.523 38.048-15.998 12.178-29.917 15.847-43.192 16.755-12.368 0.64296-20.726-7.9046-27.345-13.691z" fill="url(#j)" stroke-width=".37821"/>
 <path d="m597.38 6.8532c-33.018 0-59.758 26.702-59.758 59.644s26.74 59.644 59.758 59.644 59.758-26.702 59.758-59.644-26.74-59.644-59.758-59.644zm-0.11346 1.1346c32.299 0 58.51 26.135 58.51 58.396s-26.172 58.358-58.51 58.358c-32.337 0-58.472-26.135-58.472-58.358s26.172-58.396 58.472-58.396z" stroke-width=".37821"/>
 <path d="m558.99 48.116c-9.947 0-17.965 8.1694-17.965 18.268s7.9803 18.268 17.965 18.268c6.127 0 8.5098-4.3873 8.5098-4.3873v4.0091h9.4553v-17.889c0-10.136-7.9803-18.268-17.965-18.268zm0 9.531c4.7655 0 8.5476 3.8956 8.5476 8.7367s-3.82 8.7367-8.5476 8.7367-8.5476-3.8956-8.5476-8.7367 3.82-8.7367 8.5476-8.7367z" fill="url(#k)" stroke-width=".37821"/>
 <path d="m635.24 49.932c-8.7367 0-15.734 7.2995-15.734 16.377s6.9969 16.377 15.734 16.377c7.5264 0 13.805-5.4463 15.355-12.784h-8.6989c-1.2481 2.4962-3.7443 4.1982-6.6565 4.1982-4.1604 0-7.4886-3.4796-7.4886-7.829 0-4.3116 3.3283-7.829 7.4886-7.829 2.9122 0 5.4463 1.702 6.6565 4.236h8.6989c-1.5885-7.2617-7.829-12.746-15.355-12.746z" fill="#fff" opacity=".25" stroke-width=".37821"/>
 <path d="m558.16 47.776c-10.363 0-18.722 8.3585-18.722 18.722 0 10.363 8.3207 18.722 18.722 18.722 6.354 0 8.8502-4.5007 8.8502-4.5007v4.0847h9.8335v-18.305c0-10.363-8.3207-18.722-18.684-18.722zm0 9.7957c4.9546 0 8.9258 3.9712 8.9258 8.9258s-3.9712 8.9258-8.9258 8.9258-8.9258-3.9712-8.9258-8.9258 3.9712-8.9258 8.9258-8.9258z" fill="#fff" stroke="#000" stroke-width=".29826"/>
 <path d="m579.23 34.879v31.619c0 10.363 8.3207 18.722 18.722 18.722 10.363 0 18.684-8.3585 18.684-18.722 0-10.363-8.3207-18.722-18.684-18.722-6.354 0-8.888 4.5007-8.888 4.5007v-17.398zm18.722 22.693c4.9546 0 8.9258 4.0091 8.9258 8.9258 0 4.9546-3.9712 8.9258-8.9258 8.9258s-8.9258-4.0091-8.9258-8.9258c0-4.9546 3.9712-8.9258 8.9258-8.9258z" fill="#fff" stroke="#000" stroke-width=".29826"/>
 <path d="m636.94 47.776c-10.363 0-18.722 8.3585-18.722 18.722 0 10.363 8.3207 18.722 18.722 18.722 8.9636 0 16.377-6.2405 18.268-14.599h-10.363c-1.475 2.8366-4.4629 4.8033-7.9046 4.8033-4.9546 0-8.9258-3.9712-8.9258-8.9258s3.9712-8.9258 8.9258-8.9258c3.4796 0 6.4674 1.9667 7.9425 4.8411h10.325c-1.8911-8.3963-9.304-14.637-18.268-14.637z" fill="#fff" stroke="#000" stroke-width=".29826"/>
 <path transform="matrix(.37821 0 0 .37821 11.418 6.8532)" d="m1918.4 163.8h-77.9l77.9-98.1zm98.3 0 0.1-151.9h-148.9l-119.8 151.9v72h170.3v65h98.3v-65h68v-72z" clip-path="url(#l)" fill="url(#n)" stroke="#000" stroke-width=".6426"/>
 <g transform="matrix(.37821 0 0 .37821 11.418 6.8532)" clip-path="url(#o)" filter="url(#a)">
  <path d="m190.8 122.1 123.2 188.9h-116.8l-74.7-119.8-24.2 24.6v95.2h-97.2v-299.2h97.2v99.1l87.9-99.1h113.7z" fill="url(#p)"/>
  <path d="m190.8 122.1 123.2 188.9h-116.8l-74.7-119.8-24.2 24.6v95.2h-97.2v-299.2h97.2v99.1l87.9-99.1h113.7z" fill="none" stroke="#000" stroke-width=".262"/>
 </g>
 <path transform="matrix(.37821 0 0 .37821 11.418 6.8532)" d="m1203.4 244c41.6 0 59.4-26.2 59.4-82.4s-17.8-82.4-59.4-82.4-59.8 26.2-59.8 82.4 18.2 82.4 59.8 82.4m0-240.1c98 0 158.3 60.3 158.3 157.7s-60.3 157.7-158.3 157.7c-98.1 0-158.7-60.3-158.7-157.7-0.1-97.3 60.6-157.7 158.7-157.7" clip-path="url(#q)" fill="url(#r)" stroke="#000" stroke-width=".262"/>
 <path transform="matrix(.37821 0 0 .37821 11.418 6.8532)" d="m1918.4 163.8h-77.9l77.9-98.1zm98.3 0 0.1-151.9h-148.9l-119.8 151.9v72h170.3v65h98.3v-65h68v-72z" clip-path="url(#s)" fill="url(#t)" stroke="#000" stroke-width=".6426"/>
</svg>
