<svg width="800" height="412.82" version="1.1" xmlns="http://www.w3.org/2000/svg">
 <g transform="translate(-1017.9 -210.36)">
  <path d="m1017.9 210.36h800v412.82h-800z" fill="#00529a" stroke-width=".26633"/>
  <path transform="translate(1017.9 210.36)" d="m14.4 15.693v381.43h771.2v-381.43h-771.2zm10.133 9.5762h751.47v362.28h-751.47v-362.28z" fill="#fff" stroke-width=".26633"/>
  <path d="m1655.5 566.8c25.425-2.0841 46.943-8.4238 64.722-19.069 15.219-9.1122 26.859-20.789 34.7-34.808 5.644-10.091 9.4126-22.338 10.436-33.913 0.3544-4.0086 0.3493-13.589-0.01-18.101-1.1979-15.058-6.156-28.596-14.12-38.555-2.2612-2.8277-7.1983-7.6297-9.9538-9.6814-6.5525-4.879-12.798-7.792-23.216-10.828-1.4923-0.43489-2.0476-1.0484-1.5996-1.7671 0.3227-0.51778 0.8509-0.70387 5.8405-2.0577 11.596-3.1464 20.498-11.023 26.39-23.351 4.4483-9.3067 6.9319-20.22 7.6242-33.501 0.3123-5.9924 0.1034-8.9353-0.9759-13.746-3.1633-14.098-9.0418-25.544-18.278-35.588-17.757-19.31-47.4-31.506-85.027-34.983-2.0801-0.19218-7.5406-0.33156-12.933-0.33012-12.42 3e-3 -19.41 0.58842-31.733 2.6563-25.739 4.3191-46.916 13.532-63.133 27.467-5.0173 4.3111-11.281 11.154-15.016 16.404-5.7521 8.086-10.716 18.216-13.329 27.201-2.044 7.0287-3.3224 17.408-3.3224 26.975v4.7492l81.867-0.36172c0-1.2552 0.8801-8.7611 1.2115-10.333 2.953-14.002 13.146-23.382 28.835-26.534 5.2404-1.0529 9.7388-1.3735 14.793-1.0545 12.019 0.75874 20.586 3.4048 27.302 8.4328 3.873 2.8993 6.6382 6.5494 8.2953 10.95 1.2508 3.3217 1.5425 5.5262 1.178 8.9033-1.3304 12.325-9.2071 20.293-23.536 23.809-7.3318 1.7991-11.888 2.134-29.279 2.1522-7.26 7e-3 -13.343 0.10214-13.518 0.2101-0.4121 0.25448-0.8475 55.111-0.4375 55.111 0.1444 0 1.5134-0.17372 3.0423-0.386 4.6255-0.64229 11.859-1.0252 15.98-0.84585 14.365 0.62513 17.267 0.9174 22.64 2.2803 13.483 3.4197 21.813 12.038 23.911 24.739 0.821 4.9714 0.1645 12.703-1.5132 17.819-0.8973 2.7365-2.9963 6.5985-4.868 8.9564-5.5749 7.0235-15.214 11.603-27.158 12.903-3.4559 0.37624-11.4 0.1559-15.145-0.42013-17.526-2.6952-29.107-9.9582-35.589-22.319-1.2474-2.3787-3.0549-7.6333-3.7178-10.808-0.5174-2.478-0.869-6.8457-0.8866-10.306l0.145-6.0827-82.351 0.25016v12.524c0 12.032 0.027 12.691 0.6639 16.745 2.8407 18.078 9.0509 33.155 18.829 45.714 14.104 18.115 35.133 30.877 62.106 37.692 12.223 3.0881 21.554 4.4882 36.267 5.4421 3.2002 0.20747 30.488-0.0806 33.867-0.35749z" fill="#fff" stroke-width=".26633"/>
  <path d="m1497.8 260.5h-71.444l-0.708 1.9949c-2.9185 8.2229-9.6856 16.522-17.978 22.048-10.965 7.3077-25.969 11.421-43.07 11.808l-2.5333 0.0573v62.508l45.467 0.136v204.81h90.4z" fill="#fff" stroke-width=".26633"/>
  <path d="m1218.3 262.07c-82.759 0-148.57 67.571-148.57 149.88 0 83.21 65.809 150.79 148.57 150.79 83.196 0 148.12-67.575 148.12-150.77 0.014-82.308-64.926-149.9-148.12-149.9zm0 63.619c67.574 0 117.08 42.913 138 86.285-20.919 44.035-70.421 87.15-138 87.15-68.011 0-117.12-43.131-138.02-87.15 20.905-43.359 70.025-86.26 138.02-86.26v-0.0262zm0 6.821c-44.021 0-79.912 35.629-79.912 79.439 0 44.472 35.89 79.912 79.912 79.912 44.021 0 79.439-35.442 79.439-79.885 0-43.81-35.418-79.465-79.439-79.465z" fill="#fff" stroke-width=".83951"/>
 </g>
</svg>
