<svg width="1e3" height="278.11" version="1.1" viewBox="0 0 100 27.811" xmlns="http://www.w3.org/2000/svg">
 <g transform="translate(-93.839 41.26)" fill-rule="evenodd">
  <g fill="#202520">
   <path d="m120.9-18.237v-21.834h5.6759v11.063l4.3924-5.3955h6.466l-5.6442 6.4955 5.7784 9.6712h-6.2515l-3.2733-5.4654-1.4678 1.6873v3.7781z"/>
   <path d="m150.47-34.785c-2.5033 0-3.7185 1.192-4.8834 2.4892v-2.1087h-5.7111v20.955h5.7111v-6.7215c1.0672 1.3214 2.6039 2.3109 4.893 2.3109 4.2698 0 7.191-3.6404 7.191-8.5893 0-4.9193-3.1703-8.3358-7.2006-8.3358zm-1.7193 4.7751c1.9896 0 3.3312 1.7284 3.3312 3.6681 0 2.0679-1.4262 3.7124-3.3407 3.7124-1.8746 0-3.287-1.6412-3.287-3.6978 0-1.8884 1.2256-3.6827 3.2964-3.6827z"/>
   <path d="m170.86-17.857c-2.364 0-3.7185-1.0163-4.8834-2.3134v1.933h-5.7111v-21.834h5.7111v7.7759c1.0672-1.3214 2.6039-2.4866 4.893-2.4866 4.2698 0 7.191 3.6404 7.191 8.5893 0 4.9193-3.1703 8.3358-7.2006 8.3358zm-1.7193-4.7751c1.9896 0 3.3312-1.7284 3.3312-3.6681 0-2.0679-1.4262-3.7124-3.3407-3.7124-1.8746 0-3.287 1.6412-3.287 3.6978 0 1.8884 1.2256 3.6827 3.2964 3.6827z"/>
   <path d="m187.15-17.875c4.9744 0 6.692-2.5869 6.692-5.3925 0-5.6998-8.3818-4.7791-8.3818-6.6877 0-0.65309 0.74216-0.81379 1.3458-0.81379 1.5928 0 3.7233 0.97251 4.7437 1.5128l1.9749-3.6362c-1.696-1.0303-4.1297-1.8651-6.6791-1.8651-3.6316 0-6.491 1.7582-6.491 5.4521 0 5.7636 8.3261 4.5605 8.3261 6.6016 0 0.54167-0.54122 0.87396-1.5136 0.87396-2.0052 0-4.178-1.0404-5.4971-1.8936l-2.1406 3.4832c2.0249 1.334 4.3682 2.3653 7.6206 2.3653z"/>
  </g>
  <path d="m93.839-29.747c0 6.3063 5.0026 11.51 11.51 11.51h11.51v-12.037c0-5.1196-4.525-10.986-11.521-10.986-6.52 0-11.499 5.2535-11.499 11.513z" fill="#0b6db5"/>
 </g>
</svg>
