<svg width="800.01" height="421" version="1.1" viewBox="0 0 211.67 111.39" xmlns="http://www.w3.org/2000/svg">
 <path d="m156.8 111.2c-0.77123-0.0701-2.7432-0.36791-4.3821-0.66189-12.623-2.2643-22.227-8.6169-28.308-18.725-1.5073-2.5055-3.8229-7.7172-4.1454-9.3298l-0.20531-1.0265 15.19-1.4969c8.3544-0.82331 15.375-1.4905 15.602-1.4826 0.22687 0.0079 0.80758 0.87727 1.2905 1.932 2.2505 4.9158 7.9999 7.8813 14.473 7.4649 6.3506-0.40852 11.056-3.6139 13.129-8.9437 0.61288-1.5758 0.78568-2.7444 0.79066-5.3469 0.0147-7.5252-3.2879-12.854-9.0213-14.556-2.0696-0.61462-6.7954-0.67677-9.4003-0.12362-2.8579 0.60685-5.7652 2.2204-6.8641 3.8095-1.1514 1.665 0.13683 1.593-17.868 0.99748-9.6771-0.32009-12.708-0.5244-12.708-0.8566 0-0.38207 3.3613-19.807 7.7585-44.835 0.77911-4.4347 1.6842-9.6406 2.0114-11.569l0.59486-3.5057 68.513-0.17874v25.595h-46.502l-0.39398 2.0158c-0.21669 1.1087-0.95967 4.6003-1.6511 7.7593-0.69138 3.1589-1.182 5.8185-1.0903 5.9102 0.0916 0.09172 0.60964-0.14574 1.151-0.52767 7.533-5.3148 23.793-6.4662 35.086-2.4845 5.4457 1.9201 8.9219 4.0688 12.814 7.9205 5.9654 5.9032 9.0017 13.878 8.9986 23.633-7e-3 21.737-13.137 35.164-37.454 38.3-3.9474 0.50911-13.382 0.67862-17.409 0.31278zm-108.15-1.1944c-16.995-1.9196-32.961-12.503-41.563-27.55-5.1621-9.0305-7.4263-18.407-7.0519-29.204 0.31143-8.9797 1.8979-15.342 5.7242-22.958 7.602-15.13 21.458-25.732 38.333-29.33 4.257-0.90773 13.304-1.2526 17.704-0.67486 8.7199 1.1452 16.28 3.9492 23.56 8.7382 4.0786 2.6831 4.7218 3.2246 9.277 7.8092 5.8841 5.9221 10.083 12.748 12.697 20.64 5.4734 16.526 3.1654 33.954-6.388 48.236-11.558 17.28-31.67 26.623-52.292 24.294zm12.065-22.232c9.0528-0.67449 19.711-4.6429 27.724-10.323 6.7306-4.7706 14.41-13.664 17.522-20.291l1.0456-2.2267-1.5621-2.9414c-3.377-6.3589-9.5116-13.529-15.38-17.975-19.51-14.784-45.735-15.861-66.235-2.7208-7.9188 5.0758-14.593 12.328-19.353 21.031l-1.5075 2.756 1.3223 2.5025c5.5708 10.543 14.409 19.126 25.296 24.567 4.2899 2.144 8.7975 3.6986 13.878 4.7863 3.5573 0.76163 10.133 1.3499 12.897 1.1538 0.86766-0.06161 2.8263-0.20493 4.3525-0.31864zm-11.118-3.9977c-16.795-3.6708-26.944-21.643-21.393-37.883 2.5393-7.4291 7.694-13.298 14.807-16.858 16.155-8.086 36.079 0.80284 41.06 18.319 1.4981 5.2681 1.2557 12.384-0.59969 17.608-3.1088 8.7515-10.736 15.868-19.759 18.438-3.8369 1.0928-10.074 1.2589-14.114 0.37581z" fill="#fff" stroke-width=".35057"/>
</svg>
