<svg width="263.72mm" height="209.53mm" version="1.1" viewBox="0 0 934.45 742.44" xmlns="http://www.w3.org/2000/svg">
 <link href="" rel="stylesheet" type="text/css"/>
 <style type="text/css"/>
 <g transform="translate(247.22 -212.57)">
  <g transform="translate(-230.46 26.403)">
   <g transform="matrix(1.25 0 0 -1.25 -187.86 930.13)" fill="#3c3d92"></g>
   <path transform="translate(230.46 -26.403)" d="m2.4102 212.8c-69.15 0.2305-127.93 24.894-176.79 73.99-48.635 49.327-73.068 108.56-72.838 178.18 0 69.611 24.663 128.85 73.529 177.71 48.866 48.866 107.87 73.299 177.02 73.299s127.93-24.663 176.79-73.99c48.635-49.096 73.068-108.57 73.068-177.95 0-69.611-24.663-128.85-73.529-177.95l-0.23047 0.23047c-48.866-49.096-107.87-73.529-177.02-73.529zm1.6133 101.65c67.075 0 126.08 24.894 176.56 74.912 21.206 20.745 39.877 45.869 56.012 74.912-15.904 29.043-34.575 53.937-55.551 74.912-50.249 50.249-109.03 75.373-176.33 75.373h-0.23047c-67.306 0.2305-126.77-24.894-177.95-74.912-21.436-20.745-40.338-45.639-56.934-74.682 16.365-29.273 35.267-54.398 56.703-75.143 51.171-50.249 110.18-75.373 177.71-75.373z" clip-rule="evenodd" fill="#3c3d92" fill-rule="evenodd" image-rendering="optimizeQuality" shape-rendering="geometricPrecision" text-rendering="geometricPrecision"/>
   <path d="m908.92 450.09c-1.844-26.277-15.674-53.015-36.419-67.767-18.67-13.369-47.022-21.206-84.824-23.05-32.731-0.2305-134.38 0-134.38 0v-87.359h248.02v-85.746h-386.32v252.86s166.19 0.23051 165.96 0c21.897 0.46101 85.054-7.837 85.285 87.82 0.2305 63.157 0.461 137.61 0.461 137.61 0.6915 1.844-74.221-46.561-74.912-47.022-41.49-20.745-36.88-44.486-36.88-86.437v-22.358h-140.14v60.16c0 29.273 9.681 68.919 57.164 92.661 13.599 6.915 33.192 18.209 68.689 23.28 22.819 3.227 104.19 2.766 116.86 1.6135 53.015-4.149 73.99-17.287 90.586-27.66 38.493-23.741 59.469-60.621 61.774-93.122 2.305-32.5 2.0745-83.21-0.2305-115.71z" clip-rule="evenodd" fill="#fc0" fill-rule="evenodd" image-rendering="optimizeQuality" shape-rendering="geometricPrecision" text-rendering="geometricPrecision"/>
   <path d="m325.07 345.44c-25.585-25.585-56.242-38.263-91.969-38.032-35.958 0-66.614 12.908-91.969 38.493s-37.802 56.472-37.802 92.891c0 35.958 12.677 66.845 38.263 92.43 25.355 25.585 56.011 38.263 92.2 38.032 35.727 0 66.384-12.908 91.739-38.493s38.032-56.472 38.032-92.43c0-36.188-12.908-67.075-38.263-92.661z" clip-rule="evenodd" fill="#3c3d92" fill-rule="evenodd" image-rendering="optimizeQuality" shape-rendering="geometricPrecision" text-rendering="geometricPrecision"/>
   <path class="fil4" d="m239.55 738.68-87.59 0.2305-72.377 74.451-8.0675 8.298-0.2305 0.2305c-0.6915 1.1525-1.383 2.0745-2.0745 3.227l-0.2305-85.976-75.373 0.2305v188.32h75.834l-0.2305-87.129c2.0745 3.227 5.532 7.6065 11.525 13.599l73.068 73.99h88.051l-93.122-95.657 90.817-93.813z" clip-rule="evenodd" fill="#3c3d92" image-rendering="optimizeQuality" shape-rendering="geometricPrecision" text-rendering="geometricPrecision"/>
   <path transform="matrix(.2305 0 0 .2305 -145.38 72.763)" d="m2877 3711h329l-3-826-326 1z" clip-rule="evenodd" fill="#3c3d92" image-rendering="optimizeQuality" shape-rendering="geometricPrecision" text-rendering="geometricPrecision"/>
   <path transform="matrix(.2305 0 0 .2305 -145.38 72.763)" d="m3683 3710 254-245 279 247h396l-483-426 453-405-396 1-248 222-233-220h-397l456 403-477 423z" clip-rule="evenodd" fill="#3c3d92" image-rendering="optimizeQuality" shape-rendering="geometricPrecision" text-rendering="geometricPrecision"/>
   <path class="fil4" d="m436.86 738.21h-176.1v190.39h77.909v-51.862h102.11c18.44 0 32.731-5.993 42.412-17.518 9.4505-11.294 14.291-27.429 14.291-48.174 0-14.982 0-40.107-12.216-53.706-11.525-13.138-27.429-19.131-48.174-19.131zm-98.654 44.717 74.682-0.23049c7.376 0 12.677 1.1525 16.135 3.688 4.61 3.227 6.915 9.9115 6.915 19.823 0 10.142-2.766 16.596-8.298 19.823-3.4575 2.0745-9.9115 3.227-18.901 3.227h-70.763v-46.33z" clip-rule="evenodd" fill="#3c3d92" image-rendering="optimizeQuality" shape-rendering="geometricPrecision" text-rendering="geometricPrecision"/>
  </g>
 </g>
</svg>
