<svg width="800" height="462.47" version="1.1" xmlns="http://www.w3.org/2000/svg">
 <link href="" rel="stylesheet" type="text/css"/>
 <style type="text/css"/>
 <g transform="translate(68.366 -514.34)">
  <path d="m520.05 652.37c-5.2916 1.762-10.41 6.1564-8.6476 11.112l9.9847 82.007 37.459-86.213c1.5889-3.3516 1.5889-6.8703 1.5889-10.048 0.0104-13.929-11.437-26.651-24.841-26.667-15.517 0-26.818 12.691-26.824 26.625v1.5939h7.048c2.2761 0 4.2322 0.70302 4.2322 1.5893" fill="#6460aa"/>
  <path d="m559.55 672.33-37.286 84.451 75.893-53.38c2.6378-1.7618 5.4592-3.3562 7.7559-7.0529 7.0743-12.686 3.3823-28.397-8.448-36.164-11.972-7.7716-28.381-4.2478-36.142 8.789-0.88647 0.70282-0.88647 1.5938-1.7727 3.3562" fill="#0089d0"/>
  <path d="m590.38 717.16-70.413 47.38 83.607 0.0563c3.162 0 6.6966-1.0595 10.053-2.6328 13.75-5.0974 19.76-20.609 13.771-33.672-5.0971-13.765-20.62-18.889-34.197-13.787-0.88619 0.89177-1.9405 1.5889-2.8213 2.6542" fill="#0cb14b"/>
  <path d="m452.67 672.24 37.852 84.515-75.793-53.491c-3.3457-1.7774-5.1024-3.3667-7.756-7.074-7.7508-12.691-3.33-28.392 7.7875-36.148 13.241-7.7511 28.581-4.2058 36.331 8.8472 0.70804 0.70746 0.70804 1.5831 1.5784 3.3505" fill="#f37021"/>
  <path d="m503.66 653.42-13.126 92.04-37.155-86.261c-1.5681-3.3507-2.276-6.8802-2.276-10.053 0-13.934 12.182-26.619 26.645-26.609 13.75 3e-3 25.911 12.717 25.911 26.651v4.2316" fill="#ed1c24"/>
  <path d="m421.76 717.03 70.691 47.486-83.602-0.0604c-3.5187 0-6.8645-1.0644-11.275-2.648-12.691-5.134-17.972-20.651-12.67-33.71 5.8263-13.744 20.468-18.847 33.337-13.729 1.9401 0.88635 2.6377 1.5996 3.5188 2.6644" fill="#fdb913"/>
  <g fill="#2a3996">
   <path d="m238.91 542.81c34.354-0.19144 67.209 12.937 89.103 36.358 1.7201 2.1551 4.2897 4.7196 5.5798 6.2404 25.319 29.005 35.366 78.62 17.521 118.56-16.136 36.279-50.511 66.952-77.812 97.866l95.139 0.077-0.0629 78.379-341.04-0.25032 0.18404-231.29 83.392-89.077-0.24645 312.05c53.962-63.963 113.06-125.12 165.08-189.08 8.6004-11.584 9.6964-29.839 2.3966-42.304-5.9993-9.8797-15.014-17.4-26.829-19.77-12.675-2.5958-26.855 1.4834-35.225 9.4131-8.8206 7.9393-12.476 18.47-13.137 30.065 0.43527 4.2946 0.65027 9.0302 1.4998 12.885l-79.024 0.15201c-2.5696-16.54 0.0175-34.784 5.6217-51.964 12.481-34.784 40.847-62.247 76.931-73.182 10.74-2.9942 20.83-4.4942 30.93-5.1234" fill-rule="evenodd"/>
   <path d="m308.99 514.34h-299.99l0.025162 59.369-19.199 10.457-15.69-16.493-23.677 13.362 5.7528 89.785 31.187 42.498-6.0098 11.039-17.657 9.6861-0.01738 38.586-20.966 36.248 13.346 32.587-15.517 8.9145-8.9465 26.751 267.15 99.67-240.56-112.06 0.97016-5.4337 21.527-10.462-17.411-38.392 18.045-32.571 0.01738-34.323 17.075-11.815 8.1546-22.297-34.092-45.991-5.9521-69.805 6.015-4.6513 17.248 16.687 39.189-21.485 0.01738-54.392 256.99 0.0182 22.953-15.496" fill-rule="evenodd"/>
   <path d="m383.21 880.2v-91.074h12.806v40.956l37.181-40.956h16.052l-38.728 42.718 46.159 48.356h-17.772l-42.892-45.036v45.036h-12.806"/>
   <path d="m482.09 829.36h13.865c6.2299 0 10.735-1.1435 13.514-3.382 2.7952-2.2607 4.2005-5.8793 4.2005-10.871 0-4.9822-1.4053-8.6063-4.2005-10.887-2.7792-2.2757-7.2843-3.4139-13.514-3.4139h-13.865zm-12.586 50.842v-91.074h27.794c9.282 0 16.535 2.3072 21.753 6.9113 5.2073 4.5993 7.819 10.981 7.819 19.141 0 8.1133-2.6117 14.453-7.819 19.005-5.2179 4.5628-12.471 6.8437-21.753 6.8437h-15.208v39.174h-12.586"/>
   <path d="m541.28 880.2v-91.074h11.081l58.672 70.706v-70.706h12.596v91.074h-11.333l-58.419-70.764v70.764h-12.597"/>
   <path d="m635.68 880.2 40.867-48.23-35.304-42.844h15.722l27.537 33.337 27.993-33.337h15.774l-36.011 42.844 39.379 48.23h-15.523l-31.937-38.927-32.917 38.927h-15.58"/>
  </g>
 </g>
</svg>
