<svg width="800" height="121.85" version="1.1" viewBox="0 0 800 121.85" xml:space="preserve" xmlns="http://www.w3.org/2000/svg"><g transform="matrix(1.3333 0 0 -1.3333 0 1572.4)"><path d="m143.59 1138.8c0 22.299-18.156 40.445-40.461 40.445-22.299 0-40.445-18.146-40.445-40.445 0-22.321 18.146-40.472 40.445-40.472 7.0444 0 13.675 1.8001 19.435 4.9865l12.488-15.459 7.8128 6.2976-12.16 15.056c7.9203 7.3884 12.885 17.92 12.885 29.591m-70.788 0c0 16.711 13.611 30.316 30.327 30.316 16.727 0 30.322-13.605 30.322-30.316 0-16.716-13.595-30.327-30.322-30.327-16.716 0-30.327 13.611-30.327 30.327" fill="#00aeef"/><g fill="#fff"><path d="m21.703 1137.9-11.187-11.3v-27.506h-10.516v78.945h10.516v-38.575l37.457 38.575h12.982l-31.987-32.643 33.331-46.302h-12.756z"/><path d="m171.74 1134.9v-26.356h45.598v-9.5699h-56.173v79.257h54.819v-9.6935h-44.244l-0.0107-23.922h38.387v-9.715z"/><path d="m306.45 1138.5c0 18.602-12.81 39.386-41.923 39.386h-30.596v-78.762h30.719c25.985 0 41.799 19.167 41.799 39.376m-61.578 29.661h17.705c22.391 0 32.578-13.6 32.578-29.661 0-9.8386-5.9751-29.645-31.987-29.645h-18.296z"/><path d="m341.66 1178.1h4.9435l20.435-73.287h0.22568l20.763 73.287h6.045l21.096-73.287h0.21493l20.107 73.287h5.1638l-22.52-78.451h-5.4969l-21.531 74.276h-0.2203l-21.203-74.276h-5.3894z"/><path d="m467.49 1157.5c16.593 0 25.932-13.514 25.932-29.553 0-16.045-9.3388-29.559-25.932-29.559-16.587 0-25.932 13.514-25.932 29.559 0 16.039 9.3442 29.553 25.932 29.553m0-55.485c14.175 0 21.757 12.418 21.757 25.932s-7.5818 25.926-21.757 25.926-21.751-12.412-21.751-25.926 7.5764-25.932 21.751-25.932"/><path d="m507.37 1143.6h0.32777c2.2031 7.3614 11.429 13.294 21.644 12.858v-4.1751c-4.3954 0.5481-10.542-0.5535-15.599-5.4969-4.1751-4.2826-5.9322-7.8021-6.3728-16.26v-30.875h-4.1751v56.474h4.1751z"/><path d="m534.74 1099.7h4.1751v78.451h-4.1751z"/><path d="m595.82 1111.8h-0.22031c-4.6157-8.8982-11.537-13.401-21.644-13.401-17.028 0-24.39 13.842-24.39 29.446 0 16.695 8.1298 29.661 25.158 29.661 9.2314 0 17.909-5.0509 20.875-13.955h0.22031v34.615h4.1751v-78.451h-4.1751zm-0.11284 16.045c0 13.181-6.4802 26.034-20.983 26.034-14.943 0-20.983-12.412-20.983-26.034 0-13.299 6.5931-25.824 21.096-25.824 14.282 0 20.87 12.858 20.87 25.824"/></g></g></svg>
