<svg width="1e3" height="1440" version="1.1" xmlns="http://www.w3.org/2000/svg">
 <link href="" rel="stylesheet" type="text/css"/>
 <style type="text/css"/>
 <defs>
  <radialGradient id="radialGradient4374" cx="52.254" cy="-206.44" r="61.809" gradientTransform="matrix(-.89214 .88386 -.87803 -.88626 -72.461 -173.64)" gradientUnits="userSpaceOnUse">
   <stop stop-color="#fff" stop-opacity="0" offset="0"/>
   <stop stop-color="#fff" stop-opacity="0" offset=".37265"/>
   <stop stop-color="#fff" stop-opacity=".3431" offset=".65038"/>
   <stop stop-color="#fff" offset="1"/>
  </radialGradient>
 </defs>
 <g transform="scale(8)">
  <path d="m1 1h123v178h-123z" fill="#be1321"/>
  <path d="m1 55h123v98h-123z" fill="#1358a0"/>
  <path d="m6.25 54.031-5.1875 71.938 0.1875 27.969 22.844-99.906zm37.656 0-40.812 98.781 0.59375-0.0312 59.281-92.406 59.312 92.406 0.59375 0.0312-40.812-98.781zm57.719 0 22.844 99.906 0.1875-27.969-5.1875-71.938z" fill="url(#radialGradient4374)"/>
  <path d="m61.086 6c-11.063 0-20.029 8.7319-20.029 19.501 0 10.769 8.9663 19.499 20.029 19.499 11.058 0 20.027-8.7296 20.027-19.499 0-10.769-8.964-19.501-20.027-19.501zm-45.085 0.0623v38.774h11.462l-0.0305-12.535h11.255v-10.579h-11.162v-5.0587h13.702l-0.75663-10.602h-24.47zm59.709 0.06 11.342 18.666-12.011 19.99 12.316 0.0207 5.8707-9.7944 5.9444 9.7736h12.659l-12.233-20.117 11.118-18.539h-12.249l-5.0863 8.3481-4.9942-8.3481h-12.678zm-14.566 7.8983c1.8757 0 3.5178 1.6344 3.5178 3.4647l0.0488 16.016c0 1.8304-1.6898 3.2664-3.5708 3.2664-1.8757 0-3.3956-1.4872-3.3956-3.3125v-15.97c0-1.8304 1.5145-3.4647 3.3956-3.4647z" fill="#fff"/>
  <path d="m0 53v102h125v-102zm2 3h121v96h-121z" fill="#0e4176"/>
  <path d="m0 0v54h125v-54zm2 2h121v50h-121z" fill="#94050f"/>
  <path d="m0 154v26h125v-26zm2 2h121v22h-121z" fill="#94050f"/>
 </g>
 <g transform="translate(0 -13.733)" stroke-width="16">
  <g transform="translate(1331.8 11.098)" stroke="#000">
   <path d="m-1029 1026h171.67v131.45h-442.41l286.73-367.5s27.779-32.649 27.779-73.253c0-37.517-36.167-73.901-87.915-73.901-90.562 0-78.347 102.08-78.347 102.08l-139.41 0.34682s15.483-134.03 87.305-199.89c34.373-31.518 85.804-46.078 132.43-45.124 54.336 1.1122 112.46 21.625 152.05 58.857 38.796 36.486 61.047 92.226 66.705 145.18 4.3409 40.626-9.5162 82.51-26.486 119.68-34.849 76.326-150.09 202.08-150.09 202.08z"/>
   <path d="m-624.62 507.41-126.78 215.5s-33.953 55.345-48.062 82.406c-23.385 44.851-45.65 94.628-44.156 145.19 1.5036 50.878 17.887 106.34 52.969 143.22 44.122 46.383 112.6 73 176.56 75.531 61.373 2.4287 127.66-19.257 174.62-58.844 42.62-35.927 73.98-91.685 79.469-147.16 5.0961-51.507-17.605-105.89-52.969-141.25-78.994-78.994-181-78-181-78l129.94-236.59zm22.531 360.34c56.697 0 102.66 40.203 102.66 89.812 0 49.61-45.959 89.844-102.66 89.844-56.697 0-102.66-40.234-102.66-89.844s45.959-89.812 102.66-89.812z"/>
  </g>
  <g transform="translate(1331.8 11.098)" fill="#fff" stroke="#85a7c3">
   <path d="m-1029 1014.3h171.67v131.45h-442.41l286.73-367.5s27.779-32.649 27.779-73.253c0-37.517-36.167-73.901-87.915-73.901-90.562 0-78.347 102.08-78.347 102.08l-139.41 0.34682s15.483-134.03 87.305-199.89c34.373-31.518 85.804-46.078 132.43-45.124 54.336 1.1122 112.46 21.625 152.05 58.857 38.796 36.486 61.047 92.226 66.705 145.18 4.3409 40.626-9.5162 82.51-26.486 119.68-34.849 76.326-150.09 202.08-150.09 202.08z"/>
   <path d="m-624.62 495.63-126.78 215.5s-33.953 55.345-48.062 82.406c-23.385 44.851-45.65 94.628-44.156 145.19 1.5036 50.878 17.887 106.34 52.969 143.22 44.122 46.383 112.6 73 176.56 75.531 61.373 2.4287 127.66-19.257 174.62-58.844 42.62-35.927 73.98-91.685 79.469-147.16 5.0961-51.507-17.605-105.89-52.969-141.25-78.994-78.994-181-78-181-78l129.94-236.59zm22.531 360.34c56.697 0 102.66 40.203 102.66 89.812 0 49.61-45.959 89.844-102.66 89.844-56.697 0-102.66-40.234-102.66-89.844s45.959-89.812 102.66-89.812z"/>
  </g>
 </g>
 <g transform="matrix(1.9448 0 0 1.83 -163.77 1228.6)" fill="#fff">
  <g fill="#fff" font-family="'Helvetica Black'" font-size="90px" font-weight="bold">
   <path d="m129.15 91.191h21.24v-20.52l5.0399-5.3099 15.57 25.83h25.47l-26.19-40.409 23.67-24.39h-24.93l-18.63 20.97v-20.97h-21.24z"/>
   <path d="m283.37 41.512h10.471c2.6674-0.0056 4.8291 0.54567 6.4852 1.6537 1.6559 1.1082 2.5087 2.8069 2.5583 5.0962-0.01 2.2238-0.91827 3.8062-2.7249 4.7474-1.8068 0.94128-4.4524 1.3988-7.9369 1.3725h-8.8531zm6.854 27.09c5.081-0.05998 8.389 0.75751 9.924 2.4525 1.535 1.695 2.2251 4.6275 2.0705 8.7974 0.0118 2.9025 0.13085 5.3324 0.35699 7.2899 0.22603 1.9575 0.48782 3.3075 0.78535 4.0499h22.752v-1.98c-1.2654 0.05625-1.9952-0.77624-2.1895-2.4975-0.19443-1.7212-0.25788-4.6687-0.19039-8.8424-0.0318-6.268-1.0631-10.449-3.0938-12.544-2.0309-2.0943-4.8709-3.643-8.5199-4.6462 3.9783-1.0987 6.8976-3.0637 8.7579-5.8949 1.8602-2.8312 2.7804-6.1461 2.7606-9.9449 0.16257-6.2811-2.0428-10.931-6.616-13.95-4.5734-3.0186-12.49-4.5186-23.751-4.4999h-32.366v64.799h22.466v-22.59z"/>
   <path d="m418.15 91.191v-64.799h-18.935v64.799z"/>
   <path d="m513.84 91.191h22.561l23.799-64.799h-22.656l-12.47 43.109-11.995-43.109h-22.656z"/>
  </g>
 </g>
</svg>
