<svg width="800" height="278.28" version="1.1" xmlns="http://www.w3.org/2000/svg">
 <link href="" rel="stylesheet" type="text/css"/>
 <style type="text/css"/>
 <g fill="#fff">
  <path d="m33.776 155v57.42h-33.776v-127.51h33.354v51.509l44.331-51.509h39.265l-54.042 60.375 56.575 67.975h-42.643z"/>
  <path d="m120.28 84.983v128.44h33.39v-47.527h12.096l25.624 47.24h38.902l-30.849-52.68c23.683-3.4187 46.906-66.847-21.294-75.191zm33.426 25.159h19.684c16.869 0.27023 23.498 26.391 0 30.993h-19.684z"/>
  <path d="m289.31 82.335c-42.346 0-64.455 29.904-64.455 66.781 0 36.876 22.415 66.781 64.455 66.781 42.346 0 64.49-29.904 64.49-66.781s-23.982-66.781-64.49-66.781zm0 26.34c18.57 0 29.561 18.112 29.561 40.441s-10.148 40.441-29.561 40.441c-19.272 0-29.561-18.112-29.561-40.441s10.148-40.441 29.561-40.441z" fill-rule="evenodd"/>
  <path d="m392.39 134.1v79.329h-33.079v-128.33h35.223l47.781 80.554v-80.554h31.854v128.03h-32.467z"/>
 </g>
 <path d="m800 139.14c0 76.846-61.84 139.14-138.12 139.14-76.283 0-138.12-62.296-138.12-139.14 0-76.846 61.84-139.14 138.12-139.14 76.283 0 138.12 62.296 138.12 139.14z" fill="#c01827" fill-rule="evenodd"/>
 <path d="m663.5 165.79v45.456h-112.92v-45.995c44.845-33.736 88.856-74.014 124.79-145.84h48.304v145.81h20.559v46.319h-20.844v40.908h-49.098v-143.72c-14.5 21.117-29.38 41.686-47.907 57z" fill="#fff"/>
</svg>
