<svg width="555.3" height="800" version="1.1" xmlns="http://www.w3.org/2000/svg">
 <defs>
  <radialGradient id="radialGradient4172" cx="141.51" cy="106.04" r="136.05" gradientTransform="matrix(-.98904 .98902 -.96765 -.96765 387.76 81.97)" gradientUnits="userSpaceOnUse">
   <stop stop-color="navy" offset="0"/>
   <stop stop-color="#fff" offset="1"/>
  </radialGradient>
 </defs>
 <g transform="scale(.6287)">
  <path d="m0.04752 0v370.58h883.15v-370.58z" fill="#f20018" fill-rule="evenodd"/>
  <path d="m0.04752 1087.2v185.29h883.15v-185.29z" fill="#f20018" fill-rule="evenodd"/>
  <path d="m0 370.58h883.24v716.62h-883.24z" fill="#0c2577" fill-rule="evenodd"/>
  <g transform="matrix(.9525 0 0 .93517 1490 -447.19)" fill="#fff">
   <g transform="matrix(8.8756 0 0 8.8882 378.68 -6388.6)" fill="#fff">
    <g fill="#fff">
     <path d="m-167.84 778.49c-9.2878 0-16.834 7.561-16.834 16.875s7.5458 16.844 16.834 16.844c9.2834 0 16.802-7.5297 16.802-16.844s-7.5144-16.875-16.802-16.875zm0.0313 6.9375c1.5747 0 2.9467 1.417 2.9467 3l0.0627 13.844c0 1.583-1.4302 2.8125-3.0094 2.8125-1.5747 0-2.8526-1.2651-2.8526-2.8438v-13.812c0-1.583 1.2734-3 2.8526-3z"/>
     <path d="m-205.21 778.54v33.535h9.593l-0.0255-10.841h9.4192v-9.1492h-9.342v-4.3751h11.468l-0.63324-9.1692h-20.479z"/>
     <path d="m-155.66 778.59 9.4926 16.144-10.052 17.289 10.307 0.0179 4.9134-8.4709 4.975 8.453h10.595l-10.238-17.399 9.3053-16.034h-10.251l-4.2568 7.22-4.1798-7.22h-10.61z"/>
    </g>
   </g>
  </g>
  <g transform="matrix(3.1207 0 0 3.1207 -3.7558 -3.1207)" fill="url(#radialGradient4172)">
   <path d="m7.0918 341.92-0.28367-87.371 9.64-129.38h40.619z"/>
   <path d="m278.62 341.92 0.28367-87.371-9.64-129.38h-40.619z"/>
   <path d="m9.7867 346.6 91.768-220.84h83.258l92.384 222.12-133.94-208.93z"/>
  </g>
  <g transform="matrix(3.1207 0 0 3.1207 -3.7558 -3.1207)">
   <g transform="matrix(1.9465 0 0 2.6202 -503.54 79.421)" fill="#00074c" stroke="#fff" stroke-width=".28379">
    <g fill="#00074c" stroke="#fff" stroke-width=".28379">
     <path d="m304.71 26.842h-17.135c-0.99601 3.6169-1.7355 6.0317-4.6834 8.2504-2.9272 2.1215-7.5975 2.7771-11.572 3.4062v11.914h11.464v41.645h21.926z" fill="#fff" stroke="#00074c" stroke-width="1.4189"/>
    </g>
   </g>
   <path d="m178.69 147.44c-40.851 0-73.969 39.468-73.969 88.156s33.118 88.156 73.969 88.156 73.969-39.468 73.969-88.156-33.118-88.156-73.969-88.156zm-0.875 36.219c8.6122 0 15.562 7.0535 15.562 15.812v73.25c0 8.759-6.9503 15.812-15.562 15.812-8.6122 0-15.531-7.0535-15.531-15.812v-73.25c0-8.759 6.919-15.812 15.531-15.812z" fill="#fff" fill-rule="evenodd" stroke="#00074c" stroke-width="3.2044"/>
  </g>
  <g transform="matrix(1.5599 0 0 1.6892 -59.014 1078.5)" fill="#fff">
   <g fill="#fff">
    <path d="m88.92 55.912v-14.4h6.0299c2.4412-0.09182 4.8936 0.29442 7.3574 1.1587 2.4637 0.86441 3.7912 2.7581 3.9824 5.6812-0.0469 2.7563-0.85316 4.7137-2.4187 5.8724-1.5656 1.1588-3.6094 1.7213-6.1312 1.6875zm0 35.28v-20.16h10.71c9.2717-0.07685 16.085-2.1281 20.441-6.1537 4.3555-4.0255 6.5117-9.5642 6.4687-16.616 0.0131-6.7386-2.2632-12.049-6.8287-15.93-4.5656-3.8811-11.499-5.8611-20.801-5.9399h-31.23v64.799z"/>
    <path d="m163.77 91.191v-25.11h21.344v25.11h22.589v-64.799h-22.589v21.87h-21.344v-21.87h-22.589v64.799z"/>
    <path d="m259.01 40.522c4.9446 0.07693 8.497 1.9256 10.657 5.5462 2.1602 3.6206 3.2164 7.7418 3.1684 12.364 0.0439 5.4618-1.0042 9.9055-3.1444 13.331-2.1403 3.4256-5.6368 5.1918-10.489 5.2987-5.3107-0.25873-8.9232-2.3287-10.837-6.2099-1.9143-3.8812-2.8144-8.0211-2.7003-12.42-0.0861-4.3293 0.85408-8.338 2.8204-12.026 1.9662-3.688 5.4747-5.6492 10.525-5.8837zm0.19203-15.84c-10.917 0.12757-19.639 3.18-26.163 9.1574-6.5248 5.9775-9.8693 14.115-10.033 24.412 0.15201 11.091 3.4724 19.622 9.9613 25.593 6.4888 5.9718 15.234 8.9905 26.235 9.0561 10.459-0.05813 19.064-3.0468 25.815-8.9661 6.7508-5.9193 10.243-14.42 10.477-25.503 9e-3 -5.7999-1.2998-11.25-3.9258-16.35-2.6262-5.0999-6.6231-9.2498-11.991-12.45-5.3679-3.1999-12.16-4.8499-20.376-4.9499z"/>
    <path d="m372.34 91.191v-15.12h-36.986v-10.17h30.095v-15.12h-30.095v-9.2699h35.567v-15.12h-59.481v64.799z"/>
    <path d="m406.62 26.392h-21.694v64.799h22.185v-20.52l-0.88348-14.76 25.228 35.28h21.694v-64.799h-22.185v20.61l0.88348 14.76z"/>
    <path d="m493.03 91.191v-64.799h-21.807v64.799z"/>
    <path d="m543.45 73.012 11.662 18.18h26.641l-24.63-33.66 24.429-31.14h-26.641l-10.355 16.56-10.254-16.56h-26.641l23.122 31.14-25.636 33.66h26.641z"/>
   </g>
  </g>
 </g>
</svg>
