<svg width="600pt" height="490.49pt" version="1.1" viewBox="0 0 600 490.49" xmlns="http://www.w3.org/2000/svg">
 <path d="m6.2938 78.551c-2.3848-0.0693-4.3974 0.95947-5.7365 3.6332-2.0576 5.2966 1.9082 8.9796 6.5654 11.069 27.617 15.682 151.01 60.886 292.88 60.886s265.26-45.204 292.88-60.886c4.6572-2.0896 8.623-5.7727 6.5654-11.069-2.3806-4.7534-6.8894-4.3057-11.835-1.7369-25.833 10.572-145.56 59.867-287.61 59.867s-261.78-49.295-287.61-59.867c-2.1637-1.1238-4.2436-1.8424-6.0985-1.8964z" fill="#fdc424" style="paint-order:stroke markers fill"/>
 <g transform="matrix(.98074 0 0 .98074 -412.16 -51.582)" fill="#bf2e1b">
  <path d="m751.63 72.5c4.45-8.79 11.83-19.905 21.56-19.905h14.13l59.36 116.38h-32.486c-4.6025 0-9.3303-1.161-11.734-4.2702l-6.0934-8.3054c-4.5507-6.2316-9.2262-6.1529-15.387-6.1146h-36.04c-6.934 0-10.033 1.98-11.68 5.98l-6.05 12.71h-12.472c-11.554 0-7.832-8.2567-3.7481-15.99zm9.64 27.595-14.29 28.675h27.06c4.3812 0 6.9531-2.6437 5.31-6.24l-11.19-22.435c-0.61196-1.15-1.3931-2.805-3.445-2.805-1.8546 0-2.8411 1.491-3.445 2.805z"/>
  <path d="m627.98 52.595 17.54-1e-6v87.031c0 7.7871 2.1649 8.0989 8.47 8.0989h50.19l-6.59 13.125c-3.4042 6.2078-7.0154 8.1202-16.53 8.1202l-64.527-2.5e-4c-6.9902 0-10.088 0.089-10.088-7.96v-87.03c0-12.561 9.6625-21.385 21.535-21.385z"/>
  <path d="m765.01 229.13c13.523 0.27522 26.983 3.4997 39.039 9.6942 20.002 10.74 32.449 25.479 32.449 45.084 0 14.403-3.4348 23.496-10.659 33.481 16.157 12.488 28.833 27.996 28.766 47.669 0 28.432-24.313 46.938-47.326 56.117-14.026 5.3301-29.041 8.0143-44.053 8.0308-18.391 0.0202-36.78-3.9634-53.347-11.991-24.296-13.207-38.318-30.39-38.318-53.756 0-22.865 14.324-34.612 28.848-45.798-6.7235-8.9112-10.772-20.685-10.77-30.646 0-39.437 38.785-57.884 75.371-57.884zm-12.071 60.824c14.21 7.91 30.69 9.73 45.81 15.25 2.85 1.04 5.66 2.1519 8.72 3.4743 6.6128-12.259 4.548-26.475-3.79-37.384-5.69-7.35-14.51-11.71-23.49-13.51-14.996-2.6331-30.807-0.0724-35.213 11.091-4.4928 11.602 1.2225 16.918 7.9631 21.079zm-47.86 73.04c0 20.984 16.6 31.778 34.02 37.49 13.9 4.07 29.76 5.54 42.96-1.54 6.7372-4.419 11.369-11.577 11.8-19.312 0.66619-7.9511-5.2041-14.221-11.61-17.868-16.674-9.0263-34.628-13.308-50.351-21.105-3.4195-1.6907-5.087-2.8154-8.0964-4.9289-9.9048 7.0288-18.723 17.795-18.723 27.263z"/>
  <path d="m602.28 249.33c12.071-11.278 25.204-15.46 41.006-15.46h15.794c13.254 0 19.75 5.1502 19.75 18.12v67.97c-9.1896 11.835-17.954 26.148-17.66 45.03-0.36525 17.977 7.3202 30.54 17.66 42.02v16.8h-30.86c-22.583 0-30.422-20.643-30.42-39.78v-100.04c0-10.346-2.8338-15.301-13.61-15.27h-20.53z"/>
 </g>
 <g transform="matrix(2.0416 0 0 2.0416 -1315.3 -1126.9)" fill="#636260" aria-label="KSCI-TV">
  <path d="m715.27 791.68v-28.633h5.7812v12.715l11.68-12.715h7.7734l-10.781 11.152 11.367 17.48h-7.4805l-7.8711-13.438-4.6875 4.7852v8.6523z"/>
  <path d="m742.64 782.37 5.625-0.54687q0.50781 2.832 2.0508 4.1602 1.5625 1.3281 4.1992 1.3281 2.793 0 4.1992-1.1719 1.4258-1.1914 1.4258-2.7734 0-1.0156-0.60547-1.7188-0.58594-0.72266-2.0703-1.25-1.0156-0.35157-4.6289-1.25-4.6484-1.1524-6.5234-2.832-2.6367-2.3633-2.6367-5.7617 0-2.1875 1.2305-4.082 1.25-1.9141 3.5742-2.9102 2.3438-0.99609 5.6445-0.99609 5.3906 0 8.1055 2.3633 2.7344 2.3633 2.8711 6.3086l-5.7812 0.25391q-0.3711-2.207-1.6016-3.1641-1.2109-0.97656-3.6523-0.97656-2.5195 0-3.9453 1.0352-0.91797 0.66406-0.91797 1.7773 0 1.0156 0.85937 1.7383 1.0938 0.91797 5.3125 1.9141 4.2188 0.99609 6.2305 2.0703 2.0312 1.0547 3.1641 2.9102 1.1524 1.8359 1.1524 4.5508 0 2.4609-1.3672 4.6094t-3.8672 3.2031q-2.5 1.0352-6.2305 1.0352-5.4297 0-8.3398-2.5-2.9102-2.5195-3.4766-7.3242z"/>
  <path d="m789.14 781.16 5.6055 1.7773q-1.2891 4.6875-4.2969 6.9727-2.9883 2.2656-7.5977 2.2656-5.7031 0-9.375-3.8867-3.6719-3.9062-3.6719-10.664 0-7.1484 3.6914-11.094 3.6914-3.9648 9.707-3.9648 5.2539 0 8.5352 3.1055 1.9531 1.8359 2.9297 5.2734l-5.7227 1.3672q-0.50781-2.2266-2.1289-3.5156-1.6016-1.2891-3.9062-1.2891-3.1836 0-5.1758 2.2852-1.9726 2.2852-1.9726 7.4023 0 5.4297 1.9531 7.7344t5.0781 2.3047q2.3047 0 3.9648-1.4648 1.6602-1.4648 2.3828-4.6094z"/>
  <path d="m799.55 791.68v-28.633h5.7812v28.633z"/>
  <path d="m810.16 784.05v-5.4883h10.781v5.4883z"/>
  <path d="m830.62 791.68v-23.789h-8.4961v-4.8438h22.754v4.8438h-8.4766v23.789z"/>
  <path d="m855.94 791.68-10.234-28.633h6.2695l7.2461 21.191 7.0117-21.191h6.1328l-10.254 28.633z"/>
 </g>
</svg>
