<svg width="800" height="494.74" version="1.1" viewBox="0 0 800 494.74" xml:space="preserve" xmlns="http://www.w3.org/2000/svg">
<g transform="matrix(5.848 0 0 5.848 -52.632 -1.7544)" fill="#155caa">
		<path class="st0" d="m95.5 70.2h39.1l2.2-13.8h-6.5l6.9-42.9h6.5l2.1-13.2h-39.1l-1.5 8.4h9c1.3 0 2.4 0.5 3.2 1.4s1.1 2.1 0.9 3.4l-7.3 45.1c-0.4 2.3-2.5 4.1-5.1 4.1h-9.4z"/>
		<path class="st0" d="m54 70.2h36l1.2-7.7h-13.9c-1.3 0-2.4-0.5-3.2-1.4s-1.1-2.1-0.9-3.4l7.2-44.8c0.4-2.4 2.5-4.2 5-4.2h14.2l1.6-8.3h-36l-2.5 15.5h4.6l-2 12.5h-18.1l2-12.5h4.6l2.5-15.5h-36.2l-2.5 15.5h5.5l-6.2 38.9h-5.4l-2.5 15.4h36l2.5-15.5h-4.6l2.1-13.3h18.2l-2.1 13.3h-4.6z"/>
		<path class="st0" d="m89.1 40.1c-1.3 1.4-2.1 3.1-2.4 5.1-0.3 2.1 0.2 3.8 1.6 4.9 1.3 1.1 2.8 1.7 4.5 1.7 1.9 0 3.7-0.5 5.2-1.4s2.7-1.9 3.6-3.1l-7.2-11.2c-2.7 1.8-4.5 3.1-5.3 4"/>
		<path class="st0" d="m96.9 29.9c1.7-1.2 3-2.2 3.7-2.9 1.2-1.2 1.9-2.6 2.1-4.1 0.2-1.2-0.1-2.2-0.7-3s-1.5-1.2-2.8-1.2c-1.9 0-3.3 0.7-4.2 2-0.5 0.7-0.8 1.4-0.9 2.3-0.1 1.1 0 2.2 0.5 3.2 0.4 0.8 1.2 2.1 2.3 3.7"/>
		<path class="st0" d="m114.4 13.2c-0.7-0.8-1.7-1.2-2.8-1.2l-24.2-0.1c-2.2 0-4.2 1.7-4.6 3.9l-6.6 39.2c-0.2 1.1-0.1 2.5 0.6 3.3s1.9 1 3 1h24.1c1.3 0 2.6-0.5 3.5-1.5l-4.4-6.9c-1.5 1.5-2.9 2.7-4.2 3.4-2.2 1.3-4.7 2-7.3 2-3.9 0-6.7-1.2-8.2-3.4-1.5-2.3-2.1-4.8-1.7-7.7 0.4-3 1.6-5.6 3.6-7.6 1.2-1.2 3.3-2.7 6.4-4.5-1.3-1.9-2.1-3.5-2.5-4.8s-0.5-2.6-0.3-3.9c0.3-2.6 1.5-4.8 3.3-6.5 1.9-1.7 4.2-2.6 7-2.6 2.7 0 4.7 0.8 5.9 2.4 1.3 1.6 1.8 3.5 1.5 5.8-0.3 2.6-1.4 4.8-3.2 6.8-1 1.1-2.6 2.4-4.8 3.8l5.4 8.2c0.6-1.3 1-2.3 1.2-2.9 0.3-0.7 0.6-1.7 0.9-3v-0.1h4.8l-0.1 0.2c-0.6 2.5-1.5 5-2.7 7.3-1 1.9-1.4 2.6-1.5 2.8l2.7 4.1 5.8-34.4c0.4-1.3 0.1-2.3-0.6-3.1"/>
		<path class="st0" d="m47.7 81.8c-0.3 1.8-2 3-4.4 3h-5.4l1.5-10.9h5.2c2.3 0 3.5 1.1 3.3 2.8-0.2 1.1-0.9 2.1-2 2.4 1.5 0.3 2 1.4 1.8 2.7zm-4.3 1.2c1.4 0 2.3-0.7 2.4-1.5 0.1-0.9-0.6-1.4-1.9-1.4h-3.4l-0.4 2.9zm-2.6-4.6h2.9c1.4 0 2.2-0.6 2.3-1.5s-0.5-1.4-1.9-1.4h-3z"/>
		<path class="st0" d="m51.2 82.3-1.4 2.4h-2.1l6.4-11h1.8l3.3 11h-2.1l-0.7-2.4zm3.5-6.2-2.5 4.4h3.8z"/>
		<path class="st0" d="m64.4 81.1-0.5 3.7h-2l0.5-3.7-3.4-7.3h2.2l2.5 5.3 4-5.3h2.2z"/>
		<path class="st0" d="m76.2 82.3-1.4 2.4h-2.1l6.4-11h1.8l3.3 11h-2.1l-0.7-2.4zm3.5-6.2-2.5 4.4h3.8z"/>
		<path class="st0" d="m88 81.2-0.5 3.6h-1.9l1.5-10.9h4.5c2.5 0 4.1 1.4 3.8 3.7-0.2 1.7-1.4 2.9-3 3.4l2.7 3.9h-2.4l-2.5-3.6h-2.2zm2.8-1.8c1.4 0 2.5-0.7 2.7-1.9s-0.8-1.9-2.2-1.9h-2.5l-0.5 3.8z"/>
		<path class="st0" d="m99.1 78.5h5.4l-0.3 1.8h-5.4l-0.3 2.7h6.1l-0.3 1.8h-8l1.5-10.9h8l-0.3 1.8h-6.1z"/>
		<path class="st0" d="m108.7 82.3-1.4 2.4h-2.1l6.4-11h1.8l3.3 11h-2.1l-0.7-2.4zm3.5-6.2-2.5 4.4h3.8z"/>
</g>
</svg>
