<svg width="517.68" height="800" version="1.1" xmlns="http://www.w3.org/2000/svg">
 <link href="" rel="stylesheet" type="text/css"/>
 <style type="text/css"/>
 <defs>
  <radialGradient id="radialGradient3410" cx="63.359" cy="-77.692" r="61.797" gradientTransform="matrix(-3.4628e-5 4.7023 -4.1713 -3.0717e-5 -66.677 -57.53)" gradientUnits="userSpaceOnUse">
   <stop stop-color="#17194d" offset="0"/>
   <stop stop-color="#1e67b6" offset="1"/>
  </radialGradient>
  <linearGradient id="linearGradient3413" x1="189.66" x2="189.66" y1="59.013" y2="158.14" gradientTransform="matrix(4.1131 0 0 4.0443 -525.47 -1.4687e-8)" gradientUnits="userSpaceOnUse">
   <stop stop-color="#14194b" offset="0"/>
   <stop stop-color="#1651af" offset="1"/>
  </linearGradient>
  <radialGradient id="radialGradient3416" cx="222.49" cy="-85.467" r="61.5" gradientTransform="matrix(.016143 2.2732 -4.0576 .028814 -84.358 182.92)" gradientUnits="userSpaceOnUse">
   <stop stop-color="#e21029" offset="0"/>
   <stop stop-color="#94050f" stop-opacity="0" offset="1"/>
  </radialGradient>
  <radialGradient id="radialGradient3419" cx="62.239" cy="-59.214" r="61.5" gradientTransform="matrix(-7.0701e-8 3.6127 -4.9381 -9.664e-8 -40.221 -108.93)" gradientUnits="userSpaceOnUse">
   <stop stop-color="#cc1720" offset="0"/>
   <stop stop-color="#94050f" offset="1"/>
  </radialGradient>
 </defs>
 <g font-family="Helvetica75" font-size="25.05px" font-weight="bold" stroke-width="4.4265">
  <path d="m0 798.74h36.763v-9.7675h-25.333v-43.07h-11.43z"/>
  <path d="m40.436 772.54c0 3.7986 0.58241 7.3755 1.7473 10.731 1.1649 3.3552 2.8514 6.2783 5.0597 8.7693s4.902 4.4396 8.0811 5.8458 6.734 2.1093 10.665 2.1093c3.9307 0 7.4857-0.70311 10.665-2.1093 3.1791-1.4062 5.8846-3.3673 8.1167-5.8831 2.2319-2.5159 3.9181-5.439 5.0586-8.7693 1.1404-3.3303 1.7106-6.8948 1.7106-10.693-5.8e-5 -3.898-0.57026-7.549-1.7106-10.953-1.1405-3.4041-2.8267-6.3765-5.0586-8.9172-2.232-2.5406-4.9376-4.5137-8.1167-5.9192-3.1792-1.4054-6.7341-2.1081-10.665-2.1082-3.9308 5e-5 -7.4858 0.70276-10.665 2.1082-3.1791 1.4055-5.8728 3.3786-8.0811 5.9192-2.2083 2.5407-3.8949 5.5131-5.0597 8.9172-1.1649 3.4042-1.7473 7.0552-1.7473 10.953zm11.43 0c0-2.4179 0.26705-4.7121 0.80089-6.8824 0.53391-2.1702 1.3589-4.094 2.4749-5.7713 1.116-1.6772 2.5841-3.0093 4.4044-3.9962 1.8202-0.98685 3.9678-1.4803 6.4427-1.4804 2.4748 4e-5 4.6224 0.49351 6.4427 1.4804 1.8202 0.98694 3.2883 2.319 4.4043 3.9962 1.1159 1.6773 1.9409 3.601 2.4749 5.7713 0.53388 2.1704 0.80086 4.4645 0.80089 6.8824-3.1e-5 2.3186-0.26705 4.5266-0.80089 6.6238-0.53397 2.0973-1.3589 3.9721-2.4749 5.6245s-2.5842 2.9721-4.4043 3.959c-1.8203 0.98694-3.9678 1.4804-6.4427 1.4804-2.4749 5e-5 -4.6102-0.48103-6.406-1.4431-1.7958-0.96206-3.2639-2.2817-4.4043-3.959-1.1404-1.6772-1.9776-3.5644-2.5115-5.6617-0.53394-2.0972-0.80089-4.3052-0.80089-6.6238z"/>
  <path d="m97.597 781.2c0 3.1573 0.59464 5.9324 1.7839 8.3255 1.1893 2.3931 2.8152 4.3666 4.8776 5.9203 2.0624 1.5538 4.4162 2.7006 7.0614 3.4406 2.6452 0.73998 5.4481 1.11 8.4088 1.11 6.8425 0 12.157-1.5662 15.942-4.6986 3.7856-3.1323 5.6784-7.2151 5.6784-12.248-6e-5 -2.6634-0.53397-4.9447-1.6018-6.844-1.0679-1.8992-2.4024-3.4041-4.0034-4.5145-1.6011-1.1103-3.1299-1.9369-4.5865-2.4797-1.4566-0.54274-3.0581-1.0362-4.8042-1.4804-0.14673 0-0.29254-0.0266-0.43765-0.0744-0.63097-0.19698-1.019-0.29569-1.1641-0.29569-3.6405-0.93643-6.2613-1.6516-7.8623-2.1454-1.6011-0.49382-2.887-0.97485-3.8578-1.4431-0.97087-0.46824-1.6503-1.0106-2.0383-1.6272-0.38807-0.61648-0.58206-1.4434-0.58206-2.4808 0-2.022 0.77645-3.5264 2.3294-4.5134 1.5529-0.98689 3.3972-1.4804 5.5329-1.4804 3.0569 5e-5 5.4955 0.59214 7.3158 1.7762 1.8202 1.1842 2.8029 3.2562 2.9481 6.2162h11.066c-6e-5 -2.96-0.5584-5.5251-1.6751-7.6955-1.1168-2.1702-2.6334-3.9461-4.5498-5.3275-1.9166-1.3813-4.1248-2.3927-6.6249-3.0341-2.5001-0.64136-5.1571-0.96202-7.9711-0.96211-2.426 9e-5 -4.7917 0.33288-7.097 0.99823-2.3053 0.66552-4.3925 1.6645-6.2616 2.9969-1.8691 1.3325-3.3495 3.0101-4.441 5.0328-1.0916 2.0228-1.6373 4.341-1.6373 6.9547 0 2.3683 0.42468 4.4035 1.2741 6.1055 0.8494 1.7021 1.9898 3.1083 3.4213 4.2186 1.4315 1.1104 3.0206 2.0108 4.7676 2.701 1.7469 0.69036 3.7608 1.3562 6.0417 1.9976 0.82644 0.19742 1.9432 0.49386 3.3502 0.88977 2.1357 0.49236 3.8345 0.93617 5.0964 1.3313 1.2619 0.39529 2.4264 0.87628 3.4935 1.4431 1.0671 0.56686 1.9161 1.2575 2.5471 2.072 0.63092 0.81453 0.94638 1.8135 0.94643 2.9968-5e-5 1.2828-0.31552 2.3559-0.94643 3.2193-0.63097 0.86348-1.4681 1.5418-2.5115 2.0348-1.0435 0.49307-2.1354 0.83825-3.2758 1.0354-1.1404 0.19742-2.2683 0.29569-3.3835 0.29569-3.3487 0-6.1031-0.80173-8.2633-2.4052-2.1602-1.6034-3.2402-4.0575-3.2402-7.3623z"/>
  <path d="m168.57 798.74h11.575l4.0766-11.766h19.437l3.93 11.766h11.866l-19.437-52.837h-11.719zm25.406-39.813h0.14444l6.5515 19.388h-13.467z"/>
  <path d="m226.13 798.74h10.702v-35.373h0.14444l21.623 35.373h11.428v-52.837h-10.701v35.448h-0.14444l-21.694-35.448h-11.357z"/>
  <path d="m318.75 798.74h7.278v-28.564h-21.838v8.6564h11.501c-0.33921 3.7008-1.5644 6.5256-3.6756 8.4746-2.1113 1.949-5.0109 2.9235-8.6987 2.9234-2.4749 5e-5 -4.6102-0.48103-6.406-1.4431-1.7958-0.96206-3.264-2.2817-4.4044-3.959-1.1404-1.6772-1.9776-3.5644-2.5115-5.6617-0.53397-2.0972-0.80092-4.3052-0.80089-6.6238-3e-5 -2.4179 0.26678-4.7121 0.80089-6.8824 0.53391-2.1702 1.3589-4.094 2.4749-5.7713 1.116-1.6772 2.5841-3.0093 4.4043-3.9962 1.8202-0.98685 3.9678-1.4803 6.4427-1.4804 2.7666 4e-5 5.1326 0.76486 7.098 2.2945 1.9653 1.5297 3.2635 3.7249 3.8945 6.5855h10.919c-0.29179-2.9103-1.0805-5.5371-2.366-7.8806-1.2856-2.3434-2.9355-4.3044-4.9498-5.8831-2.0143-1.5786-4.2833-2.7872-6.807-3.6258-2.5238-0.83856-5.1201-1.2578-7.789-1.2579-3.9308 5e-5 -7.4857 0.70276-10.665 2.1082-3.1792 1.4055-5.8728 3.3786-8.0811 5.9192-2.2083 2.5407-3.8948 5.5131-5.0597 8.9172-1.1649 3.4042-1.7473 7.0552-1.7473 10.953 0 3.7986 0.58244 7.3755 1.7473 10.731 1.1649 3.3552 2.8514 6.2783 5.0597 8.7693s4.902 4.4396 8.0811 5.8458 6.734 2.1093 10.665 2.1093c2.6689 0 5.2407-0.57966 7.7156-1.739 2.4748-1.1593 4.6587-2.9969 6.5515-5.5127z"/>
  <path d="m336.92 798.74h39.456v-9.7675h-28.026v-12.952h25.186v-9.0267h-25.186v-11.323h27.444v-9.7675h-38.874z"/>
  <path d="m385.19 798.74h36.763v-9.7675h-25.333v-43.07h-11.43z"/>
  <path d="m430 798.74h39.456v-9.7675h-28.026v-12.952h25.186v-9.0267h-25.186v-11.323h27.444v-9.7675h-38.874z"/>
  <path d="m473.93 781.2c0 3.1573 0.59461 5.9324 1.7839 8.3255s2.8151 4.3666 4.8775 5.9203c2.0624 1.5538 4.4162 2.7006 7.0614 3.4406 2.6452 0.73998 5.4481 1.11 8.4088 1.11 6.8426 0 12.157-1.5662 15.942-4.6986 3.7856-3.1323 5.6784-7.2151 5.6784-12.248-4e-5 -2.6634-0.53397-4.9447-1.6018-6.844-1.0679-1.8992-2.4023-3.4041-4.0034-4.5145-1.6011-1.1103-3.1299-1.9369-4.5865-2.4797-1.4567-0.54274-3.0581-1.0362-4.8042-1.4804-0.14652 0-0.29259-0.0266-0.43778-0.0744-0.63096-0.19698-1.019-0.29569-1.1641-0.29569-3.6405-0.93643-6.2613-1.6516-7.8622-2.1454-1.6011-0.49382-2.887-0.97485-3.8578-1.4431-0.97083-0.46824-1.6503-1.0106-2.0383-1.6272-0.3882-0.61648-0.58208-1.4434-0.58204-2.4808-4e-5 -2.022 0.77641-3.5264 2.3293-4.5134 1.5529-0.98689 3.3972-1.4804 5.5329-1.4804 3.0569 5e-5 5.4955 0.59214 7.3158 1.7762 1.8202 1.1842 2.8029 3.2562 2.9481 6.2162h11.066c-5e-5 -2.96-0.55841-5.5251-1.6751-7.6955-1.1167-2.1702-2.6334-3.9461-4.5498-5.3275-1.9166-1.3813-4.1249-2.3927-6.6249-3.0341-2.5001-0.64136-5.1571-0.96202-7.9712-0.96211-2.426 9e-5 -4.7917 0.33288-7.0969 0.99823-2.3053 0.66552-4.3925 1.6645-6.2616 2.9969-1.8691 1.3325-3.3495 3.0101-4.441 5.0328-1.0915 2.0228-1.6373 4.341-1.6373 6.9547-5e-5 2.3683 0.4245 4.4035 1.2741 6.1055 0.84937 1.7021 1.9898 3.1083 3.4213 4.2186 1.4314 1.1104 3.0207 2.0108 4.7676 2.701 1.7469 0.69036 3.7608 1.3562 6.0417 1.9976 0.82639 0.19742 1.9431 0.49386 3.3502 0.88977 2.1357 0.49236 3.8345 0.93617 5.0964 1.3313 1.2618 0.39529 2.4263 0.87628 3.4935 1.4431 1.0671 0.56686 1.9161 1.2575 2.5471 2.072 0.63087 0.81453 0.94635 1.8135 0.94639 2.9968-4e-5 1.2828-0.31561 2.3559-0.94639 3.2193-0.631 0.86348-1.4682 1.5418-2.5116 2.0348-1.0435 0.49307-2.1354 0.83825-3.2758 1.0354-1.1404 0.19742-2.2683 0.29569-3.3835 0.29569-3.3488 0-6.1032-0.80173-8.2632-2.4052-2.1602-1.6034-3.2403-4.0575-3.2403-7.3623z"/>
 </g>
 <path d="m5.6333 4.0443h505.91v719.88h-505.91z" fill="url(#radialGradient3419)"/>
 <path d="m5.6333 4.0443h505.91v719.88h-505.91z" fill="url(#radialGradient3416)"/>
 <path d="m5.6333 236.84h505.91v397.11h-505.91z" fill="url(#linearGradient3413)"/>
 <path d="m27.227 228.88-21.337 294.49 0.7712 114.5 93.958-408.98zm154.88 0-167.86 404.38 2.4421-0.12793 243.83-378.28 243.96 378.28 2.4421 0.12793-167.86-404.38zm237.4 0 93.958 408.98 0.77119-114.5-21.337-294.49z" fill="url(#radialGradient3410)"/>
 <path d="m254.06 30.955c-49.806 0-90.172 39.295-90.172 87.759s40.366 87.748 90.172 87.748c49.782 0 90.162-39.285 90.162-87.748 0-48.464-40.356-87.759-90.162-87.759zm-202.97 0.28036v174.49h51.603l-0.13731-56.409h50.668v-47.606h-50.253v-22.765h61.687l-3.4063-47.71h-110.16zm268.81 0.27001 51.063 84.001-54.074 89.96 55.445 0.0931 26.43-44.077 26.762 43.983h56.992l-55.071-90.531 50.055-83.43h-55.144l-22.898 37.568-22.484-37.568h-57.075zm-65.575 35.544c8.4444 0 15.837 7.3549 15.837 15.592l0.21968 72.074c0 8.237-7.6074 14.699-16.076 14.699-8.4444 0-15.287-6.6926-15.287-14.907v-71.866c0-8.237 6.8181-15.592 15.287-15.592z" fill="#fff"/>
 <path d="m1.5202 229.42v409.53h514.13v-409.53zm8.2261 9.1681h497.68v393.08h-497.68z" fill="#0e4176"/>
 <path d="m1.5202-1.4687e-8v230.64h514.13v-230.64zm8.2261 8.5421h497.68v213.55h-497.68z" fill="#94050f"/>
 <path d="m1.5202 638.83v89.136h514.13v-89.136zm8.2261 6.8566h497.68v75.423h-497.68z" fill="#94050f"/>
 <path d="m57.353 715.99h24.637v-18.377l6.8311-5.8353 19.709 24.212h30.684l-33.708-37.885 29.004-24.299h-30.348l-21.949 21.425h-0.22398v-21.425h-24.637z" fill="#fff" font-family="'HelveticaNeueLT Pro 95 Blk'" font-size="25.05px" font-weight="bold" stroke-width="4.4265"/>
 <path d="m196.41 715.99h24.637v-46.246h22.397v-15.938h-69.431v15.938h22.397z" fill="#fff" font-family="'HelveticaNeueLT Pro 95 Blk'" font-size="25.05px" font-weight="bold" stroke-width="4.4265"/>
 <path d="m306.95 715.99h24.637v-46.246h22.397v-15.938h-69.431v15.938h22.397z" fill="#fff" font-family="'HelveticaNeueLT Pro 95 Blk'" font-size="25.05px" font-weight="bold" stroke-width="4.4265"/>
 <path d="m470.07 653.81h-24.601l-16.063 37.711h-0.22398l-16.287-37.711h-24.507l26.684 62.184h27.548z" fill="#fff" font-family="'HelveticaNeueLT Pro 95 Blk'" font-size="25.05px" font-weight="bold" stroke-width="4.4265"/>
 <path d="m134.85 621h97.678v-367.52l-71.818 0.41685c-7.0236 11.049-12.516 26.046-20.192 33.119-6.3066 5.8492-9.1301 8.2755-20.28 13.479-10.215 4.2136-14.355 4.7064-27.922 6.4778h-15.161v57.799h57.694z" fill="#fff" font-family="Helvetica87-CondensedHeavy" font-size="12.45px" font-weight="bold" stroke-width="4.4265"/>
 <path d="m323.35 621h97.678v-367.52l-71.818 0.41685c-7.0236 11.049-12.516 26.046-20.192 33.119-6.3066 5.8492-9.1301 8.2755-20.28 13.479-10.215 4.2136-14.355 4.7064-27.922 6.4778h-15.161v57.799h57.694z" fill="#fff" font-family="Helvetica87-CondensedHeavy" font-size="12.45px" font-weight="bold" stroke-width="4.4265"/>
</svg>
