<svg width="1605.8" height="789.28" version="1.1" xmlns="http://www.w3.org/2000/svg">
 <g transform="translate(-287.99 400.51)">
  <path d="m676.37-384.54c-214.49 0-388.38 173.11-388.38 386.66s173.88 386.66 388.38 386.66c214.49 0 388.38-173.11 388.38-386.66s-173.88-386.66-388.38-386.66zm12.219 159.5c233.29 2.5807 350.97 225.81 350.97 225.81s-94.799 222-356.13 225.81c-263.85 3.8448-366.46-227.12-366.46-227.12s106.85-227.43 371.62-224.5z" fill="#9caabd" fill-rule="evenodd"/>
  <path d="m884.17 0.40586c0 113.83-93.041 206.11-207.81 206.11-114.77 0-207.81-92.278-207.81-206.11 0-113.83 93.041-206.11 207.81-206.11 114.77 0 207.81 92.278 207.81 206.11z" fill="#9caabd" fill-rule="evenodd"/>
  <path d="m1034.8 387.01h290.04l155.79-787.52h-164.21l-250.44 91.785-6.687 114.92 93.665 3.3846z" fill="#fcb824"/>
  <path d="m1442.1 387.01h295.94l155.79-787.52h-170.39l-250.96 91.134-5.5065 115.9 93.292 3.0593z" fill="#fcb824"/>
  <path d="m1444.7 365.41-80.873-186.3-198.91 18.543 142.52-134.26-75.937-180.93 173.42 94.68 144.21-119.01-34.734 183.86 168.53 98.393-195.19 28.791z" fill="#fff"/>
 </g>
</svg>
