<svg width="1e3" height="418.97" version="1.1" xmlns="http://www.w3.org/2000/svg">
 <link href="" rel="stylesheet" type="text/css"/>
 <style type="text/css"/>
 <g transform="translate(1590.9 -1062.7)">
  <g transform="matrix(1.048 0 0 1.048 76.433 -71.185)" fill="#002380">
   <g transform="matrix(1.9125 0 0 1.9124 -1247.5 -294.84)">
    <g transform="matrix(1.25 0 0 -1.25 98.731 940.5)" fill="#002380">
     <g transform="scale(.1)" fill="#002380">
      <g fill="#002380">
       <g fill="#002380">
        <g fill="#002380" fill-rule="evenodd">
         <path d="m865.59 1513c131.93 0 278.12-1.99 406.27-157.78 62.57-76.14 101.17-164.14 82.58-293.35-13.55-93.505-135.08-290.52-135.08-290.52l522.32 0.312c15.17 61.52 23.3 125.86 23.3 192.08 0 442.46-358.68 801.21-801.18 801.21-230.04 0-437.27-97.08-583.39-252.34 226.61 0.21 445.12 0.39 485.18 0.39"/>
         <path d="m549.89 442.29s330.75 459.58 381.42 545.79c20.648 35.108 56.703 71.378 27.961 135.65-10.883 24.36-41.008 54.61-88.879 54.61-64.375 0-406.33-0.09-678.54-0.16-18.95-68.27-29.274-140.11-29.274-214.41 0-442.5 358.72-801.18 801.23-801.18 243.54 0 461.55 108.78 608.48 280.24l-1022.4-0.531"/>
        </g>
       </g>
      </g>
     </g>
    </g>
   </g>
   <g transform="matrix(.97777 0 0 .97777 -1774.7 1046.9)">
    <g fill="#002380">
     <g transform="matrix(.57738 0 0 .57738 187.95 97.987)" fill="#002380" fill-rule="evenodd">
      <path d="m895.21 215.08 121.63 214.34-140.09 0.24-51.45-90.96-51.44 90.96-140.08-0.24 121.63-214.34-121.63-215.08h139.38l52.14 91.9 52.16-91.9h139.38z"/>
      <path transform="translate(187.2 27.114)" d="m296.2-26.975c-118.56 0-214.66 96.101-214.66 214.64 0 118.54 96.1 214.64 214.66 214.64 118.55 0 214.66-96.101 214.66-214.64 0-118.54-96.11-214.64-214.66-214.64zm0.58984 88.27c19.58 0 37.01 18.011 37.01 38.121v176.35c0 20.12-17.43 35.91-37.02 35.91s-35.471-16.3-35.471-36.43l0.0391-175.83c0-20.11 15.841-38.121 35.441-38.121z"/>
      <path d="m0.02 429.42v-429.42h267.03l7.87 117.13h-144.91v56.2h118.18v117.5h-118.18v138.59z"/>
     </g>
    </g>
   </g>
   <g transform="matrix(2.9211 0 0 2.7629 3140.2 409.63)" font-family="'Gotham Black'" font-size="40px" font-weight="bold" letter-spacing="0px" text-align="center" text-anchor="middle" word-spacing="0px" aria-label="KTVU">
    <g fill="#002380" font-family="'Gotham Black'" font-weight="900">
     <path d="m-1618.5 359.48h8.8407v10.4l7.4786-10.4h10.281l-9.0871 12.131 9.4471 15.869h-10.401l-5.3541-9.029-2.3645 2.8401v6.1889h-8.8407z" style="white-space:pre"/>
     <path d="m-1555.4 367.45h-7.7887v-7.9634h24.56v7.9634h-7.8498v20.037h-8.9215z" style="white-space:pre"/>
     <path d="m-1509.8 359.48h9.9026l5.0763 15.523 5.1985-15.523h9.7426l-10.565 28.2h-8.4226z" style="white-space:pre"/>
     <path d="m-1437.2 388c-2 0-3.8-0.25333-5.4-0.76s-2.96-1.28-4.08-2.32c-1.12-1.0667-1.9867-2.4-2.6-4-0.5867-1.6267-0.88-3.5333-0.88-5.72v-15.72h8.797v14.397c0 2.0267 0.068 3.5333 1.0011 4.52 0.9333 0.96 1.6686 1.44 3.2419 1.44s2.0647-0.46667 2.998-1.4 1.1839-2.3867 1.1839-4.36v-14.597h8.8581v15.52c0 2.2667-0.32 4.2267-0.96 5.88-0.6133 1.6267-1.4933 2.9733-2.64 4.04-1.12 1.04-2.4933 1.8133-4.12 2.32-1.6 0.50667-3.4 0.76-5.4 0.76z" style="white-space:pre"/>
    </g>
   </g>
  </g>
 </g>
</svg>
