<svg width="1310.9" height="499.3" version="1.1" xmlns="http://www.w3.org/2000/svg">
 <link href="" rel="stylesheet" type="text/css"/>
 <style type="text/css"/>
 <g fill="#fff">
  <g transform="matrix(.46348 0 0 .46379 -.0053097 77.609)">
   <g fill="#fff">
    <path d="m1829.1 787.9h-250.1c-2.3 0-6.5-10.1-7.7-12.2-34.4-62.1-68.8-124.5-103-186.5-36.6 66-72.2 133.1-108.7 199.2-81.9 0.2-163.1-0.4-244.3-0.2 9.2-17.2 19-34 28.8-50.9 68.3-118 135.6-237.6 204-355.7-72.7-127-146.5-253-219.6-379.7-0.2 0-0.7-0.8-0.2-0.7h251.3c30.9 56.2 61 113.1 91.4 169.7 31.6-56.1 62.1-113.3 93.4-169.7h242.9c0.2 1-0.5 2.1-1 2.9-70.9 124.6-143.5 249.6-214.3 374.4 78.7 136.6 158.9 273.1 237.1 409.4z"/>
    <path d="m1221.9 306.5c6.4 26 10.1 54.6 10.1 84.7 0 93.9-27.2 163.5-65 220.1-6.4 9.6-12.9 18.8-19.9 27.6-20.5 26-45.3 49.7-73 69.4-18.6 13.2-38 25.2-59.5 35.3-42.8 20.1-94.5 35.8-154.1 35.8-93.2 0-162-28.4-217.7-67.4-55.7-39.1-99.1-90.8-128.6-156-19.8-43.7-32.8-94.1-34.3-155.5-0.7-30.4 3.1-60.4 8.6-86.4 14-65.6 41.5-117 76.3-161.3 34.8-44.2 78.9-78.8 132.2-104.9 20.9-10.2 44.3-18.9 69.8-25.2s53.7-10.6 84.2-10.6h0.5c29.8-1.4 61.4 3.4 86.2 8.9 25.8 5.7 49.7 14.4 71 24 66 29.8 115.2 74.4 154.8 130.1 26.1 36.5 45.7 80.3 58.4 131.4zm-300 260.6c2.4-9.6 1.7-21.9 1.7-34.6v-289c0-12.4-1.4-22-5-31-3.3-8.2-8.4-15.7-14.4-21.8-11.7-11.9-29.3-22.6-51.4-20.9-10.7 0.8-19.6 4.2-27.4 9.1-14.5 9.2-25.5 23.3-30 42-2.3 9.5-2.2 21.6-2.2 34.1v289c0 6.2-0.3 12.2 0.5 17.5 2.1 15.2 8.9 27.4 17.8 36.5 11.5 11.7 29.3 21.5 52.3 19 29.7-3.2 51.5-22.9 58.1-49.9z"/>
    <path d="m490.1 215.8h-265.7c-1.1 33-0.2 69.5-0.5 102.7 71.8 0.6 144.7 0.1 217 0.2v215.3c-72.8 0.2-146.2-0.3-218.6 0.2 0.1 85.4 0.5 169.2 0.5 254.6 0 0.3-0.1 0.4-0.2 0.5h-221.5c-0.4 0.1-0.4-0.2-0.7-0.2-0.5-262.2-0.5-526.1-0.1-788.4 0-0.3 0-0.7 0.2-0.7h474.5c0.3 0 0.4 0 0.5 0.2 5 71.8 9.8 143.7 14.6 215.6z"/>
   </g>
  </g>
  <g transform="matrix(2.4969 0 0 2.4928 513.49 -1794.5)">
   <g transform="matrix(1.25 0 0 -1.25 98.731 940.5)" fill="#fff">
    <g transform="scale(.1)" fill="#fff">
     <g fill="#fff" fill-rule="evenodd">
      <path d="m865.59 1513c131.93 0 278.12-1.99 406.27-157.78 62.57-76.14 101.17-164.14 82.58-293.35-13.55-93.505-135.08-290.52-135.08-290.52l522.32 0.312c15.17 61.52 23.3 125.86 23.3 192.08 0 442.46-358.68 801.21-801.18 801.21-230.04 0-437.27-97.08-583.39-252.34 226.61 0.21 445.12 0.39 485.18 0.39"/>
      <path d="m549.89 442.29s330.75 459.58 381.42 545.79c20.648 35.108 56.703 71.378 27.961 135.65-10.883 24.36-41.008 54.61-88.879 54.61-64.375 0-406.33-0.09-678.54-0.16-18.95-68.27-29.274-140.11-29.274-214.41 0-442.5 358.72-801.18 801.23-801.18 243.54 0 461.55 108.78 608.48 280.24l-1022.4-0.531"/>
     </g>
    </g>
   </g>
  </g>
 </g>
</svg>
