<svg width="600pt" height="238.48pt" version="1.1" viewBox="0 0 600 238.48" xmlns="http://www.w3.org/2000/svg">
 <defs>
  <linearGradient id="linearGradient987" x1="11942" x2="25686" y1="10549" y2="10549" gradientTransform="matrix(.18238 0 0 .18238 -1048.1 239.48)" gradientUnits="userSpaceOnUse">
   <stop stop-color="#9B2E90" offset="0"/>
   <stop stop-color="#A82C9B" offset=".2246"/>
   <stop stop-color="#BE27AF" offset=".6966"/>
   <stop stop-color="#C626B6" offset="1"/>
  </linearGradient>
  <linearGradient id="linearGradient999" x1="25687" x2="46087" y1="9971.9" y2="9971.9" gradientTransform="matrix(.0047174 0 0 .0047174 -1048.1 239.7)" gradientUnits="userSpaceOnUse">
   <stop stop-color="#51BB83" offset="0"/>
   <stop stop-color="#4DBA81" offset=".2181"/>
   <stop stop-color="#41B77B" offset=".4428"/>
   <stop stop-color="#2CB272" offset=".6704"/>
   <stop stop-color="#0FAB65" offset=".8988"/>
   <stop stop-color="#00A75E" offset="1"/>
  </linearGradient>
  <linearGradient id="linearGradient1019" x1="16.003" x2="28.544" y1="16.905" y2="29.446" gradientTransform="matrix(4.8254 0 0 4.8254 -991.85 239.7)" gradientUnits="userSpaceOnUse">
   <stop stop-color="#1D1DEA" offset=".4967"/>
   <stop stop-color="#2022E0" offset=".6006"/>
   <stop stop-color="#292EC4" offset=".78"/>
   <stop stop-color="#374199" offset="1"/>
  </linearGradient>
  <linearGradient id="linearGradient1021" x1="4.6351" x2="13.922" y1="29.228" y2="19.941" gradientTransform="matrix(4.8254 0 0 4.8254 -992.25 240.07)" gradientUnits="userSpaceOnUse">
   <stop stop-color="#AE1F23" offset="0"/>
   <stop stop-color="#CC1E23" offset=".382"/>
   <stop stop-color="#E41C24" offset=".7639"/>
   <stop stop-color="#ED1C24" offset="1"/>
  </linearGradient>
 </defs>
 <g transform="matrix(1.4366 0 0 1.4366 1424.8 -344.35)" fill-rule="evenodd">
  <path d="m-914.89 405.42c-3.5707-3.3439-6.1213-9.6348-7.9347-17.796a174.05 174.05 0 0 1-3.2306-25.278 379.39 379.39 0 0 1-0.85017-27.092v-1.5869c-21.197 0-39.617-1.5869-48.401-3.1739-9.2381-1.7003-15.359-5.1009-16.436-6.8011a80.026 80.026 0 0 0 14.679 47.721 80.422 80.422 0 0 0 62.345 34.176l-0.17003-0.17004" fill="url(#linearGradient1021)" stroke-width="4.8254"/>
  <path d="m-830.67 320.86c-3.7407 3.1172-14.457 6.9167-27.209 9.3537-5.1009 0.85017-10.596 1.5808-16.151 2.1475-22.104 1.9837-48.174 1.3062-52.882 1.3062v1.583a379.39 379.39 0 0 0 0.85234 27.099 174.05 174.05 0 0 0 3.2324 25.272c1.8137 8.1616 4.3664 14.456 7.937 17.8l0.16607 0.16606 3.5091 0.11069c27.318 0 51.41-13.593 65.973-34.394 5.5581-8.4097 9.5358-17.77 11.734-27.608 1.8704-6.8011 2.8338-14.049 2.8338-21.531v-0.0664z" fill="url(#linearGradient1019)" stroke-width="4.8254"/>
  <path d="m-926.91 333.67c4.6475 0 30.775 0.68011 52.877-1.3036 5.5543-0.56676 10.995-1.2469 16.21-2.1537 12.696-2.4371 23.407-6.2345 27.148-9.3518v-71.808c-9.6919-7.1978-50.443-9.3518-96.235-9.3518z" fill="url(#linearGradient999)" stroke-width="5.6675"/>
  <path d="m-988.63 245.25c-1.7003 0-3.1216 1.4103-3.1216 3.1106v75.328c1.0768 1.7003 7.2002 5.0967 16.438 6.7968 8.7848 1.5869 27.2 3.177 48.396 3.177v-57.93c-20.064-25.845-51.113-30.486-61.713-30.486z" fill="url(#linearGradient987)" stroke-width="4.8254"/>
 </g>
 <g transform="matrix(1.4366 0 0 1.4366 -1.7041 238.17)" fill="#6e6d72">
  <path d="m244.86-4.7727q-17.176 0-30.587-6.8232-13.176-7.0585-20.94-18.823l20.94-18.823q6.1174 8.9408 13.882 13.176 7.7644 4.2351 17.882 4.2351 12.941 0 19.764-6.5879 6.8232-6.5879 6.8232-16.705 0-11.529-7.9996-17.882-7.7644-6.3527-23.058-6.3527h-16.235v-16.47l37.175-37.645h-59.997v-25.411h94.819v22.117l-37.645 37.175q20.47 3.5293 31.057 15.293 10.823 11.764 10.823 29.41 0 4.941-1.1764 11.294t-4.7057 12.941q-3.294 6.3527-9.6466 12.235t-17.176 9.8819q-10.588 3.7645-23.999 3.7645z"/>
  <path d="m363.31-4.7727q-11.764 0-22.117-3.9998-10.352-4.2351-17.882-11.764-7.5291-7.5291-11.764-17.411-4.2351-9.8819-4.2351-20.94 0-11.999 4.7057-23.528 4.941-11.764 19.529-33.175l30.587-43.292h32.704l-34.116 49.88 2.8234-0.23528q11.999 0 22.352 3.9998t17.646 11.058q7.2938 7.0585 11.294 16.235 3.9998 9.1761 3.9998 19.058 0 11.058-3.9998 21.176-3.9998 9.8819-11.529 17.411-7.2938 7.2938-17.646 11.529-10.352 3.9998-22.352 3.9998zm0-80.702q-8.2349 0-15.058 4.4704-6.8232 4.4704-9.6466 10.823-2.5881 6.1174-2.5881 11.294t2.5881 11.764q2.8234 6.3527 9.6466 10.823 6.8232 4.4704 15.058 4.4704 5.1762 0 11.294-2.5881 6.3527-2.5881 10.823-9.4113 4.4704-6.8232 4.4704-15.058 0-5.1762-2.5881-11.294-2.5881-6.3527-9.1761-10.823-6.5879-4.4704-14.823-4.4704z"/>
 </g>
</svg>
