<svg width="800" height="310.33" clip-rule="evenodd" fill-rule="evenodd" stroke-linejoin="round" stroke-miterlimit="1.4142" version="1.1" viewBox="0 0 800 310.33" xmlns="http://www.w3.org/2000/svg">
 <defs>
  <linearGradient id="linearGradient891" x1="119.11" x2="168.43" y1="-133.25" y2="-141.71" gradientTransform="matrix(0 2.5758 -2.5758 0 137.57 -306.29)" gradientUnits="userSpaceOnUse">
   <stop stop-color="#c2c7d3" offset="0"/>
   <stop stop-color="#a2a9bc" offset=".33581"/>
   <stop stop-color="#fff" offset=".48178"/>
   <stop stop-color="#fff" offset=".63735"/>
   <stop stop-color="#bfc2ce" offset=".72921"/>
   <stop stop-color="#c2c7d3" offset="1"/>
  </linearGradient>
  <linearGradient id="linearGradient922" x1="163.99" x2="222.93" y1="64.323" y2="64.323" gradientTransform="matrix(0 2.5758 -2.5758 0 565.68 -263.9)" gradientUnits="userSpaceOnUse">
   <stop stop-color="#e70505" offset="0"/>
   <stop stop-color="#a80101" offset="1"/>
  </linearGradient>
 </defs>
 <path d="m71.955 306.38h-71.955v-5.4066c11.787-0.20864 19.385-1.7155 22.796-4.5231 3.4103-2.8102 5.1181-6.9495 5.1181-12.428v-100.88c-9.7185-7.2792-15.715-11.558-17.989-12.843-2.2744-1.2802-5.3757-2.0967-9.3038-2.4444v-5.4066h67.303l109.17 88.983h1.5532v-62.569c0-7.2096-1.9576-12.359-5.8599-15.442-3.9101-3.0858-11.728-4.9404-23.45-5.5663v-5.4066h309.76v5.198c-7.6501 0.4894-12.897 1.2158-15.738 2.1894-2.8463 0.97108-4.2655 3.194-4.2655 6.6636 0 0.9041 0.15455 1.9628 0.46365 3.176 0.31167 1.2184 0.77789 2.4831 1.3961 3.8019l38.933 74.572h0.65168l36.293-62.399c0.20348-0.34773-1.275-3.5237-4.4381-9.5201-3.1682-5.9964-5.3731-9.6927-6.6198-11.086-2.3775-2.5011-4.9867-4.2732-7.8304-5.3139-2.8437-1.0406-7.985-1.7361-15.429-2.0838v-5.198h99.256v5.198c-9.0977 0.4894-15.171 1.1488-18.221 1.9808-3.0523 0.83198-4.5746 2.7097-4.5746 5.6255 0 0.69288 0.33485 2.0297 1.0071 4.0079 0.67228 1.9808 1.834 4.7034 3.4902 8.1756l35.77 67.342-0.64137 1.2956h1.3291l-0.68774-1.2956 34.006-68.799c0.61819-1.2518 1.1359-2.5861 1.5481-4.0105 0.41212-1.4244 0.62076-3.0034 0.62076-4.7395 0-3.9564-2.2229-6.594-6.6662-7.9154-2.6891-0.83198-7.8098-1.3884-15.352-1.6665v-5.198h58.154v5.198c-4.8605 0.4894-8.6341 1.3214-11.321 2.5011-4.6519 2.1534-8.2734 5.8651-10.857 11.143l-63.578 128.62h-8.3739l-53.347-99.985h-2.1714l-58.154 99.985h-8.8401l-67.148-128.62c-2.8952-5.538-5.7904-9.0591-8.683-10.563-1.2956-0.67486-2.9106-1.2518-4.8451-1.7335v36.406h-7.7531c-4.0311-13.726-10.883-23.123-20.547-28.184-9.6695-5.0614-27.27-7.5909-52.804-7.5909-9.721 0-15.895 0.67486-18.533 2.0272-2.635 1.3523-3.9538 4.0388-3.9538 8.0596v49.296c18.09 0.1391 30.343-2.0632 36.754-6.6043 6.4086-4.5386 11.318-12.843 14.731-24.908h8.0622v71.965h-8.0622c-2.2744-12.129-6.9006-20.678-13.878-25.632-6.9804-4.9584-19.517-7.4389-37.607-7.4389v51.583c0 4.5076 1.7284 7.5754 5.1954 9.2033 3.4619 1.6305 10.568 2.4444 21.322 2.4444 20.261 0 36.803-2.635 49.625-7.9051 12.817-5.2675 24.189-15.148 34.116-29.64h8.8401l-12.874 44.304h-184.27v3.9513h-8.8401l-139.72-113.88h-2.1714v83.51c0 6.5502 1.3446 11.182 4.0337 13.902 4.2372 4.3892 12.92 6.7589 26.052 7.1066zm718.74-101.5h-8.8401c-4.1419-10.746-11.447-20.001-21.905-27.77-10.458-7.7609-23.167-11.645-38.124-11.645-10.512 0-18.821 1.9602-24.934 5.8805-6.1124 3.9178-9.1698 8.6882-9.1698 14.309 0 6.7305 2.8617 11.761 8.5903 15.092 5.6255 3.4 18.229 8.3971 37.818 14.986l23.442 7.9128c10.453 3.5391 18.785 7.4544 25.003 11.751 11.614 8.0365 17.423 17.809 17.423 29.31 0 10.741-6.2308 20.874-18.687 30.4-12.459 9.5304-32.419 14.29-59.877 14.29-6.303 0-12.688-0.39925-19.146-1.1952-6.4575-0.7985-12.853-2.0323-19.143-3.6911l-6.0995-1.5609c-1.3677-0.26788-2.7406-0.49198-4.1213-0.67486-1.1127-0.1597-2.2358-0.2447-3.3588-0.26015-3.2532 0-5.489 0.64137-6.7074 1.9215-1.2235 1.2853-2.2899 3.1038-3.2069 5.4607h-9.1466v-52.724h9.1466c5.0589 15.911 13.219 27.481 24.488 34.709 11.272 7.2277 24.187 10.839 38.745 10.839 14.151 0 24.207-2.4805 30.173-7.4415 5.9655-4.9584 8.9483-10.182 8.9483-15.663 0-6.3828-3.1141-11.586-9.3424-15.609-4.1213-2.6376-12.467-6.0711-25.042-10.306l-20.225-6.8671c-20.078-6.7975-34.245-13.531-42.495-20.192-8.2528-6.661-12.382-14.883-12.382-24.666 0-10.406 5.4658-20.117 16.395-29.137 10.929-9.0178 27.679-13.528 50.251-13.528 11.488 0 22.595 1.1797 33.323 3.534 10.723 2.3594 16.848 3.5366 18.373 3.5366 3.4567 0 5.847-0.67744 7.171-2.0272 1.3188-1.3549 2.3878-3.1373 3.2017-5.3551h9.4609zm-583.71-35.471c-4.2526 0.83198-7.3668 1.7979-9.3424 2.8926-3.3614 1.8623-5.0408 6.0299-5.0408 12.508v116.13c8.3868-0.25758 14.396-1.0792 18.028-2.4599 5.8908-2.2178 8.8401-6.3802 8.8401-12.48v-103.17c0-6.1948-3.0523-10.362-9.1518-12.498-0.91698-0.34-2.0272-0.6491-3.3331-0.92471z" fill="url(#linearGradient922)" stroke-width="2.5758"/>
 <path d="m85.485 148.06h-80.705v-145.58h80.705v55.014l84.54-55.014h138.78v88.798c0 7.936 3.9461 14.139 11.846 18.605 7.8974 4.4638 18.855 6.6945 32.87 6.6945 13.899 0 24.792-2.1972 32.692-6.5966s11.849-10.633 11.849-18.703v-31.613l5.7518 3.0626 44.293 23.563-12.065 44.883-2.5655 9.5459c-5.5457 2.1044-11.254 3.7632-17.065 4.9558-15.676 3.2404-34.503 4.8631-56.477 4.8631-12.709 0-26.574-0.49713-41.599-1.4888-15.027-0.99426-27.587-2.9622-37.681-5.9037-2.3362-0.68001-4.6261-1.4296-6.8671-2.2435l7.8588 7.153h-99.39l-55.068-59.867-41.7 24.344zm699.27 0h-80.882v-28.277c-1.8571 2.2976-4.0723 4.5411-6.643 6.728-9.2651 7.8794-22.216 13.855-38.84 17.925-16.629 4.0723-37.591 6.1072-62.891 6.1072-44.422 0-75.182-4.7678-92.285-14.301-11.756-6.5528-19.944-14.347-24.684-23.339l7.4234-6.4678 51.794 27.558 20.336 10.818-9.6953-20.892-12.15-26.188 14.721-0.51258c1.664 6.9495 5.0486 12.248 10.156 15.887 8.3121 5.8934 20.192 8.8376 35.634 8.8376 11.516 0 20.4-1.5068 26.634-4.5205 6.236-3.0111 9.3527-6.5013 9.3527-10.476 0-3.7735-2.9699-7.1478-8.9071-10.128-5.9398-2.9802-19.718-5.793-41.331-8.4409-22.61-2.8334-41.053-6.2618-55.374-10.283l-2.4882-5.3654 35.456-30.899c0.9788 1.0432 2.4496 2.0271 4.4098 2.9544 3.8019 1.919 12.83 3.7091 27.082 5.3628 35.275 4.2372 60.544 8.5233 75.806 12.858 15.262 4.3376 26.368 9.7159 33.315 16.137 1.154 1.0767 2.21 2.1688 3.1708 3.279v-79.94h80.882zm-602.7-90.629 48.288 43.946c-1.3806-4.3479-2.0709-8.3997-2.0709-12.16v-58.429zm288.57-54.947-9.721 36.18-62.844 11.048v-47.227zm34.59 28.39 84.504-14.863-13.438 11.71c3.5417-0.42758 7.104-0.63107 10.672-0.61046 11.403 0 20.341 1.4888 26.814 4.4664 6.473 2.9802 10.715 7.748 12.74 14.301l76.073-2.4831c-3.3254-15.092-13.75-26.101-31.27-33.017-17.518-6.9186-42.967-10.378-76.339-10.378-27.2 0-48.61 1.9035-64.227 5.7105-13.26 3.23-23.666 7.4981-31.275 12.781z" fill="#fff" stroke-width="2.5758"/>
 <path d="m459.34 80.36-45.535-24.225 54.627-9.6051 12.366-46.011 18.806 40.53 59.009-10.375-45.445 39.605 23.862 51.418-51.451-27.376-39.162 34.127z" fill="url(#linearGradient891)" stroke-width="2.5758"/>
</svg>
