<svg width="800" height="144.6" version="1.1" viewBox="0 0 211.67 38.258" xmlns="http://www.w3.org/2000/svg">
 <g transform="translate(216.2 32.826)">
  <g transform="matrix(1.4276 0 0 1.4276 -798.83 -1192.7)" fill="#fff">
   <path d="m518.8 825.9c0 7.4-6 13.4-13.4 13.4s-13.4-6-13.4-13.4 6-13.4 13.4-13.4 13.4 6 13.4 13.4" clip-path="url(#b)"/>
   <path d="m552.5 824.4c-1.5-0.8-2.7-1.4-2.7-2.6 0-0.8 0.7-1.3 1.9-1.3 1.3 0 2.6 0.4 3.7 1v-3c-1.2-0.5-2.4-0.8-3.7-0.8-3.5 0-5.1 2.1-5.1 4.4 0 2.7 1.8 4 3.8 5 2 1.1 2.7 1.5 2.7 2.6 0 0.9-0.8 1.5-2.2 1.5-1.5 0-3-0.6-4.2-1.6v3.2c1.2 0.8 2.7 1.2 4.1 1.3 3.4 0 5.6-1.8 5.6-4.7 0.1-2.9-2.5-4.2-3.9-5" clip-path="url(#b)"/>
   <path d="m526.3 817.9h-4.3v16.1h3.2v-5.1h0.6c4 0 6.4-2.1 6.4-5.5s-2.2-5.5-5.9-5.5m-1.1 2.7h0.9c1.9 0 3.1 1.1 3.1 2.7 0 1.8-1.1 2.8-3 2.8h-1z" clip-path="url(#b)"/>
   <path d="m542.4 825.3c1.1-0.8 1.6-1.8 1.6-3.3 0-2.5-1.9-4.1-4.9-4.1h-4.9v16.1h5.1c3.9 0 5.7-2.5 5.7-4.9 0-1.8-1-3.3-2.6-3.8m-3.5-4.7c1.2 0 2 0.8 2 2s-0.9 2-2.2 2h-1.3v-4zm-1.6 10.7v-4.2h2c1.6 0 2.6 0.8 2.6 2.1 0 1.4-1 2.1-2.8 2.1z" clip-path="url(#b)"/>
   <g clip-path="url(#b)" enable-background="new">
    <g clip-path="url(#c)" fill="#fff">
     <g clip-path="url(#d)" fill="#fff">
      <path transform="translate(406.24,833.94)" d="m6.3575-16.071q2.8833 0 4.4432 1.3944 1.5835 1.3708 1.5835 3.6396 0 1.6307-0.75628 2.8597-0.73265 1.229-2.1034 1.9143-1.3708 0.68538-3.2142 0.68538h-1.5835v5.5776h-2.8361v-16.071zm-0.30724 8.1773q1.6544 0 2.5288-0.85082 0.89809-0.87445 0.89809-2.198 0-1.3235-0.89809-2.0561-0.87445-0.75628-2.387-0.75628h-1.4653v5.8612z" fill="#fff"/>
     </g>
    </g>
   </g>
   <g clip-path="url(#b)" enable-background="new">
    <g clip-path="url(#e)" fill="#fff">
     <g clip-path="url(#f)" fill="#fff">
      <path transform="translate(418.61,833.94)" d="m3.1197-13.66q-0.68538 0-1.1817-0.44904-0.47268-0.44904-0.47268-1.1344t0.47268-1.1344 1.1817-0.44904q0.68538 0 1.1817 0.44904 0.49631 0.44904 0.49631 1.1344t-0.49631 1.1344-1.1817 0.44904zm-1.3471 1.7489h2.6943v11.911h-2.6943z" fill="#fff"/>
     </g>
    </g>
   </g>
   <g clip-path="url(#b)" enable-background="new">
    <g clip-path="url(#g)" fill="#fff">
     <g clip-path="url(#h)" fill="#fff">
      <path transform="translate(424.29,833.94)" d="m6.9247 0.25997q-1.678 0-3.0488-0.73265-1.3471-0.75628-2.1271-2.1507-0.75628-1.418-0.75628-3.3324 0-1.938 0.77992-3.3324 0.77992-1.418 2.1271-2.1507 1.3708-0.73265 3.1197-0.73265 1.7016 0 3.0488 0.75628 1.3471 0.73265 2.1034 2.1271 0.77992 1.3708 0.77992 3.1906 0 1.9616-0.77992 3.4033-0.77992 1.418-2.1507 2.198-1.3708 0.75628-3.096 0.75628zm0.047268-2.3398q1.3708 0 2.2452-1.0163 0.89809-1.0399 0.89809-2.9542 0-1.7962-0.85082-2.7888-0.85082-0.99262-2.2689-0.99262-1.3944 0-2.2925 0.99262-0.87445 0.96899-0.87445 2.8597 0 1.8434 0.87445 2.8833 0.89809 1.0163 2.2689 1.0163z" fill="#fff"/>
     </g>
    </g>
   </g>
   <g clip-path="url(#b)" enable-background="new">
    <g clip-path="url(#i)" fill="#fff">
     <g clip-path="url(#j)" fill="#fff">
      <path transform="translate(437.69,833.94)" d="m8.0592-12.171q1.9143 0 3.0251 1.0872 1.1344 1.0872 1.1344 3.0724v8.0119h-2.6943v-7.4919q0-1.0872-0.54358-1.7016t-1.6544-0.61448q-0.89809 0-1.5835 0.37814t-1.2762 0.94536v8.4846h-2.6943v-11.911h2.3161l0.23634 1.0872q0.80355-0.63812 1.678-0.99262 0.87445-0.35451 2.0561-0.35451z" fill="#fff"/>
     </g>
    </g>
   </g>
   <g clip-path="url(#b)" enable-background="new">
    <g clip-path="url(#k)" fill="#fff">
     <g clip-path="url(#l)" fill="#fff">
      <path transform="translate(451.1,833.94)" d="m12.124-6.4993q0 0.85082-0.11817 1.2762h-8.1301q0.37814 3.1906 3.7342 3.1906 2.1507 0 3.8051-0.94536v2.4343q-0.70902 0.35451-1.7962 0.56721-1.0635 0.23634-2.198 0.23634-1.9616 0-3.4269-0.75628-1.4417-0.77992-2.2216-2.1743-0.77992-1.418-0.77992-3.3087 0-1.8434 0.73265-3.2378 0.73265-1.418 2.0325-2.1743 1.3235-0.77992 3.0251-0.77992 1.6307 0 2.8361 0.75628 1.229 0.73265 1.8671 2.0325 0.63812 1.2762 0.63812 2.8833zm-5.294-3.3796q-1.1108 0-1.8907 0.68538-0.75628 0.68538-0.99262 1.938h5.5776q-0.094536-1.1108-0.80355-1.8671t-1.8907-0.75628z" fill="#fff"/>
     </g>
    </g>
   </g>
   <g clip-path="url(#b)" enable-background="new">
    <g clip-path="url(#m)" fill="#fff">
     <g clip-path="url(#n)" fill="#fff">
      <path transform="translate(463.83,833.94)" d="m12.124-6.4993q0 0.85082-0.11817 1.2762h-8.1301q0.37814 3.1906 3.7342 3.1906 2.1507 0 3.8051-0.94536v2.4343q-0.70902 0.35451-1.7962 0.56721-1.0635 0.23634-2.198 0.23634-1.9616 0-3.4269-0.75628-1.4417-0.77992-2.2216-2.1743-0.77992-1.418-0.77992-3.3087 0-1.8434 0.73265-3.2378 0.73265-1.418 2.0325-2.1743 1.3235-0.77992 3.0251-0.77992 1.6307 0 2.8361 0.75628 1.229 0.73265 1.8671 2.0325 0.63812 1.2762 0.63812 2.8833zm-5.294-3.3796q-1.1108 0-1.8907 0.68538-0.75628 0.68538-0.99262 1.938h5.5776q-0.094536-1.1108-0.80355-1.8671t-1.8907-0.75628z" fill="#fff"/>
     </g>
    </g>
   </g>
   <g clip-path="url(#b)" enable-background="new">
    <g clip-path="url(#o)" fill="#fff">
     <g clip-path="url(#p)" fill="#fff">
      <path transform="translate(476.48,833.94)" d="m7.4447-12.101q0.75628 0 1.1817 0.1418v2.5997q-0.75628-0.21271-1.3944-0.21271-1.7253 0-2.7652 1.5362v8.0355h-2.6943v-11.911h2.3161l0.33087 1.4889q0.44904-0.75628 1.2053-1.2053 0.75628-0.47268 1.8198-0.47268z" fill="#fff"/>
     </g>
    </g>
   </g>
  </g>
  <g transform="matrix(1.4276 0 0 1.4276 -798.83 -1192.7)" fill="#2638c4">
   <path d="m515.2 826.1-1.5 0.3v2.8c0 0.9-0.8 1.7-1.7 1.7h-0.8v3.2h-2.5v-3.2h0.8c0.9 0 1.7-0.7 1.7-1.6v-2.8l1.5-0.3c0.3-0.1 0.4-0.3 0.4-0.6v-0.1l-3.9-7.5h2.5l3.9 7.5c0.1 0.2 0 0.5-0.2 0.7-0.1-0.2-0.2-0.1-0.2-0.1" clip-path="url(#b)"/>
   <path d="m510.2 825.4-3.9-7.5h-4c-3.7 0-6.8 3-6.7 6.7 0.1 2.7 1.8 4.8 4.3 5.6v3.8h6v-3.2h0.8c0.9 0 1.7-0.7 1.7-1.6v-2.8l1.5-0.3c0.3-0.1 0.4-0.3 0.4-0.6l-0.1-0.1m-5.1-0.5c-0.8 0-1.5-0.7-1.5-1.5s0.7-1.5 1.5-1.5 1.5 0.7 1.5 1.5-0.7 1.5-1.5 1.5" clip-path="url(#b)"/>
  </g>
 </g>
</svg>
