<svg width="872.05" height="585.14" version="1.1" xmlns="http://www.w3.org/2000/svg">
 <defs>
  <linearGradient id="linearGradient3693" x1="264.79" x2="264.79" y1="583.9" y2="630.27" gradientTransform="matrix(13.482 0 0 12.337 -2989.3 -7191.4)" gradientUnits="userSpaceOnUse">
   <stop stop-color="#194395" offset="0"/>
   <stop stop-color="#1749a6" offset="1"/>
  </linearGradient>
  <radialGradient id="radialGradient3695" cx="352.11" cy="857.25" r="214.62" gradientTransform="matrix(-9.6526e-6 .70807 -.74236 0 859.23 286.69)" gradientUnits="userSpaceOnUse">
   <stop stop-color="#ff9b24" offset="0"/>
   <stop stop-color="#e6701e" offset="1"/>
  </radialGradient>
  <radialGradient id="radialGradient3697" cx="352.11" cy="857.25" r="214.62" gradientTransform="matrix(-9.6526e-6 .70807 -.74236 0 859.23 286.69)" gradientUnits="userSpaceOnUse">
   <stop stop-color="#e02d55" offset="0"/>
   <stop stop-color="#b42842" offset="1"/>
  </radialGradient>
  <radialGradient id="radialGradient3699" cx="402.18" cy="615.66" r="214.62" gradientTransform="matrix(-9.6526e-6 .70807 -.74236 0 859.23 286.69)" gradientUnits="userSpaceOnUse">
   <stop stop-color="#8079bc" offset="0"/>
   <stop stop-color="#5a4f94" offset="1"/>
  </radialGradient>
  <radialGradient id="radialGradient3701" cx="352.16" cy="857.24" r="214.62" gradientTransform="matrix(-9.6526e-6 .70807 -.74236 0 859.23 286.69)" gradientUnits="userSpaceOnUse">
   <stop stop-color="#4b99d7" offset="0"/>
   <stop stop-color="#2575b2" offset="1"/>
  </radialGradient>
  <radialGradient id="radialGradient3703" cx="352.11" cy="857.25" r="214.62" gradientTransform="matrix(-9.6526e-6 .70807 -.74236 0 859.23 286.69)" gradientUnits="userSpaceOnUse">
   <stop stop-color="#50be55" offset="0"/>
   <stop stop-color="#0d9d31" offset="1"/>
  </radialGradient>
  <radialGradient id="radialGradient3705" cx="352.11" cy="857.25" r="214.62" gradientTransform="matrix(-9.6526e-6 .70807 -.74236 0 859.23 286.69)" gradientUnits="userSpaceOnUse">
   <stop stop-color="#f9e81a" offset="0"/>
   <stop stop-color="#ebaf13" offset="1"/>
  </radialGradient>
 </defs>
 <g transform="translate(-1.2919e-6 4.3241e-5)">
  <path d="m449.31-4.3241e-5 -106.44 324.1c26.849-0.41944 89.428-0.29854 107.35-0.29854h111.46l47.068-86.138 20.57 87.266h127.81l-114.64 76.091 25.644 103.05-91.524-64.815-107.87 60.305 54.397-99.106-102.77-78.983-105.4 114.74c17.256 51.579 82.589 115.98 131.3 129.03 34.783 9.32 63.806 19.896 129.95 19.896 52.06 0 78.548-4.4782 111.79-15.623 31.3-10.492 64.052-33.345 88.612-51.294 24.246-17.72 36.351-29.403 58.306-58.174 14.756-24.449 36.351-54.717 36.351-109.44 0.56353-24.553-3.1002-53.844-13.457-75.691-10.357-21.846-28.254-40.432-47.229-55.692-38.532-31.066-108.24-55.692-168.07-55.692-25.893 3.7e-4 -48.916 2.0717-69.042 6.2878-20.126 4.217-32.135 7.0425-49.409 16.169l22.91-65.943h302.5l22.552-118.92h-422.17z" fill="url(#linearGradient3693)"/>
  <path d="m223.07 348.12c-6.9543-17.325-23.898-36.037-55.636-33.467-40.424 4.384-53.025 43.035-46.915 66.092-16.101-10.876-43.478-15.66-67.377 4.7615-30.856 30.856-14.353 72.584 2.6126 82.595-18.694-1.7276-48.24 10.875-54.776 43.837-6.9543 40.927 24.321 64.786 54.776 64.786h337.69c35.216 0 54.754-30.39 52.563-59.053-3.4568-37.407-37.769-51.761-56.483-48.685 15.638-8.7038 36.522-49.588 4.763-81.732-25.206-23.92-57.345-15.216-68.642-4.7834 6.0897-19.981-3.8985-61.287-44.785-67.821-2.824-0.31482-5.5446-0.48554-8.1384-0.48554-31.213 5e-3 -45.247 22.764-49.653 33.955" fill="#fff"/>
  <path d="m58.768 392.02c-17.827 16.101-24.32 52.583 7.8204 73.91l128.22 87.755-62.17-142.09c-13.027-33.529-48.664-40.842-73.87-19.578" fill="url(#radialGradient3695)"/>
  <path d="m169.14 322.93c-20.844 0.4229-52.14 25.184-38.209 62.993l64.299 151.28 22.592-159.12c5.2282-39.538-24.761-57.789-48.681-55.155" fill="url(#radialGradient3697)"/>
  <path d="m227.86 372.02h12.159s6.4922 0 7.374 3.0558c-4.7834 3.8985-17.805 4.3856-16.079 25.206l20.442 136.9 63.859-151.68c13.064-33.866-14.355-62.15-38.675-63.014-1.1371-0.083-2.2758-0.14879-3.4552-0.14879-21.832 0-46.846 15.829-45.624 49.676" fill="url(#radialGradient3699)"/>
  <path d="m313.04 412.88-60.402 140.38 128.18-88.219c29.549-20.907 24.785-54.333 8.2433-70.855-6.9355-7.7766-19.665-13.783-33.15-13.783-15.935-3e-3 -32.984 8.4282-42.869 32.475" fill="url(#radialGradient3701)"/>
  <path d="m366.47 485.02-120.38 83.88h148.22c30.409 0 49.949-31.279 41.264-59.982-5.8172-18.04-23.035-32.203-43.015-32.223-8.4093 2e-3 -17.326 2.5295-26.091 8.3248" fill="url(#radialGradient3703)"/>
  <path d="m55.313 568.9h146.03l-120.4-83.88c-27.819-17.831-59.094-7.3975-70.389 22.189-9.57 33.871 14.33 61.691 44.763 61.691" fill="url(#radialGradient3705)"/>
 </g>
</svg>
