<svg width="800" height="371.06" version="1.1" xmlns="http://www.w3.org/2000/svg">
 <path d="m182.19 0.58208c-101.05 0-182.19 81.433-182.19 182.44s81.145 182.36 182.19 182.36c101.05 0 182.19-81.35 182.19-182.36s-81.145-182.44-182.19-182.44zm-55.048 85.815h30.019v53.135s7.6451-13.72 27.108-13.72c31.697 0 57.127 25.551 57.127 57.21 0 31.658-25.43 57.21-57.127 57.21s-57.127-25.551-57.127-57.21zm-64.361 39.415c31.697 0 57.127 25.551 57.127 57.21v55.88h-30.102v-12.473s-7.5619 13.72-27.025 13.72c-31.697 0-57.127-25.468-57.127-57.127 0-31.658 25.43-57.21 57.127-57.21zm240.65 0c27.382 0 50.038 19.056 55.713 44.654h-31.515c-4.5187-8.7612-13.619-14.801-24.198-14.801-15.112 0-27.275 12.251-27.275 27.358 0 15.106 12.162 27.275 27.275 27.275 10.547 0 19.582-5.9997 24.115-14.718h31.599c-5.698 25.566-28.354 44.571-55.713 44.571-31.697 0-57.127-25.468-57.127-57.127 0-31.658 25.43-57.21 57.127-57.21zm-240.65 29.852c-15.112 0-27.275 12.251-27.275 27.358 0 15.106 12.162 27.275 27.275 27.275 15.112 0 27.191-12.168 27.191-27.275 0-15.106-12.079-27.358-27.191-27.358zm121.49 0c-15.112 0-27.191 12.251-27.191 27.358 0 15.106 12.079 27.275 27.191 27.275s27.275-12.168 27.275-27.275c0-15.106-12.162-27.358-27.275-27.358z" fill="#015b99"/>
 <g transform="translate(0 231.62)" fill="#015b99">
  <path d="m365.43-152.99h36.88v287.47h79.434v-362.18h-96.455z"/>
  <path d="m655.24-231.62c-7.4931 0-14.871 0.5784-22.056 1.7086-62.264 9.7946-111.34 61.771-120.84 151.28-0.0239 0.20806 0.024 0.41288 0 0.62129-0.33748 3.2451-0.69993 6.4421-0.93193 9.7853-0.0106 0.15707 0.0106 0.3087 0 0.46597-0.23124 3.4063-0.5018 6.8992-0.6213 10.407-0.13225 3.6892-0.15514 7.3889-0.15514 11.183 0 3.7164 0.0298 7.4139 0.15514 11.028 5e-3 0.15383-5e-3 0.31233 0 0.46597 0.12479 3.4531 0.38471 6.8928 0.6213 10.251 0.0186 0.30523-0.0186 0.6276 0 0.93193 6.9052 102.57 60.974 155.55 129.07 162.16 0.0506 5e-3 0.10431-5e-3 0.15513 0 2.3815 0.22858 4.7305 0.50592 7.1448 0.6213 2.5181 0.13544 5.0603 0.1554 7.6108 0.1554 4.9945-5e-3 9.8915-0.25385 14.756-0.77662 68.099-6.6088 122.17-59.587 129.07-162.16 0.0186-0.30433-0.0186-0.62673 0-0.93193 0.23655-3.3585 0.49655-6.7982 0.6213-10.251 5e-3 -0.15364-5e-3 -0.31214 0-0.46597 0.12533-3.6139 0.15513-7.3115 0.15513-11.028 0-3.7943-0.024-7.494-0.15513-11.183-0.11921-3.5074-0.39017-7.0003-0.6213-10.407-0.0106-0.15726 0.0106-0.3089 0-0.46597-0.23204-3.3431-0.59469-6.5402-0.93191-9.7853-0.024-0.2084 0.024-0.41323 0-0.62129-9.5004-89.513-58.576-141.49-120.84-151.28-0.0503-8e-3 -0.10538 8e-3 -0.15513 0-2.3454-0.38237-4.7638-0.67335-7.1448-0.93194-0.0511-5e-3 -0.10378 5e-3 -0.15513 0-2.3813-0.25587-4.7309-0.49012-7.1448-0.62128-0.0511-3e-3 -0.10378 3e-3 -0.15513 0-2.4666-0.1313-4.9576-0.15541-7.4554-0.15541zm-1.0873 78.282c1.6086 0.0104 3.126 0.0534 4.6597 0.15532 47.542 3.1594 59.488 49.68 59.488 107.02 0 57.337-12.719 103.98-59.488 107.02-0.7552 0.04923-1.5568 0.12906-2.3299 0.1554-1.5802-0.0053-3.151-0.05721-4.6597-0.1554-46.769-3.0411-59.488-49.68-59.488-107.02 0-57.337 11.946-103.86 59.488-107.02 0.78367-0.0218 1.5286-0.16058 2.3298-0.15532z" fill-rule="evenodd"/>
 </g>
</svg>
