<svg width="800" height="292.67" version="1.1" viewBox="0 0 800 292.67" xml:space="preserve" xmlns="http://www.w3.org/2000/svg">
<path d="m551.39 167.8 102.61-8.9913 4.9452-39.449-110.03 6.1815-6.1815-29.559c42.709-2.9222 116.55 1.6859 116.55 1.6859l-12.363-42.259-135.43-5.0576-36.527 28.323c1.6859 4.4956 3.3717 10.115 5.0576 16.634-17.196-13.15-40.91-22.029-68.221-24.838-63.389-6.6311-120.15 10.452-141.73 55.072-16.859-45.518-36.977-92.835-47.204-125.54l-73.167 22.928c10.228 52.262 68.334 161.39 68.334 195.11 0 22.478-12.7 25.85-39 25.85s-79.573-31.245-103.4-55.634c1.0115 0-75.639 25.85-75.639 25.85 41.472 41.922 103.4 78.561 170.27 78.561 66.873 0 127.79-17.533 127.79-60.017 0-4.2709-0.33717-8.8789-1.0115-13.824 14.836 8.5417 35.403 15.173 63.501 18.095 66.873 6.9682 114.86-15.173 135.99-49.902 3.147 25.513 5.17 50.801 5.17 71.144l21.354-3.7089 150.27-25.513 20.568-48.441-140.04 19.668c-0.44957-9.4408-1.2363-20.118-2.4726-32.369zm-122.51-13.15c-6.4063 32.031-21.691 55.746-52.374 52.487-33.605-3.4841-39.449-24.501-33.268-55.521 6.9682-34.954 28.885-53.498 54.51-50.801 20.792 2.1354 37.539 21.804 31.132 53.835z" fill="#fff" stroke-width="1.1239"/><g fill="#e31b23" stroke-width="1.1239"><path d="m761 95.42v-17.083c-12.026 1.1239-29.446 5.2824-45.968 10.115 0-8.8789 0.22478-15.847 0.56195-19.219l-21.467 5.5072c-0.44957 4.9452-0.78674 12.251-1.0115 20.455-11.464 3.8213-20.343 7.0806-23.49 8.6541l3.0346 18.207c5.732-2.6974 12.7-5.3948 20.118-7.9798-0.22478 26.974 0.22479 55.634 0.22479 55.634l22.591-6.8559c0.11239-10.565-0.33717-34.392-0.44956-55.634 19.331-5.5072 38.101-9.778 45.856-11.801z"/><path d="m779.43 90.7c-7.4178 9.1037-30.008 56.982-30.008 56.982h-3.0346l-1.9106-39.337-21.804 5.2824c-0.56195 8.5417 3.8213 71.368 3.8213 71.368l26.974-1.3487c7.9798-19.556 39.112-82.046 46.53-93.397z"/></g>
</svg>
