<svg width="1374pt" height="752pt" version="1.1" viewBox="0 0 1374 752" xmlns="http://www.w3.org/2000/svg">
 <g fill="#b50000">
  <path d="m316.88-2.5e-4 -34.18 156.51c15.46-24.54 38.72-43.31 64.29-56.53 22.3-11.58 46.35-19.43 70.76-25.15 32.45-7.39 65.94-12.01 99.25-9.11 23.01 2.05 46.04 8.21 65.74 20.58 23.23 14.36 40.29 37.08 50.99 61.95 6.52 14.85 10.98 30.51 14.33 46.35l102.5 5.38 4.52-86.08c0.98-19.36 3.6-38.79 9.83-57.21 5.39-15.91 13.73-31.11 25.91-42.84 5.52-5.43 11.91-9.8702 18.52-13.85h239.53l-6.32 119.48-72.45-3.83c-10.52-0.57-21.26-0.97-31.53 1.75-5.24 1.37-10.29 4.12-13.49 8.6-4.86 6.61-6.12 15.01-6.58 23l-3.15 59.7 120.13 6.35-4.26 80.91 59.51-6.74-9.75-86.18c-2.16-18.85-2.75-38.02 0.2-56.82 2.41-15.21 7.3-30.23 15.79-43.18 7.15-10.99 16.87-20.23 28-27.14 18.68-11.57 40.46-17.03 62.1-19.51l164.34-18.65 14.08 123.92-79.04 9.01c-9.98 1.44-20.39 3.24-28.92 8.97-6.37 4.25-9.41 11.97-9.87 19.39-0.67 8.97 1.18 17.85 1.98 26.75l5.09 44.86 119.27-13.51v150.28l-102.47 11.61 37.4 332.98h-165.85l-35.55-314.4-105.04 11.88c-3.3-29.05-6.57-58.11-9.87-87.16l-85.22-4.43-19.57 372.1-164.81-8.71 5.71-108.32-147.33 29.15-17.35-62.57-2.91 0.57c-0.58 15.99-4.98 31.92-13.43 45.56-10.29 16.7-25.51 30.2-42.95 39.08-15.41 7.93-32.45 12.22-49.59 14.34-20.33 2.49-41.81 1.3-60.52-7.7-12.71-5.97-23.36-15.67-31.53-27-7.95 35.85-15.48 71.81-23.66 107.61h-44.08l-34.16-7.19-261.22-57.08v-53.05l138.63-634.68zm109.46 195.47c-3.35 11.41-1.86 23.53 0.37 35.01l12.17 61.4-156.68 31.07-11.7-59.04c-1.86-9.56-4.03-19.07-4.94-28.78l-70.75 323.56 142.68 31.16c-7.23-23.2-12.07-47.06-15.96-71.03-3.21-20.45-5.71-41.12-5.22-61.86 0.4-11.4 1.6-23.06 6.24-33.61 4.33-9.77 10.56-18.55 17.23-26.85 20.97-25.54 46.38-46.92 71.79-67.86 13.94-11.7 28.36-22.89 41.21-35.82 12.48-12.5 24.16-26.2 31.84-42.23 5.74-11.92 8.63-25.69 5.5-38.76-2.62-11.58-6.7-24-16.54-31.46-9.17-6.87-21.85-6.12-32-2-7.38 2.98-13.06 9.48-15.24 17.1zm303.33 397.83 12.98-244.19-64.59-3.4zm-252.14-179.73c-5.75 10.79-10.45 23.07-8.43 35.49l10.995 54.105c0.98404 5.0191 2.7634 9.4298 4.7755 13.945 2.91 6.57 7.34 13.01 14.16 15.94 8.73 3.74 18.74 2.23 27.48-0.72 8.29-2.81 15.27-9.7 17.13-18.41 3.04-13.59-0.05-27.52-2.7-40.91l-22.41-113.02c-14.31 17.33-30.21 33.68-41 53.58z" fill="#b50000"/>
 </g>
</svg>
