<svg width="1090.4pt" height="378.22pt" version="1.1" viewBox="0 0 1090.4 378.22" xmlns="http://www.w3.org/2000/svg">
 <defs>
  <radialGradient id="radialGradient946" cx="239.33" cy="188.63" r="467.21" gradientTransform="matrix(1.4505 0 0 1.5093 -92.054 -96.075)" gradientUnits="userSpaceOnUse">
   <stop stop-color="#f7ee79" offset="0"/>
   <stop stop-color="#f5c151" offset="1"/>
  </radialGradient>
 </defs>
 <g fill="url(#radialGradient946)">
  <path d="m0 3.1311e-5h64.71v305.54h87.265v66.39h-151.98z"/>
  <path d="m176.08 3.1311e-5h64.765v371.93h-64.765z"/>
  <path d="m735.02 3.1311e-5v64.95h67.376v306.98h64.649v-306.98h67.376v-64.95z"/>
  <path d="m369.04 4.005c57.446 0 101.93 43.858 101.93 99.92v19.26l-66.33-0.0503v-19.21c0-19.041-15.247-36.303-36.558-36.314-21.532 0-36.558 16.777-36.558 36.314v172.29c0 19.244 17.545 35.382 36.448 35.382 22.198 0 36.448-14.135 36.448-35.382v-56.617h-35.095v-64.62h101.76v121.24c0 61.199-46.019 101.05-101.3 101.05-56.694 0-101.3-42.46-101.3-101.05v-172.29c0-59.568 43.769-100.09 100.56-99.92z"/>
  <path d="m497.56 4.1546v367.78h64.235v-152.09h76.775v152.09h64.235v-367.78h-64.235v150.53h-76.775v-150.53z"/>
 </g>
 <g fill="#f7931b">
  <path d="m908.98 179.29h14.04v50.85h24.715v13.115h-24.715v128.67h-14.04v-128.67h-15.77v-13.115h15.77z"/>
  <path d="m961.01 228.87 64.645 149.35 0.049-0.11426 0.05 0.11426 64.645-149.35h-15.04l-49.655 115.72-49.655-115.72z"/>
 </g>
</svg>
