<svg width="800" height="345.07" space="preserve" version="1.1" viewBox="0 0 800 345.07" xmlns="http://www.w3.org/2000/svg">
 <path d="m93.297 262.44v-262.44h-93.297v290.81c0 29.957 24.3 54.258 54.258 54.258h152.1v-82.621z" fill="#fff" stroke-width=".79673"/>
 <path d="m709.01 5e-6v180.06l-138.31-180.06v345.07h11.075v-181.81l140.86 181.81h77.363v-345.07z" fill="#fff" stroke-width=".79673"/>
 <g fill="#fff">
  <path d="m301.32 0v149.38l11.074 16.793v-166.17h-11.074z" style="paint-order:markers stroke fill"/>
  <path class="st0" d="m222.85 345.07h-11.075v-345.07h11.075z" clip-path="url(#SVGID_2_)" stroke-width=".79673"/>
  <path class="st0" d="m240.77 345.07h-11.075v-345.07h11.075z" clip-path="url(#SVGID_2_)" stroke-width=".79673"/>
  <path class="st0" d="m258.7 345.07h-11.075v-345.07h11.075z" clip-path="url(#SVGID_2_)" stroke-width=".79673"/>
  <path class="st0" d="m276.63 345.07h-11.075v-345.07h11.075z" clip-path="url(#SVGID_2_)" stroke-width=".79673"/>
  <path d="m337.1 42.559v161.19l11.074 16.793v-158.96l-11.074-19.021z" clip-path="url(#SVGID_2_)" stroke-width=".79673"/>
  <path class="st0" d="m294.47 345.07h-11.075v-345.07h11.075z" clip-path="url(#SVGID_2_)" stroke-width=".79673"/>
  <path d="m319.25 11.906v164.78l11.074 16.793v-162.55l-11.074-19.021z" clip-path="url(#SVGID_2_)" stroke-width=".79673"/>
  <path d="m401.87 103.98-11.076 19.045v151.75l11.076-16.809v-153.99z" clip-path="url(#SVGID_2_)" stroke-width=".79673"/>
  <path d="m419.8 73.154-11.074 19.041v155.37l11.074-16.807v-157.61z" clip-path="url(#SVGID_2_)" stroke-width=".79673"/>
  <path d="m437.72 42.332-11.074 19.041v158.99l11.074-16.805v-161.22z" clip-path="url(#SVGID_2_)" stroke-width=".79673"/>
  <path d="m455.65 11.506-11.074 19.041v162.61l11.074-16.805v-164.84z" clip-path="url(#SVGID_2_)" stroke-width=".79673"/>
  <path d="m462.42 0v166.07l11.074-16.807v-149.27h-11.074z" clip-path="url(#SVGID_2_)" stroke-width=".79673"/>
  <path d="m355.02 73.35v157.58l11.076 16.793v-155.34l-11.076-19.025z" clip-path="url(#SVGID_2_)" stroke-width=".79673"/>
  <path d="m372.95 104.14v153.96l11.074 16.793v-151.73l-11.074-19.023z" clip-path="url(#SVGID_2_)" stroke-width=".79673"/>
  <path class="st0" d="m491.43 345.07h-11.075v-345.07h11.075z" clip-path="url(#SVGID_2_)" stroke-width=".79673"/>
  <path class="st0" d="m509.35 345.07h-11.075v-345.07h11.075z" clip-path="url(#SVGID_2_)" stroke-width=".79673"/>
  <path class="st0" d="m527.2 345.07h-11.075v-345.07h11.075z" clip-path="url(#SVGID_2_)" stroke-width=".79673"/>
  <path class="st0" d="m545.12 345.07h-11.075v-345.07h11.075z" clip-path="url(#SVGID_2_)" stroke-width=".79673"/>
  <path class="st0" d="m563.05 345.07h-11.075v-345.07h11.075z" clip-path="url(#SVGID_2_)" stroke-width=".79673"/>
 </g>
</svg>
