<svg width="800" height="606.9" version="1.1" viewBox="0 0 800 606.9" xmlns="http://www.w3.org/2000/svg">
 <defs>
  <linearGradient id="linearGradient835" x1="6.6818" x2="806.68" y1="-579.8" y2="27.092" gradientTransform="translate(-6.6818 579.8)" gradientUnits="userSpaceOnUse">
   <stop stop-color="#027e88" offset="0"/>
   <stop stop-color="#49a955" offset="1"/>
  </linearGradient>
 </defs>
 <path d="m0 334.95v-334.95h56.065v334.95zm104.35-25.399c-10.672-9.8007-19.133-21.604-25.382-35.409-6.2544-13.807-9.3757-29.174-9.3757-46.099 0-16.926 3.1213-32.292 9.3757-46.1 6.2491-13.807 14.711-25.61 25.382-35.409 10.673-9.7985 23.324-17.371 37.96-22.715 14.636-5.3466 30.187-8.0178 46.653-8.0178 16.461 0 32.013 2.6712 46.648 8.0178 14.636 5.3434 27.283 12.916 37.96 22.715 10.667 9.7986 19.128 21.602 25.382 35.409 6.2448 13.808 9.3757 29.174 9.3757 46.1 0 16.925-3.131 32.292-9.3757 46.099-6.2544 13.805-14.715 25.608-25.382 35.409-10.677 9.7985-23.324 17.369-37.96 22.715-14.635 5.3434-30.187 8.0156-46.648 8.0156-16.467 0-32.017-2.6721-46.653-8.0156-14.636-5.3455-27.287-12.916-37.96-22.715zm24.472-105.56c-2.9046 7.7238-4.3493 15.743-4.3493 24.052 0 8.316 1.4447 16.332 4.3493 24.051 2.8895 7.7248 7.1601 14.552 12.805 20.486 5.6356 5.944 12.418 10.69 20.35 14.253 7.9267 3.5637 16.922 5.3466 26.985 5.3466 10.059 0 19.049-1.7829 26.98-5.3466 7.9267-3.5626 14.711-8.3086 20.356-14.253 5.6356-5.9346 9.9008-12.762 12.805-20.486 2.8938-7.7196 4.3439-15.735 4.3439-24.051 0-8.3096-1.4501-16.328-4.3439-24.052-2.9046-7.7196-7.1698-14.545-12.805-20.489-5.6453-5.9367-12.429-10.69-20.356-14.254-7.931-3.5626-16.921-5.3434-26.98-5.3434-10.064 0-19.059 1.7808-26.985 5.3434-7.9321 3.5637-14.715 8.317-20.35 14.254-5.6453 5.944-9.9159 12.769-12.805 20.489zm227.07 105.56c-10.677-9.8007-19.139-21.604-25.382-35.409-6.2544-13.807-9.3768-29.174-9.3768-46.099 0-16.926 3.1224-32.292 9.3768-46.1 6.2437-13.807 14.705-25.61 25.382-35.409 10.667-9.7985 23.324-17.371 37.96-22.715 14.635-5.3466 30.181-8.0178 46.648-8.0178 14.023 0 28.128 2.6019 42.304 7.7941 14.18 5.1985 26.599 13.439 37.278 24.719l-37.96 36.968c-6.4032-6.5268-13.117-11.726-20.128-15.588-7.0156-3.8545-14.176-5.7897-21.493-5.7897-10.059 0-19.059 1.7808-26.985 5.3434-7.931 3.5637-14.711 8.317-20.35 14.254-5.6453 5.944-9.9105 12.769-12.805 20.489-2.8992 7.7238-4.3439 15.743-4.3439 24.052 0 8.316 1.4446 16.332 4.3439 24.051 2.8949 7.7248 7.1601 14.552 12.805 20.486 5.6399 5.944 12.419 10.69 20.35 14.254 7.9267 3.5626 16.926 5.3455 26.985 5.3455 8.5348 0 16.467-1.7052 23.784-5.1219 7.3175-3.4114 13.562-8.3874 18.747-14.92l36.59 38.303c-5.4868 5.3455-11.821 9.9529-18.98 13.807-7.1644 3.8619-14.409 6.9793-21.721 9.3523-7.3186 2.3729-14.34 4.0792-21.038 5.1229-6.7148 1.0373-12.509 1.5583-17.382 1.5583-16.467 0-32.013-2.6721-46.648-8.0156-14.636-5.3455-27.293-12.916-37.96-22.715zm198.78 14.696c-7.476-5.3434-13.492-12.017-18.065-20.035-4.5714-8.0178-6.8625-17.364-6.8625-28.054 0-11.579 2.1327-21.434 6.4032-29.604 4.2695-8.1648 9.9849-14.963 17.154-20.461 7.159-5.4904 15.472-9.8132 24.923-13.085 9.4501-3.2644 19.281-5.6007 29.499-7.2366 10.212-1.6296 20.504-2.4507 30.874-2.8969 10.361-0.4452 20.123-0.22378 29.267-0.22378h14.617v-6.6778c0-13.362-5.1784-23.382-14.624-30.063-9.4544-6.6811-21.942-10.022-36.577-10.022-11.594 0-22.414 2.0044-32.473 6.0133-10.064 4.0089-18.753 9.43-26.07 16.258l-28.812-28.061c12.191-12.172 26.444-20.935 42.757-26.278 16.308-5.3466 33.158-8.0178 50.535-8.0178 15.551 0 28.652 1.7125 39.33 5.1219 10.667 3.4167 19.499 7.7941 26.514 13.14 7.0113 5.3445 12.398 11.51 16.212 18.484 3.8102 6.9804 6.5132 14.03 8.1908 21.156 1.6723 7.1263 2.7624 14.029 3.0696 20.71 0.30199 6.6811 0.46458 12.547 0.46458 17.593v122.94h-48.518v-28.35h-2.2673c-7.931 12.6-17.995 20.479-30.187 25.971-12.196 5.4904-25.61 7.7101-40.246 7.7101-10.059 0-19.895-1.3345-29.499-4.0068-9.6043-2.6744-18.144-6.6811-25.611-12.028zm38.65-70.15c-5.7984 4.3081-8.6825 10.321-8.6825 18.041 0 5.0515 1.1622 9.283 3.448 12.691 2.2858 3.4188 5.2862 6.3126 8.9423 8.6856 3.6614 2.3805 7.8329 4.0866 12.404 5.1229 4.5714 1.0448 9.2561 1.5583 13.829 1.5583 18.9 0 33.064-4.3774 42.065-13.138 8.9898-8.7559 13.919-20.713 13.919-35.855v-12.852h-12.293c-7.6248 0-16.164 0.714-25.614 1.3041-9.4555 0.59955-18.371 2.4171-26.753 4.6431-8.3914 2.2281-15.475 5.4978-21.265 9.7985zm152.77 80.854v-334.95h53.908v334.95zm-453.84 65.632c6.0442-6.3671 13.321-11.466 21.827-15.288 8.5024-3.822 18.15-5.7319 28.944-5.7319 10.789 0 20.432 1.91 28.939 5.7319 8.5014 3.822 15.778 8.9207 21.833 15.288 6.0442 6.3756 10.619 13.696 13.735 21.975 3.104 8.2855 4.6598 16.885 4.6598 25.798 0 8.9207-1.5558 17.518-4.6598 25.797-3.1159 8.2845-7.6906 15.608-13.735 21.973-6.055 6.3756-13.332 11.466-21.833 15.288-8.5067 3.822-18.15 5.734-28.939 5.734-10.795 0-20.442-1.912-28.944-5.734-8.5068-3.822-15.783-8.9123-21.827-15.288-6.055-6.3651-10.635-13.689-13.735-21.973-3.1148-8.2792-4.6642-16.877-4.6642-25.797 0-8.9134 1.5494-17.513 4.6642-25.798 3.0997-8.2792 7.6798-15.6 13.735-21.975zm419.01 97.117-39.496-126h78.455l-37.976 126zm-163.35 0-39.501-126h77.32l-36.842 126zm192.78 67.2 59.308-176.36v218.36h-800v-42h61.456v-127.05c0-7.644 0.03771-14.968 2.0011-21.975 1.9633-7.0035 4.7127-13.213 9.1278-18.632 4.4151-5.4117 9.683-9.7114 16.39-12.9 6.6976-3.1783 14.762-4.7754 24.575-4.7754 28.174 0 37.821 21.95 39.857 46.099 0.65338 7.8088-0.30621 14.892-0.30621 21.259v117.98h59.299v-103.49c6.469 13.083 5.9828 25.212 11.045 36.391 6.704 14.807 16.775 27.465 28.223 37.977 11.447 10.509 25.318 18.624 41.016 24.358 15.698 5.7319 32.528 8.5879 50.19 8.5879 17.657 0 34.413-2.8864 50.111-8.6184 15.697-5.734 29.299-13.895 40.753-24.404 11.443-10.513 20.535-23.253 27.243-38.061 6.6976-14.809 10.066-31.454 10.066-49.607 0-3.2151-0.13689-5.0883-0.34837-8.1973l44.348 125.07h60.823l49.547-158.55h0.98113l55.92 158.55z" fill="url(#linearGradient835)" fill-rule="evenodd"/>
</svg>
