<svg width="767.39" height="790.44" version="1.1" viewBox="0 0 719.42 741.04" xmlns="http://www.w3.org/2000/svg">
 <g transform="translate(-50.476 54.293)">
  <path d="m721.84 249.57c13.456-3.5748 27.206 2.872 37.976 10.473 10.369 14.664 14.693 36.205 3.4648 51.622-16.949 20.47-55.975 14.743-65.071-10.743-6.5-19.607 4.8029-43.295 23.631-51.352" fill="#80e5ff"/>
  <path d="m633.2 310.43c-4.395 2.6863-9.313 4.5662-14.394 5.4237-13.13-1.8525-17.137-16.837-19.714-27.771-2.5518-18.151-6.3367-38.38 1.5597-55.648 9.6676-10.34 23.452-15.848 35.612-22.803 6.3964-3.9202 14.341 0.26978 17.165 6.6101 17.354 30.778 6.6885 72.462-20.228 94.189zm-159.23 120.89c-7.4691 54.196-15.85 108.56-31.292 161.15-5.7942 18.185-11.573 36.986-23.201 52.425-3.9763 5.5587-11.39 11.067-18.317 7.1465-11.145-8.0851-15.602-21.94-19.579-34.51-8.0568-29.303-11.094-59.817-11.927-90.111-0.67122-30.589 12.009-59.381 27.206-85.221 27.639-46.866 60.268-90.51 90.192-135.87-3.195 41.766-7.6863 83.448-13.082 125zm-14.509-165.66c-7.9446 10.612-17.775 22.589-31.845 23.958-9.0799-3.8137-8.1921-15.471-5.213-23.095 7.6014-19.337 17.485-38.624 33.489-52.349 8.8108-7.8691 19.506-13.135 30.143-18.019-0.27554 25.435-12.281 49.067-26.574 69.506zm-113.41 15.442c-4.5389 14.234-11.654 28.74-24.281 37.441-7.5202 5.1288-20.571 5.536-23.766-4.8086-7.6835-21.86-4.2748-45.655-3.3302-68.353 19.632-6.5791 39.532-12.245 59.459-17.859 1.2899 18.263-3.1388 36.176-8.082 53.58zm-18.371-102.49c5.1288-3.6252 13.295-2.577 16.786 2.7712 2.7367 4.3216 3.9482 9.3971 5.6964 14.153-18.132 7.1684-37.146 11.899-56.079 16.355 9.2914-12.758 20.004-24.978 33.597-33.279zm363.73 29.519c-4.1626-16.892-13.962-34.754-31.638-40.232-17.269-6.0166-34.937 2.7935-48.449 13.189-16.706 13.722-32.978 28.117-47.457 44.23-7.441 8.2734-16.678 14.588-25.14 21.704 0.96403-16.544 2.018-33.144 5.236-49.447 1.4273-6.095 0.48274-12.275-1.9029-17.968-9.6986-1.1806-22.833 2.2849-28.583-8.054-6.1453-8.3014-13.317-21.622-25.832-17.488-36.314 13.863-73.19 26.433-110.52 37.255-5.6935-16.519-15.521-32.793-32.253-39.937-19.66-8.9727-44.158-4.7827-60.46 9.1813-21.054 18.157-31.208 45.389-51.622 64.11-3.9705 4.564-10.094 9.0238-9.3468 15.822 5.2662 8.754 12.922 15.794 19.287 23.766-35.909 30.514-73.539 59.009-112.32 85.783-0.32374-17.668 1.8798-35.237 4.4878-52.667 9.8274-65.127 22.771-129.72 36.421-194.15 8.164-39.4 17.828-78.555 30.612-116.75 4.1928-11.095 3.4396-26.293-7.7058-32.983-16.032-8.4892-35.156-8.9209-52.777-6.5252-5.154 1.2086-11.387 0.99281-15.012 5.5036-3.7065 96.286-13.936 192.49-30.834 287.43-7.1971 37.062-13.829 74.607-27.796 109.84-3.6252 10.314-12.112 17.671-17.322 27.071 5.9072 13.7 16.519 24.848 29.943 31.345 12.14 6.3878 29.6 11.736 40.423 0.21079 41.873-37.705 83.423-75.812 127.25-111.29 4.7576 15.903 8.8662 34.086 23.314 44.18 10.581 8.2482 24.952 8.4108 37.627 6.3173 22.802-5.3 41.417-22.538 52.585-42.601 12.79-26.264 14.13-56.078 17.809-84.574 12.14-6.0424 24.686-11.227 36.848-17.188-19.124 26.13-34.889 57.661-32.686 90.886-0.1036 10.635 10.26 17.941 19.902 19.391 17.219 2.4928 33.628-6.2331 46.973-16.302 19.745-14.666 30.354-37.522 43.643-57.506-1.1295 13.081-3.5684 26.025-5.5273 39.029-40.237 44.286-79.367 89.751-114.58 138.18-21.409 30.733-42.758 62.447-53.878 98.545-5.6935 17.62-5.1561 36.632-1.2331 54.544 4.6986 22.19 11.654 43.919 20.678 64.7 6.1238 12.978 12.329 26.402 22.617 36.64 8.487 8.4898 20.49 11.244 31.34 15.338 24.067 1.3883 45.467-14.029 59.279-32.56 17.319-23.367 31.799-49.362 39.133-77.667 6.7108-23.34 10.98-47.277 15.17-71.15 13.107-78.56 19.986-157.98 30.188-236.94 3.3302-2.1223 6.6885-4.241 10.075-6.3122 1.7705 23.609 8.5374 47.566 23.072 66.575 12.599 15.288 34.721 14.993 52.425 11.258 24.548-5.882 41.98-26.158 54.224-47.081 14.529-25.329 19.874-55.972 14.313-84.656" fill="#fff"/>
 </g>
</svg>
