<svg width="800" height="402.58" version="1.1" viewBox="0 0 800 402.58" xmlns="http://www.w3.org/2000/svg">
 <path d="m709.31 118.3zc-3.2023 0.56417-5.9225 2.2915-7.6621 5.0566l-187.12 279.18h84.416c3.5235 0 6.4574-2.1679 8.8008-5.6914l145.09-214.87z" fill="#f6b119"/>
 <path d="m711.63 118.08c-0.7983 0-1.5677 0.0884-2.3184 0.22071l43.522 63.682 39.188-58.035c0.7717-1.2383 0.8821-2.7775 0.2949-4.1133-0.59-1.1689-2.057-1.7539-4.4003-1.7539z" fill="#f26f21"/>
 <g transform="translate(0 -.043015)">
  <path d="m330.69 350.66c-5.1598-16.942-20.795-28.514-38.505-28.5 1.3776-1.2591 2.6675-2.611 3.8607-4.0461 12.668-15.374 12.172-37.705-1.166-52.501s-35.498-17.599-52.099-6.5887c0.26971-1.256 0.48893-2.5288 0.64903-3.8185 2.5246-20.054-10.231-38.866-29.796-43.942s-39.857 5.1614-47.401 23.914c-7.5972-18.663-27.835-28.82-47.339-23.759-19.504 5.0609-32.25 23.777-29.815 43.779 0.15196 1.283 0.36864 2.5574 0.64904 3.8185-16.599-11.064-38.801-8.2883-52.165 6.523-13.364 14.811-13.85 37.18-1.1427 52.559 1.1886 1.4392 2.4788 2.7914 3.8607 4.0461-14.571-0.0222-28.015 7.8397-35.141 20.55-7.1257 12.71-6.8188 28.281 0.80223 40.7 7.621 12.42 21.364 19.745 35.923 19.149h248.73c13.013 0.52117 25.473-5.29 33.437-15.595 7.964-10.304 10.446-23.827 6.6616-36.288" fill="#fff"/>
  <path d="m148.09 395.41-89.25-60.245c-2.7467-1.8684-5.7549-3.32-8.9267-4.3074-17.389-5.1874-35.703 4.6459-40.985 22.007-5.2822 17.361 4.4511 35.727 21.783 41.104 3.3529 0.99642 6.8368 1.4823 10.334 1.4414z" fill="#f6b119"/>
  <path d="m46.372 267.21c-13.928 11.597-15.844 32.278-4.2821 46.235 2.1901 2.4872 4.6755 4.698 7.401 6.5833l91.627 61.45-43.234-101.15c-1.3068-3.1912-3.0794-6.171-5.2599-8.8424-11.6-13.936-32.294-15.848-46.252-4.2737" fill="#f26f21"/>
  <path d="m161.26 256.33c0.56607-3.268 0.66828-6.5995 0.30343-9.8961-0.84432-12.112-8.2952-22.772-19.379-27.726-11.084-4.9546-23.996-3.3969-33.584 4.0514-9.5877 7.4484-14.29 19.575-12.23 31.54 0.45514 3.3936 1.3889 6.7055 2.7733 9.8371l44.17 103.86z" fill="#c92029"/>
  <path d="m207.43 217.76c-17.996-2.1504-34.337 10.67-36.533 28.66-0.22424 1.871-0.28016 3.7582-0.16857 5.6393h10.554c2.5288 0 7.1312-0.16857 8.4294 2.8238-6.9374 4.3917-16.859 8.1428-15.586 19.674l15.013 93.423 44.17-103.86c1.3873-3.1312 2.3238-6.4431 2.7817-9.8371 2.1503-17.996-10.67-34.337-28.66-36.533" fill="#634ec6"/>
  <path d="m285.93 267.15c-6.7161-5.5428-15.36-8.1898-24.028-7.3582-8.6682 0.83156-16.651 5.0735-22.191 11.792-2.0219 2.6152-3.7201 5.4654-5.0576 8.4884l-43.293 101.47 91.29-61.357c2.8934-1.8801 5.4925-4.1781 7.7129-6.8194 11.514-13.995 9.5306-34.668-4.4338-46.218" fill="#0076c6"/>
  <path d="m184.45 395.41 89.25-60.245c2.7487-1.8702 5.76-3.3218 8.9351-4.3074 17.356-5.0854 35.57 4.7531 40.832 22.056 5.2623 17.303-4.3899 35.616-21.638 41.055-3.3529 0.99642-6.8368 1.4823-10.334 1.4414z" fill="#2fa841"/>
  <path d="m171.2 256.33c-0.57034-3.2676-0.67255-6.5997-0.30343-9.8961 0.84433-12.112 8.2952-22.772 19.379-27.726 11.084-4.9546 23.996-3.3969 33.584 4.0514s14.29 19.575 12.23 31.54c-0.45358 3.3949-1.3903 6.7074-2.7817 9.8371l-44.17 103.86z" fill="#634ec6"/>
  <path d="m166.23 402.55c-18.14 0-26.207-13.723-22.919-34.56 2.807-17.761 17.946-111.66 17.946-111.66 0.56607-3.268 0.66828-6.5995 0.30343-9.8961-0.32867-2.7495-1.0056-5.4461-2.0146-8.0248h13.361c-1.0062 2.5791-1.6803 5.2756-2.0062 8.0248-0.22375 1.871-0.28016 3.7582-0.16857 5.6393h10.554c2.5288 0 7.1312-0.16857 8.4294 2.8238-6.9374 4.3917-16.859 8.1428-15.586 19.674l15.013 93.423c3.2959 20.837-4.771 34.56-22.911 34.56z" fill="#fff"/>
 </g>
 <path d="m458.18 323.67c-3.8016-0.10114-2.7396-5.0572-2.8744-9.4489v-223.9c0-5.1082-0.17704-9.9776-0.53103-14.608-1.8208-24.243-8.3929-42.36-19.716-54.353-12.155-12.846-31.68-19.907-58.576-21.183l-3.8944-0.17702v312.17c0 35.178 6.3385 53.707 20.247 68.961 12.144 12.858 31.666 20.146 58.567 21.411l63.12-1e-5 54.774-78.866z"/>
 <path d="m799.33 396.66-183.69-272.9c-2.1474-3.4132-5.7286-5.2768-9.9804-5.2768h-76.286c-2.3434 0-3.8101 0.58441-4.4001 1.7533-0.58711 1.3357-0.47668 2.8752 0.29504 4.1135l184.27 272.9c2.3434 3.5235 5.2768 5.2852 8.8003 5.2852l76.294 2.2e-4c2.7424 1e-5 4.4058-0.58751 4.9902-1.762 0.58268-1.3365 0.47241-2.8738-0.29504-4.1135z"/>
</svg>
