<svg width="607.11" height="238.9" version="1.1" viewBox="0 0 607.11 238.9" xml:space="preserve" xmlns="http://www.w3.org/2000/svg">
<path class="st0" d="m258.5 220.23c22.663 29.062 97.719 8.6654 169.58-45.46-58.658 37.328-114.78 49.326-133.05 25.73-21.197-27.463 16.664-92.12 84.521-144.78 38.794-29.996 78.922-49.593 110.25-55.725-35.595-0.13332-89.187 22.797-140.51 62.657-73.456 57.325-114.12 127.85-90.787 157.58" fill="#ff8131" stroke-width="1.3331"/><path class="st2" d="m563.65 18.664c-22.663-29.062-97.719-8.5321-169.44 45.593 58.525-37.461 114.65-49.326 132.91-25.863 9.7319 12.531 7.0656 33.062-5.3326 56.525h27.863c20.397-31.595 26.663-59.991 13.998-76.255m-120.92 164.51c-38.794 30.129-78.922 49.593-110.25 55.725 35.595 0 89.187-22.797 140.51-62.791 7.4656-5.8658 14.665-11.865 21.464-17.997v-23.863c-14.131 16.531-31.595 33.328-51.726 48.926" fill="#0e3d69" stroke-width="1.3331"/>
<g transform="matrix(1.3331 0 0 1.3331 -27.329 -308.35)" fill="#fff"><path class="st1" d="m20.5 289.9h24v13.1h0.3c1.3-9.6 10-14.2 22.3-14.2h9.6c11.9 0 20 5.1 24.8 15.6 4.2-12.1 9.6-15.6 23.9-15.6h7.7c23 0 31.2 11.2 31.2 30.3v37.6h-25.2v-35.9c0-9.2-2.4-12.3-17.1-12.3-12.1 0-17.1 2.6-17.1 11.4v36.9h-25.1v-37.9c0-8.3-3-10.4-18.2-10.4-10.7 0-15.9 2.6-15.9 13v35.3h-25.2z"/><path class="st1" d="m386.3 290.3h25.2v10.7h0.3c4.4-9.3 13.2-11.8 26.7-11.8 15.6 0 37.4 0.7 37.4 29.5v38.4h-25.2v-38.4c0-6.6-5.2-9.9-16.2-9.9h-5.8c-10.8 0-17.2 5-17.2 14.6v33.7h-25.2z"/><path class="st1" d="m176.2 333.4v5.5c0 15.7 9.8 19.1 25.2 19h5.5c2.2-5 4.9-10.3 8.2-15.7h-1.2c-9.9 0-13.3-1.7-13.3-6 0-5.5 2.2-7.9 12.8-7.9h11.1c3-4 6.2-8 9.8-12.1-4.8-1.9-11.4-2.1-21.1-2.1-24.4 0-37 1-37 19.3m72.1 23.4h16.3v-33.7c-8.4 12.2-14.1 23.8-16.3 33.7m-10.2-67.9h-29.3c-21.2 0-30.1 3-30.1 21.1h24.4c0.3-4.7 2.4-5.4 9.7-5.4h14.8c8.2 0 10.9 1.7 11.6 6 5.2-5.7 10.9-11.3 17.1-16.9-4.4-3.1-10.5-4.8-18.2-4.8"/><path class="st1" d="m306.3 336.3c0 3.7 1.3 6.2 15.6 6.2h8.9c11.9 0 14.9-0.9 14.9-5 0-3.9-2-5.5-10.9-5.5h-23.6c-23.5-0.1-30.4-5.2-30.4-23.6 0-16.7 13.4-19.2 30.7-19.2h17.6c32.9 0 38.7 4.6 39 20.3h-25.2c-1.3-3.9-3.7-4.6-18.8-4.6-14.6 0-17.3 0.4-17.3 5 0 2.9 2 3.9 15.1 3.9h17.4c30.2 0 32.4 10.1 32.4 22 0 17.7-7.1 22.3-35.8 22.3h-23.9c-23.2 0-31.7-5.4-31.7-21.9h26z"/></g>
</svg>
