<svg width="800" height="103.56" version="1.1" viewBox="0 0 800 103.56" xml:space="preserve" xmlns="http://www.w3.org/2000/svg"><defs><clipPath id="clipPath224-7"><path d="m0 0h841.89v524.41h-841.89z"/></clipPath></defs><g transform="matrix(1.3333 0 0 -1.3333 626.34 739.33)"><g fill="#a0a2a0"><g transform="matrix(5.4597 0 0 5.4597 -449.57 534.3)"><path d="m0 0h2.821v-10.471h3.692v10.471h2.824v-10.471h3.701v10.754c0 2.266-1.439 3.36-3.808 3.36h-9.126c-2.367 0-3.802-1.189-3.802-3.448v-10.666h3.698z" fill="#a0a2a0"/></g><g transform="matrix(5.4597 0 0 5.4597 -256.03 496.43)"><path d="m0 0v7.048h9.847v3.533h-9.952c-2.445 0-3.728-1.299-3.728-3.337v-7.503c0-1.847 1.068-3.275 3.792-3.275h9.95v3.534z" fill="#a0a2a0"/></g><g transform="matrix(5.4597 0 0 5.4597 -283.13 497.65)"><path d="m0 0c0 2.499-2.069 3.629-4.436 3.785-0.2-0.022-0.393-0.034-0.577-0.034v-3.826h-6.362v6.749h6.362v-2.868c0.193 0 0.386-8e-3 0.577-0.021 1.629 0.177 3.59 1.103 3.59 3.187 0 2.289-1.762 3.342-4.57 3.384h-9.871v-14.115h9.957c2.812 0 5.33 1.03 5.33 3.759" fill="#a0a2a0"/></g><g transform="matrix(5.4597 0 0 5.4597 -310.51 518.13)"><path d="m0 0c0.185 0 0.378 0.013 0.577 0.034-0.191 0.013-0.383 0.021-0.577 0.021z" fill="#a0a2a0"/></g></g><g transform="matrix(5.4597 0 0 5.4597 116.88 554.5)"><path d="m0 0h-53.919v-14.226h56.366v11.711c0 1.388-1.093 2.515-2.447 2.515" fill="#cd206b"/></g><g transform="matrix(5.4597 0 0 5.4597 -76.401 529.05)"><path d="m0 0c-0.245 0.045-0.478 0.067-0.708 0.067-1.584 0-2.376-0.787-2.376-2.355v-5.075h-2.569v9.76h2.418v-1.173c0.214 0.326 0.435 0.584 0.667 0.767 0.226 0.187 0.46 0.33 0.703 0.428 0.242 0.101 0.493 0.163 0.751 0.186 0.256 0.018 0.514 0.029 0.772 0.029h0.342z" fill="#fff"/></g><g transform="matrix(5.4597 0 0 5.4597 -45.67 543.54)"><path d="m0 0c1.383 0 2.42-0.328 3.112-0.985 0.694-0.653 1.041-1.613 1.041-2.867v-6.165h-2.4c-0.028 0.112-0.056 0.234-0.085 0.365-0.027 0.128-0.049 0.269-0.064 0.426-0.313-0.325-0.722-0.573-1.221-0.736-0.5-0.164-1.077-0.248-1.734-0.248-0.983 0-1.773 0.246-2.368 0.727-0.59 0.485-0.886 1.156-0.886 2.015 0 0.668 0.11 1.207 0.332 1.605 0.221 0.4 0.53 0.713 0.932 0.942 0.401 0.229 0.872 0.402 1.424 0.512 0.549 0.115 1.145 0.214 1.786 0.302 0.514 0.069 0.918 0.183 1.211 0.341 0.292 0.16 0.439 0.381 0.439 0.663 0 0.372-0.173 0.65-0.514 0.834-0.343 0.187-0.721 0.279-1.136 0.279-0.455 0-0.837-0.13-1.144-0.394-0.31-0.266-0.489-0.619-0.546-1.06h-2.462c0.087 1.084 0.456 1.929 1.115 2.537 0.654 0.605 1.711 0.907 3.168 0.907m1.582-5.243c-0.256-0.213-0.707-0.389-1.348-0.513-0.886-0.174-1.486-0.378-1.798-0.61-0.315-0.237-0.471-0.562-0.471-0.976 0-0.725 0.386-1.089 1.154-1.089 0.329 0 0.648 0.045 0.954 0.136 0.307 0.093 0.575 0.231 0.802 0.415 0.23 0.19 0.413 0.424 0.547 0.712 0.135 0.285 0.202 0.611 0.202 0.983 0 0.117-1e-3 0.272-9e-3 0.472-9e-3 0.2-0.02 0.358-0.033 0.47" fill="#fff"/></g><g transform="matrix(5.4597 0 0 5.4597 -.93066 534.3)"><path d="m0 0c0.329 0.642 0.725 1.086 1.189 1.331 0.464 0.244 1.017 0.361 1.66 0.361 0.654 0 1.181-0.114 1.573-0.352 0.392-0.235 0.774-0.637 1.145-1.21 0.514 1.044 1.392 1.562 2.632 1.562 0.487 0 0.938-0.083 1.351-0.256 0.412-0.171 0.767-0.401 1.061-0.694 0.291-0.293 0.52-0.636 0.683-1.04 0.163-0.4 0.247-0.822 0.247-1.261v-6.766h-2.527v5.91c0 0.599-0.137 1.079-0.417 1.442-0.278 0.367-0.647 0.548-1.104 0.548-0.469 0-0.863-0.196-1.175-0.589-0.317-0.392-0.471-0.89-0.471-1.489v-5.822h-2.571v5.863c0 0.787-0.116 1.312-0.353 1.577-0.234 0.264-0.63 0.396-1.187 0.396-1.057 0-1.586-0.637-1.586-1.902v-5.934h-2.568v9.761h2.418z" fill="#fff"/></g><g transform="matrix(5.4597 0 0 5.4597 95.136 543.54)"><path d="m0 0c1.383 0 2.423-0.328 3.115-0.985 0.694-0.653 1.04-1.613 1.04-2.867v-6.165h-2.397c-0.029 0.112-0.057 0.234-0.088 0.365-0.029 0.128-0.049 0.269-0.065 0.426-0.313-0.325-0.721-0.573-1.222-0.736-0.497-0.164-1.076-0.248-1.731-0.248-0.985 0-1.775 0.246-2.367 0.727-0.591 0.485-0.888 1.156-0.888 2.015 0 0.668 0.112 1.207 0.335 1.605 0.22 0.4 0.53 0.713 0.93 0.942 0.398 0.229 0.875 0.402 1.424 0.512 0.547 0.115 1.144 0.214 1.785 0.302 0.512 0.069 0.917 0.183 1.212 0.341 0.29 0.16 0.437 0.381 0.437 0.663 0 0.372-0.171 0.65-0.512 0.834-0.341 0.187-0.719 0.279-1.137 0.279-0.456 0-0.838-0.13-1.145-0.394-0.307-0.266-0.489-0.619-0.547-1.06h-2.459c0.084 1.084 0.455 1.929 1.112 2.537 0.656 0.605 1.713 0.907 3.168 0.907m1.584-5.243c-0.256-0.213-0.705-0.389-1.347-0.513-0.885-0.174-1.486-0.378-1.8-0.61-0.311-0.237-0.469-0.562-0.469-0.976 0-0.725 0.385-1.089 1.155-1.089 0.329 0 0.645 0.045 0.952 0.136 0.308 0.093 0.575 0.231 0.804 0.415 0.228 0.19 0.407 0.424 0.545 0.712 0.137 0.285 0.203 0.611 0.203 0.983 0 0.117-3e-3 0.272-0.011 0.472s-0.017 0.358-0.032 0.47" fill="#fff"/></g><g transform="matrix(5.4597 0 0 5.4597 -119.11 527.47)"><path d="m0 0c-0.232 0.619-0.562 1.149-0.987 1.583-0.423 0.436-0.93 0.77-1.509 1.002-0.574 0.224-1.213 0.338-1.9 0.338h-4.023v-6.64h2.668v4.25h1.094c0.824 0 1.405-0.189 1.734-0.562 0.339-0.386 0.512-1.072 0.512-2.036 0-0.994-0.173-1.733-0.504-2.193-0.311-0.425-0.826-0.635-1.572-0.635h-0.616v-2.359h1.013c0.668 0 1.28 0.134 1.824 0.393 0.541 0.253 1.014 0.615 1.403 1.072 0.386 0.453 0.69 1.007 0.899 1.644 0.207 0.627 0.31 1.324 0.31 2.078 0 0.757-0.119 1.451-0.346 2.065" fill="#fff"/></g><path d="m-150.51 487.88h-14.561v15.522h14.561z" fill="#fff"/><g transform="matrix(5.4597 0 0 5.4597 -775.27 -951.37)"><g clip-path="url(#clipPath224-7)"><g transform="translate(128 271.15)"><path d="m0 0c-0.245 0.045-0.478 0.067-0.708 0.067-1.584 0-2.376-0.787-2.376-2.355v-5.075h-2.569v9.76h2.418v-1.173c0.214 0.326 0.435 0.584 0.667 0.767 0.226 0.187 0.46 0.33 0.703 0.428 0.242 0.101 0.493 0.163 0.751 0.186 0.256 0.018 0.514 0.029 0.772 0.029h0.342z" fill="#fff"/></g><g transform="translate(133.63 273.81)"><path d="m0 0c1.383 0 2.42-0.328 3.112-0.985 0.694-0.653 1.041-1.613 1.041-2.867v-6.165h-2.4c-0.028 0.112-0.056 0.234-0.085 0.365-0.027 0.128-0.049 0.269-0.064 0.426-0.313-0.325-0.722-0.573-1.221-0.736-0.5-0.164-1.077-0.248-1.734-0.248-0.983 0-1.773 0.246-2.368 0.727-0.59 0.485-0.886 1.156-0.886 2.015 0 0.668 0.11 1.207 0.332 1.605 0.221 0.4 0.53 0.713 0.932 0.942 0.401 0.229 0.872 0.402 1.424 0.512 0.549 0.115 1.145 0.214 1.786 0.302 0.514 0.069 0.918 0.183 1.211 0.341 0.292 0.16 0.439 0.381 0.439 0.663 0 0.372-0.173 0.65-0.514 0.834-0.343 0.187-0.721 0.279-1.136 0.279-0.455 0-0.837-0.13-1.144-0.394-0.31-0.266-0.489-0.619-0.546-1.06h-2.462c0.087 1.084 0.456 1.929 1.115 2.537 0.654 0.605 1.711 0.907 3.168 0.907m1.582-5.243c-0.256-0.213-0.707-0.389-1.348-0.513-0.886-0.174-1.486-0.378-1.798-0.61-0.315-0.237-0.471-0.562-0.471-0.976 0-0.725 0.386-1.089 1.154-1.089 0.329 0 0.648 0.045 0.954 0.136 0.307 0.093 0.575 0.231 0.802 0.415 0.23 0.19 0.413 0.424 0.547 0.712 0.135 0.285 0.202 0.611 0.202 0.983 0 0.117-1e-3 0.272-9e-3 0.472-9e-3 0.2-0.02 0.358-0.033 0.47" fill="#fff"/></g><g transform="translate(141.83 272.11)"><path d="m0 0c0.329 0.642 0.725 1.086 1.189 1.331 0.464 0.244 1.017 0.361 1.66 0.361 0.654 0 1.181-0.114 1.573-0.352 0.392-0.235 0.774-0.637 1.145-1.21 0.514 1.044 1.392 1.562 2.632 1.562 0.487 0 0.938-0.083 1.351-0.256 0.412-0.171 0.767-0.401 1.061-0.694 0.291-0.293 0.52-0.636 0.683-1.04 0.163-0.4 0.247-0.822 0.247-1.261v-6.766h-2.527v5.91c0 0.599-0.137 1.079-0.417 1.442-0.278 0.367-0.647 0.548-1.104 0.548-0.469 0-0.863-0.196-1.175-0.589-0.317-0.392-0.471-0.89-0.471-1.489v-5.822h-2.571v5.863c0 0.787-0.116 1.312-0.353 1.577-0.234 0.264-0.63 0.396-1.187 0.396-1.057 0-1.586-0.637-1.586-1.902v-5.934h-2.568v9.761h2.418z" fill="#fff"/></g><g transform="translate(159.42 273.81)"><path d="m0 0c1.383 0 2.423-0.328 3.115-0.985 0.694-0.653 1.04-1.613 1.04-2.867v-6.165h-2.397c-0.029 0.112-0.057 0.234-0.088 0.365-0.029 0.128-0.049 0.269-0.065 0.426-0.313-0.325-0.721-0.573-1.222-0.736-0.497-0.164-1.076-0.248-1.731-0.248-0.985 0-1.775 0.246-2.367 0.727-0.591 0.485-0.888 1.156-0.888 2.015 0 0.668 0.112 1.207 0.335 1.605 0.22 0.4 0.53 0.713 0.93 0.942 0.398 0.229 0.875 0.402 1.424 0.512 0.547 0.115 1.144 0.214 1.785 0.302 0.512 0.069 0.917 0.183 1.212 0.341 0.29 0.16 0.437 0.381 0.437 0.663 0 0.372-0.171 0.65-0.512 0.834-0.341 0.187-0.719 0.279-1.137 0.279-0.456 0-0.838-0.13-1.145-0.394-0.307-0.266-0.489-0.619-0.547-1.06h-2.459c0.084 1.084 0.455 1.929 1.112 2.537 0.656 0.605 1.713 0.907 3.168 0.907m1.584-5.243c-0.256-0.213-0.705-0.389-1.347-0.513-0.885-0.174-1.486-0.378-1.8-0.61-0.311-0.237-0.469-0.562-0.469-0.976 0-0.725 0.385-1.089 1.155-1.089 0.329 0 0.645 0.045 0.952 0.136 0.308 0.093 0.575 0.231 0.804 0.415 0.228 0.19 0.407 0.424 0.545 0.712 0.137 0.285 0.203 0.611 0.203 0.983 0 0.117-3e-3 0.272-0.011 0.472s-0.017 0.358-0.032 0.47" fill="#fff"/></g><g transform="translate(120.18 270.86)"><path d="m0 0c-0.232 0.619-0.562 1.149-0.987 1.583-0.423 0.436-0.93 0.77-1.509 1.002-0.574 0.224-1.213 0.338-1.9 0.338h-4.023v-6.64h2.668v4.25h1.094c0.824 0 1.405-0.189 1.734-0.562 0.339-0.386 0.512-1.072 0.512-2.036 0-0.994-0.173-1.733-0.504-2.193-0.311-0.425-0.826-0.635-1.572-0.635h-0.616v-2.359h1.013c0.668 0 1.28 0.134 1.824 0.393 0.541 0.253 1.014 0.615 1.403 1.072 0.386 0.453 0.69 1.007 0.899 1.644 0.207 0.627 0.31 1.324 0.31 2.078 0 0.757-0.119 1.451-0.346 2.065" fill="#fff"/></g></g></g><path d="m-150.51 487.88h-14.561v15.522h14.561z" fill="#fff"/></g></svg>
