<svg width="800" height="224.71" version="1.1" viewBox="0 0 211.67 59.455" xmlns="http://www.w3.org/2000/svg">
 <g transform="translate(16.236 -68.405)">
  <g transform="matrix(6.0719 0 0 -6.0719 -1403.3 2216)">
   <g transform="translate(230.5 353.68)">
    <path d="m0 0h-2.062v-9.779h2.964v5.704l2.378-2.287c0.173-0.167 0.314-0.107 0.314 0.133v3.231l-2.693 2.591c-0.22 0.249-0.542 0.407-0.901 0.407" fill="#f25d1c"/>
   </g>
   <g transform="translate(238.23 353.68)">
    <path d="m0 0c-0.36 0-0.681-0.158-0.902-0.407l-2.692-2.591v-3.231c0-0.24 0.142-0.3 0.314-0.133l2.378 2.287v-5.704h2.964v9.779z" fill="#f25d1c"/>
   </g>
   <g transform="translate(263.29 353.69)">
    <path d="m0 0h-2.968v-5.421l-3.896 4.897-0.127 0.146c-0.311 0.311-0.566 0.369-0.854 0.378h-2.364v-9.791h2.962v5.421s3.969-4.927 3.981-4.941c0.012-0.013 0.044-0.048 0.057-0.061 0.014-0.014 0.075-0.073 0.095-0.092 0.238-0.225 0.571-0.308 0.84-0.323l2.274-4e-3z" fill="#f25d1c"/>
   </g>
   <g transform="translate(248.36 345.98)">
    <path d="m0 0h-3.665v1.751h3.665c0.484 0 0.877-0.392 0.877-0.876 0-0.483-0.393-0.875-0.877-0.875m-3.665 5.656h3.286c0.453 0 0.82-0.367 0.82-0.819s-0.367-0.819-0.82-0.819h-3.286zm6.068-2.692c0.607 0.489 0.996 1.236 0.996 2.075 0 1.397-1.199 2.533-2.574 2.645-0.117 0.016-0.256 0.02-0.266 0.02h-7.197v-9.788l7.595 1e-3c0.305 5e-3 0.328 0.013 0.344 0.014 1.428 0.058 2.556 1.219 2.556 2.658 0 1.036-0.591 1.932-1.454 2.375" fill="#f25d1c"/>
   </g>
  </g>
 </g>
</svg>
