<svg enable-background="new 0 0 116.1 23.9" version="1.1" viewBox="0 0 116.1 23.9" xml:space="preserve" xmlns="http://www.w3.org/2000/svg">
		<path d="M0,5.4h6.6v2h0.1C7.9,5.7,10,4.8,12.1,5c2.9,0,4.1,1,4.9,2.5c1.3-1.7,3.3-2.6,5.4-2.5c3.3,0,5.9,1.4,5.9,5v10.2h-6.8v-8.4    c0-1.5-0.6-2-1.8-2c-1.4,0-2.3,0.7-2.3,2.5v7.9h-6.6v-8.4c0-1.5-0.6-2-1.8-2c-1.4,0-2.3,0.7-2.3,2.5v7.9H0V5.4z"/>
		<path d="m34.6 11.9c0.3-1.9 1.7-2.6 4.1-2.6s3.9 1 4 2.6h-8.1zm7.6 4.8c-0.7 0.9-1.8 1.3-3.5 1.3-3 0-4.1-1.6-4.1-2.7h14.9c0.1-7.4-4.7-9.6-11.3-9.6s-10.6 2.9-10.6 8c0 5.4 4.1 8 11.2 8 2.5 0.1 4.9-0.4 7.2-1.3 1.6-0.7 2.8-2 3.4-3.7h-7.2z"/>
		<path d="m62.9 8.4c0 1.6-1 3-3.9 3s-3.8-1.4-3.8-3 1.1-2.9 3.8-2.9 3.9 1.4 3.9 2.9zm0 6.7c0 2-0.9 3-3.7 3-0.8 0.1-1.5-0.1-2.2-0.3-0.4-0.2-0.8-0.6-0.8-1.1h-7.5c0.7 3.7 3.3 5.2 10.7 5.2 6.8 0 10.3-1.8 10.3-6.6v-13.7h-6.5v1.7c-1.8-1.5-4-2.3-6.2-2.1-5 0-9 2.5-9 7.1s3.1 7.1 9 7.1c2.4 0 4.5-0.4 5.9-1.6v1.3z"/>
		<path d="m83.4 14.4c0 2.5-2.5 3.1-4.8 3.1-1.7 0-2.5-0.6-2.5-1.7s0.6-1.4 1.8-1.5c2.4-0.2 4.3-0.4 5.5-0.6v0.7zm-6.7-4.2c0.3-1.4 1.9-1.7 3.4-1.7 1.9 0 3.1 0.5 3.1 1.5 0 0.8-0.5 1.1-1.8 1.2l-5.7 0.3c-5 0.2-6.9 1.9-6.9 4.7 0 3.8 2.9 5 7.4 5 3.6 0 5.9-0.6 7.4-2.1 0 0.5 0.1 1 0.3 1.5h6.9c-0.4-0.7-0.7-1.5-0.6-2.3v-7.2c0-4.4-2.7-6-9.6-6-3.6 0-6 0.3-7.7 1-1.6 0.7-2.7 2.3-2.9 4.1h6.7z"/>
			<linearGradient id="SVGID_1_" x1="96.02" x2="96.02" y1="33.07" y2="7.72" gradientTransform="matrix(1 0 0 -1 0 26)" gradientUnits="userSpaceOnUse">
			<stop stop-color="#fff" offset="0"/>
			<stop stop-color="#009AD4" offset="1"/>
		</linearGradient>
		<path d="m98.4 23.3c-0.3-0.2-0.5-0.5-0.7-0.8s-0.4-0.6-0.4-1c-0.1-0.4-0.2-0.8-0.2-1.2v-17c0-0.4 0.1-0.8 0.2-1.2s0.2-0.7 0.4-1 0.4-0.5 0.7-0.8c0.3-0.2 0.6-0.4 0.9-0.5l-4.4 1.7c-0.3 0.1-0.6 0.3-0.8 0.4-0.2 0.2-0.5 0.4-0.6 0.7-0.3 0.4-0.4 0.7-0.5 1s-0.1 0.7-0.2 1v14.6c0 0.3 0.1 0.7 0.2 1s0.2 0.6 0.4 0.9 0.4 0.5 0.6 0.7 0.5 0.3 0.8 0.4l4.4 1.6c-0.3-0.1-0.6-0.3-0.8-0.5z" fill="url(#SVGID_1_)"/>
		<path d="m114.8 4.3c0.2 0.1 0.4 0.2 0.5 0.4 0.2 0.2 0.3 0.4 0.4 0.7l0.3 0.9c0.1 0.3 0.1 0.7 0.1 1v9.4c0 0.3 0 0.7-0.1 1l-0.3 0.9c-0.1 0.2-0.3 0.5-0.4 0.7s-0.3 0.3-0.5 0.4l-14 4.2c-0.4 0.1-0.9 0.2-1.4 0.1-0.4-0.1-0.9-0.3-1.2-0.6-0.4-0.3-0.7-0.7-0.8-1.2-0.2-0.5-0.4-1.1-0.4-1.6v-17.1c0-0.6 0.1-1.1 0.3-1.7 0.2-0.5 0.5-0.9 0.8-1.2s0.8-0.5 1.2-0.6c0.5-0.1 0.9-0.1 1.4 0.1l14.1 4.2z" fill="none"/>
		<path d="m114.8 4.3-14-4.2c-0.5-0.1-1-0.1-1.5 0-0.4 0.1-0.8 0.3-1.2 0.6s-0.7 0.7-0.8 1.2c-0.2 0.5-0.3 1.1-0.3 1.6v16.8c0 0.6 0.1 1.1 0.3 1.7 0.2 0.5 0.5 0.9 0.8 1.2s0.7 0.5 1.2 0.6 0.9 0.1 1.4-0.1l14-4.2c0.2-0.1 0.4-0.2 0.5-0.4 0.2-0.2 0.3-0.4 0.4-0.7l0.3-0.9c0.1-0.3 0.1-0.7 0.1-1v-9.3c0-0.3 0-0.7-0.1-1l-0.3-0.9c-0.1-0.2-0.3-0.5-0.4-0.7-0.1-0.1-0.3-0.2-0.4-0.3" fill="#009AD4"/>
		<path d="m114.3 5.1-13.8-3.7c-0.6-0.2-1.2 0-1.6 0.4-0.2 0.2-0.4 0.5-0.5 0.8-0.1 0.4-0.2 0.7-0.2 1.1v16.4c0 0.4 0.1 0.7 0.2 1.1 0.1 0.3 0.3 0.6 0.5 0.8s0.5 0.3 0.8 0.4 0.6 0.1 0.9 0l13.8-3.7c0.1 0 0.3-0.1 0.3-0.2 0.1-0.1 0.2-0.3 0.3-0.4 0.1-0.2 0.1-0.4 0.2-0.6 0-0.2 0.1-0.5 0.1-0.7v-9.8c0-0.2 0-0.5-0.1-0.7 0-0.2-0.1-0.4-0.2-0.6s-0.2-0.3-0.3-0.4c-0.2-0.1-0.3-0.2-0.4-0.2"/>
			<linearGradient id="SVGID_2_" x1="98.784" x2="118.64" y1="22.64" y2=".82" gradientTransform="matrix(1 0 0 -1 0 26)" gradientUnits="userSpaceOnUse">
			<stop stop-color="#fff" offset="0"/>
			<stop stop-color="#009AD4" offset="1"/>
		</linearGradient>
		<path d="m112.1 8.7-1 5.5-1.1-5.8-3.3-0.4-1-0.1v-3.3l-4.2-0.9v3.8l-2.2-0.3v3.1l2.2 0.1v5.9c0 0.7 0.1 1.4 0.4 2 0.2 0.4 0.5 0.7 0.9 0.9s0.8 0.2 1.2 0.2 0.8-0.1 1.3-0.2l0.6-0.1 1.2-0.4 0.5-0.1v-3h-1.3c-0.1 0-0.3-0.1-0.3-0.2-0.1-0.1-0.2-0.3-0.2-0.4v-4.4l1.7 0.1 2.1 7.6 3.1-0.7 1.9-8.6-2.5-0.3z" fill="url(#SVGID_2_)"/>
</svg>
