<svg width="21.018" height="18.993" version="1.0" xmlns="http://www.w3.org/2000/svg">
 <g transform="translate(-7.2368 -1029.4)">
  <g transform="matrix(1 0 0 -1 -381.86 1338.7)" clip-path="url(#id3181)">
   <path d="m391.64 290.38h-0.352l-0.01 1.487-0.908-1.231-0.905 1.242-9e-3 -0.011v-1.487h-0.352v1.806h0.531l0.737-1.022 0.737 1.022h0.531z" fill="#ef5223"/>
   <path d="m394.2 290.38h-1.945v1.806h1.878v-0.319h-1.526v-0.388h1.061v-0.319h-1.061v-0.461h1.593z" fill="#ef5223"/>
   <path d="m396.71 290.38h-0.442l-0.723 0.707-0.719-0.707h-0.443l0.945 0.917-0.912 0.889h0.443l0.69-0.682 0.685 0.682h0.443l-0.907-0.889z" fill="#ef5223"/>
   <path d="m397.41 290.38h-0.352v1.806h0.352z" fill="#ef5223"/>
   <path d="m400.19 291.76-0.323-0.111c-0.194 0.191-0.439 0.286-0.737 0.286-0.256 0-0.461-0.059-0.614-0.177-0.152-0.119-0.229-0.271-0.229-0.459 0-0.193 0.077-0.349 0.229-0.466 0.153-0.117 0.36-0.176 0.62-0.176 0.301 0 0.547 0.099 0.737 0.295l0.302-0.161c-0.266-0.3-0.616-0.449-1.049-0.449-0.36 0-0.651 0.089-0.874 0.268-0.222 0.18-0.333 0.409-0.333 0.689 0 0.292 0.126 0.53 0.379 0.714 0.219 0.161 0.489 0.241 0.808 0.241 0.448 0 0.81-0.165 1.084-0.494" fill="#ef5223"/>
   <path d="m402.82 290.38h-0.389l-0.208 0.389h-1.211l-0.208-0.389h-0.39l0.984 1.806h0.438zm-0.774 0.708-0.427 0.796-0.43-0.796z" fill="#ef5223"/>
   <path d="m405.27 290.38h-0.527l-1.229 1.507v-1.507h-0.352v1.806h0.524l1.232-1.512v1.512h0.352z" fill="#ef5223"/>
   <path d="m408.02 290.38h-0.39l-0.208 0.389h-1.211l-0.208-0.389h-0.39l0.984 1.806h0.438zm-0.775 0.708-0.427 0.796-0.43-0.796z" fill="#ef5223"/>
   <path d="m410.12 290.38h-1.748v1.806h0.352v-1.487h1.396z" fill="#ef5223"/>
   <path d="m394.81 303.08c0 0.215 0.176 0.392 0.392 0.392h0.739c0.216 0 0.435-0.171 0.488-0.379l0.384-1.512c0.053-0.209 0.139-0.209 0.192 0l0.385 1.512c0.052 0.208 0.272 0.379 0.487 0.379h0.734c0.215 0 0.391-0.177 0.391-0.392v-2.946c0-0.216-0.176-0.391-0.391-0.391h-0.164c-0.215 0-0.391 0.175-0.391 0.391v2.059c0 0.216-0.043 0.221-0.096 0.012l-0.53-2.083c-0.053-0.209-0.273-0.379-0.488-0.379h-0.073c-0.215 0-0.435 0.17-0.488 0.379l-0.529 2.083c-0.053 0.209-0.096 0.204-0.096-0.012v-2.059c0-0.216-0.176-0.391-0.391-0.391h-0.163c-0.216 0-0.392 0.175-0.392 0.391z" fill="#f15b22"/>
   <path d="m399.46 303.14c-0.118 0.181-0.039 0.328 0.177 0.328h0.483c0.215 0 0.479-0.153 0.588-0.339l0.273-0.47c0.108-0.186 0.282-0.185 0.387 3e-3l0.259 0.464c0.105 0.188 0.367 0.342 0.583 0.342h0.475c0.216 0 0.297-0.148 0.18-0.329l-0.738-1.148c-0.116-0.181-0.114-0.477 5e-3 -0.656l0.838-1.27c0.119-0.18 0.04-0.326-0.176-0.326h-0.51c-0.215 0-0.484 0.149-0.597 0.333l-0.328 0.531c-0.113 0.184-0.297 0.184-0.41 0l-0.328-0.531c-0.113-0.184-0.381-0.333-0.597-0.333h-0.503c-0.215 0-0.294 0.146-0.175 0.326l0.854 1.291c0.119 0.179 0.12 0.473 2e-3 0.653z" fill="#f15b22"/>
   <path d="m404.04 307.36c1.639-1.467 2.574-3.547 2.574-5.755 0-2.144-0.867-4.145-2.405-5.599 0.254 0.309 0.285 0.691-0.345 1.325l-1.176 0.979s-0.274-0.332-0.708-0.668c1.233 0.959 1.938 2.405 1.938 3.963 0 1.504-0.667 2.916-1.829 3.878 0.525-0.433 1.131-0.244 1.758 0.217l0.958 0.864s-0.403 0.464-0.765 0.796" fill="#f15b22"/>
   <g clip-path="url(#id3182)">
    <path d="m404.04 307.36c1.639-1.467 2.574-3.547 2.574-5.755 0-2.144-0.867-4.145-2.405-5.599 0.254 0.309 0.285 0.691-0.345 1.325l-1.176 0.979s-0.274-0.332-0.708-0.668c1.233 0.959 1.938 2.405 1.938 3.963 0 1.504-0.667 2.916-1.829 3.878 0.525-0.433 1.131-0.244 1.758 0.217l0.958 0.864s-0.403 0.464-0.765 0.796" fill="#f15b22"/>
   </g>
   <path d="m401.98 297.65c-0.89-0.687-1.954-1.06-3.085-1.06-2.771 0-5.023 2.252-5.023 5.023s2.252 5.023 5.023 5.023c1.165 0 2.3-0.406 3.194-1.145 0.525-0.433 1.131-0.244 1.758 0.217l0.958 0.864s-0.613 0.697-1.002 0.999c-1.413 1.09-3.119 1.764-4.911 1.764-4.258 0-7.719-3.464-7.719-7.722 0-4.257 3.461-7.722 7.719-7.722 1.737 0 3.38 0.565 4.745 1.632 0.565 0.437 1.223 0.813 0.227 1.816l-1.176 0.979s-0.274-0.332-0.708-0.668" fill="#44a246"/>
   <path d="m396.22 308.42c-0.088-0.034-0.193-0.071-0.291-0.122-0.721-0.362-1.429-0.823-2.036-1.351-0.169-0.143-0.308-0.305-0.457-0.468l0.877-0.782 0.166-0.146c-0.311-0.379-0.599-0.789-0.833-1.206-0.047-0.084-0.081-0.162-0.122-0.25-0.025-0.054-0.084-0.101-0.134-0.101-0.01 0-0.019 2e-3 -0.028 6e-3l-0.417 0.183c-0.054 0.024-0.068 0.118-0.027 0.203 0.041 0.088 0.081 0.18 0.129 0.264 0.054 0.105 0.115 0.214 0.176 0.319l-0.227 0.132c-0.061-0.109-0.129-0.224-0.183-0.336-0.152-0.301-0.281-0.609-0.396-0.921l1.127-0.403c0.102 0.271 0.207 0.545 0.336 0.789 0.173 0.319 0.372 0.627 0.589 0.904 0.159 0.204 0.322 0.37 0.495 0.542l-0.915 0.935c-0.03 0.034-0.027 0.092 0.014 0.156l0.05 0.058c0.454 0.382 0.946 0.735 1.477 1.043 0.035 0.02 0.075 0.03 0.111 0.03 0.047 0 0.087-0.016 0.103-0.047l0.213-0.43c0.024-0.054-0.024-0.132-0.105-0.176-0.183-0.102-0.366-0.21-0.542-0.325l0.132-0.194c0.291 0.183 0.596 0.349 0.911 0.502l0.254 0.105-0.447 1.087" fill="#438e42"/>
   <path d="m393.14 299.47-1.097-0.427c0.078-0.2 0.149-0.403 0.264-0.616 0.38-0.715 0.861-1.382 1.413-1.995 0.057-0.065 0.149-0.146 0.213-0.207l0.799 0.864 0.149 0.162c0.447-0.376 0.925-0.701 1.436-0.982l0.017-0.01c0.058-0.037 0.099-0.105 0.078-0.153l-0.189-0.413c-0.016-0.032-0.057-0.05-0.106-0.05-0.023 0-0.049 4e-3 -0.074 0.013l-0.027 0.01c-0.193 0.098-0.386 0.203-0.576 0.318l-0.139-0.223c0.214-0.125 0.417-0.24 0.63-0.342 0.2-0.098 0.414-0.183 0.617-0.261l0.427 1.121c-0.187 0.068-0.363 0.136-0.525 0.217-0.403 0.207-0.807 0.464-1.155 0.738-0.149 0.119-0.285 0.251-0.41 0.376-0.037 0.037-0.085 0.089-0.122 0.126l-0.952-0.894c-0.013-0.014-0.033-0.021-0.055-0.021-0.047 0-0.107 0.029-0.155 0.088-0.379 0.458-0.718 0.959-1.016 1.497-0.027 0.051-0.031 0.105-0.02 0.146 3e-3 0.037 0.017 0.058 0.04 0.064l0.434 0.207h0.071c0.041-0.017 0.078-0.058 0.105-0.105 0.095-0.186 0.203-0.373 0.311-0.552l0.197 0.129c-0.125 0.21-0.244 0.423-0.362 0.65l-0.221 0.525" fill="#438e42"/>
   <path d="m398.8 308.91c-0.108 0-0.217-3e-3 -0.326-9e-3 -0.593-0.037-1.172-0.166-1.738-0.315l0.329-1.128 0.064-0.213c-0.172-0.058-0.355-0.115-0.528-0.193-0.359-0.159-0.698-0.349-1.023-0.556-0.037-0.023-0.075-0.034-0.108-0.034-0.035 0-0.064 0.013-0.082 0.037l-0.271 0.366c-0.033 0.048 4e-3 0.139 0.082 0.19 0.183 0.118 0.372 0.234 0.559 0.339l-0.126 0.23c-0.396-0.234-0.779-0.494-1.145-0.782l0.773-0.911c0.447 0.338 0.938 0.643 1.443 0.88 0.074 0.034 0.149 0.064 0.24 0.095 0.217 0.078 0.437 0.142 0.66 0.2l-0.277 1.277c-0.014 0.057 0.054 0.128 0.156 0.145 0.335 0.065 0.677 0.112 1.006 0.132 0.121 7e-3 0.243 9e-3 0.365 9e-3 0.141 0 0.282-3e-3 0.424-9e-3 0.111-6e-3 0.189-0.064 0.183-0.125l-0.041-0.477c-3e-3 -0.056-0.082-0.099-0.166-0.099h-0.01c-0.118 6e-3 -0.234 9e-3 -0.351 9e-3 -0.095 0-0.19-2e-3 -0.286-5e-3l7e-3 -0.234 1.317-0.085 0.18 1.165c-0.425 0.055-0.865 0.101-1.31 0.101" fill="#438e42"/>
   <path d="m400.52 308.73-0.281-1.145-0.051-0.213c-0.502 0.089-1.018 0.136-1.533 0.136h-0.103l-0.081-7e-3h-0.01c-0.078 0-0.157 0.039-0.163 0.098l-0.041 0.45c-7e-3 0.058 0.071 0.119 0.163 0.126l0.095 7e-3c0.136 4e-3 0.274 8e-3 0.413 8e-3 0.051 0 0.101-1e-3 0.152-2e-3l7e-3 0.261c-0.071 1e-3 -0.142 2e-3 -0.214 2e-3 -0.124 0-0.249-2e-3 -0.372-9e-3 -0.264-0.017-0.538-0.054-0.796-0.094l0.193-1.179c0.237 0.037 0.447 0.067 0.671 0.078 0.08 3e-3 0.161 5e-3 0.243 5e-3 0.337 0 0.69-0.028 1.044-0.08 0.179-0.027 0.373-0.078 0.559-0.125 0.034-0.01 0.081-0.024 0.125-0.037l0.38 1.253c0.011 0.038 0.064 0.062 0.125 0.062 0.026 0 0.054-5e-3 0.081-0.015 0.576-0.213 1.111-0.474 1.639-0.789l0.071-0.078c0.031-0.044 0.038-0.088 0.017-0.115l-0.274-0.396c-0.018-0.024-0.051-0.035-0.089-0.035-5e-3 0-0.01 0-0.016 1e-3l-0.098 0.037c-0.18 0.115-0.363 0.22-0.549 0.322l-0.112-0.207c0.217-0.118 0.417-0.237 0.617-0.366l0.474-0.355 0.769 0.891c-0.2 0.159-0.386 0.315-0.59 0.443-0.66 0.41-1.388 0.739-2.12 0.979-0.118 0.037-0.24 0.061-0.345 0.088" fill="#438e42"/>
   <path d="m401.24 308.04-0.424-1.121c0.437-0.179 0.864-0.386 1.25-0.633 0.153-0.099 0.298-0.214 0.427-0.322 0.2-0.166 0.362-0.329 0.535-0.501l0.918 0.86 0.291 0.261c-0.111 0.115-0.267 0.278-0.379 0.389l-0.799-0.863-0.149-0.163c-0.231 0.203-0.461 0.396-0.701 0.555-0.237 0.163-0.481 0.295-0.739 0.427-0.064 0.031-0.115 0.112-0.091 0.163l0.189 0.413c0.014 0.032 0.055 0.05 0.103 0.05 0.033 0 0.069-8e-3 0.104-0.026 0.193-0.095 0.383-0.2 0.576-0.315l0.135 0.223c-0.403 0.231-0.82 0.431-1.246 0.603" fill="#438e42"/>
   <path d="m402.98 297.78c-0.098-0.105-0.193-0.203-0.294-0.305l0.88-0.948c0.038-0.041 0.017-0.136-0.067-0.21-0.319-0.275-0.668-0.536-1.017-0.759-0.148-0.098-0.311-0.183-0.46-0.261-0.035-0.019-0.074-0.028-0.108-0.028-0.047 0-0.087 0.016-0.102 0.045l-0.2 0.437c-0.024 0.051 0.024 0.132 0.105 0.173 0.139 0.074 0.278 0.152 0.406 0.23 0.044 0.027 0.092 0.058 0.136 0.085l-0.125 0.196-0.129-0.081-1.03-0.505 0.417-1.097c0.396 0.166 0.826 0.355 1.212 0.599 0.563 0.356 1.078 0.81 1.569 1.298l-0.85 0.796-0.16 0.148-0.183 0.187" fill="#438e42"/>
   <path d="m402.46 297.28c-0.223-0.18-0.457-0.362-0.701-0.511-0.295-0.176-0.61-0.332-0.958-0.468-0.21-0.084-0.43-0.142-0.647-0.199l0.267-1.278c0.01-0.05-0.044-0.111-0.118-0.138l-0.034-7e-3c-0.528-0.09-1.076-0.137-1.612-0.137-0.052 0-0.104 1e-3 -0.156 1e-3 -0.112 0-0.186 0.065-0.18 0.122l0.041 0.481c3e-3 0.056 0.082 0.099 0.163 0.099h0.01c0.115-6e-3 0.23-9e-3 0.345-9e-3 0.094 0 0.189 2e-3 0.285 5e-3l-0.011 0.234c-0.056-2e-3 -0.113-2e-3 -0.169-2e-3 -0.275 0-0.553 0.013-0.82 0.036l-0.304 0.044-0.18-1.162c0.105-0.017 0.227-0.041 0.346-0.051 0.241-0.017 0.485-0.026 0.73-0.026 0.53 0 1.065 0.042 1.593 0.134 0.23 0.041 0.44 0.112 0.65 0.173l-0.321 1.128-0.061 0.214c0.43 0.155 0.87 0.355 1.273 0.585 0.088 0.048 0.173 0.109 0.258 0.167 0.036 0.024 0.072 0.035 0.104 0.035 0.035 0 0.064-0.013 0.082-0.035l0.264-0.366c0.034-0.048-4e-3 -0.139-0.081-0.19-0.092-0.064-0.186-0.129-0.285-0.186-0.088-0.054-0.179-0.109-0.267-0.156l0.125-0.23c0.088 0.05 0.186 0.104 0.278 0.162 0.291 0.186 0.576 0.4 0.85 0.62l-0.759 0.911" fill="#438e42"/>
   <path d="m394.98 296.87-0.769-0.891c0.491-0.373 0.979-0.715 1.518-0.976 0.494-0.24 1.026-0.399 1.537-0.535l0.278 1.141 0.054 0.217c0.19-0.04 0.393-0.081 0.593-0.101 0.244-0.027 0.492-0.039 0.744-0.039 0.126 0 0.253 3e-3 0.38 8e-3 6e-3 1e-3 0.012 1e-3 0.017 1e-3 0.076 0 0.15-0.042 0.156-0.095l0.041-0.451c3e-3 -0.061-0.071-0.118-0.166-0.125-0.166-0.011-0.335-0.015-0.503-0.015-0.052 0-0.103 0-0.154 1e-3l-7e-3 -0.26c0.464 0 0.928 0.033 1.378 0.098l-0.189 1.182c-0.36-0.046-0.718-0.071-1.075-0.071-0.197 0-0.394 8e-3 -0.592 0.023-0.091 7e-3 -0.186 0.024-0.294 0.044-0.227 0.041-0.447 0.098-0.684 0.163l-0.376-1.254c-0.012-0.037-0.065-0.06-0.126-0.06-0.027 0-0.054 4e-3 -0.081 0.013-0.285 0.099-0.569 0.207-0.826 0.332-0.272 0.132-0.549 0.291-0.813 0.457-0.078 0.051-0.122 0.146-0.088 0.193l0.274 0.397c0.016 0.023 0.046 0.034 0.081 0.034 0.038 0 0.082-0.013 0.122-0.038 0.176-0.115 0.363-0.22 0.549-0.321l0.108 0.206-1.087 0.722" fill="#438e42"/>
   <path d="m393.28 306.28c-0.302-0.389-0.593-0.782-0.816-1.205-0.298-0.573-0.522-1.223-0.691-1.85l1.246-0.305c0.071-0.016 0.105-0.037 0.088-0.122-0.01-0.057-0.024-0.125-0.037-0.192-0.061-0.478-0.088-0.956-0.071-1.426 3e-3 -0.082-0.037-0.166-0.095-0.173l-0.454-0.041h-7e-3c-0.055 0-0.111 0.075-0.115 0.163-0.013 0.22-0.017 0.44-0.017 0.657l-0.26 0.01c0-0.312 6e-3 -0.627 0.037-0.928 0.013-0.149 0.037-0.302 0.064-0.454l1.182 0.193c-0.024 0.129-0.047 0.261-0.057 0.39-0.038 0.511-0.014 1.019 0.047 1.548l7e-3 0.02c0.047 0.244 0.098 0.457 0.159 0.684l-1.25 0.376c-0.058 0.017-0.081 0.119-0.051 0.207 0.139 0.392 0.302 0.772 0.488 1.131 0.095 0.183 0.197 0.342 0.305 0.508 0.036 0.06 0.101 0.099 0.151 0.099 0.016 0 0.03-3e-3 0.042-0.011l0.393-0.274c0.051-0.034 0.047-0.126-3e-3 -0.204-0.095-0.145-0.183-0.298-0.265-0.443-0.02-0.034-0.037-0.071-0.057-0.105l0.21-0.109c0.017 0.034 0.034 0.071 0.054 0.105 0.2 0.342 0.427 0.674 0.664 0.982l-0.891 0.769" fill="#438e42"/>
   <path d="m391.69 302.78c-0.034-0.213-0.071-0.426-0.081-0.667-0.028-0.809 0.054-1.629 0.227-2.435 0.016-0.085 0.057-0.2 0.081-0.285l1.124 0.349 0.21 0.065c0.2-0.549 0.451-1.067 0.756-1.569l0.01-0.017c0.03-0.061 0.03-0.142-0.014-0.172l-0.369-0.261c-0.013-9e-3 -0.027-0.013-0.044-0.013-0.041 0-0.09 0.026-0.129 0.067l-0.02 0.027c-0.119 0.183-0.23 0.369-0.339 0.559l-0.23-0.122c0.118-0.213 0.237-0.417 0.372-0.609 0.126-0.187 0.268-0.366 0.407-0.536l0.925 0.759c-0.126 0.153-0.244 0.295-0.342 0.451-0.248 0.379-0.468 0.802-0.631 1.215-0.071 0.177-0.121 0.359-0.169 0.529-0.013 0.054-0.03 0.118-0.04 0.173l-1.274-0.302c-5e-3 -1e-3 -0.01-2e-3 -0.015-2e-3 -0.054 0-0.115 0.066-0.134 0.168-0.098 0.586-0.139 1.189-0.132 1.805 3e-3 0.055 0.027 0.105 0.058 0.136l0.064 0.037 0.481-0.041 0.061-0.037c0.023-0.034 0.04-0.085 0.037-0.142-0.01-0.21-7e-3 -0.423-3e-3 -0.634l0.233 0.014c-3e-3 0.244 0 0.488 0.014 0.745l0.068 0.566-1.162 0.179" fill="#438e42"/>
   <path d="m404.59 306.17-0.186-0.145c0.095-0.115 0.152-0.19 0.237-0.312 0.227-0.328 0.423-0.667 0.606-1.026 0.041-0.078 0.031-0.183-0.02-0.21l-0.424-0.2c-9e-3 -4e-3 -0.018-6e-3 -0.028-6e-3 -0.049 0-0.107 0.044-0.141 0.111-0.091 0.186-0.193 0.369-0.295 0.545l-0.193-0.125 0.552-1.165 1.067 0.416c-0.254 0.627-0.559 1.254-0.938 1.802-0.088 0.129-0.136 0.193-0.237 0.315" fill="#ca5426"/>
   <path d="m404.27 305.85-0.928-0.718c0.061-0.075 0.135-0.163 0.203-0.264 0.288-0.444 0.529-0.908 0.721-1.406 0.031-0.074 0.058-0.169 0.085-0.261 0.037-0.125 0.071-0.264 0.098-0.393l1.24 0.271c5e-3 2e-3 0.01 2e-3 0.015 2e-3 0.054 0 0.112-0.064 0.127-0.157 0.078-0.502 0.119-1.02 0.115-1.514 0-0.092-6e-3 -0.173-0.013-0.261-7e-3 -0.109-0.062-0.183-0.115-0.183h-4e-3l-0.464 0.041c-0.057 6e-3 -0.098 0.091-0.095 0.176 7e-3 0.078 0.011 0.159 0.014 0.237 3e-3 0.132 3e-3 0.264 0 0.393l-0.227-7e-3c4e-3 -0.129 4e-3 -0.247 0-0.383l-0.095-0.918 1.121-0.183c0.054 0.363 0.112 0.702 0.112 1.081 3e-3 0.762-0.115 1.527-0.284 2.259l-1.098-0.322-0.206-0.061c-0.183 0.525-0.414 1.047-0.705 1.538-0.044 0.078-0.041 0.152 4e-3 0.186l0.359 0.264c0.011 0.01 0.025 0.014 0.041 0.014 0.045 0 0.104-0.036 0.141-0.091 0.116-0.183 0.221-0.37 0.322-0.556l0.224 0.125c-0.156 0.285-0.322 0.556-0.505 0.82-0.068 0.105-0.118 0.163-0.203 0.271" fill="#ca5426"/>
   <path d="m405.65 302.71-1.145-0.186c0.047-0.379 0.078-0.718 0.071-1.087-7e-3 -0.264-0.044-0.576-0.091-0.85-0.041-0.227-0.099-0.447-0.167-0.678l1.206-0.379c0.055-0.017 0.075-0.119 0.048-0.203-0.021-0.065-0.037-0.115-0.061-0.176-0.204-0.498-0.444-0.979-0.725-1.443-0.036-0.06-0.101-0.1-0.149-0.1-0.014 0-0.027 4e-3 -0.037 0.012l-0.38 0.274c-0.047 0.034-0.044 0.126 7e-3 0.2 0.112 0.176 0.214 0.359 0.315 0.542l-0.2 0.108c-0.21-0.372-0.355-0.613-0.62-0.955l-0.05-0.068 0.887-0.704c0 3e-3 0.857 1.29 1.169 2.052 0.111 0.271 0.186 0.58 0.253 0.854l-1.1 0.281-0.207 0.054c0.075 0.383 0.132 0.779 0.153 1.176 0.01 0.169 3e-3 0.352-7e-3 0.521-4e-3 0.081 0.037 0.166 0.095 0.169l0.437 0.041c2e-3 0 4e-3 1e-3 7e-3 1e-3 0.055 0 0.108-0.076 0.111-0.163 0.01-0.193 0.014-0.387 0.01-0.58l-3e-3 -0.071 0.254-0.01v0.078c0 0.427-0.027 0.87-0.081 1.29" fill="#ca5426"/>
   <path d="m404.23 299.64c-0.244-0.565-0.545-1.117-0.898-1.612l0.184-0.162c0.264 0.348 0.507 0.731 0.714 1.128 0.028 0.053 0.087 0.097 0.134 0.097 0.01 0 0.02-2e-3 0.029-6e-3l0.396-0.19c0.051-0.027 0.064-0.118 0.02-0.203-0.095-0.193-0.199-0.383-0.311-0.569l0.213-0.139c0.227 0.4 0.427 0.813 0.599 1.233l-1.08 0.423" fill="#ca5426"/>
  </g>
 </g>
</svg>
