<svg width="800" height="176.45" version="1.0" xmlns="http://www.w3.org/2000/svg">
 <defs>
  <clipPath id="id174">
   <path d="m124.61 294.2h35.372v21.721h-35.372z"/>
  </clipPath>
 </defs>
 <g transform="matrix(5.4898 0 0 5.4898 -28.475 -256.1)">
  <g transform="matrix(4.2026 0 0 -4.2026 118.36 66.558)">
   <path d="m0 0v4.661h0.419v-2.046h2.541v2.046h0.419v-4.661h-0.419v2.227h-2.541v-2.227z" fill="#0e0b0c"/>
  </g>
  <g transform="matrix(4.2026 0 0 -4.2026 -518.5 1315.2)" clip-path="url(#id174)">
   <g transform="translate(156.99 297.5)">
    <path d="m0 0c1.309 0 1.844 0.769 1.844 1.943 0 1.376-0.806 1.983-2.128 1.944h-0.658v-3.887zm-0.103 4.274c1.528 0 2.399-0.787 2.399-2.331 0-1.543-0.871-2.33-2.399-2.33h-1.258v4.661z" fill="#0e0b0c"/>
   </g>
  </g>
  <g transform="matrix(4.2026 0 0 -4.2026 28.225 47.344)">
   <path d="m0 0-2e-3 -0.01-6e-3 -0.026-2e-3 -0.01-3e-3 -0.01-1.058-4.544-1.096 4.545-2e-3 0.01-3e-3 0.01-6e-3 0.025-2e-3 0.01-3e-3 0.01h-3.299v-7.344h1.909v5.555l1.427-5.491 6e-3 -0.02 6e-3 -0.024 3e-3 -0.01 2e-3 -0.01h1.919l3e-3 9e-3 2e-3 0.01 7e-3 0.025 3e-3 0.01 2e-3 9e-3 1.527 5.482v-5.545h1.909v7.344h-3.241z" fill="#0e0b0c"/>
  </g>
  <g transform="matrix(4.2026 0 0 -4.2026 100.5 47.297)">
   <path d="m0 0-2e-3 -0.01-3e-3 -0.011-6e-3 -0.025-2e-3 -0.012-2e-3 -8e-3 -1.058-4.544-1.095 4.544-3e-3 0.012-3e-3 9e-3 -6e-3 0.025-3e-3 0.01-2e-3 0.01h-3.299v-7.344h1.909v5.557l1.427-5.492 3e-3 -0.011 2e-3 -9e-3 7e-3 -0.025 2e-3 -0.01 3e-3 -0.01h1.918l3e-3 0.01 2e-3 9e-3 7e-3 0.024 6e-3 0.02 1.527 5.482v-5.545h1.909v7.344z" fill="#0e0b0c"/>
  </g>
  <g transform="matrix(4.2026 0 0 -4.2026 59.27 66.894)">
   <path d="m0 0h1.458v-1.163c-0.235-0.046-0.585-0.105-0.945-0.105-1.3 0-2.046 0.824-2.046 2.258 0 0.53 0.124 2.258 1.729 2.258 0.737 0 1.134-0.271 1.214-0.83l1e-3 -0.01 2e-3 -0.012 3e-3 -0.029 2e-3 -0.011 1e-3 -0.012h2.148v0.061l-1e-3 0.013v0.013c-0.031 2.139-1.908 2.386-3.317 2.386-0.121 0-0.243-2e-3 -0.364-5e-3 -1.117-0.035-2.049-0.408-2.693-1.079-0.643-0.669-0.982-1.618-0.982-2.743 0-1.124 0.339-2.073 0.982-2.743 0.644-0.67 1.576-1.043 2.693-1.078h3e-3c1.3 0 1.808 0.086 2.653 0.228 0.341 0.057 0.631 0.106 1 0.16l0.013 2e-3 0.011 2e-3 0.028 4e-3 0.011 2e-3 0.012 1e-3v3.996h-3.616z" fill="#0e0b0c"/>
  </g>
 </g>
</svg>
