<svg width="775.68" height="800" version="1.1" xmlns="http://www.w3.org/2000/svg">
 <link href="" rel="stylesheet" type="text/css"/>
 <style type="text/css"/>
 <g transform="translate(-532.08 453.13)">
  <path d="m1307.8-38.697-392.26 385.57-383.43-385.57v-414.43h775.68v414.43" fill="#c11e24"/>
  <path d="m1292.7-41.387-377.05 370.63-368.46-370.63v-398.33h745.51v398.33" fill="#fff"/>
  <path d="m1273.2-46.388-357.32 351.21-349.18-351.21v-377.46h706.5v377.46" fill="#191c40"/>
  <path d="m1043.1 156.55-128.2 126.06-125.3-126.06h253.5" fill="#fff"/>
  <path d="m1020.1 165.55-104.19 102.4-101.78-102.4h205.98" fill="#c11e24"/>
  <path d="m839.97-202.32h-81.397l0.27592-102.92-40.698 77.189-40.319-77.189-0.17236 102.92h-81.259l0.13793-192.39h81.328l40.388 77.396 40.595-77.396h81.155l-0.0344 192.39" fill="#fff"/>
  <path d="m1030.9-202.32h-175.04l-0.41388-192.14 81.88-0.24143-0.0691 151.2h93.779l-0.1379 41.181" fill="#fff"/>
  <path d="m1166.6-335.21-0.6898-5.1046c-2.2763-8.6915-10.933-13.003-25.868-13.003h-11.727l-0.1379 36.249h11.727c17.728 0 26.592-6.0703 26.695-18.142m-0.1724 68.187-0.9312-8.0362c-2.7592-10.278-11.278-15.452-25.592-15.452h-11.727l0.069 47.01h11.658c17.762 0 26.592-7.8293 26.523-23.522m81.5 13.934c-0.1035 33.869-17.9 50.804-53.391 50.804h-147.69l0.1724-192.39h147.69c28.868 0 45.975 10.071 51.287 30.213 1.2071 4.5872 1.7935 9.6228 1.759 15.176 0 30.282-13.003 45.424-39.043 45.424 19.418 0 31.558 9.3468 36.525 28.075 1.7245 6.4497 2.5868 14.003 2.6902 22.695" fill="#fff"/>
  <path d="m674.35-129.54h-23.143l-25.35-24.143c-3.2766-3.0696-6.5531-6.829-9.8642-11.278 1.4831 3.518 2.2419 6.5186 2.2419 8.9674v26.454h-23.074v-54.598h26.868l21.591 20.004c4.3113 3.9664 7.5534 7.4499 9.7607 10.485-1.4486-4.6907-2.1729-9.4503-2.1729-14.348v-16.141h23.143v54.598" fill="#fff"/>
  <path d="m760.2-142.62v13.072h-69.67v-54.598h69.67v12.589h-41.802v7.9327h33.8v12.106h-33.8v8.8985h41.802" fill="#fff"/>
  <path d="m817.83-171.07v41.526h-26.902v-41.526h-19.211v-13.072h65.359v13.072h-19.246" fill="#fff"/>
  <path d="m970.07-184.18-24.557 54.598h-23.902l-12.968-30.11-12.21 30.11h-24.902l-24.626-54.598h26.764l12.934 31.421 12.658-31.421h22.315l13.762 31.49 12.968-31.49h21.763" fill="#fff"/>
  <path d="m1016.8-141.1c4.7941 0 8.2431-1.2416 10.347-3.725 2.1039-2.4488 3.1731-6.967 3.1731-13.555 0-9.4503-4.3457-14.21-12.968-14.21-9.3123 0-13.968 5.415-13.968 16.245 0 10.14 4.4492 15.245 13.417 15.245m0.1379 12.416c-13.037 0-23.66-2.5523-31.869-7.6568-8.2087-5.1046-12.313-11.899-12.313-20.453 0-8.1742 3.9319-14.9 11.796-20.211 7.8293-5.3115 18.728-8.0017 32.662-8.0017 12.899 0 23.384 2.5178 31.524 7.5534 8.1052 5.0011 12.175 11.692 12.175 20.073 0 8.657-4.1043 15.624-12.278 20.832-8.2087 5.2425-18.763 7.8638-31.696 7.8638" fill="#fff"/>
  <path d="m1101.3-162.1h12.175c3.5525 0 6.4151-0.44838 8.6225-1.3451l3.2076-3.8629c0-3.4835-3.6215-5.2425-10.899-5.2425h-13.106zm54.046 32.559h-31.524l-13.52-20.867h-9.002v20.867h-28.385v-54.598h48.321c10.726 0 18.97 1.4831 24.902 4.4148s8.864 6.8291 8.864 11.658c0 3.1041-1.0692 5.9323-3.2766 8.3466-2.1384 2.4143-6.5531 4.5527-13.175 6.3462l16.797 23.833" fill="#fff"/>
  <path d="m1252.3-129.54h-31.11l-16.003-20.625-9.5883 8.0362v12.589h-26.833v-54.598h26.833v22.557l25.523-22.557h25.557l-23.419 19.97 29.041 34.628" fill="#fff"/>
  <path d="m777.68 135.06-8.657-7.6223-12.21-14.934-13.141-196.87 153.9-22.729v-5.6909l43.665 0.0344 163.48 23.591 3.0006 181.76-50.942 50.356-256.85 0.27593-22.246-8.1742" fill="#fff"/>
  <path d="m1273-46.733 0.2759-66.014h-332.83l71.671 119.82 6.5531 0.82777 3.794 5.4149v5.1735l4.6561 0.82777 4.0699 5.6909v4.8976l4.6217 0.82777 4.6217 5.139v11.175s10.071 9.2434 19.004 12.761c6.3117 2.4488 7.0705 12.52 10.658 17.935 4.8976 7.6223 11.416 10.864 10.071 15.21-3.2765 11.727-15.21 31.283-26.385 32.386 0 0-27.696 0.0344-44.044 0.0344l0.2069 17.866 69.36 0.4139 193.7-190.39" fill="#c21e24"/>
  <path d="m897.57-113.13h-169.55l-1.2762 214.46 35.559 41.802h38.077c-4.5182-7.5533-9.6228-16.107-11.209-18.694l-21.487 0.0344c-0.0344-53.322 18.211-82.983 39.698-88.709 3.0006-0.51735 1.621-15.245-2.2074-19.59l-12.52-0.24144-0.79328-3.518 10.071-21.798-1.4141-6.0013-37.249 0.03443 30.731-21.487c1.5866-56.564 59.565-60.944 94.607-37.594 20.66 13.865 22.35 41.043 20.694 60.116l-5.415 0.24144s-3.5525 20.729 5.7254 20.694h40.767c16.624-0.58633 32.662 10.554 32.662 10.554l4.0698-14.106-89.537-116.2" fill="#191c41"/>
 </g>
</svg>
