<svg width="800" height="215.34" data-name="Layer 1" version="1.1" viewBox="0 0 800 215.34" xmlns="http://www.w3.org/2000/svg">
 <g transform="matrix(.41017 0 0 .41017 5.8449e-7 166.34)" fill="#fff">
  <path class="cls-1" d="m1215-143.26a262.5 262.5 0 1 1-262.5-262.29 262.4 262.4 0 0 1 262.5 262.29" stroke-width="10.254"/>
  <g transform="translate(690 -.004003)" stroke-width="10.254">
   <path class="cls-1" d="m1182.4-172.58c-28.814-14.868-51.883-26.968-51.883-50.037 0-16.201 13.945-26.352 37.324-26.352a140.68 140.68 0 0 1 71.779 20.508v-59.473a193.9 193.9 0 0 0-71.779-15.688c-69.212 0-100.28 41.015-100.28 85.826 0 52.397 35.376 77.418 74.135 98.026 38.76 20.61 52.806 29.018 52.806 51.268 0 18.457-16.098 29.224-43.067 29.224a127.45 127.45 0 0 1-81.211-30.762v62.136a161.19 161.19 0 0 0 80.596 24.815c67.059 0 109.62-35.171 109.62-91.565 0-56.397-49.321-82.956-78.033-97.925z"/>
   <path class="cls-1" d="m669.9-300.75h-82.956v314.9h61.526v-100.29h12.51c77.62 0 125.82-41.015 125.82-107.66s-43.477-106.95-116.89-106.95zm-20.508 52.604h18.252c36.299 0 59.781 20.508 59.781 53.527 0 35.376-21.636 55.68-59.372 55.68h-19.175z"/>
   <path class="cls-1" d="m984.8-155.45a73.317 73.317 0 0 0 30.762-64.703c0-49.628-36.504-80.595-95.257-80.595h-95.464v314.9h100.49c77.005 0 111.97-49.527 111.97-95.363a73.625 73.625 0 0 0-52.498-74.24zm-68.496-92.286a36.709 36.709 0 0 1 39.888 38.452c0 23.686-16.817 38.965-43.271 38.965h-26.558v-77.418zm-29.941 209.39v-82.033h39.272c30.762 0 49.835 15.278 49.835 41.015 0 27.378-18.662 41.015-55.575 41.015z"/>
  </g>
  <g stroke-width=".98614">
   <path d="m-1.425e-6 -297.23h50.293l106.3 172.65 106.39-172.65h46.166v311.35h-52.749v-210.09l-94.428 149.95h-14.457l-95.241-149.95v210.09h-52.275z"/>
   <path d="m347.62-297.23v45.855h84.793v265.52h56.221v-265.52h84.793v-45.855z"/>
  </g>
 </g>
 <g transform="matrix(1.8027 0 0 1.8027 283.02 1.2791e-5)" fill="#1435c8" stroke-width="2.3331">
  <path class="cls-2" d="m103.22 60.24-6.5326 1.3532v12.249a7.5359 7.5359 0 0 1-7.7692 7.4192h-3.4763v14.232h-10.896v-14.232h3.4763a7.5359 7.5359 0 0 0 7.7692-7.4192v-12.249l6.6493-1.3532a2.3331 2.3331 0 0 0 1.7032-2.6131 3.6163 3.6163 0 0 0-0.16332-0.53661l-17.498-33.246h10.872l17.381 33.2a2.3331 2.3331 0 0 1-0.93324 2.9863 2.683 2.683 0 0 1-0.58327 0.20998z"/>
  <path class="cls-2" d="m80.865 57.091-17.358-33.223h-17.965a29.677 29.677 0 0 0-29.863 29.747 26.271 26.271 0 0 0 19.108 24.731v17.102h26.9v-14.138h3.383a7.5359 7.5359 0 0 0 7.7692-7.4192v-12.249l6.6493-1.3532a2.3331 2.3331 0 0 0 1.7265-2.6131 4.6662 4.6662 0 0 0-0.34996-0.58327zm-22.584-1.9131a6.8126 6.8126 0 1 1 6.8126-6.8126 6.8359 6.8359 0 0 1-6.8126 6.8126z"/>
 </g>
</svg>
