<svg width="800" height="151.08" version="1.1" viewBox="0 0 800 151.08" xml:space="preserve" xmlns="http://www.w3.org/2000/svg">
<path class="st0" d="m758.39 24.609c1.1931 0 1.9388-0.14914 2.9828-0.14914 4.4743 0 6.1148 1.1931 6.1148 4.6234 0 0.29828-0.14914 1.9389-0.59657 5.22l-12.528 82.774c-1.044 6.8606-1.3423 9.0977-8.0537 9.0977-1.044 0-1.7897-0.14915-3.132-0.14915zm-27.74-23.863-22.67 149.14h36.391c16.107 0 26.249-0.29828 32.662-6.7114 5.6674-5.3691 6.7114-12.975 8.352-24.31l13.125-87.696c1.1931-6.8606 1.4914-11.633 1.4914-14.318 0-15.213-11.037-16.257-33.259-16.257zm-81.73 0-22.521 149.14h27.144l11.037-73.08h1.3423l4.176 73.08h29.232l22.521-149.14h-26.995l-11.633 76.361h-1.3423l-3.2811-76.361zm-56.227 0-22.67 149.14h50.41l3.4303-24.31h-18.643l6.8606-45.638h18.792l3.7286-24.31h-18.941l4.6234-31.171h18.941l3.7286-24.161h-50.261zm-52.2 24.012h2.6846c4.6234 0 6.5623 0.44743 6.5623 4.176 0 0.14914-0.14914 2.2371-0.59657 5.6674l-2.8337 18.494c-1.1931 7.308-1.4914 9.9925-8.2028 9.9925-1.044 0-1.7897-0.14914-3.132-0.14914zm-27.89-24.012-22.521 149.14h31.469l8.9486-59.06h2.2371c4.6234 0 6.7114 1.1931 6.7114 4.6234 0 1.1931 0 2.2371-0.14914 3.2811l-7.7554 51.305h31.469l7.308-48.471c0.44742-3.2811 0.59657-6.5623 0.59657-8.9486 0-8.352-3.132-12.677-11.484-15.362 14.765-4.9217 16.853-13.87 19.09-30.127l2.2371-15.511c1.044-5.8166 1.4914-10.44 1.4914-14.169 0-14.616-10.44-16.704-33.259-16.704zm-70.246 0-3.7286 24.609h16.257l-18.792 124.53h31.469l18.792-124.53h16.257l3.7286-24.609z" fill="#cfd0d0" stroke-width="1.4914"/><path class="st1" d="m389.41 24.758h2.6846c4.6234 0 6.5623 0.44743 6.5623 4.176 0 0.14914-0.14914 2.2371-0.59657 5.6674l-2.8337 18.494c-1.1931 7.308-1.4914 9.9925-8.2028 9.9925-1.044 0-1.7897-0.14914-3.132-0.14914zm-27.74-24.012-22.67 149.14h31.469l8.9485-59.06h2.2371c4.6234 0 6.7114 1.1931 6.7114 4.6234 0 1.1931 0 2.2371-0.14914 3.2811l-7.9046 51.305h31.469l7.308-48.471c0.44743-3.2811 0.59657-6.5623 0.59657-8.9486 0-8.352-3.132-12.677-11.484-15.362 14.765-4.9217 16.853-13.87 19.09-30.127l2.2371-15.511c1.044-5.8166 1.4914-10.44 1.4914-14.169 0-14.616-10.44-16.704-33.259-16.704h-36.092zm-45.936 30.723-13.274 87.397c-0.59657 4.9217-1.6406 7.4571-5.9657 7.4571-2.9828 0-4.176-1.3423-4.176-4.3251 0-1.044 0-1.7897 0.14915-3.132l13.125-87.248c0.59657-4.6234 1.4914-7.308 5.6674-7.308 3.2811 0 4.6234 1.3423 4.6234 4.3251 0.14914 0.29828 0.14914 1.044-0.14914 2.8337m31.618-0.74571c1.044-6.264 1.4914-11.037 1.4914-14.616 0-15.362-10.887-16.107-33.11-16.107-16.257 0-26.846 0.14914-33.11 6.8606-5.22 5.3691-6.264 13.125-8.0537 24.161l-13.423 89.038c-1.1931 7.0097-1.4914 12.528-1.4914 16.257 0 13.125 11.484 14.765 33.11 14.765 16.257 0 26.398-0.44743 32.662-6.7114 5.8166-5.6674 6.7114-13.721 8.352-24.608zm-137.66-29.978-3.7286 24.609h16.257l-18.792 124.53h31.469l18.792-124.53h16.257l3.7286-24.609zm-41.312 30.723-13.125 87.248c-0.59657 4.9217-1.6406 7.4571-5.9657 7.4571-2.9828 0-4.176-1.3423-4.176-4.3251 0-1.044 0-1.7897 0.14914-3.132l13.125-87.248c0.59657-4.6234 1.4914-7.308 5.6674-7.308 3.2811 0 4.6234 1.3423 4.6234 4.3251 0.14914 0.44743 0.14914 1.1931-0.29829 2.9828m31.618-0.74571c1.044-6.264 1.4914-11.037 1.4914-14.616 0-15.362-10.887-16.107-33.11-16.107-16.257 0-26.846 0.14914-33.11 6.8606-5.22 5.3691-6.264 13.125-8.0537 24.161l-13.423 89.038c-1.1931 7.0097-1.4914 12.528-1.4914 16.257 0 13.125 11.484 14.765 33.11 14.765 16.257 0 26.398-0.44743 32.662-6.7114 5.8166-5.6674 6.7114-13.721 8.352-24.608zm-177.48-29.978-22.521 149.14h28.486l12.975-86.055h1.1931l-1.6406 86.055h17.599l24.161-86.055h1.3423l-12.975 86.055h28.337l22.67-149.14h-38.628l-22.073 75.317h-1.3423l1.044-75.466z" fill="#c00" stroke-width="1.4914"/></svg>
