<svg width="743.1" height="282.76" version="1.1" xmlns="http://www.w3.org/2000/svg">
 <g transform="translate(-8.1099 -468.67)">
  <path d="m8.1099 625.25h56.411v-56.5h-56.411z" fill="#c91e25"/>
  <path d="m8.1099 568.75h56.411v-56.482h-56.411z" fill="#2c3383"/>
  <path d="m64.521 568.75h56.419v-56.482h-56.419z" fill="#47aa39"/>
  <path d="m64.521 625.25h56.419v-56.5h-56.419z" fill="#f2ab0e"/>
  <g fill="#fff">
   <path d="m154.32 625.25v-113.52h29.376v15.511h0.43649c8.582-12.37 20.082-18.561 34.486-18.561 16.302 0 27.283 6.3348 32.963 18.995 8.2931-12.66 19.639-18.995 34.048-18.995 27.493 0 41.254 13.539 41.254 40.617v75.956h-30.859v-64.468c0-9.2407-0.9524-15.759-2.8511-19.583-2.7881-5.4289-8.21-8.1516-16.263-8.1516-13.924 0-20.884 9.6248-20.884 28.826v63.376h-30.856v-63.808c0-9.532-0.65503-15.907-1.9724-19.138-2.642-6.1661-8.2791-9.2562-16.919-9.2562-4.8405 0-9.0946 1.6193-12.753 4.8533-5.5704 4.548-8.3455 11.666-8.3455 21.345v66.004h-30.86"/>
   <path d="m370.57 568.59c0 10.362 1.9724 18.59 5.9354 24.719 4.6905 7.5824 11.883 11.369 21.571 11.369 18.485 0 27.726-12.029 27.726-36.088 0-24.195-9.241-36.296-27.726-36.296-18.342 0-27.507 12.102-27.507 36.296zm-30.858 0c0-18.138 5.3145-32.66 15.959-43.567 10.632-10.883 24.77-16.345 42.406-16.345 17.773 0 31.978 5.4621 42.622 16.345 10.638 10.907 15.959 25.429 15.959 43.567 0 18-5.3206 32.458-15.959 43.355-10.644 10.901-24.85 16.344-42.622 16.344-17.636 0-31.774-5.4429-42.406-16.344-10.644-10.897-15.959-25.355-15.959-43.355"/>
   <path d="m569.73 511.73-38.428 113.52h-34.702l-38.869-113.52h32.721l23.939 77.556h0.43222l23.942-77.556h30.965"/>
   <path d="m588 625.25v-113.52h30.852v113.52zm30.852-156.58v25.529h-30.852v-25.529h30.852"/>
   <path d="m668.94 556.3h50.926c-2.9373-15.995-11.241-24.008-24.913-24.008-8.8179 0-15.575 2.912-20.275 8.7357-3.5308 4.3636-5.4423 9.4464-5.7376 15.272zm82.07 19.811h-82.07c0.87966 19.047 10.197 28.565 27.948 28.565 6.0084 0 11.429-1.605 16.278-4.7715 4.5414-2.7333 7.3325-5.9948 8.3613-9.7401h27.507c-8.3339 25.424-26.021 38.122-53.059 38.122-17.694 0-31.759-5.5202-42.214-16.566-10.446-11.042-15.676-25.421-15.676-43.133 0-17.258 5.3692-31.556 16.111-42.901 10.748-11.338 24.667-17.011 41.779-17.011 18.412 0 32.657 6.8887 42.753 20.65 9.3536 12.595 13.444 28.183 12.282 46.784"/>
   <path d="m593.79 700.7c0-6.7712-1.4641-12.413-4.3892-16.931-3.4608-5.2709-8.343-7.9011-14.653-7.9011-13.609 0-20.409 8.2779-20.409 24.832 0 6.8415 1.5067 12.487 4.5079 16.924 3.6069 5.2648 8.9031 7.9008 15.901 7.9008 6.3098 0 11.192-2.636 14.653-7.9008 2.9251-4.5146 4.3892-10.15 4.3892-16.924zm-46.713 50.736v-79.888h6.5533v11.072h0.22828c1.665-3.9438 4.3678-7.0613 8.1117-9.3715 3.7439-2.3127 7.9991-3.4718 12.763-3.4718 8.4739 0 15.088 3.0974 19.858 9.2918 4.31 5.586 6.465 12.796 6.465 21.631 0 8.8249-2.1459 16.04-6.4468 21.627-4.7544 6.1958-11.35 9.2895-19.791 9.2895-4.5292 0-8.6018-1.1058-12.221-3.2959-3.8474-2.2745-6.5229-5.4586-8.0295-9.5474h-0.22828v32.664h-7.2625"/>
   <path d="m612.13 729.85h7.2623v-80.684h-7.2623z"/>
   <path d="m637.15 696.47h37.685c-0.14914-5.6654-1.8445-10.451-5.077-14.336-3.4578-4.1767-7.9352-6.266-13.429-6.266-5.4849 0-10.005 2.1306-13.533 6.3813-3.1625 3.7299-5.0436 8.4812-5.6462 14.22zm44.951 6.0912h-44.951c0.0761 6.0401 1.5889 11.157 4.5352 15.388 3.5612 5.0509 8.477 7.5763 14.756 7.5763 9.6914 0 15.825-4.9629 18.394-14.888h7.2655c-3.2721 13.986-11.819 20.98-25.65 20.98-8.8179 0-15.584-3.0616-20.293-9.1789-4.1852-5.5073-6.2702-12.754-6.2702-21.737 0-8.5284 2.0789-15.633 6.2428-21.294 4.7666-6.4124 11.499-9.6284 20.205-9.6284 8.8544 0 15.584 3.43 20.205 10.29 4.0087 5.9509 5.8624 13.454 5.561 22.493"/>
   <path d="m684.79 729.85 22.597-30.283-20.899-28.018h8.9183l16.613 22.139 16.269-22.139h8.9244l-21.014 27.902 22.771 30.4h-9.0492l-18.321-24.525-17.992 24.525h-8.8179"/>
  </g>
 </g>
</svg>
