<svg enable-background="new 0 0 1000 547.2" space="preserve" version="1.1" viewBox="0 0 1e3 547.2" xmlns="http://www.w3.org/2000/svg">
 <style type="text/css">.st0{fill:#444D3E;}
	.st1{fill:#9FD6BC;}</style>
 <link href="" rel="stylesheet" type="text/css"/>
 <path class="st0" d="M973,223.5H692.1c-17.3,0-36.5-24.6-36.5-47.9V35.4l-0.1,0.1V31c0-16.2-16-29.5-35.5-29.5H35.4   C16,1.5,0,14.8,0,31v486.7c0,16.2,16,29.5,35.4,29.5h584.7c19.5,0,35.5-13.2,35.5-29.5v-75.6L973,223.5z"/>
 <path class="st1" d="m965.9 198.6c18.8 0 34.1-14.9 34.1-33.3v-132c0-18.4-15.3-33.3-34.1-33.3h-251.1c-18.7 0-34.1 14.9-34.1 33.3v132.1c0 18.3 15.3 33.3 34.1 33.3l251.1-0.1z"/>
 <polygon class="st0" points="794.7 170 794.7 114.4 750.8 114.4 750.8 170 711 170 711 29 750.8 29 750.8 80.3 794.7 80.3 794.7 29 834.6 29 834.6 170"/>
 <path class="st0" d="m897.8 170h-45.8v-141h49.3c44.3 0 72.4 16.7 72.4 69.7 0.1 52.9-26 71.3-75.9 71.3m3.3-107.5h-9.7v74.1h8.5c24.3 0 33.8-9.3 33.8-37.2 0.1-26.1-8.2-36.9-32.6-36.9"/>
 <path class="st1" d="m262.9 437.4h24.6v-44l-24.6-20.7v64.7zm63.1-42.6h20.5l5.6-4.6v-17.4l-26.1 22zm-2-254.8-16.5 17.3-44.6-46.9 56.6 24.8 4.5 4.8zm240.1 91.6v-121.4l29.9 17.9v66.5c-7.3 7.7-22.7 26.4-29.9 37m29.9 24.2v181.6h-29.9v-132.9c6.4-13.8 21.8-38 29.9-48.7m-155.8 181.6c-1-8.1-2.1-20-2.1-30.3 0-6.5 0.8-32.3 0.8-53.2 0-17.5-3.8-48.8-3.8-65.8 0-10.2 0.8-24-0.3-28.9 8.1-5.3 15.3-8.6 37.7-22.2 7.3-4.5 21.2-11.9 21.2-20.9 0-4-1-6.6-6.7-11.1-4-3.2-8.2-4.1-13-4.1-11.5 0-16.6 11.4-26.2 17.3-14.7 8.9-22.4 13.4-25.4 15-1.2-0.5-6.2-3.4-14.2-3.4-8.3 0-18.1 3.7-18.1 14.6 0 5 1.6 10.4-5 13.9-3.7 2.4-22 12.8-41.3 24.4-16.4 9.8-23.9 9.1-30.8 13.2-6.4 3.9-8 8.6-8 12.8 0 3.7 2.3 8.4 3.2 9.4 4.4 5.6 8.3 8.7 15.2 8.7 11.7 0 21.4-10.2 39.5-23.1 11.3-8 21.6-16.4 27.7-16.4 5.4 0 9.2 4.1 9.2 20.8 0 56.2-3.4 65-3.4 104 0 7 0.2 19.9 0.5 25.3h-29.7v-91.9l-57.3 48.3-57.3-48.3v91.9h-186.1v-327.2h180.8l62.2 65.5 62.2-65.5h181.7v139.9c-5.7 8.9-23.3 39-35.1 69.7-3.8 10-5.7 17.3-10.8 17.3-5.6 0-6.1-5.5-6.6-10.4-1.1-10.8-3.6-30.9-4.6-38.3-2.2-14.3-5-29.5-21-29.5-11.9 0-24.3 6.5-24.3 24.2 0 10 5.1 27.4 13.7 50.4 3.5 9.1 21.6 56.8 24.3 63.7 4.8 12.7 11.5 16.2 21.8 16.2 13.3 0 17.9-5 23.4-23.6 4.6-15.9 12.5-41.9 19.1-58.1v105.8l-113.1-0.1z"/>
</svg>
