<svg width="800" height="564.36" version="1.1" xmlns="http://www.w3.org/2000/svg">
 <g transform="translate(359.52 -251)">
  <g transform="matrix(1.542 0 0 1.542 -221.47 -876.14)">
   <g transform="translate(-99.67 70.181)">
    <g transform="translate(10.145 660.79)">
     <rect transform="matrix(18.076 0 0 18.076 -13416 -11389)" x="754.73" y="630.09" width=".721" height="20.248" clip-path="url(#SVGID_2_)" fill="#fff"/>
     <rect transform="matrix(18.076 0 0 18.076 -13416 -11389)" x="742.22" y="640.01" width="25.552" height=".552" clip-path="url(#SVGID_2_)" fill="#fff"/>
     <path transform="matrix(18.076 0 0 18.076 -13416 -11389)" d="m746.39 630.09h8.496v10.013h-12.667v-6.258c0-2.074 1.867-3.755 4.171-3.755" clip-path="url(#SVGID_2_)" fill="#0a92ce"/>
     <path transform="matrix(18.076 0 0 18.076 -13416 -11389)" d="m746.39 650.34h8.496v-10.012h-12.667v6.257c0 2.074 1.867 3.755 4.171 3.755" clip-path="url(#SVGID_2_)" fill="#b1b3b6"/>
     <path transform="matrix(18.076 0 0 18.076 -13416 -11389)" d="m763.6 650.34h-8.466v-10.012h12.637v6.257c-1e-3 2.074-1.868 3.755-4.171 3.755" clip-path="url(#SVGID_2_)" fill="#93cff2"/>
     <path transform="matrix(18.076 0 0 18.076 -13416 -11389)" d="m763.6 630.09h-8.466v10.013h12.637v-6.258c-1e-3 -2.074-1.868-3.755-4.171-3.755" clip-path="url(#SVGID_2_)" fill="#636466"/>
     <path transform="matrix(18.076 0 0 18.076 -13416 -11389)" d="m748.19 635.01c0.207-0.405 0.475-0.715 0.805-0.93 0.33-0.216 0.696-0.323 1.099-0.323 0.762 0 1.348 0.24 1.757 0.719 0.411 0.48 0.616 1.167 0.616 2.063v3.57h-1.428v-3.011c0-0.694-0.098-1.188-0.293-1.482-0.196-0.295-0.518-0.441-0.965-0.441-0.474 0-0.813 0.169-1.019 0.507-0.204 0.337-0.307 0.925-0.307 1.763v2.665h-1.428v-2.756c0-4e-3 -2e-3 -0.034-5e-3 -0.09-4e-3 -0.057-7e-3 -0.112-7e-3 -0.165 0-0.697-0.099-1.193-0.297-1.485-0.197-0.292-0.523-0.438-0.979-0.438-0.452 0-0.781 0.174-0.987 0.521-0.205 0.348-0.308 0.931-0.308 1.749v2.665h-1.459v-6.226h1.414v0.708c0.219-0.291 0.468-0.503 0.747-0.636 0.278-0.133 0.608-0.198 0.989-0.198 0.472 0 0.878 0.104 1.222 0.314 0.345 0.207 0.622 0.521 0.833 0.937" clip-path="url(#SVGID_2_)" fill="#fff"/>
     <path transform="matrix(18.076 0 0 18.076 -13416 -11389)" d="m758.27 633.88-3.362 8.241h-1.505l0.867-2.19-2.248-6.051h1.529l1.521 4.347 1.669-4.347z" clip-path="url(#SVGID_2_)" fill="#fff"/>
    </g>
   </g>
  </g>
  <g transform="matrix(1.542 0 0 1.542 -57.902 200.06)">
   <path d="m33.256 249.01 13.983-31.004h119.22l58.138 137.3 58.874-136.56h39.74l-80.216 180.12h-34.588l-69.177-148.38h-27.965v148.38h-39.004v-149.85z" fill="#fff"/>
  </g>
  <g transform="matrix(1.5101 0 0 1.5745 194.85 -441.91)" fill="#0a92ce">
   <path transform="scale(1.0211 .97935)" d="m-75.375 590.78c-0.35237 1e-4 -0.93504 0.0163-1.75 0.0625-0.815 0.0463-1.736 0.21019-2.75 0.53125-1.014 0.32113-2.0548 0.84213-3.1562 1.5312-1.1014 0.6892-2.1373 1.6816-3.0625 2.9688h-0.125v-4.0625h-6.4062v38.188h6.875v-20.844c-1.1e-5 -3.8587 0.86256-6.7906 2.625-8.8125 1.7624-2.0219 4.1223-3.0312 7.0312-3.0312 2.2916 3e-5 4.0473 0.47285 5.2812 1.4375 1.2339 0.96472 2.1458 2.1279 2.7188 3.4375 0.57288 1.3096 0.88063 2.6048 0.96875 3.9375 0.08806 1.3328 0.15622 2.3903 0.15625 3.125v20.75h6.875v-22.625c-0.04442-2.1593-0.28174-4.0005-0.65625-5.5625-0.37458-1.562-0.9072-2.9778-1.6562-4.2188-1.322-2.1593-3.1181-3.8366-5.3438-5.0312-2.2258-1.1946-4.7605-1.7812-7.625-1.7812z"/>
   <path transform="scale(1.0211 .97935)" d="m-34.469 590.78c-2.5996 4e-5 -5.0118 0.48909-7.2812 1.5-2.2694 1.011-4.2722 2.4268-5.9688 4.2188-1.6965 1.792-3.0394 3.9171-4.0312 6.375-0.99183 2.458-1.4688 5.0898-1.4688 7.9375-2e-6 2.7118 0.46786 5.2839 1.4375 7.7188 0.96963 2.4348 2.2944 4.5993 3.9688 6.4375 1.6743 1.8382 3.6368 3.2953 5.9062 4.375 2.2694 1.0796 4.7115 1.5938 7.3125 1.5938 1.4094 0 2.9597-0.21948 4.6562-0.65625 1.6965-0.43678 3.3603-1.1372 4.9688-2.125 1.6084-0.98781 3.1211-2.3149 4.5312-3.9688 1.41-1.6538 2.5552-3.7057 3.4375-6.1875h-6.875c-0.83787 1.6546-2.1529 3.1279-3.9375 4.4375s-3.9448 1.9688-6.5 1.9688c-1.1458 0-2.3599-0.20324-3.5938-0.59375-1.2339-0.39049-2.407-0.99334-3.5312-1.8438-1.1243-0.8504-2.1101-1.9411-2.9688-3.25s-1.4964-2.8805-1.9375-4.7188h30.344c0.04434-0.22993 0.08058-0.75023 0.125-1.5312 0.04434-0.78098 0.06246-1.4814 0.0625-2.125-4e-5 -2.8029-0.51727-5.392-1.5312-7.7812-1.0141-2.3892-2.3751-4.473-4.0938-6.2188-1.7188-1.7456-3.6903-3.1059-5.9375-4.0938-2.2473-0.98777-4.626-1.4687-7.0938-1.4688zm-0.0625 6.5312c1.6313 3e-5 3.1524 0.3259 4.5625 0.96875 1.41 0.64291 2.661 1.4972 3.7188 2.5312 1.0577 1.0341 1.8834 2.2073 2.5 3.5625 0.61658 1.3552 0.9737 2.7155 1.0625 4.0938h-23.656c0.0874-1.3783 0.41396-2.7386 1.0312-4.0938 0.61728-1.3552 1.4735-2.5284 2.5312-3.5625 1.0577-1.034 2.2683-1.8883 3.6562-2.5312 1.3879-0.64285 2.9194-0.96872 4.5938-0.96875z"/>
   <path transform="scale(1.0211 .97935)" d="m-8.125 579v12.812h-4.9375v6.5312h4.9375v31.656h6.875v-31.656h6.0312v-6.5312h-6.0312v-12.812z"/>
   <path transform="scale(1.0211 .97935)" d="m5.875 591.81 13.656 38.188h3.7812l7.9375-25.719h0.125l7.9375 25.719h3.8438l13.531-38.188h-7.3438l-8.0625 24.812h-0.125l-7.5938-24.812h-4.5l-7.5938 24.812h-0.125l-8.1562-24.812z"/>
   <path transform="scale(1.0211 .97935)" d="m78.75 590.78c-2.4559 0.12064-4.7108 0.69134-6.8125 1.6562-2.4019 1.1028-4.4876 2.56-6.25 4.375-1.7624 1.8151-3.1644 3.8927-4.1562 6.2812-0.99183 2.3886-1.4688 4.912-1.4688 7.5312-2e-6 2.4356 0.44001 4.8376 1.3438 7.25 0.90373 2.4124 2.2097 4.6019 3.9062 6.5312 1.6965 1.9294 3.7731 3.501 6.2188 4.7188 2.4456 1.2178 5.1961 1.8125 8.2812 1.8125s5.8759-0.60285 8.3438-1.8438c2.4678-1.2409 4.5444-2.8206 6.2188-4.75 1.6743-1.9293 2.9406-4.1107 3.8438-6.5 0.90302-2.3892 1.375-4.7507 1.375-7.0938-4.9e-5 -2.7117-0.51795-5.2839-1.5312-7.7188-1.0134-2.4348-2.4029-4.5599-4.1875-6.375-1.7847-1.815-3.8794-3.256-6.2812-4.3125-2.4019-1.0565-5.0055-1.5625-7.7812-1.5625-0.35807 1e-5 -0.71166-0.0172-1.0625 0zm1.0625 6.5312c1.9393 3e-5 3.7262 0.39842 5.3125 1.1562 1.5862 0.7579 2.9388 1.7672 4.0625 3.0312 1.1236 1.2641 1.9764 2.6737 2.5938 4.2812 0.61725 1.6076 0.93746 3.268 0.9375 4.9688-3.5e-5 1.792-0.32931 3.5337-0.96875 5.1875-0.63951 1.6539-1.5515 3.1117-2.7188 4.375-1.1674 1.2634-2.529 2.2646-4.0938 3-1.5648 0.73543-3.2745 1.0938-5.125 1.0938-1.9393 0-3.6853-0.39768-5.25-1.1562-1.5647-0.75855-2.9174-1.776-4.0625-3.0625-1.1452-1.2865-2.039-2.7362-2.6562-4.3438-0.6173-1.6076-0.90626-3.2842-0.90625-5.0312-1e-5 -1.6994 0.28895-3.338 0.90625-4.9688 0.61728-1.6307 1.5014-3.0797 2.625-4.3438 1.1236-1.264 2.4762-2.2734 4.0625-3.0312 1.5862-0.75783 3.342-1.1562 5.2812-1.1562z"/>
   <path transform="scale(1.0211 .97935)" d="m122.5 590.78c-0.44113 4e-5 -1.0322 0.0251-1.7812 0.0937-0.7491 0.0688-1.556 0.26388-2.4375 0.5625-0.88157 0.2987-1.7844 0.74647-2.6875 1.3438-0.90307 0.59735-1.7002 1.4116-2.4062 2.4688h-0.125v-3.4375h-6.4062v38.188h6.875v-20.906c-1e-5 -2.7566 0.39403-4.8817 1.1875-6.375 0.79345-1.4933 1.7423-2.5453 2.8438-3.1875 0.83783-0.45987 1.7178-0.80126 2.6875-1.0312 0.96962-0.22992 1.7214-0.34372 2.25-0.34375v-7.375z"/>
   <path transform="scale(1.0211 .97935)" d="m128.47 579v51h6.875v-51zm20.031 12.812-13 18.406 14.656 19.781h8.5938l-15.406-20.219 13.281-17.969z"/>
  </g>
 </g>
</svg>
