<svg enable-background="new 0 0 1000 1000" space="preserve" version="1.1" viewBox="0 0 1e3 1e3" xmlns="http://www.w3.org/2000/svg">
 <style type="text/css">.st0{fill:#FFFFFF;}
	.st1{fill:#00438C;}
	.st2{fill:#DA1A32;}</style>
 <link href="" rel="stylesheet" type="text/css"/>
 <path class="st0" d="M896.2,0H103.8C46.5,0,0,46.5,0,103.8v792.5C0,953.5,46.5,1000,103.8,1000h792.5   c57.3,0,103.8-46.5,103.8-103.8V103.8C1000,46.5,953.5,0,896.2,0z"/>
 <path class="st1" d="m327.3 881.6c-12.5-11.1-4.2-16-4.9-20.9-8.4-34.8-36.2-55.7-21.6-66.9-3-8.8-6.5-17.4-10.4-25.8-43.2-24.4-79.4-64.8-85.7-70.3-6.3-5.6-20.2-16.7-23-23s-60.6-81.5-72.4-107.2l-20.2-2.8c-9.1-38.3-40.4-70.3-41.1-107.9 0.9-17.5 4-34.8 9.1-51.5 4-6.2 9-11.9 14.6-16.7v-10.4c-44.6 1.4-32-3.5-39.7-20.9s-1.4-14.6 0.7-23c6.3-24.4 25.8-62.7 34.1-80.1 8.4-17.4 11.1-29.9 11.1-29.9 33.4-67.5 46-62.7 85.7-66.9l2.1-2.8c39.7-1.4 33.4-4.9 39-43.2-5.6 2.8-7.7-11.8-7.7-11.8-3.5-21.6 6.3-17.4 10.4-18.1 0.7-35.5 4.9-47.4 30.6-57.1h-134.2c-43.8 0-79.4 35.5-79.4 79.4v792.5c0 43.8 35.5 79.4 79.4 79.4h234c-27.2-14.7-11.2-41.9-10.5-94.1"/>
 <path class="st2" d="m896.2 24.4h-634.4c9.6 2.6 17.9 8.8 23 17.4 9.8 0.7 21.6 23 3.5 55 8.4 5.6 2.1 13.2-4.2 22.3s-3.5 8.4-8.4 7.7c-7 14.6-15.3 28.6-21.6 29.2-2.8 3.1-3.1 7.7-0.7 11.1 9.3 3.8 18 9 25.8 15.3v3.5c7 4.2 10.4 7.7 18.1 11.8 18.8 11.8 42.5 33.4 39.7 107.2 5.6 16 7.7 47.4 12.5 57.8 4.9 10.4 16.7 32.7 19.5 50.8 0 0 2.8 27.2 6.3 30.6h2.1c16 3.5 13.2 5.6 14.6 8.4l4.2 3.5c4.2 2.1 11.1 4.2 11.1 11.8l3.5 5.6c2.1 3.3 4 6.8 5.6 10.4 5.6 15.8 5.6 33 0 48.7v2.1c-6.1 15.3-17.5 27.8-32 35.5h-1.4l-2.1 1.4c-9.4 4.4-19.6 6.8-29.9 7-38.9-5.2-66.2-40.9-61.1-79.8 3.4-25.6 20.4-47.3 44.4-56.7-8.4-20.2-25.1-52.9-29.9-63.4-4.9-10.4-16.7-78-18.8-91.2s-30.6 17.4-30.6 18.8-22.3 55.7-23 58.5c-0.5 3-0.7 6-0.7 9.1 0 0 10.4 1.4 16 18.8s23.7 82.2 23.7 82.2l-4.9 4.9c22.3 74.5 14.6 106.5 24.4 128.8 9.7 22.3 16 26.5 26.5 52.9 10.4 26.5 16 93.3 19.5 96.1 11.8 15.3 18.8 27.2 18.8 35.5 0 8.4-10.4 34.1-6.3 49.4 4.2 15.3 3.5 28.6 7.7 32 4.2 3.5 3.5 7.7 2.1 10.4-0.8 1.3-1.3 2.7-1.4 4.2 6.3 23.7 27.9 63.4-6.3 84.3l-2.1 1.4h548.7c43.3-0.4 78.3-35.4 78.7-78.7v-792.2c-0.5-44-36.2-79.4-80.2-79.4z"/>
 <path class="st0" d="m880.9 213.1h-79.4l-17.4 289-11.8 190.8-11.8-188-19.5-291.8h-82.9l60.6 574.5h100.3l61.9-574.5zm-438.7 71.7h59.2v502.1h77.3v-502.1h60.6v-72.4h-197.1v72.4z"/>
 <path class="st0" d="m147.6 926.2v-143.5h27.9c16 0 25.8 8.4 25.8 28.6v21.6c0 13.2-4.2 19.5-9.7 23 6.6 4.8 10.3 12.7 9.7 20.9v20.9c0 19.5-10.4 28.6-25.8 28.6l-27.9-0.1zm19.5-62.7v44.6h7.7c6.3 0 8.4-3.5 8.4-10.4v-24.4c0-7-2.1-9.7-8.4-9.7h-7.7zm0-62.7v47.4h7c7 0 8.4-2.1 8.4-10.4v-27.9c0-7-2.1-9.7-8.4-9.7h-7v0.6zm80.1 96.1h-17.4l-2.1 29.2h-19.5l17.4-143.5h27.2l16.7 143.5h-20.2l-2.1-29.2zm-9-98.2h-0.7c-1.4 17.4-3.5 47.4-4.2 57.1l-2.1 25.1h14.6l-2.1-25.1c-0.7-9.7-3.4-39.6-5.5-57.1m-147 127.5h-16.7v-143.5h26.5l21.6 117.7c-2.1-27.9-4.2-62-4.2-91.2v-26.5h16.7v143.5h-24.4l-21.6-114.9c1.4 26.5 2.1 48.1 2.1 69.6v45.3z"/>
</svg>
