<svg width="1e3" height="323.08" version="1.1" viewBox="0 0 1e3 323.08" xml:space="preserve" xmlns="http://www.w3.org/2000/svg">
<g transform="translate(-18.056 230.68)" fill="#fff" stroke-width="5.3489"><path d="m161.11-0.67052-15.512 57.768-26.744-57.768h-18.721l-24.605 90.931h19.791l16.047-59.907 27.814 59.907h17.116l24.605-90.931z"/><path d="m242.95-2.2752c-29.954 0-54.559 24.07-55.093 54.024 0 23 16.582 40.651 41.721 40.651 29.954 0 54.559-24.07 55.093-54.024 0-23.535-16.582-40.651-41.721-40.651zm10.163 66.861c-5.3489 5.8838-13.372 9.0931-21.396 9.0931-11.768 1.0698-21.93-7.4884-23-19.256v-3.7442c0.53489-9.628 4.2791-18.186 10.698-25.14 5.3489-5.8838 13.372-9.0931 21.396-9.0931 11.768-1.0698 21.93 7.4884 23 19.256v3.7442c0 9.0931-4.2791 18.186-10.698 25.14z"/><path d="m385.76 26.609c0-6.9535-2.1396-13.372-6.9536-18.186-6.4186-6.4187-15.512-9.0931-29.419-9.0931h-33.163l-24.605 90.931h20.326l8.0233-29.419h14.977l13.907 29.419h23l-15.512-31.024c8.0233-1.6047 15.512-5.3489 20.861-10.698 5.8838-5.8838 8.5582-13.907 8.5582-21.93zm-25.14 10.698c-5.3489 4.2791-11.768 6.4187-18.186 5.8838h-17.651l6.9536-26.21h16.582c4.814-0.53489 9.628 1.0698 13.372 3.7442 2.1396 2.1396 3.2093 4.814 2.6744 7.4884 0.53488 3.2093-1.0698 6.9535-3.7442 9.0931z"/><path d="m455.83 0.39926-0.53489-1.0698h-53.489l-4.814 18.721h27.814l-19.791 72.21h20.326l19.791-72.745h19.791c-4.814-4.814-7.4884-10.698-9.0931-17.116zm21.396-1.0698v0.53489z"/><path d="m551.58-0.67052-9.628 35.837h-36.372l9.628-35.837h-20.326l-24.605 90.931h20.326l9.628-36.372h36.372l-10.163 36.372h20.326l24.605-90.931z"/><path d="m703.48-0.67052-35.303 61.512-4.2791-62.047h-17.116l-36.907 62.047-2.1396-61.512h-20.861l6.4187 92.001h18.186l35.838-58.303 4.2791 58.303h18.721l56.163-92.001z"/><path d="m806.18 16.981 4.814-17.651h-67.931l-24.605 90.931h69.001l4.814-17.651h-49.21l5.3489-19.256h42.256l4.814-17.651h-42.256l4.814-18.721z"/><path d="m858.6 36.772c-12.302-5.3489-16.047-6.9535-16.047-11.768s4.814-9.0931 13.372-9.0931 16.047 3.7442 21.93 9.628l13.907-13.907c-9.0931-9.0931-21.396-14.442-34.233-13.907-10.163-0.53489-20.326 3.2093-28.349 10.163-5.3489 5.3489-8.0233 12.302-8.0233 19.791 0 13.372 10.698 19.791 22.465 24.605 11.768 4.814 15.512 7.4884 15.512 11.768 0 5.8838-5.8838 9.628-13.907 9.628-9.628 0-18.721-4.2791-25.14-11.768l-14.977 12.837c8.5582 11.233 21.93 16.582 39.582 16.582 10.163 0.53489 20.326-3.2093 27.814-10.163 5.3489-5.3489 8.5582-12.302 8.0233-19.791 0-13.372-9.0931-19.791-21.93-24.605z"/><path d="m905.14-0.67052-4.814 18.186h27.814l-19.791 72.745h20.326l19.256-72.745h27.814l4.814-18.186z"/></g>
<g transform="matrix(5.3489 0 0 5.3489 -96.577 -171.16)">
	<path d="m47.3 36.6c0.8-1.4 2.1-2.6 3.6-3.3 2.6-1.1 5.7-0.7 7.8 1.2 2 1.7 2.9 4.3 2.5 6.9 0.5-0.2 1-0.3 1.5-0.6 3.9-1.2 8.1 1 9.3 4.9 0.5 1.6 0.4 3.3-0.1 4.8-0.5 1.2-1.2 2.2-2.2 3l0.1 0.1c3 0.3 5.5 2.2 6.5 5 0.9 2.7 0.1 5.7-1.9 7.6-1.6 1.5-3.8 2.3-6 2.1h-42.2c-3.2 0.2-6.3-1.6-7.6-4.5-1.1-2.7-0.5-5.9 1.5-8 1.3-1.3 3-2.1 4.8-2.3-2.1-1.8-3-4.6-2.5-7.3 0.6-2.4 2.2-4.4 4.5-5.3 2.1-0.8 4.4-0.6 6.3 0.4l0.1-0.1c-0.5-3 0.8-5.9 3.3-7.5 2.5-1.5 5.7-1.5 8.1 0.1 1.1 0.8 2 1.7 2.6 2.8z" fill="#fff"/>
	<path d="m59.2 37.7c0.7 1.9 0.5 4.1-0.6 5.9l-7.3 16.5-0.1 0.1-2.7-16.7c-0.2-1.6 1.5-2.3 2.5-3 0-0.3-0.3-0.2-0.5-0.3h-2.5l0.1-0.2c0-2.1 1.2-4 3-5 2.1-1.1 4.6-0.9 6.5 0.6 0.6 0.6 1.2 1.3 1.6 2.1z" fill="#fff"/>
	<path d="m45.7 37.2c0.7 1.1 0.9 2.5 0.7 3.8l-3 19.1m0.1 0-0.8-1.5-7.5-16.7c-1-3 0.7-6.3 3.7-7.3 1.3-0.4 2.7-0.4 4 0.2 1.2 0.5 2.1 1.3 2.8 2.4z" fill="#fff"/>
	<path d="m70 45.2c1 1.9 0.8 4.1-0.3 5.9-0.8 1-1.7 1.8-2.8 2.4l-15.5 10.7 0.2-0.5 8.2-18.5c1.5-2.8 5.1-3.9 7.9-2.3 1 0.4 1.8 1.3 2.3 2.3z" fill="#fff"/>
	<path d="m34.8 45.1 8.6 19.1h-0.2l-17.2-11.9c-1.7-1.4-2.5-3.8-1.9-5.9 0.5-1.7 1.8-3.2 3.5-3.9 2.7-1 5.8 0.1 7.2 2.6z" fill="#fff"/>
	<path d="m74.5 58.7c0.8 1.9 0.5 4.2-0.7 5.8-1.1 1.5-2.9 2.3-4.8 2.2h-18.3l15.4-10.7c2.8-1.7 6.4-0.8 8.1 2 0.1 0.2 0.2 0.4 0.3 0.7z" fill="#fff"/>
	<path d="m20.1 58.7c-1.3 2.9 0 6.3 3 7.6 0.8 0.3 1.6 0.5 2.5 0.5h18.4l-15.5-10.8c-2.8-1.7-6.4-0.8-8.1 2-0.1 0.2-0.2 0.4-0.3 0.7z" fill="#fff"/>
	<path d="m59.2 37.7c0.7 1.9 0.5 4.1-0.6 5.9l-7.3 16.5-0.1 0.1-2.7-16.7c-0.2-1.6 1.5-2.3 2.5-3 0-0.3-0.3-0.2-0.5-0.3h-2.5l0.1-0.2c0-2.1 1.2-4 3-5 2.1-1.1 4.6-0.9 6.5 0.6 0.6 0.6 1.2 1.3 1.6 2.1z" fill="#5a5a96"/>
	<path d="m45.7 37.2c0.7 1.1 0.9 2.5 0.7 3.8l-3 19.1m0.1 0-0.8-1.5-7.5-16.7c-1-3 0.7-6.3 3.7-7.3 1.3-0.4 2.7-0.4 4 0.2 1.2 0.5 2.1 1.3 2.8 2.4z" fill="#b42846"/>
	<path d="m70 45.2c1 1.9 0.8 4.1-0.3 5.9-0.8 1-1.7 1.8-2.8 2.4l-15.5 10.7 0.2-0.5 8.2-18.5c1.5-2.8 5.1-3.9 7.9-2.3 1 0.4 1.8 1.3 2.3 2.3z" fill="#008cc3"/>
	<path d="m34.8 45.1 8.6 19.1h-0.2l-17.2-11.9c-1.7-1.4-2.5-3.8-1.9-5.9 0.5-1.7 1.8-3.2 3.5-3.9 2.7-1 5.8 0.1 7.2 2.6z" fill="#e16428"/>
	<path d="m74.5 58.7c0.8 1.9 0.5 4.2-0.7 5.8-1.1 1.5-2.9 2.3-4.8 2.2h-18.3l15.4-10.7c2.8-1.7 6.4-0.8 8.1 2 0.1 0.2 0.2 0.4 0.3 0.7z" fill="#00a846"/>
	<path d="m20.1 58.7c-1.3 2.9 0 6.3 3 7.6 0.8 0.3 1.6 0.5 2.5 0.5h18.4l-15.5-10.8c-2.8-1.7-6.4-0.8-8.1 2-0.1 0.2-0.2 0.4-0.3 0.7z" fill="#f0b428"/>
	<path d="m205 46c-0.3-2-3.4-2.5-8.7-2-2.8 0.2-8.1 1-12.9 1.7l4.7-5.2c0.4-0.2 0.6-0.7 0.4-1.1-0.1-0.2-0.2-0.3-0.4-0.4-0.7-0.5-1.4-1-2.2-1.3 0 0-0.5-0.5-1.3 0.3-2.7 2.7-5.3 5.6-7.7 8.7-4.7 0.6-10.1 1-11.5 1.2 0 0-0.7 0.1-1-0.3 0 0-0.6-0.4-0.5 0.6 0 0 0.1 2.7 2.8 2.2 1.5-0.3 4.5-0.7 8.2-1.2-0.6 0.8-1.6 2.1-2.6 3.5-4.7 5.1-12.6 13.3-14.3 12.2 0 0-0.4-0.4-0.1-1.2 0.4-1.3 1.9-3.7 4.9-7.2 0 0 1.4-1.7 1.3-2.4-0.1-1.1-0.7-1.1-0.7-1.1s-4-1.2-5.4-2.4c0.6-0.9 1.6-2.8 0.3-3.7 0 0-1.7-1.1-2.9 1.5-0.5 0.9-0.4 2.1 0.2 2.9-0.9 1-3.5 3.5-6 4.2 0-0.7-0.5-1.4-1.1-1.7 0 0-1.4-0.7-2.1 0.2s-0.1 1.7 0.7 2.3c-0.5 1.1-1.1 2.1-1.8 3-1.2 1.9-2.8 3.6-4.6 4.8-0.7 0.5-3.5 2.1-4.2-0.1-0.4-1.2 0.3-3.6 2-6.3 3.6-5.6 8.6-7.4 9.9-6.5 0.4 0.3 0.5 0.9 0.3 1.3 0 0-0.1 0.4 0.4 0.4s0.8-0.4 0.9-0.8c0.2-1.2-0.9-2.5-2.1-3.5-0.4-0.3-0.8-0.5-1.3-0.7-1.7-0.4-3.5-0.2-5 0.7-3.2 1.7-5.8 4.3-7.5 7.5-0.9 1.5-1.4 3.1-1.4 4.8 0 1.1 0.2 2.1 0.8 3.1 0.8 1.1 1.8 2 2.9 2.7 3.1 1.6 6.8-1.4 8.2-2.7 2.1-1.9 3.7-4.1 4.9-6.7 3.3-0.8 6.5-4.1 7.6-5.3 0.2 0.1 0.4 0.3 0.6 0.4l2 1c-0.9 1-1.7 2-2.4 3.1-1.3 1.8-4.4 6-2.4 8.7 0.4 0.7 1.1 1.2 1.8 1.5 2.7 1.1 5.7-1.6 10.4-6.5 0.7-0.8 1.5-1.6 2.1-2.3-0.3 0.6-0.6 1.2-0.8 1.8-1.1 2.8-0.5 5.4 1.8 6.9 1.4 0.9 3.1 0.5 5.1-0.8 4-2.6 9.9-8.6 13.6-12.5-0.1 0.5-0.3 1.1-0.4 1.8-0.9 4.9-3.9 11.3-5.1 9.7 0 0.2 0-1.1-0.7-1.6-0.4-0.5-1.2-0.6-1.8-0.2-0.9 0.6-0.4 2.6 2.2 4 0.5 0.3 1.1 0.4 1.6 0.5 1.4 0.2 4.3 0.3 7.7-2.3 3.3-2.6 6.5-5.4 9.6-8.4 0 0 1-0.9 0.1-1.4-0.3-0.1-0.7-0.1-0.9 0.2l-0.5 0.5c0.1-0.1-7 6.6-11.1 8.9 0.7-1 1.2-2.2 1.4-3.4 0.3-1.2 0.8-4.4 1.3-6.7 0.2-0.9 0.5-1.8 0.8-2.6 0.5-1.1 1.2-1 1.4-1.4s0.1-0.5-0.2-0.8l-0.9-0.9c-0.4-0.4-0.9-0.7-1.4-0.8-0.3-0.1-0.6 0-0.8 0.2-0.4 0.4-0.8 0.8-1.1 1.3-2.1 2.3-10.4 11.1-15.5 14.1 0.3-0.2-4.1 2.8-3.2-1 0.4-1.8 2.2-5.7 7.1-11.9l2.6-2.9c2.1-0.3 4.3-0.6 6.5-1 0 0 19.3-2.4 14.1 1.7 0 0 0.3 0.7 1.1 0 1.7-1.3 2.3-2.5 2.2-3.1z" fill="#f0b428"/>
	<path d="m131 48.5c-1.5-1.1-3.6-0.2-3.6-0.2-4 1.3-8.4 4.5-11.8 7.5 1.6-1.8 3.4-3.8 5.4-5.9 0 0 1.5-0.7 0.3-1.8s-2.4-2.1-2.4-2.1-0.5-0.5-0.8-0.3-0.1 0.7 0 0.8c-0.2 0.3-0.4 0.6-0.7 0.9l-0.1 0.1c-1.3 1-2.8 1.9-4.3 2.5-2.3 0.8-5.3 1.8-8.4 3-0.2-0.2-0.4-0.4-0.7-0.5-3.8-2.4-15.2-2.6-19.5-2.9-4.7-0.4-5.8-0.7-5.9-1.4-0.2-1 1.3-2.5 3.4-4 8.2-6 19.6-7.2 23.3-7.2 4 0.1 5.2 0.5 5.2 0.8 0 0.2 0 0.4-0.1 0.5-0.7 0.7-1.6 1.4-2.5 1.8-2.5 1.6-5.1 2.9-7.7 4.1-0.9 0.8 0.8 1 0.8 1 2.3-0.1 4.6-0.6 6.7-1.5 4.4-1.7 5.4-3.2 5.6-4.1 0.1-1 0-2-0.4-3-1.1-4.8-8.7-4.6-8.7-4.6-8.9 0.1-17.6 3-24.9 8.2-4.4 3.2-3.8 5.6-3.8 5.6s-0.1 4.5 3.3 5.6c1.5 0.5 3.1 0.8 4.7 0.9 4.4 0.4 7.6 0.5 12.2 0.8 2 0.1 3.9 0.4 5.8 0.8-3.7 1.3-7.3 2.9-10.9 4.6-2.9 1.5-7.3 3.9-8.8 5.8-1.7 2.1-0.4 3.8-0.3 3.8 0.3 0.6 1.6 2.5 6.4 1.9 2.6-0.5 5.1-1.4 7.4-2.7 2.5-1.4 4.8-3 6.9-5 2.8-2.7 3.6-4.8 3.6-6.7 0-0.6-0.1-1.2-0.3-1.7 3.4-1.2 6.4-2.1 8.4-2.6-4.6 5.5-11.8 15.3-11.8 21.8 0 0.5 0.1 1 0.2 1.6 0.1 0.7 0.4 1.3 0.8 1.9l0.3 0.5 0.3 0.4s0.7 0.5 1 0.3c0-0.1 0.1-0.2 0.1-0.3-0.1-0.3-0.6-0.5-0.6-0.5-0.3-0.4-0.4-1-0.3-1.5 0-0.2 0.1-0.4 0.1-0.6v-0.1c0.1-0.5 0.2-1.1 0.4-1.6 0.1-0.4 0.3-0.9 0.5-1.4l1.1-2.6c1.9-3.2 4.2-6.1 6.8-8.8 7.3-7.3 13.8-10.2 15.1-10.7 1-0.3 1.4-0.2 1.6-0.1 0.9 0.8-1.4 4.6-1.4 4.6l-0.1 0.2c-4.2 6.1-6.6 7.8-8.8 8.6-0.9 0.3-1.9 0.2-2.7-0.2-0.5-0.4-0.7-0.9-0.8-1.5 0.1-0.6-0.2-0.6-0.2-0.6-1 0.4-0.5 2.2-0.5 2.2 0.8 3.5 5.6 4.4 10.2 0.9 6.1-4.5 7.3-8.2 8.1-10.4 0.9-2-0.7-3.7-2.2-4.9zm-28.1 7.8c-1.5 2.6-6.7 5.8-8.4 6.8-1.9 1.1-3.8 2-5.9 2.8-3 1.1-5.7 1.6-5.9 0.9-0.1-0.3-0.3-0.4 0.7-1.5 2.4-2 5-3.7 7.8-5.1 3.8-1.9 7.8-3.6 11.8-5.1 0.2 0.4 0.1 0.8-0.1 1.2z" fill="#f0b428"/>
</g>
</svg>
