<svg width="1e3" height="396.95" version="1.1" viewBox="0 0 1e3 396.95" xml:space="preserve" xmlns="http://www.w3.org/2000/svg">
<g transform="matrix(.29507 0 0 .29507 -4.3656 281.99)" stroke-width="17.723"><path d="m546.62-870.58c15.951-26.585 37.219-46.08 65.576-60.259 47.853-19.496 102.79-12.406 141.79 21.268 35.446 30.129 53.17 77.982 44.308 125.83 8.8616-3.5446 17.723-5.317 26.585-10.634 70.893-23.04 147.1 17.723 168.37 88.616 8.8616 28.357 8.8616 60.259-1.7723 86.844-8.8616 21.268-21.268 40.763-38.991 54.942l1.7723 1.7723c53.17 5.317 99.25 40.763 116.97 92.161 15.951 49.625 1.7723 102.79-33.674 138.24-30.13 26.585-69.12 40.763-109.88 38.991h-763.87c-58.487 3.5446-113.43-28.357-138.24-83.299-21.268-49.625-10.634-106.34 28.357-145.33 23.04-23.04 53.17-37.219 86.844-40.763-37.219-31.902-54.942-83.299-44.308-131.15 8.8616-44.308 40.763-79.754 81.527-95.705 37.219-14.179 79.754-10.634 115.2 7.0893l1.7723-1.7723c-10.634-53.17 14.179-108.11 60.259-136.47s102.79-26.585 147.1 1.7723c17.723 12.406 31.902 28.357 44.308 47.853" fill="#fff"/><path d="m762.85-851.09c15.951 33.674 7.0893 76.21-10.634 106.34l-132.92 297.75-1.7723 1.7723-47.853-303.07c-3.5446-28.357 26.585-40.763 46.08-54.942 0-5.317-5.317-5.317-8.8616-5.317h-44.308l-1.7723-1.7723c0-37.219 21.268-72.665 54.942-90.388 37.219-19.496 83.299-15.951 116.97 12.406 14.179 10.634 23.04 23.04 30.129 37.219" fill="#fff"/><path d="m518.27-859.95c12.406 21.268 17.723 44.308 14.179 67.348l-54.942 347.37-14.179-28.357-136.47-303.07c-17.723-54.942 12.406-113.43 67.348-131.15 23.04-7.0893 49.625-7.0893 72.665 3.5446 21.268 8.8616 38.991 24.812 51.397 44.308" fill="#fff"/><path d="m959.57-714.62c17.723 33.674 14.179 74.437-5.317 106.34-14.179 17.723-31.902 31.902-51.397 44.308l-281.8 193.18 3.5446-8.8616 148.87-336.74c28.357-51.397 92.161-69.12 143.56-42.536 17.723 10.634 31.902 24.812 42.536 44.308" fill="#fff"/><path d="m321.54-716.39 155.96 345.6h-3.5446l-313.7-216.22c-31.902-26.585-44.308-67.348-33.674-108.11 8.8616-31.902 31.902-58.487 63.803-70.893 47.853-17.723 104.57 3.5446 131.15 49.625" fill="#fff"/><path d="m1041.1-470.04c15.951 35.446 10.634 76.21-12.406 106.34-21.268 26.585-53.17 40.763-86.844 40.763h-333.2l278.25-194.96c49.625-30.129 115.2-15.951 147.1 35.446 1.7723 3.5446 3.5447 7.0893 7.0893 12.406" fill="#fff"/><path d="m53.918-470.04c-23.04 53.17 0 113.43 53.17 138.24 14.179 7.0893 30.129 8.8616 46.08 8.8616h333.2l-280.03-194.96c-49.625-30.129-115.2-14.179-145.33 35.446-3.5446 1.7723-5.317 7.0893-7.0893 12.406" fill="#fff"/><path d="m762.85-851.09c15.951 33.674 7.0893 76.21-10.634 106.34l-132.92 297.75-1.7723 1.7723-47.853-303.07c-3.5446-28.357 26.585-40.763 46.08-54.942 0-5.317-5.317-5.317-8.8616-5.317h-44.308l-1.7723-1.7723c0-37.219 21.268-72.665 54.942-90.388 37.219-19.496 83.299-15.951 116.97 12.406 14.179 10.634 23.04 23.04 30.129 37.219" fill="#5a5a96"/><path d="m518.27-859.95c12.406 21.268 17.723 44.308 14.179 67.348l-54.942 347.37-14.179-28.357-136.47-303.07c-17.723-54.942 12.406-113.43 67.348-131.15 23.04-7.0893 49.625-7.0893 72.665 3.5446 21.268 8.8616 38.991 24.812 51.397 44.308" fill="#b42846"/><path d="m959.57-714.62c17.723 33.674 14.179 74.437-5.317 106.34-14.179 17.723-31.902 31.902-51.397 44.308l-281.8 193.18 3.5446-8.8616 148.87-336.74c28.357-51.397 92.161-69.12 143.56-42.536 17.723 10.634 31.902 24.812 42.536 44.308" fill="#008cc3"/><path d="m321.54-716.39 155.96 345.6h-3.5446l-313.7-216.22c-31.902-26.585-44.308-67.348-33.674-108.11 8.8616-31.902 31.902-58.487 63.803-70.893 47.853-17.723 104.57 3.5446 131.15 49.625" fill="#e16428"/><path d="m1041.1-470.04c15.951 35.446 10.634 76.21-12.406 106.34-21.268 26.585-53.17 40.763-86.844 40.763h-333.2l278.25-194.96c49.625-30.129 115.2-15.951 147.1 35.446 1.7723 3.5446 3.5447 7.0893 7.0893 12.406" fill="#00a846"/><path d="m53.918-470.04c-23.04 53.17 0 113.43 53.17 138.24 14.179 7.0893 30.129 8.8616 46.08 8.8616h333.2l-280.03-194.96c-49.625-30.129-115.2-14.179-145.33 35.446-3.5446 1.7723-5.317 7.0893-7.0893 12.406" fill="#f0b428"/><g fill="#f0b428"><path d="m2063.7-654.36c-26.585-21.268-63.804-5.317-63.804-5.317-72.665 23.04-152.42 81.527-214.45 136.47 28.357-31.902 60.259-67.348 97.478-106.34 0 0 26.585-14.179 5.3169-33.674-19.496-19.496-44.308-38.991-44.308-38.991s-8.8615-8.8616-14.178-5.317-1.7723 12.406 0 14.179c-3.5446 7.0893-7.0893 12.406-12.406 17.723l-1.7724 1.7723c-24.812 17.723-49.625 33.674-77.982 44.308-42.536 15.951-95.705 33.674-152.42 53.17-3.5446-3.5446-7.0893-7.0893-12.406-8.8616-69.12-42.536-274.71-46.08-352.69-53.17-85.071-7.0893-104.57-12.406-108.11-26.585-3.5446-17.723 23.04-44.308 62.031-72.665 148.87-108.11 354.46-131.15 421.81-129.38 72.665 1.7723 93.933 8.8616 93.933 14.179 0 3.5446 0 7.0893-1.7723 8.8616-14.179 12.406-28.357 24.812-46.08 33.674-44.308 28.357-92.161 53.17-140.01 76.21-15.951 14.179 14.179 17.723 14.179 17.723 42.536-1.7723 83.299-10.634 122.29-26.585 79.754-30.129 99.25-58.487 101.02-74.437 1.7724-17.723 0-37.219-7.0892-54.942-19.496-86.844-155.96-83.299-155.96-83.299-161.28 1.7723-319.02 53.17-450.17 148.87-79.754 58.487-67.348 101.02-67.348 101.02s-3.5447 86.844 58.486 106.34c26.585 8.8616 54.942 14.179 85.071 15.951 79.754 8.8616 138.24 8.8616 219.77 14.179 35.446 1.7723 70.893 7.0893 104.57 14.179-67.348 24.812-132.92 51.397-196.73 83.299-53.17 26.585-131.15 70.893-159.51 106.34-33.674 42.536-1.7724 76.21-5.317 69.12 5.317 8.8616 26.585 47.853 116.97 35.446 47.853-8.8616 93.933-24.812 134.7-47.853 46.08-24.812 86.844-54.942 124.06-92.161 51.397-49.625 65.576-86.844 65.576-120.52 0-10.634-1.7723-21.268-5.3169-31.902 62.031-21.268 115.2-37.219 150.65-47.853-101.02 120.52-269.39 350.92-194.96 457.26 3.5446 5.317 7.0893 10.634 12.406 15.951 0 0 14.179 10.634 17.723 3.5446 5.317-7.0893-10.634-14.179-10.634-14.179-5.317-8.8616-7.0893-17.723-5.317-28.357 3.5447-23.04 8.8616-46.08 17.723-67.348l21.268-46.08c33.674-58.487 76.21-111.66 122.29-159.51 132.92-131.15 249.9-186.09 274.71-193.18 17.723-5.317 24.812-3.5446 28.357-1.7723 17.723 14.179-24.812 83.299-24.812 83.299l-1.7723 3.5446c-76.21 109.88-120.52 141.79-159.51 155.96-15.951 5.317-33.674 5.317-49.625-5.317-8.8616-7.0893-14.179-17.723-14.179-28.357 1.7723-12.406-3.5446-10.634-3.5446-10.634-19.496 7.0893-8.8616 38.991-8.8616 38.991 14.178 63.803 101.02 79.754 184.32 17.723 109.88-81.527 131.15-147.1 147.1-187.87 14.179-35.446-14.178-67.348-40.763-86.844m-510.43 140.01c-28.357 47.853-120.52 106.34-152.42 122.29-33.674 19.496-69.12 37.219-106.34 51.397-54.942 19.496-102.79 28.357-106.34 15.951-1.7724-5.317-5.317-7.0893 12.406-26.585 21.268-21.268 83.299-62.031 141.79-92.161 69.12-35.446 140.01-65.576 212.68-92.161 3.5446 7.0893 3.5446 15.951-1.7724 21.268"/><path d="m3403.6-700.44c-5.317-35.446-60.259-44.308-157.74-37.219-51.397 3.5446-147.1 17.723-232.17 31.902l85.071-93.933c7.0893-3.5446 10.634-12.406 7.0893-19.496-1.7723-3.5446-3.5446-5.317-7.0893-7.0893-12.406-8.8616-24.812-17.723-38.991-24.812 0 0-8.8616-8.8616-23.04 5.317-49.625 49.625-95.705 102.79-140.01 157.74-85.071 10.634-182.55 17.723-207.36 21.268 0 0-12.406 3.5446-17.723-5.317 0 0-10.634-7.0893-8.8616 10.634 0 0 1.7723 49.625 49.625 40.763 26.585-5.317 81.527-12.406 148.87-21.268-10.634 14.179-28.357 37.219-47.853 63.803-85.071 92.161-228.63 241.04-260.53 219.77 0 0-7.0893-7.0893-1.7723-23.04 7.0893-23.04 33.674-65.576 88.616-129.38 0 0 24.812-30.129 24.812-42.536-1.7723-19.496-12.406-19.496-12.406-19.496s-72.665-21.268-97.478-42.536c10.634-15.951 28.357-51.397 5.317-67.348 0 0-30.129-19.496-53.17 26.585-8.8616 15.951-7.0893 37.219 3.5447 53.17-15.951 17.723-62.031 62.031-108.11 76.21 0-12.406-8.8616-24.812-19.496-30.129 0 0-24.812-12.406-38.991 3.5446-14.179 15.951-1.7723 31.902 12.406 42.536-8.8616 19.496-19.496 37.219-31.902 54.942-21.268 35.446-49.625 65.576-85.071 88.616-12.406 8.8616-63.804 37.219-76.21-1.7723-7.0892-23.04 5.317-65.576 37.219-113.43 63.804-101.02 155.96-132.92 179-118.75 7.0892 5.317 8.8615 15.951 5.3169 23.04 0 0-1.7723 7.0893 7.0893 7.0893s14.178-7.0893 15.951-15.951c3.5446-21.268-15.951-46.08-37.219-63.803-7.0893-5.317-14.179-8.8616-23.04-14.179-30.129-7.0893-63.804-3.5446-90.388 12.406-56.714 30.129-104.57 77.982-134.7 134.7-15.951 26.585-24.812 56.714-24.812 88.616 0 19.496 3.5446 38.991 14.178 56.714 14.179 19.496 31.902 37.219 53.17 49.625 56.714 28.357 122.29-26.585 148.87-49.625 37.219-33.674 67.348-74.437 88.616-120.52 60.259-15.951 118.75-74.437 138.24-95.705 3.5446 1.7723 7.0892 5.317 10.634 7.0893l35.446 19.496c-15.951 17.723-30.13 35.446-42.536 54.942-23.04 31.902-79.754 108.11-42.536 155.96 8.8616 12.406 19.496 21.268 33.674 28.357 47.853 19.496 102.79-28.357 187.87-116.97 14.179-14.179 26.585-28.357 38.991-42.536-5.3169 10.634-10.634 21.268-14.178 31.902-19.496 51.397-8.8616 97.478 33.674 125.83 24.812 15.951 56.714 8.8616 93.933-14.179 72.665-47.853 179-155.96 246.35-226.86-1.7723 8.8616-5.317 21.268-7.0893 31.902-15.951 88.616-70.893 203.82-92.161 175.46 0 3.5446 0-19.496-12.406-30.129-8.8616-8.8616-21.268-10.634-31.902-3.5446-15.951 10.634-7.0892 47.853 38.991 72.665 8.8616 5.317 19.496 8.8616 30.129 8.8616 24.812 5.317 77.982 5.317 140.01-40.763 60.259-47.853 118.75-97.478 173.69-152.42 0 0 17.723-15.951 1.7723-26.585-5.3169-1.7723-12.406-1.7723-15.951 3.5446-3.5447 3.5446-5.317 5.317-8.8616 8.8616 1.7723-1.7723-125.83 120.52-202.04 161.28 14.179-19.496 23.04-40.763 28.357-63.803 5.317-21.268 14.179-79.754 24.812-120.52 3.5446-15.951 8.8616-31.902 15.951-47.853 8.8616-21.268 21.268-19.496 24.812-24.812 3.5447-5.317 1.7723-8.8616-3.5446-14.179l-15.951-15.951c-7.0893-7.0893-15.951-12.406-24.812-15.951-5.317-1.7723-10.634 0-14.179 3.5446-8.8616 7.0893-14.179 14.179-19.496 23.04-46.08 49.625-194.96 209.13-287.12 264.08 5.317-3.5446-74.437 51.397-58.486-19.496 7.0893-31.902 38.991-102.79 129.38-214.45l46.08-51.397c37.219-5.317 77.982-10.634 116.97-17.723 0 0 349.15-42.536 255.21 31.902 0 0 5.317 12.406 21.268 0 19.496-28.357 30.129-49.625 28.357-60.259"/></g></g>
<g transform="matrix(2.5459 0 0 2.5459 57.438 -677.55)" fill-rule="evenodd"><path d="m63.835 370.56c3.9203 0 6.2533-1.3397 6.2533-4.2201 0-1.7873-1.4397-3.127-4.8136-3.127h-7.1969l-1.9358 7.347zm-2.4822 14c3.8214 0 6.2046-1.6868 6.2046-4.3677 0-2.0354-1.6391-3.2778-4.765-3.2778h-8.3869l-2.0347 7.6454zm-8.8831-28.05h13.499c8.1891 0 11.762 3.8714 11.762 8.5391 0 4.6174-2.9767 7.5968-7.4434 8.5894 2.8778 1.3397 4.8623 3.4756 4.8623 7.0502 0 6.2052-5.3097 10.575-14.939 10.575h-17.072z"/><path d="m103.84 376.72-1.5888-11.468-7.6428 11.468zm-3.0285-20.455h7.346l5.5091 35.001h-7.8422l-1.0912-7.7946h-14.69l-5.2611 7.7946h-8.2394z"/><polygon transform="translate(117.48,356.15)" points="12.676 14.767 24.588 0.36842 33.819 0.36842 14.811 22.114 11.287 35.123 3.644 35.123 7.3162 21.42 0.11932 0.36842 8.6067 0.36842"/><path d="m185.77 376.72-1.5888-11.468-7.6428 11.468zm-3.027-20.455h7.3445l5.5091 35.001h-7.8422l-1.0912-7.7946h-14.69l-5.2611 7.7946h-8.2394z"/><path d="m219.81 373.39c4.7634 0 8.4372-1.9365 8.4372-5.7592 0-1.1905-0.34854-2.0354-1.0927-2.7799-0.942-0.9439-2.6298-1.4402-5.0617-1.4402h-6.4025l-2.68 9.9793zm-9.9255-16.88h12.656c5.1606 0 8.6837 1.1418 11.017 3.4756 1.738 1.737 2.68 4.1698 2.68 7 0 6.2555-3.8214 10.675-11.216 12.412l5.9063 11.866h-8.6852l-5.36-11.121h-5.7085l-2.9767 11.121h-7.6428z"/><polygon transform="translate(17,136)" points="232.79 234.42 248.92 234.42 247.08 241.12 230.95 241.12 228.97 248.47 247.63 248.47 245.79 255.27 219.58 255.27 228.92 220.51 254.87 220.51 253.04 227.32 234.67 227.32"/><path d="m294.7 376.72-1.5888-11.468-7.6428 11.468zm-3.027-20.455h7.3445l5.5091 35.001h-7.8422l-1.0912-7.7946h-14.69l-5.2611 7.7946h-8.2394z"/></g><g transform="matrix(2.3041 0 0 2.3041 1.4703e-7 -337.11)"><path d="m246.69 296.9h7.9187q1.7881 0 3.1292 0.76632 1.3411 0.7344 2.0435 2.0116 0.7344 1.2453 0.7344 2.746 0 1.7562-0.86212 3.4485-0.83019 1.6604-2.6502 2.7779-1.82 1.0856-4.6299 1.0856h-5.8752l-1.852 8.4615h-2.6502zm5.9071 10.473q2.4267 0 3.7678-1.373 1.373-1.373 1.373-3.3846 0-1.4049-1.0218-2.3628-0.98984-0.98984-2.5225-0.98984h-5.3643l-1.82 8.1103z"/><path d="m280.69 296.9h2.6502l-4.2148 18.935h9.9303l-0.51088 2.3628h-12.549z"/><path d="m316.08 318.58q-3.7678 0-5.939-1.9158-2.1393-1.9158-2.1393-5.1727 0-0.83019 0.19158-1.9158l2.8099-12.676h2.6502l-2.746 12.581q-0.22352 0.89405-0.22352 1.7881 0 2.2351 1.4369 3.6081 1.4688 1.3411 4.0552 1.3411 2.8737 0 4.4383-1.5965 1.5646-1.6284 2.2351-4.7576l2.8737-12.964h2.6502l-2.8418 12.996q-0.95791 4.2467-3.1292 6.4819-2.1713 2.2032-6.3222 2.2032z"/><path d="m344.82 312.86q1.1176 1.5646 2.9695 2.4586t4.0552 0.89405q1.5646 0 2.6183-0.57475 1.0537-0.60667 1.5646-1.5007 0.51089-0.92598 0.51089-1.8839 0-1.2772-1.1176-2.0435-1.1176-0.79826-3.3846-1.6923-1.9478-0.76633-3.1611-1.4049-1.2134-0.67053-2.0755-1.7242-0.83019-1.0856-0.83019-2.6183 0-1.6284 0.95791-3.0653 0.98984-1.4369 2.7141-2.2671 1.7242-0.86212 3.8636-0.86212 2.4586 0 4.5022 0.89405 2.0755 0.89405 3.193 2.4586l-1.82 1.852q-1.0218-1.4049-2.6821-2.1393-1.6604-0.73439-3.4804-0.73439-1.2134 0-2.2351 0.51088-0.98984 0.47896-1.5965 1.3092-0.57475 0.79825-0.57475 1.6923 0 1.1495 1.0856 1.8839 1.0856 0.70247 3.2888 1.5965 1.9797 0.79826 3.193 1.4688 1.2453 0.67053 2.1074 1.7881 0.89404 1.0856 0.89404 2.6822 0 1.7242-0.92597 3.2888-0.89405 1.5326-2.6822 2.4906-1.7562 0.95791-4.151 0.95791-2.8099 0-5.1727-1.0537-2.3309-1.0856-3.4485-2.746z"/></g></svg>
