<svg width="1e3" height="325.39" version="1.1" viewBox="0 0 1e3 325.39" xml:space="preserve" xmlns="http://www.w3.org/2000/svg">
<g transform="matrix(5.3518 0 0 5.3518 -86.461 -169.11)" fill="#fff"><path d="m64.6 88.9c-2.2 0.1-4.1-1.6-4.2-3.8v-0.3c0-1.8 0.7-3.5 2-4.8 1-1.1 2.5-1.7 4-1.8 1.7 0 3.3 0.9 4.2 2.3l3.1-2.2c-1.4-2.4-4-3.8-6.8-3.6-2.8 0-5.4 1.1-7.3 3.1-1.9 1.9-3 4.5-3 7.1 0 4.6 3.4 7.4 8 7.4 2.4 0 4.7-0.9 6.4-2.6l-2.4-2.5c-1.1 1.1-2.5 1.7-4 1.7z"/><path d="m88.7 75-1.8 6.7h-6.8l1.8-6.7h-3.7l-4.6 17h3.7l1.8-6.8h6.9l-1.8 6.8h3.7l4.6-17z"/><path d="m99.5 78.1c-0.8-0.9-1.4-1.9-1.7-3h-0.3l-4.6 17h3.8l3.6-13.3c-0.5-0.5-0.7-0.4-0.8-0.7z"/><path d="m111 88.9c-2.2 0.1-4.1-1.6-4.2-3.8v-0.3c0-1.8 0.7-3.5 2-4.8 1-1.1 2.5-1.7 4-1.8 1.7 0 3.3 0.9 4.2 2.3l3.1-2.2c-1.4-2.4-4-3.8-6.8-3.6-2.7 0-5.4 1.1-7.3 3.1-1.9 1.9-3 4.5-3 7.1 0 4.6 3.4 7.4 8 7.4 2.4 0 4.7-0.9 6.4-2.6l-2.4-2.5c-1.1 1.1-2.5 1.7-4 1.7z"/><path d="m133.8 74.9h-3.6l-11.9 17.1h4l2.7-3.8h7.2l0.5 3.8h3.8zm-6.6 10 3.7-5.6 0.8 5.6z"/><path d="m147.6 85.5h3.8l-0.8 2.8c-0.9 0.4-2 0.7-3 0.7-2.4 0-4.4-1.4-4.4-4.1 0-1.8 0.7-3.5 2-4.8 1.2-1.2 2.8-1.9 4.5-1.9s3.4 0.7 4.5 2l2.8-2.4c-1.2-1.6-3.4-3-7-3-2.9 0-5.6 1.1-7.6 3.1-1.9 1.9-3 4.4-3 7.1 0 5.1 4.1 7.4 8 7.4 2.2 0 4.3-0.5 6.2-1.6l2.4-8.5h-7.4z"/><path d="m169.3 74.7c-5.6-0.1-10.2 4.4-10.3 10.1 0 4.3 3.1 7.5 7.8 7.5 5.6 0 10.2-4.5 10.2-10.1 0.1-4.1-3.1-7.4-7.2-7.5h-0.5zm1.9 12.5c-1 1.1-2.4 1.7-3.9 1.7-2.2 0.2-4.1-1.4-4.3-3.6v-0.7c0-1.8 0.8-3.4 2-4.7 1-1.1 2.4-1.7 3.9-1.7 2.2-0.2 4.1 1.4 4.3 3.6v0.7c0 1.8-0.8 3.5-2 4.7z"/></g>
<g transform="matrix(5.3518 0 0 5.3518 -86.461 -169.11)"><path d="m45.4 36.2c0.8-1.4 2.1-2.6 3.6-3.3 2.6-1.1 5.6-0.7 7.8 1.2 2 1.7 3 4.3 2.5 6.9 0.5-0.2 1-0.3 1.5-0.6 3.9-1.2 8.1 0.9 9.3 4.9 0.5 1.6 0.5 3.3-0.1 4.8-0.5 1.2-1.2 2.2-2.2 3l0.1 0.1c3 0.3 5.5 2.2 6.5 5 0.9 2.7 0.1 5.6-1.9 7.6-1.6 1.5-3.8 2.3-6 2.1h-42.2c-3.2 0.2-6.3-1.6-7.6-4.5-1.1-2.7-0.5-5.9 1.5-8 1.3-1.3 3-2.1 4.8-2.3-2.1-1.8-3-4.6-2.5-7.3 0.5-2.4 2.2-4.4 4.5-5.3 2.1-0.8 4.4-0.6 6.3 0.4l0.1-0.1c-0.5-3 0.8-5.9 3.3-7.5 2.5-1.5 5.7-1.5 8.1 0.1 1.2 0.8 2 1.7 2.6 2.8z" fill="#fff"/><path d="m57.4 37.3c0.7 1.9 0.5 4.1-0.6 5.9l-7.3 16.5-0.1 0.1-2.6-16.8c-0.2-1.6 1.5-2.3 2.5-3 0-0.2-0.3-0.2-0.5-0.3h-2.5l-0.1-0.1c0-2.1 1.2-4 3-5 2.1-1.1 4.6-0.9 6.5 0.6 0.7 0.6 1.3 1.3 1.7 2.1z" fill="#5a5a96"/><path d="m43.9 36.8c0.7 1.1 0.9 2.5 0.7 3.8l-3 19.1-0.8-1.5-7.5-16.7c-1-3 0.7-6.3 3.7-7.3 1.3-0.4 2.7-0.4 4 0.2 1.2 0.5 2.1 1.3 2.8 2.4z" fill="#b42846"/><path d="m68.2 44.8c1 1.9 0.8 4.1-0.3 5.9-0.8 1-1.8 1.8-2.8 2.4l-15.6 10.7 0.2-0.5 8.2-18.5c1.5-2.8 5.1-3.9 7.9-2.3 1 0.4 1.8 1.3 2.4 2.3z" fill="#008cc3"/><path d="m33 44.7 8.5 19h-0.2l-17.1-11.8c-1.7-1.4-2.5-3.7-1.9-5.9 0.5-1.8 1.8-3.2 3.5-3.9 2.7-1 5.8 0.1 7.2 2.6z" fill="#e16428"/><path d="m72.7 58.3c0.8 1.9 0.6 4.1-0.7 5.8-1.1 1.5-2.9 2.3-4.8 2.2h-18.4l15.4-10.7c2.8-1.7 6.4-0.8 8.1 2 0.2 0.2 0.3 0.4 0.4 0.7z" fill="#00a846"/><path d="m18.3 58.3c-1.3 2.9 0 6.3 2.9 7.6 0.8 0.4 1.7 0.5 2.5 0.5h18.4l-15.4-10.8c-2.8-1.7-6.4-0.8-8.1 2-0.1 0.2-0.2 0.4-0.3 0.7z" fill="#f0b428"/><g fill="#f0b428"><path d="m129.1 48.1c-1.5-1.1-3.6-0.2-3.6-0.2-4 1.3-8.4 4.5-11.8 7.5 1.6-1.8 3.4-3.8 5.4-5.9 0 0 1.4-0.7 0.3-1.8s-2.4-2.2-2.4-2.2-0.5-0.5-0.8-0.3-0.1 0.7 0 0.8c-0.2 0.3-0.4 0.6-0.7 0.9l-0.1 0.1c-1.3 1-2.8 1.9-4.3 2.5-2.3 0.8-5.3 1.8-8.4 3-0.2-0.2-0.4-0.4-0.6-0.5-3.8-2.4-15.1-2.6-19.5-2.9-4.7-0.4-5.8-0.7-5.9-1.4-0.2-1 1.3-2.4 3.4-4 8.2-6 19.6-7.2 23.3-7.2 4 0.1 5.2 0.5 5.2 0.8 0 0.2 0 0.4-0.1 0.5-0.7 0.7-1.6 1.4-2.5 1.8-2.5 1.6-5 3-7.7 4.2-0.9 0.8 0.8 1 0.8 1 2.3-0.1 4.6-0.6 6.7-1.5 4.4-1.7 5.4-3.2 5.5-4.1 0.1-1 0-2-0.4-3-1.1-4.8-8.7-4.6-8.7-4.6-8.9 0.1-17.6 2.9-24.9 8.2-4.4 3.3-3.8 5.6-3.8 5.6s-0.1 4.5 3.3 5.6c1.5 0.5 3.1 0.8 4.6 0.9 4.4 0.4 7.6 0.5 12.1 0.8 2 0.1 3.9 0.4 5.8 0.8-3.7 1.3-7.3 2.9-10.9 4.6-2.9 1.5-7.3 3.9-8.8 5.8-1.7 2.1-0.4 3.9-0.3 3.9 0.3 0.6 1.6 2.5 6.4 1.9 2.6-0.4 5.1-1.3 7.5-2.6 2.5-1.4 4.8-3.1 6.9-5 2.8-2.7 3.6-4.8 3.6-6.6 0-0.6-0.1-1.2-0.3-1.7 3.4-1.2 6.4-2.1 8.3-2.6-4.6 5.5-11.8 15.3-11.8 21.8 0 0.7 0.1 1.4 0.3 2.1 0.1 0.4 0.3 0.8 0.5 1.1 0.1 0.1 0.1 0.2 0.2 0.3l0.6 0.9s0.7 0.6 1 0.2-0.5-0.8-0.5-0.8c-0.3-0.4-0.4-1-0.3-1.5 0.1-0.8 0.3-1.6 0.5-2.4 0.1-0.5 0.3-0.9 0.5-1.4l1.1-2.6c1.9-3.2 4.2-6.1 6.8-8.8 7.3-7.2 13.8-10.2 15.1-10.6 1-0.3 1.4-0.2 1.6-0.1 0.9 0.8-1.4 4.6-1.4 4.6l-0.1 0.2c-4.2 6.1-6.6 7.8-8.8 8.6-0.9 0.3-1.9 0.3-2.7-0.2-0.4-0.4-0.7-0.9-0.8-1.5 0.1-0.7-0.2-0.6-0.2-0.6-1 0.4-0.5 2.2-0.5 2.2 0.8 3.5 5.6 4.4 10.2 0.9 6-4.5 7.3-8.2 8.1-10.4s-0.6-3.9-2-5.1zm-28.1 7.8c-1.5 2.6-6.7 5.8-8.4 6.8-1.9 1.1-3.8 2-5.9 2.8-3 1.1-5.7 1.6-5.9 0.8-0.1-0.3-0.3-0.4 0.7-1.5 2.4-2 5-3.7 7.8-5.1 3.8-1.9 7.7-3.6 11.8-5.1 0.2 0.5 0.2 0.9-0.1 1.3z"/><path d="m203 45.5c-0.3-2-3.4-2.5-8.7-2-2.8 0.2-8.1 1-12.8 1.7l4.7-5.2c0.4-0.2 0.6-0.7 0.4-1.1-0.1-0.2-0.2-0.3-0.4-0.4-0.7-0.5-1.4-1-2.2-1.4 0 0-0.5-0.5-1.3 0.3-2.7 2.8-5.3 5.7-7.7 8.7-4.7 0.6-10.1 1-11.5 1.2 0 0-0.7 0.1-0.9-0.3 0 0-0.6-0.4-0.5 0.6 0 0 0.1 2.7 2.8 2.2 1.5-0.3 4.5-0.7 8.2-1.2-0.6 0.8-1.6 2-2.6 3.5-4.7 5.1-12.6 13.3-14.3 12.2 0 0-0.4-0.4-0.1-1.2 0.4-1.3 1.9-3.7 4.9-7.2 0 0 1.4-1.7 1.3-2.4-0.1-1.1-0.7-1.1-0.7-1.1s-4-1.2-5.3-2.4c0.6-0.9 1.6-2.8 0.3-3.7 0 0-1.7-1.1-2.9 1.5-0.5 0.9-0.4 2 0.2 2.9-0.9 1-3.5 3.5-6 4.2 0-0.7-0.5-1.4-1.1-1.7 0 0-1.4-0.7-2.1 0.2s-0.1 1.7 0.7 2.3c-0.5 1.1-1.1 2.1-1.8 3-1.2 1.9-2.8 3.6-4.6 4.9-0.7 0.5-3.5 2.1-4.2-0.1-0.4-1.2 0.3-3.6 2-6.3 3.6-5.5 8.6-7.4 9.9-6.5 0.4 0.3 0.5 0.9 0.3 1.3 0 0-0.1 0.4 0.4 0.4s0.8-0.4 0.9-0.8c0.2-1.2-0.9-2.5-2.1-3.5-0.4-0.3-0.8-0.5-1.3-0.7-1.7-0.4-3.5-0.2-5 0.7-3.2 1.7-5.7 4.3-7.4 7.5-0.9 1.5-1.4 3.1-1.4 4.8 0 1.1 0.2 2.1 0.8 3.1 0.8 1.1 1.8 2 2.9 2.7 3.1 1.6 6.8-1.4 8.2-2.7 2.1-1.9 3.7-4.1 4.9-6.7 3.3-0.8 6.5-4.1 7.6-5.3 0.2 0.1 0.4 0.3 0.6 0.4l2 1c-0.9 1-1.7 2-2.4 3.1-1.3 1.8-4.4 6-2.4 8.6 0.4 0.7 1.1 1.2 1.8 1.5 2.7 1.1 5.7-1.6 10.4-6.5 0.7-0.8 1.4-1.6 2.1-2.3-0.3 0.6-0.6 1.2-0.8 1.8-1.1 2.8-0.5 5.4 1.8 6.9 1.4 0.9 3.1 0.5 5.1-0.8 4-2.6 9.9-8.5 13.6-12.5-0.1 0.5-0.3 1.1-0.4 1.8-0.9 4.9-3.9 11.3-5.1 9.7 0 0.2 0-1.1-0.7-1.6-0.4-0.5-1.2-0.6-1.8-0.2-0.9 0.6-0.4 2.6 2.2 4 0.5 0.3 1.1 0.4 1.6 0.5 1.4 0.2 4.3 0.3 7.7-2.3 3.3-2.6 6.5-5.4 9.6-8.4 0 0 1-0.9 0.1-1.4-0.3-0.1-0.7-0.1-0.9 0.2l-0.5 0.5c0.1-0.1-7 6.6-11.1 8.9 0.7-1 1.2-2.2 1.4-3.4 0.3-1.2 0.8-4.4 1.3-6.7 0.2-0.9 0.5-1.8 0.8-2.6 0.5-1.1 1.2-1 1.4-1.4s0.1-0.5-0.2-0.8l-0.9-0.9c-0.4-0.4-0.9-0.7-1.4-0.8-0.3-0.1-0.6 0-0.8 0.2-0.4 0.4-0.8 0.8-1.1 1.3-2.5 2.8-10.8 11.5-15.8 14.5 0.3-0.2-4.1 2.8-3.2-1 0.4-1.8 2.2-5.7 7.1-11.8l2.6-2.9c2.1-0.3 4.3-0.6 6.5-1 0 0 19.3-2.4 14.1 1.7 0 0 0.3 0.7 1.1 0 1.5-1.5 2.2-2.7 2.1-3.3z"/></g></g>
<g transform="translate(-149.19 -246.44)" fill="#fff"><path d="m1062.6 478.81 18.426-1.5e-4 -5.9504 21.69h22.278l-4.0765 17.317-22.278-1e-4 -5.9503 22.711h-18.426l5.9504-22.711h-22.278l4.0765-17.317h22.278z" fill="#fff" stroke-width="4.9911"/></g></svg>
