<svg width="1e3" height="322.72" version="1.1" viewBox="0 0 1e3 322.72" xml:space="preserve" xmlns="http://www.w3.org/2000/svg">
<g transform="matrix(5.2296 0 0 5.2296 -77.359 -161.59)" fill="#fff"><path d="m65.8 74.9h6.8c4.1 0 5.9 1.9 5.9 4.3 0 2.2-1.6 4-3.7 4.3 1.5 0.5 2.4 2 2.4 3.5 0 3.1-2.7 5.3-7.5 5.3h-8.5zm4.4 14.1c1.9 0 3.1-0.8 3.1-2.2 0-1-0.8-1.6-2.4-1.6h-4.2l-1 3.8zm1.3-7c2 0 3.1-0.7 3.1-2.1 0-0.9-0.7-1.6-2.4-1.6h-3.6l-1 3.7z"/><path d="m100.6 82.3c-0.1 5.7-4.7 10.3-10.5 10.3-4.8 0-8-3.3-8-7.7 0.1-5.7 4.8-10.4 10.5-10.3 4.8 0 8 3.3 8 7.7zm-6 5.1c1.3-1.3 2-3 2-4.8 0.2-2.3-1.5-4.2-3.8-4.4h-0.7c-1.5 0-2.9 0.6-4 1.7-1.3 1.3-2 3-2 4.8-0.2 2.3 1.5 4.2 3.8 4.4h0.7c1.5 0 2.9-0.6 4-1.7z"/><path d="m102.8 89.4 2.9-2.4c1.2 1.5 3 2.3 4.9 2.3 1.5 0 2.7-0.7 2.7-1.8 0-0.8-0.6-1.3-3-2.3-2.4-0.9-4.3-2.1-4.3-4.7 0-1.4 0.5-2.8 1.5-3.8 1.5-1.3 3.4-2.1 5.4-2 2.4-0.1 4.8 0.8 6.5 2.6l-2.6 2.6c-1.1-1.2-2.6-1.8-4.2-1.9-1.6 0-2.5 0.9-2.5 1.8s0.7 1.3 3.1 2.3 4.2 2.2 4.2 4.7c0 1.4-0.5 2.8-1.6 3.8-1.5 1.3-3.4 2.1-5.3 2-3.5 0-6-1.1-7.7-3.2z"/><path d="m127.7 78.4h-5.3l0.9-3.5h14.4l-0.9 3.5h-5.3l-3.7 13.9h-3.8z"/><path d="m157.2 82.3c-0.1 5.7-4.7 10.3-10.5 10.3-4.8 0-8-3.3-8-7.7 0.1-5.7 4.8-10.4 10.5-10.3 4.8 0 8 3.3 8 7.7zm-6 5.1c1.3-1.3 2-3 2-4.8 0.2-2.3-1.5-4.2-3.8-4.4h-0.7c-1.5 0-2.9 0.6-4 1.7-1.3 1.3-2 3-2 4.8-0.2 2.3 1.5 4.2 3.8 4.4h0.7c1.5 0 2.9-0.6 4-1.7z"/><path d="m164.6 74.9h3.5l5.1 11.1 3-11.1h3.8l-4.7 17.4h-3.3l-5.2-11.4-3.1 11.4h-3.8z"/></g>
<g transform="matrix(5.2296 0 0 5.2296 -77.359 -161.59)"><path d="m44.8 35.7c0.9-1.5 2.1-2.6 3.7-3.4 2.7-1.1 5.8-0.7 8 1.2 2 1.7 3 4.4 2.5 7.1 0.5-0.2 1-0.3 1.5-0.6 4-1.3 8.3 1 9.5 5 0.5 1.6 0.5 3.4-0.1 4.9-0.5 1.2-1.2 2.3-2.2 3.1l0.1 0.1c3 0.3 5.6 2.3 6.6 5.2 0.9 2.8 0.1 5.8-1.9 7.8-1.7 1.5-3.9 2.3-6.2 2.2h-43.1c-3.3 0.2-6.4-1.6-7.8-4.7-1.2-2.8-0.6-6 1.6-8.2 1.3-1.3 3-2.1 4.9-2.3-2.1-1.8-3.1-4.7-2.5-7.4 0.5-2.5 2.3-4.5 4.6-5.4 2.1-0.8 4.5-0.6 6.5 0.4l0.1-0.1c-0.6-3 0.8-6.1 3.4-7.7s5.8-1.5 8.3 0.1c1 0.7 1.8 1.6 2.5 2.7" fill="#fff"/><path d="m57 36.8c0.9 1.9 0.4 4.3-0.6 6l-7.5 16.8-0.1 0.1-2.7-17.1c-0.2-1.6 1.5-2.3 2.6-3.1 0-0.3-0.3-0.3-0.5-0.3h-2.5l-0.1-0.1c0-2.1 1.2-4.1 3.1-5.1 2.1-1.1 4.7-0.9 6.6 0.7 0.8 0.6 1.3 1.3 1.7 2.1" fill="#fff"/><path d="m43.2 36.3c0.7 1.2 1 2.5 0.8 3.8l-3.1 19.6-0.8-1.6-7.7-17.1c-1-3.1 0.7-6.4 3.8-7.4 1.3-0.4 2.8-0.4 4.1 0.2 1.2 0.5 2.2 1.4 2.9 2.5" fill="#fff"/><path d="m68.1 44.5c1 1.9 0.8 4.2-0.3 6-0.8 1-1.8 1.8-2.9 2.5l-15.9 10.9 0.2-0.5 8.4-19c1.6-2.9 5.2-3.9 8.1-2.4 1 0.6 1.8 1.4 2.4 2.5" fill="#fff"/><path d="m32.1 44.4 8.8 19.5h-0.2l-17.7-12.2c-1.8-1.5-2.5-3.8-1.9-6.1 0.5-1.8 1.8-3.3 3.6-4 2.7-1 5.9 0.2 7.4 2.8" fill="#fff"/><path d="m72.7 58.3c0.9 2 0.6 4.3-0.7 6-1.2 1.5-3 2.3-4.9 2.3h-18.8l15.7-11c2.8-1.7 6.5-0.9 8.3 2 0.1 0.2 0.2 0.4 0.4 0.7" fill="#fff"/><path d="m17 58.3c-1.3 3 0 6.4 3 7.8 0.8 0.4 1.7 0.5 2.6 0.5h18.8l-15.8-11c-2.8-1.7-6.5-0.8-8.2 2-0.2 0.1-0.3 0.4-0.4 0.7" fill="#fff"/><path d="m57 36.8c0.9 1.9 0.4 4.3-0.6 6l-7.5 16.8-0.1 0.1-2.7-17.1c-0.2-1.6 1.5-2.3 2.6-3.1 0-0.3-0.3-0.3-0.5-0.3h-2.5l-0.1-0.1c0-2.1 1.2-4.1 3.1-5.1 2.1-1.1 4.7-0.9 6.6 0.7 0.8 0.6 1.3 1.3 1.7 2.1" fill="#5a5a96"/><path d="m43.2 36.3c0.7 1.2 1 2.5 0.8 3.8l-3.1 19.6-0.8-1.6-7.7-17.1c-1-3.1 0.7-6.4 3.8-7.4 1.3-0.4 2.8-0.4 4.1 0.2 1.2 0.5 2.2 1.4 2.9 2.5" fill="#b42846"/><path d="m68.1 44.5c1 1.9 0.8 4.2-0.3 6-0.8 1-1.8 1.8-2.9 2.5l-15.9 10.9 0.2-0.5 8.4-19c1.6-2.9 5.2-3.9 8.1-2.4 1 0.6 1.8 1.4 2.4 2.5" fill="#008cc3"/><path d="m32.1 44.4 8.8 19.5h-0.2l-17.7-12.2c-1.8-1.5-2.5-3.8-1.9-6.1 0.5-1.8 1.8-3.3 3.6-4 2.7-1 5.9 0.2 7.4 2.8" fill="#e16428"/><path d="m72.7 58.3c0.9 2 0.6 4.3-0.7 6-1.2 1.5-3 2.3-4.9 2.3h-18.8l15.7-11c2.8-1.7 6.5-0.9 8.3 2 0.1 0.2 0.2 0.4 0.4 0.7" fill="#00a846"/><path d="m17 58.3c-1.3 3 0 6.4 3 7.8 0.8 0.4 1.7 0.5 2.6 0.5h18.8l-15.8-11c-2.8-1.7-6.5-0.8-8.2 2-0.2 0.1-0.3 0.4-0.4 0.7" fill="#f0b428"/><g fill="#f0b428"><path d="m130.4 47.9c-1.5-1.2-3.6-0.3-3.6-0.3-4.1 1.3-8.6 4.6-12.1 7.7 1.6-1.8 3.4-3.8 5.5-6 0 0 1.5-0.8 0.3-1.9-1.1-1.1-2.5-2.2-2.5-2.2s-0.5-0.5-0.8-0.3-0.1 0.7 0 0.8c-0.2 0.4-0.4 0.7-0.7 1l-0.1 0.1c-1.4 1-2.8 1.9-4.4 2.5-2.4 0.9-5.4 1.9-8.6 3-0.2-0.2-0.4-0.4-0.7-0.5-3.9-2.4-15.5-2.6-19.9-3-4.8-0.4-5.9-0.7-6.1-1.5-0.2-1 1.3-2.5 3.5-4.1 8.4-6.1 20-7.4 23.8-7.3 4.1 0.1 5.3 0.5 5.3 0.8 0 0.2 0 0.4-0.1 0.5-0.8 0.7-1.6 1.4-2.6 1.9-2.5 1.6-5.2 3-7.9 4.3-0.9 0.8 0.8 1 0.8 1 2.4-0.1 4.7-0.6 6.9-1.5 4.5-1.7 5.6-3.3 5.7-4.2 0.1-1 0-2.1-0.4-3.1-1.1-4.9-8.8-4.7-8.8-4.7-9.1 0.1-18 3-25.4 8.4-4.5 3.3-3.8 5.7-3.8 5.7s-0.2 4.9 3.3 6c1.5 0.5 3.1 0.8 4.8 0.9 4.5 0.5 7.8 0.5 12.4 0.8 2 0.1 4 0.4 5.9 0.8-3.8 1.4-7.5 2.9-11.1 4.7-3 1.5-7.4 4-9 6-1.9 2.4-0.1 4.3-0.3 3.9 0.3 0.5 1.5 2.7 6.6 2 2.7-0.5 5.3-1.4 7.6-2.7 2.6-1.4 4.9-3.1 7-5.2 2.9-2.8 3.7-4.9 3.7-6.8 0-0.6-0.1-1.2-0.3-1.8 3.5-1.2 6.5-2.1 8.5-2.7-5.7 6.8-15.2 19.8-11 25.8 0.2 0.3 0.4 0.6 0.7 0.9 0 0 0.8 0.6 1 0.2 0.3-0.4-0.6-0.8-0.6-0.8-0.3-0.5-0.4-1-0.3-1.6 0.2-1.3 0.5-2.6 1-3.8l1.2-2.6c1.9-3.3 4.3-6.3 6.9-9 7.5-7.4 14.1-10.5 15.5-10.9 1-0.3 1.4-0.2 1.6-0.1 1 0.8-1.4 4.7-1.4 4.7l-0.1 0.2c-4.3 6.2-6.8 8-9 8.8-0.9 0.3-1.9 0.3-2.8-0.3-0.5-0.4-0.8-1-0.8-1.6 0.1-0.7-0.2-0.6-0.2-0.6-1.1 0.4-0.5 2.2-0.5 2.2 0.8 3.6 5.7 4.5 10.4 1 6.2-4.6 7.4-8.3 8.3-10.6 0.8-2-0.8-3.8-2.3-4.9m-28.8 7.9c-1.6 2.7-6.8 6-8.6 6.9-1.9 1.1-3.9 2.1-6 2.9-3.1 1.1-5.8 1.6-6 0.9-0.1-0.3-0.3-0.4 0.7-1.5 1.2-1.2 4.7-3.5 8-5.2 3.9-2 7.9-3.7 12-5.2 0.2 0.4 0.2 0.9-0.1 1.2"/><path d="m206 45.3c-0.3-2-3.4-2.5-8.9-2.1-2.9 0.2-8.3 1-13.1 1.8l4.8-5.3c0.4-0.2 0.6-0.7 0.4-1.1-0.1-0.2-0.2-0.3-0.4-0.4-0.7-0.5-1.4-1-2.2-1.4 0 0-0.5-0.5-1.3 0.3-2.8 2.8-5.4 5.8-7.9 8.9-4.8 0.6-10.3 1-11.7 1.2 0 0-0.7 0.2-1-0.3 0 0-0.6-0.4-0.5 0.6 0 0 0.1 2.8 2.8 2.3 1.5-0.3 4.6-0.7 8.4-1.2-0.6 0.8-1.6 2.1-2.7 3.6-4.8 5.2-12.9 13.6-14.7 12.4 0 0-0.4-0.4-0.1-1.3 0.4-1.3 1.9-3.7 5-7.3 0 0 1.4-1.7 1.4-2.4-0.1-1.1-0.7-1.1-0.7-1.1s-4.1-1.2-5.5-2.4c0.6-0.9 1.6-2.9 0.3-3.8 0 0-1.7-1.1-3 1.5-0.5 0.9-0.4 2.1 0.2 3-0.9 1-3.5 3.5-6.1 4.3 0-0.7-0.5-1.4-1.1-1.7 0 0-1.4-0.7-2.2 0.2s-0.1 1.8 0.7 2.4c-0.5 1.1-1.1 2.1-1.8 3.1-1.2 2-2.8 3.7-4.8 5-0.7 0.5-3.6 2.1-4.3-0.1-0.4-1.3 0.3-3.7 2.1-6.4 3.6-5.7 8.8-7.5 10.1-6.7 0.4 0.3 0.5 0.9 0.3 1.3 0 0-0.1 0.4 0.4 0.4s0.8-0.4 0.9-0.9c0.2-1.2-0.9-2.6-2.1-3.6-0.4-0.3-0.8-0.5-1.3-0.8-1.7-0.4-3.6-0.2-5.1 0.7-3.2 1.7-5.9 4.4-7.6 7.6-0.9 1.5-1.4 3.2-1.4 5 0 1.1 0.2 2.2 0.8 3.2 0.8 1.1 1.8 2.1 3 2.8 3.2 1.6 6.9-1.5 8.4-2.8 2.1-1.9 3.8-4.2 5-6.8 3.4-0.9 6.7-4.2 7.8-5.4 0.2 0.1 0.4 0.3 0.6 0.4l2 1.1c-0.9 1-1.7 2-2.4 3.1-1.3 1.8-4.5 6.1-2.4 8.8 0.5 0.7 1.1 1.2 1.9 1.6 2.7 1.1 5.8-1.6 10.6-6.6 0.8-0.8 1.5-1.6 2.2-2.4-0.3 0.6-0.6 1.2-0.8 1.8-1.1 2.9-0.5 5.5 1.9 7.1 1.4 0.9 3.2 0.5 5.3-0.8 4.1-2.7 10.1-8.8 13.9-12.8-0.1 0.5-0.3 1.2-0.4 1.8-0.9 5-4 11.5-5.2 9.9 0 0.2 0-1.1-0.7-1.7-0.5-0.5-1.2-0.6-1.8-0.2-0.9 0.6-0.4 2.7 2.2 4.1 0.5 0.3 1.1 0.5 1.7 0.5 1.4 0.3 4.4 0.3 7.9-2.3 3.4-2.7 6.7-5.5 9.8-8.6 0 0 1-0.9 0.1-1.5-0.3-0.1-0.7-0.1-0.9 0.2l-0.5 0.5c0.1-0.1-7.1 6.8-11.4 9.1 0.8-1.1 1.3-2.3 1.6-3.6 0.3-1.2 0.8-4.5 1.4-6.8 0.2-0.9 0.5-1.8 0.9-2.7 0.5-1.2 1.2-1.1 1.4-1.4s0.1-0.5-0.2-0.8l-0.9-0.9c-0.4-0.4-0.9-0.7-1.4-0.9-0.3-0.1-0.6 0-0.8 0.2-0.5 0.4-0.8 0.8-1.1 1.3-2.6 2.8-11 11.8-16.2 14.9 0.3-0.2-4.2 2.9-3.3-1.1 0.4-1.8 2.2-5.8 7.3-12.1l2.6-2.9c2.1-0.3 4.4-0.6 6.6-1 0 0 19.7-2.4 14.4 1.8 0 0 0.3 0.7 1.2 0 1.1-1.6 1.7-2.8 1.6-3.4"/></g></g>
</svg>
