<svg width="531.6" height="396.79" version="1.1" xmlns="http://www.w3.org/2000/svg">
 <defs>
  <clipPath id="clipPath3332">
   <path d="m0 0h612v792h-612v-792z"/>
  </clipPath>
 </defs>
 <g transform="matrix(1.75 0 0 -1.7448 -283.61 1135.7)">
  <g clip-path="url(#clipPath3332)">
   <path d="m313.81 636.64c2.957 4.854 7.888 9.907 13.175 12.037 9.093 4.174 21.338 2.4 28.782-4.178 7.205-6.523 10.856-15.454 9.14-25.458 1.781 0.328 3.55 1.469 5.431 2.101 11.137 3.148 22.964-0.268 30.116-9.862 5.406-6.832 6.792-17.463 3.565-25.696-1.61-4.169-4.345-7.926-7.885-11.105l0.361-0.34c10.397-0.513 20.611-8.581 23.779-18.488 3.392-9.989 0.396-20.659-6.919-27.956-5.978-5.886-13.614-7.948-22.15-7.761h-154.79c-12.727-0.278-22.541 5.356-27.839 16.652-4.137 9.717-2.11 22.128 5.669 29.495 4.843 5.131 10.968 7.227 17.59 8.274-7.462 6.916-11.088 16.427-8.981 26.592 1.519 8.247 8.543 16.594 16.599 19.47 7.123 2.823 16.743 2.329 23.261-1.508l0.252 0.274c-1.973 11.228 3.017 21.343 12.297 27.54 8.287 5.6 21.572 5.475 29.711-0.491 3.635-2.248 6.651-6.073 8.832-9.592" fill="#fff"/>
   <path d="m357.65 632.44c3.291-6.693 1.391-15.491-2.12-21.513l-26.855-60.45-0.22-0.26-9.739 61.306c-0.78 5.865 5.544 8.379 9.23 11.221-0.165 0.864-1.147 0.823-1.756 1.221l-9.053 0.099-0.269 0.285c0.027 7.591 4.152 14.635 11.078 18.32 7.243 4.198 17.464 3.056 23.742-2.308 2.55-2.284 4.714-4.939 5.962-7.921" fill="#5f53ae"/>
   <path d="m308.16 634.56c2.174-4.056 3.469-8.689 2.685-13.785l-10.946-70.186c0.044-0.114-0.04-0.195-0.143-0.229l-2.818 5.63-27.459 61.319c-2.564 7.903-0.176 16.147 5.546 21.796 5.788 5.889 15.363 7.495 22.907 4.28 4.025-1.718 7.834-4.919 10.228-8.825" fill="#c81a46"/>
   <path d="m397.37 605c3.688-6.3 2.851-15.825-1.24-21.67-2.557-4.108-6.773-6.144-10.283-8.851l-56.882-39.035h-0.159l0.642 1.874 30.154 68.034c4.515 8.027 13.12 12.102 22.259 10.871 6.249-1.133 12.484-5.196 15.509-11.223" fill="#0e88d3"/>
   <path d="m268.16 605.35 31.377-69.906h-0.519l-63.253 43.603c-6.44 5.408-9.055 13.54-6.872 21.754 1.632 6.156 6.744 11.909 12.802 14.182 9.948 3.644 21.168-0.223 26.465-9.633" fill="#f25c19"/>
   <path d="m413.87 555.65c3.127-6.648 1.893-15.777-2.604-21.443-4.468-5.433-10.455-8.377-17.467-8.188l-67.442-0.056 56.501 39.298c5.533 3.557 13.912 4.206 19.924 1.331 4.666-1.807 9.03-6.379 11.088-10.942" fill="#33b540"/>
   <path d="m214.16 555.65c-3.164-6.648-1.929-15.777 2.577-21.443 4.479-5.433 10.463-8.377 17.472-8.188l67.46-0.056-56.511 39.298c-5.512 3.557-13.91 4.206-19.943 1.331-4.649-1.807-9.025-6.379-11.055-10.942" fill="#fab20b"/>
   <path d="m313.81 636.64c2.957 4.854 7.888 9.907 13.175 12.037 9.093 4.174 21.338 2.4 28.782-4.178 7.205-6.523 10.856-15.454 9.14-25.458 1.781 0.328 3.55 1.469 5.431 2.101 11.137 3.148 22.964-0.268 30.116-9.862 5.406-6.832 6.792-17.463 3.565-25.696-1.61-4.169-4.345-7.926-7.885-11.105l0.361-0.34c10.397-0.513 20.611-8.581 23.779-18.488 3.392-9.989 0.396-20.659-6.919-27.956-5.978-5.886-13.614-7.948-22.15-7.761h-154.79c-12.727-0.278-22.541 5.356-27.839 16.652-4.137 9.717-2.11 22.128 5.669 29.495 4.843 5.131 10.968 7.227 17.59 8.274-7.462 6.916-11.088 16.427-8.981 26.592 1.519 8.247 8.543 16.594 16.599 19.47 7.123 2.823 16.743 2.329 23.261-1.508l0.252 0.274c-1.973 11.228 3.017 21.343 12.297 27.54 8.287 5.6 21.572 5.475 29.711-0.491 3.635-2.248 6.651-6.073 8.832-9.592" fill="#fff"/>
   <path d="m357.65 632.44c3.291-6.693 1.391-15.491-2.12-21.513l-26.855-60.45-0.22-0.26-9.739 61.306c-0.78 5.865 5.544 8.379 9.23 11.221-0.165 0.864-1.147 0.823-1.756 1.221l-9.053 0.099-0.269 0.285c0.027 7.591 4.152 14.635 11.078 18.32 7.243 4.198 17.464 3.056 23.742-2.308 2.55-2.284 4.714-4.939 5.962-7.921" fill="#5f53ae"/>
   <path d="m308.16 634.56c2.174-4.056 3.469-8.689 2.685-13.785l-10.946-70.186c0.044-0.114-0.04-0.195-0.143-0.229l-2.818 5.63-27.459 61.319c-2.564 7.903-0.176 16.147 5.546 21.796 5.788 5.889 15.363 7.495 22.907 4.28 4.025-1.718 7.834-4.919 10.228-8.825" fill="#c81a46"/>
   <path d="m397.37 605c3.688-6.3 2.851-15.825-1.24-21.67-2.557-4.108-6.773-6.144-10.283-8.851l-56.882-39.035h-0.159l0.642 1.874 30.154 68.034c4.515 8.027 13.12 12.102 22.259 10.871 6.249-1.133 12.484-5.196 15.509-11.223" fill="#0e88d3"/>
   <path d="m268.16 605.35 31.377-69.906h-0.519l-63.253 43.603c-6.44 5.408-9.055 13.54-6.872 21.754 1.632 6.156 6.744 11.909 12.802 14.182 9.948 3.644 21.168-0.223 26.465-9.633" fill="#f25c19"/>
   <path d="m413.87 555.65c3.127-6.648 1.893-15.777-2.604-21.443-4.468-5.433-10.455-8.377-17.467-8.188l-67.442-0.056 56.501 39.298c5.533 3.557 13.912 4.206 19.924 1.331 4.666-1.807 9.03-6.379 11.088-10.942" fill="#33b540"/>
   <path d="m214.16 555.65c-3.164-6.648-1.929-15.777 2.577-21.443 4.479-5.433 10.463-8.377 17.472-8.188l67.46-0.056-56.511 39.298c-5.512 3.557-13.91 4.206-19.943 1.331-4.649-1.807-9.025-6.379-11.055-10.942" fill="#fab20b"/>
  </g>
 </g>
 <path d="m0 263.15 23.217 0.27972 53.147 61.538v-61.818h23.217v98.741h-20.42l-55.105-62.378v62.378h-24.056z"/>
 <path d="m508.38 262.88v62.062l-53.156-61.781c-0.10198-0.0104-0.1847 5e-3 -0.28125 0-0.24564-0.0138-0.47499-0.0177-0.6875 0l-7.625-0.0625c2.2637 3.2403 3.3432 7.768 3.3125 11.469 0.16361 6.2087-5.0543 13.504-17.938 19.781v30.688c5.0409 1.5391 8.7782 6.1982 8.9688 11.812v0.75c-0.13175 5.7032-3.886 10.461-8.9688 12v12.406h24.062v-62.625l55.094 62.625h20.438v-99.125h-23.219z"/>
 <path d="m107.13 263.15v98.75h62.375c39.649-2.1309 44.363-40.387 12.875-51.469 14.156-7.5218 27.864-36.57-14-47.281h-61.25zm23.938 19h30.875c16.711 4.5161 11.604 20.07 0 21.875h-30.969l0.0937-21.875zm0 38.781h31.312c16.949 4.7613 11.769 21.128 0 23.031h-31.406l0.0937-23.031z"/>
 <path d="m306.7 277-15.203 15.556c-17.132-15.095-40.321-15.72-54.094-0.35355-10.914 14.877-10.295 28.728 0 41.719 16.161 15.554 38.227 12.409 55.154-1.0607l15.203 13.789c-27.795 22.215-60.131 25.281-90.51 0-18.149-20.978-18.503-43.134-0.35355-66.468 22.527-25.936 68.014-23.592 89.803-3.182z"/>
 <path d="m411.04 247.72c-6.4469 0.0555-13.006 0.95875-19.5 1.3438-0.0517 3e-3 -0.10454-3e-3 -0.15625 0-41.006 2.2555-81.618 26.865-90.875 42.438-3.664 8.1924-7.8785 22.219 8.8438 30.594v-0.0937c11.98 6.5981 27.306 6.0623 42.438 5.9062 15.321 0.65381 30.617 0.43264 45.938 5.125l1.7188 0.5625c-28.605 9.0947-61.726 24.646-78.25 41.688-3.837 5.698-4.3494 11.896 4.9375 19.469 27.581 8.1759 54.407-9.506 77.438-30.406 6.144-5.8824 12.326-11.736 12.031-28.656l-0.28125-1.2812 0.0937 0.21875c4.0414-0.2346 9.1138-0.96784 13.781 2.125 0.37731 0.97794 0.93879 1.7997 0.40625 3.6875-0.10931 0.5-3.7401 3.4688-4.1562 3.4688 0.29313 0.72277-0.43178 1.7633 2 1.875 2.3385-0.74408 3.6463-1.6612 6.4688-3.75 4.4474-2.8815 3.1376-5.8543 2-9.3438-2.6935-2.8883-6.1469-4.9136-11.375-5.0625-3.1369-0.0893-6.9041 0.49732-11.531 1.9688l0.0312 0.0625c-0.53124 0.13691-1.0875 0.29479-1.625 0.4375-10.773-10.507-31.298-12.079-52.562-12.969-18.253-1.2148-32.511 0.25608-48.438-5.6875v-0.125c-5.7313-14.08 49.94-41.769 80.656-44.062v0.0625c0.49799-0.0411 1.2716-0.1068 1.8125-0.15625 0.31887-0.0135 0.65615-0.0551 0.96875-0.0625v-0.0312c11.782-1.1104 31.706-3.4881 41.406 3.25-4.8036 5.5185-17.726 11.372-26.75 17.312v0.0937l-13 6.3125c-1.8428 1.1667-6.4707 2.2083-2.875 3.625 5.613 1.8251 12.486 0.86087 18.812-0.84375 0.0218-6e-3 0.0407-0.0254 0.0625-0.0312 9.808-2.0803 20.792-7.4365 30.781-14.844 3.1753-3.3495 4.7871-11.54-0.71875-20.844-9.2217-11.168-19.701-13.468-30.531-13.375zm-5.6875 89.906c0.4397 0.87481 0.76048 1.8085 0.15625 3.0312-13.462 21.19-47.361 39.273-77.062 43.125-3.7867-1.0142-3.1383-3.293-0.34375-6.1875 19.186-17.101 56.632-34.966 77.25-39.969z" fill="#f0b428"/>
</svg>
