<svg width="546.97" height="335.32" version="1.1" xmlns="http://www.w3.org/2000/svg">
 <defs>
  <clipPath id="clipPath3332">
   <path d="m0 0h612v792h-612v-792z"/>
  </clipPath>
 </defs>
 <g transform="translate(-47.503 -40.588)">
  <g transform="matrix(3.1613 0 0 3.1968 -1687.5 -534.68)">
   <g transform="translate(224.29 -421.54)" fill="#fff">
    <path transform="translate(264.19 433.21)" d="m189.78 240.69v24.031h43.562v-24.031h-43.562zm1.6562 1.5938h40.406v21.031h-40.312l-0.0937-21.031z"/>
    <g transform="matrix(.89338 0 0 .89394 302.46 459.25)">
     <path d="m188.77 254.85v7.3753h3.0754v-17.5h-3.0754v7.2754h-8.3496v-7.2754h-3.0754v17.5h3.0754v-7.3753z"/>
     <path d="m212.17 253.45c-2e-5 -1.2329-0.22496-2.3828-0.67482-3.4496-0.4499-1.0668-1.0873-1.9919-1.9123-2.7752-0.82501-0.78327-1.8083-1.3958-2.9499-1.8375-1.1416-0.44173-2.3958-0.6626-3.7624-0.66261h-6.5254v17.5h6.5254c1.3667 0 2.6208-0.22494 3.7624-0.67482s2.1249-1.0666 2.9499-1.8501c0.82498-0.78353 1.4624-1.7128 1.9123-2.7878 0.44986-1.075 0.6748-2.2292 0.67482-3.4626zm-3.225 0.0504c-1e-5 0.8667-0.14586 1.6626-0.43754 2.3876-0.29171 0.72506-0.70001 1.35-1.2249 1.8749-0.52492 0.5249-1.1624 0.9332-1.9123 1.2249-0.74998 0.2917-1.5832 0.43755-2.4998 0.43754h-3.45v-11.9h3.45c0.91653 2e-5 1.7498 0.15006 2.4998 0.45014 0.74996 0.3001 1.3874 0.71679 1.9123 1.2501 0.52489 0.53331 0.93319 1.1625 1.2249 1.8875 0.29168 0.72505 0.43753 1.5209 0.43754 2.3876z"/>
    </g>
   </g>
  </g>
  <g transform="matrix(.89348 0 0 .88741 82.687 40.588)">
   <g transform="matrix(1.75 0 0 -1.7448 -283.61 1135.7)">
    <g clip-path="url(#clipPath3332)">
     <path d="m313.81 636.64c2.957 4.854 7.888 9.907 13.175 12.037 9.093 4.174 21.338 2.4 28.782-4.178 7.205-6.523 10.856-15.454 9.14-25.458 1.781 0.328 3.55 1.469 5.431 2.101 11.137 3.148 22.964-0.268 30.116-9.862 5.406-6.832 6.792-17.463 3.565-25.696-1.61-4.169-4.345-7.926-7.885-11.105l0.361-0.34c10.397-0.513 20.611-8.581 23.779-18.488 3.392-9.989 0.396-20.659-6.919-27.956-5.978-5.886-13.614-7.948-22.15-7.761h-154.79c-12.727-0.278-22.541 5.356-27.839 16.652-4.137 9.717-2.11 22.128 5.669 29.495 4.843 5.131 10.968 7.227 17.59 8.274-7.462 6.916-11.088 16.427-8.981 26.592 1.519 8.247 8.543 16.594 16.599 19.47 7.123 2.823 16.743 2.329 23.261-1.508l0.252 0.274c-1.973 11.228 3.017 21.343 12.297 27.54 8.287 5.6 21.572 5.475 29.711-0.491 3.635-2.248 6.651-6.073 8.832-9.592" fill="#fff"/>
     <path d="m357.65 632.44c3.291-6.693 1.391-15.491-2.12-21.513l-26.855-60.45-0.22-0.26-9.739 61.306c-0.78 5.865 5.544 8.379 9.23 11.221-0.165 0.864-1.147 0.823-1.756 1.221l-9.053 0.099-0.269 0.285c0.027 7.591 4.152 14.635 11.078 18.32 7.243 4.198 17.464 3.056 23.742-2.308 2.55-2.284 4.714-4.939 5.962-7.921" fill="#5f53ae"/>
     <path d="m308.16 634.56c2.174-4.056 3.469-8.689 2.685-13.785l-10.946-70.186c0.044-0.114-0.04-0.195-0.143-0.229l-2.818 5.63-27.459 61.319c-2.564 7.903-0.176 16.147 5.546 21.796 5.788 5.889 15.363 7.495 22.907 4.28 4.025-1.718 7.834-4.919 10.228-8.825" fill="#c81a46"/>
     <path d="m397.37 605c3.688-6.3 2.851-15.825-1.24-21.67-2.557-4.108-6.773-6.144-10.283-8.851l-56.882-39.035h-0.159l0.642 1.874 30.154 68.034c4.515 8.027 13.12 12.102 22.259 10.871 6.249-1.133 12.484-5.196 15.509-11.223" fill="#0e88d3"/>
     <path d="m268.16 605.35 31.377-69.906h-0.519l-63.253 43.603c-6.44 5.408-9.055 13.54-6.872 21.754 1.632 6.156 6.744 11.909 12.802 14.182 9.948 3.644 21.168-0.223 26.465-9.633" fill="#f25c19"/>
     <path d="m413.87 555.65c3.127-6.648 1.893-15.777-2.604-21.443-4.468-5.433-10.455-8.377-17.467-8.188l-67.442-0.056 56.501 39.298c5.533 3.557 13.912 4.206 19.924 1.331 4.666-1.807 9.03-6.379 11.088-10.942" fill="#33b540"/>
     <path d="m214.16 555.65c-3.164-6.648-1.929-15.777 2.577-21.443 4.479-5.433 10.463-8.377 17.472-8.188l67.46-0.056-56.511 39.298c-5.512 3.557-13.91 4.206-19.943 1.331-4.649-1.807-9.025-6.379-11.055-10.942" fill="#fab20b"/>
     <path d="m313.81 636.64c2.957 4.854 7.888 9.907 13.175 12.037 9.093 4.174 21.338 2.4 28.782-4.178 7.205-6.523 10.856-15.454 9.14-25.458 1.781 0.328 3.55 1.469 5.431 2.101 11.137 3.148 22.964-0.268 30.116-9.862 5.406-6.832 6.792-17.463 3.565-25.696-1.61-4.169-4.345-7.926-7.885-11.105l0.361-0.34c10.397-0.513 20.611-8.581 23.779-18.488 3.392-9.989 0.396-20.659-6.919-27.956-5.978-5.886-13.614-7.948-22.15-7.761h-154.79c-12.727-0.278-22.541 5.356-27.839 16.652-4.137 9.717-2.11 22.128 5.669 29.495 4.843 5.131 10.968 7.227 17.59 8.274-7.462 6.916-11.088 16.427-8.981 26.592 1.519 8.247 8.543 16.594 16.599 19.47 7.123 2.823 16.743 2.329 23.261-1.508l0.252 0.274c-1.973 11.228 3.017 21.343 12.297 27.54 8.287 5.6 21.572 5.475 29.711-0.491 3.635-2.248 6.651-6.073 8.832-9.592" fill="#fff"/>
     <path d="m357.65 632.44c3.291-6.693 1.391-15.491-2.12-21.513l-26.855-60.45-0.22-0.26-9.739 61.306c-0.78 5.865 5.544 8.379 9.23 11.221-0.165 0.864-1.147 0.823-1.756 1.221l-9.053 0.099-0.269 0.285c0.027 7.591 4.152 14.635 11.078 18.32 7.243 4.198 17.464 3.056 23.742-2.308 2.55-2.284 4.714-4.939 5.962-7.921" fill="#5f53ae"/>
     <path d="m308.16 634.56c2.174-4.056 3.469-8.689 2.685-13.785l-10.946-70.186c0.044-0.114-0.04-0.195-0.143-0.229l-2.818 5.63-27.459 61.319c-2.564 7.903-0.176 16.147 5.546 21.796 5.788 5.889 15.363 7.495 22.907 4.28 4.025-1.718 7.834-4.919 10.228-8.825" fill="#c81a46"/>
     <path d="m397.37 605c3.688-6.3 2.851-15.825-1.24-21.67-2.557-4.108-6.773-6.144-10.283-8.851l-56.882-39.035h-0.159l0.642 1.874 30.154 68.034c4.515 8.027 13.12 12.102 22.259 10.871 6.249-1.133 12.484-5.196 15.509-11.223" fill="#0e88d3"/>
     <path d="m268.16 605.35 31.377-69.906h-0.519l-63.253 43.603c-6.44 5.408-9.055 13.54-6.872 21.754 1.632 6.156 6.744 11.909 12.802 14.182 9.948 3.644 21.168-0.223 26.465-9.633" fill="#f25c19"/>
     <path d="m413.87 555.65c3.127-6.648 1.893-15.777-2.604-21.443-4.468-5.433-10.455-8.377-17.467-8.188l-67.442-0.056 56.501 39.298c5.533 3.557 13.912 4.206 19.924 1.331 4.666-1.807 9.03-6.379 11.088-10.942" fill="#33b540"/>
     <path d="m214.16 555.65c-3.164-6.648-1.929-15.777 2.577-21.443 4.479-5.433 10.463-8.377 17.472-8.188l67.46-0.056-56.511 39.298c-5.512 3.557-13.91 4.206-19.943 1.331-4.649-1.807-9.025-6.379-11.055-10.942" fill="#fab20b"/>
    </g>
   </g>
   <path d="m-39.377 261.19 19.762 0.24421 45.238 53.727v-53.971h19.762v86.208h-17.381l-46.904-54.46v54.46h-20.476z" fill="#fff"/>
   <path d="m393.34 260.95v54.185l-45.246-53.939c-0.0868-9e-3 -0.15721 4e-3 -0.23939 0-0.20909-0.0121-0.40431-0.0155-0.58519 0l-6.4902-0.0546c1.9268 2.829 2.8457 6.782 2.8195 10.013 0.13926 5.4206-4.3021 11.79-15.268 17.27v26.792c4.2907 1.3437 7.4718 5.4115 7.634 10.313v0.6548c-0.11215 4.9792-3.3077 9.1329-7.634 10.477v10.831h20.482v-54.676l46.895 54.676h17.396v-86.543h-19.763z" fill="#fff"/>
   <path d="m51.812 261.19v86.215h53.092c33.749-1.8604 37.761-35.261 10.959-44.936 12.049-6.567 23.718-31.928-11.917-41.28h-52.135zm20.375 16.588h26.28c14.224 3.9428 9.8771 17.522 0 19.098h-26.36l0.07975-19.098zm0 33.859h26.653c14.427 4.1569 10.018 18.446 0 20.108h-26.732l0.07975-20.108z" fill="#fff"/>
   <path d="m221.68 273.28-12.94 13.582c-14.582-13.179-34.32-13.724-46.043-0.30867-9.29 12.988-8.7631 25.081 0 36.424 13.756 13.58 32.538 10.834 46.946-0.92602l12.94 12.038c-23.659 19.396-51.182 22.072-77.04 0-15.448-18.315-15.749-37.658-0.30093-58.031 19.174-22.643 57.893-20.598 76.438-2.7781z" fill="#fff"/>
   <path d="m310.49 247.72c-5.4875 0.0485-11.071 0.83705-16.598 1.1732-0.044 3e-3 -0.089-3e-3 -0.133 0-34.903 1.9692-69.471 23.455-77.351 37.051-3.1187 7.1526-6.706 19.399 7.5276 26.71v-0.0818c10.197 5.7606 23.242 5.2928 36.122 5.1566 13.041 0.57082 26.06 0.37772 39.101 4.4745l1.463 0.4911c-24.348 7.9403-52.54 21.517-66.605 36.396-3.266 4.9747-3.7021 10.386 4.2027 16.998 23.476 7.1381 46.31-8.2994 65.913-26.547 5.2297-5.1357 10.492-10.246 10.241-25.019l-0.23939-1.1186 0.0797 0.19098c3.44-0.20482 7.7574-0.84498 11.73 1.8553 0.32115 0.85381 0.79907 1.5712 0.34579 3.2194-0.093 0.43653-3.1835 3.0284-3.5377 3.0284 0.2495 0.63102-0.36752 1.5395 1.7024 1.637 1.9905-0.64963 3.1037-1.4503 5.5061-3.274 3.7855-2.5158 2.6707-5.1112 1.7024-8.1577-2.2927-2.5217-5.2321-4.2899-9.6822-4.4199-2.67-0.078-5.8766 0.43419-9.8152 1.7188l0.0265 0.0546c-0.45218 0.11953-0.92569 0.25737-1.3832 0.38196-9.1694-9.1736-26.641-10.545-44.74-11.323-15.536-1.0606-27.672 0.22357-41.229-4.9656v-0.10913c-4.8784-12.293 42.508-36.467 68.653-38.469v0.0546c0.42388-0.0359 1.0824-0.0932 1.5428-0.13641 0.27142-0.0118 0.5585-0.0481 0.82459-0.0546v-0.0272c10.028-0.96945 26.988-3.0453 35.244 2.8375-4.0887 4.818-15.088 9.9285-22.769 15.115v0.0818l-11.065 5.5112c-1.5686 1.0186-5.5077 1.928-2.4471 3.1649 4.7777 1.5934 10.628 0.7516 16.013-0.73665 0.0185-5e-3 0.0346-0.0222 0.0532-0.0272 8.3483-1.8162 17.698-6.4926 26.2-12.96 2.7027-2.9243 4.0747-10.075-0.61178-18.198-7.8493-9.7502-16.769-11.759-25.988-11.677zm-4.8411 78.494c0.37427 0.76377 0.64731 1.5789 0.133 2.6465-11.458 18.5-40.313 34.288-65.594 37.651-3.2232-0.88542-2.6713-2.875-0.2926-5.4021 16.331-14.93 48.204-30.527 65.754-34.895z" fill="#f0b428"/>
  </g>
 </g>
</svg>
