<svg width="1e3" height="214.65" version="1.1" viewBox="0 0 1e3 214.65" xmlns="http://www.w3.org/2000/svg">
 <g transform="matrix(2.8586 0 0 2.8586 -5.6732 -469.31)">
  <g transform="matrix(1.003 0 0 .997 0 139.93)" fill="#1a5192" stroke-width="2.5453" aria-label="NECN">
   <path d="m77.831 25.539h14.457l33.395 43.881v-43.881h15.476v71.269h-13.338l-34.515-45.307v45.307h-15.476z"/>
   <path d="m154.03 25.539h53.757v13.948h-38.18v14.457h33.598v13.948h-33.598v14.967h38.689v13.948h-54.266z"/>
   <path d="m250.47 98.03q-7.8396 0-14.559-2.8508-6.7197-2.8508-11.607-7.7378-4.887-4.9888-7.636-11.709-2.749-6.7197-2.749-14.356v-0.20363q0-7.636 2.749-14.254 2.749-6.7197 7.636-11.709 4.887-5.0907 11.708-7.9414 6.8215-2.9526 15.068-2.9526 4.9888 0 9.0614 0.8145 4.1743 0.8145 7.5342 2.2399 3.3598 1.4254 6.2106 3.4616t5.2943 4.4798l-9.9777 11.505q-4.1743-3.7671-8.5523-5.9052-4.2762-2.1381-9.6722-2.1381-4.4798 0-8.3487 1.7308-3.7671 1.7308-6.516 4.7852-2.749 3.0544-4.2762 7.1269-1.5272 3.9707-1.5272 8.5523v0.20363q0 4.5816 1.5272 8.6541t4.1743 7.1269q2.749 3.0544 6.516 4.887 3.8689 1.7308 8.4505 1.7308 6.1088 0 10.283-2.2399 4.2762-2.2399 8.4505-6.1088l9.9777 10.079q-2.749 2.9526-5.7015 5.2943-2.9526 2.3417-6.516 4.0725-3.4616 1.629-7.636 2.4435-4.1743 0.91632-9.3668 0.91632z"/>
   <path d="m287.42 25.539h14.457l33.395 43.881v-43.881h15.476v71.269h-13.338l-34.515-45.307v45.307h-15.476z"/>
  </g>
  <g transform="matrix(.30348 0 0 .30348 -24.848 155.62)">
   <path d="m221.91 130.4c3.688-6.022 9.807-12.323 16.396-14.988 11.341-5.16 26.542-2.941 35.795 5.224 8.954 8.112 13.496 19.23 11.353 31.66 2.196-0.405 4.413-1.811 6.738-2.611 13.899-3.923 28.599 0.331 37.511 12.248 6.694 8.507 8.443 21.724 4.425 32.001-1.994 5.169-5.395 9.817-9.817 13.783l0.446 0.448c12.931 0.628 25.639 10.67 29.561 22.982 4.253 12.419 0.512 25.69-8.57 34.773-7.42 7.334-16.961 9.872-27.567 9.658h-192.55c-15.81 0.341-28.026-6.663-34.603-20.722-5.16-12.068-2.612-27.503 7.024-36.702 6.076-6.354 13.688-8.956 21.896-10.266-9.295-8.624-13.773-20.424-11.161-33.078 1.866-10.254 10.607-20.637 20.648-24.219 8.847-3.518 20.83-2.9 28.932 1.875l0.288-0.352c-2.441-13.954 3.742-26.543 15.317-34.261 10.32-6.981 26.821-6.801 36.926 0.62 4.542 2.781 8.283 7.557 11.012 11.927" fill="#fff"/>
   <path d="m276.43 135.62c4.137 8.347 1.707 19.284-2.611 26.778l-33.408 75.163-0.289 0.352-12.076-76.25c-0.969-7.322 6.854-10.446 11.459-13.964-0.234-1.076-1.418-1.023-2.163-1.524l-11.288-0.118-0.343-0.341c0.064-9.466 5.16-18.207 13.794-22.801 9.02-5.212 21.725-3.795 29.549 2.889 3.177 2.834 5.853 6.127 7.376 9.816" fill="#645faa"/>
   <path d="m214.88 133c2.73 5.053 4.308 10.789 3.348 17.141l-13.623 87.305c0.074 0.106-0.053 0.224-0.161 0.276l-3.528-7.024-34.144-76.25c-3.177-9.818-0.234-20.083 6.918-27.12 7.206-7.312 19.06-9.295 28.484-5.329 4.989 2.154 9.754 6.12 12.706 11.001" fill="#c9234a"/>
   <path d="m325.85 169.76c4.594 7.834 3.561 19.689-1.547 26.959-3.164 5.106-8.389 7.654-12.813 11.001l-70.748 48.565h-0.162l0.79-2.323 37.502-84.649c5.618-9.978 16.342-15.031 27.684-13.507 7.771 1.419 15.542 6.471 19.294 13.954" fill="#0089cf"/>
   <path d="m165.13 169.31 39.026 86.963h-0.628l-78.68-54.227c-8.007-6.747-11.289-16.853-8.571-27.065 2.036-7.654 8.389-14.806 15.947-17.643 12.375-4.53 26.317 0.288 32.906 11.972" fill="#f36f21"/>
   <path d="m346.38 231.15c3.922 8.283 2.377 19.625-3.23 26.67-5.563 6.749-13.005 10.437-21.736 10.202l-83.893 0.054 70.279-48.896c6.867-4.424 17.303-5.225 24.797-1.643 5.787 2.271 11.235 7.942 13.783 13.613" fill="#0db14b"/>
   <path d="m97.948 231.15c-3.911 8.283-2.377 19.625 3.241 26.67 5.564 6.749 12.983 10.437 21.725 10.202l83.893 0.054-70.28-48.896c-6.865-4.424-17.3-5.225-24.784-1.643-5.79 2.271-11.236 7.942-13.795 13.613" fill="#fdb913"/>
  </g>
 </g>
</svg>
