<svg width="800" height="363.44" version="1.1" viewBox="0 0 800 363.44" xml:space="preserve" xmlns="http://www.w3.org/2000/svg"><g transform="matrix(1.3333 0 0 -1.3333 67.373 632.82)"><g transform="matrix(.13629 0 0 -.13629 276.89 221.87)"><path d="m1e3 -1854.5c-552.3 0-1e3 447.68-1e3 1e3 0 552.24 447.72 999.88 1e3 999.88 552.24 0 999.98-447.64 999.98-999.88 0-552.36-447.75-1e3 -999.98-1e3" fill="#9c0"/><path d="m271.25-1303.5c0.80869-124.13 68.431-237.24 179.56-323.61 156.98-115.19 349.33-182.36 556.84-180.66 199.87 1.6469 384.59 66.784 536.67 176.62 118.98 89.355 191.25 207.97 190.43 337.72-0.9116 146.64-95.162 277.9-244.29 367.95l0.088 0.0441c-143.51 87.796-311.39 137.6-490.59 136.19-213.59-1.6322-410.08-76.018-567.5-199.94-101.62-86.193-161.96-195.68-161.21-314.29" fill="#fff"/><path d="m1136-1475.1c36.906-20.247 43.758-74.68 43.832-91.781-0.088-75.166-58.05-125.28-161.9-125.23-38.862-0.059-82.017 4.8816-142.27 17.453v0.03c-3.0878 0.647-5.3521 3.5143-5.3962 6.9109 0.0294 0.544 0.0882 1.1615 0.20585 1.7203 15.836 95.81 15.086 245.24 2.2938 396.43-0.20586 0.5-0.27937 1.044-0.27937 1.6468 0 3.4554 2.6025 6.3374 5.8962 6.7637 37.244 8.2341 110.88 15.571 151.84 15.571 98.367-0.059 172.22-53.992 172.09-131.73 0.074-48.86-21.82-78.503-66.313-97.78m-119.26-125.2c37.068 0.044 62.226 19.277 62.623 46.934 0.8821 52.61-85.928 44.494-92.662 43.023l-0.70578-86.076c-0.49993 0.074 4.6022-3.8819 30.745-3.8819m9.8808 266.61c-14.424 0.059-27.496-1.2205-40.126-4.4111l0.11763-87.811s21.232-2.5879 33.142-2.529c32.098 0.044 71.93 11.248 71.268 43.317-0.4411 26.423-9.1163 51.492-64.402 51.434"/><path d="m611.86-1640.2c-43.376 9.9104-90.398 25.908-120.92 41.053-0.0882 0-0.0882 0.03-0.14704 0.03-6.7784 2.5732-3.5583 8.5722-3.5289 8.6604 30.745 71.49 84.355 313.26 92.118 394.02v0.059c-0.0736 0.6029 0.0588 1.1322 0.19115 1.8085 0.83811 3.6319 4.5287 6.014 8.1605 5.1464 0.10288 0 101.53-30.819 101.57-30.878 3.8229-0.8087 6.1314-4.4404 5.3227-8.19-0.11763-0.1617-0.19115-0.3087-0.22055-0.4264-0.47052-2.0584-1.0881-4.6757-2.0585-8.8516l-5.4697-20.879-16.659-75.842s26.07-5.3521 27.907-5.7491c109.92-25.246 168.15-108.63 148.08-196.35-20.703-90.237-113.34-131.47-234.35-103.6m53.212 209.28c-8.0576 1.9261-17.13 2.6613-17.012 2.6319l-25.952-113.38s20.526-6.7491 29.157-8.7781c43.361-9.8956 75.577 9.2192 83.472 43.905 8.2781 35.789-14.086 62.902-69.666 75.621"/><path d="m1456.3-1516.6c1.1469 1.3381 7.3812 4.4846 9.2192 4.6464 3.2201 0.2058 4.514-1.4263 4.514-1.4263v-0.074c6.5137-5.1757-0.5734 0.9557 55.403-64.329 1.0881-0.9558 1.7939-2.382 2.1762-3.9994 0.5881-3.1319-2.2203-6.2933-2.3967-6.161-0.397 0.3823-53.609-49.802-131.94-58.197-97.514-10.484-165.96 47.522-171.27 132.33-4.3374 70.857 44.464 110.92 140.51 142.44 68.563 22.512 45.302 69.681 3.1024 67.784-27.01-1.2203-68.269-19.968-93.912-44.405 0 0-0.9852-1.3675-3.7642-1.8085-2.4408-0.4264-4.7934 0.5734-6.2049 2.3378l-54.874 63.197c0 0.059-1.5292 2.3378-1.9115 3.8524-0.6911 3.7936 2.2791 6.0138 2.2791 6.0726 39.053 40.524 92.868 63.417 146.1 66.755 91.339 5.6463 157.28-48.405 163.86-128.89 7.0577-85.502-66.71-116.84-118.79-134.19-44.89-14.939-63.917-28.79-62.064-48.228 1.985-19.453 39.376-47.758 119.97 2.2937"/><path d="m1662.2-781.33c58.844 24.511 126.48-3.2054 151.02-62.094 24.702-58.815-3.0731-126.45-61.902-151.04-58.8-24.614-126.55 3.1172-151.09 61.947-24.629 58.874 3.1025 126.54 61.976 151.18" fill="#fff"/><path d="m1428.7-508.66c-1.9996-58.036-50.625-103.5-108.57-101.5-57.991 1.9556-103.47 50.61-101.5 108.57 2.0289 57.992 50.595 103.46 108.56 101.5 58.05-2.0144 103.53-50.669 101.51-108.57" fill="#fff"/><path d="m889.27-173.05c102.15-25.276 164.27-128.08 138.91-229.64-25.437-101.51-128.82-163.27-230.88-137.91-102.07 25.29-164.25 128.01-138.85 229.64 25.423 101.47 128.76 163.26 230.82 137.91" fill="#fff"/><path d="m1236-151.45c26.937-18.924 33.407-56.315 14.365-83.15-19.026-26.79-56.668-33.289-83.605-14.336-27.025 18.968-33.407 56.315-14.336 83.208 9.2339 12.998 23.011 21.659 38.847 24.364 15.733 2.6761 31.642-0.85282 44.728-10.087m-49.977-37.965c-6.0285-8.4694-3.97-20.071 4.4846-26.055 8.4545-5.955 20.291-3.9994 26.261 4.4994 5.9254 8.4105 3.8669 20.159-4.4993 26.114-4.1758 2.8084-9.1163 3.8965-14.116 3.0878-4.9404-0.88222-9.2192-3.5436-12.13-7.646"/><path d="m1331.9-143.63c-80.149 98.339-210.89 109.47-212.14 109.65l-0.9264 0.02941-0.9704 0.13233c-152.11 23.644-272.08-50.287-273.21-51.125-10.734-6.6608-24.937-3.4113-31.716 7.2931-6.8519 10.719-3.6024 24.982 7.0577 31.775 5.4256 3.3672 134.58 83.605 303.89 57.771 10.586-0.86752 152.37-14.248 243.7-126.39 3.47-4.2053 5.0875-9.0869 5.2492-14.027 0.059-6.8814-2.882-13.763-8.6016-18.38-9.7927-8.0724-24.305-6.5579-32.333 3.2789"/><path d="m791.75-563.02c-55.491 13.748-102.26 48.302-131.7 97.074-29.157 48.625-37.671 105.63-23.982 160.48 28.481 113.73 144.51 183.09 258.78 154.85 55.477-13.836 102.28-48.214 131.7-97.221 29.246-48.508 37.744-105.53 23.967-160.43-28.481-113.66-144.52-183.06-258.77-154.74m-110.95 246.36c-10.719-42.861-4.0729-87.443 18.806-125.54 23.011-38.289 59.77-65.358 103.32-76.077 89.53-22.291 180.6 32.128 202.81 121.22 2.9554 11.528 4.6316 23.217 5.014 34.774 1.0292 31.672-7.0579 62.976-23.688 90.649-23.129 38.406-59.741 65.49-103.29 76.239-89.604 22.188-180.68-32.128-202.97-121.26"/><path d="m738.31-264.67c37.641 4.8081 71.959-21.6 76.959-58.977 4.8963-37.436-21.526-71.71-59.226-76.504-37.553-4.8816-72.062 21.497-76.959 58.874-4.8963 37.48 21.585 71.725 59.226 76.607"/><path d="m1198-501.02c2.3967 69.24 60.726 123.7 129.85 121.25 69.224-2.3232 123.64-60.535 121.32-129.76-2.3968-69.122-60.608-123.58-129.86-121.26-69.225 2.3379-123.64 60.668-121.3 129.78m37.494-1.191c-1.6027-48.493 36.612-89.458 85.119-91.09 48.669-1.6321 89.574 36.583 91.192 85.194 1.6763 48.552-36.568 89.458-85.104 91.09-48.669 1.6762-89.56-36.568-91.207-85.194"/><path d="m1276.9-445.54c25.217 3.2348 48.346-14.557 51.61-39.744 3.2936-25.276-14.439-48.405-39.773-51.698-25.246-3.323-48.346 14.542-51.713 39.7-3.1466 25.261 14.63 48.405 39.876 51.742"/><path d="m1547.2-490.47c-27.481-138.36-106.15-258.26-222.13-339.54h0.03c-0.2059-0.11763-0.3382-0.22055-0.5146-0.30877-4.514-3.1613-8.8516-6.352-13.527-9.4545-17.35-11.292-35.215-21.526-53.374-30.716-132.02-70.784-348.55-139.8-844.72 62.065l91.515 84.649-180.4 64.461 139.21 90.34-162.06 59.888 151.89 107.7c-50.257 25.599-85.296 77.077-86.575 137.38-1.8085 87.164 67.695 159.59 154.86 161.42 13.101 0.24997 25.687-1.2645 37.935-3.9847 116.92 181.06 336.55 284.36 560.77 242.94 139.4-25.702 260.58-103.19 341.33-218.19 83.855-119.6 114.32-264.77 85.766-408.65m-1024.8 342.83c-62.432-1.2645-112.12-53.11-110.81-115.5 0.98514-45.361 28.775-84.002 67.887-101.12 1.5145 22.879 4.4993 45.92 9.0427 69.049 10.337 52.375 28.202 101.34 52.11 146.36-5.955 0.86753-11.983 1.2939-18.232 1.2057m899.71 39.906c-73.651 104.87-184 175.52-310.82 198.82-267.68 49.375-528.39-127.38-581.41-393.99-20.306-102.69-6.8813-203.93 32.657-292.55l704.91-216.85c5.6463 3.4701 11.336 7.0137 16.924 10.601 113.23 74.327 190 187.91 216.13 319.81 26.202 131.86-1.6761 264.79-78.385 374.15"/><path d="m1555.1-714.38c-17.85 29.305-8.6311 67.49 20.408 85.179 29.246 18.071 67.269 8.8958 85.252-20.306 17.88-29.216 8.6899-67.358-20.468-85.267-29.113-17.865-67.342-8.7634-85.192 20.394" fill="#fff"/><path d="m940.58-987.27 0.11763 0.0441-3.2642-16.762-2.2938-31.054-0.0588-1.1911-4.6022-95.045-0.0882-1.3527-0.44112-30.554 1.4704-15.395-0.0294-0.2647c-0.0294-0.8234-0.61755-1.4703-1.4115-1.4703 0 0-13.63 0.6469-26.525 1.3086-13.086 0.647-26.599 1.3528-26.599 1.3528-0.69106 0-1.2645 0.6469-1.2939 1.5145h-0.0588l0.0882 0.2646 2.9113 15.13 2.4996 30.451 0.10288 1.4705 4.5287 95.045 0.0588 1.1469 0.80871 31.201-1.735 16.909c0 0.16175-0.0294 0.22057 0 0.26467 0 0.94105 0.73518 1.5733 1.5439 1.5733l2.5731-0.16174 47.831-2.3379 2.676-0.14704c0.83811 0 1.3527-0.72049 1.3527-1.6174 0.0882-0.0736-0.16174-0.24997-0.16174-0.32349"/><path d="m1176.1-1076.3c-2.3819 62.064-60.344 97.059-119.16 94.839-13.836-0.58814-16.439-0.91164-29.216-1.9703-12.704-1.0146-29.731-1.1469-29.731-1.1469l-2.6908-0.0882c-0.83802 0-1.4409-0.77929-1.4262-1.6468 0.015-0.14704 0-0.26467 0.015-0.30878h-0.015l3.3818-17.203 1.8821-31.687-0.0299-1.191 3.72-96.854 0.1618-1.5145 0.088-31.157-1.7792-15.66 0.059-0.2794c0-0.8087 0.7351-1.5292 1.4702-1.4703 0 0 12.292 0.544 17.027 0.6175 6.6607 0 28.731-0.9852 43.434-0.397 64.27 2.9407 115.2 43.582 112.81 107.12m-112.09-63.197c-4.5728-0.2205-6.6901 0.059-10.322 0.6322l-0.3676 5.6463v1.5586l-3.7347 96.898v1.191l-0.1911 10.425c3.47 0.6616 6.4842 1.2057 9.822 1.3527 30.716 1.1469 64.034-16.659 65.505-52.772 1.3528-37.759-30.554-63.8-60.711-64.932"/><path d="m845.63-984.74-85.487-82.4c18.453-21.218 38.391-41.068 59.608-59.344v-0.059c0.397-0.3235 0.63226-0.9263 0.55874-1.4115-0.0735-0.4412-0.36759-0.8234-0.63225-1.044l-34.142-33.995c-0.4264-0.3235-0.7793-0.5-1.2351-0.4412-0.19114 0.1027-0.4705 0.1471-0.58813 0.2647 0 0 0-0.059-0.0882 0-32.657 28.805-63.828 62.462-90.221 97.648l-6.5284-36.348-0.23526-1.338-4.4699-30.231-0.44112-15.41-0.0588-0.3088c-0.24996-0.7645-0.88222-1.4262-1.6468-1.2351 0 0-13.336 2.382-26.084 4.764-12.895 2.3379-26.231 4.6612-26.231 4.6612-0.73518 0.1617-1.2204 0.9704-1.0734 1.735v0.3234l4.911 14.645 6.4402 29.834 0.23526 1.3675 16.939 93.633 0.26467 1.1469 4.6904 30.746 0.55875 17.159v0.20585c0.17644 0.91163 0.94102 1.5292 1.6468 1.2792v0.0588l2.6614-0.42642 47.037-8.5135 2.6172-0.54403c0.91163-0.16174 1.3968-0.92634 1.1616-1.6762 0.0294-0.22056-0.0588-0.27937-0.0588-0.36759h0.0588l-5.5138-16.189-3.6906-18.115 0.32348-1.2057c7.5429-11.836 15.468-23.32 23.746-34.539l56.182 58.315v-0.0588c0.26467 0.397 0.77929 0.66166 1.2498 0.60285 0.0441 0 0.0441-0.0588 0.11763-0.11763v0.0588l56.844-10.234v-0.0735c0.11763-0.0588 0.11763 0 0.11763 0 0.79399-0.10288 1.3233-0.97046 1.1763-1.7939-0.17643-0.48521-0.47051-0.8087-0.72047-1.0293"/><path d="m1381.3-1008.7c11.601-85.444-115.61-70.784-111.72-98.456 2.4408-18.233 53.609-23.835 90.412 17.615v0.044c0.3235 0.1765 0.5587 0.3823 0.8822 0.4411 0.6029 0 0.9704-0.2058 1.3822-0.6028v-0.059c5.2933-5.5728 25.422-27.878 29.672-32.716 0.029 0 0.1765-0.044 0.029-0.1618 0.2059-0.2058 0.2647-0.4116 0.3383-0.7351 0.059-0.397 0.059-0.7645-0.1471-1.1028h0.059s-0.059 0-0.1177-0.044c-0.074 0 0-0.059-0.074-0.059-29.466-49.375-163.5-71.519-174.78 10.954-11.101 79.915 119.78 75.842 113.54 101.12-5.8227 23.276-72.106 17.953-98.691-25.07-0.2793-0.397-0.7499-0.6616-1.088-0.7058-0.3823 0-0.8087 0-1.1911 0.3823-6.0138 4.7787-29.51 24.732-35.053 29.731-0.1764 0.1029-0.1176 0.1764-0.2647 0.2793-0.2351 0.2794-0.3234 0.4706-0.4558 0.8676 0.059 0.544 0.059 0.8087 0.3383 1.2645 0 0-0.059 0.044 0 0 52.065 75.754 175.4 80.356 186.93-2.9849"/></g><g transform="matrix(12.633 0 0 12.633 1960 -2350.3)" fill="#3a9fdf"><g transform="translate(-151.2 206.84)"><path d="m0 0-3.778 7.171c-0.397 0.749-0.746 1.592-1.048 2.531 0.084-2.726 0.148-5.438 0.193-8.135h1.399v-1.567h-4.716v1.567h1.374v8.302h-1.374v1.567h4.532l3.527-6.719c0.346-0.654 0.681-1.536 1.005-2.648-0.106 2.631-0.162 5.231-0.167 7.8h-1.408v1.567h4.641v-1.567h-1.29v-9.869z" fill="#3a9fdf"/></g><g transform="translate(-142.36 213.41)"><path d="m0 0h4.516v3.293h-1.332v1.566h5.11v-1.566h-1.365v-8.303h1.365v-1.566h-5.11v1.566h1.332v3.443h-4.516v-3.443h1.324v-1.566h-5.102v1.566h1.365v8.303h-1.365v1.566h5.102v-1.566h-1.324z" fill="#3a9fdf"/></g></g></g></svg>
