<svg version="1.1" viewBox="0 0 576 187.89" xmlns="http://www.w3.org/2000/svg">
 <g fill="#be2419">
  <path class="cls-1" d="m101.83 187.79h-3.27c0.43 0 0.84 0.1 1.28 0.1 0.66 0.01 1.32-0.06 1.99-0.1z"/>
  <path class="cls-1" d="m25.57 124.84c0-67.06 52.25-108 79.9-124.84h-69c-20.16 0-36.47 15.14-36.47 33.8v120.2c0 18.67 16.31 33.8 36.43 33.8h16.94c-18.81-14.47-27.8-38.09-27.8-62.96z"/>
  <path class="cls-1" d="m166 0h-30.27a39.34 39.34 0 0 0-8.56 4.61c-12.71 9.58-36.77 22.24-56.5 77.31l0.67-0.5c13.41-10.73 23.77-16.71 42.94-16.23 27.2 0.66 61.92 20 61.16 65.5-0.43 26.22-12.73 45.27-29.54 57.1h20.1c20.12 0 36.43-15.14 36.43-33.8v-120.19c-0.04-18.66-16.35-33.8-36.43-33.8z"/>
  <path class="cls-1" d="m136.59 139.38c0-36.45-16.5-52.18-36.46-52.18-27.19 0-34.57 23-34.57 49.35 0 22.9 8.68 50 33 51.25h3.27c16.6-1.12 34.76-18.26 34.76-48.42z"/>
 </g>
 <g fill="#fff">
  <path d="m234.4 108.21v-25.74h7.91l12.87 18.14v-18.14h6.2v25.74h-7.84l-13-18.33v18.33z"/>
  <path d="m290.52 102a9.68 9.68 0 0 1-4.1 5.1 13.26 13.26 0 0 1-7.13 1.82q-5.35 0-8.45-2.78a10.67 10.67 0 0 1 0-15q3.08-2.76 8.47-2.76 5.57 0 8.56 2.85t3 8.16v0.82h-16.4a4.49 4.49 0 0 0 1.37 3.35 4.9 4.9 0 0 0 3.48 1.25q3.53 0 4.67-2.78zm-15.9-5.81h9.63a4 4 0 0 0-1.46-2.82 5.95 5.95 0 0 0-6.7 0 4 4 0 0 0-1.48 2.79z"/>
  <path d="m301.71 108.21-7.71-19.21h6.38l4.35 13.29 4-13.29h5.92l4 13.29 4.2-13.29h6.42l-7.74 19.22h-5.92l-4-12.87-4 12.87z"/>
  <path d="m332.95 101.89h6.27c0.17 1.83 2 2.74 5.39 2.74a7 7 0 0 0 3-0.53c0.72-0.36 1.08-0.81 1.08-1.36a1.15 1.15 0 0 0-0.82-1.14 11.14 11.14 0 0 0-2.49-0.43l-5.39-0.46a7.65 7.65 0 0 1-4.72-1.86 5.25 5.25 0 0 1-1.73-4 5.4 5.4 0 0 1 2.68-4.85q2.68-1.69 7.78-1.69a14.47 14.47 0 0 1 7.59 1.69 5.15 5.15 0 0 1 2.71 4.56v0.18h-6q-0.42-2.5-4.67-2.5-3.85 0-3.85 1.75 0 1.46 4.46 1.82l4.17 0.32q6.42 0.5 6.41 5.74 0 7-10.76 7t-11.11-6.98z"/>
  <path d="m363.25 95.34a12.51 12.51 0 0 1 4.17-9.86q4.17-3.69 11.27-3.69t11.23 3.69a12.51 12.51 0 0 1 4.17 9.86 12.51 12.51 0 0 1-4.17 9.86q-4.17 3.69-11.23 3.69t-11.27-3.69a12.51 12.51 0 0 1-4.17-9.86zm15.43 8.27a7.67 7.67 0 0 0 8.32-8.27 8.15 8.15 0 0 0-2.23-6.06 9.48 9.48 0 0 0-12.17 0 9.29 9.29 0 0 0 0 12.12 8.3 8.3 0 0 0 6.08 2.21z"/>
  <path d="m397.5 108.21v-19.21h6v2.89a9.94 9.94 0 0 1 7.49-3.39q5 0 7.06 3.07 1.14 1.71 1.14 6.06v10.59h-6v-9.32a8.16 8.16 0 0 0-0.82-4.28 3.77 3.77 0 0 0-3.37-1.35 5.62 5.62 0 0 0-4 1.44 5.32 5.32 0 0 0-1.5 4v9.48z"/>
  <path d="m432 93.48a10.37 10.37 0 0 1 6.38-1.89q4.81 0 7.52 2.24a7.51 7.51 0 0 1 2.71 6.12 7.93 7.93 0 0 1-3 6.56q-3 2.37-8.47 2.37-5.77 0-8.78-3.31t-3-9.7q0-6.59 3.15-10t9.25-3.4a11.29 11.29 0 0 1 7.15 2.1 7 7 0 0 1 2.8 5.53h-6.42q-0.28-2.64-4-2.64-5.36 0-5.35 5.63zm0.28 6.56a3.39 3.39 0 0 0 1.23 2.78 5.3 5.3 0 0 0 3.44 1 6.76 6.76 0 0 0 3.91-1 3.12 3.12 0 0 0 1.38-2.71 3.35 3.35 0 0 0-1.34-2.83 6.1 6.1 0 0 0-3.76-1 5.56 5.56 0 0 0-3.55 1 3.29 3.29 0 0 0-1.33 2.72z"/>
  <path d="m458.86 82.73h11.49l10.2 14.13h0.1v-14.13h9.63v25.47h-11l-10.7-14.27h-0.07v14.27h-9.63z"/>
  <path d="m513.56 81.84c6.1 0 17.41 0.43 17.41 13.63s-11.31 13.63-17.41 13.63-17.41-0.43-17.41-13.63 11.31-13.63 17.41-13.63zm0 20.83c4.1 0 6.71-2 6.71-7.21s-2.6-7.21-6.71-7.21-6.71 2-6.71 7.21 2.61 7.22 6.71 7.22z"/>
  <path d="m534.34 82.73h9.74l3.28 15.55h0.07l3.74-15.55h8l3.71 15.55h0.12l3.28-15.55h9.72l-7.45 25.47h-9.88l-3.47-14.12h-0.07l-3.5 14.13h-9.88z"/>
 </g>
</svg>
