<svg width="264.58mm" height="103.84mm" version="1.1" viewBox="0 0 937.5 367.95" xmlns="http://www.w3.org/2000/svg">
 <g transform="translate(870.97 -122.22)">
  <g transform="matrix(3.0682 0 0 -3.0682 -1340.4 1520.3)">
   <g transform="matrix(.5 0 0 .5 153 198)">
    <path d="m360 497c-5.03-3.59-14.6-8.52-27-5.47-21.5 5.27-27.6 23.8-27.6 23.8s-6.13-18.5-27.6-23.8c-12.4-3.05-22 1.88-27 5.47h-3.87v-99.7c5e-3 -2.51 0.614-7.49 4.7-12.5 5.05-6.12 13.6-10.1 25.4-11.8 9.43-1.36 16.4-4.33 21.3-9.06 3.61-3.47 7.04-9.5 7.04-9.5s3.56 6.15 7.05 9.51c4.92 4.72 11.9 7.69 21.3 9.05 11.8 1.71 20.4 5.7 25.4 11.8 4.08 4.97 4.7 9.93 4.71 12.5v99.7h-3.89" fill="#fff"/>
    <path d="m361 493s-11.7-9.12-28.2-5c-19.3 4.81-26.8 19.2-26.8 19.2s-7.48-14.4-26.7-19.2c-16.5-4.13-28.3 5-28.3 5v-95.8c0-3.25 1.36-17.1 27.1-20.8 10.2-1.48 17.8-4.74 23.3-10 1.96-1.88 3.46-3.8 4.6-5.57 1.15 1.77 2.63 3.69 4.6 5.57 5.47 5.26 13.1 8.52 23.3 10 25.8 3.73 27.1 17.5 27.1 20.8v95.8" fill="#013369"/>
    <path d="m306 371s7.48 9.24 26.9 12.2c22.3 3.43 21.6 13.9 21.6 14.4v50.2l-97.1-0.0142v-50.2c0-0.529-0.648-11 21.6-14.4 19.4-3 26.9-12.2 26.9-12.2" fill="#fff"/>
    <g fill="#d50a0a">
     <path d="m283 411v23.9l-2.99 1.68v6.19h13.6v-6.19l-2.85-1.68v-48.7l-7.28 2.18-10.5 31.1v-20.5l3.34-2.57v-6.32l-14.6 3.73v5.37l3.34 1.32v34.3l-3.42 1.71v6.19h11.1l10.3-31.7"/>
     <path d="m308 389 2.92-3.49v-6.19l-14.5 5.41v5.25l3.2 1.32v43.4l-3.18 1.61v6.27h25.2v-12.6h-5.53l-1.68 5.17h-6.4v-14.6h4.81l1.88 2.77h3.86v-12.9h-3.86l-1.82 2.62h-4.87v-24"/>
     <path d="m324 387v6.2l3.59 2.94v38.7l-3.06 1.61v6.27h14.5v-6.27l-2.84-1.61v-36.3l6.23 1.69 1.19 9.52h5.98v-15.9l-25.6-6.84"/>
    </g>
    <g fill="#fff">
     <path d="m260 458-4.39 3.3h5.37l1.77 5.08 1.78-5.08h5.36l-4.39-3.3 1.62-5.17-4.37 3.06-4.36-3.06 1.61 5.17"/>
     <path d="m279 458-4.39 3.3h5.37l1.77 5.08 1.77-5.08h5.36l-4.39-3.3 1.62-5.17-4.37 3.06-4.36-3.06 1.61 5.17"/>
     <path d="m260 475-4.39 3.29h5.37l1.77 5.09 1.78-5.09h5.36l-4.39-3.29 1.62-5.17-4.37 3.08-4.36-3.08 1.61 5.17"/>
     <path d="m279 475-4.39 3.29h5.37l1.77 5.09 1.77-5.09h5.36l-4.39-3.29 1.62-5.17-4.37 3.08-4.36-3.08 1.61 5.17"/>
     <path d="m353 453-4.36 3.06-4.36-3.06 1.61 5.17-4.38 3.3h5.37l1.77 5.08 1.77-5.08h5.37l-4.39-3.3 1.62-5.17"/>
     <path d="m334 453-4.36 3.06-4.37-3.06 1.62 5.17-4.4 3.3h5.37l1.78 5.08 1.77-5.08h5.37l-4.39-3.3 1.62-5.17"/>
     <path d="m353 470-4.36 3.08-4.36-3.08 1.61 5.17-4.38 3.29h5.37l1.77 5.09 1.77-5.09h5.37l-4.39-3.29 1.62-5.17"/>
     <path d="m334 470-4.36 3.08-4.37-3.08 1.62 5.17-4.4 3.29h5.37l1.78 5.09 1.77-5.09h5.37l-4.39-3.29 1.62-5.17"/>
     <path d="m318 489s-2.28-1.18-5.45-4.3c0.716-0.417 1.52-0.972 1.97-1.36-0.475-0.411-0.961-0.88-1.43-1.32-2.06 1.71-4.21 2.57-5.87 2.98 0.554 0.382 1.14 0.787 1.72 1.14 0.889-0.212 1.76-0.576 1.76-0.576 3.58 2.73 6.68 3.92 6.68 3.92s-0.357 0.178-1.32 0.167c-14.1-0.192-27.1-10.7-24.6-28.7 0.268-1.91 1.01-5.39 1.95-6.9 0.312 3 1.44 9.62 4.79 16.7-1.17 0.411-2.14 0.582-2.14 0.582 0.349 0.722 0.821 1.63 0.821 1.63 2.47-0.47 4.65-1.51 6.54-3-0.453-0.735-0.762-1.21-0.976-1.6-0.662 0.535-1.33 0.972-2.07 1.39-3.76-6.56-5.5-12.8-6.21-16 0.0456-0.192 0.448-0.297 0.787-0.256 15.4 2.01 22.7 9.87 24.9 18.4 1.44 5.59 0.977 11.4-0.958 16.2-0.145 0.33-0.406 0.894-0.85 0.854m-13.3-17c-2.01 1.68-4.35 2.71-6.65 3.16 0 0 0.698 1.15 1.1 1.73 2.8-0.548 5.09-1.87 6.69-3.22-0.415-0.577-0.798-1.14-1.14-1.67m2.53 3.55c-1.86 1.59-4.13 2.73-6.69 3.26 0.393 0.504 0.851 1.05 1.3 1.53 1.95-0.33 4.46-1.35 6.65-3.17-0.445-0.543-0.868-1.08-1.26-1.62m2.83 3.41c-1.96 1.6-4.15 2.65-6.48 3.14 0.566 0.536 1.15 0.986 1.65 1.41 2.91-0.688 4.87-2 6.2-3.12-0.472-0.477-0.942-0.96-1.37-1.44"/>
    </g>
    <g fill="#fff">
     <path d="m43.4 276-11.5 52.5h-19.6l5.15 14.3h42.5l7.73-35.3 12.8 35.3h22.9l-24.2-66.8h-35.8zm-43.4 0 17.3 47.7h10.9l4.49-20.9-9.74-26.8h-22.9"/>
     <path d="m175 333-6.97-19.1h-22.9l1.72 4.77h-46.8l5.25 14.3h69.7zm-41.3-19.1-1.05-2.86h20.9l-4.87-13.4h-20.9l-2.77-7.64h11.5l1.72 4.77h22.9l-6.87-19.1h-64l13.8 38.2h29.6"/>
     <path d="m246 333-5.25-14.3h-16.7l-15.6-43h-29.6l15.6 43h-18.6l5.25 14.3h64.9"/>
     <path d="m320 333-0.0944-22 16.1 22h23.4l-42.1-57.3h-26.8l-0.0912 21.2-15.6-21.2h-22.6l-0.0976 43h-5.63l5.25 14.3h30v-21.3l15.7 21.3h22.6"/>
     <path d="m424 333c9.45 0 13-5.54 9.54-15l-9.93-27.3c-3.43-9.45-11-15-20.4-15h-45.4c-9.45 0-13 5.54-9.54 15l8.4 23.2h29.6l-7.25-19.9c-0.857-2.48 0-3.92 2.39-3.92h8.68c2.39 0 4.3 1.34 5.26 3.92l7.53 20.8c0.861 2.48 0 3.91-2.38 3.91h-42.1c3.15 8.59 10.8 14.3 20.2 14.3h45.4"/>
     <path d="m475 307h4.39c2.39 0 4.3 1.43 5.25 3.91l1.33 3.63c0.952 2.48 0 3.91-2.39 3.91h-44.9l5.25 14.3h63.3c9.45 0 13-5.54 9.54-15l-2.2-6.01c-2.29-6.2-5.53-9.45-10.2-10.7 3.43-0.857 5.05-3.72 3.62-7.44l-0.571-1.53c-0.48-1.34 0-2.29 1.43-2.29h1.53l-5.16-14.3h-22.9c-5.73 0-8.78 4.77-6.68 10.5l1.34 3.81c0.861 2.39 0 3.82-2.39 3.82h-4.49l4.87 13.4zm-46.1-31.5 13.8 38.2h29.6l-13.8-38.2h-29.6"/>
     <path d="m611 333-5.25-14.3h-4.86l-12.3-13 3.53-15.7h4.87l-5.15-14.3h-29.1l-5.63 23.2 4.2 11.5 21.7 22.5h28.1zm-46.6 0-20.8-57.3h-29.6l15.6 43h-5.73l5.25 14.3h35.3"/>
    </g>
   </g>
  </g>
 </g>
</svg>
