<svg width="800" height="564.52" version="1.1" viewBox="0 0 800 564.52" xmlns="http://www.w3.org/2000/svg">
 <g transform="matrix(24.666 0 0 24.666 -117.72 -105.57)" fill="none" fill-rule="evenodd">
  <g transform="translate(4,4)">
   <path d="m31.22 14.948h-1.2436l-1.961 1.1592 0.90898 1.6113h-2.8089c-1.8872 3.4513-6.6962 3.735-8.4402 4.2351l-0.82479 0.87612-0.82492-0.87612c-1.744-0.50014-6.553-0.78381-8.4402-4.2351h-3.5146l1.2348-2.7705h-4.1772l3.0148-6.7644c0.12415-0.27852 0.026346-0.65666-0.21725-0.8402l-2.0001-1.5079h5.8669c-0.30259-1.0136-0.68256-1.6859-0.68256-1.6859s2.5403-0.25315 3.2389-3.3846c0 0 1.5844 1.6197 3.1512 1.6197 2.0204 0 3.3502-1.726 3.3502-1.726s1.3297 1.726 3.3501 1.726c1.5667 0 3.1512-1.6197 3.1512-1.6197 0.69847 3.1315 3.2388 3.3846 3.2388 3.3846s-0.37997 0.6723-0.68263 1.6858h3.7793l-2.4312 5.4551h5.5938zm-3.608-3.8884 2.4311-5.4552h-3.8163c0.33759-0.99824 0.73952-1.6495 0.73952-1.6495s-2.8521 0.0089-3.4817-3.6562c0 0-1.6593 1.855-3.2841 1.855-2.0394 0-3.3501-1.8737-3.3501-1.8737s-1.3107 1.8737-3.3501 1.8737c-1.6248 0-3.2841-1.855-3.2841-1.855-0.62975 3.6651-3.4816 3.6562-3.4816 3.6562s0.40193 0.65132 0.73939 1.6496l-6.2384 6.35e-5 2.5511 1.9231c0.14115 0.10636 0.23087 0.36981 0.14522 0.56193l-3.1595 7.0894h4.1772l-1.2348 2.7704h3.7226c1.9139 3.341 6.5181 3.6813 8.4639 4.2091l0.9492 1.0082 0.94914-1.0082c1.9459-0.52779 6.55-0.86817 8.464-4.2091h3.0566l-0.99216-1.7585 1.7116-1.0119h1.3305l1.8358-4.1194z" fill="#fff"/>
   <path d="m22.717 3.0674c-0.63884 0.35201-1.5564 0.79372-2.5157 0.79372-1.4718 0-2.6275-0.67338-3.3502-1.197-0.72278 0.52366-1.8785 1.197-3.3503 1.197-0.95944 0-1.8768-0.44171-2.5158-0.79372-0.53124 1.022-1.3484 1.559-1.925 1.9104 0.081327 0.24718 0.17029 0.53631 0.25365 0.85755h0.17373c-0.068791-0.27356-0.14395-0.53243-0.22222-0.77039 0.63732-0.38837 1.2731-0.95527 1.7867-1.7552 0.70624 0.38907 1.5535 0.70688 2.4489 0.70688 1.4141 0 2.5514-0.5627 3.3503-1.1413 0.79876 0.57865 1.9361 1.1413 3.3502 1.1413 0.89549 0 1.7428-0.31781 2.4489-0.70688 0.51367 0.79995 1.1495 1.3668 1.7868 1.7552-0.07827 0.23796-0.15336 0.49683-0.22234 0.77033h0.17392c0.083363-0.32118 0.17233-0.61031 0.25359-0.85749-0.57667-0.35144-1.3938-0.88845-1.9251-1.9104" fill="#fff"/>
   <path d="m16.55 20.564 0.30074 0.31927 0.30049-0.31927c2.134-0.61673 5.4722-0.82392 7.178-2.8456h-0.20701c-1.6817 1.8718-4.8698 2.0758-7.0261 2.6993l-0.24538 0.26065-0.24557-0.26065c-2.1562-0.62347-5.3443-0.82754-7.0262-2.6993h-0.20701c1.7059 2.0217 5.0441 2.2289 7.1781 2.8456" fill="#fff"/>
   <polygon points="11.5 14.948 9.3301 14.948 8.459 16.902 10.647 16.902 10.9 16.335 9.5566 16.335 9.6241 16.186 10.907 16.186 11.14 15.665 9.8543 15.665 9.9196 15.52 11.245 15.52" fill="#fff"/>
   <path d="m32.85 11.29h-5.5938l2.4312-5.4551h-3.7793c0.30266-1.0135 0.68263-1.6858 0.68263-1.6858s-2.5404-0.25315-3.2388-3.3846c-1.27e-4 0-1.5845 1.6196-3.1512 1.6196-2.0204 0-3.3501-1.726-3.3501-1.726s-1.3299 1.726-3.3502 1.726c-1.5668 0-3.1512-1.6196-3.1512-1.6196-0.6986 3.1314-3.2389 3.3846-3.2389 3.3846s0.37991 0.6723 0.68256 1.6859h-5.867l2.0002 1.5079c0.2436 0.18354 0.34135 0.56168 0.21725 0.8402l-3.0148 6.7644h4.1772l-1.2349 2.7705h3.5146c1.8873 3.4513 6.6962 3.735 8.4402 4.2352l0.82492 0.87605 0.82479-0.87605c1.744-0.5002 6.553-0.78387 8.4402-4.2352h2.8089l-0.90905-1.6112 1.9611-1.1593h1.2436z" fill="#231f20"/>
   <path d="m20.216 15.519c-0.33053 0-0.57216 0.12104-0.70032 0.40859-0.12804 0.28729-0.0231 0.4084 0.33632 0.4084 0.35954 0 0.57425-0.10293 0.71018-0.4084 0.13618-0.30554-0.03494-0.40859-0.34618-0.40859" fill="#231f20"/>
   <polygon points="6.2002 14.948 5.3291 16.902 6.1538 16.902 6.5468 16.021 6.9437 16.902 7.7885 16.902 8.6594 14.948 7.8322 14.948 7.4527 15.799 7.0797 14.948" fill="#fff"/>
   <polygon points="12.817 16.902 13.427 15.533 14.225 15.533 14.485 14.948 12.011 14.948 11.75 15.533 12.545 15.533 11.935 16.902" fill="#fff"/>
   <polygon points="26.559 14.948 25.697 14.948 24.826 16.902 25.688 16.902 25.952 16.31 26.072 16.235 26.39 16.902 27.527 16.902 26.911 15.812 28.373 14.948 27.304 14.948 26.297 15.535" fill="#fff"/>
   <path d="m23.86 15.646c-0.03519 0.07909-0.12804 0.14317-0.20714 0.14317h-0.70356l0.12766-0.28621h0.70356c0.07904 0 0.11467 0.06408 0.07948 0.14304m0.42032-0.69817h-1.8133l-0.87086 1.9544h0.85712l0.27618-0.61998h0.45589l0.1722 0.61998h0.94945l-0.25213-0.75946s0.44062-0.0548 0.67359-0.57757c0.18957-0.42538-0.0089-0.61737-0.44819-0.61737" fill="#fff"/>
   <path d="m17.959 14.948s-0.75294 0.99087-0.77954 1.0506c0.0266-0.05976 0.13179-1.0506 0.13179-1.0506h-0.85196s-0.7707 0.99087-0.79724 1.0506c0.02654-0.05976 0.14929-1.0506 0.14929-1.0506h-0.93189l-0.15107 1.9544h0.88213s0.75549-0.9238 0.78699-0.98845c-0.02399 0.06466-0.09176 0.98845-0.09176 0.98845h0.88938l1.5812-1.9544z" fill="#fff"/>
   <path d="m20.563 15.928c-0.13599 0.30554-0.3507 0.4084-0.71018 0.4084s-0.46435-0.12104-0.33632-0.4084c0.1281-0.28748 0.36973-0.40859 0.70032-0.40859 0.31118 0 0.48236 0.10305 0.34618 0.40859m-0.07191-1.0185c-0.75256 0-1.5263 0.28271-1.8497 1.0085-0.3234 0.7257 0.05645 1.0232 0.9443 1.0232s1.54-0.3077 1.8601-1.0259c0.32009-0.71813-0.08623-1.0058-0.95467-1.0058" fill="#fff"/>
   <polygon points="9.5566 16.335 9.6241 16.186 10.907 16.186 11.14 15.665 9.8543 15.665 9.9195 15.52 11.245 15.52 11.5 14.948 9.3301 14.948 8.459 16.902 10.647 16.902 10.9 16.335" fill="#fff"/>
   <path d="m22.645 14.068 2.6189-5.8765c0.15826-0.35506 0.084191-0.74464-0.21426-1.1268-0.11652-0.14921-0.24468-0.26905-0.34103-0.34985h3.6233l-2.4312 5.455h5.5938l-0.84586 1.8981z" fill="#d0d2d3"/>
   <path d="m28.43 6.6515h-3.9084s1.0464 0.70192 0.68434 1.5143l-2.6588 5.9659h8.143l0.90256-2.0253h-5.5939zm-0.196 0.12715-2.3514 5.2761-0.07974 0.1789h5.5938l-0.78922 1.771h-7.8644l2.5791-5.787c0.16845-0.37789 0.09157-0.78997-0.22222-1.1918-0.07388-0.094662-0.15241-0.17782-0.22502-0.24718h3.3591z" fill="#a6a8ab"/>
   <path d="m7.9058 14.068-1.0402-4.4225-1.971 4.4225h-2.4098l2.619-5.8765c0.29457-0.66104-0.2674-1.2377-0.55446-1.4766h3.5537l1.1236 4.7772 2.1291-4.7772h2.4098l-3.2769 7.3531z" fill="#d0d2d3"/>
   <path d="m13.863 6.6515h-2.5491l-2.069 4.6425-1.0919-4.6425h-3.7921s1.0464 0.70192 0.68435 1.5143l-2.6589 5.9659h2.5491l1.9109-4.2878 1.0085 4.2878h2.6744zm-0.19594 0.12715-3.2203 7.226h-2.4909l-0.98547-4.1897-0.086418-0.36752-2.031 4.5572h-2.2706l2.5792-5.787c0.27179-0.6098-0.13873-1.1466-0.44596-1.4389h3.3366l1.0688 4.5445 0.086482 0.36759 0.15368-0.34495 2.0355-4.5671z" fill="#a6a8ab"/>
   <path d="m18.159 14.068 1.2156-2.7275h-3.184l-1.2155 2.7275h-2.4099l2.6189-5.8764c0.29464-0.66098-0.26734-1.2377-0.55434-1.4766h3.6224l-1.2156 2.7276h3.1839l1.2155-2.7276h2.4098l-3.2769 7.3531z" fill="#d0d2d3"/>
   <path d="m23.943 6.6515h-2.5492l-1.2155 2.7276h-3.0445l1.2156-2.7276h-3.9084s1.0464 0.70192 0.68422 1.5143l-2.6589 5.9659h2.5493l1.2154-2.7275h3.0446l-1.2155 2.7275h2.5493zm-0.19594 0.12715-3.2203 7.2259h-2.2706l1.1358-2.5486 0.07967-0.17884h-3.3232l-0.0336 0.0754-1.1819 2.6521h-2.2707l2.5791-5.787c0.27179-0.6098-0.13866-1.1466-0.4459-1.4389h3.3578l-1.1359 2.5488-0.07967 0.17883h3.3232l0.03366-0.075399 1.1819-2.6522h2.2706z" fill="#a6a8ab"/>
   <path d="m8.6552 5.7718c-0.11715-0.39302-0.23895-0.72284-0.32047-0.94389-0.027873-0.075272-0.051291-0.13878-0.069491-0.19079 0.043336-0.021933 0.1008-0.047554 0.16845-0.077624 0.53149-0.23681 1.7653-0.78654 2.3033-2.4268 0.05218 0.032232 0.11626 0.074191 0.19084 0.12302 0.53804 0.35239 1.5395 1.0084 2.5728 1.0084 1.5382 0 2.6711-0.88731 3.2156-1.3138 0.05097-0.039861 0.0959-0.075145 0.13466-0.10433 0.03869 0.02918 0.08368 0.064401 0.13453 0.10433 0.54447 0.42639 1.6773 1.3138 3.2157 1.3138 1.0333 0 2.0348-0.65602 2.5728-1.0084 0.07458-0.048825 0.13866-0.090784 0.19085-0.12302 0.53798 1.6402 1.7718 2.1899 2.3033 2.4268 0.06764 0.030071 0.12504 0.055691 0.16838 0.077624-0.01826 0.052194-0.04175 0.11596-0.06968 0.19149-0.08152 0.22092-0.20319 0.55049-0.32022 0.94312h-0.75021c0.06205-0.23917 0.1295-0.46994 0.2009-0.68692l0.01572-0.047871-0.04302-0.026256c-0.71076-0.43313-1.3051-1.017-1.7664-1.7353l-0.0322-0.050033-0.05212 0.028672c-0.84172 0.46384-1.6553 0.69906-2.4181 0.69906-1.164 0-2.2786-0.37998-3.3128-1.1293l-0.03735-0.027083-0.03736 0.027083c-1.0344 0.74929-2.149 1.1293-3.3129 1.1293-0.76274 0-1.5763-0.23522-2.4181-0.69906l-0.05225-0.028672-0.03214 0.050033c-0.46116 0.71832-1.0555 1.3022-1.7662 1.7353l-0.043082 0.026193 0.015718 0.047935c0.071973 0.21882 0.13936 0.4496 0.20077 0.68698z" fill="#d0d2d3"/>
   <path d="m16.851 1.7669c-0.39944 0.28926-1.633 1.4337-3.3502 1.4337-1.2311 0-2.4469-0.96874-2.8001-1.1632-0.60607 1.9657-2.1941 2.3757-2.5127 2.5698 0.066118 0.20115 0.24761 0.64127 0.41987 1.2282h0.87945c-0.068727-0.27356-0.14395-0.53243-0.22222-0.77039 0.63738-0.38831 1.2731-0.95527 1.7868-1.7552 0.70624 0.38907 1.5534 0.70688 2.4489 0.70688 1.414 0 2.5514-0.5627 3.3502-1.1413 0.79883 0.57865 1.9362 1.1413 3.3502 1.1413 0.89556 0 1.7428-0.31781 2.4489-0.70688 0.51367 0.79995 1.1494 1.3669 1.7868 1.7552-0.07827 0.23796-0.15336 0.49683-0.22234 0.77033h0.87958c0.17226-0.58685 0.35375-1.027 0.41987-1.2281-0.31856-0.19409-1.9066-0.60415-2.5128-2.5698-0.35305 0.19447-1.5689 1.1632-2.8 1.1632-1.7173 0-2.9508-1.1444-3.3502-1.4337m0 0.15913c0.02902 0.022378 0.06096 0.047426 0.09533 0.074382 0.50712 0.39715 1.6946 1.3273 3.2549 1.3273 1.0524 0 2.0641-0.66276 2.6077-1.0188 0.04442-0.029117 0.08508-0.055691 0.12155-0.07915 0.55943 1.6072 1.7809 2.1512 2.3117 2.3878 0.042 0.018691 0.08133 0.036174 0.11531 0.052004-0.01457 0.040242-0.03144 0.085952-0.05027 0.13707-0.07872 0.2131-0.1946 0.52709-0.30787 0.90155h-0.62031c0.05581-0.20954 0.11569-0.41183 0.17876-0.60351l0.03156-0.095743-0.08616-0.052512c-0.70251-0.42798-1.2899-1.0052-1.746-1.7154l-0.06434-0.10013-0.1043 0.057535c-0.83217 0.4585-1.6354 0.69105-2.3874 0.69105-1.1503 0-2.2523-0.37585-3.2754-1.1172l-0.07471-0.054102-0.07477 0.054102c-1.0233 0.74134-2.1253 1.1172-3.2755 1.1172-0.75193 0-1.5551-0.23255-2.3875-0.69105l-0.1043-0.057535-0.06427 0.10019c-0.45596 0.71012-1.0434 1.2873-1.7459 1.7153l-0.086164 0.052512 0.031564 0.095743c0.063445 0.19307 0.12339 0.3955 0.17875 0.60357h-0.62033c-0.1134-0.37483-0.22941-0.68902-0.30813-0.90231-0.018773-0.050859-0.035509-0.096315-0.050018-0.13637 0.033982-0.015894 0.073246-0.033313 0.11525-0.052004 0.53079-0.23656 1.7524-0.78063 2.3117-2.3878 0.03646 0.023459 0.07713 0.050033 0.12155 0.07915 0.54358 0.35608 1.5554 1.0188 2.6078 1.0188 1.5602 0 2.7477-0.93009 3.2548-1.3273 0.03443-0.026955 0.06637-0.052004 0.09539-0.074382" fill="#a6a8ab"/>
   <path d="m16.35 21.129-0.01674-0.0048c-0.41631-0.11996-0.92686-0.22671-1.4674-0.33974-2.0184-0.42194-4.7706-0.99748-6.2002-3.0027h0.88512c1.2877 1.4141 3.4276 1.8773 5.3166 2.2863 0.60887 0.13179 1.1843 0.2564 1.7035 0.4056l0.27987 0.29715 0.27987-0.29715c0.51921-0.14921 1.0946-0.27381 1.7034-0.40554 1.8891-0.40897 4.029-0.87224 5.3166-2.2864h0.88525c-1.4295 2.0053-4.1818 2.5808-6.2001 3.0027-0.54059 0.11304-1.0511 0.21978-1.4675 0.33974l-0.0168 0.0048-0.50069 0.5318z" fill="#d0d2d3"/>
   <path d="m25.157 17.718h-1.0351c-1.6817 1.8717-4.8698 2.0758-7.0261 2.6993l-0.24545 0.26065-0.24551-0.26065c-2.1561-0.62354-5.3443-0.82761-7.0262-2.6993h-1.0349c1.7963 2.6602 5.7802 2.8935 7.7715 3.4671l0.53518 0.56842 0.53518-0.56842c1.9912-0.57369 5.9751-0.80695 7.7715-3.4671m-0.24704 0.12715c-1.4349 1.9042-4.114 2.4643-6.0877 2.877-0.5418 0.11329-1.0535 0.22028-1.472 0.34082l-0.03354 0.0097-0.02386 0.02537-0.44246 0.46994-0.44253-0.46994-0.02393-0.02537-0.03354-0.0097c-0.41853-0.12054-0.93023-0.22753-1.472-0.34082-1.9737-0.41266-4.6528-0.97281-6.0878-2.877h0.73169c1.3033 1.4131 3.4419 1.8759 5.3312 2.2849 0.60111 0.13014 1.1697 0.25328 1.6825 0.39982l0.22165 0.23522 0.09272 0.09848 0.09265-0.09848 0.22146-0.23522c0.51291-0.14654 1.0814-0.26968 1.6825-0.39982 1.8891-0.40885 4.028-0.87198 5.3311-2.2849h0.73182" fill="#a6a8ab"/>
  </g>
 </g>
</svg>
