<svg width="981" height="170.1" space="preserve" version="1.1" viewBox="0 0 981 170.1" xmlns="http://www.w3.org/2000/svg">
 <style type="text/css">.st0{fill:#00FF00;}
	.st1{fill:#F57C14;}</style>
 <link href="" rel="stylesheet" type="text/css"/>
 <g fill="#ff6700">
  <path class="st1" d="m57.3 55.2c15.9 0 29.4 5.6 40.6 16.8 11.2 11 16.8 24.5 16.8 40.5v52.7h-43.5v-51.8c0-6.1-1.4-11.4-4.1-15.7s-6-6.5-9.8-6.5-7 2.2-9.7 6.5-4.1 9.6-4.1 15.7v51.8h-43.5v-52.7c0-16 5.6-29.5 16.8-40.5 11.1-11.3 24.6-16.8 40.5-16.8z"/>
  <path class="st1" d="m156.5 46.5c-4.6 4.6-7 7.9-7.2 10.2v0.2c0 2.3 2 5.4 6.1 9.4l4.8 4.8c4.3 4.3 6.4 9.5 6.4 15.6v78.4h-43.9v-78.4c0-6.1 2.1-11.3 6.4-15.6l4.9-4.8c4-4 6-7.2 6-9.5v-0.2c-0.2-2.1-2.6-5.5-7.2-10l-5.2-5.3c-4.8-4.7-7.2-10.4-7.2-17.1s2.4-12.4 7.2-17c4.6-4.8 10.3-7.2 17-7.2 6.8 0 12.5 2.4 17.1 7.1 4.8 4.7 7.2 10.4 7.2 17.1 0 6.8-2.4 12.5-7.2 17.1z"/>
  <path class="st1" d="m239.4 130.9c1.9-3.6 3.2-7.9 3.7-12.8h43.4c-1.2 13.8-6.7 25.4-16.5 35.1v0.1c-11.1 11.2-24.5 16.8-40.2 16.8h-0.5c-15.7 0-29.2-5.6-40.3-16.8v-0.1c-11.2-11-16.8-24.4-16.8-40.2v-0.5c0-15.7 5.6-29.1 16.8-40.2 11.1-11.2 24.6-16.8 40.5-16.8 15.8 0 29.3 5.6 40.5 16.8 9.8 9.7 15.2 21.4 16.5 35.1h-43.4c-0.6-4.9-1.8-9.2-3.7-12.8-2.8-5-6.1-7.5-9.8-7.5-3.8 0-7 2.5-9.7 7.5-2.7 5.1-4.1 11.2-4.1 18.3s1.4 13.1 4.1 18.2c2.7 5 5.9 7.5 9.7 7.6 3.8-0.3 7-2.8 9.8-7.8z"/>
  <path class="st1" d="m377.7 117.2 22 33.7c1.9 2.8 2.8 5.3 2.8 7.5 0 0.9-0.1 1.8-0.4 2.6-1 2.8-3.1 4.2-6.4 4.2h-35.9l-22.7-34.7v34.6h-43.5v-88.3c0-6 2.1-11.1 6.4-15.4 4.2-4.2 9.3-6.3 15.3-6.3 6.1 0 11.2 2.1 15.4 6.3 4.3 4.3 6.4 9.4 6.4 15.4v23.5l19.7-35.2c3.1-5.2 7.5-8.5 13.4-10 1.9-0.5 3.8-0.7 5.7-0.7 3.8 0 7.4 1 10.8 3 5.2 3.1 8.6 7.6 10 13.5 0.5 1.9 0.7 3.7 0.7 5.6 0 3.8-1 7.4-3.1 10.8z"/>
 </g>
 <g fill="#0f0">
  <path class="st0" d="m480.8 113.3c0-6.1-1.4-11.4-4.1-15.7s-6-6.5-9.8-6.5-7 2.2-9.7 6.5-4.1 9.6-4.1 15.7v51.8h-43.5v-52.7c0-16 5.6-29.5 16.8-40.5 11.1-11.2 24.6-16.8 40.5-16.8 13.6 0 25.5 4.1 35.6 12.3 10.1-8.2 22-12.3 35.6-12.3 15.9 0 29.4 5.6 40.6 16.8 11.2 11 16.8 24.5 16.8 40.5v52.7h-43.5v-51.8c0-6.1-1.4-11.4-4.1-15.7s-6-6.5-9.8-6.5-7 2.2-9.7 6.5-4.1 9.6-4.1 15.7v51.8h-43.5z"/>
  <path class="st0" d="m668.2 76.3c0-5.9 2.1-11 6.4-15.2s9.4-6.3 15.4-6.3c6.1 0 11.2 2.1 15.4 6.4s6.4 9.5 6.4 15.6v88.3h-43.6v-13.1c-7.6 10.7-17.5 16-29.8 16-25 0-37.5-15.6-37.5-46.7v-45c0-5.9 2.1-11 6.4-15.2s9.4-6.3 15.4-6.3 11.1 2.2 15.5 6.5c4.3 4.3 6.5 9.5 6.5 15.6v40.8c0 5.5 1.1 10.2 3.3 14.2 2.4 4 5.2 6 8.4 6s5.9-2 8.2-6c2.4-3.9 3.5-8.7 3.5-14.2z"/>
  <path class="st0" d="m780 101.2c21.1 9.3 31.6 20 31.6 32.1 0 9.1-4.1 17.1-12.3 24-8.8 7.4-19.5 11.1-32.2 11.1-14.7 0-26.7-4.3-36-12.8-8.6-7.8-12.9-17.1-12.9-27.8h35.3c0 3.1 0.6 5.9 1.9 8.4 2.1 4.3 5.6 6.5 10.5 6.5 1.6 0 3.1-0.5 4.6-1.5 1.9-1.1 2.8-2.7 2.8-4.8v-0.4c0-2.6-2.2-5.1-6.5-7.5-1-0.6-7.2-3.4-18.7-8.6-21-9.3-31.5-20-31.5-32.1 0-9 4.1-17.1 12.3-24 8.7-7.4 19.4-11.1 32.2-11.1 14.6 0 26.6 4.3 36 12.8 8.5 7.8 12.8 17.1 12.8 27.8h-35.3c0-3-0.6-5.7-1.8-8.2-2.1-4.1-5.7-6.1-10.6-6.1-1.6 0-3.1 0.4-4.5 1.2-2 1-3 2.6-3 4.7v0.3c0.1 2.6 2.4 5.1 6.6 7.5 1.1 0.6 7.3 3.5 18.7 8.5z"/>
  <path class="st0" d="m850.8 46.5c-4.6 4.6-7 7.9-7.2 10.2v0.2c0 2.3 2 5.4 6.1 9.4l4.8 4.8c4.3 4.3 6.4 9.5 6.4 15.6v78.4h-43.9v-78.4c0-6.1 2.1-11.3 6.4-15.6l4.9-4.8c4-4 6-7.2 6-9.5v-0.2c-0.2-2.1-2.6-5.5-7.2-10l-5.2-5.3c-4.8-4.7-7.2-10.4-7.2-17.1s2.4-12.4 7.2-17c4.6-4.8 10.3-7.2 17-7.2 6.8 0 12.5 2.4 17.1 7.1 4.8 4.7 7.2 10.4 7.2 17.1 0 6.8-2.4 12.5-7.2 17.1z"/>
  <path class="st0" d="m933.9 129.1c1.9-3.6 3.2-7.9 3.7-12.8h43.4c-1.2 13.8-6.7 25.4-16.5 35.1v0.1c-11.1 11.2-24.5 16.8-40.2 16.8h-0.5c-15.7 0-29.2-5.6-40.3-16.8v-0.1c-11.2-11-16.8-24.4-16.8-40.2v-0.5c0-15.7 5.6-29.1 16.8-40.2 11.1-11.2 24.6-16.8 40.5-16.8 15.8 0 29.3 5.6 40.5 16.8 9.8 9.7 15.2 21.4 16.5 35.1h-43.4c-0.6-4.9-1.8-9.2-3.7-12.8-2.8-5-6.1-7.5-9.8-7.5-3.8 0-7 2.5-9.7 7.5-2.7 5.1-4.1 11.2-4.1 18.3s1.4 13.1 4.1 18.2c2.7 5 5.9 7.5 9.7 7.6 3.7-0.3 7-2.8 9.8-7.8z"/>
 </g>
</svg>
