<svg width="800" height="543.43" version="1.1" viewBox="0 0 800 543.43" xml:space="preserve" xmlns="http://www.w3.org/2000/svg">
<g transform="matrix(.65974 0 0 .65974 -233.35 -84.579)" fill="#464648">
		<path d="m584.4 887.8c-5.4-4.8-12.8-7.4-19.9-7.4-16.9 0-29.8 14.1-29.8 30.8 0 16.5 12.8 30.6 29.6 30.6 7.4 0 14.5-2.8 20.1-7.8v11.1c-5.8 3.4-13.2 5.3-19.8 5.3-21.5 0-39.3-17.1-39.3-38.9 0-22.3 17.9-39.7 40.1-39.7 6.6 0 13.3 1.6 19 5.1z"/>
		<path d="m710.1 903.8v-30.4h9.4v75.4h-9.4v-36.2h-35.9v36.2h-9.4v-75.4h9.4v30.4z"/>
		<path d="m813.8 929.9-8.6 18.9h-10.2l36-78.6 36 78.6h-10l-8.6-18.9zm17.3-39.1-13.4 30.5h26.8z"/>
		<path d="m942.4 869.8 56.6 59.3v-55.7h9.4v78.5l-56.6-59.3v56.2h-9.4z"/>
		<path d="m1090.9 869.8 56.6 59.3v-55.7h9.4v78.5l-56.6-59.3v56.2h-9.4z"/>
		<path d="m1240.3 873.4h40.5v8.6h-31.1v21.1h30.2v8.6h-30.2v28.5h31.1v8.6h-40.5z"/>
		<path d="m1371.8 940.2h22.9v8.6h-32.3v-75.4h9.4z"/>
		<path d="m915.4 742.8c-3.1-0.8-6.1-1.2-9.2-1.2-21.6 0-31 17.8-31 35.2 0 16.8 9.4 37.5 30.9 37.5 3.1 0 6.3-0.8 9.4-1.6v21.1c-3.6 1.4-7.4 2-11.4 2-35.5 0-55.1-29.1-55.1-58.8 0-28 20.5-56.8 54-56.8 4.3 0 8.4 0.8 12.5 2.1v20.5z"/>
		<path d="m988.5 721.5 29.9 113.1h-26.2l-4.6-19h-24.9l-4.5 19h-24.4l28.9-113.1zm-10.9 46.2-2.8-17.1h-0.3l-2.6 17.1-5.3 30.1h17.3z"/>
		<path d="m1041.4 834.6v-113.1h24.7c15.7 0 43.7 1.5 43.7 32.4 0 12.4-5.4 23.1-17.7 29.2l21.6 51.4h-25.7l-21.6-52.2h-0.3v52.2h-24.7zm24.6-64.5 4.3 0.2c11.2 0 15.7-6.9 15.7-16.2 0-8.1-4.3-14.7-16.7-14.1h-3.3z"/>
		<path d="m1225.1 778c0 42.4-21.8 58.3-43.7 58.3s-43.7-15.9-43.7-58.3 21.8-58.3 43.7-58.3 43.7 15.9 43.7 58.3zm-43.7 37.7c16.3 0 17.5-28.6 17.5-37.6 0-10-1.2-37.6-17.5-37.6s-17.5 27.6-17.5 37.6c0 8.9 1.1 37.6 17.5 37.6z"/>
		<path d="m1275.9 721.5v92.1h25.7v21h-50.3v-113.1z"/>
		<path d="m1350.6 721.5v113.1h-24.6v-113.1z"/>
		<path d="m1404.9 721.5 30.7 68.2 0.3-0.3c-1.5-5.4-2-11.2-2-17.1v-50.8h24.6v113.1h-23.3l-30.4-68.2-0.3 0.3 1.2 11.4 0.2 4.6v51.9h-24.6v-113.1z"/>
		<path d="m1536.4 721.5 29.9 113.1h-26.2l-4.6-19h-24.9l-4.5 19h-24.4l28.9-113.1zm-10.9 46.2-2.8-17.1h-0.3l-2.6 17.1-5.3 30.1h17.3z"/>
	<path d="m960 609.9c-114.2 0-206.8-92.6-206.8-206.8s92.6-206.7 206.8-206.7c55.3 0 105.6 21.7 142.7 57.2l51-45.6c-49.7-49.3-118.1-79.8-193.7-79.8-151.9 0-275 123.1-275 275s123.1 275 275 275c75.5 0 144-30.5 193.7-79.8l-51-45.6c-37.1 35.4-87.4 57.1-142.7 57.1z"/></g><g transform="matrix(.65974 0 0 .65974 -233.35 -84.579)" fill="#016c98">
		<path d="m377.3 721.5 30.7 68.2 0.3-0.3c-1.5-5.4-2-11.2-2-17.1v-50.8h24.6v113.1h-23.3l-30.4-68.2-0.3 0.3 1.2 11.4 0.2 4.6v51.9h-24.6v-113.1z"/>
		<path d="m544.4 778c0 42.4-21.8 58.3-43.7 58.3s-43.7-15.9-43.7-58.3 21.8-58.3 43.7-58.3c22 0 43.7 15.9 43.7 58.3zm-43.7 37.7c16.3 0 17.5-28.6 17.5-37.6 0-10-1.2-37.6-17.5-37.6s-17.5 27.5-17.5 37.5c0 9 1.2 37.7 17.5 37.7z"/>
		<path d="m570.7 834.6v-113.1h24.7c15.7 0 43.7 1.5 43.7 32.4 0 12.4-5.4 23.1-17.7 29.2l21.6 51.4h-25.9l-21.6-52.2h-0.3v52.2h-24.5zm24.6-64.5 4.3 0.2c11.2 0 15.7-6.9 15.7-16.2 0-8.1-4.3-14.7-16.7-14.1h-3.3z"/>
		<path d="m724.1 721.5v21h-19.5v92.1h-24.6v-92.1h-19.3v-21z"/>
		<path d="m773.2 721.5v44.2h24.9v-44.2h24.6v113.1h-24.6v-47.8h-24.9v47.8h-24.6v-113.1z"/>
	<path d="m1235 403.1c0-64.6-22.3-124-59.6-171l-51 45.6c26.5 34.8 42.3 78.2 42.3 125.3s-15.8 90.6-42.3 125.3l51 45.6c37.3-46.8 59.6-106.2 59.6-170.8z"/><path d="m835.4 278.4h64.8l118.8 152.5h0.7v-152.5h64.8v249.4h-64.8l-118.8-152.8h-0.7v152.8h-64.8z"/></g>
</svg>
