<svg width="595.94" height="799.99" version="1.0" viewBox="0 0 595.94 799.99" xmlns="http://www.w3.org/2000/svg">
 <g transform="matrix(10.135,0,0,10.135,-8.108,0)" fill="#fdd000">
  <path class="st0" d="m21.7 45.6c0 1.2 0.4 2.1 0.4 2.1 1.2 2.3 3.1 3.9 8.2 3.9 3.6 0 4.9-0.5 6.6-1.6 1.4-0.9 2-2.6 2.1-4.2 0.1-2.5 0.2-8.1 0.1-8.9 0-0.7-0.2-1.4-0.7-1.8-0.7-0.5-1.9-0.4-2.3 0-0.5 0.4-0.7 0.9-0.8 1.8v1.1c0 0.1 0 0.2-0.1 0.3s-0.2 0.1-0.3 0.1h-8.9c-0.4 0-0.6 0-0.7-0.1s-0.1-0.5-0.1-0.5v-0.7c-0.2-1.5-0.8-2.2-2-2.2-1 0-1.7 0.7-1.8 1.5-0.1 1.1-0.1 4.1 0.1 8.2 0.1 0.4 0.1 0.8 0.2 1m3.5-3.4c0-0.6 0.3-0.6 1-0.6h8.6c0.1 0 0.3 0 0.5 0.2 0.1 0.1 0.1 0.2 0.1 0.4v1.4c0 1.5-0.1 2.2-0.2 2.7-0.4 1.3-2 2-4.4 2h-0.2c-4.4 0-5.2-1.2-5.2-3.8-0.2-1.4-0.2-1.8-0.2-2.3"/>
  <path class="st0" d="m21.7 45.6c0 1.2 0.4 2.1 0.4 2.1 1.2 2.3 3.1 3.9 8.2 3.9 3.6 0 4.9-0.5 6.6-1.6 1.4-0.9 2-2.6 2.1-4.2 0.1-2.5 0.2-8.1 0.1-8.9 0-0.7-0.2-1.4-0.7-1.8-0.7-0.5-1.9-0.4-2.3 0-0.5 0.4-0.7 0.9-0.8 1.8v1.1c0 0.1 0 0.2-0.1 0.3s-0.2 0.1-0.3 0.1h-8.9c-0.4 0-0.6 0-0.7-0.1s-0.1-0.5-0.1-0.5v-0.7c-0.2-1.5-0.8-2.2-2-2.2-1 0-1.7 0.7-1.8 1.5-0.1 1.1-0.1 4.1 0.1 8.2 0.1 0.4 0.1 0.8 0.2 1m3.5-3.4c0-0.6 0.3-0.6 1-0.6h8.6c0.1 0 0.3 0 0.5 0.2 0.1 0.1 0.1 0.2 0.1 0.4v1.4c0 1.5-0.1 2.2-0.2 2.7-0.4 1.3-2 2-4.4 2h-0.2c-4.4 0-5.2-1.2-5.2-3.8-0.2-1.4-0.2-1.8-0.2-2.3"/>
  <path class="st0" d="m30.2 0c-16.2 0-29.4 13.2-29.4 29.4 0 9 4.1 17 10.4 22.4-0.3 0.7-0.7 1.3-0.8 1.8-0.1 0.7 0 1.8 0.6 2.3 0.7 0.6 1.8 0.5 2.4 0.1 0.4-0.3 0.8-0.8 1.3-1.7 4.5 2.8 9.8 4.4 15.5 4.4h0.1c5.5 0 10.7-1.5 15.2-4.3 0.5 1.1 0.7 1.3 0.9 1.5 0.3 0.2 0.5 0.3 0.7 0.4h0.6c0.3 0 0.6-0.1 0.9-0.3 1.2-0.8 1.1-1.8 0.4-3.6 0-0.1-0.1-0.2-0.1-0.3 0.9-0.8 1.8-1.6 2.6-2.4 5.2-5.5 8.1-12.7 8.1-20.3 0-16.2-13.2-29.4-29.4-29.4m17.6 49c-0.4-1.1-1.4-4-2.1-12 0-0.1-0.1-1.1-0.1-1.4-0.1-0.6-0.1-1.3-0.2-1.6-0.1-1.8-0.3-4.8-1.4-7.3-0.2-0.5-0.6-1.4-1.3-2.1-0.2-0.2-0.5-0.5-0.8-0.7-0.2-0.1-0.3-0.2-0.3-0.3l-0.1-0.1v-0.1c0.1-0.5 0.2-1.3 0.2-2.7v-0.1c0.1-1.6-0.3-2.2-0.8-2.8-0.4-0.5-1.6-1-2.5-1.1-1.2-0.2-4.9-0.4-6.5-0.5h-0.2s0-0.1-0.1-0.2c0-0.2 0-0.4-0.1-0.6-0.2-0.9-0.8-1.5-1.7-1.5-1.4 0-1.6 1.3-1.6 2.1v0.2c0 0.1-0.1 0.1-0.2 0.1-1 0.1-2.4 0.2-3.2 0.2-0.4 0-1.2 0.1-1.6 0.2-1.9 0.3-1.9 1-2 1.5 0 0.8 0.4 1.2 0.7 1.5 0.4 0.3 1 0.4 1.2 0.4h0.9c0.1 0 0.9-0.1 1-0.1 0.6-0.1 2-0.2 3.1-0.3 0.1 0 0.2 0 0.2 0.1 0 0 0.1 0.1 0.1 0.2v2.4c0 0.1 0 0.1-0.1 0.2 0 0-0.1 0.1-0.2 0.1-1.2 0-3.1 0.1-4.3 0.2-0.3 0-0.9 0.1-1.2 0.1-1.1 0.1-2.8 0.4-2.8 1.9 0 1 0.7 1.3 1.2 1.4s1.5 0.1 2 0c1.4 0 3.2-0.1 4.4-0.1 0.2 0 0.6 0 0.7 0.1s0.1 0.1 0.1 0.2v1.7c0 0.3 0.1 0.9-0.1 1 0 0-0.1 0.1-0.2 0.1-1.2 0-4.5 0-6 0.1-1.1 0-1.8 0.9-1.8 1.6 0 0.8 0.3 1.6 1.3 1.9 0.2 0.1 0.8 0.2 1.8 0.2h4.5c0.1 0 0.4 0 0.6 0.1 0.1 0.1 0.1 0.3 0.1 0.4 0.2 1.6 0.3 2.9 1.5 3.1 0.8 0.1 1.2-0.2 1.5-0.6 0.3-0.3 0.5-0.8 0.5-1.4v-1.5c0-0.1 0-0.3 0.1-0.4s0.1-0.2 0.6-0.2c3.7-0.2 5.9-1.5 7.4-4.1 0.1-0.1 0.1-0.3 0.3-0.2 0.1 0 0.2 0.1 0.3 0.3 0.5 1.2 0.7 2 0.8 2.8l0.2 1.6c0.1 0.7 0.2 1.8 0.2 3 0.1 1.1 0.3 3.2 0.4 4.5 0.1 1.7 0.7 6.3 2.1 10.9 0 0.1 0.1 0.2 0.1 0.3-4.1 2.7-9 4.2-14.3 4.2s-10.2-1.6-14.3-4.2c0.3-0.8 0.5-1.7 0.7-2.3 1.5-5.4 1.9-13.4 2.2-19.2 0.2-3.3 0.1-10.3 0.1-12.4v-1.5c0-0.4 0-1.6 1-2.1 0.5-0.3 1.5-0.7 7.1-0.8h5.3c5.2 0.1 7.3 0.3 12.2 0.5 0.7 0 1.4-0.1 1.7-0.6 0.4-0.6 0.4-1.4-0.2-2-0.6-0.7-1.3-0.9-2.4-1-1.7-0.3-2.4-0.4-4.5-0.5-0.7 0-2.6-0.1-2.6-0.1-1.3 0-2-0.1-2.7-0.1-0.2 0-0.3 0-0.4-0.1s-0.1-0.2-0.1-0.3c-0.5-1.8-1.6-3.9-2.9-4h-0.2c-0.7 0-1.1 0.2-1.4 0.7s-0.3 1-0.1 1.4c0.2 0.5 0.4 1.1 0.6 1.5 0.1 0.1 0.2 0.5 0.1 0.7-0.1 0.1-0.6 0.1-0.6 0.1-0.8 0-1.8 0.1-3.1 0.1h-1c-1.8 0-3.4 0.3-4.1 0.4-5.7 0.7-5.5 4.9-5.4 5.5v2.3c0.1 5.3 0.3 7.4 0.1 12.8-0.1 3-0.6 12.8-2.1 17.5-0.1 0.2-0.2 0.5-0.3 0.8-5.4-4.8-8.8-11.8-8.8-19.6 0-6.8 2.6-13.2 7.2-18.1 4.9-5.3 11.7-8.3 19-8.3 14.2 0 26.3 11.9 26.3 26.4 0.1 7.8-3.3 14.8-8.7 19.6m-15-26.5h-0.8c-0.1 0-0.1 0-0.2-0.1v-2.6c0-0.1 0-0.2 0.1-0.2 0 0 0.1-0.1 0.2-0.1 1.7 0 3.7 0.1 4.8 0.3 0.5 0.1 0.9 0.3 1.2 0.8 0.2 0.4 0.2 1.1 0 1.8l-0.1 0.1s-0.1 0.1-0.2 0.1h-0.7c-0.9 0-3-0.1-4.3-0.1m2.8 5.9c-0.8 0.4-2.6 0.6-3.3 0.6h-0.1c-0.1 0-0.3-0.1-0.3-0.4v-2.4c0-0.3 0-0.4 0.4-0.4h4.1c0.5 0 0.8 0.2 0.9 0.4-0.1 0.7-1 1.8-1.7 2.2"/>
 </g>
 <g transform="matrix(.21686 0 0 .21686 -443.3 504.44)">
  <path d="m2198.4 587.44h213.58l345.48 520.16h2.88l59.97-520.16 1049.9-6.8e-4 -16.73 171.71h-313.02l-73.04 603.72h-214.1l66.2-603.72h-315.17l-72.99 603.72h-214.44l-344.42-519.64h-2.88l-60.43 519.64h-200.58z"/>
  <path d="m3906.2 587.44h412.79c49.32-0.29 98.87 3.255 147 14.435 38.19 8.8 75.51 22.14 109.76 41.33 27.05 15.17 52.08 34.11 73.31 56.77 23.87 25.29 42.73 55.25 55.45 87.61 13.06 32.91 19.91 68.09 21.97 103.38 2.45 23.01 0.51 46.16-1.5 69.12-4.38 45.91-14.64 91.37-31.78 134.24-25.21 63.61-66.43 121-119.77 163.99-30.11 24.45-63.76 44.42-99.33 59.82-61.85 26.81-128.97 40-196.09 43.64-24.66 1.48-49.37 1.02-74.06 1.09h-387.59m287.29-632.37-56.36 488.88h154.71c23.97-0.19 48.02 0.785 71.92-1.665 24.34-2.42 48.48-7.34 71.61-15.36 34.12-11.74 66.06-30.56 91.54-56.25 24.61-24.45 42.87-54.89 54.49-87.49 14.2-39.2 18.87-81.14 19.52-122.62-0.33-22.87-2.17-45.86-7.97-68.06-4.92-19.13-12.68-37.64-23.81-54.01-18.62-27.83-46.92-48.09-77.77-60.43-42.28-16.96-88.26-22.15-133.49-22.99z"/>
 </g>
</svg>
