<svg width="1e3" height="666.16" enable-background="new 0 0 1000 666.159" space="preserve" version="1.1" viewBox="0 0 1e3 666.16" xmlns="http://www.w3.org/2000/svg">
 <link href="" rel="stylesheet" type="text/css"/>
 <style type="text/css"/>
 <path d="m494.66 198.59c0 57.221-46.388 103.61-103.61 103.61-57.221 0-103.61-46.387-103.61-103.61 0-57.226 46.389-103.61 103.61-103.61s103.61 46.39 103.61 103.61zm-103.61-86.347c-47.688 0-86.344 38.659-86.344 86.347 0 47.687 38.657 86.346 86.344 86.346 47.688 0 86.346-38.659 86.346-86.346 1e-3 -47.689-38.658-86.347-86.346-86.347z" fill="#fcb131"/>
 <path d="m719.15 198.59c0 57.221-46.393 103.61-103.61 103.61-57.224 0-103.61-46.387-103.61-103.61 0-57.226 46.392-103.61 103.61-103.61s103.61 46.39 103.61 103.61zm-103.61-86.347c-47.689 0-86.346 38.659-86.346 86.347 0 47.687 38.656 86.346 86.346 86.346 47.688 0 86.345-38.659 86.345-86.346-4e-3 -47.689-38.662-86.347-86.345-86.347z" fill="#00a651"/>
 <path d="m382.42 103.61c0 57.227-46.389 103.61-103.61 103.61-57.219 0-103.61-46.39-103.61-103.61 0-57.226 46.389-103.61 103.61-103.61s103.61 46.389 103.61 103.61zm-103.61-86.338c-47.688 0-86.345 38.656-86.345 86.346 0 47.688 38.658 86.347 86.345 86.347 47.688 0 86.346-38.659 86.346-86.347-6e-3 -47.69-38.664-86.346-86.346-86.346z" fill="#0081c8"/>
 <path d="m606.91 103.61c0 57.227-46.392 103.61-103.61 103.61-57.225 0-103.61-46.39-103.61-103.61 0-57.226 46.392-103.61 103.61-103.61 57.227 0 103.61 46.389 103.61 103.61zm-103.61-86.338c-47.688 0-86.345 38.656-86.345 86.346 0 47.688 38.657 86.347 86.345 86.347 47.689 0 86.346-38.659 86.346-86.347 0-47.69-38.657-86.346-86.346-86.346z" fill="#fff"/>
 <path d="m831.4 103.61c0 57.227-46.392 103.61-103.61 103.61-57.224 0-103.6-46.39-103.6-103.61 0-57.226 46.385-103.61 103.6-103.61 57.218 0 103.61 46.389 103.61 103.61zm-103.61-86.338c-47.688 0-86.347 38.656-86.347 86.346 0 47.688 38.658 86.347 86.347 86.347 47.688 0 86.344-38.659 86.344-86.347 0-47.69-38.656-86.346-86.344-86.346z" fill="#ee334e"/>
 <path d="m287.85 207.88c-0.273-3.06-0.413-6.163-0.413-9.29 0-3.485 0.173-6.923 0.506-10.317l17.885-3.661c-0.741 4.548-1.125 9.221-1.125 13.978 0 2.071 0.076 4.128 0.215 6.162z" fill="#fcb131"/>
 <path d="m512.28 207.21c-0.233-2.844-0.353-5.721-0.353-8.62 0-3.288 0.151-6.543 0.45-9.753l17.87-3.801c-0.694 4.416-1.055 8.943-1.055 13.554 0 1.905 0.062 3.792 0.179 5.667l-7.797 4.041zm130.66-90.521c-6.025-2.013-12.354-3.38-18.889-4.026l-1.175-9.127 1.133-8.22c6.208 0.5 12.256 1.553 18.107 3.098z" fill="#00a651"/>
 <path d="m419.02 116.88c-6.424-2.197-13.187-3.659-20.19-4.287l-7.784-17.613c2.432 0 4.851 0.082 7.237 0.247 6.885 0.477 13.585 1.621 20.033 3.376z" fill="#fcb131"/>
 <g fill="#878787">
  <path d="m78.176 376.03c-43.176 0-78.176 35.019-78.176 78.218 0 43.193 35 78.212 78.176 78.212 43.175 0 78.175-35.019 78.175-78.212 1e-3 -43.199-35-78.218-78.175-78.218m0 120.7c-23.446 0-42.457-19.02-42.457-42.477 0-23.465 19.011-42.483 42.457-42.483s42.455 19.019 42.455 42.483c0 23.458-19.008 42.477-42.455 42.477"/>
  <path d="m279.93 498.73c0-2.234-1.791-4.054-4.006-4.054-0.027 0-0.052 7e-3 -0.079 7e-3v-7e-3h-59.089v-111.96h-0.021c0-0.074 0.021-0.142 0.021-0.208 0-2.243-1.795-4.053-4.006-4.053h-28.377v4e-3c-2.175 0.041-3.928 1.84-3.928 4.049 0 0.051 0.015 0.104 0.015 0.154h-0.01l-5e-3 143.64c0.015 2.229 1.8 4.031 4.006 4.031h91.473c2.201 0 3.974-1.788 4.001-4.008h5e-3v-27.509l-5e-3 -6e-3c0-0.022 5e-3 -0.046 5e-3 -0.071"/>
  <path d="m414.51 384.59-0.01-3e-3c0.364-0.616 0.585-1.324 0.585-2.087 0-1.739-1.079-3.202-2.584-3.783 0.011-0.057 5e-3 -0.114 0.037-0.162-0.089 0.027-0.166 0.061-0.25 0.095-0.383-0.124-0.783-0.208-1.204-0.208-0.14 0-0.264 0.026-0.4 0.04h-31.869c-0.134-0.014-0.259-0.04-0.398-0.04-1.552 0-2.882 0.903-3.546 2.212l-5e-3 -7e-3 -31.262 50.532-31.184-50.4c-0.022 0.014-0.047 0.022-0.062 0.032-0.634-1.395-2.019-2.369-3.64-2.369-0.135 0-0.264 0.026-0.393 0.04h-31.817c-0.137-0.014-0.266-0.04-0.4-0.04-2.215 0-4.006 1.815-4.006 4.059 0 0.39 0.073 0.763 0.177 1.119-0.016 7e-3 -0.021 0.017-0.037 0.022-0.016 0.041-0.042 0.082-0.058 0.125l0.51 0.823c0.051 0.085 0.098 0.169 0.15 0.246l52.544 84.964v56.748s5e-3 0 0.012-6e-3c0 0.026-0.012 0.053-0.012 0.077 0 2.241 1.795 4.058 4.007 4.058 0.058 0 0.115-0.014 0.166-0.014v0.014h28.186v-3e-3c0.02 0 0.04 3e-3 0.062 3e-3 2.21 0 4.006-1.816 4.006-4.058 0-0.067-0.015-0.128-0.021-0.191l0.021-0.011v-56.617l52.586-85.031s5e-3 -0.01 0.01-0.017z"/>
  <path d="m827.81 408.07-6e-3 -0.033 6e-3 -4e-3v-25.068c-0.016 0-0.026-2e-3 -0.041-0.01 0.015-0.134 0.041-0.269 0.041-0.413 0-2.236-1.791-4.048-4.007-4.048-0.099 0-0.191 0.02-0.291 0.026 0 0 5e-3 -0.022 5e-3 -0.026h-77.735c-2.211 0-4.001 1.812-4.001 4.048 0 0.058 0.016 0.108 0.016 0.162v25.204c0 0.057-0.016 0.109-0.016 0.162 0 2.235 1.79 4.052 4.001 4.052 0.02 0 0.042-4e-3 0.062-4e-3v4e-3h20.282v85.36h-20.343c-2.211 0-4.001 1.812-4.001 4.05 0 0.105 0.021 0.209 0.03 0.313h-0.03v24.645h0.01c0 0.047-0.01 0.091-0.01 0.142 0 2.234 1.79 4.051 4.001 4.051 0.02 0 0.037-3e-3 0.057-3e-3v3e-3h78.131v-0.014c2.081-0.15 3.738-1.889 3.738-4.037v-24.844c-9e-3 0-0.019 0-0.023-6e-3 5e-3 -0.08 0.023-0.165 0.023-0.25 0-2.238-1.793-4.05-4.004-4.05-0.053 0-0.099 0.01-0.148 0.013l-6e-3 -0.013h-19.841v-85.36h19.87s-5e-3 -0.014-5e-3 -0.02c0.077 0 0.15 0.02 0.229 0.02 2.215 0 4.006-1.817 4.006-4.052"/>
  <path d="m675.42 379.69c-20.609-2.044-41.67-1.105-62.554-1.174-0.062-4e-3 -0.124-0.02-0.185-0.02-2.218 0-4.008 1.815-4.008 4.051 0 0.111 0.021 0.216 0.031 0.319-0.011-6e-3 -0.021-0.014-0.031-0.016v143.83h5e-3c0.026 2.183 1.75 3.94 3.897 3.998v3e-3h27.942c5e-3 -0.01 5e-3 -0.02 0.01-0.029 0.12 0.01 0.234 0.029 0.354 0.029 2.193 0 3.973-1.788 4-4.004h5e-3v-41.132c7.806 0 14.77 0.181 21.724-0.036 30.018-0.942 49.063-19.011 52.073-49.257 2.819-28.236-15.556-53.822-43.263-56.566m7.408 54.584c-0.621 8.445-5.977 14.779-13.613 15.959-1.762 0.272-3.579 0.239-5.37 0.249-6.061 0.023-12.127 4e-3 -18.676 4e-3v-36.291c8.879 0.447 17.659 0.142 26.17 1.53 7.753 1.268 12.158 9.504 11.489 18.549"/>
  <path d="m572.87 382.54c0-2.235-1.79-4.051-4.005-4.051-0.074 0-0.144 0.016-0.218 0.02 0 0 4e-3 -0.016 4e-3 -0.02h-22.714v0.01c-1.483 0.078-2.745 0.961-3.38 2.227-0.014-0.011-0.033-0.015-0.058-0.028l-37.82 56.601-37.968-56.812c-5e-3 0.011-0.02 0.017-0.032 0.021-0.688-1.204-1.972-2.018-3.445-2.018-0.063 0-0.113 0.016-0.176 0.016 5e-3 -6e-3 0-0.012 5e-3 -0.016h-22.478v0.01c-0.03-6e-3 -0.062-0.01-0.098-0.01-2.21 0-4.002 1.815-4.002 4.051 0 0.044 0.012 0.085 0.012 0.132l-0.012-8e-3v143.96c0 2.232 1.775 4.037 3.976 4.051-5e-3 8e-3 0 0.014 0 0.014l28.627 4e-3s-5e-3 -0.01-0.01-0.018v-0.033c0.124 0.01 0.244 0.033 0.368 0.033 2.206 0 3.986-1.796 4.001-4.021h5e-3v-71.768l19.923 31.083s5e-3 -6e-3 0.01-0.017c0.7 1.177 1.962 1.977 3.419 1.977 0.042 0 0.083-0.014 0.129-0.014 0 0 5e-3 0.011 5e-3 0.014h15.38v-0.014c0.071-6e-3 0.14 0.014 0.217 0.014 1.443 0 2.704-0.786 3.403-1.95 0.013 5e-3 0.024 5e-3 0.034 0.011l19.934-31.104v71.697l4e-3 -6e-3 -4e-3 0.047c0 2.169 1.685 3.93 3.802 4.031v0.037h28.903c0-0.014-6e-3 -0.027-6e-3 -0.041 0.087 4e-3 0.169 0.027 0.259 0.027 2.189 0 3.966-1.775 3.999-3.988h6e-3v-143.92c-0.01 7e-3 -0.016 0.01-0.02 0.01 2e-3 -0.079 0.021-0.154 0.021-0.239"/>
  <path d="m999.37 476.67c-0.662-1.332-2.023-2.252-3.608-2.252h-30.521c-1.393 0-2.617 0.699-3.344 1.769-0.021 0.029-0.035 0.063-0.052 0.094-7.443 12.24-20.836 20.451-36.214 20.451-23.46 0-42.479-19.02-42.479-42.477 0-23.465 19.019-42.483 42.479-42.483 15.634 0 29.243 8.486 36.604 21.07 0.03 0.046 0.063 0.098 0.089 0.15 0.732 1.06 1.95 1.756 3.338 1.756h30.292c2.238 0 4.045-1.813 4.045-4.045 0-0.237-0.029-0.471-0.072-0.699-0.063-0.39-0.194-0.753-0.363-1.09-10.528-30.75-39.613-52.878-73.932-52.878-43.191 0-78.209 35.02-78.209 78.219 0 43.2 35.018 78.219 78.209 78.219 34.061 0 62.982-21.793 73.716-52.179 0.174-0.336 0.313-0.693 0.385-1.083 0.041-0.245 0.073-0.494 0.073-0.745 0-0.247-0.032-0.479-0.073-0.707-0.116-0.364-0.236-0.727-0.363-1.09"/>
  <path d="m268.62 630.04v-7e-3h-9.705c-0.015 0-0.033-4e-3 -0.05-4e-3 -0.96 0-1.785 0.576-2.149 1.392l-5e-3 -4e-3c-5.409 12.438-17.863 21.145-32.368 21.145-19.471 0-35.251-15.678-35.251-35.024 0-19.338 15.781-35.021 35.251-35.021 14.501 0 26.959 8.706 32.364 21.142l9e-3 -4e-3c0.364 0.816 1.181 1.385 2.136 1.392v4e-3h9.654c1.29-0.015 2.335-1.055 2.335-2.34 0-0.325-0.067-0.635-0.188-0.914-6.583-19.125-24.83-32.877-46.311-32.877-27.028 0-48.941 21.767-48.941 48.619 0 26.856 21.913 48.625 48.941 48.625 21.481 0 39.728-13.753 46.311-32.874 0.121-0.282 0.188-0.594 0.188-0.916 0-1.248-0.984-2.266-2.221-2.334"/>
  <path d="m358.96 571.88c0-1.318-1.057-2.387-2.358-2.387-0.111 0-0.217 0.016-0.325 0.03-5e-3 -0.013-0.014-0.021-0.018-0.03h-8.339v1e-3c-1.224 0.034-2.204 1.009-2.282 2.232 0 0-0.011 4e-3 -0.017 0v38.059h-40.397v-37.813c-4e-3 0-6e-3 0-0.011 4e-3 5e-3 -0.033 0.011-0.063 0.011-0.096 0-1.295-1.019-2.339-2.285-2.381v-6e-3h-8.668 5e-3 -0.03c-1.249 0-2.263 0.984-2.346 2.227-2e-3 -3e-3 -8e-3 0-0.013 0v91.583c6e-3 2e-3 0.018 0.01 0.023 0.013 0.13 1.197 1.119 2.134 2.336 2.134 0.042 0 0.083-0.014 0.125-0.016l7e-3 0.016h8.435v-7e-3c0.017 0 0.035 7e-3 0.052 7e-3 1.252 0 2.265-0.993 2.347-2.238l0.013-4e-3v-39.112h40.397v39.262c0.01-2e-3 0.019 6e-3 0.019 6e-3 0.16 1.172 1.139 2.086 2.34 2.086 0.012 0 0.025-5e-3 0.039-7e-3v7e-3h8.365l1e-3 -0.022c0.072 7e-3 0.142 0.022 0.216 0.022 1.22 0 2.209-0.943 2.333-2.141 9e-3 0 0.018-6e-3 0.026-4e-3v-91.425z"/>
  <path d="m553.78 571.88c0-1.318-1.076-2.387-2.401-2.387-0.046 0-0.094 0.01-0.136 0.012l-4e-3 -6e-3v-6e-3h-8.754l-7e-3 6e-3c-0.043 4e-3 -0.085-6e-3 -0.129-6e-3 -1.324 0-2.396 1.063-2.401 2.375v65.658l-43.072-66.922h-5e-3c-0.429-0.666-1.174-1.111-2.028-1.111-0.056 0-0.11 0.012-0.164 0.016l-6e-3 -0.016h-9.941c-1.239 0-2.247 0.932-2.378 2.129-9e-3 -4e-3 -0.015 0-0.026 0v91.537s8e-3 1e-3 0.012 1e-3c0.055 1.271 1.1 2.289 2.389 2.289 0.02 0 0.036-7e-3 0.049-7e-3h8.917c0.026 0 0.044 7e-3 0.066 7e-3 1.259 0 2.283-0.976 2.383-2.205h0.019v-66.072l43.023 67.087h2e-3c0.402 0.682 1.134 1.151 1.979 1.177v7e-3h0.037c0.017 0 0.034 7e-3 0.048 7e-3 0.019 0 0.036-7e-3 0.052-7e-3h9.935v-7e-3c0.046 0 0.092 0.014 0.142 0.014 1.315 0 2.38-1.053 2.397-2.356h4e-3v-91.187l-4e-3 -3e-3z"/>
  <path d="m653.09 571.88c0-1.318-1.072-2.387-2.399-2.387-0.045 0-0.089 0.01-0.134 0.012l-2e-3 -0.011v-1e-3h-8.759l-4e-3 6e-3c-0.045 4e-3 -0.088-6e-3 -0.13-6e-3 -1.321 0-2.395 1.063-2.402 2.375v65.658l-43.072-66.922h-6e-3c-0.428-0.666-1.175-1.111-2.027-1.111-0.057 0-0.107 0.012-0.164 0.016l-6e-3 -0.016h-9.944c-1.233 0-2.242 0.932-2.372 2.129h-0.028v91.537s7e-3 1e-3 0.011 1e-3c0.057 1.271 1.098 2.289 2.39 2.289 0.021 0 0.031-7e-3 0.049-7e-3h8.921c0.022 0 0.04 7e-3 0.061 7e-3 1.262 0 2.286-0.976 2.384-2.205h0.021v-66.072l43.021 67.087h4e-3c0.399 0.682 1.133 1.151 1.976 1.177v7e-3h0.039c0.021 0 0.034 7e-3 0.053 7e-3 0.012 0 0.03-7e-3 0.046-7e-3h9.935v-9e-3c0.046 2e-3 0.093 0.016 0.144 0.016 1.315 0 2.378-1.053 2.397-2.356h5e-3v-91.213h-8e-3z"/>
  <path d="m463.41 662.42c6e-3 0 0.013-5e-3 0.017-7e-3l-0.087-0.219c-0.013-0.032-0.021-0.066-0.036-0.098l-35.41-91.067c-0.341-0.898-1.193-1.535-2.197-1.535 0 0-6e-3 1e-3 -0.01 1e-3l-2e-3 -1e-3h-8.264v1e-3c-0.997 0.029-1.836 0.68-2.155 1.583h-6e-3l-35.385 91.019c-0.017 0.031-0.027 0.065-0.041 0.102l-0.082 0.205c8e-3 2e-3 0.011 6e-3 0.011 6e-3 -0.053 0.212-0.095 0.425-0.095 0.653 0 1.316 1.057 2.388 2.359 2.388 9e-3 0 0.023-5e-3 0.033-5e-3v5e-3h8.982l-1e-3 -5e-3c0.029-4e-3 0.057 5e-3 0.087 5e-3 1.084 0 1.983-0.741 2.265-1.745l8.657-22.271h39.077l8.658 22.271c0.279 1.004 1.181 1.745 2.262 1.745 0 0 0.02-5e-3 0.034-5e-3v5e-3h8.982l6e-3 -9e-3c0.025 4e-3 0.05 9e-3 0.079 9e-3 1.303 0 2.359-1.071 2.359-2.388 0-0.227-0.038-0.438-0.097-0.643m-56.082-34.556 14.259-36.681 14.262 36.681z"/>
  <path d="m735.18 582.61c4e-3 -2e-3 6e-3 0 6e-3 0 1.198 0 2.168-0.934 2.256-2.121 4e-3 0 0.01-6e-3 0.018-6e-3v-8.585l-8e-3 -4e-3c-4e-3 -0.032 8e-3 -0.068 8e-3 -0.104 0-1.268-1.017-2.292-2.264-2.292h-53.385v5e-3c-1.232 0.029-2.215 1.037-2.215 2.287 0 0.045 8e-3 0.084 0.012 0.127-6e-3 -3e-3 -0.012-3e-3 -0.012-3e-3v91.363s6e-3 4e-3 0.012 6e-3c0.06 1.204 1.038 2.165 2.24 2.17h53.408v-5e-3c1.221-0.038 2.203-1.042 2.203-2.29l-6e-3 -0.022 6e-3 -3e-3v-9.717c-8e-3 -1.264-1.021-2.282-2.264-2.284h-41.559v-27.762h40.456s4e-3 -3e-3 6e-3 -7e-3c0.021 0 0.041 7e-3 0.062 7e-3 1.249 0 2.26-1.021 2.266-2.282h2e-3v-8.466l-8e-3 3e-3c0-0.025 8e-3 -0.049 8e-3 -0.074 0-1.267-1.015-2.294-2.268-2.294l-8e-3 3e-3v-3e-3h-40.516v-27.647z"/>
  <path d="m824.41 653.37c0-1.236-1.013-2.241-2.261-2.241-0.013 0-0.024 2e-3 -0.024 2e-3l-0.011-2e-3h-42.514v-79.356h-3e-3s3e-3 -0.021 3e-3 -0.038c0-1.236-1.011-2.24-2.263-2.24-0.017 0-0.035 1e-3 -0.052 6e-3v-6e-3h-9.82l-3e-3 1e-3c-1.172 0.023-2.115 0.924-2.206 2.067 0 0-0.012 1e-3 -0.018 1e-3v91.799c6e-3 0 0.015 2e-3 0.015 2e-3 0.087 1.152 1.033 2.063 2.213 2.081v5e-3h54.469l8e-3 -0.022c0.068 9e-3 0.134 0.022 0.206 0.022 1.221 0 2.209-0.958 2.254-2.159h7e-3v-9.761h-9e-3c0-0.054 9e-3 -0.107 9e-3 -0.161"/>
 </g>
</svg>
