<svg width="800" height="335.61" enable-background="new -199 259 185.7 78" version="1.1" viewBox="-199 259 800 335.61" xml:space="preserve" xmlns="http://www.w3.org/2000/svg">
<g transform="matrix(4.3084 0 0 4.3084 658.3 -857.11)"><path d="m-55.7 301.7v-17.3l-7.5 19.2c-0.3 0.9-1.3 1.3-2.2 1-0.4-0.2-0.8-0.5-1-1l-7.5-19.2v17.3c0 1.6-1.3 3-2.9 3-1.7 0-3-1.3-3-3v-20.6c0-2.7 2.2-4.8 4.8-4.8 2 0 3.8 1.2 4.5 3.1l5.6 14.5 5.7-14.5c0.7-1.9 2.5-3.1 4.5-3.1 2.7 0 4.9 2.1 4.9 4.8v20.6c0 1.7-1.3 3-3 3s-3-1.4-2.9-3"/><path d="m-28.7 303.1-12.3-17.4v16c0 1.6-1.3 3-2.9 3-1.7 0-3-1.3-3-3v-21.5c0-2.1 1.8-3.9 3.9-3.8 1.2 0 2.3 0.6 3.1 1.6l11.9 16.7v-15.3c-0.3-1.6 0.8-3.2 2.4-3.5s3.2 0.8 3.5 2.4c0.1 0.3 0.1 0.7 0 1v21.7c0 2-1.6 3.6-3.6 3.6-1.2 0-2.4-0.5-3-1.5"/><path d="m-19.2 301.7v-22.4c0-1.7 1.3-3 3-3 1.6 0 2.9 1.3 2.9 2.9v22.5c0 1.6-1.3 3-2.9 3-1.7 0-3-1.4-3-3"/><path d="m-96.8 281.9c-1.4 0-2.8 0.3-4 1-2 1.1-3.5 2.9-4.1 5-1.4 4.5 1.2 9.2 5.7 10.6s9.2-1.2 10.6-5.7-1.2-9.2-5.7-10.6c-0.8-0.3-1.7-0.4-2.5-0.3m0 23c-1.4 0-2.9-0.2-4.2-0.6-7.7-2.3-12.1-10.5-9.7-18.2 2.3-7.7 10.5-12.1 18.2-9.7s12.1 10.5 9.7 18.2c-1.9 6.1-7.6 10.4-14 10.3"/><path d="m-107.6 310.9h-3.3c-0.3 0-0.6-0.3-0.6-0.6s0.3-0.6 0.6-0.6h7.9c0.3 0 0.6 0.3 0.6 0.6s-0.3 0.6-0.6 0.6h-3.3v9.6c0 0.4-0.2 0.7-0.6 0.7s-0.7-0.2-0.7-0.6v-0.2z"/><path d="m-100.1 320.4v-10c0-0.4 0.3-0.6 0.6-0.6h7c0.3 0 0.6 0.3 0.5 0.7 0 0.3-0.2 0.5-0.5 0.5h-6.4v3.9h5.7c0.3 0 0.6 0.3 0.6 0.6s-0.2 0.6-0.6 0.6h-5.7v4h6.5c0.3 0 0.6 0.2 0.6 0.6 0 0.3-0.3 0.6-0.6 0.6h-7.1c-0.3-0.2-0.6-0.5-0.6-0.9"/><path d="m-89.3 310.3c0-0.4 0.3-0.6 0.6-0.6s0.6 0.3 0.6 0.6v9.6h5.9c0.3 0 0.6 0.3 0.6 0.6s-0.3 0.6-0.6 0.6h-6.5c-0.4 0-0.6-0.3-0.6-0.6z"/><path d="m-79.2 320.4v-10c0-0.4 0.3-0.6 0.6-0.6h7c0.3 0 0.6 0.3 0.5 0.7 0 0.3-0.2 0.5-0.5 0.5h-6.4v3.9h5.7c0.3 0 0.6 0.3 0.6 0.6s-0.2 0.6-0.6 0.6h-5.7v4h6.5c0.3 0 0.6 0.2 0.6 0.6 0 0.3-0.3 0.6-0.6 0.6h-7.1c-0.4-0.2-0.7-0.5-0.6-0.9-0.1 0.1-0.1 0.1 0 0"/><path d="m-64.8 320.7-4.4-10.1c0-0.1-0.1-0.2-0.1-0.3 0-0.3 0.3-0.6 0.6-0.6s0.6 0.2 0.7 0.5l3.9 9.4 3.9-9.4c0.1-0.3 0.4-0.4 0.6-0.5 0.3 0 0.6 0.3 0.6 0.6v0.3l-4.4 10.1c-0.1 0.3-0.4 0.5-0.8 0.5h0.2c-0.3 0-0.6-0.2-0.8-0.5"/><path d="m-56.3 310.3c0-0.4 0.3-0.6 0.6-0.6 0.4 0 0.6 0.3 0.6 0.6v10.2c0 0.4-0.3 0.6-0.6 0.7-0.4 0-0.6-0.3-0.6-0.6z"/><path d="m-52.1 319.7c-0.2-0.1-0.3-0.3-0.2-0.5 0-0.3 0.3-0.6 0.6-0.6 0.1 0 0.3 0 0.4 0.1 1 0.9 2.3 1.4 3.6 1.3 1.5 0 2.5-0.8 2.5-1.9 0-1-0.6-1.6-2.9-2.1-2.6-0.6-3.8-1.4-3.8-3.3 0-1.8 1.6-3.1 3.7-3.1 1.3 0 2.6 0.4 3.6 1.1 0.2 0.1 0.3 0.3 0.3 0.5 0 0.3-0.3 0.6-0.6 0.6-0.1 0-0.3 0-0.4-0.1-0.8-0.7-1.9-1-2.9-1-1.5 0-2.4 0.8-2.4 1.8 0 1.1 0.6 1.7 3.1 2.2s3.7 1.5 3.7 3.2c0 1.9-1.6 3.2-3.9 3.2-1.7 0.1-3.2-0.4-4.4-1.4"/><path d="m-41.2 310.3c0-0.4 0.3-0.6 0.6-0.6 0.4 0 0.6 0.3 0.6 0.6v10.2c0 0.4-0.3 0.6-0.6 0.6-0.4 0-0.6-0.3-0.6-0.6z"/><path d="m-26.9 315.4c0.1-2.5-1.8-4.6-4.3-4.7h-0.1c-2.5 0-4.4 2-4.4 4.5v0.2c-0.1 2.5 1.8 4.6 4.3 4.7h0.1c2.5 0 4.4-2 4.4-4.5v-0.2m-10.2 0c0-3.2 2.6-5.8 5.8-5.8s5.8 2.6 5.8 5.8-2.6 5.8-5.8 5.8-5.8-2.6-5.8-5.8"/><path d="m-22.9 310.3c0-0.3 0.3-0.6 0.6-0.6h0.2c0.3 0 0.5 0.2 0.6 0.4l6.9 8.8v-8.5c0-0.3 0.3-0.6 0.6-0.6s0.6 0.3 0.6 0.6v10.2c0 0.3-0.2 0.6-0.5 0.6h-0.1c-0.3 0-0.5-0.2-0.7-0.4l-7-9v8.8c0 0.3-0.2 0.7-0.5 0.7s-0.7-0.2-0.7-0.5v-0.2z"/></g>
<g transform="matrix(4.3084 0 0 4.3084 658.3 -857.11)"><path d="m-158.6 259.4c-10-1.5-20.1 1.9-27 9.2 0 0.1-0.1 0.1-0.1 0.2 0 0.2 0.1 0.3 0.3 0.3h0.1c13.5-10 32.6-7.1 42.6 6.4 4.8 6.5 6.8 14.7 5.6 22.8-0.6 3.9-2 7.7-4.1 11.1 0 0.1-0.1 0.1-0.1 0.2 0 0.2 0.1 0.3 0.3 0.3 0.1 0 0.2 0 0.2-0.1 11.2-12.5 10.2-31.7-2.3-42.9-4.2-4-9.6-6.6-15.5-7.5" fill="#096ac7"/><path d="m-192.2 278.4c-6.3 7.9-8.4 18.3-5.5 28 0 0.1 0.1 0.1 0.1 0.1 0.1 0.1 0.3 0 0.4-0.1v-0.1c-1.9-16.7 10.1-31.8 26.8-33.7 8.1-0.9 16.3 1.4 22.6 6.6 3.1 2.5 5.7 5.6 7.6 9.1 0 0.1 0.1 0.1 0.1 0.1 0.1 0.1 0.3 0 0.4-0.1v-0.2c-5.2-16-22.3-24.7-38.3-19.5-5.6 1.7-10.5 5.1-14.2 9.8" fill="#f9673d"/><path d="m-192.6 317c3.7 9.4 11.7 16.4 21.5 18.8h0.2c0.1-0.1 0.2-0.3 0.1-0.4l-0.1-0.1c-15.5-6.6-22.6-24.6-16-40 4.9-11.5 16.3-18.8 28.8-18.4h0.2c0.1-0.1 0.2-0.3 0.1-0.4 0-0.1-0.1-0.1-0.2-0.1-16.4-3.5-32.6 7-36 23.4-1.2 5.7-0.8 11.7 1.4 17.2" fill="#c63638"/><path d="m-159.4 336.6c10 1.5 20.1-1.9 27-9.2 0 0 0.1-0.1 0.1-0.2 0-0.2-0.1-0.3-0.3-0.3h-0.1c-13.6 10-32.7 7.1-42.6-6.4-4.8-6.5-6.8-14.7-5.6-22.7 0.6-3.9 2-7.7 4.1-11.1 0-0.1 0.1-0.1 0.1-0.2 0-0.2-0.1-0.3-0.3-0.3-0.1 0-0.1 0-0.2 0.1-11.2 12.5-10.2 31.7 2.3 42.9 4.3 3.9 9.7 6.5 15.5 7.4" fill="#cbc843"/><path d="m-125.7 317.6c6.3-7.9 8.4-18.3 5.5-28 0-0.1-0.1-0.1-0.1-0.1-0.1-0.1-0.3 0-0.4 0.1v0.1c1.9 16.7-10.1 31.8-26.8 33.8-8.1 0.9-16.3-1.4-22.7-6.6-3.1-2.5-5.7-5.6-7.6-9.1 0-0.1-0.1-0.1-0.1-0.1-0.1-0.1-0.3 0-0.4 0.1v0.2c5.2 16 22.3 24.7 38.3 19.5 5.6-1.8 10.6-5.2 14.3-9.9" fill="#3e9539"/><path d="m-125.3 279c-3.7-9.4-11.7-16.4-21.5-18.8h-0.2c-0.1 0.1-0.2 0.3-0.1 0.4l0.1 0.1c15.4 6.7 22.5 24.7 15.8 40.1-3.3 7.5-9.4 13.4-17 16.3-3.7 1.4-7.7 2.1-11.7 2h-0.2c-0.1 0.1-0.2 0.3-0.1 0.4 0 0.1 0.1 0.1 0.2 0.1 16.4 3.5 32.6-7 36-23.4 1.3-5.7 0.8-11.7-1.3-17.2" fill="#44cbfa"/></g>
</svg>
