<svg width="351.55" height="150.47" version="1.1" viewBox="0 0 329.58 141.06" xmlns="http://www.w3.org/2000/svg" xmlns:xlink="http://www.w3.org/1999/xlink">
 <defs>
  <linearGradient id="linearGradient4778" x1="725.73" x2="748.58" y1="126.66" y2="126.66" gradientUnits="userSpaceOnUse">
   <stop stop-color="#9a771b" offset="0"/>
   <stop stop-color="#e7bd60" offset=".32577"/>
   <stop stop-color="#f9ce70" offset=".50947"/>
   <stop stop-color="#dfb659" offset=".73022"/>
   <stop stop-color="#9a771b" offset="1"/>
  </linearGradient>
 </defs>
 <g transform="translate(-221.69 -110.78)">
  <g transform="matrix(14.419 0 0 -14.419 -10238 2291.1)">
   <g transform="translate(-.34818 19.658)" fill="url(#linearGradient4778)">
    <path d="m728.58 122.32c0-0.222-7e-3 -0.302-0.076-0.373-0.051-0.05-0.115-0.075-0.188-0.075s-0.138 0.025-0.188 0.075c-0.069 0.071-0.076 0.151-0.076 0.373 0 0.223 7e-3 0.302 0.076 0.373 0.05 0.05 0.115 0.076 0.188 0.076s0.137-0.026 0.188-0.076c0.069-0.071 0.076-0.15 0.076-0.373m0.116 0c0 0.249-7e-3 0.344-0.11 0.446-0.067 0.067-0.157 0.107-0.27 0.107s-0.204-0.04-0.272-0.107c-0.102-0.102-0.108-0.197-0.108-0.446s6e-3 -0.344 0.108-0.445c0.068-0.068 0.159-0.108 0.272-0.108s0.203 0.04 0.27 0.108c0.103 0.101 0.11 0.196 0.11 0.445"/>
    <path d="m729.53 122.54c0-0.143-0.093-0.216-0.229-0.216h-0.279v0.431h0.279c0.136 0 0.229-0.071 0.229-0.215m0.116 0c0 0.193-0.139 0.319-0.336 0.319h-0.404v-1.087h0.116v0.447h0.288c0.197 0 0.336 0.127 0.336 0.321"/>
    <path d="m730.46 122.56c0-0.133-0.089-0.199-0.216-0.199h-0.29v0.399h0.29c0.127 0 0.216-0.067 0.216-0.2m0.138-0.784-0.258 0.494c0.14 0.029 0.236 0.132 0.236 0.291 0 0.188-0.133 0.302-0.322 0.302h-0.416v-1.087h0.116v0.483h0.26l0.248-0.483z"/>
    <path d="m731.38 122.12h-0.406l0.204 0.574zm0.244-0.347-0.398 1.087h-0.098l-0.4-1.087h0.123l0.088 0.246h0.474l0.088-0.246z"/>
    <path d="m732.58 121.78v1.087h-0.116v-0.486h-0.516v0.486h-0.116v-1.087h0.116v0.496h0.516v-0.496z"/>
    <path d="m734.7 122.86h-0.123l-0.213-0.877-0.239 0.877h-0.104l-0.24-0.877-0.212 0.877h-0.124l0.278-1.087h0.108l0.241 0.87 0.241-0.87h0.109z"/>
    <path d="m734.88 121.78h0.116v1.087h-0.116z"/>
    <path d="m736.06 121.78v1.087h-0.115v-0.868l-0.578 0.868h-0.11v-1.087h0.116v0.872l0.577-0.872z"/>
    <path d="m736.98 122.76v0.104h-0.675v-1.087h0.116v0.479h0.477v0.104h-0.477v0.4z"/>
    <path d="m737.82 122.56c0-0.133-0.09-0.199-0.217-0.199h-0.29v0.399h0.29c0.127 0 0.217-0.067 0.217-0.2m0.136-0.784-0.257 0.494c0.141 0.029 0.236 0.132 0.236 0.291 0 0.188-0.132 0.302-0.321 0.302h-0.418v-1.087h0.117v0.483h0.261l0.247-0.483z"/>
    <path d="m738.84 121.78v0.104h-0.558v0.392h0.476v0.105h-0.476v0.382h0.558v0.104h-0.675v-1.087z"/>
    <path d="m739.73 122.86h-0.126l-0.254-0.52-0.256 0.52h-0.126l0.325-0.638v-0.449h0.116v0.449z"/>
    <path d="m741.23 121.78v1.087h-0.117v-0.868l-0.576 0.868h-0.11v-1.087h0.116v0.872l0.577-0.872z"/>
    <path d="m742.13 121.78v0.104h-0.559v0.392h0.476v0.105h-0.476v0.382h0.559v0.104h-0.675v-1.087z"/>
    <path d="m743.01 122.76v0.104h-0.745v-0.104h0.314v-0.983h0.116v0.983z"/>
    <path d="m744.36 122.86h-0.123l-0.212-0.877-0.239 0.877h-0.105l-0.24-0.877-0.212 0.877h-0.124l0.279-1.087h0.108l0.241 0.87 0.242-0.87h0.108z"/>
    <path d="m745.13 122.32c0-0.222-8e-3 -0.302-0.077-0.373-0.049-0.05-0.114-0.075-0.187-0.075s-0.137 0.025-0.188 0.075c-0.068 0.071-0.076 0.151-0.076 0.373 0 0.223 8e-3 0.302 0.076 0.373 0.051 0.05 0.115 0.076 0.188 0.076s0.138-0.026 0.187-0.076c0.069-0.071 0.077-0.15 0.077-0.373m0.116 0c0 0.249-7e-3 0.344-0.11 0.446-0.067 0.067-0.157 0.107-0.27 0.107s-0.205-0.04-0.273-0.107c-0.101-0.102-0.107-0.197-0.107-0.446s6e-3 -0.344 0.107-0.445c0.068-0.068 0.16-0.108 0.273-0.108s0.203 0.04 0.27 0.108c0.103 0.101 0.11 0.196 0.11 0.445"/>
    <path d="m746.08 122.56c0-0.133-0.09-0.199-0.216-0.199h-0.291v0.399h0.291c0.126 0 0.216-0.067 0.216-0.2m0.138-0.784-0.259 0.494c0.141 0.029 0.237 0.132 0.237 0.291 0 0.188-0.133 0.302-0.322 0.302h-0.416v-1.087h0.115v0.483h0.262l0.248-0.483z"/>
    <path d="m747.21 121.78-0.391 0.667 0.342 0.42h-0.143l-0.505-0.624v0.624h-0.117v-1.087h0.117v0.304l0.228 0.275 0.332-0.579z"/>
    <path d="m743.58 131.39 3.9e-4 -5.1e-4h-0.51276l-1.3e-4 -1.3e-4 -0.65436-3.8e-4s-6e-3 -0.57706-6e-3 -0.78706l2e-3 -6.3189 0.65207 3.9e-4c3.9e-4 0 7.5e-4 -1.3e-4 1e-3 -1.3e-4v2.6e-4l0.43416-1e-3s0.29702 0.0499 0.29702 0.57093v3.9247c2e-3 -3e-3 3.0268-4.0234 3.2068-4.2563 0.182-0.232 0.53994-0.24 0.53994-0.24l2.6e-4 -3.9e-4 1.042 1e-3 -1e-3 7.107h-0.70502v-3.8e-4h-0.33855l-5.2e-4 1.2e-4s-0.32889-0.17802-0.32889-0.50502c0-0.32717-3e-3 -3.629-3e-3 -3.6458-0.66943 0.86804-2.3159 2.9946-2.9325 3.8196-0.22263 0.29749-0.67495 0.3305-0.68851 0.33143h-3.9e-4z"/>
    <path d="m729.52 131.55c-2.095 0-3.7939-1.6739-3.7939-3.7379 0-2.065 1.6989-3.7391 3.7939-3.7391s3.7941 1.6741 3.7941 3.7391c0 1.771-1.251 3.2529-2.928 3.6389-2e-3 1e-3 -4e-3 1e-3 -6e-3 1e-3 -0.037 9e-3 -0.074 0.018-0.11098 0.025-0.23 0.048-0.46606 0.073-0.70706 0.073h-0.022zm-1e-3 -1.0137c0.446 0 0.82302-0.15595 1.129-0.46795 0.196-0.202 0.32504-0.45604 0.38604-0.76204 0.049-0.264 0.074-0.75398 0.074-1.47 0-0.717-0.025-1.207-0.074-1.47-0.061-0.306-0.19004-0.56004-0.38604-0.76204-0.306-0.312-0.68302-0.46896-1.129-0.46896-0.448 0-0.82394 0.15696-1.1309 0.46896-0.195 0.202-0.32402 0.45604-0.38502 0.76204-0.05 0.263-0.073 0.75298-0.073 1.47 0 0.716 0.023 1.206 0.073 1.47 0.061 0.306 0.19002 0.56004 0.38502 0.76204 0.307 0.312 0.68294 0.46795 1.1309 0.46795z"/>
    <path d="m740.82 131.39s-0.33691-0.12499-0.48191-0.64699l-1.0942-3.9154-0.0218 0.0773-1e-3 -3e-3 -1.0349 3.717c-6e-3 0.02-0.011 0.0389-0.015 0.0589l-0.1981 0.71201h-1.114l-0.68508-2.453-0.56788-2.0349v0.00413l-1.105 3.952c-0.113 0.474-0.47708 0.53195-0.47708 0.53195v-1.3e-4h-1.1617s0.11295-0.45599 0.20495-0.76699c0.019-0.064 0.0371-0.12994 0.0521-0.19594l1.492-5.575 0.15302-0.56801h0.76471l1.3e-4 2.6e-4h0.64103l1.244 4.395 1.303-4.395h0.31506l0.13562-1e-3 0.53728-2.6e-4 1.3e-4 5.2e-4 0.36178-1e-3 1.9 7.108z"/>
   </g>
  </g>
 </g>
</svg>
