<svg width="639.13pt" height="276.02pt" version="1.1" viewBox="0 0 639.13 276.02" xmlns="http://www.w3.org/2000/svg">
 <g transform="translate(-80.747 -12.12)">
  <path d="m651.19 252.86h3.9811v15.414h20.356v-15.414h3.9797v34.694h-3.9797v-15.611h-20.356v15.612h-3.9811v-34.694" fill="#6db62f" stroke-width=".99361"/>
  <g transform="translate(645 244.7)">
   <path d="m44.16 8.1648h10.222c4.4909 0 8.9025 0.14419 12.748 2.6852 3.5121 2.1249 5.9303 5.6256 7.0459 9.5179 0.911 3.1783 0.95353 6.6176 0.01405 9.7821-1.35 5.1-5.36 9.32-10.23 11.25-3.0672 1.1659-6.2605 1.4583-9.4879 1.4583h-10.312v-34.694m4.025 3.1976v27.825h6.8858c3.9433 0 7.8284-0.64198 10.929-3.2774 6.95-5.53 6.16-17.92-1.66-22.3-2.845-1.8967-6.0922-2.2476-9.3919-2.2476z" fill="#6db62f"/>
  </g>
  <path d="m189.34 138.68 126.56-126.56 94.452 94.37-94.31-46.917-126.7 79.104" fill="#6db62f" stroke-width=".99361"/>
 </g>
 <g transform="translate(-80.747 -12.12)" fill="#fff" stroke-width=".99361">
  <path d="m322.74 178.98v-21.382h-11.197l9.9e-4 -19.145h-26.78l-9.9e-4 19.145h-9.797v21.382h9.797v32.734c0 10.775 10.755 21.487 21.51 21.487h16.465v-21.537h-6.2942c-2.7079 0-4.9018-2.1943-4.9018-4.9009l1e-3 -27.783h11.197"/>
  <path d="m391.39 270.3v-0.0994c0-9.814 7.4573-17.942 17.836-17.942 6.4001 0 10.229 2.23 13.756 5.5005l-2.7198 2.8763c-2.9729-2.7769-6.2982-4.7585-11.086-4.7585-7.8098 0-13.655 6.2447-13.655 14.224v0.0994c0 8.0285 5.8954 14.324 13.655 14.324 4.8382 0 8.0137-1.8351 11.388-5.0063l2.6204 2.5274c-3.679 3.6696-7.7091 6.0983-14.109 6.0983-10.178 0-17.685-7.8811-17.685-17.844"/>
  <path d="m429.61 252.86h3.9811v15.414h20.356v-15.414h3.9797v34.694h-3.9797v-15.612h-20.356v15.612h-3.9811v-34.694"/>
  <path d="m490.24 274.86-8.0124-17.694-8.0614 17.694zm-9.8261-22.254h3.7293l16.073 34.942h-4.2818l-4.1334-9.1702h-19.196l-4.1824 9.1702h-4.0817l16.074-34.942"/>
  <path d="m506.65 252.86h3.728l22.221 27.803v-27.803h3.879v34.694h-3.1743l-22.774-28.45v28.45h-3.879v-34.694"/>
  <path d="m545.92 252.86h3.728l22.221 27.803v-27.803h3.879v34.694h-3.1743l-22.774-28.45v28.45h-3.879v-34.694"/>
  <path d="m585.2 252.86h25.495v3.5678h-21.515v11.846h19.249v3.5691h-19.249v12.143h21.767v3.5676h-25.746v-34.694"/>
  <path d="m618.43 252.86h3.9811v31.074h19.851v3.6194h-23.832v-34.694"/>
  <path d="m471.8 195.74v-0.28258c3e-3 -9.2204-6.7632-17.046-16.207-17.046-9.7241 0-15.926 7.6864-15.927 16.769v0.27687c0 9.225 6.7645 17.051 16.208 17.051 9.7241 0 15.926-7.6865 15.926-16.769m-58.208 0v-0.28258c3e-3 -21.52 17.763-39.547 42.284-39.547 24.383 0 42.001 17.749 41.999 39.269v0.27688c0 21.526-17.759 39.552-42.283 39.552-24.383 0-42.001-17.75-42.001-39.269"/>
  <path d="m559.17 195.74v-0.28258c1e-3 -9.2204-6.7632-17.046-16.207-17.046-9.7241 0-15.927 7.6864-15.927 16.769v0.27687c0 9.225 6.7645 17.051 16.208 17.051 9.7227 0 15.926-7.6865 15.926-16.769m-58.208 0v-0.28258c3e-3 -21.52 17.762-39.547 42.284-39.547 24.383 0 42.001 17.749 41.999 39.269v0.27688c0 21.526-17.759 39.552-42.283 39.552-24.383 0-42.001-17.75-42.001-39.269"/>
  <path d="m641.76 156.49c-8.8166 0-17.13 3.2661-23.627 9.5402v-8.4416l-31.759 9.9e-4v20.995h4.9812l-1e-3 33.614h-4.98v20.995h36.788v-20.995h-5.0316v-7.1497h9.9e-4v-0.35664c0-13.622 11.231-20.363 24.102-20.406v-27.796h-0.4756"/>
  <path d="m366.59 212.65c-8.5967 0-15.644-7.1276-15.644-17.189v-0.27794c3e-3 -10.062 7.0493-17.05 15.647-17.05 8.5264 0 15.378 7.0138 15.489 16.808v0.76694c-0.11261 9.9298-6.9659 16.943-15.492 16.943zm42.269-0.44924 3e-3 -81.021-31.745-9.9e-4v20.994h4.9667v11.384c-6.2438-4.8594-13.939-7.6425-22.062-7.6425-19.674 0-35.803 15.984-35.807 39v0.6371c0 23.016 16.128 39.459 35.803 39.459 8.1237 0 15.821-2.8084 22.065-7.7195v5.9047h31.812v-20.995h-5.0356"/>
  <path d="m159.02 184.71c0 13.693-9.3509 25.282-24.01 25.282-14.237 0-24.436-11.8-24.436-25.707v-0.41864c1e-3 -13.694 9.3513-25.282 24.012-25.282 14.237 0 24.437 11.798 24.434 25.702zm-24.039-51.146c-31.452 0-54.229 23.12-54.232 50.722v0.36008c0 27.602 22.596 50.367 53.868 50.367 31.454 0 54.23-23.12 54.23-50.727v-0.35559c2e-3 -27.603-22.595-50.366-53.866-50.366"/>
  <path d="m271.12 212.2 9.9e-4 -54.609h-12.872v-9.9e-4h-18.873v20.994h4.968l-1e-3 20.34-3e-3 9.9e-4v0.19621c0 7.1011-4.8726 12.133-10.942 12.133-6.0676 0-11.041-5.0317-11.041-12.133l-3e-3 -41.53h-12.87v-1e-3h-18.873v20.994h4.9654l-5.2e-4 28.477c0 17.189 9.7254 27.948 25.933 27.948l0.75514-2e-3c8.129 0 15.831-2.9264 22.078-7.8164v6.0031h31.668v-20.994h-4.8912"/>
 </g>
</svg>
