<svg width="565.12" height="277.81" version="1.1" viewBox="0 0 565.12 277.81" xml:space="preserve" xmlns="http://www.w3.org/2000/svg"><path d="m109.29 127.38 127.37-127.37 95.06 94.977-94.917-47.219-127.52 79.613" fill="#6db62f"/><g fill="#fff"><path d="m243.55 167.94v-21.52h-11.269l1e-3 -19.268h-26.952l-1e-3 19.268h-9.86v21.52h9.86v32.945c0 10.844 10.824 21.625 21.648 21.625h16.571v-21.676h-6.3347c-2.7253 0-4.9333-2.2084-4.9333-4.9324l1e-3 -27.962h11.269"/><path d="m312.64 259.85v-0.1c0-9.8772 7.5053-18.057 17.951-18.057 6.4413 0 10.295 2.2443 13.844 5.5359l-2.7373 2.8948c-2.992-2.7948-6.3387-4.7891-11.157-4.7891-7.86 0-13.743 6.2849-13.743 14.316v0.1c0 8.0802 5.9333 14.416 13.743 14.416 4.8693 0 8.0653-1.8469 11.461-5.0385l2.6373 2.5437c-3.7027 3.6932-7.7587 6.1375-14.2 6.1375-10.243 0-17.799-7.9318-17.799-17.959"/><path d="m351.11 242.3h4.0067v15.513h20.487v-15.513h4.0053v34.917h-4.0053v-15.712h-20.487v15.712h-4.0067v-34.917"/><path d="m412.13 264.44-8.064-17.808-8.1133 17.808zm-9.8893-22.397h3.7533l16.176 35.167h-4.3093l-4.16-9.2292h-19.32l-4.2093 9.2292h-4.108l16.177-35.167"/><path d="m428.64 242.3h3.752l22.364 27.982v-27.982h3.904v34.917h-3.1947l-22.921-28.633v28.633h-3.904v-34.917"/><path d="m468.17 242.3h3.752l22.364 27.982v-27.982h3.904v34.917h-3.1947l-22.921-28.633v28.633h-3.904v-34.917"/><path d="m507.7 242.3h25.659v3.5907h-21.653v11.922h19.373v3.5921h-19.373v12.221h21.907v3.5906h-25.912v-34.917"/><path d="m541.14 242.3h4.0067v31.274h19.979v3.6427h-23.985v-34.917"/><path d="m393.57 184.81v-0.2844c3e-3 -9.2797-6.8067-17.156-16.311-17.156-9.7867 0-16.028 7.7359-16.029 16.877v0.27866c0 9.2844 6.808 17.161 16.312 17.161 9.7867 0 16.028-7.736 16.028-16.877m-58.583 0v-0.2844c3e-3 -21.658 17.877-39.801 42.556-39.801 24.54 0 42.271 17.863 42.269 39.522v0.27866c0 21.664-17.873 39.807-42.555 39.807-24.54 0-42.271-17.864-42.271-39.522"/><path d="m481.5 184.81v-0.2844c1e-3 -9.2797-6.8067-17.156-16.311-17.156-9.7867 0-16.029 7.7359-16.029 16.877v0.27866c0 9.2844 6.808 17.161 16.312 17.161 9.7853 0 16.028-7.736 16.028-16.877m-58.583 0v-0.2844c3e-3 -21.658 17.876-39.801 42.556-39.801 24.54 0 42.271 17.863 42.269 39.522v0.27866c0 21.664-17.873 39.807-42.555 39.807-24.54 0-42.271-17.864-42.271-39.522"/><path d="m564.62 145.31c-8.8733 0-17.24 3.2871-23.779 9.6016v-8.4959l-31.963 1e-3v21.13h5.0133l-1e-3 33.83h-5.012v21.13h37.025v-21.13h-5.064v-7.1957h1e-3v-0.35894c0-13.71 11.303-20.494 24.257-20.537v-27.975h-0.47866"/><path d="m287.68 201.83c-8.652 0-15.745-7.1735-15.745-17.3v-0.27973c3e-3 -10.127 7.0947-17.16 15.748-17.16 8.5813 0 15.477 7.0589 15.589 16.916v0.77187c-0.11334 9.9937-7.0107 17.052-15.592 17.052zm42.541-0.45213 3e-3 -81.542-31.949-1e-3v21.129h4.9987v11.457c-6.284-4.8907-14.029-7.6917-22.204-7.6917-19.801 0-36.033 16.087-36.037 39.251v0.6412c0 23.164 16.232 39.713 36.033 39.713 8.176 0 15.923-2.8265 22.207-7.7692v5.9427h32.017v-21.13h-5.068"/><path d="m78.775 173.71c0 13.781-9.4111 25.445-24.164 25.445-14.329 0-24.593-11.876-24.593-25.872v-0.42133c0.0015-13.782 9.4115-25.445 24.166-25.445 14.329 0 24.594 11.874 24.591 25.867zm-24.194-51.475c-31.654 0-54.578 23.269-54.581 51.048v0.3624c0 27.78 22.741 50.691 54.215 50.691 31.656 0 54.579-23.269 54.579-51.053v-0.35787c2e-3 -27.781-22.74-50.69-54.213-50.69"/><path d="m191.6 201.38 1e-3 -54.96h-12.955v-1e-3h-18.994v21.129h5l-1e-3 20.471-3e-3 1e-3v0.19747c0 7.1468-4.904 12.211-11.012 12.211-6.1067 0-11.112-5.0641-11.112-12.211l-3e-3 -41.797h-12.953v-1e-3h-18.994v21.129h4.9973l-5.3e-4 28.66c0 17.3 9.788 28.128 26.1 28.128l0.76-2e-3c8.1813 0 15.933-2.9452 22.22-7.8667v6.0417h31.872v-21.129h-4.9227"/></g></svg>
