<svg width="1066.7" height="851.56" version="1.1" viewBox="0 0 1e3 798.33" xmlns="http://www.w3.org/2000/svg">
 <g transform="matrix(3.3333 0 0 3.3333 0 -1.6667)" fill-rule="evenodd">
  <g fill="#e9dc01">
   <path d="m0 0.5v73.219h7.625v59.5h218.66v-59.5h6.5938v-73.219h-225.25z"/>
   <path d="m67.125 106.78v60.5h-7.125v72.719h231.88v-59.5h8.125v-73.719z"/>
  </g>
  <path d="m52.375 25.938c-16.091 0-21.344 9.8866-21.344 40.812 0 34.231 6.5495 40.781 21.344 40.781 14.623 0 21.703-4.3803 21.344-40.781-0.28536-28.891-3.4475-40.812-21.344-40.812zm0.125 11.281c5.4876 0 7.8521 5.2833 7.9179 8.625 0.27595 14.018 0.25398 27.936-0.17678 41.719-0.14934 4.7782-2.9606 8.625-7.7411 8.625s-7.5593-3.8479-7.7411-8.625c-0.51449-13.52-0.4266-27.493 0-41.719 0.06675-2.226 2.1028-8.625 7.7411-8.625z"/>
  <path d="m94.312 26.938 14.875 38.281-16.125 41.562h13.969l9.1562-23.562 9.1562 23.562h13.969l-16.125-41.562 14.875-38.281h-14l-7.875 20.281-7.875-20.281z"/>
  <path d="m158 26.938 16 48.562v31.281h12.031v-31.281l16.594-48.562h-13.969l-8.3125 27.375-8.3438-27.375z"/>
  <path d="m116.19 133.22c-15.195 0-22.219 9.8866-22.219 40.812 0 34.231 9.9371 40.946 22.219 40.781 13.406-0.17977 22.593-4.3803 22.219-40.781-0.0144-1.3947-0.0328-2.715-0.0625-4.0312h-21.844v10h7.6634c0.51534 8.1422 0.16376 9.4642 0 13.43-0.19725 4.7764-2.8725 10.039-7.851 10.039s-8.5991-5.5382-8.9688-10.304c-1.1956-15.416-0.65539-28.548 0-40.03 0.12691-2.2234 3.6363-8.6339 8.9688-8.6339 4.9774 0 9 5.2827 9 8.625v1.625h12.031c-2.002-15.024-7.3979-21.531-21.156-21.531z"/>
  <path d="m223 212.75h12v-47.188l17.875 47.188h12v-79.531h-12v47.844l-17.875-47.844h-12z"/>
  <path d="m163.69 133.22v79.562h32.688v-10.625h-20.656v-23.5h18.219v-11.312h-18.219v-23.5h20.688v-10.625z"/>
 </g>
</svg>
