<svg width="455.09pt" height="302.03pt" version="1.1" viewBox="0 0 455.09 302.03" xmlns="http://www.w3.org/2000/svg">
 <g transform="matrix(12.078 0 0 12.078 134.43 -1.1049)">
  <path d="m12.646 1.3044c-0.01053-0.00827-2.369-0.85707-5.7647-0.85707h-0.0012c-3.3957 0-5.754 0.8488-5.765 0.85707-0.55755 1.2575-1.566 8.5753 5.6723 14.452l0.093031 0.07211 5.655e-4 -4.24e-4 1.414e-4 4.24e-4 0.09296-0.07211c7.2381-5.8768 6.2299-13.195 5.672-14.452" fill="#00264c"/>
  <path d="m12.898 1.0039c0.58582 1.3381 1.6456 9.0342-5.9614 15.289l-0.097767 0.07606h-7.776e-4l-0.097626-0.07606c-7.6072-6.255-6.5476-13.951-5.9615-15.289 0.011523-0.008907 2.4899-0.91242 6.0589-0.91242h0.00156c3.5685 0 6.0467 0.90351 6.0586 0.91242zm-6.6452 1.9498s0.36371-0.021208 0.5912-0.021632c0.22777 4.242e-4 0.59106 0.021632 0.59106 0.021632l-0.59106-1.0846zm0.67157 12.789c0.74163-0.60272 1.3476-1.1776 1.9253-1.8026-0.59247 0.42521-1.2311 0.62379-2.0062 0.62379-0.75888 0-1.4827-0.24438-2.0464-0.62951 0.56525 0.60654 1.2205 1.2229 1.941 1.8083l0.092748 0.07196 2.827e-4 -7.07e-4 3.535e-4 7.07e-4zm-0.085961-11.04c0.68599 0.55797 2.045 1.557 2.6642 2.0255-0.9361-0.36039-1.6918-0.88471-2.3277-1.4309-0.10024-0.14831 0.91977 1.4361 2.912 2.5109-0.59975-1.1039-1.3333-2.4512-1.971-3.6131-0.050474-0.092041-0.10045-0.18337-0.14958-0.27287l-0.00657-0.011664-0.013432-7.069e-4h-2.121e-4c-0.38379-0.018097-0.95724-0.027641-1.1021-0.02962-0.14478 0.00198-0.71844 0.011523-1.1022 0.02962l-0.013573 7.069e-4 -0.00657 0.011664c-0.47393 0.86251-1.0142 1.8524-1.5187 2.7797 0.53174-0.41023 2.5765-1.9328 2.6354-1.9992zm-5.7605-3.3909c-0.45448 1.0257-1.2088 6.0895 2.4673 11.108-0.19815-0.45052-0.30878-0.94918-0.30878-1.4748 0-1.997 1.5889-3.6155 3.5488-3.6155 0.55924 0 1.0882 0.13198 1.5585 0.36689 0.15135 0.070056 0.29351 0.14937 0.42238 0.23661-0.00509-0.00269-0.00891-0.00431 0.0017 0.00106 0.011664 0.00629 0.00551 0.0024-4.948e-4 -4.242e-4 -0.97866-1.3036-2.828-2.1744-4.5741-1.2144-0.44925 0.82596-0.87022 1.6005-1.1896 2.1889-0.27655 0.50983-0.5029 0.92295-0.57119 1.047-0.25435-0.50835-0.44345-0.98905-0.47505-1.074l4.3763-8.0163c0.031316-0.00205 0.13325-0.002898 0.30383-0.002898l0.20649 2.8277e-4 0.20635-2.8277e-4c0.17079 0 0.27259 8.4831e-4 0.30412 0.002898 0.51697 0.90486 3.719 6.8117 4.2613 7.8142 0.0023 0.00332 0.0037 0.00693 0.0059 0.010321 0.03485 0.065249 0.05825 0.10837 0.0673 0.12569v7.07e-5l0.22664 0.41468c1.5682-3.8121 1.0259-7.1124 0.66857-7.9185-0.01068-0.00827-2.3642-0.85566-5.7524-0.85566h-0.00127c-3.3883 0-5.7415 0.84738-5.7526 0.85566zm0.46655 0.24218 0.035417-0.010392c1.5719-0.46148 3.0997-0.62619 4.1181-0.68274-0.25456 0.47017-0.56907 1.046-0.87389 1.6034-0.418 0.7646-0.78044 1.4273-0.86202 1.5879-1.0988 0.15241-1.9212 0.3864-1.9293 0.38902l-0.017461 0.00509v0.018239c0 0.00976 0.0087 1.2634 0.37905 2.6878-0.23053 0.43016-0.54341 1.0064-0.63524 1.1678-0.76114-2.4116-0.92119-4.9041-0.40245-6.7099 0.018521-0.00551 0.066026-0.020006 0.18783-0.0562zm0.47321 1.9044-0.00219 0.034568 0.033013-0.00933c0.43645-0.12456 1.2867-0.28475 1.2952-0.28637l0.01124-0.00212 0.00544-0.01018c0.073594-0.13545 0.13092-0.24198 0.18246-0.3377 0.13085-0.24297 0.22579-0.41843 0.45059-0.823l0.023682-0.04291-0.048 0.00665c-0.54567 0.075211-0.99626 0.15396-1.8147 0.356l-0.015128 0.00375-0.0029 0.015482c-0.054714 0.30652-0.083344 0.52658-0.11876 1.0952zm10.569 1.4485c-0.03528 0.45872-0.11841 1.5266-0.63276 3.219-0.09614-0.16627-0.44564-0.81246-0.9079-1.6671-0.80433-1.4886-2.0175-3.7323-3.0574-5.596 2.1235 0.12505 3.6215 0.51775 4.3341 0.7441 0.03019 0.092465 0.27436 0.90182 0.3027 2.1131-0.12399-0.037113-0.58363-0.17411-0.90931-0.26665-7e-5 -0.28517-0.03195-0.72212-0.10229-1.0745l-0.0029-0.014845-0.01484-0.00396c-0.76942-0.20091-1.2988-0.28277-1.8596-0.36958l-0.048848-0.00756 0.023965 0.043334c0.57048 1.0233 0.92119 1.6849 1.2029 2.2165 0.22268 0.41963 0.41475 0.78221 0.64768 1.1962l0.03591 0.063623 0.0093-0.072742c0.08186-0.65015 0.08943-0.87142 0.09225-0.95498 7e-5 -0.00657 7e-5 -0.012654 4.24e-4 -0.017532 0.26891 0.065743 0.59254 0.16591 0.90309 0.26333-0.0052 0.045243-0.0098 0.1059-0.0164 0.1862zm-7.86 8.0143h0.68182v-4.1718s-0.34088 0.050403-0.68182 0.34328zm4.7367-0.67368-2.3453-2.83e-4 2.1988-2.2334v-0.92133s-0.79974-0.44225-1.7057-0.44225c-0.90542 0-1.5742 0.44225-1.5742 0.44225v0.95406h0.71201l-4.242e-4 -0.49428s0.12696-0.22049 0.86265-0.22049c0.73604 0 0.94748 0.26142 0.94748 0.26142l-4.241e-4 0.20338-2.5213 2.4544v0.67023h2.8772c0.21943-0.25138 0.54928-0.67369 0.54928-0.67369z" fill="#fff"/>
 </g>
 <g transform="translate(-28.947 -186.68)" fill="#fff">
  <path d="m41.323 475.48 6.5545-13.971 6.5545 13.971zm-12.376 12.462h6.5114l3.3204-7.2013h18.068l3.2772 7.2013h6.4682l-15.222-31.349h-6.9857z"/>
  <path d="m112.02 470.52v-8.8399h11.815c5.0021 0 7.5463 0.73307 7.5463 4.3984 0 3.7085-2.5442 4.4415-7.5463 4.4415zm-6.1233 17.421h6.1233v-12.333h9.7024l9.0986 12.333h7.5463l-9.6161-12.764c4.614-0.25873 8.7537-3.4497 8.7537-9.228 0-7.6756-5.3471-9.3574-12.764-9.3574h-18.844z"/>
  <path d="m179.91 487.94h6.1233v-31.349h-6.1233z"/>
  <path d="m257.82 487.94v-5.2608h-21.82l21.302-22.639v-3.4497h-29.84v5.2608h20.785l-21.906 23.07v3.0185z"/>
  <path d="m314.52 483.45c-5.8645 0-12.548-2.4148-12.548-11.298 0-7.5463 5.3902-11.082 12.548-11.082s12.548 3.536 12.548 11.082c0 8.883-6.6838 11.298-12.548 11.298zm-18.672-10.953c0 6.5114 3.8378 16.214 18.672 16.214 14.834 0 18.672-9.7024 18.672-16.214 0-8.5812-4.8727-16.688-18.672-16.688-13.799 0-18.672 8.1068-18.672 16.688z"/>
  <path d="m373.83 487.94h5.8645v-23.458l21.82 23.458h5.6058v-31.349h-5.8645v22.639l-20.957-22.639h-6.4682z"/>
  <path d="m458.77 475.48 6.5545-13.971 6.5545 13.971zm-12.376 12.462h6.5114l3.3204-7.2013h18.068l3.2772 7.2013h6.4682l-15.222-31.349h-6.9857z"/>
 </g>
</svg>
