<svg width="800" height="119.45" data-name="Layer 1" version="1.1" viewBox="0 0 800 119.45" xmlns="http://www.w3.org/2000/svg">
 <g fill="#1435c8" stroke-width="2.3331">
  <path class="cls-1" d="m119.45 59.68a59.727 59.727 0 1 1-59.727-59.68 59.704 59.704 0 0 1 59.727 59.68"/>
  <path class="cls-1" d="m269.03 53.008c-6.556-3.383-11.805-6.136-11.805-11.385 0-3.6863 3.173-5.996 8.4924-5.996a32.01 32.01 0 0 1 16.332 4.6662v-13.532a44.119 44.119 0 0 0-16.332-3.5696c-15.748 0-22.818 9.3323-22.818 19.528 0 11.922 8.0491 17.615 16.868 22.304 8.8191 4.6895 12.015 6.6026 12.015 11.665 0 4.1996-3.6629 6.6493-9.799 6.6493a29 29 0 0 1-18.478-6.9993v14.138a36.676 36.676 0 0 0 18.338 5.6461c15.258 0 24.941-8.0025 24.941-20.834 0-12.832-11.222-18.875-17.755-22.281z"/>
  <path class="cls-1" d="m152.42 23.844h-18.875v71.649h13.999v-22.818h2.8464c17.661 0 28.627-9.3323 28.627-24.497s-9.8923-24.334-26.597-24.334zm-4.6662 11.969h4.1529c8.2591 0 13.602 4.6662 13.602 12.179 0 8.0491-4.9228 12.669-13.509 12.669h-4.3629z"/>
  <path class="cls-1" d="m224.07 56.904a16.682 16.682 0 0 0 6.9993-14.722c0-11.292-8.3058-18.338-21.674-18.338h-21.721v71.649h22.864c17.521 0 25.477-11.269 25.477-21.698a16.752 16.752 0 0 0-11.945-16.892zm-15.585-20.998a8.3524 8.3524 0 0 1 9.0757 8.7491c0 5.3894-3.8263 8.8657-9.8456 8.8657h-6.0427v-17.615zm-6.8126 47.642v-18.665h8.9357c6.9993 0 11.339 3.4763 11.339 9.3323 0 6.2293-4.2462 9.3323-12.645 9.3323z"/>
  <path class="cls-1" d="m424.46 23.844-23.168 71.602h-10.522l-18.431-55.994-18.338 55.994h-11.152l-22.958-71.602h13.275l15.818 54.501 17.988-54.571h11.665l17.708 54.734 16.005-54.734z"/>
  <path class="cls-1" d="m433.91 32.593a6.6726 6.6726 0 0 1-2.1698-5.0628 6.7659 6.7659 0 0 1 2.1231-5.0628 7.1392 7.1392 0 0 1 5.2961-1.9831 7.6292 7.6292 0 0 1 5.2728 1.9831 6.556 6.556 0 0 1 2.2164 5.0628 6.486 6.486 0 0 1-2.2164 5.0628 7.5359 7.5359 0 0 1-5.2728 1.9831 7.3959 7.3959 0 0 1-5.2494-1.9831zm-0.81658 9.7523h12.015v53.101h-12.015z"/>
  <path class="cls-1" d="m457.12 93.44v-11.059a28.534 28.534 0 0 0 7.2792 2.963 31.893 31.893 0 0 0 8.5391 1.2599 14.768 14.768 0 0 0 7.3726-1.5865 4.6662 4.6662 0 0 0 2.753-4.1996 5.5061 5.5061 0 0 0-2.1698-4.5029 31.31 31.31 0 0 0-8.5858-3.9196 30.703 30.703 0 0 1-11.665-6.6026 13.089 13.089 0 0 1-3.523-9.519 12.739 12.739 0 0 1 2.4731-7.6292 16.332 16.332 0 0 1 7.2326-5.4361 29.677 29.677 0 0 1 11.385-1.9831 48.598 48.598 0 0 1 8.0258 0.67659 34.646 34.646 0 0 1 6.066 1.6332v10.336a31.543 31.543 0 0 0-6.0894-1.8431 36.093 36.093 0 0 0-6.9992-0.81658 17.148 17.148 0 0 0-7.3959 1.3065 3.8963 3.8963 0 0 0-2.7064 3.4296 4.1296 4.1296 0 0 0 1.9831 3.523 43.115 43.115 0 0 0 7.5825 3.4296l2.4497 0.95656a26.574 26.574 0 0 1 10.849 6.6493 15.118 15.118 0 0 1 3.0097 10.172 13.742 13.742 0 0 1-5.5994 11.665 25.827 25.827 0 0 1-15.912 4.3395 39.802 39.802 0 0 1-16.355-3.243z"/>
  <path class="cls-1" d="m515.87 93.137a23.657 23.657 0 0 1-9.589-9.6823 30.05 30.05 0 0 1-3.2896-14.442 29.537 29.537 0 0 1 3.383-14.372 24.684 24.684 0 0 1 9.8456-9.8456 31.543 31.543 0 0 1 15.538-3.5696 33.386 33.386 0 0 1 12.972 2.3331v11.059a26.9 26.9 0 0 0-12.062-2.5197 16.565 16.565 0 0 0-12.599 4.6662 17.148 17.148 0 0 0-4.4795 12.389 16.612 16.612 0 0 0 4.4329 12.225 15.888 15.888 0 0 0 11.665 4.4329 33.9 33.9 0 0 0 6.9993-0.72326 23.611 23.611 0 0 0 5.8794-1.9831v10.919a36.023 36.023 0 0 1-13.999 2.5431 29.98 29.98 0 0 1-14.698-3.4296z"/>
  <path class="cls-1" d="m565.33 93.323a23.774 23.774 0 0 1-9.4957-9.589 30.097 30.097 0 0 1-3.4296-14.722 30.47 30.47 0 0 1 3.4763-14.908 23.634 23.634 0 0 1 9.5423-9.5423 28.814 28.814 0 0 1 13.859-3.243 27.997 27.997 0 0 1 13.602 3.2896 24.031 24.031 0 0 1 9.449 9.4957 29.117 29.117 0 0 1 3.4296 14.278 30.96 30.96 0 0 1-3.4763 15.095 24.264 24.264 0 0 1-9.589 9.7523 29.537 29.537 0 0 1-27.367 0.18665zm23.797-11.665a19.458 19.458 0 0 0 3.9429-13.089 18.431 18.431 0 0 0-3.8029-12.435 12.715 12.715 0 0 0-10.126-4.4329 12.925 12.925 0 0 0-10.149 4.3862 18.525 18.525 0 0 0-3.9429 12.785 18.921 18.921 0 0 0 3.9429 12.785 13.369 13.369 0 0 0 18.828 1.3065 11.502 11.502 0 0 0 1.3065-1.3065z"/>
  <path class="cls-1" d="m659.61 46.055a18.128 18.128 0 0 1 5.0161 13.625v35.696h-12.015v-33.363a11.129 11.129 0 0 0-2.3331-7.6059 9.3323 9.3323 0 0 0-7.3492-2.753 14.535 14.535 0 0 0-6.9992 1.6798 25.851 25.851 0 0 0-5.6927 4.1996v37.866h-12.015v-53.054h10.336l1.0266 4.8528a30.773 30.773 0 0 1 7.5125-4.4329 23.331 23.331 0 0 1 9.169-1.5865 18.991 18.991 0 0 1 13.345 4.8761z"/>
  <path class="cls-1" d="m676.31 93.44v-11.059a28.534 28.534 0 0 0 7.2792 2.963 31.893 31.893 0 0 0 8.5391 1.2599 14.768 14.768 0 0 0 7.3726-1.5865 4.6662 4.6662 0 0 0 2.753-4.1996 5.5061 5.5061 0 0 0-2.1698-4.5029 31.31 31.31 0 0 0-8.4691-3.9196 30.703 30.703 0 0 1-11.829-6.6026 13.089 13.089 0 0 1-3.5463-9.519 12.762 12.762 0 0 1 2.4964-7.6292 16.332 16.332 0 0 1 7.2326-5.4361 29.677 29.677 0 0 1 11.385-1.9831 48.178 48.178 0 0 1 8.0258 0.67659 35.206 35.206 0 0 1 6.066 1.6332v10.336a31.263 31.263 0 0 0-6.1127-1.8431 35.65 35.65 0 0 0-6.9993-0.81658 17.148 17.148 0 0 0-7.3959 1.3065 3.8496 3.8496 0 0 0-2.6597 3.4296 4.1296 4.1296 0 0 0 1.9831 3.523 43.979 43.979 0 0 0 7.5825 3.4296l2.4497 0.95656a26.457 26.457 0 0 1 10.826 6.6493 15.025 15.025 0 0 1 3.103 10.172 13.835 13.835 0 0 1-5.5527 11.665 25.664 25.664 0 0 1-15.912 4.3395 39.942 39.942 0 0 1-16.448-3.243z"/>
  <path class="cls-1" d="m726.38 32.593a6.6726 6.6726 0 0 1-2.1698-5.0628 6.7659 6.7659 0 0 1 2.1231-5.0628 6.9993 6.9993 0 0 1 5.2728-1.9831 7.6292 7.6292 0 0 1 5.2961 1.9831 6.556 6.556 0 0 1 2.2164 5.0628 6.486 6.486 0 0 1-2.2164 5.0628 7.5592 7.5592 0 0 1-5.2961 1.9831 7.4192 7.4192 0 0 1-5.2261-1.9831zm-0.76992 9.7523h12.015v53.101h-12.015z"/>
  <path class="cls-1" d="m794.95 46.055a18.128 18.128 0 0 1 5.0161 13.625v35.696h-12.015v-33.363a11.129 11.129 0 0 0-2.4497-7.6059 9.3323 9.3323 0 0 0-7.3492-2.753 14.535 14.535 0 0 0-6.9992 1.6798 26.411 26.411 0 0 0-5.6927 4.1996v37.866h-12.015v-53.054h10.289l1.0499 4.8528a30.633 30.633 0 0 1 7.4892-4.4329 23.331 23.331 0 0 1 9.169-1.5865 19.038 19.038 0 0 1 13.509 4.8761z"/>
 </g>
 <g fill="#fff" stroke-width="2.3331">
  <path class="cls-2" d="m103.22 60.24-6.5326 1.3532v12.249a7.5359 7.5359 0 0 1-7.7692 7.4192h-3.4763v14.232h-10.896v-14.232h3.4763a7.5359 7.5359 0 0 0 7.7692-7.4192v-12.249l6.6493-1.3532a2.3331 2.3331 0 0 0 1.7032-2.6131 3.6163 3.6163 0 0 0-0.16332-0.53661l-17.498-33.246h10.872l17.381 33.2a2.3331 2.3331 0 0 1-0.93324 2.9863 2.683 2.683 0 0 1-0.58327 0.20998z"/>
  <path class="cls-2" d="m80.865 57.091-17.358-33.223h-17.965a29.677 29.677 0 0 0-29.863 29.747 26.271 26.271 0 0 0 19.108 24.731v17.102h26.9v-14.138h3.383a7.5359 7.5359 0 0 0 7.7692-7.4192v-12.249l6.6493-1.3532a2.3331 2.3331 0 0 0 1.7265-2.6131 4.6662 4.6662 0 0 0-0.34996-0.58327zm-22.584-1.9131a6.8126 6.8126 0 1 1 6.8126-6.8126 6.8359 6.8359 0 0 1-6.8126 6.8126z"/>
 </g>
</svg>
