<svg width="2448.6" height="1242" version="1.1" viewBox="0 0 2448.6 1242" xml:space="preserve" xmlns="http://www.w3.org/2000/svg">
<style type="text/css">
	.st0{fill:none;}
	.st1{fill:#F7BC60;}
	.st2{fill:#FFFFFF;}
	.st3{fill:#00A94F;}
	.st4{fill-rule:evenodd;clip-rule:evenodd;fill:#807F83;}
	.st5{fill:#BABCBE;}
</style>
<g transform="translate(-72.857 -196.96)">
					<path class="st3" d="m2467.9 286.8-2279.8-89.8c-28.3-1.1-53.9 19.7-57.1 46.4l-57.8 488.2c-3.3 27.6 17.6 51.3 46.4 52.7l2324.9 110.5c30.7 1.5 56.7-20.8 57.7-49.4l18.5-506.1c1.1-27.8-22.7-51.3-52.8-52.5z" fill="#00a94f"/>
	<path class="st0" d="m603.4 505.7c2.4-23.6-2.7-51.9-33.5-53.2-36.6-1.6-45.1 40.7-46.4 53.3l-0.8 7.9 79.5 3.5z" fill="none"/>
	<path class="st0" d="m724.6 630.8c23.1 1 47.2-16.7 49.3-38.5l5.2-54.7c-14.2 12.5-45.5 13.9-62.3 22.3-12 6.2-18.6 14.3-20.5 32.9-2.1 21.4 4.3 36.9 28.3 38z" fill="none"/>
	<path class="st0" d="m1588.4 548.4c1.6-24-4.6-52.7-36.2-54-37.6-1.6-44.9 41.3-45.8 54.1l-0.6 8 81.7 3.6z" fill="none"/>
	<path class="st0" d="m1779 556.7c1.5-24-4.9-52.8-36.7-54.2-37.7-1.6-44.8 41.4-45.6 54.2l-0.5 8 82.1 3.6z" fill="none"/>
	<path class="st0" d="m438.3 435.5c3.3-30.5-9.9-51-45.8-52.6l-40.8-1.7-11.6 104.8 43.5 1.9c26.5 1.1 50.7-15.2 54.7-52.4z" fill="none"/>
	<path class="st0" d="m182.3 694 1738.1 80.3 23.4-415.6-1714.9-69.6zm1473.1-105.7c3.5-53.7 18.7-115.1 89.4-112.1 70.4 3 73.4 60.5 70.6 106.6l-0.8 13.7-121.4-5.3c-2.1 33-5.3 83 39.1 85 34.5 1.6 41.4-32.2 42.4-48.3l36.3 1.6c-1.4 23-19.4 76.2-82.5 73.3-56.6-2.6-78-40.5-73.1-114.5zm-190.2-8.3c3.9-53.5 19.4-114.8 89.7-111.8 70 3 72.6 60.3 69.6 106.3l-0.9 13.6-120.8-5.3c-2.3 32.9-5.8 82.7 38.4 84.7 34.3 1.5 41.4-32.1 42.5-48.2l36.1 1.6c-1.5 22.9-19.8 75.9-82.5 73.1-56.4-2.5-77.4-40.2-72.1-114zm-104.9-114.5 35.7 1.5-2.4 31.8h0.9c11.7-19.8 26.6-36.3 52.1-35.2 7.2 0.3 12.3 1.3 15.6 3l-2.4 32.6c-3.4-0.5-7.6-1.9-19-2.4-17.9-0.8-47.9 13.1-50.6 48.6l-10.2 135.9-35.9-1.6zm-137.5-5.8 33 1.4 3.3-41.7 37.1-18.4-4.8 61.7 39.4 1.7-2 26.2-39.5-1.7-10.7 137.2c-1.3 17.2 2.8 24.3 21.6 25.1 7.7 0.3 12-0.3 15.9-0.5l-2.1 27.7c-4.8 0.6-14.3 1.8-29.2 1.1-37.1-1.7-44.9-16.5-42.7-44.6l11.7-147.5-33-1.4zm-168.6-57.6 37-18.4-8 94.3h0.8c10.8-17 36.7-28.2 56.9-27.3 58.2 2.5 54.8 44.8 52.8 69.9l-12.3 151.8-35.7-1.6 12.2-147.7c1.3-16.3 2.3-42.9-29.8-44.3-19-0.8-45.7 10-48.4 40.9l-12.6 147.5-35.6-1.6zm-202.9 150.9c4.9-53 21.5-113.7 90.6-110.8 61.3 2.6 67.8 48.5 65.7 73l-35.4-1.5c1.8-20.6-4.9-44.3-31.8-45.4-21.8-0.9-45 8.4-52.1 86-2.5 27.8-7.2 83.6 35.4 85.5 30.4 1.4 39.9-28.7 41.9-51.8l35.5 1.6c-3 33.9-24.8 79.1-81.4 76.5-55.3-2.6-75.2-39.9-68.4-113.1zm-192 38.9c3-29.7 18.4-49.7 48.1-56.7l48.6-11.4c26.3-6.4 26.9-13.1 28.6-30.9 1.9-19.7-9.6-31.7-33-32.7-38.4-1.6-41.7 32.2-42.5 39.7l-0.2 2-35.1-1.5c4.8-48 28.5-68.3 81.9-66 68.1 2.9 64.5 41.5 62.4 63.6l-11.1 118.5c-0.8 8.8-1.6 17.1 9.3 17.6 4.6 0.2 6.8-0.5 8.6-1.6l-2.2 23.9c-2.6 0.3-12 1.5-20.8 1.1-13.5-0.6-30.3-1.4-29.4-29h-0.8c-13.2 18.6-36.2 29.2-57.2 28.2-42-1.9-59-26.6-55.2-64.8zm-177.1-55.1c5.6-52.8 22.8-113.1 91.2-110.2 68.2 2.9 68.8 59.4 64.2 104.7l-1.4 13.4-117.6-5.2c-3.4 32.4-8.5 81.5 34.5 83.5 33.4 1.5 41.4-31.6 43-47.5l35.1 1.6c-2.3 22.6-21.8 74.8-82.9 72.1-54.6-2.5-73.8-39.6-66.1-112.4zm-163.7-185.1 75 3.1c25.6 1.1 91.2 3.8 82.8 83.9-5.5 52.2-43.9 79.8-94.1 77.6l-45.2-2-13.2 119.2-36.6-1.7z" fill="none"/>
	<path class="st2" d="m337 514.2 45.2 2c50.2 2.2 88.6-25.4 94.1-77.6 8.5-80.1-57.2-82.8-82.8-83.9l-75-3.1-31.3 280.1 36.6 1.7zm14.6-133 40.8 1.7c35.9 1.5 49.1 22 45.8 52.6-4 37.2-28.2 53.5-54.8 52.4l-43.5-1.9z" fill="#fff"/>
	<path class="st2" d="m548.4 649.2c61.1 2.8 80.7-49.4 82.9-72.1l-35.1-1.6c-1.6 15.8-9.6 49-43 47.5-43-1.9-37.9-51.1-34.5-83.5l117.6 5.2 1.4-13.4c4.5-45.3 3.9-101.8-64.2-104.7-68.5-2.9-85.7 57.4-91.2 110.2-7.8 72.8 11.4 109.9 66.1 112.4zm-24.9-143.4c1.3-12.6 9.9-54.8 46.4-53.3 30.8 1.3 35.9 29.6 33.5 53.2l-1.2 11.4-79.5-3.5z" fill="#fff"/>
	<path class="st2" d="m714.5 656.7c21 1 44-9.6 57.2-28.2h0.8c-0.9 27.6 15.9 28.3 29.4 29 8.8 0.4 18.3-0.8 20.8-1.1l2.2-23.9c-1.8 1.1-4 1.8-8.6 1.6-11-0.5-10.2-8.9-9.3-17.6l11.2-118.6c2.1-22.1 5.7-60.7-62.4-63.6-53.4-2.3-77.2 18-81.9 66l35.1 1.5 0.2-2c0.7-7.5 4-41.4 42.5-39.7 23.4 1 34.9 13 33 32.7-1.7 17.8-2.3 24.5-28.6 30.9l-48.6 11.4c-29.7 7-45.1 27-48.1 56.7-3.9 38.3 13.1 63 55.1 64.9zm-18.2-63.9c1.8-18.6 8.5-26.7 20.5-32.9 16.8-8.4 48.1-9.8 62.3-22.3l-5.2 54.7c-2.1 21.9-26.2 39.6-49.3 38.5-24-1.1-30.4-16.6-28.3-38z" fill="#fff"/>
	<path class="st2" d="m919.7 666c56.7 2.6 78.5-42.6 81.4-76.5l-35.5-1.6c-2.1 23.1-11.5 53.1-41.9 51.8-42.6-1.9-37.9-57.7-35.4-85.5 7.1-77.6 30.3-86.9 52.1-86 26.9 1.2 33.6 24.8 31.8 45.4l35.4 1.5c2.2-24.6-4.4-70.4-65.7-73-69.2-2.9-85.7 57.7-90.6 110.8-6.8 73.3 13.1 110.6 68.4 113.1z" fill="#fff"/>
	<path class="st2" d="m1079.6 519.6c2.6-30.9 29.4-41.7 48.4-40.9 32.1 1.4 31.2 28 29.8 44.3l-12.2 147.7 35.7 1.6 12.3-151.8c2-25 5.5-67.4-52.8-69.9-20.2-0.9-46.1 10.3-56.9 27.3h-0.8l8-94.3-37 18.4-22.8 263.4 35.6 1.6z" fill="#fff"/>
	<path class="st2" d="m1242 634.8c-2.2 28.1 5.6 42.9 42.7 44.6 14.9 0.7 24.5-0.5 29.2-1.1l2.1-27.7c-3.9 0.2-8.2 0.8-15.9 0.5-18.8-0.8-22.9-7.9-21.6-25.1l10.7-137.2 39.5 1.7 2-26.2-39.4-1.7 4.8-61.7-37.1 18.4-3.3 41.7-33-1.4-2.1 26.1 33 1.4z" fill="#fff"/>
	<path class="st2" d="m1390.2 545.4c2.6-35.5 32.7-49.3 50.6-48.6 11.5 0.5 15.7 1.9 19 2.4l2.4-32.6c-3.3-1.7-8.3-2.7-15.6-3-25.5-1.1-40.4 15.4-52.1 35.2h-0.9l2.4-31.8-35.7-1.5-16.3 214.1 35.9 1.6z" fill="#fff"/>
	<path class="st2" d="m1537.1 694.1c62.8 2.8 81-50.2 82.5-73.1l-36.1-1.6c-1.1 16.1-8.1 49.7-42.5 48.2-44.2-2-40.7-51.8-38.4-84.7l120.8 5.3 0.9-13.6c3.1-46 0.5-103.3-69.6-106.3-70.3-3-85.8 58.2-89.7 111.8-5.1 73.7 15.9 111.4 72.1 114zm-30.6-145.6c0.9-12.8 8.2-55.7 45.8-54.1 31.6 1.3 37.8 30 36.2 54l-0.8 11.6-81.7-3.6z" fill="#fff"/>
	<path class="st2" d="m1728.4 702.7c63.1 2.9 81.1-50.3 82.5-73.3l-36.3-1.6c-1 16.1-7.8 49.9-42.4 48.3-44.4-2-41.2-52-39.1-85l121.4 5.3 0.8-13.7c2.8-46.1-0.2-103.6-70.6-106.6-70.7-3-85.9 58.4-89.4 112.1-4.8 74.1 16.6 112 73.1 114.5zm-31.7-146c0.8-12.8 7.9-55.8 45.6-54.2 31.8 1.4 38.2 30.1 36.7 54.2l-0.7 11.6-82.1-3.6z" fill="#fff"/>
	<path class="st2" d="m196.7 253.6-55.1 473.8 1073.8 50.6 342.9 15.9v0.2h0.6v-0.1h0.5v0.1l873.1 41.1 19.2-492zm1723.7 520.8-1738.1-80.4 46.6-404.9 1714.9 69.7zm247-285.5-65.4-2.8-11.9 235.1-73.7-3.3 12.5-234.9-65.2-2.8 3-54.7 203.4 8.4zm164.6 243.3-94.5-4.3-55.2-293.4 78.6 3.3 27.3 225.8h0.9l47.5-222.7 78.9 3.3z" fill="#fff"/>
	<polygon class="st3" points="2170.1 434 1966.7 425.6 1963.7 480.3 2028.9 483 2016.4 717.9 2090.1 721.2 2102 486.1 2167.4 488.9" fill="#00a94f"/>
	<polygon class="st3" points="2415.4 444.2 2336.5 440.9 2289 663.6 2288.1 663.6 2260.8 437.8 2182.3 434.5 2237.5 727.9 2332 732.2" fill="#00a94f"/>
	<path class="st4" d="m928.8 863 5.9 23s113.9 6.6 116.8 6.7 15.5 0.4 29.8 12.9c15.5 13.6 31.2 25.3 33.4 33.8l-9.6 112.5s-1.3 10 3.5 15.5c5.1 5.9 11.1 14.3 10.1 28.1-0.9 13.8-29.7 343.5-29.7 343.5h242.2s27.1-331.1 27.1-333.3 0.9-9.7 6.5-13.8c4.5-3.4 9.2-5.1 11.1-17 1.8-12 8.1-101.7 8.3-104.6 0.3-3.8 5.3-22.6 16.9-33.6 12.1-11.4 30.5-25 45.3-24.5 14.7 0.5 130.1 4.8 130.1 4.8l1.6-25.6-44.4-75.9-538.3-9.9z" clip-rule="evenodd" fill="#807f83" fill-rule="evenodd"/>
	<path class="st5" d="m965.2 765.6-36.4 97.4s186.9 7.9 187 7.7c14.2-28.6 88.3-41.2 145-35.3 97.5 10.1 135.6 34.4 135.4 46.8 0 0.1 181.8 9.2 181.8 9.2l-20.3-97.4z" fill="#babcbe"/>
	<path class="st5" d="m1117.7 898.3s1.8-25.7 13.6-36c11.8-10.2 26.9-18.5 56.7-21.3s61.9 0.1 80.5 6.8c18.5 6.7 27.5 22.6 26.7 44.4s-12.6 102.3-16.7 112c-4.2 9.7-4.8 13.7-24.3 14.2s-84.6-4.6-116.8 9.2-32.4 25.1-32.4 25.1z" fill="#babcbe"/>
	<path class="st5" d="m1089 1439 28.3-327.2s3-7.4 6-17.9c3.9-13.5 35.7-56.4 76.5-52.3s49.8 47.7 47.7 85.7-25.1 311.7-25.1 311.7z" fill="#babcbe"/>
</g>
</svg>
