<svg width="940.16" height="1112.4" version="1.0" viewBox="0 0 940.16 1112.4" xmlns="http://www.w3.org/2000/svg">
 <g transform="matrix(10.258 0 0 10.258 8.467 -26.495)" fill="#ed802f">
  <path d="m43.11 90.702c0.07849-0.04712 0.528-0.1373 0.99892-0.20039 5.8654-0.78583 11.393-2.8593 15.935-5.9776 3.4396-2.3613 7.4289-6.3815 9.7002-9.7752 2.5405-3.7959 4.0878-8.1736 4.8252-13.652 0.21785-1.6183 0.24789-7.1561 0.04747-8.7524-0.40196-3.2016-1.2338-6.0019-2.5445-8.5654-0.5229-1.0227-1.3687-2.4115-1.4308-2.3494-0.01893 0.01894 0.0079 0.18143 0.05969 0.3611 0.16638 0.57754 0.56212 2.6724 0.7177 3.7991 0.23854 1.7277 0.28836 6.0379 0.09346 8.0865-0.56791 5.9692-2.3816 11.617-5.2818 16.448-1.5386 2.5627-3.0449 4.4884-5.1835 6.6271-2.1337 2.1337-4.0484 3.6322-6.6271 5.1866-10.301 6.2094-22.218 6.7934-32.62 1.5986-4.7991-2.3966-9.0004-6.1557-12.753-11.411-0.85348-1.1951-2.8002-4.3539-2.7278-4.4262 0.022918-0.02291 0.48629 0.48367 1.0297 1.1257 4.8654 5.7485 10.567 9.7262 16.861 11.764 10.075 3.2611 20.433 0.92943 29.122-6.5561 5.4794-4.72 9.0535-11.518 10.102-19.214 0.20048-1.4717 0.23025-5.0527 0.05299-6.374-0.73225-5.4586-3.008-9.2421-6.6624-11.077-1.8591-0.93324-3.8045-1.3381-6.0846-1.2664-2.256 0.07102-3.5576 0.49758-5.4285 1.779-1.6833 1.1529-2.6897 2.2386-4.5742 4.9344-0.58833 0.84163-1.3477 1.856-1.6874 2.2542-1.9945 2.3375-5.4218 3.8427-7.9186 3.4776-0.78624-0.11496-1.6279-0.35757-1.6229-0.4678 0.0016-0.03433 0.26149-0.21056 0.57761-0.39164 1.2188-0.69812 2.7052-2.4963 3.3081-4.0018 0.41915-1.0468 0.61795-1.8552 1.1514-4.6821 0.89104-4.7217 1.6506-7.0806 3.1478-9.7762 3.3752-6.0764 9.0071-10.389 15.459-11.838 2.0511-0.46051 3.1494-0.56889 5.7497-0.56738 2.5919 0.0015 3.8549 0.11866 6.0457 0.56075 6.2314 1.2575 11.899 4.6776 16.091 9.7094 4.1938 5.0347 6.9271 11.551 7.7392 18.451 0.17337 1.4731 0.22412 4.5682 0.09921 6.0498-0.52398 6.2147-3.2588 13.863-6.8854 19.255-0.24595 0.36571-0.44718 0.62214-0.44718 0.56985s0.2303-0.694 0.51178-1.426c1.4583-3.7925 2.3122-7.1602 2.7861-10.988 0.23291-1.8813 0.23408-6.5386 0.0021-8.2861-0.83851-6.316-3.4741-11.912-7.6698-16.286-0.49356-0.51447-0.97663-0.97781-1.0735-1.0296-0.12406-0.0664 0.0041 0.26574 0.43351 1.1238 5.0903 10.171 6.0596 20.749 2.8665 31.283-1.9657 6.485-5.1392 11.695-9.7192 15.956-5.3248 4.954-11.711 7.819-19.58 8.7843-1.3873 0.17019-7.2341 0.29825-6.9924 0.15315z"/>
  <path d="m29.03 76.512c-9.0387-0.71893-16.285-4.8511-21.664-12.353-1.2884-1.7971-3.0066-5.0006-3.8613-7.199-2.2669-5.831-2.9815-11.99-2.0588-17.743 0.41038-2.5588 1.4219-6.1367 2.5149-8.8951 0.52421-1.3231 1.9001-4.2053 2.62-5.4885 0.5715-1.0186 1.8135-2.9539 1.8636-2.9039 0.01857 0.01857-0.24651 0.77887-0.58907 1.6895-1.4607 3.8832-2.3194 7.3498-2.7209 10.984-0.19526 1.7674-0.16674 6.5262 0.048719 8.134 0.45795 3.4173 1.2823 6.1467 2.7736 9.1832 0.79899 1.6269 2.1902 3.8385 3.23 5.1346 0.72121 0.89903 2.2721 2.5576 2.6294 2.8121 0.27462 0.19554 0.2548 0.13673-0.38245-1.1354-4.3344-8.6523-5.6762-17.908-3.8979-26.888 1.825-9.2154 6.0775-16.582 12.597-21.821 5.2533-4.2218 11.294-6.5962 18.543-7.2885 1.4331-0.13687 6.3368-0.20979 6.2195-0.092486-0.02864 0.028642-0.60301 0.13729-1.2764 0.24143-9.0642 1.4019-15.962 4.9764-21.782 11.288-3.5712 3.8725-5.5543 7.1566-6.9665 11.537-2.1657 6.7169-2.258 14.877-0.23522 20.787 0.61154 1.7867 2.4182 5.3751 2.7062 5.3751 0.03463 0 0.0023-0.22476-0.07193-0.49946-0.56992-2.11-0.8978-5.0562-0.89809-8.0698-3.24e-4 -3.2697 0.25822-5.7172 0.91762-8.6868 2.0384-9.1796 7.0317-16.855 14.231-21.874 5.1852-3.6152 11.243-5.8418 17.278-6.3506 1.6776-0.14143 5.023-0.068872 6.677 0.14482 5.7975 0.74903 11.349 2.9927 15.566 6.2913 3.7657 2.9455 7.0246 6.6908 9.7317 11.184 0.53659 0.89065 0.95644 1.6385 0.933 1.662-0.02343 0.02343-0.44256-0.44034-0.93138-1.0306-1.0583-1.2779-3.9757-4.2222-5.1781-5.2259-5.204-4.3439-10.608-6.8765-16.646-7.8012-1.6159-0.24749-4.9096-0.33886-6.5812-0.18256-6.0974 0.5701-11.96 3.1135-17.222 7.4713-3.9393 3.2624-6.9189 7.4915-8.7835 12.467-2.261 6.0334-2.6137 12.49-0.95415 17.467 1.7403 5.2184 5.5658 8.1891 10.849 8.4244 2.7967 0.12457 4.6989-0.47036 7.0032-2.1903 1.3907-1.0381 2.5005-2.3252 4.4102-5.1152 2.1579-3.1525 4.9725-4.9788 7.9976-5.1894 0.83894-0.0584 2.1581 0.13469 2.638 0.38611 0.22145 0.11602 0.21383 0.12597-0.37522 0.48952-0.74563 0.46019-1.9115 1.6065-2.4527 2.4115-0.93176 1.3861-1.3062 2.5344-1.9581 6.0051-0.72831 3.8775-1.2085 5.6574-2.1007 7.787-1.7526 4.1832-4.9217 8.091-8.6454 10.661-2.9463 2.0331-6.4978 3.3685-10.263 3.859-1.3862 0.18057-4.1357 0.25457-5.4815 0.14752z"/>
  <path d="m39.757 50.438c-0.73998-0.18192-1.3188-0.43049-1.8125-0.7784l-0.26583-0.18732 0.75739-0.26226c0.41657-0.14424 0.9643-0.38328 1.2172-0.53119 0.54121-0.31656 2.3161-2.0147 3.0287-2.8979 1.6624-2.0601 2.8185-2.7954 4.8128-3.0609 1.4757-0.19648 3.3048 0.14528 4.3672 0.81599 0.44282 0.27957 0.49384 0.3394 0.33297 0.39058-1.6421 0.52236-2.2815 0.95045-3.7575 2.5154-2.6137 2.7712-3.1486 3.2741-3.8297 3.6001-0.35346 0.16922-0.91 0.3707-1.2368 0.44774-0.85788 0.20227-2.6867 0.17598-3.6139-0.05196z"/>
 </g>
 <g transform="matrix(2.3836 0 0 2.3836 -47.457 952)">
  <path d="m206.69 18.7c1.31-0.48 2.5-1.97 3.96-1.63 1.82 1.4 3.07 3.39 3.72 5.58-1.29 0.5-2.56 1.02-3.85 1.51-1.2-1.87-2.5-3.67-3.83-5.46z"/>
  <path d="m272.69 16.68c3.33 1.99 8.59 3.66 7.4 8.65 2.84 0.03 5.68 0.01 8.52-0.14 1.08-2.55 2.27-5.06 3.6-7.48 2.54 0.25 4.95 1.36 6.14 3.73-2.71 0.45-4.88 2.13-6.92 3.85 3.85 0.06 7.7 0.04 11.56 0.04 0 1.18 0.01 2.36 0.02 3.54-5.63 0.01-11.25 0-16.87 0.01 0 0.78-0.02 2.33-0.02 3.11 4.93 0.02 9.87 0.01 14.81 0.01-0.01 1.33-0.01 2.67 0 4-4.94 0-9.88-0.01-14.81 0.01 0 0.77 0.02 2.3 0.02 3.07 6.17 0.01 12.34-0.01 18.52 0.01-0.01 1.3 0 2.6 0 3.9-7.37 0.11-14.74-0.18-22.11 0.17 1.86 0.91 4.81 1.13 4.75 3.84 6.34 0.01 12.67-0.02 19.01 0.01-0.53 1.33-1.05 2.66-1.56 3.99-5.41 0.02-10.82-0.05-16.23 0.05 5.73 5.08 13.12 7.65 20.56 8.93-1.66 1.32-2.97 3.75-5.17 4-7.78-1.85-14.97-6.27-19.75-12.72-3.67 8.58-13.04 13.63-22.21 12.84 7.04-2.26 13.62-6.53 17.32-13.1-6.06-0.01-12.13 0.01-18.19 0 0-1.34 0-2.67 0.01-3.99 6.52-0.02 13.04 0 19.57-0.02-0.01-1.33-0.01-2.65 0-3.98-5.77-0.02-11.53 0-17.3-0.02 0-1.3 0-2.6 0.01-3.9 6.15-0.02 12.31 0 18.46-0.01 0.01-0.77 0.02-2.3 0.03-3.07-4.96-0.02-9.91-0.01-14.87-0.01v-4c4.95 0 9.91 0.01 14.86-0.01 0-0.78-0.01-2.33-0.01-3.11-5.62-0.01-11.23 0-16.84-0.01 0-1.18 0-2.36 0.01-3.54 3.78 0 7.57 0.01 11.35-0.01-0.57-3.12-1.89-6.03-3.67-8.64z"/>
  <path d="m164.16 18.09c1.13 0.34 2.26 0.69 3.39 1.03-0.22 1.23-0.43 2.45-0.63 3.68 2.98 0.03 5.96 0.03 8.94 0.04 0 2.67 0.01 5.34 0.01 8.01 1.37 0 2.75 0.01 4.13 0.02v2.84h-24.99c-0.01-0.71-0.01-2.13-0.01-2.84 2.52-0.01 5.04-0.02 7.57-0.06 0.22-1.91 0.41-3.83 0.6-5.75-2.06-0.01-4.11-0.01-6.17-0.02v-2.2c2.22-0.01 4.43-0.02 6.65-0.04 0.18-1.57 0.35-3.14 0.51-4.71m2.71 6.96c-0.38 1.93-0.74 3.86-1.03 5.8 2.13 0.01 4.26 0.01 6.39 0.01v-5.8c-1.79-0.01-3.58-0.01-5.36-0.01z"/>
  <path d="m374.53 34.98c4.66-5.81 9.64-11.34 14.43-17.04 1.63 0.12 3.28 0.25 4.92 0.39-4.23 5.7-9.1 10.9-13.29 16.64 8.4-1.48 17-1.37 25.43-2.75-1.28-1.97-2.58-3.93-3.86-5.9 3.8 1.39 7.69 3.04 10.53 6.02 2.24 2.37 2.12 6.26 0.12 8.75-0.67-0.01-2-0.03-2.67-0.03-0.92-1.41-1.79-2.84-2.63-4.28-9.55 0.27-19.01 1.75-28.55 2.27-2.73 0.09-5.41 0.62-8.08 1.08-0.23-1.45-0.44-2.9-0.65-4.35 1.43-0.26 2.87-0.53 4.3-0.8z"/>
  <path d="m27.35 19.04c12.88-0.01 25.76 0 38.65 0 0.44 12.84-1.08 25.87 1.23 38.58 1.4 3.4 4.25-0.15 5.38-1.78-1.09 3.75-0.7 7.64-0.28 11.45-6.45-0.73-10.65-7.13-10.45-13.3-0.2-10.33-0.29-20.66-0.49-30.99h-29.37c-0.1 8.32-0.4 16.63-0.84 24.94-0.25 6.66-3.28 12.87-6.93 18.32-1.44-0.67-2.89-1.32-4.34-1.97 3.25-4.94 6.04-10.34 6.97-16.23 0.41-9.67 0.94-19.34 0.47-29.02z"/>
  <path d="m88.02 19.03c12.76 0.01 25.53 0 38.3 0.01 0 12.33-0.08 24.67 0.69 36.99-0.17 1.72 1.42 2.7 2.37 3.89 1.06-1.11 2.11-2.22 3.16-3.34-0.72 3.45-0.77 7.02 0.32 10.4-6.08 0.44-9.96-5.65-10.67-11.02-0.84-10.92-0.16-21.88-0.51-32.82-4.11 0-8.23 0.01-12.34-0.04-0.83 1.63-1.65 3.27-2.47 4.9 3.58 0 7.15 0 10.73 0.01-0.01 5.33-0.01 10.65 0 15.98-7.12 0.02-14.25 0.01-21.38 0 0.01-5.33 0.01-10.66 0-15.99 2.2 0 4.39 0 6.58 0.01 0.9-1.61 1.83-3.22 2.72-4.84-4.51-0.05-9.01-0.03-13.52-0.03-0.33 10.89 1.04 22.11-2.06 32.71-1.26 3.81-3.29 7.3-5.41 10.69-1.4-0.67-2.79-1.35-4.18-2.03 3.37-5.33 6.5-11.18 6.79-17.61 0.4-9.29 0.69-18.58 0.88-27.87m11.82 11.45c0.03 1.36 0.05 2.73 0.09 4.09 4.69-0.04 9.37-0.02 14.06-0.02v-4.07h-14.15m0.02 6.73v4.13c4.71 0.01 9.42 0.01 14.13 0 0-1.37 0-2.75 0.01-4.13h-14.14z"/>
  <path d="m150.63 18.58c1.22 0.53 2.45 1.07 3.67 1.62-2.2 5.98-5.12 11.92-9.84 16.32-1.07-0.74-2.13-1.47-3.2-2.2 4.14-4.56 7.52-9.83 9.37-15.74z"/>
  <path d="m224.13 19.45c7.94 0.01 15.88 0.01 23.82 0 0.01 9.76 0.01 19.52 0 29.28-2.57 0-5.13 0-7.69 0.01 0.1 4.1 0.21 8.21 0.75 12.28 2.57 0.01 5.15 0.01 7.72 0.06 2.08-2.41 2.32-5.6 2.49-8.63 1.06 2.97 2.48 5.78 3.83 8.62 0.55 2.21-2.09 3.49-3.88 3.8-4.41 0.35-8.85 0-13.27 0.18-3.04-3.87-1.62-9-1.87-13.52-3.39 6.37-8.88 11.44-15.4 14.49-1.26-1.22-2.52-2.45-3.78-3.67 6.38-2.79 12.79-6.94 15.66-13.56-2.79-0.06-5.59-0.06-8.38-0.06-0.01-9.76-0.02-19.52 0-29.28m4.87 4.55v4.35h13.96c0-1.45 0-2.9 0.01-4.35h-13.97m0 8v4h13.97c-0.01-1.34-0.01-2.67-0.01-4-4.65-0.01-9.3-0.01-13.96 0m0 7.8v4.46c4.65 0.01 9.31 0 13.96 0v-4.46c-4.65-0.01-9.3-0.01-13.96 0z"/>
  <path d="m333.06 18.65c1.38 0.48 2.76 0.98 4.14 1.49-0.14 7.27-0.09 14.55-0.15 21.82 0.17 8.35-3.24 16.54-8.63 22.83-0.97-0.95-1.94-1.91-2.9-2.87 4.13-5.03 6.5-11.2 7.53-17.59-0.6-0.25-1.8-0.75-2.4-1-1.27-3.06-2.26-6.25-4.11-9.04 2.22 1.05 4.38 2.2 6.49 3.46-0.02-6.37-0.05-12.74 0.03-19.1z"/>
  <path d="m355.72 19.41c1.42-0.02 2.84-0.03 4.27-0.04 0.02 15.19 0.01 30.38 0.01 45.57-1.43-0.01-2.85-0.01-4.27-0.01 0.09-7.59-0.22-15.18 0.18-22.76-1.26 0.38-2.52 0.74-3.78 1.1-0.15-3.43-1.18-6.72-2.4-9.91 2.13 1.1 4.17 2.37 6.08 3.82-0.17-5.93-0.05-11.85-0.09-17.77z"/>
  <path d="m343.92 19.99h4.53v43.3h-4.53c0.01-6.51-0.04-13.02 0.04-19.53-1.49 0.46-2.86-0.27-2.92-1.91-0.62-2.87-1.63-5.63-3.11-8.16 1.99 1.22 3.99 2.45 5.99 3.66 0-5.79-0.01-11.57 0-17.36z"/>
  <path d="m317.97 23.65c0.8-1.14 1.6-2.28 2.41-3.42 2.33 1.64 4.64 3.33 6.84 5.17-0.86 1.01-1.72 2.02-2.57 3.03-2.23-1.59-4.43-3.22-6.68-4.78z"/>
  <path d="m178.08 21.96c4.21-0.01 8.43-0.01 12.64 0v3.7h-12.64c-0.01-1.23-0.01-2.46 0-3.7z"/>
  <path d="m35.5 25.65c7.17 0 14.34-0.01 21.5 0v1.96c-2.67 0-5.34-0.01-8.01-0.04-0.33 0.61-0.98 1.82-1.31 2.43 2.89 0 5.78 0 8.68 0.01 0 4.33 0 8.66-0.01 12.99-5.75 0.01-11.51-0.01-17.27 0.01 0 0.72 0 2.17 0.01 2.89 6.26 0.01 12.53 0 18.8 0.01 0.02 0.51 0.06 1.54 0.07 2.06-6.29 0.06-12.58 0.01-18.88 0.04 0.01 0.71 0.01 2.14 0.02 2.85 6.67 0.01 13.33 0 20 0.01-0.08 3.94-0.02 7.98-1.33 11.75-1.73 2.48-5.23 1.09-7.77 1.46-0.75-3.29-1.12-6.67-2.48-9.78 1.59 0.88 3.18 1.76 4.78 2.64-0.16 1.58-0.67 3.06-1.83 4.2 1.45-0.05 2.9-0.09 4.36-0.13 0.23-2.69 0.69-5.35 1.28-7.98-6.63 0-13.26 0.01-19.88-0.01-0.02-7.67-0.01-15.35-0.02-23.03 3.39-0.51 8.33 1.69 10.06-2.32-3.63-0.08-7.26-0.06-10.89-0.1l0.12-1.92m3.6 6.76c0 1.13 0 2.27-0.01 3.41h14c-0.01-1.14-0.01-2.27-0.01-3.41h-13.98m-0.02 4.82c0.01 0.88 0.02 2.63 0.03 3.51h13.97c0-0.88 0.01-2.64 0.01-3.52-4.67-0.01-9.34-0.02-14.01 0.01z"/>
  <path d="m201.87 25.65c5.75-0.04 11.51 0.08 17.26-0.08 0.25 0.61 0.74 1.84 0.98 2.45-0.97 4.16-4.04 7.44-6.28 10.98 2.61 2.22 5.13 4.57 7.54 7.01-1.16 1.01-2.32 2.02-3.49 3.02-1.59-1.83-3.19-3.64-4.85-5.4-0.07 7.1-0.01 14.21-0.03 21.31-1.41 0-2.81-0.01-4.2-0.01-0.08-6.89-0.13-13.79-0.23-20.68-1.76 1.47-3.53 2.92-5.36 4.3-1.12-1.13-2.23-2.26-3.35-3.39 6.08-4.14 11.8-9.23 14.99-16-4.33 0.04-8.66 0.04-12.99 0.02 0-0.88 0.01-2.65 0.01-3.53z"/>
  <path d="m151.05 31.74c1.02 1.15 3.95 1.84 2.71 3.81-0.78 1.76-1.78 3.41-2.76 5.06-0.01 8.44 0.01 16.87-0.01 25.31-1.28 0-2.56-0.01-3.84-0.01 0.02-6.51-0.03-13.02 0.04-19.52-1.09 1.29-2.18 2.57-3.27 3.85-1.08-0.87-2.15-1.75-3.22-2.62 4.64-4.42 8.18-9.85 10.35-15.88z"/>
  <path d="m314.83 35.03c0.74-1.24 1.48-2.49 2.23-3.74 2.34 1.38 4.68 2.76 7.03 4.13-0.77 1.18-1.56 2.37-2.34 3.55-2.31-1.31-4.62-2.61-6.92-3.94z"/>
  <path d="m177.76 35h14.21c0 1.33 0 2.66 0.01 3.99-1.64 0.01-3.28 0.01-4.92 0.02-0.06 7.69 0.12 15.38-0.08 23.07 0.23 2.99-3.12 3.98-5.26 5.08-1.05-2.53-2.98-4.46-5.15-6.06 1.95 0.19 5.79 2.05 6.17-1.15 0.4-6.97 0.05-13.96 0.17-20.94-1.72-0.01-3.44-0.01-5.15-0.02v-3.99z"/>
  <path d="m157.41 36.01c5.86-0.02 11.73-0.01 17.59-0.01v9c-5.86 0-11.72 0.01-17.58-0.01 0-2.99 0-5.99-0.01-8.98m3.59 2.79v3.2c3.65 0 7.31 0 10.96-0.01 0-0.8-0.01-2.39-0.02-3.19h-10.94z"/>
  <path d="m375.02 42.64h35.98c-0.02 7.26 0.05 14.53-0.04 21.79-1.54 0.63-3.08 1.26-4.61 1.9-0.05-1.44-0.11-2.89-0.15-4.33h-26.91c-0.01 0.66-0.02 1.97-0.03 2.63h-4.25c0-7.33 0-14.66 0.01-21.99m4.26 4.09v11.18c8.98 0.01 17.97 0.01 26.95 0 0.01-3.73 0.01-7.45 0-11.18-8.98-0.01-17.97-0.01-26.95 0z"/>
  <path d="m321.16 43.71c1.34 0.49 2.67 0.99 4.01 1.49-1.32 6.45-3.55 12.65-6.5 18.53-1.3-0.78-2.6-1.56-3.91-2.32 2.35-5.83 4.64-11.66 6.4-17.7z"/>
  <path d="m95.98 47.1h21.61c0 0.73 0.01 2.17 0.01 2.89-2.94 0.01-5.88 0.01-8.82 0.02v3.98c2.46 0.01 4.93 0.01 7.39 0.02 0.01 0.74 0.01 2.24 0.01 2.98-2.47 0.01-4.93 0.01-7.4 0.02v4.01c4.03 0 8.06 0 12.1 0.01-0.01 0.74-0.01 2.22-0.01 2.96-9.29 0.01-18.58 0.02-27.87 0 0-0.74 0.01-2.22 0.01-2.96 3.98-0.01 7.97-0.01 11.96-0.01 0-1.34 0.01-2.68 0.01-4.01-2.43-0.01-4.86-0.01-7.29-0.02 0-0.75 0-2.24 0.01-2.98 2.43-0.01 4.86-0.01 7.29-0.02v-3.98c-3.01-0.01-6.01-0.01-9.01-0.02v-2.89z"/>
  <path d="m164.9 46.88c0.9-0.01 2.69-0.01 3.59-0.01 0.03 0.55 0.09 1.66 0.12 2.21 2.79 0 5.59 0 8.39 0.01v2.95c-2.82 0-5.64 0.01-8.45 0.01 0 1.32 0 2.65 0.01 3.97 3.41 0.01 6.83 0.01 10.25 0.02-0.01 0.8-0.02 2.42-0.02 3.22-3.42 0-6.83 0.01-10.24 0.01 0 2.03-0.01 4.05-0.01 6.08h-3.68c-0.01-2.03-0.01-4.06-0.02-6.08-3.5-0.01-7-0.01-10.51 0.01 0.59-2.12 1.19-4.23 1.81-6.34 0.81 0.02 2.42 0.06 3.22 0.08-0.11 0.75-0.34 2.25-0.45 3.01 1.98 0 3.96-0.01 5.95-0.01 0-1.31 0-2.62 0.01-3.93-2.99-0.03-5.97 0-8.94 0.2-0.01-0.8-0.02-2.4-0.03-3.2 2.97-0.01 5.94-0.01 8.9-0.01 0.03-0.55 0.08-1.65 0.1-2.2z"/>
  <path d="m29.79 62.08c2.28-2.32 4.77-4.44 6.79-7.01-0.34 2.64-0.97 5.23-1.98 7.7-1.63 0.48-4.69 2.25-4.81-0.69z"/>
  <path d="m39.63 55.45c1.18 1.85 3.41 4.5 1.28 6.5-0.77 0.17-2.32 0.5-3.1 0.66 0.55-2.4 1.16-4.79 1.82-7.16z"/>
  <path d="m43.58 54.69c1.15 1.28 2.29 2.57 3.43 3.86 0.01 0.54 0.04 1.63 0.05 2.18l-3 1.56c-0.18-2.54-0.32-5.07-0.48-7.6z"/>
 </g>
</svg>
