<svg width="192.51mm" height="79.236mm" version="1.1" viewBox="0 0 682.13 280.76" xmlns="http://www.w3.org/2000/svg" xmlns:xlink="http://www.w3.org/1999/xlink">
 <defs>
  <pattern id="pattern6517-239-763-642-985" patternTransform="matrix(10.35 0 0 10.549 25.395 -13.516)" xlink:href="#Strips4_1-681-784-373-732"/>
  <pattern id="Strips4_1-681-784-373-732" width="1.25" height="1" patternTransform="translate(0) scale(10)" patternUnits="userSpaceOnUse">
   <rect y="-.5" width="1" height="2" fill="#00f"/>
  </pattern>
 </defs>
 <g transform="translate(-192.41 -510.14)">
  <g transform="translate(140.98 47.877)">
   <path d="m51.429 462.26h682.03v58.96h-682.03z" stroke-width="0"/>
   <path d="m51.429 686.08h682.13v56.94h-682.13z" stroke-width="0"/>
   <path d="m51.429 520.93h682.02v165.21h-682.02z" fill="#59f"/>
   <path transform="translate(-140.98 -47.877)" d="m201.35 522.95v30.68h4.1777v-13.496h1.7363c6.0395 0 9.0606-2.8322 9.0606-8.498 0-5.7904-2.9899-8.6856-8.9668-8.6856zm4.1777 3.5957h1.6895c1.815 0 3.0986 0.34246 3.8496 1.0273 0.75102 0.65376 1.127 1.9606 1.127 3.9219 0 1.8678-0.40709 3.1609-1.2207 3.877-0.78232 0.68488-2.0503 1.0273-3.8027 1.0273h-1.6426z" fill="#fff"/>
   <path transform="translate(-140.98 -47.877)" d="m245.65 522.95v30.68h4.1777v-30.68z" fill="#fff"/>
   <path transform="translate(-140.98 -47.877)" d="m278.2 522.95v3.8281h5.6797v26.852h4.2246v-26.852h5.6797v-3.8281z" fill="#fff"/>
   <path transform="translate(-140.98 -47.877)" d="m321.18 522.95v3.8281h5.6797v26.852h4.2246v-26.852h5.6797v-3.8281z" fill="#fff"/>
   <path transform="translate(-140.98 -47.877)" d="m372.18 522.63c-1.5646 0-2.9262 0.31098-4.084 0.9336-1.1578 0.59149-2.0655 1.4162-2.7227 2.4746-0.62585 1.0273-0.9375 2.1787-0.9375 3.4551 0 2.1169 0.43826 3.8922 1.3145 5.3242 0.90748 1.4009 2.2203 2.8475 3.9414 4.3418 1.7211 1.4632 2.958 2.6145 3.709 3.4551 0.75102 0.84053 1.127 1.9781 1.127 3.4102 0 1.0273-0.34477 1.9602-1.0332 2.8008-0.65715 0.84053-1.6116 1.2617-2.8633 1.2617-1.7211 0-3.5365-0.60815-5.4453-1.8223v4.25c1.9714 0.99619 3.8491 1.4941 5.6328 1.4941 2.7225 0 4.7092-0.74596 5.9609-2.2402 1.2517-1.5254 1.8789-3.3794 1.8789-5.5586 0-1.9612-0.43825-3.5791-1.3144-4.8555-0.8762-1.3075-2.191-2.6931-3.9434-4.1562-1.7211-1.4632-2.958-2.6618-3.709-3.5957-0.71974-0.96507-1.0781-2.2404-1.0781-3.8281 0-1.0896 0.35838-1.9162 1.0781-2.4766 0.71973-0.59148 1.6118-0.88672 2.6758-0.88672 1.5021 0 3.2239 0.56093 5.1641 1.6816v-4.1562c-1.7837-0.87166-3.5679-1.3066-5.3516-1.3066z" fill="#fff"/>
   <path transform="translate(-140.98 -47.877)" d="m407.8 522.95v30.68h6.9473c2.7851 0 4.7874-0.71641 6.0078-2.1484 1.2204-1.432 1.8301-3.2211 1.8301-5.3692v-2.1484c0-3.1442-1.5641-5.1833-4.6934-6.1172 2.7538-1.0273 4.1309-3.0191 4.1309-5.9766v-2.7559c0-4.1093-2.4873-6.1641-7.4629-6.1641zm4.1777 3.6426h2.2051c2.566 0 3.8496 1.1514 3.8496 3.4551v1.8223c0 2.8329-1.268 4.248-3.8027 4.248h-2.252zm0 12.936h2.3945c2.6599 0 3.9883 1.4781 3.9883 4.4356v1.5879c0 1.5877-0.32722 2.6918-0.98437 3.3144-0.65715 0.59149-1.596 0.88672-2.8164 0.88672h-2.582z" fill="#fff"/>
   <path transform="translate(-140.98 -47.877)" d="m451.47 522.95v22.508c0 2.8329 0.71873 4.9645 2.1582 6.3965 1.4708 1.432 3.4575 2.1484 5.9609 2.1484 2.7225 0 4.756-0.66919 6.1016-2.0078 1.3769-1.3386 2.0664-3.5174 2.0664-6.5371v-22.508h-4.1309v22.648c0 3.0197-1.3615 4.5293-4.084 4.5293-2.6286 0-3.9434-1.5883-3.9434-4.7637v-22.414z" fill="#fff"/>
   <path transform="translate(-140.98 -47.877)" d="m497.3 522.95v30.68h4.1777v-14.896l7.1348 14.896h4.459l-7.2754-15.084c1.9089-0.18679 3.3483-0.91699 4.3184-2.1934 0.97007-1.2764 1.4551-3.0202 1.4551-5.2305 0-2.9263-0.68953-5.0126-2.0664-6.2578-1.3769-1.2764-3.4416-1.9141-6.1953-1.9141zm4.1777 3.5957h1.7832c1.4708 0 2.5187 0.35821 3.1445 1.0742s0.93945 1.8516 0.93945 3.4082c0 2.0546-0.36034 3.456-1.0801 4.2031-0.71974 0.71601-1.7988 1.0742-3.2383 1.0742h-1.5488z" fill="#fff"/>
   <path transform="translate(-140.98 -47.877)" d="m550.69 522.63c-2.347 0-4.1779 0.66918-5.4922 2.0078-1.3143 1.3386-2.2064 3.1434-2.6758 5.416-0.43809 2.2414-0.65625 4.9969-0.65625 8.2656 0 10.46 2.9412 15.689 8.8242 15.689 2.2218 0 4.006-0.66919 5.3516-2.0078 1.3456-1.3698 2.2688-3.1903 2.7695-5.4629 0.53198-2.3037 0.79688-5.0434 0.79688-8.2188v-1.2148h-8.2617v3.7363h4.3652c0 3.4555-0.37397 5.8843-1.125 7.2852-0.75102 1.4009-2.0502 2.1016-3.8965 2.1016-3.1606 0-4.7402-3.9856-4.7402-11.955 0-3.8914 0.31164-6.8495 0.9375-8.873 0.62585-2.0546 1.8939-3.082 3.8027-3.082 1.283 0 2.2998 0.34246 3.0508 1.0274 0.78233 0.65374 1.3764 1.8071 1.7832 3.457l3.7559-1.7754c-0.8136-2.2726-1.8771-3.9062-3.1914-4.9024-1.283-0.99618-3.0828-1.4941-5.3984-1.4941z" fill="#fff"/>
   <path transform="translate(-140.98 -47.877)" d="m588.89 522.95v30.68h4.1777v-15.129h7.3691v15.129h4.1309v-30.68h-4.1309v11.674h-7.3691v-11.674z" fill="#fff"/>
   <path transform="translate(-140.98 -47.877)" d="m680.72 522.63c-2.347 0-4.1779 0.69873-5.4922 2.0996-1.3143 1.3698-2.2064 3.208-2.6758 5.5117-0.4381 2.2726-0.65625 4.965-0.65625 8.0781 0 4.7008 0.73627 8.4994 2.207 11.395 1.5021 2.864 3.707 4.2949 6.6172 4.2949 2.0027 0 3.6467-0.35821 4.9297-1.0742v-3.9688c-1.2517 0.84053-2.8957 1.2617-4.9297 1.2617-3.1606 0-4.7402-3.9856-4.7402-11.955-1e-5 -3.8291 0.32918-6.7873 0.98632-8.873 0.65715-2.0858 2.0323-3.1289 4.1289-3.1289 1.8776 0 3.4124 0.34246 4.6016 1.0273v-3.7812c-1.0014-0.59148-2.6609-0.88672-4.9766-0.88672z" fill="#fff"/>
   <path transform="translate(-140.98 -47.877)" d="m720.8 522.95-7.2285 30.68h4.2246l1.4082-6.0234h7.041l1.502 6.0234h4.1777l-7.2285-30.68zm1.9707 7.8926 2.7695 13.307h-5.584z" fill="#fff"/>
   <path transform="translate(-140.98 -47.877)" d="m760.35 522.95v30.68h6.9473c2.7851 0 4.7874-0.71641 6.0078-2.1484 1.2204-1.432 1.8301-3.2211 1.8301-5.3692v-2.1484c0-3.1442-1.5641-5.1833-4.6934-6.1172 2.7538-1.0273 4.1309-3.0191 4.1309-5.9766v-2.7559c0-4.1093-2.4893-6.1641-7.4648-6.1641zm4.1777 3.6426h2.2051c2.566 0 3.8496 1.1514 3.8496 3.4551v1.8223c0 2.8329-1.268 4.248-3.8027 4.248h-2.252zm0 12.936h2.3926c2.6599 0 3.9902 1.4781 3.9902 4.4356v1.5879c0 1.5877-0.32918 2.6918-0.98632 3.3144-0.65716 0.59149-1.596 0.88672-2.8164 0.88672h-2.5801z" fill="#fff"/>
   <path transform="translate(-140.98 -47.877)" d="m804.48 522.95v30.68h13.049v-3.8301h-8.8711v-26.85z" fill="#fff"/>
   <path transform="translate(-140.98 -47.877)" d="m846.9 522.95v30.68h12.346v-3.8301h-8.168v-10.365h7.5098v-3.6894h-7.5098v-9.0586h8.168v-3.7363z" fill="#fff"/>
   <path transform="translate(-140.98 -47.877)" d="m199.35 746.19v30.842h3.9434v-21.594l8.1211 21.594h3.8965v-30.842h-3.9434v21.406l-8.2148-21.406z" fill="#fff"/>
   <path transform="translate(-140.98 -47.877)" d="m259.75 746.19v30.842h12.348v-3.8496h-8.1699v-10.42h7.5117v-3.709h-7.5117v-9.1074h8.1699v-3.7559z" fill="#fff"/>
   <path transform="translate(-140.98 -47.877)" d="m314.76 746.19 5.1641 30.842h3.3789l3.8496-21.875 3.8496 21.875h3.3809l5.1641-30.842h-4.1309l-2.9121 21.125-3.6602-21.125h-3.4277l-3.5684 21.125-3.0039-21.125z" fill="#fff"/>
   <path transform="translate(-140.98 -47.877)" d="m389.88 745.87c-1.5648 0-2.926 0.31354-4.084 0.93946-1.1579 0.59462-2.0654 1.4242-2.7226 2.4883-0.62592 1.0328-0.9375 2.1895-0.9375 3.4726 0 2.1281 0.43817 3.912 1.3144 5.3516 0.90757 1.4083 2.2221 2.863 3.9434 4.3652 1.7213 1.4709 2.9559 2.6296 3.707 3.4746 0.7511 0.84498 1.127 1.9881 1.127 3.4277 0 1.0328-0.34469 1.9714-1.0332 2.8164-0.65721 0.84498-1.6115 1.2676-2.8633 1.2676-1.7213 0-3.5363-0.6115-5.4453-1.832v4.2734c1.9716 1.0015 3.849 1.502 5.6328 1.502 2.7227 0 4.7111-0.75172 5.9629-2.2539 1.2518-1.5335 1.877-3.3952 1.877-5.5859 0-1.9716-0.43817-3.5997-1.3144-4.8828-0.87627-1.3144-2.1908-2.7068-3.9434-4.1777-1.7213-1.4709-2.9559-2.6764-3.707-3.6152-0.7198-0.97016-1.0801-2.2535-1.0801-3.8496 0-1.0954 0.36028-1.923 1.0801-2.4863 0.7198-0.59462 1.6117-0.89258 2.6758-0.89258 1.5022 0 3.2218 0.56281 5.1621 1.6894v-4.1777c-1.7838-0.87628-3.5677-1.3145-5.3516-1.3145z" fill="#fff"/>
   <path transform="translate(-140.98 -47.877)" d="m501.77 745.87c-2.3472 0-4.1778 0.70498-5.4922 2.1133-1.3144 1.377-2.2063 3.2232-2.6758 5.5391-0.43814 2.2846-0.65625 4.9915-0.65625 8.1211 0 4.7256 0.73614 8.5426 2.207 11.453 1.5022 2.8792 3.7067 4.3203 6.6172 4.3203 2.0029 0 3.6466-0.36028 4.9297-1.0801v-3.9902c-1.2518 0.84498-2.8955 1.2676-4.9297 1.2676-3.1609 0-4.7402-4.0059-4.7402-12.018 0-3.8494 0.32912-6.8231 0.98632-8.9199 0.65722-2.0968 2.0341-3.1445 4.1309-3.1445 1.8777 0 3.4104 0.3447 4.5996 1.0332v-3.8027c-1.0015-0.59462-2.6607-0.89258-4.9766-0.89258z" fill="#fff"/>
   <path transform="translate(-140.98 -47.877)" d="m550.98 746.19v30.842h4.1777v-15.209h7.3691v15.209h4.1309v-30.842h-4.1309v11.736h-7.3691v-11.736z" fill="#fff"/>
   <path transform="translate(-140.98 -47.877)" d="m616.92 746.19-7.2285 30.842h4.2246l1.4082-6.0547h7.041l1.502 6.0547h4.1797l-7.2305-30.842zm1.9726 7.9336 2.7695 13.379h-5.5859z" fill="#fff"/>
   <path transform="translate(-140.98 -47.877)" d="m671.27 746.19v30.842h3.9434v-21.594l8.1211 21.594h3.8965v-30.842h-3.9434v21.406l-8.2148-21.406z" fill="#fff"/>
   <path transform="translate(-140.98 -47.877)" d="m731.48 746.19v30.842h3.9434v-21.594l8.1211 21.594h3.8965v-30.842h-3.9434v21.406l-8.2148-21.406z" fill="#fff"/>
   <path transform="translate(-140.98 -47.877)" d="m791.88 746.19v30.842h12.348v-3.8496h-8.1699v-10.42h7.5117v-3.709h-7.5117v-9.1074h8.1699v-3.7559z" fill="#fff"/>
   <path transform="translate(-140.98 -47.877)" d="m848.34 746.19v30.842h13.051v-3.8496h-8.873v-26.992z" fill="#fff"/>
   <rect transform="rotate(-90)" x="-686.44" y="51.439" width="166.96" height="681.87" fill="url(#pattern6517-239-763-642-985)" stroke-width="0"/>
   <rect x="357.79" y="521.21" width="199.17" height="165.29" fill="#fff" stroke="#000" stroke-width="5.126"/>
   <g transform="scale(1.0892 .91808)" stroke-width="1px">
    <path d="m359.89 600.6v117.22h40.405v-57.447l35.043 57.447h40.966v-117.22h-40.326v58.008l-35.285-58.008z"/>
   </g>
  </g>
  <path d="m257.54 575.09c-20.874 0-34.636 0.22934-50.693 2.0645-1.8351 0.91755-1.8362 4.8181-0.23047 6.4238l8.0293 0.91602c9.6344 1.147 9.8633 4.819 9.8633 25.693v83.955c0 24.315-2.0644 25.233-12.846 26.609l-3.6699 0.45899c-1.6057 1.6057-1.3761 5.7348 0.45899 6.6523 9.1756-0.45877 19.497-0.6875 29.59-0.6875s20.417 0.22873 33.951 0.6875c1.6057-0.91755 1.8353-5.0466 0.45899-6.6523l-8.4883-0.91797c-10.781-1.147-12.846-1.8352-12.846-26.15v-100.24c0-8.9462 0.22977-9.6348 11.699-9.6348 20.874 0 32.803 16.287 32.803 34.867 0 18.81-7.5709 33.949-28.445 38.078-1.1469 1.3763-0.91627 4.358 0.68946 5.7344 1.8351 0.22939 3.6699 0.23047 5.7344 0.23047 18.122 0 51.383-9.6348 51.383-44.502 0-15.14-7.5698-27.297-19.498-34.408-10.323-5.9641-26.151-9.1758-47.943-9.1758z" fill="#fff"/>
  <path d="m427.91 572.11c-23.168 0-46.336 6.6523-63.311 19.498-16.975 13.075-28.902 33.951-28.902 60.789 0 30.05 13.992 50.924 32.572 63.082 16.516 10.781 36.015 15.369 58.725 15.369 14.91 0 30.737-3.9001 35.783-5.5059 2.5233-0.68817 5.2766-1.6057 8.0293-2.0644 3.2114-4.3584 9.406-19.498 11.012-34.867-1.1469-2.0645-4.8183-2.9825-6.8828-0.91797-6.4229 14.91-19.038 34.18-47.941 34.18-29.591 0-60.1-23.857-60.1-72.717 0-47.025 29.362-67.67 58.494-67.67 30.279 0 40.6 19.039 44.5 33.49 1.6057 1.6057 5.7361 1.3781 7.3418-0.45703-2.2939-16.975-2.7541-30.509-3.2129-35.785-2.0645-0.45878-3.6692-0.68879-6.4219-1.377-10.781-2.7527-26.61-5.0469-39.686-5.0469z" fill="#fff"/>
  <path d="m805.91 572.11c-23.168 0-46.336 6.6523-63.311 19.498-16.975 13.075-28.902 33.951-28.902 60.789 0 30.05 13.992 50.924 32.572 63.082 16.516 10.781 36.015 15.369 58.725 15.369 14.91 0 30.737-3.9001 35.783-5.5059 2.5233-0.68817 5.2766-1.6057 8.0293-2.0644 3.2114-4.3584 9.406-19.498 11.012-34.867-1.1469-2.0645-4.8183-2.9825-6.8828-0.91797-6.4229 14.91-19.038 34.18-47.941 34.18-29.591 0-60.1-23.857-60.1-72.717 0-47.025 29.362-67.67 58.494-67.67 30.279 0 40.6 19.039 44.5 33.49 1.6057 1.6057 5.7361 1.3781 7.3418-0.45703-2.2939-16.975-2.7541-30.509-3.2129-35.785-2.0645-0.45878-3.6692-0.68879-6.4219-1.377-10.781-2.7527-26.61-5.0469-39.686-5.0469z" fill="#fff"/>
 </g>
</svg>
