<svg width="800" height="800" version="1.1" viewBox="0 0 800 800" xmlns="http://www.w3.org/2000/svg">
 <defs>
  <radialGradient id="radialGradient-1" cx="18.102" cy="6.1374" r="18.531" gradientUnits="userSpaceOnUse">
   <stop stop-color="#02C3F2" offset="0"/>
   <stop stop-color="#195CDA" offset=".51814"/>
   <stop stop-color="#2D02C5" offset=".67608"/>
   <stop stop-color="#16006A" offset="1"/>
  </radialGradient>
  <radialGradient id="radialGradient-2" cx="13" cy="13" r="12.946" gradientUnits="userSpaceOnUse">
   <stop stop-color="#2D02C5" stop-opacity="0" offset="0"/>
   <stop stop-color="#2D02C5" stop-opacity="0" offset=".8855"/>
   <stop stop-color="#16006A" stop-opacity=".28" offset="1"/>
  </radialGradient>
 </defs>
 <g transform="matrix(30.769 0 0 30.769 -246.15 -92.308)" fill="none" fill-rule="evenodd">
  <g transform="translate(8,3)">
   <path d="m13 0c-7.1797 0-13 5.8203-13 13s5.8203 13 13 13 13-5.8203 13-13-5.8203-13-13-13z" fill="url(#radialGradient-1)"/>
   <path d="m13 0c-7.1797 0-13 5.8203-13 13s5.8203 13 13 13 13-5.8203 13-13-5.8203-13-13-13z" fill="url(#radialGradient-2)"/>
   <path d="m11.946 10.657h-1.2878v1.3477c0.44941-0.22684 0.86856-0.4384 1.2878-0.65z" fill="#fff"/>
   <path d="m8.4003 11.423c-0.25695 0.39345-0.64203 0.59074-1.0882 0.67986-0.17316 0.03458-0.35181 0.0549-0.52833 0.05738-0.57505 0.0081-1.1503 0.0054-1.7255 0.0053-0.057281 0-0.11456-0.01092-0.19358-0.01894v-3.6606c0.058906-0.011375 0.10674-0.02925 0.15422-0.028437 0.70139 0.012035 1.4041 0.00421 2.1038 0.045754 1.0031 0.059566 1.5778 0.69829 1.5889 1.7103 0.00472 0.43189-0.071652 0.84231-0.31139 1.2094m-0.58145-4.2863c-0.54854-0.13442-1.1089-0.11878-1.6646-0.13198-0.85379-0.020211-1.7084-0.0046211-2.5627-0.0027421-0.090188 2.031e-4 -0.18038 0.010258-0.2635 0.015285-0.064188 0.30154-0.048547 9.7685 0.011172 9.949h1.5108v-3.376c0.13701 0 0.22836-5.1e-5 0.31972 0 0.48207 1.02e-4 0.96474 0.01447 1.4461-4e-3 0.40402-0.01559 0.81367-0.03412 1.2085-0.11304 1.1694-0.2337 1.9561-0.91823 2.2972-2.0749 0.15214-0.51584 0.18302-1.0429 0.11791-1.5813-0.17514-1.4489-1.1945-2.3798-2.4207-2.6802" fill="#fff"/>
   <path d="m16.662 13.548c0.22136-0.26691 0.44748-0.53 0.66569-0.79945 0.21252-0.26249 0.44698-0.50923 0.66295-0.82514-0.52254 0-0.98729-0.0054-1.4517 0.0052-0.07978 0.0018-0.17773 0.05352-0.23319 0.11365-0.16022 0.17382-0.30245 0.36415-0.45282 0.54707-0.21348 0.25975-0.42783 0.51868-0.65117 0.78929-0.05809-0.06409-0.09872-0.10522-0.13518-0.14975-0.31083-0.37954-0.62364-0.75745-0.92935-1.1411-0.09207-0.11548-0.19393-0.17032-0.34475-0.16722-0.38898 8e-3 -0.77827 0.0014-1.1674 0.0038-0.06048 4.06e-4 -0.12081 0.01706-0.21465 0.03128 0.68098 0.82271 1.3358 1.6138 1.9928 2.4075-0.71475 0.8777-1.4072 1.728-2.1096 2.5905 0.04738 0.0163 0.06896 0.03016 0.09065 0.03022 0.43139 0.0018 0.86288-0.0014 1.2942 0.0047 0.11949 0.0017 0.18281-0.06343 0.24908-0.14412 0.34364-0.41824 0.68915-0.8349 1.0351-1.2512 0.07302-0.0878 0.15067-0.17174 0.23522-0.26772 0.07114 0.08145 0.12177 0.13711 0.16986 0.1949 0.36227 0.4357 0.72191 0.87369 1.0884 1.3059 0.05606 0.06612 0.14173 0.14904 0.21587 0.15128 0.46257 0.01386 0.92574 7e-3 1.4526 7e-3 -0.7315-0.89807-1.4274-1.7524-2.1348-2.621 0.23268-0.28255 0.4516-0.54966 0.67204-0.8155" fill="#fff"/>
   <path d="m19.721 15.665c-0.0078-0.13762-0.0197-0.24654-0.0194-0.35547 0.0039-1.4718 0.0099-2.9437 0.01376-4.4156 2.03e-4 -0.08044-0.01275-0.16088-0.02057-0.25314-0.4549-0.01-0.88075-0.01341-1.3091-6.09e-4v6.3275h4.7447v-1.3027z" fill="#fff"/>
   <path d="m10.663 12.595v4.376h1.2664c0.06652-0.32373 0.05175-4.817-0.0197-5.0076-0.42154 0.21354-0.84078 0.42595-1.2467 0.63162" fill="#fff"/>
  </g>
 </g>
</svg>
