<svg width="1066.7" height="559.78" version="1.1" viewBox="0 0 1e3 524.79" xmlns="http://www.w3.org/2000/svg">
 <g transform="translate(95.5 -700.53)" fill="#fff">
  <path d="m58.466 1143.2h-98.671l102.12-380.14h123.48c92.867 0 142.75 40.67 148.89 104.78 0 0 32.045-24.692 85.473-24.692 63.856 0 119.51 31.146 137.64 96.767l23.917-91.174h97.924l-3.9043 15.406s21.189-21.421 62.68-21.421c73.335 0 115.86 55.479 115.86 127.26 0 113.62-85.693 178.62-163 178.62-59.55 0-82.761-34.69-82.761-34.69l-29.033 110.91h324.92v-523.79h-999v523.79h576.27l35.268-132.41c-24.291 28.901-68.197 57.155-124.31 57.155-85.616 0-142.95-55.461-142.81-136.55 0 0-31.353 21.042-108.64 21.042h-52.977z"/>
  <path d="m135.41 853.35h45.217c35.737 0 53.126 14.884 53.126 37.606 0.47484 33.903-34.578 54.768-77.152 54.768h-44.918z"/>
  <path d="m345.16 1010.4c0-45.831 36.592-81.99 70.594-81.99 32.22 0 50.967 20.899 50.967 53.816 0 43.836-33.866 81.779-70.805 81.779-28.42 0-50.756-16.515-50.756-53.605z"/>
  <path d="m640.41 1010.4c0-45.831 35.498-81.357 69.857-81.357 32.558 0 52.979 22.165 52.979 53.183 0 43.836-32.11 81.779-71.548 81.779-28.718 0-51.288-16.515-51.288-53.605z"/>
 </g>
</svg>
