<svg width="1e3" height="299.53" version="1.1" viewBox="0 0 100 29.953" xmlns="http://www.w3.org/2000/svg">
 <g transform="translate(13.171 22.68)" fill-rule="evenodd">
  <path d="m30.461 0.41624c-3.8594 0-7.6805-3.0613-7.6805-7.7517 0-4.9578 3.9774-7.8012 7.6915-7.8012 4.1341 0 7.8347 3.2325 7.8347 7.7565 0 3.2293-1.9041 5.1169-1.9041 5.1169 0.7991 0.90186 1.5197 1.3822 2.6677 1.3822 0.09333 0 0.15808 0.065923 0.15808 0.15808v1.3123c0 0.096-0.06872 0.14316-0.14316 0.14316-3.4791 0-3.7123-2.6986-5.7217-3.2932-0.23093-0.050772-0.30904-0.25644-0.03579-0.40698 0 0 0.49617-0.33322 1.0756-0.33322 0.24775 0 0.59269 0.07221 0.59269 0.07221s1.7019-1.5561 1.7019-4.1636c0-3.302-2.865-6.1499-6.0908-6.1499-3.6883 0-6.2258 3.0531-6.2258 6.1203 0 3.7064 3.1228 6.2157 6.1797 6.2157 0.56476 0 1.0021-0.1372 1.4436-0.1372 0.60297 0 1.0838 0.45315 1.4258 0.93888 0.11531 0.18504-0.03142 0.28648-0.34607 0.37643 0 0-0.97644 0.44437-2.6232 0.44437z" fill="#fff"/>
  <g transform="matrix(.39103 0 0 .39103 -12.897 -38.459)">
   <path transform="scale(.1)" d="m-1 403.52c-3.324 0-6 2.676-6 6v754c0 3.324 2.676 6 6 6h754c3.324 0 6-2.676 6-6v-754c0-3.324-2.676-6-6-6zm28 34h698v698h-698z" fill="#f67963"/>
   <path d="m37.634 97.451c-10.434 0-19.288-8.633-19.288-19.288 0-9.8212 7.8017-19.216 19.361-19.216 10.221 0 19.15 8.2407 19.15 19.262 0 7.7073-4.5982 12.397-4.5982 12.397 1.5057 1.6415 3.0758 3.1451 5.9404 3.1451 0.28078 0 0.5 0.13089 0.5 0.5v3.6c0 0.34369-0.21879 0.5-0.5 0.5-4.6266 0-7.4112-2.5395-9.9325-5.5989-1.2556-1.3007-3.01-2.7486-4.4217-3.0687-0.78253-0.18104-0.86548-0.60685-0.4215-1.0215 0.83442-0.86952 1.9334-1.3091 3.3174-1.3091l1.8298 0.32232c1.5658-1.7932 3.6073-5.0085 3.6073-9.4538 0-7.8266-6.2236-14.58-14.548-14.58-7.9252 0-14.615 6.3926-14.615 14.587 0 7.1321 5.7746 14.557 14.904 14.557 0.59468 0.0051 1.6499-0.14876 2.2339-0.14876 1.8534 0 3.1246 0.91023 4.4109 2.6604 0.28603 0.34436 0.36103 0.75448-0.3847 0.98394-1.3618 0.47382-3.9178 1.1697-6.5458 1.1697z" fill="#fff"/>
  </g>
  <path d="m46.206 0.1805c0.11859 0.25876 0.2245 0.19276 0.32907-0.002412l7.0299-14.972c0.05883-0.12493-0.01442-0.18663-0.0926-0.18663h-1.5638c-0.10368 0-0.14154 0.07745-0.23761 0.2893l-5.3038 11.304-5.3418-11.365c-0.07812-0.1798-0.11842-0.22865-0.21673-0.22865h-1.531c-0.15271 0-0.17956 0.07858-0.12328 0.17795z" fill="#fff"/>
  <path d="m62.224 0.41027c-4.2291 0-7.7853-3.2931-7.7853-7.8533 0-4.3315 3.5193-7.7063 7.7379-7.7063 3.1295 0 5.0722 1.8475 5.0722 1.8475 0.17535 0.1671 0.24961 0.28388 0.05665 0.48563l-0.72176 0.72176c-0.17186 0.17248-0.28665 0.13578-0.40164 0.01983 0 0-1.5145-1.4617-4.0058-1.4617-3.2656 0-6.1143 2.7946-6.1143 6.1471 0 3.5706 2.9781 6.155 6.1527 6.155 1.7804 0 2.8012-0.63701 3.8278-1.3287 0.19878-0.13534 0.29194-0.17051 0.42097-0.028369l0.72707 0.803c0.14859 0.15614 0.13646 0.30958-0.01612 0.41698-1.0274 0.77282-2.7378 1.7816-4.9504 1.7816z" fill="#fff"/>
  <path d="m77.245 0.28397c-0.17843 0-0.37933-0.10858-0.37933-0.42947 0-2.2953 1.5738-4.4461 4.8058-6.3943 1.1532-0.6854 3.5542-2.0734 3.5542-4.0099 0-1.6468-1.5411-3.0256-3.4459-3.0256-1.702 0-2.619 0.79555-3.3141 2.1714-0.10753 0.19087-0.24645 0.24443-0.37475 0.18125l-0.91329-0.43813c-0.1444-0.06919-0.25509-0.15005-0.12843-0.41834 0.95489-2.0608 2.471-3.1706 4.7522-3.1706 2.7961 0 5.0274 1.8699 5.0274 4.7191 0 3.0191-2.4867 4.257-4.0284 5.223-2.0092 1.1147-3.5312 2.5118-4.0632 3.962h7.881c0.12117 0 0.19407 0.083686 0.19407 0.18628v1.2689c0 0.13002-0.03709 0.17422-0.17052 0.17422z" fill="#fff"/>
  <rect x="70.423" y="-9.1431" width="3.7675" height="3.7675" fill="#f67963"/>
 </g>
</svg>
