<svg width="750pt" height="224.97pt" version="1.1" viewBox="0 0 750 224.97" xmlns="http://www.w3.org/2000/svg">
 <path d="m679.83 70.766c14.232-16.162 42.539-20.865 58.484-4.7335 12.924 12.394 8.9376 35.968-7.4739 43.349 6.9757 3.3633 14.263 7.7854 16.879 15.54 6.1037 14.076-0.5294 31.453-13.796 38.709-18.654 10.308-44.875 5.3252-57.954-11.678l9.6227-8.7819c10.682 10.993 28.401 16.194 42.384 8.4393 9.685-5.5432 10.775-20.398 2.4602-27.654-5.4109-5.7577-13.089-7.0879-20.663-7.0879h-7.707l0.0623-13.853h7.6447c5.5094 0 10.967-0.43741 15.493-3.8164 8.7196-5.8234 9.685-21.145-0.18685-26.346-12.239-6.7266-26.719-0.84082-36.249 7.8476z" fill="#fff" stroke-width="3.1141"/>
 <path d="m327.71 173.47c-28.987 0-57.686-22.992-57.686-58.221 0-37.237 29.873-58.593 57.769-58.593 31.05 0 58.844 24.278 58.844 58.257 0 24.255-14.301 38.431-14.301 38.431 6.0018 6.7736 11.414 10.381 20.036 10.381 0.70096 0 1.1872 0.49512 1.1872 1.1873v9.8566c0 0.72104-0.51614 1.0752-1.0752 1.0752-26.131 0-27.882-20.269-42.974-24.734-1.7344-0.38133-2.3211-1.926-0.26875-3.0567 0 0 3.7266-2.5027 8.0785-2.5027 1.8608 0 4.4515 0.54236 4.4515 0.54236s12.783-11.688 12.783-31.272c0-24.8-21.518-46.19-45.746-46.19-27.701 0-46.76 22.931-46.76 45.968 0 27.838 23.455 46.684 46.414 46.684 4.2418 0 7.5262-1.0305 10.842-1.0305 4.5288 0 8.1405 3.4035 10.709 7.0516 0.86611 1.3898-0.23605 2.1516-2.5992 2.8273 0 0-7.3338 3.3376-19.702 3.3376z" fill="#fff" fill-rule="evenodd"/>
 <g transform="matrix(2.937 0 0 2.937 2.0559 -118.51)" fill-rule="evenodd">
  <path transform="scale(.1)" d="m-1 403.52c-3.324 0-6 2.676-6 6v754c0 3.324 2.676 6 6 6h754c3.324 0 6-2.676 6-6v-754c0-3.324-2.676-6-6-6zm28 34h698v698h-698z" fill="#f67963"/>
  <path d="m37.634 97.451c-10.434 0-19.288-8.633-19.288-19.288 0-9.8212 7.8017-19.216 19.361-19.216 10.221 0 19.15 8.2407 19.15 19.262 0 7.7073-4.5982 12.397-4.5982 12.397 1.5057 1.6415 3.0758 3.1451 5.9404 3.1451 0.28078 0 0.5 0.13089 0.5 0.5v3.6c0 0.34369-0.21879 0.5-0.5 0.5-4.6266 0-7.4112-2.5395-9.9325-5.5989-1.2556-1.3007-3.01-2.7486-4.4217-3.0687-0.78253-0.18104-0.86548-0.60685-0.4215-1.0215 0.83442-0.86952 1.9334-1.3091 3.3174-1.3091l1.8298 0.32232c1.5658-1.7932 3.6073-5.0085 3.6073-9.4538 0-7.8266-6.2236-14.58-14.548-14.58-7.9252 0-14.615 6.3926-14.615 14.587 0 7.1321 5.7746 14.557 14.904 14.557 0.59468 0.0051 1.6499-0.14876 2.2339-0.14876 1.8534 0 3.1246 0.91023 4.4109 2.6604 0.28603 0.34436 0.36103 0.75448-0.3847 0.98394-1.3618 0.47382-3.9178 1.1697-6.5458 1.1697z" fill="#fff"/>
 </g>
 <path d="m445.96 171.7c0.89067 1.9435 1.6862 1.4477 2.4715-0.0187l52.8-112.45c0.44183-0.93832-0.10837-1.4017-0.69552-1.4017h-11.745c-0.77866 0-1.063 0.58172-1.7846 2.1728l-39.835 84.904-40.121-85.36c-0.58674-1.3504-0.8894-1.7174-1.6278-1.7174h-11.499c-1.1469 0-1.3486 0.59019-0.9259 1.3365z" fill="#fff" fill-rule="evenodd"/>
 <path d="m566.27 173.43c-31.763 0-58.473-24.733-58.473-58.984 0-32.533 26.432-57.88 58.117-57.88 23.505 0 38.096 13.876 38.096 13.876 1.317 1.255 1.8748 2.1322 0.42548 3.6474l-5.421 5.4209c-1.2908 1.2955-2.1529 1.0198-3.0166 0.14886 0 0-11.375-10.978-30.087-10.978-24.527 0-45.923 20.989-45.923 46.169 0 26.818 22.368 46.229 46.211 46.229 13.372 0 21.039-4.7844 28.75-9.9793 1.493-1.0165 2.1927-1.2807 3.1618-0.21301l5.4608 6.0311c1.116 1.1727 1.0249 2.3252-0.12114 3.1318-7.7163 5.8044-20.563 13.381-37.181 13.381z" fill="#fff" fill-rule="evenodd"/>
 <rect x="627.85" y="101.67" width="28.296" height="28.296" fill="#f67963" fill-rule="evenodd"/>
</svg>
