<svg width="211.67mm" height="35.556mm" version="1.1" viewBox="0 0 750 125.98" xmlns="http://www.w3.org/2000/svg">
 <g transform="translate(39.012 -483.01)">
  <g transform="matrix(2.3003 0 0 -2.3003 -39.012 723.1)">
   <g transform="scale(.1)">
    <g transform="matrix(.83005 0 0 .83005 -2.4593e-7 84.301)" fill="#fff">
     <path d="m943.23 1014.4 236.25 0.02c54.67 0.04 79.03-19.996 79.05-64.977 0-14.961 0-60.586-72.9-60.586l-242.4-0.058zm481-150.23c15.99 35.527 17.84 66.699 17.84 87.07-0.03 90.66-51.09 162.13-133.12 186.45-25.11 7.79-49.55 12.01-106.67 12.01l-439.98-0.06 0.086-646.39 180.91 0.039-0.031 249.39 157.15 0.039 165.15-249.38 216.51 0.02-191.96 263.32c54.58 12.129 106.33 34.903 134.12 97.485"/>
     <path d="m1694.3 761.58 393.64 0.059-0.01 137.02-393.66-0.058v113.3l422.41 0.06-0.02 137.87-604.23-0.09 0.09-646.36 621.79 0.098v136.99l-440-0.059-0.01 121.17"/>
     <path d="m2356.2 761.66 393.63 0.059v137.04l-393.65-0.059-0.02 113.28 422.42 0.06v137.87l-604.24-0.08 0.08-646.35 621.8 0.078v136.99l-440.02-0.059v121.17"/>
     <path d="m3018.8 1149.9-181.05-0.04 0.1-646.35 455.35 0.058v140.51l-274.34-0.019-0.06 505.84"/>
     <path d="m3927.9 1150.1-599.43-0.06 0.02-136.15 367.83 0.06-367.54-378.07v-132.23l599.22 0.098v139.63l-368.36-0.059 368.3 378.07-0.04 128.71"/>
    </g>
    <path d="m554.22 911.79c0-72.873-59.05-131.97-131.95-131.97-72.872-0.0324-131.96 59.044-131.96 131.95-0.0199 72.858 59.05 131.95 131.92 131.97 72.895 0 131.98-59.058 131.99-131.95" fill="#3f9ba1"/>
    <path d="m263.92 911.78c0.00996-72.905-59.06-131.98-131.95-132-72.863 0-131.97 59.06-131.97 131.95-0.0097272 72.874 59.06 131.97 131.93 131.97 72.895 0.033 131.97-59.058 131.99-131.92" fill="#6dbab8"/>
    <path d="m263.95 628.05c0.00996-72.873-59.057-132-131.96-132-72.866-0.0166-131.94 59.092-131.96 131.95-0.01297 72.889 59.064 131.98 131.93 132 72.883 0 131.98-59.06 131.98-131.95" fill="#6dbab8"/>
    <path d="m554.26 628.08c0.0166-72.856-59.05-131.98-131.94-131.98-72.873-0.0158-131.96 59.077-131.96 131.95-0.0199 72.89 59.067 131.98 131.92 131.98 72.906 0.0166 131.98-59.077 131.98-131.95" fill="#6dbab8"/>
   </g>
  </g>
 </g>
</svg>
