<svg width="739" height="320.03" version="1.1" xmlns="http://www.w3.org/2000/svg">
 <g transform="translate(-9.7837 -378.03)">
  <path d="m9.7837 484.48h66.068v-65.968h-66.068z" fill="#c91e25"/>
  <path d="m75.851 484.48h66.066v-65.968h-66.066z" fill="#2c3383"/>
  <path d="m75.851 550.46h66.066v-65.978h-66.066z" fill="#47aa39"/>
  <path d="m9.7837 550.46h66.068v-65.978h-66.068z" fill="#f2ab0e"/>
  <g fill="#fff">
   <path d="m563.59 638.66c0-7.9281-1.7142-14.534-5.1391-19.824-4.0521-6.1715-9.7685-9.251-17.156-9.251-15.934 0-23.896 9.6922-23.896 29.075 0 8.0104 1.7641 14.62 5.278 19.816 4.2232 6.1643 10.424 9.2507 18.618 9.2507 7.3878 0 13.104-3.0864 17.156-9.2507 3.4249-5.2859 5.1391-11.885 5.1391-19.816zm-54.694 59.405v-93.537h7.673v12.963h0.26728c1.9494-4.6177 5.1141-8.2678 9.4976-10.973 4.3835-2.7078 9.3658-4.0649 14.943-4.0649 9.9217 0 17.666 3.6266 23.25 10.879 5.0464 6.5404 7.5696 14.982 7.5696 25.327 0 10.333-2.5125 18.78-7.5482 25.322-5.5667 7.2544-13.286 10.877-23.172 10.877-5.303 0-10.071-1.2947-14.309-3.859-4.5047-2.6632-7.6373-6.3912-9.4014-11.179h-0.26729v38.244h-8.5033"/>
   <path d="m585.06 672.79h8.5031v-94.47h-8.5031z"/>
   <path d="m614.36 633.71h44.124c-0.17463-6.6334-2.1597-12.237-5.9445-16.785-4.0485-4.8903-9.2909-7.3365-15.724-7.3365-6.422 0-11.714 2.4947-15.845 7.4716-3.7028 4.3671-5.9053 9.9303-6.6109 16.65zm52.631 7.132h-52.631c0.0891 7.0721 1.8603 13.064 5.3101 18.017 4.1697 5.9139 9.9253 8.8708 17.278 8.8708 11.347 0 18.528-5.8109 21.536-17.432h8.5069c-3.8311 16.376-13.838 24.564-30.032 24.564-10.324 0-18.247-3.5847-23.76-10.747-4.9003-6.4483-7.3415-14.933-7.3415-25.451 0-9.9855 2.4341-18.304 7.3094-24.933 5.581-7.508 13.464-11.274 23.657-11.274 10.367 0 18.247 4.0161 23.657 12.049 4.6936 6.9677 6.864 15.752 6.5111 26.336"/>
   <path d="m670.14 672.79 26.458-35.457-24.469-32.806h10.442l19.451 25.921 19.049-25.921h10.449l-24.605 32.669 26.661 35.594h-10.595l-21.451-28.715-21.066 28.715h-10.324"/>
   <path d="m178.9 550.36v-132.75h34.615v24.808h0.51534c3.2434-8.2553 8.8886-15.042 16.921-20.374 8.0325-5.3319 16.49-7.9976 25.385-7.9976 2.7288 0 5.3807 0.43159 7.9492 1.2876v34.003c-3.7866-0.95368-8.1787-1.4337-13.162-1.4337-24.098 0-36.14 14.209-36.14 42.622v59.832h-36.084"/>
   <path d="m303.4 469.73h59.555c-3.4384-18.704-13.148-28.06-29.13-28.06-10.316 0-18.223 3.4038-23.722 10.204-4.1276 5.1048-6.3618 11.055-6.7029 17.855zm95.965 23.165h-95.965c1.03 22.274 11.924 33.411 32.68 33.411 7.03 0 13.371-1.8571 19.037-5.5738 5.318-3.2035 8.5753-7.004 9.7795-11.395h32.165c-9.7436 29.729-30.432 44.588-62.054 44.588-20.687 0-37.135-6.4595-49.358-19.378-12.223-12.919-18.334-29.729-18.334-50.435 0-20.187 6.2784-36.908 18.842-50.168s28.845-19.893 48.85-19.893c21.536 0 38.202 8.0532 49.998 24.146 10.941 14.729 15.724 32.954 14.359 54.698"/>
   <path d="m467.14 377.96v39.648h26.768v24.501h-26.768v65.675c0 6.1601 1.03 10.268 3.0898 12.322 2.0599 2.0521 6.1726 3.0752 12.356 3.0752 4.1127 0 7.8832-0.34106 11.322-1.0289v28.267c-5.107 0.84926-12.181 1.2723-21.208 1.2723-27.766 0-41.644-10.497-41.644-31.497v-78.086h-22.274v-24.501h22.274v-39.648h36.084"/>
   <path d="m521.36 550.36v-132.75h34.63v24.808h0.51319c3.2431-8.2553 8.8882-15.042 16.921-20.374 8.0329-5.3319 16.49-7.9976 25.385-7.9976 2.7299 0 5.3814 0.43159 7.9509 1.2876v34.003c-3.7884-0.95368-8.179-1.4337-13.165-1.4337-24.095 0-36.137 14.209-36.137 42.622v59.832h-36.098"/>
   <path d="m648.11 484.11c0 12.11 2.3129 21.745 6.9495 28.9 5.4848 8.8665 13.892 13.293 25.225 13.293 21.611 0 32.42-14.06 32.42-42.194 0-28.292-10.809-42.442-32.42-42.442-21.454 0-32.174 14.15-32.174 42.442zm-36.084 0c0-21.216 6.2153-38.189 18.664-50.941 12.438-12.745 28.97-19.121 49.594-19.121 20.784 0 37.399 6.3757 49.844 19.121 12.438 12.752 18.66 29.725 18.66 50.941 0 21.047-6.2225 37.948-18.66 50.694-12.445 12.75-29.06 19.119-49.844 19.119-20.624 0-37.157-6.3689-49.594-19.119-12.448-12.746-18.664-29.647-18.664-50.694"/>
  </g>
 </g>
</svg>
