<svg width="800" height="222.22" data-reactid=".22cohvwr192.0.$=11:0.0.0.0.0" version="1.1" viewBox="0 0 800 222.22" xmlns="http://www.w3.org/2000/svg">
 <path d="m0 0h800v222.22h-800z" fill="#f01c20" style="paint-order:stroke fill markers"/>
 <g transform="matrix(3.752 0 0 3.752 -13.392 -4.337)" fill="#fff" data-reactid=".22cohvwr192.0.$=11:0.0.0.0.0.0">
  <path d="m129.41 41.84c-4.76 0-6.2-3-6.2-11.07 0-8.87 1.44-11.12 6.16-11.12s6.16 2.25 6.16 11.12c0 8.09-1.44 11.07-6.12 11.07zm0-28.3c-8.38 0-13 5.65-13 17.32 0 11.07 4.07 17.14 13.06 17.14s12.93-6.06 12.93-17.14c0-11.67-4.64-17.32-13-17.32z" data-reactid=".22cohvwr192.0.$=11:0.0.0.0.0.0.0"/>
  <polyline points="178.17 14.23 178.17 20.39 187.08 20.39 187.08 47.4 193.45 47.4 193.45 20.39 202.36 20.39 202.36 14.23 178.17 14.23" data-reactid=".22cohvwr192.0.$=11:0.0.0.0.0.0.1"/>
  <polyline points="160.83 14.23 154.47 14.23 154.47 47.4 173.68 47.4 173.68 40.88 160.83 40.88 160.83 14.23" data-reactid=".22cohvwr192.0.$=11:0.0.0.0.0.0.2"/>
  <polyline points="94.7 38.95 88.29 14.23 81.4 14.23 91.21 47.4 98.15 47.4 108 14.23 101.39 14.23 94.7 38.95" data-reactid=".22cohvwr192.0.$=11:0.0.0.0.0.0.3"/>
  <polyline points="59.07 32.98 70.2 32.98 70.2 27.51 59.07 27.51 59.07 20.02 71.84 20.02 71.84 14.23 52.71 14.23 52.71 47.4 72 47.4 72 41.61 59.07 41.61 59.07 32.98" data-reactid=".22cohvwr192.0.$=11:0.0.0.0.0.0.4"/>
  <path d="m28.26 29.3h-3.9v-9.3h4c3.74 0 4.72 1.15 4.72 4.46s-0.92 4.84-4.82 4.84zm11.95-5.15c0-5.51-2.26-9.92-11.13-9.92h-11.08v33.17h6.36v-12.59h4.64l5.83 12.59h7.39l-7.3-14.28c3.61-1.52 5.3-4.27 5.3-9z" data-reactid=".22cohvwr192.0.$=11:0.0.0.0.0.0.5"/>
 </g>
</svg>
