<svg width="41.946" height="10.113" version="1.1" viewBox="0 0 41.946 10.113" xmlns="http://www.w3.org/2000/svg">
 <defs>
  <linearGradient id="linearGradient-1" x1="22.658" x2="22.658" y1=".20806" y2="10.67" gradientTransform="scale(1.0736 .93142)" gradientUnits="userSpaceOnUse">
   <stop stop-color="#FF9100" offset="0"/>
   <stop stop-color="#FFF200" offset="1"/>
  </linearGradient>
 </defs>
 <g transform="translate(2.4526e-5 -11.061)" fill="none" fill-rule="evenodd">
  <g transform="translate(0,11)">
   <path d="m29.943 5.6051c0 1.7416-0.85398 3.2911-2.1805 4.2809-0.0997 0.074496-6.787 0.062601-6.8598 0.00858-1.3332-0.98936-2.1922-2.5428-2.1922-4.2895 0-2.9886 2.5144-5.4113 5.6162-5.4113 3.1017 0 5.6162 2.4228 5.6162 5.4113" fill="url(#linearGradient-1)"/>
   <path d="m20.956 9.7693c0.22619 0.020417 1.7233 0.036666 3.431 0.036666 1.7727 0 3.1128-0.017536 3.3182-0.04292 1.3381-1.0087 2.1049-2.5226 2.1049-4.158 0-2.9107-2.46-5.2788-5.4837-5.2788s-5.4837 2.3681-5.4837 5.2788c0 1.6395 0.76992 3.1556 2.1134 4.1643m3.431 0.30166c-0.86624 0-1.7313-0.0042-2.3732-0.01171-1.1296-0.01306-1.145-0.02446-1.1905-0.05831-1.4271-1.0591-2.2457-2.6613-2.2457-4.3959 0-3.0568 2.5789-5.5438 5.7487-5.5438 3.1699 0 5.7487 2.487 5.7487 5.5438 0 1.7289-0.81412 3.3279-2.2338 4.3872-0.04451 0.033232-0.10552 0.078727-3.4543 0.078727" fill="#231f1f"/>
   <polyline points="19.273 10.175 0.0056777 10.175 -2.4526e-5 9.7109 41.946 9.6748 41.946 10.175 27.624 10.175" fill="#231f1f"/>
   <path d="m24.773 5.0964-0.28995-0.69548 0.08376-0.38634zm-0.5154 0.16101 0.18682-0.7663 0.38652 0.97888zm0.36715 0.75342-0.36071-0.6311 0.57335 0.19964zm0.52834 0.99181-0.48334-0.90168 0.2192-0.4314zm-0.35427 0.75336-0.51546-0.68255 0.87611 0.20608zm0.69567 0.95956-0.62485-0.86287 0.34783-0.46372zm0.19958 0.908-0.60554 0.019375 0.47684-0.60547zm-1.3527-0.79205s1.108 0.12876 1.1339 0.12876c0.02575 0-0.50897 0.6246-0.50897 0.6246zm-0.10957 0.75986 0.0065-0.69542 0.63135 0.72761zm0.54759-1.6356 0.68929 0.86931-1.1853-0.13526zm-0.5411-0.77292 0.48309 0.68917-0.49603 0.66323zm0.38646-0.97888 0.49621 0.96606-0.85055-0.23183zm-0.0515-0.090131-0.3479 0.72773-0.0064-1.4103zm-0.26414-1.9963 0.07726 0.14164 0.01288 0.090193-0.16095 0.6311-0.01931-0.76636zm0.19326-0.14807-0.06444 0.26396-0.07726-0.14807zm-0.71504 2.1122 0.32846-0.61173 0.0066 1.333zm0.3157 3.5354-0.5991-0.019253 0.61847-0.71467zm-1.2241-0.64386 1.1531-0.13538-0.62479 0.74705zm-0.22545 0.6246 0.14814-0.52804 0.45109 0.54729zm0.47034-2.2088 0.38008 0.47659-0.63141 0.81143zm0.94687-0.31552-0.49597 0.68905-0.39302-0.49585zm-0.62479-1.3975 0.21889 0.43153-0.48309 0.908zm0.63129 1.2815-0.88255 0.18682 0.51534-0.94037zm-0.57328-1.3974 0.5861-0.18682-0.34146 0.66335zm0.55391 3.1361-1.1724 0.12251 0.6506-0.87581zm-0.43796-0.86281 0.48953-0.65692 0.0064 1.3588zm0.27046-3.3166 0.2062 0.74711-0.59916 0.21883zm-0.21895 0.025813s0.08051-0.030534 0.1577-0.062479c0.04028-0.016677 0.07977-0.033723 0.10638-0.046966 0.07738-0.038689 0.18032-0.13532 0.18032-0.13532l-0.01925 0.61185-0.16107-0.43147-0.07726 0.038566-0.30277 0.61185zm1.108-0.7148-0.23183-0.15457s-0.04519 0.15457-0.09025 0.22539c-0.04507 0.070879-0.16745 0.15451-0.16745 0.15451l-0.27064-0.25758 0.21907 0.32846s-0.03869 0.083693-0.09663 0.12876c-0.05794 0.045066-0.27708 0.18676-0.34146 0.21901-0.0645 0.032128-0.18032 0.038628-0.18032 0.038628l-1.0307 5.1839h3.1888l-1.1724-5.7184z" fill="#231f1f"/>
   <path d="m23.666 2.9443c2e-3 0.22606-0.14139 0.41086-0.32049 0.4127-0.17898 0.00184-0.32576-0.17989-0.32784-0.40602-0.0021-0.22606 0.14133-0.41086 0.32036-0.41264 0.17891-0.00184 0.32588 0.17983 0.32797 0.40596" fill="#231f1f"/>
   <path d="m23.766 2.8638c-0.0032-0.025445-0.0075-0.050523-0.01361-0.074619l0.36016-0.17996c0.01459 0.050277 0.02594 0.10239 0.03403 0.15586zm0.34428 0.42582-0.36972-0.14893c0.0094-0.028633 0.01704-0.058371 0.02226-0.089212l0.38333 0.078359c-0.0083 0.05506-0.02054 0.10822-0.03587 0.15978zm-0.2482 0.43324-0.25323-0.36635c0.02778-0.026917 0.05248-0.058064 0.07407-0.092461l-0.01784 0.042184 0.29498 0.2978c-0.0301 0.042736-0.06248 0.082835-0.09798 0.11883zm-0.37536 0.21362-0.0707-0.47432c0.01827-0.00386 0.0363-0.00858 0.05371-0.015206l0.15702 0.44195c-0.045 0.020724-0.09166 0.03685-0.14004 0.04758zm-0.50989-0.99138c0-0.25574 0.16451-0.46378 0.36678-0.46378 0.20221 0 0.36678 0.20804 0.36678 0.46378 0 0.2558-0.16457 0.46384-0.36678 0.46384-0.20227 0-0.36678-0.20804-0.36678-0.46384zm0.22962 0.99335c-0.04451-0.00914-0.08774-0.02238-0.1295-0.039977l0.14783-0.44925c0.01343 0.00478 0.02704 0.00877 0.04096 0.011895zm-0.38818-0.21809c-0.02925-0.029982-0.05616-0.063031-0.08179-0.097673l0.30547-0.3054c0.01281 0.015635 0.02661 0.02986 0.0409 0.04341zm-0.24366-0.42356c-0.0157-0.051933-0.02857-0.10564-0.03722-0.16126l0.38867-0.075968c0.0047 0.025384 0.01091 0.050032 0.01845 0.073883zm-2.45e-4 -0.70161 0.36445 0.18057c-4e-3 0.014041-0.0072 0.028327-0.01018 0.042858l-0.38769-0.085165c0.0083-0.047518 0.01993-0.093442 0.03342-0.13826zm0.25764-0.43735 0.23686 0.38511c-0.0094 0.00969-0.01858 0.019804-0.02729 0.030473l-0.30375-0.30669c0.02912-0.039179 0.06039-0.075784 0.09418-0.10889zm0.3726-0.20473 0.04838 0.47727 0.0052 2.452e-4c-0.01704 0.00417-0.03354 0.00999-0.04973 0.016677l0.01208-0.010423-0.12379-0.45299c0.03489-0.013489 0.07106-0.023115 0.10785-0.03078zm0.28995 0.00392c0.04084 0.00963 0.08081 0.022196 0.11926 0.039057l-0.13544 0.44079 0.03887 0.028695c-0.02839-0.015512-0.05825-0.027591-0.08952-0.035255zm0.13195 0.58929 0.24476-0.36568c0.03152 0.033171 0.06174 0.068181 0.08891 0.10681l-0.29854 0.30743c-0.01698-0.023115-0.03538-0.044391-0.05537-0.063521zm1.2084-0.035623-0.0141 0.00239 0.0067 0.3666-0.23207 0.00558-0.0027-0.23594-0.41393 0.10736c-0.0086-0.055734-0.02072-0.11006-0.03618-0.16248l0.39221-0.19602-0.23195-0.46366-0.31938 0.32889c-0.02857-0.040038-0.06033-0.076336-0.0935-0.11067l0.28401-0.42429-0.3929-0.27695-0.15752 0.51283c-0.04016-0.017352-0.08173-0.030289-0.12441-0.040099l0.07585-0.53705-0.43165-0.038628 0.05788 0.57157c-0.03857 0.00785-0.07664 0.017658-0.11331 0.031638l-0.1314-0.48088-0.41246 0.21889 0.27027 0.43944c-0.03581 0.034581-0.06904 0.07278-0.09994 0.11386l-0.3119-0.31497-0.23845 0.46366 0.38033 0.18848c-0.01459 0.047334-0.02698 0.095834-0.03587 0.14611l-0.40939-0.089886-0.0063 0.58604 0.41203-0.080566c0.0091 0.058064 0.02269 0.11411 0.0393 0.16837l-0.41135 0.18167 0.2577 0.47659 0.32245-0.32233c0.02679 0.035807 0.05494 0.070082 0.08553 0.10105l-0.27021 0.36727 0.38008 0.29627 0.15825-0.48088c0.04378 0.018272 0.08915 0.032006 0.13581 0.041387l-0.06542 0.5262 0.43153-0.012753-0.07689-0.51553c0.05052-0.011037 0.09927-0.027714 0.14623-0.049112l0.17548 0.4937 0.3349-0.27689-0.26714-0.38658c0.03703-0.037095 0.071-0.078482 0.10246-0.12257l0.31932 0.32239 0.23195-0.48947-0.39376-0.15862c0.01606-0.053404 0.02894-0.10853 0.03759-0.16561l0.42061 0.086023-0.0024-0.21785 0.23275-0.010607 0.0045 0.24801 1.5529 0.36837 0.0198-1.3472 2.45e-4 -0.019927z" fill="#231f1f"/>
   <path d="m18.613 6.4731s-0.02704 0.37806-0.06297 0.54018c-0.03624 0.16218-0.16665 0.63497-0.26132 0.80149-0.09448 0.16634-0.18002 0.31068-0.27904 0.40504-0.09902 0.094485-0.33318 0.26573-0.47733 0.30154-0.14403 0.036175-0.37812 0.067629-0.5582 0.067629-0.1802 0-0.46838-0.045004-0.58542-0.12606-0.11699-0.081118-0.19804-0.25212-0.22514-0.37377-0.02686-0.12146-0.07204-0.43649-0.06297-0.73816 0.0089-0.30154 0-3.4305 0-3.4305l0.0044-0.93179s-0.0044-0.18462 0.16211-0.19357c0.16671-0.00914 0.58978 0.013428 0.72951 0.040406 0.13955 0.027101 0.49523 0.14409 0.66176 0.24311 0.16659 0.099022 0.4368 0.34655 0.54042 0.54024 0.10344 0.19357 0.26543 0.46819 0.33318 0.82835 0.06757 0.36016 0.08995 0.76986 0.09896 0.97691 0.0091 0.20712-0.01797 1.049-0.01797 1.049m-14.15-1.4734c-0.1512 0.20485-0.51651 0.42877-0.83841 0.47751-0.3219 0.048745-0.71314 0.027775-0.71314 0.027775l0.00441-2.4035s-0.00822-0.072412 0.011343-0.19443c0.019559-0.12189 0.13017-0.13986 0.13017-0.13986s0.30761-0.024771 0.53196-0.010117c0.22435 0.014531 0.36163 0.063398 0.67372 0.26819 0.31221 0.20497 0.40669 0.63625 0.41644 0.98262 0.00975 0.34618-0.065299 0.78696-0.2165 0.99181m15.625-1.2522c-0.1951-0.29265-0.62136-0.67415-0.82112-0.82541-0.20007-0.15114-0.62283-0.37806-0.93491-0.48536-0.31215-0.1073-0.75606-0.22858-1.1754-0.25776-0.41933-0.029369-1.4643-0.016923-1.9713-0.012018-0.50731 0.0048438-7.8671-0.018701-7.8671-0.018701v0.57249s0.33097-0.012079 0.50651 0.017229c0.1756 0.029247 0.30166 0.09424 0.37966 0.19651 0.078053 0.10239 0.11999 0.25666 0.1249 0.41283 0.00484 0.15592-0.013918 4.6442-0.013918 4.6442s-0.00184 0.39247-0.11582 0.50909c-0.12355 0.12643-0.35636 0.20479-0.50725 0.194-0.18265-0.01306-0.28548 0.024893-0.52558-0.18272-0.35954-0.31068-0.90076-1.09-0.97875-1.2266-0.078053-0.13655-0.69211-0.99053-0.82381-1.1271-0.1317-0.13655-0.36764-0.4005-0.36764-0.4005s0.23968-0.065238 0.49811-0.16775c0.25856-0.10239 0.51479-0.22275 0.71952-0.5105 0.20485-0.28781 0.32079-0.4788 0.3501-0.67881 0.029247-0.19982 0.028818-0.63233 0.0044759-0.79334-0.024403-0.16101-0.1718-0.5216-0.35114-0.74919-0.16469-0.20896-0.50602-0.39646-0.74429-0.48125-0.1672-0.059658-0.54882-0.19436-0.99194-0.21797-0.25844-0.013857-1.8194-0.015451-1.9609-0.015451s-2.4148-0.00828-2.4148-0.00828l0.004476 0.57298s0.38156-0.00834 0.52785 0.025874c0.14636 0.034152 0.32073 0.084736 0.38904 0.17248 0.068242 0.087863 0.11441 0.14182 0.11926 0.38573 0.00491 0.24385 0.012385 4.7372 0.012385 4.7372s-0.02471 0.25991-0.06861 0.36206c-0.043962 0.1024-0.13281 0.19388-0.33766 0.24274-0.20479 0.048867-0.30798 0.068365-0.41792 0.068365h-0.22024l-3.6789e-4 0.58966 3.8202-0.00441 4.905e-4 -0.57151s-0.56016 0.00674-0.74061-0.1249c-0.18051-0.13158-0.25402-0.24416-0.26261-0.5316-0.010239-0.34103-0.0060088-1.8938-0.0060088-1.8938s0.19167-0.026917 0.31362 0.036543c0.12195 0.063215 0.20626 0.16297 0.26481 0.25096 0.058493 0.087617 2.0349 2.8616 2.0349 2.8616l5.6645-0.00895-0.0046-0.58751s-0.42435-0.010546-0.62908-0.068978c-0.20491-0.058555-0.37518-0.10552-0.43373-0.35427-0.05849-0.24857-0.04648-1.5593-0.04648-1.8082v-0.56115s0.2322-0.013857 0.43214 0.020172c0.19994 0.034213 0.42993 0.13704 0.54208 0.27836 0.11227 0.14145 0.19014 0.27806 0.22919 0.4146 0.03906 0.13655 0.11098 0.50087 0.11098 0.50087h0.58346l-0.0045-3.0005h-0.57844s-0.03489 0.27499-0.14219 0.53834c-0.1073 0.26334-0.24047 0.40069-0.36243 0.46905-0.12183 0.068242-0.29443 0.14323-0.52368 0.15304-0.22919 0.00969-0.30461-0.00981-0.30461-0.00981l0.0098-2.2238s0.04838-0.16653 0.15077-0.21546c0.10239-0.048622 0.1317-0.041264 0.31705-0.041264 0.18523 0 0.67408 0.037892 0.88868 0.062356 0.2146 0.024403 0.64257 0.15672 0.74018 0.22514 0.09749 0.068181 0.35329 0.32331 0.40694 0.49885 0.05371 0.1756 0.14446 0.51921 0.14446 0.51921h0.57433l-3.07e-4 -1.3825s0.41681 0.00914 0.4509 0.00914c0.03421 0 0.28854 0.074987 0.35194 0.13348 0.06334 0.058555 0.14072 0.15911 0.15519 0.25666 0.01465 0.097612 0.01171 0.22956 0.01668 0.36611 0.0048 0.13655-0.0044 4.57-0.0044 4.57s-0.0114 0.31055-0.11883 0.42754c-0.10724 0.11711-0.17548 0.16383-0.39989 0.18321-0.22429 0.019559-0.41418 0.024464-0.41418 0.024464l-0.0037 0.62859 4.162-0.013673s0.48996-0.043594 0.88973-0.17039c0.39995-0.12674 0.76477-0.32901 0.9695-0.49008 0.20491-0.16107 0.53907-0.46212 0.70492-0.69622 0.16579-0.23397 0.3658-0.67292 0.43888-0.99972 0.07309-0.32668 0.12263-0.81284 0.12263-1.0323 0-0.21956-0.0168-0.76875-0.07529-1.1003-0.058515-0.33165-0.266-0.78899-0.4611-1.0815" fill="#d91921"/>
   <path d="m2.9946 5.4251c0.1287 0.00325 0.39265 0.00435 0.6178-0.029737 0.31699-0.048009 0.65385-0.26825 0.78414-0.44483h6.14e-5c0.12447-0.16867 0.21061-0.57292 0.20031-0.94025-0.0071737-0.25372-0.065912-0.71008-0.3791-0.91578-0.30921-0.20283-0.42938-0.24152-0.63362-0.25476-0.20068-0.012876-0.4758 0.00674-0.51528 0.00969-0.013183 0.00325-0.051258 0.017597-0.059781 0.070756-0.017107 0.10724-0.010791 0.1718-0.01073 0.17241l4.905e-4 0.00907zm0.12318 0.16733c-0.11956 0-0.20319-0.00429-0.21055-0.00472l-0.078543-0.00417 0.0046-2.4781c-0.0019-0.021337-0.00607-0.096385 0.012324-0.21141 0.022931-0.14286 0.13569-0.19829 0.19872-0.20853l0.00656-7.971e-4c0.012815-0.00104 0.31632-0.025139 0.54404-0.010178 0.24789 0.016064 0.4013 0.076581 0.71375 0.28155 0.37604 0.24697 0.44575 0.7636 0.45378 1.0496 0.0095 0.33784-0.059229 0.80842-0.23262 1.0433-0.17481 0.23673-0.56691 0.46083-0.89267 0.51019-0.17848 0.02704-0.37512 0.033294-0.51939 0.033294zm13.242-2.7165c-0.03391 0-0.06401 6.745e-4 -0.08829 0.00196-0.08216 0.00441-0.08431 0.09148-0.08388 0.10889l-0.0044 0.93418c3.07e-4 0.12716 0.0088 3.1331-6.1e-5 3.4326-0.0085 0.28358 0.03292 0.59076 0.06107 0.7178 0.02495 0.11214 0.09878 0.25936 0.19142 0.32355 0.09479 0.065606 0.35973 0.11135 0.53828 0.11135 0.18284 0 0.40909-0.032803 0.53803-0.065115 0.12042-0.029921 0.34115-0.18652 0.4403-0.28112 0.09068-0.086391 0.17327-0.22594 0.26426-0.38603 0.08382-0.14752 0.21074-0.59174 0.25243-0.77862 0.03311-0.14918 0.05917-0.49971 0.06113-0.5265 0.0013-0.042 0.02661-0.84368 0.0179-1.041-0.016628-0.38431-0.049492-0.70909-0.097562-0.9652-0.058923-0.31344-0.19473-0.56415-0.29388-0.74723l-0.03096-0.057329c-0.092035-0.17217-0.34502-0.41025-0.50964-0.50811-0.16083-0.09565-0.50823-0.20834-0.63527-0.23305-0.10975-0.021153-0.42809-0.040958-0.62086-0.040958zm0.61418 5.796c-0.17824 0-0.49229-0.043717-0.63258-0.14084-0.13434-0.093075-0.2268-0.27996-0.25881-0.4238-0.03102-0.14029-0.07394-0.45795-0.06493-0.75864 0.0088-0.29676 6.2e-5 -3.3965-6.1e-5 -3.4278l0.0045-0.93246c-0.0026-0.10411 0.05935-0.2661 0.24047-0.27585 0.17855-0.00975 0.6059 0.014041 0.74962 0.041755 0.15347 0.02986 0.5181 0.152 0.68837 0.25323 0.18762 0.11153 0.46182 0.36813 0.57114 0.57243l0.03047 0.056593c0.10442 0.19271 0.24734 0.45654 0.31104 0.79549 0.04954 0.26389 0.08327 0.59646 0.10037 0.98862 0.0091 0.20779-0.01686 1.0207-0.01796 1.0552l-1.84e-4 0.00325c-0.0011 0.015696-0.02784 0.38603-0.06469 0.55219-0.02839 0.12692-0.16236 0.63472-0.27021 0.82449-0.09755 0.17174-0.18695 0.32214-0.29394 0.42405-0.09577 0.09148-0.34514 0.27996-0.51442 0.32196-0.13863 0.034826-0.38192 0.070143-0.57819 0.070143zm-3.5513 0.11116-0.0028 0.46562 4.0747-0.013366c0.04378-0.00411 0.49958-0.04948 0.8687-0.16653 0.41767-0.13232 0.76918-0.33919 0.94331-0.47616 0.22551-0.17732 0.53723-0.46543 0.68855-0.67911 0.16825-0.23741 0.35912-0.67243 0.42564-0.96986 0.06904-0.30865 0.12067-0.79009 0.12067-1.0143 0-0.25758-0.02011-0.78016-0.07407-1.086-0.05948-0.33704-0.27058-0.78328-0.44839-1.0499h-6.2e-5c-0.18175-0.27266-0.58606-0.64177-0.80212-0.80536-0.18725-0.14139-0.59836-0.36525-0.91186-0.47304-0.23581-0.081057-0.69928-0.22177-1.1543-0.25347-0.39051-0.027285-1.3506-0.017842-1.8665-0.012815l-0.09835 9.81e-4c-0.47267 0.00466-6.9707-0.01588-7.785-0.018394v0.40461c0.11263-0.00166 0.31049-8.584e-4 0.43735 0.020356 0.19602 0.032619 0.34133 0.10932 0.43183 0.22796 0.084429 0.11073 0.13612 0.27855 0.14182 0.46041 0.00484 0.15561-0.01306 4.4638-0.013857 4.6472-3.065e-4 0.071124-0.00865 0.43275-0.13943 0.5666-0.14844 0.15187-0.40743 0.22974-0.57236 0.21871-0.029431-0.00208-0.056654-0.00282-0.082712-0.00349-0.14433-0.0038063-0.26904-0.0070559-0.49112-0.19921-0.37211-0.32147-0.9229-1.1192-0.99653-1.2482-0.071553-0.1252-0.68518-0.97967-0.81155-1.1106-0.13121-0.13618-0.36004-0.39198-0.36972-0.40283l-0.089273-0.09988 0.12925-0.035194c0.00239-6.745e-4 0.23857-0.065422 0.48935-0.16487 0.24949-0.098777 0.48935-0.20994 0.68261-0.48156 0.19719-0.27702 0.30908-0.46145 0.33557-0.64275 0.028756-0.19608 0.027285-0.61902 0.0045372-0.76894-0.021889-0.14446-0.16297-0.49296-0.33428-0.71032-0.1458-0.18511-0.46605-0.36874-0.70695-0.45446-0.15948-0.056961-0.53263-0.19013-0.96864-0.21337-0.23551-0.012569-1.6251-0.015328-1.9565-0.015328-0.12447 0-1.9193-0.00644-2.3314-0.00797l0.003188 0.40614c0.12428-5.518e-4 0.35262 0.00282 0.46458 0.02894 0.16812 0.039302 0.35133 0.094055 0.43551 0.20234l0.00448 0.0057c0.078727 0.10111 0.12716 0.17597 0.13225 0.4292 0.00484 0.24176 0.012079 4.5553 0.012385 4.7388l-3.678e-4 0.00797c-0.0027 0.027898-0.027285 0.27597-0.074987 0.38689-0.063279 0.14728-0.19234 0.24238-0.3945 0.29057-0.20479 0.048867-0.3165 0.070634-0.43717 0.070634h-0.13747l-2.4525e-4 0.42392 3.6545-0.0041694 3.678e-4 -0.40651c-0.17248-0.0034949-0.54815-0.02471-0.70652-0.14029-0.18897-0.13777-0.28676-0.26782-0.29658-0.59603-0.010178-0.33845-0.0061927-1.833-0.0060088-1.8965l1.839e-4 -0.071737 0.071063-0.00999c0.022257-0.00319 0.22196-0.028572 0.36335 0.045004 0.11319 0.058739 0.20988 0.14979 0.29559 0.27855 0.053527 0.08026 1.7796 2.5033 2.0085 2.8246l5.5384-0.00877-0.0033-0.42503c-0.13581-0.00613-0.41068-0.02379-0.56967-0.069162-0.20994-0.059965-0.42233-0.12073-0.49162-0.41485-0.04813-0.20473-0.05144-1.0217-0.04899-1.7106l3.06e-4 -0.75582 0.07787-0.0046c0.0099-6.131e-4 0.24409-0.014041 0.45102 0.021215 0.1859 0.031761 0.45274 0.13164 0.59303 0.30853 0.1233 0.15531 0.20307 0.30032 0.24397 0.4433 0.02962 0.1035 0.07634 0.32815 0.09921 0.44079h0.43269l-0.0043-2.8348h-0.4249c-0.01784 0.10184-0.05862 0.29596-0.13636 0.48671-0.10043 0.24648-0.23459 0.4181-0.3986 0.51007-0.18149 0.10166-0.36488 0.15519-0.56066 0.16359-0.23489 0.00981-0.32006-0.010117-0.32889-0.012447l-0.062356-0.016125 0.010117-2.2998 0.00325-0.011159c6e-3 -0.020663 0.06254-0.20393 0.19461-0.26702 0.10656-0.050584 0.15672-0.050155 0.28934-0.049603l0.0634 2.453e-4c0.19093 0 0.67997 0.038015 0.89806 0.062908 0.22398 0.025445 0.66771 0.16205 0.77832 0.23955 0.09553 0.066832 0.37518 0.3349 0.43864 0.54251 0.04028 0.13189 0.10019 0.35323 0.12888 0.46059h0.42785l-3.07e-4 -1.3843 0.08461 0.00178c0.1157 0.00258 0.4219 0.00914 0.44912 0.00914 0.05065 0 0.32521 0.079034 0.4081 0.15543 0.07603 0.070266 0.1634 0.18738 0.18094 0.30534 0.01104 0.073515 0.01275 0.16199 0.01453 0.25562 7.36e-4 0.038934 0.0015 0.079095 3e-3 0.11962 0.0048 0.13667-0.0039 4.3922-0.0043 4.5733-0.0013 0.037769-0.01619 0.34777-0.14065 0.48334-0.12514 0.13661-0.21251 0.18891-0.45378 0.20975-0.13808 0.012017-0.26218 0.018517-0.33894 0.021766zm-0.16941 0.63184 0.0048-0.79242 0.08014-0.00208c0.0019 0 0.1902-0.00509 0.40915-0.024158 0.20197-0.017413 0.25261-0.054631 0.34599-0.1566 0.06297-0.068733 0.09301-0.26629 0.09718-0.37475 0-0.041387 9e-3 -4.4305 0.0043-4.564-0.0015-0.041448-0.0023-0.082529-0.0031-0.12238-0.0017-0.088108-0.0032-0.17137-0.01269-0.23434-0.01055-0.070817-0.07266-0.15549-0.12956-0.2081-0.04102-0.037831-0.25752-0.10687-0.30001-0.11171-0.02459-3.066e-4 -0.23986-0.00448-0.36378-0.00711l3.07e-4 1.3807h-0.72093l-0.01625-0.061621c-9.74e-4 -0.00344-0.09104-0.3441-0.14359-0.51615-0.04586-0.15004-0.28609-0.3929-0.37524-0.45526-0.08271-0.057942-0.49529-0.18719-0.7021-0.21074-0.20939-0.02379-0.69683-0.061804-0.8793-0.061804l-0.064318-1.843e-4c-0.12563-9.197e-4 -0.14495-8.584e-4 -0.21717 0.033477-0.04752 0.022686-0.0878 0.10718-0.10362 0.15359l-0.0094 2.1375c0.04421 0.00294 0.11453 0.00484 0.21797 3.679e-4 0.16916-0.00724 0.3284-0.053834 0.48671-0.14249 0.13054-0.073209 0.24029-0.21724 0.32625-0.42809 0.10166-0.24955 0.13636-0.51485 0.13667-0.51755l0.0093-0.072289h0.73405l0.0048 3.1661h-0.73442l-0.01324-0.066771c-7.2e-4 -0.003617-0.071721-0.36243-0.10937-0.49413-0.034826-0.12165-0.10497-0.24789-0.21448-0.38585-0.088721-0.1119-0.29069-0.21392-0.49112-0.2482-0.11981-0.020479-0.25347-0.022809-0.33539-0.021582l-3.68e-4 0.59812c-0.0013 0.36114-0.0052 1.4601 0.04464 1.672 0.04697 0.19964 0.17603 0.23655 0.37132 0.29234 0.1967 0.056102 0.60885 0.067016 0.61296 0.067077l0.08014 0.00202 0.0058 0.75097-5.7906 0.00914-0.024771-0.034765c-0.080731-0.11337-1.9778-2.776-2.0363-2.8637-0.069836-0.10485-0.14636-0.17787-0.2341-0.22337-0.05322-0.027653-0.1325-0.033845-0.19283-0.032803-6.744e-4 0.31767-0.00264 1.5218 0.00613 1.814 0.00779 0.26077 0.06671 0.34918 0.22858 0.46721 0.11533 0.084 0.48475 0.11196 0.69088 0.10902l0.083877-0.00104-6.744e-4 0.73804-3.9857 0.0046 4.9051e-4 -0.75539h0.30295c0.10399 0 0.20706-0.020418 0.39872-0.066096 0.19461-0.04648 0.25225-0.12858 0.28082-0.19492 0.027836-0.064809 0.052423-0.23692 0.061866-0.33318-3.066e-4 -0.15702-0.0076029-4.4946-0.012385-4.7317-0.0042307-0.2111-0.037279-0.25359-0.097366-0.33079l-0.004476-0.00576c-0.059597-0.076584-0.27254-0.12637-0.3425-0.14268-0.11159-0.026058-0.404-0.02612-0.50725-0.023728l-0.083939 0.00178-0.0057635-0.74067 0.083755 3.066e-4c0.022686 1.226e-4 2.2749 0.00828 2.4145 0.00828 0.016739 0 1.6915 9.197e-4 1.9653 0.015574 0.4601 0.024464 0.8492 0.1634 1.0154 0.22269 0.25513 0.090801 0.60854 0.28848 0.78157 0.50798 0.18131 0.23011 0.33937 0.60002 0.36788 0.78801 0.024526 0.16199 0.026856 0.60419-0.0044146 0.8178-0.031577 0.21564-0.14752 0.40988-0.36451 0.7148-0.21932 0.30816-0.49394 0.43551-0.75649 0.53944-0.1455 0.057696-0.28388 0.10344-0.37923 0.13305 0.080444 0.088966 0.19878 0.21883 0.27781 0.30081 0.13839 0.14347 0.75465 1.0009 0.83608 1.1434 0.068794 0.12036 0.60977 0.90162 0.96103 1.2051 0.17738 0.15341 0.26089 0.15561 0.38726 0.15899 0.028388 7.358e-4 0.058003 0.00153 0.09007 0.0038 0.12312 0.00969 0.33404-0.058616 0.44207-0.16929 0.06254-0.063889 0.091603-0.30252 0.092339-0.45158 1.837e-4 -0.044758 0.018639-4.4885 0.013918-4.6412-0.0045985-0.14813-0.043962-0.28125-0.10797-0.36512-0.064993-0.085226-0.17211-0.13918-0.32742-0.16506-0.16549-0.027653-0.48665-0.016248-0.4899-0.016187l-0.085778 0.00313v-0.74141l0.08308 2.453e-4c0.073515 2.453e-4 7.365 0.023483 7.866 0.018701l0.09829-9.81e-4c0.55446-0.00546 1.4825-0.014654 1.8796 0.013183 0.4739 0.033048 0.95312 0.17836 1.1966 0.26206 0.3284 0.11294 0.76048 0.34845 0.95791 0.49762 0.22514 0.17045 0.64772 0.55704 0.84012 0.84552 0.18738 0.281 0.41031 0.75355 0.47371 1.113 0.05579 0.31632 0.07658 0.85165 0.07658 1.1148 0 0.2333-0.0512 0.72209-0.12459 1.0504-0.07174 0.32061-0.27033 0.7728-0.45213 1.0295-0.16095 0.22705-0.48677 0.52902-0.72136 0.71345-0.18504 0.14556-0.55685 0.36488-0.99568 0.50388-0.40375 0.12808-0.88703 0.17211-0.90744 0.17395l-0.0071 3.065e-4z" fill="#231f1f"/>
   <path d="m38.92 2.1614v0.60247s0.43263 0.00552 0.60247 0.043901c0.16978 0.038321 0.22459 0.19719 0.25752 0.27947 0.03286 0.081977 0.01085 0.37242 0.01085 0.37242l-1.3366 3.5224s-1.3857-3.643-1.424-3.7745c-0.03838-0.13133 0.01637-0.21907 0.05469-0.29026 0.03844-0.071185 0.23569-0.12588 0.41644-0.15341 0.18082-0.027285 0.39431-0.027285 0.39431-0.027285l-0.0055-0.56973s-3.5221-0.010975-3.8507-0.00546c-0.32858 0.00546-6.7975 0-6.7975 0l-0.08216 2.1692 0.5861-0.011037s0.01098-0.16426 0.0439-0.37242c0.0328-0.20816 0.25194-0.5479 0.36138-0.67372 0.10957-0.12606 0.39437-0.252 0.5533-0.3013 0.15886-0.049296 0.31221-0.054876 0.31221-0.054876l0.756 0.00558s-0.0055 5.0615-0.01649 5.2533c-0.01104 0.19161-0.12067 0.31761-0.20828 0.38898-0.08756 0.071001-0.21908 0.10405-0.39989 0.14237-0.18057 0.038321-0.39977 0.049358-0.39977 0.049358v0.56415l3.8946 0.016432 0.0055-0.60811s-0.05494 0.010975-0.33962-0.010791c-0.28505-0.021947-0.47672-0.13164-0.60266-0.24108-0.126-0.10969-0.13146-0.53147-0.13146-0.53147l0.0055-5.0342 0.08222-0.0054s0.57525-0.016371 0.86544 0.027469c0.29032 0.043717 0.52031 0.18621 0.65177 0.29026 0.13158 0.10411 0.2574 0.32325 0.3452 0.53135 0.08762 0.20822 0.15335 0.56979 0.15335 0.56979l0.52583 0.0054-0.0055-1.5502s0.26831-0.00552 0.49848 0.065667c0.23005 0.071185 0.3395 0.33968 0.3395 0.33968s0.69015 1.6817 0.83798 2.0323c0.14795 0.35053 1.7474 4.2397 1.7474 4.2397l0.5533-0.00521s2.0376-4.9521 2.1854-5.3081c0.14783-0.35605 0.39443-0.90383 0.49309-1.0518 0.09847-0.14783 0.38346-0.27941 0.5257-0.31221 0.14256-0.032987 0.36702-0.049358 0.36702-0.049358l0.0055-0.56967z" fill="#d91921"/>
   <path d="m34.214 2.6974c0.06444 0 0.29854 0.00478 0.5078 0.069469 0.26445 0.081854 0.38664 0.37512 0.39173 0.38756 0.0068 0.016616 0.69156 1.6851 0.83755 2.0313 0.1371 0.32484 1.5359 3.7254 1.7264 4.1886l0.44232-0.00417c0.21613-0.52528 2.0265-4.9249 2.1647-5.2576 0.14396-0.34691 0.39456-0.90695 0.50063-1.066 0.11907-0.17873 0.43392-0.31417 0.57598-0.34691 0.09559-0.022134 0.22324-0.03685 0.30356-0.044637l0.0039-0.41093h-2.6653v0.43864c0.13624 0.00362 0.40639 0.01447 0.53797 0.044146 0.20411 0.046108 0.27653 0.22919 0.31129 0.31718l0.0048 0.012263c0.03709 0.092707 0.02201 0.33686 0.01655 0.40952l-9.19e-4 0.011956-0.0042 0.011159-1.414 3.7261-0.07756-0.20368c-0.05653-0.14893-1.3873-3.6476-1.4261-3.7807-0.04568-0.15623 0.01459-0.26684 0.05445-0.34005l0.0069-0.012631c0.05996-0.11116 0.29241-0.16794 0.4769-0.19602 0.1157-0.017475 0.24231-0.024158 0.32312-0.026672l-0.0039-0.40596c-0.53104-0.00159-3.4711-0.010178-3.7672-0.00521-0.30577 0.00503-5.9753 6.745e-4 -6.7191 6.13e-5l-0.07591 2.0019 0.42374-0.00797c0.0065-0.06861 0.01845-0.17799 0.03838-0.30393 0.03562-0.22557 0.26322-0.58009 0.3807-0.71516 0.12453-0.14317 0.42178-0.27346 0.59125-0.32607 0.16751-0.051933 0.32711-0.058248 0.33379-0.058493l0.8419 0.00613-1.22e-4 0.082283c-2.46e-4 0.20675-0.0056 5.066-0.01662 5.258-0.01269 0.2203-0.13673 0.36543-0.23857 0.44845-0.10374 0.084061-0.252 0.12036-0.43508 0.15917-0.11895 0.025261-0.25194 0.038934-0.3341 0.045618v0.40443l3.7297 0.015696 4e-3 -0.4395c-0.05481-6.744e-4 -0.13771-0.00411-0.26236-0.013673-0.25485-0.019559-0.47374-0.10742-0.65063-0.26107-0.1466-0.12759-0.15893-0.51632-0.15997-0.59291l0.0055-5.1129 0.1596-0.010423c0.02673-9.197e-4 0.58898-0.016371 0.88323 0.028143 0.32527 0.048928 0.57243 0.21349 0.69082 0.30724 0.17904 0.14176 0.3184 0.44171 0.37003 0.56409 0.06769 0.16095 0.12165 0.40308 0.14544 0.51982l0.37432 0.00386-0.0055-1.5477 0.08149-0.00166c0.0014-6.13e-5 0.0073-1.227e-4 0.0168-1.227e-4zm3.3529 6.8437-0.021337-0.051872c-0.016003-0.038873-1.601-3.8928-1.7471-4.239-0.14636-0.34704-0.83142-2.0162-0.83834-2.033-9.81e-4 -0.0023299-0.098531-0.23361-0.28738-0.29204-0.14041-0.04341-0.29786-0.056593-0.39088-0.060455l0.0055 1.5495-0.67813-0.00693-0.01226-0.067261c-6.58e-4 -0.003555-0.065222-0.35525-0.14824-0.5525-0.097121-0.23036-0.21693-0.41669-0.32024-0.49854-0.10552-0.08351-0.32533-0.23005-0.61271-0.27334-0.27959-0.042184-0.84503-0.026672-0.85079-0.026549l-0.0018 1.226e-4 -0.0053 4.9568c0.0021 0.15414 0.0363 0.41086 0.10295 0.46893 0.14942 0.1298 0.33606 0.20418 0.55464 0.22098 0.25605 0.019559 0.31754 0.011834 0.32012 0.011588l0.09467-0.012692 0.0013 0.09522-0.0062 0.69052-4.0595-0.017107v-0.72534l0.0786-0.00399c0.0021-1.226e-4 0.21497-0.01122 0.38677-0.047641 0.16095-0.034152 0.29008-0.065054 0.36494-0.12569 0.07591-0.061866 0.16855-0.16935 0.17769-0.32938 0.0099-0.17407 0.01545-4.511 0.01625-5.1664l-0.67366-0.00497c0.0023 0-0.14133 0.00595-0.28707 0.051136-0.15187 0.04715-0.42067 0.16757-0.51528 0.27653-0.10056 0.11558-0.3124 0.44348-0.34219 0.63227-0.03188 0.20166-0.04292 0.36347-0.04304 0.36506l-0.0051 0.075845-0.74962 0.014102 0.08842-2.3365 0.07983 6.14e-5c0.06475 6.13e-5 6.472 0.00546 6.7961 0 0.32558-0.00552 3.8171 0.00533 3.8523 0.00546l0.08179 2.452e-4 0.0071 0.73509h-0.08363c-0.0021 0-0.20969 3.679e-4 -0.38192 0.026365-0.23459 0.035746-0.34152 0.090806-0.35648 0.11184l-0.0067 0.012324c-0.03464 0.063644-0.06738 0.12379-0.0409 0.21441 0.02882 0.098899 0.91707 2.4403 1.3445 3.5645l1.255-3.3072c9e-3 -0.129 0.0088-0.28646-6e-3 -0.32361l-0.0052-0.012937c-0.039487-0.099936-0.084062-0.19172-0.19375-0.21649-0.15948-0.036053-0.58101-0.041755-0.5853-0.041816l-0.08173-0.00104v-0.7671h2.9982l-0.0071 0.72951-0.07603 0.00558c-0.0022 1.227e-4 -0.21987 0.01631-0.35433 0.047396-0.13679 0.031577-0.39609 0.15831-0.47549 0.27745-0.08664 0.12992-0.32098 0.6414-0.48554 1.0377-0.14611 0.35182-2.165 5.2583-2.1853 5.3078l-0.02085 0.050768z" fill="#231f1f"/>
  </g>
 </g>
</svg>
