<svg width="800" height="151.46" version="1.1" viewBox="0 0 800 151.46" xmlns="http://www.w3.org/2000/svg">
 <path d="m10.66 0.0039062c-5.8808 0-10.66 4.7798-10.66 10.66v130.14c0 5.8758 4.7798 10.656 10.66 10.656h778.68c5.8765 0 10.66-4.7802 10.66-10.656v-130.14c0-5.8808-4.7842-10.66-10.66-10.66z"/>
 <path d="m10.66 3.0391h559.74v145.38h-559.74c-4.2046 0-7.6211-3.4184-7.6211-7.623v-130.14c0-4.2046 3.4165-7.6211 7.6211-7.6211z" fill="#fff"/>
 <path d="m23.718 16.753c30.903-0.43523 62.678-0.43523 94.452-0.43523 19.151 1.3057 34.821 8.27 39.173 23.939 5.2231 20.457-11.317 31.339-24.81 36.562 10.446 3.9173 17.41 12.187 19.151 24.81 0 1.7411 0 3.9173 0.43527 5.6584 1.3058 3.4821 7.8347 4.3526 9.5757 0 0.87051-2.1763 0-4.3526 0.43527-7.3994h13.928c-0.43527 6.5289 0.43527 10.446 0 16.105-0.87054 10.446-9.1405 16.54-16.975 20.022-4.3526 1.7411-10.446 3.0468-15.234 3.0468-19.151 1.7411-32.645-3.9174-38.303-16.975-2.1763-5.2231-2.1763-10.446-2.1763-16.105-0.43527-11.752-3.9173-20.893-16.54-20.022-0.43527 6.0936 0 13.493 0 20.022h10.011v30.903h-73.124v-30.903h13.493c0.43527-19.151 0-38.738 0-58.325-4.3526-0.43523-9.1405 0-13.493 0zm62.242 50.055c2.5289 0 5.1187 0.11401 7.5735 0.11401 4.3091 0 8.2134-0.34822 10.707-2.2895 5.2231-3.4821 4.3526-13.493-0.87051-16.105-3.3123-1.8063-7.2601-1.7367-11.534-1.6671-1.9021 0.034-3.8738 0.066-5.876-0.074v0.87046z" fill="#a91d21" fill-rule="evenodd"/>
 <path d="m179.98 16.317v30.033h13.493c0 19.151 0.43527 39.173 0 58.325h-13.493v30.903h76.606v-4.7879c-0.87046-0.43523-2.6116 0-3.0468-0.87046 1.3059 0 2.6116 0 3.0468-0.87045v-2.6116c-1.3057-0.43522-3.0468-1.3057-3.4821-2.6116 0.87045 0.87046 2.1763 0.87046 3.4821 0.87046v-19.151h-13.493c0-19.151-0.43523-39.173 0-58.325h13.493v-30.903z" fill="#a91d21" fill-rule="evenodd"/>
 <path d="m411.1 16.317c0 10.011 0 20.457-0.43523 30.468 4.3526 0 9.1405-0.43523 13.493 0 0 19.587 0.43523 39.173 0 58.325h-13.493v30.904h133.19v-55.713h-38.738c0 8.2699 0.43523 17.41 0 25.245h-30.904v-18.281h22.634v-22.198c-7.3994 0-15.234 0.43523-22.634 0v-17.846c10.446 0 21.328-0.43523 31.339 0v24.81h38.738v-55.713z" fill="#a91d21" fill-rule="evenodd"/>
 <path d="m264.85 46.35c3.9173 0.43523 9.5757 0 13.493 0.43523v57.89c-4.3526 0.43523-9.1405 0-13.493 0-0.43523 5.6584 0 11.752 0 17.846 5.6584-1.3057 10.011-6.9642 17.41-6.5289 3.4821 0 6.9642 1.3059 9.5757 3.0468 3.9173-6.0937 8.7052-10.882 13.928-16.105 5.2231-4.7879 10.882-9.5757 10.882-19.151-1.7411 0-3.0468 2.1763-3.4821 4.3526-1.3057-1.3057 0.43522-3.4821 0.87045-5.2231 0.43523-2.1763 0-4.7879 1.3059-6.0936-0.87045-0.43523-2.1763 0.87046-3.0468 1.7411 0.87046-2.1763 3.9174-3.0468 4.7879-5.6584-4.3526 0.43523-7.8347 3.0468-10.882 5.2231 2.6116-3.4821 7.8347-5.6584 10.882-9.1405-0.43523-0.87046 0.43523-2.1763 0.43523-3.4821-1.7411 0.87045-3.9174 3.0468-5.2231 4.7879-0.43523 0.43523-0.87045 1.7411-1.3057 1.3057 2.1763-5.6584 6.9642-9.1405 10.446-14.364-3.4821 2.1763-6.0936 6.5289-8.7052 10.011 0.43523-5.6584 3.4821-9.5757 6.5289-13.058-3.4821 3.0468-6.9642 5.6584-7.8347 10.882-0.87046-3.9173 1.7411-7.3994 3.0468-10.882-2.1763-0.87046-4.3526-1.7411-4.3526-4.7879 0.87046-0.43523 1.3059 1.3057 2.1763 1.7411 0.87046 0.87046 2.1763 1.3057 3.4821 0.87046-0.43523-0.87046-1.7411-0.87046-2.1763-1.7411-0.87045-0.87045-0.87045-1.7411-1.3059-2.6115 3.9174 2.6115 9.5757-0.87046 11.317-4.3526-1.7411 0.87046-5.6584 2.6116-8.7052 0.87046 3.9174 0.87046 7.8347-0.87046 9.1405-3.9173-1.7411 0.43523-3.0468 1.7411-5.2231 1.3057 2.1763-0.43522 3.9174-0.87045 4.7879-2.6116-3.0468-1.3057-6.0936-2.1763-7.3994-4.7879 1.3057 0.43523 2.6116 2.1763 4.7879 2.6116 1.3059-0.87045 3.0468-1.7411 1.7411-3.4821 2.1763 1.7411 3.9173-1.3059 4.7879-2.6116-0.43523-1.3057-1.7411-1.7411-2.1763-3.4821 1.7411 0 2.6116 2.1763 4.7879 2.1763 2.6116 0 7.8347-3.0468 9.1405-4.7879 1.3057-1.7411 1.7411-3.9174 3.4821-4.3526 0 3.0468 0 5.6584-1.3057 6.9642 0.87045 0.43523 0.87045 2.1763 2.1763 3.0468 1.3059 1.7411 3.4821 1.7411 4.3526 3.9174 0 0.43523 0 2.1763 0.43523 3.0468 0.43522 1.7411 2.6116 3.0468 4.3526 4.7879 0.87045 0.43523 1.3057 1.3059 2.1763 2.1763 1.3057 1.3057 2.6116 2.1763 3.0468 4.3526 0.43522 3.0468-0.87046 5.2231-3.9173 5.2231-1.7411 0-3.0468-1.3057-4.7879-2.1763-0.87045-0.43523-2.6116-0.87045-3.9173-1.3057-2.1763-0.87045-3.4821-1.3059-6.0936-0.87045-0.43522 2.1763 1.3057 3.4821 1.7411 5.2231 0.87046 1.7411 0.87046 3.4821 1.7411 4.3526 1.3057 3.0468 3.9174 6.0936 6.0937 8.2699 0.87046 1.3059 2.1763 2.6116 3.4821 3.4821 2.1763 1.7411 4.3526 3.4821 4.3526 7.8347 3.4821-0.87045 6.5289-0.43523 8.27 2.1763 1.3057 1.7411 0.87046 4.7879 1.3057 6.9642 4.3526 0 8.2699 1.7411 8.7052 5.2231 0 1.3059-0.87045 2.1763-1.3057 3.4821-1.3057 3.4821-2.1763 7.8347-2.1763 12.187-0.87045 0.87045-1.7411 1.3057-2.6116 2.6116-1.3057 3.0468-1.3057 8.2699-3.9174 8.7052-1.3057 0-2.6116-1.3057-3.0468-2.1763-0.87045-2.1763 0.87046-5.6584 1.3057-7.8347 0.87046-0.43523 2.6116 0 3.0468-0.87046 0-5.6584 2.6116-9.5757 2.6116-14.799-1.3057-0.43523-1.7411 0.87045-2.1763 2.1763-0.43522 0.87046-1.3057 2.1763-1.3057 3.0468 0 0.87046 0.43523 1.7411 0.43523 2.6116 0 2.1763-1.3057 4.7879-2.6116 4.7879-1.7411 0.43522-3.0468-4.3526-3.0468-6.5289 0.43523-1.7411 1.3059-2.6116 2.1763-3.9173-3.0468 0.43523-6.5289 0-9.5757 0.43523-3.0468 7.8347-6.9642 13.928-13.058 20.022l-5.2231 5.2231c-1.3057 1.3057-4.7879 3.9174-4.7879 5.6584-0.43562 2.6117 2.176 6.0938 2.176 8.7053 22.198 0.87046 38.303-3.9173 50.49-13.058 12.187-8.7052 21.328-21.763 22.634-40.914 2.6116-30.903-13.493-50.49-34.821-60.066-7.3994-3.4821-16.54-5.6584-26.116-6.0936-26.551 0-52.666 0-79.217-0.43523z" fill="#a91d21" fill-rule="evenodd"/>
 <polygon transform="matrix(20.001 0 0 20.001 -4.1389 -.22242)" points="32.947 2.6984 33.448 2.6984 33.448 3.4819 34.275 3.4819 34.275 1.6321 29.922 1.6321 29.922 3.4819 30.749 3.4819 30.749 2.6984 31.25 2.6984 31.25 4.9834 30.88 4.9834 30.88 6.028 33.339 6.028 33.339 4.9834 32.947 4.9834" fill="#fff" fill-rule="evenodd"/>
 <polygon transform="matrix(20.001 0 0 20.001 -4.1389 -.65844)" points="38.627 2.6984 38.953 2.6984 38.953 1.6539 37.191 1.6539 37.191 2.6984 37.539 2.6984 36.864 4.5699 36.211 2.6984 36.581 2.6984 36.581 1.6539 34.231 1.6539 34.231 2.6984 34.558 2.6984 35.972 6.0715 37.321 6.0715" fill="#fff" fill-rule="evenodd"/>
</svg>
