<svg width="800" height="313.65" version="1.1" viewBox="0 0 800 313.65" xml:space="preserve" xmlns="http://www.w3.org/2000/svg">
<g transform="matrix(.81633 0 0 .81633 0 .018165)">
	<path d="m918.2 384.2h-855c-29.5 0-63.2-29.5-63.2-59v-164.6c0-36.1 33.1-61.8 66-61.8h382.5s155.4-61 231.1-88.3c83.4-30.1 126 9.3 126 56.1 0 22-0.1 33.6-0.1 33.6h111.3c34.3 0 63.2 27.1 63.2 60.4v157.6c0 32.1-28.9 66-61.8 66z" fill="#104d87"/>
	<path d="m901.7 353.9h-823.4c-24.8 0-44.9-20.1-44.9-44.9v-133.9c0-24.8 20.1-44.9 44.9-44.9h381.8s175.4-65.5 221.6-84.5c52-21.5 90.6-9.8 90.6 34.8v49.7h129.4c24.8 0 44.9 20.1 44.9 44.9v133.9c-0.1 24.8-20.2 44.9-44.9 44.9z" fill="#f7d83e"/>
		<path d="m172.6 168.9c-28.6 0-47.4 13.6-47.4 13.6v-13.6l-42.2 15.3v131.4h41.8v-61c0-7.3 2.1-13.2 3.5-16.7 2.4-5.6 5.6-10.1 9.8-14.3 3.8-3.8 8.7-7.3 13.9-9.4 5.2-2.4 11.1-3.5 17.1-3.5 7 0 13.6 1.4 18.1 3.5 0.3 0 0.7 0.3 1 0.3l15-41.1c-9-2.8-19.1-4.5-30.6-4.5z" fill="#104d87"/>
		<path d="m358.1 188.6-5.4 9.8c-0.6 1-0.5 2.3 0.2 3.2 1.7 2.6 3.3 5.3 4.7 8 0.5 1 1.6 1.7 2.7 1.7l11.1 0.1c1.3 0 2.5 0.8 2.9 2 1.4 3.9 2.5 7.9 3.3 12 0.3 1.3-0.3 2.6-1.4 3.2l-9.5 5.8c-1 0.6-1.6 1.7-1.5 2.9 0.2 3.1 0.2 6.2 0 9.3-0.1 1.2 0.5 2.3 1.5 2.9l9.6 5.7c1.1 0.7 1.7 1.9 1.5 3.2-0.8 4-1.8 8-3.2 12-0.4 1.2-1.6 2-2.9 2.1l-11.2 0.2c-1.2 0-2.2 0.7-2.7 1.8-1.4 2.8-2.9 5.5-4.6 8.1-0.6 1-0.7 2.2-0.1 3.2l5.4 9.7c0.6 1.1 0.5 2.5-0.3 3.5-2.7 3.2-5.7 6.1-8.8 8.8-1 0.8-2.4 1-3.5 0.4l-9.8-5.4c-1-0.6-2.3-0.5-3.2 0.2-2.6 1.7-5.3 3.3-8 4.7-1 0.5-1.7 1.6-1.7 2.7l-0.1 11.1c0 1.3-0.8 2.5-2 2.9-3.9 1.4-7.9 2.5-12 3.3-1.3 0.3-2.6-0.3-3.2-1.4l-5.8-9.5c-0.6-1-1.7-1.6-2.9-1.5-3.1 0.2-6.2 0.2-9.3 0-1.2-0.1-2.3 0.5-2.9 1.5l-5.7 9.6c-0.7 1.1-1.9 1.7-3.2 1.5-4-0.8-8-1.8-12-3.2-1.2-0.4-2-1.6-2.1-2.9l-0.2-11.2c0-1.2-0.7-2.2-1.8-2.7-2.8-1.4-5.5-2.9-8.1-4.6-1-0.6-2.2-0.7-3.2-0.1l-9.7 5.4c-1.1 0.6-2.5 0.5-3.5-0.3-3.2-2.7-6.1-5.7-8.8-8.8-0.8-1-1-2.4-0.4-3.5l5.4-9.8c0.6-1 0.5-2.3-0.2-3.2-1.7-2.6-3.3-5.3-4.7-8-0.5-1-1.6-1.7-2.7-1.7l-11.1-0.1c-1.3 0-2.5-0.8-2.9-2-1.4-3.9-2.5-7.9-3.3-12-0.3-1.3 0.3-2.6 1.4-3.2l9.5-5.8c1-0.6 1.6-1.7 1.5-2.9-0.2-3.1-0.2-6.2 0-9.3 0.1-1.2-0.5-2.3-1.5-2.9l-9.6-5.7c-1.1-0.7-1.7-1.9-1.5-3.2 0.8-4 1.8-8 3.2-12 0.4-1.2 1.6-2 2.9-2.1l11.2-0.2c1.2 0 2.2-0.7 2.7-1.8 1.4-2.8 2.9-5.5 4.6-8.1 0.6-1 0.7-2.2 0.1-3.2l-5.4-9.7c-0.6-1.1-0.5-2.5 0.3-3.5 2.7-3.2 5.7-6.1 8.8-8.8 1-0.8 2.4-1 3.5-0.4l9.8 5.4c1 0.6 2.3 0.5 3.2-0.2 2.6-1.7 5.3-3.3 8-4.7 1-0.5 1.7-1.6 1.7-2.7l0.1-11.1c0-1.3 0.8-2.5 2-2.9 3.9-1.4 7.9-2.5 12-3.3 1.3-0.3 2.6 0.3 3.2 1.4l5.8 9.5c0.6 1 1.7 1.6 2.9 1.5 3.1-0.2 6.2-0.2 9.3 0 1.2 0.1 2.3-0.5 2.9-1.5l5.7-9.6c0.7-1.1 1.9-1.7 3.2-1.5 4 0.8 8 1.8 12 3.2 1.2 0.4 2 1.6 2.1 2.9l0.2 11.2c0 1.2 0.7 2.2 1.8 2.7 2.8 1.4 5.5 2.9 8.1 4.6 1 0.6 2.2 0.7 3.2 0.1l9.7-5.4c1.1-0.6 2.5-0.5 3.5 0.3 3.2 2.7 6.1 5.7 8.8 8.8 0.9 1 1 2.4 0.4 3.5zm-37.3 66.4c7-15.9-0.2-34.4-16.1-41.3-15.9-7-34.4 0.2-41.3 16.1-7 15.9 0.2 34.4 16.1 41.3s34.3-0.2 41.3-16.1z" fill="#5d5e61"/>
		<path d="m509.4 173.6-2.7 10.8c-0.3 1.1 0.1 2.3 1 3.1 2.3 2.1 4.5 4.2 6.6 6.6 0.8 0.9 2 1.3 3.1 1l10.8-2.7c1.3-0.3 2.6 0.2 3.3 1.2 2.3 3.4 4.4 7 6.2 10.8 0.6 1.2 0.3 2.6-0.6 3.5l-7.7 8c-0.8 0.8-1.1 2.1-0.7 3.2 1 2.9 1.8 5.9 2.4 9 0.2 1.1 1.1 2.1 2.2 2.4l10.7 3.1c1.2 0.4 2.2 1.4 2.2 2.7 0.3 4.1 0.3 8.2 0 12.4-0.1 1.3-1 2.4-2.2 2.7l-10.7 3.1c-1.1 0.3-2 1.3-2.2 2.4-0.6 3.1-1.4 6.1-2.4 9-0.4 1.1-0.1 2.3 0.7 3.2l7.7 8c0.9 0.9 1.1 2.3 0.6 3.5-1.8 3.8-3.9 7.4-6.2 10.8-0.7 1.1-2.1 1.6-3.3 1.2l-10.8-2.7c-1.1-0.3-2.3 0.1-3.1 1-2.1 2.3-4.2 4.5-6.6 6.5-0.9 0.8-1.3 2-1 3.1l2.7 10.8c0.3 1.3-0.2 2.6-1.2 3.3-3.4 2.3-7 4.4-10.8 6.2-1.2 0.6-2.6 0.3-3.5-0.6l-8-7.7c-0.8-0.8-2.1-1.1-3.2-0.7-2.9 1-5.9 1.8-9 2.4-1.1 0.2-2.1 1.1-2.4 2.2l-3.1 10.7c-0.4 1.2-1.4 2.2-2.7 2.2-4.1 0.3-8.2 0.3-12.4 0-1.3-0.1-2.4-1-2.7-2.2l-3.1-10.7c-0.3-1.1-1.3-2-2.4-2.2-3.1-0.6-6.1-1.4-9-2.4-1.1-0.4-2.3-0.1-3.2 0.7l-8 7.7c-0.9 0.9-2.3 1.1-3.5 0.6-3.8-1.8-7.4-3.9-10.8-6.2-1.1-0.7-1.6-2.1-1.2-3.3l2.7-10.8c0.3-1.1-0.1-2.3-1-3.1-2.3-2.1-4.5-4.2-6.6-6.6-0.8-0.9-2-1.3-3.1-1l-10.8 2.7c-1.3 0.3-2.6-0.2-3.3-1.2-2.3-3.4-4.4-7-6.2-10.8-0.6-1.2-0.3-2.6 0.6-3.5l7.7-8c0.8-0.8 1.1-2.1 0.7-3.2-1-2.9-1.8-5.9-2.4-9-0.2-1.1-1.1-2.1-2.2-2.4l-10.7-3.1c-1.2-0.4-2.2-1.4-2.2-2.7-0.3-4.1-0.3-8.2 0-12.4 0.1-1.3 1-2.4 2.2-2.7l10.7-3.1c1.1-0.3 2-1.3 2.2-2.4 0.6-3.1 1.4-6.1 2.4-9 0.4-1.1 0.1-2.3-0.7-3.2l-7.7-8c-0.9-0.9-1.1-2.3-0.6-3.5 1.8-3.8 3.9-7.4 6.2-10.8 0.7-1.1 2.1-1.6 3.3-1.2l10.8 2.7c1.1 0.3 2.3-0.1 3.1-1 2.1-2.3 4.2-4.5 6.6-6.6 0.9-0.8 1.3-2 1-3.1l-2.7-10.8c-0.3-1.3 0.2-2.6 1.2-3.3 3.4-2.3 7-4.4 10.8-6.2 1.2-0.6 2.6-0.3 3.5 0.6l8 7.7c0.8 0.8 2.1 1.1 3.2 0.7 2.9-1 5.9-1.8 9-2.4 1.1-0.2 2.1-1.1 2.4-2.2l3.1-10.7c0.4-1.2 1.4-2.2 2.7-2.2 4.1-0.3 8.2-0.3 12.4 0 1.3 0.1 2.4 1 2.7 2.2l3.1 10.7c0.3 1.1 1.3 2 2.4 2.2 3.1 0.6 6.1 1.4 9 2.4 1.1 0.4 2.3 0.1 3.2-0.7l8-7.7c0.9-0.9 2.3-1.1 3.5-0.6 3.8 1.8 7.4 3.9 10.8 6.2 1 0.8 1.5 2.1 1.2 3.4zm-19.1 73.7c2.7-17.1-9-33.2-26.1-35.8s-33.2 9-35.8 26.1 9 33.2 26.1 35.8 33.1-9 35.8-26.1z" fill="#5d5e61"/>
		<path d="m583.4 126.7 41.8-15.3v57.5h30.3v41.8h-30.3v104.9h-41.8v-104.9h-30v-41.8h30z" fill="#104d87"/>
		<path d="m725.2 75.5v240.1h-41.8v-224.8z" fill="#104d87"/>
		<path d="m893.8 276.5c-3.5 6.3-7.7 11.8-12.5 17.1-6.6 6.6-14.6 12.2-24 16-9.1 3.8-19.2 5.9-29.6 5.9s-20.2-2.1-29.3-5.9-17.1-9.4-23.7-16c-6.6-7-11.8-15-15.7-24-3.8-9.1-5.9-18.8-5.9-29.3 0-10.1 2.1-19.5 5.9-28.9 3.8-9.1 9.1-17.1 15.7-23.7s14.6-12.2 23.7-16 18.8-5.9 29.3-5.9 20.6 2.1 29.6 5.9c9.4 3.8 17.4 9.4 24 16s11.8 14.6 15.7 23.7c3.5 8 5.2 16.4 5.9 24.7l-90.2 32.8c1 0.7 1.7 1 2.8 1.4 3.8 1.7 8 2.4 12.5 2.4 4.2 0 8.4-0.7 12.5-2.4 3.8-1.7 7.3-3.8 10.1-7 0.7-0.3 1-1 1.7-1.7zm-49.5-63.4c-1.4-0.7-2.8-1.4-3.8-2.1-4.2-1.7-8.4-2.4-12.5-2.4-4.5 0-8.7 0.7-12.5 2.4s-7.3 3.8-10.1 7c-3.1 2.8-5.2 6.3-7 10.1-0.3 0.7-0.3 1.4-0.7 1.7z" fill="#104d87"/>
</g>
</svg>
