<svg width="577.47" height="229.9" version="1.1" xmlns="http://www.w3.org/2000/svg">
 <link href="" rel="stylesheet" type="text/css"/>
 <style type="text/css"/>
 <g transform="translate(-32 -34.508)" fill="#c11c35" font-family="DIN-BlackItalic" font-size="90px" font-weight="bold">
  <path d="m188.08 216.24c-1.7463-2.2604-6.2354-5.0571-9.1118-6.2124-2.8765-1.1553-6.036-1.7329-9.4783-1.733-3.2872 6e-5 -7.0307 0.0737-9.7786 0.94676-2.748 0.87319-4.6397 1.6606-6.643 3.33-2.0034 1.6695-4.646 3.8193-5.7504 6.2075s-2.3438 5.7982-2.3438 8.7781c-1e-5 1.0785-0.0271 3.424 0.25505 4.6819 0.28216 1.258 2.0629 3.5125 2.9878 4.7454 0.92485 1.2329 3.7356 3.5788 5.4051 4.6831 1.6694 1.1044 2.8824 2.3527 5.657 3.0722l2.2668 0.78861c1.5319 0.58182 2.4978 0.92703 3.3369 1.1581 1.0957 0.40221 1.8156 0.88887 1.8584 1.4814-6e-5 0.77841-0.85238 1.2767-1.8666 1.668-1.3147 0.50729-1.9423 0.6754-4.4598 0.6754-2.4141 0-4.623-0.27945-6.5236-0.94725-1.9007-0.66777-4.696-2.9494-6.0316-4.4903l-9.8132 11.452c2.3639 2.7229 6.2884 4.6624 9.2926 5.8184 3.0042 1.1561 9.5033 2.0616 14.076 2.0616 2.9282 0 6.7212-0.58878 9.4433-1.2824 2.722-0.69365 5.149-1.7854 7.281-3.2754 2.1319-1.49 3.8268-3.4036 5.0848-5.7408 1.2579-2.3372 1.8869-5.1745 1.887-8.5119-4e-5 -1.9532-0.21833-3.7132-0.65486-5.28-0.43661-1.5668-1.1557-2.9537-2.1574-4.1607s-5.9899-4.5996-7.6076-5.4728c-1.6178-0.87311-2.9493-1.4894-5.3633-2.1055l-3.9053-1.1648c-0.56435-0.15358-1.1718-0.74787-1.7369-0.9274-1.5324-1.0724-1.2328-2.5793 0.32262-3.4843 1.0017-0.35971 3.539-0.75344 5.0029-0.71073 2.4823 0.29946 3.2277 0.70178 4.7169 1.378 1.4892 0.46248 3.1669 1.4552 4.3489 2.8926z"/>
  <path d="m258.83 226.3c-5e-5 -2.3623-0.5248-6.0184-1.2694-7.9191-0.74464-1.9006-1.6452-3.5058-3.0066-4.8156-1.3615-1.3097-4.0339-3.0736-5.8828-3.7673-1.849-0.6936-3.8778-1.0404-6.0865-1.0405h-26.592l-10.556 54.86h18.174l3.3197-16.799h11.403c3.4408 0 5.5436-0.56508 8.138-1.6953 2.5943-1.1302 4.6121-2.5939 6.3585-4.3912 1.7462-1.7972 3.6658-3.699 4.5389-6.0104 0.8731-2.3113 1.4621-6.0567 1.4622-8.4207zm-17.798 0.7062c-0.10805 0.83666-0.11564 1.4301-0.34683 2.2005-0.23125 0.7705-0.6294 1.5155-1.1945 2.235-0.56514 0.71954-1.3227 1.336-2.2726 1.8493-0.94999 0.51341-2.1445 0.7701-3.5835 0.77007h-4.3912l2.3866-11.331h4.8568c1.6428 5e-5 2.811 0.48796 3.5047 1.4637 0.69361 0.97586 1.0404 1.8052 1.0405 2.8122z"/>
  <path d="m308.94 208c-2.5693 6e-5 -9.7378 1.2233-12.562 2.25-2.8248 1.0268-5.2165 2.404-7.375 4.5625-1.2838 1.2839-3.2777 3.2975-4.125 4.8125-0.84728 1.5151-1.4769 2.3529-2.0938 4.125-0.61685 1.7722-1.1687 3.7011-1.6562 5.7812-0.48752 2.0802-0.94383 4.2924-1.4062 6.6562-1.0785 5.3407-1.625 9.3058-1.625 11.875 0 2.0551 0.3804 4.043 1.125 5.9688 0.74458 1.9258 1.8118 3.635 3.25 5.125s3.2485 2.6635 5.4062 3.5625c2.1578 0.899 9.0502 1.375 11.875 1.375 2.5676-1e-5 9.8932-0.9412 12.719-1.9688 2.8255-1.0275 4.6242-2.218 6.7812-4.375 1.2838-1.2854 2.9332-2.6724 3.7812-4.1875 0.84801-1.515 1.6027-3.1654 2.2188-4.9375 0.61601-1.7721 1.1679-3.6644 1.6562-5.7188 0.48826-2.0543 0.94535-4.3047 1.4062-6.7188 0.56586-2.6711 0.99288-4.9966 1.25-7 0.25704-2.0033 0.37495-3.6413 0.375-4.875-5e-5 -2.0535-0.37968-4.0422-1.125-5.9688-0.74543-1.9265-1.8118-3.635-3.25-5.125-1.4383-1.4899-3.2493-2.6642-5.4062-3.5625-2.157-0.89816-8.394-1.6562-11.219-1.6562zm-2.3125 14.812c5.6062 0 5.2894 5.0538 5.2894 5.0538l-2.5394 16.352s-1.1917 5.9688-7 5.9688c-6.417 0-5.7812-6.375-5.7812-6.375l3.25-16.125s0.95147-4.875 6.7812-4.875z"/>
  <path d="m400.37 224.63c-6e-5 -2.1052-0.63046-4.8522-1.7885-6.7046-1.2693-2.1488-2.4445-2.9645-3.6774-4.4278s-3.4069-2.619-5.4102-3.4671c-2.0034-0.84801-8.3775-1.272-11.254-1.2721h-21.241l-9.2699 54.86h17.158l3.0993-17.541 3.2552-0.0226 5.5206 17.564h19.174l-8.1662-20.234c2.0551-0.82296 4.4513-2.2099 5.9405-3.4938 1.4891-1.2838 3.3516-3.2507 4.3275-4.7149 0.97576-1.4641 1.4725-3.5113 1.935-5.104 0.46238-1.5926 0.39713-3.9006 0.39718-5.4415zm-18.04 2.0111c-3e-5 0.56593-0.13388 1.1231-0.3392 1.8935-0.20539 0.7705-0.59062 1.5151-1.1557 2.2338-0.56514 0.71877-1.3356 1.3352-2.3114 1.8493-0.97584 0.5142-3.4406 0.77128-4.9815 0.77124h-3.1051l2.0828-10.613h3.5641c1.5926 4e-5 4.233 0.43661 5.1062 1.3097 0.80375 0.56111 1.1051 1.6094 1.1398 2.555z"/>
  <path d="m472.61 208.76h-46.898l-2.7485 14.824h14.554l-7.25 40.036h19.203l7.25-40.036h14.453z"/>
  <path d="m533.17 216.24c-1.7463-2.2604-6.2354-5.0571-9.1118-6.2124-2.8765-1.1553-6.036-1.7329-9.4783-1.733-3.2872 6e-5 -7.0307 0.0737-9.7786 0.94676-2.748 0.87319-4.6397 1.6606-6.643 3.33-2.0034 1.6695-4.646 3.8193-5.7504 6.2075s-2.3439 5.7982-2.3438 8.7781c-1e-5 1.0785-0.0271 3.424 0.25506 4.6819 0.28216 1.258 2.0629 3.5125 2.9878 4.7454 0.92486 1.2329 3.7356 3.5788 5.4051 4.6831 1.6694 1.1044 2.8824 2.3527 5.657 3.0722l2.2668 0.78861c1.5319 0.58182 2.4978 0.92703 3.3369 1.1581 1.0957 0.40221 1.8156 0.88887 1.8584 1.4814-6e-5 0.77841-0.85237 1.2767-1.8666 1.668-1.3147 0.50729-1.9423 0.6754-4.4598 0.6754-2.4141 0-4.623-0.27945-6.5236-0.94725-1.9007-0.66777-4.696-2.9494-6.0316-4.4903l-9.8132 11.452c2.3639 2.7229 6.2884 4.6624 9.2926 5.8184 3.0042 1.1561 9.5033 2.0616 14.076 2.0616 2.9282 0 6.7212-0.58878 9.4433-1.2824 2.722-0.69365 5.149-1.7854 7.281-3.2754 2.1319-1.49 3.8268-3.4036 5.0848-5.7408 1.2579-2.3372 1.8869-5.1745 1.887-8.5119-5e-5 -1.9532-0.21833-3.7132-0.65486-5.28-0.43661-1.5668-1.1557-2.9537-2.1574-4.1607s-5.9899-4.5996-7.6076-5.4728c-1.6178-0.87311-2.9493-1.4894-5.3633-2.1055l-3.9053-1.1648c-0.56435-0.15358-1.1718-0.74787-1.7369-0.9274-1.5324-1.0724-1.2328-2.5793 0.32262-3.4843 1.0017-0.35971 3.539-0.75344 5.0029-0.71073 2.4823 0.29946 3.2277 0.70178 4.7169 1.378 1.4892 0.46248 3.1669 1.4552 4.3489 2.8926z"/>
  <path d="m265.26 34.508c-7.3068 1.71e-4 -27.693 3.4789-35.726 6.3988-8.0334 2.9202-14.835 6.8368-20.974 12.975-3.6511 3.6513-9.3215 9.3777-11.731 13.686-2.4096 4.3088-4.2002 6.6914-5.9544 11.731-1.7543 5.0399-3.3238 10.526-4.7102 16.441-1.3865 5.9159-2.6842 12.207-3.9992 18.93-3.0671 15.189-4.6213 26.465-4.6213 33.771 0 5.8445 1.0818 11.498 3.1994 16.975 2.1175 5.4767 5.1524 10.338 9.2427 14.575 4.0902 4.2374 9.2383 7.5747 15.375 10.131 6.1364 2.5567 29.265 3.4064 37.299 3.4064 7.3021-2e-5 24.608-2.1728 32.644-5.095 8.0355-2.9222 13.151-6.3078 19.285-12.442 3.651-3.6555 8.3416-7.6001 10.753-11.909 2.4116-4.3086 4.5578-9.0019 6.3099-14.042 1.7519-5.0397 3.3214-10.421 4.7102-16.264 1.3886-5.8422 2.6885-12.242 3.9992-19.107 1.6092-7.5964 2.8236-14.21 3.5549-19.907 0.731-5.6972 1.0663-10.355 1.0665-13.864-1.4e-4 -5.8399-1.0798-11.495-3.1994-16.975-2.1199-5.4788-5.1526-10.337-9.2427-14.575-4.0903-4.2372-9.2407-7.5768-15.375-10.131-6.1343-2.5543-23.872-4.71-31.905-4.7102zm-6.5765 42.125c15.943 0 15.043 14.372 15.043 14.372l-7.2219 46.505s-3.389 16.975-19.907 16.975c-18.249 0-16.441-18.13-16.441-18.13l9.2427-45.858s2.7059-13.864 19.285-13.864z"/>
  <path d="m47 37.094-6.2812 36.75h44.25l-36.375 19.094-16.594 98.156h48.156l8.6875-49.219 9.125-0.0625 15.5 49.281h53.812l-21.344-58.344c5.7676-2.3097 10.914-4.6468 15.094-8.25 4.1794-3.6031 8.0424-7.2034 10.781-11.312 2.7385-4.109 5.5145-9.0301 6.8125-13.5 1.2977-4.4698 2.1561-10.8 2.1562-15.125l-0.21875-7c-1.7e-4 -5.9084-0.625-9.8947-3.875-15.094-2.7746-4.8493-5.6962-7.9242-9.1562-12.031-3.4603-4.1068-10.346-8.151-15.969-10.531-5.6226-2.38-25.865-2.7811-33.938-2.7812h-29.562v-0.03125zm53.312 37.188h11.25c4.4698 1.09e-4 13.768 0.01835 16.219 2.4688 2.2558 1.5748 5.0901 6.9711 5.1875 9.625-7e-5 1.5883-1.455 7.0253-2.0312 9.1875-0.57643 2.1625-3.3516 4.1079-4.9375 6.125-1.5861 2.0173-3.9177 2.5258-6.6562 3.9688-2.7388 1.4431-10.582 1.5314-14.906 1.5312h-9.9688z"/>
  <path d="m477.56 37.094-7.7188 36.75h42.469l-0.0312 0.125h34.094l-37.375 19.031-17.062 98.375h48.406l20.406-117.53h44.688l4.0312-36.75z"/>
  <path d="m409.75 34.508c-7.3068 1.71e-4 -27.693 3.4789-35.726 6.3988-8.0334 2.9202-14.835 6.8368-20.974 12.975-3.6511 3.6513-9.3215 9.3777-11.731 13.686-2.4096 4.3088-4.2002 6.6914-5.9544 11.731-1.7543 5.0399-3.3238 10.526-4.7102 16.441-1.3865 5.9159-2.6842 12.207-3.9992 18.93-3.0671 15.189-4.6213 26.465-4.6213 33.771 0 5.8445 1.0818 11.498 3.1994 16.975 2.1175 5.4767 5.1524 10.338 9.2427 14.575 4.0902 4.2374 9.2383 7.5747 15.375 10.131 6.1364 2.5567 29.769 3.9103 37.802 3.9104 7.3021-2e-5 24.104-2.6767 32.14-5.5989 8.0355-2.9222 13.151-6.3078 19.285-12.442 3.651-3.6555 8.3416-7.6001 10.753-11.909 2.4116-4.3086 4.5578-9.0019 6.3099-14.042 1.7519-5.0397 3.3214-10.421 4.7102-16.264 1.3886-5.8422 2.6885-12.242 3.9992-19.107 1.6092-7.5964 2.8236-14.21 3.5549-19.907 0.731-5.6972 1.0663-10.355 1.0665-13.864-1.4e-4 -5.8399-1.0798-11.495-3.1994-16.975-2.1199-5.4788-5.1526-10.337-9.2427-14.575-4.0903-4.2372-9.2407-7.5768-15.375-10.131-6.1343-2.5543-23.872-4.71-31.905-4.7102zm-6.5765 42.125c15.943 0 15.043 14.372 15.043 14.372l-7.2219 46.505s-3.389 16.975-19.907 16.975c-18.249 0-16.441-18.13-16.441-18.13l9.2427-45.858s2.7059-13.864 19.285-13.864z"/>
 </g>
</svg>
