<svg width="800" height="792.08" data-name="RT 2" version="1.1" viewBox="0 0 800 792.08" xmlns="http://www.w3.org/2000/svg">
 <defs>
  <style>.cls-1{fill:#7ec142;}.cls-2{fill:#4cb648;}</style>
 </defs>
 <path d="m1.2376 0h798.76v792.08h-798.76z" fill="#7ec142" stroke-width="24.752"/>
 <path d="m800 150.74-798.76 377.23-1.2376 264.11h798.76z" fill="#4cb648" stroke-width="24.752"/>
 <g transform="translate(-4.84 760.08)">
  <polygon transform="matrix(24.752 0 0 24.752 -114.96 -760.08)" points="32.63 17.65 32.63 9.13 37.16 9.13 37.16 7.7 22.27 7.7 22.26 9.1 27.08 9.1 27.07 17.65"/>
  <path d="m75.88-323.2h141.34v-99.01h42.327l72.772 99.01h143.07l-74.257-104.7a74.257 74.257 0 0 0 45.297-64.604 78.465 78.465 0 0 0-60.891-75.99h-309.65zm142.57-214.11h59.158a36.386 36.386 0 0 1 30.941 40.347 42.327 42.327 0 0 1-31.188 44.554h-58.911z" stroke-width="24.752"/>
  <path d="m124.64-190.77-8.9109 29.455h-19.554l33.416-103.71h24.752l33.663 104.21h-20.792l-9.901-29.95zm29.95-14.604-8.1683-24.752c-1.9802-6.4356-3.7129-13.614-5.4456-19.554-1.4851 5.9406-2.9703 13.366-4.9505 19.554l-7.9208 24.752z" stroke-width="24.752"/>
  <path d="m289.74-203.89c0-13.366-1.4852-29.703-1.2376-43.812-3.4654 12.624-7.6733 26.733-12.376 39.851l-15.099 45.297h-14.851l-14.604-44.554c-3.9604-13.366-7.6733-27.475-10.396-40.594 0 13.614 0 30.198-1.7327 44.554l-2.2277 41.832h-17.822l7.4257-103.71h24.752l13.614 41.832c3.7129 12.129 6.9307 24.752 9.6535 36.139 2.7228-11.139 6.1881-24.752 10.396-36.386l14.356-41.584h24.752l5.9406 104.21h-18.564z" stroke-width="24.752"/>
  <path d="m388.01-207.6h-39.356v30.693h44.059v15.594h-62.129v-103.71h60.644v15.594h-42.574v26.485h39.356z" stroke-width="24.752"/>
  <path d="m409.3-265.03a183.91 183.91 0 0 1 28.713 0 49.505 49.505 0 0 1 32.178 8.1683 26.98 26.98 0 0 1 8.9109 21.04 27.475 27.475 0 0 1-18.812 25.99 26.98 26.98 0 0 1 14.604 20.05 192.82 192.82 0 0 0 8.1683 29.208h-19.554a118.32 118.32 0 0 1-6.9307-24.752c-2.9703-13.366-7.9208-17.822-18.812-18.069h-9.6535v42.822h-18.812zm18.812 46.287h11.386c12.871 0 20.792-6.9307 20.792-17.327s-7.9208-16.584-20.297-16.584a86.386 86.386 0 0 0-11.881 0z" stroke-width="24.752"/>
  <path d="m516.23-265.03v104.21h-18.812v-104.21z" stroke-width="24.752"/>
  <path d="m612.76-164.53a62.624 62.624 0 0 1-26.733 4.703 49.505 49.505 0 0 1-53.218-52.475 52.475 52.475 0 0 1 55.693-54.95 56.683 56.683 0 0 1 24.752 4.703l-4.2079 15.099a49.505 49.505 0 0 0-20.297-3.9604 34.653 34.653 0 0 0-35.396 38.366 34.158 34.158 0 0 0 36.386 37.376 55.693 55.693 0 0 0 20.792-3.7129z" stroke-width="24.752"/>
  <path d="m652.36-190.77-9.1584 29.455h-19.554l32.178-103.71h24.752l33.911 104.21h-20.297l-10.149-29.95zm29.703-14.604-8.1683-24.752c-1.9802-6.4356-3.7129-13.614-5.198-19.554-1.7327 5.9406-3.2178 13.366-4.9505 19.554l-8.1683 24.752z" stroke-width="24.752"/>
 </g>
</svg>
