<svg width="800" height="336.76" version="1.1" viewBox="0 0 211.67 89.102" xmlns="http://www.w3.org/2000/svg">
 <g transform="translate(25.239 -62.012)">
  <g transform="matrix(1.5169 0 0 1.5169 13.046 -78.114)">
   <g transform="matrix(4.5458 0 0 -4.5458 33.103 126.03)">
    <path d="m0 0c0.158 1.546 0.117 1.901-0.689 2.993-0.203 0.276-0.361 0.522-0.083 0.45 0.255-0.067 0.066 0.508 0.303 0.365-0.376 1.719-2.44 2.742-4.013 3.312-0.374 0.081-0.746 0.163-1.117 0.244-0.209-1e-3 -0.498 0.039-0.705 0.039-1.324-0.166-2.568-0.172-3.685-0.953-0.33-0.247-0.658-0.694-1.031-1.021-0.206-0.205-0.288-0.37-0.495-0.574-0.825-1.027-1.196-2.173-1.318-3.444-0.036-2.54 0.825-4.509 3.223-5.822 0.257-0.141 2.002-0.965 2.92-1.081 1.087-0.135 2.546 0.281 2.958 0.487 0.332 0.247 0.683 0.226 0.932 0.514 0.204 0.204 0.687 0.52 0.812 0.766 0.577 0.943 2.156 2.62 1.988 3.725" fill="#258cd4"/>
   </g>
   <g transform="matrix(4.5458 0 0 -4.5458 22.212 123.64)">
    <path d="m0 0c0.094 0.926 0.072 1.141-0.413 1.795-0.123 0.165-0.216 0.313-0.049 0.271 0.154-0.041 0.2 0.157 0.182 0.219-0.226 1.031-1.465 1.645-2.409 1.986-0.223 0.049-0.447 0.098-0.67 0.146-0.126 0-0.299 0.026-0.423 0.025-0.795-0.1-1.54-0.104-2.211-0.572-0.198-0.148-0.394-0.416-0.618-0.614-0.124-0.122-0.173-0.221-0.297-0.344-0.496-0.615-0.718-1.303-0.791-2.067-0.023-1.522 0.496-2.703 1.934-3.492 0.155-0.085 1.2-0.58 1.752-0.648 0.653-0.082 1.527 0.169 1.775 0.29 0.198 0.151 0.41 0.138 0.558 0.309 0.123 0.126 0.414 0.313 0.487 0.461 0.348 0.567 1.293 1.572 1.193 2.235" fill="#f89c18"/>
   </g>
   <g transform="matrix(4.5458 0 0 -4.5458 -7.4184 116)">
    <path d="m0 0c0.696 1.384 2.393 1.947 3.793 1.258 1.399-0.689 1.969-2.369 1.272-3.754-0.696-1.385-2.395-1.948-3.794-1.259-1.398 0.689-1.968 2.37-1.271 3.755" fill="#fff"/>
   </g>
  </g>
  <g transform="matrix(1.5169 0 0 1.5169 13.046 -78.114)" fill="#fff">
   <g transform="matrix(4.5458 0 0 -4.5458 110.16 120.83)">
    <path d="m0 0-1.679 1.541c-0.117 0.108-0.189 0.252-0.189 0.417 0 0.322 0.275 0.584 0.615 0.584h1.856v0.802h-2.839c-0.881 0-1.613-0.591-1.613-1.523 0-0.396 0.16-0.758 0.425-1.028l1.975-1.868s0.336-0.24 0.219-0.639c-0.116-0.396-0.621-0.396-0.811-0.396h-1.808v-1.629l2.746 1e-3c1.11 0 2.012 0.85 2.012 1.898v0.017c0.031 0.782-0.391 1.344-0.909 1.823" fill="#fff"/>
   </g>
   <g transform="matrix(4.5458 0 0 -4.5458 59.742 120.83)">
    <path d="m0 0-1.679 1.541c-0.117 0.108-0.191 0.252-0.191 0.417 0 0.322 0.277 0.584 0.616 0.584h1.857v0.802h-2.84c-0.881 0-1.614-0.591-1.614-1.523 0-0.396 0.162-0.758 0.426-1.028l1.978-1.868s0.333-0.24 0.217-0.639c-0.116-0.396-0.62-0.396-0.81-0.396h-1.811v-1.629h2.749c1.11 0 2.01 0.851 2.01 1.899v0.017c0.031 0.782-0.39 1.344-0.908 1.823" fill="#fff"/>
   </g>
   <g transform="matrix(4.5458 0 0 -4.5458 78.144 130.43)">
    <path d="m0 0h-0.904v1.885h0.869c0.114 0 0.991 0 1.057-0.872 0.046-0.624-0.419-1.013-1.022-1.013m-0.904 4.639h0.753c0.114 0 0.901 0 0.967-0.767 0.045-0.55-0.327-0.892-0.93-0.892h-0.79zm2.287-2.217c0.721 0.222 1.094 0.751 1.094 1.496 0 0.498-0.237 0.916-0.608 1.19-0.533 0.366-1.334 0.337-1.334 0.337v2e-3h-3.133v-7.074h3.335c0.281 0.013 0.877 0.089 1.356 0.483 0.428 0.377 0.717 0.939 0.717 1.573 0 0.848-0.475 1.669-1.427 1.993" fill="#fff"/>
   </g>
  </g>
 </g>
</svg>
