<svg width="800" height="254.52" version="1.1" viewBox="0 0 800 254.52" xml:space="preserve" xmlns="http://www.w3.org/2000/svg"><g transform="matrix(1.3333 0 0 -1.3333 -4.0469e-6 254.52)"><g fill-rule="evenodd"><path d="m171.92 93.519c6.3323 2.5567 11.657 6.002 14.874 12.387-0.60449 0.0562-0.89518 0.11231-1.1859 0.11231-1.7144-7e-3 -3.5047 0.29399-4.8921-1.1396-2.5072 0.33693-4.1191-1.3411-5.6816-2.7879-2.3651-2.1933-4.2149-4.7434-3.115-8.5719m-14.316 20.82c3.0588 0.66065 5.9128 1.2883 8.7701 1.8928 3.0786 0.64743 6.1771 1.2024 9.2292 1.9456 1.0108 0.24774 1.4964-7e-3 1.9093-0.82912 0.17837-0.35675 0.47897-0.65074 0.64413-1.0108 0.56155-1.2387 1.4534-1.6087 2.8309-1.6186 4.2083-0.0297 7.1218-2.7879 7.244-6.8179 0.0297-0.93482-0.34024-1.9654-0.79278-2.8144-2.4213-4.5717-6.1275-7.9476-10.689-10.194-3.6038-1.7804-7.4785-3.0092-11.241-4.4627-0.34684-0.13213-0.76305-0.07928-1.1958-0.11892-0.76965 4.5089-1.5789 8.9187-2.2561 13.348-0.48888 3.2074-1.3246 6.2398-3.3429 8.8527-0.38978 0.49879-0.66725 1.0868-1.1099 1.8267"/><path d="m151.83 116.23c7.211 1.6483 14.422 3.2966 21.633 4.9416 0.0363-0.17508 0.0793-0.35015 0.11892-0.52522-6.6692-4.1026-14.3-4.0068-21.712-4.8756-0.0132 0.15525-0.0264 0.3072-0.0396 0.45915"/><path d="m193.06 123.44c-1.6087-0.0165-2.778 1.1231-2.7681 2.6988 0.01 1.4567 1.209 2.6822 2.6624 2.7219 1.4832 0.0363 2.7912-1.2585 2.7747-2.7615-0.01-1.4766-1.1793-2.6393-2.669-2.6591"/><path d="m188.99 122.56c-0.99427-0.70029-1.3907-0.33693-1.5459 0.55825-0.67056 3.9209 0.27747 6.7683 5.011 7.5215 0.88197 0.13874 1.8003 0.1024 2.6921 0.0132 0.31381-0.0297 0.58798-0.44594 0.88527-0.68708-0.33363-0.25104-0.64083-0.67386-1.0042-0.72341-0.83241-0.11891-1.6946-0.01-2.5369-0.076-2.669-0.21802-4.1357-2.0282-3.8218-4.684 0.0727-0.63752 0.2081-1.2651 0.32041-1.9225"/><path d="m243 118.68c5.4801 0 10.788-0.0198 16.093 0.0429 0.32702 3e-3 0.915 0.62431 0.93482 0.97776 0.14534 3.4387 0.2114 6.8773 0.25434 10.313 3e-3 0.38317-0.28077 1.0736-0.46575 1.0868-0.44264 0.0264-0.92821-0.21471-1.3444-0.44263-0.36666-0.2081-0.63092-0.6111-0.99758-0.8159-1.7474-0.94473-3.5675-1.7672-5.2621-2.7945-1.9886-1.209-3.9011-2.5501-5.7972-3.9011-1.4931-1.057-3.3032-1.9093-3.4156-4.466m-115.07-32.983c-2.6657 9.5431-6.7782 17.966-12.09 25.901-0.24775-1.1396-0.36006-2.2594-0.39639-3.3792-0.25766-7.6437 1.3808-14.799 5.5296-21.293 0.31711-0.49879 0.87866-1.1297 1.3708-1.1726 1.7309-0.14204 3.4783-0.05616 5.5858-0.05616m100.19-20.186c2.4807 7.0194-2.1042 25.167-7.0326 27.628-0.67386-1.5955-1.1826-3.29-2.0612-4.7633-1.612-2.7219-3.3098-5.4173-5.2191-7.9278-1.9522-2.5633-4.1191-4.9714-6.3521-7.3002-1.3907-1.4501-3.0291-2.6888-4.6444-3.9077-1.579-1.1892-3.2603-2.2363-4.8987-3.3462 0.0594-0.12222 0.11561-0.25105 0.17507-0.38318zm-109.74 20.226c-0.16516 0.45585-0.19159 0.60449-0.26426 0.73002-4.8657 8.595-6.2762 17.795-4.9714 27.516 0.11892 0.86875-0.27417 1.9654-0.77626 2.7285-1.1495 1.7573-2.4543 3.4189-3.7954 5.0341-2.3882 2.8738-4.8525 5.6915-7.3992 8.6644-0.33033-0.63092-0.54834-1.0174-0.73663-1.4204-2.5765-5.49-3.9969-11.274-4.3867-17.319-0.58137-8.922 1.1-17.312 5.9954-24.903 0.34684-0.53843 1.2618-0.97776 1.9225-0.99097 4.2546-0.08588 8.5091-0.03964 12.767-0.03964zm-10.263 55.693c2.745-0.25765 5.0308-0.36996 7.2803-0.7168 2.3156-0.35345 4.5849-0.98767 6.8939-1.3874 0.37327-0.0661 0.95794 0.33032 1.2585 0.67716 1.9324 2.2297 3.6402 4.6807 5.7377 6.7386 18.452 18.085 40.544 26.584 66.408 24.89 12.357-0.8126 23.532-4.836 33.27-12.615 0.29399-0.23784 0.85884-0.45915 1.1495-0.33693 3.0423 1.2883 6.0581 2.6459 9.2292 4.0531-0.38318 0.26426-0.57807 0.4129-0.78617 0.53843-12.876 8.1161-27.044 12.047-42.139 12.784-8.8196 0.43273-17.606-0.0694-26.31-1.7243-20.107-3.8152-38.152-12.06-53.915-25.148-2.7813-2.309-5.2389-5.011-8.0764-7.7527m118.75 15.73c-3.0126 2.9531-10.167 6.8773-15.707 8.7569-11.254 3.8252-22.769 4.2381-34.393 2.4048-17.593-2.778-32.722-10.551-45.347-23.103-2.1405-2.1273-3.9606-4.575-5.9855-6.9434 7.6206-3.475 14.61-7.3398 21.21-11.908 0.24114-0.16846 0.51531-0.34023 0.79608-0.39308 6.0747-1.1099 12.149-1.3774 18.105 0.56155 3.0819 1.0042 5.6089 2.8639 6.2266 6.2894 0.32702 1.797 0.0826 3.6897 0.2015 5.5329 0.23453 3.584 1.0075 7.0359 3.2702 9.9361 1.645 2.1009 4.0035 2.6756 6.3059 1.6946-0.36006-0.54173-0.74323-1.0537-1.057-1.6054-0.31711-0.56485-0.64413-1.1462-0.82251-1.7606-0.109-0.37657-0.0462-0.88857 0.14204-1.2288 0.076-0.14204 0.7102-0.0694 1.0405 0.0496 0.55825 0.19819 1.0901 0.49548 1.6153 0.77956 6.3984 3.4684 12.942 3.7426 19.667 1.0009 0.55825-0.23122 1.3708-0.23453 1.9291-7e-3 3.4585 1.4369 6.884 2.9663 10.319 4.4693 4.1125 1.8003 8.2251 3.6038 12.483 5.4735m2.8936-97.987c-0.1057-0.512-0.14204-0.75314-0.2015-0.98436-3.7294-14.058-11.773-25.22-23.235-33.927-16.014-12.169-33.987-18.544-54.285-17.887-8.3374 0.27087-16.417 1.6747-24.091 4.9615-9.88 4.2314-18.075 10.481-23.252 20.163-2.091 3.911-3.399 8.0929-4.1324 12.463-0.14204 0.85554-0.12883 1.8729-1.4534 1.8696-4.6609-0.01321-9.325-0.0066-13.986-0.0033-0.83572 0.0033-1.2189-0.29729-0.96785-1.1925 0.88196-3.1612 1.4237-6.4644 2.6855-9.4638 3.6666-8.747 10.336-14.874 18.244-19.763 14.415-8.9121 30.284-12.542 47.051-12.698 8.5224-0.082581 16.982 0.72671 25.329 2.5402 18.696 4.0465 35.705 11.707 50.381 24.091 11.181 9.434 18.667 21.052 20.018 36.028 1.2222 13.566-2.7384 25.2-12.879 34.506-1.6252 1.4964-3.4651 2.7615-5.0804 4.0366-0.62101-0.85223-1.0934-1.3973-1.4435-2.015-0.38318-0.68377-0.65404-1.4369-0.98107-2.1504-0.33032-0.72341-0.56485-1.5162-1.0273-2.1372-1.4105-1.9126-1.5922-3.7624-0.49219-5.7344 4.8029-8.6281 6.2464-17.828 4.7765-27.562-0.1982-1.3147-0.68047-1.5922-1.906-1.5922-9.2722 0.0033-18.544-0.07597-27.817-0.1024-2.996-0.0099-5.305-1.5195-7.5248-3.4453zm-84.768-11.951c-0.99097 0.33032-2.0612 1.0009-3.1348 1.0075-12.331 0.07597-24.665 0.03634-36.996 0.07597-1.3477 0.0033-1.754-0.49549-1.6814-1.7771 0.23783-4.0333 1.1165-7.9179 2.7582-11.601 4.3041-9.6488 11.842-15.981 21.177-20.368 12.638-5.9425 25.94-6.5536 39.494-4.5651 12.318 1.8069 23.615 6.3059 33.928 13.269 10.389 7.0128 18.677 15.846 23.711 27.476 0.77626 1.8069 1.4039 3.6765 2.1834 5.7377h-1.9621c-6.8707-0.0066-13.738 0.0066-20.606-0.02643-5.6155-0.02973-11.228-0.12883-16.84-0.13874-1.133 0-2.1504-0.36996-2.4807-1.3279-0.64083-1.8696-1.3973-3.8483-1.351-5.7675 0.076-2.996 0.77295-5.9855 1.2255-8.9749 0.033-0.23123 0.26426-0.42281 0.34684-0.65404 0.25104-0.67386 0.63752-1.351 0.67716-2.0447 0.1024-1.6979 0.21802-3.4288-3e-3 -5.1068-0.27417-2.0612-0.53843-4.2414-1.4204-6.0813-1.4567-3.0489-3.4056-5.8765-6.2696-7.865-1.4766-1.0306-3.0324-1.9654-4.6245-2.8078-1.1099-0.58467-2.5204-0.7135-3.4585-1.4666-0.89848-0.72341-1.7507-0.80929-2.745-0.82911-1.1991-0.02312-2.4014-0.06276-3.6038-0.10901-2.9399-0.11561-5.7807 0.13543-7.8518 2.5864-1.7771 2.1042-4.0597 3.1216-6.7188 3.627-1.1991 0.22792-2.3552 0.83242-3.4486 1.4237-3.1348 1.7045-5.0639 4.2876-5.5924 7.8881-0.44924 3.0654 0.0925 6.0152 1.1528 8.8329 1.1726 3.1249 2.6327 6.1407 4.1356 9.586m44.775 49.519c0.11561-0.11561 0.23122-0.23123 0.34684-0.34684-1.46-1.6979-2.8078-3.5014-4.3999-5.0639-11.773-11.568-26.505-14.58-42.272-14.329-4.8921 0.07597-9.7743 0.7168-14.67 1.0273-7.3431 0.46576-14.696 0.84893-22.043 1.2916-7.7428 0.46576-15.489 0.95794-23.232 1.427-7.2506 0.43603-14.498 0.84233-21.742 1.285-7.495 0.45585-14.987 0.94473-22.485 1.4039-7.7923 0.48227-15.588 0.96454-23.384 1.4006-1.7342 0.09579-3.4783 0.01321-5.2918 0.01321-1.7543-9.9295-3.4984-19.8-5.2491-29.703 2.9894 0 5.8335-0.0033 8.6809 0.0033 16.44 0.04955 32.88 0.1024 49.321 0.16186 9.9758 0.03303 19.948 0.09249 29.924 0.13874 5.8137 0.02643 11.627 0.04294 17.444 0.06276 9.9725 0.02973 19.948 0.08919 29.921 0.07928 2.5303-0.0033 4.9912-0.56816 6.372-2.9465 1.3609-2.3453 0.1024-4.4164-1.1495-6.4083-2.4411-3.8747-4.499-7.9344-5.2852-12.493-0.63753-3.7261-0.48558-7.4026 2.4807-10.204 3.3891-3.2041 7.6899-4.5519 12.172-3.9804 3.5014 0.45254 6.9797 1.7408 10.266 3.1414 5.6287 2.4048 10.019 6.2861 12.054 12.272 1.8531 5.4503 1.1198 10.845-0.65073 16.192-1.83 5.5428-3.5642 11.119-5.3777 16.78 0.54504 0.27747 1.067 0.55164 1.5955 0.8126 6.7882 3.4056 13.19 7.4092 18.868 12.483 11.337 10.131 18.396 22.422 19.01 37.948 0.0892 2.2528-0.0462 4.3801-1.7375 6.1308-0.57147 0.59127-0.96455 1.3543-1.503 2.1273 14.055 8.671 27.975 17.259 41.892 25.848-0.0529 0.1024-0.10571 0.2048-0.15856 0.3105-15.248-5.523-30.499-11.046-45.743-16.569-0.0826 0.23123-0.16516 0.46246-0.24774 0.69368 16.731 6.0648 33.458 12.133 50.189 18.201 0.076-0.15195 0.15195-0.3039 0.23123-0.45254-0.27087-0.24444-0.52852-0.5021-0.8126-0.72341-13.408-10.26-26.806-20.536-40.257-30.74-1.1198-0.85224-1.2817-1.6153-1.0306-2.887 1.0372-5.196 1.1693-10.455 0.34353-15.684-1.4138-8.9848-5.5428-16.638-11.707-23.245-0.65073-0.69698-1.3048-1.3874-1.9753-2.0645-0.6078-0.62101-1.2387-1.2288-1.8597-1.8399 5.5098 4.1819 10.105 9.1202 13.008 15.476 2.7417 6.002 5.4404 12.024 8.3605 17.937 4.7368 9.5827 10.907 17.748 20.612 23.142 12.423 6.8972 24.52 14.399 36.646 21.811 10.253 6.2629 20.404 12.691 30.489 19.225 3.2306 2.0942 6.0053 4.8624 8.0302 8.2118 0.70029 1.166 1.0405 2.5534 1.5426 3.8384-0.14534 0.0793-0.29399 0.16186-0.43602 0.23784-1.2552-0.47897-2.5237-0.92491-3.7624-1.4435-31.998-13.428-63.997-26.855-95.976-40.323-1.4468-0.6111-2.7582-1.5591-4.0828-2.4246-4.3636-2.8507-8.8626-3.7095-13.689-1.1528-2.3915 1.2651-4.7963 1.0504-7.4059 0.38978-2.8177-0.7069-5.7972-0.8126-8.7206-1.0306-0.55164-0.0396-1.5294 0.512-1.6681 0.98106-0.41621 1.4336-0.52191 2.9597-0.79938 4.8029-1.1099-1.6087-2.309-3.0654-3.2041-4.7005-1.0009-1.8267-0.8159-3.7756 0.22792-5.5924 1.4006-2.451 1.4931-5.0573 0.82911-7.6932-1.0372-4.1158-3.9969-6.5041-7.7329-7.9839-6.1539-2.4411-12.536-2.9432-19.007-1.6483-2.0744 0.41621-4.3272 0.88857-6.035 2.0282-7.3662 4.9152-15.076 9.1037-23.423 12.073-7.1284 2.5336-14.442 4.0729-22.056 3.7029-1.1363-0.0529-2.2561-0.42282-3.5014-0.67056 0.24444-0.39639 0.27747-0.49879 0.35014-0.56155 5.9227-5.1432 11.238-10.858 16.057-17.038 0.24774-0.32041 0.93812-0.5054 1.3708-0.43603 3.6501 0.58468 7.2836 1.2718 10.934 1.8564 0.57807 0.0925 1.4138 0.0628 1.7804-0.28077 0.87866-0.82581 1.5492-1.8729 2.4048-2.9564-4.1191-1.503-8.0335-2.9333-11.938-4.357 0.31381-1.1363 0.87206-1.2684 1.83-0.89518 3.3032 1.2949 6.6362 2.5204 9.9758 3.7194 0.44593 0.16185 1.2189 0.24444 1.4666-0.01 2.1405-2.1603 4.1951-4.4032 6.4248-6.7849-4.7798-1.972-9.3647-3.8615-13.89-5.7245 0.20811-1.3543 0.81921-1.3411 1.7342-0.97115 4.1258 1.6681 8.2647 3.2966 12.417 4.8987 0.43933 0.16516 1.1892 0.25105 1.4534 7e-3 1.2618-1.1793 2.4048-2.4873 3.7062-3.8747-5.6452-2.081-11.059-4.0762-16.586-6.1176 0.32371-0.67716 0.56815-1.1958 0.82581-1.7507 5.3711 1.9919 10.613 3.9507 15.872 5.8632 0.49549 0.17838 1.3444 0.3039 1.612 0.0396 1.8994-1.9093 3.6897-3.9242 5.5131-5.9062-6.8806-1.3841-14.055-2.8276-21.352-4.2942 0.2015-0.55164 0.34684-0.94142 0.50209-1.3576 6.9599 1.318 13.841 2.5765 20.701 3.9507 1.3774 0.28078 2.1934 0.03303 2.9564-1.1793 1.176-1.8597 2.5567-3.584 3.8351-5.381 0.21471-0.29729 0.36005-0.64413 0.60449-1.0967-8.7503-0.55164-17.302-1.0868-26.02-1.6351 1.3675-1.1099 2.6855-1.9621 3.7128-3.0753 1.0636-1.1495 1.8498-2.5567 2.8672-4.0101 7.6998 0.7135 15.595 1.9225 23.354 3.9242 0.37657 0.0991 0.90509 0.86875 0.84233 1.2288-0.45255 2.5501-0.83242 5.1431-1.6252 7.5941-2.4906 7.6932-6.2233 14.838-10.105 21.904-0.23783 0.43933-0.43933 0.89848-0.65404 1.3477 0.13544 0.0694 0.27087 0.13543 0.4063 0.2048 9.6223-8.0137 13.692-19.046 16.328-30.898 9.2788 3.0026 18.069 6.5933 25.233 13.305m-90.37-11.066c-8.5191 15.667-7.5347 31.13-0.37987 46.817-1.754 1.5889-3.6038 3.2636-5.4669 4.945 2.6624 2.0976 5.7807 2.9828 9.0112 3.4089 1.5988 0.2081 2.6855 0.8192 3.7228 2.0579 7.1152 8.4926 15.941 14.855 25.537 20.222 12.863 7.1978 26.518 12.163 41.132 14.303 18.904 2.7714 37.462 1.7276 55.243-5.8831 4.532-1.9423 8.747-4.6113 13.147-6.8773 0.55825-0.29069 1.4501-0.41291 1.9918-0.17507 18.848 8.3506 37.667 16.747 56.482 25.157 1.7606 0.78618 3.5047 1.3477 5.4834 1.2222 2.0976-0.13213 4.2182 0.076 6.3125-0.0727 1.1528-0.0826 2.3222-0.48888 3.3891-0.95794 0.39638-0.18168 0.69368-0.95133 0.74653-1.4766 0.25104-2.5204-1.0042-4.532-2.3882-6.4644-0.69368-0.96785-1.503-1.8564-2.5138-3.0852 1.2817 0 2.2958 0.0198 3.3132-3e-3 2.5138-0.0529 3.9209-2.3816 3.4023-4.7831-0.63753-2.9597-3.1447-4.2876-4.8756-6.2431-1.4468-1.6351-3.4321-2.8342-5.2918-4.0531-2.6063-1.7144-5.3215-3.257-7.974-4.8921-1.645-1.0174-3.2735-2.0678-4.902-3.1083-2.8672-1.83-5.5362-4.205-8.6545-5.3546-3.0456-1.1198-5.0738-3.7294-8.2152-4.5849-1.4039-0.37657-2.5303-1.7045-3.8384-2.5038-2.3948-1.4567-4.8359-2.8276-7.2473-4.2579-1.0702-0.63422-2.2429-1.1892-3.1183-2.0315-0.512-0.49218-0.8159-1.5294-0.7168-2.2561 0.80599-5.9062 0.68047-11.776-0.53513-17.606-0.0892-0.42281-0.67716-1.0504-1.0405-1.0537-7.1185-0.0892-14.234-0.0925-21.352-0.10901-0.13874 0-0.27417 0.0892-0.47237 0.16186-7e-3 2.0216 1.4006 3.8813 0.88527 6.1704-3.1183-2.2297-5.7674-4.5023-7.4125-7.8254-0.6177-1.2486-1.7705-2.2297-2.6855-3.3297-0.18829-0.22792-0.44594-0.4129-0.58467-0.66725-1.067-1.9423-1.0504-1.9588 0.78286-3.3065 7.0425-5.1696 13.064-11.224 16.691-19.34 2.9366-6.5701 3.954-13.461 3.5873-20.629-0.84893-16.672-8.8428-29.614-21.263-40.022-16.037-13.441-34.661-21.471-55.174-25.247-9.956-1.83-19.995-2.2792-30.073-1.4567-16.586 1.3477-31.969 6.1903-45.459 16.209-9.5365 7.0821-15.466 16.467-17.514 28.233-0.58798 3.3594-0.6144 3.3561-4.0068 3.3561-16.741 0.0033-33.485-0.0066-50.229 0.01652-2.2429 0.0066-4.5221-0.01982-6.7221 0.35014-2.5567 0.42612-4.6642 1.8961-6.2695 3.9507-0.83242 1.0669-1.7738 1.6615-3.1579 1.5922-1.1495-0.05946-2.3189 0.14865-3.4585 0.01652-1.8861-0.21472-2.9663 0.56485-3.9474 2.1702-2.7054 4.4296-4.0101 9.2854-2.93 14.234 1.2751 5.8401 4.1819 11.036 9.1665 14.729 0.44924 0.33363 1.2321 0.30059 1.8597 0.3039 17.894 0.01982 35.791 0.02643 53.688 0.02973 10.825 0.0033 21.656 0 32.484 0z"/><path d="m28.938 72.018c-3.8945 0.54173-7.5347 1.0471-11.231 1.5591-0.22462-0.80269-0.4096-1.4534-0.63092-2.2462 3.7261-0.53512 7.3101-1.0504 10.95-1.5723 0.3006 0.73993 0.55494 1.3741 0.91169 2.2594m-2.2726-5.1927c-2.6954 0.42612-5.3975 0.88527-8.1128 1.2717-2.5699 0.36336-2.5765 0.32702-3.0852-2.2693-0.01652-0.09249 0.01321-0.19159 0.02643-0.34023 2.9234-0.3039 5.8566-0.60119 8.7899-0.90839 2.0084-0.21141 2.1834-0.05946 2.3816 2.2462m-7.7263 10.366c3.399-0.5054 6.8047-1.0306 10.217-1.4765 0.33693-0.04294 0.86875 0.35345 1.0835 0.69038 0.33693 0.52191 0.47897 1.166 0.77626 1.9456-3.3065 0.33363-6.4413 0.6177-9.5662 0.97115-2.2561 0.25435-2.2627 0.28408-2.5105-2.1306m64.307-14.68c1.797 0.08588 3.4189 0.16186 5.1002 0.24114 0.64083 3.7459 1.2585 7.3563 1.8994 11.079-1.7573 0.11231-3.2306 0.2081-4.7468 0.3039-0.75974-3.9143-1.4799-7.6305-2.2528-11.624m-21.081 13.144c-0.8159-4.3471-1.612-8.5752-2.4675-13.13 1.4105 0 2.5996-0.05946 3.7723 0.03634 0.37657 0.03303 0.97776 0.42612 1.0372 0.73993 0.76635 3.9408 1.4534 7.9013 2.1735 11.951-1.5393 0.13874-2.963 0.26426-4.5155 0.403m-8.0137-12.945c1.3048 0 2.451 0.05946 3.5873-0.01652 0.915-0.06606 1.3246 0.16846 1.4633 1.1627 0.27747 1.9687 0.74653 3.911 1.1066 5.8699 0.35345 1.9324 0.67716 3.8714 1.0438 5.9822-1.7606 0.10901-3.2735 0.2015-4.8293 0.30059-0.80269-4.5122-1.569-8.813-2.3717-13.299m28.342-0.13873c0.74984 3.8846 1.4765 7.6371 2.2363 11.561-2.1405 0.12552-4.1654 0.24774-6.3224 0.37657-0.77296-4.0795-1.5228-8.0137-2.2627-11.938zm18.102 10.702c-0.41621-3.2504-0.84563-6.5933-1.2949-10.118 3.3792 0.23783 6.5437 0.45915 9.8337 0.69038v9.4274zm-58.226-9.9692c0.67386 4.651 1.3312 9.1698 1.9919 13.751-2.1636 0.22792-4.1984 0.4129-6.2266 0.66725-0.92821 0.11892-1.2982-0.26096-1.5789-1.1099-0.90178-2.7516-1.8961-5.4702-2.8408-8.2052-0.49549-1.4402-0.95794-2.8936-1.4732-4.4362 3.4618-0.22792 6.7386-0.44594 10.128-0.66725m67.594 9.8569v-9.259c19.109 1.8234 37.885 4.6609 55.726 11.888-18.412-2.963-36.953-3.0324-55.726-2.6294m89.732 33.918c-0.48227-2.0976-0.78287-4.2579-1.4766-6.2828-2.4642-7.1647-7.3233-12.559-13.137-17.174-7.9046-6.2695-16.942-10.395-26.406-13.652-10.996-3.7789-22.323-6.1837-33.809-7.9179-12.037-1.8135-24.14-2.9927-36.299-3.3363-11.515-0.33032-23.04-0.58467-34.555-0.4129-11.152 0.16846-22.303 0.89188-33.452 1.4435-4.3438 0.21141-8.6743 0.62762-13.117 0.95794 0.029729 0.4096-0.0033 0.75314 0.085884 1.0636 1.7276 6.1572 3.5014 12.298 5.1795 18.468 0.34023 1.2486 0.87206 1.4501 2.1042 1.3048 6.2068-0.73332 12.433-1.3642 18.653-1.9786 6.0747-0.59789 12.153-1.1627 18.234-1.6847 5.5858-0.47897 11.175-0.93482 16.767-1.2949 8.2911-0.53843 16.582-1.2057 24.887-1.4237 14.016-0.36336 28.041-0.64083 42.06-0.512 7.6899 0.07267 15.4 0.76966 23.037 1.7144 5.2224 0.64744 10.663 1.4435 15.429 3.508 11.895 5.1564 20.738 13.623 24.844 26.34 0.1057 0.32372 0.23122 0.64413 0.35014 0.96455 0.20811-0.033 0.41621-0.0628 0.62101-0.0958"/><path d="m161.6 36.225c-2.6294-4.935-4.7137-9.8932-9.1169-13.15-0.2015 0.08919-0.4063 0.17838-0.60449 0.27086 0.32702 1.4799 0.44263 3.0489 1.0207 4.423 1.5955 3.8218 3.1843 7.6734 5.1729 11.297 1.2784 2.3321 3.9738 3.072 6.4314 3.7591 2.2892 0.64083 4.4594 0.22132 6.6428-1.5129-0.52191 2.7384-1.1198 5.0969-1.394 7.495-0.47236 4.1125-0.84232 8.2449-1.0504 12.381-0.0826 1.5294 0.13213 3.1975 1.8168 4.532 0.5021-1.7606 0.99758-3.2966 1.3808-4.8558 1.5657-6.362 3.1182-12.751 3.1083-19.34 0-2.8639-0.4096-5.7741-1.0306-8.5785-0.48888-2.1934-1.8894-3.9804-4.2612-4.6411-0.59459-0.16186-1.2387-0.15195-1.939-0.23123 1.5525 4.2909 1.4633 6.1473-0.41951 8.159-0.47566-2.0117-0.94142-3.9342-1.384-5.8632-0.62101-2.7318-2.2264-4.8855-4.0564-6.8873-0.33693-0.36996-1.1561-0.70359-1.5228-0.53843-0.3997 0.17838-0.73663 0.95464-0.73663 1.4732 0 0.80599 0.13874 1.6979 0.512 2.4048 1.5426 2.9399 2.0579 5.7906 1.4303 9.4043"/><path d="m148.97 45.892c0.96455-3.4288 3.1282-5.6816 6.0747-7.4851-2.3486-4.9086-4.6642-9.7512-6.9864-14.61-1.569 0.21801-2.3948 1.2189-3.0291 2.3651-1.5261 2.7615-1.8597 5.7675-1.5988 8.8593 0.0297 0.34354 0.1057 0.7102 0.26426 1.0108 1.7474 3.2933 3.5146 6.5734 5.2753 9.8602"/><path d="m165.67 48.001c-3.7062 0.25765-7.2704 0.63092-10.841 0.69698-1.8267 0.02973-2.6988 0.72671-3.0951 2.4048-0.19489 0.80269-0.60119 1.5591-1.024 2.6228 5.087 0.3105 9.9692 0.60449 14.96 0.90839z"/><path d="m166.3 45.859c-4.096-1.4799-8.3043-1.6186-12.579-0.80929 4.1951 0.27086 8.3902 0.53843 12.579 0.80929"/><path d="m196.92 126.56c0.31381-3.148-3.0456-6.1738-5.5891-5.1266 1.2057 0.57146 2.5765 0.90839 3.5047 1.7441 0.90509 0.81259 1.3477 2.1339 2.0843 3.3825"/></g><g fill="#ffcf01" fill-rule="evenodd"><path d="m229.75 59.168h-36.27c2.2165 1.9258 4.5287 3.4354 7.5215 3.4453 9.2722 0.02643 18.544 0.1057 27.82 0.1024 1.2255 0 1.7045 0.27747 1.9027 1.5922 1.4699 9.7346 0.0264 18.934-4.7765 27.562-1.0967 1.972-0.9183 3.8252 0.49549 5.7344 0.46245 0.62431 0.69368 1.4171 1.024 2.1372 0.33033 0.7135 0.59789 1.4666 0.98437 2.1504 0.34684 0.6177 0.82251 1.1627 1.4402 2.0183 1.6186-1.2784 3.4552-2.5435 5.0837-4.0366 10.138-9.3085 14.102-20.943 12.879-34.509-1.3543-14.977-8.8395-26.594-20.021-36.028-14.676-12.384-31.685-20.041-50.381-24.091-8.344-1.8135-16.804-2.6195-25.326-2.5402-16.767 0.15525-32.639 3.7855-47.055 12.701-7.9047 4.8855-14.574 11.013-18.244 19.76-1.2585 2.9993-1.8036 6.3026-2.6855 9.4638-0.25105 0.89848 0.13543 1.1958 0.96785 1.1925 4.6642-0.0033 9.325-0.0099 13.986 0.0033 1.3246 0.0033 1.3114-1.0141 1.4567-1.8696 0.73001-4.3669 2.0414-8.5521 4.129-12.463 5.1762-9.6818 13.375-15.932 23.255-20.166 7.6734-3.2834 15.75-4.6873 24.091-4.9549 20.298-0.66065 38.268 5.7146 54.282 17.884 11.462 8.7073 19.509 19.869 23.235 33.928 0.0595 0.23123 0.0991 0.47236 0.2048 0.98436"/><path d="m108.11 141.43c2.8375 2.7384 5.2951 5.4437 8.0764 7.7527 15.763 13.087 33.812 21.329 53.915 25.148 8.704 1.6516 17.491 2.157 26.314 1.7243 15.092-0.73992 29.26-4.6675 42.136-12.784 0.2081-0.12552 0.4063-0.27417 0.78947-0.53843-3.1711-1.4072-6.187-2.7681-9.2326-4.0531-0.28738-0.12222-0.85224 0.0991-1.1495 0.33693-9.738 7.7791-20.913 11.802-33.267 12.615-25.868 1.6979-47.96-6.8047-66.408-24.89-2.1009-2.0579-3.8086-4.5089-5.741-6.7419-0.30059-0.34354-0.88196-0.73993-1.2552-0.67386-2.309 0.39969-4.5816 1.0306-6.8972 1.3874-2.2462 0.34684-4.5354 0.45585-7.2803 0.7168"/><path d="m118.37 85.732h-1.645c-4.2546 0-8.5124-0.04625-12.764 0.03964-0.66065 0.01321-1.579 0.45585-1.9258 0.99097-4.8954 7.5908-6.5768 15.981-5.9954 24.903 0.39309 6.0449 1.8102 11.829 4.39 17.319 0.18829 0.403 0.4063 0.78948 0.73663 1.4237 2.5468-2.9762 5.0077-5.7906 7.3992-8.6677 1.3411-1.6153 2.6459-3.2768 3.7954-5.0308 0.49879-0.76636 0.89518-1.8597 0.77626-2.7285-1.3048-9.7247 0.10571-18.924 4.9714-27.519 0.0694-0.12222 0.0958-0.27087 0.26096-0.73002"/><path d="m243 118.68c0.11231 2.5567 1.9225 3.409 3.4156 4.466 1.8961 1.351 3.8086 2.6921 5.7972 3.9011 1.6946 1.0273 3.5146 1.8498 5.2621 2.7945 0.36666 0.2048 0.63092 0.6078 0.99758 0.8159 0.41621 0.22792 0.90178 0.46906 1.3444 0.44263 0.18498-0.0132 0.46906-0.70359 0.46575-1.0868-0.0429-3.4354-0.109-6.874-0.25434-10.313-0.0198-0.35345-0.6078-0.97446-0.93482-0.97776-5.305-0.0628-10.613-0.0429-16.093-0.0429"/><path d="m196.92 126.56c-0.73662-1.2486-1.1792-2.5699-2.0843-3.3825-0.92821-0.83572-2.2991-1.1726-3.5047-1.7441 2.5435-1.0471 5.9029 1.9786 5.5891 5.1266m-30.628-80.701c-4.1918-0.26756-8.3836-0.53843-12.575-0.80929 4.2711-0.80929 8.4794-0.67056 12.575 0.80929m22.693 76.698c-0.11231 0.65734-0.24444 1.285-0.32041 1.9225-0.31381 2.6558 1.1561 4.4693 3.8218 4.684 0.84232 0.0661 1.7045-0.0429 2.5402 0.0793 0.36005 0.0495 0.66725 0.46906 1.0009 0.72011-0.29729 0.24114-0.57146 0.66065-0.88527 0.68707-0.89188 0.0892-1.8102 0.12553-2.6921-0.0132-4.7335-0.74983-5.6816-3.6005-5.011-7.5215 0.15525-0.89518 0.55164-1.2585 1.5459-0.55825m4.0696 0.88196c1.4898 0.0198 2.6591 1.1826 2.6723 2.6591 0.0132 1.503-1.2949 2.7978-2.778 2.7615-1.4534-0.0396-2.6492-1.2651-2.6591-2.7219-0.0132-1.5756 1.1561-2.7153 2.7648-2.6988m-41.234-7.2044c0.0132-0.15195 0.0264-0.3039 0.0396-0.45915 7.4125 0.86875 15.046 0.76965 21.712 4.8756-0.0396 0.17507-0.0826 0.35345-0.11892 0.52852-7.211-1.6483-14.422-3.2966-21.633-4.945m13.844-68.232v6.6329c-4.9912-0.3039-9.8701-0.60119-14.96-0.90839 0.42281-1.0636 0.83241-1.8201 1.024-2.6261 0.39969-1.6747 1.2684-2.3717 3.0984-2.4048 3.5675-0.06276 7.1317-0.43933 10.838-0.69368m-16.698-2.1108c-1.7606-3.2834-3.5279-6.5668-5.2753-9.8602-0.15856-0.3006-0.23453-0.66395-0.26426-1.0075-0.26096-3.0951 0.0727-6.1011 1.5988-8.8626 0.63092-1.1462 1.46-2.1471 3.0291-2.3651 2.3222 4.8591 4.6378 9.7016 6.983 14.614-2.9432 1.8003-5.1068 4.0531-6.0714 7.4818m12.632-9.6653c0.62761-3.617 0.11231-6.4644-1.4303-9.4043-0.37326-0.70689-0.512-1.5988-0.512-2.4081 0-0.5153 0.33693-1.2916 0.73663-1.4699 0.36665-0.16516 1.1859 0.16846 1.5261 0.53512 1.83 2.0051 3.4321 4.1588 4.0564 6.8906 0.43933 1.9258 0.90509 3.8516 1.3808 5.8599 1.8828-2.0084 1.972-3.8648 0.41951-8.1557 0.70029 0.07928 1.3444 0.06937 1.939 0.23123 2.3717 0.65734 3.7756 2.4477 4.2579 4.641 0.62431 2.8044 1.0339 5.7113 1.0339 8.5785 0.01 6.59-1.5426 12.975-3.1083 19.34-0.38318 1.5591-0.87866 3.0918-1.3808 4.8558-1.6846-1.3345-1.8961-3.0059-1.8168-4.532 0.20811-4.1357 0.57807-8.268 1.0504-12.381 0.27417-2.3982 0.87206-4.7567 1.394-7.4984-2.1834 1.7375-4.3537 2.157-6.6428 1.5162-2.4576-0.68707-5.153-1.427-6.4314-3.7591-1.9852-3.6237-3.5774-7.4752-5.1729-11.3-0.57807-1.3708-0.69699-2.9399-1.0207-4.423 0.20149-0.08919 0.40299-0.17838 0.60779-0.26756 4.3966 3.257 6.4843 8.2152 9.1136 13.15m-4.0002 78.112c0.44263-0.73662 0.7201-1.3246 1.1099-1.8234 2.0183-2.6162 2.854-5.6485 3.3429-8.8527 0.67717-4.4329 1.4865-8.8395 2.2561-13.348 0.43273 0.03634 0.84894-0.01321 1.1958 0.11892 3.7624 1.4501 7.6371 2.6822 11.241 4.4594 4.5618 2.2495 8.2647 5.6221 10.689 10.197 0.45254 0.84563 0.82251 1.8795 0.79278 2.8144-0.12222 4.0266-3.0357 6.7882-7.244 6.8146-1.3774 0.01-2.2693 0.37988-2.8309 1.6186-0.16516 0.36336-0.46576 0.65734-0.64413 1.0108-0.41291 0.82251-0.89848 1.0802-1.9093 0.83242-3.0522-0.74323-6.1506-1.2982-9.2292-1.9489-2.8573-0.60119-5.7113-1.2321-8.7701-1.8928m42.093-7.2605c-0.2048 0.033-0.41291 0.0628-0.62101 0.0958-0.11892-0.32041-0.24444-0.63752-0.35014-0.96454-4.1059-12.714-12.949-21.184-24.847-26.34-4.7633-2.0645-10.204-2.8606-15.426-3.508-7.6371-0.94473-15.347-1.6417-23.037-1.7144-14.019-0.12552-28.044 0.14864-42.06 0.5153-8.3043 0.21471-16.595 0.88196-24.887 1.4204-5.5924 0.36336-11.181 0.8192-16.764 1.2982-6.0813 0.52191-12.163 1.0868-18.234 1.6847-6.2233 0.6111-12.45 1.2453-18.657 1.9753-1.2321 0.14534-1.7639-0.05616-2.1042-1.3048-1.678-6.1672-3.4518-12.311-5.1794-18.465-0.089188-0.31381-0.056155-0.65734-0.082581-1.0636 4.4396-0.33032 8.7701-0.74984 13.114-0.96124 11.148-0.54834 22.3-1.2717 33.452-1.4402 11.515-0.17507 23.043 0.07928 34.555 0.4096 12.159 0.34684 24.262 1.5261 36.299 3.3396 11.485 1.7342 22.812 4.1357 33.809 7.9179 9.4638 3.257 18.501 7.3827 26.406 13.649 5.8137 4.6146 10.673 10.012 13.134 17.177 0.69698 2.0216 0.99758 4.1819 1.4798 6.2795m-9.9361-10.342c-7.168-6.7122-15.958-10.299-25.237-13.302-2.636 11.852-6.7023 22.882-16.328 30.895-0.13543-0.0661-0.27087-0.13213-0.4063-0.2015 0.21802-0.45254 0.41621-0.91169 0.65735-1.3477 3.878-7.0689 7.614-14.211 10.101-21.904 0.79278-2.4543 1.1726-5.0473 1.6252-7.5941 0.0661-0.36336-0.46245-1.133-0.83902-1.2288-7.7626-2.0051-15.657-3.2107-23.354-3.9276-1.0207 1.4534-1.8069 2.8639-2.8672 4.0101-1.0306 1.1165-2.3486 1.9687-3.7161 3.0786 8.7206 0.54504 17.273 1.0835 26.02 1.6318-0.24444 0.45254-0.38978 0.79938-0.60449 1.0967-1.275 1.797-2.6558 3.5213-3.8351 5.3843-0.76305 1.209-1.579 1.4567-2.9564 1.1793-6.8575-1.3741-13.741-2.636-20.698-3.954-0.15855 0.41621-0.30389 0.80929-0.50539 1.3576 7.3002 1.4699 14.475 2.9135 21.352 4.2975-1.8201 1.9786-3.6137 3.9969-5.5098 5.9029-0.26756 0.26426-1.1198 0.14204-1.612-0.0363-5.2621-1.9159-10.504-3.8714-15.872-5.8632-0.26096 0.55164-0.5054 1.0702-0.82912 1.7507 5.5296 2.0381 10.944 4.0333 16.589 6.1176-1.3048 1.3874-2.4444 2.6954-3.7062 3.8747-0.26426 0.24444-1.0141 0.15855-1.4534-0.01-4.1522-1.5988-8.2911-3.2306-12.417-4.8987-0.9183-0.36997-1.5294-0.38318-1.7342 0.97115 4.5221 1.8663 9.107 3.7558 13.887 5.7278-2.2264 2.3816-4.2843 4.6245-6.4248 6.7849-0.24774 0.25104-1.0207 0.16846-1.4666 0.01-3.3396-1.1991-6.6725-2.4246-9.9758-3.7194-0.95794-0.37657-1.5162-0.24444-1.8267 0.89187 3.9011 1.427 7.8155 2.854 11.935 4.3603-0.85223 1.0802-1.5261 2.1273-2.4048 2.9531-0.36666 0.34684-1.1991 0.37657-1.7804 0.28077-3.6501-0.58467-7.2836-1.2684-10.934-1.8564-0.42942-0.0661-1.1198 0.11561-1.3675 0.43603-4.8194 6.1837-10.134 11.898-16.06 17.038-0.06937 0.0628-0.1057 0.16846-0.34684 0.56485 1.2453 0.24444 2.3651 0.6144 3.4981 0.67056 7.6173 0.36996 14.931-1.1694 22.059-3.7062 8.344-2.9663 16.057-7.1548 23.423-12.07 1.7078-1.1429 3.9606-1.6153 6.0317-2.0282 6.471-1.2949 12.853-0.79608 19.007 1.6483 3.7393 1.4799 6.6957 3.8648 7.7329 7.9806 0.66395 2.6393 0.57477 5.2455-0.82911 7.6932-1.0405 1.8201-1.2255 3.7657-0.22462 5.5957 0.89518 1.6318 2.091 3.0918 3.2008 4.7005 0.28077-1.8465 0.38648-3.3726 0.80268-4.8029 0.13544-0.46906 1.1165-1.024 1.6648-0.98106 2.9234 0.21801 5.9062 0.32041 8.7238 1.0306 2.6096 0.65734 5.0143 0.87536 7.4059-0.38978 4.826-2.56 9.325-1.7012 13.689 1.1495 1.3213 0.86876 2.636 1.8168 4.0795 2.4246 31.982 13.471 63.98 26.895 95.979 40.323 1.2354 0.52191 2.5072 0.96785 3.7591 1.4468 0.14535-0.0793 0.29069-0.16186 0.43603-0.23783-0.50209-1.2883-0.83902-2.6756-1.5393-3.8384-2.0249-3.3528-4.8029-6.1209-8.0335-8.2152-10.081-6.5305-20.236-12.959-30.486-19.222-12.129-7.4125-24.226-14.917-36.646-21.815-9.7082-5.3909-15.879-13.56-20.612-23.139-2.9201-5.9128-5.6188-11.938-8.3638-17.937-2.9036-6.3554-7.4984-11.297-13.005-15.476 0.62101 0.6111 1.2519 1.2156 1.8597 1.8366 0.66725 0.68047 1.3246 1.3708 1.972 2.0678 6.1638 6.6065 10.293 14.257 11.707 23.242 0.82581 5.2323 0.69368 10.488-0.34354 15.684-0.25104 1.2718-0.0859 2.0381 1.0339 2.887 13.447 10.207 26.845 20.48 40.257 30.743 0.28408 0.21801 0.53843 0.47897 0.80929 0.72011-0.076 0.14864-0.15525 0.30059-0.23122 0.45254-16.728-6.068-33.459-12.133-50.186-18.198 0.0793-0.23123 0.16186-0.46246 0.24774-0.69368 15.244 5.523 30.496 11.046 45.74 16.566 0.0529-0.1024 0.10901-0.2048 0.16186-0.31051-13.92-8.5884-27.836-17.177-41.892-25.845 0.53513-0.77626 0.92821-1.536 1.4997-2.1306 1.6946-1.7507 1.83-3.8747 1.7408-6.1308-0.61771-15.522-7.6734-27.813-19.013-37.948-5.6783-5.0738-12.08-9.074-18.865-12.48-0.52852-0.26426-1.0537-0.53512-1.5955-0.8126 1.8102-5.6651 3.5477-11.238 5.3777-16.78 1.7672-5.3479 2.5038-10.742 0.65074-16.192-2.0381-5.9888-6.4281-9.8701-12.057-12.272-3.2834-1.4006-6.7617-2.6921-10.266-3.1414-4.4825-0.57476-8.7833 0.77296-12.172 3.9771-2.9663 2.8011-3.115 6.481-2.4774 10.204 0.78287 4.5585 2.8408 8.6182 5.2819 12.496 1.2552 1.9886 2.5105 4.063 1.1495 6.4083-1.3774 2.375-3.8417 2.9399-6.3686 2.9432-9.9758 0.0099-19.948-0.04955-29.924-0.07928-5.8137-0.01982-11.631-0.03303-17.444-0.06276-9.9725-0.04294-19.945-0.1057-29.921-0.13874-16.44-0.05946-32.88-0.10901-49.324-0.15856-2.8441-0.0099-5.6882-0.0033-8.6809-0.0033 1.7507 9.9031 3.4948 19.773 5.2488 29.703 1.8135 0 3.5576 0.08258 5.2918-0.01652 7.7956-0.43603 15.591-0.9183 23.387-1.3973 7.495-0.46245 14.987-0.95133 22.482-1.4072 7.2473-0.43933 14.495-0.84563 21.742-1.2817 7.7428-0.46906 15.489-0.96455 23.235-1.4303 7.3464-0.43933 14.696-0.82581 22.039-1.2883 4.8954-0.3105 9.7776-0.95133 14.67-1.0306 15.766-0.24774 30.502 2.7615 42.275 14.329 1.5922 1.5624 2.9399 3.3693 4.3999 5.0639-0.11562 0.11561-0.23123 0.23453-0.34684 0.34684"/><path d="m109.96 73.16c18.772-0.39969 37.313-0.33363 55.722 2.6327-17.837-7.2308-36.613-10.065-55.722-11.892v4.5386z"/><path d="m42.369 63.304c-3.3891 0.22132-6.6692 0.43933-10.128 0.66725 0.51531 1.5426 0.97776 2.996 1.4732 4.4362 0.94473 2.7351 1.939 5.4536 2.8408 8.2052 0.27747 0.84563 0.65074 1.2288 1.5789 1.1099 2.0249-0.25435 4.063-0.43933 6.2266-0.66725-0.66395-4.5816-1.318-9.1004-1.9919-13.751"/><path d="m100.6 73.273h8.5389v-9.4274c-3.2933-0.23123-6.4545-0.45254-9.837-0.69038 0.45254 3.5246 0.88196 6.8674 1.2982 10.118"/><path d="m82.494 62.57h-6.3488c0.73993 3.9242 1.4898 7.8584 2.2627 11.938 2.157-0.12883 4.1786-0.25105 6.3191-0.37657-0.75644-3.9242-1.4832-7.6767-2.233-11.561"/><path d="m54.153 62.711c0.79938 4.4825 1.5657 8.7866 2.3717 13.299 1.5525-0.0991 3.0687-0.19489 4.826-0.3039-0.36666-2.1075-0.68707-4.0465-1.0438-5.9822-0.36005-1.9555-0.82581-3.9011-1.1033-5.8699-0.14204-0.99428-0.55164-1.2255-1.4666-1.1627-1.1363 0.07597-2.2792 0.01982-3.584 0.01982"/><path d="m62.163 75.653c1.5558-0.13874 2.9795-0.26426 4.5188-0.403-0.72341-4.0498-1.4105-8.0071-2.1735-11.951-0.06276-0.31381-0.66395-0.70689-1.0372-0.73662-1.1726-0.0991-2.3618-0.03964-3.7756-0.03964 0.85554 4.5585 1.6516 8.7866 2.4675 13.13"/><path d="m83.245 62.512c0.77296 3.9936 1.4964 7.7098 2.2528 11.624 1.5162-0.0991 2.9894-0.19159 4.7501-0.3039-0.64083-3.7228-1.2585-7.3365-1.9027-11.079-1.6813-0.07928-3.3032-0.15525-5.1002-0.24114"/><path d="m18.938 77.191c0.25105 2.4147 0.25435 2.3816 2.5105 2.1306 3.1249-0.35345 6.2596-0.64083 9.5662-0.97115-0.29399-0.77956-0.43933-1.4237-0.77626-1.9456-0.21471-0.34023-0.74653-0.73662-1.0835-0.69038-3.4122 0.44263-6.8179 0.97115-10.217 1.4765"/><path d="m26.665 66.825c-0.2015-2.3057-0.37327-2.4576-2.3816-2.2462-2.9333 0.3072-5.8666 0.60449-8.7899 0.90839-0.01321 0.14865-0.04294 0.24774-0.02643 0.34023 0.5087 2.5963 0.5153 2.6327 3.0852 2.266 2.7153-0.38318 5.4173-0.84233 8.1128-1.2684"/><path d="m28.938 72.018c-0.35675-0.88527-0.6111-1.5195-0.91169-2.2594-3.6402 0.52191-7.2242 1.0372-10.95 1.5723 0.22132 0.79278 0.4063 1.4435 0.63092 2.2462 3.6963-0.512 7.3365-1.0174 11.231-1.5591"/></g><g fill="#48a3f1"><path d="m258.83 52.754 24.289 1.5228c0.52522-3.9474 1.5955-6.9533 3.2108-9.0178 2.6294-3.3429 6.3852-5.0143 11.271-5.0143 3.6435 0 6.4512 0.85224 8.4233 2.5633 1.9753 1.7078 2.9597 3.6897 2.9597 5.9458 0 2.1405-0.93812 4.0564-2.8177 5.7476-1.8795 1.6913-6.2365 3.2867-13.074 4.7897-11.195 2.5171-19.179 5.8599-23.948 10.032-4.8095 4.1687-7.2143 9.4836-7.2143 15.945 0 4.248 1.2321 8.2581 3.693 12.034 2.4576 3.7756 6.1605 6.7419 11.099 8.9022 4.9416 2.1603 11.713 3.2405 20.318 3.2405 10.554 0 18.604-1.9654 24.147-5.8897 5.5395-3.9243 8.8362-10.171 9.8899-18.736l-24.064-1.4105c-0.63753 3.7194-1.9819 6.4248-4.03 8.1161-2.048 1.6913-4.8723 2.5369-8.4794 2.5369-2.9696 0-5.2059-0.63092-6.7056-1.8895-1.503-1.2585-2.2561-2.7879-2.2561-4.5915 0-1.318 0.62101-2.5006 1.8597-3.551 1.2024-1.0901 4.0564-2.1042 8.5653-3.0423 11.158-2.4048 19.149-4.8392 23.978-7.2969 4.826-2.4609 8.3407-5.5164 10.537-9.1599 2.2-3.6435 3.2966-7.7197 3.2966-12.229 0-5.2951-1.4633-10.181-4.3933-14.65-2.9333-4.4726-7.026-7.8617-12.285-10.171-5.2621-2.3123-11.892-3.4684-19.892-3.4684-14.052 0-23.783 2.7054-29.191 8.1161-5.4107 5.4107-8.4728 12.285-9.1863 20.625"/><path d="m259.81 51.922c0.83242-7.6833 3.8053-14.128 8.8395-19.162 5.2125-5.2125 14.822-7.8551 28.56-7.8551 7.8386 0 14.412 1.1429 19.532 3.3924 5.0771 2.2297 9.0806 5.5395 11.902 9.8437 2.8177 4.3008 4.248 9.0674 4.248 14.164 0 4.3206-1.0669 8.2812-3.1711 11.766-2.0976 3.4816-5.523 6.4512-10.177 8.823-4.7368 2.4147-12.731 4.8425-23.76 7.2209-4.7038 0.97776-7.6437 2.0447-8.9782 3.2537-1.4204 1.2024-2.1504 2.6294-2.1504 4.2116 0 2.0711 0.86545 3.845 2.5732 5.2753 1.6615 1.3907 4.1092 2.0976 7.277 2.0976 3.802 0 6.8476-0.9216 9.0509-2.7384 2.0546-1.7012 3.4651-4.3438 4.1918-7.8683l22.317 1.3048c-1.1363 7.789-4.2942 13.563-9.3911 17.177-5.3612 3.7987-13.312 5.7245-23.631 5.7245-8.4398 0-15.155-1.0636-19.958-3.1645-4.7567-2.081-8.3605-4.9648-10.712-8.5752-2.3519-3.6104-3.5444-7.495-3.5444-11.542 0-6.1638 2.3222-11.3 6.9038-15.274 4.6378-4.0564 12.566-7.3662 23.562-9.837 7.0524-1.5492 11.462-3.1843 13.474-4.9978 2.0678-1.8564 3.115-4.0134 3.115-6.4083 0-2.5138-1.1-4.7435-3.2669-6.6197-2.1306-1.8465-5.163-2.7813-9.0079-2.7813-5.1498 0-9.1797 1.8003-11.974 5.3546-1.5922 2.0348-2.6921 4.935-3.2735 8.6281zm37.399-28.801c-14.23 0-24.262 2.821-29.822 8.377-5.5362 5.5395-8.7139 12.665-9.444 21.18l-0.076 0.90839 26.03 1.6318 0.10901-0.82581c0.50209-3.7657 1.5195-6.6527 3.0291-8.5851 2.4708-3.1414 5.9293-4.6708 10.57-4.6708 3.4056 0 6.0416 0.78947 7.8386 2.3453 1.7838 1.5459 2.6525 3.2702 2.6525 5.272 0 1.8928-0.82581 3.5576-2.5237 5.0837-1.754 1.5789-6.0152 3.1183-12.668 4.5816-11.294 2.5402-19.482 5.9822-24.345 10.23-4.9879 4.3272-7.5182 9.9163-7.5182 16.622 0 4.3999 1.2883 8.6115 3.8351 12.516 2.5435 3.9044 6.4116 7.0128 11.492 9.2326 5.0275 2.2 11.984 3.3164 20.672 3.3164 10.693 0 18.994-2.0348 24.662-6.0548 5.7278-4.0564 9.1797-10.57 10.26-19.354l0.11562-0.94473-25.808-1.5096-0.13543 0.78617c-0.59789 3.4849-1.8498 6.035-3.7162 7.5776-1.8762 1.5459-4.5386 2.3321-7.9146 2.3321-2.7384 0-4.8029-0.56485-6.1341-1.6813-1.3015-1.0901-1.9324-2.3684-1.9324-3.9077 0-1.0504 0.5054-1.9885 1.5426-2.8705 0.76304-0.69038 2.778-1.7276 8.1722-2.8507 11.185-2.4081 19.327-4.8921 24.2-7.3761 4.9549-2.527 8.6248-5.7212 10.897-9.4902 2.2726-3.7657 3.4255-8.0368 3.4255-12.688 0-5.4503-1.5294-10.544-4.542-15.142-3.0126-4.5981-7.277-8.1293-12.671-10.498-5.3512-2.3519-12.163-3.5444-20.252-3.5444"/><path d="m372.44 43.175h13.018c4.3933 0 7.495 0.77956 9.2986 2.3387 1.8036 1.5591 2.7054 3.6534 2.7054 6.2828 0 2.4411-0.89518 4.4032-2.6789 5.8897-1.7838 1.4832-4.9119 2.2264-9.3812 2.2264h-12.962zm0 32.458h11.102c3.9804 0 6.7518 0.68707 8.311 2.0579 1.5591 1.3708 2.3387 3.3528 2.3387 5.9458 0 2.4048-0.77956 4.281-2.3387 5.6353-1.5591 1.351-4.2744 2.0282-8.1425 2.0282h-11.271zm-25.752 32.405h47.785c7.9641 0 14.078-1.972 18.343-5.9194 4.2645-3.9441 6.3951-8.8263 6.3951-14.65 0-4.8855-1.5195-9.074-4.5618-12.569-2.0315-2.3288-4.9978-4.1687-8.9055-5.5197 5.9359-1.4303 10.303-3.8813 13.104-7.3563 2.7978-3.475 4.1984-7.8419 4.1984-13.101 0-4.281-0.99757-8.1359-2.9861-11.551-1.9952-3.4189-4.717-6.1242-8.1722-8.1161-2.1405-1.2387-5.3744-2.1405-9.695-2.7054-5.7476-0.74984-9.5596-1.1264-11.439-1.1264h-44.065z"/><path d="m373.33 76.525h10.21c3.7393 0 6.3389 0.61771 7.723 1.8366 1.3675 1.2024 2.0348 2.93 2.0348 5.2753 0 2.1504-0.66395 3.7756-2.0315 4.9615-1.384 1.1991-3.9276 1.8102-7.5578 1.8102h-10.379zm10.21-1.7837h-11.994v17.451h12.163c4.129 0 6.983-0.73662 8.7272-2.2495 1.7573-1.5228 2.6459-3.6435 2.6459-6.3059 0-2.8507-0.88858-5.0738-2.6426-6.6164-1.7408-1.5327-4.6543-2.2792-8.8989-2.2792m-10.21-30.674h12.126c4.1555 0 7.0854 0.7135 8.7139 2.1207 1.612 1.394 2.3982 3.2273 2.3982 5.6089 0 2.1834-0.77295 3.8846-2.3552 5.2026-1.6153 1.3411-4.5816 2.0183-8.813 2.0183h-12.07zm12.126-1.7837h-13.91v18.518h13.854c4.7269 0 7.9806-0.79278 9.9527-2.4312 1.9886-1.6549 2.9993-3.8681 2.9993-6.5734 0-2.8903-1.0141-5.2323-3.0158-6.9599-1.9886-1.7177-5.2191-2.5534-9.88-2.5534m-37.878-15.968h43.173c1.8333 0 5.6419 0.37657 11.324 1.1198 4.1852 0.54504 7.3365 1.4171 9.3647 2.593 3.3032 1.9027 5.9425 4.5221 7.8452 7.7923 1.9027 3.2636 2.8672 6.9963 2.8672 11.102 0 5.0242-1.3477 9.2458-4.0035 12.542-2.6591 3.2999-6.9038 5.6717-12.615 7.0458l-2.963 0.7102 2.8804 1.0009c3.7393 1.2949 6.6065 3.0654 8.5224 5.2621 2.8837 3.3131 4.3438 7.3431 4.3438 11.984 0 5.5362-2.0546 10.243-6.1077 13.996-4.0762 3.769-10.042 5.6783-17.738 5.6783h-46.893zm43.173-1.7837h-44.957v84.394h48.677c8.159 0 14.534-2.0711 18.947-6.1539 4.4362-4.1026 6.6824-9.2524 6.6824-15.304 0-5.0837-1.6087-9.51-4.7831-13.153-1.6582-1.906-3.9309-3.5113-6.775-4.7897 4.8194-1.5294 8.5092-3.8582 10.996-6.9434 2.9168-3.6204 4.3966-8.2152 4.3966-13.659 0-4.423-1.0471-8.4629-3.1084-12.001-2.0645-3.5411-4.9218-6.3819-8.4959-8.4398-2.233-1.2916-5.6056-2.2396-10.025-2.8144-5.8368-0.76635-9.6157-1.1363-11.555-1.1363"/><path d="m430.59 108.04h77.596v-20.401h-26.033v-62.213h-25.527v62.213h-26.036z"/><path d="m457.52 26.315h23.744v62.213h26.036v18.617h-75.816v-18.617h26.036zm25.527-1.7837h-27.311v62.213h-26.036v22.185h79.38v-22.185h-26.033z"/><path d="m519.91 108.04h23.836l31.107-45.704v45.704h24.064v-82.614h-24.064l-30.935 45.36v-45.36h-24.008z"/><path d="m575.33 26.315h22.7v80.83h-22.28v-47.712l-32.471 47.712h-22.472v-80.83h22.224v47.359zm24.484-1.7837h-25.425l-29.574 43.362v-43.362h-25.792v84.398h25.2l29.742-43.702v43.702h25.848z"/><path d="m265.28 6.3885h-1.5426c-0.01 0.075975-0.0132 0.13213-0.0132 0.17177-0.0363 0.46576-0.14204 0.75974-0.31051 0.88196-0.17177 0.11892-0.57476 0.17837-1.209 0.17837-0.74984 0-1.2387-0.069368-1.4699-0.2081-0.23123-0.13543-0.34354-0.42942-0.34354-0.87206 0-0.52522 0.0925-0.83902 0.28077-0.94473 0.18498-0.1057 0.80599-0.18828 1.8564-0.24444 1.2387-0.069368 2.0414-0.24774 2.4081-0.53182 0.36335-0.28408 0.54503-0.87536 0.54503-1.7771 0-1.1066-0.21471-1.8201-0.64083-2.1438-0.42612-0.32372-1.3708-0.48558-2.8243-0.48558-1.3114 0-2.1834 0.15856-2.6129 0.47567-0.42942 0.31711-0.64413 0.95794-0.64413 1.9291l-3e-3 0.3039h1.536l7e-3 -0.17507c0-0.58467 0.1024-0.93812 0.3039-1.0702 0.2048-0.12883 0.75974-0.19489 1.6681-0.19489 0.70689 0 1.1594 0.075974 1.3543 0.22792 0.19489 0.14865 0.29399 0.49549 0.29399 1.0405 0 0.403-0.0727 0.67056-0.22132 0.80269-0.14865 0.13213-0.47236 0.21471-0.96455 0.24114l-0.87205 0.056155c-1.318 0.079278-2.1603 0.26096-2.527 0.54834-0.36666 0.29069-0.54834 0.91169-0.54834 1.863 0 0.97446 0.22132 1.6219 0.66065 1.9456 0.44264 0.32372 1.3246 0.48558 2.6492 0.48558 1.2519 0 2.0942-0.14865 2.5303-0.44594s0.65404-0.87866 0.65404-1.7408z"/><path d="m273.26 3.2501-1.4402 4.3405-1.4171-4.3405zm0.36666-1.166h-3.5972l-0.51861-1.5988h-1.6714l2.7714 8.3341h2.375l2.8144-8.3341h-1.6417z"/><path d="m278.52 0.48558h1.579v8.3341h-1.579z"/><path d="m286.86 4.9172h3.6699l0.0231-1.6549c0-1.2057-0.22793-1.9819-0.68047-2.3288-0.45254-0.34684-1.4666-0.52191-3.0357-0.52191-1.4435 0-2.3982 0.23123-2.8639 0.69698-0.46906 0.46245-0.70029 1.4105-0.70029 2.8375 0 1.8234 0.0925 2.9762 0.27747 3.4552 0.23123 0.58467 0.58467 0.98106 1.057 1.1859 0.47236 0.2015 1.275 0.3039 2.4048 0.3039 1.4832 0 2.4378-0.15856 2.8705-0.47236 0.42942-0.31711 0.64744-1.0141 0.64744-2.0976h-1.6021c-0.0264 0.54503-0.14534 0.88527-0.35675 1.0174-0.2081 0.13213-0.73331 0.19819-1.5789 0.19819-0.915 0-1.4931-0.11561-1.7408-0.34354s-0.36996-0.76305-0.36996-1.6054l-7e-3 -0.83572 0.0132-1.0669c0-0.82911 0.12222-1.3543 0.36666-1.5789 0.24444-0.22462 0.8093-0.34023 1.6979-0.34023 0.86214 0 1.4105 0.095794 1.645 0.28738 0.23453 0.19159 0.35014 0.64413 0.35014 1.3543l7e-3 0.34354h-2.0942z"/><path d="m297 7.5363c-1.0603 0-1.6813-0.13543-1.863-0.4096-0.17838-0.27417-0.26757-1.2156-0.26757-2.8309 0-1.1991 0.10571-1.9192 0.31381-2.1636 0.21141-0.24444 0.82912-0.36666 1.8531-0.36666 0.98106 0 1.569 0.13874 1.7639 0.4129 0.19489 0.27417 0.29399 1.1066 0.29399 2.5006s-0.0925 2.2198-0.27747 2.4741c-0.18499 0.25435-0.78948 0.38318-1.8168 0.38318m0.12222 1.3543c1.5129 0 2.4906-0.25105 2.9234-0.75314 0.43603-0.50209 0.65404-1.6252 0.65404-3.3726 0-1.9093-0.21801-3.1117-0.65734-3.6071-0.43603-0.49879-1.4964-0.74653-3.1777-0.74653-1.5129 0-2.4906 0.24444-2.9333 0.73662-0.44594 0.49218-0.66726 1.569-0.66726 3.2372 0 1.9852 0.21801 3.2339 0.65404 3.7426 0.43273 0.5087 1.503 0.76305 3.2041 0.76305"/><path d="m311.51 8.8183v-8.3341h-2.6789l-2.3816 4.5717c-0.11891 0.23123-0.30389 0.62762-0.55494 1.1991l-0.27087 0.59789-0.26095 0.59789h-0.0628l0.0264-0.54834 0.0165-0.54503 0.0132-1.0934v-4.7798h-1.5822v8.3341h2.6822l2.167-4.2248c0.19159-0.37327 0.41291-0.82911 0.66396-1.3609l0.31711-0.67716 0.31711-0.68377h0.0562l-0.0198 0.53843-0.0165 0.53512-0.0132 1.0736v4.7996z"/><path d="m321.68 1.8158h1.7342l0.55494 0.013213c0.53513 0 0.88527 0.072671 1.0537 0.22462 0.16846 0.15195 0.25435 0.46906 0.25435 0.95133 0 0.5054-0.0892 0.82251-0.26757 0.95464-0.17507 0.12883-0.61109 0.19489-1.3081 0.19489h-2.0216zm0 3.5047h1.9357c0.62761 0 1.0273 0.069368 1.1991 0.2081 0.17177 0.13543 0.26096 0.45585 0.26096 0.95794 0 0.66725-0.37987 1.0009-1.1363 1.0009h-2.2594zm-1.579-4.8359v8.3341h4.0927c0.96125 0 1.6153-0.15525 1.9654-0.46245 0.34684-0.3072 0.52191-0.88527 0.52191-1.7375 0-1.0273-0.4096-1.6351-1.2288-1.8168v-0.029729c0.95463-0.14865 1.4303-0.80929 1.4303-1.9852 0-0.85224-0.18498-1.4468-0.55164-1.7904-0.36336-0.34023-1.0042-0.512-1.9159-0.512z"/><path d="m331.61 4.6239h2.2726c0.53842 0 0.89848 0.095794 1.0768 0.29068 0.17507 0.19159 0.26426 0.58137 0.26426 1.1627 0 0.59458-0.076 0.97776-0.22792 1.1495-0.15195 0.17177-0.48888 0.26096-1.0042 0.26096h-2.3816zm-1.579-4.139v8.3341h4.1059c1.0207 0 1.7276-0.17837 2.1141-0.53182 0.38648-0.35345 0.57806-0.99428 0.57806-1.9225 0-0.84233-0.0958-1.4204-0.29068-1.7276-0.19159-0.3105-0.58798-0.52191-1.1859-0.64083v-0.056155c0.9249-0.056155 1.3874-0.59458 1.3874-1.6186v-1.8366h-1.5822v1.5195c0 0.85884-0.42282 1.2883-1.2684 1.2883h-2.2792v-2.8078z"/><path d="m343.43 7.5363c-1.0603 0-1.6846-0.13543-1.863-0.4096-0.17838-0.27417-0.26756-1.2156-0.26756-2.8309 0-1.1991 0.1057-1.9192 0.3138-2.1636 0.21141-0.24444 0.82912-0.36666 1.8531-0.36666 0.98106 0 1.569 0.13874 1.7639 0.4129 0.19489 0.27417 0.29399 1.1066 0.29399 2.5006s-0.0925 2.2198-0.27747 2.4741c-0.18499 0.25435-0.79278 0.38318-1.8168 0.38318m0.12222 1.3543c1.5129 0 2.4906-0.25105 2.9234-0.75314 0.43603-0.50209 0.65404-1.6252 0.65404-3.3726 0-1.9093-0.21801-3.1117-0.65734-3.6071-0.43603-0.49879-1.4964-0.74653-3.1777-0.74653-1.5129 0-2.4906 0.24444-2.9333 0.73662-0.44594 0.49218-0.66726 1.569-0.66726 3.2372 0 1.9852 0.21802 3.2339 0.65404 3.7426 0.43273 0.5087 1.503 0.76305 3.2041 0.76305"/><path d="m354.87 3.2501-1.4402 4.3405-1.4171-4.3405zm0.36666-1.166h-3.5972l-0.51861-1.5988h-1.6714l2.7714 8.3341h2.375l2.8144-8.3341h-1.6417z"/><path d="m361.71 1.8158h2.2528c0.75645 0 1.2453 0.17507 1.4699 0.52191 0.22132 0.35014 0.33033 1.1165 0.33033 2.3057 0 1.2288-0.0991 2.0084-0.29729 2.342-0.2015 0.33363-0.66726 0.50209-1.4039 0.50209h-2.3519zm-1.5789-1.3312v8.3341h4.0927c1.166 0 1.9819-0.25435 2.4477-0.76305s0.69698-1.4006 0.69698-2.6756c0-2.0777-0.18498-3.4155-0.56155-4.0068-0.37326-0.59128-1.2189-0.88857-2.5336-0.88857z"/><path d="m375.67 3.4575h1.5856v-0.28738c0-1.1594-0.21141-1.9093-0.63422-2.2495-0.42282-0.34023-1.3576-0.5087-2.8078-0.5087-1.645 0-2.6558 0.26756-3.0324 0.80599-0.37987 0.53843-0.56816 1.972-0.56816 4.3107 0 1.3741 0.25435 2.2792 0.76966 2.712 0.512 0.43272 1.5856 0.65074 3.2174 0.65074 1.1859 0 1.9786-0.17837 2.3783-0.53512s0.59789-1.0603 0.59789-2.1207l7e-3 -0.18828h-1.5856v0.21471c0 0.54503-0.1024 0.89187-0.3105 1.0438-0.2048 0.15195-0.67386 0.23123-1.4072 0.23123-0.97776 0-1.569-0.12222-1.7672-0.36005-0.1949-0.24114-0.29399-0.95133-0.29399-2.1372 0-1.5955 0.0892-2.5402 0.26426-2.8342 0.17837-0.29068 0.74983-0.43933 1.7177-0.43933 0.78617 0 1.2949 0.082581 1.5294 0.24444 0.23453 0.16186 0.35345 0.52191 0.35345 1.0736z"/><path d="m384.93 3.2501-1.4402 4.3405-1.4171-4.3405zm0.36666-1.166h-3.5972l-0.51861-1.5988h-1.6714l2.7714 8.3341h2.375l2.8144-8.3341h-1.6417z"/><path d="m396.38 6.3885h-1.5426c-0.01 0.075975-0.0132 0.13213-0.0132 0.17177-0.0363 0.46576-0.14204 0.75974-0.31051 0.88196-0.17176 0.11892-0.57476 0.17837-1.209 0.17837-0.74984 0-1.2387-0.069368-1.4699-0.2081-0.23123-0.13543-0.34354-0.42942-0.34354-0.87206 0-0.52522 0.0925-0.83902 0.28078-0.94473 0.18498-0.1057 0.80599-0.18828 1.8564-0.24444 1.2387-0.069368 2.0414-0.24774 2.4081-0.53182 0.36335-0.28408 0.54503-0.87536 0.54503-1.7771 0-1.1066-0.21471-1.8201-0.64083-2.1438-0.42611-0.32372-1.3708-0.48558-2.8243-0.48558-1.3114 0-2.1834 0.15856-2.6129 0.47567-0.42942 0.31711-0.64413 0.95794-0.64413 1.9291l-3e-3 0.3039h1.536l7e-3 -0.17507c0-0.58467 0.1024-0.93812 0.3039-1.0702 0.2048-0.12883 0.75974-0.19489 1.6681-0.19489 0.7069 0 1.1594 0.075974 1.3543 0.22792 0.19489 0.14865 0.29399 0.49549 0.29399 1.0405 0 0.403-0.0727 0.67056-0.22132 0.80269-0.14864 0.13213-0.47236 0.21471-0.96454 0.24114l-0.87206 0.056155c-1.318 0.079278-2.1603 0.26096-2.527 0.54834-0.36665 0.29069-0.54833 0.91169-0.54833 1.863 0 0.97446 0.22131 1.6219 0.66064 1.9456 0.44264 0.32372 1.3246 0.48558 2.6492 0.48558 1.2519 0 2.0943-0.14865 2.5303-0.44594 0.43603-0.29729 0.65404-0.87866 0.65404-1.7408z"/><path d="m403 7.4012v-6.917h-1.579v6.917h-2.4081v1.4171h6.4776v-1.4171z"/><path d="m408.29 0.48558h1.579v8.3341h-1.579z"/><path d="m421.08 8.8183v-8.3341h-2.6789l-2.3816 4.5717c-0.11892 0.23123-0.3039 0.62762-0.55495 1.1991l-0.27086 0.59789-0.26096 0.59789h-0.0628l0.0264-0.54834 0.0165-0.54503 0.0132-1.0934v-4.7798h-1.5822v8.3341h2.6822l2.1669-4.2248c0.19159-0.37327 0.41291-0.82911 0.66395-1.3609l0.31711-0.67716 0.31711-0.68377h0.0562l-0.0198 0.53843-0.0165 0.53512-0.0132 1.0736v4.7996z"/><path d="m427.83 4.9172h3.6699l0.0231-1.6549c0-1.2057-0.22793-1.9819-0.68047-2.3288-0.45255-0.34684-1.4666-0.52191-3.0357-0.52191-1.4435 0-2.3982 0.23123-2.8639 0.69698-0.46906 0.46245-0.70359 1.4105-0.70359 2.8375 0 1.8234 0.0958 2.9762 0.28078 3.4552 0.23123 0.58467 0.58467 0.98106 1.057 1.1859 0.47236 0.2015 1.275 0.3039 2.4048 0.3039 1.4832 0 2.4378-0.15856 2.8705-0.47236 0.42942-0.31711 0.64743-1.0141 0.64743-2.0976h-1.6021c-0.0264 0.54503-0.14534 0.88527-0.35675 1.0174-0.2081 0.13213-0.73332 0.19819-1.579 0.19819-0.91499 0-1.4931-0.11561-1.7408-0.34354-0.24775-0.22792-0.36997-0.76305-0.36997-1.6054l-7e-3 -0.83572 0.0132-1.0669c0-0.82911 0.12222-1.3543 0.36666-1.5789 0.24444-0.22462 0.80929-0.34023 1.6979-0.34023 0.86215 0 1.4105 0.095794 1.645 0.28738 0.23453 0.19159 0.35014 0.64413 0.35014 1.3543l7e-3 0.34354h-2.0943z"/><path d="m442.83 7.4012v-6.917h-1.5789v6.917h-2.4081v1.4171h6.4777v-1.4171z"/><path d="m449.53 7.4875v-2.1504h3.9077v-1.166h-3.9077v-2.3552h4.1588v-1.3312h-5.7377v8.3341h5.6981v-1.3312z"/><path d="m458.45 8.8183v-6.917h3.9077v-1.4171h-5.4867v8.3341z"/><path d="m466.58 7.4875v-2.1504h3.9077v-1.166h-3.9077v-2.3552h4.1588v-1.3312h-5.7377v8.3341h5.6981v-1.3312z"/><path d="m479.25 8.8183h1.6748l-2.6888-8.3341h-2.4279l-2.6624 8.3341h1.6417l1.5624-4.7203c0.14865-0.44924 0.36336-1.2057 0.65404-2.2693h0.0429l0.15856 0.56816c0.19489 0.70689 0.36336 1.2717 0.50209 1.6946z"/><path d="m483.61 0.48558h1.579v8.3341h-1.579z"/><path d="m494.85 6.3885h-1.5426c-0.01 0.075975-0.0132 0.13213-0.0132 0.17177-0.0363 0.46576-0.14204 0.75974-0.3105 0.88196-0.17177 0.11892-0.57477 0.17837-1.209 0.17837-0.74983 0-1.2387-0.069368-1.4699-0.2081-0.23123-0.13543-0.34354-0.42942-0.34354-0.87206 0-0.52522 0.0925-0.83902 0.28078-0.94473 0.18498-0.1057 0.80599-0.18828 1.8564-0.24444 1.2387-0.069368 2.0414-0.24774 2.4048-0.53182 0.36666-0.28408 0.54834-0.87536 0.54834-1.7771 0-1.1066-0.21472-1.8201-0.64083-2.1438-0.42612-0.32372-1.3708-0.48558-2.8243-0.48558-1.3114 0-2.1834 0.15856-2.6129 0.47567-0.42943 0.31711-0.64414 0.95794-0.64414 1.9291l-3e-3 0.3039h1.536l7e-3 -0.17507c0-0.58467 0.1024-0.93812 0.3039-1.0702 0.2048-0.12883 0.75975-0.19489 1.6681-0.19489 0.70689 0 1.1594 0.075974 1.3543 0.22792 0.19489 0.14865 0.29398 0.49549 0.29398 1.0405 0 0.403-0.0727 0.67056-0.22131 0.80269-0.14865 0.13213-0.47237 0.21471-0.96455 0.24114l-0.87205 0.056155c-1.318 0.079278-2.1603 0.26096-2.527 0.54834-0.36666 0.29069-0.54834 0.91169-0.54834 1.863 0 0.97446 0.22132 1.6219 0.66065 1.9456 0.44263 0.32372 1.3246 0.48558 2.6492 0.48558 1.2519 0 2.0942-0.14865 2.5303-0.44594 0.43602-0.29729 0.65404-0.87866 0.65404-1.7408z"/><path d="m498.15 0.48558h1.5789v8.3341h-1.5789z"/><path d="m506.55 7.5363c-1.0603 0-1.6846-0.13543-1.863-0.4096-0.17837-0.27417-0.26756-1.2156-0.26756-2.8309 0-1.1991 0.1057-1.9192 0.31381-2.1636 0.21141-0.24444 0.82911-0.36666 1.8531-0.36666 0.98106 0 1.569 0.13874 1.7639 0.4129 0.1949 0.27417 0.29399 1.1066 0.29399 2.5006s-0.0925 2.2198-0.27747 2.4741c-0.18498 0.25435-0.79278 0.38318-1.8168 0.38318m0.12222 1.3543c1.5129 0 2.4906-0.25105 2.9234-0.75314 0.43602-0.50209 0.65404-1.6252 0.65404-3.3726 0-1.9093-0.21802-3.1117-0.65735-3.6071-0.43603-0.49879-1.4964-0.74653-3.1777-0.74653-1.5129 0-2.4906 0.24444-2.9333 0.73662-0.44594 0.49218-0.66725 1.569-0.66725 3.2372 0 1.9852 0.21801 3.2339 0.65404 3.7426 0.43272 0.5087 1.503 0.76305 3.2041 0.76305"/><path d="m521.06 8.8183v-8.3341h-2.6789l-2.3816 4.5717c-0.11892 0.23123-0.3039 0.62762-0.55495 1.1991l-0.27086 0.59789-0.26096 0.59789h-0.0628l0.0264-0.54834 0.0165-0.54503 0.0132-1.0934v-4.7798h-1.5823v8.3341h2.6822l2.1669-4.2248c0.19159-0.37327 0.4129-0.82911 0.66395-1.3609l0.31711-0.67716 0.31711-0.68377h0.0562l-0.0198 0.53843-0.0165 0.53512-0.0132 1.0736v4.7996z"/><path d="m537.13 8.8183v-8.3341h-2.6789l-2.3816 4.5717c-0.11891 0.23123-0.3039 0.62762-0.55494 1.1991l-0.27087 0.59789-0.26095 0.59789h-0.0628l0.0264-0.54834 0.0165-0.54503 0.0132-1.0934v-4.7798h-1.5822v8.3341h2.6822l2.1669-4.2248c0.19159-0.37327 0.41291-0.82911 0.66396-1.3609l0.31711-0.67716 0.31711-0.68377h0.0562l-0.0198 0.53843-0.0165 0.53512-0.0132 1.0736v4.7996z"/><path d="m542.01 7.4875v-2.1504h3.9077v-1.166h-3.9077v-2.3552h4.1588v-1.3312h-5.7377v8.3341h5.6981v-1.3312z"/><path d="m552.67 7.4012v-6.917h-1.579v6.917h-2.4081v1.4171h6.4776v-1.4171z"/><path d="m569.68 8.8183-2.2297-8.3341h-2.3354l-1.1627 4.2744c-0.1057 0.38648-0.22792 0.90178-0.36996 1.5492l-0.11892 0.51531h-0.0529l-0.12222-0.51861-0.11561-0.51531c-0.0859-0.34354-0.17838-0.69038-0.27417-1.0372l-1.1925-4.2678h-2.3123l-2.1603 8.3341h1.6087l1.2024-4.5717c0.076-0.29399 0.16516-0.70029 0.27747-1.2156l0.12552-0.6111 0.12222-0.6111h0.0562c0.0661 0.26756 0.11561 0.47236 0.14534 0.6111l0.14865 0.60449c0.076 0.31711 0.18498 0.72341 0.32371 1.2156l1.2817 4.5783h1.8564l1.2519-4.5783c0.1057-0.38978 0.2081-0.79608 0.3105-1.2156l0.13874-0.60449 0.14865-0.6111h0.0462l0.13543 0.6111 0.12883 0.6111c0.1057 0.49218 0.2015 0.89848 0.28738 1.2222l1.2321 4.5651z"/><path d="m575.76 7.5363c-1.0603 0-1.6814-0.13543-1.863-0.4096-0.17837-0.27417-0.26756-1.2156-0.26756-2.8309 0-1.1991 0.1057-1.9192 0.31381-2.1636 0.2114-0.24444 0.82911-0.36666 1.8531-0.36666 0.98106 0 1.569 0.13874 1.7639 0.4129 0.19489 0.27417 0.29399 1.1066 0.29399 2.5006s-0.0925 2.2198-0.27747 2.4741c-0.18498 0.25435-0.78948 0.38318-1.8168 0.38318m0.12222 1.3543c1.5129 0 2.4906-0.25105 2.9234-0.75314 0.43603-0.50209 0.65404-1.6252 0.65404-3.3726 0-1.9093-0.21801-3.1117-0.65734-3.6071-0.43603-0.49879-1.4964-0.74653-3.1744-0.74653-1.5162 0-2.494 0.24444-2.9366 0.73662-0.44594 0.49218-0.66726 1.569-0.66726 3.2372 0 1.9852 0.21802 3.2339 0.65405 3.7426 0.43272 0.5087 1.503 0.76305 3.2041 0.76305"/><path d="m584.11 4.6239h2.2726c0.53843 0 0.89848 0.095794 1.0769 0.29068 0.17507 0.19159 0.26426 0.58137 0.26426 1.1627 0 0.59458-0.076 0.97776-0.22793 1.1495-0.15195 0.17177-0.48888 0.26096-1.0042 0.26096h-2.3816zm-1.5789-4.139v8.3341h4.1059c1.0207 0 1.7276-0.17837 2.1141-0.53182 0.38648-0.35345 0.57807-0.99428 0.57807-1.9225 0-0.84233-0.0958-1.4204-0.29068-1.7276-0.19159-0.3105-0.58798-0.52191-1.1859-0.64083v-0.056155c0.92491-0.056155 1.3874-0.59458 1.3874-1.6186v-1.8366h-1.5822v1.5195c0 0.85884-0.42281 1.2883-1.2684 1.2883h-2.2792v-2.8078z"/><path d="m594.16 8.8183v-3.3957h0.74653l2.7714 3.3957h1.9654l-3.3627-4.0498 3.7161-4.2843h-2.0282l-3.0522 3.6071h-0.75644v-3.6071h-1.579v8.3341z"/><path d="m257.92 13.715h341.59v1.7837h-341.59z"/></g></g></svg>
