<svg width="1232.7" height="516.05" version="1.1" viewBox="0 0 1232.7 516.05" xmlns="http://www.w3.org/2000/svg">
 <path d="m258.02 516.05c-142.11 0-258.02-115.92-258.02-258.03s115.92-258.02 258.02-258.02c61.302 0 120.93 21.74 167.19 61.864l3.901 3.3437h803.61v315.42l-84.708 75.797h-724.47l-3.901 3.3381c-45.14 36.224-102.54 56.292-161.61 56.292" fill="#0a4e8d" fill-rule="evenodd"/>
 <path d="m258.02 498.22c-132.63 0-239.63-107.56-239.63-239.63 0-132.08 107.56-239.63 239.63-239.63 56.843 0 112.01 20.62 154.93 57.401l8.9166 7.802h792.46v290.35l-72.447 64.088h-723.92l-8.3593 7.2448c-43.468 33.437-96.968 52.385-151.58 52.385" fill="#fff" fill-rule="evenodd"/>
 <polygon transform="matrix(32.402 0 0 32.402 -29.457 -37.383)" points="31.048 3.94 31.048 14.294 36.002 14.294 38.1 12.505 38.1 3.9744 31.048 3.9744" fill="#fdd046" fill-rule="evenodd"/>
 <polygon transform="matrix(32.402 0 0 32.402 -29.457 -37.383)" points="37.171 9.7017 37.188 9.7017 35.038 9.7017 35.038 11.8 34.127 11.8 34.127 9.7017 31.977 9.7017 31.977 8.8418 34.127 8.8418 34.127 6.7435 35.038 6.7435 35.038 8.8418 37.171 8.8418" fill="#0a4e8d" fill-rule="evenodd"/>
 <path d="m496.75 169.98h91.389l-3.3381 23.963h-56.843l-1.1201 11.703h56.849l-3.3437 27.307h-91.395zm5.01-39.567h91.401l-3.3493 28.422h-91.389zm93.072 39.567h75.234c11.146 0 24.521 4.4583 21.171 24.521-0.55181 3.3437-1.6661 19.505-3.901 23.963-5.5729 13.375-22.843 14.489-25.078 14.489h-75.234l3.3493-27.307h66.312l1.1146-11.703h-45.698c-12.255 0-20.057-7.802-17.27-23.963zm1.6661-19.505c1.1202-12.26 11.709-20.062 27.313-20.062h150.47c18.942 0 23.963 11.146 22.843 23.406 0 2.7864-0.55181 5.0156-0.55181 5.0156h-201.19c0.56283 0 1.1146-3.901 1.1147-8.3593zm197.84 27.864c-1.1146 8.9166-7.7964 15.604-20.057 15.604h-42.911l-4.4583 39.01h-34l7.8076-62.973h95.29s-1.1091 3.901-1.672 8.3593zm42.359-8.3593-7.802 62.416h-33.994l7.7964-62.973h34zm64.645 0-7.8076 62.973h-33.989l7.802-62.973zm-94.187-39.567h74.125c11.703 0 23.963 5.0156 21.177 24.521-0.56282 3.3437-0.56282 4.4583-0.56282 4.4583h-98.634zm-388.42-40.125-11.709-9.4739c-41.234-35.666-94.176-55.171-149.35-55.171-126.51 0-230.16 103.66-230.16 230.16s103.65 230.16 230.16 230.16c52.385 0 104.21-17.833 144.89-51.27l11.146-8.9166h552.83v-334.93h-547.81z" fill="#0a4e8d" fill-rule="evenodd"/>
 <path d="m537.99 387.87h-12.26l-22.843-59.072c0.55181 2.7866 0.55181 5.0156 0.55181 6.6874v52.385h-13.369v-94.181h12.26l22.849 57.401c-0.55732-2.7866-0.55732-5.0156-0.55732-6.6874v-50.713h13.369zm53.505 0h-39.01v-94.181h37.895v12.26h-24.526v27.307h21.177v12.26h-21.177v28.979h24.526v12.818h1.1146zm53.5-81.364h-15.604v80.807h-13.38v-80.807h-15.598v-12.818h44.583zm66.874 81.364h-13.38l-8.3593-52.942c0-1.672 0-4.4583-0.55181-8.3593 0 1.672 0 4.4583-0.55732 8.3593l-8.3593 52.942h-13.375l-13.38-93.624h14.495l7.2447 55.729c0 1.672 0 4.4583 0.55181 8.3593 0-1.672 0-4.4583 0.56282-8.3593l7.7965-55.729h11.709l7.7964 55.729c0 1.672 0 4.4583 0.56283 8.3593 0-1.672 0-4.4583 0.55181-8.3593l7.2448-55.729h14.495zm71.89-8.3593c0 5.5729-2.7866 8.3593-8.3593 8.3593h-30.651c-5.5729 0-8.3593-2.7866-8.3593-8.3593v-76.348c0-5.5729 2.7866-8.3593 8.3593-8.3593h30.651c5.5729 0 8.3593 2.7866 8.3593 8.3593zm-33.437-3.901h19.505v-69.104h-19.505zm81.916 12.26-15.604-43.468h-3.901v43.468h-14.484v-94.181h36.775c5.5729 0 8.3593 2.7866 8.3593 8.3593v33.994c0 3.901-1.1091 6.6874-3.8955 7.802-1.1146 0.55731-4.4639 0.55731-8.9222 0.55731l15.604 42.911h-13.932zm-19.504-51.83h17.281v-29.536h-17.281zm77.467 51.83-17.276-41.796v41.796h-14.495v-94.181h14.495v39.567l15.604-39.567h15.604v0.55732l-18.953 44.583 21.182 48.484c-0.56283 0.55731-16.161 0.55731-16.161 0.55731zm-429.12-120.37v-8.9166h474.25v8.9166z" fill="#fdd046" fill-rule="evenodd"/>
 <g transform="translate(-3.2859 -2.6639)">
  <path d="m206.19 84.793c-55.311 17.973-98.874 61.989-116.17 117.6l-0.142 0.016 0.099 0.115c-0.031 0.103-0.065 0.203-0.099 0.307l39.582 46.648c8e-3 -0.188 0.028-0.372 0.037-0.563l35.239 41.367v55.322c-15.18-16.341-26.29-36.521-31.703-58.925l-44.067 18.759c16.528 57.265 60.755 102.76 117.22 121.1v-151.91l-63.864-76.045c5.897-12.275 13.631-23.495 22.84-33.317v29.838h41.024v-110.32z" fill="#e9a822"/>
  <path d="m174.97 143.1v43.135h23.266v-87.984s-37.276 13.435-64.397 46.432c-25.764 31.641-32.319 58.08-32.319 58.08l73.451 87.238v74.8s-31.866-23.953-46.783-64.857l-25.313 10.849s32.067 82.036 95.361 99.213v-129.05l-67.562-79.779c-1e-3 0 23.502-46.33 44.296-58.081" fill="#fdd046"/>
  <path d="m128.19 299.94c14.917 40.904 46.783 64.857 46.783 64.857l-10.233-19.187c-15.18-16.341-26.29-36.521-31.703-58.925l-44.067 18.759 13.908 5.344z" fill="#fff"/>
  <path d="m198.24 98.247v87.983l7.953 8.881v-110.32c-55.311 17.973-98.874 61.989-116.17 117.6l-0.142 0.016 11.64 0.346s6.555-26.439 32.319-58.08c27.121-32.997 64.397-46.432 64.397-46.432" fill="#fff"/>
  <polygon points="198.24 280.96 198.24 410 206.19 426.07 206.19 375.75 206.19 274.64 142.33 198.59 130.68 201.18" fill="#fff"/>
  <path d="m261.82 75.994c-12.991 0-25.655 1.395-37.864 4.008v351.35c12.208 2.618 24.873 4.001 37.864 4.001 15.71 0 30.938-2.037 45.469-5.818v-49.591c-13.054 4.771-27.068 7.533-41.667 7.948v-109.88h41.667v-41.875h-41.667v-112.69c14.601 0.415 28.612 3.182 41.667 7.953v-49.59c-14.531-3.784-29.756-5.825-45.469-5.825" fill="#e9a822"/>
  <path d="m258.31 115.12v132.14h41.313v22.708h-41.313v126.78c12.301 1.258 41.313-5.049 41.313-5.049v27.756c-26.491 7.883-65.595 1.576-65.595 1.576v-330.83c32.165-7.254 65.595 2.208 65.595 2.208v27.753c-10.404-5.044-41.313-5.044-41.313-5.044" fill="#fdd046"/>
  <polygon points="258.31 115.12 258.31 247.27 299.62 247.27 299.62 269.97 307.29 278.02 307.29 236.14 265.62 236.14 265.62 123.46" fill="#fff"/>
  <path d="m299.62 92.415v27.753l7.67 11.241v-49.59c-14.531-3.784-29.756-5.825-45.469-5.825-12.991 0-25.655 1.395-37.864 4.008l10.068 10.205c32.164-7.254 65.595 2.208 65.595 2.208" fill="#fff"/>
  <path d="m265.62 387.9v-109.88l-7.316-8.045v126.78c12.301 1.258 41.313-5.049 41.313-5.049v27.756l7.67 10.078v-49.591c-13.055 4.772-27.069 7.533-41.667 7.949" fill="#fff"/>
  <path d="m323.36 86.834v337.68c52.966-19.295 94.324-62.732 110.71-117.03l-43.883-18.983c-4.851 18.898-13.796 36.138-25.792 50.788v-167.24c11.34 13.862 19.939 30.064 24.936 47.775l43.722-19.21c-17.023-52.779-57.783-94.88-109.69-113.78" fill="#e9a822"/>
  <path d="m420.27 195.61-26.189 11.175c-11.521-36.662-37.009-55.168-37.009-55.168v208.79c28.631-24.438 39.107-57.606 39.107-57.606l24.438 10.821c-21.648 68.086-87.284 94.271-87.284 94.271v-304.45c62.498 26.884 86.937 92.174 86.937 92.174" fill="#fdd046"/>
  <path d="m323.36 86.834 9.974 16.6c62.499 26.885 86.937 92.175 86.937 92.175l12.778 5.01c-17.023-52.78-57.783-94.881-109.69-113.78" fill="#fff"/>
  <path d="m364.39 339.29v-167.24l-7.319-20.438v208.79c28.631-24.438 39.107-57.606 39.107-57.606l24.438 10.821 13.448-6.133-43.883-18.983c-4.849 18.898-13.795 36.138-25.791 50.788" fill="#fff"/>
 </g>
</svg>
