<svg enable-background="new 0 0 1000 516.1" space="preserve" version="1.1" viewBox="0 0 1e3 516.1" xmlns="http://www.w3.org/2000/svg">
 <style type="text/css">.st0{fill:#0A4E8D;}
	.st1{fill:#FFFFFF;}
	.st2{fill:#E9A822;}
	.st3{fill:#FDD046;}</style>
 <link href="" rel="stylesheet" type="text/css"/>
 <path class="st0" d="m424.8 459.7c-46.8 38.5-105.5 56.4-165.8 56.4-142.7 0-259-115.2-259-258.1s116.3-258 259-258c64 0 125.2 23.3 172.8 65.8h568.2v393.9h-575.2z"/>
 <path class="st1" d="m418.5 442.5c-44.3 38.6-101.1 56.3-159.5 56.3-133.2 0-241.8-107.4-241.8-240.8 0-133.3 108.6-240.8 241.8-240.8 62 0 121.1 23.4 166.1 65.8h557.7v359.5h-564.3zm553.2-11v-337.4h-551.1c-41.6-40.7-98.7-65.8-161.6-65.8-127.4 0-230.7 102.8-230.7 229.7s103.3 229.8 230.7 229.8c59.8 0 114.3-19.1 155.3-56.3h557.4z"/>
 <path class="st2" d="m206.2 84.8c-55.3 18-98.9 62-116.2 117.6h-0.1l0.1 0.1c0 0.1-0.1 0.2-0.1 0.3l39.6 46.6v-0.6l35.2 41.4v55.3c-15.2-16.3-26.3-36.5-31.7-58.9l-44 18.8c16.5 57.3 60.8 102.8 117.2 121.1v-151.9l-63.9-76c5.9-12.3 13.6-23.5 22.8-33.3v29.8h41v-71l0.1-39.3z"/>
 <path class="st3" d="m175 143.1v43.1h23.3v-88s-37.3 13.4-64.4 46.4c-25.8 31.6-32.3 58.1-32.3 58.1l73.4 87.3v74.8s-31.9-24-46.8-64.9l-25.3 10.8s32.1 82 95.4 99.2v-128.9l-67.6-79.8s23.5-46.4 44.3-58.1"/>
 <path class="st1" d="m128.2 299.9c14.9 40.9 46.8 64.9 46.8 64.9l-10.2-19.2c-15.2-16.3-26.3-36.5-31.7-58.9l-44.1 18.7 13.9 5.3 25.3-10.8z"/>
 <path class="st1" d="m198.2 98.2v88l8 8.9v-110.3c-55.3 18-98.9 62-116.2 117.6h-0.1l11.6 0.3s6.6-26.4 32.3-58.1c27.2-32.9 64.4-46.4 64.4-46.4"/>
 <polygon class="st1" points="206.2 274.6 142.3 198.6 130.7 201.2 198.2 281 198.2 410 206.2 426.1 206.2 375.8"/>
 <path class="st2" d="m261.8 76c-13 0-25.7 1.4-37.9 4v351.4c12.2 2.6 24.9 4 37.9 4 15.7 0 30.9-2 45.5-5.8v-49.6c-13.1 4.8-27.1 7.5-41.7 7.9v-109.9h41.7v-41.9h-41.7v-112.6c14.6 0.4 28.6 3.2 41.7 8v-49.7c-14.5-3.8-29.8-5.8-45.5-5.8"/>
 <path class="st3" d="m258.3 115.1v132.1h41.3v22.8h-41.3v126.8c12.3 1.3 41.3-5 41.3-5v27.8c-26.5 7.9-65.6 1.6-65.6 1.6v-331c32.2-7.3 65.6 2.2 65.6 2.2v27.8c-10.4-5.1-41.3-5.1-41.3-5.1"/>
 <polygon class="st1" points="265.6 236.1 265.6 123.5 258.3 115.1 258.3 247.3 299.6 247.3 299.6 270 307.3 278 307.3 236.1"/>
 <path class="st1" d="m299.6 92.4v27.8l7.7 11.2v-49.6c-14.5-3.8-29.8-5.8-45.5-5.8-13 0-25.7 1.4-37.9 4l10.1 10.2c32.2-7.2 65.6 2.2 65.6 2.2"/>
 <path class="st1" d="m265.6 387.9v-109.9l-7.3-8v126.8c12.3 1.3 41.3-5 41.3-5v27.8l7.7 10.1v-49.6c-13.1 4.6-27.1 7.4-41.7 7.8"/>
 <path class="st2" d="m323.4 86.8v337.7c53-19.3 94.3-62.7 110.7-117l-43.9-19c-4.9 18.9-13.8 36.1-25.8 50.8v-167.2c11.3 13.9 19.9 30.1 24.9 47.8l43.7-19.2c-17-52.9-57.7-95-109.6-113.9"/>
 <path class="st3" d="m420.3 195.6-26.2 11.2c-11.5-36.7-37-55.2-37-55.2v208.8c28.6-24.4 39.1-57.6 39.1-57.6l24.4 10.8c-21.6 68.1-87.3 94.3-87.3 94.3v-304.5c62.5 26.9 87 92.2 87 92.2"/>
 <path class="st1" d="m323.4 86.8 10 16.6c62.5 26.9 86.9 92.2 86.9 92.2l12.8 5c-17.1-52.8-57.8-94.9-109.7-113.8"/>
 <path class="st1" d="m364.4 339.3v-167.2l-7.3-20.4v208.8c28.6-24.4 39.1-57.6 39.1-57.6l24.4 10.8 13.4-6.1-43.9-19c-4.8 18.8-13.7 36-25.7 50.7"/>
 <polygon class="st3" points="507.9 391.3 493.8 391.3 493.8 297.6 506.6 297.6 528.2 353.6 528.2 297.4 542 297.4 542 391.3 529.2 391.3 507.9 335.7"/>
 <polygon class="st3" points="592 344.5 592 337.4 571.8 337.4 571.8 310.7 595.7 310.7 595.7 297.7 556.2 297.7 556.2 344.5 556.2 391.3 595.7 391.3 595.7 378.3 571.8 378.3 571.8 349.8 592 349.8"/>
 <rect class="st3" x="604.8" y="297.7" width="45.4" height="12.6"/>
 <rect class="st3" x="620.4" y="297.7" width="14.2" height="93.7"/>
 <polygon class="st3" points="670.5 391.1 657 297.8 671.5 297.8 678.9 359.1 687.5 297.8 699.5 297.8 708.3 359.7 715.4 297.8 729.7 297.8 716.4 391.4 701.7 391.4 693.2 332.9 684.7 391.1"/>
 <path class="st3" d="m748.8 297.6h32.4c4.2 0 7.7 3.5 7.7 7.7v78.3c0 4.2-3.5 7.7-7.7 7.7h-32.4c-4.2 0-7.7-3.5-7.7-7.7v-78.3c0-4.3 3.4-7.7 7.7-7.7m6.6 81.2h19.2v-68.9h-19.2v68.9z"/>
 <path class="st3" d="m803.5 297.6h37.2s8.9-0.3 8.9 7.6v37.9s0.4 6-6.6 6.5h-6.5l15 41.6h-14.8l-15.3-42.6v-8.6h14v-29.2h-17.3v80.2h-14.8l0.2-93.4z"/>
 <polygon class="st3" points="863.8 297.5 863.8 391.3 878.2 391.3 878.2 351.6 895.5 391 911.3 391 889.8 343.6 910 297.6 894 297.6 878.3 337.4 878.3 297.4"/>
 <rect class="st3" x="463.9" y="261.5" width="481.1" height="9.8"/>
 <path class="st1" d="m907.7 161.8c1.8-17.8-0.5-29.2-20.2-29.2h-78.4l-3.3 29.2h101.9zm-252.8 75.2c23.4 0 34.7-6.3 37.5-24.3l3.1-22.5c1.7-13.3-8.2-17.3-15.1-17.3h-84.7c-2.6 23.8 11.2 23.5 18.2 23h47.3l-1.4 11.9h-68.4l-3.6 29.2h67.1zm-27.6-104.4c-18.9 0-27.8 7.7-30.3 29.2h204.4c1.8-17.8-1.9-29.2-23.9-29.2h-150.2zm-35.5 29.2 3.5-29.2h-90.2l-3.5 29.2h90.2zm-9.3 75.2 3.6-29.2h-56l1.9-11.8h55.6l2.8-23h-90l-7.4 64h89.5zm289.3-64.1-8 64.1h35l7.7-64.1h-34.7zm-67.4 0-8 64.1h35l7.7-64.1h-34.7zm-74.7 64.1h-34.4l7.8-64.1h97c-0.7 6.8-0.7 23.7-28.9 23h-36.6l-4.9 41.1z"/>
</svg>
