<svg width="1066.6" height="275.81" version="1.1" viewBox="0 0 999.94 258.57" xmlns="http://www.w3.org/2000/svg">
 <g transform="translate(202.27 30.543)">
  <path d="m-176.33 158.63c8.2278 0 14.072-7.233 14.072-17.772 0-21.803-19.098-26.051-39.533-44.475-0.29015 37.346 11.285 62.247 25.46 62.247" fill="#e51635" fill-rule="evenodd"/>
  <path d="m-31.683 185.58h-29.471v-73.335h-31.833v73.335h-29.533v-169.21h29.481v68.133h31.885v-68.133h29.471zm12.279-85.055c0-51.615 19.077-84.184 41.885-87.604-22.797-28.03-60.869-42.994-95.469-42.994-38.072 0-72.288 16.518-95.863 42.766 22.497 4.4766 30.134 23.336 30.134 52.506h-27.502c0-17.212-3.5854-26.124-13.772-26.124-4.6009 0-8.176 2.3212-10.259 6.2693-0.30052 0.68392-0.60102 1.3264-0.89117 2.0103-0.79791 2.2072-1.2228 4.746-1.2228 7.5956 0 35.688 58.61 33.916 58.61 88.754 0 21.429-16.424 41.419-34.911 41.419 24.3 26.548 57.47 42.434 95.676 42.434 37.149 0 70.609-15.74 94.122-40.89-21.689-5.4403-40.538-36.631-40.538-86.143" fill="#e51635" fill-rule="evenodd"/>
  <path d="m9.8912 97.778c0-28.476 8.2796-56.962 23.409-56.962 18 0 22.528 44.009 22.528 57.936 0 30.507-9.5956 58.081-22.528 58.081-15.523 0-23.409-29.035-23.409-59.055" fill="#e51635" fill-rule="evenodd"/>
  <path d="m304.31 18.712h-124.26l-11.803 96.619h-0.44558l-13.191-96.619h-27.036l-14.331 96.619h-0.47666l-10.632-96.619h-27.274l21.958 164.59h26.362l14.798-104.26h0.45595l14.331 104.26h27.284l18.165-139.17h25.523v139.17h30.03v-139.17h27.533v139.17h30.051v-164.59h-7.0464" fill="#e51635"/>
  <path d="m326.11 18.712h39.978l13.409 84.371h0.45594l14.103-84.371h39.066v164.59h-26.797v-120.67h-0.48704l-20.321 120.67h-16.652l-20.113-120.67h-0.44559v120.67h-22.196v-164.59" fill="#e51635"/>
  <path d="m447.89 18.712h67.957v25.419h-37.906v42.051h27.989v26.818h-27.989v44.859h39.564v25.44h-69.615v-164.59" fill="#e51635"/>
  <g transform="matrix(.84001 0 0 .84001 506.2 -780.91)">
   <path transform="translate(-451.57 387.02)" d="m564 730h-30v-136h30v52h56v-52h29v136h-29v-59h-56z" fill-rule="evenodd"/>
   <path transform="translate(-451.57 387.02)" d="m676 730v-97h29v72h25.803c25.652 0 35.203-17.998 35.203-41.817 0-31.849-14.444-44.183-37.134-44.183h-52.872v-25h57.443c44.474 0 62.635 31.439 62.635 67.186 0 38.828-19.214 68.814-65.871 68.814z"/>
   <path d="m82.429 1166.4v-19h264v19z"/>
   <path d="m82.429 950.48v-19h264v19z"/>
  </g>
 </g>
</svg>
