<svg width="678.4" height="233.6" version="1.1" viewBox="0 0 636 219" xmlns="http://www.w3.org/2000/svg">
 <g transform="translate(-192.42 -261.94)" fill="#e22739">
  <path d="m212.35 409.66c6.4513 0 11.015-5.6613 11.015-13.89 0-17.094-14.965-20.385-30.94-34.824-0.24138 29.25 8.7992 48.714 19.924 48.714" fill-rule="evenodd"/>
  <path d="m358.12 362.04c0-22.272 6.4952-44.61 18.344-44.61 14.066 0 17.62 34.473 17.62 45.356 0 23.874-7.5046 45.466-17.62 45.466-12.156 0-18.344-22.711-18.344-46.212" fill-rule="evenodd"/>
  <path d="m335.17 364.17c0-40.397 14.965-65.895 32.805-68.55-17.84-21.943-47.66-33.683-74.738-33.683-29.799 0-56.569 12.946-75.046 33.507 17.62 3.467 23.633 18.235 23.633 41.078h-21.548c0-13.473-2.8087-20.451-10.796-20.451-3.5767 0-6.3635 1.8213-8.0312 4.9153-0.21943 0.52664-0.4608 1.0533-0.68024 1.5799-0.6144 1.7116-0.96549 3.7303-0.96549 5.9466 0 27.934 45.861 26.529 45.861 69.494 0 16.765-12.837 32.41-27.319 32.41 19.025 20.758 45.005 33.2 74.892 33.2 29.097 0 55.275-12.288 73.685-32.015-16.962-4.257-31.752-28.658-31.752-67.431m-9.6111 66.575h-23.062v-57.403h-24.905v57.403h-23.128v-132.47h23.106v53.388h24.927v-53.388h23.062z" fill-rule="evenodd"/>
  <path d="m426.82 299.44 4.9811 55.494c0.87773 8.9089 1.4044 17.818 1.7554 26.727 0.54858-12.266 2.1285-21.548 3.0282-28.043l7.4387-54.178h22.163l7.4607 54.178c0.70218 5.5736 2.2821 14.855 2.8307 28.043 0.52664-12.99 1.2508-21.899 1.7774-26.727l6.7365-55.494h17.906l-17.554 131.02h-21.811l-7.6143-60.322c-1.4263-11.498-2.304-22.448-2.6771-32.849 0 12.442-1.9529 23.194-3.3573 32.849l-8.5139 60.322h-22.163l-14.373-131.02z"/>
  <path d="m541.72 432.86c-23.238 0-32.981-20.978-32.981-64.952 0-47.309 11.367-71.074 34.582-71.074 19.859 0 30.698 15.777 30.698 46.015v2.9843h-23.786v-6.1221c0-15.602-1.4044-23.216-7.2632-23.216-8.3384 0-9.3917 16.721-9.3917 53.08 0 27.846 1.2288 40.836 9.5672 40.836 6.3854 0 9.0406-9.2819 9.0406-28.394v-1.8652h21.46c-0.54858 35.263-10.994 52.707-31.927 52.707"/>
  <path d="m597.23 299.44h32.103l16.128 131.02h-21.636l-3.5328-28.021h-17.928l-3.1818 28.021h-19.661zm20.561 81.475-6.539-58.083-6.5829 58.083z"/>
  <path d="m672.23 391.12c-0.17555 1.8432-0.17555 3.5109-0.17555 5.2005 0 10.555 3.1818 15.953 9.7647 15.953 5.4858 0 9.3917-4.4545 9.3917-12.069 0-7.9873-4.4325-12.99-11.893-20.21-6.188-6.1441-13.649-12.091-19.683-20.802-5.1347-7.6143-7.9654-16.523-7.9654-25.981 0-21.526 13.473-36.184 31.379-36.184 17.73 0 29.25 13.188 29.25 36.382 0 1.2727-0.1536 2.5893-0.1536 4.0814h-21.285c0.17554-2.0407 0.35109-4.0814 0.35109-5.9466 0-9.1064-3.3792-13.912-9.2161-13.912-4.7836 0-8.865 4.8056-8.865 11.125s3.3573 11.498 9.7428 17.642c8.5139 8.1409 15.777 14.087 19.859 19.486 7.4387 9.633 11.345 18.915 11.345 30.238 0 22.272-12.925 36.755-33.354 36.755-20.385 0-30.479-13.912-30.479-41.758z"/>
  <path d="m725.59 299.44h53.739v21.702h-29.601v30.435h22.338v21.548h-22.338v35.811h30.655v21.526h-54.792z"/>
  <path d="m828.42 320.71h-9.1283v128.08h-15.667v-135.78h-7.3071v135.78h-332.48v9.1284h332.48v15.711h-312.03v7.3071h319.34v-23.018h24.796z"/>
 </g>
</svg>
