<svg width="928.78" height="241.85" version="1.1" viewBox="0 0 870.73 226.73" xmlns="http://www.w3.org/2000/svg">
 <g transform="translate(3.1653 -469.43)">
  <path d="m136.31 604.31v23.562h9.9688v44.625h-9.9688v23.438h97.844v-42.656h-28.438v19.219h-22.969v-13.875h16.781v-17h-16.781v-13.75h22.969v19.219h28.438v-42.781z"/>
  <path d="m237.56 604.31v23.562h8.625l26.25 24.562-25.625 20.062h-9.25v23.438h42.656v-23.438h-9.2188l12.875-9.5 9.9688 9.5h-7.4062v23.438h58.812v-23.438h-8.625l-26.25-24.562 25.625-20.062h0.05v-23.562h-33.581v23.562h9.3438l-12.875 9.375-10.094-9.375h7.5312v-23.562z"/>
  <path d="m339.72 604.31v42.781h24.781v-19.219h8.0312v44.625h-9.8438v23.438h56.281v-23.438h-9.8438v-44.625h8v19.219h25.062v-42.781z"/>
  <path d="m445.84 604.31v23.562h-0.0312v44.625h-9.9688v23.438h53.844v-23.438h-7.4062v-15.219h1.3438c3.1195-0.2 5.726 0.88164 7.8125 3.2188 2.0864 2.3372 3.1689 7.1315 3.25 14.406-0.0558 7.0343 1.9883 12.667 6.1562 16.875 1.8433 1.8612 4.1681 3.3169 6.9688 4.375h26.125c0.15358-0.0533 0.31655-0.10092 0.46875-0.15625v-19.781c-0.9452-0.0685-1.7543-0.38044-2.4062-1-0.71162-0.67605-1.066-1.5691-1.0938-2.625-0.0963-5.7175-1.4774-10.48-4.1562-14.344-2.6791-3.864-6.0805-6.4045-10.188-7.625 5.0439-1.8889 9.4179-4.6603 13.125-8.2812 3.7069-3.6209 5.6613-8.4473 5.8438-14.469-0.10139-7.0975-2.9954-12.775-8.6875-17.031-5.6923-4.2564-13.589-6.4223-23.656-6.5312h-57.344zm36.438 23.562h7.5312c3.1296 0.0482 5.3826 0.7873 6.75 2.1875 1.3673 1.4003 2.0303 3.1687 2 5.3438 0.0303 2.2334-0.63271 4.0559-2 5.4688-1.3674 1.413-3.6204 2.142-6.75 2.1875h-7.5312z"/>
  <path d="m538.28 604.31v23.562h-0.0312v44.625h0.0312v23.438h87.844v-42.656h-28.438v19.219h-22.969v-13.875h16.75v-17h-16.75v-13.75h22.969v19.219h28.438v-42.781z"/>
  <path d="m630.72 604.31v23.562h9.9688v44.625h-9.9688v23.438h45.219v-23.438h-9.9688v-35.031l24.312 58.469h15.562l24.562-58.469v35.031h-9.8438v23.438h56.25v-23.438h-9.8438v-44.625h0.0443v-23.562h-52.044l-11.438 29.781-11.531-29.781z"/>
  <path d="m769.72 604.31v23.562h9.9688v44.625h0.0312v23.438h87.844v-42.656h-28.469v19.219h-22.969v-13.875h16.781v-17h-16.781v-13.75h22.969v19.219h28.469v-42.781z"/>
  <g transform="matrix(.56337 0 0 .56337 251.24 251.39)" fill="#ed1c24">
   <path d="m-424.59 586.98c8.7186 0 14.912-7.6645 14.912-18.832 0-23.103-20.237-27.605-41.891-47.129-0.30746 39.574 11.958 65.961 26.979 65.961" fill-rule="evenodd"/>
   <path d="m-271.31 615.54h-31.229v-77.71h-33.732v77.71h-31.295v-179.3h31.24v72.198h33.787v-72.198h31.229zm13.012-90.129c0-54.694 20.215-89.206 44.384-92.83-24.157-29.703-64.5-45.559-101.16-45.559-40.343 0-76.601 17.503-101.58 45.317 23.839 4.7436 31.932 24.728 31.932 55.639h-29.143c0-18.239-3.7993-27.682-14.593-27.682-4.8754 0-8.6637 2.4597-10.871 6.6433-0.31844 0.72472-0.63687 1.4055-0.94433 2.1302-0.84551 2.3389-1.2957 5.0291-1.2957 8.0488 0 37.817 62.106 35.94 62.106 94.049 0 22.708-17.404 43.89-36.994 43.89 25.75 28.132 60.898 44.966 101.38 44.966 39.366 0 74.822-16.68 99.737-43.33-22.982-5.7648-42.956-38.816-42.956-91.282" fill-rule="evenodd"/>
   <path d="m-227.25 522.5c0-30.175 8.7735-60.36 24.805-60.36 19.073 0 23.872 46.635 23.872 61.393 0 32.327-10.168 61.546-23.872 61.546-16.449 0-24.805-30.768-24.805-62.579" fill-rule="evenodd"/>
   <path d="m84.728 438.72h-131.67l-12.507 102.38h-0.47217l-13.978-102.38h-28.648l-15.186 102.38h-0.5051l-11.266-102.38h-28.901l23.268 174.41h27.935l15.68-110.48h0.48315l15.186 110.48h28.912l19.249-147.47h27.045v147.47h31.822v-147.47h29.175v147.47h31.844v-174.41h-7.4668"/>
   <path d="m107.83 438.72h42.363l14.209 89.404h0.48314l14.945-89.404h41.397v174.41h-28.396v-127.87h-0.51609l-21.533 127.87h-17.646l-21.313-127.87h-0.47217v127.87h-23.52v-174.41"/>
   <path d="m236.87 438.72h72.011v26.935h-40.167v44.559h29.659v28.418h-29.659v47.535h41.924v26.957h-73.768v-174.41"/>
  </g>
 </g>
</svg>
