<svg width="533.16" height="304.77" version="1.1" viewBox="0 0 499.84 285.73" xmlns="http://www.w3.org/2000/svg">
 <g transform="translate(-37.899 -381.03)">
  <path d="m214.08 430.02c0-19.349 7.1625-31.564 15.717-32.856-8.5548-10.507-22.837-16.134-35.813-16.134-14.268 0-27.1 6.2008-35.942 16.048 8.44 1.6794 11.296 8.7558 11.296 19.693h-10.32c0-6.4592-1.3349-9.8036-5.1674-9.8036-1.7081 0-3.0574 0.87558-3.8325 2.354-0.11483 0.24401-0.22966 0.50238-0.34449 0.74639-0.28707 0.83252-0.45932 1.7942-0.45932 2.8564 0 13.392 21.99 12.717 21.99 33.286 0 8.0525-6.1578 15.531-13.091 15.531 9.1146 9.9615 21.545 15.918 35.87 15.918 13.938 0 26.483-5.8994 35.31-15.33-8.1386-2.0526-15.215-13.737-15.215-32.31m-4.6076 31.894h-11.038v-27.502h-11.942v27.502h-11.081v-63.458h11.067v25.578h11.957v-25.578h11.038z" fill="#df001c" fill-rule="evenodd"/>
  <path d="m155.24 451.81c3.0861 0 5.2678-2.7272 5.2678-6.6601 0-8.1816-7.1625-9.7606-14.827-16.679-0.10048 14.009 4.2344 23.339 9.5596 23.339" fill="#df001c" fill-rule="evenodd"/>
  <path d="m225.06 428.99c0-10.679 3.1148-21.373 8.7845-21.373 6.7606 0 8.4544 16.521 8.4544 21.732 0 11.454-3.6028 21.789-8.4544 21.789-5.8133 0-8.7845-10.88-8.7845-22.148" fill="#df001c" fill-rule="evenodd"/>
  <path d="m335.48 399.35h-46.607l-4.4066 36.229h-0.17224l-4.9664-36.229h-10.134l-5.3683 36.229h-0.17225l-3.9903-36.229h-10.234l8.2391 61.721h9.8897l5.5406-39.1h0.17224l5.3827 39.1h10.22l6.818-52.19h9.574v52.19h11.253v-52.19h10.32v52.19h11.282v-61.721z" fill="#df001c"/>
  <path d="m343.65 399.35h15l5.0382 31.636h0.1579l5.3109-31.636h14.626v61.721h-10.048v-45.257h-0.17224l-7.6362 45.257h-6.2295l-7.5501-45.257h-0.17224v45.257h-8.3252z" fill="#df001c"/>
  <path d="m389.34 399.35h25.478v9.5309h-14.21v15.775h10.464v10.062h-10.464v16.808h14.813v9.5452h-26.081z" fill="#df001c"/>
  <path d="m149.8 524.81h0.43061l10.837 37.908h-22.09zm18.387 60.372 5.1243 16.033h29.21l-41.884-110.85h-21.229l-42.315 110.85h28.923l5.5549-16.033z"/>
  <path d="m380.35 490.36h30.373v85.649h35.181v24.775h-65.554z"/>
  <path d="m220.68 490.57h26.856l21.301 59.137 22.535-59.137h27.143l15.861 110.65h-27.272l-7.6649-63.688h-0.27272l-25.191 63.688h-10.851l-24.071-63.688h-0.28707l-8.7702 63.688h-27.129z"/>
  <path d="m86.573 600.79h-35.999v-70.994h-12.674v-29.325h12.674v-12.717c0-13.88 0.38755-24.057 10.277-35.195 8.8993-10.363 21.76-16.033 35.425-16.033 5.5405 0 10.478 0.9617 15.43 3.5023v30.717c-4.1482-1.7512-7.9089-3.3301-12.66-3.3301-9.3012 0-12.473 5.4831-12.473 16.823v16.234h25.133v29.325h-25.133z"/>
  <path d="m355.81 525.32v75.472" stroke="#000" stroke-miterlimit="10" stroke-width="28.291"/>
  <path d="m338.8 505.61c0-9.3012 7.5501-16.851 16.851-16.851 9.3156 0 16.866 7.5501 16.866 16.851 0 9.3156-7.5501 16.866-16.866 16.866-9.3012 0-16.851-7.5501-16.851-16.866"/>
  <path d="m467.21 586.97-37.966-96.601h34.219l20.626 54.071 19.449-54.071h34.205l-65.611 174.74h-34.219z"/>
  <path d="m253.79 655.65v9.3299h-53.252l35.238-42.688h-29.239v-9.3443h48.702l-35.253 42.702z"/>
  <path d="m285.37 620.96c9.8897 0 17.77 8.2247 17.77 18.114 0 9.7893-7.8802 18.143-17.77 18.143-9.9041 0-17.799-8.3539-17.799-18.143 0-9.8897 7.8946-18.114 17.799-18.114m0-9.5596c-15.574 0-27.818 12-27.818 27.674 0 15.689 12.244 27.688 27.818 27.688 15.559 0 27.789-12 27.789-27.688 0-15.674-12.229-27.674-27.789-27.674"/>
  <path d="m332.28 619.95h0.22966c3.1004-5.5549 9.3299-8.5548 15.674-8.5548 14.67 0 18.459 9.9041 18.459 22.578v31.004h-10.019v-29.784c0-8.8993-1.2057-14.899-11.44-14.899-12.904 0-12.904 11.339-12.904 20.784v23.899h-10.005v-52.032h10.005z"/>
  <path d="m386.98 633.07c1.2201-7.4496 7.0046-13.005 14.784-13.005 8.0094 0 13.119 5.2391 14.339 13.005zm39.128 7.5644v-1.5646c0-15.445-7.7797-27.674-24.344-27.674-16.794 0-25.349 12-25.349 28.019 0 15.344 9.6744 27.344 25.578 27.344 10.105 0 19.234-5.2248 24.114-14.225l-8.44-4.7798c-3.7894 6.2295-7.8946 10.119-15.574 10.119-9.5596 0-15.559-8.3539-15.674-17.239z"/>
 </g>
</svg>
