<svg width="449" height="160" version="1.1" viewBox="-1 -1 449 160" xmlns="http://www.w3.org/2000/svg">
 <g transform="translate(-16 -100)">
  <g transform="translate(16 100)">
   <path transform="matrix(7.6382 0 0 7.6382 336 .8)" d="m0 0h1v1h-1v-1z" fill="none"/>
   <path transform="matrix(7.6382 0 0 7.6382 336 .8)" d="m14.615 7.782v8.86l-12.55 4.078v-8.86" fill="#D31F36"/>
   <path transform="matrix(7.6382 0 0 7.6382 336 .8)" d="m12.55 0v8.46l-12.55 4.077v-8.46" fill="#0047B8"/>
   <g fill="#fff">
    <path transform="matrix(7.6382 0 0 7.6382 336 .8)" d="m7.013 15.468-0.044-0.025c-0.154 0.037-0.395 0.05-0.79 0.05-2.327 0-5.113-1.074-5.113-3.096 0-2.084 2.876-3.465 6.3-3.465 2.04 0 3.927 0.407 5.112 1.196 1.075 0.617 1.36 1.467 1.36 2.27-0.02 0.973-0.723 1.787-1.557 2.49l-4.038 3.34h-4.808l3.578-2.76m0.438-4.488c-1.185 0-2.24 0.493-2.24 1.22 0 0.592 0.77 1.245 2.24 1.245 1.36 0 2.24-0.567 2.24-1.208 0-0.838-1.186-1.257-2.24-1.257zm-4.563-3.017-1.823-1.875h-0.606v2.3h0.404v-2.004l1.957 2.006h0.472v-2.303h-0.404m6.237 0.227-0.643 1.682h-0.01l-0.79-1.682h-0.348l-0.735 1.682h-0.01l-0.692-1.682h-2.395v2.076h2.244v-0.225h-1.81v-0.76h1.302v-0.208h-1.3v-0.66h1.61l0.786 1.852h0.44l0.708-1.61 0.753 1.61h0.434l0.835-2.076m2.195 1.071c-0.177-0.09-0.404-0.13-0.632-0.16l-0.52-0.076c-0.325-0.045-0.628-0.097-0.628-0.33 0-0.227 0.415-0.33 0.743-0.33 0.37 0 0.774 0.14 0.85 0.367l0.394-0.064c-0.186-0.335-0.65-0.507-1.233-0.507-0.602 0-1.178 0.172-1.178 0.572 0 0.145 0.1 0.287 0.282 0.384 0.182 0.1 0.395 0.132 0.627 0.165l0.576 0.085c0.304 0.045 0.592 0.13 0.592 0.34 0 0.1-0.08 0.205-0.212 0.265-0.162 0.076-0.415 0.103-0.622 0.103-0.486 0-0.885-0.133-1.027-0.42l-0.39 0.052c0.233 0.402 0.7 0.59 1.407 0.59 0.313 0 0.652-0.037 0.905-0.15 0.252-0.116 0.388-0.286 0.388-0.473 0-0.165-0.106-0.307-0.324-0.413z"/>
    <path transform="matrix(7.6382 0 0 7.6382 336 .8)" d="m3.421 3.256h1.8c0.28 0 0.564 0.014 0.795 0.122 0.248 0.115 0.394 0.31 0.394 0.504 0 0.25-0.247 0.462-0.623 0.518v7e-3c0.425 0.05 0.716 0.257 0.716 0.542 0 0.204-0.113 0.433-0.376 0.555-0.285 0.132-0.682 0.135-1.015 0.135h-1.687v-2.383m1.52 1.854c0.114 0 0.238 3e-3 0.33-0.046 0.08-0.038 0.133-0.1 0.133-0.167 0-0.08-0.07-0.153-0.177-0.188-0.097-0.032-0.226-0.032-0.328-0.032h-0.446v0.43h0.49m-0.033-0.937c0.107 0 0.236 5e-3 0.316-0.044 0.07-0.04 0.107-0.1 0.107-0.156 0-0.177-0.226-0.202-0.44-0.202h-0.442v0.403h0.46zm3.551 1.47c-0.028-0.08-0.04-0.163-0.04-0.246-0.214 0.205-0.52 0.28-0.896 0.28-0.51 0-0.956-0.18-0.956-0.534 0-0.282 0.34-0.47 0.72-0.546 0.35-0.07 0.72-0.097 1.08-0.11v-0.014c0-0.16-0.064-0.223-0.322-0.223-0.21 0-0.386 0.05-0.418 0.198l-0.978-0.06c0.16-0.44 0.81-0.555 1.43-0.555 0.32 0 0.735 0.028 1.004 0.153 0.36 0.163 0.317 0.393 0.317 0.646v0.62c0 0.133 7e-3 0.265 0.087 0.39h-1.028m-0.093-0.83c-0.258 0.018-0.687 0.07-0.687 0.285 0 0.115 0.113 0.163 0.28 0.163 0.402 0 0.407-0.22 0.407-0.414v-0.033z"/>
    <path transform="matrix(7.6382 0 0 7.6382 336 .8)" d="m11.135 5.75c-0.204 0.368-0.48 0.31-1.087 0.344l-0.546 7e-3v-0.335h0.387c0.145 0 0.467 5e-3 0.467-0.135 0-0.052-0.042-0.11-0.07-0.16l-0.96-1.606h1.154l0.45 0.946 0.48-0.946h0.783l-1.058 1.885z"/>
   </g>
  </g>
  <path transform="matrix(7.6345 0 0 7.6345 16.35 101)" d="m0 0h1v1h-1v-1z" fill="none"/>
  <g transform="translate(16 100)" fill="#1B4276">
   <path transform="matrix(7.6345 0 0 7.6345 .4 1)" d="m7.12 14.427 1.168-6.657h2.46l-1.89 10.74h-3.093l-2.135-6.646-1.17 6.646h-2.46l1.892-10.74h3.074m8.174 8.452h4.276l-0.416 2.288h-6.81l1.89-10.74h6.858l-0.415 2.285h-4.29l-0.308 1.734h3.952l-0.414 2.284h-3.936m20.563-6.303-4.903 10.74h-2.952l-0.262-6.046-2.753 6.045h-3.028l-0.477-10.74h2.6l0.275 7.302 3.352-7.303h1.86l0.31 7.302 3.35-7.303m6.131 8.341c0.19-0.077 0.334-0.18 0.432-0.307 0.097-0.127 0.158-0.267 0.184-0.42s0.038-0.308 0.038-0.46c0-0.247-0.085-0.43-0.254-0.554-0.17-0.122-0.48-0.184-0.93-0.184h-0.154c-1.117 0-1.934-0.17-2.452-0.514-0.518-0.342-0.777-0.886-0.777-1.634 2e-3 -0.113 8e-3 -0.227 0.024-0.345 0.015-0.118 0.032-0.25 0.054-0.392l0.092-0.49c0.195-1.055 0.622-1.824 1.284-2.31 0.66-0.486 1.623-0.73 2.883-0.73h3.66l-0.4 2.286h-3.63c-0.307 0-0.555 0.03-0.745 0.092-0.19 0.06-0.336 0.15-0.438 0.26-0.103 0.113-0.172 0.25-0.208 0.415s-0.054 0.344-0.054 0.538c0 0.235 0.09 0.414 0.27 0.537s0.484 0.184 0.914 0.184h0.154c1.117 0 1.935 0.167 2.452 0.506 0.517 0.337 0.776 0.874 0.776 1.61 0 0.113-7e-3 0.233-0.024 0.36-0.015 0.13-0.033 0.264-0.054 0.408l-0.09 0.507c-0.195 1.054-0.62 1.824-1.276 2.31s-1.62 0.73-2.89 0.73h-3.83l0.4-2.287h3.8c0.336 0 0.6-0.04 0.79-0.115"/>
   <path transform="matrix(7.6345 0 0 7.6345 .4 1)" d="m2.053 6.802 0.16-0.955h1.537c0.108 0 0.196-0.01 0.264-0.03 0.07-0.02 0.124-0.046 0.165-0.078 0.04-0.033 0.07-0.07 0.09-0.116 0.02-0.045 0.035-0.092 0.043-0.142 0.012-0.07 0.02-0.136 0.02-0.196s-0.013-0.11-0.042-0.154c-0.027-0.042-0.076-0.075-0.143-0.1-0.068-0.023-0.163-0.035-0.286-0.035h-0.1c-0.253 0-0.47-0.023-0.647-0.068-0.178-0.045-0.318-0.118-0.42-0.217-0.104-0.1-0.172-0.228-0.204-0.385-0.015-0.073-0.022-0.153-0.022-0.24 0-0.095 0.01-0.2 0.03-0.315l0.033-0.2c0.04-0.215 0.103-0.4 0.19-0.56 0.09-0.157 0.204-0.286 0.346-0.388 0.142-0.1 0.312-0.177 0.51-0.226 0.196-0.05 0.422-0.075 0.68-0.075h1.49l-0.166 0.956h-1.478c-0.115 0-0.208 0.01-0.278 0.028s-0.126 0.045-0.165 0.08c-0.04 0.035-0.068 0.078-0.085 0.13-0.017 0.05-0.032 0.11-0.044 0.176-0.012 0.067-0.014 0.125-7e-3 0.175s0.027 0.09 0.06 0.124c0.034 0.034 0.083 0.06 0.15 0.076 0.065 0.017 0.15 0.026 0.258 0.026h0.104c0.252 0 0.467 0.023 0.645 0.068 0.176 0.044 0.317 0.117 0.42 0.216 0.105 0.1 0.173 0.228 0.205 0.385 0.016 0.073 0.024 0.155 0.024 0.245 0 0.096-0.01 0.2-0.03 0.315l-0.034 0.21c-0.038 0.218-0.102 0.407-0.19 0.567-0.09 0.16-0.205 0.292-0.348 0.395-0.142 0.103-0.312 0.18-0.51 0.23-0.197 0.05-0.423 0.075-0.678 0.075h-1.547zm3.543 0 0.766-4.476h1.775c0.228 0 0.428 0.023 0.6 0.07 0.173 0.045 0.313 0.12 0.42 0.225 0.11 0.106 0.184 0.24 0.224 0.403 0.02 0.082 0.03 0.172 0.028 0.27 0 0.103-0.01 0.214-0.03 0.333l-0.1 0.578c-0.074 0.44-0.253 0.762-0.536 0.97-0.282 0.207-0.678 0.31-1.186 0.314h-0.712l-0.225 1.313h-1.025zm1.411-2.27h0.71c0.104 0 0.19-0.01 0.255-0.028 0.067-0.02 0.12-0.046 0.162-0.083 0.04-0.035 0.073-0.082 0.094-0.138 0.02-0.056 0.037-0.122 0.05-0.197l0.072-0.418c8e-3 -0.05 0.012-0.094 0.012-0.13 0-0.026 0-0.047-3e-3 -0.063-8e-3 -0.05-0.028-0.09-0.06-0.117-0.033-0.028-0.078-0.048-0.135-0.06-0.058-0.01-0.13-0.016-0.214-0.016h-0.73l-0.21 1.251zm2.251 2.27 0.763-4.476h2.868l-0.163 0.955h-1.84l-0.124 0.725h1.7l-0.164 0.955h-1.698l-0.15 0.886h1.84l-0.162 0.955h-2.87zm3.542-1.19 0.36-2.097c0.023-0.144 0.073-0.286 0.15-0.428 0.075-0.14 0.18-0.27 0.317-0.382 0.136-0.113 0.306-0.205 0.51-0.275 0.202-0.07 0.442-0.105 0.718-0.105h1.284l-0.164 0.955h-1.172c-0.135 0-0.244 0.014-0.327 0.042s-0.148 0.066-0.195 0.114-0.08 0.103-0.1 0.165c-0.02 0.063-0.037 0.128-0.05 0.195l-0.267 1.555c-0.012 0.066-0.018 0.128-0.018 0.188s0.016 0.112 0.047 0.158c0.03 0.046 0.083 0.082 0.156 0.11 0.073 0.026 0.177 0.04 0.312 0.04h1.172l-0.164 0.956h-1.284c-0.276 0-0.503-0.035-0.68-0.105-0.18-0.07-0.316-0.162-0.413-0.276-0.097-0.11-0.16-0.238-0.187-0.38-0.014-0.075-0.022-0.15-0.024-0.225 0-0.068 5e-3 -0.136 0.017-0.203zm3.53-2.332 0.164-0.954h3.288l-0.163 0.955h-1.133l-0.602 3.522h-1.023l0.602-3.52h-1.133zm3.068 3.522 0.766-4.476h1.772c0.254 0 0.468 0.027 0.643 0.08 0.173 0.053 0.31 0.133 0.41 0.24 0.1 0.105 0.164 0.24 0.192 0.402 0.012 0.07 0.018 0.147 0.018 0.228 0 0.107-0.01 0.222-0.03 0.346l-0.1 0.58c-0.09 0.54-0.347 0.91-0.77 1.11l0.586 1.49h-1.103l-0.502-1.312h-0.647l-0.225 1.313h-1.01zm1.4-2.269h0.705c0.1 0 0.185-0.01 0.253-0.028 0.068-0.02 0.123-0.046 0.166-0.083 0.043-0.035 0.077-0.082 0.1-0.138s0.04-0.122 0.053-0.197l0.073-0.418c8e-3 -0.048 0.012-0.09 0.012-0.125 0-0.025-2e-3 -0.048-6e-3 -0.07-8e-3 -0.05-0.03-0.088-0.062-0.116-0.033-0.028-0.08-0.048-0.14-0.06-0.058-0.01-0.13-0.016-0.215-0.016h-0.723l-0.216 1.252zm2.604 0.981 0.545-3.188h1.023l-0.54 3.153c-5e-3 0.036-8e-3 0.07-8e-3 0.1 2e-3 0.045 0.01 0.087 0.02 0.125 0.025 0.063 0.065 0.115 0.12 0.156 0.053 0.042 0.123 0.072 0.206 0.09 0.084 0.02 0.18 0.03 0.286 0.03 0.11 0 0.21-0.01 0.304-0.03 0.094-0.022 0.176-0.054 0.247-0.098 0.07-0.044 0.13-0.1 0.174-0.165 0.044-0.066 0.075-0.144 0.09-0.234l0.537-3.127h1.023l-0.555 3.237c-0.028 0.166-0.09 0.33-0.183 0.495-0.094 0.163-0.222 0.31-0.384 0.44s-0.36 0.236-0.595 0.317c-0.234 0.08-0.507 0.122-0.817 0.122-0.263 0-0.497-0.033-0.7-0.098-0.203-0.066-0.37-0.16-0.5-0.28s-0.22-0.266-0.272-0.436c-0.03-0.1-0.045-0.208-0.045-0.324 0-0.092 8e-3 -0.187 0.022-0.286zm3.878 1.288 0.766-4.476h1.203l0.653 2.513 1.517-2.514h1.2l-0.764 4.476h-1.023l0.475-2.78-1.113 1.879h-0.948l-0.466-1.88-0.475 2.782h-1.025z"/>
  </g>
 </g>
</svg>
