<svg width="198.23mm" height="65.062mm" version="1.1" viewBox="0 0 749.2 245.9" xmlns="http://www.w3.org/2000/svg">
 <g transform="translate(579.22 -296.88)">
  <g transform="matrix(.94741 0 0 -.94741 -791.83 991.93)">
   <g transform="scale(.1)">
    <path d="m2244.1 4765 56.91 321.59h557.37c174.47 0 211.05 72.06 223.76 142.28 10.51 56.51 16.46 106.64-16.28 144.83-22.6 26.53-75.8 48.03-168.03 48.03h-23.64c-211.25 0-347.69 40.1-417.42 123.24-55.43 66.43-70.96 164.06-47.34 299.2l13.24 75.14c55.01 311.52 246.34 450.56 620.06 450.56h538.7l-57.34-322.12h-537.12c-164.65 0-205.94-49.79-224.44-141.64-10.69-51.62-17.41-101.75 16.45-142.02 28.86-34.43 76.09-47.86 168.26-47.86h23.49c211.21 0 346.9-45.2 416.81-128.05 55.7-66.41 71.8-159.45 48.04-294.8l-13.86-78.32c-54.92-311.09-246.13-450.06-620.04-450.06h-557.58"/>
    <path d="m8814.6 4765 56.74 321.59h557.37c174.64 0 211.17 72.06 223.93 142.26 10.39 56.53 16.34 106.66-16.33 144.85-22.43 26.53-76.01 47.91-168.12 47.91h-23.57c-211.08 0-347.67 40.22-417.35 123.36-55.58 66.43-70.96 164.06-47.29 299.2l13.1 75.14c55.34 311.52 246.37 450.56 620.18 450.56h538.59l-57.3-322.12h-537.16c-164.54 0-205.79-49.79-224.45-141.64-10.44-51.62-17.34-101.75 16.43-142.07 28.95-34.38 76.15-47.81 168.16-47.81h23.43c211.42 0 347.29-45.2 416.97-128.05 55.62-66.41 71.92-159.45 48.02-294.8l-13.78-78.32c-54.91-311.12-246.08-450.06-620.04-450.06h-557.53"/>
    <path d="m5640 6072c-171.78 0-270.9-68.01-294.56-201.7l-107-606.61c-10.36-57.38-1.3-103.85 26.63-137.14 35.6-42.5 101.78-64.12 196.71-64.12 172.17 0 271.14 67.84 294.76 201.45l107.14 606.85c10.33 57.92 1.17 104.23-26.72 137.47-35.41 42.1-101.83 63.8-196.96 63.8zm-234.65-1331.1c-215.15 0-370.2 54.63-460.8 162.67-70.8 84.25-97.35 201.36-74.87 329.33l118.18 669.24c41.82 237.56 249.99 491.79 708.8 491.79 215.14 0 370.09-54.61 460.66-162.67 71.12-84.66 97.7-201.48 74.89-329.53l-117.81-669.04c-42.31-237.68-250.39-491.79-709.05-491.79"/>
    <path d="m7899.7 4765 225.96 1282.8h-430.7l56.65 322.12h1225.1l-56.86-322.12h-430.78l-226.08-1282.8h-363.26"/>
    <path d="m6191.4 4765 283.15 1604.9h655.76c200.77 0 332.6-40.91 402.94-125.26 61.68-73.01 78.8-181.24 52.44-330.9l-36.98-209.49c-34.36-194.97-131.59-325.9-294.76-395.03l288.57-544.19h-399.32l-260.04 485.87h-127.33l34.25 196.08c20.62 117.44 172.31 118.81 173.76 118.81 166.47 0 208.12 61.43 228.25 175.09l25.53 149.28c10.12 57.61 5.57 88.8-16.48 115.5-24.32 28.72-70.83 42.12-146.62 42.12h-273.59l-226.43-1282.8h-363.1"/>
    <path d="m3471 4765 283.35 1604.9h655.76c200.72 0 332.38-40.91 402.96-125.23 61.46-73.04 78.58-181.27 52.32-330.93l-36.91-209.49c-53.94-305.08-261.49-453.35-634.78-453.35h-158.31l34.36 196.08c20.62 117.44 172.38 118.81 173.76 118.81 166.48 0 208.08 61.43 228.23 175.09l25.71 149.28c10.06 57.61 5.55 88.8-16.76 115.5-24.03 28.72-70.7 42.12-146.3 42.12h-273.78l-226.47-1282.8h-363.14"/>
    <path d="m2532.8 6507.2 29.73 176.95h284.94c19.81 0 36.08 1.82 48.78 5.47 12.72 3.65 22.9 8.46 30.57 14.4 7.67 5.95 13.38 13.06 17.12 21.32 3.74 8.25 6.34 17 7.84 26.22 2.26 13.05 3.45 25.16 3.65 36.3 0.19 11.13-2.43 20.63-7.85 28.5-5.42 7.88-14.4 14.02-26.93 18.44-12.52 4.41-30.2 6.63-53 6.63h-18.51c-47.1 0-87.14 4.17-120.02 12.52-32.92 8.36-58.91 21.78-77.97 40.27-19.07 18.5-31.61 42.25-37.58 71.3-2.63 13.52-3.93 28.23-3.93 44.14 0 17.84 1.86 37.38 5.61 58.64l6.17 37.01c7.1 39.84 18.79 74.37 35.05 103.59 16.27 29.22 37.59 53.21 63.96 72.01 26.34 18.78 57.76 32.74 94.21 41.83 36.47 9.12 78.43 13.67 125.92 13.67h275.96l-30.28-176.94h-273.72c-21.32 0-38.51-1.68-51.6-5.04s-23.28-8.29-30.57-14.82c-7.29-6.52-12.53-14.52-15.71-24.02-3.18-9.51-5.88-20.41-8.13-32.7-2.24-12.3-2.72-23.1-1.39-32.42 1.29-9.33 5.03-17.06 11.22-23.21 6.17-6.14 15.32-10.8 27.46-13.97 12.17-3.16 28.15-4.75 47.98-4.75h19.06c46.74 0 86.57-4.18 119.47-12.52 32.9-8.36 58.98-21.78 78.26-40.27 19.25-18.5 31.86-42.25 37.85-71.29 2.99-13.52 4.49-28.64 4.49-45.33 0-17.73-1.89-37.21-5.61-58.41l-6.16-38.74c-7.12-40.48-18.89-75.56-35.36-105.25-16.46-29.69-37.85-54.06-64.22-73.15-26.35-19.08-57.86-33.25-94.5-42.5-36.65-9.25-78.53-13.88-125.64-13.88h-286.62"/>
    <path d="m3447.6 6927.6h131.69c19.08 0 34.79 1.74 47.13 5.2 12.33 3.47 22.34 8.58 30.01 15.33 7.65 6.73 13.45 15.32 17.38 25.73 3.92 10.41 7.02 22.55 9.25 36.43l13.46 77.48c1.5 9.26 2.25 17.35 2.25 24.29 0 4.63-0.19 8.47-0.55 11.56-1.51 9.26-5.25 16.48-11.22 21.69-6 5.2-14.3 8.87-24.96 10.99-10.66 2.11-23.85 3.18-39.56 3.18h-135.17zm-261.52-420.39 141.92 829.21h328.83c42.25 0 79.38-4.27 111.33-12.81 31.98-8.54 57.87-22.52 77.7-41.92 20.18-19.41 34.02-44.26 41.5-74.54 3.74-15.14 5.42-31.83 5.05-50.06 0-19.04-1.87-39.61-5.61-61.72l-18.5-107.14c-13.84-81.14-46.94-140.92-99.29-179.36-52.35-38.43-125.63-57.84-219.87-58.21h-131.82l-41.65-243.45h-189.59"/>
    <path d="m3861.3 6507.2 141.4 829.21h531.12l-30.28-176.94h-341.03l-22.73-134.16h314.67l-30.28-176.94h-314.34l-27.79-164.22h341.03l-30.3-176.95h-531.47"/>
    <path d="m4514.1 6727.5 66.77 388.58c4.47 26.6 13.74 52.99 27.78 79.22 14.03 26.21 33.67 49.81 58.92 70.83 25.27 21.01 56.69 37.96 94.27 50.89 37.61 12.91 82 19.37 133.25 19.37h237.81l-30.28-176.94h-217.07c-25.06 0-45.26-2.61-60.58-7.81-15.34-5.2-27.39-12.24-36.18-21.12-8.79-8.87-15.05-19.09-18.79-30.65-3.74-11.57-6.73-23.52-8.97-35.85l-49.49-288.06c-2.24-12.18-3.36-23.8-3.36-34.86s2.89-20.83 8.69-29.31c5.79-8.5 15.42-15.22 28.9-20.2 13.45-4.98 32.71-7.46 57.76-7.46h217.08l-30.3-176.95h-237.82c-51.17 0-93.25 6.45-126.25 19.38-33 12.91-58.46 29.97-76.34 51.17-17.91 20.82-29.46 44.32-34.68 70.54-2.62 13.88-4.11 27.76-4.47 41.64 0 12.72 1.12 25.24 3.35 37.59"/>
    <path d="m5165.1 7159.4 30.3 176.94h609.13l-30.28-176.94h-209.77l-111.6-652.27h-189.59l111.6 652.27h-209.79"/>
    <path d="m5989.1 6927.6h130.62c18.68 0 34.27 1.74 46.8 5.2 12.51 3.47 22.81 8.58 30.84 15.33 8.02 6.73 14.19 15.32 18.49 25.73s7.57 22.55 9.81 36.43l13.45 77.48c1.51 8.87 2.26 16.57 2.26 23.13 0 4.63-0.39 8.87-1.14 12.72-1.48 9.26-5.32 16.48-11.49 21.69-6.16 5.2-14.78 8.87-25.81 10.99-11.02 2.11-24.38 3.18-40.09 3.18h-134.04zm-259.29-420.39 141.94 829.21h328.35c47.05 0 86.74-4.91 119.06-14.74 32.31-9.84 57.71-24.58 76.2-44.24 18.5-19.66 30.35-44.53 35.58-74.59 2.25-13.11 3.37-27.18 3.37-42.22 0-19.84-1.87-41.22-5.59-64.16l-18.46-107.35c-16.77-100.34-64.33-168.98-142.62-205.92l108.5-275.99h-204.34l-92.96 243.45h-120.02l-41.66-243.45h-187.35"/>
    <path d="m6468.3 6745.6 100.96 590.72h189.59l-99.84-584.16c-1.12-6.81-1.7-13.05-1.7-18.71 0.39-8.32 1.7-16.07 3.93-23.25 4.49-11.71 11.78-21.34 21.88-28.9s22.9-13.14 38.41-16.72c15.52-3.59 33.2-5.39 53.01-5.39 20.2 0 38.99 1.94 56.38 5.82s32.61 9.88 45.72 18.03c13.07 8.15 23.82 18.32 32.25 30.55 8.4 12.21 14.11 26.65 17.09 43.32l99.29 579.41h189.59l-102.76-599.62c-5.24-30.85-16.54-61.39-33.92-91.66-17.39-30.28-41.12-57.45-71.22-81.55-30.09-24.09-66.81-43.66-110.18-58.69s-93.83-22.55-151.4-22.55c-48.81 0-92 6.06-129.61 18.16-37.62 12.11-68.54 29.32-92.75 51.62-23.82 22.3-40.59 49.21-50.27 80.75-5.59 18.44-8.38 38.44-8.38 59.98 0 16.94 1.31 34.56 3.93 52.84"/>
    <path d="m7183.8 6507.2 141.73 829.21h222.86l121.16-465.49 281.01 465.49h222.49l-141.71-829.21h-189.59l88.05 515.22-206.39-348.1h-175.58l-86.37 348.1-88.07-515.22h-189.59"/>
   </g>
  </g>
 </g>
</svg>
