<svg width="800.01" height="174.59" version="1.1" viewBox="0 0 799.99 174.59" xmlns="http://www.w3.org/2000/svg">
 <g transform="matrix(.71001 0 0 .71001 -.015105 .0069348)" stroke-width=".094741">
  <path d="m907.89 243.61c-7.9014 0-14.808-3.0402-19.46-8.5655-4.6613-5.5641-6.4898-12.919-5.0971-20.69l21.667-122.79h95.755l-5.3907 30.518h-61.354l-4.8981 27.616h56.57l-5.3718 30.557h-56.551l-3.5338 19.941c-0.76741 4.3022-0.25581 7.4694 1.5916 9.6674 1.8285 2.215 4.8792 3.2799 9.2846 3.2799h48.195l-5.3718 30.468h-66.034"/>
  <path d="m-0.0017219 243.61 5.3917-30.468h52.806c16.529 0 19.995-6.827 21.199-13.48 0.99573-5.3538 1.5594-10.103-1.5424-13.721-2.1411-2.5135-7.1814-4.5504-15.919-4.5504h-2.2397c-20.014 0-32.94-3.7991-39.547-11.676-5.2515-6.2936-6.7228-15.543-4.485-28.347l1.2544-7.1188c5.2117-29.514 23.338-42.687 58.745-42.687h51.037l-5.4324 30.518h-50.887c-15.599 0-19.511 4.7172-21.264 13.419-1.0128 4.8905-1.6494 9.6399 1.5585 13.455 2.7342 3.2619 7.2088 4.5343 15.941 4.5343h2.2255c20.01 0 32.866 4.2823 39.489 12.132 5.2771 6.2918 6.8024 15.106 4.5514 27.93l-1.3131 7.4201c-5.2032 29.473-23.319 42.639-58.743 42.639h-52.826"/>
  <path d="m622.49 243.61 5.3756-30.468h52.806c16.546 0 20.006-6.827 21.215-13.478 0.98436-5.3557 1.5481-10.105-1.5471-13.723-2.125-2.5135-7.2013-4.539-15.928-4.539h-2.233c-19.998 0-32.939-3.8105-39.54-11.687-5.2657-6.2936-6.7228-15.543-4.4803-28.347l1.2411-7.1188c5.243-29.514 23.341-42.687 58.756-42.687h51.027l-5.4287 30.518h-50.891c-15.589 0-19.497 4.7172-21.265 13.419-0.9891 4.8905-1.6428 9.6399 1.5566 13.46 2.7428 3.2572 7.2145 4.5296 15.932 4.5296h2.2198c20.03 0 32.903 4.2823 39.504 12.132 5.2695 6.2918 6.8138 15.106 4.5495 27.93l-1.3055 7.4201c-5.2022 29.476-23.314 42.639-58.743 42.639h-52.821"/>
  <path d="m321.73 119.78c-16.275 0-25.665 6.4433-27.907 19.109l-10.137 57.471c-0.98151 5.4362-0.12316 9.8388 2.523 12.993 3.3728 4.0265 9.6427 6.0748 18.636 6.0748 16.312 0 25.688-6.4272 27.926-19.086l10.151-57.494c0.97867-5.4874 0.11084-9.8749-2.5315-13.024-3.3548-3.9886-9.6475-6.0445-18.66-6.0445zm-22.231 126.11c-20.384 0-35.073-5.1757-43.657-15.412-6.7077-7.9819-9.223-19.077-7.0933-31.201l11.196-63.404c3.9621-22.507 23.684-46.593 67.152-46.593 20.383 0 35.063 5.1738 43.643 15.412 6.738 8.0208 9.2562 19.088 7.0952 31.22l-11.161 63.386c-4.0085 22.518-23.722 46.593-67.176 46.593"/>
  <path d="m535.82 243.61 21.408-121.53h-40.805l5.3671-30.518h116.07l-5.387 30.518h-40.813l-21.419 121.53h-34.416"/>
  <path d="m1024.7 243.61 21.421-121.53h-40.843l5.3812-30.518h116.09l-5.3908 30.518h-40.824l-21.43 121.53h-34.4"/>
  <path d="m820.82 243.61-31.975-99.355-17.527 99.355h-32.885l26.831-152.06h42.141l32.136 99.649 17.556-99.649h32.875l-26.812 152.06h-42.34"/>
  <path d="m373.97 243.61 26.826-152.05h62.127c19.021 0 31.511 3.8759 38.175 11.867 5.8436 6.917 7.4656 17.171 4.9682 31.35l-3.5035 19.847c-3.2553 18.472-12.467 30.876-27.926 37.426l27.339 51.557h-37.832l-24.636-46.032h-12.063l3.2449-18.577c1.9536-11.126 16.325-11.256 16.462-11.256 15.772 0 19.717-5.8199 21.625-16.588l2.4187-14.143c0.95878-5.458 0.5277-8.413-1.5613-10.943-2.3041-2.721-6.7105-3.9905-13.891-3.9905h-25.92l-21.452 121.53h-34.4"/>
  <path d="m116.24 243.61 26.845-152.05h62.127c19.016 0 31.49 3.8759 38.177 11.864 5.8228 6.9199 7.4448 17.174 4.9568 31.353l-3.4969 19.847c-5.1103 28.904-24.774 42.951-60.14 42.951h-14.998l3.2553-18.577c1.9536-11.126 16.331-11.256 16.462-11.256 15.772 0 19.714-5.8199 21.623-16.588l2.4358-14.143c0.95309-5.458 0.52581-8.413-1.5879-10.943-2.2766-2.721-6.6982-3.9905-13.861-3.9905h-25.938l-21.456 121.53h-34.404"/>
  <path d="m27.35 78.551 2.8166-16.764h26.996c1.8768 0 3.4183-0.17243 4.6215-0.51823 1.2051-0.3458 2.1696-0.80151 2.8962-1.3643 0.72666-0.56371 1.2676-1.2373 1.622-2.0199 0.35433-0.78161 0.60066-1.6106 0.74277-2.4841 0.21412-1.2364 0.32686-2.3837 0.3458-3.4391 0.018-1.0545-0.23022-1.9545-0.74372-2.7001-0.5135-0.74656-1.3643-1.3283-2.5514-1.747-1.1862-0.41781-2.8612-0.62813-5.0213-0.62813h-1.7537c-4.4623 0-8.2557-0.39507-11.371-1.1862-3.1189-0.79204-5.5812-2.0635-7.387-3.8152-1.8067-1.7527-2.9948-4.0028-3.5604-6.755-0.24917-1.2809-0.37233-2.6745-0.37233-4.1819 0-1.6902 0.17622-3.5414 0.5315-5.5556l0.58455-3.5064c0.67266-3.7745 1.7802-7.0459 3.3207-9.8142 1.5414-2.7683 3.5613-5.0412 6.0596-6.8223 2.4955-1.7792 5.4722-3.1018 8.9255-3.963 3.4552-0.86404 7.4305-1.2951 11.93-1.2951h26.145l-2.8688 16.763h-25.933c-2.0199 0-3.6485 0.15916-4.8886 0.47749-1.2402 0.31833-2.2056 0.7854-2.8962 1.4041-0.69066 0.61771-1.1871 1.3756-1.4884 2.2757-0.30128 0.90099-0.55708 1.9337-0.77024 3.098-0.21222 1.1653-0.2577 2.1885-0.13169 3.0715 0.12222 0.88393 0.47655 1.6163 1.063 2.1989 0.58455 0.58171 1.4514 1.0232 2.6016 1.3235 1.153 0.29938 2.667 0.45002 4.5457 0.45002h1.8058c4.4282 0 8.2017 0.39602 11.319 1.1862 3.117 0.79204 5.5878 2.0635 7.4144 3.8152 1.8238 1.7527 3.0184 4.0028 3.5859 6.7541 0.28328 1.2809 0.42539 2.7134 0.42539 4.2946 0 1.6798-0.17906 3.5253-0.5315 5.5338l-0.5836 3.6703c-0.67456 3.8351-1.7897 7.1586-3.35 9.9715-1.5594 2.8129-3.5859 5.1217-6.0843 6.9303-2.4964 1.8077-5.4817 3.1501-8.953 4.0265-3.4723 0.87635-7.44 1.315-11.903 1.315h-27.155"/>
  <path d="m114.02 38.722h12.476c1.8077 0 3.296-0.16485 4.4652-0.49265 1.1682-0.32875 2.1165-0.81288 2.8432-1.4524 0.72477-0.63761 1.2743-1.4514 1.6466-2.4377 0.37139-0.98625 0.66509-2.1364 0.87636-3.4514l1.2752-7.3405c0.14211-0.8773 0.21317-1.6438 0.21317-2.3013 0-0.43865-0.018-0.80246-0.0521-1.0952-0.14306-0.8773-0.49739-1.5613-1.063-2.0549-0.56845-0.49265-1.3548-0.84035-2.3647-1.0412-1.0099-0.1999-2.2596-0.30128-3.748-0.30128h-12.806zm-24.777 39.828 13.446-78.56h31.154c4.0028 0 7.5205 0.40454 10.548 1.2136 3.0298 0.80909 5.4827 2.1336 7.3614 3.9715 1.9119 1.8389 3.2231 4.1932 3.9318 7.062 0.35434 1.4344 0.5135 3.0156 0.47845 4.7427 0 1.8039-0.17717 3.7527-0.5315 5.8474l-1.7527 10.151c-1.3112 7.6873-4.4471 13.351-9.4068 16.993-4.9597 3.6409-11.902 5.4798-20.831 5.5149h-12.489l-3.946 23.065h-17.962"/>
  <path d="m153.21 78.551 13.396-78.56h50.319l-2.8688 16.763h-32.31l-2.1535 12.71h29.812l-2.8688 16.763h-29.781l-2.6328 15.558h32.31l-2.8706 16.764h-50.352"/>
  <path d="m215.06 57.68 6.3258-36.814c0.4235-2.5201 1.3018-5.0203 2.6319-7.5054 1.3292-2.4832 3.1899-4.719 5.5821-6.7105 2.3941-1.9905 5.3709-3.5964 8.9312-4.8214 3.5632-1.2231 7.7688-1.8351 12.624-1.8351h22.53l-2.8688 16.763h-20.565c-2.3742 0-4.288 0.24727-5.7394 0.73993-1.4533 0.49265-2.595 1.1596-3.4277 2.0009-0.83277 0.84035-1.4258 1.8086-1.7802 2.9038-0.35433 1.0962-0.63761 2.2283-0.84983 3.3965l-4.6887 27.291c-0.21222 1.1539-0.31833 2.2548-0.31833 3.3027 0 1.0478 0.2738 1.9735 0.8233 2.7769 0.54855 0.8053 1.4609 1.442 2.738 1.9138 1.2743 0.47181 3.099 0.70677 5.4722 0.70677h20.566l-2.8706 16.764h-22.531c-4.8479 0-8.8346-0.61108-11.961-1.8361-3.1264-1.2231-5.5386-2.8394-7.2325-4.8479-1.6968-1.9725-2.7911-4.1989-3.2856-6.683-0.24822-1.315-0.38939-2.63-0.42349-3.945 0-1.2051 0.10611-2.3913 0.31738-3.5613"/>
  <path d="m276.74 16.761 2.8706-16.763h57.71l-2.8688 16.763h-19.874l-10.573 61.797h-17.962l10.573-61.797h-19.876"/>
  <path d="m354.8 38.722h12.375c1.7698 0 3.2468-0.16485 4.4339-0.49265 1.1852-0.32875 2.161-0.81288 2.9218-1.4524 0.75983-0.63761 1.3444-1.4514 1.7518-2.4377 0.40739-0.98625 0.71719-2.1364 0.92941-3.4514l1.2743-7.3405c0.14306-0.84035 0.21412-1.5699 0.21412-2.1914 0-0.43865-0.0369-0.84035-0.10801-1.2051-0.14022-0.8773-0.50402-1.5613-1.0886-2.0549-0.58361-0.49265-1.4003-0.84035-2.4453-1.0412-1.044-0.1999-2.3098-0.30128-3.7982-0.30128h-12.699zm-24.565 39.828 13.448-78.56h31.108c4.4576 0 8.2178 0.46518 11.28 1.3965 3.0611 0.93225 5.4675 2.3287 7.2193 4.1913 1.7527 1.8626 2.8754 4.2188 3.3709 7.0667 0.21316 1.2421 0.31927 2.5751 0.31927 4 0 1.8797-0.17716 3.9052-0.5296 6.0786l-1.7489 10.17c-1.5888 9.5063-6.0947 16.009-13.512 19.509l10.279 26.148h-19.359l-8.8071-23.065h-11.371l-3.9469 23.065h-17.75"/>
  <path d="m400.2 55.965 9.565-55.965h17.962l-9.4589 55.344c-0.10611 0.64519-0.16106 1.2364-0.16106 1.7726 0.0369 0.78824 0.16106 1.5225 0.37233 2.2027 0.42539 1.1094 1.116 2.0218 2.0729 2.738 0.95689 0.71624 2.1696 1.2449 3.639 1.5841 1.4704 0.34012 3.1454 0.51065 5.0222 0.51065 1.9138 0 3.694-0.1838 5.3415-0.55139 1.6476-0.3676 3.0895-0.93604 4.3316-1.7082 1.2383-0.77214 2.2567-1.7357 3.0554-2.8943 0.79582-1.1568 1.3368-2.5248 1.6191-4.1042l9.4068-54.894h17.962l-9.7356 56.809c-0.49645 2.9228-1.567 5.8162-3.2136 8.684-1.6475 2.8688-3.8958 5.4429-6.7474 7.7261-2.8508 2.2823-6.3296 4.1364-10.439 5.5603-4.1089 1.424-8.8895 2.1364-14.344 2.1364-4.6243 0-8.7162-0.57413-12.279-1.7205-3.5642-1.1473-6.4936-2.7778-8.7872-4.8905-2.2567-2.1127-3.8455-4.6622-4.7626-7.6503-0.5296-1.747-0.79393-3.6418-0.79393-5.6826 0-1.6049 0.12411-3.2742 0.37233-5.0061"/>
  <path d="m467.99 78.551 13.428-78.56h21.114l11.479 44.101 26.623-44.101h21.079l-13.426 78.56h-17.962l8.3419-48.812-19.554 32.979h-16.635l-8.1828-32.979-8.3438 48.812h-17.962"/>
 </g>
</svg>
