<svg width="448" height="160" version="1.1" viewBox="-1 -1 448 160" xmlns="http://www.w3.org/2000/svg">
 <g transform="translate(-17 -101)">
  <g transform="translate(17 101)">
   <path transform="matrix(7.6366 0 0 7.6366 335.75 .7)" d="m0 0h1v1h-1v-1z" fill="none"/>
   <path transform="matrix(7.6366 0 0 7.6366 335.75 .7)" d="m14.616 7.783v8.86l-12.55 4.077v-8.86" fill="#D31F36"/>
   <path transform="matrix(7.6366 0 0 7.6366 335.75 .7)" d="m12.55 0v8.46l-12.55 4.077v-8.46" fill="#0047B8"/>
   <path transform="matrix(7.6366 0 0 7.6366 335.75 .7)" d="m14.456 14.39c4e-3 -0.99-0.553-1.626-1.198-1.957-0.107-0.056-0.216-0.105-0.323-0.147 0.82-0.424 1.325-1.16 1.33-1.97v-0.024c0-0.69-0.356-1.325-1.024-1.78-0.044-0.033-0.088-0.064-0.136-0.095-0.68-0.446-1.673-0.705-2.93-0.705-1.104 0-2.115 0.205-2.868 0.663-0.754 0.458-1.226 1.17-1.26 2.123l-5e-3 0.162h3.032l6e-3 -0.152c0.02-0.4 0.184-0.6 0.368-0.713 0.186-0.114 0.43-0.15 0.63-0.15 0.336 2e-3 0.595 0.083 0.775 0.22 0.18 0.14 0.29 0.34 0.29 0.61 2e-3 0.045 0 0.262-0.126 0.475-0.13 0.212-0.352 0.415-0.867 0.486-0.285 0.04-0.56 0.05-0.807 0.05-0.214 0-0.408-8e-3 -0.572-0.014l-0.218-8e-3v1.907l0.227-0.015c0.17-0.012 0.436-0.025 0.727-0.025 0.268 0 0.736 3e-3 1.11 0.128 0.37 0.13 0.653 0.33 0.663 0.842 0 0.25-0.077 0.508-0.263 0.69-0.187 0.184-0.473 0.315-0.995 0.317-0.467-2e-3 -0.726-0.107-0.897-0.26-0.17-0.156-0.255-0.387-0.266-0.652l-7e-3 -0.15h-3.05l0.01 0.164c0.028 0.404 0.07 1.1 0.764 1.77 0.76 0.755 1.884 1.078 3.473 1.074h0.03c1.876 0 2.714-0.456 3.188-0.787l0.023-0.017 0.012-7e-3c0.887-0.568 1.143-1.352 1.148-2.008v-0.035c2e-3 -7e-3 0-0.01 0-0.01zm-12.046 2.772h2.92l-2e-3 -9.367h-2.467c-0.695 0.56-1.22 0.882-1.815 1.132v2.073c0.465-0.203 0.97-0.468 1.362-0.772l2e-3 6.934z" fill="#FFF"/>
   <path transform="matrix(7.6366 0 0 7.6366 335.75 .7)" d="m2.889 6.54-1.823-1.875h-0.606v2.3h0.403v-2.005l1.958 2.006h0.472v-2.3h-0.404m6.237 0.224-0.644 1.683h-0.01l-0.79-1.682h-0.347l-0.735 1.683h-0.01l-0.693-1.682h-2.395v2.076h2.244v-0.223h-1.81v-0.76h1.3v-0.21h-1.3v-0.658h1.612l0.785 1.85h0.44l0.708-1.608 0.754 1.61h0.433l0.835-2.076m2.197 1.069c-0.177-0.09-0.404-0.13-0.632-0.16l-0.522-0.076c-0.323-0.045-0.627-0.097-0.627-0.33 0-0.227 0.415-0.33 0.743-0.33 0.37 0 0.774 0.14 0.85 0.366l0.394-0.064c-0.187-0.336-0.653-0.508-1.234-0.508-0.602 0-1.178 0.173-1.178 0.572 0 0.145 0.1 0.287 0.283 0.384 0.183 0.1 0.395 0.133 0.628 0.166l0.577 0.085c0.303 0.045 0.592 0.13 0.592 0.34 0 0.1-0.08 0.205-0.212 0.265-0.162 0.076-0.415 0.103-0.622 0.103-0.486 0-0.885-0.133-1.027-0.42l-0.39 0.05c0.233 0.403 0.7 0.59 1.407 0.59 0.314 0 0.653-0.036 0.906-0.15 0.252-0.115 0.388-0.285 0.388-0.472 0-0.163-0.107-0.305-0.324-0.41z" fill="#FFF"/>
  </g>
  <path transform="matrix(7.6345 0 0 7.6345 17.35 102)" d="m0 0h1v1h-1v-1z" fill="none"/>
  <g transform="translate(17 101)" fill="#fff">
   <path transform="matrix(7.6345 0 0 7.6345 .4 1)" d="m7.12 14.427 1.168-6.657h2.46l-1.89 10.74h-3.093l-2.135-6.646-1.17 6.646h-2.46l1.892-10.74h3.074m8.174 8.452h4.276l-0.416 2.288h-6.81l1.89-10.74h6.858l-0.415 2.285h-4.29l-0.308 1.734h3.952l-0.414 2.284h-3.936m20.563-6.303-4.903 10.74h-2.952l-0.262-6.046-2.753 6.045h-3.028l-0.477-10.74h2.6l0.275 7.302 3.352-7.303h1.86l0.31 7.302 3.35-7.303m6.131 8.341c0.19-0.077 0.334-0.18 0.432-0.307 0.097-0.127 0.158-0.267 0.184-0.42s0.038-0.308 0.038-0.46c0-0.247-0.085-0.43-0.254-0.554-0.17-0.122-0.48-0.184-0.93-0.184h-0.154c-1.117 0-1.934-0.17-2.452-0.514-0.518-0.342-0.777-0.886-0.777-1.634 2e-3 -0.113 8e-3 -0.227 0.024-0.345 0.015-0.118 0.032-0.25 0.054-0.392l0.092-0.49c0.195-1.055 0.622-1.824 1.284-2.31 0.66-0.486 1.623-0.73 2.883-0.73h3.66l-0.4 2.286h-3.63c-0.307 0-0.555 0.03-0.745 0.092-0.19 0.06-0.336 0.15-0.438 0.26-0.103 0.113-0.172 0.25-0.208 0.415s-0.054 0.344-0.054 0.538c0 0.235 0.09 0.414 0.27 0.537s0.484 0.184 0.914 0.184h0.154c1.117 0 1.935 0.167 2.452 0.506 0.517 0.337 0.776 0.874 0.776 1.61 0 0.113-7e-3 0.233-0.024 0.36-0.015 0.13-0.033 0.264-0.054 0.408l-0.09 0.507c-0.195 1.054-0.62 1.824-1.276 2.31s-1.62 0.73-2.89 0.73h-3.83l0.4-2.287h3.8c0.336 0 0.6-0.04 0.79-0.115"/>
   <path transform="matrix(7.6345 0 0 7.6345 .4 1)" d="m2.053 6.802 0.16-0.955h1.537c0.108 0 0.196-0.01 0.264-0.03 0.07-0.02 0.124-0.046 0.165-0.078 0.04-0.033 0.07-0.07 0.09-0.116 0.02-0.045 0.035-0.092 0.043-0.142 0.012-0.07 0.02-0.136 0.02-0.196s-0.013-0.11-0.042-0.154c-0.027-0.042-0.076-0.075-0.143-0.1-0.068-0.023-0.163-0.035-0.286-0.035h-0.1c-0.253 0-0.47-0.023-0.647-0.068-0.178-0.045-0.318-0.118-0.42-0.217-0.104-0.1-0.172-0.228-0.204-0.385-0.015-0.073-0.022-0.153-0.022-0.24 0-0.095 0.01-0.2 0.03-0.315l0.033-0.2c0.04-0.215 0.103-0.4 0.19-0.56 0.09-0.157 0.204-0.286 0.346-0.388 0.142-0.1 0.312-0.177 0.51-0.226 0.196-0.05 0.422-0.075 0.68-0.075h1.49l-0.166 0.956h-1.478c-0.115 0-0.208 0.01-0.278 0.028s-0.126 0.045-0.165 0.08c-0.04 0.035-0.068 0.078-0.085 0.13-0.017 0.05-0.032 0.11-0.044 0.176-0.012 0.067-0.014 0.125-7e-3 0.175s0.027 0.09 0.06 0.124c0.034 0.034 0.083 0.06 0.15 0.076 0.065 0.017 0.15 0.026 0.258 0.026h0.104c0.252 0 0.467 0.023 0.645 0.068 0.176 0.044 0.317 0.117 0.42 0.216 0.105 0.1 0.173 0.228 0.205 0.385 0.016 0.073 0.024 0.155 0.024 0.245 0 0.096-0.01 0.2-0.03 0.315l-0.034 0.21c-0.038 0.218-0.102 0.407-0.19 0.567-0.09 0.16-0.205 0.292-0.348 0.395-0.142 0.103-0.312 0.18-0.51 0.23-0.197 0.05-0.423 0.075-0.678 0.075h-1.547zm3.543 0 0.766-4.476h1.775c0.228 0 0.428 0.023 0.6 0.07 0.173 0.045 0.313 0.12 0.42 0.225 0.11 0.106 0.184 0.24 0.224 0.403 0.02 0.082 0.03 0.172 0.028 0.27 0 0.103-0.01 0.214-0.03 0.333l-0.1 0.578c-0.074 0.44-0.253 0.762-0.536 0.97-0.282 0.207-0.678 0.31-1.186 0.314h-0.712l-0.225 1.313h-1.025zm1.411-2.27h0.71c0.104 0 0.19-0.01 0.255-0.028 0.067-0.02 0.12-0.046 0.162-0.083 0.04-0.035 0.073-0.082 0.094-0.138 0.02-0.056 0.037-0.122 0.05-0.197l0.072-0.418c8e-3 -0.05 0.012-0.094 0.012-0.13 0-0.026 0-0.047-3e-3 -0.063-8e-3 -0.05-0.028-0.09-0.06-0.117-0.033-0.028-0.078-0.048-0.135-0.06-0.058-0.01-0.13-0.016-0.214-0.016h-0.73l-0.21 1.251zm2.251 2.27 0.763-4.476h2.868l-0.163 0.955h-1.84l-0.124 0.725h1.7l-0.164 0.955h-1.698l-0.15 0.886h1.84l-0.162 0.955h-2.87zm3.542-1.19 0.36-2.097c0.023-0.144 0.073-0.286 0.15-0.428 0.075-0.14 0.18-0.27 0.317-0.382 0.136-0.113 0.306-0.205 0.51-0.275 0.202-0.07 0.442-0.105 0.718-0.105h1.284l-0.164 0.955h-1.172c-0.135 0-0.244 0.014-0.327 0.042s-0.148 0.066-0.195 0.114-0.08 0.103-0.1 0.165c-0.02 0.063-0.037 0.128-0.05 0.195l-0.267 1.555c-0.012 0.066-0.018 0.128-0.018 0.188s0.016 0.112 0.047 0.158c0.03 0.046 0.083 0.082 0.156 0.11 0.073 0.026 0.177 0.04 0.312 0.04h1.172l-0.164 0.956h-1.284c-0.276 0-0.503-0.035-0.68-0.105-0.18-0.07-0.316-0.162-0.413-0.276-0.097-0.11-0.16-0.238-0.187-0.38-0.014-0.075-0.022-0.15-0.024-0.225 0-0.068 5e-3 -0.136 0.017-0.203zm3.53-2.332 0.164-0.954h3.288l-0.163 0.955h-1.133l-0.602 3.522h-1.023l0.602-3.52h-1.133zm3.068 3.522 0.766-4.476h1.772c0.254 0 0.468 0.027 0.643 0.08 0.173 0.053 0.31 0.133 0.41 0.24 0.1 0.105 0.164 0.24 0.192 0.402 0.012 0.07 0.018 0.147 0.018 0.228 0 0.107-0.01 0.222-0.03 0.346l-0.1 0.58c-0.09 0.54-0.347 0.91-0.77 1.11l0.586 1.49h-1.103l-0.502-1.312h-0.647l-0.225 1.313h-1.01zm1.4-2.269h0.705c0.1 0 0.185-0.01 0.253-0.028 0.068-0.02 0.123-0.046 0.166-0.083 0.043-0.035 0.077-0.082 0.1-0.138s0.04-0.122 0.053-0.197l0.073-0.418c8e-3 -0.048 0.012-0.09 0.012-0.125 0-0.025-2e-3 -0.048-6e-3 -0.07-8e-3 -0.05-0.03-0.088-0.062-0.116-0.033-0.028-0.08-0.048-0.14-0.06-0.058-0.01-0.13-0.016-0.215-0.016h-0.723l-0.216 1.252zm2.604 0.981 0.545-3.188h1.023l-0.54 3.153c-5e-3 0.036-8e-3 0.07-8e-3 0.1 2e-3 0.045 0.01 0.087 0.02 0.125 0.025 0.063 0.065 0.115 0.12 0.156 0.053 0.042 0.123 0.072 0.206 0.09 0.084 0.02 0.18 0.03 0.286 0.03 0.11 0 0.21-0.01 0.304-0.03 0.094-0.022 0.176-0.054 0.247-0.098 0.07-0.044 0.13-0.1 0.174-0.165 0.044-0.066 0.075-0.144 0.09-0.234l0.537-3.127h1.023l-0.555 3.237c-0.028 0.166-0.09 0.33-0.183 0.495-0.094 0.163-0.222 0.31-0.384 0.44s-0.36 0.236-0.595 0.317c-0.234 0.08-0.507 0.122-0.817 0.122-0.263 0-0.497-0.033-0.7-0.098-0.203-0.066-0.37-0.16-0.5-0.28s-0.22-0.266-0.272-0.436c-0.03-0.1-0.045-0.208-0.045-0.324 0-0.092 8e-3 -0.187 0.022-0.286zm3.878 1.288 0.766-4.476h1.203l0.653 2.513 1.517-2.514h1.2l-0.764 4.476h-1.023l0.475-2.78-1.113 1.879h-0.948l-0.466-1.88-0.475 2.782h-1.025z"/>
  </g>
 </g>
</svg>
