<svg width="118.16pt" height="52.495pt" version="1.1" viewBox="0 0 118.16 52.495" xmlns="http://www.w3.org/2000/svg">
 <g transform="translate(-2.6711 -22.329)">
  <path d="m62.37 22.43c1.88-0.45 4.2 0.64 4.5 2.67 0.51 2.18-1.3 3.88-1.74 5.89-1.94 12.01-4 24.01-6.2 35.98-0.45 2.01 0.63 3.96 0.36 5.97-0.89 2.36-4.67 2.38-5.65 0.08-0.88-2.26 1.55-3.79 1.75-5.91 1.41-12.11 2.91-24.21 4.52-36.3 0.2-2.88-1.61-7.5 2.46-8.38z"/>
  <path d="m6.03 26.07c1.55-2.13 4.52-2.16 6.87-1.73 3.69 0.78 5.49 4.62 8.95 5.9 2.82 1.21 1.06 5.93-1.82 5.31-2.49 0.12-2.78-2.69-2.84-4.51-1.93-1.94-4.37-3.45-7.22-2.85 1.17 3.73 4.21 6.32 6.74 9.13 5.37 5.82 11.9 12.18 11.88 20.68-0.09 8.3-8.25 13.91-15.84 14.79-3.11 0.22-7.02 0.41-9.16-2.3-1.87-2.45-0.53-5.62 0.87-7.94 2.55-4.03 5.93-7.6 9.99-10.13 1.68-0.97 4.14-2 5.76-0.37 1.44 3.87-2.3 7.14-2.08 11.02 0.17 3.62-5.85 3.33-5.78-0.14 0.33-3.16 4.61-3.89 4.79-7.37-4.26 3.38-8.07 8.11-8.53 13.72 7.59 0.87 16.58-5.68 14.92-13.91-3.37-9.16-12.64-14.26-17.39-22.55-1.14-2.02-1.57-4.77-0.11-6.75z"/>
  <path d="m35.48 32.45c2.11-3.59 4.66-8.32 9.49-8.23 4.25-0.46 7.35 3.87 6.82 7.82-0.71 7.88-6.64 13.98-12.36 18.87 1.03 5.38 2.05 10.76 3.07 16.13 0.32 2.1 2.78 3.54 2.15 5.81-0.59 2.05-3.21 2.45-4.85 1.45-1.61-1.73-0.41-4.18-0.86-6.24-2.69-11.32-5.35-22.66-7.86-34.02-0.37-1.86-1.69-3.31-2.37-5.04-0.68-3.11 3.48-5.66 5.92-3.57 2.29 1.55 1.34 4.81 0.85 7.02m6.39-2.64c-2.51 2.04-3.98 5.19-4.75 8.28 0.17 3.2 1.06 6.29 1.67 9.41 3.84-4.39 7.67-9.54 7.83-15.61 0.26-2.48-3.05-3.49-4.75-2.08z"/>
  <path d="m75.4 26.37c2.53-2.63 7-2.83 9.87-0.64 3.28 2.18 4.12 6.4 7.21 8.8 2.05 1.94-0.55 4.46-2.52 5.03-2.5-0.88-3.25-3.27-2.41-5.65-1.36-2.56-3.81-6-7.17-4.49-3.42 2.64-4.27 7.24-4.91 11.26-0.91 8.26-0.32 17.25 4.42 24.35 1.66 2.28 4.08 4.96 7.22 4.34 1.93-0.75 2.15-2.96 2.68-4.68-2.51-2.37-0.42-7.25 3.14-5.57 3.42 1.72 0.3 5.3-0.29 7.79-0.61 2.78-2.5 5.7-5.6 5.95-4.8 0.79-8.92-2.73-11.36-6.5-5.05-7.91-6.05-17.69-5.41-26.87 0.49-4.67 1.59-9.76 5.13-13.12z"/>
  <path d="m107.89 27.86c3.18-2.65 8.48-2.04 10.65 1.61 3.15 5.15 3.17 12.52-0.7 17.31-2.73 3.35-7.32 3.36-11.06 4.85-2.89 1.11-4.86-3.6-2.38-5.11 1.57-1.58 3.52-0.03 5.07 0.69 3.05-0.66 6.27-2.26 7.2-5.49 0.93-3.32 1.04-7.93-2.03-10.18-2.5-1.22-4.66 1.33-6.05 3.08-4.55 6.49-7.07 14.46-7.16 22.38 0.13 4.04 0.97 8.85 4.68 11.16 2.35 0.88 3.7-1.47 4.73-3.12-0.85-2.03-0.72-5.41 2.19-5.43 2.46-0.47 3.58 2.32 3.15 4.32-3.15 2.1-3.98 6.88-8.14 7.52-3.93 0.78-7.24-2.46-8.73-5.77-2.78-6.31-2.2-13.51-0.9-20.1 1.5-6.55 3.96-13.48 9.48-17.72z"/>
 </g>
</svg>
