<svg width="1e3px" height="436.62px" enable-background="new 0 0 1000 436.615" space="preserve" version="1.1" viewBox="0 0 1e3 436.62" xmlns="http://www.w3.org/2000/svg">
 <link href="" rel="stylesheet" type="text/css"/>
 <style type="text/css"/>
 <g fill="#0554a1">
  <path d="m916.3 13.72c-0.063-0.093-0.154-0.202-0.248-0.295v0.031c0.062 0.078 0.155 0.171 0.248 0.264"/>
  <path d="m278.62 160.43c-17.544-19.938-52.725-29.243-110.72-29.243-109.6 0-136.41 47.896-142.65 76.411-3.986 18.243-1.993 33.361 5.937 44.907 9.184 13.271 26.419 21.939 51.194 25.638l75.619 11.464c12.162 1.93 25.021 4.479 28 8.833 0.576 0.821 1.131 2.218 0.432 5.423-3.615 16.476-24.445 19.887-41.313 19.887-20.604 0-33.115-2.753-38.293-8.506-2.752-3.039-3.676-7.354-3.02-13.887l0.596-5.629h-102.7l-0.637 4.355c-3.225 21.98 0.863 39.73 12.1 52.713 18.119 20.955 54.379 30.281 117.61 30.281 92.507 0 145.42-27.527 157.33-81.802 3.903-17.956 2.137-32.172-5.464-43.512-9.244-13.764-26.553-22.474-54.45-27.322-12.326-2.137-35.212-5.67-57.315-9.039l-42.072-6.573c-6.965-1.192-9.184-3.083-9.861-4.109-0.369-0.574-0.822-1.561-0.328-3.78 3.307-15.119 23.912-18.323 40.613-18.323 15.859 0 25.967 2.259 30.116 6.736 2.609 2.755 3.411 6.739 2.856 14.258l-0.391 5.464h98.639l0.574-4.478c2.713-21.2-1.355-37.635-12.407-50.167"/>
  <polyline points="589.85 138.22 510.18 138.22 509.32 142.24 480.89 272.19 409.44 140.88 408 138.22 310.87 138.22 310.01 142.24 260.17 369.89 258.81 376.09 344.77 376.09 345.67 372.07 374.47 240.55 449.17 373.46 450.65 376.09 544.12 376.09 545.02 372.07 594.82 144.42 596.18 138.22"/>
  <polyline points="858.35 138.22 753.82 138.22 752.26 140.23 684.51 229.09 656.12 141.75 654.97 138.22 552.75 138.22 555.95 145.42 625.22 299.8 609.9 369.89 608.54 376.09 697.12 376.09 698.03 372.07 713.48 301.65 850.79 146.71"/>
  <path d="m997.75 247.82c22.844-117.25-131.15-212.36-343.94-212.36-52.426 0-98.196 6.759-147.21 16.518 24.365-3.369 50.331-5.156 78.312-5.156 196.31 0 332.02 86.116 310.98 194.35-9.572 49.303-51.439 94.416-112.7 128.85h120.75c50.865-34.555 85.008-76.71 93.801-122.19"/>
  <path d="m991.34 127c-62.945-75.168-181.6-127-344.84-127-185.14 0-336.5 59.535-410.4 130.96l53.854 0.493c86.652-73.545 225.61-117.53 388.02-117.53 148.53 0 249.07 49.695 313.37 113.07"/>
  <path d="m857.32 132.52h2.672l-0.37-1.355c-0.781 0.452-1.52 0.904-2.302 1.355"/>
  <path d="m40.408 410.16v-0.822c0-2.3-2.218-3.573-6.389-3.573-3.719 0-5.813 1.109-5.813 2.999 0 1.726 0.884 2.259 5.978 3.697l7.561 2.138c3.76 1.067 6.081 2.136 7.621 3.449 1.993 1.809 3.226 4.521 3.226 7.314 0 3.533-1.849 6.779-5.032 8.547-3.287 1.849-7.293 2.71-13.334 2.71-9.264 0-15.078-2.012-17.357-6.08-1.109-1.974-1.357-2.958-1.542-6.368h11.546c-0.041 0.534-0.041 0.904-0.041 1.109 0 3.04 2.26 4.52 6.861 4.52 4.293 0 6.717-1.315 6.717-3.657 0-1.808-0.842-2.506-4.785-3.532l-7.375-1.974c-4.869-1.272-5.979-1.725-7.89-2.958-2.69-1.808-3.944-4.189-3.944-7.477 0-3.411 1.459-6.287 4.109-7.971 3.389-2.179 7.128-2.959 13.559-2.959 12.264 0 17.234 3.08 17.461 10.888"/>
  <path d="m81.988 435.55h-11.092v-35.251h18.571c6.244 0 9.326 0.615 12.018 2.342 2.814 1.808 4.437 5.055 4.437 8.751 0 4.603-2.219 8.218-5.875 9.779-2.855 1.149-5.69 1.602-11.73 1.602h-6.327m3.141-6.574c6.389 0 8.629-1.191 8.629-4.601 0-3.123-2.137-4.396-7.478-4.396h-4.294v8.997z"/>
  <path d="m160.32 431.44c-4.129 3.656-9.101 5.176-16.763 5.176-7.684 0-12.86-1.601-16.764-5.176-3.636-3.287-5.383-7.724-5.383-13.477 0-11.874 7.889-18.694 21.551-18.694 8.258 0 13.332 1.479 17.358 5.177 3.554 3.287 5.362 7.765 5.362 13.518s-1.848 10.353-5.361 13.476m-16.762-25.31c-6.41 0-10.271 4.438-10.271 11.833 0 7.313 3.861 11.833 10.271 11.833 6.409 0 10.313-4.52 10.313-11.833-1e-3 -7.395-3.904-11.833-10.313-11.833"/>
  <path d="m195.37 435.55h-11.442v-35.251h21.118c5.608 0 8.095 0.369 10.683 1.602 2.855 1.398 4.767 4.355 4.767 7.561 0 3.287-1.747 5.998-4.828 7.396-1.191 0.616-1.89 0.821-3.801 1.19 3.369 0.247 5.239 1.028 6.45 2.589 1.007 1.356 1.397 2.795 1.706 6.37 0.473 5.464 0.842 6.983 2.054 8.544h-12.388c-0.944-1.972-1.047-2.589-1.253-6.204-0.432-6.736-1.171-7.601-6.471-7.601h-6.595m5.814-6.533c5.115 0 7.149-1.192 7.149-4.191 0-3.039-2.034-4.19-7.149-4.19h-5.813v8.382h5.813z"/>
  <polyline points="260.25 435.55 248.8 435.55 248.8 407.53 235.4 407.53 235.4 400.3 273.6 400.3 273.6 407.53 260.25 407.53"/>
  <path d="m312.39 410.16v-0.822c0-2.3-2.219-3.573-6.41-3.573-3.697 0-5.793 1.109-5.793 2.999 0 1.726 0.904 2.259 5.958 3.697l7.601 2.138c3.739 1.067 6.081 2.136 7.602 3.449 2.013 1.809 3.205 4.521 3.205 7.314 0 3.533-1.85 6.779-5.014 8.547-3.287 1.849-7.313 2.71-13.353 2.71-9.245 0-15.038-2.012-17.339-6.08-1.109-1.974-1.355-2.958-1.52-6.368h11.545c-0.082 0.534-0.082 0.904-0.082 1.109 0 3.04 2.301 4.52 6.902 4.52 4.273 0 6.697-1.315 6.697-3.657 0-1.808-0.821-2.506-4.807-3.532l-7.355-1.974c-4.848-1.272-5.957-1.725-7.888-2.958-2.712-1.808-3.944-4.189-3.944-7.477 0-3.411 1.479-6.287 4.108-7.971 3.369-2.179 7.149-2.959 13.559-2.959 12.243 0 17.257 3.08 17.462 10.888"/>
  <path d="m384.54 400.3v35.251h-15.12l-12.819-18.94c-0.287-0.37-0.739-1.15-1.438-2.342-0.699-1.149-0.986-1.685-1.85-3.04 0.082 2.793 0.164 4.438 0.164 7.848v16.475h-10.6v-35.251h15.531l10.969 16.928 2.096 3.081c1.315 2.095 2.014 3.123 2.055 3.204 0.164 0.247 0.41 0.617 0.74 1.15l-0.124-1.354c-0.082-2.137-0.124-3.411-0.124-3.904-0.082-1.19-0.082-2.753-0.082-4.478v-14.627"/>
  <polyline points="434.91 407.53 415.31 407.53 415.31 414.02 433.64 414.02 433.64 421.13 415.4 421.13 415.4 428.32 435.12 428.32 435.12 435.55 404.26 435.55 404.26 400.3 434.91 400.3"/>
  <polyline points="474.85 435.55 463.42 435.55 463.42 407.53 450.03 407.53 450.03 400.3 488.24 400.3 488.24 407.53 474.85 407.53"/>
  <path d="m573.5 400.3v35.251h-15.08l-12.858-18.94c-0.288-0.37-0.739-1.15-1.438-2.342-0.698-1.149-0.987-1.685-1.848-3.04 0.121 2.793 0.163 4.438 0.163 7.848v16.475h-10.601v-35.251h15.532l11.01 16.928 2.055 3.081c1.314 2.095 2.013 3.123 2.054 3.204 0.165 0.247 0.411 0.617 0.739 1.15l-0.123-1.354c-0.081-2.137-0.122-3.411-0.122-3.904-0.083-1.19-0.083-2.753-0.083-4.478v-14.627"/>
  <polyline points="623.87 407.53 604.27 407.53 604.27 414.02 622.59 414.02 622.59 421.13 604.35 421.13 604.35 428.32 624.07 428.32 624.07 435.55 593.22 435.55 593.22 400.3 623.87 400.3"/>
  <path d="m694.33 400.3-8.341 35.251h-13.229l-3.123-10.722c-0.574-2.056-1.109-4.479-1.931-8.465-0.492-2.506-0.616-3.204-0.986-5.383-0.328 2.383-0.451 3.287-0.821 5.137-0.575 3.081-1.439 6.655-2.055 8.751l-3.04 10.682h-13.229l-8.423-35.251h11.462l2.302 10.971 1.026 5.545 0.822 4.848c0.329 1.933 0.412 3 0.657 5.713 0.247-2.795 0.411-3.863 0.698-5.999 0.535-3.082 0.863-4.438 2.26-9.737l3-11.34h11.669l2.793 10.682 1.192 4.685c1.602 6.08 1.931 7.724 2.506 11.71 0.124-3.041 0.246-4.191 0.534-6.615 0.411-3.493 0.903-6.204 1.808-10.478l2.138-9.983"/>
  <polyline points="779.83 400.3 762.7 423.22 762.7 435.55 751.28 435.55 751.28 423.22 734.14 400.3 748.52 400.3 757.89 413.85 767.26 400.3"/>
  <path d="m831.15 431.44c-4.151 3.656-9.121 5.176-16.805 5.176-7.643 0-12.859-1.601-16.764-5.176-3.574-3.287-5.34-7.724-5.34-13.477 0-11.874 7.888-18.694 21.529-18.694 8.258 0 13.352 1.479 17.379 5.177 3.532 3.287 5.34 7.765 5.34 13.518s-1.846 10.353-5.339 13.476m-16.804-25.31c-6.369 0-10.272 4.438-10.272 11.833 0 7.313 3.903 11.833 10.272 11.833 6.409 0 10.354-4.52 10.354-11.833 0-7.395-3.945-11.833-10.354-11.833"/>
  <path d="m866.15 435.55h-11.424v-35.251h21.119c5.63 0 8.094 0.369 10.683 1.602 2.876 1.398 4.767 4.355 4.767 7.561 0 3.287-1.725 5.998-4.808 7.396-1.232 0.616-1.931 0.821-3.821 1.19 3.41 0.247 5.259 1.028 6.451 2.589 1.027 1.356 1.396 2.795 1.684 6.37 0.494 5.464 0.864 6.983 2.096 8.544h-12.408c-0.945-1.972-1.026-2.589-1.273-6.204-0.411-6.736-1.15-7.601-6.449-7.601h-6.615m5.832-6.533c5.136 0 7.148-1.192 7.148-4.191 0-3.039-2.013-4.19-7.148-4.19h-5.834v8.382h5.834z"/>
  <path d="m922.4 435.55h-11.463v-35.251h11.463zm31.022 0h-14.75l-15.941-19.228 14.626-16.023h14.546l-15.695 15.284z"/>
 </g>
 <g fill="#0554a1">
  <path d="m20.913 346.14c15.983 18.489 49.858 26.706 109.86 26.706 87.021 0 136.58-24.775 147.31-73.75 3.328-15.079 2.013-26.747-3.944-35.623-7.478-11.175-23.102-18.692-47.691-22.966-12.224-2.096-36.074-5.753-57.131-8.998l-42.196-6.615c-8.319-1.397-13.764-4.15-16.639-8.424-2.24-3.287-2.836-7.23-1.85-11.75 2.629-11.997 13.538-26.336 50.598-26.336 19.599 0 31.186 3.082 37.594 9.984 4.459 4.766 5.65 10.682 5.752 16.475h78.712c1.274-15.94-2.095-28.308-10.354-37.675-15.458-17.545-48.204-25.752-103.03-25.752-102.41 0-127.08 42.844-132.67 68.358-3.411 15.612-1.973 27.692 4.396 36.896 7.497 10.888 22.392 18.078 44.291 21.365 0 0 75.619 11.503 75.639 11.503 18.387 2.877 29.973 5.917 34.883 13.106 2.507 3.656 3.144 8.053 1.973 13.395-2.795 12.736-13.949 27.98-51.297 27.98-24.302 0-38.477-3.698-45.914-11.915-4.52-5.055-5.711-10.971-5.813-16.146h-82.688c-1.725 17.009 1.604 30.199 10.21 40.182"/>
  <polyline points="367.16 226.09 368.06 222.06 375.83 222.06 377.27 224.69 456.64 365.86 535.9 365.86 583.48 148.44 518.4 148.44 488.12 286.94 487.21 290.96 479.41 290.96 477.97 288.29 401.92 148.44 319.09 148.44 271.51 365.86 336.55 365.86"/>
  <polyline points="635.95 298.69 635.58 300.33 621.24 365.86 688.91 365.86 703.74 298.15 704.03 296.84 704.93 295.85 835.59 148.44 758.88 148.44 686.73 243.06 680.81 250.78 677.77 241.5 647.53 148.44 568.52 148.44 635.25 297.17"/>
  <path d="m875.52 135.77c26.091 31.647 36.033 68.174 28.761 105.64-8.217 42.153-38.867 82.789-87.308 116.69h82.05c49.057-33.938 79.132-73.257 87.021-113.89 6.574-33.772-2.425-65.861-26.788-95.361-47.045-57.12-144.34-95.064-260.24-103.16 78.145 15.386 140.8 46.735 176.51 90.081"/>
  <path d="m279.69 122.87c51.729-42.915 120.75-75.25 200.34-95.033-89.979 18.304-169.4 51.461-223.69 94.827"/>
 </g>
</svg>
