<svg width="800" height="156.48" version="1.1" viewBox="0 0 800 156.48" xmlns="http://www.w3.org/2000/svg" xmlns:xlink="http://www.w3.org/1999/xlink">
 <defs>
  <linearGradient id="linearGradient-1" x1=".5" x2=".5" y2="1">
   <stop stop-color="#E5CC96" offset="0"/>
   <stop stop-color="#7C5E2D" offset="1"/>
  </linearGradient>
  <linearGradient id="linearGradient835" x1="28.589" x2="28.589" y1="5.1937" y2="7.9911" gradientTransform="matrix(18.262 0 0 19.885 -8.1487e-5 -2.4241)" gradientUnits="userSpaceOnUse" xlink:href="#linearGradient-1"/>
  <linearGradient id="linearGradient837" x1="32.488" x2="32.488" y1="4.9927" y2="7.5886" gradientTransform="scale(.91582 1.0919)" gradientUnits="userSpaceOnUse" xlink:href="#linearGradient-1"/>
  <linearGradient id="linearGradient839" x1="33.817" x2="33.817" y1="5.153" y2="7.8324" gradientTransform="matrix(18.012 0 0 20.16 -8.1487e-5 -2.4241)" gradientUnits="userSpaceOnUse" xlink:href="#linearGradient-1"/>
  <linearGradient id="linearGradient841" x1="36.282" x2="36.282" y1="5.2134" y2="7.9241" gradientTransform="scale(.9563 1.0457)" gradientUnits="userSpaceOnUse" xlink:href="#linearGradient-1"/>
  <linearGradient id="linearGradient843" x1="38.886" x2="38.886" y1="5.2131" y2="7.9237" gradientTransform="scale(.95625 1.0457)" gradientUnits="userSpaceOnUse" xlink:href="#linearGradient-1"/>
  <linearGradient id="linearGradient845" x1="47.775" x2="47.775" y1="4.489" y2="6.8231" gradientTransform="scale(.82342 1.2144)" gradientUnits="userSpaceOnUse" xlink:href="#linearGradient-1"/>
  <linearGradient id="linearGradient847" x1="59.808" x2="59.808" y1="3.7183" y2="5.6517" gradientTransform="scale(.68206 1.4662)" gradientUnits="userSpaceOnUse" xlink:href="#linearGradient-1"/>
 </defs>
 <path d="m775.8 2.1127-8.1225 47.238h-0.27898l-16.085-47.238h-26.254l-15.154 88.299h24.21l8.2801-48.262h0.22791l17.23 48.262h24.993l15.156-88.299zm-120.07 56.838 12.723-27.302h0.22563l2.7746 27.302zm5.3212-56.838-45.786 88.299h25.728l5.9299-12.619h26.482l1.3 12.619h26.611l-15.202-88.299zm-97.096 51.948h-0.22314l-2.9856-51.948h-36.497l-15.161 88.299h24.205l9.728-56.658h0.21591l4.7561 56.658h19.158l24.154-56.658h0.29347l-9.7402 56.658h24.217l15.151-88.299h-36.453zm-63.561-9.6795c-2.0446-1.9645-4.4287-3.541-7.1305-4.71-2.743-1.2102-5.6607-2.2362-8.7434-3.0826-5.8208-1.5668-10.965-3.0972-15.469-4.5815-2.1028-0.81006-3.7569-1.7559-4.9816-2.8449-1.3145-0.96771-1.9209-2.1901-1.8142-3.6865 0.20619-1.2393 0.73252-2.2677 1.5596-3.0778 0.76645-0.75428 1.6491-1.3461 2.6291-1.7487 2.1391-0.72275 4.1594-1.0914 6.0439-1.0914 2.7891 0 5.1951 0.72519 7.2178 2.1586 2.0785 1.4043 2.6873 3.7423 1.8142 7.0238h24.28c1.2127-10.604-1.0672-18.132-6.8152-22.594-6.0124-4.1764-13.662-6.2307-22.98-6.1434-8.884 0-16.973 2.2725-24.29 6.8176-7.618 4.6736-12.396 12.124-14.307 22.354-0.74948 4.3874-0.44629 7.9697 0.9168 10.749 1.2539 2.9807 3.1408 5.3697 5.634 7.1911 2.4836 1.8117 5.3406 3.2985 8.5857 4.4675 3.0947 1.169 6.2889 2.2337 9.5655 3.199 6.9777 1.9742 11.68 3.5822 14.103 4.8386 2.2701 1.317 3.1796 3.0899 2.7261 5.3066-0.61609 3.1457-2.2847 5.2994-4.9962 6.4708-2.7455 1.1205-5.3091 1.6468-7.681 1.5668-2.5903 0-5.0471-0.44626-7.373-1.3339-2.4423-0.84644-3.9945-2.5369-4.6445-5.0859-0.33711-1.6444-0.29823-3.5822 0.0819-5.8014h-25.556c-0.9774 7.0092-0.35655 12.566 1.8433 16.677 2.127 4.2734 5.0811 7.4894 8.8428 9.6698 3.8029 2.1367 7.6859 3.5604 11.627 4.2856 3.9048 0.76398 7.0796 1.1496 9.5656 1.1496 9.9682 0.08004 19.296-2.1513 27.976-6.7061 8.7749-4.5111 14.261-12.418 16.427-23.734 0.68888-4.0261 0.64505-7.538-0.1334-10.514-0.93337-2.8158-2.4347-5.2096-4.5253-7.1887zm-144.49-19.686h23.32l-11.285 65.717h25.624l11.268-65.717h23.341l3.8781-22.582h-72.256zm-39.349 14.496c-2.7018 1.089-5.4376 1.5934-8.2316 1.511h-14.351l3.0147-17.576h12.835c5.1563 0 8.6342 0.747 10.448 2.2313 1.5668 1.494 2.1004 3.672 1.608 6.5314-0.72757 3.8296-2.5054 6.2525-5.3236 7.3027zm23.577 36.358c0.20618-1.6492 0.31538-3.0001 0.35654-4.0455 0.90231-11.474-2.0421-18.823-8.8646-22.046 4.7246-1.8942 8.5202-4.8458 11.402-8.8695 2.7188-4.1522 4.4674-8.5542 5.2654-13.233 1.2854-8.4111-0.3541-14.729-4.938-18.964-4.6445-4.1837-10.795-6.2792-18.471-6.2792h-49.911l-15.161 88.299h25.636l5.3018-30.867h14.562c2.7018 0 4.7731 0.47294 6.187 1.3922 1.4067 0.97256 2.3574 2.2822 2.8376 3.9339 0.53357 1.6614 0.78816 3.4755 0.76891 5.4473 0 2.1391-0.15245 4.3026-0.44134 6.4757-0.56273 4.6009-0.65973 9.1314-0.29346 13.618h25.667c-0.68888-2.3793-0.85143-5.5589-0.47069-9.5461 0.24983-1.8894 0.43182-3.6574 0.5675-5.3163zm-114.17-17.356c-1.6129 3.1869-3.444 5.6898-5.5031 7.5089-1.9403 1.7365-3.9388 2.9856-6.0051 3.7496-2.1392 0.73003-4.0236 1.0987-5.6583 1.0987-3.5119 0.07756-6.7667-1.5401-9.7668-4.8483-1.3945-1.819-2.3817-4.322-2.925-7.5089-0.64505-3.1529-0.55529-7.1256 0.28127-11.93 0.85125-4.9695 2.1367-9.0611 3.8781-12.296 0.88535-1.6589 1.7947-3.0875 2.7261-4.305 0.88764-1.1666 1.7947-2.1731 2.7479-3.0244 2.0106-1.8142 4.0115-3.0826 6.0051-3.8078 1.9597-0.56511 3.752-0.85614 5.3915-0.85614 3.5895-0.11396 6.9316 1.4382 10.024 4.6639 1.4601 1.6614 2.4447 4.1037 2.9613 7.3294 0.46573 3.2354 0.27898 7.327-0.56997 12.296-0.82704 4.8046-2.0227 8.7773-3.5871 11.93zm-5.0593-58.191c-12.782 0.15522-23.666 4.4869-32.638 12.976-9.2236 8.4208-15.061 19.517-17.509 33.285-2.2677 13.686-0.23527 24.738 6.0997 33.159 6.044 8.5736 15.432 12.937 28.17 13.102 12.934-0.16484 23.914-4.5281 32.939-13.102 9.0441-8.4208 14.77-19.473 17.198-33.159 2.2871-13.769 0.36379-24.865-5.7868-33.285-6.0997-8.4887-15.595-12.82-28.474-12.976zm-81.453 38.332c-1.1181 1.3315-2.4496 2.3259-3.9703 2.9638-3.0923 1.0138-6.4975 1.477-10.216 1.4019h-10.579l3.0947-18.006h12.226c3.4876-0.08247 6.4441 0.32256 8.8549 1.2175 2.3453 0.9192 3.2233 3.3639 2.6194 7.327-0.3638 2.144-1.0453 3.8417-2.03 5.0956zm14.654-33.382c-3.7084-1.8942-8.479-2.8401-14.283-2.8401h-43.787l-15.161 88.299h25.626l4.5766-26.693h15.641c10.038 0 18.605-2.6 25.689-7.7926 7.0796-5.1975 11.562-13.068 13.456-23.618 1.2418-6.7667 0.0752-13.4-3.4949-19.929-1.8408-3.0584-4.596-5.5322-8.2631-7.4264zm-82.03 39.429c-2.0397-1.9645-4.4287-3.541-7.1305-4.71-2.7479-1.2102-5.6729-2.2362-8.7555-3.0826-5.816-1.5668-10.963-3.0972-15.459-4.5815-2.1028-0.81006-3.7617-1.7559-4.9816-2.8449-1.3121-0.96771-1.9233-2.1901-1.8239-3.6865 0.22071-1.2393 0.73488-2.2677 1.5619-3.0778 0.7664-0.75428 1.6468-1.3461 2.6266-1.7487 2.1464-0.72275 4.1643-1.0914 6.0585-1.0914 2.7746 0 5.1781 0.72519 7.2178 2.1586 2.0712 1.4043 2.6824 3.7423 1.8117 7.0238h24.278c1.2127-10.604-1.0623-18.132-6.8273-22.594-5.9954-4.1764-13.655-6.2307-22.97-6.1434-8.8816 0-16.97 2.2725-24.283 6.8176-7.6325 4.6736-12.408 12.124-14.322 22.354-0.74215 4.3874-0.44141 7.9697 0.92648 10.749 1.2515 2.9807 3.1311 5.3697 5.6438 7.1911 2.4641 1.8117 5.3285 3.2985 8.5833 4.4675 3.0802 1.169 6.2719 2.2337 9.5583 3.199 6.9874 1.9742 11.68 3.5822 14.094 4.8386 2.2822 1.317 3.1869 3.0899 2.7334 5.3066-0.62331 3.1457-2.2895 5.2994-5.0011 6.4708-2.7358 1.1205-5.2969 1.6468-7.6859 1.5668-2.5903 0-5.0447-0.44626-7.3633-1.3339-2.4472-0.84644-3.997-2.5369-4.6494-5.0859-0.31772-1.6444-0.30074-3.5822 0.08004-5.8014h-25.544c-0.97014 7.0092-0.36623 12.566 1.8311 16.677 2.1367 4.2734 5.0908 7.4894 8.8525 9.6698 3.8151 2.1367 7.6956 3.5604 11.625 4.2856 3.8999 0.76398 7.0893 1.1496 9.5607 1.1496 9.9681 0.08004 19.294-2.1513 27.976-6.7061 8.7894-4.5111 14.261-12.418 16.437-23.734 0.68637-4.0261 0.65242-7.538-0.13824-10.514-0.92163-2.8158-2.435-5.2096-4.5208-7.1887z" fill-rule="evenodd"/>
 <g fill-rule="evenodd">
  <path d="m540.07 117.71c-1.1739-1.9548-3.4488-3.8902-5.4279-4.9501-2.0033-1.0647-4.1595-1.5934-6.5969-1.5934-3.1142 0-6.1507 0.82704-9.2624 2.5321-3.2354 1.7754-5.799 4.0285-7.8338 6.888-2.0252 2.8401-3.3154 6.0342-3.9606 9.7693-1.3242 7.7296 1.0889 10.897 1.8772 11.935 1.3654 1.7972 3.6865 3.866 9.5049 3.866 2.8449 0 5.3406-0.42686 7.6035-1.4285 4.5087-1.9985 7.732-4.8264 9.5098-6.3423l5.9784 7.9381c-4.288 3.8175-8.1734 6.4635-11.656 7.9381-3.4804 1.477-7.2881 2.2143-11.435 2.2143-7.6447 0-13.441-2.6097-17.416-7.8266-3.9678-5.2218-5.2533-11.921-3.8587-20.077 0.90956-5.2824 2.8255-9.9754 5.7432-14.079 2.9225-4.1085 6.66-7.4046 11.22-9.9027 4.5669-2.4932 9.2236-3.7423 13.987-3.7423 4.0576 0 7.8023 0.92163 11.244 2.7649 3.4343 1.8457 6.2186 4.4748 8.3504 7.8751z" fill="url(#linearGradient835)"/>
  <polygon transform="matrix(19.056 0 0 19.056 -8.1487e-5 -2.4241)" points="29.285 7.0431 29.072 8.2862 28.564 8.2862 29.05 5.4516 29.558 5.4516 29.374 6.5209 30.252 6.5209 30.436 5.4516 30.942 5.4516 30.455 8.2862 29.949 8.2862 30.163 7.0431" fill="url(#linearGradient837)"/>
  <path d="m616.96 115.78-9.9002 18.547h12.466zm-3.3834-14.319h9.6771l10.002 54.017h-9.9124l-2.0082-11.127h-19.507l-5.9882 11.127h-10.846z" fill="url(#linearGradient839)"/>
  <polygon transform="matrix(19.056 0 0 19.056 -8.1487e-5 -2.4241)" points="33.4 8.2862 33.887 5.4516 34.357 5.4516 35.152 7.317 35.482 5.4516 35.993 5.4516 35.506 8.2862 35.025 8.2862 34.23 6.4266 33.911 8.2862" fill="url(#linearGradient841)"/>
  <polygon transform="matrix(19.056 0 0 19.056 -8.1487e-5 -2.4241)" points="35.889 8.2862 36.375 5.4516 36.846 5.4516 37.641 7.317 37.971 5.4516 38.481 5.4516 37.995 8.2862 37.504 8.2862 36.709 6.4266 36.399 8.2862" fill="url(#linearGradient843)"/>
  <polygon transform="matrix(19.056 0 0 19.056 -8.1487e-5 -2.4241)" points="39.904 7.7562 39.814 8.2862 38.378 8.2862 38.864 5.4516 40.3 5.4516 40.209 5.9795 39.271 5.9795 39.164 6.5968 40.102 6.5968 40.013 7.115 39.075 7.115 38.966 7.7562" fill="url(#linearGradient845)"/>
  <polygon transform="matrix(19.056 0 0 19.056 -8.1487e-5 -2.4241)" points="41.452 7.7715 41.364 8.2862 40.134 8.2862 40.62 5.4516 41.121 5.4516 40.742 7.7715" fill="url(#linearGradient847)"/>
 </g>
</svg>
