<svg width="951.33" height="369.64" version="1.1" xmlns="http://www.w3.org/2000/svg">
 <defs>
  <clipPath id="clipPath20">
   <path d="m0 790.8v-790.8h2087.7v790.8z"/>
  </clipPath>
 </defs>
 <g transform="translate(-6.818 -678.59)">
  <g transform="matrix(4.6742 0 0 -4.6742 6.818 1048.2)">
   <g transform="scale(.1)">
    <g clip-path="url(#clipPath20)" fill="#100f0d">
     <path d="m902.16 192c44.715 0 67.594-24.461 67.594-24.461l-12.887-19.461s-21.57 20.25-53.652 20.25c-41.559 0-68.649-31.558-68.649-71.012 0-39.715 27.614-73.379 68.907-73.379 34.98 0 57.339 24.195 57.339 24.195l13.938-18.676s-25.512-29.457-72.062-29.457c-55.762 0-94.95 42.609-94.95 97.051 0 53.918 40.504 94.949 94.422 94.949"/>
     <path d="m1111.8 23.938c37.88 0 68.39 31.559 68.39 73.379 0 40.5-30.51 71.012-68.39 71.012-37.87 0-68.64-30.512-68.64-71.012 0-41.82 30.77-73.379 68.64-73.379zm0 168.06c53.66 0 95.22-41.293 95.22-94.684 0-54.707-41.56-97.316-95.22-97.316-53.65 0-95.47 42.609-95.47 97.316 0 53.391 41.82 94.684 95.47 94.684"/>
     <path d="m1273.8 188.84h27.36l42.6-100.47c4.21-10.254 9.21-24.984 9.21-24.984h0.53s4.99 14.73 9.2 24.984l42.61 100.47h27.35l14.99-185.69h-25.77l-9.21 117.04c-0.79 11.313-0.26 27.356-0.26 27.356h-0.53s-5.52-17.098-9.99-27.356l-37.08-83.636h-23.15l-36.82 83.636c-4.21 10-10 27.883-10 27.883h-0.52s0.26-16.57-0.53-27.883l-8.94-117.04h-26.04l14.99 185.69"/>
     <path d="m1517.4 188.84h107.84v-22.621h-81.8v-58.125h66.55v-22.618h-66.55v-59.707h86.27v-22.621h-112.31v185.69"/>
     <path d="m1758 25.773c41.82 0 69.17 24.727 69.17 70.488 0 45.5-27.62 69.961-69.17 69.961h-33.67v-140.45zm-59.7 163.07h61.54c56.81 0 94.16-33.93 94.16-92.582 0-58.914-37.35-93.109-94.16-93.109h-61.54v185.69"/>
     <path d="m1947.2 81.797-62.33 107.05h29.45l34.46-61.02c5.79-10.258 11.31-23.406 11.31-23.406h0.53s5.52 12.887 11.31 23.406l33.92 61.02h29.46l-62.07-107.05v-78.645h-26.04v78.645"/>
     <path d="m876.57 461.43 60.133 119.13 60.117-119.13zm-83.25-164.95 38.18 75.843h210.31l38.28-75.843h103.09l-246.48 488.28-245.13-488.28h101.75"/>
     <path d="m778.49 782.53h-386.81v-89.136h144.03v-396.92h98.773v396.92h144.01v89.136"/>
     <path d="m1376.8 568.91h-71.9v124.48h71.9c53.02 0 82.22-21.411 82.22-61.997 0-40.265-30.74-62.484-82.22-62.484zm181.68 64.996c0 42.781-15.48 79.528-44.79 106.28-30.34 27.707-73.4 42.343-124.5 42.343h-183.06v-486.06h98.77v177.23h70.39l102.1-177.23h113.28l-115.5 201.1c72.68 34.043 83.31 100.33 83.31 136.34"/>
     <path d="m2034.9 782.53h-401.61v-89.121h229.65l-249.4-396.94h416.24v89.14h-244.28l249.4 396.92"/>
     <path d="m217.48 584.28c-79.707 18.895-108 31.825-108 68.555 0 30.594 28.304 50.098 70.429 50.098 64.36 0 121.99-44.442 137.53-57.633l41.273 83.711c-51.254 41.023-110.02 61.793-177.44 61.793-99.594 0-169.16-59.664-169.16-144.73 0-93 59.957-124.97 163.53-149.98 86.609-19.988 101.86-37.211 101.86-65.856 0-33.929-30.316-54.152-77.23-54.152-57.926 0-105.29 22.129-159.72 72.836l-40.543-86.832c56.453-48.465 125.25-73.871 198.24-73.871 107.3 0 176.63 57.797 176.63 150.16 0 76.035-45.598 118.71-157.39 145.9"/>
    </g>
   </g>
  </g>
 </g>
</svg>
