<svg width="973.25" height="204.63" version="1.1" xmlns="http://www.w3.org/2000/svg">
 <defs>
  <clipPath id="clipPath20">
   <path d="m0 0h4791.8v988h-4791.8z"/>
  </clipPath>
 </defs>
 <g transform="translate(-4.5447 -842.17)">
  <g transform="matrix(2.0712 0 0 -2.0712 4.5447 1046.8)">
   <g transform="scale(.1)">
    <g clip-path="url(#clipPath20)" fill="#100f0d">
     <path d="m4560.6 42.941v271.71h-43.41v-309.39h181.87v37.684zm-289.35-3.082c-63.12 0-114.4 52.605-114.4 122.27 0 67.508 51.28 118.35 114.4 118.35 63.1 0 113.93-50.843 113.93-118.35 0-69.664-50.83-122.27-113.93-122.27zm0 280.06c-89.43 0-159.09-68.797-159.09-157.79 0-91.141 69.66-162.13 159.09-162.13 89.36 0 158.62 70.988 158.62 162.13 0 88.992-69.26 157.79-158.62 157.79zm-307.32-206.41c0-17.094 3.06-44.711 3.06-44.711h-0.87s-14.48 28.051-25.85 44.711l-137.64 201.14h-42.95v-309.39h43.4v200.72c0 17.523-3.04 45.148-3.04 45.148h0.84s14.47-28.062 25.86-45.148l138.05-200.72h42.52v309.39h-43.38zm-104.83 265.04c18.85 0 25.86-29.801 55.21-29.801 29.82 0 44.74 19.281 44.74 55.664h-30.7c0-12.711-3.93-28.488-17.08-28.488-18.84 0-25.87 29.801-55.24 29.801-29.8 0-44.69-18.848-44.69-55.664h30.68c0 13.144 3.93 28.488 17.08 28.488zm-373.81-248.39 34.61 98.168c5.24 15.782 12.26 43.832 12.26 43.832h0.89s6.58-28.05 11.83-43.832l34.17-98.168zm24.55 184.5-111.35-309.39h44.7l30.69 88.965h116.56l31.14-88.965h45.14l-111.35 309.39zm-267.33-157.34h-62.68v119.65h63.13c36.81 0 59.59-21.914 59.59-59.164s-22.78-60.485-60.04-60.485zm7.03 157.34h-113.1v-309.39h43.39v114.39h69.71c56.54 0 97.28 39.441 97.28 98.156 0 58.726-40.74 96.851-97.28 96.851zm-375.67-80.195c0 24.555 23.23 45.137 56.1 45.137 39.45 0 67.94-26.723 67.94-26.723l19.73 35.93s-30.24 31.117-87.67 31.117c-58.29 0-99.94-38.137-99.94-86.34 0-95.098 149.89-80.633 149.89-147.68 0-29.367-24.53-45.59-53.43-45.59-46.05 0-78.92 33.309-78.92 33.309l-24.51-32.875s36.82-40.738 102.52-40.738c61.37 0 98.19 39.438 98.19 87.207 0 100.35-149.9 83.27-149.9 147.25zm-285.38-92.027h110.91v37.687h-110.91v96.848h136.3v37.687h-179.69v-309.39h187.17v37.684h-143.78v99.489"/>
     <path d="m2122.3 980.17h265.9v-27.809h-236.03v-199.25h193.67v-27.754h-193.67v-203.39h249.19v-27.778h-279.06v485.98"/>
     <path d="m2487.9 980.17h27.76l277.03-381.17c15.96-22.203 39.54-61.074 39.54-61.074h1.42s-3.49 36.781-3.49 61.074v381.17h29.83v-485.98h-27.76l-276.98 381.15c-15.93 22.191-39.59 61.062-39.59 61.062h-1.37s3.46-36.793 3.46-61.062v-381.15h-29.85v485.98"/>
     <path d="m3190.2 988.46c115.21 0 173.53-61.066 173.53-61.066l-18.02-22.227s-57.63 54.832-154.82 54.832c-119.41 0-210.35-93.703-210.35-219.35 0-126.39 90.23-226.32 212.41-226.32 104.15 0 164.57 65.926 164.57 65.926l18.73-20.801s-65.27-73.586-183.3-73.586c-141.59 0-243.65 113.84-243.65 254.78 0 140.92 104.13 247.81 240.9 247.81"/>
     <path d="m3669.2 514.33c118.73 0 214.52 98.566 214.52 226.32 0 124.24-95.79 219.35-214.52 219.35-118.72 0-214.51-95.105-214.51-219.35 0-127.75 95.79-226.32 214.51-226.32zm0 474.13c135.4 0 245.75-108.29 245.75-247.81 0-143.03-110.35-254.78-245.75-254.78-135.36 0-245.74 111.75-245.74 254.78 0 139.52 110.38 247.81 245.74 247.81"/>
     <path d="m4166.9 737.18c63.83 0 104.14 45.8 104.14 111.78 0 43.015-21.51 77.707-56.93 93.668-13.9 6.265-29.17 9.726-68.04 9.726h-111.1v-215.18zm-161.76 242.99h142.33c45.11 0 68.01-4.895 87.48-14.621 40.26-20.106 67.29-61.067 67.29-116.58 0-69.489-40.23-121.55-97.16-134.01v-1.371s4.81-5.559 11.11-17.387l108.98-202.01h-35.39l-115.23 215.2h-139.58v-215.2h-29.83v485.98"/>
     <path d="m4417.5 980.17h265.88v-27.809h-236.08v-199.25h193.71v-27.754h-193.71v-203.39h249.26v-27.778h-279.06v485.98"/>
     <path d="m876.57 659.09 60.133 119.13 60.117-119.13zm-83.25-164.95 38.18 75.844h210.31l38.28-75.844h103.09l-246.48 488.28-245.13-488.28h101.75"/>
     <path d="m778.49 980.19h-386.81v-89.136h144.03v-396.92h98.773v396.92h144.01v89.136"/>
     <path d="m1376.8 766.57h-71.9v124.48h71.9c53.02 0 82.22-21.41 82.22-61.996 0-40.266-30.74-62.485-82.22-62.485zm181.68 64.996c0 42.782-15.48 79.528-44.79 106.28-30.34 27.703-73.4 42.343-124.5 42.343h-183.06v-486.06h98.77v177.23h70.39l102.1-177.23h113.28l-115.5 201.1c72.68 34.043 83.31 100.33 83.31 136.34"/>
     <path d="m2034.9 980.19h-401.61v-89.121h229.65l-249.4-396.94h416.24v89.14h-244.28l249.4 396.92"/>
     <path d="m217.48 781.94c-79.707 18.894-108 31.824-108 68.554 0 30.594 28.304 50.098 70.429 50.098 64.36 0 121.99-44.442 137.53-57.633l41.273 83.711c-51.254 41.023-110.02 61.793-177.44 61.793-99.594 0-169.16-59.664-169.16-144.73 0-93 59.957-124.97 163.53-149.98 86.609-19.988 101.86-37.211 101.86-65.855 0-33.93-30.316-54.153-77.23-54.153-57.926 0-105.29 22.125-159.72 72.836l-40.543-86.832c56.453-48.465 125.25-73.871 198.24-73.871 107.3 0 176.63 57.797 176.63 150.16 0 76.035-45.598 118.71-157.39 145.9"/>
    </g>
   </g>
  </g>
 </g>
</svg>
