<svg width="952.18" height="370.04" version="1.1" xmlns="http://www.w3.org/2000/svg">
 <defs>
  <clipPath id="clipPath20">
   <path d="m0 790.8v-790.8h2087.7v790.8z"/>
  </clipPath>
 </defs>
 <g transform="translate(-5.6752 -685.04)">
  <g transform="matrix(4.6793 0 0 -4.6793 5.6752 1055.1)" fill="#fff">
   <g transform="scale(.1)" fill="#fff">
    <g fill="#fff">
     <g clip-path="url(#clipPath20)" fill="#fff">
      <path d="m1307.5 188.84h107.84v-22.621h-81.8v-58.125h66.54v-22.618h-66.54v-59.707h86.27v-22.621h-112.31v185.69"/>
      <path d="m1542.9 25.773c41.82 0 69.18 24.727 69.18 70.488 0 45.5-27.62 69.961-69.18 69.961h-33.66v-140.45zm-59.7 163.07h61.54c56.82 0 94.16-33.93 94.16-92.582 0-58.914-37.34-93.109-94.16-93.109h-61.54v185.69"/>
      <path d="m1774.6 192c44.45 0 67.6-22.355 67.6-22.355l-13.15-19.465s-20.78 18.148-52.34 18.148c-43.66 0-69.96-31.824-69.96-71.539 0-43.133 29.46-72.852 68.38-72.852 32.09 0 52.6 23.144 52.6 23.144v26.824h-30.24v22.621h53.91v-93.375h-22.88v11.578c0 3.9453 0.26 7.8906 0.26 7.8906h-0.52s-20.25-22.621-57.07-22.621c-49.98 0-91.27 39.449-91.27 96.262 0 53.656 40.5 95.738 94.68 95.738"/>
      <path d="m1917.2 188.84h107.83v-22.621h-81.8v-58.125h66.54v-22.618h-66.54v-59.707h86.27v-22.621h-112.3v185.69"/>
      <path d="m876.57 461.43 60.133 119.13 60.117-119.13zm-83.25-164.95 38.18 75.843h210.31l38.28-75.843h103.09l-246.48 488.28-245.13-488.28h101.75"/>
      <path d="m778.49 782.53h-386.81v-89.136h144.03v-396.92h98.773v396.92h144.01v89.136"/>
      <path d="m1376.8 568.91h-71.9v124.48h71.9c53.02 0 82.22-21.411 82.22-61.997 0-40.265-30.74-62.484-82.22-62.484zm181.68 64.996c0 42.781-15.48 79.528-44.79 106.28-30.34 27.707-73.4 42.343-124.5 42.343h-183.06v-486.06h98.77v177.23h70.39l102.1-177.23h113.28l-115.5 201.1c72.68 34.043 83.31 100.33 83.31 136.34"/>
      <path d="m2034.9 782.53h-401.61v-89.121h229.65l-249.4-396.94h416.24v89.14h-244.28l249.4 396.92"/>
      <path d="m217.48 584.28c-79.707 18.895-108 31.825-108 68.555 0 30.594 28.304 50.098 70.429 50.098 64.36 0 121.99-44.442 137.53-57.633l41.273 83.711c-51.254 41.023-110.02 61.793-177.44 61.793-99.594 0-169.16-59.664-169.16-144.73 0-93 59.957-124.97 163.53-149.98 86.609-19.988 101.86-37.211 101.86-65.856 0-33.929-30.316-54.152-77.23-54.152-57.926 0-105.29 22.129-159.72 72.836l-40.543-86.832c56.453-48.465 125.25-73.871 198.24-73.871 107.3 0 176.63 57.797 176.63 150.16 0 76.035-45.598 118.71-157.39 145.9"/>
     </g>
    </g>
   </g>
  </g>
 </g>
</svg>
