<svg width="923.33" height="357.84" version="1.1" xmlns="http://www.w3.org/2000/svg">
 <defs>
  <clipPath id="clipPath20">
   <path d="m0 790.78v-790.78h2087.7v790.78z"/>
  </clipPath>
 </defs>
 <g transform="translate(-13.389 -682.96)">
  <g transform="matrix(4.5251 0 0 -4.5251 13.389 1040.8)" fill="#fff">
   <g transform="scale(.1)" fill="#fff">
    <g fill="#fff">
     <g clip-path="url(#clipPath20)" fill="#fff">
      <path d="m1015.6 191.97c44.71 0 67.59-24.453 67.59-24.453l-12.89-19.457s-21.56 20.246-53.65 20.246c-41.548 0-68.638-31.555-68.638-71.004 0-39.711 27.613-73.367 68.898-73.367 34.98 0 57.33 24.191 57.33 24.191l13.94-18.676s-25.5-29.449-72.05-29.449c-55.751 0-94.939 42.602-94.939 97.039 0 53.91 40.5 94.93 94.409 94.93"/>
      <path d="m1148.7 3.1523h26.039v185.67h-26.039z"/>
      <path d="m1250.2 188.82h25.78l82.57-120.71c6.84-10 15.52-26.828 15.52-26.828h0.52s-1.84 16.566-1.84 26.828v120.71h26.04v-185.67h-25.51l-82.84 120.45c-6.84 10.25-15.52 27.086-15.52 27.086h-0.52s1.84-16.571 1.84-27.086v-120.45h-26.04v185.67"/>
      <path d="m1474.2 188.82h107.82v-22.621h-81.79v-58.117h66.54v-22.617h-66.54v-59.695h86.26v-22.617h-112.29v185.67"/>
      <path d="m1659.1 188.82h27.35l42.6-100.46c4.21-10.25 9.21-24.98 9.21-24.98h0.52s5 14.73 9.21 24.98l42.6 100.46h27.35l14.99-185.67h-25.77l-9.21 117.03c-0.79 11.312-0.26 27.351-0.26 27.351h-0.53s-5.52-17.093-9.99-27.351l-37.08-83.629h-23.14l-36.82 83.629c-4.2 9.996-9.99 27.879-9.99 27.879h-0.53s0.27-16.567-0.53-27.879l-8.93-117.03h-26.04l14.99 185.67"/>
      <path d="m1959.7 163.31s-4.21-16.835-7.37-26.304l-20.77-58.902h56.28l-20.52 58.902c-3.15 9.469-7.1 26.304-7.1 26.304zm34.97-106.77h-69.95l-18.41-53.387h-26.82l66.8 185.67h27.35l66.79-185.67h-27.09l-18.67 53.387"/>
      <path d="m876.57 461.4 60.133 119.14 60.117-119.14zm-83.25-164.95 38.18 75.848h210.31l38.28-75.848h103.09l-246.48 488.29-245.13-488.29h101.75"/>
      <path d="m778.49 782.51h-386.81v-89.133h144.03v-396.93h98.773v396.93h144.01v89.133"/>
      <path d="m1376.8 568.9h-71.9v124.48h71.9c53.02 0 82.22-21.41 82.22-62 0-40.266-30.74-62.48-82.22-62.48zm181.68 64.996c0 42.777-15.48 79.527-44.79 106.28-30.34 27.703-73.4 42.34-124.5 42.34h-183.06v-486.06h98.77v177.24h70.39l102.1-177.24h113.28l-115.5 201.1c72.68 34.043 83.31 100.34 83.31 136.34"/>
      <path d="m2034.9 782.51h-401.61v-89.117h229.65l-249.4-396.94h416.24v89.141h-244.28l249.4 396.92"/>
      <path d="m217.48 584.26c-79.707 18.894-108 31.824-108 68.554 0 30.594 28.304 50.098 70.429 50.098 64.36 0 121.99-44.445 137.53-57.633l41.273 83.711c-51.254 41.024-110.02 61.793-177.44 61.793-99.594 0-169.16-59.664-169.16-144.73 0-93 59.957-124.97 163.53-149.98 86.609-19.988 101.86-37.211 101.86-65.855 0-33.93-30.316-54.156-77.23-54.156-57.926 0-105.29 22.129-159.72 72.836l-40.543-86.829c56.453-48.468 125.25-73.875 198.24-73.875 107.3 0 176.63 57.797 176.63 150.16 0 76.036-45.598 118.71-157.39 145.9"/>
     </g>
    </g>
   </g>
  </g>
 </g>
</svg>
