<svg width="974.18" height="204.93" version="1.1" xmlns="http://www.w3.org/2000/svg">
 <defs>
  <clipPath id="clipPath20">
   <path d="m0 0h4791.8v988h-4791.8z"/>
  </clipPath>
 </defs>
 <g transform="translate(201.6 -874.01)">
  <g transform="matrix(2.0742 0 0 -2.0742 -201.6 1078.9)" fill="#fff">
   <g transform="scale(.1)" fill="#fff">
    <g fill="#fff">
     <g clip-path="url(#clipPath20)" fill="#fff">
      <path d="m2994.4 272.22s-7.01-28.055-12.27-43.84l-34.63-98.195h93.81l-34.19 98.195c-5.26 15.785-11.84 43.84-11.84 43.84zm58.3-177.97h-116.6l-30.68-88.988h-44.71l111.34 309.48h45.59l111.35-309.48h-45.15l-31.14 88.988"/>
      <path d="m3350.8 320c74.52 0 112.65-40.77 112.65-40.77l-21.47-32.441s-35.95 33.758-89.42 33.758c-69.26 0-114.41-52.606-114.41-118.36 0-66.195 46.02-122.3 114.84-122.3 58.3 0 95.56 40.332 95.56 40.332l23.24-31.125s-42.53-49.094-120.11-49.094c-92.94 0-158.25 71.012-158.25 161.75 0 89.867 67.5 158.25 157.37 158.25"/>
      <path d="m3647.6 277.04h-106.09v37.695h255.57v-37.695h-106.09v-271.78h-43.39v271.78"/>
      <path d="m3900.5 5.2617h43.406v309.48h-43.406z"/>
      <path d="m4207.8 39.887c63.12 0 113.97 52.606 113.97 122.3 0 67.512-50.85 118.36-113.97 118.36-63.13 0-114.41-50.848-114.41-118.36 0-69.699 51.28-122.3 114.41-122.3zm0 280.12c89.42 0 158.68-68.828 158.68-157.81 0-91.179-69.26-162.19-158.68-162.19-89.43 0-159.13 71.012-159.13 162.19 0 88.985 69.7 157.81 159.13 157.81"/>
      <path d="m4445 314.74h42.97l137.64-201.21c11.39-16.656 25.86-44.711 25.86-44.711h0.88s-3.08 27.621-3.08 44.711v201.21h43.41v-309.48h-42.53l-138.08 200.76c-11.39 17.102-25.86 45.153-25.86 45.153h-0.88s3.07-27.617 3.07-45.153v-200.76h-43.4v309.48"/>
      <path d="m2122.3 980.19h265.9v-27.809h-236.03v-199.25h193.67v-27.754h-193.67v-203.39h249.19v-27.777h-279.06v485.98"/>
      <path d="m2487.9 980.19h27.76l277.03-381.17c15.96-22.208 39.54-61.079 39.54-61.079h1.42s-3.49 36.786-3.49 61.079v381.17h29.83v-485.98h-27.76l-276.98 381.15c-15.93 22.192-39.59 61.063-39.59 61.063h-1.37s3.46-36.793 3.46-61.063v-381.15h-29.85v485.98"/>
      <path d="m3190.2 988.48c115.21 0 173.53-61.067 173.53-61.067l-18.02-22.226s-57.63 54.832-154.82 54.832c-119.41 0-210.35-93.704-210.35-219.35 0-126.39 90.23-226.32 212.41-226.32 104.15 0 164.57 65.925 164.57 65.925l18.73-20.8s-65.27-73.586-183.3-73.586c-141.59 0-243.65 113.84-243.65 254.78 0 140.92 104.13 247.81 240.9 247.81"/>
      <path d="m3669.2 514.35c118.73 0 214.52 98.562 214.52 226.32 0 124.24-95.79 219.35-214.52 219.35-118.72 0-214.51-95.106-214.51-219.35 0-127.76 95.79-226.32 214.51-226.32zm0 474.13c135.4 0 245.75-108.29 245.75-247.81 0-143.03-110.35-254.78-245.75-254.78-135.36 0-245.74 111.75-245.74 254.78 0 139.52 110.38 247.81 245.74 247.81"/>
      <path d="m4166.9 737.2c63.83 0 104.14 45.801 104.14 111.78 0 43.016-21.51 77.707-56.93 93.668-13.9 6.266-29.17 9.727-68.04 9.727h-111.1v-215.18zm-161.76 242.99h142.33c45.11 0 68.01-4.899 87.48-14.626 40.26-20.101 67.29-61.062 67.29-116.58 0-69.492-40.23-121.55-97.16-134.01v-1.371s4.81-5.559 11.11-17.387l108.98-202.01h-35.39l-115.23 215.2h-139.58v-215.2h-29.83v485.98"/>
      <path d="m4417.5 980.19h265.88v-27.809h-236.08v-199.25h193.71v-27.754h-193.71v-203.39h249.26v-27.777h-279.06v485.98"/>
      <path d="m876.57 659.1 60.133 119.14 60.117-119.14zm-83.25-164.95 38.18 75.847h210.31l38.28-75.847h103.09l-246.48 488.29-245.13-488.29h101.75"/>
      <path d="m778.49 980.21h-386.81v-89.137h144.03v-396.92h98.773v396.92h144.01v89.137"/>
      <path d="m1376.8 766.59h-71.9v124.48h71.9c53.02 0 82.22-21.41 82.22-62 0-40.265-30.74-62.48-82.22-62.48zm181.68 64.996c0 42.777-15.48 79.527-44.79 106.28-30.34 27.703-73.4 42.344-124.5 42.344h-183.06v-486.06h98.77v177.23h70.39l102.1-177.23h113.28l-115.5 201.1c72.68 34.043 83.31 100.34 83.31 136.34"/>
      <path d="m2034.9 980.21h-401.61v-89.121h229.65l-249.4-396.94h416.24v89.14h-244.28l249.4 396.92"/>
      <path d="m217.48 781.95c-79.707 18.895-108 31.824-108 68.555 0 30.594 28.304 50.097 70.429 50.097 64.36 0 121.99-44.445 137.53-57.632l41.273 83.711c-51.254 41.023-110.02 61.793-177.44 61.793-99.594 0-169.16-59.665-169.16-144.73 0-93 59.957-124.97 163.53-149.98 86.609-19.989 101.86-37.211 101.86-65.856 0-33.93-30.316-54.152-77.23-54.152-57.926 0-105.29 22.125-159.72 72.836l-40.543-86.832c56.453-48.465 125.25-73.871 198.24-73.871 107.3 0 176.63 57.797 176.63 150.16 0 76.035-45.598 118.71-157.39 145.9"/>
     </g>
    </g>
   </g>
  </g>
 </g>
</svg>
