<svg width="951.3" height="369.65" version="1.1" xmlns="http://www.w3.org/2000/svg">
 <defs>
  <clipPath id="clipPath20">
   <path d="m0 790.84v-790.84h2087.7v790.84z"/>
  </clipPath>
 </defs>
 <g transform="translate(-5.3894 -679.15)">
  <g transform="matrix(4.6741 0 0 -4.6741 5.3894 1048.8)" fill="#fff">
   <g transform="scale(.1)" fill="#fff">
    <g fill="#fff">
     <g clip-path="url(#clipPath20)" fill="#fff">
      <path d="m8.9492 188.85h26.043v-78.122h27.613l46.816 78.122h28.672l-53.922-88.114v-0.527l57.34-97.055h-29.457l-49.45 85.219h-27.613v-85.219h-26.043v185.7"/>
      <path d="m197.8 3.1562h26.039v185.7h-26.039z"/>
      <path d="m359.03 25.781c41.821 0 69.172 24.723 69.172 70.484 0 45.5-27.617 69.961-69.172 69.961h-33.668v-140.45zm-59.703 163.07h61.543c56.813 0 94.16-33.934 94.16-92.586 0-58.914-37.347-93.109-94.16-93.109h-61.543v185.7"/>
      <path d="m514.21 44.188s19.727-19.988 47.344-19.988c17.355 0 32.086 9.7344 32.086 27.359 0 40.238-89.95 31.555-89.95 88.632 0 28.934 24.985 51.813 59.965 51.813 34.457 0 52.606-18.676 52.606-18.676l-11.836-21.566s-17.098 16.047-40.77 16.047c-19.726 0-33.664-12.364-33.664-27.09 0-38.407 89.949-28.145 89.949-88.375 0-28.672-22.089-52.344-58.914-52.344-39.453 0-61.543 24.469-61.543 24.469l14.727 19.719"/>
      <path d="m828.26 23.938c23.668 0 38.66 12.887 38.66 42.078v23.672h-35.504c-26.305 0-41.035-12.356-41.035-33.137 0-17.883 14.73-32.613 37.879-32.613zm-31.824 78.902v0.527s-24.465 8.418-24.465 40.77c0 30.769 24.199 47.867 57.078 47.867 10.254 0 22.617-2.895 22.617-2.895l-6.574-20.781s-7.629 1.582-13.942 1.582c-18.41 0-32.878-10.258-32.878-28.402 0-11.578 5.527-29.196 34.195-29.196h34.453v25.25h25.516v-25.25h24.718v-22.624h-24.718v-24.719c0-41.297-24.461-64.969-64.176-64.969-38.664 0-64.442 23.938-64.442 55.234 0 20.516 12.098 40.77 32.618 47.606"/>
      <path d="m1051.3 188.85h102.31v-22.625h-76.27v-61.016h64.96v-22.617h-64.96v-79.438h-26.04v185.7"/>
      <path d="m1269.6 163.34s-4.22-16.836-7.37-26.301l-20.78-58.914h56.28l-20.51 58.914c-3.15 9.465-7.1 26.301-7.1 26.301zm34.98-106.79h-69.96l-18.42-53.395h-26.83l66.81 185.7h27.36l66.8-185.7h-27.09l-18.67 53.395"/>
      <path d="m1411.9 188.85h27.36l42.6-100.48c4.21-10.254 9.21-24.988 9.21-24.988h0.53s4.99 14.734 9.2 24.988l42.61 100.48h27.35l14.99-185.7h-25.77l-9.21 117.05c-0.79 11.309-0.26 27.352-0.26 27.352h-0.53s-5.52-17.098-9.99-27.352l-37.09-83.64h-23.14l-36.82 83.64c-4.21 9.996-10 27.879-10 27.879h-0.53s0.27-16.57-0.52-27.879l-8.94-117.05h-26.04l14.99 185.7"/>
      <path d="m1655.5 3.1562h26.039v185.7h-26.039z"/>
      <path d="m1757 188.85h26.05v-163.07h83.11v-22.625h-109.16v185.7"/>
      <path d="m1947.2 81.797-62.33 107.06h29.45l34.46-61.024c5.79-10.254 11.31-23.406 11.31-23.406h0.53s5.52 12.887 11.31 23.406l33.92 61.024h29.46l-62.07-107.06v-78.641h-26.04v78.641"/>
      <path d="m876.57 461.46 60.133 119.14 60.117-119.14zm-83.25-164.95 38.18 75.847h210.31l38.28-75.847h103.09l-246.48 488.29-245.13-488.29h101.75"/>
      <path d="m778.49 782.57h-386.81v-89.132h144.03v-396.93h98.773v396.93h144.01v89.132"/>
      <path d="m1376.8 568.95h-71.9v124.48h71.9c53.02 0 82.22-21.411 82.22-62 0-40.266-30.74-62.481-82.22-62.481zm181.68 64.996c0 42.778-15.48 79.528-44.79 106.28-30.34 27.703-73.4 42.339-124.5 42.339h-183.06v-486.06h98.77v177.23h70.39l102.1-177.23h113.28l-115.5 201.1c72.68 34.043 83.31 100.34 83.31 136.34"/>
      <path d="m2034.9 782.57h-401.61v-89.117h229.65l-249.4-396.94h416.24v89.14h-244.28l249.4 396.92"/>
      <path d="m217.48 584.32c-79.707 18.895-108 31.825-108 68.555 0 30.594 28.304 50.098 70.429 50.098 64.36 0 121.99-44.446 137.53-57.633l41.273 83.711c-51.254 41.023-110.02 61.793-177.44 61.793-99.594 0-169.16-59.664-169.16-144.73 0-93 59.957-124.97 163.53-149.98 86.609-19.988 101.86-37.211 101.86-65.856 0-33.929-30.316-54.156-77.23-54.156-57.926 0-105.29 22.129-159.72 72.836l-40.543-86.828c56.453-48.469 125.25-73.871 198.24-73.871 107.3 0 176.63 57.797 176.63 150.16 0 76.035-45.598 118.71-157.39 145.9"/>
     </g>
    </g>
   </g>
  </g>
 </g>
</svg>
