<svg width="964.61" height="201.77" version="1.1" xmlns="http://www.w3.org/2000/svg">
 <defs>
  <clipPath id="clipPath20">
   <path d="m0 0h4791.8v983h-4791.8z"/>
  </clipPath>
 </defs>
 <g transform="translate(13.741 -844.7)">
  <g transform="matrix(2.0526 0 0 -2.0526 -13.741 1046.5)" fill="#fff">
   <g transform="scale(.1)" fill="#fff">
    <g fill="#fff">
     <g clip-path="url(#clipPath20)" fill="#fff">
      <path d="m3059.8 309.43h170.5v-37.688h-127.11v-101.69h108.26v-37.7h-108.26v-132.36h-43.39v309.43"/>
      <path d="m3423.6 266.91s-7.01-28.043-12.27-43.816l-34.62-98.188h93.79l-34.18 98.188c-5.26 15.773-11.84 43.816-11.84 43.816zm58.29-177.93h-116.58l-30.68-88.977h-44.71l111.33 309.43h45.59l111.32-309.43h-45.15l-31.12 88.977"/>
      <path d="m3660.8 309.43h45.57l71.01-167.43c7.02-17.098 15.34-41.633 15.34-41.633h0.88s8.32 24.535 15.34 41.633l71 167.43h45.58l24.99-309.43h-42.96l-15.34 195.04c-1.31 18.852-0.43 45.578-0.43 45.578h-0.88s-9.2-28.476-16.66-45.578l-61.79-139.38h-38.58l-61.36 139.38c-7.01 16.656-16.65 46.457-16.65 46.457h-0.87s0.43-27.605-0.88-46.457l-14.9-195.04h-43.4l24.99 309.43"/>
      <path d="m4066.6 0h43.391v309.43h-43.391z"/>
      <path d="m4235.8 309.43h43.39v-271.74h138.5v-37.691h-181.89v309.43"/>
      <path d="m4552.7 131.05-103.87 178.38h49.09l57.41-101.68c9.65-17.102 18.85-39.016 18.85-39.016h0.88s9.2 21.481 18.84 39.016l56.55 101.68h49.09l-103.44-178.38v-131.05h-43.4v131.05"/>
      <path d="m2122.3 974.86h265.9v-27.808h-236.03v-199.25h193.67v-27.754h-193.67v-203.39h249.19v-27.773h-279.06v485.98"/>
      <path d="m2487.9 974.86h27.76l277.03-381.17c15.96-22.203 39.54-61.074 39.54-61.074h1.42s-3.49 36.781-3.49 61.074v381.17h29.83v-485.98h-27.76l-276.98 381.14c-15.93 22.192-39.59 61.067-39.59 61.067h-1.37s3.46-36.797 3.46-61.067v-381.14h-29.85v485.98"/>
      <path d="m3190.2 983.15c115.21 0 173.53-61.062 173.53-61.062l-18.02-22.227s-57.63 54.828-154.82 54.828c-119.41 0-210.35-93.703-210.35-219.35 0-126.38 90.23-226.32 212.41-226.32 104.15 0 164.57 65.926 164.57 65.926l18.73-20.801s-65.27-73.586-183.3-73.586c-141.59 0-243.65 113.84-243.65 254.78 0 140.92 104.13 247.81 240.9 247.81"/>
      <path d="m3669.2 509.02c118.73 0 214.52 98.567 214.52 226.32 0 124.24-95.79 219.35-214.52 219.35-118.72 0-214.51-95.105-214.51-219.35 0-127.75 95.79-226.32 214.51-226.32zm0 474.13c135.4 0 245.75-108.29 245.75-247.81 0-143.03-110.35-254.78-245.75-254.78-135.36 0-245.74 111.75-245.74 254.78 0 139.52 110.38 247.81 245.74 247.81"/>
      <path d="m4166.9 731.88c63.83 0 104.14 45.801 104.14 111.78 0 43.016-21.51 77.711-56.93 93.668-13.9 6.27-29.17 9.727-68.04 9.727h-111.1v-215.18zm-161.76 242.99h142.33c45.11 0 68.01-4.894 87.48-14.621 40.26-20.105 67.29-61.066 67.29-116.58 0-69.488-40.23-121.55-97.16-134.01v-1.371s4.81-5.558 11.11-17.386l108.98-202h-35.39l-115.23 215.2h-139.58v-215.2h-29.83v485.98"/>
      <path d="m4417.5 974.86h265.88v-27.808h-236.08v-199.25h193.71v-27.754h-193.71v-203.39h249.26v-27.773h-279.06v485.98"/>
      <path d="m876.57 653.78 60.133 119.13 60.117-119.13zm-83.25-164.95 38.18 75.844h210.31l38.28-75.844h103.09l-246.48 488.29-245.13-488.29h101.75"/>
      <path d="m778.49 974.88h-386.81v-89.133h144.03v-396.93h98.773v396.93h144.01v89.133"/>
      <path d="m1376.8 761.27h-71.9v124.48h71.9c53.02 0 82.22-21.414 82.22-62 0-40.266-30.74-62.484-82.22-62.484zm181.68 64.996c0 42.781-15.48 79.527-44.79 106.28-30.34 27.703-73.4 42.34-124.5 42.34h-183.06v-486.06h98.77v177.24h70.39l102.1-177.24h113.28l-115.5 201.1c72.68 34.043 83.31 100.33 83.31 136.34"/>
      <path d="m2034.9 974.88h-401.61v-89.121h229.65l-249.4-396.94h416.24v89.141h-244.28l249.4 396.92"/>
      <path d="m217.48 776.63c-79.707 18.894-108 31.824-108 68.555 0 30.593 28.304 50.097 70.429 50.097 64.36 0 121.99-44.441 137.53-57.633l41.273 83.711c-51.254 41.028-110.02 61.793-177.44 61.793-99.594 0-169.16-59.664-169.16-144.73 0-93 59.957-124.98 163.53-149.98 86.609-19.988 101.86-37.211 101.86-65.855 0-33.93-30.316-54.152-77.23-54.152-57.926 0-105.29 22.128-159.72 72.836l-40.543-86.832c56.453-48.465 125.25-73.872 198.24-73.872 107.3 0 176.63 57.797 176.63 150.16 0 76.039-45.598 118.71-157.39 145.9"/>
     </g>
    </g>
   </g>
  </g>
 </g>
</svg>
