<svg width="800" height="373.43" version="1.1" viewBox="0 0 211.67 98.803" xmlns="http://www.w3.org/2000/svg">
 <defs>
  <clipPath id="clipPath5874">
   <path d="m227.68 83.705h37.362v31.46h-37.362z"/>
  </clipPath>
 </defs>
 <g transform="translate(16.236 -29.056)">
  <g transform="matrix(6.5633 0 0 -6.5633 -1542.2 715.19)">
   <g clip-path="url(#clipPath5874)">
    <g transform="translate(249.88 102.04)">
     <path d="m0 0h-5.19v-2.87h4.502c0.833-0.046 1.23-0.568 1.23-1.395v-5.413h-2.586c-0.919 0-1.354 0.532-1.354 1.427v0.723h2.507v2.866h-5.374v-4.101c0-1.766 1.064-3.784 3.362-3.784h6.313v8.761c0 2.299-1.645 3.786-3.41 3.786" fill="#05a1e6"/>
    </g>
    <g transform="translate(261.36 102.03)">
     <path d="m0 0h-6.997v-12.544h2.868v9.677h3.427c0.834-0.047 1.232-0.569 1.232-1.423v-8.254h2.864v9.116c0 2.298-1.646 3.428-3.394 3.428" fill="#05a1e6"/>
    </g>
    <g transform="translate(242.18 99.165)">
     <path d="m0 0v2.867h-4.659v2.509h-2.867v-2.509h-2.15v-2.867h2.15v-5.425c0-1.152 0.336-2.235 1.015-3.007 0.678-0.773 1.647-1.246 2.975-1.244v-2e-3h4.263v2.869h-3.525c-0.668 2e-3 -1.116 0.193-1.411 0.522-0.295 0.331-0.45 0.832-0.45 1.493v4.794z" fill="#05a1e6"/>
    </g>
   </g>
  </g>
 </g>
</svg>
