<svg width="800" height="274.86" version="1.1" viewBox="0 0 800 274.86" xmlns="http://www.w3.org/2000/svg">
 <link href="" rel="stylesheet" type="text/css"/>
 <style type="text/css"/>
 <g transform="matrix(3.5327 0 0 3.5327 0 -.00086788)" fill="#2f74d1" fill-rule="evenodd">
  <g transform="translate(-80,-148)" fill="#2f74d1">
   <g transform="translate(80,148)" fill="#2f74d1">
    <g fill="#2f74d1">
     <path d="m208.05 59.467c2.1049-2.141 4.6481-3.2115 7.6241-3.2115 2.9778 0 5.5198 1.0705 7.6247 3.2115 2.1067 2.1386 3.1598 4.6603 3.1598 7.5623 0 2.9014-1.0531 5.4232-3.1598 7.5629-2.1049 2.1398-4.6469 3.2109-7.6247 3.2109-2.976 0-5.5192-1.0711-7.6241-3.2109-2.1061-2.1398-3.1604-4.6616-3.1604-7.5629 0-2.902 1.0543-5.4238 3.1604-7.5623"/>
     <path d="m1.7422 0.058899c-0.46106 0-0.90552 0.18364-1.232 0.50976-0.32643 0.32613-0.51024 0.76894-0.51024 1.2308v12.842c0 0.46186 0.18381 0.90468 0.51024 1.2308s0.77089 0.50976 1.232 0.50976h18.954c0.48012 0 0.87048 0.39 0.87048 0.8709v57.242c0 0.46063 0.18381 0.90468 0.51024 1.2308 0.32766 0.32613 0.77089 0.50976 1.2332 0.50976h15.032c0.46229 0 0.90552-0.18364 1.232-0.50976s0.51024-0.77017 0.51024-1.2308v-57.242c0-0.4809 0.39036-0.8709 0.87171-0.8709h18.954c0.46106 0 0.90552-0.18364 1.232-0.50976 0.32643-0.32613 0.51024-0.76894 0.51024-1.2308v-12.842c0-0.46186-0.18381-0.90468-0.51024-1.2308-0.32643-0.32613-0.77089-0.50976-1.232-0.50976z"/>
     <path d="m107.86 58.215c-1.1637 1.1829-2.5395 1.845-4.1268 1.9862h-15.493c-0.48135 0-0.87171-0.38938-0.87171-0.86967v-11.735c0-0.4809 0.39036-0.86967 0.87171-0.86967h15.493c1.5873 0.14126 2.9631 0.80395 4.1268 1.9862 1.3229 1.3438 1.985 2.9284 1.985 4.7506 0 1.8229-0.66208 3.4074-1.985 4.7512zm-20.492-41.379c0-0.23154 0.09098-0.45203 0.25573-0.6154 0.16352-0.16337 0.38545-0.2555 0.61598-0.2555 3.1469 0.0012 13.733 0.0061 13.733 0.0061 1.8129 0.03194 3.3664 0.6977 4.6573 2.0114 1.3229 1.3438 1.985 2.9284 1.985 4.7506 0 1.8229-0.66208 3.4062-1.985 4.7512-1.291 1.3125-2.8444 1.9789-4.6573 2.0114 0 0-10.587 0.0049-13.733 0.0061-0.23053 0-0.45245-0.09213-0.61598-0.2555-0.16475-0.16337-0.25573-0.38386-0.25573-0.6154zm34.911 20.671c-0.0652-0.06572-0.13094-0.13205-0.1961-0.19654-0.30983-0.30832-0.34303-0.79781-0.0781-1.1454 2.9864-3.9375 4.4821-8.4154 4.4821-13.433 0-6.1227-2.2211-11.443-6.6669-15.956-4.4415-4.5185-9.8033-6.7762-16.085-6.7762h-33.141c-0.46229 0-0.90552 0.18364-1.2332 0.50976-0.32666 0.32613-0.51047 0.77017-0.51047 1.232v72.753c0 0.46186 0.18381 0.90406 0.51024 1.2308 0.32766 0.32613 0.77089 0.50976 1.2332 0.50976h35.599v-0.03869h1e-3c6.2809 0 11.644-2.2595 16.085-6.7762 4.4458-4.5148 6.6669-9.8366 6.6669-15.959 0-6.1227-2.2211-11.443-6.6669-15.956z"/>
     <path d="m164.94 60.26h-9.0988c-0.48135 0-0.87171-0.39-0.87171-0.8709v-42.522c0-0.48151 0.39036-0.8709 0.87171-0.8709h9.0988c12.233 0 22.152 9.9078 22.152 22.132 0 12.223-9.9189 22.132-22.152 22.132m3.0737-60.201h-29.818c-0.96269 0-1.7434 0.77877-1.7434 1.7406v72.694c0 0.46186 0.18503 0.90529 0.51146 1.232 0.32643 0.32613 0.7709 0.50976 1.2344 0.50854 6.6196-0.0074 29.815-0.03624 29.815-0.03624 21.044 0 37.49-17.045 37.49-38.069 0-21.026-16.446-38.07-37.49-38.07"/>
    </g>
   </g>
  </g>
 </g>
</svg>
