<svg width="1047.5" height="443.81" enable-background="new 0 0 1000.728 416.07" version="1.1" viewBox="0 0 982 416.07" xml:space="preserve" xmlns="http://www.w3.org/2000/svg"><rect width="981.5" height="306.01"/><path d="m839.22 179.75c0 1.609-1.215 3.305-2.644 3.807l-8.684 3.519c-1.394 0.625-2.537-0.214-2.537-1.839v-60.371c0-1.607 1.144-3.181 2.537-3.84l8.684-3.396c1.429-0.661 2.644 0.107 2.644 1.68zm-101.98-26.531-4.253 5.021c-1.25 1.321-3.072 1.321-4.287 0l-37.055-39.289c-0.322-0.553-0.715-1.071-0.715-1.768 0-1.34 1.179-2.448 2.466-2.448h10.255l0.214-0.144c0.786-0.07 1.645 0.322 2.323 0.982l31.052 32.928c1.251 1.325 1.251 3.451 0 4.718m139.46-38c3.573-1.395 8.255-3.342 12.007-4.325 4.181-1.126 4.859-2.59 4.502-4.359v-12.542h-102.77l-30.444 35.447c-0.286 0.446-0.75 0.59-1.072 0.59-0.571 0-1.036-0.144-1.321-0.52l-32.946-35.518h-102.55v12.542c-0.179 1.77 0.393 3.233 4.682 4.359 3.68 0.983 8.325 2.931 12.006 4.325 3.287 1.303 4.037 3.18 3.931 5.627v68.427c0.106 2.521-0.644 4.36-3.931 5.7-3.681 1.465-8.326 3.377-12.006 4.359-4.289 1.126-4.86 2.662-4.682 4.324v12.614h64.068v-12.614c0.287-1.662-0.465-3.198-4.573-4.324-3.609-0.982-8.434-2.895-11.898-4.359-3.324-1.34-4.146-3.18-4.002-5.7l-0.144-54.116c0-1.25 0.93-2.27 2.036-2.27 0.537 0 0.895 0.144 1.18 0.502l59.209 68.605 59.638-70.215c0.501-0.5 1.072-0.84 1.858-0.84 1.107 0 1.822 1.037 1.822 2.197l0.143 56.136c0.143 2.521-0.75 4.36-4.038 5.7-3.608 1.465-8.325 3.377-11.935 4.359-4.181 1.126-4.931 2.662-4.573 4.324v12.614h122.31v-12.614c0.357-1.662-0.321-3.198-4.502-4.324-3.752-0.982-8.434-2.895-12.007-4.359-3.358-1.34-4.108-3.18-3.966-5.7v-68.427c-0.142-2.445 0.608-4.322 3.966-5.625m-448.26 66.766c1.75 1.714 0.25 5.02-2.466 4.467-4.967-0.43-26.157-13.758-26.157-34.983 0-20.528 21.334-32.517 26.157-33.069 2.716-0.519 4.216 2.733 2.466 4.572-10.256 9.326-10.828 19.385-10.828 29.535 0.072 8.556 0.572 20.008 10.828 29.478m136.28-3.574c-28.943 15.795-65.318 23.584-98.514 16.098-6.182-1.947-8.862-7.914-9.935-13.148-1.93-8.309-1.93-51.85 1.251-57.995 5.932-13.167 22.369-11.56 35.482-13.023 29.658 0.625 56.922 13.613 65.463 33.48 0.249 1.036 1.321 1.911 3.858 1.108 12.078-3.628 12.899-4.109 12.899-4.109l-9.362-52.938-13.006-0.876s-2.287 9.291-9.934 7.969c-53.421-8.826-111.92-12.363-157.37 14.972-15.829 10.345-28.586 24.657-28.586 43.542 0 19.419 10.685 31.568 26.657 42.218 52.813 33.91 134.28 25.798 191.88 7.217l-6.36-22.476c-0.678-1.967-2.251-2.737-4.43-2.039m-351.18 4.377c0 1.607-1.215 3.377-2.716 3.877l-9.326 3.521c-1.501 0.445-2.751-0.216-2.751-1.752v-60.406c0-1.66 1.25-3.377 2.751-3.822l9.326-3.609c1.501-0.483 2.716 0.25 2.716 1.751zm-112.56-88.795s-7.825 31.641-12.328 46.398l12.114 4.646c3.501 1.431 3.858-0.696 5.752-2.751 10.256-19.688 32.589-34.144 54.635-27.229v74.216c0 2.521-0.785 4.36-4.18 5.7-3.896 1.465-8.897 3.377-12.828 4.359-4.431 1.126-5.109 2.662-4.896 4.324v12.614h132.68v-12.614c0.357-1.662-0.285-3.198-4.823-4.324-3.824-0.982-8.897-2.895-12.685-4.359-3.503-1.34-4.359-3.18-4.217-5.7l-0.072-74.216c21.976-6.915 44.344 7.541 54.636 27.229 1.858 2.055 2.251 4.182 5.824 2.751l12.077-4.646c-4.502-14.758-12.398-46.398-12.398-46.398z" fill="#fff"/><polygon points="44.201 350.18 44.201 356.68 26.12 356.68 26.12 415 18.295 415 18.295 356.68 0 356.68 0 350.18"/><path d="m52.669 396.63v-46.452h7.862v45.523c0 10.361 6.683 13.863 13.614 13.863 8.289 0 13.542-5.288 13.256-13.506v-45.881h7.576v46.095c0.071 12.648-9.006 19.796-21.369 19.796-11.183 1e-3 -20.939-5.537-20.939-19.438"/><path d="m108.23 350.18h20.366c12.758 0 19.367 7.433 19.367 18.581 0 9.397-4.537 16.579-13.827 18.223l15.722 28.016h-8.504l-14.758-26.729h-10.47v26.729h-7.896zm18.724 31.873c8.754 0 13.221-4.146 13.221-12.793 0-7.539-3.752-12.721-12.685-12.721h-11.363v25.514z"/><polygon points="196.28 399.28 196.28 350.18 203.28 350.18 203.28 415 196.46 415 168.16 363.44 167.98 363.44 167.98 415 161.01 415 161.01 350.18 168.91 350.18 196.1 399.28"/><polygon points="224.86 356.9 224.86 378.19 247.34 378.19 247.34 384.8 224.86 384.8 224.86 408.28 253.1 408.28 253.1 415 216.97 415 216.97 350.18 253.1 350.18 253.1 356.9"/><path d="m264.46 350.18h20.403c12.721 0 19.331 7.433 19.331 18.581 0 9.397-4.538 16.579-13.828 18.223l15.759 28.016h-8.541l-14.758-26.729h-10.469v26.729h-7.897zm18.76 31.873c8.718 0 13.149-4.146 13.149-12.793 0-7.539-3.716-12.721-12.613-12.721h-11.398v25.514z"/><path d="m330.78 394.34v-23.262c0-14.258 11.828-22.048 24.979-22.048 13.291 0 23.761 6.612 23.761 20.046v4.646h-15.364v-3.68c0-4.717-3.682-7.432-8.111-7.432-5.253 0-8.254 2.929-8.254 8.11v23.262c0 5.574 3.001 8.576 8.254 8.576 4.359 0 8.111-2.645 8.111-7.36v-3.788h15.364v4.787c0 13.364-10.29 19.868-23.654 19.868-13.186 1e-3 -25.086-6.217-25.086-21.725"/><polygon points="431.33 401.46 431.33 415 387.84 415 387.84 350.18 404.67 350.18 404.67 401.46"/><path d="m455.16 350.11h21.188l18.475 64.892h-17.295l-3.251-12.436h-19.117l-3.252 12.436h-15.472zm15.758 39.592-6.003-23.261h-0.25l-6.003 23.261z"/><path d="m497.61 407.53 8.576-11.077c3.858 3.252 9.361 6.538 15.436 6.538 4.289 0 7.647-1.893 7.647-5.217 0-3.43-2.751-4.858-6.861-6.503l-8.432-3.466c-8.72-3.537-13.437-9.29-13.437-18.188 0-11.077 8.897-20.546 23.083-20.546 7.79 0 15.759 2 21.547 7.253l-8.289 11.113c-3.609-3.002-8.897-5.824-13.364-5.824s-6.789 2-6.789 5.36c0 3.465 4.252 4.787 8.683 6.717l6.754 3.001c9.647 4.218 14.543 10.363 14.543 18.546 0 14.187-12.471 20.832-24.977 20.832-9.291 1e-3 -17.938-2.464-24.12-8.539"/><path d="m551.43 407.53 8.54-11.077c3.895 3.252 9.361 6.538 15.437 6.538 4.288 0 7.646-1.893 7.646-5.217 0-3.43-2.751-4.858-6.825-6.503l-8.468-3.466c-8.684-3.537-13.437-9.29-13.437-18.188 0-11.077 8.898-20.546 23.119-20.546 7.79 0 15.723 2 21.547 7.253l-8.325 11.113c-3.609-3.002-8.897-5.824-13.364-5.824-4.431 0-6.789 2-6.789 5.36 0 3.465 4.288 4.787 8.719 6.717l6.718 3.001c9.647 4.218 14.579 10.363 14.579 18.546 0 14.187-12.507 20.832-25.013 20.832-9.29 1e-3 -17.939-2.464-24.084-8.539"/><rect x="609.24" y="350.18" width="16.795" height="64.819"/><path d="m635.18 394.34v-23.262c0-14.258 11.826-22.048 25.012-22.048 13.293 0 23.727 6.612 23.727 20.046v4.646h-15.365v-3.68c0-4.717-3.644-7.432-8.075-7.432-5.253 0-8.254 2.929-8.254 8.11v23.262c0 5.574 3.001 8.576 8.254 8.576 4.359 0 8.075-2.645 8.075-7.36v-3.788h15.365v4.787c0 13.364-10.255 19.868-23.619 19.868-13.222 1e-3 -25.12-6.217-25.12-21.725"/><polygon points="736.23 382.41 751.03 350.18 760.68 350.18 760.68 415 753.49 415 753.49 360.83 753.31 360.83 738.56 393.45 733.02 393.45 718.23 360.9 717.94 360.9 717.94 415 710.94 415 710.94 350.18 721.12 350.18 736.02 382.41"/><path d="m772.82 396.27v-26.442c0-13.435 9.183-20.867 21.618-20.867 12.185 0 21.726 6.218 21.726 19.724v26.585c0 13.722-9.362 20.797-21.619 20.797-12.184-1e-3 -21.725-6.075-21.725-19.797m35.447-0.571v-27.015c0-8.075-5.361-12.972-14.008-12.972-8.719 0-13.543 5.468-13.543 14.115v26.013c0 8.147 5.003 13.401 13.9 13.401 8.576 1e-3 13.651-5.538 13.651-13.542"/><polygon points="845.83 405.35 860.55 350.18 867.84 350.18 849.54 415.28 841.22 415.28 822.92 350.18 830.93 350.18 845.65 405.35"/><rect x="877.06" y="350.18" width="7.896" height="64.819"/><polygon points="906.54 356.9 906.54 378.19 929.01 378.19 929.01 384.8 906.54 384.8 906.54 408.28 934.76 408.28 934.76 415 898.64 415 898.64 350.18 934.76 350.18 934.76 356.9"/><path d="m939.98 407.17 5.217-5.574c4.717 4.575 8.79 7.47 17.08 7.47 7.469 0 11.828-4.359 11.828-10.363 0-6.539-4.896-9.291-9.934-11.648l-8.612-4.074c-7.719-3.644-12.113-9.004-12.113-16.58 0-9.539 7.075-17.329 18.902-17.329 7.289 0 13.828 2.25 18.367 7.968l-5.539 5.217c-4.181-4.146-7.576-6.468-13.257-6.468-6.182 0-10.648 2.824-10.648 9.541 0 5.109 3.18 8.004 9.112 10.791l7.396 3.574c8.647 4.072 14.222 9.646 14.222 17.938 0 11.184-9.076 18.438-21.011 18.438-9.004-2e-3 -15.971-3.075-21.01-8.901"/></svg>
