<svg width="981.64" height="314.98" enable-background="new 0 0 1000.357 314.978" version="1.1" viewBox="0 0 981.64 314.98" xml:space="preserve" xmlns="http://www.w3.org/2000/svg"><rect x="692.53" width="287.7" height="213.71" fill="#88d1ce"/><rect width="692.53" height="213.71"/><path d="m603.48 125.19c0 1.189-0.894 2.446-1.944 2.818l-6.388 2.604c-1.023 0.462-1.865-0.159-1.865-1.361v-44.68c0-1.189 0.842-2.354 1.865-2.842l6.388-2.513c1.051-0.489 1.944 0.079 1.944 1.243zm-74.995-19.635-3.126 3.716c-0.92 0.977-2.261 0.977-3.153 0l-27.251-29.077c-0.235-0.41-0.526-0.793-0.526-1.309 0-0.992 0.869-1.812 1.815-1.812h7.542l0.156-0.106c0.578-0.051 1.209 0.239 1.708 0.727l22.835 24.369c0.92 0.98 0.92 2.554 0 3.492m102.56-28.124c2.626-1.032 6.069-2.473 8.829-3.201 3.074-0.833 3.573-1.917 3.31-3.226v-9.282h-75.57l-22.39 26.233c-0.21 0.331-0.551 0.437-0.789 0.437-0.419 0-0.761-0.106-0.97-0.385l-24.228-26.286h-75.417v9.282c-0.132 1.31 0.289 2.393 3.443 3.226 2.706 0.728 6.123 2.169 8.829 3.201 2.417 0.964 2.969 2.354 2.891 4.165v50.642c0.078 1.865-0.474 3.226-2.891 4.218-2.706 1.084-6.123 2.5-8.829 3.227-3.154 0.833-3.574 1.97-3.443 3.2v9.335h47.114v-9.335c0.212-1.229-0.342-2.366-3.363-3.2-2.653-0.727-6.202-2.143-8.749-3.227-2.445-0.992-3.049-2.353-2.943-4.218l-0.106-40.05c0-0.925 0.684-1.68 1.497-1.68 0.394 0 0.659 0.106 0.869 0.372l43.542 50.773 43.855-51.965c0.369-0.37 0.788-0.622 1.365-0.622 0.814 0 1.34 0.768 1.34 1.626l0.107 41.545c0.105 1.866-0.552 3.227-2.972 4.219-2.651 1.084-6.119 2.5-8.776 3.226-3.074 0.833-3.624 1.97-3.363 3.201v9.335h89.946v-9.335c0.264-1.23-0.235-2.367-3.31-3.201-2.76-0.726-6.203-2.143-8.829-3.226-2.471-0.992-3.022-2.354-2.918-4.219v-50.642c-0.104-1.809 0.448-3.198 2.919-4.163m-329.64 49.413c1.287 1.269 0.185 3.715-1.813 3.306-3.653-0.318-19.235-10.183-19.235-25.891 0-15.191 15.689-24.064 19.235-24.473 1.998-0.384 3.1 2.022 1.813 3.384-7.542 6.901-7.961 14.347-7.961 21.858 0.051 6.331 0.419 14.807 7.961 21.816m100.22-2.645c-21.284 11.689-48.034 17.454-72.444 11.914-4.546-1.441-6.518-5.857-7.307-9.731-1.419-6.149-1.419-38.372 0.919-42.92 4.363-9.744 16.45-8.556 26.093-9.639 21.81 0.463 41.859 10.075 48.14 24.778 0.183 0.767 0.972 1.414 2.837 0.82 8.882-2.685 9.485-3.041 9.485-3.041l-6.884-39.179-9.564-0.648s-1.682 6.876-7.305 5.897c-39.285-6.532-82.301-9.149-115.72 11.081-11.641 7.656-21.022 18.248-21.022 32.225 0 14.371 7.858 23.364 19.603 31.245 38.837 25.096 98.749 19.092 141.11 5.341l-4.676-16.634c-0.499-1.456-1.656-2.026-3.258-1.509m-258.25 3.239c0 1.189-0.894 2.499-1.998 2.869l-6.857 2.606c-1.104 0.329-2.023-0.16-2.023-1.296v-44.706c0-1.228 0.919-2.499 2.023-2.829l6.857-2.671c1.104-0.357 1.998 0.185 1.998 1.296zm-82.773-65.715s-5.754 23.417-9.066 34.338l8.91 3.439c2.574 1.059 2.836-0.516 4.229-2.036 7.542-14.57 23.964-25.27 40.178-20.152v54.925c0 1.867-0.578 3.228-3.075 4.219-2.865 1.084-6.542 2.5-9.433 3.226-3.259 0.833-3.757 1.97-3.601 3.201v9.335h97.566v-9.335c0.263-1.23-0.209-2.367-3.546-3.201-2.813-0.726-6.542-2.143-9.329-3.226-2.576-0.992-3.205-2.354-3.101-4.219l-0.053-54.925c16.161-5.118 32.61 5.582 40.178 20.152 1.367 1.521 1.656 3.095 4.283 2.036l8.882-3.439c-3.311-10.922-9.118-34.338-9.118-34.338z" fill="#fff"/><polygon points="44.185 255.61 26.111 255.61 26.111 313.91 18.288 313.91 18.288 255.61 0 255.61 0 249.11 44.185 249.11"/><path d="m52.649 295.54v-46.435h7.859v45.506c0 10.358 6.681 13.859 13.609 13.859 8.286 0 13.537-5.288 13.251-13.504v-45.863h7.573v46.079c0.071 12.644-9.002 19.789-21.361 19.789-11.178 1e-3 -20.931-5.534-20.931-19.431"/><path d="m108.19 249.11h20.359c12.753 0 19.359 7.429 19.359 18.573 0 9.395-4.535 16.574-13.821 18.216l15.715 28.007h-8.5l-14.752-26.72h-10.466v26.72h-7.894zm18.717 31.861c8.75 0 13.216-4.146 13.216-12.789 0-7.535-3.751-12.715-12.681-12.715h-11.359v25.504z"/><polygon points="196.21 249.11 203.21 249.11 203.21 313.91 196.38 313.91 168.1 262.36 167.92 262.36 167.92 313.91 160.95 313.91 160.95 249.11 168.84 249.11 196.03 298.19 196.21 298.19"/><polygon points="224.78 277.12 247.25 277.12 247.25 283.72 224.78 283.72 224.78 307.19 253 307.19 253 313.91 216.89 313.91 216.89 249.11 253 249.11 253 255.82 224.78 255.82"/><path d="m264.36 249.11h20.396c12.716 0 19.324 7.429 19.324 18.573 0 9.395-4.537 16.574-13.824 18.216l15.753 28.007h-8.538l-14.752-26.72h-10.465v26.72h-7.894zm18.753 31.861c8.715 0 13.145-4.146 13.145-12.789 0-7.535-3.715-12.715-12.608-12.715h-11.394v25.504z"/><path d="m330.65 293.26v-23.253c0-14.252 11.823-22.039 24.969-22.039 13.286 0 23.752 6.609 23.752 20.038v4.645h-15.357v-3.678c0-4.716-3.682-7.432-8.109-7.432-5.25 0-8.25 2.929-8.25 8.108v23.253c0 5.572 3 8.573 8.25 8.573 4.358 0 8.109-2.644 8.109-7.357v-3.787h15.357v4.785c0 13.361-10.286 19.862-23.645 19.862-13.181 1e-3 -25.076-6.216-25.076-21.718"/><polygon points="431.17 313.91 387.7 313.91 387.7 249.11 404.52 249.11 404.52 300.37 431.17 300.37"/><path d="m454.99 249.04h21.18l18.468 64.868h-17.288l-3.25-12.433h-19.11l-3.251 12.433h-15.466zm15.752 39.578-6-23.254h-0.25l-6 23.254z"/><path d="m497.43 306.44 8.571-11.073c3.856 3.25 9.358 6.536 15.432 6.536 4.286 0 7.642-1.894 7.642-5.215 0-3.431-2.749-4.857-6.856-6.502l-8.429-3.466c-8.719-3.534-13.433-9.285-13.433-18.18 0-11.072 8.893-20.539 23.074-20.539 7.787 0 15.753 1.998 21.539 7.251l-8.285 11.108c-3.609-3.001-8.895-5.821-13.359-5.821-4.466 0-6.787 1.999-6.787 5.356 0 3.465 4.25 4.786 8.68 6.716l6.752 3c9.643 4.217 14.538 10.359 14.538 18.538 0 14.183-12.468 20.826-24.968 20.826-9.289 1e-3 -17.933-2.463-24.111-8.535"/><path d="m551.22 306.44 8.536-11.073c3.895 3.25 9.358 6.536 15.432 6.536 4.287 0 7.644-1.894 7.644-5.215 0-3.431-2.75-4.857-6.823-6.502l-8.464-3.466c-8.681-3.534-13.432-9.285-13.432-18.18 0-11.072 8.894-20.539 23.108-20.539 7.788 0 15.718 1.998 21.541 7.251l-8.322 11.108c-3.608-3.001-8.895-5.821-13.359-5.821-4.429 0-6.787 1.999-6.787 5.356 0 3.465 4.287 4.786 8.716 6.716l6.716 3c9.644 4.217 14.574 10.359 14.574 18.538 0 14.183-12.503 20.826-25.004 20.826-9.288 1e-3 -17.933-2.463-24.076-8.535"/><rect x="609.02" y="249.11" width="16.788" height="64.794"/><path d="m634.95 293.26v-23.253c0-14.252 11.821-22.039 25.003-22.039 13.288 0 23.719 6.609 23.719 20.038v4.645h-15.36v-3.678c0-4.716-3.643-7.432-8.071-7.432-5.251 0-8.252 2.929-8.252 8.108v23.253c0 5.572 3.001 8.573 8.252 8.573 4.356 0 8.071-2.644 8.071-7.357v-3.787h15.36v4.785c0 13.361-10.252 19.862-23.611 19.862-13.217 1e-3 -25.111-6.216-25.111-21.718"/><polygon points="750.75 249.11 760.39 249.11 760.39 313.91 753.21 313.91 753.21 259.76 753.04 259.76 738.28 292.37 732.75 292.37 717.96 259.83 717.67 259.83 717.67 313.91 710.67 313.91 710.67 249.11 720.85 249.11 735.75 281.33 735.96 281.33"/><path d="m772.54 295.19v-26.434c0-13.431 9.179-20.86 21.61-20.86 12.181 0 21.717 6.217 21.717 19.718v26.574c0 13.718-9.357 20.79-21.61 20.79-12.18-1e-3 -21.717-6.073-21.717-19.788m35.434-0.573v-27.005c0-8.071-5.358-12.966-14.002-12.966-8.717 0-13.539 5.465-13.539 14.11v26.002c0 8.146 5.002 13.397 13.896 13.397 8.572 1e-3 13.645-5.537 13.645-13.538"/><polygon points="860.23 249.11 867.52 249.11 849.23 314.19 840.9 314.19 822.62 249.11 830.62 249.11 845.33 304.26 845.51 304.26"/><rect x="876.73" y="249.11" width="7.894" height="64.794"/><polygon points="906.2 277.12 928.67 277.12 928.67 283.72 906.2 283.72 906.2 307.19 934.42 307.19 934.42 313.91 898.3 313.91 898.3 249.11 934.42 249.11 934.42 255.82 906.2 255.82"/><path d="m939.63 306.08 5.215-5.572c4.715 4.572 8.786 7.468 17.073 7.468 7.466 0 11.824-4.358 11.824-10.359 0-6.537-4.895-9.288-9.932-11.645l-8.609-4.073c-7.716-3.643-12.107-8.999-12.107-16.573 0-9.535 7.073-17.324 18.895-17.324 7.286 0 13.823 2.249 18.36 7.966l-5.536 5.215c-4.18-4.145-7.573-6.464-13.252-6.464-6.18 0-10.644 2.821-10.644 9.537 0 5.106 3.179 8.001 9.107 10.787l7.394 3.57c8.644 4.071 14.216 9.644 14.216 17.935 0 11.179-9.072 18.429-21.002 18.429-9-3e-3 -15.966-3.074-21.002-8.897"/><polygon points="760.71 119.16 760.71 171.1 735.11 171.1 735.11 42.591 760.71 42.591 760.71 94.018 801.66 94.018 801.66 42.591 827.26 42.591 827.26 171.1 801.66 171.1 801.66 119.16"/><path d="m873.16 150.34h15.069c3.151 0 6.184-0.384 9.097-1.152 2.911-0.767 5.463-1.996 7.654-3.685 2.19-1.689 3.938-3.856 5.25-6.499 1.309-2.641 1.965-5.866 1.965-9.676v-45.247c0-3.623-0.55-6.757-1.645-9.399-1.096-2.641-2.619-4.821-4.568-6.543-1.951-1.72-4.302-2.949-7.053-3.687-2.754-0.736-5.705-1.105-8.857-1.105h-16.912zm64.632-66.144v45.293c0 7.195-1.098 13.413-3.286 18.635-2.196 5.231-5.194 9.55-8.992 12.966-3.797 3.406-8.255 5.93-13.375 7.559-5.129 1.639-10.62 2.447-16.484 2.447h-48.15v-128.51h49.909c5.967 0 11.421 0.828 16.364 2.495 4.941 1.657 9.187 4.179 12.733 7.558 3.547 3.389 6.311 7.689 8.303 12.92 1.982 5.23 2.978 11.439 2.978 18.634z"/></svg>
