<svg width="681.78" height="800" version="1.1" viewBox="0 0 681.78 800" xmlns="http://www.w3.org/2000/svg">
 <path d="m340.89 5e-4c164.91 0 298.61 131.31 298.61 293.3s-133.69 293.3-298.61 293.3c-164.91 0-298.61-131.31-298.61-293.3s133.69-293.3 298.61-293.3z" fill="#d1d3d4" fill-rule="evenodd"/>
 <path d="m340.89 19.554c153.92 0 278.7 122.56 278.7 273.74s-124.78 273.74-278.7 273.74-278.7-122.56-278.7-273.74 124.78-273.74 278.7-273.74z" fill="url(#radialGradient1035)" fill-rule="evenodd"/>
 <path d="m66.709 244.41c-2.9148 15.871-4.5159 32.186-4.5159 48.883 0 21.885 2.689 43.147 7.6283 63.547h542.14c4.9394-20.401 7.6284-41.662 7.6284-63.547 0-16.696-1.6011-33.011-4.5159-48.883z" fill="#fff" style="paint-order:stroke markers fill"/>
 <defs>
  <radialGradient id="radialGradient974" cx="-876.75" cy="804.68" r="35.626" gradientTransform="matrix(-1.122e-6 5.7823 -7.8101 -1.5154e-6 6469 5282.2)" gradientUnits="userSpaceOnUse">
   <stop stop-color="#fff" offset="0"/>
   <stop stop-color="#00acea" offset=".51678"/>
   <stop stop-color="#1752a2" offset="1"/>
  </radialGradient>
  <radialGradient id="radialGradient1035" cx="-607.21" cy="592.73" r="278.7" gradientTransform="matrix(1 0 0 .98222 948.1 -288.9)" gradientUnits="userSpaceOnUse">
   <stop stop-color="#007bc4" offset="0"/>
   <stop stop-color="#007bc4" offset=".56986"/>
   <stop stop-color="#005bab" offset="1"/>
  </radialGradient>
  <linearGradient id="linearGradient1071" x1="231.12" x2="450.66" y1="129.33" y2="129.33" gradientTransform="matrix(0 -1.1486 1.2545 0 178.66 537.19)" gradientUnits="userSpaceOnUse">
   <stop stop-color="#b4bfe2" stop-opacity="0" offset="0"/>
   <stop stop-color="#0072ba" stop-opacity=".26667" offset=".27047"/>
   <stop stop-color="#719ed3" stop-opacity=".52549" offset=".52773"/>
   <stop stop-color="#b4bfe2" offset="1"/>
  </linearGradient>
 </defs>
 <g fill="#fff" fill-rule="evenodd">
  <polygon transform="matrix(25.328 0 0 25.328 -202.63 -1.644)" points="8.6135 28.836 8.6135 28.282 9.6545 28.282 9.6545 27.787 8.0079 27.787 8.0079 30.455 9.71 30.455 9.71 29.96 8.6135 29.96 8.6135 29.327 9.5952 29.327 9.5952 28.836"/>
  <polygon transform="matrix(25.328 0 0 25.328 -202.63 -1.644)" points="11.024 29.948 12.085 29.948 12.085 30.455 10.418 30.455 10.418 27.787 11.024 27.787"/>
  <path d="m148.26 753.99c4.1101 2.1061 10.426 4.2104 16.943 4.2104 7.0184 0 10.727-2.9067 10.727-7.3176 0-4.2104-3.2092-6.6172-11.329-9.5239-11.229-3.9112-18.548-10.127-18.548-19.952 0-11.53 9.6258-20.352 25.566-20.352 7.6184 0 13.233 1.603 17.244 3.4081l-3.4097 12.332c-2.7077-1.3036-7.5182-3.2092-14.135-3.2092-6.6172 0-9.8247 3.0086-9.8247 6.5186 0 4.3106 3.8092 6.2145 12.531 9.5239 11.931 4.4093 17.545 10.627 17.545 20.151 0 11.329-8.7216 20.955-27.27 20.955-7.7204 0-15.339-2.0073-19.15-4.1117z"/>
  <path d="m242.3 740.96-4.2104-14.336c-1.2034-4.0114-2.407-9.0241-3.4081-13.036h-0.20009c-1.0028 4.0114-2.0058 9.1244-3.1089 13.036l-4.0098 14.336zm-17.144 11.429-4.8121 17.345h-15.84l20.652-67.573h20.052l20.953 67.573h-16.442l-5.2132-17.345z"/>
  <polygon transform="matrix(25.328 0 0 25.328 -202.63 -1.644)" points="19.767 29.948 20.828 29.948 20.828 30.455 19.161 30.455 19.161 27.787 19.767 27.787"/>
  <path d="m350.86 769.73-21.655-67.573h16.743l8.2218 28.573c2.3049 8.0212 4.4109 15.74 6.0155 24.162h0.3009c1.7033-8.1215 3.8092-16.141 6.1142-23.863l8.623-28.873h16.241l-22.758 67.573z"/>
  <path d="m433.67 740.96-4.2104-14.336c-1.2051-4.0114-2.407-9.0241-3.4097-13.036h-0.2001c-1.0028 4.0114-2.004 9.1244-3.1072 13.036l-4.0115 14.336zm-17.144 11.429-4.8137 17.345h-15.839l20.652-67.573h20.051l20.955 67.573h-16.444l-5.2132-17.345z"/>
  <path d="m489.4 758.2c1.3037 0.3009 3.4081 0.3009 5.3135 0.3009 13.836 0.10131 22.859-7.5198 22.859-23.659 0.10132-14.037-8.1215-21.455-21.256-21.455-3.4081 0-5.6127 0.3009-6.9165 0.60003zm-15.339-55.141c5.6144-0.90245 12.934-1.4024 20.652-1.4024 12.833 0 21.154 2.3049 27.672 7.2173 7.0167 5.2149 11.428 13.535 11.428 25.464 0 12.934-4.7118 21.857-11.229 27.372-7.1187 5.9136-17.945 8.7216-31.181 8.7216-7.9193 0-13.532-0.49973-17.343-1.0028z"/>
  <path d="m564.39 736.15c0 13.234 6.2161 22.558 16.442 22.558 10.326 0 16.243-9.8248 16.243-22.959 0-12.131-5.8166-22.558-16.343-22.558-10.326 0-16.342 9.8247-16.342 22.959m48.825-0.90093c0 22.155-13.433 35.59-33.183 35.59-20.054 0-31.782-15.138-31.782-34.388 0-20.253 12.934-35.391 32.884-35.391 20.753 0 32.082 15.539 32.082 34.189"/>
  <path d="m645.89 732.14h6.0155c7.6184 0 12.131-3.8092 12.131-9.7245 0-6.2161-4.2104-9.3233-11.23-9.4236-3.7089 0-5.8133 0.29913-6.9164 0.5015zm-15.138-29.075c4.9124-0.80215 12.23-1.4024 20.35-1.4024 10.027 0 17.045 1.5043 21.856 5.3135 4.0115 3.2075 6.2178 7.921 6.2178 14.135 0 8.623-6.1158 14.538-11.931 16.643v0.3009c4.7118 1.9054 7.3192 6.4166 9.0225 12.634 2.1061 7.6184 4.2104 16.44 5.5141 19.048h-15.64c-1.103-1.9054-2.7077-7.4195-4.7118-15.742-1.8052-8.4207-4.7134-10.726-10.928-10.826h-4.6115v26.568h-15.138z"/>
  <polygon transform="matrix(25.328 0 0 25.328 -202.63 -1.644)" points="17.474 24.71 16.757 24.71 16.757 24.203 18.808 24.203 18.808 24.71 18.079 24.71 18.079 26.871 17.474 26.871"/>
  <polygon transform="matrix(25.328 0 0 25.328 -202.63 -1.644)" points="21.048 24.698 20.007 24.698 20.007 25.252 20.989 25.252 20.989 25.743 20.007 25.743 20.007 26.376 21.103 26.376 21.103 26.871 19.401 26.871 19.401 24.203 21.048 24.203"/>
  <polygon transform="matrix(25.328 0 0 25.328 -202.63 -1.644)" points="22.393 26.364 23.454 26.364 23.454 26.871 21.788 26.871 21.788 24.203 22.393 24.203"/>
  <polygon transform="matrix(25.328 0 0 25.328 -202.63 -1.644)" points="25.73 24.698 24.689 24.698 24.689 25.252 25.671 25.252 25.671 25.743 24.689 25.743 24.689 26.376 25.785 26.376 25.785 26.871 24.083 26.871 24.083 24.203 25.73 24.203"/>
 </g>
 <path d="m340.89 19.554c103.8 0 187.95 56.451 187.95 126.09 0 69.636-84.148 126.09-187.95 126.09-103.8 0-187.95-56.451-187.95-126.09 0-69.636 84.148-126.09 187.95-126.09z" fill="url(#linearGradient1071)" fill-rule="evenodd"/>
 <polygon transform="matrix(25.328 0 0 25.328 -202.63 -1.644)" points="8 31.65 34.918 31.65 34.918 31.25 8 31.25" fill="#1752a2" fill-rule="evenodd"/>
 <path d="m246.17 172.49c-14.762 1.4577-75.985 13.104-74.512 65.121 1.4733 52.017-4.8027 94.229 81.156 96.792 85.959 2.5625 144.6 2.5472 149.02 2.9001 4.4191 0.35294 11.8 1.826 15.13 6.1378 3.1149 3.7486 4.4575 8.6603 3.6826 13.472-0.73661 4.726-1.8413 13.089-10.327 15.344-8.4854 2.2555-125.42 3.6366-125.42 3.6366s-14.377 1.8259-19.549-5.8155c-5.1708-7.6414-5.1708-19.288-5.1708-19.288v-2.9154l-86.695-1.4576s-2.9158 32.039 2.2403 46.555c5.1556 14.516 10.326 34.924 42.795 40.386 32.468 5.4626 160.47 7.2732 205.11 2.5471 44.637-4.726 66.778-17.83 74.144-29.476 7.3652-11.646 15.114-45.112 11.431-70.216-3.6826-25.103-11.8-38.53-20.3-45.45-8.5008-6.9203-31.717-17.83-46.11-17.83s-91.483-2.1788-91.483-2.1788-50.16 0.35293-62.344-0.36808c-12.184-0.72127-22.526-3.3144-26.929-9.0992-4.4038-5.7848-8.6234-18.183 7.6721-24.382 16.296-6.1991 108.09-4.3578 116.2-4.0048 8.1171 0.35293 21.037 4.3731 23.247 9.0992 2.2096 4.7261 3.0228 15.298 3.0228 15.298h87.064s0.73661-31.287-4.4345-42.964c-5.171-11.677-16.971-27.298-24.351-30.934-7.3806-3.6366-15.13-8.7309-33.558-10.91-4.5051-0.98509-40.85-1.3764-80.707-1.3764-48.377 0-101.93 0.57696-110.02 1.3764z" fill="url(#radialGradient974)" fill-rule="evenodd" stroke="#fff" stroke-width="5"/>
</svg>
