<svg width="1e3px" height="844px" enable-background="new 0 0 1000 844" version="1.1" viewBox="0 0 1e3 844" xml:space="preserve" xmlns="http://www.w3.org/2000/svg">
<g clip-rule="evenodd" fill-rule="evenodd">
	<path d="m624.15 324.72c2.426 142.06-94.829 278.55-230.35 321.01-13.642 3.44-18.62 4.818-18.62-4.697v-399.17h-182.67c-2.889 0-5.255-2.366-5.255-5.257v-231.35c0-2.889 2.363-5.255 5.255-5.255h103.87c197.85 0 327.78 169.36 327.78 324.72z" fill="#A71916"/>
	<path d="m375.22 324.72c-2.422 142.06 94.83 278.55 230.35 321.01 13.645 3.44 18.619 4.818 18.619-4.697v-399.17h182.68c2.887 0 5.252-2.366 5.252-5.257v-231.35c0-2.889-2.36-5.255-5.252-5.255h-103.87c-197.85 0-327.78 169.36-327.78 324.72z" fill="#f00"/>
	<path d="m499.89 587.92c-164.84-135.56-166.64-381.35 0-516.39 166.64 135.04 164.84 380.82 0 516.39z" fill="#E20000"/>
	<path d="m116.96 840.78h74.818v-4.774c0-8.529-5.048-13.574-13.661-13.574h-37.91v-31.967h36.979v-18.598h-36.979v-28.613h35.726c8.615 0 13.661-5.035 13.661-13.563v-4.774h-72.635v115.86h1e-3z" fill="#fff"/>
	<path d="m306.35 840.78h74.818v-4.774c0-8.529-5.048-13.574-13.661-13.574h-37.91v-31.967h36.977v-18.598h-36.977v-28.613h35.726c8.613 0 13.661-5.035 13.661-13.563v-4.774h-72.635v115.86h1e-3z" fill="#fff"/>
	<path d="m806.23 743.01c32.731-4.265 44.429 9.146 44.429 40.613 0 31.055-14.16 41.602-44.412 39.096l-0.369-0.033v-79.622l0.352-0.054zm-23.599 97.764h35.367c37.321 0 56.603-22.418 56.603-58.876 0-61.979-44.428-59.679-91.97-57.01v115.89z" fill="#fff"/>
	<path d="m450.75 816.35h25l25.6-50.781v75.206h22.623v-115.86h-16.216c-10.796 0-13.103 6.283-17.483 14.627l-27.156 55.197-26.62-55.187c-4.24-8.235-6.508-14.638-17.13-14.638h-15.886v115.86h22.157v-75.239l25.111 50.816z" fill="#fff"/>
	<path d="m735.97 840.78h20.883v-102.2c0-8.604-5.04-13.661-13.574-13.661h-8.784v78.961l-39.969-64.659c-3.553-5.751-7.937-14.302-15.755-14.302h-14.03v115.86h22.157v-75.868l49.072 75.868z" fill="#fff"/>
	<path d="m286.11 840.78v-4.774c0-8.529-5.048-13.574-13.661-13.574h-35.726v-83.854c0-8.604-5.04-13.661-13.572-13.661h-9.676v115.86h72.635v-1e-3z" fill="#fff"/>
	<path d="m947.4 741.15c22.743 0 27.935 24.664 27.935 42.861 0 18.543-5.518 41.416-28.174 41.416-22.683 0-28.174-24.338-28.174-42.621 0-18.489 5.649-41.656 28.413-41.656zm0.245-19.076c-35.981 0-53.082 27.594-53.082 60.97 0 34.419 15.489 60.96 52.838 60.96 37.288 0 52.599-26.692 52.599-60.96-1e-3 -33.115-16.369-60.97-52.355-60.97z" fill="#fff"/>
	<path d="m549.56 724.91v73.633c0 29.645 13.173 45.041 44.092 45.041 29.91 0 45.66-15.494 45.66-45.041v-59.972c0-8.604-5.046-13.661-13.574-13.661h-9.364v76.704c0 12.868-9.038 22.417-22.108 22.417-13.623 0-21.767-9.027-21.767-22.417v-63.043c0-8.615-5.04-13.661-13.568-13.661h-9.371z" fill="#fff"/>
	<path d="m60.273 840.78v-96.788h23.356c8.613 0 13.661-5.046 13.661-13.574v-5.502h-83.629c-8.613 0-13.661 5.035-13.661 13.574v5.502h37.022v96.788h23.251z" fill="#fff"/>
</g>
</svg>
