<svg width="927.98" height="1378.7" version="1.0" xmlns="http://www.w3.org/2000/svg" xmlns:xlink="http://www.w3.org/1999/xlink">
 <g transform="translate(-280.19 734.19)">
  <g transform="matrix(1 0 0 -1 288.36 733.54)" clip-path="url(#id1809)">
   <g transform="matrix(3.6114 0 0 3.6114 562.45 533.24)">
    <use width="744.09448" height="1052.3622" xlink:href="#id1807"/>
   </g>
  </g>
  <g transform="matrix(21.404 0 0 -14.96 665.28 406.45)">
   <use width="744.09448" height="1052.3622" xlink:href="#id9"/>
  </g>
  <g transform="matrix(25.504 0 0 -22.386 830.68 124.64)">
   <use width="744.09448" height="1052.3622" xlink:href="#id7"/>
  </g>
  <g transform="matrix(1 0 0 -1 288.36 733.54)" clip-path="url(#id1998)">
   <g transform="matrix(9.0466 0 0 9.0777 558.61 333.65)">
    <use width="744.09448" height="1052.3622" xlink:href="#id13"/>
   </g>
  </g>
  <g transform="matrix(1 0 0 -1 288.36 733.54)" clip-path="url(#id2075)">
   <g transform="matrix(.99481 0 0 .18652 557.48 332.26)">
    <use width="744.09448" height="1052.3622" xlink:href="#id91"/>
   </g>
  </g>
  <g transform="matrix(.55959 0 0 -.15544 847.56 401.28)">
   <use width="744.09448" height="1052.3622" xlink:href="#id92"/>
  </g>
  <g transform="matrix(1 0 0 -1 288.36 733.54)" clip-path="url(#id2076)">
   <g transform="matrix(1.6477 0 0 .15544 560.96 332.26)">
    <use width="744.09448" height="1052.3622" xlink:href="#id93"/>
   </g>
  </g>
  <g transform="matrix(1 0 0 -1 288.36 733.54)" clip-path="url(#id2077)">
   <g transform="matrix(1.3368 0 0 .18652 564.26 332.26)">
    <use width="744.09448" height="1052.3622" xlink:href="#id95"/>
   </g>
  </g>
  <g transform="matrix(1 0 0 -1 288.36 733.54)" clip-path="url(#id2078)">
   <g transform="matrix(2.0518 0 0 .15544 565.9 332.26)">
    <use width="744.09448" height="1052.3622" xlink:href="#id97"/>
   </g>
  </g>
  <g transform="matrix(1 0 0 -1 288.36 733.54)" clip-path="url(#id2079)">
   <g transform="matrix(.15544 0 0 .15544 568.89 332.26)">
    <use width="744.09448" height="1052.3622" xlink:href="#id99"/>
   </g>
  </g>
  <g transform="matrix(1 0 0 -1 288.36 733.54)" clip-path="url(#id2080)">
   <g transform="matrix(9.0466 0 0 9.0777 558.5 333.75)">
    <use width="744.09448" height="1052.3622" xlink:href="#id13"/>
   </g>
  </g>
  <g transform="matrix(1 0 0 -1 288.36 733.54)" clip-path="url(#id2081)">
   <g transform="matrix(7.9896 0 0 8.4559 558.72 333.82)">
    <use width="744.09448" height="1052.3622" xlink:href="#id102"/>
   </g>
  </g>
  <g transform="matrix(1 0 0 -1 288.36 733.54)" clip-path="url(#id2082)">
   <g transform="matrix(7.9896 0 0 8.4559 558.72 333.82)">
    <use width="744.09448" height="1052.3622" xlink:href="#id104"/>
   </g>
  </g>
  <g transform="matrix(1 0 0 -1 288.36 733.54)" clip-path="url(#id2083)">
   <g transform="matrix(6.4663 0 0 6.9948 559.25 334.81)">
    <use width="744.09448" height="1052.3622" xlink:href="#id106"/>
   </g>
  </g>
  <g transform="matrix(1 0 0 -1 288.36 733.54)" clip-path="url(#id2088)">
   <g transform="matrix(5.5098 .016495 -.016495 5.5098 477.48 349.59)">
    <use width="744.09448" height="1052.3622" xlink:href="#id671"/>
   </g>
  </g>
  <g transform="matrix(1 0 0 -1 288.36 733.54)" clip-path="url(#id2124)">
   <g transform="matrix(2.4098 0 0 .51135 386.28 311.99)">
    <use width="744.09448" height="1052.3622" xlink:href="#id1545"/>
   </g>
  </g>
  <g transform="matrix(1 0 0 -1 288.36 733.54)" clip-path="url(#id2125)">
   <g transform="matrix(2.4098 0 0 .51135 386.28 311.48)">
    <use width="744.09448" height="1052.3622" xlink:href="#id1547"/>
   </g>
  </g>
  <g transform="matrix(1 0 0 -1 288.36 733.54)" clip-path="url(#id2126)">
   <g transform="matrix(2.4098 0 0 .51135 386.28 310.96)">
    <use width="744.09448" height="1052.3622" xlink:href="#id1549"/>
   </g>
  </g>
  <g transform="matrix(1 0 0 -1 288.36 733.54)" clip-path="url(#id2127)">
   <g transform="matrix(2.4098 0 0 .51135 386.28 310.45)">
    <use width="744.09448" height="1052.3622" xlink:href="#id1551"/>
   </g>
  </g>
  <g transform="matrix(1 0 0 -1 288.36 733.54)" clip-path="url(#id2128)">
   <g transform="matrix(2.4098 0 0 .36435 386.28 310.09)">
    <use width="744.09448" height="1052.3622" xlink:href="#id1553"/>
   </g>
  </g>
  <g transform="matrix(9.9191 0 0 9.9191 687.66 160.86)">
   <use width="744.09448" height="1052.3622" xlink:href="#id1557"/>
  </g>
  <g transform="matrix(1 0 0 -1 288.36 733.54)" clip-path="url(#id2374)">
   <g transform="matrix(5.3973 0 0 5.1018 535.41 547.94)">
    <use width="744.09448" height="1052.3622" xlink:href="#id1804"/>
   </g>
  </g>
  <g transform="matrix(31.626 0 0 -9.9593 752 270.15)">
   <use width="744.09448" height="1052.3622" xlink:href="#id1834"/>
  </g>
  <g transform="matrix(31.963 0 0 -7.8967 834.22 289.36)">
   <use width="744.09448" height="1052.3622" xlink:href="#id1840"/>
  </g>
  <g transform="matrix(1 0 0 -1 288.36 733.54)" clip-path="url(#id2405)">
   <g transform="matrix(15.873 0 0 17.249 475.93 420.72)">
    <use width="744.09448" height="1052.3622" xlink:href="#id1843"/>
   </g>
  </g>
  <g transform="matrix(1 0 0 -1 288.36 733.54)" clip-path="url(#id2469)">
   <g transform="matrix(15.443 0 0 11.148 452.98 484.72)">
    <use width="744.09448" height="1052.3622" xlink:href="#id1909"/>
   </g>
  </g>
  <g transform="matrix(1 0 0 -1 288.36 733.54)" clip-path="url(#id2508)">
   <g transform="matrix(3.1533 0 0 3.1533 497.05 549.53)">
    <use width="744.09448" height="1052.3622" xlink:href="#id1949"/>
   </g>
  </g>
  <g transform="matrix(24.571 0 0 -11.323 811.97 311.2)">
   <use width="744.09448" height="1052.3622" xlink:href="#id1951"/>
  </g>
  <g transform="matrix(1 0 0 -1 288.36 733.54)" clip-path="url(#id2549)">
   <use width="744.09448" height="1052.3622" opacity=".39999" xlink:href="#id2551"/>
  </g>
  <g transform="matrix(1 0 0 -1 288.36 733.54)" clip-path="url(#id2563)">
   <g transform="matrix(.92427 0 0 -1.7458 360.31 152.69)">
    <use width="744.09448" height="1052.3622" xlink:href="#id229"/>
   </g>
  </g>
  <g transform="matrix(1 0 0 -1 288.36 733.54)" clip-path="url(#id2564)">
   <g transform="matrix(.92427 0 0 -3.4532 370.06 157.81)">
    <use width="744.09448" height="1052.3622" xlink:href="#id231"/>
   </g>
  </g>
  <g transform="matrix(1 0 0 -1 288.36 733.54)" clip-path="url(#id2565)">
   <g transform="matrix(.92427 0 0 -1.7458 369.18 157.81)">
    <use width="744.09448" height="1052.3622" xlink:href="#id233"/>
   </g>
  </g>
  <g transform="matrix(1 0 0 -1 288.36 733.54)" clip-path="url(#id2566)">
   <g transform="matrix(1.81 0 0 -.88576 360.31 157.81)">
    <use width="744.09448" height="1052.3622" xlink:href="#id235"/>
   </g>
  </g>
  <g transform="matrix(1 0 0 -1 288.36 733.54)" clip-path="url(#id2570)">
   <g transform="matrix(1.8742 0 0 -1.0013 359.88 151.76)">
    <use width="744.09448" height="1052.3622" xlink:href="#id240"/>
   </g>
  </g>
  <g transform="matrix(1 0 0 -1 288.36 733.54)" clip-path="url(#id2571)">
   <g transform="matrix(.96277 0 0 -5.7895 359.88 157.52)">
    <use width="744.09448" height="1052.3622" xlink:href="#id242"/>
   </g>
  </g>
  <g transform="matrix(1 0 0 -1 288.36 733.54)" clip-path="url(#id2572)">
   <g transform="matrix(.94994 0 0 -5.7895 360.81 158.48)">
    <use width="744.09448" height="1052.3622" xlink:href="#id244"/>
   </g>
  </g>
  <g transform="matrix(1 0 0 -1 288.36 733.54)" clip-path="url(#id2573)">
   <g transform="matrix(.94994 0 0 -4.8267 361.72 159.43)">
    <use width="744.09448" height="1052.3622" xlink:href="#id246"/>
   </g>
  </g>
  <g transform="matrix(1 0 0 -1 288.36 733.54)" clip-path="url(#id2574)">
   <g transform="matrix(.96277 0 0 -3.8639 362.63 159.43)">
    <use width="744.09448" height="1052.3622" xlink:href="#id248"/>
   </g>
  </g>
  <g transform="matrix(1 0 0 -1 288.36 733.54)" clip-path="url(#id2575)">
   <g transform="matrix(.96277 0 0 -2.914 369.05 158.48)">
    <use width="744.09448" height="1052.3622" xlink:href="#id250"/>
   </g>
  </g>
  <g transform="matrix(1 0 0 -1 288.36 733.54)" clip-path="url(#id2576)">
   <g transform="matrix(.94994 0 0 -2.914 363.56 159.43)">
    <use width="744.09448" height="1052.3622" xlink:href="#id252"/>
   </g>
  </g>
  <g transform="matrix(1 0 0 -1 288.36 733.54)" clip-path="url(#id2577)">
   <g transform="matrix(.94994 0 0 -1.9641 368.14 158.48)">
    <use width="744.09448" height="1052.3622" xlink:href="#id254"/>
   </g>
  </g>
  <g transform="matrix(1 0 0 -1 288.36 733.54)" clip-path="url(#id2578)">
   <g transform="matrix(2.7856 0 0 -1.9512 364.47 159.43)">
    <use width="744.09448" height="1052.3622" xlink:href="#id256"/>
   </g>
  </g>
  <g transform="matrix(1 0 0 -1 288.36 733.54)" clip-path="url(#id2579)">
   <g transform="matrix(.96277 0 0 -1.0013 367.21 158.48)">
    <use width="744.09448" height="1052.3622" xlink:href="#id258"/>
   </g>
  </g>
  <g transform="matrix(1 0 0 -1 288.36 733.54)" clip-path="url(#id2580)">
   <g transform="matrix(.32092 0 0 -1.2067 370.72 153.47)">
    <use width="744.09448" height="1052.3622" xlink:href="#id260"/>
   </g>
  </g>
  <g transform="matrix(1 0 0 -1 288.36 733.54)" clip-path="url(#id2584)">
   <g transform="matrix(2.7985 0 0 -.53915 363.29 148.85)">
    <use width="744.09448" height="1052.3622" xlink:href="#id265"/>
   </g>
  </g>
  <g transform="matrix(1 0 0 -1 288.36 733.54)" clip-path="url(#id2588)">
   <g transform="matrix(4.2747 0 0 -2.1053 361.16 150.42)">
    <use width="744.09448" height="1052.3622" xlink:href="#id270"/>
   </g>
  </g>
  <g transform="matrix(1 0 0 -1 288.36 733.54)" clip-path="url(#id2592)">
   <g transform="matrix(.50064 0 0 -.53915 360.35 151.86)">
    <use width="744.09448" height="1052.3622" xlink:href="#id275"/>
   </g>
  </g>
  <g transform="matrix(1 0 0 -1 288.36 733.54)" clip-path="url(#id2593)">
   <g transform="matrix(1.3736 0 0 -2.2465 359.88 153.47)">
    <use width="744.09448" height="1052.3622" xlink:href="#id277"/>
   </g>
  </g>
  <g transform="matrix(1 0 0 -1 288.36 733.54)" clip-path="url(#id2594)">
   <g transform="matrix(.69319 0 0 -1.2324 370.13 152.37)">
    <use width="744.09448" height="1052.3622" xlink:href="#id279"/>
   </g>
  </g>
  <g transform="matrix(1 0 0 -1 288.36 733.54)" clip-path="url(#id2595)">
   <g transform="matrix(.38512 0 0 -.80873 370.37 152.48)">
    <use width="744.09448" height="1052.3622" xlink:href="#id281"/>
   </g>
  </g>
  <g transform="matrix(1 0 0 -1 288.36 733.54)" clip-path="url(#id2599)">
   <g transform="matrix(.32092 0 0 -.42362 360.87 150.8)">
    <use width="744.09448" height="1052.3622" xlink:href="#id286"/>
   </g>
  </g>
  <g transform="matrix(1 0 0 -1 288.36 733.54)" clip-path="url(#id2600)">
   <g transform="matrix(.55199 0 0 -.66753 361.64 155.91)">
    <use width="744.09448" height="1052.3622" xlink:href="#id288"/>
   </g>
  </g>
  <g transform="matrix(1 0 0 -1 288.36 733.54)" clip-path="url(#id2601)">
   <g transform="matrix(.5905 0 0 -1.5404 370.46 154.91)">
    <use width="744.09448" height="1052.3622" xlink:href="#id290"/>
   </g>
  </g>
  <g transform="matrix(1 0 0 -1 288.36 733.54)" clip-path="url(#id2602)">
   <g transform="matrix(.25674 0 0 -.66753 370.69 153.9)">
    <use width="744.09448" height="1052.3622" xlink:href="#id292"/>
   </g>
  </g>
  <g transform="matrix(1 0 0 -1 288.36 733.54)" clip-path="url(#id2603)">
   <g transform="matrix(.38512 0 0 -.74455 370.59 154.47)">
    <use width="744.09448" height="1052.3622" xlink:href="#id294"/>
   </g>
  </g>
  <g transform="matrix(1 0 0 -1 288.36 733.54)" clip-path="url(#id2604)">
   <g transform="matrix(.82156 0 0 -.42362 361.18 150.46)">
    <use width="744.09448" height="1052.3622" xlink:href="#id296"/>
   </g>
  </g>
  <g transform="matrix(1 0 0 -1 288.36 733.54)" clip-path="url(#id2605)">
   <g transform="matrix(2.2336 0 0 -1.3736 360.84 151.26)">
    <use width="744.09448" height="1052.3622" xlink:href="#id298"/>
   </g>
  </g>
  <g transform="matrix(1 0 0 -1 288.36 733.54)" clip-path="url(#id2606)">
   <g transform="matrix(1.6303 0 0 -1.5276 360.91 151.96)">
    <use width="744.09448" height="1052.3622" xlink:href="#id300"/>
   </g>
  </g>
  <g transform="matrix(1 0 0 -1 288.36 733.54)" clip-path="url(#id2610)">
   <g transform="matrix(.089859 0 0 -.089859 366.03 159.45)">
    <use width="744.09448" height="1052.3622" xlink:href="#id305"/>
   </g>
  </g>
  <g transform="matrix(1 0 0 -1 288.36 733.54)" clip-path="url(#id2611)">
   <g transform="matrix(.56484 0 0 -.26958 366.08 159.4)">
    <use width="744.09448" height="1052.3622" xlink:href="#id307"/>
   </g>
  </g>
  <g transform="matrix(1 0 0 -1 288.36 733.54)" clip-path="url(#id2612)">
   <g transform="matrix(1.81 0 0 -1.3864 365.89 159.4)">
    <use width="744.09448" height="1052.3622" xlink:href="#id309"/>
   </g>
  </g>
  <g transform="matrix(1 0 0 -1 288.36 733.54)" clip-path="url(#id2613)">
   <g transform="matrix(.064178 0 0 -.038513 369.36 157.81)">
    <use width="744.09448" height="1052.3622" xlink:href="#id311"/>
   </g>
  </g>
  <g transform="matrix(1 0 0 -1 288.36 733.54)" clip-path="url(#id2614)">
   <g transform="matrix(.46213 0 0 -.038513 368.93 157.81)">
    <use width="744.09448" height="1052.3622" xlink:href="#id313"/>
   </g>
  </g>
  <g transform="matrix(1 0 0 -1 288.36 733.54)" clip-path="url(#id2615)">
   <g transform="matrix(1.2965 0 0 -.26958 367.68 158.04)">
    <use width="744.09448" height="1052.3622" xlink:href="#id315"/>
   </g>
  </g>
  <g transform="matrix(1 0 0 -1 288.36 733.54)" clip-path="url(#id2616)">
   <g transform="matrix(.051346 0 0 -.051346 367.66 158.06)">
    <use width="744.09448" height="1052.3622" xlink:href="#id317"/>
   </g>
  </g>
  <g transform="matrix(1 0 0 -1 288.36 733.54)" clip-path="url(#id2617)">
   <g transform="matrix(3.4146 0 0 -1.8357 366.61 159.61)">
    <use width="744.09448" height="1052.3622" xlink:href="#id319"/>
   </g>
  </g>
  <g transform="matrix(1 0 0 -1 288.36 733.54)" clip-path="url(#id2618)">
   <g transform="matrix(.7317 0 0 -.66753 368.66 158.47)">
    <use width="744.09448" height="1052.3622" xlink:href="#id321"/>
   </g>
  </g>
  <g transform="matrix(1 0 0 -1 288.36 733.54)" clip-path="url(#id2619)">
   <g transform="matrix(.66753 0 0 -.62901 368.15 159.01)">
    <use width="744.09448" height="1052.3622" xlink:href="#id323"/>
   </g>
  </g>
  <g transform="matrix(1 0 0 -1 288.36 733.54)" clip-path="url(#id2620)">
   <g transform="matrix(2.991 0 0 -1.5404 366.43 159.31)">
    <use width="744.09448" height="1052.3622" xlink:href="#id325"/>
   </g>
  </g>
  <g transform="matrix(1 0 0 -1 288.36 733.54)" clip-path="url(#id2621)">
   <g transform="matrix(.78305 0 0 -.64185 368.61 158.42)">
    <use width="744.09448" height="1052.3622" xlink:href="#id327"/>
   </g>
  </g>
  <g transform="matrix(1 0 0 -1 288.36 733.54)" clip-path="url(#id2622)">
   <g transform="matrix(2.837 0 0 -1.3992 366.14 159.17)">
    <use width="744.09448" height="1052.3622" xlink:href="#id329"/>
   </g>
  </g>
  <g transform="matrix(1 0 0 -1 288.36 733.54)" clip-path="url(#id2628)">
   <g transform="matrix(2.5457 0 0 2.4244 371.19 151.18)">
    <use width="744.09448" height="1052.3622" xlink:href="#id336"/>
   </g>
  </g>
  <g transform="matrix(1 0 0 -1 288.36 733.54)" clip-path="url(#id2629)">
   <g transform="matrix(.4493 0 0 -.71887 370.05 155.59)">
    <use width="744.09448" height="1052.3622" xlink:href="#id338"/>
   </g>
  </g>
  <g transform="matrix(1 0 0 -1 288.36 733.54)" clip-path="url(#id2630)">
   <g transform="matrix(8.036 0 0 -3.1066 362.16 158.06)">
    <use width="744.09448" height="1052.3622" xlink:href="#id340"/>
   </g>
  </g>
  <g transform="matrix(1 0 0 -1 288.36 733.54)" clip-path="url(#id2631)">
   <g transform="matrix(.33376 0 0 -.82156 370.41 153.27)">
    <use width="744.09448" height="1052.3622" xlink:href="#id342"/>
   </g>
  </g>
  <g transform="matrix(1 0 0 -1 288.36 733.54)" clip-path="url(#id2632)">
   <g transform="matrix(.37227 0 0 -.55199 370.28 153.2)">
    <use width="744.09448" height="1052.3622" xlink:href="#id344"/>
   </g>
  </g>
  <g transform="matrix(1 0 0 -1 288.36 733.54)" clip-path="url(#id2633)">
   <g transform="matrix(1.335 0 0 -.71887 364.62 149.47)">
    <use width="744.09448" height="1052.3622" xlink:href="#id346"/>
   </g>
  </g>
  <g transform="matrix(1 0 0 -1 288.36 733.54)" clip-path="url(#id2634)">
   <g transform="matrix(2.6059 0 0 -1.0911 363.03 150.07)">
    <use width="744.09448" height="1052.3622" xlink:href="#id348"/>
   </g>
  </g>
  <g transform="matrix(1 0 0 -1 288.36 733.54)" clip-path="url(#id2635)">
   <g transform="matrix(4.5186 0 0 -1.0911 363.46 156.59)">
    <use width="744.09448" height="1052.3622" xlink:href="#id350"/>
   </g>
  </g>
  <g transform="matrix(1 0 0 -1 288.36 733.54)" clip-path="url(#id2636)">
   <g transform="matrix(.35944 0 0 -.57767 370.05 151.72)">
    <use width="744.09448" height="1052.3622" xlink:href="#id352"/>
   </g>
  </g>
  <g transform="matrix(1 0 0 -1 288.36 733.54)" clip-path="url(#id2637)">
   <g transform="matrix(.71887 0 0 -1.4249 369.94 152.69)">
    <use width="744.09448" height="1052.3622" xlink:href="#id354"/>
   </g>
  </g>
  <g transform="matrix(1 0 0 -1 288.36 733.54)" clip-path="url(#id2638)">
   <g transform="matrix(1.733 0 0 -2.0282 368.72 153.16)">
    <use width="744.09448" height="1052.3622" xlink:href="#id356"/>
   </g>
  </g>
  <g transform="matrix(1 0 0 -1 288.36 733.54)" clip-path="url(#id2639)">
   <g transform="matrix(.3466 0 0 -.25674 365.6 149.48)">
    <use width="744.09448" height="1052.3622" xlink:href="#id358"/>
   </g>
  </g>
  <g transform="matrix(1 0 0 -1 288.36 733.54)" clip-path="url(#id2640)">
   <g transform="matrix(2.0539 0 0 -1.0013 364.17 150.43)">
    <use width="744.09448" height="1052.3622" xlink:href="#id360"/>
   </g>
  </g>
  <g transform="matrix(1 0 0 -1 288.36 733.54)" clip-path="url(#id2641)">
   <g transform="matrix(7.3556 0 0 -1.5918 361.82 156.46)">
    <use width="744.09448" height="1052.3622" xlink:href="#id362"/>
   </g>
  </g>
  <g transform="matrix(1 0 0 -1 288.36 733.54)" clip-path="url(#id2642)">
   <g transform="matrix(.47498 0 0 -.55199 370.15 154.99)">
    <use width="744.09448" height="1052.3622" xlink:href="#id364"/>
   </g>
  </g>
  <g transform="matrix(1 0 0 -1 288.36 733.54)" clip-path="url(#id2643)">
   <g transform="matrix(.55199 0 0 -1.7202 370.19 154.88)">
    <use width="744.09448" height="1052.3622" xlink:href="#id366"/>
   </g>
  </g>
  <g transform="matrix(1 0 0 -1 288.36 733.54)" clip-path="url(#id2644)">
   <g transform="matrix(1.3479 0 0 -1.8742 369.38 155.03)">
    <use width="744.09448" height="1052.3622" xlink:href="#id368"/>
   </g>
  </g>
  <g transform="matrix(1 0 0 -1 288.36 733.54)" clip-path="url(#id2645)">
   <g transform="matrix(1.7073 0 0 -.57767 362.5 150.47)">
    <use width="744.09448" height="1052.3622" xlink:href="#id370"/>
   </g>
  </g>
  <g transform="matrix(1 0 0 -1 288.36 733.54)" clip-path="url(#id2646)">
   <g transform="matrix(7.3043 0 0 -6.4313 362.17 156.46)">
    <use width="744.09448" height="1052.3622" xlink:href="#id372"/>
   </g>
  </g>
  <g transform="matrix(1 0 0 -1 288.36 733.54)" clip-path="url(#id2656)">
   <g transform="matrix(.16688 0 0 -.21823 370.58 153.22)">
    <use width="744.09448" height="1052.3622" xlink:href="#id383"/>
   </g>
  </g>
  <g transform="matrix(1 0 0 -1 288.36 733.54)" clip-path="url(#id2664)">
   <g transform="matrix(.10269 0 0 -.1412 366 148.49)">
    <use width="744.09448" height="1052.3622" xlink:href="#id392"/>
   </g>
  </g>
  <g transform="matrix(1 0 0 -1 288.36 733.54)" clip-path="url(#id2665)">
   <g transform="matrix(.12837 0 0 -.33376 365.92 148.79)">
    <use width="744.09448" height="1052.3622" xlink:href="#id394"/>
   </g>
  </g>
  <g transform="matrix(1 0 0 -1 288.36 733.54)" clip-path="url(#id2666)">
   <g transform="matrix(.064178 0 0 -.51347 365.89 149.26)">
    <use width="744.09448" height="1052.3622" xlink:href="#id396"/>
   </g>
  </g>
  <g transform="matrix(1 0 0 -1 288.36 733.54)" clip-path="url(#id2667)">
   <g transform="matrix(.051346 0 0 -.2439 365.89 149.47)">
    <use width="744.09448" height="1052.3622" xlink:href="#id398"/>
   </g>
  </g>
  <g transform="matrix(1 0 0 -1 288.36 733.54)" clip-path="url(#id2668)">
   <g transform="matrix(7.0915 0 0 1.9395 365.93 147.69)">
    <use width="744.09448" height="1052.3622" xlink:href="#id400"/>
   </g>
  </g>
  <g transform="matrix(1 0 0 -1 288.36 733.54)" clip-path="url(#id2669)">
   <g transform="matrix(2.3492 0 0 -.80873 366.88 148.74)">
    <use width="744.09448" height="1052.3622" xlink:href="#id402"/>
   </g>
  </g>
  <g transform="matrix(1 0 0 -1 288.36 733.54)" clip-path="url(#id2670)">
   <g transform="matrix(2.4005 0 0 -1.3094 369.22 149.24)">
    <use width="744.09448" height="1052.3622" xlink:href="#id404"/>
   </g>
  </g>
  <g transform="matrix(1 0 0 -1 288.36 733.54)" clip-path="url(#id2672)">
   <g transform="matrix(.19255 0 0 -.30809 366.05 150.43)">
    <use width="744.09448" height="1052.3622" xlink:href="#id407"/>
   </g>
  </g>
  <g transform="matrix(1 0 0 -1 288.36 733.54)" clip-path="url(#id2673)">
   <g transform="matrix(.25674 0 0 -.28241 366.19 150.68)">
    <use width="744.09448" height="1052.3622" xlink:href="#id409"/>
   </g>
  </g>
  <g transform="matrix(1 0 0 -1 288.36 733.54)" clip-path="url(#id2678)">
   <g transform="matrix(7.0915 0 0 2.6063 365.96 148.15)">
    <use width="744.09448" height="1052.3622" xlink:href="#id415"/>
   </g>
  </g>
  <g transform="matrix(1 0 0 -1 288.36 733.54)" clip-path="url(#id2679)">
   <g transform="matrix(2.1694 0 0 -2.3363 367.68 150.51)">
    <use width="744.09448" height="1052.3622" xlink:href="#id417"/>
   </g>
  </g>
  <g transform="matrix(1 0 0 -1 288.36 733.54)" clip-path="url(#id2680)">
   <g transform="matrix(.50064 0 0 -1.4891 371.54 150.37)">
    <use width="744.09448" height="1052.3622" xlink:href="#id419"/>
   </g>
  </g>
  <g transform="matrix(1 0 0 -1 288.36 733.54)" clip-path="url(#id2682)">
   <g transform="matrix(.66672 0 0 .84856 370.45 149.1)">
    <use width="744.09448" height="1052.3622" xlink:href="#id422"/>
   </g>
  </g>
  <g transform="matrix(1 0 0 -1 288.36 733.54)" clip-path="url(#id2683)">
   <g transform="matrix(.74455 0 0 -.84724 370.36 150.05)">
    <use width="744.09448" height="1052.3622" xlink:href="#id424"/>
   </g>
  </g>
  <use transform="matrix(1 0 0 -1 288.36 733.54)" width="744.09448" height="1052.3622" opacity=".98" xlink:href="#id2932"/>
  <use transform="matrix(1 0 0 -1 288.36 733.54)" width="744.09448" height="1052.3622" opacity=".98" xlink:href="#id2935"/>
  <use transform="matrix(1 0 0 -1 288.36 733.54)" width="744.09448" height="1052.3622" opacity=".98" xlink:href="#id2938"/>
  <use transform="matrix(1 0 0 -1 288.36 733.54)" width="744.09448" height="1052.3622" opacity=".98" xlink:href="#id2941"/>
  <use transform="matrix(1 0 0 -1 288.36 733.54)" width="744.09448" height="1052.3622" opacity=".98" xlink:href="#id2944"/>
  <use transform="matrix(1 0 0 -1 288.36 733.54)" width="744.09448" height="1052.3622" opacity=".98" xlink:href="#id3685"/>
  <use transform="matrix(1 0 0 -1 288.36 733.54)" width="744.09448" height="1052.3622" opacity=".98" xlink:href="#id3688"/>
  <use transform="matrix(1 0 0 -1 288.36 733.54)" width="744.09448" height="1052.3622" opacity=".98" xlink:href="#id3691"/>
  <g transform="matrix(1 0 0 -1 288.36 733.54)" clip-path="url(#id3697)">
   <g transform="matrix(3.9015 0 0 3.9015 481.21 214.3)">
    <use width="744.09448" height="1052.3622" xlink:href="#id1442"/>
   </g>
  </g>
  <g transform="matrix(1 0 0 -1 288.36 733.54)" clip-path="url(#id3698)">
   <g transform="matrix(15.273 0 0 4.9892 496.66 207.07)">
    <use width="744.09448" height="1052.3622" xlink:href="#id1444"/>
   </g>
  </g>
  <g transform="matrix(1 0 0 -1 288.36 733.54)" clip-path="url(#id3702)">
   <g transform="matrix(.4539 0 0 3.6242 522.71 212.3)">
    <use width="744.09448" height="1052.3622" xlink:href="#id1449"/>
   </g>
  </g>
  <g transform="matrix(1 0 0 -1 288.36 733.54)" clip-path="url(#id3703)">
   <g transform="matrix(.66263 0 0 1.3432 532.15 210.97)">
    <use width="744.09448" height="1052.3622" xlink:href="#id1451"/>
   </g>
  </g>
  <g transform="matrix(21.578 0 0 -17.55 748.17 337.61)">
   <use width="744.09448" height="1052.3622" xlink:href="#id3762"/>
  </g>
  <g transform="matrix(1 0 0 -1 288.36 733.54)" clip-path="url(#id3767)">
   <g transform="matrix(5.6442 0 0 5.6442 402.86 404.22)">
    <use width="744.09448" height="1052.3622" xlink:href="#id3765"/>
   </g>
  </g>
  <g transform="matrix(1 0 0 -1 288.36 733.54)" clip-path="url(#id3781)">
   <g transform="matrix(.18123 0 0 -.39265 360.82 401.48)">
    <use width="744.09448" height="1052.3622" xlink:href="#id3772"/>
   </g>
  </g>
  <g transform="matrix(1 0 0 -1 288.36 733.54)" clip-path="url(#id3782)">
   <g transform="matrix(7.9436 0 0 -8.1853 369.88 406.94)">
    <use width="744.09448" height="1052.3622" xlink:href="#id3774"/>
   </g>
  </g>
  <g transform="matrix(1 0 0 -1 288.36 733.54)" clip-path="url(#id3783)">
   <g transform="matrix(2.9902 0 0 -6.1012 366.98 409.21)">
    <use width="744.09448" height="1052.3622" xlink:href="#id3776"/>
   </g>
  </g>
  <g transform="matrix(1 0 0 -1 288.36 733.54)" clip-path="url(#id3784)">
   <g transform="matrix(1.5706 0 0 -.39265 371.03 407.24)">
    <use width="744.09448" height="1052.3622" xlink:href="#id3778"/>
   </g>
  </g>
  <g transform="matrix(36.701 0 0 -20.645 615.51 513.2)">
   <use width="744.09448" height="1052.3622" xlink:href="#id3786"/>
  </g>
  <g transform="matrix(29.492 0 0 -12.344 692.64 506.59)">
   <use width="744.09448" height="1052.3622" xlink:href="#id3788"/>
  </g>
  <g transform="matrix(1 0 0 -1 288.36 733.54)" clip-path="url(#id3791)">
   <g transform="matrix(29.492 0 0 12.344 404.27 226.95)">
    <use width="744.09448" height="1052.3622" xlink:href="#id3790"/>
   </g>
  </g>
  <g transform="matrix(82.107 0 0 -82.107 700.91 187.79)">
   <path d="m0 0h6.141v6.545l-4.129 0.555z" fill="#006100"/>
  </g>
  <g transform="matrix(82.107 0 0 -82.107 283.31 -470.71)">
   <path d="m0 0v-8.02h2.627l2.096 7.403z" fill="#006100"/>
  </g>
  <g transform="matrix(82.107 0 0 -82.107 1205 -734.19)">
   <path d="m0 0h-11.227v-0.82l11.227-1.475z" fill="#006100"/>
  </g>
  <g transform="matrix(82.107 0 0 -82.107 283.31 -666.78)">
   <path d="m0 0v-2.389l4.723-0.617-2.096-7.402h2.459l2.012 7.099 4.129-0.554v2.388z" fill="#fff"/>
  </g>
  <path d="m462.82 184.06h0.672z" fill="#81a5d2"/>
  <path d="m461.5 181.16h2.137z" fill="#81a5d2"/>
  <path d="m472.18 184.9h-1.301z" fill="#5b8dc4"/>
  <path d="m469.03 181.16h1.635z" fill="#81a5d2"/>
  <path d="m470.56 184.9h-1.369z" fill="#5b8dc4"/>
  <path d="m484.11 184.9h-0.551z" fill="#5b8dc4"/>
  <path d="m484.11 182.81h1.074z" fill="#81a5d2"/>
  <path d="m473.44 183.74h0.574z" fill="#81a5d2"/>
  <g fill="#100d0d">
   <path d="m428.72 287.88h-50.824v194.51h-46.965v-194.51h-50.742v-38.18h148.53z"/>
   <path d="m578.32 287.88h-82.928v55.34h78.084v38.016h-78.084v62.812h86.131v38.344h-133.1v-232.69h129.89z"/>
   <path d="m715.77 408.91h0.49264v-159.21h42.778v232.69h-53.206l-57.065-162.98h-0.65686v162.98h-42.86v-232.69h54.027z"/>
   <path d="m902.48 408.91h0.49264v-159.21h42.778v232.69h-53.206l-56.9-162.98h-0.65686v162.98h-42.86v-232.69h53.862z"/>
   <path d="m980.9 249.68h46.801v232.69h-46.801z"/>
   <path d="m1100.4 416.46c0 5.4191 0.4926 10.263 1.3137 14.944 0.739 4.4338 2.5453 7.9644 4.9265 11.002 2.299 3.2022 5.5011 5.5012 9.6065 7.2254 3.8591 1.8064 9.0318 2.6274 14.944 2.6274 7.2254 0 13.63-2.1348 19.377-6.897 5.8296-4.5159 8.7034-11.741 8.7034-21.676 0-5.1728-0.8211-9.4424-2.1348-13.466-1.3959-3.6948-3.777-7.2254-7.0613-10.263-3.2021-3.038-7.6359-5.7475-12.973-8.3749-5.2549-2.3811-11.659-4.9264-19.706-7.5539-10.263-3.5306-19.213-7.3076-26.931-11.331-7.5539-4.1875-13.958-9.0318-19.131-14.451-4.9264-5.5833-8.9497-11.988-11.331-19.213-2.1348-7.2254-3.5306-15.765-3.5306-25.207 0-22.908 6.5686-40.068 19.213-51.481 12.809-11.249 30.462-16.832 52.795-16.832 10.428 0 20.034 1.3137 28.82 3.3664 8.8676 2.2169 16.422 6.2402 22.826 11.249 6.4044 4.9264 11.331 11.495 15.026 19.542 3.5306 7.8823 5.3369 17.325 5.3369 28.409v6.4044h-44.913c0-10.92-1.9705-19.459-5.9117-25.535-3.859-5.9117-10.263-8.9497-19.459-8.9497-5.2549 0-9.6066 0.82107-13.137 2.3811-3.3664 1.4779-6.076 3.3664-8.1286 5.9117-2.1348 2.6274-3.3664 5.5012-4.3517 8.7034-0.6569 3.2022-0.9853 6.5686-0.9853 10.099 0 7.0612 1.4779 13.137 4.5159 18.146 3.038 4.598 9.4423 9.2781 19.542 13.301l36.209 15.683c8.8676 3.859 16.257 7.8823 21.84 12.234 5.5833 4.1054 10.263 8.6213 13.63 13.63 3.3664 4.9264 5.5833 10.263 6.8971 16.011 1.3137 5.7475 1.9705 12.48 1.9705 19.542 0 24.55-7.2254 42.367-21.348 53.616-14.122 11.167-33.992 16.832-59.528 16.832-26.439 0-45.405-5.9938-56.736-17.325-11.413-11.741-17.16-28.245-17.16-49.757v-9.2781h46.965z"/>
   <path d="m350.48 545.86c-2.0527-4.0233-5.7475-5.7475-11.249-5.7475-2.8738 0-5.4191 0.73896-7.5539 2.3811-1.7243 1.4779-3.2022 4.1875-4.2696 7.7181-1.1495 3.5306-1.9706 8.1286-2.4632 13.958-0.41054 5.9117-0.57475 12.973-0.57475 21.266 0 8.8676 0.32843 16.093 0.90318 21.512 0.65686 5.6654 1.6421 9.935 2.9559 12.809 1.2316 3.1201 2.8738 5.0085 4.7622 6.158 1.9706 1.0674 4.1875 1.56 6.5686 1.56 2.1348 0 4.1875-0.49265 6.076-1.1495 1.8064-0.73896 3.2022-2.0527 4.5159-4.2696 1.4779-2.1348 2.3811-5.1728 3.3664-9.0318 0.65686-3.859 1.1495-8.9497 1.1495-15.354h23.729c0 6.4044-0.65686 12.316-1.6422 17.982-0.90318 5.7475-2.7095 10.838-5.4191 15.026-2.7095 4.5159-6.5686 7.7181-11.413 10.263-4.9264 2.299-11.331 3.5306-19.049 3.5306-9.196 0-16.093-1.2316-21.348-4.1875-5.2549-2.8738-9.4423-7.1433-12.152-12.645-2.9559-5.0906-4.6801-11.577-5.5012-18.885-0.82107-7.5539-1.2316-15.929-1.2316-24.879s0.41054-17.325 1.2316-24.879c0.82108-7.3897 2.5453-13.958 5.5012-19.377 2.7095-5.337 6.897-9.6066 12.152-12.562 5.2549-3.038 12.152-4.598 21.348-4.598 8.4571 0 15.026 1.3958 19.87 4.1875 5.0086 2.8738 8.7855 6.2402 11.084 10.428 2.2169 4.2696 4.0233 8.9497 4.4338 13.794 0.65686 4.7622 0.98529 9.6066 0.98529 13.794h-23.729c0-8.7034-0.98529-14.779-3.038-18.803"/>
   <path d="m465.34 524.68v45.405h27.752v-45.405h23.729v118.07h-23.729v-52.467h-27.752v52.467h-23.893v-118.07z"/>
   <path d="m631.78 598.33-11.249-53.041h-0.32842l-11.331 53.041zm3.3664-73.568 30.954 117.99h-24.714l-5.4191-24.714h-31.283l-5.4191 24.714h-24.879l31.283-117.99z"/>
   <path d="m780.06 605.55h0.32843v-80.794h21.676v117.99h-27.013l-29.148-82.6h-0.32843v82.6h-21.676v-117.99h27.588z"/>
   <path d="m924.41 605.55h0.16421v-80.794h21.841v117.99h-27.178l-28.984-82.6h-0.49265v82.6h-21.512v-117.99h27.424z"/>
   <path d="m1078.4 544.47h-42.203v27.588h39.658v19.542h-39.658v31.611h43.845v19.542h-67.574v-117.99h65.932z"/>
   <path d="m1141.4 524.68h23.729v98.447h42.203v19.624h-65.932z"/>
  </g>
  <g transform="matrix(16.079 0 0 -15.312 624.79 128.42)">
   <use width="744.09448" height="1052.3622" xlink:href="#id3793"/>
  </g>
  <g transform="matrix(31.435 0 0 -14.015 835.82 449.81)">
   <use width="744.09448" height="1052.3622" xlink:href="#id10"/>
  </g>
 </g>
</svg>
