<svg width="2191.4pt" height="822pt" version="1.1" viewBox="0 0 2191.4 822" xmlns="http://www.w3.org/2000/svg">
 <path d="m946.75 0.0075027h85.245v821.99h-85.245z" fill="#244aa5" stroke-width="1.0005"/>
 <path d="m2106.1 0.0074959h85.245v821.99h-85.245z" fill="#244aa5" stroke-width="1.0005"/>
 <g transform="translate(-.2521 -2.9978)" fill="#244aa5">
  <path transform="scale(.75)" d="m1552.6 382.7v429.61h156.01v-164.65h186.33v164.65h156.01v-429.61h-156.01v156.97h-186.33v-156.97z" stroke-width="1.3333"/>
  <path d="m1601 287.02h182.98c126.66 0 194.04 34.414 194.04 162.98 0 121.39-68.804 159.24-194.04 159.24h-182.98v-322.21m113 76.975v172h46c72.952 0 103.65-24.081 105.07-86 0.6135-63.477-30.619-87.048-105.07-86z"/>
 </g>
 <g transform="matrix(2.924 0 0 2.924 -1665 -754.63)">
  <path d="m569.41 258.08h281.12v281.12h-281.12z" fill="#244aa5"/>
  <path d="m623.42 464.42c-2.6967-2.3372-7.5509-3.8953-12.405-3.8953-7.9704 0-14.982 4.2549-18.817 11.386-2.2173 4.2549-3.296 9.109-3.296 15.222 0 7.1913 1.9776 13.124 5.9328 17.559 4.0152 4.6744 9.2289 6.7718 16.061 6.7718 5.5733 0 9.7083-1.3783 13.544-4.5545l-4.4346-6.1726c-2.9365 2.2772-5.5733 3.1162-8.4498 3.1162-4.1949 0-7.491-1.8578-9.4686-5.5134-1.4982-2.6368-2.0375-6.4123-2.0375-13.064 0-5.7531 0.83899-9.8281 2.7567-12.645 1.7379-2.6368 5.0339-4.2549 8.33-4.2549 2.7567 0 5.3336 0.89891 7.8505 2.7567l4.4346-6.7119" fill="#fff" fill-rule="evenodd"/>
  <path d="m629.11 460.61c0.41949 1.4982 0.71913 4.8541 0.71913 8.27v41.77h9.5884v-25.889c2.0975-1.9177 5.1538-3.356 7.491-3.356 2.6967 0 3.6556 1.3184 3.6556 4.974v24.271h9.2888v-25.289c0-3.4159-0.23971-4.6744-0.95885-6.7119-1.1386-3.1162-4.7942-5.1538-9.4086-5.1538-3.6556 0-7.7307 1.5581-10.248 3.8953 0-0.41949 0.17978-1.8578 0.17978-2.9964v-7.2512c0-3.4159-0.23971-6.8318-0.65921-8.8094l-9.6484 2.2772" fill="#fff" fill-rule="evenodd"/>
  <path d="m685.55 494.84-0.11985 7.7307c-1.4383 1.618-3.1762 2.517-4.974 2.517-2.3971 0-4.135-1.9177-4.135-4.7343 0-4.3148 2.2772-5.5133 8.8094-5.5133zm-18.578-16.061 4.0152 6.8318c3.9552-2.6368 7.431-4.0751 10.487-4.0751 3.4159 0 4.1949 1.2585 4.1949 5.3336v1.4982c-0.77906-0.11986-1.3783-0.11986-2.0975-0.11986-11.506 0-17.379 3.9552-17.379 12.465 0 7.1314 4.4346 11.266 12.465 11.266 2.9365 0 5.4534-0.71913 7.2512-1.9776 0.65921-0.53935 1.4982-1.1986 2.1574-1.9177 0.89891 1.8578 2.8765 3.4159 5.0938 4.3747l5.0339-5.753c-2.7567-2.0375-3.4159-3.5357-3.4159-7.431v-0.6592l0.23971-12.105c0.0599-3.8953-0.11986-4.974-0.59928-6.4722-1.4383-4.0751-5.6332-6.3523-11.686-6.3523-3.356 0-6.3523 0.6592-9.8881 2.1574-2.517 1.0188-3.9552 1.7379-5.8729 2.9365" fill="#fff" fill-rule="evenodd"/>
  <path d="m702.28 475.99c0.83899 2.3971 1.2585 5.3336 1.2585 8.4498v26.188h9.4686v-25.529c2.2173-1.9776 4.6744-3.296 6.592-3.296 2.457 0 3.1762 1.2585 3.1762 5.3336v23.492h9.2289v-26.368c0-2.2772-0.17979-3.8354-0.59928-5.1538-1.1986-3.1162-4.6744-5.2137-8.6895-5.2137-2.1574 0-4.6744 0.53934-6.5321 1.5581-1.5581 0.77906-2.7567 1.678-4.1949 2.6968 0-1.5581-0.47942-3.0563-1.3184-4.5545l-8.3899 2.3971" fill="#fff" fill-rule="evenodd"/>
  <path d="m739.12 475.99c0.83899 2.3971 1.2585 5.3336 1.2585 8.4498v26.188h9.4686v-25.529c2.1574-1.9776 4.6744-3.296 6.5321-3.296 2.457 0 3.1762 1.2585 3.1762 5.3336v23.492h9.3487v-26.368c0-2.2772-0.17979-3.8354-0.71914-5.1538-1.1386-3.1162-4.6744-5.2137-8.6895-5.2137-2.0975 0-4.5545 0.53934-6.4722 1.5581-1.5581 0.77906-2.7567 1.678-4.1949 2.6968 0-1.5581-0.47942-3.0563-1.3184-4.5545l-8.3899 2.3971" fill="#fff" fill-rule="evenodd"/>
  <path d="m785.83 488.61v-0.11985c0-5.0339 2.0375-7.8505 5.6332-7.8505 1.9177 0 3.2361 0.71913 4.1949 2.1574 0.83899 1.3184 1.0787 2.6967 1.0787 5.3935v0.41949zm16.66 12.345c-2.8765 2.3971-5.9328 3.6556-9.1689 3.6556-4.8541 0-7.6108-3.2361-7.6108-8.7494v-0.29964h20.855v-2.2173c0-7.5509-1.4982-12.405-4.7942-15.821-2.3372-2.3971-6.2924-3.7754-10.427-3.7754-4.7942 0-8.4498 1.5581-11.386 4.8541-3.1762 3.5357-4.4946 7.8505-4.4946 14.323 0 11.386 6.7119 18.697 17.019 18.697 5.0938 0 9.5285-1.618 13.664-4.974l-3.6556-5.6931" fill="#fff" fill-rule="evenodd"/>
  <path d="m822.48 458.42-9.6484 2.1574c0.29964 3.296 0.47942 6.2325 0.47942 10.907v26.908c0 5.2137 0.17978 6.3523 0.83899 8.1502 1.1386 3.0563 4.4346 4.9141 8.3899 4.9141 2.0975 0 4.0751-0.29964 5.6931-0.89891l-1.618-5.6931c-0.53934 0.11985-0.71913 0.11985-1.0787 0.11985-0.77906 0-1.5581-0.35956-1.8578-0.95884-0.59928-1.0188-0.65921-1.8578-0.65921-8.0303v-28.226c0-5.0339-0.11985-7.3711-0.53935-9.3487" fill="#fff" fill-rule="evenodd"/>
  <path d="m587.07 395.54 11.746 49.5h11.206l4.0751-20.196c1.4982-7.1314 2.3372-14.083 2.3372-14.083 0.11985 1.3783 0.83898 7.6707 2.3372 14.263l4.3747 20.016h10.787l11.866-49.5h-10.367l-4.0751 18.578c-0.95885 4.8541-2.517 14.802-2.6368 16.36 0 0-1.1986-8.3899-2.1574-13.004l-4.4946-21.934h-10.787l-4.3747 19.836c-1.4982 6.7718-2.3372 13.783-2.517 15.641 0 0-0.6592-6.9516-2.6368-16.121l-4.2549-19.357h-10.427" fill="#fff" fill-rule="evenodd"/>
  <path d="m655.67 422.57v-0.11985c0-5.0339 2.0376-7.8505 5.6332-7.8505 1.9177 0 3.2361 0.71914 4.1949 2.1574 0.77906 1.3184 1.0787 2.6967 1.0787 5.3935v0.41949zm16.66 12.345c-2.8765 2.3971-5.9328 3.5957-9.1689 3.5957-4.8541 0-7.6108-3.1762-7.6108-8.6895v-0.29964h20.855v-2.2173c0-7.5509-1.4982-12.405-4.7942-15.821-2.2773-2.3971-6.2924-3.8354-10.427-3.8354-4.7942 0-8.4498 1.618-11.326 4.9141-3.2361 3.5357-4.5545 7.8505-4.5545 14.323 0 11.386 6.7119 18.697 17.079 18.697 5.0939 0 9.4686-1.618 13.604-5.0339l-3.6556-5.6332" fill="#fff" fill-rule="evenodd"/>
  <path d="m700.04 428.79-0.11986 7.7307c-1.4383 1.618-3.1762 2.457-4.974 2.457-2.3971 0-4.135-1.8578-4.135-4.6744 0-4.3148 2.2773-5.5133 8.8094-5.5133zm-18.578-16.061 4.0152 6.8318c3.8953-2.6368 7.431-4.0751 10.487-4.0751 3.4758 0 4.1949 1.2585 4.1949 5.3336v1.4982c-0.71913-0.11986-1.3783-0.11986-2.0975-0.11986-11.506 0-17.379 3.9552-17.379 12.405 0 7.2512 4.3747 11.326 12.405 11.326 2.9964 0 5.5133-0.71913 7.3112-1.9776 0.65921-0.47942 1.4982-1.1986 2.1574-1.9177 0.89891 1.8578 2.9364 3.4758 5.0938 4.3747l5.0339-5.753c-2.7567-2.0375-3.4159-3.5357-3.4159-7.431v-0.65921l0.23971-12.165c0.0599-3.8354-0.11986-4.9141-0.59928-6.4722-1.4383-4.0152-5.6332-6.2924-11.686-6.2924-3.356 0-6.3523 0.6592-9.8881 2.1574-2.517 1.0188-3.9552 1.7379-5.8729 2.9364" fill="#fff" fill-rule="evenodd"/>
  <path d="m736.04 408.47h-8.4498c0-3.7155 0.17978-7.6108 0.53935-10.907l-9.5884 2.3971c-0.35957 2.6368-0.35957 4.974-0.35957 8.5097h-3.5957v6.4722h3.5957v19.596c0 3.356 0.0599 4.0751 0.59928 5.6332 1.1386 3.1762 4.974 5.2736 9.7682 5.2736 2.457 0 4.9141-0.47943 7.7307-1.618l-1.2585-5.6332c-1.678 0.47942-2.517 0.6592-3.356 0.6592-3.2361 0-4.0751-1.1986-4.0751-5.753v-18.158h6.0527l2.3971-6.4722" fill="#fff" fill-rule="evenodd"/>
  <path d="m740.13 394.56c0.41949 1.4982 0.71913 4.8541 0.71913 8.2101v41.83h9.5884v-25.889c2.1574-1.9177 5.1538-3.296 7.491-3.296 2.6967 0 3.6556 1.3184 3.6556 4.9141v24.271h9.2888v-25.23c0-3.4758-0.29964-4.6744-0.95884-6.7718-1.1386-3.1162-4.7942-5.1538-9.4086-5.1538-3.6556 0-7.7307 1.5581-10.248 3.9552 0-0.47943 0.17979-1.9177 0.17979-3.0563v-7.1913c0-3.4758-0.17979-6.8318-0.65921-8.8693l-9.6484 2.2772" fill="#fff" fill-rule="evenodd"/>
  <path d="m786.04 422.57v-0.11985c0-5.0339 2.0375-7.8505 5.6332-7.8505 1.9776 0 3.2361 0.71914 4.1949 2.1574 0.83898 1.3184 1.0787 2.6967 1.0787 5.3935v0.41949zm16.66 12.345c-2.8765 2.3971-5.9328 3.5957-9.1689 3.5957-4.8542 0-7.6108-3.1762-7.6108-8.6895v-0.29964h20.915v-2.2173c0-7.5509-1.4982-12.405-4.8541-15.821-2.2772-2.3971-6.2924-3.8354-10.427-3.8354-4.7942 0-8.3899 1.618-11.326 4.9141-3.1762 3.5357-4.5545 7.8505-4.5545 14.323 0 11.386 6.7119 18.697 17.079 18.697 5.0938 0 9.4686-1.618 13.604-5.0339l-3.6556-5.6332" fill="#fff" fill-rule="evenodd"/>
  <path d="m812 409.86c0.77906 2.0375 1.3184 5.6931 1.3184 10.607v24.091h9.4686v-25.529c1.7978-2.0375 3.7155-2.9964 5.813-2.9964 1.0188 0 1.7978 0.17978 2.7567 0.71913l2.5769-8.3899c-1.4383-0.6592-2.0975-0.77905-3.5357-0.77905-1.0188 0-2.3372 0.23971-3.0563 0.59927-1.7978 0.77906-4.0152 2.6968-5.3935 4.6144-0.11986-2.0975-0.59928-3.6556-1.4982-5.2137l-8.4498 2.2772" fill="#fff" fill-rule="evenodd"/>
  <path d="m587.43 330.6v8.2101h11.986v40.871h10.008v-40.871h11.746l1.618-8.2101z" fill="#fff" fill-rule="evenodd"/>
  <path d="m627 329.61c0.41949 1.4982 0.71913 4.8541 0.71913 8.2101v41.83h9.5884v-25.889c2.0975-1.9177 5.1538-3.296 7.491-3.296 2.6967 0 3.6556 1.2585 3.6556 4.9141v24.271h9.2888v-25.289c0-3.4159-0.29963-4.6744-0.95884-6.7119-1.1386-3.1162-4.7942-5.1538-9.4086-5.1538-3.6556 0-7.7307 1.5581-10.248 3.8953 0-0.4195 0.17979-1.8578 0.17979-2.9964v-7.2512c0-3.4159-0.23971-6.8318-0.65921-8.8094l-9.6484 2.2772" fill="#fff" fill-rule="evenodd"/>
  <path d="m674.33 357.63v-0.17979c0-4.974 2.0376-7.7906 5.6931-7.7906 1.8578 0 3.1762 0.71913 4.135 2.0975 0.83899 1.3783 1.0787 2.7567 1.0787 5.4534v0.4195zm16.66 12.345c-2.8765 2.3971-5.9328 3.5957-9.1689 3.5957-4.8541 0-7.6108-3.1762-7.6108-8.7494v-0.23971h20.855v-2.2173c0-7.5509-1.4982-12.465-4.7942-15.821-2.2773-2.3971-6.2924-3.8354-10.427-3.8354-4.7942 0-8.3899 1.618-11.326 4.9141-3.1762 3.5357-4.5545 7.8505-4.5545 14.263 0 11.446 6.7119 18.757 17.079 18.757 5.0339 0 9.4686-1.618 13.664-5.0339l-3.7155-5.6332" fill="#fff" fill-rule="evenodd"/>
 </g>
</svg>
