<svg width="264.58mm" height="198.7mm" version="1.1" viewBox="0 0 264.58 198.7" xmlns="http://www.w3.org/2000/svg">
 <g transform="translate(64.256 -19.244)">
  <g transform="matrix(.26458 0 0 .26458 -64.251 19.221)" fill="#ede7d1" fill-opacity=".94118">
   <path d="m860.56 449.02v-47.656h-38.002v47.656h-29.057l0.032-106.94h29.025l0.063 34.824h38.031l-0.092-34.824h29.273v106.94h-29.273"/>
   <path d="m945.39 449.02h-44.82v-106.94h44.82c30.969 0 54.596 23.072 54.596 53.455s-23.627 53.486-54.596 53.486m5.551-83.56h-22.332v59.656h22.332c13.572 0 24.246-16.164 24.246-29.582 0-13.387-10.674-30.074-24.246-30.074z"/>
   <path d="m751.1 375.54c0 207.38-168.17 375.55-375.57 375.55-207.42 0-375.55-168.17-375.55-375.55 0-19.59 1.49-38.82 4.4-57.58h80.2v221.9h76.08v-221.9h85.23v221.9h72.68v-165.43h1.56l96.78 144.89c9.63 15.28 18.5 20.54 37 20.54h49.96v-221.9h85.51v221.9h74.83v-221.9h82.46c2.911 18.76 4.43 37.99 4.43 57.58z"/>
   <path d="m243.26 263.46h73.622c18.536 0 27.785 5.214 37.036 20.51l76.028 118.42h2.632v-138.93h301.34c-47.671-152.61-190.13-263.37-358.49-263.37-168.34 0-310.84 110.76-358.51 263.37h226.33"/>
  </g>
 </g>
</svg>
