<svg width="987.09" height="246.74" version="1.1" viewBox="0 0 987.09 246.74" xmlns="http://www.w3.org/2000/svg">
 <g transform="translate(-8e-5 .0012)">
  <path d="m123.37-0.0012c-68.135 4.7e-4 -123.37 55.234-123.37 123.37 4.6e-4 68.135 55.234 123.37 123.37 123.37 68.135-4.6e-4 123.37-55.234 123.37-123.37-4.7e-4 -68.135-55.234-123.37-123.37-123.37z" color="#000000" color-rendering="auto" fill="#231f20" image-rendering="auto" shape-rendering="auto" solid-color="#000000" style="isolation:auto;mix-blend-mode:normal"/>
  <path d="m197.71 126.23h13.8l-30.969-70.669h-20.749l31.081 70.669h-14.156v18.744c0.0525 11.371-4.7012 16.227-20.155 16.02v36.181h20.558v-36.18h6.6454c5.899 0.15979 13.859-4.6196 13.943-13.904v-20.861zm-59.547-70.669h-37.878c-31.08 0-56.644 21.697-56.644 53.885 0 27.066 16.274 46.393 40.613 50.081v37.648h50.601v-36.18h7.0442c8.1965-0.80005 13.758-6.2278 13.862-13.833v-20.931h13.775zm-10.6 61.95c-7.5574 0-13.685-6.1392-13.685-13.711 0-7.5574 6.1276-13.697 13.685-13.697 7.5819 0 13.701 6.1392 13.701 13.697 0 7.5714-6.1182 13.711-13.701 13.711" stroke-width="1.1663"/>
  <path d="m100.28 55.558h37.879l31.373 70.668h-13.774v20.931c-0.10375 7.6052-5.6665 13.033-13.863 13.833h-7.0432v36.179h-50.6v-37.646c-24.339-3.6877-40.614-23.016-40.614-50.081 0-32.188 25.564-53.885 56.644-53.885zm59.509 0h20.749l30.968 70.668h-13.802v20.861c-0.084 9.2846-8.0438 14.064-13.943 13.904h-6.6445v36.179h-20.558v-36.179c15.454 0.2076 20.207-4.6491 20.155-16.02v-18.745h14.157l-31.081-70.668zm-32.229 34.542c-7.5574 0-13.685 6.1394-13.685 13.697 0 7.5714 6.128 13.71 13.685 13.71 7.5831 0 13.701-6.1391 13.701-13.71 0-7.5574-6.1194-13.697-13.701-13.697z" color="#000000" color-rendering="auto" fill="#fff" image-rendering="auto" shape-rendering="auto" solid-color="#000000" style="isolation:auto;mix-blend-mode:normal"/>
  <path d="m197.71 126.23h13.8l-30.969-70.669h-20.749l31.081 70.669h-14.156v18.744c0.0525 11.371-4.7012 16.227-20.155 16.02v36.181h20.558v-36.18h6.6454c5.899 0.15979 13.859-4.6196 13.943-13.904v-20.861zm-59.547-70.669h-37.878c-31.08 0-56.644 21.697-56.644 53.885 0 27.066 16.274 46.393 40.613 50.081v37.648h50.601v-36.18h7.0442c8.1965-0.80005 13.758-6.2278 13.862-13.833v-20.931h13.775zm-10.6 61.95c-7.5574 0-13.685-6.1392-13.685-13.711 0-7.5574 6.1276-13.697 13.685-13.697 7.5819 0 13.701 6.1392 13.701 13.697 0 7.5714-6.1182 13.711-13.701 13.711" fill="#fff"/>
  <path class="cls-2" d="m385.61 37.202s-50.292-27.361-67.171-36.612a1.4763 1.4763 0 0 0-2.0176 0.59051 1.1318 1.1318 0 0 0 0 0.68893v29.526a2.9034 2.9034 0 0 0 1.4763 2.4605c16.731 8.9561 65.941 35.972 65.941 35.972a4.3797 4.3797 0 0 0 3.2478 0.39368l134.64-36.514a1.7715 1.7715 0 0 0 1.3287-1.7223v-30.018a1.6239 1.6239 0 0 0-1.4271-1.5747h-0.34446z" fill="#00a7ce" stroke-width="4.921"/>
  <g fill="#231f20" stroke-width="4.921">
   <path class="cls-1" d="m369.76 210.47a1.2302 1.2302 0 0 1-1.1318 1.2302 58.412 58.412 0 0 1-8.2672 0.59052 56.247 56.247 0 0 1-17.174-2.5097 37.35 37.35 0 0 1-14.172-8.0212 36.514 36.514 0 0 1-9.4482-13.877 53.835 53.835 0 0 1-3.4447-20.127v-109.34a1.2794 1.2794 0 0 1 1.2302-1.2794 1.3287 1.3287 0 0 1 0.59052 0l23.375 12.745a2.3128 2.3128 0 0 1 1.2302 2.0176v19.684h22.046a1.2794 1.2794 0 0 1 1.2302 1.2794v22.538a1.2794 1.2794 0 0 1-1.2302 1.2794h-21.947v50.637a24.605 24.605 0 0 0 2.2636 11.712 15.255 15.255 0 0 0 6.102 6.2496 23.375 23.375 0 0 0 8.6609 2.5097c2.9034 0.29526 5.6099 0.44289 8.7101 0.4921a1.2302 1.2302 0 0 1 1.2302 1.2302v21.012z"/>
   <path class="cls-1" d="m385.9 97.779a4.921 4.921 0 0 1 3.7399-4.921c14.172-3.8876 28.148-7.6275 39.368-10.678a46.011 46.011 0 0 1 27.951-0.39368c15.944 6.102 21.259 20.766 21.259 35.48v54.131c0 34.447-24.26 41.927-42.763 41.927a83.656 83.656 0 0 1-23.276-4.3304v36.317a1.2302 1.2302 0 0 1-1.2302 1.2302h-23.522a1.2794 1.2794 0 0 1-1.2794-1.2302zm26.622 88.922a51.768 51.768 0 0 0 18.946 2.9526c11.761 0 20.668-6.102 20.668-18.749v-45.863c0-14.763-7.3322-19.684-17.125-18.454a136.21 136.21 0 0 0-22.538 6.5941z"/>
   <path class="cls-1" d="m550.41 210.47a1.3779 1.3779 0 0 1-1.181 1.3286 65.252 65.252 0 0 1-8.218 0.54131 58.067 58.067 0 0 1-17.174-2.5097 37.547 37.547 0 0 1-14.123-8.0704 36.317 36.317 0 0 1-9.4482-13.877 53.245 53.245 0 0 1-3.4939-20.127v-101.91a2.4113 2.4113 0 0 1 1.7715-2.3128l23.128-6.2496a1.2302 1.2302 0 0 1 1.5255 0.88577v33.413h21.947a1.3287 1.3287 0 0 1 1.3287 1.3287v22.39a1.3287 1.3287 0 0 1-1.3287 1.3287h-21.947v50.686a24.605 24.605 0 0 0 2.3128 11.663 14.763 14.763 0 0 0 5.9544 6.2496 23.965 23.965 0 0 0 8.7593 2.5589c2.9034 0.24605 5.5607 0.39368 8.6609 0.44289a1.3287 1.3287 0 0 1 1.3287 1.3287v20.914z"/>
  </g>
 </g>
 <path d="m616.87 27.133h7.9983v195.27h-7.9983z" fill="#231f20" stroke-width=".65614"/>
 <g transform="matrix(1.0196 0 0 -1.0196 1364.4 593.69)" fill="#e23843">
  <path d="m-659.58 414.92h71.051v22.662h-45.19v70.651h-25.861z"/>
  <path d="m-576.4 414.92h25.994v93.313h-25.994z"/>
  <path d="m-532.67 414.92h25.861v33.326h44.124v21.462h-44.124v15.863h48.789v22.662h-74.65z"/>
  <path d="m-445.76 414.92h75.717v21.995h-50.122v14.797h44.79v20.395h-44.79v14.13h49.456v21.995h-75.05z"/>
 </g>
</svg>
