<svg width="999" height="384.9" version="1.1" xmlns="http://www.w3.org/2000/svg">
 <g transform="translate(-.5 -.5)">
  <path d="m52.524 381.52v-215.85h-52.024v-76.919h52.024v-81.689h100.47v81.688h52.024v76.919h-52.024v215.85z" fill="#fff"/>
  <path d="m219.63 381.52v-292.77h93.018v48.894c15.03-26.214 37.636-48.894 86.303-48.894h12.677v101.66h-18.751c-23.951 0-45.653 4.419-58.7 17.189-10.948 11.251-14.075 24.835-14.075 43.033v130.88z" fill="#fff"/>
  <path d="m426.09 88.748h99.726v153.24c0 31.005 16.303 49.792 43.642 49.792 29.496 0 43.712-22.779 43.712-49.145v-153.89h100.32v292.77h-92.868v-43.527c-16.75 34.115-47.491 47.408-85.946 47.408-65.815 0-108.59-41.936-108.59-107.14v-189.51z" fill="#fff"/>
  <path d="m999.5 136.58c0 75.152-60.923 136.07-136.08 136.07s-136.08-60.923-136.08-136.07c0-75.152 60.922-136.08 136.08-136.08 75.153 0 136.08 60.923 136.08 136.08z" fill="#b7d433"/>
  <path d="m817.09 190.41h-26.832l13.715-78.409h-29.102l4.058-23.255h83.38l-4.076 23.255h-27.527z"/>
  <path d="m908.61 190.41 54.856-101.66h-28.322l-35.363 68.695-5.32-68.695h-26.017l10.353 101.66z"/>
 </g>
</svg>
