<svg width="719.48" height="800" data-name="Layer 1" version="1.1" viewBox="0 0 719.48 800" xmlns="http://www.w3.org/2000/svg">
 <defs>
  <linearGradient id="linear-gradient" x1="-4191" x2="-4191" y1="-3193.1" y2="-3217.8" gradientTransform="matrix(.39 0 0 .39 1649.7 1262)" gradientUnits="userSpaceOnUse">
   <stop stop-color="#6dcff6" offset="0"/>
   <stop stop-color="#00bdf2" offset=".11"/>
   <stop stop-color="#00a1e4" offset=".27"/>
   <stop stop-color="#0099d8" offset=".4"/>
   <stop stop-color="#008fcb" offset=".51"/>
   <stop stop-color="#00549a" offset=".77"/>
   <stop stop-color="#094e96" offset=".83"/>
   <stop stop-color="#213d8a" offset=".94"/>
   <stop stop-color="#313283" offset="1"/>
  </linearGradient>
  <linearGradient id="linear-gradient-2" x1="-3699.1" x2="-3699.1" y1="-3328.8" y2="-3355" gradientTransform="matrix(9.7497 0 0 9.7497 36416 32846)" gradientUnits="userSpaceOnUse">
   <stop stop-color="#fff200" offset="0"/>
   <stop stop-color="#fd0" offset=".13"/>
   <stop stop-color="#ffd106" offset=".25"/>
   <stop stop-color="#ffc20e" offset=".36"/>
   <stop stop-color="#f7941d" offset=".69"/>
   <stop stop-color="#e87223" offset=".87"/>
   <stop stop-color="#dd5728" offset="1"/>
  </linearGradient>
 </defs>
 <g transform="matrix(24.999 0 0 24.999 -165.24 0)" fill="#231f20">
  <path class="cls-1" d="m10.91 24.88v1.4h-1.17v5.57h-2v-5.57h-1.13v-1.4z"/>
  <path class="cls-1" d="m16.28 24.88-1 7h-3l-1.14-7h2.08c0.24 1.92 0.41 3.55 0.51 4.88 0.1-1.35 0.21-2.54 0.33-3.58l0.13-1.3z"/>
  <path class="cls-1" d="m21.7 24.88 1.12 7h-2l-0.1-1.25h-0.72l-0.12 1.25h-2l1-7zm-1.05 4.48c-0.1-0.78-0.2-1.76-0.3-2.92-0.2 1.33-0.32 2.31-0.37 2.92z"/>
  <path class="cls-1" d="m27.32 27h-1.82v-0.51a1 1 0 0 0-0.07-0.46 0.27 0.27 0 0 0-0.24-0.1 0.3 0.3 0 0 0-0.27 0.13 0.73 0.73 0 0 0-0.09 0.41 1 1 0 0 0 0.11 0.52 1.44 1.44 0 0 0 0.55 0.43 5.55 5.55 0 0 1 1.66 1.18 2.56 2.56 0 0 1 0.34 1.48 2.52 2.52 0 0 1-0.19 1.1 1.5 1.5 0 0 1-0.73 0.59 3.16 3.16 0 0 1-1.27 0.23 2.91 2.91 0 0 1-1.3-0.28 1.32 1.32 0 0 1-0.73-0.7 3.18 3.18 0 0 1-0.18-1.21v-0.45h1.83v0.84a1.07 1.07 0 0 0 0.08 0.51 0.31 0.31 0 0 0 0.27 0.11 0.33 0.33 0 0 0 0.29-0.14 0.73 0.73 0 0 0 0.1-0.42 1.26 1.26 0 0 0-0.18-0.81 5.91 5.91 0 0 0-0.92-0.63 10.7 10.7 0 0 1-1-0.65 1.48 1.48 0 0 1-0.39-0.56 2.18 2.18 0 0 1-0.17-0.91 2.49 2.49 0 0 1 0.22-1.18 1.45 1.45 0 0 1 0.72-0.57 3.07 3.07 0 0 1 1.2-0.21 3.18 3.18 0 0 1 1.3 0.23 1.35 1.35 0 0 1 0.72 0.57 3 3 0 0 1 0.17 1.18z"/>
  <path class="cls-1" d="m30.07 24.88v7h-2v-7z"/>
  <path class="cls-1" d="m34.26 24.88 1.13 7h-2l-0.11-1.25h-0.7l-0.12 1.25h-2l1-7zm-1 4.48c-0.1-0.78-0.2-1.76-0.3-2.92-0.2 1.33-0.33 2.31-0.38 2.92z"/>
 </g>
 <polygon class="cls-2" transform="matrix(24.999 0 0 24.999 -165.24 0)" points="20.62 23.3 34.38 11.65 20.62 0 6.87 11.65" fill="#bdaa7d"/>
 <polygon class="cls-3" transform="matrix(24.999 0 0 24.999 -165.24 0)" points="20.62 21.09 31.76 11.65 20.62 2.21 9.48 11.65" fill="url(#linear-gradient)"/>
 <path class="cls-4" d="m351.49 390.99c83.497 0 149.99-57.248 149.99-128 0-70.748-67.748-128.25-149.99-128.25s-151.24 57.498-151.24 128.25c0 70.748 67.748 128 151.24 128z" fill="url(#linear-gradient-2)" stroke-width="24.999"/>
 <g fill="#1fad4c" stroke-width="24.999">
  <rect class="cls-5" x="1.25" y="416.74" width="697.98" height="17.749"/>
  <rect class="cls-5" x="1.25" y="444.73" width="697.98" height="17.749"/>
  <rect class="cls-5" x="1.25" y="472.48" width="697.98" height="17.749"/>
  <rect class="cls-5" x="1.25" y="500.48" width="697.98" height="17.749"/>
  <rect class="cls-5" x="1.25" y="528.48" width="697.98" height="17.749"/>
  <rect class="cls-5" x="1.25" y="556.48" width="697.98" height="17.749"/>
  <rect class="cls-5" x="1.25" y="584.48" width="697.98" height="17.749"/>
 </g>
</svg>
