<svg width="600pt" height="599.99pt" version="1.1" viewBox="0 0 600 599.99" xmlns="http://www.w3.org/2000/svg">
 <g transform="matrix(1.1697 0 0 1.1697 -11.755 -10.58)">
  <path d="m10.05 9.045h426.45c42.596 0 86.51 41.494 86.51 84.945v344.66c0 51.481-50.684 83.345-84.36 83.345h-342.64c-53.461 0-85.96-48.073-85.96-85.505v-427.44" fill="#fb0b0c"/>
 </g>
 <path d="m89.492 139.74c1.0522-13.345 13.487-24.697 26.913-24.353 68.183 9e-3 136.37 0 204.54 0 11.726-0.30353 22.644 7.8918 26.235 18.94 16.381 44.994 32.893 89.947 49.081 135.01 0.20236 0.72848 1.3463 3.349 2.0539 1.7504 14.782-41.665 30.201-83.097 45.196-124.68 1.9527-5.0589 3.5109-10.269 5.6862-15.247 4.0977-9.6523 14.337-16.482 24.9-16.047 10.199-0.24283 20.114 6.1111 24.485 15.268 3.0353 5.9189 2.9342 12.93 1.7807 19.325-25.709 70.743-51.408 141.51-77.148 212.23-3.3186 8.2156-10.614 14.65-19.173 16.937-8.3572 1.5784-17.635 0.21315-24.192-5.5344-7.042-5.4939-9.0655-14.549-11.939-22.522-22.016-60.241-43.881-120.55-65.705-180.86-21.733 9e-3 -43.466-0.0135-65.199 0.027 0.0674 61.152 0 122.29 0.027 183.45 0.2725 12.617-10.31 23.787-22.512 25.679-4.5833 0.2118-9.3893 0.61652-13.73-1.2249-10.128-3.521-18.02-13.538-17.777-24.444-0.054-55.223 0-110.46-0.0105-165.68-0.0674-5.9391 0.35479-11.939-0.64754-17.827-21.622 0.0809-43.233-9e-3 -64.845 0.027-7.0925 0.0944-14.246-2.408-19.446-7.305-6.3438-5.6761-9.4399-14.509-8.5697-22.917" fill="#fff" stroke-width="10.118"/>
 <path d="m112.34 419.17c10.106-3.7313 21.51-3.8249 31.804-0.79539 9.451 2.7488 15.873 11.369 18.645 20.469l-19.978 4.4799c-1.2516-3.5208-3.0529-7.1818-6.5853-8.8896-5.9069-3.5324-14.317-1.3685-17.943 4.4331-3.2166 5.1115-3.1815 11.416-3.0763 17.253 0.14036 4.398 0.59654 8.9715 2.7604 12.89 4.2927 7.2052 16.177 8.0123 21.218 1.2165 2.5031-3.0529 3.4038-6.9596 4.3161-10.691l20.119 6.6204c-2.2224 7.7433-6.0356 15.51-12.983 20.037-8.9832 5.9888-20.364 5.4975-30.646 4.4331-7.872-1.2632-15.264-5.1934-19.99-11.744-7.9421-9.9774-8.6556-23.686-6.6672-35.792 1.7662-10.527 8.913-20.119 19.007-23.92z" fill="#fffffe" stroke-width="1.1697"/>
 <path d="m190.94 417.53h22.832v25.721h24.324v-25.721h22.686v72.509h-22.686v-29.23h-24.324v29.23h-22.832z" fill="#fffffe" stroke-width="1.1697"/>
 <path d="m292.47 417.54h22.756v72.503h-22.756z" fill="#fffffe" stroke-width="1.1697"/>
 <path d="m346.51 417.52h22.715v54.975h35.09v17.545h-57.806z" fill="#fffffe" stroke-width="1.1697"/>
 <path d="m429.44 417.52h60.496v16.376h-37.664v9.3575h35.09v16.37h-35.09v14.042h38.833v16.376h-61.666z" fill="#fffffe" stroke-width="1.1697"/>
</svg>
