<svg width="800" height="274.7" version="1.1" viewBox="0 0 800 274.7" xmlns="http://www.w3.org/2000/svg">
 <g transform="matrix(20.955 0 0 20.955 -40.004 -199.26)" fill="none">
  <g transform="translate(1,9)">
   <polygon points="0.90907 12.503 10.016 11.854 14.127 11.558 9.7853 13.618 37.671 11.656 39.086 0.50914 15.756 2.1735 15.948 0.66 2.3656 1.6589" fill="#ff0229"/>
   <polygon points="10.016 11.854 9.7852 13.618 14.127 11.558" fill="#fff"/>
   <polygon points="17.65 9.6805 19.853 9.5248 19.635 11.085 15.629 11.368 16.72 3.566 18.523 3.4387" fill="#fff"/>
   <path d="m23.703 4.4736-0.0205 0.00141-1.0111 3.5322 1.0449-0.073926zm-3.6589 6.5826 2.7708-7.9209 2.1716-0.15334 0.57891 7.6841-1.8234 0.12875-0.04366-1.5006-1.4136 0.099924-0.42742 1.5339z" fill="#fff"/>
   <polygon points="25.935 10.64 27.026 2.838 28.88 2.7069 29.663 6.9672 29.694 6.9651 30.13 2.6187 31.84 2.4979 30.75 10.3 28.905 10.43 28.113 6.1601 28.09 6.1824 27.645 10.519" fill="#fff"/>
   <path d="m33.302 8.729c1.1971-0.00212 1.2771-0.50227 1.3919-1.5402l0.35636-2.5487c0.11773-0.91471-0.172-0.94566-1.05-0.90427zm-1.9992 1.5318 1.0908-7.8021 1.9565-0.1383c0.65563-0.04616 1.4415-0.081177 1.9773 0.22089 0.63848 0.36698 0.64485 1.1183 0.5402 1.8674l-0.48434 3.4639c-0.11932 0.781-0.43485 1.3699-1.0037 1.7396-0.51492 0.3454-1.096 0.4379-1.6491 0.47698z" fill="#fff"/>
   <polygon points="6.6279 4.4152 5.7552 10.657 3.9522 10.784 4.8251 4.5425 3.4113 4.6425 3.6296 3.0821 8.3009 2.752 8.0826 4.3125" fill="#fff"/>
   <polygon points="10.65 8.004 10.67 8.0026 12.358 2.4655 14.16 2.338 11.389 10.259 9.2689 10.409 8.6902 2.7245 10.493 2.5971" fill="#fff"/>
  </g>
 </g>
</svg>
