<svg width="600pt" height="177.5pt" version="1.1" viewBox="0 0 600 177.5" xmlns="http://www.w3.org/2000/svg">
 <g transform="matrix(.74524 0 0 .74524 -171.09 580.09)" fill="#fff" fill-rule="evenodd">
  <polygon transform="matrix(20.099 0 0 20.099 229.58 -782.38)" points="9.3069 0.27733 7.1881 0.27733 6.3566 3.1286 5.5049 0.27733 -5.9406e-5 0.27733 -5.9406e-5 1.8811 1.1683 1.8811 1.1683 5.3268 3.0692 5.3268 3.0692 1.8613 4.099 1.8613 5.5049 5.3268 7.1881 5.3268"/>
  <path d="m468.39-741.38c12.338 0 34.627 10.746 33.035 31.045-1.99 31.443-36.617 35.423-54.129 35.821-17.512 0.39801-41.393-7.9602-41.393-7.9602l4.3781-26.667s10.746 5.1741 22.686 7.5622c12.338 2.7861 28.259-1.194 28.657-8.3582 0.39799-8.3582-12.736-11.542-25.871-10.746-12.338 0.79601-24.279 3.9801-24.279 3.9801l9.9502-60.099h73.632v28.657h-46.567l-1.99 10.746s6.3681-3.9801 21.89-3.9801z"/>
  <polygon transform="matrix(20.099 0 0 20.099 229.58 -782.38)" points="19.584 0.27725 17.723 0.27725 16.99 2.9307 16.277 0.27725 14.396 0.27725 13.584 5.307 15.347 5.307 15.604 2.5545 16.475 5.307 17.525 5.307 18.396 2.5545 18.634 5.307 20.396 5.307"/>
  <path d="m692.87-705.96c-11.148 0-18.706-7.9602-18.706-19.502 0-10.746 7.1642-19.9 18.706-19.9 11.538 0 19.104 9.1542 19.104 19.9-0.40199 11.542-8.3622 19.502-19.104 19.502m0-72.438c-30.647 0-55.721 20.696-55.721 52.537 0 32.637 25.075 51.741 55.721 51.741 31.045 0 56.119-19.502 56.119-51.741-0.39801-31.841-25.477-52.537-56.119-52.537"/>
  <polygon transform="matrix(20.099 0 0 20.099 229.58 -782.38)" points="27.782 2.6732 29.327 5.3069 31.069 5.3069 31.069 0.27717 29.327 0.27717 29.327 3.0692 27.782 0.27717 26.02 0.27717 26.02 5.3069 27.782 5.3069"/>
  <path d="m898.63-705.96h-2.3881v-39.005h2.3881c13.532 0 21.492 5.9701 21.492 20.298 0 13.134-9.1502 18.706-21.492 18.706m-1.5881-70.846h-37.417v101.09h46.567c29.457 0 50.945-19.104 50.945-48.955-0.39395-37.413-26.265-52.139-60.095-52.139"/>
  <polygon transform="matrix(20.099 0 0 20.099 229.58 -782.38)" points="38.198 3.4456 39.624 3.4456 39.624 2.1386 38.198 2.1386 38.198 1.6436 39.743 1.6436 39.743 0.27725 36.356 0.27725 36.356 5.307 39.802 5.307 39.802 3.9406 38.198 3.9406"/>
 </g>
 <g transform="matrix(2.208 0 0 2.208 -3.2903 163.76)" fill="#00d6fe">
  <path d="m29.17 5.7847v-3.6713h-17.079v-8.4998h14.166v-3.6713h-14.166v-7.6219h17.079v-3.6713h-21.07v27.135zm-5.3872-35.835h-4.19l-3.2323 5.7862h3.5915z"/>
  <path d="m59.207-17.68v-3.6713h-23.145v3.6713h9.7369v23.464h4.1501v-23.464z"/>
  <path d="m59.896 5.7847h4.2299l2.4741-5.9858h13.528l2.3943 5.9858h4.2299l-10.774-27.135h-4.8285zm13.648-22.985 5.5069 13.847h-11.333z"/>
  <path d="m111.21-17.68v-3.6713h-23.145v3.6713h9.7368v23.464h4.1501v-23.464z"/>
  <path d="m117.64 3.8293c1.7159 0.99763 5.6266 2.3544 9.5373 2.3544 6.4247 0 11.054-3.3121 11.054-8.3402 0-3.8309-2.5539-5.9858-7.3426-7.2627l-5.2675-1.3568c-2.4741-0.67838-3.7511-1.5962-3.7511-3.4717 0-2.0352 1.7957-3.6314 6.0257-3.6314 3.0328 0 6.5444 0.99763 8.4599 2.1549l1.1972-3.8309c-2.0352-1.0774-5.7064-2.1549-9.4974-2.1549-7.1829 0-10.495 3.5516-10.495 7.8214 0 3.5516 2.2347 5.9858 6.7839 7.0632l4.8684 1.1972c3.3121 0.7981 4.7088 1.8755 4.7088 3.791 0 2.6736-2.7136 4.19-6.6642 4.19-3.5516 0-6.7839-1.3568-8.6195-2.514z"/>
  <path d="m145.21-9.5901v3.3121h15.363v-3.3121z"/>
  <path d="m174.03-21.351h-4.1501v15.922c0 6.7839 4.0703 11.652 11.932 11.652 7.9411 0 12.051-5.3872 12.051-11.652v-15.922h-4.1502v15.603c0 4.6689-2.514 8.1007-7.9012 8.1007-5.3074 0-7.7815-3.1924-7.7815-8.0608z"/>
  <path d="m225.63 5.7847h3.6314v-27.135h-4.1501v20.591l-17.239-20.591h-3.6713v27.135h4.1501v-20.511z"/>
  <path d="m239.06 5.7847h4.1501v-27.135h-4.1501z"/>
  <path d="m252.63 3.8293c1.7159 0.99763 5.6266 2.3544 9.5373 2.3544 6.4247 0 11.054-3.3121 11.054-8.3402 0-3.8309-2.5539-5.9858-7.3425-7.2627l-5.2675-1.3568c-2.4741-0.67838-3.7511-1.5962-3.7511-3.4717 0-2.0352 1.7957-3.6314 6.0257-3.6314 3.0328 0 6.5444 0.99763 8.4599 2.1549l1.1972-3.8309c-2.0352-1.0774-5.7064-2.1549-9.4974-2.1549-7.1829 0-10.495 3.5516-10.495 7.8214 0 3.5516 2.2347 5.9858 6.7839 7.0632l4.8684 1.1972c3.3121 0.7981 4.7088 1.8755 4.7088 3.791 0 2.6736-2.7136 4.19-6.6642 4.19-3.5516 0-6.7839-1.3568-8.6195-2.514z"/>
 </g>
</svg>
