<svg width="800" height="789.29" version="1.1" viewBox="0 0 800 789.29" xmlns="http://www.w3.org/2000/svg">
 <defs>
  <linearGradient id="linearGradient893" x1="10.438" x2="31.738" y1="11.531" y2="11.531" gradientTransform="matrix(30.862 0 0 30.862 -246.89 -92.585)" gradientUnits="userSpaceOnUse">
   <stop stop-color="#adbcba" offset="0"/>
   <stop stop-color="#fff" offset="1"/>
  </linearGradient>
 </defs>
 <path d="m522.39 526.58h-236.97c-115.61 0-210.19-94.587-210.19-210.2v-120.44c0-108.21 87.725-195.94 195.94-195.94h260.6c110.45 0 200.82 90.369 200.82 200.82v115.56c0 115.61-94.589 210.2-210.2 210.2z" fill="url(#linearGradient893)" fill-rule="evenodd"/>
 <g transform="matrix(30.862 0 0 30.862 -246.89 -92.585)" fill="#fff" fill-rule="evenodd">
  <path d="m19.788 28.56 1.844-4.936c0.35952-0.85124 0.58975-0.83844 0.95996-0.89335v-0.96412h-2.8232v0.96412h0.3446c0.23266 0 0.46541 0.14752 0.29598 0.69517l-1.1507 3.1505-1.0955-3.2556c-0.08476-0.4845 0.11405-0.59007 0.38898-0.59007h0.36007v-0.96412h-3.5391v0.96412c0.44082 0 0.59109 0.29158 0.72258 0.64827l1.835 5.1811z"/>
  <path d="m13.686 28.575v-1.0211c-0.18396 0-0.44475 0.01822-0.60067 0.0077-0.28349 0-0.65888-0.18373-0.65888-0.70341v-4.128h0.65888c0.4442 0 0.83326 0.3087 0.83326 1.1241v0.93647l1.0808-1e-3v-3.0238h-6.9993v3.0238l1.0808 1e-3v-0.93647c0-0.81543 0.38906-1.1241 0.83341-1.1241h0.65943v4.128c0 0.51969-0.37633 0.70341-0.65943 0.70341-0.15576 0.01053-0.41679-0.0077-0.60051-0.0077v1.0211z"/>
  <path d="m26.505 24.663-0.79225-0.0055-4.71e-4 -1.4928c0-0.39259 0.21177-0.46046 0.61245-0.46046 0.81535 0 1.0773 0.44695 1.0773 1.0579 0 0.43116-0.26196 0.90089-0.89704 0.90089m-0.18027 2.8235c-0.40068 0-0.61245-0.06716-0.61245-0.46038l4.71e-4 -1.4933 0.8144 0.0024c0.6339 0 0.86342 0.46242 0.87489 0.89256 0.02144 0.76672-0.26196 1.0587-1.0773 1.0587m1.7429-2.4226v-0.01869c0.67867-0.15466 1.3362-0.46187 1.3362-1.5904 0-0.99593-0.53241-1.689-2.0314-1.689h-4.3991v0.9642c0.60829 0 0.84622 0.18232 0.84622 0.88471v3.0242c0 0.70349-0.23793 0.91094-0.84622 0.91094v1.0094h3.9975c1.4551 0 2.433-0.8719 2.433-1.78 0-0.83522-0.45457-1.5877-1.3362-1.7155"/>
  <path d="m30.029 23.894c0.86735-0.71213 1.7315-1.4216 2.592-2.128h1.3009c-0.49322 2.2384-0.98517 4.4711-1.4778 6.7069h-1.4913c0.3457-1.5792 0.69045-3.154 1.0352-4.7289l-0.01335-0.0072c-0.42111 0.35222-0.84213 0.70436-1.2706 1.0628-0.12018-0.1487-0.22622-0.30171-0.33776-0.45048-0.11209-0.14956-0.22261-0.30038-0.33721-0.45512"/>
 </g>
 <path d="m422.24 367.2c-106.49 0-230.77 10.204-230.98 10.221 41.997 73.663 121.25 123.33 212.12 123.33 91.026 0 170.4-49.85 212.34-123.73-4.1568-1.8813-31.3-9.8225-193.48-9.8225z" fill="#f00" fill-rule="evenodd"/>
 <path d="m423.7 343.11c192.08 0 202.61 10.812 202.44 13.342 13.646-30.44 21.244-64.184 21.244-99.705 0-20.843-2.6192-41.073-7.536-60.385-0.28393-0.60458-17.387-35.028-242.65-35.028-200.02 0-229.93 34.601-230.3 35.032-4.9167 19.31-7.536 39.54-7.536 60.38 0 35.435 7.5623 69.101 21.147 99.486 9.4786-2.8843 56.283-13.123 243.18-13.123z" fill="#32ff06" fill-rule="evenodd"/>
 <path d="m397.2 133.59c194.41 0 232.36 32.363 232.91 32.84-35.9-90.051-123.88-153.69-226.74-153.69-102.67 0-190.52 63.42-226.55 153.22 5.3941-4.0604 49.125-32.363 220.37-32.363z" fill="#00d0ff" fill-rule="evenodd"/>
</svg>
