<svg width="800" height="736.3" version="1.1" viewBox="0 0 800 736.3" xmlns="http://www.w3.org/2000/svg">
 <defs>
  <linearGradient id="linearGradient893" x1="10.438" x2="31.738" y1="11.531" y2="11.531" gradientTransform="matrix(30.862 0 0 30.862 -246.89 -92.585)" gradientUnits="userSpaceOnUse">
   <stop stop-color="#adbcba" offset="0"/>
   <stop stop-color="#fff" offset="1"/>
  </linearGradient>
 </defs>
 <g transform="matrix(.93724 0 0 .93724 23.501 0)" fill-rule="evenodd">
  <path d="m522.39 526.58h-236.97c-115.61 0-210.19-94.587-210.19-210.2v-120.44c0-108.21 87.725-195.94 195.94-195.94h260.6c110.45 0 200.82 90.369 200.82 200.82v115.56c0 115.61-94.589 210.2-210.2 210.2z" fill="url(#linearGradient893)"/>
  <path d="m422.24 367.2c-106.49 0-230.77 10.204-230.98 10.221 41.997 73.663 121.25 123.33 212.12 123.33 91.026 0 170.4-49.85 212.34-123.73-4.1568-1.8813-31.3-9.8225-193.48-9.8225z" fill="#f00"/>
  <path d="m423.7 343.11c192.08 0 202.61 10.812 202.44 13.342 13.646-30.44 21.244-64.184 21.244-99.705 0-20.843-2.6192-41.073-7.536-60.385-0.28393-0.60458-17.387-35.028-242.65-35.028-200.02 0-229.93 34.601-230.3 35.032-4.9167 19.31-7.536 39.54-7.536 60.38 0 35.435 7.5623 69.101 21.147 99.486 9.4786-2.8843 56.283-13.123 243.18-13.123z" fill="#32ff06"/>
  <path d="m397.2 133.59c194.41 0 232.36 32.363 232.91 32.84-35.9-90.051-123.88-153.69-226.74-153.69-102.67 0-190.52 63.42-226.55 153.22 5.3941-4.0604 49.125-32.363 220.37-32.363z" fill="#00d0ff"/>
 </g>
 <g transform="matrix(29.377 0 0 29.377 .00066979 540.53)" fill-rule="evenodd">
  <path d="m11.406 6.649 1.7841-4.7758c0.34785-0.82361 0.57061-0.81122 0.9288-0.86435v-0.93282h-2.7315v0.93282h0.33341c0.22511 0 0.4503 0.14273 0.28637 0.6726l-1.1133 3.0482-1.06-3.1499c-0.082004-0.46877 0.11035-0.57091 0.37635-0.57091h0.34838v-0.93282h-3.4243v0.93282c0.42651 0 0.5719 0.28211 0.69912 0.62723l1.7754 5.0129z"/>
  <path d="m5.5013 6.664v-0.988c-0.17799 0-0.43031 0.017632-0.58117 0.00745-0.27428 0-0.63749-0.17776-0.63749-0.68058v-3.994h0.63749c0.42978 0 0.80621 0.29868 0.80621 1.0876v0.90607l1.0457-9.88e-4v-2.9256h-6.7721v2.9256l1.0457 9.88e-4v-0.90607c0-0.78896 0.37643-1.0876 0.80636-1.0876h0.63802v3.994c0 0.50282-0.36412 0.68058-0.63802 0.68058-0.15071 0.010184-0.40326-0.00745-0.58102-0.00745v0.988z"/>
  <path d="m17.905 2.8792-0.76654-0.00532-4.56e-4 -1.4444c0-0.37985 0.2049-0.44551 0.59257-0.44551 0.78888 0 1.0423 0.43244 1.0423 1.0236 0 0.41716-0.25346 0.87164-0.86792 0.87164m-0.17442 2.7318c-0.38768 0-0.59257-0.06498-0.59257-0.44544l4.56e-4 -1.4448 0.78797 0.00236c0.61332 0 0.83539 0.44741 0.84649 0.86359 0.02075 0.74184-0.25346 1.0243-1.0423 1.0243m1.6864-2.344v-0.018088c0.65664-0.14964 1.2928-0.44688 1.2928-1.5388 0-0.9636-0.51513-1.6342-1.9654-1.6342h-4.2563v0.9329c0.58854 0 0.81875 0.1764 0.81875 0.85599v2.9261c0 0.68066-0.2302 0.88137-0.81875 0.88137v0.97668h3.8677c1.4078 0 2.354-0.8436 2.354-1.7222 0-0.80811-0.43981-1.5362-1.2928-1.6598"/>
  <path d="m22.995 1.9478c-0.20664-0.35135-0.40865-0.69487-0.61682-1.0487 0.089832-0.069236 0.17434-0.14144 0.26562-0.20368 0.56088-0.38243 1.1858-0.57517 1.8599-0.61279 0.5624-0.031312 1.1085 0.044536 1.6237 0.28424 0.45076 0.20976 0.80917 0.5187 0.9896 0.99476 0.1897 0.50046 0.13612 0.99233-0.09074 1.4692-0.22291 0.46831-0.56947 0.83798-0.95578 1.1729-0.59569 0.51665-1.2648 0.92462-1.9505 1.3075-0.03359 0.018696-0.06703 0.037696-0.0985 0.072884h2.4758c-0.09401 0.43616-0.18483 0.8572-0.27596 1.2798h-4.9072c0.0377-0.17123 0.07433-0.3366 0.1105-0.50206 0.05297-0.24244 0.10807-0.48442 0.15679-0.7277 0.01452-0.072048 0.04818-0.1143 0.11172-0.15147 0.72496-0.42347 1.4516-0.84421 2.17-1.2785 0.45874-0.27725 0.90151-0.58064 1.2947-0.94863 0.22754-0.21303 0.43586-0.44224 0.5285-0.7508 0.10458-0.34846-0.01687-0.63285-0.3398-0.7983-0.26114-0.13368-0.54218-0.16256-0.82984-0.15405-0.57372 0.016948-1.0781 0.21409-1.5217 0.59538"/>
 </g>
</svg>
