<svg width="430.22" height="301" version="1.0" xmlns="http://www.w3.org/2000/svg">
 <g transform="translate(-88.398 -698.43)">
  <path d="m487.39 698.46-54.728 202.33-334.72-0.0318 23.028-85.57h55.808v-8.7031h-53.458l5.8444-21.44h81.282v-8.5126h-79.091l6.035-21.631h114.92v-8.5443h-112.57l12.928-47.931z" fill="#009c58"/>
  <g fill="#fff">
   <path d="m359.69 746.18 69.847 76.994-19.947 27.983-6.5432-5.2727 15.596-21.98-64.829-71.563z"/>
   <path d="m327.69 787.58 7.7185 0.73055s-4.701 37.767 29.635 36.845l0.15882 8.1632s-41.197 4.3833-37.512-45.739"/>
   <path d="m371.57 730.92-2.0011-9.4337s-130.86 21.059-221.01 146.75l8.2585 6.1621s76.867-112.98 214.75-143.47"/>
   <path d="m137.39 754.9h114.92v-8.5443h-112.57z"/>
   <path d="m129.19 785.04h81.25v-8.5443h-79.059z"/>
   <path d="m120.98 815.19h55.776v-8.7031h-53.426z"/>
  </g>
  <g fill="#fff">
   <path d="m125.59 937.86h-37.195l5.1774-19.884h110.41l-5.1456 19.884h-35.194l-15.278 58.921h-38.052z"/>
   <path d="m291.66 917.95 9.1161 26.649 53.426-26.649z"/>
   <path d="m191.06 917.96h41.832l8.0361 50.535h0.2541l34.304-50.535h41.832l-63.622 78.805h-39.926z"/>
   <path d="m366.13 951.82h54.093l-11.657 44.945h-16.326l-2.4458-7.2738c-11.689 7.1467-24.839 9.9419-46.66 9.9419-26.649 0-61.589-5.4315-52.155-41.769 8.9255-34.4 44.754-42.372 73.85-42.372 42.34 0 59.969 9.529 57.682 29.762h-42.88c-0.0318-4.0975-2.1917-6.6068-5.368-8.0043-3.2716-1.4294-7.4326-1.8423-12.419-1.8423-15.5 0-26.935 6.1938-31.064 22.107-3.7798 14.548 3.6845 22.234 22.52 22.234 12.388 0 19.63-3.9704 23.854-9.8784h-15.659z"/>
  </g>
  <path d="m485.27 917.91c14.783 0 33.367 2.6276 33.342 18.636 0 8.4958-5.2092 15.032-10.511 19.878-11.62 9.886-26.382 16.571-39.251 21.935h40.103l-4.9819 18.452h-82.15l4.5221-18.117c18.492-9.0538 35.974-16.873 51.766-28.547 3.331-2.5764 6.7498-5.3759 7.1063-9.6809 0.30349-4.3552-3.1941-6.0844-7.0473-6.0326-5.2021 0.11582-8.2973 2.3866-10.546 7.5877-0.63626 1.623-1.0576 3.0944-1.4155 4.6003h-31.088c6.7306-24.902 24.664-28.818 50.151-28.712z" fill="#fff" stroke-width=".12036"/>
 </g>
</svg>
