<svg width="937.75" height="1e3" version="1.1" viewBox="0 0 248.11 264.58" xmlns="http://www.w3.org/2000/svg" xmlns:xlink="http://www.w3.org/1999/xlink">
 <defs>
  <rect id="SVGID_1_" x="-298.38" y="-201.5" width="792" height="612"/>
  <clipPath id="SVGID_2_">
   <use width="195.845" height="209.563" overflow="visible" xlink:href="#SVGID_1_"/>
  </clipPath>
 </defs>
 <g transform="translate(0 -32.417)">
  <path transform="matrix(1.2674 0 0 1.2674 0 31.795)" d="m194.01 5.139c-1.51-1.223-4.23-2.371-8.318-3.511-11.123-3.117-83.926 1.13-86.695 1.399-2.767 0.274-1.67 4.387-1.67 4.387l-5e-3 0.025c1.737-0.018 3.624-0.018 5.692-0.016 20.361 0.065 46.778 1.493 56.211 4.61 7.584 2.492 6.846 4.214 6.846 4.214l-15.781 71.174c-4.094 19.024-25.184 65.354-83.513 67.6-0.827-2.848-1.033-7.152-0.828-12.216 0.195-8.417 2.624-23.66 2.631-23.688 1.406-8.893 3.074-17.227 4.208-22.418l10.194-47.458c-9.48-19.419-35.822-26.303-47.889-25.18-1.024 0.099-1.808 0.85-2.107 2.142l4e-3 -0.01-12.768 61.475-3e-3 -5e-3c-2.857 13.468-7.822 71.603 58.158 71.603 59.395 0 90.399-47.67 96.795-71.699v0.057l20.464-78.161c0.282-1.088 0.273-2.789-1.626-4.324" clip-path="url(#SVGID_2_)" fill="#ed1c24"/>
  <path transform="matrix(1.2674 0 0 1.2674 0 31.795)" d="m21.778 194.66c0 3.979-3.223 7.2-7.197 7.2-3.966 0-7.188-3.222-7.188-7.2v-15.884h-7.393v15.884c0 8.06 6.531 14.588 14.581 14.588 8.052 0 14.588-6.528 14.588-14.588v-15.884h-7.391z" clip-path="url(#SVGID_2_)" fill="#ed1c24"/>
  <path transform="matrix(1.2674 0 0 1.2674 0 31.795)" d="m49.841 177.98c-8.052 0-14.585 6.528-14.585 14.582v15.884h7.391v-15.884c0-3.969 3.226-7.198 7.194-7.198 3.974 0 7.204 3.229 7.204 7.198v15.884h7.389v-15.884c0-8.054-6.54-14.582-14.593-14.582" clip-path="url(#SVGID_2_)" fill="#ed1c24"/>
  <rect transform="matrix(1.2674 0 0 1.2674 0 31.795)" x="71.31" y="178.84" width="7.39" height="29.605" clip-path="url(#SVGID_2_)" fill="#ed1c24"/>
  <polygon transform="matrix(1.2674 0 0 1.2674 0 31.795)" points="137.32 170.68 136.36 174.41 151.64 174.41 155.07 167" clip-path="url(#SVGID_2_)" fill="#ed1c24"/>
  <path transform="matrix(1.2674 0 0 1.2674 0 31.795)" d="m167.52 186.33c0.156-0.75 0.991-1.283 2.592-1.283 2.963 0 6.379 0.932 8.967 3.046l6.629-6.962c-3.122-2.825-7.402-4.227-13.561-4.227-8.809 0-14.496 4.535-15.699 10.396l-0.018 0.086c-1.335 6.526 4.563 8.499 11.443 9.914 3.287 0.66 4.196 1.145 4.01 2.027l-0.012 0.084c-0.174 0.841-1.098 1.332-3.002 1.332-3.758 0-7.512-1.058-10.457-3.615l-4.55 4.23-5.487-24.002h-10.596l-16.471 25.816 5.303-25.87h-13.678l-6.713 10.937-0.358-1.798c-1.815-8.755-9.867-9.135-10.987-9.139h-4.558l-6.376 31.12h10.553l3.161-15.425 1.956 12.961h5.78l7.269-12.961-3.159 15.425h19.862l2.501-4.14h11.188l0.838 4.14h11.59l-0.467-2.054c3.158 1.67 7.172 2.518 11.668 2.518 8.592 0 14.924-3.968 16.25-10.442l0.02-0.081c1.273-6.216-3.73-8.505-11.61-9.962-3.252-0.614-4.001-1.152-3.835-1.982zm-31.469 10.633 4.463-7.484 1.382 7.484z" clip-path="url(#SVGID_2_)"/>
 </g>
</svg>
