<svg width="600pt" height="482.6pt" version="1.1" viewBox="0 0 600 482.6" xmlns="http://www.w3.org/2000/svg">
 <g transform="matrix(1.2103 0 0 1.2103 -77.142 -40.501)">
  <path transform="matrix(.75 0 0 .75 -502.82 -16.372)" d="m986.22 66.449v62.641h-64.285v71.672h64.285v309.52h76.422v-309.52h64.285v-71.672h-64.285v-62.641z" fill="#e22028" stroke-width="1.3333"/>
 </g>
 <g transform="matrix(1.2103 0 0 1.2103 -77.142 -40.484)" fill="#fff">
  <path d="m63.74 35.68h87.41v213.79c-0.52567 98.112 55.9 165.95 160.47 165.95 117.94 0 160.21-68.311 160.21-165.95v-115.27h-122.18v-53.755h209.84v169.03c0.76861 150.93-107.95 183.5-247.88 182.73-138.32 0-247.88-41.835-247.88-182.73z" fill="#fff"/>
 </g>
 <path d="m293.84 136.83 63.732 262.32h52.247l63.732-262.32h-56.181l-33.675 180.21-33.675-180.21z" fill="#43a8d9" stroke-width="1.2103"/>
</svg>
