<svg width="1e3" height="535.6" enable-background="new 0 0 1001 536.604" space="preserve" version="1.1" viewBox="0 0 1e3 535.6" xmlns="http://www.w3.org/2000/svg">
 <link href="" rel="stylesheet" type="text/css"/>
 <style type="text/css"/>
 <g transform="translate(-.5 -.49842)">
  <g transform="matrix(1.7337 0 0 1.7337 -62.484 1660.1)">
   <path d="m332.12-930.94c-5.394-13.438-18.537-27.952-43.154-25.958-31.355 3.401-41.128 33.38-36.389 51.264-12.489-8.436-33.724-12.146-52.261 3.693-23.933 23.933-11.133 56.3 2.026 64.064-14.5-1.34-37.417 8.435-42.487 34.002-5.394 31.745 18.865 50.251 42.487 50.251h261.93c27.315 0 42.47-23.572 40.77-45.805-2.681-29.015-29.295-40.148-43.811-37.762 12.129-6.751 28.328-38.463 3.694-63.395-19.551-18.554-44.479-11.803-53.242-3.71 4.723-15.498-3.024-47.537-34.737-52.606-2.191-0.244-4.301-0.377-6.313-0.377-24.209 5e-3 -35.095 17.658-38.512 26.339" fill="#fff"/>
  </g>
  <path d="m390.95 131.51 84.144 191.32-173.54-118.18c-43.467-28.701-34.654-77.88-10.566-99.501 34.107-28.646 82.336-18.679 99.964 26.36" fill="#f37021"/>
  <path d="m506.26 86.463-30.603 214.09-87.044-203.58c-18.778-50.867 23.485-84.251 51.733-84.796 32.355-3.54 72.975 21.022 65.914 74.285" fill="#cc004c"/>
  <path d="m638.55 96.391-86.442 204.18-27.647-184.3c-2.354-28.102 15.273-28.647 21.734-33.875-1.15-4.085-10.019-4.085-10.019-4.085h-16.479c-1.697-48.034 35.913-69.111 66.515-66.769 32.903 1.144 69.966 39.266 52.338 84.85" fill="#6460aa"/>
  <path d="m726.75 203.43-173.43 118.83 81.68-189.03c24.689-59.635 82.336-47.98 102.92-25.161 22.336 22.22 28.85 67.314-11.168 95.361" fill="#0089d0"/>
  <path d="m744.98 343.26h-200.58l162.92-112.9c40.019-26.305 82.391-2.342 93.559 32.187 11.716 38.558-14.727 80.711-55.894 80.711" fill="#0db14b"/>
  <path d="m225.71 260.18c15.329-39.812 57.646-53.808 95.256-29.845l162.92 112.9h-197.58c-41.168 0-73.522-37.415-60.602-83.053" fill="#fcb711"/>
 </g>
 <g transform="translate(-.5 -.49842)" fill="#272425">
  <path d="m0.5 377.33v93.018c0 46.389 31.94 62.645 65.349 62.645 39.743 0 65.331-20.897 65.331-62.645v-93.018h-35.64v86.951c0 24.768-11.104 34.628-29.302 34.628-18.869 0-29.34-10.24-29.34-32.606v-88.973z"/>
  <path d="m147.1 530.5v-158.23l89.984 80.885v-75.829h33.87v158.74l-90.49-86.215v80.654z"/>
  <path d="m288.65 530.5v-153.18h34.983v153.18z"/>
  <path d="m335.78 377.33h38.343l34.884 83.045 34.879-83.045h38.498l-73.373 158.78z"/>
  <path d="m494.4 530.5v-153.18h97.062v32.354h-62.181v26.288h56.619v30.331h-56.619v31.344h62.181v32.859z"/>
  <path d="m607.64 377.31v153.12h34.88v-57.796l44.192 57.796h40.214l-50.378-63.762c21.746-9.101 35.858-20.58 35.858-44.16 0-28.533-20.538-45.202-50.663-45.202zm34.88 29.324h13.163c11.866 0 20.802 7.431 20.802 17.93 0 13.609-9.699 20.486-21.812 20.486h-12.153z"/>
  <path d="m732.51 521.91v-35.387s21.093 15.008 43.896 15.008c11.911 0 18.213-5.452 18.213-14.306 0-13.609-15.649-17.923-31.061-24.654-16.07-7.501-34.143-20.248-34.143-43.521 0-25.875 22.483-44.019 53.923-44.019 22.652 0 36.123 8.363 36.123 8.363v33.641s-17.699-12.401-36.067-12.401c-11.891 0-19.094 5.065-19.094 13.563 0 11.618 13.709 16.635 28.438 22.821 23.604 9.955 36.985 21.308 36.985 44.555 0 25.502-20.389 47.596-54.693 47.596-24.062 1e-3 -42.52-11.258-42.52-11.259z"/>
  <path d="m918.35 373.98c-47.576 0-82.243 33.546-82.243 79.778 0 48.825 38.844 80.411 82.527 80.411 42.14 0 81.864-31.438 81.864-79.969 0-45.2-34.009-80.22-82.148-80.22zm0.063 33.744c20.397 0 42.653 14.472 42.653 46.888 0 30.198-21.938 45.498-42.527 45.498-23.62 0-42.938-17.391-42.938-46.225 0-29.34 19.665-46.161 42.812-46.161z"/>
 </g>
</svg>
