<svg enable-background="new 0 0 1662.8 1172.3" space="preserve" version="1.1" viewBox="0 0 1662.8 1172.3" xmlns="http://www.w3.org/2000/svg">
 <style type="text/css">.st0{fill:#FDEE33;}
	.st1{fill:#2CC0CC;}</style>
 <link href="" rel="stylesheet" type="text/css"/>
 <g transform="translate(0 -1050.4)">
  <g transform="translate(-278.75 499.48)">
   <path class="st0" d="m1110.2 550.9c-198.1 0-403.8 101.5-490.6 267.7-1.1 4.7-2.7 11-2.8 15.9 0 26.1 21.3 47.3 47.5 47.3 22.2 0 28.8-7.6 45.3-28.7 92-127.5 238.3-203.9 400.6-208.5 274.4 0 404.6 212.4 404.6 212.4 5.4 5.8 20.2 24.1 41.8 24.8 26.2 0 47.5-21.2 47.5-47.3 0-5.2-0.9-10.3-2.6-15.2h0.1s-0.1-0.3-0.2-0.3c-103.2-178.8-303.5-268.1-491.2-268.1z"/>
   <path class="st0" d="m1110.2 1723.2c-335.2 0-517.8-255.3-563.8-427.1-1.1-4.7-2.7-11-2.8-15.9 0-26.1 21.3-47.3 47.5-47.3 22.2 0 28.8 7.6 45.3 28.7 29.2 109.1 156 358.8 473.8 367.9 365.2 0 476.5-373 476.5-373 9-9.5 20.2-24.1 41.8-24.8 26.2 0 47.5 21.2 47.5 47.3 0 5.2-0.9 10.3-2.6 15.2-71.9 264.3-297.7 418.3-563.2 429z"/>
  </g>
  <g transform="translate(-278.75 499.48)">
   <path class="st1" d="m314.1 947.5c-19.5 0-35.2 15.7-35.2 35.2 0.4 19.9-0.6 40 0 59.8 0 90.4 46.7 124.5 100.8 127.8 69.6 0 102.9-46.4 102.9-126.1 0.3-20.3 0.1-41 0.1-61.4 0-19.5-15.7-35.2-35.2-35.2s-35.2 15.7-35.2 35.2v58.4l0.2 27.6s0.7 32.4-29.9 32.4c-33.1 0-33.5-33.3-33.5-33.3l0.2-26.7v-58.4c0.1-19.6-15.6-35.3-35.2-35.3z"/>
   <path class="st1" d="m536.6 947.5c-19.5 0-35.2 15.7-35.2 35.2v147.3c0 19.5 15.7 35.2 35.2 35.2s35.2-15.7 35.2-35.2v-56.9l68.4 77c6.4 9.1 16.9 15.1 28.9 15.1 19.5 0 35.2-15.7 35.2-35.2v-147.2c0-19.5-15.7-35.2-35.2-35.2s-35.2 15.7-35.2 35.2v57.4l-69.4-79c-0.9-1.2-1.9-2.3-3-3.4-6.4-6.3-15.2-10.3-24.9-10.3z"/>
   <path class="st1" d="m757.7 947.8c19.1 0 34.6 15.4 34.6 34.6v149.1c0 19.1-15.4 34.6-34.6 34.6s-34.6-15.4-34.6-34.6v-149.1c0-19.1 15.4-34.6 34.6-34.6z"/>
   <path class="st1" d="m1042.7 949.5c-17.1 0-29.4 20.4-29.7 34.6v147.4c0 18.3 15.1 34.5 32.2 34.5h99c17.6 0 31.8-14.2 31.8-31.8s-14.2-31.8-31.8-31.8h-62v-17.6h43.3c15.4 0 27.8-12.4 27.8-27.8s-12.4-27.8-27.8-27.8h-43.3v-16.2h62c17.6 0 31.8-14.2 31.8-31.8s-14.2-31.8-31.8-31.8l-101.5 0.1z"/>
   <path class="st1" d="m1190.1 947.8v183.7c0 19.1 15.4 34.6 34.6 34.6 19.1 0 34.6-15.4 34.6-34.6v-26.9h8.2l44.1 51.9c12.4 14.6 34.1 16.4 48.7 4s16.4-34.1 4-48.7l-19.1-22.6c17.8-13.6 29.3-35.1 29.3-59.4v-7.2c0-41.4-33.4-74.8-74.8-74.8h-109.6zm68.6 64.1h36.9c8.3 0 14.9 6.7 14.9 14.9 0 8.3-6.7 14.9-14.9 14.9h-36.9v-29.8z"/>
   <path class="st1" d="m841.5 949.8c-4.5 0-9.1 0.8-13.5 2.7-17.7 7.3-26 27.5-18.7 45.2l57 137.7c6.2 15 13.3 31.5 37.2 31.5 23.7 0 30.6-16.5 36.8-31.5l57-137.7c7.3-17.7-1-37.8-18.7-45.2s-37.8 1-45.2 18.7l-30.2 72.9-30.2-72.9c-5.3-13.3-18-21.3-31.5-21.4z"/>
   <path class="st1" d="m1615.1 980.5-56.2 143.8c-6.1 15.6 1.5 33.5 16.8 40.1s35.6-1.2 41.5-16.8l6.1-15.9h78.9l6.1 15.9c5.9 15.6 26.1 23.5 41.5 16.8 15.3-6.6 22.9-24.5 16.8-40.1l-56.2-143.8c-6.6-16.9-23.6-33.5-47.7-33.5-28.2 0-41.5 19.1-47.6 33.5zm47.6 47.3 18 47.4h-36.1l18.1-47.4z"/>
   <path class="st1" d="m1815.9 947.8c-19.1 0-34.6 15.4-34.6 34.6v149.1c0 23.1 19.8 34.9 34.7 34.9h90.9c19.2 0 34.7-15.5 34.7-34.7s-15.5-34.7-34.7-34.7h-56.4v-114.6c0-19.1-15.4-34.6-34.6-34.6z"/>
   <path class="st1" d="m1470.7 1167.2c-17.3 0-31.7-3.2-48.3-7.6-23-6.2-37.4-17.9-37.4-40.1 0-14.6 12.7-30.1 32-30.1 17.8 0 24.4 12.4 50.9 17.3 8.5 1.5 11.5-2.7 12.2-4.4 2.8-7-10.7-11.9-10.7-11.9s-79.2-18.5-79.2-72.3c0-21.7 11.8-44.8 28.7-58.4 14-11.3 34.4-13 52.4-13 18.1 0 37.5 2.7 56.1 13.4 10.3 6 18.8 11.4 18.8 29.4 0 20.5-16.8 35.4-44.2 28-9.4-2.5-18.1-8.8-27.8-8.8-8.7 0-13.2 0.8-13.2 6.7 0 5.4 11.7 8.5 29.5 15.7 16.3 6.6 60.7 19.7 60.7 67 0 23.6-11 43.3-30.4 56.8-12.5 8.4-28.4 12.3-50.1 12.3z"/>
   <path class="st1" d="m1364.1 1422.5c-17.3 0-31.7-3.2-48.3-7.6-23-6.2-37.4-17.9-37.4-40.1 0-14.6 12.7-30.1 32-30.1 17.8 0 24.4 12.4 50.9 17.3 8.5 1.5 11.5-2.7 12.2-4.4 2.8-7-10.7-11.9-10.7-11.9s-79.2-18.5-79.2-72.3c0-21.7 11.8-44.8 28.7-58.4 14-11.3 34.4-13 52.4-13 18.1 0 37.5 2.7 56.1 13.4 10.3 6 18.8 11.4 18.8 29.4 0 20.5-16.8 35.4-44.2 28-9.4-2.5-18.1-8.8-27.8-8.8-8.7 0-13.2 0.8-13.2 6.7 0 5.4 11.7 8.5 29.5 15.7 16.3 6.6 60.7 19.7 60.7 67 0 23.6-11 43.3-30.4 56.8-12.5 8.5-28.4 12.3-50.1 12.3z"/>
   <path class="st1" d="m928.2 1201.7c-11.1 0.2-21.9 5.7-28.4 15.8l-42.8 45.2v-26.4c0-19.1-15.4-34.6-34.6-34.6-19.1 0-34.6 15.4-34.6 34.6v149.1c0 19.1 15.4 34.6 34.6 34.6 19.1 0 34.6-15.4 34.6-34.6v-23l16.5-18.3 32.9 59.2c9.5 16.6 30.6 22.3 47.2 12.8s22.3-30.6 12.8-47.2l-42.1-72.7 33.5-41.2c10.4-16.1 5.9-37.4-10.2-47.8-5.9-3.8-12.7-5.6-19.4-5.5z"/>
   <path class="st1" d="m1020.4 1280.5c19.1 0 34.6 15.4 34.6 34.6v71.2c0 19.1-15.4 34.6-34.6 34.6s-34.6-15.4-34.6-34.6v-71.2c0.1-19.2 15.5-34.6 34.6-34.6z"/>
   <path class="st1" d="m1055.6 1238.6c0 19.6-15.8 35.5-35.4 35.5-19.5 0-35.4-15.9-35.4-35.5s15.8-35.5 35.4-35.5 35.4 15.9 35.4 35.5z"/>
   <path class="st1" d="m1101.7 1203.1c-18.9 0-26.7 21.2-26.7 30.8v155.6c0 14.2 11.3 30.7 31.8 30.7h70.4s97.3-11.6 97.3-108.4c0-94.9-95.7-108.8-95.7-108.8h-77.1zm106 111.4c0 49.6-64.9 46.5-64.9 46.5l-0.7-98.9c51.2-0.1 65.6 22.7 65.6 52.4z"/>
  </g>
 </g>
</svg>
