<svg width="800" height="336.76" version="1.1" viewBox="0 0 800 336.76" xml:space="preserve" xmlns="http://www.w3.org/2000/svg"><defs><clipPath id="clipPath78"><path d="m0 0h612v792h-612z"/></clipPath><clipPath id="clipPath106"><path d="m0 0h612v792h-612z"/></clipPath><clipPath id="clipPath122"><path d="m0 0h612v792h-612z"/></clipPath><clipPath id="clipPath142"><path d="m0 0h612v792h-612z"/></clipPath><radialGradient id="radialGradient1124" cx="538.69" cy="268.47" r="21.52" gradientTransform="matrix(1.4396 -1.4396 1.46 1.46 -381.38 705.58)" gradientUnits="userSpaceOnUse"><stop stop-color="#a7a7a7" offset="0"/><stop stop-color="#31312f" offset="1"/></radialGradient></defs><g transform="matrix(1.3333 0 0 -1.3333 -425.33 631.71)"><path d="m842.32 297.14c0-25.945-20.573-46.973-45.952-46.973-25.373 0-45.946 21.028-45.946 46.973 0 25.939 20.573 46.971 45.946 46.971 25.379 0 45.952-21.032 45.952-46.971" fill="url(#radialGradient1124)"/><g transform="matrix(2.1352 0 0 2.1352 -362.14 -251.13)"><g transform="translate(.0005314 .0003685)"><g clip-path="url(#clipPath122)"><g transform="translate(530.46 263.47)"><path d="m0 0 0.531 2.556 6.753 2.422-1.034-4.978h3.618l-0.839-4.034h-3.619l-1.39-6.691c-0.093-0.438-0.809-2.624 0.637-2.624 0.824 0 1.678 0 2.423 0.102l-0.791-3.8c-1.469-0.269-2.504-0.337-3.424-0.337-4.244 0-6.683 0.607-5.278 5.785l1.573 7.565h-3.224l0.84 4.034z" fill="#fff"/></g></g></g><g transform="translate(544.61 246.59)"><path d="m0 0-2.772 16.879h6.643l0.796-11.835h0.066l5.947 11.835h5.821l-9.759-16.879z" fill="#fff"/></g></g><g transform="matrix(2.1352 0 0 2.1352 -362.14 -251.13)" fill="#31312f"><path d="m375.44 322.12-5.899-28.37c-2.716-12.478-13.513-17.382-24.565-17.382-11.053 0-19.81 4.904-17.336 17.382l5.899 28.37h12.146l-5.771-27.749c-1.005-5.711 1.161-9.312 6.869-9.312 5.709 0 9.372 3.601 10.742 9.312l5.769 27.749z"/><g transform="translate(416.04 319.82)"><path d="m0 0h-13.421l1.807 8.691h39.29l-1.807-8.691h-13.724l-7.513-36.13h-12.145z" fill="#31312f"/></g><g transform="translate(418.72 277.78)"><path d="m0 0 26.627 44.82h14.817l7.986-44.82h-13.723l-1.095 8.753h-17.793l-4.674-8.753zm33.443 17.443-1.714 18.624h-0.183l-9.823-18.624z" fill="#31312f"/></g><g transform="translate(462.18 277.86)"><path d="m0 0 9.32 44.821h19.251l0.853-30.357h0.122l13.234 30.357h18.887l-9.319-44.821h-10.628l7.796 37.496-0.095 0.124-18.086-37.62h-10.93l-1.769 37.93-0.147-0.124-7.861-37.806z" fill="#31312f"/></g><g transform="translate(378.58 339.5)"><path d="m0 0 16.312-38.577 3.645 29.083 17.696-105.23-32.16 75.755-13.969-42.96z" fill="#31312f"/></g><g clip-path="url(#clipPath142)" fill="#31312f"><g transform="translate(578.95 322.56)" fill="#31312f"><path d="m0 0c15.061 0 23.745-5.836 20.299-22.411-3.447-16.575-14.558-22.411-29.619-22.411h-18.521l4.608 20.421 4.156-9.533-2.826 14.47 3.381 19.464zm-13.888-36.131h5.709c6.618 0 13.802 4.47 15.726 13.72 1.922 9.25-3.404 13.72-10.022 13.72h-5.709z" fill="#31312f"/></g></g><g transform="translate(517.1 281.59)"><path d="m0 0 9.32 44.82h16.614l3.9-8.69h-10.177l-1.922-9.25h16.252l2.255-5.027-0.76-3.665h-19.554l-1.975-9.497h21.255l-1.808-8.691z" fill="#31312f"/></g><g transform="translate(552.28 326.41)"><path d="m0 0h7.538l-1.808-8.691h-3.809z" fill="#31312f"/></g></g><g transform="matrix(2.1352 0 0 2.1352 -362.14 -251.13)"><g clip-path="url(#clipPath78)"><g transform="translate(345.07 261.66)"><path d="m0 0c0.38 1.565 0.132 2.738-0.677 3.575-0.755 0.839-2.083 1.285-3.941 1.285-2.514 0-5.049-1.676-5.467-3.686-0.616-2.963 2.684-3.912 5.418-4.694 6.253-1.732 15.733-2.402 13.467-13.296-1.765-8.494-10.8-12.516-19.927-12.516-9.182 0-16.701 2.737-14.588 13.688h10.931c-0.845-3.799 1.457-5.867 5.393-5.867 2.514 0 6.018 1.342 6.574 4.023 1.139 5.476-7.193 4.302-14.972 8.157-3.619 1.788-4.819 5.476-3.913 9.834 2.424 9.554 11.168 12.18 19.421 12.18 8.143 0 15.89-2.961 13.212-12.683z" fill="#c20f0f"/></g><g transform="translate(351.68 234.36)"><path d="m0 0 8.388 40.338h18.146c9.673 0 15.351-3.184 13.317-12.961-2.033-9.778-9.034-12.964-18.708-12.964h-7.215l-2.997-14.413zm21.185 22.235c4.352 0.169 6.574 2.179 7.189 5.142 0.617 2.96-0.769 4.972-5.052 5.139h-5.629l-2.138-10.281z" fill="#c20f0f"/></g><g transform="translate(389.21 254.82)"><path d="m0 0c2.765 13.299 11.746 21.008 24.809 21.008 13.062 0 18.837-7.709 16.072-21.008-2.764-13.296-11.746-21.007-24.809-21.007-13.062 0-18.837 7.711-16.072 21.007m23.182 13.185c-7.432 0-10.426-7.039-11.739-13.352-1.243-5.978-1.177-13.019 6.256-13.019s10.427 7.041 11.67 13.019c1.313 6.313 1.246 13.352-6.187 13.352" fill="#c20f0f"/></g><g transform="translate(436.89 235.43)"><path d="m0 0h-10.93l8.388 40.339h18.254c6.667 0 14.919-1.843 13.142-10.393-1.255-6.033-6.454-9.218-12.113-9.888l-0.047-0.224c6.961-0.167 7.518-3.799 6.928-10.057-0.425-3.351-0.486-6.537-0.231-9.777h-11.859c-0.02 2.794 0.256 5.699 0.575 8.548 0.573 4.862 0.774 6.872-4.801 6.872h-4.1zm9.096 23.243c3.498 0 6.99 0.503 7.851 4.637 0.859 4.134-2.425 4.638-5.923 4.638h-4.263l-1.928-9.275z" fill="#c20f0f"/></g></g><g transform="translate(476.28 268.21)"><path d="m0 0h-12.079l1.626 7.823h35.362l-1.628-7.823h-12.352l-6.76-32.518h-10.931z" fill="#c20f0f"/></g><g clip-path="url(#clipPath106)"><g transform="translate(511.67 264.23)"><path d="m0 0c0.379 1.565 0.132 2.738-0.677 3.575-0.754 0.839-2.084 1.287-3.942 1.287-2.514 0-5.047-1.678-5.467-3.688-0.615-2.962 2.685-3.912 5.42-4.693 6.252-1.733 15.733-2.403 13.466-13.297-1.766-8.494-10.8-12.516-19.927-12.516-9.183 0-16.701 2.738-14.589 13.688h10.932c-0.846-3.799 1.457-5.865 5.393-5.865 2.514 0 6.018 1.34 6.574 4.021 1.139 5.476-7.194 4.302-14.974 8.157-3.617 1.788-4.818 5.476-3.912 9.834 2.425 9.554 11.169 12.179 19.422 12.179 8.142 0 15.89-2.96 13.213-12.682z" fill="#c20f0f"/></g></g></g><path d="m529.59 221.21-30.811 73.302 6.8776 10.057 5.9786 6.8135" fill="#31312f"/></g></svg>
