<svg width="202.68" height="107.73" version="1.0" viewBox="0 0 190.01 101" xmlns="http://www.w3.org/2000/svg">
 <g transform="translate(-350.39 -466.85)">
  <g transform="matrix(11.628 0 0 -11.628 -8243 2170.6)" clip-path="url(#id3043)" fill="#d81411">
   <path d="m750.94 145.94c-0.373 0.356-0.876 0.55-1.389 0.569-0.512 0.019-1.029-0.131-1.447-0.428-0.365-0.259-0.649-0.623-0.845-1.024-0.239 0.212-0.487 0.417-0.787 0.538-0.278 0.113-0.616 0.165-0.899 0.038-0.128-0.058-0.239-0.152-0.31-0.274-0.071-0.124-0.1-0.272-0.085-0.415 0.016-0.138 0.076-0.261 0.175-0.358 0.105-0.102 0.238-0.169 0.371-0.223 0.154-0.063 0.314-0.108 0.472-0.156 0.152-0.046 0.302-0.094 0.45-0.15 0.286-0.108 0.567-0.251 0.788-0.466 0.446-0.43 0.589-1.084 0.515-1.684-0.021-0.169-0.062-0.336-0.122-0.495-0.015-0.037-0.03-0.075-0.046-0.111-5e-3 -0.01-0.012-0.029-0.012-0.029s0.036-0.039 0.052-0.054c0.05-0.051 0.103-0.098 0.158-0.144 0.202-0.167 0.433-0.299 0.679-0.391 0.488-0.184 1.04-0.212 1.536-0.042 0.279 0.095 0.541 0.251 0.746 0.463v-0.492h1.695l-1e-3 5.818h-1.694zm-1.13-3.873c-0.264 0-0.515 0.106-0.712 0.279-0.212 0.186-0.357 0.439-0.435 0.708-0.159 0.549-0.03 1.195 0.385 1.602 0.194 0.191 0.45 0.31 0.724 0.319 0.274 8e-3 0.545-0.094 0.753-0.271 0.363-0.308 0.529-0.809 0.506-1.275-0.024-0.469-0.245-0.946-0.654-1.199-0.169-0.106-0.367-0.163-0.567-0.163m-5.172 0.942c-0.079 0.031-0.157 0.065-0.234 0.103-0.144 0.072-0.282 0.157-0.407 0.259-0.229 0.189-0.396 0.438-0.495 0.717-0.102 0.286-0.138 0.597-0.12 0.899 0.019 0.323 0.106 0.642 0.266 0.924 0.126 0.221 0.292 0.419 0.487 0.582h-1.707s-3e-3 -1.8-3e-3 -2.518v-0.537c0-0.167-3e-3 -0.333-0.024-0.499-0.036-0.294-0.131-0.636-0.408-0.791-0.134-0.074-0.291-0.097-0.443-0.092s-0.306 0.044-0.429 0.139c-0.242 0.186-0.319 0.521-0.346 0.81-0.015 0.161-0.015 0.322-0.015 0.482v0.538c0 0.361-1e-3 2.468-1e-3 2.468l-1.756 1e-3s1e-3 -2.396-2e-3 -3.114c-1e-3 -0.348 5e-3 -0.7 0.077-1.042 0.063-0.303 0.176-0.598 0.35-0.854 0.169-0.248 0.396-0.45 0.657-0.598 0.28-0.158 0.594-0.25 0.911-0.296 0.32-0.047 0.648-0.053 0.969-0.026 0.307 0.027 0.613 0.089 0.898 0.208 0.27 0.112 0.517 0.276 0.715 0.492 0.189 0.206 0.332 0.452 0.427 0.714 7e-3 0.021 0.015 0.043 0.022 0.064 0.209-0.206 0.438-0.397 0.701-0.531 0.258-0.132 0.561-0.211 0.851-0.159 0.143 0.025 0.281 0.086 0.387 0.188 0.101 0.096 0.167 0.223 0.192 0.36 0.023 0.129 0.01 0.266-0.048 0.385-0.052 0.109-0.14 0.198-0.24 0.266-0.145 0.098-0.317 0.159-0.483 0.213-0.185 0.06-0.463 0.141-0.53 0.164s-0.183 0.066-0.219 0.081"/>
   <path d="m745.98 139.12h0.359v-0.179c0.082 0.106 0.188 0.203 0.37 0.203 0.271 0 0.429-0.179 0.429-0.469v-0.819h-0.358v0.705c0 0.17-0.08 0.257-0.217 0.257s-0.224-0.087-0.224-0.257v-0.705h-0.359z"/>
   <path d="m747.32 138.48v5e-3c0 0.361 0.257 0.658 0.625 0.658 0.422 0 0.615-0.328 0.615-0.687 0-0.028-2e-3 -0.061-4e-3 -0.094h-0.88c0.035-0.163 0.148-0.247 0.309-0.247 0.12 0 0.207 0.037 0.306 0.129l0.206-0.181c-0.118-0.147-0.288-0.236-0.517-0.236-0.38 0-0.66 0.266-0.66 0.653m0.891 0.106c-0.021 0.161-0.115 0.269-0.266 0.269-0.149 0-0.246-0.106-0.274-0.269z"/>
   <path d="m748.82 138.22v0.6h-0.151v0.306h0.151v0.323h0.358v-0.323h0.298v-0.306h-0.298v-0.54c0-0.083 0.036-0.123 0.116-0.123 0.066 0 0.125 0.016 0.177 0.045v-0.288c-0.076-0.045-0.163-0.073-0.283-0.073-0.219 0-0.368 0.087-0.368 0.379"/>
   <path d="m749.66 139.12h0.364l0.203-0.766 0.238 0.771h0.309l0.24-0.774 0.208 0.769h0.356l-0.394-1.273h-0.323l-0.243 0.776-0.248-0.776h-0.32z"/>
   <path d="m751.61 138.48v5e-3c0 0.363 0.292 0.658 0.686 0.658 0.392 0 0.682-0.29 0.682-0.654v-4e-3c0-0.363-0.293-0.658-0.687-0.658-0.391 0-0.681 0.29-0.681 0.653m1.014 0v5e-3c0 0.186-0.135 0.349-0.333 0.349-0.205 0-0.328-0.158-0.328-0.345v-4e-3c0-0.186 0.135-0.349 0.333-0.349 0.205 0 0.328 0.158 0.328 0.344"/>
   <path d="m753.16 139.12h0.358v-0.254c0.073 0.174 0.191 0.287 0.404 0.278v-0.375h-0.019c-0.238 0-0.385-0.144-0.385-0.446v-0.467h-0.358z"/>
   <path d="m754.11 139.58h0.359v-0.918l0.42 0.46h0.429l-0.481-0.497 0.498-0.767h-0.411l-0.33 0.517-0.125-0.133v-0.384h-0.359z"/>
  </g>
 </g>
</svg>
