<svg width="289" height="195" version="1.0" xmlns="http://www.w3.org/2000/svg" xmlns:xlink="http://www.w3.org/1999/xlink">
 <g transform="translate(-423.43 -256.66)">
  <path d="m679.04 372.5c-1.3853-1.4697-3.328-2.2131-5.5242-2.2131-4.0882 0-7.1967 2.1286-8.3285 5.7945l-0.20273 0.64195c-0.05068 0.15204 0 0.28719 0.03379 0.38855 0.13515 0.10136 0.18583 0.15205 0.33787 0.15205l15.17-0.0169c0.15205 0 0.23651-0.03379 0.33788-0.13515 0.06757-0.10136 0.10136-0.18583 0.06757-0.32097l-0.16894-0.60817c-0.27029-1.5711-0.86157-2.7874-1.7231-3.6828m15.086 14.444h-28.837c-0.10136 0-0.30409 0-0.35477 0.10136-0.01689 0.13515-0.01689 0.30408 0.05068 0.38855l0.21962 0.70953c1.4191 3.4632 4.7471 5.6762 8.734 5.6762 4.0714 0 7.2136-1.4528 9.3759-4.4261 0.20272-0.2703 0.57438-0.30409 0.84468-0.10137l8.3623 6.1662c0.13514 0.11825 0.18582 0.23651 0.20272 0.42234 0 0.18582-0.0169 0.30408-0.06758 0.47302-3.9531 4.9667-11.792 8.4637-19.174 8.4637-13.43 0-22.739-9.2408-22.773-22.536 0.03379-13.245 9.3421-22.519 22.773-22.519 6.0141 0 11.133 2.061 14.985 5.879 4.0882 4.0545 6.2675 9.8321 6.2675 16.64v4.0376c0 0.33787-0.28719 0.62506-0.60817 0.62506m-45.934 16.961c0 0.40544-0.32098 0.76021-0.77711 0.76021h-12.924c-0.38856 0-0.82779-0.32098-0.82779-0.69264v-25.459c0-2.855-2.2806-5.1694-5.2032-5.1694-2.8212 0-5.1863 2.2637-5.1863 5.1694v25.459c0 0.38856-0.38855 0.69264-0.77711 0.69264h-11.555c-0.43924 0-0.77711-0.35477-0.77711-0.76021v-25.34c0-2.9564-2.3482-5.2201-5.2032-5.2201-2.9057 0-5.237 2.3144-5.237 5.2201v25.34c0 0.40544-0.35477 0.76021-0.794 0.76021h-12.94c-0.40545 0-0.76021-0.35477-0.76021-0.76021v-25.425c0-10.339 8.4468-18.819 18.819-18.819 3.3787 0 6.5716 0.81089 9.3084 2.2806 0 0 2.9564 1.5204 6.6054 0 0.15204-0.06757 0.32098-0.11825 0.45613-0.20272 2.6692-1.3346 5.7607-2.0779 8.9705-2.0779 10.406 0 18.803 8.4806 18.803 18.819v25.425zm44.008-70.142c-27.013-26.996-70.7-26.996-97.712 0l-48.485 48.434 48.485 49.228c27.013 26.979 70.7 26.979 97.712 0 26.962-26.979 26.962-70.716 0-97.662" fill="#2a3d91"/>
  <path d="m538.59 294.53-27.435 63.672c-2.6692 6.2337-9.7307 10.204-16.961 10.153-7.1798 0.05068-14.174-4.0544-17.012-10.153l-27.435-63.672c-0.25341-0.92915 0.30408-1.6725 1.1994-1.7231h25.949c0.69263 0.05068 1.4528 0.54059 1.7738 1.2163l15.424 43.569c0 0.01689 0.05068 0.13515 0.10136 0.13515 0.06757 0 0.13515-0.11826 0.13515-0.13515l15.407-43.569c0.32098-0.67574 1.0812-1.1656 1.7569-1.2163h25.932c0.91226 0 1.436 0.76021 1.1657 1.7231m2.7705-17.637c-26.996-26.979-70.716-26.979-97.729 0-26.945 26.962-26.945 70.7 0 97.679 27.013 26.979 70.733 26.979 97.729 0l48.434-48.434-48.434-49.245z" fill="#9a1a1f"/>
  <g transform="matrix(1 0 0 -1 150 919.42)" clip-path="url(#id412)">
   <g transform="matrix(.066849 0 0 .054459 199.26 578.48)">
    <use width="744.09448" height="1052.3622" xlink:href="#id413"/>
   </g>
  </g>
 </g>
</svg>
