<svg width="10.908mm" height="1.808mm" version="1.1" viewBox="0 0 10.908 1.808" xmlns="http://www.w3.org/2000/svg">
 <g transform="translate(22.463 -147.93)">
  <path d="m-22.091 149.74h0.72919l0.44168-1.5766-0.81386 0.29492z" fill="#0098da" stroke-width=".35278"/>
  <path d="m-22.463 149.74h0.30586l0.35313-1.2562-0.33443 0.11924z" fill="#94d5f6" stroke-width=".35278"/>
  <path d="m-20.9 148.09 0.04445-0.1591h-1.1007l-0.16828 0.60007z" fill="#43c0f0" stroke-width=".35278"/>
  <g transform="matrix(.35278 0 0 .35278 -22.463 147.93)" fill="#fff">
   <path d="m8.017 2.941v1.223h0.402c0.482 0 0.856-0.086 0.856-0.597 0-0.561-0.389-0.626-0.841-0.626zm0-1.999v1.086h0.381c0.432 0 0.754-0.108 0.754-0.554 0-0.467-0.294-0.532-0.74-0.532zm-1.389 4.178v-5.12h2.273c0.95 0 1.646 0.432 1.646 1.295 0 0.639-0.322 0.999-0.905 1.186v0.022c0.69 0.143 1.035 0.539 1.035 1.15 0 1.172-1.006 1.467-1.956 1.467z"/>
   <path d="m12.894 0.978v1.395h0.302c0.46 0 0.835-0.173 0.835-0.705 0-0.525-0.382-0.69-0.842-0.69zm7e-3 2.374v1.768h-1.395v-5.12h1.877c1.323 0 2.042 0.525 2.042 1.683 0 1.042-0.755 1.669-2.006 1.669z"/>
   <path d="m16.138 2.23e-6h3.488v0.985h-2.092v1.036h1.89v0.985h-1.89v1.13h2.171v0.984h-3.567z"/>
   <path d="m24.596 1.3525h-0.021l-1.353 1.481-1.358-1.481h-0.022v3.767h-1.389v-5.119h1.598l1.171 1.279 1.172-1.279h1.59v5.119h-1.388z"/>
   <path d="m28.971 0.9635c-0.411 0-0.719 0.31-0.719 0.676 0 0.475 0.351 0.684 0.719 0.684h0.56v-1.36zm0.552 2.315h-0.394l-0.942 1.841h-1.568l1.223-2.07c-0.533-0.188-0.978-0.683-0.978-1.467 0-0.871 0.726-1.582 1.646-1.582h2.409v5.119h-1.396z"/>
  </g>
 </g>
</svg>
