<svg width="787" height="215" version="1.1" xmlns="http://www.w3.org/2000/svg">
 <g transform="translate(-40.704 -86.997)">
  <polygon transform="matrix(26.364 0 0 26.364 -13144 -17358)" points="525.53 663.15 529.96 663.15 529.96 662.14 524.42 662.14" clip-path="url(#SVGID_1070_)" fill="#eb244b"/>
  <polygon transform="matrix(26.364 0 0 26.364 -13144 -17358)" points="529.96 664.13 526.62 664.13 527.17 664.63 526.6 665.14 529.96 665.14" clip-path="url(#SVGID_1070_)" fill="#eb244b"/>
  <polygon transform="matrix(26.364 0 0 26.364 -13144 -17358)" points="529.96 667.13 529.96 666.12 525.51 666.12 524.4 667.13" clip-path="url(#SVGID_1070_)" fill="#eb244b"/>
  <g fill="#fff">
   <polygon transform="matrix(26.364 0 0 26.364 -13144 -17358)" points="505.53 664.99 506.82 662.14 508.11 662.14 505.5 667.5 504.11 664.29 502.72 667.5 500.11 662.14 501.4 662.14 502.71 664.99 504.11 661.69" clip-path="url(#SVGID_1070_)"/>
   <path d="m346.92 99.045h30.503v131.32h-30.503v-13.762c-12.523 11.785-25.89 17.638-40.364 17.638-18.244 0-33.219-6.6174-45.056-19.72-11.785-13.419-17.638-30.134-17.638-50.224 0-19.668 5.8528-36.066 17.638-49.275 11.811-13.024 26.549-19.536 44.318-19.536 15.291 0 29.027 6.222 41.128 18.85v-15.291zm-72.106 65.225c0 12.708 3.401 22.884 10.124 30.978 6.9602 7.9093 15.687 11.969 26.232 11.969 11.258 0 20.406-3.981 27.234-11.653 7.092-7.9884 10.387-18.165 10.387-30.503 0-12.312-3.2955-22.515-10.387-30.503-6.8283-7.8565-15.871-11.732-26.918-11.732-10.493 0-19.219 3.9283-26.232 11.89-6.9074 7.9884-10.44 17.901-10.44 29.554" clip-path="url(#SVGID_1070_)"/>
   <path d="m423.96 301.89h-30.266v-202.87h30.345v14.263c11.969-11.917 25.6-17.822 40.785-17.822 18.112 0 33.034 6.6174 44.714 19.852 11.811 13.288 17.69 30.002 17.69 50.118 0 19.641-5.8001 36.119-17.664 49.248-11.6 12.998-26.47 19.51-44.345 19.51-15.318 0-29.106-6.1956-41.26-18.56v86.264zm72.264-136.36c0-12.628-3.3746-22.779-10.282-30.635-6.8811-8.1202-15.66-12.128-26.18-12.128-11.126 0-20.221 3.8755-27.129 11.679-6.8811 7.7511-10.388 17.822-10.388 30.451 0 12.338 3.5064 22.489 10.388 30.477 6.881 7.8565 15.871 11.811 26.997 11.811 10.572 0 19.299-4.0074 26.074-11.969 6.9074-7.9093 10.519-17.743 10.519-29.686" clip-path="url(#SVGID_1070_)"/>
   <path d="m639.59 99.045h30.424v131.32h-30.424v-13.762c-12.628 11.785-26.074 17.638-40.311 17.638-18.218 0-33.324-6.6174-45.162-19.72-11.706-13.419-17.743-30.134-17.743-50.224 0-19.668 6.0374-36.066 17.743-49.275 11.785-13.024 26.575-19.536 44.292-19.536 15.318 0 29.053 6.222 41.207 18.85v-15.291zm-72.106 65.225c0 12.708 3.5064 22.884 10.203 30.978 6.9074 7.9093 15.502 11.969 26.153 11.969 11.205 0 20.327-3.981 27.155-11.653 7.0392-7.9884 10.546-18.165 10.546-30.503 0-12.312-3.5328-22.515-10.546-30.503-6.8283-7.8565-15.871-11.732-26.918-11.732-10.467 0-19.14 3.9283-26.206 11.89-6.881 7.9884-10.387 17.901-10.387 29.554" clip-path="url(#SVGID_1070_)"/>
   <path d="m468.41 254.36h9.0166l17.901 46.48h-9.1747l-3.7964-9.5175h-18.903l-3.8492 9.5175h-9.1747l17.98-46.48zm4.5346 12.259-6.1956 16.056h12.444l-6.2483-16.056z" clip-path="url(#SVGID_1070_)"/>
   <polygon transform="matrix(26.364 0 0 26.364 -13144 -17358)" points="518.65 668.04 519.06 669.27 519.48 668.04 519.8 668.04 520.1 669.8 519.77 669.8 519.58 668.68 519.21 669.8 518.91 669.8 518.54 668.68 518.35 669.8 518.02 669.8 518.32 668.04" clip-path="url(#SVGID_1070_)"/>
   <polygon transform="matrix(26.364 0 0 26.364 -13144 -17358)" points="521.88 668.68 521.88 669.01 521.24 669.01 521.24 669.47 521.88 669.47 521.88 669.8 520.91 669.8 520.91 668.04 521.88 668.04 521.88 668.36 521.24 668.36 521.24 668.68" clip-path="url(#SVGID_1070_)"/>
   <path d="m637.56 254.33h9.412c5.1674 0 8.8584 0.44819 10.941 1.3709l5.2728 4.6137c1.45 2.1355 2.0037 4.561 2.0037 7.5138 0 3.0582-0.7382 5.6683-2.2673 7.672-1.3446 2.03-3.6383 3.6119-6.5383 4.7983l10.994 20.538h-9.7284l-10.44-19.668h-0.79093v19.668h-8.8584v-46.506zm8.8584 18.244h2.7682c2.9001 0 4.8246-0.3691 5.8792-1.2128l1.5291-3.6119-0.71183-2.7155-2.1091-1.6082-4.8774-0.52729h-2.4782v9.6757z" clip-path="url(#SVGID_1070_)"/>
   <rect x="688.21" y="254.36" width="8.8056" height="46.454" clip-path="url(#SVGID_1070_)"/>
   <path d="m763.98 262.58-6.1956 5.8792c-4.1128-4.5083-8.8584-6.591-14.105-6.591-4.5083 0-8.252 1.3973-11.258 4.4556-3.0846 3.0319-4.6401 6.7229-4.6401 11.205 0 3.1373 0.63274 5.8792 2.03 8.3311 1.4237 2.3992 3.2692 4.3501 5.6419 5.6419 2.5573 1.3973 5.3256 2.03 8.3047 2.03 2.5837 0 4.9037-0.55365 7.0392-1.4237 2.1091-0.89638 4.4819-2.6892 6.9865-5.2728l6.0374 6.301c-3.401 3.3219-6.6438 5.5892-9.7284 7.0392-3.0319 1.2918-6.512 1.8191-10.414 1.8191-7.2765 0-13.156-2.2146-17.849-6.881-4.6665-4.5083-6.9074-10.361-6.9074-17.611 0-4.6401 1.1337-8.7793 3.111-12.444 2.0828-3.5328 5.1938-6.4329 9.0166-8.5684 3.9019-2.2146 8.2256-3.2955 12.708-3.2955 3.7964 0 7.4874 0.81729 11.099 2.4255 3.5592 1.6346 6.6438 3.9546 9.122 6.9602" clip-path="url(#SVGID_1070_)"/>
   <path d="m800.28 254.36h8.9111l17.928 46.48h-9.2011l-3.6119-9.5175h-19.061l-3.7437 9.5175h-9.2538l18.033-46.48zm4.5346 12.259-6.222 16.056h12.444l-6.222-16.056z" clip-path="url(#SVGID_1070_)"/>
   <polygon transform="matrix(26.364 0 0 26.364 -13144 -17358)" points="521.69 667.77 521.25 667.91 521.22 667.78 521.64 667.58" clip-path="url(#SVGID_1070_)"/>
  </g>
 </g>
</svg>
