<svg width="608.47" height="166.16" version="1.0" xml:space="preserve" xmlns="http://www.w3.org/2000/svg"><g transform="translate(-3.0423 -.8308)" fill="#fff"><path d="m29.427 10.167s26.596 57.986 26.596 57.986l28.68-67.322 28.887 67.322s26.285-57.986 26.285-57.986h26.278l-53.187 109.09s-28.263-65.389-28.263-65.389-28.578 65.389-28.578 65.389l-53.084-109.09h26.385z"/><path d="m184.06 60.686c0 9.7424 2.6123 17.673 7.8302 23.793 5.3589 6.1914 12.112 9.2859 20.257 9.2859 8.7018 0 15.729-2.9883 21.089-8.9734 5.362-6.1878 8.0396-14.052 8.0396-23.579 0-9.53-2.6776-17.393-8.0396-23.585-5.3601-6.0528-12.323-9.0796-20.881-9.0796-8.075 0-14.825 3.0603-20.257 9.1821-5.3571 6.1951-8.0383 13.845-8.0383 22.957zm55.731-50.519h23.569v101.54h-23.569v-10.643c-9.671 9.0686-20.073 13.601-31.207 13.601-14.057 0-25.678-5.0745-34.862-15.222-9.1174-10.363-13.676-23.295-13.676-38.801 0-15.226 4.5587-27.908 13.676-38.061 9.115-10.154 20.527-15.228 34.235-15.228 11.829 0 22.441 4.8706 31.834 14.6v-11.785z"/><path d="m355.24 61.626c0-9.7363-2.6453-17.665-7.9358-23.794-5.3552-6.189-12.113-9.2847-20.254-9.2847-8.6328 0-15.63 2.9913-20.986 8.9758-5.3601 5.9839-8.0414 13.844-8.0414 23.579 0 9.5337 2.6813 17.391 8.0414 23.585 5.2893 6.0584 12.249 9.0772 20.884 9.0772 8.1421 0 14.861-3.0579 20.145-9.1785 5.4272-6.123 8.147-13.776 8.147-22.96zm-55.882 105.36h-23.419v-156.82h23.452v11.053c9.2542-9.2444 19.763-13.869 31.525-13.869 13.99 0 25.508 5.1489 34.554 15.433 9.1846 10.225 13.781 23.118 13.781 38.693 0 15.226-4.5593 27.919-13.679 38.068-9.0503 10.081-20.472 15.118-34.261 15.118-11.901 0-22.554-4.7595-31.953-14.287v66.614z"/><path d="m410.32 60.686c0 9.7424 2.6123 17.673 7.8345 23.793 5.3577 6.1914 12.107 9.2859 20.258 9.2859 8.6963 0 15.731-2.9883 21.086-8.9734 5.3613-6.1878 8.0383-14.052 8.0383-23.579 0-9.53-2.677-17.393-8.0383-23.585-5.3552-6.0528-12.321-9.0796-20.884-9.0796-8.075 0-14.823 3.0603-20.254 9.1821-5.3552 6.1951-8.0408 13.845-8.0408 22.957zm55.732-50.519h23.569v101.54h-23.569v-10.643c-9.6704 9.0686-20.074 13.601-31.202 13.601-14.062 0-25.684-5.0745-34.864-15.222-9.1211-10.363-13.676-23.295-13.676-38.801 0-15.226 4.5544-27.908 13.676-38.061 9.1138-10.154 20.527-15.228 34.232-15.228 11.83 0 22.441 4.8706 31.835 14.6v-11.785z"/></g><g transform="translate(-3.0423 -.8308)" fill="#fa0029"><path d="m498.56 10.172 22.677 20.456h90.272v-20.456h-112.95z"/><path d="m554.67 60.797-11.522 10.389 68.357 0.0038 2e-3 -20.465h-67.998l11.161 10.072z"/><path d="m498.2 111.74h113.31v-20.459h-90.632l-22.681 20.459z"/></g></svg>
