<svg width="800" height="778.65" version="1.1" viewBox="0 0 800 778.65" xmlns="http://www.w3.org/2000/svg">
 <link href="" rel="stylesheet" type="text/css"/>
 <style type="text/css"/>
 <g transform="translate(-31.86 603.01)">
  <g transform="matrix(4.9438 0 0 -4.9438 31.86 175.65)" stroke-width=".18761">
   <g transform="scale(.1)" stroke-width=".18761">
    <path d="m1601.6 63.422h-1590v1500h1590v-1500" fill="#fff"/>
    <path d="m1224.4 1222.9h-2.64l-176.73-229.9h179.37zm0-371.88h-386.21v140.53l365.16 466.13h212.06v-464.67h119v-141.98h-119v-150.74h-191.01v150.74" fill="#1c4f9c"/>
    <path d="m441.06 1457.3c-201.96 0-360.28-167.19-367.91-365.8-3.3633-87.85 70.914-366.39 367.91-365.34 202.1 0.711 366.08 162.66 366.08 364.76 0 202.12-163.98 366.38-366.08 366.38zm0.011-588.28c-191.57 0-311.54 133.4-344.7 222.43 45.922 91.85 157.64 220.4 342.22 220.4 182.62 0 314.67-128.77 345.31-220.4-34.918-85.59-158.25-222.43-342.84-222.43" fill="#1c4f9c"/>
    <path d="m633.18 1091.3c0-106.66-86.485-193.14-193.14-193.14-106.68 0-193.18 86.477-193.18 193.14 0 106.68 86.497 193.16 193.18 193.16 106.66 0 193.14-86.48 193.14-193.16" fill="#1c4f9c"/>
    <path d="m1590 601.5h-1557.3v940.8h1557.3zm-226.49-441.01c-72.84 0-146.89 35.403-146.89 135.5 0 100.1 89.12 129.8 144.85 129.8 56.16 0 142.82-32.961 142.82-128.16 0-95.219-67.94-137.14-140.78-137.14zm-212.81 34.192c-19.53-19.532-58.6-34.602-102.95-34.602-44.36 0-72.844 11.801-99.688 30.934-26.855 19.117-48.43 59.816-48.43 98.879 0 34.179 6.106 61.847 31.34 90.738 25.223 28.891 70.388 44.75 107.82 44.75 37.44 0 68.37-6.5 96.86-27.238 28.48-20.77 39.05-44.77 39.05-44.77l-39.46-22.391s-22.8 54.129-92.36 54.129c-77.728 0-97.259-58.199-97.259-96.039s31.746-88.711 102.54-88.711c70.79 0 94.39 57.789 94.39 57.789l39.89-22.378s-12.21-21.571-31.74-41.09zm-327.57 0c-19.519-19.532-58.593-34.602-102.94-34.602-44.344 0-72.824 11.801-99.683 30.934-26.86 19.117-48.43 59.816-48.43 98.879 0 34.179 6.113 61.847 31.332 90.738 25.226 28.891 70.402 44.75 107.84 44.75 37.422 0 68.347-6.5 96.832-27.238 28.48-20.77 39.066-44.77 39.066-44.77l-39.469-22.391s-22.797 54.129-92.363 54.129c-77.73 0-97.258-58.199-97.258-96.039s31.739-88.711 102.54-88.711c70.813 0 94.407 57.789 94.407 57.789l39.867-22.378s-12.196-21.571-31.739-41.09zm-377.2-26.86h-41.086l-70.8 188.8-71.223-188.4h-41.488l-105.4 249.84h48.016l77.312-190.02 72.836 190.45h40.289l72.426-190.85 76.914 190.42h48.008zm-445.94 1407.2v-1575h1618.2v1575h-1618.2" fill="#1c4f9c"/>
    <path d="m1361.4 385.11c-40.64 0-98.62-20.679-98.62-90.3 0-69.61 50.42-94.239 100-94.239 49.59 0 95.84 29.168 95.84 95.391 0 66.219-56.48 89.148-97.22 89.148" fill="#1c4f9c"/>
   </g>
  </g>
 </g>
</svg>
