<svg width="800" height="206.21" data-name="Layer 1" version="1.1" viewBox="0 0 800 206.21" xmlns="http://www.w3.org/2000/svg">
 <g transform="translate(0 93.567)" fill="#2a7831">
  <path class="cls-1" d="m175.32 112.64a94.389 94.389 0 0 0 64.073-28.137 83.039 83.039 0 0 0 124.81-0.23799 83.222 83.222 0 0 0 145.81-54.92v-121.06h-54.352v121.08a32.128 32.128 0 1 1-64.238 0v-121.08h-54.371v121.08a32.128 32.128 0 1 1-64.256 0v-121.08h-54.371v102.85c-0.40274 25.428-18.947 46.517-41.721 47.195h-79.524c-23.616 0-42.838-21.4-42.838-47.689 0-26.288 19.222-48.018 42.838-48.018h79.67v-54.371h-79.67c-53.584 0-97.19 45.767-97.19 102.39 0 56.165 43.606 102 97.19 102z" stroke-width="1.8307"/>
  <polygon class="cls-1" transform="matrix(1.8307 0 0 1.8307 0 -93.567)" points="46.37 50.68 51.79 50.68 51.79 65.92 55.53 65.92 55.53 50.68 60.95 50.68 60.95 47.69 46.37 47.69"/>
  <polygon class="cls-1" transform="matrix(1.8307 0 0 1.8307 0 -93.567)" points="94.52 62.92 86.13 62.92 86.13 58.18 93.5 58.18 93.5 55.11 86.13 55.11 86.13 50.68 94.19 50.68 94.19 47.69 82.38 47.69 82.38 65.92 94.52 65.92"/>
  <polygon class="cls-1" transform="matrix(1.8307 0 0 1.8307 0 -93.567)" points="67.35 47.69 63.61 47.69 63.61 65.92 67.35 65.92 67.35 58.18 75.1 58.18 75.1 65.92 78.84 65.92 78.84 47.69 75.1 47.69 75.1 55.11 67.35 55.11"/>
  <path class="cls-1" d="m535.19 107.64v-33.666l68.137-63.341c12.009-11.222 24.037-22.975 24.037-40.604 0-16.568-11.753-28.87-28.32-28.87-21.108 0-31.799 17.648-30.462 37.144h-35.533v-7.2128c0-35.277 28.595-64.659 63.854-64.659 37.144 0 66.014 27.789 66.014 65.19 0 16.037-5.8764 29.931-15.506 42.49l-24.842 26.197-37.675 33.666h78.023v33.666z" stroke-width="1.8307"/>
  <path class="cls-1" d="m731.86 112.46c-39.817 0-68.686-31.542-68.686-70.554a82.014 82.014 0 0 1 14.444-45.767l56.366-86.041h41.959l-44.082 67.149 9.8856-0.80549c15.487 0 30.188 7.4874 40.879 18.709 12.027 12.815 17.373 28.32 17.373 47.03 0 38.206-29.4 70.279-68.137 70.279zm-0.51259-103.16c-18.16 0-32.586 14.444-32.586 33.41s13.346 35.002 32.86 35.002a33.135 33.135 0 0 0 32.952-33.391c-0.10984-18.984-14.554-35.021-33.227-35.021z" stroke-width="1.8307"/>
 </g>
</svg>
