<svg width="800" height="215.56" version="1.1" viewBox="0 0 800 215.56" xmlns="http://www.w3.org/2000/svg">
 <g transform="matrix(5.1606 0 0 5.1606 .25803 -111.62)" fill="#30c14e">
  <polygon class="cls-1" points="29.47 45.57 33.84 45.57 33.84 44.49 30.81 44.49 30.81 42.79 33.47 42.79 33.47 41.69 30.81 41.69 30.81 40.1 33.71 40.1 33.71 39.02 29.47 39.02"/>
  <polygon class="cls-1" points="26.85 41.69 24.06 41.69 24.06 39.02 22.72 39.02 22.72 45.57 24.06 45.57 24.06 42.79 26.85 42.79 26.85 45.57 28.19 45.57 28.19 39.02 26.85 39.02"/>
  <polygon class="cls-1" points="21.77 39.02 16.51 39.02 16.51 40.1 18.46 40.1 18.46 45.57 19.8 45.57 19.8 40.1 21.77 40.1"/>
  <path class="cls-1" d="m89.44 22.31v23.85a6.21 6.21 0 0 1-12.42 0v-23.85h-11.02v23.85a6.21 6.21 0 0 1-12.42 0v-23.85h-10.76v20.05a9.3 9.3 0 0 1-9.3 9.3h-13.52a9.33 9.33 0 0 1 0-18.66h13.52a11.15 11.15 0 0 1 1.28 0.08v-10.72h-14.8a20.05 20.05 0 0 0 0 40.1h13.42a19.94 19.94 0 0 0 13.58-5.37 16.18 16.18 0 0 0 22.87 1.18 17.15 17.15 0 0 0 1.61-1.67 16.19 16.19 0 0 0 28.65-10.35v-23.94z" data-name="CW shape"/>
 </g>
 <g transform="matrix(5.1606 0 0 5.1606 .25803 -111.62)">
  <path class="cls-2" d="m101.7 55.76 14.3-13.37c4-3.69 4.46-6.08 4.46-7.93a5.69 5.69 0 0 0-5.86-6 6.08 6.08 0 0 0-5.37 3.26 9.66 9.66 0 0 0-0.75 4.5h-7.18a8.77 8.77 0 0 1 0-1.31 13.23 13.23 0 1 1 26.46-0.1c0 4.13-1.57 8.21-7.76 13.69l-8.14 7.27h15.91v6.85h-26v-6.86z"/>
  <path class="cls-2" d="m132.9 22.41h18.2v6.85h-12.76l-1.34 7.38a12.22 12.22 0 0 1 5.16-1.15c7.5 0 12.81 6.73 12.81 13.91a13.91 13.91 0 0 1-14 14c-7.11 0-13.42-5.75-13.74-12.76h7.22c0.87 4.62 4.08 5.91 6.36 5.91a6.94 6.94 0 0 0 6.9-7.18c0-3.26-2.56-7.06-6.78-7.06a6.48 6.48 0 0 0-5.42 2.88l-6.49-1.79z"/>
 </g>
</svg>
