<svg width="800" height="308.44" data-name="Layer 1" version="1.1" viewBox="0 0 800 308.44" xmlns="http://www.w3.org/2000/svg">
 <defs>
  <linearGradient id="linear-gradient" x1="7076.4" x2="7081.9" y1="-7177.2" y2="-7146.2" gradientTransform="matrix(5.1596 0 0 -5.1596 -36361 -36865)" gradientUnits="userSpaceOnUse">
   <stop stop-color="#707070" offset="0"/>
   <stop stop-color="#d7d7d7" offset=".37"/>
  </linearGradient>
  <linearGradient id="linear-gradient-2" x1="7071.7" x2="7077" y1="-7204.2" y2="-7174" gradientTransform="matrix(5.1596 0 0 -5.1596 -36361 -36864)" gradientUnits="userSpaceOnUse">
   <stop stop-color="#d7d7d7" offset=".35"/>
   <stop stop-color="#666" offset="1"/>
  </linearGradient>
  <linearGradient id="linear-gradient-3" x1="7151.3" x2="7166.1" y1="-7191.4" y2="-7139.9" gradientTransform="matrix(5.1596 0 0 -5.1596 -36361 -36864)" gradientUnits="userSpaceOnUse">
   <stop stop-color="#d1ab53" offset="0"/>
   <stop stop-color="#f2e4a9" offset=".16"/>
   <stop stop-color="#e3cb83" offset=".31"/>
   <stop stop-color="#d1ab53" offset=".48"/>
  </linearGradient>
  <linearGradient id="linear-gradient-4" x1="7144.3" x2="7150.5" y1="-7210.1" y2="-7188.6" gradientTransform="matrix(5.1596 0 0 -5.1596 -36361 -36864)" gradientUnits="userSpaceOnUse">
   <stop stop-color="#fbc926" offset=".18"/>
   <stop stop-color="#f6c427" offset=".25"/>
   <stop stop-color="#c3922e" offset=".6"/>
  </linearGradient>
 </defs>
 <path class="cls-1" d="m223.52 163.76c-49.79-7.3782-97.722-13.208-142.92-17.388a67.642 67.642 0 0 1 8.9777-25.798 75.072 75.072 0 0 1 26.365-26.365 66.094 66.094 0 0 1 36.117-10.01 67.9 67.9 0 0 1 36.117 10.01 75.072 75.072 0 0 1 26.365 26.365 68.932 68.932 0 0 1 9.5452 36.117c-0.20638 2.3218-0.36117 4.85-0.56755 7.0686zm60.212-83.637a150.4 150.4 0 0 0-55.827-55.156 151.54 151.54 0 0 0-207.31 55.156 144.73 144.73 0 0 0-19.813 60.212l17.491 1.0319q5.1596-5.1596 11.299-12.073a206.85 206.85 0 0 1 49.532-36.427 150.92 150.92 0 0 1 72.234-17.491 158.97 158.97 0 0 1 75.227 17.491 185.74 185.74 0 0 1 48.861 36.427 186.11 186.11 0 0 1 20.948 27.088 184.61 184.61 0 0 1-11.97 15.479l-0.92873 1.0835 19.245 3.3021a155.3 155.3 0 0 0 1.2383-19.864 150.09 150.09 0 0 0-20.638-76.413z" fill="url(#linear-gradient)" stroke-width="5.1596"/>
 <path class="cls-2" d="m79.93 156.7a76.104 76.104 0 0 1 0.67074-10.319c45.198 4.2308 93.13 10.01 142.92 17.388a67.436 67.436 0 0 1-9.184 28.429 73.679 73.679 0 0 1-26.778 26.417 71.666 71.666 0 0 1-71.563 0 76.104 76.104 0 0 1-26.365-26.365 68.571 68.571 0 0 1-9.7-35.549zm203.49 16.614c-1.4447 1.7027-3.0442 3.4053-4.85 5.1596l-2.4766 2.5282-0.56756 0.56755-2.0638 2.4766q-4.4888 4.334-9.958 9.1324l-1.9606 1.7027-4.2308 3.6117a194.67 194.67 0 0 1-45.765 26.365 154.79 154.79 0 0 1-60.47 11.196 151.95 151.95 0 0 1-59.541-11.196 194.57 194.57 0 0 1-73.472-52.37c-5.9851-7.275-10.319-12.435-12.331-15.479l1.9606-2.683 1.8059-2.3218 0.30957-0.46436 1.909-2.2702 0.67074-0.82553 2.2186-2.683 0.56755-0.61915 2.2702-2.683 0.87713-0.98032-17.491-1.0319a159.95 159.95 0 0 0-0.82553 16.253 143.13 143.13 0 0 0 20.638 75.588 145.55 145.55 0 0 0 54.691 55.517 147.98 147.98 0 0 0 76.362 20.638 146.17 146.17 0 0 0 76-20.638 150.76 150.76 0 0 0 75.02-111.09c-6.4495-0.92873-12.847-2.0638-19.348-3.1473z" fill="url(#linear-gradient-2)" stroke-width="5.1596"/>
 <path class="cls-3" d="m548.42 230.89q-37.665-10.319-78.374-19.761a40.761 40.761 0 0 0 1.7027-11.815c0-26.365-16.098-41.947-40.193-41.947-18.781 0-32.144 5.6239-40.554 19.452h-74.711l28.945-173.36h191.99v73.472h-130.12l-8.0489 39.78 0.82553 0.87713c17.233-13.879 40.193-17.646 61.038-17.646 49.893 0 91.17 30.957 91.17 101.95a112.27 112.27 0 0 1-3.6633 28.997zm194.15 64.34a1573.7 1573.7 0 0 0-189.82-63.205 109.12 109.12 0 0 1-1.6511-19.348c0-51.596 35.756-62.276 55.827-66.146v-0.87712c-29.719-8.6681-43.392-30.699-43.392-63.102 0-66.146 65.475-82.553 111.65-82.553 76.723 0 113.51 38.903 113.51 82.553 0 30.957-17.285 56.755-43.753 63.102v0.72234c30.957 3.4569 55.053 28.997 55.053 66.146 0 43.289-24.972 68.983-57.168 82.553zm-107.58-204.06c0 23.786 20.638 31.525 39.729 31.525s42.463-6.4495 42.463-31.525c0-28.532-20.638-33.744-41.741-33.744s-40.141 6.5527-40.141 33.744zm85.185 121.04c0-28.997-20.071-38.903-44.166-38.903-23.27 0-45.404 8.6681-45.404 38.903 0 25.798 24.508 33.279 44.579 33.279s44.94-7.275 44.94-33.228z" fill="url(#linear-gradient-3)" stroke-width="5.1596"/>
 <path class="cls-4" d="m470.05 211.08q40.761 9.5968 78.374 19.813c-12.177 45.559-54.33 76.929-121.61 76.929-103.19 0-122.08-68.313-119.7-98.032h79.148a36.117 36.117 0 0 0 11.041 19.761 47.932 47.932 0 0 0 31.938 9.7 41.277 41.277 0 0 0 40.812-28.171zm205.09 96.69a176.61 176.61 0 0 0 67.384-12.589 1573.7 1573.7 0 0 0-189.82-63.153c10.319 57.684 67.9 75.897 122.49 75.897z" fill="url(#linear-gradient-4)" stroke-width="5.1596"/>
</svg>
