<svg width="600pt" height="84.462pt" version="1.1" viewBox="0 0 600 84.462" xmlns="http://www.w3.org/2000/svg">
 <g transform="matrix(.57354 0 0 .57354 187.57 405.71)" fill="#2159f1" stroke-width="1px" aria-label="weatherscan">
  <path d="m-192.83-663.41h-26.496l-7.488 35.136c-2.688 12.48-4.8 27.84-5.376 32.064 0 0-2.88-16.512-7.296-34.752l-7.872-32.448h-24.192l-9.216 33.024c-4.608 16.704-7.104 34.176-7.104 34.176s-3.072-19.2-5.568-30.528l-8.064-37.824-25.536 2.88 26.88 96.576h24l4.992-20.16c2.304-9.216 6.528-26.112 8.448-34.56 1.536-7.104 1.728-8.448 2.304-12.672 0.576 3.84 0.768 5.184 1.536 9.792 1.152 6.528 3.456 15.936 5.568 23.808l8.832 33.792h23.616z"/>
  <path d="m-99.688-606.2v-5.952c0-20.544-4.032-33.792-13.056-43.008-6.336-6.528-17.088-10.368-28.416-10.368-13.056 0-22.848 4.224-30.912 13.248-8.64 9.6-12.288 21.312-12.288 38.976 0 30.912 18.24 50.88 46.464 50.88 13.824 0 25.728-4.416 37.056-13.632l-9.984-15.36c-7.872 6.528-16.128 9.792-24.96 9.792-13.248 0-20.736-8.64-20.736-23.808v-0.768zm-26.688-18.816h-29.76v-0.384c0-13.632 5.568-21.312 15.36-21.312 5.184 0 8.832 1.92 11.328 5.76 2.304 3.648 3.072 7.488 3.072 14.784z"/>
  <path d="m-1.219-575.86c-8.64-6.528-9.408-11.136-9.216-21.888l0.576-33.024c0.192-10.56-0.384-13.632-1.728-17.664-3.84-10.944-15.168-17.088-31.68-17.088-9.024 0-17.28 1.728-26.88 5.76-6.912 2.88-10.752 4.8-15.936 8.064l10.944 18.432c10.56-7.104 20.16-11.136 28.416-11.136 9.408 0 11.52 3.648 11.52 14.592v4.032c-2.112-0.192-3.84-0.192-5.76-0.192-31.296 0-47.232 10.752-47.232 33.792 0 19.584 11.904 30.72 33.792 30.72 8.064 0 14.976-1.92 19.776-5.376 1.92-1.344 4.032-3.264 5.952-5.184 2.496 4.992 7.872 9.408 13.824 11.904zm-34.368-32.256-0.384 21.12c-3.84 4.224-8.64 6.72-13.44 6.72-6.528 0-11.328-5.184-11.328-12.864 0-11.712 6.144-14.976 24-14.976z"/>
  <path d="m67.802-567.22-3.264-15.36c-4.608 1.344-6.912 1.92-9.216 1.92-8.832 0-11.136-3.264-11.136-15.744v-49.344h16.512l6.528-17.664h-23.04c0-9.984 0.576-20.736 1.536-29.76l-26.112 6.528c-0.96 7.296-0.96 13.632-0.96 23.232h-9.792v17.664h9.792v53.376c0 9.024 0.192 10.944 1.728 15.168 3.072 8.64 13.44 14.4 26.496 14.4 6.72 0 13.44-1.344 20.928-4.416z"/>
  <path d="m167.75-565.11v-68.736c0-9.408-0.576-12.672-2.496-18.24-3.072-8.64-13.056-14.016-25.536-14.016-9.984 0-21.12 4.224-27.84 10.56 0-1.152 0.384-5.184 0.384-8.256v-19.584c0-9.408-0.576-18.624-1.728-24l-26.304 6.144c1.152 4.032 1.92 13.248 1.92 22.464v113.66h26.112v-70.464c5.76-5.184 14.016-9.024 20.352-9.024 7.296 0 9.984 3.648 9.984 13.44v66.048z"/>
  <path d="m275.31-606.2v-5.952c0-20.544-4.032-33.792-13.056-43.008-6.336-6.528-17.088-10.368-28.416-10.368-13.056 0-22.848 4.224-30.912 13.248-8.64 9.6-12.288 21.312-12.288 38.976 0 30.912 18.24 50.88 46.464 50.88 13.824 0 25.728-4.416 37.056-13.632l-9.984-15.36c-7.872 6.528-16.128 9.792-24.96 9.792-13.248 0-20.736-8.64-20.736-23.808v-0.768zm-26.688-18.816h-29.76v-0.384c0-13.632 5.568-21.312 15.36-21.312 5.184 0 8.832 1.92 11.328 5.76 2.304 3.648 3.072 7.488 3.072 14.784z"/>
  <path d="m351.46-663.61c-4.032-1.728-5.76-2.112-9.6-2.112-9.6 0-17.472 6.528-23.04 14.016-0.384-5.568-1.728-9.984-4.032-14.016l-23.04 6.144c2.112 5.568 3.648 15.552 3.648 28.8v65.664h25.728v-69.504c4.8-5.568 9.984-8.256 15.744-8.256 2.88 0 4.992 0.576 7.488 1.92z"/>
  <path d="m435.3-596.21c0-6.528-1.728-12.096-5.376-16.704-3.456-4.416-7.488-8.064-19.584-11.136l-11.904-3.072c-9.024-2.304-12.288-4.992-12.288-9.984 0-5.76 4.992-9.6 12.48-9.6 7.296 0 14.4 2.112 24.192 7.104l8.448-17.28c-9.024-4.416-19.392-9.216-35.136-9.216-22.848 0-38.016 12.864-38.016 32.064 0 6.336 2.112 13.44 5.568 17.664s11.52 8.832 18.048 9.984l11.52 2.112c10.368 1.92 15.168 5.376 15.168 12.096 0 6.336-5.76 11.136-13.056 11.136-11.136 0-24.768-6.336-32.64-11.136l-9.216 18.816c14.4 7.488 27.648 11.328 39.744 11.328 25.152 0 42.048-13.824 42.048-34.176z"/>
  <path d="m525.23-576.25-11.712-15.552-1.536 1.344c-6.336 5.568-11.712 8.064-17.664 8.064-4.416 0-8.832-2.112-11.52-5.568-3.264-4.224-4.992-11.904-4.992-24.768 0-23.04 5.184-33.024 16.704-33.024 4.8 0 10.368 2.88 15.552 7.68l12.48-16.896c-4.224-3.648-5.952-4.992-9.6-6.912-5.376-2.88-12.48-4.416-19.008-4.416-8.256 0-17.856 2.88-24.384 7.296-11.52 7.872-20.16 22.848-20.16 45.504 0 31.872 15.744 50.688 42.816 50.688 9.408 0 17.088-2.112 24-6.144 3.456-2.112 5.184-3.456 9.024-7.296z"/>
  <path d="m621.66-575.86c-8.64-6.528-9.408-11.136-9.216-21.888l0.576-33.024c0.192-10.56-0.384-13.632-1.728-17.664-3.84-10.944-15.168-17.088-31.68-17.088-9.024 0-17.28 1.728-26.88 5.76-6.912 2.88-10.752 4.8-15.936 8.064l10.944 18.432c10.56-7.104 20.16-11.136 28.416-11.136 9.408 0 11.52 3.648 11.52 14.592v4.032c-2.112-0.192-3.84-0.192-5.76-0.192-31.296 0-47.232 10.752-47.232 33.792 0 19.584 11.904 30.72 33.792 30.72 8.064 0 14.976-1.92 19.776-5.376 1.92-1.344 4.032-3.264 5.952-5.184 2.496 4.992 7.872 9.408 13.824 11.904zm-34.368-32.256-0.384 21.12c-3.84 4.224-8.64 6.72-13.44 6.72-6.528 0-11.328-5.184-11.328-12.864 0-11.712 6.144-14.976 24-14.976z"/>
  <path d="m719.09-565.11v-71.808c0-6.144-0.576-10.368-1.92-14.016-3.072-8.448-12.672-14.208-23.616-14.208-5.76 0-12.48 1.536-17.664 4.224-4.224 2.304-7.488 4.608-11.328 7.296 0-4.032-1.344-8.256-3.648-12.288l-22.848 6.528c2.304 6.528 3.456 14.592 3.456 23.04v71.232h25.728v-69.504c5.952-5.376 12.672-8.832 17.856-8.832 6.72 0 8.64 3.264 8.64 14.4v63.936z"/>
 </g>
</svg>
