<svg width="800" height="518.14" version="1.1" viewBox="0 0 800 518.14" xml:space="preserve" xmlns="http://www.w3.org/2000/svg"><g transform="matrix(1.3333 0 0 -1.3333 -122.77 1647.8)"><g transform="matrix(3.6944 0 0 3.6944 -96.419 -1691.4)"><g transform="translate(140.18 766.19)"><path d="m0 0c-0.054-0.193-0.124-0.331-0.123-0.487 6e-3 -0.334 0.172-0.442 0.657-0.449h4.397c0.483 0 0.609 0.161 0.609 0.449 0 0.161-0.096 0.321-0.126 0.483l-2.217 6.622c-0.161 0.514-0.225 0.739-0.418 0.739-0.161 0-0.258-0.193-0.384-0.515zm-7.47-9.605 0.899 0.353c1.479 0.675 1.737 2.089 2.669 4.402l4.628 12.599c0.463 1.279 0.983 2.724 1.208 3.303l0.192 0.16h2.773l0.224-0.16c0.161-0.515 0.612-1.769 1.061-3.021l4.563-12.913c0.994-2.828 1.123-3.759 2.728-4.402l0.805-0.321v-0.707h-8.611v0.707l1.703 0.611c0.45 0.16 0.738 0.32 0.738 0.705 0 0.354-0.192 0.741-0.288 1.061l-1.214 3.649c-0.32 0.9-0.546 1.028-1.478 1.028l-4.56-6e-3c-1.349 0-1.467 0-1.982-1.509l-0.802-2.294c-0.192-0.611-0.4-1.157-0.4-1.735 0-0.513 0.353-0.705 0.965-0.899l1.504-0.611v-0.707h-7.325z" fill="#231f20"/></g><g transform="translate(140.18 766.19)"><path d="m0 0c-0.054-0.193-0.124-0.331-0.123-0.487 6e-3 -0.334 0.172-0.442 0.657-0.449h4.397c0.483 0 0.609 0.161 0.609 0.449 0 0.161-0.096 0.321-0.126 0.483l-2.217 6.622c-0.161 0.514-0.225 0.739-0.418 0.739-0.161 0-0.258-0.193-0.384-0.515zm-7.47-9.605 0.899 0.353c1.479 0.675 1.737 2.089 2.669 4.402l4.628 12.599c0.463 1.279 0.983 2.724 1.208 3.303l0.192 0.16h2.773l0.224-0.16c0.161-0.515 0.612-1.769 1.061-3.021l4.563-12.913c0.994-2.828 1.123-3.759 2.728-4.402l0.805-0.321v-0.707h-8.611v0.707l1.703 0.611c0.45 0.16 0.738 0.32 0.738 0.705 0 0.354-0.192 0.741-0.288 1.061l-1.214 3.649c-0.32 0.9-0.546 1.028-1.478 1.028l-4.56-6e-3c-1.349 0-1.467 0-1.982-1.509l-0.802-2.294c-0.192-0.611-0.4-1.157-0.4-1.735 0-0.513 0.353-0.705 0.965-0.899l1.504-0.611v-0.707h-7.325z" fill="none" stroke="#231f20" stroke-width=".349"/></g><g transform="translate(122.4 756.58)"><path d="m0 0 1.541 0.481c1.284 0.384 1.284 0.738 1.284 2.954v14.706c0 0.963 0 1.22-1.381 1.22-2.472 0-2.954-0.353-3.725-1.702l-1.187-2.119h-1.059v5.009l0.288 0.257h17.693l0.288-0.257v-5.009h-1.06l-1.156 2.119c-0.802 1.445-1.285 1.702-3.757 1.702-1.381 0-1.381-0.257-1.381-1.22v-14.706c0-2.216-0.032-2.57 1.254-2.954l1.573-0.481v-0.707h-9.215z" fill="#231f20"/></g><g transform="translate(122.4 756.58)"><path d="m0 0 1.541 0.481c1.284 0.384 1.284 0.738 1.284 2.954v14.706c0 0.963 0 1.22-1.381 1.22-2.472 0-2.954-0.353-3.725-1.702l-1.187-2.119h-1.059v5.009l0.288 0.257h17.693l0.288-0.257v-5.009h-1.06l-1.156 2.119c-0.802 1.445-1.285 1.702-3.757 1.702-1.381 0-1.381-0.257-1.381-1.22v-14.706c0-2.216-0.032-2.57 1.254-2.954l1.573-0.481v-0.707h-9.215z" fill="none" stroke="#231f20" stroke-width=".349"/></g><g transform="translate(78.583 756.13)"><path d="m0 0c-0.158 0.578-0.609 2.44-1.026 3.98l-2.599 9.409c-1.223 4.4-1.384 5.94-2.796 6.582l-1.284 0.578v0.707h8.349v-0.707l-1.124-0.481c-0.579-0.257-1.061-0.385-1.061-0.836 0-0.545 0.932-4.141 1.67-6.807l2.119-7.674c0.13-0.48 0.134-0.802 0.336-0.802 0.183 0 0.197 0.096 0.293 0.385l2.31 6.551c0.545 1.509 1.502 4.206 1.635 4.847 0.079 0.378-0.015 0.772-0.112 1.157l-0.45 1.509c-0.321 1.06-0.446 1.285-1.185 1.605l-1.125 0.546v0.707h8.06v-0.707l-1.187-0.514c-0.579-0.257-0.932-0.352-0.932-0.803 0-0.385 0.74-2.89 1.381-5.072l2.728-9.248c0.162-0.547 0.23-0.95 0.377-0.963 0.191-0.018 0.242 0.193 0.371 0.643l1.508 5.233c0.77 2.664 2.418 8.643 2.45 9.312 0.018 0.352-0.211 0.546-0.788 0.771l-1.766 0.641v0.707h6.998v-1.426l-0.557 7e-3c-1.21-0.062-1.706-1.824-2.862-5.421l-2.848-9.311c-0.673-2.119-1.411-4.4-1.635-5.105l-0.291-0.257h-2.659l-0.32 0.257c-0.159 0.546-0.643 2.215-1.029 3.467l-2.664 8.51c-0.159 0.512-0.225 0.578-0.385 0.578-0.194 0-0.266-0.226-0.395-0.547l-2.584-7.352c-0.77-2.119-1.446-3.982-1.67-4.656l-0.257-0.257h-2.736z" fill="#231f20"/></g><g transform="translate(78.583 756.13)"><path d="m0 0c-0.158 0.578-0.609 2.44-1.026 3.98l-2.599 9.409c-1.223 4.4-1.384 5.94-2.796 6.582l-1.284 0.578v0.707h8.349v-0.707l-1.124-0.481c-0.579-0.257-1.061-0.385-1.061-0.836 0-0.545 0.932-4.141 1.67-6.807l2.119-7.674c0.13-0.48 0.134-0.802 0.336-0.802 0.183 0 0.197 0.096 0.293 0.385l2.31 6.551c0.545 1.509 1.502 4.206 1.635 4.847 0.079 0.378-0.015 0.772-0.112 1.157l-0.45 1.509c-0.321 1.06-0.446 1.285-1.185 1.605l-1.125 0.546v0.707h8.06v-0.707l-1.187-0.514c-0.579-0.257-0.932-0.352-0.932-0.803 0-0.385 0.74-2.89 1.381-5.072l2.728-9.248c0.162-0.547 0.23-0.95 0.377-0.963 0.191-0.018 0.242 0.193 0.371 0.643l1.508 5.233c0.77 2.664 2.418 8.643 2.45 9.312 0.018 0.352-0.211 0.546-0.788 0.771l-1.766 0.641v0.707h6.998v-1.426l-0.557 7e-3c-1.21-0.062-1.706-1.824-2.862-5.421l-2.848-9.311c-0.673-2.119-1.411-4.4-1.635-5.105l-0.291-0.257h-2.659l-0.32 0.257c-0.159 0.546-0.643 2.215-1.029 3.467l-2.664 8.51c-0.159 0.512-0.225 0.578-0.385 0.578-0.194 0-0.266-0.226-0.395-0.547l-2.584-7.352c-0.77-2.119-1.446-3.982-1.67-4.656l-0.257-0.257h-2.736z" fill="none" stroke="#231f20" stroke-width=".349"/></g><g transform="translate(100.71 756.58)"><path d="m0 0 1.412 0.481c1.092 0.384 1.092 0.802 1.092 2.633v13.856c0 1.637 0.13 2.397-1.065 2.413l-0.417-3e-3v1.426h14.775l0.256-0.224v-5.042h-1.026l-0.868 1.574c-1.157 2.022-1.412 2.247-4.688 2.247-3.306 0-3.403-0.16-3.403-1.605v-5.18c0-1.091 0.097-1.123 1.348-1.123h2.249c1.25 0 1.315 0.169 1.926 1.454l0.514 1.188h0.705v-6.873h-0.705l-0.514 1.157c-0.676 1.382-0.676 1.477-1.958 1.477h-2.313c-1.221 0-1.252-0.16-1.252-1.348v-5.651c0-1.541 0-2.119 3.95-2.119 3.339 0 3.821 0.578 4.977 2.729l0.964 1.83h1.026v-5.747l-0.256-0.257h-16.729z" fill="#231f20"/></g><g transform="translate(100.71 756.58)"><path d="m0 0 1.412 0.481c1.092 0.384 1.092 0.802 1.092 2.633v13.856c0 1.637 0.13 2.397-1.065 2.413l-0.417-3e-3v1.426h14.775l0.256-0.224v-5.042h-1.026l-0.868 1.574c-1.157 2.022-1.412 2.247-4.688 2.247-3.306 0-3.403-0.16-3.403-1.605v-5.18c0-1.091 0.097-1.123 1.348-1.123h2.249c1.25 0 1.315 0.169 1.926 1.454l0.514 1.188h0.705v-6.873h-0.705l-0.514 1.157c-0.676 1.382-0.676 1.477-1.958 1.477h-2.313c-1.221 0-1.252-0.16-1.252-1.348v-5.651c0-1.541 0-2.119 3.95-2.119 3.339 0 3.821 0.578 4.977 2.729l0.964 1.83h1.026v-5.747l-0.256-0.257h-16.729z" fill="none" stroke="#231f20" stroke-width=".349"/></g></g><g transform="matrix(3.6944 0 0 3.6944 93.071 1183.6)"><path d="m0 0c7.669 8.532 14.578 13.58 26.078 13.95 6.237 0.201 10.824-1.087 16.225-4.804 1.415-0.972 5.351-4.524 5.388-4.556 2.212-1.908-0.142 0.057-0.142 0.057-2.756 2.039-7.981 3.77-12.011 3.642-11.503-0.324-18.47-5.185-26.137-13.717z" fill="#d62242"/></g><g transform="matrix(3.6944 0 0 3.6944 93.071 1183.6)"><path d="m0 0c7.669 8.532 14.578 13.58 26.078 13.95 6.237 0.201 10.824-1.087 16.225-4.804 1.415-0.972 5.351-4.524 5.388-4.556 2.212-1.908-0.142 0.057-0.142 0.057-2.756 2.039-7.981 3.77-12.011 3.642-11.503-0.324-18.47-5.185-26.137-13.717z" fill="none" stroke="#d62242" stroke-miterlimit="3.863" stroke-width=".343"/></g><g transform="matrix(3.6944 0 0 3.6944 545.05 1096.5)"><path d="m0 0c-7.67-8.533-14.58-13.579-26.079-13.951-6.237-0.201-10.825 1.087-16.226 4.804-1.414 0.971-5.35 4.525-5.386 4.556-2.212 1.909 0.141-0.055 0.141-0.055 2.759-2.04 7.98-3.769 12.01-3.645 11.503 0.324 18.47 5.186 26.138 13.718z" fill="#d62242"/></g><g transform="matrix(3.6944 0 0 3.6944 545.05 1096.5)"><path d="m0 0c-7.67-8.533-14.58-13.579-26.079-13.951-6.237-0.201-10.825 1.087-16.226 4.804-1.414 0.971-5.35 4.525-5.386 4.556-2.212 1.909 0.141-0.055 0.141-0.055 2.759-2.04 7.98-3.769 12.01-3.645 11.503 0.324 18.47 5.186 26.138 13.718z" fill="none" stroke="#d62242" stroke-miterlimit="3.863" stroke-width=".343"/></g><g transform="matrix(3.6944 0 0 3.6944 -96.419 -1691.4)"><g transform="translate(173.46 750.43)"><path d="m0 0c-1.021-0.996-2.047-1.939-3.089-2.823v-58.908h43.06v61.731z" fill="#fff"/></g><g transform="translate(147.31 738.64)"><path d="m0 0c-0.482-0.015-0.956-0.023-1.422-0.023-1.368 0-2.666 0.073-3.922 0.217v-28.25c-6.139-9.096-12.662-13.643-19.568-13.643-3.187 0-5.459 0.986-6.822 2.965-1.361 1.976-2.042 5.303-2.042 9.984v41.218h-11.341v-44.897c0-5.838 1.613-10.472 4.833-13.904 3.224-3.434 7.561-5.15 13.011-5.15 8.594 0 15.909 4.391 21.929 13.18v-11.744h11.342v50.663c-1.881-0.339-3.873-0.547-5.998-0.616" fill="#d62242"/></g><g transform="translate(163.57 763.41)"><path d="m0 0 0.316 0.352 6.486-3.797v19.525h-11.34v-20.934c1.427 1.439 2.917 3.051 4.538 4.854" fill="#d62242"/></g><g transform="translate(183.75 721.2)"><path d="m0 0 25.334 29.228h-12.224l-26.488-30.374 28.532-31.357h14.529z" fill="#d62242"/></g><g transform="translate(159.03 740.8)"><path d="m0 0v-52.208h11.339v59.01c-3.485-2.957-7.144-5.264-11.339-6.802" fill="#d62242"/></g><g transform="translate(173.63 750.43)"><path d="m0 0v-21.307l18.74 21.307z" fill="#083a62"/></g><g transform="translate(173.63 707.65)"><path d="m0 0v-18.956h16.917z" fill="#083a62"/></g><g transform="translate(213.43 747.24)"><path d="m0 0-22.238-25.25 22.238-24.179z" fill="#083a62"/></g></g></g></svg>
