<svg width="800" height="202.65" version="1.1" xmlns="http://www.w3.org/2000/svg">
 <link href="" rel="stylesheet" type="text/css"/>
 <style type="text/css"/>
 <g transform="translate(-563.1 -87.407)">
  <g transform="matrix(.55246 0 0 .53615 749.19 241.21)" fill="#03a7e1" fill-rule="evenodd">
   <path d="m-336.84-284.13v365.44h104.16v-117.98h98.996v-100.5h-98.996v-47.229h123.21l-8.0606-99.727z"/>
   <path d="m195.63-284.13 100.79 174.88-106.67 189.04h113.68l50.423-89.376 51.528 89.376h113.68l-108.97-189.04 98.697-174.88h-113.68l-42.452 75.214-43.348-75.214z"/>
   <path d="m64.334-284.88c-99.646 0-180.41 82.643-180.41 184.61 0 101.97 80.762 184.64 180.41 184.64 99.646 0 180.44-82.674 180.44-184.64 0-101.97-80.792-184.61-180.44-184.61zm0 71.557c17.878 0 32.272 14.942 32.272 33.501v153.03c0 18.559-14.394 33.501-32.272 33.501s-32.272-14.942-32.272-33.501v-153.03c0-18.559 14.394-33.501 32.272-33.501z"/>
  </g>
  <path d="m1131.7 87.407c-21.223 0.38197-38.375 7.094-51.461 20.141s-19.816 30.136-20.197 51.267c0.3628 18.448 5.9159 33.564 16.664 45.342 10.748 11.778 21.631 16.742 37.868 19.319 3.273 0.66628 5.2057 0.80759 7.9312 0.75761 2.8213-7e-3 4.183-0.0913 7.4063-0.12846l-45.601 65.948h45.395l55.1-78.148c7.4885-10.431 12.855-19.956 16.097-28.568 3.2416-8.6119 4.8232-17.592 4.746-26.945-0.4225-20.205-7.4287-36.651-21.02-49.345-13.591-12.693-31.237-19.242-52.929-19.641zm0.1846 36.973c10.164 0.16519 18.398 3.1769 24.702 9.0341 6.3034 5.8575 9.5451 13.573 9.7331 23.143-0.1539 9.6885-3.2574 17.474-9.3217 23.357-6.0644 5.8832-14.167 8.903-24.297 9.0627-9.7486-0.17534-17.65-3.226-23.709-9.1556-6.0587-5.9294-9.175-13.684-9.3571-23.264 0.1478-9.5697 3.1261-17.285 8.9457-23.143 5.8194-5.8572 13.59-8.869 23.304-9.0341z" font-family="TeXGyreAdventor" font-size="90px" font-weight="bold"/>
  <g transform="matrix(2.9821 0 0 2.9821 -50.439 -1611.9)" fill-rule="evenodd">
   <path d="m425.15 586.91h48.866v14.324h-48.866z" fill="#31bded"/>
   <path d="m441.18 569.85h15.812v48.432h-15.812z" fill="#36bef5"/>
   <path d="m441.18 586.91h15.812v14.771h-15.812z" fill="#03aadf"/>
  </g>
 </g>
</svg>
