<svg width="800" height="346.39" version="1.1" viewBox="0 0 800 346.39" xml:space="preserve" xmlns="http://www.w3.org/2000/svg"><defs><clipPath id="clipPath80"><path d="m37.766 224.16h21.398v48.23h-21.398z"/></clipPath><clipPath id="clipPath108"><path d="m-9 792h1188v-801h-1188z"/></clipPath><clipPath id="clipPath112"><path d="m-9-9h1188v801h-1188z"/></clipPath><clipPath id="clipPath116"><path d="m-9 792h1188v-801h-1188z"/></clipPath></defs><g transform="matrix(0 1.3333 1.3333 0 -54.496 -760.05)" fill="#fff"><g transform="matrix(12.44 0 0 12.44 100.21 -2747.8)"><g clip-path="url(#clipPath80)" fill="#fff"><g transform="translate(41.886 227.56)"><path d="m0 0 8.358 1.665v3.445l-3.203 0.927 3.203 0.963v3.391l-3.355 0.683c3.544 0.593 3.68 4.172 3.68 5.206 0 1.035-0.255 2.713-1.12 4.172h0.795v5.952c0 1.696-0.54 2.205-1.32 2.578h1.32v3.578h-2.948v1.696h2.948v3.493h-8.348v-3.493h2.992v-1.679h-2.992v-3.595h1.55c-1-0.339-1.55-1-1.55-2.714v-5.799h1.228c-0.577-0.492-1.492-1.713-1.492-4.341 0-2.629 0.644-3.562 2.001-4.528l-1.737 0.317v-2.815l3.042-0.758-3.035-0.713v-3.052l3.086-0.78-3.103-0.696zm-3.77 3.696v3.109l1.532 0.329-1.561 1.594v2.849l1.578 0.373-1.578 1.577v2.951l1.323-0.322c-1.034 1.238-1.645 2.221-1.645 4.29s0.628 3.019 1.476 3.833l-1.137 1.17v4.63c0 1.339 0.95 1.746 1.662 1.746l-1.662 1.713v3.188h1.594l-1.582 1.594v3.121h8.569l7.424-7.555v-3.516l-1.607-3e-3 1.607-1.662v-3.493h-1.471c1.339-0.984 1.471-1.866 1.471-3.019v-5.342h-1.013c0.356-0.458 1.254-2.238 1.254-4.647 0-2.408-0.746-3.73-1.746-4.375l1.505-1.607v-2.897l-1.505-0.397 1.526-1.56v-2.985l-9.022-1.78z" fill="#fff"/></g><g transform="translate(44.464 244.92)"><path d="m0 0v3.103h0.916v-4.222h1.645v1.068h0.916c0.474 0 0.797-0.271 0.797-1.034s-0.577-1.035-0.848-1.035c-0.272 0-3.121 0.017-3.46 0.017s-0.882 0.255-0.882 1.052 0.424 1.051 0.916 1.051" fill="#fff"/></g><g transform="translate(43.718 251.32)"><path d="m0 0h1.391s0.017 0.695 0.017 1.119-0.255 0.763-0.696 0.763-0.712-0.288-0.712-0.763z" fill="#fff"/></g><g transform="translate(47.059 251.32)"><path d="m0 0h1.407s0.018 0.746 0.018 1.17-0.255 0.763-0.696 0.763-0.729-0.288-0.729-0.763z" fill="#fff"/></g><g transform="translate(45.058 256.54)"><path d="m0 0h2.238c-0.898-0.288-1.051-0.933-1.203-1.374-0.068 0.424-0.441 1.12-1.035 1.374" fill="#fff"/></g><g transform="translate(58.649 272.39)"><path d="m0 0-1.944-0.313v-2.923l-1.28 1.392c-0.953 1.029-1.718 1.656-2.935 1.656-1.543 0-2.446-1.104-2.446-2.898 0-1.254 0.326-2.157 0.79-2.922l2.07 0.288c-0.489 0.753-0.803 1.518-0.803 2.22 0 0.565 0.264 0.903 0.69 0.903 0.502 0 0.84-0.275 1.317-0.752l2.785-2.835h1.756z" fill="#fff"/></g></g></g><g transform="translate(-15.183 19.521)"><g clip-path="url(#clipPath108)" fill="#fff"><text transform="matrix(0,1,1,0,1200,1)" fill="#ffffff" font-family="'Helvetica LT Std'" font-size="6px"><tspan x="0 4.0019999 8.0039997 12.006 15.342 20.01 23.346001 26.346001 30.677999 34.014 37.349998 40.686001 44.021999 48.689999 53.021999 54.689999 59.021999 63.023998 66.360001 69.360001 73.692001 77.694 81.695999 83.363998 87.365997 91.367996 95.699997 97.367996 98.699997 102.036 105.372 108.708 113.712" y="0">EXPLO_JUL18_GRIDS_vREVISED.indd 1</tspan></text>
</g></g><g transform="translate(-15.183 19.521)"><g clip-path="url(#clipPath112)" fill="#fff"><g transform="translate(1195.8 739.75)"><path d="m0 0c0-0.648 0.348-1.095 1.043-1.339 0.363-0.127 0.806-0.19 1.327-0.19 0.705 0 1.207 0.142 1.505 0.427 0.297 0.286 0.446 0.624 0.446 1.017 0 0.459-0.147 0.813-0.441 1.061s-0.631 0.372-1.012 0.372c-0.445 0-0.78-0.131-1.005-0.393-0.224-0.262-0.337-0.568-0.337-0.92 0-0.207 0.039-0.394 0.118-0.562 0.087-0.184 0.22-0.336 0.398-0.457-0.508 0.019-0.898 0.116-1.17 0.29-0.273 0.173-0.409 0.408-0.409 0.703 0 0.258 0.088 0.45 0.264 0.577 0.093 0.068 0.223 0.118 0.389 0.149v0.522c-0.258 0-0.508-0.092-0.751-0.277s-0.365-0.511-0.365-0.98zm3.853-0.038c0-0.275-0.091-0.491-0.271-0.646-0.181-0.155-0.404-0.233-0.67-0.233-0.303 0-0.529 0.085-0.68 0.256-0.15 0.171-0.225 0.37-0.225 0.597 0 0.324 0.097 0.547 0.291 0.67 0.195 0.123 0.399 0.185 0.614 0.185 0.254 0 0.474-0.069 0.661-0.207 0.186-0.137 0.28-0.345 0.28-0.622z" fill="#fff" stroke="#fff" stroke-miterlimit="10" stroke-width=".4"/></g><g transform="translate(1197 744.57)"><path d="m0 0h2.971v0.562h-4.178v-0.416c0.324-0.074 0.53-0.186 0.617-0.336 0.087-0.151 0.149-0.416 0.186-0.797h0.404z" fill="#fff" stroke="#fff" stroke-miterlimit="10" stroke-width=".4"/></g><g transform="translate(1197 747.9)"><path d="m0 0h2.971v0.562h-4.178v-0.416c0.324-0.074 0.53-0.186 0.617-0.336 0.087-0.151 0.149-0.416 0.186-0.797h0.404z" fill="#fff" stroke="#fff" stroke-miterlimit="10" stroke-width=".4"/></g><g transform="translate(1197 752.91)"><path d="m0 0h2.971v0.562h-4.178v-0.416c0.324-0.074 0.53-0.186 0.617-0.336 0.087-0.151 0.149-0.416 0.186-0.797h0.404z" fill="#fff" stroke="#fff" stroke-miterlimit="10" stroke-width=".4"/></g><g transform="translate(1197.6 756.31)"><path d="m0 0c0-0.199-0.056-0.371-0.167-0.518-0.112-0.146-0.267-0.219-0.464-0.219-0.176 0-0.33 0.057-0.461 0.17-0.132 0.113-0.197 0.296-0.197 0.549 0 0.256 0.065 0.446 0.197 0.571 0.131 0.124 0.275 0.187 0.431 0.187 0.18 0 0.336-0.066 0.466-0.196 0.13-0.131 0.195-0.312 0.195-0.544zm2.077 0.034c0-0.305-0.079-0.53-0.239-0.676-0.159-0.145-0.348-0.218-0.567-0.218-0.253 0-0.452 0.08-0.596 0.239-0.143 0.159-0.215 0.365-0.215 0.617 0 0.259 0.07 0.472 0.211 0.638s0.347 0.249 0.618 0.249c0.262 0 0.459-0.08 0.59-0.241 0.132-0.162 0.198-0.364 0.198-0.608zm-1.875-0.75c0.096-0.239 0.234-0.418 0.415-0.539 0.18-0.121 0.395-0.182 0.643-0.182 0.422 0 0.743 0.141 0.965 0.423 0.222 0.283 0.333 0.628 0.333 1.036 0 0.453-0.129 0.804-0.386 1.052-0.256 0.248-0.569 0.372-0.939 0.372-0.312 0-0.566-0.093-0.761-0.28-0.104-0.1-0.196-0.237-0.276-0.411-0.088 0.156-0.177 0.271-0.269 0.345-0.162 0.133-0.374 0.199-0.636 0.199-0.283 0-0.531-0.114-0.743-0.342s-0.318-0.543-0.318-0.945c0-0.416 0.113-0.737 0.337-0.963 0.225-0.226 0.494-0.34 0.806-0.34 0.25 0 0.453 0.078 0.609 0.232 0.084 0.082 0.158 0.196 0.22 0.343z" fill="#fff" stroke="#fff" stroke-miterlimit="10" stroke-width=".4"/></g><g transform="translate(1197 764.58)"><path d="m0 0h2.971v0.562h-4.178v-0.416c0.324-0.074 0.53-0.186 0.617-0.336 0.087-0.151 0.149-0.416 0.186-0.797h0.404z" fill="#fff" stroke="#fff" stroke-miterlimit="10" stroke-width=".4"/></g><g transform="translate(1197 767.92)"><path d="m0 0h2.971v0.562h-4.178v-0.416c0.324-0.074 0.53-0.186 0.617-0.336 0.087-0.151 0.149-0.416 0.186-0.797h0.404z" fill="#fff" stroke="#fff" stroke-miterlimit="10" stroke-width=".4"/></g><g transform="translate(1200.1 772.92)"><path d="m0 0c0 0.484-0.126 0.858-0.378 1.122s-0.578 0.396-0.978 0.396c-0.25 0-0.462-0.062-0.635-0.186s-0.289-0.297-0.35-0.518c-0.056 0.137-0.135 0.248-0.234 0.334-0.16 0.139-0.369 0.208-0.627 0.208-0.361 0-0.637-0.117-0.828-0.351-0.19-0.234-0.285-0.566-0.285-0.993 0-0.541 0.195-0.919 0.586-1.134 0.218-0.125 0.484-0.188 0.796-0.188v0.522c-0.238 0.01-0.421 0.052-0.55 0.126-0.235 0.135-0.352 0.378-0.352 0.729 0 0.198 0.057 0.37 0.17 0.519 0.113 0.148 0.274 0.223 0.483 0.223 0.282 0 0.477-0.112 0.586-0.334 0.063-0.127 0.094-0.289 0.094-0.487 0-0.043-1e-3 -0.083-3e-3 -0.12s-6e-3 -0.083-0.012-0.138h0.466c-2e-3 0.038-3e-3 0.074-4e-3 0.11s-2e-3 0.072-2e-3 0.107c0 0.315 0.058 0.56 0.173 0.737s0.318 0.265 0.607 0.265c0.234 0 0.425-0.084 0.574-0.252 0.148-0.168 0.223-0.39 0.223-0.668 0-0.357-0.111-0.604-0.332-0.741-0.123-0.078-0.32-0.129-0.591-0.152v-0.551c0.39 0 0.722 0.112 0.994 0.335 0.273 0.224 0.409 0.584 0.409 1.08z" fill="#fff" stroke="#fff" stroke-miterlimit="10" stroke-width=".4"/></g><g transform="translate(1195.8 776.45)"><path d="m0 0c0-0.648 0.348-1.095 1.043-1.339 0.363-0.127 0.806-0.19 1.327-0.19 0.705 0 1.207 0.142 1.505 0.427 0.297 0.286 0.446 0.624 0.446 1.017 0 0.459-0.147 0.813-0.441 1.061s-0.631 0.372-1.012 0.372c-0.445 0-0.78-0.131-1.005-0.393-0.224-0.262-0.337-0.568-0.337-0.92 0-0.207 0.039-0.394 0.118-0.562 0.087-0.184 0.22-0.336 0.398-0.457-0.508 0.019-0.898 0.116-1.17 0.29-0.273 0.173-0.409 0.408-0.409 0.703 0 0.258 0.088 0.45 0.264 0.577 0.093 0.068 0.223 0.118 0.389 0.149v0.522c-0.258 0-0.508-0.092-0.751-0.277s-0.365-0.511-0.365-0.98zm3.853-0.038c0-0.275-0.091-0.491-0.271-0.646-0.181-0.155-0.404-0.233-0.67-0.233-0.303 0-0.529 0.085-0.68 0.256-0.15 0.171-0.225 0.37-0.225 0.597 0 0.324 0.097 0.547 0.291 0.67 0.195 0.123 0.399 0.185 0.614 0.185 0.254 0 0.474-0.069 0.661-0.207 0.186-0.137 0.28-0.345 0.28-0.622z" fill="#fff" stroke="#fff" stroke-miterlimit="10" stroke-width=".4"/></g><g transform="translate(1200 784.15)"><path d="m0 0v0.557h-2.54c-0.102 0-0.26-3e-3 -0.476-9e-3s-0.377-9e-3 -0.482-9e-3h-0.132l3.63 1.241v0.577l-3.63 1.229c0.233 0 0.45-2e-3 0.653-6e-3 0.204-4e-3 0.349-6e-3 0.437-6e-3h2.54v0.557h-4.304v-0.829l3.639-1.229-3.639-1.238v-0.835z" fill="#fff" stroke="#fff" stroke-miterlimit="10" stroke-width=".4"/></g></g></g><g transform="translate(-15.183 19.521)"><g clip-path="url(#clipPath116)" fill="#fff"><text transform="matrix(0,1,1,0,1200,738)" fill="#ffffff" font-family="'Helvetica LT Std'" font-size="6px"><tspan x="0 3.336 5.0040002 8.3400002 11.676 13.344 16.68 20.016001 25.02 28.356001 31.691999 33.360001 36.695999 40.032001 41.700001 45.702" y="0">6/11/18 11:36 AM</tspan></text>
</g></g></g></svg>
