<svg width="2788.8" height="825.48" version="1.1" viewBox="0 0 2788.8 825.48" xml:space="preserve" xmlns="http://www.w3.org/2000/svg">
<g transform="matrix(8 0 0 8 31.23 394.74)" fill="#d4d6d8"><path class="st1" d="m212.6 53.1h-10.8l-6.3-29.3-6.3 29.3h-10.8l-11.3-41h10.5l6.5 28.4 5.9-28.4h11l5.6 28.4 5.7-24.7c0.6-2.5 2.3-3.7 4.9-3.7h6.8z"/><path class="st1" d="m230.2 49.4c-2.2-1.9-3.7-4.3-4.6-7.5-0.9-3.1-1.4-6.4-1.4-9.8 0-2.8 0.4-5.6 1.2-8.3 0.8-2.8 2-5.1 3.6-6.9 2.7-3.1 6.1-4.9 10.3-5.5s8-0.2 11.4 1c3.9 1.5 6.8 4.2 8.6 8 1.8 3.4 2.6 7.4 2.6 11.9 0 3.3-0.4 6.1-1.1 8.5s-1.7 4.4-2.8 6c-2.5 3.4-5.6 5.5-9.4 6.3-3.4 0.9-6.8 1-10.3 0.2-3.3-0.7-6-2-8.1-3.9zm7.4-27.1c-2.2 2.4-3.1 5.9-2.9 10.6s1.1 7.9 2.6 9.8c0.6 0.8 1.7 1.5 3.2 2.1s3.1 0.6 4.7 0.2c1.6-0.5 3-1.6 4.2-3.5s1.9-4.8 2-8.9c0-3.7-0.6-6.5-1.8-8.3-1.2-1.9-2.5-3-4.1-3.5-1.5-0.5-3.1-0.5-4.6-0.1-1.4 0.2-2.6 0.8-3.3 1.6z"/><path class="st1" d="m265.8 53.1v-19.9c0-4 0.6-7.4 1.8-10.1s2.8-4.9 4.9-6.6c2-1.5 4.2-2.7 6.9-3.4 2.6-0.7 5.3-1.1 8.1-1.1h1.6v11h-3.5c-3 0-5.2 0.7-6.6 2.2-1.4 1.4-2.2 3.7-2.2 6.8v21.1z"/><path class="st1" d="m291.8 0h5.6c1.4 0 2.7 0.5 3.7 1.5s1.5 2.2 1.5 3.6v48h-10.8z"/><path class="st1" d="m334.3 0h5.2c1.4 0 2.7 0.5 3.7 1.6s1.5 2.3 1.5 3.6v30c0 7.3-2 12.2-6.3 15.2-4.8 3.4-8.8 3.4-13.7 3.4-2.7 0-5.3-0.4-7.8-1.3-2.6-0.9-4.6-2.3-6.2-4.2-3-3.8-4.5-9-4.5-15.5s1.5-11.6 4.5-15.5c3.1-4 7-6 11.8-6 2.6 0 4.8 0.5 6.8 1.5 2.1 1.2 3.7 2.8 4.9 4.8v-17.6zm-17.5 32.3c0 4.1 0.8 7.2 2.3 9.4s3.7 3.2 6.6 3.2c2.8 0 4.9-1.1 6.5-3.2 1.4-2.2 2.2-5.3 2.2-9.4 0-3.7-0.8-6.6-2.3-8.8-1.6-2-3.8-3.1-6.6-3.1-2.7 0-4.8 1.1-6.3 3.2-1.7 2.1-2.4 5-2.4 8.7z"/></g>
<g transform="matrix(2.7991 0 0 -2.7991 -225.26 1009.7)"><g transform="matrix(2.8151 0 0 2.8151 243.48 186.11)"><path d="m0 0-11.612-41.788h-10.901l-6.32 29.939-6.636-29.939h-10.98l-11.454 41.788h10.664l6.636-28.991 6.003 28.991h11.139l5.687-28.991 5.688 25.12c0.79 2.607 2.528 3.871 5.134 3.871z" fill="#75787b"/></g><g transform="matrix(2.8151 0 0 2.8151 311.98 161.42)"><path d="m0 0c-6.241 0-8.927-5.214-8.927-11.612v-21.408h-10.506v53.716h5.293c3.475 0 5.213-1.817 5.213-5.292v-12.482c5.372 6.162 11.928 7.9 19.749 5.135 5.845-2.133 8.611-7.741 8.294-16.826v-24.251h-10.427v21.408c0 7.03-2.686 11.612-8.689 11.612" fill="#75787b"/></g><g transform="matrix(2.8151 0 0 2.8151 380.92 129.18)"><path d="m0 0c0.315 13.508 7.504 20.223 21.486 20.223h1.501v-10.902h-3.554c-5.846 0-8.769-3.08-8.769-9.163v-21.723h-10.664z" fill="#75787b"/></g><g transform="matrix(2.8151 0 0 2.8151 488.56 126.73)"><path d="m0 0c0.079-8.137 2.844-12.244 8.215-12.244 5.372 0 8.057 4.265 8.137 12.56 0 8.136-2.686 12.165-8.058 12.165-5.529 0-8.294-4.187-8.294-12.481m27.332 0c0-14.377-6.398-21.645-19.038-21.645-12.639 0-18.958 7.268-18.958 21.645 0 14.535 6.319 21.724 18.958 21.724 12.64 0 19.038-7.189 19.038-21.724" fill="#75787b"/></g></g><g transform="matrix(2.7991 0 0 -2.7991 -225.26 1009.7)" fill="#006628"><g transform="matrix(2.8151 0 0 2.8151 553.8 312.5)"><path d="m0 0c-9.196 0.024-41.85 0.16-41.85 0.16-6.039 0.018-11.24-2.406-15.588-7.246-4.336-4.855-6.533-10.691-6.566-17.493l0.058-26.124s5.974 6.877 12.353 9.099c10.037 3.499 39.717 1.518 39.717 1.518l4.022-0.014c6.052-0.017 11.248 2.405 15.592 7.25 4.339 4.856 6.536 10.682 6.563 17.487l0.099 19.392s-5.212-4.057-14.4-4.029" fill="#006628"/></g><g transform="matrix(2.8151 0 0 2.8151 355.56 268.98)"><path d="m0 0h-6.554c-1.756 0-3.404 0.685-4.644 1.927-1.239 1.236-1.925 2.889-1.925 4.64v6.559h6.558c1.757 0 3.403-0.679 4.642-1.922 1.24-1.242 1.923-2.89 1.923-4.64zm5.284-5.279v11.843c0 3.269-1.323 6.234-3.472 8.375-2.139 2.146-5.103 3.47-8.377 3.47h-11.843v-11.842c0-3.271 1.328-6.234 3.472-8.375 2.145-2.148 5.106-3.471 8.378-3.471h4e-3z" fill="#006628"/></g><g transform="matrix(2.8151 0 0 2.8151 395.47 317.95)"><path d="m0 0h-7.596v7.591c0 2.103 0.844 3.999 2.225 5.38 1.378 1.372 3.271 2.218 5.373 2.218h7.595v-7.592c0-2.103-0.849-3.993-2.227-5.372-1.379-1.38-3.27-2.225-5.37-2.225" fill="#006628"/></g></g></svg>
