<svg width="2665.3" height="743.35" version="1.1" viewBox="0 0 2665.3 743.35" xml:space="preserve" xmlns="http://www.w3.org/2000/svg">
<g transform="matrix(8 0 0 8 40.524 355.35)" fill="#d4d6d8"><path class="st1" d="m185.2 47.7v-17.9c0-3.6 0.5-6.6 1.6-9.1 1.1-2.4 2.5-4.4 4.4-5.9 1.8-1.4 3.8-2.4 6.2-3.1 2.4-0.6 4.8-1 7.3-1h1.4v9.9h-3.2c-2.7 0-4.7 0.6-6 1.9s-1.9 3.3-1.9 6.1v19z"/><path class="st1" d="m293.3 47.7c-3.1 0.2-6.4 0.1-9.9-0.1-3.6-0.3-5.3-2.5-5.3-6.8v-40.8h5c1.2 0 2.3 0.5 3.2 1.4s1.4 2 1.4 3.3v6.2h5.7v1.9c0 1.4-0.5 2.5-1.4 3.4s-2 1.3-3.3 1.3h-1v20.5c0 1.6 0.9 2.4 2.8 2.4h2.9v7.3z"/><path class="st1" d="m233.5 36.4h7c-1 3.9-3 6.9-5.9 8.9-2.9 2.1-6.5 3.2-10.9 3.2-5.3 0-9.4-1.7-12.4-5.2-3-3.3-4.5-8.1-4.5-14.4 0-5.9 1.4-10.6 4.3-13.9 3-3.4 7.1-5.2 12.4-5.2 5.6 0 9.9 1.7 13 5 3 3.4 4.5 8.2 4.5 14.4 0 0.4 0 2.1-0.1 2.5h-24.1c0.1 2.9 0.8 5 2.1 6.4 1.2 1.5 3 2.2 5.4 2.2 1.6 0 2.9-0.3 4-1 0.3-0.1 1.9-1.5 2.6-2.4 0.7-0.7 1.5-0.5 2.6-0.5zm-16.7-10.9h14.2c-0.2-2.5-0.8-4.4-2-5.6-1.2-1.3-2.9-1.9-5.2-1.9-2 0-3.7 0.6-5 1.9-1.2 1.3-1.9 3.2-2 5.6z"/><path class="st1" d="m267 46.1c-1.9 1-3.7 1.6-6.1 1.9-2.2 0.3-4.2 0.3-5.8 0.3-3.3 0-6.2-0.9-8.7-2.7s-3.7-4.8-3.7-8.9c0-3.9 1.1-6.6 3.4-8.3s5-2.7 8.6-3.3c0.5-0.1 3-0.5 3.9-0.6 4.1-0.6 6.1-1.8 6.1-3.6 0-1.4-0.4-2.3-2-2.8-1.4-0.5-2.9-0.5-4.1-0.5-1.3 0-2.4 0.2-3.5 0.6-1 0.4-1.7 1.1-2.2 2.1h-9.3c0.4-2.9 1.7-5.2 3.9-7.1 2.5-2.1 6-3.2 10.6-3.2 5.2 0 9 0.9 11.6 2.6 2.7 1.8 4 4.4 4 7.7v12.6c0 3.7-0.7 6.6-2 8.6-1.3 2.2-2.9 3.7-4.7 4.6zm-2.2-17c-1.3 0.6-3.1 1.2-5.4 1.8l-3.2 0.7c-1.7 0.5-3 1-3.6 1.8-0.8 1.1-1 2-1 3 0 1.4 0.4 2.5 1.2 3.3 0.8 0.7 2 1.1 3.6 1.1 2.6 0 4.6-0.7 6.1-2.2s2.2-3.5 2.2-6.1z"/><path class="st1" d="m176.1 36.4h6.9c-1 3.9-3 6.8-5.8 8.9-2.9 2.1-6.5 3.2-10.8 3.2-5.3 0-9.4-1.7-12.3-5.1-3-3.3-4.4-8.1-4.4-14.3 0-5.9 1.4-10.5 4.3-13.9 3-3.4 7.1-5.1 12.3-5.1 5.5 0 9.8 1.7 12.9 5 1.7 2 2.9 4.4 3.6 7.1h-9.7c-0.5-0.9-0.9-1.6-1.4-2.1-1.2-1.3-2.9-1.9-5.1-1.9-2 0-3.7 0.6-5 1.9-1.7 1.9-2.5 4.9-2.5 9.1s0.8 7.3 2.5 9c1.2 1.5 3 2.2 5.4 2.2 1.6 0 2.9-0.3 4-1 0.3-0.1 1-0.7 1.5-1.2l1.1-1.1c0.6-0.4 1.4-0.7 2.5-0.7z"/><path class="st1" d="m320.6 36.4h7c-1 3.9-3 6.9-5.9 8.9-2.9 2.1-6.5 3.2-10.9 3.2-5.3 0-9.4-1.7-12.4-5.2-3-3.3-4.5-8.1-4.5-14.4 0-5.9 1.4-10.6 4.3-13.9 3-3.4 7.1-5.2 12.4-5.2 5.6 0 9.9 1.7 13 5 3 3.4 4.5 8.2 4.5 14.4 0 0.4 0 2.1-0.1 2.5h-24.1c0.1 2.9 0.8 5 2.1 6.4 1.2 1.5 3 2.2 5.4 2.2 1.6 0 2.9-0.3 4-1 0.3-0.1 1.9-1.5 2.6-2.4 0.6-0.7 1.5-0.5 2.6-0.5zm-16.8-10.9h14.2c-0.2-2.5-0.8-4.4-2-5.6-1.2-1.3-2.9-1.9-5.2-1.9-2 0-3.7 0.6-5 1.9-1.2 1.3-1.9 3.2-2 5.6z"/></g>
<g transform="matrix(2.5197 0 0 -2.5197 -202.77 908.89)"><g transform="matrix(2.8151 0 0 2.8151 243.48 186.11)"><path d="m0 0-11.612-41.788h-10.901l-6.32 29.939-6.636-29.939h-10.98l-11.454 41.788h10.664l6.636-28.991 6.003 28.991h11.139l5.687-28.991 5.688 25.12c0.79 2.607 2.528 3.871 5.134 3.871z" fill="#75787b"/></g><g transform="matrix(2.8151 0 0 2.8151 311.98 161.42)"><path d="m0 0c-6.241 0-8.927-5.214-8.927-11.612v-21.408h-10.506v53.716h5.293c3.475 0 5.213-1.817 5.213-5.292v-12.482c5.372 6.162 11.928 7.9 19.749 5.135 5.845-2.133 8.611-7.741 8.294-16.826v-24.251h-10.427v21.408c0 7.03-2.686 11.612-8.689 11.612" fill="#75787b"/></g><g transform="matrix(2.8151 0 0 2.8151 380.92 129.18)"><path d="m0 0c0.315 13.508 7.504 20.223 21.486 20.223h1.501v-10.902h-3.554c-5.846 0-8.769-3.08-8.769-9.163v-21.723h-10.664z" fill="#75787b"/></g><g transform="matrix(2.8151 0 0 2.8151 488.56 126.73)"><path d="m0 0c0.079-8.137 2.844-12.244 8.215-12.244 5.372 0 8.057 4.265 8.137 12.56 0 8.136-2.686 12.165-8.058 12.165-5.529 0-8.294-4.187-8.294-12.481m27.332 0c0-14.377-6.398-21.645-19.038-21.645-12.639 0-18.958 7.268-18.958 21.645 0 14.535 6.319 21.724 18.958 21.724 12.64 0 19.038-7.189 19.038-21.724" fill="#75787b"/></g></g><g transform="matrix(2.5197 0 0 -2.5197 -202.77 908.89)" fill="#b4015b"><g transform="matrix(2.8151 0 0 2.8151 553.8 312.5)"><path d="m0 0c-9.196 0.024-41.85 0.16-41.85 0.16-6.039 0.018-11.24-2.406-15.588-7.246-4.336-4.855-6.533-10.691-6.566-17.493l0.058-26.124s5.974 6.877 12.353 9.099c10.037 3.499 39.717 1.518 39.717 1.518l4.022-0.014c6.052-0.017 11.248 2.405 15.592 7.25 4.339 4.856 6.536 10.682 6.563 17.487l0.099 19.392s-5.212-4.057-14.4-4.029" fill="#b4015b"/></g><g transform="matrix(2.8151 0 0 2.8151 355.56 268.98)"><path d="m0 0h-6.554c-1.756 0-3.404 0.685-4.644 1.927-1.239 1.236-1.925 2.889-1.925 4.64v6.559h6.558c1.757 0 3.403-0.679 4.642-1.922 1.24-1.242 1.923-2.89 1.923-4.64zm5.284-5.279v11.843c0 3.269-1.323 6.234-3.472 8.375-2.139 2.146-5.103 3.47-8.377 3.47h-11.843v-11.842c0-3.271 1.328-6.234 3.472-8.375 2.145-2.148 5.106-3.471 8.378-3.471h4e-3z" fill="#b4015b"/></g><g transform="matrix(2.8151 0 0 2.8151 395.47 317.95)"><path d="m0 0h-7.596v7.591c0 2.103 0.844 3.999 2.225 5.38 1.378 1.372 3.271 2.218 5.373 2.218h7.595v-7.592c0-2.103-0.849-3.993-2.227-5.372-1.379-1.38-3.27-2.225-5.37-2.225" fill="#b4015b"/></g></g></svg>
