<svg width="800" height="800.13" data-name="Layer 1" version="1.1" viewBox="0 0 800 800.13" xmlns="http://www.w3.org/2000/svg">
 <path d="m697.63 92.635h-2.4813l38.174-92.635h-666.77l39.001 92.635h-2.9267c-56.561 0-102.62 43.836-102.62 97.662v367.74c0 53.889 46.063 97.725 102.69 97.725l242.6-0.38174 56.434 144.74 57.961-144.68h237.7c56.561 0 102.62-43.836 102.62-97.725v-367.62c0.25449-53.634-45.809-97.471-102.37-97.471z" fill="#fff" stroke-width="6.3623"/>
 <path d="m110.7 29.33h578.97l-26.276 63.623h-526.04zm660.22 528.71c0 37.729-32.893 68.395-73.294 68.395h-257.8l-37.665 94.417-36.838-94.481-262.57 0.38174c-40.401 0-73.294-30.666-73.294-68.395v-368.25c0-37.665 32.893-68.331 73.294-68.331h595c40.401 0 73.294 30.666 73.294 68.331z" stroke-width="6.3623"/>
 <link href="" rel="stylesheet" type="text/css"/>
 <style type="text/css"/>
 <g fill="#fff">
  <polygon transform="matrix(6.3623 0 0 6.3623 -687.83 -7.1258)" points="141.09 40.65 135.62 66.7 135.51 66.7 130.16 40.65 123.09 40.65 131.43 80.49 138.71 80.49 144.73 53.23 144.84 53.23 150.41 80.49 157.75 80.49 166.47 40.65 159.35 40.65 154.06 66.7 153.94 66.7 148.43 40.65"/>
  <rect x="430.67" y="251.5" width="48.481" height="253.54" stroke-width="6.3623"/>
  <path d="m596.79 315.76c0-17.242 9.4799-27.74 26.658-27.74 17.178 0 27.422 10.18 35.502 34.038l43.518-12.725c-8.3983-35.82-34.738-61.396-77.938-61.396-50.199 0-76.348 27.358-76.348 70.876 0 70.94 108.16 71.64 108.16 119.42a28.44 28.44 0 0 1-29.839 30.157c-14.379 0-31.812-10.88-37.601-41.419l-47.717 10.18c12.725 49.881 43.518 71.322 82.71 71.322 50.899 0 80.802-28.821 80.802-72.34 0.25449-79.338-107.91-82.138-107.91-120.38z" stroke-width="6.3623"/>
 </g>
</svg>
