<svg width="800" height="277.86" version="1.1" viewBox="0 0 800 277.86" xml:space="preserve" xmlns="http://www.w3.org/2000/svg"><defs><clipPath id="clipPath228"><path d="m147.71 636.92h311.42v110.88h-311.42z"/></clipPath></defs><g transform="matrix(1.3333 0 0 -1.3333 -179.88 1417.1)"><g transform="matrix(2.0599 0 0 2.0599 -185.76 -465.62)"><g clip-path="url(#clipPath228)"><g transform="translate(442.18 742)"><path d="m0 0h-240.8l33.889-33.889c3.778-3.78 3.778-9.928-1e-3 -13.707l-33.888-33.886h240.8c2.627 0 4.777 2.149 4.777 4.777v71.928c0 2.627-2.15 4.777-4.777 4.777" fill="#bb1f40"/></g><g transform="translate(231.79 704.64)"><path d="m0 0-33.985 33.985c-0.711 0.711-1.597 1.145-2.522 1.312-0.282 0.052-0.569 0.081-0.856 0.081-1.225 0-2.449-0.463-3.378-1.392l-33.984-33.986c-1.858-1.857-1.858-4.898 0-6.756l33.984-33.984c0.929-0.931 2.154-1.395 3.378-1.395 0.287 0 0.574 0.031 0.856 0.082 0.926 0.166 1.811 0.6 2.522 1.311l33.985 33.985c1.858 1.858 1.858 4.899 0 6.757" fill="#263d87"/></g><g transform="translate(189.6 696.36)"><path d="M 0,0 C 0.329,0.345 0.757,0.624 1.278,0.759 1.255,0.876 1.22,0.992 1.193,1.108 0.644,0.87 0.231,0.471 0,0" fill="#fff3ad"/></g><g transform="translate(198.14 697.44)"><path d="m0 0c-0.014-0.079-0.033-0.155-0.044-0.233 0.432-0.356 0.935-0.649 1.324-1.041-2e-3 0.017-1e-3 0.029-3e-3 0.046-0.269 0.544-0.787 0.875-1.277 1.228" fill="#fff3ad"/></g><g transform="translate(179.67 705.71)"><path d="m0 0c1.166 0.135 2.254 0.107 3.26-0.05-1.363 0.34-2.875 0.453-4.54 0.259-3.94-0.458-7.509-3.609-6.439-8.209 0.306-1.314 1.164-2.365 2.536-2.962-0.076 0.636-0.037 1.232 0.06 1.798-0.39 0.462-0.658 1.006-0.798 1.611-0.988 4.233 2.297 7.13 5.921 7.553" fill="#fff3ad"/></g><g transform="translate(190.79 697.47)"><path d="m0 0c0.12 0.052 0.236 0.109 0.369 0.144-0.772 3.863-3.657 7.333-8.229 8.048 4.256-1.063 6.988-4.423 7.86-8.192" fill="#fff3ad"/></g><g transform="translate(189.71 693.39)"><path d="m0 0c0.458-0.359 0.913-0.447 1.562-0.761-0.081-0.621 0.075-1.204 0.012-1.85 0.107 0.273 0.194 0.549 0.242 0.833 0.108 0.666-0.083 1.242 0 1.868-0.597 0.291-1.017 0.372-1.436 0.703-0.763 0.598-0.838 1.453-0.486 2.173-0.809-0.848-0.951-2.137 0.106-2.966" fill="#fff3ad"/></g><g transform="translate(224.04 701.26)"><path d="m0 0c-0.269 3.622-1.607 6.178-3.903 8.464-2.06 2.049-5.176 3.913-8.681 4.314-4.386 0.505-7.219-0.569-9.853-1.861 0.397 1.512 0.844 2.814 0.976 4.401 0.784 9.487-4.737 14.199-8 20.311-0.098 0-0.196 1e-3 -0.292 0-2.26-4.866-7.172-9.001-7.902-15.233-0.403-3.44-0.053-6.528 0.78-9.479-2.736 1.438-5.737 2.358-9.851 1.861-6.012-0.724-11.486-5.528-12.39-11.086-0.206-1.271-0.15-2.664-0.095-3.894 0.247-5.628 5.527-10.646 11.899-11.086 4.067-0.282 7.746 1.442 9.367 4.119-1.702-1.939-4.687-3.12-7.953-2.894-5.862 0.406-10.72 5.02-10.948 10.2-0.053 1.129-0.102 2.413 0.089 3.582 0.829 5.114 5.866 9.534 11.399 10.201 3.784 0.456 6.545-0.389 9.064-1.713-0.766 2.716-1.091 5.555-0.718 8.722 0.67 5.733 5.192 9.539 7.271 14.016h0.269c3.001-5.625 8.081-9.96 7.361-18.689-0.122-1.46-0.532-2.658-0.9-4.05 2.423 1.188 5.032 2.175 9.065 1.714 3.225-0.37 6.092-2.085 7.989-3.971 2.113-2.103 3.342-4.453 3.59-7.787 0.453-6.12-4.061-11.726-10.861-12.226-3.392-0.249-6.385 1.024-8.065 2.933 1.584-2.6 5.253-4.468 9.49-4.157 7.388 0.542 12.297 6.636 11.803 13.288" fill="#fff3ad"/></g><g transform="translate(214.28 696.53)"><path d="m0 0c-0.317 2.408-2.137 4.065-4.872 4.315-0.039 4e-3 -0.079 3e-3 -0.119 7e-3 2.416-0.647 3.794-2.659 3.408-5.339 0.636 0.167 1.169 0.523 1.583 1.017" fill="#fff3ad"/></g><g transform="translate(206.04 705.65)"><path d="m0 0c-4.527-0.704-7.71-4.076-8.239-7.96 0.108-0.087 0.224-0.169 0.338-0.252 0.621 3.827 3.61 7.154 7.901 8.212" fill="#fff3ad"/></g><g transform="translate(208.99 685.53)"><path d="m0 0c-0.156-0.783-0.629-1.515-1.138-2.009-1.75-1.696-5.48-2.534-8.257-1.479-0.218-0.797 0.28-1.452 0.359-2.104 0.454-3.728-3.011-6.073-5.477-7.553-3.571 1.603-6.682 5.158-5.114 9.578-0.776-0.039-1.425-0.328-2.246-0.388-2.67-0.197-5.712 1.032-6.73 2.646-0.212 0.338-0.441 0.826-0.547 1.343-0.302 0.094-0.615 0.175-0.967 0.217-0.75-0.99-0.185-2.453 0.295-3.217 1.106-1.756 4.413-3.089 7.316-2.875 0.89 0.063 1.593 0.377 2.438 0.42-1.703-4.803 1.68-8.665 5.56-10.408 2.681 1.607 6.445 4.155 5.952 8.208-0.087 0.709-0.626 1.422-0.391 2.286 3.018-1.147 7.074-0.235 8.974 1.607 0.94 0.912 1.79 2.566 0.977 3.98-0.329-0.062-0.662-0.153-1.004-0.252" fill="#fff3ad"/></g><g transform="translate(197.26 693.56)"><path d="m0 0c-0.08-0.909 0.038-1.75 0.303-2.515-0.084 0.531-0.109 1.087-0.057 1.67 1.571 0.274 2.651 0.973 2.341 2.876-0.109 0.22-0.261 0.402-0.429 0.572 0.259-1.717-0.727-2.354-2.158-2.603" fill="#fff3ad"/></g><g transform="translate(221.68 701.43)"><path d="m0 0c-0.248 3.334-1.477 5.684-3.59 7.787-1.898 1.886-4.764 3.602-7.99 3.971-4.033 0.461-6.641-0.525-9.064-1.714 0.367 1.393 0.778 2.59 0.899 4.05 0.72 8.729-4.359 13.065-7.361 18.689h-0.268c-2.08-4.477-6.601-8.283-7.272-14.016-0.372-3.167-0.048-6.006 0.719-8.722-2.519 1.323-5.28 2.169-9.065 1.713-5.533-0.667-10.569-5.087-11.4-10.2-0.189-1.17-0.14-2.454-0.087-3.582 0.227-5.181 5.086-9.795 10.948-10.201 3.265-0.226 6.251 0.955 7.952 2.894 0.923 1.053 1.474 2.325 1.471 3.724-6e-3 3.544-3.457 5.601-7.09 5.218-0.308-0.034-0.598-0.1-0.881-0.175-0.11-7e-3 -0.221-0.01-0.331-0.022-2.551-0.269-4.321-1.954-4.719-4.296-0.098-0.566-0.137-1.161-0.06-1.797-1.373 0.598-2.231 1.647-2.537 2.962-1.071 4.6 2.499 7.75 6.438 8.208 1.665 0.194 3.178 0.082 4.542-0.258 4.572-0.715 7.457-4.186 8.229-8.048-0.132-0.035-0.248-0.094-0.369-0.145 0.028-0.117 0.063-0.231 0.086-0.349-0.521-0.135-0.95-0.414-1.278-0.76-0.354-0.718-0.277-1.574 0.484-2.173 0.421-0.33 0.841-0.412 1.437-0.702-0.083-0.625 0.109-1.202 0-1.868-0.047-0.283-0.134-0.56-0.241-0.834-1.03-2.623-4.709-4.662-8.109-4.383-1.198 0.1-1.928 0.648-3.049 0.779-0.36-0.472-0.391-1.06-0.278-1.617 0.106-0.516 0.334-1.005 0.545-1.343 1.019-1.614 4.061-2.843 6.732-2.647 0.82 0.061 1.468 0.349 2.246 0.389-1.568-4.42 1.543-7.975 5.114-9.578 2.466 1.48 5.93 3.825 5.475 7.553-0.077 0.652-0.575 1.307-0.359 2.103 2.779-1.054 6.509-0.216 8.259 1.48 0.508 0.494 0.982 1.226 1.138 2.009 0.108 0.547 0.067 1.117-0.241 1.651-1.246-0.231-2.539-0.925-4.309-0.779-3.168 0.258-5.955 1.985-6.877 4.647-0.265 0.767-0.384 1.606-0.303 2.517 1.431 0.249 2.417 0.886 2.158 2.601-0.391 0.392-0.892 0.686-1.325 1.04 0.01 0.078 0.031 0.156 0.044 0.234-0.115 0.083-0.231 0.164-0.339 0.252 0.528 3.884 3.713 7.256 8.239 7.96 0.994 0.154 2.049 0.184 3.16 0.058 3.226-0.363 5.725-2.46 6.014-5.603 0.134-1.455-0.218-2.724-0.932-3.578-0.412-0.494-0.946-0.851-1.582-1.017 0.387 2.679-0.992 4.692-3.408 5.338-0.339 0.091-0.699 0.155-1.078 0.191-3.925 0.361-7.522-2.343-6.822-6.231 0.173-0.961 0.652-1.872 1.359-2.673 1.679-1.91 4.671-3.181 8.065-2.933 6.799 0.5 11.313 6.107 10.861 12.226" fill="#ffde1d"/></g><g transform="translate(239.05 717.53)"><path d="m0 0h15.034l5.739-21.985 6.708 22.147h12.691l6.79-22.308 5.9 22.146h14.792l-13.499-44.051h-13.256l-7.112 22.714-7.275-22.714h-13.175z" fill="#fff"/></g><path d="m312.11 732.8h15.357v-59.005h-15.357z" fill="#fff"/><g transform="translate(361.65 689.64)"><path d="m0 0v2.021c-1.536 0.647-3.717 1.131-5.98 1.131-4.446 0-7.034-2.181-7.034-5.415v-0.161c0-2.991 2.264-4.769 5.415-4.769 4.447 0 7.599 2.828 7.599 7.193m-27.804-3.313v0.161c0 9.054 6.87 13.741 17.135 13.741 4.041 0 8.001-0.808 10.508-1.698v0.728c0 4.526-2.83 7.113-8.729 7.113-4.608 0-8.165-0.888-12.044-2.424l-3.153 10.83c4.931 2.021 10.185 3.395 17.702 3.395 7.841 0 13.174-1.859 16.65-5.334 3.315-3.234 4.689-7.761 4.689-13.904v-25.137h-15.196v4.526c-2.991-3.314-7.112-5.496-12.852-5.496-8.326 0-14.71 4.769-14.71 13.499" fill="#fff"/></g><g transform="translate(412.41 699.26)"><path d="m0 0c-0.566 4.85-3.395 7.921-7.599 7.921-4.041 0-6.788-3.152-7.597-7.921zm-29.746-3.799v0.162c0 12.772 9.135 22.874 22.068 22.874 15.114 0 22.065-11.072 22.065-23.925 0-0.969 0-2.101-0.081-3.153h-29.26c1.213-4.768 4.689-7.193 9.457-7.193 3.637 0 6.546 1.374 9.699 4.446l8.487-7.032c-4.203-5.336-10.265-8.892-18.994-8.892-13.74 0-23.441 9.134-23.441 22.713" fill="#fff"/></g></g></g><g transform="matrix(2.0599 0 0 -2.0599 -142.99 -905.54)" fill="#263d87" aria-label="New Orleans Public Television"><path d="m172.72-854.64h3.2101v-6.4202l4.9991 6.4202h2.8423v-11.704h-3.2101v6.1862l-4.8152-6.1862h-3.0262z"/><path d="m190.22-854.42c1.8057 0 3.0596-0.73565 3.929-1.8391l-1.7555-1.4546c-0.65206 0.63534-1.254 0.91957-2.0063 0.91957-0.98644 0-1.7054-0.50158-1.9562-1.488h6.0524c0.0167-0.21735 0.0167-0.45142 0.0167-0.65205 0-2.6584-1.4379-4.949-4.5644-4.949-2.6751 0-4.5644 2.0899-4.5644 4.7316v0.0334c0 2.8089 2.0063 4.6982 4.8486 4.6982zm-1.8391-5.484c0.1672-0.98644 0.73566-1.6385 1.5716-1.6385 0.8694 0 1.4546 0.63534 1.5716 1.6385z"/><path d="m197.68-854.57h2.7253l1.5048-4.6982 1.4713 4.6982h2.742l2.7921-9.1121h-3.0596l-1.2205 4.5811-1.4044-4.6146h-2.6249l-1.3877 4.5811-1.1871-4.5477h-3.1098z"/><path d="m221.05-854.4c3.6114 0 6.3199-2.7253 6.3199-6.0859v-0.0334c0-3.3606-2.6751-6.0524-6.2865-6.0524s-6.3199 2.7253-6.3199 6.0859v0.0334c0 3.3606 2.6751 6.0524 6.2865 6.0524zm0.0334-2.9259c-1.7723 0-2.9928-1.4713-2.9928-3.16v-0.0334c0-1.6887 1.1871-3.1265 2.9593-3.1265 1.789 0 3.0095 1.4713 3.0095 3.16v0.0334c0 1.6887-1.1871 3.1265-2.976 3.1265z"/><path d="m229.2-854.64h3.1767v-2.8089c0-2.0899 0.93629-3.0429 2.5915-3.0429h0.26751v-3.3439c-1.5048-0.0669-2.3407 0.73565-2.859 1.9729v-1.8224h-3.1767z"/><path d="m236.25-854.64h3.1767v-12.205h-3.1767z"/><path d="m245.72-854.42c1.8057 0 3.0596-0.73565 3.9291-1.8391l-1.7555-1.4546c-0.65205 0.63534-1.254 0.91957-2.0063 0.91957-0.98644 0-1.7054-0.50158-1.9562-1.488h6.0524c0.0167-0.21735 0.0167-0.45142 0.0167-0.65205 0-2.6584-1.4379-4.949-4.5644-4.949-2.6751 0-4.5644 2.0899-4.5644 4.7316v0.0334c0 2.8089 2.0063 4.6982 4.8486 4.6982zm-1.8391-5.484c0.16719-0.98644 0.73565-1.6385 1.5716-1.6385 0.86941 0 1.4546 0.63534 1.5716 1.6385z"/><path d="m254.08-854.44c1.1871 0 2.0398-0.45142 2.6584-1.1369v0.93628h3.1432v-5.1997c0-1.2707-0.28423-2.207-0.96972-2.8757-0.71894-0.71893-1.8224-1.1035-3.4442-1.1035-1.5549 0-2.6417 0.28423-3.6616 0.70222l0.65206 2.2404c0.80253-0.31767 1.5382-0.50159 2.4912-0.50159 1.2205 0 1.8057 0.53502 1.8057 1.4713v0.15048c-0.5183-0.18392-1.3376-0.35111-2.1735-0.35111-2.1234 0-3.5445 0.96972-3.5445 2.8423v0.0334c0 1.8057 1.3208 2.7921 3.0429 2.7921zm1.1369-1.9896c-0.65206 0-1.1202-0.36783-1.1202-0.98645v-0.0334c0-0.66877 0.53502-1.1202 1.4546-1.1202 0.46814 0 0.91956 0.10032 1.2372 0.23407v0.41799c0 0.90285-0.65205 1.488-1.5716 1.488z"/><path d="m261.38-854.64h3.1767v-4.8988c0-0.98645 0.56846-1.5215 1.3376-1.5215 0.75237 0 1.2707 0.53502 1.2707 1.5215v4.8988h3.1767v-5.9187c0-2.0565-1.1536-3.3272-3.0764-3.3272-1.2874 0-2.1234 0.71894-2.7085 1.4713v-1.2707h-3.1767z"/><path d="m275.39-854.44c2.207 0 3.695-1.0366 3.695-3.0262v-0.0334c0-1.7555-1.4212-2.3742-3.2101-2.8757-0.953-0.28423-1.4713-0.45143-1.4713-0.80253v-0.0334c0-0.25079 0.25079-0.43471 0.73565-0.43471 0.71893 0 1.7388 0.31767 2.6751 0.83597l1.0868-2.0063c-1.0366-0.66877-2.4076-1.0533-3.7284-1.0533-2.0899 0-3.6281 1.07-3.6281 2.9928v0.0334c0 1.8224 1.4212 2.4243 3.2101 2.8925 0.95301 0.26751 1.4546 0.41799 1.4546 0.76909v0.0334c0 0.31767-0.25079 0.48486-0.80253 0.48486-0.93629 0-2.0732-0.3511-3.1098-1.0366l-1.1871 1.9227c1.254 0.90285 2.7587 1.3376 4.2802 1.3376z"/><path d="m285.39-854.64h3.2436v-3.3439h1.6051c2.9092 0 5.0325-1.4546 5.0325-4.2133v-0.0334c0-2.5915-1.906-4.113-4.8653-4.113h-5.0158zm3.2436-5.8852v-3.0931h1.5215c1.1704 0 1.8726 0.53502 1.8726 1.5382v0.0334c0 0.91956-0.70221 1.5215-1.8558 1.5215z"/><path d="m299.47-854.44c1.2874 0 2.1234-0.68549 2.7086-1.4379v1.2372h3.1767v-9.0452h-3.1767v4.8988c0 0.98644-0.56846 1.5215-1.3208 1.5215-0.76909 0-1.2874-0.53503-1.2874-1.5215v-4.8988h-3.1767v5.9187c0 2.0565 1.1536 3.3272 3.0764 3.3272z"/><path d="m312.81-854.44c2.1401 0 3.9959-1.789 3.9959-4.7316v-0.0334c0-2.8925-1.8558-4.6814-4.0126-4.6814-1.3543 0-2.1234 0.65206-2.742 1.4044v-4.3638h-3.1767v12.205h3.1767v-1.1035c0.58518 0.6855 1.3877 1.3041 2.7587 1.3041zm-0.98645-2.6584c-1.0199 0-1.8391-0.85269-1.8391-2.0565v-0.0334c0-1.1871 0.81925-2.0398 1.8391-2.0398 1.0366 0 1.8559 0.85269 1.8559 2.0398v0.0334c0 1.2205-0.81925 2.0565-1.8559 2.0565z"/><path d="m318.23-854.64h3.1767v-12.205h-3.1767z"/><path d="m323.21-864.5h3.3104v-2.3407h-3.3104zm0.0669 9.8644h3.1767v-9.0452h-3.1767z"/><path d="m332.62-854.42c1.9896 0 3.1934-0.83597 4.0294-2.0732l-2.1234-1.5382c-0.50158 0.58518-0.98644 0.93629-1.7388 0.93629-1.07 0-1.8057-0.88613-1.8057-2.0565v-0.0334c0-1.1035 0.75237-2.0063 1.7722-2.0063 0.7691 0 1.254 0.3511 1.6887 0.953l2.1568-1.6051c-0.7691-1.2205-2.0063-2.023-3.8622-2.023-2.859 0-4.8486 2.1568-4.8486 4.7149v0.0334c0 2.5581 2.0063 4.6982 4.7316 4.6982z"/><path d="m345.86-854.64h3.2436v-8.8613h3.5111v-2.8423h-10.266v2.8423h3.5111z"/><path d="m356.38-854.42c1.8057 0 3.0596-0.73565 3.9291-1.8391l-1.7555-1.4546c-0.65205 0.63534-1.254 0.91957-2.0063 0.91957-0.98644 0-1.7054-0.50158-1.9562-1.488h6.0524c0.0167-0.21735 0.0167-0.45142 0.0167-0.65205 0-2.6584-1.4379-4.949-4.5644-4.949-2.6751 0-4.5644 2.0899-4.5644 4.7316v0.0334c0 2.8089 2.0063 4.6982 4.8486 4.6982zm-1.8391-5.484c0.16719-0.98644 0.73565-1.6385 1.5716-1.6385 0.86941 0 1.4546 0.63534 1.5716 1.6385z"/><path d="m362.22-854.64h3.1767v-12.205h-3.1767z"/><path d="m371.68-854.42c1.8057 0 3.0596-0.73565 3.9291-1.8391l-1.7555-1.4546c-0.65206 0.63534-1.254 0.91957-2.0063 0.91957-0.98644 0-1.7054-0.50158-1.9562-1.488h6.0524c0.0167-0.21735 0.0167-0.45142 0.0167-0.65205 0-2.6584-1.4379-4.949-4.5644-4.949-2.6751 0-4.5644 2.0899-4.5644 4.7316v0.0334c0 2.8089 2.0063 4.6982 4.8486 4.6982zm-1.8391-5.484c0.1672-0.98644 0.73566-1.6385 1.5716-1.6385 0.86941 0 1.4546 0.63534 1.5716 1.6385z"/><path d="m379.96-854.57h2.8924l3.6114-9.1121h-3.2937l-1.7388 5.2833-1.7388-5.2833h-3.3439z"/><path d="m387.06-864.5h3.3104v-2.3407h-3.3104zm0.0669 9.8644h3.1767v-9.0452h-3.1767z"/><path d="m395.71-854.44c2.207 0 3.695-1.0366 3.695-3.0262v-0.0334c0-1.7555-1.4212-2.3742-3.2101-2.8757-0.95301-0.28423-1.4713-0.45143-1.4713-0.80253v-0.0334c0-0.25079 0.25079-0.43471 0.73566-0.43471 0.71893 0 1.7388 0.31767 2.6751 0.83597l1.0868-2.0063c-1.0366-0.66877-2.4076-1.0533-3.7284-1.0533-2.0899 0-3.6281 1.07-3.6281 2.9928v0.0334c0 1.8224 1.4212 2.4243 3.2101 2.8925 0.953 0.26751 1.4546 0.41799 1.4546 0.76909v0.0334c0 0.31767-0.25079 0.48486-0.80253 0.48486-0.93629 0-2.0732-0.3511-3.1098-1.0366l-1.1871 1.9227c1.254 0.90285 2.7587 1.3376 4.2802 1.3376z"/><path d="m400.5-864.5h3.3104v-2.3407h-3.3104zm0.0669 9.8644h3.1767v-9.0452h-3.1767z"/><path d="m410.17-854.42c2.9092 0 5.0158-2.1568 5.0158-4.7316v-0.0334c0-2.5748-2.0899-4.6982-4.9824-4.6982-2.9092 0-5.0158 2.1568-5.0158 4.7316v0.0334c0 2.5748 2.0899 4.6982 4.9824 4.6982zm0.0334-2.6918c-1.1202 0-1.9227-0.93629-1.9227-2.0398v-0.0334c0-1.0868 0.73565-2.0063 1.8893-2.0063 1.1202 0 1.9227 0.93628 1.9227 2.0398v0.0334c0 1.0868-0.73565 2.0063-1.8893 2.0063z"/><path d="m416.65-854.64h3.1767v-4.8988c0-0.98645 0.56846-1.5215 1.3376-1.5215 0.75237 0 1.2707 0.53502 1.2707 1.5215v4.8988h3.1767v-5.9187c0-2.0565-1.1536-3.3272-3.0764-3.3272-1.2874 0-2.1234 0.71894-2.7085 1.4713v-1.2707h-3.1767z"/></g></g></svg>
