<svg width="800mm" height="451.84mm" version="1.1" viewBox="0 0 800 451.84" xmlns="http://www.w3.org/2000/svg">
 <g transform="translate(46.685 420.04)">
  <g transform="matrix(2.4354 0 0 -2.4354 -115.29 855.33)">
   <g transform="scale(.1)">
    <path d="m2479.4 5211.2v-837.9h-276.67v661.31h-20.46l-80.82-11.77-1.63 136.67" fill="#fab217"/>
    <path d="m2845.4 4792.2c0-92.82 16.56-163.73 49.69-212.73 33.1-48.98 80.17-73.47 141.18-73.47 61.66 0 108.87 24.27 141.68 72.84 32.82 48.55 49.2 119.65 49.2 213.36 0 189.05-62.96 283.58-188.9 283.58-61.01 0-108.42-24.38-142.2-73.16-33.77-48.76-50.65-118.92-50.65-210.42zm688.73 2.56c0-136.21-43.47-242.89-130.38-320.01-86.92-77.14-209.41-115.69-367.48-115.69-156.12 0-277.47 38.68-364.05 116-86.57 77.35-129.86 182.19-129.86 314.55 0 128.49 42.62 233.21 127.89 314.21 85.25 80.99 209.24 121.49 371.93 121.49 156.74 0 277.96-38.66 363.54-116.01 85.61-77.33 128.41-182.2 128.41-314.54" fill="#fab217"/>
    <path d="m2789.6 4262.5v-164.1h-429.71l-23.05-126.33c32.38 1.74 57.09 2.61 74.1 2.61 127.87 0 230.61-23.35 308.26-70.01 77.66-46.67 116.5-115.38 116.5-206.11 0-82.48-42.7-152.61-128.01-210.32-85.34-57.76-199.1-86.6-341.2-86.6-119.62 0-222.8 16.47-309.5 49.48l47.75 151.07c77.37-29.53 160.77-44.26 250.22-44.26 62.01 0 114.02 11.35 156.01 34.16 41.97 22.8 62.96 53.94 62.96 93.45 0 93.77-103.18 140.67-309.53 140.67-41.14 0-91.64-2.62-151.45-7.81l70.78 444.1h605.87" fill="#fab217"/>
    <path d="m3520.4 4262.5v-164.1h-429.68l-23.08-126.33c32.38 1.74 57.07 2.61 74.1 2.61 127.87 0 230.61-23.35 308.27-70.01 77.63-46.67 116.47-115.38 116.47-206.11 0-82.48-42.68-152.61-127.98-210.32-85.35-57.76-199.08-86.6-341.23-86.6-119.62 0-222.78 16.47-309.5 49.48l47.75 151.07c77.37-29.53 160.79-44.26 250.24-44.26 62 0 114 11.35 155.98 34.16 42 22.8 62.97 53.94 62.97 93.45 0 93.77-103.18 140.67-309.51 140.67-41.14 0-91.63-2.62-151.44-7.81l70.79 444.1h605.85" fill="#fab217"/>
    <path d="m1832.8 4291.1v-252.09h-64.25v252.09l-138.4 342.72h69.2l102.14-260.34 98.87 260.34h69.2zm-245.52-252.09h-69.2l-184.55 517.37h-1.64v-517.37h-64.26v594.81h100.51l153.24-438.27h1.64v438.27h64.26zm-358.38 0h-257.04v594.81h64.262v-540.43h192.78zm-396.29 0h-54.375l-93.914 467.12h-1.649l-93.914-467.12h-54.371l-98.863 594.81h59.316l70.852-464.63h1.644l88.977 464.63h52.722l92.266-464.63h1.649l65.906 464.63h59.308zm376.72 1197.7c-512.32 0-927.64-415.32-927.64-927.64 0-512.33 415.32-927.64 927.64-927.64s927.63 415.31 927.63 927.64c0 512.32-415.31 927.64-927.63 927.64" fill="#254587"/>
    <path d="m2179.9 4309.1h1354.3v15h-1354.3z" fill="#254587"/>
   </g>
  </g>
 </g>
</svg>
