<svg width="800" height="246.99" version="1.1" xmlns="http://www.w3.org/2000/svg">
 <g transform="matrix(2.2077 0 0 2.2077 71.928 -98.58)">
  <path d="m288.9 88.932c-0.11817-6.6543-2.1094-12.065-5.9737-16.234-3.8644-4.168-8.893-6.3167-15.086-6.4462-1.4812-0.01121-2.8612 0.12379-4.1399 0.40499-1.2788 0.28129-2.7487 0.77628-4.41 1.485l2.16-12.24h21.06v-11.25h-30.06l-6.2099 34.74 10.62 2.88c1.4493-1.8243 2.8931-3.1256 4.3312-3.9037 1.4381-0.77808 3.0843-1.1568 4.9387-1.1362 3.1274 0.07316 5.6924 1.2094 7.6949 3.4087 2.0024 2.1994 3.0374 5.0231 3.105 8.4711-0.0525 3.66-1.0725 6.5999-3.06 8.8199s-4.6275 3.36-7.9199 3.42c-2.8969-0.015-5.2706-0.88498-7.1212-2.61-1.8506-1.725-3.0768-4.2149-3.6787-7.4699h-11.97c0.50249 6.2324 2.9625 11.272 7.3799 15.12 4.4174 3.8474 9.6674 5.8274 15.75 5.9399 6.5718-0.1425 11.945-2.3775 16.121-6.7049 4.1755-4.3274 6.3317-9.8924 6.4687-16.695z"/>
  <path d="m329.78 88.482c-0.1013-6.193-1.8338-11.222-5.1974-15.086-3.3637-3.8643-7.7512-5.8555-13.162-5.9737-0.99564-0.0075-1.8844 0.05254-2.6662 0.18-0.7819 0.12754-1.6931 0.36754-2.7337 0.71999l15.93-23.67h-14.31l-17.37 26.1c-2.3606 3.5269-4.0518 6.7331-5.0737 9.6186-1.0219 2.8856-1.5206 5.8893-1.4962 9.0111 0.13312 6.7049 2.3418 12.172 6.6262 16.402 4.2843 4.23 9.8455 6.4124 16.684 6.5474 6.7368-0.1275 12.185-2.37 16.346-6.7274 4.1605-4.3574 6.3017-10.065 6.4237-17.122zm-11.97 1.17c-0.0507 3.5193-1.0519 6.3356-3.0037 8.4486-1.9519 2.1131-4.5506 3.1968-7.7962 3.2512-3.3469-0.06-6.0581-1.155-8.1336-3.285-2.0756-2.13-3.1443-4.9349-3.2062-8.4149 0.0487-3.5624 1.0762-6.4049 3.0825-8.5274 2.0062-2.1224 4.6987-3.2099 8.0774-3.2625 3.2137 0.06378 5.8312 1.1738 7.8524 3.33s3.0637 4.9762 3.1275 8.4599z"/>
 </g>
 <g transform="matrix(2.2229 0 0 2.2076 -549.81 -1050.5)" fill="#52a945">
  <g transform="matrix(10.781 0 0 -10.781 -2172.7 2556.1)" clip-path="url(#id9)" fill="#52a945">
   <g transform="translate(232.99 183)">
    <path d="m0 0c1.205 0.035 2.297 0.551 3.114 1.366 0.742-0.837 1.824-1.366 3.025-1.366 1.207 0 2.293 0.534 3.035 1.379 0.743-0.845 1.829-1.379 3.036-1.379 2.225 0 4.044 1.818 4.044 4.044v5.88h-2.64v-5.88c0-0.862-0.689-1.568-1.551-1.568-0.863 0-1.569 0.706-1.569 1.568v5.88h-2.64v-5.88c0-0.862-0.706-1.568-1.569-1.568-0.862 0-1.551 0.706-1.551 1.568v5.88h-2.64v-4.995c-0.019-1.234-0.92-2.258-2.026-2.291l-3.861 1e-3c-1.148 0-2.081 1.038-2.081 2.315 0 1.286 0.933 2.332 2.081 2.332h3.868v2.639h-3.868c-2.603 0-4.72-2.227-4.72-4.971 0-2.728 2.117-4.954 4.72-4.954z" fill="#52a945"/>
   </g>
   <g transform="translate(229.42 187.15)">
    <path d="m0 0v1.355h0.482v0.267h-1.297v-0.267h0.482v-1.355z" fill="#52a945"/>
   </g>
   <g transform="translate(232.85 188.5)">
    <path d="m0 0v0.267h-1.05v-1.622h1.08v0.267h-0.746v0.421h0.655v0.273h-0.655v0.394z" fill="#52a945"/>
   </g>
   <g transform="translate(231.49 187.15)">
    <path d="m0 0v1.622h-0.332v-0.661h-0.69v0.661h-0.332v-1.621h0.332v0.687h0.69v-0.688z" fill="#52a945"/>
   </g>
  </g>
 </g>
 <g transform="matrix(1.2504 0 0 1.2504 -642.66 11.234)" fill="#51a844">
  <path d="m1034.9 167.55h23.844v20.991h-30.772s-9.1601-0.19329-16.711-7.7441c-7.5801-7.5801-7.3365-19.36-7.3365-19.36v-49.114h22.825v51.355s0.9582 2.5036 2.2417 3.1588c1.5318 0.78201 5.91 0.71326 5.91 0.71326z"/>
  <path d="m1122.6 111.77h23.056v76.374h-23.056z" fill-rule="evenodd"/>
  <path d="m1040.6 111.78 31.602 76.375h20.924l32.826-76.375h-25.938l-17.062 44.375-17.062-44.375z" fill-rule="evenodd"/>
 </g>
</svg>
