<svg width="800" height="791.31" enable-background="new 99.969 101.656 300 296.739" version="1.1" viewBox="99.969 101.66 800 791.31" xmlns="http://www.w3.org/2000/svg">
 <path d="m881.11 160.3-354.24 32.483c-1.7493-5.0214-3.8854-9.9014-6.3894-14.592-6.7707-11.979-16.661-21.899-28.621-28.704-8.8347-4.7094-18.587-7.4507-28.581-8.04-21.075-2.0133-42.336-0.17333-62.752 5.4267-12.12 3.4907-23.469 9.2454-33.445 16.965 0 0-11.899-18.051-61.427-10.011 1.8107-26.531 4.2614-48.883-17.568-51.656-7.368-0.67733-14.781-0.67733-22.149 0-21.787 1.2853-24.603 2.7734-24.603 2.7734-34.248 4.904-33.365 35.256-33.365 35.256s-5.9894-9.2854-24.12-8.7227l-36.179 3.2187s-35.739 4.0187-37.224 32.643c-0.56267 5.8294-11.176 95.032-10.411 121.32 0 0-4.0213 54.27 52.259 59.856 0 0 1.8507 0.48267 5.184 1.0053l-23.397 296.31c-18.331 267.29 195.53 251.21 266.57 244.13 23.597-2.6533 360.47-45.707 360.47-45.707l108.54 24.12c2.208 0.93334 4.7547-0.10133 5.688-2.312 0.488-1.1573 0.45333-2.4693-0.10134-3.5974l-21.707-112.96 46.23-566.82c1.8507-17.488-9.3227-22.795-18.653-22.392z" fill="#b40014" stroke-width="2.6667"/>
 <g transform="matrix(2.6667 0 0 2.6667 -1947.9 -522.41)">
  <path d="m865.63 286.32c2.668-22.326 23.743-23.848 23.743-23.848 2.536-0.406 5.093-0.663 7.658-0.769 0 0 6.784-0.618 11.382 2.201 8.638 5.291 6.647 16.024 6.647 16.024s-0.226 6.437-6.03 6.814l-28.009 2.744c0 4.975 5.473 5.17 5.473 5.17 3.105 0.588 11.2-1.04 11.2-1.04 1.648-0.292 3.598-0.729 5.849-1.312 1.286-0.328 2.59-0.584 3.904-0.769 1.071-0.28 2.21 0.01 3.015 0.769 1.333 1.635 2.109 3.652 2.216 5.759-0.372 1.732-1.722 3.087-3.452 3.467-6.683 2.095-13.571 3.47-20.547 4.1-5.744 0.377-8.593 0.256-11.442-0.542-0.015-0.014-13.522-2.758-11.607-18.768zm-46.582-35.862c0.663-2.126 3.663-2.397 3.663-2.397 2.829-0.492 5.691-0.759 8.563-0.799 3.015-0.166 2.713 1.809 2.713 1.809 0.016 0.96-0.019 1.921-0.105 2.879l-1.296 16.583c3.528-0.905 7.122-1.536 10.748-1.884 7.538-0.935 13.025-0.377 16.266 1.296s4.658 4.839 4.236 9.437l-2.004 21.437 2.276-0.211c1.59 6e-3 2.874 1.301 2.867 2.891 0 0.042-1e-3 0.083-3e-3 0.124 0 2.759-0.633 3.437-0.979 3.89 0 0-1.282 2.352-12.06 3.015-1.547 0.146-3.106-0.114-4.522-0.754-2.176-0.933-3.464-3.201-3.151-5.547l1.975-21.391c0.293-1.084-0.226-2.224-1.236-2.713-1.38-0.472-2.852-0.611-4.296-0.407-9.979 0.573-11.246 1.688-11.246 1.688l-2.412 26.064c-0.09 0.869-0.241 1.73-0.453 2.578-0.309 1.321-1.366 2.337-2.698 2.593-3.219 0.584-6.482 0.901-9.753 0.95-1.246 0.081-2.338-0.826-2.487-2.065-0.089-0.873-0.089-1.751 0-2.623l4.824-53.531c0.081-0.991 0.273-1.967 0.57-2.912zm-35.803 58.625c-1.22-1.671-1.904-3.674-1.959-5.743-0.108-2.465-0.028-4.935 0.241-7.387l2.729-30.723c0.05-1.016 0.192-2.025 0.422-3.015 0.341-1.386 1.587-2.358 3.015-2.352l8.819-0.829c3.015-0.271 2.879 1.793 2.879 1.793s0.287 0.98-0.738 10.553l10.266-0.965c1.508-0.136 2.593-0.166 3.438-0.241 2.578-0.211 2.231 1.598 2.231 1.598-0.04 1.915-0.257 3.823-0.648 5.698-0.228 1.537-1.358 2.786-2.864 3.166-1.239 0.367-2.512 0.61-3.799 0.724l-9.648 0.904-1.327 16.462c-0.121 1.047 0.101 2.105 0.633 3.015 0.625 0.772 1.611 1.156 2.593 1.01 1.321-0.042 2.64-0.153 3.949-0.332l2.171-0.256c1.29-0.377 2.676-0.23 3.859 0.407 0.918 0.982 1.626 2.142 2.08 3.407 0.244 0.63 0.406 1.288 0.482 1.959 0 0 0.302 2.412-1.281 3.256-3.259 1.537-6.8 2.389-10.401 2.502-3.37 0.301-6.764 0.129-10.085-0.513-2.788-0.421-5.31-1.887-7.057-4.098zm222.51 139.7 7.1 29.23c0.271 1.115 0 1.778-1.417 1.507l-29.879-6.663-83.666 10.854c-21.466 2.111-75.284 10.161-69.601-55.642l8.698-105.95c0.115-1.634 1.386-2.949 3.015-3.121l66.33-6.03c1.859-0.142 3.482 1.25 3.624 3.11 0.015 0.194 0.013 0.39-6e-3 0.583l-7.854 95.801c-1.01 13.1 8.171 11.622 12.392 11.261l20.065-2.623c0.683-0.024 1.216-0.598 1.19-1.279v-2e-3l8.88-107.5c0.115-1.634 1.386-2.949 3.015-3.12l66.254-6.03c1.86-0.142 3.482 1.25 3.624 3.11 0.016 0.194 0.013 0.389-0.01 0.583z" fill="#fff"/>
  <path d="m865.63 286.32c2.668-22.326 23.743-23.848 23.743-23.848 2.536-0.406 5.093-0.663 7.658-0.769 0 0 6.784-0.618 11.382 2.201 8.638 5.291 6.647 16.024 6.647 16.024s-0.226 6.437-6.03 6.814l-28.009 2.744c0 4.975 5.473 5.17 5.473 5.17 3.105 0.588 11.2-1.04 11.2-1.04 1.648-0.292 3.598-0.729 5.849-1.312 1.286-0.328 2.59-0.584 3.904-0.769 1.071-0.28 2.21 0.01 3.015 0.769 1.333 1.635 2.109 3.652 2.216 5.759-0.372 1.732-1.722 3.087-3.452 3.467-6.683 2.095-13.571 3.47-20.547 4.1-5.744 0.377-8.593 0.256-11.442-0.542-0.015-0.014-13.522-2.758-11.607-18.768zm-46.582-35.862c0.663-2.126 3.663-2.397 3.663-2.397 2.829-0.492 5.691-0.759 8.563-0.799 3.015-0.166 2.713 1.809 2.713 1.809 0.016 0.96-0.019 1.921-0.105 2.879l-1.296 16.583c3.528-0.905 7.122-1.536 10.748-1.884 7.538-0.935 13.025-0.377 16.266 1.296s4.658 4.839 4.236 9.437l-2.004 21.437 2.276-0.211c1.59 6e-3 2.874 1.301 2.867 2.891 0 0.042-1e-3 0.083 0 0.124 0 2.759-0.633 3.437-0.979 3.89 0 0-1.282 2.352-12.06 3.015-1.547 0.146-3.106-0.114-4.522-0.754-2.176-0.933-3.464-3.201-3.151-5.547l1.975-21.391c0.293-1.084-0.226-2.224-1.236-2.713-1.38-0.472-2.852-0.611-4.296-0.407-9.979 0.573-11.246 1.688-11.246 1.688l-2.412 26.064c-0.09 0.869-0.241 1.73-0.453 2.578-0.309 1.321-1.366 2.337-2.698 2.593-3.219 0.584-6.482 0.901-9.753 0.95-1.246 0.081-2.338-0.826-2.487-2.065-0.089-0.873-0.089-1.751 0-2.623l4.824-53.531c0.081-0.991 0.273-1.967 0.57-2.912zm-35.803 58.625c-1.22-1.671-1.904-3.674-1.959-5.743-0.108-2.465-0.028-4.935 0.241-7.387l2.729-30.723c0.05-1.016 0.192-2.025 0.422-3.015 0.341-1.386 1.587-2.358 3.015-2.352l8.819-0.829c3.015-0.271 2.879 1.793 2.879 1.793s0.287 0.98-0.738 10.553l10.266-0.965c1.508-0.136 2.593-0.166 3.438-0.241 2.578-0.211 2.231 1.598 2.231 1.598-0.04 1.915-0.257 3.823-0.648 5.698-0.228 1.537-1.358 2.786-2.864 3.166-1.239 0.367-2.512 0.61-3.799 0.724l-9.648 0.904-1.327 16.462c-0.121 1.047 0.101 2.105 0.633 3.015 0.625 0.772 1.611 1.156 2.593 1.01 1.321-0.042 2.64-0.153 3.949-0.332l2.171-0.256c1.29-0.377 2.676-0.23 3.859 0.407 0.918 0.982 1.626 2.142 2.08 3.407 0.244 0.63 0.406 1.288 0.482 1.959 0 0 0.302 2.412-1.281 3.256-3.259 1.537-6.8 2.389-10.401 2.502-3.37 0.301-6.764 0.129-10.085-0.513-2.788-0.421-5.31-1.887-7.057-4.098zm222.51 139.7 7.1 29.23c0.271 1.115 0 1.778-1.417 1.507l-29.879-6.663-83.666 10.854c-21.466 2.111-75.284 10.161-69.601-55.642l8.698-105.95c0.115-1.634 1.386-2.949 3.015-3.121l66.33-6.03c1.859-0.142 3.482 1.25 3.624 3.11 0.015 0.194 0.013 0.39-0.01 0.583l-7.854 95.801c-1.01 13.1 8.171 11.622 12.392 11.261l20.065-2.623c0.683-0.024 1.216-0.598 1.19-1.279v-2e-3l8.88-107.5c0.115-1.634 1.386-2.949 3.015-3.12l66.254-6.03c1.86-0.142 3.482 1.25 3.624 3.11 0.016 0.194 0.013 0.389-0.01 0.583z" fill="#fff"/>
  <path d="m899.46 272.61s-1.854-1.342-6.557-0.844c-2.354 0.163-4.636 0.875-6.663 2.08-2.033 1.448-3.461 3.595-4.01 6.03l20.125-1.884c-0.322-2.774-1.286-4.569-2.895-5.382z" fill="#b40014"/>
 </g>
</svg>
