<svg width="800" height="576.53" data-name="Layer 1" version="1.1" viewBox="0 0 800 576.53" xmlns="http://www.w3.org/2000/svg">
 <defs>
  <linearGradient id="linear-gradient" x1="77.05" x2="77.05" y1="28.73" y2="86.67" gradientTransform="matrix(6.7803 0 0 -6.7803 -125.5 587.65)" gradientUnits="userSpaceOnUse">
   <stop stop-color="#015a73" offset="0"/>
   <stop stop-color="#058ecb" offset="1"/>
  </linearGradient>
  <linearGradient id="linear-gradient-2" x1="82.46" x2="167.33" y1="-5.76" y2="-5.76" gradientTransform="matrix(6.7803 0 0 -6.7803 -449.94 157.37)" gradientUnits="userSpaceOnUse">
   <stop stop-color="#058ecb" stop-opacity="0" offset="0"/>
   <stop stop-color="#199dd2" stop-opacity=".26" offset=".16"/>
   <stop stop-color="#2baad8" stop-opacity=".49" offset=".32"/>
   <stop stop-color="#39b4dd" stop-opacity=".67" offset=".47"/>
   <stop stop-color="#45bce1" stop-opacity=".81" offset=".62"/>
   <stop stop-color="#4dc2e4" stop-opacity=".92" offset=".76"/>
   <stop stop-color="#51c6e5" stop-opacity=".98" offset=".89"/>
   <stop stop-color="#53c7e6" offset="1"/>
  </linearGradient>
 </defs>
 <g stroke-width="6.7803">
  <rect class="cls-1" x="77.77" width="638.3" height="392.85" rx="22.307" ry="22.307" fill="url(#linear-gradient)"/>
  <path class="cls-2" d="m677.22 31.461h-560.59a8.3398 8.3398 0 0 0-7.4583 8.3398v314.2a7.4583 7.4583 0 0 0 7.4583 7.4583h560.59a7.4583 7.4583 0 0 0 7.4583-7.4583v-314.2a8.3398 8.3398 0 0 0-7.4583-8.3398" fill="url(#linear-gradient-2)"/>
  <path class="cls-3" d="m216.49 332.84v-266.67h93.568l11.933 28.748a95.602 95.602 0 0 1 33.901-26.308 100.35 100.35 0 0 1 42.309-8.6788 80.821 80.821 0 0 1 75.261 43.123 105.23 105.23 0 0 1 36.817-32.274 103.2 103.2 0 0 1 47.462-10.781q43.123 0 69.091 25.63a88.618 88.618 0 0 1 25.969 65.904v181.37h-110.18v-170.19a26.308 26.308 0 1 0-52.615 0v170.12h-110.52v-170.12a26.308 26.308 0 1 0-52.615 0v170.12z" fill="#fff"/>
  <path class="cls-3" d="m115.94 291.01h19.866v-9.967h19.324v9.8992h48.072v26.375h-48.004v9.8992h-19.324v-9.8992h-19.866v-26.308zm-6.7803-16.273h94.178v-25.765h-40.072a8.611 8.611 0 0 1-1.8307-0.40682l-1.4917-0.61023a5.8989 5.8989 0 0 1-1.4917-0.81363l-1.2882-1.1526a9.1534 9.1534 0 0 1-1.1526-1.3561 7.9329 7.9329 0 0 1-0.94924-4.5428 10.103 10.103 0 0 1 1.2882-4.7462l1.017-1.2882 1.0848-1.0848a5.0852 5.0852 0 0 1 1.3561-0.81364l1.4239-0.54242 1.7629-0.33901h40.139v-26.85h-39.393q-18.781-0.61022-26.579 9.8992a23.867 23.867 0 0 0-4.2716 11.052 24.612 24.612 0 0 0 0.74584 11.391l0.74583 2.2375a14.917 14.917 0 0 0 0.88144 2.0341l0.81363 1.6273 0.94924 1.6273 0.88144 1.356 2.3053 3.2545h-30.986v25.833zm60.412-149.17a36.614 36.614 0 1 0 12.611 2.3053v22.985a10.442 10.442 0 0 0 1.6273 1.5595 15.527 15.527 0 0 1 1.6273 2.0341 12.679 12.679 0 0 1 1.8307 4.475 12.001 12.001 0 0 1-8.95 14.374h-2.1697v-47.462a25.155 25.155 0 0 0-6.5091-0.47462zm-9.8992 48.072a13.018 13.018 0 0 1-9.628-10.916 12.205 12.205 0 0 1 9.628-12.95v23.663z" fill="#fff"/>
 </g>
 <path class="cls-3" d="m192.22 536.66h11.594l5.492 24.816 5.2886-24.816h11.73l5.2886 24.816 5.4242-24.816h11.594l-10.103 39.665h-13.018l-5.2208-23.934-4.8818 23.934h-13.086z" stroke-width="6.7803"/>
 <path class="cls-3" d="m344.24 536.66 4.8818 20.815 4.9496-20.883h17.358v39.733h-10.848v-26.443l-6.7803 26.647h-9.0178l-6.7803-27.121v27.121h-10.848v-39.868h17.154z" stroke-width="6.7803"/>
 <path class="cls-3" d="m451.84 536.66h11.459v29.562h15.459v10.103h-27.121z" stroke-width="6.7803"/>
 <path class="cls-3" d="m551.24 536.66h11.526l5.492 24.816 5.2886-24.816h11.73l5.2886 24.816 5.4242-24.816h11.594l-9.967 39.665h-13.018l-4.9496-23.934-5.2208 23.934h-13.086z" stroke-width="6.7803"/>
 <path class="cls-3" d="m17.764 490.28v-4.136a11.798 11.798 0 0 1 0-1.4917v-1.2883a4.5428 4.5428 0 0 1 0.33901-1.356l0.54242-1.1526a3.7292 3.7292 0 0 1 0.74583-1.0848l0.94924-0.81364a4.9496 4.9496 0 0 1 5.6954 0 5.6954 5.6954 0 0 1 1.2883 1.0848 4.9496 4.9496 0 0 1 0.81364 1.1526 8.7466 8.7466 0 0 1 0.54242 1.4917l0.33902 1.4239a9.3568 9.3568 0 0 1 0 1.5595v27.121h17.968v-27.121a11.526 11.526 0 0 1 0.74583-3.1189 5.4242 5.4242 0 0 1 2.1019-2.7799 6.2379 6.2379 0 0 1 3.3223-0.81364 6.3735 6.3735 0 0 1 2.8477 0.74584 4.6784 4.6784 0 0 1 1.9663 2.7121 12.069 12.069 0 0 1 0.61023 3.1867v27.121h18.239v-31.325q0-1.4917 0-3.797a13.086 13.086 0 0 0-0.94924-3.6614 21.494 21.494 0 0 0-1.7629-3.0511 11.526 11.526 0 0 0-2.9155-2.9833 23.189 23.189 0 0 0-4.2716-2.3053 16.544 16.544 0 0 0-10.916-1.0848 23.189 23.189 0 0 0-11.459 6.3057 22.714 22.714 0 0 0-4.5428-4.3394 14.917 14.917 0 0 0-4.6106-2.0341 18.781 18.781 0 0 0-18.375 5.6954v-4.0682h-17.019v46.987h17.764z" stroke-width="6.7803"/>
 <path class="cls-3" d="m88.822 506.49a22.307 22.307 0 0 0 8.6788 5.831 27.121 27.121 0 0 0 9.8314 1.9663 57.293 57.293 0 0 0 9.0856-0.81363 21.426 21.426 0 0 0 17.086-15.73h-17.629a9.289 9.289 0 0 1-9.8992 3.3224 7.1871 7.1871 0 0 1-4.3394-2.7121 8.1363 8.1363 0 0 1-1.6951-4.814h34.24a36.614 36.614 0 0 0-1.3561-12.205 23.053 23.053 0 0 0-6.1701-10.916 22.578 22.578 0 0 0-8.611-4.9496 29.155 29.155 0 0 0-9.6958-1.7629 48.411 48.411 0 0 0-8.1364 0.74583 22.85 22.85 0 0 0-17.358 16.273 27.121 27.121 0 0 0 0 13.561 25.63 25.63 0 0 0 5.9667 12.205zm17.832-31.054a8.4754 8.4754 0 0 1 7.7973 2.5087 8.0685 8.0685 0 0 1 2.0341 4.0004h-16.544a9.0178 9.0178 0 0 1 6.7803-6.7803z" stroke-width="6.7803"/>
 <path class="cls-3" d="m144.83 507.71a20.883 20.883 0 0 0 9.8992 5.7632 19.527 19.527 0 0 0 19.866-4.9496v4.4072h18.171v-47.123h-17.832v3.797a28.003 28.003 0 0 0-5.7632-4.0004 22.917 22.917 0 0 0-6.3057-1.6951 22.036 22.036 0 0 0-9.8992 0.81363 18.375 18.375 0 0 0-8.7466 5.8989 22.85 22.85 0 0 0-4.6106 8.6788 29.765 29.765 0 0 0-1.3561 9.628 45.699 45.699 0 0 0 0.67803 8.2042 26.714 26.714 0 0 0 5.8989 10.577zm12.815-24.68a9.4246 9.4246 0 0 1 4.6106-4.3394 7.7295 7.7295 0 0 1 4.3394-0.67803 9.1534 9.1534 0 0 1 4.3394 1.4917 9.8992 9.8992 0 0 1 4.4072 9.5602 13.561 13.561 0 0 1-1.3561 5.3564 9.289 9.289 0 0 1-3.8648 4.2038 8.4754 8.4754 0 0 1-8.4754 0 10.916 10.916 0 0 1-5.3564-9.5602 11.594 11.594 0 0 1 1.3561-6.0345z" stroke-width="6.7803"/>
 <path class="cls-3" d="m216.02 491.57v-5.6276a7.6617 7.6617 0 0 1 0.33901-2.1019l0.61023-1.6951a4.9496 4.9496 0 0 1 1.017-1.6951 6.7803 6.7803 0 0 1 1.4917-1.1526 5.7632 5.7632 0 0 1 6.1701 0 5.2886 5.2886 0 0 1 2.5087 3.0511 15.391 15.391 0 0 1 0.94924 4.2038q0 1.9663 0 5.4242v20.748h17.561v-31.325q0-1.017 0-3.1867a17.154 17.154 0 0 0-0.61022-3.3901q-0.33902-1.1526-1.017-2.8477a8.7466 8.7466 0 0 0-1.6951-2.8477 24.612 24.612 0 0 0-2.5087-2.3731 16.747 16.747 0 0 0-3.5258-2.1697 16.273 16.273 0 0 0-10.509-0.94924 23.189 23.189 0 0 0-10.781 5.6276v-3.8648h-17.425v46.987h17.358v-20.815z" stroke-width="6.7803"/>
 <path class="cls-3" d="m272.09 503.17a4.9496 4.9496 0 0 1-2.9833-1.3561 8.8822 8.8822 0 0 1-1.5595-3.3224h-16.951a16.205 16.205 0 0 0 3.1867 8.4754 17.154 17.154 0 0 0 9.8992 6.1701 41.495 41.495 0 0 0 12.001 1.1526 20.341 20.341 0 0 0 17.561-8.6788 15.595 15.595 0 0 0 2.5087-7.1871 13.561 13.561 0 0 0-1.017-6.7803 14.917 14.917 0 0 0-2.9155-4.475 12.544 12.544 0 0 0-4.3394-2.8477 30.308 30.308 0 0 0-4.0004-1.3561l-4.5428-0.94924-3.0511-0.61023h-3.3223l-1.2204-0.40682a3.5258 3.5258 0 0 1-1.1526-0.74583 3.1189 3.1189 0 0 1-0.74584-1.1526 2.9833 2.9833 0 0 1 0.61023-3.1867 4.3394 4.3394 0 0 1 4.9496-0.94924 3.9326 3.9326 0 0 1 2.5087 1.4917 8.3398 8.3398 0 0 1 1.017 3.1867h16.341a13.967 13.967 0 0 0-3.1189-8.6788 16.747 16.747 0 0 0-9.8992-5.5598 40.682 40.682 0 0 0-12.205-0.74583 19.595 19.595 0 0 0-16.408 8.6788 14.171 14.171 0 0 0-2.1019 7.5939 13.561 13.561 0 0 0 1.4917 6.7803 14.51 14.51 0 0 0 6.3057 5.9667 38.512 38.512 0 0 0 10.374 2.8477h4.9496l1.2883 0.33901 0.94924 0.40682a2.2375 2.2375 0 0 1 0.81363 0.61023l0.54243 0.88144a2.9833 2.9833 0 0 1-0.47462 2.9833 4.9496 4.9496 0 0 1-5.2886 1.4239z" stroke-width="6.7803"/>
 <path class="cls-3" d="m334.81 490.28v-4.136a11.798 11.798 0 0 1 0-1.4917v-1.2883a4.5428 4.5428 0 0 1 0.33902-1.356l0.54242-1.1526a3.7292 3.7292 0 0 1 0.74583-1.0848l0.94925-0.81364a4.9496 4.9496 0 0 1 5.6954 0 5.6954 5.6954 0 0 1 1.1526 0.94925 4.9496 4.9496 0 0 1 0.81363 1.1526 8.7466 8.7466 0 0 1 0.54243 1.4917l0.33901 1.4239a9.3568 9.3568 0 0 1 0 1.5595v27.121h18.036v-27.121a11.526 11.526 0 0 1 0.74583-3.1189 5.4242 5.4242 0 0 1 2.1019-2.7799 6.2379 6.2379 0 0 1 3.3223-0.81363 6.3735 6.3735 0 0 1 2.8477 0.74583 4.6784 4.6784 0 0 1 1.9663 2.7121 12.069 12.069 0 0 1 0.61023 3.1867v27.121h18.239v-31.189a28.342 28.342 0 0 0 0-3.797 13.086 13.086 0 0 0-0.94924-3.6614 21.494 21.494 0 0 0-1.7629-3.0511 11.526 11.526 0 0 0-2.7121-2.9155 23.189 23.189 0 0 0-4.2716-2.3053 16.544 16.544 0 0 0-10.916-1.0848 23.189 23.189 0 0 0-11.391 6.3057 22.714 22.714 0 0 0-4.5428-4.3394 14.917 14.917 0 0 0-4.6106-2.0341 18.781 18.781 0 0 0-18.375 5.6954v-4.0682h-17.358v46.987h17.832z" stroke-width="6.7803"/>
 <rect class="cls-3" x="401.94" y="447.23" width="18.036" height="15.323" stroke-width="6.7803"/>
 <rect class="cls-3" x="401.94" y="465.81" width="18.036" height="46.987" stroke-width="6.7803"/>
 <rect class="cls-3" x="427.16" y="447.23" width="17.764" height="65.565" stroke-width="6.7803"/>
 <polygon class="cls-3" transform="matrix(6.7803 0 0 6.7803 -125.5 9.4629e-6)" points="94.14 75.62 96.23 68.7 93.67 68.7 92.69 72.56 91.63 68.7 89.33 68.7 88.32 72.59 87.31 68.7 84.77 68.7 86.84 75.62 89.49 75.62 90.47 71.72 91.5 75.62"/>
 <path class="cls-3" d="m533.74 507.71a20.883 20.883 0 0 0 9.8992 5.7632 19.527 19.527 0 0 0 19.866-5.0852v4.4072h18.171v-46.987h-17.832v3.797a28.003 28.003 0 0 0-5.7632-4.0004 22.985 22.985 0 0 0-6.3057-1.6951 22.036 22.036 0 0 0-9.8992 0.81363 18.375 18.375 0 0 0-8.7466 5.8989 22.85 22.85 0 0 0-4.6106 8.6788 29.765 29.765 0 0 0-1.3561 9.628 45.767 45.767 0 0 0 1.017 8.2042 26.714 26.714 0 0 0 5.5598 10.577zm12.815-24.68a9.4246 9.4246 0 0 1 4.6106-4.3394 7.7295 7.7295 0 0 1 4.3394-0.67803 9.1534 9.1534 0 0 1 4.3394 1.4917 9.8992 9.8992 0 0 1 4.4072 9.5602 13.561 13.561 0 0 1-1.3561 5.3564 9.289 9.289 0 0 1-3.8648 4.2038 8.4754 8.4754 0 0 1-8.4754 0 10.916 10.916 0 0 1-5.3564-9.5602 11.594 11.594 0 0 1 1.3561-6.0345z" stroke-width="6.7803"/>
 <path class="cls-3" d="m588.12 500.59a30.918 30.918 0 0 0 1.0848 4.5428 10.306 10.306 0 0 0 2.7799 4.6784 17.697 17.697 0 0 0 15.662 4.0004 25.426 25.426 0 0 0 10.916-5.153v4.0682h17.561v-46.92h-17.9v22.375q0 3.3223 0 4.9496a11.798 11.798 0 0 1-0.81364 3.3224 5.2886 5.2886 0 0 1-2.3053 2.7121 5.6276 5.6276 0 0 1-6.1701 0 4.9496 4.9496 0 0 1-1.1526-0.74583 5.6276 5.6276 0 0 1-0.81363-0.94924l-0.61023-0.94924a4.0682 4.0682 0 0 1-0.40682-1.2204v-1.1526a9.4246 9.4246 0 0 1 0-1.4239v-27.121h-17.629v27.799a11.187 11.187 0 0 0 0 1.1526q-0.40681 4.4072-0.20341 6.0344z" stroke-width="6.7803"/>
 <polygon class="cls-3" transform="matrix(6.7803 0 0 6.7803 -125.5 9.4629e-6)" points="118.33 71.8 120.63 68.7 117.57 68.7 115.93 71 115.93 65.96 113.32 65.96 113.32 75.62 115.93 75.62 115.93 72.8 117.69 75.62 120.79 75.62"/>
 <path class="cls-3" d="m697.42 506.49a22.307 22.307 0 0 0 8.6788 5.831 27.121 27.121 0 0 0 9.8314 1.9663 57.293 57.293 0 0 0 9.0856-0.81363 21.426 21.426 0 0 0 17.086-15.73h-17.629a9.289 9.289 0 0 1-9.8992 3.3224 7.1871 7.1871 0 0 1-4.3394-2.7121 8.1363 8.1363 0 0 1-1.6951-4.814h34.308a36.614 36.614 0 0 0-1.3561-12.205 23.053 23.053 0 0 0-6.1701-10.916 22.578 22.578 0 0 0-8.611-4.9496 29.155 29.155 0 0 0-9.6958-1.7629 48.411 48.411 0 0 0-8.1364 0.74583 22.85 22.85 0 0 0-17.358 16.273 27.121 27.121 0 0 0-0.33901 13.561 25.63 25.63 0 0 0 6.2379 12.205zm17.832-31.054a8.4754 8.4754 0 0 1 7.7973 2.5087 8.0685 8.0685 0 0 1 2.0341 4.0004h-16.612a9.0178 9.0178 0 0 1 6.7803-6.7803z" stroke-width="6.7803"/>
 <path class="cls-3" d="m754.51 506.49a22.307 22.307 0 0 0 8.6788 5.831 27.121 27.121 0 0 0 9.8314 1.9663 57.293 57.293 0 0 0 9.0856-0.81363 21.426 21.426 0 0 0 17.086-15.798h-17.629a9.289 9.289 0 0 1-9.8992 3.3223 7.1871 7.1871 0 0 1-4.3394-2.7121 8.1363 8.1363 0 0 1-1.6951-4.814h34.308a36.614 36.614 0 0 0-1.3561-12.205 23.053 23.053 0 0 0-6.1701-10.916 22.578 22.578 0 0 0-8.611-4.9496 29.155 29.155 0 0 0-9.6958-1.7629 48.411 48.411 0 0 0-8.1364 0.74583 22.85 22.85 0 0 0-17.358 16.273 27.121 27.121 0 0 0-0.33901 13.561 25.63 25.63 0 0 0 6.2379 12.272zm17.832-31.054a8.4754 8.4754 0 0 1 7.7973 2.5087 8.0685 8.0685 0 0 1 2.0341 4.0004h-16.476a9.0178 9.0178 0 0 1 6.7803-6.7803z" stroke-width="6.7803"/>
</svg>
