<svg width="1e3" height="639.04" version="1.1" xmlns="http://www.w3.org/2000/svg">
 <g transform="translate(200.04 -40.933)">
  <g transform="matrix(1.6053 0 0 1.6053 -219.3 25.522)">
   <path d="m461.9 152c-5.4-13.3-18.5-27.7-43.2-25.7-31.4 3.4-41.1 33-36.4 50.8-12.5-8.4-33.7-12-52.3 3.7-23.9 23.7-11.1 55.7 2 63.4-14.5-1.3-37.4 8.4-42.5 33.7-5.4 31.4 18.9 49.8 42.5 49.8h262c27.3 0 42.5-23.3 40.8-45.4-2.7-28.7-29.3-39.7-43.8-37.4 12.1-6.7 28.3-38.1 3.7-62.8-19.6-18.4-44.5-11.7-53.3-3.7 4.7-15.3-3-47.1-34.7-52.1-2.2-0.2-4.3-0.4-6.3-0.4-24.2 0-35.1 17.5-38.5 26.1" fill="#fff"/>
   <path d="m334.4 185.7c-13.8 12.4-18.9 40.4 6.1 56.8l99.5 67.4-48.2-109.1c-10.2-25.8-37.8-31.4-57.4-15.1" fill="#d2532a"/>
   <path d="m420.1 132.6c-16.2 0.3-40.5 19.3-29.6 48.4l49.9 116.2 17.4-122.2c4.1-30.4-19.2-44.4-37.7-42.4" fill="#af2630"/>
   <path d="m465.6 170.3h9.4s5 0 5.7 2.3c-3.7 3-13.8 3.4-12.5 19.4l15.9 105.1 49.5-116.5c10.1-26-11.1-47.7-30-48.4-0.9-0.1-1.8-0.1-2.7-0.1-16.8 0.1-36.2 12.2-35.3 38.2" fill="#4e3f92"/>
   <path d="m531.7 201.7-46.9 107.8 99.5-67.7c22.9-16.1 19.2-41.7 6.4-54.4-5.4-6-15.3-10.6-25.7-10.6-12.4 0-25.6 6.5-33.3 24.9" fill="#4273ae"/>
   <path d="m573.2 257.1-93.4 64.4h115c23.6 0 38.8-24 32-46.1-4.5-13.9-17.9-24.7-33.4-24.7-6.5 0-13.4 2-20.2 6.4" fill="#64a04f"/>
   <path d="m331.7 321.5h113.3l-93.4-64.4c-21.6-13.7-45.9-5.7-54.6 17-7.4 26.1 11.1 47.4 34.7 47.4" fill="#e8b230"/>
  </g>
  <g transform="matrix(1.6053 0 0 1.6053 -219.3 25.522)">
   <path d="m255.5 190.5v-180.9h-100.5l-141.8 181.9v77l152.8 0.2v52.9h89.7v-53.7h30.8l8.9-77.2-39.9-0.2zm-90.7-2h-49.8l49.8-68v68z" fill="#22428e"/>
  </g>
  <polyline transform="matrix(1.6053 0 0 1.6053 -219.3 25.522)" points="12 405.5 12 342 27.5 342 72.3 389.5 72.3 342 84.8 342 84.8 405.5 69.3 405.5 25.8 359.3 25.8 405.5" fill="#22428e"/>
  <polyline transform="matrix(1.6053 0 0 1.6053 -219.3 25.522)" points="93.8 342 158.3 342 158.3 353.5 106.3 353.5 106.3 366.5 142.5 366.5 142.3 378 106.3 378 106.3 394.3 160 394.3 160 405.5 93.8 405.5" fill="#22428e"/>
  <polygon transform="matrix(1.6053 0 0 1.6053 -219.3 25.522)" points="229.3 405.8 244.8 405.8 265.3 342.3 250.8 342.3 237 388 222.8 342.3 207.5 342.3 193.3 388 178.8 342.3 164.8 342.3 185.5 405.8 201.3 405.8 215 359.5" fill="#22428e"/>
  <g transform="matrix(1.6053 0 0 1.6053 -219.3 25.522)">
   <polygon points="326.3 380.5 290.8 342.3 308.3 342.3 332.8 369.8 357.8 342.3 374.3 342.3 339 381.8 339 405.8 326.3 405.8" fill="#22428e"/>
  </g>
  <path d="m484.63 581.44c-23.277-12.843-58.273-14.448-81.55 0-32.909 23.277-34.033 63.892 0 88.293 21.672 13.645 58.594 13.645 81.55 0 32.909-22.153 33.391-65.015 0-88.293zm-11.237 70.955c-16.535 10.916-40.936 11.237-60.199 0-18.461-16.535-16.856-37.725 0-51.852 12.522-12.522 44.949-12.843 60.199 0 20.066 13.324 17.659 37.404 0 51.852z" fill="#22428e"/>
  <g transform="matrix(1.6053 0 0 1.6053 -219.3 25.522)">
   <path d="m521.8 381.5c19.4-4.3 21-34-2.5-39.5h-54.8v63.8h13v-23.4l28.2 0.2 17 23.3h15.3l-16.2-24.4zm-5.1-11.8h-38.5v-15h38.5c8.3 2.8 8 13.6 0 15z" fill="#22428e"/>
  </g>
  <g transform="matrix(1.6053 0 0 1.6053 -219.3 25.522)">
   <polygon points="589.7 367 624.5 405.8 607.7 405.8 579 373.9 562.8 386.3 562.8 405.8 549 405.8 549 342 562.7 342 562.7 371.7 602.3 342 622.5 342" fill="#22428e"/>
  </g>
 </g>
</svg>
