<svg width="800" height="101.02" enable-background="new 0 0 1512 792" version="1.1" viewBox="0 0 800 101.02" xml:space="preserve" xmlns="http://www.w3.org/2000/svg">
<path d="m309.62 48.484h18.474c4.7168 0 8.3979-1.0544 11.05-3.1695 2.6392-2.1151 3.9619-5.0537 3.9619-8.8034v-0.287c0-7.9861-5.0537-11.979-15.155-11.979h-18.331zm-27.989 52.533v-101.02h47.773c14.631 0 25.587 3.6561 32.905 10.968 5.9646 5.9584 8.9407 13.807 8.9407 23.522v0.287c0 14.824-6.9192 25.162-20.77 31.027l24.089 35.214h-32.319l-20.352-30.597h-12.272v30.597z" fill="#b52624" stroke-width=".81884"/><path d="m443.83 24.532v76.486h-28.007v-76.486h-30.297v-24.532h88.614v24.532z" fill="#b52624" stroke-width="6.2391"/><path d="m574.87 0v23.815h-53.532v15.292h48.478v22.08h-48.478v16.022h54.243v23.809h-81.963v-101.02z" fill="#b52624" stroke-width="6.2391"/><path d="m680.51 0v23.815h-53.544v15.292h48.491v22.08h-48.491v16.022h54.255v23.809h-81.963v-101.02z" fill="#b52624" stroke-width="6.2391"/><path d="m772.29 0h27.714v101.02h-24.538l-43.144-55.416v55.416h-27.714v-101.02h26.117l41.565 53.394z" fill="#b52624" stroke-width="6.2391"/><path d="m58.298 24.532v76.486h-28.001v-76.486h-30.297v-24.532h88.614v24.532z" fill="#b52624" stroke-width="6.2391"/><path d="m134.85 0v37.815h35.937v-37.815h27.989v101.02h-27.989v-38.389h-35.937v38.389h-27.995v-101.02z" fill="#b52624" stroke-width="6.2391"/><path d="m226.09 0v101.02h28.138v-101.02z" fill="#b52624" stroke-width="6.2391"/>
</svg>
