<svg width="800" height="300.63" enable-background="new 0 0 288 414" version="1.1" viewBox="0 0 800 300.63" xml:space="preserve" xmlns="http://www.w3.org/2000/svg"><polygon transform="matrix(4.6954 0 0 4.6954 -86.744 -85.283)" points="94.068 81.296 94.068 74.365 98.14 74.365 98.14 43.897 94.068 43.897 94.068 37.156 107.62 37.156 107.62 74.365 112 74.365 112 81.296" fill="#d35b30"/><path d="m452.66 180.57v-31.666h63.609v114.99h20.904v32.544h-84.513v-32.544h19.416v-83.325zm39.414-94.975c13.448 0 24.778 11.058 24.778 24.491 0 13.443-11.33 24.191-24.778 24.191-13.443 0-24.191-10.452-24.191-24.191 0-13.744 10.748-24.491 24.191-24.491" fill="#d35b30" stroke-width="1.0088"/><path d="m549.47 263.89h19.115v-83.325h-19.115v-31.661h19.115v-16.129c0-29.562 20.599-47.184 53.425-47.184 25.064 0 39.7 10.457 46.56 29.267l-37.028 13.443c-2.3806-8.3626-5.6627-12.537-10.72-12.537-4.78 0-7.7522 4.7706-7.7522 13.725v19.416h23.257v31.661h-23.257v83.325h23.257v32.549h-86.856z" fill="#d35b30" stroke-width="1.0088"/><path d="m728.92 267.78c14.64 0 25.679-6.5689 32.563-19.716l34.638 11.053c-11.053 25.975-37.333 41.512-71.962 41.512-45.414 0-76.16-30.469-76.16-77.658 0-46.875 30.159-77.649 76.16-77.649 45.982 0 75.845 31.361 75.845 83.325v2.39h-106.32c1.1926 23.595 13.739 36.742 35.235 36.742m23.9-61.825c-1.1926-17.321-12.842-28.079-29.577-28.079-16.716 0-28.069 10.757-29.257 28.079z" fill="#d35b30" stroke-width="1.0088"/><polygon transform="matrix(4.6954 0 0 4.6954 -86.744 -85.283)" points="38.215 63.324 48.09 63.324 50.062 61.375 50.062 55.454 44.139 49.534 24.396 49.534 18.474 55.454 18.474 75.195 24.396 81.121 44.139 81.121 50.062 75.195 50.062 69.275 48.09 67.297 38.215 67.297 38.215 69.275 30.316 69.275 30.316 61.375 38.215 61.375" fill="#e0922f"/><polygon transform="matrix(4.6954 0 0 4.6954 -86.744 -85.283)" points="18.474 20.138 18.474 47.78 20.444 49.756 28.346 49.756 30.316 47.78 30.316 39.881 40.185 49.756 48.085 49.756 50.056 47.78 50.056 20.138 48.085 18.17 40.185 18.17 38.215 20.138 38.215 28.036 28.346 18.17 20.444 18.17" fill="#cf4339"/><polygon transform="matrix(4.6954 0 0 4.6954 -86.744 -85.283)" points="81.641 79.368 81.641 51.729 79.672 49.755 52.032 49.755 50.062 51.729 50.062 79.368 52.032 81.344 79.672 81.344" fill="#e8af4a"/><polygon transform="matrix(4.6954 0 0 4.6954 -86.744 -85.283)" points="65.854 28.039 61.902 24.087 61.902 20.139 59.931 18.163 52.032 18.163 50.056 20.139 50.056 31.983 59.931 41.856 59.931 47.78 61.902 49.755 69.801 49.755 71.773 47.78 71.773 41.856 81.644 31.983 81.644 20.139 79.672 18.163 71.773 18.163 69.801 20.139 69.801 24.087" fill="#d35b30"/><polygon transform="matrix(4.6954 0 0 4.6954 -86.744 -85.283)" points="56.869 63.245 56.038 62.411 56.038 61.58 56.869 60.747 60.426 60.747 64.815 60.747 65.644 61.58 65.644 62.411 64.815 63.245 62.089 63.245 62.089 70.725 61.257 71.556 60.426 71.556 59.596 70.725 59.596 63.245" fill="#fff"/><polygon transform="matrix(4.6954 0 0 4.6954 -86.744 -85.283)" points="75.25 61.58 74.418 60.747 73.591 60.747 72.758 61.58 72.758 66.57 70.862 68.762 70.032 68.762 68.138 66.57 68.138 61.58 67.306 60.747 66.475 60.747 65.644 61.58 65.644 67.402 69.2 71.556 71.694 71.556 75.25 67.402" fill="#fff"/></svg>
