<svg width="695" height="1e3" version="1.1" xmlns="http://www.w3.org/2000/svg">
 <defs>
  <radialGradient id="radialGradient4374" cx="39.948" cy="-238.71" r="61.809" gradientTransform="matrix(-.83411 .82349 -.85143 -.86379 -106.73 -186.53)" gradientUnits="userSpaceOnUse">
   <stop stop-color="#fff" stop-opacity="0" offset="0"/>
   <stop stop-color="#fff" stop-opacity="0" offset=".42496"/>
   <stop stop-color="#fff" stop-opacity=".3431" offset=".7453"/>
   <stop stop-color="#fff" offset="1"/>
  </radialGradient>
 </defs>
 <g transform="scale(5.56 5.5556)">
  <path d="m1 1h123v178h-123z" fill="#be1321"/>
  <path d="m1 55h123v98h-123z" fill="#1358a0"/>
  <path d="m6.25 54.031-5.1875 71.938 0.1875 27.969 22.844-99.906zm37.656 0-40.812 98.781 0.59375-0.0312 59.281-92.406 59.312 92.406 0.59375 0.0312-40.812-98.781zm57.719 0 22.844 99.906 0.1875-27.969-5.1875-71.938z" fill="url(#radialGradient4374)"/>
  <path d="m61.086 6c-11.063 0-20.029 8.7319-20.029 19.501 0 10.769 8.9663 19.499 20.029 19.499 11.058 0 20.027-8.7296 20.027-19.499 0-10.769-8.964-19.501-20.027-19.501zm-45.085 0.0623v38.774h11.462l-0.0305-12.535h11.255v-10.579h-11.162v-5.0587h13.702l-0.75663-10.602h-24.47zm59.709 0.06 11.342 18.666-12.011 19.99 12.316 0.0207 5.8707-9.7944 5.9444 9.7736h12.659l-12.233-20.117 11.118-18.539h-12.249l-5.0863 8.3481-4.9942-8.3481h-12.678zm-14.566 7.8983c1.8757 0 3.5178 1.6344 3.5178 3.4647l0.0488 16.016c0 1.8304-1.6898 3.2664-3.5708 3.2664-1.8757 0-3.3956-1.4872-3.3956-3.3125v-15.97c0-1.8304 1.5145-3.4647 3.3956-3.4647z" fill="#fff"/>
  <path d="m40.339 60.744h60.951l-3.4728 19.679h-39.212l-1.8254 7.3212c4.1812-1.716 14.278-1.7484 22.316 0.13388 4.2072 0.98523 7.1508 2.8709 9.8955 4.5546 2.7446 1.6837 10.708 10.086 12.01 19.244 2.0926 14.722-4.2561 27.309-15.048 33.28-8.12 4.4924-18.411 4.9859-27.926 3.9068-15.623-1.7719-27.791-11.47-30.82-26.624l20.113-2.6045s3.6912 9.5726 12.733 11.286c9.042 1.7137 13.535-0.45605 17.219-4.4856 3.6835-4.0295 5.0352-9.7016 2.4599-14.759s-7.099-9.11-17.074-8.537c-9.9749 0.57298-13.601 8.537-13.601 8.537h-21.415z" fill="#fff" stroke="#000" stroke-width="1.7993"/>
  <path d="m39.159 59.564h60.951l-3.4727 19.679h-39.212l-1.8254 7.3212c4.1812-1.716 14.278-1.7484 22.316 0.13388 4.2072 0.98523 7.1508 2.8709 9.8955 4.5546 2.7446 1.6837 10.708 10.086 12.01 19.244 2.0926 14.722-4.2561 27.309-15.048 33.28-8.12 4.4924-18.411 4.9859-27.926 3.9068-15.623-1.7719-27.791-11.47-30.82-26.624l20.113-2.6045s3.6912 9.5726 12.733 11.286c9.042 1.7137 13.535-0.45605 17.219-4.4856 3.6835-4.0295 5.0352-9.7016 2.4599-14.759s-7.099-9.11-17.074-8.537c-9.9749 0.57298-13.601 8.537-13.601 8.537h-21.415z" fill="#fff" stroke="#9ec8f4" stroke-width="1.7993"/>
  <path d="m0 53v102h125v-102zm2 3h121v96h-121z" fill="#0e4176"/>
  <path d="m0 0v54h125v-54zm2 2h121v50h-121z" fill="#94050f"/>
  <path d="m0 154v26h125v-26zm2 2h121v22h-121z" fill="#94050f"/>
  <g transform="scale(.9702 1.0307)" fill="#fff">
   <path d="m4.6972 157.94h2.3792l0.85762 4.5315 1.2505-4.5315h2.3737l1.256 4.5315 0.85762-4.5315h2.3681l-1.7872 8.1114h-2.4567l-1.422-5.107-1.4164 5.107h-2.4567l-1.8038-8.1114"/>
   <path d="m16.881 157.94h2.3405l3.0542 4.4873v-4.4873h2.3626v8.1114h-2.3626l-3.0376-4.4541v4.4541h-2.3571v-8.1114"/>
   <path d="m25.496 157.94h2.7831l1.6378 2.7388 1.6378-2.7388h2.7665l-3.1538 4.7141v3.3973h-2.512v-3.3973l-3.1593-4.7141"/>
   <path d="m34.288 157.94h2.3792l0.85762 4.5315 1.2505-4.5315h2.3737l1.256 4.5315 0.85762-4.5315h2.3681l-1.7872 8.1114h-2.4567l-1.422-5.107-1.4164 5.107h-2.4567l-1.8038-8.1114"/>
   <path d="m50.095 160.87h2.4069v2.2575h-2.4069v-2.2575"/>
   <path d="m57.825 157.94h2.3405l3.0542 4.4873v-4.4873h2.3626v8.1114h-2.3626l-3.0376-4.4541v4.4541h-2.3571v-8.1114"/>
   <path d="m67.253 157.94h6.7171v1.7318h-4.2051v1.2892h3.9008v1.6544h-3.9008v1.599h4.3268v1.837h-6.8388v-8.1114"/>
   <path d="m74.612 157.94h2.3792l0.85762 4.5315 1.2505-4.5315h2.3737l1.256 4.5315 0.85762-4.5315h2.3681l-1.7872 8.1114h-2.4567l-1.422-5.107-1.4164 5.107h-2.4567l-1.8038-8.1114"/>
   <path d="m89.745 157.94h2.7831l1.6378 2.7388 1.6378-2.7388h2.7665l-3.1538 4.7141v3.3973h-2.512v-3.3973l-3.1593-4.7141"/>
   <path d="m98.371 162c0-1.3242 0.36887-2.3552 1.1066-3.0929 0.73773-0.73773 1.765-1.1066 3.0819-1.1066 1.35 0 2.3902 0.36334 3.1206 1.09 0.73035 0.72298 1.0955 1.7374 1.0955 3.0432 0 0.94799-0.16046 1.7263-0.48137 2.3349-0.31723 0.60494-0.77831 1.0771-1.3832 1.4164-0.60126 0.33567-1.3519 0.50351-2.2519 0.50351-0.91479 0-1.6728-0.1457-2.2741-0.43711-0.59757-0.2914-1.0826-0.75249-1.4552-1.3832-0.37256-0.63076-0.55883-1.4201-0.55883-2.3681m2.5064 0.0111c0 0.81889 0.15123 1.4072 0.45371 1.765 0.30615 0.3578 0.72113 0.5367 1.2449 0.5367 0.53854 0 0.95536-0.17521 1.2505-0.52564 0.29509-0.35042 0.44264-0.97933 0.44264-1.8868 0-0.76355-0.15493-1.3205-0.46477-1.671-0.30616-0.3541-0.72298-0.53116-1.2505-0.53116-0.50535 0-0.9111 0.1789-1.2173 0.5367s-0.45924 0.94983-0.45924 1.7761"/>
   <path d="m108.17 166.05v-8.1114h4.1774c0.77461 1e-5 1.3666 0.0664 1.7761 0.19919 0.40944 0.1328 0.73957 0.37994 0.99041 0.74142 0.25082 0.35781 0.37624 0.79492 0.37625 1.3113-1e-5 0.45003-0.0959 0.83918-0.28772 1.1675-0.19182 0.3246-0.45556 0.58834-0.79122 0.79122-0.21395 0.1291-0.5072 0.23607-0.87975 0.32091 0.29878 0.0996 0.51641 0.19919 0.6529 0.29878 0.0922 0.0664 0.225 0.20842 0.39837 0.42604 0.17705 0.21764 0.29509 0.38547 0.35412 0.50351l1.2117 2.3515h-2.8329l-1.339-2.4788c-0.16968-0.32091-0.32092-0.52932-0.45371-0.62523-0.18075-0.12541-0.38547-0.18812-0.61416-0.18812h-0.22132v3.2921h-2.5175m2.5175-4.8248h1.0568c0.11435 1e-5 0.33567-0.0369 0.66396-0.11066 0.16599-0.0332 0.30062-0.11803 0.40391-0.25451 0.10697-0.13648 0.16045-0.29325 0.16046-0.47031-1e-5 -0.26189-0.083-0.46292-0.24899-0.6031-0.16599-0.14016-0.47768-0.21024-0.93507-0.21025h-1.1011v1.6488"/>
   <path d="m116.96 157.94h2.5064v3.0653l2.6282-3.0653h3.3309l-2.9546 3.0598 3.0874 5.0516h-3.0874l-1.7097-3.3364-1.2947 1.3556v1.9808h-2.5064v-8.1114"/>
  </g>
 </g>
</svg>
