<svg width="3167.1" height="1e3" version="1.1" xmlns="http://www.w3.org/2000/svg">
 <defs>
  <radialGradient id="radialGradient3041" cx="658.79" cy="18.116" r="38.379" gradientTransform="matrix(3.6953 4.9595 -4.1546 3.0984 -2226.3 -3266.9)" gradientUnits="userSpaceOnUse">
   <stop stop-color="#0069f8" offset="0"/>
   <stop stop-color="#002cb8" offset="1"/>
  </radialGradient>
  <radialGradient id="radialGradient3043" cx="876.95" cy="-1259.2" r="112.88" gradientTransform="matrix(-1.3462 -1.3462 1.3082 -1.3082 3163.3 -272.22)" gradientUnits="userSpaceOnUse">
   <stop stop-color="#0071ff" offset="0"/>
   <stop stop-color="#002cb8" offset="1"/>
  </radialGradient>
  <radialGradient id="radialGradient906" cx="-22.017" cy="166.5" r="283" gradientTransform="matrix(-1.7418 0 0 -1.8544 -13.089 380.24)" gradientUnits="userSpaceOnUse">
   <stop stop-color="#0068f7" offset="0"/>
   <stop stop-color="#004bd8" offset=".5"/>
   <stop stop-color="#002ebb" offset="1"/>
  </radialGradient>
  <linearGradient id="linearGradient925" x1="214.81" x2="214.81" y1="61.246" y2="220.08" gradientUnits="userSpaceOnUse">
   <stop stop-color="#0067f6" offset="0"/>
   <stop stop-color="#0030bb" offset="1"/>
  </linearGradient>
 </defs>
 <g transform="translate(473.61 728.72)">
  <g transform="matrix(3.8151 0 0 3.8151 1333.3 -763.69)">
   <g fill="url(#radialGradient906)">
    <path d="m-473.61 42.864h126.64c59.775 0 83.873 40.212 84.036 69.232 0 37.556-31.001 70.295-81.845 70.295l-68.325 0.49231v54.559h-60.508zm133.63 92.442c5.4263 4e-3 17.243-9.6856 17.243-23.337 0-11.717-9.6762-21.293-18.314-21.595l-5.1195-0.17857h-66.669l-0.26408 45.107h68.344z" stroke-width="3.4297"/>
    <path d="m-250.92 42.371h60.546v195.41h-60.546z" stroke-width="3.4297"/>
    <path d="m11.307 43.621h76.55l-91.952 92.863 96.484 100.96h-79.374l-58.713-62.361-61.022 62.361h-78.056l100.95-99.443-93.589-94.379h82.604l51.802 56.001z" stroke-width="3.2938"/>
   </g>
   <path d="m222.75 9.1682c-73.883 0-133.81 58.67-133.81 131.05 0 72.391 59.92 131.07 133.81 131.07 73.907 0 133.81-58.673 133.81-131.07-0.00345-72.378-59.899-131.05-133.81-131.05m0 232.04c-56.925 0-103.09-45.22-103.09-101 0-55.783 46.165-100.98 103.09-100.98 56.949 0 103.09 45.196 103.09 100.98 0 55.783-46.14 101-103.09 101" fill="url(#radialGradient3041)" stroke-width="3.4439"/>
   <g fill="url(#linearGradient925)" stroke-width="3.4439">
    <path d="m225.07 83.328c2.2418 1.0818 6.2861 3.8441 6.2861 7.1575v129.6h42.403v-160.4z"/>
    <path d="m166.1 83.328c2.2418 1.0818 6.2861 3.8441 6.2861 7.1575v129.6h42.424v-160.4z"/>
   </g>
   <path d="m240.44 239.73s83.804-13.174 83.804-100.15c0-52.039-40.345-98.995-97.48-98.995-63.738 0-88.478 39.375-96.548 55.053 0 0 23.196-80.812 121.72-80.812 42.848 0 104.61 53.396 104.61 124.78 0 111.56-116.11 100.13-116.11 100.13z" fill="url(#radialGradient3043)"/>
  </g>
 </g>
</svg>
