<svg width="800" height="466.44" version="1.1" xmlns="http://www.w3.org/2000/svg">
 <g transform="translate(359.52 -348.92)">
  <g transform="matrix(1.2744 0 0 1.2744 -245.42 -582.66)">
   <g transform="translate(-99.67 70.181)">
    <g transform="translate(10.145 660.79)">
     <rect transform="matrix(18.076 0 0 18.076 -13416 -11389)" x="754.73" y="630.09" width=".721" height="20.248" clip-path="url(#SVGID_2_)" fill="#fff"/>
     <rect transform="matrix(18.076 0 0 18.076 -13416 -11389)" x="742.22" y="640.01" width="25.552" height=".552" clip-path="url(#SVGID_2_)" fill="#fff"/>
     <path transform="matrix(18.076 0 0 18.076 -13416 -11389)" d="m746.39 630.09h8.496v10.013h-12.667v-6.258c0-2.074 1.867-3.755 4.171-3.755" clip-path="url(#SVGID_2_)" fill="#0a92ce"/>
     <path transform="matrix(18.076 0 0 18.076 -13416 -11389)" d="m746.39 650.34h8.496v-10.012h-12.667v6.257c0 2.074 1.867 3.755 4.171 3.755" clip-path="url(#SVGID_2_)" fill="#b1b3b6"/>
     <path transform="matrix(18.076 0 0 18.076 -13416 -11389)" d="m763.6 650.34h-8.466v-10.012h12.637v6.257c-1e-3 2.074-1.868 3.755-4.171 3.755" clip-path="url(#SVGID_2_)" fill="#93cff2"/>
     <path transform="matrix(18.076 0 0 18.076 -13416 -11389)" d="m763.6 630.09h-8.466v10.013h12.637v-6.258c-1e-3 -2.074-1.868-3.755-4.171-3.755" clip-path="url(#SVGID_2_)" fill="#636466"/>
     <path transform="matrix(18.076 0 0 18.076 -13416 -11389)" d="m748.19 635.01c0.207-0.405 0.475-0.715 0.805-0.93 0.33-0.216 0.696-0.323 1.099-0.323 0.762 0 1.348 0.24 1.757 0.719 0.411 0.48 0.616 1.167 0.616 2.063v3.57h-1.428v-3.011c0-0.694-0.098-1.188-0.293-1.482-0.196-0.295-0.518-0.441-0.965-0.441-0.474 0-0.813 0.169-1.019 0.507-0.204 0.337-0.307 0.925-0.307 1.763v2.665h-1.428v-2.756c0-4e-3 -2e-3 -0.034-5e-3 -0.09-4e-3 -0.057-7e-3 -0.112-7e-3 -0.165 0-0.697-0.099-1.193-0.297-1.485-0.197-0.292-0.523-0.438-0.979-0.438-0.452 0-0.781 0.174-0.987 0.521-0.205 0.348-0.308 0.931-0.308 1.749v2.665h-1.459v-6.226h1.414v0.708c0.219-0.291 0.468-0.503 0.747-0.636 0.278-0.133 0.608-0.198 0.989-0.198 0.472 0 0.878 0.104 1.222 0.314 0.345 0.207 0.622 0.521 0.833 0.937" clip-path="url(#SVGID_2_)" fill="#fff"/>
     <path transform="matrix(18.076 0 0 18.076 -13416 -11389)" d="m758.27 633.88-3.362 8.241h-1.505l0.867-2.19-2.248-6.051h1.529l1.521 4.347 1.669-4.347z" clip-path="url(#SVGID_2_)" fill="#fff"/>
    </g>
   </g>
  </g>
  <g transform="matrix(3.9396 0 0 3.9396 -1321.6 -771.4)" stroke-width="1px" aria-label="RDC">
   <path d="m333.11 364.1h13.88c2.8 0 4.08 0.48 4.08 3.04v0.96c0 2.08-0.88 3.04-3.28 3.04h-14.68zm-8.88 21.76h8.88v-7.52h13.96c2.76 0 3.64 1 3.64 4.04v3.48h8.88v-4.92c0-4.76-2.2-5.92-4.84-6.4v-0.08c4.08-0.96 4.96-3.24 4.96-7.12v-1.84c0-5.2-1.84-8.6-8.68-8.6h-26.8z"/>
   <path d="m366.03 385.86h26.8c8.88 0 12-2.92 12-10.08v-8.8c0-7.16-3.12-10.08-12-10.08h-26.8zm8.88-21.76h15.76c3.8 0 5.28 1.08 5.28 5.2v3.92c0 4.12-1.48 5.2-5.28 5.2h-15.76z"/>
   <path d="m409.53 375.7c0 8.48 4.76 10.48 12.76 10.48h14.32c8.92 0 10.68-3.84 10.68-8.72v-2.72h-8.88c0 3.6-1.2 4-5.2 4h-9.48c-4.2 0-5.08-1.6-5.08-5.8v-3.12c0-3.6 0.88-5.8 5.56-5.8h9.68c2.64 0 4.16 0.6 4.16 2.68v0.8h8.88c0.08-8.2-1.56-10.92-14.2-10.92h-10.44c-8 0-12.76 2-12.76 10.48z"/>
  </g>
 </g>
</svg>
