<svg width="800" height="188.69" space="preserve" version="1.1" viewBox="0 0 800 188.69" xmlns="http://www.w3.org/2000/svg">
 <link href="" rel="stylesheet" type="text/css"/>
 <style type="text/css"/>
 <path d="m557.06 36.555-22.808 87.404-29.039-87.404h-25.781l-28.771 87.404-22.816-87.404-67.993 0.03708v-36.592h-36.339v36.592h-53.705v-36.592h-36.331v36.592l-66.798-0.03708-22.801 87.404-29.045-87.404h-25.782l-28.771 87.404-22.801-87.404h-37.476l43.446 141.42h29.046l29.588-88.757 29.581 88.757h29.045l33.625-113.71h39.142v72.075c0 20.674 12.578 41.64 42.21 41.64h19.835v-30.741h-13.129c-8.6693 0-12.586-4.7508-12.586-13.129v-69.845h53.705v72.075c0 20.674 12.586 41.64 42.212 41.64h19.842v-30.741h-13.129c-8.6761 0-12.586-4.7508-12.586-13.129v-69.845h39.045l34.927 113.71h29.053l29.58-88.757 29.582 88.757h29.054l43.154-141.42h-37.186"/>
 <path d="m706.52 0.88451c51.858 0.22937 93.712 42.458 93.483 94.315-0.22937 51.859-42.456 93.714-94.314 93.485-51.859-0.22963-93.714-42.456-93.484-94.316 0.23074-51.857 42.458-93.713 94.315-93.484z"/>
 <path d="m688.43 43.369c-22.878-0.10167-41.763 15.792-41.868 39.482-0.0879 19.923 11.836 34.202 29.73 36.997l-0.12272 27.712 37.258 0.16498 0.11871-26.634 5.1706 0.0221c6.0377-0.56326 10.154-4.5415 10.241-10.14l0.0684-15.403 10.15 0.04627-22.863-52.124s-13.615-0.06096-27.883-0.12272zm44.149 0.19515 22.65 52.122-10.426-0.04627-0.0604 13.796c-9e-3 8.3679-3.5221 11.924-14.886 11.727l-0.1187 26.634 14.796 0.0664 0.11869-26.636 4.8889 0.0221c4.3305 0.1357 10.209-3.3551 10.317-10.19l0.0664-15.353 10.15 0.04627-22.561-52.122zm-23.694 25.803c5.3043 0.02349 9.588 4.3435 9.5646 9.6491-0.0247 5.3039-4.3428 9.5856-9.647 9.5626-5.3057-0.02362-9.588-4.3426-9.5646-9.6471 0.0234-5.3046 4.3428-9.5876 9.6471-9.5646z" fill="#fff"/>
</svg>
