<svg width="800" height="420.97" enable-background="new 0 0 612 792" space="preserve" version="1.1" viewBox="0 0 800 420.97" xmlns="http://www.w3.org/2000/svg">
 <link href="" rel="stylesheet" type="text/css"/>
 <style type="text/css"/>
 <g transform="translate(-3.5665e-5 152.6)" fill="#00aa13">
  <path d="m274.96 168c38.921-1.1318 74.217-17.774 100.59-44.128 23.967 27.04 58.929 44.128 97.709 44.128 38.973 0 74.053-17.258 98.038-44.521 23.979 27.257 59.088 44.521 98.044 44.521 71.913 0 130.66-58.748 130.66-130.63v-189.91h-85.271v189.91c0 27.831-22.29 50.649-50.121 50.649-27.878 0-50.661-22.818-50.661-50.649v-189.91h-85.295v189.91c0 27.831-22.806 50.649-50.661 50.649s-50.121-22.818-50.121-50.649v-189.91h-85.277v161.34c-0.60987 39.871-29.72 72.933-65.403 74l-124.74-0.01098c-37.085 0-67.215-33.573-67.215-74.804 0-41.542 30.13-75.32 67.215-75.32h124.93v-85.26h-124.93c-84.075 0-152.45 71.93-152.45 160.58 0 88.11 68.377 160.02 152.45 160.02z" stroke-width="1.5686"/>
  <polygon transform="matrix(5.8642 0 0 5.8642 -2718.5 -4184.1)" points="493.42 711.82 493.42 710.35 486.27 710.35 486.27 711.82 488.93 711.82 488.93 719.29 490.76 719.29 490.76 711.82"/>
  <polygon transform="matrix(5.8642 0 0 5.8642 -2718.5 -4184.1)" points="505.75 717.82 505.75 715.49 509.36 715.49 509.36 713.99 505.75 713.99 505.75 711.82 509.7 711.82 509.7 710.35 503.91 710.35 503.91 719.29 509.86 719.29 509.86 717.82"/>
  <polygon transform="matrix(5.8642 0 0 5.8642 -2718.5 -4184.1)" points="494.72 710.35 494.72 719.28 496.55 719.28 496.55 715.49 500.35 715.49 500.35 719.29 502.18 719.29 502.18 710.35 500.35 710.35 500.35 713.99 496.55 713.99 496.55 710.35"/>
 </g>
 <g transform="translate(-3.5665e-5 152.6)">
  <polygon transform="matrix(5.8642 0 0 5.8642 -2718.5 -4184.1)" points="476.01 758.97 478.69 758.97 478.69 746.99 481.4 746.99 481.4 744.48 473.33 744.48 473.33 746.99 476.01 746.99"/>
  <polygon transform="matrix(5.8642 0 0 5.8642 -2718.5 -4184.1)" points="491.6 744.48 489.64 744.48 487.16 754.6 487.12 754.6 484.61 744.48 481.86 744.48 486.1 758.97 488.21 758.97 490.6 749.39 490.64 749.39 492.99 758.97 495.13 758.97 499.34 744.48 496.6 744.48 494.07 754.6 494.03 754.6"/>
  <rect x="216.95" y="181.65" width="15.728" height="84.996" stroke-width="1.5686"/>
  <polygon transform="matrix(5.8642 0 0 5.8642 -2718.5 -4184.1)" points="507.73 748.43 507.76 748.43 513.81 758.97 516.81 758.97 516.81 744.48 514.13 744.48 514.13 755.02 514.09 755.02 508.1 744.48 505.04 744.48 505.04 758.97 507.73 758.97"/>
  <path d="m388.1 194.63c9.4179 0 16.654 4.2633 22.753 11.271h17.915c-8.1512-18.625-25.961-25.99-40.088-25.99-24.577 0-43.999 20.466-43.999 43.899 0 24.008 19.774 44.568 44.339 44.568 16.314 0 32.628-9.758 39.29-25.386h-18.285c-3.7824 4.0287-9.9867 10.679-21.352 10.679-15.042 0-28.26-13.675-28.26-29.644 0-16.989 13.91-29.397 27.685-29.397" stroke-width="1.5686"/>
  <rect x="432.91" y="181.65" width="15.734" height="84.996" stroke-width="1.5686"/>
  <polygon transform="matrix(5.8642 0 0 5.8642 -2718.5 -4184.1)" points="544.08 758.97 546.76 758.97 546.76 746.99 549.47 746.99 549.47 744.48 541.4 744.48 541.4 746.99 544.08 746.99"/>
  <rect x="511.01" y="181.65" width="15.757" height="84.996" stroke-width="1.5686"/>
  <polygon transform="matrix(5.8642 0 0 5.8642 -2718.5 -4184.1)" points="562.59 750.53 557.69 750.53 557.69 746.99 562.81 746.99 562.81 744.48 555.01 744.48 555.01 758.97 562.81 758.97 562.81 756.46 557.69 756.46 557.69 753.04 562.59 753.04"/>
  <path d="m620.39 215.07c-8.6321-2.8676-14.144-4.4685-14.144-11.822 0-5.0608 3.7941-8.6262 8.7259-8.6262 4.2633 0 8.8491 1.9586 9.5293 9.541h16.091c-0.79754-17.352-15.27-24.26-25.152-24.26-14.367 0-24.923 10.696-24.923 24.26 0 17.927 13.669 21.932 20.214 24.465 10.561 4.0228 16.191 5.6238 16.191 14.356 0 6.433-5.5065 10.679-11.711 10.679-4.8145 0-10.462-2.8617-11.265-11.371h-16.543c0.93241 18.724 16.783 26.078 27.697 26.078 13.318 0 27.573-8.7259 27.573-27.11 0-18.496-15.288-23.891-22.284-26.19" stroke-width="1.5686"/>
 </g>
</svg>
