<svg width="800" height="189.64" enable-background="new 0 0 2303.333 545.999" space="preserve" version="1.1" viewBox="0 0 800 189.64" xmlns="http://www.w3.org/2000/svg">
 <link href="" rel="stylesheet" type="text/css"/>
 <style type="text/css"/>
 <path d="m0 0 2.0839 153.05h41.216l35.427-82.894-3.4732 82.894h44.226l68.77-153.05h-45.152l-35.427 87.062 0.8103-87.062h-31.606l-37.742 84.746 3.9362-84.746z" fill="#045ea8" stroke-width=".34732"/>
 <path d="m382.98 0h-65.528l-34.038 153.05h42.026l11.925-49.899h20.848c30.556 0 60.425-8.9151 67.603-56.035 3.1367-20.589-12.966-47.12-42.836-47.12zm-17.797 66.454h-19.598l6.3675-30.564h17.827c9.8407 0 12.968 7.6411 12.505 13.661-0.75056 9.765-6.2515 16.903-17.103 16.903z" fill="#045ea8" stroke-width=".34732"/>
 <path d="m410.54 153.05h89.609l7.1778-37.048h-46.078l24.544-116.01h-42.142z" fill="#045ea8" stroke-width=".34732"/>
 <path d="m265.93 0s-15.807 72.207-20.26 94.471c-3.7049 18.524-10.999 24.312-24.544 24.312-13.893 0-18.216-10.976-14.703-28.48 3.6465-18.172 19.566-90.303 19.566-90.303h-29.061l-30.958 68.644c-3.9442 17.766-5.2776 25.753-5.2776 36.131 0 31.722 23.155 52.33 57.887 52.33s54.993-20.724 61.939-38.553c6.9464-17.829 28.133-118.55 28.133-118.55z" fill="#045ea8" stroke-width=".34732"/>
 <path d="m678.21 0h-127.7l-22.345 103.27s24.357 8.7452 32.648 11.809c7.1781-6.7151 14.819-10.188 26.86-10.188s22.46 6.9464 22.46 18.061c0 13.198-9.4934 21.65-26.628 21.65-13.893 0-24.544-7.9884-37.511-19.566-5.9368 4.6048-25.337 19.653-36.122 28.017 9.725 15.282 30.333 36.585 75.138 36.585 43.068 0 79.19-27.554 79.19-73.169 0-38.437-19.103-51.983-48.278-51.983-19.45 0-31.028 10.535-31.028 10.535l6.7151-32.648h75.716z" fill="#045ea8" stroke-width=".34732"/>
 <path d="m800 0h-68.538l-66.726 83.022c4.6482 8.549 7.6807 19.553 7.6807 30.204 0 13.43-2.9331 30.204-10.072 40.29h53.603l-7.1778 31.491h51.172l6.9465-31.954h17.25l9.146-44.92h-15.745zm-75.485 107.21h-30.101l42.605-54.645z" fill="#045ea8" stroke-width=".34732"/>
</svg>
