<svg width="800" height="193.93" space="preserve" version="1.1" viewBox="0 0 800 193.93" xmlns="http://www.w3.org/2000/svg">
 <link href="" rel="stylesheet" type="text/css"/>
 <style type="text/css"/>
 <g transform="matrix(4.1173 0 0 4.1173 -1607 -27619)" fill="#045ea8">
  <path class="st3" d="m426 6735.4c2-9.1 4-18.3 6-27.3h-17.7l-21 27-3 12.3h19.7l-1.7 7.7h13.3c0.6-2.7 1.2-5 1.7-7.7h9.9v-11.9h-7.2zm-13.3 0h-7.9c3.7-4.8 7.4-9.2 11.2-14-1.1 4.7-2.2 9.2-3.3 14z"/>
  <path class="st3" d="m434.3 6708c0.2 13 0.4 26.3 0.6 39.3h11.3c2.7-6.9 5.5-14.1 8.2-20.9-0.3 6.9-0.5 14-0.8 20.9h11.2c5.9-13 11.9-26.3 17.8-39.3h-12.3c-2.8 7.4-5.5 15-8.3 22.4 0.1-7.4 0.2-15.1 0.3-22.4h-8.6c-3.1 7.4-6.1 15-9.2 22.4 0.4-7.4 0.8-15 1.2-22.4h-11.4z"/>
  <path class="st3" d="m480.2 6717.4 4.3-9.3h7.2c-0.5 7.4-0.9 15-1.4 22.4 3.1-7.4 6.3-15 9.4-22.4h8.4c-0.1 7.3-0.2 14.8-0.3 22.2 2.9-7.3 5.7-14.8 8.6-22.2h11.9c-5.9 13-11.8 26.3-17.7 39.3h-11.3c0.3-6.9 0.6-14.1 0.9-21-2.7 6.9-5.5 14.1-8.2 21h-11.4c-0.2-10-0.3-20.1-0.4-30z"/>
  <path class="st3" d="m529.8 6708c-2.9 12.9-5.7 26.4-8.6 39.3h23.1c0.7-3.1 1.4-6.7 2.1-9.8h-11.9c2.1-9.8 4.3-19.7 6.4-29.5z"/>
  <path class="st3" d="m565.3 6708.2c-10.8-0.1-19.6 8.5-19.7 19.3s8.5 19.6 19.3 19.7 19.6-8.5 19.7-19.3v-0.2c0-10.7-8.6-19.5-19.3-19.5zm12.3 26c-3.1 2.3-6.8 3.7-10.7 4.2-4.3 0.1-8.5-1-12.1-3.4-4.8-3.8-6.4-5.2-8-7.2 2.6-3.4 5.8-6.2 9.6-8.2 2.6-1.4 5.7-2.8 9.8-2.7 4.2 0.2 7.3 1.7 10.6 4 2.9 1.9 5.5 4.4 7.6 7.1-2.1 2.5-4.3 4.6-6.8 6.2z"/>
  <circle class="st3" cx="565.5" cy="6727.5" r="9.6"/>
 </g>
</svg>
