<svg width="800" height="784.65" version="1.1" xmlns="http://www.w3.org/2000/svg">
 <g transform="matrix(4.014 0 0 4.014 -1.1498 -8.028)">
  <path d="m29.163 193.76c0.01442-0.50484-0.1191-0.93696-0.40064-1.2964-0.28156-0.35939-0.7979-0.67923-1.549-0.95951-0.3411-0.12632-0.55716-0.20798-0.64818-0.24498s-0.15397-0.0676-0.18884-0.0919c-0.13802-0.0872-0.24222-0.18841-0.31261-0.30368-0.07042-0.11525-0.10569-0.242-0.1059-0.38023 0.0037-0.22839 0.07548-0.41212 0.21563-0.5512 0.14013-0.13908 0.32685-0.21053 0.56014-0.21436 0.23605 1e-3 0.42234 0.0702 0.55886 0.2067 0.13652 0.13653 0.21563 0.33303 0.23733 0.58949h1.4495c-0.04852-0.66987-0.27816-1.193-0.68901-1.5694s-0.92633-0.56779-1.5464-0.57418c-0.62288 0.0147-1.1405 0.22266-1.5528 0.62394-0.41234 0.40129-0.62627 0.90784-0.6418 1.5196 0.0022 0.4772 0.13801 0.89061 0.40703 1.2402 0.26901 0.34961 0.65732 0.62011 1.1649 0.8115 0.47805 0.17864 0.79278 0.30113 0.9442 0.36747 0.15141 0.0663 0.2722 0.13781 0.36236 0.21436 0.11271 0.0887 0.19862 0.19969 0.25774 0.33302 0.0591 0.13334 0.08889 0.27752 0.08932 0.43255-0.0052 0.27496-0.09974 0.4957-0.28454 0.66221s-0.43021 0.252-0.73622 0.25646c-0.31112 4.3e-4 -0.55142-0.077-0.7209-0.23222-0.16949-0.15524-0.26944-0.39086-0.29985-0.70687h-1.4597c0.07401 0.72048 0.33685 1.2802 0.78854 1.6791 0.45168 0.39895 1.0156 0.60139 1.6919 0.60735 0.69432-0.0153 1.2655-0.24753 1.7136-0.69667 0.44806-0.44913 0.67986-1.0233 0.69539-1.7225z" fill="#676767"/>
  <path d="m36.165 196.05v-1.3372h-2.654v-1.7557h2.5417v-1.3372h-2.5417v-1.7761h2.654v-1.3372h-4.0524v7.5434z" fill="#676767"/>
  <path d="m46.038 193.95h-1.6434c-0.30049 0.31835-0.59778 0.54674-0.89188 0.68518-0.29411 0.13844-0.61947 0.20607-0.97609 0.20287-0.71284-0.0191-1.3083-0.27177-1.7863-0.75791-0.47806-0.48613-0.72644-1.0909-0.74515-1.8144 0.01428-0.72664 0.25114-1.3276 0.7107-1.8029 0.45955-0.47529 1.0563-0.72154 1.7902-0.73877 0.43466-2e-3 0.81064 0.0734 1.1279 0.22584 0.31727 0.15248 0.60139 0.39363 0.85233 0.72346h1.5618c-0.34217-0.7343-0.8266-1.2995-1.4533-1.6957-0.6267-0.39617-1.3332-0.59649-2.1193-0.60097-1.095 0.0283-2.0081 0.4081-2.7394 1.1394-0.73133 0.73133-1.1111 1.6445-1.1394 2.7394 0.02766 1.115 0.41383 2.0417 1.1586 2.7803 0.74472 0.73856 1.6821 1.1218 2.8122 1.1496 0.78236-7e-3 1.4811-0.20734 2.0964-0.60097 0.61521-0.39363 1.0767-0.93845 1.3844-1.6345z" fill="#676767"/>
  <path d="m55.418 196.05-3.1643-7.5434h-1.1024l-3.1439 7.5434h1.5413l0.83702-1.9496h2.6846l0.80639 1.9496zm-2.9091-3.2868h-1.6128l0.80639-2.2865z" fill="#676767"/>
  <path d="m62.414 193.28v-4.7771h-1.3984v4.7771c-0.0044 0.58268-0.10803 0.98928-0.31133 1.2198s-0.48061 0.3411-0.83192 0.33174c-0.36066 9e-3 -0.64222-0.10313-0.84467-0.33557-0.20245-0.23243-0.30538-0.63776-0.30878-1.216v-4.7771h-1.3984v4.7771c0.01339 0.96036 0.252 1.6834 0.7158 2.1691 0.4638 0.48571 1.0724 0.72899 1.8259 0.72984 0.75833-2.1e-4 1.3699-0.24222 1.8348-0.72601 0.46486-0.4838 0.70389-1.2081 0.71708-2.1729z" fill="#676767"/>
  <path d="m72.908 193.95h-1.6434c-0.30049 0.31835-0.59778 0.54674-0.89188 0.68518-0.29411 0.13844-0.61947 0.20607-0.9761 0.20287-0.71283-0.0191-1.3083-0.27177-1.7863-0.75791-0.47805-0.48613-0.72644-1.0909-0.74514-1.8144 0.01428-0.72664 0.25115-1.3276 0.7107-1.8029s1.0563-0.72154 1.7901-0.73877c0.43467-2e-3 0.81064 0.0734 1.1279 0.22584 0.31728 0.15248 0.60139 0.39363 0.85233 0.72346h1.5618c-0.34217-0.7343-0.82661-1.2995-1.4533-1.6957-0.62671-0.39617-1.3332-0.59649-2.1193-0.60097-1.095 0.0283-2.0081 0.4081-2.7394 1.1394-0.73133 0.73133-1.1111 1.6445-1.1394 2.7394 0.02766 1.115 0.41383 2.0417 1.1586 2.7803 0.74472 0.73856 1.6821 1.1218 2.8122 1.1496 0.78236-7e-3 1.4812-0.20734 2.0964-0.60097 0.61521-0.39363 1.0767-0.93845 1.3844-1.6345z" fill="#676767"/>
  <path d="m80.877 193.28v-4.7771h-1.3984v4.7771c-0.0044 0.58268-0.10803 0.98928-0.31133 1.2198s-0.4806 0.3411-0.83191 0.33174c-0.36067 9e-3 -0.64222-0.10313-0.84468-0.33557-0.20245-0.23243-0.30537-0.63776-0.30878-1.216v-4.7771h-1.3984v4.7771c0.01339 0.96036 0.252 1.6834 0.71581 2.1691 0.4638 0.48571 1.0724 0.72899 1.8259 0.72984 0.75833-2.1e-4 1.3699-0.24222 1.8348-0.72601 0.46486-0.4838 0.70388-1.2081 0.71707-2.1729z" fill="#676767"/>
  <path d="m88.646 193.76c0.01442-0.50484-0.11909-0.93696-0.40064-1.2964-0.28156-0.35939-0.79789-0.67923-1.549-0.95951-0.3411-0.12632-0.55716-0.20798-0.64817-0.24498-0.09103-0.037-0.15397-0.0676-0.18884-0.0919-0.13802-0.0872-0.24222-0.18841-0.31261-0.30368-0.07042-0.11525-0.10569-0.242-0.1059-0.38023 0.0037-0.22839 0.07549-0.41212 0.21563-0.5512 0.14013-0.13908 0.32685-0.21053 0.56014-0.21436 0.23605 1e-3 0.42234 0.0702 0.55886 0.2067 0.13652 0.13653 0.21563 0.33303 0.23733 0.58949h1.4495c-0.04852-0.66987-0.27816-1.193-0.689-1.5694-0.41086-0.3764-0.92634-0.56779-1.5464-0.57418-0.62288 0.0147-1.1405 0.22266-1.5528 0.62394-0.41234 0.40129-0.62627 0.90784-0.6418 1.5196 0.0022 0.4772 0.13801 0.89061 0.40703 1.2402 0.26901 0.34961 0.65732 0.62011 1.1649 0.8115 0.47805 0.17864 0.79279 0.30113 0.9442 0.36747 0.15141 0.0663 0.2722 0.13781 0.36236 0.21436 0.11271 0.0887 0.19862 0.19969 0.25774 0.33302 0.0591 0.13334 0.08888 0.27752 0.08931 0.43255-0.0052 0.27496-0.09974 0.4957-0.28454 0.66221s-0.4302 0.252-0.73622 0.25646c-0.31112 4.3e-4 -0.55142-0.077-0.7209-0.23222-0.16949-0.15524-0.26944-0.39086-0.29985-0.70687h-1.4597c0.074 0.72048 0.33684 1.2802 0.78853 1.6791 0.45168 0.39895 1.0156 0.60139 1.6919 0.60735 0.69432-0.0153 1.2655-0.24753 1.7136-0.69667 0.44806-0.44913 0.67986-1.0233 0.69539-1.7225z" fill="#676767"/>
  <path d="m92.852 196.12v-1.378h-1.3576v1.3066h0.59204c0.0052 0.0315 0.0078 0.063 0.0089 0.0944 7.4e-4 0.0315 0.0015 0.0578 0.0015 0.0791 0.0015 0.16162-0.04505 0.28751-0.14036 0.37768-0.09527 0.0902-0.24924 0.15481-0.46189 0.19394v0.68391c0.44955-7e-3 0.78811-0.13547 1.0156-0.38406 0.22754-0.2486 0.34153-0.57311 0.34195-0.97355z" fill="#676767"/>
  <path d="m106.25 196.05v-7.5434h-1.3984v5.4917l-3.1235-5.4917h-1.5924v7.5434h1.3984v-5.4814l3.1541 5.4814z" fill="#676767"/>
  <path d="m113.16 196.05v-1.3372h-2.654v-1.7557h2.5417v-1.3372h-2.5417v-1.7761h2.654v-1.3372h-4.0524v7.5434z" fill="#676767"/>
  <path d="m124.3 188.51h-1.429l-1.3372 5.2671-1.2657-5.2671h-1.0208l-1.2862 5.2671-1.327-5.2671h-1.4291l2.215 7.5434h1.1024l1.2453-4.9915 1.2147 4.9915h1.1126z" fill="#676767"/>
  <path d="m135.94 193.89v-5.3794h-1.3984v5.3385c-1e-5 0.66179-0.22457 0.99184-0.6737 0.99013-0.34877-2e-3 -0.56992-0.19224-0.66349-0.57162h-1.3984c0.077 0.63819 0.30579 1.1175 0.68645 1.438 0.38066 0.32047 0.84935 0.48082 1.4061 0.48103 0.63881-7e-3 1.1373-0.21245 1.4954-0.61628 0.35811-0.40384 0.54015-0.96397 0.5461-1.6804z" fill="#676767"/>
  <path d="m143.2 196.05v-1.3372h-2.654v-1.7557h2.5417v-1.3372h-2.5417v-1.7761h2.654v-1.3372h-4.0524v7.5434z" fill="#676767"/>
  <path d="m151.12 196.05-2.0415-2.7867c0.67603-0.1714 1.1741-0.45636 1.4941-0.85488 0.32004-0.39851 0.47869-0.89273 0.47593-1.4826-6.5e-4 -0.38491-0.0683-0.73537-0.20288-1.0514-0.13461-0.316-0.33238-0.5848-0.59331-0.8064-0.23585-0.20648-0.51187-0.35236-0.82809-0.43764-0.31622-0.0853-0.7275-0.12653-1.2338-0.12377h-2.1742v7.5434h1.3984v-2.8887l1.9803 2.8887zm-1.4801-5.0834c4e-3 0.39597-0.11825 0.68603-0.36492 0.87019-0.24669 0.18416-0.63883 0.27518-1.1764 0.27305h-0.68391v-2.2661h0.62266c0.64733 5e-3 1.0803 0.10761 1.2989 0.30878s0.31983 0.47252 0.30368 0.81405z" fill="#676767"/>
  <path d="m158.68 193.76c0.0144-0.50484-0.1191-0.93696-0.40065-1.2964-0.28156-0.35939-0.79789-0.67923-1.549-0.95951-0.34111-0.12632-0.55716-0.20798-0.64818-0.24498-0.091-0.037-0.15397-0.0676-0.18884-0.0919-0.13802-0.0872-0.24222-0.18841-0.31261-0.30368-0.0704-0.11525-0.10569-0.242-0.1059-0.38023 4e-3 -0.22839 0.0755-0.41212 0.21563-0.5512 0.14014-0.13908 0.32685-0.21053 0.56014-0.21436 0.23605 1e-3 0.42234 0.0702 0.55887 0.2067 0.13652 0.13653 0.21563 0.33303 0.23732 0.58949h1.4495c-0.0485-0.66987-0.27816-1.193-0.68901-1.5694-0.41086-0.3764-0.92634-0.56779-1.5464-0.57418-0.62287 0.0147-1.1405 0.22266-1.5528 0.62394-0.41235 0.40129-0.62628 0.90784-0.6418 1.5196 2e-3 0.4772 0.13801 0.89061 0.40702 1.2402 0.26902 0.34961 0.65732 0.62011 1.1649 0.8115 0.47805 0.17864 0.79278 0.30113 0.9442 0.36747 0.15141 0.0663 0.27219 0.13781 0.36237 0.21436 0.1127 0.0887 0.19861 0.19969 0.25773 0.33302 0.0591 0.13334 0.0889 0.27752 0.0893 0.43255-5e-3 0.27496-0.0997 0.4957-0.28453 0.66221-0.18481 0.16651-0.43021 0.252-0.73622 0.25646-0.31112 4.3e-4 -0.55142-0.077-0.72091-0.23222-0.16949-0.15524-0.26943-0.39086-0.29984-0.70687h-1.4597c0.074 0.72048 0.33685 1.2802 0.78854 1.6791 0.45168 0.39895 1.0156 0.60139 1.6919 0.60735 0.69432-0.0153 1.2655-0.24753 1.7136-0.69667 0.44806-0.44913 0.67986-1.0233 0.69539-1.7225z" fill="#676767"/>
  <path d="m165.4 196.05v-1.3372h-2.654v-1.7557h2.5417v-1.3372h-2.5417v-1.7761h2.654v-1.3372h-4.0524v7.5434z" fill="#676767"/>
  <path d="m173.91 188.51h-1.5107l-1.6638 3.4706-1.674-3.4706h-1.5107l2.4804 4.7567v2.7867h1.3984v-2.7867z" fill="#676767"/>
  <path d="m89.362 183.77h-4.4409c-4.0392 0-6.7056-0.5138-7.999-1.5414-1.2935-1.0276-1.9402-3.1637-1.9402-6.4083v-2.2709c0-3.4971 0.64326-5.8089 1.9298-6.9356 1.2865-1.1266 3.984-1.6899 8.0924-1.69h4.4409c4.3022 2e-5 7.1345 0.56333 8.4971 1.69 1.3625 1.1266 2.0437 3.4113 2.0437 6.8539v2.2717c-1.1e-5 3.4069-0.66745 5.597-2.0023 6.5704-1.3349 0.97343-4.2087 1.4601-8.6215 1.4601zm-0.16654-14.601h-3.7348c-2.3514 1e-5 -3.8419 0.26599-4.4713 0.79794-0.62944 0.53197-0.94416 1.7532-0.94416 3.6638v1.9466c0 1.6944 0.31123 2.7939 0.93372 3.2986 0.62247 0.50472 2.0541 0.75709 4.2949 0.75709h4.0052c2.462 0 4.0216-0.23874 4.6787-0.71625 0.65706-0.47749 0.9856-1.6176 0.98564-3.4203v-1.9466c-3.1e-5 -1.8929-0.33206-3.0963-0.99609-3.6101-0.66407-0.51379-2.248-0.7707-4.7518-0.77071z" fill="#676767"/>
  <path d="m126.06 179.67v3.8417h-5.9496v-2.8811c-3e-5 -1.7606-1.0826-1.9325-3.2478-1.9325h-8.2199v4.8136h-4.7746v-18.513h14.695c2.5827 2e-5 4.4285 0.44913 5.5374 1.3473 1.1088 0.89823 1.6633 2.4233 1.6633 4.5752v1.2798c-1e-5 1.1207-0.10436 1.9656-0.31319 2.5347-0.20882 0.56906-0.52511 1.0403-1.1513 1.4137 0.58715 0.19539 1.0274 0.56431 1.3208 1.1068 0.29336 0.54246 0.44005 1.3472 0.44007 2.4142zm-5.0317-7.544v-1.1113c-1e-5 -0.71151-0.17287-1.4439-0.51859-1.7286-0.34575-0.28465-0.96208-0.42698-1.849-0.42699h-10.096v5.4372h10.213c0.83515 1e-5 1.419-0.13784 1.7517-0.41356 0.33257-0.27569 0.49887-1.0637 0.49888-1.7568z" fill="#676767"/>
  <path d="m163.66 165v3.765h-7.734v14.767h-4.3854v-14.767h-7.7518v-3.765z" fill="#676767"/>
  <path d="m171.81 165 6.9645 13.641 7.2579-13.641h5.7742l-9.5746 18.532h-7.006l-9.1528-18.532z" fill="#676767"/>
  <path d="m23.579 170.96-4.5539 12.093h-6.1224l-6.3248-18.013h5.4646l4.3009 13.459 5.1611-13.51h4.0985l4.9587 13.358 4.7563-13.358h5.1611l-6.426 18.064h-5.9706z" fill="#676767"/>
  <path d="m57.227 170.96-4.5539 12.093h-6.1224l-6.3248-18.013h5.4646l4.3009 13.459 5.1611-13.51h4.0985l4.9587 13.358 4.7563-13.358h5.1611l-6.426 18.064h-5.9706z" fill="#676767"/>
  <path d="m139.6 174.14c0 1.7326-1.3819 3.1371-3.0865 3.1371s-3.0865-1.4045-3.0865-3.1371 1.3819-3.1371 3.0865-3.1371 3.0865 1.4045 3.0865 3.1371z" fill="#676767" fill-rule="evenodd"/>
  <rect x="97.867" y="2" width="5.6235" height="157.76" clip-path="url(#SVGID_2_)" fill="#fff"/>
  <rect x=".28645" y="79.316" width="199.29" height="4.3009" clip-path="url(#SVGID_2_)" fill="#fff"/>
  <path d="m32.819 2.0002h66.265v78.017h-98.797v-48.759c0-16.16 14.562-29.257 32.532-29.257" clip-path="url(#SVGID_2_)" fill="#0a92ce"/>
  <path d="m32.819 159.76h66.265v-78.009h-98.797v48.752c0 16.16 14.562 29.257 32.532 29.257" clip-path="url(#SVGID_2_)" fill="#b1b3b6"/>
  <path d="m167.06 159.76h-66.031v-78.009h98.563v48.752c-8e-3 16.16-14.57 29.257-32.532 29.257" clip-path="url(#SVGID_2_)" fill="#93cff2"/>
  <path d="m167.06 2.0002h-66.031v78.017h98.563v-48.759c-0.0078-16.16-14.57-29.257-32.532-29.257" clip-path="url(#SVGID_2_)" fill="#636466"/>
  <path d="m46.835 40.334c1.6145-3.1556 3.7048-5.5709 6.2787-7.2461 2.5739-1.683 5.4285-2.5167 8.5717-2.5167 5.9433 0 10.514 1.87 13.704 5.6021 3.2056 3.7399 4.8045 9.0927 4.8045 16.074v27.816h-11.138v-23.46c0-5.4073-0.76436-9.2563-2.2853-11.547-1.5287-2.2985-4.0402-3.4361-7.5266-3.4361-3.697 0-6.341 1.3168-7.9478 3.9503-1.5911 2.6257-2.3945 7.2072-2.3945 13.736v20.764h-11.138v-21.473c0-0.03117-0.0156-0.26491-0.039-0.70124-0.0312-0.44412-0.0546-0.87265-0.0546-1.2856 0-5.4307-0.77216-9.2953-2.3165-11.57-1.5365-2.2751-4.0792-3.4127-7.6358-3.4127-3.5254 0-6.0915 1.3557-7.6982 4.0594-1.5989 2.7114-2.4023 7.2539-2.4023 13.627v20.764h-11.38v-48.51h11.029v5.5164c1.7081-2.2673 3.6502-3.9191 5.8263-4.9554 2.1683-1.0363 4.7421-1.5427 7.7138-1.5427 3.6814 0 6.848 0.81032 9.5311 2.4465 2.6909 1.6128 4.8513 4.0594 6.497 7.3007" clip-path="url(#SVGID_2_)" fill="#fff"/>
  <path d="m125.48 31.553-26.222 64.21h-11.738l6.7622-17.063-17.533-47.146h11.926l11.863 33.87 13.017-33.87z" clip-path="url(#SVGID_2_)" fill="#fff"/>
  <path d="m148.01 81.756c-8.5152 7.8e-5 -15.663 2.5887-21.406 7.75-5.7438 5.1614-9.5625 13.127-9.5625 20.719 0 7.2701 1.4769 12.758 6.1562 17.719 4.6793 4.9606 6.5925 6.8448 14.941 8.6562 2.7909 0.39196 3.6982 0.50073 7.7157 0.25l-17.094 23h22.797l12.359-18.5c2.0886-2.9723 5.9763-7.475 8.9688-13.5 2.9923-6.0249 4.9687-9.602 4.9688-18.062-7e-5 -9.7355-4.0351-15.017-9.1562-20.219-5.1212-5.2014-12.574-7.8124-20.688-7.8125zm-0.3125 18.062c5.7841 0 10.469 4.4826 10.469 10.031s-4.6847 10.062-10.469 10.062c-5.7841 0-10.469-4.5138-10.469-10.062s4.6847-10.031 10.469-10.031z"/>
  <text x="179.72113" y="159.84659" fill="#808080" font-family="'Tw Cen MT'" font-size="123.39px" style="line-height:0%" xml:space="preserve"> </text>
 </g>
</svg>
