<svg width="2190.7" height="1484" version="1.1" viewBox="0 0 2190.7 1484" xml:space="preserve" xmlns="http://www.w3.org/2000/svg"><defs>
		<mask id="d_1_" x="0" y="0.4" width="12.8" height="13.6" maskUnits="userSpaceOnUse">
			<g class="st5" filter="url(#Adobe_OpacityMaskFilter_1_)">
				<path class="st2" d="m0 0.4h12.8v13.6h-12.8z" fill="#fff"/>
			</g>
		</mask>
		<mask id="b_1_" x="0.2" y="0" width="16" height="15.6" maskUnits="userSpaceOnUse">
			<g class="st1" filter="url(#Adobe_OpacityMaskFilter)">
				<path class="st2" d="m0.2 0h16v15.6h-16z" fill="#fff"/>
			</g>
		</mask>
	<linearGradient id="linearGradient1119-5" x1="4.6351" x2="13.922" y1="29.228" y2="19.941" gradientTransform="matrix(38.661,0,0,38.661,-1838,-726.03)" gradientUnits="userSpaceOnUse"><stop stop-color="#AE1F23" offset="0"/><stop stop-color="#CC1E23" offset=".382"/><stop stop-color="#E41C24" offset=".7639"/><stop stop-color="#ED1C24" offset="1"/></linearGradient><linearGradient id="linearGradient1121-3" x1="16.003" x2="28.544" y1="16.905" y2="29.446" gradientTransform="matrix(38.661,0,0,38.661,-1834.8,-729.03)" gradientUnits="userSpaceOnUse"><stop stop-color="#1D1DEA" offset=".4967"/><stop stop-color="#2022E0" offset=".6006"/><stop stop-color="#292EC4" offset=".78"/><stop stop-color="#374199" offset="1"/></linearGradient><linearGradient id="linearGradient1123-4" x1="25687" x2="46087" y1="9971.9" y2="9971.9" gradientTransform="matrix(.037795 0 0 .037795 -2285.4 -729.03)" gradientUnits="userSpaceOnUse"><stop stop-color="#51BB83" offset="0"/><stop stop-color="#4DBA81" offset=".2181"/><stop stop-color="#41B77B" offset=".4428"/><stop stop-color="#2CB272" offset=".6704"/><stop stop-color="#0FAB65" offset=".8988"/><stop stop-color="#00A75E" offset="1"/></linearGradient><linearGradient id="linearGradient1125-0" x1="11942" x2="25686" y1="10549" y2="10549" gradientTransform="matrix(1.4612,0,0,1.4612,-2285.4,-730.78)" gradientUnits="userSpaceOnUse"><stop stop-color="#9B2E90" offset="0"/><stop stop-color="#A82C9B" offset=".2246"/><stop stop-color="#BE27AF" offset=".6966"/><stop stop-color="#C626B6" offset="1"/></linearGradient></defs>
<style type="text/css">
	.st0{fill:#6D6D6D;}
	.st1{filter:url(#Adobe_OpacityMaskFilter);}
	.st2{fill:#FFFFFF;}
	.st3{mask:url(#b_1_);fill:#00C56E;}
	.st4{fill:#1717EF;}
	.st5{filter:url(#Adobe_OpacityMaskFilter_1_);}
	.st6{mask:url(#d_1_);fill:#FF161F;}
	.st7{fill:#E621BB;}
</style>
<g transform="translate(-199 579.89)" fill="#6d6d6d" stroke-width="21.755"><path class="st0" d="m906.03 586.53h-69.615v-261.06h69.615zm452.5 0h-69.615v-261.06h69.615zm393.76 0h-69.615v-261.06h69.615zm-1168.2 0v-143.58c0-36.983 26.106-56.562 58.738-56.562s58.738 23.93 58.738 56.562v145.76h69.615v-143.58c0-67.44-45.685-126.18-126.18-126.18-87.019 0-130.53 58.738-130.53 126.18v141.41zm1618.6 0v-143.58c0-36.983 28.281-56.562 58.738-56.562 32.632 0 58.738 23.93 58.738 56.562v145.76h69.615v-143.58c0-67.44-45.685-126.18-126.18-126.18-87.019 0-130.53 58.738-130.53 126.18v141.41zm-1107.3-102.25 71.791-160.99h73.966l-121.83 261.06h-47.861l-121.83-261.06h73.966zm352.43 21.755c17.404 15.228 45.685 26.106 71.791 26.106 19.58 0 32.632-8.7019 32.632-21.755 0-39.159-128.35-26.106-128.35-108.77 0-50.036 47.861-82.668 100.07-82.668 34.808 0 71.791 13.053 89.195 26.106l-32.632 50.036c-13.053-8.7019-30.457-17.404-50.036-17.404s-34.808 6.5264-34.808 21.755c0 34.808 128.35 19.579 128.35 110.95 0 50.036-50.036 80.493-104.42 80.493-36.983 0-73.966-13.053-106.6-34.808zm493.83 21.755c41.334 0 69.615-32.632 69.615-71.791s-28.281-71.791-69.615-71.791-69.615 32.632-69.615 71.791 28.281 71.791 69.615 71.791m0-208.85c80.493 0 139.23 60.913 139.23 137.06s-60.913 137.06-139.23 137.06c-80.493 0-139.23-60.913-139.23-137.06s60.913-137.06 139.23-137.06m-1555.5 6.5264v145.76c0 34.808-28.281 56.562-58.738 56.562-32.632 0-58.738-26.106-58.738-56.562v-145.76h-69.615v141.41c0 65.264 45.685 126.18 126.18 126.18 87.019 0 130.53-58.738 130.53-126.18v-141.41z"/><path class="st0" d="m526.4 762.74v134.88h-26.106v-184.92h17.404l110.95 134.88v-134.88h26.106v184.92h-17.404zm191.44 115.3c-10.877-13.053-19.579-30.457-19.579-54.387v-108.77h26.106v108.77c0 17.404 4.351 28.281 10.877 36.983 8.702 10.877 23.93 17.404 39.159 17.404 15.228 0 28.281-6.5264 39.159-17.404 6.5263-8.7019 10.877-19.579 10.877-36.983v-108.77h26.106v108.77c0 23.93-6.5265 41.334-19.579 54.387-13.053 15.228-34.808 23.93-56.562 23.93-21.755 0-41.334-8.7019-56.563-23.93m267.58-91.37v23.93h-60.914v60.913h82.668v23.93h-108.77v-184.92h104.42v23.93h-78.317v47.861h60.914zm124 113.12h-17.404l-71.791-184.92h28.281l54.387 139.23 54.387-139.23h28.281zm117.48-73.966h56.562l-28.281-67.44zm67.44 26.106h-78.317l-19.579 47.861h-26.106l76.142-184.92h17.404l76.142 184.92h-28.281zm200.14-36.983v84.844h-26.106v-84.844l-63.089-100.07h30.457l47.86 73.966 47.861-73.966h30.457zm156.63 60.913c36.983 0 65.264-30.457 65.264-69.615s-28.281-69.615-65.264-69.615-65.264 30.457-65.264 69.615c-2.1755 41.334 26.106 69.615 65.264 69.615m0-163.16c52.212 0 91.37 41.334 91.37 95.721s-39.159 95.721-91.37 95.721-91.37-41.334-91.37-95.721 39.159-95.721 91.37-95.721m187.09 73.966c10.877 0 17.404-2.1755 21.755-6.5264 4.351-4.351 6.5265-10.877 6.5265-17.404 0-6.5264-2.1755-13.053-6.5265-17.404-4.3508-4.3509-10.877-6.5264-21.755-6.5264h-36.983v47.861zm-36.983 26.106v87.019h-26.106v-184.92h65.264c17.404 0 28.281 4.351 34.808 10.877 10.878 8.7019 17.404 21.755 17.404 36.983s-6.5263 28.281-17.404 36.983c-6.5264 4.351-13.053 8.7019-21.755 8.7019l65.264 87.019h-30.457l-65.265-87.019h-21.755zm143.58-97.897h26.106v78.317l76.142-78.317h34.808l-82.668 84.844 89.195 97.897h-34.808l-82.668-91.37v91.37h-26.106z"/></g>
<g transform="matrix(2.2939 0 0 2.2939 1921 -1388.4)"><g transform="matrix(.22648 0 0 .22648 -283.71 770.37)" fill-rule="evenodd"><path d="m-1218.2 598.73c-28.608-26.791-49.043-77.194-63.572-142.58a1394.5 1394.5 0 0 1-25.883-202.52 3039.7 3039.7 0 0 1-6.8115-217.06v-12.714c-169.83 0-317.41-12.714-387.78-25.429-74.015-13.623-123.06-40.868-131.69-54.49a641.16 641.16 0 0 0 117.61 382.34 644.34 644.34 0 0 0 499.51 273.82l-1.3623-1.3623" fill="url(#linearGradient1119-5)" stroke-width="38.661"/><path d="m-543.47-78.755c-29.97 24.975-115.83 55.416-218 74.941-40.868 6.8115-84.896 12.665-129.4 17.206-177.09 15.893-385.97 10.465-423.69 10.465v12.683a3039.7 3039.7 0 0 0 6.8288 217.11 1394.5 1394.5 0 0 0 25.898 202.48c14.531 65.39 34.983 115.82 63.591 142.61l1.3305 1.3305 28.115 0.8868c218.87 0 411.9-108.91 528.57-275.56 44.531-67.378 76.4-142.37 94.012-221.19 14.985-54.49 22.704-112.56 22.704-172.5v-0.5322z" fill="url(#linearGradient1121-3)" stroke-width="38.661"/><path d="m-1314.5 23.86c37.235 0 246.57 5.449 423.65-10.444 44.5-4.5408 88.094-9.9901 129.87-17.256 101.72-19.526 187.54-49.951 217.51-74.926v-575.32c-77.651-57.668-404.15-74.926-771.03-74.926z" fill="url(#linearGradient1123-4)" stroke-width="45.408"/><path d="m-1809-684.5c-13.623 0-25.01 11.299-25.01 24.922v603.52c8.6276 13.623 57.687 40.834 131.7 54.456 70.383 12.714 217.92 25.454 387.74 25.454v-464.13c-160.75-207.07-409.51-244.25-494.44-244.25z" fill="url(#linearGradient1125-0)" stroke-width="38.661"/></g><path class="st0" d="m-239.5 783.86v-67.797l-54.675 67.797zm55.768-172.77v172.77h47.02v49.207h-47.02v65.61h-55.768v-65.61h-134.5v-32.805l150.9-189.17zm53.581 40.459 69.984-40.459h39.366v288.68h-55.768v-225.26l-53.581 29.524z" fill="#6d6d6d" stroke-width="10.935"/></g></svg>
