<svg width="800" height="232.86" enable-background="new 0 310.6 612 170.7" version="1.1" viewBox="0 310.6 800 232.86" xml:space="preserve" xmlns="http://www.w3.org/2000/svg">
<g transform="matrix(1.365 0 0 1.365 0 -113.35)" fill="#c1d42f"><path d="m222.7 316.7c9.3 4.1 17 10.3 23 18.9 5.5 7.6 9 16.4 10.6 26.5 0.9 6 1.3 14.4 1.2 25.4h-97.1c0.6 12.8 5.2 21.8 14 27 5.4 3.2 11.8 4.8 19.2 4.8 8 0 14.4-1.9 19.3-5.8 2.8-2.2 5.8-6.3 7.6-10.2h35c-1.9 8.9-5.1 16.7-12.6 24.6-12.1 12.5-28.6 18.8-50.2 18.8-17.7 0-33.4-5.2-47-15.7-13.5-10.5-20.4-27.6-20.4-51.3 0-22.2 6.1-39.2 18.3-51 12.4-12.1 28.2-18 47.7-18 11.6-0.1 22.1 1.9 31.4 6m-52.2 28.9c-4.9 4.9-8 11.5-9.3 19.8h60c-0.6-8.9-3.8-15.7-9.3-20.2-5.5-4.7-12.5-7-20.6-7-8.9 0-15.8 2.5-20.8 7.4"/><path d="m304.1 403.5c0.7 6 2.9 8.1 5.4 10.6 4.4 4.5 12.4 6.7 24.1 6.7 6.8 0 12.4-1 16.4-2.9 4.1-1.9 6.1-4.9 6.1-8.9 0-3.8-1.6-6.5-4.9-8.6-3.2-1.9-15.4-5.4-36.5-10-15.1-3.6-25.9-8.1-32-13.5-6.3-5.4-9.3-12.9-9.3-23 0-11.8 4.8-22 14.5-30.5 9.7-8.4 23.3-12.8 40.8-12.8 16.7 0 30.2 3.2 40.7 9.6s16.6 17.4 18 33h-34.9c-0.4-4.4-1.7-7.7-3.8-10.2-3.8-4.5-10.3-6.8-19.6-6.8-7.6 0-13.1 1.2-16.3 3.3-3.2 2.3-4.8 4.9-4.8 8 0 3.8 1.7 6.7 5.1 8.3 3.5 1.7 15.6 4.9 36.3 9.3 13.8 3.2 24.3 7.8 31.3 14.2 6.8 6.4 10.3 14.4 10.3 24.1 0 12.6-4.9 23-14.8 31.1-9.9 8-25 12.1-45.6 12.1-20.9 0-36.5-4.2-46.5-12.8-10-8.4-15.1-17.3-15.1-30.4h35.1z"/><path d="m561.8 310.6h-133.4c-13.4 0-24.3 11.3-24.3 25.4v85c0 14.1 10.9 25.4 24.3 25.4h133.4c13.4 0 24.3-11.3 24.3-25.4v-85c0-14.1-10.7-25.4-24.3-25.4"/><path d="m100.6 310.6c-8.4 0-13.7 3.8-15.7 11.3l-22.8 77-22.8-77c-2-7.6-7.3-11.3-15.8-11.3h-23.5l43.2 123.6c2.3 6.5 1.7 12.9-2 15.8-0.4 0.4-1 0.7-1.5 1-3.6 2.3-8.1 3.3-14 3.3h-9.3v26.9h14.3c13.4 0 23-1.9 28.8-5.7 5.8-4.4 10.8-11.8 14.7-22.2l49.8-142.7z"/></g>
<path d="m660.5 364.52c-1.2285 0.95547-2.5934 1.365-4.2314 1.365h-26.753v85.583c0 1.365-0.54598 2.5934-1.7744 3.4124-1.2285 0.95547-2.5934 1.365-4.2314 1.365s-3.0029-0.40949-4.2314-1.365c-1.2285-0.95546-1.7744-2.1839-1.7744-3.4124v-85.583h-26.344c-1.638 0-3.0029-0.40948-4.2314-1.365s-1.7744-2.1839-1.7744-3.4124 0.54598-2.5934 1.7744-3.4124c1.2285-0.95546 2.5934-1.365 4.2314-1.365h65.381c1.638 0 3.0029 0.40949 4.2314 1.365 1.2285 0.95547 1.7744 2.1839 1.7744 3.4124s-0.81897 2.4569-2.0474 3.4124m107.15-1.7744-40.13 89.951c-0.54598 0.95547-1.365 1.7744-2.3204 2.5934s-2.1839 1.2285-3.4124 1.2285-2.3204-0.40949-3.4124-1.2285c-0.95546-0.81897-1.7744-1.6379-2.0474-2.3204l-40.539-89.951c-0.40948-0.54598-0.54598-1.2285-0.54598-1.7744 0-1.2285 0.54598-2.3204 1.638-3.4124 0.95547-0.95547 2.3204-1.365 4.2314-1.365 1.2285 0 2.1839 0.1365 3.1394 0.81898 0.95547 0.68247 1.7744 1.2285 2.1839 2.1839l35.352 79.031 34.943-79.031c0.54599-0.81897 1.2285-1.6379 2.1839-2.1839s2.0474-0.81898 3.4124-0.81898c1.7744 0 3.1394 0.40949 4.2314 1.365 0.95547 0.95547 1.6379 2.0474 1.6379 3.4124-0.13649 0.54598-0.13649 1.092-0.54598 1.5014" fill="#fff" stroke-width="1.365"/></svg>
