<svg width="800" height="158.27" version="1.1" viewBox="0 0 800 158.27" xml:space="preserve" xmlns="http://www.w3.org/2000/svg"><g transform="matrix(1.3333 0 0 -1.3333 -444.09 574.02)"><g transform="matrix(1.6408 0 0 1.6408 705.21 426.57)"><path d="m0 0h-14.944l-16.531-26.539-16.607 26.539h-23.002l24.936-39.927v-27.615h13.837c5.074 0 7.563 3.163 7.563 8.739v19.076z" fill="#231f20"/></g><g transform="matrix(1.6408 0 0 1.6408 817.58 426.57)"><path d="m0 0h-67.704v-12.785h23.164v-54.757h13.831c4.98 0 7.543 2.997 7.543 8.739v46.018h23.166z" fill="#231f20"/></g><g transform="matrix(1.6408 0 0 1.6408 837.08 426.57)"><path d="m0 0c-4.882 0-7.542-3.479-7.542-8.706-0.012-15.57 0-58.836 0-58.836h18.705v42.68l27.558-42.68h12.215c4.891 0 7.563 3.458 7.563 8.739v58.803h-18.696v-42.68l-27.589 42.68z" fill="#231f20"/></g><g transform="matrix(1.6408 0 0 1.6408 565.34 371.17)"><path d="m0 0c0-19.988-15.855-36.177-35.401-36.177-19.542 0-35.396 16.189-35.396 36.177 0 19.944 15.854 36.166 35.396 36.166 19.546 0 35.401-16.222 35.401-36.166" fill="#231f20"/></g><g transform="matrix(1.6408 0 0 1.6408 449.18 371.17)"><path d="m0 0c0-19.988-15.85-36.177-35.373-36.177-19.544 0-35.389 16.189-35.389 36.177 0 19.944 15.845 36.166 35.389 36.166 19.523 0 35.373-16.222 35.373-36.166" fill="#00adef"/></g></g></svg>
