<svg width="800" height="290.57" version="1.1" viewBox="0 0 800 290.57" xmlns="http://www.w3.org/2000/svg">
 <defs>
  <radialGradient id="radialGradient-1" cx="9.9349" cy="-.70894" r="15.64" gradientTransform="scale(.99967 1.0003)" gradientUnits="userSpaceOnUse">
   <stop stop-color="#B30812" offset="0"/>
   <stop stop-color="#BB0D15" offset=".16"/>
   <stop stop-color="#D11B1E" offset=".28"/>
   <stop stop-color="#F4312B" offset=".42"/>
   <stop stop-color="#F7482E" offset=".53"/>
   <stop stop-color="#F95A31" offset=".63"/>
   <stop stop-color="#DA3523" offset=".77"/>
   <stop stop-color="#BF1517" offset=".91"/>
   <stop stop-color="#B50913" offset="1"/>
  </radialGradient>
 </defs>
 <g transform="matrix(19.049 0 0 19.049 0 -153.2)" fill="none" fill-rule="evenodd">
  <g transform="translate(0,8)">
   <path d="m7.6281 0.042381c-0.64034 2.9667e-4 -1.2905 0.081839-1.9389 0.25221-3.4212 0.89899-5.6862 3.9845-5.6893 7.3629v0.013096c5.5096e-4 0.63937 0.082093 1.2894 0.25221 1.9368 0.89904 3.4215 3.985 5.6865 7.3636 5.6893h0.010299c0.64013-3.39e-4 1.2907-0.08192 1.9388-0.25221 2.6679-0.70103 4.7492-2.7883 5.4426-5.4582h-2.6247v-3.8546h2.6192c-0.89904-3.4215-3.9853-5.6865-7.3639-5.6893zm0.79927 5.6893h2.9349l0.0021 0.75439h-2.0945v0.78194h2.0924v0.75439h-2.0924v0.80949h2.0924v0.75439h-2.9349zm-4.0305 0h3.146v0.6442l-2.1191 2.467h2.1191v0.74337h-3.2121v-0.6425l2.1191-2.467h-2.053zm8.8306 1.5363 2.0131-0.012291c-0.01369-0.25772-0.04043-0.5146-0.0801-0.76965l-1.933-4.238e-4zm0 0.75439-0.0021 0.80949h1.9385c0.04136-0.27226 0.06811-0.54659 0.0801-0.82178z" fill="url(#radialGradient-1)"/>
   <path d="m16.029 7.7634c0-1.1222 0.83208-1.8886 1.8722-1.8886 0.71714 0 1.166 0.3449 1.4507 0.77185l-0.46531 0.24636c-0.19161-0.30654-0.55291-0.53095-0.98537-0.53095-0.73905 0-1.3084 0.58024-1.3084 1.4014 0 0.81563 0.56931 1.4014 1.3084 1.4014 0.43246 0 0.79376-0.22441 0.98537-0.531l0.46531 0.24636c-0.29014 0.42695-0.73354 0.77185-1.4507 0.77185-1.0401 0-1.8722-0.76638-1.8722-1.8886z" fill="#f85331"/>
   <polygon points="19.844 5.935 19.844 9.5863 20.391 9.5863 20.391 5.935" fill="#f85331"/>
   <polygon points="21.152 5.9349 21.716 5.9349 23.703 8.6721 23.703 5.9349 24.251 5.9349 24.251 9.5863 23.72 9.5863 21.7 6.7835 21.7 9.5863 21.152 9.5863" fill="#f85331"/>
   <polygon points="25.553 6.4167 25.553 7.4842 27.42 7.4842 27.42 7.9659 25.553 7.9659 25.553 9.1045 27.458 9.1045 27.458 9.5863 25.006 9.5863 25.006 5.935 27.458 5.935 27.458 6.4167" fill="#f85331"/>
   <polygon points="28.635 6.6849 28.635 9.5863 28.088 9.5863 28.088 5.935 28.87 5.935 29.932 8.5571 30.994 5.935 31.777 5.935 31.777 9.5863 31.23 9.5863 31.23 6.6849 30.047 9.5863 29.817 9.5863" fill="#f85331"/>
   <path d="m33.211 8.3436h1.4725l-0.739-1.9324zm1.6313 0.48717h-1.7901l-0.29561 0.75545h-0.6022l1.4507-3.6513h0.68425l1.4507 3.6513h-0.60216z" fill="#f85331"/>
   <polygon points="38.494 9.1045 38.494 9.5863 36.288 9.5863 36.288 5.935 36.835 5.935 36.835 9.1045" fill="#f85331"/>
   <path d="m38.927 5.935h0.55291v2.2061c0 0.62402 0.3449 1.0237 0.98537 1.0237s0.9799-0.39966 0.9799-1.0237v-2.2061h0.55286v2.2171c0 0.9087-0.50908 1.4999-1.5328 1.4999s-1.5383-0.59669-1.5383-1.4945z" fill="#f85331"/>
  </g>
 </g>
</svg>
