<svg width="1e3" height="135.91" version="1.1" xmlns="http://www.w3.org/2000/svg">
 <link href="" rel="stylesheet" type="text/css"/>
 <style type="text/css"/>
 <defs>
  <clipPath id="h">
   <path d="m256 354h47v7h-47z"/>
  </clipPath>
  <clipPath id="g">
   <path d="m286.27 358.16h1.5898v-1.457h-1.5898v-0.49219h2.6406v-1.4688h-4.332v5.5859h4.3867v-1.4688h-2.6953zm6.0547-1.5234c0-0.3125-0.17578-0.46484-0.53906-0.46484h-0.78906v0.95312h0.76562c0.39453 0 0.5625-0.14453 0.5625-0.48828zm0.77344 1.5859 1.1055 2.1055h-1.9141l-0.87109-1.8086h-0.42188v1.8086h-1.6836v-5.5859h2.5078c1.4648 0 2.207 0.625 2.207 1.8594 0 0.74219-0.32031 1.3008-0.92969 1.6211zm3.4609-3.5664c-1.332 0-2.2266 0.72656-2.2266 1.8047 0 1.1523 0.70312 1.5352 2 1.832 0.6875 0.16406 0.82812 0.26953 0.82812 0.38672 0 0.14844 0 0.22266-0.52734 0.25391-0.10547 0.007812-0.19531 0.011719-0.26953 0.011719-0.4375 0-0.60547-0.09375-0.77344-0.43359l-0.039062-0.070313-1.6719 0.22656 0.039062 0.125c0.33984 1.0742 1.2227 1.6211 2.625 1.6211 0.60547 0 1.1055-0.10938 1.4883-0.32422l0.054688-0.027344v-2.8906l-0.054688-0.03125c-0.29297-0.16016-0.67188-0.29297-1.1953-0.41797-0.67969-0.16016-0.79688-0.23828-0.79688-0.34766 0-0.082031 0-0.21875 0.44141-0.21875 0.48828 0 0.94141 0.15625 1.4336 0.48828l0.097656 0.058594 0.074219-0.12109v-1.6523l-0.070313-0.027344c-0.42969-0.16406-0.90625-0.24609-1.457-0.24609zm3.5703 4.2031v-0.69922h1.5898v-1.457h-1.5898v-0.49219h2.6406v-1.4688h-4.332v5.5859h4.3828v-1.4688zm-17.344-4.1172-0.41406 1.5234c-0.14062 0.50781-0.31641 1.2266-0.44141 1.7734-0.12109-0.55859-0.30078-1.2812-0.4375-1.7734l-0.41406-1.5234h-1.9062l1.9219 5.5859h1.6602l1.457-4.168-0.011719-1.418zm-5.4023 0v5.5859h1.7383v-4.5078l-0.35938-1.0781zm-17.543 1.7812c-0.12891 0.17578-0.28906 0.375-0.54688 0.67969l-0.089844 0.10547c-0.23828 0.29297-0.44141 0.52734-0.62891 0.71875 0.26172-0.007813 0.57031-0.015625 0.89453-0.015625h0.35547v-0.50391c0-0.24219 0.003906-0.65625 0.015625-0.98438zm5.9414 0.125 2.0977 4.043h-2.2305l-1.2383-2.5234-0.50781 0.61719v1.9062h-1.9258v-1.0469h-0.43359v1.0469h-1.7188v-1.0898h-3.4492v-1.3789l3.3477-3.8438h1.8203v3.6328h0.43359v-3.6328h1.9258v0.81641c0 0.40234-0.003906 0.80859-0.015625 1.168 0.28906-0.41797 0.69922-0.95312 0.99219-1.3281l0.51953-0.65625h2.3242zm4.1094-1.9062h1.7344v3.1836c0 1.6055-0.87891 2.4883-2.4766 2.4883-0.29688 0-0.57812-0.035157-0.83594-0.10156l-0.046875-0.011719-1.5664-3.0234v-0.88281l1.4141-1.6523h0.32422v3.1836c0 0.63672 0.24609 0.95703 0.73438 0.95703 0.48047 0 0.71875-0.3125 0.71875-0.95703zm5.4336 0h1.6445v5.5859h-1.3789l-1.3125-1.8164c-0.15234-0.21094-0.41016-0.58594-0.60547-0.89062 0.011719 0.33594 0.011719 0.74219 0.011719 0.95703v1.75h-1.6445v-5.5859h1.4766l1.2148 1.6328c0.15625 0.21094 0.41406 0.58203 0.60547 0.88281-0.011719-0.33203-0.011719-0.73047-0.011719-0.94141z"/>
  </clipPath>
  <clipPath id="f">
   <path d="m286.27 358.16h1.5898v-1.457h-1.5898v-0.49219h2.6406v-1.4688h-4.332v5.5859h4.3867v-1.4688h-2.6953zm6.0547-1.5234c0-0.3125-0.17578-0.46484-0.53906-0.46484h-0.78906v0.95312h0.76562c0.39453 0 0.5625-0.14453 0.5625-0.48828zm0.77344 1.5859 1.1055 2.1055h-1.9141l-0.87109-1.8086h-0.42188v1.8086h-1.6836v-5.5859h2.5078c1.4648 0 2.207 0.625 2.207 1.8594 0 0.74219-0.32031 1.3008-0.92969 1.6211zm3.4609-3.5664c-1.332 0-2.2266 0.72656-2.2266 1.8047 0 1.1523 0.70312 1.5352 2 1.832 0.6875 0.16406 0.82812 0.26953 0.82812 0.38672 0 0.14844 0 0.22266-0.52734 0.25391-0.10547 0.007812-0.19531 0.011719-0.26953 0.011719-0.4375 0-0.60547-0.09375-0.77344-0.43359l-0.039062-0.070313-1.6719 0.22656 0.039062 0.125c0.33984 1.0742 1.2227 1.6211 2.625 1.6211 0.60547 0 1.1055-0.10938 1.4883-0.32422l0.054688-0.027344v-2.8906l-0.054688-0.03125c-0.29297-0.16016-0.67188-0.29297-1.1953-0.41797-0.67969-0.16016-0.79688-0.23828-0.79688-0.34766 0-0.082031 0-0.21875 0.44141-0.21875 0.48828 0 0.94141 0.15625 1.4336 0.48828l0.097656 0.058594 0.074219-0.12109v-1.6523l-0.070313-0.027344c-0.42969-0.16406-0.90625-0.24609-1.457-0.24609zm3.5703 4.2031v-0.69922h1.5898v-1.457h-1.5898v-0.49219h2.6406v-1.4688h-4.332v5.5859h4.3828v-1.4688zm-17.344-4.1172-0.41406 1.5234c-0.14062 0.50781-0.31641 1.2266-0.44141 1.7734-0.12109-0.55859-0.30078-1.2812-0.4375-1.7734l-0.41406-1.5234h-1.9062l1.9219 5.5859h1.6602l1.457-4.168-0.011719-1.418zm-5.4023 0v5.5859h1.7383v-4.5078l-0.35938-1.0781zm-17.543 1.7812c-0.12891 0.17578-0.28906 0.375-0.54688 0.67969l-0.089844 0.10547c-0.23828 0.29297-0.44141 0.52734-0.62891 0.71875 0.26172-0.007813 0.57031-0.015625 0.89453-0.015625h0.35547v-0.50391c0-0.24219 0.003906-0.65625 0.015625-0.98438zm5.9414 0.125 2.0977 4.043h-2.2305l-1.2383-2.5234-0.50781 0.61719v1.9062h-1.9258v-1.0469h-0.43359v1.0469h-1.7188v-1.0898h-3.4492v-1.3789l3.3477-3.8438h1.8203v3.6328h0.43359v-3.6328h1.9258v0.81641c0 0.40234-0.003906 0.80859-0.015625 1.168 0.28906-0.41797 0.69922-0.95312 0.99219-1.3281l0.51953-0.65625h2.3242zm4.1094-1.9062h1.7344v3.1836c0 1.6055-0.87891 2.4883-2.4766 2.4883-0.29688 0-0.57812-0.035157-0.83594-0.10156l-0.046875-0.011719-1.5664-3.0234v-0.88281l1.4141-1.6523h0.32422v3.1836c0 0.63672 0.24609 0.95703 0.73438 0.95703 0.48047 0 0.71875-0.3125 0.71875-0.95703zm5.4336 0h1.6445v5.5859h-1.3789l-1.3125-1.8164c-0.15234-0.21094-0.41016-0.58594-0.60547-0.89062 0.011719 0.33594 0.011719 0.74219 0.011719 0.95703v1.75h-1.6445v-5.5859h1.4766l1.2148 1.6328c0.15625 0.21094 0.41406 0.58203 0.60547 0.88281-0.011719-0.33203-0.011719-0.73047-0.011719-0.94141v-1.5742"/>
  </clipPath>
  <linearGradient id="b" x1="-.0044251" x2=".99347" gradientTransform="matrix(-2.8e-7 -6.3277 -6.3277 2.8e-7 279.64 360.66)" gradientUnits="userSpaceOnUse">
   <stop stop-color="#381619" offset="0"/>
   <stop stop-color="#381619" offset=".0078125"/>
   <stop stop-color="#3a1619" offset=".011719"/>
   <stop stop-color="#3a1919" offset=".015625"/>
   <stop stop-color="#3d1c1c" offset=".019531"/>
   <stop stop-color="#3f1c1c" offset=".023438"/>
   <stop stop-color="#3f1e1c" offset=".027344"/>
   <stop stop-color="#42211e" offset=".03125"/>
   <stop stop-color="#44231e" offset=".035156"/>
   <stop stop-color="#47231e" offset=".039062"/>
   <stop stop-color="#472621" offset=".042969"/>
   <stop stop-color="#492821" offset=".046875"/>
   <stop stop-color="#4c2b21" offset=".050781"/>
   <stop stop-color="#4f2d21" offset=".054688"/>
   <stop stop-color="#513023" offset=".058594"/>
   <stop stop-color="#513323" offset=".0625"/>
   <stop stop-color="#543323" offset=".066406"/>
   <stop stop-color="#563523" offset=".070312"/>
   <stop stop-color="#593826" offset=".074219"/>
   <stop stop-color="#593a26" offset=".078125"/>
   <stop stop-color="#5b3d26" offset=".082031"/>
   <stop stop-color="#5e3f26" offset=".085938"/>
   <stop stop-color="#604226" offset=".089844"/>
   <stop stop-color="#604426" offset=".09375"/>
   <stop stop-color="#604426" offset=".097656"/>
   <stop stop-color="#634428" offset=".10156"/>
   <stop stop-color="#634428" offset=".10547"/>
   <stop stop-color="#634728" offset=".10938"/>
   <stop stop-color="#634728" offset=".11328"/>
   <stop stop-color="#664728" offset=".11719"/>
   <stop stop-color="#664728" offset=".12109"/>
   <stop stop-color="#664928" offset=".125"/>
   <stop stop-color="#684928" offset=".12891"/>
   <stop stop-color="#684928" offset=".13281"/>
   <stop stop-color="#684928" offset=".13672"/>
   <stop stop-color="#684c2b" offset=".14062"/>
   <stop stop-color="#6b4c2b" offset=".14453"/>
   <stop stop-color="#6b4c2b" offset=".14844"/>
   <stop stop-color="#6b4f2b" offset=".15234"/>
   <stop stop-color="#6d4f2b" offset=".15625"/>
   <stop stop-color="#6d4f2b" offset=".16016"/>
   <stop stop-color="#6d4f2b" offset=".16406"/>
   <stop stop-color="#6d512b" offset=".16797"/>
   <stop stop-color="#70512b" offset=".17188"/>
   <stop stop-color="#70512d" offset=".17578"/>
   <stop stop-color="#70542d" offset=".17969"/>
   <stop stop-color="#72542d" offset=".18359"/>
   <stop stop-color="#72542d" offset=".1875"/>
   <stop stop-color="#72562d" offset=".19141"/>
   <stop stop-color="#75562d" offset=".19531"/>
   <stop stop-color="#75562d" offset=".19922"/>
   <stop stop-color="#75562d" offset=".20312"/>
   <stop stop-color="#775930" offset=".20703"/>
   <stop stop-color="#775930" offset=".21094"/>
   <stop stop-color="#775930" offset=".21484"/>
   <stop stop-color="#775b30" offset=".21875"/>
   <stop stop-color="#7a5b30" offset=".22266"/>
   <stop stop-color="#7a5b30" offset=".22656"/>
   <stop stop-color="#7a5e30" offset=".23047"/>
   <stop stop-color="#7c5e30" offset=".23438"/>
   <stop stop-color="#7c5e33" offset=".23828"/>
   <stop stop-color="#7c6033" offset=".24219"/>
   <stop stop-color="#7f6033" offset=".24609"/>
   <stop stop-color="#7f6033" offset=".25"/>
   <stop stop-color="#7f6333" offset=".25391"/>
   <stop stop-color="#826333" offset=".25781"/>
   <stop stop-color="#826333" offset=".26172"/>
   <stop stop-color="#826635" offset=".26562"/>
   <stop stop-color="#846635" offset=".26953"/>
   <stop stop-color="#846635" offset=".27344"/>
   <stop stop-color="#846835" offset=".27734"/>
   <stop stop-color="#876835" offset=".28125"/>
   <stop stop-color="#876835" offset=".28516"/>
   <stop stop-color="#876b35" offset=".28906"/>
   <stop stop-color="#896b38" offset=".29297"/>
   <stop stop-color="#896b38" offset=".29688"/>
   <stop stop-color="#896d38" offset=".30078"/>
   <stop stop-color="#8c6d38" offset=".30469"/>
   <stop stop-color="#8c6d38" offset=".30859"/>
   <stop stop-color="#8c7038" offset=".3125"/>
   <stop stop-color="#8e703a" offset=".31641"/>
   <stop stop-color="#8e723a" offset=".32031"/>
   <stop stop-color="#8e723a" offset=".32422"/>
   <stop stop-color="#91723a" offset=".32812"/>
   <stop stop-color="#91753a" offset=".33203"/>
   <stop stop-color="#91753a" offset=".33594"/>
   <stop stop-color="#93753d" offset=".33984"/>
   <stop stop-color="#93773d" offset=".34375"/>
   <stop stop-color="#96773d" offset=".34766"/>
   <stop stop-color="#967a3d" offset=".35156"/>
   <stop stop-color="#967a3d" offset=".35547"/>
   <stop stop-color="#997a3f" offset=".35938"/>
   <stop stop-color="#997c3f" offset=".36328"/>
   <stop stop-color="#997c3f" offset=".36719"/>
   <stop stop-color="#9b7f3f" offset=".37109"/>
   <stop stop-color="#9b7f3f" offset=".375"/>
   <stop stop-color="#9b7f3f" offset=".37891"/>
   <stop stop-color="#9e8242" offset=".38281"/>
   <stop stop-color="#9e8242" offset=".38672"/>
   <stop stop-color="#a08442" offset=".39062"/>
   <stop stop-color="#a08444" offset=".39453"/>
   <stop stop-color="#a38747" offset=".39844"/>
   <stop stop-color="#a38747" offset=".40234"/>
   <stop stop-color="#a58949" offset=".40625"/>
   <stop stop-color="#a58c4c" offset=".41016"/>
   <stop stop-color="#a88c4f" offset=".41406"/>
   <stop stop-color="#a88e4f" offset=".41797"/>
   <stop stop-color="#aa8e51" offset=".42188"/>
   <stop stop-color="#aa9154" offset=".42578"/>
   <stop stop-color="#ad9354" offset=".42969"/>
   <stop stop-color="#af9356" offset=".43359"/>
   <stop stop-color="#af9659" offset=".4375"/>
   <stop stop-color="#b2965b" offset=".44141"/>
   <stop stop-color="#b2995e" offset=".44531"/>
   <stop stop-color="#b59b5e" offset=".44922"/>
   <stop stop-color="#b59b60" offset=".45312"/>
   <stop stop-color="#b79e63" offset=".45703"/>
   <stop stop-color="#b7a066" offset=".46094"/>
   <stop stop-color="#baa068" offset=".46484"/>
   <stop stop-color="#bca368" offset=".46875"/>
   <stop stop-color="#bca56b" offset=".47266"/>
   <stop stop-color="#bfa56d" offset=".47656"/>
   <stop stop-color="#bfa870" offset=".48047"/>
   <stop stop-color="#c1aa72" offset=".48438"/>
   <stop stop-color="#c1aa75" offset=".48828"/>
   <stop stop-color="#c4ad77" offset=".49219"/>
   <stop stop-color="#c6af7a" offset=".49609"/>
   <stop stop-color="#c6af7c" offset=".5"/>
   <stop stop-color="#c9b27c" offset=".50391"/>
   <stop stop-color="#c9b57f" offset=".50781"/>
   <stop stop-color="#ccb582" offset=".51172"/>
   <stop stop-color="#ceb784" offset=".51562"/>
   <stop stop-color="#ceba87" offset=".51953"/>
   <stop stop-color="#d1bc89" offset=".52344"/>
   <stop stop-color="#d1bc8c" offset=".52734"/>
   <stop stop-color="#d3bf8e" offset=".53125"/>
   <stop stop-color="#d6c191" offset=".53516"/>
   <stop stop-color="#d6c493" offset=".53906"/>
   <stop stop-color="#d8c496" offset=".54297"/>
   <stop stop-color="#dbc699" offset=".54688"/>
   <stop stop-color="#dbc99b" offset=".55078"/>
   <stop stop-color="#ddcca0" offset=".55469"/>
   <stop stop-color="#ddcca3" offset=".55859"/>
   <stop stop-color="#e0cea5" offset=".5625"/>
   <stop stop-color="#e0cea5" offset=".56641"/>
   <stop stop-color="#e0d1a8" offset=".57031"/>
   <stop stop-color="#e0cea5" offset=".57422"/>
   <stop stop-color="#ddcca3" offset=".57812"/>
   <stop stop-color="#ddcca0" offset=".58203"/>
   <stop stop-color="#dbc9a0" offset=".58594"/>
   <stop stop-color="#dbc69e" offset=".58984"/>
   <stop stop-color="#d8c49b" offset=".59375"/>
   <stop stop-color="#d8c49b" offset=".59766"/>
   <stop stop-color="#d6c199" offset=".60156"/>
   <stop stop-color="#d6bf96" offset=".60547"/>
   <stop stop-color="#d3bf93" offset=".60938"/>
   <stop stop-color="#d3bc93" offset=".61328"/>
   <stop stop-color="#d1ba91" offset=".61719"/>
   <stop stop-color="#d1ba8e" offset=".62109"/>
   <stop stop-color="#ceb78e" offset=".625"/>
   <stop stop-color="#ccb58c" offset=".62891"/>
   <stop stop-color="#ccb589" offset=".63281"/>
   <stop stop-color="#c9b289" offset=".63672"/>
   <stop stop-color="#c9af87" offset=".64062"/>
   <stop stop-color="#c6ad84" offset=".64453"/>
   <stop stop-color="#c6ad84" offset=".64844"/>
   <stop stop-color="#c4aa82" offset=".65234"/>
   <stop stop-color="#c4a87f" offset=".65625"/>
   <stop stop-color="#c1a87f" offset=".66016"/>
   <stop stop-color="#c1a57c" offset=".66406"/>
   <stop stop-color="#bfa37a" offset=".66797"/>
   <stop stop-color="#bfa37a" offset=".67188"/>
   <stop stop-color="#bca077" offset=".67578"/>
   <stop stop-color="#bca075" offset=".67969"/>
   <stop stop-color="#ba9e75" offset=".68359"/>
   <stop stop-color="#b79b72" offset=".6875"/>
   <stop stop-color="#b79b72" offset=".69141"/>
   <stop stop-color="#b59970" offset=".69531"/>
   <stop stop-color="#b5966d" offset=".69922"/>
   <stop stop-color="#b2966d" offset=".70312"/>
   <stop stop-color="#b2936b" offset=".70703"/>
   <stop stop-color="#af916b" offset=".71094"/>
   <stop stop-color="#af9168" offset=".71484"/>
   <stop stop-color="#ad8e66" offset=".71875"/>
   <stop stop-color="#ad8e66" offset=".72266"/>
   <stop stop-color="#aa8c63" offset=".72656"/>
   <stop stop-color="#aa8963" offset=".73047"/>
   <stop stop-color="#a88960" offset=".73438"/>
   <stop stop-color="#a88760" offset=".73828"/>
   <stop stop-color="#a5875e" offset=".74219"/>
   <stop stop-color="#a5845b" offset=".74609"/>
   <stop stop-color="#a3825b" offset=".75"/>
   <stop stop-color="#a38259" offset=".75391"/>
   <stop stop-color="#a07f59" offset=".75781"/>
   <stop stop-color="#a07f56" offset=".76172"/>
   <stop stop-color="#9e7c56" offset=".76562"/>
   <stop stop-color="#9e7c54" offset=".76953"/>
   <stop stop-color="#9b7a54" offset=".77344"/>
   <stop stop-color="#9b7751" offset=".77734"/>
   <stop stop-color="#997751" offset=".78125"/>
   <stop stop-color="#99754f" offset=".78516"/>
   <stop stop-color="#96754f" offset=".78906"/>
   <stop stop-color="#96724c" offset=".79297"/>
   <stop stop-color="#93724c" offset=".79688"/>
   <stop stop-color="#937049" offset=".80078"/>
   <stop stop-color="#917049" offset=".80469"/>
   <stop stop-color="#916d47" offset=".80859"/>
   <stop stop-color="#916d47" offset=".8125"/>
   <stop stop-color="#8e6b47" offset=".81641"/>
   <stop stop-color="#8e6b44" offset=".82031"/>
   <stop stop-color="#8e6844" offset=".82422"/>
   <stop stop-color="#8e6842" offset=".82812"/>
   <stop stop-color="#8c6642" offset=".83203"/>
   <stop stop-color="#8c6642" offset=".83594"/>
   <stop stop-color="#8c633f" offset=".83984"/>
   <stop stop-color="#8c633f" offset=".84375"/>
   <stop stop-color="#8c603d" offset=".84766"/>
   <stop stop-color="#89603d" offset=".85156"/>
   <stop stop-color="#89603d" offset=".85547"/>
   <stop stop-color="#895e3a" offset=".85938"/>
   <stop stop-color="#895e3a" offset=".86328"/>
   <stop stop-color="#895b3a" offset=".86719"/>
   <stop stop-color="#875b38" offset=".87109"/>
   <stop stop-color="#875938" offset=".875"/>
   <stop stop-color="#875938" offset=".87891"/>
   <stop stop-color="#875635" offset=".88281"/>
   <stop stop-color="#845635" offset=".88672"/>
   <stop stop-color="#845435" offset=".89062"/>
   <stop stop-color="#845433" offset=".89453"/>
   <stop stop-color="#845433" offset=".89844"/>
   <stop stop-color="#845133" offset=".90234"/>
   <stop stop-color="#825130" offset=".90625"/>
   <stop stop-color="#824f30" offset=".91016"/>
   <stop stop-color="#824f30" offset=".91406"/>
   <stop stop-color="#824c2d" offset=".91797"/>
   <stop stop-color="#824c2d" offset=".92188"/>
   <stop stop-color="#7f4c2d" offset=".92578"/>
   <stop stop-color="#7f492b" offset=".92969"/>
   <stop stop-color="#7f492b" offset=".93359"/>
   <stop stop-color="#7f472b" offset=".9375"/>
   <stop stop-color="#7c4728" offset=".94141"/>
   <stop stop-color="#7c4728" offset=".94531"/>
   <stop stop-color="#7c4428" offset=".94922"/>
   <stop stop-color="#7c4428" offset=".95312"/>
   <stop stop-color="#7c4226" offset=".95703"/>
   <stop stop-color="#7a4226" offset=".96094"/>
   <stop stop-color="#7a4226" offset=".96875"/>
   <stop stop-color="#7a4226" offset="1"/>
  </linearGradient>
  <clipPath id="e">
   <path d="m256 354h47v7h-47z"/>
  </clipPath>
  <clipPath id="d">
   <path d="m259.93 357.51v0.60547h-0.45703c-0.41797 0-0.83594 0.007813-1.1445 0.023438 0.23047-0.21484 0.48047-0.49609 0.80469-0.89062l0.085937-0.10547c0.40234-0.48047 0.57031-0.69922 0.73438-0.94922-0.015625 0.28516-0.023437 0.96094-0.023437 1.3164zm5.7383-0.87109 1.8438-2.1602h-2.0625l-0.48828 0.62109c-0.39453 0.49609-0.92578 1.207-1.1797 1.6055 0.015625-0.44531 0.027344-0.99609 0.027344-1.5078v-0.71875h-1.7305v3.6367h-0.62891v-3.6367h-1.6797l-3.293 3.7852v1.2383h3.4531v1.0938h1.5195v-1.0508h0.62891v1.0508h1.7305v-1.8438l0.62891-0.76172 1.2734 2.6055h2.0117zm37.051 3.582v-1.25h-2.6953v-0.91797h1.5898v-1.2344h-1.5898v-0.71484h2.6406v-1.25h-4.1133v5.3672zm-4.7383-2.9844c-0.29688-0.16016-0.68359-0.28906-1.168-0.40625-0.6875-0.16016-0.87891-0.25391-0.87891-0.45312 0-0.19141 0.10547-0.32812 0.55078-0.32812 0.54297 0 1.0195 0.18359 1.4961 0.50781v-1.5508c-0.40234-0.15625-0.86328-0.23828-1.418-0.23828-1.2969 0-2.1172 0.68359-2.1172 1.6953 0 1.0742 0.62109 1.4258 1.918 1.7266 0.71875 0.16797 0.91016 0.29297 0.91016 0.49219 0 0.25-0.10156 0.33203-0.62891 0.36328-0.66797 0.039062-0.92188-0.03125-1.1523-0.48047l-1.4648 0.19922c0.42188 1.3359 1.6523 1.543 2.5195 1.543 0.5625 0 1.0586-0.097657 1.4336-0.30859zm-5.5391-0.59766c0 0.38281-0.19531 0.59766-0.67578 0.59766h-0.875v-1.1719h0.89844c0.46484 0 0.65234 0.23828 0.65234 0.57422zm1.5859 3.582-1.0742-2.0469c0.58984-0.26953 0.96484-0.76562 0.96484-1.5703 0-1.2773-0.83203-1.75-2.0938-1.75h-2.3984v5.3672h1.4648v-1.8086h0.59766l0.875 1.8086zm-5.1719 0v-1.25h-2.6914v-0.91797h1.5898v-1.2344h-1.5898v-0.71484h2.6406v-1.25h-4.1133v5.3672zm-4.7617-5.3672h-1.2227l-0.39062 1.4414c-0.18359 0.67578-0.44531 1.7578-0.54688 2.2695-0.097656-0.51172-0.35938-1.6016-0.54297-2.2695l-0.39062-1.4414h-1.6719l1.8477 5.3672h1.5039l1.4258-4.0742zm-5.0781 5.3672v-4.3828l-0.32812-0.98438h-1.1914v5.3672zm-2.1523 0v-5.3672h-1.4258v1.4648c0 0.4375 0.003906 1.1484 0.042969 1.3867-0.11328-0.22266-0.58984-0.93359-0.83594-1.2656l-1.1797-1.5859h-1.3125v5.3672h1.4258v-1.6406c0-0.4375-0.003906-1.1484-0.042969-1.3867 0.13672 0.23828 0.59766 0.92578 0.83594 1.2578l1.2812 1.7695zm-5.3398-5.3672v3.0742c0 1.7031-1.0234 2.3789-2.3711 2.3789-0.28906 0-0.55859-0.03125-0.80859-0.097657l-1.5312-2.957v-0.8125l1.3555-1.5859h0.16406v3.0742c0 0.66016 0.25781 1.0664 0.84375 1.0664 0.58203 0 0.82812-0.40625 0.82812-1.0664v-3.0742z"/>
  </clipPath>
  <clipPath id="c">
   <path d="m259.93 357.51v0.60547h-0.45703c-0.41797 0-0.83594 0.007813-1.1445 0.023438 0.23047-0.21484 0.48047-0.49609 0.80469-0.89062l0.085937-0.10547c0.40234-0.48047 0.57031-0.69922 0.73438-0.94922-0.015625 0.28516-0.023437 0.96094-0.023437 1.3164zm5.7383-0.87109 1.8438-2.1602h-2.0625l-0.48828 0.62109c-0.39453 0.49609-0.92578 1.207-1.1797 1.6055 0.015625-0.44531 0.027344-0.99609 0.027344-1.5078v-0.71875h-1.7305v3.6367h-0.62891v-3.6367h-1.6797l-3.293 3.7852v1.2383h3.4531v1.0938h1.5195v-1.0508h0.62891v1.0508h1.7305v-1.8438l0.62891-0.76172 1.2734 2.6055h2.0117zm37.051 3.582v-1.25h-2.6953v-0.91797h1.5898v-1.2344h-1.5898v-0.71484h2.6406v-1.25h-4.1133v5.3672zm-4.7383-2.9844c-0.29688-0.16016-0.68359-0.28906-1.168-0.40625-0.6875-0.16016-0.87891-0.25391-0.87891-0.45312 0-0.19141 0.10547-0.32812 0.55078-0.32812 0.54297 0 1.0195 0.18359 1.4961 0.50781v-1.5508c-0.40234-0.15625-0.86328-0.23828-1.418-0.23828-1.2969 0-2.1172 0.68359-2.1172 1.6953 0 1.0742 0.62109 1.4258 1.918 1.7266 0.71875 0.16797 0.91016 0.29297 0.91016 0.49219 0 0.25-0.10156 0.33203-0.62891 0.36328-0.66797 0.039062-0.92188-0.03125-1.1523-0.48047l-1.4648 0.19922c0.42188 1.3359 1.6523 1.543 2.5195 1.543 0.5625 0 1.0586-0.097657 1.4336-0.30859zm-5.5391-0.59766c0 0.38281-0.19531 0.59766-0.67578 0.59766h-0.875v-1.1719h0.89844c0.46484 0 0.65234 0.23828 0.65234 0.57422zm1.5859 3.582-1.0742-2.0469c0.58984-0.26953 0.96484-0.76562 0.96484-1.5703 0-1.2773-0.83203-1.75-2.0938-1.75h-2.3984v5.3672h1.4648v-1.8086h0.59766l0.875 1.8086zm-5.1719 0v-1.25h-2.6914v-0.91797h1.5898v-1.2344h-1.5898v-0.71484h2.6406v-1.25h-4.1133v5.3672zm-4.7617-5.3672h-1.2227l-0.39062 1.4414c-0.18359 0.67578-0.44531 1.7578-0.54688 2.2695-0.097656-0.51172-0.35938-1.6016-0.54297-2.2695l-0.39062-1.4414h-1.6719l1.8477 5.3672h1.5039l1.4258-4.0742zm-5.0781 5.3672v-4.3828l-0.32812-0.98438h-1.1914v5.3672zm-2.1523 0v-5.3672h-1.4258v1.4648c0 0.4375 0.003906 1.1484 0.042969 1.3867-0.11328-0.22266-0.58984-0.93359-0.83594-1.2656l-1.1797-1.5859h-1.3125v5.3672h1.4258v-1.6406c0-0.4375-0.003906-1.1484-0.042969-1.3867 0.13672 0.23828 0.59766 0.92578 0.83594 1.2578l1.2812 1.7695zm-5.3398-5.3672v3.0742c0 1.7031-1.0234 2.3789-2.3711 2.3789-0.28906 0-0.55859-0.03125-0.80859-0.097657l-1.5312-2.957v-0.8125l1.3555-1.5859h0.16406v3.0742c0 0.66016 0.25781 1.0664 0.84375 1.0664 0.58203 0 0.82812-0.40625 0.82812-1.0664v-3.0742h1.5195"/>
  </clipPath>
  <linearGradient id="a" x1=".00038625" x2=".98515" gradientTransform="matrix(-2.7e-7 -6.211 -6.211 2.7e-7 279.6 360.6)" gradientUnits="userSpaceOnUse">
   <stop stop-color="#d68916" offset="0"/>
   <stop stop-color="#d68916" offset=".125"/>
   <stop stop-color="#d68916" offset=".15625"/>
   <stop stop-color="#d68716" offset=".1875"/>
   <stop stop-color="#d68716" offset=".20312"/>
   <stop stop-color="#d38716" offset=".21875"/>
   <stop stop-color="#d38716" offset=".23438"/>
   <stop stop-color="#d38716" offset=".25"/>
   <stop stop-color="#d38716" offset=".26562"/>
   <stop stop-color="#d38416" offset=".27344"/>
   <stop stop-color="#d38416" offset=".28125"/>
   <stop stop-color="#d38416" offset=".28906"/>
   <stop stop-color="#d38416" offset=".29688"/>
   <stop stop-color="#d38419" offset=".30469"/>
   <stop stop-color="#d38419" offset=".3125"/>
   <stop stop-color="#d38419" offset=".32031"/>
   <stop stop-color="#d18219" offset=".32812"/>
   <stop stop-color="#d18219" offset=".33594"/>
   <stop stop-color="#d18219" offset=".34375"/>
   <stop stop-color="#d18219" offset=".35156"/>
   <stop stop-color="#d18219" offset=".35938"/>
   <stop stop-color="#d18219" offset=".36719"/>
   <stop stop-color="#d17f19" offset=".375"/>
   <stop stop-color="#d17f19" offset=".38281"/>
   <stop stop-color="#ce7f19" offset=".39062"/>
   <stop stop-color="#ce7f19" offset=".39844"/>
   <stop stop-color="#ce7f19" offset=".40234"/>
   <stop stop-color="#ce7c19" offset=".40625"/>
   <stop stop-color="#ce7c19" offset=".41016"/>
   <stop stop-color="#ce7c19" offset=".41406"/>
   <stop stop-color="#ce7c19" offset=".41797"/>
   <stop stop-color="#ce7c19" offset=".42188"/>
   <stop stop-color="#ce7c19" offset=".42578"/>
   <stop stop-color="#ce7c19" offset=".42969"/>
   <stop stop-color="#ce7c19" offset=".43359"/>
   <stop stop-color="#cc7a19" offset=".4375"/>
   <stop stop-color="#cc7a19" offset=".44141"/>
   <stop stop-color="#cc7a19" offset=".44531"/>
   <stop stop-color="#cc7a1c" offset=".44922"/>
   <stop stop-color="#cc7a1c" offset=".45312"/>
   <stop stop-color="#cc7a1c" offset=".45703"/>
   <stop stop-color="#cc7a1c" offset=".46094"/>
   <stop stop-color="#cc7a1c" offset=".46484"/>
   <stop stop-color="#cc771c" offset=".46875"/>
   <stop stop-color="#cc771c" offset=".47266"/>
   <stop stop-color="#cc771c" offset=".47656"/>
   <stop stop-color="#c9771c" offset=".48047"/>
   <stop stop-color="#c9771c" offset=".48438"/>
   <stop stop-color="#c9771c" offset=".48828"/>
   <stop stop-color="#c9751c" offset=".49219"/>
   <stop stop-color="#c9751c" offset=".49609"/>
   <stop stop-color="#c9751c" offset=".5"/>
   <stop stop-color="#c9751c" offset=".50391"/>
   <stop stop-color="#c9771c" offset=".50781"/>
   <stop stop-color="#cc7a1c" offset=".51172"/>
   <stop stop-color="#d17c19" offset=".51562"/>
   <stop stop-color="#d37f19" offset=".51953"/>
   <stop stop-color="#d68216" offset=".52344"/>
   <stop stop-color="#d88416" offset=".52734"/>
   <stop stop-color="#db8716" offset=".53125"/>
   <stop stop-color="#dd8914" offset=".53516"/>
   <stop stop-color="#e08c14" offset=".53906"/>
   <stop stop-color="#e28e11" offset=".54297"/>
   <stop stop-color="#e89111" offset=".54688"/>
   <stop stop-color="#e89111" offset=".55078"/>
   <stop stop-color="#e89311" offset=".55469"/>
   <stop stop-color="#e89311" offset=".55859"/>
   <stop stop-color="#e89611" offset=".5625"/>
   <stop stop-color="#e89611" offset=".56641"/>
   <stop stop-color="#e89614" offset=".57031"/>
   <stop stop-color="#e89914" offset=".57422"/>
   <stop stop-color="#e89914" offset=".57812"/>
   <stop stop-color="#e89914" offset=".58203"/>
   <stop stop-color="#e89b14" offset=".58594"/>
   <stop stop-color="#e89b14" offset=".58984"/>
   <stop stop-color="#e89b14" offset=".59375"/>
   <stop stop-color="#e89e14" offset=".59766"/>
   <stop stop-color="#e89e16" offset=".60156"/>
   <stop stop-color="#e89e16" offset=".60547"/>
   <stop stop-color="#e89e16" offset=".60938"/>
   <stop stop-color="#e8a016" offset=".61328"/>
   <stop stop-color="#e8a016" offset=".61719"/>
   <stop stop-color="#e8a016" offset=".62109"/>
   <stop stop-color="#e8a316" offset=".625"/>
   <stop stop-color="#e8a316" offset=".62891"/>
   <stop stop-color="#e8a319" offset=".63281"/>
   <stop stop-color="#e8a519" offset=".63672"/>
   <stop stop-color="#e8a519" offset=".64062"/>
   <stop stop-color="#e8a519" offset=".64453"/>
   <stop stop-color="#e8a819" offset=".64844"/>
   <stop stop-color="#e8a819" offset=".65234"/>
   <stop stop-color="#e8a819" offset=".65625"/>
   <stop stop-color="#e8aa1c" offset=".66016"/>
   <stop stop-color="#e8aa1c" offset=".66406"/>
   <stop stop-color="#e8aa1c" offset=".66797"/>
   <stop stop-color="#e8ad1c" offset=".67188"/>
   <stop stop-color="#e8ad1c" offset=".67578"/>
   <stop stop-color="#e8ad1c" offset=".67969"/>
   <stop stop-color="#e8af1c" offset=".68359"/>
   <stop stop-color="#e8af1e" offset=".6875"/>
   <stop stop-color="#e8af1e" offset=".69141"/>
   <stop stop-color="#e8b21e" offset=".69531"/>
   <stop stop-color="#e8b21e" offset=".69922"/>
   <stop stop-color="#e8b21e" offset=".70312"/>
   <stop stop-color="#eab21e" offset=".70703"/>
   <stop stop-color="#eab521" offset=".71094"/>
   <stop stop-color="#eab521" offset=".71484"/>
   <stop stop-color="#eab521" offset=".71875"/>
   <stop stop-color="#eab721" offset=".72266"/>
   <stop stop-color="#eab721" offset=".72656"/>
   <stop stop-color="#eab721" offset=".73047"/>
   <stop stop-color="#eaba23" offset=".73438"/>
   <stop stop-color="#eaba23" offset=".73828"/>
   <stop stop-color="#eaba23" offset=".74219"/>
   <stop stop-color="#eabc23" offset=".74609"/>
   <stop stop-color="#eabc23" offset=".75"/>
   <stop stop-color="#eabc23" offset=".75391"/>
   <stop stop-color="#eabf26" offset=".75781"/>
   <stop stop-color="#eabf26" offset=".76172"/>
   <stop stop-color="#eabf26" offset=".76562"/>
   <stop stop-color="#eac126" offset=".76953"/>
   <stop stop-color="#eac126" offset=".77344"/>
   <stop stop-color="#eac126" offset=".77734"/>
   <stop stop-color="#eac428" offset=".78125"/>
   <stop stop-color="#eac428" offset=".78516"/>
   <stop stop-color="#eac428" offset=".78906"/>
   <stop stop-color="#eac628" offset=".79297"/>
   <stop stop-color="#eac628" offset=".79688"/>
   <stop stop-color="#eac62b" offset=".80078"/>
   <stop stop-color="#eac92b" offset=".80469"/>
   <stop stop-color="#eac92b" offset=".80859"/>
   <stop stop-color="#eac92b" offset=".8125"/>
   <stop stop-color="#eacc2b" offset=".81641"/>
   <stop stop-color="#eacc2b" offset=".82031"/>
   <stop stop-color="#eacc2d" offset=".82422"/>
   <stop stop-color="#eace2d" offset=".82812"/>
   <stop stop-color="#eace2d" offset=".83203"/>
   <stop stop-color="#eace30" offset=".83594"/>
   <stop stop-color="#ead133" offset=".83984"/>
   <stop stop-color="#ead133" offset=".84375"/>
   <stop stop-color="#ead135" offset=".84766"/>
   <stop stop-color="#edd135" offset=".85156"/>
   <stop stop-color="#edd338" offset=".85547"/>
   <stop stop-color="#edd33a" offset=".85938"/>
   <stop stop-color="#edd33a" offset=".86328"/>
   <stop stop-color="#edd63d" offset=".86719"/>
   <stop stop-color="#edd63f" offset=".87109"/>
   <stop stop-color="#efd63f" offset=".875"/>
   <stop stop-color="#efd842" offset=".87891"/>
   <stop stop-color="#efd844" offset=".88281"/>
   <stop stop-color="#efd844" offset=".88672"/>
   <stop stop-color="#efdb47" offset=".89062"/>
   <stop stop-color="#efdb49" offset=".89453"/>
   <stop stop-color="#f2db49" offset=".89844"/>
   <stop stop-color="#f2dd4c" offset=".90234"/>
   <stop stop-color="#f2dd4f" offset=".90625"/>
   <stop stop-color="#f2dd4f" offset=".91016"/>
   <stop stop-color="#f2e051" offset=".91406"/>
   <stop stop-color="#f2e054" offset=".91797"/>
   <stop stop-color="#f2e054" offset=".92188"/>
   <stop stop-color="#f4e256" offset=".92578"/>
   <stop stop-color="#f4e259" offset=".92969"/>
   <stop stop-color="#f4e25b" offset=".93359"/>
   <stop stop-color="#f4e55b" offset=".9375"/>
   <stop stop-color="#f4e55e" offset=".94141"/>
   <stop stop-color="#f4e560" offset=".94531"/>
   <stop stop-color="#f7e860" offset=".94922"/>
   <stop stop-color="#f7e863" offset=".95312"/>
   <stop stop-color="#f7ea66" offset=".95703"/>
   <stop stop-color="#f7ea68" offset=".96094"/>
   <stop stop-color="#f7ea68" offset=".96484"/>
   <stop stop-color="#f7ed6b" offset=".96875"/>
   <stop stop-color="#f9ed6d" offset=".97266"/>
   <stop stop-color="#f9ed70" offset=".97656"/>
   <stop stop-color="#f9ef72" offset=".98047"/>
   <stop stop-color="#f9ef72" offset=".98438"/>
   <stop stop-color="#f9ef75" offset=".98828"/>
   <stop stop-color="#f9f277" offset=".99219"/>
   <stop stop-color="#fcf27a" offset=".99609"/>
   <stop stop-color="#fcf47a" offset="1"/>
  </linearGradient>
 </defs>
 <g transform="translate(-111.06 -235.48)">
  <g transform="matrix(21.531 0 0 21.531 -5409 -7394.5)">
   <g transform="translate(0 4.0234e-6)" clip-path="url(#h)">
    <g clip-path="url(#g)">
     <g clip-path="url(#f)">
      <path d="m302.82 360.69h-46.445v-6.3125h46.445z" fill="url(#b)"/>
     </g>
    </g>
   </g>
   <g transform="translate(0 4.0234e-6)" clip-path="url(#e)">
    <g clip-path="url(#d)">
     <g clip-path="url(#c)">
      <path d="m302.72 360.59h-46.242v-6.1172h46.242z" fill="url(#a)"/>
     </g>
    </g>
   </g>
  </g>
 </g>
</svg>
