<svg width="316" height="315.41" version="1.1" xmlns="http://www.w3.org/2000/svg">
 <defs>
  <style type="text/css">.fil0 {fill:#140F10;fill-rule:nonzero}</style>
  <linearGradient id="linearGradient3074" x1="160.95" x2="296.85" y1="157.08" y2="157.08" gradientTransform="translate(-260.86 477.52)" gradientUnits="userSpaceOnUse">
   <stop offset="0"/>
   <stop stop-opacity="0" offset="1"/>
  </linearGradient>
  <linearGradient id="linearGradient3098" x1="70.673" x2="166.2" y1="26.32" y2="131.94" gradientTransform="translate(-260.86 477.52)" gradientUnits="userSpaceOnUse">
   <stop stop-color="#999" offset="0"/>
   <stop stop-color="#999" stop-opacity="0" offset="1"/>
  </linearGradient>
  <linearGradient id="linearGradient3105" x1="158.94" x2="158.94" y1="91.328" y2="303.48" gradientTransform="translate(-260.86 477.52)" gradientUnits="userSpaceOnUse">
   <stop offset="0"/>
   <stop stop-opacity="0" offset="1"/>
  </linearGradient>
  <radialGradient id="radialGradient3109" cx="259.42" cy="201.75" r="158" gradientTransform="matrix(.73337 2.0204 -1.7843 .64769 144.86 82.772)" gradientUnits="userSpaceOnUse">
   <stop stop-color="#808080" offset="0"/>
   <stop offset="1"/>
  </radialGradient>
 </defs>
 <g transform="translate(260.86 -477.52)">
  <path d="m-106.88 479.56c-53.206 0.81017-104.46 31.365-130.91 77.397-29.197 49.041-27.909 114.45 3.531 162.2 29.335 46.578 84.554 74.96 139.44 71.531 56.578-2.2297 109.9-38.285 133.38-89.688 24.541-51.195 17.597-115.73-17.562-160.44-29.764-39.234-78.429-62.588-127.88-61z" fill="url(#radialGradient3109)" fill-rule="evenodd"/>
  <path d="m-106.88 479.56c-53.206 0.81017-104.46 31.365-130.91 77.397-29.197 49.041-27.909 114.45 3.531 162.2 29.335 46.578 84.554 74.96 139.44 71.531 56.578-2.2297 109.9-38.285 133.38-89.688 24.541-51.195 17.597-115.73-17.562-160.44-29.764-39.234-78.429-62.588-127.88-61z" fill="url(#linearGradient3105)" fill-rule="evenodd"/>
  <path d="m-255.61 598.65c5.4937-20.157 9.1217-35.715 36.849-69.266 15.823-14.68 29.242-29.248 62.984-41.938 17.719-5.7712 35.158-9.1502 53.354-9.1522 22.951-2e-3 46.149 4.5788 69.507 16.218-1.5257 55.507-17.341 83.188-38.443 100.57-42.277 32.249-79.089 41.858-114.16 44.268-32.105 1.6836-54.004-20.129-71.384-35.377-0.28176-0.24719 1.5771-5.0827 1.2977-5.3263z" fill="url(#linearGradient3098)"/>
  <path d="m-204.36 586.58c-26.333 0-47.461 21.579-47.461 48.331 0 26.753 21.128 48.331 47.461 48.331 16.17 0 22.491-11.611 22.491-11.611v10.563h24.971v-47.283c0-26.753-21.128-48.331-47.461-48.331zm0 25.269c12.555 0 22.619 10.297 22.619 23.062s-10.064 23.062-22.619 23.062-22.619-10.297-22.619-23.062 10.064-23.062 22.619-23.062z" fill="url(#linearGradient3074)"/>
  <path d="m-206.62 585.7c-27.438 0-49.454 22.105-49.454 49.51s22.015 49.51 49.454 49.51c16.848 0 23.435-11.895 23.435-11.895v10.821h26.019v-48.437c0-27.405-22.015-49.51-49.454-49.51zm0 25.886c13.082 0 23.568 10.548 23.568 23.625s-10.486 23.625-23.568 23.625-23.568-10.548-23.568-23.625 10.486-23.625 23.568-23.625z" fill="#fff" stroke="#000" stroke-width=".78858"/>
  <path d="m-150.87 551.61v83.606c0 27.405 22.032 49.528 49.471 49.528 27.438 0 49.414-22.122 49.414-49.528 0-27.405-21.976-49.528-49.414-49.528-16.848 0-23.458 11.928-23.458 11.928v-46.006zm49.471 59.979c13.082 0 23.571 10.551 23.571 23.628s-10.489 23.628-23.571 23.628-23.571-10.551-23.571-23.628 10.489-23.628 23.571-23.628z" fill="#fff" stroke="#000" stroke-width=".78858"/>
  <path d="m1.7093 585.7c-27.438 0-49.454 22.105-49.454 49.51s22.015 49.51 49.454 49.51c23.684 0 43.335-16.471 48.267-38.602h-27.355c-3.9237 7.5473-11.782 12.717-20.912 12.717-13.082 0-23.568-10.548-23.568-23.625s10.486-23.625 23.568-23.625c9.1574 0 17.057 5.189 20.969 12.773h27.298c-4.9124-22.159-24.564-38.659-48.267-38.659z" fill="#fff" stroke="#000" stroke-width=".78858"/>
  <path d="m-102.86 477.52c-87.261 0-158 70.595-158 157.69 0 87.093 70.739 157.72 158 157.72s158-70.626 158-157.72c0-87.093-70.739-157.69-158-157.69zm-0.3125 3.0312c85.408 0 154.66 69.132 154.66 154.38s-69.248 154.34-154.66 154.34c-85.408 0-154.62-69.1-154.62-154.34s69.217-154.38 154.62-154.38z" fill-rule="evenodd"/>
 </g>
</svg>
