<svg width="553.71pt" height="600pt" version="1.1" viewBox="0 0 553.71 600" xmlns="http://www.w3.org/2000/svg">
 <g transform="matrix(3.1208 0 0 3.1208 0 -.012191)">
  <path d="m41.863 158.12c0-0.13672 0.0039-0.63281 0.0039-0.77343 0-15.746-9.3711-21.074-20.934-21.074-11.562 0-20.934 7.5898-20.934 21.074 0 0.15625 0.0039062 1.5938 0.0039062 1.7422 0 13.727 8.5859 20.359 19.996 20.359 4.0195 0 7.9258-1.4609 11.297-3.7695v3.0039h10.57v-20.07h-0.02344c0.0039-0.16016 0.01953-0.32422 0.01953-0.49219m-10.566 2.1406c0 5.5547-4.5078 10.066-10.07 10.066-5.5586 0-10.066-4.5117-10.066-10.066v-4.7891c0-5.5664 4.5078-10.07 10.066-10.07 5.5625 0 10.07 4.5039 10.07 10.07v4.7891" fill="#194a9c"/>
  <path d="m46.711 158.6h-0.01953v33.664h10.574v-16.602c3.3633 2.3086 7.2656 3.7734 11.297 3.7734 11.406 0 19.988-6.6367 19.988-20.363 0-0.14844 0.0078-1.5859 0.0078-1.7383 0-13.488-9.375-21.078-20.938-21.078-11.559 0-20.93 5.3281-20.93 21.078 0 0.14063 0.0039 0.63281 0.0039 0.77344 0 0.16015 0.01172 0.32812 0.01563 0.49219m10.555-3.1484c0-5.5625 4.5078-10.062 10.07-10.062 5.5547 0 10.07 4.5 10.07 10.062v4.7891c0 5.5625-4.5156 10.07-10.07 10.07-5.5625 0-10.07-4.5078-10.07-10.07v-4.7891" fill="#194a9c"/>
  <path d="m104.25 146.98v18.227c0.16406 0.65625 0.5 1.2539 0.98047 1.8008 0.42187 0.4375 0.99609 0.84375 1.7266 1.2188 0.75 0.38281 1.7109 0.57421 2.9102 0.57421h6.7617v9.8906h-10.871c-2.3125-0.21484-4.3906-0.80859-6.2305-1.7969-1.5469-0.82031-2.9531-2.0273-4.2422-3.6406-1.2734-1.6055-1.9062-3.8242-1.9062-6.6562v-40.453h10.871v11.113h10.238v9.7226h-10.238" fill="#194a9c"/>
  <path d="m141.5 136.2c0.17969 0 0.8125 0.0273 1.9102 0.0781 1.0976 0.0586 2.3984 0.29297 3.875 0.69922 1.4961 0.40625 3.0508 1.0469 4.7226 1.9141 1.6641 0.875 3.2148 2.1289 4.6367 3.7617 1.4297 1.6367 2.5977 3.6953 3.5156 6.168 0.91015 2.4883 1.3672 5.543 1.3672 9.1953v20.676h-10.848v-20.676c0-1.1992-0.1211-2.418-0.36719-3.6719-0.22656-1.2539-0.67188-2.4102-1.3242-3.4336-0.66797-1.0352-1.582-1.8945-2.7734-2.5781-1.1836-0.67968-2.75-1.0195-4.7148-1.0195s-3.543 0.33985-4.7227 1.0195c-1.1836 0.6836-2.1055 1.543-2.7578 2.5781-0.65625 1.0234-1.1055 2.1797-1.332 3.4336-0.24219 1.2539-0.36328 2.4727-0.36328 3.6719v20.676h-10.875v-20.676c0-3.6524 0.47266-6.707 1.3867-9.1953 0.92187-2.4727 2.0938-4.5312 3.5195-6.168 1.4219-1.6328 2.9766-2.8867 4.6367-3.7617 1.6641-0.86719 3.2266-1.5078 4.7226-1.9141 1.4766-0.40625 2.75-0.64063 3.8203-0.69922 1.0625-0.0508 1.7266-0.0781 1.9648-0.0781" fill="#194a9c"/>
  <path d="m80.836 75.547c16.652-0.77734 24.164 13.801 38.125 13.664 13.941-0.14453 23.332-7.0547 24.035-7.6172 0.71485-0.57422 1.2734 0.08594 0.71485 0.70703-0.44141 0.50391-9.6875 8.4766-16.938 10.426-7.4024 2-15.375 2.7344-24.633 0.16016-11.34-3.168-20.598-15.902-38.117-6.9531-1.6484 0.84766-2.707 0.39062-1.9883-0.50391 1.6992-2.1367 6.8438-9.4492 18.801-9.8828" fill="#194a9c"/>
  <path d="m140.83 76.18c-1.9141-10.668-17.293-26.922-37.445-26.922-20.137 0-36.234 17.695-37.43 26.891 0 0-0.30859 1.9297-1.1602 1.9922-1.2383 0.07813-0.80859-1.3438-0.80859-1.3438 3.0352-20.859 18.195-36.832 39.398-36.832 21.215 0 37.055 15.973 39.344 36.574 0 0 0.0312 0.84375-0.65234 0.94922-1.0391 0.14453-1.2461-1.3086-1.2461-1.3086" fill="#f8382b"/>
  <path d="m93.316 67.434c0-6.4844 5.2617-11.75 11.75-11.75s11.754 5.2656 11.754 11.75c0 6.4922-5.2656 11.754-11.754 11.754-6.4883 0-11.75-5.2617-11.75-11.754" fill="#f8a130"/>
  <path d="m73.492 49.133h-0.07813c-1.1133-0.125-2.2539-0.21094-3.4414-0.3125-6.3867-0.49609-13.621-1.0586-17.082-7.6758-1.6914-2.9688-1.1406-5.8281-0.61328-8.5898 0.42188-2.1445 0.8125-4.1641 0.21875-6.2266-0.58203-2.582-2.125-4.6484-4.6094-6.168-0.28125-0.13672-1.7969-0.93359-2.0703-1.6016-0.10547-0.28125-0.10156-0.51953 0.03125-0.69922 0.14062-0.21484 0.41406-0.32031 0.80859-0.32031 0.49219 0 1.0391 0.14453 1.0508 0.15234 4.0078 1.1836 6.1562 3.0742 7.9414 6.9922 0.42187 0.99609 0.64453 2.0898 0.69922 3.3438 0.01563 0.85547-0.05469 1.7617-0.13281 2.6367-0.16016 1.8594-0.32422 3.7891 0.49219 5.4062 1.3477 1.9336 2.8398 2.4531 4.5781 3.0508 0.30469 0.10547 0.61328 0.21094 0.91406 0.33203 1.4297 0.51172 3.1602 0.58203 4.832 0.65234 3.6328 0.15625 7.3945 0.31641 8.6797 4.8555 0.17969 1.0859 0.18359 1.5117-0.10938 2.5312l-0.02734 0.05469c-0.62109 1.0508-1.2383 1.2734-2.0195 1.5664l-0.0625 0.01953" fill="#f8a130"/>
  <path d="m60.156 67.125c-0.33984 0-0.67969-0.04687-1.0312-0.14062-0.89453-0.44531-1.582-1.1992-2.25-1.9219-0.67578-0.74609-1.3164-1.4492-2-1.6602-0.40625-0.10547-0.84766-0.14844-1.3359-0.14844-1.1797 0-2.3828 0.29688-3.6484 0.60547-1.4219 0.34375-2.8906 0.70703-4.3477 0.63281h-0.0625c-6.1172 0-11.809-3.4531-14.848-9.0039-1.7734-2.9023-1.1992-5.9883-0.26953-9.7266 0.18359-0.71875 0.58984-1.1836 1.0273-1.1836 0.17188 0 0.33594 0.07031 0.45703 0.20312 0.20703 0.21875 0.33203 0.60938 0.32031 1.125-0.06641 1.7266 0.30859 3.0039 0.6875 4.3555 0.08203 0.29297 0.16797 0.57422 0.24609 0.86328 1.9297 4.3164 6.9531 7.1953 12.77 7.3008 1.2852-0.05859 2.707-0.29688 4.0664-0.53516 1.0586-0.1875 2.1484-0.375 3.1758-0.46875 3.8398 0.15625 7.3281 2.1055 9.1328 5.0898 0.5 1.0352 1.1758 2.418 0.14062 3.6016-0.52734 0.65625-1.3008 1.0117-2.2305 1.0117" fill="#f8a130"/>
  <path d="m116.3 37.871c-0.70312 0-1.1953-0.33984-1.6211-1.1211l-0.0352-0.08594c-0.69922-3.8164 1.418-6.1797 3.2774-8.2734 1.3828-1.5391 2.6797-2.9961 2.8672-4.8789 0.41407-2.6289-0.67578-5.0234-1.7344-7.3398-1.5391-3.3711-3.1406-6.8594-0.19531-11.078 1.7148-2.0859 3.7578-3.4844 6.8438-4.6875 0.59765-0.23438 1.25-0.375 1.7422-0.375 0.67188 0 0.91406 0.25781 0.9961 0.47266 0.15234 0.44141-0.1875 1.0195-1.0938 1.8164l-0.51953 0.44531c-2.4883 2.1602-4.2969 3.7148-4.7383 7.582 0.0195 1.9453 1.25 3.3633 2.5664 4.8672 1.5 1.7188 3.207 3.6758 3.1289 6.7617-0.0391 2.8477-0.95703 5.3516-2.5859 7.0469-0.86719 0.93359-1.9141 1.7617-2.9141 2.5586-2.1484 1.7031-4.1484 3.3125-4.9024 5.9648l-0.043 0.14453-0.14843 0.04297c-0.35157 0.08984-0.63672 0.13672-0.89063 0.13672" fill="#f8a130"/>
  <path d="m94.957 37.465c-0.70703 0-1.1875-0.32812-1.3438-0.92578-1.8086-6.9844-3.6719-7.7227-5.4609-8.4297-1.125-0.45312-2.3008-0.92578-3.4219-2.8164-2.3789-5 0.05078-8.3242 2.4023-11.547 1.3086-1.8125 2.6836-3.6836 3.1992-5.8398 0.0625-1.4648-0.36719-2.8047-1.4961-4.582-0.87109-1.3828-1.1758-2.2344-0.98047-2.7656 0.14453-0.37891 0.51953-0.49219 0.64062-0.53516 0.05469-0.011719 0.10156-0.019531 0.16797-0.019531 0.94922 0 3.1328 2.3789 4.0742 3.707 1.5 2.1055 2.3008 3.7227 2.3164 6.2344 0 1.6875-0.67969 3.4844-1.4062 5.3867-1.1602 3.0586-2.3516 6.2266-0.68359 9.0586 0.48047 1.0352 1.0703 1.793 1.6289 2.5234 1.2734 1.6602 2.4805 3.2383 2.3672 7.3828-0.0039 0.17578-0.0039 0.35547 0 0.53906 0.0078 0.95312 0.01562 2.1406-1.082 2.4766-0.32812 0.09766-0.64453 0.15234-0.92188 0.15234" fill="#f8a130"/>
  <path d="m139.63 51.816c-0.8125 0-1.7305-0.30469-2.6289-0.88281-1.0469-0.67188-1.7578-1.8477-1.9453-3.207-0.19141-1.2578 0.10156-2.4492 0.80859-3.2578 3.2695-4.1016 8.5508-4.9023 13.77-5.1562l0.44531-0.01953c4.0703-0.19141 7.9258-0.37109 11.52-2.4141 0.76171-0.44141 1.7539-1.4023 2.1445-3.4727 0.65234-3.4453 1.5625-6.2461 4.0703-9.5469 0.65234-0.85938 1.3828-1.3945 1.9141-1.3945 0.21875 0 0.40625 0.10156 0.50781 0.27344 0.21875 0.37891 0.0742 1.0312-0.44921 1.9648-1.9727 3.5977-2.4922 6.1641-3.0938 9.1445-0.0898 0.41406-0.16797 0.83984-0.26563 1.2812-1.3789 6.4258-4.8984 9.7031-10.766 10.031-7.582 0.41016-9.5352 1.8398-14.043 5.8984-0.57422 0.5-1.2305 0.75781-1.9883 0.75781" fill="#f8a130"/>
  <path d="m147.34 73.023c-0.86719 0-1.6289-0.39453-2.0664-1.0586-0.59765-0.97656-1.0312-2.5742-0.21484-3.8984 2.0234-3.3008 6.0547-3.7305 7.6992-3.7656l0.26562-0.0039c0.83985 0 1.7188 0.07031 2.6602 0.14844 0.97266 0.08203 1.9805 0.15625 2.9609 0.15625 2.5156 0 4.1289-0.55469 5.2226-1.8164 1.1055-1.2773 1.5977-2.7969 2.1211-4.4023 0.71484-2.1875 1.5273-4.6719 4.0859-6.9102 1.6367-1.4219 5.1289-3.6094 5.9414-3.6992 1.0664-0.11719 1.3281 0.38281 1.3828 0.57812 0.13282 0.51563-0.3164 1.1289-1.2148 1.6328-4.6836 2.6602-4.9297 6.207-5.1797 9.9688-0.0586 0.75-0.11328 1.5273-0.1914 2.2969-0.34375 2.8516-3.0039 5.25-5.332 6.2734-2.668 1.168-4.7305 1.3281-6.5664 1.3281-0.61719 0-1.2617-0.01953-1.9141-0.04297-0.71485-0.02344-1.4609-0.04297-2.2734-0.04297-2.5703 0-4.3945 1.4492-6.1524 2.8477l-0.10546 0.08594c-0.26172 0.20703-0.67579 0.32422-1.1289 0.32422" fill="#f8a130"/>
  <path d="m110.5 97.754c-2.7461-0.31641-5.7148-0.40234-8.9336-0.19922-2.5664 0.16797-4.9531 0.52734-7.168 1.0469-22.07 4.9102-27.41 27.766-28.223 31.641-0.05859 0.32422 0.0078 0.64843 0.21875 0.89843 0.19922 0.24219 0.5 0.3711 0.83203 0.35938 0.47266-0.0156 0.89453-0.33594 1.1367-0.85156 1.4375-3.0508 15.637-20.918 33.645-21.613 21.836-0.83594 37.191 17.637 38.344 22.543 0.15625 0.67969 0.6289 0.91407 1.0039 0.89454 0.27735-8e-3 0.57422-0.16016 0.79297-0.41797 0.21094-0.2461 0.30078-0.54688 0.28125-0.82032-0.80859-7.0039-8.6719-31.031-31.93-33.48" fill="#194a9c"/>
 </g>
</svg>
