<svg width="800" height="374.93" enable-background="new 0 0 2500 1203" space="preserve" version="1.1" viewBox="0 0 800 374.93" xmlns="http://www.w3.org/2000/svg" xmlns:xlink="http://www.w3.org/1999/xlink">
 <link href="" rel="stylesheet" type="text/css"/>
 <style type="text/css"/>
 <rect x="231.18" width="50.767" height="50.765" fill="#fff" stroke-width=".32608"/>
 <path transform="matrix(.32608 0 0 .32608 -7.933 -8.6714)" d="m841.43 104.46c0-16.711-13.556-30.273-30.327-30.273-16.71 0-30.212 13.562-30.212 30.273 0 13.22 8.493 24.532 20.424 28.641v-14.408c-4.559-3.148-7.48-8.379-7.48-14.233 0-9.567 7.708-17.329 17.269-17.329 9.567 0 17.389 7.762 17.389 17.329 0 5.908-3.095 11.138-7.654 14.348v14.347c11.983-4.049 20.591-15.415 20.591-28.695" clip-path="url(#SVGID_2_)" fill="#004a97"/>
 <path transform="matrix(.32608 0 0 .32608 -7.933 -8.6714)" d="m863.04 104.46c0-28.696-23.291-51.933-51.933-51.933-28.695 0-51.872 23.237-51.872 51.933 0 25.264 18.114 46.359 42.083 50.918v-13.279c-16.765-4.331-29.085-19.578-29.085-37.639 0-21.491 17.382-38.995 38.874-38.995 21.498 0 38.994 17.503 38.994 38.995 0 18.114-12.38 33.361-29.259 37.639v13.333c24.083-4.553 42.198-25.654 42.198-50.972" clip-path="url(#SVGID_2_)" fill="#00953a"/>
 <path transform="matrix(.32608 0 0 .32608 -7.933 -8.6714)" d="m884.7 104.46c0-40.626-32.972-73.538-73.538-73.538-40.625 0-73.537 32.912-73.537 73.538 0 37.248 27.735 68.025 63.688 72.859v-13.106c-28.81-4.727-50.751-29.708-50.751-59.753 0-33.477 27.118-60.6 60.6-60.6 33.422 0 60.54 27.123 60.54 60.6 0 30.099-22.002 55.081-50.865 59.753v13.106c36.008-4.726 63.863-35.557 63.863-72.859" clip-path="url(#SVGID_2_)" fill="#d9272e"/>
 <rect transform="matrix(.32608 0 0 .32608 -7.933 -8.6714)" x="805.76" y="104.46" width="10.803" height="77.868" clip-path="url(#SVGID_2_)"/>
 <g fill="#fff">
  <path transform="matrix(.32608 0 0 .32608 -7.933 -8.6714)" d="m349.91 51.011h36.577l59.808 107.46h-46.642l-16.04-28.917h-62.674l-15.704 28.917h-18.114zm-20.646 65.548h48.669l-23.854-44.506z" clip-path="url(#SVGID_2_)"/>
  <path transform="matrix(.32608 0 0 .32608 -7.933 -8.6714)" d="m1054.7 51.064h63.526c35.953 0 73.087 1.578 73.087 26.219 0 21.155-26.224 22.901-35 23.801v0.167c20.707-0.167 39.948 8.721 39.948 28.473 0 28.978-45.459 28.696-79.841 28.696h-61.721v-107.36zm42.029 45.971h11.03c12.656 0 38.821-0.9 38.821-18.121 0-14.516-15.361-18.229-33.362-18.229-15.589 0-16.489 1.068-16.489 10.467zm0 41.694c0 10.239 0.396 10.125 19.134 10.125 19.632 0 38.37-2.927 38.37-18.114 0-20.598-32.072-20.88-46.474-20.88h-11.03z" clip-path="url(#SVGID_2_)"/>
  <path transform="matrix(.32608 0 0 .32608 -7.933 -8.6714)" d="m452.65 51.064h63.466c35.894 0 73.196 1.578 73.196 26.219 0 21.155-26.217 22.901-35.107 23.801v0.167c20.76-0.167 40.001 8.721 40.001 28.473 0 28.978-45.459 28.696-79.835 28.696h-61.721zm42.029 45.971h11.024c12.603 0 38.766-0.9 38.766-18.121 0-14.516-15.301-18.229-33.362-18.229-15.529 0-16.429 1.068-16.429 10.467v25.883zm0 41.694c0 10.239 0.39 10.125 19.075 10.125 19.691 0 38.484-2.927 38.484-18.114 0-20.598-32.126-20.88-46.534-20.88h-11.024v28.869z" clip-path="url(#SVGID_2_)"/>
  <path transform="matrix(.32608 0 0 .32608 -7.933 -8.6714)" d="m897.64 104.74c0 29.367 18.57 55.31 86.589 55.31 26.278 0 39.331-1.349 61.836-5.177v-27.345c-5.566 9.057-20.988 22.955-53.732 22.955-38.149 0-52.046-25.373-52.046-45.743 0-20.423 13.897-45.688 52.046-45.688 32.744 0 48.166 13.844 53.732 22.847v-27.291c-22.505-3.827-35.558-5.123-61.836-5.123-68.019 0-86.589 25.882-86.589 55.255" clip-path="url(#SVGID_2_)"/>
  <polygon transform="matrix(.32608 0 0 .32608 -7.933 -8.6714)" points="1218.8 158.42 1218.8 89.549 1293.9 158.42 1331.4 158.42 1331.4 51.064 1331.2 51.064 1331.3 51.011 1315.5 51.011 1315.5 123.02 1235.3 51.064 1202.9 51.011 1202.9 158.42" clip-path="url(#SVGID_2_)"/>
  <path transform="matrix(.32608 0 0 .32608 -7.933 -8.6714)" d="m717.15 81.956c-9.735-15.758-31.508-22.956-51.819-22.956-21.042 0-29.145 5.741-29.763 15.248-1.068 20.364 94.015 13.388 91.262 53.954-1.577 24.814-35.73 31.85-73.255 31.85-20.423 0-47.997-3.263-52.946-3.827v-29.931c11.306 11.025 35.786 23.795 55.531 24.358 19.578 0.51 29.709-2.417 29.709-15.751 0-22.169-89.631-11.367-86.872-55.087 1.182-17.437 23.237-31.73 67.965-30.212 18.906 0.563 35.275 2.195 50.187 5.176v27.178z" clip-path="url(#SVGID_2_)"/>
 </g>
 <g fill="#fff">
  <polyline transform="matrix(.32608 0 0 .32608 -7.933 -8.6714)" points="518.03 383.2 995.77 383.2 960.21 516.88 1249.8 515.58 1339 199.15 282.06 199.15 218.14 438 885.66 797.19 408.76 797.19 452.87 633.74 197.77 512.49 70.104 990.4 1126.4 990.4 1157.2 874.61 996.78 874.72 1015.7 802.76 1176.5 802.7 1202.7 704.24" clip-path="url(#SVGID_2_)"/>
  <polyline transform="matrix(.32608 0 0 .32608 -7.933 -8.6714)" points="2143.2 383.2 1665.4 383.2 1628.7 513.45 1332.5 514.12 1420.8 199.15 2477.7 199.15 2404 474.23 1553.6 797.19 2030.5 797.19 2084.5 594.75 2404.6 473.44 2265.7 990.4 1209.4 990.4 1240.6 874.61 1401 874.72 1420.7 802.76 1259.9 802.7 1286.4 704.24" clip-path="url(#SVGID_2_)"/>
 </g>
 <polygon transform="matrix(.32608 0 0 .32608 -7.933 -8.6714)" points="1557.6 704.52 1481.7 990.4 854.77 990.4 931.96 704.52" clip-path="url(#SVGID_2_)" fill="#fff"/>
 <polygon transform="matrix(.32608 0 0 .32608 -7.933 -8.6714)" points="1017 802.7 998.81 874.38 1158.7 874.61 1126.7 990.4 854.77 990.4 931.96 704.46 1203.8 704.46 1177.8 802.7" clip-path="url(#SVGID_2_)" fill="#da222f"/>
 <polygon transform="matrix(.32608 0 0 .32608 -7.933 -8.6714)" points="1419.9 802.7 1399.7 874.38 1239.8 874.61 1209.7 990.4 1481.7 990.4 1557.6 704.46 1285.8 704.46 1259.1 802.7" clip-path="url(#SVGID_2_)" fill="#da222f"/>
 <path transform="matrix(.32608 0 0 .32608 -7.933 -8.6714)" d="m67.915 1130.9c-2.141 7.876-2.027 10.406 0.558 12.434 3.095 2.363 7.371 2.7 35.563 2.7 30.327 0 34.879-0.169 39.048-1.687 3.317-1.464 5.512-4.39 6.976-9.903 2.135-7.875-0.51-9.902-13.281-10.07-4.33 0-17.16-0.564-30.998-1.127-14.18-0.786-27.406-1.404-31.569-1.404-18.96-0.624-27.454-3.377-31.562-10.07-3.323-5.909-3.431-14.408 0.054-27.574 5.236-19.578 12.944-31.342 23.633-36.517 11.703-5.452 23.465-6.634 70.893-6.634 36.685 0 49.964 1.739 58.008 7.312 7.035 5.29 8.271 13.729 3.94 29.877-0.228 0.785-0.899 3.599-1.859 6.189h-38.598c1.578-6.526 1.463-8.331-0.222-10.299-2.423-2.531-6.922-2.927-37.021-2.927-33.649 0-36.631 0.792-39.276 10.467-1.235 4.727-0.168 7.258 3.323 8.439 3.203 0.96 13.333 1.577 41.861 2.363 42.083 1.181 50.577 2.362 57.559 7.258 8.158 5.74 9.279 14.575 4.217 33.536-5.909 22.277-14.066 33.476-28.246 38.598-8.943 3.431-25.432 4.553-66.052 4.553-39.216 0-55.087-1.799-63.077-7.144-8.439-5.459-9.447-13.334-4.385-32.072l1.632-6.298z" clip-path="url(#SVGID_2_)" fill="#da222f"/>
 <path transform="matrix(.32608 0 0 .32608 -7.933 -8.6714)" d="m227.36 1043h90.026c23.687 0 27.568 0.223 34.094 0.954 25.037 3.544 29.481 14.012 20.31 48.279-7.594 28.581-15.583 40.056-32.348 45.91-9.795 3.431-19.02 4.163-48.279 4.163h-50.469l-8.547 32.126h-40.008zm72.242 66.393c18.234-0.175 19.021-0.175 22.848-1.974 4.444-2.194 6.861-5.907 9.339-15.187 2.477-9.286 1.914-12.999-2.531-14.972-2.364-1.182-2.759-1.182-20.652-1.403h-50.019l-9.003 33.535h50.018z" clip-path="url(#SVGID_2_)" fill="#da222f"/>
 <path transform="matrix(.32608 0 0 .32608 -7.933 -8.6714)" d="m561.01 1050.1c7.989 7.653 7.426 20.873-2.646 58.511-10.185 37.867-16.597 50.865-28.75 58.74-12.098 7.486-25.264 9.058-79.277 9.058-54.8 0-67.18-1.571-75.169-9.058-7.99-7.875-7.372-21.095 2.927-59.525 9.789-36.402 16.597-50.072 28.467-57.726 12.044-7.487 25.043-9.058 79.674-9.058 54.578 0 66.784 1.57 74.774 9.058m-132.67 32.688c-4.048 4.728-6.807 12.038-11.42 29.428-4.385 16.315-4.612 21.66-0.899 25.373 4.109 3.994 10.971 4.727 43.493 4.727 31.677 0 38.994-0.732 45.179-4.727 5.458-3.546 8.439-9.453 12.662-25.205 5.009-18.739 5.909-26.445 3.767-30.944-2.639-5.74-7.198-6.305-44.051-6.305-38.6 0-42.93 0.564-48.731 7.653" clip-path="url(#SVGID_2_)" fill="#da222f"/>
 <path transform="matrix(.32608 0 0 .32608 -7.933 -8.6714)" d="m591.74 1043h96.714c45.293 0 45.293 0 52.382 5.117 8.439 6.136 9.003 14.971 2.981 37.644-5.062 18.961-9.057 26.446-17.047 31.898-4.78 3.155-8.943 4.787-17.55 5.908 19.632 2.364 21.605 8.272 12.715 38.658l-3.322 12.267h-39.33l1.859-6.922c3.881-14.797 4.391-19.524 2.082-22.902-1.86-3.094-4.781-3.49-21.27-3.49h-56.545l-8.943 33.314h-39.948zm78.822 65.212c19.806-0.396 19.806-0.396 23.016-1.974 4.048-2.194 6.357-6.076 8.607-14.569 2.309-8.439 1.745-12.435-1.518-14.233-2.531-1.295-2.981-1.295-21.383-1.522h-56.431l-8.554 32.299h56.263z" clip-path="url(#SVGID_2_)" fill="#da222f"/>
 <polygon transform="matrix(.32608 0 0 .32608 -7.933 -8.6714)" points="813.25 1076.5 754.73 1076.5 763.73 1043 922.74 1043 913.74 1076.5 855.22 1076.5 829 1174.4 787.03 1174.4" clip-path="url(#SVGID_2_)" fill="#da222f"/>
 <path transform="matrix(.32608 0 0 .32608 -7.933 -8.6714)" d="m945.86 1130.9c-2.136 7.876-2.027 10.406 0.678 12.434 3.089 2.363 7.366 2.7 35.497 2.7 30.327 0 34.946-0.169 39.108-1.687 3.263-1.464 5.458-4.39 6.976-9.903 2.027-7.875-0.564-9.902-13.28-10.07-4.391 0-17.215-0.564-31.059-1.127-14.18-0.786-27.346-1.404-31.508-1.404-18.96-0.624-27.454-3.377-31.562-10.07-3.431-5.909-3.491-14.408 0.054-27.574 5.237-19.578 12.944-31.342 23.579-36.517 11.756-5.452 23.405-6.634 70.947-6.634 36.631 0 49.964 1.739 57.895 7.312 7.089 5.29 8.385 13.729 4.054 29.877-0.228 0.785-0.899 3.599-1.859 6.189h-38.598c1.578-6.526 1.409-8.331-0.222-10.299-2.478-2.531-6.921-2.927-37.021-2.927-33.704 0-36.685 0.792-39.276 10.467-1.235 4.727-0.222 7.258 3.263 8.439 3.263 0.96 13.334 1.577 41.921 2.363 42.083 1.181 50.577 2.362 57.558 7.258 8.098 5.74 9.279 14.575 4.217 33.536-5.962 22.277-14.12 33.476-28.3 38.598-8.949 3.431-25.486 4.553-65.998 4.553-39.216 0-55.081-1.799-63.131-7.144-8.379-5.459-9.453-13.334-4.385-32.072l1.686-6.298z" clip-path="url(#SVGID_2_)" fill="#da222f"/>
 <path transform="matrix(.32608 0 0 .32608 -7.933 -8.6714)" d="m1404.4 1152.2h-86.933l-17.154 22.337h-45.688l104.76-131.49h62.226l33.589 131.49h-45.515zm-18.343-78.66h-7.876l-38.712 49.905h58.626z" clip-path="url(#SVGID_2_)" fill="#da222f"/>
 <path transform="matrix(.32608 0 0 .32608 -7.933 -8.6714)" d="m1638.2 1123.8c-1.799 7.48-2.417 10.407-2.98 12.436-5.513 20.645-13.388 30.326-28.3 35.221-11.648 3.545-26.561 4.948-56.713 4.948-50.079 0-66.226-1.571-75.619-7.144-8.271-4.895-10.58-12.548-8.164-27.346 1.242-5.908 3.828-17.16 7.882-32.294 8.098-30.159 11.984-41.184 17.161-48.669 11.924-16.598 27.79-19.914 95.197-19.914 33.703 0 45.97 1.182 53.678 5.512 10.521 5.68 12.267 15.361 6.412 37.021l-1.745 6.525h-39.948c1.631-7.653 1.746-9.453 0.731-11.588-0.953-2.195-3.826-3.21-12.374-3.773-6.25-0.449-17.893-0.786-26.955-0.786-24.869 0-32.408 0.786-37.412 4.108-5.686 3.714-9.398 11.643-14.688 31.341-8.997 33.53-8.607 34.095 33.758 34.095 43.774 0 44.452-0.169 49.91-19.693z" clip-path="url(#SVGID_2_)" fill="#da222f"/>
 <polygon transform="matrix(.32608 0 0 .32608 -7.933 -8.6714)" points="1714.3 1076.5 1655.8 1076.5 1664.8 1043 1823.8 1043 1814.8 1076.5 1756.3 1076.5 1730.1 1174.4 1688.2 1174.4" clip-path="url(#SVGID_2_)" fill="#da222f"/>
 <polygon transform="matrix(.32608 0 0 .32608 -7.933 -8.6714)" points="1839.8 1174.4 1797.9 1174.4 1833.1 1043 1875.1 1043" clip-path="url(#SVGID_2_)" fill="#da222f"/>
 <path transform="matrix(.32608 0 0 .32608 -7.933 -8.6714)" d="m2056.4 1050.1c8.043 7.653 7.426 20.873-2.593 58.511-10.179 37.867-16.65 50.865-28.804 58.74-12.043 7.486-25.263 9.058-79.276 9.058-54.745 0-67.127-1.571-75.17-9.058-7.936-7.875-7.371-21.095 2.928-59.525 9.789-36.402 16.596-50.072 28.466-57.726 12.099-7.487 25.098-9.058 79.676-9.058 54.57 0 66.783 1.57 74.773 9.058m-132.67 32.688c-3.995 4.728-6.748 12.038-11.421 29.428-4.39 16.315-4.611 21.66-0.846 25.373 4.055 3.994 10.978 4.727 43.439 4.727 31.676 0 38.988-0.732 45.178-4.727 5.459-3.546 8.439-9.453 12.662-25.205 5.008-18.739 5.962-26.445 3.826-30.944-2.645-5.74-7.203-6.305-44.057-6.305-38.649 0-42.874 0.564-48.781 7.653" clip-path="url(#SVGID_2_)" fill="#da222f"/>
 <polygon transform="matrix(.32608 0 0 .32608 -7.933 -8.6714)" points="2234.7 1174.4 2165.2 1174.4 2122.2 1076.5 2117.9 1076.5 2092.6 1174.4 2051.9 1174.4 2087.1 1043 2157.2 1043 2199.8 1140.9 2203.9 1140.9 2229.2 1043 2269.9 1043" clip-path="url(#SVGID_2_)" fill="#da222f"/>
 <polygon transform="matrix(.32608 0 0 .32608 -7.933 -8.6714)" points="1144.1 1174.2 1179.1 1043.5 1213 1043.5 1178 1174.2" clip-path="url(#SVGID_2_)" clip-rule="evenodd" fill="#da222f" fill-rule="evenodd"/>
 <polygon transform="matrix(.32608 0 0 .32608 -7.933 -8.6714)" points="1117.8 1092 1248.5 1092 1239.4 1125.8 1108.7 1125.8" clip-path="url(#SVGID_2_)" clip-rule="evenodd" fill="#da222f" fill-rule="evenodd"/>
</svg>
