<svg width="800" height="294.97" version="1.1" viewBox="0 0 800 294.97" xmlns="http://www.w3.org/2000/svg">
 <g transform="matrix(19.083 0 0 19.083 .00024585 -155.12)" fill="none" fill-rule="evenodd">
  <g transform="translate(0,8)">
   <g transform="translate(0 .12613)" fill="#013ca5">
    <path d="m19.38 0.0026798-0.80135 0.65371h-7.908c-1.687 0-3.3318 0.56945-4.6603 1.6238-0.063386 0.063258-0.14764 0.10539-0.2109 0.16864-0.14764 0.12652-0.27416 0.25316-0.40067 0.37967-0.063258 0.063258-0.12652 0.12652-0.1899 0.18977-0.65358 0.69583-1.1386 1.4761-1.4972 2.3618l-3.7115 9.4263h0.90674l-0.80122 0.65371h33.171c1.1388 0 2.7415-0.63258 3.5217-2.404l5.1244-13.053z"/>
   </g>
   <g transform="translate(0 .12613)" fill="#fff">
    <path d="m23.998 12.571c-0.02113 0.12652-0.08439 0.16877-0.18977 0.16877h-0.08439c-0.12652 0-0.16864-0.06339-0.14752-0.16877l0.2319-1.8979c0.021-0.12652 0.08439-0.16877 0.18977-0.16877h0.08439c0.10539 0 0.16864 0.06326 0.14764 0.16877zm0.2109-2.4673h-0.25303c-0.37955 0-0.59045 0.18977-0.6327 0.54832l-0.2319 1.9401c-0.04226 0.37955 0.10539 0.54819 0.48506 0.54819h0.2529c0.37968 0 0.56945-0.18977 0.63271-0.54819l0.23203-1.9401c0.063258-0.35855-0.10552-0.54832-0.48506-0.54832zm-4.787 0.44293h0.4218l-0.31642 2.5937h0.46393l0.31642-2.5937h0.42168l0.04226-0.4218h-1.2864zm3.3108-0.4218-0.46393 2.1088 0.02113-2.1088h-0.4428l-0.48506 2.1088 0.04213-2.1088h-0.46393v2.9945h0.54832l0.42168-1.7925-0.021 1.7925h0.54832l0.73809-2.9945zm-4.8712 2.9945h1.0333l0.04213-0.4218h-0.56932l0.10539-0.90674h0.54832l0.04226-0.4218h-0.54832l0.10539-0.84348h0.56945l0.04213-0.4218h-1.0123zm17.313-7.3175c0.06339-0.18977 0.02126-0.27416-0.16864-0.27416h-0.92786c-0.16864 0-0.27416 0.084387-0.33742 0.25303l-0.12652 0.31642h1.4551zm-3.7325 5.7992-0.31629 0.80122h1.2442l0.29516-0.78022h0.61158l-0.29516 0.78022h1.3285l0.31629-0.82235h0.61158l-0.56945 1.4762h-4.3863l0.56945-1.4551zm1.7713-4.4707-0.2319 0.59045h3.7747l-0.25316 0.65371h-3.7746l-0.23203 0.59045h-0.61158l0.71696-1.8346zm1.0966-2.2564h0.82235c0.37968 0 0.52719 0.12652 0.52719 0.37955v0.063258l2.3408-0.65371-0.27416 0.69596-2.0034 0.52719-0.08426 0.2109h1.7713l-0.25303 0.65371h-4.3863l0.4218-1.0755c0.18977-0.52719 0.56932-0.80135 1.1176-0.80135zm3.9645-0.99112-0.23203 0.61158-4.1543-0.61158 0.33742-0.86461 4.6393-0.61158-0.25303 0.65371-0.71696 0.084386-0.27416 0.65371zm-6.7481 5.9679 0.25303-0.63258 1.9401 0.59045 2.4672-0.59045-0.27416 0.67471-1.7081 0.35855 1.4129 0.37955-0.25303 0.63271-1.919-0.61158-2.4673 0.59045 0.27416-0.67484 1.7081-0.35855zm4.808 3.0156c-0.67483 1.5604-2.0666 2.1088-3.0789 2.1088h-31.822l0.80135-0.65384h30.978s1.7292 0.08439 2.5094-1.708l2.5517-6.4741 1.9822-5.04h-6.3053l-1.9822 5.04-2.5517 6.4741c-0.69583 1.6026-2.172 1.708-2.4462 1.708h-26.276l3.4584-8.7725c0.33742-0.84348 0.80135-1.5816 1.3918-2.2143 0.063386-0.063258 0.12652-0.12652 0.18977-0.18977 0.12652-0.12652 0.25316-0.2319 0.37967-0.35842 0.063258-0.063258 0.12652-0.10552 0.18977-0.16877 1.2232-0.96999 2.7415-1.5183 4.3652-1.5183h8.0556l0.80122-0.65371h21.678zm-16.955-12.864-0.80135 0.65383h-7.908c-1.6871 0-3.3319 0.56932-4.6605 1.6237-0.063258 0.063258-0.14764 0.10539-0.21077 0.16877-0.14764 0.12652-0.27416 0.25303-0.4008 0.37955-0.063129 0.063258-0.12652 0.12652-0.18977 0.18977-0.65371 0.69583-1.1388 1.4762-1.4972 2.3619l-3.7115 9.4263h0.90674l-0.80135 0.65358h33.171c1.1388 0 2.7415-0.63258 3.5217-2.4039l5.1244-13.053zm6.4318 11.345c-0.02113 0.12664-0.08439 0.18977-0.2109 0.18977h-0.2109l0.12652-0.99099h0.23203c0.10539 0 0.16864 0.06313 0.14752 0.16864zm0.06326-1.223h-0.75922l-0.35842 2.9945h0.46393l0.14764-1.202h0.18977l0.2109 1.202h0.48493l-0.29516-1.4129c0.16864-0.06326 0.29516-0.18977 0.31629-0.46393l0.06326-0.56932c0.06326-0.35855-0.08439-0.54832-0.46393-0.54832zm1.8346 0-0.6537 1.4551 0.16864-1.4551h-0.46393l-0.35842 2.9945h0.46393l0.18977-1.4762 0.27416 1.4762h0.48493l-0.31629-1.5183 0.69596-1.4762zm-5.1033-6.5373-0.82248 2.4884c-0.2319 0.92786 0.37968 1.5183 1.2443 1.5183h3.6482l0.40055-1.1809h-3.0788c-0.48506 0-0.82235-0.18977-0.71696-0.63271l0.56932-1.7081c0.10552-0.25303 0.35855-0.40067 0.65383-0.40067h2.2985l1.7925-1.1809h-3.9435c-0.29516-0.021129-1.7081 0.021129-2.0455 1.0965zm14.445 0.14764 0.2109-0.52719-2.2985 0.25316zm-30.746 6.4318h-2.6361l-0.10539 0.82248h2.6361zm0.90674 0c-0.4428 0-0.73809 0.23203-0.78022 0.59045-0.021129 0.12652-0.021129 0.25316-0.021129 0.25316h5.7992s0.02113-0.08439 0.02113-0.14764c0.04213-0.35855-0.10552-0.67484-0.65383-0.67484-0.021-0.02113-4.1331-0.02113-4.3652-0.02113zm-1.1388 1.8136 0.084386-0.69583h-2.636l-0.23203 1.8135h2.6361l0.10539-0.78022h-1.6448l0.042129-0.33742zm11.388-1.8557-0.23203 1.8557-0.18977-1.8557h-0.52719l-0.35855 2.9945h0.4218l0.25303-2.0245 0.2109 2.0245h0.50619l0.35842-2.9945zm-3.1421-6.3474-0.54832 1.919h-1.919zm-3.9012 2.9944 3.2475-0.80122-0.48506 1.6237h1.5183l1.4341-5.1033h-2.151l-6.6004 5.1244h1.9611zm6.7481 0.82248h3.6482l0.40068-1.1809h-3.0788c-0.48506 0-0.82248-0.18977-0.71709-0.63271l0.56945-1.7081c0.10539-0.25303 0.35842-0.40067 0.65371-0.40067h2.2985l1.7925-1.1809h-3.9434c-0.27416 0-1.6871 0.042129-2.0456 1.1176l-0.82235 2.4884c-0.25303 0.90674 0.37955 1.4972 1.2442 1.4972zm-8.6461 3.7115h-2.1509c-0.063258 0.46393 0.16864 0.69596 0.50606 0.69596h1.3285l-0.042129 0.33742h-1.919l-0.10552 0.78022h2.1721c0.063258 0 0.54832-0.02113 0.71696-0.4218 0.063258-0.12652 0.10539-0.59045 0.10539-0.69583 0.084386-0.56945-0.31629-0.69596-0.61158-0.69596zm6.1155-1.1388h-2.1509l-0.10539 0.82248h2.8467s0-0.02113 0.02113-0.12652c0.08439-0.54832-0.27416-0.69596-0.61158-0.69596zm-0.63258 2.9524h0.99112l0.2319-1.8136h-0.99112zm-1.8769 0h0.99112l0.23203-1.8136h-0.99125zm-2.7203-1.8136-0.2319 1.8136h0.99112l0.14764-1.1176h1.2442c0.35842 0 0.54832-0.1899 0.56932-0.4428 0.02113-0.12664 0.02113-0.25316 0.02113-0.25316z"/>
   </g>
   <path d="m35.175 5.928c0.06326-0.18977 0.02113-0.27416-0.16864-0.27416h-0.92786c-0.16877 0-0.27416 0.084386-0.33742 0.25303l-0.12652 0.31642h1.4551zm-3.7326 5.7992-0.31629 0.80122h1.2442l0.29529-0.78022h0.61158l-0.29529 0.78022h1.3285l0.31642-0.82235h0.61145l-0.56932 1.4762h-4.3863l0.56932-1.4551zm1.7715-4.4707-0.23203 0.59045h3.7747l-0.25303 0.65371h-3.7747l-0.23203 0.59045h-0.61145l0.71696-1.8346zm1.0965-2.2564h0.82248c0.37955 0 0.52719 0.12652 0.52719 0.37955v0.063258l2.3408-0.65371-0.27416 0.69583-2.0034 0.52732-0.08439 0.2109h1.7715l-0.25316 0.65371h-4.3863l0.4218-1.0755c0.18977-0.52719 0.56945-0.80135 1.1176-0.80135zm3.9646-0.99112-0.23203 0.61158-4.1543-0.61158 0.33729-0.86461 4.6395-0.61158-0.25316 0.65371-0.71696 0.084386-0.27416 0.65371zm-6.7482 5.9679 0.25303-0.63258 1.9401 0.59045 2.4673-0.59045-0.27416 0.67471-1.7081 0.35855 1.4129 0.37955-0.25316 0.63271-1.919-0.61158-2.4673 0.59045 0.27416-0.67484 1.7081-0.35855zm-12.8-8.7515 0.80135-0.65371h21.678l-4.8714 12.421c-0.67471 1.5606-2.0665 2.1089-3.0788 2.1089h-31.822l0.80135-0.65384h30.978s1.7292 0.08439 2.5094-1.708l2.5517-6.4741 1.9822-5.04h-6.3053zm18.325 2.636 0.2109-0.52719-2.2987 0.25316z" fill="#8a898e"/>
   <polygon points="26.212 9.2599 26.486 8.3953 6.5373 8.3953 5.4196 9.2599" fill="#8a898e"/>
  </g>
 </g>
</svg>
