<svg enable-background="new 0 0 504 147.8" space="preserve" version="1.1" viewBox="0 0 504 147.8" xmlns="http://www.w3.org/2000/svg">
 <style type="text/css">.st0{fill:#A5A8A9;}
	.st1{fill:#013CA6;}</style>
 <link href="" rel="stylesheet" type="text/css"/>
 <path class="st0" d="m438.4 119.7c0.5-4.4-1.3-8.3-8.1-8.3h-53.6c-5.5 0-9.1 2.9-9.6 7.2-0.2 1.6-0.4 3-0.4 3h71.5c-0.1 0 0.1-1.1 0.2-1.9"/>
 <path class="st0" d="m403.9 125.5-2.7 22.3h12.1l1.7-13.9h15.2c4.3 0 6.6-2.3 7.1-5.4 0.2-1.6 0.4-3 0.4-3h-33.8z"/>
 <polygon class="st0" points="365.5 111.4 333 111.4 331.8 121.6 364.2 121.6"/>
 <polygon class="st0" points="362.7 133.9 363.7 125.5 331.3 125.5 328.6 147.8 361 147.8 362.2 138.1 341.9 138.1 342.4 133.9"/>
 <path class="st0" d="m468.3 111.4h-26.4l-1.3 10.2h35.1s0-0.4 0.2-1.6c0.9-6.7-3.4-8.6-7.6-8.6"/>
 <polygon class="st0" points="437.4 147.8 449.5 147.8 452.2 125.5 440.1 125.5"/>
 <polygon class="st0" points="460.4 147.8 472.5 147.8 475.3 125.5 463.1 125.5"/>
 <path class="st0" d="m392.8 125.5h-26.6c-0.9 5.8 2 8.5 6.1 8.5h16.4l-0.5 4.2h-23.6l-1.2 9.7h26.7c0.9-0.1 6.9-0.2 8.9-5.1 0.7-1.6 1.3-7.3 1.4-8.5 1-7.2-3.8-8.8-7.6-8.8"/>
 <polygon class="st1" points="482 0 463.2 56.5 434.3 0.2 405.7 19.1 384.3 84 406.4 84 425.1 27.3 453.7 84 476.3 84 504 0"/>
 <path class="st1" d="m221.3 54.2 9.2-28c1.9-4.2 6.2-6.8 10.8-6.6h37.6l29.5-19.6h-64.9c-4.6 0-27.6 0.6-33.4 18.2l-13.4 40.9c-4 15.3 6.4 24.9 20.5 24.9h59.8l6.4-19.5h-50.4c-8 0-13.7-3.1-11.7-10.3"/>
 <path class="st1" d="M165,0L56.6,84h32.1l17.7-13.6l53.4-13.2L152,84h24.8l23.5-84H165z M161.2,52.6h-31.5l40.7-31.4L161.2,52.6z"/>
 <path class="st1" d="m317.6 54.2 9.2-28c1.9-4.2 6.2-6.8 10.8-6.6h37.6l29.5-19.6h-64.9c-4.6 0-27.6 0.6-33.4 18.2l-13.4 40.9c-4 15.3 6.3 24.9 20.4 24.9h59.8l6.4-19.5h-50.5c-7.8 0-13.5-3.1-11.5-10.3"/>
 <polygon class="st0" points="39.6 97.2 0 127.8 370.3 97.2"/>
</svg>
