<svg width="800" height="113.56" version="1.1" viewBox="0 0 800 113.56" xmlns="http://www.w3.org/2000/svg">
 <g transform="translate(565.21 -501.14)">
  <g transform="matrix(.8008 0 0 .8008 -165.42 237.57)">
   <g transform="matrix(5.6414 0 0 -5.6414 -2395 3227.2)">
    <g transform="translate(359.48 507.47)">
     <path d="m0 0-3.778 0.815-0.836 3.773-3.678-1.183-2.609 2.849-2.596-2.864-3.685 1.163-0.816-3.775-3.773-0.836 1.183-3.68-2.849-2.61 2.863-2.594-1.163-3.685 3.777-0.814 0.835-3.774 3.681 1.181 2.609-2.848 2.594 2.863 3.686-1.163 0.816 3.776 3.772 0.838-1.184 3.679 2.852 2.609-2.865 2.595zm-10.873 2.387c-4.804 0-8.712-3.909-8.712-8.71 0-4.804 3.908-8.712 8.712-8.712 4.802 0 8.71 3.908 8.71 8.712 0 4.801-3.908 8.71-8.71 8.71m-5.493-3.273c3.032 3.032 7.964 3.032 10.994 1e-3 3.029-3.03 3.03-7.961-1e-3 -10.993-3.03-3.03-7.961-3.03-10.992 1e-3s-3.031 7.961-1e-3 10.991m73.725-1.3736v-6.604c0-1.282-0.199-2.203-0.601-2.765-0.404-0.559-1.059-0.842-1.956-0.842-0.791 0-1.344 0.259-1.655 0.769-0.311 0.513-0.466 1.287-0.466 2.328v7.114h-3.305v-7.749c0-0.78 0.069-1.49 0.2-2.13 0.131-0.643 0.359-1.186 0.684-1.633 0.327-0.448 0.771-0.792 1.339-1.036s1.29-0.367 2.178-0.367c0.698 0 1.379 0.163 2.049 0.488 0.625 0.306 1.14 0.801 1.551 1.467v-1.637h3.291v12.597zm-45.976-6.0355 2.345 6.374 2.297-6.374zm4.318 10.656h-3.918l-6.569-17.371h3.698l1.429 3.884h6.706l1.4-3.884h3.749zm26.394-6.8864c-0.551 0-1.016-0.128-1.385-0.378-0.377-0.251-0.682-0.576-0.915-0.976-0.237-0.396-0.401-0.834-0.5-1.315-0.1-0.478-0.145-0.954-0.145-1.425 0-0.454 0.045-0.916 0.145-1.389 0.099-0.469 0.257-0.896 0.475-1.279 0.218-0.381 0.518-0.694 0.888-0.938 0.377-0.245 0.828-0.365 1.367-0.365 0.829 0 1.462 0.231 1.909 0.695 0.447 0.463 0.728 1.084 0.844 1.863h3.337c-0.229-1.672-0.879-2.946-1.951-3.826-1.07-0.876-2.442-1.316-4.114-1.316-0.944 0-1.807 0.161-2.595 0.475-0.788 0.317-1.457 0.76-2.011 1.329s-0.984 1.247-1.291 2.034c-0.311 0.788-0.463 1.654-0.463 2.595 0 0.976 0.141 1.879 0.425 2.718 0.284 0.835 0.704 1.56 1.256 2.169 0.549 0.608 1.226 1.083 2.023 1.425 0.793 0.34 1.704 0.51 2.729 0.51 0.745 0 1.466-0.096 2.155-0.292 0.689-0.195 1.308-0.49 1.851-0.889 0.543-0.4 0.985-0.894 1.328-1.486 0.343-0.594 0.536-1.295 0.587-2.108h-3.388c-0.23 1.445-1.083 2.169-2.561 2.169m-13.684 0c-0.555 0-1.016-0.128-1.386-0.378-0.376-0.251-0.681-0.576-0.913-0.976-0.242-0.396-0.404-0.834-0.504-1.315-0.097-0.478-0.143-0.954-0.143-1.425 0-0.454 0.046-0.916 0.143-1.389 0.1-0.469 0.259-0.896 0.476-1.279 0.219-0.381 0.516-0.694 0.89-0.938 0.375-0.245 0.828-0.365 1.368-0.365 0.827 0 1.46 0.231 1.908 0.695 0.448 0.463 0.725 1.084 0.843 1.863h3.337c-0.23-1.672-0.879-2.946-1.95-3.826-1.073-0.876-2.444-1.316-4.118-1.316-0.941 0-1.804 0.161-2.592 0.475-0.791 0.317-1.459 0.76-2.01 1.329-0.556 0.569-0.988 1.247-1.293 2.034-0.309 0.788-0.465 1.654-0.465 2.595 0 0.976 0.142 1.879 0.425 2.718 0.284 0.835 0.707 1.56 1.256 2.169 0.552 0.608 1.23 1.083 2.025 1.425 0.793 0.34 1.702 0.51 2.73 0.51 0.745 0 1.463-0.096 2.152-0.292 0.689-0.195 1.311-0.49 1.854-0.889 0.543-0.4 0.986-0.894 1.326-1.486 0.345-0.594 0.539-1.295 0.587-2.108h-3.386c-0.228 1.445-1.082 2.169-2.56 2.169m120.42 2.0954v-2.337h0.048c0.161 0.39 0.381 0.751 0.658 1.084 0.274 0.331 0.59 0.615 0.948 0.851 0.357 0.236 0.738 0.417 1.144 0.547 0.405 0.131 0.826 0.196 1.265 0.196 0.227 0 0.477-0.042 0.754-0.122v-3.212c-0.163 0.033-0.357 0.06-0.584 0.086-0.228 0.023-0.445 0.036-0.656 0.036-0.633 0-1.17-0.106-1.607-0.317-0.438-0.211-0.79-0.499-1.059-0.863-0.267-0.365-0.456-0.79-0.572-1.278-0.113-0.486-0.169-1.015-0.169-1.582v-5.669h-3.456v12.58zm-8.7984-2.944c-0.413 0.453-1.042 0.681-1.886 0.681-0.551 0-1.009-0.094-1.374-0.281-0.365-0.185-0.658-0.416-0.877-0.691-0.218-0.278-0.374-0.569-0.462-0.876-0.09-0.311-0.143-0.585-0.158-0.829h5.621c-0.163 0.876-0.45 1.541-0.864 1.996m-3.905-6.618c0.518-0.504 1.266-0.754 2.238-0.754 0.698 0 1.298 0.174 1.801 0.523 0.501 0.349 0.81 0.717 0.924 1.106h3.041c-0.486-1.508-1.232-2.586-2.238-3.236-1.006-0.648-2.223-0.973-3.65-0.973-0.989 0-1.882 0.159-2.676 0.474-0.795 0.316-1.468 0.768-2.019 1.35-0.552 0.586-0.977 1.283-1.278 2.093-0.301 0.812-0.45 1.704-0.45 2.676 0 0.942 0.155 1.817 0.461 2.629 0.309 0.81 0.747 1.512 1.315 2.104 0.568 0.593 1.245 1.058 2.032 1.4 0.788 0.341 1.659 0.511 2.615 0.511 1.071 0 2.003-0.208 2.798-0.622 0.796-0.412 1.448-0.969 1.958-1.666 0.512-0.697 0.881-1.492 1.107-2.385 0.229-0.891 0.31-1.824 0.244-2.796h-9.075c0.049-1.12 0.331-1.931 0.852-2.434m-13.825 14.355v-6.545h0.073c0.437 0.73 0.998 1.26 1.678 1.594 0.681 0.332 1.347 0.499 1.995 0.499 0.925 0 1.684-0.127 2.277-0.378 0.59-0.252 1.057-0.601 1.397-1.045 0.342-0.447 0.581-0.991 0.718-1.631 0.138-0.641 0.206-1.351 0.206-2.129v-7.738h-3.453v7.105c0 1.038-0.163 1.813-0.487 2.324-0.324 0.51-0.902 0.766-1.728 0.766-0.941 0-1.622-0.279-2.043-0.839-0.422-0.559-0.633-1.481-0.633-2.762v-6.594h-3.291v17.373zm-5.2999-4.7932v-2.312h-2.531v-6.228c0-0.584 0.098-0.973 0.292-1.168 0.195-0.194 0.584-0.292 1.168-0.292 0.195 0 0.381 8e-3 0.561 0.026 0.177 0.014 0.348 0.039 0.51 0.072v-2.678c-0.293-0.049-0.616-0.08-0.974-0.096-0.357-0.017-0.706-0.024-1.046-0.024-0.535 0-1.042 0.036-1.52 0.11-0.48 0.073-0.901 0.214-1.266 0.424-0.366 0.212-0.652 0.512-0.863 0.901s-0.316 0.9-0.316 1.534v7.419h-2.092v2.312h2.092v3.771h3.454v-3.771zm-13.104-6.5673c-0.22-0.073-0.454-0.135-0.705-0.183-0.253-0.048-0.517-0.09-0.792-0.121-0.275-0.032-0.552-0.072-0.827-0.122-0.259-0.048-0.515-0.114-0.766-0.195-0.252-0.081-0.472-0.19-0.658-0.327-0.186-0.139-0.337-0.314-0.45-0.525-0.114-0.211-0.17-0.478-0.17-0.803 0-0.307 0.056-0.567 0.17-0.779 0.113-0.209 0.268-0.376 0.464-0.497 0.193-0.122 0.42-0.207 0.68-0.255 0.259-0.05 0.527-0.073 0.803-0.073 0.68 0 1.207 0.113 1.581 0.34s0.65 0.499 0.828 0.816c0.178 0.316 0.287 0.636 0.327 0.96 0.042 0.325 0.062 0.585 0.062 0.778v1.29c-0.147-0.13-0.329-0.231-0.547-0.304m-6.825 4.877c0.357 0.537 0.811 0.966 1.361 1.291 0.553 0.323 1.172 0.555 1.862 0.693 0.69 0.137 1.383 0.208 2.082 0.208 0.632 0 1.272-0.045 1.92-0.135 0.65-0.089 1.241-0.264 1.777-0.522 0.535-0.26 0.974-0.621 1.314-1.083 0.34-0.463 0.51-1.076 0.51-1.837v-6.547c0-0.567 0.034-1.11 0.099-1.628 0.064-0.52 0.177-0.91 0.341-1.17h-3.505c-0.065 0.196-0.118 0.395-0.158 0.597-0.04 0.203-0.07 0.41-0.084 0.622-0.553-0.569-1.202-0.966-1.948-1.194-0.746-0.226-1.508-0.34-2.287-0.34-0.6 0-1.16 0.073-1.68 0.22-0.518 0.146-0.972 0.372-1.361 0.682-0.39 0.307-0.693 0.696-0.912 1.166-0.219 0.471-0.329 1.031-0.329 1.679 0 0.715 0.125 1.302 0.377 1.764s0.576 0.831 0.974 1.107c0.396 0.275 0.851 0.481 1.362 0.62 0.511 0.137 1.025 0.248 1.545 0.329 0.518 0.08 1.03 0.146 1.532 0.195 0.504 0.048 0.95 0.122 1.339 0.219 0.39 0.097 0.697 0.238 0.926 0.424 0.225 0.189 0.33 0.46 0.315 0.816 0 0.374-0.062 0.67-0.183 0.888-0.121 0.22-0.284 0.39-0.486 0.512-0.204 0.121-0.437 0.202-0.706 0.242-0.268 0.041-0.555 0.062-0.863 0.062-0.682 0-1.217-0.146-1.606-0.439-0.389-0.291-0.617-0.778-0.682-1.459h-3.455c0.049 0.811 0.252 1.484 0.609 2.018m-6.3162-1.2537c-0.413 0.453-1.042 0.681-1.886 0.681-0.551 0-1.009-0.094-1.374-0.281-0.365-0.185-0.656-0.416-0.876-0.691-0.219-0.278-0.373-0.569-0.463-0.876-0.089-0.311-0.141-0.585-0.158-0.829h5.622c-0.163 0.876-0.452 1.541-0.865 1.996m-3.905-6.618c0.519-0.504 1.265-0.754 2.239-0.754 0.697 0 1.297 0.174 1.801 0.523 0.501 0.349 0.81 0.717 0.924 1.106h3.042c-0.487-1.508-1.234-2.586-2.239-3.236-1.007-0.648-2.223-0.973-3.65-0.973-0.989 0-1.882 0.159-2.676 0.474-0.796 0.316-1.468 0.768-2.019 1.35-0.553 0.586-0.978 1.283-1.279 2.093-0.3 0.812-0.449 1.704-0.449 2.676 0 0.942 0.153 1.817 0.462 2.629 0.308 0.81 0.745 1.512 1.314 2.104 0.567 0.593 1.243 1.058 2.032 1.4 0.786 0.341 1.658 0.511 2.615 0.511 1.07 0 2.003-0.208 2.798-0.622 0.794-0.412 1.448-0.969 1.959-1.666 0.51-0.697 0.879-1.492 1.106-2.385 0.226-0.891 0.309-1.824 0.244-2.796h-9.076c0.049-1.12 0.333-1.931 0.852-2.434m-11.488-3.0183-2.945 11.825h-0.049l-2.895-11.825h-3.868l-4.6 17.373h3.82l2.75-11.824h0.048l3.017 11.824h3.577l2.97-11.972h0.048l2.846 11.972h3.747l-4.671-17.373z" fill="#f36f21" fill-rule="evenodd"/>
    </g>
   </g>
  </g>
 </g>
</svg>
