<svg width="600pt" height="208.53pt" version="1.1" viewBox="0 0 600 208.53" xmlns="http://www.w3.org/2000/svg">
 <path d="m562.09 7.5758c23.119 0 37.905 12.109 37.905 34.099 0.16491 9.5239-3.1435 19.285-8.7705 26.923-13.124 17.808-31.902 30.446-45.976 47.433h45.782l-4.5976 23.808h-80.555c2.2415-16.791 11.904-29.79 23.203-41.531 12.241-13.084 25.979-23.922 36.851-36.546 11.729-12.124 13.116-33.996-4.5508-33.996-11.122 0-16.371 11.94-18.227 21.427l-24.931-3.6263c5.5829-25.347 19.216-37.99 43.866-37.99z" fill="#fff" stroke-width="2.1585"/>
 <g transform="matrix(4.7699 0 0 4.7699 0 .00047699)">
  <path d="m39.583 6.054 0.629-4.63h5.333l-0.629 4.63zm-5.471 5.5179h2.757l0.555-3.955h-2.757l0.419-2.974h-5.334l-0.418 2.974h-2.43l-0.556 3.955h2.431l-1.697 12.336a12.413 12.413 0 0 1 5.742-2.906zm10.56-3.969h-5.334l-1.794 13.361a12.377 12.377 0 0 1 5.044 2.109zm24.373 21.419 3.008-21.405h-5.333l-2.319 16.508a1.2254 1.2254 0 0 1-1.277 1.087 0.88709 0.88709 0 0 1-0.973-1.087l2.32-16.508h-5.333l-2.554 18.176c-0.321 2.286 1.382 3.592 3.704 3.592a6.1651 6.1651 0 0 0 3.848-1.306l0.12 0.943zm31.568-4.97 0.403-2.867h-5.332l-0.414 2.94a1.2241 1.2241 0 0 1-1.277 1.087c-0.653 0-1.109-0.363-1.008-1.087l0.73-5.189h7.618l0.892-6.348c0.459-3.265-2.148-5.369-5.702-5.369-3.593 0-6.791 2.104-7.249 5.369l-1.611 11.464c-0.454 3.229 2.152 5.333 5.744 5.333 3.556 0 6.753-2.104 7.206-5.333m-4.236-7.801h-2.286l0.53-3.773a1.2044 1.2044 0 0 1 1.309-1.051c0.618 0 1.079 0.327 0.978 1.051zm-81.468-16.251-0.161 29.022h-6.022l0.275-4.535h-2.612l-1.181 4.535h-5.152l7.375-27.014-1.124-2.007zm-4.895 9.794-2.43 9.542h1.814zm78.181-7.639-3.746 26.867h-4.897l-0.122-0.943a5.8497 5.8497 0 0 1-3.739 1.306c-2.321 0-4.025-1.306-3.703-3.592l2.1-14.947c0.322-2.285 2.396-3.627 4.718-3.627a4.0772 4.0772 0 0 1 3.185 1.342l0.613-4.5-1.072-1.914zm-7.73 9.272a1.19 1.19 0 0 0-1.273 1.051l-1.637 11.647a0.88646 0.88646 0 0 0 0.972 1.087 1.2257 1.2257 0 0 0 1.278-1.087l1.636-11.647c0.102-0.724-0.36-1.051-0.976-1.051m-61.324-9.28 1.044 1.862-3.643 25.013h5.333l3.913-26.867zm37.352 9.425 0.556-3.955h-2.757l0.418-2.974h-5.333l-0.418 2.974h-2.431l-0.555 3.955h2.43l-1.841 13.096c-0.321 2.286 1.421 4.354 4.359 4.354h2.866l0.586-4.173h-1.378c-0.617 0-1.074-0.362-1.003-0.87l1.744-12.407z" fill="#fff"/>
  <path d="m99.553 30.72-0.376 2.67a2.9565 2.9565 0 0 1-2.835 2.487h-48.107a0.75857 0.75857 0 0 1-0.15 0 3.4997 3.4997 0 0 0-2.868 1.507 10.799 10.799 0 0 1-19.66 0.012l-1e-3 1e-3a3.4907 3.4907 0 0 0-2.875-1.52 0.767 0.767 0 0 1-0.151 0h-19.32a2.9582 2.9582 0 0 1-2.835-2.487l-0.375-2.67h22.707a2.9182 2.9182 0 0 0 2.531-1.517l3e-3 4e-3a10.802 10.802 0 0 1 20.286-4e-3h1e-3a2.9153 2.9153 0 0 0 2.53 1.517z" fill="#fff"/>
  <path d="m35.452 23.036a9.8827 9.8827 0 1 0 9.814 9.95 9.8823 9.8823 0 0 0-9.814-9.95"/>
  <path d="m40.997 28.926 3.642 3.27c0.021 0.259 0.032 0.521 0.031 0.786a9.2857 9.2857 0 1 1-18.571-0.128c1e-3 -0.27 0.017-0.538 0.042-0.802l3.686-3.126 1.595 1.335 3.99-4.303 3.991 4.303zm-9.656 6.077 0.899-1.561 1.994 0.5-4.346-4.089zm7.505 2.314 0.76-3.081 3.342 1.576-7.462-8.649z" fill="#fff"/>
  <path d="m40.997 28.926 3.642 3.27c0.021 0.259 0.032 0.521 0.031 0.786a9.2857 9.2857 0 1 1-18.571-0.128c1e-3 -0.27 0.017-0.538 0.042-0.802l3.686-3.126 1.595 1.335 3.99-4.303 3.991 4.303zm-9.656 6.077 0.899-1.561 1.994 0.5-4.346-4.089zm7.505 2.314 0.76-3.081 3.342 1.576-7.462-8.649z" fill="#fff"/>
  <path d="m40.997 28.926 3.642 3.27c0.021 0.259 0.032 0.521 0.031 0.786a9.2857 9.2857 0 1 1-18.571-0.128c1e-3 -0.27 0.017-0.538 0.042-0.802l3.686-3.126 1.595 1.335 3.99-4.303 3.991 4.303zm-9.656 6.077 0.899-1.561 1.994 0.5-4.346-4.089zm7.505 2.314 0.76-3.081 3.342 1.576-7.462-8.649z" fill="#fff"/>
 </g>
</svg>
