<svg width="292.7mm" height="154.06mm" version="1.1" viewBox="0 0 1106.3 582.27" xmlns="http://www.w3.org/2000/svg">
 <g transform="translate(252.28 -384.17)">
  <g transform="matrix(10.816 0 0 10.816 -252.28 384.17)">
   <path d="m56.644 43.609h-3.352l0.108-0.674a3.5448 3.5448 0 0 0 0.076-1.091q-0.0615-0.22952-0.455-0.229a0.65994 0.65994 0 0 0-0.511 0.21 1.2005 1.2005 0 0 0-0.26 0.632 3.1879 3.1879 0 0 0-0.055 0.838 1.0686 1.0686 0 0 0 0.384 0.585 8.3507 8.3507 0 0 0 1.486 0.927 4.7455 4.7455 0 0 1 1.92 1.517 3.2233 3.2233 0 0 1 0.184 2.069 5.85 5.85 0 0 1-0.759 2.29 3.2871 3.2871 0 0 1-1.506 1.189 5.8704 5.8704 0 0 1-2.29 0.416 5.6246 5.6246 0 0 1-2.395-0.449 2.1487 2.1487 0 0 1-1.215-1.217 5.1671 5.1671 0 0 1-0.012-2.323l0.095-0.599h3.352l-0.125 0.787a4.0808 4.0808 0 0 0-0.082 1.301 0.408 0.408 0 0 0 0.453 0.3 0.782 0.782 0 0 0 0.594-0.202 1.6922 1.6922 0 0 0 0.295-0.847 1.782 1.782 0 0 0-0.028-1.114 14.046 14.046 0 0 0-1.988-1.329 3.8681 3.8681 0 0 1-1.76-1.7 3.9324 3.9324 0 0 1-0.076-1.811 5.275 5.275 0 0 1 0.745-2.196 3.1933 3.1933 0 0 1 1.509-1.091 6.2339 6.2339 0 0 1 2.247-0.384 5.7718 5.7718 0 0 1 2.052 0.314 2.5993 2.5993 0 0 1 1.197 0.829 1.8484 1.8484 0 0 1 0.409 0.955 6.8977 6.8977 0 0 1-0.122 1.376z" fill="#fff"/>
   <path d="m62.428 39.639-0.241 1.098a4.4468 4.4468 0 0 1 1.273-0.995 3.0767 3.0767 0 0 1 1.382-0.328 2.1791 2.1791 0 0 1 1.446 0.473 1.6127 1.6127 0 0 1 0.626 1.091 9.4829 9.4829 0 0 1-0.176 2.097l-0.837 5.234a10.828 10.828 0 0 1-0.587 2.411 2.5087 2.5087 0 0 1-1.006 1.142 2.9348 2.9348 0 0 1-1.571 0.426 2.3762 2.3762 0 0 1-1.249-0.328 2.7828 2.7828 0 0 1-0.939-0.976l-0.456 2.849h-3.783l2.269-14.194zm0.499 3.614a6.2506 6.2506 0 0 0 0.138-1.395q-0.045-0.243-0.429-0.243a0.54976 0.54976 0 0 0-0.527 0.28 5.4383 5.4383 0 0 0-0.325 1.358l-0.823 5.15a5.0308 5.0308 0 0 0-0.112 1.404q0.0675 0.28052 0.442 0.281a0.50209 0.50209 0 0 0 0.495-0.258 5.5043 5.5043 0 0 0 0.289-1.25z" fill="#fff"/>
   <path d="m76.393 44.001-0.486 3.043a13.773 13.773 0 0 1-0.562 2.458 4.2161 4.2161 0 0 1-0.954 1.46 4.0463 4.0463 0 0 1-1.579 1.002 6.1006 6.1006 0 0 1-2.042 0.323 6.6661 6.6661 0 0 1-2.081-0.276 2.3385 2.3385 0 0 1-1.219-0.833 2.7793 2.7793 0 0 1-0.473-1.348 10.104 10.104 0 0 1 0.173-2.374l0.509-3.183a8.6384 8.6384 0 0 1 0.807-2.706 3.9332 3.9332 0 0 1 1.599-1.564 6.046 6.046 0 0 1 4.71-0.21 2.801 2.801 0 0 1 1.251 0.987 2.9194 2.9194 0 0 1 0.478 1.255 7.6478 7.6478 0 0 1-0.131 1.966m-3.633-0.936a4.0836 4.0836 0 0 0 0.089-1.203q-0.063-0.24751-0.4-0.248a0.53012 0.53012 0 0 0-0.489 0.248 4.1466 4.1466 0 0 0-0.305 1.203l-0.897 5.608a3.6181 3.6181 0 0 0-0.071 1.147 0.35884 0.35884 0 0 0 0.398 0.267 0.52213 0.52213 0 0 0 0.484-0.243 3.5099 3.5099 0 0 0 0.275-1.049z" fill="#fff"/>
   <path d="m82.118 39.638-0.411 1.634a3.4562 3.4562 0 0 1 2.685-1.859l-0.699 4.373a3.4474 3.4474 0 0 0-1.571 0.281 1.4717 1.4717 0 0 0-0.725 0.782 15.004 15.004 0 0 0-0.481 2.308l-0.784 4.905h-3.783l1.986-12.424z" fill="#fff"/>
   <path d="m89.798 37.981-0.313 1.957h1.021l-0.315 1.966h-1.021l-1.062 6.648a3.5245 3.5245 0 0 0-0.093 1.367q0.105 0.13948 1.031 0.14l-0.32 2.004h-1.526a10.543 10.543 0 0 1-1.827-0.108 1.6196 1.6196 0 0 1-0.895-0.496 1.3768 1.3768 0 0 1-0.382-0.889 15.987 15.987 0 0 1 0.274-2.355l1.009-6.311h-0.815l0.315-1.966h0.814l0.313-1.957z" fill="#fff"/>
   <path d="m98.476 43.609h-3.352l0.108-0.674a3.5448 3.5448 0 0 0 0.076-1.091c-0.041-0.153-0.192-0.229-0.455-0.229a0.65994 0.65994 0 0 0-0.511 0.21 1.2005 1.2005 0 0 0-0.26 0.632 3.1879 3.1879 0 0 0-0.055 0.838 1.0657 1.0657 0 0 0 0.385 0.585 8.2918 8.2918 0 0 0 1.485 0.927 4.7455 4.7455 0 0 1 1.92 1.517 3.2291 3.2291 0 0 1 0.185 2.069 5.8486 5.8486 0 0 1-0.76 2.29 3.2871 3.2871 0 0 1-1.506 1.189 5.8704 5.8704 0 0 1-2.29 0.416 5.6246 5.6246 0 0 1-2.395-0.449 2.1467 2.1467 0 0 1-1.214-1.217 5.1492 5.1492 0 0 1-0.013-2.323l0.096-0.599h3.351l-0.125 0.787a4.0808 4.0808 0 0 0-0.082 1.301 0.408 0.408 0 0 0 0.453 0.3 0.782 0.782 0 0 0 0.594-0.202 1.6922 1.6922 0 0 0 0.295-0.847 1.7742 1.7742 0 0 0-0.028-1.114 13.975 13.975 0 0 0-1.988-1.329 3.8681 3.8681 0 0 1-1.76-1.7 3.9324 3.9324 0 0 1-0.076-1.811 5.2894 5.2894 0 0 1 0.745-2.196 3.2051 3.2051 0 0 1 1.508-1.091 6.2471 6.2471 0 0 1 2.248-0.384 5.7718 5.7718 0 0 1 2.052 0.314 2.5993 2.5993 0 0 1 1.197 0.829 1.8484 1.8484 0 0 1 0.409 0.955 6.8977 6.8977 0 0 1-0.122 1.376z" fill="#fff"/>
   <path d="m39.583 6.054 0.629-4.63h5.333l-0.629 4.63zm-5.471 5.5179h2.757l0.555-3.955h-2.757l0.419-2.974h-5.334l-0.418 2.974h-2.43l-0.556 3.955h2.431l-1.697 12.336a12.413 12.413 0 0 1 5.742-2.906zm10.56-3.969h-5.334l-1.794 13.361a12.377 12.377 0 0 1 5.044 2.109zm24.373 21.419 3.008-21.405h-5.333l-2.319 16.508a1.2254 1.2254 0 0 1-1.277 1.087 0.88709 0.88709 0 0 1-0.973-1.087l2.32-16.508h-5.333l-2.554 18.176c-0.321 2.286 1.382 3.592 3.704 3.592a6.1651 6.1651 0 0 0 3.848-1.306l0.12 0.943zm31.568-4.97 0.403-2.867h-5.332l-0.414 2.94a1.2241 1.2241 0 0 1-1.277 1.087c-0.653 0-1.109-0.363-1.008-1.087l0.73-5.189h7.618l0.892-6.348c0.459-3.265-2.148-5.369-5.702-5.369-3.593 0-6.791 2.104-7.249 5.369l-1.611 11.464c-0.454 3.229 2.152 5.333 5.744 5.333 3.556 0 6.753-2.104 7.206-5.333m-4.236-7.801h-2.286l0.53-3.773a1.2044 1.2044 0 0 1 1.309-1.051c0.618 0 1.079 0.327 0.978 1.051zm-81.468-16.251-0.161 29.022h-6.022l0.275-4.535h-2.612l-1.181 4.535h-5.152l7.375-27.014-1.124-2.007zm-4.895 9.794-2.43 9.542h1.814zm78.181-7.639-3.746 26.867h-4.897l-0.122-0.943a5.8497 5.8497 0 0 1-3.739 1.306c-2.321 0-4.025-1.306-3.703-3.592l2.1-14.947c0.322-2.285 2.396-3.627 4.718-3.627a4.0772 4.0772 0 0 1 3.185 1.342l0.613-4.5-1.072-1.914zm-7.73 9.272a1.19 1.19 0 0 0-1.273 1.051l-1.637 11.647a0.88646 0.88646 0 0 0 0.972 1.087 1.2257 1.2257 0 0 0 1.278-1.087l1.636-11.647c0.102-0.724-0.36-1.051-0.976-1.051m-61.324-9.28 1.044 1.862-3.643 25.013h5.333l3.913-26.867zm37.352 9.425 0.556-3.955h-2.757l0.418-2.974h-5.333l-0.418 2.974h-2.431l-0.555 3.955h2.43l-1.841 13.096c-0.321 2.286 1.421 4.354 4.359 4.354h2.866l0.586-4.173h-1.378c-0.617 0-1.074-0.362-1.003-0.87l1.744-12.407z" fill="#fff"/>
   <path d="m99.553 30.72-0.376 2.67a2.9565 2.9565 0 0 1-2.835 2.487h-48.107a0.75857 0.75857 0 0 1-0.15 0 3.4997 3.4997 0 0 0-2.868 1.507 10.799 10.799 0 0 1-19.66 0.012l-1e-3 1e-3a3.4907 3.4907 0 0 0-2.875-1.52 0.767 0.767 0 0 1-0.151 0h-19.32a2.9582 2.9582 0 0 1-2.835-2.487l-0.375-2.67h22.707a2.9182 2.9182 0 0 0 2.531-1.517l3e-3 4e-3a10.802 10.802 0 0 1 20.286-4e-3h1e-3a2.9153 2.9153 0 0 0 2.53 1.517z" fill="#fff"/>
   <path d="m35.452 23.036a9.8827 9.8827 0 1 0 9.814 9.95 9.8823 9.8823 0 0 0-9.814-9.95"/>
   <path d="m40.997 28.926 3.642 3.27c0.021 0.259 0.032 0.521 0.031 0.786a9.2857 9.2857 0 1 1-18.571-0.128c1e-3 -0.27 0.017-0.538 0.042-0.802l3.686-3.126 1.595 1.335 3.99-4.303 3.991 4.303zm-9.656 6.077 0.899-1.561 1.994 0.5-4.346-4.089zm7.505 2.314 0.76-3.081 3.342 1.576-7.462-8.649z" fill="#fff"/>
   <path d="m40.997 28.926 3.642 3.27c0.021 0.259 0.032 0.521 0.031 0.786a9.2857 9.2857 0 1 1-18.571-0.128c1e-3 -0.27 0.017-0.538 0.042-0.802l3.686-3.126 1.595 1.335 3.99-4.303 3.991 4.303zm-9.656 6.077 0.899-1.561 1.994 0.5-4.346-4.089zm7.505 2.314 0.76-3.081 3.342 1.576-7.462-8.649z" fill="#fff"/>
   <path d="m40.997 28.926 3.642 3.27c0.021 0.259 0.032 0.521 0.031 0.786a9.2857 9.2857 0 1 1-18.571-0.128c1e-3 -0.27 0.017-0.538 0.042-0.802l3.686-3.126 1.595 1.335 3.99-4.303 3.991 4.303zm-9.656 6.077 0.899-1.561 1.994 0.5-4.346-4.089zm7.505 2.314 0.76-3.081 3.342 1.576-7.462-8.649z" fill="#fff"/>
  </g>
 </g>
</svg>
