<svg width="800" height="372.55" enable-background="new 270.9 524.8 300 141" space="preserve" version="1.1" viewBox="270.9 524.8 800 372.55" xmlns="http://www.w3.org/2000/svg">
 <link href="" rel="stylesheet" type="text/css"/>
 <style type="text/css"/>
 <g transform="matrix(2.6649 0 0 2.6649 -450.75 -875.33)" fill="#fff">
  <path d="m553.6 556.2h-0.5s-41.2 0.1-47.4 0.1-8.9 5.7-8.9 5.7l-14.5 25c0-4.8-0.1-28.1-0.1-29.3 0-0.5-0.2-0.8-0.4-1 0 0-0.1 0-0.1-0.1-0.3-0.2-0.5-0.2-0.6-0.2-0.9-0.1-2.5-0.1-3.7 0-1.3 0-2.8 0.1-4.3 0.2-3.7 0.3-6.6 4.7-6.6 4.7l-23.4 40.8c1.5-7.4 8.6-42.8 9-44.4v-0.7c-0.1-0.4-0.5-0.5-0.7-0.5-0.3-0.1-0.6-0.1-0.8 0h-6.1c-2.2 0-4.8 0.1-7.3 0.2-6.4 0.3-9.2 4.1-9.2 4.1l-41.5 51h0.6s4.9 0.1 8.4 0.1c0.6 0 1.1-0.1 1.5-0.1 2.1-0.1 3.3-1.1 4.3-1.9 1.1-0.9 3.6-3.4 5.1-5.3 0.7-0.9 1.4-1.2 1.8-1.4 0.3-0.1 0.5-0.1 0.7-0.1h14.6c1.6-0.1 1.7-1 1.7-1s1.3-6.6 1.5-7.6c0.1-0.7-0.5-0.7-0.5-0.7h-9.8c-1.1 0-0.3-1.1-0.3-1.1l20.2-24.7c-1.2 5.8-8.6 41.4-8.8 42.7-0.3 1.4 0.8 1.2 0.8 1.2h1.1l16 0.1c0.8 0 1.5-0.1 2.2-0.3 3.8-0.7 5.5-3.6 5.5-3.6l15.7-27.2c0 4.9 0.1 28.7 0.1 29.8 0 1.2 0.7 1.2 0.7 1.2h8.2c4.4-0.1 7.6-5.9 7.6-5.9l23.1-40.2c1.8 0 8 0.1 11.1 0.1h1.6c1.2 0 0.6 0.8 0.6 0.8s-25.1 44.2-25.4 44.8 0.1 0.6 0.1 0.6h1.1c0.7 0.1 3.3 0 5.4 0h2.7c0.3 0 0.6 0 1-0.2h0.1c3.2-0.9 5-3.9 5-3.9s23.5-40.8 23.9-41.4 1.1-0.7 1.1-0.7h12.2c1 0 1.4-0.8 1.4-0.8s2.9-6 3.6-7.2c0.7-1.7-0.4-1.7-0.4-1.7z"/>
  <path d="m570.1 525.8c0-0.1-0.1-0.1-0.1-0.2l-0.1-0.1c-0.1 0-0.1-0.1-0.2-0.1h-0.6s-37.9 15-41.3 16.2c-1.6 0.6-2.3 1.5-2.6 2.3 0 0.1-0.1 0.1-0.1 0.2-0.1 0.3-0.2 0.6-0.2 0.8v5.5c0 0.4 0.1 0.6 0.2 0.8 0.1 0.4 0.3 0.4 0.4 0.3 0.2 0.1 0.4 0 0.4 0h35.9c0.8 0 0.5 0.7 0.5 0.7l-0.2 0.3s-2.1 4.4-4.1 8.4l-0.1 0.2c-1.4 2.9-2.7 5.5-3 6.1-0.8 1.6-1.7 1.6-1.7 1.6l-1 0.1h-8.2c-0.5 0-1 0.1-1.3 0.3 0 0-0.1 0-0.1 0.1-0.4 0.2-0.5 0.5-0.5 0.5s-0.9 1.6-2.3 4.1c-5.6 10-20.3 36.3-20.4 36.4 0 0.1-0.1 0.2-0.1 0.3 0 0.2 0 0.4 0.2 0.5h0.1c0.2 0.1 0.3 0.1 0.3 0.1h45.8c2.8 0 3.8-1.9 4.1-3.2 0.2-0.6 0.2-1 0.2-1v-0.2c0-4.7 0.2-80.1 0.2-81 0 0.1 0 0-0.1 0z"/>
  <path d="m302.4 629.3-7.4 5.7c-1-1.6-2.1-2.7-3.2-3.4s-2.4-1.1-3.9-1.1c-2.6 0-3.8 0.9-3.8 2.7 0 0.8 0.3 1.4 0.8 1.9s1.5 1 2.9 1.6l4.9 2.1c3.7 1.6 6.5 3.3 8.3 5.4 1.8 2 2.7 4.5 2.7 7.6 0 4.1-1.5 7.4-4.5 9.8s-6.7 3.6-11.3 3.6c-3.9 0-7.3-0.9-10.3-2.6s-5.3-4.1-6.8-7l7.5-5.7c2.7 3.7 5.9 5.5 9.6 5.5 2.9 0 4.4-1 4.4-3.1 0-1-0.3-1.7-0.9-2.1-0.6-0.5-1.8-1.1-3.4-1.8l-4.4-1.9c-7.2-3.2-10.9-7.5-10.9-12.9 0-3.8 1.4-6.9 4.2-9.2s6.4-3.5 10.8-3.5c6.9-0.2 11.8 2.6 14.7 8.4z"/>
  <path d="m333.2 660.8h-15.4l-1.6 3.6h-12l19.5-43.7h3.6l19.5 43.7h-12zm-7.6-19-3.8 9.9h7.5z"/>
  <path d="m378.3 631.5h-12.9v32.8h-11.2v-32.8h-12.9v-10.1h36.9v10.1z"/>
  <path d="m411.7 631.5h-18.6v5.9h13.3v9.4h-13.3v7.5h19.4v10.1h-30.5v-42.9h29.8v10z"/>
  <path d="m429.4 654.3h17.7v10.1h-28.9v-42.9h11.2z"/>
  <path d="m462.8 654.3h17.7v10.1h-28.9v-42.9h11.2z"/>
  <path d="m496.3 664.3h-11.2v-42.9h11.2z"/>
  <path d="m536.9 631.5h-12.9v32.8h-11.2v-32.8h-12.9v-10.1h36.9v10.1z"/>
  <path d="m570.3 631.5h-18.6v5.9h13.3v9.4h-13.3v7.5h19.3v10.1h-30.5v-42.9h29.8z"/>
 </g>
</svg>
