<svg width="376.64" height="459.05" version="1.1" xmlns="http://www.w3.org/2000/svg">
 <g transform="translate(-158 -238.63)" fill="#f04f23">
  <path d="m478.41 238.62c-2.5642 0-4.6562 2.0608-4.6562 4.625s2.0921 4.6562 4.6562 4.6562 4.625-2.0921 4.625-4.6562-2.0608-4.625-4.625-4.625zm-3.9375 7.4375-129.66 133.25c-11.32-2.9542-23.068-3.1059-36.062 4.6562l-84.125-95.719c0.568-0.64807 0.90625-1.5019 0.90625-2.4375 0-2.0464-1.6411-3.7188-3.6875-3.7188s-3.7188 1.6723-3.7188 3.7188 1.6723 3.6875 3.7188 3.6875c0.65202 0 1.2515-0.17552 1.7812-0.46875l-0.125 0.0937 78.031 99.312c-6.3116 6.036-11.658 12.593-13.625 20.969-35.891 12.462-71.597 24.63-114.91 48.219-25.43 66.038-15.343 126.41 6.5625 184.88 66.978 59.527 236.93 68.05 313.66 39.125 52.148-95.986 56.23-188.41 5.5312-276.78-42.551-7.6436-83.76-18.626-133.59-8.0625-1.6415-4.5794-5.0444-8.4463-8.3125-12.375l118.62-137.25zm-115.19 177.75c28.331-0.0999 54.109 4.4334 78.875 10.844 37.152 62.562 37.904 137.56-3.0312 226.78-110.77 12.243-194.75 2.2903-238.91-40.656-17.869-52.218-19.416-100.37-6.8125-144.97 68.369-38.79 122.66-51.834 169.88-52z"/>
  <path d="m208.22 498.28-9.9688 54.062h10.094l2.1562-7.3438 10.594-0.25 1.5312 7.0938 10.094-0.125-9.8438-53.438zm7.0625 18.188 3.4062 17.438h-6.3125z"/>
  <path d="m236.12 505.24h9.7227l10.228 22.855v-22.855h9.7227v53.412h-10.354l-8.3338-20.329v20.456h-10.859z"/>
  <path d="m283.22 559.91h9.849v-42.931h12.122v-10.733h-33.966v10.607h11.617z"/>
  <path d="m310.24 506.25h25.759v10.733h-14.9v10.859h14.773v10.985h-14.773v10.102h15.026v10.859h-25.759z"/>
  <path d="m343.77 505.49h9.7227l10.228 22.855v-22.855h9.7227v53.412h-10.354l-8.3338-20.329v20.456h-10.859z"/>
  <path d="m381.14 505.49h9.7227l10.228 22.855v-22.855h9.7227v53.412h-10.354l-8.3338-20.329v20.456h-10.859z"/>
  <path d="m424.45 498.16-9.9688 54.062h10.094l2.1562-7.3438 10.594-0.25 1.5312 7.0938 10.094-0.125-9.8438-53.438zm7.0625 18.188 3.4062 17.438h-6.3125z"/>
  <path d="m300.96 628.41h9.849v-42.931h12.122v-10.733h-33.966v10.607h11.617z"/>
  <path d="m333.1 629.74h15.784l9.2176-53.538h-10.607l-5.5558 35.608h-1.1364l-7.4499-35.482h-10.102z"/>
 </g>
</svg>
