<svg width="1e3" height="171.36" enable-background="new 0 0 1000 171.356" space="preserve" version="1.1" viewBox="0 0 1e3 171.36" xmlns="http://www.w3.org/2000/svg">
 <link href="" rel="stylesheet" type="text/css"/>
 <style type="text/css"/>
 <polygon points="47.942 167.68 120.17 57.168 120.17 119.11 100.21 105.78 78.081 139.61 120.17 167.68 160.41 167.68 160.41 2.096 108.25 2.096 0 167.68"/>
 <path d="m239.9 170.91c-38.152 0-62.624-18.988-62.624-59.812v-108.94h40.208v104.74c-0.097 15.913 10.053 24.217 23.208 24.217 12.888 0 22.524-7.883 22.433-24.217v-104.74h40.179v107.99c0 41.997-24.204 60.757-63.404 60.757"/>
 <path d="m365.65 167.9h-46.348v-165.73h50.5c50.06 0 74.686 25.093 74.686 81.68 0 59.663-26.277 84.05-78.838 84.05m9.38-130.74h-15.491v95.986h14.38c18.954 0 30.156-10.273 30.156-48.58 0-37.827-10.16-47.406-29.045-47.406"/>
 <rect x="460.33" y="2.347" width="40.311" height="165.37"/>
 <path d="m745.37 2.096h-40.641v74.504c-13.03-22.827-45.025-74.356-45.025-74.356h-33.954v165.64h40.64v-82.523c5 9.671 48.26 82.341 48.26 82.341h30.629z"/>
 <path d="m891.18 106.04h-41.905c-2.017 22.45-10.263 28.943-22.428 29.046-15.331-0.148-27.405-11.642-27.405-49.639 0-37.748 12.132-49.195 27.109-49.195h0.614c12.006 0 20.242 6.629 22.189 29.524h41.825c-0.285-10.65-2.939-20.138-5.218-26.392-10.67-26.367-29.76-39.387-59.114-39.387-43.248 0-67.419 28.248-67.419 85.917 0 55.767 21.368 85.439 66.838 85.439h1.185c28.077 0 45.368-11.334 56.177-33.146 2.107-4.67 7.154-17.301 7.552-32.167"/>
 <polygon points="609.54 167.92 609.54 134.04 556.84 134.04 556.84 35.959 609.76 35.959 609.76 2.096 516.66 2.096 516.66 167.92"/>
 <polygon points="999.79 167.92 999.79 134.04 947.08 134.04 947.08 35.959 1e3 35.959 1e3 2.096 906.92 2.096 906.92 167.92"/>
 <rect x="566.11" y="66.463" width="38.636" height="33.635"/>
 <rect x="956.35" y="66.463" width="38.647" height="33.635"/>
</svg>
