<svg width="84.667mm" height="25.422mm" version="1.1" viewBox="0 0 300 90.079" xmlns="http://www.w3.org/2000/svg">
 <g transform="translate(1118.6 -401.61)" fill="#fff">
  <g transform="matrix(2.7031 0 0 2.7031 -3522.1 -108.9)" fill="#fff">
   <path d="m961.93 190.49v5.305c0 0.4175-0.30875 0.6125-0.685 0.43375 0 0-4.5138-2.1438-7.375-2.1625-1.1362-8e-3 -2.3725 0.0687-3.4075 0.57625-0.87 0.43-1.5162 1.3125-1.355 2.3238 0.10625 0.64125 0.64375 1.11 1.1675 1.4425 0.90375 0.57375 1.9588 0.90625 2.9838 1.1875 1.3825 0.375 2.8012 0.63375 4.1712 1.045 2.0888 0.6275 4.155 1.715 5.2775 3.6612 0.575 1.0025 0.86875 2.1388 0.97625 3.2825 0.11125 1.2038 0.0538 2.45-0.25625 3.6212-0.53375 2.0125-1.9012 3.5688-3.765 4.4588-2.145 1.02-4.6225 1.2362-6.9662 1.2125-2.9425-0.0263-5.8712-0.51875-8.6925-1.3362l-0.35125-0.1025c-0.385-0.12-0.69625-0.27625-0.69625-0.29375v-5.2288c0-0.41875 0.31125-0.61875 0.69125-0.445 0 0 4.6238 2.1112 7.5138 2.3238 1.2512 0.0913 2.575 0.0725 3.7875-0.27125 0.965-0.27125 1.9362-0.84375 2.1812-1.8875 0.23375-0.99875-0.10875-2.145-0.98375-2.7262-0.7475-0.49625-1.6788-0.75375-2.535-0.99875-1.5825-0.45625-3.2175-0.70625-4.7962-1.18-2.0538-0.6175-4.1425-1.6462-5.2838-3.5512-0.595-0.9925-0.88875-2.1325-0.97375-3.2825-0.0863-1.1712 0.0112-2.3788 0.39125-3.4988 0.69375-2.0438 2.3388-3.5375 4.2925-4.3662 2.3362-0.9875 4.9712-1.1125 7.4738-0.96375 2.455 0.14375 4.8912 0.6125 7.215 1.4212 0 0-1.4038-0.49 0 0"/>
   <path d="m904.71 203.85c-0.6275 0-1.6525 0.0375-2.2788 0.085 0 0-3.2762 0.2475-4.3038 0.9125-1.0312 0.665-1.545 1.8062-1.545 3.4225 0 1.2038 0.3575 2.1625 1.0675 2.875 0.71375 0.71125 1.6812 1.0688 2.9 1.0688 1.8388 0 3.265-0.69375 4.28-2.0788 1.0112-1.3862 1.5188-3.3225 1.5188-5.8112 0-0.26125-0.5125-0.47375-1.1388-0.47375zm8.5538-2.6875v14.045c0 0.62625-0.5125 1.1425-1.1412 1.1425h-4.6325c-0.6275 0-1.1412-0.51625-1.1412-1.1425v-0.68875c0-0.625-0.3475-0.76375-0.77375-0.3025 0 0-1.1412 1.2375-2.4575 1.8712s-2.765 0.95125-4.3488 0.95125c-3.025 0-5.3825-0.8-7.07-2.3988-1.6875-1.6025-2.53-3.8362-2.53-6.7025 0-3.1062 1.0062-5.3988 3.0162-6.88 2.0138-1.4812 5.1275-2.2225 9.34-2.2225h3.685c0.62625 0 1.1388-0.26125 1.1388-0.5825s-0.10375-1.085-0.23-1.7c0 0-0.17625-0.8575-0.9925-1.4362-0.8175-0.57875-2.0175-0.86625-3.6012-0.86625-1.665 0-3.275 0.20875-4.8362 0.6275-1.5612 0.42-3.1862 1.0912-4.8812 2.0088v-4.8012c0-0.625 0.48125-1.3112 1.0738-1.5225 0 0 2.0225-0.71875 3.6062-1.0212 1.5838-0.29875 3.265-0.45 5.0375-0.45 4.3238 0 7.3625 0.88125 9.1138 2.6388 1.75 1.7588 2.625 4.9025 2.625 9.4325"/>
   <path d="m942.48 189.43h-11.416c-0.5525 0-1.205 0.4-1.455 0.89125 0 0-0.3575 0.81125-0.6475 1.6025-0.0288 0.99625 3.59 10.391 3.59 10.391l10.281-12.122c0.35625-0.42125 0.19875-0.7625-0.3525-0.7625"/>
   <path d="m941.13 221.29-15.82-30.971c-0.25125-0.49-0.905-0.89125-1.4538-0.89125h-11.418c-0.55125 0-0.71 0.3425-0.3525 0.7625l10.956 13.134-6.225 12.322c-0.24875 0.49125 0 0.89375 0.55 0.89375h2.1075c0.55 0 1.29-0.345 1.6475-0.76625l6.205-7.3138 10.808 12.96c0.35625 0.42125 1.0988 0.76375 1.6488 0.76375h0.79375c0.5525 0 0.79875-0.4025 0.5525-0.89375"/>
   <path d="m996.07 197.46c0.0175 0.11125-0.0888 0.585-0.2375 1.0512l-3.9688 12.482c-0.14875 0.4675-0.3425 0.94125-0.43 1.0525-0.0888 0.11125-0.795 0.2025-1.285 0.2025h-2.1988c-0.49 0-1-0.04-1.1325-0.09s-0.435-0.6975-0.5825-1.165l-3.0238-9.505c-0.14875-0.4675-0.3275-1.0288-0.3975-1.2475v0.02c-0.23375 4e-3 -0.825 8e-3 -1.315 8e-3h-2.495c-0.49 0-0.98625 0.0425-1.1038 0.0962-0.11625 0.0525-0.2125 0.73125-0.2125 1.2212v4.46c0 0.49125 6e-3 1.03 0.0138 1.2 6e-3 0.17 0.0912 0.86625 0.15 1.2662l0.325 0.28875 0.32625 0.2925c0.4825 0.0525 1.015 0.1075 1.1838 0.12 0.17 0.0125 0.94125 0.0238 1.4312 0.0238h0.38125c0.49 0 0.98625 0.0437 1.1038 0.0962 0.11625 0.0525 0.21125 0.73 0.21125 1.22v0.3775c0 0.49-0.0425 0.9875-0.095 1.105-0.0525 0.11625-0.73 0.2125-1.22 0.2125h-2.1962c-0.49 0-1.0288-6e-3 -1.1975-0.015s-0.935-0.11375-1.4188-0.1925c0 0-0.935-0.15125-1.73-0.87-0.79375-0.72-1.0838-3.1112-1.0838-3.1112-0.0588-0.48625-0.1075-1.285-0.1075-1.775v-4.6988c0-0.49-0.0425-0.9875-0.095-1.1038-0.0538-0.1175-0.72875-0.21375-1.22-0.21375h-1.1962c-0.49 0-0.98625-0.0425-1.1038-0.0963-0.11625-0.0525-0.2125-0.73-0.2125-1.22v-0.37875c0-0.48875 0.0425-0.98625 0.095-1.1038 0.0538-0.1175 0.73125-0.2125 1.2212-0.2125h1.1962c0.49125 0 0.98625-0.0437 1.1038-0.0962 0.11625-0.0525 0.21125-0.73 0.21125-1.22v-1.6238c0-0.49 0.0438-0.9875 0.0963-1.105 0.0512-0.1175 0.73125-0.21375 1.2212-0.21375h1.2875c0.49 0 0.98625 0.0437 1.1038 0.0975 0.1175 0.0525 0.21375 0.73125 0.21375 1.2212v1.6238c0 0.49 0.0438 0.98625 0.0963 1.1038 0.0525 0.11625 0.73 0.2125 1.22 0.2125h5.5225c0.49 0 0.9975 0.0412 1.1288 0.0925 0.13125 0.05 0.40625 0.70375 0.53625 1.1762l2.5038 9.16c0.13 0.4725 0.27125 0.91 0.31625 0.97125 0.0438 0.0613 0.25-0.49875 0.37875-0.97125l2.5162-9.16c0.13-0.4725 0.30375-0.95125 0.3875-1.0638 0.0838-0.11375 0.78875-0.205 1.2788-0.205h1.3425c0.49 0 1.1375 0.0913 1.155 0.2025m-29.31-8.6012c-0.49 0-0.89 0.40125-0.89 0.89125v26.172c0 0.49 0.4 0.89 0.89 0.89h32.492c0.49 0 0.89129-0.4 0.89129-0.89v-26.172c0-0.49-0.40129-0.89125-0.89129-0.89125z"/>
  </g>
 </g>
</svg>
