<svg width="369.85" height="244.12" version="1.1" xmlns="http://www.w3.org/2000/svg">
 <defs>
  <clipPath id="clipPath3237">
   <path d="m0 0h612v792h-612v-792z"/>
  </clipPath>
 </defs>
 <g transform="translate(-55.863 -336.44)">
  <g transform="matrix(4.2653 0 0 4.2653 79.496 -3871.6)">
   <g transform="matrix(1.25 0 0 -1.25 -637.5 1939.6)">
    <g clip-path="url(#clipPath3237)">
     <g transform="translate(553.96 752.7)">
      <path d="m0 0 12.818-20.318s1.071-1.342-1.651-2.587c0 0-12.494-6.421-16.898 7.542 0 0-3.215 10.714 0.835 15.228 0 0 2.675 3.248 4.896 0.135" fill="#fbbf18"/>
     </g>
     <g transform="translate(548.36 762.34)">
      <path d="m0 0c-0.098-0.019-0.205-0.045-0.302-0.064-7.028-1.492-20.911-6.735-24.308-25.085 0 0-1.203-6.251 2.616-7.324 4.531-1.273 4.79 4.649 4.79 4.649s-0.549 20.206 17.157 27.094c0.062 0.024 0.128 0.044 0.191 0.071 0.095 0.066 0.162 0.173 0.162 0.298 0 0.182-0.134 0.325-0.306 0.361" fill="#1b65b6"/>
     </g>
     <g transform="translate(552.26 762.04)">
      <path d="m0 0c-0.113-0.027-0.229-0.055-0.347-0.083-5.942-1.477-19.455-7.211-19.344-28.847 0 0-0.507-6.073 3.75-6.229 4.793-0.177 3.411 6.11 3.411 6.11s-4.494 20.567 12.476 28.449l0.151 0.073c0.069 0.055 0.12 0.137 0.12 0.234 0 0.136-0.092 0.247-0.217 0.293" fill="#442e92"/>
     </g>
     <g transform="translate(553.49 760.5)">
      <path d="m0 0c-0.062-0.014-0.129-0.032-0.193-0.045-0.058-0.022-0.114-0.044-0.176-0.066-4.627-1.793-16.328-8.552-11.358-30.023 0 0 1.131-4.854 5.581-3.444 3.561 1.129 1.155 6.238 1.155 6.238s-8.591 16.321 4.925 26.735c0.084 0.066 0.167 0.126 0.254 0.192l0.031 0.12c0 0.139-0.092 0.248-0.219 0.293" fill="#ef2e32"/>
     </g>
     <g transform="translate(531.43 758.38)">
      <path d="m0 0s-3.179 1.614-19.397 1.102l0.011-3e-3c-0.07-2e-3 -0.14-7e-3 -0.212-8e-3 -0.07-0.038-0.121-0.11-0.121-0.196l0.056-0.142 0.096-0.069-0.013 2e-3c2.133-1.529 9.848-7.466 12.75-15.18 0 0 1.482 5.931 7.983 11.845 0 0 1.203 1.683-1.153 2.649" fill="#40a74c"/>
     </g>
     <g transform="translate(553.47 760.56)">
      <path d="m0 0c-0.062-0.015-0.133-0.031-0.194-0.046-0.061-0.024-0.113-0.044-0.176-0.068-3.36-1.304-10.453-5.227-12.18-15.508 1.615-0.36 3.238-0.686 4.88-0.977-0.159 5.136 1.372 11.193 7.6 15.994 0.081 0.064 0.171 0.127 0.257 0.19l0.03 0.123c0 0.138-0.091 0.246-0.217 0.292" fill="#ef2e32"/>
     </g>
     <g transform="translate(552.27 761.99)">
      <path d="m0 0c-0.115-0.029-0.228-0.057-0.348-0.082-4.466-1.111-13.204-4.625-17.226-15.479 1.677-0.484 3.369-0.926 5.077-1.328 1.153 5.912 4.365 12.536 12.443 16.289l0.151 0.073c0.069 0.058 0.119 0.135 0.119 0.235 0 0.137-0.091 0.247-0.216 0.292" fill="#6947a7"/>
     </g>
     <g transform="translate(531.43 758.38)">
      <path d="m0 0s-3.179 1.614-19.397 1.102l0.011-3e-3c-0.07-2e-3 -0.14-7e-3 -0.212-8e-3 -0.07-0.038-0.121-0.11-0.121-0.196l0.056-0.142 0.096-0.069-0.013 2e-3c1.28-0.916 4.569-3.423 7.623-6.946 2.45-1.126 4.948-2.162 7.493-3.11 1.221 1.989 3.018 4.356 5.617 6.721 0 0 1.203 1.683-1.153 2.649" fill="#42bb5a"/>
     </g>
     <g transform="translate(548.36 762.29)">
      <path d="m0 0c-0.098-0.021-0.205-0.047-0.302-0.064-5.273-1.12-14.401-4.348-20.068-13.638 1.843-0.663 3.711-1.28 5.6-1.844 2.234 5.573 6.52 11.623 14.723 14.813 0.062 0.024 0.128 0.047 0.191 0.071 0.095 0.069 0.162 0.173 0.162 0.299 0 0.184-0.134 0.328-0.306 0.363" fill="#3d7bc7"/>
     </g>
     <g transform="translate(553.96 752.76)">
      <path d="m0 0c-2.221 3.113-4.896-0.136-4.896-0.136-1.939-2.159-2.211-5.736-1.97-8.881 4.384-0.718 8.858-1.168 13.401-1.341l-6.535 10.358z" fill="#fabd4a"/>
     </g>
     <g transform="translate(552.26 754.05)">
      <path d="m0 0c0.561-0.135 1.142-0.516 1.694-1.29l6.536-10.359c-0.012 0-0.024 1e-3 -0.036 2e-3l6.319-10.016s1.07-1.343-1.651-2.587c0 0-2.869-1.474-6.341-1.474-3.775 0-8.264 1.741-10.558 9.015 0 0-1.299 4.331-1.205 8.646 0.018 0.958 0.104 1.916 0.288 2.827-0.225-1.071-0.313-2.209-0.313-3.334 0-4.178 1.215-8.222 1.215-8.222 2.294-7.292 6.827-9.077 10.626-9.077h0.019c3.498 0 6.374 1.479 6.382 1.484 1.53 0.7 1.908 1.456 1.906 2.008 0 0.431-0.22 0.705-0.227 0.714l-12.811 20.312-0.078-0.048 0.076 0.053c-0.592 0.83-1.227 1.225-1.841 1.346" fill="#f39940"/>
     </g>
     <g transform="translate(547.02 745.99)">
      <path d="m0 0c-0.094-4.315 1.205-8.646 1.205-8.646 2.295-7.273 6.783-9.015 10.558-9.015 3.472 0 6.341 1.474 6.341 1.474 2.721 1.244 1.651 2.587 1.651 2.587l-6.319 10.016c-0.024 1e-3 -0.049 2e-3 -0.073 3e-3l6.384-10.124c8e-3 -8e-3 0.048-0.062 0.099-0.169 0.047-0.105 0.095-0.259 0.095-0.44-2e-3 -0.459-0.297-1.153-1.803-1.846-6e-3 0-0.714-0.363-1.858-0.732-1.146-0.366-2.724-0.733-4.445-0.733-3.748 8e-3 -8.183 1.711-10.471 8.952 0 0-0.302 1-0.603 2.527-0.215 1.087-0.43 2.44-0.536 3.877-0.052 8e-3 -0.103 0.017-0.155 0.025-0.056 0.732-0.084 1.488-0.07 2.244" fill="#d3711b"/>
     </g>
     <g transform="translate(551.84 754.09)">
      <path d="m0 0c-1.542-8e-3 -2.766-1.516-2.773-1.52-0.907-1.013-1.452-2.327-1.752-3.758-0.184-0.911-0.27-1.869-0.288-2.827-0.014-0.756 0.014-1.512 0.07-2.244 0.052-8e-3 0.103-0.017 0.155-0.025-0.043 0.578-0.068 1.169-0.068 1.763-2e-3 2.609 0.482 5.259 2.019 6.971 3e-3 6e-3 0.304 0.367 0.786 0.731 0.481 0.367 1.142 0.725 1.85 0.725h1e-3c0.676-1e-3 1.412-0.319 2.121-1.307l6.428-10.195c0.025-1e-3 0.049-2e-3 0.074-3e-3 0.012-1e-3 0.024-1e-3 0.036-1e-3l-6.536 10.358c-0.552 0.775-1.133 1.156-1.694 1.29-0.144 0.029-0.288 0.042-0.429 0.042" fill="#d56e1b"/>
     </g>
     <g transform="translate(527.57 729.69)">
      <path d="m0 0c-0.362 0-0.762 0.056-1.202 0.179-3.819 1.073-2.616 7.325-2.616 7.325 3.397 18.349 17.28 23.592 24.308 25.084 0.098 0.019 0.204 0.046 0.302 0.064 0.172-0.035 0.307-0.179 0.307-0.36 0-9e-3 -1e-3 -0.017-1e-3 -0.026s1e-3 -0.017 1e-3 -0.026c0-0.126-0.068-0.23-0.163-0.299-0.063-0.024-0.129-0.048-0.191-0.071-8.203-3.19-12.489-9.24-14.723-14.813-6e-3 1e-3 -0.013 3e-3 -0.019 5e-3 -2.573-6.44-2.415-12.233-2.415-12.233s-0.211-4.829-3.588-4.829m20.861 32.692-0.019-5e-3c-0.098-0.019-0.203-0.044-0.298-0.066-7.046-1.49-20.976-6.759-24.382-25.155v-2e-3s-0.182-0.938-0.182-2.155c0-1.923 0.451-4.589 2.862-5.273 0.449-0.126 0.855-0.183 1.23-0.183 1.737 0 2.666 1.253 3.142 2.472 0.482 1.224 0.534 2.443 0.534 2.443 0 9e-3 -1e-3 0.072-1e-3 0.203 0 2.107 0.49 20.355 17.102 26.809 0.058 0.023 0.125 0.044 0.19 0.069l0.01 4e-3 9e-3 9e-3c0.115 0.082 0.203 0.214 0.203 0.373 0 0.229-0.171 0.41-0.383 0.452l-0.017 5e-3z" fill="#3f5786"/>
     </g>
     <g transform="translate(548.36 762.34)">
      <path d="m0 0c-0.098-0.019-0.205-0.045-0.302-0.064-7.028-1.492-20.911-6.735-24.308-25.085 0 0-1.203-6.251 2.616-7.324 0.44-0.124 0.839-0.179 1.202-0.179 3.377 0 3.588 4.828 3.588 4.828s-0.158 5.794 2.414 12.234c-1e-3 1e-3 -3e-3 1e-3 -5e-3 2e-3 -2.308-5.764-2.433-11.016-2.433-12.093 0-0.133 2e-3 -0.202 2e-3 -0.202s-0.055-1.191-0.519-2.377c-0.475-1.192-1.339-2.357-2.976-2.357-0.355 0-0.745 0.055-1.178 0.174-2.276 0.634-2.73 3.189-2.73 5.099 0 1.199 0.179 2.123 0.178 2.123 0.847 4.573 2.347 8.331 4.229 11.416-0.049 0.018-0.099 0.035-0.148 0.053 5.667 9.291 14.795 12.518 20.068 13.639 0.097 0.017 0.204 0.042 0.302 0.064 0.164-0.034 0.293-0.166 0.305-0.337 1e-3 8e-3 1e-3 0.017 1e-3 0.025 0 0.182-0.134 0.325-0.306 0.361" fill="#162b4c"/>
     </g>
     <g transform="translate(548.36 762.29)">
      <path d="m0 0c-0.098-0.021-0.205-0.047-0.302-0.064-5.273-1.12-14.401-4.348-20.068-13.638 0.049-0.018 0.099-0.036 0.148-0.053 5.651 9.262 14.75 12.477 20.009 13.596 0.095 0.02 0.193 0.041 0.279 0.06 0.13-0.034 0.219-0.14 0.219-0.269 0-0.088-0.043-0.165-0.116-0.22-0.057-0.021-0.119-0.041-0.18-0.066-8.244-3.209-12.543-9.288-14.784-14.885 2e-3 0 4e-3 -1e-3 5e-3 -2e-3 7e-3 -1e-3 0.013-4e-3 0.02-5e-3 2.234 5.573 6.52 11.623 14.723 14.813 0.062 0.024 0.128 0.047 0.191 0.071 0.095 0.069 0.162 0.173 0.162 0.299 0 9e-3 0 0.018-1e-3 0.026-0.012 0.172-0.141 0.303-0.305 0.337" fill="#1b3a72"/>
     </g>
     <g transform="translate(536.52 726.87)">
      <path d="m0 0c-0.064 0-0.13 1e-3 -0.197 4e-3 -4.257 0.155-3.75 6.228-3.75 6.228-0.111 21.636 13.402 27.37 19.344 28.847 0.119 0.029 0.234 0.056 0.347 0.083 0.124-0.046 0.216-0.155 0.217-0.29 3e-3 -0.016 4e-3 -0.032 4e-3 -0.049 0-0.099-0.05-0.177-0.119-0.234l-0.151-0.073c-8.078-3.753-11.29-10.377-12.443-16.29-4e-3 1e-3 -9e-3 2e-3 -0.013 3e-3 -1.253-6.492-0.025-12.116-0.025-12.116s0.618-2.809-0.404-4.619c-0.171-0.306-0.389-0.583-0.667-0.812-0.503-0.418-1.196-0.682-2.143-0.682m15.821 35.203-0.026-7e-3c-0.113-0.027-0.231-0.054-0.35-0.085-5.941-1.467-19.42-7.207-19.415-28.671 1e-3 -0.084 1e-3 -0.174 1e-3 -0.264-1e-3 0-0.018-0.223-0.018-0.582 0-0.772 0.082-2.161 0.602-3.384 0.517-1.223 1.496-2.293 3.255-2.352 0.069-3e-3 0.137-6e-3 0.204-6e-3h0.01c1.452 0 2.339 0.627 2.841 1.48 0.504 0.855 0.637 1.922 0.637 2.827 0 1.07-0.188 1.919-0.188 1.919v2e-3s-0.134 0.611-0.268 1.664c-0.133 1.06-0.268 2.56-0.268 4.332 3e-3 6.689 1.914 17.217 12.962 22.347l0.152 0.073 0.01 4e-3 0.01 8e-3c0.084 0.071 0.153 0.175 0.153 0.306 0 0.181-0.123 0.324-0.278 0.377l-0.026 0.012z" fill="#342c5e"/>
     </g>
     <g transform="translate(539.75 745.11)">
      <path d="m0 0c-0.431-2.215-0.573-4.329-0.572-6.156 0-3.56 0.538-6.032 0.541-6.04 0 0 0.182-0.83 0.182-1.877-5e-3 -0.869-0.126-1.867-0.57-2.664 1.022 1.81 0.405 4.618 0.405 4.618s-1.229 5.624 0.025 12.117c-4e-3 1e-3 -7e-3 1e-3 -0.011 2e-3m12.515 16.93c-0.113-0.026-0.228-0.054-0.347-0.082-5.942-1.478-19.455-7.212-19.344-28.848 0 0-0.507-6.073 3.751-6.228 0.066-3e-3 0.132-4e-3 0.196-4e-3 0.948 0 1.64 0.264 2.143 0.683-0.486-0.399-1.155-0.649-2.069-0.649-0.064 0-0.13 0-0.195 4e-3 -1.682 0.068-2.586 1.057-3.094 2.243s-0.59 2.553-0.59 3.313c0 0.355 0.019 0.578 0.019 0.578-1e-3 0.094-1e-3 0.184-1e-3 0.268 2e-3 5.248 0.809 9.548 2.114 13.071-0.051 0.015-0.102 0.029-0.152 0.044 4.022 10.854 12.76 14.368 17.226 15.479 0.12 0.025 0.233 0.053 0.348 0.082 0.11-0.039 0.194-0.129 0.212-0.243-1e-3 0.134-0.092 0.243-0.217 0.289" fill="#13192b"/>
     </g>
     <g transform="translate(552.27 761.99)">
      <path d="m0 0c-0.115-0.029-0.228-0.057-0.348-0.082-4.466-1.111-13.204-4.625-17.226-15.479 0.05-0.015 0.101-0.03 0.151-0.044 4.009 10.825 12.713 14.313 17.162 15.423 0.109 0.027 0.216 0.053 0.322 0.076 0.081-0.04 0.131-0.109 0.133-0.196-2e-3 -0.06-0.03-0.113-0.079-0.159l-0.141-0.064c-8.112-3.769-11.34-10.425-12.494-16.359 3e-3 -1e-3 7e-3 -2e-3 0.01-3e-3 5e-3 0 9e-3 -2e-3 0.013-2e-3 1.153 5.912 4.365 12.536 12.443 16.289l0.151 0.073c0.069 0.058 0.119 0.135 0.119 0.235 0 0.016-1e-3 0.033-4e-3 0.049-0.019 0.114-0.102 0.204-0.212 0.243" fill="#221c51"/>
     </g>
     <g transform="translate(553.57 760.54)">
      <path d="m0 0-0.025-4e-3c-1e-3 0-2e-3 0-3e-3 -1e-3 0.08-0.048 0.137-0.126 0.15-0.22 0.013-0.033 0.019-0.069 0.019-0.107l-0.03-0.12c-0.087-0.066-0.17-0.126-0.254-0.192-13.516-10.414-4.925-26.736-4.925-26.736s2.406-5.108-1.155-6.238c-0.565-0.178-1.075-0.256-1.537-0.256-3.182 0-4.044 3.701-4.044 3.701-1.366 5.901-1.473 10.69-0.813 14.571l-0.012 3e-3c-0.258-1.505-0.402-3.146-0.402-4.935 0-2.85 0.364-6.07 1.208-9.716 3e-3 -3e-3 0.867-3.758 4.132-3.771 0.471 0 0.993 0.082 1.564 0.261 1.56 0.491 2.021 1.751 2.015 2.991-2e-3 1.677-0.801 3.369-0.804 3.375-4e-3 6e-3 -0.67 1.272-1.342 3.337-0.67 2.06-1.34 4.912-1.34 8.064 2e-3 4.96 1.652 10.652 7.579 15.221 0.082 0.063 0.167 0.126 0.256 0.191l0.017 0.013 9e-3 0.022c0.022 0.043 0.038 0.098 0.038 0.159 0 0.182-0.12 0.325-0.275 0.38l-0.026 7e-3z" fill="#a42f25"/>
     </g>
     <g transform="translate(553.69 760.31)">
      <path d="m0 0c2e-3 -0.013 3e-3 -0.027 3e-3 -0.04l-0.014-0.058c6e-3 -0.019 9e-3 -0.041 9e-3 -0.063l-0.012-0.062c-0.079-0.059-0.157-0.119-0.238-0.178-5.464-4.21-7.333-9.395-7.613-14.073-0.034-0.636-0.039-1.261-0.02-1.874-3e-3 1e-3 -7e-3 1e-3 -0.01 2e-3 0.154-6.082 2.691-10.9 2.696-10.905 0 0 0.194-0.416 0.39-1.035 0.198-0.62 0.394-1.45 0.394-2.258-5e-3 -1.206-0.416-2.346-1.889-2.815-0.556-0.176-1.056-0.254-1.508-0.254-1.551 0-2.533 0.898-3.138 1.81-0.302 0.454-0.504 0.911-0.637 1.25-0.129 0.347-0.181 0.569-0.181 0.569-0.841 3.633-1.203 6.84-1.203 9.675 0 1.775 0.143 3.403 0.399 4.895-0.056 0.013-0.112 0.025-0.167 0.037-0.66-3.88-0.553-8.67 0.813-14.571 0 0 0.863-3.701 4.044-3.701 0.462 0 0.972 0.078 1.537 0.257 3.561 1.129 1.155 6.238 1.155 6.238s-8.591 16.322 4.925 26.735c0.084 0.066 0.167 0.126 0.254 0.192l0.03 0.12c0 0.039-6e-3 0.074-0.019 0.107" fill="#6f1122"/>
     </g>
     <g transform="translate(545.82 745.84)">
      <path d="m0 0c-0.026-0.436-0.038-0.868-0.038-1.294 0-0.194 2e-3 -0.386 7e-3 -0.578 4e-3 0 7e-3 -1e-3 0.011-2e-3 -0.019 0.613-0.014 1.239 0.02 1.874m7.714 14.695c-0.062-0.016-0.128-0.032-0.194-0.046-0.065-0.024-0.125-0.048-0.184-0.07-3.368-1.3-10.462-5.232-12.222-15.479 4e-3 0 8e-3 -1e-3 0.011-2e-3 0.056-0.012 0.112-0.025 0.167-0.037 1.745 10.178 8.774 14.05 12.109 15.348 0.06 0.023 0.114 0.042 0.175 0.064l0.153 0.037c0.063-0.028 0.106-0.074 0.124-0.133l0.014 0.057c0 0.014-1e-3 0.027-2e-3 0.04-0.013 0.095-0.07 0.173-0.151 0.221" fill="#6f1122"/>
     </g>
     <g transform="translate(518.05 759.62)">
      <path d="m0 0c-1.755 0-3.727-0.028-5.943-0.099v-3e-3c-0.067-5e-3 -0.133-5e-3 -0.199-0.01h-0.021l-0.019-0.01c-0.039-0.02-0.073-0.049-0.101-0.084 0.02 0.025 0.045 0.045 0.072 0.06 0.073 1e-3 0.142 7e-3 0.212 9e-3l-0.011 2e-3c2.221 0.07 4.197 0.1 5.954 0.1 11.075 0 13.443-1.202 13.443-1.202 1.167-0.478 1.461-1.132 1.46-1.671 0-0.549-0.307-0.978-0.307-0.978-2.252-2.05-3.902-4.102-5.098-5.907-2.252-3.405-2.884-5.937-2.884-5.937-1.161 3.084-3.091 5.884-5.126 8.232l-1e-3 1e-3c-1.587 1.829-3.236 3.385-4.634 4.586-1.295 1.111-2.375 1.919-2.99 2.361l0.013-2e-3 -0.096 0.068-0.056 0.142c0 0.049 0.016 0.093 0.043 0.129-0.038-0.05-0.061-0.113-0.061-0.182 0-0.082 0.03-0.151 0.077-0.207l6e-3 -9e-3 0.01-3e-3 0.084-0.059-2e-3 -8e-3c2.125-1.524 9.83-7.458 12.718-15.136l0.101-0.273 0.073 0.282v3e-3s0.09 0.362 0.33 1.01c0.717 1.932 2.762 6.362 7.626 10.786l6e-3 6e-3 4e-3 7e-3c6e-3 9e-3 0.324 0.45 0.326 1.034 4e-3 0.574-0.33 1.273-1.516 1.752-0.142 0.068-2.673 1.21-13.493 1.21" fill="#467a43"/>
     </g>
     <g transform="translate(519.48 752.12)">
      <path d="m0 0c2.035-2.348 3.965-5.148 5.126-8.233 0 0 0.632 2.532 2.885 5.937-0.184-0.277-0.357-0.549-0.52-0.814-1e-3 1e-3 -1e-3 1e-3 -2e-3 1e-3 -1.463-2.382-2.103-4.228-2.305-4.89-1.156 2.947-2.999 5.625-4.947 7.89-0.079 0.037-0.158 0.073-0.237 0.109m-7.625 6.947c0.616-0.441 1.696-1.249 2.99-2.361-1.294 1.112-2.374 1.921-2.99 2.361" fill="#16612c"/>
     </g>
     <g transform="translate(517.99 759.58)">
      <path d="m0 0c-1.757 0-3.733-0.03-5.955-0.1l0.012-3e-3c-0.07-2e-3 -0.14-7e-3 -0.212-8e-3 -0.028-0.015-0.053-0.035-0.073-0.06-1e-3 -2e-3 -3e-3 -5e-3 -5e-3 -7e-3 -0.027-0.036-0.043-0.081-0.043-0.129l0.056-0.142 0.095-0.069-0.012 2e-3c0.615-0.44 1.695-1.249 2.989-2.361 1.399-1.201 3.048-2.756 4.634-4.585l1e-3 -1e-3c0.079-0.036 0.158-0.072 0.237-0.109-3.08 3.582-6.422 6.129-7.725 7.067l1e-3 5e-3 -0.084 0.062-0.029 0.078 0.058 0.104c0.063 0 0.125 5e-3 0.188 6e-3v5e-3c2.208 0.069 4.174 0.097 5.923 0.097 5.54 0 8.901-0.299 10.874-0.598 0.985-0.15 1.625-0.301 2.015-0.412 0.382-0.109 0.523-0.181 0.528-0.181l0.042 0.083-0.036-0.087c1.143-0.471 1.399-1.082 1.402-1.584 0-0.258-0.071-0.49-0.144-0.66-0.065-0.143-0.124-0.236-0.141-0.26-2.599-2.365-4.397-4.733-5.62-6.725 1e-3 0 1e-3 0 2e-3 -1e-3 0.163 0.265 0.336 0.537 0.52 0.814 1.195 1.806 2.845 3.858 5.098 5.908 0 0 0.306 0.429 0.307 0.978 0 0.538-0.294 1.192-1.46 1.671 0 0-2.369 1.202-13.443 1.202" fill="#156c30"/>
     </g>
     <g transform="translate(520.81 712.93)">
      <path d="m-10.226 5.148c0-0.53589 0.02236-1.0495 0.08064-1.3575h-1.5635l-0.10301 0.55915h-0.03418c-0.36549-0.44523-0.93459-0.68493-1.5967-0.68493-1.1297 0-1.8027 0.82163-1.8027 1.7121 0 1.4482 1.3006 2.144 3.2742 2.1331v0.07974c0 0.29619-0.15949 0.71911-1.0158 0.71911-0.57054 0-1.1743-0.19414-1.5393-0.42292l-0.32039 1.1188c0.38827 0.21597 1.1529 0.49032 2.1678 0.49032 1.8587 0 2.453-1.0955 2.453-2.4079v-1.939zm-1.6879 1.2773c-0.91371 0.011385-1.621-0.2041-1.621-0.87764 0-0.44523 0.29665-0.66167 0.68398-0.66167 0.43431 0 0.78841 0.28479 0.90232 0.63936 0.02238 0.090183 0.03471 0.19271 0.03471 0.29619v0.60376z" fill="#8c8d91"/>
     </g>
     <g transform="translate(522.04 712.16)">
      <path d="m-10.87 5.5513 1.7567 2.2015c0.31945 0.37593 0.57101 0.65028 0.88998 0.99251v0.021832h-2.4526v1.3703h4.5629v-1.0385l-1.676-2.1098c-0.30948-0.36643-0.5938-0.7191-0.91277-1.0276v-0.023263h2.6809v-1.3798h-4.8491v0.99298z" fill="#8c8d91"/>
     </g>
     <g transform="translate(538.05 725.02)">
      <path d="m-19.283-1.2041v-1.5175h1.2441v-1.2778h-1.2441v-2.0197c0-0.67353 0.15996-0.98207 0.68541-0.98207 0.23875 0 0.34223 0.011851 0.51262 0.046505l0.01138-1.312c-0.22736-0.091598-0.63842-0.15997-1.1287-0.15997-0.55962 0-1.0267 0.20505-1.301 0.49033-0.31897 0.33131-0.47893 0.8672-0.47893 1.6537v2.2831h-0.74236v1.2778h0.74236v1.049l1.6993 0.46849z" fill="#8c8d91"/>
     </g>
     <g transform="translate(544.8 714.78)">
      <path d="m-22.828 4.1762c0.05696-0.71863 0.76467-1.0604 1.5744-1.0604 0.59333 0 1.0718 0.079744 1.5403 0.22783l0.22736-1.1748c-0.57006-0.22831-1.2659-0.35409-2.0182-0.35409-1.8939 0-2.9775 1.1074-2.9775 2.8527 0 1.414 0.87717 2.9775 2.8171 2.9775 1.8027 0 2.4867-1.4031 2.4867-2.7839 0-0.29666-0.03371-0.55867-0.05697-0.68493h-3.5932zm2.0415 1.1871c0 0.42197-0.18227 1.1292-0.98015 1.1292-0.7305 0-1.0272-0.66167-1.0723-1.1292h2.0524z" fill="#8c8d91"/>
     </g>
     <g transform="translate(562.78 710.36)">
      <path d="m-32.273 6.4989c-0.30758-0.1367-0.88951-0.26248-1.5512-0.26248-1.8027 0-2.9543 1.1069-2.9543 2.8636 0 1.6314 1.1173 2.9666 3.1935 2.9666 0.4566 0 0.95833-0.07969 1.3233-0.2174l-0.27388-1.2887c-0.20505 0.09115-0.51262 0.17087-0.9702 0.17087-0.91183 0-1.5052-0.65027-1.4942-1.5626 0-1.0272 0.68491-1.564 1.5303-1.564 0.41011 0 0.72908 0.06882 0.99252 0.18274l0.2041-1.2887z" fill="#8c8d91"/>
     </g>
     <g transform="translate(573.98 712.93)">
      <path d="m-38.157 5.148c0-0.53589 0.0223-1.0495 0.07971-1.3575h-1.5631l-0.10252 0.55915h-0.03463c-0.36455-0.44523-0.93412-0.68493-1.5977-0.68493-1.1287 0-1.8018 0.82163-1.8018 1.7121 0 1.4482 1.301 2.144 3.2747 2.1331v0.07974c0 0.29619-0.15997 0.71911-1.0153 0.71911-0.57101 0-1.1757-0.19414-1.5407-0.42292l-0.31944 1.1188c0.38825 0.21597 1.1529 0.49032 2.1677 0.49032 1.8592 0 2.453-1.0955 2.453-2.4079v-1.939zm-1.6879 1.2773c-0.91371 0.011384-1.6209-0.2041-1.6209-0.87764 0-0.44523 0.29664-0.66167 0.68493-0.66167 0.43336 0 0.78746 0.28479 0.90137 0.63936 0.02235 0.090183 0.03465 0.19271 0.03465 0.29619v0.60376z" fill="#8c8d91"/>
     </g>
    </g>
   </g>
  </g>
  <path d="m243.7 549.61c-3.945 7e-5 -7.3343 0.87913-10.18 2.6686l1.2519 3.7227c2.3579-1.504 5.062-2.2402 8.0715-2.2402 2.2573 3e-5 3.9578 0.57702 5.1064 1.7461 1.1485 1.1689 1.7131 2.781 1.7131 4.8758v0.56003c-5.9777 2e-5 -10.529 0.94267-13.639 2.8332-3.1105 1.8906-4.6452 4.6242-4.6452 8.2031 0 2.338 0.8496 4.3393 2.5367 5.9959 1.6871 1.6567 3.915 2.5038 6.7208 2.5038 4.0058 0 7.1069-1.5121 9.3232-4.4805l0.69184 3.7887h5.1723c-0.32634-1.7895-0.4942-4.1556-0.49411-7.0831v-10.773c-9e-5 -3.9848-0.97011-7.044-2.9322-9.1586-1.962-2.1147-4.8553-3.1627-8.6973-3.1628zm4.3816 15.253c0.54933-0.0177 1.1185 0 1.7132 0v4.8759c-2e-5 1.6877-0.74299 3.1818-2.2073 4.5133-1.4644 1.3315-3.2816 2.0096-5.4359 2.0096-1.5251 1e-5 -2.7317-0.43355-3.6568-1.3177-0.9251-0.88429-1.3836-2.1238-1.3836-3.6898-1e-5 -1.9917 0.91705-3.5725 2.7674-4.711 1.6189-0.99622 4.358-1.5556 8.2031-1.6802z" fill="#8c8d91"/>
  <path d="m277.47 549.61c-4.2279 7e-5 -7.4562 1.8092-9.6527 5.4688l-0.42822-4.81h-4.9417c0.16258 2.1358 0.2636 4.8321 0.2636 8.1045v21.414h5.5347v-17.625c-1e-5 -2.1146 0.72047-3.9487 2.1744-5.5346 1.4537-1.5859 3.1492-2.405 5.0405-2.405 1.952 2e-5 3.4612 0.75358 4.5793 2.2073 1.1181 1.4538 1.6802 3.4295 1.6802 5.93v17.428h5.5676v-18.12c-3e-5 -2.1754 0.69565-3.944 2.1084-5.337 1.4129-1.393 3.0323-2.1084 4.8429-2.1085 2.0935 2e-5 3.7142 0.80652 4.8429 2.372 1.1286 1.5655 1.6801 3.792 1.6801 6.7207v16.472h5.5677v-17.131c-4e-5 -4.2689-0.97502-7.5023-2.8662-9.7186-1.8913-2.2163-4.2875-3.3274-7.2148-3.3274-4.331 7e-5 -7.6954 1.9783-10.114 5.963-0.79299-1.8701-1.944-3.3242-3.4591-4.3815-1.5153-1.0573-3.2532-1.5814-5.2053-1.5814z" fill="#8c8d91"/>
  <path d="m325.99 549.61c-4.4117 7e-5 -7.8965 1.5298-10.509 4.5794-2.6129 3.0497-3.9204 6.8195-3.9204 11.333 0 4.5146 1.3606 8.1478 4.0851 10.872 2.7246 2.7239 6.3752 4.0851 10.971 4.0851 3.9649 0 7.4041-0.67612 10.312-1.9766l-0.98833-3.9534c-2.4596 1.0165-5.3249 1.5155-8.5986 1.5155-3.0094 0-5.456-0.83904-7.3466-2.5367-1.8906-1.6976-2.8831-4.1549-2.965-7.3466h21.414c0.12155-0.58952 0.19759-1.4173 0.19761-2.5367-2e-5 -3.9239-1.0862-7.2682-3.2615-9.9822-2.1755-2.7139-5.3226-4.0521-9.3892-4.0522zm-0.39531 4.0194c2.4198 3e-5 4.2566 0.78412 5.5677 2.3391 1.3111 1.5549 1.9766 3.5861 1.9766 6.1276h-16.044c0.34617-2.5415 1.2632-4.5727 2.7673-6.1276s3.434-2.339 5.7323-2.3391z" fill="#8c8d91"/>
  <path d="m357.69 549.61c-1.8093 7e-5 -3.4949 0.58707-5.0405 1.7461-1.5456 1.1591-2.7071 2.7692-3.4592 4.8428l-0.3623-5.9301h-5.0076c0.16257 2.4399 0.26363 5.5659 0.26364 9.3892v20.129h5.6664v-15.616c0-2.9683 0.73308-5.2466 2.2073-6.8524 1.4743-1.6058 3.2515-2.405 5.304-2.405 0.75327 1e-5 1.3953 0.0431 1.9437 0.16474v-5.3699c-0.63045-0.0805-1.1295-0.099-1.5154-0.099z" fill="#8c8d91"/>
  <path d="m366.25 537.79c-1.0784 4e-5 -1.9549 0.34008-2.6356 1.0213-0.68065 0.68131-1.0213 1.5086-1.0213 2.5038 0 1.0177 0.31764 1.8786 0.98836 2.5696 0.67079 0.69131 1.5454 1.0214 2.6026 1.0213 1.0983 4e-5 1.9648-0.33 2.6356-1.0213 0.67066-0.69108 1.0213-1.552 1.0213-2.5696-1e-5 -0.99514-0.34003-1.8224-1.0213-2.5038-0.68126-0.68121-1.5335-1.0212-2.5696-1.0213zm-2.8662 12.486v29.518h5.6664v-29.518h-5.6664z" fill="#8c8d91"/>
  <path d="m390.86 549.61c-4.9006 7e-5 -8.8409 1.4767-11.86 4.4146-3.0194 2.938-4.5464 6.7098-4.5464 11.366 0 4.4725 1.4109 8.1193 4.2169 10.905 2.8058 2.7854 6.482 4.1839 11.036 4.1839 3.3952 0 6.3601-0.60012 8.862-1.7789l-0.92242-4.2828c-2.2362 0.97667-4.5263 1.4824-6.8855 1.4824-3.049 0-5.5717-1.003-7.5442-2.9649-1.9725-1.9621-2.965-4.5921-2.965-7.9068 0-3.1917 0.9906-5.7976 2.9321-7.8407 1.9416-2.0433 4.508-3.0639 7.742-3.0639 2.4794 2e-5 4.6516 0.47412 6.5229 1.4495l1.219-4.3156c-2.2362-1.0982-4.8395-1.6472-7.8078-1.6473z" fill="#8c8d91"/>
  <path d="m413.59 549.61c-3.9451 7e-5 -7.3343 0.87913-10.18 2.6686l1.2848 3.7227c2.3578-1.504 5.0291-2.2402 8.0385-2.2402 2.2574 3e-5 3.9579 0.57702 5.1064 1.7461 1.1485 1.1689 1.7131 2.781 1.7131 4.8758v0.56003c-5.9778 2e-5 -10.496 0.94267-13.606 2.8332-3.1105 1.8906-4.6782 4.6242-4.6782 8.2031 0 2.338 0.84963 4.3393 2.5368 5.9959 1.6871 1.6567 3.9148 2.5038 6.7206 2.5038 4.0058 0 7.1398-1.5121 9.3563-4.4805l0.65889 3.7887h5.1722c-0.32643-1.7895-0.49421-4.1556-0.49418-7.0831v-10.773c-3e-5 -3.9848-0.97012-7.044-2.932-9.1586-1.9621-2.1147-4.8554-3.1627-8.6973-3.1628zm4.3815 15.253c0.54937-0.0177 1.1185 0 1.7132 0v4.8759c-1e-5 1.6877-0.74293 3.1818-2.2073 4.5133-1.4642 1.3315-3.2485 2.0096-5.4029 2.0096-1.5252 1e-5 -2.7646-0.43355-3.6898-1.3177-0.92522-0.88429-1.3837-2.1238-1.3837-3.6898 0-1.9917 0.91702-3.5725 2.7673-4.711 1.619-0.99622 4.3581-1.5556 8.2032-1.6802z" fill="#808080"/>
 </g>
</svg>
