<svg width="800" height="528.04" version="1.1" xmlns="http://www.w3.org/2000/svg">
 <defs>
  <linearGradient id="linearGradient5119" x1="223.98" x2="295.96" y1="-167.33" y2="-160.35" gradientUnits="userSpaceOnUse">
   <stop stop-color="#d56e1b" offset="0"/>
   <stop stop-color="#f39940" offset="1"/>
  </linearGradient>
  <linearGradient id="linearGradient5141" x1="190.92" x2="217.12" y1="-173.89" y2="-168.83" gradientUnits="userSpaceOnUse">
   <stop stop-color="#6f1122" offset="0"/>
   <stop stop-color="#a42f25" offset="1"/>
  </linearGradient>
  <linearGradient id="linearGradient5149" x1="157.27" x2="184.65" y1="-182.32" y2="-175.5" gradientUnits="userSpaceOnUse">
   <stop stop-color="#13192b" offset="0"/>
   <stop stop-color="#342c5e" offset="1"/>
  </linearGradient>
  <linearGradient id="linearGradient5157" x1="121.28" x2="151.47" y1="-194.01" y2="-184.36" gradientUnits="userSpaceOnUse">
   <stop stop-color="#162b4c" offset="0"/>
   <stop stop-color="#3f5786" offset="1"/>
  </linearGradient>
  <linearGradient id="linearGradient5165" x1="75.121" x2="115.79" y1="-212.41" y2="-196.02" gradientUnits="userSpaceOnUse">
   <stop stop-color="#156c30" offset="0"/>
   <stop stop-color="#467a43" offset="1"/>
  </linearGradient>
 </defs>
 <g transform="matrix(2.1518 0 0 2.1518 -1.7964 575.83)" fill-rule="evenodd">
  <path d="m261-215.46 69.065 108.9s5.7806 7.1969-8.8805 13.861c0 0-67.334 34.417-91.065-40.416 0 0-17.326-57.414 4.4945-81.614 0 0 14.425-17.414 26.386-0.72813" fill="#fbbf18" stroke="#d56e1b"/>
  <path d="m230.83-267.1c-0.51935 0.0958-1.0939 0.23568-1.6182 0.34598-37.874 7.9944-112.69 36.099-131 134.44 0 0-6.483 33.504 14.107 39.262 24.409 6.8106 25.803-24.926 25.803-24.926s-2.9545-108.29 92.466-145.2c0.32908-0.129 0.68061-0.24231 1.0224-0.38154 0.51518-0.35804 0.87207-0.93187 0.87207-1.6052 0-0.96743-0.71695-1.7438-1.6539-1.9312" fill="#1b65b6" stroke="#3f5786"/>
  <path d="m251.88-265.47c-0.61338 0.14647-1.2436 0.29054-1.88 0.44906-32.025 7.9082-104.84 38.652-104.24 154.6 0 0-2.7248 32.545 20.217 33.379 25.825 0.96557 18.384-32.742 18.384-32.742s-24.22-110.22 67.23-152.47c0.27511-0.12537 0.53577-0.25255 0.81329-0.37973 0.37276-0.30801 0.64305-0.74742 0.64305-1.2616 0-0.73958-0.49515-1.3261-1.1642-1.5732" fill="#442e92" stroke="#342c5e"/>
  <path d="m258.47-257.23c-0.34058 0.0789-0.69451 0.16756-1.0522 0.23809-0.3097 0.12176-0.60364 0.23507-0.93995 0.35984-24.934 9.6116-87.988 45.835-61.215 160.91 0 0 6.0987 26.007 30.074 18.449 19.205-6.0565 6.2272-33.433 6.2272-33.433s-46.289-87.472 26.536-143.29c0.45389-0.34839 0.91456-0.67508 1.3782-1.0229 0.0898-0.20253 0.15994-0.41892 0.15994-0.65159 0-0.74019-0.48541-1.3255-1.1672-1.5636" fill="#ef2e32" stroke="#a42f25"/>
  <path d="m139.62-245.89s-17.13-8.6478-104.53-5.907l0.07028 0.0121c-0.38182 0.01-0.75938 0.0361-1.1454 0.0507-0.38666 0.19892-0.65212 0.58106-0.65212 1.0422 0 0.28872 0.12061 0.55996 0.30181 0.76189 0.1594 0.12959 0.34545 0.24713 0.51454 0.37251l-0.06547-0.0145c11.476 8.1987 53.064 40.019 68.702 81.357 0 0 7.9824-31.782 43.015-63.477 0 0 6.4799-9.0233-6.2084-14.197" fill="#40a74c" stroke="#467a43"/>
  <path d="m234.61-214.74c-10.397 11.53-11.9 30.594-10.631 47.402 23.559 3.69 47.586 6.0307 71.975 6.9863l-34.957-55.117c-7.1703-10.362-17.54-9.0718-26.387 0.72851z" fill="#ffd119"/>
  <path d="m230.83-267.1c-0.51935 0.0958-1.0948 0.2354-1.6191 0.3457-28.343 5.9826-77.371 23.231-107.93 72.746 9.9418 3.4612 20.014 6.6903 30.195 9.6504 12.117-29.717 35.186-61.833 79.111-78.824 0.32908-0.129 0.6797-0.24163 1.0215-0.38086 0.51518-0.35804 0.87305-0.93219 0.87305-1.6055 0-0.96743-0.71733-1.7442-1.6543-1.9316z" fill="#3d7bc7"/>
  <path d="m251.88-265.47c-0.61338 0.14647-1.2445 0.2907-1.8809 0.44922-24.027 5.9331-71.011 24.72-92.73 82.699 9.0504 2.4726 18.176 4.7468 27.385 6.8203 6.296-31.551 23.661-66.761 66.934-86.754 0.27511-0.12537 0.53694-0.25173 0.81446-0.37891 0.37276-0.30801 0.64258-0.74756 0.64258-1.2617 0-0.73958-0.49499-1.3271-1.1641-1.5742z" fill="#6947a7"/>
  <path d="m258.47-257.23c-0.34058 0.0789-0.69507 0.16775-1.0527 0.23828-0.30971 0.12176-0.60315 0.2346-0.93946 0.35937-18.073 6.9666-56.161 27.925-65.566 82.746 8.6732 1.8556 17.389 3.5429 26.201 5.0566-0.72632-27.399 7.6345-59.598 40.986-85.162 0.45389-0.34839 0.91529-0.67565 1.3789-1.0234 0.0898-0.20253 0.16016-0.41772 0.16016-0.65039 0-0.74019-0.48613-1.3264-1.168-1.5644z" fill="#f2505b"/>
  <path d="m64.674-252.33c-8.8331 0.0258-18.661 0.19061-29.586 0.5332l0.07031 0.0117c-0.38182 0.01-0.75847 0.0362-1.1445 0.0508-0.38666 0.19892-0.65234 0.57991-0.65234 1.041 0 0.28872 0.11958 0.55979 0.30078 0.76172 0.1594 0.12959 0.34653 0.24766 0.51562 0.37304l-0.06641-0.0137c6.8772 4.9134 24.569 18.315 41.01 37.16 13.301 5.9268 26.857 11.389 40.664 16.393 6.5728-10.592 16.186-23.136 30.045-35.674 0 0 6.4794-9.0232-6.209-14.197 0 0-13.116-6.6203-74.947-6.4394z" fill="#42bb5a"/>
  <path d="m64.672-252.83c-8.8382 0.0259-18.67 0.19047-29.6 0.5332l-2e-3 0.0156c-0.36778 0.0115-0.72515 0.0336-1.0762 0.0469l-0.11133 4e-3 -0.09766 0.0508c-0.53552 0.2755-0.92383 0.83332-0.92383 1.4863 0 0.42796 0.1735 0.8102 0.42969 1.0957l0.02539 0.0293 0.03125 0.0254c0.17553 0.1427 0.34248 0.25143 0.48438 0.35351l-0.0098 0.0234c11.443 8.1752 52.959 39.984 68.523 81.127l0.56446 1.4902 0.38867-1.5449s7.9275-31.619 42.865-63.229l0.041-0.0352 0.0293-0.0449s1.712-2.3578 1.748-5.4434c0.036-3.0788-1.7079-6.8524-8.1387-9.4883l2e-3 -4e-3 -0.0195-6e-3c-7e-3 -3e-3 -0.0104-7e-3 -0.0176-0.01l-2e-3 4e-3c-0.0213-0.0106-1.1331-0.56639-4.1035-1.334-2.9985-0.77484-7.8921-1.7738-15.514-2.6855-11.432-1.3677-29.003-2.5386-55.518-2.4609zm0.0039 1c26.484-0.0774 44.015 1.0937 55.395 2.4551 7.5862 0.90756 12.438 1.8992 15.383 2.6602 2.9448 0.76097 3.9414 1.2695 3.9414 1.2695l0.22852-0.45117-0.19141 0.46875c6.2225 2.5374 7.5826 5.8507 7.5508 8.5703-0.0315 2.699-1.524 4.8192-1.5469 4.8516-32.994 29.879-41.721 58.914-42.68 62.367-16.05-40.868-56.847-72.113-68.293-80.295l0.01172-0.0273c-0.17126-0.12699-0.32405-0.22727-0.44726-0.32227-0.09867-0.11668-0.16602-0.2669-0.16602-0.41015 0-0.2472 0.14579-0.42406 0.34961-0.54883 0.32864-0.0149 0.65118-0.0349 0.96094-0.043l2e-3 -0.0156c10.89-0.34079 20.695-0.50357 29.502-0.52929z" color="#000000" color-rendering="auto" dominant-baseline="auto" fill="url(#linearGradient5165)" image-rendering="auto" shape-rendering="auto" solid-color="#000000" style="font-feature-settings:normal;font-variant-alternates:normal;font-variant-caps:normal;font-variant-ligatures:normal;font-variant-numeric:normal;font-variant-position:normal;isolation:auto;mix-blend-mode:normal;shape-padding:0;text-decoration-color:#000000;text-decoration-line:none;text-decoration-style:solid;text-indent:0;text-orientation:mixed;text-transform:none;white-space:normal"/>
  <path d="m247.33-223.06c-1.4836 0.21314-2.8994 0.66586-4.209 1.248-5.2231 2.3219-8.8536 6.7182-8.875 6.7441-2e-3 2e-3 -4e-3 5e-3 -6e-3 8e-3 -11.08 12.296-12.16 32.822-10.551 50.254 1.6092 17.435 5.9551 31.83 5.9551 31.83v4e-3l2e-3 2e-3c11.913 37.567 34.934 47.863 54.889 48.619 19.919 0.75434 36.798-7.8671 36.859-7.8984 7.4148-3.3704 9.8082-6.9706 10.227-9.8125 0.41836-2.8419-1.1641-4.8164-1.1641-4.8164l0.0332 0.0449-69.064-108.9-0.41407 0.26172 0.39844-0.28516c-3.0418-4.2437-6.2948-6.3762-9.4609-7.1211-1.583-0.37246-3.1355-0.39869-4.6191-0.18555zm0.13672 0.99023c1.3749-0.19809 2.8026-0.17348 4.2539 0.16797 2.8988 0.68202 5.9304 2.6283 8.8652 6.7168l69.074 108.91 0.0176 0.0215s1.3098 1.6243 0.95312 4.0469c-0.35662 2.4226-2.4041 5.7531-9.6504 9.0469l-0.01 0.0039-0.0117 0.0059s-16.742 8.5428-36.387 7.7988c-19.643-0.74391-42.153-10.654-53.971-47.914v-2e-3c-4.7e-4 -1e-3 -1e-3 -2e-3 -2e-3 -4e-3 -3e-3 -9e-3 -4.3159-14.311-5.9141-31.627-1.5987-17.321-0.4317-37.597 10.303-49.502l8e-3 -8e-3 6e-3 -8e-3s3.5611-4.2756 8.5254-6.4824c1.2411-0.55172 2.5646-0.97378 3.9394-1.1719z" color="#000000" color-rendering="auto" dominant-baseline="auto" fill="url(#linearGradient5119)" image-rendering="auto" shape-rendering="auto" solid-color="#000000" style="font-feature-settings:normal;font-variant-alternates:normal;font-variant-caps:normal;font-variant-ligatures:normal;font-variant-numeric:normal;font-variant-position:normal;isolation:auto;mix-blend-mode:normal;shape-padding:0;text-decoration-color:#000000;text-decoration-line:none;text-decoration-style:solid;text-indent:0;text-orientation:mixed;text-transform:none;white-space:normal"/>
  <path d="m230.74-267.59c-0.54005 0.0996-1.1179 0.23974-1.6309 0.34766-18.988 4.0079-47.234 13.054-73.043 33.438-25.809 20.383-49.167 52.116-58.344 101.4 0 0-1.6362 8.4334-0.67383 17.619 0.48119 4.5929 1.6084 9.3847 3.9473 13.424 2.3388 4.0392 5.9144 7.3197 11.189 8.7949 6.2004 1.73 11.028 1.0167 14.711-1.0684s6.2012-5.5044 7.9297-9.1055c3.4569-7.2021 3.7969-15.211 3.7969-15.211v-0.0352s-2.9643-107.93 92.146-144.72h2e-3c0.30906-0.12115 0.66436-0.2361 1.0293-0.38476l0.0508-0.0215 0.0449-0.0312c0.6319-0.43916 1.0879-1.1656 1.0879-2.0156 0-1.2145-0.90738-2.1919-2.0566-2.4219-0.0784-2e-3 -0.11752-0.0156-0.18754 0zm0.0469 1.0117c0.69051 0.16583 1.1973 0.7118 1.1973 1.4102 0 0.48768-0.26013 0.89682-0.64649 1.1738-0.29621 0.11646-0.61194 0.22233-0.93164 0.34765-95.635 36.995-92.789 145.43-92.783 145.65 0 0-0.35682 7.8607-3.6992 14.824-1.6712 3.4817-4.0774 6.7179-7.5215 8.668-3.4436 1.9498-7.9439 2.6492-13.947 0.97461h-2e-3c-5.0187-1.4041-8.3557-4.4702-10.592-8.332-2.2364-3.8623-3.3466-8.5265-3.8184-13.029-0.94351-9.0056 0.66016-17.324 0.66016-17.324l2e-3 -2e-3v-2e-3c9.1348-49.059 32.339-80.546 57.982-100.8 25.644-20.253 53.741-29.256 72.627-33.242 0.49125-0.10335 1.0049-0.22343 1.4726-0.31446z" color="#000000" color-rendering="auto" dominant-baseline="auto" fill="url(#linearGradient5157)" image-rendering="auto" shape-rendering="auto" solid-color="#000000" style="font-feature-settings:normal;font-variant-alternates:normal;font-variant-caps:normal;font-variant-ligatures:normal;font-variant-numeric:normal;font-variant-position:normal;isolation:auto;mix-blend-mode:normal;shape-padding:0;text-decoration-color:#000000;text-decoration-line:none;text-decoration-style:solid;text-indent:0;text-orientation:mixed;text-transform:none;white-space:normal"/>
  <path d="m251.76-265.96c-0.61017 0.1457-1.2422 0.29111-1.8848 0.45117-16.074 3.9694-42.374 13.664-64.594 36.924-22.214 23.254-40.313 60.069-40.025 118.12 0 0-0.69449 8.2026 1.5195 16.547 1.107 4.1721 2.9419 8.3952 5.9922 11.648 3.0503 3.2532 7.3318 5.5119 13.186 5.7246 6.5628 0.24492 11.112-1.7332 14.145-4.8594 3.0332-3.1265 4.5479-7.3527 5.2422-11.568 1.3885-8.4314-0.49609-16.922-0.49609-16.922s-6.0332-27.47-0.67383-60.203c5.3594-32.734 22.066-70.657 67.625-91.707h-4e-3c0.28277-0.12887 0.5439-0.25688 0.81445-0.38086l0.0606-0.0274 0.0508-0.041c0.46127-0.38115 0.82422-0.9571 0.82422-1.6465 0-0.96274-0.65714-1.7345-1.4922-2.043-0.11567-0.0373-0.19304-0.039-0.28903-0.0175zm0 1.0293c0.44736 0.20002 0.78125 0.5496 0.78125 1.0312 0 0.32995-0.17807 0.61946-0.44922 0.85156-0.24569 0.11402-0.47947 0.22673-0.71485 0.33399h-2e-3v2e-3c-45.89 21.203-62.8 59.513-68.193 92.453-5.3931 32.94 0.68555 60.58 0.68555 60.58v2e-3s1.8336 8.362 0.48633 16.543c-0.67363 4.0905-2.1397 8.1112-4.9746 11.033-2.8349 2.922-7.04 4.794-13.389 4.5566h-2e-3c-5.6171-0.2041-9.5991-2.3247-12.49-5.4082-2.8912-3.0835-4.6764-7.1523-5.7559-11.221-2.159-8.1368-1.4902-16.207-1.4902-16.207l2e-3 -0.0234v-0.0215c-0.29673-57.87 17.706-94.393 39.75-117.47s48.161-32.705 64.113-36.645c0.55197-0.1375 1.1-0.26415 1.6426-0.39258z" color="#000000" color-rendering="auto" dominant-baseline="auto" fill="url(#linearGradient5149)" image-rendering="auto" shape-rendering="auto" solid-color="#000000" style="font-feature-settings:normal;font-variant-alternates:normal;font-variant-caps:normal;font-variant-ligatures:normal;font-variant-numeric:normal;font-variant-position:normal;isolation:auto;mix-blend-mode:normal;shape-padding:0;text-decoration-color:#000000;text-decoration-line:none;text-decoration-style:solid;text-indent:0;text-orientation:mixed;text-transform:none;white-space:normal"/>
  <path d="m258.36-257.72c-0.34662 0.0803-0.6941 0.16712-1.0352 0.23437l-0.0449 8e-3 -0.041 0.0176c-0.30774 0.12099-0.59881 0.23199-0.93164 0.35546l-4e-3 2e-3h-2e-3c-12.532 4.8307-34.63 16.344-50.24 41.107s-24.692 62.753-11.283 120.39h2e-3s1.5372 6.5974 6.1445 12.26 12.409 10.385 24.564 6.5527c4.9198-1.5515 7.8499-4.5215 9.3848-8.0566 1.5348-3.5352 1.7072-7.6089 1.2793-11.463-0.85574-7.7081-4.1348-14.605-4.1348-14.605l-4e-3 -0.01-6e-3 -0.01s-11.525-21.787-13.984-50.521c-2.4596-28.735 4.1114-64.337 40.383-92.139 0.44403-0.34082 0.90249-0.66652 1.373-1.0195l0.10547-0.0781 0.0527-0.11914c0.10419-0.23498 0.20313-0.52036 0.20313-0.85352 0-0.95879-0.65103-1.7393-1.5039-2.0371-0.0591-4e-3 -0.14516-9e-3 -0.27702-0.0135zm-2e-3 1.0254c0.4576 0.19159 0.7832 0.53554 0.7832 1.0254 0 0.10212-0.0438 0.22219-0.0899 0.3457-0.41499 0.30847-0.83337 0.60886-1.2539 0.93165-36.553 28.017-43.248 64.061-40.77 93.018 2.4786 28.956 14.098 50.904 14.098 50.904l-0.0117-0.0195s3.213 6.791 4.0449 14.285c0.41599 3.7471 0.23014 7.6538-1.2031 10.955s-4.0847 6.0232-8.7676 7.5c-11.818 3.7245-19.053-0.77725-23.488-6.2285-4.4348-5.4503-5.9466-11.853-5.9473-11.855v-2e-3c-13.363-57.443-4.3028-95.106 11.154-119.63 15.455-24.518 37.345-35.923 49.748-40.705l6e-3 -2e-3c0.32402-0.12026 0.60958-0.23119 0.90625-0.34765 0.27597-0.0557 0.53587-0.11734 0.79102-0.17774z" color="#000000" color-rendering="auto" dominant-baseline="auto" fill="url(#linearGradient5141)" image-rendering="auto" shape-rendering="auto" solid-color="#000000" style="font-feature-settings:normal;font-variant-alternates:normal;font-variant-caps:normal;font-variant-ligatures:normal;font-variant-numeric:normal;font-variant-position:normal;isolation:auto;mix-blend-mode:normal;shape-padding:0;text-decoration-color:#000000;text-decoration-line:none;text-decoration-style:solid;text-indent:0;text-orientation:mixed;text-transform:none;white-space:normal"/>
 </g>
 <g transform="translate(.015206 283.71)">
  <g fill="#8c8d91" stroke-width="11.532">
   <path d="m57.869 227.21c0 6.1799 0.25786 12.103 0.92994 15.655h-18.03l-1.1879-6.4481h-0.39416c-4.2148 5.1344-10.778 7.8986-18.413 7.8986-13.028 0-20.789-9.4751-20.789-19.744 0-16.701 14.999-24.725 37.758-24.599v-0.91955c0-3.4157-1.8392-8.2928-11.714-8.2928-6.5795 0-13.542 2.2388-17.751 4.8771l-3.6947-12.902c4.4775-2.4906 13.295-5.6544 24.999-5.6544 21.435 0 28.288 12.633 28.288 27.768v22.361zm-19.465-14.73c-10.537-0.13129-18.693 2.3537-18.693 10.121 0 5.1344 3.421 7.6304 7.8877 7.6304 5.0085 0 9.092-3.2842 10.406-7.3731 0.25808-1.04 0.40028-2.2223 0.40028-3.4157v-6.9626z"/>
   <path d="m64.627 231.44 20.258-25.388c3.6839-4.3352 6.5849-7.499 10.263-11.446v-0.25176h-28.283v-15.802h52.619v11.976l-19.328 24.33c-3.5689 4.2257-6.8477 8.2927-10.526 11.85v0.26828h30.916v15.912h-55.92v-11.451z"/>
   <path d="m152.24 161.04v17.5h14.347v14.736h-14.347v23.291c0 7.7672 1.8447 11.325 7.9042 11.325 2.7533 0 3.9466-0.1367 5.9115-0.53628l0.13123 15.13c-2.6219 1.0563-7.3623 1.8448-13.016 1.8448-6.4536 0-11.84-2.3646-15.003-5.6545-3.6784-3.8207-5.523-10.001-5.523-19.071v-26.329h-8.5609v-14.736h8.5609v-12.097l19.596-5.4026z"/>
   <path d="m189.2 217.08c0.65686 8.2872 8.8182 12.229 18.156 12.229 6.8423 0 12.36-0.9196 17.763-2.6273l2.6219 13.548c-6.574 2.6329-14.598 4.0834-23.274 4.0834-21.841 0-34.337-12.771-34.337-32.897 0-16.306 10.116-34.337 32.487-34.337 20.789 0 28.677 16.181 28.677 32.104 0 3.4211-0.38874 6.4426-0.65697 7.8986h-41.437zm23.543-13.69c0-4.8662-2.1019-13.022-11.303-13.022-8.4242 0-11.846 7.6304-12.366 13.022h23.668z"/>
   <path d="m287.62 241.27c-3.547 1.5764-10.258 3.0269-17.888 3.0269-20.789 0-34.069-12.765-34.069-33.023 0-18.813 12.885-34.211 36.828-34.211 5.2655 0 11.052 0.91898 15.26 2.5071l-3.1584 14.861c-2.3646-1.0512-5.9116-1.9705-11.188-1.9705-10.515 0-17.358 7.4989-17.231 18.02 0 11.846 7.8984 18.036 17.647 18.036 4.7294 0 8.4078-0.79363 11.446-2.1074l2.3537 14.861z"/>
   <path d="m348.93 227.21c0 6.1799 0.25717 12.103 0.91923 15.655h-18.026l-1.1823-6.4481h-0.39937c-4.204 5.1344-10.772 7.8986-18.425 7.8986-13.016 0-20.778-9.4751-20.778-19.744 0-16.701 15.003-24.725 37.764-24.599v-0.91955c0-3.4157-1.8448-8.2928-11.708-8.2928-6.5849 0-13.558 2.2388-17.767 4.8771l-3.6838-12.902c4.4773-2.4906 13.295-5.6544 24.998-5.6544 21.44 0 28.288 12.633 28.288 27.768v22.361zm-19.465-14.73c-10.537-0.13129-18.692 2.3537-18.692 10.121 0 5.1344 3.4209 7.6304 7.8986 7.6304 4.9975 0 9.081-3.2842 10.395-7.3731 0.25774-1.04 0.39958-2.2223 0.39958-3.4157v-6.9626z"/>
  </g>
  <g stroke-width="2.1629">
   <path d="m406.3 176.93c-8.5328 1.5e-4 -15.864 1.9015-22.019 5.772l2.7078 8.052c5.1-3.2531 10.949-4.8454 17.458-4.8454 4.8824 7e-5 8.5605 1.2481 11.045 3.7767 2.4841 2.5283 3.7053 6.0152 3.7053 10.546v1.2113c-12.929 5e-5 -22.774 2.039-29.5 6.1281-6.7278 4.0893-10.047 10.002-10.047 17.743 0 5.057 1.8376 9.3857 5.4868 12.969 3.6491 3.5834 8.4679 5.4156 14.537 5.4156 8.6643 0 15.372-3.2706 20.166-9.6911l1.4964 8.1948h11.187c-0.70586-3.8706-1.0689-8.9884-1.0687-15.32v-23.301c-1.9e-4 -8.6189-2.0983-15.236-6.3422-19.81-4.2437-4.574-10.502-6.8408-18.812-6.841zm9.4772 32.991c1.1882-0.0383 2.4193 0 3.7056 0v10.546c-5e-5 3.6504-1.607 6.8821-4.7743 9.762-3.1674 2.88-7.0979 4.3467-11.758 4.3467-3.2987 3e-5 -5.9085-0.93774-7.9095-2.8501-2.001-1.9127-2.9927-4.5937-2.9927-7.9808-2e-5 -4.3079 1.9835-7.7271 5.9857-10.19 3.5016-2.1548 9.4261-3.3647 17.743-3.6342z" fill="#8c8d91"/>
   <path d="m479.34 176.93c-9.1447 1.5e-4 -16.127 3.9132-20.878 11.829l-0.92621-10.404h-10.689c0.35165 4.6196 0.57015 10.452 0.57015 17.53v46.317h11.971v-38.122c-2e-5 -4.5738 1.5583-8.5408 4.7031-11.971 3.1443-3.4302 6.8116-5.2019 10.902-5.2019 4.2221 4e-5 7.4864 1.63 9.9048 4.7743 2.4184 3.1445 3.6342 7.4178 3.6342 12.826v37.696h12.042v-39.193c-6e-5 -4.7053 1.5047-8.5307 4.5604-11.544 3.056-3.013 6.5587-4.5604 10.475-4.5606 4.5281 4e-5 8.0336 1.7445 10.475 5.1305 2.4411 3.3861 3.634 8.2019 3.634 14.537v35.628h12.043v-37.053c-8e-5 -9.2334-2.1089-16.227-6.1994-21.021-4.0908-4.7938-9.2736-7.197-15.605-7.197-9.3677 1.5e-4 -16.645 4.279-21.876 12.898-1.7152-4.0449-4.2048-7.1901-7.4818-9.477-3.2775-2.2869-7.0365-3.4205-11.259-3.4205z" fill="#8c8d91"/>
   <path d="m584.29 176.93c-9.5423 1.5e-4 -17.08 3.3089-22.73 9.905-5.6516 6.5964-8.4796 14.75-8.4796 24.513 0 9.7648 2.9429 17.623 8.8359 23.516 5.8932 5.8916 13.789 8.8359 23.73 8.8359 8.5759 0 16.015-1.4624 22.304-4.2753l-2.1377-8.551c-5.32 2.1986-11.517 3.278-18.598 3.278-6.5092 0-11.801-1.8148-15.89-5.4868-4.0893-3.6718-6.236-8.9868-6.4131-15.89h46.317c0.26291-1.2751 0.42738-3.0655 0.42742-5.4868-4e-5 -8.4872-2.3494-15.721-7.0544-21.591-4.7055-5.87-11.513-8.7645-20.308-8.7647zm-0.85503 8.6938c5.2339 7e-5 9.2068 1.696 12.043 5.0594 2.8358 3.3632 4.2753 7.7566 4.2753 13.254h-34.702c0.74875-5.4971 2.7322-9.8905 5.9855-13.254 3.2533-3.3632 7.4276-5.0591 12.399-5.0594z" fill="#8c8d91"/>
   <path d="m652.85 176.93c-3.9134 1.5e-4 -7.5593 1.2698-10.902 3.7767-3.343 2.5071-5.8553 5.9896-7.4821 10.475l-0.78364-12.826h-10.831c0.35163 5.2774 0.57021 12.039 0.57024 20.308v43.538h12.256v-33.777c0-6.4203 1.5856-11.348 4.7743-14.821 3.1888-3.4733 7.0328-5.2019 11.472-5.2019 1.6293 2e-5 3.018 0.0932 4.2041 0.35632v-11.615c-1.3636-0.17412-2.443-0.21413-3.2777-0.21413z" fill="#8c8d91"/>
   <path d="m671.37 151.37c-2.3325 8e-5 -4.2284 0.73557-5.7007 2.209-1.4722 1.4736-2.209 3.263-2.209 5.4156 0 2.2012 0.68704 4.0633 2.1378 5.5579 1.4509 1.4953 3.3426 2.2092 5.6293 2.209 2.3756 9e-5 4.2498-0.71377 5.7007-2.209 1.4506-1.4948 2.209-3.3569 2.209-5.5579-2e-5 -2.1524-0.73547-3.9418-2.209-5.4156-1.4735-1.4734-3.3169-2.2088-5.5579-2.209zm-6.1994 27.007v63.846h12.256v-63.846z" fill="#8c8d91"/>
   <path d="m724.6 176.93c-10.6 1.5e-4 -19.122 3.194-25.653 9.5486-6.5308 6.3547-9.8336 14.513-9.8336 24.584 0 9.6738 3.0517 17.562 9.1209 23.587 6.0688 6.0247 14.02 9.0496 23.87 9.0496 7.3436 0 13.757-1.298 19.168-3.8477l-1.9951-9.2635c-4.8368 2.1125-9.7902 3.2064-14.893 3.2064-6.5948 0-12.051-2.1694-16.318-6.4129-4.2664-4.2439-6.4131-9.9325-6.4131-17.102 0-6.9035 2.1426-12.54 6.342-16.959 4.1996-4.4196 9.7506-6.6271 16.746-6.6271 5.3628 4e-5 10.061 1.0255 14.109 3.1352l2.6366-9.3344c-4.8368-2.3754-10.468-3.5628-16.888-3.563z" fill="#8c8d91"/>
   <path d="m773.76 176.93c-8.533 1.5e-4 -15.864 1.9015-22.019 5.772l2.779 8.052c5.0998-3.2531 10.878-4.8454 17.387-4.8454 4.8826 7e-5 8.5607 1.2481 11.045 3.7767 2.4842 2.5283 3.7054 6.0152 3.7054 10.546v1.2113c-12.93 5e-5 -22.702 2.039-29.429 6.1281-6.7278 4.0893-10.119 10.002-10.119 17.743 0 5.057 1.8377 9.3857 5.487 12.969 3.6491 3.5834 8.4675 5.4156 14.536 5.4156 8.6643 0 15.443-3.2706 20.237-9.6911l1.4251 8.1948h11.187c-0.70605-3.8706-1.069-8.9884-1.0689-15.32v-23.301c-7e-5 -8.6189-2.0983-15.236-6.3418-19.81-4.2439-4.574-10.502-6.8408-18.812-6.841zm9.477 32.991c1.1883-0.0383 2.4193 0 3.7056 0v10.546c-2e-5 3.6504-1.6069 6.8821-4.7743 9.762-3.167 2.88-7.0263 4.3467-11.686 4.3467-3.2989 3e-5 -5.9797-0.93774-7.9808-2.8501-2.0012-1.9127-2.9929-4.5937-2.9929-7.9808 0-4.3079 1.9835-7.7271 5.9855-10.19 3.5018-2.1548 9.4263-3.3647 17.743-3.6342z" fill="#808080"/>
  </g>
 </g>
</svg>
