<svg width="1024" height="365.65" version="1.1" xmlns="http://www.w3.org/2000/svg">
 <g transform="translate(-212.44 -100.12)">
  <g transform="translate(-10 52.857)">
   <path d="m360.49 47.267c-42.32 0-83.639 33.719-92.096 75.237l-44.368 212.5c-4.2283 20.522 0.0866 40.069 12.188 54.905 12.138 14.799 30.398 23.01 51.43 23.01h820.78c42.356 0 83.66-33.777 92.153-75.294l44.311-212.5c4.1919-20.522-0.1438-40.012-12.246-54.848-12.102-14.836-30.341-23.01-51.373-23.01h-820.78z" fill="#007f3d"/>
   <path d="m360.49 60.765h820.78c16.877 0 31.38 6.4425 40.894 17.998 9.4772 11.664 12.844 27.193 9.4546 43.741l-31.838 152.81h-949.5l31.325-150.19c7.2538-35.54 42.65-64.359 78.883-64.359z" fill="#fff"/>
   <path d="m339.53 91.635-36.109 170.07h145.46c26.459 0 44.666-6.3845 57.183-17.2l-10.935 17.2h71.364l11.334-19.592h69.998l3.0184 19.592h126.38l20.276-95.229h0.45549l51.203 95.229h73.586l36.109-170.07h-64.245l-20.105 94.318h-0.68324l-48.07-94.318h-76.662l-31.496 148.25-31.61-148.25h-82.357l-79.167 124.05c0.96347-2.991 1.934-6.015 2.6198-9.2268 2.6974-12.649-0.14114-33.12-20.845-38.843l0.11373-0.45579c13.924-5.0303 24.074-18.166 27.282-33.148 5.7958-27.12-6.4609-42.375-41.235-42.375h-152.87zm634.37 0-36.109 170.07h132.14c56.463 0 92.019-25.254 104.74-85.034 13.305-62.66-12.425-85.034-70.055-85.034h-130.71zm-577.47 41.463h50.747c13.561 0 15.722 4.4742 14.41 10.707-1.4216 6.6706-5.4837 11.163-19.08 11.163h-50.69l4.6133-21.871zm635.5 1.3668h38.559c30.728 0 39.896 15.23 34.173 42.204-5.7228 26.937-21.328 42.147-52.057 42.147h-38.559l17.884-84.35zm-398.29 8.6002h0.51265l7.6889 57.638h-40.438l32.237-57.638zm-250.03 50.462h57.354c13.343 0 16.149 5.9278 14.58 13.327-1.6039 7.6548-6.8779 13.385-20.219 13.385h-57.411l5.6954-26.712z" fill="#007f3d"/>
   <path d="m792.09 313.99c-12.466 0-35.797 0.87717-41.52 27.851-5.7593 27.009 17.207 27.851 29.674 27.851 12.539 0 20.88-2.1118 26.712-5.8663 5.9051-3.7909 9.4181-9.3796 12.188-16.232h-23.181c-3.0254 6.2711-7.5022 8.9991-13.954 8.9991-7.5104 0-11.794-4.217-9.5686-14.751 2.26-10.607 8.4182-14.751 16.802-14.751 7.9464 0 9.2878 5.3948 9.1128 9.1128h23.181c1.6768-20.668-17.052-22.212-29.446-22.212zm112.6 0c-12.466 0-35.797 0.87717-41.52 27.851-5.7593 27.009 17.207 27.851 29.674 27.851 12.43 0 35.797-0.84072 41.52-27.851 5.6864-26.972-17.207-27.851-29.674-27.851zm-605.72 1.8226-10.993 52.057h20.504l11.106-52.057h-20.618zm34.515 0-11.049 52.057h19.707l6.2081-29.104h0.11371l15.663 29.104h22.554l11.049-52.057h-19.706l-6.0941 28.876h-0.22775l-14.694-28.876h-23.523zm72.618 0-2.7907 13.157h19.023l-8.2587 38.9h20.618l8.2015-38.9h19.023l2.7907-13.157h-58.607zm66.979 0-11.049 52.057h55.36l2.677-12.644h-34.8l1.5377-7.0053h32.293l2.6201-12.701h-32.293l1.5377-6.9485h34.743l2.7338-12.758h-55.36zm65.783 0-11.106 52.057h20.561l3.4174-16.004h14.58c3.8344 0 4.6048 2.2509 3.9866 6.1512-0.92441 6.0144-1.3706 8.3572-0.96814 9.8532h22.44c-0.94773-1.6403-1.5446-3.7965-1.253-6.0944l1.5379-11.448c0.61968-4.447-1.3364-7.1336-4.2146-7.9735v-0.17088c6.379-1.7132 9.5158-6.9829 10.536-11.904 1.2393-5.6499-0.8655-10.634-4.3284-12.53-2.5516-1.423-6.0556-1.9366-11.961-1.9366h-43.229zm73.7 0-11.049 52.057h19.706l6.2081-29.104h0.11372l15.663 29.104h22.554l11.049-52.057h-19.706l-6.0943 28.876h-0.22775l-14.694-28.876h-23.522zm92.666 0-33.205 52.057h21.871l3.4171-5.9803h21.472l0.91128 5.9803h21.871l-11.106-52.057h-25.231zm131.74 0-11.049 52.057h20.618l11.049-52.057h-20.618zm113.8 0-11.049 52.057h19.706l6.1512-29.104h0.17088l15.663 29.104h22.497l11.106-52.057h-19.706l-6.094 28.876h-0.22775l-14.751-28.876h-23.466zm92.609 0-33.205 52.057h21.928l3.4174-5.9803h21.472l0.9113 5.9803h21.871l-11.106-52.057h-25.288zm53.709 0-11.049 52.057h52.399l2.9616-14.011h-31.895l8.1444-38.046h-20.561zm-195.18 11.277c8.3838 0 12.819 4.1805 10.594 14.751-2.26 10.534-8.5115 14.751-16.859 14.751-8.3838 0-12.854-4.217-10.594-14.751 2.2235-10.571 8.4386-14.751 16.859-14.751zm-345.32 1.8794h14.296c3.4629 0 5.7572 0.88853 4.9553 4.8982-0.72903 3.2077-2.7111 4.8982-6.7207 4.8982h-14.58l2.0503-9.7963zm157.88 2.563h0.11402l2.3921 17.656h-12.416l9.9101-17.656zm338.14 0h0.1709l2.3921 17.656h-12.416l9.8532-17.656z" fill="#fff"/>
  </g>
 </g>
</svg>
