<svg width="800" height="129.03" version="1.1" viewBox="0 0 211.67 34.139" xmlns="http://www.w3.org/2000/svg">
 <g transform="translate(195.67 -223.04)">
  <path d="m-117.29 257.12 3.4527-8.6572h28.136c0.68765 0 1.1437-0.16649 1.3681-0.51393 0.22439-0.34021 0.33297-0.90481 0.33297-1.701 0-0.68041-0.13029-1.1726-0.38364-1.4622-0.26058-0.29678-0.69489-0.44155-1.3174-0.44155h-16.996c-3.2645 0-5.7184-0.62251-7.3687-1.882-1.6504-1.2523-2.4683-2.9895-2.4683-5.2262v-6.131c0-1.4404 0.15925-2.6782 0.48498-3.7061 0.32573-1.0351 0.9048-1.8603 1.73-2.4973 0.82519-0.63698 1.9616-1.1002 3.4238-1.3898 1.4549-0.29678 3.3224-0.44154 5.5881-0.44154h34.527l-3.5686 8.5486h-28.382c-0.68765 0-1.1364 0.17372-1.3391 0.52117-0.20992 0.34021-0.31126 0.85414-0.31126 1.5418s0.13753 1.2016 0.41259 1.549c0.27506 0.3402 0.7528 0.51393 1.4405 0.51393h16.743c3.5034 0 6.0296 0.70213 7.5714 2.1064 1.549 1.4115 2.3163 3.4021 2.3163 5.979v5.1538c0 1.4042-0.17372 2.6131-0.53565 3.6265-0.36192 1.0134-0.96271 1.853-1.8024 2.5262-0.8469 0.67317-1.9399 1.1654-3.3007 1.4911-1.3536 0.33296-3.0329 0.49221-5.0235 0.49221z" fill="#d11c2d"/>
  <g fill="#fff">
   <path d="m-21.552 257.15v-13.297c0-2.5769 0.79623-4.5385 2.3814-5.8993 1.5852-1.3536 4.1332-2.034 7.651-2.034h13.521c0.81071 0 1.3825-0.16649 1.7083-0.49222s0.48498-0.88309 0.48498-1.6721-0.15925-1.3391-0.48498-1.6504c-0.32573-0.31125-0.89757-0.46326-1.7083-0.46326h-8.3966c-1.426 0-2.3597 0.14477-2.794 0.43431-0.43431 0.29678-0.65146 0.83966-0.65146 1.6286h-11.712v-2.5769c0-1.6866 0.20992-3.0619 0.62974-4.1259s1.093-1.8892 2.0268-2.4683c0.93376-0.58632 2.1571-0.98443 3.6627-1.1871 1.5128-0.20991 3.3659-0.31125 5.5736-0.31125h13.854c2.1498 0 3.9739 0.10134 5.4867 0.31125 1.5056 0.20268 2.7289 0.60079 3.6554 1.1871 0.93376 0.57907 1.6142 1.4043 2.034 2.4683s0.62974 2.4394 0.62974 4.1259v6.131c0 1.1364-0.19544 2.1353-0.58632 3.0112s-1.0351 1.6214-1.9327 2.2222c-0.90481 0.60079-2.0774 1.064-3.5251 1.3898-1.4477 0.32573-3.2066 0.48497-5.2913 0.48497h-12.783c-1.1509 0-1.7228 0.57184-1.7228 1.701v2.4249h25.841v8.6572z"/>
   <path d="m-42.907 257.12-15.092-16.33v16.33h-12.363v-21.94l5.0524-12.11h8.3387l14.426 17.256v-17.256h12.414v34.05z"/>
   <path d="m-140.2 257.12c-2.4394 0-4.4878-0.10858-6.1527-0.33297-1.6721-0.22439-3.0184-0.63698-4.0463-1.2378s-1.7662-1.426-2.215-2.4756c-0.44878-1.0423-0.67317-2.4104-0.67317-4.0897v-17.778c0-1.6431 0.22439-3.004 0.67317-4.068 0.44879-1.064 1.1871-1.8965 2.215-2.4973s2.3742-1.0134 4.0463-1.2378c1.6648-0.22439 3.7133-0.33296 6.1527-0.33296h21.571l-3.5324 8.6572h-14.332c-1.3681 0-2.3308 0.1882-2.8809 0.5646s-0.82518 0.96271-0.82518 1.7517v12.103c0 1.549 1.2378 2.3163 3.7061 2.3163l21.209 0.0579-3.3297 8.6572z"/>
   <path d="m-154.77 248.98c0 1.6793-0.23163 3.0546-0.69489 4.1187-0.46326 1.064-1.2088 1.8892-2.2439 2.4756-1.0279 0.58631-2.3742 0.98442-4.039 1.2088-1.6648 0.22439-3.7061 0.33296-6.1092 0.33296h-27.81v-34.05h27.81c2.4032 0 4.4299 0.11582 6.0803 0.34021s2.9678 0.63698 3.9667 1.2305c0.99891 0.60803 1.7083 1.4404 2.1353 2.5045 0.43431 1.064 0.64423 2.4176 0.64423 4.068v4.22c0 1.3753-0.36916 2.4321-1.1075 3.1704-0.73832 0.73832-1.5852 1.245-2.5479 1.5201 0.99891 0.23887 1.8965 0.74556 2.7072 1.5201 0.80347 0.77452 1.2088 1.9327 1.2088 3.4745zm-27.817-17.256v4.4299h12.776c0.92652 0 1.5346-0.1882 1.8313-0.5646 0.28954-0.3764 0.43431-0.96271 0.43431-1.7517s-0.15924-1.3391-0.48497-1.6504c-0.33297-0.31125-0.91929-0.46326-1.7807-0.46326zm0 12.313v4.4299h13.036c0.78899 0 1.3174-0.17372 1.5925-0.51393 0.27506-0.34744 0.41259-0.91204 0.41259-1.701 0-0.89033-0.15924-1.4839-0.48497-1.7807-0.33297-0.28954-0.83966-0.43431-1.5201-0.43431z"/>
  </g>
 </g>
</svg>
