<svg width="800" height="164.84" version="1.1" viewBox="0 0 211.67 43.614" xmlns="http://www.w3.org/2000/svg">
 <g transform="translate(122.84 -127.03)">
  <path d="m-22.621 170.57 4.4109-11.069h35.981c0.87848 0 1.4611-0.21269 1.7477-0.65656 0.28666-0.43461 0.42537-1.1651 0.42537-2.1731 0-0.87848-0.1572-1.5073-0.4901-1.8772s-0.88773-0.55483-1.683-0.55483h-21.731c-4.1705 0-7.3145-0.80451-9.4229-2.4043-2.1084-1.609-3.1625-3.8376-3.1625-6.6857v-7.8416c0-1.8494 0.21269-3.4215 0.62881-4.7438 0.41612-1.3131 1.1559-2.3765 2.2101-3.1903 1.0449-0.81375 2.506-1.4056 4.3739-1.7847 1.8679-0.36988 4.2537-0.55483 7.1481-0.55483h44.155l-4.5681 10.93h-36.295c-0.87848 0-1.4518 0.22193-1.7107 0.65655-0.26817 0.44386-0.39763 1.1004-0.39763 1.9789s0.1757 1.535 0.52709 1.9789c0.35139 0.43462 0.97096 0.65655 1.8494 0.65655h21.407c4.4756 0 7.7029 0.89698 9.6818 2.7002 1.9697 1.8032 2.9591 4.3462 2.9591 7.6382v6.5933c0 1.794-0.23118 3.3475-0.69354 4.6421-0.45311 1.2946-1.2299 2.3673-2.3026 3.2273-1.0727 0.85074-2.4783 1.4888-4.2167 1.9049-1.7292 0.42537-3.8746 0.62881-6.4176 0.62881z" fill="#d11c2d"/>
  <g fill="#fff">
   <path d="m72.494 170.57-19.299-20.88v20.88h-15.813v-28.056l6.4638-15.48h10.662l18.448 22.064v-22.064h15.868v43.536z"/>
   <path d="m-51.913 170.57c-3.1163 0-5.7425-0.13871-7.8694-0.42537-2.1361-0.28666-3.8561-0.81376-5.1692-1.5813-1.3224-0.76752-2.2656-1.8217-2.8389-3.1626-0.56408-1.3408-0.85074-3.0886-0.85074-5.2339v-22.73c0-2.1084 0.28666-3.8376 0.85074-5.2062 0.57333-1.3593 1.5165-2.4228 2.8389-3.1903 1.3131-0.76752 3.0331-1.2946 5.1692-1.5813 2.1269-0.28666 4.7531-0.42537 7.8694-0.42537h27.575l-4.5126 11.06h-18.319c-1.757 0-2.9868 0.24967-3.6896 0.73053-0.70279 0.48085-1.0542 1.2299-1.0542 2.2378v15.48c0 1.9789 1.5813 2.9591 4.7438 2.9591l27.113 0.074-4.2537 11.069z"/>
   <path d="m-70.54 160.16c0 2.1546-0.29591 3.9116-0.88773 5.2709s-1.5535 2.4135-2.8666 3.1625-3.0423 1.2576-5.1692 1.5443c-2.1361 0.28667-4.7346 0.42537-7.8046 0.42537h-35.574v-43.536h35.574c3.0701 0 5.6593 0.14795 7.7677 0.42537 2.1084 0.28666 3.8006 0.81375 5.0767 1.5813 1.2669 0.77677 2.1823 1.8402 2.7279 3.1995 0.55483 1.3593 0.823 3.0978 0.823 5.2062v5.4004c0 1.757-0.47161 3.1071-1.4148 4.0503-0.94321 0.94322-2.0251 1.5905-3.255 1.9419 1.2669 0.30516 2.4228 0.95247 3.4585 1.9419 1.0264 0.98945 1.5443 2.469 1.5443 4.4479zm-35.565-22.064v5.6593h16.331c1.1836 0 1.9697-0.24043 2.3395-0.72128 0.36989-0.48086 0.56408-1.2299 0.56408-2.2378s-0.21269-1.7107-0.62881-2.1084-1.1744-0.59182-2.2748-0.59182zm0 15.739v5.6685h16.663c1.0079 0 1.683-0.22193 2.0436-0.65655 0.34215-0.44387 0.52709-1.1652 0.52709-2.1823 0-1.1374-0.21269-1.8957-0.62881-2.2656-0.41612-0.37913-1.0634-0.56408-1.9419-0.56408z"/>
  </g>
 </g>
</svg>
