<svg width="355.28" height="140.49" enable-background="new 0 0 200 70" version="1.0" viewBox="0 0 355.28 140.49" xml:space="preserve" xmlns="http://www.w3.org/2000/svg">
<path d="m195.31 91.748h-24.7l-7.586-23.895-7.585 23.895h-24.7l20.017 14.316-7.688 23.285 19.957-14.446 19.951 14.446-7.688-23.285zm-41.459-23.928h-74.028c-6.742 0-10.811 0.918-14.141 2.95-2.771 1.756-5.354 4.165-7.391 7.115-1.399 1.978-2.523 4.009-3.396 6.165v-0.06c0-8.05-5.173-14.511-12.474-15.619-1.937-0.281-5.173-0.551-7.575-0.551h-34.842v61.637h34.101c8.868 0 12.752-1.026 16.078-4.074 3.047-2.771 4.619-7.12 4.619-12.198 0-0.141-5e-3 -0.271-0.011-0.411 2.545 7.224 7.059 12.453 12.928 14.55 4.155 1.475 9.522 2.134 17.183 2.134h14.174v-15.846h-10.23c-12.301-0.027-16.334 1.091-18.482-7.883h28.712v-13.916l-28.739-0.021s1.432-8.142 9.957-8.142h28.306v45.808h17.866v-45.808h22.458zm-138.72 15.878h19.312c4.781 0 4.543 4.008 4.543 4.008 0 4.192-4.56 4.014-4.56 4.014h-19.295zm23.887 25.943c0 4.192-4.552 4.024-4.552 4.024h-19.297v-8.033h19.314c4.773 0 4.535 4.009 4.535 4.009m6.915-10.962c2.861-1.172 5.294-3.598 6.905-6.597-0.243 1.891-0.365 3.89-0.365 6.04 0 2.398 0.159 4.695 0.464 6.894-1.466-2.744-3.794-4.884-7.004-6.337"/>
<path d="m216.61 0.0037829c-0.72853-0.03208-1.3304 0.13829-1.7031 0.57226-12.736 44.101-52.08 107.09-38.197 132.3 1.4354 3.4704 9.0779 10.271 11.801 6.5215 9.6964-22.478 18.023-46.212 37.268-59.937-3.341 13.791-8.5965 28.127-6.5234 40.371 2.4581 7.5008 12.469 19.834 34.215 13.771 19.031 3.3289 23.66 5.318 51.811-35.199l-4.3477 27.33c-0.48778 6.3392 10.802 11.835 14.596 2.4844 12.725-60.255 26.214-48.763 39.752-32.609-6.388-14.707-6.5946-42.253-33.23-14.906 0.36029-10.084-6.0385-10.875-12.111-12.113-13.458 30.768-26.915 38.09-40.373 54.039 6.9358-12.686 13.873-17.049 20.809-39.131 3.6157-15.137-4.7859-17.603-12.861-18.088-21.067-1.8655-37.541 43.779-33.102 59.393l-12.422 2.7949c14.239-77.282-9.2384-66.946-33.852-39.131l26.707-81.678c0.45472-2.7089-5.0774-6.6442-8.2344-6.7832zm60.963 78.947c-3.7356 11.065-7.4186 22.138-18.008 32.061 2.5932-11.369 9.5955-21.855 18.008-32.061z" fill="#2aff80" fill-rule="evenodd"/></svg>
