<svg width="1e3px" height="751.58px" enable-background="new 4786.399 3439.916 1000 751.581" version="1.1" viewBox="4786.4 3439.9 1e3 751.58" xml:space="preserve" xmlns="http://www.w3.org/2000/svg">
	<rect x="4786.4" y="3791.5" width="940.24" height="400" fill="#fff"/>
	<g fill="#050505">
		<path d="m4956.5 4127.6c-17.666 18.538-41.221 28.57-75.463 28.57-29.662 0-54.744-10.687-72.41-28.135l45.365-44.275c4.581 6.544 15.704 13.305 26.827 13.305 19.847 0 33.806-13.74 33.806-39.258v-233.81h65.867v233.81c0.217 27.699-7.635 52.78-23.992 69.793"/>
		<path d="m5158.7 4152.5-10.687-51.254h-75.9l-10.687 51.254h-68.702l84.842-328.46h64.995l84.842 328.46h-68.703zm-48.637-232.06-25.518 121.7h51.036l-25.518-121.7z"/>
		<path d="m5420.2 4152.5v-171.21l-36.205 112.54h-33.807l-35.114-111.89v170.56h-65.867v-328.46h57.797l60.415 160.96 60.196-160.96h58.452v328.46z"/>
		<path d="m5683 4131.7c-14.83 14.395-39.912 24.427-71.756 24.427-32.496 0-56.488-9.16-71.319-23.99-16.14-16.141-21.81-39.259-21.81-72.847h65.867c0 13.304 0.872 23.118 6.979 29.88 3.708 4.145 10.251 7.852 20.502 7.852s16.794-2.835 20.938-8.287c4.58-5.453 6.543-14.396 6.543-27.699 0-31.407-5.016-36.859-28.789-46.674l-41.658-17.013c-33.369-13.74-47.328-31.407-47.328-82.661 0-30.534 9.814-55.834 29.662-72.846 15.703-13.304 35.77-20.72 60.633-20.72 29.226 0 50.6 7.416 64.994 20.72 18.103 16.576 25.518 42.966 25.518 76.117h-65.866c0-11.559 0-22.246-5.671-29.443-3.707-5.017-9.16-8.288-18.975-8.288-9.379 0-15.268 3.708-18.975 8.725-4.145 5.452-5.672 12.432-5.672 23.555 0 20.72 3.709 26.826 22.684 34.678l41.221 16.576c41.658 17.012 53.872 35.551 53.872 95.093-0.219 33.151-4.364 56.27-21.594 72.845"/>
	</g>
	<g fill="#fff">
		<polygon points="5786.4 3562.5 5659.9 3562.5 5621.1 3440.1 5582.3 3562.5 5455.8 3562.5 5558.3 3635.8 5519 3755.1 5621.1 3681.1 5723.1 3755.1 5683.9 3635.8"/>
		<path d="m5195.1 3440.1c-34.46 0-55.398 4.799-72.41 15.049-14.177 8.942-27.481 21.374-37.732 36.423-7.197 10.032-12.868 20.501-17.448 31.625v-0.436c0-41.222-26.391-74.155-63.904-79.825-10.033-1.309-26.391-2.836-38.822-2.836h-178.41v315.6h174.48c45.365 0 65.212-5.234 82.225-20.72 15.703-14.177 23.555-36.423 23.555-62.377v-2.181c13.086 37.078 36.205 63.904 66.085 74.591 21.374 7.634 48.637 10.906 87.895 10.906h72.628v-81.134h-52.345c-63.032-0.218-83.751 5.453-94.657-40.349h147v-71.32h-147.22s7.416-41.658 51.036-41.658h144.82v234.46h91.385v-234.9h114.94l25.301-81.134h-378.41v0.218zm-331.3 81.135h98.8c24.428 0 23.337 20.501 23.337 20.501 0 21.374-23.337 20.502-23.337 20.502h-98.8v-41.003zm122.36 133.04c0 21.374-23.337 20.502-23.337 20.502h-98.801v-41.222h99.019c24.427 0 23.119 20.72 23.119 20.72zm35.332-56.271c14.613-6.106 27.045-18.32 35.333-33.806-1.309 9.597-1.745 19.848-1.745 30.971 0 12.214 0.873 23.991 2.399 35.333-7.633-14.177-19.411-25.082-35.987-32.498z"/>
	</g>
</svg>
