<svg width="1e3px" height="483.92px" enable-background="new 0 0 1000 483.915" version="1.1" viewBox="0 0 1e3 483.92" xml:space="preserve" xmlns="http://www.w3.org/2000/svg">
<g fill="#fff">
	<path d="m1e3 456.09v24.473h-106.38v-219.66h24.275v195.19c27.629-1e-3 54.864-1e-3 82.1-1e-3z"/>
	<path d="m864.42 260.9v24.275h-82.692v61.378h82.692v24.669h-82.692v84.665h82.692v24.671h-107.36v-219.85c35.721 0.196 71.442 0.196 107.36 0.196z"/>
	<path d="m553.78 229.92c3.75-11.447 7.5-22.695 11.249-34.142 5.328-16.578 10.855-33.354 16.38-49.932 0.593-1.973 0.395-2.96-1.38-4.145-23.288-16.578-46.38-33.353-69.47-50.128-0.593-0.592-1.382-0.987-2.565-1.974h88.613c2.367 0 3.157-0.592 3.946-2.959 8.882-28.419 17.763-56.839 26.842-85.061 0-0.198 0.196-0.592 0.591-1.579 9.474 30.195 18.749 59.798 28.222 89.599h91.771c-1.186 0.987-1.975 1.58-2.765 2.171-23.089 16.578-46.181 33.353-69.271 49.931-1.974 1.382-2.172 2.369-1.382 4.54 9.078 27.433 17.959 54.865 27.038 82.297 0.198 0.395 0.198 0.987 0.593 2.171-1.383-0.987-2.172-1.58-2.961-2.171-22.894-16.775-45.984-33.55-68.878-50.325-1.579-1.185-2.763-1.382-4.342 0-22.893 16.775-45.982 33.55-68.876 50.325-0.789 0.592-1.578 1.184-2.566 1.776-0.592-0.196-0.592-0.196-0.789-0.394z"/>
	<path d="m679.49 285.77c-11.643-0.593-23.288-0.198-34.734-0.396-0.196 0-0.591 0.198-0.789 0.396v64.141c12.828-0.396 25.655 0.395 38.09-1.186 21.116-2.763 32.761-21.313 27.038-40.853-3.554-12.236-15.396-21.511-29.605-22.102zm-60.39 194.99v-220.05h3.157c17.763 0 35.524-0.198 53.089 0 17.564 0.196 33.354 5.525 45.59 18.748 23.879 25.854 18.749 80.521-28.814 92.165-6.314 1.58-12.827 1.975-19.144 2.171-9.67 0.395-19.143 0-29.208 0v106.77c-8.29 0.197-16.38 0.197-24.67 0.197z"/>
	<path d="m496.15 471.28c-13.814-9.275-22.104-22.695-28.616-37.892 7.499-3.552 14.802-6.907 22.301-10.459 1.184 2.564 2.17 4.735 3.157 7.104 10.065 20.525 26.248 28.42 47.167 27.631 8.486-0.395 16.381-2.566 23.092-7.895 14.405-11.249 15.788-31.578 8.485-45.393-3.946-7.302-9.078-13.42-16.182-17.761-14.014-8.883-28.223-17.368-42.039-26.249-6.907-4.341-14.011-8.88-20.128-14.407-12.237-11.052-15.789-25.458-13.815-41.247 3.355-26.644 24.274-43.022 49.536-44.997 10.657-0.789 20.92 0 30.788 4.145 14.209 6.316 23.683 17.368 30.984 31.183-7.302 3.552-14.407 7.302-21.709 10.854-1.579-2.367-2.959-4.735-4.54-6.907-11.841-17.17-31.379-17.564-45.193-12.235-14.998 5.723-22.499 29.209-6.513 42.036 6.711 5.527 14.407 9.868 21.709 14.604 12.038 7.896 24.473 15.001 36.115 23.486 13.224 9.474 23.683 21.709 27.631 37.892 5.92 24.077 1.185 45.787-17.959 62.957-10.461 9.275-23.288 13.618-37.103 14.407-16.972 1.182-32.959-1.384-47.168-10.857z"/>
	<path d="m275.71 321.89c-12.434 19.538-16.184 41.051-12.631 63.746 3.355 22.3 13.42 41.051 31.379 54.865 21.512 16.775 46.181 21.511 72.824 16.775 17.565-3.159 32.761-11.053 44.998-24.077 16.577-17.368 23.88-38.485 24.274-62.366-0.395-4.539-0.395-9.274-1.184-13.814-3.75-26.248-16.38-47.167-39.274-61.378-18.551-11.446-38.682-14.8-59.996-11.841-25.853 3.75-46.18 16.184-60.39 38.09zm73.416 161.83c-62.957 0-111.51-48.748-111.7-112.69-0.197-64.338 49.733-113.68 113.48-112.69 61.575 0.789 111.11 49.93 110.12 114.46-0.79 62.561-49.537 111.51-111.9 110.91z"/>
	<path d="m185.71 115.65c10.657 5.132 19.143 12.236 24.669 21.511v-44.799c-5.921 10.263-13.617 18.354-24.669 23.288zm-114.66-26.249c0.79 0 1.381 0.197 1.776 0.197h69.864c1.776 0 3.552-0.395 5.329-0.789 7.5-1.973 11.446-7.104 11.249-14.604 0-7.104-4.342-12.433-11.249-14.013-2.171-0.395-4.341-0.592-6.513-0.592h-67.692c-0.988 0-1.974 0-3.158 0.197 0.394 9.87 0.394 19.737 0.394 29.604zm0.197 82.298c0.987 0 1.579 0.197 2.368 0.197h68.285c1.776 0 3.553-0.197 5.329-0.592 7.697-1.382 12.236-6.513 12.433-14.407 0.198-7.302-4.539-13.223-11.644-14.605-1.776-0.395-3.75-0.592-5.724-0.592h-67.89c-0.987 0-1.974 0-3.158 0.197 1e-3 10.066 1e-3 19.737 1e-3 29.802zm-56.444-171.7h138.74c1.776 0.197 3.355 0.395 5.131 0.592 5.526 0.592 11.249 0.789 16.775 2.17 22.696 5.329 35.918 20.525 41.642 42.629 1.184 4.342 1.381 9.078 2.171 13.814 0.396-0.789 0.593-1.381 0.987-1.973 4.933-10.854 11.25-20.723 19.143-29.603 11.25-12.434 24.472-21.907 41.445-25.064 6.119-1.184 12.434-1.776 18.552-2.565h287.35c-6.118 19.736-12.236 39.471-18.354 59.404h-41.642s-27.63 0-41.839 0v171.7h-63.351c-2.565 0-3.354-0.592-3.354-3.355v-168.34h-105.38c-20.328 0-31.774 13.026-36.314 28.616-0.197 0.395 0 0.987-0.197 1.579h106.57v52.299h-106.38c1.777 18.157 13.224 28.814 32.169 29.208 21.907 0.395 44.01 0.198 65.917 0.198h8.29v59.207c-0.593 0-1.382 0.197-2.172 0.197-22.893-0.197-45.786 0-68.482-0.395-12.236-0.197-24.472-1.777-36.51-4.54-20.722-4.934-35.918-16.973-46.773-34.734-3.552-5.723-6.118-12.039-9.078-17.959-0.395-0.789-0.79-1.579-1.185-2.96-0.592 5.131-0.789 9.67-1.579 14.21-4.736 26.643-21.907 42.628-48.747 45.194-9.276 0.79-18.551 1.382-27.827 1.382-40.655 0.197-81.311 0-121.97 0h-3.75c0-1.184-0.197-2.171-0.197-3.158v-225.18c-2e-3 -0.593 0.195-1.58 0.195-2.566z"/>
	<path d="m62.759 473.26c-32.169-15.196-51.707-40.852-59.799-75.192-1.184-5.132-1.579-10.461-2.368-15.789-0.197-0.592-0.395-1.185-0.592-1.775v-18.946c0.79-4.935 1.381-9.67 2.368-14.604 8.29-45.392 45.194-80.719 90.784-87.231 23.091-3.157 45.787-1.579 67.101 8.684 17.564 8.486 32.367 20.327 43.616 36.906-6.513 5.131-12.828 10.263-19.143 15.394-4.342-4.736-8.092-9.868-12.631-14.21-15.393-15-34.34-22.498-55.654-23.683-43.813-1.973-80.521 25.458-89.797 68.087-8.683 39.471 8.092 79.534 43.616 98.283 15.986 8.289 32.958 11.052 50.523 9.473 21.511-1.973 39.865-10.657 55.062-26.05 10.263-10.658 17.17-23.09 20.327-37.695 0.198-0.592 0.198-1.185 0.198-1.974h-63.154v-24.472h89.994c0 4.145 0.395 8.289 0 12.434-2.565 27.629-13.025 51.904-32.761 71.64-17.367 17.367-38.682 27.235-63.154 30.393-5.526 0.79-11.249 0.986-16.578 0.986-16.578-1e-3 -32.564-3.356-47.958-10.659z"/>
</g>
</svg>
