<svg width="1000.3" height="475.95" enable-background="new 0 0 1000.279 475.949" version="1.1" viewBox="0 0 1000.3 475.95" xml:space="preserve" xmlns="http://www.w3.org/2000/svg" xmlns:xlink="http://www.w3.org/1999/xlink"><path d="m1000.3 271.28h-86.733l-8.167-68.435 23.7-131.38c3.106-19.409-1.602-37.464-13.224-51.042-11.263-13.183-27.768-20.419-46.457-20.419h-805l-56.356 313.39c-3.09 19.409 1.604 37.466 13.224 51.039 11.272 13.193 27.775 20.421 46.463 20.421l753.59-0.05 48.667-30.905 59.144 49.813-9.479-80.714z" fill="#00263d"/><defs><polygon id="SVGID_1_" points="850.97 316.73 831.62 351.8 124.96 351.81 104.76 369.71 817 369.7 871.37 335.25 910.09 367.86 903.93 315.27 949.61 285.96 900.46 285.96 894.71 237.76 869.13 285.96 814.95 285.96"/></defs><clipPath id="SVGID_2_"><use width="100%" height="100%" overflow="visible" xlink:href="#SVGID_1_"/></clipPath><defs><filter id="Adobe_OpacityMaskFilter" x="104.76" y="237.76" width="844.85" height="131.95" filterUnits="userSpaceOnUse"><feColorMatrix values="1 0 0 0 0  0 1 0 0 0  0 0 1 0 0  0 0 0 1 0"/></filter></defs><mask id="SVGID_3_" x="104.755" y="237.765" width="844.853" height="131.948" maskUnits="userSpaceOnUse"><g filter="url(#Adobe_OpacityMaskFilter)"><linearGradient id="SVGID_4_" x1="105.15" x2="109.73" y1="544.31" y2="544.31" gradientTransform="matrix(184.36 0 0 -184.36 -19281 100655)" gradientUnits="userSpaceOnUse"><stop offset="0"/><stop offset=".135"/><stop stop-color="#252525" offset=".1893"/><stop stop-color="#585858" offset=".2735"/><stop stop-color="#848484" offset=".3617"/><stop stop-color="#aaa" offset=".4523"/><stop stop-color="#C9C9C9" offset=".5459"/><stop stop-color="#E1E1E1" offset=".6434"/><stop stop-color="#F2F2F2" offset=".7467"/><stop stop-color="#FCFCFC" offset=".8596"/><stop stop-color="#fff" offset="1"/></linearGradient><rect x="104.76" y="237.76" width="844.85" height="131.95" clip-path="url(#SVGID_2_)" fill="url(#SVGID_4_)"/></g></mask><linearGradient id="SVGID_5_" x1="105.15" x2="109.74" y1="544.32" y2="544.32" gradientTransform="matrix(184.36 0 0 -184.36 -19281 100655)" gradientUnits="userSpaceOnUse"><stop stop-color="#fff" offset="0"/><stop stop-color="#fff" offset=".135"/><stop stop-color="#fff" offset=".2125"/><stop stop-color="#fff" offset="1"/></linearGradient><rect x="104.76" y="237.76" width="844.85" height="131.95" clip-path="url(#SVGID_2_)" fill="url(#SVGID_5_)" mask="url(#SVGID_3_)"/><path d="m965.49 281.31h-60.889l-7.026-58.859-31.246 58.859h-64.003l42.585 36.379-15.896 29.805-742.93 0.103c-13.107 0-26.873 0.899-37.124-9.188-9.839-9.685-6.997-27.504-4.84-41.037l47.692-271.64h716.61c13.202 0 24.909 5.173 32.955 14.571 8.203 9.588 11.528 22.273 9.367 35.718l-34.012 195.06h43.432l36.535-68.833 23.28-133.54c2.586-16.135-1.316-31.317-11.01-42.655-9.487-11.098-23.48-17.207-39.398-17.207h-797.49l-54.93 305.49c-2.604 16.281 1.278 31.532 10.975 42.868 9.353 10.937 23.182 16.956 38.909 16.956l751.32 0.076 52.618-33.224 45.11 37.994-7.205-61.377z" fill="#0082ca"/><defs><polygon id="SVGID_6_" points="844.91 317.68 829.02 347.49 86.82 347.63 86.357 374.13 818.36 374.22 870.98 341 916.09 379 908.89 317.62 965.49 281.3 904.6 281.3 897.57 222.44 866.33 281.3 802.32 281.3"/></defs><clipPath id="SVGID_7_"><use width="100%" height="100%" overflow="visible" xlink:href="#SVGID_6_"/></clipPath><linearGradient id="SVGID_8_" x1="105.1" x2="109.69" y1="544.37" y2="544.37" gradientTransform="matrix(191.84 0 0 -191.84 -20077 104734)" gradientUnits="userSpaceOnUse"><stop stop-color="#0082CA" offset="0"/><stop stop-color="#ACD6EE" offset="1"/></linearGradient><rect x="86.357" y="222.45" width="879.13" height="156.55" clip-path="url(#SVGID_7_)" fill="url(#SVGID_8_)"/><defs><polygon id="SVGID_9_" points="850.97 316.73 831.62 351.8 124.96 351.81 104.76 369.71 817 369.7 871.37 335.25 910.09 367.86 903.93 315.27 949.61 285.96 900.46 285.96 894.71 237.76 869.13 285.96 814.95 285.96"/></defs><clipPath id="SVGID_10_"><use width="100%" height="100%" overflow="visible" xlink:href="#SVGID_9_"/></clipPath><defs><filter id="Adobe_OpacityMaskFilter_1_" x="104.76" y="237.76" width="844.85" height="131.95" filterUnits="userSpaceOnUse"><feColorMatrix values="1 0 0 0 0  0 1 0 0 0  0 0 1 0 0  0 0 0 1 0"/></filter></defs><mask id="SVGID_11_" x="104.755" y="237.765" width="844.853" height="131.948" maskUnits="userSpaceOnUse"><g filter="url(#Adobe_OpacityMaskFilter_1_)"><rect x="104.76" y="237.76" width="844.85" height="131.95" clip-path="url(#SVGID_10_)" fill="url(#SVGID_4_)"/></g></mask><rect x="104.76" y="237.76" width="844.85" height="131.95" clip-path="url(#SVGID_10_)" fill="url(#SVGID_5_)" mask="url(#SVGID_11_)"/><path d="m1000.3 271.28h-86.733l-8.167-68.435 23.7-131.38c3.106-19.409-1.602-37.464-13.224-51.042-11.263-13.183-27.768-20.419-46.457-20.419h-805l-56.356 313.39c-3.09 19.409 1.604 37.466 13.224 51.039 11.272 13.193 27.775 20.421 46.463 20.421l753.59-0.05 48.667-30.905 59.144 49.813-9.479-80.714z" fill="#00263d"/><defs><polygon id="SVGID_14_" points="850.97 316.73 831.62 351.8 124.96 351.81 104.76 369.71 817 369.7 871.37 335.25 910.09 367.86 903.93 315.27 949.61 285.96 900.46 285.96 894.71 237.76 869.13 285.96 814.95 285.96"/></defs><clipPath id="SVGID_15_"><use width="100%" height="100%" overflow="visible" xlink:href="#SVGID_14_"/></clipPath><defs><filter id="Adobe_OpacityMaskFilter_2_" x="104.76" y="237.76" width="844.85" height="131.95" filterUnits="userSpaceOnUse"><feColorMatrix values="1 0 0 0 0  0 1 0 0 0  0 0 1 0 0  0 0 0 1 0"/></filter></defs><mask id="SVGID_16_" x="104.755" y="237.765" width="844.853" height="131.948" maskUnits="userSpaceOnUse"><g filter="url(#Adobe_OpacityMaskFilter_2_)"><rect x="104.76" y="237.76" width="844.85" height="131.95" clip-path="url(#SVGID_15_)" fill="url(#SVGID_4_)"/></g></mask><rect x="104.76" y="237.76" width="844.85" height="131.95" clip-path="url(#SVGID_15_)" fill="url(#SVGID_5_)" mask="url(#SVGID_16_)"/><path d="m965.49 281.31h-60.889l-7.026-58.859-31.246 58.859h-64.003l42.585 36.379-15.896 29.805-742.93 0.103c-13.107 0-26.873 0.899-37.124-9.188-9.839-9.685-6.997-27.504-4.84-41.037l47.692-271.64h716.61c13.202 0 24.909 5.173 32.955 14.571 8.203 9.588 11.528 22.273 9.367 35.718l-34.012 195.06h43.432l36.535-68.833 23.28-133.54c2.586-16.135-1.316-31.317-11.01-42.655-9.487-11.098-23.48-17.207-39.398-17.207h-797.49l-54.93 305.49c-2.604 16.281 1.278 31.532 10.975 42.868 9.353 10.937 23.182 16.956 38.909 16.956l751.32 0.076 52.618-33.224 45.11 37.994-7.205-61.377z" fill="#0082ca"/><defs><polygon id="SVGID_19_" points="844.91 317.68 829.02 347.49 86.82 347.63 86.357 374.13 818.36 374.22 870.98 341 916.09 379 908.89 317.62 965.49 281.3 904.6 281.3 897.57 222.44 866.33 281.3 802.32 281.3"/></defs><clipPath id="SVGID_20_"><use width="100%" height="100%" overflow="visible" xlink:href="#SVGID_19_"/></clipPath><rect x="86.357" y="222.45" width="879.13" height="156.55" clip-path="url(#SVGID_20_)" fill="url(#SVGID_8_)"/><defs><polygon id="SVGID_22_" points="850.97 316.73 831.62 351.8 124.96 351.81 104.76 369.71 817 369.7 871.37 335.25 910.09 367.86 903.93 315.27 949.61 285.96 900.46 285.96 894.71 237.76 869.13 285.96 814.95 285.96"/></defs><clipPath id="SVGID_23_"><use width="100%" height="100%" overflow="visible" xlink:href="#SVGID_22_"/></clipPath><defs><filter id="Adobe_OpacityMaskFilter_3_" x="104.76" y="237.76" width="844.85" height="131.95" filterUnits="userSpaceOnUse"><feColorMatrix values="1 0 0 0 0  0 1 0 0 0  0 0 1 0 0  0 0 0 1 0"/></filter></defs><mask id="SVGID_24_" x="104.755" y="237.765" width="844.853" height="131.948" maskUnits="userSpaceOnUse"><g filter="url(#Adobe_OpacityMaskFilter_3_)"><rect x="104.76" y="237.76" width="844.85" height="131.95" clip-path="url(#SVGID_23_)" fill="url(#SVGID_4_)"/></g></mask><rect x="104.76" y="237.76" width="844.85" height="131.95" clip-path="url(#SVGID_23_)" fill="url(#SVGID_5_)" mask="url(#SVGID_24_)"/><path d="m297.8 187.73-0.559-0.183 0.631-0.188c22.208-8.718 40.301-29.069 44.508-52.874 5.603-31.487-15.395-57.19-46.862-57.378l-163.91 0.045-10.206 57.456h26.574l-19.751 111.24h-26.569l-10.167 57.336h169.88c32.582 0 63.587-26.322 69.367-58.844 4.792-26.971-9.3-49.705-32.931-56.611m-76.306-53.122h41.194c2.112 0 3.529 1.626 3.135 3.786l-4.451 25.057c-0.376 2.108-2.387 3.855-4.473 3.855h-41.205zm27.932 107.48c-0.367 2.067-2.365 3.759-4.435 3.759h-43.246l6.699-37.745h43.25c2.085 0 3.459 1.745 3.088 3.849z"/><polygon points="556.07 153.88 503.05 153.88 506.5 134.41 488.18 134.41 468.45 245.45 506.19 245.45 496.02 302.73 355.14 302.73 365.31 245.45 401.06 245.45 420.77 134.41 402.54 134.41 399.07 153.88 345.97 153.88 359.59 77.154 569.72 77.154"/><path d="m807.85 134.45h-21.982l-29.886 168.35h-52.995c-8.843 0-15.775-4.73-18.938-11.685l-37.261-104.44-10.472 58.763h21.749l-10.177 57.358h-107.16l10.181-57.358h26.265l19.709-111h-26.273l10.176-57.295h79.483c8.816 0 15.798 4.714 18.93 11.68l36.871 106.02 10.683-60.401h-21.691l10.172-57.295h102.79z"/><path d="m293.22 183.15-0.559-0.184 0.631-0.188c22.208-8.718 40.301-29.068 44.508-52.874 5.603-31.487-15.395-57.19-46.862-57.378l-163.91 0.044-10.206 57.457h26.574l-19.751 111.24h-26.569l-10.167 57.336h169.88c32.582 0 63.587-26.323 69.367-58.844 4.793-26.972-9.299-49.706-32.931-56.611m-76.305-53.122h41.194c2.112 0 3.528 1.626 3.135 3.786l-4.451 25.057c-0.376 2.108-2.387 3.855-4.473 3.855h-41.205zm27.931 107.48c-0.367 2.067-2.365 3.757-4.435 3.757h-43.246l6.699-37.746h43.25c2.085 0 3.459 1.746 3.088 3.849z" fill="#f1f2f2"/><path d="m290.94 72.52c31.467 0.192 52.465 25.896 46.866 57.378-4.207 23.813-22.304 44.163-44.508 52.874l-0.635 0.192 0.56 0.184c23.631 6.901 37.728 29.639 32.935 56.613-5.78 32.519-36.791 58.842-69.367 58.842h-169.88l10.163-57.336h26.569l19.756-111.24h-26.573l10.206-57.457 163.91-0.051m-79.824 90.199h41.205c2.085 0 4.102-1.741 4.478-3.849l4.45-25.063c0.394-2.155-1.022-3.779-3.139-3.779h-41.189l-5.805 32.691m-13.949 78.548h43.25c2.07 0 4.063-1.689 4.435-3.757l5.352-30.138c0.376-2.103-0.998-3.851-3.083-3.851h-43.255l-6.699 37.746m93.791-174.24h-0.018l-163.91 0.049h-4.605l-0.808 4.538-10.206 57.455-1.146 6.462h26.576l-17.804 100.24h-26.564l-0.808 4.54-10.167 57.327-1.146 6.462h176.44c35.024 0 68.568-28.426 74.777-63.377 4.399-24.739-5.829-47.097-25.428-58.097 19.252-11.291 33.338-30.605 37.077-51.769 3.03-17.015-0.871-33.076-10.984-45.222-9.908-11.899-24.562-18.507-41.261-18.612h-0.014zm-69.426 68.504h33.823l-3.849 21.693h-33.83zm-13.056 73.495h35.855l-4.757 26.748h-35.846z" fill="#00263d"/><polygon points="551.49 149.3 498.46 149.3 501.92 129.83 483.6 129.83 463.86 240.86 501.6 240.86 491.44 298.15 350.56 298.15 360.72 240.86 396.48 240.86 416.19 129.83 397.95 129.83 394.48 149.3 341.39 149.3 355.01 72.571 565.13 72.571" fill="#f1f2f2"/><path d="m565.13 72.569-13.636 76.727h-53.031l3.455-19.472h-18.316l-19.738 111.04h37.744l-10.166 57.277h-140.88l10.163-57.277h35.754l19.708-111.04h-18.234l-3.464 19.472h-53.097l13.613-76.727zm6.565-5.498h-221.3l-0.801 4.54-13.62 76.722-1.146 6.462h64.266l0.808-4.538 2.661-14.934h7.062l-17.758 100.04h-35.748l-0.808 4.535-10.167 57.277-1.146 6.463h152.06l0.801-4.543 10.165-57.277 1.146-6.455h-37.74l17.779-100.04h7.149l-2.309 13.009-1.146 6.462h64.203l0.806-4.538 13.64-76.724z" fill="#00263d"/><path d="m803.26 129.87h-21.981l-29.886 168.35h-52.995c-8.843 0-15.774-4.73-18.938-11.685l-37.261-104.44-10.472 58.764h21.75l-10.177 57.357h-107.17l10.181-57.357h26.266l19.708-111h-26.273l10.177-57.295h79.483c8.815 0 15.797 4.714 18.93 11.68l36.871 106.02 10.682-60.401h-21.69l10.172-57.295h102.79z" fill="#f1f2f2"/><path d="m813.44 72.574-10.172 57.295h-21.981l-29.886 168.35h-52.995c-8.834 0-15.774-4.73-18.938-11.685l-37.261-104.44-10.472 58.764h21.75l-10.177 57.357h-107.17l10.181-57.357h26.266l19.708-111h-26.265l10.168-57.295h79.483c8.815 0 15.797 4.714 18.93 11.68l36.871 106.02 10.682-60.403h-21.69l10.172-57.295h102.79m6.556-5.505h-113.96l-0.811 4.542-9.858 55.577-15.561-44.741-0.08-0.224-0.099-0.226c-4.14-9.206-13.318-14.93-23.946-14.93h-84.092l-0.806 4.542-10.172 57.295-1.146 6.46h26.264l-17.758 99.998h-26.26l-0.805 4.54-10.186 57.356-1.146 6.462h118.34l0.806-4.537 9.769-55.072 15.803 44.269 0.075 0.215 0.095 0.215c4.18 9.196 13.354 14.911 23.941 14.911h57.604l0.797-4.537 29.089-163.82h21.981l0.806-4.536 10.168-57.295zm-121.79 68.298h17.4l-5.867 33.166zm-59.905 99.997 5.684-31.903 11.385 31.903h-1.888z" fill="#00263d"/><g opacity=".2"><defs><rect id="SVGID_27_" x="38.784" y="4.584" width="886.64" height="163.75"/></defs><clipPath id="SVGID_28_"><use width="100%" height="100%" overflow="visible" xlink:href="#SVGID_27_"/></clipPath><g clip-path="url(#SVGID_28_)"><defs><rect id="SVGID_29_" x="38.784" y="4.584" width="886.64" height="163.75"/></defs><clipPath id="SVGID_30_"><use width="100%" height="100%" overflow="visible" xlink:href="#SVGID_29_"/></clipPath><path d="m869.4 4.584h-801.17l-29.447 163.75h868.16l17.628-97.682c2.859-17.905-1.468-34.718-12.2-47.251-10.368-12.134-25.624-18.816-42.97-18.816" clip-path="url(#SVGID_30_)" fill="#fff"/></g></g><defs><path id="SVGID_31_" d="m28.017 449.57h14.361l1.591 1.924-1.604 8.986-2.37 2.014h-14.278zm4.054-22.752h14.106l1.723 2.095-1.412 7.885-2.273 1.934h-14.265zm-19.017-11.089-1.866 10.498h5.115l-6.563 36.858h-5.113l-1.884 10.57h45.17l9.485-8.055 2.636-14.777-5.509-6.802 7.8-6.548 2.439-13.681-6.632-8.063z"/></defs><clipPath id="SVGID_32_"><use width="100%" height="100%" overflow="visible" xlink:href="#SVGID_31_"/></clipPath><linearGradient id="SVGID_33_" x1="81.525" x2="86.109" y1="557.92" y2="557.92" gradientTransform="matrix(-.2278 -14.509 -14.509 0 8147.7 1676.9)" gradientUnits="userSpaceOnUse"><stop stop-color="#58595B" offset="0"/><stop offset="1"/></linearGradient><polygon points="64.765 415.73 65.673 473.65 2.743 473.65 1.833 415.73" clip-path="url(#SVGID_32_)" fill="url(#SVGID_33_)"/><path d="m58.135 415.73 6.632 8.06-2.444 13.681-7.798 6.556 5.507 6.798-2.629 14.781-9.492 8.056h-45.17l1.889-10.575h5.113l6.563-36.857h-5.113l1.864-10.498h45.078zm-28.187 23.002h14.271l2.271-1.929 1.412-7.89-1.728-2.095h-14.105l-2.121 11.914m-4.229 23.763h14.273l2.365-2.018 1.609-8.982-1.591-1.929h-14.356l-2.3 12.929m33.474-49.057h-48.061l-0.329 1.854-1.866 10.498-0.485 2.73h5.109l-5.746 32.274h-5.114l-0.332 1.853-1.884 10.579-0.485 2.726h48.777l0.633-0.532 9.49-8.06 0.615-0.523 0.141-0.797 2.636-14.777 0.184-1.038-0.669-0.823-4.083-5.048 6.09-5.115 0.627-0.523 0.143-0.802 2.437-13.685 0.184-1.043-0.678-0.832-6.63-8.06zm-25.195 15.672h11.123l0.34 0.408-1.087 6.045-1.027 0.878h-10.654zm-4.055 22.748h11.374l0.206 0.246-1.273 7.143-1.128 0.957h-10.664z" fill="#e6e7e8"/><defs><polygon id="SVGID_34_" points="82.041 426.22 75.474 463.08 69.681 463.08 67.792 473.65 95.247 473.65 97.131 463.08 91.338 463.08 97.901 426.22 103.69 426.22 105.56 415.73 78.112 415.73 76.244 426.22"/></defs><clipPath id="SVGID_35_"><use width="100%" height="100%" overflow="visible" xlink:href="#SVGID_34_"/></clipPath><linearGradient id="SVGID_36_" x1="81.525" x2="86.109" y1="555.06" y2="555.06" gradientTransform="matrix(-.2278 -14.509 -14.509 0 8159.2 1676.9)" gradientUnits="userSpaceOnUse"><stop stop-color="#58595B" offset="0"/><stop offset="1"/></linearGradient><polygon points="105.56 415.73 106.47 473.65 67.792 473.65 66.884 415.73" clip-path="url(#SVGID_35_)" fill="url(#SVGID_36_)"/><path d="m105.56 415.73-1.868 10.498h-5.793l-6.563 36.857h5.798l-1.884 10.575h-27.454l1.886-10.575h5.789l6.567-36.857h-5.798l1.871-10.498zm2.746-2.292h-32.118l-0.331 1.857-1.869 10.499-0.492 2.726h5.798l-5.746 32.274h-5.788l-0.329 1.853-1.893 10.579-0.485 2.726h32.122l0.331-1.857 1.884-10.579 0.485-2.721h-5.793l5.746-32.274h5.789l0.329-1.854 1.875-10.498z" fill="#e6e7e8"/><defs><polygon id="SVGID_37_" points="109.17 464.76 116.48 473.65 148.98 473.65 158.86 465.26 163.18 440.99 135.48 440.99 133.42 452.58 145.17 452.58 143.72 460.73 141.64 462.49 128.38 462.49 126.01 459.72 131.26 430.25 134.62 427.4 147.89 427.4 149.32 429.25 148.44 434.2 164.39 434.2 166.19 424.12 159.29 415.73 126.8 415.73 116.31 424.63"/></defs><clipPath id="SVGID_38_"><use width="100%" height="100%" overflow="visible" xlink:href="#SVGID_37_"/></clipPath><linearGradient id="SVGID_39_" x1="81.525" x2="86.109" y1="552.32" y2="552.32" gradientTransform="matrix(-.2278 -14.509 -14.509 0 8170.4 1676.9)" gradientUnits="userSpaceOnUse"><stop stop-color="#58595B" offset="0"/><stop offset="1"/></linearGradient><polygon points="166.19 415.73 167.09 473.65 109.17 473.65 108.26 415.73" clip-path="url(#SVGID_38_)" fill="url(#SVGID_39_)"/><path d="m159.29 415.73 6.896 8.396-1.792 10.077h-15.957l0.884-4.954-1.434-1.848h-13.26l-3.37 2.855-5.243 29.469 2.356 2.77h13.267l2.081-1.763 1.448-8.145h-11.75l2.061-11.582h27.704l-4.318 24.26-9.888 8.396h-32.496l-7.308-8.901 7.145-40.129 10.485-8.9h32.489zm1.059-2.292h-34.421l-0.626 0.537-10.49 8.901-0.609 0.515-0.143 0.806-7.145 40.129-0.188 1.042 0.683 0.833 7.31 8.896 0.7 0.854h34.425l0.626-0.537 9.89-8.396 0.615-0.523 0.141-0.796 4.316-24.26 0.485-2.726h-32.367l-0.329 1.853-2.068 11.582-0.485 2.729h11.754l-0.819 4.618-0.835 0.707h-11.36l-0.949-1.109 4.912-27.604 2.119-1.799h11.3l0.092 0.125-0.7 3.952-0.488 2.726h20.622l0.331-1.854 1.792-10.077 0.188-1.048-0.685-0.828-6.896-8.395z" fill="#e6e7e8"/><defs><polygon id="SVGID_40_" points="201.33 436.98 203.21 426.39 209.51 426.39 202.98 463.08 195.43 463.08 193.54 473.65 224.69 473.65 226.57 463.08 218.92 463.08 225.46 426.39 231.76 426.39 229.87 436.98 242.05 436.98 245.82 415.73 193.02 415.73 189.24 436.98"/></defs><clipPath id="SVGID_41_"><use width="100%" height="100%" overflow="visible" xlink:href="#SVGID_40_"/></clipPath><linearGradient id="SVGID_42_" x1="81.525" x2="86.109" y1="548.02" y2="548.02" gradientTransform="matrix(-.2278 -14.509 -14.509 0 8187.8 1676.9)" gradientUnits="userSpaceOnUse"><stop stop-color="#58595B" offset="0"/><stop offset="1"/></linearGradient><polygon points="245.82 415.73 246.74 473.65 189.24 473.65 188.34 415.73" clip-path="url(#SVGID_41_)" fill="url(#SVGID_42_)"/><path d="m245.83 415.73-3.779 21.248h-12.177l1.889-10.579h-6.296l-6.534 36.687h7.639l-1.884 10.575h-31.143l1.882-10.575h7.556l6.532-36.687h-6.297l-1.884 10.579h-12.083l3.775-21.248zm2.741-2.292h-57.47l-0.329 1.857-3.781 21.244-0.481 2.729h16.753l0.331-1.862 1.548-8.717h1.627l-5.715 32.104h-7.551l-0.329 1.853-1.884 10.579-0.485 2.726h35.809l0.329-1.857 1.884-10.579 0.486-2.721h-7.634l5.715-32.104h1.626l-1.396 7.85-0.492 2.729h16.851l0.324-1.857 3.782-21.243z" fill="#e6e7e8"/><defs><polygon id="SVGID_43_" points="259.91 426.22 253.35 463.08 248.23 463.08 246.35 473.65 295.28 473.65 298.41 456.11 284.97 456.11 283.73 463.08 269.21 463.08 271.52 450.06 293.44 450.06 295.56 438.14 273.66 438.14 275.78 426.22 290.13 426.22 288.95 432.86 302.46 432.86 305.51 415.73 256.66 415.73 254.79 426.22"/></defs><clipPath id="SVGID_44_"><use width="100%" height="100%" overflow="visible" xlink:href="#SVGID_43_"/></clipPath><linearGradient id="SVGID_45_" x1="81.525" x2="86.109" y1="544.87" y2="544.87" gradientTransform="matrix(-.2278 -14.509 -14.509 0 8200.5 1676.9)" gradientUnits="userSpaceOnUse"><stop stop-color="#58595B" offset="0"/><stop offset="1"/></linearGradient><polygon points="305.51 415.73 306.42 473.65 246.35 473.65 245.44 415.73" clip-path="url(#SVGID_44_)" fill="url(#SVGID_45_)"/><path d="m305.51 415.73-3.052 17.126h-13.508l1.182-6.628h-14.356l-2.121 11.922h21.908l-2.121 11.918h-21.915l-2.314 13.018h14.522l1.242-6.972h13.432l-3.13 17.547h-48.934l1.884-10.575h5.119l6.559-36.857h-5.115l1.864-10.498h48.854zm2.746-2.292h-53.525l-0.329 1.857-1.866 10.499-0.485 2.726h5.115l-5.741 32.274h-5.125l-0.325 1.853-1.884 10.579-0.49 2.726h53.606l0.331-1.857 3.124-17.547 0.488-2.726h-18.098l-0.329 1.854-0.913 5.119h-9.856l1.497-8.436h21.915l0.329-1.857 2.128-11.917 0.481-2.726h-21.911l1.312-7.339h9.682l-0.691 3.902-0.485 2.725h18.178l0.331-1.848 3.052-17.131z" fill="#e6e7e8"/><defs><polygon id="SVGID_46_" points="354.64 426.48 350.49 449.73 337.99 415.73 316.84 415.73 314.93 426.48 320.05 426.48 313.58 462.82 308.46 462.82 306.53 473.65 330.95 473.65 332.88 462.82 327.43 462.82 331.64 439.15 343.89 473.65 360.09 473.65 368.48 426.48 373.19 426.48 375.11 415.73 350.84 415.73 348.92 426.48"/></defs><clipPath id="SVGID_47_"><use width="100%" height="100%" overflow="visible" xlink:href="#SVGID_46_"/></clipPath><linearGradient id="SVGID_48_" x1="81.525" x2="86.109" y1="541.37" y2="541.37" gradientTransform="matrix(-.2278 -14.509 -14.509 0 8214.7 1676.9)" gradientUnits="userSpaceOnUse"><stop stop-color="#58595B" offset="0"/><stop offset="1"/></linearGradient><polygon points="375.11 415.73 376.02 473.65 306.53 473.65 305.62 415.73" clip-path="url(#SVGID_47_)" fill="url(#SVGID_48_)"/><path d="m375.11 415.73-1.911 10.749h-4.71l-8.4 47.182h-16.2l-12.244-34.508-4.211 23.674h5.449l-1.924 10.834h-24.426l1.929-10.834h5.12l6.469-36.348h-5.117l1.911-10.749h21.152l12.497 34.002 4.148-23.253h-5.71l1.916-10.749zm2.741-2.292h-28.93l-0.331 1.857-1.915 10.745-0.49 2.729h5.71l-2.182 12.235-9.568-26.036-0.564-1.531h-24.663l-0.331 1.857-1.911 10.745-0.485 2.729h5.12l-5.661 31.765h-5.113l-0.329 1.857-1.936 10.834-0.485 2.726h29.095l0.329-1.857 1.931-10.829 0.486-2.73h-5.453l2.217-12.459 9.34 26.323 0.548 1.553h19.732l0.331-1.857 8.069-45.324h4.71l0.331-1.857 1.911-10.744z" fill="#e6e7e8"/><defs><polygon id="SVGID_49_" points="439.66 426.48 435.52 449.73 423.03 415.73 401.88 415.73 399.96 426.48 405.08 426.48 398.61 462.82 393.49 462.82 391.56 473.65 415.98 473.65 417.92 462.82 412.46 462.82 416.67 439.15 428.92 473.65 445.12 473.65 453.51 426.48 458.22 426.48 460.13 415.73 435.87 415.73 433.96 426.48"/></defs><clipPath id="SVGID_50_"><use width="100%" height="100%" overflow="visible" xlink:href="#SVGID_49_"/></clipPath><linearGradient id="SVGID_51_" x1="81.525" x2="86.109" y1="536.79" y2="536.79" gradientTransform="matrix(-.2278 -14.509 -14.509 0 8233.2 1676.9)" gradientUnits="userSpaceOnUse"><stop stop-color="#58595B" offset="0"/><stop offset="1"/></linearGradient><polygon points="460.13 415.73 461.04 473.65 391.56 473.65 390.65 415.73" clip-path="url(#SVGID_50_)" fill="url(#SVGID_51_)"/><path d="m460.13 415.73-1.911 10.749h-4.706l-8.4 47.182h-16.2l-12.244-34.508-4.211 23.674h5.453l-1.929 10.834h-24.43l1.929-10.834h5.124l6.471-36.348h-5.12l1.911-10.749h21.154l12.495 34.002 4.144-23.253h-5.706l1.911-10.749zm2.741-2.292h-28.93l-0.331 1.857-1.911 10.745-0.485 2.729h5.701l-2.177 12.23-9.568-26.031-0.563-1.531h-24.664l-0.331 1.857-1.911 10.745-0.486 2.729h5.12l-5.659 31.765h-5.12l-0.329 1.857-1.931 10.834-0.486 2.726h29.091l0.333-1.857 1.936-10.829 0.485-2.73h-5.458l2.218-12.459 9.34 26.323 0.548 1.553h19.734l0.331-1.857 8.069-45.324h4.705l0.331-1.857 1.911-10.744z" fill="#e6e7e8"/><defs><polygon id="SVGID_52_" points="474.22 426.22 467.65 463.08 462.53 463.08 460.64 473.65 509.59 473.65 512.72 456.11 499.27 456.11 498.03 463.08 483.52 463.08 485.83 450.06 507.74 450.06 509.86 438.14 487.96 438.14 490.08 426.22 504.43 426.22 503.25 432.86 516.76 432.86 519.81 415.73 470.96 415.73 469.08 426.22"/></defs><clipPath id="SVGID_53_"><use width="100%" height="100%" overflow="visible" xlink:href="#SVGID_52_"/></clipPath><linearGradient id="SVGID_54_" x1="81.525" x2="86.109" y1="533.32" y2="533.32" gradientTransform="matrix(-.2278 -14.509 -14.509 0 8247.3 1676.9)" gradientUnits="userSpaceOnUse"><stop stop-color="#58595B" offset="0"/><stop offset="1"/></linearGradient><polygon points="519.81 415.73 520.72 473.65 460.64 473.65 459.73 415.73" clip-path="url(#SVGID_53_)" fill="url(#SVGID_54_)"/><path d="m519.81 415.73-3.043 17.126h-13.515l1.177-6.628h-14.347l-2.117 11.922h21.901l-2.124 11.918h-21.91l-2.313 13.018h14.513l1.242-6.972h13.438l-3.128 17.547h-48.94l1.882-10.575h5.124l6.567-36.857h-5.128l1.875-10.498h48.846zm2.743-2.292h-53.516l-0.329 1.857-1.879 10.499-0.486 2.726h5.129l-5.746 32.274h-5.124l-0.329 1.853-1.884 10.579-0.485 2.726h53.606l0.331-1.857 3.128-17.547 0.492-2.726h-18.112l-0.329 1.854-0.913 5.119h-9.843l1.499-8.436h21.897l0.336-1.857 2.125-11.917 0.488-2.726h-21.91l1.307-7.339h9.682l-0.695 3.902-0.486 2.725h18.19l0.327-1.848 3.043-17.131z" fill="#e6e7e8"/><defs><polygon id="SVGID_55_" points="539.44 436.98 541.33 426.39 547.64 426.39 541.1 463.08 533.53 463.08 531.65 473.65 562.81 473.65 564.69 463.08 557.05 463.08 563.58 426.39 569.88 426.39 568 436.98 580.16 436.98 583.95 415.73 531.14 415.73 527.35 436.98"/></defs><clipPath id="SVGID_56_"><use width="100%" height="100%" overflow="visible" xlink:href="#SVGID_55_"/></clipPath><linearGradient id="SVGID_57_" x1="81.525" x2="86.109" y1="529.8" y2="529.8" gradientTransform="matrix(-.2278 -14.509 -14.509 0 8261.6 1676.9)" gradientUnits="userSpaceOnUse"><stop stop-color="#58595B" offset="0"/><stop offset="1"/></linearGradient><polygon points="583.95 415.73 584.85 473.65 527.35 473.65 526.44 415.73" clip-path="url(#SVGID_56_)" fill="url(#SVGID_57_)"/><path d="m583.95 415.73-3.782 21.248h-12.172l1.884-10.579h-6.301l-6.529 36.687h7.644l-1.884 10.575h-31.152l1.876-10.575h7.567l6.538-36.687h-6.301l-1.889 10.579h-12.083l3.776-21.248zm2.739-2.292h-57.47l-0.331 1.857-3.777 21.244-0.492 2.729h16.755l0.331-1.857 1.558-8.722h1.629l-5.719 32.104h-7.563l-0.327 1.853-1.879 10.579-0.488 2.726h35.819l0.331-1.857 1.88-10.579 0.487-2.721h-7.643l5.715-32.104h1.639l-1.396 7.85-0.488 2.729h16.838l0.322-1.857 3.785-21.243z" fill="#e6e7e8"/><defs><polygon id="SVGID_58_" points="655.52 426.22 645.24 459.97 643.46 415.73 625.16 415.73 607.72 459.97 609.44 426.22 615.31 426.22 617.19 415.73 593.08 415.73 591.23 426.22 594.92 426.22 594.52 473.65 614.59 473.65 631.56 428.83 632.64 473.65 651.6 473.65 668.12 426.22 671.82 426.22 673.68 415.73 651.6 415.73 649.74 426.22"/></defs><clipPath id="SVGID_59_"><use width="100%" height="100%" overflow="visible" xlink:href="#SVGID_58_"/></clipPath><linearGradient id="SVGID_60_" x1="81.525" x2="86.109" y1="525.66" y2="525.66" gradientTransform="matrix(-.2278 -14.509 -14.509 0 8278.4 1676.9)" gradientUnits="userSpaceOnUse"><stop stop-color="#58595B" offset="0"/><stop offset="1"/></linearGradient><polygon points="673.68 415.73 674.59 473.65 591.23 473.65 590.32 415.73" clip-path="url(#SVGID_59_)" fill="url(#SVGID_60_)"/><path d="m673.68 415.73-1.866 10.498h-3.691l-16.514 47.433h-18.975l-1.078-44.832-16.966 44.832h-20.063l0.39-47.433h-3.688l1.862-10.498h24.094l-1.871 10.498h-5.88l-1.723 33.743 17.448-44.241h18.295l1.781 44.241 10.292-33.743h-5.795l1.866-10.498zm2.739-2.292h-26.745l-0.331 1.857-1.861 10.499-0.488 2.726h5.428l-5.441 17.842-1.235-30.686-0.09-2.238h-22.071l-0.555 1.424-12.312 31.209 0.899-17.551h5.617l0.336-1.854 1.871-10.498 0.482-2.73h-28.757l-0.331 1.857-1.866 10.499-0.479 2.726h4.117l-0.375 45.082-0.019 2.35h23.97l0.555-1.454 12.808-33.859 0.797 33.045 0.058 2.269h22.846l0.528-1.508 15.985-45.924h3.979l0.326-1.854 1.871-10.498z" fill="#e6e7e8"/><defs><path id="SVGID_61_" d="m691.72 459.14 5.142-28.883 3.37-2.855h11.993l2.354 2.855-5.143 28.883-3.36 2.846h-12.012zm0.68-43.409-10.485 8.9-7.147 40.129 7.317 8.896h31.733l10.562-8.896 7.155-40.129-7.401-8.9z"/></defs><clipPath id="SVGID_62_"><use width="100%" height="100%" overflow="visible" xlink:href="#SVGID_61_"/></clipPath><linearGradient id="SVGID_63_" x1="81.525" x2="86.109" y1="521.85" y2="521.85" gradientTransform="matrix(-.2278 -14.509 -14.509 0 8293.7 1676.9)" gradientUnits="userSpaceOnUse"><stop stop-color="#58595B" offset="0"/><stop offset="1"/></linearGradient><polygon points="731.53 415.73 732.44 473.65 674.76 473.65 673.86 415.73" clip-path="url(#SVGID_62_)" fill="url(#SVGID_63_)"/><path d="m724.13 415.73 7.396 8.9-7.15 40.129-10.562 8.896h-31.738l-7.313-8.896 7.147-40.129 10.485-8.9zm-30.069 46.264h12.003l3.369-2.854 5.138-28.883-2.345-2.855h-11.998l-3.365 2.855-5.146 28.883 2.344 2.854m31.12-48.556h-33.652l-0.636 0.537-10.485 8.901-0.608 0.515-0.144 0.806-7.143 40.129-0.188 1.042 0.685 0.833 7.304 8.896 0.707 0.851h33.653l0.635-0.523 10.558-8.901 0.621-0.52 0.14-0.806 7.155-40.133 0.188-1.057-0.694-0.823-7.389-8.901zm-24.085 16.254h10.069l0.967 1.173-4.815 27.039-2.118 1.799h-10.078l-0.962-1.173 4.815-27.039z" fill="#e6e7e8"/><defs><path id="SVGID_64_" d="m764.56 426.22h13.936l1.987 2.516-1.656 9.317-2.873 2.434h-13.936zm-19.118-10.498-1.87 10.498h5.119l-6.561 36.857h-5.119l-1.88 10.57h26.604l1.885-10.57h-5.612l2.112-11.926h13.936l2.01 2.43-2.681 15.036 4.135 5.03h14.356l1.889-10.57h-3.446l2.171-12.181-4.771-5.791 6.829-5.787 2.761-15.452-6.784-8.145h-45.083z"/></defs><clipPath id="SVGID_65_"><use width="100%" height="100%" overflow="visible" xlink:href="#SVGID_64_"/></clipPath><linearGradient id="SVGID_66_" x1="81.525" x2="86.109" y1="518.45" y2="518.45" gradientTransform="matrix(-.2278 -14.509 -14.509 0 8307.5 1676.9)" gradientUnits="userSpaceOnUse"><stop stop-color="#58595B" offset="0"/><stop offset="1"/></linearGradient><polygon points="797.31 415.73 798.22 473.65 735.14 473.65 734.22 415.73" clip-path="url(#SVGID_65_)" fill="url(#SVGID_66_)"/><path d="m790.53 415.73 6.784 8.145-2.757 15.448-6.833 5.791 4.771 5.791-2.171 12.181h3.441l-1.884 10.575h-14.356l-4.14-5.035 2.681-15.036-2.005-2.43h-13.936l-2.121 11.926h5.621l-1.885 10.575h-26.604l1.88-10.575h5.128l6.557-36.857h-5.124l1.875-10.498h45.078zm-28.507 24.77h13.936l2.864-2.43 1.665-9.326-1.987-2.516h-13.936l-2.542 14.272m29.554-27.062h-48.054l-0.327 1.857-1.875 10.499-0.483 2.726h5.12l-5.746 32.274h-5.12l-0.331 1.853-1.88 10.579-0.482 2.726h31.267l0.331-1.857 1.884-10.579 0.492-2.721h-5.62l1.298-7.344h10.955l0.617 0.752-2.492 13.984-0.184 1.048 0.68 0.828 4.136 5.034 0.702 0.854h17.342l0.331-1.857 1.879-10.579 0.492-2.721h-3.441l1.683-9.451 0.188-1.048-0.685-0.827-3.325-4.042 5.124-4.345 0.613-0.523 0.147-0.797 2.752-15.448 0.188-1.057-0.694-0.832-6.779-8.141zm-25.087 15.082h10.924l0.64 0.805-1.343 7.505-1.624 1.379h-10.32z" fill="#e6e7e8"/><defs><polygon id="SVGID_67_" points="843.97 426.22 828.91 443.85 832.05 426.22 836.5 426.22 838.37 415.73 812.94 415.73 811.07 426.22 816.18 426.22 809.62 463.08 804.51 463.08 802.62 473.65 828.06 473.65 829.94 463.08 825.49 463.08 826.27 458.72 836.57 447.96 839.76 463.08 833.47 463.08 831.58 473.65 858.86 473.65 860.74 463.08 855.63 463.08 849 438.48 860.6 426.22 866.22 426.22 868.09 415.73 841.4 415.73 839.52 426.22"/></defs><clipPath id="SVGID_68_"><use width="100%" height="100%" overflow="visible" xlink:href="#SVGID_67_"/></clipPath><linearGradient id="SVGID_69_" x1="81.525" x2="86.109" y1="514.72" y2="514.72" gradientTransform="matrix(-.2278 -14.509 -14.509 0 8322.6 1676.9)" gradientUnits="userSpaceOnUse"><stop stop-color="#58595B" offset="0"/><stop offset="1"/></linearGradient><polygon points="868.09 415.73 869 473.65 802.62 473.65 801.72 415.73" clip-path="url(#SVGID_68_)" fill="url(#SVGID_69_)"/><path d="m868.09 415.73-1.87 10.498h-5.63l-11.582 12.253 6.619 24.604h5.119l-1.889 10.575h-27.285l1.894-10.575h6.292l-3.191-15.117-10.302 10.741-0.778 4.376h4.448l-1.88 10.575h-25.428l1.88-10.575h5.11l6.57-36.857h-5.115l1.865-10.498h25.429l-1.866 10.498h-4.453l-3.137 17.628 15.059-17.628h-4.443l1.865-10.498zm2.739-2.292h-59.815l-0.331 1.857-1.866 10.499-0.488 2.726h5.111l-5.746 32.274h-5.112l-0.331 1.853-1.888 10.579-0.483 2.726h60.898l0.336-1.857 1.884-10.574 0.488-2.726h-6.109l-5.826-21.646 10.051-10.628h6.543l0.331-1.854 1.866-10.498zm-34.048 15.082h2.197l-6.318 7.393 1.312-7.393h2.56zm-8.377 31.299 6.829-7.12 1.705 8.096h-8.704z" fill="#e6e7e8"/><defs><path id="SVGID_70_" d="m28.017 449.57h14.361l1.591 1.924-1.604 8.986-2.37 2.014h-14.278zm4.054-22.752h14.106l1.723 2.095-1.412 7.885-2.273 1.934h-14.265zm-19.017-11.089-1.866 10.498h5.115l-6.563 36.858h-5.113l-1.884 10.57h45.17l9.485-8.055 2.636-14.777-5.509-6.802 7.8-6.548 2.439-13.681-6.632-8.063z"/></defs><clipPath id="SVGID_71_"><use width="100%" height="100%" overflow="visible" xlink:href="#SVGID_70_"/></clipPath><polygon points="64.765 415.73 65.673 473.65 2.743 473.65 1.833 415.73" clip-path="url(#SVGID_71_)" fill="url(#SVGID_33_)"/><path d="m58.135 415.73 6.632 8.06-2.444 13.681-7.798 6.556 5.507 6.798-2.629 14.781-9.492 8.056h-45.17l1.889-10.575h5.113l6.563-36.857h-5.113l1.864-10.498h45.078zm-28.187 23.002h14.271l2.271-1.929 1.412-7.89-1.728-2.095h-14.105l-2.121 11.914m-4.229 23.763h14.273l2.365-2.018 1.609-8.982-1.591-1.929h-14.356l-2.3 12.929m33.474-49.057h-48.061l-0.329 1.854-1.866 10.498-0.485 2.73h5.109l-5.746 32.274h-5.114l-0.332 1.853-1.884 10.579-0.485 2.726h48.777l0.633-0.532 9.49-8.06 0.615-0.523 0.141-0.797 2.636-14.777 0.184-1.038-0.669-0.823-4.083-5.048 6.09-5.115 0.627-0.523 0.143-0.802 2.437-13.685 0.184-1.043-0.678-0.832-6.63-8.06zm-25.195 15.672h11.123l0.34 0.408-1.087 6.045-1.027 0.878h-10.654zm-4.055 22.748h11.374l0.206 0.246-1.273 7.143-1.128 0.957h-10.664z" fill="#e6e7e8"/><defs><polygon id="SVGID_73_" points="82.041 426.22 75.474 463.08 69.681 463.08 67.792 473.65 95.247 473.65 97.131 463.08 91.338 463.08 97.901 426.22 103.69 426.22 105.56 415.73 78.112 415.73 76.244 426.22"/></defs><clipPath id="SVGID_74_"><use width="100%" height="100%" overflow="visible" xlink:href="#SVGID_73_"/></clipPath><polygon points="105.56 415.73 106.47 473.65 67.792 473.65 66.884 415.73" clip-path="url(#SVGID_74_)" fill="url(#SVGID_36_)"/><path d="m105.56 415.73-1.868 10.498h-5.793l-6.563 36.857h5.798l-1.884 10.575h-27.454l1.886-10.575h5.789l6.567-36.857h-5.798l1.871-10.498zm2.746-2.292h-32.118l-0.331 1.857-1.869 10.499-0.492 2.726h5.798l-5.746 32.274h-5.788l-0.329 1.853-1.893 10.579-0.485 2.726h32.122l0.331-1.857 1.884-10.579 0.485-2.721h-5.793l5.746-32.274h5.789l0.329-1.854 1.875-10.498z" fill="#e6e7e8"/><defs><polygon id="SVGID_76_" points="109.17 464.76 116.48 473.65 148.98 473.65 158.86 465.26 163.18 440.99 135.48 440.99 133.42 452.58 145.17 452.58 143.72 460.73 141.64 462.49 128.38 462.49 126.01 459.72 131.26 430.25 134.62 427.4 147.89 427.4 149.32 429.25 148.44 434.2 164.39 434.2 166.19 424.12 159.29 415.73 126.8 415.73 116.31 424.63"/></defs><clipPath id="SVGID_77_"><use width="100%" height="100%" overflow="visible" xlink:href="#SVGID_76_"/></clipPath><polygon points="166.19 415.73 167.09 473.65 109.17 473.65 108.26 415.73" clip-path="url(#SVGID_77_)" fill="url(#SVGID_39_)"/><path d="m159.29 415.73 6.896 8.396-1.792 10.077h-15.957l0.884-4.954-1.434-1.848h-13.26l-3.37 2.855-5.243 29.469 2.356 2.77h13.267l2.081-1.763 1.448-8.145h-11.75l2.061-11.582h27.704l-4.318 24.26-9.888 8.396h-32.496l-7.308-8.901 7.145-40.129 10.485-8.9h32.489zm1.059-2.292h-34.421l-0.626 0.537-10.49 8.901-0.609 0.515-0.143 0.806-7.145 40.129-0.188 1.042 0.683 0.833 7.31 8.896 0.7 0.854h34.425l0.626-0.537 9.89-8.396 0.615-0.523 0.141-0.796 4.316-24.26 0.485-2.726h-32.367l-0.329 1.853-2.068 11.582-0.485 2.729h11.754l-0.819 4.618-0.835 0.707h-11.36l-0.949-1.109 4.912-27.604 2.119-1.799h11.3l0.092 0.125-0.7 3.952-0.488 2.726h20.622l0.331-1.854 1.792-10.077 0.188-1.048-0.685-0.828-6.896-8.395z" fill="#e6e7e8"/><defs><polygon id="SVGID_79_" points="201.33 436.98 203.21 426.39 209.51 426.39 202.98 463.08 195.43 463.08 193.54 473.65 224.69 473.65 226.57 463.08 218.92 463.08 225.46 426.39 231.76 426.39 229.87 436.98 242.05 436.98 245.82 415.73 193.02 415.73 189.24 436.98"/></defs><clipPath id="SVGID_80_"><use width="100%" height="100%" overflow="visible" xlink:href="#SVGID_79_"/></clipPath><polygon points="245.82 415.73 246.74 473.65 189.24 473.65 188.34 415.73" clip-path="url(#SVGID_80_)" fill="url(#SVGID_42_)"/><path d="m245.83 415.73-3.779 21.248h-12.177l1.889-10.579h-6.296l-6.534 36.687h7.639l-1.884 10.575h-31.143l1.882-10.575h7.556l6.532-36.687h-6.297l-1.884 10.579h-12.083l3.775-21.248zm2.741-2.292h-57.47l-0.329 1.857-3.781 21.244-0.481 2.729h16.753l0.331-1.862 1.548-8.717h1.627l-5.715 32.104h-7.551l-0.329 1.853-1.884 10.579-0.485 2.726h35.809l0.329-1.857 1.884-10.579 0.486-2.721h-7.634l5.715-32.104h1.626l-1.396 7.85-0.492 2.729h16.851l0.324-1.857 3.782-21.243z" fill="#e6e7e8"/><defs><polygon id="SVGID_82_" points="259.91 426.22 253.35 463.08 248.23 463.08 246.35 473.65 295.28 473.65 298.41 456.11 284.97 456.11 283.73 463.08 269.21 463.08 271.52 450.06 293.44 450.06 295.56 438.14 273.66 438.14 275.78 426.22 290.13 426.22 288.95 432.86 302.46 432.86 305.51 415.73 256.66 415.73 254.79 426.22"/></defs><clipPath id="SVGID_83_"><use width="100%" height="100%" overflow="visible" xlink:href="#SVGID_82_"/></clipPath><polygon points="305.51 415.73 306.42 473.65 246.35 473.65 245.44 415.73" clip-path="url(#SVGID_83_)" fill="url(#SVGID_45_)"/><path d="m305.51 415.73-3.052 17.126h-13.508l1.182-6.628h-14.356l-2.121 11.922h21.908l-2.121 11.918h-21.915l-2.314 13.018h14.522l1.242-6.972h13.432l-3.13 17.547h-48.934l1.884-10.575h5.119l6.559-36.857h-5.115l1.864-10.498h48.854zm2.746-2.292h-53.525l-0.329 1.857-1.866 10.499-0.485 2.726h5.115l-5.741 32.274h-5.125l-0.325 1.853-1.884 10.579-0.49 2.726h53.606l0.331-1.857 3.124-17.547 0.488-2.726h-18.098l-0.329 1.854-0.913 5.119h-9.856l1.497-8.436h21.915l0.329-1.857 2.128-11.917 0.481-2.726h-21.911l1.312-7.339h9.682l-0.691 3.902-0.485 2.725h18.178l0.331-1.848 3.052-17.131z" fill="#e6e7e8"/><defs><polygon id="SVGID_85_" points="354.64 426.48 350.49 449.73 337.99 415.73 316.84 415.73 314.93 426.48 320.05 426.48 313.58 462.82 308.46 462.82 306.53 473.65 330.95 473.65 332.88 462.82 327.43 462.82 331.64 439.15 343.89 473.65 360.09 473.65 368.48 426.48 373.19 426.48 375.11 415.73 350.84 415.73 348.92 426.48"/></defs><clipPath id="SVGID_86_"><use width="100%" height="100%" overflow="visible" xlink:href="#SVGID_85_"/></clipPath><polygon points="375.11 415.73 376.02 473.65 306.53 473.65 305.62 415.73" clip-path="url(#SVGID_86_)" fill="url(#SVGID_48_)"/><path d="m375.11 415.73-1.911 10.749h-4.71l-8.4 47.182h-16.2l-12.244-34.508-4.211 23.674h5.449l-1.924 10.834h-24.426l1.929-10.834h5.12l6.469-36.348h-5.117l1.911-10.749h21.152l12.497 34.002 4.148-23.253h-5.71l1.916-10.749zm2.741-2.292h-28.93l-0.331 1.857-1.915 10.745-0.49 2.729h5.71l-2.182 12.235-9.568-26.036-0.564-1.531h-24.663l-0.331 1.857-1.911 10.745-0.485 2.729h5.12l-5.661 31.765h-5.113l-0.329 1.857-1.936 10.834-0.485 2.726h29.095l0.329-1.857 1.931-10.829 0.486-2.73h-5.453l2.217-12.459 9.34 26.323 0.548 1.553h19.732l0.331-1.857 8.069-45.324h4.71l0.331-1.857 1.911-10.744z" fill="#e6e7e8"/><defs><polygon id="SVGID_88_" points="439.66 426.48 435.52 449.73 423.03 415.73 401.88 415.73 399.96 426.48 405.08 426.48 398.61 462.82 393.49 462.82 391.56 473.65 415.98 473.65 417.92 462.82 412.46 462.82 416.67 439.15 428.92 473.65 445.12 473.65 453.51 426.48 458.22 426.48 460.13 415.73 435.87 415.73 433.96 426.48"/></defs><clipPath id="SVGID_89_"><use width="100%" height="100%" overflow="visible" xlink:href="#SVGID_88_"/></clipPath><polygon points="460.13 415.73 461.04 473.65 391.56 473.65 390.65 415.73" clip-path="url(#SVGID_89_)" fill="url(#SVGID_51_)"/><path d="m460.13 415.73-1.911 10.749h-4.706l-8.4 47.182h-16.2l-12.244-34.508-4.211 23.674h5.453l-1.929 10.834h-24.43l1.929-10.834h5.124l6.471-36.348h-5.12l1.911-10.749h21.154l12.495 34.002 4.144-23.253h-5.706l1.911-10.749zm2.741-2.292h-28.93l-0.331 1.857-1.911 10.745-0.485 2.729h5.701l-2.177 12.23-9.568-26.031-0.563-1.531h-24.664l-0.331 1.857-1.911 10.745-0.486 2.729h5.12l-5.659 31.765h-5.12l-0.329 1.857-1.931 10.834-0.486 2.726h29.091l0.333-1.857 1.936-10.829 0.485-2.73h-5.458l2.218-12.459 9.34 26.323 0.548 1.553h19.734l0.331-1.857 8.069-45.324h4.705l0.331-1.857 1.911-10.744z" fill="#e6e7e8"/><defs><polygon id="SVGID_91_" points="474.22 426.22 467.65 463.08 462.53 463.08 460.64 473.65 509.59 473.65 512.72 456.11 499.27 456.11 498.03 463.08 483.52 463.08 485.83 450.06 507.74 450.06 509.86 438.14 487.96 438.14 490.08 426.22 504.43 426.22 503.25 432.86 516.76 432.86 519.81 415.73 470.96 415.73 469.08 426.22"/></defs><clipPath id="SVGID_92_"><use width="100%" height="100%" overflow="visible" xlink:href="#SVGID_91_"/></clipPath><polygon points="519.81 415.73 520.72 473.65 460.64 473.65 459.73 415.73" clip-path="url(#SVGID_92_)" fill="url(#SVGID_54_)"/><path d="m519.81 415.73-3.043 17.126h-13.515l1.177-6.628h-14.347l-2.117 11.922h21.901l-2.124 11.918h-21.91l-2.313 13.018h14.513l1.242-6.972h13.438l-3.128 17.547h-48.94l1.882-10.575h5.124l6.567-36.857h-5.128l1.875-10.498h48.846zm2.743-2.292h-53.516l-0.329 1.857-1.879 10.499-0.486 2.726h5.129l-5.746 32.274h-5.124l-0.329 1.853-1.884 10.579-0.485 2.726h53.606l0.331-1.857 3.128-17.547 0.492-2.726h-18.112l-0.329 1.854-0.913 5.119h-9.843l1.499-8.436h21.897l0.336-1.857 2.125-11.917 0.488-2.726h-21.91l1.307-7.339h9.682l-0.695 3.902-0.486 2.725h18.19l0.327-1.848 3.043-17.131z" fill="#e6e7e8"/><defs><polygon id="SVGID_94_" points="539.44 436.98 541.33 426.39 547.64 426.39 541.1 463.08 533.53 463.08 531.65 473.65 562.81 473.65 564.69 463.08 557.05 463.08 563.58 426.39 569.88 426.39 568 436.98 580.16 436.98 583.95 415.73 531.14 415.73 527.35 436.98"/></defs><clipPath id="SVGID_95_"><use width="100%" height="100%" overflow="visible" xlink:href="#SVGID_94_"/></clipPath><polygon points="583.95 415.73 584.85 473.65 527.35 473.65 526.44 415.73" clip-path="url(#SVGID_95_)" fill="url(#SVGID_57_)"/><path d="m583.95 415.73-3.782 21.248h-12.172l1.884-10.579h-6.301l-6.529 36.687h7.644l-1.884 10.575h-31.152l1.876-10.575h7.567l6.538-36.687h-6.301l-1.889 10.579h-12.083l3.776-21.248zm2.739-2.292h-57.47l-0.331 1.857-3.777 21.244-0.492 2.729h16.755l0.331-1.857 1.558-8.722h1.629l-5.719 32.104h-7.563l-0.327 1.853-1.879 10.579-0.488 2.726h35.819l0.331-1.857 1.88-10.579 0.487-2.721h-7.643l5.715-32.104h1.639l-1.396 7.85-0.488 2.729h16.838l0.322-1.857 3.785-21.243z" fill="#e6e7e8"/><defs><polygon id="SVGID_97_" points="655.52 426.22 645.24 459.97 643.46 415.73 625.16 415.73 607.72 459.97 609.44 426.22 615.31 426.22 617.19 415.73 593.08 415.73 591.23 426.22 594.92 426.22 594.52 473.65 614.59 473.65 631.56 428.83 632.64 473.65 651.6 473.65 668.12 426.22 671.82 426.22 673.68 415.73 651.6 415.73 649.74 426.22"/></defs><clipPath id="SVGID_98_"><use width="100%" height="100%" overflow="visible" xlink:href="#SVGID_97_"/></clipPath><polygon points="673.68 415.73 674.59 473.65 591.23 473.65 590.32 415.73" clip-path="url(#SVGID_98_)" fill="url(#SVGID_60_)"/><path d="m673.68 415.73-1.866 10.498h-3.691l-16.514 47.433h-18.975l-1.078-44.832-16.966 44.832h-20.063l0.39-47.433h-3.688l1.862-10.498h24.094l-1.871 10.498h-5.88l-1.723 33.743 17.448-44.241h18.295l1.781 44.241 10.292-33.743h-5.795l1.866-10.498zm2.739-2.292h-26.745l-0.331 1.857-1.861 10.499-0.488 2.726h5.428l-5.441 17.842-1.235-30.686-0.09-2.238h-22.071l-0.555 1.424-12.312 31.209 0.899-17.551h5.617l0.336-1.854 1.871-10.498 0.482-2.73h-28.757l-0.331 1.857-1.866 10.499-0.479 2.726h4.117l-0.375 45.082-0.019 2.35h23.97l0.555-1.454 12.808-33.859 0.797 33.045 0.058 2.269h22.846l0.528-1.508 15.985-45.924h3.979l0.326-1.854 1.871-10.498z" fill="#e6e7e8"/><defs><path id="SVGID_100_" d="m691.72 459.14 5.142-28.883 3.37-2.855h11.993l2.354 2.855-5.143 28.883-3.36 2.846h-12.012zm0.68-43.409-10.485 8.9-7.147 40.129 7.317 8.896h31.733l10.562-8.896 7.155-40.129-7.401-8.9z"/></defs><clipPath id="SVGID_101_"><use width="100%" height="100%" overflow="visible" xlink:href="#SVGID_100_"/></clipPath><polygon points="731.53 415.73 732.44 473.65 674.76 473.65 673.86 415.73" clip-path="url(#SVGID_101_)" fill="url(#SVGID_63_)"/><path d="m724.13 415.73 7.396 8.9-7.15 40.129-10.562 8.896h-31.738l-7.313-8.896 7.147-40.129 10.485-8.9zm-30.069 46.264h12.003l3.369-2.854 5.138-28.883-2.345-2.855h-11.998l-3.365 2.855-5.146 28.883 2.344 2.854m31.12-48.556h-33.652l-0.636 0.537-10.485 8.901-0.608 0.515-0.144 0.806-7.143 40.129-0.188 1.042 0.685 0.833 7.304 8.896 0.707 0.851h33.653l0.635-0.523 10.558-8.901 0.621-0.52 0.14-0.806 7.155-40.133 0.188-1.057-0.694-0.823-7.389-8.901zm-24.085 16.254h10.069l0.967 1.173-4.815 27.039-2.118 1.799h-10.078l-0.962-1.173 4.815-27.039z" fill="#e6e7e8"/><defs><path id="SVGID_103_" d="m764.56 426.22h13.936l1.987 2.516-1.656 9.317-2.873 2.434h-13.936zm-19.118-10.498-1.87 10.498h5.119l-6.561 36.857h-5.119l-1.88 10.57h26.604l1.885-10.57h-5.612l2.112-11.926h13.936l2.01 2.43-2.681 15.036 4.135 5.03h14.356l1.889-10.57h-3.446l2.171-12.181-4.771-5.791 6.829-5.787 2.761-15.452-6.784-8.145h-45.083z"/></defs><clipPath id="SVGID_104_"><use width="100%" height="100%" overflow="visible" xlink:href="#SVGID_103_"/></clipPath><polygon points="797.31 415.73 798.22 473.65 735.14 473.65 734.22 415.73" clip-path="url(#SVGID_104_)" fill="url(#SVGID_66_)"/><path d="m790.53 415.73 6.784 8.145-2.757 15.448-6.833 5.791 4.771 5.791-2.171 12.181h3.441l-1.884 10.575h-14.356l-4.14-5.035 2.681-15.036-2.005-2.43h-13.936l-2.121 11.926h5.621l-1.885 10.575h-26.604l1.88-10.575h5.128l6.557-36.857h-5.124l1.875-10.498h45.078zm-28.507 24.77h13.936l2.864-2.43 1.665-9.326-1.987-2.516h-13.936l-2.542 14.272m29.554-27.062h-48.054l-0.327 1.857-1.875 10.499-0.483 2.726h5.12l-5.746 32.274h-5.12l-0.331 1.853-1.88 10.579-0.482 2.726h31.267l0.331-1.857 1.884-10.579 0.492-2.721h-5.62l1.298-7.344h10.955l0.617 0.752-2.492 13.984-0.184 1.048 0.68 0.828 4.136 5.034 0.702 0.854h17.342l0.331-1.857 1.879-10.579 0.492-2.721h-3.441l1.683-9.451 0.188-1.048-0.685-0.827-3.325-4.042 5.124-4.345 0.613-0.523 0.147-0.797 2.752-15.448 0.188-1.057-0.694-0.832-6.779-8.141zm-25.087 15.082h10.924l0.64 0.805-1.343 7.505-1.624 1.379h-10.32z" fill="#e6e7e8"/><defs><polygon id="SVGID_106_" points="843.97 426.22 828.91 443.85 832.05 426.22 836.5 426.22 838.37 415.73 812.94 415.73 811.07 426.22 816.18 426.22 809.62 463.08 804.51 463.08 802.62 473.65 828.06 473.65 829.94 463.08 825.49 463.08 826.27 458.72 836.57 447.96 839.76 463.08 833.47 463.08 831.58 473.65 858.86 473.65 860.74 463.08 855.63 463.08 849 438.48 860.6 426.22 866.22 426.22 868.09 415.73 841.4 415.73 839.52 426.22"/></defs><clipPath id="SVGID_107_"><use width="100%" height="100%" overflow="visible" xlink:href="#SVGID_106_"/></clipPath><polygon points="868.09 415.73 869 473.65 802.62 473.65 801.72 415.73" clip-path="url(#SVGID_107_)" fill="url(#SVGID_69_)"/><path d="m868.09 415.73-1.87 10.498h-5.63l-11.582 12.253 6.619 24.604h5.119l-1.889 10.575h-27.285l1.894-10.575h6.292l-3.191-15.117-10.302 10.741-0.778 4.376h4.448l-1.88 10.575h-25.428l1.88-10.575h5.11l6.57-36.857h-5.115l1.865-10.498h25.429l-1.866 10.498h-4.453l-3.137 17.628 15.059-17.628h-4.443l1.865-10.498zm2.739-2.292h-59.815l-0.331 1.857-1.866 10.499-0.488 2.726h5.111l-5.746 32.274h-5.112l-0.331 1.853-1.888 10.579-0.483 2.726h60.898l0.336-1.857 1.884-10.574 0.488-2.726h-6.109l-5.826-21.646 10.051-10.628h6.543l0.331-1.854 1.866-10.498zm-34.048 15.082h2.197l-6.318 7.393 1.312-7.393h2.56zm-8.377 31.299 6.829-7.12 1.705 8.096h-8.704z" fill="#e6e7e8"/><defs><path id="SVGID_109_" d="m28.017 449.57h14.361l1.591 1.924-1.604 8.986-2.37 2.014h-14.278zm4.054-22.752h14.106l1.723 2.095-1.412 7.885-2.273 1.934h-14.265zm-19.017-11.089-1.866 10.498h5.115l-6.563 36.858h-5.113l-1.884 10.57h45.17l9.485-8.055 2.636-14.777-5.509-6.802 7.8-6.548 2.439-13.681-6.632-8.063z"/></defs><clipPath id="SVGID_110_"><use width="100%" height="100%" overflow="visible" xlink:href="#SVGID_109_"/></clipPath><polygon points="64.765 415.73 65.673 473.65 2.743 473.65 1.833 415.73" clip-path="url(#SVGID_110_)" fill="url(#SVGID_33_)"/><path d="m58.135 415.73 6.632 8.06-2.444 13.681-7.798 6.556 5.507 6.798-2.629 14.781-9.492 8.056h-45.17l1.889-10.575h5.113l6.563-36.857h-5.113l1.864-10.498h45.078zm-28.187 23.002h14.271l2.271-1.929 1.412-7.89-1.728-2.095h-14.105l-2.121 11.914m-4.229 23.763h14.273l2.365-2.018 1.609-8.982-1.591-1.929h-14.356l-2.3 12.929m33.474-49.057h-48.061l-0.329 1.854-1.866 10.498-0.485 2.73h5.109l-5.746 32.274h-5.114l-0.332 1.853-1.884 10.579-0.485 2.726h48.777l0.633-0.532 9.49-8.06 0.615-0.523 0.141-0.797 2.636-14.777 0.184-1.038-0.669-0.823-4.083-5.048 6.09-5.115 0.627-0.523 0.143-0.802 2.437-13.685 0.184-1.043-0.678-0.832-6.63-8.06zm-25.195 15.672h11.123l0.34 0.408-1.087 6.045-1.027 0.878h-10.654zm-4.055 22.748h11.374l0.206 0.246-1.273 7.143-1.128 0.957h-10.664z" fill="#e6e7e8"/><defs><polygon id="SVGID_112_" points="82.041 426.22 75.474 463.08 69.681 463.08 67.792 473.65 95.247 473.65 97.131 463.08 91.338 463.08 97.901 426.22 103.69 426.22 105.56 415.73 78.112 415.73 76.244 426.22"/></defs><clipPath id="SVGID_113_"><use width="100%" height="100%" overflow="visible" xlink:href="#SVGID_112_"/></clipPath><polygon points="105.56 415.73 106.47 473.65 67.792 473.65 66.884 415.73" clip-path="url(#SVGID_113_)" fill="url(#SVGID_36_)"/><path d="m105.56 415.73-1.868 10.498h-5.793l-6.563 36.857h5.798l-1.884 10.575h-27.454l1.886-10.575h5.789l6.567-36.857h-5.798l1.871-10.498zm2.746-2.292h-32.118l-0.331 1.857-1.869 10.499-0.492 2.726h5.798l-5.746 32.274h-5.788l-0.329 1.853-1.893 10.579-0.485 2.726h32.122l0.331-1.857 1.884-10.579 0.485-2.721h-5.793l5.746-32.274h5.789l0.329-1.854 1.875-10.498z" fill="#e6e7e8"/><defs><polygon id="SVGID_115_" points="109.17 464.76 116.48 473.65 148.98 473.65 158.86 465.26 163.18 440.99 135.48 440.99 133.42 452.58 145.17 452.58 143.72 460.73 141.64 462.49 128.38 462.49 126.01 459.72 131.26 430.25 134.62 427.4 147.89 427.4 149.32 429.25 148.44 434.2 164.39 434.2 166.19 424.12 159.29 415.73 126.8 415.73 116.31 424.63"/></defs><clipPath id="SVGID_116_"><use width="100%" height="100%" overflow="visible" xlink:href="#SVGID_115_"/></clipPath><polygon points="166.19 415.73 167.09 473.65 109.17 473.65 108.26 415.73" clip-path="url(#SVGID_116_)" fill="url(#SVGID_39_)"/><path d="m159.29 415.73 6.896 8.396-1.792 10.077h-15.957l0.884-4.954-1.434-1.848h-13.26l-3.37 2.855-5.243 29.469 2.356 2.77h13.267l2.081-1.763 1.448-8.145h-11.75l2.061-11.582h27.704l-4.318 24.26-9.888 8.396h-32.496l-7.308-8.901 7.145-40.129 10.485-8.9h32.489zm1.059-2.292h-34.421l-0.626 0.537-10.49 8.901-0.609 0.515-0.143 0.806-7.145 40.129-0.188 1.042 0.683 0.833 7.31 8.896 0.7 0.854h34.425l0.626-0.537 9.89-8.396 0.615-0.523 0.141-0.796 4.316-24.26 0.485-2.726h-32.367l-0.329 1.853-2.068 11.582-0.485 2.729h11.754l-0.819 4.618-0.835 0.707h-11.36l-0.949-1.109 4.912-27.604 2.119-1.799h11.3l0.092 0.125-0.7 3.952-0.488 2.726h20.622l0.331-1.854 1.792-10.077 0.188-1.048-0.685-0.828-6.896-8.395z" fill="#e6e7e8"/><defs><polygon id="SVGID_118_" points="201.33 436.98 203.21 426.39 209.51 426.39 202.98 463.08 195.43 463.08 193.54 473.65 224.69 473.65 226.57 463.08 218.92 463.08 225.46 426.39 231.76 426.39 229.87 436.98 242.05 436.98 245.82 415.73 193.02 415.73 189.24 436.98"/></defs><clipPath id="SVGID_119_"><use width="100%" height="100%" overflow="visible" xlink:href="#SVGID_118_"/></clipPath><polygon points="245.82 415.73 246.74 473.65 189.24 473.65 188.34 415.73" clip-path="url(#SVGID_119_)" fill="url(#SVGID_42_)"/><path d="m245.83 415.73-3.779 21.248h-12.177l1.889-10.579h-6.296l-6.534 36.687h7.639l-1.884 10.575h-31.143l1.882-10.575h7.556l6.532-36.687h-6.297l-1.884 10.579h-12.083l3.775-21.248zm2.741-2.292h-57.47l-0.329 1.857-3.781 21.244-0.481 2.729h16.753l0.331-1.862 1.548-8.717h1.627l-5.715 32.104h-7.551l-0.329 1.853-1.884 10.579-0.485 2.726h35.809l0.329-1.857 1.884-10.579 0.486-2.721h-7.634l5.715-32.104h1.626l-1.396 7.85-0.492 2.729h16.851l0.324-1.857 3.782-21.243z" fill="#e6e7e8"/><defs><polygon id="SVGID_121_" points="259.91 426.22 253.35 463.08 248.23 463.08 246.35 473.65 295.28 473.65 298.41 456.11 284.97 456.11 283.73 463.08 269.21 463.08 271.52 450.06 293.44 450.06 295.56 438.14 273.66 438.14 275.78 426.22 290.13 426.22 288.95 432.86 302.46 432.86 305.51 415.73 256.66 415.73 254.79 426.22"/></defs><clipPath id="SVGID_122_"><use width="100%" height="100%" overflow="visible" xlink:href="#SVGID_121_"/></clipPath><polygon points="305.51 415.73 306.42 473.65 246.35 473.65 245.44 415.73" clip-path="url(#SVGID_122_)" fill="url(#SVGID_45_)"/><path d="m305.51 415.73-3.052 17.126h-13.508l1.182-6.628h-14.356l-2.121 11.922h21.908l-2.121 11.918h-21.915l-2.314 13.018h14.522l1.242-6.972h13.432l-3.13 17.547h-48.934l1.884-10.575h5.119l6.559-36.857h-5.115l1.864-10.498h48.854zm2.746-2.292h-53.525l-0.329 1.857-1.866 10.499-0.485 2.726h5.115l-5.741 32.274h-5.125l-0.325 1.853-1.884 10.579-0.49 2.726h53.606l0.331-1.857 3.124-17.547 0.488-2.726h-18.098l-0.329 1.854-0.913 5.119h-9.856l1.497-8.436h21.915l0.329-1.857 2.128-11.917 0.481-2.726h-21.911l1.312-7.339h9.682l-0.691 3.902-0.485 2.725h18.178l0.331-1.848 3.052-17.131z" fill="#e6e7e8"/><defs><polygon id="SVGID_124_" points="354.64 426.48 350.49 449.73 337.99 415.73 316.84 415.73 314.93 426.48 320.05 426.48 313.58 462.82 308.46 462.82 306.53 473.65 330.95 473.65 332.88 462.82 327.43 462.82 331.64 439.15 343.89 473.65 360.09 473.65 368.48 426.48 373.19 426.48 375.11 415.73 350.84 415.73 348.92 426.48"/></defs><clipPath id="SVGID_125_"><use width="100%" height="100%" overflow="visible" xlink:href="#SVGID_124_"/></clipPath><polygon points="375.11 415.73 376.02 473.65 306.53 473.65 305.62 415.73" clip-path="url(#SVGID_125_)" fill="url(#SVGID_48_)"/><path d="m375.11 415.73-1.911 10.749h-4.71l-8.4 47.182h-16.2l-12.244-34.508-4.211 23.674h5.449l-1.924 10.834h-24.426l1.929-10.834h5.12l6.469-36.348h-5.117l1.911-10.749h21.152l12.497 34.002 4.148-23.253h-5.71l1.916-10.749zm2.741-2.292h-28.93l-0.331 1.857-1.915 10.745-0.49 2.729h5.71l-2.182 12.235-9.568-26.036-0.564-1.531h-24.663l-0.331 1.857-1.911 10.745-0.485 2.729h5.12l-5.661 31.765h-5.113l-0.329 1.857-1.936 10.834-0.485 2.726h29.095l0.329-1.857 1.931-10.829 0.486-2.73h-5.453l2.217-12.459 9.34 26.323 0.548 1.553h19.732l0.331-1.857 8.069-45.324h4.71l0.331-1.857 1.911-10.744z" fill="#e6e7e8"/><defs><polygon id="SVGID_127_" points="439.66 426.48 435.52 449.73 423.03 415.73 401.88 415.73 399.96 426.48 405.08 426.48 398.61 462.82 393.49 462.82 391.56 473.65 415.98 473.65 417.92 462.82 412.46 462.82 416.67 439.15 428.92 473.65 445.12 473.65 453.51 426.48 458.22 426.48 460.13 415.73 435.87 415.73 433.96 426.48"/></defs><clipPath id="SVGID_128_"><use width="100%" height="100%" overflow="visible" xlink:href="#SVGID_127_"/></clipPath><polygon points="460.13 415.73 461.04 473.65 391.56 473.65 390.65 415.73" clip-path="url(#SVGID_128_)" fill="url(#SVGID_51_)"/><path d="m460.13 415.73-1.911 10.749h-4.706l-8.4 47.182h-16.2l-12.244-34.508-4.211 23.674h5.453l-1.929 10.834h-24.43l1.929-10.834h5.124l6.471-36.348h-5.12l1.911-10.749h21.154l12.495 34.002 4.144-23.253h-5.706l1.911-10.749zm2.741-2.292h-28.93l-0.331 1.857-1.911 10.745-0.485 2.729h5.701l-2.177 12.23-9.568-26.031-0.563-1.531h-24.664l-0.331 1.857-1.911 10.745-0.486 2.729h5.12l-5.659 31.765h-5.12l-0.329 1.857-1.931 10.834-0.486 2.726h29.091l0.333-1.857 1.936-10.829 0.485-2.73h-5.458l2.218-12.459 9.34 26.323 0.548 1.553h19.734l0.331-1.857 8.069-45.324h4.705l0.331-1.857 1.911-10.744z" fill="#e6e7e8"/><defs><polygon id="SVGID_130_" points="474.22 426.22 467.65 463.08 462.53 463.08 460.64 473.65 509.59 473.65 512.72 456.11 499.27 456.11 498.03 463.08 483.52 463.08 485.83 450.06 507.74 450.06 509.86 438.14 487.96 438.14 490.08 426.22 504.43 426.22 503.25 432.86 516.76 432.86 519.81 415.73 470.96 415.73 469.08 426.22"/></defs><clipPath id="SVGID_131_"><use width="100%" height="100%" overflow="visible" xlink:href="#SVGID_130_"/></clipPath><polygon points="519.81 415.73 520.72 473.65 460.64 473.65 459.73 415.73" clip-path="url(#SVGID_131_)" fill="url(#SVGID_54_)"/><path d="m519.81 415.73-3.043 17.126h-13.515l1.177-6.628h-14.347l-2.117 11.922h21.901l-2.124 11.918h-21.91l-2.313 13.018h14.513l1.242-6.972h13.438l-3.128 17.547h-48.94l1.882-10.575h5.124l6.567-36.857h-5.128l1.875-10.498h48.846zm2.743-2.292h-53.516l-0.329 1.857-1.879 10.499-0.486 2.726h5.129l-5.746 32.274h-5.124l-0.329 1.853-1.884 10.579-0.485 2.726h53.606l0.331-1.857 3.128-17.547 0.492-2.726h-18.112l-0.329 1.854-0.913 5.119h-9.843l1.499-8.436h21.897l0.336-1.857 2.125-11.917 0.488-2.726h-21.91l1.307-7.339h9.682l-0.695 3.902-0.486 2.725h18.19l0.327-1.848 3.043-17.131z" fill="#e6e7e8"/><defs><polygon id="SVGID_133_" points="539.44 436.98 541.33 426.39 547.64 426.39 541.1 463.08 533.53 463.08 531.65 473.65 562.81 473.65 564.69 463.08 557.05 463.08 563.58 426.39 569.88 426.39 568 436.98 580.16 436.98 583.95 415.73 531.14 415.73 527.35 436.98"/></defs><clipPath id="SVGID_134_"><use width="100%" height="100%" overflow="visible" xlink:href="#SVGID_133_"/></clipPath><polygon points="583.95 415.73 584.85 473.65 527.35 473.65 526.44 415.73" clip-path="url(#SVGID_134_)" fill="url(#SVGID_57_)"/><path d="m583.95 415.73-3.782 21.248h-12.172l1.884-10.579h-6.301l-6.529 36.687h7.644l-1.884 10.575h-31.152l1.876-10.575h7.567l6.538-36.687h-6.301l-1.889 10.579h-12.083l3.776-21.248zm2.739-2.292h-57.47l-0.331 1.857-3.777 21.244-0.492 2.729h16.755l0.331-1.857 1.558-8.722h1.629l-5.719 32.104h-7.563l-0.327 1.853-1.879 10.579-0.488 2.726h35.819l0.331-1.857 1.88-10.579 0.487-2.721h-7.643l5.715-32.104h1.639l-1.396 7.85-0.488 2.729h16.838l0.322-1.857 3.785-21.243z" fill="#e6e7e8"/><defs><polygon id="SVGID_136_" points="655.52 426.22 645.24 459.97 643.46 415.73 625.16 415.73 607.72 459.97 609.44 426.22 615.31 426.22 617.19 415.73 593.08 415.73 591.23 426.22 594.92 426.22 594.52 473.65 614.59 473.65 631.56 428.83 632.64 473.65 651.6 473.65 668.12 426.22 671.82 426.22 673.68 415.73 651.6 415.73 649.74 426.22"/></defs><clipPath id="SVGID_137_"><use width="100%" height="100%" overflow="visible" xlink:href="#SVGID_136_"/></clipPath><polygon points="673.68 415.73 674.59 473.65 591.23 473.65 590.32 415.73" clip-path="url(#SVGID_137_)" fill="url(#SVGID_60_)"/><path d="m673.68 415.73-1.866 10.498h-3.691l-16.514 47.433h-18.975l-1.078-44.832-16.966 44.832h-20.063l0.39-47.433h-3.688l1.862-10.498h24.094l-1.871 10.498h-5.88l-1.723 33.743 17.448-44.241h18.295l1.781 44.241 10.292-33.743h-5.795l1.866-10.498zm2.739-2.292h-26.745l-0.331 1.857-1.861 10.499-0.488 2.726h5.428l-5.441 17.842-1.235-30.686-0.09-2.238h-22.071l-0.555 1.424-12.312 31.209 0.899-17.551h5.617l0.336-1.854 1.871-10.498 0.482-2.73h-28.757l-0.331 1.857-1.866 10.499-0.479 2.726h4.117l-0.375 45.082-0.019 2.35h23.97l0.555-1.454 12.808-33.859 0.797 33.045 0.058 2.269h22.846l0.528-1.508 15.985-45.924h3.979l0.326-1.854 1.871-10.498z" fill="#e6e7e8"/><defs><path id="SVGID_139_" d="m691.72 459.14 5.142-28.883 3.37-2.855h11.993l2.354 2.855-5.143 28.883-3.36 2.846h-12.012zm0.68-43.409-10.485 8.9-7.147 40.129 7.317 8.896h31.733l10.562-8.896 7.155-40.129-7.401-8.9z"/></defs><clipPath id="SVGID_140_"><use width="100%" height="100%" overflow="visible" xlink:href="#SVGID_139_"/></clipPath><polygon points="731.53 415.73 732.44 473.65 674.76 473.65 673.86 415.73" clip-path="url(#SVGID_140_)" fill="url(#SVGID_63_)"/><path d="m724.13 415.73 7.396 8.9-7.15 40.129-10.562 8.896h-31.738l-7.313-8.896 7.147-40.129 10.485-8.9zm-30.069 46.264h12.003l3.369-2.854 5.138-28.883-2.345-2.855h-11.998l-3.365 2.855-5.146 28.883 2.344 2.854m31.12-48.556h-33.652l-0.636 0.537-10.485 8.901-0.608 0.515-0.144 0.806-7.143 40.129-0.188 1.042 0.685 0.833 7.304 8.896 0.707 0.851h33.653l0.635-0.523 10.558-8.901 0.621-0.52 0.14-0.806 7.155-40.133 0.188-1.057-0.694-0.823-7.389-8.901zm-24.085 16.254h10.069l0.967 1.173-4.815 27.039-2.118 1.799h-10.078l-0.962-1.173 4.815-27.039z" fill="#e6e7e8"/><defs><path id="SVGID_142_" d="m764.56 426.22h13.936l1.987 2.516-1.656 9.317-2.873 2.434h-13.936zm-19.118-10.498-1.87 10.498h5.119l-6.561 36.857h-5.119l-1.88 10.57h26.604l1.885-10.57h-5.612l2.112-11.926h13.936l2.01 2.43-2.681 15.036 4.135 5.03h14.356l1.889-10.57h-3.446l2.171-12.181-4.771-5.791 6.829-5.787 2.761-15.452-6.784-8.145h-45.083z"/></defs><clipPath id="SVGID_143_"><use width="100%" height="100%" overflow="visible" xlink:href="#SVGID_142_"/></clipPath><polygon points="797.31 415.73 798.22 473.65 735.14 473.65 734.22 415.73" clip-path="url(#SVGID_143_)" fill="url(#SVGID_66_)"/><path d="m790.53 415.73 6.784 8.145-2.757 15.448-6.833 5.791 4.771 5.791-2.171 12.181h3.441l-1.884 10.575h-14.356l-4.14-5.035 2.681-15.036-2.005-2.43h-13.936l-2.121 11.926h5.621l-1.885 10.575h-26.604l1.88-10.575h5.128l6.557-36.857h-5.124l1.875-10.498h45.078zm-28.507 24.77h13.936l2.864-2.43 1.665-9.326-1.987-2.516h-13.936l-2.542 14.272m29.554-27.062h-48.054l-0.327 1.857-1.875 10.499-0.483 2.726h5.12l-5.746 32.274h-5.12l-0.331 1.853-1.88 10.579-0.482 2.726h31.267l0.331-1.857 1.884-10.579 0.492-2.721h-5.62l1.298-7.344h10.955l0.617 0.752-2.492 13.984-0.184 1.048 0.68 0.828 4.136 5.034 0.702 0.854h17.342l0.331-1.857 1.879-10.579 0.492-2.721h-3.441l1.683-9.451 0.188-1.048-0.685-0.827-3.325-4.042 5.124-4.345 0.613-0.523 0.147-0.797 2.752-15.448 0.188-1.057-0.694-0.832-6.779-8.141zm-25.087 15.082h10.924l0.64 0.805-1.343 7.505-1.624 1.379h-10.32z" fill="#e6e7e8"/><defs><polygon id="SVGID_145_" points="843.97 426.22 828.91 443.85 832.05 426.22 836.5 426.22 838.37 415.73 812.94 415.73 811.07 426.22 816.18 426.22 809.62 463.08 804.51 463.08 802.62 473.65 828.06 473.65 829.94 463.08 825.49 463.08 826.27 458.72 836.57 447.96 839.76 463.08 833.47 463.08 831.58 473.65 858.86 473.65 860.74 463.08 855.63 463.08 849 438.48 860.6 426.22 866.22 426.22 868.09 415.73 841.4 415.73 839.52 426.22"/></defs><clipPath id="SVGID_146_"><use width="100%" height="100%" overflow="visible" xlink:href="#SVGID_145_"/></clipPath><polygon points="868.09 415.73 869 473.65 802.62 473.65 801.72 415.73" clip-path="url(#SVGID_146_)" fill="url(#SVGID_69_)"/><path d="m868.09 415.73-1.87 10.498h-5.63l-11.582 12.253 6.619 24.604h5.119l-1.889 10.575h-27.285l1.894-10.575h6.292l-3.191-15.117-10.302 10.741-0.778 4.376h4.448l-1.88 10.575h-25.428l1.88-10.575h5.11l6.57-36.857h-5.115l1.865-10.498h25.429l-1.866 10.498h-4.453l-3.137 17.628 15.059-17.628h-4.443l1.865-10.498zm2.739-2.292h-59.815l-0.331 1.857-1.866 10.499-0.488 2.726h5.111l-5.746 32.274h-5.112l-0.331 1.853-1.888 10.579-0.483 2.726h60.898l0.336-1.857 1.884-10.574 0.488-2.726h-6.109l-5.826-21.646 10.051-10.628h6.543l0.331-1.854 1.866-10.498zm-34.048 15.082h2.197l-6.318 7.393 1.312-7.393h2.56zm-8.377 31.299 6.829-7.12 1.705 8.096h-8.704z" fill="#e6e7e8"/><defs><path id="SVGID_148_" d="m28.017 449.57h14.361l1.591 1.924-1.604 8.986-2.37 2.014h-14.278zm4.054-22.752h14.106l1.723 2.095-1.412 7.885-2.273 1.934h-14.265zm-19.017-11.089-1.866 10.498h5.115l-6.563 36.858h-5.113l-1.884 10.57h45.17l9.485-8.055 2.636-14.777-5.509-6.802 7.8-6.548 2.439-13.681-6.632-8.063z"/></defs><clipPath id="SVGID_149_"><use width="100%" height="100%" overflow="visible" xlink:href="#SVGID_148_"/></clipPath><polygon points="64.765 415.73 65.673 473.65 2.743 473.65 1.833 415.73" clip-path="url(#SVGID_149_)" fill="url(#SVGID_33_)"/><path d="m58.135 415.73 6.632 8.06-2.444 13.681-7.798 6.556 5.507 6.798-2.629 14.781-9.492 8.056h-45.17l1.889-10.575h5.113l6.563-36.857h-5.113l1.864-10.498h45.078zm-28.187 23.002h14.271l2.271-1.929 1.412-7.89-1.728-2.095h-14.105l-2.121 11.914m-4.229 23.763h14.273l2.365-2.018 1.609-8.982-1.591-1.929h-14.356l-2.3 12.929m33.474-49.057h-48.061l-0.329 1.854-1.866 10.498-0.485 2.73h5.109l-5.746 32.274h-5.114l-0.332 1.853-1.884 10.579-0.485 2.726h48.777l0.633-0.532 9.49-8.06 0.615-0.523 0.141-0.797 2.636-14.777 0.184-1.038-0.669-0.823-4.083-5.048 6.09-5.115 0.627-0.523 0.143-0.802 2.437-13.685 0.184-1.043-0.678-0.832-6.63-8.06zm-25.195 15.672h11.123l0.34 0.408-1.087 6.045-1.027 0.878h-10.654zm-4.055 22.748h11.374l0.206 0.246-1.273 7.143-1.128 0.957h-10.664z" fill="#e6e7e8"/><defs><polygon id="SVGID_151_" points="82.041 426.22 75.474 463.08 69.681 463.08 67.792 473.65 95.247 473.65 97.131 463.08 91.338 463.08 97.901 426.22 103.69 426.22 105.56 415.73 78.112 415.73 76.244 426.22"/></defs><clipPath id="SVGID_152_"><use width="100%" height="100%" overflow="visible" xlink:href="#SVGID_151_"/></clipPath><polygon points="105.56 415.73 106.47 473.65 67.792 473.65 66.884 415.73" clip-path="url(#SVGID_152_)" fill="url(#SVGID_36_)"/><path d="m105.56 415.73-1.868 10.498h-5.793l-6.563 36.857h5.798l-1.884 10.575h-27.454l1.886-10.575h5.789l6.567-36.857h-5.798l1.871-10.498zm2.746-2.292h-32.118l-0.331 1.857-1.869 10.499-0.492 2.726h5.798l-5.746 32.274h-5.788l-0.329 1.853-1.893 10.579-0.485 2.726h32.122l0.331-1.857 1.884-10.579 0.485-2.721h-5.793l5.746-32.274h5.789l0.329-1.854 1.875-10.498z" fill="#e6e7e8"/><defs><polygon id="SVGID_154_" points="109.17 464.76 116.48 473.65 148.98 473.65 158.86 465.26 163.18 440.99 135.48 440.99 133.42 452.58 145.17 452.58 143.72 460.73 141.64 462.49 128.38 462.49 126.01 459.72 131.26 430.25 134.62 427.4 147.89 427.4 149.32 429.25 148.44 434.2 164.39 434.2 166.19 424.12 159.29 415.73 126.8 415.73 116.31 424.63"/></defs><clipPath id="SVGID_155_"><use width="100%" height="100%" overflow="visible" xlink:href="#SVGID_154_"/></clipPath><polygon points="166.19 415.73 167.09 473.65 109.17 473.65 108.26 415.73" clip-path="url(#SVGID_155_)" fill="url(#SVGID_39_)"/><path d="m159.29 415.73 6.896 8.396-1.792 10.077h-15.957l0.884-4.954-1.434-1.848h-13.26l-3.37 2.855-5.243 29.469 2.356 2.77h13.267l2.081-1.763 1.448-8.145h-11.75l2.061-11.582h27.704l-4.318 24.26-9.888 8.396h-32.496l-7.308-8.901 7.145-40.129 10.485-8.9h32.489zm1.059-2.292h-34.421l-0.626 0.537-10.49 8.901-0.609 0.515-0.143 0.806-7.145 40.129-0.188 1.042 0.683 0.833 7.31 8.896 0.7 0.854h34.425l0.626-0.537 9.89-8.396 0.615-0.523 0.141-0.796 4.316-24.26 0.485-2.726h-32.367l-0.329 1.853-2.068 11.582-0.485 2.729h11.754l-0.819 4.618-0.835 0.707h-11.36l-0.949-1.109 4.912-27.604 2.119-1.799h11.3l0.092 0.125-0.7 3.952-0.488 2.726h20.622l0.331-1.854 1.792-10.077 0.188-1.048-0.685-0.828-6.896-8.395z" fill="#e6e7e8"/><defs><polygon id="SVGID_157_" points="201.33 436.98 203.21 426.39 209.51 426.39 202.98 463.08 195.43 463.08 193.54 473.65 224.69 473.65 226.57 463.08 218.92 463.08 225.46 426.39 231.76 426.39 229.87 436.98 242.05 436.98 245.82 415.73 193.02 415.73 189.24 436.98"/></defs><clipPath id="SVGID_158_"><use width="100%" height="100%" overflow="visible" xlink:href="#SVGID_157_"/></clipPath><polygon points="245.82 415.73 246.74 473.65 189.24 473.65 188.34 415.73" clip-path="url(#SVGID_158_)" fill="url(#SVGID_42_)"/><path d="m245.83 415.73-3.779 21.248h-12.177l1.889-10.579h-6.296l-6.534 36.687h7.639l-1.884 10.575h-31.143l1.882-10.575h7.556l6.532-36.687h-6.297l-1.884 10.579h-12.083l3.775-21.248zm2.741-2.292h-57.47l-0.329 1.857-3.781 21.244-0.481 2.729h16.753l0.331-1.862 1.548-8.717h1.627l-5.715 32.104h-7.551l-0.329 1.853-1.884 10.579-0.485 2.726h35.809l0.329-1.857 1.884-10.579 0.486-2.721h-7.634l5.715-32.104h1.626l-1.396 7.85-0.492 2.729h16.851l0.324-1.857 3.782-21.243z" fill="#e6e7e8"/><defs><polygon id="SVGID_160_" points="259.91 426.22 253.35 463.08 248.23 463.08 246.35 473.65 295.28 473.65 298.41 456.11 284.97 456.11 283.73 463.08 269.21 463.08 271.52 450.06 293.44 450.06 295.56 438.14 273.66 438.14 275.78 426.22 290.13 426.22 288.95 432.86 302.46 432.86 305.51 415.73 256.66 415.73 254.79 426.22"/></defs><clipPath id="SVGID_161_"><use width="100%" height="100%" overflow="visible" xlink:href="#SVGID_160_"/></clipPath><polygon points="305.51 415.73 306.42 473.65 246.35 473.65 245.44 415.73" clip-path="url(#SVGID_161_)" fill="url(#SVGID_45_)"/><path d="m305.51 415.73-3.052 17.126h-13.508l1.182-6.628h-14.356l-2.121 11.922h21.908l-2.121 11.918h-21.915l-2.314 13.018h14.522l1.242-6.972h13.432l-3.13 17.547h-48.934l1.884-10.575h5.119l6.559-36.857h-5.115l1.864-10.498h48.854zm2.746-2.292h-53.525l-0.329 1.857-1.866 10.499-0.485 2.726h5.115l-5.741 32.274h-5.125l-0.325 1.853-1.884 10.579-0.49 2.726h53.606l0.331-1.857 3.124-17.547 0.488-2.726h-18.098l-0.329 1.854-0.913 5.119h-9.856l1.497-8.436h21.915l0.329-1.857 2.128-11.917 0.481-2.726h-21.911l1.312-7.339h9.682l-0.691 3.902-0.485 2.725h18.178l0.331-1.848 3.052-17.131z" fill="#e6e7e8"/><defs><polygon id="SVGID_163_" points="354.64 426.48 350.49 449.73 337.99 415.73 316.84 415.73 314.93 426.48 320.05 426.48 313.58 462.82 308.46 462.82 306.53 473.65 330.95 473.65 332.88 462.82 327.43 462.82 331.64 439.15 343.89 473.65 360.09 473.65 368.48 426.48 373.19 426.48 375.11 415.73 350.84 415.73 348.92 426.48"/></defs><clipPath id="SVGID_164_"><use width="100%" height="100%" overflow="visible" xlink:href="#SVGID_163_"/></clipPath><polygon points="375.11 415.73 376.02 473.65 306.53 473.65 305.62 415.73" clip-path="url(#SVGID_164_)" fill="url(#SVGID_48_)"/><path d="m375.11 415.73-1.911 10.749h-4.71l-8.4 47.182h-16.2l-12.244-34.508-4.211 23.674h5.449l-1.924 10.834h-24.426l1.929-10.834h5.12l6.469-36.348h-5.117l1.911-10.749h21.152l12.497 34.002 4.148-23.253h-5.71l1.916-10.749zm2.741-2.292h-28.93l-0.331 1.857-1.915 10.745-0.49 2.729h5.71l-2.182 12.235-9.568-26.036-0.564-1.531h-24.663l-0.331 1.857-1.911 10.745-0.485 2.729h5.12l-5.661 31.765h-5.113l-0.329 1.857-1.936 10.834-0.485 2.726h29.095l0.329-1.857 1.931-10.829 0.486-2.73h-5.453l2.217-12.459 9.34 26.323 0.548 1.553h19.732l0.331-1.857 8.069-45.324h4.71l0.331-1.857 1.911-10.744z" fill="#e6e7e8"/><defs><polygon id="SVGID_166_" points="439.66 426.48 435.52 449.73 423.03 415.73 401.88 415.73 399.96 426.48 405.08 426.48 398.61 462.82 393.49 462.82 391.56 473.65 415.98 473.65 417.92 462.82 412.46 462.82 416.67 439.15 428.92 473.65 445.12 473.65 453.51 426.48 458.22 426.48 460.13 415.73 435.87 415.73 433.96 426.48"/></defs><clipPath id="SVGID_167_"><use width="100%" height="100%" overflow="visible" xlink:href="#SVGID_166_"/></clipPath><polygon points="460.13 415.73 461.04 473.65 391.56 473.65 390.65 415.73" clip-path="url(#SVGID_167_)" fill="url(#SVGID_51_)"/><path d="m460.13 415.73-1.911 10.749h-4.706l-8.4 47.182h-16.2l-12.244-34.508-4.211 23.674h5.453l-1.929 10.834h-24.43l1.929-10.834h5.124l6.471-36.348h-5.12l1.911-10.749h21.154l12.495 34.002 4.144-23.253h-5.706l1.911-10.749zm2.741-2.292h-28.93l-0.331 1.857-1.911 10.745-0.485 2.729h5.701l-2.177 12.23-9.568-26.031-0.563-1.531h-24.664l-0.331 1.857-1.911 10.745-0.486 2.729h5.12l-5.659 31.765h-5.12l-0.329 1.857-1.931 10.834-0.486 2.726h29.091l0.333-1.857 1.936-10.829 0.485-2.73h-5.458l2.218-12.459 9.34 26.323 0.548 1.553h19.734l0.331-1.857 8.069-45.324h4.705l0.331-1.857 1.911-10.744z" fill="#e6e7e8"/><defs><polygon id="SVGID_169_" points="474.22 426.22 467.65 463.08 462.53 463.08 460.64 473.65 509.59 473.65 512.72 456.11 499.27 456.11 498.03 463.08 483.52 463.08 485.83 450.06 507.74 450.06 509.86 438.14 487.96 438.14 490.08 426.22 504.43 426.22 503.25 432.86 516.76 432.86 519.81 415.73 470.96 415.73 469.08 426.22"/></defs><clipPath id="SVGID_170_"><use width="100%" height="100%" overflow="visible" xlink:href="#SVGID_169_"/></clipPath><polygon points="519.81 415.73 520.72 473.65 460.64 473.65 459.73 415.73" clip-path="url(#SVGID_170_)" fill="url(#SVGID_54_)"/><path d="m519.81 415.73-3.043 17.126h-13.515l1.177-6.628h-14.347l-2.117 11.922h21.901l-2.124 11.918h-21.91l-2.313 13.018h14.513l1.242-6.972h13.438l-3.128 17.547h-48.94l1.882-10.575h5.124l6.567-36.857h-5.128l1.875-10.498h48.846zm2.743-2.292h-53.516l-0.329 1.857-1.879 10.499-0.486 2.726h5.129l-5.746 32.274h-5.124l-0.329 1.853-1.884 10.579-0.485 2.726h53.606l0.331-1.857 3.128-17.547 0.492-2.726h-18.112l-0.329 1.854-0.913 5.119h-9.843l1.499-8.436h21.897l0.336-1.857 2.125-11.917 0.488-2.726h-21.91l1.307-7.339h9.682l-0.695 3.902-0.486 2.725h18.19l0.327-1.848 3.043-17.131z" fill="#e6e7e8"/><defs><polygon id="SVGID_172_" points="539.44 436.98 541.33 426.39 547.64 426.39 541.1 463.08 533.53 463.08 531.65 473.65 562.81 473.65 564.69 463.08 557.05 463.08 563.58 426.39 569.88 426.39 568 436.98 580.16 436.98 583.95 415.73 531.14 415.73 527.35 436.98"/></defs><clipPath id="SVGID_173_"><use width="100%" height="100%" overflow="visible" xlink:href="#SVGID_172_"/></clipPath><polygon points="583.95 415.73 584.85 473.65 527.35 473.65 526.44 415.73" clip-path="url(#SVGID_173_)" fill="url(#SVGID_57_)"/><path d="m583.95 415.73-3.782 21.248h-12.172l1.884-10.579h-6.301l-6.529 36.687h7.644l-1.884 10.575h-31.152l1.876-10.575h7.567l6.538-36.687h-6.301l-1.889 10.579h-12.083l3.776-21.248zm2.739-2.292h-57.47l-0.331 1.857-3.777 21.244-0.492 2.729h16.755l0.331-1.857 1.558-8.722h1.629l-5.719 32.104h-7.563l-0.327 1.853-1.879 10.579-0.488 2.726h35.819l0.331-1.857 1.88-10.579 0.487-2.721h-7.643l5.715-32.104h1.639l-1.396 7.85-0.488 2.729h16.838l0.322-1.857 3.785-21.243z" fill="#e6e7e8"/><defs><polygon id="SVGID_175_" points="655.52 426.22 645.24 459.97 643.46 415.73 625.16 415.73 607.72 459.97 609.44 426.22 615.31 426.22 617.19 415.73 593.08 415.73 591.23 426.22 594.92 426.22 594.52 473.65 614.59 473.65 631.56 428.83 632.64 473.65 651.6 473.65 668.12 426.22 671.82 426.22 673.68 415.73 651.6 415.73 649.74 426.22"/></defs><clipPath id="SVGID_176_"><use width="100%" height="100%" overflow="visible" xlink:href="#SVGID_175_"/></clipPath><polygon points="673.68 415.73 674.59 473.65 591.23 473.65 590.32 415.73" clip-path="url(#SVGID_176_)" fill="url(#SVGID_60_)"/><path d="m673.68 415.73-1.866 10.498h-3.691l-16.514 47.433h-18.975l-1.078-44.832-16.966 44.832h-20.063l0.39-47.433h-3.688l1.862-10.498h24.094l-1.871 10.498h-5.88l-1.723 33.743 17.448-44.241h18.295l1.781 44.241 10.292-33.743h-5.795l1.866-10.498zm2.739-2.292h-26.745l-0.331 1.857-1.861 10.499-0.488 2.726h5.428l-5.441 17.842-1.235-30.686-0.09-2.238h-22.071l-0.555 1.424-12.312 31.209 0.899-17.551h5.617l0.336-1.854 1.871-10.498 0.482-2.73h-28.757l-0.331 1.857-1.866 10.499-0.479 2.726h4.117l-0.375 45.082-0.019 2.35h23.97l0.555-1.454 12.808-33.859 0.797 33.045 0.058 2.269h22.846l0.528-1.508 15.985-45.924h3.979l0.326-1.854 1.871-10.498z" fill="#e6e7e8"/><defs><path id="SVGID_178_" d="m691.72 459.14 5.142-28.883 3.37-2.855h11.993l2.354 2.855-5.143 28.883-3.36 2.846h-12.012zm0.68-43.409-10.485 8.9-7.147 40.129 7.317 8.896h31.733l10.562-8.896 7.155-40.129-7.401-8.9z"/></defs><clipPath id="SVGID_179_"><use width="100%" height="100%" overflow="visible" xlink:href="#SVGID_178_"/></clipPath><polygon points="731.53 415.73 732.44 473.65 674.76 473.65 673.86 415.73" clip-path="url(#SVGID_179_)" fill="url(#SVGID_63_)"/><path d="m724.13 415.73 7.396 8.9-7.15 40.129-10.562 8.896h-31.738l-7.313-8.896 7.147-40.129 10.485-8.9zm-30.069 46.264h12.003l3.369-2.854 5.138-28.883-2.345-2.855h-11.998l-3.365 2.855-5.146 28.883 2.344 2.854m31.12-48.556h-33.652l-0.636 0.537-10.485 8.901-0.608 0.515-0.144 0.806-7.143 40.129-0.188 1.042 0.685 0.833 7.304 8.896 0.707 0.851h33.653l0.635-0.523 10.558-8.901 0.621-0.52 0.14-0.806 7.155-40.133 0.188-1.057-0.694-0.823-7.389-8.901zm-24.085 16.254h10.069l0.967 1.173-4.815 27.039-2.118 1.799h-10.078l-0.962-1.173 4.815-27.039z" fill="#e6e7e8"/><defs><path id="SVGID_181_" d="m764.56 426.22h13.936l1.987 2.516-1.656 9.317-2.873 2.434h-13.936zm-19.118-10.498-1.87 10.498h5.119l-6.561 36.857h-5.119l-1.88 10.57h26.604l1.885-10.57h-5.612l2.112-11.926h13.936l2.01 2.43-2.681 15.036 4.135 5.03h14.356l1.889-10.57h-3.446l2.171-12.181-4.771-5.791 6.829-5.787 2.761-15.452-6.784-8.145h-45.083z"/></defs><clipPath id="SVGID_182_"><use width="100%" height="100%" overflow="visible" xlink:href="#SVGID_181_"/></clipPath><polygon points="797.31 415.73 798.22 473.65 735.14 473.65 734.22 415.73" clip-path="url(#SVGID_182_)" fill="url(#SVGID_66_)"/><path d="m790.53 415.73 6.784 8.145-2.757 15.448-6.833 5.791 4.771 5.791-2.171 12.181h3.441l-1.884 10.575h-14.356l-4.14-5.035 2.681-15.036-2.005-2.43h-13.936l-2.121 11.926h5.621l-1.885 10.575h-26.604l1.88-10.575h5.128l6.557-36.857h-5.124l1.875-10.498h45.078zm-28.507 24.77h13.936l2.864-2.43 1.665-9.326-1.987-2.516h-13.936l-2.542 14.272m29.554-27.062h-48.054l-0.327 1.857-1.875 10.499-0.483 2.726h5.12l-5.746 32.274h-5.12l-0.331 1.853-1.88 10.579-0.482 2.726h31.267l0.331-1.857 1.884-10.579 0.492-2.721h-5.62l1.298-7.344h10.955l0.617 0.752-2.492 13.984-0.184 1.048 0.68 0.828 4.136 5.034 0.702 0.854h17.342l0.331-1.857 1.879-10.579 0.492-2.721h-3.441l1.683-9.451 0.188-1.048-0.685-0.827-3.325-4.042 5.124-4.345 0.613-0.523 0.147-0.797 2.752-15.448 0.188-1.057-0.694-0.832-6.779-8.141zm-25.087 15.082h10.924l0.64 0.805-1.343 7.505-1.624 1.379h-10.32z" fill="#e6e7e8"/><defs><polygon id="SVGID_184_" points="843.97 426.22 828.91 443.85 832.05 426.22 836.5 426.22 838.37 415.73 812.94 415.73 811.07 426.22 816.18 426.22 809.62 463.08 804.51 463.08 802.62 473.65 828.06 473.65 829.94 463.08 825.49 463.08 826.27 458.72 836.57 447.96 839.76 463.08 833.47 463.08 831.58 473.65 858.86 473.65 860.74 463.08 855.63 463.08 849 438.48 860.6 426.22 866.22 426.22 868.09 415.73 841.4 415.73 839.52 426.22"/></defs><clipPath id="SVGID_185_"><use width="100%" height="100%" overflow="visible" xlink:href="#SVGID_184_"/></clipPath><polygon points="868.09 415.73 869 473.65 802.62 473.65 801.72 415.73" clip-path="url(#SVGID_185_)" fill="url(#SVGID_69_)"/><path d="m868.09 415.73-1.87 10.498h-5.63l-11.582 12.253 6.619 24.604h5.119l-1.889 10.575h-27.285l1.894-10.575h6.292l-3.191-15.117-10.302 10.741-0.778 4.376h4.448l-1.88 10.575h-25.428l1.88-10.575h5.11l6.57-36.857h-5.115l1.865-10.498h25.429l-1.866 10.498h-4.453l-3.137 17.628 15.059-17.628h-4.443l1.865-10.498zm2.739-2.292h-59.815l-0.331 1.857-1.866 10.499-0.488 2.726h5.111l-5.746 32.274h-5.112l-0.331 1.853-1.888 10.579-0.483 2.726h60.898l0.336-1.857 1.884-10.574 0.488-2.726h-6.109l-5.826-21.646 10.051-10.628h6.543l0.331-1.854 1.866-10.498zm-34.048 15.082h2.197l-6.318 7.393 1.312-7.393h2.56zm-8.377 31.299 6.829-7.12 1.705 8.096h-8.704z" fill="#e6e7e8"/><path d="m297.8 187.73-0.559-0.183 0.631-0.188c22.208-8.718 40.301-29.069 44.508-52.874 5.603-31.487-15.395-57.19-46.862-57.378l-163.91 0.045-10.206 57.456h26.574l-19.751 111.24h-26.569l-10.167 57.336h169.88c32.582 0 63.587-26.322 69.367-58.844 4.792-26.971-9.3-49.705-32.931-56.611m-76.306-53.122h41.194c2.112 0 3.529 1.626 3.135 3.786l-4.451 25.057c-0.376 2.108-2.387 3.855-4.473 3.855h-41.205zm27.932 107.48c-0.367 2.067-2.365 3.759-4.435 3.759h-43.246l6.699-37.745h43.25c2.085 0 3.459 1.745 3.088 3.849z"/><polygon points="556.07 153.88 503.05 153.88 506.5 134.41 488.18 134.41 468.45 245.45 506.19 245.45 496.02 302.73 355.14 302.73 365.31 245.45 401.06 245.45 420.77 134.41 402.54 134.41 399.07 153.88 345.97 153.88 359.59 77.154 569.72 77.154"/><path d="m807.85 134.45h-21.982l-29.886 168.35h-52.995c-8.843 0-15.775-4.73-18.938-11.685l-37.261-104.44-10.472 58.763h21.749l-10.177 57.358h-107.16l10.181-57.358h26.265l19.709-111h-26.273l10.176-57.295h79.483c8.816 0 15.798 4.714 18.93 11.68l36.871 106.02 10.683-60.401h-21.691l10.172-57.295h102.79z"/><path d="m293.22 183.15-0.559-0.184 0.631-0.188c22.208-8.718 40.301-29.068 44.508-52.874 5.603-31.487-15.395-57.19-46.862-57.378l-163.91 0.044-10.206 57.457h26.574l-19.751 111.24h-26.569l-10.167 57.336h169.88c32.582 0 63.587-26.323 69.367-58.844 4.793-26.972-9.299-49.706-32.931-56.611m-76.305-53.122h41.194c2.112 0 3.528 1.626 3.135 3.786l-4.451 25.057c-0.376 2.108-2.387 3.855-4.473 3.855h-41.205zm27.931 107.48c-0.367 2.067-2.365 3.757-4.435 3.757h-43.246l6.699-37.746h43.25c2.085 0 3.459 1.746 3.088 3.849z" fill="#f1f2f2"/><path d="m290.94 72.52c31.467 0.192 52.465 25.896 46.866 57.378-4.207 23.813-22.304 44.163-44.508 52.874l-0.635 0.192 0.56 0.184c23.631 6.901 37.728 29.639 32.935 56.613-5.78 32.519-36.791 58.842-69.367 58.842h-169.88l10.163-57.336h26.569l19.756-111.24h-26.573l10.206-57.457 163.91-0.051m-79.824 90.199h41.205c2.085 0 4.102-1.741 4.478-3.849l4.45-25.063c0.394-2.155-1.022-3.779-3.139-3.779h-41.189l-5.805 32.691m-13.949 78.548h43.25c2.07 0 4.063-1.689 4.435-3.757l5.352-30.138c0.376-2.103-0.998-3.851-3.083-3.851h-43.255l-6.699 37.746m93.791-174.24h-0.018l-163.91 0.049h-4.605l-0.808 4.538-10.206 57.455-1.146 6.462h26.576l-17.804 100.24h-26.564l-0.808 4.54-10.167 57.327-1.146 6.462h176.44c35.024 0 68.568-28.426 74.777-63.377 4.399-24.739-5.829-47.097-25.428-58.097 19.252-11.291 33.338-30.605 37.077-51.769 3.03-17.015-0.871-33.076-10.984-45.222-9.908-11.899-24.562-18.507-41.261-18.612h-0.014zm-69.426 68.504h33.823l-3.849 21.693h-33.83zm-13.056 73.495h35.855l-4.757 26.748h-35.846z" fill="#00263d"/><polygon points="551.49 149.3 498.46 149.3 501.92 129.83 483.6 129.83 463.86 240.86 501.6 240.86 491.44 298.15 350.56 298.15 360.72 240.86 396.48 240.86 416.19 129.83 397.95 129.83 394.48 149.3 341.39 149.3 355.01 72.571 565.13 72.571" fill="#f1f2f2"/><path d="m565.13 72.569-13.636 76.727h-53.031l3.455-19.472h-18.316l-19.738 111.04h37.744l-10.166 57.277h-140.88l10.163-57.277h35.754l19.708-111.04h-18.234l-3.464 19.472h-53.097l13.613-76.727zm6.565-5.498h-221.3l-0.801 4.54-13.62 76.722-1.146 6.462h64.266l0.808-4.538 2.661-14.934h7.062l-17.758 100.04h-35.748l-0.808 4.535-10.167 57.277-1.146 6.463h152.06l0.801-4.543 10.165-57.277 1.146-6.455h-37.74l17.779-100.04h7.149l-2.309 13.009-1.146 6.462h64.203l0.806-4.538 13.64-76.724z" fill="#00263d"/><path d="m803.26 129.87h-21.981l-29.886 168.35h-52.995c-8.843 0-15.774-4.73-18.938-11.685l-37.261-104.44-10.472 58.764h21.75l-10.177 57.357h-107.17l10.181-57.357h26.266l19.708-111h-26.273l10.177-57.295h79.483c8.815 0 15.797 4.714 18.93 11.68l36.871 106.02 10.682-60.401h-21.69l10.172-57.295h102.79z" fill="#f1f2f2"/><path d="m813.44 72.574-10.172 57.295h-21.981l-29.886 168.35h-52.995c-8.834 0-15.774-4.73-18.938-11.685l-37.261-104.44-10.472 58.764h21.75l-10.177 57.357h-107.17l10.181-57.357h26.266l19.708-111h-26.265l10.168-57.295h79.483c8.815 0 15.797 4.714 18.93 11.68l36.871 106.02 10.682-60.403h-21.69l10.172-57.295h102.79m6.556-5.505h-113.96l-0.811 4.542-9.858 55.577-15.561-44.741-0.08-0.224-0.099-0.226c-4.14-9.206-13.318-14.93-23.946-14.93h-84.092l-0.806 4.542-10.172 57.295-1.146 6.46h26.264l-17.758 99.998h-26.26l-0.805 4.54-10.186 57.356-1.146 6.462h118.34l0.806-4.537 9.769-55.072 15.803 44.269 0.075 0.215 0.095 0.215c4.18 9.196 13.354 14.911 23.941 14.911h57.604l0.797-4.537 29.089-163.82h21.981l0.806-4.536 10.168-57.295zm-121.79 68.298h17.4l-5.867 33.166zm-59.905 99.997 5.684-31.903 11.385 31.903h-1.888z" fill="#00263d"/><g opacity=".2"><defs><rect id="SVGID_187_" x="38.784" y="4.584" width="886.64" height="163.75"/></defs><clipPath id="SVGID_188_"><use width="100%" height="100%" overflow="visible" xlink:href="#SVGID_187_"/></clipPath><g clip-path="url(#SVGID_188_)"><defs><rect id="SVGID_189_" x="38.784" y="4.584" width="886.64" height="163.75"/></defs><clipPath id="SVGID_190_"><use width="100%" height="100%" overflow="visible" xlink:href="#SVGID_189_"/></clipPath><path d="m869.4 4.584h-801.17l-29.447 163.75h868.16l17.628-97.682c2.859-17.905-1.468-34.718-12.2-47.251-10.368-12.134-25.624-18.816-42.97-18.816" clip-path="url(#SVGID_190_)" fill="#fff"/></g></g></svg>
