<svg width="1066.7" height="806.37" version="1.1" viewBox="0 0 1e3 755.97" xmlns="http://www.w3.org/2000/svg">
 <g transform="translate(-59.5 -212.62)">
  <path transform="matrix(.9375 0 0 .9375 59.5 212.62)" d="m0.5332 0.5332v805.3l222.09-210.17h843.51v-595.14h-1065.6zm134.27 139.61v107.62c0 5e-5 15.588-25.141 54.213-25.141 49.124 0 86.879 38.48 86.879 91.375 0 48.368-33.41 91.076-86.945 91.076-38.945 0-54.146-25.176-54.146-25.176v20.779h-38.361v-225.38l38.361-35.164zm255.21 82.412c16.727 0 28.844 4.623 28.844 4.623l-8.6367 37.846s-12.877-6.168-28.525-6.168c-29.764 0-41.764 21.277-41.764 45.375v96.438h-38.363v-173.69h37.83v19.176s12.718-23.596 50.615-23.596zm505.06 0.00586c48.977 0 92.908 35.121 92.908 91.309 0 50.768-37.873 91.242-93.34 91.242-57.574-1e-5 -93.439-42.967-93.439-91.309 0-48.774 35.65-91.242 93.871-91.242zm-388.88 0.06641c38.625 0 54.213 25.141 54.213 25.141v-20.793h38.361v173.71h-38.361v-20.779s-15.201 25.176-54.146 25.176c-53.535 0-86.945-42.708-86.945-91.076 0-52.895 37.755-91.375 86.879-91.375zm110.91 4.3477h41.441l51.25 134.1 51.096-134.1h40.375l-69.402 173.69h-45.086l-69.674-173.69zm277.43 31.283c-32.392 0-54.346 25.554-54.346 55.545 0 31.985 22.692 55.645 54.445 55.645 29.452 0 54.512-22.394 54.512-55.445 0-34.737-25.375-55.744-54.611-55.744zm-710.16 0.0332c-31.43 0-52.115 24.127-52.115 55.479 0 35.143 23.929 55.51 52.115 55.51 30.715 0 52.381-22.742 52.381-55.611 0-33.383-22.146-55.377-52.381-55.377zm326.44 0c-30.235 0-52.381 21.994-52.381 55.377 0 32.869 21.666 55.611 52.381 55.611 28.186 0 52.115-20.367 52.115-55.51 0-31.351-20.685-55.479-52.115-55.479z" fill="#fff"/>
 </g>
</svg>
