<svg enable-background="new 0 0 499.29 101.36" version="1.1" viewBox="0 0 499.29 101.36" xml:space="preserve" xmlns="http://www.w3.org/2000/svg">
		<path d="M93.41,70.22V46.36h23.85v23.86H93.41z" fill="#001A72"/>
		<path d="m188.12 74.77c0 17.97-13.12 26.6-31.2 26.6-18 0-31.89-8.23-33.35-27.18h19.21c2.17 15.1 26.32 13.67 26.32 1.76 0-13.41-43.38-6.32-43.38-36.05 0-15.37 13.47-24.7 30.14-24.7 16.57 0 29.5 8.19 31.11 26.11h-19.49c-1.41-13.92-22.17-11.94-22.17-2-0.01 14.12 42.81 5.71 42.81 35.46zm45.64 3.51c17.52 0 30.54-13.37 30.54-30.65s-13.02-30.77-30.54-30.77h-38.94v82.84h20.12v-21.42h18.82zm-18.82-17.28v-26.87h15.98c7.46 0 13.26 5.44 13.26 13.49s-5.8 13.37-13.26 13.37h-15.98zm101.86 38.7h21.78l-35.63-82.85h-15.15l-35.62 82.85h21.78l4.14-11.72h34.44l4.26 11.72zm-21.42-59.41 11.24 31.25h-22.61l11.37-31.25zm106.02 25.92-42.13-49.35h-17.75v82.84h20.12v-49.23l42.13 49.24h17.75v-82.86h-20.12v49.36zm-335.5 4.01c-3.19 7.7-10.39 13.62-21.75 13.62-15.86 0-24.03-11.48-24.03-25.56s8.17-25.56 24.03-25.56c11.37 0 18.57 5.94 21.76 13.65h20.01c-3.9-16.59-19.27-31.17-41.65-31.17-27.46 0-44.27 19.64-44.27 43.08s16.81 43.08 44.27 43.08c22.37 0 37.74-14.57 41.64-31.14h-20.01z" fill="#fff"/>
	<path d="m470.49 39.54 25.92-38.46v-1.08h-65.05v16.85h33.09l-24.27 36.68v1.37h22.13c11.53 0 17.88 5.26 17.88 14.8 0 9.1-6.57 15.22-16.34 15.22-9.33 0-15.19-5.09-16.49-14.34l-0.09-0.63h-18.37l0.08 0.8c1.9 18.59 15.64 30.6 35.01 30.6 17.35 0 35.29-12.21 35.29-32.63 0.01-16.73-10.99-27.82-28.79-29.18z" fill="#F1B300"/>
</svg>
