<svg width="646.92" height="800" version="1.0" xmlns="http://www.w3.org/2000/svg">
 <path d="m252.65 795.55c-105.77-17.709-196.37-94.709-238.49-192.26-9.71e-4 0-14.168-30.874-14.168-30.874l149.48-92.752 29.928 70.999-79.133 50.395c35.471 62.12 106.87 109.35 177.85 117.27 45.786 1.0836 93.642 4.8519 136.53-14.653 77.598-28.61 146.87-97.992 151.4-183.98 2.7332-59.015 1.31-126.1-43.004-171-38.233-40.255-96.326-48.842-149.26-47.953l-129.69-0.79247-0.82482-77.824s146.83-5.7414 216.77 6.5177c49.813 8.7334 98.316 34.885 130.14 75.884 55.506 65.339 61.862 156.78 53.953 238.6-17.823 126.36-128.61 224.5-250.39 249.45-46.255 9.2348-94.45 9.4127-141.09 2.9758zm41.387-223.06c-12.324-6.4045-22.901-16.626-22.901-22.141 0-2.4745 4.9004-10.48 10.901-17.806s10.464-15.72 9.914-18.647c-0.63075-3.3155-8.1997-8.1188-20.087-12.728-16.577-6.4368-19.052-8.4423-19.003-15.267 0.0809-8.9113 9.8332-32.039 14.798-35.112 1.8114-1.1159 10.092 0.90569 18.405 4.4799 23.014 9.8979 26.297 8.0542 26.297-14.814 0-22.286 2.4745-24.923 23.418-24.987 22.82-0.0809 23.936 1.0027 23.936 23.273 0 24.049 2.7979 25.78 26.281 16.254 14.329-5.8223 17.515-6.2428 19.925-2.6362 12.081 18.017 17.143 36.858 11.192 41.581-2.1672 1.7305-11.273 5.5312-20.2 8.4423-23.532 7.6822-23.677 9.72-2.6362 36.195 8.1027 10.189 8.3291 11.24 3.8492 18.081-4.5608 6.9706-25.408 20.637-31.456 20.637-1.585 0-8.1027-7.5528-14.459-16.788-6.3722-9.251-13.424-16.804-15.688-16.804s-9.7038 7.5528-16.529 16.804c-6.825 9.2348-13.391 16.788-14.604 16.771-1.1968 0-6.3075-2.151-11.353-4.7872zm-245.89-572.49h555.93v201.6h-83.242v-117.05h-391.74l5e-3 323.22h-80.944v-407.77z" fill="#fff" stroke-width="1.6173"/>
</svg>
