<svg width="800" height="519.67" space="preserve" version="1.1" xmlns="http://www.w3.org/2000/svg">
 <g transform="matrix(1.25 0 0 -1.25 -75.033 1171.5)" fill="#fff">
  <path d="m155.99 935.45c-25.45 0-49.858-10.11-67.855-28.106-17.996-17.996-28.107-42.404-28.107-67.855s10.11-49.859 28.107-67.855c17.996-17.996 42.404-28.107 67.855-28.107 25.45 0 49.859 10.11 67.855 28.107 17.996 17.996 28.107 42.404 28.107 67.855 0 25.45-10.11 49.858-28.107 67.855-17.996 17.996-42.404 28.106-67.855 28.106zm0-40.304c26.341 0 51.604-10.464 70.23-29.09 7.8224-7.8226 14.204-16.816 18.977-26.567-4.7728-9.7518-11.155-18.745-18.977-26.567-18.626-18.626-43.889-29.09-70.23-29.09s-51.604 10.464-70.23 29.09c-7.8224 7.8222-14.204 16.815-18.977 26.567 4.7727 9.7517 11.155 18.745 18.977 26.567 18.626 18.626 43.888 29.09 70.23 29.09zm0-4.7979c-13.489 0-26.425-5.3586-35.963-14.897-9.5381-9.5379-14.897-22.474-14.897-35.963s5.3585-26.425 14.897-35.963c9.5379-9.5378 22.474-14.896 35.963-14.896s26.425 5.3586 35.963 14.896c9.538 9.5381 14.897 22.474 14.897 35.963s-5.3586 26.425-14.897 35.963c-9.5379 9.538-22.474 14.897-35.963 14.897z"/>
  <g transform="matrix(5.2947 0 0 5.2947 -257.8 -2239.6)">
   <g clip-path="url(#clipPath3055)" fill="#fff">
    <g transform="translate(105.98 581.58)">
     <path d="m0 0c0 13.253 3.808 17.986 8.294 17.986 6.348 0 9.819-9.552 10.918-13.253v12.823c-1.099-0.861-1.608-1.291-2.792-1.291-1.186 0-2.962 0.602-3.809 1.119-0.846 0.516-2.539 0.947-4.232 0.947-5.587 0-15.32-7.487-15.32-18.331 0-12.822 8.633-18.33 15.32-18.33 1.693 0 3.555 0.689 4.401 1.205 0.845 0.517 2.454 1.205 3.64 1.205 1.184 0 1.693-0.431 2.792-1.291v12.908c-0.93-4.99-4.57-13.682-10.918-13.682-1.819 0-4.317 0.86-5.459 2.065-0.352 0.371-2.835 2.152-2.835 15.92" fill="#fff"/>
    </g>
    <g transform="translate(146.48 582.94)">
     <path d="m0 0c6.996 1.489 8.25 4.552 8.25 7.79 0 4.333-4.934 8.577-12.02 8.577h-16.686v-0.35h5.562v-34.923h-5.562v-0.35h17.494c5.292 0 13.008 3.326 13.008 10.153s-7.357 8.753-10.046 9.103m2.241 7.878c0-7.353-2.467-7.702-4.799-7.702h-5.192v15.841h3.89c3.14 0 6.101-0.788 6.101-8.139m-5.384-26.784h-5.111v0.083h0.504v18.648h4.877c3.588-0.087 6.46-1.838 6.46-9.453s-2.603-9.278-6.73-9.278" fill="#fff"/>
    </g>
    <g transform="translate(177.51 586.38)">
     <path d="m0 0h0.46l-0.058 13.334h-0.402s-1.149-1.264-2.759-1.264c-1.609 0-4.081 1.552-6.724 1.552-2.644 0-9.6-2.816-9.6-10.806 0-7.989 5.346-9.368 7.875-10.403 2.53-1.035 10.461-2.702 10.461-7.989 0-5.289-3.737-7.128-6.897-7.128-3.162 0-7.012 2.299-9.139 7.07-2.126 4.771-2.185 7.012-2.185 7.012h-0.517v-13.622h0.402s0.921 1.265 2.243 1.265c1.321 0 5.805-2.357 9.368-2.357s10.864 3.679 10.864 11.725c0 8.047-6.094 8.967-8.22 9.714-2.127 0.747-10.518 2.184-10.518 8.162s6.149 8.105 9.77 5.518c3.622-2.587 5.461-9.829 5.576-11.783" fill="#fff"/>
    </g>
    <g transform="translate(172.68 543.49)">
     <path d="m0 0c-2.127 0.747-10.519 2.183-10.519 8.161s6.15 8.105 9.771 5.517c3.622-2.586 5.46-9.828 5.576-11.782h0.46l-0.058 13.335h-0.402s-1.15-1.265-2.76-1.265c-1.609 0-4.081 1.552-6.724 1.552-2.644 0-9.599-2.817-9.599-10.805 0-7.99 5.346-9.369 7.875-10.404 2.529-1.034 10.461-2.701 10.461-7.99 0-5.287-3.737-7.126-6.897-7.126-3.162 0-7.013 2.299-9.139 7.069-2.127 4.77-2.185 7.013-2.185 7.013h-0.517v-13.622h0.402s0.921 1.264 2.242 1.264c1.322 0 5.805-2.357 9.369-2.357 3.563 0 10.863 3.679 10.863 11.725 0 8.047-6.093 8.968-8.219 9.715m-12.166 15.087h-8.118v-1.032h3.603l-7.884-25.635-7.608 25.635h3.919v1.032h-13.039v-1.032h2.287l3.371-10.825-4.526-14.908-7.484 25.733h3.007v1.032h-46.87v-1.032h4.015v-22.559l-14.366 23.591h-10.48v-1.032h3.985v-33.851h-3.985v-0.885h8.856v0.885h-3.788v30.543l18.991-31.38h1.476v34.688h7.134v-33.851h-3.986v-0.885h27.702v11.217h-0.69s-1.328-6.298-4.133-8.315c-1.523-1.096-3.014-1.696-4.062-2.017h-8.435v17.713h2.657c1.427 0 2.706-0.346 3.936-1.575 1.23-1.23 2.264-5.659 2.264-5.659h0.787v15.449h-0.787s-0.541-2.017-1.28-4.231c-0.738-2.213-3.543-3.099-4.871-3.099-0.948 0-2.112-0.025-2.706-0.039v15.292h7.676c1.564-0.452 3.711-1.284 4.821-2.658 1.87-2.312 2.362-5.117 2.362-5.117h0.787v7.775h3.05l10.825-36.066h1.328l7.282 23.52 7.036-23.52h1.377l11.258 36.066h3.306z" fill="#fff"/>
    </g>
   </g>
  </g>
 </g>
</svg>
