<svg width="1175.9" height="358.16" version="1.1" xmlns="http://www.w3.org/2000/svg">
 <g transform="translate(89.312 -287.75)">
  <g transform="matrix(16.78 0 0 16.78 -89.326 287.75)">
   <path transform="matrix(.059596 0 0 .059596 5.3235 -17.149)" d="m87.656 287.75c-98.58 0-176.97 80.488-176.97 178.53 0 99.117 78.389 179.62 176.97 179.62 99.1 0 176.44-80.493 176.44-179.59 0.01678-98.043-77.337-178.56-176.44-178.56zm0 75.781c80.492 0 139.46 51.117 164.38 102.78-24.918 52.453-83.883 103.81-164.38 103.81-81.012 0-139.51-51.376-164.41-103.81 24.901-51.648 83.411-102.75 164.41-102.75v-0.0312zm0 8.125c-52.436 0-95.188 42.44-95.188 94.625 0 52.973 42.751 95.188 95.188 95.188 52.436 0 94.625-42.217 94.625-95.156 0-52.185-42.189-94.656-94.625-94.656z"/>
   <path transform="matrix(.059596 0 0 .059596 5.3235 -17.149)" d="m433.28 309c-92.556 0-157.06 70.26-157.06 155.72v1.0312c0 86.516 65.82 154.97 154.72 154.97 57.94 0 92.558-20.724 123.5-54.031l-42.219-42.438c-23.609 21.478-44.871 35.406-79.219 35.406-51.648 0-87.562-43.307-87.562-94.938v-0.78125c0-51.648 36.704-93.875 87.562-93.875 30.153 0 53.753 12.851 77.094 34.094l42.219-48.781c-28.056-27.519-62.132-46.375-119.03-46.375z"/>
   <path transform="matrix(.059596 0 0 .059596 5.3235 -17.149)" d="m579.41 314.22v301.22h143.41c67.89 0 112.72-27.494 112.72-82.531v-1.0625c0-40.372-21.473-60.581-56.375-73.938 21.511-12.048 39.594-30.921 39.594-65v-0.78125c0-20.74-6.8252-37.513-20.719-51.406-17.283-17.031-44.292-26.5-78.656-26.5zm64.469 57.938h65.562c28.056 0 43.5 11.272 43.5 30.938v1.0625c0 22.283-18.604 31.719-47.969 31.719l-61.094 0.0312v-63.75zm0 118.81h76.844c33.794 0 49 12.595 49 32.781v1.0312c0 22.283-17.81 32.5-46.906 32.5l-78.938 0.0312v-66.344z"/>
   <path transform="matrix(.059596 0 0 .059596 5.3235 -17.149)" d="m965.5 309.78c-61.346 0-105.38 36.169-105.38 90.938v0.8125c0 59.803 39.301 76.592 99.875 92.062 50.339 13.088 60.812 21.47 60.812 38.25v1.0625c0 17.551-16.533 28.312-43.531 28.312-34.616 0-62.922-14.185-89.938-36.469l-39.312 46.938c36.177 32.25 82.314 48 127.94 48v-0.0312c65.021 0 110.63-33.577 110.63-93.312v-0.78125c0-52.688-34.593-74.495-95.688-90.469-51.899-13.39-65.031-19.928-65.031-39.594v-0.78125c0-14.682 13.375-26.469 38.812-26.469s51.66 11.252 78.406 29.844l34.344-50.031c-30.421-24.381-67.891-38.281-111.94-38.281z"/>
  </g>
 </g>
</svg>
