<svg width="1920pt" height="820.22pt" version="1.1" viewBox="0 0 1920 820.22" xmlns="http://www.w3.org/2000/svg">
 <defs>
  <clipPath id="a-0">
   <path d="m898.02 105.42h23.81v6.576h-23.81z"/>
  </clipPath>
 </defs>
 <g transform="matrix(231.75 0 0 231.75 31444 1152.6)">
  <g transform="matrix(.35278 0 0 -.35278 -452.54 34.481)" fill="#bead61">
   <g clip-path="url(#a-0)" fill="#bead61">
    <g transform="translate(920.28,111.76)">
     <path d="m0 0v-3.782l-3.159 3.711c-0.039 0.045-0.095 0.071-0.155 0.071h-1.092v-6.103h1.381v3.845l3.18-3.774c0.038-0.045 0.094-0.071 0.152-0.071h1.077v6.103z" fill="#bead61"/>
    </g>
    <g transform="translate(902.45,106.99)">
     <path d="m0 0c-0.268-0.086-0.554-0.13-0.85-0.13-0.383 0-0.731 0.079-1.035 0.235-0.298 0.153-0.533 0.373-0.697 0.653-0.165 0.282-0.248 0.606-0.248 0.963 0 0.349 0.084 0.671 0.25 0.955 0.166 0.283 0.401 0.506 0.7 0.662 0.304 0.158 0.65 0.238 1.03 0.238 0.307 0 0.606-0.044 0.889-0.13 0.183-0.057 0.371-0.134 0.579-0.236 0.013-7e-3 9e-3 -5e-3 0.023-0.012l0.565 1.1-0.084 0.042c-0.368 0.184-0.716 0.316-1.036 0.393s-0.652 0.116-0.985 0.116c-0.633 0-1.212-0.132-1.719-0.394-0.512-0.263-0.92-0.644-1.212-1.131s-0.44-1.043-0.44-1.653c0-0.57 0.144-1.103 0.427-1.583 0.285-0.48 0.681-0.854 1.178-1.109 0.492-0.254 1.057-0.382 1.68-0.382 0.425 0 0.803 0.044 1.124 0.13 0.319 0.085 0.673 0.23 1.052 0.431l0.067 0.036-0.423 1.175c-0.327-0.171-0.609-0.297-0.835-0.369" fill="#bead61"/>
    </g>
    <g transform="translate(909.54,108.76)">
     <path d="m-1.252 2.8264e-6v-1.675c-0.214-0.103-0.412-0.158-0.538-0.183-0.148-0.028-0.307-0.042-0.472-0.042-0.592 0-1.073 0.168-1.43 0.501-0.359 0.334-0.533 0.764-0.533 1.316 0 0.361 0.083 0.692 0.247 0.984 0.163 0.289 0.395 0.514 0.691 0.668 0.301 0.157 0.652 0.236 1.042 0.236 0.529 0 1.072-0.12 1.62-0.354l0.563 1.1-0.081 0.037c-0.707 0.325-1.431 0.491-2.151 0.491-0.628 0-1.206-0.134-1.719-0.399-0.517-0.266-0.926-0.645-1.216-1.127-0.289-0.481-0.436-1.026-0.436-1.619 0-0.585 0.145-1.123 0.432-1.599s0.692-0.851 1.203-1.114c0.508-0.262 1.081-0.395 1.703-0.395 0.437 0 0.863 0.059 1.267 0.174 0.408 0.116 0.763 0.281 1.056 0.489l0.064 0.046v2.404c0 0.034-0.027 0.061003-0.06 0.061003z" fill="#bead61"/>
    </g>
    <g transform="translate(914.84,111.76)">
     <path d="m-4.921 1.2445e-6v-1.182h1.987v-4.921h1.426v4.921h1.946v1.182z" fill="#bead61"/>
    </g>
   </g>
  </g>
 </g>
 <g transform="translate(-3.4767)" fill="#bfae62" stroke-width=".99999">
  <path d="m1419.8 570.2c-66.736 0-89.587 42.81-89.597 125.01-0.01 82.199 22.841 125.01 89.577 125.01 48.838 0 78.329-30.81 86.672-75.965h-37.49c-5.4927 22.939-21.391 42.71-49.182 42.71-36.215 0-51.941-33.659-51.985-91.644-0.044-57.984 15.673-91.862 52.005-91.862 27.791 0 43.69 19.772 49.182 42.711l37.49-1.9e-4c-8.343-45.155-37.834-75.967-86.672-75.967z"/>
  <path d="m266.22 572.16-90.189 246.08h40.02l17-49.434h96.568l17.001 49.434h40.018l-90.188-246.08zm15.114 56.407 37.285 108.32h-74.569z"/>
  <path d="m453.48 572.16 0.0103 246.08h37.461v-162.98l56.698 118.53h28.73l56.7-118.53v162.99h37.459l0.0103-246.08h-37.61l-70.923 151.78-70.925-151.78z"/>
  <path d="m751.46 818.24v-246.08h157.21l-0.03 33.665h-119.79v71.709h102.31l0.01 33.369h-102.32v73.789h119.78v33.549z"/>
  <path d="m1063 572.16c53.224 0 85.724 25.741 85.628 72.164 0 32.845-20.107 57.137-48.779 65.029 18.48 36.48 37.73 72.559 56.519 108.89h-42.889c-0.99-0.69999-1.78-1.2095-2.2-2.3395-16.68-33.72-33.84-67.314-50.339-101.12-15.5-0.49-31.04 0.15-46.549 0 0 34.52-0.01 68.944 0 103.46h-37.669c-0.05-82.059 0-164.02 0-246.08zm-48.609 33.72v76.924h53.559c25.437 0 42.542-12.845 43.183-38.48 0-25.076-18.362-38.444-41.613-38.444z"/>
  <path d="m1220.4 818.24v-246.08h37.244v246.09z"/>
  <path d="m1630.5 572.16-90.189 246.08h40.02l16.999-49.434h96.568l17.001 49.434h40.018l-90.188-246.08zm15.114 56.407 37.285 108.32h-74.569z"/>
 </g>
</svg>
