<svg width="399pt" height="82pt" version="1.1" viewBox="0 0 399 82" xmlns="http://www.w3.org/2000/svg">
 <path d="m399-0.235-14.74 82.475h-384.26l14.73-82.475z" fill="#00a5cd"/>
 <g fill="#f5f5f5">
  <path d="m29.73 16.71c9.79-7.56 23.03-8.67 34.8-6.25l-3.93 21.35c-4.85-1.29-10.28-2.33-15.07-0.26-6.76 2.88-9.44 12.79-4.38 18.34 4.12 4.17 10.73 3.57 15.86 1.9l-3.94 21.9c-8.22 1.36-17.05 0.71-24.5-3.27-6.49-3.44-11.24-9.83-12.83-16.99-3.12-13.58 2.94-28.45 13.99-36.72z"/>
  <path d="m252.75 18.75c8.14-7.95 20.16-10.54 31.19-9.03 8.73 0.76 17.37 5.34 21.48 13.33l-18.65 6.54c-2.89-4.03-8.44-5.31-13.03-3.86-4.4 1.73-7.05 6.09-8.55 10.36-1.94 5.78-2.47 12.57 0.61 18.05 2.88 5.4 11.18 6.11 15.41 2.01 0.74-1.93 0.88-4.005 1.27-6.025h-7.1l2.15-11.84h27.49l-3.8767 22.335c-1.5412 2.1073-3.351 3.9382-5.1917 5.6105-6.3551 5.9101-15.27 8.6451-23.882 8.0791-10.02-0.26-20.46-4.64-25.85-13.43-8.27-13.23-4.64-31.69 6.53-42.13z"/>
  <path d="m58.55 73.45 11.25-63.311h20.41l-4.15 24.021h15.18l4.24-24.021h20.49l-11.15 63.311h-20.46l4.17-23.405h-15.4l-4.11 23.405z"/>
  <path d="m172.58 10.139 8.93 63.311h-19.79l-1.34-9.175h-17.34l-4.77 9.175h-20.07l31.18-63.311zm-22.79 40.061h8.63l-1.93-13.71z"/>
  <path d="m222.04 10.139c6.11 0.07 12.58 2.4412 16.23 7.5612 4.06 5.62 4.03 13.24 1.99 19.62-1.82 5.34-6.98 8.33-11.87 10.45l10.74 25.68h-23.53l-6.88-19.59-3.56 19.59h-20.88l11.14-63.311zm-8.4 15.261-1.61 9.2602h2.7556c1.3755 0 2.7344-0.11992 3.9044-0.89 2.62-1.57 3.12-6.08 0.33-7.73-0.90222-0.50369-1.9085-0.64025-2.9293-0.64025z"/>
  <path d="m314.04 10.139h41.15c-0.96 5.23-1.87 10.466-2.74 15.706-6.87 0.06-13.74-0.05-20.6 0-0.49 2.74-0.97 5.495-1.42 8.235 6.46-0.01 12.91 0.04 19.37 0-0.85 5.28-1.84 10.495-2.71 15.775-6.46-0.02-12.92 0.11-19.37 0-0.65 2.55-1.07 5.11-1.48 7.7 6.86-0.01 13.72 0 20.58 0-0.96 5.29-1.95 10.565-2.82 15.865-13.68 0.06-27.37 0.05-41.05 0 3.7-21.08 7.47-42.181 11.09-63.281z"/>
  <path d="m363.46 10.139h19.9l-7.55 42.176h-19.81z"/>
  <path d="m360.26 55.29c4.18-1.64 9.88-1.08 12.59 2.87 3.01 4.7 1.17 11.37-3.23 14.54-4.67 3.46-12.78 2.82-15.6-2.71-2.56-5.5 0.63-12.61 6.24-14.7z"/>
 </g>
</svg>
