<svg width="999.98" height="262.62" version="1.1" viewBox="0 0 264.57 69.486" xmlns="http://www.w3.org/2000/svg">
 <g transform="translate(209.81 -426.21)" fill="#fff">
  <path transform="matrix(.26459 0 0 .26459 -209.81 426.21)" d="m522.79 0.015625-8.1152 37.639h59.959c22.336 0 43.385 15.535 43.385 39.039 0 22.399-13.226 37.312-32.6 44.125l17.57 47.596h-37.568l-14.146-41.266h-20.15l-8.9394 41.266h-36.246l24.277-110.98h-465.6l-44.609 205.2h465.31l12.684-57.979 477.48 6e-3 44.502-204.65zm186.81 33.988c23.873 0 44.806 11.283 56.258 26.264l-26.262 21.369s-9.6765-15.561-33.445-15.561c-28.336 0-45.943 22.407-45.943 44.779 0 16.189 12.325 29.537 31.297 29.537 15.912 0 24.752-8.4336 24.752-8.4336l2.8945-14.014h-21.014l4.8066-22.584h57.645l-10.805 50.488c-13.659 14.048-36.039 26.287-62.67 26.287-37.736 0-64.002-27.577-64.002-59.92 0-44.553 40.28-78.213 86.488-78.213zm198.86 3.6406h38.309l-25.248 89.498h-26.951zm-119.85 0.0059h103.78l-6.5859 29.834-67.225 0.0332-4.4609 20.598h51.857l-6.0352 27.881h-51.955l-4.8789 22.305h69.312l-6.6172 30.113h-105.65zm-639.95 54.047c23.873 0 44.804 11.283 56.256 26.264l-26.262 21.369s-9.6765-15.561-33.445-15.561c-28.336 0-45.943 22.407-45.943 44.779 0 16.189 12.325 29.537 31.297 29.537 23.624 0 39.395-18.377 39.395-18.377l17.109 24.15c-13.659 14.048-34.262 25.971-60.895 25.971-37.736 0-64.002-27.577-64.002-59.92 0-44.553 40.282-78.213 86.49-78.213zm73.271 3.6523h36.803l-10.869 48.793h49l10.607-48.793h36.578l-28.438 131.04h-36.654l11.004-50.742h-49.068l-10.598 50.742h-36.805zm179.35 0.0059h40.35l22.51 131.04h-37.912l-3.5566-28.16h-44.473l-15.543 28.16h-40.914zm13.559 36.471-20.607 38.252h24.844zm490.19 4.834c9.8338 0 16.811 6.4106 16.811 14.752 0 12.193-11.314 18.693-20.172 18.693-10.265 0-17.076-6.0427-17.076-14.77h2e-3c0-9.6951 9.3518-18.676 20.436-18.676z" stroke-width="3.7795"/>
  <path d="m-67.449 451.5 1.4847-6.9343h6.1966c2.2096 0 3.5693 1.3225 3.5693 2.9911 0 1.9917-1.6166 3.9432-4.7497 3.9432z"/>
 </g>
</svg>
