<svg width="800" height="203.26" data-name="business horz" version="1.1" viewBox="0 0 800 203.26" xmlns="http://www.w3.org/2000/svg">
 <g transform="matrix(19.048 0 0 19.048 0 -203.43)" fill="#fa2586">
  <path class="cls-1" d="m14.21 20.83v0.41h-1.49v-4.79h1.49v1.65a1.33 1.33 0 0 1 1.07-0.53 1.66 1.66 0 0 1 1.54 1.85c0 1.14-0.68 1.89-1.53 1.89a1.34 1.34 0 0 1-1.08-0.48zm1.17-1.38a0.6 0.6 0 1 0-1.2 0 0.6 0.6 0 1 0 1.2 0z"/>
  <path class="cls-1" d="m17.13 20v-2.34h1.49v1.88c0 0.31 0.18 0.48 0.41 0.48a0.43 0.43 0 0 0 0.42-0.48v-1.88h1.49v3.58h-1.49v-0.48a1.35 1.35 0 0 1-1.09 0.56 1.17 1.17 0 0 1-1.23-1.32z"/>
  <path class="cls-1" d="m21.28 20.81 0.5-0.85a2.61 2.61 0 0 0 1.33 0.4c0.14 0 0.21 0 0.21-0.12 0-0.07-0.06-0.12-0.42-0.21-0.91-0.22-1.47-0.47-1.47-1.21 0-0.79 0.63-1.23 1.57-1.23a3.23 3.23 0 0 1 1.61 0.41l-0.48 0.89a2.66 2.66 0 0 0-1.13-0.36q-0.21 0-0.21 0.12c0 0.07 0.08 0.12 0.44 0.21 0.91 0.22 1.45 0.47 1.45 1.21 0 0.78-0.58 1.23-1.56 1.23a3.27 3.27 0 0 1-1.84-0.49z"/>
  <path class="cls-1" d="m25 16.45h1.54v0.95h-1.54zm0 1.21h1.49v3.58h-1.49z"/>
  <path class="cls-1" d="m27 17.66h1.49v0.49a1.41 1.41 0 0 1 1.1-0.58 1.18 1.18 0 0 1 1.23 1.31v2.36h-1.5v-1.88a0.44 0.44 0 0 0-0.41-0.49 0.45 0.45 0 0 0-0.43 0.49v1.88h-1.48z"/>
  <path class="cls-1" d="m31.13 19.47a1.81 1.81 0 0 1 1.87-1.9 1.79 1.79 0 0 1 1.87 2 2.18 2.18 0 0 1 0 0.25h-2.3a0.66 0.66 0 0 0 0.67 0.47 1 1 0 0 0 0.73-0.36l0.8 0.63a1.93 1.93 0 0 1-1.63 0.78 1.81 1.81 0 0 1-2.01-1.87zm2.35-0.33a0.52 0.52 0 0 0-0.5-0.54c-0.25 0-0.43 0.21-0.47 0.54z"/>
  <path class="cls-1" d="m35 20.81 0.51-0.85a2.58 2.58 0 0 0 1.32 0.4c0.15 0 0.22 0 0.22-0.12 0-0.07-0.07-0.12-0.43-0.21-0.9-0.22-1.46-0.47-1.46-1.21 0-0.79 0.63-1.23 1.56-1.23a3.21 3.21 0 0 1 1.61 0.41l-0.47 0.89a2.66 2.66 0 0 0-1.14-0.34c-0.15 0-0.21 0-0.21 0.12 0 0.07 0.07 0.12 0.43 0.21 0.91 0.22 1.46 0.47 1.46 1.21 0 0.78-0.59 1.23-1.56 1.23a3.28 3.28 0 0 1-1.84-0.51z"/>
  <path class="cls-1" d="m38.61 20.81 0.5-0.85a2.61 2.61 0 0 0 1.33 0.4c0.14 0 0.21 0 0.21-0.12 0-0.07-0.06-0.12-0.42-0.21-0.91-0.22-1.47-0.47-1.47-1.21 0-0.79 0.63-1.23 1.57-1.23a3.17 3.17 0 0 1 1.6 0.41l-0.47 0.89a2.66 2.66 0 0 0-1.14-0.34q-0.21 0-0.21 0.12c0 0.07 0.08 0.12 0.44 0.21 0.91 0.22 1.45 0.47 1.45 1.21 0 0.78-0.58 1.23-1.56 1.23a3.27 3.27 0 0 1-1.83-0.51z"/>
  <path class="cls-1" d="m12.73 13.69a1.89 1.89 0 0 1 1.95-1.88 1.71 1.71 0 0 1 1.62 1l-1.07 0.61a0.57 0.57 0 0 0-0.52-0.36 0.58 0.58 0 0 0-0.55 0.63 0.58 0.58 0 0 0 0.53 0.64 0.63 0.63 0 0 0 0.56-0.36l1.08 0.62a1.82 1.82 0 0 1-1.72 1 1.85 1.85 0 0 1-1.88-1.9z"/>
  <path class="cls-1" d="m16.57 10.68h1.49v1.68a1.38 1.38 0 0 1 1.1-0.56 1.17 1.17 0 0 1 1.22 1.3v2.36h-1.49v-1.88c0-0.31-0.18-0.48-0.4-0.48a0.43 0.43 0 0 0-0.43 0.48v1.88h-1.49z"/>
  <path class="cls-1" d="m20.72 13.69a1.8 1.8 0 0 1 1.84-1.88 1.78 1.78 0 0 1 1.86 2 2.09 2.09 0 0 1 0 0.25h-2.3a0.69 0.69 0 0 0 0.68 0.48 1 1 0 0 0 0.73-0.37l0.8 0.64a2 2 0 0 1-1.64 0.78 1.81 1.81 0 0 1-1.97-1.9zm2.34-0.33c0-0.34-0.23-0.53-0.49-0.53s-0.43 0.21-0.48 0.53z"/>
  <path class="cls-1" d="m24.63 13.7c0-1.14 0.68-1.89 1.53-1.89a1.32 1.32 0 0 1 1.07 0.49v-1.62h1.49v4.78h-1.49v-0.46a1.31 1.31 0 0 1-1.06 0.53 1.66 1.66 0 0 1-1.54-1.83zm2.63 0a0.6 0.6 0 1 0-1.19 0 0.61 0.61 0 0 0 0.6 0.64 0.6 0.6 0 0 0 0.59-0.66z"/>
  <path class="cls-1" d="m29.09 13.7c0-1.14 0.68-1.89 1.53-1.89a1.34 1.34 0 0 1 1.08 0.49v-1.62h1.48v4.78h-1.48v-0.46a1.33 1.33 0 0 1-1.07 0.53 1.67 1.67 0 0 1-1.54-1.83zm2.64 0a0.62 0.62 0 0 0-0.6-0.65 0.61 0.61 0 0 0-0.59 0.65 0.6 0.6 0 0 0 0.59 0.64 0.61 0.61 0 0 0 0.6-0.66z"/>
  <path class="cls-1" d="m33.52 14.45c0-0.71 0.53-1.11 1.36-1.11a2.71 2.71 0 0 1 0.85 0.13v-0.06c0-0.33-0.2-0.52-0.66-0.52a2.47 2.47 0 0 0-1 0.21l-0.27-1a4.08 4.08 0 0 1 1.51-0.27 2 2 0 0 1 1.52 0.47 1.46 1.46 0 0 1 0.37 1.13v2h-1.48v-0.33a1.34 1.34 0 0 1-1 0.45 1.06 1.06 0 0 1-1.2-1.1zm2.22-0.31v-0.14a0.83 0.83 0 0 0-0.34-0.06 0.41 0.41 0 0 0-0.46 0.4 0.33 0.33 0 0 0 0.34 0.35c0.27 0 0.46-0.21 0.46-0.55z"/>
  <path class="cls-1" d="m37.7 11.88h1.49v0.72a1.08 1.08 0 0 1 1.12-0.77v1.58h-0.16c-0.63 0-1 0.35-1 1.14v0.91h-1.45z"/>
  <path class="cls-1" d="m10.61 21.29h-10.61v-10.61h10.61zm-3.94-4.84a1.26 1.26 0 0 1-1.14 0.74 1.17 1.17 0 0 1-1.08-1.19v-0.13a1.2 1.2 0 0 1 1.12-1.29 1.19 1.19 0 0 1 1.08 0.74l2.1-1.18h0.08a3.48 3.48 0 0 0-3.31-2 3.85 3.85 0 0 0-4 3.84v0.02a3.8 3.8 0 0 0 3.85 3.71 4.14 4.14 0 0 0 2-0.44 0.62 0.62 0 0 1-0.1-0.27 0.79 0.79 0 0 1 0.73-0.8 0.58 0.58 0 0 1 0.48 0.16 4.07 4.07 0 0 0 0.33-0.48c0-0.06 0.07-0.11 0.1-0.16zm1.93 2.4a0.77 0.77 0 0 0-0.7 0.76 0.65 0.65 0 0 0 0.08 0.31 3.42 3.42 0 0 0 1.11-0.92 0.64 0.64 0 0 0-0.49-0.15z"/>
 </g>
</svg>
