<!DOCTYPE svg  PUBLIC '-//W3C//DTD SVG 1.1//EN'  'http://www.w3.org/Graphics/SVG/1.1/DTD/svg11.dtd'>
<svg width="1e3px" height="212.12px" enable-background="new -408.547 -86.522 1000 212.125" version="1.1" viewBox="-408.55 -86.522 1e3 212.12" xml:space="preserve" xmlns="http://www.w3.org/2000/svg">
	<rect x="-408.55" y="-86.522" width="207.62" height="212.12" fill="#F92585"/>
	<path d="m-252.49 98.298c-0.956-1.826-1.505-3.94-1.505-6.235 0-7.742 6.14-14.565 13.719-15.239 3.722-0.341 7.099 0.887 9.568 3.124-5.943 7.565-13.154 13.78-21.782 18.35z" fill="#FFFF63"/>
	<path d="m-264.7 85.383c-10.646 5.644-23.447 8.793-38.741 8.793-42.897 0-74.323-34.059-75.279-74.27-0.016-0.63-0.045-1.254-0.045-1.893v-0.531c0-41.029 31.493-76.7 78.218-76.7 31.49 0 53.8 16.626 64.823 40.49l-1.688 0.977-41.092 23.703c-4.987-9.392-11.285-14.757-20.996-14.757-12.598 0-22.045 11.268-22.045 25.748v0.539c0 0.662 0.04 1.3 0.077 1.946 0.769 14.255 9.883 24.335 21.178 24.335 10.501 0 16.535-5.371 22.307-14.752l43.313 25.2c-0.587 1.116-1.214 2.194-1.839 3.263-1.96 3.385-4.082 6.588-6.418 9.568-2.472-2.243-5.846-3.471-9.567-3.13-7.574 0.679-13.714 7.497-13.714 15.233 0 2.297 0.55 4.407 1.508 6.238z" fill="#FFFF63"/>
	<path d="m-96.602 43.268c-3.964 6.444-8.1 10.123-15.302 10.123-8.099 0-14.586-7.545-14.586-18.03v-0.363c0-9.931 6.487-17.662 15.128-17.662 6.661 0 10.978 3.679 14.397 10.112l29.347-16.917c-7.558-16.373-22.859-27.772-44.467-27.772-32.049 0-53.648 24.462-53.648 52.602v0.374c0 28.143 21.781 52.237 51.667 52.237 23.401 0 38.348-10.673 47.171-27.405l-29.707-17.299z" fill="#F92585"/>
	<path d="m10.688-17.428c-13.86 0-23.77 7.537-30.067 15.82v-47.278h-40.872v134.28h40.872v-52.798c0-8.644 5.582-13.609 11.7-13.609 6.125 0 11.165 4.966 11.165 13.609v52.799h40.866v-66.225c0-22.622-12.959-36.602-33.664-36.602" fill="#F92585"/>
	<path d="m91.349 26.535c1.257-9.2 6.116-15.089 12.96-15.089 7.197 0 12.782 5.521 13.689 15.089h-26.649zm63.907 11.399c0-30.529-16.199-55.362-51.128-55.362-29.52 0-50.585 22.809-50.585 52.789v0.374c0 31.265 21.781 52.045 54.002 52.045 21.25 0 35.11-9.012 44.839-21.88l-21.976-17.843c-6.478 6.802-12.591 10.299-19.98 10.299-8.82 0-15.658-4.597-18.537-13.428h63.183c0.182-2.205 0.182-4.784 0.182-6.994z" fill="#F92585"/>
	<path d="m233.31 35.36c0 10.117-7.027 18.03-16.392 18.03s-16.386-7.913-16.386-18.03v-0.363c0-10.118 7.021-18.03 16.386-18.03 9.364 0 16.392 8.1 16.392 18.03v0.363zm-0.908-84.246v45.254c-6.3-7.175-14.586-13.796-29.524-13.796-23.221 0-41.951 21.154-41.951 52.975v0.369c0 30.716 18.549 51.869 42.313 51.869 14.938 0 22.499-7.362 29.162-14.709v12.322h40.872v-134.28h-40.872z" fill="#F92585"/>
	<path d="m355.9 35.36c0 10.117-7.017 18.03-16.381 18.03-9.365 0-16.381-7.913-16.381-18.03v-0.363c0-10.118 7.016-18.03 16.381-18.03 9.364 0 16.381 8.1 16.381 18.03v0.363zm-0.903-84.246v45.254c-6.295-7.175-14.581-13.796-29.524-13.796-23.221 0-41.95 21.154-41.95 52.975v0.369c0 30.716 18.548 51.869 42.313 51.869 14.944 0 22.505-7.362 29.162-14.709v12.322h40.872v-134.28h-40.873z" fill="#F92585"/>
	<path d="m466.09 48.238c0 9.562-5.393 15.451-12.601 15.451-5.227 0-9.364-3.865-9.364-9.749v-0.363c0-6.258 4.495-11.223 12.605-11.223 3.423 0 7.021 0.737 9.359 1.655v4.229zm30.065-51.87c-8.645-8.831-21.607-13.064-41.587-13.064-17.106 0-30.07 2.941-41.41 7.359l7.208 27.772c8.638-3.495 17.096-5.694 27.182-5.694 12.605 0 18.18 5.334 18.18 14.525v1.655c-4.314-1.831-14.939-3.674-23.221-3.674-22.867 0-37.454 11.213-37.454 31.267v0.374c0 19.866 13.326 30.897 32.232 30.897 12.243 0 21.416-4.966 28.271-12.51v10.123h40.86v-57.209c1e-3 -14.532-2.877-24.279-10.261-31.821z" fill="#F92585"/>
	<path d="m560.67 5.196v-20.238h-40.865v100.44h40.865v-25.574c0-22.254 9.178-32.003 26.46-32.003h4.325v-44.334c-16.204-0.729-25.2 8.1-30.785 21.709" fill="#F92585"/>
</svg>
