<svg width="800" height="454.72" version="1.1" viewBox="0 0 800 454.72" xmlns="http://www.w3.org/2000/svg">
 <defs>
  <linearGradient id="linearGradient857" x1="401.74" x2="401.74" y1="396.64" y2="233.79" gradientUnits="userSpaceOnUse">
   <stop stop-color="#a7aeb4" offset="0"/>
   <stop stop-color="#d7dbe1" offset=".52883"/>
   <stop stop-color="#faf9fa" offset=".53845"/>
   <stop stop-color="#e8eaec" offset="1"/>
  </linearGradient>
  <linearGradient id="linearGradient869" x1="401.74" x2="401.74" y1="221.01" y2="58.255" gradientUnits="userSpaceOnUse">
   <stop stop-color="#e6e8ec" offset="0"/>
   <stop stop-color="#a2a9b4" offset="1"/>
  </linearGradient>
 </defs>
 <g fill="url(#linearGradient869)">
  <path d="m234.03 140.07v-0.49592c0-47.265 37.111-84.388 86.925-84.388 33.73 0 55.177 13.851 69.799 33.913l-34.445 26.212c-9.388-11.644-20.115-19.135-35.872-19.135-23.008 0-39.351 19.503-39.351 42.889v0.5095c0 24.457 16.342 43.447 39.351 43.447 17.188 0 27.263-7.7935 37.078-19.565l34.378 23.991c-15.533 21.23-36.46 36.755-72.95 36.755-47.089 0-84.913-35.572-84.913-84.131z"/>
  <path d="m461.11 58.4h44.06l66.226 89.769v-89.769h45.108v162.42h-44.196l-66.423-91.192v91.192h-44.775z"/>
  <path d="m630.21 58.4h143.14v38.352h-97.91v24.487h84.001v35.686h-84.001v25.558h97.91v38.335h-143.14z"/>
  <path d="m401.74 221.01h45.817v-162.75h-45.817z"/>
 </g>
 <g fill="url(#linearGradient857)">
  <path d="m401.74 396.64h45.817v-162.85h-45.817z"/>
  <path d="m295.67 273.26h-46.99v-39.343h139.47v39.343h-46.987v123.31h-45.493z"/>
  <path d="m461.11 233.92h44.06l66.226 90.012v-90.012h45.108v162.66h-44.196l-66.423-91.241v91.241h-44.775z"/>
  <path d="m753.34 315.68v-0.31889c0-22.939-16.315-43.066-40.978-43.066-24.142 0-40.39 19.552-40.39 42.682v0.38422c0 23.064 16.572 43 40.845 43 24.533 0 40.523-19.68 40.523-42.682m-128.19 0.25615v-0.57504c0-46.516 37.793-84.227 87.671-84.227 50.108 0 87.186 37.199 87.186 83.843v0.38422c0 46.388-37.596 84.085-87.64 84.085-50.008 0-87.216-37.188-87.216-83.51"/>
  <path d="m-3.6625e-8 233.92h45.656v125.6h57.775l-15.921 37.057h-87.51z"/>
  <path d="m209.24 330.19-17.512-46.259-17.775 46.322zm-37.629-96.304h40.687l70.32 162.69h-48.777l-13.291-33.61-57.777 0.0659-13.582 33.545h-47.866z"/>
 </g>
 <g transform="matrix(19.981 0 0 19.981 -19.072 -100.09)" fill="#3cb1e5">
  <path d="m21.061 7.2627h2.2931v-2.2536h-2.2931z"/>
  <path d="m21.061 27.767h2.2931v-2.2577h-2.2931z"/>
 </g>
</svg>
