<svg width="600pt" height="210.61pt" version="1.1" viewBox="0 0 600 210.61" xmlns="http://www.w3.org/2000/svg">
 <path d="m514 0-64.548 12.556-9.2393 11.953-421.43 51.601-18.78 134.5 579.68-70.816 20.324-134.5-103.81 12.057c5.661-6.0731 12.082-11.321 17.808-17.351zm-15.724 7.9176-36.268 32.252-24.639 2.9929 18.491-26.9zm69.317 25.592-28.741 41.92 23.848 37.262-27.972 3.4345-12.127-20.734-15.765 24.131-23.12 2.8722-6.8341 0.807-20.696 2.5481-2.5862-10.227-27.082 3.3138-5.4997 11.238-26.072 3.1931-2.1033 0.28277-23.645 2.8722 5.5378-39.616-21.789 30.641-0.44481 0.0413-13.786-26.234-5.576 39.616-25.306 3.1136 11.279-79.957 25.548-3.1518 12.61 26.072 20.537-30.117 28.417-3.5172-10.551 74.826 41.192-78.464 25.669-3.1105 19.362 69.326 25.913-37.755-22.679-34.482 27.975-3.4345 11.155 17.703 13.379-20.734zm-256.53 31.53-3.1518 21.91-40.585 4.9723-1.1311 8.1241 37.796-4.6482-2.6688 19.279-37.796 4.6514-1.2931 8.6896 40.544-4.9723-3.031 21.91-65.971 8.1241 11.279-79.954zm-74.092 9.0931-11.279 79.919-23.003 2.8309-23.079-36.22-5.6618 39.778-25.669 3.1105 11.279-79.919 24.213-2.9897 22.113 34.762 5.4139-38.158zm208.54 4.6895-9.7826 20.251 14.189-1.6966zm-293.92 5.7825-11.279 79.957-25.872 3.1518 11.279-79.957zm-33.758 4.1653-3.1931 22.434-30.399 3.6792c-5.6996 0.72747-11.116 2.4241-11.965 8.8517l-2.9103 20.293c-0.7678 5.5782 3.1538 6.9528 7.4791 6.4274l32.782-4.0414-3.3138 22.352-48.223 5.9445h-0.0413c-9.7015 1.1723-16.979-4.6896-16.251-11.845l7.638-54.854c1.7384-6.9933 7.5201-11.762 14.958-12.652z" fill="#1c1a1b" stroke-width="2.169"/>
</svg>
