<svg width="800" height="454.72" version="1.1" viewBox="0 0 800 454.72" xmlns="http://www.w3.org/2000/svg">
 <g transform="matrix(19.981 0 0 19.981 -19.072 -100.09)">
  <path d="m21.061 24.86h2.2931v-8.1505h-2.2931z"/>
  <path d="m12.667 12.02v-0.02482c0-2.3655 1.8574-4.2235 4.3505-4.2235 1.6881 0 2.7616 0.69323 3.4933 1.6973l-1.7239 1.3119c-0.46985-0.58276-1.0067-0.95768-1.7954-0.95768-1.1515 0-1.9694 0.97609-1.9694 2.1465v0.0255c0 1.224 0.81791 2.1745 1.9694 2.1745 0.86022 0 1.3645-0.39005 1.8557-0.97922l1.7206 1.2007c-0.7774 1.0626-1.8248 1.8395-3.651 1.8395-2.3568 0-4.2498-1.7803-4.2498-4.2107z"/>
  <path d="m24.032 7.9319h2.2051l3.3145 4.4928v-4.4928h2.2576v8.1288h-2.2119l-3.3244-4.564v4.564h-2.2409z"/>
  <path d="m32.496 7.9319h7.1641v1.9194h-4.9002v1.2255h4.2041v1.7861h-4.2041v1.2791h4.9002v1.9186h-7.1641z"/>
  <path d="m15.753 18.685h-2.3518v-1.9691h6.9803v1.9691h-2.3516v6.1717h-2.2769z"/>
  <path d="m21.061 16.07h2.2931v-8.1456h-2.2931z"/>
  <path d="m24.032 16.716h2.2051l3.3145 4.505v-4.505h2.2576v8.1408h-2.2119l-3.3244-4.5665v4.5665h-2.2409z"/>
  <path d="m38.658 20.809v-0.01596c0-1.1481-0.81652-2.1554-2.0509-2.1554-1.2083 0-2.0215 0.97854-2.0215 2.1362v0.01923c0 1.1543 0.82942 2.1521 2.0442 2.1521 1.2278 0 2.0281-0.98495 2.0281-2.1362m-6.4159 0.01282v-0.02878c0-2.328 1.8915-4.2154 4.3878-4.2154 2.5078 0 4.3635 1.8618 4.3635 4.1962v0.01923c0 2.3216-1.8816 4.2083-4.3863 4.2083-2.5028 0-4.3651-1.8612-4.3651-4.1796"/>
  <path d="m0.95454 16.716h2.285v6.2861h2.8915l-0.79682 1.8547h-4.3798z"/>
  <path d="m11.426 21.535-0.87645-2.3152-0.88963 2.3184zm-1.8833-4.8199h2.0363l3.5194 8.1424h-2.4412l-0.66518-1.6821-2.8917 0.0033-0.67974 1.6789h-2.3956z"/>
 </g>
 <g transform="matrix(19.981 0 0 19.981 -19.072 -100.09)" fill="#3cb1e5">
  <path d="m21.061 7.2627h2.2931v-2.2536h-2.2931z"/>
  <path d="m21.061 27.767h2.2931v-2.2577h-2.2931z"/>
 </g>
</svg>
