<svg width="379.33mm" height="219.95mm" version="1.1" viewBox="0 0 379.33 219.95" xmlns="http://www.w3.org/2000/svg">
 <g transform="translate(148.19 -77.878)" fill="#ee463d">
  <path d="m-75.801 297.83q-15.231 0-25.475-10.244-10.109-10.244-10.109-25.341t10.109-25.341q10.244-10.244 25.475-10.244 9.8397 0 17.927 4.7177t12.266 12.67l-14.962 8.7614q-2.0219-4.1785-6.2004-6.6047-4.0437-2.4262-9.1657-2.4262-7.8178 0-12.94 5.2568-5.122 5.122-5.122 13.209 0 7.9526 5.122 13.209 5.122 5.122 12.94 5.122 5.2568 0 9.3005-2.2914 4.1785-2.4262 6.2004-6.6047l15.097 8.6266q-4.4481 7.9526-12.535 12.805-8.0874 4.7177-17.927 4.7177z"/>
  <path d="m-31.254 217.15q-4.3133 0-7.5483-3.1002-3.1002-3.235-3.1002-7.5482t3.1002-7.5483q3.235-3.235 7.5483-3.235 4.4481 0 7.5483 3.235 3.235 3.235 3.235 7.5483t-3.235 7.5482q-3.1002 3.1002-7.5483 3.1002z"/>
  <path d="m-39.881 295.94v-67.395h17.388v67.395z"/>
  <path d="m6.7705 240.14q2.4262-6.4699 7.9526-9.7049 5.6612-3.235 12.535-3.235v19.41q-7.9526-0.94354-14.288 3.235-6.2004 4.1785-6.2004 13.883v32.215h-17.388v-67.395h17.388z"/>
  <path d="m63.437 297.83q-15.231 0-25.475-10.244-10.109-10.244-10.109-25.341t10.109-25.341q10.244-10.244 25.475-10.244 9.8397 0 17.927 4.7177 8.0874 4.7177 12.266 12.67l-14.962 8.7614q-2.0219-4.1785-6.2004-6.6047-4.0437-2.4262-9.1657-2.4262-7.8178 0-12.94 5.2568-5.122 5.122-5.122 13.209 0 7.9526 5.122 13.209 5.122 5.122 12.94 5.122 5.2568 0 9.3005-2.2914 4.1785-2.4262 6.2004-6.6047l15.097 8.6266q-4.4481 7.9526-12.535 12.805-8.0874 4.7177-17.927 4.7177z"/>
  <path d="m98.757 295.94v-100.8h17.388v100.8z"/>
  <path d="m143.01 269.39q3.5046 12.67 19.005 12.67 9.9745 0 15.097-6.7395l14.018 8.0874q-9.9745 14.423-29.384 14.423-16.714 0-26.823-10.109t-10.109-25.475q0-15.231 9.9745-25.341 9.9745-10.244 25.61-10.244 14.827 0 24.397 10.244 9.7049 10.244 9.7049 25.341 0 3.3698-0.67395 7.1439zm-0.26958-13.479h34.372q-1.4827-6.8743-6.2004-10.244-4.5829-3.3698-10.514-3.3698-7.0091 0-11.592 3.6393-4.5829 3.5046-6.0656 9.9745z"/>
  <path transform="scale(.26458)" d="m156.77 294.34a716.84 716.84 0 0 0-716.84 716.84 716.84 716.84 0 0 0 8.9883 107.34h65.973a650.95 650.95 0 0 1-9.0703-107.34 650.95 650.95 0 0 1 650.95-650.95 650.95 650.95 0 0 1 650.96 650.95 650.95 650.95 0 0 1-9.6524 107.34h66.873a716.84 716.84 0 0 0 8.6699-107.34 716.84 716.84 0 0 0-716.85-716.84z" fill-rule="evenodd"/>
 </g>
</svg>
