<svg width="800" height="411.77" enable-background="new 0 0 499.371 257.283" space="preserve" version="1.1" viewBox="0 0 800 411.77" xmlns="http://www.w3.org/2000/svg">
 <link href="" rel="stylesheet" type="text/css"/>
 <style type="text/css"/>
 <polygon transform="scale(1.602)" points="13.89 250.26 33.121 250.26 33.121 256.49 7.54 256.49 7.54 214.27 13.89 214.27"/>
 <polygon transform="scale(1.602)" points="13.89 250.26 33.121 250.26 33.121 256.49 7.54 256.49 7.54 214.27 13.89 214.27"/>
 <polygon transform="scale(1.602)" points="70.249 220.5 48.541 220.5 48.541 231.87 67.528 231.87 67.528 237.68 48.541 237.68 48.541 250.26 70.249 250.26 70.249 256.49 42.186 256.49 42.186 214.27 70.249 214.27"/>
 <polygon transform="scale(1.602)" points="70.249 220.5 48.541 220.5 48.541 231.87 67.528 231.87 67.528 237.68 48.541 237.68 48.541 250.26 70.249 250.26 70.249 256.49 42.186 256.49 42.186 214.27 70.249 214.27"/>
 <polygon transform="scale(1.602)" points="91.354 220.5 78.709 220.5 78.709 214.27 110.4 214.27 110.4 220.5 97.761 220.5 97.761 256.49 91.354 256.49"/>
 <polygon transform="scale(1.602)" points="91.354 220.5 78.709 220.5 78.709 214.27 110.4 214.27 110.4 220.5 97.761 220.5 97.761 256.49 91.354 256.49"/>
 <polygon transform="scale(1.602)" points="126.18 256.49 119.77 256.49 119.77 214.27 126.18 214.27 126.18 231.63 145.05 231.63 145.05 214.27 151.47 214.27 151.47 256.49 145.05 256.49 145.05 237.68 126.18 237.68"/>
 <polygon transform="scale(1.602)" points="126.18 256.49 119.77 256.49 119.77 214.27 126.18 214.27 126.18 231.63 145.05 231.63 145.05 214.27 151.47 214.27 151.47 256.49 145.05 256.49 145.05 237.68 126.18 237.68"/>
 <path d="m288.75 410.9h-25.778v-67.638h24.229c12.499 0 22.668 5.0415 22.668 19.083 0 4.7532-1.4514 9.5928-4.8429 13.183 4.9454 3.6782 7.2731 9.5912 7.2731 15.592 3e-3 14.546-10.46 19.78-23.55 19.78zm-1.6437-57.661h-13.854v18.124h13.95c6.6852 0 12.403-0.8763 12.403-9.0177 2e-3 -8.135-5.7192-9.1058-12.499-9.1058zm1.6437 28.2h-15.499v19.477h15.499c7.1706 0 13.277-1.0605 13.277-9.7931 0-8.6204-6.1069-9.6842-13.277-9.6842z" stroke-width="1.602"/>
 <path d="m288.75 410.9h-25.778v-67.638h24.229c12.499 0 22.668 5.0415 22.668 19.083 0 4.7532-1.4514 9.5928-4.8429 13.183 4.9454 3.6782 7.2731 9.5912 7.2731 15.592 3e-3 14.546-10.46 19.78-23.55 19.78zm-1.6437-57.661h-13.854v18.124h13.95c6.6852 0 12.403-0.8763 12.403-9.0177 2e-3 -8.135-5.7192-9.1058-12.499-9.1058zm1.6437 28.2h-15.499v19.477h15.499c7.1706 0 13.277-1.0605 13.277-9.7931 0-8.6204-6.1069-9.6842-13.277-9.6842z" stroke-width="1.602"/>
 <path d="m369.06 410.9-13.372-23.934c-1.6533-3.0118-3.2008-4.6506-6.6852-4.6506h-8.0437v28.588h-10.275v-67.64h24.229c12.593 0 23.162 5.7144 23.162 19.663 0 9.2132-5.3379 16.089-14.351 18.228l17.257 29.746zm-14.149-57.661h-13.952v19.669h13.952c6.8742 0 12.403-2.033 12.403-9.9821 0-8.0437-5.5285-9.6874-12.403-9.6874z" stroke-width="1.602"/>
 <path d="m369.06 410.9-13.372-23.934c-1.6533-3.0118-3.2008-4.6506-6.6852-4.6506h-8.0437v28.588h-10.275v-67.64h24.229c12.593 0 23.162 5.7144 23.162 19.663 0 9.2132-5.3379 16.089-14.351 18.228l17.257 29.746zm-14.149-57.661h-13.952v19.669h13.952c6.8742 0 12.403-2.033 12.403-9.9821 0-8.0437-5.5285-9.6874-12.403-9.6874z" stroke-width="1.602"/>
 <rect x="397.63" y="343.26" width="10.56" height="67.64" stroke-width="1.602"/>
 <rect x="397.63" y="343.26" width="10.56" height="67.64" stroke-width="1.602"/>
 <path d="m478.53 391.81c-2.4238 16.185-13.656 19.091-28.104 19.091h-21.414v-67.638h21.414c14.449 0 25.68 2.8099 28.104 19.083 0.68566 4.7532 0.77698 9.8908 0.77698 14.732 0 4.7516-0.0913 9.9805-0.77698 14.732zm-28.106-38.57h-11.136v47.581h11.136c19.291 0 18.607-6.5907 18.607-23.74 0-17.247 0.68566-23.841-18.607-23.841z" stroke-width="1.602"/>
 <path d="m478.53 391.81c-2.4238 16.185-13.656 19.091-28.104 19.091h-21.414v-67.638h21.414c14.449 0 25.68 2.8099 28.104 19.083 0.68566 4.7532 0.77698 9.8908 0.77698 14.732 0 4.7516-0.0913 9.9805-0.77698 14.732zm-28.106-38.57h-11.136v47.581h11.136c19.291 0 18.607-6.5907 18.607-23.74 0-17.247 0.68566-23.841-18.607-23.841z" stroke-width="1.602"/>
 <path d="m537.13 410.9v-6.203c-3.5789 4.6506-9.2003 7.0745-15.011 7.0745-20.259 0-27.335-17.15-27.335-34.692 0-17.827 7.2715-34.69 27.817-34.69 10.749 0 16.462 5.0399 23.247 12.885l-7.938 6.4994c-4.0771-5.1408-8.4346-9.3093-15.309-9.3093-14.447 0-17.545 12.787-17.545 24.615 0 11.339 2.9044 24.615 17.06 24.615 10.266 0 14.623-9.3061 14.623-18.603h-16.855v-10.085h26.649v37.896h-9.4038v-3e-3z" stroke-width="1.602"/>
 <path d="m537.13 410.9v-6.203c-3.5789 4.6506-9.2003 7.0745-15.011 7.0745-20.259 0-27.335-17.15-27.335-34.692 0-17.827 7.2715-34.69 27.817-34.69 10.749 0 16.462 5.0399 23.247 12.885l-7.938 6.4994c-4.0771-5.1408-8.4346-9.3093-15.309-9.3093-14.447 0-17.545 12.787-17.545 24.615 0 11.339 2.9044 24.615 17.06 24.615 10.266 0 14.623-9.3061 14.623-18.603h-16.855v-10.085h26.649v37.896h-9.4038v-3e-3z" stroke-width="1.602"/>
 <polygon transform="scale(1.602)" points="381.31 220.5 359.59 220.5 359.59 231.87 378.58 231.87 378.58 237.68 359.59 237.68 359.59 250.26 381.31 250.26 381.31 256.49 353.24 256.49 353.24 214.27 381.31 214.27"/>
 <polygon transform="scale(1.602)" points="381.31 220.5 359.59 220.5 359.59 231.87 378.58 231.87 378.58 237.68 359.59 237.68 359.59 250.26 381.31 250.26 381.31 256.49 353.24 256.49 353.24 214.27 381.31 214.27"/>
 <path d="m302.29 222.32c-4.8733-4.9214-10.815-8.8046-17.665-11.515-6.8278-2.6786-14.519-4.0547-22.84-4.0547-8.3449 0-15.991 1.3761-22.753 4.0659-6.7797 2.6994-12.691 6.581-17.552 11.504-4.8653 4.947-8.6605 10.995-11.301 17.994-2.6129 6.9431-3.9121 14.75-3.9121 23.21 0 8.4826 1.2992 16.249 3.9313 23.127 2.6225 6.9239 6.4176 12.954 11.283 17.885 4.8733 4.9294 10.79 8.7774 17.571 11.421 6.7493 2.6225 14.397 3.9458 22.734 3.9458 8.3192 0 16.002-1.3233 22.814-3.9458 6.8742-2.6401 12.819-6.4913 17.691-11.421 4.8525-4.931 8.6524-10.955 11.283-17.885 2.6145-6.8774 3.9345-14.662 3.9345-23.127 0-8.4618-1.3201-16.267-3.9153-23.21-2.6497-7.0072-6.4513-13.064-11.304-17.994m-19.953 52.6c-0.70969 3.4988-1.9352 6.6772-3.6286 9.4326-1.6324 2.6385-3.8144 4.7708-6.5618 6.3247-2.7234 1.5748-6.2094 2.3742-10.362 2.3742-4.1396 0-7.5759-0.7978-10.237-2.355-2.6882-1.5748-4.8637-3.7054-6.4833-6.3456-1.7126-2.7651-2.9381-5.9434-3.6302-9.4326-0.73052-3.6462-1.131-7.4429-1.131-11.302 0-3.8544 0.3989-7.6928 1.131-11.395 0.69207-3.5516 1.916-6.7156 3.6045-9.4214 1.6276-2.5904 3.8304-4.7371 6.5458-6.3888 2.6401-1.6052 6.0588-2.4158 10.198-2.4158 4.122 0 7.5983 0.82183 10.323 2.4335 2.8035 1.6709 4.9678 3.7599 6.6179 6.3728 1.6741 2.7042 2.8996 5.8505 3.6093 9.4214 0.75134 3.7327 1.1102 7.5583 1.1102 11.395 3e-3 3.8208-0.35565 7.6208-1.107 11.302zm-211.26-7.5951h33.136c-1.8535 3.8929-4.1604 7.4269-6.8566 10.495-1.0253 1.2352-2.2028 2.4383-3.5629 3.7199-0.84586 0.7898-1.775 1.4835-2.7442 2.1259-5.8137 4.287-12.649 6.7637-19.974 6.7637-21.092 0-38.169-20.551-38.169-45.899 0-25.329 17.076-45.882 38.169-45.882 13.648 0 26.848 7.1257 33.136 21.502h31.728c-1.3569-9.8123-5.7608-18.635-10.437-26.116-3.3722-5.0736-7.4429-9.4791-12.164-13.143-5.6984-4.4183-12.164-7.8002-19.221-10.089-7.0296-2.27-14.389-3.4091-21.891-3.4091-11.113 0-21.294 2.0041-30.259 5.9547-8.9456 3.9698-16.638 9.5143-22.829 16.486-6.1741 6.9511-10.961 15.197-14.226 24.493-3.2489 9.2628-4.9118 19.407-4.9118 30.198 0 10.52 1.6405 20.474 4.8893 29.607 3.2697 9.1763 8.0549 17.286 14.199 24.126 6.1613 6.8358 13.817 12.279 22.781 16.172 8.9472 3.8865 19.126 5.8505 30.257 5.8505 7.1898 0 14.407-1.4947 21.446-4.4552 5.0527-2.1243 9.8011-5.4148 14.226-9.8155v11.164h28.815v-79.013l-65.54 0.0192v29.147l0.0032-3e-3zm85.9 49.925h34.056v-146.45h-34.056zm452.02-146.44h-34.06v146.45h34.06zm-181.32 49.725c-4.2918-4.6346-9.1731-8.1286-14.546-10.397-5.3171-2.2348-10.806-3.3818-16.32-3.3818-6.6467 0-13.181 1.3201-19.354 3.9137-3.8176 1.5828-7.1594 3.7615-10.065 6.4994v-46.359h-34.068v146.56h32.57v-7.5599c2.7122 2.7154 5.9627 4.8541 9.705 6.352 6.2478 2.4783 13.39 3.7455 21.196 3.7455 5.4917 0 10.999-1.1358 16.336-3.3818 5.3763-2.2492 10.237-5.7432 14.529-10.399 4.2373-4.5705 7.7281-10.503 10.37-17.627 2.6033-7.0456 3.9329-15.52 3.9329-25.168 0-9.6185-1.3297-18.083-3.9329-25.168-2.6209-7.0825-6.1181-13.008-10.352-17.628zm-21.081 54.59c-0.83624 3.5709-2.1867 6.7525-3.9329 9.4583-1.7077 2.6017-3.8544 4.7195-6.4 6.2302-2.4687 1.4819-5.551 2.2412-9.1747 2.2412-3.5356 0-6.5923-0.78018-9.1186-2.2604-2.6033-1.4899-4.7692-3.6077-6.4946-6.2078-1.7494-2.7186-3.0807-5.9018-3.9105-9.4583-0.8763-3.6734-1.2928-7.5439-1.2928-11.502 0-4.0947 0.41492-8.0373 1.2928-11.703 0.83304-3.5709 2.1627-6.7541 3.9105-9.4551 1.7478-2.6337 3.8528-4.6827 6.4946-6.2238 2.544-1.4803 5.6134-2.2396 9.1186-2.2396 3.6238 0 6.7044 0.76256 9.1747 2.2252 2.5808 1.5588 4.6731 3.5885 6.4 6.2398 1.7462 2.7042 3.0967 5.8762 3.9329 9.4567 0.85387 3.683 1.2992 7.6368 1.2992 11.701-2e-3 3.9425-0.44536 7.813-1.2992 11.498zm144.86-53.059c-3.0566-4.106-6.9912-7.3708-11.72-9.6793-4.6218-2.2492-9.745-3.7615-15.253-4.5193-5.3571-0.73211-10.713-1.1118-15.932-1.1118-5.8121 0-11.648 0.58153-17.401 1.7414-5.8874 1.1919-11.259 3.1896-15.972 5.9627-4.8284 2.8452-8.8527 6.6852-11.985 11.368-3.1704 4.7612-4.9951 10.761-5.4132 17.846l-0.0769 2.2412h33.98l0.11214-1.7878c0.45337-4.6714 1.8968-7.9572 4.3078-9.8219 2.5664-1.9544 6.3087-2.9509 11.047-2.9509 2.3277 0 4.5112 0.1634 6.4977 0.46298 1.7382 0.26753 3.2777 0.7994 4.5705 1.5764 1.1406 0.70168 2.0698 1.6949 2.8115 3.023 0.70168 1.2912 1.0814 3.2264 1.0814 5.7128 0.11534 2.669-0.76897 3.7263-1.4402 4.2742-1.4835 1.2352-3.5709 2.1739-6.2703 2.8468-2.9637 0.74333-6.4289 1.3297-10.312 1.7077-4.106 0.38128-8.3 0.91955-12.516 1.5892-4.2453 0.67925-8.5515 1.602-12.747 2.741-4.4648 1.1983-8.4506 3.039-11.908 5.4484-3.5709 2.5023-6.5154 5.8906-8.7694 10.033-2.2492 4.1844-3.4075 9.4743-3.4075 15.724 0 5.6791 0.98524 10.685 2.9221 14.883 1.9592 4.2277 4.7083 7.7874 8.2071 10.568 3.4171 2.7346 7.4606 4.7756 12.004 6.0572 4.444 1.2736 9.266 1.8952 14.338 1.8952 6.5346 0 13.031-0.97722 19.28-2.8996 4.6154-1.4066 8.8303-3.6093 12.59-6.5538 0.0352 0.19063 0.0913 0.38127 0.13296 0.5623v6.1629l31.989 0.15379-0.0577-78.604c0-6.7861-1.5828-12.39-4.6907-16.653zm-29.342 52.858c0 1.4194-0.1554 3.4043-0.4774 5.9386-0.29797 2.222-1.0269 4.4616-2.2588 6.6451-1.1791 2.1002-3.0598 3.9522-5.5846 5.5077-2.4671 1.5203-6.2094 2.2989-11.07 2.2989-1.9945 0-3.989-0.18743-5.8714-0.55109-1.6917-0.30278-3.1544-0.85387-4.3863-1.6324-1.1422-0.70329-1.9753-1.6613-2.6401-2.9044-0.68085-1.2528-1.0237-2.8868-1.0237-4.8621 0-2.1275 0.34283-3.8208 1.0237-5.072 0.68566-1.3008 1.594-2.3918 2.7362-3.2457 1.2287-0.89232 2.6786-1.6517 4.3879-2.1964 1.9-0.61677 3.8384-1.107 5.7656-1.4915 2.1579-0.36205 4.3062-0.69527 6.408-0.94679 2.206-0.2435 4.4087-0.59114 6.5458-1.0157 2.1595-0.40851 4.1876-0.94358 6.0476-1.5684 0.13617-0.0561 0.26754-0.11214 0.4021-0.15379l-5e-3 5.2498z" stroke-width="1.602"/>
 <path d="m798.56 167.84c-7.2763-7.6512-16.185-14.606-27.217-21.283l-196.56-146.56v111.93l136.6 98.304 0.19865 0.14258 0.22107 0.11054c2.5152 1.4947 5.458 4.4392 5.458 7.8418 0 3.0823-2.4895 6.5859-5.9082 8.316l-0.2419 0.13457-0.2323 0.13457-60.059 38.648v100.84l119.65-75.56c11.868-7.1626 20.815-13.864 28.013-21.082l1.5187-1.5171v-98.886l-1.4402-1.5203" fill="#e21f26" stroke-width="1.602"/>
</svg>
