<svg width="1e3" height="163.27" enable-background="new -194 314.366 1000 163.269" space="preserve" version="1.1" viewBox="-194 314.37 1e3 163.27" xmlns="http://www.w3.org/2000/svg">
 <link href="" rel="stylesheet" type="text/css"/>
 <style type="text/css"/>
 <path d="m251.25 317.24h15.296l32.99 92.501 12.427 34.9h0.957l12.192-34.9 32.742-92.501h15.534v157.51h-10.753v-103.49c0-12.912 0.719-29.401 1.429-42.549h-0.956l-12.192 34.654-33.936 94.176h-9.56l-33.945-94.176-12.43-34.654h-0.955c0.472 13.147 1.192 29.637 1.192 42.549v103.49h-10.042v-157.51zm151.78 0h10.989v95.843c0 41.83 19.84 54.495 42.068 54.495 22.707 0 42.784-12.665 42.784-54.495v-95.843h10.518v97.045c0 49.242-26.298 63.336-53.302 63.336-27.253 0-53.068-14.104-53.068-63.336v-97.045zm133.84 129.07c11.475 12.911 27.963 21.27 46.374 21.27 23.901 0 39.198-12.901 39.198-31.55 0-19.604-12.911-26.06-28.446-32.989l-23.899-10.753c-13.623-5.974-31.787-15.771-31.787-39.199 0-22.708 19.604-38.725 45.655-38.725 19.119 0 34.417 8.605 43.977 18.884l-6.455 7.412c-9.087-9.797-21.752-16.253-37.521-16.253-20.799 0-34.655 10.999-34.655 28.208 0 18.166 15.77 25.095 27.252 30.357l23.901 10.517c17.446 7.885 32.988 17.691 32.988 41.83s-19.84 42.303-50.435 42.303c-22.945 0-40.638-9.796-53.064-23.665zm122.38-129.07h10.998v157.51h-10.998zm101.34-2.868c18.401 0 32.506 9.087 40.873 18.884l-6.454 7.176c-8.605-9.561-20.078-16.016-34.419-16.016-34.418 0-55.934 27.489-55.934 71.23 0 43.742 21.27 71.941 54.977 71.941 16.255 0 28.445-6.456 39.918-19.357l6.458 6.929c-11.957 13.867-26.298 22.473-46.848 22.473-38.725 0-65.967-31.787-65.967-81.985-0.01-49.962 27.243-81.275 67.396-81.275z"/>
 <path d="m216.7 317.25v50.51h-18.308v-3.493c0-13.261-3.567-27.441-13.554-27.441-6.314 0-9.38 6.91-9.38 21.138v82.182c0 11.132 2.261 16.263 7.563 17.181l0.084 0.02 5.085 1.495v15.94h-57.667v-15.958l1.117-0.295s4.306-1.154 4.45-1.192c5.063-0.908 7.316-6.22 7.316-17.181v-82.183c0-14.227-3.075-21.138-9.389-21.138-9.969 0-13.537 14.181-13.537 27.442v3.493h-18.308v-50.51h114.53v-0.01zm-177.76 0s-22.975 71.998-25.454 79.864c-2.633-7.838-26.686-79.864-26.686-79.864h-57.279v15.959l5.425 1.467c4.544 0.833 7.193 7.251 7.193 17.219v88.25c0 10.962-2.177 16.271-7.079 17.181-0.114 0.038-4.42 1.193-4.42 1.193l-1.108 0.293v15.96h46.478v-16.026l-6.9-1.4c-5.169-1.117-7.374-6.267-7.374-17.2v-80.64c4.279 12.628 38.858 115.11 38.858 115.11h8.622s35.07-102.7 39.331-115.19v80.726c0 10.934-2.206 16.083-7.364 17.2 0.019 0-5.689 1.154-5.689 1.154l-1.193 0.246v16.045h59.057v-15.96l-5.291-1.467c-5.197-0.937-7.45-6.257-7.45-17.219v-88.25c0-9.968 2.631-16.396 7.061-17.2 0.122-0.028 4.308-1.193 4.308-1.193l1.097-0.303v-15.95zm-232.94 52.858v46.221c0 27.604 15.203 59.854 58.036 59.854 39.766 0 53.89-27.716 53.89-51.438v-1.515h-29.712v1.515c0 23.163-7.215 33.509-23.401 33.509-18.781 0-20.797-21.326-20.797-30.479v-69.575c0-16.65 7.081-24.413 22.293-24.413 18.865 0 21.913 9.599 21.913 32.554v1.505h29.713v-51.296h-20.635v1.496c0 5.964-1.476 5.964-2.641 5.964-2.546 0-7.278-1.524-11.774-3.796-6.987-3.143-13.859-4.601-21.688-4.601-33.018 9e-3 -55.197 28.179-55.197 54.495z"/>
</svg>
