<svg width="800" height="614.29" version="1.1" viewBox="0 0 800 614.29" xmlns="http://www.w3.org/2000/svg">
 <g transform="matrix(23.78 0 0 23.78 -95.122 -71.339)" fill="none" fill-rule="evenodd">
  <g fill="#000">
   <g transform="translate(4,3)">
    <path d="m29.435 8.4065v2.6594c0 0.07385-0.06102 0.13415-0.13575 0.13415h-0.86766c-0.07473 0-0.13575-0.06031-0.13575-0.13415v-0.0195l-1.83e-4 -1.81e-4v-0.06608c0-0.80112-0.2165-1.6571-0.82344-1.6571-0.38221 0-0.5682 0.41708-0.5682 1.2747v4.985c0 0.92011 0.2662 0.98908 0.44232 1.0346l0.24372 0.06211 0.0013 0.0029c0.05828 0.01499 0.1025 0.06518 0.1025 0.12747v0.74858c0 0.07385-0.06121 0.13415-0.13575 0.13415h-3.2923c-0.07454 0-0.13575-0.0603-0.13575-0.13415v-0.1049l-1.82e-4 -3.61e-4v-0.56117l1.82e-4 -5.42e-4v-0.08107c0-0.06067 0.04202-0.11014 0.09829-0.12657l0.0013-0.0027 0.24738-0.06374c0.17612-0.0455 0.44232-0.11447 0.44232-1.0346v-4.985c0-0.85764-0.18544-1.2747-0.56693-1.2747-0.59945 0-0.81723 0.83525-0.82234 1.6277v0.1152c0 0.07385-0.06121 0.13415-0.13575 0.13415h-0.86966c-0.07454 0-0.13575-0.06031-0.13575-0.13415v-2.8123c0-0.073847 0.06121-0.13415 0.13575-0.13415h6.7746c0.07472 0 0.13575 0.060306 0.13575 0.13415zm-7.5641-0.11231v0.7085c0 0.059583-0.04056 0.10851-0.09519 0.12603l-9.13e-4 0.00235-0.25122 0.063556c-0.17613 0.0455-0.44232 0.11429-0.44232 1.0344v5.3538c0 0.91993 0.26053 0.99251 0.43684 1.038l0.25487 0.06247c0.05609 0.01661 0.09793 0.0659 0.09793 0.12639v0.74859c0 0.07385-0.06102 0.13415-0.13593 0.13415h-3.3778c-0.07454 0-0.13575-0.0603-0.13575-0.13415v-0.04694l-3.65e-4 -5.42e-4v-0.67943l3.65e-4 -7.22e-4v-0.01372c0-0.06337 0.04568-0.11411 0.10524-0.12819 0 0 0.13684-0.01968 0.32905-0.0697 0.17613-0.04586 0.44141-0.11682 0.44141-1.0362v-4.8476l-2.3704 6.8591-9.13e-4 5.41e-4c-0.01955 0.05056-0.06851 0.08703-0.12625 0.08703h-0.34567c-0.05792 0-0.1067-0.03647-0.12625-0.08703l-0.0011-5.41e-4 -2.3415-6.8533v4.8418c0 0.91939 0.2662 0.99233 0.44232 1.038 0.16809 0.04369 0.32357 0.06681 0.32357 0.06681 0.0623 0.01228 0.11054 0.06428 0.11054 0.1291v0.74154c0 0.07385-0.06102 0.13415-0.13575 0.13415h-2.6145c-0.07454 0-0.13575-0.0603-0.13575-0.13415v-0.74566c0-0.06211 0.04403-0.1123 0.10195-0.12747l0.245-0.06157c0.17613-0.04568 0.44251-0.12079 0.44251-1.0407v-5.3538c0-0.92011-0.2662-0.9889-0.44232-1.0344l-0.25469-0.065722-0.0011-0.00199c-0.0528-0.018236-0.09135-0.066986-0.09135-0.12512v-0.74827c0-0.073847 0.06121-0.13415 0.13575-0.13415h3.3143c0.05865 0 0.10743 0.037556 0.12643 0.089195l0.0018 0.00126 1.5986 4.736 1.5263-4.7313 0.0026-0.00163c0.01772-0.053806 0.06724-0.093528 0.12734-0.093528h3.1264c0.07491 0 0.13593 0.060306 0.13593 0.13415zm-10.774-0.036111v2.8131c0 0.07367-0.06102 0.13415-0.13575 0.13415h-1.5694c-0.074725 0-0.13575-0.06049-0.13575-0.13415v-0.12242c-0.0056602-1.3403-0.43483-1.8095-1.337-1.8095-0.88629 0-1.3595 0.468-1.3595 1.473v4.2203c0 0.55322 0.12351 1.8402 1.2683 1.8402 0.9813 0 1.4223-0.61678 1.4282-1.9973v-0.02329c0-9.02e-4 5.481e-4 -0.0016 5.481e-4 -0.0025v-0.0016l3.654e-4 -1.81e-4c0.00219-0.05435 0.04732-0.09858 0.10304-0.09858h1.633c0.05536 0 0.1003 0.04406 0.10304 0.09822l9.14e-4 5.42e-4c0 0.0011-1.83e-4 0.0023-1.83e-4 0.0036 0 1.8e-4 1.83e-4 3.61e-4 1.83e-4 5.41e-4v0.04117c0 0.0036-0.0018 0.0067-0.0022 0.01029-0.02174 1.4307-0.89762 3.0732-3.3146 3.0732-2.6355 0-3.5706-1.9598-3.5706-3.6382v-2.8042c0-1.6001 1.3641-3.3134 3.3952-3.3134 0.48617 0 0.94804 0.10761 1.3436 0.27264 0.18234 0.076195 0.56272 0.22443 0.66979 0.23617 0.030146 0.00325 0.053349 7.222e-4 0.06358-1.806e-4 0.010414-7.222e-4 0.021924-0.00289 0.032887-0.0065 0.056455-0.01625 0.099025-0.066083 0.099025-0.12693v-0.188c0.00183-0.072222 0.061388-0.1309 0.1352-0.1309h1.0124c0.07472 0 0.13575 0.060486 0.13575 0.13415zm21.281-2.4086-14.429-5.6604c-0.64311-0.25206-1.6122-0.25206-2.2553 0l-14.429 5.6604c-0.70907 0.27842-1.2645 1.0869-1.2645 1.8409v10.416c0 0.75364 0.55469 1.5627 1.263 1.8422l14.43 5.692c0.32466 0.12801 0.73319 0.19211 1.1408 0.19211 0.39829 0 0.79585-0.06121 1.1136-0.1838l14.425-5.5662c0.71199-0.27462 1.2694-1.0813 1.2694-1.8366v-10.555c0-0.754-0.55542-1.5625-1.2647-1.8409z"/>
   </g>
  </g>
 </g>
</svg>
