<svg enable-background="new 0 0 800 725.6" version="1.1" viewBox="0 0 800 725.6" xml:space="preserve" xmlns="http://www.w3.org/2000/svg">
<g transform="matrix(1.6304 0 0 1.6304 -823.28 -79.232)">
	<path d="m984.4 242.1c-15-17.1-32.5-26.2-58.5-20.3 21.6-16.6 36.9-37.2 28-69.3-9.2-33.2-44-40.1-56.6-39.1-12.7 1-29 5-37 13.6 7.9-23.9 0.5-48.1-12.7-61-14.1-13.9-41.4-25.1-69.1-10.8-18.8 9.7-24.5 25-27.9 38.6-5.4-12.7-12.6-38.2-42.2-44.1-21.1-4.1-44 3.6-56.9 17.9-11.6 12.9-19.3 33.2-10.3 59.6-20.5-18.2-40.5-17.2-56.2-12.9-16.5 4.4-34.7 20.4-39.5 43.5-2.1 10.1-3.2 42.7 27 61.7-28-4.7-40.9 3-56.7 22.5-15.1 18.7-12.3 47.6-4.6 62.1 7.8 14.6 24.8 31.9 50.4 31.9h378.3c15.3 0 32.4-4.1 46.3-24.6 13.6-20.2 12.1-53.5-1.8-69.3" fill="#fff"/>
	<g fill="#2486C8">
		<path d="m649.9 153.3 69.1 157.7-142.4-97.5c-35.7-23.7-28.5-64.2-8.7-82.1 28-23.5 67.5-15.4 82 21.9"/>
		<path d="m744.5 116-25.1 176.7-71.4-168c-15.5-42 19.3-69.5 42.5-70 26.5-2.8 59.8 17.4 54 61.3"/>
		<path d="m853.1 124.2-70.9 168.5-22.7-152.1c-1.9-23.2 12.5-23.6 17.8-28-1-3.4-8.2-3.4-8.2-3.4h-13.5c-1.5-39.6 29.4-56.9 54.5-55 27.1 1 57.5 32.4 43 70"/>
		<path d="m925.5 212.6-142.4 98 67.1-155.9c20.3-49.3 67.6-39.6 84.5-20.8 18.3 18.4 23.6 55.5-9.2 78.7"/>
		<path d="m940.5 327.9h-164.6l133.7-93.1c32.9-21.7 67.6-1.9 76.8 26.5 9.6 31.9-12.1 66.6-45.9 66.6"/>
		<path d="m514.3 259.4c12.5-32.8 47.3-44.4 78.2-24.6l133.7 93.1h-162.2c-33.8 0-60.3-30.8-49.7-68.5"/>
	</g>
</g>
<g transform="matrix(1.0019 0 0 1.0019 -.00050648 581.11)">
	<path d="M139.5-41.2c-2.9-14.3-14.6-18-27.7-19.2c-42.2-3.9-49.7,27.6-49.7,41c0,22.8,6.7,41.7,48.1,41.7c7.6,0,28.8-7.9,28.8-20.7   h59.6c-2.4,37.9-66.2,47-94,47C47,48.5-2.3,37.8,0.1-19c1.7-40.5,40-69,116.1-67.2c42.4,1,83.2,14.2,83.4,44.9L139.5-41.2z"/>
	<path d="m736.6-41.2c-2.9-14.3-14.6-18-27.7-19.2-42.2-3.9-49.7 27.6-49.7 41 0 22.8 6.6 41.7 48.1 41.7 7.6 0 28.7-7.9 28.7-20.7h59.6c-2.4 37.9-66.2 47-94 47-57.6 0-106.9-10.7-104.5-67.5 1.7-40.5 40-69 116.1-67.2 42.4 1 83.2 14.2 83.4 44.9h-60z"/>
	<polygon points="353.6 9.2 354.2 9.2 354.2 -83.4 403.8 -83.4 403.8 45.1 329.6 45.1 260.4 -47.4 259.8 -47.4 259.8 45.1 210.2 45.1 210.2 -83.4 287.6 -83.4"/>
	<path d="m419.1-83.4h94c45.2 0 71.7 12.6 71.7 31.7 0 11.3-11.1 25.2-35.9 29.3v0.4c29.9 1.8 40.9 20.7 40.9 32 0 22.7-25.9 35.3-76.4 35.3h-94.3v-128.7zm54.4 49.9h15.6c24 0 36.7-1.9 36.7-11.8 0-10.7-10.6-14.2-32.2-14.2h-20.1v26zm0 51.7h15.6c28.9 0 39.5-3 39.5-13 0-10.7-13.4-14.3-35-14.3h-20.1v27.3z"/>
	<polygon points="0.5 65.8 26.1 66.1 43.8 119.1 65.5 66.1 95.3 66.1 116.3 119.9 134.9 66.1 159.6 65.8 130.4 143 103.9 143 80 85.1 56.3 143 28.5 143"/>
	<path d="m209 104.9c0-9.1 2.6-16.7 7.8-22.6s12.1-10.4 20.5-13.3 18.7-4.3 30.7-4.3c17.4 0 31.6 3.4 42.6 10.3s16.5 16.7 16.5 29.5c0 12.9-5.8 22.9-17.4 30.2-10.2 6.4-24 9.6-41.5 9.6-17.6 0-31.5-3.2-41.7-9.5-11.7-7.3-17.5-17.3-17.5-29.9zm25.4-0.5c0 8.9 3.2 15.5 9.7 19.9s14.5 6.6 24.1 6.6 17.6-2.2 24-6.6c6.3-4.4 9.5-11.2 9.5-20.3 0-8.9-3.1-15.4-9.3-19.7s-14.2-6.4-24.2-6.4-18.1 2.2-24.4 6.5-9.4 11-9.4 20z"/>
	<path d="m388.2 143v-77.2h51.8c13.2 0 22.7 0.7 28.3 2.1 5.7 1.4 10.3 3.8 14 7.2 3.6 3.4 5.5 7.5 5.5 12.3 0 6.1-2.8 11-8.5 14.6-5.7 3.7-13.7 6-24.1 6.9 5.3 2 9.6 4.2 13 6.6s8.1 6.5 14.1 12.5l14.8 15h-29.5l-17.7-16.7c-6.4-6-10.7-9.8-12.9-11.4-2.2-1.5-4.6-2.6-7.1-3.2s-6.5-0.9-12.1-0.9h-5v32.2h-24.6zm24.6-44.6h18.2c11.1 0 18.2-0.2 21.2-0.8 3-0.5 5.5-1.5 7.4-3.1s2.8-3.6 2.8-6.2c0-2.5-0.9-4.5-2.8-6s-4.4-2.5-7.7-3c-2.3-0.4-8.9-0.6-19.9-0.6h-19.2v19.7z"/>
	<polygon points="576.8 66.6 576.8 130.1 637.6 130.1 637.6 143 552.2 143 552.2 66.6"/>
	<path d="m696.6 65.8h44.8c11.3 0 19.9 0.7 25.6 2 5.8 1.3 11.1 3.5 15.9 6.6 4.9 3.1 8.7 7.2 11.4 12.1s4.1 11.2 4.1 18.6c0 6.7-1.5 12.5-4.3 17.4-2.9 5-6.6 8.9-11 11.7-4.5 2.9-9.8 5-16.1 6.5-6.3 1.4-14.4 2.2-24.3 2.2h-46.1v-77.1zm24.6 12.9v51.5h18.4c7.9 0 13.6-0.4 17.1-1.2s6.4-2 8.7-3.6 4.1-4.1 5.6-7.5 2.2-7.8 2.2-13.3c0-5.8-0.8-10.3-2.3-13.6s-3.9-5.9-7.1-7.9c-3.2-1.9-7.1-3.2-11.6-3.7-3.4-0.5-10.1-0.7-19.9-0.7h-11.1z"/>
</g>
</svg>
