<svg enable-background="new 0 0 863.7 342.3" version="1.1" viewBox="0 0 863.7 342.3" xml:space="preserve" xmlns="http://www.w3.org/2000/svg">
<style type="text/css">
	.st0{fill:#E82133;}
	.st1{fill:none;stroke:#FFFFFF;stroke-width:11.7417;}
	.st2{stroke:#E82133;stroke-width:25.7164;}
	.st3{fill:#FFFFFF;}
	.st4{fill:none;stroke:#FFFFFF;stroke-width:2.5722;}
</style>
	<path class="st0" d="m718.4 0c80.2 0 145.3 64.5 145.3 144.1s-65 144.1-145.3 144.1-145.2-64.5-145.2-144.1 65-144.1 145.2-144.1z"/>
	<path class="st0" d="m184.7 202.9c5.3 0 8.9-4.3 8.9-9.1v-133.9c0-50.1 64.5-74.1 98.6-16 34.9 59.4 54.8 93.8 54.8 93.8v-77.8c0-50.1 64.4-74.1 98.5-16 34.9 59.4 55.3 93.8 55.3 93.8v-126.7h76.8v222c0.2 57.1-67.3 66.1-95.1 20.4-16.4-26.9-58.2-95.6-58.2-95.6v75.2c0.2 57.1-67.3 66.1-95.2 20.4-16.4-26.9-58.2-95.6-58.2-95.6v67.9c0 34.7-20.6 53.6-52.6 53.5h-74.5c-190.4 0-192.2-268.2-2.4-268.2h42.3v76s-12.1-0.1-46.7 0c-77.7 0.1-85.8 116 5.5 115.9h42.2z"/>
	<path class="st1" d="m539.3 11v217.1c0 14-13.3 17.1-20.1 7.7 0 0-90.1-143.1-112.8-180-6.7-9.5-20.9-6.3-20.9 7.7v164.6c0 13.9-13 17.1-19.6 7.6 0 0-90.1-143.1-112.8-179.9-6.7-9.5-21-6.3-20.9 7.7v163.5c0 7.5-6.3 13.7-13.9 13.7h-79.6c-135.5 0-131.4-191.3-3.3-191.5h49"/>
	<path class="st2" d="m718.4 12.9c73.1 0 132.3 58.8 132.3 131.2 0 72.5-59.2 131.2-132.3 131.2s-132.3-58.8-132.3-131.2c0.1-72.5 59.3-131.2 132.3-131.2z"/>
			<path class="st3" d="m64.5 333.4h-17.6l-3.1 7.8h-11.3l16.9-38.1h12.6l16.9 38.1h-11.3l-3.1-7.8zm-8.8-22-6 15.1h12.1l-6.1-15.1z" fill="#2d2d2d"/>
			<path class="st3" d="m124.3 303.2h10.4v38.1h-10.4v-38.1z" fill="#2d2d2d"/>
			<path class="st3" d="m182.9 303.2h27.9c10.6 0 12.4 6.4 12.4 10.3 0 4.6-1.9 7.6-6.3 9.2v0.1c4.6 0.7 5.3 6.5 5.3 10.2 0 1.9 0.1 6.3 2 8.2h-11.4c-1-1.8-1-3.3-1-7.3 0-5.4-2.3-6.7-5.5-6.7h-12.9v13.9h-10.5v-37.9zm10.5 16.8h13.8c2.3 0 5-1.3 5-4.9 0-3.8-3-4.7-5.5-4.7h-13.3v9.6z" fill="#2d2d2d"/>
			<path class="st3" d="m271.2 303.2h25.8c10.9 0 13.6 6.4 13.6 11.6 0 8.1-4.3 12.9-12.7 12.9h-16.2v13.6h-10.5v-38.1zm10.5 17.5h11.2c3.2 0 7-0.1 7-5.2 0-5-3.1-5.4-6-5.4h-12.1l-0.1 10.6z" fill="#2d2d2d"/>
			<path class="st3" d="m380.3 302.1c20.7 0 23.9 12.2 23.9 20.2 0 7.9-3.2 20.1-23.9 20.1s-23.9-12.2-23.9-20.1c0-8 3.2-20.2 23.9-20.2zm0 33c9.5 0 12.8-7 12.8-12.8 0-5.9-3.3-12.9-12.8-12.9s-12.8 6.9-12.8 12.9c0 5.8 3.3 12.8 12.8 12.8z" fill="#2d2d2d"/>
			<path class="st3" d="m451.8 303.2h27.9c10.7 0 12.4 6.4 12.4 10.3 0 4.6-1.9 7.6-6.2 9.2v0.1c4.6 0.7 5.3 6.5 5.3 10.2 0 1.9 0.2 6.3 2 8.2h-11.4c-0.9-1.8-1-3.3-1-7.3 0-5.4-2.3-6.7-5.6-6.7h-13v13.9h-10.4v-37.9zm10.5 16.8h13.8c2.3 0 5-1.3 5-4.9 0-3.8-3-4.7-5.5-4.7h-13.3v9.6z" fill="#2d2d2d"/>
			<path class="st3" d="m551.8 310.4h-14.3v-7.3h39v7.3h-14.3v30.8h-10.4v-30.8z" fill="#2d2d2d"/>
		<path class="st3" d="m807.4 144c-0.1-2.7-18.5-6.5-18.5-6.5-1-0.2-2.8-0.4-3.8-0.5l-27.2-0.9c-1.1 0-2.4-0.8-3-1.6l-50.3-74.6c-0.6-0.8-1.9-1.5-3-1.5h-12c-1.1 0-1.6 0.8-1.2 1.7l31.8 71c0.4 0.9-0.1 1.7-1.1 1.8l-50.1 2.6c-1 0.1-2.4-0.5-3.1-1.3l-18-21.6c-0.7-0.8-2-1.5-3.1-1.6l-7.3-0.7c-1.1-0.1-1.7 0.6-1.3 1.6l10 30.5c0.3 1 0.3 2.6 0 3.5l-10 30.5c-0.3 1 0.3 1.6 1.3 1.6l7.3-0.8c1-0.1 2.4-0.9 3.1-1.7l17.9-21.4c0.7-0.8 2.1-1.4 3.1-1.3l50.1 3c1 0.1 1.5 0.9 1.1 1.8l-31.9 70.4c-0.4 0.9 0.1 1.7 1.2 1.7h12c1.1 0 2.4-0.7 3-1.5l50.2-74c0.6-0.8 1.9-1.6 3-1.6l27.2-1.3c1-0.1 2.8-0.3 3.8-0.5 0.3-0.3 18.8-4.1 18.8-6.8z"/>
		<path class="st4" d="m807.4 144c-0.1-2.7-18.5-6.5-18.5-6.5-1-0.2-2.8-0.4-3.8-0.5l-27.2-0.9c-1.1 0-2.4-0.8-3-1.6l-50.3-74.6c-0.6-0.8-1.9-1.5-3-1.5h-12c-1.1 0-1.6 0.8-1.2 1.7l31.8 71c0.4 0.9-0.1 1.7-1.1 1.8l-50.1 2.6c-1 0.1-2.4-0.5-3.1-1.3l-18-21.6c-0.7-0.8-2-1.5-3.1-1.6l-7.3-0.7c-1.1-0.1-1.7 0.6-1.3 1.6l10 30.5c0.3 1 0.3 2.6 0 3.5l-10 30.5c-0.3 1 0.3 1.6 1.3 1.6l7.3-0.8c1-0.1 2.4-0.9 3.1-1.7l17.9-21.4c0.7-0.8 2.1-1.4 3.1-1.3l50.1 3c1 0.1 1.5 0.9 1.1 1.8l-31.9 70.4c-0.4 0.9 0.1 1.7 1.2 1.7h12c1.1 0 2.4-0.7 3-1.5l50.2-74c0.6-0.8 1.9-1.6 3-1.6l27.2-1.3c1-0.1 2.8-0.3 3.8-0.5 0.3-0.3 18.8-4.1 18.8-6.8z"/>
</svg>
