<svg width="1000.2" height="295.29" enable-background="new 0 0 1000.211 295.326" version="1.1" viewBox="0 0 1000.2 295.29" xml:space="preserve" xmlns="http://www.w3.org/2000/svg"><polygon transform="translate(2.3321e-5 -.016373)" points="731.71 2.588 731.71 218.65 671.62 218.65 671.62 131.33 565.22 131.33 565.22 218.65 505.11 218.65 505.11 2.588 565.22 2.588 565.22 86.009 671.62 86.009 671.62 2.588" fill="#fff"/><path d="m761.8 2.5546h107.26c33.295 0 59.824 2.428 83.389 15.924 30.359 17.421 47.766 50.718 47.766 94.521 0 41.996-16.512 73.808-45.979 90.638-25.08 14.406-52.15 14.998-85.176 14.998h-107.26zm59.506 47.429v121.53h38.625c53.332 0 77.789-17.102 77.789-59.994 0-41.426-25.621-61.531-77.789-61.531z" fill="#fff"/><polygon transform="translate(2.3321e-5 -.016373)" points="34.476 267.21 49.268 267.21 49.268 250.01 61.597 250.01 61.597 294.56 49.268 294.56 49.268 276.57 34.476 276.57 34.476 294.56 22.18 294.56 22.18 250.01 34.476 250.01" fill="#fff"/><rect x="100.07" y="250.01" width="12.33" height="44.561" fill="#fff"/><path d="m173.66 295.29c-16.023 0-24.222-7.674-24.222-22.586 0-15.164 8.434-23.393 24.154-23.393 13.257 0 19.614 4.318 20.003 14.236h-12.684c-0.202-3.461-2.935-5.77-7.319-5.77-7.119 0-11.436 5.145-11.436 14.504 0 9.633 4.385 14.574 13.054 14.574 1.975 0 4.25-0.234 6.747-0.791v-8.15h-9.226v-8.498h20.543v23.662c-6.999 1.421-13.508 2.212-19.614 2.212" fill="#fff"/><polygon transform="translate(2.3321e-5 -.016373)" points="244.52 267.21 259.31 267.21 259.31 250.01 271.64 250.01 271.64 294.56 259.31 294.56 259.31 276.57 244.52 276.57 244.52 294.56 232.19 294.56 232.19 250.01 244.52 250.01" fill="#fff"/><path d="m346.81 249.97c17.34 0 26.009 7.389 26.009 22.279 0 14.93-8.669 22.283-26.009 22.283h-17.93v-44.563h17.93zm-5.565 36.096h4.385c9.984 0 14.369-3.898 14.369-13.816 0-9.867-4.385-13.846-14.369-13.846h-4.385z" fill="#fff"/><polygon transform="translate(2.3321e-5 -.016373)" points="422.34 267.66 442.19 267.66 442.19 276.12 422.34 276.12 422.34 285.66 443.78 285.66 443.78 294.56 410.32 294.56 410.32 250.01 443.16 250.01 443.16 258.54 422.34 258.54" fill="#fff"/><polygon transform="translate(2.3321e-5 -.016373)" points="493.69 268.83 511.23 268.83 511.23 277.23 493.69 277.23 493.69 294.56 481.36 294.56 481.36 250.01 512.61 250.01 512.61 258.47 493.69 258.47" fill="#fff"/><rect x="548.76" y="250.01" width="12.33" height="44.561" fill="#fff"/><polygon transform="translate(2.3321e-5 -.016373)" points="641.85 250.01 641.85 294.56 624.81 294.56 610.34 261.83 610.34 294.56 599.56 294.56 599.56 250.01 617.14 250.01 631.24 281.68 631.24 250.01" fill="#fff"/><rect x="680.32" y="250.01" width="12.346" height="44.561" fill="#fff"/><polygon transform="translate(2.3321e-5 -.016373)" points="767.03 258.86 753.52 258.86 753.52 294.58 741.15 294.58 741.15 258.86 727.65 258.86 727.65 250.02 767.03 250.02" fill="#fff"/><rect x="802.06" y="250.01" width="12.328" height="44.561" fill="#fff"/><path d="m874.2 249.31c14.438 0 22.77 8.535 22.77 22.938 0 14.439-8.332 23.041-22.77 23.041-14.371 0-22.754-8.537-22.754-23.041 0-14.471 8.383-22.938 22.754-22.938m0 36.754c6.627 0 9.951-4.621 9.951-13.85 0-9.225-3.324-13.881-9.951-13.881-6.629 0-10.02 4.656-10.02 13.881 1e-3 9.229 3.391 13.85 10.02 13.85" fill="#fff"/><polygon transform="translate(2.3321e-5 -.016373)" points="976.33 250.01 976.33 294.56 959.31 294.56 944.82 261.83 944.82 294.56 934.04 294.56 934.04 250.01 951.64 250.01 965.72 281.68 965.72 250.01" fill="#fff"/><path d="m410.72 0.79863v103.07c-2.243-3.826-44.139-75.51-44.139-75.51-15.298-26.211-37.106-31.155-52.405-27.04-17.693 4.757-29.602 21.067-29.602 40.55v61.967c-2.242-3.861-43.769-75.511-43.769-75.511-15.265-26.246-37.089-31.155-52.438-27.04-17.71 4.791-29.635 21.101-29.635 40.549v110.71c0 1.889-0.725 3.729-2.006 5.012-1.197 1.229-2.833 1.889-4.622 1.889h-34.61c-36.972 0.033-53.552-23.343-53.586-46.552-0.033-23.262 17.17-47.951 49.133-47.985h38.861l0.034-64.113h-35.386c-80.033 0-116.55 57.265-116.55 110.5-0.034 54.208 37.107 112.55 118.66 112.59h61.108c13.273 0 24.321-4.018 31.895-11.572 7.725-7.775 11.84-19.244 11.84-33.246v-53.937c2.243 3.725 46.536 77.029 46.536 77.029 11.401 18.857 32.704 28.285 51.848 22.922 17.137-4.822 27.358-19.752 27.358-39.957v-59.962c2.242 3.729 46.518 77.031 46.518 77.031 11.402 18.857 32.756 28.287 51.849 22.889 17.204-4.789 27.442-19.785 27.358-40.092v-184.19z" fill="#ed1c2e"/><path d="m446.41 0.79863h-7.691v180.14c0 3.389-1.214 5.803-3.288 6.457-1.855 0.592-4.031-0.404-5.532-2.512 0-0.051-2.547-4.115-2.547-4.115-48.02-76.964-79.072-126.92-89.816-144.46-3.694-5.311-9.917-7.656-15.5-5.901-5.769 1.819-9.362 7.354-9.327 14.403v136.1c0 3.424-1.215 5.838-3.222 6.492-1.788 0.557-3.829-0.404-5.313-2.563l-2.563-4.1c-48.02-76.962-79.104-126.92-89.815-144.46-3.727-5.313-9.934-7.659-15.534-5.904-5.769 1.82-9.36 7.354-9.36 14.403v135.24c0 3.895-3.323 7.186-7.219 7.186h-65.293c-53.753 0-78.278-38.727-78.278-74.72-0.033-37.378 25.907-75.225 75.546-75.31h40.245v-8.315h-40.245c-55.12 0.068-83.894 42.132-83.894 83.625 0.034 40.007 27.139 83.035 86.626 83.035l65.292 0.033c8.602 0 15.568-6.967 15.568-15.533v-135.27c-0.035-3.32 1.314-5.701 3.524-6.424 2.142-0.658 4.503 0.303 6.054 2.512 17.307 28.371 84.588 136.11 92.194 148.29l0.203 0.324c3.659 5.244 9.495 7.57 14.791 5.867 4.386-1.383 9.04-5.867 9.008-14.404v-136.13c-0.034-3.321 1.314-5.701 3.524-6.424 2.108-0.659 4.486 0.302 6.004 2.513 17.357 28.367 84.604 136.11 92.245 148.29l0.169 0.318c3.693 5.279 9.563 7.609 14.994 5.871 4.419-1.383 9.107-5.9 9.107-14.402v-180.14z" fill="#fff"/></svg>
