<svg width="1067.2" height="507.8" version="1.1" viewBox="0 0 1000.5 476.06" xmlns="http://www.w3.org/2000/svg">
 <g transform="matrix(1.0492 0 0 1.0492 -.00054917 .04994)">
  <path d="m304.89 321.1c8.723 0 14.714-7.115 14.671-15.137v-222.86c0-83.353 106.49-123.33 162.84-26.551 57.526 98.829 90.484 156.13 90.484 156.13v-129.54c0.043-83.31 106.33-123.33 162.65-26.508 57.564 98.829 91.331 156.09 91.331 156.09v-211h126.79v369.52c0.283 95.051-111.11 110.02-157.14 33.972-27.092-44.803-96.033-159.07-96.033-159.07v125.06c0.28 95.028-111.11 109.98-157.14 33.909-27.054-44.742-95.996-159.05-95.996-159.05v113.08c0.042 57.827-33.927 89.202-86.828 89.164h-122.92c-314.6-0.204-317.57-446.63-4.221-446.59h69.865v126.48s-19.938-0.081-76.98 0c-128.31 0.181-141.78 193.07 8.964 192.89z" fill="#ec1c2e"/>
  <path d="m883.18 1.743v361.32c0 7.458-2.774 12.802-7.479 14.29-4.341 1.369-9.245-0.864-12.582-5.649-1.286-2.047-148.98-238.58-186.04-299.13-7.157-10.292-19.015-14.694-29.669-11.278-11.134 3.517-18.009 14.131-17.966 27.72v274.01c0 7.499-2.653 12.843-7.319 14.293-4.139 1.304-8.803-0.867-12.181-5.649-1.283-2.09-148.98-238.58-185.96-299.18-7.236-10.292-19.054-14.694-29.787-11.279-11.094 3.54-18.009 14.131-17.929 27.758v272.28c0 8.522-7.233 15.738-15.836 15.738h-131.49c-109.06 0-158.82-78.628-158.86-151.71-0.041-75.897 52.62-152.76 153.44-152.92h79.714v-14.189h-79.753c-110.1 0.161-167.67 84.176-167.59 167.1 0.081 79.916 54.267 165.9 173.05 165.9h131.49c16.521 0 30.028-13.426 30.028-29.927v-272.32c-0.041-7.258 2.975-12.563 8.039-14.17 4.823-1.527 10.169 0.662 13.586 5.526 36.781 60.259 184.51 296.83 186.04 299.2 7.117 10.25 18.174 14.57 28.341 11.375 8.365-2.693 17.248-11.375 17.205-27.878v-273.97c0-7.299 2.977-12.605 8.002-14.213 4.823-1.527 10.129 0.705 13.544 5.568 36.824 60.259 184.55 296.82 186.04 299.2 7.158 10.253 18.411 14.594 28.745 11.297 8.4-2.653 17.445-11.375 17.407-27.797v-361.32z" fill="#fff"/>
  <path d="m883.18 1.743v361.32c0 7.458-2.774 12.802-7.479 14.29-4.341 1.369-9.245-0.864-12.582-5.649-1.286-2.047-148.98-238.58-186.04-299.13-7.157-10.292-19.015-14.694-29.669-11.278-11.134 3.517-18.009 14.131-17.966 27.72v274.01c0 7.499-2.653 12.843-7.319 14.293-4.139 1.304-8.803-0.867-12.181-5.649-1.283-2.09-148.98-238.58-185.96-299.18-7.236-10.292-19.054-14.694-29.787-11.279-11.094 3.54-18.009 14.131-17.929 27.758v272.28c0 8.522-7.233 15.738-15.836 15.738h-131.49c-109.06 0-158.82-78.628-158.86-151.71-0.041-75.897 52.62-152.76 153.44-152.92h79.714v-14.189h-79.753c-110.1 0.161-167.67 84.176-167.59 167.1 0.081 79.916 54.267 165.9 173.05 165.9h131.49c16.521 0 30.028-13.426 30.028-29.927v-272.32c-0.041-7.258 2.975-12.563 8.039-14.17 4.823-1.527 10.169 0.662 13.586 5.526 36.781 60.259 184.51 296.83 186.04 299.2 7.117 10.25 18.174 14.57 28.341 11.375 8.365-2.693 17.248-11.375 17.205-27.878v-273.97c0-7.299 2.977-12.605 8.002-14.213 4.823-1.527 10.129 0.705 13.544 5.568 36.824 60.259 184.55 296.82 186.04 299.2 7.158 10.253 18.411 14.594 28.745 11.297 8.4-2.653 17.445-11.375 17.407-27.797v-361.32z" fill="none" stroke="#fff" stroke-width="3.5812"/>
 </g>
</svg>
