<svg width="1e3" height="589.22" version="1.1" xmlns="http://www.w3.org/2000/svg">
 <g transform="translate(153.42 -1414.7)">
  <path d="m-140.09 1995.4c-7.5858-6.3865-13.321-16.614-13.321-31.863l2.7843-480.16c0-17.613 16.915-32.28 25.363-32.28l946.5 405.81c0 14.337-11.045 34.817-35.964 37.409l-884.27 107.98c-21.299 2.7754-27.435 3.274-41.089-6.8932z" fill="#7dd4ff"/>
  <path d="m-117.66 1960.1c-9.1477-9.146-11.627-17.612-11.627-30.28l2.8628-478.77c0-10.204 4.2642-20.504 12.495-27.325 15.244-12.119 28.7-9.5926 48.692-6.078l874.73 122.19c23.988 4.1764 35.94 21.707 35.94 40.332l1.1458 238.33c0 20.642-14.077 38.579-33.492 41.932l-887.48 108.39c-17.333 2.8712-30.317 2.744-43.268-8.7218z"/>
  <path d="m10.1 1879.3c-45.733 0-63.924-45.678-63.924-78.322v-247.45c0-43.119 22.144-81.853 61.945-81.853 40.673 0 76.43 37.151 76.43 94.646l0.02404 29.92-46.885-2.8926v-30.239c0-15.137-10.563-33.875-22.441-33.875-13.037 0-21.869 15.376-21.869 30.038l-0.27318 230.85c0 17.846 9.0613 32.248 22.015 32.248 10.438 0 22.123-14.37 22.123-35.569v-27.4l46.599-0.6358v28.481c0 57.853-31.984 92.054-73.745 92.054z" fill="#fff"/>
  <path d="m174.87 1492.1c-40.701 0-60.021 36.316-60.021 75.692l-0.28821 224.05c0 33.702 18.222 75.188 63.659 75.188 48.172 0 73.279-43.807 73.279-83.69l0.14411-203.37c0-41.852-25.766-87.869-76.773-87.869zm7.5296 52.455c14.864 0 22.661 19.618 22.661 31.884l-0.18014 205.06c0 17.019-9.7542 32.928-22.084 32.928-12.851 0-21.832-14.459-21.832-31.596l0.25219-209.82c0-14.742 8.5962-28.461 21.184-28.461z" fill="#fff"/>
  <path d="m296.54 1853.7v-343.57l62.64 7.2474 30.324 199.46 30.027-192.42 62.305 7.2824 0.31467 308.89-46.492 3.5811-0.12709-197.65-30.16 199.89-32.396 2.0193-29.865-208.17-0.0777 210.08z" fill="#fff"/>
  <path d="m529.25 1837.4-0.53209-300.35 112.11 12.991v40.413l-65.474-5.8339v71.33l46.909 1.978v40.188l-46.964-0.3609v94.251l71.158-2.9143v39.995z" fill="#fff"/>
  <path d="m718.03 1824.1-0.59865-226.87-47.592-4.834v-38.657l141.49 16.131v35.206l-47.791-4.1779 1.0445 220z" fill="#fff"/>
  <path d="m-10.162 1907.8c-42.881 0-63.65-39.176-63.65-85.572l0.45855-241.65c0-21.84 5.609-40.938 13.943-53.649 0 0-3.6762 13.954-3.6747 27.921l-0.36027 240.37c0 49.528 23.283 95.157 71.077 95.157 23.551 0 36.571-11.646 36.571-11.646-10.974 17.293-31.682 29.074-54.364 29.074z" fill="#7dd4ff"/>
  <path d="m17.254 1811.9v-26.155l10.664-15.6v19.382c0 8.9979-6.3546 19.31-10.664 22.373z" fill="#7dd4ff"/>
  <path d="m13.057 1540.9c8.7444 0 15.132 12.382 15.132 23.233v40.454l47.128 2.1909-10.648 14.877-46.925-2.2673v-30.34c0-14.746-8.1984-30.659-18.8-33.831 0 0 2.6225-14.317 14.113-14.317z" fill="#7dd4ff"/>
  <path d="m157.22 1893.5c-42.179 0-62.579-36.954-62.579-78.27l0.29332-222.36c0-21.202 5.6821-43.232 14.164-52.937 0 0-3.8212 8.0057-3.8212 27.36v226.36c0 38.233 21.032 83.597 69.521 83.597 23.219 0 37.219-10.462 37.219-10.462-7.831 12.988-30.155 26.715-54.796 26.715z" fill="#7dd4ff"/>
  <path d="m180.78 1554.7c8.3287 0 15.285 12.009 15.285 22.571l-0.25475 203.54c0 10.543-3.7988 19.058-10.648 23.946l0.19044-204.68c0-17.772-10.401-29.959-19.202-31.992 1.1536-5.5368 6.1261-13.391 14.63-13.391z" fill="#7dd4ff"/>
  <path d="m276.75 1532.2 10.725 1.2737v330.46l35.665-2.3946v13.451l-46.415 3.7703z" fill="#7dd4ff"/>
  <path d="m353.17 1872.7-5.7643-40.08-0.32425-95.904 17.833 121.37 22.517-1.9814-1.6933 14.05z" fill="#7dd4ff"/>
  <path d="m462.51 1850.8v12.712l-46.542 3.7193v-61.038l10.598-72.094v119.32z" fill="#7dd4ff"/>
  <path d="m399.17 1545 7.1646 0.4637-19.232 129.35-4.035-23.562z" fill="#7dd4ff"/>
  <path d="m519.18 1557.1 0.14411 288.83 107.01-7.9348v11.77l-117.48 9.4773v-302.9z" fill="#7dd4ff"/>
  <path d="m579.26 1604.9v-12.05l41.443 3.3559v11.745z" fill="#7dd4ff"/>
  <path d="m579.34 1717.2v-11.781l23.165 0.2882v11.493z" fill="#7dd4ff"/>
  <path d="m707.94 1603.4 0.37319 228.07 35.834-2.6639v10.574l-46.276 3.6027-0.28821-229.67-48.024-3.4946v-39.485l10.448 0.8647v28.569z" fill="#7dd4ff"/>
  <path d="m768.23 1619.1v-10.088l23.093 1.5131v9.8714z" fill="#7dd4ff"/>
 </g>
</svg>
