<svg width="829.48pt" height="132.75pt" version="1.1" viewBox="0 0 829.48 132.75" xmlns="http://www.w3.org/2000/svg">
 <g fill="#94c947">
  <path d="m2.5187 102.31h347.29v29.865h-347.29z"/>
  <path d="m575.17-3.7808e-7h6.2805v132.65h-6.2805z" stroke-width="4.2436"/>
 </g>
 <g stroke-width="4.2436">
  <path d="m597.79 4.7666e-4v132.65h29.662v-55.846h51.495v55.846h29.664v-132.65h-29.664v51.516h-51.495v-51.516z"/>
  <path d="m717.92 7.8307e-4h45.154c46.642 0 66.409 21.417 66.409 66.738 0 48.523-20.665 66.009-66.409 66.009l-45.154-0.18708m29.153-22.95h19.303c23.328 0 34.573-20.788 34.675-42.872 0-22.801-13.108-41.956-34.675-41.956h-19.303z"/>
 </g>
 <g transform="matrix(.99951 0 0 .99951 178.21 89.911)">
  <path d="m343.28 1.3649c23.16 0 41.22-13.38 41.22-45.6 0-1.44-0.06-2.82-0.18-4.14h-40.5v16.92h15.36c-2.4 8.5799-7.6199 13.74-15.78 13.8h-0.24c-11.58-0.12-17.34-10.5-17.34-26.58 0-16.38 5.58-25.98 17.34-25.98h0.24c8.2199 0 13.44 4.74 15.78 13.14h24.12c-4.38-22.92-20.94-32.76-40.02-32.76-22.32 0-41.22 13.44-41.22 45.6 0 32.22 18.06 45.6 41.22 45.6z"/>
  <path d="m-48.878-89.954c-21.24 0-43.2 13.44-43.2 45.6s21.96 45.6 43.2 45.6c21.18 0 43.14-13.44 43.14-45.6s-21.96-45.6-43.14-45.6m0 72.179c-12.42 0-19.44-10.44-19.44-26.58s7.02-25.98 19.44-25.98c12.36 0 19.38 9.8399 19.38 25.98 0 16.14-7.0199 26.58-19.38 26.58z"/>
  <path d="m42.621-89.954c-21.3 0-43.26 13.44-43.26 45.6s21.96 45.6 43.26 45.6c21.12 0 43.08-13.44 43.08-45.6s-22.02-45.6-43.08-45.6m0 72.179c-12.48 0-19.5-10.44-19.5-26.58s7.02-25.98 19.5-25.98c12.3 0 19.32 9.8399 19.32 25.98 0 16.14-7.02 26.58-19.32 26.58z"/>
  <path d="m144.2-44.895 24.48-43.38h-26.94l-23.82 43.38 28.02 44.52h26.94z"/>
  <path d="m93.861-88.754h23.88v88.379h-23.88z"/>
  <path d="m180.26-88.274h23.76v87.839h-23.76z"/>
  <path d="m238.04-49.575 33.6 49.14h21.96v-87.839h-21.72v49.26h-0.23999l-32.16-49.26h-23.4v87.839h21.72v-49.14z"/>
  <path d="m-136.96-17.595h-0.24c-11.64-0.18-17.34-10.56-17.34-26.58 0-16.38 5.58-26.04 17.34-26.04h0.24c8.2199 0 13.38 4.74 15.78 13.14h24.12c-4.44-22.92-21-32.7-40.02-32.7-22.38 0-41.22 13.38-41.22 45.6 0 32.16 18.06 45.54 41.22 45.54 20.28 0 36.66-10.32 40.38-34.62h-24.06c-2.16 9.7199-7.5599 15.54-16.2 15.66z"/>
  <path d="m228.38 11.925v12.06h-13.74v-12.06h-5.16v30.36h5.16v-13.5h13.74v13.5h5.16v-30.36z"/>
  <path d="m248.78 11.805-10.74 30.48h4.8l2.46-7.2599h11.58l2.46 7.2599h5.22l-10.74-30.48zm-1.92 18.72 4.26-12.3h0.06l4.14 12.3z"/>
  <path d="m289.28 11.925v21.66h-0.12l-14.34-21.66h-5.22v30.36h4.8v-22.14h0.06l14.88 22.14h4.68v-30.36z"/>
  <path d="m321.62 11.925v21.66h-0.12l-14.34-21.66h-5.22v30.36h4.74v-22.14h0.12l14.88 22.14h4.68v-30.36z"/>
  <path d="m339.38 37.605v-8.8199h10.68v-4.56h-10.68v-7.5599h14.52v-4.8h-19.62v30.42h20.46v-4.68z"/>
  <path d="m365.9 37.605v-25.68h-5.1v30.36h19.14v-4.68z"/>
  <path d="m192.62 38.145c-5.1-0.06-8.1599-4.02-8.1599-11.22 0-6.84 3.06-10.86 8.1599-10.92 3.72 0 5.58 2.16 6.72 6h5.28c-1.56-6.96-5.7-10.68-11.94-10.68h-0.06c-7.62 0-13.32 5.46-13.32 15.66 0 10.44 5.58 15.78 13.32 15.78h0.06c6.54 0 10.68-3.84 12.06-11.28h-5.28c-1.08 4.32-2.94 6.6-6.84 6.66z"/>
 </g>
</svg>
