<svg width="907.21pt" height="325.95pt" version="1.1" viewBox="0 0 907.21 325.95" xmlns="http://www.w3.org/2000/svg">
 <path d="m425.31 0a162.96 162.96 0 0 0-162.96 162.96 162.96 162.96 0 0 0 162.96 162.96 162.96 162.96 0 0 0 162.96-162.96 162.96 162.96 0 0 0-162.96-162.96zm0 46.43a116.53 116.53 0 0 1 116.53 116.53 116.53 116.53 0 0 1-116.53 116.53 116.53 116.53 0 0 1-116.53-116.53 116.53 116.53 0 0 1 116.53-116.53z" fill="#02effb" style="paint-order:stroke fill markers"/>
 <path d="m162.96 0.025625a162.96 162.96 0 0 0-162.96 162.96 162.96 162.96 0 0 0 162.96 162.96 162.96 162.96 0 0 0 96.858-32.146l-27.454-37.364a116.53 116.53 0 0 1-69.404 23.08 116.53 116.53 0 0 1-116.53-116.53 116.53 116.53 0 0 1 116.53-116.53 116.53 116.53 0 0 1 68.004 22.03l27.46-37.323a162.96 162.96 0 0 0-95.464-31.137z" fill="#02effb" style="paint-order:stroke fill markers"/>
 <path d="m591.35 12.651h234.2l-158.11 257.81 150.6-0.03v46.79h-234.06l158.29-258.04-150.92-0.02z" fill="#02effb"/>
 <path d="m860.72 12.651h46.495v304.57h-46.495z" fill="#02effb"/>
 <path d="m339.26 99.401v22.255h33.68v80.766h23.476v-80.766h33.68v-22.255z" fill="#02effb"/>
 <path d="m412.61 140.14 43.78 97.245h18.28l43.78-97.245h-25.09l-27.829 65.634-27.831-65.634z" fill="#02effb"/>
</svg>
