<svg width="800" height="276.03" space="preserve" version="1.1" viewBox="0 0 800 276.03" xmlns="http://www.w3.org/2000/svg">
 <link href="" rel="stylesheet" type="text/css"/>
 <style type="text/css"/>
 <style type="text/css">.st0{fill:#CF0A2C;}
	.st1{fill:#3461B2;}</style>
 <g transform="matrix(5.298 0 0 5.298 0 .5298)">
  <path class="st0" d="m35.3 36.5 5.7 5c-3 3.7-6.2 6.4-9.5 8-3.2 1.7-6.7 2.5-10.5 2.5-6 0-11-1.9-15-5.8s-6-8.6-6-14.2c0-3.8 0.9-7.2 2.8-10.4 1.9-3.1 4.4-5.6 7.7-7.3 3.3-1.8 7.1-2.6 11.5-2.6 5.3 0 9.6 1.2 13 3.7s5 5.1 5 7.8c0 1.2-0.3 2.2-0.8 3.1s-1.3 1.7-2.4 2.2c-1.1 0.6-2.2 0.8-3.4 0.8-1 0-1.9-0.2-2.6-0.6-0.8-0.4-1.4-0.9-1.9-1.5-0.2-0.3-0.7-1.1-1.4-2.4-0.8-1.7-1.5-2.8-2-3.3s-1-1-1.7-1.3c-0.6-0.3-1.4-0.4-2.2-0.4-1.3 0-2.6 0.4-3.8 1.3s-2.2 2.2-3 3.9c-0.8 1.8-1.2 3.7-1.2 5.9 0 2.4 0.5 4.5 1.4 6.4s2.2 3.3 3.7 4.3c1.6 1 3.3 1.5 5.2 1.5 1.8 0 3.6-0.5 5.4-1.5 1.9-1 3.9-2.7 6-5.1z" fill="#cf0a2c"/>
  <path class="st0" d="m58.5 11.5v5.6c2.1-2.2 3.9-3.6 5.4-4.4s3-1.2 4.4-1.2c1.3 0 2.4 0.3 3.4 0.9s1.8 1.4 2.4 2.5 0.9 2.2 0.9 3.5c0 1.6-0.5 3.1-1.6 4.4s-2.6 2-4.5 2c-0.5 0-1 0-1.4-0.1s-1.2-0.3-2.5-0.8c-0.7-0.2-1.2-0.3-1.7-0.3-0.7 0-1.8 0.4-3.3 1.3v15.1c0 1.3 0.1 2.1 0.3 2.5s0.5 0.7 0.9 0.8c0.4 0.2 1.4 0.3 2.9 0.3h1.7v7.5h-24v-7.5h2c1.4 0 2.3-0.1 2.7-0.2 0.4-0.2 0.6-0.4 0.8-0.8s0.3-1.2 0.3-2.6v-17.9h-5.7v-7.4c4.2-0.3 8.6-1.3 13.1-3.2z" fill="#cf0a2c"/>
  <path class="st1" d="m93.7 0v13.1h7.2v8.2h-7.2v13.3c0 3 0.2 5 0.5 5.8 0.3 0.9 0.9 1.5 1.8 2 1.2 0.7 2.5 1 4 1 2.7 0 5.3-0.9 7.9-2.6v8.2c-2.2 1-4.3 1.8-6.1 2.2-1.8 0.6-3.8 0.8-5.9 0.8-2.4 0-4.5-0.3-6.4-0.9-1.8-0.6-3.4-1.5-4.7-2.6s-2.2-2.3-2.7-3.5c-0.5-1.3-0.8-3.1-0.8-5.4v-18.3h-5.8v-7.4c2.1-0.7 3.8-1.6 5.3-2.9 1.5-1.2 2.6-2.7 3.5-4.5 0.9-1.7 1.5-3.9 1.8-6.6h7.6z" fill="#3461b2"/>
  <path class="st1" d="m130.5 12.4h20.5v7.5c-1.7 0-2.7 0.1-3 0.2-0.4 0.1-0.9 0.4-1.4 0.9s-1 1.2-1.4 2.3l-12.6 27.7h-10.4l-13.2-28.6c-0.3-0.6-0.7-1.2-1.2-1.7-0.4-0.4-0.8-0.6-1.3-0.7-0.3-0.1-1.2-0.2-2.8-0.2v-7.5h23.7v7.5h-1.2c-1.5 0-2.5 0.1-2.8 0.3-0.5 0.3-0.7 0.7-0.7 1.2 0 0.4 0.2 1 0.5 1.8l6 15 6.3-15c0.4-0.8 0.5-1.5 0.5-1.9 0-0.5-0.3-0.9-0.8-1.2-0.4-0.2-1.3-0.3-2.7-0.3h-1.8v-7.3z" fill="#3461b2"/>
 </g>
</svg>
