<svg width="800" height="537.87" version="1.1" viewBox="0 0 211.67 142.31" xmlns="http://www.w3.org/2000/svg">
 <g transform="translate(16.236 14.451)">
  <path d="m112.26-11.144c0.0399-2.0367 11.102-4.0176 12.436-3.0591 2.1805 1.5495 1.9808 2.3562 5.5511 2.8674 1.3418 0.19169 3.2508 9.9521 3.6342 12.053 0.38339 2.1086 0.57508 7.8514 0.57508 8.6102 0 0.76677 11.486-1.3339 18.946 0.38339 7.4601 1.7252 15.304 3.8339 17.22 3.6422 1.9169-0.19169 0.76677 8.6102-0.19169 9.9441-0.95847 1.3419-6.6933-1.7173-16.07 0.95847 0 0-7.6597-1.3419-15.503 0.19169 0 0-1.9169-0.76677-1.9169 2.6757 0 2.8195-5.9105 71.462-8.0351 76.925-0.95847 0.96645-3.8259 0.33546-3.8259 10.911 0 9.8482-9.9441-17.756-11.094-45.351l0.19169-16.645 1.909-27.939s-13.586 2.2923-18.946 2.484c-5.3514 0.19169-19.129-2.2923-21.43-1.3339-2.2923 0.95048 1.5335-6.5096 2.6837-7.0847 1.1422-0.57508 12.628-1.5256 16.645-3.0591 4.0176-1.5335 18.179-4.976 19.513-4.7843 0.74281 0.10384-2.4121-16.398-2.2923-22.388" fill="#fab63f"/>
  <g transform="matrix(1.1651 0 0 1.1651 2.6813 -21.116)" fill="#176fc1">
   <path d="m42.478 50.273-1.1517 16.205c-5.0933-5.1071-18.214-4.2982-22.498-3.1465-6.1285 1.6384-10.07 5.5595-11.496 7.3075-2.5432 3.1191-5.0111 8.7814-5.0111 17.487 0 8.5552 4.8946 14.601 6.245 16.014 1.8029 1.892 6.4027 6.0805 13.299 6.7317 6.5535 0.62381 11.948 0.52099 20.12-1.9126l0.90488 15.328c-3.0025 1.1517-12.984 4.2913-22.663 3.4207-9.9605-0.89116-17.775-4.0377-25.131-10.673-4.73-4.2776-11.332-15.109-11.332-29.648 0-11.352 3.0162-20.065 9.6109-27.695 5.1002-5.916 15.595-12.867 29.971-12.867 3.3659 0 14.485 0.29477 19.133 3.4481"/>
   <path d="m116.49 124.01 1.9674-18.008c3.4138 3.1328 12.942 5.5252 17.138 5.7446 0.36332 0.0206 6.3958 0.56212 9.9605-3.9417 1.1448-1.4396 1.4807-4.9837 0-7.1704-2.3582-3.4961-7.3967-4.8946-9.5766-5.7446-1.515-0.59639-8.9939-3.4824-12.264-6.1902-2.7352-2.2622-5.5184-5.8063-6.622-8.4318-1.2545-2.9683-1.9743-6.2724-1.9743-10.29 0-5.9434 2.6392-12.723 7.0059-16.644 5.3607-4.8054 13.093-6.6769 21.463-6.6769 3.0985 0 14.231 0.82947 16.973 3.0094l-1.7001 16.205c-4.2639-3.0437-15.246-3.4481-15.712-3.4481-4.5518 0-6.622 1.7549-7.2801 2.3513-0.60325 0.54841-2.1319 2.5227-1.9743 5.6418 0.26049 4.8466 4.1679 5.0522 14.512 10.07 5.1482 2.5158 9.1036 4.8946 11.386 7.0059 2.2759 2.1182 3.7223 4.8877 4.5449 7.8285 0.54156 1.9743 1.5835 5.4224 0.81576 11.77-0.946 7.8422-5.9777 13.882-9.5218 16.096-5.2579 3.2836-10.735 4.1062-18.996 4.1062-7.1773 0-13.799-1.419-20.147-3.2836"/>
   <path d="m50.307 47.865h59.016v15.547h-19.599v63.177h-19.05v-63.177h-20.367z"/>
  </g>
 </g>
</svg>
