<svg width="36.602" height="11.287" version="1.1" viewBox="0 0 36.602 11.287" xmlns="http://www.w3.org/2000/svg">
 <defs>
  <linearGradient id="linearGradient4503" x1="2.9258e-5" x2="15.342" y1="5.6435" y2="5.6435" gradientUnits="userSpaceOnUse">
   <stop stop-color="#00a4da" offset="0"/>
   <stop stop-color="#212463" offset="1"/>
  </linearGradient>
 </defs>
 <path d="m19.663 4.807v-1.6461c-0.05639-0.03621-0.13049-0.06656-0.22148-0.09092-0.09107-0.02436-0.1833-0.03665-0.27649-0.03665-0.42944 0-0.6439 0.29156-0.6439 0.87489 0 0.27927 0.06276 0.50419 0.18828 0.67425 0.12566 0.17028 0.31182 0.25528 0.5589 0.25528 0.0809 0 0.15551-0.0031 0.22478-0.0092 0.06905-0.0059 0.12544-0.01302 0.16992-0.0215zm0-2.3992v-1.4458l0.90554-0.14571v4.6107c-0.08104 0.02436-0.17423 0.04762-0.28 0.06978-0.10518 0.02224-0.21512 0.04125-0.33076 0.05779-0.11528 0.01595-0.23268 0.02889-0.3519 0.03928-0.11996 0.01017-0.23414 0.01521-0.34364 0.01521-0.26318 0-0.49804-0.03855-0.70432-0.11542-0.20678-0.0768-0.38087-0.18733-0.5227-0.3312-0.14176-0.14351-0.25001-0.3176-0.32506-0.52248-0.07483-0.20422-0.11257-0.43412-0.11257-0.6891 0-0.25915 0.0324-0.49293 0.09736-0.70176 0.06459-0.20868 0.15799-0.3857 0.27971-0.53169 0.12149-0.14563 0.26998-0.25681 0.44633-0.33406 0.17635-0.0768 0.37728-0.11535 0.60447-0.11535 0.12544 0 0.2375 0.01207 0.33713 0.03643 0.09904 0.02428 0.19954 0.05888 0.30041 0.10335z" fill-rule="evenodd"/>
 <path d="m21.741 3.6105c0.012-0.0768 0.03145-0.15265 0.05786-0.22777 0.02604-0.07483 0.06371-0.14066 0.11206-0.19749 0.04872-0.05676 0.10943-0.10218 0.18272-0.13685 0.07263-0.03423 0.15975-0.05149 0.26098-0.05149 0.10511 0 0.19325 0.01829 0.26413 0.05471 0.07088 0.03621 0.12969 0.08287 0.17635 0.13963 0.04601 0.05713 0.08068 0.12171 0.10328 0.19471 0.0218 0.07263 0.03518 0.14775 0.03943 0.22456zm0.60133-1.3608c-0.19442 0-0.38372 0.03657-0.56797 0.10928-0.18425 0.073-0.34729 0.18023-0.48898 0.32198-0.14168 0.14176-0.25594 0.31906-0.3432 0.53184-0.08704 0.21256-0.13086 0.46045-0.13086 0.74403 0 0.23487 0.03357 0.45379 0.10036 0.65626 0.06693 0.20239 0.17021 0.37728 0.31014 0.52504 0.13978 0.14812 0.31577 0.26449 0.52833 0.34942 0.21234 0.085 0.46257 0.12764 0.75047 0.12764 0.11316 0 0.22631-0.0062 0.33998-0.01829 0.11352-0.01207 0.21951-0.02721 0.31877-0.0455 0.09941-0.01792 0.1893-0.03994 0.27034-0.06386 0.08083-0.02421 0.14563-0.04871 0.19435-0.07293l-0.12135-0.73496c-0.1016 0.04447-0.23202 0.08192-0.39177 0.1125-0.16004 0.03036-0.3233 0.0455-0.48912 0.0455-0.25952 0-0.46586-0.05471-0.61954-0.16392-0.15419-0.10935-0.24094-0.25747-0.26128-0.44363h2.053c0.0043-0.04835 0.0086-0.10408 0.01265-0.16714 0.0036-0.06239 0.0057-0.12025 0.0057-0.17292 0-0.53879-0.13115-0.94672-0.39455-1.2243-0.26346-0.27715-0.62165-0.41605-1.0754-0.41605z" fill-rule="evenodd"/>
 <path d="m19.138 8.6416c-0.09311 0-0.18506-0.01156-0.27605-0.03599-0.09143-0.02428-0.16516-0.05464-0.22222-0.09121v-1.6341c0.0444-0.0081 0.10153-0.01478 0.16992-0.02121 0.0692-0.0061 0.14395-0.0087 0.225-0.0087 0.24686 0 0.43339 0.08419 0.55927 0.25162 0.12515 0.16831 0.18835 0.3922 0.18835 0.6714 0 0.57916-0.21505 0.86823-0.64426 0.86823m1.1302-2.1105c-0.14256-0.14358-0.31606-0.25535-0.5227-0.33405-0.20656-0.07922-0.44143-0.11864-0.70446-0.11864-0.10942 0-0.22404 0.0051-0.34356 0.01492-0.11915 0.01039-0.23706 0.02377-0.35234 0.04001-0.11528 0.01631-0.22521 0.03511-0.33098 0.05749-0.10518 0.02253-0.19859 0.04586-0.27942 0.07015v4.2094h0.90495v-1.2025c0.10153 0.0444 0.20664 0.07907 0.31584 0.10292 0.10942 0.02428 0.22682 0.03679 0.35263 0.03679 0.22653 0 0.42673-0.04111 0.60096-0.12171 0.17452-0.0809 0.32016-0.19442 0.43726-0.34005 0.11776-0.14592 0.20671-0.31979 0.26808-0.52248 0.06071-0.20247 0.09063-0.4271 0.09063-0.67433 0-0.25491-0.03708-0.48598-0.11257-0.6921-0.07468-0.20664-0.18294-0.38233-0.32433-0.52584" fill-rule="evenodd"/>
 <path d="m21.726 7.4271c0.01192-0.07695 0.03109-0.15295 0.05742-0.2277 0.02641-0.07483 0.06371-0.14088 0.11242-0.19756 0.04879-0.05683 0.10943-0.10233 0.18213-0.13642 0.07329-0.0346 0.16004-0.05193 0.26164-0.05193 0.10504 0 0.19325 0.01836 0.26376 0.05464 0.07124 0.03672 0.12976 0.08295 0.17628 0.14007 0.04645 0.0564 0.08112 0.12142 0.10372 0.19442 0.0218 0.07263 0.03518 0.14753 0.03943 0.22448zm0.60125-1.3605c-0.19442 0-0.38365 0.03635-0.56805 0.10906-0.18418 0.073-0.34715 0.18023-0.48883 0.32199-0.14176 0.14161-0.2563 0.31906-0.34342 0.53133-0.0869 0.21307-0.13064 0.46089-0.13064 0.74433 0 0.23487 0.03357 0.45357 0.10028 0.65611 0.06693 0.20276 0.16992 0.37765 0.30984 0.5254 0.14015 0.14797 0.31577 0.26435 0.52862 0.34942 0.21234 0.08499 0.46264 0.12764 0.75018 0.12764 0.11352 0 0.22668-0.0064 0.34027-0.01843 0.11316-0.01192 0.21951-0.02743 0.31884-0.0455 0.09933-0.01777 0.18901-0.03979 0.26998-0.06371 0.08119-0.02443 0.146-0.04872 0.19471-0.07329l-0.12135-0.7346c-0.1016 0.04447-0.23202 0.08207-0.39206 0.11242-0.16019 0.03028-0.32308 0.0455-0.4889 0.0455-0.25952 0-0.46579-0.05464-0.61983-0.16399-0.15382-0.10957-0.24094-0.25703-0.26091-0.44348h2.0529c0.0039-0.04872 0.0083-0.10409 0.01199-0.16721 0.0043-0.06254 0.0064-0.12069 0.0064-0.17284 0-0.53879-0.13188-0.94679-0.39498-1.2243-0.26303-0.27751-0.62159-0.41583-1.0751-0.41583z" fill-rule="evenodd"/>
 <polygon transform="translate(-2.9258e-5 3.6573e-5)" points="26.41 6.1514 25.504 6.1514 25.504 9.3469 26.41 9.3469" fill-rule="evenodd"/>
 <path d="m28.76 8.6239c-0.12588 0.02012-0.24292 0.03036-0.35227 0.03036-0.30787 0-0.52335-0.07892-0.64704-0.23699-0.12384-0.15792-0.1852-0.38087-0.1852-0.66826 0-0.27108 0.06561-0.49007 0.1972-0.65589 0.13152-0.16611 0.33106-0.24928 0.5984-0.24928 0.12544 0 0.23897 0.01192 0.34049 0.03635 0.10109 0.02465 0.19442 0.05288 0.27934 0.08536l0.18828-0.72304c-0.13386-0.05669-0.27144-0.10006-0.41312-0.13042-0.1419-0.03072-0.2977-0.0455-0.46769-0.0455-0.25937 0-0.49022 0.04447-0.69254 0.13327-0.20247 0.08924-0.37443 0.20985-0.51619 0.36185-0.14183 0.15163-0.25001 0.32974-0.32513 0.53425-0.07483 0.20451-0.11242 0.42212-0.11242 0.65304 0 0.23918 0.03116 0.46103 0.09399 0.66518 0.0632 0.20459 0.16231 0.38145 0.2977 0.53162 0.13568 0.14958 0.30896 0.26844 0.5194 0.35519 0.21058 0.08748 0.46184 0.13086 0.75362 0.13086 0.1901 0 0.36426-0.01631 0.52262-0.04872 0.15792-0.03248 0.28907-0.07088 0.39455-0.11528l-0.12778-0.74125c-0.10526 0.0444-0.22053 0.07695-0.3462 0.09728" fill-rule="evenodd"/>
 <path d="m31.209 8.6177c-0.05727 0.0083-0.12171 0.01551-0.19471 0.02136-0.07263 0.0061-0.14176 0.0089-0.20664 0.0089-0.21029 0-0.3541-0.06459-0.4309-0.19435-0.07695-0.12939-0.11579-0.34034-0.11579-0.63197v-1.6703h-0.90488v1.7801c0 0.21856 0.02238 0.4189 0.06642 0.60111 0.04476 0.18235 0.11996 0.33932 0.22485 0.47076 0.10555 0.13188 0.24826 0.23421 0.42819 0.30684 0.1806 0.073 0.40618 0.10935 0.67784 0.10935 0.26713 0 0.52218-0.01946 0.76503-0.05742 0.24314-0.03862 0.44165-0.08017 0.5954-0.12457v-3.0862h-0.90481z" fill-rule="evenodd"/>
 <path d="m35.734 8.6907c-0.04835 8e-3 -0.1133 0.01441-0.19427 0.01777-0.08075 0.0047-0.16626 0.0064-0.25513 0.0064-0.16633 0-0.29675-0.02743-0.39206-0.0817-0.09516-0.05479-0.14241-0.15317-0.14241-0.29485 0-0.07293 0.01624-0.13371 0.04872-0.18242 0.03248-0.0482 0.07673-0.08668 0.13334-0.11528 0.05669-0.02853 0.12259-0.04762 0.19734-0.05786 0.07519-0.0098 0.15507-0.01514 0.24058-0.01514 0.0602 0 0.12691 0.0043 0.20027 0.01229 0.07263 0.0083 0.12727 0.01631 0.16363 0.0245zm0.80226-1.8588c-0.04484-0.16224-0.12069-0.29982-0.22821-0.41298-0.10716-0.11345-0.24986-0.20064-0.42805-0.26128-0.1784-0.06108-0.40098-0.09099-0.6684-0.09099-0.10526 0-0.20963 5e-3 -0.31262 0.01478-0.10336 0.01039-0.20174 0.02231-0.29485 0.03643-0.09319 0.01441-0.17913 0.03072-0.25813 0.04886-0.079 0.01807-0.14446 0.0354-0.19749 0.05157l0.11564 0.72889c0.10935-0.04052 0.23882-0.07146 0.38869-0.09421 0.15009-0.02216 0.3018-0.03335 0.45562-0.03335 0.23092 0 0.39279 0.04659 0.48583 0.13993 0.09311 0.09311 0.13971 0.21651 0.13971 0.37033v0.08536c-0.0564-0.01668-0.13042-0.0297-0.22141-0.03957-0.09099-0.01031-0.19581-0.01514-0.31328-0.01514-0.1735 0-0.34188 0.01733-0.50375 0.05149-0.16194 0.03416-0.30575 0.09026-0.43141 0.16684-0.12552 0.07695-0.22565 0.18008-0.3007 0.30999-0.07512 0.12976-0.11206 0.28768-0.11206 0.47384 0 0.10833 0.01229 0.20422 0.03189 0.29375 0.01075 0.0011 0.01763 0.0032 0.02823 0.0039l-0.0091 0.05383c0.01412 0.04806 0.02538 0.09838 0.04623 0.14029 0.06429 0.13371 0.15755 0.2424 0.2789 0.32484 0.12171 0.08353 0.26669 0.14315 0.43448 0.17957 0.16831 0.03621 0.35549 0.05457 0.56212 0.05457 0.32791 0 0.60718-0.01946 0.8381-0.05742 0.23099-0.0384 0.41086-0.07234 0.54062-0.1005v-1.883c0-0.19844-0.02253-0.37831-0.06656-0.54062z" fill-rule="evenodd"/>
 <path d="m25.183 8.6056c-0.06481-0.02823-0.11491-0.06481-0.14885-0.10921-0.03445-0.04454-0.05779-0.09948-0.07015-0.16406-0.01229-0.06473-0.01799-0.13773-0.01799-0.21892v-3.4805l-0.90561 0.1457v3.5176c0 0.16992 0.0177 0.32272 0.05193 0.45826 0.03416 0.1359 0.09904 0.25118 0.19435 0.34649 0.09516 0.09509 0.22485 0.16918 0.38891 0.22163 0.16297 0.05266 0.37545 0.08046 0.6371 0.08514v-0.76495c-0.04952-0.0094-0.09407-0.02158-0.12969-0.03709" fill-rule="evenodd"/>
 <path d="m33.65 8.6056c-0.06481-0.02823-0.11425-0.06481-0.1487-0.10921-0.0346-0.04454-0.058-0.09948-0.06993-0.16406-0.01192-0.06473-0.01821-0.13773-0.01821-0.21892v-3.4805l-0.90517 0.1457v3.5176c0 0.16992 0.01704 0.32272 0.05171 0.45826 0.03423 0.1359 0.09904 0.25118 0.19435 0.34649 0.0948 0.09509 0.22448 0.16918 0.38884 0.22163 0.16333 0.05266 0.37626 0.08046 0.63827 0.08514v-0.76605c-0.04996-0.0091-0.09516-0.02048-0.13115-0.03599" fill-rule="evenodd"/>
 <path d="m26.322 4.6329-0.92031 0.61047 0.16077 0.30677c0.05705 0.08031 0.14812 0.13261 0.25038 0.13261 0.03767 0 0.07373-0.0083 0.1073-0.02092l0.79333-0.40369z" fill-rule="evenodd"/>
 <polygon transform="translate(-2.9258e-5 3.6573e-5)" points="2.9258e-5 5.5951 15.342 11.287 15.317 -3.6573e-5" fill="url(#linearGradient4503)" fill-rule="evenodd"/>
 <path d="m10.221 6.5561c-0.04096 0.0074-0.09348 0.01375-0.15675 0.01931-0.06364 0.0057-0.13247 0.0086-0.20729 0.0086-0.22777 0-0.39908-0.0787-0.5148-0.23524-0.11564-0.15653-0.17343-0.36397-0.17343-0.62122 0-0.53798 0.19735-0.8065 0.59306-0.8065 0.08573 0 0.17072 0.01119 0.25469 0.03343 0.0839 0.02253 0.15222 0.05076 0.20451 0.08397zm0-2.2118c-0.09348-0.04089-0.18557-0.07263-0.27715-0.09516-0.09172-0.02267-0.19508-0.0335-0.31109-0.0335-0.20876 0-0.39425 0.03526-0.55715 0.1065-0.16187 0.07088-0.29909 0.17314-0.41122 0.3075-0.11206 0.13466-0.19771 0.29785-0.2574 0.49007-0.05991 0.19223-0.08953 0.408-0.08953 0.64682 0 0.23524 0.0346 0.44699 0.10372 0.63534 0.06898 0.18864 0.16838 0.34912 0.29924 0.48137 0.13086 0.13254 0.29097 0.2345 0.48137 0.30531 0.1904 0.07102 0.40698 0.10628 0.6496 0.10628 0.10079 0 0.20598-0.0049 0.31657-0.01419 0.11016-0.0091 0.21797-0.02107 0.32447-0.03621 0.10657-0.01478 0.20817-0.03284 0.30538-0.05332 0.09662-0.02004 0.18279-0.04162 0.2574-0.06407v-4.2496l-0.83422 0.13429z" fill="#f0f1f1" fill-rule="evenodd"/>
 <path d="m12.254 4.9597c0.04103-0.0074 0.09311-0.01412 0.15675-0.01975 0.06334-0.0056 0.13247-0.0085 0.20729-0.0085 0.22777 0 0.39945 0.0787 0.5148 0.23524 0.11564 0.1569 0.1735 0.36397 0.1735 0.6213 0 0.53791-0.19742 0.8065-0.59314 0.8065-0.08595 0-0.17065-0.01126-0.25498-0.0335-0.08361-0.02253-0.15192-0.05076-0.20422-0.08397zm0 2.2114c0.09311 0.04089 0.18564 0.073 0.27729 0.09516 0.09129 0.02267 0.19493 0.0335 0.31094 0.0335 0.20854 0 0.39433-0.03526 0.55686-0.10613 0.16224-0.07088 0.29938-0.1735 0.41152-0.30787 0.11177-0.13437 0.19778-0.29748 0.2574-0.49007 0.05998-0.19223 0.0896-0.408 0.0896-0.64646 0-0.2356-0.03452-0.44699-0.10372-0.63578-0.06905-0.18835-0.16845-0.34876-0.29923-0.48137-0.13086-0.13247-0.29104-0.23414-0.48137-0.30494-0.1904-0.07132-0.40698-0.1065-0.6496-0.1065-0.10123 0-0.20642 0.0048-0.31664 0.01412-0.10972 0.0091-0.2179 0.02107-0.32447 0.03621-0.10657 0.01478-0.2081 0.03284-0.30538 0.05332-0.09662 0.02041-0.18272 0.04198-0.2574 0.06407v4.2496l0.83422-0.134z" fill="#f0f1f1" fill-rule="evenodd"/>
</svg>
