<svg width="800" height="321.24" version="1.1" viewBox="0 0 800 321.24" xmlns="http://www.w3.org/2000/svg">
 <path d="m435.92 0-435.92 159.26 436.64 161.98zm-121.29 81.881v120.96c-2.1235 0.63895-4.5877 1.264-7.3376 1.8344-2.7667 0.58288-5.6387 1.0802-8.6717 1.5009-3.0311 0.4309-6.0924 0.79718-9.2276 1.0562-3.1475 0.2644-6.1367 0.3891-9.0053 0.3891-6.9052 0-13.092-0.98045-18.511-3.0018-5.419-2.0153-9.9502-4.9551-13.675-8.7273-3.7244-3.764-6.5417-8.3058-8.505-13.675-1.9672-5.3606-2.9462-11.427-2.9462-18.122 0-6.7971 0.79636-12.929 2.5015-18.4 1.6988-5.4708 4.1483-10.12 7.3376-13.953 3.1913-3.824 7.1221-6.71 11.729-8.7273 4.6363-2.0276 9.9011-3.0573 15.843-3.0573 3.3018 0 6.2281 0.35536 8.8385 1.0006 2.6064 0.64123 5.233 1.5044 7.8935 2.6682v-37.911zm44.637 38.245c6.9052 0 13.092 0.97191 18.511 3.0018 5.417 2.015 9.9502 4.9571 13.675 8.7273 3.7221 3.7742 6.5953 8.314 8.5606 13.675 1.9695 5.3732 2.9462 11.416 2.9462 18.122 0 6.7868-0.84996 12.929-2.5571 18.4-1.6968 5.4813-4.1565 10.128-7.3376 13.953-3.1916 3.8243-7.1115 6.71-11.729 8.7273-4.6258 2.017-9.9073 3.0018-15.843 3.0018-3.3018 0-6.2403-0.29978-8.8385-0.945-2.6085-0.63069-5.2435-1.5044-7.8935-2.6682v37.911l-23.736 3.8356v-120.96c2.1255-0.6287 4.5877-1.2535 7.3376-1.8344 2.7687-0.58289 5.6386-1.0802 8.6718-1.5009 3.0331-0.4309 6.1049-0.79718 9.2276-1.0562 3.137-0.26527 6.1241-0.38909 9.0053-0.38909zm-81.437 19.956c-11.262 0-16.899 7.6464-16.899 22.958 0 7.3216 1.6561 13.222 4.9473 17.677 3.2935 4.4553 8.1927 6.6706 14.675 6.6706 2.1295 0 4.0811-0.0601 5.8923-0.22234 1.8007-0.15824 3.2813-0.34529 4.447-0.55589v-43.192c-1.4882-0.94519-3.4489-1.7491-5.8367-2.3903-2.3899-0.63297-4.7865-0.94499-7.2264-0.94499zm81.27 0.27793c-2.1295 0-4.0896 0.063-5.8924 0.22234-1.8113 0.16023-3.2793 0.34528-4.447 0.55587v43.192c1.4885 0.94519 3.4571 1.7491 5.8367 2.3903 2.4001 0.63297 4.7802 0.945 7.2265 0.945 11.263 0 16.899-7.6484 16.899-22.958 0-7.3239-1.6561-13.211-4.9474-17.677-3.283-4.4553-8.1927-6.6706-14.675-6.6706z" fill="#fff" stroke-width="28.461"/>
 <g transform="matrix(3.0086 0 0 3.0086 940.11 1862)" fill="#fff" aria-label="PLUS">
  <path transform="matrix(1.6178 0 0 1.6178 -310.91 -402.69)" d="m106.74-109.29v8.0117h-6v3.9551h6v5.3418h3.957v-5.3418h2.7188c1.0055 0 1.8952-0.14861 2.6699-0.44531 0.77473-0.2967 1.4276-0.70886 1.9551-1.2363 0.52747-0.52747 0.92181-1.1536 1.1856-1.8789 0.28022-0.74176 0.41992-1.5482 0.41992-2.4219 0-0.87363-0.1397-1.6732-0.41992-2.3984-0.26374-0.74176-0.65808-1.3768-1.1856-1.9043s-1.1804-0.93962-1.9551-1.2363c-0.77472-0.2967-1.6644-0.44531-2.6699-0.44531zm3.957 3.957h2.7188c0.74176 0 1.3025 0.18033 1.6816 0.54297 0.39561 0.34616 0.59375 0.84152 0.59375 1.4844 0 0.64285-0.19814 1.1452-0.59375 1.5078-0.37912 0.34615-0.93988 0.51953-1.6816 0.51953h-2.7188z" stroke-width=".61813"/>
  <path d="m-96.461-551.5v-6.4h-11.84v-21.6h-6.4v28z"/>
  <path d="m-93.451-562.62v-16.88h6.4v16.88q0 2.64 1.32 3.96t3.72 1.32 3.72-1.32 1.32-3.96v-16.88h6.4v16.88q0 2.76-0.8 4.92t-2.28 3.68q-1.48 1.48-3.6 2.28t-4.76 0.8-4.76-0.8-3.6-2.28q-1.48-1.52-2.28-3.68t-0.8-4.92z"/>
  <path d="m-56.889-574.62q-1.52 0-2.64 0.88t-1.12 2.28q0 1.28 1.04 1.92t2.6 1.08q1.56 0.4 3.4 0.84t3.4 1.32q1.56 0.84 2.6 2.32t1.04 4.04q0 2-0.8 3.68-0.76 1.64-2.16 2.84-1.4 1.16-3.36 1.84-1.96 0.64-4.32 0.64-3.28 0-5.96-1.2-2.64-1.24-4.32-3.36l4.04-3.6q1.2 1.28 2.8 2 1.64 0.72 3.44 0.72 1.88 0 3.04-0.96 1.2-1 1.2-2.6 0-1.28-1.04-1.92-1.04-0.68-2.6-1.08-1.56-0.44-3.4-0.84-1.84-0.44-3.4-1.28-1.56-0.88-2.6-2.36t-1.04-4q0-1.92 0.72-3.52t2-2.72q1.32-1.16 3.12-1.76 1.8-0.64 4-0.64 3.28 0 5.52 1 2.28 1 3.96 3.12l-4.36 3.64q-0.96-1.28-2.2-1.8-1.2-0.52-2.6-0.52z"/>
 </g>
</svg>
