<svg width="36.411" height="11.273" version="1.1" viewBox="0 0 36.411 11.273" xmlns="http://www.w3.org/2000/svg">
 <defs>
  <linearGradient id="linearGradient4501" x1="2.3282e-5" x2="15.27" y1="5.6364" y2="5.6364" gradientUnits="userSpaceOnUse">
   <stop stop-color="#00a4da" offset="0"/>
   <stop stop-color="#212463" offset="1"/>
  </linearGradient>
 </defs>
 <polygon transform="translate(-2.3282e-5)" points="15.27 0 2.3282e-5 5.636 15.27 11.273" fill="url(#linearGradient4501)" fill-rule="evenodd"/>
 <path d="m10.163 6.5729c-0.04098 0.0072-0.09297 0.01374-0.15599 0.01925-0.06356 0.0058-0.13139 0.0085-0.20596 0.0085-0.22645 0-0.39726-0.0783-0.51204-0.2339-0.11509-0.15591-0.17267-0.36211-0.17267-0.61798 0-0.53478 0.1965-0.80174 0.59003-0.80174 0.08521 0 0.1698 0.01071 0.25369 0.0329 0.08304 0.02243 0.15079 0.05099 0.20294 0.08397zm0-2.1992c-0.09297-0.04074-0.18486-0.07163-0.27573-0.09437-0.0908-0.02282-0.19347-0.03399-0.30895-0.03399-0.2079 0-0.39229 0.03531-0.5541 0.10593-0.16103 0.0707-0.29746 0.17267-0.4089 0.30608-0.11167 0.13395-0.19688 0.29653-0.25656 0.48721-0.05921 0.192-0.08886 0.40595-0.08886 0.64327 0 0.23336 0.03438 0.44476 0.1029 0.63163 0.06876 0.18796 0.16817 0.3479 0.29816 0.47937 0.1296 0.13146 0.28955 0.23258 0.47875 0.30313 0.18928 0.0707 0.40425 0.10585 0.64606 0.10585 0.10011 0 0.20472-0.0053 0.31446-0.01412 0.10919-0.0092 0.21722-0.02103 0.32237-0.03632 0.10593-0.01405 0.20752-0.03236 0.30414-0.05293 0.096-0.02002 0.18144-0.04136 0.25594-0.06333v-4.226l-0.82968 0.13356z" fill="#fff" fill-rule="evenodd"/>
 <path d="m12.186 4.9857c0.0409-0.0078 0.09227-0.01428 0.15599-0.01994 0.06286-5e-3 0.13139-0.0085 0.20581-0.0085 0.22599 0 0.39726 0.07861 0.51204 0.23444 0.11509 0.15552 0.17252 0.36156 0.17252 0.61758 0 0.53478-0.19657 0.80236-0.59003 0.80236-0.08537 0-0.17011-0.01141-0.2533-0.03399-0.08335-0.02235-0.15118-0.04975-0.20302-0.08335zm0 2.1987c0.09227 0.04059 0.1847 0.07233 0.27534 0.09445 0.09064 0.02289 0.19386 0.03384 0.3091 0.03384 0.20752 0 0.39222-0.03547 0.55426-0.10578 0.16126-0.07085 0.29731-0.1729 0.40898-0.30677 0.11144-0.13278 0.19688-0.2956 0.25579-0.4869 0.05983-0.19099 0.08925-0.40572 0.08925-0.64234 0-0.23437-0.03438-0.44476-0.10267-0.63225-0.06861-0.1875-0.16786-0.34736-0.29809-0.47937-0.12968-0.13131-0.28916-0.23196-0.47882-0.3032-0.18936-0.07054-0.40456-0.10516-0.64599-0.10516-0.10034 0-0.20472 4e-3 -0.31438 0.0135-0.1095 9e-3 -0.21722 0.02111-0.32307 0.03632-0.10554 0.01467-0.20682 0.03213-0.30344 0.05308-0.09646 0.01979-0.18152 0.04136-0.2561 0.06364v4.2258l0.82983-0.13364z" fill="#fff" fill-rule="evenodd"/>
 <path d="m19.694 3.1308c-0.88245 0-1.6216 0.31453-2.2176 0.94337-0.59616 0.6293-0.89417 1.4091-0.89417 2.3397 0 0.65165 0.15925 1.171 0.47774 1.5576 0.31795 0.38694 0.74447 0.5801 1.2798 0.5801 0.66182 0 1.253-0.23181 1.7727-0.69589 0.30708-0.27387 0.46043-0.49481 0.46043-0.66221 0-0.053-0.02926-0.09351-0.08777-0.12153-0.15474 0.28892-0.39509 0.53183-0.72173 0.72833-0.32625 0.19665-0.65313 0.29498-0.98039 0.29498-0.45446 0-0.81742-0.17973-1.089-0.53998-0.27201-0.35962-0.40797-0.84256-0.40797-1.448 0-0.78319 0.19386-1.4188 0.58095-1.9079 0.38725-0.48938 0.89075-0.73376 1.5099-0.73376 0.30212 0 0.56691 0.06325 0.79421 0.18936 0.22723 0.12603 0.34123 0.27395 0.34123 0.44313 0 0.05037-0.01785 0.1147-0.05363 0.19316 0.03578 0.0076 0.06208 0.01125 0.08017 0.01125 0.08847 0 0.16352-0.06457 0.22397-0.19409l0.07279-0.16367 0.25493-0.55899c-0.48231-0.16972-0.94764-0.25493-1.3964-0.25493" fill="#fff" fill-rule="evenodd"/>
 <path d="m22.003 5.054c0.07062-0.63877 0.20069-1.0917 0.38942-1.3591 0.18881-0.26735 0.473-0.40122 0.85335-0.40122 0.15886 0 0.29839 0.02049 0.41783 0.06076l0.53905-0.55162c-0.10143-0.02522-0.22583-0.03787-0.37258-0.03787-0.60385 0-1.1365 0.26999-1.5995 0.80997-0.46276 0.54052-0.73973 1.2138-0.83139 2.0203l-0.29273 1.5415-0.04245 0.33867c-0.02243 0.19246-0.03345 0.38166-0.03345 0.5666 0 0.30421 0.10516 0.45624 0.31539 0.45624 0.18509 0 0.4141-0.13418 0.6865-0.40293 0.27255-0.26875 0.40906-0.4945 0.40906-0.67734 0-0.05564-0.03663-0.10112-0.11004-0.13697-0.0582 0.18206-0.15048 0.34759-0.27643 0.49784-0.12595 0.15001-0.236 0.22537-0.32967 0.22537-0.07838 0-0.11734-0.11416-0.11734-0.34216 0-0.10671 0.01397-0.28287 0.04183-0.52857z" fill="#fff" fill-rule="evenodd"/>
 <path d="m25.383 5.7929c-0.09095 0.6255-0.35287 1.1701-0.78412 1.6335-0.32012 0.3448-0.5926 0.51646-0.81812 0.51646-0.19588 0-0.29335-0.16452-0.29335-0.49357 0-0.64063 0.12083-1.1776 0.36133-1.6106 0.24151-0.43335 0.53951-0.64994 0.89448-0.64994 0.23631 0 0.4699 0.06472 0.70039 0.19401zm1.0151 1.4997c-0.22218 0.47432-0.4394 0.71156-0.65119 0.71156-0.06364 0-0.09483-0.05463-0.09483-0.16328 0-0.08172 0.01653-0.24221 0.04951-0.48286l0.03399-0.24329 0.24329-1.6795c0.0026-0.02274 0.0194-0.10376 0.04951-0.24314l0.04548-0.20139c3e-3 -0.01009 0.01032-0.03787 0.02336-0.08343-0.18524-0.06604-0.41014-0.09887-0.67346-0.09887-0.69224 0-1.2914 0.28225-1.7973 0.84652-0.50622 0.56442-0.75937 1.232-0.75937 2.0026 0 0.56047 0.17337 0.84062 0.52112 0.84062 0.25315 0 0.55108-0.14993 0.89425-0.4505 0.34348-0.30056 0.65802-0.68681 0.94461-1.1584l-0.04245 0.28155-0.04967 0.33479-0.03795 0.30452c-0.018 0.13418-0.02693 0.23926-0.02693 0.31547 0 0.24842 0.09258 0.37258 0.27767 0.37258 0.25369 0 0.5288-0.18214 0.82533-0.54758 0.21823-0.26875 0.32734-0.44763 0.32734-0.53618 0-0.04067-0.03438-0.08094-0.10228-0.12184z" fill="#fff" fill-rule="evenodd"/>
 <path d="m26.298 3.0927c0-0.05324-0.0253-0.12037-0.07598-0.2017-0.23064 0.2131-0.55915 0.40976-0.98535 0.58964l-0.42954 0.78746c0.9942-0.52228 1.4909-0.91435 1.4909-1.1754" fill="#fff" fill-rule="evenodd"/>
 <path d="m27.794 5.0787c0.23491 0 0.45003 0.07209 0.64203 0.21667l0.45717-0.42233c-0.24096-0.07597-0.46292-0.11392-0.6657-0.11392-0.37289 0-0.68665 0.09996-0.94143 0.30041-0.25524 0.20045-0.38275 0.44732-0.38275 0.74191 0 0.20542 0.15901 0.47425 0.47735 0.80647l0.21768 0.22451c0.33556 0.34969 0.50319 0.62263 0.50319 0.81765 0 0.35241-0.18299 0.52896-0.54852 0.52896-0.29987 0-0.54937-0.10516-0.74742-0.31585l-0.52632 0.42978c0.24919 0.13713 0.5146 0.20526 0.79941 0.20526 0.40029 0 0.75425-0.12223 1.061-0.36668 0.30708-0.24469 0.46036-0.52671 0.46036-0.84667 0-0.22288-0.17492-0.51716-0.52508-0.88276l-0.23569-0.25074c-0.30708-0.31966-0.46035-0.56186-0.46035-0.72693 0-0.23049 0.13814-0.34573 0.41503-0.34573" fill="#fff" fill-rule="evenodd"/>
 <path d="m30.719 7.2926c-0.22474 0.47432-0.44289 0.71156-0.65522 0.71156-0.06278 0-0.09491-0.05463-0.09491-0.16336 0-0.08164 0.01668-0.24221 0.04974-0.48278l0.03803-0.24329 0.15583-1.0865c0.02576-0.18517 0.03981-0.28792 0.04214-0.30802l0.03391-0.25439c0.02049-0.15707 0.0305-0.26099 0.0305-0.31182 0-0.26331-0.09445-0.39493-0.28543-0.39493-0.1698 0-0.39726 0.13053-0.68223 0.3916-0.28528 0.2613-0.42854 0.46936-0.42854 0.62395 0 0.04315 0.02445 0.08645 0.07217 0.12937 0.22707-0.43374 0.43925-0.65056 0.63613-0.65056 0.07039 0 0.10632 0.06333 0.10632 0.19021 0 0.0603-7e-3 0.13534-0.01925 0.22381l-0.03034 0.20922-0.03803 0.26223-0.14885 1.0338c-0.07567 0.53431-0.11369 0.85327-0.11369 0.95726 0 0.24554 0.09258 0.36824 0.27798 0.36824 0.25369 0 0.5288-0.18214 0.82533-0.54758 0.22048-0.26875 0.33068-0.44902 0.33068-0.54006 0-0.03818-0.03391-0.07714-0.10228-0.11796" fill="#fff" fill-rule="evenodd"/>
 <path d="m32.325 7.9812c-0.22296 0-0.40394-0.10523-0.542-0.31593-0.13845-0.21023-0.2069-0.48806-0.2069-0.83294 0-0.48938 0.09561-0.87523 0.2866-1.1566 0.19161-0.28147 0.45384-0.42225 0.78575-0.42225 0.18524 0 0.3791 0.04191 0.58173 0.12533l0.43428-0.52081c-0.13992-0.06589-0.30848-0.09895-0.5063-0.09895-0.54502 0-1.0405 0.26875-1.4874 0.80647-0.44623 0.5375-0.6695 1.1349-0.6695 1.7915 0 0.33751 0.08413 0.61223 0.25299 0.82378 0.16871 0.21194 0.38484 0.3174 0.64886 0.3174 0.27379 0 0.57436-0.12828 0.90325-0.38585 0.32835-0.25734 0.4931-0.4914 0.4931-0.70186 0-0.05347-0.0284-0.1102-0.08443-0.17128-0.21559 0.49481-0.51204 0.74198-0.89006 0.74198" fill="#fff" fill-rule="evenodd"/>
 <path d="m35.534 7.5854c-0.19626 0.32486-0.44033 0.48705-0.73228 0.48705-0.48938 0-0.73376-0.39594-0.73376-1.187 0-0.48185 0.09825-0.88586 0.29467-1.2117 0.19688-0.32579 0.43909-0.48884 0.72895-0.48884 0.49186 0 0.73787 0.39571 0.73787 1.1868 0 0.48441-0.09871 0.88889-0.29544 1.2136m0.01001-2.8263c-0.47914 0-0.94252 0.28225-1.3886 0.84613-0.44639 0.5645-0.66966 1.1508-0.66966 1.7596 0 0.75588 0.28512 1.1334 0.85568 1.1334 0.48682 0 0.95431-0.28124 1.4004-0.84435 0.44638-0.56295 0.6695-1.1501 0.6695-1.761 0-0.75634-0.28908-1.1338-0.86732-1.1338" fill="#fff" fill-rule="evenodd"/>
 <path d="m30.577 3.3301c-0.09274 0.05626-0.19246 0.10648-0.29917 0.15048l-0.31989 0.78754c0.15327-0.0939 0.28955-0.18586 0.4096-0.27604 0.03151-0.02328 0.06185-0.04718 0.0915-0.07039 0.13496-0.24539 0.17104-0.48379 0.17872-0.63155-0.02002 0.01358-0.04012 0.02693-0.06076 0.03997" fill="#fff" fill-rule="evenodd"/>
</svg>
