<svg width="800" height="247.69" version="1.1" viewBox="0 0 800 247.69" xmlns="http://www.w3.org/2000/svg">
 <path d="m335.49 0-335.49 123.85 335.49 123.85zm-93.978 64.068v92.82c-1.6369 0.48271-3.5123 0.97625-5.6216 1.4161-2.1228 0.45195-4.3669 0.84994-6.6943 1.1586-2.3103 0.33594-4.6815 0.57029-7.0806 0.77242-2.4111 0.19379-4.7094 0.3433-6.9089 0.3433-5.3128 0-10.002-0.80682-14.161-2.3602-4.1569-1.5501-7.6661-3.7631-10.514-6.6514-2.856-2.8886-5.0549-6.3838-6.5656-10.514-1.5055-4.1058-2.2744-8.7764-2.2744-13.904 0-5.2142 0.67307-9.8997 1.974-14.118 1.3112-4.1895 3.168-7.7422 5.6215-10.685 2.4485-2.9312 5.4307-5.1839 8.9687-6.7372 3.5552-1.5516 7.6193-2.3173 12.187-2.3173 2.5372 0 4.7852 0.22813 6.7802 0.72952 1.9965 0.49962 4.008 1.1647 6.0506 2.0598v-29.095zm34.287 29.309c5.3045 0 10.044 0.76742 14.204 2.3173 4.167 1.5652 7.6643 3.8093 10.514 6.6943 2.8613 2.9004 5.0582 6.394 6.5656 10.514 1.5004 4.1194 2.2315 8.7542 2.2315 13.904 0 5.1988-0.61654 9.9219-1.9311 14.118-1.2943 4.2031-3.1731 7.7679-5.6215 10.685-2.4535 2.9413-5.4685 5.1806-9.0116 6.7372-3.5602 1.5448-7.6277 2.3173-12.187 2.3173-2.532 0-4.7887-0.22659-6.7802-0.72951-1.9915-0.48601-4.0234-1.2109-6.0507-2.1027v29.138l-18.238 2.918v-92.82c1.6386-0.48952 3.5022-0.9813 5.6215-1.4161 2.1229-0.4603 4.3755-0.83632 6.6944-1.1586 2.3256-0.33418 4.6747-0.61759 7.0805-0.81533 2.4094-0.20873 4.7043-0.30039 6.9089-0.30039zm-62.523 15.32c-8.6463 0-12.96 5.8444-12.96 17.594 0 5.6218 1.2476 10.178 3.7763 13.603 2.5218 3.4187 6.2677 5.1495 11.243 5.1495 1.6384 0 3.1522-0.0871 4.5487-0.21456 1.3846-0.12106 2.4897-0.27093 3.3901-0.42912v-33.128c-1.1458-0.72461-2.5955-1.3524-4.42-1.8452-1.8432-0.48754-3.7064-0.72952-5.5786-0.72952zm62.395 0.21457c-1.6351 0-3.1247 0.0618-4.5058 0.17165-1.4 0.12435-2.5344 0.30066-3.433 0.47203v33.128c1.139 0.73823 2.6316 1.3542 4.4629 1.8452 1.8278 0.49611 3.7029 0.72952 5.5786 0.72952 8.6448 0 12.96-5.8873 12.96-17.637 0-5.6251-1.2476-10.143-3.7763-13.56-2.5218-3.4238-6.3207-5.1495-11.286-5.1495z" fill="#fff" stroke-width="21.971"/>
 <path d="m432.7 68.787c-19.388 0-35.628 6.9106-48.723 20.727-13.098 13.826-19.646 30.96-19.646 51.406 0 14.318 3.4989 25.728 10.497 34.222 6.9857 8.5015 16.357 12.745 28.119 12.745 14.541 0 27.53-5.0931 38.948-15.29 6.7469-6.0172 10.116-10.872 10.116-14.55 0-1.1645-0.64288-2.0545-1.9284-2.6702-3.3998 6.3479-8.6806 11.685-15.857 16.002-7.1681 4.3206-14.35 6.4811-21.54 6.4811-9.985 0-17.96-3.9489-23.927-11.864-5.9764-7.9013-8.9636-18.512-8.9636-31.814 0-17.208 4.2593-31.173 12.764-41.919 8.5083-10.752 19.571-16.122 33.174-16.122 6.6379 0 12.456 1.3897 17.45 4.1605 4.9925 2.769 7.4972 6.019 7.4972 9.7361 0 1.1067-0.39219 2.5201-1.1783 4.244 0.78613 0.16698 1.364 0.24717 1.7614 0.24717 1.9438 0 3.5927-1.4187 4.9209-4.2644l1.5993-3.596 5.6011-12.282c-10.597-3.729-20.821-5.6011-30.681-5.6011" fill="#fff" fill-rule="evenodd" stroke-width="21.971"/>
 <path d="m483.43 111.04c1.5516-14.035 4.4094-23.986 8.556-29.861 4.1484-5.874 10.392-8.8153 18.749-8.8153 3.4903 0 6.556 0.45019 9.1802 1.335l11.844-12.12c-2.2285-0.55411-4.9618-0.83205-8.186-0.83205-13.267 0-24.97 5.932-35.143 17.796-10.167 11.876-16.253 26.669-18.267 44.388l-6.4316 33.869-0.93268 7.441c-0.49281 4.2286-0.73493 8.3855-0.73493 12.449 0 6.6838 2.3105 10.024 6.9295 10.024 4.0666 0 9.0983-2.9481 15.083-8.8528 5.9882-5.9048 8.9875-10.865 8.9875-14.882 0-1.2225-0.8048-2.2217-2.4177-3.0094-1.2787 4.0001-3.3062 7.637-6.0735 10.938-2.7673 3.2959-5.1852 4.9516-7.2432 4.9516-1.7221 0-2.5781-2.5082-2.5781-7.5177 0-2.3445 0.30694-6.215 0.91906-11.613z" fill="#fff" fill-rule="evenodd" stroke-width="21.971"/>
 <path d="m557.69 127.28c-1.9983 13.743-7.753 25.708-17.228 35.89-7.0334 7.5757-13.02 11.347-17.975 11.347-4.3037 0-6.4452-3.6147-6.4452-10.844 0-14.075 2.6548-25.873 7.9388-35.387 5.3063-9.5212 11.854-14.28 19.653-14.28 5.192 0 10.324 1.422 15.388 4.2626zm22.303 32.95c-4.8816 10.421-9.6541 15.634-14.307 15.634-1.3982 0-2.0835-1.2003-2.0835-3.5874 0-1.7955 0.36319-5.3216 1.0878-10.609l0.7468-5.3454 5.3454-36.901c0.0571-0.49963 0.42624-2.2797 1.0878-5.3421l0.99925-4.4248c0.0659-0.22169 0.22674-0.83205 0.51324-1.8331-4.0699-1.451-9.0113-2.1723-14.797-2.1723-15.209 0-28.374 6.2014-39.489 18.599-11.122 12.401-16.684 27.068-16.684 43.999 0 12.314 3.8092 18.469 11.45 18.469 5.562 0 12.108-3.2941 19.648-9.898 7.5467-6.6037 14.457-15.09 20.754-25.451l-0.93267 6.186-1.0913 7.3557-0.83381 6.6907c-0.39548 2.9481-0.59168 5.2568-0.59168 6.9312 0 5.4581 2.0341 8.186 6.1007 8.186 5.5739 0 11.618-4.0018 18.133-12.031 4.7948-5.9048 7.192-9.835 7.192-11.781 0-0.89357-0.75537-1.7784-2.2472-2.677z" fill="#fff" fill-rule="evenodd" stroke-width="21.971"/>
 <path d="m577.8 67.95c0-1.1697-0.55588-2.6447-1.6694-4.4316-5.0674 4.6821-12.285 9.0029-21.649 12.955l-9.4375 17.301c21.844-11.475 32.757-20.089 32.757-25.825" fill="#fff" fill-rule="evenodd" stroke-width="21.971"/>
 <path d="m610.67 111.59c5.1612 0 9.8877 1.5839 14.106 4.7605l10.045-9.2791c-5.2942-1.6692-10.171-2.503-14.626-2.503-8.1928 0-15.087 2.1962-20.684 6.6004-5.6079 4.4041-8.4095 9.8282-8.4095 16.301 0 4.5133 3.4936 10.42 10.488 17.719l4.7827 4.9327c7.3726 7.6831 11.056 13.68 11.056 17.965 0 7.7429-4.0205 11.622-12.052 11.622-6.5885 0-12.07-2.3105-16.422-6.9396l-11.564 9.4428c5.475 3.0129 11.306 4.5098 17.564 4.5098 8.7948 0 16.572-2.6855 23.311-8.0564 6.7469-5.3761 10.115-11.572 10.115-18.602 0-4.8969-3.8432-11.363-11.537-19.395l-5.1784-5.5091c-6.7469-7.0233-10.114-12.345-10.114-15.972 0-5.0641 3.0351-7.5961 9.1187-7.5961" fill="#fff" fill-rule="evenodd" stroke-width="21.971"/>
 <path d="m674.93 160.23c-4.9378 10.421-9.7308 15.634-14.396 15.634-1.3794 0-2.0853-1.2003-2.0853-3.5892 0-1.7937 0.36648-5.3216 1.0928-10.607l0.83556-5.3454 3.4238-23.872c0.56598-4.0684 0.87467-6.3259 0.92586-6.7676l0.74505-5.5892c0.45019-3.451 0.67012-5.7342 0.67012-6.851 0-5.7852-2.0752-8.6771-6.2712-8.6771-3.7307 0-8.7283 2.8679-14.989 8.6039-6.2679 5.7411-9.4155 10.312-9.4155 13.709 0 0.94806 0.5372 1.8994 1.5857 2.8424 4.989-9.5298 9.6508-14.294 13.977-14.294 1.5466 0 2.336 1.3914 2.336 4.1791 0 1.3249-0.1538 2.9736-0.42294 4.9174l-0.66661 4.5968-0.83556 5.7615-3.2704 22.714c-1.6626 11.739-2.4979 18.747-2.4979 21.032 0 5.3948 2.0341 8.0907 6.1076 8.0907 5.5739 0 11.618-4.0018 18.133-12.031 4.8442-5.9048 7.2654-9.8655 7.2654-11.866 0-0.83886-0.74504-1.6948-2.2472-2.5917" fill="#fff" fill-rule="evenodd" stroke-width="21.971"/>
 <path d="m710.22 175.36c-4.8987 0-8.875-2.312-11.908-6.9414-3.0419-4.619-4.5458-10.723-4.5458-18.301 0-10.752 2.1007-19.23 6.2969-25.412 4.2099-6.1842 9.9714-9.2773 17.264-9.2773 4.0699 0 8.3293 0.92082 12.781 2.7536l9.5416-11.443c-3.0742-1.4477-6.7777-2.174-11.124-2.174-11.975 0-22.861 5.9048-32.68 17.719-9.8042 11.81-14.71 24.935-14.71 39.361 0 7.4155 1.8484 13.451 5.5585 18.099 3.7068 4.6566 8.4554 6.9736 14.256 6.9736 6.0155 0 12.619-2.8185 19.845-8.4776 7.2142-5.6541 10.834-10.797 10.834-15.421 0-1.1748-0.62398-2.4212-1.855-3.7632-4.7368 10.872-11.25 16.302-19.556 16.302" fill="#fff" fill-rule="evenodd" stroke-width="21.971"/>
 <path d="m780.72 166.66c-4.3121 7.1376-9.6746 10.701-16.089 10.701-10.752 0-16.122-8.6993-16.122-26.08 0-10.587 2.1587-19.463 6.4742-26.622 4.3257-7.158 9.6473-10.74 16.016-10.74 10.807 0 16.212 8.6942 16.212 26.075 0 10.643-2.1688 19.53-6.4912 26.664m0.21993-62.097c-10.527 0-20.708 6.2014-30.509 18.59-9.8077 12.403-14.713 25.284-14.713 38.66 0 16.608 6.2644 24.902 18.8 24.902 10.696 0 20.967-6.1792 30.768-18.551 9.8075-12.369 14.71-25.269 14.71-38.691 0-16.618-6.3514-24.911-19.056-24.911" fill="#fff" fill-rule="evenodd" stroke-width="21.971"/>
 <path d="m671.81 73.166c-2.0376 1.2361-4.2286 2.3395-6.5731 3.3062l-7.0284 17.303c3.3675-2.0631 6.3618-4.0836 8.9994-6.0649 0.69231-0.51149 1.3589-1.0366 2.0104-1.5466 2.9652-5.3915 3.758-10.629 3.9267-13.876-0.43986 0.29837-0.88148 0.59169-1.335 0.87819" fill="#fff" fill-rule="evenodd" stroke-width="21.971"/>
</svg>
