<svg width="800" height="674.57" enable-background="new 0 0 300 252.964" space="preserve" version="1.1" viewBox="0 0 800 674.57" xmlns="http://www.w3.org/2000/svg">
 <link href="" rel="stylesheet" type="text/css"/>
 <style type="text/css"/>
 <g transform="translate(0 421.6)">
  <g stroke-width="2.6667">
   <g fill="#fff">
    <path d="m781.26-378.71c-124.91-28.461-253.31-42.896-381.36-42.896-128.11 0-256.43 14.435-381.34 42.896-10.389 2.368-18.56 12.587-18.56 23.211v309.28c0 4.9066 1.704 9.528 5.024 12.76 3.896 3.8667 9.4693 5.7706 15.243 4.9093 78.808-11.376 159.4-17.149 239.68-17.149 174.53 0 348.98 26.728 518.66 79.501 1.904 0.576 4.0133 0.92266 5.9173 0.92266 8.8613 0 15.475-6.696 15.475-15.933v-374.29c-3e-3 -10.624-8.3173-20.843-18.739-23.211"/>
    <path d="m786.11 93.965c-14.288 11.891-28.784 24.075-43.045 36.2-4.184 3.5786-10.624 5.6586-17.608 5.6586-4.3306 0-8.6293-0.81067-12.243-2.3733-175.66-75.805-356.31-124.36-536.87-144.45-5.1973-0.57866-10.507-1.2133-10.277-6.408 0.232-5.1946 5.7173-5.312 11.115-5.4266 11.168-0.17067 22.573-0.288 33.803-0.288 191.51 0 382.92 31.987 569.09 95.032 6.0373 2.136 9.9893 6.0053 10.827 10.624 0.78133 4.0987-1.0053 8.312-4.7866 11.432m-88.741 75.288c-0.57334-4.848-4.24-9.0613-10.099-11.608-221.07-95.781-446.95-148.5-671.25-156.81h-2.1973c-2.4827 0-8.5146 0-9.1493 5.08-0.60533 5.256 5.3706 6.7573 8.9786 7.68 189.6 47.92 380.04 127.25 565.89 235.67 4.0986 2.3093 9.0613 3.6933 14.144 3.6933 6.2693 0 11.835-1.904 15.907-5.2533 27.253-22.747 55.053-45.267 82.416-66.858 3.952-3.056 5.9146-7.3866 5.3653-11.6"/>
   </g>
   <path d="m82.821-249.5h16.773c19.227 0 33.168-13.221 33.168-31.349v-0.176c0-18.069-13.941-31.173-33.168-31.173h-16.773c-4.5013 0-7.9973 3.464-7.9973 8.024v46.648c0 4.504 3.4933 8.0266 7.9973 8.0266m8.024-14.779v-33.141h8.7466c9.9306 0 16.627 6.64 16.627 16.571v0.17066c0 9.872-6.696 16.397-16.627 16.397h-8.7466zm53.925 6.752v-46.648c0-4.5573 3.552-8.024 8.024-8.024h33.168c4.0426 0 7.3333 3.2906 7.3333 7.3333 0 3.9813-3.2907 7.216-7.3333 7.216h-25.229v9.3546h21.389c4.0133 0 7.3333 3.232 7.3333 7.272 0 3.9867-3.32 7.2773-7.3333 7.2773h-21.389v9.696h25.664c4.0693 0 7.3306 3.2907 7.3306 7.2746 0 3.984-3.2613 7.2773-7.3306 7.2773h-33.603c-4.472-3e-3 -8.024-3.5253-8.024-8.0293m92.864-9.8133v-0.17333c0-2.136-0.69066-3.5786-11-6.176-11.4-2.944-20.869-6.4666-20.869-19.744v-0.11467c0-11.491 9.2373-19.456 22.373-19.456 7.304 0 13.941 1.7893 19.744 5.4853 1.704 0.98133 3.5787 3.232 3.5787 6.4053 0 4.216-3.3493 7.5653-7.5626 7.5653-1.472 0-2.7733-0.46133-4.0693-1.2133-4.4453-2.6-8.2293-3.8106-11.837-3.8106-3.8373 0-6.264 1.4427-6.264 3.752v0.22933c0 2.656 1.4427 3.8106 11.779 6.5253 12.067 3.0613 20.091 7.6186 20.091 19.283v0.17334c0 12.123-9.208 19.976-23.411 19.976-8.3413 0-16.659-2.6587-23.355-7.4506-1.8187-1.384-3.0587-3.752-3.0587-6.1173 0-4.216 3.3467-7.5626 7.6186-7.5626 1.6453 0 3.2053 0.52 4.56 1.5573 4.704 3.4053 9.44 5.0826 14.461 5.0826 1.7387 0 7.2213-0.288 7.2213-4.216m68.704-29.904h-11.171v40.237c0 4.504-3.552 8.0266-8.056 8.0266-4.4746 0-7.968-3.5226-7.968-8.0266v-40.237h-11.285c-4.0986 0-7.448-3.2906-7.448-7.448 0-4.16 3.3493-7.5066 7.448-7.5066h38.48c4.1866 0 7.5066 3.3466 7.5066 7.5066 0 4.1546-3.32 7.448-7.5066 7.448m19.691 40.237v-47.685c0-4.504 3.552-7.968 7.9946-7.968 4.4746 0 7.968 3.464 7.968 7.968v47.685c0 4.504-3.4933 8.0266-7.968 8.0266-4.4453 0-7.9946-3.5226-7.9946-8.0266m73.178 3.464-23.816-31.232v27.885c0 4.3306-3.5493 7.9093-7.9093 7.9093-4.3893 0-7.9386-3.5786-7.9386-7.9093v-47.632c0-4.504 3.552-8.024 8.056-8.024h1.2987c4.0133 0 6.3226 2.2507 8.024 4.4453l22.835 29.965v-26.675c0-4.3307 3.5493-7.8506 7.8533-7.8506 4.4426 0 7.9946 3.52 7.9946 7.8506v47.632c0 4.504-3.552 8.0853-7.9946 8.0853h-0.464c-4.0133-3e-3 -6.264-2.312-7.9386-4.4506m68.474-53.576c-1.76-3.9253-4.9093-6.0053-8.864-6.0053h-0.776c-4.072 0-7.2773 2.08-9.04 6.064l-20.816 47.112c-0.46133 0.92266-0.94933 2.1387-0.94933 3.4053 0 4.216 3.3226 7.5626 7.5066 7.5626 3.3173 0 6.032-1.848 7.3306-4.9653l3.8347-8.9466h24.483l3.6693 8.4853c1.5253 3.5227 4.2133 5.4266 7.616 5.4266 4.3306 0 7.7093-3.4053 7.7093-7.7946 0-0.92266-0.31467-1.9627-0.83467-3.1733zm-3.3787 29.733h-12.299l6.1466-14.664zm69.885-19.859h-11.227v40.237c0 4.504-3.552 8.0266-8.056 8.0266-4.472 0-7.9653-3.5226-7.9653-8.0266v-40.237h-11.227c-4.16 0-7.5066-3.2906-7.5066-7.448 0-4.16 3.3493-7.5066 7.5066-7.5066h38.477c4.128 0 7.448 3.3466 7.448 7.5066-3e-3 4.1546-3.3226 7.448-7.4506 7.448m19.635 40.237v-47.685c0-4.504 3.5493-7.968 8.0213-7.968 4.504 0 8 3.464 8 7.968v47.685c0 4.504-3.496 8.0266-8 8.0266-4.472 0-8.0213-3.5226-8.0213-8.0266m64.021 8.5466c18.677 0 33.344-14.261 33.344-32.389v-0.176c0-18.357-14.315-32.157-33.168-32.157-18.619 0-33.285 14.205-33.285 32.333v0.17066c0 18.363 14.205 32.219 33.109 32.219m-16.483-32.565c0-9.8133 7.0746-17.147 16.485-17.147 9.5253 0 16.747 7.448 16.747 17.323v0.17066c0 9.816-7.104 17.205-16.571 17.205-9.5306 0-16.661-7.4453-16.661-17.376zm61.232 24.136v-47.632c0-4.504 3.4906-8.024 7.9946-8.024h1.4133c3.952 0 6.208 2.2507 7.912 4.4453l22.835 29.965v-26.675c0-4.3307 3.608-7.8506 7.9653-7.8506 4.3306 0 7.9413 3.52 7.9413 7.8506v47.632c0 4.504-3.5493 8.0853-8.056 8.0853h-0.4c-4.0133 0-6.2666-2.312-7.9973-4.448l-23.76-31.232v27.885c0 4.3307-3.5493 7.9093-7.904 7.9093-4.3946-3e-3 -7.944-3.5813-7.944-7.912m-536.99 45.435c-2.3093-5.3093-6.552-8.6026-12.355-8.6026h-1.3013c-5.8586 0-10.16 3.2907-12.528 8.6026l-34.12 76.962c-0.69333 1.56-1.2427 3.0587-1.2427 4.616 0 5.4853 4.3307 9.9893 9.9306 9.9893 4.4453 0 8.0533-2.4827 9.872-6.696l6.872-16.051h43.04l6.496 15.357c2.0213 4.4453 5.312 7.3893 10.363 7.3893 5.7173 0 10.163-4.616 10.163-10.333 0-1.3867-0.34666-2.712-1.0693-4.272zm-26.904 49.829 13.539-32.277 13.48 32.277zm176-46.651v77.65c0 6.0053-4.648 10.739-10.739 10.739-5.8026 0-10.595-4.848-10.595-10.739v-48.725l-18.792 29.04c-2.2507 3.3493-5.024 5.4266-8.9226 5.4266-3.984 0-6.7546-2.0773-9.0053-5.4266l-18.56-28.635v48.61c0 5.832-4.7333 10.448-10.565 10.448-5.9173 0-10.536-4.616-10.536-10.448v-77.941c0-5.944 4.7893-10.739 10.765-10.739h2.368c4.5893 0 7.8506 2.424 9.816 5.6l25.949 42.264 26.125-42.437c2.1947-3.5813 5.2533-5.4266 9.6426-5.4266h2.3093c6.0906 0 10.739 4.792 10.739 10.739m98.09 78.056c0 5.3093-4.3306 9.5253-9.6426 9.5253h-54.848c-6.032 0-10.765-4.7306-10.765-10.736v-76.328c0-5.9466 4.7333-10.739 10.765-10.739h54.157c5.312 0 9.6133 4.3866 9.6133 9.6986 0 5.3093-4.3013 9.4666-9.6133 9.4666h-43.589v19.805h37.325c5.2533 0 9.5546 4.3867 9.5546 9.696 0 5.312-4.3013 9.472-9.5546 9.472h-37.325v20.496h44.28c5.3146 3e-3 9.6426 4.3893 9.6426 9.6426m62.266-88.274h-33.944c-5.9786 0-10.771 4.7893-10.771 10.739v77.13c0 6.0053 4.792 10.739 10.771 10.739 5.9706 0 10.765-4.7333 10.765-10.739v-21.36h17.149l20.987 26.557c2.4827 3.176 5.7146 5.5413 10.563 5.5413 5.1413 0 10.251-3.9253 10.251-9.9306 0-3.2906-1.4427-5.544-3.552-8.1973l-14.896-18.187c11.808-4.9066 19.488-14.317 19.488-29.733v-0.288c0-9.2346-2.8907-16.917-8.3733-22.341-6.4133-6.4106-16.024-9.9306-28.437-9.9306m15.072 33.717c0 8.256-5.976 13.795-16.512 13.795h-21.736v-28.056h21.333c10.477 0 16.917 4.792 16.917 14.027v0.23467zm62.957-23.787v77.938c0 6.0053-4.7306 10.739-10.709 10.739-6.0933 0-10.771-4.7333-10.771-10.739v-77.938c0-5.9466 4.6773-10.739 10.771-10.739 5.9786-3e-3 10.709 4.792 10.709 10.739m107.87 69.509c0 3.408-1.6453 6.1226-3.5787 7.6773-8.776 7.736-19.109 12.299-34.728 12.299-28.779 0-50.168-22.229-50.168-50.229v-0.288c0-27.712 20.984-50.517 50.946-50.517 14.667 0 24.597 3.8693 32.709 9.9333 2.2213 1.616 4.184 4.6746 4.184 8.4853 0 5.8906-4.7893 10.507-10.651 10.507-2.888 0-4.9093-1.1547-6.44-2.1333-5.976-4.504-12.24-6.9866-19.917-6.9866-16.509 0-28.317 13.741-28.317 30.483v0.232c0 16.8 11.576 30.715 28.317 30.715 9.0933 0 15.067-2.7707 21.216-7.6773 1.7307-1.384 3.8987-2.3653 6.3813-2.3653 5.4613-5e-3 10.045 4.4986 10.045 9.8666m107.13 4.5626-34.037-76.962c-2.368-5.3093-6.64-8.6026-12.411-8.6026h-1.2453c-5.9146 0-10.245 3.2907-12.611 8.6026l-34.037 76.962c-0.72267 1.56-1.2987 3.0587-1.2987 4.616 0 5.4853 4.3626 9.9893 9.9306 9.9893 4.4186 0 8.0853-2.4827 9.872-6.696l6.8426-16.051h43.04l6.5866 15.357c1.9333 4.4453 5.312 7.3893 10.333 7.3893 5.744 0 10.16-4.616 10.16-10.333-3e-3 -1.3867-0.40534-2.712-1.1253-4.272m-61-27.133 13.539-32.277 13.6 32.277z"/>
  </g>
 </g>
</svg>
