<svg width="800" height="579.86" enable-background="new 0 0 1977.73 2028" space="preserve" version="1.1" viewBox="0 0 800 579.86" xmlns="http://www.w3.org/2000/svg">
 <g fill="#141414">
  <polygon transform="scale(.4045)" points="120.5 1325.3 120.5 1359.5 38 1359.5 38 1396.3 133 1396.3 133 1430.5 0 1430.5 0 1255.5 131.75 1255.5 131.75 1289.8 38 1289.8 38 1325.3" clip-path="url(#SVGID_2_)"/>
  <path transform="scale(.4045)" d="m355 1433c-13.336 0-26.418-2.277-39.25-6.824-12.836-4.547-24.5-11.539-35-20.969l22.75-27.207c8 6.5 16.207 11.668 24.625 15.5 8.414 3.836 17.625 5.75 27.625 5.75 8 0 14.207-1.461 18.625-4.383 4.414-2.922 6.625-6.969 6.625-12.145v-0.5c0-2.504-0.461-4.715-1.379-6.637-0.922-1.922-2.676-3.715-5.266-5.387-2.589-1.668-6.183-3.336-10.777-5.008-4.598-1.668-10.57-3.421-17.922-5.258-8.859-2.336-16.879-4.801-24.066-7.387-7.188-2.586-13.285-5.844-18.297-9.766-5.016-3.922-8.898-8.809-11.656-14.652-2.758-5.844-4.137-13.105-4.137-21.789v-0.5c0-8.012 1.488-15.23 4.469-21.66 2.98-6.43 7.16-11.98 12.543-16.656 5.383-4.671 11.808-8.262 19.281-10.766 7.469-2.504 15.707-3.758 24.707-3.758 12.832 0 24.625 1.902 35.375 5.707s20.625 9.266 29.625 16.379l-20 28.914c-7.836-5.332-15.5-9.539-23-12.625-7.5-3.082-15-4.625-22.5-4.625s-13.125 1.461-16.875 4.383-5.625 6.556-5.625 10.895v0.5c0 2.84 0.543 5.305 1.629 7.391s3.047 3.965 5.891 5.633c2.839 1.672 6.726 3.258 11.656 4.758 4.929 1.503 11.152 3.258 18.676 5.258 8.855 2.34 16.75 4.969 23.687 7.891 6.934 2.922 12.781 6.426 17.547 10.516 4.762 4.094 8.355 8.895 10.777 14.402 2.422 5.508 3.637 12.103 3.637 19.781v0.5c0 8.684-1.574 16.405-4.719 23.168-3.148 6.762-7.535 12.438-13.164 17.028-5.633 4.593-12.351 8.097-20.156 10.519-7.81 2.418-16.461 3.629-25.961 3.629" clip-path="url(#SVGID_2_)"/>
  <path transform="scale(.4045)" d="m577.49 1255.5h71.5c10.5 0 19.875 1.461 28.125 4.375 8.25 2.918 15.25 7.043 21 12.375 5.75 5.336 10.164 11.711 13.25 19.125 3.082 7.418 4.625 15.625 4.625 24.625v0.5c0 10.168-1.836 19.086-5.5 26.75-3.668 7.668-8.711 14.086-15.125 19.25-6.418 5.168-13.918 9.043-22.5 11.625-8.586 2.586-17.793 3.875-27.625 3.875h-29.25v52.5h-38.5zm69 88.25c9.664 0 17.164-2.539 22.5-7.625 5.332-5.082 8-11.375 8-18.875v-0.5c0-8.664-2.793-15.25-8.375-19.75-5.586-4.5-13.211-6.75-22.875-6.75h-29.75v53.5z" clip-path="url(#SVGID_2_)"/>
  <path transform="scale(.4045)" d="m929.49 1254.3h35.5l75 176.25h-40.25l-16-39.25h-74l-16 39.25h-39.25zm40.5 103.25-23.25-56.75-23.25 56.75z" clip-path="url(#SVGID_2_)"/>
  <path transform="scale(.4045)" d="m1192 1255.5h35.5l82 107.75v-107.75h38v175h-32.75l-84.75-111.25v111.25h-38zm26.25-17.5c2.831-10.5 6.538-18.875 11.125-25.125 4.581-6.25 11.206-9.375 19.875-9.375 3.831 0 7.538 0.5 11.125 1.5 3.581 1 6.956 2.125 10.125 3.375 3.163 1.25 6.125 2.375 8.875 3.375s5.206 1.5 7.375 1.5c3.831 0 6.706-1.039 8.625-3.125 1.913-2.082 3.788-5.125 5.625-9.125l20.25 6.25c-1.5 5.168-3.125 9.875-4.875 14.125s-3.837 7.875-6.25 10.875c-2.419 3-5.25 5.336-8.5 7-3.25 1.668-7.044 2.5-11.375 2.5-3.837 0-7.544-0.5-11.125-1.5-3.587-1-6.962-2.125-10.125-3.375-3.169-1.25-6.087-2.375-8.75-3.375-2.669-1-5.169-1.5-7.5-1.5-3.837 0-6.712 1.043-8.625 3.125-1.919 2.086-3.794 5.125-5.625 9.125z" clip-path="url(#SVGID_2_)"/>
  <path transform="scale(.4045)" d="m1599.5 1433.5c-13.5 0-25.919-2.375-37.25-7.125-11.337-4.75-21.125-11.164-29.375-19.25-8.25-8.082-14.669-17.582-19.25-28.5-4.587-10.914-6.875-22.625-6.875-35.125v-0.5c0-12.5 2.331-24.207 7-35.125 4.663-10.914 11.125-20.5 19.375-28.75s18.081-14.75 29.5-19.5c11.413-4.75 23.875-7.125 37.375-7.125s25.913 2.375 37.25 7.125c11.331 4.75 21.125 11.168 29.375 19.25 8.25 8.086 14.663 17.586 19.25 28.5 4.581 10.918 6.875 22.625 6.875 35.125v0.5c0 12.5-2.337 24.211-7 35.125-4.669 10.918-11.125 20.5-19.375 28.75s-18.087 14.75-29.5 19.5c-11.418 4.75-23.875 7.125-37.375 7.125m0.5-35.5c7.831 0 14.956-1.414 21.375-4.25 6.413-2.832 11.913-6.75 16.5-11.75 4.581-5 8.163-10.789 10.75-17.375 2.581-6.582 3.875-13.625 3.875-21.125v-0.5c0-7.5-1.294-14.582-3.875-21.25-2.587-6.664-6.25-12.5-11-17.5s-10.337-8.957-16.75-11.875c-6.419-2.914-13.544-4.375-21.375-4.375-7.669 0-14.75 1.418-21.25 4.25-6.5 2.836-12.044 6.75-16.625 11.75-4.587 5-8.169 10.793-10.75 17.375-2.587 6.586-3.875 13.625-3.875 21.125v0.5c0 7.5 1.288 14.586 3.875 21.25 2.581 6.668 6.25 12.5 11 17.5s10.375 8.961 16.875 11.875c6.5 2.918 13.582 4.375 21.25 4.375" clip-path="url(#SVGID_2_)"/>
  <polygon transform="scale(.4045)" points="1852 1430.5 1852 1255.5 1890.5 1255.5 1890.5 1395.5 1977.7 1395.5 1977.7 1430.5" clip-path="url(#SVGID_2_)"/>
  <path transform="scale(.4045)" d="m1816.3 550.04c0 312.01-239.57 553.15-586.3 553.15h-335.45c67.697-45.218 124.2-105.59 164.72-176.59h170.73c231.67 0 382.98-155.96 382.98-373.44 0-217.42-151.31-376.64-382.98-376.64h-217.47v162.21c-31.947-39.696-69.19-74.984-111.26-103.96-25.88-17.847-53.622-33.129-82.609-46.159v-188.62h411.34c346.73 0 586.3 237.95 586.3 550.04" clip-path="url(#SVGID_2_)"/>
  <g stroke-width=".4045">
   <path d="m134.39 210.19s-1.8057 5.6711 0 7.9881c1.8012 2.3162 5.1505 7.2134 5.1505 7.2134s0.51614-5.9239-1.5436-9.0199c-2.0634-3.0908-3.8642-2.3162-3.6069-6.1816" clip-path="url(#SVGID_2_)"/>
   <path d="m246.07 177.99c4.0013-0.7734 6.3017-3.348 6.6807-2.8817 0.37861 0.46679 0.3956 4.1724 3.4864 3.1401 3.0904-1.0319 8.4973 2.5746 8.2457 0-0.25888-2.5746 2.8319-2.317 0-2.5746-2.8392-0.25847-3.0912-1.548-4.6392-3.6065-1.548-2.0642-4.3811-0.51614-8.7558 0-4.3815 0.51614-11.266 6.1812-11.266 6.1812 4.7104-1.548 2.2454 0.51614 6.2479-0.25848" clip-path="url(#SVGID_2_)"/>
   <path d="m256.84 182.96c-1.4279 1.0052-2.4048 1.9877-2.4048 1.9877 4.117-2.317 4.6332-1.2895 2.8331-0.25847-1.8069 1.0319-1.8069 2.0597-2.8331 4.5183-1.0323 2.4545 0.25848 8.103 3.3489 8.3614 3.0912 0.25767 2.575-3.0904 1.4158-6.44-1.1581-3.348-0.13146-4.3799 1.9327-6.1812 2.0585-1.8057 4.6331-4.1227 1.0262-4.1227-1.8437 0-3.8318 1.0816-5.3188 2.135" clip-path="url(#SVGID_2_)"/>
   <path d="m269.37 182.63c3.3493 0-0.51573 4.6344 3.0908 6.5772 3.6069 1.9384 3.6069 2.9536 3.8654 0 0.25726-2.9593-2.8335-6.5772-0.25847-4.7759 2.5742 1.8057 5.9239 2.317 6.44 0 0.51574-2.3174-3.0912-1.8012-6.9562-3.6069-3.8642-1.8012-9.8645 0-9.8645 0 3.5244 0 0.33493 1.8057 3.683 1.8057" clip-path="url(#SVGID_2_)"/>
   <path d="m272.72 197.58c0.2249-0.0328 0.37335-0.16989 0.58126-0.2249-1.4821 0.29124-2.0205 0.42796-0.58126 0.2249" clip-path="url(#SVGID_2_)"/>
   <path d="m273.3 197.36c1.455-0.27425 3.816-0.69129 6.116-1.076 4.6388-0.7734 4.6388-3.096 7.2138-3.865 2.5742-0.77381-4.6392-1.0311-6.9562 0-2.1734 0.96676-3.2926 4.1287-6.3737 4.941" clip-path="url(#SVGID_2_)"/>
   <path d="m294.87 188.04c-4.1174 0.25767-10.464 1.1965-9.272 1.1694 4.6388-0.12054 5.1545 2.4375 9.272 1.855 4.1227-0.57561 4.1227-3.2817 0-3.0244" clip-path="url(#SVGID_2_)"/>
   <path d="m244.46 91.316c-98.779 0-179.14 80.37-179.14 179.14 0 98.795 80.37 179.17 179.14 179.17 98.787 0 179.16-80.37 179.16-179.17 0-98.775-80.37-179.14-179.16-179.14m108.62 43.654c0.25848 3.348 5.9239 8.4973 5.6764 10.304-0.25281 1.8004-3.6178-0.51573-7.6968-2.5742-4.0846-2.0646-12.664-6.9562-19.971-13.911-7.3081-6.9562-15.103-6.44-12.271-7.7296 2.8331-1.2908 7.9881 2.3162 6.6973 0-1.2839-2.317-4.1227-3.0904-8.4973-5.4021-4.3816-2.3117-7.9881-3.8698-12.879-6.4445-4.8977-2.5803-11.852-2.8331-18.693-2.5152-6.8458 0.32401-10.677-3.1559-7.5811-3.744 3.0908-0.58652 6.1816-1.7288 9.3047-2.8376 0.31834-0.11568 0.99426-0.0437 1.4663-0.0821 0.52181-0.04935 1.3559 0.0708 2.0201 0.0979 22.623 6.1488 43.423 16.64 61.492 30.594 0.0497 0.20912-0.11569 0.23622-0.038 0.48337 0.33493 1.1257 0.87251 2.531 0.97161 3.761m5.1493 42.392c-1.5428 1.9485 0 4.7476-3.3484 3.4581-3.3493-1.2851-2.8331-1.8008-5.4078-3.0904-2.5746-1.29-5.6654 2.6349-5.4078 0 0.25847-2.6244 1.0274-6.44 2.5758-10.563 1.5424-4.1174 1.7996 0.51573 2.3158 3.8597 0.51615 3.3375 2.5746 1.5537 5.6711 2.3214 3.0908 0.77462 5.1493 2.0638 3.6013 4.0138m-121.84-79.743s1.8008-1.5424 6.9558 0c5.1493 1.5484 2.8323 0.17555 6.1816-0.68563 3.348-0.85673 12.104-0.68158 17.518 0 5.4065 0.68563 9.2384 1.3175 12.477 1.3882 3.2336 0.072-3.4637 1.1973-9.3868 3.2121-5.9239 2.0092-3.3489 2.7995-7.2134 3.6947-3.865 0.89475-11.336 0.48783-15.712 1.076-4.3803 0.58652-10.936-1.0549-7.3999-2.8052 3.5357-1.7576 4.5838-1.0493 6.2475-2.1746 1.6686-1.1314-18.166-1.1314-9.6676-3.7056m-12.105 9.0794c-3.6069 1.0986-8.7449-1.7236-8.2118-1.8664 2.8659-0.7734 11.819-1.548 12.95-1.2896 1.1366 0.25767-1.131 2.0646-4.7379 3.1559m4.3755 3.5422c-1.2851 2.5803-2.8335 1.2895-6.1816 1.548-3.3493 0.25767-8.558-2.207-5.4616-1.548 4.8354 1.0319 4.9458-2.0589 7.7777-2.3174 2.8392-0.25807 5.1554-0.25807 3.8654 2.3174m-12.626-7.6705c2.821-0.7184 0.52059-1.8607 4.7707-2.3768 4.2485-0.51048 8.1126 1.548 4.7646 2.3768-3.3493 0.83003-9.8431 0.0833-9.5353 0m-7.7247 4.1283c-6.9493-0.19214-5.6654 1.7406-10.556 2.5152-4.8973 0.76774-14.839 1.4052-12.368 0 3.6065-2.0642 11.078-3.6069 15.459-5.7148 4.3747-2.1135 6.6973-0.21479 9.272 1.7292 2.5746 1.9376 5.1493 1.6625-1.8065 1.4704m26.532-5.1646c3.0964 0.46679 4.6388 1.4 3.6069 1.9655-1.0266 0.55983-7.6916-0.63183-9.1239-1.9655 0 0 2.4262-0.46761 5.517 0m-94.362 26.416c0.37901-0.11043 0.86805-0.2969 1.2086-0.38468 0.54325-0.14278 1.0537-0.26413 1.455-0.3236 3.6065-0.51614 6.1812-0.25888 8.4973-1.8012 2.323-1.548 10.047-3.8642 13.137-4.6388 3.0964-0.77381 2.838 1.0319 6.4445 0 3.6013-1.0323 11.847 0.63183 14.68-0.1978 1.866-0.5485 5.7585-0.87251 9.524-1.0096-0.74104-0.62657-1.4594-1.0873-2.8266-0.5926-3.6069 1.2839-6.6973 0.25767-9.0147 0-2.3158-0.25847-0.51614-2.5803 1.5428-3.9803 2.0642-1.4004 2.8388-2.9755-1.5428-1.4331-4.3799 1.548-1.8057 1.8065-5.9227 2.5799-4.1227 0.76936-6.1925 0.20953-5.155 0 3.8642-0.7734 6.1816-3.8638 9.272-4.8961 3.0908-1.0319 5.6711-0.51614 9.0191-0.51614 3.3493 0 4.1174 0.51614 7.9828 0 3.8642-0.51574 4.3803 1.0323 5.9284 0.51614 1.5424-0.51614 4.6331-2.0585 7.4663-2.0585 2.8323 0-1.0262 1.2839-0.25848 3.7436 0.77462 2.4533 5.1012-1.0756 4.3816 1.4056-0.7904 2.7231 2.0585 1.548-2.3174 3.1612-0.68563 0.25321-1.1354 0.56023-1.6516 0.84581 3.5078 0.3956 7.3231 0.69129 9.1182 0.37335 2.8376-0.51614 1.8057-3.0908 0-2.8323-1.8012 0.25726 1.548-2.0642 4.1227-1.548 2.5746 0.51574 6.6973-0.25888 5.4122 1.548-1.2896 1.8-1.2896 2.8323 1.8012 1.8 3.0908-1.0319-1.5424-4.3803-3.3493-4.6388-1.8-0.2516 1.0323-1.8 1.8069-2.5746 0.76895-0.76815 0.26858-3.348 2.5803-3.6069 2.3113-0.25726 7.2078-0.25726 9.0086 0 1.8057 0.25888-0.51574 1.5484-3.0904 2.323-2.5759 0.76774-6.44 1.2839-3.6069 2.0585 2.8323 0.77381 5.9227 3.0908 7.3392 3.348 1.417 0.25848 3.7384 2.0589 5.2812 3.6069 1.548 1.5424 7.4719-0.51615 5.4134-3.0908-2.0642-2.5746-6.1217-0.51614-8.3388-2.3158-2.2239-1.8069-5.8139-3.3497 0.23016-4.8977 6.0444-1.5424 7.0767-0.7734 7.334 1.0319 0.25848 1.8012 0.25848-0.51573 4.892-1.0319 4.6384-0.51614 9.0187-0.51614 11.336 0 2.3162 0.51615 2.0585 1.0319 4.3803 1.8065 2.317 0.76815 14.421 3.0912 19.319 4.3747 4.8908 1.2908 6.955 2.0642 5.407 3.6069 1.0319 1.5484 3.3493 1.8069 7.2134 3.0908 3.8654 1.2908 8.5042 2.8331 6.1812 3.8654-2.3158 1.0319-0.51574 3.0904-4.117 2.0585-3.6065-1.0266-6.955-5.4078-7.7296-4.1174-0.7734 1.2843 7.4719 4.6335 9.5308 6.4392 2.0585 1.8008 3.0904 2.5746 1.0319 3.0904-2.0642 0.51614-12.627-3.8642-10.304-2.5746 2.3162 1.2851 13.861 4.6336 12.209 5.9239-1.6471 1.2843-12.468-3.3493-16.074-4.3811-3.6069-1.0323-5.407-4.6388-9.5296-4.3803-4.1231 0.25726-9.0204-1.2851-11.079-1.2851s0.77461-3.0908 4.1227-2.3214c3.3493 0.7734 5.4078-0.47812 3.8654-1.9104-1.548-1.4392 4.1174-1.6908-2.5803-4.0134-6.6973-2.3166-12.363-2.8323-14.937-2.575-2.5746 0.25848-3.8654 1.0323-2.3174 2.8335 1.5428 1.8057 2.3174 2.607-0.7734 3.755-3.0904 1.1411-5.1546-0.11569-7.7296 0-2.5742 0.10921-2.0585 0.88383-4.3759 3.2-2.3214 2.317-6.1868 2.0585-10.047 4.8973-3.8642 2.8319-8.2453 2.5083-9.7925 6.4061-1.5436 3.8982 0 4.6659 3.348 4.4086 3.3493-0.25888 1.2908 3.8642 4.6388 4.1227 3.3493 0.25726 5.6654 0.25726 12.879 3.0908 7.2138 2.8319 10.563 3.0904 14.427 2.5746 3.865-0.51048 3.865 1.2896 3.865 3.8642 0 2.5803 2.5746 3.0904 4.1174 3.3493 1.548 0.25726 1.8057 6.1812 4.1227 5.4122 2.3218-0.77341 5.155-2.0642 1.8057-6.9546-3.348-4.8977-1.2895-4.8977 2.317-5.6711 3.6069-0.76895 4.1231-5.6654-0.25848-7.4667-4.3803-1.8057-5.4065-4.3803-3.348-5.1549 2.0585-0.77341-1.2908-2.3158-1.8012-3.8642-0.51614-1.5424-0.51614-3.8597 5.9239-2.317 6.4388 1.548 8.7562 1.1589 13.137 3.5414 4.3811 2.3825 4.8916 3.1559 8.4981 5.4733 3.6069 2.3214 5.6869 2.5803 7.7409 0.51574 2.0476-2.0585-0.0113-5.9239 8.2344 1.5484 8.2401 7.4711 12.104 12.104 18.544 15.194 6.44 3.0908 10.82 6.1816 7.4723 7.4723-3.3497 1.2896-3.092 2.0585-7.2147 3.348-4.1231 1.2908-10.562-0.25726-15.201 0-4.6331 0.25848-3.3493 1.548-5.6654 2.5746-2.317 1.0319-4.6331 2.8331-5.4078 5.4134 5.9239-3.8654 13.653-7.4719 16.228-4.3816 2.5746 3.0908-1.8069 1.0323-0.51614 4.3816 1.2895 3.348-2.251 6.4388 1.7078 6.6973 3.9576 0.25322 8.8541 2.3162 9.6287 0 0.76855-2.3226 1.8008-2.5799 3.6065-1.2904 1.8012 1.2904 1.5428 1.1423 0 2.3776-1.5484 1.2289-4.1227 2.2612-6.6973 3.0301-2.5803 0.77462-4.5725 1.8057-6.5379 3.3493-1.9663 1.548-5.057-2.3174-2.9986-3.6069 2.0642-1.2847 0.25847-4.3755-4.6332-0.76895-4.8965 3.6069-5.155 2.0092-7.4711 4.7379-2.317 2.7288 0 2.986 1.2895 5.5663 1.2851 2.5746-4.3803 1.8012-8.503 4.117-4.117 2.323-5.9239 6.1816-6.9558 9.7885-1.0266 3.6065-2.0589 3.0904-3.3484-1.5428-1.2847-4.6388-3.3493 2.8335 3.6069 10.047 0.25767 6.6973-1.5428 3.6065-4.6331 5.665-3.0908 2.0589-5.9296 3.0908-8.2457 6.1816-2.3174 3.0908-7.9824 5.1549-7.7296 8.503 0.25766 3.3493 2.5803 10.304 4.3803 13.911 1.8069 3.6013 2.8331 8.7558 0 11.589-2.8323 2.8323-2.0585-1.8008-6.4388-6.44-4.3816-4.6384-1.2908-8.2453-2.8331-10.82-1.5484-2.5746-3.6069-4.3743-5.9231-2.8323-2.3226 1.548-0.77461 3.3484-4.8973 0.51614-4.1231-2.8331-5.6654-2.317-9.2724-1.8069-3.6065 0.51614-8.2453-0.2516-6.1812 1.5484 2.0585 1.8012 1.3009 3.0908-4.2432 3.8654-5.5449 0.7734-5.8034-3.3497-14.048-0.51614-8.2413 2.8319-12.364 6.1816-12.88 9.7881-0.51614 3.6069 2.0642 4.0563 1.0323 7.5642-1.0323 3.5135-4.1227 9.6951-0.51614 15.36 3.6069 5.6666 8.2457 14.949 13.654 15.202 5.4078 0.25281 10.321-2.0642 12.758-4.8965 2.4375-2.8331 1.1524-9.5308 5.786-10.047 4.6384-0.51614 7.2134 0.25726 9.2776 0 2.0585-0.25888-0.25726 3.6069-1.0323 7.9868-0.77341 4.3759-6.4388 14.939-3.8642 15.455s6.1812 0 11.337 0c5.1493 0 9.7881 1.2839 8.7558 4.8965-1.0323 3.6009-2.8331 9.7824-2.317 12.616 0.51573 2.8323 0 6.1812 4.8916 8.7615 4.8965 2.5803 6.4388-2.0642 9.5296-1.8008 3.0908 0.25281 6.6973 0.25281 8.7619 3.865 2.0581 3.6013 1.8008-2.3174 4.3755-5.1493 2.5803-2.844 6.4445-6.4453 9.7938-7.4776 3.3428-1.0319 4.3747-3.8642 6.1816-2.8319 1.8 1.0319 0.76775 3.348-0.25888 4.8965-1.0319 1.548-5.4122 8.2453-1.8053 7.4663 3.6065-0.76895 1.0319-7.2134 4.6388-8.2457 3.6065-1.021 0.7734-4.117 2.5746-3.3493 1.8053 0.78028 1.0319 2.0642 3.0904 2.8444 2.0646 0.76815 0.77381 3.3484 3.8642 3.0851 3.0908-0.25281 2.575 0 5.4082 1.2839 2.8376 1.2964 2.0642-2.3162 5.4122-2.569 3.3493-0.26293 5.3912 0.25281 7.8453 2.8331 2.4602 2.569 4.2602 12.362 7.8667 14.427 3.6069 2.0532 4.1231-2.3174 6.1816-1.296 2.0642 1.0323 3.8654 3.8654 5.1549 5.6764 1.2851 1.8012-2.3218 4.3702 0 6.4344 2.317 2.0646 0.57642 4.6336 0.28558 8.4977-0.28558 3.8654 1.5153 1.2964 3.5742 3.8654 2.0642 2.5803 2.0642 4.1283 4.8961 4.8961 2.8331 0.76896-0.25726 3.6013 1.2908 5.9296 1.5424 2.3162-3.3493 8.7505-11.079 15.448s-16.485 16.491-23.183 21.64c-6.6973 5.1493-6.8894 8.2457-12.203 10.047-5.3147 1.7996-8.9212 2.5799-17.42 7.7292-8.5034 5.1493-15.97 8.4973-23.44 10.814-3.0358 0.93359-7.2138 2.3166-11.441 3.6227-0.92226 0.2965-1.8449 0.55983-2.7672 0.8353-4.2824 0.77906-8.575 1.514-12.955 1.9865 0.44455-0.1978 0.94936-0.38467 1.5699-0.648 4.2541-1.7559 12.308-5.3471 18.38-12.494 10.046-11.847 16.743-15.448 10.304-19.829-6.44-4.3803-6.44-4.6449-7.4719-14.427-1.0323-9.7938-1.542-9.7938-5.407-12.626-3.865-2.8331-1.548-6.9505 0.51614-8.4986 2.0585-1.548-0.51614-4.3815 0.76814-8.2457 1.2904-3.8654 3.3493-7.4667 6.1868-8.7502 2.8331-1.2964 2.3174-3.0964 4.3759-5.93 2.0642-2.8319 1.0319-3.348 2.3214-7.9812 1.2855-4.6445-0.51614-9.7938-2.8376-13.143-2.3174-3.3484-3.8597-1.548-4.892 0.78028-1.0319 2.3162 0.51614 5.4013-2.8319 4.6331-3.3493-0.78028-1.548-3.6126-4.3815-3.6126-2.8319 0-4.8961-2.0528-6.9546-3.865-2.0589-1.8-3.8654-5.9174-3.8654-3.6013 0 2.317-0.51614 2.317-2.5746 1.0323-2.0589-1.2843 1.0319-2.3162-0.77341-5.4126-1.8012-3.0851-4.892-8.7615-7.7243-7.9824-2.8388 0.76895-5.9292-1.0319-9.2776-1.8-3.3493-0.78028-7.209-3.6122-10.816-7.2134-3.6069-3.6122-9.5353-1.2964-12.368 0.252-2.8323 1.548-13.911-5.6654-19.577-7.4667-5.665-1.8-8.4973-4.8965-11.847-5.9284-3.348-1.0266-4.6388-3.6065-3.6065-6.6977 1.0319-3.0904-7.7296-14.795-11.078-17.451-3.3497-2.6406-4.6335-6.5003-7.7296-9.3383-3.0908-2.8331-5.1493-4.6331-6.6977-6.4396-1.5424-1.8004-2.317-7.4659-4.8916-9.2724-2.5746-1.8-6.955-1.8-4.6388 2.3174 2.3226 4.1227 5.6707 7.4707 7.7292 10.82 2.0589 3.3484 3.8658 6.955 5.1493 9.7881 1.2908 2.8323 7.4723 7.1204 6.9562 9.7444-0.51047 2.6244-4.3759-1.7571-7.2078-5.1052-2.8388-3.3497-4.8977-7.9885-8.7615-9.2724-3.8654-1.2908-7.4723-7.7296-5.6654-6.6973 1.8 1.0262 5.4066 3.348 3.6065-1.0323-1.8065-4.3816-5.1549-4.3816-7.9881-12.621-2.8323-8.2457-3.0908-7.4711-6.955-8.2457-3.8654-0.7734-11.073-12.104-11.848-19.834-0.7734-7.7235 0.77462-16.228 3.0908-20.092 2.3174-3.865 2.3174-9.7881 2.3174-11.848 0-2.063 3.0904 0 4.8973-1.8053 1.8-1.8012-1.5484-7.4667-3.3493-6.44-1.8057 1.0319 2.5746 2.8331 0.51614 4.3811-2.0642 1.5428-3.8654-0.77462-5.4126-2.5746-1.5436-1.8065-1.0274-2.5799-0.77461-4.6388 0.25847-2.0585-1.2851-3.0904-1.2851-5.4078 0-2.3218-0.51574-4.1227-1.2896-5.155-0.7734-1.0266-0.51573-0.93884-2.3174-0.76774-2.569 0.24149 1.0323-2.4982 0-6.4457-1.1083-4.2375-4.3799-2.8323-8.503-2.3162-1.0262 0.13146-2.5249 0.69169-4.2485 1.5144-0.33534 0.15978-0.74105 0.41826-1.1039 0.60514 8.3173-9.316 17.584-17.72 27.679-25.109m130.97-2.0812c-1.6144-0.0764-6.0173 0.65893-8.3784 1.4874-2.7118 0.95017-2.5904 1.7135-5.121 1.8506-2.5253 0.13713-4.6772-0.30782-4.6772-0.30782-2.0642-2.2781-0.19214-2.0532 0.47691-5.5384 0.65893-3.4807 4.4746 1.3717 8.5256 1.2511 3.037-0.087 7.44 0.91701 9.1741 1.2572m26.082 159.73c-1.1589 0.58248-2.3113 0.90042-1.3838 0.32401 0.38468-0.24068 0.88343-0.27466 1.3838-0.32401 1.417-0.70828 2.8323-1.8336 0.4231-2.2555-4.3815-0.76896-3.7226-3.8428-8.1749-3.7335-4.4523 0.12702-5.2201-4.2489-8.5693-3.9916-3.3484 0.25888-7.1034 2.575-9.3488 2.575-2.245 0-3.8978 0.41785-1.2131-1.3336 0 0 4.9899-4.3318 11.896-3.8156 6.9056 0.51007 7.0213 0.41704 9.1506 1.883 2.1362 1.4606 2.1362-2.2397 6.2592 1.9327 4.117 4.1668 5.1493 5.4563 8.2397 5.972 3.0908 0.51169 4.1231 2.3174 0 3.0912-3.3549 0.62536-6.4894-0.53191-8.6628-0.324m2.7389 10.271c-2.3158 0.35192-5.6654-1.1904-5.9227-3.5078-0.2249-2.0642 3.8585-1.2896 5.9227 0 2.0589 1.2855 2.3174 3.1575 0 3.5078m-4.8961-32.104c1.2895 0.51614 2.8319 3.0908 2.5803 5.4741-0.25888 2.3983-2.5803 2.5144-2.5803 2.5144-0.51614-1.5484-0.51614-2.8335-1.8012-5.1549-1.2896-2.3174 0.51574-3.3493 1.8012-2.8335m19.066 27.18c0-2.965-4.6008-4.5567-1.2908-4.7039 0 0-0.7734-0.4668 5.9239 0 6.6973 0.44939 6.6973 2.2551 9.272 4.0563 2.5803 1.8057 2.3218 4.3816-2.317 3.3493-4.6388-1.0274-7.2134-0.76895-7.4711 1.5428-0.25847 2.3271-1.8502-2.0589-5.4292-1.8012-3.5851 0.25847-6.6759 1.0319-6.1601-0.76896 0.51614-1.8061 7.4723 1.3013 7.4723-1.6742" clip-path="url(#SVGID_2_)"/>
  </g>
 </g>
</svg>
