<svg width="103.36" height="55.58" version="1.0" viewBox="0 0 77.517 41.685" xmlns="http://www.w3.org/2000/svg" xmlns:xlink="http://www.w3.org/1999/xlink">
 <defs>
  <clipPath id="id4-4">
   <path d="m44.637 145.18c24.648 0 44.629-19.981 44.629-44.629 0-24.653-19.98-44.633-44.629-44.633-24.652 0-44.637 19.98-44.637 44.633 0 24.648 19.984 44.629 44.637 44.629z" clip-rule="evenodd"/>
  </clipPath>
  <clipPath id="id5-9">
   <path d="m-5.8438 150.89v-100.81h100.81v100.81z"/>
  </clipPath>
  <clipPath id="id7-1-1">
   <path d="m0 168.93v-168.93h791.76v168.93z"/>
  </clipPath>
  <clipPath id="id4-4-4">
   <path d="m44.637 145.18c24.648 0 44.629-19.981 44.629-44.629 0-24.653-19.98-44.633-44.629-44.633-24.652 0-44.637 19.98-44.637 44.633 0 24.648 19.984 44.629 44.637 44.629z" clip-rule="evenodd"/>
  </clipPath>
  <clipPath id="id5-9-9">
   <path d="m-5.8438 150.89v-100.81h100.81v100.81z"/>
  </clipPath>
 </defs>
 <g transform="matrix(.192 0 0 -.192 -126.61 -129.87)" clip-path="url(#id4-4)">
  <g clip-path="url(#id5-9)">
   <g transform="matrix(101.2,0,0,101.2,-6.1,49.9)">
    <use width="744.09448" height="1052.3622" xlink:href="#id6"/>
   </g>
  </g>
 </g>
 <g transform="matrix(.192 0 0 -.192 -202.69 -251.79)" clip-path="url(#id4-4-4)">
  <g clip-path="url(#id5-9-9)">
   <g transform="matrix(101.2,0,0,101.2,-6.1,49.9)">
    <use width="744.09448" height="1052.3622" xlink:href="#id6"/>
   </g>
  </g>
 </g>
 <g transform="matrix(.055136 0 0 -.056966 18.203 42.618)" clip-path="url(#id7-1-1)" fill="#2c2ca0">
  <path d="m771.46 140.62-21.797-62.367-20.355 62.367h-20.789l31.609-84.48-0.25-0.582s-6.367-17.234-12.129-21.406c-4.437-2.2695-14.82-2.0976-18.75-1.8281v-15.926c6.863 0.0078 23.004-0.4297 28.199 2.8594 6.52 4.1211 7.981 5.9024 12.438 14.941 4.855 9.8438 42.125 106.42 42.125 106.42zm-101.82-14.066v14.062h-19.488v-85.078h19.488v32.391c0 5.6875 0.535 10.688 2.101 14.812 5.868 15.477 22.231 19.879 30.7 21.133l-6.684 16.258c-6.801-1.172-18.773-4.453-26.117-13.578zm-335.62-55.985c-14.981 0-25.445 12.234-25.445 27.539 0 14.98 10.304 27.226 24.48 27.226 9.824 0 16.105-4.348 22.066-10.633l12.086 13.047c-7.898 8.695-17.882 14.652-33.992 14.652-25.449 0-44.129-20.293-44.129-44.613s18.68-44.133 43.969-44.133c16.586 0 26.414 6.6094 34.793 15.949l-11.762 11.59c-6.121-6.2773-12.883-10.625-22.066-10.625zm282.23 35.508c-0.32 3.117-1.023 4.004-2.101 6.742-1.067 2.735-2.528 5.129-4.34 7.164-1.836 2.043-4.008 3.629-6.531 4.762-2.516 1.121-5.395 1.688-8.625 1.688-6.012 0-10.977-2.067-14.899-6.203-3.918-4.141-6.312-7.493-7.176-14.153zm16.754 8.028c1.715-5.532 2.578-11.364 2.578-17.481 0-0.8594-0.023-1.7461-0.07-2.6602-0.059-0.914-0.145-1.8515-0.25-2.8203h-62.516c1.079-6.9765 3.84-12.328 8.293-16.023 4.465-3.7149 9.86-5.5703 16.203-5.5703 4.829 0 9.02 0.8633 12.567 2.5859 3.543 1.7149 7.031 4.2344 10.461 7.5703l11.453-10.156c-4.09-4.8281-8.949-8.6992-14.594-11.598-5.633-2.8984-12.371-4.3554-20.215-4.3554-6.125 0-11.843 1.0898-17.16 3.2265-5.312 2.1485-9.933 5.1602-13.859 9.0235-3.918 3.8671-7.008 8.5078-9.258 13.934-2.258 5.4258-3.387 11.422-3.387 17.969v0.332c0 6.1129 1.02 11.86 3.063 17.235 2.035 5.371 4.91 10.07 8.617 14.093 3.711 4.035 8.082 7.196 13.133 9.512 5.047 2.309 10.633 3.461 16.762 3.461 6.757 0 12.699-1.238 17.8-3.703 5.098-2.477 9.344-5.805 12.735-9.988 3.386-4.192 5.937-9.055 7.644-14.586zm-125.13-36.02-22.879 62.531h-20.953l34.973-85.726h17.559l34.8 85.726h-20.468zm-64.121 19.828c0 3.7618-0.648 7.3048-1.937 10.629-1.289 3.332-3.09 6.231-5.399 8.703-2.312 2.473-5.043 4.434-8.214 5.887-3.168 1.449-6.692 2.172-10.559 2.172s-7.387-0.723-10.543-2.172c-3.176-1.453-5.891-3.383-8.148-5.805-2.25-2.418-3.977-5.258-5.153-8.535-1.187-3.277-1.773-6.801-1.773-10.562v-0.3164c0-3.6563 0.648-7.1446 1.933-10.473 1.285-3.3359 3.086-6.2539 5.399-8.7852 2.308-2.5195 5.047-4.5039 8.219-5.9492 3.167-1.4531 6.628-2.1875 10.39-2.1875 3.973 0 7.547 0.7344 10.715 2.1875 3.172 1.4453 5.887 3.4024 8.141 5.875 2.25 2.4688 3.964 5.336 5.152 8.6211 1.18 3.2735 1.777 6.7383 1.777 10.383zm16.11 17.492c2.254-5.324 3.382-11.05 3.382-17.175v-0.3164c0-6.0157-1.16-11.707-3.464-17.074-2.317-5.3711-5.477-10.074-9.508-14.105-4.024-4.0352-8.84-7.2227-14.41-9.586-5.594-2.3632-11.664-3.5507-18.219-3.5507-6.441 0-12.434 1.1562-17.957 3.4687-5.539 2.3086-10.32 5.4531-14.348 9.4258-4.031 3.9765-7.168 8.6484-9.426 14.012-2.257 5.375-3.382 11.07-3.382 17.082v0.3282c0 6.1208 1.152 11.871 3.464 17.242 2.309 5.368 5.481 10.071 9.508 14.094 4.028 4.035 8.813 7.231 14.336 9.586 5.535 2.367 11.578 3.547 18.129 3.547 6.555 0 12.598-1.152 18.125-3.461 5.531-2.316 10.313-5.477 14.344-9.512 4.023-4.023 7.168-8.695 9.426-14.004zm-188.16-17.73c-2.52 1.8711-5.34 3.4611-8.461 4.7541-3.118 1.285-6.223 2.414-9.344 3.383-2.469 0.859-4.852 1.664-7.168 2.418-2.309 0.746-4.352 1.582-6.121 2.492-1.774 0.918-3.199 1.933-4.266 3.066-1.082 1.121-1.613 2.442-1.613 3.949v0.313c0 2.473 1.043 4.519 3.141 6.125 2.089 1.609 5.027 2.418 8.781 2.418 3.551 0 7.41-0.727 11.597-2.176 4.192-1.445 8.329-3.41 12.411-5.879l7.734 13.86c-4.512 3.007-9.504 5.367-14.988 7.085-5.473 1.719-10.903 2.583-16.274 2.583-4.187 0-8.133-0.594-11.84-1.778-3.707-1.183-6.929-2.902-9.668-5.156-2.738-2.258-4.89-4.965-6.441-8.133-1.562-3.18-2.34-6.801-2.34-10.875v-0.324c0-4.086 0.805-7.52 2.418-10.32 1.61-2.786 3.68-5.125 6.199-7.0004 2.528-1.8868 5.375-3.418 8.543-4.5977 3.164-1.1797 6.309-2.2031 9.426-3.0625 2.469-0.7539 4.86-1.4726 7.172-2.1719 2.309-0.6992 4.344-1.5039 6.121-2.4179 1.774-0.9102 3.168-1.961 4.192-3.1407 1.015-1.1836 1.527-2.5859 1.527-4.1914v-0.3164c0-2.8008-1.156-5.0234-3.465-6.6875-2.305-1.6718-5.555-2.4961-9.746-2.4961-4.406 0-8.996 0.8828-13.773 2.6602-4.786 1.7695-9.485 4.3789-14.106 7.8086l-8.699-13.211c5.371-4.1875 11.195-7.3632 17.488-9.5078 6.277-2.1523 12.481-3.2187 18.606-3.2187 4.402 0 8.539 0.5547 12.41 1.6914 3.863 1.1289 7.218 2.7851 10.066 4.9961 2.848 2.1992 5.078 4.957 6.692 8.2969 1.609 3.3242 2.414 7.2539 2.414 11.762v0.3164c0 3.8711-0.805 7.1523-2.414 9.8281-1.614 2.6914-3.688 4.9727-6.211 6.8555zm-91.821-42.137h19.5v85.078h-19.5zm-11.289 57.188c0-31.887-24.484-56.52-59.914-56.52h-34.281c6.918 4.6172 12.695 10.781 16.836 18.035h17.445c23.676 0 39.137 15.941 39.137 38.164s-15.461 38.493-39.137 38.493h-22.222v-16.579c-3.2656 4.055-7.0703 7.664-11.371 10.625-2.6445 1.825-5.4805 3.383-8.4414 4.715v19.274h42.035c35.43 0 59.914-24.317 59.914-56.207" fill="#2c2ca0"/>
 </g>
 <ellipse cx="20.326" cy="36.706" rx="2.7238" ry="2.7289" fill="#2c2ca0" stroke-width=".079883"/>
 <g transform="matrix(.0060948 0 0 -.0064543 -1.7124 32.7)" fill="#2c2ca0">
  <path d="m9224 3869c-120-15-216-89-252-194-16-46-17-160-20-1565-2-1077 1-1534 8-1582 14-82 52-145 117-192 55-41 115-56 215-56 193 0 310 91 338 263 13 79 12 2993-1 3077-29 184-181 278-405 249z"/>
  <path d="m1220 3645c-207-45-386-169-465-324-55-109-59-133-64-376l-6-230-105-6c-169-10-227-30-269-94-20-29-26-53-29-120-5-102 7-143 58-189 50-45 92-56 221-56 68 0 109-4 117-12 9-9 12-214 12-863 0-981-6-918 88-1008 69-65 128-87 238-87 142 0 238 41 295 125 55 81 53 46 59 975l5 865 160 6c162 6 204 14 258 51 56 40 85 142 67 240-8 43-18 61-53 95-57 54-92 63-267 70-80 3-151 10-157 16-9 7-13 50-13 152 0 131 2 145 23 176 36 54 58 60 179 53 128-8 178 6 229 63 45 52 62 98 62 173 0 90-16 139-64 194-84 95-178 126-384 125-71 0-159-7-195-14z"/>
  <path d="m2845 2763c-454-23-813-195-937-451-29-60-32-76-32-152 0-96 12-127 71-186 55-55 111-76 207-77 107 0 148 19 271 134 173 162 268 207 455 216 199 10 356-50 409-156 63-125 9-257-121-296-29-8-172-29-318-46-334-38-478-63-608-105-356-116-512-321-515-674-1-218 41-321 192-470 78-78 112-103 181-137 120-59 184-73 345-80 348-14 630 83 857 295l48 44 10-26c5-15 10-33 10-40 0-75 103-207 192-247 46-20 69-24 173-24s127 3 170 23c95 44 153 121 161 216 4 38-3 82-27 171l-33 120-6 705c-5 683-6 707-27 767-29 87-72 150-156 230-117 111-273 179-495 217-116 20-362 35-477 29zm475-1473c0-60-5-133-11-162-18-82-66-167-129-229-218-213-637-211-744 3-35 69-35 136-1 205 56 112 169 160 490 208 183 27 307 55 352 78 15 9 31 13 35 10 5-2 8-53 8-113z"/>
  <path d="m5534 2760c-151-13-303-61-427-137-34-20-103-77-154-126-50-48-93-84-96-80s-10 41-16 81c-14 93-37 138-100 194-65 58-112 72-238 66-144-6-214-50-271-168l-27-55v-2050l23-47c13-26 44-66 69-88 65-57 129-74 264-68 93 4 114 8 165 34 38 19 71 44 91 72 63 84 63 83 63 751 0 657 2 684 55 796 55 115 180 217 309 251 71 19 123 17 198-6 117-36 170-91 219-230 23-65 23-66 29-770 5-699 5-705 27-745 33-62 103-121 164-139 65-20 206-21 277-3 107 28 174 103 199 221 9 45 13 217 13 667 0 575 1 610 20 671 45 146 145 259 279 314 53 22 83 27 151 28 76 1 92-3 150-30 76-37 99-57 136-119 60-103 58-77 64-845 5-588 8-711 20-742 23-57 84-123 137-149 43-21 62-24 178-24 115 0 136 3 182 24 58 26 113 80 140 138 17 35 18 97 21 850 2 778 2 816-17 910-45 218-188 403-376 483-181 77-498 96-700 41-160-44-324-151-437-284l-56-66-38 65c-53 91-172 202-265 248-115 56-263 79-425 66z"/>
  <path d="m11730 2759c-520-31-919-291-920-599 0-92 20-140 80-193 60-55 101-70 195-70 113 0 149 16 265 127 98 93 154 134 228 169 92 44 188 61 311 54 111-6 174-23 251-69 117-70 147-235 59-326-52-53-114-69-411-102-311-35-457-59-578-94-288-83-453-232-526-472-15-46-19-93-19-214 0-145 2-160 28-235 54-153 182-292 342-370 122-61 187-76 343-82 332-14 589 69 823 263 55 46 91 70 93 62 2-7 11-43 21-79 40-161 170-249 365-249 143 0 244 52 294 152 34 68 34 143 1 263-38 135-45 271-45 915 0 636-1 643-57 759-32 66-136 174-221 229-186 120-547 183-922 161zm518-1511c-3-143-3-145-40-220-61-123-177-217-326-264-26-8-93-18-148-21-86-5-112-2-170 15-100 31-153 68-189 133-73 133-14 276 141 345 76 33 144 49 371 84 183 28 282 51 330 79 10 5 22 6 26 1 5-4 7-73 5-152z"/>
  <path d="m8265 2467c-72-19-108-41-149-89-73-85-71-52-71-1008 0-982-6-919 89-1008 73-69 133-86 276-79 152 7 230 49 281 148 37 74 40 147 37 999-3 929 1 873-81 959-63 65-113 84-232 87-60 2-120-2-150-9z"/>
  <path d="m10071 2465c-72-20-117-49-152-98-60-83-59-60-59-992 0-965-3-920 77-1006 65-70 110-84 263-84 117 0 129 2 182 28 68 33 111 82 135 152 17 46 18 116 18 925 0 867 0 875-21 920-31 67-68 106-131 136-47 23-70 28-157 31-69 2-118-2-155-12z"/>
 </g>
 <ellipse cx="49.298" cy="13.186" rx="2.1469" ry="2.2464" fill="#ffd42a" stroke-width=".050175"/>
 <ellipse cx="60.203" cy="13.282" rx="2.1469" ry="2.2464" fill="#00d400" stroke-width=".050175"/>
 <ellipse cx="54.652" cy="3.098" rx="2.9255" ry="3.098" fill="#00d400" stroke-width=".050175"/>
</svg>
