<svg width="280.29" height="129.53" version="1.0" xmlns="http://www.w3.org/2000/svg">
 <g transform="translate(-157.03 -416.16)" fill="#fff">
  <rect transform="rotate(-19.406)" x="101.25" y="487.09" width="28.947" height="28.947"/>
  <rect x="259.36" y="462.43" width="26.264" height="60.357"/>
  <path d="m222.99 467.74v-26.011h32.325v81.065h-32.325v-6.566c-6.6107 4.434-14.277 6.2299-22.223 7.3236-3.0908 0.51891-5.0652 0.45336-9.0914 0.25254-15.827-1.3738-28.575-6.1698-34.093-25.254-0.7004-3.7881-0.76684-7.5762 0-11.364 3.2361-14.904 13.694-24.569 34.093-27.022 3.6197-0.20071 7.2394-0.38209 10.859 0 8.5004 1.1503 15.167 3.811 20.456 7.5779l-10.604 10.852c-3.0572-0.83514-6.586-0.47351-10.104 6e-3 -7.6525 2.4793-10.551 4.0449-12.374 8.8388-0.93418 3.0305-0.97044 6.0609 0 9.0914 1.9 5.3163 6.4056 7.8266 11.364 9.849 3.0305 0.52345 6.0609 0.66352 9.0914 0 6.3392-1.8962 10.075-5.3239 12.374-9.5964 0.89701-2.7779 1.0064-5.5558 0-8.3338-2.78-5.4651-6.1774-7.8629-10.354-9.849z" fill-rule="evenodd"/>
  <path d="m281.43 448.61 29.643 51.071c3.0068 4.4275 3.4346 7.6944-3.0357 7.8571h-16.607v15.714h24.107c13.321 0.79309 24.475-6.8679 33.036-24.643l28.883-50.026h-33.883l-14.286 35.384-13.571-35.357z" fill-rule="evenodd"/>
  <path transform="scale(1.0877 .91933)" d="m184.09 579.88h4.7798v2.1818c0.71464-0.8912 1.4377-1.5281 2.1692-1.9106 0.73146-0.38254 1.6227-0.57382 2.6736-0.57383 1.4209 1e-5 2.5328 0.4225 3.3358 1.2675 0.80292 0.84499 1.2044 2.1503 1.2044 3.9159v8.5128h-5.1581v-7.3651c-1e-5 -0.84076-0.15555-1.4356-0.46662-1.7845-0.3111-0.34891-0.7483-0.52337-1.3116-0.52338-0.62218 1e-5 -1.1266 0.23543-1.5134 0.70625-0.38676 0.47084-0.58014 1.3158-0.58013 2.5349v6.4319h-5.1329zm32.122 7.9705h-10.291c0.0925 0.82396 0.31528 1.4377 0.66841 1.8413 0.49605 0.58013 1.1434 0.8702 1.9422 0.87019 0.50445 1e-5 0.98369-0.12611 1.4377-0.37834 0.27744-0.15975 0.57591-0.4414 0.89542-0.84498l5.0572 0.46663c-0.77352 1.3452-1.7068 2.31-2.7998 2.8944-1.093 0.58433-2.661 0.8765-4.7041 0.8765-1.774 0-3.1697-0.25013-4.187-0.75038-1.0173-0.50026-1.8602-1.2948-2.5286-2.3836-0.66841-1.0888-1.0026-2.3689-1.0026-3.8402 0-2.0935 0.67052-3.7877 2.0115-5.0824 1.341-1.2948 3.1928-1.9422 5.5554-1.9422 1.9169 1e-5 3.4303 0.29008 4.5402 0.8702 1.1098 0.58014 1.9548 1.4209 2.5349 2.5223 0.58012 1.1014 0.87018 2.5349 0.8702 4.3005zm-5.2212-2.4592c-0.1009-0.9921-0.36785-1.7026-0.80083-2.1314-0.43301-0.42878-1.0026-0.64318-1.7089-0.64319-0.81555 1e-5 -1.4672 0.32371-1.9548 0.97109-0.3111 0.40358-0.50868 1.0047-0.59275 1.8034zm13.797-10.606v5.0951h2.825v3.7456h-2.825v4.7546c-1e-5 0.57172 0.0546 0.95007 0.16395 1.135 0.16814 0.28586 0.46241 0.42879 0.8828 0.42879 0.37834 0 0.90803-0.1093 1.5891-0.3279l0.37834 3.5438c-1.2696 0.27745-2.455 0.41618-3.5564 0.41618-1.278 0-2.2196-0.16395-2.825-0.49185-0.60536-0.3279-1.0531-0.82605-1.3431-1.4945-0.29007-0.66841-0.4351-1.7509-0.4351-3.2475v-4.7167h-1.8917v-3.7456h1.8917v-5.1032zm3.7456 5.0951h4.969l2.1566 8.4371 2.7241-8.4371h4.6284l2.825 8.4371 2.1566-8.4371h4.9311l-4.9311 13.393h-4.5654l-2.7115-8.0588-2.6232 8.0588h-4.5906zm25.248 6.7346c0-2.0431 0.68943-3.7267 2.0683-5.0509 1.3789-1.3242 3.2412-1.9863 5.5869-1.9863 2.682 1e-5 4.7083 0.77773 6.0788 2.3331 1.1014 1.2528 1.6521 2.7956 1.6521 4.6284-2e-5 2.0599-0.68314 3.7477-2.0494 5.0635-1.3663 1.3158-3.2559 1.9737-5.6689 1.9737-2.1524 0-3.8928-0.5465-5.2212-1.6395-1.6311-1.3536-2.4466-3.1277-2.4466-5.3221zm5.1455-0.0126c-1e-5 1.1939 0.24171 2.0767 0.72516 2.6484 0.48344 0.57173 1.0909 0.85759 1.8224 0.85759 0.73987 0 1.3473-0.28166 1.8224-0.84498 0.47502-0.56331 0.71254-1.4671 0.71255-2.7115-1e-5 -1.1602-0.23963-2.0241-0.71886-2.5917-0.47925-0.56751-1.072-0.85127-1.7782-0.85128-0.74829 1e-5 -1.3662 0.28798-1.8539 0.86389-0.48766 0.57594-0.73148 1.4524-0.73147 2.6295zm12.788-6.722h4.805v2.1944c0.46241-0.95006 0.93955-1.6038 1.4314-1.9611 0.49184-0.35731 1.0993-0.53598 1.8224-0.53599 0.75669 1e-5 1.5848 0.23543 2.4845 0.70625l-1.5891 3.6573c-0.60536-0.25222-1.0846-0.37833-1.4377-0.37834-0.67263 1e-5 -1.1939 0.27746-1.5638 0.83236-0.5297 0.78192-0.79454 2.2449-0.79453 4.3888v4.4897h-5.1581zm11.401-5.0951h5.2464v9.5343l3.8339-4.4393h6.3184l-4.805 4.6915 5.0824 8.702h-5.7887l-2.7115-5.3725-1.9296 1.8917v3.4808h-5.2464z"/>
 </g>
 <g transform="translate(92.888 257.16)" fill="#fff" stroke-width="1.2693">
  <path d="m161.23-224.74h11.649c9.3273 0 14.517 3.7776 14.517 11.886 0 8.6716-5.4603 11.912-14.517 11.952h-11.649m5.6864-19.937v15.905h6.4975c5.2105 0 8.1994-2.8779 8.1994-7.9196 0-5.0882-2.7554-7.954-8.1994-7.9849z"/>
  <path d="m130.69-224.74v23.838h5.7676v-10.383h14.756v10.383l5.7695-4.1e-4v-23.838l-5.7695-3e-4v9.3555h-14.756v-9.3555z"/>
 </g>
</svg>
