<svg width="7.3974mm" height=".95867mm" version="1.1" viewBox="0 0 7.3974 .95867" xmlns="http://www.w3.org/2000/svg">
 <g transform="translate(-43.926 -102.24)">
  <path d="m45.116 102.4-0.0074 0.12206c-0.0095 0.15522-0.03316 0.27058-0.05891 0.34466h0.24306v-0.46672zm0.25471 0.61524h-0.41204v0.18521h-0.20108v-0.33373h0.07161c0.0448-0.0674 0.07055-0.22048 0.07691-0.35983l0.01094-0.25223h0.58314v0.61206h0.07161v0.33373h-0.20108z" fill="#171717"/>
  <path d="m45.858 102.63c0 0.12629 0.08043 0.24201 0.20743 0.24201 0.13053 0 0.2099-0.11677 0.2099-0.24201 0-0.13159-0.07937-0.24201-0.2099-0.24201-0.13264 0-0.20743 0.10937-0.20743 0.24201m-0.21519 0c0-0.23954 0.17674-0.3937 0.42263-0.3937 0.25259 0 0.4251 0.15734 0.4251 0.3937 0 0.23424-0.17462 0.3937-0.4251 0.3937-0.23848 0-0.42263-0.15522-0.42263-0.3937" fill="#171717"/>
  <path d="m47.225 102.45h-0.0032l-0.20108 0.22049-0.2025-0.22049h-0.0032v0.56056h-0.20638v-0.76164h0.23742l0.17462 0.19014 0.17427-0.19014h0.23636v0.76164h-0.20638z" fill="#171717"/>
  <path d="m48.145 102.62h-0.0032v0.3937h-0.20779v-0.76165h0.20779v0.35525h0.0032l0.25682-0.35525h0.2473l-0.27728 0.35384 0.29951 0.40781h-0.26211z" fill="#171717"/>
  <path d="m49.278 102.53h-0.0042l-0.28363 0.4826h-0.24412v-0.762h0.20567v0.50518h0.0042l0.29739-0.50518h0.23036v0.762h-0.20567z" fill="#171717"/>
  <path d="m50.153 102.69h-0.32209v0.32314h-0.20743v-0.762h0.20743v0.28999h0.32209v-0.28999h0.20743v0.762h-0.20743z" fill="#171717"/>
  <path d="m50.694 102.63c0 0.12629 0.08043 0.24201 0.20743 0.24201 0.13088 0 0.2099-0.11677 0.2099-0.24201 0-0.13159-0.07902-0.24201-0.2099-0.24201-0.13229 0-0.20743 0.10937-0.20743 0.24201m-0.21519 0c0-0.23954 0.17674-0.3937 0.42263-0.3937 0.25294 0 0.4251 0.15734 0.4251 0.3937 0 0.23424-0.17462 0.3937-0.4251 0.3937-0.23848 0-0.42263-0.15522-0.42263-0.3937" fill="#171717"/>
  <path d="m44.083 103.02h0.30762l0.18627-0.66499-0.34325 0.12453z" fill="#ed1d4a"/>
  <path d="m43.926 103.02h0.12912l0.14887-0.52987-0.14111 0.0501z" fill="#f68cb6"/>
  <path d="m44.586 102.32 0.0187-0.067h-0.46426l-0.07091 0.25294z" fill="#f03a74"/>
 </g>
</svg>
