<svg width="977.65" height="462.38" enable-background="new 0 0 1035 549" version="1.1" viewBox="0 0 977.65 462.38" xml:space="preserve" xmlns="http://www.w3.org/2000/svg">
<polygon transform="matrix(.96618 0 0 .96618 -22.346 -33.271)" points="1035 359 190.58 359 136.35 513 1035 513" fill="#eb2529"/><g transform="matrix(.96618 0 0 .96618 -22.346 -33.271)">
						<rect x="267.95" y="34.436" width="57.114" height="56.802" fill="#fff"/>
			</g><rect x="262.22" y="27.513" width="3.8174" height="27.368" fill="#010101" stroke-width=".96618"/><path d="m264.15 16.869c-5.9159 0-10.712 4.7556-10.712 10.621 0 4.6609 3.029 8.6174 7.2406 10.048v-5.0251c-1.599-1.0976-2.6473-2.9295-2.6473-5.0048 0-3.3585 2.743-6.0812 6.1275-6.0812s6.1275 2.7227 6.1275 6.0812c0 2.1024-1.0744 3.9546-2.7082 5.0473v4.9971c4.2348-1.4174 7.2841-5.3855 7.2841-10.063 0-5.8667-4.7961-10.621-10.712-10.621z" fill="#0666a9" stroke-width=".96618"/><path d="m264.14 9.2696c-10.153 0-18.383 8.1826-18.383 18.275 0 8.9198 6.427 16.345 14.928 17.953v-4.7285c-5.9314-1.513-10.316-6.8696-10.316-13.247 0-7.5527 6.1488-13.675 13.734-13.675s13.734 6.1227 13.734 13.675c0 6.3575-4.3584 11.701-10.263 13.233v4.7459c8.5101-1.6 14.947-9.03 14.947-17.957 9.7e-4 -10.093-8.229-18.274-18.382-18.274z" fill="#0d984f" stroke-width=".96618"/><path d="m264.14 1.6164c-14.386 0-26.046 11.594-26.046 25.897 0 13.136 9.8377 23.987 22.587 25.67v-4.6821c-10.187-1.6425-17.966-10.414-17.966-20.988 0-11.745 9.5932-21.267 21.427-21.267 11.834 0 21.427 9.5208 21.427 21.267 0 10.586-7.7942 19.364-17.997 20.993v4.6812c12.762-1.6705 22.614-12.528 22.614-25.673 9.7e-4 -14.302-11.661-25.897-26.045-25.897z" fill="#e32e2d" stroke-width=".96618"/><g transform="translate(-22.346 -33.271)"><path d="m222.78 42.65c2.829-0.71208 5.744-1.0328 8.6541-1.143 2.599-0.09952 5.201 0.0097 7.7971 0.14203 4.7826 0.25797 9.5584 0.76908 14.262 1.686-9.6e-4 3.1913-9.6e-4 6.3826-9.6e-4 9.5739-0.89662-1.4415-2.087-2.6879-3.4386-3.7082-1.4802-1.1198-3.1459-1.9787-4.8783-2.6367-2.1681-0.81642-4.4483-1.3198-6.7507-1.5643-2.2956-0.23575-4.6203-0.23188-6.9121 0.04251-1.2966 0.17005-2.5961 0.44444-3.7865 1.0019-0.87053 0.4087-1.6831 0.99807-2.2126 1.8116-0.47729 0.71981-0.71207 1.5826-0.74009 2.4406-0.0116 0.5401 0.21256 1.0618 0.55362 1.4734 0.70338 0.83092 1.7063 1.3256 2.6879 1.7527 2.1536 0.89082 4.43 1.4271 6.687 1.9807 4.3604 1.0483 8.7758 1.9488 12.99 3.515 1.6425 0.62126 3.258 1.3449 4.7362 2.3024 1.4976 0.97101 2.8725 2.2213 3.6908 3.8319 0.71594 1.3865 0.92947 2.9952 0.73237 4.5353-0.15073 1.2715-0.59034 2.5111-1.2976 3.5807-0.77874 1.1874-1.8531 2.1585-3.0367 2.9314-1.3614 0.88889-2.8647 1.5391-4.4039 2.0522-2.0048 0.6628-4.0783 1.0966-6.1642 1.4068-2.6145 0.38551-5.2551 0.57874-7.8966 0.65894-5.0898 0.17295-10.179-0.18164-15.245-0.63865-2.1159-0.1971-4.23-0.41932-6.342-0.6657 9.7e-4 -3.5063 0-7.0126 9.7e-4 -10.52 1.801 1.713 3.8812 3.1053 6.0416 4.3217 2.3343 1.2976 4.7952 2.3768 7.3517 3.1536 1.4705 0.44348 2.9749 0.78647 4.5014 0.96232 1.001 0.1227 2.0106 0.1401 3.0184 0.14203 1.3478-0.0029 2.7014-0.04928 4.0348-0.26667 1.03-0.17102 2.0638-0.44541 2.9652-0.98937 0.68696-0.41546 1.2628-1.0232 1.6019-1.7546 0.37584-0.79324 0.49178-1.6831 0.49468-2.5536 3e-3 -0.51884-0.15652-1.0348-0.43961-1.4676-0.54879-0.82899-1.4193-1.3729-2.2928-1.8058-1.658-0.80193-3.4464-1.2841-5.2232-1.744-2.8908-0.7227-5.8126-1.3188-8.6957-2.0763-2.5246-0.6686-5.0396-1.4396-7.3874-2.5971-1.8251-0.90435-3.5749-2.0754-4.8242-3.7101-0.84445-1.0986-1.4106-2.4087-1.6213-3.7787-0.22415-1.4908-0.14879-3.056 0.41933-4.4647 0.71207-1.8106 2.1024-3.2763 3.687-4.3662 2.0135-1.3807 4.3304-2.2493 6.6821-2.8483z" stroke-width=".96618"/><g transform="scale(.96618)">
				<path d="m128.59 43.49c4.442-1e-3 8.883-1e-3 13.325-1e-3 7.263 13.037 14.524 26.075 21.786 39.111-5.67 0-11.339 1e-3 -17.009-1e-3 -1.938-3.511-3.88-7.02-5.819-10.531-7.611 2e-3 -15.222-3e-3 -22.834 3e-3 -1.899 3.512-3.808 7.018-5.71 10.528-2.2 1e-3 -4.4 0-6.6 0 7.619-13.036 15.241-26.072 22.861-39.109zm-7.506 23.858c5.899 0 11.797 1e-3 17.695 0-2.894-5.403-5.788-10.805-8.684-16.207-3.004 5.402-6.007 10.805-9.011 16.207z"/>
			</g><g transform="scale(.96618)">
				<path d="m166.02 43.489c7.388-1e-3 14.778 0 22.166 0 3.993 2e-3 7.992 0.014 11.976 0.329 2.775 0.232 5.56 0.581 8.238 1.373 1.379 0.415 2.733 0.953 3.945 1.739 0.998 0.646 1.892 1.482 2.5 2.512 0.621 1.035 0.917 2.244 0.935 3.446 0.035 1.372-0.263 2.774-0.987 3.951-0.558 0.921-1.349 1.686-2.24 2.282-1.019 0.684-2.162 1.165-3.33 1.527-1.707 0.528-3.481 0.798-5.255 0.985-0.331 0.042-0.667 0.055-0.994 0.12 0.254 0.074 0.522 0.027 0.784 0.044 2.824 0.066 5.686 0.566 8.239 1.818 1.909 0.937 3.626 2.384 4.603 4.3 0.703 1.361 1.008 2.907 0.973 4.432-0.022 1.248-0.299 2.504-0.896 3.605-0.595 1.112-1.491 2.043-2.516 2.769-1.896 1.337-4.138 2.075-6.378 2.596-3.466 0.78-7.024 1.037-10.567 1.178-3.609 0.131-7.222 0.098-10.833 0.106-6.788 1e-3 -13.575 0-20.363 1e-3v-39.113zm18.486 3.581c-0.746 0.065-1.524 0.128-2.195 0.489-0.466 0.247-0.755 0.733-0.855 1.24-0.17 0.817-0.128 1.658-0.135 2.488 0 2.982-1e-3 5.963 0 8.945 3.934-0.031 7.924 0.188 11.792-0.683 1.329-0.307 2.649-0.739 3.807-1.472 0.855-0.541 1.61-1.276 2.054-2.194 0.55-1.118 0.602-2.425 0.348-3.629-0.239-1.129-0.886-2.157-1.781-2.882-0.99-0.814-2.203-1.304-3.428-1.642-1.703-0.458-3.469-0.633-5.226-0.702-1.46-0.047-2.923-0.045-4.381 0.042zm-3.186 17.843c1e-3 3.706-1e-3 7.412 1e-3 11.118 0.025 0.684-3e-3 1.408 0.31 2.037 0.254 0.507 0.824 0.733 1.35 0.839 1.005 0.195 2.036 0.18 3.056 0.205 3.411 0.019 6.867 0.053 10.211-0.72 1.408-0.341 2.818-0.831 3.983-1.718 0.839-0.634 1.504-1.515 1.802-2.53 0.318-1.071 0.301-2.231 0.016-3.307-0.301-1.117-0.989-2.108-1.875-2.843-0.991-0.829-2.18-1.385-3.397-1.795-1.48-0.491-3.021-0.777-4.567-0.967-3.613-0.436-7.26-0.294-10.89-0.319z"/>
			</g></g><g transform="translate(-22.346 -33.271)"><path d="m332.55 43.015c5.143-1.2744 10.471-1.5787 15.752-1.5411 3.6377 0.01546 7.2802 0.11208 10.904 0.45314 3.287 0.30145 6.5507 0.8029 9.8048 1.3536-2e-3 3.2068 0 6.4126-9.7e-4 9.6184-1.2976-2.0696-3.2087-3.6947-5.3092-4.9092-3.3536-1.9237-7.2087-2.8087-11.039-3.0686-3.1739-0.21256-6.4145-0.06957-9.4763 0.85507-2.3981 0.71498-4.6676 1.9266-6.5024 3.6377-1.9469 1.8-3.3787 4.1343-4.1614 6.6638-0.83285 2.657-0.96715 5.5295-0.37392 8.2502 0.56909 2.6609 1.8184 5.1855 3.6551 7.2 1.6386 1.8097 3.7324 3.1826 6.0068 4.058 2.743 1.0647 5.7092 1.4444 8.6386 1.4116 2.8986-0.02609 5.8106-0.36232 8.5971-1.1836 2.3681-0.69855 4.6483-1.7604 6.6145-3.2657 1.3063-1.0068 2.4802-2.2077 3.3498-3.6155-9.7e-4 3.2087 0 6.4193 0 9.628-3.2406 0.54686-6.4918 1.0483-9.7652 1.3478-3.7478 0.35362-7.515 0.44541-11.277 0.457-3.343 0.02029-6.6908-0.11691-10.008-0.54106-3.114-0.40386-6.2116-1.0531-9.1536-2.1662-2.4995-0.94976-4.8957-2.257-6.8763-4.0715-1.7565-1.5961-3.1411-3.6029-3.9836-5.8222-1.0918-2.8541-1.344-5.9729-1.0734-9 0.25024-2.714 1.0841-5.4039 2.6106-7.6773 1.3072-1.97 3.0937-3.5952 5.0956-4.8396 2.4474-1.5266 5.1836-2.5314 7.971-3.2328z" stroke-width=".96618"/><g transform="scale(.96618)">
				<path d="m385.07 43.495h22.676c4.098 5e-3 8.203 0.029 12.287 0.4 2.686 0.257 5.381 0.636 7.956 1.472 1.38 0.454 2.731 1.051 3.906 1.918 0.946 0.7 1.761 1.601 2.268 2.671 0.602 1.25 0.76 2.677 0.617 4.045-0.113 1.078-0.466 2.137-1.067 3.043-0.683 1.041-1.663 1.859-2.739 2.47-2.047 1.147-4.377 1.661-6.682 1.973-0.753 0.105-1.511 0.165-2.262 0.265 0.177 0.09 0.39 0.028 0.586 0.048 2.86 0.044 5.762 0.532 8.355 1.782 1.91 0.924 3.638 2.351 4.635 4.251 0.734 1.38 1.053 2.959 1.018 4.516-0.021 1.175-0.264 2.356-0.794 3.41-0.554 1.118-1.41 2.068-2.406 2.811-1.814 1.35-3.986 2.111-6.161 2.65-3.15 0.759-6.389 1.05-9.617 1.219-3.646 0.184-7.298 0.158-10.947 0.167-7.211 0-14.42 1e-3 -21.63 0 2e-3 -13.036 2e-3 -26.074 1e-3 -39.111zm18.506 3.579c-0.75 0.065-1.532 0.125-2.208 0.485-0.445 0.231-0.737 0.68-0.846 1.161-0.188 0.798-0.149 1.625-0.156 2.438-1e-3 3.025 0 6.052-1e-3 9.077 1.046 3e-3 2.093 1e-3 3.14 1e-3 3.036 0.013 6.11-0.05 9.073-0.783 1.301-0.332 2.591-0.799 3.696-1.579 0.827-0.582 1.527-1.374 1.896-2.324 0.433-1.111 0.434-2.36 0.147-3.507-0.278-1.092-0.947-2.064-1.834-2.752-0.967-0.76-2.129-1.227-3.306-1.552-1.658-0.449-3.376-0.626-5.088-0.7-1.503-0.054-3.011-0.051-4.513 0.035zm-3.209 17.844c-1e-3 3.173-1e-3 6.346-1e-3 9.519 9e-3 0.881-0.029 1.765 0.051 2.643 0.05 0.488 0.163 1.018 0.543 1.361 0.448 0.391 1.062 0.486 1.632 0.561 1.18 0.127 2.369 0.108 3.555 0.122 3.143 0.01 6.326-0.033 9.395-0.787 1.358-0.349 2.715-0.848 3.825-1.727 0.858-0.672 1.513-1.615 1.774-2.678 0.265-1.086 0.221-2.248-0.114-3.314-0.349-1.101-1.078-2.055-1.985-2.761-1.087-0.853-2.378-1.402-3.692-1.801-1.348-0.402-2.736-0.652-4.131-0.82-3.6-0.433-7.234-0.292-10.852-0.318z"/>
			</g><path d="m424.19 79.814c9.7e-4 -12.599-9.6e-4 -25.199 9.7e-4 -37.798 3.7961-9.66e-4 7.5923 0.0087 11.389 0.0087 9.4174 8.4367 18.833 16.874 28.249 25.312 9.6e-4 -8.4406 0-16.88 9.6e-4 -25.321 1.8676 0.0029 3.7372-0.0097 5.6048 0.0068v37.79c-4.4068 9.66e-4 -8.8135 0-13.221 9.66e-4 -8.8058-8.0812-17.612-16.161-26.418-24.243-3e-3 8.0812-6e-3 16.161-0.0126 24.243-1.8647-9.66e-4 -3.7285-9.66e-4 -5.5932 0z" stroke-width=".96618"/></g><g transform="matrix(.96618 0 0 .96618 -22.346 -33.271)" fill="#2a3c90">
				<path d="m105 107.72c40.202 0.124 80.467-1.036 120.63 1.45 16.321 1.16 33.595 2.63 47.659 11.826 11.557 7.518 17.523 22.057 15.617 35.581-2.051 15.823-6.524 31.211-10.605 46.6-10.543 37.611-21.147 75.202-31.752 112.77-4.391 15.078-8.886 30.197-15.534 44.446-9.838 21.27-32.435 33.034-54.805 36.12-22.079 2.962-44.428 2.444-66.652 2.465-28.811 0.041-57.621-0.083-86.432 0.124 27.03-97.218 54.764-194.21 81.876-291.38m18.434 241.61c8.906-0.849 19.884-0.456 26.035-8.202 6.255-9.444 9.072-20.628 12.427-31.315 11.661-41.443 23.426-82.865 34.962-124.35 1.491-6.772 4.267-13.669 3.128-20.67-3.915-8.429-14.871-6.628-22.493-7.332-18.103 63.936-36.102 127.91-54.059 191.87z"/>
				<path d="m318.36 107.72c48.674-0.166 97.348 0.104 146.02-0.145-6.089 22.016-12.759 43.887-18.869 65.902-1.781 7.622-6.814 13.773-10.853 20.276-35.418 55.485-70.898 110.97-106.32 166.48-13.422 20.96-26.864 41.94-40.223 62.982 25.124-0.021 50.227-0.186 75.351-0.124-6.462 19.261-12.8 38.564-18.931 57.929-53.003 0.269-106.03-0.021-159.03 0.166 5.489-15.968 11.226-31.874 16.694-47.863 2.465-7.829 7.415-14.477 11.765-21.332 10.957-17.294 21.955-34.546 32.829-51.86 37.551-59.254 74.854-118.65 112.59-177.78-20.484-0.041-40.948-0.104-61.433 0.145 6.255-25.062 13.753-49.812 20.402-74.768z"/>
				<path d="m479.25 107.2c35.625-0.394 71.25-0.104 106.88-0.145-4.474 42.478-9.9 84.915-15.41 127.25 2.071-3.542 3.956-7.187 5.551-10.956 16.487-38.812 33.678-77.314 50.082-116.15 35.915-0.456 71.851 0.062 107.77-0.269-24.109 84.397-48.26 168.79-72.41 253.19-1.988 6.814-3.935 13.628-5.779 20.483-24.005 0.393-48.032-0.104-72.037 0.331 1.698-7.352 3.915-14.601 6.027-21.85 12.738-44.86 25.621-89.658 38.401-134.5 2.506-8.864 5.572-17.584 6.918-26.717-23.384 54.283-47.576 108.22-71.333 162.35-3.128 6.648-5.572 13.649-9.155 20.09-16.943 1.16-34.072-0.021-51.076 0.601 0.808-7.062 1.636-14.125 2.506-21.208 6.007-49.727 11.785-99.495 17.958-149.2 0.29-2.879 0.435-5.758 0.539-8.657-15.368 52.73-30.281 105.58-45.526 158.36-1.968 6.752-3.935 13.524-5.675 20.338-24.13 0.393-48.28 0.186-72.41 0.207 2.092-6.959 4.08-13.938 6.069-20.918 23.797-84.274 48.817-168.22 72.119-252.63z"/>
				<path d="m748.33 107.12c35.604-0.228 71.229-0.041 106.86-0.083-4.37 42.168-10.253 84.169-15.016 126.3 4.329-6.855 6.856-14.601 10.19-21.933 14.954-34.774 30.24-69.402 45.028-104.24 35.936-0.352 71.851 0.021 107.79-0.186-24.13 83.797-47.949 167.7-72.016 251.51-2.113 7.311-4.246 14.622-6.11 22.016-24.13 0.394-48.28 0.394-72.41 0.104 2.175-7.207 4.246-14.456 6.297-21.726 12.883-44.984 25.725-89.948 38.566-134.93 2.506-8.678 5.282-17.294 7.063-26.179-23.964 54.18-47.804 108.4-71.706 162.62-3.003 6.731-6.048 13.441-8.906 20.255-17.088 0.249-34.175-0.021-51.263 0.269 0.828-7.332 1.678-14.643 2.589-21.933 6.131-52.378 12.717-104.69 18.641-157.09-15.907 52.44-30.323 105.34-45.65 157.94-2.05 7.042-3.935 14.146-6.359 21.084-23.923-0.393-47.845-0.104-71.747-0.062 2.03-7 4.018-13.98 5.986-20.98 24.067-84.252 48.321-168.44 72.181-252.76z"/>
			</g><g transform="matrix(.96618 0 0 .96618 -22.346 -33.271)" fill="#fff">
				<path d="m400.3 413.13h12.025c8.016 0 13.444 0.32 16.282 0.961 2.838 0.642 5.151 2.277 6.941 4.91 1.789 2.633 2.684 6.833 2.684 12.6 0 5.266-0.632 8.804-1.896 10.614-1.265 1.812-3.753 2.897-7.465 3.26 3.362 0.863 5.622 2.021 6.779 3.469 1.156 1.448 1.876 2.778 2.159 3.99s0.424 4.549 0.424 10.009v17.844h-15.778v-22.482c0-3.621-0.276-5.864-0.827-6.729-0.552-0.863-1.998-1.295-4.338-1.295v30.506h-16.989v-67.657zm16.989 11.575v15.044c1.91 0 3.249-0.271 4.015-0.814s1.15-2.305 1.15-5.286v-3.72c0-2.145-0.37-3.552-1.109-4.221-0.741-0.669-2.093-1.003-4.056-1.003z"/>
				<path d="m474.18 413.13 9.715 67.656h-17.362l-0.912-12.16h-6.077l-1.021 12.16h-17.563l8.666-67.656zm-9.004 43.502c-0.86-7.663-1.723-17.135-2.587-28.416-1.731 12.955-2.818 22.428-3.261 28.416z"/>
				<path d="m486.78 413.13h12.711c8.205 0 13.753 0.391 16.646 1.17 2.892 0.78 5.091 2.062 6.599 3.845 1.506 1.783 2.447 3.768 2.824 5.955s0.564 6.484 0.564 12.892v23.694c0 6.074-0.275 10.134-0.826 12.182-0.553 2.048-1.514 3.65-2.887 4.806-1.371 1.156-3.066 1.964-5.084 2.424s-5.058 0.689-9.12 0.689h-21.428v-67.657zm16.989 11.575v44.506c2.448 0 3.955-0.509 4.52-1.525s0.848-3.782 0.848-8.295v-26.286c0-3.064-0.095-5.028-0.283-5.892-0.188-0.863-0.619-1.497-1.292-1.901s-1.937-0.607-3.793-0.607z"/>
				<path d="m568.66 413.13-12.389 43.168v24.488h-15.738v-24.488l-11.944-43.168h15.606c2.439 13.206 3.814 22.093 4.126 26.661 0.941-7.219 2.519-16.105 4.731-26.661z"/>
				<path d="m610.38 452.74c0 6.798-0.155 11.61-0.465 14.438s-1.277 5.412-2.905 7.752-3.827 4.138-6.598 5.391c-2.771 1.254-5.999 1.881-9.685 1.881-3.498 0-6.639-0.593-9.423-1.776s-5.023-2.96-6.719-5.328c-1.694-2.367-2.703-4.944-3.026-7.73s-0.484-7.661-0.484-14.626v-11.576c0-6.797 0.154-11.61 0.464-14.438s1.277-5.412 2.906-7.752c1.627-2.341 3.826-4.138 6.598-5.392 2.771-1.253 5.998-1.88 9.685-1.88 3.497 0 6.638 0.592 9.422 1.776 2.785 1.184 5.024 2.96 6.72 5.327 1.694 2.369 2.703 4.946 3.026 7.731 0.322 2.786 0.484 7.662 0.484 14.626zm-16.989-22.232c0-3.147-0.168-5.161-0.504-6.038-0.337-0.878-1.029-1.316-2.078-1.316-0.889 0-1.568 0.355-2.038 1.065-0.472 0.711-0.706 2.807-0.706 6.289v31.593c0 3.928 0.154 6.352 0.464 7.271 0.309 0.919 1.029 1.379 2.159 1.379 1.156 0 1.896-0.529 2.219-1.588s0.484-3.58 0.484-7.564z"/>
				<path d="m631.28 413.13h17.109c4.627 0 8.186 0.376 10.674 1.128s4.358 1.839 5.609 3.26 2.099 3.142 2.542 5.161c0.444 2.02 0.666 5.147 0.666 9.382v5.892c0 4.318-0.431 7.467-1.291 9.444-0.861 1.979-2.441 3.497-4.742 4.556-2.3 1.059-5.307 1.588-9.019 1.588h-4.561v27.246h-16.988v-67.657zm16.988 11.575v17.217c0.484 0.028 0.901 0.042 1.251 0.042 1.561 0 2.644-0.396 3.249-1.19s0.908-2.445 0.908-4.952v-5.559c0-2.312-0.351-3.816-1.05-4.513s-2.151-1.045-4.358-1.045z"/>
				<path d="m700.08 413.13 9.715 67.656h-17.362l-0.911-12.16h-6.077l-1.021 12.16h-17.563l8.666-67.656zm-9.004 43.502c-0.86-7.663-1.723-17.135-2.588-28.416-1.73 12.955-2.817 22.428-3.26 28.416z"/>
				<path d="m742.34 413.13v13.539h-10.089v54.117h-16.988v-54.117h-10.048v-13.539z"/>
				<path d="m746.21 413.13h12.025c8.017 0 13.444 0.32 16.282 0.961 2.838 0.642 5.151 2.277 6.941 4.91 1.788 2.633 2.683 6.833 2.683 12.6 0 5.266-0.632 8.804-1.896 10.614-1.265 1.812-3.753 2.897-7.465 3.26 3.362 0.863 5.622 2.021 6.779 3.469 1.156 1.448 1.876 2.778 2.159 3.99 0.282 1.212 0.423 4.549 0.423 10.009v17.844h-15.777v-22.482c0-3.621-0.276-5.864-0.827-6.729-0.552-0.863-1.998-1.295-4.339-1.295v30.506h-16.988zm16.988 11.575v15.044c1.91 0 3.249-0.271 4.016-0.814s1.15-2.305 1.15-5.286v-3.72c0-2.145-0.37-3.552-1.11-4.221s-2.092-1.003-4.056-1.003z"/>
				<path d="m829.54 452.74c0 6.798-0.155 11.61-0.465 14.438s-1.277 5.412-2.905 7.752-3.827 4.138-6.598 5.391c-2.771 1.254-5.999 1.881-9.685 1.881-3.498 0-6.639-0.593-9.423-1.776s-5.023-2.96-6.719-5.328c-1.694-2.367-2.703-4.944-3.026-7.73s-0.484-7.661-0.484-14.626v-11.576c0-6.797 0.154-11.61 0.464-14.438s1.277-5.412 2.906-7.752c1.627-2.341 3.826-4.138 6.598-5.392 2.771-1.253 5.998-1.88 9.685-1.88 3.497 0 6.638 0.592 9.422 1.776 2.785 1.184 5.024 2.96 6.72 5.327 1.694 2.369 2.703 4.946 3.026 7.731 0.322 2.786 0.484 7.662 0.484 14.626zm-16.989-22.232c0-3.147-0.168-5.161-0.504-6.038-0.337-0.878-1.029-1.316-2.078-1.316-0.889 0-1.568 0.355-2.038 1.065-0.472 0.711-0.706 2.807-0.706 6.289v31.593c0 3.928 0.154 6.352 0.464 7.271 0.309 0.919 1.029 1.379 2.159 1.379 1.156 0 1.896-0.529 2.219-1.588s0.484-3.58 0.484-7.564z"/>
				<path d="m852.86 413.13v54.116h10.331v13.54h-27.319v-67.656z"/>
				<path d="m920.54 431.1h-16.303c0-3.147-0.034-5.133-0.101-5.955-0.067-0.821-0.391-1.511-0.969-2.068s-1.365-0.836-2.36-0.836c-0.834 0-1.521 0.266-2.058 0.794-0.539 0.53-0.848 1.212-0.929 2.048s-0.121 2.522-0.121 5.057v10.781c0.834-1.811 2.059-3.168 3.672-4.074 1.614-0.904 3.605-1.358 5.973-1.358 2.986 0 5.622 0.836 7.909 2.508 2.286 1.672 3.739 3.678 4.358 6.018 0.618 2.34 0.928 5.503 0.928 9.486v5.391c0 4.736-0.175 8.261-0.524 10.572-0.35 2.313-1.285 4.451-2.805 6.415s-3.605 3.489-6.255 4.576c-2.649 1.086-5.736 1.63-9.261 1.63-4.386 0-7.977-0.627-10.774-1.881s-4.957-3.058-6.477-5.412c-1.521-2.354-2.408-4.826-2.663-7.417-0.256-2.591-0.384-7.619-0.384-15.086v-9.361c0-8.051 0.114-13.435 0.343-16.151s1.164-5.286 2.805-7.71 3.881-4.241 6.719-5.453 6.114-1.818 9.826-1.818c4.573 0 8.326 0.767 11.259 2.299 2.932 1.532 5.03 3.691 6.295 6.478s1.897 6.292 1.897 10.527zm-16.303 21.103c0-2.396-0.256-4.039-0.767-4.931s-1.346-1.338-2.502-1.338c-1.13 0-1.957 0.426-2.481 1.275s-0.787 2.515-0.787 4.993v12.244c0 2.981 0.249 4.932 0.747 5.851 0.497 0.92 1.324 1.379 2.481 1.379 0.699 0 1.426-0.354 2.179-1.065 0.753-0.71 1.13-2.625 1.13-5.746v-12.662z"/>
				<path d="m956.77 442.44c2.476 0.865 4.318 2.279 5.528 4.244 1.211 1.966 1.816 6.571 1.816 13.819 0 5.379-0.592 9.554-1.775 12.521-1.185 2.969-3.229 5.227-6.134 6.773s-6.632 2.32-11.178 2.32c-5.165 0-9.221-0.898-12.167-2.695-2.945-1.797-4.883-3.997-5.811-6.603-0.928-2.604-1.393-7.125-1.393-13.561v-5.349h16.303v10.99c0 2.925 0.168 4.785 0.505 5.579 0.336 0.794 1.082 1.19 2.239 1.19 1.265 0 2.099-0.501 2.502-1.504s0.605-3.621 0.605-7.856v-4.681c0-2.591-0.282-4.485-0.848-5.683-0.564-1.198-1.399-1.985-2.502-2.361-1.104-0.376-3.242-0.592-6.416-0.647v-9.821c3.874 0 6.269-0.152 7.183-0.459 0.915-0.307 1.574-0.976 1.978-2.006s0.605-2.646 0.605-4.848v-3.761c0-2.368-0.236-3.929-0.706-4.681-0.471-0.752-1.204-1.129-2.199-1.129-1.13 0-1.903 0.397-2.32 1.191-0.418 0.794-0.626 2.486-0.626 5.077v5.559h-16.303v-5.768c0-6.463 1.426-10.83 4.277-13.101s7.385-3.406 13.6-3.406c7.774 0 13.047 1.573 15.818 4.72 2.771 3.146 4.156 7.517 4.156 13.112 0 3.786-0.498 6.521-1.493 8.206s-2.742 3.228-5.244 4.619z"/>
				<path d="m1008.4 436.03v22.565c0 5.127-0.27 8.859-0.808 11.2-0.538 2.34-1.654 4.527-3.349 6.561s-3.74 3.497-6.134 4.388c-2.395 0.892-5.071 1.338-8.03 1.338-3.901 0-7.143-0.468-9.726-1.4-2.582-0.933-4.641-2.389-6.174-4.367s-2.623-4.06-3.269-6.247-0.969-5.662-0.969-10.427v-23.61c0-6.213 0.518-10.865 1.554-13.958 1.035-3.092 3.094-5.571 6.174-7.438 3.08-1.866 6.813-2.8 11.198-2.8 3.577 0 6.779 0.647 9.604 1.943 2.824 1.296 4.936 2.877 6.335 4.743 1.398 1.867 2.347 3.97 2.845 6.311 0.5 2.339 0.749 6.072 0.749 11.198zm-16.303-5.683c0-3.594-0.169-5.843-0.505-6.749-0.336-0.905-1.123-1.358-2.36-1.358-1.211 0-2.012 0.481-2.401 1.442s-0.585 3.183-0.585 6.665v33.014c0 3.928 0.182 6.296 0.545 7.104 0.363 0.809 1.15 1.212 2.36 1.212 1.211 0 2.004-0.473 2.381-1.421 0.377-0.946 0.565-3.077 0.565-6.394z"/>
			</g>
</svg>
