<svg width="723.54mm" height="269.35mm" version="1.1" viewBox="0 0 723.54 269.35" xmlns="http://www.w3.org/2000/svg" xmlns:xlink="http://www.w3.org/1999/xlink">
 <defs>
  <linearGradient id="linearGradient843">
   <stop stop-color="#8d6f2f" offset="0"/>
   <stop stop-color="#ae9047" offset=".34636"/>
   <stop stop-color="#c6a958" offset=".6333"/>
   <stop stop-color="#e0c479" offset="1"/>
  </linearGradient>
  <linearGradient id="linearGradient1449" x1="41.288" x2="63.167" y1="32.731" y2="-5.1645" gradientTransform="translate(676.1 -1.2915e-5)" gradientUnits="userSpaceOnUse" xlink:href="#linearGradient843"/>
  <linearGradient id="linearGradient1518" x1="269.31" x2="285.37" y1="599.48" y2="439.65" gradientTransform="matrix(1.2623 0 0 1.2623 628.99 -514.12)" gradientUnits="userSpaceOnUse" xlink:href="#linearGradient843"/>
 </defs>
 <g transform="translate(-346.35 22.881)">
  <path d="m963.22 204.56 72.632-50.663c18.498-13.212 31.866-27.878 31.866-53.369 0-39.792-34.353-59.689-78.497-59.689-11.348 0-23.608 1.6344-33.246 3.9662l-37.325 57.744 36.218 2.1758c1.3981-14.299 12.744-25.181 31.555-25.181 15.698 0 29.844 8.0834 29.844 21.606 0 11.969-11.97 20.517-21.608 27.668l-68.335 49.643 42.621 64.138h100.95v-38.04z" fill="url(#linearGradient1518)" stroke-width=".26458"/>
  <path d="m441.63 38.115c-59.394 0-95.284 44.345-95.284 104.75 0 62.828 39.867 103.6 96.837 103.6 48.207 0 78.095-31.84 88.247-63.651l-51.279-8.2c-8.4594 15.098-22.865 22.773-38.413 22.773-25.044 0-40.235-18.307-42.126-34.94h136.18s0.87488-6.7971 0.87488-16.251c0-58.239-33.641-108.08-95.033-108.08zm0.81752 48.598c25.838 0 40.441 20.31 41.756 33.024h-83.959c1.4088-10.952 13.256-33.024 42.204-33.024z" fill="#fff"/>
  <path d="m541.09 41.943v200.66h51.478v-54.866h36.621c38.32 0 68.911-34.838 68.911-73.369 0-39.956-30.303-72.424-72.4-72.424zm51.478 48.413h32.751c10.931 1.13e-4 21.227 7.3972 21.227 23.482 1e-5 14.642-9.0258 23.482-20.246 23.482h-33.732z" fill="#fff" fill-rule="evenodd"/>
  <path d="m702.74 41.943v200.66h51.479v-200.66z" fill="#fff" fill-rule="evenodd"/>
  <path d="m749.36 242.6 71.923-106.44-57.874-94.216 59.191-2.4e-4 28.185 53.385 30.312-53.385h60.165l-60.914 94.237 70.72 106.42h-61.172l-39.125-60.376-39.088 60.376z" fill="#fff"/>
  <path d="m757.46 6.1047a28.986 28.986 0 0 1-28.986 28.986 28.986 28.986 0 0 1-28.986-28.986 28.986 28.986 0 0 1 28.986-28.986 28.986 28.986 0 0 1 28.986 28.986z" fill="url(#linearGradient1449)" fill-rule="evenodd" style="paint-order:normal"/>
 </g>
</svg>
