<svg width="620.04mm" height="269.35mm" version="1.1" viewBox="0 0 620.04 269.35" xmlns="http://www.w3.org/2000/svg">
 <defs>
  <linearGradient id="linearGradient1170" x1="41.288" x2="63.167" y1="32.731" y2="-5.1645" gradientTransform="matrix(.41694 0 0 .41694 1950.8 -13.341)" gradientUnits="userSpaceOnUse">
   <stop stop-color="#8d6f2f" offset="0"/>
   <stop stop-color="#ae9047" offset=".34636"/>
   <stop stop-color="#c6a958" offset=".6333"/>
   <stop stop-color="#e0c479" offset="1"/>
  </linearGradient>
 </defs>
 <g transform="translate(-1629 22.881)">
  <path d="m1682.2 105.81h5.7533c29.135 0.3683 32.685 5.509 32.685 47.253v37.827c0 10.405-0.6119 22.158-1.2239 30.237-1.4695 13.71-4.4066 19.587-11.63 23.014-4.1623 1.8366-4.0401 1.8366-20.076 2.0815l-5.5084 0.24492h-53.129v-140.66zm-8.6917 109.56c7.8348 0 9.3036-2.0815 9.3036-12.242v-54.475c0-10.161-1.4688-12.241-9.3036-12.241h-6.7324v78.959z" fill="#fff" stroke-width=".26458"/>
  <path d="m1787.7 105.81h7.2229c13.465 0 18.117 1.715 22.157 7.3462 2.5706 3.7953 4.1617 11.874 4.1617 19.831v9.0582c0 13.71-0.612 17.506-3.4276 22.77-3.4276 5.8755-7.8342 8.4468-17.138 9.3037 16.404 4.8958 20.444 10.161 20.444 26.809v21.791c0 8.6923 1.1018 16.649 2.9378 23.626h-37.459c-2.3257-7.221-2.9383-12.853-2.9383-23.626v-18.73c0-9.0588-3.1827-12.731-11.018-12.731h-4.8964v55.087h-37.827v-140.53zm-14.568 55.089c8.8139 0 10.773-2.3264 10.773-11.997 0-9.3037-2.6935-12.487-10.773-12.487h-5.2635v24.483h5.2635z" fill="#fff" stroke-width=".26458"/>
  <rect x="1830.5" y="105.81" width="37.826" height="140.53" fill="#fff" stroke-width=".26458"/>
  <path d="m1915.1 186.6c0 15.424 2.0808 23.994 7.5893 31.216 5.7533-7.3456 7.8354-15.426 7.8354-30.849v-81.285h37.826v62.922c0 21.791-9.3037 50.435-25.096 77.613h-40.764c-16.037-27.912-25.096-55.945-25.096-77.613v-62.922h37.705v80.918z" fill="#fff" stroke-width=".26458"/>
  <path d="m2014.8 160.9h34.766v30.604h-34.766v24.238h34.766v30.603h-35.255l-7.3462-0.24492c-13.343 0-17.505-0.85689-21.301-4.2832-6.7324-5.8774-8.6911-16.404-8.6911-46.029v-44.926c0-5.7527 0.6108-15.669 1.224-22.525 1.9587-17.505 7.9569-22.156 29.502-22.646h41.866v30.604h-34.766z" fill="#fff" stroke-width=".26458"/>
  <rect x="2058.8" y="162.98" width="43.458" height="27.298" fill="#fff" stroke-width=".26458"/>
  <rect x="2111" y="105.81" width="37.828" height="140.53" fill="#fff" stroke-width=".26458"/>
  <path d="m2193 105.81c2.3264 8.4468 2.6935 11.019 3.5504 18.608 3.7946-14.813 9.3036-18.608 26.197-18.608 11.875 0 16.403 1.2252 20.445 5.8767 4.8958 5.7533 5.7527 9.6708 5.8767 24.483v110.17h-37.705v-97.075c0-7.5893-2.3264-11.14-7.5899-11.14-5.2647 0-7.5899 3.5503-7.5899 11.629v96.585h-37.826v-108.46c0-13.467-0.6132-20.077-3.5509-32.074h38.192z" fill="#fff" stroke-width=".26458"/>
  <path d="m1853 2.551c-24.764 0-39.728 18.489-39.728 43.673 0 26.196 16.622 43.197 40.376 43.197 20.1 0 32.561-13.276 36.794-26.539l-21.381-3.419c-3.527 6.2949-9.5335 9.495-16.016 9.495-10.442 0-16.776-7.6329-17.564-14.568h56.778s0.3648-2.834 0.3648-6.7759c0-24.282-14.026-45.063-39.623-45.063zm0.3408 20.263c10.773 0 16.861 8.4682 17.41 13.769h-35.006c0.5874-4.5662 5.5272-13.769 17.597-13.769z" fill="#fff"/>
  <path d="m1894.5 4.1467v83.664h21.463v-22.876h15.269c15.977 0 28.732-14.526 28.732-30.591 0-16.659-12.634-30.197-30.187-30.197zm21.463 20.186h13.655c4.5576 4.9e-5 8.8504 3.0842 8.8504 9.7908 0 6.105-3.7632 9.7908-8.4413 9.7908h-14.064z" fill="#fff" fill-rule="evenodd"/>
  <path d="m1961.9 4.1467v83.664h21.464v-83.664z" fill="#fff" fill-rule="evenodd"/>
  <path d="m1981.3 87.81 29.988-44.38-24.13-39.283 24.679-9.77e-5 11.752 22.258 12.638-22.258h25.085l-25.398 39.291 29.486 44.372h-25.505l-16.313-25.173-16.298 25.173z" fill="#fff"/>
  <path d="m1984.7-10.796a12.086 12.086 0 0 1-12.086 12.086 12.086 12.086 0 0 1-12.086-12.086 12.086 12.086 0 0 1 12.086-12.086 12.086 12.086 0 0 1 12.086 12.086z" fill="url(#linearGradient1170)" fill-rule="evenodd" style="paint-order:normal"/>
 </g>
</svg>
