<svg width="847.7pt" height="193.73pt" version="1.1" viewBox="0 0 847.7 193.73" xmlns="http://www.w3.org/2000/svg">
 <g transform="translate(-41.12 -50.036)" fill="#fff">
  <path d="m164.64 71.59c16.11-17.34 41.37-24.27 64.4-20.6 14.81 2.44 29.58 8.95 39.16 20.86 7.98 10.12 11.59 23.23 11.68 35.98-15.64-0.15-31.28-0.01-46.91-0.07-0.81-5.88-3.08-12.09-8.14-15.6-4.52-3.08-10.4-2.96-15.54-1.83-5.43 1.16-9.89 6.09-10.07 11.71-0.14 3.85-0.41 8.29 2.38 11.36 3.85 4.39 9.15 7.1 14.23 9.81 15.32 7.54 31.84 13.06 45.68 23.33 9.94 7.25 17.4 18.14 19.2 30.45 2.09 14.48 0.02 30.13-8.3 42.45-8.73 12.88-23.63 20.36-38.68 22.89-14.59 2.38-29.8 1.92-44.03-2.28-13.56-4.22-26.25-12.8-33.38-25.32-6.29-10.87-7.75-23.75-7.22-36.1 15.65-0.03 31.31-0.01 46.97-0.03 0.35 7.66 2.2 15.91 8.03 21.34 4.23 3.91 10.35 4.8 15.88 3.99 5.51-0.47 11.11-3.83 12.91-9.27 2.35-6.65 2.11-15.12-3.28-20.26-5.37-5.29-12.77-7.57-19.46-10.65-16.09-6.99-33.49-13.01-45.8-26.1-8.26-8.66-12.83-20.69-12.29-32.65-0.57-12.25 4.2-24.5 12.58-33.41z"/>
  <path d="m358.42 53.52c16.63-4.21 34.24-4.7 51-0.95 19.93 3.95 38.11 15.35 50.94 31.04 9.85 11.74 17.54 25.57 20.45 40.74-16.64 0.06-33.29-0.04-49.93 0.03-4.17-10.55-10.74-20.66-20.74-26.48-11.98-6.92-26.87-7.7-40.01-3.95-20.85 6.76-35.01 28.39-34.9 50.02-0.82 13.85 3.12 28.05 11.84 38.95 7.33 9.92 18.57 17.21 30.91 18.75 12.26 1.87 25.52-0.54 35.51-8.16 7.89-5.76 13.26-14.23 17.41-22.94 16.6 0.07 33.2-0.04 49.79 0.03-4.95 19.04-15.2 36.94-30.47 49.54-14.47 12.67-32.86 20.87-52.01 22.87-14.3 1.68-28.96 0.42-42.74-3.74-21.95-6.84-41.03-21.94-53.45-41.2-11.61-17.93-15.98-39.97-14.01-61.09 1.55-18.87 8.98-37.25 21.28-51.69 12.65-15.22 29.96-26.68 49.13-31.77z"/>
  <path d="m539.75 53.56c12.57-0.19 25.13-0.04 37.7-0.07 24.61 62.3 49.53 124.48 74.14 186.79-16.56 0.01-33.12 0.03-49.68 0.01-1.57 0.36-2.03-1.48-2.48-2.54-2.75-8.17-5.4-16.39-8.36-24.49-21.84 0.08-43.68-0.11-65.52 0.08-3.01 8.64-6.14 17.26-9.48 25.78-0.28 0.27-0.82 0.8-1.1 1.06-16.65 0.16-33.31 0.05-49.96 0.04 24.93-62.21 49.91-124.42 74.74-186.66m13.66 73.85c-4.7 16.14-9.99 32.12-14.44 48.33 13.17 0.14 26.33 0.02 39.49 0.05-1.24-5.62-3.41-10.98-4.83-16.55-5.06-16-9.48-32.2-14.83-48.1-2.63 5.12-3.36 10.92-5.39 16.27z"/>
  <path d="m636.13 52.77c15.23-0.03 30.46-0.03 45.69 0-0.13 9.77-0.12 19.55-0.04 29.32 11.58-0.34 23.39 1.14 34.75-1.79 5.05-1.45 10-4.49 12.39-9.35 2.96-5.53 3.01-12.14 1.78-18.16 15.37-0.07 30.75-0.02 46.12-0.02 0.8 15.19-2.29 30.75-10.37 43.76-8.18 13.35-22.68 22.08-37.88 24.99-15.42 3.32-31.27 1.76-46.91 2.15 0.07 19.51-0.14 39.03 0.01 58.54-15.11 0.15-30.23 0.17-45.34 0 0.01-43.15-0.05-86.29-0.2-129.44z"/>
  <path d="m41.12 53.55c34.59-0.05 69.18-0.06 103.76-0.06-0.18 13.88-0.01 27.76-0.11 41.65-19.34 0.06-38.69-0.04-58.03 0.03 0 9.84-0.22 19.67 0.06 29.5 18.71-0.06 37.41-0.08 56.12-0.05 0.24 13.87 0.37 27.77-0.09 41.64-18.72 0.09-37.45 0.02-56.17-0.04-0.09 10.85-0.19 21.71-0.01 32.56 19.37-0.06 38.73-0.11 58.1-0.05-0.11 13.83-0.06 27.65-0.05 41.48-34.45 0.11-68.9 0.05-103.35-0.08-0.09-62.19 0.01-124.38-0.23-186.58z"/>
  <path d="m785.08 53.5c34.58 0.06 69.16-0.04 103.74 0.08-0.17 13.84-0.09 27.68-0.07 41.52-19.39 0.06-38.78 0.06-58.16 0.03-0.2 9.77 0.04 19.54-0.13 29.31 18.8 0.42 37.61 0.04 56.42 0.2 0.53 8.45-0.49 16.9 0.11 25.34 0.01 5.43 0.14 10.86-0.16 16.29-18.74 0-37.47 0.11-56.2-0.04-0.21 10.84-0.26 21.7 0.01 32.54 19.36-0.14 38.73-0.07 58.1-0.03-0.18 13.82-0.09 27.64-0.05 41.46-34.49 0.19-68.97 0.07-103.46 0.07 0.06-12.43-0.07-24.85-0.24-37.28 0.63-13.33-0.2-26.68 0.07-40.02-0.19-36.48 0.22-72.98 0.02-109.47z"/>
 </g>
</svg>
