<svg width="29.591" height="29.28" version="1.1" viewBox="0 0 29.591 29.28" xmlns="http://www.w3.org/2000/svg">
 <g transform="translate(3.3715 -.011687)" fill="#fff">
  <path d="m22.117 0.011687h-9.9416l2.99e-4 6.816 1.0423-2.989e-4s-0.03886 15.14-0.03886 15.509c-0.07921 0.07502-0.17067 0.1611-0.17127 0.162h-3.4582c-0.022417-0.02272-0.10372-0.10402-0.12614-0.12613 0-0.35598 0.00478-15.545 0.00478-15.545l0.99862 0.0012 0.0012-6.8169h-10.385v6.8327h1.8708v17.909l4.4835 4.5384h9.8475l4.4835-4.5384v-17.909h2.1096v-6.8327z" fill="#fff"/>
 </g>
 <polygon transform="translate(0 -.048128)" points="5.5772 2.2107 5.5772 4.7188 7.4486 4.7188 7.4486 23.902 10.672 27.166 18.713 27.166 21.937 23.902 21.937 4.7188 24.047 4.7188 24.047 2.2107 17.609 2.2107 17.61 4.7164 18.683 4.7158 18.713 23.305 17.24 24.698 12.026 24.698 10.632 23.305 10.674 4.7158 11.737 4.7158 11.737 2.2107" fill="#f8323f"/>
 <polygon transform="translate(0 -.048128)" points="1.9581 13.666 0 18.119 29.591 18.119 27.632 13.666 29.586 9.2135 0.0044835 9.2135" fill="#fff"/>
 <polygon transform="translate(0 -.048128)" points="9.0642 12.439 4.4295 12.439 4.6202 10.926 9.2361 10.928" fill="#231f20"/>
 <path d="m10.836 10.896c0.86053 0 7.7609-0.0081 8.2765 0 0.52247 0.0078 0.93555 0.42623 0.9484 0.96783 0.0054 0.25496-0.04932 0.53144-0.04932 0.53144l-10.573-0.0045s0.037362-0.26064 0.071138-0.49079c0.061872-0.42264 0.62739-1.0046 1.3262-1.004" fill="#231f20"/>
 <path d="m20.587 10.872s2.9615-0.0069 3.918-3e-3c0.61722 3e-3 1.2371 0.29292 1.1445 1.2894-0.0278 0.29471-0.01943 0.23673-0.01943 0.23673l-5.2238-0.0045z" fill="#231f20"/>
 <path d="m9.0405 16.257 0.17157-1.4228 3.4095-3e-3 0.06247-0.62978s-2.1434 0.0048-2.4892-0.0087c-0.48511-0.01793-0.96305-0.36525-0.82855-1.2255 0.90656-0.0096 3.6594-0.0096 3.9658-0.0051 0.62171 0.0051 1.1457 0.34254 1.1038 1.1986-0.01883 0.38378-0.11239 1.1292-0.27947 1.4177-0.44715 0.77415-1.1185 0.66923-1.2452 0.6785-0.10282 0.0051-3.8707 0-3.8707 0" fill="#231f20"/>
 <path d="m19.942 12.987s-0.04902 0.28395-0.08519 0.46837c-0.07652 0.38169-0.30996 0.73977-0.85395 0.74067h-2.416l-0.28933 2.0609h-1.7506l0.41607-3.2699z" fill="#231f20"/>
 <polygon transform="translate(0 -.048128)" points="21.66 16.296 19.877 16.296 20.325 13.035 22.13 13.035" fill="#231f20"/>
 <polygon transform="translate(0 -.048128)" points="25.122 16.305 23.371 16.305 23.785 13.035 25.536 13.035" fill="#231f20"/>
 <polygon transform="translate(0 -.048128)" points="8.8307 14.265 5.9565 14.269 5.8749 14.879 8.7482 14.882 8.5782 16.314 3.9524 16.314 4.3485 13.015 8.9945 13.015" fill="#231f20"/>
</svg>
