<svg width="800" height="267.42" enable-background="new 0 0 200 70" space="preserve" version="1.0" viewBox="0 0 800 267.42" xmlns="http://www.w3.org/2000/svg">
 <link href="" rel="stylesheet" type="text/css"/>
 <style type="text/css"/>
 <path d="m748.32 240.54c-10.485 0-14.972-9.9188-14.972-20.971 0-27.279 23.387-51.371 38.416-51.371 4.2178 0 4.5397 4.7108 4.5397 6.1575 0 5.0532-1.7319 10.412-3.4027 15.559-0.60312 1.7686-1.2144 3.5902-1.7075 5.4321l-0.70499 2.3554 2.4328 0.47271c0.9332 0.21191 2.9096 0.53384 5.6807 0.53384 10.506 0 21.394-7.865 21.394-20.954 0-9.9352-10.298-16.814-25.042-16.814-30.853 0-61.477 22.438-69.97 48.294-0.79873 0.87208-1.5608 1.6708-2.1843 2.2413-15.538 15.807-23.444 25.005-32.752 28.114-3.04 1.0269-5.9293 0.49717-5.9293-2.7548 0-7.2537 7.7876-19.357 27.206-49.794l12.083-18.925 2.3391-3.7247c0 0.0204-4.3889 0.23229-4.3889 0.23229l-23.408 1.137-1.1777 0.0408-0.64387 1.0269-8.0565 12.686c-8.0932 12.751-14.075 22.156-18.371 29.602-8.8756 9.1568-24.985 23.465-34.292 26.676 2.0905-4.0466 3.2682-8.8919 3.2682-13.835 0-9.5562-4.5397-16.223-9.5928-22.76-4.4256-6.0026-8.6026-11.663-8.6026-19.341 0-7.1437 5.0124-11.59 10.905-11.59 7.1437 0 8.2073 7.0337 8.2073 9.8414 0 4.446-1.137 7.107-3.3416 11.781-1.141 2.4695-1.7116 4.3685-1.7116 4.3685s4.5397 1.956 9.3687 1.956c9.9718 0 17.535-5.1102 17.535-14.992 0-12.123-11.247-20.274-28.004-20.274-17.759 0-35.718 9.6336-35.718 27.984 0 7.6205 4.6375 13.868 9.1201 19.931l0.41974 0.59089c4.5967 5.9293 8.6637 11.814 8.6637 18.868 0 10.314-8.5496 17.266-18.656 17.266-8.7778 0-15.217-4.3318-16.529-12.596-0.79872-5.1102 1.3489-7.865 1.3489-7.865s2.3921 0.68055 4.6538 0.68055c4.2381 0 9.3076-3.1501 9.3076-10.465 0-4.9798-4.6334-10.905-11.529-10.905-10.053 0-16.626 7.8283-18.257 17.193-6.2675 6.1004-13.603 12.005-19.781 14.157 2.0742-4.0466 3.2316-8.8919 3.2316-13.835 0-9.5562-4.5397-16.223-9.5765-22.76-4.4256-6.0027-8.6433-11.663-8.6433-19.341 0-7.1437 5.0124-11.59 10.925-11.59 7.1233 0 8.1869 7.0337 8.1869 9.8414 0 4.446-1.1044 7.107-3.3049 11.781-1.1777 2.4695-1.7523 4.3685-1.7523 4.3685s4.6008 1.9561 9.3891 1.9561c9.9514 0 17.535-5.1102 17.535-14.992 0-12.123-11.268-20.274-28.021-20.274-17.743 0-35.682 9.6336-35.682 27.984 0 7.6205 4.6171 13.868 9.1201 19.931l0.37899 0.59089c4.6171 5.9293 8.6841 11.814 8.6841 18.868 0 10.314-8.5496 17.266-18.636 17.266-8.7778 0-15.257-4.3319-16.565-12.596-0.76205-5.1102 1.3652-7.865 1.3652-7.865s2.3962 0.68054 4.6742 0.68054c4.2178 0 9.3076-3.1501 9.3076-10.465 0-4.9798-4.6701-10.905-11.549-10.905-8.627 0-14.703 5.8152-17.291 13.334-11.948 11.61-25.457 23.595-29.96 23.595-1.9194 0-2.8689-1.2877-2.8689-3.8184 0-10.241 41-73.181 41-73.181l-28.84 1.6912-4.1036 6.5691c-4.3685-8.0361-10.775-11.683-20.306-11.683-25.934 0-57.545 25.368-66.494 51.241-1.8909 1.899-3.7736 3.798-5.6237 5.5829-13.069 12.918-26.692 21.374-32.715 22.609-2.983 0.5909-5.86-0.2282-5.8437-3.362 0.0774-7.1029 6.2716-17.609 17.727-35.922l81.568-139.64-30.832 1.6341-73.042 129.28c-1.0188 1.6708-1.9846 3.2886-2.8974 4.8616-16.574 9.5765-34.529 18.672-51.363 24.622 1.0921-9.3687-2.8037-24.834 0.98618-34.027 18.856-13.167 39.851-37.275 48.115-59.448 10.114-8.3581 14.98-20.253 20.384-31.651 5.1387-15.123 10.241-30.702 15.624-45.902 3.0563-3.8347 8.5007-4.7679 12.564-7.4452 5.587-5.0532 9.8618-11.17 12.682-18.142 0.38713-1.899 0.55014-3.8958-0.87616-5.3751-2.7059-2.3554 0.0204-4.882-0.98617-7.4493-0.64795-2.3554-2.6325-3.3823-4.825-4.0833-2.5103-1.3652-1.9275-6.2309-5.6807-6.345-3.1542 1.3285-6.6384-0.70092-9.1853-1.9561-2.1557-0.22821-3.362 1.7482-4.7883 2.9463-2.8607 0.1304-5.7174-0.85578-8.464 0.59089-4.0466 3.7613-6.1249 9.0794-9.2994 13.603-3.6391 5.9823 0.76205 12.005-0.8354 18.35-8.028 17.022-20.714 30.853-31.317 46.053-7.7224 10.942-9.7844 21.105-11.418 26.521-9.5358 7.543-17.649 16.321-24.337 25.836-3.4476 4.9798-4.2626 5.0532-9.3198 8.627-11.655 4.5193-24.536 14.968-31.187 23.041 0 0-4.8412-1.4263-1.9275-8.9449 2.1354-4.1444 9.7273-7.2945 12.625-10.64 6.9033-7.0826 6.8503-11.777 8.5374-20.592 1.9846-7.8283-1.9194-13.639-5.4607-19.683-3.2112-4.446-7.9424-6.7239-12.197-9.5358-11.732-4.446-20.29-2.604-26.378-1.2918-2.5266 1.3692-5.0083 2.0498-5.9945 3.5698-0.64387 0.34231-2.9137 0.87207-3.578 1.2918-2.661 1.7482-8.244 5.9864-10.29 9.3483-1.3855 2.2413-1.4793 5.1306-1.9275 6.4958-0.54199 1.7482-3.7328 2.8485-4.397 5.5299-0.98618 4.0466-0.96988 6.3083-1.6708 12.026-0.42789 3.5739-1.247 5.4525-1.6341 9.1772-0.25673 2.7181 1.2062 5.6807 5.7378 8.1502 5.045 2.657 3.8184 3.6309 4.939 10.848 0.12226 1.7278-0.67647 3.3824-1.2837 4.7312-3.2112-6.4794-8.6922-12.939-18.248-16.492-2.9708-13.415-14.332-26.293-23.46-37.027l-4.7883-9.4991c10.241-5.9456 20.661-11.19 30.661-15.123 44.235-17.458 75.109-15.6 85.928-14.687 19.141 1.5567 28.99 7.7305 29.105 26.977l23.774-37.882-5.1184-1.2918c-50.678-12.902-107.07-7.217-142.74 3.5331-11.846 3.5535-26.435 7.8446-37.198 12.996-8.1339-10.22-16.052-19.548-21.537-31.175-1.3203-6.4591 2.767-12.902-0.91283-18.904-3.1338-4.8249-3.6187-14.552-12.119-13.432-1.2266-1.0106-2.0987-3.3253-4.0466-3.2886-1.6912-0.13447-2.9178 0.64387-3.9895 1.9764-1.7482 2.1639-4.4745-0.0367-6.5161 0.91283-1.4059 0.91282-1.9479 2.4899-2.2209 4.0262-0.58682 1.5404-2.5347 1.8256-3.8184 1.8256-2.7833 1.2144-2.2046 4.177-2.5633 6.4224-2.6122 1.9764-3.741 5.3955-2.6896 8.6637 2.547 8.7208 5.1591 20.367 15.208 23.139 5.5096 2.1639 4.8616 6.4794 7.0663 10.526l7.0581 25.343c-22.332 13.224-44.533 36.134-54.081 54.525-10.176 19.569-12.103 40.389-5.5666 60.149 9.1283 27.47 35.877 49.545 76.437 56.139 87.362 14.267 164.97-25.4 206.97-53.441-5.7744 10.791-8.7289 18.464-8.7289 24.663 0 10.257 8.5985 15.938 17.12 15.938 13.994 0 31.668-9.9718 48.673-27.112-0.0163 0.43603-0.0571 0.9169-0.0571 1.3692 0 16.7 10.934 27.055 24.822 27.055 10.819 0 22.124-5.2814 32.308-15.045 0.11003 8.8552 7.2945 15.045 17.515 15.045 12.731 0 25.457-11.569 38.115-24.581 1.0636 15.424 13.847 24.581 34.724 24.581 21.089 0 39.292-9.2342 54.525-22.226 2.1272 14.018 14.63 22.226 34.463 22.226 21.431 0 43.335-11.683 60.797-26.293-0.79872 2.7955-1.1777 5.3017-1.1777 7.8854 0 10.355 7.0459 17.079 17.971 17.079 17.649 0 29.675-13.717 44.415-29.369-0.0204 0.34231-0.0204 0.66424-0.0204 0.98618 0 19.984 12.841 29.655 32.242 29.655 23.102 0 42.516-12.445 60.222-28.799l-4.3889-5.5666c-6.0556 5.314-30.013 22.067-42.418 22.067m-594.1-94.645c-0.59905-0.87615-1.4141-2.2821-1.2633-3.362 0.35046-2.4899 0.66424-4.3319 1.1492-8.8756 0.50532-4.6701 0.17116-6.1168 1.8542-9.3076 1.4141-2.7344 4.124-4.2952 4.1036-5.697 0-1.3692 0.28526-4.446 1.1899-5.6807 1.4141-1.899 2.82-2.3758 3.961-3.798 1.0188-1.2755 4.0466-4.2544 8.1788-5.6644 0.52162 0.28526 1.0066-1.6138 2.0253-1.7279 9.2872-1.3692 14.703 1.7849 18.199 6.402 3.4476 2.6407 6.6791 5.3384 2.82 13.203 0.37083 0.5909-1.3978 2.4695-1.9398 3.0767-4.6171 1.3652-3.1908-2.5836-6.6588-4.4867-3.419-3.8184-10.775-1.8216-15.265-4.067-2.9463-3.6106-7.4738-3.04-8.3296-3.0197-0.81503 0.0571-1.6138 0.52977-0.70092 2.7181 5.9008 1.141 5.4321 3.3824 4.4541 5.3221-2.4125 2.7752-6.0516 5.4688-7.9872 6.4754-1.4426 3.5168 2.062 4.1811 3.3824 6.0801 0.54199 2.0335-2.5836 1.7319-3.04 4.1974-2.6407 4.446 6.6588 5.8152 0.86392 12.71-2.1883-1.0799-3.529-2.0498-6.997-4.4989m21.309-15.428c-0.52161-0.77835-0.8354-1.9561-0.59089-2.6611 0.49309-0.79872 1.6993-2.6244 2.7629-1.4426 1.5771 1.7849 3.8754 3.6472 4.4949 6.345 0.14263 1.0229-0.15077 3.5698-1.5567 4.0303-4.1036 0.85578-3.6391-3.8795-5.1102-6.2716m3.9692 47.267c-0.62757 1.5567-2.3554 3.9895-4.9676 3.6472-0.56237-0.20783-1.6545-0.52977-3.1827-2.7344-1.463-2.0131-5.0246-10.828-5.7092-14.895-0.38714-2.4125 0.31379-3.2682 1.1125-1.9398 0.79872 1.2918 4.3237 15.102 12.319 13.717 0.65609 0.11411 1.0636 1.137 0.42788 2.2046m-31.48-106.5c-8.1339 2.3554-22.425 7.6735-44.513 19.076-0.5583-0.91283-1.1696-1.7849-1.7849-2.7344 16.9-7.9057 33.473-13.472 46.297-16.341m-89.233-13.66c-5.0083-3.9325-6.1453-10.962-0.97803-14.308 1.0351-3.3416 1.6545-5.587 3.8958-8.244-0.46456-2.1109-3.8754-1.2918-3.2112-4.2178 0.15078-1.0229 1.3407-1.9398 0.79872-3.2682-2.3758-1.6138-4.9798 1.6545-7.217-0.57052-0.76205-0.70092-2.8811-3.2275-2.3391-4.446 2.4777-0.79872 7.865-1.4793 10.355-2.2046 1.4996-1.084 3.3416 2.657 3.9529 3.5698 1.9479 4.7108 5.3303 9.8007 3.419 15.331-3.4761 7.6938 1.5974 14.418 5.1387 20.518 11.512 16.166 27.254 33.628 33.506 52.263 1.1003 3.5331 2.7915 6.838 5.0898 9.8781 11.655 11.264 21.166 24.622 26.285 39.248 0.33416-0.11003 1.6912 0.34231 2.2332 0.34231 8.7208 3.4965 11.634 6.6914 15.922 16.19 8.8063-1.6708 17.951 3.8347 17.45 4.882 3.6758 3.2479 7.3719 2.2617 7.8568 3.0197 7.1641-5.1713 12.918-4.882 21.309-7.0133 4.2178-1.463 7.9506-10.163 13.631-15.367 4.6701-4.2952 18.741-11.056 18.741-11.056-0.42382 4.7272-3.6391 11.321-8.2154 17.075-7.8935 9.9759-11.569 21.301-8.5211 28.175 2.3187 5.1672 6.4591 18.085 5.64 22.189-0.8354 6.2675-15.445 9.9718-22.095 11.471-5.8967 1.7686-14.031 2.5673-21.513 2.8485-7.7713 0.30563-9.2424-5.7744-10.705-7.865-1.6504-2.7752-3.3212-2.9259-3.0115-8.3214-0.39121-0.60719-2.4328 0.0774-3.1338 0.705-0.54199 5.5259 1.1859 3.9529 0.50531 9.9718 0.0571 2.7344-0.76204 2.6244-4.8086 3.04-6.724-0.6072-17.042-2.1272-22.523-11.06-4.283-8.3214-3.4476-12.062-4.1607-24.047-2.2617-6.3816-2.498-5.6237-6.6384-10.791-22.075-18.526-20.775-32.051-25.62-47.532-1.7075-2.8118-4.7516-4.5193-6.7321-7.1437-6.9807-7.7142-12.038-14.935-15.71-24.015l-10.542-31.802c-2.2006-3.9773-2.6488-15.339-8.0524-17.446m65.638 148.51c0.89245 6.9929 5.3099 25.518 9.654 34.313-36.599-1.8623-69.069-18.505-78.018-42.593-4.7679-12.881-5.5666-25.608-0.27711-38.718 4.9024-12.046 10.591-22.682 21.867-32.829 0.64387-0.6072 1.2633-1.1044 1.9072-1.5567l8.3499 10.868c7.4289 15.767 10.098 33.192 24.707 44.985 4.2381 5.2814 8.4559 8.0932 10.734 14.552 0.64794 6.8951-0.33009 4.4093 1.0758 10.978m-100.46 0.85578c-17.47-36.933 11.59-76.922 43.848-100.56 0.64794 1.5974 1.2837 3.1542 1.8909 4.5601-34.227 28.652-51.942 67.635-27.898 102.63 35.213 51.147 149.31 37.463 194.56 16.113l0.29341-0.0408c-72.472 37.732-186.16 33.322-212.7-22.702m289.14-182.63c1.8338-4.2544 3.9692-8.2847 6.5528-12.046 1.6138-1.8216 2.8404 0.0408 4.8249 0.1141 2.9056 1.4263 10.314 4.2748 13.252 4.4623 0.44419 0.93321-0.37084 1.899-0.50531 2.7548-1.6912 0.98618-3.4679 1.4059-5.3303 1.4996-2.3147 0.28526-4.1892-3.0971-6.4591-0.9332-0.7213 2.0498 2.8811 3.7613 0.59904 5.4321-1.5771 1.0269-5.4607-1.141-4.7231 2.0498 2.5836 3.419 3.3824 5.7948 3.8102 10.147-0.50531 2.1272-1.0921 4.6334-3.2479 5.0532-2.3188-0.8517-5.2528-4.177-6.887-5.966-1.2796-4.0222-3.1093-8.0117-1.8868-12.568m-71.918 125.46c4.6253-14.308 13.908-24.736 25.95-34.162 1.1125 1.0636 1.4833 3.8388 3.6391 3.4802 1.8053-1.8623 0.46456-4.2544 0.6561-6.4998 1.5974-17.649 12.36-30.604 21.602-43.905l9.002-12.005c-0.23636 0.17115-0.42382 0.37898-0.54199 0.57051 0 0 7.5227-13.908 9.3768-12.617 11.203 7.8283 1.6708 23.008-2.0253 34.728-2.8607 9.0834-12.991 35.584-16.557 39.215-2.8404 2.8485-5.8111 3.3416-9.7844 10.143-3.9692 6.8014-12.918 20.253-17.372 24.773-4.4378 4.5397-15.388 24.773-23.293 5.644-1.41-3.362-0.88837-8.4559-0.65201-9.3646m117.14 68.352c3.4394-18.615 21.297-35.299 21.297-35.299-20.147 26.333-24.606 52.435-9.3402 61.078 4e-3 0-16.411-1.7238-11.956-25.779m23.538 22.515c-4.3604 0-8.9286-1.7116-8.9286-14.153 0-16.875 21.631-56.921 41.371-56.921 5.6237 0 9.8007 3.4598 9.8007 9.4054 0 15.71-23.958 60.357-42.243 61.669m335.2-25.286c2.9667-20.176 19.438-32.218 19.438-32.218-20.649 22.91-21.032 53.233-5.9456 60.336-4e-3 -4e-3 -17.14-3.1949-13.493-28.118"/>
 <g fill="#ef3e33">
  <polygon transform="matrix(4.0751 0 0 4.0751 -10.037 -11.906)" points="172.76 25.775 171.35 37.192 177.48 37.192 178.88 25.775"/>
  <polygon transform="matrix(4.0751 0 0 4.0751 -10.037 -11.906)" points="160.36 25.742 158.99 37.192 165.11 37.192 166.52 25.742"/>
  <path d="m721 74.039c-0.79465-4.1036-2.604-6.9725-5.697-9.0427-4.177-2.8485-11.533-2.335-11.439-2.2821-0.0571-0.0163-56.387-0.0774-56.387-0.0774l-3.1378 22.189h76.013c0 4e-3 1.4467-6.6098 0.64795-10.787"/>
  <path d="m641.02 80.155c0-4.177 0.43603-5.4892-1.3489-9.7273-1.8012-4.3522-5.1836-5.7744-7.5064-6.7443-2.2209-0.9332-7.2945-1.0432-7.2945-1.0432h-121.09s-4.1811 0.79872-6.5202 2.0498c-3.9732 2.2413-6.2512 4.939-8.0158 8.5863-1.9031 3.8754-2.3391 11.398-2.3391 11.398l154.04 0.0163c0 4e-3 0.0774-0.39529 0.0774-4.5356"/>
  <path d="m560.7 139.66h25.457l3.2479-28.917h31.827s5.0532 0 8.4722-0.76204c3.3824-0.77835 5.1102-2.4899 7.1437-5.587 1.899-2.9626 2.5836-11.398 2.5836-11.398h-73.03z"/>
  <path d="m483.77 119.18-3.1378 20.482h53.519s8.7208 0.9495 14.438-1.9398c6.4387-3.1908 7.922-7.107 9.2138-11.284 1.3326-4.1444 3.3824-21.24 2.6244-24.622-0.79465-3.3824-2.0498-5.5462-4.6701-7.2578-2.4532-1.5974-8.0565-1.5567-8.0565-1.5567h-61.86s-0.32193 3.8958-0.19153 4.9798c0.19153 1.8623 0.59089 6.023 3.8225 8.8145 5.3017 4.5601 10.925 3.7247 10.925 3.7247h34.553l-1.0228 8.6637h-50.157z"/>
  <polygon transform="matrix(4.0751 0 0 4.0751 -10.037 -11.906)" points="102.78 37.192 119.33 37.192 119.96 32.167 109.63 32.167 109.89 30.06 120.22 30.06 120.73 25.672 104.22 25.672"/>
  <polygon transform="matrix(4.0751 0 0 4.0751 -10.037 -11.906)" points="104.5 23.701 120.98 23.701 121.69 18.292 105.17 18.292"/>
 </g>
</svg>
