<svg width="678.79" height="800" version="1.1" viewBox="0 0 678.79 800" xmlns="http://www.w3.org/2000/svg">
 <link href="" rel="stylesheet" type="text/css"/>
 <style type="text/css"/>
 <defs>
  <linearGradient id="linearGradient864" x1="999.64" x2="999.64" y1="-412.4" y2="2417.1" gradientUnits="userSpaceOnUse">
   <stop stop-color="#124A84" offset="0"/>
   <stop stop-color="#124A84" offset=".15"/>
   <stop stop-color="#6FCCDE" offset=".75"/>
   <stop stop-color="#6FCCDE" offset="1"/>
  </linearGradient>
 </defs>
 <g transform="matrix(.16795 0 0 -.16795 -.067178 800.13)">
  <path d="m525.4 422.2c-47.7-5.4-88.9-26-111.4-55.7-10.2-13.4-18.2-32.5-20.7-49.2-1.7-11.9-0.7-37.3 1.9-47.2 8.6-32.1 28-54.4 61.7-70.9 20-9.7 38.5-15.6 75.5-23.9 12.4-2.8 28.8-6.7 36.5-8.7 43-11 58.5-21.9 58.5-41.5 0-26.6-27.8-41.5-74-39.5-16.1 0.7-26 3-37.7 8.7-10 4.9-18.6 12.6-24.4 21.7-9.6 15.3-9.6 15.3-58.5 15.3-21 0-39.6-0.3-41.3-0.6-4-0.8-8.8-5.2-9.7-9-1.2-4.5 1.3-20.7 4.7-31 13.6-40.9 54.7-72 110.8-83.8 34-7.2 73.4-8.1 108.1-2.6 86.9 14 136.9 67 130.2 138.2-2.5 27.2-11.1 45.9-28.3 62.3-21.6 20.5-55.1 34.3-111.9 46-60.7 12.5-84.4 22.4-92.3 38.5-3.3 6.8-3.1 19.5 0.4 27.1 5.3 11.4 16.5 18.5 33.9 21.5 11.3 1.9 30.1 1.4 39.5-1.1 15.9-4.3 28.7-13.9 34.4-25.7 3.2-6.9 7-11.1 11.4-12.7 1.8-0.7 18.2-1.1 46.9-1.1 49 0 48.1-0.1 51.4 6.8 1.9 4 1.4 10.6-1.7 22.1-4.6 17.3-14.1 32.5-30.3 48.7-25.9 25.8-59.8 41.2-103 46.9-12.7 1.6-47.4 1.9-60.6 0.4z"/>
  <polygon points="3615.9 403.3 3615.9 418.8 3448.2 419.1 3280.4 419.3 3280.4 403.3 3280.4 387.3 3355.4 387.3 3430.4 387.3 3430.4 196.8 3430.4 6.3 3447.4 6.3 3464.4 6.3 3464.4 196.8 3464.4 387.3 3540.2 387.5 3615.9 387.8"/>
  <path d="m3686.7 417.6c0.3-1.4 152.2-387 160.2-407l1.7-4.3h15.3c11.3 0 15.4 0.3 15.8 1.3 3.8 9.6 162.1 409.6 162.4 410.5 0.4 0.9-3.4 1.2-16.9 1.2h-17.4l-60.8-154.7c-33.5-85.2-65.8-167.3-71.9-182.7-7.7-19.5-11.2-27.4-11.8-26.3-0.5 0.8-32.4 82.4-71 181.3-38.6 99-70.3 180.5-70.6 181.2-0.4 0.9-5 1.2-18 1.2-16.2 0-17.5-0.1-17-1.7z"/>
  <path d="m11.6 417.3c-4.1-1-8-4.4-9.8-8.7-1.2-2.7-1.4-35-1.4-196.5 0-193 0-193.2 2.1-197.4 1.5-3.1 3.2-4.8 6.3-6.4 4.3-2 4.4-2 147.4-1.8 142.7 0.3 143.1 0.3 145.8 2.4 1.5 1.1 3.7 3.3 4.8 4.8 2 2.6 2.1 4 2.1 34.9 0 31.7 0 32.3-2.3 35.8-4.4 7.3 1.1 6.9-107.2 6.9h-97v82l90.4 0.2 90.4 0.3 2.7 2.5c5.4 5 5.5 5.7 5.5 36.6 0 26.6-0.1 29.1-2 32.9-1.1 2.2-3.4 4.9-5.2 6-3.2 1.9-5.7 2-92.5 2.3l-89.3 0.3v78.9h95.1c105.2 0 99.4-0.4 104.2 6.4 2.1 3 2.2 3.8 2.5 34.9 0.3 30.9 0.2 31.9-1.9 35.6-1.1 2.1-3.5 4.6-5.2 5.7-3.1 1.8-7.3 1.9-142.7 2.1-76.7 0-141-0.2-142.8-0.7z"/>
  <path d="m802.6 417.3c-1.8-0.4-4.5-1.8-5.9-3.1-5.1-4.8-5.3-6.3-5.3-42.4 0-35.9 0.2-37.7 5.1-42.2 1.3-1.2 4.4-2.6 6.9-3.2 2.8-0.7 24.2-1.1 56.2-1.1h51.8l0.2-155.4 0.3-155.4 2.5-2.7c5-5.4 5.6-5.5 50.2-5.5 46 0 45.9 0 50.5 6.9l2.3 3.4v308.6l54.9 0.3c53.7 0.3 55 0.3 57.7 2.4 1.5 1.1 3.7 3.3 4.8 4.8 2 2.7 2.1 3.9 2.1 38.9 0 33.7-0.1 36.4-1.9 39.3-1 1.7-3.3 4-5 5-3 1.8-8.3 1.9-163.6 2.1-88.3 0-162-0.2-163.8-0.7z"/>
  <path d="m1230.1 416.9c-2-0.7-4.4-2-5.3-2.7-4.6-3.8-4.4 5.7-4.4-202.2v-195.4l2.3-3.4c4.6-6.9 4.5-6.9 49.7-6.9 37.8 0 40.8 0.2 44.7 2 2.5 1.1 5.1 3.3 6.3 5.2 1.9 3.2 2 4.9 2 70.6v67.2h60.5l34.5-66.7c26.8-51.8 35.4-67.6 38.7-70.9 7-7.2 8.4-7.4 56.2-7.4 38.4 0 41.9 0.1 45 1.8 4.4 2.4 7.4 7.6 6.7 12-0.3 1.8-18.8 36.2-41.2 76.3-22.3 40.2-40.5 73.2-40.3 73.4s4 2.2 8.4 4.5c30.4 15.9 51 41.7 59.8 74.8 3 11.4 3.1 12.4 3.1 34.2 0.1 24.2-0.8 30.9-6.1 47-14 41.8-49.6 70.9-100.4 81.9-24.8 5.3-25.8 5.4-124.4 5.7-76.4 0.3-92.6 0.2-95.8-1zm178.9-82.1c25.4-4.9 39.4-22.4 39.4-49.5 0-21.1-8.2-36.1-24-43.8-11.2-5.5-17.7-6.2-60.6-6.2h-38.4v101h37.9c29.4 0 39.7-0.3 45.7-1.5z"/>
  <path d="m1666.9 417.4c-4.8-1.2-7.4-3.3-9.5-7.7-2-4-2-7-2-198 0-185.8 0.1-194.1 1.8-197.4 1.2-2.2 3.5-4.4 6.2-5.7l4.4-2.3h141.7c97.7 0 142.6 0.3 144.6 1.1 5 1.8 8.1 5.8 9.3 11.6 0.8 3.5 1 15.4 0.8 33.8-0.3 26.8-0.4 28.5-2.4 31.1-1.1 1.5-3.3 3.7-4.8 4.8-2.7 2.1-3.5 2.1-101.2 2.4l-98.4 0.2v82h178.7l3.4 2.3c6.8 4.5 7 5.7 6.7 38.9-0.3 28.2-0.4 29.8-2.4 32.4-1.1 1.5-3.3 3.7-4.8 4.8-2.7 2.1-3.6 2.1-92.2 2.4l-89.4 0.3v78.9h95c94.1 0 95.1 0 99.1 2.1 3 1.5 4.6 3.2 6 6.5 1.9 4.1 2 6.4 1.7 35.3-0.3 29.5-0.4 31.1-2.4 33.7-1.1 1.5-3.3 3.7-4.8 4.8-2.7 2.1-3 2.1-142.4 2.3-76.8 0-141-0.2-142.7-0.6z"/>
  <path d="m2071.3 417.4c-4.4-1.4-7.7-4.1-9.3-7.6-1.4-3-1.6-22.3-1.6-197.7 0-219.5-0.8-199.1 8-203.6l4.5-2.2 138.7 0.2c138.3 0.3 138.7 0.3 141.4 2.4 1.5 1.1 3.7 3.3 4.8 4.8 2 2.6 2.1 4.3 2.4 33.4 0.3 20.2 0 32.4-0.8 35.8-1.2 5.5-4.5 9.5-9.3 11.3-1.9 0.8-31.7 1.1-92.8 1.1h-89.9l-0.2 156.4c-0.3 156.3-0.3 156.5-2.4 159.2-1.1 1.5-3.3 3.7-4.8 4.8-2.7 2-4 2.1-44.4 2.3-22.9 0.1-42.9-0.2-44.3-0.6z"/>
  <path d="m2451.6 417.3c-4.1-1-8-4.5-9.8-8.7-1.2-2.7-1.4-35-1.4-196.5 0-186.5 0.1-193.4 1.9-197.4 1.4-3.1 3-4.7 6.3-6.3l4.4-2.1h137.4c136.7 0 137.4 0 141.6 2.1 3.1 1.5 4.8 3.2 6.3 6.3 2 4 2.1 6 2.1 36.1s-0.1 32.1-2.1 36.1c-1.5 3.1-3.2 4.8-6.3 6.3-4.2 2.1-5.4 2.1-94.4 2.1h-90.2v155.2c0 152.6 0 155.2-2 159.3-1.1 2.2-3.4 4.9-5.2 6-3.1 1.9-5.4 2-44.3 2.2-22.5 0.1-42.5-0.2-44.3-0.7z"/>
  <path d="m2940 417.2c-5.1-1.2-9.6-4-12.3-7.8-3.5-4.6-142.3-384.7-142.5-389.8-0.1-5 2-8.6 6.5-11.3 3-1.9 5.3-2 41.5-2 25.7 0 39.8 0.4 42.9 1.2 8.9 2.2 10.3 4.6 23.3 39.8l11.7 31.5 78 0.3c61.7 0.2 78.2-0.1 79-1 0.5-0.7 6.1-14.8 12.4-31.2 6.2-16.5 12.3-31.3 13.4-32.9 1.1-1.7 3.8-4 6-5.1 3.8-2 5.7-2.1 44-2.4 36.6-0.2 40.3-0.1 43.4 1.5 4.7 2.4 7.5 6.6 7.4 10.7-0.1 4.7-138.7 385.1-142.1 390-1.6 2.4-4.7 5-7.7 6.5l-4.9 2.6-48.1 0.2c-27.2 0.1-49.7-0.3-51.9-0.8zm76.8-174.5c14.5-41.2 26.7-75.9 27-77.1l0.7-2.3h-54.6c-43.4 0-54.6 0.3-54.3 1.3 0.3 0.6 12.6 35.5 27.3 77.4 14.8 42 27 76.1 27.2 76 0.2-0.2 12.2-34.1 26.7-75.3z"/>
 </g>
 <g transform="matrix(.33953 0 0 -.33953 -.30217 679.09)" fill="url(#linearGradient864)">
  <g fill="url(#linearGradient864)">
   <g fill="url(#linearGradient864)">
    <g fill="url(#linearGradient864)">
     <path d="m909.95 1996.1-40.651-190.93c-71.75-336.79-335.7-600.74-672.52-672.49l-191.76-40.817c-2.7212-30.072-4.1373-60.56-4.1373-91.353 0-29.516 1.305-58.755 3.8041-87.632l192.09-40.873c336.81-71.722 600.77-335.7 672.52-672.46l41.04-192.81 0.38874-1.8326c29.572-2.6379 59.532-3.9984 89.771-3.9984 29.627 0 58.977 1.305 87.938 3.8318l0.4998 2.3324h0.056l41.011 192.48c71.722 336.76 335.67 600.74 672.43 672.46l190.45 40.54v0.0555l3.4709 0.74971c2.499 28.739 3.7485 57.783 3.7485 87.16 0 30.682-1.3605 61.032-4.0817 90.992l-3.1377 0.6664-190.45 40.512c-336.76 71.75-600.71 335.7-672.43 672.49l-40.706 191.06c-29.266 2.5823-58.866 3.8873-88.799 3.8873-30.516 0-60.726-1.3605-90.548-4.0262m-410.12-993.75c249.87 53.202 446.6 249.93 499.81 499.8 53.201-249.87 249.93-446.6 499.81-499.8-249.87-53.201-446.6-249.93-499.81-499.8-53.201 249.87-249.93 446.6-499.81 499.8" fill="url(#linearGradient864)"/>
    </g>
   </g>
  </g>
 </g>
</svg>
