<svg width="671.89" height="800" version="1.1" viewBox="0 0 671.89 800" xmlns="http://www.w3.org/2000/svg">
 <g fill-rule="evenodd">
  <path d="m189.18 231.99c-19.012 46.326-21.418 98.428-8.784 147.88l-173.15-128.03c-6.618-4.9334-8.062-9.3856-6.8587-13.116 2.1659-7.34 9.3856-6.8587 15.883-6.8587z" fill="#0089cc"/>
  <path d="m475.68 269.42c-15.763-41.995-52.824-71.836-103.24-71.836-50.417 0-87.479 29.841-103.36 71.836z" fill="#2dbcb5"/>
  <path d="m377.85 117.56-32.97-104.57c-1.8048-5.7757-3.4895-12.995-10.95-12.995-4.2115 0-7.701 2.0456-10.469 10.108l-42.235 126.1c15.763-7.8213 34.654-13.838 55.351-16.846 14.319-2.1659 28.277-2.6472 41.273-1.8049" fill="#ea312e"/>
  <path d="m570.74 317.06 84.83-64.015c4.9351-3.7302 10.711-7.4604 8.423-14.56-1.3236-3.9708-4.6928-6.7384-13.116-6.7384l-97.827-0.12036c11.312 27.314 16.726 55.953 17.69 85.433" fill="#f89c1c"/>
  <path d="m195.2 415.98-68.467 205.76c-2.0456 6.2554-4.8131 12.994 1.4439 17.326 3.2489 2.2863 8.062 2.5285 14.68-2.4066l170.87-127.43c-51.26-13.96-93.495-48.013-118.52-93.136z" fill="#48b648"/>
  <path d="m541.14 622.34c2.0456 6.257 4.8148 12.994-1.5644 17.327-3.2488 2.2863-8.062 2.527-14.68-2.4049l-161-121.17c36.219 1.9252 94.82-4.8131 131.04-32.248z" fill="#ffde04"/>
  <path d="m373.16 432.7c59.44 0.36109 87.479-30.563 161-87.841h-269.66c9.7466 53.427 49.214 87.48 108.66 87.841" fill="#91459a"/>
 </g>
 <g fill="#fff" fill-rule="evenodd">
  <path d="m46.613 764.87h-21.851c0.80386 5.4967 3.2171 9.922 7.2397 13.137 3.7519 3.2171 8.7121 4.8265 14.612 4.8265v17.162c-11.933-0.13537-21.718-3.889-29.225-11.53-7.6425-7.6425-11.53-17.294-11.53-28.824 0-11.934 3.8873-21.721 11.53-29.494 7.6408-7.9116 17.158-11.799 28.69-11.799h0.5348v16.49c-5.2276 0.13242-9.9204 1.6094-13.943 4.5574-2.5469 2.012-4.9602 5.363-7.1044 10.054h21.047zm0 17.964h0.40275c7.2397 0 13.54-2.547 18.77-7.6408l16.221 7.7745c-4.0226 5.7657-8.9828 10.056-14.613 12.872-5.6304 2.816-12.466 4.1563-20.244 4.1563h-0.53647zm40.622-17.964h-40.622v-15.419h21.183c-1.3403-4.2884-3.8873-7.7729-7.6408-10.454-3.7552-2.8177-8.179-4.158-13.139-4.158h-0.40275v-16.49c11.933 0.13243 21.719 4.021 29.091 11.799 7.6425 7.7728 11.531 18.098 11.531 30.968z"/>
  <path d="m147.56 731.22-12.066 12.066c-4.9602-4.8265-9.3839-7.2398-13.407-7.2398-2.1442 0-3.8873 0.40287-5.0956 1.3404-1.205 0.93758-1.8768 2.1459-1.8768 3.4845 0 1.0729 0.40443 2.0123 1.2083 2.8177 0.80385 0.93581 2.6823 2.1459 5.764 3.6182l7.1044 3.6199c7.6425 3.7536 12.736 7.5071 15.552 11.396 2.816 3.7536 4.1563 8.311 4.1563 13.54 0 6.837-2.4132 12.603-7.5071 17.296-5.0956 4.5558-11.933 6.8353-20.377 6.8353-11.398 0-20.379-4.4238-27.216-13.271l12.065-13.004c2.2812 2.6791 4.9619 4.8232 8.0436 6.4326 3.0834 1.6077 5.7657 2.4166 8.179 2.4166 2.5486 0 4.5591-0.53824 6.1668-1.8784 1.6094-1.2066 2.4132-2.547 2.4132-4.158 0-3.0801-2.8144-6.0315-8.5801-8.8475l-6.5679-3.2157c-12.469-6.4376-18.77-14.346-18.77-23.865 0-6.0315 2.4116-11.396 7.1044-15.686s10.726-6.5679 18.099-6.5679c5.0939 0 9.7867 1.2066 14.21 3.3508 4.5591 2.2777 8.311 5.3629 11.396 9.5193"/>
  <polygon transform="matrix(29.428 0 0 29.428 -.000513 -1.6701)" points="5.7297 24.54 5.7297 23.57 6.3902 23.57 6.3902 24.54 6.782 24.54 6.782 25.11 6.3902 25.11 6.3902 27.182 5.7297 27.182 5.7297 25.11 5.3925 25.11 5.3925 24.54"/>
  <path d="m210.98 720.5h16.624v9.7867c1.8768-3.7552 4.2917-6.7016 7.2398-8.7138 3.0834-2.012 6.3005-3.0834 9.9204-3.0834 2.4132 0 5.0939 0.67007 7.9099 2.0105l-6.0331 16.757c-2.4132-1.0712-4.29-1.6094-5.7641-1.6094-2.9497 0-5.4966 1.8784-7.5088 5.4983-2.1442 3.7552-3.0834 10.993-3.0834 21.853v35.258h-19.304z"/>
  <path d="m294.63 764.87h-21.985c0.93754 5.4967 3.3508 9.922 7.3734 13.137 3.7519 3.2171 8.7138 4.8265 14.612 4.8265v17.162c-11.931-0.13537-21.718-3.889-29.226-11.53-7.6408-7.6425-11.528-17.294-11.528-28.824 0-11.934 3.8873-21.721 11.394-29.494 7.6425-7.9116 17.295-11.799 28.825-11.799h0.53476v16.49c-5.2277 0.13242-9.9205 1.6094-13.943 4.5574-2.5453 2.012-4.9585 5.363-7.1044 10.054h21.047zm0 17.964h0.40287c7.2414 0 13.542-2.547 18.77-7.6408l16.356 7.7745c-4.0226 5.7657-8.9812 10.056-14.747 12.872-5.6304 2.816-12.469 4.1563-20.244 4.1563h-0.53823zm40.622-17.964h-40.622v-15.419h21.183c-1.3386-4.2884-3.8873-7.7729-7.6408-10.454-3.7536-2.8177-8.179-4.158-13.139-4.158h-0.40287v-16.49c11.933 0.13243 21.721 4.021 29.226 11.799 7.6425 7.7728 11.53 18.098 11.53 30.968z"/>
  <polygon transform="matrix(29.428 0 0 29.428 -.000513 -1.6701)" points="11.898 23.524 11.898 27.182 12.559 27.182 12.559 23.524"/>
  <polygon transform="matrix(29.428 0 0 29.428 -.000513 -1.6701)" points="13.128 23.524 13.128 27.182 13.789 27.182 13.789 23.524"/>
  <path d="m461.81 799.87c-1.0747 0.13243-2.2813 0.13243-3.6215 0.13243-9.922 0-18.634-3.8873-26.008-11.664-7.3751-7.7762-10.995-17.429-10.995-28.959 0-12.065 3.6199-21.851 10.591-29.494 7.106-7.6408 15.82-11.528 25.877-11.528 1.474 0 2.8127 0.13243 4.1563 0.2678v17.697h-0.13537c-6.0331 0-10.993 2.1459-15.016 6.4342-4.0226 4.2917-6.0331 9.7883-6.0331 16.355 0 6.705 2.0105 12.203 6.0331 16.627 4.1563 4.29 9.1165 6.4342 15.151 6.4342zm20.376-79.502h19.438v77.625h-19.438v-8.1806c-3.8873 3.6199-7.6408 6.1702-11.53 7.7779-2.6824 1.2066-5.6287 1.8766-8.8458 2.2795v-17.697c6.1635 0 11.259-2.1441 15.146-6.4342 4.1563-4.158 6.1685-9.7884 6.1685-16.627 0-6.837-2.012-12.334-6.1685-16.49-3.8873-4.153-8.9828-6.1635-15.146-6.2988v-17.697c3.2171 0.40287 6.1635 1.2051 8.9795 2.4131 4.1546 1.743 7.9099 4.4238 11.396 7.9066z"/>
  <polygon transform="matrix(29.428 0 0 29.428 -.000513 -1.6701)" points="18.745 24.28 18.745 27.182 18.057 27.182 18.057 24.28 17.424 24.28 17.424 23.611 19.397 23.611 19.397 24.28"/>
  <polygon transform="matrix(29.428 0 0 29.428 -.000513 -1.6701)" points="22.832 23.611 21.547 27.182 20.891 27.182 19.629 23.611 20.331 23.611 21.223 26.148 22.135 23.611"/>
 </g>
</svg>
