<svg width="670.29" height="242.4" version="1.1" viewBox="0 0 628.4 227.25" xmlns="http://www.w3.org/2000/svg">
 <g transform="translate(-50.319 -477.22)">
  <path d="m117.38 704.47v-86.195h72.824v-48.276h-72.824v-37.948h84.527v-54.508h-151.59v226.93z" fill="#fff"/>
  <path d="m282.74 648.05h86.751v56.41h-156.65v-226.9h69.898z" fill="#2a98db"/>
  <path d="m448.75 477.55h77.096v-0.32184h-83.035v0.32184h5.5006v226.93h1.9018l73.556-115.28z" fill="#2a98db" fill-rule="evenodd"/>
  <path d="m442.82 477.55h-62.847v226.93h68.348v-226.93z" fill="#fff" fill-rule="evenodd"/>
  <path d="m601.27 580.53 61.501-102.99h-62.847l-35.724 55.24-33.676-55.24h-81.777l75.048 111.68-73.585 115.25h64.076l41.986-67.411 45.263 67.089h77.184z" fill="#fff" fill-rule="evenodd"/>
  <path d="m414.41 542.03c15.156 0 27.386-12.23 27.386-27.415 0-15.156-12.23-27.474-27.386-27.474s-27.444 12.318-27.444 27.474c0 15.185 12.289 27.415 27.444 27.415" fill="#221e1f"/>
 </g>
</svg>
