<svg width="612" height="310.26" version="1.1" viewBox="0 0 612 310.26" xml:space="preserve" xmlns="http://www.w3.org/2000/svg">
<g transform="matrix(1.6895 0 0 1.6895 -219.3 -470.12)" fill="#00ffc5"><path class="st0" d="m489.1 382.7-101-101.5c-2.9-2.9-7.2-3.7-10.9-2.2-3.7 1.6-6.2 5.2-6.2 9.3v77.1l-83.7-84.2c-2.9-2.9-7.2-3.7-10.9-2.2-3.7 1.6-6.2 5.2-6.2 9.3v44.8h-120.4v-34.1h89.9c5.5 0 10-4.5 10-10.1s-4.5-10.1-10-10.1h-99.9c-5.5 0-10 4.5-10 10.1v100.7c0 5.6 4.5 10.1 10 10.1s10-4.5 10-10.1v-36.4h130.5c0.7 0 1.4-0.1 2-0.2 4.6-0.9 8-5 8-9.9v-30.6l83.6 84.1 0.1 0.1c1.8 1.8 4.3 2.9 7.1 2.9 5.5 0 10-4.5 10-10.1v-77.1l83.9 84.4c2 2 4.5 2.9 7.1 2.9s5.1-1 7.1-2.9c3.8-3.8 3.8-10.1-0.1-14.1z"/>
	<path d="m150.7 421.5c1.1 0 2.1 1.1 2.1 2.2s-1 2.1-2.1 2.1h-15.7v12.2h14.5c1.1 0 2.1 1 2.1 2.1 0 1-1 2.1-2.1 2.1h-14.4v18.5h-4.4v-39.3h20z"/>
	<path d="m188.6 420.6c1.2 0 2.2 0.9 2.2 2.2v27.9c0 3.6-2.4 10.6-11.4 10.6-8.8 0-11-7-11-10.6v-27.9c0-1.3 0.8-2.2 2.1-2.2 1.1 0 2.2 0.9 2.2 2.2v27.9c0 5.4 4.7 6.3 6.8 6.3s6.8-0.9 6.8-6.3v-27.9c0.2-1.3 1.1-2.2 2.3-2.2z"/>
	<path d="m217.3 425.4c-3.1 0-6.5 1.5-6.5 5.1 0 2.6 1.4 4 3.4 5.2l9.2 5.4c3.7 2.2 5.8 5.7 5.8 10.1 0 6.3-5 10.2-11.8 10.2-7 0-11.3-4.8-11.3-10.6 0-1.1 0.9-2.1 2.1-2.1 1.1 0 2.1 1 2.1 2.1 0 4.1 3.1 6.2 7 6.2 4.5 0 7.5-2 7.5-5.7 0-3.1-1.5-5.1-3.9-6.6l-9.2-5.4c-3.1-1.9-5.2-5-5.2-8.9 0-5.5 4.4-9.5 10.9-9.5 6.7 0 11.3 4 11.3 10.1 0 1.1-1.1 2.1-2.1 2.1-1.1 0-2.2-0.8-2.2-2.1-0.2-3.4-3.2-5.6-7.1-5.6z"/>
	<path d="m250.2 456.5h15.7c1.1 0 2.1 1.1 2.1 2.2s-1 2.1-2.1 2.1h-20.1v-39.3h20.1c1.1 0 2.1 1.1 2.1 2.2s-1 2.1-2.1 2.1h-15.7v12.1h14.4c1.1 0 2.1 1 2.1 2.1 0 1-1 2.1-2.1 2.1h-14.4z"/>
	<path d="m330.1 428.8-7.1 20h-3.8l-7.1-20v30.8c0 1.2-1 2.3-2.1 2.3-1.2 0-2.3-1.1-2.3-2.3v-38.1h6.5l7 19.8 7-19.8h6.5v38.1c0 1.2-1 2.3-2.3 2.3-1.1 0-2.1-1.1-2.1-2.3v-30.8z"/>
	<path d="m372.2 420.6c1.2 0 2.2 0.9 2.2 2.2v27.9c0 3.6-2.4 10.6-11.4 10.6-8.8 0-11-7-11-10.6v-27.9c0-1.3 0.8-2.2 2.1-2.2 1.1 0 2.2 0.9 2.2 2.2v27.9c0 5.4 4.8 6.3 6.8 6.3s6.8-0.9 6.8-6.3v-27.9c0.2-1.3 1.1-2.2 2.3-2.2z"/>
	<path d="m402.4 425.4c-3.1 0-6.5 1.5-6.5 5.1 0 2.6 1.4 4 3.4 5.2l9.2 5.4c3.7 2.2 5.8 5.7 5.8 10.1 0 6.3-5 10.2-11.8 10.2-7 0-11.3-4.8-11.3-10.6 0-1.1 0.9-2.1 2.1-2.1 1.1 0 2.1 1 2.1 2.1 0 4.1 3.1 6.2 7 6.2 4.5 0 7.5-2 7.5-5.7 0-3.1-1.5-5.1-3.9-6.6l-9.2-5.4c-3.1-1.9-5.2-5-5.2-8.9 0-5.5 4.4-9.5 10.9-9.5 6.7 0 11.3 4 11.3 10.1 0 1.1-1.1 2.1-2.1 2.1-1.1 0-2.2-0.8-2.2-2.1-0.2-3.4-3.2-5.6-7.1-5.6z"/>
	<path d="m434.1 421.5h15.7c1.1 0 2.1 1.1 2.1 2.3s-1 2.1-2.1 2.1h-5.8v30.6h5.8c1.1 0 2.1 1.1 2.1 2.3s-1 2.1-2.1 2.1h-15.7c-1.2 0-2.1-0.8-2.1-2.1 0-1.2 0.8-2.3 2.1-2.3h5.8v-30.6h-5.8c-1.2 0-2.1-0.8-2.1-2.1 0-1.2 0.9-2.3 2.1-2.3z"/>
	<path d="m488.8 448.4c1.2 0 2.2 1.1 2.2 2.2 0 3.7-2.3 10.7-11.3 10.7-8.8 0-11-7-11-10.6v-19.1c0-3.4 2.3-10.5 11.2-10.5 8.5 0 11 6.7 11 10.5 0 1.2-1 2.1-2.1 2.1-1.2 0-2.1-0.8-2.1-2.1-0.1-5.3-4.7-6.2-6.7-6.2-2.1 0-6.8 0.9-6.8 6.3v18.9c0 5.4 4.7 6.3 6.8 6.3s6.7-0.9 6.7-6.3c0-1.1 0.9-2.2 2.1-2.2z"/>
</g>
</svg>
