<svg width="575.12pt" height="575.17pt" version="1.1" viewBox="0 0 575.12 575.17" xmlns="http://www.w3.org/2000/svg">
 <g transform="translate(-25.99 -17.871)" fill="#fff">
  <path d="m312 242c23.68-0.01 47.37 0.02 71.05-0.01 14.56-0.54 30.79 3.95 39.22 16.7 6.61 10.07 7.03 23.34 2.85 34.43-2.82 7.64-8.76 14.1-16.4 17.07 8.45 3.36 13.92 11.4 16.47 19.84 4.17 12.64 1.17 26.58 6.3 38.98-12.91-0.03-25.83 0.01-38.74-0.02-2.13-7.45-2.81-15.18-3.45-22.87-0.58-5.47-1.23-11.29-4.48-15.9-2.65-3.76-7.37-5.56-11.85-5.47-7.32-0.01-14.64 0.01-21.96 0.01-0.02 14.74 0 29.49-0.01 44.24h-39v-127m39 30c0 8.59-0.02 17.18 0.02 25.76 9.81-0.41 19.8 0.98 29.47-1.14 6.51-1.4 9.62-8.64 8.17-14.74-0.58-5.28-5.71-8.43-10.57-9.07-8.96-1.36-18.06-0.62-27.09-0.81z"/>
  <path d="m74.76 242.51c32.49-0.01 64.99-0.02 97.48 0 0 10.75 0.04 21.5-0.02 32.25-19.57-0.01-39.14-0.01-58.71 0-0.01 5.33-0.05 10.67 0.03 16.01 16.82-0.04 33.64-0.01 50.45-0.01 0.01 10 0.02 20 0 30-16.81-0.04-33.61 0.03-50.41-0.04-0.19 16.09-0.02 32.18-0.09 48.28-12.91 0-25.82 0.01-38.73-0.01-0.01-42.16-0.01-84.32 0-126.48z"/>
  <path d="m227.43 243.55c16.95-2.89 35.39 0.27 49.36 10.65 11.36 8.37 19.09 21.15 22.1 34.86 4.23 18.9 1.53 39.9-9.71 55.97-7.93 11.4-20.28 19.43-33.77 22.52-17.31 4.01-36.5 1.62-51.41-8.38-12.98-8.62-21.58-22.92-24.52-38.09-3.41-17.33-1.12-36.22 8.27-51.39 8.53-14.02 23.54-23.59 39.68-26.14m5 30.08c-5.57 1.67-10.14 5.84-12.84 10.94-4.19 7.75-4.65 16.83-4.33 25.46 0.41 8.04 2.42 16.57 8.14 22.56 5.08 5.58 13.23 7.93 20.56 6.36 6.56-1.24 12.21-5.8 15.26-11.68 3.92-7.42 4.63-16.06 4.36-24.31-0.32-8.36-2.26-17.19-8.06-23.54-5.72-6.19-15.13-8.51-23.09-5.79z"/>
  <path d="m486.19 243.31c16.49-2.45 34.26 0.78 47.8 10.85 11.61 8.51 19.39 21.61 22.34 35.61 3.72 17.66 1.52 37.01-8.07 52.51-7.74 12.66-20.76 21.79-35.16 25.19-17.29 4.08-36.48 1.83-51.46-8.06-12.93-8.41-21.58-22.44-24.7-37.41-3.49-16.62-1.71-34.66 6.53-49.66 8.45-15.88 24.99-26.69 42.72-29.03m4.99 29.88c-5.25 1.25-9.94 4.57-12.91 9.07-5.26 7.81-6.09 17.6-5.77 26.77 0.28 8.97 2.55 18.76 9.57 24.92 9.1 8.53 25.32 6.77 32.4-3.48 5.15-6.99 6.34-15.96 6.48-24.41-0.08-8.96-1.49-18.54-7.33-25.7-5.28-6.46-14.4-9.3-22.44-7.17z"/>
  <path d="m433 384c6.92 0 13.84-0.01 20.76 0.01 0 5.49-0.02 10.98 0 16.48 10.47 0.04 20.93-0.04 31.39 0.04 2.77 10.82 5.41 21.68 8.39 32.45 2.64-10.86 5.64-21.63 8.33-32.47 7.08-0.02 14.16-0.02 21.24 0-5.98 17.99-11.84 36.03-17.92 53.99h-24.31c-4.54-13.73-9.06-27.47-13.51-41.23-4.54-0.04-9.07-0.02-13.6-0.02-0.03 6.26-0.01 12.51-0.03 18.77 0.05 2.14-0.04 4.98 2.2 6.11 2.66 1.31 5.72 0.68 8.56 0.55 0 5.26 0.01 10.51 0 15.77-7.97-0.08-16.29 1.93-23.97-1.05-4.94-1.89-7.43-7.29-7.5-12.31-0.1-9.28 0.02-18.57-0.04-27.85-3.66 0.01-7.32 0.01-10.98 0.01-0.02-4.26-0.04-8.52 0.04-12.78 3.65 0.04 7.3 0.03 10.95 0.02 0-5.5-0.01-10.99 0-16.49z"/>
 </g>
 <g transform="translate(-25.99 -17.871)" fill="#3f96ff">
  <path d="m287.99 18.98c51.21-4.49 103.65 4.67 149.96 27.11 37.56 18 71.1 44.31 97.56 76.47 24.35 29.47 42.73 63.85 53.66 100.48 11.12 37.08 14.37 76.41 10.17 114.86-4.38 39.48-17.12 78-37.16 112.3-34.11 58.86-89.77 104.85-154.1 127.05-31.13 10.79-64.14 16.3-97.1 15.75h-284.98c-0.01-98.33 0.01-196.67-0.01-295 1.06-47.79 14.44-95.23 38.46-136.57 22.17-38.28 53.27-71.38 90.18-95.77 39.61-26.41 85.93-42.61 133.36-46.68m24.01 223.02v127h39c0.01-14.75-0.01-29.5 0.01-44.24 7.32 0 14.64-0.02 21.96-0.01 4.48-0.09 9.2 1.71 11.85 5.47 3.25 4.61 3.9 10.43 4.48 15.9 0.64 7.69 1.32 15.42 3.45 22.87 12.91 0.03 25.83-0.01 38.74 0.02-5.13-12.4-2.13-26.34-6.3-38.98-2.55-8.44-8.02-16.48-16.47-19.84 7.64-2.97 13.58-9.43 16.4-17.07 4.18-11.09 3.76-24.36-2.85-34.43-8.43-12.75-24.66-17.24-39.22-16.7-23.68 0.03-47.37 0-71.05 0.01m-237.24 0.51c-0.01 42.16-0.01 84.32 0 126.48 12.91 0.02 25.82 0.01 38.73 0.01 0.07-16.1-0.1-32.19 0.09-48.28 16.8 0.07 33.6 0 50.41 0.04 0.02-10 0.01-20 0-30-16.81 0-33.63-0.03-50.45 0.01-0.08-5.34-0.04-10.68-0.03-16.01 19.57-0.01 39.14-0.01 58.71 0 0.06-10.75 0.02-21.5 0.02-32.25-32.49-0.02-64.99-0.01-97.48 0m152.67 1.04c-16.14 2.55-31.15 12.12-39.68 26.14-9.39 15.17-11.68 34.06-8.27 51.39 2.94 15.17 11.54 29.47 24.52 38.09 14.91 10 34.1 12.39 51.41 8.38 13.49-3.09 25.84-11.12 33.77-22.52 11.24-16.07 13.94-37.07 9.71-55.97-3.01-13.71-10.74-26.49-22.1-34.86-13.97-10.38-32.41-13.54-49.36-10.65m258.76-0.24c-17.73 2.34-34.27 13.15-42.72 29.03-8.24 15-10.02 33.04-6.53 49.66 3.12 14.97 11.77 29 24.7 37.41 14.98 9.89 34.17 12.14 51.46 8.06 14.4-3.4 27.42-12.53 35.16-25.19 9.59-15.5 11.79-34.85 8.07-52.51-2.95-14-10.73-27.1-22.34-35.61-13.54-10.07-31.31-13.3-47.8-10.85m-53.19 140.69c-0.01 5.5 0 10.99 0 16.49-3.65 0.01-7.3 0.02-10.95-0.02-0.08 4.26-0.06 8.52-0.04 12.78 3.66 0 7.32 0 10.98-0.01 0.06 9.28-0.06 18.57 0.04 27.85 0.07 5.02 2.56 10.42 7.5 12.31 7.68 2.98 16 0.97 23.97 1.05 0.01-5.26 0-10.51 0-15.77-2.84 0.13-5.9 0.76-8.56-0.55-2.24-1.13-2.15-3.97-2.2-6.11 0.02-6.26 0-12.51 0.03-18.77 4.53 0 9.06-0.02 13.6 0.02 4.45 13.76 8.97 27.5 13.51 41.23h24.31c6.08-17.96 11.94-36 17.92-53.99-7.08-0.02-14.16-0.02-21.24 0-2.69 10.84-5.69 21.61-8.33 32.47-2.98-10.77-5.62-21.63-8.39-32.45-10.46-0.08-20.92 0-31.39-0.04-0.02-5.5 0-10.99 0-16.48-6.92-0.02-13.84-0.01-20.76-0.01z"/>
  <path d="m351 272c9.03 0.19 18.13-0.55 27.09 0.81 4.86 0.64 9.99 3.79 10.57 9.07 1.45 6.1-1.66 13.34-8.17 14.74-9.67 2.12-19.66 0.73-29.47 1.14-0.04-8.58-0.02-17.17-0.02-25.76z"/>
  <path d="m232.43 273.63c7.96-2.72 17.37-0.4 23.09 5.79 5.8 6.35 7.74 15.18 8.06 23.54 0.27 8.25-0.44 16.89-4.36 24.31-3.05 5.88-8.7 10.44-15.26 11.68-7.33 1.57-15.48-0.78-20.56-6.36-5.72-5.99-7.73-14.52-8.14-22.56-0.32-8.63 0.14-17.71 4.33-25.46 2.7-5.1 7.27-9.27 12.84-10.94z"/>
  <path d="m491.18 273.19c8.04-2.13 17.16 0.71 22.44 7.17 5.84 7.16 7.25 16.74 7.33 25.7-0.14 8.45-1.33 17.42-6.48 24.41-7.08 10.25-23.3 12.01-32.4 3.48-7.02-6.16-9.29-15.95-9.57-24.92-0.32-9.17 0.51-18.96 5.77-26.77 2.97-4.5 7.66-7.82 12.91-9.07z"/>
 </g>
</svg>
