<svg width="333.5" height="132.59" version="1.1" viewBox="0 0 333.5 132.59" xmlns="http://www.w3.org/2000/svg" xmlns:xlink="http://www.w3.org/1999/xlink">
 <defs>
  <radialGradient id="radialGradient10310" cx="612.99" cy="-888.92" r="1935" gradientTransform="matrix(.0060104 2.8763 -1.0207 .002314 -298.03 -1785.4)" gradientUnits="userSpaceOnUse">
   <stop stop-color="#fff" stop-opacity="0" offset="0"/>
   <stop stop-color="#e5e9f1" offset=".68156"/>
   <stop stop-color="#c2cbdd" offset="1"/>
  </radialGradient>
  <radialGradient id="radialGradient10312" cx="586.64" cy="-1173.2" r="1443.5" gradientTransform="matrix(-.0055236 .8865 -1.1853 -.0073853 -779.7 -776.97)" gradientUnits="userSpaceOnUse">
   <stop stop-color="#4372a1" offset="0"/>
   <stop stop-color="#002c55" offset="1"/>
  </radialGradient>
  <linearGradient id="linearGradient10318" x1="-1632" x2="-482.45" y1="83.693" y2="-621.14" gradientUnits="userSpaceOnUse" xlink:href="#linearGradient10151"/>
  <linearGradient id="linearGradient10151">
   <stop stop-color="#32608f" offset="0"/>
   <stop stop-color="#245583" offset=".2"/>
   <stop stop-color="#154976" offset=".4"/>
   <stop stop-color="#083f69" offset=".60313"/>
   <stop stop-color="#01335d" offset=".8"/>
   <stop stop-color="#002c55" offset="1"/>
  </linearGradient>
  <linearGradient id="linearGradient10320" x1="2938.5" x2="1802.2" y1="64.735" y2="-621.25" gradientUnits="userSpaceOnUse" xlink:href="#linearGradient10151"/>
  <radialGradient id="radialGradient10322" cx="725.13" cy="2490.1" r="1462.8" gradientTransform="matrix(-.96721 .0036439 -.002816 -.74747 1326.9 2330)" gradientUnits="userSpaceOnUse">
   <stop stop-color="#4372a1" offset="0"/>
   <stop stop-color="#113d68" offset=".74586"/>
   <stop stop-color="#002c55" offset="1"/>
  </radialGradient>
  <radialGradient id="radialGradient10326" cx="725.13" cy="2490.1" r="1462.8" gradientTransform="matrix(-.96721 .0036439 -.002816 -.74747 1326.9 2330)" gradientUnits="userSpaceOnUse">
   <stop stop-color="#4372a1" offset="0"/>
   <stop stop-color="#113d68" offset=".65811"/>
   <stop stop-color="#002c55" offset="1"/>
  </radialGradient>
 </defs>
 <g transform="translate(-4.0002 -197.28)" fill="#fff" fill-rule="evenodd">
  <path transform="translate(4,197)" d="m9.8702 116.44 1.0529-6.0113h8.6312l1.0076-5.7662h-15.628l-4.9335 28.217h6.9956l1.8747-10.716h7.7329l1.0014-5.724z"/>
  <path d="m30.171 303.05-4.3804 3.7629-3.3838 19.341 3.0729 3.7239h10.967l4.4148-3.7239 3.3806-19.341-3.1057-3.7629zm-0.65144 20.57 2.5027-14.315 1.2029-1.0211h3.0276l0.92639 1.0211-2.5042 14.315-1.2904 1.0633h-3.0276z"/>
  <path transform="translate(4,197)" d="m44.842 132.88 4.7069-10.308 1.2263 10.308h7.119l-2.5074-13.742 6.7894-13.086h-6.7925l-4.4257 10.101-0.97482-10.101h-7.0362l2.0543 13.047-7.0737 13.781z"/>
  <path transform="translate(4,197)" d="m88.588 122.78h-6.9971l-0.65769 3.7582-1.2498 1.0649h-2.9042l-0.90452-1.146 2.6589-15.214 1.2982-1.1023h2.9057l0.8764 1.0617-0.61395 3.5194h6.9956l1.0732-6.1347-3.2416-3.9253h-11.21l-4.6148 3.9253-3.5618 20.365 3.2416 3.9269h11.212l4.6132-3.9269z"/>
  <path d="m101.65 303.05-4.3804 3.7629-3.3822 19.341 3.0729 3.7239h10.965l4.4164-3.7239 3.3806-19.341-3.1057-3.7629zm-0.64988 20.57 2.5027-14.315 1.2013-1.0211h3.0276l0.92639 1.0211-2.5027 14.315-1.2919 1.0633h-3.026z"/>
  <path transform="translate(4,197)" d="m115.45 106.05-4.6913 26.828h13.871l0.97951-5.6054h-7.2409l3.7103-21.222z"/>
  <path transform="translate(4,197)" d="m131.65 106.05-4.6913 26.828h13.869l0.98107-5.6054h-7.2409l3.7103-21.222z"/>
  <path transform="translate(4,197)" d="m159.44 121.92 0.95608-5.4804h-7.7314l0.85922-4.9106h8.5922l0.95607-5.4773h-15.221l-4.6898 26.828h15.303l0.95607-5.4804h-8.6734l0.96076-5.4789z"/>
  <path transform="translate(4,197)" d="m181.95 117.91h-9.9404l-0.91702 5.2338h3.3556l-0.67956 3.8847-1.0514 0.86032h-3.2728l-0.8436-1.0243 2.5448-14.56 1.2029-1.0211h3.2728l0.75143 0.85876-0.44523 2.5357h6.5894l0.8639-4.9465-2.9573-3.6817h-11.129l-4.3804 3.7629-3.3838 19.341 3.0729 3.7239h11.128l4.2398-3.6411z"/>
  <path transform="translate(4,197)" d="m198.51 121.92 0.95763-5.4804h-7.7314l0.85765-4.9106h8.5922l0.95607-5.4773h-15.219l-4.6898 26.828h15.302l0.9592-5.4804h-8.675l0.9592-5.4789z"/>
  <path transform="translate(4,197)" d="m221.31 126.53-1.0576 0.90092h-3.3947l-0.74517-0.90092 0.45773-2.6169h-6.9956l-0.90764 5.1947 3.1463 3.7629h11.538l4.5195-3.8457 1.7653-10.101-2.6745-3.1899h-8.1422l-0.57489-0.69482 0.71705-4.0893 1.0561-0.89935h3.1916l0.77642 0.93839-0.45617 2.62h6.955l0.90764-5.1932-3.1057-3.7629h-11.374l-4.5195 3.8441-1.7434 9.9772 2.6745 3.1899h8.1422l0.57177 0.69481z"/>
  <path d="m238.75 303.05-4.6882 26.828h6.6285l1.5653-8.9576h7.9782l4.382-3.7629 1.809-10.344-3.0666-3.7629zm5.7802 4.8684h4.0899l0.81079 0.97743-1.0795 6.1753-1.1529 0.98367h-4.0914z"/>
  <path d="m262.85 303.05-4.3804 3.7629-3.3806 19.341 3.0713 3.7239h10.965l4.4148-3.7239 3.3822-19.341-3.1057-3.7629zm-0.64988 20.57 2.5027-14.315 1.2029-1.0211h3.0244l0.92796 1.0211-2.5042 14.315-1.292 1.0633h-3.0229z"/>
  <path d="m280.65 303.05-4.6898 26.828h6.6269l1.795-10.266h2.6589l1.2342 10.266h6.7503l-1.4903-11.125 3.5087-2.9854 1.581-9.0357-2.9994-3.6817zm5.7849 4.8247h4.3742l0.78111 0.93995-0.88109 5.0323-1.0982 0.89936h-4.3789z"/>
  <path transform="translate(4,197)" d="m313.53 111.81 1.0076-5.7646h-17.798l-1.0076 5.7646h5.5646l-3.6821 21.063h6.6269l3.6853-21.063z"/>
  <path transform="translate(4,197)" d="m323.95 126.86-1.0092 0.86032h-3.2322l-0.70924-0.86032 0.43429-2.492h-6.6269l-0.86547 4.9449 2.9776 3.56h10.967l4.2773-3.6411 1.6809-9.6088-2.5386-3.026h-7.7345l-0.54053-0.65578 0.67956-3.8847 1.0108-0.86033h3.026l0.74205 0.89936-0.43742 2.4982h6.5894l0.86547-4.9527-2.9292-3.5959h-10.803l-4.3242 3.6817-1.6575 9.487 2.5355 3.026h7.7751l0.54053 0.65422z"/>
 </g>
 <g transform="matrix(.031138 0 0 .031138 145.44 28.535)">
  <path d="m656.14 2292.8c-1404.4 0-2675.7-668.22-2675.7-1620.1 0-817.87 1127-1589.1 2678.7-1589.1 1543.7 0 2679.4 762.88 2679.4 1585.7 0 944.64-1234.1 1623.5-2682.4 1623.5z" fill="#93a1be"/>
  <path d="m718.2 2226.3c1230.8 0 2543.9-604.81 2543.9-1559.1 0-863.37-1268-1516.8-2543.9-1516.8v1347.9l3e-4 1638.6z" fill="#f3f5fa"/>
  <path d="m600.94 2226.3c-1230.8 0-2543.9-604.81-2543.9-1559.1 0-808.73 1178.7-1516.8 2543.9-1516.8v1347.9l-2.9e-4 1638.6z" fill="#f8f9fc"/>
  <ellipse transform="matrix(1 0 0 1.3264 133.26 -212.34)" cx="525.04" cy="679.24" rx="1953.6" ry="1082.1" fill="#fbfbfd" fill-rule="evenodd"/>
  <path d="m653.95 2111.5-373.14-20.73-416.49-88.575-393.88-169.61-314.72-207.3-254.42-339.22-196-665.25 147.94-367.49c227.19-136.68 403.3-193.17 403.3-193.17l622.85-29.211 233.69 165.84 324.15-222.38 290.22 15.077 282.69 120.61 226.15-67.845 418.37 56.537 226.15-97.998c255.08 62.769 619.08 266.67 619.08 266.67l74.44 604-128.15 410.84-184.69 239.34-165.84 143.23-344.88 209.19-373.14 156.42-491.87 71.614z" fill="url(#radialGradient10310)"/>
  <path d="m1378 1020.4h-376l366.57-639.43-345.57-596.57h387l152 267 155-267h373.62l-339.46 592.91 373.84 643.09h-386.52l-181.43-313.27z" fill="#fff" stroke="#fff" stroke-width="43.8"/>
  <path d="m-762 1022.4v-1240h746l23 339h-419v162h341v338h-343v401z" fill="#fff" stroke="#fff" stroke-width="44"/>
  <path d="m-762 1022.4v-1240h746l23 339h-419v162h341v338h-343v401z" fill="url(#radialGradient10312)"/>
  <path d="m587.31-199.06c-339.42 0-589.84 285.65-589.84 603.66 0 300.23 235.45 602.19 591.41 602.19 335.56 0 590.5-277.53 590.5-603.97 0-321.55-254.08-601.88-592.06-601.88zm2.6875 247.44c60.572 0 105 54.653 105 109v492c0 60.144-48.386 103-105 103-63.443 0-101-54.346-101-105v-485c0-61.57 42.692-114 101-114z" fill="url(#radialGradient10312)"/>
  <path d="m1378 1020.4h-376l366.57-639.43-345.57-596.57h387l152 267 155-267h373.62l-339.46 592.91 373.84 643.09h-386.52l-181.43-313.27z" fill="url(#radialGradient10312)"/>
  <path d="m-1852 722.36h420c15.859 488.54 356.42 957.87 954.14 1237.8l-11.425 42.285c-763.95-230.02-1336.3-699.04-1362.7-1280.1z" fill="#002c55"/>
  <path d="m3169.8 722.36h-420c-15.859 488.54-356.42 957.87-954.14 1237.8l11.425 42.285c763.95-230.02 1336.3-699.04 1362.7-1280.1z" fill="#002c55"/>
  <path d="m-1490 152.36-143-69c235.23-314.75 680.62-569.44 1143.9-709.32l11.494 42.393c-281.76 132.39-523.46 317.67-682.35 523.92z" fill="url(#linearGradient10318)"/>
  <path d="m-1850 618.36h420c15.33-251.18 110.97-476.99 270-678-277.18 50.441-473 143-473 143-130.44 172.3-202.17 350.23-217 535z" fill="#002c55"/>
  <path d="m2808.8 152.36 143-69c-235.23-314.75-680.62-569.44-1143.9-709.32l-11.494 42.393c281.76 132.39 523.46 317.67 682.35 523.92z" fill="url(#linearGradient10320)"/>
  <path d="m3168.8 618.36h-420c-15.33-251.18-110.97-476.99-270-678 277.18 50.441 473 143 473 143 130.44 172.3 202.17 350.23 217 535z" fill="#002c55"/>
  <path d="m-791 1562.9v-63.634l32.502-31.883h266.55l9.9443-9.9833v-69l-8-8h-247l-54-54v-157l63-63h358v69l-26 26h-260l-10 10v67l8 8h246l55 55v159l-62.5 62.5z" fill="#fff" stroke="#fff" stroke-width="43"/>
  <path d="m1700.7 1562.9v-63.634l32.502-31.883h266.55l9.9443-9.9833v-69l-8-8h-247l-54-54v-157l63-63h358v69l-26 26h-260l-10 10v67l8 8h246l55 55v159l-62.5 62.5z" fill="#fff" stroke="#fff" stroke-width="43"/>
  <path d="m-791 1562.9v-63.634l32.502-31.883h266.55l9.9443-9.9833v-69l-8-8h-247l-54-54v-157l63-63h358v69l-26 26h-260l-10 10v67l8 8h246l55 55v159l-62.5 62.5z" fill="url(#radialGradient10322)"/>
  <path d="m-278 1106.4v456.5h125v-146.5h247l70-70v-170l-70-70zm125 96h172l19 19v88l-19 19h-172z" fill="url(#radialGradient10322)"/>
  <path d="m301 1106.4-70 70v317l69 69.5h309l70-69.5v-317l-70-70zm80 99h147l26 25v200.44l-25.812 25.562h-147.19l-26-26v-199z" fill="url(#radialGradient10326)"/>
  <path d="m762 1106.4v456.5h125v-165.5h134l59 166h140l-80-187.53 61-60.469v-146l-63-63zm125 93h170l18 18v67l-18 18h-170z" fill="url(#radialGradient10322)"/>
  <path d="m1389 1562.9v-351.5h-145v-105h416v105h-145.5v351.5z" fill="url(#radialGradient10322)"/>
  <path d="m1700.7 1562.9v-63.634l32.502-31.883h266.55l9.9443-9.9833v-69l-8-8h-247l-54-54v-157l63-63h358v69l-26 26h-260l-10 10v67l8 8h246l55 55v159l-62.5 62.5z" fill="url(#radialGradient10322)"/>
  <path d="m657.47-765.06c-1159.4 0-2001.6 696.23-2001.6 1440.8 0 845.77 930.47 1465.1 2000.6 1465.1 1029.2 0 2006-583.77 2006-1472.9 0-724.58-828.35-1433-2005-1433zm0.59375 51.219c570.93 0 1109 173.13 1493.9 498.84 197.92 228.05 352.19 530.61 352.19 905.28 0 366.87-150.38 669.22-351.25 900.37-345.05 297.32-876.56 499.88-1495.4 499.88-619.01 0-1148.9-205.33-1494.6-500.06-226.37-263.94-350.88-573.58-350.88-902.06 0-350.72 136.88-653.55 349.97-901.5 329.1-282.61 858.84-500.75 1496.1-500.75z" fill="#60779c"/>
 </g>
</svg>
