<svg width="600pt" height="591.33pt" version="1.1" viewBox="0 0 600 591.33" xmlns="http://www.w3.org/2000/svg" xmlns:xlink="http://www.w3.org/1999/xlink">
 <g transform="matrix(1.7341 0 0 1.7341 6.978e-6 .00060453)">
  <path d="m345.94 276.36 0.047-276.3h-345.95v276.33l345.91-0.0313" fill="#013686"/>
  <path d="m0.031329 38.148c24.236-8.3817 49.977-13.489 76.861-14.742 120.02-5.593 225.7 66.881 269.08 173.21v-6.0004c-45.199-104.43-150.39-175.08-269.58-169.51-26.68 1.2533-52.264 6.2354-76.36 14.445v2.6007" fill="#fff"/>
  <path d="m346 341-0.10966-57.589-345.81 0.12534v57.464h345.92" fill="#bc0400"/>
  <path d="m-4.024e-6 276.42h0.376l95.912-276.42h-39.183l-57.105 271.9v4.5277" fill="#fff"/>
  <path d="m2.2403 276.42 174.81-276.39h-44.118l-132.21 276.39h1.5197" fill="#fff"/>
  <path d="m117.78 166.99v-89.05h55.586l1.7077 24.346h-31.114v11.625h25.364v24.299h-25.568l-0.0157 28.78h-25.96z" fill="#013686" stroke="#013686" stroke-miterlimit="3.864" stroke-width="6.7994"/>
  <path d="m334.67 166.87-27.62-46.217 24.863-42.582h-28.56l-10.716 18.502-11.045-18.502h-28.639l25.599 42.88-26.555 45.919 28.09-0.0313 12.784-21.886 13.066 21.918h28.733z" fill="#013686" stroke="#013686" stroke-width="6.7994"/>
  <path d="m227.32 141.25 0.17234-37.851c0-4.324-3.8384-8.1937-8.225-8.1937-4.3867 0-7.9274 3.8697-7.9274 8.1937l-0.0157 37.741c0 4.324 3.5564 7.8177 7.943 7.8177 4.3867 0 8.0527-3.384 8.0527-7.708zm-53.533-18.283c0-24.8 20.414-44.901 45.622-44.901 25.192 0 45.606 20.1 45.606 44.901 0 24.8-20.414 44.901-45.606 44.901-25.208 0-45.622-20.1-45.622-44.901z" fill="#013686" stroke="#013686" stroke-miterlimit="3.864" stroke-width="6.7994"/>
  <path d="m126.85 181.77h52.719v18.988h-32.258v11.954h26.508v17.578h-26.508v13.849h32.665v18.988h-53.126z" fill="#013686" stroke="#013686" stroke-width="6.7994"/>
  <path d="m183.55 181.77h20.899l9.8387 47.47 9.4314-47.47h17.515l9.9484 47 10.136-47h16.904l-19.051 81.357h-18.643l-9.635-46.311-9.3217 46.311h-19.066z" fill="#013686" stroke="#013686" stroke-width="6.7994"/>
  <path d="m293.94 234.67c1.5197 6.7994 5.8594 10.199 13.442 10.199 4.9507 0 7.8804-2.4597 7.8804-5.6244 0-5.969-4.9507-5.7497-14.241-8.554-15.87-4.6844-23.547-11.249-23.547-24.612 0-15.479 11.421-26.962 30.111-26.962 13.74 0 23.343 7.144 27.793 20.398l-17.891 5.969c-2.115-5.8594-5.5617-8.1937-11.311-8.1937-4.2457 0-7.1754 2.6947-7.1754 5.8437 0 4.8097 4.5434 5.0447 12.831 7.3947 6.8777 1.9897 13.238 3.2744 18.69 8.319 4.4494 4.1047 6.768 10.089 6.768 17.343 0 6.815-2.4127 13.254-6.862 18.064-5.7654 6.2197-13.849 9.6194-23.453 9.6194-17.782 0-29.406-9.1494-32.743-24.863z" fill="#013686" stroke="#013686" stroke-width="6.7994"/>
  <path d="m101.38 182.08v40.875l-24.456-40.828h-23.563l-0.20367 80.934 20.837-0.047v-46.891l27.918 46.938h19.724v-80.934z" fill="#013686" stroke="#013686" stroke-width="6.7994"/>
  <path d="m117.74 166.85v-89.065h55.601l1.7077 24.346h-31.114v11.625h25.349v24.299h-25.568l-0.0157 28.795h-25.96" fill="#fff"/>
  <path d="m334.64 166.73-27.636-46.217 24.863-42.598h-28.56l-10.7 18.502-11.061-18.502h-28.639l25.599 42.896-26.555 45.919 28.106-0.0313 12.768-21.886 13.082 21.918h28.733" fill="#fff"/>
  <path d="m227.28 141.11 0.17234-37.867c0-4.3084-3.8227-8.178-8.2094-8.178-4.4024 0-7.943 3.8697-7.943 8.178l-0.0157 37.757c0 4.3084 3.5564 7.8177 7.9587 7.8177 4.3867 0 8.037-3.3997 8.037-7.708zm-53.518-18.299c0-24.785 20.414-44.901 45.606-44.901s45.622 20.116 45.622 44.901c0 24.8-20.429 44.901-45.622 44.901s-45.606-20.1-45.606-44.901" fill="#fff"/>
  <path d="m126.81 181.78h52.719v18.988h-32.258v11.954h26.524v17.578h-26.524v13.834h32.665v18.988h-53.126v-81.342" fill="#fff"/>
  <path d="m183.5 181.78h20.915l9.8387 47.47 9.4157-47.47h17.515l9.9484 47 10.136-47h16.92l-19.066 81.342h-18.643l-9.635-46.295-9.3217 46.295h-19.066l-18.957-81.342" fill="#fff"/>
  <path d="m293.89 234.69c1.5197 6.7994 5.875 10.199 13.442 10.199 4.9507 0 7.8804-2.4597 7.8804-5.6244 0-5.969-4.9507-5.7497-14.241-8.554-15.87-4.6844-23.547-11.264-23.547-24.612 0-15.479 11.421-26.962 30.111-26.962 13.74 0 23.343 7.144 27.793 20.382l-17.891 5.9847c-2.115-5.8594-5.546-8.2094-11.311-8.2094-4.2457 0-7.1754 2.6947-7.1754 5.8594 0 4.8097 4.5434 5.0447 12.831 7.3947 6.8777 1.9897 13.238 3.2744 18.69 8.319 4.4494 4.1047 6.7837 10.089 6.7837 17.343 0 6.7994-2.4283 13.254-6.8777 18.064-5.7654 6.204-13.849 9.6037-23.453 9.6037-17.782 0-29.406-9.1337-32.743-24.847l19.709-4.3397" fill="#fff"/>
  <path d="m101.35 181.98v40.89l-24.456-40.859h-23.563l-0.20367 80.95 20.837-0.047v-46.891l27.918 46.938h19.724v-80.95l-20.257-0.0313" fill="#fff"/>
 </g>
 <use transform="matrix(8.7401 0 0 -8.6069 653.06 508.08)" width="744.09448" height="1052.3622" xlink:href="#id38"/>
 <g transform="matrix(2.3929 4.5059 3.8149 -2.026 -60.932 538.08)">
  <use width="744.09448" height="1052.3622" xlink:href="#id125"/>
 </g>
 <g transform="matrix(3.07 5.7808 4.4921 -2.3856 -61.609 542.86)">
  <use width="744.09448" height="1052.3622" xlink:href="#id128"/>
 </g>
 <g transform="matrix(4.9403 9.3026 6.4542 -3.4276 -57.474 539.41)">
  <use width="744.09448" height="1052.3622" xlink:href="#id131"/>
 </g>
 <g transform="matrix(5.2855 0 0 -1.0007 -55.71 538.1)">
  <use width="744.09448" height="1052.3622" xlink:href="#id134"/>
 </g>
 <g transform="matrix(0 -1.19 -5.9703 0 -53.126 542.72)">
  <use width="744.09448" height="1052.3622" xlink:href="#id140"/>
 </g>
 <g transform="matrix(-2.3565 -10.576 -4.8355 1.0774 -56.87 547.1)">
  <use width="744.09448" height="1052.3622" xlink:href="#id143"/>
 </g>
 <g transform="matrix(5.2759 0 0 -1.0009 -61.834 538.1)">
  <use width="744.09448" height="1052.3622" xlink:href="#id146"/>
 </g>
 <g transform="matrix(5.2756 0 0 -1.0002 -61.834 547.59)">
  <use width="744.09448" height="1052.3622" xlink:href="#id149"/>
 </g>
 <g transform="matrix(-3.5064 -3.5064 -3.5064 3.5064 -50.912 539.32)">
  <use width="744.09448" height="1052.3622" xlink:href="#id152"/>
 </g>
 <g transform="matrix(-4.3218 -4.3218 -4.3218 4.3218 -50.095 544.56)">
  <use width="744.09448" height="1052.3622" xlink:href="#id155"/>
 </g>
 <g transform="matrix(5.2821 0 0 -1.0083 -55.707 547.59)">
  <use width="744.09448" height="1052.3622" xlink:href="#id158"/>
 </g>
 <use transform="matrix(8.739 0 0 -8.4068 205.95 726.45)" width="744.09448" height="1052.3622" xlink:href="#id191"/>
 <g transform="matrix(69.519 0 0 -34.855 329.88 469.82)">
  <use width="744.09448" height="1052.3622" xlink:href="#id226"/>
 </g>
 <use transform="matrix(14.566 0 0 -14.552 481.18 677.14)" width="744.09448" height="1052.3622" xlink:href="#id243"/>
 <g transform="matrix(-16.412 -23.428 -27.23 19.058 478.76 726.36)">
  <use width="744.09448" height="1052.3622" xlink:href="#id292"/>
 </g>
 <g transform="matrix(18.808 18.965 18.808 -18.965 74.125 773.08)">
  <use width="744.09448" height="1052.3622" xlink:href="#id301"/>
 </g>
 <g transform="matrix(-20.769 5.6118 5.8667 22.078 101.3 754.95)">
  <use width="744.09448" height="1052.3622" xlink:href="#id304"/>
 </g>
 <g transform="matrix(24.264 24.264 24.264 -24.264 21.727 687.48)">
  <use width="744.09448" height="1052.3622" xlink:href="#id351"/>
 </g>
 <g transform="matrix(0 -10.234 -10.448 0 30.541 690.01)">
  <use width="744.09448" height="1052.3622" xlink:href="#id354"/>
 </g>
 <g transform="matrix(0 -10.234 -10.448 0 71.88 690.01)">
  <use width="744.09448" height="1052.3622" xlink:href="#id357"/>
 </g>
 <use transform="matrix(37.843 0 0 -25.203 273.3 383.69)" width="744.09448" height="1052.3622" xlink:href="#id399"/>
 <use transform="matrix(9.9902 0 0 -13.986 -13.208 382.47)" width="744.09448" height="1052.3622" xlink:href="#id404"/>
 <g transform="matrix(51.599 0 0 -42.948 33.212 387.87)">
  <use width="744.09448" height="1052.3622" xlink:href="#id411"/>
 </g>
 <g transform="matrix(52.83 0 0 -31.594 106.13 384.81)">
  <use width="744.09448" height="1052.3622" xlink:href="#id415"/>
 </g>
 <use transform="matrix(66.17 0 0 -18.464 408.07 380.82)" width="744.09448" height="1052.3622" xlink:href="#id416"/>
 <g transform="matrix(3.6278 0 0 3.6278 -217.89 -11.284)" fill="#fff">
  <path d="m111.85 141.44v21.806h7.7095v-8.9253h9.9814v8.9253l7.7095-2.8e-4v-21.806h-7.7095v8.4801h-9.9814v-8.48z"/>
  <path d="m146.81 141.44v21.806h10.599c9.3472 0 16.252-2.2569 16.252-10.903 0-9.015-7.0948-10.903-16.252-10.903zm7.7006 4.017h3.5275c4.9756 0 7.7008 2.6383 7.7008 6.8494 0 4.4711-2.9043 6.8494-7.7008 6.8494h-3.5275z"/>
 </g>
</svg>
