<svg width="275.94" height="68.21" version="1.1" viewBox="0 0 258.69 63.947" xmlns="http://www.w3.org/2000/svg">
 <g transform="translate(-20.153 -60.96)">
  <path d="m223.97 61.062v63.688h23.75s31.125 0.26497 31.125-31.281c0-29.975-28.469-32.406-28.469-32.406zm15.875 14.781h10.375s11.188 1.3144 11.188 17.375c0 16.903-12.219 16.75-12.219 16.75h-9.3438z"/>
  <path d="m167.19 61.219v24.062h-0.15625v13.531h0.15625v26.094h15.562v-26.094h20.469v26.094h15.562v-63.688h-15.562v24.062h-20.469v-24.062z" fill-rule="evenodd"/>
  <polygon transform="matrix(1.0559 0 0 1.0559 -38.74 23.755)" points="72.788 76.105 72.788 95.628 55.773 95.628 55.773 35.234 92.145 35.234 93.263 51.746 72.903 51.746 72.903 59.624 89.492 59.624 89.492 76.105"/>
  <polygon transform="matrix(1.0559 0 0 1.0559 -40.752 23.755)" points="142.72 35.316 159.57 64.408 141.72 95.579 160.02 95.574 168.75 80.31 177.58 95.539 196.4 95.539 178.22 64.204 194.74 35.316 176.54 35.316 168.98 48.331 161.56 35.316"/>
  <path d="m58.468 92.927c0-17.123 13.602-31.004 30.389-31.004 16.786 0 30.391 13.881 30.391 31.004 0 17.126-13.606 31.004-30.391 31.004s-30.389-13.878-30.389-31.004m35.855 12.729v-25.475c0-2.9049-2.5363-5.5088-5.38-5.5088-2.85 0-5.1529 2.6029-5.1529 5.5088l-0.0074 25.399c0 2.9101 2.3104 5.267 5.1603 5.267 2.8436 0 5.38-2.2872 5.38-5.191z"/>
 </g>
</svg>
