<svg width="600pt" height="296.28pt" version="1.1" viewBox="0 0 600 296.28" xmlns="http://www.w3.org/2000/svg">
 <path d="m423.91 0c-9.8419 53.388-34.674 70.519-88.896 102.08 46.699-2.1324 78.661-27.943 88.896-56.308 8.3325 24.078 24.816 44.354 43.564 61.325-12.805-0.30646-25.607-0.67189-38.412-0.97825 18.809 34.31 48.525 60.348 83.08 78.054-14.888 1.838-29.78 3.3779-44.668 5.2772 19.422 33.943 47.362 62.185 81.366 81.546-40.192 15.685-83.63 16.476-125.78 10.043 11.844 16.791 41.18 15.203 59.061 15.203 40.434 0 82.051-11.156 117.88-31.07-39.947-15.93-84.974-27.692-111.14-65.005 25.426-4.2888 50.785-9.9854 74.68-20.095-39.028-15.562-80.017-29.588-110.65-59.916 20.709-3.0634 41.667-7.1084 59.925-18.075-66.107-30.644-77.875-48.94-88.905-102.08z" fill="#006838" stroke-width="6.1268"/>
 <g transform="matrix(6.1268 0 0 6.1268 -162.36 -309.79)" fill="#fff">
  <path d="m26.5 69.47h18.84v5.7798h-11.975l2.5e-4 4.33h11.095v5.8398h-11.095l2.5e-4 8.3205h-6.8652z"/>
  <path d="m51.33 71.24c5.41-3.84 13.06-2.99 18.06 1.16l-4.12 4.14c-2.82-1.74-6.68-2.97-9.66-0.92-3.59 2.95-3.43 9.58 0.47 12.21 2.61 1.6 5.8509 0.7909 8.22-0.37v-3.23l-6.1398-0.01v-5.47h11.965v11.23c-5.82 6.62-18.825 5.96-22.685-2.46-2.61-5.41-1.33-12.89 3.89-16.28z"/>
  <path d="m85.412 68.817a13.624 12.804 0 0 0-13.625 12.803 13.624 12.804 0 0 0 13.625 12.804 13.624 12.804 0 0 0 13.625-12.804 13.624 12.804 0 0 0-13.625-12.803zm0 5.8403a6.6439 6.9622 0 0 1 6.6445 6.9624 6.6439 6.9622 0 0 1-6.6445 6.9624 6.6439 6.9622 0 0 1-6.6431-6.9624 6.6439 6.9622 0 0 1 6.6431-6.9624z" style="paint-order:stroke fill markers"/>
 </g>
</svg>
