<svg width="1e3" height="495.27" version="1.1" viewBox="0 0 800 396.22" xmlns="http://www.w3.org/2000/svg">
 <g transform="matrix(6.7134 0 0 6.7134 -3.753 -3.494)">
  <path d="m0.55904 0.52045h119.17v59.019h-119.17v-59.019z" fill="#19315a"/>
  <path d="m14.181 10.673c4.3545-0.0418 8.7115-0.0061 13.068-0.01845 7.217 0.0037 14.435-0.0061 21.653 5e-3 -1.0961 1.1312-2.2344 2.2206-3.3466 3.3358-1.5963 1.6796-3.3093 3.2485-4.9069 4.9257-4.4886 0.04673-8.9796 0.02214-13.469 0.01229-0.03972 2.314-0.04593 4.633 0.0037 6.9471 4.4191-5e-3 8.8393-0.02459 13.258 0.0098-0.02855 2.7751 0.01861 5.5503-0.02357 8.3242-0.20358 0.07254-0.42577 0.03443-0.63679 0.0455-4.7182-0.0086-9.4364 0.0012-14.155-5e-3 -0.16261 5e-3 -0.32398 0.016-0.48535 0.03442 0.71251 0.63323 1.3232 1.3661 2.0159 2.0202 0.0025 4.3945-0.01861 8.7902 0.0099 13.185-4.3284 0.01352-8.6569 0.0123-12.984 0.0012-0.0012-12.941 0.0037-25.881-0.0025-38.822z" fill="#fdfefe"/>
  <path d="m54.805 10.673c7.634-0.04303 15.271-0.0037 22.906-0.01968-0.01862 1.7681 0.0372 3.5424-0.02609 5.3068-1.0613 0.99226-2.1177 1.9919-3.1802 2.9829-4.7046 0.0024-9.4091 0.0012-14.114 0-0.15019-0.01599-0.27433 0.03196-0.37115 0.1414-0.32026 0.31231-0.62066 0.64429-0.9496 0.948-0.04472 1.5296-0.0025 3.0604-0.02236 4.5912-0.07199 0.55085 0.52507 0.81152 0.81181 1.1951 4.3682 0.0012 8.7351 0.0025 13.103-0.0012 0.89002 0.83365 1.7192 1.7288 2.6068 2.5636 0.74726 0.77217 1.5678 1.4853 2.2592 2.3054 0.01121 4.4326 0.0034 8.8677 0.0025 13.301-1.8409 1.8456-3.7103 3.6629-5.5449 5.5122-9.1869 0.0012-18.374 0.0074-27.561-0.0025 0.0087-0.55576 0.0087-1.1103 0.0024-1.6648 2.2393-2.239 4.527-4.4326 6.7316-6.7048 4.0603-0.02336 8.1219-0.0172 12.181-0.0025 0.05833-0.0295 0.17502-0.0873 0.23336-0.11681 0.33018-0.36395 0.68272-0.70454 1.0377-1.0451-0.0034-1.5505-0.0025-3.0997 0-4.6502 0.02853-0.28403-0.27434-0.42543-0.42578-0.62093-0.19364-0.14632-0.32894-0.44387-0.60824-0.4119-4.3148-0.01107-8.6308 0.0086-12.946-0.0098-1.5628-1.6501-3.2299-3.203-4.7865-4.8568-0.03972-0.7734 0.02855-1.5517-0.03724-2.3251-0.06331-0.65905 0.05214-1.3181-5e-3 -1.9759 0.02731-1.928-0.01986-3.8584 0.02731-5.7827 1.0688-1.1423 2.217-2.2145 3.3267-3.3211 1.7689-1.7915 3.5973-3.5264 5.3476-5.3363z" fill="#fdfefe"/>
  <path d="m83.557 18.777c2.7259-2.7247 5.494-5.4076 8.2324-8.1213 4.7716 0.01106 9.5444-0.02706 14.315 0.01968-9e-3 12.939-2e-3 25.879-2e-3 38.819-4.8796 0.0246-9.7592-0.0062-14.638 0.01475-0.02983-6.9852-0.0051-13.97-0.01365-20.954 0.01121-0.87545-0.02355-1.7509 0.02106-2.6251 0.67154-0.61724 1.2972-1.2812 1.9588-1.9071 0.13406-0.12296 0.24702-0.26682 0.34881-0.41682-3.4372 0.01476-6.8756 0.0074-10.313 0.0037-0.01365-1.4263 9.97e-4 -2.8538-0.0087-4.2801 0.01619-0.1832-0.04472-0.40453 0.0993-0.55208z" fill="#fdfefe"/>
 </g>
</svg>
