<svg width="800" height="357.79" version="1.1" viewBox="0 0 800 357.79" xmlns="http://www.w3.org/2000/svg">
 <g transform="matrix(21.138 0 0 21.138 -43.921 -148.14)" fill="#fff">
  <g transform="translate(2,7)" fill="#fff">
   <path d="m12.761 11.956c-0.07669 1.2155-0.99235 2.1278-2.2777 2.1278-1.9595 0-2.1873-1.6402-2.1873-2.3006v-6.8617h-5.2113v-0.017169c0.020602-1.5692 0.81494-2.1461 2.2308-2.0339v-2.8191c-3.3319-0.38572-5.1746 1.8462-5.2376 4.8702v11.731h3.0068v-9.0147h2.2056v4.1457c0 3.0755 1.8451 5.1506 4.6241 5.1506 1.073 0.01937 2.1054-0.40955 2.8489-1.1835l0.13506 0.91566h2.8706v-11.745h-3.008z"/>
   <path d="m31.962 14.244c-1.4181 0-2.6566-1.0301-3.0526-2.541h9.0147c0.0206-4.2624-2.2674-7.0758-5.8774-7.0758-3.4337 0-5.9415 2.8134-5.9415 6.2151 4.2e-4 0.23253 0.01379 0.46486 0.04006 0.6959-0.87446-1.4994-3.0652-1.8599-4.7889-2.1564l-0.19916-0.034337c-1.1755-0.20374-1.9-0.39717-1.9458-0.94428-0.02747-0.58602 0.22892-1.346 1.8199-1.346 1.3414 0 1.9378 0.47271 2.185 1.2728h2.945c-0.22892-2.2148-1.6081-3.7016-5.0464-3.7016-3.6627 0-5.0041 1.7272-4.948 3.9225 0.05151 2.6383 2.7985 3.0343 4.9915 3.4406l0.19916 0.03777c1.259 0.24036 2.2296 0.50819 2.1587 1.259-0.05608 0.46813-0.58602 1.1446-2.1747 1.1446-1.4307 0-2.1209-0.56428-2.3292-1.4055h-3.0743c0.2209 2.565 1.8714 3.8916 5.4539 3.8916 3.6718 0 5.1266-1.9755 5.138-3.8126 0.88369 2.3007 3.0924 3.8202 5.5569 3.8229 2.7573 0 4.8862-1.7008 5.5661-4.006h-2.9908c-0.59862 0.90078-1.3495 1.3208-2.7001 1.3208zm0.10301-7.2646c1.4044 0 2.4036 0.86072 2.9885 2.5181h-6.1624c0.60548-1.6184 1.7489-2.5158 3.1739-2.5158z"/>
  </g>
 </g>
</svg>
