<svg width="1422.4" height="292.01" version="1.1" viewBox="0 0 1422.4 292.01" xmlns="http://www.w3.org/2000/svg">
 <g transform="translate(443.68 -548.6)">
  <g transform="matrix(1.3333 0 0 -1.3333 -446.52 1580.3)">
   <g transform="scale(.1)" fill="#6045a5">
    <path d="m534.23 7220.5h542.3l571.24 482.44h-1626.5v-2155.3l1289.9 1124.7h-777.02v548.15"/>
    <path d="m8789.2 7702.9h552.76l658.38-1062c15.5-32.53 55.8-97.6 90-156.79 21.8-35.5 40.4-73.96 62.1-112.42h6.2c-3.1 47.35-3.1 91.73-3.1 136.11-3.1 73.95-3.1 153.83-3.1 192.29v1002.8h537.2v-2115.2h-552.7l-652.12 1047.2c-21.76 26.65-59.02 94.68-93.18 162.72-21.72 38.46-43.47 76.91-65.19 121.3h-6.22c0-50.31 0-100.61 3.11-144.95 0-79.88 3.11-165.68 3.11-201.18v-985.12h-537.25v2115.2"/>
    <path d="m3572.8 7702.9v-1273.8c0-275.65-75.42-487.44-223.4-641.23-147.99-153.77-371.4-229.22-664.44-229.22-301.75 0-533.88 87.04-670.25 243.72-139.26 156.68-206.01 362.7-206.01 620.93v1279.6h536.79v-1270.9c0-113.16 29.02-203.09 87.05-272.73 58.02-69.64 142.17-104.47 258.22-104.47 127.67 0 223.41 43.52 272.74 116.09 49.33 72.53 69.64 153.76 69.64 249.53v1282.4h539.66"/>
    <path d="m5638.4 7702.9h536.77v-2115.2h-536.77v2115.2"/>
    <path d="m7086.2 6231.8c107.35-116.05 240.8-177 397.48-177 159.6 0 293.06 60.95 400.41 177 107.35 118.97 162.49 258.23 162.49 417.83 5.81 307.55-246.61 597.69-562.9 591.91-101.54 0-200.2-29.04-287.24-84.15-87.03-55.14-153.76-127.67-200.2-217.63-49.32-89.93-72.53-185.7-72.53-290.13 0-159.6 52.21-298.86 162.49-417.83zm-557.09 966.19c98.63 168.3 235.03 301.78 403.3 397.51 171.19 95.77 356.88 142.18 557.08 142.18s385.9-46.41 554.2-142.18c165.38-92.84 298.86-223.4 397.48-391.7 98.66-165.39 147.99-351.08 147.99-551.28 0-150.87-29.01-293.05-87.04-429.42-60.95-136.36-136.37-252.42-235.03-348.18-101.54-98.66-217.59-177-353.99-232.11-136.36-58.02-278.54-87.04-429.42-87.04-203.09 0-385.89 46.41-554.16 145.07-171.19 92.84-301.78 223.41-403.33 391.71-98.65 168.26-147.95 351.07-147.95 554.16 0 200.2 49.3 383.01 150.87 551.28"/>
    <path d="m5391.8 6527.3c-35.71 72.73-89 135.62-158.4 186.93-132.68 100.99-306.34 150.25-487.56 195.8l-0.26 0.07c-142.13 33.24-254.39 59.5-328.2 94.03-35.8 16.75-61.29 35.57-77.92 57.53-16.94 22.38-25.19 48.83-25.19 80.84 0 51.45 24.03 95.28 69.49 126.73 47.74 33.04 115.74 50.5 196.66 50.5 87.96 0 158.36-20.2 209.25-60.04 50.63-39.62 80.86-98.11 89.86-173.82l1.66-14.01h504.51l-0.85 16.68c-5.45 107.62-29.26 204.4-70.78 287.66-39.97 80.16-96.57 148.34-168.35 202.74-70.53 52.41-153.66 92.53-247.08 119.25-91.7 26.22-193.23 39.52-301.79 39.52-230.79 0-425.32-53.91-562.58-155.89-73.7-54.77-130.71-123.16-169.45-203.27-40.8-84.36-61.48-182.21-61.48-290.81 0-199.51 74.76-348.94 228.55-456.86 129.67-91 294.87-137.17 481.66-183.98l7.31-1.85c130.32-32.91 233.25-58.91 304.28-94.92 71.62-36.29 103.56-84.37 103.56-155.88 0-81.74-49.42-128.62-90.87-153.55-50.1-30.14-124.01-46.73-208.13-46.73-233.76 0-347.11 86.28-367.54 279.77l-1.5 14.21h-517.75l0.2-16.07c2.7-225.23 90.05-408.91 252.63-531.21 76.28-59.82 169.74-105.69 277.78-136.34 106.76-30.28 227.52-45.64 358.92-45.64 115.04 0 223.23 15.27 321.59 45.37 99.33 30.41 186.99 75.45 260.52 133.86 154.42 121.91 236.04 297.65 236.04 508.21 0 107.14-19.78 201.74-58.79 281.17"/>
   </g>
  </g>
 </g>
</svg>
