<svg width="183.36" height="143.03" version="1.0" viewBox="0 0 171.9 134.09" xmlns="http://www.w3.org/2000/svg">
 <path d="m91.397 96.248c-12.451-3.149-22.244-10.733-27.086-19.772-2.727-4.336-4.313-9.457-4.313-14.938 0-15.666 12.875-28.363 28.761-28.363 2.668 0 5.252 0.368 7.705 1.036l13.512-29.198c-6.635-3.091-14.024-4.813-21.821-4.813-28.619 0-51.816 23.2-51.816 51.816 0 28.62 23.197 51.823 51.816 51.823 10.131 0 19.574-2.918 27.551-7.935-7.244 2.241-15.715 2.521-24.309 0.344" fill="#e84d14"/>
 <path d="m95.45 45.679c8.682 2.835 14.959 10.996 14.959 20.624 0 11.984-9.709 21.699-21.699 21.699-2.066 0-4.068-0.298-5.963-0.834 5.551 4.169 12.447 6.632 19.926 6.632 18.346 0 33.209-14.867 33.209-33.205 0-5.369-1.271-10.429-3.539-14.916z" fill="#e84d14"/>
 <path d="m0.2 120.99c0-7.234 5.274-12.902 12.01-12.902 5.487 0 9.659 3.137 11.227 8.233h-5.061c-1.177-2.317-3.316-3.921-6.166-3.921-4.096 0-7.304 3.921-7.304 8.59 0 4.703 3.208 8.625 7.304 8.625 3.525 0 6.094-2.531 6.771-5.523h-6.128v-4.383h11.296c0.285 8.693-4.881 14.184-11.939 14.184-6.736-3e-3 -12.01-5.671-12.01-12.903z" fill="#6f7072"/>
 <path d="m45.249 133.47h-4.456v-1.927c-1.392 1.534-3.385 2.321-5.593 2.321-4.849 0-8.805-4.282-8.805-9.555 0-5.31 3.886-9.66 9.444-9.66 5.525 0 9.409 4.352 9.409 9.66zm-9.409-14.4c-2.601 0-4.706 2.248-4.706 5.271 0 2.928 2.105 5.172 4.706 5.172 2.604 0 4.706-2.316 4.706-5.172 0-2.922-2.102-5.271-4.706-5.271z" fill="#6f7072"/>
 <path d="m54.161 133.47h-4.707v-26.517h4.707z" fill="#6f7072"/>
 <path d="m76.255 133.47h-4.455v-1.927c-1.391 1.534-3.383 2.321-5.596 2.321-4.846 0-8.804-4.282-8.804-9.555 0-5.31 3.884-9.66 9.447-9.66 5.523 0 9.407 4.352 9.407 9.66zm-9.408-14.4c-2.604 0-4.704 2.248-4.704 5.271 0 2.928 2.1 5.172 4.704 5.172 2.601 0 4.701-2.316 4.701-5.172 1e-3 -2.922-2.1-5.271-4.701-5.271z" fill="#6f7072"/>
 <path d="m88.656 133.47h-5.055l-6.952-18.354h4.92l4.559 13.687 4.597-13.687h4.847z" fill="#6f7072"/>
 <path d="m102.56 133.47h-4.703v-18.354h4.703z" fill="#6f7072"/>
 <path d="m114.36 133.89c-4.673 0-8.128-2.459-8.7-6.414h4.775c0.643 1.568 2.531 2.139 3.925 2.139 1.888 0 3.312-0.57 3.312-1.639 0-1.035-0.643-1.465-3.848-1.963-3.283-0.498-7.666-1.392-7.666-5.487 0-2.886 2.531-5.882 7.846-5.882 4.205 0 7.336 2.285 7.943 5.74h-4.883c-0.287-0.855-1.316-1.533-3.062-1.533-2.18 0-3.067 0.783-3.067 1.459 0 0.965 1.352 1.283 3.637 1.641 4.561 0.748 7.837 1.746 7.837 5.74 0 3.633-3.351 6.199-8.049 6.199z" fill="#6f7072"/>
 <path d="m130.46 133.47h-4.707v-18.354h4.707z" fill="#6f7072"/>
 <path d="m152.24 124.3c0 5.486-4.174 9.586-9.271 9.586-5.094 0-9.228-4.1-9.228-9.586 0-5.49 4.134-9.66 9.228-9.66 5.097 0 9.271 4.17 9.271 9.66zm-4.739 0.034c0-3.168-2.033-5.38-4.531-5.38-2.492 0-4.522 2.212-4.522 5.38 0 3.104 2.03 5.239 4.522 5.239 2.498 0 4.531-2.135 4.531-5.239zm-2.635-11.618h-3.462l3.315-5.024h5.271z" fill="#6f7072"/>
 <path d="m163.54 114.64c5.135 0 8.16 3.391 8.16 8.199v10.619h-4.703v-10.728c0-1.034-0.355-3.497-3.457-3.497-2.068 0-3.564 1.43-3.564 3.497v10.728h-4.703v-10.619c-1e-3 -4.667 3.277-8.199 8.267-8.199z" fill="#6f7072"/>
</svg>
