<svg width="800" height="376.85" enable-background="new 0 0 200 100" version="1.0" viewBox="0 0 800 376.85" xml:space="preserve" xmlns="http://www.w3.org/2000/svg">
<path d="m71.301 267.21h33.159c-8.9561 19.009-31.377 29.776-50.418 18.138-16.409-10.032-23.066-31.081-20.212-49.404 2.702-17.362 14.906-34.773 33.385-37.147 8.9643-1.1498 18.458 1.3223 25.731 6.677 3.7245 2.7431 6.8618 6.2376 9.2435 10.192 1.659 2.7636 1.2401 4.4062 4.324 4.4062h29.681c-3.2153-23.526-20.836-43.011-43.277-49.766-22.487-6.7715-48.718-2.2626-66.815 12.952-35.2 29.587-35.052 94.813 1.9875 122.88 22.331 16.927 58.927 20.758 79.948-0.2546 0 1.5686-0.54204 11.309 0.46813 11.309h15.953c0.76379 0 12.36 0.0123 12.36-0.0123v-75.377c0-0.61596 0.41475-3.7163-0.33262-3.7163h-60.778c-1.1662 0-4.4062-0.74326-4.4062 0.70219v28.416m480.24-45.216c-5.9789-8.2334-15.711-12.352-25.493-13.978-11.428-1.9054-23.411-1.9095-34.777 0.3819-9.7486 1.9957-19.234 6.4347-25.649 14.241-5.5313 6.7181-7.4367 14.656-7.8145 23.185h33.955c-0.88288 0 2.3406-9.3996 3.125-10.344 5.1043-6.1637 22.06-6.5333 26.211 0.80075 6.5662 11.806-9.1491 13.847-16.914 14.582-11.592 1.1128-24.807 2.3653-35.032 8.4222-19.986 11.843-18.795 44.333 1.236 55.49 15.695 8.7426 39.647 6.2992 53.81-4.4021 0.49277 1.4824-0.93626 6.7838 0.74737 6.7838h31.344c-8e-3 -14.992-0.0205-29.985-0.0287-44.977-4e-3 -8.9356-0.0123-17.871-0.0164-26.803-4e-3 -8.0732 0.33262-16.512-4.7059-23.382m-29.312 52.792c0 7.5394-2.3119 15.826-9.9416 18.943-5.827 2.3817-17.736 3.1086-21.821-2.7513-5.1618-7.3997 1.043-14.557 8.0239-16.68 7.5517-2.2914 16.606-1.2114 23.739-4.7758v5.2644m-365.04 42.345h30.338c1.4208 0 3.7574 0.85824 3.7574-0.85413v-145.29c0-0.49277-6.755-0.21764-7.4326-0.21764-2.2421 0-26.659-0.22996-26.659 0.21764v126.27c-4e-3 6.6236-4e-3 13.247-4e-3 19.875m145.26-94.895c-16.052-16.409-43.803-19.896-64.508-10.989-22.084 9.5022-32.276 31.952-31.422 55.124 0.85003 23.099 13.859 43.943 36.617 50.792 22.068 6.6401 49.269 1.4044 63.559-17.686 16.229-21.67 15.009-57.748-4.246-77.242m-19.916 52.55c-1.351 6.6811-4.8004 13.202-11.161 16.282-5.441 2.6404-13.276 2.7143-18.709 0-13.313-6.6442-13.51-26.408-11.022-38.925 2.5254-13.72 16.339-22.955 29.73-16.319 13.379 6.6278 13.691 26.375 11.161 38.962m145.27-54.344c-14.914-16.183-43.733-19.23-60.241-3.3673v-44.55c0-2.9443-2.123-1.774-4.8743-1.774-2.3448 0-29.192-0.0246-29.192 0.0246v144.88c0 1.2114-0.34905 1.503 0.91162 1.503h29.644c0.66524 0 1.9752 0.37779 1.9752-0.41475v-7.063c9.1039 8.9848 24.651 11.469 36.904 9.6336 13.933-2.086 25.41-11.096 31.899-23.423 11.724-22.273 10.525-56.352-7.0261-75.447m-21.095 54.566c-2.9279 12.59-15.563 23.308-28.572 15.686-12.553-7.3012-13.321-26.359-10.426-38.875 2.9361-12.598 15.785-23.275 28.72-15.662 12.385 7.4942 13.235 26.285 10.278 38.851m168.29 42.124h30.285c1.4208 0 3.7492 0.85824 3.7492-0.85413v-145.29c0-0.49277-6.7427-0.21764-7.4203-0.21764-2.2421 0-26.614-0.22996-26.614 0.21764v146.14" fill="#fff" stroke-width="4.1064"/>
<path d="m798.57 161.75c-7.3012-7.6708-223.71-161.75-223.71-161.75v111.88l135.95 97.962c0.22175 0.1971 6.0241 3.7122 6.4183 8.5578-0.39422 4.8456-6.4183 8.5085-6.4183 8.5085l-59.925 43.052v106.89s140.38-99.983 147.54-107.16l1.5728-1.5522v-104.89z" fill="#e31b23" stroke-width="4.1064"/>
</svg>
