<svg width="600pt" height="316.52pt" version="1.1" viewBox="0 0 600 316.52" xmlns="http://www.w3.org/2000/svg">
 <path d="m506.66 53.736c0.0716 0.0477 0.21481 0.15116 0.28641 0.20686-0.0716-0.0557-0.21481-0.15913-0.28641-0.20686z" fill="#100f0f" stroke-width=".79561"/>
 <path d="m517.78 61.708c0.0716 0.0477 0.21481 0.15912 0.28642 0.20686-0.0716-0.0477-0.21482-0.15912-0.28642-0.20686z" fill="#100f0f" stroke-width=".79561"/>
 <path d="m532.11 72.043c0.0716 0.0477 0.22277 0.15117 0.29438 0.20686-0.0716-0.0557-0.22277-0.15912-0.29438-0.20686z" fill="#100f0f" stroke-width=".79561"/>
 <path d="m546.44 82.377c0.0716 0.0557 0.21482 0.15912 0.28642 0.20686-0.0716-0.0477-0.21481-0.15117-0.28642-0.20686z" fill="#100f0f" stroke-width=".79561"/>
 <path d="m555.18 88.742c0.0796 0.0557 0.22277 0.15912 0.29437 0.20685-0.0716-0.0477-0.21481-0.15116-0.29437-0.20685z" fill="#100f0f" stroke-width=".79561"/>
 <path d="m581.43 107.85c0.0716 0.0557 0.21481 0.15913 0.28642 0.21482-0.0716-0.0557-0.21482-0.15912-0.28642-0.21482z" fill="#100f0f" stroke-width=".79561"/>
 <path d="m598.16 120.56c0.0636 0.0557 0.1989 0.16707 0.26255 0.23072-0.0636-0.0636-0.1989-0.17503-0.26255-0.23072z" fill="#100f0f" stroke-width=".79561"/>
 <path d="m505.1 137.34c0.0716 0.0557 0.21481 0.15912 0.28642 0.21482-0.0716-0.0557-0.21482-0.15913-0.28642-0.21482z" fill="#fff" stroke-width=".79561"/>
 <path d="m519.43 147.68c0.0716 0.0557 0.21482 0.15912 0.28642 0.21481-0.0716-0.0557-0.21481-0.15912-0.28642-0.21481z" fill="#100f0f" stroke-width=".79561"/>
 <path d="m521.81 178.07c0.0716-0.0477 0.21482-0.15912 0.28642-0.20685-0.0716 0.0477-0.21481 0.15912-0.28642 0.20685z" fill="#100f0f" stroke-width=".79561"/>
 <path d="m569.49 224.27c0.0716-0.0557 0.21481-0.15913 0.28642-0.21482-0.0716 0.0557-0.21482 0.15912-0.28642 0.21482z" fill="#100f0f" stroke-width=".79561"/>
 <path d="m546.43 240.98c0.0716-0.0557 0.21481-0.15913 0.28642-0.21482-0.0716 0.0557-0.21482 0.15912-0.28642 0.21482z" fill="#100f0f" stroke-width=".79561"/>
 <path d="m53.476 200.41h24.869c-6.7171 14.256-23.533 22.332-37.814 13.604-12.307-7.524-17.299-23.311-15.159-37.053 2.0265-13.021 11.18-26.08 25.039-27.86 6.7232-0.86235 13.844 0.9917 19.298 5.0078 2.7934 2.0573 5.1464 4.6782 6.9327 7.6441 1.2442 2.0727 0.93009 3.3046 3.243 3.3046h22.261c-2.4115-17.644-15.627-32.258-32.458-37.324-16.865-5.0786-36.539-1.697-50.112 9.7137-26.4 22.19-26.289 71.11 1.4906 92.163 16.748 12.695 44.195 15.568 59.961-0.19095 0 1.1765-0.40653 8.4818 0.35109 8.4818h11.965c0.57285 0 9.2702 9e-3 9.2702-9e-3v-56.533c0-0.46197 0.31106-2.7872-0.24947-2.7872h-45.585c-0.87466 0-3.3046-0.55744-3.3046 0.52664v21.312m360.18-33.912c-4.4842-6.175-11.783-9.264-19.119-10.484-8.5711-1.429-17.558-1.4321-26.083 0.28643-7.3115 1.4968-14.426 4.826-19.236 10.681-4.1485 5.0386-5.5775 10.992-5.8609 17.389h25.467c-0.66216 0 1.7555-7.0497 2.3437-7.758 3.8282-4.6228 16.545-4.9 19.658 0.60056 4.9246 8.8544-6.8618 10.385-12.686 10.936-8.6943 0.83463-18.605 1.774-26.274 6.3167-14.989 8.8822-14.096 33.25 0.92702 41.617 11.771 6.5569 29.736 4.7244 40.358-3.3016 0.36958 1.1118-0.7022 5.0878 0.56053 5.0878h23.508c-6e-3 -11.244-0.0154-22.489-0.0215-33.733-3e-3 -6.7017-9e-3 -13.403-0.0123-20.102-3e-3 -6.0549 0.24947-12.384-3.5295-17.536m-21.984 39.594c0 5.6545-1.7339 11.87-7.4562 14.207-4.3702 1.7863-13.302 2.3314-16.366-2.0635-3.8713-5.5498 0.78227-10.918 6.018-12.51 5.6638-1.7185 12.455-0.90855 17.804-3.5818v3.9483m-273.78 31.759h22.754c1.0656 0 2.818 0.64368 2.818-0.6406v-108.97c0-0.36957-5.0663-0.16322-5.5744-0.16322-1.6816 0-19.994-0.17247-19.994 0.16322v94.701c-3e-3 4.9677-3e-3 9.9355-3e-3 14.906m108.95-71.171c-12.039-12.307-32.852-14.922-48.381-8.2416-16.563 7.1267-24.207 23.964-23.567 41.343 0.63752 17.324 10.394 32.957 27.463 38.094 16.551 4.98 36.952 1.0533 47.669-13.265 12.171-16.252 11.257-43.311-3.1845-57.931m-14.937 39.412c-1.0133 5.0108-3.6003 9.9016-8.3709 12.211-4.0808 1.9803-9.957 2.0358-14.032 0-9.9847-4.9831-10.133-19.806-8.2662-29.193 1.8941-10.29 12.255-17.216 22.298-12.239 10.034 4.9708 10.268 19.782 8.3709 29.221m108.95-40.758c-11.186-12.138-32.8-14.423-45.181-2.5254v-33.413c0-2.2082-1.5923-1.3305-3.6557-1.3305-1.7586 0-21.894-0.0185-21.894 0.0185v108.66c0 0.90855-0.26179 1.1272 0.68371 1.1272h22.233c0.49893 0 1.4814 0.28334 1.4814-0.31107v-5.2973c6.8279 6.7386 18.488 8.6019 27.678 7.2252 10.45-1.5645 19.058-8.3216 23.924-17.567 8.7928-16.705 7.8936-42.264-5.2695-56.585m-15.821 40.924c-2.1959 9.4427-11.672 17.481-21.429 11.765-9.415-5.4759-9.9909-19.769-7.8196-29.157 2.2021-9.4488 11.839-17.456 21.54-11.746 9.2887 5.6206 9.9262 19.714 7.7088 29.138m126.22 31.593h22.714c1.0656 0 2.8119 0.64368 2.8119-0.6406v-108.97c0-0.36958-5.057-0.16323-5.5652-0.16323-1.6816 0-19.96-0.17247-19.96 0.16323v109.61" fill="#fff" stroke-width="3.0798"/>
 <path d="m598.93 121.31c-5.4759-5.7531-167.78-121.31-167.78-121.31v83.912l101.97 73.472c0.16631 0.14782 4.5181 2.7841 4.8137 6.4183-0.29566 3.6342-4.8137 6.3814-4.8137 6.3814l-44.944 32.289v80.167s105.29-74.987 110.65-80.371l1.1796-1.1642v-78.667z" fill="#e31b23" stroke-width="3.0798"/>
 <g transform="translate(-9.4845 -91.093)" fill="#fff" stroke-width=".79561">
  <path d="m353.86 343.73v63.876h15.674v-25.542h22.627v25.542h15.673v-63.876h-15.673v23.909h-22.627v-23.909z"/>
  <path d="m438.59 343.73c23.62 0 31.481 7.3086 31.481 31.938 0 24.715-9.149 31.938-31.191 31.938h-22.155v-63.875zm-6.3424 14.079v35.389h10.847c8.2636 0 11.446-5.6518 11.446-17.694 0-12.605-3.2266-17.695-11.446-17.695z"/>
 </g>
</svg>
