<svg width="1992.5pt" height="338.52pt" version="1.1" viewBox="0 0 1992.5 338.52" xmlns="http://www.w3.org/2000/svg" xmlns:xlink="http://www.w3.org/1999/xlink">
 <defs>
  <linearGradient id="SVGID_1_" x1="341.24" x2="343.79" y1="771.91" y2="625.71" gradientTransform="matrix(2.3369 0 0 -2.3369 574.61 1880.6)" gradientUnits="userSpaceOnUse">
   <stop stop-color="#D8E3EA" offset=".097"/>
   <stop stop-color="#A0A8AE" offset=".49"/>
   <stop stop-color="#878E93" offset=".672"/>
   <stop stop-color="#70787C" offset=".842"/>
  </linearGradient>
  <linearGradient id="SVGID_2_" x1="285.13" x2="345.93" y1="663.57" y2="732.54" gradientTransform="matrix(2.3369 0 0 -2.3369 317.14 1800.2)" gradientUnits="userSpaceOnUse">
   <stop stop-color="#fff" offset=".128"/>
   <stop stop-color="#545E60" offset=".4"/>
   <stop stop-color="#545E60" offset=".6"/>
   <stop stop-color="#D5D9D7" offset="1"/>
  </linearGradient>
  <linearGradient id="SVGID_3_" x1="438.58" x2="438.58" y1="685.24" y2="627.5" gradientTransform="matrix(2.3369 0 0 -2.3369 317.14 1800.2)" gradientUnits="userSpaceOnUse">
   <stop stop-color="#657173" offset="0"/>
   <stop stop-color="#545E60" offset="1"/>
  </linearGradient>
  <linearGradient id="SVGID_4_" x1="190.21" x2="235.7" y1="684.48" y2="684.48" gradientTransform="matrix(2.3369 0 0 -2.3369 317.14 1800.2)" gradientUnits="userSpaceOnUse">
   <stop stop-color="#79868B" offset="0"/>
   <stop stop-color="#545E60" offset="1"/>
  </linearGradient>
  <linearGradient id="SVGID_5_" x1="239.17" x2="188.97" y1="716.98" y2="685.85" gradientTransform="matrix(2.3369 0 0 -2.3369 317.14 1800.2)" gradientUnits="userSpaceOnUse">
   <stop stop-color="#fff" offset=".2"/>
   <stop stop-color="#545E60" offset="1"/>
  </linearGradient>
  <linearGradient id="SVGID_6_" x1="244.16" x2="159.66" y1="749.72" y2="665.22" gradientTransform="matrix(2.3369 0 0 -2.3369 317.14 1800.2)" gradientUnits="userSpaceOnUse">
   <stop stop-color="#fff" offset="0"/>
   <stop stop-color="#545E60" offset=".253"/>
   <stop stop-color="#545E60" offset=".6"/>
   <stop stop-color="#D5D9D7" offset="1"/>
  </linearGradient>
  <linearGradient id="SVGID_7_" x1="318.12" x2="318.12" y1="665.75" y2="625.87" gradientTransform="matrix(2.3369 0 0 -2.3369 317.14 1800.2)" gradientUnits="userSpaceOnUse">
   <stop stop-color="#79868B" offset="0"/>
   <stop stop-color="#657173" offset=".527"/>
   <stop stop-color="#545E60" offset="1"/>
  </linearGradient>
  <linearGradient id="SVGID_8_" x1="405.55" x2="378.71" y1="766.83" y2="659.18" gradientTransform="matrix(2.3369 0 0 -2.3369 317.14 1800.2)" gradientUnits="userSpaceOnUse">
   <stop stop-color="#EFEAE7" offset="0"/>
   <stop stop-color="#F5F3F0" offset=".068"/>
   <stop stop-color="#FCFCFB" offset=".193"/>
   <stop stop-color="#fff" offset=".54"/>
   <stop stop-color="#D0D0D1" offset=".626"/>
   <stop stop-color="#A3A7AA" offset=".747"/>
   <stop stop-color="#878D91" offset=".854"/>
   <stop stop-color="#777F83" offset=".942"/>
   <stop stop-color="#717A7E" offset="1"/>
  </linearGradient>
  <linearGradient id="SVGID_9_" x1="498.23" x2="499.7" y1="725.17" y2="725.17" gradientTransform="matrix(2.3369 0 0 -2.3369 317.14 1800.2)" gradientUnits="userSpaceOnUse">
   <stop stop-color="#E8E7E7" offset="0"/>
   <stop stop-color="#F1F0F0" offset=".278"/>
   <stop stop-color="#fff" offset=".71"/>
   <stop stop-color="#D4D5D7" offset=".758"/>
   <stop stop-color="#A5A8AD" offset=".838"/>
   <stop stop-color="#878D93" offset=".907"/>
   <stop stop-color="#767F85" offset=".964"/>
   <stop stop-color="#707A80" offset="1"/>
  </linearGradient>
  <linearGradient id="SVGID_10_" x1="498.23" x2="564.58" y1="755.13" y2="755.13" gradientTransform="matrix(2.3369 0 0 -2.3369 317.14 1800.2)" gradientUnits="userSpaceOnUse">
   <stop stop-color="#778086" offset="0"/>
   <stop stop-color="#5D6064" offset="1"/>
  </linearGradient>
  <linearGradient id="SVGID_11_" x1="507.51" x2="547.13" y1="693.87" y2="721.71" gradientTransform="matrix(2.3369 0 0 -2.3369 317.14 1800.2)" gradientUnits="userSpaceOnUse">
   <stop stop-color="#BCBCBE" offset="0"/>
   <stop stop-color="#BEBEC0" offset=".009"/>
   <stop stop-color="#D3D2D4" offset=".124"/>
   <stop stop-color="#E5E4E4" offset=".253"/>
   <stop stop-color="#F2F1F1" offset=".405"/>
   <stop stop-color="#FBFBFB" offset=".602"/>
   <stop stop-color="#fff" offset="1"/>
  </linearGradient>
  <linearGradient id="SVGID_12_" x1="498.23" x2="556.48" y1="695.87" y2="695.87" gradientTransform="matrix(2.3369 0 0 -2.3369 317.14 1800.2)" gradientUnits="userSpaceOnUse">
   <stop stop-color="#657173" offset="0"/>
   <stop stop-color="#545E60" offset="1"/>
  </linearGradient>
  <linearGradient id="SVGID_13_" x1="222.6" x2="161.35" y1="764.02" y2="632.67" gradientTransform="matrix(2.3369 0 0 -2.3369 317.14 1800.2)" gradientUnits="userSpaceOnUse">
   <stop stop-color="#EAEAEE" offset="0"/>
   <stop stop-color="#E6E5E9" offset=".107"/>
   <stop stop-color="#D8D8DC" offset=".201"/>
   <stop stop-color="#C4C5C9" offset=".29"/>
   <stop stop-color="#ACAEB2" offset=".376"/>
   <stop stop-color="#8E9397" offset=".459"/>
   <stop stop-color="#6F787A" offset=".54"/>
   <stop stop-color="#657173" offset=".562"/>
   <stop stop-color="#545E60" offset="1"/>
  </linearGradient>
  <linearGradient id="SVGID_14_" x1="257.65" x2="264" y1="670.55" y2="670.55" gradientTransform="matrix(2.3369 0 0 -2.3369 317.14 1800.2)" gradientUnits="userSpaceOnUse">
   <stop stop-color="#79868B" offset="0"/>
   <stop stop-color="#545E60" offset="1"/>
  </linearGradient>
  <linearGradient id="SVGID_15_" x1="325.33" x2="312.2" y1="769.59" y2="695.09" gradientTransform="matrix(1.4279 0 0 -1.4279 -.214 1392.5)" gradientUnits="userSpaceOnUse">
   <stop stop-color="#fff" offset=".199"/>
   <stop stop-color="#fff" offset=".382"/>
   <stop stop-color="#545E60" offset="1"/>
  </linearGradient>
  <linearGradient id="SVGID_16_" x1="382.02" x2="382.02" y1="768.64" y2="714.22" gradientTransform="matrix(1.4279 0 0 -1.4279 -.214 1392.5)" gradientUnits="userSpaceOnUse">
   <stop stop-color="#fff" offset=".014"/>
   <stop stop-color="#F5F5F5" offset=".034"/>
   <stop stop-color="#E7E7E7" offset=".093"/>
   <stop stop-color="#DEDFE0" offset=".164"/>
   <stop stop-color="#DCDDDE" offset=".285"/>
   <stop stop-color="#B6B6B7" offset=".376"/>
   <stop stop-color="#929395" offset=".499"/>
   <stop stop-color="#797B7D" offset=".624"/>
   <stop stop-color="#696C6E" offset=".748"/>
   <stop stop-color="#5F6466" offset=".874"/>
   <stop stop-color="#5C6163" offset="1"/>
  </linearGradient>
  <linearGradient id="SVGID_17_" x1="465.58" x2="410.62" y1="650.73" y2="633.82" gradientTransform="matrix(1.4279 0 0 -1.4279 -.214 1392.5)" gradientUnits="userSpaceOnUse">
   <stop stop-color="#fff" offset=".2"/>
   <stop stop-color="#545E60" offset="1"/>
  </linearGradient>
  <linearGradient id="SVGID_18_" x1="532.57" x2="447.14" y1="787.72" y2="644.97" gradientTransform="matrix(1.4279 0 0 -1.4279 -.214 1392.5)" gradientUnits="userSpaceOnUse">
   <stop stop-color="#fff" offset=".153"/>
   <stop stop-color="#D8D8D8" offset=".241"/>
   <stop stop-color="#8A8C8E" offset=".519"/>
   <stop stop-color="#62696B" offset=".718"/>
   <stop stop-color="#545E60" offset=".816"/>
  </linearGradient>
  <linearGradient id="SVGID_19_" x1="-24.308" x2="-114.75" y1="678.2" y2="702.43" gradientTransform="matrix(1.4279 0 0 -1.4279 -.214 1392.5)" gradientUnits="userSpaceOnUse">
   <stop stop-color="#F7914F" offset="0"/>
   <stop stop-color="#E95E34" offset=".454"/>
   <stop stop-color="#C6482D" offset=".719"/>
   <stop stop-color="#A93D28" offset="1"/>
  </linearGradient>
  <linearGradient id="SVGID_20_" x1="-32.861" x2="-47.094" y1="659.38" y2="763.28" gradientTransform="matrix(1.4279 0 0 -1.4279 -.214 1392.5)" gradientUnits="userSpaceOnUse">
   <stop stop-color="#E93527" offset="0"/>
   <stop stop-color="#CB243C" offset=".413"/>
   <stop stop-color="#851E24" offset="1"/>
  </linearGradient>
  <linearGradient id="SVGID_21_" x1="31.747" x2="48.812" y1="636.95" y2="733.73" gradientTransform="matrix(1.4279 0 0 -1.4279 -.214 1392.5)" gradientUnits="userSpaceOnUse">
   <stop stop-color="#5EA1D6" offset="0"/>
   <stop stop-color="#3763AF" offset=".582"/>
   <stop stop-color="#2856A6" offset=".714"/>
   <stop stop-color="#273D82" offset="1"/>
  </linearGradient>
  <linearGradient id="SVGID_22_" x1="94.371" x2="-3.6777" y1="655.86" y2="655.86" gradientTransform="matrix(1.4279 0 0 -1.4279 -.214 1392.5)" gradientUnits="userSpaceOnUse">
   <stop stop-color="#225E2F" offset="0"/>
   <stop stop-color="#2A8240" offset=".357"/>
   <stop stop-color="#60BC60" offset="1"/>
  </linearGradient>
  <linearGradient id="SVGID_23_" x1="-39.612" x2="-126.18" y1="617.69" y2="667.67" gradientTransform="matrix(1.4279 0 0 -1.4279 -.214 1392.5)" gradientUnits="userSpaceOnUse">
   <stop stop-color="#FCDBAC" offset="0"/>
   <stop stop-color="#FAAC23" offset=".602"/>
   <stop stop-color="#D58F2A" offset=".893"/>
  </linearGradient>
  <linearGradient id="SVGID_24_" x1="-2.0352" x2="12.56" y1="659.41" y2="763.25" gradientTransform="matrix(1.4279 0 0 -1.4279 -.214 1392.5)" gradientUnits="userSpaceOnUse">
   <stop stop-color="#857CBA" offset="0"/>
   <stop stop-color="#514A7A" offset=".699"/>
   <stop stop-color="#393258" offset="1"/>
  </linearGradient>
  <linearGradient id="SVGID_25_" x1="2.063" x2="67.402" y1="622.77" y2="688.11" gradientTransform="matrix(1.4279 0 0 -1.4279 -.214 1392.5)" gradientUnits="userSpaceOnUse">
   <stop stop-color="#207039" offset="0"/>
   <stop stop-color="#226C37" offset=".142"/>
   <stop stop-color="#245F32" offset=".366"/>
   <stop stop-color="#214A2B" offset=".643"/>
   <stop stop-color="#182F1D" offset=".962"/>
   <stop stop-color="#172C1B" offset=".995"/>
  </linearGradient>
  <linearGradient id="SVGID_26_" x1="-.9614" x2="58.91" y1="681.5" y2="681.5" gradientTransform="matrix(1.4278 -.016 -.0157 -1.4039 6.9761 1370)" gradientUnits="userSpaceOnUse">
   <stop stop-color="#254D84" offset=".005"/>
   <stop stop-color="#244B80" offset=".215"/>
   <stop stop-color="#247" offset=".456"/>
   <stop stop-color="#1E3A67" offset=".711"/>
   <stop stop-color="#162B53" offset=".974"/>
   <stop stop-color="#152A51" offset="1"/>
  </linearGradient>
  <linearGradient id="SVGID_27_" x1="-74.428" x2="-36.956" y1="732.62" y2="732.62" gradientTransform="matrix(1.4278 .0273 .027 -1.4151 -12.138 1415.8)" gradientUnits="userSpaceOnUse">
   <stop stop-color="#5D171C" offset="0"/>
   <stop stop-color="#872C33" offset=".747"/>
   <stop stop-color="#97333B" offset="1"/>
  </linearGradient>
  <linearGradient id="SVGID_28_" x1="-77.425" x2="-49.323" y1="671.21" y2="711.35" gradientTransform="matrix(1.4279 0 0 -1.4279 -.214 1392.5)" gradientUnits="userSpaceOnUse">
   <stop stop-color="#fff" offset="0"/>
   <stop stop-color="#D8E3EA" offset=".6"/>
   <stop stop-color="#757F82" offset="1"/>
  </linearGradient>
  <linearGradient id="SVGID_29_" x1="-68.252" x2="-19.665" y1="710.14" y2="710.14" gradientTransform="matrix(1.4279 0 0 -1.4279 -.214 1392.5)" gradientUnits="userSpaceOnUse">
   <stop stop-color="#fff" offset="0"/>
   <stop stop-color="#D8E3EA" offset=".362"/>
   <stop stop-color="#757F82" offset="1"/>
  </linearGradient>
  <linearGradient id="SVGID_30_" x1="43.055" x2="15.071" y1="669.9" y2="712.99" gradientTransform="matrix(1.4279 0 0 -1.4279 -.214 1392.5)" gradientUnits="userSpaceOnUse">
   <stop stop-color="#fff" offset="0"/>
   <stop stop-color="#D8E3EA" offset=".6"/>
   <stop stop-color="#757F82" offset="1"/>
  </linearGradient>
  <linearGradient id="SVGID_31_" x1="76.254" x2="22.303" y1="623.74" y2="667.43" gradientTransform="matrix(1.4279 0 0 -1.4279 -.214 1392.5)" gradientUnits="userSpaceOnUse">
   <stop stop-color="#fff" offset="0"/>
   <stop stop-color="#97A2A7" offset="1"/>
  </linearGradient>
  <linearGradient id="SVGID_32_" x1="-79.037" x2="-79.037" y1="631.64" y2="680.15" gradientTransform="matrix(1.4279 0 0 -1.4279 -.214 1392.5)" gradientUnits="userSpaceOnUse">
   <stop stop-color="#C1C6CA" offset="0"/>
   <stop stop-color="#fff" offset=".102"/>
   <stop stop-color="#A9B3B7" offset=".847"/>
   <stop stop-color="#97A2A7" offset="1"/>
  </linearGradient>
  <linearGradient id="SVGID_33_" x1="23.254" x2="-22.925" y1="704.47" y2="719.47" gradientTransform="matrix(1.4279 0 0 -1.4279 -.214 1392.5)" gradientUnits="userSpaceOnUse">
   <stop stop-color="#fff" offset="0"/>
   <stop stop-color="#D8E3EA" offset=".362"/>
   <stop stop-color="#757F82" offset="1"/>
  </linearGradient>
  <linearGradient id="SVGID_34_" x1="-65.976" x2="-33.427" y1="692.92" y2="692.92" gradientTransform="matrix(1.4279 0 0 -1.4279 -.214 1392.5)" gradientUnits="userSpaceOnUse">
   <stop stop-color="#fff" offset="0"/>
   <stop stop-color="#D8E3EA" offset=".362"/>
   <stop stop-color="#757F82" offset="1"/>
  </linearGradient>
  <linearGradient id="SVGID_35_" x1="-31.609" x2="-65.098" y1="677.47" y2="677.47" gradientTransform="matrix(1.4279 0 0 -1.4279 -.214 1392.5)" gradientUnits="userSpaceOnUse">
   <stop stop-color="#C8DADB" offset="0"/>
   <stop stop-color="#949FA1" offset="1"/>
  </linearGradient>
  <linearGradient id="SVGID_36_" x1="-27.99" x2="-91.103" y1="653.16" y2="653.16" gradientTransform="matrix(1.4279 0 0 -1.4279 -.214 1392.5)" gradientUnits="userSpaceOnUse">
   <stop stop-color="#fff" offset="0"/>
   <stop stop-color="#A2ABB0" offset="1"/>
  </linearGradient>
  <linearGradient id="SVGID_37_" x1="-13.062" x2="-.7745" y1="697.39" y2="697.39" gradientTransform="matrix(1.4279 0 0 -1.4279 -.214 1392.5)" gradientUnits="userSpaceOnUse">
   <stop stop-color="#fff" offset="0"/>
   <stop stop-color="#D8E3EA" offset=".055"/>
   <stop stop-color="#97A2A7" offset="1"/>
  </linearGradient>
  <linearGradient id="SVGID_38_" x1="-3.001" x2="30.485" y1="677.56" y2="677.56" gradientTransform="matrix(1.4279 0 0 -1.4279 -.214 1392.5)" gradientUnits="userSpaceOnUse">
   <stop stop-color="#C8DADB" offset="0"/>
   <stop stop-color="#909CA1" offset="1"/>
  </linearGradient>
  <linearGradient id="SVGID_39_" x1="-6.7163" x2="56.428" y1="653.24" y2="653.24" gradientTransform="matrix(1.4279 0 0 -1.4279 -.214 1392.5)" gradientUnits="userSpaceOnUse">
   <stop stop-color="#fff" offset="0"/>
   <stop stop-color="#AABABC" offset="1"/>
  </linearGradient>
  <radialGradient id="SVGID_40_" cx="-17.418" cy="733.54" r="97.008" gradientTransform="matrix(1.4279 0 0 -7.061 -.214 5575.1)" gradientUnits="userSpaceOnUse">
   <stop stop-color="#fff" offset="0"/>
   <stop stop-color="#D8E3EA" offset=".5"/>
   <stop stop-color="#ABB2B5" offset="1"/>
  </radialGradient>
  <linearGradient id="SVGID_41_" x1="76.438" x2="53.326" y1="687.13" y2="741.58" gradientTransform="matrix(1.4279 0 0 -1.4279 -.214 1392.5)" gradientUnits="userSpaceOnUse">
   <stop stop-color="#525B5E" offset="0"/>
   <stop stop-color="#fff" offset=".11"/>
   <stop stop-color="#D8E3EA" offset=".85"/>
   <stop stop-color="#6C7579" offset="1"/>
  </linearGradient>
  <linearGradient id="SVGID_42_" x1="-17.349" x2="39.688" y1="753.02" y2="751.03" gradientTransform="matrix(1.4279 0 0 -1.4279 -.214 1392.5)" gradientUnits="userSpaceOnUse">
   <stop stop-color="#858E95" offset="0"/>
   <stop stop-color="#fff" offset=".15"/>
   <stop stop-color="#D8E3EA" offset=".9"/>
   <stop stop-color="#89969B" offset="1"/>
  </linearGradient>
  <linearGradient id="SVGID_43_" x1="-18.671" x2="-76.308" y1="760.46" y2="748.2" gradientTransform="matrix(1.4279 0 0 -1.4279 -.214 1392.5)" gradientUnits="userSpaceOnUse">
   <stop stop-color="#858E95" offset="0"/>
   <stop stop-color="#fff" offset=".15"/>
   <stop stop-color="#D8E3EA" offset=".9"/>
   <stop stop-color="#89969B" offset="1"/>
  </linearGradient>
  <linearGradient id="SVGID_44_" x1="-117.94" x2="-84.272" y1="692.53" y2="742.44" gradientTransform="matrix(1.4279 0 0 -1.4279 -.214 1392.5)" gradientUnits="userSpaceOnUse">
   <stop stop-color="#525B5E" offset="0"/>
   <stop stop-color="#fff" offset=".11"/>
   <stop stop-color="#D8E3EA" offset=".85"/>
   <stop stop-color="#6C7579" offset="1"/>
  </linearGradient>
  <linearGradient id="SVGID_45_" x1="-17.308" x2="-17.308" y1="625.98" y2="685.82" gradientTransform="matrix(1.4279 0 0 -1.4279 -.214 1392.5)" gradientUnits="userSpaceOnUse">
   <stop stop-color="#232626" offset="0"/>
   <stop stop-color="#97A2A7" offset=".104"/>
   <stop stop-color="#F3F7F7" offset=".423"/>
   <stop stop-color="#F3F7F7" offset=".736"/>
   <stop stop-color="#97A2A7" offset="1"/>
  </linearGradient>
  <linearGradient id="SVGID_46_" x1="-17.308" x2="-17.308" y1="625.98" y2="770.16" gradientTransform="matrix(1.4279 0 0 -1.4279 -.214 1392.5)" gradientUnits="userSpaceOnUse">
   <stop stop-color="#fff" offset="0"/>
   <stop stop-color="#4D5757" offset=".449"/>
  </linearGradient>
  <linearGradient id="linearGradient6040" x1="341.24" x2="343.79" y1="771.91" y2="625.71" gradientTransform="matrix(2.3369 0 0 -2.3369 317.14 1800.2)" gradientUnits="userSpaceOnUse" xlink:href="#SVGID_1_"/>
  <linearGradient id="linearGradient4999" x1="2067.2" x2="2067.2" y1="82.704" y2="416.98" gradientUnits="userSpaceOnUse" xlink:href="#SVGID_1_"/>
  <linearGradient id="linearGradient5015" x1="2067.2" x2="2067.2" y1="91.438" y2="285.18" gradientUnits="userSpaceOnUse">
   <stop stop-color="#d8e3ea" offset="0"/>
   <stop stop-color="#8e959b" offset="1"/>
  </linearGradient>
 </defs>
 <path d="m1054.6 335.75c-52.869 0-101-24.066-132.96-65.886 13.415-35.116 11.047-64.31 11.047-65.495l-3.9441-0.39441c-16.965 76.146-85.221 131.78-162.94 131.78-91.928 0-166.89-74.961-166.89-167.28 0-93.111 74.567-166.1 170.04-166.1 56.421 0 96.268 28.406 112.05 41.821l-22.884 39.849c-0.7872 1.1832-4.733 5.129-9.862 5.129-1.972 0-3.9441-0.78882-5.9161-1.9737-24.069-16.965-51.292-26.828-74.568-26.828-58.785 0-104.95 47.739-104.95 108.5 0 60.759 45.374 108.5 103.37 108.5 53.264 0 87.983-37.481 99.03-74.567l0.7888-2.3665h-101.4l20.514-46.555c1.1849-1.9737 4.3402-7.1027 11.441-7.1027h92.32l0.3977-1.5776c9.4675-69.043 70.225-142.43 164.92-142.43 75.752 0 140.46 48.923 160.97 122.31l3.9442-0.78883c-0.7872-10.652-3.5497-38.269-18.148-68.649v-49.712h44.583c10.652 0 19.331 8.6787 19.331 19.333v247.77h120.73c6.3106 0 10.652 3.9458 11.836 7.4971l17.754 41.032 3.9474-0.78883v-276.97c0-20.122 16.174-37.482 36.297-37.482h177.94l-22.094 50.896c-2.3681 4.7362-7.4987 7.8915-12.628 7.8915h-115.6v82.066h131.38l-20.122 45.37c-2.3665 4.7362-7.4955 7.4971-12.626 7.4971h-98.634v112.05c0 10.654-8.6803 19.333-19.333 19.333h-226.07c-20.123 0-36.693-16.572-36.693-36.692v-44.976l-3.5514 5.9162c-11.834 18.544-56.021 80.09-142.82 80.09zm0-275.39c-56.419 0-102.58 48.527-102.58 108.5 0 59.972 46.163 108.5 102.58 108.5 56.419 0 102.58-48.527 102.58-108.5-0.3928-59.969-46.159-108.5-102.58-108.5z" fill="url(#linearGradient6040)" stroke-width="1.6366"/>
 <path d="m1054.6 58.787c-57.209 0-104.16 49.318-104.16 110.08 0 60.759 46.555 110.08 104.16 110.08 57.206 0 103.76-49.318 103.76-110.08 0-60.757-46.555-110.08-103.76-110.08zm0 216.6c-55.237 0-100.61-47.74-100.61-106.53 0-58.784 44.978-106.52 100.61-106.52 55.627 0 100.61 47.74 100.61 106.52-0.3944 58.787-45.372 106.53-100.61 106.53z" fill="url(#SVGID_2_)" stroke-width="1.6366"/>
 <path d="m1199 256.45v38.666c0 21.305 17.359 38.664 38.666 38.664h226.07c11.837 0 21.306-9.4675 21.306-21.305v-110.08l-3.5497-3.5514v113.63c0 9.862-8.2859 18.148-18.15 18.148h-225.68c-19.333 0-35.116-15.783-35.116-35.507v-50.896z" fill="url(#SVGID_3_)" stroke-width="1.6366"/>
 <path d="m868.01 198.85h-101l-5.5234 3.5514h101.79l4.7362-3.5514" fill="url(#SVGID_4_)" stroke-width="1.6366"/>
 <path d="m767 198.85 19.333-44.583c1.1849-2.3665 3.9458-6.3122 10.258-6.3122h93.9l-3.1569-3.5497h-90.743c-8.2859 0-12.232 5.9178-13.413 8.2859l-21.701 49.711z" fill="url(#SVGID_5_)" stroke-width="1.6366"/>
 <path d="m866.82 203.19c-11.047 37.875-46.159 75.75-100.21 75.75-58.787 0-104.95-48.527-104.95-110.08 0-61.546 46.555-110.08 105.74-110.08 24.066 0 51.29 9.8636 75.75 27.223 1.5777 1.1832 3.5514 1.5776 5.129 1.5776 4.3385 0 7.8899-3.5513 8.682-4.7346l22.094-38.666 4.3369-0.78882-23.671 41.032c-1.5792 2.7625-9.8619 10.26-18.937 3.9474-23.673-16.966-50.5-26.83-73.78-26.83-57.601 0-102.58 46.95-102.58 106.53 0 59.97 44.583 106.53 101.4 106.53 52.077 0 86.404-36.299 97.056-73.385l4.7362-3.5497" fill="url(#SVGID_6_)" stroke-width="1.6366"/>
 <path d="m1202.2 244.22-6.3138 10.258c-11.44 18.542-55.234 79.301-141.64 79.301-52.077 0-99.819-23.673-131.38-64.703l-3.9441 0.39278c32.353 43.006 81.275 67.467 135.32 67.467 69.043 0 119.15-39.849 144.4-80.879z" fill="url(#SVGID_7_)" stroke-width="1.6366"/>
 <path d="m1202.2 7.4971h43.004c9.8619 0 18.15 7.8899 18.15 18.15v249.35l3.1553-3.5497v-246.19c0-11.836-9.4692-21.305-21.305-21.305h-46.555z" fill="url(#SVGID_8_)" stroke-width="1.6366"/>
 <path d="m1485.1 144.8v-78.118l-3.5497-3.5514v84.825z" fill="url(#SVGID_9_)" stroke-width="1.6366"/>
 <path d="m1631 7.4971-21.305 48.527c-2.3681 4.3402-6.7083 7.1011-11.443 7.1011h-117.18l3.5513 3.5513h113.63c5.9195 0 11.837-3.5513 14.598-8.6803l23.278-53.656z" fill="url(#SVGID_10_)" stroke-width="1.6366"/>
 <path d="m1481.5 147.95h130.59l5.5234-3.1553h-132.57z" fill="url(#SVGID_11_)" stroke-width="1.6366"/>
 <path d="m1612.1 147.95-19.333 44.189c-1.972 3.9441-6.705 7.101-11.44 7.101h-100.21l3.5514 3.5514h96.66c5.9161 0 11.836-3.5514 14.598-8.6803l21.306-48.923z" fill="url(#SVGID_12_)" stroke-width="1.6366"/>
 <path d="m928.37 197.66-1.1849 5.9162c-16.965 75.752-84.823 130.59-161.76 130.59-91.137 0-165.31-74.172-165.31-165.71 0-92.322 74.172-164.92 168.86-164.92 54.841 0 93.901 27.223 110.08 41.032l4.3369-0.78719c-17.357-15.387-58.391-43.4-114.42-43.4-96.66 0-172.02 73.778-172.02 168.07 0 93.112 75.75 169.26 168.86 169.26 78.514 0 147.95-56.025 164.92-133.35 0 0-0.3944-5.5234-0.7872-7.4955-1.5809 0-1.5809 0.78882-1.5809 0.78882z" fill="url(#SVGID_13_)" stroke-width="1.6366"/>
 <path d="m933.89 203.98-0.3928-5.9178s-0.7904-1.5776-2.7625-1.5776h-1.1832c0.3944 2.3665 0.7871 7.4955 0.7871 7.4955s2.7626 29.984-11.047 65.89l3.9458-0.39605c13.019-35.114 10.652-64.309 10.652-65.494z" fill="url(#SVGID_14_)" stroke-width="1.6366"/>
 <g transform="matrix(1.6366 0 0 1.6366 317.49 -478.82)">
  <path d="m450.41 292.82c-55.931 0-95.949 42.188-101.98 88.234l1.928 2.17 0.242-1.929c3.133-22.661 14.222-44.117 31.82-60.028 18.805-17.117 42.431-26.277 68.226-26.277 22.903 0 44.358 7.473 62.198 21.214 16.875 13.259 29.412 32.063 35.197 52.795l0.481 2.17s0.241 1.205 0.965 1.447c0.724 0.241 1.205 0.241 1.445 0.241-0.24-1.688-0.964-4.339-0.964-4.339-12.293-43.153-51.107-75.698-99.562-75.698z" fill="url(#SVGID_15_)"/>
  <path d="m551.9 368.28c-0.481-6.509-2.17-23.626-11.09-41.948v-29.17l-2.169-2.169v31.581c9.16 18.563 10.849 35.679 11.089 41.706 0 0 0.724 2.893 0.965 4.339 0.24 0 1.205-0.242 1.205-0.964z" fill="url(#SVGID_16_)"/>
 </g>
 <g transform="matrix(1.6366 0 0 1.6366 317.49 -478.82)">
  <path d="m672.2 491.71h0.965l-1.207-2.894-11.09-25.071c-1.205-2.411-3.856-5.304-8.437-5.304h-72.564l-2.17 2.17h73.529c3.375 0 6.026 1.205 7.474 3.616l11.812 26.519s0.483 0.964 1.688 0.964z" fill="url(#SVGID_17_)"/>
  <path d="m695.35 294.99c-13.501 0-23.386 11.33-23.386 23.143v170.68l1.207 2.894c0.24 0 0.722-0.241 0.722-0.964v-171.65c0-11.813 9.403-21.938 21.215-21.938h107.52l3.134-2.169z" fill="url(#SVGID_18_)"/>
 </g>
 <g transform="matrix(1.6366 0 0 1.6366 317.49 -478.82)" fill="#4d5757">
  <path d="m713.43 333.08h69.43c3.617 0 7.233-2.169 8.921-5.303l14.222-32.786h-110.41c-13.019 0-23.627 10.607-23.627 23.625v170.2l-11.09-25.071c-1.205-2.411-4.097-5.304-8.437-5.304h-72.322v-150.43c0-7.232-5.787-13.018-13.019-13.018h-28.447v31.581c9.162 18.563 10.849 35.679 11.089 41.706-12.054-42.912-50.867-75.457-99.322-75.457-55.931 0-95.949 42.188-101.98 88.234h-55.448c-5.063 0-7.473 3.616-8.196 5.063l-13.501 30.135h62.198c-6.51 22.66-27.483 44.84-59.306 44.84-34.714 0-61.955-28.688-61.955-65.09 0-36.644 27.481-65.091 62.68-65.091 14.223 0 30.616 6.027 45.081 16.394 1.445 0.965 3.134 1.447 4.339 1.447 3.616 0 6.51-2.652 6.991-3.857l14.464-25.073c-10.606-9.402-35.679-26.518-69.912-26.518-59.063 0-105.11 45.081-105.11 102.7 0 56.895 46.286 103.42 103.18 103.42 47.975 0 90.403-34.233 100.77-81.484 0 0 1.688 18.322-6.75 40.26 19.769 26.277 49.662 41.225 82.689 41.225 42.188 0 72.806-24.349 88.233-49.422v22.903c0 13.018 10.608 23.625 23.627 23.625h138.14c7.233 0 13.019-5.785 13.019-13.018v-67.261h59.063c3.617 0 7.233-2.17 8.92-5.304l13.019-29.894h-81.002v-47.975h-0.242zm80.038 48.457-12.776 28.929c-1.688 3.134-4.823 5.063-8.198 5.063h-59.545v67.742c0 6.992-5.546 12.537-12.537 12.537h-138.14c-12.777 0-22.902-10.367-22.902-23.144v-25.795l-1.206 1.928c-6.99 11.572-34.232 49.18-87.751 49.18-32.547 0-62.44-14.946-81.967-40.742 8.196-21.697 6.75-40.019 6.75-40.019l-0.24-1.688s-0.242-0.241-0.483-0.241h-0.24c-0.241 0-0.241 0.241-0.241 0.241l-0.24 1.688c-10.367 47.011-52.556 81.002-100.29 81.002-56.652 0-102.46-46.046-102.46-102.7 0-57.376 46.045-102.22 104.63-102.22 35.197 0 60.027 18.08 69.188 26.036l-14.223 24.83c-0.482 0.965-3.134 3.617-6.509 3.617-1.448 0-2.653-0.482-4.099-1.447-14.465-10.366-31.099-16.393-45.323-16.393-35.438 0-63.162 28.929-63.162 65.813 0 36.885 27.483 65.814 62.68 65.814 32.306 0 53.279-22.662 59.788-45.081l0.241-0.724h-61.957l12.777-29.411c0.723-1.447 2.893-4.581 7.714-4.581h55.93v-0.482c3.135-23.143 14.465-44.839 32.063-60.992 19.045-17.357 42.912-26.759 69.188-26.759 23.144 0 45.082 7.474 63.162 21.697 17.117 13.5 29.894 32.545 35.68 53.519l0.482 1.446s0 0.241 0.241 0.241h0.24s0.242 0 0.242-0.241v-1.928c-0.482-6.509-2.169-23.384-11.091-41.706v-30.858h27.726c6.99 0 12.535 5.545 12.535 12.537v150.67h72.804c4.1 0 6.993 2.411 7.957 5.063l11.09 25.072s0.241 0.24 0.481 0.24h0.241s0.242 0 0.242-0.24v-170.44c0-12.536 10.365-22.902 22.901-22.902h109.45l-13.983 31.822c-1.687 3.134-4.821 5.063-8.196 5.063h-69.912v48.698h81.243v0.24z"/>
  <path d="m450.41 329.94c-34.233 0-61.957 29.411-61.957 65.813 0 36.162 27.724 65.814 61.957 65.814 33.99 0 61.957-29.652 61.957-65.814 0-36.161-27.967-65.813-61.957-65.813zm0 130.9c-33.752 0-61.476-29.171-61.476-65.092 0-35.919 27.483-65.09 61.476-65.09 33.75 0 61.474 29.171 61.474 65.09-0.241 35.921-27.724 65.092-61.474 65.092z"/>
 </g>
 <g transform="matrix(1.6366 0 0 1.6366 317.49 -478.82)">
  <path d="m-126.24 346.58c-8.197 0-16.394 3.133-23.144 8.678-7.473 6.509-11.572 17.358-10.848 27.724 0.482 7.474 3.857 18.082 16.875 26.278l95.226 65.572-46.528-105.11c-5.785-14.466-17.599-23.144-31.581-23.144z" fill="url(#SVGID_19_)"/>
  <path d="m-158.31 385.15c-0.723-10.848 3.617-22.179 11.09-29.17 6.991-6.027 15.429-9.161 23.866-9.161 1.688 0 3.375 0.241 5.063 0.482-3.375-1.205-6.99-1.928-10.848-1.928-8.197 0-16.394 3.134-23.144 8.678-7.473 6.509-11.572 17.357-10.849 27.724 0.482 6.991 3.376 16.634 14.224 24.59-6.749-7.232-8.919-15.188-9.402-21.215z" fill="#6e3319"/>
  <path d="m-34.151 318.61c3.375 6.509 5.545 13.741 4.098 21.697 0 0-18.322 110.9-18.563 110.9l-46.046-105.35c-4.098-12.535-0.241-25.313 8.679-34.232 8.92-9.162 24.107-11.813 35.68-6.751 6.509 2.651 12.294 7.713 16.152 13.741z" fill="url(#SVGID_20_)"/>
  <path d="m76.503 346.58c8.196 0 16.393 3.133 23.143 8.678 7.474 6.509 11.572 17.358 10.849 27.724-0.482 7.474-3.857 18.082-16.875 26.278l-94.985 65.572 46.047-105.11c5.784-14.466 17.596-23.144 31.821-23.144z" fill="url(#SVGID_21_)"/>
  <path d="m102.3 422.76c14.946 0 27.241 10.849 30.616 22.179 3.376 11.09 1.446 22.421-5.304 31.1-6.509 8.438-16.393 13.259-27.241 13.259h-105.83l87.27-60.27c6.509-4.098 13.742-6.268 20.492-6.268z" fill="url(#SVGID_22_)"/>
  <path d="m-152.28 422.76c-14.947 0-27.242 10.849-30.617 22.179-3.375 11.09-1.447 22.421 5.303 31.1 6.509 8.438 16.394 13.259 27.242 13.259h105.83l-87.27-60.27c-6.508-4.098-13.499-6.268-20.49-6.268z" fill="url(#SVGID_23_)"/>
  <path d="m-175.66 476.52c-6.75-8.919-8.438-20.731-4.822-32.063 3.375-11.089 15.429-21.455 29.653-22.179-2.17-0.481-4.581-0.723-6.751-0.723-15.428-0.241-28.447 10.849-32.063 22.419-3.617 11.332-1.688 23.145 5.063 32.306 6.508 8.678 16.634 13.982 27.964 13.982l8.92 0.24c-11.329-0.24-21.454-5.303-27.964-13.982z" enable-background="new    " fill="#815020" opacity=".7"/>
  <path d="m-5.946 336.21c1.205 0 2.893 0.964 2.893 1.928-5.785 3.617-15.428 7.714-14.464 16.394l1.446 9.402c5.545 32.304 14.705 87.269 14.705 87.269l46.047-105.35c4.098-12.535 0.24-25.313-8.679-34.232-8.92-9.162-24.108-11.813-35.681-6.751-6.268 2.652-12.294 7.714-15.91 13.742-2.893 5.304-4.58 11.089-4.58 17.358h14.223z" fill="url(#SVGID_24_)"/>
  <path d="m-13.419 363.7-1.447-9.402c-1.205-8.438 7.715-12.054 13.5-15.911-0.24-0.965-2.169-2.411-3.133-2.411h-4.581c1.206 0 2.894 0.964 2.894 1.928-5.786 3.617-15.43 7.714-14.465 16.394l1.446 9.402c5.304 32.545 16.151 97.154 16.394 97.154l4.098-9.402c-2.893-17.117-10.608-63.404-14.706-87.752z" enable-background="new    " fill="#383753" opacity=".8"/>
  <path d="m-3.294 489.54 88.234-59.787c6.991-4.099 13.018-6.509 20.009-6.509 1.688 0 3.134 0.241 4.821 0.481-2.893-0.723-5.785-1.205-8.678-1.205-7.474 0-16.875 2.411-22.902 6.75l-89.199 60.27z" enable-background="new    " fill="url(#SVGID_25_)" opacity=".8"/>
  <path d="m48.056 367.07c4.58-11.331 18.563-20.491 30.857-20.491h0.723c-1.445-0.242-3.133-0.482-4.82-0.482-12.295 0.241-24.35 7.955-29.412 20.25l-49.663 113.06 6.027-6.027z" fill="url(#SVGID_26_)"/>
  <path d="m-18 336.7c0-18.804 14.465-34.474 34.233-34.956h-1.205c-20.251 0-36.885 16.152-36.885 35.438z" fill="#383753"/>
  <path d="m-90.563 350.68c-1.929-4.58-3.616-9.402-3.375-14.464 0.241-17.357 12.295-31.822 29.41-34.715-18.321 1.929-33.026 16.876-33.268 35.198 0 5.063 0.965 9.884 2.893 14.464l0.241 0.482 45.806 102.7 2.41-3.857z" enable-background="new    " fill="url(#SVGID_27_)" opacity=".8"/>
  <path d="m-126.24 346.58c13.982 0 25.796 8.678 31.581 23.144l46.046 105.11-94.984-65.331c-12.777-8.438-16.152-19.045-16.875-26.277-0.723-10.125 3.617-20.974 10.849-27.724 6.989-5.787 15.186-8.92 23.383-8.92m0-1.447c-8.679 0-16.875 3.134-24.107 9.161-7.714 6.75-12.054 18.08-11.331 28.688 0.482 7.714 4.098 18.804 17.357 27.483l94.985 65.573 3.857 2.651-1.93-4.339-46.044-105.11c-5.786-14.947-18.081-24.108-32.787-24.108z" fill="url(#SVGID_28_)"/>
  <path d="m-62.841 302.22c4.34 0 8.68 0.723 12.777 2.651 6.27 2.652 12.296 7.714 15.912 13.983 3.375 6.509 5.545 13.741 4.098 21.697 0 0-18.322 110.9-18.563 110.9l0.723 4.822 0.965-5.787c0.241-0.723 0.241-1.928 0.723-3.615 0.482-3.135 1.206-7.475 2.17-12.537 1.447-9.16 3.617-21.938 6.269-38.09l9.161-55.448c1.205-7.473-0.241-14.947-4.34-22.661-3.857-6.268-9.884-11.571-16.635-14.464-4.098-1.688-8.678-2.651-13.26-2.651v1.204-1.447c-9.16 0-18.08 3.617-24.106 9.643-9.644 9.644-13.019 23.144-9.161 35.68l46.045 105.35 1.93 4.34-0.723-4.822-45.806-105.11c-4.098-12.535-0.241-25.313 8.679-34.232 6.027-6.27 14.464-9.403 23.142-9.403" fill="url(#SVGID_29_)"/>
  <path d="m76.503 346.58c8.196 0 16.393 3.133 23.143 8.678 7.474 6.509 11.572 17.358 10.849 27.724-0.482 7.474-3.857 18.082-16.875 26.278l-94.985 65.572-3.133 3.857 3.857-2.651 94.984-65.573c13.259-8.679 16.875-19.769 17.356-27.483 0.724-10.607-3.616-21.938-11.33-28.688-7.232-6.027-15.429-9.161-24.108-9.161-14.705 0-27 8.919-33.027 23.866l-45.805 105.35-1.928 4.339 3.133-3.857 46.047-105.11c5.785-14.467 17.597-23.145 31.822-23.145" fill="url(#SVGID_30_)"/>
  <path d="m102.3 422.76c14.946 0 27.241 10.849 30.616 22.179 3.376 11.09 1.446 22.421-5.304 31.1-6.509 8.438-16.393 13.259-27.241 13.259h-105.83l-4.34 1.447h110.17c11.33 0 21.696-5.063 28.446-13.742 6.992-8.92 8.92-20.731 5.545-32.304-1.688-6.027-6.027-11.813-11.571-16.152-6.027-4.581-13.259-7.232-20.491-7.232s-14.465 2.17-21.215 6.509l-87.27 60.27-3.617 2.41 4.34-1.445 87.27-60.271c6.509-3.858 13.742-6.028 20.492-6.028" fill="url(#SVGID_31_)"/>
  <path d="m-152.28 422.76c6.991 0 13.982 2.17 20.491 6.268l87.27 60.27h-105.83c-10.849 0-20.733-4.821-27.242-13.259-6.75-8.679-8.438-20.01-5.303-31.1 3.374-11.331 15.669-22.179 30.616-22.179m0-1.446c-7.232 0-14.465 2.651-20.492 7.232-5.545 4.339-9.643 10.125-11.572 16.152-3.375 11.572-1.446 23.384 5.545 32.304 6.75 8.68 17.116 13.742 28.447 13.742h110.17l-3.615-2.411-87.271-60.27c-6.75-4.58-13.982-6.749-21.214-6.749z" fill="url(#SVGID_32_)"/>
  <path d="m-5.946 336.21" fill="#ec2227"/>
  <path d="m-20.169 336.21h14.223c1.205 0 2.893 0.964 2.893 1.928-0.964 0.482-1.688 1.206-2.893 1.688-5.785 3.375-12.535 7.473-11.571 14.705l1.446 9.402c5.545 32.304 14.705 87.269 14.705 87.269l-0.723 4.822-0.965-5.063c0-0.482-0.24-0.965-0.24-1.928-0.241-1.688-0.724-3.857-1.205-6.752-0.965-5.303-2.17-12.776-3.857-22.419-3.135-18.081-6.75-40.26-9.402-55.93l-1.446-9.402c-1.205-8.197 6.509-12.777 12.295-15.911l1.688-1.206c-0.241-0.723-1.206-1.205-1.929-1.205h-14.946c0-6.027 1.446-12.054 4.821-18.081 3.857-6.268 9.884-11.571 16.635-14.464 4.098-1.688 8.678-2.651 13.26-2.651 9.16 0 18.08 3.616 24.106 9.643 9.644 9.643 13.019 23.144 9.161 35.679l-46.047 105.35-1.688 4.34 0.724-4.822 46.045-105.35c4.099-12.535 0.241-25.313-8.678-34.232-6.027-6.027-14.465-9.402-23.145-9.402-4.338 0-8.678 0.723-12.777 2.651-6.268 2.652-12.294 7.714-15.91 13.742-2.892 5.302-4.821 11.088-4.58 17.597" fill="url(#SVGID_33_)"/>
  <path d="m-94.421 349.95 44.6 101.98 1.928 4.34-0.723-4.822-44.358-101.49h-1.447z" fill="url(#SVGID_34_)"/>
  <path d="m-93.216 373.1 44.6 101.98 3.135 3.856-1.93-4.339-45.081-103.18z" fill="url(#SVGID_35_)"/>
  <path d="m-130.1 430.23 85.582 59.063 4.34 1.447-3.615-2.411-85.583-59.306z" fill="url(#SVGID_36_)"/>
  <path d="m-3.054 338.14c-0.964 0.482-1.688 1.206-2.893 1.688-5.785 3.375-12.535 7.473-11.571 14.705l1.446 9.402c5.545 32.304 14.705 87.269 14.705 87.269l-0.723 4.822-0.965-5.063c0-0.482-0.24-0.965-0.24-1.928-0.241-1.688-0.724-3.857-1.205-6.752-0.965-5.303-2.17-12.776-3.857-22.419-3.135-18.081-6.75-40.26-9.402-55.93l-1.446-9.402c-1.205-8.197 6.509-12.777 12.295-15.911l1.688-1.206z" fill="url(#SVGID_37_)"/>
  <path d="m42.511 371.41-45.082 102.94-1.928 4.339 3.133-3.857 44.6-101.98z" fill="url(#SVGID_38_)"/>
  <path d="m79.636 429.03-85.822 59.064-3.617 2.41 4.34-1.445 85.824-59.064z" fill="url(#SVGID_39_)"/>
  <path d="m-175.42 422.28c-6.75 5.063-12.295 12.295-15.188 20.491-3.857 13.742-1.447 27.242 6.509 38.091 7.955 10.366 20.25 16.394 33.509 16.394h250.96c13.5 0 25.554-6.027 33.509-16.394l0.242-0.24c3.375-4.34 5.785-9.402 6.99-14.947 1.207-5.304 1.447-10.607 0.725-15.911-0.725-5.545-2.652-10.607-5.305-15.188-2.893-4.821-6.51-8.92-11.09-12.295-6.268-4.339-13.5-6.991-20.973-7.473l-4.099-0.241 3.134-2.652c8.92-7.473 14.224-17.598 14.946-28.447 0.965-12.777-4.339-25.795-13.5-34.232-8.196-6.992-18.321-10.608-28.688-10.608-6.99 0-13.982 1.929-20.009 5.304l-2.894 1.688 0.482-3.375c0.965-6.509 0.482-13.259-1.446-19.527-2.17-6.269-5.786-12.295-10.607-17.117-7.231-7.474-17.599-11.572-28.688-11.572-7.232 0-14.946 2.17-21.455 6.027-6.75 4.098-12.054 9.643-15.188 16.152l-1.447 2.893-1.446-2.893c-3.134-6.509-8.438-12.054-15.188-16.152-6.509-3.857-13.983-6.027-21.456-6.027-11.09 0-21.456 4.34-28.688 11.572-4.822 4.822-8.438 10.607-10.607 17.117-2.17 6.268-2.652 13.018-1.447 19.527l0.482 3.375-2.893-1.688c-6.027-3.616-13.018-5.304-20.01-5.304-10.366 0-20.491 3.857-28.688 10.608-9.402 8.196-14.464 21.455-13.5 34.232 0.723 10.849 6.027 20.974 14.947 28.447l3.133 2.652-4.098 0.241c-7.47 0.481-14.702 2.892-20.971 7.472zm277.72-0.963c7.232 0 14.464 2.651 20.491 7.232 5.544 4.339 9.644 10.125 11.571 16.152 3.375 11.572 1.447 23.384-5.545 32.304-6.75 8.68-17.116 13.742-28.446 13.742h-110.17l3.617-2.412 87.27-60.269c6.75-4.58 14.224-6.749 21.215-6.749zm-25.795-76.181c8.678 0 16.875 3.134 24.107 9.161 7.714 6.75 12.054 18.08 11.33 28.688-0.482 7.714-4.098 18.804-17.357 27.483l-95.225 65.573-3.857 2.651 1.928-4.339 46.046-105.11c6.027-14.947 18.321-24.108 33.028-24.108zm-93.538-27.001c3.856-6.268 9.884-11.571 16.634-14.464 4.098-1.688 8.68-2.651 13.26-2.651 9.16 0 18.081 3.616 24.107 9.643 9.643 9.643 13.018 23.144 9.161 35.679l-46.287 105.35-1.688 4.34-0.964-5.063c0-0.482-0.242-0.965-0.242-1.928-0.24-1.688-0.723-3.857-1.205-6.752-0.964-5.303-2.17-12.776-3.857-22.419-3.134-18.081-6.75-40.26-9.401-55.93l-1.446-9.402c-1.205-8.197 6.509-12.777 12.295-15.911l1.688-1.206c-0.241-0.723-1.205-1.205-1.929-1.205h-14.946c0.239-6.026 1.686-12.054 4.82-18.081zm-69.912-7.473c6.026-6.268 14.705-9.643 24.106-9.643 4.582 0 9.162 0.964 13.26 2.651 6.751 2.894 12.777 8.197 16.635 14.464 4.099 7.474 5.545 15.188 4.34 22.661l-9.161 55.448c-2.651 16.152-4.821 28.93-6.269 38.09-0.964 5.305-1.688 9.643-2.17 12.537-0.24 1.445-0.481 2.65-0.723 3.615l-0.965 5.545-1.928-4.34-46.046-105.35c-4.098-12.534-0.723-26.275 8.921-35.678zm-74.735 72.565c-0.723-10.607 3.617-21.938 11.331-28.688 7.232-6.027 15.429-9.161 24.107-9.161 14.706 0 27.001 8.92 33.027 23.867l46.047 105.11 1.928 4.339-4.098-2.651-94.985-65.573c-13.258-8.68-16.874-19.528-17.357-27.242zm30.617 44.598 87.271 60.27 3.615 2.41h-110.17c-11.331 0-21.697-5.063-28.447-13.74-6.991-8.921-8.92-20.733-5.545-32.306 1.688-6.026 6.027-11.813 11.572-16.151 6.027-4.581 13.259-7.232 20.492-7.232 7.232 0.241 14.464 2.41 21.214 6.749z" fill="url(#SVGID_40_)"/>
  <path d="m-126 338.86c-10.366 0-20.492 3.857-28.688 10.607-7.232 6.509-12.054 15.911-13.259 26.036 2.17 0.965 4.34 1.928 6.268 2.652 0.723-9.162 4.822-18.081 11.331-23.867 7.232-6.027 15.429-9.161 24.107-9.161 14.706 0 27.001 8.919 33.027 23.866l14.465 32.787c2.651 0.482 5.304 0.724 7.955 1.206l-25.071-56.654c-4.099-12.536-0.482-26.036 9.161-35.679 6.026-6.268 14.705-9.643 24.107-9.643 4.58 0 9.16 0.964 13.26 2.651 6.75 2.894 12.776 8.197 16.634 14.464 4.099 7.474 5.545 15.188 4.339 22.661l-9.16 55.448c-0.482 3.375-1.205 6.751-1.688 9.885 4.821 0.241 9.643 0.241 14.464 0.241s9.644-0.241 14.465-0.241c-2.411-14.706-5.063-30.376-6.991-41.948l-1.446-9.402c-1.206-8.196 6.509-12.777 12.294-15.911l1.688-1.205c-0.24-0.724-1.205-1.206-1.928-1.206h-14.947c0-6.026 1.447-12.053 4.822-18.08 3.856-6.268 9.884-11.572 16.634-14.465 4.099-1.688 8.679-2.652 13.259-2.652 9.162 0 18.082 3.616 24.108 9.643 9.643 9.644 13.018 23.144 9.161 35.68l-25.072 56.653c2.652-0.241 5.304-0.724 7.956-1.206l14.464-32.786c6.027-14.947 18.322-23.867 33.027-23.867 8.68 0 16.876 3.134 24.108 9.161 6.509 5.786 10.606 14.706 11.33 23.867 2.17-0.965 4.339-1.928 6.268-2.652-1.205-9.883-6.026-19.527-13.259-26.036-8.196-6.991-18.321-10.607-28.688-10.607-6.992 0-13.982 1.929-20.01 5.304l-2.894 1.688 0.482-3.375c0.964-6.509 0.482-13.259-1.446-19.527-2.17-6.269-5.786-12.296-10.607-17.117-7.232-7.474-17.598-11.572-28.688-11.572-7.232 0-14.947 2.17-21.457 6.027-6.75 4.098-12.053 9.643-15.188 16.152l-1.446 2.893-1.446-2.893c-3.134-6.509-8.438-12.054-15.188-16.152-6.51-3.857-13.982-6.027-21.457-6.027-11.089 0-21.455 4.339-28.688 11.572-4.821 4.821-8.438 10.607-10.607 17.117-2.169 6.268-2.651 13.018-1.445 19.527l0.481 3.375-2.893-1.688c-6.025-3.856-13.017-5.544-20.008-5.544z" enable-background="new    " fill="#fff" opacity=".7"/>
  <g opacity=".15">
   <path d="m13.099 300.77c-4.58 0-9.16 0.965-13.259 2.652-6.75 2.893-12.777 8.197-16.634 14.464-3.135 6.027-4.822 12.054-4.822 18.081h14.947c0.723 0 1.928 0.482 1.928 1.205l-1.688 1.206c-5.544 3.375-13.259 7.955-12.294 15.911l1.446 9.402c1.929 11.813 4.58 27.242 6.991 41.947h2.411c9.883-0.482 19.527-1.446 29.17-2.651l24.831-56.654c4.098-12.536 0.481-26.036-9.161-35.679-6.026-6.267-14.704-9.884-23.866-9.884zm-46.045 17.357c-3.857-6.268-9.884-11.571-16.635-14.464-4.098-1.688-8.678-2.651-13.26-2.651-9.16 0-18.08 3.616-24.106 9.643-9.644 9.643-13.019 23.144-9.161 35.679l25.072 56.895c9.643 1.205 19.527 2.169 29.411 2.651h2.17c0.481-3.134 0.964-6.509 1.688-9.884l9.161-55.448c1.205-7.232-0.242-14.947-4.34-22.421zm-60.51 51.109c-6.027-14.947-18.322-23.867-33.028-23.867-8.679 0-16.875 3.134-24.108 9.161-6.509 5.786-10.607 14.706-11.33 23.867 23.143 9.884 47.251 17.357 72.081 21.938h0.241c3.375 0.724 6.509 1.206 9.884 1.688h0.482zm194.07-14.947c-7.232-6.027-15.43-9.161-24.107-9.161-14.707 0-27.001 8.919-33.028 23.866l-14.464 32.787c0.241 0 0.482 0 0.723-0.24 3.375-0.482 6.51-1.206 9.644-1.688h0.241c24.83-4.822 48.938-12.055 72.081-21.939-0.482-8.919-4.581-17.839-11.09-23.625z" enable-background="new    " fill="#fff" opacity=".55"/>
  </g>
  <path d="m104.47 413.12c8.678-7.474 14.705-17.84 15.428-29.412 0.965-13.259-4.339-27-13.981-35.438-8.438-7.232-19.046-11.09-29.894-11.09-7.232 0-14.225 1.688-20.733 5.545l-2.169 3.133 2.893-1.688c6.027-3.616 13.018-5.303 20.01-5.303 10.366 0 20.491 3.857 28.688 10.607 9.402 8.197 14.465 21.456 13.5 34.233-0.723 10.848-6.026 20.973-14.946 28.447l-3.134 2.652z" fill="url(#SVGID_41_)"/>
  <path d="m13.099 294.26c11.09 0 21.457 4.34 28.688 11.572 4.821 4.822 8.438 10.607 10.607 17.117 2.17 6.268 2.651 13.019 1.446 19.527l-0.482 3.375 2.17-3.133c2.17-13.742-2.17-27.724-12.535-37.85-7.474-7.714-18.322-12.053-29.895-12.053-15.428 0-31.099 9.161-37.849 23.143v3.617l1.446-2.893c3.135-6.509 8.438-12.054 15.188-16.152 6.269-4.1 13.743-6.27 21.216-6.27" fill="url(#SVGID_42_)"/>
  <path d="m-24.991 315.72c-6.99-13.982-22.42-23.144-37.85-23.144-11.33 0-22.178 4.34-29.893 12.054-10.366 10.125-14.705 24.349-12.535 37.849l2.169 3.134-0.481-3.375c-0.965-6.509-0.482-13.259 1.445-19.527 2.17-6.269 5.786-12.295 10.607-17.117 7.232-7.474 17.599-11.572 28.688-11.572 7.232 0 14.947 2.17 21.457 6.027 6.75 4.098 12.054 9.643 15.188 16.152l1.446 2.893v-3.375h-0.241z" fill="url(#SVGID_43_)"/>
  <path d="m-105.27 342.72c-6.51-3.857-13.742-5.545-20.734-5.545-10.607 0-21.455 4.098-29.893 11.09-9.644 8.678-15.188 22.179-13.983 35.438 0.965 11.572 6.75 21.938 15.429 29.412l4.099 1.446-3.134-2.652c-8.92-7.473-14.224-17.598-14.947-28.447-0.964-12.777 4.34-25.795 13.5-34.233 8.197-6.991 18.322-10.607 28.688-10.607 6.992 0 13.982 1.929 20.01 5.304l2.893 1.688z" fill="url(#SVGID_44_)"/>
  <path d="m100.37 414.56 4.099 0.241c7.714 0.481 14.946 2.893 20.973 7.473 4.58 3.375 8.197 7.474 11.09 12.295 2.652 4.581 4.58 9.884 5.305 15.188 0.723 5.303 0.482 10.848-0.725 15.911-1.205 5.545-3.615 10.366-6.99 14.947l-0.242 0.24c-7.955 10.366-20.25 16.394-33.509 16.394h-250.72c-13.5 0-25.555-6.027-33.51-16.394-8.197-10.607-10.607-24.108-6.509-38.091 2.894-8.196 8.438-15.67 15.188-20.491 6.268-4.58 13.5-6.991 20.974-7.473l4.098-0.241-4.098-1.446c-7.956 0.481-15.429 3.134-21.938 7.714-7.232 5.304-12.777 13.018-15.911 21.455-4.098 14.465-1.688 28.448 6.991 39.538 7.956 10.607 21.215 16.875 34.715 16.875h250.96c13.982 0 26.518-6.027 34.715-16.875l0.24-0.242c14.465-19.044 10.127-46.769-9.16-60.751-6.51-4.58-13.982-7.232-21.938-7.714z" fill="url(#SVGID_45_)"/>
  <path d="m13.099 293.3c11.332 0 21.938 4.339 29.412 11.813 4.821 4.822 8.679 10.848 10.848 17.357 2.17 6.509 2.652 13.259 1.447 20.009l-0.241 1.447 1.205-0.723c6.026-3.617 13.259-5.545 20.491-5.545 10.607 0 20.975 3.857 29.412 10.848 9.643 8.438 14.946 21.938 13.982 34.956-0.724 11.089-6.269 21.457-15.188 29.17l-1.206 0.964h1.688c7.715 0.482 15.188 3.135 21.456 7.715 4.58 3.375 8.438 7.714 11.33 12.535 2.893 4.822 4.58 10.125 5.545 15.67 0.725 5.546 0.482 11.09-0.723 16.395-1.447 5.544-3.857 10.606-7.232 15.188l-0.242 0.241c-8.195 10.607-20.731 16.634-34.231 16.634h-251.2c-13.741 0-26.278-6.026-34.233-16.634-8.438-10.849-10.849-24.591-6.992-38.813 3.134-8.438 8.438-15.911 15.67-20.974 6.269-4.581 13.742-7.232 21.456-7.715h1.688l-1.205-1.205c-8.92-7.714-14.465-18.081-15.188-29.17-1.206-12.777 4.098-26.277 13.741-34.715 8.438-6.991 18.804-10.849 29.411-10.849 7.232 0 14.224 1.929 20.492 5.545l1.206 0.723-0.241-1.446c-1.205-6.509-0.482-13.501 1.446-20.009 2.17-6.509 5.786-12.536 10.849-17.358 7.473-7.473 18.08-11.813 29.41-11.813 7.475 0 15.189 2.169 21.939 6.268s12.295 9.884 15.429 16.634l0.481 1.206 0.482-1.206c3.375-6.75 8.679-12.295 15.429-16.634 6.991-4.339 14.706-6.509 22.179-6.509m0-0.482c-15.428 0-31.099 9.161-37.849 23.143-6.991-13.982-22.419-23.143-37.849-23.143-11.331 0-22.18 4.339-29.894 12.053-10.366 10.126-14.706 24.349-12.536 37.85-6.509-3.857-13.742-5.545-20.732-5.545-10.607 0-21.456 4.098-29.894 11.09-9.643 8.678-15.188 22.179-13.982 35.438 0.964 11.572 6.75 21.938 15.429 29.412-7.956 0.481-15.429 3.134-21.938 7.714-7.232 5.304-12.777 13.018-15.911 21.455-4.098 14.465-1.688 28.448 6.991 39.538 8.197 10.848 20.974 16.875 34.715 16.875h250.96c13.982 0 26.518-6.268 34.715-16.875l0.24-0.242c14.465-19.044 10.127-46.769-9.16-60.751-6.51-4.58-13.982-7.232-21.938-7.714 8.678-7.474 14.705-17.84 15.428-29.412 0.965-13.259-4.339-27-13.981-35.438-8.438-7.232-19.046-11.09-29.894-11.09-7.232 0-14.225 1.688-20.733 5.545 2.17-13.742-2.169-27.724-12.535-37.85-7.474-7.714-18.321-12.053-29.653-12.053z" fill="url(#SVGID_46_)"/>
 </g>
 <g transform="translate(-257.46 -80.487)" fill="url(#linearGradient4999)">
  <g fill="url(#linearGradient5015)">
   <path d="m2092 94.91c23.79-3.07 47.87-5.43 71.84-3.26 17.62 1.72 35.55 6.05 50.34 16.18 10.39 7.52 19.63 17.02 25.52 28.52 8.56 16.42 11.05 35.37 10.14 53.69-1 19.63-6.45 39.51-18.2 55.52-4.31 5.99-9.8 10.96-15.02 16.11-13.85 12.3-31.98 18.49-49.96 21.62-10.375 1.8278-20.867 2.4336-31.37 2.3522-15.324-0.46302-27.782-1.3259-43.28-2.0122l-0.01-188.72m24.64 18.42-0.01 149.82c4.06 0.91 8.19 1.53 12.37 1.75 16.86 0.77 34.27 0.47 50.24-5.67 14.04-5.2 26.33-15.25 33.6-28.42 9.28-16.56 11.44-36.16 10.14-54.83-1.26-17.4-7.57-35.23-20.87-47.06-14.06-12.74-33.57-17.29-52.1-17.56-11.14 0.04-22.44-0.54-33.37 1.97z"/>
   <path d="m1906.8 92.86h24.62v79.99l92.36 0.01 0.01-80 26.66-0.01 0.01 190.78h-26.67l-0.01-90.25-92.35 0.01v90.24l-24.62 0.01z"/>
  </g>
 </g>
</svg>
