<svg width="600pt" height="417.19pt" version="1.1" viewBox="0 0 600 417.19" xmlns="http://www.w3.org/2000/svg">
 <defs>
  <linearGradient id="linearGradient3143" x1="518.06" x2="518.06" y1="633.14" y2="704.75" gradientTransform="matrix(.43454 0 0 .43454 -338.51 -481.4)" gradientUnits="userSpaceOnUse">
   <stop offset="0"/>
   <stop stop-opacity="0" offset="1"/>
  </linearGradient>
 </defs>
 <g transform="translate(215.16 318.26)">
  <path d="m-39.112-72.315h-65.709v-93.85h-42.649v93.85h-67.461l-0.22779-241.9h67.689v89.977h42.649v-89.977h65.709zm301.07 1.1389c67.759-0.03525 122.9-56.317 122.88-124.09-0.0173-69.196-55.125-122.94-122.88-122.99-67.671-0.0526-102.26 49.763-110.79 69.879 0.0701-30.191-29.683-65.814-64.482-65.866h-112.13v241.84l104.54 0.0353c42.159 0 72.139-36.517 72.192-67.829 9.6198 19.713 43 69.038 110.67 69.021zm-191.62-98.405c9.6724 0 17.295 9.5497 17.295 20.431 0 10.881-7.6222 20.449-17.295 20.449h-33.24v-40.88zm0.12264-90.801c9.6723 0 17.295 9.5497 17.295 20.431 0 10.881-7.6222 20.431-17.295 20.431h-33.24v-40.862zm44.261 65.166c7.6222-0.96373 20.308-9.6723 24.794-15.244-1.577 6.9038-1.6996 26.862 0.14009 33.748-5.099-7.8675-17.189-17.54-24.934-18.504zm85.719 0c0-33.993 27.563-61.556 61.556-61.556 34.011 0 61.574 27.563 61.574 61.556s-27.563 61.556-61.574 61.556c-33.993 0-61.556-27.563-61.556-61.556zm61.556 48.397c26.739 0 48.397-21.675 48.397-48.397s-21.658-48.397-48.397-48.397c-26.722 0-48.397 21.675-48.397 48.397s21.675 48.397 48.397 48.397" fill="#454341"/>
  <path d="m-39.112-72.315h-65.709v-93.85h-42.649v93.85h-67.461l-0.22779-241.9h67.689v89.977h42.649v-89.977h65.709zm301.07 1.1389c67.759-0.03525 122.9-56.317 122.88-124.09-0.0173-69.196-55.125-122.94-122.88-122.99-67.671-0.0526-102.26 49.763-110.79 69.879 0.0701-30.191-29.683-65.814-64.482-65.866h-112.13v241.84l104.54 0.0353c42.159 0 72.139-36.517 72.192-67.829 9.6198 19.713 43 69.038 110.67 69.021zm-191.62-98.405c9.6724 0 17.295 9.5497 17.295 20.431 0 10.881-7.6222 20.449-17.295 20.449h-33.24v-40.88zm0.12264-90.801c9.6723 0 17.295 9.5497 17.295 20.431 0 10.881-7.6222 20.431-17.295 20.431h-33.24v-40.862zm44.261 65.166c7.6222-0.96373 20.308-9.6723 24.794-15.244-1.577 6.9038-1.6996 26.862 0.14009 33.748-5.099-7.8675-17.189-17.54-24.934-18.504zm85.719 0c0-33.993 27.563-61.556 61.556-61.556 34.011 0 61.574 27.563 61.574 61.556s-27.563 61.556-61.574 61.556c-33.993 0-61.556-27.563-61.556-61.556zm61.556 48.397c26.739 0 48.397-21.675 48.397-48.397s-21.658-48.397-48.397-48.397c-26.722 0-48.397 21.675-48.397 48.397s21.675 48.397 48.397 48.397" fill="url(#linearGradient3143)"/>
 </g>
 <g transform="translate(-7.1284 168.05)" fill="#8cc641">
  <path d="m243.08 134.01a59.222 57.565 0 0 0-59.222 57.567 59.222 57.565 0 0 0 59.222 57.564 59.222 57.565 0 0 0 59.225-57.564 59.222 57.565 0 0 0-59.225-57.567zm0 22.629a33.618 34.939 0 0 1 33.618 34.938 33.618 34.939 0 0 1-33.618 34.938 33.618 34.939 0 0 1-33.615-34.938 33.618 34.939 0 0 1 33.615-34.938z" stroke-width="1.399"/>
  <path d="m82.029 136.08h91.363v18.322l-61.076 71.578 61.066 0.18903v21.318h-92.592v-19.25l60.929-70.621h-59.649z" stroke-width="2.1003"/>
  <path d="m320.61 136.08 22.87 5.2e-4 51.63 67.829v-67.829h24.522v111.41h-21.175l-53.34-70.028v70.028h-24.507z" stroke-width="1.4614"/>
  <path d="m443.82 136.07h83.9v21.966h-59.057v22.222h52.214v21.893h-52.214v23.025h60.24v22.259h-85.083z" stroke-width="1.4605"/>
 </g>
</svg>
