<svg width="600pt" height="415.44pt" version="1.1" viewBox="0 0 600 415.44" xmlns="http://www.w3.org/2000/svg">
 <defs>
  <linearGradient id="linearGradient3143-5" x1="518.06" x2="518.06" y1="591.91" y2="663.25" gradientTransform="matrix(.57939 0 0 .57939 -164.47 -217.52)" gradientUnits="userSpaceOnUse">
   <stop stop-color="#f1f1f1" offset="0"/>
   <stop stop-color="#c0c1c4" offset=".99681"/>
   <stop stop-color="#c0c1c4" stop-opacity="0" offset="1"/>
  </linearGradient>
 </defs>
 <g transform="matrix(.75 0 0 .75 -9.2488e-6 -4.9092e-5)">
  <path d="m234.73 327.92h-87.612v-125.13h-56.866v125.13h-89.948l-0.30372-322.53h90.252v119.97h56.866v-119.97h87.612zm401.43 1.5186c90.345-0.04705 163.87-75.089 163.85-165.46-0.02306-92.261-73.5-163.92-163.85-163.99-90.228-0.0701-136.35 66.351-147.73 93.172 0.0935-40.255-39.577-87.752-85.976-87.822h-149.5v322.46l139.38 0.0471c56.212 0 96.186-48.689 96.256-90.439 12.826 26.284 57.333 92.051 147.56 92.027zm-255.5-131.21c12.896 0 23.059 12.733 23.059 27.241s-10.163 27.265-23.059 27.265h-44.32v-54.506zm0.16352-121.07c12.896 0 23.059 12.733 23.059 27.241 0 14.509-10.163 27.241-23.059 27.241h-44.32v-54.483zm59.015 86.887c10.163-1.285 27.078-12.896 33.059-20.326-2.1027 9.2051-2.2662 35.816 0.18678 44.997-6.7987-10.49-22.919-23.386-33.246-24.671zm114.29 0c0-45.324 36.75-82.075 82.075-82.075 45.348 0 82.098 36.75 82.098 82.075 0 45.324-36.75 82.075-82.098 82.075-45.324 0-82.075-36.75-82.075-82.075zm82.075 64.529c35.652 0 64.529-28.9 64.529-64.529s-28.877-64.529-64.529-64.529c-35.629 0-64.529 28.9-64.529 64.529s28.9 64.529 64.529 64.529" fill="#b9bbbd"/>
  <path d="m234.73 327.92h-87.612v-125.13h-56.866v125.13h-89.948l-0.3037-322.53h90.252v119.97h56.866v-119.97h87.612zm401.43 1.5186c90.345-0.04706 163.87-75.089 163.85-165.46-0.02326-92.261-73.5-163.92-163.85-163.99-90.228-0.0701-136.35 66.351-147.73 93.172 0.0934-40.255-39.577-87.752-85.976-87.822h-149.5v322.46l139.38 0.0471c56.212 0 96.186-48.689 96.256-90.439 12.826 26.284 57.333 92.051 147.56 92.027zm-255.5-131.21c12.896 0 23.059 12.733 23.059 27.241s-10.163 27.265-23.059 27.265h-44.32v-54.506zm0.16352-121.07c12.896 0 23.059 12.733 23.059 27.241 0 14.509-10.163 27.241-23.059 27.241h-44.32v-54.483zm59.015 86.887c10.163-1.285 27.078-12.896 33.059-20.326-2.1027 9.2051-2.2662 35.816 0.18678 44.997-6.7987-10.49-22.919-23.386-33.246-24.671zm114.29 0c0-45.324 36.75-82.075 82.075-82.075 45.348 0 82.098 36.75 82.098 82.075 0 45.324-36.75 82.075-82.098 82.075-45.324 0-82.075-36.75-82.075-82.075zm82.075 64.529c35.652 0 64.529-28.9 64.529-64.529s-28.877-64.529-64.529-64.529c-35.629 0-64.529 28.9-64.529 64.529s28.9 64.529 64.529 64.529" fill="url(#linearGradient3143-5)"/>
 </g>
 <g transform="matrix(2.5692 0 0 2.5692 -687.72 229.84)" stroke-width="2.7759">
  <path d="m268.9 28.007h33.679v8.8473h-23.948v9.4143h21.104v8.8473h-21.104v17.124h-9.7305z" fill="#005aa9"/>
  <path d="m331.58 53.726-5.8757-14.343-5.8776 14.343zm-10.236-26.033h8.9726l18.956 44.547h-10.172l-4.0457-9.9214h-18.703l-4.0438 9.9214h-9.9214z" fill="#019fe2"/>
  <path d="m355.05 28.007h10.488l11.626 18.705 11.628-18.705h10.488v44.233h-9.6668v-28.877l-12.45 18.894h-0.25261l-12.322-18.705v28.688h-9.5396z" fill="#8bc540"/>
  <path d="m409.3 28.007h9.7305v44.233h-9.7305z" fill="#ffca05"/>
  <path d="m429.35 28.007h9.7305v35.385h22.053v8.8473h-31.783z" fill="#f3801f"/>
  <path d="m473.27 54.8-16.998-26.793h11.373l10.554 17.756 10.741-17.756h11.059l-16.998 26.604v17.629h-9.7305z" fill="#ee402f"/>
 </g>
</svg>
