<svg width="600pt" height="415.44pt" version="1.1" viewBox="0 0 600 415.44" xmlns="http://www.w3.org/2000/svg">
 <defs>
  <linearGradient id="linearGradient3143" x1="518.06" x2="518.06" y1="633.14" y2="704.75" gradientTransform="matrix(.43454 0 0 .43454 -864.48 -904.26)" gradientUnits="userSpaceOnUse">
   <stop offset="0"/>
   <stop stop-opacity="0" offset="1"/>
  </linearGradient>
 </defs>
 <g transform="translate(741.13 741.12)">
  <path d="m-565.08-495.18h-65.709v-93.85h-42.649v93.85h-67.461l-0.22779-241.9h67.689v89.977h42.649v-89.977h65.709zm301.07 1.1389c67.759-0.0353 122.9-56.317 122.88-124.09-0.0173-69.196-55.125-122.94-122.88-122.99-67.671-0.0526-102.26 49.763-110.79 69.879 0.0701-30.191-29.683-65.814-64.482-65.866h-112.13v241.84l104.54 0.0353c42.159 0 72.139-36.517 72.192-67.829 9.6198 19.713 43 69.038 110.67 69.02zm-191.62-98.405c9.6724 0 17.295 9.5497 17.295 20.431 0 10.881-7.6222 20.449-17.295 20.449h-33.24v-40.88zm0.12264-90.801c9.6723 0 17.295 9.5497 17.295 20.431 0 10.881-7.6222 20.431-17.295 20.431h-33.24v-40.862zm44.261 65.166c7.6222-0.96373 20.308-9.6723 24.794-15.244-1.577 6.9038-1.6996 26.862 0.14009 33.748-5.099-7.8675-17.189-17.54-24.934-18.504zm85.719 0c0-33.993 27.563-61.556 61.556-61.556 34.011 0 61.574 27.563 61.574 61.556s-27.563 61.556-61.574 61.556c-33.993 0-61.556-27.563-61.556-61.556zm61.556 48.397c26.739 0 48.397-21.675 48.397-48.397s-21.658-48.397-48.397-48.397c-26.722 0-48.397 21.675-48.397 48.397s21.675 48.397 48.397 48.397" fill="#454341"/>
  <path d="m-565.08-495.18h-65.709v-93.85h-42.649v93.85h-67.461l-0.22779-241.9h67.689v89.977h42.649v-89.977h65.709zm301.07 1.1389c67.759-0.0353 122.9-56.317 122.88-124.09-0.0173-69.196-55.125-122.94-122.88-122.99-67.671-0.0526-102.26 49.763-110.79 69.879 0.0701-30.191-29.683-65.814-64.482-65.866h-112.13v241.84l104.54 0.0353c42.159 0 72.139-36.517 72.192-67.829 9.6198 19.713 43 69.038 110.67 69.02zm-191.62-98.405c9.6724 0 17.295 9.5497 17.295 20.431 0 10.881-7.6222 20.449-17.295 20.449h-33.24v-40.88zm0.12264-90.801c9.6723 0 17.295 9.5497 17.295 20.431 0 10.881-7.6222 20.431-17.295 20.431h-33.24v-40.862zm44.261 65.166c7.6222-0.96373 20.308-9.6723 24.794-15.244-1.577 6.9038-1.6996 26.862 0.14009 33.748-5.099-7.8675-17.189-17.54-24.934-18.504zm85.719 0c0-33.993 27.563-61.556 61.556-61.556 34.011 0 61.574 27.563 61.574 61.556s-27.563 61.556-61.574 61.556c-33.993 0-61.556-27.563-61.556-61.556zm61.556 48.397c26.739 0 48.397-21.675 48.397-48.397s-21.658-48.397-48.397-48.397c-26.722 0-48.397 21.675-48.397 48.397s21.675 48.397 48.397 48.397" fill="url(#linearGradient3143)"/>
 </g>
 <g transform="matrix(2.5692 0 0 2.5692 -687.72 229.84)" stroke-width="2.7759">
  <path d="m268.9 28.007h33.679v8.8473h-23.948v9.4143h21.104v8.8473h-21.104v17.124h-9.7305z" fill="#005aa9"/>
  <path d="m331.58 53.726-5.8757-14.343-5.8776 14.343zm-10.236-26.033h8.9726l18.956 44.547h-10.172l-4.0457-9.9214h-18.703l-4.0438 9.9214h-9.9214z" fill="#019fe2"/>
  <path d="m355.05 28.007h10.488l11.626 18.705 11.628-18.705h10.488v44.233h-9.6668v-28.877l-12.45 18.894h-0.25261l-12.322-18.705v28.688h-9.5396z" fill="#8bc540"/>
  <path d="m409.3 28.007h9.7305v44.233h-9.7305z" fill="#ffca05"/>
  <path d="m429.35 28.007h9.7305v35.385h22.053v8.8473h-31.783z" fill="#f3801f"/>
  <path d="m473.27 54.8-16.998-26.793h11.373l10.554 17.756 10.741-17.756h11.059l-16.998 26.604v17.629h-9.7305z" fill="#ee402f"/>
 </g>
</svg>
