<svg width="600pt" height="269.59pt" version="1.1" viewBox="0 0 600 269.59" xmlns="http://www.w3.org/2000/svg">
 <defs>
  <linearGradient id="linearGradient3143-1" x1="518.06" x2="518.06" y1="591.91" y2="663.25" gradientTransform="matrix(.43454 0 0 .43454 -395.54 -553.96)" gradientUnits="userSpaceOnUse">
   <stop stop-color="#f1f1f1" offset="0"/>
   <stop stop-color="#c0c1c4" offset=".99681"/>
   <stop stop-color="#c0c1c4" stop-opacity="0" offset="1"/>
  </linearGradient>
 </defs>
 <g transform="matrix(.64616 0 0 .64616 282.03 252.53)">
  <path d="m-96.136-144.87h-65.709v-93.85h-42.649v93.85h-67.461l-0.22779-241.9h67.689v89.977h42.649v-89.977h65.709zm301.07 1.139c67.759-0.0353 122.9-56.317 122.88-124.09-0.0173-69.196-55.125-122.94-122.88-122.99-67.671-0.0526-102.26 49.763-110.79 69.879 0.07012-30.191-29.683-65.814-64.482-65.866h-112.13v241.84l104.54 0.0353c42.159 0 72.139-36.517 72.192-67.829 9.6198 19.713 43 69.038 110.67 69.02zm-191.62-98.405c9.6723 0 17.295 9.5497 17.295 20.431 0 10.881-7.6222 20.449-17.295 20.449h-33.24v-40.88zm0.12264-90.801c9.6723 0 17.295 9.5497 17.295 20.431 0 10.881-7.6222 20.431-17.295 20.431h-33.24v-40.862zm44.261 65.166c7.6222-0.96373 20.308-9.6723 24.794-15.244-1.577 6.9038-1.6996 26.862 0.14008 33.748-5.099-7.8675-17.189-17.54-24.934-18.504zm85.719 0c0-33.993 27.563-61.556 61.556-61.556 34.011 0 61.574 27.563 61.574 61.556s-27.563 61.556-61.574 61.556c-33.993 0-61.556-27.563-61.556-61.556zm61.556 48.397c26.739 0 48.397-21.675 48.397-48.397s-21.658-48.397-48.397-48.397c-26.722 0-48.397 21.675-48.397 48.397s21.675 48.397 48.397 48.397" fill="#b9bbbd"/>
  <path d="m-96.136-144.87h-65.709v-93.85h-42.649v93.85h-67.461l-0.22778-241.9h67.689v89.977h42.649v-89.977h65.709zm301.07 1.139c67.759-0.0353 122.9-56.317 122.88-124.09-0.0174-69.196-55.125-122.94-122.88-122.99-67.671-0.0526-102.26 49.763-110.79 69.879 0.07005-30.191-29.683-65.814-64.482-65.866h-112.13v241.84l104.54 0.0353c42.159 0 72.139-36.517 72.192-67.829 9.6198 19.713 43 69.038 110.67 69.02zm-191.62-98.405c9.6723 0 17.295 9.5497 17.295 20.431 0 10.881-7.6222 20.449-17.295 20.449h-33.24v-40.88zm0.12264-90.801c9.6723 0 17.295 9.5497 17.295 20.431 0 10.881-7.6222 20.431-17.295 20.431h-33.24v-40.862zm44.261 65.166c7.6222-0.96373 20.308-9.6723 24.794-15.244-1.577 6.9038-1.6996 26.862 0.14008 33.748-5.099-7.8675-17.189-17.54-24.934-18.504zm85.719 0c0-33.993 27.563-61.556 61.556-61.556 34.011 0 61.574 27.563 61.574 61.556s-27.563 61.556-61.574 61.556c-33.993 0-61.556-27.563-61.556-61.556zm61.556 48.397c26.739 0 48.397-21.675 48.397-48.397s-21.658-48.397-48.397-48.397c-26.722 0-48.397 21.675-48.397 48.397s21.675 48.397 48.397 48.397" fill="url(#linearGradient3143-1)"/>
 </g>
 <g fill="#b22d26" stroke-width=".95956">
  <path d="m13.117 198.09c6.3907-3.9822 14.211-4.3276 21.504-3.5984 7.7725 0.89239 15.209 4.0877 21.331 8.9239l-8.3386 12.302c-5.9973-3.6463-12.465-7.4654-19.757-7.1008-3.6943-0.14393-8.425 1.7752-8.6553 6.0069-0.46059 3.5696 2.8499 5.8917 5.8245 6.8705 8.6073 3.1474 18.241 4.0398 25.822 9.5956 10.699 7.7245 9.1926 25.956-1.3434 33.182-7.12 4.9417-16.303 5.7766-24.699 4.6251-9.1734-1.1227-17.896-5.1816-24.805-11.313l9.7108-11.592c5.4503 4.4524 11.841 8.1755 18.99 8.8088 3.9726 0.35503 8.6648 0.23989 11.639-2.8019 2.6772-2.7539 1.6696-7.9068-1.9383-9.3365-9.183-4.5579-20.266-4.5579-28.653-10.862-4.7594-3.4928-6.928-9.5284-6.6498-15.295-0.35504-7.3694 3.56-14.777 10.018-18.414z"/>
  <path d="m106.73 208.16c5.2104-6.6114 12.724-11.361 20.947-13.194 13.213-2.754 28.038-0.29747 38.239 9.0199l-10.334 12.417c-5.8054-5.1337-13.549-8.3194-21.369-7.3119-7.782 0.91158-14.422 6.8129-16.994 14.096-2.8883 7.7149-1.6792 16.927 3.3777 23.471 7.3982 9.6916 22.406 10.334 32.021 3.7039v-10.272h-16.082v-13.923h31.901v31.786c-10.104 8.6361-23.802 13.04-37.034 11.236-9.1062-1.0267-17.925-5.3064-23.922-12.311-11.496-13.386-11.783-34.966-0.74846-48.717z"/>
  <path d="m255.31 268.4h17.051l6.7933-16.619h29.977l6.7933 16.619h17.051l-31.186-73.622h-15.261zm38.833-53.194 9.1737 22.162h-18.347z"/>
  <path d="m70.077 195.21h16.308v73.171h-16.308z"/>
  <path d="m182.35 195.22h15.017l33.901 44.538v-44.538h16.101v73.152h-13.904l-35.024-45.982v45.982h-16.092z"/>
  <path d="m323.17 195.22v14.869h22.05v58.299h16.582v-58.299h22.051v-14.869z"/>
  <path d="m393.93 195.23h16.068v43.449c0 9.44 6.2897 15.417 15.591 15.788 9.7302 0 15.59-6.0665 15.59-15.788v-43.449h16.317v44.332c0 21.566-13.24 29.862-31.908 29.814-19.273 0-31.659-9.5771-31.659-29.814z"/>
  <path d="m470.69 195.2h35.014c18.355 0 26.305 8.7035 26.201 24.966-0.14932 12.227-7.0536 18.524-15.531 22.134l17.838 26.052h-18.98l-15.9-23.49h-12.311v23.49h-16.332zm16.332 14.657v20.616h16.831c6.7154 0 11.529-3.1541 11.529-10.308 0-7.5139-5.0721-10.26-13.218-10.309z"/>
  <path d="m544.1 195.22h55.122v14.432h-38.8v14.6h34.304v14.384h-34.304v15.128h39.577v14.624h-55.899z"/>
 </g>
</svg>
