<svg width="800" height="329.44" version="1.1" xmlns="http://www.w3.org/2000/svg">
 <defs>
  <linearGradient id="linearGradient3143" x1="518.06" x2="518.06" y1="591.91" y2="663.25" gradientTransform="matrix(.57939 0 0 .57939 -164.47 -217.52)" gradientUnits="userSpaceOnUse">
   <stop stop-color="#f1f1f1" offset="0"/>
   <stop stop-color="#c0c1c4" offset=".99681"/>
   <stop stop-color="#c0c1c4" stop-opacity="0" offset="1"/>
  </linearGradient>
 </defs>
 <path d="m234.73 327.92h-87.612v-125.13h-56.866v125.13h-89.948l-0.30372-322.53h90.252v119.97h56.866v-119.97h87.612zm401.43 1.5186c90.345-0.04705 163.87-75.089 163.85-165.46-0.02306-92.261-73.5-163.92-163.85-163.99-90.228-0.0701-136.35 66.351-147.73 93.172 0.0935-40.255-39.577-87.752-85.976-87.822h-149.5v322.46l139.38 0.0471c56.212 0 96.186-48.689 96.256-90.439 12.826 26.284 57.333 92.051 147.56 92.027zm-255.5-131.21c12.896 0 23.059 12.733 23.059 27.241s-10.163 27.265-23.059 27.265h-44.32v-54.506zm0.16352-121.07c12.896 0 23.059 12.733 23.059 27.241 0 14.509-10.163 27.241-23.059 27.241h-44.32v-54.483zm59.015 86.887c10.163-1.285 27.078-12.896 33.059-20.326-2.1027 9.2051-2.2662 35.816 0.18678 44.997-6.7987-10.49-22.919-23.386-33.246-24.671zm114.29 0c0-45.324 36.75-82.075 82.075-82.075 45.348 0 82.098 36.75 82.098 82.075 0 45.324-36.75 82.075-82.098 82.075-45.324 0-82.075-36.75-82.075-82.075zm82.075 64.529c35.652 0 64.529-28.9 64.529-64.529s-28.877-64.529-64.529-64.529c-35.629 0-64.529 28.9-64.529 64.529s28.9 64.529 64.529 64.529" fill="#b9bbbd"/>
 <path d="m234.73 327.92h-87.612v-125.13h-56.866v125.13h-89.948l-0.3037-322.53h90.252v119.97h56.866v-119.97h87.612zm401.43 1.5186c90.345-0.04706 163.87-75.089 163.85-165.46-0.02326-92.261-73.5-163.92-163.85-163.99-90.228-0.0701-136.35 66.351-147.73 93.172 0.0934-40.255-39.577-87.752-85.976-87.822h-149.5v322.46l139.38 0.0471c56.212 0 96.186-48.689 96.256-90.439 12.826 26.284 57.333 92.051 147.56 92.027zm-255.5-131.21c12.896 0 23.059 12.733 23.059 27.241s-10.163 27.265-23.059 27.265h-44.32v-54.506zm0.16352-121.07c12.896 0 23.059 12.733 23.059 27.241 0 14.509-10.163 27.241-23.059 27.241h-44.32v-54.483zm59.015 86.887c10.163-1.285 27.078-12.896 33.059-20.326-2.1027 9.2051-2.2662 35.816 0.18678 44.997-6.7987-10.49-22.919-23.386-33.246-24.671zm114.29 0c0-45.324 36.75-82.075 82.075-82.075 45.348 0 82.098 36.75 82.098 82.075 0 45.324-36.75 82.075-82.098 82.075-45.324 0-82.075-36.75-82.075-82.075zm82.075 64.529c35.652 0 64.529-28.9 64.529-64.529s-28.877-64.529-64.529-64.529c-35.629 0-64.529 28.9-64.529 64.529s28.9 64.529 64.529 64.529" fill="url(#linearGradient3143)"/>
</svg>
