<svg width="1e3" height="510.84" version="1.1" xmlns="http://www.w3.org/2000/svg">
 <g transform="translate(457.45 -98.09)" fill="#155caa">
  <path d="m174.81 608.93h286.13l16-100.77h-47.742l50.387-313.61h47.742l15.226-96.452h-285.87l-10.903 61.032h66.065c8.9419-0.15097 17.49 3.7064 23.29 10.516 5.7226 6.9406 8.0839 16.057 6.4516 24.903l-53.29 329.03c-3.4516 17.622-19.077 30.204-37.032 29.806h-68.645l-7.8065 55.548"/>
  <path d="m-128.8 608.93h263.35l8.9032-56.258h-101.68c-8.8787 0.14452-17.364-3.6606-23.161-10.387-5.7316-6.9368-8.0942-16.056-6.4516-24.903l52.968-327.29c2.9845-17.752 18.321-30.774 36.323-30.839h103.23l11.677-61.161h-263.16l-18.194 113.29h33.806l-14.71 91.419h-132.9l14.387-91.419h33.419l18.323-113.29h-263.55l-18.258 113.29h40.258l-45.871 283.87h-39.226l-18.129 113.68h262.9l18.194-113.29h-33.29l15.548-97.419h133.16l-15.871 97.355h-33.871l-18.129 113.35"/>
  <path d="m127.26 389.45c-9.6542 10.079-15.748 23.039-17.355 36.903-2.7942 13.09 1.4929 26.686 11.29 35.806 8.9658 8.2271 20.67 12.826 32.839 12.903 13.297 0.21484 26.383-3.3419 37.742-10.258 9.8129-5.9381 18.542-13.51 25.806-22.387l-52.387-81.935c-13.597 8.34-26.308 18.046-37.935 28.968"/>
  <path d="m184.29 314.54c9.6-6.2516 18.568-13.425 26.774-21.419 8.2452-8.169 13.632-18.781 15.355-30.258 1.2839-7.7187-0.55484-15.631-5.0968-22-4.7548-6.2181-12.323-9.6161-20.129-9.0322-12.097-0.82711-23.74 4.7271-30.71 14.645-3.4316 4.9148-5.6432 10.577-6.4516 16.516-1.069 7.9452 0.0923 16.032 3.3548 23.355 4.7639 9.8936 10.421 19.33 16.903 28.194"/>
  <path d="m312.29 192.41c-5.129-5.9168-12.619-9.2497-20.452-9.0968l-176.97-0.7742c-16.597-0.0122-30.777 11.959-33.548 28.323l-47.419 286.06c-2.0232 8.231-0.57678 16.931 4 24.065 6.0097 5.2587 13.923 7.8026 21.871 7.0322h176.26c9.6839 0.06 18.981-3.7761 25.806-10.645l-31.806-50.968c-9.0903 9.4142-19.265 17.71-30.323 24.71-16.305 9.4806-34.883 14.343-53.742 14.065-28.839 0-49.032-8.3871-60.065-25.032-10.95-16.454-15.388-36.391-12.452-55.935 2.3361-21.04 11.622-40.701 26.387-55.871 14.082-12.744 29.581-23.827 46.194-33.032-7.7994-10.554-13.895-22.266-18.065-34.71-2.62-8.9987-3.431-18.428-2.3871-27.742 2.0871-18.229 10.759-35.069 24.387-47.355 14.054-12.615 32.412-19.359 51.29-18.839 19.355 0 34 5.9355 43.484 17.677 9.4129 11.828 13.394 27.08 10.968 42-2.3419 18.541-10.497 35.864-23.29 49.484-10.445 10.574-22.097 19.885-34.71 27.742l39.548 59.935c4.129-9.2903 7.0968-16.516 8.9032-21.226 2.5613-7.0968 4.7161-14.335 6.4516-21.677v-1.0323h34.839l-0.38709 1.7419c-4.4129 18.563-10.91 36.568-19.355 53.677-3.2903 7.1581-7.0452 14.097-11.226 20.774l19.355 30.129 42.129-251.1c1.5806-7.9368-0.50968-16.163-5.6774-22.387"/>
 </g>
</svg>
