<svg width="800" height="362.62" version="1.1" viewBox="0 0 800 362.62" xml:space="preserve" xmlns="http://www.w3.org/2000/svg"><g transform="matrix(.8891 0 0 .8891 -.0021276 -.04416)" fill="#00aad4" stroke-width="1.3333"><path d="m552.84 179.49-276.42-179.44-276.42 179.44z"/><path d="m0.095724 193.79h70.081v73.965h65.822v-73.965h70.088v209.75l-70.088-2.6e-4v-75.305h-65.822v75.305h-70.081z"/><path d="m215.13 299.2v-0.60096c0-62.586 49.404-109.32 115.6-109.32 35.932 0 66.977 11.986 89.735 31.746l-39.234 47.324c-13.776-11.669-29.045-16.278-46.412-16.278-27.247 0-45.032 18.973-45.032 47.416v0.60096c0 29.665 21.925 48.044 48.024 48.044 11.98 0 18.564-2.813 23.959-5.798v-14.08h-35.939v-48.836h101.53v97.039c-22.763 18.57-56.497 31.442-94.53 31.442-65.293 0-117.7-43.712-117.7-108.7"/><path d="m721.7 193.79-40.72 117.84-40.72-117.84h-212.55v58.795h55.704v150.93h70.049v-150.93h32.254l61.146 150.93h67.05l85.026-209.73z"/></g><g transform="matrix(1.2578 0 0 1.2578 -510.83 -450)" fill="#00aad4" stroke-width="1.3333"><path d="m916.28 418.55h14.536v26.138h26.799v-26.138h14.529v66.053h-14.529v-26.515h-26.799v26.515h-14.536z"/><path d="m995.83 431.65v39.822h11.227c11.894 0 19.912-8.0238 19.912-19.726v-0.18491c0-11.702-8.0173-19.912-19.912-19.912zm-14.536-13.116h25.762c20.764 0 35.107 14.245 35.107 32.835v0.19152c0 18.59-14.344 33.026-35.107 33.026h-25.762z"/></g></svg>
