<svg width="1014.8pt" height="1014.8pt" version="1.1" viewBox="0 0 1014.8 1014.8" xmlns="http://www.w3.org/2000/svg">
 <path d="m1014.8 507.4a507.4 507.4 0 0 1-507.4 507.4 507.4 507.4 0 0 1-507.4-507.4 507.4 507.4 0 0 1 507.4-507.4 507.4 507.4 0 0 1 507.4 507.4z" fill="#ff8300" style="paint-order:stroke fill markers"/>
 <g fill="#fff">
  <path d="m93.651 403.44v207.98h50.269v-77.745h131.73v77.745h50.271v-207.98h-50.271v79.986h-131.73v-79.986z"/>
  <path d="m350.16 403.44h50.25v207.98h-50.25z"/>
  <path d="m414.65 403.44v50.231h91.129v157.75h50.25v-157.75h91.131v-50.231z"/>
  <path d="m664.41 403.44h50.25v15.29c28.956-10.916 49.998-13.508 78.15-13.408 85.718 0 128.36 32.598 128.36 97.077v109.02h-50.265l0.01-109.02c0-31.093-17.315-41.519-45.096-45.734-21.335-2.1564-42.069-2.1735-64.308-0.2671-28.3 2.9913-46.796 14.959-46.796 46.001l-0.05 109.02h-50.25z"/>
 </g>
</svg>
