<svg width="800" height="201.11" version="1.1" viewBox="0 0 800 201.11" xmlns="http://www.w3.org/2000/svg">
 <g transform="matrix(20.03 0 0 20.03 -20.435 -221.14)" fill="none">
  <g transform="translate(1,11)">
   <path d="m27.192 0.040395h12.768v10.04h-12.768z" fill="#efeceb"/>
   <path d="m0.020202 0.040395h27.172v10.04h-27.172z" fill="#d93328"/>
   <path d="m1.596 3.5152h1.7576v5.3333h-1.7576z" fill="#fff"/>
   <path d="m23.838 1.4545h1.7576v5.3333h-1.7576z" fill="#fff"/>
   <path d="m3.6162 2.202a1.1111 1.1111 0 0 1-1.1111 1.1111 1.1111 1.1111 0 0 1-1.1111-1.1111 1.1111 1.1111 0 0 1 1.1111-1.1111 1.1111 1.1111 0 0 1 1.1111 1.1111z" fill="#fff"/>
   <path d="m25.798 8.0808a1.1111 1.1111 0 0 1-1.1111 1.1111 1.1111 1.1111 0 0 1-1.1111-1.1111 1.1111 1.1111 0 0 1 1.1111-1.1111 1.1111 1.1111 0 0 1 1.1111 1.1111z" fill="#fff"/>
   <path d="m14.303 6.9697v1.8788h2.9899v-1.8788h-1.0909v-5.5152h-1.899z" fill="#fff"/>
   <path d="m5.9596 1.4545h-1.899v7.3939h1.899v-2.8889h0.72727v2.8889h1.899v-7.3939h-1.899v2.6667h-0.72727z" fill="#fff"/>
   <path d="m11.455 1.2929c-1.2727 0-2.303 1.0303-2.303 2.303v3.0505c0 1.2727 1.0303 2.303 2.303 2.303s2.303-1.0303 2.303-2.303v-3.0505c0-1.2727-1.0303-2.303-2.303-2.303zm0.32323 5.6364c0 0.18182-0.16162 0.34343-0.34344 0.34343s-0.34343-0.16162-0.34343-0.34343v-3.6162c0-0.18182 0.16162-0.34343 0.34343-0.34343 0.18182 0 0.34344 0.16162 0.34344 0.34343z" fill="#fff"/>
   <path d="m21.192 8.8485h1.8788l-1.0505-7.3939h-2.9495l-1.3131 7.3939h1.899l0.20202-1.1515h1.1717zm-1.0707-2.7677 0.38384-2.2222 0.30303 2.2222z" fill="#fff"/>
   <path d="m29.919 3.0505v5.5758h1.8384v-5.5758h1.1515v-1.5354h-4.1414v1.5354z" fill="#686868"/>
   <path d="m33.212 1.5152 1.9596 7.1515h1.6566l1.9596-7.1515h-1.9394l-0.84848 3.6162-0.84848-3.6162z" fill="#686868"/>
  </g>
 </g>
</svg>
