<svg width="800" height="287.02" version="1.1" viewBox="0 0 800 287.02" xmlns="http://www.w3.org/2000/svg">
 <g transform="scale(6.4267)" fill="#e21d39">
  <path class="cls-1" d="m36.73 5.75a45.49 45.49 0 0 1-22.73 7.05h-14v31.86h14c2.75-17.38 14.74-31.48 22.73-38.91z"/>
  <path class="cls-1" d="m22.5 29.8s-6.13 14.86 3.15 14.86h9.11v-7.41c0-23.61 11-37.25 11-37.25a68.76 68.76 0 0 0-23.26 29.8z"/>
 </g>
 <g transform="scale(6.4267)" fill="#fff">
  <path class="cls-2" d="m44.74 22.47h1.51v3.71h4.89v-3.71h1.51v9.23h-1.51v-4h-4.89v4h-1.51z"/>
  <path class="cls-2" d="m54.19 28.21c0-2.37 1-3.65 3.51-3.65s3.5 1.28 3.5 3.65-1 3.64-3.5 3.64-3.51-1.27-3.51-3.64zm5.56 0c0-1.44-0.51-2.28-2.06-2.28s-2 0.84-2 2.28 0.5 2.3 2 2.3 2.06-0.84 2.06-2.31z"/>
  <path class="cls-2" d="m62.56 28.62v-3.9h1.44v3.94c0 1 0 1.84 1.71 1.84s1.71-0.8 1.71-1.87v-3.91h1.42v3.87c0 2.19-0.44 3.25-3.12 3.25s-3.16-1.05-3.16-3.22z"/>
  <path class="cls-2" d="m69.91 31 0.75-1.12a4.66 4.66 0 0 0 2.46 0.71c1.12 0 1.55-0.16 1.55-0.86s-0.39-0.69-1.54-0.88c-1.67-0.26-2.83-0.52-2.83-2.21 0-1.32 0.76-2.07 2.83-2.07a5.65 5.65 0 0 1 2.74 0.62l-0.68 1.2a4.49 4.49 0 0 0-2-0.48c-1.14 0-1.43 0.27-1.43 0.73s0.37 0.68 1.43 0.87c1.74 0.29 2.91 0.5 2.91 2.14s-0.87 2.19-3 2.19a5.46 5.46 0 0 1-3.19-0.84z"/>
  <path class="cls-2" d="m76.78 24.72h1.22l0.26-1.87 1.14-0.24v2.11h1.78v1.33h-1.75v3.44c0 0.59 0.07 0.94 1 0.94h0.81v1.29h-1.11c-1.74 0-2.15-0.63-2.15-2v-3.67h-1.2z"/>
  <path class="cls-2" d="m82.07 28.21c0-2.37 1-3.65 3.51-3.65s3.51 1.28 3.51 3.65-1 3.64-3.51 3.64-3.51-1.27-3.51-3.64zm5.56 0c0-1.44-0.51-2.28-2-2.28s-2.06 0.84-2.06 2.28 0.5 2.3 2.06 2.3 2-0.84 2-2.31z"/>
  <path class="cls-2" d="m90.48 24.81 1.14-0.09 0.12 0.62c0.35-0.42 1-0.78 2.56-0.78 2.18 0 2.51 1.18 2.51 2.91v4.25h-1.45v-4c0-1-0.09-1.75-1.54-1.75s-1.88 0.77-1.88 1.87v3.83h-1.46z"/>
  <path class="cls-2" d="m44.74 35h4.26c2.5 0 3.43 1 3.43 2.95s-0.88 3.15-3.47 3.15h-2.75v3.1h-1.47zm4.26 4.67c1.27 0 1.89-0.46 1.89-1.71s-0.6-1.64-1.92-1.64h-2.75v3.34z"/>
  <path class="cls-2" d="m53.53 41.11v-3.9h1.47v3.93c0 1 0 1.85 1.71 1.85s1.71-0.8 1.71-1.87v-3.91h1.43v3.87c0 2.18-0.44 3.24-3.12 3.24s-3.2-1.03-3.2-3.21z"/>
  <path class="cls-2" d="m62.77 43.54-0.29 0.72-1-0.11v-9.63h1.52v3.29c0.38-0.52 1.15-0.77 2.47-0.77 2.36 0 3 1.56 3 3.64s-0.66 3.64-3.08 3.64c-1.5-0.01-2.21-0.26-2.62-0.78zm4.16-2.78c0-1.37-0.34-2.31-1.85-2.31s-2.08 0.65-2.08 2.31 0.48 2.24 2.08 2.24c1.45 0 1.84-0.91 1.84-2.27z"/>
  <path class="cls-2" d="m69.86 42.28v-7.77h1.44v7.59c0 0.62 0.1 0.81 0.75 0.81h0.26v1.28h-0.77c-1.19 0.02-1.68-0.46-1.68-1.91z"/>
  <path class="cls-2" d="m73.81 34.85h1.46v1.6h-1.46zm0 2.37h1.43v7h-1.43z"/>
  <path class="cls-2" d="m76.72 40.69c0-2.11 0.68-3.64 3.52-3.64a3.36 3.36 0 0 1 2.67 1.09l-1.06 1a2.06 2.06 0 0 0-1.61-0.68c-1.61 0-2 0.86-2 2.27s0.42 2.3 2 2.3a2.25 2.25 0 0 0 1.69-0.69l1 0.93a3.51 3.51 0 0 1-2.74 1.07c-2.76-0.03-3.47-1.52-3.47-3.65z"/>
  <path class="cls-2" d="m87.19 35h2l2.93 7.11 2.88-7.11h2v9.24h-1.5v-6.77l-2.8 6.72h-1.25l-2.79-6.7v6.7h-1.46z"/>
  <path class="cls-2" d="m98.52 40.69c0-2 0.62-3.64 3.46-3.64s3 2.05 3 4.26h-5.06c0.09 1.1 0.53 1.78 2.09 1.78a3.31 3.31 0 0 0 2.19-0.68l0.78 1a4.41 4.41 0 0 1-3 0.91c-2.89 0.02-3.46-1.61-3.46-3.63zm1.41-0.69h3.68c-0.06-1-0.16-1.71-1.66-1.71s-1.95 0.71-2.03 1.71z"/>
  <path class="cls-2" d="m106 40.67c0-2.07 0.66-3.61 3.06-3.61 1.39 0 2 0.28 2.39 0.77v-3.31h1.46v9.63l-1.11 0.11-0.16-0.75c-0.42 0.55-1.17 0.82-2.62 0.82-2.34-0.02-3.02-1.56-3.02-3.66zm5.44 0c0-1.63-0.51-2.23-2.11-2.23s-1.86 0.87-1.86 2.23 0.36 2.34 1.86 2.34 2.14-0.68 2.14-2.34z"/>
  <path class="cls-2" d="m114.72 34.85h1.46v1.6h-1.46zm0 2.37h1.44v7h-1.44z"/>
  <path class="cls-2" d="m117.54 42.19c0-2 1.13-2.56 4.56-2.56h0.34c0-0.83-0.25-1.22-1.64-1.22a4 4 0 0 0-2 0.59l-0.8-1.14a5.72 5.72 0 0 1 2.93-0.81c2.44 0 2.89 0.81 2.89 2.8v2.34c0 0.64 0 0.74 0.66 0.74v1.26a4 4 0 0 1-0.6 0c-0.71 0-1.05-0.14-1.23-0.72-0.41 0.53-1.16 0.83-2.6 0.83-2.05 0.01-2.51-0.92-2.51-2.11zm4.91-1v-0.36h-0.27c-2.73 0-3.27 0.31-3.27 1.25 0 0.65 0.3 1 1.41 1 1.5 0 2.13-0.58 2.13-1.89z"/>
 </g>
</svg>
