<svg width="624.8" height="800" version="1.1" viewBox="0 0 624.8 800" xml:space="preserve" xmlns="http://www.w3.org/2000/svg"><defs><clipPath id="clipPath932"><path d="m0 0h612v792h-612z"/></clipPath></defs><g transform="matrix(1.3333 0 0 -1.3333 -143.09 1692.8)"><g transform="matrix(11.007 0 0 11.007 -1074 -6700.7)"><g clip-path="url(#clipPath932)"><g transform="translate(136.73 719.15)"><path d="m0 0c-6.13-3.901-13.291-5.274-18.112-5.274h-11.297v-25.997h11.334c2.188 14.18 11.723 25.37 18.075 31.271" fill="#ed1c24"/></g><g transform="translate(125.41 700.17)"><path d="m0 0c-0.011-0.027-4.871-11.821 2.505-12.293h7.288v6.85c0.473 18.78 8.698 29.376 8.698 29.376-0.37-0.356-12.048-8.069-18.491-23.933" fill="#ed1c24"/></g></g></g><g transform="matrix(11.007 0 0 11.007 -1074 -6700.7)" fill="#fff"><path d="m107.32 681.26h0.806v-1.986h2.612v1.986h0.806v-4.936h-0.806v2.152h-2.612v-2.152h-0.806z"/><g transform="translate(112.36 678.2)"><path d="m0 0c0 1.266 0.526 1.945 1.872 1.945s1.872-0.679 1.872-1.945-0.526-1.945-1.872-1.945-1.872 0.679-1.872 1.945m2.964-0.02c0 0.773-0.273 1.219-1.092 1.219-0.826 0-1.093-0.446-1.093-1.219s0.267-1.226 1.093-1.226c0.819 0 1.092 0.453 1.092 1.226" fill="#fff"/></g><g transform="translate(116.83 677.98)"><path d="m0 0v2.079h0.773v-2.099c0-0.559 6e-3 -0.986 0.912-0.986s0.906 0.427 0.906 1v2.085h0.76v-2.066c0-1.166-0.233-1.732-1.666-1.732-1.432 0-1.685 0.56-1.685 1.719" fill="#fff"/></g><g transform="translate(120.75 676.71)"><path d="m0 0 0.4 0.6c0.413-0.267 0.906-0.38 1.312-0.38 0.6 0 0.827 0.087 0.827 0.46 0 0.306-0.207 0.366-0.82 0.466-0.893 0.14-1.512 0.28-1.512 1.179 0 0.706 0.405 1.106 1.512 1.106 0.579 0 1.099-0.12 1.465-0.333l-0.366-0.64c-0.273 0.147-0.666 0.254-1.079 0.254-0.613 0-0.766-0.14-0.766-0.387 0-0.3 0.199-0.373 0.766-0.466 0.926-0.153 1.552-0.266 1.552-1.139 0-0.853-0.466-1.173-1.625-1.173-0.567 0-1.16 0.114-1.666 0.453" fill="#fff"/></g><g transform="translate(124.42 680.06)"><path d="m0 0h0.666l0.14 0.999 0.606 0.127v-1.126h0.953v-0.706h-0.953v-1.839c0-0.313 0.04-0.499 0.52-0.499h0.433v-0.687c-0.106-7e-3 -0.453-7e-3 -0.58-7e-3 -0.925 0-1.145 0.334-1.145 1.08v1.952h-0.64z" fill="#fff"/></g><g transform="translate(127.24 678.2)"><path d="m0 0c0 1.266 0.526 1.945 1.872 1.945s1.872-0.679 1.872-1.945-0.526-1.945-1.872-1.945-1.872 0.679-1.872 1.945m2.965-0.02c0 0.773-0.273 1.219-1.093 1.219-0.826 0-1.093-0.446-1.093-1.219s0.267-1.226 1.093-1.226c0.82 0 1.093 0.453 1.093 1.226" fill="#fff"/></g><g transform="translate(131.73 680.01)"><path d="m0 0 0.606 0.047 0.067-0.327c0.18 0.22 0.54 0.413 1.366 0.413 1.159 0 1.339-0.626 1.339-1.552v-2.265h-0.773v2.112c0 0.546-0.053 0.932-0.826 0.932-0.853 0-1-0.413-1-0.999v-2.045h-0.779z" fill="#fff"/></g><g transform="translate(107.32 674.6)"><path d="m0 0h2.265c1.332 0 1.819-0.559 1.819-1.572 0-1.019-0.467-1.679-1.852-1.679h-1.446v-1.685h-0.786zm2.265-2.518c0.68 0 1.013 0.247 1.013 0.906 0 0.673-0.32 0.879-1.026 0.879h-1.466v-1.785z" fill="#fff"/></g><g transform="translate(112.01 671.32)"><path d="m0 0v2.078h0.773v-2.098c0-0.559 6e-3 -0.986 0.913-0.986 0.906 0 0.906 0.427 0.906 1v2.084h0.759v-2.065c0-1.165-0.233-1.731-1.665-1.731-1.433 0-1.686 0.559-1.686 1.718" fill="#fff"/></g><g transform="translate(116.94 670.02)"><path d="m0 0-0.153-0.386-0.527 0.06v5.143h0.773v-1.766c0.207 0.28 0.613 0.414 1.319 0.414 1.259 0 1.593-0.833 1.593-1.946 0-1.119-0.354-1.938-1.639-1.938-0.766 0-1.146 0.139-1.366 0.419m2.219 1.486c0 0.739-0.187 1.232-0.987 1.232-0.826 0-1.132-0.346-1.132-1.232 0-0.88 0.28-1.213 1.132-1.213 0.787 0 0.987 0.487 0.987 1.213" fill="#fff"/></g><g transform="translate(120.73 670.69)"><path d="m0 0v4.144h0.767v-4.051c0-0.327 0.053-0.433 0.399-0.433h0.14v-0.68c-0.067-6e-3 -0.233-0.013-0.413-0.013-0.633 0-0.893 0.26-0.893 1.033" fill="#fff"/></g><path d="m122.83 673.8h0.779v0.852h-0.779zm6e-3 -4.137h0.766v3.731h-0.766z"/><g transform="translate(124.38 671.54)"><path d="m0 0c0 1.126 0.373 1.945 1.879 1.945 0.666 0 1.119-0.233 1.425-0.579l-0.566-0.533c-0.166 0.172-0.4 0.359-0.859 0.359-0.859 0-1.099-0.459-1.099-1.212s0.226-1.226 1.099-1.226c0.386 0 0.626 0.12 0.899 0.373l0.52-0.493c-0.4-0.373-0.766-0.572-1.453-0.572-1.465 0-1.845 0.805-1.845 1.938" fill="#fff"/></g><path d="m129.97 674.6h1.053l1.565-3.791 1.566 3.791h1.039v-4.936h-0.793v3.584l-1.492-3.584h-0.666l-1.492 3.577v-3.577h-0.78z"/><g transform="translate(136.02 671.54)"><path d="m0 0c0 1.059 0.333 1.945 1.852 1.945 1.572 0 1.626-1.093 1.599-2.271h-2.698c0.047-0.587 0.28-0.953 1.113-0.953 0.592 0 0.886 0.153 1.172 0.36l0.413-0.54c-0.426-0.327-0.873-0.486-1.585-0.486-1.559 0-1.866 0.872-1.866 1.945m0.753 0.346h1.965c-0.033 0.533-0.086 0.913-0.886 0.913-0.772 0-1.019-0.36-1.079-0.913" fill="#fff"/></g><g transform="translate(140.03 671.55)"><path d="m0 0c0 1.105 0.354 1.925 1.633 1.925 0.746 0 1.098-0.146 1.272-0.406v1.766h0.78v-5.138l-0.594-0.059-0.086 0.399c-0.227-0.292-0.626-0.439-1.399-0.439-1.259 0-1.606 0.833-1.606 1.952m2.905 0c0 0.873-0.273 1.192-1.126 1.192-0.8 0-0.993-0.466-0.993-1.192 0-0.74 0.193-1.246 0.993-1.246 0.826 0 1.126 0.36 1.126 1.246" fill="#fff"/></g><path d="m144.67 673.8h0.779v0.852h-0.779zm6e-3 -4.137h0.766v3.731h-0.766z"/><g transform="translate(146.17 670.74)"><path d="m0 0c0 1.06 0.6 1.366 2.432 1.366h0.186c-0.013 0.446-0.133 0.653-0.873 0.653-0.459 0-0.845-0.173-1.078-0.313l-0.408 0.606c0.254 0.173 0.867 0.433 1.566 0.433 1.3 0 1.539-0.433 1.539-1.492v-1.253c0-0.34 0.027-0.393 0.354-0.393v-0.673c-0.054-0.013-0.154-0.013-0.32-0.013-0.38 0-0.56 0.073-0.66 0.386-0.213-0.286-0.619-0.446-1.386-0.446-1.099 0-1.352 0.506-1.352 1.139m2.618 0.533v0.193h-0.14c-1.465 0-1.745-0.166-1.745-0.666 0-0.346 0.16-0.533 0.753-0.533 0.799 0 1.132 0.307 1.132 1.006" fill="#fff"/></g></g></g></svg>
