<svg width="1066.7" height="657.07" version="1.1" viewBox="0 0 1e3 616" xmlns="http://www.w3.org/2000/svg">
 <g transform="scale(.22374 .22377)">
  <path d="m337.49 2751.4c-5.0224-1.7958-314.39-245.76-323.11-254.8-6.6308-6.8764-10.472-13.768-12.862-23.077-1.3685-5.3295-1.5289-102.46-1.5156-918 0.013-809.92 0.1839-912.76 1.525-918.45 4.4116-18.716 21.262-35.276 39.698-39.013 2.8944-0.5868 154.89-25.411 337.76-55.164 363.86-59.199 339.48-55.689 352.66-50.78 10.677 3.9784 10.19 3.6076 117.84 89.678l75 59.964 0.5-76.639c0.4956-75.96 0.5195-76.69 2.7033-82.471 6.2317-16.496 18.822-28.636 34.297-33.07 3.025-0.8668 289.67-48.43 637-105.7 442.64-72.982 633.89-104.14 639.5-104.2 9.3821-0.091 19.518 2.636 26.65 7.1697 3.536 2.2479 255.28 202.37 264.18 210.01 1.6518 1.4175 1.9173 1.4197 2.6993 0.022 0.4771-0.8525 5.4593-8.0101 11.072-15.906 12.82-18.036 29.441-38.762 48.119-60.003 148.95-169.38 346.38-287.27 580.28-346.48 160.44-40.617 306.05-45.328 443.94-14.363 108.28 24.314 210.14 72.109 293.19 137.57 6.1233 4.8262 20.298 15.957 31.5 24.736 264.23 207.06 386.05 310.67 422.17 359.04 7.4661 9.9975 8.9356 13.453 8.9397 21.024 0 7.292-2.986 14.893-7.5632 19.227-8.3209 7.8786-523.75 414.83-527.68 416.63-6.1312 2.7985-15.916 2.7864-22-0.027-2.475-1.1446-12.6-8.5046-22.5-16.356-21.284-16.879-31.483-23.782-46.156-31.239-35.399-17.99-73.611-25.469-116.29-22.76-48.306 3.0664-85.6 12.807-126.55 33.055-36.571 18.082-66.242 39.569-96.523 69.901-51.5 51.586-88.662 117.29-105.08 185.8-2.969 12.385-9.9584 51.395-9.3346 52.1 0.5974 0.6751 30.946-8.0316 41.891-12.018 25.102-9.1429 52.662-24.19 74.72-40.795 31.057-23.379 56.143-49.656 87.39-91.537 7.7966-10.45 16.497-21.167 19.335-23.815 10.202-9.5203 24.855-14.015 38.681-11.866 4.0583 0.631 19.427 4.7248 34.152 9.0976 14.725 4.3727 78.073 23.088 140.77 41.589 322.14 95.054 387.63 114.57 393.85 117.34 2.2812 1.0172 6.3706 3.5552 9.0876 5.6398 2.7169 2.0847 79.074 66.522 169.68 143.19 184.14 155.81 168.81 141.67 167.56 154.59-0.9463 9.7971-3.9784 17.268-19.168 47.232-25.633 50.564-47.892 88.933-75.997 131-47.585 71.224-95.652 129.69-157.48 191.56-37.108 37.132-66.792 63.806-103.99 93.442-126.72 100.97-267.79 172.63-414.44 210.51-91.695 23.686-186.97 35.284-276.62 33.674-88.653-1.5925-162.65-13.705-240.5-39.368-38.485-12.686-66.505-24.805-121-52.334-180.93-91.402-351.42-206.53-466.71-315.16l-13.712-12.92-0.5752 143.6-2.8011 5.7041c-3.0801 6.2723-7.0864 10.181-13.199 12.876-2.4884 1.0973-109.43 19.003-283 47.381-153.45 25.089-280.88 46.298-283.17 47.13-2.2929 0.8318-4.9929 2.7267-6 4.2107-1.7532 2.5835-1.8524 10.294-2.3311 181.2l-0.5 178.5-2.1523 4.6563c-2.7349 5.9166-9.2554 12.272-14.656 14.285-4.6768 1.7433-622.35 101.56-628.46 101.56-8.6306 0-10.956-1.6273-77.728-54.39l-65-51.362-0.5 57.626c-0.3784 43.615-0.81 58.326-1.7749 60.506-3.2388 7.3179-10.337 13.775-17.129 15.582-3.1398 0.8351-182.23 30.173-604.6 99.042-256.01 41.744-230.78 37.99-238 35.408z"/>
  <path d="m387.37 2411.5c173.31-28.323 317.1-52.236 319.52-53.141 5.9764-2.2336 11.928-7.8299 14.744-13.863l2.3333-5-0.024-1787-2.0346-4.5c-4.3557-9.6336-13.842-15.972-23.931-15.99-5.3623-0.01-629.91 101.89-637.09 103.95-6.0313 1.7275-12.435 7.3933-15.568 13.774l-2.8316 5.7666v893.5c0 828.81 0.1197 893.76 1.6528 897.14 4.4436 9.7848 14.22 16.553 24.23 16.774 2.1359 0.047 145.69-23.087 319-51.41z" fill="#fff"/>
  <path d="m1032.6 2306c164.74-26.634 575.66-94.067 579.56-95.107 5.5121-1.4694 11.69-6.7303 15.19-12.934l3.1023-5.5 0.5-174.54c0.471-164.42 0.6021-174.7 2.2594-177.23 0.9677-1.4767 2.9932-3.323 4.5011-4.1027 3.1506-1.6293-2.9563-0.6085 275.29-46.017 162.65-26.544 211.48-34.835 214.63-36.445 5.4721-2.7916 10.19-7.6658 12.729-13.15l2.0881-4.5112v-553l-2.7008-5.1197c-4.5974-8.7148-13.502-14.451-22.573-14.542-2.5995-0.026-10.576 0.9179-17.726 2.0977s-56.875 9.3085-110.5 18.064-152.52 24.937-219.77 35.96-123.63 20.041-125.3 20.041c-4.2584 0-8.6821-2.5389-10.974-6.2985-1.9075-3.1285-1.9521-5.9536-1.9558-123.92v-120.72l3.0927-3.5225c1.7011-1.9373 4.7386-4.004 6.75-4.5925 2.0115-0.5885 129.69-21.696 283.74-46.904 212.78-34.82 281.03-46.322 284.05-47.862 5.3321-2.7202 10.163-7.7196 12.745-13.188l2.1242-4.5v-562l-2.2022-4.1165c-5.4351-10.16-13.817-15.598-24.022-15.586-5.9164 0.01-1208.2 196.37-1214 198.28-4.9987 1.6415-12.733 9.2146-15.151 14.835l-2.1381 4.97 0.2523 894.31c0.2406 853.17 0.3336 894.46 2.0209 897.55 4.9934 9.1374 14.138 15.235 22.876 15.254 2.5545 0.01 21.229-2.6716 41.5-5.9488z" fill="#fff"/>
  <path d="m3153 1984.6c166.98-14.347 314.69-59.734 454.41-139.62 187.55-107.24 345.89-268.51 452.67-461.06 14.21-25.623 27.586-52.783 30.97-62.886 5.52-16.476 3.4067-27.591-6.1963-32.588-5.2057-2.7089-56.41-18.052-326.85-97.936-84.975-25.101-164.18-48.572-176-52.158-34.017-10.317-37.7-9.6934-51.236 8.6687-13.491 18.303-27.398 36.186-35.766 45.994-11.296 13.24-33.52 35.652-45.906 46.295-51.367 44.138-111.75 70.022-184.09 78.914-13.711 1.6853-55.396 1.6764-69-0.015-74.12-9.2141-133.39-44.479-170.39-101.38-7.2693-11.178-18.493-34.401-23.109-47.815-19.68-57.188-20.072-125.1-1.1048-191.18 29.812-103.87 106.91-198.27 199.61-244.42 33.368-16.611 63.091-25.431 104.5-31.01 16.174-2.1794 54.636-2.5042 68-0.5743 47.31 6.8319 82.648 23.54 122 57.681 14.997 13.011 22.088 15.805 32.936 12.98 9.0454-2.3561-4.2462 8.2342 146.06-116.38 83.579-69.29 282.93-234.79 322.88-268.05 17.944-14.94 27.818-23.862 29.708-26.842 3.8847-6.1254 4.644-12.127 2.5494-20.152-2.3174-8.8776-6.8763-16.613-19.301-32.75-82.626-107.31-194.95-186.6-326.33-230.34-141.81-47.22-299.2-52.04-468-14.333-169.02 37.754-319.85 105.87-448.15 202.38-127.28 95.747-229.54 218.41-300.75 360.79-70.258 140.46-108.29 288.8-119.29 465.21-1.6908 27.127-1.6855 126.99 0.01 152.5 7.9324 119.5 27.824 214.86 63.764 305.69 65.112 164.54 176.49 288.55 324.92 361.76 45.191 22.289 89.744 38.607 139.5 51.095 50.697 12.724 93.564 19.018 159 23.346 15.041 0.9948 100.67-0.3125 118-1.8015z" fill="#fff"/>
 </g>
</svg>
