<svg width="1e3" height="579.4" version="1.2" xmlns="http://www.w3.org/2000/svg">
 <link href="" rel="stylesheet" type="text/css"/>
 <style type="text/css"/>
 <g transform="translate(-133.42 -822.16)" fill="none" stroke="#000" stroke-linecap="square" stroke-linejoin="bevel">
  <g fill="#e5deda" stroke="none">
   <g transform="matrix(17.544 0 0 17.544 -8113.1 -276.98)">
    <path d="m525.83 67.534c-0.641-0.86-3.175-2.788-5.936-4.884 0.067 0.055 0.134 0.109 0.199 0.165 7e-3 7e-3 0.016 0.014 0.022 0.021 0.062 0.054 0.124 0.109 0.186 0.165 0.01 8e-3 0.018 0.017 0.027 0.026 0.062 0.055 0.121 0.111 0.18 0.169l0.021 0.021c0.122 0.119 0.239 0.241 0.352 0.367 0.01 8e-3 0.017 0.018 0.025 0.026 0.053 0.06 0.106 0.12 0.158 0.181l0.027 0.033c0.052 0.061 0.103 0.123 0.151 0.185 8e-3 0.01 0.016 0.02 0.021 0.028 0.053 0.066 0.104 0.133 0.153 0.2 0.251 0.336 0.222 0.525 0.03 0.688-0.193 0.161-5.962 4.952-6.196 5.138-0.237 0.186-0.435 0.06-0.517-0.016-0.796-0.735-1.656-1-2.923-0.749-2.044 0.401-3.806 2.646-3.743 4.855l2e-3 0.044c0.064 2.275 1.924 3.368 3.969 2.964 0.046-9e-3 0.092-0.019 0.136-0.029 0.036-0.462 0.088-0.685 0.088-0.685 0.341-2.034 1.948-3.663 3.678-4.002 1.041-0.206 1.806-0.059 2.487 0.406 9e-3 7e-3 0.432 0.34 0.434 0.342 0.084 0.076 0.279 0.203 0.517 0.016l6.401-5.072c0.096-0.076 0.158-0.192 0.158-0.322 3e-3 -0.111-0.039-0.208-0.107-0.281" fill="#e5deda"/>
   </g>
   <g transform="matrix(17.544 0 0 17.544 -8113.1 -276.98)">
    <path d="m526.96 80.517-4.613-3.657-2e-3 1e-3c0.01 8e-3 0.02 0.019 0.028 0.029 0 1e-3 1e-3 1e-3 1e-3 3e-3 8e-3 0.01 0.016 0.021 0.021 0.032 0 1e-3 1e-3 2e-3 2e-3 3e-3 5e-3 0.012 0.01 0.024 0.013 0.036v2e-3c0.025 0.092 1e-3 0.208-0.039 0.32-1e-3 1e-3 -1e-3 3e-3 -2e-3 6e-3 -5e-3 0.014-0.011 0.027-0.016 0.041-1e-3 3e-3 -2e-3 7e-3 -4e-3 0.011-6e-3 0.012-0.01 0.025-0.017 0.037-1e-3 4e-3 -3e-3 9e-3 -5e-3 0.014-6e-3 0.011-0.011 0.022-0.015 0.033-3e-3 5e-3 -5e-3 0.01-9e-3 0.016-4e-3 9e-3 -8e-3 0.02-0.013 0.029-4e-3 7e-3 -6e-3 0.014-9e-3 0.02-5e-3 7e-3 -0.025 0.049-0.032 0.061-1.85 3.679-5.513 7.109-10.33 8.068-0.964 0.192-1.839 0.281-2.628 0.272-5.464 0.016-9.393-3.649-9.538-10.171l-1e-3 -0.068c-0.067-3.33 0.743-6.219 2.216-8.555 0.01-0.017 0.021-0.035 0.032-0.053-0.488-0.387-3.847-3.034-3.953-3.116 0.072 0.064 0.119 0.157 0.119 0.262v7.11c0 0.177-0.13 0.323-0.301 0.349l-7.21 1.18h-1e-3l1e-3 3e-3c-0.099 0-0.18 0.08-0.18 0.181l-1e-3 -1e-3v3.009h1e-3c0 0.1 0.081 0.18 0.18 0.18v2e-3s6.081-0.998 6.109-0.998c0.195 0 0.353 0.158 0.353 0.353v6.997c0 0.176-0.128 0.321-0.296 0.348l-6.165 1.007h-1e-3l1e-3 2e-3c-0.089 0-0.163 0.066-0.177 0.151v4.392c0 0.184-0.139 0.335-0.319 0.352 0 0-7.103 1.165-7.883 1.287-0.01 2e-3 -0.02 3e-3 -0.029 4e-3 -0.025 4e-3 -0.039 6e-3 -0.041 6e-3 -0.195 0-0.353-0.157-0.353-0.353v-20.089l-3.267-2.573s2e-3 1e-3 5e-3 4e-3c0.081 0.064 0.132 0.164 0.132 0.275v23.007c0 0.173-0.124 0.316-0.287 0.347l-8.129 1.329c-0.024 6e-3 -0.049 9e-3 -0.075 9e-3 -0.07 0-0.135-0.021-0.19-0.057l4.482 3.555c0.093 0.072 0.161 0.123 0.259 0.113 7e-3 0 9.808-1.604 9.808-1.604 0.166-0.029 0.292-0.173 0.292-0.347v-1.402l1.662 1.321c0.119 0.093 0.247 0.071 0.247 0.071l8.018-1.311c0.167-0.027 0.296-0.172 0.296-0.348v-4.487c5e-3 -0.078 0.058-0.142 0.13-0.163l0.046-8e-3h3e-3l7.189-1.177c0.167-0.028 0.294-0.173 0.294-0.349v-1.789c2.764 2.677 6.771 4.524 6.774 4.525 1.96 0.937 4.36 1.182 7.003 0.656 4.817-0.959 8.47-4.369 10.319-8.047 0.1-0.195 0.284-0.545 0.095-0.698" fill="#e5deda"/>
   </g>
  </g>
 </g>
</svg>
