<svg width="546.69" height="407.17" version="1.1" viewBox="0 0 546.69 407.17" xmlns="http://www.w3.org/2000/svg">
 <g transform="translate(-69.76,-199.63)">
  <g fill="#f68921" data-name="New Logo">
   <path transform="translate(.76 -1.5)" d="m269.22 289.43a112 112 0 1 0 112 112 112.12 112.12 0 0 0-112-112zm0 166.76a54.77 54.77 0 1 1 54.78-54.76 54.77 54.77 0 0 1-54.78 54.77z"/>
   <path transform="translate(.76 -1.5)" d="m122.48 292.56h-44.94a8.35 8.35 0 0 0-8.34 8.27v200.86a8.35 8.35 0 0 0 8.34 8.31h44.94a8.35 8.35 0 0 0 8.34-8.27v-200.87a8.35 8.35 0 0 0-8.34-8.3z"/>
   <path transform="translate(.76 -1.5)" d="m472.83 573.51v-0.19c0-19 14.69-35 35.46-35s35.28 15.75 35.28 34.79v0.19c0 19-14.69 35-35.46 35s-35.28-15.74-35.28-34.79zm58.27 0v-0.19c0-13.15-9.56-24.06-23-24.06s-22.82 10.74-22.82 23.87v0.19c0 13.15 9.56 24.06 23 24.06s22.82-10.72 22.82-23.87z"/>
   <path transform="translate(.76 -1.5)" d="m429.82 553.47a33.64 33.64 0 0 0-5.84-3.13 17.09 17.09 0 0 0-6.62-1.27 16.82 16.82 0 0 0-4 0.47 10.94 10.94 0 0 0-3.47 1.5 7.86 7.86 0 0 0-2.49 2.67 7.76 7.76 0 0 0-1 3.89 6.11 6.11 0 0 0 2.34 5.17 23.15 23.15 0 0 0 5.93 3.1 76.81 76.81 0 0 0 7.61 2.54 30.8 30.8 0 0 1 7.61 3.38 18.76 18.76 0 0 1 5.83 5.73 17 17 0 0 1 2.34 9.48 20.92 20.92 0 0 1-2 9.34 19.07 19.07 0 0 1-5.31 6.62 22.86 22.86 0 0 1-7.76 3.94 32.43 32.43 0 0 1-9.3 1.38 34.81 34.81 0 0 1-11.94-2.07 22.93 22.93 0 0 1-9.87-6.89l8.12-7.82a37.21 37.21 0 0 0 6.52 4.31 15.44 15.44 0 0 0 7.47 1.83 15.62 15.62 0 0 0 4.13-0.57 12.83 12.83 0 0 0 3.76-1.7 8.89 8.89 0 0 0 2.76-2.87 7.7 7.7 0 0 0 1-4 6.89 6.89 0 0 0-2.34-5.64 21 21 0 0 0-5.83-3.34q-3.47-1.35-7.57-2.52a32 32 0 0 1-7.61-3.34 18.47 18.47 0 0 1-5.82-5.64 16.75 16.75 0 0 1-2.36-9.44 17.92 17.92 0 0 1 2.11-8.93 19.3 19.3 0 0 1 5.51-6.24 24.19 24.19 0 0 1 7.84-3.71 33.64 33.64 0 0 1 9-1.23 33 33 0 0 1 10.2 1.6 23.69 23.69 0 0 1 8.88 5.26z"/>
   <path transform="translate(.76 -1.5)" d="m89.83 550.5h-20.67v-10.81h53.32v10.83h-20.67v56.48h-12z"/>
   <path transform="translate(.76 -1.5)" d="m189.89 539.69h12v56.51h28.63v10.8h-40.6z"/>
   <path transform="translate(.76 -1.5)" d="m295.37 539.69h13.78l18.36 50.87 18.94-50.87h12.93l-27.2 67.31h-10.37z"/>
   <path transform="translate(.76 -1.5)" d="m368.33 539.69h12v67.31h-12z"/>
   <path transform="translate(.76 -1.5)" d="m449.42 539.69h12v67.31h-12z"/>
   <path transform="translate(.76 -1.5)" d="m555 539.69h15.88l32.62 50h0.19v-50h12v67.31h-15.2l-33.28-51.64h-0.21v51.64h-12z"/>
   <polygon points="287.14 549 287.14 538.16 242.54 538.16 242.54 605.49 287.14 605.49 287.14 594.64 254.51 594.64 254.51 576.39 285.43 576.39 285.43 565.55 254.51 565.55 254.51 549"/>
   <polygon points="179.22 549 179.22 538.16 134.62 538.16 134.62 605.49 179.22 605.49 179.22 594.64 146.61 594.64 146.61 576.39 177.51 576.39 177.51 565.55 146.61 565.55 146.61 549"/>
   <path transform="translate(.76 -1.5)" d="m122.36 201.13h-45.08a8.34 8.34 0 0 0-8.28 8.34v45a8.35 8.35 0 0 0 8.34 8.27h45a8.35 8.35 0 0 0 8.34-8.27v-45a8.34 8.34 0 0 0-8.32-8.34z"/>
   <path transform="translate(.76 -1.5)" d="m511.44 289.43c-57.24 0-103.81 45.15-103.81 100.61v111.64a8.35 8.35 0 0 0 8.34 8.27h45.27a8.34 8.34 0 0 0 8.27-7.77v-108.48c0-22.26 18.79-40.35 41.87-40.35s41.87 18.1 41.87 40.35v108.43a8.34 8.34 0 0 0 8.27 7.84h45.7a8.35 8.35 0 0 0 8.34-8.27v-111.63c0.12-55.49-46.65-100.64-104.12-100.64z"/>
  </g>
 </g>
</svg>
