<svg width="800" height="630.38" space="preserve" version="1.1" viewBox="0 0 800 630.38" xmlns="http://www.w3.org/2000/svg">
 <g transform="matrix(1.4801 0 0 1.4801 -103.76 -299.43)" fill="#5ac03e">
  <g fill="#5ac03e">
   <path class="st0" d="m70.3 620.1c0 4.5 3.6 8 8 8.1h524.9c4-0.5 7.2-3.9 7.2-8.1v-86.2h-540.1zm510.8-29.6c-1.8-1.5-5-3-9.4-4.3-5.7-1.8-9.8-3.5-12.3-5.2s-4.5-3.7-5.8-6.1-1.9-5.3-1.9-8.9c0-6.1 2.3-11.1 6.9-14.8 4.6-3.8 10.6-5.7 18-5.7 7.9 0 14.4 2.3 19.4 7l-8.8 9.3c-2.6-3.6-6.6-5.4-11.9-5.4-3.4 0-6.2 0.8-8.1 2.3-2 1.6-3 3.7-3 6.4 0 2.3 0.9 4.1 2.7 5.5s4.4 2.6 7.8 3.7c6.7 2 11.3 3.9 13.7 5.6s4.4 3.7 5.8 6.1 2.1 5.4 2.1 9.1c0 6.6-2.3 11.8-6.8 15.8-4.5 3.9-10.4 5.9-17.5 5.9-10 0-17.5-3.1-22.7-9.2l9.1-8.8c1.5 2.2 3.4 4 5.7 5.2 2.4 1.2 4.9 1.9 7.7 1.9 3.5 0 6.4-0.9 8.6-2.7s3.3-4 3.3-6.6c0.1-2.6-0.8-4.6-2.6-6.1zm-93.6-43.2h12.1v42.8c0 4.5 1.4 8.2 4.1 11 2.8 2.8 6.5 4.2 11.1 4.2 4.7 0 8.4-1.4 11.1-4.2s4.1-6.5 4.1-11v-42.8h12.1v43.4c0 7.5-2.5 13.7-7.5 18.7s-11.6 7.5-19.8 7.5-14.8-2.5-19.8-7.5-7.5-11.2-7.5-18.7zm-45.9 0h12.1v56.9h28.8v10.9h-40.9zm-55.1 0h23.3c7.9 0 13.9 1.7 18.2 5.1 4.2 3.4 6.4 8.2 6.4 14.3 0 7.1-2.1 12.2-6.4 15.5-4.3 3.2-11 4.8-20 4.8h-9.3v28h-12.1z"/>
   <path class="st0" d="m418.3 574.3c2.3-1.6 3.4-4 3.4-7.2 0-6.3-4.7-9.5-14.1-9.5h-9v19h7.9c5.6 0.1 9.5-0.7 11.8-2.3z"/>
   <path class="st0" d="m507.5 289.6c-56.6 0-102.6 44.6-102.6 99.5v110.3c0 4.5 3.7 8.2 8.2 8.2h44.8c4.4 0 7.9-3.4 8.2-7.7v-107.3c0-22 18.6-39.9 41.4-39.9s41.4 17.9 41.4 39.9v107.2c0.3 4.3 3.8 7.8 8.2 7.8h45.2c4.5 0 8.2-3.7 8.3-8.2v-110.3c-0.1-54.9-46.3-99.5-103.1-99.5z"/>
   <path class="st0" d="m268.1 511c61 0 110.7-49.7 110.7-110.7s-49.7-110.7-110.7-110.7-110.7 49.7-110.7 110.7 49.6 110.7 110.7 110.7zm0-164.8c29.9 0 54.1 24.3 54.1 54.1s-24.3 54.1-54.1 54.1-54.1-24.3-54.1-54.1c-0.1-29.9 24.2-54.1 54.1-54.1z"/>
   <path class="st0" d="m78.6 507.6h44.4c4.5 0 8.2-3.7 8.3-8.2v-198.5c0-4.5-3.7-8.2-8.3-8.2h-44.4c-4.5 0-8.2 3.7-8.3 8.2v198.5c0.1 4.5 3.8 8.2 8.3 8.2z"/>
   <path class="st0" d="m78.4 263.3h44.5c4.5 0 8.2-3.7 8.3-8.2v-44.5c0-4.5-3.7-8.2-8.2-8.3h-44.7c-4.5 0-8.2 3.7-8.2 8.3v44.5c0.1 4.5 3.7 8.2 8.3 8.2z"/>
  </g>
 </g>
</svg>
