<svg width="728.49" height="800" space="preserve" version="1.1" viewBox="0 0 728.49 800" xmlns="http://www.w3.org/2000/svg">
 <link href="" rel="stylesheet" type="text/css"/>
 <style type="text/css"/>
 <style type="text/css">.st0{fill:#015593;}
	.st1{fill-rule:evenodd;clip-rule:evenodd;fill:#FFFFFF;}
	.st2{fill-rule:evenodd;clip-rule:evenodd;fill:#1888C9;}
	.st3{fill-rule:evenodd;clip-rule:evenodd;fill:#6460AB;}
	.st4{fill-rule:evenodd;clip-rule:evenodd;fill:#CF4447;}
	.st5{fill-rule:evenodd;clip-rule:evenodd;fill:#F27024;}
	.st6{fill-rule:evenodd;clip-rule:evenodd;fill:#FCB715;}
	.st7{fill-rule:evenodd;clip-rule:evenodd;fill:#16B14B;}</style>
 <g fill="#015593" stroke-width="7.2727">
  <path class="st0" d="m544 709.82-213.82 90.182v-419.64c-2.1818-12.364-3.6364-23.273-39.273-12.364-14.545 4.3636-17.455-7.2727 0-15.273 48-21.818 200-92.364 225.45-101.09 9.4545-2.9091 26.182-1.4545 27.636 16.727v441.45"/>
  <path class="st0" d="m269.82 709.82-213.82 90.182v-419.64c-2.1818-12.364-3.6364-23.273-39.273-12.364-14.545 4.3636-17.455-7.2727 0-15.273 48-21.818 200-92.364 225.45-101.09 9.4545-2.9091 26.182-1.4545 27.636 16.727v441.45"/>
 </g>
 <g transform="scale(7.2727)" clip-rule="evenodd" fill-rule="evenodd">
  <path class="st1" d="m96.9 97.9c-0.7 0.3-1.6 0.5-2.4 0.5h-34.8c-2-0.2-3.9-1.8-4.4-3.7-0.6-1.9 0-4 1.3-5.4 1.2-1.3 2.8-1.8 4.6-1.6-1.7-1.1-2.4-3-2.1-5 0.2-1.8 1.5-3.5 3.1-4.2 1.9-0.8 4.2-0.4 5.6 1-0.3-1-0.5-2.5 0-3.6 0.5-1.7 2.1-3.1 3.7-3.5 2.2-0.5 4.3 0.4 5.5 2.2 0.2 0.4 0.4 0.8 0.6 1.1 0.6-1.8 2.4-3.3 4.3-3.5s3.7 0.6 4.9 2.2c0.9 1.3 1.2 3.3 0.6 4.9h0.1c1.4-1.2 3.5-1.7 5.3-1 1.7 0.6 3.1 2.4 3.4 4.2 0.3 2-0.4 3.7-1.9 5 2.3-0.1 4.4 1.1 5.4 3.2 0.8 1.8 0.6 4.3-0.8 5.8-0.7 0.6-1.3 1.1-2 1.4z" fill="#fff"/>
  <path class="st2" d="m93.2 87.6-12.9 8.6 4.3-10.3 2.1-4.8c0.8-1.6 2.4-2.5 4.1-2.6 1.6 0 3.1 0.8 4 2.2s1 3.7 0.1 5.2c-0.4 0.6-1 1.2-1.7 1.7z" fill="#1888c9"/>
  <path class="st3" d="m86.8 79.4-6.4 15.1-0.3-1.6-1.9-12.4c-0.1-0.8 0.2-1.4 0.8-1.8l0.9-0.5c0.1-0.2-0.2-0.3-0.3-0.3h-1.8c-0.1-1.8 0.7-3.4 2.2-4.4 1.2-0.8 3-1 4.3-0.3 1.7 0.7 2.9 2.5 2.9 4.3 0 0.6-0.1 1.3-0.4 1.9z" fill="#6460ab"/>
  <path class="st4" d="m74.6 94.6-6.3-15.1c-0.7-1.6-0.4-3.7 0.8-5.1s3-2 4.8-1.5c1.5 0.4 2.9 1.8 3.3 3.4 0.2 0.6 0.2 1.3 0.1 1.9z" fill="#cf4447"/>
  <path class="st5" d="m61.2 87c-1.3-1.1-1.9-2.6-1.7-4.3s1.6-3.5 3.2-4c1.7-0.5 3.5-0.1 4.7 1.2 0.5 0.5 0.8 1.1 1.1 1.7l6.1 14.7z" fill="#f27024"/>
  <path class="st6" d="m59.8 97.8c-1.7-0.2-3-1.1-3.8-2.6-0.8-1.6-0.6-3.8 0.5-5.1 1.2-1.4 2.9-2.1 4.6-1.8 0.7 0.1 1.3 0.4 1.8 0.8l13 8.8z" fill="#fcb715"/>
  <path class="st7" d="m95.2 97.8c1.7-0.2 3-1.1 3.8-2.6 0.8-1.6 0.6-3.8-0.5-5.1-1.2-1.4-2.9-2.1-4.6-1.8-0.7 0.1-1.3 0.4-1.8 0.8l-13 8.8z" fill="#16b14b"/>
 </g>
 <g fill="#015593" stroke-width="7.2727">
  <path class="st0" d="m46.545 186.91v-160.73c0-16 2.1818-18.909 16.727-20.364v-5.8182c-14.545 0.72727-24.727 0.72727-32 0.72727-7.2727 0-17.455 0-31.273-0.72727v6.5454c13.818 1.4546 16.727 4.3636 16.727 20.364v160.73c0 16-2.1818 18.909-16.727 19.636v6.5454c13.818 0 24.727-0.72727 31.273-0.72727 7.2727 0 17.455 0 31.273 0.72727v-5.8182c-13.818-2.1818-16-5.0909-16-21.091"/>
  <path class="st0" d="m544.73 205.09c-2.1818-1.4546-4.3636-2.1818-5.8182-4.3636l-6.5454-6.5454c-2.1818-2.1818-7.2727-9.4546-16.727-20.364l-2.9091-4.3636-20.364-25.455-21.091-25.455-4.3636-5.0909c41.455-5.8182 64.727-26.909 64.727-58.909 0-19.636-9.4545-36.364-25.455-45.091-12.364-7.2727-21.818-8-53.818-8h-79.273v6.5454c14.545 1.4546 16.727 4.3636 16.727 20.364v160.73c0 16-2.1818 18.909-16.727 19.636-12.364 0-13.818-2.9091-25.455-33.455l-53.818-146.18c-5.8182-15.273-6.5454-18.182-9.4545-28.364-10.182 0.72728-18.182 0.72728-22.545 0.72728-5.8182 0-13.818 0-24.727-0.72728v6.5455c9.4545 0.72727 12.364 2.9091 12.364 8.7273 0 3.6364-2.9091 13.091-8.7273 29.818l-48 128.73c-7.2727 19.636-10.909 28.364-16 31.273-8-3.6364-16-13.091-29.818-31.273l-9.4545-13.091c-4.3636-5.8182-11.636-15.273-22.545-27.636-15.273-16.727-24.727-27.636-29.091-32l-5.0909-5.0909 50.182-56.727c27.636-31.273 29.818-33.455 41.455-33.455v-6.5454c-14.545 0.72727-25.455 0.72727-32.727 0.72727-7.2727 0-18.909 0-33.455-0.72727v6.5454c11.636 0 14.545 1.4546 14.545 7.2727 0 4.3636-6.5454 14.545-18.909 28.364l-53.818 61.091 4.3636 5.0909c42.182 45.818 64 72.727 86.545 105.45h27.637v0.72727h7.2727c2.9091 0 6.5455 0 10.909 0.72728v-0.72728h10.182c6.5455 0 16 0 29.091 0.72728v-6.5455c-12.364-0.72727-16-2.9091-16-10.182 0-4.3636 2.1818-13.091 7.2727-25.455l13.091-34.182h75.636l12.364 34.182c4.3636 10.909 7.2727 21.818 7.2727 25.455 0 6.5455-4.3636 9.4546-14.545 9.4546v6.5454c14.545 0 24.727-0.72727 32-0.72727s18.182 0 32 0.72727c13.818 0 24.727-0.72727 31.273-0.72727 7.2727 0 17.455 0 32 0.72727v-6.5454c-14.545-0.72727-16.727-3.6364-16.727-20.364v-168h21.091c20.364 0 31.273 1.4546 41.455 5.8182 10.909 5.0909 18.182 18.182 18.182 32.727 0 18.909-11.636 34.182-30.545 40-10.909 3.6364-22.545 5.0909-39.273 5.0909-2.9091 0-4.3636 0.72727-4.3636 2.9091 0 1.4545 0.72727 2.9091 5.0909 7.2727 33.455 38.545 42.909 51.636 72.727 94.545l3.6364 4.3636h20.364c6.5454 0 13.091 0 26.182 0.72727v-6.5455c-5.0909 0.72728-6.5455 0-9.4546-1.4545m-310.55-85.818 31.273-86.545 31.273 86.545z"/>
  <path class="st0" d="m608.73 194.18h66.909c33.455 0 41.455-5.8182 45.091-35.636h6.5455c-2.9091 24-3.6364 30.545-4.3636 53.818h-161.45v-6.5455c14.545-0.72727 16.727-3.6364 16.727-19.636v-160c0-16-2.1818-18.909-16.727-20.364v-5.8182c11.636 0.72727 16 0.72727 29.091 0.72727h124.36c0.72727 20.364 1.4546 26.182 4.3636 47.273h-6.5455c-5.8182-26.182-8.7273-28.364-38.545-28.364h-65.455v73.455h41.455c20.364 0 24.727-2.9091 26.182-20.364h5.8182c-0.72727 13.091-0.72727 22.545-0.72727 29.091 0 6.5455 0 16 0.72727 29.091h-5.8182c-2.1818-16.727-5.8182-19.636-26.909-19.636h-41.455l0.72727 82.909"/>
 </g>
</svg>
