<svg width="800" height="460.85" version="1.0" xmlns="http://www.w3.org/2000/svg">
 <g transform="matrix(.80001 0 0 .80001 -197.67 -145.97)" fill="#4ab653">
  <g transform="matrix(40.376,0,0,-40.376,-8816.4,7972)" clip-path="url(#id9)" fill="#4ab653">
   <g transform="translate(232.99,183)">
    <path d="m0 0c1.205 0.035 2.297 0.551 3.114 1.366 0.742-0.837 1.824-1.366 3.025-1.366 1.207 0 2.293 0.534 3.035 1.379 0.743-0.845 1.829-1.379 3.036-1.379 2.225 0 4.044 1.818 4.044 4.044v5.881h-2.64v-5.881c0-0.862-0.689-1.568-1.551-1.568-0.863 0-1.569 0.706-1.569 1.568v5.881h-2.64v-5.881c0-0.862-0.706-1.568-1.569-1.568-0.862 0-1.551 0.706-1.551 1.568v5.881h-2.64v-4.996c-0.019-1.234-0.92-2.258-2.026-2.291l-3.861 1e-3c-1.148 0-2.081 1.038-2.081 2.315 0 1.286 0.933 2.332 2.081 2.332h3.868v2.639l-3.868-7.2e-6c-2.603-4.8e-6 -4.72-2.227-4.72-4.971 0-2.728 2.117-4.954 4.72-4.954z" fill="#4ab653"/>
   </g>
   <g transform="translate(229.42,187.15)">
    <path d="m0 0v1.355h0.482v0.267h-1.297v-0.267h0.482v-1.355z" fill="#4ab653"/>
   </g>
   <g transform="translate(232.85,188.5)">
    <path d="m0 0v0.267h-1.05v-1.622h1.08v0.267h-0.746v0.421h0.655v0.273h-0.655v0.394z" fill="#4ab653"/>
   </g>
   <g transform="translate(231.49,187.15)">
    <path d="m0 0v1.622h-0.332v-0.661h-0.69v0.661h-0.332v-1.621h0.332v0.687h0.69v-0.688z" fill="#4ab653"/>
   </g>
  </g>
 </g>
 <g transform="matrix(3.6186 0 0 3.6186 4723.2 -2270.2)" fill="#17a24f" aria-label="ARKANSAS">
  <path d="m-1288.5 754.12 12.383-29.59h4.2578l12.383 29.59h-5.9961l-2.9493-7.6367h-11.172l-2.8711 7.6367h-3.0078zm14.453-22.188-3.5937 9.4531h7.2656z"/>
  <path d="m-1257.3 754.12v-29.59h8.6719q5.2734 0 8.164 2.4023 2.9102 2.3828 2.9102 6.7188 0 4.8828-2.9492 7.3828-1.836 1.5234-4.7657 2.168l8.0078 10.918h-6.4648l-8.1055-11.816v11.816h-2.7343zm5.4687-15.391h2.793q2.9883 0 4.4922-1.1328t1.5039-3.3984q0-2.2852-1.5039-3.418-1.5039-1.1524-4.4922-1.1524h-2.793z"/>
  <path d="m-1228.3 754.12h-5.4688v-29.59h5.4688v13.066l9.375-13.066h6.4062l-11.23 14.551 11.23 15.039h-6.4257l-9.3555-13.047z"/>
  <path d="m-1212.9 754.12 12.383-29.59h4.2578l12.383 29.59h-5.9961l-2.9492-7.6367h-11.172l-2.8711 7.6367h-3.0078zm14.453-22.188-3.5938 9.4531h7.2657z"/>
  <path d="m-1176 754.12h-5.4688v-29.59h6.2891l12.305 21.621v-21.621h5.4687v29.59h-6.0352l-12.558-21.797z"/>
  <path d="m-1141.9 732.37q-0.1757-1.6602-1.0156-2.4805-0.8203-0.83984-2.2656-0.83984-1.3672 0-2.2461 0.85937-0.8594 0.85938-0.8594 2.207 0 1.4062 0.8789 2.1875 0.8594 0.76172 3.3594 1.6211 4.5703 1.5625 6.5039 3.6914t1.9336 5.625q0 4.1602-2.6953 6.8164t-6.9141 2.6562q-3.9843 0-6.6601-2.5-2.6563-2.5-2.9688-6.5234h5.7422q0.2149 1.9141 1.2305 2.9297 1.0351 0.99609 2.7734 0.99609 1.7969 0 2.9297-1.0352 1.1523-1.0352 1.1523-2.6758 0-1.7969-1.1132-2.8125-1.0938-0.9961-4.2969-2.0898-3.9453-1.3476-5.6055-3.3008-1.6601-1.9531-1.6601-5.2148 0-3.75 2.4414-6.1328 2.4414-2.4023 6.2695-2.4023 3.5352 0 6.0352 2.4219 2.5 2.4023 2.6757 5.9961z"/>
  <path d="m-1135 754.12 12.383-29.59h4.2578l12.383 29.59h-5.9961l-2.9492-7.6367h-11.172l-2.8711 7.6367h-3.0078zm14.453-22.188-3.5938 9.4531h7.2657z"/>
  <path d="m-1092.9 732.37q-0.1758-1.6602-1.0156-2.4805-0.8203-0.83984-2.2656-0.83984-1.3672 0-2.2461 0.85937-0.8594 0.85938-0.8594 2.207 0 1.4062 0.8789 2.1875 0.8594 0.76172 3.3594 1.6211 4.5703 1.5625 6.5039 3.6914t1.9336 5.625q0 4.1602-2.6953 6.8164t-6.9141 2.6562q-3.9844 0-6.6601-2.5-2.6563-2.5-2.9688-6.5234h5.7422q0.2148 1.9141 1.2305 2.9297 1.0351 0.99609 2.7734 0.99609 1.7969 0 2.9297-1.0352 1.1523-1.0352 1.1523-2.6758 0-1.7969-1.1132-2.8125-1.0938-0.9961-4.2969-2.0898-3.9453-1.3476-5.6055-3.3008-1.6601-1.9531-1.6601-5.2148 0-3.75 2.4414-6.1328 2.4414-2.4023 6.2695-2.4023 3.5351 0 6.0351 2.4219 2.5 2.4023 2.6758 5.9961z"/>
 </g>
</svg>
