<svg width="783.64" height="339.83" data-name="Layer 1" version="1.1" viewBox="0 0 783.64 339.83" xmlns="http://www.w3.org/2000/svg">
 <defs>
  <linearGradient id="linear-gradient" x1="7019" x2="7018.7" y1="-7038.6" y2="-7024.8" gradientTransform="matrix(1 0 0 -1 -6943.1 -7003.4)" gradientUnits="userSpaceOnUse">
   <stop stop-color="#f7fbff" stop-opacity=".4" offset="0"/>
   <stop stop-color="#fff" stop-opacity=".1" offset="1"/>
  </linearGradient>
  <linearGradient id="linear-gradient-2" x1="7019" x2="7019" y1="-7013" y2="-7019" gradientTransform="matrix(5.1606 0 0 -5.1606 -35831 -36455)" gradientUnits="userSpaceOnUse">
   <stop stop-color="#f7fbff" stop-opacity=".6" offset="0"/>
   <stop stop-color="#fff" stop-opacity=".03" offset=".67"/>
   <stop stop-color="#fff" stop-opacity="0" offset="1"/>
  </linearGradient>
 </defs>
 <g transform="translate(0 264.4)">
  <rect class="cls-1" x=".25803" y="-264.04" width="783.02" height="247.71" rx="28.538" ry="28.538" fill="#fed96c" stroke-width="5.1606"/>
  <path class="cls-2" d="m283.83-48.786h-99.961v-10.321q4.4381-0.41285 10.889-1.2902a38.189 38.189 0 0 0 8.7731-1.9094 13.985 13.985 0 0 0 6.9152-5.1606 16.204 16.204 0 0 0 2.0642-8.5666v-137.63l-63.372 161.89h-16.411q-1.1869-4.2833-5.7799-16.978-4.593-12.695-7.4829-20.642l-46.704-126.38v112.04a104.4 104.4 0 0 0 2.1159 24.461 22.397 22.397 0 0 0 6.9668 12.231 33.802 33.802 0 0 0 11.56 5.1606 83.912 83.912 0 0 0 11.715 2.8383v10.321h-79.319v-10.321c2.1675 0 5.7283-0.87731 10.631-1.7546a29.467 29.467 0 0 0 12.024-4.6446 18.785 18.785 0 0 0 7.0184-12.231 125.97 125.97 0 0 0 1.703-24.565v-91.291a39.324 39.324 0 0 0-2.0642-13.83 19.61 19.61 0 0 0-6.2444-8.7731 26.474 26.474 0 0 0-10.682-5.1606 81.28 81.28 0 0 0-11.044-1.5482v-10.321h85.253l45.155 121.33 38.55-98.413a123.85 123.85 0 0 0 3.7673-12.953 69.772 69.772 0 0 0 1.961-9.8052h81.693v10.321a80.454 80.454 0 0 0-8.7214 1.0321 63.166 63.166 0 0 0-8.7214 2.0642 10.321 10.321 0 0 0-6.6572 5.1606 19.198 19.198 0 0 0-1.5482 8.0506v130.41a17.34 17.34 0 0 0 1.5482 7.8441 13.366 13.366 0 0 0 6.7088 5.5219 39.479 39.479 0 0 0 8.515 2.2191c3.9221 0.72249 6.9668 1.1869 9.1343 1.445z" fill="#020305" stroke-width="5.1606"/>
  <path class="cls-2" d="m403.61-79.853a78.545 78.545 0 0 1-10.941 13.727 66.108 66.108 0 0 1-14.605 11.199 80.196 80.196 0 0 1-17.598 7.4313 75.758 75.758 0 0 1-20.642 2.5287 91.033 91.033 0 0 1-33.183-5.4703 64.972 64.972 0 0 1-22.81-14.45 58.676 58.676 0 0 1-13.676-21.881 80.196 80.196 0 0 1-4.4897-27.248 67.398 67.398 0 0 1 4.851-25.39 68.481 68.481 0 0 1 13.83-21.623 66.108 66.108 0 0 1 22.294-14.914 76.377 76.377 0 0 1 30.086-5.7283 85.77 85.77 0 0 1 29.88 4.4381 52.638 52.638 0 0 1 19.352 12.231 44.175 44.175 0 0 1 10.786 17.443 65.54 65.54 0 0 1 3.3544 21.107v8.7214h-87.731q0 26.629 10.321 40.459t32.667 13.882a38.189 38.189 0 0 0 21.881-6.8636 62.908 62.908 0 0 0 16.669-16.824zm-49.439-49.594q0-7.7925-0.77409-15.998a53.516 53.516 0 0 0-2.7351-13.572 20.333 20.333 0 0 0-6.0895-9.2375 15.017 15.017 0 0 0-9.7536-3.0964 18.062 18.062 0 0 0-16.05 10.321 68.946 68.946 0 0 0-6.554 32.099z" fill="#020305" stroke-width="5.1606"/>
  <g transform="matrix(5.1606 0 0 5.1606 0 -313.84)" data-name="TV BOX">
   <rect class="cls-2" x="80.86" y="13.95" width="66.05" height="39.22" rx="3.69" ry="3.69" fill="#020305"/>
  </g>
  <g transform="matrix(5.1606 0 0 5.1606 0 -313.84)" fill="#fff">
   <path class="cls-3" d="m85.25 19.19v6.81h8.65v20.79h9.29v-20.79h8.45v-6.81z"/>
   <polygon class="cls-3" points="112.5 19.18 123.23 46.78 133.07 46.78 143.7 19.18 133.55 19.18 128.28 37.1 122.63 19.18"/>
  </g>
  <g class="cls-4" transform="matrix(5.1606 0 0 5.1606 0 -313.84)" opacity=".5">
   <path class="cls-5" d="m149.89 11a6 6 0 0 0-3.89-1.42h-140.47a5.53 5.53 0 0 0-5.53 5.53v32.76c60.93-28 151.72-14.13 151.72-14.13v-18.63a5.51 5.51 0 0 0-1.83-4.11z" fill="url(#linear-gradient)"/>
  </g>
  <path class="cls-6" d="m783.64-233.33h-1.2386c0-16.617-14.914-25.803-31.789-25.803l-722.85-0.41285a27.713 27.713 0 0 0-25.803 22.5h-1.445a28.641 28.641 0 0 1 27.816-27.248h725.84c16.256 0 29.467 10.579 29.467 30.964z" fill="url(#linear-gradient-2)" stroke-width="5.1606"/>
 </g>
 <g transform="translate(0 264.4)" fill="#fff" stroke-width="5.1606">
  <path class="cls-3" d="m53.309 3.749h21.52v51.967h30.964v17.907h-52.484z"/>
  <path class="cls-3" d="m140.47 2.046c21.21 0 35.402 15.482 35.402 36.589s-14.192 36.589-35.402 36.589-35.402-15.482-35.402-36.589 14.192-36.589 35.402-36.589zm0 55.786c5.4703 0 13.882-3.6124 13.882-19.198s-8.4118-19.198-13.882-19.198-13.882 3.6124-13.882 19.198 8.4118 19.094 13.882 19.094z"/>
  <path class="cls-3" d="m198.22 50.143a12.902 12.902 0 0 0 0.77409 4.6446 9.9084 9.9084 0 0 0 10.321 5.1606c3.5092 0 8.9279-1.1869 8.9279-6.3476 0-3.6124-3.0448-4.6446-15.069-8.0506-11.044-3.0964-23.687-6.2444-23.687-20.23 0-16.153 13.779-23.12 28.177-23.12s28.59 5.7799 29.158 22.81h-20.384a5.1606 5.1606 0 0 0-2.5287-5.5735 11.147 11.147 0 0 0-6.3476-1.7546c-2.9416 0-7.7925 0.77409-7.7925 4.6446 0.41285 5.1606 10.321 6.0895 20.23 8.8247 9.9084 2.7351 19.662 7.3281 19.662 20.23 0 18.217-16.72 24.048-32.305 24.048-7.9474 0-30.499-2.8383-30.964-25.132z"/>
  <path class="cls-3" d="m288.63 3.749h21.004l25.442 69.875h-22.294l-3.148-10.012h-22.191l-3.0964 9.96h-21.159zm16.927 44.897-6.2444-21.52-6.7604 21.52z"/>
  <path class="cls-3" d="m338.07 3.749h22.036l20.384 37.363v-37.363h20.384v69.875h-20.797l-21.417-38.189v38.189h-20.591z"/>
  <path class="cls-3" d="m457.54 66.451a24.307 24.307 0 0 1-19.868 8.8247c-20.642 0-33.389-16.05-33.389-36.124 0-26.629 18.681-37.363 34.421-37.363a30.138 30.138 0 0 1 32.202 26.113h-20.642a10.321 10.321 0 0 0-10.321-8.7214c-14.759 0-14.295 15.482-14.295 20.384 0 6.554 2.6319 18.011 15.74 18.011a10.631 10.631 0 0 0 11.147-7.7925h-9.2891v-14.966h28.59v38.447h-13.624z"/>
  <path class="cls-3" d="m476.63 3.749h57.851v17.856h-36.124v8.7214h32.976v16.617h-33.183v8.7214h37.363v17.907h-58.934z"/>
  <path class="cls-3" d="m541.61 3.749h21.52v51.967h30.964v17.907h-52.484z"/>
  <path class="cls-3" d="m601.32 3.749h57.851v17.856h-36.124v8.7214h32.976v16.617h-32.976v8.7214h37.363v17.907h-59.141z"/>
  <path class="cls-3" d="m683.42 50.143a12.902 12.902 0 0 0 0.77409 4.6446 9.9084 9.9084 0 0 0 10.321 5.1606c3.5092 0 8.9279-1.1869 8.9279-6.3476 0-3.6124-3.0448-4.6446-15.069-8.0506-11.044-3.0964-23.687-6.2444-23.687-20.23 0-16.153 13.779-23.12 28.177-23.12s28.59 5.7799 29.158 22.81h-20.178a5.1606 5.1606 0 0 0-2.5287-5.5735 11.147 11.147 0 0 0-6.3476-1.7546c-2.9416 0-7.7925 0.77409-7.7925 4.6446 0.41285 5.1606 10.321 6.0895 20.23 8.8247 9.9084 2.7351 19.662 7.3281 19.662 20.23 0 18.217-16.72 24.048-32.305 24.048-7.9474 0-30.499-2.8383-30.964-25.132z"/>
 </g>
</svg>
