<svg width="800" height="139.34" version="1.1" xmlns="http://www.w3.org/2000/svg">
 <defs>
  <clipPath id="clip18">
   <path d="m345.63 122.52v4.7031h10.238v-28.016z"/>
  </clipPath>
  <linearGradient id="linear0" x1=".23172" x2="1.0173" gradientTransform="matrix(-3.1371 -8.958 8.958 -3.1371 343.92 133.74)" gradientUnits="userSpaceOnUse">
   <stop stop-color="#4b8d9c" offset="0"/>
   <stop stop-color="#64c9de" offset=".76562"/>
   <stop stop-color="#66cce1" offset="1"/>
  </linearGradient>
  <clipPath id="clip20">
   <path d="m317.64 137.47-24.281 10.055h52.27v-10.055z"/>
  </clipPath>
  <linearGradient id="linear1" x1="-.010708" x2="1.1157" gradientTransform="matrix(3.648 -7.5463 7.5463 3.648 298.58 127.32)" gradientUnits="userSpaceOnUse">
   <stop stop-color="#99d435" offset="0"/>
   <stop stop-color="#5f9336" offset=".77632"/>
   <stop stop-color="#578a36" offset="1"/>
  </linearGradient>
  <clipPath id="clip22">
   <path d="m306.9 128.9c0.83203 0.83203 1.75 1.5391 2.7188 2.1133l9.2695-9.2734c-1.3398 1.25-3.4414 1.2266-4.7461-0.082-1.332-1.332-1.332-3.4961 0-4.8242l-7.2422-7.2422c-5.332 5.332-5.332 13.98 0 19.309"/>
  </clipPath>
  <linearGradient id="linear2" x1=".0035066" x2=".97504" gradientTransform="matrix(5.7277 11.193 -11.193 5.7277 318.4 112.52)" gradientUnits="userSpaceOnUse">
   <stop stop-color="#98d435" offset="0"/>
   <stop stop-color="#639736" offset=".81896"/>
   <stop stop-color="#598c36" offset="1"/>
  </linearGradient>
 </defs>
 <g transform="matrix(2.187 0 0 2.187 -5.1614 -505.22)">
  <g transform="matrix(1.3138 0 0 1.3138 -109.37 100.66)">
   <path d="m85.641 147.09h87.508v-36.137h-87.508z" fill="#fff"/>
   <path d="m85.039 147.71h224.39v-37.32h-224.39zm87.258-1.3594h-85.926v-34.602h85.926z" fill="#1470c2"/>
   <path d="m205.54 117.64s-3.3164 12-3.8867 14.055c-0.57031-2.0508-3.9141-14.055-3.9141-14.055h-4.6836s-3.3398 11.957-3.9141 14.016c-0.55859-2.0625-3.8164-14.016-3.8164-14.016h-5.0117l6.4531 22.773h4.7812s3.2852-11.891 3.8516-13.957c0.56641 2.0664 3.8477 13.957 3.8477 13.957h4.8164l6.457-22.773z" fill="#fff"/>
   <path d="m229.88 120.46c-2.0781-2.1602-4.8945-3.25-8.3672-3.25-3.4961 0-6.3164 1.0898-8.3711 3.25-2.0508 2.1524-3.0898 5.0508-3.0898 8.6133 0 3.6055 1.0391 6.5352 3.0898 8.707 2.0547 2.1797 4.8711 3.2812 8.3711 3.2812 3.4726 0 6.2891-1.1016 8.3672-3.2812 2.0703-2.1719 3.1289-5.1016 3.1289-8.707 0-3.5625-1.0586-6.4609-3.1289-8.6133m-3.7734 14.215c-1.1094 1.3945-2.6172 2.0664-4.5938 2.0664-2.0078 0-3.5195-0.67187-4.6328-2.0664-1.1133-1.3906-1.6758-3.2774-1.6758-5.6016 0-2.2383 0.5625-4.0742 1.6758-5.4609 1.1094-1.3789 2.625-2.0508 4.6328-2.0508 1.9766 0 3.4844 0.67187 4.5938 2.0508 1.1172 1.3867 1.6836 3.2266 1.6836 5.4609 0 2.3242-0.5664 4.2109-1.6836 5.6016" fill="#fff"/>
   <path d="m249.52 131.04c1.3711-0.55078 2.5312-1.332 3.4297-2.3438 1.0156-1.1484 1.5273-2.5 1.5273-4.0273 0-2.125-0.85156-3.8594-2.5273-5.1367-1.6524-1.2617-3.7383-1.9024-6.1914-1.9024h-10.223v22.809h4.8867v-8.7031h3.4922c0.20313 0.27344 6.5547 8.7305 6.5547 8.7305h6.0625s-6.5156-8.7656-7.0117-9.4258m-1.293-4.3828c-0.78906 0.46093-1.6289 0.69531-2.5 0.69531h-5.3047v-5.3359h5.5391c0.88672 0 1.6914 0.21875 2.3906 0.65625 0.65625 0.41406 0.97266 1.0664 0.97266 1.9961 0 0.90625-0.35938 1.5586-1.0977 1.9883" fill="#fff"/>
   <path d="m258.52 117.65v22.77h17.098v-4.2891h-12.219v-18.48z" fill="#fff"/>
   <path d="m294.11 120.88c-2.0469-2.1562-3.9531-3.2539-7.4727-3.2539h-8.6172v22.863h8.6172c3.5195 0 5.4258-1.0938 7.4727-3.25 2.0391-2.1523 3.0742-4.9141 3.0742-8.2109 0-3.2578-1.0352-5.9961-3.0742-8.1484m-2.9102 13.211c-1.0742 1.3555-2.8125 2.0469-5.1641 2.0469h-3.1328v-14.129h3.1328c2.3516 0 4.0898 0.68359 5.1641 2.0352 1.0938 1.375 1.6484 3.0547 1.6484 4.9844 0 1.9726-0.55469 3.6758-1.6484 5.0625" fill="#fff"/>
   <path d="m151.31 126.04c-0.99609-0.30078-1.5508-1.4961-1.4297-2.6055 0.11719-1.1016 1-2.6641 3.0938-2.6524l11.367-0.0117v-3.7148l-10.805-0.0195c-2.2031-0.22656-4.0859 0.3125-4.0859 0.3125s-3.875 0.50781-4.9258 4.2695c-0.73828 2.6524-0.0508 5.8164 2.4648 7.5039 3.6992 2.4844 8.0078 0.34765 11.793 1.7734 1.7344 0.64844 2.3398 2.7891 1.5586 4.457 0 0-1.1133 2.1289-3.0898 1.9102l-12.16-0.0117v3.7774l14.676 0.043s4.6367-0.37891 6.0391-4.5391c1.0234-3.0391 0.61328-5.25-1.6758-7.7656-3.3203-3.6484-8.3203-1.3711-12.82-2.7266" fill="#1470c2"/>
   <path d="m117.98 117.07h-6.2422l-9.043 11.223v-11.223h-5.1992v24.012h5.293l-8e-3 -11.938c0-0.10157 0.41407 0.125 0.48047 0.20703l8.7344 11.664h6.7656l-9.8826-12.266z" fill="#1470c2"/>
   <path d="m142.66 133.12c-0.30469-2.0391-1.6211-3.9258-3.3516-5.0039 0 0 1.4023-1.6328 1.918-2.8008 0.42187-0.96094 0.26953-2.8398 0.26953-2.8398-0.39844-3.1524-2.3672-5.5117-6.0859-5.5352l-14.371 0.0156v24.262l13.395-0.0508 1.418 8e-3c4.7578-0.33593 7.3359-4.5156 6.8086-8.0547m-16.641-12.258h7.9805s2.2891-0.12891 2.3203 2.8086c0 0 0.10546 2.5234-2.2969 2.707h-8.0039zm8.2617 16.223h-8.2617v-6.75h8.0703s2.8555-0.0664 2.9883 3.2461c0 0 0.19531 3.2422-2.7969 3.5039" fill="#1470c2"/>
   <path d="m355.87 147.71v-10.238h7.5938v-10.242h-7.5938v-28.012l-38.254 38.254h28.016v10.238zm-14.945-20.48 4.707-4.7031v4.7031z" fill="#66cce1"/>
   <g clip-path="url(#clip18)">
    <path d="m346.75 130.42 17.863-6.2539-9.8594-28.152-17.863 6.2578z" fill="url(#linear0)"/>
   </g>
   <path d="m318.97 121.66c0.66406-0.66797 1-1.5391 1-2.4141 0-0.87109-0.33594-1.7461-1-2.4102-1.332-1.3359-3.4961-1.3359-4.8281 0-1.332 1.332-1.332 3.4922 0 4.8242 1.3047 1.3086 3.4062 1.332 4.7461 0.082l-9.2695 9.2734c-0.96875-0.57812-1.8867-1.2812-2.7148-2.1133-5.332-5.332-5.332-13.977 0-19.309 5.3281-5.332 13.977-5.332 19.309 0 0.83203 0.83203 1.5352 1.75 2.1094 2.7188 0.89844 1.5273 1.4805 3.1914 1.7344 4.8945 0.625 4.1367-0.66016 8.5078-3.8438 11.695l-8.5664 8.5664h27.984v10.238h-52.707l10.242-10.238z" fill="#99d435"/>
   <g clip-path="url(#clip20)">
    <path d="m335.73 168 13.84-28.629c-58.997-33.907-74.954-0.91013-13.84 28.629z" fill="url(#linear1)"/>
   </g>
   <g clip-path="url(#clip22)">
    <path d="m315.29 102.57-22.41 11.469 12.277 23.996 22.41-11.465z" fill="url(#linear2)"/>
   </g>
  </g>
 </g>
</svg>
