<svg width="800" height="162.5" version="1.1" viewBox="0 0 800 162.5" xml:space="preserve" xmlns="http://www.w3.org/2000/svg">
<g transform="matrix(2.6552 0 0 2.6552 -75.141 -90.275)" fill="#2c2b2a">
	<path d="m106.8 94.4-48.1-32.1 45.4-27.1h-13.2l-45.8 27.2v-27.2h-16.7l-0.1 59.2h16.8v-26.6l39.2 26.6z"/>
	<path d="m329.6 35.2h-72.4v6.6h28.1v52.6h16.6v-52.6h27.7z"/>
		<path d="m202.9 43.7c2.7-2.5 6.7-4.5 11.1-5.7 2.2-0.6 4.4-0.9 6.8-1h0.8c13.7 0 25.1 9.7 27.6 22.5h-46.9l-2.9 4.6 66.8-0.1c-0.5-16.6-20.3-30-44.7-30-11.8 0-22.6 3.1-30.6 8.3-2.2 1.4-4.2 3-6.1 4.7s-3.6 3.5-5.2 5.4c-3.3 3.9-7 9.5-8.6 12.1-6.1 10-9.2 15.2-13.2 19.1-5.3 5.2-11.9 8.5-19.8 8.6h-0.3c-15.5 0-28.1-12.4-28.1-27.7s12.6-27.6 28.1-27.6c2 0 5.4 0.4 7.5 1 4.4 1.1 8.4 3.2 11.1 5.7 4.2 3.8 6.4 6.6 9.3 11.4 2.6-5 7.1-9.5 7.1-9.5-1.2-1.2-2.2-1.8-4.4-3.2-8-5.1-18.7-8.3-30.6-8.3-24.7 0-44.7 13.7-44.7 30.6s20 30.6 44.7 30.6h0.4c7 0 13.6-1.2 19.5-3.2 4.4-1.6 8-3.4 11.2-5.4 0.9-0.6 1.7-1.2 2.5-1.8 0.2-0.1 0.3-0.3 0.5-0.4 0.1-0.1 0.2-0.1 0.2-0.2 2.8-2.2 5.2-4.7 7.5-7.5 2.9-3.6 5.5-7.6 8.4-12.1 0.2-0.1 9.1-15.6 15-20.9z"/>
		<path d="m248.8 72.4c-3.8 11.9-15 19.8-27.2 19.8h-0.3c-7.8-0.1-14.5-3.4-19.8-8.6-3.2-3.2-4.1-4-7.9-9.6 0 0-1.1 2.1-2.9 4.6-1.1 1.6-4.1 4.9-4.1 5 0.9 0.7 3.1 2.3 3.9 2.9 3.2 2.1 6.8 3.9 11.2 5.4 5.9 2 12.9 3.2 19.9 3.2 20.1 0 37.5-8.6 44-22.8h-16.8z"/>
</g>
</svg>
