<svg width="800" height="492.97" data-name="Layer 1" version="1.1" viewBox="0 0 800 492.97" xmlns="http://www.w3.org/2000/svg">
 <g fill="#155caa" stroke-width="5.7996">
  <path class="cls-1" d="m505.5 408.47h228.68l12.759-81.195h-38.162l40.597-250.72h38.162l12.469-76.555h-228.91l-8.9894 48.775h52.835a23.952 23.952 0 0 1 18.559 8.2935 24.416 24.416 0 0 1 5.1037 19.893l-42.569 263.13a29.52 29.52 0 0 1-29.578 23.836h-53.936z"/>
  <path class="cls-1" d="m262.84 408.47h210.7l7.1335-45.005h-81.195a23.952 23.952 0 0 1-18.559-8.2935 24.3 24.3 0 0 1-5.1037-19.893l42.279-261.68a29.578 29.578 0 0 1 28.998-24.648h82.935l8.9894-48.949h-210.58l-14.383 90.648h26.968l-11.599 73.191h-106.31l11.599-73.191h26.968l14.789-90.648h-211.4l-14.499 90.648h32.13l-36.538 227.17h-31.492l-14.673 90.648h210.41l14.557-90.648h-26.968l12.527-77.947h106.48l-12.701 77.947h-26.794z"/>
  <path class="cls-1" d="m467.97 232.97a51.211 51.211 0 0 0-14.151 28.998 30.39 30.39 0 0 0 8.9894 28.592 39.147 39.147 0 0 0 26.272 10.323 56.314 56.314 0 0 0 30.216-8.1775 81.195 81.195 0 0 0 20.705-17.979l-41.931-65.072a187.44 187.44 0 0 0-30.1 23.314z"/>
  <path class="cls-1" d="m513.09 173.12a140.76 140.76 0 0 0 21.401-17.109 43.091 43.091 0 0 0 12.063-24.184 23.662 23.662 0 0 0-4.0597-17.979 18.559 18.559 0 0 0-16.123-7.1915 27.722 27.722 0 0 0-24.184 11.599 30.216 30.216 0 0 0-5.1037 13.165 34.798 34.798 0 0 0 2.7258 18.617 144 144 0 0 0 13.281 23.082z"/>
  <path class="cls-1" d="m615.63 75.395a21.053 21.053 0 0 0-16.355-7.3075l-141.22-0.81195a26.968 26.968 0 0 0-26.968 22.677l-38.278 229.03a24.764 24.764 0 0 0 3.1318 19.255 23.198 23.198 0 0 0 17.979 5.7996h140.76a28.998 28.998 0 0 0 20.705-8.9894l-25.576-40.597a131.36 131.36 0 0 1-24.184 19.719 83.051 83.051 0 0 1-42.917 11.251c-23.198 0-39.147-6.7276-48.079-19.951a63.796 63.796 0 0 1-9.8014-45.005 76.149 76.149 0 0 1 20.705-45.005 198 198 0 0 1 37.06-26.446 100.33 100.33 0 0 1-14.383-26.968 56.894 56.894 0 0 1-1.5079-22.851 60.2 60.2 0 0 1 19.371-37.814 58.924 58.924 0 0 1 41.061-15.021 42.105 42.105 0 0 1 34.798 14.151 42.859 42.859 0 0 1 8.9894 33.638 70.755 70.755 0 0 1-18.849 39.843 151.72 151.72 0 0 1-28.186 22.155l31.84 48.137c3.3058-7.4815 5.7996-13.165 7.1335-16.935a158.39 158.39 0 0 0 5.1037-17.399v-1.1599h27.896v1.4499a202.99 202.99 0 0 1-15.485 42.569 147.02 147.02 0 0 1-8.9894 16.587l15.485 24.126 33.174-200.72a21.401 21.401 0 0 0-4.4077-17.399z"/>
 </g>
 <g fill="#155caa" stroke-width="5.7996">
  <path class="cls-1" d="m291.72 460.03a36.016 36.016 0 0 1-35.958 32.942c-17.979 0-29.346-12.701-26.098-32.942l5.7996-39.147h12.411l-5.7996 39.147c-1.9719 12.585 4.2337 21.343 15.485 21.343a23.198 23.198 0 0 0 22.155-21.343l5.7996-39.321h12.411z"/>
  <path class="cls-1" d="m341.95 432.3-8.9894 59.156h-13.049l8.9894-59.098h-24.59l1.7979-11.599h61.998l-1.7979 11.599z"/>
  <path class="cls-1" d="m373.09 475.98-8.9894 15.485h-13.397l42.221-71.103h11.599l19.719 71.103h-13.107l-4.1177-15.485zm22.851-40.249-16.239 28.244h24.358z"/>
  <path class="cls-1" d="m494.01 491.46h-11.947l4.7557-28.998h-35.436l-4.5237 28.998h-12.411l11.077-70.291h12.527l-4.7557 30.158h35.204l4.7557-30.216h12.295z"/>
 </g>
</svg>
