<svg data-name="Layer 1" version="1.1" viewBox="0 0 523 103" xmlns="http://www.w3.org/2000/svg">
 <link href="" rel="stylesheet" type="text/css"/>
 <style type="text/css"/>
 <polygon class="cls-2" points="146.51 43.14 146.26 43.14 146.26 3.82 121.47 3.82 121.47 99.15 146.26 99.15 146.26 57.8 146.51 57.8 178.49 99.15 210.61 99.15 169.27 48.95 207.2 3.82 176.47 3.82"/>
 <path class="cls-2" d="M275.31,6.09a58.18,58.18,0,0,0-22.63-4.8A51.63,51.63,0,0,0,216.4,16.71a49.89,49.89,0,0,0-14,34.9c0,14.16,4.8,26.55,15.3,36a53.07,53.07,0,0,0,35.78,14c7.71,0,13.65-1.9,21.87-4.43V67.54A28.51,28.51,0,0,1,254,77.66c-15.43,0-25.8-10.88-25.8-25.92,0-14.8,10.25-26.43,25.41-26.43a26.89,26.89,0,0,1,21.75,10.5V6.09Z"/>
 <polygon class="cls-2" points="331.04 24.81 351.52 24.81 351.52 3.82 285.78 3.82 285.78 24.81 306.26 24.81 306.26 99.15 331.04 99.15"/>
 <path class="cls-2" d="m421.42 9.13a65.17 65.17 0 0 0-29.84-7.84c-19.09 0-32.88 12.64-32.88 32 0 18.46 10.25 22.5 25.8 26.93 5.31 1.51 15.05 3.92 15.05 10.87 0 6.7-6.2 9.61-12 9.61-8.47 0-15.8-4.43-22-9.86l-10.62 20a58.76 58.76 0 0 0 33.5 10.88c9.61 0 19.6-2.66 27.05-9s9.86-16.18 9.86-25.66c0-15.43-10.24-22.13-23.51-26.05l-6.32-1.9c-4.3-1.39-11-3.54-11-9.1 0-5.31 6.06-8 10.62-8a26 26 0 0 1 16.43 6.33l9.87-19.22z"/>
 <path class="cls-2" d="m51 102.67a50.88 50.88 0 1 0-50.92-50.88 50.88 50.88 0 0 0 50.92 50.88"/>
 <g fill="#fff">
  <path d="M78.13,60.78a5.46,5.46,0,0,1-5.54,5.45H69.94l0,14.51H61.2V66.35c6.15.08,8-1.88,8-6.41V52.42h5.65L62.49,24.36h8.82L83.65,52.54H78.18v7.4l-.05.84Z"/>
  <path d="M50.44,48.74a5.19,5.19,0,1,1,5.19-5.19,5.18,5.18,0,0,1-5.19,5.19m4-24.36H37.93C13,25.49,8.49,58.65,32.91,65.74v.32l0,14.7H53.1V66.42h2.81a5.68,5.68,0,0,0,5.49-5.61l.05-.84V52.45h5.47L54.42,24.38Z"/>
 </g>
 <path class="cls-4" d="M467.46,35.82c0,8.77,6.61,15.77,15.39,15.77a15.77,15.77,0,1,0,0-31.54c-8.78,0-15.39,7-15.39,15.77m-8.78,64.24L486,67.75l-.26-.26a31.61,31.61,0,0,1-13.47,2.93c-18.83,0-30.79-16.16-30.79-33.84,0-23.53,19.34-36.25,41.22-36.25,9.28,0,20,2.29,27.35,8.27a35,35,0,0,1,12.84,26.45c0,13.87-7.12,27.23-15.39,38.17l-20.48,26.84Z" fill="#c3d939"/>
</svg>
