<svg width="1e3" height="320.44" version="1.1" xmlns="http://www.w3.org/2000/svg">
 <g transform="matrix(2.5606 0 0 2.5606 -10.38 -8.0495)" fill="#00aa13">
  <g transform="matrix(.87139 0 0 .87717 -211.48 -412.83)">
   <g transform="matrix(10.781 0 0 -10.781 -2172.7 2556.1)" clip-path="url(#id9)" fill="#00aa13">
    <g transform="translate(232.99 183)">
     <path d="m0 0c1.205 0.035 2.297 0.551 3.114 1.366 0.742-0.837 1.824-1.366 3.025-1.366 1.207 0 2.293 0.534 3.035 1.379 0.743-0.845 1.829-1.379 3.036-1.379 2.225 0 4.044 1.818 4.044 4.044v5.88h-2.64v-5.88c0-0.862-0.689-1.568-1.551-1.568-0.863 0-1.569 0.706-1.569 1.568v5.88h-2.64v-5.88c0-0.862-0.706-1.568-1.569-1.568-0.862 0-1.551 0.706-1.551 1.568v5.88h-2.64v-4.995c-0.019-1.234-0.92-2.258-2.026-2.291l-3.861 1e-3c-1.148 0-2.081 1.038-2.081 2.315 0 1.286 0.933 2.332 2.081 2.332h3.868v2.639h-3.868c-2.603 0-4.72-2.227-4.72-4.971 0-2.728 2.117-4.954 4.72-4.954h3.793z" fill="#00aa13"/>
    </g>
    <g transform="translate(229.42 187.15)">
     <path d="m0 0v1.355h0.482v0.267h-1.297v-0.267h0.482v-1.355h0.333z" fill="#00aa13"/>
    </g>
    <g transform="translate(232.85 188.5)">
     <path d="m0 0v0.267h-1.05v-1.622h1.08v0.267h-0.746v0.421h0.655v0.273h-0.655v0.394h0.716z" fill="#00aa13"/>
    </g>
    <g transform="translate(231.49 187.15)">
     <path d="m0 0v1.622h-0.332v-0.661h-0.69v0.661h-0.332v-1.621h0.332v0.687h0.69v-0.688h0.332z" fill="#00aa13"/>
    </g>
   </g>
  </g>
  <path d="m277.32 55.829v-12.345l6.6133-0.66133s9.6994-2.8205 9.6994-10.581c0-6.2231-4.8109-9.9199-10.802-9.9199-13.013 0-14.108 9.9199-14.108 9.9199h-22.044s3.0462-29.098 34.389-29.098c19.152 0 35.932 9.7256 35.932 25.792 0 10.757-11.463 18.517-11.463 18.517s14.329 4.3725 14.329 20.501c0 17.47-17.581 31.519-36.593 31.744-37.457 0.44332-39.459-32.625-39.459-32.625h22.706s1.6886 14.549 14.77 14.549c8.6122 0 14.108-6.2677 14.108-12.565 0-14.072-18.076-13.227-18.076-13.227z"/>
  <path d="m352.05 55.829v-12.345l6.6133-0.66133s9.6994-2.8205 9.6994-10.581c0-6.2231-4.8109-9.9199-10.802-9.9199-13.013 0-14.108 9.9199-14.108 9.9199h-22.044s3.0462-29.098 34.389-29.098c19.152 0 35.932 9.7256 35.932 25.792 0 10.757-11.463 18.517-11.463 18.517s14.329 4.3725 14.329 20.501c0 17.47-17.581 31.519-36.593 31.744-37.457 0.44332-39.459-32.625-39.459-32.625h22.706s1.6886 14.549 14.77 14.549c8.6122 0 14.108-6.2677 14.108-12.565 0-14.072-18.076-13.227-18.076-13.227z"/>
  <g transform="matrix(1.7602 0 0 1.7595 -316.16 97.105)">
   <path d="m200.22 15.956-4.0296-5.2301 4.0296-4.9679h-1.2834l-4.7195 5.8649v-5.8649h-1.0212v10.198h1.0212v-2.7876l1.3248-1.6284 3.3948 4.4159z"/>
   <path d="m209.98 10.891c-2e-3 -0.96368-0.19839-1.8135-0.58995-2.5495-0.39157-0.73598-0.96772-1.3305-1.7284-1.7836-0.4692-0.28691-1.0074-0.49276-1.6146-0.61754-0.6072-0.12476-1.3662-0.18571-2.277-0.18285h-2.4012v10.198h2.7462c1.9892-0.02731 3.4652-0.50398 4.428-1.43 0.96282-0.92602 1.4418-2.1375 1.4369-3.6345zm-1.035-0.0414c-2e-3 0.67447-0.12881 1.292-0.3795 1.8526-0.2507 0.56062-0.6118 1.0333-1.0833 1.4179-0.39618 0.32171-0.88377 0.55458-1.4628 0.69862s-1.315 0.21476-2.208 0.21217h-1.4214v-8.3489h1.4214c0.76473-0.00172 1.4087 0.050034 1.932 0.15525 0.52324 0.10523 0.97403 0.27428 1.3524 0.50714 0.59023 0.35909 1.045 0.84151 1.3645 1.4473 0.3194 0.60576 0.48097 1.2917 0.48472 2.0579z"/>
   <path d="m220.65 15.956-4.3883-10.198h-1.1454l-4.3745 10.198h1.0764l1.4904-3.4362h4.7471l1.4766 3.4362zm-2.9946-4.3607h-3.9606l2.001-4.6781z"/>
   <path d="m227.02 6.6821v-0.92459h-5.1749v10.198h1.0212v-4.6643h4.002v-0.92459h-4.002v-3.6846z"/>
  </g>
  <g transform="matrix(1.7602 0 0 1.7595 -316.16 97.105)">
   <path d="m231.57 12.74v-0.86939h-3.7398v0.86939z" fill="#00aa13"/>
  </g>
  <g transform="matrix(1.7602 0 0 1.7595 -316.16 97.105)">
   <path d="m237.83 6.6821v-0.92459h-5.6855v0.92459h2.3322v9.2735h1.0212v-9.2735z"/>
   <path d="m247.48 5.7575h-1.104l-3.6018 8.9285-3.588-8.9285h-1.1178l4.1952 10.198h0.99359z"/>
  </g>
  <path d="m143.42 116.27c-4e-3 -1.6956-0.34921-3.1908-1.0384-4.4858-0.68927-1.2949-1.7034-2.341-3.0424-3.1382-0.8259-0.50481-1.7733-0.86699-2.842-1.0865-1.0688-0.21951-2.4048-0.32675-4.008-0.32171h-4.2266v17.943h4.8339c3.5014-0.0481 6.0995-0.88673 7.7944-2.516 1.6948-1.6293 2.5379-3.7609 2.5293-6.3948zm-1.8218-0.0728c-4e-3 1.1867-0.22674 2.2732-0.66801 3.2596-0.44129 0.98639-1.0769 1.818-1.9068 2.4948-0.69737 0.56604-1.5556 0.97576-2.5748 1.2292-1.0192 0.25343-2.3147 0.37787-3.8865 0.37331h-2.502v-14.689h2.502c1.3461-3e-3 2.4797 0.088 3.4007 0.27315 0.92102 0.18515 1.7145 0.48259 2.3805 0.8923 1.0389 0.6318 1.8395 1.4806 2.4018 2.5464 0.56222 1.0658 0.84662 2.2727 0.85322 3.6208z"/>
  <path d="m162.2 125.18-7.7245-17.943h-2.0162l-7.7002 17.943h1.8947l2.6234-6.0458h8.3561l2.5991 6.0458zm-5.2711-7.6725h-6.9715l3.5222-8.231z"/>
  <path d="m173.55 125.18v-1.6268h-7.433v-16.316h-1.7975v17.943z"/>
  <path d="m184.79 125.18v-1.6268h-7.433v-16.316h-1.7975v17.943z"/>
  <path d="m202.67 125.18-7.7245-17.943h-2.0161l-7.7002 17.943h1.8947l2.6234-6.0458h8.3561l2.5991 6.0458zm-5.2711-7.6725h-6.9715l3.5222-8.231z"/>
  <path d="m214.5 120.18c-4e-3 -0.7972-0.16035-1.5276-0.47063-2.1913-0.31022-0.66364-0.75253-1.212-1.3269-1.645-0.3421-0.25848-0.75707-0.49419-1.2449-0.70716-0.48785-0.21295-1.1822-0.45474-2.0829-0.72537-0.79351-0.23318-1.3806-0.42843-1.7611-0.58576-0.38056-0.1573-0.6761-0.33434-0.88661-0.53112-0.25861-0.22661-0.46407-0.52606-0.61638-0.89837-0.15226-0.37228-0.23027-0.76886-0.23381-1.1897 0.0176-0.91657 0.31072-1.6632 0.88056-2.2398 0.5698-0.57663 1.3127-0.87406 2.2287-0.89229 0.93063 0.0122 1.6928 0.30352 2.2864 0.87408 0.59361 0.5706 0.90027 1.3476 0.92002 2.3309h1.8704c-0.0259-1.477-0.49645-2.6506-1.4119-3.5206-0.91548-0.87002-2.1209-1.3152-3.6163-1.3354-1.4721 0.0268-2.6634 0.48309-3.5738 1.3688-0.91041 0.88574-1.379 2.04-1.4058 3.463 2e-3 0.62724 0.11284 1.2181 0.33096 1.7724 0.21811 0.55441 0.52883 1.0238 0.93217 1.4082 0.31728 0.32375 0.70291 0.59285 1.1568 0.80731 0.45393 0.21449 1.1857 0.47145 2.1953 0.7709 1.5167 0.44818 2.5703 0.94794 3.1608 1.4993 0.59058 0.55136 0.87296 1.3061 0.84715 2.2641-0.0202 1.0516-0.35627 1.9045-1.0081 2.5585-0.65181 0.65405-1.4979 0.99094-2.5384 1.0107-1.0212-4e-3 -1.8633-0.31817-2.5262-0.94388-0.66296-0.62572-1.0678-1.5413-1.2146-2.7467h-1.919c0.10631 1.6354 0.65889 2.9293 1.6578 3.8818 0.99895 0.95249 2.3167 1.4391 3.9533 1.4598 1.586-0.0304 2.8775-0.53416 3.8744-1.5114 0.99693-0.97727 1.5111-2.2459 1.5425-3.8059z"/>
  <path d="m224.68 107.24h-1.7004l-6.9715 21.051h1.6275z"/>
  <path d="m236.62 108.86v-1.6268h-9.1091v17.943h1.7975v-8.2067h7.0444v-1.6268h-7.0444v-6.4828z"/>
  <path d="m257.47 116.22c-0.0699-2.6288-0.99898-4.8191-2.7874-6.5708-1.7884-1.7517-4.0171-2.6612-6.6861-2.7285-2.6487 0.0713-4.8754 0.97881-6.68 2.7224-1.8046 1.7436-2.7439 3.8954-2.8178 6.4555 0.0664 2.6754 0.99036 4.894 2.7722 6.6558 1.7818 1.7618 4.0237 2.6754 6.7255 2.7406 2.669-0.0693 4.8976-0.98081 6.6861-2.7346 1.7884-1.7537 2.7175-3.9339 2.7874-6.5404zm-1.8218 0.0243c-0.0577 2.1331-0.81072 3.9187-2.2591 5.3568-1.4484 1.4381-3.2459 2.1857-5.3926 2.2429-2.169-0.0551-3.9766-0.8068-5.4229-2.255s-2.1973-3.2621-2.253-5.4418c0.0602-2.1108 0.82033-3.8863 2.2803-5.3264 1.46-1.4401 3.2585-2.1898 5.3956-2.249 2.1467 0.0572 3.9442 0.81087 5.3926 2.2611 1.4483 1.4502 2.2014 3.254 2.2591 5.4114z"/>
  <path d="m272.56 113.01c0.0303-1.8766-0.55265-3.3071-1.749-4.2915-1.1964-0.98434-3.1882-1.4801-5.9756-1.4872h-4.4452v17.943h1.7975v-16.316h2.5262c2.0789-0.0167 3.6052 0.28986 4.5788 0.91961 0.97366 0.62978 1.4554 1.6829 1.4453 3.1594 0.034 1.5838-0.45901 2.6713-1.4787 3.2626-1.0197 0.59133-2.7697 0.87156-5.2499 0.8407l6.0484 8.1338h2.2348l-5.0282-6.7013c1.7297-0.18817 3.0434-0.74661 3.9412-1.6753 0.89773-0.92871 1.3491-2.1913 1.3542-3.7877z"/>
  <path d="m283.48 108.86v-1.6268h-10.008v1.6268h4.1052v16.316h1.7975v-16.316z"/>
  <path d="m313.46 107.24h-1.8461l-4.4209 15.612-4.2995-15.612h-1.7004l-4.2995 15.612-4.421-15.612h-1.8461l5.1254 17.943h2.3319l3.9351-14.714 3.9837 14.714h2.3076z"/>
  <path d="m333.76 116.22c-0.0699-2.6288-0.99897-4.8191-2.7874-6.5708-1.7884-1.7517-4.0171-2.6612-6.6861-2.7285-2.6487 0.0713-4.8754 0.97881-6.68 2.7224-1.8046 1.7436-2.7438 3.8954-2.8177 6.4555 0.0664 2.6754 0.99036 4.894 2.7722 6.6558 1.7818 1.7618 4.0237 2.6754 6.7255 2.7406 2.669-0.0693 4.8976-0.98081 6.6861-2.7346 1.7884-1.7537 2.7175-3.9339 2.7874-6.5404zm-1.8218 0.0243c-0.0577 2.1331-0.81073 3.9187-2.2591 5.3568-1.4484 1.4381-3.2459 2.1857-5.3926 2.2429-2.169-0.0551-3.9766-0.8068-5.4229-2.255s-2.1973-3.2621-2.253-5.4418c0.0602-2.1108 0.82032-3.8863 2.2803-5.3264 1.46-1.4401 3.2585-2.1898 5.3956-2.249 2.1467 0.0572 3.9442 0.81087 5.3926 2.2611 1.4483 1.4502 2.2013 3.254 2.2591 5.4114z"/>
  <path d="m348.85 113.01c0.0303-1.8766-0.55262-3.3071-1.749-4.2915-1.1963-0.98434-3.1882-1.4801-5.9756-1.4872h-4.4452v17.943h1.7975v-16.316h2.5263c2.0789-0.0167 3.6052 0.28986 4.5788 0.91961 0.97365 0.62978 1.4554 1.6829 1.4453 3.1594 0.034 1.5838-0.459 2.6713-1.4787 3.2626-1.0197 0.59133-2.7697 0.87156-5.2499 0.8407l6.0484 8.1338h2.2348l-5.0282-6.7013c1.7297-0.18817 3.0434-0.74661 3.9412-1.6753 0.89774-0.92871 1.3492-2.1913 1.3542-3.7877z"/>
  <path d="m359.77 108.86v-1.6268h-10.008v1.6268h4.1052v16.316h1.7975v-16.316z"/>
  <path d="m374.68 125.18v-17.943h-1.7975v7.891h-9.3034v-7.891h-1.7975v17.943h1.7975v-8.4252h9.3034v8.4252z"/>
 </g>
</svg>
