<svg width="800.05" height="231.07" version="1.1" viewBox="0 0 800.05 231.07" xml:space="preserve" xmlns="http://www.w3.org/2000/svg">
<g transform="translate(3.7267e-6 426.13)" fill="#3bb5ae" stroke-width="2.3931"><path d="m518.58-300.05v-29.543l15.826-1.5826s23.212-6.7497 23.212-25.321c0-14.892-11.513-23.739-25.85-23.739-31.141 0-33.762 23.739-33.762 23.739h-52.753s7.2898-69.634 82.296-69.634c45.832 0 85.989 23.274 85.989 61.723 0 25.742-27.432 44.313-27.432 44.313s34.291 10.464 34.291 49.061c0 41.807-42.073 75.428-87.57 75.966-89.638 1.0609-94.429-78.075-94.429-78.075h54.338s4.041 34.817 35.346 34.817c20.61 0 33.762-14.999 33.762-30.069 0-33.676-43.257-31.653-43.257-31.653z"/><path d="m698.24-300.05v-29.543l15.826-1.5826s23.212-6.7497 23.212-25.321c0-14.892-11.513-23.739-25.85-23.739-31.141 0-33.762 23.739-33.762 23.739h-52.753s7.2898-69.634 82.296-69.634c45.832 0 85.989 23.274 85.989 61.723 0 25.742-27.432 44.313-27.432 44.313s34.291 10.464 34.291 49.061c0 41.807-42.073 75.428-87.57 75.966-89.638 1.0609-94.429-78.075-94.429-78.075h54.338s4.041 34.817 35.346 34.817c20.61 0 33.762-14.999 33.762-30.069 0-33.676-43.257-31.653-43.257-31.653z"/></g><g transform="matrix(.42313 0 0 .42313 -104.55 -45.715)" fill="#042d3c"><g transform="matrix(40.376,0,0,-40.376,-8816.4,7972)" clip-path="url(#id9)" fill="#042d3c"><g transform="translate(232.99,183)"><path d="m0 0c1.205 0.035 2.297 0.551 3.114 1.366 0.742-0.837 1.824-1.366 3.025-1.366 1.207 0 2.293 0.534 3.035 1.379 0.743-0.845 1.829-1.379 3.036-1.379 2.225 0 4.044 1.818 4.044 4.044v5.881h-2.64v-5.881c0-0.862-0.689-1.568-1.551-1.568-0.863 0-1.569 0.706-1.569 1.568v5.881h-2.64v-5.881c0-0.862-0.706-1.568-1.569-1.568-0.862 0-1.551 0.706-1.551 1.568v5.881h-2.64v-4.996c-0.019-1.234-0.92-2.258-2.026-2.291l-3.861 1e-3c-1.148 0-2.081 1.038-2.081 2.315 0 1.286 0.933 2.332 2.081 2.332h3.868v2.639l-3.868-7.2e-6c-2.603-4.8e-6 -4.72-2.227-4.72-4.971 0-2.728 2.117-4.954 4.72-4.954z" fill="#042d3c"/></g><g transform="translate(229.42,187.15)"><path d="m0 0v1.355h0.482v0.267h-1.297v-0.267h0.482v-1.355z" fill="#042d3c"/></g><g transform="translate(232.85,188.5)"><path d="m0 0v0.267h-1.05v-1.622h1.08v0.267h-0.746v0.421h0.655v0.273h-0.655v0.394z" fill="#042d3c"/></g><g transform="translate(231.49,187.15)"><path d="m0 0v1.622h-0.332v-0.661h-0.69v0.661h-0.332v-1.621h0.332v0.687h0.69v-0.688z" fill="#042d3c"/></g></g></g>
<g transform="translate(-261.62 -354.83)" display="none" fill="#f00">
	<rect y="750.5" width="1920" height="253.9" display="inline" opacity=".1"/>
	<rect width="1920" height="253.9" display="inline" opacity=".1"/>
	<rect x="1666.1" width="253.9" height="1004.4" display="inline" opacity=".1"/>
	<rect width="253.9" height="1004.4" display="inline" opacity=".1"/>
	<path d="m1704.3 469.6v3.6h19.7v18.7h-19.7v73.3l-24.3-0.2v-73.2h-13.8v-18.7h13.8v-3.6c0-22.5 14.6-32.3 36.1-32.3 6 0 12.8 1 17 2.7l-4.4 16.8c-2.4-1.7-5.6-3.4-10.2-3.4-10.5 0.2-14.2 6-14.2 16.3z" display="inline" opacity=".1"/>
	<path d="m1818.1 473.2v91.9h-23.5v-16.3c-6.1 12.8-17.2 18-29.3 18-18.7 0-30.5-12.4-30.5-34.5v-59h24.3v57.2c0 11.6 6.5 16.8 14.8 16.8 8.2 0 16.3-4.9 19.7-15v-59h24.5z" display="inline" opacity=".1"/>
	<path d="m1920 506.1v59h-24.3v-57.2c0-11.6-6.5-16.8-14.8-16.8-8.2 0-16.3 4.9-19.7 15v59h-24.3v-91.9h23.5v16.3c6.1-12.8 17.2-18 29.3-18 18.6 0 30.3 12.4 30.3 34.6z" display="inline" opacity=".1"/>
	<path d="m927.6 215.9h3.6v-19.7h18.7v19.7h73.3l-0.2 24.3h-73.2v13.8h-18.7v-13.8h-3.6c-22.5 0-32.3-14.6-32.3-36.1 0-6 1-12.8 2.7-17l16.8 4.4c-1.7 2.4-3.4 5.6-3.4 10.2 0.1 10.5 5.9 14.2 16.3 14.2z" display="inline" opacity=".1"/>
	<path d="m931.2 102.1h91.9v23.5h-16.3c12.8 6.1 18 17.2 18 29.3 0 18.7-12.4 30.5-34.5 30.5h-59v-24.3h57.2c11.6 0 16.8-6.5 16.8-14.8 0-8.2-4.9-16.3-15-19.7h-59v-24.5z" display="inline" opacity=".1"/>
	<path d="m964 0.2h59v24.3h-57.2c-11.6 0-16.8 6.5-16.8 14.8 0 8.2 4.9 16.3 15 19.7h59v24.3h-91.9v-23.4h16.3c-12.8-6.1-18-17.2-18-29.3 0.1-18.7 12.5-30.4 34.6-30.4z" display="inline" opacity=".1"/>
</g>
</svg>
