<svg width="2193.4" height="1474.7" version="1.1" viewBox="0 0 2193.4 1474.7" xmlns="http://www.w3.org/2000/svg">
 <defs>
  <linearGradient id="linearGradient1119" x1="4.6351" x2="13.922" y1="29.228" y2="19.941" gradientTransform="matrix(38.661,0,0,38.661,-1838,-726.03)" gradientUnits="userSpaceOnUse">
   <stop stop-color="#AE1F23" offset="0"/>
   <stop stop-color="#CC1E23" offset=".382"/>
   <stop stop-color="#E41C24" offset=".7639"/>
   <stop stop-color="#ED1C24" offset="1"/>
  </linearGradient>
  <linearGradient id="linearGradient1121" x1="16.003" x2="28.544" y1="16.905" y2="29.446" gradientTransform="matrix(38.661,0,0,38.661,-1834.8,-729.03)" gradientUnits="userSpaceOnUse">
   <stop stop-color="#1D1DEA" offset=".4967"/>
   <stop stop-color="#2022E0" offset=".6006"/>
   <stop stop-color="#292EC4" offset=".78"/>
   <stop stop-color="#374199" offset="1"/>
  </linearGradient>
  <linearGradient id="linearGradient1123" x1="25687" x2="46087" y1="9971.9" y2="9971.9" gradientTransform="matrix(.037795 0 0 .037795 -2285.4 -729.03)" gradientUnits="userSpaceOnUse">
   <stop stop-color="#51BB83" offset="0"/>
   <stop stop-color="#4DBA81" offset=".2181"/>
   <stop stop-color="#41B77B" offset=".4428"/>
   <stop stop-color="#2CB272" offset=".6704"/>
   <stop stop-color="#0FAB65" offset=".8988"/>
   <stop stop-color="#00A75E" offset="1"/>
  </linearGradient>
  <linearGradient id="linearGradient1125" x1="11942" x2="25686" y1="10549" y2="10549" gradientTransform="matrix(1.4612,0,0,1.4612,-2285.4,-730.78)" gradientUnits="userSpaceOnUse">
   <stop stop-color="#9B2E90" offset="0"/>
   <stop stop-color="#A82C9B" offset=".2246"/>
   <stop stop-color="#BE27AF" offset=".6966"/>
   <stop stop-color="#C626B6" offset="1"/>
  </linearGradient>
 </defs>
 <g transform="translate(-490.03 -887.93)" fill="#6e6d72" fill-rule="evenodd">
  <path d="m1194 2052.3h-71.089v-261.82h71.089z"/>
  <path d="m1643.1 2052.3h-71.089v-261.82h71.089z"/>
  <path d="m2034.9 2052.3h-71.089v-261.82h71.089z"/>
  <path d="m874.95 2052.3v-145.64c0-34.678 26.008-57.218 57.218-57.218 32.944 0 57.218 26.008 57.218 57.218v145.64h71.089v-142.18c0-65.886-46.815-124.84-126.57-124.84-86.694 0-130.04 58.952-130.04 124.84v142.18z"/>
  <path d="m2482.3 2052.3v-145.64c0-34.678 27.742-57.218 57.218-57.218 32.944 0 58.952 26.008 58.952 57.218v145.64h69.355v-142.18c0-65.886-45.081-124.84-126.57-124.84-84.96 0-128.31 58.952-128.31 124.84v142.18z"/>
  <path d="m1239.1 1790.5h72.823l71.089 159.52 71.089-159.52h72.823l-119.64 261.82h-48.549z"/>
  <path d="m1733.2 1972.5c17.339 15.605 45.081 26.008 71.089 26.008 19.073 0 32.944-10.403 32.944-22.541 0-39.88-126.57-26.008-126.57-109.23 0-50.283 48.549-81.493 100.57-81.493 34.678 0 71.089 12.137 88.428 26.008l-32.944 50.283c-13.871-8.6694-31.21-17.339-50.282-17.339-19.073 0-34.678 6.9356-34.678 20.807 0 34.678 126.57 20.807 126.57 110.97 0 50.283-48.549 81.493-104.03 81.493-36.412 0-74.557-12.137-105.77-34.678z"/>
  <path d="m2223.9 1993.3c39.879 0 69.355-32.944 69.355-71.09 0-39.877-29.476-72.821-69.355-72.821-41.613 0-69.355 32.944-69.355 72.821 0 38.146 27.742 71.09 69.355 71.09zm0-208.07c79.758 0 138.71 60.686 138.71 136.98 0 74.557-58.952 135.24-138.71 135.24s-138.71-60.686-138.71-135.24c0-76.289 58.952-136.98 138.71-136.98z"/>
  <path d="m677.29 1790.5v143.91c0 36.412-27.742 57.218-57.218 57.218-32.944 0-58.952-24.274-58.952-57.218v-143.91h-69.355v142.18c0 65.888 45.081 124.84 126.57 124.84 84.96 0 128.31-58.952 128.31-124.84v-142.18z"/>
  <path d="m568.05 2166.7 15.605-39.88h27.742l-27.742 39.88zm-20.807 123.1h55.484l-27.742-67.622zm65.888 26.008h-76.291l-19.073 46.815h-27.742l76.291-183.79h17.339l76.291 183.79h-26.008z"/>
  <path d="m741.44 2251.7c12.137 0 17.339-3.4678 22.54-6.9356 3.4678-5.2016 6.9356-10.403 6.9356-17.339s-3.4678-12.137-6.9356-17.339c-5.2017-3.4678-10.403-5.2017-22.54-5.2017h-36.412v46.815zm-36.412 24.274v86.695h-26.008v-183.79h64.153c15.605 0 27.742 3.4677 34.678 10.403 12.137 10.401 19.073 22.538 19.073 38.144s-6.9356 29.476-19.073 38.146c-5.2017 5.2016-12.137 8.6694-20.806 8.6694l65.888 88.429h-31.21l-65.888-86.695z"/>
  <path d="m926.97 2251.7v24.274h-60.686v62.42h81.493v24.274h-107.5v-183.79h104.03v26.006h-78.025v46.815z"/>
  <path d="m1015.4 2289.8h55.484l-27.742-67.622zm65.888 26.008h-78.025l-19.073 46.815h-26.008l76.291-183.79h17.339l76.291 183.79h-27.742z"/>
  <path d="m1311.9 2218.7c-12.137-8.6694-27.742-13.871-53.75-13.871h-26.008v133.51h26.008c26.008 0 41.613-6.9356 53.75-15.605 13.871-12.137 22.54-31.21 22.54-52.017s-8.6693-38.146-22.54-52.017zm-105.77 143.91v-183.79h53.75c29.476 0 48.549 6.9355 64.154 17.339 22.54 17.337 36.411 45.079 36.411 74.555 0 31.21-13.871 57.218-36.411 74.558-15.605 10.403-34.678 17.339-64.154 17.339z"/>
  <path d="m1473.1 2251.7v24.274h-60.686v62.42h81.492v24.274h-107.5v-183.79h104.03v26.006h-78.025v46.815z"/>
  <path d="m1611.8 2338.4h81.492v24.274h-107.5v-183.79h26.008z"/>
  <path d="m1762.7 2289.8h57.218l-29.476-67.622zm65.887 26.008h-76.291l-19.073 46.815h-27.742l76.291-183.79h19.073l74.557 183.79h-26.008z"/>
  <path d="m2019.3 2338.4c15.605 0 24.274-5.2017 29.476-10.403 5.2016-5.2017 8.6694-12.137 8.6694-20.807s-3.4678-15.605-8.6694-20.807c-5.2017-6.9356-13.871-10.403-29.476-10.403h-39.879v62.42zm-8.6695-86.695c15.605 0 20.806-3.4678 26.008-8.6695 3.4678-3.4677 5.2017-8.6694 5.2017-15.605s-1.7339-12.137-5.2017-15.605c-5.2017-5.2017-10.403-6.9356-26.008-6.9356h-31.21v46.815zm-57.218 110.97v-183.79h62.42c17.339 0 29.476 5.2016 38.145 13.871 8.6693 8.6673 13.871 20.805 13.871 34.676 0 12.137-5.2017 24.274-13.871 32.944 17.339 8.6695 29.476 26.008 29.476 46.815 0 17.339-6.9356 32.944-19.073 43.347-10.403 6.9356-22.54 12.137-39.879 12.137z"/>
  <path d="m2142.4 2289.8h57.218l-29.476-67.622zm67.621 26.008h-78.025l-19.073 46.815h-27.742l76.291-183.79h19.073l74.557 183.79h-26.008z"/>
  <path d="m2402.5 2276h-102.3v86.695h-26.008v-183.79h26.008v72.821h102.3v-72.821h26.008v183.79h-26.008z"/>
  <path d="m2471.9 2166.7 17.339-39.88h27.742l-27.742 39.88zm-1.7339 195.93h26.008v-183.79h-26.008z"/>
  <path d="m2570.7 2289.8h57.218l-29.476-67.622zm67.621 26.008h-78.025l-19.073 46.815h-27.742l76.291-183.79h19.073l74.557 183.79h-26.008z"/>
 </g>
 <g transform="translate(43.062)">
  <g fill-rule="evenodd">
   <g transform="matrix(.51952 0 0 .51952 1146.4 378.74)">
    <path d="m-1218.2 598.73c-28.608-26.791-49.043-77.194-63.572-142.58a1394.5 1394.5 0 0 1-25.883-202.52 3039.7 3039.7 0 0 1-6.8115-217.06v-12.714c-169.83 0-317.41-12.714-387.78-25.429-74.015-13.623-123.06-40.868-131.69-54.49a641.16 641.16 0 0 0 117.61 382.34 644.34 644.34 0 0 0 499.51 273.82l-1.3623-1.3623" fill="url(#linearGradient1119)" stroke-width="38.661"/>
    <path d="m-543.47-78.755c-29.97 24.975-115.83 55.416-218 74.941-40.868 6.8115-84.896 12.665-129.4 17.206-177.09 15.893-385.97 10.465-423.69 10.465v12.683a3039.7 3039.7 0 0 0 6.8288 217.11 1394.5 1394.5 0 0 0 25.898 202.48c14.531 65.39 34.983 115.82 63.591 142.61l1.3305 1.3305 28.115 0.8868c218.87 0 411.9-108.91 528.57-275.56 44.531-67.378 76.4-142.37 94.012-221.19 14.985-54.49 22.704-112.56 22.704-172.5v-0.5322z" fill="url(#linearGradient1121)" stroke-width="38.661"/>
    <path d="m-1314.5 23.86c37.235 0 246.57 5.449 423.65-10.444 44.5-4.5408 88.094-9.9901 129.87-17.256 101.72-19.526 187.54-49.951 217.51-74.926v-575.32c-77.651-57.668-404.15-74.926-771.03-74.926z" fill="url(#linearGradient1123)" stroke-width="45.408"/>
    <path d="m-1809-684.5c-13.623 0-25.01 11.299-25.01 24.922v603.52c8.6276 13.623 57.687 40.834 131.7 54.456 70.383 12.714 217.92 25.454 387.74 25.454v-464.13c-160.75-207.07-409.51-244.25-494.44-244.25z" fill="url(#linearGradient1125)" stroke-width="38.661"/>
   </g>
   <g transform="matrix(25.155 0 0 25.155 241.35 -14.365)" fill="#6e6d72">
    <polygon transform="translate(0 .46665)" points="41.012 0.4848 41.012 26.895 35.918 26.895 35.918 6.3708 31.014 9.0868 31.014 4.2578 37.427 0.4848"/>
    <path d="m57.046 16.798v-6.1875l-4.9425 6.1875zm5.0935-15.846v15.846h4.3385v4.5275h-4.3385v6.0365h-5.0935v-6.0365h-12.262v-3.018l13.771-17.356z"/>
   </g>
  </g>
 </g>
</svg>
