<svg width="800" height="448.01" version="1.1" viewBox="0 0 800 448.01" xmlns="http://www.w3.org/2000/svg">
 <defs>
  <linearGradient id="linear-gradient" x1="-24.48" x2="-24.48" y1="2521.9" y2="2448.5" gradientTransform="matrix(1,0,0,-1,90,2521.9)" gradientUnits="userSpaceOnUse">
   <stop stop-color="#ef4237" offset="0"/>
   <stop stop-color="#da1a5d" offset="1"/>
  </linearGradient>
 </defs>
 <g transform="scale(6.1045)" data-name="Layer 2">
  <g data-name="Layer 1">
   <path class="cls-1" d="m107 31.39h-6.58l3.29-8zm-24.64-5.87v-0.07c0-2.33-1.63-3.54-4.28-3.54h-5.41v7.09h5.51c2.65 0 4.18-1.42 4.18-3.5zm48.69-10.47v30.28c0 7.78-6.37 13.24-14.14 13.24h-34.85a14.89 14.89 0 0 0-14.84 14.82l-12-14.82-25.53-31.07 10.08-10.5h-4.33a5.17 5.17 0 0 0-3.75 1.63l-8.52 9.19v-10.82h-3.63a1.82 1.82 0 0 0-1.81 1.82v21a1.89 1.89 0 0 0 1.88 1.91h3.57v-7.55l2.86-3 22.54 27.39h-34.44a14.18 14.18 0 0 1-14.14-14.14v-30.29a14.18 14.18 0 0 1 14.14-14.14h102.75c7.79 0 14.16 7.27 14.16 15.05zm-68.68 25.39a3.51 3.51 0 0 0-3.52-3.52h-9.91v-5.2h11.67v-4.85h-11.67v-5h9.88a3.38 3.38 0 0 0 3.38-3.38v-1.49h-16.55a2.09 2.09 0 0 0-2.09 2.09v20.57a2.09 2.09 0 0 0 2.09 2.08h16.74v-1.3zm26.24 1.3-6-8.84a7.7 7.7 0 0 0 5.3-7.67v-0.07a7.72 7.72 0 0 0-2.12-5.64c-1.67-1.62-4.11-2.52-7.25-2.52h-9.32a2 2 0 0 0-2 2v20.76a2 2 0 0 0 2 2h3.47v-7.93h4.31l3.28 4.9a6.83 6.83 0 0 0 5.67 3h2.72zm28.28 0-10.6-24.93h-0.29a7.18 7.18 0 0 0-6.61 4.38l-8.73 20.55h3.27a3.4 3.4 0 0 0 3.15-2.11l1.4-3.44h10.46l1.37 3.36a3.52 3.52 0 0 0 3.25 2.17h3.33z" fill="url(#linear-gradient)"/>
  </g>
 </g>
</svg>
