<svg width="800" height="355.86" version="1.1" viewBox="0 0 800 355.86" xmlns="http://www.w3.org/2000/svg" xmlns:xlink="http://www.w3.org/1999/xlink">
 <defs>
  <style type="text/css">.fil0 {fill:#140F10;fill-rule:nonzero}</style>
  <linearGradient id="linearGradient3161">
   <stop offset="0"/>
   <stop stop-opacity="0" offset="1"/>
  </linearGradient>
  <linearGradient id="linearGradient3074" x1="160.95" x2="296.85" y1="157.08" y2="157.08" gradientTransform="translate(-260.86 477.52)" gradientUnits="userSpaceOnUse" xlink:href="#linearGradient3161"/>
  <linearGradient id="linearGradient3098" x1="70.673" x2="166.2" y1="26.32" y2="131.94" gradientTransform="translate(-260.86 477.52)" gradientUnits="userSpaceOnUse">
   <stop stop-color="#999" offset="0"/>
   <stop stop-color="#999" stop-opacity="0" offset="1"/>
  </linearGradient>
  <linearGradient id="linearGradient3101" x1="158.94" x2="158.94" y1="91.328" y2="303.48" gradientTransform="translate(-260.86 477.52)" gradientUnits="userSpaceOnUse" xlink:href="#linearGradient3161"/>
  <radialGradient id="radialGradient3109" cx="259.42" cy="201.75" r="158" gradientTransform="matrix(.73337 2.0204 -1.7843 .64769 144.86 82.772)" gradientUnits="userSpaceOnUse">
   <stop stop-color="#808080" offset="0"/>
   <stop offset="1"/>
  </radialGradient>
 </defs>
 <g transform="matrix(.1145 0 0 -.14066 -.76434 361.48)" fill="#1e1d1b">
  <path d="m95 697c-3-7-4-156-3-332l3-320h187l1 232c1 136 6 233 11 234s70-105 144-235l135-236h77c61 0 80 4 92 18 8 9 49 75 90 147 42 72 102 175 134 230l59 100 10-490h186v660l-160 3-159 2-111-204c-62-112-117-209-124-215-11-8-36 31-117 177-57 103-112 199-122 215l-19 27h-155c-115 0-156-3-159-13z"/>
  <path d="m1450 695c-63-15-112-60-130-122-6-21-14-96-17-167-11-240 31-325 175-355 69-14 485-14 554 0 85 18 131 50 159 111 22 49 24 66 24 213 0 177-12 229-63 278-54 52-90 57-381 56-183 0-283-5-321-14zm536-178c22-26 24-37 24-133 0-176-11-184-258-184-230 0-237 5-237 180 0 110 14 143 68 159 17 6 110 9 205 8l174-2z"/>
  <path d="m2305 697c-3-7-4-156-3-332l3-320h187l-1 232c-1 147 2 234 8 237 6 4 97-102 203-234l192-240 161 2 160 3v660h-190l-5-240-5-239-85 104c-47 58-132 163-190 235-57 72-109 133-115 137-5 4-79 8-163 8-114 0-154-3-157-13z"/>
  <path d="m3284 697c-3-8-4-45-2-83l3-69 142-3c123-2 144-5 151-20 5-9 10-120 10-247l1-230h196l10 490 282 6 7 75c4 41 4 79 1 84-4 6-155 10-401 10-322 0-396-2-400-13z"/>
  <path d="m4304 702c-6-4-85-141-177-304-91-163-173-308-181-321-9-13-13-27-9-30 3-4 53-7 109-7 114 0 108-4 154 83l17 32h438l20-41c36-74 36-74 151-74 65 0 104 4 104 10s-44 91-98 188-125 227-157 287c-32 61-69 127-82 148l-23 37h-128c-70 0-132-4-138-8zm205-277c33-60 57-113 55-117-7-12-264-10-264 2 0 5 14 32 30 60 17 28 30 53 30 55 0 16 74 125 81 118 4-4 35-57 68-118z"/>
  <path d="m5005 697c-3-7-4-156-3-332l3-320h190l5 240 5 239 70-85c39-47 126-156 195-242l125-157 160 2 160 3v660h-190l-5-240-5-239-104 129c-58 72-141 175-185 230s-86 106-95 113c-21 17-320 17-326-1z"/>
  <path d="m6363 702c-6-4-62-97-124-207-127-228-140-250-202-360-25-44-42-84-38-88s54-6 112-5l103 3 62 110 217 3 217 2 60-120h108c60 0 111 3 115 6 3 4-2 18-12 33-10 14-83 143-161 286s-153 279-167 303l-24 42h-127c-70 0-132-4-139-8zm197-267c29-55 57-105 61-111 5-6 6-14 2-17-11-12-263-8-263 3 0 10 64 128 112 208 11 19 24 30 28 25 4-4 32-53 60-108z"/>
 </g>
 <g transform="matrix(8.6507 0 0 10.743 -188.28 -50.363)" fill="#201f1d" fill-rule="evenodd" stroke-width="0">
  <path d="m53.537 26.775-0.87421-0.01299v-20.271h15.043l0.02302 0.27665c0.01266 0.15216 0.04618 0.54887 0.07449 0.88158 0.09601 1.1286 0.12658 1.5623 0.17571 2.4935 0.02698 0.51125 0.06776 0.9753 0.09062 1.0312 0.02286 0.05592 0.04157 0.26009 0.04157 0.45371v0.35203l-0.85208 0.0047c-0.46864 0.0026-2.3409 0.0054-4.1605 0.0062-2.3703 0.0011-3.3194 0.01544-3.3472 0.05065-0.0845 0.10708-0.09973 0.44057-0.06927 1.5161l0.03178 1.1219 6.8702 0.02267 0.0228 5.5103-6.928 0.02268-0.0227 6.5151-0.69688 0.0289c-0.65472 0.02716-3.4672 0.02511-5.4221-0.0039z" style="paint-order:normal"/>
  <path d="m78.247 26.433c-1.4217-0.16834-2.3878-0.39936-3.519-0.84148-0.76627-0.2995-1.6376-0.75764-2.3902-1.2568-0.41644-0.27617-0.4871-0.32707-0.68394-0.49272-0.0434-0.03652-0.14426-0.11619-0.22415-0.17706-0.20864-0.15896-0.67881-0.59228-1.0326-0.95168-0.70834-0.71957-1.3688-1.7361-1.855-2.855-0.08628-0.19858-0.22542-0.61286-0.31963-0.95168-0.23258-0.83652-0.2942-1.3252-0.29311-2.3242 5.1e-4 -0.46417 0.0158-0.86801 0.03398-0.89743 0.01818-0.02941 0.04679-0.1432 0.06358-0.25286 0.05513-0.36011 0.13681-0.7732 0.17071-0.86334 0.01831-0.04869 0.06794-0.20804 0.1103-0.35411 0.04235-0.14607 0.09494-0.30017 0.11686-0.34244s0.03985-0.09881 0.03985-0.12563 0.05976-0.17788 0.13279-0.33567c0.07304-0.15779 0.13279-0.31372 0.13279-0.34652 0-0.03279 0.01494-0.06626 0.0332-0.07437 0.01826-0.0081 0.09787-0.13941 0.1769-0.29176 0.18679-0.36006 0.24899-0.47054 0.28014-0.49761 0.01401-0.01217 0.0638-0.09148 0.11066-0.17624s0.10511-0.17868 0.12946-0.20872c0.07745-0.09554 0.12818-0.16219 0.33034-0.43394 0.18727-0.25175 0.2914-0.37592 0.59921-0.7145 0.07304-0.08034 0.15401-0.17154 0.17994-0.20268s0.21241-0.206 0.4144-0.38859 0.38992-0.35252 0.41762-0.37762c0.14578-0.13209 0.66698-0.51364 0.9789-0.7166 0.19532-0.12709 0.37601-0.24661 0.40154-0.26558 0.17048-0.12674 1.4797-0.77414 1.8569-0.91827 0.17042-0.065104 0.37262-0.14686 0.44933-0.18167 0.07672-0.034814 0.16334-0.063298 0.1925-0.063298s0.11578-0.028808 0.1925-0.064018c0.16451-0.075504 0.54857-0.1827 0.9805-0.27367 0.17042-0.035893 0.34968-0.082758 0.39838-0.10415 0.08561-0.037602 0.70995-0.13997 1.3943-0.22861 0.44916-0.058178 2.7296-0.058203 3.1427-3.41e-5 0.86485 0.12178 1.93 0.32712 2.1025 0.40534 0.04869 0.022071 0.17816 0.062325 0.28772 0.089454 0.22076 0.054667 0.65811 0.19994 0.86315 0.2867 0.07304 0.030907 0.18259 0.070214 0.24345 0.087348 0.10662 0.030016 0.27149 0.10019 0.67794 0.28854 0.10507 0.04869 0.21296 0.088528 0.23976 0.088528s0.05537 0.014939 0.06349 0.033198c0.0081 0.018259 0.15419 0.10248 0.3246 0.18717 0.17042 0.084684 0.31649 0.16934 0.3246 0.18812 0.0081 0.018783 0.03692 0.034151 0.06402 0.034151 0.02709 0 0.12503 0.049797 0.21763 0.11066s0.25302 0.16507 0.35649 0.23158c0.72689 0.46722 1.845 1.4513 2.3792 2.0941 0.08521 0.10252 0.20117 0.23814 0.25769 0.30138 0.19277 0.21566 0.6615 0.93223 0.81508 1.2461 0.02979 0.06086 0.06599 0.12062 0.08045 0.13279s0.06466 0.11667 0.11156 0.23222 0.1002 0.21016 0.11846 0.21025c0.01826 8.8e-5 0.0332 0.03014 0.0332 0.06678s0.04839 0.16693 0.10754 0.28954 0.12144 0.28619 0.13842 0.36351 0.04594 0.17111 0.06435 0.20843c0.1304 0.26432 0.23464 0.67703 0.35256 1.3958 0.05375 0.32763 0.05333 2.0356-5.89e-4 2.3681-0.02171 0.1339-0.05288 0.34305-0.06925 0.46477s-0.04567 0.24174-0.0651 0.26669-0.0492 0.14989-0.06615 0.27764-0.0481 0.24296-0.06924 0.25602-0.03843 0.06014-0.03843 0.10461-0.02976 0.13791-0.06612 0.20764c-0.03637 0.06973-0.06625 0.1716-0.0664 0.22638-1.33e-4 0.05478-0.02019 0.09959-0.04454 0.09959-0.02434 0-0.04426 0.03015-0.04426 0.067s-0.0182 0.10158-0.04045 0.14386c-0.02225 0.04227-0.12842 0.25613-0.23594 0.47524-0.22585 0.46025-0.29965 0.59284-0.37651 0.67648-0.03043 0.03311-0.05533 0.08866-0.05533 0.12344s-0.01992 0.06323-0.04426 0.06323-0.04426 0.02076-0.04426 0.04613-0.02032 0.07019-0.04516 0.09959-0.14933 0.19576-0.27665 0.36967c-0.43414 0.59303-1.2143 1.433-1.6479 1.7744-0.09738 0.07665-0.28661 0.22701-0.42051 0.33412-0.24523 0.19617-0.98329 0.70019-1.1066 0.7557-0.03652 0.01644-0.15603 0.08104-0.26558 0.14356-0.56965 0.32508-1.5468 0.78159-1.8591 0.86855-0.08521 0.02373-0.21468 0.06901-0.28772 0.10062-0.25248 0.10929-1.258 0.39138-1.7484 0.4905-1.3578 0.27443-2.9932 0.33991-4.3821 0.17545zm2.1497-4.0534c0.14446-0.02527 0.30248-0.06331 0.35118-0.08454 0.40484-0.17649 0.54678-0.26557 0.74552-0.46787 0.35565-0.36203 0.4227-0.47659 0.47642-0.81407 0.05117-0.32145 0.04667-8.2517-0.0049-8.6576-0.04633-0.36464-0.11366-0.51336-0.35822-0.79118-0.35271-0.4007-0.85736-0.66374-1.4052-0.73244-0.88135-0.11051-1.5829 0.15596-2.1195 0.80508-0.05419 0.06555-0.11117 0.16958-0.12663 0.23116s-0.04581 0.12292-0.06746 0.13629c-0.02165 0.01338-0.03936 0.07177-0.03936 0.12976s-0.01992 0.11775-0.04426 0.13279c-0.07033 0.04347-0.05988 8.6492 0.01078 8.8756 0.03027 0.097 0.06795 0.17636 0.08373 0.17636s0.04131 0.0503 0.05675 0.11179c0.01543 0.06148 0.14433 0.22806 0.28644 0.37017 0.27086 0.27086 0.7054 0.51241 1.0419 0.57917 0.26428 0.05243 0.81166 0.0522 1.1128-4.78e-4z" style="paint-order:normal"/>
  <path d="m88.162 26.723c0-0.02232 0.01494-0.04722 0.0332-0.05533 0.04616-0.02051 0.32091-0.42902 0.32091-0.47713 0-0.0216 0.01702-0.04592 0.03781-0.05404 0.0208-0.0081 0.14992-0.1741 0.28695-0.36887 0.13702-0.19476 0.26601-0.37455 0.28665-0.39953 0.02063-0.02498 0.0755-0.10465 0.12192-0.17706 0.04642-0.0724 0.10969-0.15809 0.1406-0.19042s0.07868-0.10079 0.10616-0.15214c0.02748-0.05134 0.06761-0.11453 0.08918-0.14041 0.0835-0.10018 0.96688-1.3617 0.96688-1.3808 0-0.01109 0.0498-0.07387 0.11066-0.1395 0.06086-0.06564 0.11066-0.13591 0.11066-0.15615 0-0.02025 0.0249-0.06306 0.05533-0.09514 0.08411-0.08867 0.1987-0.24918 0.49225-0.68948 0.06989-0.10483 0.14516-0.21208 0.16726-0.23834 0.0221-0.02625 0.17847-0.24692 0.3475-0.49037s0.32442-0.46308 0.34533-0.48805c0.02091-0.02498 0.07609-0.10465 0.12264-0.17706 0.04654-0.0724 0.11942-0.17001 0.16194-0.21691s0.08884-0.12159 0.10293-0.16599 0.03967-0.08073 0.05684-0.08073 0.06876-0.06972 0.11465-0.15492c0.04589-0.08521 0.10021-0.15492 0.12072-0.15492s0.03729-0.02011 0.03729-0.04469 0.10955-0.19283 0.24345-0.37389 0.24345-0.35018 0.24345-0.37582 0.01678-0.04662 0.03729-0.04662 0.07484-0.06972 0.12073-0.15492c0.04589-0.08521 0.09568-0.15492 0.11066-0.15492 0.01497 0 0.06477-0.06971 0.11066-0.15492s0.09748-0.15492 0.11465-0.15492 0.0424-0.03486 0.05606-0.07746c0.02153-0.06712 0.08333-0.15158 0.2901-0.39651 0.02482-0.0294 0.04513-0.0651 0.04513-0.07933s0.0207-0.04993 0.046-0.07933 0.28379-0.39208 0.57442-0.80595 0.54926-0.77704 0.57473-0.80706c0.03338-0.03934 0.01527-0.10111-0.06491-0.22132-0.19397-0.2908-0.26617-0.38766-0.30029-0.40282-0.01826-0.0081-0.0332-0.03444-0.0332-0.05849s-0.0249-0.0715-0.05533-0.10544c-0.10797-0.1204-0.1528-0.18006-0.17035-0.22671-0.0098-0.02598-0.06235-0.10474-0.11683-0.17503s-0.38748-0.53614-0.73999-1.0352c-0.35251-0.49908-0.65811-0.92785-0.67911-0.95283s-0.07556-0.10465-0.12126-0.17706c-0.07098-0.11247-0.16472-0.24093-0.32214-0.44149-0.01911-0.02435-0.0729-0.109-0.11954-0.18812s-0.09907-0.14386-0.11653-0.14386c-0.01745 0-0.04327-0.03633-0.05736-0.08072-0.01409-0.0444-0.06041-0.1191-0.10293-0.16599-0.04252-0.0469-0.11539-0.1445-0.16194-0.21691-0.04654-0.0724-0.10151-0.15208-0.12214-0.17706s-0.14962-0.20476-0.28665-0.39953c-0.13702-0.19476-0.26615-0.36075-0.28695-0.36887-0.0208-0.0081-0.03782-0.0382-0.03782-0.06685s-0.0498-0.1058-0.11066-0.17144-0.11066-0.12805-0.11066-0.13869c0-0.0191-1.0215-1.4691-1.0969-1.557-0.02142-0.024978-0.07703-0.10465-0.12357-0.17706-0.04654-0.072403-0.11964-0.17026-0.16244-0.21745-0.0428-0.047195-0.07781-0.10055-0.07781-0.11856 0-0.018016-0.02633-0.05909-0.05852-0.091276s-0.14622-0.18798-0.2534-0.34621-0.2153-0.31189-0.24026-0.34148c-0.02496-0.029587-0.07028-0.083523-0.10072-0.11986-0.03043-0.036335-0.05533-0.078287-0.05533-0.093226s-0.0249-0.054926-0.05533-0.08886c-0.12979-0.14474-0.16598-0.19625-0.16598-0.23627 0-0.023344-0.01494-0.049083-0.0332-0.057198-0.0391-0.017379-0.32091-0.41568-0.32091-0.45356 0-0.014279 1.7586-0.025962 3.908-0.025962h3.908l0.26386 0.40571c0.14512 0.22314 0.28383 0.42731 0.30823 0.45371 0.0244 0.026397 0.08371 0.12269 0.13179 0.21398 0.04808 0.091295 0.09828 0.16599 0.11155 0.16599s0.06168 0.069716 0.10756 0.15492c0.04589 0.085208 0.09806 0.15492 0.11593 0.15492s0.04499 0.049797 0.06027 0.11066 0.04731 0.11066 0.07119 0.11066 0.04342 0.028218 0.04342 0.062707 0.01494 0.069347 0.0332 0.077462c0.04616 0.020515 0.32091 0.42902 0.32091 0.47713 0 0.021605 0.01559 0.045921 0.03465 0.054036 0.01906 0.00812 0.12193 0.1539 0.2286 0.32398 0.10667 0.17007 0.22055 0.33583 0.25306 0.36834 0.03251 0.032514 0.05912 0.085912 0.05912 0.11866 0 0.03275 0.01689 0.066185 0.03753 0.0743 0.02064 0.00812 0.12432 0.15419 0.2304 0.3246 0.10608 0.17042 0.20477 0.31981 0.21932 0.33198s0.07184 0.09683 0.12732 0.18812 0.1341 0.16469 0.17472 0.16311c0.06035-0.0024 0.31801-0.34383 0.56076-0.74318 0.02434-0.04005 0.05422-0.08278 0.0664-0.09495 0.05034-0.050346 0.39838-0.57326 0.39838-0.59856 0-0.015101 0.0249-0.05522 0.0553-0.089154 0.11107-0.12385 0.14996-0.1784 0.2346-0.3291 0.0475-0.08452 0.13113-0.20383 0.18591-0.26513 0.0548-0.061302 0.0996-0.1349 0.0996-0.16355 0-0.028652 0.0149-0.058733 0.0332-0.066848 0.0183-0.00812 0.2523-0.34341 0.5201-0.74511s0.50184-0.73699 0.5201-0.74511c0.0183-0.00812 0.0332-0.032431 0.0332-0.054036s0.0636-0.1295 0.14131-0.23976l0.14132-0.20048h7.6069l-0.11591 0.15197c-0.0637 0.083584-0.11591 0.17156-0.11591 0.1955 0 0.023941-0.0165 0.050168-0.0366 0.058283-0.0396 0.015963-0.6274 0.82267-0.6274 0.86098 0 0.012783-0.0249 0.051005-0.0553 0.084939-0.11904 0.13274-0.16599 0.19488-0.16599 0.21969 0 0.014228-0.0212 0.049926-0.0471 0.07933s-0.28422 0.39208-0.57402 0.80595c-0.28979 0.41387-0.54406 0.77292-0.56505 0.7979-0.021 0.024978-0.0762 0.10465-0.12279 0.17706-0.0465 0.072403-0.11964 0.17025-0.16244 0.21745-0.0428 0.04719-0.0778 0.10055-0.0778 0.11856 0 0.01802-0.0252 0.05908-0.0559 0.09125s-0.0939 0.11773-0.1403 0.19013-0.10129 0.15208-0.12193 0.17706c-0.0862 0.10436-0.7442 1.0454-0.7442 1.0643 0 0.01135-0.0415 0.06834-0.0922 0.12666-0.0977 0.11238-0.52606 0.71918-0.6519 0.92351-0.0411 0.06679-0.0897 0.12157-0.108 0.12173-0.0183 1.33e-4 -0.0332 0.02104-0.0332 0.04641s-0.0207 0.07019-0.0459 0.09959c-0.0912 0.10619-0.44097 0.60595-0.44097 0.63013 0 0.01362-0.0498 0.07846-0.11066 0.1441-0.0609 0.06564-0.11066 0.14444-0.11066 0.17512s-0.0168 0.05578-0.0373 0.05578-0.0748 0.06972-0.12073 0.15492c-0.0459 0.08521-0.0957 0.15492-0.11066 0.15492-0.015 0-0.0648 0.06972-0.11066 0.15492-0.0459 0.08521-0.0975 0.15492-0.11465 0.15492-0.0172 0-0.0427 0.03633-0.0568 0.08072-0.0141 0.0444-0.0603 0.11979-0.10258 0.16754-0.0955 0.10771-0.36467 0.49864-0.36467 0.52958 0 0.01252-0.0498 0.07647-0.11066 0.14211-0.0609 0.06564-0.11066 0.14444-0.11066 0.17512s-0.0156 0.05578-0.0347 0.05578-0.0707 0.06098-0.11477 0.13552c-0.0888 0.15032-0.0733 0.28444 0.0485 0.41866 0.0437 0.04821 0.11761 0.14689 0.16415 0.21929 0.0465 0.0724 0.10151 0.15208 0.12214 0.17706 0.0206 0.02498 0.14963 0.20476 0.28665 0.39953 0.13702 0.19476 0.26615 0.36075 0.28695 0.36887 0.0208 0.0081 0.0378 0.0382 0.0378 0.06685s0.0498 0.1058 0.11066 0.17144c0.0609 0.06564 0.11066 0.12837 0.11066 0.1394 0 0.02078 2.0403 2.8861 2.1225 2.9808 0.0255 0.0294 0.0464 0.06568 0.0464 0.08062s0.0249 0.05493 0.0553 0.08886c0.1298 0.14474 0.16599 0.19625 0.16599 0.23627 0 0.02334 0.0149 0.04908 0.0332 0.0572 0.0183 0.0081 0.10221 0.11435 0.18655 0.23607 0.0843 0.12173 0.17896 0.24764 0.21026 0.27981s0.0569 0.07201 0.057 0.08853c3e-5 0.01652 0.0498 0.08791 0.11066 0.15865 0.0608 0.07074 0.11063 0.14045 0.11066 0.15492s0.0498 0.08419 0.11066 0.15492c0.0608 0.07074 0.11061 0.14168 0.11061 0.15764 0 0.01597 0.035 0.06765 0.0779 0.11484 0.0428 0.04719 0.17586 0.23029 0.29563 0.40687 0.11976 0.17658 0.25403 0.36 0.29836 0.40759 0.0443 0.04759 0.0806 0.1025 0.0806 0.12203s0.0498 0.08921 0.11066 0.15484c0.0609 0.06564 0.11066 0.12805 0.11066 0.13869 0 0.0191 1.0215 1.4691 1.0969 1.557 0.0214 0.02498 0.077 0.10465 0.12357 0.17706 0.0465 0.0724 0.11942 0.17001 0.16193 0.21691 0.0425 0.0469 0.0888 0.12159 0.10293 0.16599 0.0141 0.0444 0.0397 0.08073 0.0568 0.08073 0.0172 0 0.0688 0.06972 0.11465 0.15492 0.0459 0.08521 0.097 0.15492 0.11362 0.15492 0.0166 0 0.0529 0.0498 0.0806 0.11066l0.0504 0.11066h-3.9149c-3.8166 0-3.916-0.0021-3.9604-0.08508-0.025-0.04679-0.0706-0.11224-0.10115-0.14544-0.0306-0.0332-0.0855-0.11319-0.12202-0.17775-0.12536-0.22165-0.67932-1.0303-0.7159-1.0451-0.0201-0.0081-0.0366-0.03243-0.0366-0.05404 0-0.03545-0.25403-0.4308-0.31132-0.48451-0.013-0.01217-0.16238-0.23128-0.33198-0.4869s-0.31983-0.47473-0.33384-0.4869c-0.014-0.01217-0.0631-0.08687-0.10914-0.16599-0.046-0.07912-0.0993-0.14386-0.11839-0.14386-0.0191 0-0.0347-0.01934-0.0347-0.04297 0-0.05077-0.27274-0.45941-0.32091-0.48082-0.0183-0.0081-0.0332-0.03444-0.0332-0.05849 0-0.02406-0.0249-0.0715-0.0553-0.10544-0.10259-0.1144-0.14352-0.1748-0.23139-0.34142-0.04814-0.09129-0.09839-0.16599-0.11166-0.16599s-0.06168-0.06971-0.10756-0.15492c-0.04589-0.08521-0.10021-0.15492-0.12072-0.15492s-0.03729-0.02073-0.03729-0.04606c0-0.06926-0.18687-0.30811-0.24071-0.30767-0.02585 2.22e-4 -0.12613 0.12471-0.22283 0.27665s-0.18699 0.28622-0.20064 0.2984c-0.01365 0.01217-0.09356 0.13168-0.17759 0.26558-0.08402 0.1339-0.18772 0.28182-0.23043 0.32872s-0.08918 0.12159-0.10328 0.16599c-0.01409 0.0444-0.04188 0.08073-0.06174 0.08073-0.01987 0-0.04782 0.03486-0.06213 0.07746-0.02383 0.07096-0.08595 0.17707-0.1735 0.29636-0.16724 0.22786-0.38625 0.56709-0.38625 0.59826 0 0.02124-0.01494 0.04525-0.0332 0.05336-0.04616 0.02051-0.32091 0.42902-0.32091 0.47713 0 0.02161-0.01646 0.04592-0.03659 0.05404-0.02012 0.0081-0.17358 0.2239-0.34101 0.47953s-0.31596 0.47473-0.33004 0.4869c-0.01409 0.01217-0.09426 0.13168-0.17816 0.26558s-0.17288 0.26591-0.19774 0.29335c-0.02486 0.02745-0.12487 0.18111-0.22225 0.34147l-0.17706 0.29157-3.8178 0.0016c-2.2854 9.4e-4 -3.8178-0.01471-3.8178-0.039z" style="paint-order:normal"/>
 </g>
 <g transform="matrix(.74801 0 0 .79584 195.12 -380.03)">
  <path d="m-106.88 479.56c-53.206 0.81017-104.46 31.365-130.91 77.397-29.197 49.041-27.909 114.45 3.531 162.2 29.335 46.578 84.554 74.96 139.44 71.531 56.578-2.2297 109.9-38.285 133.38-89.688 24.541-51.195 17.597-115.73-17.562-160.44-29.764-39.234-78.429-62.588-127.88-61z" fill="url(#radialGradient3109)" fill-rule="evenodd"/>
  <path d="m-106.88 479.56c-53.206 0.81017-104.46 31.365-130.91 77.397-29.197 49.041-27.909 114.45 3.531 162.2 29.335 46.578 84.554 74.96 139.44 71.531 56.578-2.2297 109.9-38.285 133.38-89.688 24.541-51.195 17.597-115.73-17.562-160.44-29.764-39.234-78.429-62.588-127.88-61z" fill="url(#linearGradient3101)" fill-rule="evenodd"/>
  <path d="m-255.61 598.65c5.4937-20.157 9.1217-35.715 36.849-69.266 15.823-14.68 29.242-29.248 62.984-41.938 17.719-5.7712 35.158-9.1502 53.354-9.1522 22.951-2e-3 46.149 4.5788 69.507 16.218-1.5257 55.507-17.341 83.188-38.443 100.57-42.277 32.249-79.089 41.858-114.16 44.268-32.105 1.6836-54.004-20.129-71.384-35.377-0.28176-0.24719 1.5771-5.0827 1.2977-5.3263z" fill="url(#linearGradient3098)"/>
  <path d="m-204.36 586.58c-26.333 0-47.461 21.579-47.461 48.331 0 26.753 21.128 48.331 47.461 48.331 16.17 0 22.491-11.611 22.491-11.611v10.563h24.971v-47.283c0-26.753-21.128-48.331-47.461-48.331zm0 25.269c12.555 0 22.619 10.297 22.619 23.062s-10.064 23.062-22.619 23.062-22.619-10.297-22.619-23.062 10.064-23.062 22.619-23.062z" fill="url(#linearGradient3074)"/>
  <path d="m-206.62 585.7c-27.438 0-49.454 22.105-49.454 49.51s22.015 49.51 49.454 49.51c16.848 0 23.435-11.895 23.435-11.895v10.821h26.019v-48.437c0-27.405-22.015-49.51-49.454-49.51zm0 25.886c13.082 0 23.568 10.548 23.568 23.625s-10.486 23.625-23.568 23.625-23.568-10.548-23.568-23.625 10.486-23.625 23.568-23.625z" fill="#fff" stroke="#000" stroke-width=".78858"/>
  <path d="m-150.87 551.61v83.606c0 27.405 22.032 49.528 49.471 49.528 27.438 0 49.414-22.122 49.414-49.528 0-27.405-21.976-49.528-49.414-49.528-16.848 0-23.458 11.928-23.458 11.928v-46.006zm49.471 59.979c13.082 0 23.571 10.551 23.571 23.628s-10.489 23.628-23.571 23.628-23.571-10.551-23.571-23.628 10.489-23.628 23.571-23.628z" fill="#fff" stroke="#000" stroke-width=".78858"/>
  <path d="m1.7093 585.7c-27.438 0-49.454 22.105-49.454 49.51s22.015 49.51 49.454 49.51c23.684 0 43.335-16.471 48.267-38.602h-27.355c-3.9237 7.5473-11.782 12.717-20.912 12.717-13.082 0-23.568-10.548-23.568-23.625s10.486-23.625 23.568-23.625c9.1574 0 17.057 5.189 20.969 12.773h27.298c-4.9124-22.159-24.564-38.659-48.267-38.659z" fill="#fff" stroke="#000" stroke-width=".78858"/>
  <path d="m-102.86 477.52c-87.261 0-158 70.595-158 157.69 0 87.093 70.739 157.72 158 157.72s158-70.626 158-157.72c0-87.093-70.739-157.69-158-157.69zm-0.3125 3.0312c85.408 0 154.66 69.132 154.66 154.38s-69.248 154.34-154.66 154.34c-85.408 0-154.62-69.1-154.62-154.34s69.217-154.38 154.62-154.38z" fill-rule="evenodd"/>
 </g>
</svg>
