<svg width="800" height="356.77" data-name="Layer 1" version="1.1" viewBox="0 0 800 356.77" xmlns="http://www.w3.org/2000/svg">
 <defs>
  <linearGradient id="linear-gradient" x1="7019" x2="7018.7" y1="-7035" y2="-7021.2" gradientTransform="matrix(1 0 0 -1 -6943.1 -7000.7)" gradientUnits="userSpaceOnUse">
   <stop stop-color="#f7fbff" stop-opacity=".4" offset="0"/>
   <stop stop-color="#fff" stop-opacity=".1" offset="1"/>
  </linearGradient>
  <linearGradient id="linear-gradient-2" x1="7019" x2="7019" y1="-7009.4" y2="-7015.4" gradientTransform="matrix(1 0 0 -1 -6943.1 -7000.7)" gradientUnits="userSpaceOnUse">
   <stop stop-color="#f7fbff" stop-opacity=".6" offset="0"/>
   <stop stop-color="#fff" stop-opacity=".03" offset=".67"/>
   <stop stop-color="#fff" stop-opacity="0" offset="1"/>
  </linearGradient>
 </defs>
 <g transform="matrix(5.2691 0 0 5.2691 0 -45.525)">
  <rect class="cls-1" x=".05" y="8.71" width="151.71" height="47.99" rx="5.53" ry="5.53" fill="#fed96c"/>
  <path class="cls-2" d="m55 50.42h-19.38v-2q0.86-0.08 2.11-0.25a7.4 7.4 0 0 0 1.7-0.37 2.71 2.71 0 0 0 1.34-1 3.14 3.14 0 0 0 0.4-1.66v-26.67l-12.28 31.37h-3.17q-0.23-0.83-1.12-3.29t-1.45-4l-9-24.53v21.75a20.23 20.23 0 0 0 0.41 4.74 4.34 4.34 0 0 0 1.35 2.37 6.55 6.55 0 0 0 2.24 1 16.25 16.25 0 0 0 2.27 0.55v2h-15.42v-2c0.42 0 1.11-0.17 2.06-0.34a5.71 5.71 0 0 0 2.33-0.9 3.64 3.64 0 0 0 1.36-2.37 24.41 24.41 0 0 0 0.35-4.77v-17.68a7.62 7.62 0 0 0-0.4-2.68 3.8 3.8 0 0 0-1.24-1.69 5.13 5.13 0 0 0-2.06-1 15.75 15.75 0 0 0-2.14-0.3v-2h16.52l8.75 23.5 7.47-19.06a24 24 0 0 0 0.73-2.51 13.52 13.52 0 0 0 0.38-1.9h15.82v2a15.58 15.58 0 0 0-1.69 0.2 12.24 12.24 0 0 0-1.69 0.4 2 2 0 0 0-1.29 1 3.72 3.72 0 0 0-0.3 1.56v25.26a3.36 3.36 0 0 0 0.3 1.52 2.59 2.59 0 0 0 1.3 1.07 7.65 7.65 0 0 0 1.65 0.43c0.76 0.14 1.35 0.23 1.77 0.28z" fill="#020305"/>
  <path class="cls-2" d="m78.2 44.4a15.22 15.22 0 0 1-2.13 2.7 12.81 12.81 0 0 1-2.83 2.17 15.54 15.54 0 0 1-3.41 1.44 14.67 14.67 0 0 1-4 0.49 17.64 17.64 0 0 1-6.43-1.06 12.59 12.59 0 0 1-4.4-2.84 11.37 11.37 0 0 1-2.63-4.22 15.53 15.53 0 0 1-0.87-5.27 13.06 13.06 0 0 1 0.94-4.92 13.27 13.27 0 0 1 2.68-4.19 12.81 12.81 0 0 1 4.32-2.89 14.79 14.79 0 0 1 5.83-1.11 16.62 16.62 0 0 1 5.79 0.86 10.2 10.2 0 0 1 3.75 2.37 8.55 8.55 0 0 1 2.09 3.38 12.7 12.7 0 0 1 0.65 4.09v1.6h-17q0 5.16 2 7.84t6.33 2.69a7.4 7.4 0 0 0 4.26-1.29 12.19 12.19 0 0 0 3.17-3.24zm-9.58-9.6q0-1.51-0.15-3.1a10.37 10.37 0 0 0-0.53-2.59 3.94 3.94 0 0 0-1.18-1.79 2.91 2.91 0 0 0-1.89-0.6 3.5 3.5 0 0 0-3.11 2 13.35 13.35 0 0 0-1.26 6.18z" fill="#020305"/>
  <g data-name="TV BOX">
   <rect class="cls-2" x="80.85" y="13.01" width="66.04" height="39.22" rx="3.69" ry="3.69" fill="#020305"/>
  </g>
  <g fill="#fff">
   <path class="cls-3" d="m85.24 18.26v6.84h8.64v20.75h9.29v-20.75h8.44v-6.84z"/>
   <polygon class="cls-3" points="133.54 18.25 128.27 36.17 122.62 18.25 112.48 18.25 123.22 45.84 133.06 45.84 143.68 18.25"/>
  </g>
  <g class="cls-4" opacity=".5">
   <path class="cls-5" d="m149.87 10.07a6 6 0 0 0-3.87-1.43h-140.47a5.53 5.53 0 0 0-5.53 5.53v32.76c60.92-28 151.7-14.13 151.7-14.13v-18.63a5.51 5.51 0 0 0-1.83-4.1z" fill="url(#linear-gradient)"/>
  </g>
  <path class="cls-6" d="m151.83 14.66h-0.24c0-3.22-2.89-5-6.16-5l-140-0.1a5.37 5.37 0 0 0-5.03 4.44h-0.3a5.55 5.55 0 0 1 5.39-5.33h140.63c3.15 0 5.71 2.05 5.71 5.99z" fill="url(#linear-gradient-2)"/>
 </g>
 <g transform="matrix(5.2691 0 0 5.2691 0 -45.525)">
  <path class="cls-3" d="m29.31 70.71a2.9 2.9 0 0 0 0.17 1 2.24 2.24 0 0 0 2.31 1.15c0.79 0 2-0.27 2-1.43 0-0.81-0.68-1-3.39-1.81-2.49-0.71-5.33-1.39-5.33-4.56 0-3.62 3.1-5.2 6.33-5.2 3.41 0 6.43 1.3 6.56 5.13h-4.56a1.21 1.21 0 0 0-0.57-1.25 2.51 2.51 0 0 0-1.43-0.4c-0.66 0-1.74 0.17-1.74 1.06 0.09 1.12 2.33 1.37 4.56 2s4.42 1.65 4.42 4.52c0 4.1-3.76 5.43-7.27 5.43-1.78 0-6.87-0.64-6.91-5.66z"/>
  <path class="cls-3" d="m40.14 60.27h13v4h-8.14v2h7.4v3.73h-7.4v2h8.41v4h-13.27z"/>
  <path class="cls-3" d="m60 60.27h4.73l5.73 15.73h-5l-0.66-2.25h-5l-0.74 2.25h-4.85zm3.81 10.11-1.41-4.84-1.51 4.84z"/>
  <path class="cls-3" d="m73.72 64.3h-4.4v-4h13.68v4h-4.4v11.7h-4.88z"/>
  <path class="cls-3" d="m88.42 64.3h-4.42v-4h13.67v4h-4.4v11.7h-4.85z"/>
  <path class="cls-3" d="m99.46 60.27h4.84v11.73h7v4h-11.83z"/>
  <path class="cls-3" d="m113.32 60.27h13v4h-8.17v2h7.42v3.73h-7.42v2h8.41v4h-13.23z"/>
 </g>
</svg>
