<svg width="800" height="695.38" version="1.1" xmlns="http://www.w3.org/2000/svg">
 <link href="" rel="stylesheet" type="text/css"/>
 <style type="text/css"/>
 <path d="m533.98-1.9693e-6c-97.99 0-177.45 79.445-177.45 177.44-0.049 45.417 17.385 89.11 48.685 122.02-54.629 39.808-90.158 104.25-90.158 177 0 64.823 28.175 123.05 72.94 163.14 13.382-3.1548 27.582-6.5747 42.969-10.296 72.051-17.436 135.46-23.648 186.84-23.648 21.217-0.0704 42.419 1.1038 63.499 3.5163 54.227 10.597 71.149-98.713 71.598-132.71 0-72.757-35.53-137.2-90.166-177 31.301-32.908 48.734-76.601 48.685-122.02 0-97.99-79.451-177.44-177.44-177.44zm170.29 614.05c-0.0318 0.0395 0.032-0.0393 0 0-15.145-2.4461-32.61-3.6338-46.645-3.9065-36.193-0.63608-72.474 3.6076-108.16 9.379-48.178 8.1603-95.879 19.687-142.15 35.506 31.689 16.73 88.495 39.889 126.67 40.357 68.798 0 130.16-31.724 170.29-81.335zm-170.25-516.12c32.158 0.01194 61.144 19.393 73.441 49.106 12.298 29.713 5.4857 63.908-17.258 86.643-22.743 22.735-56.94 29.535-86.649 17.227s-49.079-41.301-49.08-73.459c-5.1e-4 -43.927 35.618-79.533 79.545-79.517zm-4.5012 270.39c61.489-2.5589 112.74 46.6 112.74 108.14 0 59.775-48.459 108.23-108.23 108.24-58.913 0.018-107.02-47.085-108.25-105.98-1.2252-58.9 44.882-107.96 103.74-110.39z" fill="#fff" stroke-width=".72051"/>
 <path class="cls-2" d="m1.5409e-5 565s60.876 64.796 193.4 59.889c110.87-4.0997 218.92-39.268 253.27-45.155 34.354-5.8866 159.03-29.462 240.51 4.9068 81.483 34.368 112.81 68.686 112.81 68.686l-0.0507 14.713s-60.739-51.992-118.65-58.866c-57.908-6.8738-144.82-5.3895-250.34 20.131-110.89 26.818-163.94 39.268-241.98 32.423-91.887-8.113-159.53-49.607-188.97-82.989z" fill="#fff" stroke-width=".72051"/>
 <path class="cls-3" d="m174.58 389.29c-62.786 0-108.24-39.744-127.63-80.503 19.389-40.061 64.846-79.826 127.63-79.826 62.461 0 108.21 39.765 127.6 79.854-19.382 40.731-65.134 80.474-127.6 80.474zm0-219.14c-76.475 0-137.29 62.49-137.29 138.63 0 76.814 60.804 139.3 137.29 139.3 76.836 0 136.96-62.483 136.96-139.3 0-76.173-60.12-138.66-136.96-138.66zm0 65.178c-40.759 0-73.831 33.05-73.831 73.492a73.629 73.629 0 0 0 73.831 73.781c40.745 0 73.492-32.718 73.492-73.788a73.492 73.492 0 0 0-73.492-73.492z" fill="#fff" stroke-width=".72051"/>
</svg>
