<svg width="800" height="694.9" version="1.1" xmlns="http://www.w3.org/2000/svg">
 <link href="" rel="stylesheet" type="text/css"/>
 <style type="text/css"/>
 <g transform="translate(320.43 -120.59)">
  <g transform="matrix(.85837 0 0 .85837 -45.383 115.5)">
   <path d="m301.01 5.9291c-113.45 0-205.44 91.985-205.44 205.44 0 55.262 21.813 105.43 57.312 142.34-64.013 46.298-105.69 121.71-105.69 206.88 0 140.79 113.87 254.91 254.31 254.91 140.45 0 254.28-114.12 254.28-254.91 0-85.441-41.927-161.05-106.28-207.31 35.25-36.877 56.906-86.857 56.906-141.91 0-113.45-91.954-205.44-205.41-205.44zm0.25 114.5c51.182 0 92.656 41.617 92.656 92.938 0 48.23-36.637 87.871-83.531 92.469-2.9469-0.10137-5.9035-0.1875-8.875-0.1875-3.0869 0-6.1585 0.0781-9.2188 0.1875-46.971-4.5253-83.719-44.185-83.719-92.469 0-51.32 41.505-92.938 92.688-92.938zm0.25 313.34c69.86 0 126.47 56.782 126.47 126.81 0 70.031-56.608 126.78-126.47 126.78-69.86 0-126.5-56.75-126.5-126.78 0-70.031 56.64-126.81 126.5-126.81z" fill="#fff" fill-rule="evenodd"/>
   <path d="m410.63 624.09c-1.2067 2.1593-2.4737 4.2596-3.7812 6.3125 0.55764-0.79096 1.1008-1.5601 1.5938-2.3125s0.95768-1.484 1.375-2.1875c0.33742-0.56879 0.64104-1.1459 0.96875-1.7188l-0.15625-0.0937zm-21.562 27.438c-3.4271 3.432-6.8359 6.6195-9.7812 9l1.8125-1.375c0.39144-0.29962 0.87516-0.71918 1.4062-1.1875 1.6578-1.4618 3.9878-3.7525 6.5625-6.4375zm-709 14.125c-0.27665 0-0.5 3.371-0.5 7.5v7.5l8 7.9375c24.561 24.331 59.142 45.892 99.5 62.031 63.5 25.395 138.78 34.213 216.88 25.438 27.633-3.105 73.773-11.699 112.81-21.031l14.656-3.5 0.1875 0.15625 2-0.15625c1.8597-0.76761 16.936-4.5129 34.656-8.7188 9.2967-2.2083 19.266-4.5277 28.344-6.5938 9.0792-2.0651 17.266-3.8887 22.969-5.0625 4.2965-0.88434 8.6197-1.7352 12.969-2.5625 13.047-2.4814 26.319-4.7085 39.625-6.6562 17.743-2.5988 35.55-4.6896 53.094-6.2812 8.772-0.79582 17.482-1.4688 26.062-2s17.049-0.92955 25.344-1.1875c4.1473-0.12897 8.2544-0.22219 12.312-0.28125 12.174-0.17718 23.904-0.0338 35.062 0.4375 4.3538 0.18389 8.4982 0.38028 12.438 0.59375 3.9396 0.21348 7.6614 0.44084 11.219 0.6875 0.01 6.8e-4 0.0214-6.8e-4 0.0312 0 12.449 0.86324 22.634 1.944 31.281 3.3125 2.4706 0.39099 4.8302 0.80969 7.0625 1.25 3.3485 0.66046 6.4415 1.3747 9.3438 2.1562 1.4715 0.39625 2.442 0.68492 3 0.96875 0.0624 0.0317 0.10412 0.0622 0.15625 0.0937l1.6875-0.125 10.406 3.9062c34.106 12.898 60.075 28.091 98.5 57.531l2.4062 1.8125v-16.844l-6.25-5.9375c-16.702-15.903-56.413-42.075-85-56-2.0538-1.0004-3.7637-1.9936-4.7812-2.6875l-0.0312 0.0312-5.3438-2.7186c-0.0895-0.0322-0.2193-0.0907-0.3125-0.125-0.4853-0.17919-0.96519-0.3526-1.5625-0.59375-0.8337-0.33395-1.7843-0.75045-2.875-1.2188-0.16563-0.0715-0.48427-0.2065-0.65625-0.28125-2.3367-1.013-5.2773-2.3147-9-4-23.368-10.579-42.11-16.939-65.469-21.312-4.6717-0.87463-9.5415-1.6733-14.656-2.4062s-10.482-1.4044-16.188-2.0312-11.743-1.2251-18.188-1.7812l-9.625-0.5-32.781 0.53125c-18.917 0.30907-39.758 1.2328-49.281 2.1875-9.075 0.9097-22.738 2.4199-30.375 3.375l-9.0938 1.1562s-2.9898 0.45256-5.1562 0.78125l0.0312 0.0312-5 0.75c-2.1026 0.32006-12.269 2.2197-24.094 4.1562-0.9535 0.15615-2.0701 0.34819-3.125 0.53125-5.6195 1.0524-9.0484 1.6866-13.438 2.5312-0.83511 0.16614-1.6063 0.32554-2.4688 0.5-12.496 2.5278-27.779 5.8932-43.781 9.8125-22.55 5.523-45.435 11.093-50.844 12.375l-8.75 2.0938-0.0937 0.0312-0.25 0.0312-0.25 0.0625-0.46875 0.125-16.062 3.4062c-15.634 3.3818-40.202 8.1573-58.625 11.25-74.653 12.532-135.73 15.494-183.66 8.9064-56.599-7.7806-108.76-28.797-145.06-58.469-4.6402-3.793-8.6608-6.9062-8.9375-6.9062z" fill="#01b2e2"/>
   <g fill="#fc8104" fill-rule="evenodd">
    <path transform="translate(-320.43 5.9291)" d="m203.53 200.31c-87.701 0-158.78 72.192-158.78 161.25s71.081 161.25 158.78 161.25c87.701 0 158.81-72.192 158.81-161.25s-71.112-161.25-158.81-161.25zm0.21875 67.469c110.65 0 148.34 92.812 148.34 92.812s-38.52 93.062-147.84 93.062c-110.13 0-148.84-93.062-148.84-93.062s40.518-92.812 148.34-92.812z"/>
    <path d="m-29.505 366.79c0 47.281-39.121 85.61-87.378 85.61-48.258 0-87.378-38.329-87.378-85.61s39.121-85.61 87.378-85.61c48.258 0 87.378 38.329 87.378 85.61z"/>
   </g>
  </g>
 </g>
</svg>
