<svg width="1e3" height="291.39" version="1.1" viewBox="0 0 1e3 291.39" xmlns="http://www.w3.org/2000/svg">
 <defs>
  <clipPath id="clipPath198">
   <path d="m0 612h792v-612h-792z"/>
  </clipPath>
  <linearGradient id="linearGradient3368" x1="309.77" x2="309.77" y1="439.36" y2="764.68" gradientUnits="userSpaceOnUse">
   <stop stop-color="#0265d2" offset="0"/>
   <stop stop-color="#0a0584" offset="1"/>
  </linearGradient>
  <linearGradient id="linearGradient3376" x1="869.4" x2="869.4" y1="437.45" y2="767.05" gradientUnits="userSpaceOnUse">
   <stop stop-color="#f70207" offset="0"/>
   <stop stop-color="#8a0004" offset="1"/>
  </linearGradient>
 </defs>
 <g transform="translate(108.43 5.5726)">
  <g transform="matrix(.88061 0 0 .88061 -12.945 -389.31)">
   <path d="m-108.43 435.76h1135.6v330.89h-1135.6z" fill="#fff"/>
   <path d="m689.36 435.76h337.79v330.89h-337.79z" fill="url(#linearGradient3376)"/>
   <g transform="matrix(2.2498 0 0 2.2498 -573.51 -910.47)" fill="#fff">
    <g transform="matrix(1.3333 0 0 -1.3333 186.29 946.76)">
     <g clip-path="url(#clipPath198)" fill="#fff">
      <g transform="translate(355.12 260.76)">
       <path d="m-0.2112 0-69.872-68.633 11.234-19.812h34.517l7.0194 24.587-18.577 8e-3 24.669 24.268z" fill="#fff"/>
      </g>
      <g transform="translate(371.43 196.86)">
       <path d="m-0.10252 0 15.496-6e-3 -6.6027-24.815-15.655 0.026z" fill="#fff"/>
      </g>
      <g transform="translate(328.94 151.03)">
       <path d="m-0.38554 0 30.265 110.22 27.389-0.071-30.353-110.05z" fill="#fff"/>
      </g>
     </g>
    </g>
   </g>
   <path d="m-108.43 435.76h781.65v330.89h-781.65z" fill="url(#linearGradient3368)"/>
   <g transform="matrix(1.2077 0 0 1.2077 -143.82 -240.36)" fill="#fff">
    <path d="m60.441 683.92v105.63h32.389v-76.741h0.29364l60.836 76.741h50.189v-105.63h-32.389v76.741h-0.29363l-60.836-76.741z"/>
    <path d="m214.1 683.92v105.63h117.45v-25.387h-85.057v-16.922h78.785v-21.884h-78.785v-16.925h83.162v-24.509z"/>
    <path d="m335.55 683.92 34.284 105.63h37.202l24.657-69.739h0.29062l24.657 69.739h37.202l34.287-105.63h-31.659l-22.468 77.616h-0.29063l-26.846-77.616h-30.055l-26.843 77.616h-0.29363l-22.465-77.616z"/>
    <path d="m570.3 682.75c-5.7385 0-10.844 0.34238-15.318 1.0232-4.3768 0.58357-8.0737 1.3614-11.089 2.334-2.9179 0.87537-5.4465 2.2358-7.5863 4.0838-2.0425 1.7507-3.6462 3.4535-4.8134 5.107-1.0699 1.5562-1.8988 3.6464-2.4824 6.2725-0.58357 2.6261-0.97098 5.0106-1.1655 7.1504-0.0971 2.0425-0.14523 4.6673-0.14523 7.877 0 4.6686 0.19218 8.4616 0.58123 11.379 0.38906 2.9179 1.266 5.6898 2.6277 8.3159 1.4589 2.6261 3.3059 4.6202 5.5429 5.9819 2.3343 1.3617 5.5927 2.578 9.775 3.6478 4.2796 0.97263 9.1927 1.6544 14.737 2.0434 5.6412 0.29178 12.645 0.43592 21.009 0.43592 21.009 0 33.847 0.48651 38.516 1.4591 4.6686 0.97263 7.0021 3.7446 7.0021 8.3159 0 1.9453-0.39044 3.552-1.1685 4.8164-0.68085 1.2644-1.798 2.1864-3.3542 2.77-1.459 0.48629-2.8704 0.82868-4.2321 1.0232-1.3617 0.19453-3.0614 0.29062-5.104 0.29062h-39.684c-5.2522 0-8.901-0.68172-10.944-2.0434-1.9453-1.459-2.9664-4.8135-3.0636-10.066h-32.389v7.2957c0 11.088 3.0662 18.626 9.1938 22.614 6.1276 3.8905 16.825 5.8335 32.095 5.8335h39.245c11.38 0 20.23-0.3874 26.552-1.1655 6.3221-0.68084 11.575-2.2365 15.757-4.668 4.1823-2.5288 6.9542-5.8383 8.3159-9.9234 1.3617-4.1823 2.0434-9.9694 2.0434-17.361 0-5.2522-0.33934-9.6278-1.0202-13.129-0.58359-3.5987-1.899-6.71-3.9415-9.3361s-4.376-4.6202-7.0021-5.9819c-2.6261-1.459-6.5152-2.5791-11.67-3.3572-5.155-0.87535-10.555-1.4099-16.196-1.6044-5.544-0.19452-12.935-0.29061-22.175-0.29061-17.799 0.0971-28.692-0.29317-32.679-1.1685-3.9878-0.97262-5.9819-3.6965-5.9819-8.1706 0-5.4467 4.0843-8.1676 12.254-8.1676h35.888c7.0029 0 11.382 0.77781 13.132 2.334 1.7507 1.4589 2.6246 4.3269 2.6246 8.6065h32.389v-3.3542c0-4.1823-0.24325-7.636-0.72957-10.359-0.38905-2.8206-1.3621-5.6406-2.9183-8.4612-1.5562-2.9179-3.7905-5.2033-6.7084-6.8568-2.8206-1.6535-6.8088-2.9689-11.964-3.9415-5.0577-1.0699-11.235-1.6045-18.53-1.6045h-45.227z"/>
    <path d="m79.941 606.04c-3.2431 0-5.979 0.28261-8.2086 0.84461-2.2296 0.51516-4.2371 1.4511-6.0208 2.8093-1.7432 1.3113-3.0404 3.1833-3.8917 5.6186-0.85131 2.4353-1.2757 5.4803-1.2757 9.1333v15.176c1e-6 3.6529 0.42441 6.6949 1.2757 9.1302 0.85131 2.4353 2.1485 4.3331 3.8917 5.6913 1.7837 1.3113 3.7912 2.2473 6.0208 2.8093 2.2296 0.51515 4.9655 0.77194 8.2086 0.77194h21.646c3.2431 0 5.979-0.25679 8.2086-0.77194 2.2296-0.562 4.2161-1.498 5.9592-2.8093 1.7837-1.3582 3.102-3.256 3.9533-5.6913 0.85132-2.4353 1.2786-5.4773 1.2786-9.1302v-15.176c0-3.653-0.42732-6.6979-1.2786-9.1333-0.85131-2.4353-2.1696-4.3073-3.9533-5.6186-1.7432-1.3582-3.7296-2.2941-5.9592-2.8093-2.2296-0.562-4.9655-0.84461-8.2086-0.84461zm2.918 13.069h15.81c3.3242 0 5.5544 0.8418 6.6895 2.5278 1.1756 1.6392 1.7626 4.1903 1.7626 7.656v5.4794c0 3.8403-0.52672 6.5115-1.5807 8.0101-1.0135 1.4518-3.0601 2.1766-6.1411 2.1766h-17.271c-3.0809 0-5.1486-0.72478-6.2026-2.1766-1.0135-1.4986-1.5191-4.1698-1.5191-8.0101v-5.4794c0-3.4656 0.56882-6.0168 1.7039-7.656 1.1756-1.686 3.424-2.5278 6.7481-2.5278z"/>
    <path d="m129.09 606.6v50.861h13.499v-19.529h5.9592l19.458 19.529h19.095l-26.635-25.992 23.837-24.869h-18.365l-17.024 18.687h-6.3258v-18.687z"/>
    <path d="m190.52 606.6v50.861h43.844v-13.066h-30.345v-37.795z"/>
    <path d="m261.2 606.6-23.837 50.861h15.08l3.9532-8.994h27.365l4.1938 8.994h15.021l-24.204-50.861zm8.757 11.803 8.757 19.105h-17.271z"/>
    <path d="m307.83 606.6v50.861h13.499v-19.25h28.459v19.25h13.499v-50.861h-13.499v18.124h-28.459v-18.124z"/>
    <path d="m390.75 606.04c-3.2431 0-5.979 0.28261-8.2086 0.84461-2.2296 0.51516-4.2371 1.4511-6.0208 2.8093-1.7432 1.3113-3.0404 3.1833-3.8917 5.6186-0.85132 2.4353-1.2786 5.4803-1.2786 9.1333v15.176c0 3.6529 0.42733 6.6949 1.2786 9.1302 0.85131 2.4353 2.1485 4.3331 3.8917 5.6913 1.7837 1.3113 3.7912 2.2473 6.0208 2.8093 2.2296 0.51515 4.9655 0.77194 8.2086 0.77194h21.646c3.2431 0 5.979-0.25679 8.2086-0.77194 2.2296-0.562 4.216-1.498 5.9592-2.8093 1.7837-1.3582 3.102-3.256 3.9533-5.6913 0.85131-2.4353 1.2757-5.4773 1.2757-9.1302v-15.176c0-3.653-0.42441-6.6979-1.2757-9.1333-0.85132-2.4353-2.1696-4.3073-3.9533-5.6186-1.7432-1.3582-3.7296-2.2941-5.9592-2.8093-2.2296-0.562-4.9655-0.84461-8.2086-0.84461zm2.918 13.069h15.81c3.3242 0 5.5544 0.8418 6.6895 2.5278 1.1756 1.6392 1.7625 4.1903 1.7625 7.656v5.4794c0 3.8403-0.52671 6.5115-1.5807 8.0101-1.0135 1.4518-3.0601 2.1766-6.1411 2.1766h-17.271c-3.0809 0-5.1486-0.72478-6.2026-2.1766-1.0135-1.4986-1.5191-4.1698-1.5191-8.0101v-5.4794c0-3.4656 0.56588-6.0168 1.701-7.656 1.1756-1.686 3.4269-2.5278 6.751-2.5278z"/>
    <path d="m439.9 606.6v50.861h13.136v-36.53h0.12018l17.696 36.53h10.094l17.693-36.53h0.12316v36.53h13.136v-50.861h-20.737l-15.262 32.737-15.265-32.737h-20.734z"/>
    <path d="m540.42 606.6-23.837 50.861h15.08l3.9533-8.994h27.362l4.1967 8.994h15.018l-24.201-50.861zm8.757 11.803 8.7541 19.105h-17.268z"/>
    <path d="m577.2 627.4v-6.4057q2.6265 0 3.4047-0.6181 0.82685-0.5619 0.82685-2.0229v-0.95524h-2.7238v-11.463h10.214v10.17q0 2.641-0.14593 4.3267-0.14592 1.6857-0.68093 3.0343-0.48639 1.4048-1.216 2.079-0.72958 0.73047-2.1888 1.18-1.4105 0.44952-3.1129 0.56192-1.7024 0.16855-4.3775 0.11244z"/>
    <path d="m612.16 606.04c-2.3918 0-4.5197 0.16561-6.3845 0.49344-1.8242 0.281-3.3652 0.6548-4.6219 1.1231-1.2162 0.42149-2.2696 1.0779-3.1614 1.9677-0.8513 0.84297-1.5224 1.662-2.0089 2.4582-0.44594 0.74933-0.78908 1.7567-1.0323 3.0212-0.24321 1.2645-0.40575 2.4117-0.48682 3.442-0.0406 0.98348-0.0615 2.2477-0.0615 3.7932 0 2.248 0.0813 4.0744 0.24342 5.4793 0.16214 1.405 0.52634 2.7406 1.0939 4.0051 0.60807 1.2645 1.3786 2.2233 2.311 2.8789 0.97293 0.65565 2.3333 1.2407 4.0764 1.7558 1.7837 0.46833 3.8304 0.79653 6.1411 0.98388 2.3512 0.14042 5.2707 0.2119 8.757 0.2119 8.7564 0 14.105 0.23398 16.051 0.70232 1.9459 0.46833 2.921 1.8039 2.921 4.0051 0 0.93667-0.16251 1.707-0.48681 2.3158-0.28378 0.60883-0.75027 1.054-1.3989 1.335-0.60809 0.23413-1.195 0.39974-1.7626 0.49345-0.56754 0.0937-1.2778 0.13934-2.1291 0.13934h-16.54c-2.1891 0-3.709-0.32822-4.5604-0.98387-0.81077-0.70248-1.2352-2.3177-1.2757-4.8466h-13.499v3.5116c0 5.3389 1.2762 8.9689 3.8301 10.889 2.554 1.8733 7.0114 2.8093 13.376 2.8093h16.359c4.743 0 8.433-0.18537 11.068-0.56004 2.635-0.32783 4.8231-1.0784 6.5663-2.2493 1.7432-1.2176 2.8989-2.81 3.4664-4.777 0.56755-2.0138 0.8505-4.799 0.8505-8.3583 0-2.529-0.14143-4.638-0.42525-6.3239-0.24324-1.7328-0.79099-3.231-1.6423-4.4955s-1.8235-2.2233-2.918-2.879c-1.0945-0.70247-2.7168-1.2419-4.8653-1.6166-2.1486-0.42143-4.3969-0.67823-6.7481-0.77194-2.3107-0.0937-5.3927-0.14228-9.2438-0.14228-7.4186 0.0468-11.96-0.13858-13.622-0.56005-1.6621-0.46832-2.4928-1.7811-2.4928-3.9354 0-2.6226 1.7035-3.9324 5.1088-3.9324h14.96c2.9188 0 4.7427 0.37379 5.4724 1.1231 0.7297 0.70248 1.0939 2.0837 1.0939 4.1443h13.499v-1.6166c0-2.0138-0.10225-3.6746-0.30499-4.9859-0.16218-1.3582-0.56554-2.7166-1.2142-4.0747-0.64861-1.405-1.5816-2.5066-2.7978-3.3028-1.1756-0.79616-2.837-1.4267-4.9856-1.8951-2.108-0.51515-4.6843-0.77498-7.7247-0.77498h-18.848z"/>
   </g>
  </g>
 </g>
</svg>
