<svg width="800" height="164.45" data-name="Layer 1" version="1.1" viewBox="0 0 800 164.45" xmlns="http://www.w3.org/2000/svg">
 <g transform="translate(-30.54 -566.61)" fill="#fff">
  <path class="cls-2" d="m544.35 570.08v90.657q0 18.935-8.607 28.61-8.607 9.6742-25.455 9.6742-16.719 0-25.137-9.6226-8.4176-9.6226-8.4133-28.661v-90.657h-32.706v55.945a76.834 76.834 0 0 0-21.087-35.758 84.236 84.236 0 0 0-26.871-17.459 82.059 82.059 0 0 0-31.291-6.2013 84.538 84.538 0 0 0-58.372 23.669 76.692 76.692 0 0 0-21.616 37.242v-57.439h-32.939v61.733h-66.786v-61.733h-32.917v153.97h32.917v-64.367h66.786v64.367h32.917v-57.081a77.587 77.587 0 0 0 5.3707 14.998q7.7463 16.095 22.245 27.658a85.329 85.329 0 0 0 24.754 13.741 82.283 82.283 0 0 0 58.738-1.3126 85.17 85.17 0 0 0 27.03-17.567 76.525 76.525 0 0 0 17.722-25.873 79.046 79.046 0 0 0 3.4428-10.234c0.43035 19.62 5.8742 34.428 16.431 44.326q16.512 15.462 50.273 15.462 33.231 0 49.744-15.462t16.512-46.8v-95.83zm-145.03 114.04q-13.621 14.675-34.553 14.671-21.345 0-34.914-14.567t-13.569-36.859q0-21.986 13.771-36.868t34.708-14.877q20.618 0 34.393 14.933t13.771 36.812q4e-3 22.103-13.616 36.756z" stroke-width=".43035"/>
  <polygon class="cls-2" transform="matrix(.43035 0 0 .43035 17.397 416.45)" points="1728.8 714.78 1656.7 714.78 1656.7 420.54 1608.1 420.54 1615.1 360.42 1728.8 360.42"/>
  <polygon class="cls-2" transform="matrix(.43035 0 0 .43035 17.397 416.45)" points="1569.7 714.78 1497.6 714.78 1497.6 420.54 1449 420.54 1456.1 360.42 1569.7 360.42"/>
  <path class="cls-2" d="m830.52 703.39c0 15.264-11.934 27.667-27.185 27.667s-27.237-12.403-27.237-27.667c0-15.131 12.05-27.542 27.254-27.542s27.185 12.407 27.185 27.542m-52.502 0c3.8473 8.0948 12.872 15.992 25.339 15.992 12.403 0 21.483-7.8969 25.326-15.992-3.843-7.9658-12.91-15.863-25.326-15.863-12.48 0-21.492 7.8969-25.339 15.863m39.928 0a14.632 14.632 0 1 1-14.589-14.597 14.563 14.563 0 0 1 14.589 14.597" stroke-width=".43035"/>
 </g>
 <g transform="translate(-30.54 -566.61)" fill="#bf1b3e">
  <polygon class="cls-1" transform="matrix(.43035 0 0 .43035 17.397 416.45)" points="30.54 357 30.54 714.78 107.03 714.78 107.03 527.58 227.27 714.78 319.41 714.78 186.71 520 314.77 357 226.29 357 107.03 519.03 107.03 357"/>
  <polygon class="cls-1" transform="matrix(.43035 0 0 .43035 17.397 416.45)" points="1470.9 524.75 1427.1 556.56 1443.8 608.04 1400 576.22 1356.2 608.04 1373 556.56 1329.2 524.75 1383.3 524.75 1400 473.28 1416.8 524.75"/>
 </g>
</svg>
