<svg width="800" height="251.77" version="1.1" viewBox="0 0 800 251.77" xml:space="preserve" xmlns="http://www.w3.org/2000/svg"><g transform="matrix(1.3333 0 0 -1.3333 -134.93 1328.5)"><g transform="matrix(4.1107 0 0 4.1107 -314.79 -2512.1)"><g transform="translate(121.32 838.63)"><path d="m0 0v-0.074c-5e-3 -0.36 0.136-0.706 0.39-0.96 0.246-0.251 0.586-0.393 0.94-0.393h0.015c0.49 7e-3 0.987 0.01 1.475 0.01 0.492 0 0.987-3e-3 1.477-0.01h0.035c0.044-0.163 0.066-0.335 0.065-0.509v-0.125c-0.317-0.023-0.617-0.157-0.844-0.384-0.252-0.254-0.394-0.598-0.393-0.953 8e-3 -1.028 0.014-2.028 0.02-2.972 0-0.516 0.294-0.963 0.725-1.183-0.35-0.407-0.866-0.669-1.445-0.68 0 0.555 2e-3 1.109 3e-3 1.661 0 0.355-0.14 0.694-0.391 0.943-0.25 0.251-0.587 0.392-0.94 0.392h-4e-3c-0.994-4e-3 -2.015-8e-3 -3.033-0.016-0.73-5e-3 -1.316-0.596-1.323-1.325-1e-3 -0.415-4e-3 -0.834-4e-3 -1.254l-0.161 0.145c-0.231 0.231-0.394 0.509-0.487 0.817 0.046 0.133 0.076 0.277 0.077 0.427 0.019 0.943 0.045 1.904 0.081 2.854 5e-3 0.1-4e-3 0.199-0.021 0.292 0.586 0.021 1.169 0.038 1.755 0.054 0.028 0.955 0.056 1.911 0.095 2.871-0.41-0.021-0.819-0.04-1.228-0.062 0.316 0.241 0.709 0.387 1.134 0.394 0.663 0.014 1.327 0.028 1.987 0.04" fill="#e40d75"/></g><g transform="translate(112.57 814.4)"><path d="m0 0c0.644-0.192 1.294-0.371 1.942-0.537 0.11-0.028 0.219-0.04 0.327-0.04 0.217 0 0.432 0.052 0.621 0.151 0.148-0.047 0.298-0.1 0.458-0.151 0.419-0.139 0.742-0.473 0.865-0.896 0.237-0.823 0.44-1.488 0.643-2.097 0.165-0.491 0.03-1.032-0.347-1.388-0.251-0.238-0.581-0.363-0.916-0.363-0.164 0-0.33 0.031-0.489 0.094-0.701 0.277-1.4 0.594-2.075 0.943-0.266 0.138-0.479 0.365-0.604 0.639-0.304 0.679-0.596 1.391-0.869 2.112-0.187 0.495-0.064 1.054 0.318 1.424z" fill="#f04425"/></g><g transform="translate(124.21 812.57)"><path d="m0 0c-0.015-0.367-0.026-0.735-0.039-1.094-0.016-0.373 0.128-0.735 0.396-0.998 0.25-0.246 0.584-0.382 0.932-0.382l0.073 1e-3c0.364 0.021 0.729 0.045 1.093 0.075-0.016-0.44-0.033-0.878-0.05-1.303-0.029-0.686-0.575-1.241-1.261-1.274-0.401-0.02-0.806-0.031-1.206-0.031-0.401 0-0.806 0.011-1.205 0.031-0.686 0.033-1.234 0.588-1.261 1.274-0.017 0.432-0.036 0.868-0.052 1.303 0.364-0.03 0.73-0.054 1.094-0.075l0.073-1e-3c0.348 0 0.683 0.136 0.933 0.382 0.267 0.263 0.41 0.625 0.396 0.998-0.013 0.359-0.027 0.727-0.039 1.094h0.061z" fill="#f0aa12"/></g><g transform="translate(129.24 811.58)"><path d="m0 0c0.071-0.172 0.175-0.325 0.311-0.455 0.16-0.155 0.354-0.265 0.56-0.322-0.079-0.383-0.159-0.763-0.244-1.14-0.707-0.197-1.423-0.353-2.145-0.473 0.048 0.369 0.095 0.734 0.141 1.101l0.202 0.024c0.616 0.074 1.102 0.563 1.167 1.181z" fill="#e2e618"/></g><g transform="translate(120.13 815.41)"><path d="m0 0 0.127-5e-3c0.827-0.08 1.667-0.14 2.504-0.175 0.695-0.029 1.248-0.591 1.271-1.286 0.015-0.462 0.029-0.92 0.047-1.373-0.373 2e-3 -0.749 7e-3 -1.12 0.019l-0.046 2e-3c-0.352 0-0.693-0.142-0.944-0.391-0.258-0.263-0.399-0.62-0.384-0.99 0.012-0.344 0.024-0.691 0.037-1.038-0.469 0.04-0.94 0.085-1.404 0.141-0.616 0.073-1.099 0.562-1.165 1.18-0.086 0.799-0.17 1.627-0.247 2.46-0.038 0.396 0.104 0.786 0.386 1.067 0.251 0.251 0.588 0.389 0.938 0.389" fill="#f25e24"/></g><g transform="translate(122.92 812.59)"><path d="m0 0 0.046-2e-3c0.371-0.011 0.747-0.017 1.121-0.019 0.012-0.367 0.025-0.735 0.039-1.094 0.013-0.373-0.129-0.735-0.396-0.998-0.25-0.247-0.585-0.382-0.933-0.382l-0.073 1e-3c-0.364 0.021-0.731 0.045-1.094 0.075-0.014 0.347-0.025 0.694-0.038 1.038-0.014 0.37 0.126 0.727 0.385 0.99 0.251 0.249 0.591 0.391 0.943 0.391" fill="#e9431f"/></g><g transform="translate(128.27 815.4)"><path d="m0 0c0.311-0.027 0.604-0.159 0.828-0.385 0.241-0.242 0.38-0.566 0.391-0.903-0.105-0.604-0.212-1.202-0.321-1.785-0.042-0.222-0.027-0.444 0.039-0.65-0.398-0.068-0.796-0.133-1.197-0.191-0.048-0.401-0.096-0.801-0.144-1.201-0.398-0.044-0.798-0.083-1.202-0.118 0.014 0.344 0.025 0.69 0.039 1.039 0.014 0.369-0.127 0.727-0.387 0.99-0.25 0.248-0.59 0.391-0.942 0.391l-0.043-2e-3c-0.374-0.012-0.749-0.018-1.121-0.019 0.016 0.453 0.031 0.911 0.045 1.373 0.021 0.695 0.577 1.256 1.273 1.286l0.099 5e-3c-0.012-0.387-0.024-0.774-0.036-1.164 0.863 0.037 1.721 0.094 2.58 0.178 0.036 0.384 0.068 0.767 0.099 1.156" fill="#f0aa12"/></g><g transform="translate(125.37 812.59)"><path d="m0 0c0.352 0 0.692-0.142 0.942-0.391 0.26-0.263 0.401-0.62 0.387-0.99-0.014-0.349-0.025-0.695-0.039-1.038-0.363-0.03-0.728-0.054-1.093-0.075l-0.072-1e-3c-0.348 0-0.683 0.135-0.933 0.382-0.267 0.263-0.411 0.625-0.396 0.998 0.014 0.359 0.025 0.727 0.04 1.094 0.372 2e-3 0.747 8e-3 1.121 0.019z" fill="#ec6d19"/></g><g transform="translate(129.2 811.68)"><path d="m0 0 0.036-0.104-7e-3 -0.084c-0.066-0.618-0.551-1.107-1.168-1.18l-0.202-0.024c0.048 0.4 0.097 0.8 0.145 1.201 0.4 0.058 0.799 0.122 1.196 0.191" fill="#e19817"/></g><g transform="translate(132.29 816.1)"><path d="m0 0c-0.048-0.219-0.095-0.437-0.144-0.654-0.104-0.452 0.038-0.925 0.37-1.245 0.252-0.248 0.586-0.378 0.928-0.378 0.11 0 0.219 0.012 0.326 0.04 0.224 0.056 0.445 0.114 0.668 0.175-0.139-0.576-0.286-1.148-0.436-1.709-0.122-0.446-0.464-0.798-0.904-0.931-0.763-0.227-1.546-0.435-2.329-0.615-0.099-0.023-0.198-0.034-0.298-0.034-0.124 0-0.244 0.017-0.364 0.049 0.075 0.368 0.148 0.733 0.221 1.1-0.359-0.076-0.719-0.146-1.078-0.209 0.077 0.732 0.154 1.492 0.225 2.262l8e-3 0.163c0.029 0.185 0.061 0.373 0.091 0.559 0.091 0.554 0.519 0.992 1.073 1.094 0.549 0.101 1.099 0.212 1.643 0.333" fill="#d7e31b"/></g><g transform="translate(130.33 811.9)"><path d="m0 0c-0.072-0.367-0.145-0.733-0.22-1.1-0.206 0.058-0.4 0.167-0.561 0.322-0.135 0.13-0.239 0.283-0.31 0.455l0.013 0.114c0.36 0.063 0.719 0.133 1.078 0.209" fill="#c2c716"/></g><g transform="translate(129.49 814.12)"><path d="m0 0-8e-3 -0.163c-0.071-0.771-0.148-1.53-0.225-2.263l-0.05-9e-3c-0.065 0.205-0.081 0.427-0.038 0.65 0.108 0.582 0.216 1.18 0.321 1.785" fill="#d79b16"/></g><g transform="translate(129.25 811.69)"><path d="m0 0-0.013-0.113-0.037 0.103z" fill="#be861c"/></g><g transform="translate(107.13 820.92)"><path d="m0 0c0.112 0 0.225-0.015 0.337-0.044 0.2-0.785 0.423-1.568 0.659-2.33 0.133-0.424 0.464-0.755 0.889-0.882 0.573-0.173 1.158-0.338 1.748-0.492 0.119-0.453 0.246-0.908 0.376-1.356l-0.08-0.086c-0.256-0.254-0.595-0.389-0.939-0.389-0.173 0-0.344 0.034-0.507 0.1-0.835 0.344-1.517 0.647-2.146 0.958-0.26 0.125-0.47 0.333-0.601 0.587-0.349 0.681-0.673 1.383-0.969 2.094-0.202 0.489-0.094 1.054 0.274 1.433 0.072 0.073 0.147 0.137 0.23 0.191 0.172 0.031 0.336 0.097 0.485 0.193 0.08 0.015 0.161 0.023 0.244 0.023" fill="#e61c4c"/></g><g transform="translate(112.88 819.24)"><path d="m0 0c0.567-0.131 1.144-0.254 1.719-0.37 0.533-0.105 0.945-0.521 1.048-1.056 0.152-0.796 0.318-1.594 0.494-2.368 0.098-0.452-0.04-0.925-0.372-1.245-0.091-0.092-0.195-0.167-0.308-0.227-0.592 0.205-1.104 0.395-1.58 0.592-0.167 0.068-0.339 0.099-0.509 0.099-0.286 0-0.567-0.089-0.802-0.265-0.144 0.044-0.291 0.088-0.436 0.135-0.421 0.129-0.753 0.463-0.881 0.888-0.036 0.131-0.077 0.262-0.115 0.394 0.277 0.329 0.377 0.773 0.269 1.185h2e-3c0.107-0.027 0.217-0.038 0.326-0.038 0.347 0 0.684 0.133 0.936 0.384 0.332 0.326 0.469 0.807 0.358 1.259-0.049 0.21-0.101 0.421-0.149 0.633" fill="#e61e42"/></g><g transform="translate(113.37 814.67)"><path d="m0 0c0.17 0 0.342-0.031 0.508-0.099 0.476-0.197 0.988-0.387 1.58-0.593-0.189-0.098-0.404-0.15-0.621-0.15-0.108 0-0.217 0.011-0.327 0.039-0.648 0.166-1.298 0.345-1.942 0.538 0.235 0.176 0.515 0.265 0.802 0.265" fill="#da2227"/></g><g transform="translate(110.76 817.17)"><path d="m0 0c0.214-0.058 0.432-0.112 0.646-0.171 0.108-0.412 8e-3 -0.856-0.269-1.185-0.131 0.448-0.258 0.903-0.377 1.356" fill="#d81d29"/></g><g transform="translate(128.15 815.41)"><path d="m0 0 0.114-5e-3c-0.031-0.388-0.064-0.772-0.099-1.155-0.859-0.085-1.718-0.142-2.58-0.179 0.011 0.39 0.024 0.777 0.035 1.164 0.801 0.037 1.611 0.092 2.404 0.17z" fill="#ee551e"/></g><g transform="translate(136.69 819.4)"><path d="m0 0c0.243-0.057 0.469-0.181 0.647-0.361 0.33-0.331 0.461-0.814 0.346-1.266-0.203-0.789-0.422-1.582-0.651-2.354-0.128-0.424-0.459-0.758-0.882-0.887-0.563-0.178-1.137-0.343-1.712-0.498 0.052 0.209 0.1 0.416 0.15 0.624 0.105 0.449-0.031 0.923-0.357 1.249-0.251 0.25-0.591 0.388-0.939 0.388-0.104 0-0.208-0.014-0.309-0.039-0.231-0.054-0.462-0.108-0.693-0.16 0.121 0.568 0.239 1.143 0.348 1.715 0.101 0.534 0.515 0.951 1.047 1.056 0.169 0.035 0.336 0.07 0.505 0.104-0.067-0.413-0.14-0.828-0.213-1.242 0.821 0.162 1.641 0.339 2.455 0.534 0.091 0.378 0.177 0.756 0.258 1.137" fill="#bedf1a"/></g><g transform="translate(133.3 816.3)"><path d="m0 0c0.348 0 0.687-0.137 0.939-0.387 0.326-0.327 0.462-0.801 0.357-1.25-0.05-0.207-0.098-0.415-0.15-0.624-0.223-0.06-0.444-0.118-0.668-0.175-0.107-0.027-0.216-0.039-0.326-0.039-0.342 0-0.676 0.13-0.928 0.378-0.332 0.32-0.474 0.793-0.37 1.245 0.049 0.217 0.096 0.435 0.144 0.654 0.231 0.052 0.462 0.105 0.692 0.16 0.102 0.025 0.206 0.038 0.31 0.038" fill="#a3c01f"/></g><g transform="translate(108.75 822.55)"><path d="m0 0c0.098 0 0.196-0.01 0.292-0.033 0.787-0.179 1.596-0.345 2.41-0.504 0.533-0.101 0.951-0.515 1.056-1.046 0.114-0.575 0.238-1.152 0.369-1.723-0.225 0.053-0.452 0.106-0.673 0.16-0.104 0.025-0.21 0.036-0.316 0.036-0.35 0-0.692-0.138-0.946-0.394-0.075-0.078-0.14-0.161-0.196-0.252-0.05 0.147-0.102 0.302-0.156 0.46-0.133 0.4-0.452 0.715-0.854 0.842-0.723 0.233-1.445 0.486-2.148 0.744l-0.126 0.041-2e-3 9e-3c-0.115 0.448 0.013 0.924 0.337 1.256 0.253 0.26 0.597 0.404 0.953 0.404" fill="#e6145c"/></g><g transform="translate(107.47 820.88)"><path d="m0 0 0.127-0.04c0.703-0.259 1.425-0.512 2.148-0.745 0.402-0.126 0.72-0.442 0.854-0.842 0.053-0.157 0.106-0.312 0.156-0.459-0.179-0.3-0.237-0.666-0.147-1.014 0.05-0.2 0.104-0.402 0.158-0.604-0.589 0.154-1.175 0.32-1.748 0.493-0.425 0.127-0.756 0.458-0.888 0.881-0.237 0.763-0.46 1.545-0.66 2.33" fill="#d81f29"/></g><g transform="translate(111.89 819.44)"><path d="m0 0c0.106 0 0.212-0.011 0.315-0.036 0.221-0.054 0.448-0.107 0.673-0.16 0.048-0.212 0.101-0.423 0.149-0.633 0.111-0.452-0.025-0.932-0.357-1.259-0.252-0.25-0.59-0.384-0.937-0.384-0.108 0-0.218 0.011-0.326 0.038h-2e-3l-0.055 0.171c-0.197 0.486-0.392 1.01-0.602 1.617 0.056 0.09 0.121 0.174 0.196 0.252 0.254 0.256 0.596 0.394 0.946 0.394" fill="#d81d29"/></g><g transform="translate(110.75 818.79)"><path d="m0 0c0.211-0.607 0.405-1.131 0.602-1.617l0.056-0.171c-0.215 0.059-0.433 0.113-0.646 0.171-0.054 0.202-0.108 0.403-0.158 0.603-0.09 0.349-0.033 0.714 0.146 1.014" fill="#c32127"/></g><g transform="translate(136.96 820.68)"><path d="m0 0c-0.085-0.427-0.173-0.852-0.267-1.277-0.096 0.021-0.198 0.032-0.297 0.032-0.107 0-0.211-0.011-0.314-0.036-0.62-0.15-1.255-0.293-1.889-0.425 0.069 0.427 0.135 0.857 0.198 1.285 0.859 0.124 1.715 0.263 2.569 0.421" fill="#e0e319"/></g><g transform="translate(136.4 819.44)"><path d="m0 0c0.099 0 0.201-0.011 0.297-0.033-0.081-0.38-0.167-0.759-0.258-1.137-0.814-0.194-1.634-0.372-2.455-0.534 0.073 0.414 0.146 0.829 0.213 1.243 0.635 0.131 1.269 0.274 1.89 0.425 0.103 0.025 0.206 0.036 0.313 0.036" fill="#afc51b"/></g><g transform="translate(141.98 823.17)"><path d="m0 0c0.355 0 0.703-0.142 0.959-0.406 0.338-0.352 0.455-0.859 0.309-1.324-0.234-0.746-0.501-1.49-0.794-2.212-0.14-0.345-0.423-0.617-0.775-0.746-0.74-0.273-1.504-0.531-2.269-0.773-0.132-0.043-0.268-0.062-0.402-0.062-0.348 0-0.688 0.135-0.941 0.39-0.352 0.349-0.476 0.867-0.332 1.339 0.229 0.719 0.44 1.46 0.631 2.2 0.124 0.48 0.5 0.85 0.982 0.964 0.775 0.186 1.542 0.38 2.28 0.582 0.115 0.035 0.236 0.048 0.352 0.048" fill="#6bc630"/></g><g transform="translate(103.29 826.03)"><path d="m0 0c0.098 0 0.197-0.011 0.294-0.034 0.141-0.03 0.284-0.063 0.428-0.094 0.096-0.611 0.21-1.227 0.333-1.825 0.109-0.532 0.531-0.942 1.062-1.04 0.63-0.117 1.278-0.231 1.933-0.337 0.028-0.098 0.059-0.195 0.087-0.288 0.146-0.469 0.023-0.973-0.317-1.325-0.067-0.071-0.145-0.133-0.225-0.187-0.172-0.031-0.336-0.096-0.484-0.192-0.081-0.014-0.163-0.025-0.245-0.025-0.12 0-0.242 0.018-0.361 0.051-0.873 0.246-1.587 0.461-2.245 0.678-0.376 0.123-0.68 0.409-0.824 0.781-0.274 0.698-0.514 1.421-0.718 2.148-0.127 0.449-6e-3 0.935 0.318 1.275 0.252 0.266 0.603 0.414 0.964 0.414" fill="#e40e74"/></g><g transform="translate(106.88 820.9)"><path d="m0 0c-0.149-0.096-0.312-0.161-0.485-0.192 0.148 0.096 0.313 0.16 0.485 0.192" fill="#d81d29"/></g><g transform="translate(113.69 823.05)"><path d="m0 0c0.919-0.088 1.841-0.163 2.761-0.231 0.067-0.908 0.143-1.813 0.227-2.72-0.891 0.094-1.784 0.196-2.675 0.321-0.12 0.873-0.227 1.751-0.313 2.63" fill="#e61759"/></g><g transform="translate(119.58 823.97)"><path d="m0 0h0.051c0.955-0.035 1.932-0.063 2.899-0.08l0.071-3e-3c-0.334-0.013-0.652-0.152-0.888-0.389-0.245-0.243-0.383-0.571-0.39-0.913-0.581 0.014-1.162 0.031-1.743 0.056 0.038-0.928 0.083-1.856 0.133-2.784 0.55-0.027 1.102-0.054 1.652-0.075l1e-3 -0.062c0.012-0.692 0.552-1.254 1.233-1.304h-0.073c-0.959 0.022-1.931 0.06-2.885 0.112-0.679 0.038-1.219 0.583-1.257 1.258-0.052 0.936-0.096 1.873-0.135 2.799-0.015 0.374 0.125 0.733 0.389 0.997 0.249 0.249 0.588 0.388 0.942 0.388" fill="#e61e3e"/></g><g transform="translate(119.58 822.64)"><path d="m0 0c0.581-0.025 1.162-0.042 1.743-0.056v-0.044c0.013-0.929 0.026-1.856 0.042-2.759-0.55 0.021-1.102 0.048-1.652 0.075-0.05 0.928-0.095 1.857-0.133 2.784" fill="#d81f29"/></g><g transform="translate(122.65 823.89)"><path d="m0 0h0.015c0.491-2e-3 0.987-8e-3 1.475-8e-3 0.493 0 0.987 6e-3 1.477 8e-3h0.014c0.353 0 0.692-0.138 0.943-0.389 0.251-0.253 0.393-0.599 0.387-0.957-0.013-0.95-0.025-1.9-0.044-2.821-0.01-0.719-0.592-1.298-1.308-1.308-0.489-7e-3 -0.984-0.011-1.471-0.011-0.486 0-0.98 4e-3 -1.465 0.011l-0.077 4e-3c0.335 0.011 0.656 0.148 0.896 0.385 0.256 0.257 0.399 0.607 0.393 0.971-0.019 0.929-0.035 1.875-0.048 2.807-0.01 0.696-0.552 1.262-1.239 1.308z" fill="#e82830"/></g><g transform="translate(122.6 823.89)"><path d="m0 0c0.687-0.046 1.229-0.612 1.238-1.308 0.014-0.932 0.03-1.878 0.049-2.807 6e-3 -0.364-0.137-0.714-0.393-0.971-0.24-0.237-0.561-0.374-0.896-0.385-0.681 0.05-1.221 0.612-1.233 1.304l-1e-3 0.061c0.396-0.014 0.794-0.025 1.192-0.033-0.018 0.935-0.032 1.874-0.047 2.811-0.397 8e-3 -0.792 0.015-1.187 0.026 7e-3 0.341 0.145 0.669 0.39 0.913 0.236 0.237 0.554 0.376 0.888 0.389" fill="#d81f29"/></g><g transform="translate(121.32 822.59)"><path d="m0 0c0.395-0.011 0.789-0.018 1.187-0.026 0.015-0.938 0.028-1.876 0.047-2.811-0.398 8e-3 -0.796 0.019-1.193 0.033-0.015 0.904-0.029 1.831-0.041 2.76z" fill="#c52028"/></g><g transform="translate(137.39 823.49)"><path d="m0 0c-0.119-0.842-0.252-1.679-0.406-2.515-0.855-0.156-1.711-0.293-2.573-0.414 0.123 0.873 0.228 1.75 0.319 2.627 0.887 0.09 1.774 0.189 2.66 0.302" fill="#f2db18"/></g><g transform="translate(105.25 827.97)"><path d="m0 0 0.148-0.01c0.8-0.088 1.628-0.173 2.463-0.253 0.624-0.062 1.122-0.551 1.194-1.175 0.091-0.8 0.203-1.604 0.332-2.39 0.071-0.422-0.068-0.851-0.37-1.156-0.251-0.252-0.592-0.392-0.942-0.392l-0.211 0.017c-0.174 0.026-0.347 0.055-0.521 0.084-0.161 0.54-0.314 1.128-0.476 1.818-0.121 0.51-0.525 0.902-1.037 1.003-0.615 0.122-1.224 0.25-1.814 0.381-0.029 0.185-0.057 0.368-0.083 0.554-0.058 0.407 0.077 0.817 0.361 1.113 0.252 0.261 0.598 0.406 0.956 0.406" fill="#e50a85"/></g><g transform="translate(104.01 825.9)"><path d="m0 0c0.59-0.131 1.2-0.258 1.814-0.381 0.513-0.101 0.917-0.493 1.038-1.004 0.161-0.689 0.314-1.276 0.476-1.817-0.655 0.106-1.303 0.22-1.933 0.337-0.532 0.098-0.953 0.508-1.062 1.04-0.123 0.598-0.237 1.213-0.333 1.825" fill="#d5183f"/></g><g transform="translate(133.68 825.89)"><path d="m0 0c0.05-0.258 0.177-0.496 0.365-0.685 0.198-0.196 0.447-0.324 0.714-0.37-0.04-0.534-0.085-1.068-0.137-1.601-0.921-0.087-1.844-0.162-2.766-0.229 0.036 0.556 0.07 1.11 0.101 1.665 0.654 0.037 1.183 0.549 1.245 1.197 0.161 8e-3 0.32 0.016 0.478 0.023" fill="#f1841c"/></g><g transform="translate(116.33 830.21)"><path d="m0 0h0.019c0.587-6e-3 1.168-0.015 1.741-0.019 1e-3 -0.388 2e-3 -0.769 3e-3 -1.152 7e-3 -0.729 0.594-1.319 1.323-1.323 0.402-2e-3 0.806-6e-3 1.21-8e-3 9e-3 -0.594 0.019-1.187 0.035-1.777 8e-3 -0.363-0.134-0.715-0.392-0.973-0.251-0.248-0.587-0.388-0.941-0.388l-0.033 2e-3c-0.991 0.025-1.979 0.055-2.936 0.092-0.696 0.026-1.253 0.585-1.281 1.281-0.034 0.957-0.061 1.938-0.077 2.913-7e-3 0.36 0.133 0.706 0.387 0.964 0.25 0.25 0.589 0.388 0.942 0.388" fill="#e3116c"/></g><g transform="translate(128.85 830.18)"><path d="m0 0h0.012l0.059-2e-3c-0.688-0.044-1.234-0.615-1.244-1.314-0.011-0.994-0.027-1.976-0.047-2.93-9e-3 -0.363 0.132-0.715 0.39-0.973 0.24-0.239 0.561-0.377 0.899-0.387l-0.075-3e-3c-1.011-0.023-2.023-0.04-3.013-0.049h-0.013c-0.352 0-0.689 0.138-0.939 0.389-0.252 0.253-0.394 0.596-0.392 0.954 8e-3 1.026 0.013 2.024 0.019 2.97 2e-3 0.732 0.593 1.325 1.325 1.328 1.029 3e-3 2.042 8e-3 3.019 0.017" fill="#e72531"/></g><g transform="translate(130.78 830.2)"><path d="m0 0c-2e-3 -0.369-6e-3 -0.737-0.01-1.102-3e-3 -0.358 0.139-0.704 0.393-0.958 0.25-0.249 0.588-0.388 0.94-0.388h0.018c0.382 6e-3 0.764 0.012 1.143 0.017-0.011-0.607-0.031-1.215-0.054-1.819l-8e-3 -0.083c-0.396-0.019-0.793-0.038-1.191-0.055-0.018-0.381-0.035-0.76-0.054-1.142l-0.027-1e-3c-0.943-0.036-1.931-0.067-2.936-0.092l-0.035-2e-3 -0.041 2e-3c0.677 0.052 1.212 0.61 1.227 1.297 0.022 1.002 0.04 1.999 0.047 2.963 1e-3 0.357-0.137 0.701-0.389 0.953-0.236 0.237-0.551 0.375-0.883 0.391l0.075 2e-3c0.595 5e-3 1.192 0.013 1.785 0.017" fill="#ec4322"/></g><g transform="translate(133.2 825.86)"><path d="m0 0c-0.062-0.648-0.591-1.16-1.245-1.197 0.019 0.382 0.036 0.76 0.054 1.142 0.398 0.016 0.795 0.036 1.191 0.055" fill="#e52d26"/></g><g transform="translate(128.92 830.18)"><path d="m0 0c0.332-0.015 0.646-0.154 0.883-0.39 0.252-0.252 0.39-0.596 0.388-0.953-7e-3 -0.965-0.025-1.962-0.046-2.964-0.015-0.687-0.55-1.245-1.227-1.297-0.338 0.01-0.659 0.147-0.899 0.387-0.259 0.257-0.399 0.61-0.39 0.973 0.02 0.954 0.036 1.936 0.047 2.93 9e-3 0.699 0.556 1.27 1.244 1.314" fill="#d72128"/></g><g transform="translate(136.67 830.3)"><path d="m0 0c-2e-3 -0.363-6e-3 -0.727-0.013-1.089-7e-3 -0.36 0.134-0.711 0.391-0.969 0.249-0.25 0.587-0.388 0.939-0.388h0.033c0.386 0.01 0.759 0.017 1.119 0.025-0.029-0.592-0.063-1.144-0.106-1.666-0.05-0.656-0.573-1.176-1.231-1.223-0.899-0.062-1.824-0.123-2.743-0.175l-0.078-2e-3c-0.076 0-0.151 6e-3 -0.226 0.019 0.028 0.372 0.055 0.744 0.078 1.116-0.386-0.021-0.771-0.041-1.157-0.061-0.023 0.107-0.029 0.22-0.023 0.33 0.027 0.512 0.052 1.033 0.073 1.556 0.422 6e-3 0.842 0.014 1.256 0.018 0.718 0.013 1.298 0.594 1.309 1.311 6e-3 0.396 9e-3 0.792 9e-3 1.19 0.125 4e-3 0.249 8e-3 0.37 8e-3" fill="#f0aa12"/></g><g transform="translate(134.84 825.95)"><path d="m0 0c-0.022-0.372-0.05-0.744-0.078-1.116-0.267 0.046-0.516 0.174-0.713 0.37-0.189 0.189-0.316 0.427-0.366 0.685 0.387 0.02 0.771 0.04 1.157 0.061" fill="#ee551e"/></g><g transform="translate(147.4 831.33)"><path d="m0 0c0.34-0.011 0.67-0.151 0.912-0.396 0.263-0.268 0.403-0.636 0.38-1.013-0.045-0.775-0.128-1.555-0.25-2.321-0.093-0.583-0.561-1.032-1.145-1.108-0.758-0.096-1.554-0.192-2.365-0.284l-0.151-8e-3c-0.352 0-0.692 0.141-0.944 0.394-0.286 0.289-0.426 0.691-0.376 1.097 0.09 0.753 0.159 1.522 0.201 2.279 0.036 0.684 0.589 1.228 1.274 1.255l0.079 4e-3c0-0.389-5e-3 -0.781-0.018-1.17 0.792 0.027 1.583 0.057 2.374 0.089 0.022 0.394 0.029 0.787 0.029 1.182" fill="#70c82d"/></g><g transform="translate(110.3 833.24)"><path d="m0 0c0.352 0 0.692-0.14 0.941-0.388 0.257-0.257 0.397-0.608 0.39-0.971-0.018-0.885-0.018-1.783 0-2.67 7e-3 -0.36-0.133-0.713-0.39-0.969-0.249-0.25-0.589-0.388-0.941-0.388h-0.031c-0.978 0.021-1.844 0.044-2.649 0.067-0.703 0.019-1.271 0.585-1.293 1.288-0.028 0.889-0.028 1.787 0 2.675 0.022 0.703 0.59 1.267 1.293 1.287 0.824 0.026 1.692 0.046 2.649 0.067z" fill="#a41487"/></g><g transform="translate(118.09 830.8)"><path d="m0 0c0.344-0.275 0.774-0.429 1.219-0.429h0.015c1.429 0.012 2.917 0.023 4.426 0.025l0.031 2e-3c3e-3 -0.454 3e-3 -0.91 4e-3 -1.36 0-0.355-0.141-0.694-0.391-0.944s-0.588-0.39-0.941-0.39h-4e-3c-0.603 2e-3 -1.215 4e-3 -1.823 8e-3 -5e-3 0.383-0.011 0.769-0.015 1.15-6e-3 0.727-0.592 1.313-1.318 1.319-0.395 2e-3 -0.796 7e-3 -1.203 0.013z" fill="#e51169"/></g><g transform="translate(122.45 833.39)"><path d="m0 0h4e-3c0.353 0 0.69-0.14 0.94-0.391 0.251-0.249 0.391-0.589 0.391-0.943-1e-3 -0.552-3e-3 -1.106-3e-3 -1.662l-0.032-2e-3c-1.509-2e-3 -2.996-0.013-4.426-0.025h-0.014c-0.445 0-0.875 0.154-1.219 0.429 0 0.419 2e-3 0.838 3e-3 1.253 7e-3 0.729 0.594 1.32 1.323 1.326 1.018 7e-3 2.039 0.011 3.033 0.015" fill="#d51b34"/></g><g transform="translate(118.09 830.19)"><path d="m0 0c0.407-6e-3 0.808-0.012 1.203-0.013 0.726-6e-3 1.312-0.593 1.318-1.319 4e-3 -0.382 0.01-0.767 0.015-1.151-0.403 2e-3 -0.807 6e-3 -1.209 8e-3 -0.73 4e-3 -1.316 0.594-1.323 1.323-2e-3 0.383-3e-3 0.765-4e-3 1.152" fill="#d71b31"/></g><g transform="translate(132.1 833.34)"><path d="m0 0h0.018c0.926-0.012 1.892-0.027 2.866-0.042 0.717-0.014 1.297-0.594 1.308-1.312 8e-3 -0.563 0.011-1.13 9e-3 -1.698-0.401-9e-3 -0.811-0.019-1.235-0.027-0.71-0.013-1.286-0.586-1.304-1.298-8e-3 -0.396-0.022-0.797-0.035-1.194-0.155-2e-3 -0.31-5e-3 -0.465-8e-3 9e-3 0.366 0.019 0.731 0.025 1.094 4e-3 0.36-0.136 0.706-0.391 0.964-0.248 0.25-0.588 0.388-0.942 0.388h-0.015c-0.385-6e-3 -0.774-9e-3 -1.162-0.015 0 0.6-2e-3 1.202-0.01 1.802-3e-3 0.358 0.139 0.703 0.393 0.956 0.25 0.251 0.588 0.39 0.94 0.39" fill="#f2562a"/></g><g transform="translate(131.94 830.21)"><path d="m0 0h0.015c0.354 0 0.694-0.138 0.943-0.388 0.254-0.258 0.395-0.604 0.39-0.964-6e-3 -0.363-0.015-0.729-0.025-1.094-0.38-6e-3 -0.762-0.012-1.144-0.017h-0.018c-0.352 0-0.69 0.139-0.94 0.388-0.254 0.254-0.396 0.6-0.392 0.958 4e-3 0.365 8e-3 0.732 9e-3 1.102 0.389 5e-3 0.777 9e-3 1.162 0.015" fill="#dd2624"/></g><g transform="translate(136.3 830.29)"><path d="m0 0c0-0.398-3e-3 -0.794-9e-3 -1.19-0.011-0.718-0.591-1.298-1.308-1.311-0.415-5e-3 -0.835-0.012-1.257-0.018 0.013 0.397 0.027 0.798 0.035 1.194 0.018 0.712 0.594 1.285 1.304 1.298 0.424 8e-3 0.834 0.018 1.235 0.027" fill="#e7411f"/></g><g transform="translate(137.99 833.24)"><path d="m0 0 0.033-2e-3c1.02-0.023 1.861-0.044 2.648-0.067 0.703-0.02 1.271-0.584 1.294-1.287 0.029-0.89 0.029-1.79 0-2.675-0.023-0.703-0.591-1.269-1.294-1.288-0.491-0.015-0.997-0.027-1.529-0.042 0.016 0.344 0.029 0.701 0.041 1.075 0.013 0.368-0.128 0.721-0.383 0.98-0.252 0.256-0.595 0.395-0.946 0.395h-0.035c-0.377-0.01-0.757-0.02-1.146-0.029 3e-3 0.527-2e-3 1.056-0.014 1.581-7e-3 0.363 0.135 0.714 0.392 0.971 0.249 0.248 0.587 0.388 0.939 0.388" fill="#f7d01e"/></g><g transform="translate(137.85 830.33)"><path d="m0 0c0.352 0 0.694-0.138 0.946-0.394 0.256-0.26 0.396-0.613 0.384-0.981-0.013-0.373-0.025-0.731-0.042-1.075-0.36-8e-3 -0.733-0.015-1.119-0.025h-0.033c-0.351 0-0.69 0.138-0.939 0.388-0.257 0.258-0.398 0.609-0.391 0.97s0.011 0.725 0.013 1.088c0.39 0.01 0.769 0.019 1.146 0.029z" fill="#ef8114"/></g><g transform="translate(145 832.48)"><path d="m0 0c0.792-0.027 1.584-0.056 2.375-0.09 0.019-0.35 0.029-0.702 0.029-1.053h-0.035l-0.063-2e-3c-0.725-0.034-1.473-0.065-2.287-0.099 0 0.415-6e-3 0.829-0.019 1.244" fill="#84cd2c"/></g><g transform="translate(147.37 831.33)"><path d="m0 0h0.035c0-0.395-8e-3 -0.788-0.03-1.182-0.791-0.032-1.582-0.062-2.375-0.089 0.014 0.389 0.02 0.781 0.02 1.17 0.813 0.035 1.561 0.065 2.287 0.099z" fill="#439c39"/></g><g transform="translate(105.11 835.61)"><path d="m0 0c0.354 0 0.694-0.141 0.946-0.394 0.286-0.288 0.425-0.69 0.375-1.095-0.088-0.75-0.156-1.517-0.2-2.28-0.037-0.685-0.589-1.231-1.274-1.258-0.845-0.032-1.618-0.065-2.368-0.1l-0.06-2e-3c-0.356 0-0.696 0.142-0.948 0.396-0.263 0.271-0.402 0.637-0.381 1.014 0.045 0.774 0.131 1.554 0.252 2.32 0.093 0.582 0.56 1.034 1.146 1.111 0.759 0.094 1.554 0.19 2.365 0.279z" fill="#66268e"/></g><g transform="translate(116.33 836.42)"><path d="m0 0 0.138-0.017c-0.019-0.37-0.036-0.743-0.052-1.118 0.327 0.014 0.654 0.027 0.983 0.039-0.019-0.981-0.033-1.98-0.041-2.987-5e-3 -0.2 0.023-0.396 0.082-0.581-0.184-0.509-0.664-0.872-1.234-0.88-0.94-0.015-1.9-0.031-2.855-0.048h-0.024c-0.355 0-0.695 0.138-0.944 0.39-0.257 0.258-0.395 0.61-0.388 0.972 0.023 0.941 0.061 1.893 0.112 2.836 0.038 0.679 0.581 1.222 1.258 1.257l0.163 0.01c-0.028-0.382-0.054-0.768-0.081-1.152 0.944 0.052 1.885 0.098 2.827 0.141 0.017 0.38 0.037 0.759 0.056 1.138" fill="#be0e85"/></g><g transform="translate(117.58 835.33)"><path d="m0 0c0.017-0.093 0.026-0.192 0.021-0.292-0.036-0.95-0.062-1.911-0.081-2.854-1e-3 -0.15-0.03-0.294-0.076-0.427-0.059 0.185-0.087 0.381-0.082 0.581 8e-3 1.007 0.022 2.006 0.041 2.986z" fill="#ac1741"/></g><g transform="translate(125.72 836.57)"><path d="m0 0c-0.012-1.459-0.019-2.884-0.023-4.228-5e-3 -0.481-0.179-0.923-0.469-1.263-0.431 0.219-0.725 0.666-0.725 1.182-6e-3 0.945-0.012 1.944-0.02 2.972-1e-3 0.355 0.141 0.7 0.393 0.953 0.227 0.227 0.527 0.362 0.844 0.384" fill="#d81f29"/></g><g transform="translate(116.43 838.09)"><path d="m0 0c-0.036-0.558-0.068-1.115-0.1-1.669l-0.063 1e-3 -0.054-1e-3c-0.9-0.039-1.802-0.081-2.685-0.127 0.043 0.523 0.087 1.044 0.136 1.567 0.921 0.087 1.844 0.161 2.766 0.229" fill="#9d1789"/></g><g transform="translate(116.27 836.42)"><path d="m0 0 0.062-1e-3c-0.019-0.379-0.038-0.757-0.055-1.138-0.943-0.043-1.883-0.089-2.827-0.141 0.027 0.384 0.053 0.77 0.081 1.152 0.882 0.046 1.784 0.089 2.684 0.127z" fill="#761549"/></g><g transform="translate(118.2 838.2)"><path d="m0 0c-0.459-0.347-0.758-0.896-0.774-1.513-5e-3 -0.299-0.011-0.601-0.018-0.902-0.055 0.091-0.122 0.177-0.199 0.255-0.202 0.2-0.462 0.329-0.739 0.37 0.031 0.565 0.064 1.129 0.1 1.694 0.544 0.034 1.088 0.069 1.63 0.096" fill="#c80f86"/></g><g transform="translate(119.43 838.26)"><path d="m0 0c-0.038-0.96-0.067-1.916-0.095-2.871-0.586-0.016-1.169-0.033-1.755-0.054-0.029 0.159-0.087 0.31-0.17 0.448 7e-3 0.302 0.013 0.604 0.018 0.902 0.016 0.617 0.315 1.166 0.774 1.514 0.409 0.021 0.818 0.04 1.228 0.061" fill="#ba1943"/></g><g transform="translate(116.47 836.41)"><path d="m0 0c0.277-0.04 0.537-0.169 0.739-0.369 0.076-0.079 0.144-0.165 0.199-0.256-3e-3 -0.152-6e-3 -0.304-7e-3 -0.454-0.329-0.011-0.656-0.025-0.983-0.038 0.016 0.375 0.033 0.748 0.052 1.117" fill="#951549"/></g><g transform="translate(117.41 835.78)"><path d="m0 0c0.083-0.138 0.141-0.289 0.17-0.448l-0.177-6e-3c1e-3 0.15 4e-3 0.302 7e-3 0.454" fill="#891629"/></g><g transform="translate(126.95 838.32)"><path d="m0 0c0.59-0.015 1.18-0.033 1.769-0.056 0.021-0.577 0.041-1.156 0.059-1.734-0.989 0.021-1.98 0.035-2.947 0.046h-0.024c-4e-3 0.213-5e-3 0.427-9e-3 0.642 0.294 0.035 0.57 0.169 0.782 0.381 0.196 0.196 0.326 0.449 0.37 0.721" fill="#e61a50"/></g><g transform="translate(125.82 836.57)"><path d="m0 0h0.012c0.968-0.01 1.958-0.025 2.948-0.046 0.012-0.38 0.022-0.758 0.032-1.136-0.997 0.022-1.996 0.04-2.993 0.049-4e-3 0.377-7e-3 0.755-0.011 1.133z" fill="#d81f29"/></g><g transform="translate(135.9 837.73)"><path d="m0 0c0.51-0.056 1.018-0.113 1.525-0.175 0.114-0.866 0.204-1.734 0.275-2.606-0.908 0.069-1.815 0.129-2.723 0.185-0.035 0.534-0.075 1.069-0.119 1.601 0.261 0.049 0.502 0.178 0.692 0.369 0.175 0.174 0.294 0.392 0.35 0.626" fill="#ee701d"/></g><g transform="translate(124.14 842.69)"><path d="m0 0c0.488 0 0.982-4e-3 1.468-0.013 0.716-0.01 1.298-0.589 1.309-1.308 0.019-0.921 0.03-1.87 0.044-2.817 2e-3 -0.083-5e-3 -0.16-0.017-0.239-0.389 0.011-0.778 0.017-1.166 0.023 5e-3 -0.375 0.01-0.749 0.014-1.125l-0.141-0.012c-0.085 0.332-0.257 0.641-0.506 0.887-0.367 0.366-0.863 0.568-1.379 0.568h-0.018c-0.8-6e-3 -1.611-0.017-2.428-0.029 0.012 0.925 0.027 1.848 0.043 2.744 0.012 0.719 0.593 1.298 1.31 1.308 0.487 9e-3 0.98 0.013 1.467 0.013" fill="#e50e72"/></g><g transform="translate(123.75 838.66)"><path d="m0 0h0.018c0.517 0 1.013-0.203 1.379-0.568 0.249-0.246 0.421-0.555 0.507-0.888h-0.035c-0.49 7e-3 -0.984 0.01-1.477 0.01-0.488 0-0.984-3e-3 -1.475-0.01h-0.015c-0.354 0-0.693 0.143-0.94 0.394-0.254 0.253-0.395 0.6-0.39 0.959v0.074c0.818 0.012 1.628 0.022 2.428 0.029" fill="#d51a36"/></g><g transform="translate(125.78 838.34)"><path d="m0 0c0.388-6e-3 0.777-0.012 1.165-0.023-0.044-0.272-0.173-0.525-0.37-0.721-0.211-0.212-0.487-0.345-0.782-0.381-3e-3 0.376-8e-3 0.75-0.013 1.125" fill="#d81d29"/></g><g transform="translate(131.61 842.33)"><path d="m0 0 0.136-4e-3c1.035-0.108 1.902-0.211 2.724-0.325 0.588-0.081 1.052-0.546 1.136-1.134 0.121-0.882 0.229-1.785 0.319-2.685 0.014-0.148 3e-3 -0.302-0.032-0.444-0.379 0.042-0.76 0.081-1.142 0.117 0.035-0.369 0.069-0.741 0.099-1.112-0.083-0.016-0.167-0.024-0.25-0.024l-0.127 5e-3c-0.901 0.087-1.82 0.164-2.734 0.232-0.658 0.047-1.18 0.571-1.229 1.229-0.065 0.901-0.142 1.805-0.227 2.691-0.036 0.397 0.106 0.789 0.39 1.069 0.249 0.248 0.587 0.385 0.937 0.385" fill="#eb2f2d"/></g><g transform="translate(134.75 837.85)"><path d="m0 0c0.382-0.036 0.763-0.075 1.141-0.117-0.055-0.234-0.175-0.452-0.35-0.626-0.19-0.192-0.43-0.321-0.692-0.37-0.031 0.372-0.064 0.744-0.099 1.113" fill="#dd2327"/></g><g transform="translate(139.69 841.03)"><path d="m0 0c0.101 0 0.202-9e-3 0.302-0.032l0.028-6e-3 0.016-0.038c0.139-0.331 0.406-0.593 0.743-0.726 0.788-0.308 1.421-0.575 1.996-0.834 0.178-0.083 0.367-0.121 0.553-0.121h0.035c0.058-0.199 0.114-0.398 0.169-0.598-0.465 0.142-0.932 0.277-1.402 0.411 0.229-0.725 0.419-1.462 0.592-2.201 0.395-0.08 0.793-0.161 1.189-0.245-0.05-0.244-0.165-0.471-0.344-0.654-0.252-0.265-0.602-0.41-0.961-0.41-0.081 0-0.166 6e-3 -0.247 0.023-0.773 0.145-1.575 0.285-2.386 0.421-0.554 0.091-0.992 0.519-1.092 1.071-0.145 0.775-0.307 1.549-0.487 2.301-0.107 0.45 0.027 0.921 0.352 1.248 0.252 0.252 0.592 0.39 0.944 0.39" fill="#f5df12"/></g><g transform="translate(143.53 838.67)"><path d="m0 0c0.265-0.081 0.527-0.166 0.79-0.252 0.258-0.66 0.483-1.338 0.674-2.022-0.36 0.084-0.722 0.162-1.085 0.238 0.035 0.185 0.035 0.377-8e-3 0.568-0.113 0.492-0.239 0.983-0.371 1.468" fill="#b1da1b"/></g><g transform="translate(142.13 839.08)"><path d="m0 0c0.469-0.134 0.936-0.269 1.402-0.41 0.132-0.486 0.258-0.976 0.371-1.469 0.042-0.19 0.042-0.382 8e-3 -0.567-0.396 0.084-0.795 0.165-1.19 0.245-0.173 0.739-0.362 1.476-0.591 2.201" fill="#b3bc1b"/></g><g transform="translate(107.98 842.06)"><path d="m0 0c-0.185-0.61-0.357-1.231-0.514-1.85-0.085-0.337-0.032-0.695 0.137-0.992-0.044-0.13-0.087-0.262-0.129-0.393-0.136-0.423-0.473-0.75-0.9-0.877-0.839-0.241-1.517-0.448-2.13-0.655-0.137-0.047-0.281-0.069-0.424-0.069-0.358 0-0.71 0.145-0.965 0.416-0.357 0.377-0.463 0.926-0.27 1.407 0.274 0.691 0.586 1.376 0.929 2.041 0.139 0.267 0.364 0.481 0.637 0.605 0.183 0.08 0.369 0.16 0.562 0.243 0.057-0.118 0.134-0.229 0.231-0.329 0.257-0.269 0.607-0.409 0.961-0.409 0.235 0 0.472 0.061 0.685 0.19 0.384 0.231 0.784 0.454 1.19 0.672" fill="#3655ac"/></g><g transform="translate(111.74 844.13)"><path d="m0 0c0.347 0 0.685-0.135 0.936-0.384 0.332-0.328 0.469-0.808 0.358-1.259-0.187-0.771-0.359-1.565-0.517-2.358-0.106-0.529-0.524-0.944-1.057-1.046-0.813-0.158-1.623-0.325-2.409-0.504-0.096-0.02-0.195-0.031-0.293-0.031-0.355 0-0.7 0.141-0.952 0.404-0.08 0.08-0.148 0.168-0.202 0.263 0.183 0.543 0.383 1.08 0.598 1.604 0.175 0.426 0.116 0.91-0.147 1.278 0.188 0.1 0.376 0.197 0.567 0.293 0.248 0.126 0.45 0.324 0.581 0.57 0.109 0.208 0.224 0.415 0.339 0.619 0.614 0.181 1.241 0.351 1.87 0.511 0.11 0.027 0.219 0.04 0.328 0.04" fill="#2f429a"/></g><g transform="translate(108.05 842.1)"><path d="m0 0c0.263-0.367 0.323-0.851 0.147-1.278-0.214-0.524-0.414-1.061-0.597-1.604-0.169 0.297-0.222 0.655-0.137 0.993 0.157 0.619 0.329 1.239 0.514 1.849z" fill="#25295d"/></g><g transform="translate(117.37 847.8)"><path d="m0 0c0.345 0 0.679-0.134 0.929-0.378 0.309-0.301 0.453-0.732 0.388-1.157-0.125-0.798-0.246-1.63-0.355-2.476-0.079-0.591-0.541-1.058-1.133-1.142-0.834-0.118-1.675-0.258-2.496-0.408-0.081-0.016-0.162-0.024-0.242-0.024-0.349 0-0.691 0.141-0.942 0.394-0.31 0.31-0.447 0.755-0.365 1.184 0.156 0.828 0.325 1.655 0.503 2.459 0.111 0.502 0.498 0.892 0.994 1.011 0.817 0.191 1.652 0.366 2.483 0.516 0.078 0.012 0.157 0.021 0.236 0.021" fill="#5a298a"/></g><g transform="translate(122.7 848.36)"><path d="m0 0c0.35 0 0.686-0.137 0.935-0.385 0.263-0.259 0.406-0.617 0.394-0.988-0.028-0.919-0.052-1.765-0.073-2.591-0.016-0.705-0.583-1.272-1.287-1.296-0.89-0.03-1.784-0.077-2.661-0.142l-0.1-4e-3c-0.352 0-0.69 0.14-0.941 0.387-0.274 0.277-0.415 0.655-0.386 1.044 0.065 0.867 0.137 1.736 0.213 2.586 0.055 0.638 0.56 1.147 1.201 1.206 0.871 0.083 1.763 0.144 2.645 0.181z" fill="#c50f88"/></g><g transform="translate(128.29 848.17)"><path d="m0 0 0.148-6e-3c0.861-0.096 1.727-0.217 2.572-0.355 0.568-0.091 1.015-0.542 1.1-1.112 0.128-0.83 0.247-1.685 0.357-2.537 0.054-0.409-0.087-0.824-0.381-1.115-0.252-0.249-0.588-0.386-0.938-0.386l-0.177 0.011c-0.852 0.114-1.718 0.208-2.571 0.278-0.651 0.053-1.167 0.57-1.218 1.223-0.067 0.851-0.14 1.707-0.217 2.548-0.037 0.399 0.11 0.79 0.395 1.07 0.249 0.246 0.584 0.381 0.93 0.381" fill="#e61d49"/></g><g transform="translate(140.25 844.78)"><path d="m0 0c0.206-0.151 0.409-0.305 0.612-0.464-0.129 0.156-0.258 0.309-0.389 0.461 0.155-0.017 0.31-0.059 0.458-0.132 0.686-0.34 1.368-0.706 2.013-1.09 0.176-0.103 0.325-0.245 0.437-0.416 0.406-0.62 0.786-1.266 1.13-1.919 0.264-0.502 0.179-1.12-0.211-1.535-0.251-0.262-0.589-0.405-0.933-0.414-0.021 0.074-0.044 0.149-0.066 0.223-0.134 0.442-0.485 0.782-0.93 0.903-0.758 0.205-1.55 0.403-2.347 0.592-0.262 0.624-0.553 1.247-0.865 1.849-0.267 0.511-0.173 1.135 0.229 1.546 0.235 0.238 0.543 0.375 0.862 0.396" fill="#cadf14"/></g><g transform="translate(140.02 840.99)"><path d="m0 0c0.797-0.189 1.589-0.386 2.347-0.591 0.445-0.121 0.796-0.462 0.93-0.903 0.022-0.075 0.045-0.15 0.066-0.224h-0.035c-0.186 0-0.375 0.037-0.553 0.12-0.574 0.26-1.208 0.526-1.997 0.834-0.336 0.133-0.603 0.396-0.742 0.727z" fill="#c6bf19"/></g><g transform="translate(108.23 846.46)"><path d="m0 0-0.079-0.124c-0.338-0.529-0.263-1.217 0.18-1.66 0.257-0.257 0.598-0.39 0.94-0.39 0.249 0 0.499 0.071 0.721 0.211l0.153 0.099c-0.209-0.331-0.411-0.67-0.605-1.018-0.175-0.048-0.35-0.1-0.523-0.153-0.426-0.126-0.756-0.454-0.889-0.879-0.04-0.129-0.081-0.26-0.118-0.391l-0.088 0.1c-0.255 0.26-0.602 0.399-0.953 0.399-0.16 0-0.322-0.027-0.477-0.087-0.595-0.225-1.11-0.435-1.579-0.635-0.207 0.417-0.185 0.925 0.084 1.33 0.404 0.61 0.848 1.21 1.315 1.784 0.066 0.08 0.139 0.152 0.221 0.216 0.545 0.417 1.115 0.82 1.697 1.198" fill="#4087ce"/></g><g transform="translate(106.97 842.66)"><path d="m0 0c0.351 0 0.697-0.139 0.953-0.399l0.088-0.1-0.03-0.099c-0.406-0.218-0.806-0.441-1.191-0.672-0.212-0.129-0.45-0.191-0.684-0.191-0.354 0-0.704 0.141-0.962 0.41-0.096 0.1-0.173 0.211-0.231 0.329 0.47 0.2 0.985 0.41 1.579 0.634 0.156 0.061 0.318 0.088 0.478 0.088" fill="#283d82"/></g><g transform="translate(109.54 843.58)"><path d="m0 0c-0.115-0.204-0.23-0.411-0.339-0.619-0.131-0.246-0.333-0.444-0.581-0.569-0.191-0.097-0.379-0.195-0.567-0.295l-0.044 0.06c0.038 0.131 0.078 0.261 0.118 0.39 0.133 0.425 0.464 0.754 0.889 0.88 0.173 0.053 0.348 0.105 0.524 0.153" fill="#273573"/></g><g transform="translate(108.01 842.16)"><path d="m0 0 0.043-0.06-0.073-0.039z" fill="#1d2045"/></g><g transform="translate(112.19 849.94)"><path d="m0 0c0.335 0 0.664-0.125 0.919-0.367 0.452-0.431 0.544-1.116 0.224-1.648-0.347-0.581-0.679-1.185-0.989-1.8-0.122-0.25-0.323-0.452-0.567-0.583-0.556-0.291-1.107-0.609-1.637-0.944l0.081 0.126c0.337 0.528 0.261 1.215-0.181 1.658-0.255 0.258-0.597 0.392-0.94 0.392-0.248 0-0.496-0.07-0.716-0.211l-0.159-0.101c0.38 0.586 0.784 1.158 1.202 1.7 0.061 0.082 0.132 0.154 0.213 0.221 0.577 0.471 1.188 0.92 1.815 1.336 0.226 0.149 0.481 0.221 0.735 0.221" fill="#3d83cc"/></g><g transform="translate(109.1 846.77)"><path d="m0 0c0.343 0 0.685-0.134 0.94-0.391 0.442-0.444 0.518-1.131 0.181-1.659l-0.081-0.126-0.153-0.099c-0.222-0.14-0.472-0.211-0.72-0.211-0.343 0-0.684 0.133-0.941 0.391-0.443 0.442-0.518 1.131-0.18 1.659l0.079 0.124 0.159 0.101c0.22 0.142 0.468 0.211 0.716 0.211" fill="#274e9e"/></g><g transform="translate(120.57 853.24)"><path d="m0 0c0.342 0 0.676-0.133 0.927-0.373 0.302-0.294 0.449-0.713 0.394-1.133-0.098-0.746-0.194-1.513-0.283-2.28-0.07-0.6-0.534-1.079-1.134-1.164-0.748-0.11-1.501-0.24-2.239-0.395-0.092-0.02-0.182-0.03-0.273-0.03-0.347 0-0.684 0.135-0.935 0.381-0.318 0.314-0.458 0.767-0.374 1.202 0.175 0.892 0.324 1.616 0.474 2.282 0.107 0.483 0.472 0.864 0.948 0.993 0.743 0.204 1.51 0.371 2.278 0.499z" fill="#7e218c"/></g><g transform="translate(125.39 853.5)"><path d="m0 0 0.077-4e-3c0.79-0.045 1.583-0.131 2.359-0.256 0.582-0.094 1.032-0.559 1.107-1.146 0.096-0.75 0.191-1.532 0.279-2.321 0.047-0.405-0.096-0.808-0.386-1.096-0.249-0.249-0.588-0.384-0.935-0.384l-0.16 9e-3c-0.763 0.092-1.541 0.16-2.315 0.2-0.686 0.041-1.229 0.594-1.258 1.279-0.029 0.798-0.064 1.581-0.097 2.327-0.019 0.377 0.126 0.741 0.394 1.007 0.25 0.247 0.586 0.385 0.935 0.385" fill="#e51068"/></g><g transform="translate(132.12 852.01)"><path d="m0 0c0.165 0 0.331-0.029 0.488-0.092 0.702-0.279 1.403-0.594 2.077-0.944 0.267-0.138 0.479-0.364 0.602-0.639 0.308-0.686 0.6-1.396 0.87-2.112 0.188-0.497 0.062-1.055-0.32-1.425-0.251-0.246-0.586-0.375-0.925-0.375-0.169 0-0.344 0.031-0.507 0.101-0.595 0.245-1.243 0.482-2.041 0.746-0.417 0.134-0.741 0.471-0.864 0.892-0.236 0.825-0.441 1.492-0.641 2.098-0.165 0.489-0.029 1.032 0.346 1.388 0.252 0.238 0.58 0.362 0.915 0.362" fill="#ec4a24"/></g><g transform="translate(140.34 844.78)"><path d="m0 0 0.134-6e-3c0.13-0.152 0.259-0.304 0.388-0.461-0.202 0.159-0.406 0.313-0.611 0.464z" fill="#a8c11e"/></g><g transform="translate(121.38 838.56)"><path d="m0 0v-0.075c-6e-3 -0.357 0.134-0.701 0.387-0.954 0.248-0.248 0.586-0.39 0.938-0.39h0.015c0.487 5e-3 0.981 8e-3 1.47 8e-3 0.487 0 0.98-3e-3 1.469-8e-3h0.035c0.045-0.164 0.067-0.334 0.065-0.508v-0.125c-0.316-0.021-0.615-0.158-0.841-0.384-0.252-0.251-0.392-0.593-0.39-0.949 8e-3 -1.023 0.012-2.019 0.017-2.958 2e-3 -0.515 0.294-0.959 0.724-1.178-0.35-0.406-0.862-0.666-1.44-0.678 0 0.553 3e-3 1.107 5e-3 1.654 0 0.353-0.141 0.691-0.391 0.941-0.248 0.248-0.584 0.389-0.936 0.389h-4e-3c-0.99-4e-3 -2.005-8e-3 -3.02-0.018-0.724-4e-3 -1.312-0.59-1.316-1.317-2e-3 -0.414-6e-3 -0.833-6e-3 -1.248l-0.16 0.144c-0.229 0.227-0.393 0.507-0.484 0.812 0.048 0.132 0.075 0.276 0.077 0.425 0.017 0.941 0.044 1.897 0.079 2.844 5e-3 0.1-4e-3 0.196-0.022 0.29 0.583 0.022 1.167 0.039 1.75 0.055 0.025 0.951 0.056 1.903 0.094 2.857-0.408-0.018-0.815-0.039-1.222-0.061 0.315 0.24 0.704 0.384 1.128 0.393 0.662 0.014 1.322 0.028 1.979 0.039" fill="#e70d76"/></g><g transform="translate(112.67 814.43)"><path d="m0 0c0.638-0.19 1.286-0.37 1.933-0.534 0.109-0.028 0.219-0.04 0.326-0.04 0.217 0 0.427 0.053 0.62 0.152 0.144-0.049 0.297-0.1 0.454-0.151 0.418-0.139 0.738-0.472 0.861-0.894 0.236-0.819 0.44-1.482 0.64-2.088 0.164-0.487 0.028-1.027-0.346-1.382-0.25-0.235-0.578-0.362-0.91-0.362-0.165 0-0.33 0.031-0.49 0.094-0.697 0.275-1.393 0.592-2.065 0.94-0.265 0.137-0.477 0.36-0.6 0.635-0.304 0.677-0.596 1.386-0.867 2.104-0.186 0.492-0.062 1.05 0.317 1.417z" fill="#f04325"/></g><g transform="translate(124.25 812.61)"><path d="m0 0c-0.012-0.367-0.025-0.731-0.038-1.088-0.016-0.373 0.128-0.735 0.394-0.997 0.248-0.244 0.584-0.38 0.929-0.38l0.072 2e-3c0.364 0.02 0.727 0.044 1.089 0.075-0.013-0.438-0.033-0.873-0.05-1.298-0.028-0.683-0.573-1.235-1.256-1.27-0.399-0.019-0.802-0.03-1.2-0.03-0.4 0-0.803 0.011-1.201 0.03-0.683 0.035-1.228 0.587-1.256 1.27-0.016 0.429-0.034 0.863-0.05 1.298 0.362-0.031 0.726-0.055 1.09-0.075l0.071-2e-3c0.347 0 0.68 0.136 0.929 0.38 0.267 0.262 0.409 0.624 0.396 0.997-0.014 0.357-0.027 0.721-0.04 1.088h0.061z" fill="#f2aa14"/></g><g transform="translate(129.26 811.62)"><path d="m0 0c0.069-0.168 0.173-0.323 0.309-0.452 0.158-0.156 0.351-0.263 0.558-0.323-0.077-0.38-0.157-0.76-0.244-1.136-0.704-0.193-1.417-0.349-2.136-0.468 0.048 0.365 0.096 0.73 0.14 1.096l0.202 0.023c0.615 0.074 1.098 0.561 1.161 1.176z" fill="#e2e619"/></g><g transform="translate(120.2 815.44)"><path d="m0 0 0.126-6e-3c0.822-0.079 1.661-0.136 2.492-0.173 0.692-0.03 1.243-0.588 1.267-1.279 0.015-0.459 0.03-0.918 0.046-1.369-0.371 0-0.746 8e-3 -1.117 0.017l-0.043 3e-3c-0.352 0-0.69-0.14-0.938-0.389-0.26-0.262-0.398-0.618-0.388-0.985 0.013-0.342 0.026-0.689 0.04-1.034-0.468 0.039-0.937 0.086-1.4 0.14-0.612 0.074-1.094 0.561-1.16 1.176-0.087 0.795-0.169 1.62-0.246 2.451-0.037 0.393 0.104 0.781 0.385 1.062 0.25 0.249 0.584 0.386 0.936 0.386" fill="#f25e24"/></g><g transform="translate(122.97 812.63)"><path d="m0 0 0.043-3e-3c0.371-9e-3 0.745-0.017 1.117-0.017 0.013-0.367 0.026-0.731 0.04-1.089 0.012-0.373-0.129-0.734-0.396-0.996-0.249-0.244-0.582-0.38-0.929-0.38l-0.071 1e-3c-0.364 0.021-0.728 0.045-1.09 0.075-0.014 0.346-0.027 0.693-0.04 1.035-0.011 0.366 0.128 0.723 0.387 0.985 0.249 0.249 0.587 0.389 0.939 0.389" fill="#e94220"/></g><g transform="translate(128.3 815.43)"><path d="m0 0c0.308-0.028 0.602-0.161 0.823-0.382 0.241-0.241 0.379-0.564 0.39-0.902-0.103-0.6-0.209-1.196-0.319-1.778-0.042-0.22-0.027-0.439 0.037-0.644-0.395-0.069-0.79-0.134-1.191-0.193-0.047-0.397-0.094-0.794-0.144-1.195-0.396-0.046-0.794-0.084-1.196-0.116 0.014 0.342 0.027 0.686 0.039 1.034 0.014 0.366-0.127 0.723-0.386 0.985-0.249 0.249-0.587 0.389-0.938 0.389l-0.044-3e-3c-0.371-9e-3 -0.746-0.017-1.117-0.017 0.017 0.451 0.032 0.909 0.047 1.369 0.022 0.691 0.574 1.249 1.266 1.279l0.099 4e-3c-0.01-0.385-0.023-0.772-0.035-1.158 0.859 0.038 1.714 0.094 2.571 0.175 0.033 0.387 0.066 0.768 0.098 1.153" fill="#f1a914"/></g><g transform="translate(125.41 812.63)"><path d="m0 0c0.35 0 0.689-0.14 0.938-0.389 0.258-0.262 0.4-0.619 0.385-0.985-0.011-0.348-0.025-0.692-0.038-1.035-0.362-0.03-0.725-0.054-1.09-0.075l-0.072-1e-3c-0.344 0-0.681 0.136-0.929 0.38-0.265 0.262-0.409 0.623-0.394 0.996 0.013 0.358 0.027 0.722 0.039 1.089 0.371 0 0.746 8e-3 1.117 0.017z" fill="#ec6d18"/></g><g transform="translate(129.23 811.73)"><path d="m0 0 0.038-0.105-9e-3 -0.084c-0.064-0.615-0.546-1.101-1.162-1.176l-0.201-0.023c0.049 0.4 0.097 0.798 0.144 1.195 0.4 0.059 0.795 0.124 1.19 0.193" fill="#e19816"/></g><g transform="translate(132.3 816.13)"><path d="m0 0c-0.046-0.219-0.097-0.436-0.143-0.652-0.102-0.451 0.037-0.92 0.371-1.242 0.248-0.244 0.58-0.375 0.921-0.375 0.11 0 0.219 0.012 0.328 0.04 0.22 0.056 0.441 0.115 0.661 0.174-0.137-0.574-0.284-1.144-0.433-1.704-0.12-0.441-0.461-0.791-0.9-0.924-0.762-0.228-1.54-0.435-2.32-0.615-0.098-0.021-0.197-0.032-0.297-0.032-0.124 0-0.245 0.017-0.36 0.048 0.074 0.367 0.146 0.732 0.218 1.096-0.357-0.074-0.715-0.144-1.072-0.206 0.076 0.728 0.152 1.483 0.225 2.252l6e-3 0.159c0.029 0.187 0.061 0.373 0.09 0.559 0.091 0.551 0.519 0.988 1.069 1.089 0.546 0.1 1.095 0.212 1.636 0.333" fill="#d7e31b"/></g><g transform="translate(130.35 811.94)"><path d="m0 0c-0.072-0.364-0.144-0.729-0.218-1.096-0.207 0.06-0.4 0.167-0.559 0.323-0.135 0.129-0.239 0.284-0.309 0.452l0.014 0.115c0.357 0.063 0.715 0.132 1.072 0.206" fill="#c2c716"/></g><g transform="translate(129.51 814.15)"><path d="m0 0-6e-3 -0.159c-0.073-0.77-0.149-1.525-0.225-2.252l-0.052-0.011c-0.063 0.205-0.078 0.424-0.036 0.643 0.109 0.583 0.215 1.179 0.319 1.779" fill="#d69a16"/></g><g transform="translate(129.28 811.74)"><path d="m0 0-0.013-0.115-0.039 0.104z" fill="#be851b"/></g><g transform="translate(107.24 820.93)"><path d="m0 0c0.112 0 0.225-0.013 0.336-0.043 0.199-0.782 0.42-1.563 0.655-2.322 0.132-0.421 0.462-0.75 0.886-0.877 0.569-0.171 1.154-0.337 1.739-0.492 0.121-0.452 0.245-0.902 0.376-1.348l-0.081-0.089c-0.253-0.251-0.59-0.384-0.932-0.384-0.171 0-0.345 0.033-0.508 0.102-0.832 0.342-1.508 0.643-2.135 0.95-0.258 0.126-0.467 0.331-0.598 0.587-0.348 0.676-0.672 1.378-0.963 2.083-0.202 0.488-0.096 1.048 0.271 1.429 0.069 0.07 0.147 0.136 0.228 0.189 0.17 0.032 0.336 0.096 0.483 0.192 0.08 0.015 0.16 0.023 0.243 0.023" fill="#e71c4b"/></g><g transform="translate(112.97 819.25)"><path d="m0 0c0.563-0.129 1.139-0.25 1.712-0.365 0.529-0.106 0.942-0.522 1.043-1.052 0.153-0.796 0.318-1.591 0.491-2.36 0.1-0.451-0.038-0.92-0.369-1.242-0.092-0.088-0.194-0.164-0.306-0.223-0.593 0.204-1.1 0.392-1.575 0.588-0.166 0.069-0.336 0.101-0.507 0.101-0.284 0-0.565-0.091-0.797-0.267-0.145 0.045-0.29 0.089-0.434 0.133-0.422 0.131-0.753 0.462-0.877 0.887-0.04 0.131-0.077 0.262-0.117 0.393 0.274 0.328 0.374 0.771 0.269 1.181 0.108-0.028 0.217-0.041 0.327-0.041 0.345 0 0.681 0.134 0.933 0.383 0.328 0.326 0.465 0.803 0.354 1.255-0.051 0.208-0.1 0.419-0.147 0.629" fill="#e71e41"/></g><g transform="translate(113.46 814.7)"><path d="m0 0c0.171 0 0.341-0.033 0.507-0.101 0.476-0.196 0.982-0.385 1.576-0.589-0.193-0.099-0.403-0.151-0.62-0.151-0.107 0-0.217 0.012-0.326 0.04-0.647 0.163-1.295 0.343-1.933 0.534 0.231 0.176 0.512 0.267 0.796 0.267" fill="#db2027"/></g><g transform="translate(110.86 817.2)"><path d="m0 0c0.215-0.057 0.431-0.112 0.645-0.167 0.106-0.411 6e-3 -0.853-0.269-1.182-0.131 0.446-0.255 0.897-0.376 1.349" fill="#d81d29"/></g><g transform="translate(128.18 815.44)"><path d="m0 0 0.115-5e-3c-0.031-0.384-0.065-0.766-0.098-1.153-0.856-0.08-1.711-0.137-2.571-0.175 0.013 0.386 0.025 0.773 0.036 1.158 0.797 0.038 1.603 0.093 2.394 0.169z" fill="#ee551e"/></g><g transform="translate(136.69 819.42)"><path d="m0 0c0.242-0.056 0.465-0.179 0.644-0.361 0.329-0.329 0.456-0.809 0.344-1.258-0.201-0.789-0.419-1.576-0.65-2.345-0.127-0.424-0.455-0.755-0.877-0.886-0.562-0.175-1.132-0.339-1.706-0.494 0.053 0.207 0.101 0.415 0.151 0.623 0.105 0.447-0.031 0.917-0.356 1.242-0.252 0.248-0.588 0.385-0.935 0.385-0.104 0-0.207-0.011-0.308-0.037-0.229-0.054-0.46-0.108-0.69-0.158 0.122 0.563 0.238 1.137 0.345 1.708 0.104 0.531 0.515 0.946 1.045 1.052 0.167 0.033 0.333 0.066 0.503 0.102-0.07-0.414-0.139-0.825-0.213-1.237 0.818 0.16 1.633 0.339 2.444 0.531 0.09 0.377 0.176 0.754 0.259 1.133" fill="#bedf1a"/></g><g transform="translate(133.3 816.32)"><path d="m0 0c0.346 0 0.683-0.137 0.935-0.385 0.325-0.325 0.46-0.795 0.355-1.242-0.05-0.208-0.098-0.416-0.151-0.622-0.22-0.06-0.441-0.119-0.661-0.174-0.109-0.028-0.218-0.04-0.328-0.04-0.341 0-0.673 0.13-0.921 0.374-0.334 0.322-0.473 0.792-0.371 1.243 0.046 0.215 0.097 0.432 0.143 0.651 0.231 0.051 0.461 0.104 0.69 0.158 0.101 0.026 0.204 0.037 0.309 0.037" fill="#a3c11f"/></g><g transform="translate(108.86 822.55)"><path d="m0 0c0.096 0 0.194-0.012 0.292-0.035 0.782-0.176 1.59-0.343 2.397-0.5 0.533-0.1 0.948-0.513 1.053-1.044 0.115-0.571 0.236-1.145 0.368-1.715-0.225 0.054-0.45 0.106-0.672 0.158-0.103 0.026-0.208 0.041-0.312 0.041-0.349 0-0.691-0.141-0.942-0.396-0.077-0.076-0.143-0.161-0.195-0.249-0.052 0.146-0.102 0.298-0.155 0.457-0.135 0.399-0.451 0.71-0.85 0.839-0.723 0.232-1.443 0.481-2.141 0.742l-0.126 0.039-2e-3 9e-3c-0.112 0.446 0.013 0.921 0.334 1.25 0.252 0.26 0.597 0.404 0.951 0.404" fill="#e6145a"/></g><g transform="translate(107.58 820.89)"><path d="m0 0 0.126-0.039c0.698-0.261 1.418-0.51 2.14-0.743 0.4-0.129 0.716-0.439 0.85-0.838 0.053-0.159 0.104-0.312 0.156-0.458-0.179-0.301-0.236-0.663-0.148-1.008 0.051-0.202 0.104-0.402 0.157-0.604-0.586 0.155-1.17 0.32-1.74 0.491-0.424 0.127-0.754 0.456-0.885 0.877-0.236 0.76-0.457 1.54-0.656 2.322" fill="#d81f28"/></g><g transform="translate(111.99 819.45)"><path d="m0 0c0.104 0 0.21-0.014 0.312-0.04 0.223-0.053 0.448-0.105 0.673-0.159 0.047-0.21 0.096-0.421 0.147-0.629 0.11-0.452-0.026-0.929-0.355-1.256-0.252-0.247-0.588-0.383-0.933-0.383-0.109 0-0.218 0.015-0.327 0.042l-0.055 0.167c-0.197 0.488-0.391 1.007-0.599 1.613 0.052 0.088 0.118 0.173 0.195 0.249 0.252 0.255 0.593 0.396 0.942 0.396" fill="#d81d29"/></g><g transform="translate(110.85 818.81)"><path d="m0 0c0.207-0.606 0.402-1.125 0.598-1.613l0.056-0.167c-0.215 0.055-0.431 0.111-0.645 0.167-0.053 0.202-0.106 0.402-0.157 0.604-0.088 0.346-0.031 0.708 0.148 1.009" fill="#c42027"/></g><g transform="translate(136.95 820.69)"><path d="m0 0c-0.081-0.425-0.169-0.848-0.264-1.271-0.098 0.023-0.198 0.035-0.298 0.035-0.103 0-0.209-0.014-0.311-0.04-0.617-0.147-1.248-0.29-1.881-0.422 0.068 0.426 0.135 0.852 0.198 1.279 0.856 0.122 1.707 0.262 2.556 0.419" fill="#e1e419"/></g><g transform="translate(136.39 819.45)"><path d="m0 0c0.1 0 0.2-0.012 0.298-0.035-0.083-0.38-0.169-0.756-0.259-1.133-0.811-0.192-1.625-0.371-2.444-0.531 0.074 0.412 0.144 0.823 0.213 1.237 0.632 0.132 1.263 0.275 1.88 0.422 0.102 0.026 0.208 0.04 0.312 0.04" fill="#afc51b"/></g><g transform="translate(141.95 823.17)"><path d="m0 0c0.356 0 0.702-0.143 0.956-0.406 0.335-0.348 0.454-0.855 0.309-1.318-0.234-0.742-0.5-1.483-0.792-2.202-0.14-0.346-0.421-0.615-0.773-0.744-0.736-0.269-1.496-0.529-2.261-0.769-0.129-0.043-0.264-0.062-0.399-0.062-0.344 0-0.682 0.135-0.936 0.389-0.35 0.349-0.473 0.863-0.328 1.333 0.224 0.717 0.436 1.455 0.628 2.19 0.121 0.477 0.496 0.846 0.976 0.959 0.771 0.185 1.534 0.38 2.269 0.583 0.116 0.031 0.236 0.047 0.351 0.047" fill="#6ac630"/></g><g transform="translate(103.42 826.01)"><path d="m0 0c0.097 0 0.195-0.01 0.292-0.033 0.141-0.029 0.283-0.061 0.427-0.094 0.095-0.61 0.206-1.219 0.33-1.817 0.111-0.53 0.53-0.937 1.058-1.037 0.627-0.115 1.273-0.227 1.925-0.334 0.029-0.097 0.059-0.195 0.087-0.287 0.146-0.465 0.025-0.971-0.315-1.32-0.069-0.072-0.145-0.132-0.224-0.185-0.173-0.031-0.335-0.097-0.483-0.193-0.08-0.015-0.161-0.024-0.243-0.024-0.12 0-0.241 0.018-0.361 0.051-0.868 0.246-1.58 0.46-2.235 0.675-0.375 0.124-0.676 0.41-0.821 0.777-0.272 0.696-0.511 1.415-0.715 2.14-0.125 0.447-5e-3 0.932 0.316 1.27 0.253 0.265 0.602 0.411 0.962 0.411" fill="#e70d74"/></g><g transform="translate(107 820.91)"><path d="m0 0c-0.147-0.096-0.312-0.161-0.483-0.192 0.148 0.096 0.311 0.161 0.483 0.192" fill="#d81d29"/></g><g transform="translate(113.77 823.05)"><path d="m0 0c0.917-0.087 1.835-0.163 2.751-0.231 0.066-0.904 0.143-1.806 0.229-2.707-0.891 0.094-1.779 0.194-2.667 0.319-0.12 0.87-0.224 1.743-0.313 2.619" fill="#e61758"/></g><g transform="translate(119.64 823.97)"><path d="m0 0 0.052-1e-3c0.95-0.036 1.923-0.063 2.888-0.08l0.07-3e-3c-0.333-0.015-0.651-0.15-0.887-0.389-0.241-0.242-0.38-0.568-0.387-0.909-0.578 0.016-1.157 0.033-1.736 0.056 0.038-0.923 0.083-1.85 0.133-2.771 0.55-0.029 1.096-0.056 1.644-0.077l4e-3 -0.061c0.01-0.689 0.547-1.25 1.226-1.299h-0.074c-0.954 0.024-1.921 0.062-2.872 0.112-0.676 0.039-1.215 0.578-1.252 1.253-0.049 0.931-0.096 1.868-0.134 2.787-0.015 0.371 0.125 0.731 0.387 0.993 0.248 0.25 0.586 0.389 0.938 0.389" fill="#e81e3d"/></g><g transform="translate(119.64 822.64)"><path d="m0 0c0.579-0.023 1.158-0.04 1.736-0.056v-0.044c0.012-0.924 0.025-1.849 0.041-2.748-0.548 0.021-1.094 0.048-1.644 0.077-0.05 0.921-0.095 1.848-0.133 2.771" fill="#d81f28"/></g><g transform="translate(122.71 823.88)"><path d="m0 0h0.015c0.487-5e-3 0.981-8e-3 1.47-8e-3 0.487 0 0.98 3e-3 1.469 8e-3h0.015c0.35 0 0.688-0.139 0.937-0.389 0.252-0.253 0.391-0.597 0.386-0.953-0.011-0.947-0.025-1.891-0.042-2.81-0.012-0.714-0.591-1.291-1.306-1.301-0.486-8e-3 -0.977-0.012-1.463-0.012-0.483 0-0.975 4e-3 -1.459 0.012l-0.077 2e-3c0.334 0.011 0.654 0.147 0.893 0.387 0.256 0.255 0.398 0.603 0.391 0.965-0.019 0.926-0.034 1.868-0.047 2.796-0.011 0.69-0.552 1.256-1.234 1.303z" fill="#ea2730"/></g><g transform="translate(122.65 823.88)"><path d="m0 0c0.682-0.047 1.223-0.613 1.234-1.303 0.013-0.928 0.027-1.87 0.047-2.796 6e-3 -0.362-0.135-0.71-0.391-0.965-0.239-0.24-0.559-0.376-0.893-0.387-0.679 0.05-1.215 0.611-1.226 1.299l-4e-3 0.062c0.397-0.014 0.792-0.025 1.188-0.035-0.018 0.933-0.034 1.868-0.047 2.802-0.395 6e-3 -0.788 0.015-1.181 0.025 7e-3 0.34 0.145 0.666 0.386 0.909 0.237 0.239 0.554 0.374 0.887 0.389" fill="#d81f28"/></g><g transform="translate(121.38 822.59)"><path d="m0 0c0.393-0.01 0.787-0.019 1.181-0.025 0.013-0.934 0.029-1.869 0.047-2.802-0.395 0.01-0.79 0.021-1.187 0.035-0.016 0.899-0.029 1.824-0.041 2.748z" fill="#c71f27"/></g><g transform="translate(137.38 823.49)"><path d="m0 0c-0.118-0.84-0.25-1.674-0.404-2.507-0.852-0.154-1.706-0.292-2.562-0.411 0.122 0.869 0.228 1.742 0.317 2.617 0.884 0.089 1.768 0.187 2.649 0.301" fill="#f4db18"/></g><g transform="translate(105.37 827.95)"><path d="m0 0 0.148-0.01c0.794-0.087 1.621-0.174 2.451-0.254 0.624-0.059 1.119-0.547 1.189-1.17 0.093-0.794 0.203-1.596 0.331-2.378 0.07-0.42-0.067-0.848-0.367-1.151-0.25-0.251-0.59-0.39-0.941-0.39l-0.207 0.016c-0.173 0.029-0.348 0.055-0.519 0.084-0.161 0.54-0.314 1.124-0.475 1.812-0.12 0.507-0.523 0.897-1.033 0.999-0.612 0.12-1.218 0.247-1.806 0.378-0.029 0.183-0.057 0.368-0.083 0.551-0.057 0.405 0.076 0.817 0.361 1.11 0.251 0.259 0.595 0.403 0.951 0.403" fill="#e70986"/></g><g transform="translate(104.14 825.89)"><path d="m0 0c0.587-0.131 1.194-0.258 1.806-0.378 0.509-0.102 0.913-0.491 1.032-0.999 0.162-0.687 0.315-1.272 0.475-1.811-0.652 0.107-1.298 0.219-1.925 0.334-0.528 0.1-0.947 0.507-1.058 1.037-0.124 0.598-0.235 1.206-0.33 1.817" fill="#d5183f"/></g><g transform="translate(133.68 825.87)"><path d="m0 0c0.048-0.257 0.174-0.497 0.364-0.684 0.197-0.193 0.443-0.322 0.712-0.367-0.041-0.532-0.087-1.064-0.136-1.594-0.921-0.087-1.84-0.163-2.757-0.227 0.036 0.552 0.069 1.104 0.099 1.656 0.655 0.037 1.181 0.548 1.243 1.192 0.158 9e-3 0.316 0.017 0.475 0.024" fill="#f2851d"/></g><g transform="translate(116.41 830.18)"><path d="m0 0h0.018c0.585-8e-3 1.164-0.014 1.733-0.021 2e-3 -0.383 4e-3 -0.763 6e-3 -1.145 4e-3 -0.726 0.592-1.313 1.316-1.318 0.399-4e-3 0.801-6e-3 1.205-8e-3 7e-3 -0.591 0.019-1.183 0.032-1.769 0.01-0.363-0.13-0.712-0.388-0.97-0.25-0.249-0.585-0.385-0.936-0.385l-0.034 2e-3c-0.988 0.024-1.971 0.054-2.923 0.09-0.693 0.026-1.249 0.582-1.275 1.276-0.036 0.956-0.063 1.931-0.079 2.9-6e-3 0.36 0.134 0.704 0.387 0.96 0.248 0.248 0.586 0.388 0.938 0.388" fill="#e5106d"/></g><g transform="translate(128.87 830.15)"><path d="m0 0h9e-3l0.06-4e-3c-0.684-0.042-1.231-0.611-1.238-1.309-0.01-0.987-0.026-1.967-0.048-2.916-8e-3 -0.362 0.132-0.711 0.389-0.969 0.238-0.237 0.559-0.377 0.894-0.384l-0.073-4e-3c-1.007-0.023-2.016-0.039-3-0.049h-0.012c-0.352 0-0.689 0.139-0.937 0.387-0.252 0.252-0.392 0.594-0.39 0.95 7e-3 1.022 0.012 2.017 0.017 2.96 2e-3 0.726 0.592 1.317 1.322 1.319 1.022 4e-3 2.036 9e-3 3.007 0.019" fill="#e82431"/></g><g transform="translate(130.8 830.17)"><path d="m0 0c-2e-3 -0.366-5e-3 -0.736-8e-3 -1.097-4e-3 -0.358 0.135-0.702 0.389-0.954 0.248-0.248 0.584-0.387 0.937-0.387h0.017c0.38 5e-3 0.76 0.01 1.14 0.016-0.013-0.604-0.033-1.212-0.054-1.811l-8e-3 -0.083c-0.396-0.02-0.79-0.037-1.185-0.055-0.018-0.38-0.036-0.758-0.058-1.137l-0.025-2e-3c-0.939-0.035-1.923-0.066-2.924-0.09l-0.034-2e-3 -0.042 2e-3c0.676 0.05 1.208 0.607 1.222 1.291 0.022 0.999 0.041 1.99 0.048 2.952 3e-3 0.355-0.135 0.697-0.386 0.948-0.237 0.237-0.55 0.371-0.881 0.387l0.075 4e-3c0.594 6e-3 1.188 0.011 1.777 0.018" fill="#ec4223"/></g><g transform="translate(133.21 825.85)"><path d="m0 0c-0.062-0.644-0.588-1.155-1.243-1.192 0.022 0.379 0.039 0.757 0.057 1.137 0.396 0.018 0.79 0.035 1.186 0.055" fill="#e62b26"/></g><g transform="translate(128.94 830.14)"><path d="m0 0c0.331-0.015 0.644-0.15 0.881-0.386 0.251-0.252 0.389-0.594 0.386-0.948-7e-3 -0.963-0.026-1.954-0.048-2.952-0.014-0.685-0.546-1.242-1.222-1.292-0.335 7e-3 -0.656 0.146-0.894 0.384-0.257 0.257-0.397 0.607-0.389 0.969 0.022 0.949 0.038 1.929 0.048 2.915 7e-3 0.698 0.554 1.268 1.238 1.31" fill="#d92028"/></g><g transform="translate(136.67 830.27)"><path d="m0 0c-2e-3 -0.361-7e-3 -0.724-0.014-1.083-7e-3 -0.362 0.133-0.709 0.389-0.966 0.249-0.249 0.586-0.386 0.936-0.386h0.03c0.386 9e-3 0.759 0.018 1.117 0.026-0.029-0.59-0.064-1.14-0.104-1.661-0.05-0.653-0.573-1.169-1.229-1.216-0.896-0.065-1.813-0.124-2.731-0.176l-0.076-1e-3c-0.078 0-0.153 5e-3 -0.225 0.018 0.026 0.371 0.054 0.74 0.077 1.113-0.383-0.023-0.768-0.042-1.153-0.062-0.023 0.107-0.028 0.218-0.023 0.328 0.026 0.511 0.052 1.029 0.071 1.548 0.422 8e-3 0.841 0.014 1.254 0.021 0.714 0.013 1.291 0.591 1.302 1.305 6e-3 0.393 0.01 0.788 0.01 1.185 0.123 3e-3 0.247 6e-3 0.369 7e-3" fill="#f2aa14"/></g><g transform="translate(134.84 825.94)"><path d="m0 0c-0.023-0.372-0.051-0.742-0.077-1.112-0.269 0.045-0.515 0.174-0.712 0.367-0.19 0.186-0.316 0.426-0.364 0.684 0.385 0.02 0.769 0.039 1.153 0.061" fill="#ee551e"/></g><g transform="translate(147.35 831.3)"><path d="m0 0c0.339-0.011 0.666-0.152 0.907-0.396 0.263-0.265 0.402-0.633 0.381-1.008-0.047-0.77-0.129-1.549-0.252-2.31-0.094-0.581-0.558-1.031-1.141-1.104-0.754-0.095-1.546-0.192-2.355-0.282l-0.149-8e-3c-0.35 0-0.69 0.139-0.94 0.391-0.283 0.289-0.423 0.69-0.373 1.092 0.09 0.751 0.156 1.514 0.198 2.269 0.037 0.684 0.588 1.224 1.271 1.253l0.079 1e-3c0-0.386-8e-3 -0.775-0.019-1.165 0.788 0.029 1.577 0.056 2.364 0.091 0.022 0.39 0.029 0.782 0.029 1.176" fill="#70c82d"/></g><g transform="translate(110.4 833.2)"><path d="m0 0c0.349 0 0.689-0.138 0.936-0.386 0.255-0.256 0.398-0.605 0.39-0.966-0.019-0.882-0.019-1.777 0-2.658 8e-3 -0.363-0.135-0.711-0.39-0.967-0.247-0.249-0.587-0.386-0.936-0.386h-0.032c-0.973 0.023-1.836 0.042-2.636 0.068-0.7 0.019-1.268 0.581-1.29 1.282-0.027 0.884-0.027 1.779 0 2.663 0.022 0.699 0.59 1.264 1.29 1.283 0.819 0.023 1.682 0.045 2.636 0.067z" fill="#a41488"/></g><g transform="translate(118.16 830.77)"><path d="m0 0c0.344-0.275 0.771-0.427 1.215-0.427h0.016c1.423 0.013 2.905 0.02 4.407 0.026h0.03c3e-3 -0.453 3e-3 -0.905 5e-3 -1.355 0-0.354-0.141-0.69-0.39-0.94-0.249-0.249-0.585-0.389-0.937-0.389h-4e-3c-0.602 3e-3 -1.21 4e-3 -1.815 8e-3 -6e-3 0.385-0.01 0.768-0.016 1.146-5e-3 0.723-0.59 1.308-1.313 1.314-0.392 3e-3 -0.791 7e-3 -1.198 0.011z" fill="#e61169"/></g><g transform="translate(122.5 833.35)"><path d="m0 0h4e-3c0.352 0 0.688-0.141 0.936-0.388 0.25-0.251 0.391-0.589 0.391-0.942-2e-3 -0.547-5e-3 -1.101-5e-3 -1.654h-0.03c-1.503-5e-3 -2.985-0.013-4.407-0.026h-0.016c-0.444 0-0.871 0.152-1.215 0.427 0 0.416 3e-3 0.834 6e-3 1.248 3e-3 0.727 0.592 1.314 1.316 1.318 1.014 9e-3 2.029 0.013 3.02 0.017" fill="#d71b33"/></g><g transform="translate(118.16 830.16)"><path d="m0 0c0.407-4e-3 0.806-8e-3 1.198-0.011 0.723-6e-3 1.308-0.591 1.313-1.314 6e-3 -0.379 0.01-0.761 0.016-1.146-0.404 2e-3 -0.806 4e-3 -1.205 8e-3 -0.724 5e-3 -1.312 0.592-1.316 1.318-2e-3 0.382-4e-3 0.762-6e-3 1.145" fill="#d71c30"/></g><g transform="translate(132.11 833.3)"><path d="m0 0h0.016c0.924-0.013 1.884-0.027 2.855-0.043 0.714-0.011 1.291-0.59 1.303-1.305 8e-3 -0.562 0.011-1.126 0.01-1.69-0.398-0.01-0.808-0.018-1.229-0.027-0.71-0.016-1.281-0.583-1.298-1.292-0.012-0.397-0.024-0.796-0.039-1.193-0.153-1e-3 -0.306-4e-3 -0.461-5e-3 0.011 0.363 0.017 0.726 0.025 1.088 5e-3 0.36-0.137 0.704-0.389 0.96-0.25 0.248-0.586 0.388-0.937 0.388h-0.019c-0.381-5e-3 -0.769-0.01-1.155-0.014 0 0.597-2e-3 1.197-8e-3 1.793-5e-3 0.357 0.135 0.702 0.389 0.954 0.248 0.248 0.584 0.386 0.937 0.386" fill="#f25629"/></g><g transform="translate(131.95 830.18)"><path d="m0 0h0.018c0.351 0 0.688-0.14 0.938-0.388 0.252-0.256 0.394-0.6 0.388-0.96-7e-3 -0.362-0.013-0.725-0.025-1.088-0.38-6e-3 -0.759-0.011-1.14-0.016h-0.016c-0.353 0-0.69 0.138-0.938 0.387-0.254 0.252-0.393 0.596-0.388 0.953 3e-3 0.362 5e-3 0.731 7e-3 1.098 0.387 4e-3 0.774 9e-3 1.156 0.014" fill="#de2524"/></g><g transform="translate(136.3 830.26)"><path d="m0 0c0-0.397-4e-3 -0.792-0.01-1.186-0.011-0.713-0.588-1.292-1.301-1.304-0.414-7e-3 -0.833-0.014-1.254-0.021 0.014 0.397 0.027 0.795 0.038 1.192 0.018 0.709 0.588 1.277 1.298 1.292 0.421 0.01 0.831 0.017 1.229 0.027" fill="#e83f1f"/></g><g transform="translate(137.98 833.2)"><path d="m0 0h0.03c1.02-0.025 1.857-0.044 2.639-0.067 0.7-0.019 1.265-0.584 1.289-1.283 0.028-0.886 0.028-1.783 0-2.665-0.024-0.699-0.589-1.261-1.289-1.28-0.487-0.016-0.994-0.029-1.523-0.041 0.016 0.34 0.029 0.697 0.042 1.069 0.012 0.364-0.128 0.718-0.384 0.977-0.25 0.252-0.589 0.392-0.94 0.392h-0.035c-0.376-9e-3 -0.753-0.019-1.14-0.03 2e-3 0.526-4e-3 1.053-0.015 1.576-7e-3 0.361 0.134 0.71 0.39 0.966 0.249 0.248 0.585 0.386 0.936 0.386" fill="#f7d01e"/></g><g transform="translate(137.84 830.3)"><path d="m0 0c0.352 0 0.69-0.14 0.94-0.392 0.256-0.259 0.397-0.613 0.385-0.977-0.014-0.372-0.027-0.729-0.042-1.069-0.358-9e-3 -0.731-0.018-1.117-0.027h-0.03c-0.35 0-0.687 0.137-0.936 0.386-0.256 0.257-0.396 0.604-0.389 0.966 7e-3 0.359 0.012 0.722 0.014 1.083 0.387 0.011 0.765 0.021 1.14 0.03z" fill="#f08314"/></g><g transform="translate(144.96 832.44)"><path d="m0 0c0.788-0.027 1.577-0.058 2.364-0.089 0.019-0.349 0.028-0.701 0.029-1.049h-0.035l-0.06-3e-3c-0.725-0.032-1.469-0.064-2.279-0.099 0 0.415-7e-3 0.826-0.019 1.24" fill="#84cd2c"/></g><g transform="translate(147.31 831.3)"><path d="m0 0h0.036c0-0.394-7e-3 -0.786-0.029-1.176-0.788-0.035-1.576-0.062-2.365-0.091 0.012 0.39 0.02 0.779 0.02 1.165 0.809 0.036 1.553 0.067 2.278 0.099z" fill="#439d39"/></g><g transform="translate(105.23 835.56)"><path d="m0 0c0.352 0 0.692-0.14 0.942-0.391 0.285-0.288 0.423-0.69 0.374-1.093-0.089-0.747-0.155-1.509-0.198-2.273-0.038-0.68-0.587-1.221-1.27-1.248-0.84-0.034-1.611-0.067-2.357-0.101l-0.061-2e-3c-0.353 0-0.693 0.143-0.942 0.395-0.265 0.268-0.403 0.632-0.382 1.007 0.045 0.772 0.13 1.549 0.252 2.312 0.092 0.581 0.556 1.032 1.14 1.105 0.758 0.096 1.549 0.192 2.355 0.282z" fill="#66268e"/></g><g transform="translate(116.41 836.37)"><path d="m0 0 0.14-0.015c-0.021-0.37-0.038-0.741-0.054-1.112 0.325 0.013 0.652 0.025 0.979 0.037-0.019-0.977-0.032-1.971-0.042-2.974-4e-3 -0.199 0.025-0.394 0.083-0.58-0.183-0.507-0.663-0.869-1.229-0.875-0.937-0.015-1.891-0.033-2.842-0.049h-0.026c-0.351 0-0.69 0.139-0.938 0.389-0.257 0.258-0.396 0.607-0.386 0.967 0.021 0.936 0.059 1.888 0.109 2.825 0.039 0.675 0.578 1.215 1.254 1.251l0.163 9e-3c-0.029-0.381-0.055-0.763-0.082-1.146 0.938 0.054 1.877 0.1 2.817 0.14 0.018 0.379 0.037 0.755 0.054 1.133" fill="#bf0d87"/></g><g transform="translate(117.65 835.28)"><path d="m0 0c0.017-0.094 0.027-0.19 0.022-0.29-0.035-0.947-0.063-1.903-0.08-2.845-2e-3 -0.149-0.028-0.293-0.077-0.425-0.057 0.187-0.086 0.381-0.082 0.58 9e-3 1.003 0.023 1.997 0.042 2.974z" fill="#ae1741"/></g><g transform="translate(125.76 836.51)"><path d="m0 0c-0.012-1.454-0.019-2.871-0.023-4.211-2e-3 -0.481-0.177-0.918-0.466-1.258-0.431 0.219-0.723 0.663-0.724 1.178-5e-3 0.939-0.01 1.935-0.018 2.958-2e-3 0.356 0.139 0.697 0.391 0.948 0.225 0.227 0.525 0.364 0.84 0.385" fill="#d81f28"/></g><g transform="translate(116.51 838.03)"><path d="m0 0c-0.038-0.556-0.071-1.11-0.102-1.663l-0.064 2e-3 -0.052-2e-3c-0.896-0.037-1.794-0.079-2.672-0.127 0.04 0.521 0.084 1.042 0.132 1.563 0.92 0.087 1.839 0.16 2.758 0.227" fill="#9e1589"/></g><g transform="translate(116.35 836.37)"><path d="m0 0 0.063-2e-3c-0.017-0.378-0.036-0.754-0.053-1.133-0.941-0.04-1.879-0.086-2.818-0.14 0.027 0.383 0.053 0.766 0.083 1.146 0.879 0.048 1.777 0.091 2.672 0.127z" fill="#761549"/></g><g transform="translate(118.27 838.13)"><path d="m0 0c-0.456-0.345-0.756-0.89-0.77-1.507-7e-3 -0.296-0.013-0.596-0.02-0.898-0.054 0.092-0.121 0.177-0.198 0.254-0.201 0.198-0.459 0.329-0.733 0.369 0.029 0.564 0.062 1.124 0.098 1.687 0.539 0.035 1.082 0.067 1.623 0.095" fill="#c90f87"/></g><g transform="translate(119.5 838.19)"><path d="m0 0c-0.038-0.954-0.068-1.906-0.093-2.857-0.584-0.016-1.167-0.033-1.75-0.055-0.027 0.16-0.086 0.309-0.17 0.447 8e-3 0.302 0.014 0.601 0.021 0.898 0.014 0.616 0.314 1.161 0.77 1.506 0.408 0.022 0.814 0.044 1.222 0.061" fill="#bb1942"/></g><g transform="translate(116.55 836.35)"><path d="m0 0c0.274-0.04 0.532-0.171 0.734-0.369 0.077-0.077 0.143-0.163 0.197-0.254-2e-3 -0.15-5e-3 -0.303-6e-3 -0.452-0.327-0.011-0.654-0.023-0.979-0.037 0.016 0.372 0.033 0.743 0.054 1.112" fill="#951549"/></g><g transform="translate(117.48 835.73)"><path d="m0 0c0.084-0.137 0.142-0.287 0.169-0.446l-0.175-6e-3c1e-3 0.149 4e-3 0.302 6e-3 0.452" fill="#891628"/></g><g transform="translate(126.98 838.25)"><path d="m0 0c0.586-0.015 1.173-0.032 1.76-0.054 0.022-0.577 0.042-1.152 0.059-1.729-0.987 0.021-1.971 0.036-2.933 0.047h-0.026c-2e-3 0.211-6e-3 0.426-7e-3 0.638 0.29 0.036 0.566 0.169 0.776 0.381 0.196 0.196 0.325 0.447 0.371 0.717" fill="#e71a4f"/></g><g transform="translate(125.86 836.52)"><path d="m0 0h0.012c0.963-0.011 1.948-0.025 2.934-0.046 0.013-0.377 0.023-0.754 0.033-1.131-0.994 0.022-1.99 0.039-2.982 0.05-3e-3 0.375-5e-3 0.75-0.01 1.127z" fill="#d81f28"/></g><g transform="translate(135.89 837.67)"><path d="m0 0c0.506-0.056 1.013-0.112 1.516-0.175 0.115-0.861 0.207-1.729 0.276-2.592-0.902 0.066-1.805 0.127-2.711 0.179-0.037 0.534-0.075 1.065-0.118 1.596 0.258 0.05 0.498 0.177 0.691 0.369 0.173 0.173 0.292 0.389 0.346 0.623" fill="#ef701e"/></g><g transform="translate(124.19 842.61)"><path d="m0 0c0.484 0 0.975-6e-3 1.46-0.012 0.715-0.012 1.294-0.587 1.305-1.302 0.018-0.919 0.031-1.864 0.043-2.809 2e-3 -0.08-5e-3 -0.158-0.016-0.236-0.388 0.011-0.775 0.02-1.161 0.024 4e-3 -0.374 9e-3 -0.746 0.014-1.123l-0.14-9e-3c-0.085 0.332-0.26 0.636-0.505 0.884-0.364 0.362-0.858 0.566-1.372 0.566h-0.018c-0.797-8e-3 -1.606-0.019-2.42-0.031 0.014 0.921 0.026 1.838 0.045 2.734 0.01 0.715 0.586 1.29 1.303 1.302 0.485 6e-3 0.977 0.012 1.462 0.012" fill="#e70e72"/></g><g transform="translate(123.8 838.59)"><path d="m0 0h0.018c0.515 0 1.008-0.204 1.372-0.566 0.246-0.247 0.421-0.551 0.505-0.884h-0.036c-0.488 6e-3 -0.981 9e-3 -1.469 9e-3s-0.982-3e-3 -1.469-9e-3h-0.015c-0.352 0-0.691 0.142-0.939 0.39-0.252 0.253-0.392 0.597-0.386 0.954v0.075c0.813 0.012 1.622 0.023 2.419 0.031" fill="#d51a36"/></g><g transform="translate(125.82 838.28)"><path d="m0 0c0.386-4e-3 0.773-0.012 1.162-0.024-0.047-0.27-0.176-0.521-0.372-0.717-0.209-0.212-0.485-0.345-0.776-0.381-4e-3 0.377-0.01 0.749-0.014 1.122" fill="#d81d29"/></g><g transform="translate(131.63 842.25)"><path d="m0 0 0.137-8e-3c1.03-0.106 1.892-0.209 2.711-0.323 0.588-0.081 1.048-0.542 1.131-1.129 0.122-0.879 0.229-1.777 0.319-2.671 0.014-0.152 4e-3 -0.302-0.033-0.444-0.377 0.041-0.757 0.08-1.137 0.116 0.036-0.368 0.068-0.737 0.101-1.108-0.083-0.016-0.168-0.025-0.249-0.025l-0.128 7e-3c-0.897 0.087-1.811 0.164-2.723 0.231-0.656 0.047-1.176 0.569-1.223 1.224-0.067 0.896-0.142 1.797-0.225 2.678-0.038 0.396 0.103 0.788 0.384 1.067 0.25 0.248 0.587 0.385 0.935 0.385" fill="#eb2f2d"/></g><g transform="translate(134.75 837.79)"><path d="m0 0c0.38-0.036 0.76-0.075 1.138-0.116-0.054-0.234-0.174-0.45-0.347-0.624-0.192-0.192-0.432-0.319-0.69-0.369-0.033 0.372-0.065 0.741-0.101 1.109" fill="#dd2226"/></g><g transform="translate(139.67 840.95)"><path d="m0 0c0.101 0 0.202-0.012 0.303-0.034l0.027-7e-3 0.015-0.034c0.139-0.331 0.405-0.592 0.741-0.724 0.784-0.307 1.417-0.57 1.987-0.831 0.177-0.082 0.364-0.12 0.55-0.12h0.037c0.057-0.198 0.111-0.396 0.166-0.596-0.462 0.142-0.927 0.277-1.394 0.407 0.227-0.722 0.416-1.453 0.587-2.19 0.396-0.079 0.792-0.159 1.184-0.244-0.048-0.242-0.166-0.469-0.342-0.654-0.252-0.259-0.599-0.405-0.956-0.405-0.083 0-0.166 5e-3 -0.246 0.023-0.77 0.144-1.57 0.284-2.376 0.419-0.551 0.09-0.988 0.517-1.091 1.067-0.141 0.772-0.302 1.542-0.479 2.29-0.108 0.447 0.024 0.919 0.348 1.243 0.251 0.253 0.591 0.39 0.939 0.39" fill="#f5df14"/></g><g transform="translate(143.5 838.6)"><path d="m0 0c0.263-0.083 0.527-0.164 0.788-0.25 0.258-0.66 0.482-1.333 0.674-2.013-0.36 0.08-0.722 0.159-1.085 0.236 0.038 0.183 0.038 0.377-8e-3 0.566-0.111 0.49-0.236 0.976-0.369 1.461" fill="#b2db1b"/></g><g transform="translate(142.1 839.01)"><path d="m0 0c0.467-0.131 0.932-0.265 1.394-0.408 0.133-0.484 0.258-0.971 0.369-1.461 0.047-0.189 0.047-0.383 8e-3 -0.566-0.392 0.085-0.788 0.166-1.184 0.245-0.171 0.736-0.36 1.467-0.587 2.19" fill="#b3bc1b"/></g><g transform="translate(108.09 841.98)"><path d="m0 0c-0.183-0.61-0.354-1.226-0.51-1.844-0.088-0.338-0.034-0.693 0.135-0.987-0.044-0.13-0.088-0.261-0.129-0.392-0.134-0.423-0.471-0.749-0.896-0.873-0.836-0.24-1.51-0.448-2.121-0.654-0.137-0.045-0.28-0.069-0.421-0.069-0.358 0-0.708 0.146-0.964 0.415-0.353 0.374-0.46 0.923-0.267 1.402 0.272 0.687 0.584 1.37 0.926 2.033 0.138 0.264 0.363 0.478 0.634 0.602 0.181 0.078 0.367 0.16 0.558 0.242 0.059-0.119 0.135-0.229 0.23-0.328 0.256-0.267 0.607-0.409 0.958-0.409 0.234 0 0.47 0.062 0.68 0.19 0.385 0.23 0.781 0.453 1.187 0.672" fill="#3554ab"/></g><g transform="translate(111.83 844.04)"><path d="m0 0c0.345 0 0.681-0.136 0.933-0.385 0.328-0.325 0.465-0.802 0.355-1.254-0.184-0.767-0.358-1.556-0.516-2.345-0.105-0.53-0.52-0.941-1.053-1.043-0.808-0.156-1.615-0.325-2.397-0.5-0.098-0.023-0.195-0.034-0.292-0.034-0.354 0-0.699 0.144-0.951 0.402-0.077 0.08-0.145 0.171-0.198 0.265 0.181 0.538 0.381 1.075 0.594 1.596 0.175 0.427 0.116 0.908-0.146 1.273 0.188 0.099 0.376 0.195 0.565 0.292 0.248 0.124 0.448 0.322 0.577 0.566 0.11 0.207 0.225 0.415 0.341 0.619 0.608 0.177 1.235 0.346 1.861 0.507 0.109 0.026 0.217 0.041 0.327 0.041" fill="#30429a"/></g><g transform="translate(108.16 842.02)"><path d="m0 0c0.262-0.365 0.321-0.846 0.146-1.273-0.213-0.521-0.413-1.058-0.594-1.596-0.169 0.294-0.223 0.649-0.136 0.986 0.157 0.619 0.327 1.235 0.511 1.845z" fill="#25295d"/></g><g transform="translate(117.44 847.7)"><path d="m0 0c0.342 0 0.677-0.133 0.927-0.375 0.307-0.3 0.45-0.731 0.384-1.156-0.124-0.792-0.244-1.622-0.353-2.463-0.078-0.588-0.539-1.054-1.128-1.138-0.832-0.12-1.668-0.254-2.486-0.406-0.08-0.014-0.161-0.021-0.24-0.021-0.35 0-0.689 0.138-0.939 0.39-0.309 0.31-0.445 0.75-0.365 1.181 0.155 0.823 0.325 1.646 0.502 2.449 0.112 0.497 0.497 0.885 0.989 1.003 0.817 0.192 1.647 0.365 2.473 0.514 0.078 0.014 0.157 0.022 0.236 0.022" fill="#5a288c"/></g><g transform="translate(122.75 848.25)"><path d="m0 0c0.348 0 0.682-0.137 0.932-0.385 0.261-0.258 0.403-0.616 0.392-0.983-0.027-0.916-0.054-1.76-0.074-2.581-0.018-0.702-0.579-1.267-1.281-1.29-0.887-0.03-1.778-0.077-2.651-0.143l-0.098-3e-3c-0.35 0-0.688 0.138-0.938 0.389-0.271 0.271-0.413 0.651-0.384 1.035 0.066 0.864 0.136 1.731 0.211 2.574 0.056 0.638 0.559 1.144 1.196 1.205 0.87 0.081 1.756 0.141 2.638 0.179z" fill="#c50f89"/></g><g transform="translate(128.32 848.06)"><path d="m0 0 0.146-8e-3c0.86-0.095 1.719-0.215 2.562-0.354 0.568-0.092 1.011-0.539 1.096-1.107 0.128-0.827 0.246-1.676 0.356-2.526 0.051-0.409-0.089-0.819-0.38-1.109-0.251-0.25-0.588-0.386-0.936-0.386l-0.175 0.011c-0.85 0.114-1.71 0.206-2.561 0.276-0.648 0.053-1.164 0.568-1.214 1.218-0.065 0.85-0.137 1.702-0.213 2.541-0.037 0.394 0.108 0.786 0.391 1.065 0.251 0.245 0.586 0.379 0.928 0.379" fill="#e71d48"/></g><g transform="translate(140.23 844.69)"><path d="m0 0c0.206-0.15 0.408-0.304 0.608-0.46-0.128 0.154-0.256 0.306-0.387 0.456 0.154-0.015 0.31-0.058 0.454-0.131 0.687-0.34 1.364-0.704 2.008-1.085 0.175-0.103 0.323-0.244 0.434-0.415 0.404-0.615 0.784-1.258 1.125-1.909 0.263-0.502 0.179-1.117-0.211-1.527-0.247-0.264-0.581-0.407-0.925-0.415-0.023 0.075-0.046 0.148-0.07 0.223-0.13 0.44-0.48 0.779-0.923 0.901-0.757 0.202-1.544 0.399-2.338 0.584-0.26 0.624-0.55 1.245-0.861 1.846-0.266 0.508-0.172 1.128 0.228 1.536 0.235 0.238 0.54 0.375 0.858 0.396" fill="#cadf16"/></g><g transform="translate(140 840.91)"><path d="m0 0c0.794-0.186 1.581-0.383 2.338-0.585 0.443-0.121 0.793-0.46 0.923-0.901 0.024-0.075 0.047-0.148 0.07-0.223h-0.038c-0.186 0-0.373 0.039-0.55 0.12-0.57 0.261-1.203 0.524-1.987 0.831-0.336 0.132-0.602 0.393-0.741 0.724z" fill="#c6bf18"/></g><g transform="translate(108.34 846.36)"><path d="m0 0-0.081-0.125c-0.336-0.524-0.26-1.212 0.181-1.652 0.255-0.256 0.594-0.388 0.938-0.388 0.246 0 0.497 0.069 0.714 0.209l0.156 0.1c-0.21-0.331-0.411-0.669-0.602-1.013-0.177-0.05-0.351-0.1-0.524-0.153-0.423-0.126-0.753-0.455-0.885-0.876-0.039-0.129-0.079-0.26-0.116-0.388l-0.087 0.098c-0.257 0.259-0.6 0.398-0.95 0.398-0.159 0-0.321-0.029-0.476-0.087-0.59-0.229-1.104-0.433-1.573-0.633-0.207 0.416-0.183 0.92 0.084 1.323 0.404 0.608 0.846 1.206 1.309 1.777 0.066 0.081 0.139 0.153 0.222 0.217 0.543 0.416 1.111 0.816 1.69 1.193" fill="#3f88d0"/></g><g transform="translate(107.08 842.57)"><path d="m0 0c0.35 0 0.693-0.138 0.95-0.398l0.087-0.098-0.031-0.098c-0.406-0.219-0.802-0.442-1.187-0.672-0.21-0.128-0.446-0.19-0.681-0.19-0.35 0-0.701 0.142-0.957 0.409-0.095 0.099-0.171 0.208-0.23 0.328 0.469 0.199 0.983 0.404 1.573 0.633 0.155 0.057 0.316 0.086 0.476 0.086" fill="#283c81"/></g><g transform="translate(109.64 843.49)"><path d="m0 0c-0.115-0.204-0.231-0.411-0.34-0.619-0.129-0.243-0.329-0.441-0.577-0.565-0.19-0.097-0.377-0.194-0.566-0.293l-0.042 0.06c0.038 0.129 0.077 0.26 0.116 0.388 0.132 0.422 0.462 0.75 0.886 0.876 0.172 0.053 0.346 0.103 0.523 0.153" fill="#283473"/></g><g transform="translate(108.12 842.08)"><path d="m0 0 0.042-0.06-0.073-0.038z" fill="#1d1f46"/></g><g transform="translate(112.29 849.83)"><path d="m0 0c0.332 0 0.661-0.124 0.916-0.365 0.449-0.429 0.54-1.109 0.221-1.641-0.344-0.578-0.675-1.179-0.984-1.792-0.123-0.248-0.321-0.45-0.565-0.58-0.556-0.291-1.102-0.607-1.629-0.939l0.079 0.123c0.334 0.525 0.261 1.213-0.179 1.652-0.256 0.255-0.596 0.388-0.937 0.388-0.247 0-0.495-0.067-0.713-0.207l-0.158-0.1c0.377 0.58 0.779 1.151 1.196 1.692 0.062 0.08 0.133 0.153 0.213 0.218 0.576 0.47 1.183 0.916 1.807 1.332 0.225 0.148 0.48 0.219 0.733 0.219" fill="#3d83cd"/></g><g transform="translate(109.21 846.67)"><path d="m0 0c0.34 0 0.681-0.134 0.936-0.388 0.441-0.439 0.514-1.127 0.179-1.652l-0.079-0.123-0.155-0.1c-0.218-0.141-0.469-0.21-0.714-0.21-0.344 0-0.683 0.133-0.938 0.388-0.441 0.441-0.518 1.128-0.181 1.652l0.081 0.125 0.157 0.1c0.219 0.141 0.467 0.208 0.714 0.208" fill="#274c9e"/></g><g transform="translate(120.63 853.11)"><path d="m0 0c0.34 0 0.672-0.13 0.922-0.372 0.302-0.292 0.448-0.71 0.39-1.126-0.095-0.742-0.19-1.508-0.279-2.272-0.07-0.597-0.534-1.075-1.128-1.16-0.747-0.106-1.497-0.239-2.231-0.394-0.091-0.018-0.183-0.029-0.273-0.029-0.344 0-0.679 0.136-0.931 0.382-0.316 0.312-0.455 0.762-0.371 1.197 0.173 0.886 0.323 1.609 0.471 2.27 0.108 0.481 0.469 0.86 0.943 0.989 0.742 0.203 1.505 0.371 2.269 0.498z" fill="#7e208c"/></g><g transform="translate(125.43 853.37)"><path d="m0 0 0.073-2e-3c0.789-0.044 1.579-0.129 2.351-0.255 0.58-0.092 1.028-0.556 1.103-1.139 0.096-0.75 0.188-1.529 0.279-2.315 0.046-0.402-0.097-0.803-0.384-1.089-0.249-0.249-0.588-0.385-0.935-0.385l-0.156 0.01c-0.762 0.093-1.535 0.16-2.307 0.202-0.684 0.037-1.225 0.589-1.251 1.271-0.033 0.795-0.067 1.575-0.098 2.318-0.017 0.376 0.124 0.74 0.392 1.001 0.249 0.247 0.583 0.383 0.933 0.383" fill="#e61067"/></g><g transform="translate(132.14 851.89)"><path d="m0 0c0.163 0 0.329-0.031 0.486-0.093 0.702-0.276 1.397-0.592 2.07-0.941 0.264-0.138 0.475-0.362 0.598-0.637 0.306-0.681 0.598-1.389 0.867-2.101 0.187-0.494 0.061-1.053-0.317-1.421-0.253-0.243-0.585-0.373-0.923-0.373-0.17 0-0.343 0.033-0.505 0.102-0.592 0.241-1.239 0.479-2.032 0.739-0.417 0.137-0.738 0.471-0.861 0.892-0.236 0.823-0.44 1.485-0.639 2.087-0.165 0.488-0.029 1.029 0.345 1.382 0.251 0.239 0.578 0.364 0.911 0.364" fill="#ee4925"/></g><g transform="translate(140.31 844.69)"><path d="m0 0 0.133-7e-3c0.13-0.15 0.258-0.302 0.386-0.456-0.2 0.156-0.402 0.31-0.608 0.46z" fill="#a7c11e"/></g><g transform="translate(126.46 815.57)"><path d="m0 0 0.63 0.02-0.21 0.82z" fill="#fff"/></g></g><g transform="matrix(.90564 0 0 .90564 9.549 76.203)"><g transform="matrix(1.6298 0 0 -1.6298 180.38 1022.4)"><path d="m25.045 24.07h16.17v36.48l30.075-36.48h33.655v47.98c0 11.349 5.3276 16.26 15.807 16.26h14.788c2.93 5.64 8.24 9.24 13.42 12.61h-33c-18.83 0-27.145-10.017-27.145-28.87v-45.32l-28.835 35.1 37.15 39.09h-20.89l-35.025-37.92v37.92h-16.17z"/><path d="m169.02 24.07h28.59v13.24h-27.66c-13.77 0-17.85 10.477-17.85 25.142 0 14.059 3.5 25.058 16.96 25.058h28.55v13.41h-28.59c-24.4 0-34.67-13.907-34.67-38.468 0-24.945 10.735-38.446 34.67-38.382z"/><path d="m234.02 24.07h37.27c0 4.62 0.04 9.145-0.03 13.765h-39.7c-6.6774 0-12.789 1.887-12.789 9.1575 0 7.1166 5.623 9.1568 12.789 9.1568h20.5c16.145 0 23.027 8.0506 23.027 22.431 0 13.984-7.2479 22.34-23.027 22.34h-50.2c-0.02-4.45 0-8.96-0.02-13.41h45.645c6.1373 0 10.104-2.573 10.339-8.9298 0-6.8271-4.7178-8.9302-10.339-8.9302h-24.145c-14.098 0-21.679-8.1018-21.568-22.658 0-20.889 14.229-22.922 32.248-22.922z"/></g><path d="m763.71 920.95c0-35.159-28.591-63.75-63.75-63.75s-63.75 28.591-63.75 63.75 28.591 63.75 63.75 63.75c35.352 0 63.75-28.591 63.75-63.75z" stroke-width="1.9318"/></g><path class="st1" d="m649.41 942.44h-17.495c-14.346 0-26.068-9.9723-26.068-24.843 0-12.422 7.523-21.344 18.72-23.094v-17.32h23.269v16.621h3.1492c3.849 0.34991 6.2983 2.7992 6.2983 6.2983v9.6224h6.2983zm-4.5488-27.992c-3.1492 0-5.7734 2.6243-5.7734 5.7734s2.6243 5.7734 5.7734 5.7734 5.7734-2.6243 5.7734-5.7734-2.6243-5.7734-5.7734-5.7734zm24.143 27.992h-9.4475l14.346-32.541h-6.4732v-8.5727c0-5.2486-2.0994-7.523-9.2725-7.348v-16.621h9.2725v16.621h2.9742c2.7992 0 6.2983 2.0994 6.4732 6.4732v9.6224h6.2983z" fill="#fff" stroke-width="1.7495"/></g></svg>
