<svg width="800" height="234.34" version="1.1" xmlns="http://www.w3.org/2000/svg">
 <g fill="#777978" stroke-width="1.2546">
  <path d="m733.16 158.37c-0.0128-14.251-2.9741-26.261-8.8835-36.032-5.9097-9.7705-14.691-17.263-26.344-22.477 6.554-4.6841 11.366-10.172 14.436-16.465 3.0695-6.2923 4.5884-13.772 4.5566-22.438-0.35754-17.818-6.1522-32.343-17.384-43.575-11.232-11.232-25.757-17.026-43.575-17.384-16.114 0.019401-29.682 4.8823-40.703 14.589-11.021 9.707-17.467 24.143-19.337 43.307h41.354c0.90615-7.0198 2.9228-12.202 6.05-15.546 3.127-3.3439 7.4411-5.0032 12.942-4.9778 5.9222 0.1087 10.696 2.1126 14.321 6.0117 3.6248 3.8995 5.4883 9.0432 5.5905 15.431 0.15306 7.7668-2.4507 13.523-7.8114 17.269-5.3608 3.7463-14.397 5.7502-27.11 6.0117v39.21h6.7392c13.644 0.14689 24.417 3.6058 32.318 10.377 7.9006 6.7712 11.934 15.974 12.1 27.608-0.19794 11.085-3.5548 20.084-10.071 26.995-6.5159 6.9116-15.004 10.473-25.463 10.683-9.9366-0.1276-18.169-3.3185-24.698-9.5728-6.5287-6.2541-10.549-14.806-12.062-25.655h-41.048c1.6082 21.654 9.4961 39.076 23.664 52.267 14.168 13.191 32.318 19.969 54.45 20.332 22.33-0.42758 40.467-7.6135 54.411-21.558 13.944-13.944 21.13-32.081 21.558-54.411z"/>
  <path d="m800 230.36v-226.38h-69.23v38.291h28.488v188.09z"/>
 </g>
 <g fill="#141414">
  <path d="m195.21 229.7c27.632-0.79947 52.673-12.586 71.408-31.202 17.015 19.119 41.827 31.202 69.367 31.202 27.678 0 52.581-12.198 69.596-31.499 17.038 19.302 41.941 31.499 69.619 31.499 51.022 0 92.734-41.527 92.734-92.374v-134.31h-60.538v134.31c0 19.69-15.8 35.817-35.566 35.817-19.79 0-35.979-16.127-35.979-35.817v-134.31h-60.538v134.31c0 19.69-16.189 35.817-35.979 35.817-19.767 0-35.566-16.127-35.566-35.817v-134.31h-60.538v114.1c-0.43569 28.187-21.097 51.578-46.459 52.331l-88.537-0.0228c-26.325 0-47.72-23.71-47.72-52.88 0-29.375 21.395-53.268 47.72-53.268h88.698v-60.281h-88.698c-59.69 0-108.24 50.87-108.24 113.55 0 62.314 48.545 113.16 108.24 113.16h86.978z"/>
  <path d="m113.16 134.89v-30.951h11.053v-6.0989h-29.742v6.0989h11.053v30.951z"/>
  <path d="m191.99 103.93v-6.0989h-24.078v37.05h24.766v-6.0989h-17.107v-9.6166h15.02v-6.2359h-15.02v-8.9998z"/>
  <path d="m160.7 134.89v-37.05h-7.6132v15.099h-15.823v-15.099h-7.6132v37.027h7.6132v-15.693h15.823v15.715z"/>
 </g>
</svg>
