<svg width="556.84" height="800" version="1.1" xmlns="http://www.w3.org/2000/svg" xmlns:xlink="http://www.w3.org/1999/xlink">
 <link href="" rel="stylesheet" type="text/css"/>
 <style type="text/css"/>
 <defs>
  <linearGradient id="linearGradient3087">
   <stop stop-color="#4868a5" offset="0"/>
   <stop stop-color="#fff" offset="1"/>
  </linearGradient>
  <radialGradient id="radialGradient4093" cx="588.56" cy="411.24" r="561.55" gradientTransform="matrix(-1.0357 1.0357 -1.0356 -1.0356 1623.5 339.31)" gradientUnits="userSpaceOnUse" xlink:href="#linearGradient3087"/>
  <radialGradient id="radialGradient4095" cx="588.56" cy="411.24" r="561.55" gradientTransform="matrix(-1.0357 1.0357 -1.2837 -1.2837 1725.6 441.31)" gradientUnits="userSpaceOnUse" xlink:href="#linearGradient3087"/>
 </defs>
 <g transform="matrix(.4748 0 0 .4748 .23757 -.51932)">
  <path d="m-0.5 1.0938v504.31h1172.8v-504.31z" fill="#e31836" fill-rule="evenodd"/>
  <path d="m-0.5 1441.6v244.35h1172.8v-244.35z" fill="#e31836" fill-rule="evenodd"/>
  <path d="m-0.50035 505.43v936.22h1172.8v-936.22z" fill="#014991" fill-rule="evenodd"/>
  <path d="m24.603 1389.3 200.61-869.12h-162.76l-37.851 548.85z" fill="url(#radialGradient4093)"/>
  <path d="m613.84 520.55h-204.95l-375.2 900.55 6.1431 0.021z" fill="url(#radialGradient4095)"/>
  <path d="m1147.7 1389.3-200.61-869.12h162.76l37.852 548.85z" fill="url(#radialGradient4095)"/>
  <path d="m558.48 520.55h204.95l375.2 900.55-6.1431 0.021z" fill="url(#radialGradient4095)"/>
  <path d="m34.985 1421.4z" fill="none" stroke="#000" stroke-width="1px"/>
  <path d="m142.03 62.25v368.5h109.03v-118.97h103.62v-101.34h-103.62v-47.625h128.97l-8.4375-100.56z" fill="#fff" fill-rule="evenodd"/>
  <path d="m699.41 62.25 105.5 176.34-111.66 190.62h119l52.781-90.125 53.938 90.125h119l-114.06-190.62 103.31-176.34h-119l-44.438 75.844-45.375-75.844z" fill="#fff" fill-rule="evenodd"/>
  <path d="m561.97 61.5c-104.31 0-188.84 83.335-188.84 186.16s84.539 186.19 188.84 186.19 188.88-83.366 188.88-186.19-84.57-186.16-188.88-186.16zm0 72.156c18.714 0 33.781 15.067 33.781 33.781v154.31c0 18.714-15.067 33.781-33.781 33.781s-33.781-15.067-33.781-33.781v-154.31c0-18.714 15.067-33.781 33.781-33.781z" fill="#fff" fill-rule="evenodd"/>
  <path d="m595.72 526.62c-93.487 1.6701-169.04 31.017-226.69 88.062-57.643 57.047-87.292 131.76-88.969 224.16 1.5983 80.66 26.06 146.75 73.406 198.25 47.346 51.499 95.286 73.2 166.81 84.469 14.418 2.9132 22.931 3.5311 34.938 3.3125 12.428-0.025 18.426-0.3989 32.625-0.5625l-200.88 288.34h199.97l242.72-341.69c32.987-45.607 56.626-87.252 70.906-124.91 14.279-37.654 21.246-76.918 20.906-117.81-1.861-88.342-32.724-160.25-92.594-215.75-59.871-55.499-137.6-84.131-233.16-85.875zm0.8125 161.66c44.773 0.72215 81.045 13.89 108.81 39.5 27.767 25.611 42.047 59.346 42.875 101.19-0.67772 42.361-14.349 76.403-41.062 102.12-26.714 25.723-62.408 38.927-107.03 39.625-42.943-0.76615-77.749-14.105-104.44-40.031-26.689-25.925-40.416-59.831-41.219-101.72 0.65205-41.841 13.771-75.577 39.406-101.19 25.635-25.61 59.864-38.778 102.66-39.5z" fill="#fff" font-family="TeXGyreAdventor" font-size="90px" font-weight="bold" stroke="#8593c2" stroke-width="13.526"/>
  <path d="m212.5 1633.3h67.041l-66.278-88.03 58.787-53.738h-64.371l-45.38 42.582v-42.582h-55.478v141.77h55.478v-44.862l10.853-11.314z" fill="#fff" font-family="Helvetica93-ExtendedBlack" font-size="90px" font-weight="bold"/>
  <path d="m376.72 1633.3h50.697v-57.219l-2.5936-26.626 26.927 83.844h41.002l25.941-82.201-2.5936 24.982 0.32871 57.219h49.711v-141.77h-65.12l-29.406 82.397h-0.3648l-27.434-82.397h-67.093z" fill="#fff" font-family="Helvetica93-ExtendedBlack" font-size="90px" font-weight="bold"/>
  <path d="m757.35 1584.8c2.9262 0.5292 5.0391 1.6543 6.3387 3.3751 1.2994 1.721 2.4689 2.7335 2.469 5.1169-9e-5 3.7084-1.77 4.9959-4.478 6.9814-2.7082 1.9855-8.3573 3.3941-15.076 3.394-6.9339 1e-4 -13.485-2.761-16.95-4.7485-3.0355-2.1168-6.5098-5.3385-6.7246-9.972h-52.062c0 10.757 1.2845 16.313 6.8585 24.782 4.2258 6.421 10.742 10.038 17.678 13.347 6.9355 3.3085 14.394 6.8061 22.791 7.9978s19.039 2.5152 29.223 2.5152c20.792 0 40.477-5.696 52.503-13.969 12.026-8.2732 20.43-15.673 20.43-35.714-1.4e-4 -11.65-3.8742-18.11-10.375-24.994-6.5008-6.8835-17.685-12.631-29.913-15.58l-47.806-11.283c-2.5522-1.5941-6.947-3.9381-6.947-7.2402-5e-5 -2.4474 1.0015-4.812 3.0576-6.0927 2.87-1.7874 4.6445-2.3692 11.145-2.3693 5.8526 1e-4 10.517 0.472 14.2 2.4554 4.6588 2.1209 9.0676 5.6859 9.0676 10.176h52.245c-0.86646-15.488-9.0496-26.7-20.915-34.444-11.866-7.7439-31.578-11.414-52.878-11.414-10.075 1e-4 -18.691 0.5597-26.655 2.0825-7.9639 1.5231-13.741 4.2407-19.754 7.749-6.013 3.5086-13.122 9.7201-16.482 15.808-3.3594 6.0879-5.6449 11.548-5.6449 20.419-2e-5 10.459 1.463 14.862 6.6643 21.944 5.2012 6.5618 13.165 10.886 24.515 14.949 18.375 6.1936 34.972 10.838 53.475 14.73z" fill="#fff" font-family="Helvetica93-ExtendedBlack" font-size="90px" font-weight="bold"/>
  <path d="m924.17 1633.3h56.276v-42.299h35.016c9.7112 1e-4 20.903-2.9697 27.886-5.3531 6.9829-2.3834 12.603-5.7595 16.86-10.128 4.2567-4.3688 10.228-9.1092 12.223-14.932 1.9952-5.823 4.7713-6.5483 4.7713-19.616-1e-4 -16.413-12.114-28.756-20.694-37.03-11.426-8.9843-31.762-12.41-51.05-12.41h-81.288zm56.276-108.41h22.483c7.0519 1e-4 10.943 1.1585 13.938 3.4751 2.9941 2.3169 5.6228 6.1879 5.6229 11.613-1e-4 5.1628-2.6288 8.9025-5.6229 11.219-2.9943 2.3168-6.8857 3.4752-13.938 3.4751h-22.483z" fill="#fff" font-family="Helvetica93-ExtendedBlack" font-size="90px" font-weight="bold"/>
 </g>
</svg>
