<svg width="800" height="200.22" data-bbox="35.499 45 129.001 110.001" data-type="color" role="img" version="1.1" viewBox="35.499 45 516 110.12" xmlns="http://www.w3.org/2000/svg">
 <g transform="translate(1.347e-7 -1.4099)">
  <g fill="#020202" stroke-width="1.174">
   <path d="m186.68 153.9c-0.0845-1.2269-0.0904-2.4608-0.11153-3.6912-0.50249-29.544-0.99324-45.472-1.5239-75.014-0.0247-1.3854-0.18902-2.7672-0.37922-4.398a3.0924 3.0924 0 0 0-2.8341-2.7179l-41.168-3.0079 8.5658-22.047c0.50249-1.2938-0.22776-2.7496-1.5626-3.1441-8.1115-2.3915-9.8714-1.0966-12.599 6.2236-1.9219 5.1564-3.9037 10.289-6.4091 16.852a3.1746 3.1746 0 0 1-3.15 2.0358c-5.1012-0.29116-12.145 0.07631-15.637-2.2389-9.4123-6.24-15.59-13.907-23.889-21.629-5.8972-5.4875-9.0836-5.9864-13.935 0.60346-0.78191 1.0625-0.62459 2.5665 0.41092 3.3859 7.1593 5.6636 16.667 12.279 24.884 18.776-2.9668 0.31464-6.8529-0.20898-8.5412-0.18785-14.457 0.17728-28.877 1.7235-43.282-2.0722-8.3815-2.2084-10.302 0.38861-9.9899 9.1986 0.46844 13.206 0.8547 26.416 1.1059 39.627 0.14558 7.6876-0.07631 15.38-0.06927 23.071 0.01057 11.948 0.02818 10.283 0.13854 22.232 0.04344 4.7161 2.766 7.4892 7.2814 8.0821 7.3237 0.96037 14.699 2.2471 22.044 2.2002 36.75-0.2395 73.496-0.8594 110.24-1.3654 11.146-0.15498 11.142-0.1855 10.407-10.774zm-12.378 2.4714c-10.677 4.4379-112.04 6.105-125.75 1.6002v-88.773c2.8682 0 5.5732-0.06692 8.2747 0.01409 4.9216 0.14793 9.8385 0.50249 14.761 0.56354 23.124 0.28647 46.251 0.39213 69.374 0.80422 8.007 0.14323 16.032 0.7103 23.99 1.5932 7.3213 0.81244 7.6348 1.3102 7.8379 8.5776 0.5835 20.896 1.0813 33.626 1.4863 54.525 0.17376 8.8805 0.0293 12.323 0.0293 21.095z" data-color="2"/>
   <path d="m63.635 85.596c-2.1685 14.092-0.54123 43.031 2.9457 56.773 2.0053 7.9037 9.0894 4.6457 17.804 4.1643 16.307-0.90049 32.615-1.7881 48.92-2.7191 4.8242-0.27472 9.6412-0.6739 14.657-1.0296v-57.988c-11.581-3.1946-76.894-2.3129-84.327 0.79952z" data-color="2"/>
   <path d="m159.8 104.67c1.916-0.27942 3.8121-2.658 5.073-4.5365 0.55767-0.83005-0.22424-3.7945-0.8324-3.9354-2.1555-0.50014-4.783-0.85236-6.692-0.02465-1.97 0.85353-3.15 0.59524-3.9788 5.2961 1.7071 5.0824 4.1655 3.5292 6.4302 3.2004z" data-color="2"/>
   <path d="m161.29 117.03c-3.123-0.31582-5.4417 1.241-6.5946 4.0211-0.41092 0.98972-0.3076 2.1567 0.30994 3.0337 1.889 2.6862 4.8371 2.9398 7.6066 1.8855 1.7258-0.65629 3.8086-3.5233 3.6125-5.1388-0.18197-1.5063-3.069-3.6125-4.9345-3.8016z" data-color="2"/>
  </g>
  <g transform="matrix(3.4254 0 0 3.4254 1019 544.77)" aria-label="KMTP">
   <path d="m-226.52-125.2 12.88 14.24h-4.48l-11.76-13.16v13.16h-3.64v-28.2h3.64v13.08l11.8-13.08h4.44z"/>
   <path d="m-181.77-138.68v27.72h-3.64v-22.12l-8.84 22.12h-3.24l-8.88-22.04v22.04h-3.64v-27.72h4.36l9.84 23.28 9.68-23.28z"/>
   <path d="m-158.66-139.16v2.96h-7.96v25.24h-3.64v-25.24h-7.96v-2.96z"/>
   <path d="m-151.44-122.32v11.36h-3.64v-28.2h8.96q4.84 0 7.24 2.28 2.4 2.24 2.4 6.16 0 3.96-2.48 6.2-2.48 2.2-7.16 2.2zm5-3.04q3.32 0 4.76-1.4 1.48-1.4 1.48-3.96 0-2.64-1.48-4-1.44-1.4-4.76-1.4h-5v10.76z"/>
  </g>
 </g>
 <path d="m80.401 138.96c18.034-2.4444 36.281-0.67155 55.272-4.7244-1.147-20.142 0.81831-26.349-2.7261-46.256h-58.544c0.79835 22.292-0.82887 29.793 5.9982 50.98z" fill="#ee3c24" stroke-width="1.174" data-color="1"/>
</svg>
