<svg width="800" height="356.82" data-name="Layer 1" version="1.1" viewBox="0 0 800 356.82" xmlns="http://www.w3.org/2000/svg">
 <defs>
  <linearGradient id="linear-gradient" x1="7019" x2="7018.7" y1="-7035" y2="-7021.2" gradientTransform="matrix(1 0 0 -1 -6943.1 -7000.7)" gradientUnits="userSpaceOnUse">
   <stop stop-color="#f7fbff" stop-opacity=".4" offset="0"/>
   <stop stop-color="#fff" stop-opacity=".1" offset="1"/>
  </linearGradient>
  <linearGradient id="linear-gradient-2" x1="7019" x2="7019" y1="-7009.4" y2="-7015.4" gradientTransform="matrix(5.1613 0 0 -5.1613 -35835 -36177)" gradientUnits="userSpaceOnUse">
   <stop stop-color="#f7fbff" stop-opacity=".6" offset="0"/>
   <stop stop-color="#fff" stop-opacity=".03" offset=".67"/>
   <stop stop-color="#fff" stop-opacity="0" offset="1"/>
  </linearGradient>
 </defs>
 <g transform="scale(1.0209)">
  <rect class="cls-1" x=".25806" y=".36129" width="783.02" height="247.69" rx="28.542" ry="28.542" fill="#fed96c" stroke-width="5.1613"/>
  <path class="cls-2" d="m283.87 215.64h-100.03v-10.323q4.4387-0.4129 10.89-1.2903a38.194 38.194 0 0 0 8.7742-1.9097 13.987 13.987 0 0 0 6.9161-5.1613 16.206 16.206 0 0 0 2.0645-8.5677v-137.65l-63.381 161.86h-16.361q-1.1871-4.2839-5.7806-16.981-4.5935-12.697-7.4839-20.645l-46.452-126.61v112.31a104.41 104.41 0 0 0 2.1161 24.464 22.4 22.4 0 0 0 6.9677 12.232 33.806 33.806 0 0 0 11.561 5.1613 83.871 83.871 0 0 0 11.716 2.8387v10.323h-79.587v-10.323c2.1677 0 5.729-0.87741 10.632-1.7548a29.471 29.471 0 0 0 12.026-4.6452 18.787 18.787 0 0 0 7.0194-12.232 125.99 125.99 0 0 0 1.8065-24.619v-91.252a39.329 39.329 0 0 0-2.0645-13.832 19.613 19.613 0 0 0-6.4-8.7226 26.477 26.477 0 0 0-10.632-5.1613 81.29 81.29 0 0 0-11.045-1.5484v-10.323h85.264l45.161 121.29 38.555-98.426a123.87 123.87 0 0 0 3.7677-12.955 69.781 69.781 0 0 0 1.9613-9.8064h81.652v10.323a80.413 80.413 0 0 0-8.7226 1.0323 63.174 63.174 0 0 0-8.7226 2.0645 10.323 10.323 0 0 0-6.6581 5.1613 19.2 19.2 0 0 0-1.5484 8.0516v130.43a17.342 17.342 0 0 0 1.5484 7.8452 13.368 13.368 0 0 0 6.7097 5.5226 39.484 39.484 0 0 0 8.5161 2.2194c3.9226 0.72258 6.9677 1.1871 9.1355 1.4452z" fill="#020305" stroke-width="5.1613"/>
  <path class="cls-2" d="m403.61 184.57a78.555 78.555 0 0 1-10.994 13.935 66.116 66.116 0 0 1-14.606 11.2 80.206 80.206 0 0 1-17.6 7.4323 75.716 75.716 0 0 1-20.645 2.529 91.045 91.045 0 0 1-33.187-5.471 64.981 64.981 0 0 1-22.71-14.658 58.684 58.684 0 0 1-13.574-21.781 80.155 80.155 0 0 1-4.4903-27.2 67.406 67.406 0 0 1 4.8516-25.394 68.49 68.49 0 0 1 13.832-21.626 66.116 66.116 0 0 1 22.297-14.916 76.335 76.335 0 0 1 30.09-5.729 85.781 85.781 0 0 1 29.884 4.4387 52.645 52.645 0 0 1 19.355 12.232 44.129 44.129 0 0 1 10.787 17.445 65.548 65.548 0 0 1 3.3548 21.11v8.258h-87.742q0 26.632 10.323 40.464t32.671 13.884a38.194 38.194 0 0 0 21.987-6.6581 62.916 62.916 0 0 0 16.361-16.723zm-49.445-49.6q0-7.7935-0.7742-16a53.523 53.523 0 0 0-2.7355-13.368 20.335 20.335 0 0 0-6.0903-9.2387 15.019 15.019 0 0 0-9.7548-3.0968 18.065 18.065 0 0 0-16.052 10.323 68.903 68.903 0 0 0-6.5032 31.948z" fill="#020305" stroke-width="5.1613"/>
  <g transform="matrix(5.1613 0 0 5.1613 0 -44.594)" data-name="TV BOX">
   <rect class="cls-2" x="80.85" y="13.01" width="66.04" height="39.22" rx="3.69" ry="3.69" fill="#020305"/>
  </g>
  <g transform="matrix(5.1613 0 0 5.1613 0 -44.594)" fill="#fff">
   <path class="cls-3" d="m85.24 18.25v6.85h8.64v20.74h9.29v-20.74h8.44v-6.85z"/>
   <polygon class="cls-3" points="143.68 18.24 133.54 18.24 128.27 36.16 122.62 18.24 112.48 18.24 123.22 45.84 133.06 45.84"/>
  </g>
  <g class="cls-4" transform="matrix(5.1613 0 0 5.1613 0 -44.594)" opacity=".5">
   <path class="cls-5" d="m149.87 10.06a6 6 0 0 0-3.87-1.42h-140.47a5.53 5.53 0 0 0-5.53 5.53v32.75c60.92-28 151.7-14.13 151.7-14.13v-18.62a5.51 5.51 0 0 0-1.83-4.11z" fill="url(#linear-gradient)"/>
  </g>
  <path class="cls-6" d="m783.64 31.071h-1.2387c0-16.619-14.916-25.806-31.794-25.806l-722.58-0.51612a27.716 27.716 0 0 0-25.806 22.503h-1.7032a28.645 28.645 0 0 1 27.819-27.148h725.83c16.258 0 29.471 10.581 29.471 30.968z" fill="url(#linear-gradient-2)" stroke-width="5.1613"/>
 </g>
 <g transform="matrix(5.2691 0 0 5.2691 0 -45.525)" fill="#fff" data-name="St. Louis">
  <path class="cls-3" d="m25.1 70.7a2.91 2.91 0 0 0 0.17 1 2.23 2.23 0 0 0 2.31 1.15c0.79 0 2-0.27 2-1.43 0-0.81-0.68-1-3.39-1.81-2.49-0.71-5.33-1.39-5.33-4.56 0-3.62 3.1-5.2 6.33-5.2 3.41 0 6.43 1.3 6.56 5.13h-4.56a1.21 1.21 0 0 0-0.57-1.25 2.51 2.51 0 0 0-1.43-0.4c-0.66 0-1.74 0.17-1.74 1.06 0.09 1.12 2.33 1.37 4.56 2s4.42 1.65 4.42 4.52c0 4.1-3.76 5.43-7.27 5.43-1.78 0-6.87-0.64-6.91-5.66z"/>
  <path class="cls-3" d="m39.61 64.3h-4.4v-4h13.65v4h-4.4v11.7h-4.85z"/>
  <path class="cls-3" d="m62.91 60.27h4.84v11.73h7v4h-11.84z"/>
  <path class="cls-3" d="m84.28 59.9c4.78 0 8 3.44 8 8.23s-3.19 8.23-8 8.23-8-3.44-8-8.23 3.23-8.23 8-8.23zm0 12.55c1.23 0 3.13-0.81 3.13-4.32s-1.89-4.32-3.13-4.32-3.13 0.81-3.13 4.32 1.9 4.31 3.13 4.31z"/>
  <path class="cls-3" d="m108.55 69.91c0 4.36-2.36 6.45-7.16 6.45s-7.18-2.09-7.18-6.45v-9.65h4.84v8.57c0 1.61 0 3.62 2.36 3.62s2.29-2 2.29-3.62v-8.57h4.85z"/>
  <path class="cls-3" d="m111 60.27h4.84v15.73h-4.84z"/>
  <path class="cls-3" d="m122.2 70.7a2.9 2.9 0 0 0 0.17 1 2.23 2.23 0 0 0 2.31 1.15c0.79 0 2-0.27 2-1.43 0-0.81-0.68-1-3.39-1.81-2.49-0.71-5.33-1.39-5.33-4.56 0-3.62 3.1-5.2 6.33-5.2 3.41 0 6.43 1.3 6.56 5.13h-4.58a1.21 1.21 0 0 0-0.57-1.25 2.51 2.51 0 0 0-1.43-0.4c-0.66 0-1.74 0.17-1.74 1.06 0.09 1.12 2.33 1.37 4.56 2s4.42 1.65 4.42 4.52c0 4.1-3.76 5.43-7.27 5.43-1.78 0-6.87-0.64-6.91-5.66z"/>
  <circle class="cls-3" cx="50.61" cy="73.69" r="2.3"/>
 </g>
</svg>
