<svg width="681.33" height="801" version="1.1" viewBox="0 0 681.33 801" xml:space="preserve" xmlns="http://www.w3.org/2000/svg">
<g transform="matrix(1.4038 0 0 1.4038 58.068 -179.36)"><path d="m-41.009 128.13v96.707h179.4l-154.73 372.42h103.36c-15.445-8.863-26.198-26.038-22.16-49.802 5.7151-28.822 31.577-39.802 47.923-38.291-14.835-8.7528-29.251-45.295-2.2708-72.275 20.896-17.856 44.806-13.66 58.885-4.1502-4.3239-16.317 2.0806-41.554 23.413-52.621l103.91-251.99z" fill="#004b8e"/><g transform="matrix(2.3101 0 0 2.3101 -588.83 -986.61)" fill="#004a90"><path d="m243.51 708.08c-1e-5 -0.93341 0.39998-1.7269 1.2-2.3804 0.79996-0.65346 1.9202-0.9802 3.3606-0.98022 1.2793 2e-5 2.5458 0.24681 3.7994 0.74035 1.2536 0.4936 2.5201 1.2071 3.7994 2.1405l2.6404-3.7207c-1.4396-1.1466-2.9796-2.0198-4.6198-2.6196-1.6402-0.59975-3.487-0.89963-5.5402-0.89966-1.3867 3e-5 -2.6666 0.1933-3.8397 0.57983-1.1731 0.38658-2.1798 0.93977-3.02 1.6596-0.84025 0.71983-1.5002 1.5798-1.98 2.58-0.47974 1.0002-0.71961 2.1135-0.7196 3.3398-1e-5 1.307 0.2065 2.4138 0.6195 3.3203 0.413 0.90659 1.013 1.6799 1.7999 2.32 0.78694 0.64006 1.7602 1.1735 2.9199 1.6003 1.1597 0.42685 2.4862 0.81361 3.9795 1.1603 1.307 0.31983 2.3671 0.62643 3.1806 0.9198 0.81337 0.29338 1.4534 0.6067 1.9202 0.93994 0.4667 0.33326 0.78673 0.69988 0.96008 1.0998 0.17333 0.39999 0.26 0.85348 0.26001 1.3605-1e-5 1.093-0.44679 1.9594-1.3403 2.5995-0.89357 0.64006-2.1 0.96009-3.6194 0.96008-1.7603 1e-5 -3.3338-0.31331-4.7205-0.93994-1.3867-0.62662-2.76-1.5267-4.1199-2.7002l-2.9602 3.5205c1.6797 1.5194 3.5063 2.6459 5.4797 3.3795 1.9735 0.73364 4.0401 1.1005 6.2 1.1005 1.4673 0 2.8141-0.18677 4.0405-0.56031 1.2264-0.37353 2.2796-0.9202 3.1598-1.64 0.8801-0.71981 1.5668-1.5997 2.0599-2.6398 0.49314-1.04 0.73972-2.227 0.73975-3.5608-3e-5 -1.1727-0.1933-2.1924-0.57984-3.0591-0.38657-0.86668-0.95318-1.6268-1.6998-2.2803-0.74669-0.65347-1.6866-1.2068-2.8198-1.6602-1.1332-0.45328-2.4335-0.86669-3.9008-1.2402-1.333-0.31981-2.4329-0.62641-3.2996-0.9198-0.86671-0.29336-1.5466-0.61338-2.0398-0.96008-0.49317-0.34666-0.83314-0.71999-1.0199-1.12-0.18677-0.39996-0.28016-0.8799-0.28015-1.4398z"/><path d="m277.3 700.56h-4.5593l-12.321 28.199h5.0403l2.8796-6.7603h13.24l2.8406 6.7603h5.2002zm2.4805 17.079h-9.6399l4.7998-11.2z"/><path d="m311.05 720.12-15-19.36h-4.5606v28h4.8401v-19.919l15.439 19.919h4.1211v-28h-4.8401z"/><path d="m355.44 714.72c-3e-5 -1.9726-0.35993-3.8124-1.0797-5.5194-0.71984-1.7069-1.7397-3.187-3.0597-4.4403-1.32-1.2532-2.8933-2.2332-4.7198-2.9401-1.8266-0.70676-3.8332-1.0602-6.0199-1.0602h-10.441v28h10.441c2.1867 0 4.1933-0.35991 6.0199-1.0797 1.8266-0.7198 3.3998-1.7065 4.7198-2.9602s2.3399-2.7405 3.0597-4.4604c0.71978-1.72 1.0797-3.5667 1.0797-5.5402zm-5.1599 0.0806c-3e-5 1.3867-0.23339 2.6601-0.70008 3.8202-0.46674 1.1601-1.12 2.16-1.9598 2.9999-0.83986 0.83985-1.8598 1.4931-3.0597 1.9598-1.2 0.46672-2.5332 0.70008-3.9996 0.70007h-5.52v-19.041h5.52c1.4664 2e-5 2.7997 0.24009 3.9996 0.72021 1.1999 0.48017 2.2198 1.1469 3.0597 2.0001 0.83983 0.8533 1.4931 1.86 1.9598 3.02 0.46669 1.1601 0.70005 2.4335 0.70008 3.8202z"/><path d="m358.18 700.76v28h4.9207v-28z"/><path d="m387.6 700.76h-20.76v28h20.961v-4.3994h-16.04v-7.5208h14.039v-4.3994h-14.039v-7.2803h15.84z"/><path d="m415.36 724.88v-11.76h-11.92v4.2798h7.1606v5.2393c-0.8537 0.64047-1.8604 1.154-3.02 1.5405-1.1597 0.38656-2.4064 0.57984-3.7402 0.57983-1.4396 1e-5 -2.7395-0.25329-3.8995-0.75989-1.1601-0.50658-2.1602-1.2064-3.0005-2.0996-0.84026-0.89314-1.487-1.9531-1.9403-3.1799s-0.67994-2.5604-0.67993-4.0008c-1e-5 -1.3598 0.23335-2.6398 0.70007-3.8397 0.46671-1.1999 1.1068-2.2532 1.9202-3.1598 0.81338-0.90656 1.7735-1.6198 2.8802-2.1399 1.1068-0.51999 2.3002-0.78 3.5803-0.78003 0.8797 3e-5 1.6862 0.0733 2.4194 0.21973 0.73322 0.14651 1.4066 0.3465 2.0203 0.59998 0.61359 0.25352 1.2003 0.56704 1.7603 0.94055 0.55987 0.37356 1.1063 0.78697 1.6394 1.2402l3.1201-3.7207c-0.72024-0.61358-1.4602-1.1535-2.2198-1.6199-0.75971-0.46629-1.5664-0.85955-2.42-1.1798-0.8537-0.32021-1.7804-0.56699-2.7802-0.74036-0.99978-0.17331-2.1129-0.25998-3.3392-0.26001-2.107 3e-5 -4.047 0.38679-5.8203 1.1603-1.7733 0.77354-3.3 1.8203-4.5801 3.1403s-2.2736 2.8599-2.9804 4.6198c-0.70679 1.7599-1.0602 3.6265-1.0602 5.6 0 2.0532 0.34668 3.9598 1.04 5.7196 0.69336 1.7598 1.6734 3.2865 2.9401 4.5801 1.2667 1.2935 2.7934 2.3069 4.5801 3.0402 1.7867 0.73323 3.7734 1.0998 5.9601 1.0998 1.2264 0 2.3997-0.11332 3.5199-0.33996 1.1202-0.22665 2.1669-0.53996 3.1402-0.93995 0.97329-0.39998 1.8799-0.86669 2.7197-1.4001 0.83982-0.53345 1.6064-1.0931 2.2998-1.6791z"/><path d="m447.05 714.72c-3e-5 -1.9726-0.35993-3.8391-1.0797-5.5994-0.71984-1.7602-1.7198-3.2936-2.9999-4.6002-1.2801-1.3065-2.8135-2.3398-4.6002-3.1-1.7867-0.76007-3.76-1.1401-5.9198-1.1401-2.1598 3e-5 -4.1331 0.38679-5.9198 1.1603-1.7867 0.77354-3.3334 1.8203-4.6399 3.1403-1.3066 1.32-2.32 2.8599-3.0402 4.6198-0.72022 1.7599-1.0803 3.6265-1.0803 5.6s0.3601 3.8401 1.0803 5.6c0.72021 1.7598 1.7204 3.2931 3.0005 4.5996 1.2801 1.3066 2.8133 2.3399 4.5996 3.1s3.7598 1.1401 5.9204 1.1401c2.1598 0 4.1331-0.38655 5.9198-1.1597 1.7867-0.77311 3.3333-1.8197 4.6399-3.1396 1.3065-1.32 2.3197-2.8601 3.0396-4.6204 0.71978-1.7602 1.0797-3.6271 1.0797-5.6006zm-5.1599 0.0806c-2e-5 1.3599-0.23318 2.6465-0.69946 3.8599-0.46633 1.2134-1.1129 2.2666-1.9397 3.1598-0.82684 0.89315-1.8203 1.5997-2.9803 2.1198-1.1601 0.52002-2.4335 0.78003-3.8202 0.78003s-2.6666-0.26652-3.8397-0.79956-2.1798-1.253-3.02-2.16c-0.84026-0.90697-1.4937-1.967-1.9604-3.1799-0.46672-1.213-0.70008-2.4998-0.70007-3.8605-1e-5 -1.3598 0.23335-2.6465 0.70007-3.8599 0.46671-1.2134 1.1135-2.2666 1.9403-3.1598 0.82681-0.89312 1.8203-1.5997 2.9804-2.1198 1.1601-0.51999 2.4334-0.78 3.8202-0.78003 1.3867 3e-5 2.6666 0.26675 3.8397 0.80018 1.1731 0.53347 2.1798 1.2535 3.02 2.16 0.84023 0.9066 1.4935 1.9666 1.9598 3.1799 0.46628 1.2134 0.69944 2.5 0.69946 3.8599z"/></g><g transform="matrix(1.3695 0 0 1.3695 51.627 362)"><path d="m64.812 53.281c-15.043 0.50987-27.549 15.127-25.562 30.188 0.82121 14.231 14.419 21.911 25.026 28.87 21.502 14.7 43.003 29.399 64.505 44.099-13.249-29.832-25.953-60.03-39.5-89.656-4.8853-8.6173-14.43-14.318-24.469-13.5z" fill="#f37021"/><path d="m118.66 16.625c-17.379-0.0077-31.025 19.024-24.844 35.531 12.647 30.793 25.993 61.334 38.906 92.031 4.4875-32.97 9.7849-65.943 13.781-98.906 1.2866-14.229-10.259-28.001-24.5-28.594-1.1094-0.11925-2.2305-0.12581-3.3438-0.0625z" fill="#cc004c"/><path d="m182.5 16.406c-14.412 0.07231-26.754 13.246-26 27.688 4.2652 0.05211 11.624-1.1862 12.906 4.5625-4.0807 3.2498-10.821 4.6845-10.688 11.188 1.068 17.304 4.9727 34.426 7.0887 51.661 1.6267 10.894 3.2534 21.788 4.8801 32.683 12.934-31.358 26.846-62.371 39.188-93.938 4.7326-16.729-9.854-35.059-27.375-33.844z" fill="#6460aa"/><path d="m235.38 53.469c-13.118-0.021981-22.459 11.605-26.236 23.206-11.4 26.515-22.801 53.029-34.201 79.544 26.553-18.608 53.808-36.326 79.938-55.469 12.222-10.158 11.642-30.873-0.625-40.844-5.1534-4.4068-12.079-6.6127-18.875-6.4375z" fill="#0089d0"/><path d="m257.84 115c-13.916 1.3733-23.418 13.104-35.021 19.768-16.753 11.671-33.507 23.342-50.26 35.013 30.771-0.22112 61.695 0.43415 92.375-0.3125 19.01-2.8238 27.888-28.126 16.5-42.875-5.2046-7.474-14.302-12.335-23.594-11.594z" fill="#0db14b"/><path d="m41.562 114.69c-16.561 0.31613-29.056 18.619-24.281 34.344 3.1882 14.161 18.089 22.642 32.094 20.75h81.812c-24.944-17.128-49.612-35.02-74.719-51.688-4.5916-2.3207-9.7433-3.6747-14.906-3.4062z" fill="#fcb711"/></g></g></svg>
