<svg width="257.23mm" height="97.636mm" version="1.1" viewBox="0 0 911.45 345.95" xmlns="http://www.w3.org/2000/svg">
 <link href="" rel="stylesheet" type="text/css"/>
 <style type="text/css"/>
 <g transform="translate(-30.99 -452.37)">
  <path d="m902.56 651.45c26.625 0 41.408-23.071 39.761-44.812-2.631-28.343-28.59-39.218-42.706-36.916 11.822-6.588 27.589-37.562 3.599-61.949-19.051-18.125-43.372-11.532-51.913-3.6181 4.5947-15.159-2.9734-46.475-33.85-51.418-27.93-3.2914-40.103 16.149-43.697 25.38-5.2603-13.181-18.083-27.356-42.067-25.38-30.564 3.2983-40.101 32.618-35.5 50.085-12.154-8.2336-32.862-11.855-50.922 3.632-23.347 23.396-10.863 55.036 1.9602 62.616-14.135-1.3155-36.48 8.2319-41.406 33.282-5.262 30.969 18.398 49.098 41.406 49.098h255.33" fill="#fff"/>
  <path d="m705.39 526.23 47.004 107.76-96.956-66.568c-24.31-16.16-19.392-43.83-5.9102-56.021 19.065-16.149 46.006-10.548 55.863 14.83" fill="#f05e1b"/>
  <path d="m769.8 500.85-17.095 120.61-48.632-114.68c-10.512-28.661 13.132-47.447 28.919-47.782 18.076-1.9759 40.76 11.874 36.808 41.853" fill="#c71948"/>
  <path d="m843.74 506.45-48.31 115.01-15.445-103.8c-1.3155-15.824 8.5412-16.151 12.158-19.119-0.65688-2.3043-5.5852-2.3043-5.5852-2.3043h-9.2103c-0.97316-27.026 20.044-38.888 37.143-37.571 18.407 0.66209 39.095 22.084 29.25 47.784" fill="#5e54ac"/>
  <path d="m893.02 566.76-96.937 66.887 45.685-106.43c13.791-33.621 46.004-27.021 57.509-14.175 12.479 12.529 16.097 37.892-6.256 53.718" fill="#3d84cd"/>
  <path d="m903.21 645.52h-112.05l91.01-63.605c22.351-14.823 46.017-1.3155 52.255 18.127 6.5688 21.745-8.225 45.478-31.219 45.478" fill="#33b341"/>
  <path d="m613.04 598.73c8.543-22.423 32.222-30.335 53.234-16.82l91.046 63.605h-110.42c-23 0-41.08-21.086-33.856-46.785" fill="#f8ae0c"/>
  <g fill="#1d2f50">
   <path d="m30.99 679.83h910.38v-5.3328h-910.38z"/>
   <path d="m861.46 761.48 22.802-45.726 22.803 45.726zm30.528-58.876h-15.454l-0.36841 0.72292-48.87 94.993h15.553l12.154-24.19h58.383l12.029 24.19h15.687zm-163.31 52.323h59.895v-12.649h-59.895v-27.024l71.672 5e-3v-12.655h-85.61v95.716h87.147v-12.649h-73.208zm-86.194-10.472h-38.596v-29.197h38.596c4.4018-5e-3 8.1172 0.16682 11.117 0.50048 3.5486 0.49353 6.4733 1.2443 8.708 2.2035 4.9179 2.3269 7.1997 5.9832 7.2605 11.826-0.0608 5.9484-2.3478 9.6412-7.29 11.979-2.2052 0.94188-5.13 1.6874-8.7115 2.1879-2.8847 0.33366-6.5932 0.50048-11.084 0.50048zm19.557 10.811c3.6893-0.96795 7.0346-2.4364 9.9801-4.4001 3.2983-2.141 5.9398-4.8641 7.8339-8.1137 2.0992-3.7397 3.1315-8.0373 3.1315-12.828 0-5.5783-1.2477-10.416-3.7936-14.415-2.2869-3.4738-5.521-6.2334-9.6134-8.2806-3.5659-1.7864-7.6706-3.0151-12.304-3.7136-3.6546-0.60823-7.7349-0.90713-12.231-0.90713l-55.091-3e-3v95.71h13.934v-41.21h34.585l29.951 41.215h17.279l-30.865-41.669c2.426-0.26067 4.8258-0.72292 7.2031-1.385zm-183.79 6.2143 22.803-45.721 22.803 45.721zm15.077-58.876-0.37014 0.72292-48.868 94.987h15.553l12.154-24.185h58.383l12.027 24.19h15.687l-49.112-95.716zm-172.35 44.715-38.299-44.715h-18.243l49.581 57.257v38.459h13.925v-38.471l49.581-57.244h-18.25zm-136.07 14.161 22.806-45.726 22.8 45.726zm15.077-58.876-0.37484 0.72292-48.866 94.987h15.554l12.152-24.185h58.386l12.031 24.19h15.685l-49.117-95.716zm-94.2 80.244c-2.1505 1.0357-4.874 1.7795-8.1865 2.1983-2.6718 0.41534-5.8956 0.62387-9.6814 0.62387l-42.317-5e-3v-31.247h43.591c7.9681-5e-3 13.892 1.2808 17.735 3.6389 4.2968 2.704 6.3653 6.621 6.4039 12.437-0.0603 6.1083-2.4322 9.9315-7.5444 12.354zm-60.185-68.111h40.526l5.8277 0.26067c3.9943 0.24503 7.2627 0.79243 9.7603 1.5988 5.962 1.995 8.5876 5.5731 8.6705 11.791-0.0624 5.3854-2.5511 8.901-8.2545 11.308-2.3385 0.96274-5.208 1.67-8.6217 2.0819-2.8307 0.33887-6.0647 0.50049-9.6896 0.50049h-38.218zm74.997 38.81c-1.7366-1.6457-3.7444-3.1089-6.0313-4.4366l-2.7601-1.3346 2.3134-1.1869c1.9625-1.2026 3.5774-2.4624 4.9466-3.8214 3.5232-3.7084 5.2603-8.6351 5.25-14.516 0-5.8372-1.4276-10.847-4.3512-14.858-2.5754-3.3226-6.1271-5.8476-10.567-7.6237-3.4714-1.4163-7.5676-2.3391-12.279-2.777-1.7182-0.17204-3.5835-0.30585-5.567-0.38926h-59.884v95.716h48.953c2.9115-5e-3 5.4428-0.0417 7.6035-0.1286 2.8123-0.0834 5.3958-0.21375 7.7236-0.38579 6.0049-0.60996 11.062-1.6926 15.226-3.2809 5.0232-1.8542 8.9706-4.5565 11.714-8.1207 3.1105-4.202 4.631-9.431 4.6255-15.529 0-3.7397-0.67201-7.2136-2.0235-10.38-1.1947-2.5667-2.8307-4.8797-4.8929-6.9477"/>
   <path d="m31.412 453.31 139.18 113.71v-108.52h44.724v199.38l-138.63-116.07v108.95h-45.272v-197.45"/>
   <path d="m279.84 618.41h40.384c6.2421 0 12.093-1.9984 17.552-6.0336 6.8434-4.9666 10.236-11.304 10.236-18.975 0-7.6706-3.2149-13.798-9.6395-18.419-5.481-4.2054-11.117-6.3134-16.973-6.3134h-41.559v49.741m0-82.72h34.646c6.9512-0.76984 12.691-3.2531 17.251-7.4099 4.5078-4.1533 6.7878-9.4223 6.7878-15.821 0-6.3933-2.6293-11.574-7.8339-15.524-5.2499-3.9674-10.95-5.9641-17.148-5.9641h-33.703zm-45.287-77.135h91.715c14.385-0.17204 24.491 1.8594 35.517 8.2753 15.477 8.9253 24.809 23.083 24.809 39.766 0 11.848-4.3462 22.325-13.058 31.454-2.8778 3.1106-7.2344 6.5011-13.023 10.192 12.945 5.3958 22.673 13.023 29.223 22.852 5.3506 8.0877 8.039 17.343 8.039 27.747 0 13.883-5.8546 27.327-17.548 37.154-11.683 9.8324-21.816 14.663-40.987 14.742h-104.69v-192.18"/>
   <path d="m566.21 499.04c-6.3898-3.731-13.016-6.4176-19.872-8.0842-6.8764-1.6544-14.081-2.5024-21.622-2.5024-19.929 0-37.168 5.6009-51.668 16.777-15.28 11.774-22.913 26.619-22.913 44.56 0 21.22 7.7245 38.478 23.208 51.79 14.323 12.161 31.643 18.221 51.948 18.221 14.517 0 28.161-3.3313 40.918-10.064v38.93c-7.5385 2.1132-15.204 3.7814-23.029 5.0483-7.82 1.2356-15.494 1.8768-23.014 1.8768-32.271 0-59.545-9.9488-81.865-29.824-22.303-19.88-33.451-44.769-33.451-74.692 0-25.479 11.633-50.245 34.91-69.942 23.274-19.68 50.745-27.33 82.428-27.33 7.1354 0 14.418 0.57521 21.853 1.736 7.4464 1.1626 14.822 2.9907 22.167 5.507v37.993"/>
  </g>
 </g>
</svg>
