<svg width="800" height="430.96" version="1.1" viewBox="0 0 800 430.96" xmlns="http://www.w3.org/2000/svg">
 <path d="m245.42 187.78c-67.152 4.6e-4 -121.59 54.438-121.59 121.59 4.5e-4 67.152 54.438 121.59 121.59 121.59 67.152-4.5e-4 121.59-54.438 121.59-121.59-4.7e-4 -67.152-54.438-121.59-121.59-121.59z" color="#000000" color-rendering="auto" image-rendering="auto" shape-rendering="auto" solid-color="#000000" style="isolation:auto;mix-blend-mode:normal"/>
 <path class="cls-2" d="m133.53 3.3893a141.07 141.07 0 0 0-35.38-3.2096h-33.439v187.65h31.797v-74.641h10.823a69.043 69.043 0 0 0 46.874-15.301 52.249 52.249 0 0 0 17.466-41.127 54.264 54.264 0 0 0-16.421-40.455 49.114 49.114 0 0 0-21.72-12.913m7.4641 52.622c0 18.362-11.793 27.319-36.052 27.319h-8.4344v-53.517h7.4641c25.079 0 37.32 8.6583 37.32 26.348" fill="#030303" stroke-width="7.4641" data-name=" Compound Path "/>
 <path class="cls-2" d="m276.54 178.27a55.383 55.383 0 0 0 8.8823-7.4641 53.816 53.816 0 0 0 6.9416-67.774 46.053 46.053 0 0 0-20.974-17.242 44.784 44.784 0 0 0 13.361-32.543 54.189 54.189 0 0 0-4.777-22.392 52.249 52.249 0 0 0-12.764-17.839 46.427 46.427 0 0 0-19.481-10.077 126.14 126.14 0 0 0-29.856-2.911h-29.856v187.42a134.35 134.35 0 0 1 88.375-9.2555m-56.428-148.54h7.4641a29.408 29.408 0 0 1 20.078 6.1952 22.989 22.989 0 0 1 6.643 18.063 25.079 25.079 0 0 1-6.4937 18.66 29.856 29.856 0 0 1-21.198 6.2698h-6.643zm0 127.86v-51.353h11.943c14.331 0 24.258 2.5378 29.856 7.4641a24.631 24.631 0 0 1 0 37.32 40.903 40.903 0 0 1-26.199 6.867z" fill="#030303" stroke-width="7.4641" data-name=" Compound Path 2"/>
 <path class="cls-2" d="m121.44 360.32a115.47 115.47 0 0 1-9.3301-44.784v-2.0153a107.71 107.71 0 0 0-9.4047-6.7923 208.99 208.99 0 0 0-29.483-15.451 109.65 109.65 0 0 1-17.914-9.7779 43.59 43.59 0 0 1-9.1808-8.2851 16.197 16.197 0 0 1-3.2842-6.4937 20.601 20.601 0 0 1-0.44784-4.2545 18.959 18.959 0 0 1 4.6277-14.48 24.482 24.482 0 0 1 18.362-7.4641 22.84 22.84 0 0 1 9.4794 1.866 27.468 27.468 0 0 1 7.8373 5.1502 22.392 22.392 0 0 1 5.2995 7.4641 24.184 24.184 0 0 1 1.9407 9.4794h34.783v-3.8067a56.652 56.652 0 0 0-4.777-19.108 61.504 61.504 0 0 0-12.764-18.66 58.817 58.817 0 0 0-42.097-16.869 63.221 63.221 0 0 0-24.034 4.9263 57.175 57.175 0 0 0-19.407 13.361 52.249 52.249 0 0 0-11.719 18.287 55.906 55.906 0 0 0-3.5081 21.273 48.367 48.367 0 0 0 5.7473 22.019 63.071 63.071 0 0 0 13.211 16.496 85.986 85.986 0 0 0 17.242 12.017 191.08 191.08 0 0 0 17.765 8.5837 104.5 104.5 0 0 1 22.765 12.241 52.249 52.249 0 0 1 11.495 11.495 22.392 22.392 0 0 1 4.1052 9.554c0 2.911 0.44784 5.0009 0.44784 6.4938a24.408 24.408 0 0 1-11.495 22.392 35.23 35.23 0 0 1-10.45 4.1799 50.308 50.308 0 0 1-10.077 1.2689 31.125 31.125 0 0 1-22.392-9.2555 33.663 33.663 0 0 1-7.4641-10.45 33.066 33.066 0 0 1-2.6871-13.137l-34.633 0.3732a69.64 69.64 0 0 0 5.2249 25.826 67.177 67.177 0 0 0 14.928 21.795 62.026 62.026 0 0 0 21.795 14.928 66.057 66.057 0 0 0 25.975 4.8516 71.506 71.506 0 0 0 46.576-14.928 49.412 49.412 0 0 0 7.4641-7.4641 56.055 56.055 0 0 0 6.5684-10.524 57.175 57.175 0 0 0 4.5531-11.121 121.37 121.37 0 0 1-11.644-21.123" fill="#030303" stroke-width="7.4641" data-name=" Path 2"/>
 <path class="cls-2" d="m512.33 378.24a68.819 68.819 0 0 1-40.381 12.913 67.177 67.177 0 0 1-27.99-5.9713 70.909 70.909 0 0 1-22.392-16.197 78 78 0 0 1-14.928-23.885 76.134 76.134 0 0 1-5.7473-29.334 78.597 78.597 0 0 1 20.974-53.517 72.178 72.178 0 0 1 22.392-16.048 65.982 65.982 0 0 1 27.99-5.9713 68.446 68.446 0 0 1 28.065 5.9713 72.476 72.476 0 0 1 23.512 17.018l25.154-22.915a104.5 104.5 0 0 0-34.932-25.527 101.66 101.66 0 0 0-42.023-8.733 99.496 99.496 0 0 0-41.052 8.5837 108.15 108.15 0 0 0-33.738 23.512 111.21 111.21 0 0 0-22.915 35.081v0.67177a124.5 124.5 0 0 1-1.866 79.343c0.67177 1.7914 1.3435 3.5828 2.0899 5.2995a110.24 110.24 0 0 0 22.392 34.857 107.33 107.33 0 0 0 33.738 23.512 98.377 98.377 0 0 0 41.052 8.6583 107.03 107.03 0 0 0 20.078-1.9407l1.7914-3.956z" fill="#030303" stroke-width="7.4641" data-name=" Path 3"/>
 <path class="cls-2" d="m602.95 209.17-72.999 162.42-22.392 50.308h35.081l22.989-50.532h74.118l23.288 50.532h35.156zm-23.96 132.79 23.885-52.249 23.885 52.249z" fill="#030303" stroke-width="7.4641" data-name=" Compound Path 3"/>
 <polygon class="cls-2" transform="matrix(7.4641 0 0 7.4641 0 -2.9551)" points="98.11 52.67 98.13 28.43 93.49 28.43 93.47 52.44 95.13 56.16 95.47 56.93 107.18 56.94 107.18 52.68" fill="#030303" data-name=" Path 4"/>
 <path class="cls-2" d="m432.32 115.65a48.89 48.89 0 0 0-9.3301-16.496 82.105 82.105 0 0 0-16.869-14.331 183.39 183.39 0 0 0-25.452-13.734 89.569 89.569 0 0 1-14.928-8.3598 31.722 31.722 0 0 1-7.4641-6.7177 11.868 11.868 0 0 1-2.4632-4.7024 27.99 27.99 0 0 1 0-3.5081 14.032 14.032 0 0 1 3.6574-11.047 20.526 20.526 0 0 1 21.198-3.956 22.84 22.84 0 0 1 6.1205 4.1799 15.973 15.973 0 0 1 4.0306 5.8966 19.183 19.183 0 0 1 1.4928 7.4641v2.09h34.26v-2.1646a52.249 52.249 0 0 0-4.2545-20.676 54.786 54.786 0 0 0-11.345-16.869 53.07 53.07 0 0 0-37.768-15.675 56.428 56.428 0 0 0-21.646 4.1799 52.696 52.696 0 0 0-17.541 11.793 47.173 47.173 0 0 0-10.748 16.421 49.561 49.561 0 0 0-3.3588 19.183 44.038 44.038 0 0 0 5.0756 20.078 56.354 56.354 0 0 0 11.644 14.928 79.492 79.492 0 0 0 14.928 10.823c5.3741 2.8364 10.599 5.5981 15.525 7.4641a87.927 87.927 0 0 1 19.108 10.45 43.889 43.889 0 0 1 9.4047 9.778 16.72 16.72 0 0 1 3.1349 7.4641v5.3741a20.526 20.526 0 0 1-2.6124 10.898 19.705 19.705 0 0 1-6.5684 6.5684 29.185 29.185 0 0 1-8.3598 3.2842 44.784 44.784 0 0 1-8.2851 0.89569 25.453 25.453 0 0 1-10.002-2.0153 26.274 26.274 0 0 1-8.0612-5.5234 27.169 27.169 0 0 1-7.4641-19.033v-2.2392h-33.887v2.0899a63.221 63.221 0 0 0 4.4038 23.213 62.325 62.325 0 0 0 12.764 19.631 55.906 55.906 0 0 0 19.481 13.435 61.579 61.579 0 0 0 23.213 4.5531 64.34 64.34 0 0 0 41.575-13.137 47.621 47.621 0 0 0 6.867-6.5684 55.085 55.085 0 0 0 13.062-36.201 61.429 61.429 0 0 0-2.8364-19.108" fill="#030303" stroke-width="7.4641" data-name=" Path "/>
 <path d="m318.68 312.19h13.601l-30.522-69.65h-20.45l30.633 69.65h-13.952v18.474c0.0517 11.207-4.6334 15.993-19.865 15.789v35.659h20.261v-35.658h6.5496c5.8139 0.15748 13.659-4.553 13.742-13.704v-20.56zm-58.688-69.65h-37.332c-30.632 0-55.828 21.384-55.828 53.108 0 26.675 16.039 45.724 40.027 49.358v37.105h49.871v-35.658h6.9427c8.0783-0.78852 13.56-6.138 13.662-13.634v-20.629h13.576zm-10.447 61.056c-7.4484 0-13.488-6.0507-13.488-13.513 0-7.4484 6.0392-13.499 13.488-13.499 7.4726 0 13.504 6.0507 13.504 13.499 0 7.4622-6.03 13.513-13.504 13.513" stroke-width="1.1494"/>
 <path d="m222.66 242.54h37.332l30.921 69.649h-13.576v20.629c-0.10225 7.4955-5.5848 12.845-13.663 13.634h-6.9416v35.658h-49.871v-37.103c-23.988-3.6346-40.029-22.684-40.029-49.359 0-31.724 25.195-53.108 55.827-53.108zm58.651 0h20.45l30.521 69.649h-13.603v20.56c-0.0828 9.1508-7.9278 13.861-13.742 13.704h-6.5487v35.658h-20.261v-35.658c15.231 0.2046 19.916-4.5821 19.864-15.789v-18.474h13.953l-30.633-69.649zm-31.765 34.043c-7.4484 0-13.488 6.0508-13.488 13.499 0 7.4622 6.0396 13.513 13.488 13.513 7.4737 0 13.504-6.0505 13.504-13.513 0-7.4484-6.0312-13.499-13.504-13.499z" color="#000000" color-rendering="auto" fill="#fff" image-rendering="auto" shape-rendering="auto" solid-color="#000000" style="isolation:auto;mix-blend-mode:normal"/>
</svg>
