<svg width="800" height="291.17" version="1.1" xmlns="http://www.w3.org/2000/svg">
 <link href="" rel="stylesheet" type="text/css"/>
 <style type="text/css"/>
 <g transform="translate(-310.55 -494.78)">
  <g transform="matrix(1.776 0 0 1.776 -273.27 -387.41)">
   <path d="m565.43 528.41-5.8304 8.9297h217.12l2.4688-8.9297z" fill="#005dab" fill-rule="evenodd"/>
   <path d="m536.46 651.39 4.2928 9.2353h215.25l2.4688-9.2353z" fill="#005dab" fill-rule="evenodd"/>
   <g transform="matrix(3.6348 0 0 3.6348 -401.72 509.41)">
    <g font-family="DIN-BlackItalic" font-size="34.95px">
     <g fill="#ffcc07">
      <g transform="matrix(.3465 0 0 .3465 169.67 -3.4873)">
       <path d="m126.28 23.046c0 9.8145-8.053 17.771-17.987 17.771-9.9339 0-17.987-7.9562-17.987-17.771 0-9.8145 8.053-17.771 17.987-17.771 9.9339 0 17.987 7.9562 17.987 17.771z" fill-rule="evenodd"/>
       <path d="m164.88 17.771c0 9.8145-8.053 17.771-17.987 17.771-9.9339 0-17.987-7.9562-17.987-17.771 0-9.8145 8.053-17.771 17.987-17.771 9.9339 0 17.987 7.9562 17.987 17.771z" fill-rule="evenodd"/>
       <path d="m202.35 23.046c0 9.8145-8.053 17.771-17.987 17.771-9.9339 0-17.987-7.9562-17.987-17.771 0-9.8145 8.053-17.771 17.987-17.771 9.9339 0 17.987 7.9562 17.987 17.771z" fill-rule="evenodd"/>
       <path d="m115.77 40.105h63.537l-6.3704 30.718h-63.52z" fill-rule="evenodd"/>
       <path d="m109.15 76.936h63.272l-9.815 53.241h-63.52z" fill-rule="evenodd"/>
       <path d="m254.9 130.13h-56.174l-28.352-53.198 46.635-51.795h55.909l-42.893 53.324z"/>
      </g>
      <g font-family="DIN-BlackItalic" font-size="34.95px">
       <path d="m277.33 17.383c-2e-5 -1.0522-0.191-2.0719-0.57291-3.0591-0.38194-0.98714-0.9414-1.8625-1.6783-2.6259-0.73698-0.76344-1.6581-1.3753-2.7633-1.8356-1.1052-0.46022-2.3816-0.69034-3.829-0.69037-1.3165 2.81e-5 -2.6984 0.26308-4.1458 0.78917-1.4474 0.52614-2.7242 1.3422-3.8302 2.4482-0.65784 0.65787-1.2038 1.3749-1.638 2.1512-0.43415 0.77634-0.80926 1.6185-1.1253 2.5265-0.31608 0.90807-0.59902 1.895-0.84882 2.9609-0.24981 1.0659-0.49318 2.2045-0.73012 3.4157-0.55262 2.7366-0.82893 4.7631-0.82893 6.0796 0 1.053 0.19076 2.0729 0.5723 3.0597 0.38153 0.98676 0.94077 1.8619 1.6777 2.6253 0.73696 0.76347 1.6582 1.3755 2.7639 1.8362 1.1056 0.46065 2.3822 0.69097 3.8296 0.69097 1.3157 0 2.6974-0.26326 4.1452-0.78977s2.7243-1.3424 3.8296-2.4476c0.65782-0.65864 1.204-1.3761 1.6386-2.1524 0.43453-0.77631 0.80963-1.6185 1.1253-2.5265 0.31564-0.90804 0.59857-1.8884 0.8488-2.941 0.25018-1.0526 0.49336-2.1974 0.72953-3.4344 0.28994-1.3687 0.50078-2.5663 0.63254-3.5928 0.1317-1.0265 0.19757-1.8558 0.19759-2.488zm-6.6326 0.55302c-1e-5 0.73738-0.0855 1.639-0.25663 2.7049-0.1711 1.0659-0.33577 2.0069-0.49398 2.8229-0.23697 1.184-0.45404 2.184-0.65122 3-0.19721 0.81609-0.38797 1.4938-0.57229 2.0332-0.18436 0.53937-0.3687 0.97352-0.55303 1.3024-0.18436 0.32893-0.38174 0.61186-0.59218 0.84881-0.3687 0.39519-0.7964 0.71769-1.2831 0.96748-0.48677 0.24981-1.0064 0.37471-1.5591 0.3747-0.78959 6e-6 -1.4476-0.25642-1.9741-0.76929-0.52652-0.51285-0.78977-1.2564-0.78977-2.2308 0-0.73655 0.0855-1.638 0.25665-2.7043 0.17106-1.0663 0.33533-2.007 0.49276-2.8223 0.23695-1.1847 0.45422-2.1852 0.65183-3.0012 0.19758-0.81606 0.38854-1.4938 0.5729-2.0332 0.18432-0.53935 0.36847-0.97349 0.55241-1.3024 0.18392-0.3289 0.38113-0.61184 0.59158-0.84881 0.36867-0.39516 0.79658-0.71766 1.2838-0.96748 0.48713-0.24978 1.007-0.37468 1.5597-0.3747 0.78954 2.3e-5 1.4476 0.25665 1.9741 0.76989 0.52651 0.51328 0.78977 1.2567 0.78978 2.2302z"/>
       <path transform="matrix(.16647 0 0 .16647 200.96 -3.4873)" d="m468.85 77.438c4.0599 2.5114 6.3565 4.7787 6.7019 9.8137l-27.643 159.09h39.375l17.781-87.75 35.812 87.75h32.719l33.938-168.88h-39.375l-17.562 88-36.031-88h-13.062v-0.03125z"/>
       <path d="m322.67 18.252c-2e-5 -1.1317-0.17111-2.2372-0.51326-3.3163-0.34219-1.0791-0.87513-2.0464-1.5988-2.9019-0.72374-0.85541-1.6515-1.5462-2.7832-2.0723-1.1318-0.52609-2.5005-0.78914-4.1061-0.78917-1.5526 2.81e-5 -3.0199 0.26971-4.4019 0.80905-1.382 0.53939-2.6388 1.3749-3.7705 2.5067-0.55261 0.55264-1.0263 1.1251-1.4211 1.7175-0.39479 0.5924-0.75021 1.29-1.0663 2.0928-0.31607 0.80284-0.61226 1.7766-0.88856 2.9211-0.27632 1.1446-0.58556 2.5595-0.92772 4.2446-0.21046 0.97352-0.39459 1.9998-0.55243 3.079-0.15783 1.0791-0.23675 2.0794-0.23675 3.0006 0 0.97352 0.16446 1.9472 0.49338 2.9211 0.32891 0.97392 0.85523 1.8557 1.5789 2.6452 0.7237 0.78957 1.658 1.4279 2.803 1.9151 1.145 0.48716 2.5203 0.73073 4.126 0.73073 1.4209 0 2.8223-0.25663 4.2043-0.76989 1.3819-0.51326 2.6388-1.3358 3.7705-2.4675 0.57911-0.57912 1.0857-1.1846 1.5199-1.8163 0.43413-0.63173 0.80923-1.3161 1.1253-2.053 0.31604-0.73695 0.58593-1.5464 0.80966-2.4284 0.22367-0.88193 0.44073-1.8755 0.65121-2.9808l0.71085-3.7904h-10.503l-1.0265 5.4483h3.988l-0.11808 0.59278c-0.28998 1.3687-0.86268 2.4609-1.7181 3.2766-0.85545 0.81568-1.849 1.2235-2.9808 1.2235-0.34218 6e-6 -0.68435-0.03935-1.0265-0.11807-0.34219-0.07871-0.6448-0.22992-0.90785-0.45362-0.26307-0.22369-0.48014-0.52631-0.65122-0.90784-0.17109-0.38152-0.25664-0.8751-0.25663-1.4807-1e-5 -0.73735 0.079-1.6323 0.23675-2.685 0.15783-1.0526 0.32911-2.0131 0.51386-2.8814 0.21044-1.0265 0.40121-1.9215 0.57231-2.685 0.17107-0.76345 0.34878-1.4347 0.53314-2.0139 0.18433-0.57911 0.39476-1.0727 0.63132-1.4807 0.23655-0.40802 0.51306-0.76987 0.82954-1.0856 0.26263-0.26263 0.64397-0.53874 1.144-0.82832 0.5-0.28954 1.1054-0.43432 1.8163-0.43434 0.92128 2.3e-5 1.6122 0.30264 2.0729 0.90784 0.46064 0.60525 0.71708 1.4079 0.76929 2.4079z"/>
      </g>
     </g>
    </g>
   </g>
  </g>
 </g>
</svg>
