<svg width="800" height="327.07" version="1.1" viewBox="0 0 800 327.07" xml:space="preserve" xmlns="http://www.w3.org/2000/svg"><defs><clipPath id="clipPath212"><path d="m314.47 21.794h60.465v24.748h-60.465z"/></clipPath></defs><g transform="matrix(1.3333 0 0 -1.3333 5.2253e-5 327.07)"><g transform="matrix(9.9232 0 0 9.9232 -3120.6 -216.27)" fill="#fff"><g clip-path="url(#clipPath212)" fill="#fff"><g transform="translate(330.8 43.655)"><path d="m0 0c-8e-3 -0.022-0.372-0.036-0.426-0.044-0.173-0.023-0.355-0.019-0.529-0.023-0.354-7e-3 -0.708-1e-3 -1.062 0.01-1.171 0.036-2.322 0.077-3.49-0.05-0.391-0.043-0.781-0.098-1.169-0.166-1.102-0.192-2.306-0.528-3.036-1.432-0.342-0.423-0.473-1-0.457-1.535 0.013-0.443 0.151-0.984 0.477-1.306 0.144-0.141 0.286-0.284 0.442-0.439-0.022-0.05-0.045-0.106-0.067-0.159-0.274-4e-3 -0.507 0.091-0.737 0.188-0.394 0.166-0.811 0.397-1 0.802-0.196 0.417-0.119 0.952 0.061 1.361 0.151 0.342 0.346 0.667 0.566 0.977 0.294 0.415 0.66 0.753 1.021 1.097 0.226 0.215 0.498 0.384 0.758 0.56 0.173 0.119 0.357 0.226 0.547 0.315 0.338 0.157 0.679 0.31 1.038 0.413 0.211 0.06 0.423 0.114 0.64 0.152 1.194 0.213 2.446 0.153 3.647 0.01 0.711-0.086 1.416-0.213 2.131-0.257 0.358-0.021 0.717 0 1.073 0.036 0.178 0.018 0.355 0.04 0.532 0.062 0.147 0.017 0.293 0.047 0.44 0.063 0.023 3e-3 0.045 5e-3 0.066-2e-3 0.042-0.014 0.065-0.062 0.063-0.108-3e-3 -0.043-0.024-0.084-0.049-0.121-0.075-0.119-0.127-0.252-0.188-0.379-0.087-0.185-0.174-0.37-0.266-0.554-0.082-0.179-0.163-0.358-0.244-0.537-0.041-0.092-0.083-0.184-0.124-0.277-0.03-0.065-0.119-0.189-0.119-0.26-0.307-0.704-0.626-1.414-0.883-2.139-0.024-0.065-0.042-0.132-0.066-0.198-0.075-0.202-0.165-0.396-0.26-0.618 0.193 0.223 0.278 0.304 0.4 0.469 0.134 0.183 0.271 0.364 0.409 0.544 0.318 0.416 0.652 0.817 0.998 1.211 0.342 0.389 0.693 0.768 1.062 1.131 0.083 0.081 0.165 0.163 0.248 0.243 0.042 0.043 0.084 0.084 0.126 0.126 0.02 0.019 0.097 0.12 0.121 0.12 0.228 0.227 0.471 0.44 0.727 0.635 0.137 0.106 0.26 0.23 0.392 0.341 0.336 0.284 0.688 0.544 1.05 0.795 0.212 0.146 0.43 0.283 0.649 0.421 0.108 0.068 0.214 0.143 0.326 0.204 0.223 0.124 0.446 0.249 0.675 0.358 0.418 0.198 0.842 0.383 1.287 0.516 0.522 0.155 1.073 0.263 1.624 0.291 0.59 0.029 1.25 0.04 1.718-0.381 0.046-0.041 0.091-0.088 0.11-0.146 0.021-0.059 0.011-0.132-0.038-0.17-0.043-0.034-0.102-0.032-0.157-0.031-0.728 0.023-1.474-0.1-2.186-0.245-0.772-0.159-1.525-0.401-2.254-0.7-0.31-0.128-0.618-0.264-0.91-0.428-0.422-0.236-0.842-0.474-1.24-0.749-0.272-0.189-0.53-0.396-0.797-0.594-0.399-0.296-0.765-0.636-1.12-0.986-0.264-0.261-0.524-0.525-0.787-0.787-0.016-0.015-0.03-0.022-0.071-0.069 0.294-0.603 0.633-1.28 0.931-1.882 0.102-0.209 0.197-0.42 0.314-0.621 0.144-0.246 0.261-0.507 0.415-0.748 0.096-0.15 0.164-0.319 0.258-0.473 0.245-0.392 0.475-0.793 0.751-1.167 0.243-0.33 0.498-0.644 0.793-0.928 0.24-0.232 0.618-0.444 0.955-0.465 0.073-4e-3 0.159-4e-3 0.202-0.061 0.044-0.06 0.015-0.149-0.043-0.195-0.058-0.045-0.134-0.057-0.207-0.067-0.726-0.089-1.492-0.075-2.131 0.322-0.051 0.031-0.1 0.065-0.149 0.1-0.542 0.398-0.881 0.997-1.254 1.543-0.041 0.06-0.076 0.12-0.112 0.183-0.316 0.54-0.592 1.103-0.868 1.665-0.268 0.543-0.494 1.107-0.771 1.644-0.115-0.15-0.235-0.296-0.342-0.45-0.17-0.243-0.336-0.488-0.497-0.738-0.151-0.234-0.29-0.477-0.44-0.712-0.228-0.355-0.413-0.734-0.624-1.098-0.191-0.328-0.347-0.679-0.51-1.022-0.137-0.29-0.272-0.581-0.391-0.879-0.098-0.242-0.197-0.483-0.314-0.716-0.018-0.035-0.041-0.065-0.062-0.098h-0.177c-0.128 0-0.316 0.505-0.36 0.6-0.067 0.145-0.128 0.296-0.15 0.454-0.028 0.208 0.013 0.42 0.064 0.624 0.126 0.505 0.32 0.999 0.492 1.489 0.082 0.233 0.169 0.463 0.256 0.693 0.075 0.195 0.157 0.387 0.226 0.584 0.516 1.486 1.169 2.929 1.833 4.354 0.079 0.167 0.157 0.331 0.22 0.504" fill="#fff"/></g><g transform="translate(341.21 42.596)"><path d="m0 0h-1.307v-2.76h1.383c0.513 0 0.909 0.121 1.187 0.363s0.417 0.588 0.417 1.039c0 0.905-0.561 1.358-1.68 1.358m-2.577-7.711v8.835h2.798c0.842 0 1.514-0.227 2.014-0.682 0.502-0.455 0.752-1.065 0.752-1.832 0-0.513-0.129-0.968-0.385-1.364-0.257-0.395-0.608-0.683-1.055-0.861-0.446-0.18-1.086-0.269-1.92-0.269h-0.934v-3.827z" fill="#fff"/></g><g transform="translate(355.82 43.707)"><path d="m0 0h1.579l-3.828-4.187 4.768-4.635h-1.724l-4.509 4.358v-4.358h-1.263v8.822h1.263v-4.035z" fill="#fff"/></g><g transform="translate(346.9 43.691)"><path d="m0 0h1.263v-5.892c0-0.812-0.083-1.413-0.25-1.803-0.166-0.39-0.434-0.701-0.804-0.935-0.371-0.234-0.659-0.391-1.778-0.369-0.08 1e-3 -0.217 0.013-0.411 0.038l0.205 1.193h0.323c0.362 0 0.638 0.045 0.83 0.133 0.191 0.088 0.343 0.244 0.454 0.467 0.112 0.223 0.168 0.698 0.168 1.421z" fill="#fff"/></g><g transform="translate(358.51 27.335)"><path d="m0 0c0.203 0.183 0.305 0.421 0.305 0.713 0 0.604-0.386 0.907-1.156 0.907h-0.775v-1.895h0.599c0.481 0 0.824 0.092 1.027 0.275" fill="#fff"/></g><g transform="translate(363.34 26.126)"><path d="m0 0h1.96l-1.017 2.283z" fill="#fff"/></g><g transform="translate(370.31 26.789)"><path d="m0 0v-3.334h-0.925v3.334l-2.328 2.969h1.089l1.687-2.173 1.71 2.173h1.095zm-3.803-3.334-0.84 1.868h-2.689l-0.788-1.868h-0.927l2.707 6.339h0.634l2.827-6.339zm-6.461 0.856c-0.166-0.252-0.408-0.458-0.729-0.618-0.32-0.159-0.721-0.238-1.202-0.238h-2.134v6.303h1.651c0.521 0 0.927-0.07 1.218-0.21 0.292-0.14 0.514-0.332 0.668-0.578 0.153-0.245 0.23-0.528 0.23-0.85 0-0.619-0.32-1.063-0.961-1.331 0.46-0.087 0.827-0.277 1.099-0.569 0.272-0.291 0.408-0.64 0.408-1.047 0-0.322-0.083-0.609-0.248-0.862m-9.492-0.856h-0.903v2.742h-3.541v-2.742h-0.903v6.303h0.903v-2.725h3.541v2.725h0.903zm-6.939 5.509h-2.198v-5.509h-0.906v5.509h-2.162v0.803h5.266zm-6.709-2.785c0-0.484-0.035-0.849-0.106-1.096-0.07-0.246-0.158-0.452-0.262-0.616-0.103-0.164-0.231-0.31-0.38-0.44-0.5-0.429-1.153-0.645-1.959-0.645-0.821 0-1.48 0.214-1.976 0.641-0.151 0.133-0.278 0.28-0.382 0.444s-0.189 0.365-0.257 0.603c-0.067 0.237-0.101 0.61-0.101 1.119v3.569h0.907v-3.579c0-0.592 0.068-1.004 0.203-1.236 0.135-0.231 0.341-0.417 0.618-0.557s0.603-0.21 0.979-0.21c0.535 0 0.971 0.14 1.309 0.42 0.177 0.15 0.305 0.328 0.383 0.532 0.078 0.205 0.117 0.555 0.117 1.051v3.579h0.907zm-8.113-1.883c-0.654-0.609-1.479-0.914-2.473-0.914-0.95 0-1.742 0.305-2.375 0.914-0.632 0.609-0.949 1.373-0.949 2.29 0 0.941 0.319 1.721 0.957 2.337 0.637 0.617 1.442 0.925 2.417 0.925 0.973 0 1.784-0.308 2.432-0.925 0.648-0.616 0.972-1.39 0.972-2.319s-0.327-1.699-0.981-2.308m-7.747-0.44c-0.338-0.316-0.778-0.474-1.32-0.474-0.623 0-1.19 0.192-1.701 0.574v1.146c0.487-0.617 1.051-0.926 1.692-0.926 0.282 0 0.518 0.079 0.706 0.236 0.188 0.158 0.283 0.355 0.283 0.591 0 0.384-0.278 0.748-0.831 1.093l-0.686 0.416c-0.43 0.263-0.736 0.522-0.918 0.776s-0.273 0.546-0.273 0.877c0 0.496 0.172 0.9 0.516 1.209 0.345 0.31 0.792 0.465 1.343 0.465 0.527 0 1.009-0.148 1.448-0.443v-1.024c-0.454 0.436-0.943 0.655-1.466 0.655-0.295 0-0.537-0.068-0.727-0.205-0.189-0.136-0.284-0.311-0.284-0.523 0-0.189 0.07-0.366 0.209-0.531 0.14-0.165 0.365-0.337 0.674-0.519l0.689-0.407c0.769-0.46 1.153-1.044 1.153-1.754 0-0.506-0.168-0.916-0.507-1.232m-6.572-2.062h60.465v9.682h-60.465z" fill="#fff"/></g><g transform="translate(326.4 28.99)"><path d="m0 0c-0.721 0-1.314-0.225-1.779-0.676-0.464-0.452-0.696-1.028-0.696-1.729 0-0.679 0.233-1.245 0.698-1.696 0.466-0.452 1.05-0.678 1.75-0.678 0.703 0 1.29 0.231 1.76 0.691s0.706 1.033 0.706 1.719c0 0.668-0.236 1.23-0.706 1.685-0.47 0.456-1.048 0.684-1.733 0.684" fill="#fff"/></g><g transform="translate(358.71 26.139)"><path d="m0 0c-0.208 0.079-0.535 0.117-0.984 0.117h-0.843v-1.998h0.889c0.493 0 0.828 0.038 1.004 0.115 0.176 0.076 0.317 0.196 0.424 0.358 0.106 0.162 0.16 0.337 0.16 0.524 0 0.193-0.056 0.368-0.169 0.527-0.113 0.16-0.274 0.278-0.481 0.357" fill="#fff"/></g><g transform="translate(365.51 42.225)"><path d="m0 0c0.029 2e-3 0.053 5e-3 0.076 5e-3 0.578 0 1.156 0 1.733 1e-3 0.056 0 0.095-2e-3 0.115-0.073 0.197-0.735 0.313-1.48 0.32-2.241 0-0.021-4e-3 -0.041-6e-3 -0.068h-2.238z" fill="#fff"/></g><g transform="translate(364.89 36.912)"><path d="m0 0c-0.603 0-1.188-1e-3 -1.773 3e-3 -0.029 0-0.076 0.037-0.083 0.065-0.087 0.396-0.185 0.792-0.246 1.193-0.05 0.325-0.055 0.656-0.079 0.985-4e-3 0.041-1e-3 0.084-1e-3 0.133h2.25c-0.023-0.791-0.045-1.579-0.068-2.379" fill="#fff"/></g><g transform="translate(364.95 39.848)"><path d="m0 0h-2.161c0 0.163-9e-3 0.324 1e-3 0.485 0.038 0.602 0.131 1.196 0.293 1.778 0.024 0.087 0.057 0.123 0.155 0.122 0.567-6e-3 1.135-3e-3 1.712-3e-3z" fill="#fff"/></g><g transform="translate(365.51 36.918)"><path d="m0 0v2.375h2.167c0-0.141 6e-3 -0.282-1e-3 -0.422-0.035-0.633-0.13-1.258-0.305-1.869-0.016-0.055-0.03-0.092-0.103-0.091-0.567 3e-3 -1.134 1e-3 -1.701 2e-3 -0.017 0-0.033 3e-3 -0.057 5e-3" fill="#fff"/></g><g transform="translate(360.03 39.853)"><path d="m0 0c0.06 0.323 0.106 0.638 0.178 0.946 0.113 0.478 0.3 0.929 0.548 1.353 0.021 0.035 0.071 0.075 0.108 0.075 0.507 5e-3 1.014 3e-3 1.522 2e-3 0.013 0 0.027-4e-3 0.049-7e-3 -0.213-0.774-0.34-1.558-0.339-2.369z" fill="#fff"/></g><g transform="translate(368.02 36.92)"><path d="m0 0c0.213 0.777 0.341 1.562 0.339 2.373h2.048c-0.018-0.151-0.03-0.301-0.054-0.448-0.108-0.659-0.319-1.282-0.658-1.86-0.021-0.034-0.074-0.069-0.112-0.069-0.503-5e-3 -1.007-3e-3 -1.51-3e-3 -0.014 0-0.028 4e-3 -0.053 7e-3" fill="#fff"/></g><g transform="translate(368.36 39.851)"><path d="m0 0c-5e-3 0.806-0.112 1.597-0.342 2.379h0.508c0.348 0 0.695-1e-3 1.043 1e-3 0.058 1e-3 0.097-0.012 0.128-0.068 0.364-0.642 0.594-1.329 0.681-2.062 8e-3 -0.067 0.015-0.134 0.021-0.201 1e-3 -0.014-1e-3 -0.028-2e-3 -0.049z" fill="#fff"/></g><g transform="translate(360.05 39.294)"><path d="m0 0h2.045c5e-3 -0.808 0.112-1.598 0.342-2.382h-0.157c-0.465 0-0.929 1e-3 -1.393-1e-3 -0.059 0-0.096 0.013-0.128 0.069-0.366 0.641-0.594 1.328-0.682 2.061-9e-3 0.08-0.017 0.16-0.027 0.253" fill="#fff"/></g><g transform="translate(367.12 42.842)"><path d="m0 0h-1.615v1.836c0.317-0.065 0.568-0.229 0.786-0.447 0.382-0.384 0.624-0.855 0.827-1.349 3e-3 -8e-3 1e-3 -0.019 2e-3 -0.04" fill="#fff"/></g><g transform="translate(363.34 36.3)"><path d="m0 0h1.613v-1.836c-0.324 0.067-0.58 0.237-0.801 0.464-0.373 0.381-0.611 0.845-0.811 1.333-4e-3 8e-3 -1e-3 0.019-1e-3 0.039" fill="#fff"/></g><g transform="translate(364.95 44.68)"><path d="m0 0v-1.834h-1.609c-3e-3 7e-3 -9e-3 0.015-7e-3 0.02 0.218 0.554 0.493 1.074 0.949 1.475 0.189 0.165 0.405 0.282 0.667 0.339" fill="#fff"/></g><g transform="translate(365.51 36.301)"><path d="m0 0h1.627c-0.19-0.47-0.422-0.898-0.753-1.267-0.238-0.263-0.511-0.477-0.874-0.57z" fill="#fff"/></g><g transform="translate(363.58 44.475)"><path d="m0 0c-0.113-0.144-0.216-0.265-0.308-0.394-0.251-0.354-0.428-0.748-0.589-1.148-0.031-0.076-0.068-0.099-0.147-0.098-0.4 4e-3 -0.8 1e-3 -1.2 2e-3 -0.034 0-0.068 3e-3 -0.125 6e-3 0.642 0.769 1.399 1.331 2.369 1.632" fill="#fff"/></g><g transform="translate(366.89 44.448)"><path d="m0 0c0.925-0.322 1.715-0.834 2.361-1.613h-0.163c-0.391 0-0.781 4e-3 -1.171-1e-3 -0.081-1e-3 -0.114 0.028-0.144 0.102-0.191 0.469-0.401 0.929-0.724 1.328-0.052 0.062-0.106 0.123-0.159 0.184" fill="#fff"/></g><g transform="translate(363.58 34.67)"><path d="m0 0c-0.938 0.343-1.726 0.854-2.366 1.62 0.034 7e-3 0.056 0.016 0.078 0.016 0.423 2e-3 0.844 0 1.267 3e-3 0.067 0 0.09-0.03 0.112-0.085 0.183-0.446 0.38-0.886 0.676-1.272 0.068-0.089 0.143-0.174 0.233-0.282" fill="#fff"/></g><g transform="translate(369.25 36.306)"><path d="m0 0c-0.647-0.778-1.437-1.291-2.354-1.627 0 0.014-2e-3 0.022 1e-3 0.025 0.403 0.429 0.651 0.949 0.867 1.486 0.036 0.09 0.08 0.12 0.178 0.119 0.389-7e-3 0.779-3e-3 1.169-3e-3z" fill="#fff"/></g></g></g></g></svg>
