<svg width="800" height="176.45" version="1.1" viewBox="0 0 800 176.45" xml:space="preserve" xmlns="http://www.w3.org/2000/svg"><g transform="matrix(1.3333 0 0 -1.3333 0 2082.5)"><path d="m207.92 1503.3c0 32.29-26.291 58.565-58.589 58.565-32.29 0-58.565-26.275-58.565-58.565 0-32.321 26.275-58.604 58.565-58.604 10.2 0 19.802 2.6066 28.143 7.2205l18.082-22.385 11.313 9.1189-17.608 21.802c11.469 10.691 18.658 25.949 18.658 42.848m-102.5 0c0 24.198 19.708 43.891 43.914 43.891 24.221 0 43.906-19.693 43.906-43.891 0-24.214-19.685-43.914-43.906-43.914-24.206 0-43.914 19.701-43.914 43.914" fill="#00aeef"/><g fill="#fff"><path d="m31.426 1501.9-16.199-16.363v-39.829h-15.227v114.31h15.227v-55.858l54.239 55.858h18.798l-46.318-47.268 48.264-67.046h-18.471z"/><path d="m248.68 1497.7v-38.164h66.027v-13.857h-81.339v114.76h79.378v-14.036h-64.066l-0.0156-34.64h55.585v-14.068z"/><path d="m443.75 1502.8c0 26.937-18.549 57.025-60.705 57.025h-44.303v-114.04h44.482c37.627 0 60.526 27.754 60.526 57.017m-89.167 42.949h25.637c32.422 0 47.174-19.693 47.174-42.949 0-14.246-8.6521-42.926-46.318-42.926h-26.493z"/><path d="m540.03 1559.3h6.2634v-53.936h53.71v-6.2634h-53.71v-53.5h-6.2634v53.5h-53.71v6.2634h53.71z"/></g></g></svg>
