<svg width="800" height="135.87" version="1.1" viewBox="0 0 800 135.87" xml:space="preserve" xmlns="http://www.w3.org/2000/svg"><g transform="matrix(1.3333 0 0 -1.3333 0 1824.4)"><path d="m160.1 1323.2c0 24.87-20.245 45.108-45.114 45.108-24.864 0-45.096-20.239-45.096-45.108 0-24.888 20.233-45.12 45.096-45.12 7.8546 0 15.242 2.013 21.671 5.5539l13.924-17.225 8.7114 7.0098-13.558 16.788c8.8312 8.2381 14.367 19.981 14.367 32.994m-78.929 0c0 18.633 15.17 33.809 33.815 33.809s33.809-15.176 33.809-33.809c0-18.639-15.164-33.821-33.809-33.821s-33.815 15.182-33.815 33.821" fill="#00aeef"/><g fill="#fff"><path d="m24.193 1322.1-12.474-12.594v-30.669h-11.719v88.024h11.719v-43.018l41.765 43.018h14.475l-35.666-36.403 37.164-51.621h-14.223z"/><path d="m191.49 1318.8v-29.381h50.842v-10.676h-62.633v88.372h61.123v-10.796h-49.332l-0.012-26.679h42.802v-10.838z"/><path d="m341.7 1322.8c0 20.742-14.283 43.916-46.744 43.916h-34.114v-87.814h34.246c28.974 0 46.612 21.371 46.612 43.898m-68.66 33.072h19.741c24.966 0 36.325-15.158 36.325-33.072 0-10.964-6.6623-33.054-35.672-33.054h-20.394z"/><path d="m389.4 1367h5.3922v-50.351l55.006 50.351h6.9798l-39.932-36.385 42.382-51.088h-6.7342l-39.573 47.409-18.13-16.536v-30.873h-5.3922z"/><path d="m464.75 1354.4h4.6552v12.618h-4.6552zm0-74.849h4.6552v62.968h-4.6552z"/><path d="m532.86 1293h-0.24564c-5.1465-9.9216-12.863-14.942-24.133-14.942-18.986 0-27.194 15.434-27.194 32.826 0 18.621 9.0648 33.078 28.051 33.078 10.293 0 19.969-5.6319 23.276-15.559h0.24564v38.596h4.6552v-87.473h-4.6552zm-0.12582 17.884c0 14.703-7.2255 29.034-23.396 29.034-16.662 0-23.396-13.84-23.396-29.034 0-14.822 7.3513-28.788 23.522-28.788 15.925 0 23.27 14.337 23.27 28.788"/><path d="m554.55 1300.5c0.73094-11.641 9.4303-18.375 20.826-18.375 8.2081 0 19.969 2.4444 19.969 13.355 0 10.652-10.784 12.246-21.563 14.457-10.904 2.2048-21.682 5.0207-21.682 17.884 0 12.498 12.126 16.17 22.785 16.17 13.355 0 23.276-5.7576 23.276-20.095h-4.6552c-0.12582 11.396-8.0823 16.051-18.621 16.051-8.5736 0-18.13-3.1814-18.13-12.126 0-10.047 10.778-11.641 20.946-13.846 12.498-2.3246 22.3-5.2663 22.3-18.495 0-13.6-13.6-17.399-24.624-17.399-14.337 0-25.116 7.7168-25.481 22.419z"/></g></g></svg>
