<svg width="800" height="182.69" version="1.1" viewBox="0 0 800 182.69" xml:space="preserve" xmlns="http://www.w3.org/2000/svg"><g transform="matrix(1.3333 0 0 -1.3333 0 2387.4)"><path d="m214.56 1729.7c0 33.322-27.127 60.441-60.457 60.441-33.322 0-60.441-27.119-60.441-60.441 0-33.354 27.119-60.481 60.441-60.481 10.522 0 20.432 2.699 29.036 7.4605l18.667-23.106 11.674 9.4101-18.168 22.502c11.835 11.03 19.247 26.78 19.247 44.215m-105.78 0c0 24.976 20.335 45.294 45.319 45.294 24.992 0 45.303-20.319 45.303-45.294 0-24.984-20.311-45.327-45.303-45.327-24.984 0-45.319 20.343-45.319 45.327" fill="#00aeef"/><g fill="#fff"><path d="m32.428 1728.3-16.718-16.887v-41.105h-15.71v117.97h15.71v-57.645l55.97 57.645h19.4l-47.8-48.775 49.806-69.199h-19.062z"/><path d="m256.63 1723.9v-39.381h68.135v-14.309h-83.942v118.44h81.92v-14.486h-66.113l-0.0161-35.747h57.355v-14.518z"/><path d="m457.93 1729.1c0 27.804-19.143 58.854-62.649 58.854h-45.713v-117.7h45.899c38.833 0 62.463 28.65 62.463 58.846m-92.015 44.328h26.45c33.467 0 48.686-20.327 48.686-44.328 0-14.703-8.9268-44.296-47.8-44.296h-27.336z"/><path d="m527.35 1700.1c2.554-15.146 13.946-25.346 29.431-25.346 32.323 0 36.746 38.785 36.746 59.716l-0.33838 0.3384c-4.7615-12.931-15.992-23.816-34.192-23.816-23.485 0-39.647 16.669-39.647 40.146 0 23.139 16.677 39.47 39.647 39.47 18.031 0 41-7.9922 41-54.954 0-28.923-6.9771-66.516-43.216-66.516-19.562 0-33.685 11.223-35.9 30.962zm64.816 51.039c0 18.716-14.284 33.862-33.169 33.862-18.893 0-33.177-15.316-33.177-33.862s14.284-34.539 33.177-34.539c19.392 0 33.169 15.485 33.169 34.539"/></g></g></svg>
