<svg width="800" height="327.06" version="1.1" viewBox="0 0 800 327.06" xml:space="preserve" xmlns="http://www.w3.org/2000/svg"><defs><clipPath id="clipPath472"><path d="m164.88 21.76h60.465v24.748h-60.465z"/></clipPath></defs><g transform="matrix(1.3333 0 0 -1.3333 -1012.2 663.18)"><g transform="matrix(9.9231 0 0 9.9231 -787.7 452.7)"><g transform="translate(204.88 -15.814)"><path d="m0 0h1.96l-1.017 2.282z"/></g><g transform="translate(-8.9952 -41.978)"><g clip-path="url(#clipPath472)"><g transform="translate(185.73 28.589)"><path d="m0 0c-0.105 0.161-0.253 0.275-0.444 0.341s-0.508 0.099-0.95 0.099h-0.27v-1.989h0.343c0.456 0 0.77 0.038 0.94 0.116 0.17 0.079 0.302 0.197 0.397 0.355 0.094 0.158 0.142 0.337 0.142 0.539 0 0.199-0.053 0.378-0.158 0.539"/></g><g transform="translate(209.29 26.178)"><path d="m0 0c-0.208 0.079-0.536 0.117-0.984 0.117h-0.844v-1.998h0.889c0.494 0 0.829 0.038 1.004 0.114 0.176 0.077 0.318 0.196 0.425 0.358 0.106 0.163 0.159 0.338 0.159 0.525 0 0.192-0.056 0.368-0.168 0.527-0.114 0.159-0.274 0.278-0.481 0.357"/></g><g transform="translate(177.91 29.029)"><path d="m0 0c-0.721 0-1.314-0.225-1.778-0.677-0.465-0.451-0.697-1.027-0.697-1.728 0-0.68 0.233-1.246 0.698-1.697 0.467-0.451 1.05-0.677 1.75-0.677 0.703 0 1.289 0.23 1.76 0.691 0.471 0.46 0.706 1.033 0.706 1.719 0 0.668-0.235 1.23-0.706 1.685-0.471 0.456-1.048 0.684-1.733 0.684"/></g><g transform="translate(221.96 26.828)"><path d="m0 0v-3.335h-0.925v3.335l-2.329 2.968h1.09l1.687-2.172 1.71 2.172h1.095zm-4.911-3.335-0.841 1.868h-2.689l-0.788-1.868h-0.927l2.707 6.339h0.635l2.826-6.339zm-6.427 0.857c-0.165-0.252-0.408-0.458-0.728-0.618-0.321-0.159-0.721-0.239-1.203-0.239h-2.134v6.303h1.652c0.52 0 0.926-0.069 1.218-0.209 0.291-0.14 0.514-0.333 0.668-0.578 0.153-0.245 0.229-0.529 0.229-0.851 0-0.619-0.32-1.062-0.961-1.331 0.461-0.087 0.826-0.276 1.1-0.568 0.271-0.292 0.408-0.641 0.408-1.047 0-0.322-0.083-0.609-0.249-0.862m-9.501-0.857h-0.902v2.743h-3.542v-2.743h-0.903v6.303h0.903v-2.725h3.542v2.725h0.902zm-6.939 5.509h-2.197v-5.509h-0.907v5.509h-2.161v0.804h5.265zm-7.236-5.509-0.276 0.415c-9e-3 0.015-0.026 0.041-0.053 0.077l-0.177 0.248-0.278 0.461-0.303 0.492c-0.186 0.259-0.357 0.465-0.512 0.618-0.154 0.153-0.295 0.264-0.42 0.331-0.125 0.068-0.335 0.101-0.629 0.101h-0.235v-2.743h-0.903v6.303h1.579c0.638 0 1.144-0.157 1.518-0.474 0.375-0.315 0.562-0.742 0.562-1.281 0-0.367-0.091-0.684-0.275-0.952s-0.447-0.467-0.79-0.6c0.201-0.133 0.399-0.313 0.592-0.541 0.191-0.229 0.462-0.627 0.811-1.197 0.221-0.357 0.397-0.627 0.528-0.807l0.335-0.451zm-6.643 0.842c-0.654-0.609-1.478-0.914-2.473-0.914-0.951 0-1.742 0.305-2.375 0.914s-0.949 1.371-0.949 2.29c0 0.941 0.319 1.72 0.956 2.337 0.637 0.616 1.443 0.925 2.417 0.925s1.785-0.309 2.433-0.925c0.648-0.617 0.971-1.39 0.971-2.319 0-0.93-0.327-1.699-0.98-2.308m-7.605-0.842h-0.776l-4.215 4.855v-4.855h-0.848v6.303h0.731l4.25-4.896v4.896h0.858zm-7.816-1.732h60.465v9.682h-60.465z"/></g><g transform="translate(209.08 27.373)"><path d="m0 0c0.202 0.184 0.305 0.422 0.305 0.713 0 0.605-0.386 0.907-1.156 0.907h-0.776v-1.894h0.6c0.481 0 0.824 0.091 1.027 0.274"/></g><g transform="translate(177.63 43.622)"><path d="m0 0c-8e-3 -0.022-0.372-0.036-0.426-0.044-0.173-0.023-0.355-0.019-0.529-0.023-0.354-7e-3 -0.708-1e-3 -1.062 0.01-1.171 0.036-2.322 0.077-3.49-0.05-0.391-0.043-0.781-0.098-1.169-0.166-1.102-0.192-2.306-0.528-3.036-1.432-0.342-0.423-0.473-1-0.457-1.535 0.013-0.443 0.151-0.984 0.477-1.306 0.144-0.141 0.286-0.284 0.442-0.439-0.022-0.05-0.045-0.106-0.067-0.159-0.274-4e-3 -0.507 0.091-0.737 0.188-0.394 0.166-0.811 0.397-1 0.802-0.196 0.417-0.119 0.952 0.061 1.361 0.151 0.342 0.346 0.667 0.566 0.977 0.294 0.415 0.66 0.753 1.021 1.097 0.226 0.215 0.498 0.384 0.758 0.56 0.173 0.119 0.357 0.226 0.547 0.315 0.338 0.157 0.679 0.31 1.038 0.413 0.211 0.06 0.423 0.114 0.64 0.152 1.194 0.213 2.446 0.153 3.647 0.01 0.711-0.086 1.416-0.213 2.131-0.257 0.358-0.021 0.717 0 1.073 0.036 0.178 0.018 0.355 0.04 0.532 0.062 0.147 0.017 0.293 0.047 0.44 0.063 0.023 3e-3 0.045 5e-3 0.066-2e-3 0.042-0.014 0.065-0.062 0.063-0.108-3e-3 -0.043-0.024-0.084-0.049-0.121-0.075-0.119-0.127-0.252-0.188-0.379-0.087-0.185-0.174-0.37-0.266-0.554-0.082-0.179-0.163-0.358-0.244-0.537-0.041-0.092-0.083-0.184-0.124-0.277-0.03-0.065-0.119-0.189-0.119-0.26-0.307-0.704-0.626-1.414-0.883-2.139-0.024-0.065-0.042-0.132-0.066-0.198-0.075-0.202-0.165-0.396-0.26-0.618 0.193 0.223 0.278 0.304 0.4 0.469 0.134 0.183 0.271 0.364 0.409 0.544 0.318 0.416 0.652 0.817 0.998 1.211 0.342 0.389 0.693 0.768 1.062 1.131 0.083 0.081 0.165 0.163 0.248 0.243 0.042 0.043 0.084 0.084 0.126 0.126 0.02 0.019 0.097 0.12 0.122 0.12 0.227 0.227 0.47 0.44 0.726 0.635 0.137 0.106 0.259 0.23 0.392 0.341 0.336 0.284 0.688 0.544 1.05 0.795 0.212 0.146 0.43 0.283 0.648 0.421 0.109 0.068 0.215 0.143 0.327 0.204 0.223 0.124 0.446 0.249 0.674 0.358 0.419 0.198 0.843 0.383 1.288 0.516 0.522 0.155 1.073 0.263 1.624 0.291 0.59 0.029 1.25 0.04 1.718-0.381 0.046-0.041 0.091-0.088 0.11-0.146 0.021-0.059 0.011-0.132-0.038-0.17-0.043-0.034-0.102-0.032-0.157-0.031-0.728 0.023-1.474-0.1-2.186-0.245-0.772-0.159-1.525-0.401-2.254-0.7-0.31-0.128-0.618-0.264-0.91-0.428-0.422-0.236-0.842-0.474-1.24-0.749-0.272-0.189-0.53-0.396-0.797-0.594-0.399-0.296-0.765-0.636-1.12-0.986-0.264-0.261-0.524-0.525-0.787-0.787-0.016-0.015-0.03-0.022-0.071-0.069 0.294-0.603 0.633-1.28 0.931-1.882 0.102-0.209 0.197-0.42 0.314-0.621 0.144-0.246 0.261-0.507 0.415-0.748 0.096-0.15 0.164-0.319 0.258-0.473 0.245-0.392 0.475-0.793 0.751-1.167 0.243-0.33 0.498-0.644 0.793-0.928 0.241-0.232 0.618-0.444 0.955-0.465 0.073-4e-3 0.159-4e-3 0.202-0.061 0.044-0.06 0.015-0.149-0.043-0.195-0.058-0.045-0.134-0.057-0.207-0.067-0.726-0.089-1.492-0.075-2.132 0.322-0.05 0.031-0.099 0.065-0.148 0.1-0.542 0.398-0.881 0.997-1.254 1.543-0.041 0.06-0.076 0.12-0.112 0.183-0.316 0.54-0.592 1.103-0.868 1.664-0.268 0.544-0.494 1.108-0.771 1.645-0.115-0.15-0.235-0.296-0.343-0.45-0.169-0.243-0.335-0.488-0.496-0.738-0.151-0.234-0.29-0.477-0.44-0.712-0.228-0.355-0.413-0.734-0.624-1.098-0.191-0.328-0.347-0.679-0.51-1.022-0.137-0.29-0.273-0.581-0.391-0.879-0.098-0.242-0.197-0.483-0.314-0.716-0.018-0.035-0.041-0.065-0.062-0.098h-0.177c-0.128 0-0.316 0.505-0.36 0.6-0.067 0.145-0.128 0.296-0.15 0.454-0.028 0.208 0.013 0.42 0.064 0.624 0.126 0.505 0.32 0.999 0.492 1.489 0.082 0.233 0.169 0.463 0.256 0.693 0.075 0.195 0.157 0.387 0.226 0.584 0.516 1.486 1.169 2.929 1.833 4.354 0.079 0.167 0.157 0.331 0.22 0.504"/></g><g transform="translate(187.1 42.586)"><path d="m0 0h-0.378v-2.779h0.479c0.638 0 1.077 0.054 1.314 0.163s0.422 0.274 0.555 0.495c0.132 0.22 0.199 0.472 0.199 0.753 0 0.278-0.074 0.528-0.221 0.753-0.147 0.226-0.355 0.384-0.621 0.476-0.267 0.092-0.709 0.139-1.327 0.139m-1.639-7.734v8.806h2.206c0.891 0 1.598-0.221 2.121-0.662 0.524-0.442 0.786-1.039 0.786-1.79 0-0.513-0.129-0.956-0.385-1.33s-0.624-0.654-1.103-0.838c0.281-0.186 0.557-0.437 0.825-0.757 0.269-0.319 0.647-0.876 1.135-1.67 0.307-0.5 0.552-0.877 0.737-1.129l0.467-0.63h-1.5l-0.384 0.58c-0.013 0.021-0.038 0.057-0.076 0.108l-0.245 0.347-0.391 0.642-0.421 0.688c-0.261 0.362-0.499 0.649-0.716 0.863-0.216 0.214-0.412 0.368-0.586 0.463-0.175 0.094-0.469 0.142-0.881 0.142h-0.328v-3.833z"/></g><g transform="translate(200.81 36.894)"><path d="m0 0v-1.387c-0.924-0.504-1.991-0.756-3.202-0.756-0.984 0-1.818 0.198-2.502 0.592-0.686 0.395-1.227 0.94-1.626 1.633-0.4 0.693-0.599 1.443-0.599 2.25 0 1.282 0.456 2.36 1.371 3.234 0.914 0.874 2.041 1.311 3.381 1.311 0.924 0 1.952-0.242 3.083-0.725v-1.355c-1.03 0.588-2.036 0.883-3.02 0.883-1.008 0-1.846-0.319-2.512-0.955-0.666-0.637-0.999-1.435-0.999-2.393 0-0.966 0.328-1.76 0.984-2.382 0.655-0.622 1.493-0.934 2.515-0.934 1.067 0 2.109 0.328 3.126 0.984"/></g><g transform="translate(205.83 38.767)"><path d="m0 0h-1.178v-2.792h1.241c0.689 0 1.157 0.053 1.402 0.16 0.246 0.107 0.443 0.274 0.593 0.501 0.149 0.227 0.223 0.47 0.223 0.732 0 0.268-0.078 0.515-0.236 0.737-0.157 0.223-0.381 0.389-0.671 0.498-0.29 0.108-0.748 0.164-1.374 0.164m-0.094 3.77h-1.084v-2.648h0.838c0.672 0 1.15 0.128 1.434 0.385 0.283 0.256 0.425 0.587 0.425 0.995 0 0.845-0.538 1.268-1.613 1.268m0.636-7.684h-2.981v8.805h2.307c0.726 0 1.293-0.097 1.701-0.293 0.408-0.195 0.719-0.464 0.933-0.806 0.214-0.344 0.322-0.74 0.322-1.189 0-0.865-0.448-1.486-1.342-1.859 0.642-0.123 1.154-0.387 1.535-0.795 0.38-0.407 0.569-0.895 0.569-1.462 0-0.45-0.115-0.851-0.346-1.204s-0.571-0.64-1.018-0.864c-0.447-0.222-1.007-0.333-1.68-0.333"/></g><g transform="translate(217.87 39.877)"><path d="m0 0c0.288 0 0.523 0.233 0.523 0.523 0 0.288-0.235 0.522-0.523 0.522-0.289 0-0.523-0.234-0.523-0.522 0-0.29 0.234-0.523 0.523-0.523m-1.119 2.453c-1.245 0-2.268-0.868-2.268-2.157 0-1.083 0.653-1.857 1.626-2.005v-1.508h2.027v1.449h0.281c0.328 0.032 0.552 0.249 0.555 0.554v0.838h0.552l-1.256 2.829zm3.902-2.829h0.552l-1.24 2.829h-0.812l1.244-2.829h-0.567v-0.75c2e-3 -0.455-0.188-0.649-0.806-0.642v-1.449h0.805v1.449h0.265c0.236-6e-3 0.554 0.185 0.559 0.557zm-8.037 0.037c0 2.821 2.287 5.109 5.108 5.109 2.822 0 5.109-2.288 5.109-5.109s-2.287-5.107-5.109-5.107c-2.821 0-5.108 2.286-5.108 5.107"/></g></g></g></g></g></svg>
