<svg width="600pt" height="248.86pt" version="1.1" viewBox="0 0 600 248.86" xmlns="http://www.w3.org/2000/svg">
 <defs>
  <linearGradient id="linearGradient849" x1="143.13" x2="254.08" y1="187.06" y2="187.06" gradientUnits="userSpaceOnUse">
   <stop stop-color="#ef4823" offset="0"/>
   <stop stop-color="#f68b1e" offset="1"/>
  </linearGradient>
 </defs>
 <g transform="matrix(1.6398 0 0 1.6398 -17.286 -182.3)">
  <path d="m167.97 111.97c28.91-2.36 58.3 0.52 86.11 8.83-15.09-3.46-30.55-5.28-46.05-4.92-34.94 0.4-69.76 7.75-102.04 21.12-19.21 8.25-37.54 18.84-53.58 32.3-12.72 10.97-24.55 24.1-29.66 40.43-2.04 6.78-2.78 14.07-1.44 21.06 4.8453 20.305 14.32 24.07 25.56 32.15-14.04-8.36-27.2-19.94-33.13-35.56-5.87-15.09-3.43-32.77 5.46-46.18 13.02-20.67 33.82-35.06 55.55-45.4 29.21-13.74 61.12-21.2 93.22-23.83z" fill="url(#linearGradient849)"/>
 </g>
 <path d="m136.86 27.163c6.2919-2.1796 12.533-4.5861 18.927-6.4539 5.352-1.5636 15.875-4.6593 21.101-5.9178l-20.432 7.5507c-19.448 6.8544-38.273 15.48-56.212 25.663-18.349 10.626-36.354 22.318-51.211 37.617-15.021 15.332-27.795 33.452-34.255 54.097-5.5753 18.399-5.6737 39.158 2.7549 56.704 4.1159 9.2157 8.5106 18.415 14.807 26.401 7.5759 10.167 17.283 18.3 27.237 26.04-22.793-13.446-43.997-32.173-53.935-57.311-8.9425-21.957-6.9211-47.456 3.7732-68.429 10.544-19.727 25.876-36.551 43.242-50.506 25.122-19.973 54.179-34.419 84.204-45.455z" fill="#f68b1e" stroke-width="1.6398"/>
 <g transform="matrix(1.6398 0 0 1.6398 -17.122 -182.32)" fill="#1e4799">
  <path d="m154.08 131.98h32.86l-75.42 63.6c-7.5205 6.3558-11.272 11.47-1.52 11.47h26.1c2.7971 0 4.3156-1.0216 5.34-3.58l8.16-21.85c0.43-1.48 1.71-2.4 2.81-3.37l37.69-31.57-21.56 60.37h14.55c-3.15 8.24-6.16 16.495-9.27 24.755h-12.85l-10.21 28.175h-30.58l10.05-28.175h-40.24c-28.982 0-30.975-25.595-11.29-40.045z"/>
  <path d="m214.15 131.98h79.47l-8.85 25.66c-16.62 0.08-33.23 0.45-49.86 0.39-2.7748 0-3.87 1.38-4.38 3.36l-2.3852 7.2799c-1.4232 4.2892-0.0589 4.2077 4.0788 4.6853 9.9459 0.85778 19.939 1.8936 29.476 4.9248 15.41 5.32 27.27 22.01 23.58 38.54-2.18 14.76-13.31 26.63-26.35 33.01-13.34 7.46-28.91 8.75-43.84 10.05-14.1 0.55-28.2 0.01-42.3 0.05l9.54-26.89c11.714 0.32404 22.5 0.09 33.75-0.08 7.86-0.35 15.9-1.95 22.66-6.16 3.22-2 6.22-4.68 7.77-8.22 2.16-4.95 0.69-11.23-3.51-14.65-5-4.15-11.71-5.31-17.99-5.92-11.82-0.56-23.65 0.54-35.37 1.97z"/>
  <path d="m334.72 211.05 11.8-1.06c-2.54 12.36-4.18 24.87-5.45 37.42 8.94-11.81 16.54-24.62 23.98-37.42l11.29 0.98c-9.62 17.05-20.58 33.58-32.63 49.01h-13.98c-0.79-16.39 1.29-32.97 4.99-48.93z"/>
  <path d="m300.22 210.62h34.4l-3.75 9.51-11.64 0.89-14.85 38.96h-11.93l14.86-38.98-10.69-0.82z"/>
 </g>
</svg>
