<svg width="800" height="406.6" version="1.1" xmlns="http://www.w3.org/2000/svg">
 <link href="" rel="stylesheet" type="text/css"/>
 <style type="text/css"/>
 <g transform="matrix(1.9096 0 0 1.9096 -30.443 -24.599)" fill="#31bf4f">
  <path d="m124.84 140.54c15.415-0.44772 29.384-7.0485 39.835-17.474 9.4918 10.707 23.333 17.474 38.696 17.474 15.44 0 29.332-6.831 38.824-17.64 9.5046 10.809 23.397 17.64 38.837 17.64 28.463 0 51.732-23.256 51.732-51.732v-75.218h-33.771v75.218c0 11.027-8.8138 20.058-19.841 20.058-11.04 0-20.071-9.0313-20.071-20.058v-75.218h-33.771v75.218c0 11.027-9.0313 20.058-20.071 20.058-11.027 0-19.841-9.0313-19.841-20.058v-75.218h-33.771v63.897c-0.24306 15.786-11.769 28.885-25.917 29.307l-49.391-0.0128c-14.685 0-26.621-13.278-26.621-29.614 0-16.451 11.935-29.831 26.621-29.831h49.48v-33.759h-49.48c-33.298 0-60.379 28.488-60.379 63.59 0 34.897 27.081 63.372 60.379 63.372z"/>
  <path d="m79.069 87.443v-17.333h6.1658v-3.4155h-16.591v3.4155h6.1658v17.333z"/>
  <path d="m123.05 70.105v-3.4155h-13.432v20.749h13.816v-3.4155h-9.543v-5.3855h8.3789v-3.4923h-8.3789v-5.0401z"/>
  <path d="m105.59 87.443v-20.749h-4.247v8.4556h-8.8266v-8.4556h-4.247v20.736h4.247v-8.7882h8.8266v8.801z"/>
  <path d="m383.3 139.44h-32.273v-92.267h-11.526v-34.29h43.798z"/>
  <path d="m434.88 139.44h-32.273v-92.267h-11.526v-34.29h43.798z"/>
  <path d="m212.76 224.97v-11.64h41.599c2.8676 0 4.685-0.11083 6.2312-1.5721 1.5461-1.4612 1.7821-3.094 1.7822-5.512-6e-5 -2.6445-0.19469-3.1713-1.7408-4.7407-1.8355-1.4453-3.405-1.7342-6.2726-1.7342h-23.801c-2.8676 3e-5 -4.2098-0.17067-6.5428-1.0416-2.333-0.8709-4.9628-2.3446-6.5657-3.8917-1.6028-1.547-2.8401-3.3888-3.7119-5.5254-0.87178-2.1365-1.3077-4.4704-1.3077-7.0017-1e-5 -2.4729 0.40757-6.2199 1.2227-8.3291 0.81514-2.109 2.0241-3.9229 3.627-5.4418 1.6028-1.5187 2.9886-2.7135 5.35-3.5845 2.3613-0.87086 5.0608-1.3063 8.0983-1.3064h44.031v10.711h-43.369c-2.4746 6e-5 -4.3868 0.66075-5.7365 1.9821-1.3497 1.3214-2.0246 2.1047-2.0246 4.4677-2e-5 2.3614 0.689 4.1886 2.067 5.4816 1.378 1.2931 3.2477 1.9397 5.6091 1.9396h27.427c6.2414 0 7.2028 1.4622 10.437 4.3864 3.2339 2.9243 4.8509 8.4254 4.851 14.385-6e-5 2.5879-0.39391 4.9784-1.1815 7.1716-0.78775 2.1932-1.9689 4.0908-3.5433 5.6927-1.5746 1.602-3.5567 2.853-5.9463 3.7531-2.3897 0.9001-4.9886 1.3502-8.1942 1.3502z" font-family="'Good Times Rg'" font-size="64px" letter-spacing="0px" word-spacing="0px"/>
  <path d="m306.72 224.97v-50.61h-23.281v-10.711h57.275v10.711h-23.281v50.61z" font-family="'Good Times Rg'" font-size="64px" letter-spacing="0px" word-spacing="0px"/>
  <path d="m422.11 163.73-7.3467 40.367-17.007-27.299c-0.61784-1.2922-1.3626-2.2901-2.2344-2.9937-0.87182-0.70361-1.9538-1.0554-3.246-1.0554-2.5313 0-4.3589 1.3497-5.4829 4.0491l-16.68 27.408-7.5681-40.476h-11.419l10.835 57.694c0.73103 2.9242 2.502 4.3863 5.313 4.3864 1.1257-7e-5 2.1807-0.30939 3.1649-0.92798 0.98416-0.61872 1.7294-1.5184 2.2356-2.699l19.939-33.493 19.398 33.384c1.0107 2.4179 3.2721 3.7363 5.6901 3.7364 2.5878-7e-5 4.303-1.4622 5.1457-4.3864l10.329-57.694z" font-family="'Good Times Rg'" font-size="64px" letter-spacing="0px" word-spacing="0px"/>
  <path d="m187.81 163.47-25.625 25.438h-7.375l0.21875 10.531h7.1562l25.844 25.844h15.688l-31.406-31.406 30.812-30.406zm-48.094 0.21875v61.594h10.531v-61.594z" fill-rule="evenodd"/>
 </g>
</svg>
