<svg width="247.52" height="318.21" version="1.1" viewBox="0 0 247.52 318.21" xml:space="preserve" xmlns="http://www.w3.org/2000/svg">
<g transform="matrix(.74644 0 0 .74644 -243.19 -56.804)">
	<rect x="326.8" y="172.6" width="329.1" height="329.8" fill="#fff"/>
	<rect x="326.8" y="172.6" width="329.1" height="329.8" fill="none"/>
</g>
<g transform="matrix(.74644 0 0 .74644 -243.19 -56.804)">
	<linearGradient id="SVGID_1_" x1="374.03" x2="608.22" y1="368.04" y2="368.04" gradientUnits="userSpaceOnUse">
		<stop stop-color="#0A1D6C" offset="0"/>
		<stop stop-color="#1B68F4" offset=".7304"/>
		<stop stop-color="#1CA0F8" offset="1"/>
	</linearGradient>
	<path d="m608.2 367.7c0-18.2-4.6-36.2-13.2-52.2-8.4-15.5-20.5-29-34.9-39.1-16.6-11.7-36.4-19.1-56.6-21.3-22.4-2.4-45.5 1.5-65.3 12.4-18.9 10.4-34.3 26.5-44.8 45.4-1.3 2.4-2.5 4.7-3.7 7.2 9.1-0.3 18.3 0 27.5 0 11.3 0 22.7 0.1 34 0.1 9.4 0 18.8 0.1 28.3 0.1 6.3 0 12.7-0.2 18.9 0.8 12.2 2 23.2 8.4 30.5 18.4 3.5 4.8 6.1 10.2 7.8 15.9 1.1 3.8 1.9 7.7 2.2 11.6 0.4 4.4-0.1 8.9-0.6 13.3-1.8 15.8-13.3 29.7-27.4 36.5-12.7 6.2-28.1 6.7-41.5 2.5-10.7-3.3-19.8-10.2-25.8-19.7-3.2-5-5.4-10.5-7-16.1-0.8-3-1.6-6.1-1.9-9.2-0.3-3.7-0.2-7.4 0-11 0.2-3.4 0.5-6.8 0.8-10.2h-42.6c-2.6 0-5.2 0.2-7.8 0.2-1.5 0-3 0-4.5 0.1-1.3 0.1-2.9-0.2-4.3-0.2-0.6 0-0.7 0-0.8 0.5-0.1 0.7-0.3 1.4-0.3 2-0.4 4.2-1 8.4-1.2 12.6-0.2 3.9 0.2 8 0.6 11.9 0.5 4.7 1.3 9.4 2.4 14 4.6 19.2 14.3 36.9 27.8 51.2 13.1 13.9 29.7 24.5 47.9 30.5 17.6 5.9 36.6 7.6 55 4.9 16.9-2.4 33.1-8.5 47.4-17.8 13.9-9 26.1-21.1 35.1-34.9 9.3-14.2 15.2-30.5 17.2-47.4 0.6-4.5 0.8-8.8 0.8-13z" fill="url(#SVGID_1_)"/>
				<line x1="614.3" x2="614.3" y1="211.8" y2="211.8" fill="#37469b"/>
	<linearGradient id="SVGID_2_" x1="374.48" x2="534.03" y1="403.78" y2="403.78" gradientUnits="userSpaceOnUse">
		<stop stop-color="#0A1D6C" offset="0"/>
		<stop stop-color="#0B2275" offset=".083327"/>
		<stop stop-color="#1B68F4" offset=".5371"/>
		<stop stop-color="#1C85F6" offset=".7201"/>
		<stop stop-color="#1C99F7" offset=".8864"/>
		<stop stop-color="#1CA0F8" offset="1"/>
	</linearGradient>
	<path d="m483.3 421.7c-24.3-1.9-42.6-15.9-47.7-44-1.2-6.8-0.3-17.7 0.3-24.8h-60.3c-0.7 4.7-1.1 9.6-1.1 14.5 0 48.3 37.1 87.4 82.9 87.4 38.2 0 67.1-23.7 76.7-60.7-10 18.8-30.2 29.2-50.8 27.6z" fill="url(#SVGID_2_)"/>
	<linearGradient id="SVGID_3_" x1="398.86" x2="588.59" y1="233.98" y2="233.98" gradientUnits="userSpaceOnUse">
		<stop stop-color="#0A1D6C" offset="0"/>
		<stop stop-color="#0B2275" offset=".083327"/>
		<stop stop-color="#1B68F4" offset=".5371"/>
		<stop stop-color="#1C85F6" offset=".7201"/>
		<stop stop-color="#1C99F7" offset=".8864"/>
		<stop stop-color="#1CA0F8" offset="1"/>
	</linearGradient>
	<path d="m426.5 194.1s-17.3 50.5-27.7 79.8c8.8-15 34-49 81-49 41.2 0 79.3 0.1 99.4 0.1l9.3-31z" fill="url(#SVGID_3_)"/>
		<linearGradient id="SVGID_4_" x1="397.87" x2="579.45" y1="250.62" y2="250.62" gradientUnits="userSpaceOnUse">
			<stop stop-color="#0A1D6C" offset="0"/>
			<stop stop-color="#1B68F4" offset=".7304"/>
			<stop stop-color="#1CA0F8" offset="1"/>
		</linearGradient>
		<path d="m398.1 276.4c34.8-35.6 80.2-36.9 80.2-36.9h95.9l5.2-14.9h-99.7c-47 0-71.8 33.6-80.6 48.6-0.4 1-0.9 2.6-1.3 3.6z" fill="url(#SVGID_4_)"/>
		<linearGradient id="SVGID_5_" x1="604.87" x2="240.61" y1="460.18" y2="108.22" gradientUnits="userSpaceOnUse">
			<stop stop-color="#0A1D6C" offset="0"/>
			<stop stop-color="#0B2275" offset=".083327"/>
			<stop stop-color="#1B68F4" offset=".5371"/>
			<stop stop-color="#1C85F6" offset=".7201"/>
			<stop stop-color="#1C99F7" offset=".8864"/>
			<stop stop-color="#1CA0F8" offset="1"/>
		</linearGradient>
		<path d="m458 280.3c-22.2 0-50.3 13.7-65.1 34.9-1 1.5-2.1 3.2-2.8 4.8h5.4c23.1-0.1 92.5 0.2 93.9 0.2 23.7-0.3 41.5 14.8 47.2 34.4-5.8-42-37.7-74.3-78.6-74.3z" fill="url(#SVGID_5_)"/>
</g>
<g transform="matrix(.74644 0 0 .74644 -243.19 -56.804)">
			<line x1="615.1" x2="615.1" y1="211.1" y2="211.1" fill="#37469b"/>
</g>
<path d="m247.52 53.818-28.887-53.818h-23.662l-25.155 46.13h-36.874v-46.13h-86.512l-37.919 25.901h-0.82109v-25.901h-7.6883v60.835h7.6883v-28.365h0.82109l40.532 28.365h13.361l-46.055-31.649 33.142-22.468h28.813v54.117h7.539v-54.042h28.365v54.117h67.627l5.9715-10.152h37.098l5.8969 10.152h16.646zm-52.624-17.765 11.57-21.497 11.794 21.497z" fill="#fff" stroke-width=".74644"/>
</svg>
