<svg width="800" height="354.38" version="1.1" viewBox="0 0 800 354.38" xml:space="preserve" xmlns="http://www.w3.org/2000/svg">
<g transform="matrix(5.2736 0 0 5.2736 -.52736 -45.88)"><path class="st0" d="m151.7 51.1c0 3.1-2.5 5.5-5.5 5.5h-140.5c-3.1 0-5.5-2.5-5.5-5.5v-36.9c0-3.1 2.5-5.5 5.5-5.5h140.5c3.1 0 5.5 2.5 5.5 5.5z" fill="#fed96c"/><g fill="#020305">
			<path class="st1" d="m55.1 50.4h-19.4v-2c0.6 0 1.3-0.1 2.1-0.3 0.8-0.1 1.4-0.2 1.7-0.4 0.6-0.3 1.1-0.6 1.3-1 0.3-0.4 0.4-1 0.4-1.7v-26.6l-12.2 31.4h-3.2c-0.2-0.6-0.5-1.7-1.1-3.3s-1.1-3-1.4-4l-9-24.5v21.7c0 2.1 0.1 3.7 0.4 4.7 0.3 1.1 0.7 1.9 1.3 2.4 0.4 0.4 1.2 0.7 2.2 1 1.1 0.3 1.8 0.5 2.3 0.6v2h-15.4v-2c0.4 0 1.1-0.2 2.1-0.3 1-0.2 1.7-0.5 2.3-0.9 0.7-0.5 1.1-1.3 1.4-2.4 0.2-1.1 0.4-2.7 0.4-4.8v-17.7c0-1.1-0.1-2-0.4-2.7s-0.7-1.3-1.2-1.7c-0.7-0.5-1.4-0.9-2.1-1s-1.4-0.2-2.1-0.3v-2h16.5l8.8 23.5 7.5-19.1c0.3-0.7 0.5-1.5 0.7-2.5s0.4-1.6 0.4-1.9h15.6v2c-0.5 0-1.1 0.1-1.7 0.2s-1.2 0.2-1.7 0.4c-0.7 0.2-1.1 0.6-1.3 1-0.2 0.5-0.3 1-0.3 1.6v25.2c0 0.6 0.1 1.1 0.3 1.5s0.6 0.8 1.3 1.1c0.3 0.2 0.9 0.3 1.7 0.4s1.4 0.2 1.8 0.3z"/>
			<path class="st1" d="m78.2 44.3c-0.6 1-1.3 1.9-2.1 2.7s-1.8 1.6-2.8 2.2c-1.1 0.6-2.3 1.1-3.4 1.4s-2.5 0.5-4 0.5c-2.5 0-4.6-0.3-6.4-1.1-1.8-0.7-3.3-1.7-4.5-2.8-1.2-1.2-2.1-2.6-2.6-4.2-0.6-1.6-0.9-3.4-0.9-5.3 0-1.7 0.3-3.3 0.9-4.9s1.5-3 2.7-4.2c1.1-1.2 2.6-2.2 4.3-2.9s3.7-1.1 5.8-1.1c2.3 0 4.3 0.3 5.8 0.9s2.8 1.4 3.7 2.4c1 1 1.6 2.1 2.1 3.4 0.4 1.3 0.7 2.7 0.7 4.1v1.6h-17c0 3.4 0.7 6 2 7.8s3.4 2.7 6.3 2.7c1.6 0 3-0.4 4.3-1.3s2.3-1.9 3.2-3.3zm-9.5-9.5c0-1-0.1-2-0.2-3.1s-0.3-1.9-0.5-2.6c-0.3-0.8-0.7-1.4-1.2-1.8s-1.1-0.6-1.9-0.6c-1.3 0-2.3 0.7-3.1 2s-1.2 3.4-1.3 6.2z"/>
		</g>
			<path class="st1" d="m146.8 48.5c0 2-1.6 3.7-3.7 3.7h-58.5c-2 0-3.7-1.6-3.7-3.7v-31.8c0-2 1.6-3.7 3.7-3.7h58.6c2 0 3.7 1.6 3.7 3.7v31.8z" fill="#020305"/>
		<g fill="#fff">
			<path class="st2" d="m85.3 18.2v6.8h8.6v20.7h9.3v-20.7h8.4v-6.8h-26.3z"/>
			<polygon class="st2" points="133.5 18.2 128.2 36.1 122.6 18.2 112.5 18.2 123.2 45.8 133 45.8 143.6 18.2"/>
		</g><g class="st3" opacity=".5">
			<linearGradient id="SVGID_1_" x1="75.967" x2="75.68" y1="34.226" y2="20.439" gradientUnits="userSpaceOnUse">
				<stop stop-color="#F7FBFF" stop-opacity=".4" offset="0"/>
				<stop stop-color="#fff" stop-opacity=".1" offset="1"/>
			</linearGradient>
			<path class="st4" d="m149.8 10.1c-1-0.9-2.4-1.4-3.9-1.4h-140.3c-3.1 0-5.5 2.5-5.5 5.5v32.7c60.9-28 151.5-14.1 151.5-14.1v-18.6c0.1-1.7-0.7-3.1-1.8-4.1z" fill="url(#SVGID_1_)"/>
		</g>
			<linearGradient id="SVGID_2_" x1="75.995" x2="75.995" y1="8.6513" y2="14.639" gradientUnits="userSpaceOnUse">
				<stop stop-color="#F7FBFF" stop-opacity=".6" offset="0"/>
				<stop stop-color="#fff" stop-opacity=".033829" offset=".6732"/>
				<stop stop-color="#fff" stop-opacity="0" offset="1"/>
			</linearGradient>
			<path class="st5" d="m151.8 14.6h-0.2c0-3.2-2.9-5-6.2-5h-139.9c-3.1 0-5 3.2-5 4.4h-0.3c0-2 1.8-5.3 5.4-5.3h140.5c3.1 0 5.7 2 5.7 5.9z" fill="url(#SVGID_2_)"/>
		</g><g transform="matrix(5.2736 0 0 5.2736 -.52736 -45.88)">
		<g fill="#fff">
			<path class="st2" d="m19.1 60.2h8.6c4.1 0 5 2.3 5 3.9s-0.8 2.4-1.9 3.1c1.4 0.5 2.7 1.6 2.7 3.9 0 3.1-2.7 4.8-5.5 4.8h-8.9zm4.9 6.1h2.6c1 0 1.6-0.3 1.6-1.3 0-0.8-0.7-1.1-1.6-1.1h-2.6zm0 5.9h2.8c1 0 1.9-0.3 1.9-1.5 0-0.9-0.5-1.4-1.7-1.4h-3z"/>
			<path class="st2" d="m39.8 60.2h4.7l5.7 15.7h-5l-0.7-2.2h-5l-0.7 2.2h-4.8zm3.8 10.1-1.4-4.8-1.5 4.8z"/>
			<path class="st2" d="m53.3 70.1-5.5-9.9h5.3l2.6 5.8 2.7-5.8h5.3l-5.6 9.9v5.8h-4.8z"/>
			<path class="st2" d="m76 60.2h4.7l5.7 15.7h-5l-0.7-2.2h-5l-0.7 2.2h-4.9zm3.8 10.1-1.4-4.8-1.5 4.8z"/>
			<path class="st2" d="m87.6 60.2h9.2c2.7 0 5.1 1.5 5.1 4.5 0 1.6-0.7 3.3-2.4 3.9 1.3 0.5 2.1 2 2.3 3.9 0.1 0.8 0.1 2.6 0.5 3.4h-4.8c-0.2-0.8-0.3-1.6-0.4-2.4-0.1-1.5-0.2-3.1-2.1-3.1h-2.6v5.5h-4.8zm4.8 6.9h2.5c0.9 0 2.1-0.2 2.1-1.6 0-1-0.5-1.6-2.4-1.6h-2.3v3.2z"/>
			<path class="st2" d="m103.9 60.2h13v4h-8.2v2h7.4v3.7h-7.4v2h8.4v4h-13.2z"/>
			<path class="st2" d="m123.7 60.2h4.7l5.7 15.7h-5l-0.7-2.2h-5l-0.7 2.2h-4.9zm3.8 10.1-1.4-4.8-1.5 4.8z"/>
		</g>
	</g>
</svg>
