<svg width="211.67mm" height="169.43mm" version="1.1" viewBox="0 0 750 600.34" xmlns="http://www.w3.org/2000/svg">
 <g transform="translate(-152.22 130.23)">
  <g transform="matrix(3.1534 0 0 3.1534 -327.78 -1012.3)">
   <path d="m286.57 287.67s38.736-8.884 55.729-7.8589c16.984 1.0251 22.085 12.301 27.185 20.501 5.092 8.2006 18.01 33.836 20.043 74.163 0 0 1.7001 15.034-1.0167 34.519-2.7168 19.476-7.4755 29.044-22.427 37.252-14.951 8.2006-60.821 18.451-103.64 22.552-42.811 4.1003-78.83-2.7335-78.83-2.7335s-19.893-2.9252-25.218-11.859c0 0-3.5502-4.9087-5.0253-12.751-1.2167-6.4588-2.7168-33.827 2.7168-58.779 5.4337-24.952 11.892-40.328 14.268-45.795 2.3835-5.467 8.2505-12.868 14.951-16.401 5.267-2.7752 66.263-27.343 101.27-32.81" fill="#f68313"/>
   <path d="m285.53 290.36s37.702-7.6671 54.237-6.7088c16.534 0.9584 21.785 9.259 26.743 16.926 4.9587 7.6672 16.293 33.044 18.285 70.746 0 0 0.95005 14.959-1.7001 33.177-2.6418 18.21-6.7755 25.502-21.326 33.169s-59.204 19.868-100.87 23.702c-41.669 3.8252-77.522 0.67505-77.522 0.67505s-18.793-2.8169-23.352-11.176c0 0-3.8419-4.692-4.4086-13.201-0.40002-6.1338-1.3084-34.777 3.9836-58.104s11.567-37.711 13.884-42.82c2.3168-5.117 6.8088-11.126 13.234-14.059 5.217-2.3835 64.746-27.21 98.815-32.327" fill="#fab22e"/>
   <path d="m210.17 314.52s-27.085 21.726-36.786 64.379c-9.7007 42.653 16.026 70.18 28.885 77.63 12.868 7.4422 60.254 29.11 110.12-19.185 49.878-48.295 30.252-103.36 19.193-117.8-11.067-14.443-28.444-29.719-53.937-29.944-25.502-0.22513-54.395 14.084-67.479 24.918" fill="#aa0c31"/>
   <path d="m207.98 311.01s-27.077 21.726-36.786 64.379c-9.7006 42.653 16.026 70.18 28.885 77.63 12.868 7.4422 60.254 29.11 110.13-19.185 49.87-48.295 30.235-103.36 19.185-117.8-11.067-14.443-28.435-29.719-53.945-29.952-25.493-0.22514-54.387 14.093-67.471 24.927" fill="#e51636"/>
   <path d="m198.31 352.47 26.568-6.2588s-0.17489-21.326 20.993-26.235c0 0 9.2589-2.5418 13.093 1.6918 0 0 2.8169 11.842-10.726 17.435-13.534 5.5837-22.001 6.7088-22.001 6.7088l-2.2585 27.985 3.6002 3.0502 18.635-3.2169s13.309-1.9751 15.734 2.0335c0 0 5.2504 14.043-6.092 25.552 0 0-5.242 5.0837-13.543 6.9421-8.2922 1.8585-12.859 0.50836-14.734-0.50836-1.8501-1.0167-9.4673-6.9421-7.2672-24.543l-3.5502-2.7669-30.302 5.4754s-6.6004 22.852 6.5921 44.511c0 0 13.543 25.56 48.07 24.377 34.536-1.1834 61.112-34.194 66.521-58.729 4.1836-18.935 2.3751-37.244-18.776-50.953 0 0 17.768-19.626 0.66671-44.345 0 0-13.026-23.693-49.587-11.676 0 0-18.785 7.4505-29.619 22.001-10.834 14.559-14.401 24.885-15.576 38.086z" fill="#4f4c4d"/>
   <path d="m220.95 342.72s-0.11672-15.851 12.526-23.302c12.643-7.4422 23.468-4.2836 24.602 1.8085 0 0 4.2836 13.993-17.835 20.535l-14.893 3.6086-2.7085 27.76 19.86-3.1586s17.376-3.6169 18.735 8.1256c1.3501 11.734-1.5834 26.852-24.827 29.785-23.243 2.9335-20.76-24.827-20.535-28.66l-30.302 5.4754s-9.4756 34.694 17.943 58.054c27.418 23.352 76.505 3.3836 94.106-32.327 17.601-35.711 7.4505-59.412-13.709-67.704 0 0 18.285-15.909 6.9421-40.111 0 0-13.726-26.86-48.578-15.951 0 0-46.628 13.318-48.412 61.987z" fill="#a7a5a6"/>
   <path d="m218.84 341.09s-0.68336-13.426 12.501-22.385c13.193-8.9506 29.56-5.367 28.202 4.2586-1.3668 9.6256-3.4169 17.234-34.569 23.277l-1.5834 24.843 21.143-3.1336s18.876-4.0252 19.56 11.859c0.67502 15.893-7.5088 27.985-26.835 29.994-19.326 2.0168-25.235-11.634-24.102-28.202l-27.51 5.1503s-9.1006 35.361 21.368 55.954c30.469 20.593 64.346-5.367 72.313-12.751 7.9505-7.3922 27.052-29.327 25.235-57.079 0 0-0.22514-21.043-23.877-29.544 0 0 14.551-12.092 11.142-30.219-3.4086-18.126-20.918-31.56-47.52-24.618-26.602 6.9338-48.662 34.911-50.028 58.862z" fill="#fff"/>
  </g>
 </g>
</svg>
