<svg width="1e3" height="927.79" version="1.1" viewBox="0 0 1613.3 1496.8" xmlns="http://www.w3.org/2000/svg">
 <link href="" rel="stylesheet" type="text/css"/>
 <style type="text/css"/>
 <g transform="matrix(2.5101 0 0 2.5101 -266.77 -411.89)">
  <g transform="matrix(1.4439 0 0 1.4439 454.33 -590.87)">
   <g transform="matrix(1.1188 0 0 1.1188 -247.62 519.96)">
    <path transform="matrix(.99871 0 0 .99871 -59.909 -98.996)" d="m204.29 123.8v253.27h190.45l25.83 27.619 0.16211-27.619h30.209v-253.27z" fill="#00adee"/>
    <path d="m62.501 2.5831h184.56v184.24h-184.56z" fill="#9adbf8"/>
    <path transform="scale(1.6133)" d="m3.6465 71.572v55.674h52.107l-2.7402 17.574 14.664-17.574h21.652v-55.674z" fill="#f9ec31"/>
    <path transform="matrix(.99871 0 0 .99871 -59.909 -98.996)" d="m100.11 300.69v77.123h24.502l12.352 29.621 12.832-29.621h37.744v-77.123z" fill="#f00"/>
    <path transform="scale(1.6133)" d="m192.89 52.082c-14.954 0-26.781 16.993-26.781 45.822 0 33.027 13.365 48.313 26.236 48.313 7.1188 0 16.308-6.986 19.352-13.744 3.1309-6.83 7.7598-17.006 7.7598-31.816 0-16.32-3.4999-27.214-6.6309-34.619-3.044-7.477-11.515-13.955-19.936-13.955z" fill="#ff0"/>
   </g>
   <g transform="matrix(1.1188 0 0 1.1188 -247.62 519.96)">
    <path transform="scale(1.6133)" d="m17.262 84.779-4.2715 33.727h7.8613l2.0117-20.889 7.4453 20.889h3.6465l7.4453-20.889 2.0117 20.889h7.8613l-4.2715-33.727h-8.8887l-5.9805 19.011-5.9824-19.011z"/>
    <path d="m80.071 136.81h13.648l9.6189 15.728 10.037-15.988h13.373l-17.555 29.045v25.506h-11.765v-25.368z"/>
   </g>
   <g transform="matrix(1.1278 0 0 1.1098 -247.62 519.96)" fill="#00f" font-family="'Tw Cen MT Condensed Extra Bold'" font-size="366.83px" font-weight="bold" letter-spacing="0px" text-align="center" text-anchor="middle" word-spacing="0px" aria-label="20">
    <g fill="#000">
     <path d="m114.48 127.22h-52.482c0-17.912 4.1535-32.192 7.3516-41.722 4.2791-7.8547 6.8454-11.694 11.502-19.455 4.7765-7.8812 17.654-16.559 27.326-21.216 9.7918-4.7765 20.281-9.7591 37.667-9.7591 18.809 0 46.707 5.7915 58.529 17.374s23.203 28.671 23.203 50.524c0 11.225-0.44526 23.716-4.9829 36.732-4.5377 12.897-11.709 27.477-20.784 43.001l-36.305 53.118 63.141-5.2e-4 0.0853 44.644h-163.57l95.237-124.92c9.553-16.001 15.788-32.423 15.788-45.558 0-6.5677-2.8918-13.424-5.7577-17.603s-11.372-12.014-22.236-12.014c-13.189 0-19.898 6.2884-22.734 8.6101-2.5692 4.2661-8.4177 13.555-10.071 29.468z" stroke-width="9.1709"/>
     <path d="m308.25 37.314c26.193 0 50.522 10.048 66.112 30.977 15.729 20.93 26.172 51.739 26.172 92.429 0 39.638-10.067 69.456-26.074 90.502-15.868 21.047-42.494 32.094-66.21 32.094-25.28 0-48.463-11.394-65.166-31.038-16.564-19.76-26.909-50.05-26.909-94.014 0-38.585 10.84-67.674 26.847-88.837s37.768-32.114 64.392-32.114zm-42.407 121.91c0 53.713 21.389 78.574 41.99 78.574 11.393 0 26.102-11.362 30.974-22.353 5.0109-11.108 12.416-27.657 12.416-51.743 0-26.542-5.6001-44.262-10.611-56.306-4.8717-12.16-18.43-22.695-31.907-22.695-23.932 0-42.862 27.637-42.862 74.524z" stroke-width="9.7976"/>
    </g>
   </g>
  </g>
  <g transform="matrix(1.2202 0 0 1.1741 -330.05 506.12)" font-family="'Tw Cen MT'" font-size="172.77px" font-weight="bold" letter-spacing="0px" text-align="center" text-anchor="middle" word-spacing="0px" aria-label="VISION">
   <g font-family="'Tw Cen MT'" font-weight="normal">
    <path d="m402.6 104.32h15.522l33.659 76.008 33.912-76.008h15.691l-49.772 110.93z" stroke-width="4.3192"/>
    <path d="m511.04 104.15h14.51v107.47h-14.51z" stroke-width="4.3192"/>
    <path d="m607.65 116.04-11.895 9.5326q-4.7241-4.8928-8.6046-7.2549-3.7962-2.4464-11.051-2.4464-7.9298 0-12.907 3.6274-4.8928 3.5431-4.8928 9.1952 0 4.8928 4.3023 8.689 4.3023 3.7118 14.678 8.1828 10.376 4.3867 16.113 8.2672 5.8208 3.7962 9.5326 8.4359 3.7118 4.6398 5.4834 9.7857 1.8559 5.1459 1.8559 10.882 0 13.413-9.7857 22.861-9.7013 9.4482-23.536 9.4482-13.497 0-23.874-7.3393-10.292-7.4236-15.86-22.186l14.678-4.1336q8.0141 18.137 24.549 18.137 8.0141 0 13.329-4.8085 5.3146-4.8085 5.3146-12.148 0-4.3867-2.7839-8.7734-2.7838-4.471-6.9174-7.3392t-13.244-6.4957q-9.0264-3.7118-13.919-6.7487-4.8085-3.1213-8.3516-7.3392-3.5431-4.3023-5.2303-8.5203-1.6028-4.218-1.6028-9.0264 0-11.557 9.2795-19.656 9.2795-8.1828 22.524-8.1828 8.7734 0 17.8 3.7962 9.0264 3.7962 15.016 11.557z" stroke-width="4.3192"/>
    <path d="m619.96 104.15h14.51v107.47h-14.51z" stroke-width="4.3192"/>
    <path d="m643.16 157.21q0-23.283 17.275-39.902t41.525-16.619q23.67 0 40.778 16.787 17.108 16.703 17.108 39.733 0 24.38-16.942 41.252-16.859 16.787-41.442 16.787-24.251 0-41.276-16.956t-17.025-41.083zm101.32 0.67488q0-17.8-12.624-29.948-12.624-12.232-31.061-12.232-17.524 0-30.064 12.401-12.458 12.401-12.458 29.779 0 17.631 12.79 29.863 12.873 12.148 31.476 12.148 17.108 0 29.483-12.401 12.458-12.485 12.458-29.61z" stroke-width="4.2856"/>
    <path d="m770.88 99.847 78.535 81.744v-77.442h14.507v112.45l-78.535-81.322v76.345h-14.507z" stroke-width="4.2938"/>
   </g>
  </g>
 </g>
</svg>
