<svg width="2182.7" height="417" version="1.1" viewBox="0 0 577.5 110.33" xmlns="http://www.w3.org/2000/svg">
 <g transform="translate(0 -186.67)">
  <g transform="matrix(.76619 0 0 .76619 141.61 7.3805)">
   <g fill="#fff">
    <path class="st0" d="m547.4 298c-7.9-4.1-14.2-7.4-14.2-13.7 0-4.5 3.8-7.2 10.3-7.2 7.6 0 14.4 2.5 19.6 5.6v-16.3c-5.4-2.3-12.9-4.3-19.6-4.3-19 0-27.5 11.3-27.5 23.6 0 14.4 9.7 21.3 20.3 26.9 10.5 5.6 14.5 8 14.5 14 0 5.1-4.4 8-11.8 8-10.3 0-17.5-4.7-22.3-8.5v17.3c4.4 3.1 13.9 6.8 22.1 6.8 18.4 0 30.1-9.6 30.1-25.1 0.1-16.2-13.6-23-21.5-27.1z"/>
    <path class="st0" d="m406.8 262.8h-22.8v86.4h17v-27.5h3.4c21.3 0 34.5-11.3 34.5-29.5 0.1-18.4-11.9-29.4-32.1-29.4zm-5.8 14.4h5c10 0 16.4 5.8 16.4 14.7 0 9.7-5.9 15.2-16.3 15.2h-5.1z"/>
    <path class="st0" d="m493.3 302.7c5.8-4 8.6-9.9 8.6-17.8 0-13.6-10-22.1-26.2-22.1h-26.4v86.4h27.5c21.1 0 30.7-13.6 30.7-26.2 0.1-9.9-5.4-17.6-14.2-20.3zm-18.9-25.3c6.7 0 11 4.1 11 10.6s-4.7 10.7-11.9 10.7h-7.2v-21.2h8.1zm-8.1 57.4v-22.6h10.8c8.6 0 13.7 4.2 13.7 11.2 0 7.5-5.1 11.3-15.3 11.3h-9.2z"/>
   </g>
   <path class="st0" d="m367 306c0 39.8-32.2 72-72 72s-72-32.2-72-72 32.2-72 72-72 72 32.2 72 72" fill="#fff"/>
   <path class="st1" d="m347.5 306.7-8 1.6v14.8c0 5-4.1 8.9-9.4 8.9h-4.1v17.2h-13.2v-17.2h4.1c5.3 0 9.4-4 9.4-8.9v-14.8l8-1.6c1.7-0.4 2.6-2.3 1.8-3.8l-21-40.1h13.1l21 40.1c0.9 1.5 0 3.5-1.7 3.8z" fill="#2638c4"/>
   <path class="st1" d="m320.5 302.9-21-40.1h-21.7c-19.7 0-36.5 16.1-36 35.9 0.3 14.7 9.8 25.7 23 29.9v20.6h32.4v-17.2h4.1c5.3 0 9.4-4 9.4-8.9v-14.8l8-1.6c1.8-0.3 2.7-2.3 1.8-3.8zm-27.2-2.3c-4.5 0-8.2-3.7-8.2-8.2s3.7-8.2 8.2-8.2 8.2 3.7 8.2 8.2-3.7 8.2-8.2 8.2z" fill="#2638c4"/>
  </g>
  <g transform="matrix(1.0049 0 0 1.0336 476.41 21.976)" fill="#f8002c">
   <path d="m-380.61 168.81h6.1346v14.468h17.33v-14.468h6.1346v34.763h-6.1346v-15.081h-17.33v15.081h-6.1346z"/>
   <path d="m-331.98 204.13q-3.6297 0-6.5947-1.5848-2.9139-1.6359-4.601-4.6521-1.6359-3.0673-1.6359-7.2082 0-4.192 1.687-7.2082 1.687-3.0673 4.601-4.6521 2.9651-1.5848 6.7481-1.5848 3.6808 0 6.5947 1.6359 2.914 1.5848 4.5498 4.601 1.687 2.9651 1.687 6.9015 0 4.2431-1.687 7.3616-1.687 3.0673-4.6521 4.7543-2.9651 1.6359-6.697 1.6359zm0.10224-5.0611q2.9651 0 4.8566-2.1982 1.9426-2.2494 1.9426-6.3902 0-3.8853-1.8404-6.0324t-4.9077-2.1471q-3.0162 0-4.9588 2.1471-1.8915 2.096-1.8915 6.1858 0 3.9875 1.8915 6.2369 1.9426 2.1982 4.9077 2.1982z"/>
   <path d="m-290.79 177.81v25.765h-4.9588l-0.40897-2.2494q-1.6359 1.2269-3.6296 2.0449-1.9426 0.76683-4.7032 0.76683-4.1409 0-6.3902-2.3516-2.2494-2.3516-2.2494-6.5947v-17.381h5.8279v16.103q0 5.0611 4.7032 5.0611 1.8915 0 3.4252-0.86908 1.5848-0.92019 2.5561-2.096v-18.199z"/>
   <path d="m-277.03 204.13q-4.4476 0-7.9239-1.5337v-5.3678q1.3292 0.81795 3.5274 1.4314 2.1982 0.61346 4.1409 0.61346 2.2494 0 3.5785-0.76683t1.3292-2.0449q0-1.3803-1.0736-2.1982-1.0224-0.81795-4.0898-1.8915-4.0386-1.4314-5.7768-3.1696-1.687-1.7893-1.687-4.6521 0-2.0449 1.1758-3.6808 1.2269-1.687 3.5274-2.6583 2.3005-0.97132 5.5212-0.97132 2.096 0 3.8853 0.35786 1.8404 0.30673 2.9651 0.76682v5.01q-1.1758-0.51122-2.9651-0.86907-1.7893-0.40898-3.4252-0.40898-2.3005 0-3.6296 0.66459-1.278 0.61346-1.278 1.6359 0 1.0736 0.97131 1.7381 0.97132 0.61346 3.6808 1.6359l1.1758 0.4601q3.7319 1.4314 5.2656 3.2207t1.5337 4.9588q0 3.5274-2.7095 5.6234t-7.7194 2.096z"/>
   <path d="m-254.41 182.36v12.934q0 3.783 3.5785 3.783 1.687 0 3.2207-0.51122v4.8566q-0.76683 0.30673-2.096 0.51122-1.278 0.20449-2.6583 0.20449-4.0386 0-5.9813-2.096-1.8915-2.096-1.8915-5.6745v-14.007h-3.7319v-4.5498h3.7319v-5.5723l5.8279-1.7382v7.3104h6.9526v4.5498z"/>
   <path d="m-231.34 204.13q-3.6296 0-6.5947-1.5848-2.914-1.6359-4.601-4.6521-1.6359-3.0673-1.6359-7.2082 0-4.192 1.687-7.2082 1.687-3.0673 4.601-4.6521 2.9651-1.5848 6.7481-1.5848 3.6808 0 6.5947 1.6359 2.914 1.5848 4.5498 4.601 1.687 2.9651 1.687 6.9015 0 4.2431-1.687 7.3616-1.687 3.0673-4.6521 4.7543-2.9651 1.6359-6.697 1.6359zm0.10224-5.0611q2.9651 0 4.8566-2.1982 1.9426-2.2494 1.9426-6.3902 0-3.8853-1.8404-6.0324t-4.9077-2.1471q-3.0162 0-4.9588 2.1471-1.8915 2.096-1.8915 6.1858 0 3.9875 1.8915 6.2369 1.9426 2.1982 4.9077 2.1982z"/>
   <path d="m-198.73 177.24q4.1409 0 6.5436 2.3516 2.4538 2.3516 2.4538 6.6458v17.33h-5.8279v-16.206q0-2.3516-1.1758-3.6808t-3.5785-1.3292q-1.9426 0-3.4252 0.81795-1.4825 0.81795-2.7606 2.0449v18.353h-5.8279v-25.765h5.0099l0.51122 2.3516q1.7382-1.3803 3.6297-2.1471t4.4476-0.76683z"/>
  </g>
  <g transform="matrix(1 0 0 1.0379 380.61 7.9535)" fill="#f8002c">
   <path d="m-370.95 232.71q6.2369 0 9.6109 3.0162 3.4252 2.9651 3.4252 7.8728 0 3.5274-1.6359 6.1858-1.5848 2.6583-4.5498 4.1409-2.9651 1.4825-6.9526 1.4825h-3.4252v12.065h-6.1346v-34.763zm-0.66459 17.688q3.5785 0 5.47-1.8404 1.9426-1.8915 1.9426-4.7543t-1.9426-4.4476q-1.8915-1.6359-5.1633-1.6359h-3.1696v12.678z"/>
   <path d="m-330.42 241.71v25.765h-4.9588l-0.40898-2.2494q-1.6359 1.2269-3.6296 2.0449-1.9426 0.76683-4.7032 0.76683-4.1409 0-6.3902-2.3516-2.2494-2.3516-2.2494-6.5947v-17.381h5.8279v16.103q0 5.0611 4.7032 5.0611 1.8915 0 3.4252-0.86908 1.5848-0.92019 2.5561-2.096v-18.199z"/>
   <path d="m-311.05 241.15q3.5785 0 6.2369 1.5848 2.7095 1.5848 4.192 4.4987t1.4825 6.7481q0 4.192-1.7893 7.3616-1.7382 3.1696-4.9588 4.9588-3.1696 1.7382-7.4127 1.7382-2.3005 0-4.8055-0.4601t-4.6521-1.278v-35.99h5.8279v12.116q2.7095-1.278 5.879-1.278zm-2.0449 21.829q3.5274 0 5.6745-2.3516 2.1471-2.4027 2.1471-6.288 0-3.6297-1.7893-5.8279-1.7382-2.1982-4.7032-2.1982-2.6583 0-5.1633 1.3803v14.621q1.6359 0.66458 3.8341 0.66458z"/>
   <path d="m-293.2 230.31h5.8279v37.166h-5.8279z"/>
   <path d="m-276.81 237.93q-1.4825 0-2.5561-0.97131-1.0224-0.97132-1.0224-2.4539 0-1.4825 1.0224-2.4538 1.0224-0.97131 2.5561-0.97131 1.4825 0 2.5561 0.97131 1.0736 0.97132 1.0736 2.4538 0 1.4825-1.0736 2.4539-1.0736 0.97131-2.5561 0.97131zm-2.914 3.783h5.8279v25.765h-5.8279z"/>
   <path d="m-254.49 268.04q-4.1409 0-7.2082-1.687-3.0162-1.687-4.6521-4.7032-1.5848-3.0162-1.5848-7.0037 0-3.9364 1.6359-6.9526 1.6359-3.0673 4.7543-4.8054 3.1696-1.7382 7.566-1.7382 3.6296 0 6.288 1.1247v5.3678q-2.4538-1.2269-5.8279-1.2269-3.9364 0-6.1346 2.3005-2.1471 2.2494-2.1471 5.9813 0 3.783 2.1471 5.9301t5.6745 2.1471q1.7381 0 3.4252-0.35785 1.687-0.35785 2.8628-0.97132v5.3678q-2.914 1.2269-6.7992 1.2269z"/>
   <path d="m-194.84 232.71v34.763h-5.7768v-23.669l-10.684 16.921h-1.5337l-10.787-17.075v23.823h-5.7256v-34.763h5.5212l11.963 19.426 11.963-19.426z"/>
   <path d="m-164.47 253.42q0 1.8404-0.25561 2.7606h-17.586q0.81795 6.9014 8.0773 6.9014 4.6521 0 8.2306-2.0449v5.2656q-1.5337 0.76683-3.8853 1.2269-2.3005 0.51122-4.7543 0.51122-4.2431 0-7.4127-1.6359-3.1184-1.687-4.8055-4.7032-1.687-3.0673-1.687-7.1571 0-3.9875 1.5848-7.0037 1.5848-3.0673 4.3965-4.7032 2.8628-1.687 6.5436-1.687 3.5274 0 6.1346 1.6359 2.6583 1.5848 4.0386 4.3965 1.3803 2.7606 1.3803 6.2369zm-11.451-7.3104q-2.4027 0-4.0898 1.4825-1.6359 1.4825-2.1471 4.192h12.065q-0.20448-2.4027-1.7381-4.0386-1.5337-1.6359-4.0898-1.6359z"/>
   <path d="m-136.58 230.31v35.785q-5.2656 1.9426-10.224 1.9426-6.0835 0-9.7643-3.4763-3.6296-3.4763-3.6296-9.9688 0-3.9364 1.5848-6.9526 1.6359-3.0673 4.601-4.7543 2.9651-1.7382 6.8503-1.7382 2.7095 0 4.7543 0.97132v-11.809zm-10.071 32.718q2.4538 0 4.2431-0.66458v-15.081q-1.8915-1.0224-4.2431-1.0224-3.3229 0-5.3678 2.3516-2.0449 2.3005-2.0449 6.1346 0 3.9364 2.0449 6.1346 2.096 2.1471 5.3678 2.1471z"/>
   <path d="m-126.04 237.93q-1.4825 0-2.5561-0.97131-1.0224-0.97132-1.0224-2.4539 0-1.4825 1.0224-2.4538 1.0224-0.97131 2.5561-0.97131 1.4825 0 2.5561 0.97131 1.0736 0.97132 1.0736 2.4538 0 1.4825-1.0736 2.4539-1.0736 0.97131-2.5561 0.97131zm-2.914 3.783h5.8279v25.765h-5.8279z"/>
   <path d="m-105.81 241.15q5.3167 0 7.975 2.6583 2.7095 2.6072 2.7095 7.5149v16.155h-4.6521l-0.7157-2.3516q-1.3803 1.2269-3.4763 2.096-2.0449 0.81795-4.4987 0.81795-3.8341 0-6.1346-2.1471-2.2494-2.1471-2.2494-5.8279 0-4.3965 3.2207-6.3902 3.2207-1.9938 8.2818-1.9938 2.3516 0 4.3965 0.4601v-0.25561q0-2.7095-1.1247-4.192-1.1247-1.5336-4.4987-1.5336-1.9938 0-4.1409 0.51122-2.096 0.51121-3.9875 1.4314v-5.3167q4.2942-1.6359 8.8952-1.6359zm-5.01 18.711q0 1.3803 0.97132 2.3005 1.0224 0.92019 2.8117 0.92019 3.1184 0 6.0835-2.096v-4.7543q-1.5848-0.30673-3.4763-0.30673-2.6583 0-4.5498 0.86907-1.8404 0.86907-1.8404 3.0673z"/>
  </g>
 </g>
</svg>
