<svg width="3401.5" height="1978.4" version="1.1" viewBox="0 0 3401.5 1978.4" xmlns="http://www.w3.org/2000/svg">
 <defs>
  <linearGradient id="linearGradient1021" x1="4.6351" x2="13.922" y1="29.228" y2="19.941" gradientTransform="matrix(38.661,0,0,38.661,-1838,-726.03)" gradientUnits="userSpaceOnUse">
   <stop stop-color="#AE1F23" offset="0"/>
   <stop stop-color="#CC1E23" offset=".382"/>
   <stop stop-color="#E41C24" offset=".7639"/>
   <stop stop-color="#ED1C24" offset="1"/>
  </linearGradient>
  <linearGradient id="linearGradient1019" x1="16.003" x2="28.544" y1="16.905" y2="29.446" gradientTransform="matrix(38.661,0,0,38.661,-1834.8,-729.03)" gradientUnits="userSpaceOnUse">
   <stop stop-color="#1D1DEA" offset=".4967"/>
   <stop stop-color="#2022E0" offset=".6006"/>
   <stop stop-color="#292EC4" offset=".78"/>
   <stop stop-color="#374199" offset="1"/>
  </linearGradient>
  <linearGradient id="linearGradient999" x1="25687" x2="46087" y1="9971.9" y2="9971.9" gradientTransform="matrix(.037795 0 0 .037795 -2285.4 -729.03)" gradientUnits="userSpaceOnUse">
   <stop stop-color="#51BB83" offset="0"/>
   <stop stop-color="#4DBA81" offset=".2181"/>
   <stop stop-color="#41B77B" offset=".4428"/>
   <stop stop-color="#2CB272" offset=".6704"/>
   <stop stop-color="#0FAB65" offset=".8988"/>
   <stop stop-color="#00A75E" offset="1"/>
  </linearGradient>
  <linearGradient id="linearGradient987" x1="11942" x2="25686" y1="10549" y2="10549" gradientTransform="matrix(1.4612,0,0,1.4612,-2285.4,-730.78)" gradientUnits="userSpaceOnUse">
   <stop stop-color="#9B2E90" offset="0"/>
   <stop stop-color="#A82C9B" offset=".2246"/>
   <stop stop-color="#BE27AF" offset=".6966"/>
   <stop stop-color="#C626B6" offset="1"/>
  </linearGradient>
 </defs>
 <g transform="translate(1940.6 1053)" fill-rule="evenodd">
  <g transform="matrix(.87123 0 0 .87123 -74.51 -417.82)">
   <path d="m-1218.2 598.73c-28.608-26.791-49.043-77.194-63.572-142.58a1394.5 1394.5 0 0 1-25.883-202.52 3039.7 3039.7 0 0 1-6.8115-217.06v-12.714c-169.83 0-317.41-12.714-387.78-25.429-74.015-13.623-123.06-40.868-131.69-54.49a641.16 641.16 0 0 0 117.61 382.34 644.34 644.34 0 0 0 499.51 273.82l-1.3623-1.3623" fill="url(#linearGradient1021)" stroke-width="38.661"/>
   <path d="m-543.47-78.755c-29.97 24.975-115.83 55.416-218 74.941-40.868 6.8115-84.896 12.665-129.4 17.206-177.09 15.893-385.97 10.465-423.69 10.465v12.683a3039.7 3039.7 0 0 0 6.8288 217.11 1394.5 1394.5 0 0 0 25.898 202.48c14.531 65.39 34.983 115.82 63.591 142.61l1.3305 1.3305 28.115 0.8868c218.87 0 411.9-108.91 528.57-275.56 44.531-67.378 76.4-142.37 94.012-221.19 14.985-54.49 22.704-112.56 22.704-172.5v-0.5322z" fill="url(#linearGradient1019)" stroke-width="38.661"/>
   <path d="m-1314.5 23.86c37.235 0 246.57 5.449 423.65-10.444 44.5-4.5408 88.094-9.9901 129.87-17.256 101.72-19.526 187.54-49.951 217.51-74.926v-575.32c-77.651-57.668-404.15-74.926-771.03-74.926z" fill="url(#linearGradient999)" stroke-width="45.408"/>
   <path d="m-1809-684.5c-13.623 0-25.01 11.299-25.01 24.922v603.52c8.6276 13.623 57.687 40.834 131.7 54.456 70.383 12.714 217.92 25.454 387.74 25.454v-464.13c-160.75-207.07-409.51-244.25-494.44-244.25z" fill="url(#linearGradient987)" stroke-width="38.661"/>
  </g>
  <g fill="#6e6d72">
   <path d="m-379.94-791.98c47.755-152.78 187.81-257.87 351.75-257.87 191 0 356.52 143.27 356.52 343.82 0 135.29-68.427 233.97-143.24 319.9l-237.15 275.37h388.37v191.02h-724.2v-127.36l391.55-444.06c85.934-97.113 109.81-160.75 109.81-218.06 0-77.982-60.496-149.61-144.85-149.61-74.797 0-128.92 50.919-151.22 125.74z"/>
   <path d="m562.35-206.26c46.152 65.263 122.57 111.41 206.93 111.41 105.02 0 208.49-82.77 208.49-202.14 0-116.2-95.489-203.72-219.64-203.72-44.57 0-92.325 11.116-133.71 31.83v-127.32l208.53-246.73h-372.44v-190.98h676.44v127.32l-202.14 248.29c152.8 58.871 257.84 192.58 257.84 361.31 0 235.57-184.63 393.14-415.41 393.14-138.48 0-270.58-62.056-369.26-173.49z"/>
  </g>
 </g>
 <g transform="matrix(.65164 0 0 .65164 -2380.8 1968.8)" fill="#6e6d72" fill-rule="evenodd">
  <path d="m3862.9-272.67c-22.738-19.659-52.733-30.501-103.4-30.501h-54.273v263.62h54.273c50.666 0 80.661-10.863 103.4-30.501 27.4-24.299 43.916-60.981 43.916-101.31 0-40.309-16.516-77.033-43.916-101.31zm-209.37 282.23v-361.83h108.57c57.374 0 94.582 12.403 124.05 34.129 44.444 33.074 72.371 86.82 72.371 146.79s-27.4 113.71-71.844 146.81c-29.467 21.705-67.203 34.108-124.58 34.108z"/>
  <path d="m4067.2-132.6h111.65l-55.834-134.39zm131.79 49.105h-152.46l-37.757 93.042h-53.746l149.91-361.83h36.175l149.91 361.83h-53.746z"/>
  <polygon transform="matrix(42.187 0 0 42.187 .0041187 -1132.2)" points="103.71 18.486 103.71 25.899 107.51 25.899 107.51 27.063 102.49 27.063 102.49 18.486"/>
  <polygon transform="matrix(42.187 0 0 42.187 .0041187 -1132.2)" points="109.69 18.486 109.69 25.899 113.49 25.899 113.49 27.063 108.47 27.063 108.47 18.486"/>
  <path d="m4922.3-132.6h111.65l-55.834-134.39zm131.81 49.105h-152.48l-37.757 93.042h-53.725l149.89-361.83h36.175l149.91 361.83h-53.746z"/>
  <path d="m5191.2-80.898c21.199 25.839 51.172 46.511 88.381 46.511 33.602 0 63.069-21.705 63.069-54.273 0-55.307-76.484-61.508-124.58-93.042-25.839-17.064-46.004-41.87-46.004-79.606 0-52.733 46.532-96.143 109.58-96.143 46.026 0 78.066 20.165 97.198 36.175l-30.501 37.757c-19.638-16.558-41.891-24.827-64.63-24.827-29.974 0-59.947 17.043-59.947 48.599 0 45.983 76.99 55.813 123.52 86.841 24.299 16.01 47.038 41.343 47.038 82.707 0 63.554-49.105 104.92-112.15 104.92-49.632 0-94.603-21.705-126.62-60.474z"/>
  <polygon transform="matrix(42.187 0 0 42.187 .0041187 -1132.2)" points="135.54 22.898 135.54 21.918 131.86 21.918 131.86 22.898"/>
  <polygon transform="matrix(42.187 0 0 42.187 .0041187 -1132.2)" points="145.05 19.65 141.37 19.65 141.37 21.856 144.19 21.856 144.19 23.02 141.37 23.02 141.37 27.063 140.15 27.063 140.15 18.486 145.05 18.486"/>
  <path transform="matrix(42.187 0 0 42.187 .0041187 -1132.2)" d="m149.5 26.022c1.752 0 3.0635-1.385 3.0635-3.247 0-1.85-1.3115-3.247-3.0635-3.247s-3.0635 1.397-3.0635 3.247c0 1.862 1.3115 3.247 3.0635 3.247m0-7.658c2.426 0 4.2885 1.9115 4.2885 4.411s-1.8625 4.411-4.2885 4.411-4.288-1.9115-4.288-4.411 1.862-4.411 4.288-4.411"/>
  <path transform="matrix(42.187 0 0 42.187 .0041187 -1132.2)" d="m157.87 21.856c0.551 0 0.833-0.1225 1.0295-0.3185 0.1955-0.196 0.318-0.478 0.318-0.784 0-0.3065-0.1225-0.5885-0.318-0.784-0.1965-0.1965-0.4785-0.319-1.0295-0.319h-1.716v2.2055zm-1.716 1.164v4.0435h-1.225v-8.577h3.002c0.784 0 1.274 0.184 1.6665 0.5025 0.5145 0.4165 0.8455 1.0535 0.8455 1.7645 0 0.7105-0.331 1.3475-0.8455 1.764-0.2695 0.221-0.576 0.38-1.005 0.4535l3.0755 4.0925h-1.4825l-3.051-4.0435z"/>
  <polygon transform="matrix(42.187 0 0 42.187 .0041187 -1132.2)" points="166.92 18.486 166.92 19.65 164.59 19.65 164.59 27.063 163.36 27.063 163.36 19.65 161.03 19.65 161.03 18.486"/>
  <polygon transform="matrix(42.187 0 0 42.187 .0041187 -1132.2)" points="172.19 24.699 174.28 18.486 175.14 18.486 177.23 24.699 179.16 18.486 180.41 18.486 177.71 27.063 176.85 27.063 174.71 20.716 172.57 27.063 171.71 27.063 169.01 18.486 170.26 18.486"/>
  <path transform="matrix(42.187 0 0 42.187 .0041187 -1132.2)" d="m184.8 26.022c1.7525 0 3.0635-1.385 3.0635-3.247 0-1.85-1.311-3.247-3.0635-3.247-1.752 0-3.063 1.397-3.063 3.247 0 1.862 1.311 3.247 3.063 3.247m0-7.658c2.4265 0 4.289 1.9115 4.289 4.411s-1.8625 4.411-4.289 4.411c-2.426 0-4.288-1.9115-4.288-4.411s1.862-4.411 4.288-4.411"/>
  <path transform="matrix(42.187 0 0 42.187 .0041187 -1132.2)" d="m193.17 21.856c0.5515 0 0.833-0.1225 1.0295-0.3185 0.196-0.196 0.318-0.478 0.318-0.784 0-0.3065-0.122-0.5885-0.318-0.784-0.1965-0.1965-0.478-0.319-1.0295-0.319h-1.7155v2.2055zm-1.7155 1.164v4.0435h-1.225v-8.577h3.002c0.784 0 1.274 0.184 1.666 0.5025 0.5145 0.4165 0.8455 1.0535 0.8455 1.7645 0 0.7105-0.331 1.3475-0.8455 1.764-0.2695 0.221-0.5755 0.38-1.005 0.4535l3.076 4.0925h-1.483l-3.051-4.0435z"/>
  <polygon transform="matrix(42.187 0 0 42.187 .0041187 -1132.2)" points="202.21 18.486 202.21 19.65 199.88 19.65 199.88 27.063 198.66 27.063 198.66 19.65 196.33 19.65 196.33 18.486"/>
  <polygon transform="matrix(42.187 0 0 42.187 .0041187 -1132.2)" points="204.33 18.486 204.33 21.856 209.11 21.856 209.11 18.486 210.34 18.486 210.34 27.063 209.11 27.063 209.11 23.02 204.33 23.02 204.33 27.063 203.11 27.063 203.11 18.486"/>
 </g>
 <g transform="matrix(.55599 0 0 .55599 -122.28 2010.9)" fill="#6e6d72" fill-rule="evenodd">
  <polygon transform="matrix(55.416 0 0 55.416 .0038578 -1197.1)" points="44.232 2.0281 44.232 0.83168 46.524 0.83168 46.524 9.4378 44.232 9.4378"/>
  <polygon transform="matrix(55.416 0 0 55.416 .0038578 -1197.1)" points="58.935 2.0281 58.935 0.83168 61.227 0.83168 61.227 9.4378 58.935 9.4378"/>
  <polygon transform="matrix(55.416 0 0 55.416 .0038578 -1197.1)" points="71.743 2.0281 71.743 0.83168 74.035 0.83168 74.035 9.4378 71.743 9.4378"/>
  <path d="m2000.6-674.14v-263.7c0-65.489 48.913-104.5 103.99-104.5 58.558 0 104.7 45.48 104.7 104.5v263.7h126.78v-258.85c0-120.89-83.446-227.82-228.69-227.82-156.11 0-234.03 106.26-234.03 227.82v258.85z"/>
  <path d="m4915.9-674.14v-263.7c0-65.489 49.03-104.5 103.99-104.5 58.558 0 104.7 45.48 104.7 104.5v263.7h126.78v-258.85c0-120.89-83.446-227.82-228.67-227.82-156.13 0-234.03 106.26-234.03 227.82v258.85z"/>
  <polygon transform="matrix(55.416 0 0 55.416 .0038578 -1178.7)" points="55.069 0.49914 57.452 0.49914 53.523 9.1041 51.938 9.1041 48.007 0.49914 50.384 0.49914 52.726 5.7541"/>
  <path d="m3556.4-819.49c32.216 29.43 82.071 47.143 129.69 47.143 34.239 0 60.601-16.724 60.601-40.236 0-71.704-229.36-46.153-229.36-199.77 0-91.535 87.886-148.51 181.53-148.51 61.642 0 128.82 23.512 160.15 48.093l-59.402 92.504c-24.476-17.654-56.711-32.319-90.95-32.319-34.946 0-64.372 13.557-64.372 38.178 0 62.006 229.4 37.326 229.4 202.82 0 91.317-88.691 147.46-188.32 147.46-65.413 0-134.83-22.76-190.27-64.045z"/>
  <path d="m4446-782.28c74.233 0 124.85-58.147 124.85-129.73 0-71.763-50.622-130.78-124.85-130.78-74.076 0-125.09 59.018-125.09 130.78 0 71.585 51.014 129.73 125.09 129.73m0-378.53c143.5 0 251.61 111.11 251.61 248.8 0 137.79-108.12 247.93-251.61 247.93s-252.26-110.14-252.26-247.93c0-137.69 108.77-248.8 252.26-248.8"/>
  <path d="m1642.5-1151v263.94c0 65.252-49.443 104.48-104.66 104.48-58.361 0-104.52-45.797-104.52-104.48v-263.94h-126.96v258.97c0 120.57 83.387 227.94 228.67 227.94 156.17 0 234.19-106.28 234.19-227.94v-258.97z"/>
 </g>
</svg>
