<svg width="800" height="184.58" space="preserve" version="1.0" viewBox="0 0 800 184.58" xmlns="http://www.w3.org/2000/svg">
 <path class="st0" d="m184.58 92.289c0 50.973-41.316 92.289-92.289 92.289s-92.289-41.316-92.289-92.289 41.316-92.289 92.289-92.289 92.289 41.316 92.289 92.289" fill="#fff" stroke-width=".85453"/>
 <g transform="scale(.85453)" fill="#fff">
  <path class="st0" d="m486.57 95.97c-11.81-6.12-21.36-11.1-21.36-20.58 0-6.7 5.74-10.87 15.38-10.87 11.46 0 21.64 3.71 29.44 8.34v-24.39c-8.18-3.51-19.4-6.47-29.45-6.47-28.5 0-41.25 16.97-41.25 35.34 0 21.56 14.51 31.9 30.52 40.36 15.79 8.34 21.76 11.96 21.76 20.96 0 7.62-6.61 11.99-17.69 11.99-15.39 0-26.3-7.12-33.39-12.8l0.02 25.93c6.63 4.63 20.91 10.21 33.2 10.21 27.66 0 45.11-14.43 45.11-37.66-0.01-23.98-20.48-34.24-32.29-40.36"/>
  <path class="st0" d="m275.66 43.2h-34.16v129.6h25.5v-41.22h5.14c31.93 0 51.77-16.98 51.77-44.31-0.01-27.59-18.04-44.07-48.25-44.07m-8.66 21.6h7.5c14.97 0 24.64 8.66 24.64 22.07 0 14.52-8.91 22.85-24.45 22.85h-7.69z"/>
  <path class="st0" d="m405.31 103.01c8.64-6.06 12.84-14.8 12.84-26.64 0-20.46-15.03-33.17-39.24-33.17h-39.56v129.6h41.32c31.67 0 46.1-20.34 46.1-39.23-0.01-14.95-8.18-26.5-21.46-30.56m-28.22-37.98c9.98 0 16.43 6.22 16.43 15.84 0 9.74-6.99 16.03-17.8 16.03h-10.85v-31.87zm-12.23 86.14v-33.83h16.14c12.87 0 20.54 6.29 20.54 16.82 0 11.28-7.7 17.01-22.89 17.01z"/>
 </g>
 <g transform="scale(.85453)" fill="#003da6">
  <path class="st1" d="m186.65 109.05-11.99 2.44v22.16c0 7.44-6.12 13.38-14.04 13.38h-6.13v25.77h-19.72v-25.77h6.13c7.92 0 14.04-5.94 14.04-13.38v-22.16l11.99-2.44c2.59-0.53 3.97-3.4 2.73-5.75l-31.44-60.1h19.72l31.44 60.11c1.23 2.34-0.13 5.21-2.73 5.74"/>
  <path class="st1" d="m146.25 103.31-31.44-60.11h-32.53c-29.59 0-54.72 24.22-54.02 53.8 0.53 22.08 14.77 38.61 34.56 44.84v30.96h48.53v-25.77h6.13c7.92 0 14.04-5.94 14.04-13.38v-22.15l11.99-2.44c2.6-0.53 3.96-3.41 2.74-5.75m-40.92-3.44c-6.82 0-12.34-5.53-12.34-12.34 0-6.82 5.53-12.34 12.34-12.34 6.82 0 12.34 5.53 12.34 12.34 0.01 6.81-5.52 12.34-12.34 12.34"/>
 </g>
 <g transform="scale(.85453)" fill="#fff">
  <polygon class="st0" points="573.8 172.97 573.8 43.72 596.6 43.72 596.6 102.07 646.4 43.72 673.4 43.72 616.94 107.01 676.81 172.97 648.68 172.97 596.6 114.61 596.6 172.97"/>
  <polygon class="st0" points="679.24 43.71 704.14 43.71 738.94 140.27 773.71 43.71 798.05 43.71 747.67 172.97 729.05 172.97"/>
  <rect class="st0" x="809.96" y="43.72" width="22.8" height="129.25"/>
  <polygon class="st0" points="859.39 43.71 935.62 43.71 935.62 62.15 882.21 62.15 882.21 98.65 932.01 98.65 932.01 117.08 882.21 117.08 882.21 154.53 936.19 154.53 936.19 172.97 859.39 172.97"/>
 </g>
</svg>
