<svg width="800" height="458.64" data-name="Layer 1" version="1.1" viewBox="0 0 800 458.64" xmlns="http://www.w3.org/2000/svg">
 <g transform="matrix(5.3952 0 0 5.3952 -18.128 0)" fill="#155caa" data-name="H I KVOS">
  <path class="cls-1" d="m98.66 73.61h41.16l2.25-14.61h-6.81l7.25-45.13h6.88l2.25-13.87h-41.18l-1.62 8.79h9.5a4.31 4.31 0 0 1 3.32 1.49 4.38 4.38 0 0 1 0.92 3.58l-7.65 47.37a5.32 5.32 0 0 1-5.32 4.35h-9.72z"/>
  <path class="cls-1" d="m55 73.61h37.91l1.29-8.11h-14.6a4.31 4.31 0 0 1-3.32-1.5 4.38 4.38 0 0 1-0.92-3.58l7.64-47.02a5.32 5.32 0 0 1 5.2-4.4h14.89l1.61-8.85h-37.91l-2.58 16.26h4.87l-2.08 13.15h-19.15l2.15-13.15h4.77l2.56-16.22h-38l-2.55 16.22h5.79l-6.57 40.85h-5.71l-2.61 16.35h37.85l2.61-16.22h-4.9l2.25-14h19.14l-2.25 14h-4.87z"/>
  <path class="cls-1" d="m91.78 42a9.21 9.21 0 0 0-2.5 5.32 5.48 5.48 0 0 0 1.62 5.16 7.05 7.05 0 0 0 4.74 1.86 10.14 10.14 0 0 0 5.43-1.48 14.5 14.5 0 0 0 3.73-3.24l-7.49-11.69a33.75 33.75 0 0 0-5.53 4.07z"/>
  <path class="cls-1" d="m100 31.2a25.33 25.33 0 0 0 3.84-3 7.75 7.75 0 0 0 2.16-4.36 4.25 4.25 0 0 0-0.73-3.24 3.24 3.24 0 0 0-2.89-1.3 5 5 0 0 0-4.38 2.11 5.43 5.43 0 0 0-1 2.36 6.23 6.23 0 0 0 0.49 3.36 26 26 0 0 0 2.51 4.07z"/>
  <path class="cls-1" d="m118.47 13.61a3.79 3.79 0 0 0-2.94-1.31l-25.48-0.16a4.87 4.87 0 0 0-4.87 4.09l-6.81 41.16a4.44 4.44 0 0 0 0.55 3.45 4.17 4.17 0 0 0 3.24 1h25.35a5.19 5.19 0 0 0 3.73-1.62l-4.61-7.3a23.64 23.64 0 0 1-4.36 3.55 15 15 0 0 1-7.74 2.11c-4.15 0-7.05-1.22-8.64-3.6a11.45 11.45 0 0 1-1.75-8.11 13.7 13.7 0 0 1 3.73-8.11 35.68 35.68 0 0 1 6.68-4.76 18.07 18.07 0 0 1-2.66-4.87 10.23 10.23 0 0 1-0.29-4.07 10.83 10.83 0 0 1 3.54-6.81 10.61 10.61 0 0 1 7.38-2.71 7.59 7.59 0 0 1 6.31 2.5 7.72 7.72 0 0 1 1.62 6.07 12.73 12.73 0 0 1-3.45 7.29 27.31 27.31 0 0 1-5.06 4l5.72 8.6c0.6-1.35 1-2.37 1.28-3a28.51 28.51 0 0 0 0.92-3.11v-0.19h5v0.24a36.57 36.57 0 0 1-2.79 7.72 26.47 26.47 0 0 1-1.62 3l2.8 4.34 6.11-36.18a3.86 3.86 0 0 0-0.89-3.21z"/>
  <path class="cls-1" d="m12.43 84.83h-1.62l-1.17-6.16-3 6.16h-1.64l-1.64-9.06h1.64l1.07 6.49 3.23-6.49h1.51l1.19 6.48 3.11-6.49h1.75z"/>
  <path class="cls-1" d="m17.47 82.77-1.14 2h-1.74l5.4-9h1.48l2.5 9h-1.8l-0.45-2zm2.94-5.11-2.09 3.62h2.92z"/>
  <path class="cls-1" d="m32.81 78.46h-1.62c0-0.89-0.5-1.49-1.75-1.49s-1.85 0.49-2 1.31 0.36 1 1.26 1.18l1.1 0.23c1.62 0.36 2.53 1 2.3 2.46a3.6 3.6 0 0 1-3.89 2.77c-2.08 0-3.5-1.18-3.36-3.11h1.62c0 1.05 0.76 1.75 2.11 1.75s1.75-0.45 1.95-1.2c0-0.47-0.16-0.92-1.14-1.1l-1.47-0.26c-1.75-0.32-2.34-1.2-2.14-2.53a3.5 3.5 0 0 1 3.83-2.84c1.63-0.06 3.33 0.67 3.2 2.83z"/>
  <path class="cls-1" d="m41.15 84.78h-1.62l0.58-3.65h-4.43l-0.55 3.65h-1.62l1.39-9h1.62l-0.65 3.83h4.46l0.67-3.83h1.62z"/>
  <path class="cls-1" d="m44.75 84.78h-1.51l1.39-9h1.62z"/>
  <path class="cls-1" d="m54.69 84.78h-1.25l-4.23-6-0.94 6h-1.51l1.35-9h1.2l4.18 6.22 1.1-6.19h1.62z"/>
  <path class="cls-1" d="m65.59 84.78h-1.27l0.13-1.41a4.2 4.2 0 0 1-3.45 1.63 3.81 3.81 0 0 1-4-4.54 5.61 5.61 0 0 1 5.47-4.87 3.5 3.5 0 0 1 3.83 3.15v0.1h-1.64a2.19 2.19 0 0 0-2.38-1.75 3.68 3.68 0 0 0-3.65 3.24 2.48 2.48 0 0 0 2.56 3 3.24 3.24 0 0 0 3.13-2h-2.87l0.23-1.48h4.67v0.44z"/>
  <path class="cls-1" d="m71.95 77.27-1.14 7.51h-1.62l1.17-7.51h-3.12l0.23-1.48h7.82l-0.23 1.48z"/>
  <path class="cls-1" d="m84.19 80.27a5.64 5.64 0 0 1-5.4 4.67 3.88 3.88 0 0 1-3.94-4.67 5.64 5.64 0 0 1 5.4-4.67 3.88 3.88 0 0 1 3.94 4.67zm-1.62 0a2.59 2.59 0 0 0-2.57-3.27 3.76 3.76 0 0 0-3.5 3.24 2.59 2.59 0 0 0 2.5 3.28 3.76 3.76 0 0 0 3.57-3.24z"/>
  <path class="cls-1" d="m93.19 84.78h-1.3l-4.17-6-0.94 6h-1.62l1.39-9h1.2l4.19 6.22 1-6.24h1.66z"/>
  <path class="cls-1" d="m104 82.06h-4.53l0.24-1.52h4.52z"/>
  <path class="cls-1" d="m111.35 82.67-0.35 2.1h-1.62l1.39-9h1.62l-0.73 4.7 5-4.75h1.88l-4.23 4 3.24 5h-1.85l-2.56-3.72z"/>
  <path class="cls-1" d="m123.56 84.83h-1.48l-2.63-9.07h1.75l2 6.88 4.1-6.88h1.75z"/>
  <path class="cls-1" d="m138 80.27a5.64 5.64 0 0 1-5.4 4.67 3.88 3.88 0 0 1-3.94-4.67 5.64 5.64 0 0 1 5.42-4.65 3.88 3.88 0 0 1 3.92 4.67zm-1.62 0a2.59 2.59 0 0 0-2.58-3.27 3.76 3.76 0 0 0-3.5 3.24 2.59 2.59 0 0 0 2.55 3.24 3.76 3.76 0 0 0 3.5-3.24z"/>
  <path class="cls-1" d="m146.82 78.46h-1.62c0-0.89-0.5-1.49-1.75-1.49s-1.85 0.49-2 1.31 0.36 1 1.26 1.18l1.09 0.19c1.62 0.36 2.53 1 2.3 2.46a3.6 3.6 0 0 1-3.89 2.81c-2.08 0-3.5-1.18-3.36-3.11h1.62c0 1.05 0.76 1.75 2.11 1.75s1.75-0.45 1.95-1.2c0-0.47-0.16-0.92-1.14-1.1l-1.52-0.26c-1.75-0.32-2.34-1.2-2.14-2.53a3.5 3.5 0 0 1 3.88-2.9c1.6 0 3.34 0.73 3.21 2.89z"/>
 </g>
</svg>
