<svg width="800" height="742.79" version="1.1" viewBox="0 0 800 742.79" xmlns="http://www.w3.org/2000/svg">
 <g transform="matrix(3.9545 0 0 3.9545 0 -.026891)" fill="#be2419">
  <path class="cls-1" d="m100.6 0.14h3.3c-0.4 0-0.8-0.1-1.3-0.1a6.73 6.73 0 0 0-2 0.1z"/>
  <path class="cls-1" d="m176.8 63c0 67.1-52.3 108-79.9 124.8h69c20.1 0 36.4-15.1 36.4-33.8v-120.06c0-18.7-16.3-33.8-36.4-33.8h-16.9c18.9 14.4 27.8 38 27.8 62.86z"/>
  <path class="cls-1" d="m36.5 187.84h30.2a38.32 38.32 0 0 0 8.6-4.6c12.7-9.6 36.8-22.2 56.5-77.3l-0.7 0.5c-13.4 10.7-23.8 16.7-42.9 16.2-27.2-0.7-61.9-20-61.2-65.5 0.4-26.2 12.7-45.3 29.5-57.1h-20.1c-20.1-0.04-36.4 15.1-36.4 33.8v120.16c0 18.74 16.3 33.84 36.5 33.84z"/>
  <path class="cls-1" d="m65.8 48.54c0 36.4 16.5 52.2 36.5 52.2 27.2 0 34.6-23 34.6-49.3 0-22.9-8.7-50-33-51.3h-3.3c-16.6 1.1-34.8 18.2-34.8 48.4z"/>
 </g>
</svg>
