<svg width="2948.2" height="1978.4" version="1.1" viewBox="0 0 2948.2 1978.4" xmlns="http://www.w3.org/2000/svg">
 <link href="" rel="stylesheet" type="text/css"/>
 <style type="text/css"/>
 <defs>
  <linearGradient id="linearGradient1021" x1="4.6351" x2="13.922" y1="29.228" y2="19.941" gradientTransform="matrix(38.661,0,0,38.661,-1838,-726.03)" gradientUnits="userSpaceOnUse">
   <stop stop-color="#AE1F23" offset="0"/>
   <stop stop-color="#CC1E23" offset=".382"/>
   <stop stop-color="#E41C24" offset=".7639"/>
   <stop stop-color="#ED1C24" offset="1"/>
  </linearGradient>
  <linearGradient id="linearGradient1019" x1="16.003" x2="28.544" y1="16.905" y2="29.446" gradientTransform="matrix(38.661,0,0,38.661,-1834.8,-729.03)" gradientUnits="userSpaceOnUse">
   <stop stop-color="#1D1DEA" offset=".4967"/>
   <stop stop-color="#2022E0" offset=".6006"/>
   <stop stop-color="#292EC4" offset=".78"/>
   <stop stop-color="#374199" offset="1"/>
  </linearGradient>
  <linearGradient id="linearGradient999" x1="25687" x2="46087" y1="9971.9" y2="9971.9" gradientTransform="matrix(.037795 0 0 .037795 -2285.4 -729.03)" gradientUnits="userSpaceOnUse">
   <stop stop-color="#51BB83" offset="0"/>
   <stop stop-color="#4DBA81" offset=".2181"/>
   <stop stop-color="#41B77B" offset=".4428"/>
   <stop stop-color="#2CB272" offset=".6704"/>
   <stop stop-color="#0FAB65" offset=".8988"/>
   <stop stop-color="#00A75E" offset="1"/>
  </linearGradient>
  <linearGradient id="linearGradient987" x1="11942" x2="25686" y1="10549" y2="10549" gradientTransform="matrix(1.4612,0,0,1.4612,-2285.4,-730.78)" gradientUnits="userSpaceOnUse">
   <stop stop-color="#9B2E90" offset="0"/>
   <stop stop-color="#A82C9B" offset=".2246"/>
   <stop stop-color="#BE27AF" offset=".6966"/>
   <stop stop-color="#C626B6" offset="1"/>
  </linearGradient>
 </defs>
 <g transform="matrix(.66038 0 0 .66038 -1788.7 1968.1)" fill="#6e6d72" fill-rule="evenodd">
  <polygon transform="matrix(42.186 0 0 42.186 .0041186 -1132.1)" points="90.361 21.948 95.076 21.948 95.076 18.624 96.285 18.624 96.285 27.086 95.076 27.086 95.076 23.097 90.361 23.097 90.361 27.086 89.152 27.086 89.152 18.624 90.361 18.624"/>
  <path d="m4304.1-32.84c72.918 0 127.51-57.626 127.51-135.14 0-77.031-54.588-135.14-127.51-135.14-72.939 0-127.51 58.111-127.51 135.14 0 77.516 54.567 135.14 127.51 135.14m0-318.76c100.97 0 178.51 79.562 178.51 183.61 0 104.03-77.538 183.61-178.51 183.61-100.99 0-178.51-79.584-178.51-183.61 0-104.05 77.516-183.61 178.51-183.61"/>
  <path d="m4583.5-31.296c-22.949-24.995-37.25-58.153-37.25-106.08v-209.12h51.024v211.65c0 33.664 8.163 54.588 22.443 70.387 17.845 19.891 44.358 31.618 74.458 31.618s56.634-11.728 74.458-31.618c14.28-15.799 22.464-36.723 22.464-70.387v-211.65h51.003v209.12c0 47.923-14.301 81.081-37.25 106.08-27.02 29.066-66.801 46.932-110.67 46.932-43.852 0-83.654-17.866-110.67-46.932"/>
  <path d="m4925.7-78.734c20.903 25.501 50.496 45.898 87.219 45.898 33.137 0 62.224-21.409 62.224-53.534 0-54.567-75.492-60.705-122.91-91.817-25.522-16.832-45.413-41.321-45.413-78.529 0-52.036 45.898-94.897 108.12-94.897 45.413 0 77.031 19.912 95.888 35.731l-30.078 37.208c-19.384-16.326-41.321-24.468-63.764-24.468-29.572 0-59.166 16.811-59.166 47.944 0 45.392 75.998 55.074 121.9 85.658 23.962 15.82 46.426 40.815 46.426 81.608 0 62.751-48.45 103.57-110.67 103.57-48.957 0-93.336-21.43-124.95-59.693z"/>
  <polygon transform="matrix(42.186 0 0 42.186 .0041186 -1132.1)" points="127.74 19.772 125.44 19.772 125.44 27.087 124.23 27.087 124.23 19.772 121.94 19.772 121.94 18.624 127.74 18.624"/>
  <path d="m5577.4-32.84c72.918 0 127.51-57.626 127.51-135.14 0-77.031-54.588-135.14-127.51-135.14-72.939 0-127.51 58.111-127.51 135.14 0 77.516 54.567 135.14 127.51 135.14m0-318.76c100.97 0 178.51 79.562 178.51 183.61 0 104.03-77.538 183.61-178.51 183.61-100.99 0-178.51-79.584-178.51-183.61 0-104.05 77.516-183.61 178.51-183.61"/>
  <polygon transform="matrix(42.186 0 0 42.186 .0041186 -1132.1)" points="145.09 27.087 144.24 27.087 139.16 20.873 139.16 27.087 137.95 27.087 137.95 18.624 138.8 18.624 143.88 24.838 143.88 18.624 145.09 18.624"/>
 </g>
 <g transform="translate(1465.2 733.61)" fill-rule="evenodd">
  <g transform="matrix(.87123 0 0 .87123 132.65 -98.471)">
   <path d="m-1218.2 598.73c-28.608-26.791-49.043-77.194-63.572-142.58a1394.5 1394.5 0 0 1-25.883-202.52 3039.7 3039.7 0 0 1-6.8115-217.06v-12.714c-169.83 0-317.41-12.714-387.78-25.429-74.015-13.623-123.06-40.868-131.69-54.49a641.16 641.16 0 0 0 117.61 382.34 644.34 644.34 0 0 0 499.51 273.82l-1.3623-1.3623" fill="url(#linearGradient1021)" stroke-width="38.661"/>
   <path d="m-543.47-78.755c-29.97 24.975-115.83 55.416-218 74.941-40.868 6.8115-84.896 12.665-129.4 17.206-177.09 15.893-385.97 10.465-423.69 10.465v12.683a3039.7 3039.7 0 0 0 6.8288 217.11 1394.5 1394.5 0 0 0 25.898 202.48c14.531 65.39 34.983 115.82 63.591 142.61l1.3305 1.3305 28.115 0.8868c218.87 0 411.9-108.91 528.57-275.56 44.531-67.378 76.4-142.37 94.012-221.19 14.985-54.49 22.704-112.56 22.704-172.5v-0.5322z" fill="url(#linearGradient1019)" stroke-width="38.661"/>
   <path d="m-1314.5 23.86c37.235 0 246.57 5.449 423.65-10.444 44.5-4.5408 88.094-9.9901 129.87-17.256 101.72-19.526 187.54-49.951 217.51-74.926v-575.32c-77.651-57.668-404.15-74.926-771.03-74.926z" fill="url(#linearGradient999)" stroke-width="45.408"/>
   <path d="m-1809-684.5c-13.623 0-25.01 11.299-25.01 24.922v603.52c8.6276 13.623 57.687 40.834 131.7 54.456 70.383 12.714 217.92 25.454 387.74 25.454v-464.13c-160.75-207.07-409.51-244.25-494.44-244.25z" fill="url(#linearGradient987)" stroke-width="38.661"/>
  </g>
  <path d="m289.21-46.091v-261l-208.5 261zm214.89-668.46v668.46h183.02v191h-183.02v254.68h-214.89v-254.68h-517.26v-127.32l580.94-732.13z" fill="#6e6d72"/>
  <path d="m881.34 135.36c47.754 50.918 116.18 89.139 191 89.139 49.336 0 97.07-17.507 133.69-50.918 38.199-35.056 62.076-85.975 62.076-143.24 0-60.516-25.459-114.62-68.446-151.22-35.014-30.247-82.769-44.59-135.27-44.59-54.146 0-116.2 20.713-163.96 60.494l-133.71-19.11 71.632-590.47h588.91v191h-413.82l-17.507 175.07c22.253-4.767 55.685-7.952 85.932-7.952 85.954 0 181.44 20.692 259.44 84.372 87.536 70.007 141.64 183 141.64 302.41 0 219.64-186.23 385.14-410.62 385.14-128.94 0-240.35-46.13-337.42-143.24z" fill="#6e6d72"/>
 </g>
 <g transform="matrix(.55599 0 0 .55599 -348.93 2010.9)" fill="#6e6d72" fill-rule="evenodd">
  <polygon transform="matrix(55.416 0 0 55.416 .0038578 -1197.1)" points="44.232 2.0281 44.232 0.83168 46.524 0.83168 46.524 9.4378 44.232 9.4378"/>
  <polygon transform="matrix(55.416 0 0 55.416 .0038578 -1197.1)" points="58.935 2.0281 58.935 0.83168 61.227 0.83168 61.227 9.4378 58.935 9.4378"/>
  <polygon transform="matrix(55.416 0 0 55.416 .0038578 -1197.1)" points="71.743 2.0281 71.743 0.83168 74.035 0.83168 74.035 9.4378 71.743 9.4378"/>
  <path d="m2000.6-674.14v-263.7c0-65.489 48.913-104.5 103.99-104.5 58.558 0 104.7 45.48 104.7 104.5v263.7h126.78v-258.85c0-120.89-83.446-227.82-228.69-227.82-156.11 0-234.03 106.26-234.03 227.82v258.85z"/>
  <path d="m4915.9-674.14v-263.7c0-65.489 49.03-104.5 103.99-104.5 58.558 0 104.7 45.48 104.7 104.5v263.7h126.78v-258.85c0-120.89-83.446-227.82-228.67-227.82-156.13 0-234.03 106.26-234.03 227.82v258.85z"/>
  <polygon transform="matrix(55.416 0 0 55.416 .0038578 -1178.7)" points="55.069 0.49914 57.452 0.49914 53.523 9.1041 51.938 9.1041 48.007 0.49914 50.384 0.49914 52.726 5.7541"/>
  <path d="m3556.4-819.49c32.216 29.43 82.071 47.143 129.69 47.143 34.239 0 60.601-16.724 60.601-40.236 0-71.704-229.36-46.153-229.36-199.77 0-91.535 87.886-148.51 181.53-148.51 61.642 0 128.82 23.512 160.15 48.093l-59.402 92.504c-24.476-17.654-56.711-32.319-90.95-32.319-34.946 0-64.372 13.557-64.372 38.178 0 62.006 229.4 37.326 229.4 202.82 0 91.317-88.691 147.46-188.32 147.46-65.413 0-134.83-22.76-190.27-64.045z"/>
  <path d="m4446-782.28c74.233 0 124.85-58.147 124.85-129.73 0-71.763-50.622-130.78-124.85-130.78-74.076 0-125.09 59.018-125.09 130.78 0 71.585 51.014 129.73 125.09 129.73m0-378.53c143.5 0 251.61 111.11 251.61 248.8 0 137.79-108.12 247.93-251.61 247.93s-252.26-110.14-252.26-247.93c0-137.69 108.77-248.8 252.26-248.8"/>
  <path d="m1642.5-1151v263.94c0 65.252-49.443 104.48-104.66 104.48-58.361 0-104.52-45.797-104.52-104.48v-263.94h-126.96v258.97c0 120.57 83.387 227.94 228.67 227.94 156.17 0 234.19-106.28 234.19-227.94v-258.97z"/>
 </g>
</svg>
