<svg width="800" height="330.58" enable-background="new 0 0 942 458" version="1.0" viewBox="0 0 800 330.58" xml:space="preserve" xmlns="http://www.w3.org/2000/svg"><path transform="matrix(.86669 0 0 .86669 -6.9335 -20.238)" d="m43.371 164.45c11.79-48.416 20.113-94.064 32.596-141.1h-18.031c-7.63 14.524-9.71 29.74-13.872 45.648-10.064 38.475-15.952 74.699-27.048 112.74-2.082 7.608-6.242 13.833-9.016 20.749v20.058c16.644-15.907 29.128-35.274 35.371-58.098" fill="#fff"/><path transform="matrix(.86669 0 0 .86669 -6.9335 -20.238)" d="m131.45 228.77c-21.5-2.074-40.919-10.375-62.421-14.524-21.5-4.149-42.306-0.691-61.032 8.3v13.833c16.644-6.224 33.983-10.374 52.709-7.608 18.033 2.076 33.291 8.992 50.629 12.45 9.618 1.919 19.42 2.767 29.13 3.458 6.935 0 13.871-0.691 20.806-2.075 6.242-1.383 12.484-2.767 18.727-4.149v-14.524c-15.952 4.147-31.903 6.223-48.548 4.839" fill="#fff"/><path transform="matrix(.86669 0 0 .86669 -6.9335 -20.238)" d="m44.064 68.999c4.162-15.908 6.243-31.124 13.872-45.648h-49.936v179.14c2.772-6.916 6.935-13.141 9.016-20.749 11.096-38.04 16.984-74.264 27.048-112.74" fill="#00a886"/><path transform="matrix(.86669 0 0 .86669 -6.9335 -20.238)" d="m87.989 200.41c-0.232-30.202-0.232-60.166-0.232-89.915v-87.146h-11.79c-12.483 47.031-20.807 92.68-32.596 141.1-6.243 22.823-18.727 42.189-35.371 58.097 18.726-8.991 39.531-12.449 61.032-8.3s40.921 12.45 62.421 14.524c16.645 1.385 32.597-0.691 48.549-4.841v-23.516h-92.013z" fill="#00a886"/><path transform="matrix(.86669 0 0 .86669 -6.9335 -20.238)" d="m140.47 244.68c-9.709-0.691-19.511-1.539-29.129-3.458-17.338-3.458-32.597-10.374-50.629-12.45-18.727-2.766-36.065 1.385-52.709 7.608v26.974h172v-24.898c-6.242 1.383-12.484 2.767-18.727 4.149-6.936 1.383-13.871 2.075-20.807 2.075" fill="#0099d8"/><g stroke-width=".86669"><path d="m124.03 71.583h-33.675c0.44201-5.5841 1.5479-10.022 3.3177-13.312 1.7698-3.2891 4.4236-6.0677 7.9632-8.3358 4.7001-2.9858 10.23-5.1005 16.589-6.345 6.358-1.2446 12.94-1.866 19.741-1.866 6.5236 0 12.372 0.42901 17.543 1.2853 5.1698 0.85802 9.5509 2.2543 13.146 4.1887 3.5933 1.9353 6.3589 4.0925 8.2951 6.4698 1.9345 2.3782 3.3723 5.4194 4.3135 9.1237 0.60669 2.2681 0.91263 6.7472 0.91263 13.437v45.039c0 3.9816 1.5202 7.0783 4.5623 9.2901v1.7412h-35.832l-1.742-9.4556c-4.4245 4.0925-9.2069 7.1199-14.35 9.082-5.143 1.9622-11.004 2.9442-17.585 2.9442-10.947 0-19.022-2.5983-24.219-7.7968-5.1984-5.1976-7.7968-11.391-7.7968-18.58 0-4.1471 0.92563-8.114 2.7786-11.902 1.8521-3.7874 4.3811-6.8018 7.5896-9.0413 3.2068-2.2395 7.7274-4.0084 13.561-5.3085 5.8328-1.2983 14.28-2.5845 25.339-3.8568 5.7505-0.66388 9.3993-1.437 10.949-2.3227 2.2109-1.2714 3.3186-3.179 3.3186-5.7236 0-2.2109-0.90049-4.0084-2.6963-5.3917-1.7975-1.3815-4.9904-2.074-9.5804-2.074-4.4236 0-7.5471 0.73322-9.3724 2.1988-1.8244 1.4673-2.8488 3.6375-3.0698 6.5123zm24.303 21.815c-1.3269 0.66388-3.056 1.3269-5.1837 1.9908-2.1295 0.66388-6.0963 1.6042-11.902 2.8202-3.9816 0.82942-6.6501 1.9908-8.0039 3.4841-1.3555 1.4933-2.0324 3.3177-2.0324 5.474 0 2.3227 0.87103 4.2034 2.6131 5.6404 1.742 1.4387 4.4643 2.1563 8.1703 2.1563 2.7639 0 5.4038-0.56595 7.9207-1.7004 2.5151-1.1328 4.5207-2.6677 6.0131-4.603 1.0496-1.4378 1.742-3.2622 2.074-5.4749 0.22014-1.437 0.33108-4.6992 0.33108-9.7875z"/><path d="m199.03 132.3v-120.52h34.837v59.803l22.147-26.542h40.726l-32.432 33.593 36.578 53.666h-41.887l-18.662-31.105-6.469 6.553v24.552z"/><path d="m408.24 96.55h-66.273c0.22014 5.1984 1.8382 9.2485 4.8526 12.152 3.0135 2.9034 7.2845 4.3543 12.815 4.3543 5.9724 0 10.173-2.3765 12.607-7.1329h33.262c-0.94123 4.2034-2.6269 7.9086-5.0589 11.114-3.9833 5.2548-9.5691 9.5674-16.756 12.94-7.1883 3.3723-15.732 5.0597-25.631 5.0597-15.815 0-28.215-4.2164-37.2-12.649-8.9867-8.432-13.479-19.229-13.479-32.39 0-13.935 4.5337-25.339 13.603-34.215 9.0682-8.8749 21.068-13.312 35.998-13.312 7.7968 0 15.109 1.3269 21.939 3.9816 6.8287 2.6547 12.608 6.7888 17.336 12.401 4.7278 5.6136 8.0871 12.207 10.077 19.782 1.3278 4.8656 1.9639 10.838 1.9093 17.915zm-66.025-17.751h31.436c-0.11094-4.7547-1.6051-8.5022-4.4791-11.239-2.8757-2.737-6.7472-4.1055-11.612-4.1055-4.369 0-7.9077 1.3-10.617 3.8984-2.7093 2.6001-4.2858 6.4152-4.7278 11.446z"/><path d="m422.78 132.3v-120.52h34.588v120.52z"/><path d="m510.15 71.583h-33.675c0.44201-5.5841 1.547-10.022 3.3177-13.312 1.7689-3.2891 4.4236-6.0677 7.9632-8.3358 4.6992-2.9858 10.23-5.1005 16.589-6.345 6.358-1.2446 12.94-1.866 19.741-1.866 6.5236 0 12.371 0.42901 17.542 1.2853 5.1698 0.85802 9.5518 2.2543 13.148 4.1887 3.5933 1.9353 6.358 4.0925 8.2942 6.4698 1.9344 2.3782 3.3723 5.4194 4.3135 9.1237 0.60755 2.2681 0.91262 6.7472 0.91262 13.437v45.039c0 3.9816 1.5202 7.0783 4.5623 9.2901v1.7412h-35.832l-1.742-9.4556c-4.4245 4.0925-9.2069 7.1199-14.35 9.082-5.143 1.9622-11.004 2.9442-17.584 2.9442-10.949 0-19.023-2.5983-24.22-7.7968-5.1984-5.1976-7.7968-11.391-7.7968-18.58 0-4.1471 0.92476-8.114 2.7778-11.902 1.8521-3.7874 4.3828-6.8018 7.5905-9.0413 3.2059-2.2395 7.7257-4.0084 13.56-5.3085 5.8346-1.2983 14.28-2.5845 25.34-3.8568 5.7505-0.66388 9.4001-1.437 10.949-2.3227 2.2109-1.2714 3.3177-3.179 3.3177-5.7236 0-2.2109-0.89963-4.0084-2.6954-5.3917-1.7975-1.3815-4.9913-2.074-9.5804-2.074-4.4244 0-7.548 0.73322-9.3724 2.1988-1.8252 1.4673-2.8497 3.6375-3.0698 6.5123zm24.303 21.815c-1.3269 0.66388-3.056 1.3269-5.1837 1.9908-2.1303 0.66388-6.0963 1.6042-11.902 2.8202-3.9816 0.82942-6.6501 1.9908-8.0039 3.4841-1.3555 1.4933-2.0324 3.3177-2.0324 5.474 0 2.3227 0.87103 4.2034 2.6139 5.6404 1.7403 1.4387 4.4635 2.1563 8.1694 2.1563 2.7639 0 5.4038-0.56595 7.9216-1.7004 2.5151-1.1328 4.5207-2.6677 6.0131-4.603 1.0496-1.4378 1.742-3.2622 2.074-5.4749 0.21841-1.437 0.33021-4.6992 0.33021-9.7875z"/><path d="m584.99 132.3v-87.507h32.017v13.603c4.2017-5.695 8.6392-9.7875 13.312-12.276 4.6723-2.4883 10.161-3.7328 16.465-3.7328 10.727 0 19.036 2.9728 24.925 8.9165 5.8892 5.9446 8.8333 14.779 8.8333 26.501v54.496h-35.003v-48.191c0-5.0866-1.0929-8.777-3.2761-11.073-2.1849-2.2941-5.2669-3.4425-9.2485-3.4425-3.927 0-7.106 1.3416-9.5388 4.0232-2.4345 2.6824-3.6496 6.9821-3.6496 12.898v45.786z"/><path d="m757.12 53.668v-41.888h34.837v120.52h-31.27v-11.777c-3.3177 4.9219-7.0505 8.543-11.198 10.866-4.148 2.3227-9.4019 3.4841-15.76 3.4841-11.559 0-21.055-3.9816-28.492-11.944-7.4379-7.9632-11.156-18.911-11.156-32.846 0-9.5102 1.6718-17.971 5.0181-25.381 3.3446-7.4093 8.0724-12.981 14.183-16.713 6.1093-3.7328 12.593-5.5988 19.45-5.5988 5.6942 0 10.727 1.1068 15.096 3.3177 3.0976 1.6025 6.1925 4.2572 9.2909 7.9614zm1.2446 35.417c0-6.9119-1.3416-11.957-4.0232-15.138-2.6833-3.179-6.2072-4.7694-10.576-4.7694-4.4773 0-8.1148 1.6588-10.906 4.9765-2.7933 3.3177-4.1878 8.6548-4.1878 16.009 0 6.8573 1.2844 11.82 3.8559 14.889s5.9576 4.6039 10.161 4.6039c4.6437 0 8.419-1.6441 11.322-4.9349 2.9034-3.2908 4.3551-8.5031 4.3551-15.636z"/><path d="m429.95 267.8h-23.202v54.3h-45.689v-167.45h72.002c39.23 0 65.303 15.071 65.303 55.497-8.7e-4 42.579-28.228 57.649-68.414 57.649zm1.9145-75.351h-25.117v37.555h24.399c15.069 0 21.049-6.4586 21.049-19.137 0-11.003-5.5018-18.419-20.332-18.419z"/><path d="m589.74 322.1h-80.373v-167.45h80.854c41.62 0 58.605 15.548 58.605 43.536 0 18.181-8.8506 26.313-20.095 32.772 15.072 6.4586 23.922 18.18 23.922 37.077 0 34.207-20.812 54.061-62.913 54.061zm-0.9551-130.85h-34.924v26.313h34.924c10.764 0 14.592-5.2625 14.592-13.157 0-7.4145-3.5881-13.156-14.592-13.156zm1.9137 61.715h-36.838v32.532h36.599c11.482 0 16.744-6.937 16.744-16.505 0-9.8066-5.5009-16.027-16.505-16.027z"/><path d="m730.87 324.74c-27.031 0-53.105-8.8506-70.566-20.333l22.485-36.359c12.2 8.3722 33.49 16.744 49.037 16.744 16.506 0 21.768-2.8705 21.768-10.764 0-6.2194-5.9793-10.047-28.466-15.309-40.428-9.3291-59.802-20.333-59.802-53.822 0-31.576 25.595-52.865 66.021-52.865 28.466 0 49.037 6.937 66.74 19.375l-22.486 36.359c-14.83-10.047-29.662-15.788-46.644-15.788-13.875 0-17.223 4.3057-17.223 10.286 0 6.2194 5.9802 9.0898 27.509 14.113 42.1 10.047 60.758 22.964 60.758 54.3 0 38.275-28.944 54.062-69.131 54.062z"/></g><path d="m252.21 147.22c-50.633 3.5e-4 -91.679 41.047-91.68 91.68 3.4e-4 50.633 41.047 91.679 91.68 91.68 50.633-3.4e-4 91.679-41.047 91.68-91.68-3.5e-4 -50.633-41.047-91.679-91.68-91.68z" color="#000000" color-rendering="auto" enable-background="accumulate" image-rendering="auto" shape-rendering="auto" solid-color="#000000" style="isolation:auto;mix-blend-mode:normal"/><path transform="matrix(.86669 0 0 .86669 -6.9335 -20.238)" d="m362.74 301.45h11.833l-26.554-60.594h-17.791l26.65 60.594h-12.138v16.072c0.045 9.75-4.031 13.914-17.282 13.736v31.023h17.627v-31.022h5.698c5.058 0.137 11.883-3.961 11.955-11.922v-17.887zm-51.058-60.594h-32.478c-26.649 0-48.569 18.604-48.569 46.203 0 23.207 13.954 39.779 34.823 42.941v32.281h43.387v-31.022h6.04c7.028-0.686 11.797-5.34 11.886-11.861v-17.947h11.811zm-9.089 53.118c-6.48 0-11.734-5.264-11.734-11.756 0-6.48 5.254-11.744 11.734-11.744 6.501 0 11.748 5.264 11.748 11.744 0 6.492-5.246 11.756-11.748 11.756"/><path d="m235.05 188.51h28.149l23.314 52.516h-10.236v15.555c-0.0771 5.6517-4.211 9.6856-10.302 10.28h-5.234v26.886h-37.603v-27.976c-18.087-2.7405-30.182-17.104-30.182-37.217 0-23.92 18.997-40.044 42.094-40.044zm44.223 0h15.419l23.013 52.516h-10.257v15.502c-0.0624 6.8997-5.9776 10.451-10.361 10.333h-4.9378v26.886h-15.277v-26.886c11.485 0.15427 15.017-3.4549 14.978-11.905v-13.93h10.52l-23.098-52.516zm-23.951 25.669c-5.6162 0-10.17 4.5624-10.17 10.179 0 5.6266 4.5539 10.189 10.17 10.189 5.6352 0 10.182-4.5621 10.182-10.189 0-5.6162-4.5476-10.179-10.182-10.179z" color="#000000" color-rendering="auto" enable-background="accumulate" fill="#fff" image-rendering="auto" shape-rendering="auto" solid-color="#000000" style="isolation:auto;mix-blend-mode:normal"/><path d="m307.45 241.03h10.256l-23.014-52.516h-15.419l23.097 52.516h-10.52v13.929c0.039 8.4502-3.4936 12.059-14.978 11.905v26.887h15.277v-26.886h4.9384c4.3837 0.11874 10.299-3.433 10.361-10.333v-15.502zm-44.252-52.516h-28.148c-23.096 0-42.094 16.124-42.094 40.044 0 20.113 12.094 34.476 30.181 37.217v27.978h37.603v-26.886h5.2348c6.0911-0.59455 10.224-4.6281 10.301-10.28v-15.554h10.236zm-7.8774 46.037c-5.6162 0-10.17-4.5623-10.17-10.189 0-5.6162 4.5536-10.178 10.17-10.178 5.6344 0 10.182 4.5623 10.182 10.178 0 5.6266-4.5467 10.189-10.182 10.189" fill="#fff"/></svg>
