<svg width="800" height="244.93" version="1.1" viewBox="0 0 800 244.93" xml:space="preserve" xmlns="http://www.w3.org/2000/svg">
<g fill="#ee355b" stroke-width=".77168"><path d="m57.104 183.27h6.2506c28.552 0 46.609-15.279 72.384-52.629h0.46301l-18.752 58.648h-117.45v-0.46301c11.267-6.4821 14.045-12.501 18.057-29.015l29.015-116.29c1.7749-7.2538 2.778-12.501 2.778-16.514 0-5.4789-1.4662-9.0286-6.2506-12.501v-0.46301h66.364v0.46301c-11.267 6.4821-14.045 12.501-18.057 29.092z"/><path d="m179.65 166.53c-0.30868 1.5434-0.46301 3.1639-0.46301 4.7844 0 4.2442 2.0064 7.0223 6.0191 7.0223 2.315-0.0772 4.5529-0.77168 6.4821-2.0064v0.46301c-7.794 10.804-17.517 15.048-28.321 15.048-16.282 0-23.305-9.8003-23.305-23.073-0.0772-3.6269 0.38583-7.2538 1.2347-10.804l16.051-65.361c2.0064-8.0255 3.2411-12.81 3.2411-16.282 0-4.4757-1.4662-7.4853-5.2474-10.495v-0.54018h49.619zm13.736-161.28c12.81 0 21.761 9.2602 21.761 21.298 0.0772 13.196-10.572 23.999-23.768 24.076h-0.2315c-12.81 0-21.761-9.2602-21.761-21.298-0.2315-13.119 10.263-23.922 23.382-24.076 0.15433-0.07717 0.38584-0.07717 0.61734 0z"/><path d="m266.77 65.284h18.829l-3.0096 6.2506h-17.054l-28.089 113.75c-10.263 41.825-28.321 59.111-65.361 59.651v-0.46301c13.273-9.0286 19.06-30.79 30.558-80.949l21.298-91.907h-11.498l0.77168-2.778 12.733-5.4789 2.2379-7.0223c9.0286-35.806 36.037-56.333 64.667-56.333 15.819 0 28.552 7.794 28.552 20.758 0 14.816-10.804 23.073-23.305 23.073-8.257 0-14.045-4.4757-15.279-9.8003 7.4853-1.2347 15.819-7.794 15.819-22.07 0-4.7844-2.4694-8.0255-7.0223-8.0255-9.0286 0-16.514 12.501-21.298 41.825z"/><path d="m267.31 145.92c0-39.819 32.796-83.419 75.625-83.419 20.527 0 30.79 10.495 30.79 25.311 0 28.089-30.327 40.05-65.361 41.594-0.77168 4.7072-1.1575 9.4916-1.2347 14.276 0 20.064 9.4916 29.787 22.765 29.787 11.267 0 19.06-5.4789 28.552-18.057h1.5434c-10.495 24.308-28.552 36.346-50.313 36.346-24.848 0-42.365-15.742-42.365-45.838zm41.825-20.218c21.067-6.4821 36.809-30.79 36.809-50.622 0-5.0159-1.7749-8.0255-5.0159-8.0255-11.267 0-26.546 30.79-31.793 58.648z"/><path d="m412.08 159.2c-0.54017 1.6977-0.77168 3.4726-0.77168 5.2474 0 7.2538 4.7844 11.498 10.804 11.498 4.0127 0 9.2602-2.2379 14.045-6.7908l0.2315 0.463c-9.2602 14.739-21.53 22.07-37.349 22.07-18.057 0-27.549-10.495-27.549-26.777 0.15433-4.1671 0.69451-8.257 1.7749-12.27l20.295-81.181h-9.0286l0.77168-3.2411c26.006-6.7136 42.828-21.298 58.879-46.609h2.2379l-10.804 43.6h23.536l-2.778 6.2506h-22.533z"/><path d="m486.24 166.53c-0.30867 1.5434-0.46301 3.1639-0.54018 4.7844 0 4.2442 2.0064 7.0223 6.0191 7.0223 2.315-0.0772 4.5529-0.77168 6.4821-2.0064v0.46301c-7.794 10.804-17.517 15.048-28.321 15.048-16.282 0-23.305-9.8003-23.305-23.073-0.0772-3.6269 0.38584-7.2538 1.2347-10.804l16.051-65.361c2.0064-8.0255 3.241-12.81 3.241-16.282 0-4.4757-1.5434-7.4853-5.2474-10.495v-0.54018h49.619zm13.736-161.28c12.81 0 21.761 9.2602 21.761 21.298 0 13.196-10.649 23.922-23.845 23.999h-0.15434c-12.733 0-21.761-9.2602-21.761-21.298-0.2315-13.119 10.263-23.922 23.382-24.076 0.2315 0 0.38584 0 0.61734 0.07717z"/><path d="m672.6 166.53c-0.46301 1.5434-0.77168 3.1639-0.77168 4.7844 0 4.2442 2.0064 7.0223 6.2506 7.0223 2.2379-0.0772 4.3986-0.77168 6.2506-2.0064v0.46301c-7.4853 10.804-17.286 15.048-28.012 15.048-16.514 0-23.768-9.8003-23.768-23.073 0-3.5497 0.77168-7.0223 1.5434-10.804l14.276-57.336c0.92602-3.0095 1.4662-6.0963 1.5434-9.2601 0-4.0127-1.5434-6.4821-5.4789-6.4821-7.794 0-15.819 10.263-21.298 31.33l-18.057 73.155h-40.359l22.07-88.666c0.92602-2.8552 1.4662-5.7876 1.5434-8.7971 0-4.2442-1.7749-7.0223-6.0191-7.0223-7.794 0-15.511 10.263-21.067 32.025l-17.98 72.384h-40.59l24.076-96.691c1.7749-8.0255 3.0096-12.81 3.0096-16.282 0-4.4757-1.5434-7.4853-5.0159-10.495v-0.54018h49.387l-7.2538 28.784c9.2602-19.755 20.758-31.33 38.044-31.33 16.514 0 23.768 11.267 23.768 25.774-0.0772 1.7749-0.2315 3.5497-0.54018 5.2474 9.4917-19.755 21.53-31.022 38.584-31.022 16.823 0 23.768 10.804 23.768 25.08-0.0772 4.7072-0.69451 9.4145-1.7749 14.045z"/><path d="m693.59 145.92c0-39.819 32.796-83.419 75.625-83.419 20.527 0 30.79 10.495 30.79 25.311 0 28.089-30.327 40.05-65.361 41.594-0.77168 4.7072-1.1575 9.4916-1.2347 14.276 0 20.064 9.4917 29.787 22.765 29.787 11.267 0 19.06-5.4789 28.552-18.057h1.4662c-10.495 24.308-28.552 36.346-50.314 36.346-24.694 0-42.288-15.742-42.288-45.838zm41.825-20.218c21.067-6.4821 36.809-30.79 36.809-50.622 0-5.0159-1.7749-8.0255-5.0159-8.0255-11.189 0-26.469 30.79-31.793 58.648z"/></g>
</svg>
