<svg width="1926.2" height="961.23" version="1.1" viewBox="0 0 1805.8 901.15" xmlns="http://www.w3.org/2000/svg">
 <defs>
  <style>.cls-1 {
        fill: #ef3749;
      }
      .cls-2 {
        fill: #fff;
      }
      .cls-3 {
        fill: none;
      }</style>
 </defs>
 <path class="cls-1" d="m449.22 8.0216c-243.49-0.19177-441.03 197.78-441.23 442.19-0.19839 244.41 197.02 442.72 440.51 442.92 243.49 0.19923 441.03-197.78 441.23-442.19 0.19839-244.41-197.03-442.72-440.51-442.92" fill-opacity="0" stroke="#fff" stroke-width="16"/>
 <g fill="#fff">
  <polygon class="cls-2" transform="matrix(.73478 0 0 .73759 7.9909 8.0214)" points="122.69 520.96 92.06 520.93 91.93 678.24 192.66 678.32 192.68 649.04 122.58 648.99"/>
  <path d="m175.54 392.35h22.815v116.02h-22.815z"/>
  <polygon class="cls-2" transform="matrix(.73478 0 0 .73759 7.9909 8.0214)" points="326.99 589.01 327.02 550.18 395.79 550.24 395.81 521.18 296.42 521.1 296.29 678.4 327.13 678.42 327.18 617.2 388.2 617.24 388.22 589.06"/>
  <polygon class="cls-2" transform="matrix(.73478 0 0 .73759 7.9909 8.0214)" points="529.49 678.59 529.51 649.74 461.63 649.69 461.66 613.3 523.1 613.35 523.13 586.07 461.68 586.02 461.71 550.07 529.6 550.13 529.62 521.29 431.11 521.21 430.98 678.51"/>
  <polygon class="cls-2" transform="matrix(.73478 0 0 .73759 7.9909 8.0214)" points="562.89 550.38 612.57 550.42 612.47 678.66 643.31 678.68 643.42 550.44 693.12 550.49 693.14 521.42 562.91 521.32"/>
  <path d="m543.19 392.65h22.822v116.02h-22.822z"/>
  <polygon class="cls-2" transform="matrix(.73478 0 0 .73759 7.9909 8.0214)" points="884.31 635.17 884.31 635.17 837.15 521.54 796.77 521.51 796.65 678.81 825.93 678.83 826.02 569.46 871.19 678.87 896.7 678.89 942.06 568.66 941.98 678.92 972.13 678.95 972.26 521.65 930.56 521.62"/>
  <polygon class="cls-2" transform="matrix(.73478 0 0 .73759 7.9909 8.0214)" points="1108.1 521.76 1009.5 521.68 1009.4 678.98 1107.9 679.06 1108 650.21 1040.1 650.16 1040.1 613.77 1101.5 613.82 1101.6 586.54 1040.1 586.49 1040.2 550.55 1108 550.6"/>
 </g>
 <g fill="#fff">
  <path d="m1091.7 556.24 35.388-251.04h58.777v288.31h-38.217v-258.81h8.9625l-36.341 258.81h-48.683l-36.356-258.81h9.0518v258.81h-38.217v-288.31h58.703l35.388 251.04z"/>
  <path d="m1214.2 544.56v-190.42c0-34.182 20.237-51.274 60.712-51.274 40.484 2.9e-4 60.727 17.092 60.727 51.274v190.42c-2e-4 34.191-20.243 51.286-60.727 51.286-40.475 0-60.712-17.095-60.712-51.286zm42.043-189.64v188.86c-2e-4 15.039 6.2229 22.559 18.669 22.559 12.456 3e-5 18.684-7.5195 18.684-22.559v-188.86c0-15.039-6.2281-22.558-18.684-22.559-12.446 2.6e-4 -18.67 7.5198-18.669 22.559z"/>
  <path d="m1448.5 305.2h41.626l-40.748 288.31h-55.338l-40.673-288.31h41.537l22.089 219.48z"/>
  <path d="m1510.7 593.52v-288.31h42.043v288.31z"/>
  <path d="m1573.2 593.52v-288.31h94.18v29.502h-52.137v94.456h48.89v29.514h-48.89v105.34h52.137v29.502z"/>
  <path d="m1772.7 406.94v-59.405c-1e-4 -10.112-9.4192-15.168-23.451-15.168-16.435 5e-4 -24.653 5.0563-24.653 15.168v35.846c0 9.8401 0.413 19.372 3.0451 24.389l63.831 49.055c8.1385 11.298 14.31 23.946 14.311 36.743v57.211c0 30.046-18.644 45.069-55.933 45.069-37.934 0-59.304-15.023-59.304-45.069v-67.568h32.445v66.02c0 11.41 13.659 17.115 26.558 17.115 14.066 4e-5 23.202-6.0055 23.202-17.416v-39.251c0-8.6524 1.3968-19.95-5.4225-29.387l-65.63-51.261c-9.3594-13.321-11.438-34.592-11.336-46.39l0.3009-34.721c0.2601-30.036 20.73-45.958 57.384-45.958 36.654 2.9e-4 57.083 15.275 57.083 44.023v60.953z"/>
 </g>
</svg>
