<svg width="379.91" height="102.98" space="preserve" version="1.1" viewBox="0 0 379.51 102.7" xmlns="http://www.w3.org/2000/svg">
 <link href="" rel="stylesheet" type="text/css"/>
 <style type="text/css"/>
 <g transform="matrix(1.25 0 0 -1.25 -179.93 546.7)">
  <g transform="matrix(.5 0 0 .5 148 198)">
   <path d="m-8.11 477h112v-161h-112z" fill="#bf5700"/>
   <path d="m104 477h113v-161h-113z"/>
   <path d="m212 448c-7.92 2.16-17.5 0.55-25.2-1.82-14.7-4.72-27.3-14.7-41-21.9-7.21-3.06-17.2-3.69-23.8 0.488-1.59 1.13-4.5 0.315-4.5 0.315-0.924 0.691-1.96 0.974-3.21 0.508-3.35-2.42-6.82 1.32-10.4-0.609-3.55 1.93-7.02-1.81-10.3 0.609-1.28 0.466-2.31 0.183-3.25-0.508 0 0-2.88 0.812-4.49-0.315-6.66-4.18-16.6-3.55-23.8-0.488-13.7 7.16-26.3 17.2-41 21.9-7.73 2.36-17.3 3.97-25.2 1.82-1.05-0.701-2.22-1.95-1.93-3.46 0.542-0.924 1.09-2.17 2.27-2.37 28.4 4.25 43.7-23.9 67.4-31.4 0.0494-0.299-1.35-1.46-2.85-2.27-3.36-1.85-8.35-1.14-8.7-5.72 0.917-2.85 4.38-3.9 6.89-5.01 5.91-3.33 13-0.562 18.4 2.16 0.609 0.63 1.67 0.274 2.16-0.347-0.423-12.9 9.39-21.4 11.2-33.4 1.05-5.56-2.43-9.66-2.85-14.9-0.0593-1.92 1.46-0.65 2.28-7.03 0.329-1.16 3.22-4.4 5.86-5.76 2.41-0.958 5.21-1.23 8.06-1.17 2.85-0.0581 5.64 0.212 8.05 1.17 2.63 1.36 5.52 4.6 5.87 5.76 0.804 6.38 2.33 5.11 2.28 7.03-0.428 5.21-3.89 9.31-2.85 14.9 1.79 12 11.6 20.5 11.2 33.4 0.488 0.621 1.53 0.977 2.15 0.347 5.34-2.72 12.4-5.49 18.3-2.16 2.5 1.11 5.97 2.16 6.9 5.01-0.357 4.58-5.34 3.87-8.7 5.72-1.51 0.809-2.91 1.97-2.86 2.27 23.8 7.45 39.1 35.6 67.5 31.4 1.18 0.2 1.74 1.45 2.3 2.37 0.267 1.51-0.924 2.76-1.96 3.46" fill="#fff"/>
   <g fill="#bf5700">
    <path d="m247 477v-59.3h11.7v-14.8h-31v74.1h19.3"/>
    <path d="m286 458c0 3.45-0.193 5.66-0.572 6.62-0.38 0.962-1.17 1.44-2.36 1.44-1.01 0-1.78-0.387-2.31-1.17-0.539-0.78-0.799-3.07-0.799-6.89v-34.6c0-4.31 0.174-6.96 0.524-7.97 0.347-1 1.17-1.51 2.45-1.51 1.31 0 2.15 0.58 2.52 1.74 0.367 1.16 0.547 3.92 0.547 8.29v34.1zm19.3-24.4c0-7.45-0.174-12.7-0.521-15.8-0.355-3.1-1.46-5.93-3.3-8.49-1.85-2.56-4.34-4.53-7.48-5.91-3.14-1.37-6.81-2.06-11-2.06-3.97 0-7.53 0.646-10.7 1.94-3.17 1.3-5.7 3.24-7.63 5.83-1.92 2.6-3.07 5.42-3.44 8.48-0.369 3.05-0.55 8.39-0.55 16v12.7c0 7.45 0.175 12.7 0.526 15.8 0.355 3.1 1.45 5.92 3.3 8.49 1.84 2.56 4.34 4.53 7.48 5.9 3.15 1.37 6.81 2.06 11 2.06 3.97 0 7.53-0.646 10.7-1.94 3.16-1.3 5.7-3.25 7.62-5.84s3.07-5.42 3.44-8.47c0.367-3.05 0.546-8.39 0.546-16v-12.7"/>
    <path d="m352 477v-74.1h-16.9l-10 33.7v-33.7h-16.1v74.1h16.1l10.8-33.4v33.4h16.1"/>
    <path d="m402 450h-19.3v6.73c0 4.24-0.184 6.89-0.556 7.97-0.364 1.07-1.23 1.6-2.6 1.6-1.2 0-2-0.456-2.43-1.37-0.431-0.916-0.641-3.27-0.641-7.05v-35.6c0-3.33 0.21-5.52 0.641-6.57 0.43-1.05 1.28-1.58 2.56-1.58 1.4 0 2.36 0.598 2.86 1.79 0.507 1.19 0.748 3.51 0.748 6.96v8.79h-3.88v11.3h22.6v-39.8h-12.1l-1.78 5.31c-1.32-2.28-2.97-4.01-4.97-5.15s-4.36-1.71-7.08-1.71c-3.24 0-6.27 0.783-9.1 2.36-2.83 1.57-4.97 3.52-6.44 5.84s-2.38 4.75-2.74 7.31c-0.371 2.55-0.552 6.37-0.552 11.5v22c0 7.08 0.384 12.2 1.15 15.4 0.762 3.21 2.95 6.14 6.57 8.82 3.61 2.67 8.29 4.01 14 4.01 5.65 0 10.3-1.16 14.1-3.48 3.73-2.32 6.15-5.07 7.28-8.26s1.69-7.82 1.69-13.9v-3.21"/>
    <path d="m452 477v-74.1h-19.3v31.1h-5.77v-31.1h-19.3v74.1h19.3v-26.5h5.77v26.5h19.3"/>
    <path d="m483 458c0 3.45-0.196 5.66-0.574 6.62-0.384 0.962-1.17 1.44-2.36 1.44-1 0-1.77-0.387-2.31-1.17-0.534-0.78-0.8-3.07-0.8-6.89v-34.6c0-4.31 0.172-6.96 0.524-7.97 0.355-1 1.17-1.51 2.45-1.51 1.31 0 2.15 0.58 2.52 1.74 0.367 1.16 0.554 3.92 0.554 8.29v34.1zm19.3-24.4c0-7.45-0.168-12.7-0.521-15.8-0.355-3.1-1.45-5.93-3.3-8.49s-4.34-4.53-7.48-5.91c-3.15-1.37-6.8-2.06-11-2.06-3.97 0-7.53 0.646-10.7 1.94-3.17 1.3-5.7 3.24-7.63 5.83-1.92 2.6-3.07 5.42-3.43 8.48-0.372 3.05-0.552 8.39-0.552 16v12.7c0 7.45 0.175 12.7 0.525 15.8 0.355 3.1 1.45 5.92 3.3 8.49 1.85 2.56 4.34 4.53 7.48 5.9s6.81 2.06 11 2.06c3.97 0 7.53-0.646 10.7-1.94 3.16-1.3 5.7-3.25 7.62-5.84s3.07-5.42 3.44-8.47 0.547-8.39 0.547-16v-12.7"/>
    <path d="m527 464v-16.5c2.17 0 3.68 0.301 4.55 0.896 0.871 0.593 1.31 2.52 1.31 5.79v4.08c0 2.35-0.423 3.89-1.26 4.62-0.836 0.732-2.37 1.1-4.6 1.1zm-19.3 12.7h13.6c9.09 0 15.3-0.35 18.5-1.05 3.22-0.704 5.84-2.5 7.88-5.38 2.03-2.88 3.04-7.49 3.04-13.8 0-5.77-0.717-9.65-2.16-11.6-1.42-1.98-4.26-3.18-8.47-3.57 3.81-0.944 6.38-2.21 7.69-3.8 1.32-1.59 2.13-3.05 2.45-4.38 0.327-1.33 0.487-4.98 0.487-11v-19.6h-17.9v24.6c0 3.97-0.316 6.42-0.939 7.37-0.633 0.948-2.27 1.42-4.92 1.42v-33.4h-19.3v74.1"/>
    <path d="m599 477v-74.1h-16.9l-10 33.7v-33.7h-16.1v74.1h16.1l10.8-33.4v33.4h16.1"/>
   </g>
   <path d="m273 394v-78.3h-17.8l-10.6 35.6v-35.6h-17v78.3h17l11.4-35.2v35.2h17"/>
   <path d="m279 394h33.9v-15.7h-13.6v-14.8h12.7v-14.9h-12.7v-17.2h14.9v-15.7h-35.3v78.3"/>
   <path d="m362 394v-15.7h-12.1v-62.6h-20.3v62.6h-12v15.7h44.5"/>
   <path d="m446 394-9.06-78.3h-25.4c-2.33 12-4.38 25.7-6.16 41-0.811-6.58-2.7-20.3-5.67-41h-25.3l-9.11 78.3h19.8l4.22-53.7c0.757 13.7 2.63 31.6 5.64 53.7h21.1c0.283-2.29 1.02-10.9 2.22-25.8l2.25-29.8c1.15 18.9 3.05 37.5 5.67 55.6h19.8"/>
   <path d="m519 381v-17.4c2.3 0 3.9 0.311 4.82 0.938 0.912 0.63 1.37 2.67 1.37 6.12v4.3c0 2.49-0.439 4.11-1.32 4.88-0.893 0.77-2.51 1.16-4.87 1.16zm-20.3 13.4h14.4c9.6 0 16.1-0.369 19.5-1.11 3.39-0.741 6.16-2.63 8.31-5.68s3.22-7.91 3.22-14.6c0-6.08-0.752-10.2-2.28-12.3-1.51-2.09-4.49-3.35-8.93-3.77 4.03-0.998 6.73-2.34 8.12-4.01 1.38-1.67 2.24-3.21 2.59-4.61 0.33-1.4 0.504-5.26 0.504-11.6v-20.6h-18.9v26c0 4.18-0.33 6.77-0.987 7.78-0.668 0.997-2.39 1.5-5.2 1.5v-35.3h-20.3v78.3"/>
   <path d="m598 394-11.7-35.3 12.8-42.9h-21l-8.24 33.5v-33.5h-20.4v78.3h20.4v-30.4l9.06 30.4h19.1"/>
   <path d="m474 374c0 3.63-0.195 5.96-0.593 6.97-0.411 1.02-1.23 1.51-2.48 1.51-1.07 0-1.88-0.397-2.44-1.22-0.575-0.825-0.846-3.24-0.846-7.26v-36.5c0-4.53 0.178-7.34 0.547-8.4 0.372-1.06 1.23-1.6 2.59-1.6 1.38 0 2.26 0.623 2.65 1.84 0.389 1.22 0.577 4.13 0.577 8.74v35.9zm20.3-25.7c0-7.85-0.176-13.4-0.547-16.7-0.377-3.27-1.53-6.26-3.48-8.95-1.95-2.7-4.57-4.79-7.89-6.22-3.31-1.44-7.16-2.17-11.6-2.17-4.19 0-7.94 0.676-11.3 2.06-3.32 1.37-6.02 3.41-8.03 6.15-2.03 2.71-3.24 5.69-3.62 8.91-0.382 3.22-0.582 8.85-0.582 16.9v13.4c0 7.85 0.184 13.4 0.57 16.7 0.36 3.27 1.52 6.25 3.46 8.94 1.95 2.71 4.58 4.79 7.9 6.23 3.31 1.46 7.16 2.17 11.6 2.17 4.18 0 7.93-0.678 11.3-2.05 3.33-1.37 6.01-3.41 8.03-6.16 2.03-2.74 3.23-5.7 3.62-8.92 0.373-3.22 0.571-8.84 0.571-16.9v-13.4"/>
  </g>
 </g>
</svg>
