<svg width="1e3" height="416.98" version="1.1" xmlns="http://www.w3.org/2000/svg">
 <link href="" rel="stylesheet" type="text/css"/>
 <style type="text/css"/>
 <g transform="translate(840 -2126.4)">
  <path d="m-840 2136.1v320.41c0 47.98 24.167 80.194 84.988 80.194h200.97v-61.991c0-21.844-18.464-34.328-33.995-34.328h-152.64v-271.29c0-19.699-18.229-32.995-32.662-32.995z" fill="#50a2de"/>
  <path d="m-531.38 2536.7v-243.63c0-37.422 11.948-87.104 41.219-116.72 29.271-29.62 65.612-43.387 118.37-43.387 11.974 0 20.23 1.8024 20.23 1.8024v88.234c-33.572 1.6416-55.728 10.37-66.417 21.02-17.051 16.191-21.751 42.209-21.751 80.716v179.18c0 14.488-11.914 32.789-34.328 32.789z" fill="#392f8e"/>
  <path d="m-335.08 2136.8h53.325c21.845 0 39.077 18.199 42.369 35.267l53.482 225.83 43.173-214.66c6.7-31.893 20.563-56.806 57.07-56.806 30.659 0 48.803 19.796 54.713 53.02l41.772 225.07 50.699-233.63c2.5597-13.617 16.889-34.087 41.996-34.087h56.477l-96.13 358.62c-7.9875 27.649-20.376 47.992-53.055 47.992-34.784 0-51.762-29.015-59.114-65.12l-38.31-206.43-42.603 209.6c-6.1085 35.919-20.715 61.947-54.739 61.947-29.614 0-40.152-20.74-48.659-46.454z" fill="#661d8d"/>
 </g>
</svg>
