<svg width="800" height="276.78" version="1.1" viewBox="0 0 800 276.78" xmlns="http://www.w3.org/2000/svg">
 <g transform="matrix(1.8519 0 0 1.8519 0 .0061514)" fill="#cf102d">
  <path d="m21 36.84q7 17.88 13.9 35.76h0.2c4.42-14 8.86-28 13.45-41.91 8.69-2.43 13.07-3.82 21.84-6.63-1.06 12-0.79 24.18-0.67 36.17s0.06 23.89 1.38 35.77c-7.55 2.73-11.33 4.1-18.86 6.55 0.53-8.08 0.48-12.4 0.42-17.73-0.13-12.07-0.2-18.19-0.34-30.21l-0.2 0.06c-4.51 14.21-9 28.44-13.47 42.65-4.08 1.1-6.11 1.61-10.18 2.49-5-12.51-9.76-25.11-14.48-37.73h-0.2q0.15 15.85 0.29 31.71c0.05 5.44 0.09 9.84 0.78 17.73a98.06 98.06 0 0 1-14.38 1c1.08-12.4 0.84-24.94 0.76-37.32-0.08-12.15 0.01-24.48-1.24-36.63a112.76 112.76 0 0 0 21-1.73z"/>
  <path d="m115.24 10.47c3.42 14.9 9.34 29.31 14.45 43.66 4.94 13.88 7.24 18.43 8.81 21.73a153 153 0 0 0-20.77 4.44c-0.42-2.55-2.21-7.78-4.1-12.69-7.76 2.18-11.64 3.46-19.37 6.08a111 111 0 0 0-3.61 15.24c-6.11 2.16-9.15 3.29-15.24 5.5 8.61-23.5 14.68-47.94 21.41-72-0.81-2.48-1.22-3.71-2-6.17 8.18-2.51 12.23-3.73 20.42-5.79zm-4.78 46.33c-1.17-4.33-4.77-15.32-6.15-19.49l-0.2 0.06c-1.64 5.06-5.3 18.29-6.41 23.36 5.1-1.66 7.65-2.46 12.76-3.93z"/>
  <path d="m166.73 3c10.24-0.67 16-0.45 20.93 1.9 6.48 3.11 9.85 8.28 9.85 15.53 0 7.06-3.34 14.64-13.17 19.14 2.14 4.4 3.21 6.61 5.35 11 5.23 10.77 8.27 17 10.67 20.73-8.9 0.22-13.35 0.4-22.25 0.91-0.84-2.5-1.36-4-3.14-8.34-3.27-8-4.91-12-8.18-19.93l-4.59 0.36v12.16c0 5.1 0 9.22 0.65 16.81-7.93 0.64-11.89 1-19.8 1.91 1.15-11.66 1-23.47 1-35.12s0.1-23.31-1.12-34.88c9.5-1.01 14.26-1.44 23.8-2.18zm-4.55 29.38a18.07 18.07 0 0 0 3.65 0.1c7.79-0.54 12-4.73 12-10s-4.24-9-12-8.41a19 19 0 0 0-3.65 0.68c-0.02 7.07-0.02 10.6 0 17.66z"/>
  <path d="m258.76 87.85c-10.23-0.46-20.46-5.82-24.43-15.14a6 6 0 0 1-1.15 0.07c-18.66-0.5-30.44-19.56-30.43-36.46 0-16.66 11.94-37.11 30.47-36.3 18.95 0.84 30.38 19.87 30.41 37.87 0 11.9-4.68 24.49-15.29 30.94 2.81 3.76 7.72 5.31 12.42 5.82zm-25.55-76.55c-6.91-0.18-10.16 8.84-10.16 24.92s3.24 25.1 10.14 25.28 10.14-8.68 10.16-24.76-3.22-25.26-10.14-25.44z"/>
  <path d="m289.79 5.28c-0.64 7.58-0.65 11.7-0.66 16.8l-0.07 30.09c0 7.85 2.37 12.37 10 13.75 8.23 1.49 10.34-2.85 10.38-11 0.06-11.76 0.09-17.65 0.14-29.37 0-5.11 0.05-9.24-0.55-17 6 1.3 9.06 2.07 15.12 3.7-0.7 7.45-0.73 11.59-0.78 16.73-0.09 12-0.14 18.12-0.24 30.23-0.07 9.23-2.38 14.45-7.33 16.86s-11.47 2.88-19.59 1.54c-7.21-1.2-13.66-3.61-18.13-7.61-5.82-5.25-7.18-10.93-7.16-22.4l0.08-27.29c0-5.09 0-9.21-0.6-16.91 7.75 0.6 11.6 0.99 19.39 1.88z"/>
  <path d="m379.47 29.11c-0.1 4.89-0.15 7.37-0.26 12.36a204.26 204.26 0 0 0-21.81-8l-4.61-1.47c-0.13 1.75-0.3 5.41-0.35 9s-0.41 8.69 0.06 9.32c2.27 3 14.37 4.78 18.72 5.66-0.09 5-0.14 7.47-0.24 12.47-4.33-1.94-17.81-7.39-18.66-6.82-0.35 0.22-0.3 5.79-0.36 9.62s0 7.7 0.05 9.75c11.7 4.46 23.34 7.76 27.76 8.57-0.11 5.11-0.16 7.66-0.27 12.71-15.69-5.38-31.26-11.09-46.93-16.51 1.34-11.68 1.3-23.55 1.43-35.23s0.4-23.82-0.67-35.66c15.41 4.64 30.74 9.55 46.14 14.23z"/>
  <path d="m431 38.56c0 4.89-0.05 7.38-0.09 12.43-7.45-1.3-14.5-2.17-20.45-3.17-1.74-0.29-2.62-0.45-4.38-0.79-0.13 1.8-0.31 5.55-0.38 9.25s-0.42 9 0 9.55c2 2.36 13.74 2.22 17.85 2-0.06 5.1-0.09 7.67-0.15 12.8-4.13-0.86-16.79-4-17.92-3.14-0.41 0.31-0.32 6-0.39 10s-0.05 7.93 0 10c11.41 2.74 22.66 2.7 26.91 2.08 0 5.22-0.05 7.82-0.08 12.93-15.89-0.17-30.8-4-46-8.22 1.46-12.06 1.54-24.32 1.79-36.4s0.67-24.37-0.25-36.51c14.19 3.94 28.77 6.89 43.54 7.19z"/>
  <path d="m52.24 145.42 4-3a5.23 5.23 0 0 0 4.33 2.26c1.64 0 2.62-0.49 2.62-1.65 0-0.88-0.67-1.31-2-1.77l-2.43-0.82c-3-1-5.15-2.84-5.15-6.25 0-4.08 3.38-6.19 7.07-6.19s5.85 1.31 7.07 2.75l-3.17 3.32a4.69 4.69 0 0 0-3.6-1.5c-1.34 0-2 0.61-2 1.44s0.46 1.19 1.46 1.52l2.75 0.92c4.14 1.37 5.54 3.35 5.54 6.28 0 3.81-2.37 6.55-7.86 6.55-4.69-0.02-7.35-2.15-8.63-3.86z"/>
  <path d="m80.84 149h-5.55v-20.77h8.38c5.27 0 8.2 3.2 8.2 7.43s-2.93 7.34-8.2 7.34h-2.83zm2.56-10.57c1.89 0 2.89-1 2.89-2.72a2.56 2.56 0 0 0-2.89-2.74h-2.56v5.46z"/>
  <path d="m97.48 138.59c0-6.25 5.15-10.61 11.12-10.61s11.13 4.36 11.13 10.61-5.15 10.64-11.13 10.64-11.12-4.39-11.12-10.64zm16.58 0c0-3.26-2-5.79-5.46-5.79s-5.45 2.53-5.45 5.79 2 5.82 5.45 5.82 5.46-2.56 5.46-5.82z"/>
  <path d="m131.92 149h-5.55v-20.77h8.39c5.27 0 8.2 3.11 8.2 7.34a6.28 6.28 0 0 1-3.78 6l4.3 7.34h-6l-3.66-6.49h-1.89zm2.56-10.73c1.89 0 2.9-0.94 2.9-2.65s-1-2.65-2.9-2.65h-2.56v5.3z"/>
  <path d="m154.54 132.89h-5.49v-4.66h16.53v4.66h-5.49v16.11h-5.55z"/>
  <path d="m170.45 145.42 4-3a5.26 5.26 0 0 0 4.33 2.26c1.65 0 2.62-0.49 2.62-1.65 0-0.88-0.67-1.31-2-1.77l-2.44-0.82c-3-1-5.15-2.84-5.15-6.25 0-4.08 3.39-6.19 7.07-6.19s5.86 1.31 7.08 2.75l-3.18 3.32a4.67 4.67 0 0 0-3.59-1.5c-1.34 0-2 0.61-2 1.44s0.45 1.19 1.46 1.52l2.74 0.92c4.15 1.37 5.55 3.35 5.55 6.28 0 3.81-2.38 6.55-7.86 6.55-4.7-0.02-7.35-2.15-8.63-3.86z"/>
  <path d="m216.84 138.62v10.38h-5.21v-21c0-0.18 0.09-0.33 0.43-0.06l13 10.73v-10.44h5.22v21c0 0.24-0.1 0.33-0.43 0.06z"/>
  <path d="m237.94 128.23h14.54v4.66h-9v3.41h7.52v4.42h-7.49v3.57h9.41v4.71h-15z"/>
  <path d="m264 132.89h-5.49v-4.66h16.52v4.66h-5.48v16.11h-5.55z"/>
  <path d="m289 149.2c-0.09 0.21-0.27 0.21-0.36 0l-8.69-21h5.82l3.87 9.72 4.45-10.12c0.07-0.15 0.19-0.15 0.25 0l4.66 10.2 3.69-9.72h5.55l-8.57 21c-0.09 0.24-0.24 0.24-0.36 0l-5.18-11.13z"/>
  <path d="m311.37 138.59c0-6.25 5.15-10.61 11.12-10.61s11.13 4.36 11.13 10.61-5.15 10.64-11.13 10.64-11.12-4.39-11.12-10.64zm16.58 0c0-3.26-2-5.79-5.46-5.79s-5.45 2.53-5.45 5.79 2 5.82 5.45 5.82 5.51-2.56 5.51-5.82z"/>
  <path d="m344 149h-5.55v-20.77h8.39c5.27 0 8.2 3.11 8.2 7.34a6.28 6.28 0 0 1-3.78 6l4.3 7.34h-6l-3.66-6.49h-1.9zm2.56-10.73c1.89 0 2.9-0.94 2.9-2.65s-1-2.65-2.9-2.65h-2.56v5.3z"/>
  <path d="m372.94 128.23h6l-6.88 9 7.71 11.77h-6.56l-4.93-7.52-1.74 2.13v5.39h-5.54v-20.77h5.55v8.59z"/>
 </g>
</svg>
