<svg width="800" height="189.63" version="1.1" viewBox="0 0 800 189.63" xml:space="preserve" xmlns="http://www.w3.org/2000/svg">
<polygon class="st0" transform="matrix(4.9383 0 0 4.9383 -93.827 -275.56)" points="153.8 60.2 175.9 58.7 176.9 61.8 174.8 65.6 161.5 81.5 159 82.4 148.8 82.2 130.9 82 125.1 65.6 127.1 61.8 139.8 58.3" fill="#fff"/>
<g fill="#003da6"><polygon class="st2" transform="matrix(4.9383 0 0 4.9383 -93.827 -275.56)" points="127.1 61.8 149.4 61.8 156.2 73.2 162.2 61.8 162.2 61.8 162.2 61.8 176.9 61.8 180.3 55.8 130.5 55.8"/><polygon class="st2" transform="matrix(4.9383 0 0 4.9383 -93.827 -275.56)" points="139.2 80.8 133.4 80.8 133.4 65.6 125.1 65.6 114.3 84.9 164 84.9 174.8 65.6 166.4 65.6 157.8 81.1 154.1 81.1 145 65.6 139.2 65.6"/></g>
<g fill="#161616"><path class="st1" d="m297.28 4.72e-6 -88.889 143.7h44.938l13.333-22.716h88.889l12.84 22.716h51.358l-83.951-143.7zm15.309 44.444 26.667 46.42h-54.815z" stroke-width="4.9383"/><polygon class="st1" transform="matrix(4.9383 0 0 4.9383 -93.827 -275.56)" points="31.9 55.8 19 55.8 19 84.9 27.7 84.9 27.7 64.3 39.8 84.9 43.8 84.9 55.8 64.3 55.8 84.9 58.9 84.9 64.6 75.9 64.6 55.8 51.6 55.8 41.8 73.4"/><polygon class="st1" transform="matrix(4.9383 0 0 4.9383 -93.827 -275.56)" points="89.2 55.8 106.3 84.9 112 84.9 128.1 55.8 118.5 55.8 109.5 73.1 99.3 55.8"/><g stroke-width="4.9383"><path class="st1" d="m0.49383 155.06h16.296l7.9012 22.222 7.4074-22.222h16.296v33.58h-10.37v-25.185h-0.49383l-8.8889 25.185h-9.3827l-8.3951-25.185v25.185h-10.864v-33.58z"/><path class="st1" d="m74.568 154.07c11.852 0 21.728 3.9506 21.728 17.778s-9.8766 17.778-21.728 17.778c-11.852 0-21.728-4.4444-21.728-17.778 0-13.333 10.37-17.778 21.728-17.778zm0 27.654c5.4321 0 9.8765-4.4444 9.8765-9.8765s-4.4444-9.8766-9.8765-9.8766c-4.9383-0.49382-9.3827 2.963-9.8765 7.9012v1.9753c-0.49383 5.4321 3.4568 9.8765 8.8889 9.8765 0.49383 0.49383 0.49383 0.49383 0.98765 0z"/><path class="st1" d="m98.272 155.06h35.556v7.9012h-12.346v25.679h-10.864v-25.679h-12.346z"/><path class="st1" d="m157.04 154.07c11.852 0 21.728 3.9506 21.728 17.778s-9.8765 17.778-21.728 17.778-21.728-4.4444-21.728-17.778c0-13.333 9.8766-17.778 21.728-17.778zm0 27.654c5.4321 0 9.8765-4.4444 9.8765-9.8765s-4.4444-9.8766-9.8765-9.8766-9.8766 4.4444-9.8766 9.8766 4.4444 9.8765 9.8766 9.8765z"/><path class="st1" d="m183.7 155.06h26.667c7.9012 0 11.358 3.4568 11.358 9.3827 0.49382 3.4568-1.9753 6.9136-5.4321 7.9012v0.49383c2.4691 0.98766 3.9506 3.4568 3.9506 5.9259 0 3.4568 0.49383 7.4074 1.9753 10.37h-12.346c-0.49382-1.4815-0.98765-2.963-0.98765-4.9383 0-5.4321-1.4815-5.9259-4.4444-5.9259h-9.8765v11.358h-11.358v-34.568zm10.864 14.815h10.864c1.9753 0.49383 3.9506-0.98766 3.9506-2.963v-0.98766c0-1.9753-1.4815-3.9506-3.9506-3.4568h-10.864z"/><path class="st1" d="m250.37 164.94c-0.49383-1.9753-1.9753-3.9506-7.4074-3.9506-3.4568 0-5.4321 0.98765-5.4321 3.4568 0 0.98765 0.98766 1.4815 2.4691 1.9753 2.963 0.49383 11.358 1.4815 14.321 1.9753 5.9259 0.98765 9.8765 3.4568 9.8765 9.3827 0 11.358-14.321 11.358-19.259 11.358-11.358 0-19.259-1.9753-20.247-11.358h12.84c0.49383 2.4691 1.4815 3.9506 7.9012 3.9506 2.963 0 5.9259-0.98765 5.9259-3.4568 0-1.4815-1.4815-2.4691-5.4321-2.963l-11.358-1.4815c-6.9136-0.98766-9.3827-4.4444-9.3827-9.3827s2.963-10.37 17.284-10.37c12.346 0 19.259 2.963 20.247 10.864 0.49383-0.49383-12.346 0-12.346 0z"/><path class="st1" d="m268.64 155.06h24.691c8.8889 0 12.84 4.9383 12.84 11.358 0.49383 5.9259-3.9506 10.864-9.3827 11.358h-15.802v11.358h-11.358zm11.358 15.309h9.8765c3.4568 0 4.4444-0.98766 4.4444-4.4444s-0.98766-3.9506-4.4444-3.9506h-9.8765z"/><path class="st1" d="m330.37 154.07c11.852 0 21.728 3.9506 21.728 17.778s-9.8766 17.778-21.728 17.778-21.728-4.4444-21.728-17.778c0-13.333 9.8765-17.778 21.728-17.778zm0 27.654c5.4321 0 10.37-4.4444 10.37-9.8765s-4.4444-10.37-9.8765-10.37-10.37 4.4444-10.37 9.8765c-0.49383 4.9383 2.963 9.3827 7.9012 9.8765 0.49383 0.98766 0.98766 0.98766 1.9753 0.49383z"/><path class="st1" d="m357.04 155.06h26.667c7.9012 0 11.358 3.4568 11.358 9.3827 0.49383 3.4568-1.9753 6.9136-5.4321 7.9012v0.49383c2.4691 0.98766 3.9506 3.4568 3.9506 5.9259 0 3.4568 0.49382 7.4074 1.9753 10.37h-12.346c-0.49383-1.4815-0.98766-2.963-0.98766-4.9383 0-5.4321-1.4815-5.9259-4.4444-5.9259h-9.8766v11.358h-11.358zm11.358 14.815h10.37c1.9753 0.49383 3.9506-0.98766 3.9506-2.963v-0.98766c0-1.9753-1.4815-3.9506-3.9506-3.4568h-10.864v7.4074z"/><path class="st1" d="m397.04 155.06h35.556v7.9012h-12.84v25.679h-11.358v-25.679h-12.84z"/><path class="st1" d="m458.77 164.94c-0.49383-1.9753-1.9753-3.9506-7.4074-3.9506-3.4568 0-5.4321 0.98765-5.4321 3.4568 0 0.98765 0.98765 1.4815 2.4691 1.9753 2.963 0.49383 11.358 1.4815 14.321 1.9753 5.9259 0.98765 9.8765 3.4568 9.8765 9.3827 0 11.358-14.321 11.358-19.259 11.358-11.358 0-19.259-1.9753-20.247-11.358h12.84c0.49382 2.4691 1.4815 3.9506 7.9012 3.9506 2.963 0 5.9259-0.98765 5.9259-3.4568 0-1.4815-1.4815-2.4691-5.4321-2.963l-11.358-1.4815c-6.9136-0.98766-9.3827-4.4444-9.3827-9.3827s2.963-10.37 17.284-10.37c12.346 0 19.259 2.963 20.247 10.864z"/></g><g stroke-width="4.9383"><path class="st1" d="m495.31 155.06h12.84l15.309 20.741h0.49383v-20.741h10.864v33.58h-12.84l-15.802-20.741h-0.49383v20.741h-10.864z"/><path class="st1" d="m541.23 155.06h33.58v7.4074h-22.222v5.9259h20.741v6.9136h-20.741v5.9259h22.222v7.4074h-33.58z"/><path class="st1" d="m576.3 155.06h35.556v7.9012h-12.84v25.679h-11.358v-25.679h-12.84z"/><path class="st1" d="m611.85 155.06h10.864l5.4321 22.716h0.49383l5.9259-22.716h9.3827l5.9259 22.716h0.49383l5.4321-22.716h10.864l-9.8766 33.086h-11.358l-5.4321-21.235h-0.98765l-5.4321 21.235h-10.864z"/><path class="st1" d="m688.4 154.07c11.852 0 21.728 3.9506 21.728 17.778s-9.8766 17.778-21.728 17.778-21.728-4.4444-21.728-17.778c0-13.333 9.8765-17.778 21.728-17.778zm0 27.654c5.4321 0 9.8765-4.4444 9.8765-9.8765s-4.4444-9.8766-9.8765-9.8766-9.8765 4.4444-9.8765 9.8766c-0.49383 4.9383 2.963 9.3827 7.9012 9.8765 0.49383 0.49383 1.4815 0.49383 1.9753 0z"/><path class="st1" d="m715.06 155.06h26.667c7.9012 0 11.358 3.4568 11.358 9.3827 0.49383 3.4568-1.9753 6.9136-5.4321 7.9012v0.49383c2.4691 0.98766 3.9506 3.4568 4.4444 5.9259 0 3.4568 0.49382 7.4074 1.9753 10.37h-12.346c-0.49383-1.4815-0.98766-2.963-0.98766-4.9383 0-5.4321-1.4815-5.9259-4.4444-5.9259h-9.8766v11.358h-11.358zm11.358 14.815h10.37c1.9753 0.49383 3.9506-0.98766 3.9506-2.963v-0.98766c0-1.9753-1.4815-3.9506-3.9506-3.4568h-10.864v7.4074z"/><path class="st1" d="m758.52 155.06h11.358v12.84l14.321-12.84h14.815l-14.815 12.84 15.802 20.741h-14.815l-10.37-13.333-4.9383 4.4444v8.8889h-11.358z"/></g></g>
</svg>
