<svg width="800" height="230.05" version="1.1" viewBox="0 0 211.67 60.867" xmlns="http://www.w3.org/2000/svg">
 <g transform="translate(25.239 -90.246)">
  <g fill="#a0a2a0">
   <path d="m-25.239 151.11h17.427v-44.048h10.001v44.048h17.371v-44.048h10.001v44.048h17.409v-46.36c0-9.7762-6.2039-14.495-16.412-14.495h-39.386c-10.19 0-16.412 4.7162-16.412 14.495z"/>
   <path d="m143.21 90.259c-10.509 0-16.093 5.6019-16.093 14.382v32.354c0 7.9899 4.6246 14.119 16.393 14.119h42.92v-16.488h-41.284v-27.692h41.04v-16.675z"/>
   <path d="m99.248 151.11c12.145 0 23.011-4.4178 23.011-16.187 0-11.618-9.5691-16.281-22.447-16.281v15.905h-25.812v-27.542h25.812v11.581c8.9863 0 18.8-3.6451 18.8-13.724 0-9.8886-7.5952-14.438-19.721-14.607-0.05862-0.01918-42.469 0-42.582 0v60.855z"/>
  </g>
 </g>
</svg>
