<svg width="639.23" height="800" version="1.1" viewBox="0 0 639.23 800" xmlns="http://www.w3.org/2000/svg">
 <g transform="matrix(1.7456 0 0 1.7456 -2061.9 0)">
  <path d="m1267.6 113.3c1.4038 2.1381 3.7453 3.4761 6.3 3.6h34.8c2.3 0 5.1-1.6 6.3-3.6l17.4-30.1c1.1-2 1.1-5.3 0-7.3l-17.4-30.1c-1.2-2-4-3.6-6.3-3.6h-34.8c-2.5501 0.1397-4.885 1.4739-6.3 3.6l-17.4 30.1c-1.1917 2.2874-1.1917 5.0126 0 7.3zm71.9-42.1c1.4038 2.1381 3.7453 3.4761 6.3 3.6h34.8c2.3 0 5.1-1.6 6.3-3.6l17.4-30.2c1.1-2 1.1-5.2 0-7.2l-17.4-30.1c-1.3813-2.1762-3.7266-3.5536-6.3-3.7h-34.8c-2.5638 0.17795-4.8958 1.5476-6.3 3.7l-17.4 30.1c-1.209 2.2478-1.209 4.9522 0 7.2zm54.4 11.9 17.4 30.1c1.2 2 4 3.6 6.3 3.6h34.8c2.3 0 5.1-1.6 6.2-3.6l17.4-30.1c1.2-2 1.2-5.3 0-7.3l-17.4-30.1c-1.3601-2.135-3.6716-3.4772-6.2-3.6h-34.8c-2.5501 0.1397-4.885 1.4739-6.3 3.6l-17.4 30.1c-1.1917 2.2874-1.1917 5.0126 0 7.3zm-97.4 191.6h-1l-47.5-159.6h-66.8l94.1 261.2h38.6l34.2-117.1-24.5-85.3z"/>
  <path d="m1480.5 115.1-48 159.6h-0.9l-42.4-159.6h-48.7l72.7 261.2h38.6l95.6-261.2z"/>
  <path d="m1505.8 376.4h4.7v9.1h8.1v-9.1h4.6v24.2h-4.6v-10.6h-8.1v10.6h-4.7zm-26.5 0h4.4l5.6 16.9 5.7-16.9h4.4l4.2 24.2h-4.5l-2.6-15.3-5.1 15.3h-4.1l-5.1-15.3-2.7 15.3h-4.5zm47.9 6.3h19.9l-11.6 14.1h11.7v3.8h-20.9l11.6-14.1h-10.7z"/>
  <path d="m1181.2 414.9h10.7l7.6 25.6h0.1l6.9-25.6h8l6.8 25.6h0.2l7.7-25.6h10.7l-15.3 41.9h-6.2l-7.8-27.2h-0.2l-7.9 27.2h-6.2zm59.2 21a22.3 22.3 0 0 1 22.3-22.4c11.9 0 22.2 9.4 22.2 22.3a21.9 21.9 0 0 1-22.2 22.4 22.4 22.4 0 0 1-22.3-22.3zm34.5 0.1c0-7.6-5.9-13.3-12.2-13.3-5.2 0-12.3 4.5-12.3 13.2 0 7.9 6 13.1 12.3 13.1 7.4 0 12.2-6.4 12.2-13zm16.7-21.1h9.2v3.7h0.2c1.9-2.7 3.8-5.1 9-5.1h0.8v9.8c-9.1 0.4-9.1 7.5-9.1 10v23.6h-10zm25-13.9h10.1v55.9h-10.1zm60.7 55.8h-9.2v-5.1h-0.2c-1.9 3-6.3 6.5-13.4 6.5a21.8 21.8 0 0 1-21.4-22.3 21.9 21.9 0 0 1 21.4-22.4c6.1 0 9.7 2.1 12.7 5.1v-17.7h10.1zm-21.7-7.8c7.6 0 12.4-6.8 12.4-13.1 0-6.9-5.3-13.2-12.4-13.2-7.5 0-12.4 7-12.4 12.8 0 7.8 5.9 13.5 12.4 13.5zm25.1-34.1h10.9l10.1 27.8h0.2l9.5-27.8h11l-17 41.9h-7.9zm46.1-13.9h10v9.2h-10zm0 13.9h10v41.9h-10zm27 25.5a12 12 0 0 0 11.6 8.6c4.4 0 7.8-1.9 9.7-5.3h10.6a21.8 21.8 0 0 1-20.2 14.6 22 22 0 0 1-22.1-22.2c0-11.8 9.1-22.7 22.1-22.7a22 22 0 0 1 21.1 27.1zm22.9-8.1a11.2 11.2 0 0 0-11.3-9.8c-3.7 0-10 2-11.9 9.8zm11.9-17.4h10.7l7.6 25.6h0.2l6.9-25.6h8l6.8 25.6h0.1l7.7-25.6h10.7l-15.3 41.9h-6.2l-7.9-27.2h-0.2l-7.9 27.2h-6.2z"/>
 </g>
</svg>
