<svg width="252.38" height="187.07" enable-background="new 0 0 250 184.69" version="1.1" viewBox="0 0 252.38 187.07" xml:space="preserve" xmlns="http://www.w3.org/2000/svg">
<path d="m0 0v187.07h252.38v-187.07z" color="#000000" color-rendering="auto" dominant-baseline="auto" enable-background="accumulate" fill="#fff" image-rendering="auto" shape-rendering="auto" solid-color="#000000" style="font-feature-settings:normal;font-variant-alternates:normal;font-variant-caps:normal;font-variant-ligatures:normal;font-variant-numeric:normal;font-variant-position:normal;isolation:auto;mix-blend-mode:normal;shape-padding:0;text-decoration-color:#000000;text-decoration-line:none;text-decoration-style:solid;text-indent:0;text-orientation:mixed;text-transform:none;white-space:normal"/><g transform="translate(1.1895 1.1895)">
	<path d="m0 0h250v184.69h-250z" fill="#231f20"/>
	<path d="m10.522 80.385h46.522v93.77h-46.522z" fill="#fff"/>
	<path d="m12.9 82.791h41.779v88.96h-41.779z" fill="#ed174c"/>
	<path d="m86.688 15.158v-5.563h-14.244l-2.512 15.251-3.79-15.251h-12.927v5.563h2.58v37.156h-2.58v5.55h10.831v-5.55h-2.607v-27.4l4.461 32.95h5.281l4.676-33.018v27.468h-2.565v5.55h13.396v-5.55h-2.565v-37.156" fill="#fff"/>
	<path d="m103.51 15.158h-2.566v37.156h5.133v-11.921h6.047v17.471h-22.011v-5.55h2.567v-37.156h-2.567v-5.563h13.397" fill="#fff"/>
	<path d="m133.57 9.595 5.698 6.168v13.894l-2.795 3.896 2.795 3.642v13.639l-6.209 7.029h-17.55v-5.549h2.553v-37.156h-2.553v-5.563m15.212 20.558v-14.995h-4.381v14.995zm0 22.161v-15.87h-4.381v15.871h4.381z" fill="#fff"/>
	<path d="m53.134 63.831h186.33v35.475h-186.33z" fill="#fff"/>
	<path d="m84.552 85.049h-0.564c-0.149-0.619-0.471-1.089-1.411-1.089h-8.749v4.381h15.091c0.511 0 0.713-0.242 0.847-1.411h0.564v8.17h-0.564c-0.134-0.792-0.336-1.034-0.847-1.034h-23.449v-0.564c1.183-0.094 1.317-0.417 1.317-0.847v-21.89c0-0.43-0.134-0.753-1.317-0.847v-0.564h23.449c0.511 0 0.713-0.242 0.847-1.317h0.564v8.169h-0.564c-0.134-1.075-0.336-1.317-0.847-1.317h-15.09v3.911h8.749c0.94 0 1.262-0.47 1.411-1.087h0.564" fill="#004684"/>
	<path d="m97.077 94.065v-0.564c0.322 0 0.604-0.229 1.075-0.794l9.406-11.18-8.748-11.005c-0.417-0.511-0.793-0.604-1.075-0.604v-0.564h10.992v0.564c-0.752 0.041-1.128 0.134-1.128 0.604 0 0.336 3.856 4.703 4.327 5.362 0.698-0.94 4.314-4.932 4.314-5.362 0-0.511-0.605-0.604-0.981-0.604v-0.564h10.764v0.564c-0.511 0.041-0.94 0.283-1.182 0.564l-8.641 10.71 9.541 12.082c0.189 0.229 0.511 0.229 0.847 0.229v0.564h-10.992v-0.564c0.457 0 0.887 0 0.887-0.229 0-0.525-2.674-3.857-4.649-6.437-0.658 0.94-5.026 5.496-5.026 6.154 0 0.511 0.752 0.511 1.129 0.511v0.564" fill="#004684"/>
	<path d="m139.22 94.065v-0.564c1.17-0.094 1.305-0.417 1.305-0.847v-17.564h-8.078c-0.511 0-0.698 0.229-0.847 1.305h-0.563v-8.359h0.563c0.148 1.075 0.336 1.317 0.847 1.317h23.208c0.524 0 0.712-0.242 0.847-1.317h0.563v8.359h-0.563c-0.135-1.075-0.322-1.305-0.847-1.305h-8.076v17.564c0 0.43 0.135 0.753 1.317 0.847v0.564" fill="#004684"/>
	<path d="m171.52 92.654c0 0.43 0.135 0.753 1.317 0.847v0.564h-9.676v-0.564c1.17-0.094 1.305-0.417 1.305-0.847v-21.89c0-0.43-0.135-0.753-1.305-0.847v-0.564h17.188c6.962 0 9.918 2.445 9.918 7.793 0 4.328-2.821 6.626-6.72 7.713l5.549 7.794c0.418 0.619 0.835 0.847 1.358 0.847v0.564h-9.77v-0.564c0.646-0.041 1.021-0.283 1.021-0.847 0-0.417-4.973-6.907-5.59-7.888h-4.597m2e-3 -4.985h7.889c2.78 0 3.615-1.223 3.615-2.579 0-1.372-0.835-2.581-3.615-2.581h-7.889z" fill="#004684"/>
	<path d="m206.03 88.717c-1.224 3.426-1.507 4.031-1.507 4.313 0 0.281 0.189 0.471 0.848 0.471v0.564h-8.318v-0.564c0.659-0.135 0.94-0.324 1.224-1.075 0.43-1.089 8.371-21.756 8.371-22.039 0-0.336-0.523-0.43-0.94-0.47v-0.564h12.257v0.564c-0.512 0.041-0.835 0.134-0.835 0.604 0 0.376 5.779 14.433 8.683 21.568 0.47 1.128 0.751 1.411 1.315 1.411v0.564h-9.259v-0.564c0.659-0.041 0.901-0.283 0.901-0.564 0-0.189-1.41-3.616-1.6-4.22m-9.957-3.761h8.733l-4.554-11.182z" fill="#004684"/>
	<path d="m80.857 106.51h-13.626l-2.795 2.795v1.305l-1.21-4.1h-14.795l-2.795 2.795v6.451h3.225v40.395l-3.225 2.796v6.449h13.626l2.795-2.795v-6.45h-3.292v-14.097l6.558 23.342h9.582l2.795-2.795v-46.845l3.158-2.781m-13.197 2.781v5.818l-1.707-5.818z" fill="#231f20"/>
	<path d="m43.056 95.289v-6.464h-16.851l-2.796 2.795v6.463h3.225v58.065l-3.225 2.796v6.45h16.865l2.782-2.795v-6.451h-3.226v-58.065" fill="#231f20"/>
	<path d="m80.857 112.97v-6.465h-13.626v6.465h3.225v18.073l-7.23-24.538h-14.795v6.465h3.225v43.175h-3.225v6.451h13.626v-6.451h-3.292v-26.822l9.353 33.273h9.581v-49.626" fill="#fff"/>
	<path d="m117.74 112.97v-6.465h-13.641v6.465h3.239v18.073l-7.23-24.538h-14.795v6.465h3.225v43.175h-3.225v6.451h13.626v-6.451h-3.292v-26.822l9.34 33.273h9.594v-49.626" fill="#fff"/>
	<path d="m176.67 112.97v-6.465h-13.625v6.465h3.225v18.073l-7.23-24.538h-14.795v6.465h3.238v43.175h-3.238v6.451h13.639v-6.451h-3.306v-26.822l9.354 33.273h9.581v-49.626" fill="#fff"/>
	<path d="m139.81 106.51v6.465h-3.227v43.175h3.227v6.451h-16.852v-6.451h3.225v-43.175h-3.225v-6.465" fill="#fff"/>
	<path d="m43.056 88.825v6.464h-3.226v60.859h3.226v6.451h-16.851v-6.451h3.225v-60.859h-3.225v-6.464" fill="#fff"/>
	<path d="m209.03 141.15v-6.451h-14.567v6.451h3.025v14.997h-4.812v-43.175h4.812v15.561h8.815v-22.026h-4.153l-1.519 2.151h-0.645l-1.505-2.151h-9.675l-6.531 6.679v42.895l6.531 6.517h8.251l2.795-1.721 1.72 1.721h4.731v-21.448" fill="#fff"/>
	<path d="m215.52 114.12 6.451-7.607h7.457l2.149 1.935 1.507-1.935h4.743v20.87h-7.257v-14.405h-5.804v16.999h6.811l7.459 7.389v17.646l-6.449 7.592h-8.104l-2.231-1.856-1.505 1.856h-4.73v-20.802h7.243v14.351h6.53v-16.635h-6.826l-7.444-7.54" fill="#fff"/>
	<path d="m61.237 171.75h178.23v2.404h-178.23z" fill="#fff"/>
	<path d="m157.09 57.622c-4.019 0-7.283-3.253-7.283-7.27v-33.368c0-4.017 3.265-7.27 7.283-7.27h74.594c4.019 0 7.27 3.253 7.27 7.27v33.368c0 4.017-3.251 7.27-7.27 7.27" fill="#fff"/>
	<path d="m235.11 13.558c-0.914-0.914-2.138-1.411-3.428-1.411h-20.856l12.001 20.009 1.089 0.134 0.646 0.914v0.873l0.779 0.135 0.685 0.967v0.821l0.779 0.134s0.78 0.82 0.78 0.859v1.881s1.693 1.547 3.197 2.138c1.049 0.417 1.184 2.109 1.788 3.023 0.82 1.276 1.922 1.828 1.68 2.553-0.538 1.962-2.554 5.254-4.422 5.443h-7.404v3.172h9.259c2.675 0 4.851-2.178 4.851-4.851v-33.368c-1e-3 -1.289-0.512-2.512-1.424-3.426" fill="#ed174c"/>
	<path d="m203.72 12.147h-46.629c-1.29 0-2.514 0.497-3.428 1.411-0.927 0.914-1.423 2.137-1.423 3.426v33.368c0 1.289 0.496 2.512 1.423 3.426 0.914 0.914 2.138 1.425 3.428 1.425h30.29c-0.753-1.264-1.614-2.716-1.883-3.145h-3.602c0-8.949 3.052-13.935 6.665-14.902 0.499-0.096 0.269-2.555-0.375-3.293 0 0-1.734 0.055-2.097-0.041-0.458-0.134-0.134-0.59-0.134-0.59l1.679-3.654-0.228-1.009h-6.262c-0.082 0 5.173-3.614 5.173-3.614 0.269-9.501 9.997-10.24 15.896-6.317 3.467 2.339 3.75 6.907 3.467 10.105-0.04 0.175-0.914 0.041-0.914 0.041s-0.59 3.481 0.97 3.481l6.852-0.014c2.796-0.094 5.482 1.787 5.482 1.787l0.687-2.378m-56.493 16.676c-1.84 0-3.332-1.492-3.332-3.333 0-1.842 1.492-3.334 3.332-3.334 1.841 0 3.333 1.492 3.333 3.334 0 1.841-1.493 3.333-3.333 3.333z" fill="#004684"/>
</g>
</svg>
