<!DOCTYPE svg  PUBLIC '-//W3C//DTD SVG 1.1//EN'  'http://www.w3.org/Graphics/SVG/1.1/DTD/svg11.dtd'>
<svg width="1e3px" height="171.15px" enable-background="new -193.999 310.277 1000 171.153" version="1.1" viewBox="-194 310.28 1e3 171.15" xml:space="preserve" xmlns="http://www.w3.org/2000/svg">
	<path d="m-105.16 477.51-10.709-133.55-34.065 88.773c-2.502 5.582-4.092 11.527-4.709 17.613 0 8.988 5.14 13.483 15.42 13.483h2.451l-4.064 13.42h-53.161l4.129-13.42c8.989-0.472 16.903-9.764 23.742-27.87l32.968-85.936c1.462-3.228 2.399-6.67 2.774-10.193 0-7.656-6-11.484-18-11.484l4.129-13.226h64.064l8.903 116.13 78-116.13h62.645l-4.065 13.226c-5.659-0.609-11.351 0.809-16.065 4-4.128 5.108-6.862 11.199-7.935 17.678l-23.161 89.355c-1.277 4.209-2.163 8.528-2.645 12.902 0 7.677 5.42 11.548 16.322 11.548h2.259l-4.066 13.421h-80.645l4.129-13.42c6.319 0.423 12.564-1.559 17.484-5.548 3.948-4.934 6.628-10.76 7.806-16.969l25.097-97.74-89.354 133.94h-19.678z" fill="#4AC5F2"/>
	<path d="m229.03 396.09c0.121 14.653-3.522 29.093-10.58 41.935-7.24 13.108-18.073 23.874-31.226 31.033-14.99 8.133-31.854 12.181-48.903 11.742-13.888 0.282-27.69-2.242-40.581-7.42-10.916-4.453-20.702-11.286-28.645-20-7.17-7.98-12.734-17.268-16.387-27.355-3.509-9.569-5.321-19.678-5.355-29.871-0.076-14.423 3.45-28.638 10.259-41.354 7.045-13.132 17.73-23.953 30.773-31.161 15.032-8.211 31.975-12.285 49.097-11.807 15.219-0.429 30.347 2.478 44.322 8.516 11.021 4.828 20.747 12.189 28.387 21.484 6.497 8.075 11.441 17.284 14.581 27.162 2.769 8.767 4.206 17.901 4.258 27.096zm-38.709-0.452c4e-3 -8.661-0.817-17.302-2.452-25.806-1.441-7.801-4.236-15.291-8.258-22.129-3.869-6.575-9.412-12.007-16.064-15.742-7.759-4.102-16.455-6.104-25.226-5.806-11.654-0.709-23.154 2.948-32.257 10.258-7.727 6.82-13.214 15.814-15.742 25.806-2.853 10.995-4.242 22.319-4.129 33.677 0.026 7.01 0.479 14.012 1.354 20.968 1.04 7.738 3.213 15.281 6.452 22.387 3.502 7.807 9.082 14.502 16.129 19.354 8.459 5.569 18.462 8.324 28.581 7.871 10.062 0.519 20.009-2.344 28.258-8.13 6.963-5.05 12.426-11.896 15.807-19.806 3.214-7.113 5.387-14.653 6.452-22.387 0.807-6.744 1.217-13.53 1.225-20.322l-0.13-0.193z"/>
	<path d="m391.94 325.84c-3.415-9e-3 -6.811 0.513-10.065 1.548-2.697 0.867-5.121 2.424-7.032 4.516-2.164 2.537-4.007 5.333-5.482 8.323-1.872 3.483-4.389 9.033-7.679 16.58l-53.031 123.61h-11.097l-55.483-129.87c-2.303-5.748-4.998-11.331-8.064-16.71-1.75-2.962-4.458-5.239-7.678-6.452-4.613-1.419-9.437-2.03-14.257-1.806v-10.709h82.838v11.032c-5.498 0.011-10.975 0.661-16.323 1.936-3.024 0.891-4.961 3.838-4.581 6.968 0.085 4.108 1.101 8.145 2.968 11.806l37.484 87.032 34.58-81.225c2.262-4.588 3.765-9.512 4.452-14.581 0-5.226-1.807-8.451-5.421-9.678-5.261-1.512-10.72-2.229-16.192-2.128v-11.161h60.258v10.967h-0.195z"/>
	<path d="m482.52 477.51h-82.452v-11.033c5.277 0.235 10.555-0.419 15.614-1.936 3.043-0.899 5.556-3.061 6.903-5.936 1.279-3.621 1.849-7.453 1.677-11.29v-102.32c0.555-5.351-1.021-10.706-4.387-14.903-2.968-2.903-9.484-4.323-19.742-4.323v-10.967h82.451v11.032c-5.28-0.234-10.563 0.442-15.612 2-3.021 0.943-5.52 3.09-6.904 5.935-1.225 3.611-1.77 7.417-1.612 11.226v102.39c-0.146 3.698 0.379 7.393 1.548 10.903 1.168 2.948 3.503 5.285 6.451 6.451 5.141 1.669 10.538 2.391 15.937 2.129v10.969l0.128-0.322z"/>
	<path d="m639.68 423.96-1.291 53.55h-144.97v-11.033c10 0 16.388-1.483 19.355-4.322 3.357-4.175 4.913-9.515 4.322-14.839v-102.32c0.141-3.684-0.317-7.366-1.354-10.902-1.195-2.859-3.536-5.083-6.451-6.129-5.06-1.727-10.404-2.471-15.743-2.194v-10.967h135.03l2.131 42.257h-11.099c-1.465-7.23-4.36-14.096-8.516-20.193-2.692-3.675-6.563-6.315-10.968-7.483-6.003-1.064-12.098-1.52-18.193-1.355h-30.58v57.483h16.581c4.353 0.2 8.709-0.3 12.902-1.483 2.698-0.934 4.848-3.012 5.871-5.677 1.367-4.171 2.128-8.516 2.259-12.903h11.548v53.871h-11.291c-0.041-4.635-0.916-9.224-2.58-13.548-1.095-2.703-3.306-4.797-6.064-5.743-4.199-1.15-8.554-1.631-12.903-1.418h-16.839v38.258c0 6.451 0 11.097 0.451 14.064 0.217 2.612 1.106 5.124 2.582 7.291 1.721 2.163 4.136 3.668 6.839 4.257 4.415 1.042 8.949 1.498 13.483 1.354h12.903c5.341 0.013 10.659-0.702 15.807-2.129 6.101-1.898 11.449-5.667 15.29-10.773 5.714-8.074 9.207-17.506 10.129-27.354h11.29l0.066 0.383z"/>
	<path d="m766.64 430.87c-0.101 5.489-1.217 10.915-3.291 16-2.286 5.925-5.559 11.422-9.678 16.257-4.536 5.416-10.164 9.813-16.515 12.904-7.206 3.354-15.086 5.009-23.032 4.838-8.902-0.026-17.698-1.94-25.808-5.613-8.488-3.734-15.931-9.494-21.677-16.773-2.32 5.251-3.948 10.78-4.838 16.451h-11.033v-56.258h11.033c1.932 7.812 4.723 15.384 8.321 22.581 3.554 7.098 8.644 13.313 14.903 18.193 6.796 5.205 15.187 7.896 23.742 7.613 7.034 0.365 13.946-1.938 19.354-6.451 4.823-4.297 7.493-10.513 7.29-16.969 0.082-3.488-0.693-6.944-2.258-10.063-1.584-3.005-3.783-5.643-6.451-7.742-3.705-2.788-7.656-5.228-11.807-7.291-5.032-2.646-10.71-5.355-17.161-8.194-8.534-3.871-16.659-8.581-24.258-14.064-5.435-3.838-10.264-8.47-14.323-13.741-2.85-3.915-5.029-8.275-6.451-12.903-1.239-3.924-1.87-8.014-1.871-12.129 0.083-7.567 2.104-14.986 5.872-21.548 4.116-7.237 10.084-13.249 17.289-17.419 7.983-4.492 17.038-6.722 26.193-6.452 7.526-0.026 14.951 1.72 21.677 5.097 6.856 3.36 12.941 8.105 17.872 13.936 1.792-4.563 3.109-9.297 3.935-14.129h11.291v45.161h-11.548c-7.958-24.731-21.872-37.096-41.743-37.096-6.283-0.286-12.454 1.733-17.354 5.677-4.261 3.678-6.632 9.083-6.451 14.709-0.104 4.454 1.332 8.806 4.064 12.323 2.952 3.684 6.617 6.734 10.773 8.968 4.302 2.495 11.484 6.043 21.548 10.646 9.635 4.418 19.024 9.351 28.131 14.773 6.668 4.083 12.494 9.405 17.16 15.677 4.838 6.685 7.334 14.782 7.1 23.031z"/>
	<path d="m806 462.74c0.096 5.012-1.916 9.834-5.548 13.29-7.37 7.203-19.145 7.203-26.516 0-3.632-3.456-5.646-8.278-5.55-13.29-0.121-5.049 1.839-9.926 5.421-13.483 3.471-3.649 8.319-5.665 13.354-5.55 5.035-0.087 9.887 1.896 13.42 5.484 3.578 3.588 5.536 8.483 5.419 13.549zm-2.838-134.39c0.108 2.149 0.108 4.302 0 6.452 0 1.936-0.516 5.161-0.968 9.484l-9.355 78.58h-10.773l-9.355-78.58c-0.675-5.374-1.063-10.779-1.16-16.194-0.431-4.985 1.337-9.909 4.838-13.483 6.37-5.776 16.083-5.776 22.451 0 3.276 3.786 4.841 8.76 4.322 13.741z" fill="#4AC5F2"/>
</svg>
