<svg width="1001" height="162.53" version="1.0" xmlns="http://www.w3.org/2000/svg">
 <link href="" rel="stylesheet" type="text/css"/>
 <style type="text/css"/>
 <g transform="translate(199.02 -1099.7)">
  <g transform="matrix(.99581 0 0 .99581 -1.3305 5.7895)">
   <g transform="matrix(.86165 0 0 .85467 -205.82 1110.1)">
    <path d="m151.47 30.834c-4.44-11.061-15.258-23.008-35.521-21.367-25.809 2.799-33.854 27.476-29.953 42.197-10.28-6.944-27.759-9.998-43.017 3.04-19.7 19.7-9.164 46.342 1.668 52.733-11.935-1.103-30.799 6.943-34.972 27.988-4.44 26.13 15.528 41.363 34.972 41.363h215.6c22.484 0 34.958-19.403 33.559-37.703-2.207-23.883-24.114-33.047-36.062-31.083 9.984-5.557 23.318-31.66 3.041-52.182-16.093-15.272-36.612-9.715-43.825-3.054 3.888-12.757-2.489-39.129-28.593-43.301-1.803-0.201-3.54-0.31-5.196-0.31-19.928 3e-3 -28.888 14.534-31.701 21.679" fill="#fff"/>
    <path d="m46.569 58.862c-11.382 10.28-15.527 33.572 4.993 47.188l81.863 56.028-39.693-90.716c-8.317-21.407-31.07-26.076-47.163-12.5" fill="#f37021"/>
    <path d="m117.04 14.755c-13.308 0.27-33.289 16.079-24.395 40.218l41.052 96.585 14.424-101.59c3.338-25.243-15.809-36.896-31.081-35.214" fill="#cc004c"/>
    <path d="m154.52 46.094h7.763s4.145 0 4.708 1.951c-3.054 2.489-11.368 2.8-10.266 16.093l13.051 87.406 40.771-96.839c8.341-21.622-9.165-39.68-24.692-40.232-0.726-0.053-1.453-0.095-2.206-0.095-13.939 0-29.909 10.106-29.129 31.716" fill="#6460aa"/>
    <path d="m208.91 72.184-38.564 89.628 81.836-56.324c18.866-13.348 15.824-34.689 5.263-45.238-4.428-4.965-12.555-8.8-21.165-8.8-10.174-2e-3 -21.059 5.381-27.37 20.734" fill="#0089d0"/>
    <path d="m243.02 118.24-76.856 53.554h94.632c19.415 0 31.89-19.97 26.345-38.296-3.714-11.518-14.707-20.56-27.463-20.573-5.369 1e-3 -11.062 1.615-16.658 5.315" fill="#0db14b"/>
    <path d="m44.363 171.8h93.234l-76.873-53.554c-17.761-11.384-37.729-4.723-44.94 14.167-6.11 21.625 9.149 39.387 28.579 39.387" fill="#fcb711"/>
   </g>
   <g transform="matrix(5.5565 0 0 5.5565 -982.43 -1264.4)" font-family="Gotham" font-size="40px" font-weight="bold" letter-spacing="0px" word-spacing="0px">
    <path d="m216.17 453.82v-28h-6.6394l-7.3608 11.841-7.3596-11.841h-6.6394v28h6.0388v-18.16l7.8003 11.841h0.15991l7.8809-11.96v18.28z"/>
    <path d="m240.26 445.54v-0.0806c-2e-5 -1.2264-0.1933-2.2796-0.57983-3.1598-0.38658-0.88011-0.9599-1.6467-1.72-2.2998-0.76011-0.65306-1.6935-1.213-2.8003-1.6797s-2.3666-0.88683-3.7793-1.2604c-1.2004-0.31981-2.1938-0.59975-2.9804-0.83984-0.78655-0.24006-1.4065-0.49335-1.8597-0.75989-0.4533-0.2665-0.76661-0.56639-0.93994-0.89966-0.17335-0.33323-0.26002-0.7265-0.26001-1.1798v-0.0806c-1e-5 -0.69334 0.29988-1.2734 0.89966-1.7401 0.59976-0.46669 1.4998-0.70005 2.7002-0.70007 1.1995 2e-5 2.3993 0.24681 3.5992 0.74036 1.1999 0.49359 2.4269 1.1668 3.681 2.0196l3.1995-4.6399c-1.4396-1.1466-3.0196-2.0266-4.74-2.6398-1.7204-0.61317-3.6072-0.91977-5.6604-0.9198-1.4396 3e-5 -2.7594 0.20002-3.9594 0.59997-1.2 0.40001-2.2333 0.97334-3.1 1.72-0.8667 0.74669-1.5401 1.6333-2.0203 2.6599-0.48015 1.0266-0.72022 2.18-0.72022 3.4601v0.0793c0 1.3867 0.21993 2.5468 0.65979 3.4802 0.43986 0.93345 1.06 1.7135 1.8604 2.3401 0.80036 0.62664 1.7739 1.1534 2.9205 1.5802 1.1466 0.42685 2.4263 0.81361 3.8391 1.1603 1.1735 0.29298 2.1269 0.57272 2.8601 0.83923 0.73322 0.26653 1.3065 0.53325 1.72 0.80017 0.41339 0.26694 0.69354 0.5536 0.84045 0.85998 0.14688 0.30641 0.22032 0.6598 0.22034 1.0602v0.0806c-2e-5 0.82602-0.35341 1.4724-1.0602 1.9391-0.7068 0.46672-1.7002 0.70008-2.9804 0.70007-1.6 1e-5 -3.0733-0.30659-4.4202-0.9198-1.3468-0.61319-2.6599-1.4398-3.9392-2.4799l-3.6401 4.3604c1.6797 1.5194 3.5461 2.6459 5.5994 3.3795s4.1467 1.1005 6.2805 1.1005c1.5202 0 2.9069-0.19349 4.1602-0.58045 1.2532-0.38696 2.3332-0.94706 3.2397-1.6803 0.90656-0.73323 1.6131-1.6398 2.1198-2.7197 0.50656-1.0799 0.75986-2.3132 0.75988-3.7z"/>
    <path d="m267.61 453.82v-28h-6.0803v17.24l-13.119-17.24h-5.6799v28h6.0791v-17.8l13.561 17.8z"/>
    <path d="m295.16 446.14v-0.0806c-2e-5 -1.8669-0.46653-3.3268-1.3995-4.3799-0.93305-1.053-2.213-1.8864-3.8397-2.5 0.50616-0.26691 0.97938-0.58694 1.4197-0.96008 0.44025-0.37311 0.82701-0.80646 1.1603-1.3 0.33323-0.49355 0.59995-1.0469 0.80017-1.6602 0.20017-0.61318 0.30027-1.3198 0.3003-2.1198v-0.0806c-3e-5 -2.2127-0.82014-3.9726-2.4603-5.2795-1.6402-1.3069-3.9004-1.9604-6.7804-1.9604h-12.999v28h13.319c1.5739 0 3.0074-0.15992 4.3005-0.47974s2.3997-0.79976 3.3197-1.4398c0.91997-0.64005 1.6266-1.4402 2.1198-2.4005 0.49313-0.96028 0.73972-2.0801 0.73974-3.3594zm-7.6794-11.96c-2e-5 1.0401-0.4 1.7934-1.2 2.2601-0.79999 0.46674-1.8799 0.70009-3.2398 0.70008h-5.6799v-5.9204h6.0791c1.307 2e-5 2.3071 0.2466 3.0005 0.73974 0.69334 0.49319 1.04 1.2065 1.04 2.1399zm1.5601 11.2c-2e-5 1.04-0.38678 1.8066-1.1603 2.2998-0.77354 0.49317-1.8402 0.73975-3.2001 0.73974h-7.3193v-6.1597h7.1191c1.5999 1e-5 2.76 0.27345 3.4802 0.82031 0.72019 0.54688 1.0803 1.2866 1.0803 2.2192z"/>
    <path d="m321.9 449.3-3.9197-3.96c-1.0938 1.0132-2.194 1.8132-3.3008 2.3999-1.1068 0.58676-2.4602 0.88014-4.0601 0.88013-1.1996 1e-5 -2.2994-0.23335-3.2996-0.70007-1.0002-0.46671-1.8536-1.1-2.5604-1.9-0.7068-0.79996-1.2602-1.7332-1.6602-2.7997s-0.59999-2.1999-0.59998-3.4003v-0.0793c-1e-5 -1.2004 0.19998-2.3273 0.59998-3.3807 0.39997-1.0534 0.96007-1.9802 1.6803-2.7802 0.72021-0.79995 1.5802-1.4266 2.58-1.8799 0.99974-0.45326 2.0864-0.6799 3.2599-0.67993 1.4136 3e-5 2.687 0.27997 3.8202 0.83985 1.1332 0.55991 2.2467 1.3334 3.3404 2.3206l3.9197-4.5203c-0.63968-0.63962-1.3328-1.2262-2.0795-1.7596-0.74669-0.53343-1.5601-0.98692-2.4402-1.3605-0.88015-0.37351-1.8602-0.66688-2.9401-0.88013-1.0799-0.21318-2.2734-0.31979-3.5803-0.31982-2.1598 3e-5 -4.1331 0.38007-5.9198 1.1401-1.7867 0.76012-3.3201 1.8002-4.6002 3.1201-1.2801 1.32-2.2801 2.8534-2.9999 4.6002-0.71981 1.7468-1.0797 3.62-1.0797 5.6195v0.0806c0 1.9995 0.3599 3.8794 1.0797 5.6396 0.71981 1.7603 1.7198 3.287 2.9999 4.5801s2.8001 2.313 4.5599 3.0597c1.7598 0.74666 3.6664 1.12 5.7196 1.12 1.3607 0 2.5877-0.11332 3.681-0.33996 1.0933-0.22665 2.1-0.5599 3.02-0.99976 0.91998-0.43986 1.7665-0.96659 2.5397-1.5802 0.77309-0.6136 1.5198-1.307 2.24-2.0801z"/>
   </g>
  </g>
 </g>
</svg>
