<svg width="1e3" height="1e3" enable-background="new -194 -104 1000 1000" space="preserve" version="1.1" viewBox="-194 -104 1e3 1e3" xmlns="http://www.w3.org/2000/svg">
 <link href="" rel="stylesheet" type="text/css"/>
 <style type="text/css"/>
 <path d="m768.21-104h-924.44c-20.855 0-37.77 16.917-37.77 37.769v924.46c0 20.852 16.915 37.77 37.77 37.77h924.46c20.854 0 37.77-16.918 37.77-37.77v-924.46c-0.018-20.852-16.915-37.769-37.789-37.769zm-107.52 102.91c15.316 9.183 30.21 18.117 45.437 27.248v22.664c0 23.188-0.191 46.375 0.139 69.563 0.07 5.574-1.446 9.982-5.123 13.832-13.081 13.727-24.649 28.674-35.779 44.004-1.115 1.533-2.579 2.788-4.673 5.001-1e-3 -61.41-1e-3 -121.62-1e-3 -182.31zm-452.78 1.447c9.493 4.163 18.954 8.361 28.465 12.491 15.89 6.881 31.793 13.763 47.733 20.523 6.744 2.855 8.414 4.023 13.031 10.678-2.928 5.138-7.838 8.675-11.844 12.997-3.888 4.18-8.066 8.083-12.684 12.664-21.811-22.856-43.622-45.695-65.416-68.551 0.225-0.279 0.472-0.541 0.715-0.802zm-302.25-0.558c7.855-1.533 209.49-2.125 273.3-0.801 9.927 10.609 20.293 21.757 30.761 32.82 5.073 5.35 10.368 10.471 15.473 15.785 13.778 14.32 27.524 28.674 41.235 43.063 1.985 2.09 3.73 4.425 5.939 7.073 1.742-1.654 3.102-2.875 4.394-4.198 17.785-18.431 35.569-36.845 53.305-55.329 9.984-10.399 19.878-20.886 29.773-31.393 2.215-2.352 4.218-4.912 6.532-7.647h275.81v7.526c0 65.224-0.05 130.45 0.104 195.67 0.018 5.156-1.218 9.582-3.885 13.709-15.171 23.554-27.228 48.76-39.073 74.039-5.54 11.811-9.634 24.286-14.497 36.41-1.393 3.485-3.028 6.899-4.913 10.14-1.514 2.578-3.517 4.65-7.122 4.617-5.139-0.035-6.726-0.767-8.59-5.609-0.852-2.23-1.652-4.565-1.915-6.917-0.786-7.229-1.099-14.528-1.933-21.757-0.768-6.638-2.06-13.207-2.98-19.809-0.697-5.052-1.255-10.14-1.742-15.208-0.973-9.877-3.275-19.372-6.272-28.868-3.812-12.071-12.073-18.692-23.799-19.546-15.05-1.097-32.992 6.342-37.418 26.131-2.28 10.191-0.802 19.756 1.393 29.406 5.386 23.711 14.063 46.358 22.807 68.988 8.066 20.887 15.694 41.932 23.656 62.871 3.607 9.478 7.422 18.868 11.357 28.205 6.359 15.087 23.504 20.452 37.944 17.16 2.333-0.541 4.65-1.15 6.916-1.898 8.973-2.945 12.666-10.732 15.522-18.502 4.424-11.969 7.699-24.354 11.674-36.497 6.46-19.738 13.062-39.423 19.664-59.109 0.489-1.446 1.412-2.753 2.805-5.365v157.5c-6.808 1.29-147.78 1.794-170.67 0.627-2.804-6.638-1.723-13.763-2.682-20.627-2.785-20.068-1.864-40.26-0.854-60.259 0.82-16.306 1.083-32.577 0.803-48.831-0.212-13.152-0.56-26.428-2.858-39.493-0.052-0.261-0.019-0.54-0.019-0.818-0.61-11.9-0.747-23.85-1.985-35.677-1.254-11.917-1.306-23.799-1.184-35.732 0.034-2.647 0.765-5.279 0.957-7.943 0.193-2.7 0.369-5.419 0.104-8.102-0.346-3.709-1.099-7.404-1.723-11.358 10.05-5.923 19.72-11.654 29.423-17.316 16.22-9.494 32.768-18.431 48.013-29.545 4.722-3.449 8.468-7.561 10.572-12.996 1.849-4.773 1.797-9.808-1.062-13.99-11.253-16.479-31.969-18.972-45.678-6.619-4.232 3.815-8.655 7.42-12.662 11.445-7.146 7.213-16.237 11.533-24.584 16.934-7.195 4.668-14.877 8.57-22.472 12.892-9.807-5.958-20.888-6.132-31.567-4.059-9.061 1.759-18.081 9.512-16.811 20.696 0.313 2.7 0.398 5.505 0 8.169-0.68 4.775-1.743 9.216-6.795 11.952-7.088 3.814-13.677 8.553-20.607 12.646-13.171 7.788-26.604 15.158-39.617 23.206-12.628 7.804-25.955 13.85-40.209 17.839-6.688 1.882-12.437 5.018-16.915 10.383-4.617 5.523-6.097 11.272-3.865 18.606 3.169 10.434 9.456 17.125 19.563 20.731 4.528 1.62 8.989 1.428 13.501 0.313 6.826-1.689 13.084-4.635 18.761-8.833 12.354-9.128 24.634-18.361 37.161-27.229 9.635-6.829 19.615-13.188 29.442-19.79 3.325-2.229 7.021-2.474 10.868-2.509 4.32-0.053 7.059 1.708 8.866 5.662 1.693 3.711 3.119 7.387 3.119 11.532-0.051 26.742 0.417 53.5-0.435 80.223-0.294 9.147-0.246 18.449-1.515 27.507-1.689 12.195-0.229 24.477-1.709 36.533-1.741 14.128-0.801 28.205-1.01 42.297-0.087 5.889 0.838 11.794 1.255 17.7 0.088 1.324 0.018 2.647 0.018 4.374h-45.451v-137.96c-29.705 24.425-57.769 48.71-86.375 72.507-28.309-23.833-56.687-47.717-84.979-71.531-0.296 0.262-0.54 0.418-0.678 0.627-0.142 0.209-0.277 0.47-0.277 0.713-0.02 45.018-0.02 90.016-0.02 134.77-0.436 0.453-0.591 0.696-0.819 0.838-0.209 0.138-0.486 0.26-0.731 0.26-93.026 0.019-186.06 0.019-279.8 0.019-0.034-164.98-0.034-329.22-0.034-493.45zm435.3 409.48c1.17 8.623-1.045 15.539-9.897 20.018h-30.344c13.59-11.48 26.112-22.073 39.407-33.292 0.362 1.987 0.712 3.136 0.745 4.303 0.089 2.997-0.311 6.028 0.089 8.971zm-253.96 394.12h-182.16v-239.22h66.304v181.13h115.85v58.098zm105.26 0h-66.636v-239.22h66.636zm13.343-407.51c12.875 10.802 25 20.992 37.003 31.062v66.043h-37.003v-97.105zm181.44 409.22h-61.514l-97.052-240.93h74.159l54.339 151.39 54.337-151.39h72.785zm319.54-1.708h-193.77v-239.22h192.06v56.392h-126.78v36.217h114.82v52.28h-114.82v37.927h128.5zm-0.749-310.42h-45.362v-8.606c0-61.322 0.05-122.64-0.104-183.96-0.02-5.052 0.905-9.601 3.379-13.851 7.979-13.657 15.87-27.367 24.128-40.869 5.313-8.694 11.237-17.001 17.104-25.817 1.641 6.829 2.266 246.12 0.855 273.11z"/>
</svg>
