<svg width="813.76" height="800" enable-background="new 0 0 566.93 557.34" space="preserve" version="1.1" viewBox="0 0 813.76 800" xmlns="http://www.w3.org/2000/svg">
 <link href="" rel="stylesheet" type="text/css"/>
 <style type="text/css"/>
 <path d="m810.32 308.77c-0.39473-0.43636-0.91146-1.0708-1.5072-1.8631l1.111 1.3478c-9.2769-13.437-20.059-25.765-29.85-38.807-3.409-4.4396-6.0243-7.8085-7.4123-9.5927-11.615-15.182-8.4027-22.594-9.4735-30.523-0.5153-4.0808 0-8.4817-4.243-13.556-10.384-12.25-15.816-26.044-26.24-38.015 1.388-1.467 4.6363-6.6602 7.174-10.266 2.42-3.3301 10.229-7.6908 12.528-14.428 0.79233-2.8937 2.4961-5.9856 4.7167-8.9998 4.7152-6.6185 11.218-13.715 17.006-19.106 4.5588-4.3592 4.0018-7.5314-0.9129-7.2946-24.656 0.67463-46.892 13.319-65.762 27.868-1.1081 0.6732-1.8631 1.388-3.0129 1.9808-0.35598 0.15933-0.47511 0.23827-0.87128 0.39616-0.95166 0.27703-1.5445 0.71339-2.2995 0.99042 0 0-0.43636 0.23827-0.5153 0.31722-15.617 5.4717-32.981-4.8358-48.794 0l5.1918-10.464c2.5378-3.0129 5.4702-6.1449 7.1755-11.139 2.5378-5.5894 5.9841-9.4348 9.3946-13.636 2.5378-3.1708 4.3205-8.4027-1.7827-5.3899-31.039 7.53-66.318 38.332-70.561 44.276-4.2401 5.9066-14.229 14.707-17.559 20.85-2.5378 4.5588-5.7875 9.2367-11.256 15.261-8.0094-27.271-23.903-63.145-25.291-73.451-1.1885-9.2367-6.6602-19.266-9.1951-26.003-2.3799-6.7793-25.807-47.171-52.799-64.375-4.6377-4.7554-4.797 0.71482-3.2511 4.4009 1.9808 5.153 4.1612 9.9486 4.1612 16.092 0.15789 5.3124 2.0598 9.1965 3.5669 12.725l1.2674 11.654c-13.437-9.6328-33.219-5.6683-46.023-15.815-0.39473-0.19952-0.39473-0.35741-0.39473-0.35741-0.91003-0.55549-1.388-1.111-1.9823-1.9435-0.19808-0.23684-0.35741-0.39616-0.71339-0.633-0.633-0.79233-1.388-1.6248-2.1387-2.8535-13.201-19.78-30.048-39.243-53.277-47.884-4.5171-1.7842-5.9052 1.0306-2.8937 6.541 3.4894 7.0162 7.5731 15.816 9.673 23.705 1.0292 3.765 1.7828 7.3334 1.7038 10.187-0.27703 4.4396 1.8631 12.884 6.9372 17.56 0.23971 1.8617 0.31866 12.13 2.499 12.844-13.994 7.7697-25.647 17.322-37.459 27.945-7.5314 6.6602-7.929 11.813-7.929 11.813-1.8631 5.5894-2.2995 13.675-18.193 24.221-1.8617 1.1096-5.6698 3.488-10.148 6.6186-13.319 8.4845-26.954 16.808-40.036 26.282-0.55693 0.39617-1.2703 1.0306-1.6263 1.388 0.1579-0.35741 0.39761-0.5153 0.71339-0.79376-8.5606 6.5812-9.7506 11.734-1.2674 19.345 0 3.9645 1.4268 6.9372 4.1612 9.1176 3.0143 9.8309 6.1047 12.765 11.1 17.322 3.9243 4.4009 8.562 8.285 13.554 10.942 0.47798 0.31722 15.618 7.5702 30.127 10.108 3.9243 1.0306 6.5798 0.79233 7.2142 0.79233 10.94 1.3478 23.189 0.23828 32.187-0.67319 0.27703 4.6765 10.979 23.268 4.1224 30.483-3.8454 2.3382-8.562 4.6377-13.042 6.7391-74.005-19.345-126.13-62.393-203.07-12.209-72.104 14.747-141.39-14.825-140.48-57.438 0.633-35.041 39.599-40.789 55.376-34.09l8.4831 2.6167c6.6185 2.1014 18.392 0.83252 22-5.1143 3.2511-5.6683-1.111-12.606-1.6263-13.358-0.59569-0.55549-2.4574-2.9727-2.9727-3.4492-0.71338-0.43636-1.1081-1.0708-1.9033-1.7052-0.67176-0.35741-0.83108-0.75357-1.5445-1.3464-0.55405-0.43636-1.2689-0.91147-1.7827-1.2287-0.55693-0.47511-1.1899-0.91147-2.0626-1.388-0.43635-0.23827-0.75357-0.47511-1.467-0.71338-0.75214-0.67462-1.7038-1.0708-2.5751-1.5473-0.27703-0.0804-0.5153-0.55406-0.75358-0.55406-2.2995-0.91147-4.6377-1.9421-7.1726-2.7344-33.815-10.188-83.838 9.4333-94.305 45.743 0 0-0.077511 0.27846-0.27703 0.3976-0.15646 1.0694-0.31578 1.9421-0.633 2.8937 0 0.51387-0.15933 1.3866-0.39473 1.9421-0.15933 0.55406-0.15933 1.4655-0.3976 2.2593 0 1.1096-0.15933 2.4172-0.15933 3.6473-0.11914 0.23827-0.11914 0.55549-0.11914 0.71338v0.23971c-2.2191 72.263 70.955 102.23 131.64 106.51-18.75 20.891-26.956 23.031-36.588 57.279-10.227 36.984-13.876 86.137-34.367 117.73-18.076 28.103-17.403 69.884-35.24 91.17-6.0257 6.7004-9.2754 18.554-8.7199 29.412 0.633 10.862-1.3091 21.802-3.5296 32.583-0.31578 1.3091-0.67319 2.5779-0.75214 3.6086-3.132 16.094-7.2142 32.028-4.797 47.844 0.59568 2.5378 5.0741 7.8501 6.5008 10.346 4.6377 7.2544 4.6377 13.081 5.5104 21.048 0.3976 0.99041 0.83396 2.0626 0.83396 2.6956 0.23684 3.9243 0.51243 6.6989 1.3062 8.7199 0 0.27847 0.31865 0.27847 0.31865 0.27847 0.15933 0.633 0.3976 1.1885 0.71338 1.5445 3.6071 3.8052 6.541 5.5506 15.855 8.6424 0.31866 0.0804 0.91147 0.31722 1.2674 0.55406 3.1722 0.9129 5.987 1.5473 8.9195 1.5473h1.7052c0.67176 0 1.2674-0.23827 1.9019-0.23827 0.31722-0.15789 0.47655-0.15789 0.87128-0.15789 0 0 0.31866-0.1579 0.67463-0.1579 0.95166-0.39616 1.7827-0.71338 2.6555-1.4655 1.8617 1.4655 4.599 2.2191 7.3334 2.2995 4.9147 0.079 9.8697-1.2689 11.693-4.1626 0.71338 0.39617 1.467 0.39617 2.3397 0.39617 11.375-0.23684 11.018-16.727 2.7732-24.852-1.2674-5.5492-6.5008-8.3252-12.763-8.3252-8.4831 0-19.187-8.8003-21.961-22.277v-0.43779c-0.15646-0.15789-0.15646-0.47511-0.15646-0.71195 0-0.55693 0-1.388-0.15789-2.0626-0.23971-2.1804-0.23971-4.5588-0.5153-6.5812v-10.068c0.27703-4.797 0.67463-9.4348 1.388-14.39 0-0.15789 0-0.27559 0.15933-0.43636 0.59281-6.4219 1.9421-12.446 3.4076-18.868h0.08038c10.981-43.723 37.222-80.113 52.363-91.885 24.102-18.829 24.419-27.511 46.459-49.947 7.5314-6.9358 21.247-19.541 45.665-26.163 1.0708 19.543-3.2526 38.887-16.015 53.989-2.2191 2.6153-4.7181 4.9162-7.5329 6.8568-5.9841 4.4396-9.5123 7.5702-10.862 11.06-1.2287 3.7262-0.91147 7.9276 1.5847 13.953 11.774 29.174 23.863 58.348 23.863 67.625 0 8.6812 2.6167 14.428 6.6602 18.314 13.638 13.16 7.3736 40.749 17.164 48.121 13.635 10.346 28.182 15.261 35.953 12.248 0.1177-0.27703 0.27703-0.27703 0.55406-0.35597 0.23827 0 0.59568-0.23828 0.75357-0.23828 0.99042-0.55549 1.7828-1.4655 2.4172-2.4588 3.8454 0.83395 7.6118 0.83395 10.467-0.43636l-0.12057 0.35741c0.12057-0.35741 0.43636-0.35741 0.43636-0.35741 0.19951-0.19808 0.43635-0.27703 0.59568-0.35598 0.15933-0.15789 0.67463-0.27702 0.67463-0.43635 1.1885-0.633 2.1803-1.7828 2.5751-3.2511 6.4621-0.31722 8.4831-3.6861 8.7228-7.9262 0.27703-3.2511-1.0722-7.1755-2.9741-10.386-1.388-5.8664-6.7004-10.979-13.398-11.495-4.0047-0.35885-15.42-4.2028-18.908-8.6812-0.23684-0.31866-12.842-11.615-15.417-19.821-1.032-3.4478-2.3009-6.3817-3.5296-9.5525-6.6989-17.839-12.327-34.209-9.8697-59.459 0.15933-1.8244 0.43636-3.3703 0.55406-5.153 4.1626-29.572 55.971-46.974 80.232-81.182 1.2287-1.5072 1.9421-3.211 3.2095-4.8372 26.995 8.6424 47.846 20.535 57.794 27.472 23.15 18.274 48.082 37.103 75.475 46.537v0.0804c-1.6263 17.084-11.496 26.875 0.5153 46.694 10.343 17.084 10.424 38.252 28.023 63.424 1.111 1.9019 2.5765 3.8038 4.1224 5.7487 13.438 16.886 17.006 47.843 37.42 76.464 19.54 27.668 4.3205 31.158 15.895 41.026 3.9243 3.3703 2.377 10.385 8.7185 16.65 9.5955 9.3142 16.293 12.606 21.325 12.09h0.63587c2.2191-0.0804 4.0018-1.1497 5.3899-2.776 4.1597 1.8244 7.3334 2.4186 10.108 2.5765h0.31722l-0.23828 0.11913c0.51531 0 0.87272-0.11913 1.111-0.19808 0.71195 0 1.2674-0.0804 1.7827-0.27703l0.55406-0.0804c0.71482-0.23684 1.5473-0.31722 1.9435-0.67319 0 0 0.15646 0 0.15646-0.23828 0.79233-0.23827 1.5459-0.79376 1.9837-1.2287 0.59425-0.71338 1.0306-1.3076 1.3076-1.9435 1.7038-0.15789 3.409-0.59425 4.6765-1.2272 0.43636-0.23828 1.1497-0.31722 1.5473-0.75214 0.15789-0.15933 0.19808-0.31722 0.55406-0.31722 0.0804-0.31866 0.5153-0.47655 0.67463-0.55693 0.31865-0.43636 0.47511-0.43636 0.71338-0.83109 0 0 0.3976-0.23827 0.47512-0.47654 0.0804-0.23684 0.35884-0.39617 0.43635-0.75214 0.15789-0.23684 0.43636-0.31722 0.43636-0.31722 0.15789-0.39617 0.43635-0.91291 0.43635-1.2287 0 0 0-0.15789 0.3976-0.15789 1.7038-4.9162 0-11.575-4.2817-16.531-0.23827-7.6104-3.765-10.543-14.905-14.665-12.327-4.4396-15.577-17.916-20.968-23.863-0.91147-1.2287-1.7828-2.6167-2.776-3.8454-4.4382-5.7875-7.7295-12.129-10.343-18.908-0.79376-1.9019-1.665-3.9243-2.42-5.9066-3.1334-9.475-6.2626-19.383-10.623-30.047-12.565-30.364-11.573-64.533-15.894-83.244-1.8244-7.6104-0.59568-12.446 5.1918-18.788 2.1402-2.3784 6.4219-6.5812 9.475-9.7907 6.0257 0.87128 14.506 0.87128 26.915-1.8244 18.353-3.7277 26.002-5.9468 29.253-9.3946-8.3252 29.928 7.8085 64.215 8.1271 87.525 0.1177 13.873 3.409 32.464 3.9631 44.396v3.6071c0 0.23828 0 0.39617-0.35598 0.5555 0 1.5459 0 2.7746-0.35597 4.1612-2.1818 10.783 1.7038 25.528 0 32.781-2.8952 14.509 7.5688 13.557 4.9148 21.048-0.19809 0.83252-0.19809 1.3478-0.19809 1.9823h-0.19951v1.8631c0 0.55549 0 0.95166 0.19951 1.3478v0.51387c1.7828 6.264 10.702 7.9692 12.565 13.361 3.0904 8.6424 13.359 15.578 21.604 15.182 2.4574 0 4.7554-0.95309 6.62-2.2995 3.9645 1.1081 9.9486 1.1081 14.428-0.7952 0.55406-0.0789 0.98898-0.43492 1.467-0.6732 0.23828-0.0804 0.23828-0.0804 0.3933-0.5153 0.67606-0.15789 1.3091-0.55406 1.7856-1.0306v-0.23828c0.55406-0.71338 1.0694-1.2287 1.1497-1.9823 1.032-0.19808 1.7828-0.27559 2.4574-0.43636 10.862-2.9727 8.4042-18.234-1.6263-25.688-1.4268-5.865-3.9215-9.551-11.731-11.454-19.821-5.3109-14.866-27.311-18.511-35.279-1.5473-3.0918-2.3813-7.2932-2.8177-11.654 0-0.9129-0.27559-1.9823-0.27559-2.8937-0.11914-0.31722-0.11914-0.59425-0.11914-0.99041 0-1.7052-0.23827-3.4894-0.23827-5.1143-0.31578-9.9903 0.79377-20.374 2.1416-26.997 3.2511-16.292 6.1032-37.379 9.1175-54.582 0-0.35597 0-0.59424 0.0789-1.1081 0.27846-0.95166 0.43636-2.1416 0.75358-3.211 0-0.83396 0.23827-1.7842 0.23827-2.8148 0.27559-0.39617 0.27559-0.75214 0.27559-1.1498 0.35741-1.2287 0.47511-2.2593 0.79377-3.4492 0-0.15645 0.0804-0.27703 0.0804-0.27703 0.47368-1.5057 0.59425-2.5751 0.87128-3.6071v-0.75214c0.43635-0.83252 0.43635-1.9019 0.67176-2.8148 0.15932-0.15789 0.31865-0.55549 0.3976-0.87127 0.31865-0.67463 0.55405-1.6248 0.633-2.4186 0.23827-0.91147 0.59568-1.8631 0.95166-2.7344 3.5684-9.2754 4.9564-16.887 4.9564-38.094 0-19.741 11.573-37.855 19.896-55.137 5.4731-11.575 6.5023-19.424 6.5023-26.242-0.15789-6.62-1.9435-12.171-2.1-19.185-0.0804-11.654-0.0804-24.338-4.52-35.319-2.1804-5.5492-2.8521-12.169-4.2803-21.366 0.47655-4.7554 3.5267-4.1626 8.8018-8.4027 3.3286-2.6956 14.427-12.527 18.947-16.449 3.9631-3.5282 13.477-16.412 24.456-11.179 8.1257 3.8454 28.7 16.251 61.203 12.684 1.2287 0 2.3784-0.31722 3.7664-0.39617 0.43636-0.11913 0.91147-0.11913 1.2703-0.39616 5.8262-0.99185 11.573-2.8937 16.846-5.7875 17.004-4.5588 22.752-16.649 23.189-20.057 9.907-4.4066 10.781-9.5194 5.1903-18.201m-526.85 101.91h-15.538v-73.213h-0.23827l-21.048 73.213h-13.477l-20.733-73.213h-0.27703v73.213h-15.538v-93.033h25.052l18.036 64.93h0.31722l18.115-64.93h25.33zm89.665-78.247h-24.538v78.248h-17.916v-78.248h-24.417v-14.983h66.872zm63.978 78.247h-19.86l-24.854-93.033h17.639l16.53 68.498h0.47654l17.124-68.498h17.639zm147.62 1.4268v30.404h-101.87v-10.306c0-28.144 7.7295-48.915 40.395-75.355 22.276-17.918 30.403-29.255 30.403-41.739 0-12.171-6.1836-19.187-18.193-19.187-13.081 0-18.554 7.6506-18.554 20.573v11.733h-30.799v-15.261c0-23.466 15.697-46.259 48.598-46.259 37.656 0 51.174 23.467 51.174 48.242 0 20.889-11.456 38.806-42.335 61.719-18.234 13.755-22.952 25.845-22.952 35.437z" fill="#fff" stroke-width="1.4354"/>
</svg>
