<svg width="800" height="673.94" enable-background="new 0 0 1000 842.428" version="1.1" viewBox="0 0 2322 1956.1" xml:space="preserve" xmlns="http://www.w3.org/2000/svg">
<path d="m994.98 1207.9 61.154 52.425v101.57h-61.154zm205.33 60.076 14.192-12.018v-43.683l-65.531 55.699h51.339zm-51.339-650.94-10.92-12.016-141.98-62.257 111.4 117.96zm607.26 744.86h68.802v-455.43c-17.473 24.025-50.245 73.17-68.802 109.21zm0-815.85v290.52c19.656-27.299 52.416-66.622 68.802-83.003v-167.1zm-241.38 314.55c-55.695 33.857-67.713 42.592-87.369 55.702v446.7h279.59v-235.91c-13.105 38.227-27.306 84.099-36.039 115.77-14.192 46.962-25.121 58.978-58.978 58.978-26.208 0-42.594-8.7353-54.603-40.407-6.5596-17.482-52.425-136.52-61.161-159.46-21.85-57.882-34.957-101.57-34.957-126.69 0-44.781 30.587-61.163 61.165-61.163 40.407 0 46.962 38.227 52.425 74.27 3.2693 18.562 8.7353 68.802 12.016 96.109 1.089 12.018 2.1826 26.208 16.377 26.208 13.112 0 17.48-18.557 27.306-43.683 24.035-62.259 56.795-123.41 76.451-156.18v-369.16h-418.3l-181.3 190.04-179.11-190.04h-429.23v820.22h446.7v-259.94l161.64 135.43 156.19-131.06v255.57h67.716c-1.0983-13.108 0-183.49 0-324.37 0-41.505-8.7469-52.425-21.85-52.425-15.288 0-41.496 20.754-68.802 41.505-44.777 31.674-69.9 57.882-99.396 57.882-17.473 0-27.295-7.6462-38.224-21.84-2.1756-2.1803-7.6392-14.199-7.6392-24.032 0-10.92 4.3676-21.84 19.655-31.674 17.473-10.92 36.051-8.7399 77.547-32.761 48.058-29.489 93.921-55.702 103.76-61.163 16.386-8.7399 13.105-21.845 13.105-34.953 0-27.302 24.035-37.133 45.873-37.133 19.658 0 32.77 7.6486 36.042 8.7399 7.6486-4.3723 27.306-15.292 63.346-37.138 24.026-14.197 37.138-43.686 65.531-43.686 12.019 0 22.939 2.1827 32.77 9.8266 14.192 12.019 16.377 18.569 16.377 28.398-1.0913 22.939-36.044 41.508-54.615 53.519z" stroke-width="2.322"/>
<path d="m1683 1956.1 433.59-363.7v-1221h205.33v-370.25h-873.74v370.25h205.33v122.33h52.425v-174.75h-205.33v-264.31h767.8v264.31h-205.33v1249.5l-399.74 334.2h-1004.8l-399.73-335.29v-1249.5h-205.33v-264.31h767.8v264.31h-205.33v174.75h52.428v-122.32h205.33v-370.25h-873.75v370.25h205.34v1221.1l433.59 363.69h1044.1zm-29.489-415.03h-985.14v-129.96h-52.428v182.39h1090v-182.39h-52.425v129.96z" stroke-width="2.322"/>
</svg>
