<svg width="800" height="518.55" enable-background="new 0 0 315 72" version="1.1" viewBox="0 0 800 518.55" xml:space="preserve" xmlns="http://www.w3.org/2000/svg">
<g fill="#fff"><g transform="matrix(3.5733 0 0 3.5733 -314.67 324.35)"><polygon points="92.721 54.001 88.063 54.001 88.063 32.305 93.174 32.305 98.854 41.506 104.54 32.305 109.65 32.305 109.65 54.001 104.99 54.001 104.99 39.917 98.854 49.117 98.742 49.117 92.721 39.917"/><path d="m123.96 54.342c-5.793 0-9.313-3.295-9.313-9.654v-12.383h4.771v12.267c0 3.521 1.816 5.34 4.658 5.34 2.954 0 4.658-1.817 4.658-5.225v-12.382h4.771v12.267c-6e-3 6.59-3.754 9.77-9.545 9.77z"/><polygon points="153.83 53.889 138.26 53.889 138.27 54.001 138.27 32.305 143.04 32.305 143.04 49.571 153.83 49.571"/><polygon points="155.88 32.305 173.82 32.305 173.82 36.735 167.23 36.735 167.23 54.001 162.46 54.001 162.46 36.735 155.88 36.735"/><rect x="177.69" y="32.305" width="4.771" height="21.696"/><polygon points="192.56 54.001 187.91 54.001 187.91 32.305 193.02 32.305 198.7 41.506 204.38 32.305 209.49 32.305 209.49 54.001 204.83 54.001 204.83 39.917 198.7 49.117 198.59 49.117 192.56 39.917"/><polygon points="219.49 40.938 229.71 40.938 229.71 45.139 219.49 45.139 219.49 49.682 231.19 49.682 231.19 53.884 214.72 53.884 214.72 54.001 214.72 32.305 231.07 32.305 231.07 36.507 219.49 36.507"/><path d="m250.38 43.21c0.024-0.432 4e-3 -0.861-0.063-1.288-0.066-0.427-0.176-0.842-0.33-1.247-0.154-0.403-0.35-0.786-0.584-1.148-0.235-0.363-0.506-0.696-0.812-1.003-0.305-0.306-0.64-0.575-1.002-0.811-0.363-0.235-0.746-0.43-1.149-0.584-0.404-0.153-0.819-0.264-1.247-0.33-0.427-0.066-0.855-0.089-1.287-0.063h-3.636v13.062h3.636c0.434 0.013 0.864-0.019 1.291-0.095s0.842-0.194 1.244-0.356 0.783-0.362 1.145-0.603c0.361-0.242 0.693-0.517 0.997-0.825 0.305-0.31 0.573-0.647 0.807-1.012 0.235-0.365 0.43-0.749 0.584-1.154 0.155-0.405 0.267-0.822 0.335-1.251 0.067-0.429 0.091-0.859 0.071-1.292zm-6.475 10.791h-8.405v-21.696h8.405c0.737-0.049 1.472-0.023 2.204 0.079s1.446 0.278 2.143 0.527c0.695 0.249 1.357 0.566 1.988 0.953 0.63 0.386 1.214 0.832 1.752 1.338 0.538 0.507 1.02 1.063 1.443 1.668s0.782 1.247 1.073 1.927c0.291 0.679 0.51 1.38 0.656 2.105 0.146 0.724 0.218 1.455 0.214 2.194v0.113c-1e-3 0.737-0.076 1.467-0.227 2.189-0.149 0.723-0.37 1.422-0.663 2.099-0.292 0.677-0.65 1.317-1.075 1.921-0.424 0.604-0.904 1.158-1.441 1.664-0.538 0.505-1.121 0.951-1.749 1.337s-1.289 0.705-1.983 0.956c-0.693 0.25-1.404 0.429-2.135 0.534s-1.463 0.137-2.2 0.092z"/><rect x="259.81" y="32.305" width="4.771" height="21.696"/><path d="m287.08 43.21c0.016-0.442-0.013-0.882-0.085-1.318-0.073-0.438-0.188-0.862-0.346-1.275-0.158-0.414-0.356-0.807-0.595-1.181-0.238-0.372-0.512-0.719-0.818-1.036-0.309-0.319-0.646-0.603-1.01-0.854-0.365-0.25-0.751-0.461-1.159-0.634-0.407-0.172-0.828-0.302-1.263-0.389s-0.872-0.13-1.315-0.128c-0.435-3e-3 -0.866 0.039-1.293 0.124-0.427 0.086-0.842 0.213-1.241 0.382-0.401 0.169-0.782 0.377-1.142 0.623-0.358 0.247-0.689 0.526-0.991 0.84-0.303 0.313-0.571 0.652-0.805 1.021-0.234 0.367-0.428 0.755-0.583 1.161-0.155 0.407-0.268 0.824-0.339 1.254-0.07 0.43-0.098 0.862-0.08 1.298v0.112c-0.028 0.445-0.01 0.89 0.053 1.332 0.064 0.442 0.171 0.874 0.322 1.294 0.151 0.421 0.345 0.82 0.577 1.202 0.234 0.381 0.505 0.733 0.811 1.06 0.306 0.325 0.641 0.616 1.007 0.873 0.365 0.258 0.754 0.475 1.164 0.651s0.833 0.312 1.271 0.402 0.88 0.136 1.326 0.136c0.447 0 0.89-0.046 1.326-0.136 0.438-0.091 0.862-0.226 1.271-0.402 0.41-0.177 0.798-0.394 1.164-0.651 0.365-0.257 0.701-0.548 1.007-0.873 0.306-0.326 0.576-0.679 0.811-1.06 0.232-0.382 0.425-0.781 0.577-1.202 0.151-0.42 0.26-0.852 0.322-1.294 0.065-0.442 0.083-0.887 0.056-1.332zm-6.591 11.132c-0.745 0.026-1.486-0.022-2.223-0.146-0.736-0.123-1.452-0.319-2.149-0.588-0.696-0.268-1.358-0.604-1.987-1.005-0.629-0.403-1.212-0.864-1.747-1.384s-1.014-1.088-1.435-1.704c-0.42-0.616-0.776-1.27-1.065-1.957s-0.506-1.398-0.652-2.13c-0.146-0.731-0.217-1.472-0.214-2.218v-0.112c2e-3 -0.753 0.079-1.497 0.23-2.234 0.151-0.736 0.374-1.451 0.667-2.144 0.294-0.692 0.653-1.349 1.079-1.969s0.908-1.192 1.448-1.717c0.54-0.523 1.126-0.989 1.76-1.396 0.632-0.406 1.299-0.747 1.999-1.02 0.701-0.273 1.422-0.475 2.163-0.604s1.487-0.184 2.239-0.164c0.746-0.025 1.487 0.023 2.224 0.147 0.735 0.124 1.451 0.32 2.148 0.588 0.696 0.269 1.358 0.604 1.988 1.006 0.628 0.402 1.21 0.863 1.746 1.383 0.535 0.521 1.014 1.088 1.435 1.704 0.422 0.616 0.776 1.27 1.065 1.957 0.29 0.688 0.508 1.398 0.653 2.13s0.217 1.472 0.214 2.217v0.114c2e-3 0.753-0.07 1.499-0.218 2.238s-0.367 1.456-0.66 2.15c-0.291 0.695-0.65 1.354-1.076 1.976-0.425 0.623-0.907 1.195-1.448 1.721s-1.128 0.991-1.764 1.397c-0.635 0.405-1.303 0.744-2.007 1.017-0.702 0.271-1.426 0.469-2.169 0.595-0.741 0.127-1.49 0.177-2.244 0.152z"/><path d="m304 54.344c-1.689 7e-3 -3.325-0.283-4.909-0.871-1.584-0.586-3.015-1.432-4.292-2.536l2.84-3.407c0.885 0.813 1.886 1.443 3 1.894 1.114 0.449 2.272 0.689 3.474 0.72 1.932 0 3.067-0.795 3.067-2.045v-0.112c0-1.25-0.795-1.816-4.317-2.727-4.317-1.129-7.156-2.272-7.156-6.588v-0.112c0-3.976 3.181-6.475 7.61-6.475 1.459-0.01 2.879 0.218 4.261 0.686 1.383 0.467 2.65 1.147 3.805 2.04l-2.498 3.637c-1.661-1.332-3.555-2.051-5.681-2.157-1.817 0-2.727 0.794-2.727 1.931v0.113c0 1.476 0.903 1.932 4.658 2.839 4.431 1.128 6.815 2.726 6.815 6.475v0.112c0 4.083-3.293 6.583-7.95 6.583z"/></g><path d="m488.08 301.27v-2.6172c-8.5652-26.357-17.142-52.07-25.707-77.772-0.64994-2.6172 0-3.2961 1.9788-5.2343 22.405-16.475 44.828-32.294 67.234-48.786 0.65574 0 0.65574-0.65574 1.3115-1.3115h-85.031c-0.88786 0.11026-1.7061-0.0812-2.4489-0.5803-0.74278-0.49325-1.236-1.178-1.474-2.0368-7.2537-21.755-14.502-43.505-21.1-65.91-1.4508-5.1531-3.1974-10.213-5.2401-15.163-0.46424 0.81242-0.67895 1.6887-0.65574 2.623-8.5652 26.363-17.142 52.07-25.707 78.445-0.65574 1.9788-1.3115 2.6172-3.3019 2.6172h-85.687c1.3115 0.65574 1.3115 1.3115 1.973 1.3115 22.411 16.475 45.484 32.961 67.901 49.442 0.66154 0.25534 1.12 0.70797 1.3811 1.3579 0.26114 0.65574 0.23793 1.3057-0.0696 1.9382-7.2538 21.1-13.84 42.849-21.094 63.937l-5.9307 17.792c1.1606-1.0968 2.4663-1.973 3.9286-2.6172 21.755-15.825 43.505-31.632 65.91-48.113 0.49326-0.64413 1.149-0.9691 1.9614-0.9691s1.4682 0.32497 1.9672 0.9691c16.469 12.517 33.611 24.384 50.759 36.919 5.1647 5.2575 10.881 9.8361 17.142 13.73zm-71.185-220.16c-1.9788-5.2401-3.2961-10.538-5.2401-15.163-3.3019-9.8883-6.5458-20.427-9.8883-30.315-1.2534-4.0447-3.122-7.7818-5.5999-11.206-2.4895-3.4238-5.4606-6.3601-8.9134-8.8031-3.4586-2.4431-7.2189-4.2652-11.275-5.4722-4.0563-1.2012-8.2054-1.7177-12.43-1.5494-2.623 0-4.6134 0.65574-7.8631 0.65574 3.4354-3.0698 7.3234-5.4026 11.652-6.9868 4.329-1.5784 8.7973-2.3096 13.405-2.1819h67.901c3.3948-0.23212 6.7663 0 10.097 0.69636 3.3309 0.69636 6.511 1.8221 9.5343 3.3948 3.0234 1.5668 5.7798 3.5166 8.2635 5.8436s4.6076 4.95 6.3717 7.8573c2.5417 4.6018 4.5205 9.4357 5.9307 14.496l31.644 96.91c3.2961 11.211 7.2537 21.755 10.538 32.961 0 0.65573 0.66734 1.3115 0.66734 2.623 0.65574-0.65574 1.3115-0.65574 1.9788-1.3115 12.517-8.5652 24.384-17.798 36.919-26.357 2.6578-1.8279 5.037-3.9576 7.1551-6.3833 2.1123-2.4315 3.8938-5.0892 5.333-7.9733 1.4391-2.8841 2.4953-5.9016 3.1684-9.0527 0.67315-3.151 0.94589-6.3369 0.81242-9.5575-0.0522-5.5825-1.3579-10.857-3.9286-15.819-0.65574-1.3115-1.3115-1.9788-1.3115-3.3019l0.65573-0.64994c2.6172 2.6172 5.2343 4.6076 7.8573 7.2537 3.2439 3.7836 5.8552 7.9559 7.8515 12.517 7.2595 21.755 14.502 44.161 21.761 65.91 2.0949 7.1493 2.5359 14.403 1.3057 21.755-0.93429 4.7701-2.71 9.2036-5.3272 13.306-2.6172 4.0969-5.8958 7.5671-9.8303 10.422l-114.7 83.047c-0.65574 0.66154-1.9788 1.3173-2.623 1.9846 0.65574 0.64994 1.3115 1.3115 1.9788 1.3115l35.59 25.707c1.886 1.4798 3.888 2.7796 6.0177 3.8938 2.1181 1.1026 4.3348 2.0136 6.627 2.71s4.6308 1.178 7.01 1.445c2.3792 0.26113 4.7643 0.30176 7.1493 0.12186 2.3908-0.17989 4.7468-0.5803 7.0622-1.1954 2.3154-0.61512 4.5554-1.4508 6.7141-2.4837 2.1645-1.0329 4.213-2.2632 6.1454-3.6791s3.7197-2.9943 5.3562-4.741l1.3115-1.3173c-1.4508 6.5806-4.5089 12.291-9.1687 17.142-3.2207 3.2207-6.7373 6.0699-10.544 8.571-15.819 11.867-32.288 23.728-48.113 34.94-8.1068 6.4239-17.334 9.72-27.686 9.8825-8.0314-0.087-15.279-2.5069-21.75-7.2538-38.897-28.342-77.122-56.022-116.02-84.376-0.65573-0.64993-1.3115-0.64993-1.973-1.3173-0.65574 1.3173-0.65574 2.623-1.3115 3.3019-4.6134 14.496-9.1687 28.342-13.84 42.849-0.67315 2.1993-1.149 4.4393-1.4159 6.7199-0.27274 2.2864-0.34238 4.5728-0.2031 6.865 0.13346 2.298 0.48164 4.5612 1.0213 6.7895 0.53968 2.24 1.2767 4.4045 2.2109 6.5052 0.92848 2.1007 2.0369 4.1027 3.3251 6.0061 1.2883 1.9034 2.739 3.6791 4.3464 5.3156 1.6016 1.648 3.3425 3.1394 5.2169 4.4741 1.8686 1.3289 3.8474 2.4895 5.9249 3.4702 0.65574 0 0.65574 0.64994 1.3057 0.64994v0.65574c-3.3367-0.11606-6.6328-0.55129-9.8883-1.3115-5.3214-1.1026-10.155-3.2845-14.496-6.5516-18.454-13.184-36.263-26.357-54.716-39.547-4.712-3.0756-8.6116-6.9636-11.71-11.664s-5.124-9.8187-6.0873-15.361c-1.265-5.8494-0.82983-11.56 1.3115-17.148 13.179-40.871 26.357-81.729 39.547-121.94 1.9788-5.9307 3.9286-11.211 5.9307-17.142h-46.801c-6.3543-0.16829-12.389 1.1432-18.1 3.9402-5.7102 2.797-10.445 6.7547-14.212 11.879-3.9634 5.0602-6.3833 10.776-7.2538 17.142 0.029 0.93428-0.19149 1.8105-0.65573 2.623-3.476-7.9675-3.9112-16.092-1.3115-24.39 7.2537-23.073 14.502-45.478 22.405-67.883 1.5726-5.2227 4.1375-9.8999 7.6948-14.032 3.5572-4.1317 7.805-7.364 12.738-9.6968 5.2169-2.4489 10.712-3.5514 16.475-3.3019h142.38c0.60932 1.8744 1.265 1.8744 2.5881 1.8744z" stroke-width="5.803"/></g><polygon transform="matrix(5.803 0 0 5.803 193.26 -12.099)" points="46.289 39.567 51.085 54.349 38.52 45.209 25.94 54.342 30.748 39.561 18.17 30.428 33.712 30.428 38.52 15.646 43.314 30.428 58.857 30.428" fill="#ffd800"/>
</svg>
