<svg width="800" height="307.29" version="1.1" viewBox="0 0 800 307.29" xml:space="preserve" xmlns="http://www.w3.org/2000/svg"><defs><clipPath id="clipPath34"><path d="m-3.06e-7 1.2207e-4h720v540h-720z" clip-rule="evenodd"/></clipPath><clipPath id="clipPath44"><path d="m0 0h599.03v229.66h-599.03z"/></clipPath><clipPath id="clipPath58"><path d="m0 229.66v-230.28h599.34v230.28" clip-rule="evenodd"/></clipPath><clipPath id="clipPath68"><path d="m0 229.66v-230.28h599.34v230.28" clip-rule="evenodd"/></clipPath><clipPath id="clipPath78"><path d="m0 229.66v-230.28h599.34v230.28" clip-rule="evenodd"/></clipPath><clipPath id="clipPath88"><path d="m0 229.66v-230.28h599.64v230.28"/></clipPath><clipPath id="clipPath98"><path d="m0 229.66v-230.28h599.64v230.28"/></clipPath><clipPath id="clipPath108"><path d="m0 229.66v-230.28h599.34v230.28" clip-rule="evenodd"/></clipPath><clipPath id="clipPath118"><path d="m0 229.66v-230.28h599.34v230.28" clip-rule="evenodd"/></clipPath><clipPath id="clipPath128"><path d="m0 229.66v-230.28h599.34v230.28" clip-rule="evenodd"/></clipPath><clipPath id="clipPath138"><path d="m0 229.66v-230.28h599.34v230.28" clip-rule="evenodd"/></clipPath><clipPath id="clipPath148"><path d="m0 229.66v-230.28h599.64v230.28" clip-rule="evenodd"/></clipPath><clipPath id="clipPath158"><path d="m0 229.66v-230.28h599.64v230.28" clip-rule="evenodd"/></clipPath><clipPath id="clipPath168"><path d="m0 229.66v-230.28h599.34v230.28" clip-rule="evenodd"/></clipPath><clipPath id="clipPath178"><path d="m0 229.66v-230.28h599.34v230.28" clip-rule="evenodd"/></clipPath><clipPath id="clipPath188"><path d="m0 229.66v-230.28h599.34v230.28" clip-rule="evenodd"/></clipPath><clipPath id="clipPath202"><path d="m-3.06e-7 1.2207e-4h720v540h-720z" clip-rule="evenodd"/></clipPath><clipPath id="clipPath212"><path d="m0 0h599.03v229.66h-599.03z"/></clipPath><clipPath id="clipPath226"><path d="m0 229.66v-230.28h599.34v230.28" clip-rule="evenodd"/></clipPath><clipPath id="clipPath236"><path d="m0 229.66v-230.28h599.34v230.28" clip-rule="evenodd"/></clipPath><clipPath id="clipPath246"><path d="m0 229.66v-230.28h599.34v230.28" clip-rule="evenodd"/></clipPath><clipPath id="clipPath256"><path d="m0 229.66v-230.28h599.64v230.28"/></clipPath><clipPath id="clipPath266"><path d="m0 229.66v-230.28h599.64v230.28"/></clipPath><clipPath id="clipPath276"><path d="m0 229.66v-230.28h599.34v230.28" clip-rule="evenodd"/></clipPath><clipPath id="clipPath286"><path d="m0 229.66v-230.28h599.34v230.28" clip-rule="evenodd"/></clipPath><clipPath id="clipPath296"><path d="m0 229.66v-230.28h599.34v230.28" clip-rule="evenodd"/></clipPath><clipPath id="clipPath306"><path d="m0 229.66v-230.28h599.34v230.28" clip-rule="evenodd"/></clipPath><clipPath id="clipPath316"><path d="m0 229.66v-230.28h599.64v230.28" clip-rule="evenodd"/></clipPath><clipPath id="clipPath326"><path d="m0 229.66v-230.28h599.64v230.28" clip-rule="evenodd"/></clipPath><clipPath id="clipPath336"><path d="m0 229.66v-230.28h599.34v230.28" clip-rule="evenodd"/></clipPath><clipPath id="clipPath346"><path d="m0 229.66v-230.28h599.34v230.28" clip-rule="evenodd"/></clipPath><clipPath id="clipPath356"><path d="m0 229.66v-230.28h599.34v230.28" clip-rule="evenodd"/></clipPath></defs><g transform="matrix(1.3333 0 0 -1.3333 256.31 640.99)"><g transform="matrix(4.0844 0 0 4.0844 -346.31 -804.67)"><g clip-path="url(#clipPath34)"><g transform="matrix(2.0413 0 0 .78379 37.714 258.28)"><g transform="scale(.1202 .3135)"><g clip-path="url(#clipPath44)"><g clip-path="url(#clipPath58)"><path d="m598.51 168.16c-0.3 0.67-0.9 1.12-2.02 1.12-1.65 0-9.75-4.5-23.7-9.97-9.68-3.83-23.26-8.78-38.93-13.51-15.01-4.65-31.96-9.15-49.29-12.45-17.55-3.37-35.4-5.62-52.06-5.62-9.45 0-16.8 1.27-21.97 3.67-5.55 2.63-8.55 6.53-8.55 11.7 0 7.05 3.82 13.36 10.05 18.83 4.87 4.35 11.4 8.1 18.82 11.33 3.23 1.35 6.68 2.62 10.21 3.82 10.35 3.3 21.22 5.7 30 8.78 7.43 2.55 13.35 5.7 16.35 10.28 1.35 2.1 2.1 4.57 2.1 7.42 0 6.83-4.95 12.98-12.97 16.58-0.3 0.15-0.53 0.22-0.83 0.37-4.65 1.95-10.2 3.08-16.28 3.08-17.32 0-34.88-7.35-49.5-16.05-11.93-7.05-22.13-15.68-29.41-22.88-12.3-12.15-21.15-25.13-29.33-36.68-3.15-4.43-6.15-8.63-9.22-12.53-2.48-3.07-4.95-6-7.58-8.62-2.18-2.18-4.65-4.05-7.05-5.85-3.9-2.85-7.95-5.26-12-7.06-7.95-3.52-15.83-5.1-22.28-5.1-5.7 0-9.53 1.2-11.7 3.38-1.73 1.65-2.48 3.9-2.48 6.6 0 12.83 13.5 24.38 27.91 36.76 5.4 4.65 10.95 9.37 15.97 14.4 6.38 6.45 11.41 12.22 15.08 17.92 4.88 7.58 7.28 14.78 7.28 22.58 0 5.93-2.93 12-9.53 15.68-3.98 2.17-8.55 3.52-15.98 3.52-10.72 0-21.53-2.92-32.18-7.57-18.45-8.1-36.6-21.3-53.63-33.16-23.7-16.57-48.53-33.67-62.26-33.67-8.18 0-11.93 4.05-11.93 14.32 0 4.5 0.45 10.43 0.45 15.23 0 7.05-2.85 12.08-7.72 15.15-3.98 2.63-9.38 3.9-15.6 3.9-4.73 0-9.38-0.75-14.11-2.25-4.65-1.5-9.37-3.75-14.1-6.6-3.52-2.18-7.12-4.65-10.65-7.43-5.776-4.42-11.702-9.67-17.778-15.67-11.477-11.18-23.704-26.71-37.056-40.06-4.5-4.5-8.701-8.47-12.601-12.07-3.901-3.61-7.502-6.76-10.652-9.53-10.952-9.38-17.553-13.878-19.203-15.453-0.6751-0.75-0.6751-1.65-0.37506-2.325 0.37506-0.75 1.0502-1.2 1.8753-1.2 0.9002 0 3.4505 1.125 6.9761 2.85 7.4256 3.751 19.278 10.428 29.03 16.198 5.326 3.08 10.726 6.38 16.277 9.83 12.002 7.58 23.854 15.23 30.455 18.38 6.826 3.37 12.977 6 19.282 6 2.32 0 4.05-0.45 5.55-1.28 1.12-0.6 2.1-1.42 3.07-2.4 2.55-2.55 4.05-7.42 6.08-12.52 0.9-2.1 1.57-3.83 2.55-5.85 0.82-1.65 2.4-4.88 5.7-7.58 3.07-2.55 6.6-3.38 9.98-3.38 14.32 0 41.25 21.38 55.95 30.16 22.21 13.13 42.01 26.78 53.79 26.78 4.42 0 6.82-3.3 6.82-6 0-12.38-4.2-28.88-4.2-44.18 0-13.13 3.15-27.758 21.76-27.758 8.02 0 17.55 2.925 26.92 6.826 7.58 3.072 15.08 6.822 21.61 9.972 4.57 2.25 8.7 4.2 12 5.48 2.4 0.97 4.28 1.5 5.63 1.5 6 0 4.65-7.88 13.35-16.502 4.65-4.726 14.32-10.427 34.28-10.427 28.5 0 80.86 15.079 114.92 28.959 13.27 5.32 26.02 11.1 37.8 16.8 14.55 6.97 27.6 13.87 38.33 19.8 9.3 5.18 16.73 9.53 21.83 12.68 0.52 0.3 1.27 1.27 0.67 2.55z" fill="#fefefe"/></g><g clip-path="url(#clipPath68)"><path d="m224.36 3.7353c2.85-3.9005 8.32-3.2254 10.05-3.2254 3.23 0.22504 7.58 1.3502 13.2 3.9755 6 2.7754 7.43 3.5255 15.08 8.1756 0.07 0.075 2.02 1.276 2.17 1.426 0.3 0.3 0 0.9-0.6 0.675 0 0-5.1-2.401-10.27-3.901-3.53-0.9749-9.83-3.1502-15.08-1.2749-2.55 0.9749-2.62 3.1499-1.57 4.9509 0.9 1.5 3.22 3.225 6.15 4.35 2.4 0.975 4.87 1.425 6.6 1.951 3.37 1.125 4.95 2.175 5.1 3.975 0.22 2.85-3.98 6.901-13.95 2.55-9.61-4.125-15.08-12.601-17.03-17.102-0.98-2.1751-0.9-5.0255 0.15-6.5257z" fill="#fefefe"/></g><g clip-path="url(#clipPath78)"><path d="m303.57 5.0855c4.05-5.5507 11.85-4.5756 14.25-4.5756 4.65 0.30005 10.88 1.9503 18.98 5.7008 8.48 3.9003 10.5 5.0253 21.45 11.701 0.08 0 2.93 1.8 3.15 2.025 0.45 0.45-0.07 1.276-0.9 0.901 0 0-7.27-3.376-14.62-5.476-5.03-1.5-14.11-4.576-21.61-1.8-3.52 1.275-3.75 4.425-2.17 7.051 1.27 2.1 4.5 4.5 8.77 6.15 3.38 1.426 6.91 2.026 9.38 2.851 4.88 1.5 7.13 3 7.35 5.55 0.3 4.051-5.7 9.902-19.95 3.676-13.73-5.926-21.6-18.002-24.38-24.378-1.35-3.151-1.27-7.2012 0.3-9.3765z" fill="#fefefe"/></g><g clip-path="url(#clipPath88)"><path d="m510.83 23.388c1.27-1.05 0.07-3.376-0.68-4.126-2.4-2.475-6.82-2.4-9.45-2.925 1.8 4.126 6.75 9.676 10.13 7.051zm17.02-7.951s-5.32-2.701-10.5-4.201c-4.27-1.2-9-2.7751-14.32-1.4249 0 0-4.13 1.2749-2.03 3.0759 1.5 1.275 6.98 0.75 11.18 1.95 3.75 1.125 7.87 4.8 7.2 10.051-0.15 0.975-0.83 2.25-2.1 3.225-1.43 1.276-4.05 2.101-7.95 1.276-1.43-0.3-3-0.75-4.73-1.501-3.9-1.725-7.13-4.125-9.68-6.675-3.82-3.751-6.22-7.801-7.35-10.502-0.97-2.175-0.9-5.0254 0.15-6.5256 2.85-3.9005 8.33-3.2254 9.98-3.2254 3.75 0.22504 7.5 1.1251 14.18 4.1255 6.07 2.7754 6.97 3.6005 14.4 8.2515 0 0.075 2.02 1.275 2.17 1.425 0.3 0.3-0.07 0.9-0.6 0.675z" fill="#fefefe"/></g><g clip-path="url(#clipPath98)"><path d="m224.88 39.965c2.63 0.75 5.25-0.45 5.25-2.85 0-1.876-3.75-4.501-5.7-4.801-2.47-0.45-4.57 0.375-4.8 2.175-0.3 2.326 3.38 4.951 5.25 5.476z" fill="#fefefe" fill-rule="evenodd"/></g><g clip-path="url(#clipPath108)"><path d="m192.85 18.437c11.26-4.2-2.85-13.576-8.62-15.977-1.88-0.8252-4.88-1.8003-5.85 0-1.05 1.8752 3.37 4.5756 4.95 7.0509-4.73 0.375-8.33 2.3249-6.68 6.9009 1.58 4.201 9.45 10.276 15.15 11.852 3.75 0.975 9.01 1.425 9.23-2.176 0.38-4.275-6.38-4.95-8.18-7.651z" fill="#fefefe" fill-rule="evenodd"/></g><g clip-path="url(#clipPath118)"><path d="m173.65 28.639c1.2-0.375-3.67-6.526-6.22-11.102-0.83-1.425-1.96-3.3-2.93-5.701-0.68-1.8748-1.95-5.7003 0.45-6.2254 1.2-0.3001 2.85 1.8752 3.23 1.0501 0.45-1.7252-6.53-7.2009-9.68-4.9506-0.75 0.675-0.98 1.5752-0.98 2.9253-5.55-5.9257-17.7-5.8507-17.77 6.0006 0 2.401 0.6 5.251 1.27 7.651 0.6 2.176 1.95 6.076 1.2 6.451-1.12 0.6-2.4-1.35-3.22-0.9-0.9 0.975 1.42 4.876 5.55 5.101 1.05 0.075 2.4-0.225 2.92-1.426 2.33-4.575-0.07-20.852 8.4-14.777 5.7 4.126 15.38 17.253 17.78 15.903z" fill="#fefefe" fill-rule="evenodd"/></g><g clip-path="url(#clipPath128)"><path d="m378.43 26.988c9 5.251 15.45 0.375 11.93-8.626-1.43-4.875-7.8-11.326-6.08-13.426 1.2-1.3502 4.65 1.0501 4.35-1.0501-1.42-5.4008-10.35-5.1007-11.4 0.675-0.67 3.9005 2.78 11.252-2.92 10.277-2.33-0.45-9.91-9.8265-11.18-11.702-2.33-3.5255-9.08-2.0253-6.38 1.8752 5.93 9.6015 13.58 19.128 17.26 31.88 0.07 0.525 0.3 0.825 0 1.2-0.9 0.825-1.43-0.3-2.1 0.675-0.53 2.4 6.15 4.2 8.1 1.875 2.25-2.625-1.58-10.201-1.58-13.652z" fill="#fefefe" fill-rule="evenodd"/></g><g clip-path="url(#clipPath138)"><path d="m409.79 16.337c2.7 3.3-1.13 6.901-3.68 5.326-2.77-1.876-4.87-6.376-2.55-8.927 1.8-0.75 4.8 1.951 6.23 3.601zm0.9 12.452c5.02 0.45 11.4-3.076 12.22-7.876 0.68-3.826-0.82-7.126-1.87-9.077-3.45-6.3004-12.08-14.326-20.85-9.8259-6.01 3.0754-4.43 16.352 0.22 21.528 2.4 2.625 6.75 4.951 10.28 5.251z" fill="#fefefe" fill-rule="evenodd"/></g><g clip-path="url(#clipPath148)"><path d="m206.36 1.26c-2.78 0.5251-3.38 3.0004-3.3 4.8006 0.15 6.0004 11.55 22.503 17.77 22.878 5.18 0.375 3.15-4.726 1.28-6.976-3.3-4.051-12.45-16.952-15.75-20.703z" fill="#fefefe" fill-rule="evenodd"/></g><g clip-path="url(#clipPath158)"><path d="m449.32 39.965c2.62 0.75 5.25-0.45 5.25-2.85 0-1.876-3.75-4.501-5.7-4.801-2.48-0.45-4.58 0.375-4.8 2.175-0.3 2.326 3.37 4.951 5.25 5.476z" fill="#fefefe" fill-rule="evenodd"/></g><g clip-path="url(#clipPath168)"><path d="m430.79 1.26c-2.78 0.5251-3.38 3.0004-3.3 4.8006 0.15 6.0004 11.55 22.503 17.78 22.878 5.17 0.375 3.15-4.726 1.27-6.976-3.3-4.051-12.45-16.952-15.75-20.703z" fill="#fefefe" fill-rule="evenodd"/></g><g clip-path="url(#clipPath178)"><path d="m448.64 3.7353c2.85-3.9005 8.25-3.2254 9.98-3.2254 3.22 0.22504 7.58 1.4252 13.28 3.9755 6.3 2.7754 12.22 7.5756 12.37 7.7256 0.3 0.3-0.07 0.901-0.6 0.676 0-0.075-3.52-1.351-5.4-2.026-3.52-1.1249-9.9-3.1502-15.15-1.2749-2.48 0.9749-2.55 3.1499-1.5 4.9509 0.9 1.5 3.15 3.225 6.15 4.35 2.33 0.975 4.8 1.425 6.53 1.951 3.45 1.125 5.02 2.175 5.17 3.975 0.23 2.85-3.97 6.901-13.95 2.55-9.6-4.125-15.15-12.601-17.1-17.102-0.9-2.1751-0.9-5.0255 0.22-6.5257z" fill="#fefefe"/></g><g clip-path="url(#clipPath188)"><path d="m129.54 7.8609c0.38 0.6-0.15 1.5002-2.62 0.3-1.95-0.7501-4.5-1.2752-6.45-1.5752-2.4-0.225-4.28-0.075-5.18 1.3502-1.05 2.1001 0.53 5.7761 4.58 9.3011 1.27 1.125 7.5 6.226 9.67 8.926 2.33 2.701 4.51 6.001 4.36 9.677-0.15 5.25-6.53 5.25-6.53 5.25-5.93 0.225-11.7-2.325-20.1-7.951-5.7-3.825-17.181-12.827-22.582-13.352-4.951-0.15-3.826 4.201-3.751 8.177 0.075 2.925-1.425 4.575-3.3 5.25-1.951 0.675-4.276 0.75-6.826 0.075-4.651-1.125-10.802-6.151-18.228-14.627-8.251-9.526-16.728-15.677-17.103-15.977-0.675-0.5251-0.225-1.3502 0.3-1.1252 0.375 0.075 1.651 0.6001 2.701 1.1252 3.375 1.8752 9.976 5.4757 15.002 8.7758 7.051 4.651 11.702 6.826 14.027 4.201 2.25-2.625 2.025-12.602 12.677-6.2259s27.603 19.278 27.533 11.927c0-6.901-5.63-22.278 7.72-19.803 4.2 0.7501 11.03 4.0506 12.75 5.2507 0 0 1.2 0.6751 1.35 1.0502z" fill="#fefefe"/></g></g></g></g></g></g><g transform="matrix(4.0844 0 0 4.0844 -346.31 -804.67)"><g clip-path="url(#clipPath202)"><g transform="matrix(2.0413 0 0 .78379 37.714 258.28)"><g transform="scale(.1202 .3135)"><g clip-path="url(#clipPath212)"><g clip-path="url(#clipPath226)"><path d="m598.51 168.16c-0.3 0.67-0.9 1.12-2.02 1.12-1.65 0-9.75-4.5-23.7-9.97-9.68-3.83-23.26-8.78-38.93-13.51-15.01-4.65-31.96-9.15-49.29-12.45-17.55-3.37-35.4-5.62-52.06-5.62-9.45 0-16.8 1.27-21.97 3.67-5.55 2.63-8.55 6.53-8.55 11.7 0 7.05 3.82 13.36 10.05 18.83 4.87 4.35 11.4 8.1 18.82 11.33 3.23 1.35 6.68 2.62 10.21 3.82 10.35 3.3 21.22 5.7 30 8.78 7.43 2.55 13.35 5.7 16.35 10.28 1.35 2.1 2.1 4.57 2.1 7.42 0 6.83-4.95 12.98-12.97 16.58-0.3 0.15-0.53 0.22-0.83 0.37-4.65 1.95-10.2 3.08-16.28 3.08-17.32 0-34.88-7.35-49.5-16.05-11.93-7.05-22.13-15.68-29.41-22.88-12.3-12.15-21.15-25.13-29.33-36.68-3.15-4.43-6.15-8.63-9.22-12.53-2.48-3.07-4.95-6-7.58-8.62-2.18-2.18-4.65-4.05-7.05-5.85-3.9-2.85-7.95-5.26-12-7.06-7.95-3.52-15.83-5.1-22.28-5.1-5.7 0-9.53 1.2-11.7 3.38-1.73 1.65-2.48 3.9-2.48 6.6 0 12.83 13.5 24.38 27.91 36.76 5.4 4.65 10.95 9.37 15.97 14.4 6.38 6.45 11.41 12.22 15.08 17.92 4.88 7.58 7.28 14.78 7.28 22.58 0 5.93-2.93 12-9.53 15.68-3.98 2.17-8.55 3.52-15.98 3.52-10.72 0-21.53-2.92-32.18-7.57-18.45-8.1-36.6-21.3-53.63-33.16-23.7-16.57-48.53-33.67-62.26-33.67-8.18 0-11.93 4.05-11.93 14.32 0 4.5 0.45 10.43 0.45 15.23 0 7.05-2.85 12.08-7.72 15.15-3.98 2.63-9.38 3.9-15.6 3.9-4.73 0-9.38-0.75-14.11-2.25-4.65-1.5-9.37-3.75-14.1-6.6-3.52-2.18-7.12-4.65-10.65-7.43-5.776-4.42-11.702-9.67-17.778-15.67-11.477-11.18-23.704-26.71-37.056-40.06-4.5-4.5-8.701-8.47-12.601-12.07-3.901-3.61-7.502-6.76-10.652-9.53-10.952-9.38-17.553-13.878-19.203-15.453-0.6751-0.75-0.6751-1.65-0.37506-2.325 0.37506-0.75 1.0502-1.2 1.8753-1.2 0.9002 0 3.4505 1.125 6.9761 2.85 7.4256 3.751 19.278 10.428 29.03 16.198 5.326 3.08 10.726 6.38 16.277 9.83 12.002 7.58 23.854 15.23 30.455 18.38 6.826 3.37 12.977 6 19.282 6 2.32 0 4.05-0.45 5.55-1.28 1.12-0.6 2.1-1.42 3.07-2.4 2.55-2.55 4.05-7.42 6.08-12.52 0.9-2.1 1.57-3.83 2.55-5.85 0.82-1.65 2.4-4.88 5.7-7.58 3.07-2.55 6.6-3.38 9.98-3.38 14.32 0 41.25 21.38 55.95 30.16 22.21 13.13 42.01 26.78 53.79 26.78 4.42 0 6.82-3.3 6.82-6 0-12.38-4.2-28.88-4.2-44.18 0-13.13 3.15-27.758 21.76-27.758 8.02 0 17.55 2.925 26.92 6.826 7.58 3.072 15.08 6.822 21.61 9.972 4.57 2.25 8.7 4.2 12 5.48 2.4 0.97 4.28 1.5 5.63 1.5 6 0 4.65-7.88 13.35-16.502 4.65-4.726 14.32-10.427 34.28-10.427 28.5 0 80.86 15.079 114.92 28.959 13.27 5.32 26.02 11.1 37.8 16.8 14.55 6.97 27.6 13.87 38.33 19.8 9.3 5.18 16.73 9.53 21.83 12.68 0.52 0.3 1.27 1.27 0.67 2.55z" fill="#fefefe"/></g><g clip-path="url(#clipPath236)"><path d="m224.36 3.7353c2.85-3.9005 8.32-3.2254 10.05-3.2254 3.23 0.22504 7.58 1.3502 13.2 3.9755 6 2.7754 7.43 3.5255 15.08 8.1756 0.07 0.075 2.02 1.276 2.17 1.426 0.3 0.3 0 0.9-0.6 0.675 0 0-5.1-2.401-10.27-3.901-3.53-0.9749-9.83-3.1502-15.08-1.2749-2.55 0.9749-2.62 3.1499-1.57 4.9509 0.9 1.5 3.22 3.225 6.15 4.35 2.4 0.975 4.87 1.425 6.6 1.951 3.37 1.125 4.95 2.175 5.1 3.975 0.22 2.85-3.98 6.901-13.95 2.55-9.61-4.125-15.08-12.601-17.03-17.102-0.98-2.1751-0.9-5.0255 0.15-6.5257z" fill="#fefefe"/></g><g clip-path="url(#clipPath246)"><path d="m303.57 5.0855c4.05-5.5507 11.85-4.5756 14.25-4.5756 4.65 0.30005 10.88 1.9503 18.98 5.7008 8.48 3.9003 10.5 5.0253 21.45 11.701 0.08 0 2.93 1.8 3.15 2.025 0.45 0.45-0.07 1.276-0.9 0.901 0 0-7.27-3.376-14.62-5.476-5.03-1.5-14.11-4.576-21.61-1.8-3.52 1.275-3.75 4.425-2.17 7.051 1.27 2.1 4.5 4.5 8.77 6.15 3.38 1.426 6.91 2.026 9.38 2.851 4.88 1.5 7.13 3 7.35 5.55 0.3 4.051-5.7 9.902-19.95 3.676-13.73-5.926-21.6-18.002-24.38-24.378-1.35-3.151-1.27-7.2012 0.3-9.3765z" fill="#fefefe"/></g><g clip-path="url(#clipPath256)"><path d="m510.83 23.388c1.27-1.05 0.07-3.376-0.68-4.126-2.4-2.475-6.82-2.4-9.45-2.925 1.8 4.126 6.75 9.676 10.13 7.051zm17.02-7.951s-5.32-2.701-10.5-4.201c-4.27-1.2-9-2.7751-14.32-1.4249 0 0-4.13 1.2749-2.03 3.0759 1.5 1.275 6.98 0.75 11.18 1.95 3.75 1.125 7.87 4.8 7.2 10.051-0.15 0.975-0.83 2.25-2.1 3.225-1.43 1.276-4.05 2.101-7.95 1.276-1.43-0.3-3-0.75-4.73-1.501-3.9-1.725-7.13-4.125-9.68-6.675-3.82-3.751-6.22-7.801-7.35-10.502-0.97-2.175-0.9-5.0254 0.15-6.5256 2.85-3.9005 8.33-3.2254 9.98-3.2254 3.75 0.22504 7.5 1.1251 14.18 4.1255 6.07 2.7754 6.97 3.6005 14.4 8.2515 0 0.075 2.02 1.275 2.17 1.425 0.3 0.3-0.07 0.9-0.6 0.675z" fill="#fefefe"/></g><g clip-path="url(#clipPath266)"><path d="m224.88 39.965c2.63 0.75 5.25-0.45 5.25-2.85 0-1.876-3.75-4.501-5.7-4.801-2.47-0.45-4.57 0.375-4.8 2.175-0.3 2.326 3.38 4.951 5.25 5.476z" fill="#fefefe" fill-rule="evenodd"/></g><g clip-path="url(#clipPath276)"><path d="m192.85 18.437c11.26-4.2-2.85-13.576-8.62-15.977-1.88-0.8252-4.88-1.8003-5.85 0-1.05 1.8752 3.37 4.5756 4.95 7.0509-4.73 0.375-8.33 2.3249-6.68 6.9009 1.58 4.201 9.45 10.276 15.15 11.852 3.75 0.975 9.01 1.425 9.23-2.176 0.38-4.275-6.38-4.95-8.18-7.651z" fill="#fefefe" fill-rule="evenodd"/></g><g clip-path="url(#clipPath286)"><path d="m173.65 28.639c1.2-0.375-3.67-6.526-6.22-11.102-0.83-1.425-1.96-3.3-2.93-5.701-0.68-1.8748-1.95-5.7003 0.45-6.2254 1.2-0.3001 2.85 1.8752 3.23 1.0501 0.45-1.7252-6.53-7.2009-9.68-4.9506-0.75 0.675-0.98 1.5752-0.98 2.9253-5.55-5.9257-17.7-5.8507-17.77 6.0006 0 2.401 0.6 5.251 1.27 7.651 0.6 2.176 1.95 6.076 1.2 6.451-1.12 0.6-2.4-1.35-3.22-0.9-0.9 0.975 1.42 4.876 5.55 5.101 1.05 0.075 2.4-0.225 2.92-1.426 2.33-4.575-0.07-20.852 8.4-14.777 5.7 4.126 15.38 17.253 17.78 15.903z" fill="#fefefe" fill-rule="evenodd"/></g><g clip-path="url(#clipPath296)"><path d="m378.43 26.988c9 5.251 15.45 0.375 11.93-8.626-1.43-4.875-7.8-11.326-6.08-13.426 1.2-1.3502 4.65 1.0501 4.35-1.0501-1.42-5.4008-10.35-5.1007-11.4 0.675-0.67 3.9005 2.78 11.252-2.92 10.277-2.33-0.45-9.91-9.8265-11.18-11.702-2.33-3.5255-9.08-2.0253-6.38 1.8752 5.93 9.6015 13.58 19.128 17.26 31.88 0.07 0.525 0.3 0.825 0 1.2-0.9 0.825-1.43-0.3-2.1 0.675-0.53 2.4 6.15 4.2 8.1 1.875 2.25-2.625-1.58-10.201-1.58-13.652z" fill="#fefefe" fill-rule="evenodd"/></g><g clip-path="url(#clipPath306)"><path d="m409.79 16.337c2.7 3.3-1.13 6.901-3.68 5.326-2.77-1.876-4.87-6.376-2.55-8.927 1.8-0.75 4.8 1.951 6.23 3.601zm0.9 12.452c5.02 0.45 11.4-3.076 12.22-7.876 0.68-3.826-0.82-7.126-1.87-9.077-3.45-6.3004-12.08-14.326-20.85-9.8259-6.01 3.0754-4.43 16.352 0.22 21.528 2.4 2.625 6.75 4.951 10.28 5.251z" fill="#fefefe" fill-rule="evenodd"/></g><g clip-path="url(#clipPath316)"><path d="m206.36 1.26c-2.78 0.5251-3.38 3.0004-3.3 4.8006 0.15 6.0004 11.55 22.503 17.77 22.878 5.18 0.375 3.15-4.726 1.28-6.976-3.3-4.051-12.45-16.952-15.75-20.703z" fill="#fefefe" fill-rule="evenodd"/></g><g clip-path="url(#clipPath326)"><path d="m449.32 39.965c2.62 0.75 5.25-0.45 5.25-2.85 0-1.876-3.75-4.501-5.7-4.801-2.48-0.45-4.58 0.375-4.8 2.175-0.3 2.326 3.37 4.951 5.25 5.476z" fill="#fefefe" fill-rule="evenodd"/></g><g clip-path="url(#clipPath336)"><path d="m430.79 1.26c-2.78 0.5251-3.38 3.0004-3.3 4.8006 0.15 6.0004 11.55 22.503 17.78 22.878 5.17 0.375 3.15-4.726 1.27-6.976-3.3-4.051-12.45-16.952-15.75-20.703z" fill="#fefefe" fill-rule="evenodd"/></g><g clip-path="url(#clipPath346)"><path d="m448.64 3.7353c2.85-3.9005 8.25-3.2254 9.98-3.2254 3.22 0.22504 7.58 1.4252 13.28 3.9755 6.3 2.7754 12.22 7.5756 12.37 7.7256 0.3 0.3-0.07 0.901-0.6 0.676 0-0.075-3.52-1.351-5.4-2.026-3.52-1.1249-9.9-3.1502-15.15-1.2749-2.48 0.9749-2.55 3.1499-1.5 4.9509 0.9 1.5 3.15 3.225 6.15 4.35 2.33 0.975 4.8 1.425 6.53 1.951 3.45 1.125 5.02 2.175 5.17 3.975 0.23 2.85-3.97 6.901-13.95 2.55-9.6-4.125-15.15-12.601-17.1-17.102-0.9-2.1751-0.9-5.0255 0.22-6.5257z" fill="#fefefe"/></g><g clip-path="url(#clipPath356)"><path d="m129.54 7.8609c0.38 0.6-0.15 1.5002-2.62 0.3-1.95-0.7501-4.5-1.2752-6.45-1.5752-2.4-0.225-4.28-0.075-5.18 1.3502-1.05 2.1001 0.53 5.7761 4.58 9.3011 1.27 1.125 7.5 6.226 9.67 8.926 2.33 2.701 4.51 6.001 4.36 9.677-0.15 5.25-6.53 5.25-6.53 5.25-5.93 0.225-11.7-2.325-20.1-7.951-5.7-3.825-17.181-12.827-22.582-13.352-4.951-0.15-3.826 4.201-3.751 8.177 0.075 2.925-1.425 4.575-3.3 5.25-1.951 0.675-4.276 0.75-6.826 0.075-4.651-1.125-10.802-6.151-18.228-14.627-8.251-9.526-16.728-15.677-17.103-15.977-0.675-0.5251-0.225-1.3502 0.3-1.1252 0.375 0.075 1.651 0.6001 2.701 1.1252 3.375 1.8752 9.976 5.4757 15.002 8.7758 7.051 4.651 11.702 6.826 14.027 4.201 2.25-2.625 2.025-12.602 12.677-6.2259s27.603 19.278 27.533 11.927c0-6.901-5.63-22.278 7.72-19.803 4.2 0.7501 11.03 4.0506 12.75 5.2507 0 0 1.2 0.6751 1.35 1.0502z" fill="#fefefe"/></g></g></g></g></g></g></g></svg>
