<svg width="604.64" height="315.78" version="1.0" xmlns="http://www.w3.org/2000/svg">
 <defs>
  <linearGradient id="linearGradient3328" x1="752.16" x2="1350.2" y1="115.86" y2="267.99" gradientTransform="translate(-734.93 -66.127)" gradientUnits="userSpaceOnUse">
   <stop stop-color="#fff" offset="0"/>
   <stop stop-color="#c20f24" offset=".2154"/>
   <stop stop-color="#cf4555" offset=".83199"/>
   <stop stop-color="#fff" offset="1"/>
  </linearGradient>
  <filter id="filter3568">
   <feGaussianBlur stdDeviation="8.3294866"/>
  </filter>
  <filter id="filter3568-6">
   <feGaussianBlur stdDeviation="8.3294866"/>
  </filter>
  <clipPath id="clipPath917">
   <path d="m3.3642 290.61c164.83 39.922 493.63-63.899 601.28-185.71-2.7653 12.353-68.76 129.96-341.4 192.5-179.66 41.207-239.37 1.4048-259.88-6.7941z" fill="#629de9" fill-rule="evenodd"/>
  </clipPath>
  <clipPath id="clipPath936">
   <path d="m557.24 17.954c-76.378-15.792-199.95 1.9419-285.97 24.347-107.59 28.025-218.28 81.187-271.27 127.11 52.362-69.148 229.14-137.84 316.06-153.82 82.292-15.131 161.74-26.759 241.18 2.364z" fill="#6ba3ea" fill-rule="evenodd"/>
  </clipPath>
 </defs>
 <g fill-rule="evenodd">
  <path d="m3.3642 290.61c164.83 39.922 493.63-63.899 601.28-185.71-2.7653 12.353-68.76 129.96-341.4 192.5-179.66 41.207-239.37 1.4048-259.88-6.7941z" fill="#629de9"/>
  <path d="m3.3642 290.61c178.9 48.365 500.34-59.878 601.28-185.71-4.609 9.0346-65.085 119.28-335.8 185.29-179.07 43.665-244.97 8.611-265.48 0.41213z" fill="#0c5ea8"/>
 </g>
 <g fill-rule="evenodd">
  <path d="m557.24 17.954c-76.378-15.792-199.95 1.9419-285.97 24.347-107.59 28.025-218.28 81.187-271.27 127.11 52.362-69.148 229.14-137.84 316.06-153.82 82.292-15.131 161.74-26.759 241.18 2.364z" fill="#6ba3ea"/>
  <path d="m557.24 17.954c-75.377-18.975-196.83-4.003-284.83 20.384-107.15 29.692-220.83 82.319-272.41 131.07 56.042-67.732 229.14-133.87 316.06-149.85 82.292-15.131 160.74-28.52 241.18-1.5992z" fill="#0c5ea8"/>
 </g>
 <path d="m176.26 329.14 232.2-337.89 17.615-1.6014-227.4 334.69z" clip-path="url(#clipPath936)" fill="#fff" fill-rule="evenodd" filter="url(#filter3568)"/>
 <g transform="translate(-734.93 -66.127)" fill-rule="evenodd">
  <path d="m780.13 262.82v6.7812h19.031v32.25h13v-32.25h18.625v-6.7812z"/>
  <path d="m841.19 263.01v39.032h46.031v-6.8125h-34.031v-10.594h30.844v-6.8125h-30.844v-8h34.031v-6.8125z"/>
  <path d="m956.89 263.01v39.032h46.031v-6.8125h-34.031v-10.594h30.844v-6.8125h-30.844v-8h34.031v-6.8125z"/>
  <path d="m902.04 263.01v38.844h0.21875v0.40625h43.031v-6.4062h-32.219v-32.844z"/>
  <path d="m1076 263.01h11.21v39.835h-11.21z" style=""/>
  <path d="m1256.4 262.92 0.125 0.0937v39.843h11.188v-29.438l27.25 29.344h2.1875v0.0937h11.219v-39.844h-11.219v28.75l-26.938-28.844z"/>
  <path d="m1011.6 263.01 20.969 39.75-0.031 0.0937h12.594l-0.031-0.0937 20.969-39.75h-12.531l-14.719 27.906-14.688-27.906z"/>
  <path d="m1136 273.8h12.031c-1.224-8.4237-14.129-10.912-24.487-10.899-10.357 0.0127-23.408 2.9578-23.213 12.031 0.1949 9.0715 16.042 9.6892 24.487 10.899 5.6192 0.9158 15.378 0.89847 15.287 7.0772-0.091 6.1787-10.013 5.9925-15.287 5.8033-6.689 0.1311-14.948-3.7523-15.287-7.5018l-11.324-0.14154c1.7639 10.201 19.665 12.574 27.743 12.314 8.5376-0.11882 23.711-2.5109 24.062-11.89 0.3515-9.383-17.563-9.9966-25.478-10.757-5.1567-0.34637-13.134-0.21175-13.305-6.6526-0.1709-6.4408 8.7985-6.8261 12.456-6.7941 3.5158 0.0307 11.355 0.37642 12.314 6.511z" stroke="#000" stroke-width="1px"/>
  <path d="m1161.1 263.01h11.21v39.835h-11.21z" style=""/>
  <path d="m1214.8 262.01c-16.988 0-30.75 9.2824-30.75 20.719s13.762 20.719 30.75 20.719 30.781-9.2824 30.781-20.719-13.793-20.719-30.781-20.719zm0.2813 5.6562c11.05 0 20.031 6.853 20.031 15.281s-8.9814 15.25-20.031 15.25c-11.05 1e-5 -20-6.8218-20-15.25-1e-4 -8.4282 8.9501-15.281 20-15.281z"/>
 </g>
 <path d="m417.54 66.841c-10.84 12.999-17.758 3.9324-37.625 3.9688-19.865 0.0363-47.997 14.107-47.906 37.5 0.091 23.39 16.63 30.531 28.844 34.844 12.214 4.3126 32.578 7.6512 32.406 19.656-0.1716 12.004-21.496 9.6142-32.969 9.5312-11.472-0.083-16.789-5.0822-26.781-12.406l-0.2187 29.625c12.159-12.445 29.914-1.0551 45.562-1.3125 15.651-0.2574 48.326-9.1522 49-35.969 0.6743-26.829-31.807-36.838-44.625-40.969-12.738-4.1048-18.106-6.2532-18.719-13.062-0.6383-7.09 9.7979-12.748 16.812-12.656 6.7432 0.0879 21.485 1.6414 35.781 10.406zm-367.66 6.9062 6.5312 8.2188 2.4062 4.1875v88.687h-0.40625l-9.1562 11.625h32.25l-7.875-11.531v-63.312l43.5 74.844h46.656l-10.219-11.062-1.0625-1.8125v-88.937h0.5l8.625-10.906h-31.25l7.3125 10.719v63.656l-43.25-74.375zm163.38 0 8.875 8.9062c1.0846 1.1828 1.4349 2.6186 1.3125 4.0312l-25.219 87.844-9.7812 11.938h30.688l-5.8438-6.7812-0.46875-1.7188 0.15625-10.094 2.125-7.5h41.531l4.0625 10.188c0.0779 2.6154-0.15118 5.017-1.5625 6.5938l-7.375 9.3125h63.625l-10.656-12.938-39.844-99.781zm253.44 0 8.875 8.9062c1.0847 1.1828 1.4349 2.6186 1.3125 4.0312l-25.219 87.844-9.7813 11.938h30.688l-5.8438-6.7812-0.4687-1.7188 0.1563-10.094 2.125-7.5h41.531l4.0625 10.188c0.078 2.6154-0.1511 5.017-1.5625 6.5938l-7.375 9.3125h63.625l-10.656-12.938-39.844-99.781zm-233.62 32.937c1.0918-0.0185 2.2166 0.83905 3.1875 2.625l1.1875 3.0312c0.0489 0.16053 0.109 0.30123 0.15625 0.46875l0.0312-0.0312 10.688 26.781c0.33653 1.8716 0.54024 3.91-3.0625 4.125h-20.812c-3.9595-0.23623-3.3305-2.6875-2.9688-4.6875h-0.21875l7.5625-26.312c0.9672-3.9282 2.5928-5.9719 4.25-6zm253.44 0c1.0919-0.0185 2.2166 0.83905 3.1875 2.625l1.1875 3.0312c0.049 0.16053 0.109 0.30123 0.1563 0.46875l0.031-0.0312 10.688 26.781c0.3366 1.8716 0.5403 3.91-3.0625 4.125h-20.812c-3.9594-0.23623-3.3304-2.6875-2.9687-4.6875h-0.2188l7.5625-26.312c0.9673-3.9282 2.5928-5.9719 4.25-6z" fill="url(#linearGradient3328)" fill-rule="evenodd"/>
 <path d="m176.26 329.14 232.2-337.89 17.615-1.6014-227.4 334.69z" clip-path="url(#clipPath917)" fill="#fff" fill-rule="evenodd" filter="url(#filter3568-6)"/>
</svg>
