<svg width="1e3" height="248.72" version="1.1" xmlns="http://www.w3.org/2000/svg">
 <g transform="translate(-313.18 -908.04)">
  <path d="m458.14 1127.6v-193.28h-120.09v193.28zm-144.46 24.367v-242h168.91v242" fill="#fed406"/>
  <g fill="#7f7e83">
   <path d="m589.93 994.19h-10.167c-13.348-19.369-26.701-38.605-39.854-60.378h-0.20002v60.378h-11.262v-84.2h10.267c13.352 19.25 26.607 38.366 39.759 60.028h0.19467v-60.028h11.262"/>
   <path d="m635.97 960.86c-2.9925-11.054-5.9778-21.276-9.2678-34.267h-0.20172c-2.8934 12.991-6.1778 23.213-9.464 34.267zm-1.8989-50.874 26.219 84.2h-15.757l-6.4734-22.967h-24.71l-7.1723 22.967h-12.163l28.409-84.2"/>
   <path d="m673.14 994.19v-72.894h-21.528v-11.305h57.105v11.305h-21.519v72.894"/>
   <path d="m789.71 955.71v34.755c-7.4732 3.0112-15.352 5.1682-23.319 5.1682-24.131 0-39.37-19.247-39.37-44.03 0-22.965 15.148-43.059 39.764-43.059 7.6749 0 15.348 2.8951 19.93 6.501l-4.4787 9.9875c-3.789-2.4105-9.6642-4.4637-15.051-4.4637-14.95 0-25.216 12.158-25.216 31.284 0 19.968 11.765 31.755 23.811 31.755 3.7943 0 6.8824-0.48122 9.8769-2.0393v-25.858"/>
   <path d="m838.33 921.3h-23.414v23.095h22.921v11.32h-22.921v27.177h27.702v11.302h-41.751v-84.2h37.464"/>
   <path d="m899.61 950.9c0-15.521-5.8718-30.33-19.829-30.33-13.948 0-19.82 14.809-19.82 30.33 0 16.116 5.1726 32.709 19.82 32.709 14.649 0 19.829-16.593 19.829-32.709zm-54.601 0c0-23.588 14.741-42.355 34.772-42.355 20.029 0 34.77 18.767 34.77 42.355 0 25.138-13.339 44.735-34.77 44.735-21.418 0-34.772-19.597-34.772-44.735"/>
  </g>
  <g fill="#4d4d4d">
   <path d="m1241.4 1130.8c-16.581 0-22.38-14.099-22.38-46.709 0-32.619 5.7996-46.714 22.38-46.714 16.591 0 22.398 14.095 22.398 46.714 0 32.609-5.8067 46.709-22.398 46.709zm0-115.52c-41.175 0-71.295 24.591-71.295 68.815 0 44.21 30.12 68.808 71.295 68.808 41.187 0 71.295-24.598 71.295-68.808 0-44.224-30.108-68.815-71.295-68.815"/>
   <path d="m1094 1128.3c-15.503 0-21.876-17.166-21.876-44.327 0-27.142 6.3725-44.038 21.876-44.038 15.518 0 21.888 16.897 21.888 44.038 0 27.161-6.3708 44.327-21.888 44.327zm0.5602-137.31h11.361c8.03 0 9.9668 4.1548 9.9668 11.91v31.214l-0.5461 0.55c-5.8247-12.194-21.342-18.557-37.959-18.557-41.831 0-54.298 35.18-54.298 68.977 0 33.8 12.467 68.975 54.298 68.975 17.728 0 32.134-7.4788 40.175-24.375l0.7009-1.6556c5.2283 16.907 19.393 25.355 41.216 25.529l-0.01 0.015h2.3781v-38.372h0.036v-146.38h-67.319"/>
   <path d="m971.99 1018.6c-22.391 0-35.379 7.7362-47.537 25.427h-0.56386v-21.282h-61.276v22.109h7.6769c8.0103 0 9.9381 4.1365 9.9381 11.886v61.339c0 7.7489-1.9278 11.891-9.9381 11.891h-10.249c-7.4139-0.254-9.2552-4.3798-9.2552-11.891v-95.575h-68.146v22.162h12.186c8.0371 0 9.9792 4.1594 9.9792 11.914v51.244c0 11.642-8.0371 23.551-20.775 23.551-21.342 0-21.342-7.4768-21.342-27.147v-25.01h0.01v-6.1095h-0.0992v-14.004c0-25.986-13.539-40.639-42.02-40.639-18.238 0-33.992 9.3978-43.667 24.604-6.3671-16.587-20.188-24.604-37.6-24.604-20.461 0-35.105 9.1261-45.34 26.263h-0.54417v-22.113h-64.142v22.113h11.069c8.0084 0 9.9362 4.1513 9.9362 11.886v61.372c0 7.7361-1.9278 11.887-9.9362 11.887h-11.903v22.112h82.099v-22.112h-4.4141c-8.012 0-9.9488-2.4917-9.9488-6.3599v-55.286c0-12.992 4.9762-24.883 19.906-24.883 15.752 0 17.415 9.954 17.415 23.775v50.866c0 8.5739-1.9368 11.887-9.9522 11.887h-3.8682v22.112h73.255v-22.112h-3.5873c-8.5793 0-9.9576-1.1117-9.9576-6.3599v-59.43c0-12.167 4.9779-20.738 19.897-20.738 12.716 0 17.415 14.102 17.415 23.775v5.4586h-7e-3v40.237c0 29.92 10.529 43.494 42.11 43.494 22.436 0 35.462-7.7617 47.652-25.484h0.54416v21.326h63.721v-0.07h71.96v-22.112h-6.6267c-8.0118 0-9.9432-4.1421-9.9432-11.891v-51.108c0-11.615 8.0011-23.505 20.712-23.505 18.789 0 21.288 11.055 21.288 27.084v11.341h-0.0219v28.18c0 27.967 15.483 41.768 43.512 41.996l-0.01 0.015h2.3818v-49.754h0.01v-36.744c0-28.748-10.5-46.984-42.004-46.984"/>
  </g>
 </g>
</svg>
