<svg width="575.9" height="122" version="1.1" viewBox="0 0 575.9 122" xmlns="http://www.w3.org/2000/svg">
 <g transform="translate(-.5 -.5)">
  <path d="m35.4 0.5h-24.2c-5.9 0-10.7 4.8-10.7 10.7v82.1c0 5.9 4.8 10.7 10.7 10.7h24.2c5.9 0 10.7-4.8 10.7-10.7v-82.1c0-5.8-4.8-10.7-10.7-10.7" fill="#fff"/>
  <path d="m34.4 91.8c-1.3-1.2-0.4-1.7-0.5-2.1-0.9-3.6-3.7-5.8-2.2-6.9-0.4-1.2-1.1-2.7-1.1-2.7-4.4-2.5-8.2-6.7-8.9-7.3-0.8-0.8-2.1-1.7-2.4-2.4-1.1-1-6.3-8.4-7.5-11.1l-2.1-0.3c-1-3.9-4.2-7.3-4.3-11.2 0-1.5 0.7-4.7 0.9-5.3 0.3-0.6 1.5-1.7 1.5-1.7v-1.1c-4.6 0.1-3.3-0.3-4.1-2.1-0.6-1.2-0.2-1.5 0-2.4 0.6-2.6 2.7-6.5 3.5-8.3 0.3-0.9 1.2-3.1 1.2-3.1 3.5-7 4.7-6.5 8.8-6.9l0.2-0.3c4.1-0.2 3.4-0.5 4-4.4-0.6 0.3-0.8-1.2-0.8-1.2-0.3-2.3 0.6-1.8 1.1-1.9 0.1-3.7 0.5-4.9 3.1-5.9h-13.6c-4.5 0-8.2 3.7-8.2 8.2v82.1c0 4.5 3.7 8.2 8.2 8.2h24.2c-2.8-1.6-1.1-4.5-1-9.9" fill="#1d428a"/>
  <path d="m29.4 19.5v0.3c0.7 0.4 1.1 0.8 1.9 1.3 2 1.2 4.4 3.5 4.1 11.1 0.6 1.7 0.8 4.9 1.3 6 1 2 1.7 3.4 2 5.3 0 0 0.3 3 0.7 3.2 2 0.5 1.5 0.7 1.8 1 0.3 0.4 1.5 0.4 1.5 1.5 0.4 0.5 0.7 1.1 0.9 1.7v-39.7c0-4.5-3.7-8.2-8.2-8.2h-7.8c1.3 0.4 2 1 2.4 1.8 1 0.1 2.2 2.4 0.3 5.7 0.8 0.6 0.2 1.4-0.4 2.3-0.2 0.3-0.4 0.9-0.9 0.8-0.7 1.5-1.6 2.9-2.2 3-0.2 0.2-0.3 0.9 0 1.2 0.9 0.6 2 1.2 2.6 1.7m14.2 36.8c-1.1 2.7-3.7 4.6-6.8 4.6-4 0-7.3-3.3-7.3-7.3 0-3.4 2.4-6.3 5.6-7.1-0.8-2.1-2.6-5.5-3.1-6.6s-1.7-8.1-2-9.4c-0.1-0.3-3.2 1.8-3.2 1.9-0.2 0.2-2.3 5.8-2.4 6.1v0.9s1.1 0.1 1.7 2c0.6 1.8 2.4 8.5 2.4 8.5l-0.5 0.5c2.3 7.7 1.5 11.1 2.5 13.3 1.3 3.2 1.7 2.8 2.8 5.5 0.8 2 1.7 9.6 2 10 1.2 1.6 1.9 2.8 1.9 3.7s-1.1 3.5-0.7 5.1c0.2 0.9 0.4 2.9 0.8 3.3 0 0 0.4 0.8 0.2 1.1-0.1 0.1-0.2 0.3-0.1 0.4 0.7 2.4 2.9 6.6-0.7 8.7h0.1c3.9-0.6 6.9-4 6.9-8.1v-37.1z" fill="#c8102e"/>
  <path d="m69.7 101.6h-11.6v-98.7h18l12 81.4c-1.8-19.4-4.1-50.6-4.1-67v-14.4h11.6v98.7h-16.4l-11.1-79.1c1 17.7 1.7 38.8 1.7 50.7v28.4zm32.5 0v-98.7h16.4c10.9 0 17.7 5.9 17.7 19.8v14.5c0 9-2.8 13.5-6.6 15.9 3.9 2.5 6.6 6.9 6.6 14.5v14.4c0 13.5-7.2 19.6-17.7 19.6zm13.3-86.3v32.6h1.7c4.7 0 5.9-1.8 5.9-7.2v-18.7c0-4.6-1.4-6.6-5.4-6.6h-2.2zm0 43.4v30.4h2.2c4.1 0 5.4-2.3 5.4-7.1v-16.7c0-4.8-1.5-6.6-5.9-6.6zm45.7 24.4h-8.3l-1.1 18.5h-13.4l9.7-98.7h18.8l9.4 98.7h-14zm-7.7-11.2h7.1l-1.1-18.1c-0.4-7.2-1.5-30-2.3-42.3h-0.6l-1.9 42.3zm409.6 13.5c0 3.9-0.7 5.8-3.3 5.8-2.9 0-3.3-2.2-3.3-5.8v-9h-13.3v8c0 13.4 4.8 18.1 16.3 18.1s16.9-6.6 16.9-19.1c0-6.9-2.9-15-10.5-24-6.8-8-9.4-12.6-9.4-18.7 0-4.2 1-6.1 3.5-6.1s3.2 1.7 3.2 7.2v8.3h13.2v-8.7c0-13.7-5-18.1-16.6-18.1-11.9 0-16.5 7.8-16.5 18.8 0 10 4.6 17.9 11.1 25.5 6.4 7.5 8.7 12.8 8.7 17.8zm-38.2 0c0 3.9-0.7 5.8-3.3 5.8-2.9 0-3.3-2.2-3.3-5.8v-9h-13.3v8c0 13.4 4.8 18.1 16.3 18.1s16.9-6.6 16.9-19.1c0-6.9-2.9-15-10.5-24-6.8-8-9.4-12.6-9.4-18.7 0-4.2 1-6.1 3.5-6.1s3.2 1.7 3.2 7.2v8.3h13.2v-8.7c0-13.7-5-18.1-16.6-18.1-11.9 0-16.5 7.8-16.5 18.8 0 10 4.6 17.9 11.1 25.5 6.4 7.5 8.7 12.8 8.7 17.8zm-45.2-0.6v-11.9c0-5 1.7-6.8 6.6-6.9v24c-1.1 0.4-2.2 0.7-3.2 0.7-2.9-0.1-3.4-2.3-3.4-5.9zm8.7 16.9h11.2v-58.7c0-14.3-4.6-19.7-16.5-19.7-11.4 0-16.5 4.7-16.5 18.8v9.7h13v-9.7c0-5.5 0.8-6.9 3.3-6.9s3.3 1.2 3.3 6.9v15.5c-12.5-1.7-19.9 3.7-19.9 15.9v15.5c0 9.4 3.7 13.6 10.7 13.6 4.7 0 8-2.5 10.1-5.5 0.5 1.7 0.9 3.5 1.3 4.6zm-45.6-86.4c4.2 0 5.4 2.4 5.4 7.1v31.2c0 4.6-1.2 6.9-5.4 6.9h-2.2v-45.1h2.2zm1 57.1c11.2 0 17.7-6.6 17.7-20.2v-29.4c0-13.6-6.5-19.9-17.7-19.9h-16.5v98.9h13.3v-29.4zm-53.9-31.3c0-4.4 1-5.8 3.3-5.8 2.4 0 3.3 1.4 3.3 5.8v16.8h-6.6zm19.9 42.2v-11.8h-13.3v13.3c0 4.4-0.8 5.8-3.3 5.8s-3.3-1.4-3.3-5.8v-18.3h19.9v-24c0-15.6-6.2-19.2-16.6-19.2s-16.6 3.6-16.6 19.2v40.7c0 15.6 6.2 19.2 16.6 19.2 10.4 0.1 16.6-3.5 16.6-19.1zm-50.3 18.4h11.2v-77.5h-13.3v65.9c-1 0.3-2.1 0.6-3.3 0.6-2.4 0-3.3-1.4-3.3-4.6v-61.9h-13.3v65.8c0 9 4.6 12.6 10.4 12.6 5.1 0 8.3-2.8 10.4-5.5 0.4 1.8 0.8 3.5 1.2 4.6zm-53.6 6.4c0-1.4 0.3-2.5 1-3.6 2.1 0.7 4.4 1.1 7.1 1.2 5.5 0.4 7.2 1 7.2 3.3 0 2.9-2.5 3.9-6.6 3.9-4.6 0-8.7-1.2-8.7-4.8zm11-67v29.6c0 4.6-0.7 5.8-3.3 5.8-2.4 0-3.3-1.2-3.3-5.8v-29.6c0-4.4 1.1-5.8 3.3-5.8 2.5 0 3.3 1.3 3.3 5.8zm15.5 66.2c0-9-4.4-13-13-14.1-9.4-1.1-12.2-1.7-12.2-4.2 0-0.3 0.1-0.7 0.4-1 1.8 0.4 3.7 0.6 6 0.6 10.5 0 16.6-3.6 16.6-19.2v-26.7c0-2.6-0.1-4.8-0.6-6.8l3-0.8c0.4-3.6 0.8-7.2 0.8-10.7 0-0.7-0.4-1-1.1-1-3 0-5.4 1.2-6.8 3.5-2.9-2.6-6.9-3.5-12-3.5-10.4 0-16.6 3.6-16.6 19.2v26.7c0 8.9 2.1 14 5.7 16.6-2.9 2.1-4.8 4.8-4.8 8.3 0 3.7 1.7 6.4 4.4 8.2-3.5 2.1-6.1 5.4-6.1 9.3 0 7.2 6.2 10.8 18.6 10.8 12.5 0 17.7-6.8 17.7-15.2zm-61.1-22.5v-11.9c0-5 1.7-6.8 6.6-6.9v24c-1.1 0.4-2.2 0.7-3.2 0.7-2.8-0.1-3.4-2.3-3.4-5.9zm8.7 16.9h11.2v-58.7c0-14.3-4.6-19.7-16.5-19.7-11.4 0-16.5 4.7-16.5 18.8v9.7h13v-9.7c0-5.5 0.8-6.9 3.3-6.9s3.3 1.2 3.3 6.9v15.5c-12.5-1.7-19.9 3.7-19.9 15.9v15.5c0 9.4 3.7 13.6 10.7 13.6 4.7 0 8-2.5 10.1-5.5 0.5 1.7 0.9 3.5 1.3 4.6zm-47.8-60.6c0-4.4 1-5.8 3.3-5.8s3.3 1.4 3.3 5.8v16.8h-6.6zm19.9 42.2v-11.8h-13.3v13.3c0 4.4-0.8 5.8-3.3 5.8s-3.3-1.4-3.3-5.8v-18.3h19.9v-24c0-15.6-6.2-19.2-16.6-19.2s-16.6 3.6-16.6 19.2v40.7c0 15.6 6.2 19.2 16.6 19.2 10.4 0.1 16.6-3.5 16.6-19.1zm-37 6h-10.9v-86.4h-13.3v98.9h24.2z" fill="#1d428a"/>
 </g>
</svg>
