<svg width="1e3" height="321.8" version="1.1" viewBox="0 0 1e3 321.8" xml:space="preserve" xmlns="http://www.w3.org/2000/svg">
<g transform="matrix(5.3633 0 0 5.3633 -88.792 -175.37)" fill="#fff">
	<path d="m45 76-6.3 11-0.7-11.1h-3.1l-6.5 11.1-0.4-11h-3.8l1.2 16.4h3.3l6.3-10.5 0.8 10.4h3.3l10-16.4h-4.1z"/>
	<path d="m58.9 75.9h-3.4l-11.4 16.3h3.9l2.5-3.6h6.9l0.5 3.6h3.7zm-6.3 9.5 3.6-5.4 0.7 5.4z"/>
	<path d="m72.4 82.7c-2.2-0.9-2.8-1.3-2.8-2.1s0.9-1.7 2.4-1.7 2.9 0.6 3.9 1.7l2.5-2.5c-1.6-1.7-3.8-2.5-6.1-2.4-1.8-0.1-3.6 0.6-5 1.9-0.9 0.9-1.4 2.2-1.4 3.5 0 2.4 1.9 3.5 4 4.4s2.8 1.3 2.8 2.1c0 1-1 1.7-2.5 1.7-1.8 0-3.4-0.8-4.6-2.1l-2.7 2.3c1.5 2 4 3 7.1 3 1.8 0.1 3.6-0.6 5-1.9 1-0.9 1.5-2.2 1.5-3.6-0.2-2.3-1.9-3.4-4.1-4.3z"/>
	<path d="m92.5 76-1.7 6.4h-6.5l1.7-6.4h-3.6l-4.4 16.2h3.6l1.8-6.5h6.5l-1.7 6.5h3.6l4.2-16.2z"/>
	<path d="m101.1 80.1c-0.2-0.1-0.4-0.3-0.6-0.4l-0.2-0.2c-0.4-0.5-0.6-0.4-0.8-0.7l-0.2-0.3-3.7 13.7h3.6l3.2-11.8c-0.4 0.1-0.9-0.1-1.3-0.3z"/>
	<path d="m118.6 76-2.8 10.3-4.8-10.3h-3.3l-4.4 16.3h3.5l2.8-10.7 4.9 10.7h3l4.4-16.3z"/>
	<path d="m130.8 86h3.6l-0.8 2.7c-0.9 0.4-1.9 0.6-2.9 0.6-2.3 0-4.2-1.4-4.2-3.9 0-1.7 0.7-3.4 1.9-4.6 1.1-1.1 2.7-1.8 4.3-1.8s3.2 0.6 4.3 1.9l2.6-2.3c-1.1-1.5-3.2-2.8-6.6-2.8-2.7 0-5.3 1.1-7.3 3-1.8 1.8-2.9 4.2-2.9 6.8 0 4.9 3.9 7.1 7.6 7.1 2.1 0 4.1-0.5 5.9-1.5l2.3-8.1h-7.1z"/>
	<path d="m141.9 76-0.9 3.3h5l-3.5 13h3.5l3.5-13h4.9l0.9-3.3z"/>
	<path d="m164.3 75.7c-5.4 0-9.7 4.3-9.8 9.6-0.1 3.9 2.9 7.1 6.8 7.2h0.6c5.4 0 9.7-4.3 9.8-9.6 0.1-3.9-2.9-7.1-6.8-7.2h-0.6zm1.8 11.9c-1 1-2.3 1.6-3.8 1.6-2.1 0.2-4-1.4-4.1-3.5v-0.6c0-1.7 0.7-3.3 1.9-4.5 1-1 2.3-1.6 3.8-1.6 2.1-0.2 4 1.4 4.1 3.5v0.6c0 1.7-0.7 3.3-1.9 4.5z"/>
	<path d="m187.7 76-2.8 10.3-4.7-10.3h-3.3l-4.4 16.3h3.5l2.9-10.7 4.9 10.7h3.1l4.4-16.3z"/>
</g>
<g transform="matrix(5.3633 0 0 5.3633 -88.792 -175.37)">
	<path d="m45.7 37c0.8-1.4 2.1-2.6 3.6-3.3 2.6-1.1 5.6-0.7 7.8 1.2 2 1.7 2.9 4.3 2.5 6.9 0.5-0.2 1-0.3 1.5-0.6 3.9-1.2 8.1 1 9.3 4.9 0.5 1.6 0.4 3.3-0.1 4.8-0.5 1.2-1.2 2.2-2.1 3l0.1 0.1c3 0.3 5.5 2.2 6.5 5 0.9 2.7 0.1 5.6-1.9 7.6-1.6 1.5-3.8 2.3-6 2.1h-42.2c-3.2 0.2-6.3-1.6-7.6-4.5-1.1-2.7-0.5-5.9 1.5-8 1.3-1.3 3-2.1 4.8-2.2-2-1.8-3-4.5-2.4-7.2 0.5-2.4 2.2-4.4 4.5-5.3 2.1-0.8 4.4-0.6 6.3 0.4l0.1-0.1c-0.5-2.9 0.8-5.9 3.3-7.5 2.5-1.5 5.6-1.5 8.1 0.1 1 0.7 1.8 1.6 2.4 2.6z" fill="#fff"/>
	<path d="m57.6 38.1c0.8 1.9 0.5 4.1-0.6 5.9l-7.3 16.4-0.1 0.1-2.6-16.7c-0.2-1.6 1.5-2.3 2.5-3 0-0.2-0.3-0.2-0.5-0.3h-2.5l-0.1-0.1c0-2.1 1.1-4 3-5 2.1-1.1 4.7-0.9 6.5 0.6 0.8 0.6 1.3 1.3 1.7 2.1z" fill="#fff"/>
	<path d="m44.2 37.6c0.7 1.1 0.9 2.4 0.7 3.7l-3 19.1-0.8-1.5-7.5-16.7c-1-3 0.7-6.3 3.7-7.3 1.3-0.4 2.7-0.4 4 0.2 1.2 0.5 2.1 1.3 2.8 2.4z" fill="#fff"/>
	<path d="m68.4 45.6c1 1.9 0.8 4.1-0.3 5.9-0.8 1-1.7 1.8-2.8 2.4l-15.5 10.6 0.2-0.5 8.2-18.5c1.5-2.8 5-3.9 7.9-2.3 1 0.5 1.8 1.4 2.3 2.4z" fill="#fff"/>
	<path d="m33.3 45.5 8.5 19h-0.2l-17.1-11.9c-1.7-1.4-2.5-3.7-1.9-5.9 0.5-1.7 1.8-3.2 3.5-3.9 2.7-0.9 5.8 0.2 7.2 2.7z" fill="#fff"/>
	<path d="m72.9 59c0.8 1.9 0.5 4.1-0.7 5.8-1.1 1.5-2.9 2.3-4.8 2.2h-18.3l15.4-10.7c2.8-1.7 6.4-0.8 8.1 2 0.1 0.3 0.2 0.5 0.3 0.7z" fill="#fff"/>
	<path d="m18.6 59c-1.3 2.9 0 6.3 2.9 7.6 0.8 0.3 1.6 0.5 2.5 0.5h18.3l-15.3-10.7c-2.8-1.7-6.4-0.7-8.1 2.1-0.1 0.1-0.2 0.3-0.3 0.5z" fill="#fff"/>
	<path d="m57.6 38.1c0.8 1.9 0.5 4.1-0.6 5.9l-7.3 16.4-0.1 0.1-2.6-16.7c-0.2-1.6 1.5-2.3 2.5-3 0-0.2-0.3-0.2-0.5-0.3h-2.5l-0.1-0.1c0-2.1 1.1-4 3-5 2.1-1.1 4.7-0.9 6.5 0.6 0.8 0.6 1.3 1.3 1.7 2.1z" fill="#5a5a96"/>
	<path d="m44.2 37.6c0.7 1.1 0.9 2.4 0.7 3.7l-3 19.1-0.8-1.5-7.5-16.7c-1-3 0.7-6.3 3.7-7.3 1.3-0.4 2.7-0.4 4 0.2 1.2 0.5 2.1 1.3 2.8 2.4z" fill="#b42846"/>
	<path d="m68.4 45.6c1 1.9 0.8 4.1-0.3 5.9-0.8 1-1.7 1.8-2.8 2.4l-15.5 10.6 0.2-0.5 8.2-18.5c1.5-2.8 5-3.9 7.9-2.3 1 0.5 1.8 1.4 2.3 2.4z" fill="#008cc3"/>
	<path d="m33.3 45.5 8.5 19h-0.2l-17.1-11.9c-1.7-1.4-2.5-3.7-1.9-5.9 0.5-1.7 1.8-3.2 3.5-3.9 2.7-0.9 5.8 0.2 7.2 2.7z" fill="#e16428"/>
	<path d="m72.9 59c0.8 1.9 0.5 4.1-0.7 5.8-1.1 1.5-2.9 2.3-4.8 2.2h-18.3l15.4-10.7c2.8-1.7 6.4-0.8 8.1 2 0.1 0.3 0.2 0.5 0.3 0.7z" fill="#00a846"/>
	<path d="m18.6 59c-1.3 2.9 0 6.3 2.9 7.6 0.8 0.3 1.6 0.5 2.5 0.5h18.3l-15.3-10.7c-2.8-1.7-6.4-0.7-8.1 2.1-0.1 0.1-0.2 0.3-0.3 0.5z" fill="#f0b428"/>
	<path d="m129.2 48.9c-1.5-1.1-3.6-0.2-3.6-0.2-4 1.3-8.3 4.5-11.8 7.5 1.6-1.8 3.4-3.8 5.4-5.8 0 0 1.4-0.7 0.3-1.8s-2.4-2.1-2.4-2.1-0.5-0.5-0.8-0.3-0.1 0.7 0 0.8c-0.2 0.3-0.4 0.6-0.7 0.9l-0.1 0.1c-1.3 1-2.8 1.9-4.3 2.5-2.3 0.8-5.3 1.8-8.4 3-0.2-0.2-0.4-0.4-0.7-0.5-3.8-2.4-15.1-2.6-19.4-2.9-4.7-0.4-5.8-0.7-5.9-1.4-0.2-1 1.3-2.4 3.4-4 8.2-6 19.6-7.2 23.2-7.2 4 0.1 5.2 0.5 5.2 0.8 0 0.2 0 0.4-0.1 0.5-0.7 0.7-1.6 1.4-2.5 1.8-2.5 1.6-5 2.9-7.7 4.2-0.9 0.8 0.8 1 0.8 1 2.3-0.1 4.6-0.6 6.7-1.5 4.4-1.7 5.4-3.2 5.5-4.1 0.1-1-0.1-2-0.4-3-1.1-4.7-8.6-4.5-8.6-4.5-8.9 0.1-17.6 3-24.8 8.2-4.4 3.2-3.8 5.6-3.8 5.6s-0.1 4.5 3.3 5.6c1.5 0.5 3.1 0.8 4.6 0.9 4.4 0.4 7.6 0.5 12.1 0.8 1.9 0.1 3.9 0.4 5.8 0.8-3.7 1.3-7.3 2.8-10.8 4.5-2.9 1.5-7.3 3.9-8.8 5.8-1.7 2.1-0.4 3.8-0.3 3.8 0.3 0.6 1.6 2.5 6.4 1.9 2.6-0.4 5.1-1.3 7.4-2.6 2.5-1.4 4.8-3 6.9-5 2.8-2.7 3.6-4.8 3.6-6.6 0-0.6-0.1-1.2-0.3-1.7 3.3-1.2 6.3-2.1 8.3-2.6-4.6 5.5-11.8 15.3-11.7 21.7 0 0.8 0.1 1.6 0.4 2.3l0.6 1.2 0.6 0.9s0.7 0.6 1 0.2-0.5-0.8-0.5-0.8c-0.3-0.4-0.4-1-0.3-1.5 0.1-0.8 0.3-1.6 0.5-2.3 0.1-0.4 0.3-0.9 0.5-1.4l1.1-2.6c1.9-3.2 4.2-6.2 6.8-8.8 7.3-7.2 13.8-10.2 15.1-10.6 1-0.3 1.4-0.2 1.6-0.1 0.9 0.8-1.4 4.6-1.4 4.6l-0.1 0.2c-4.2 6.1-6.6 7.8-8.8 8.6-0.9 0.3-1.9 0.3-2.7-0.2-0.5-0.4-0.7-0.9-0.8-1.5 0.1-0.6-0.2-0.6-0.2-0.6-1 0.4-0.5 2.2-0.5 2.2 0.8 3.5 5.6 4.4 10.2 0.9 6-4.5 7.2-8.1 8.1-10.3 1-2.5-0.7-4.2-2.2-5.3zm-28 7.7c-1.5 2.6-6.7 5.8-8.4 6.8-1.9 1.1-3.8 2-5.8 2.8-3 1.1-5.6 1.6-5.9 0.8-0.1-0.3-0.3-0.4 0.7-1.5 2.4-2 5-3.7 7.8-5.1 3.8-1.9 7.7-3.6 11.7-5 0.2 0.5 0.1 0.9-0.1 1.2z" fill="#f0b428"/>
	<path d="m203 46.3c-0.3-2-3.4-2.5-8.6-2-2.8 0.2-8.1 1-12.8 1.7l4.7-5.2c0.4-0.2 0.6-0.7 0.3-1.1-0.1-0.1-0.2-0.3-0.3-0.3-0.7-0.5-1.4-1-2.2-1.4 0 0-0.5-0.5-1.3 0.3-2.7 2.7-5.3 5.7-7.7 8.7-4.7 0.6-10.1 1-11.4 1.2 0 0-0.7 0.1-0.9-0.3 0 0-0.6-0.4-0.5 0.6 0 0 0.1 2.7 2.7 2.2 1.5-0.3 4.5-0.7 8.2-1.2-0.6 0.8-1.6 2-2.6 3.5-4.6 5.1-12.5 13.2-14.3 12.1 0 0-0.4-0.4-0.1-1.2 0.4-1.3 1.9-3.7 4.9-7.2 0 0 1.4-1.6 1.3-2.4-0.1-1.1-0.7-1.1-0.7-1.1s-4-1.2-5.3-2.4c0.6-0.9 1.6-2.8 0.3-3.7 0 0-1.7-1.1-2.9 1.5-0.5 0.9-0.4 2 0.2 2.9-0.9 1-3.4 3.5-6 4.2 0-0.7-0.5-1.4-1.1-1.7 0 0-1.4-0.7-2.1 0.2s-0.1 1.7 0.7 2.3c-0.5 1.1-1.1 2.1-1.8 3-1.2 1.9-2.8 3.6-4.6 4.9-0.7 0.5-3.5 2.1-4.2-0.1-0.4-1.2 0.3-3.6 2-6.3 3.6-5.5 8.5-7.4 9.9-6.5 0.4 0.3 0.5 0.9 0.3 1.3 0 0-0.1 0.4 0.4 0.4s0.8-0.4 0.9-0.8c0.2-1.2-0.9-2.5-2.1-3.5-0.4-0.3-0.8-0.5-1.3-0.7-1.7-0.4-3.5-0.2-5 0.7-3.2 1.7-5.7 4.3-7.4 7.4-0.9 1.5-1.4 3.1-1.4 4.8 0 1.1 0.2 2.1 0.8 3.1 0.8 1.1 1.8 2 2.9 2.7 3.1 1.6 6.8-1.4 8.2-2.7 2.1-1.9 3.7-4.1 4.9-6.6 3.3-0.8 6.5-4.1 7.6-5.3 0.2 0.1 0.4 0.3 0.6 0.4l2 1c-0.9 1-1.7 2-2.4 3.1-1.3 1.8-4.4 6-2.4 8.6 0.4 0.7 1.1 1.2 1.8 1.5 2.7 1.1 5.7-1.6 10.4-6.5 0.7-0.8 1.4-1.5 2.1-2.3-0.3 0.6-0.6 1.2-0.8 1.8-1.1 2.8-0.5 5.4 1.8 6.9 1.4 0.9 3.1 0.5 5.1-0.8 4-2.6 9.9-8.5 13.6-12.5-0.1 0.5-0.3 1.1-0.4 1.8-0.9 4.9-3.9 11.3-5.1 9.7 0 0.2 0-1.1-0.7-1.6-0.4-0.5-1.2-0.6-1.8-0.2-0.9 0.6-0.4 2.6 2.2 4 0.5 0.3 1.1 0.4 1.6 0.5 1.4 0.2 4.3 0.3 7.7-2.3 3.3-2.6 6.5-5.4 9.5-8.4 0 0 1-0.9 0.1-1.4-0.3-0.1-0.7-0.1-0.9 0.2l-0.5 0.5c0.1-0.1-6.9 6.6-11.1 8.9 0.7-1 1.2-2.2 1.4-3.4 0.3-1.2 0.8-4.4 1.3-6.7 0.2-0.9 0.5-1.8 0.8-2.6 0.5-1.1 1.2-1 1.4-1.4s0.1-0.5-0.2-0.8l-0.9-0.9c-0.4-0.4-0.9-0.7-1.4-0.8-0.3-0.1-0.6 0-0.8 0.2-0.4 0.4-0.8 0.8-1.1 1.3-2.5 2.7-10.8 11.5-15.8 14.5 0.3-0.2-4.1 2.8-3.2-1 0.4-1.8 2.2-5.7 7.1-11.8l2.6-2.9c2.1-0.3 4.3-0.6 6.5-1 0 0 19.2-2.4 14 1.7 0 0 0.3 0.7 1.1 0 1.6-1.6 2.3-2.7 2.2-3.3z" fill="#f0b428"/>
</g>
</svg>
