<svg width="1e3" height="314.56" version="1.1" viewBox="0 0 1e3 314.56" xml:space="preserve" xmlns="http://www.w3.org/2000/svg">
<g fill="#fff" stroke-width="5.2079"><path d="m86.49 243.21c-5.7287-5.7287-13.54-7.8118-24.998-7.8118h-24.998l-21.352 79.16h17.186l6.2494-23.956h15.624c10.937 0.52079 21.873-3.1247 30.206-10.937 5.2079-5.2079 7.8118-12.499 7.8118-20.311 0.52079-6.2494-1.5624-11.978-5.7287-16.144zm-15.624 26.56c-4.1663 3.6455-9.895 5.7287-15.624 5.2079h-11.978l6.2494-23.956h11.457c4.1663-0.52078 7.8118 1.0416 10.937 3.6455 1.5624 1.5624 2.6039 4.1663 2.6039 6.7702s-1.5624 5.7287-3.6455 8.3326z"/><path d="m164.09 234.88-8.3326 31.247h-31.768l8.3326-31.247h-17.186l-21.352 79.16h17.707l8.8534-31.768h31.768l-8.8534 31.768h17.186l21.352-79.16z"/><path d="m203.67 234.88-21.352 79.16h17.707l20.831-79.16z"/><path d="m243.25 298.42 16.665-63.015h-17.186l-21.352 79.16h56.766l4.1663-15.624z"/><path d="m358.86 234.36h-16.665l-55.203 79.68h18.748l11.978-17.707h33.33l2.6039 17.707h17.707zm-30.726 46.871 17.186-26.039 3.6455 26.039z"/><path d="m465.1 255.71c-3.6455 0-7.291-0.52079-10.937-2.0832-3.6455-2.0832-7.291-4.6871-9.895-8.3326-2.0832-3.1247-3.6455-5.7287-5.2079-8.8534-3.6455-0.52079-7.8118-1.0416-11.457-1.0416h-22.915l-21.352 79.16h29.164c18.228 0 31.768-5.2079 41.663-14.582 8.3326-8.3326 13.02-19.269 13.02-31.247 0-4.6871-0.52078-9.3742-2.0832-13.02zm-23.956 33.33c-7.291 6.7702-16.665 9.895-26.56 9.3742h-9.895l13.02-47.392h8.3326c6.7702-0.52078 13.02 1.5624 18.228 5.7287 3.1247 3.1247 4.6871 7.8118 4.6871 12.499 0 7.291-2.6039 14.061-7.8118 19.79z"/><path d="m549.47 250.5 4.1663-15.624h-58.849l-21.352 79.16h59.37l4.1663-15.624h-42.705l4.6871-16.665h36.455l4.1663-15.103h-36.455l4.1663-16.144z"/><path d="m572.38 298.42 17.186-63.015h-17.186l-21.352 79.16h56.766l4.1663-15.624z"/><path d="m694.77 243.21c-5.7287-5.7287-13.54-7.8118-24.998-7.8118h-24.998l-21.352 79.16h17.186l6.2494-23.956h15.103c10.937 0.52079 21.873-3.1247 30.206-10.937 5.2079-5.2079 8.3326-12.499 7.8118-20.311 1.0416-5.7287-1.0416-11.978-5.2079-16.144zm-15.624 26.56c-4.1663 3.6455-9.895 5.7287-15.624 5.2079h-11.978l6.2494-23.956h11.457c4.1663-0.52078 7.8118 1.0416 10.937 3.6455 1.5624 1.5624 2.6039 4.1663 2.6039 6.7702s-1.5624 6.2494-3.6455 8.3326z"/><path d="m772.37 234.88-8.3326 31.247h-31.768l8.3326-31.247h-17.186l-21.352 79.16h17.186l8.3326-31.768h31.768l-8.3326 31.768h17.186l21.352-79.16z"/><path d="m811.95 234.88-21.352 79.16h17.186l21.352-79.16z"/><path d="m894.23 234.36h-16.665l-55.203 79.68h18.748l11.978-17.707h33.33l2.6039 17.707h17.707zm-30.726 46.871 17.186-26.039 3.6455 26.039z"/></g>
<g transform="matrix(5.2079 0 0 5.2079 -75.995 -167.69)">
	<path d="m44.6 36.9c0.9-1.5 2.1-2.6 3.7-3.4 2.7-1.1 5.8-0.7 8 1.2 2 1.7 3 4.4 2.6 7.1 0.5-0.2 1-0.3 1.5-0.6 4-1.3 8.3 1 9.5 5 0.5 1.6 0.5 3.4-0.1 4.9-0.5 1.2-1.2 2.3-2.2 3.1l0.1 0.1c3 0.3 5.6 2.3 6.6 5.2 0.9 2.8 0.1 5.8-1.9 7.8-1.7 1.5-3.9 2.3-6.2 2.2h-43.2c-3.3 0.3-6.5-1.6-7.8-4.7-1.2-2.8-0.6-6.1 1.6-8.2 1.3-1.3 3.1-2.1 4.9-2.3-2.1-1.8-3.1-4.7-2.5-7.4 0.5-2.5 2.3-4.5 4.6-5.4 2.1-0.8 4.5-0.6 6.5 0.4l0.1-0.1c-0.5-3 0.8-6.1 3.4-7.7s5.8-1.5 8.3 0.1c1 0.7 1.9 1.6 2.5 2.7z" fill="#fff"/>
	<path d="m56.8 38c0.9 1.9 0.4 4.3-0.6 6l-7.5 16.9-0.1 0.1-2.7-17c-0.2-1.6 1.5-2.3 2.6-3.1 0-0.3-0.3-0.3-0.5-0.3h-2.5l-0.1-0.1c0-2.1 1.2-4.1 3.1-5.1 2.1-1.1 4.7-0.9 6.6 0.7 0.7 0.4 1.3 1.1 1.7 1.9z" fill="#5a5a96"/>
	<path d="m43 37.5c0.7 1.2 0.9 2.5 0.8 3.8l-3.1 19.6m0 0.1-0.8-1.6-7.7-17.1c-1-3.1 0.7-6.4 3.8-7.5 1.3-0.4 2.8-0.4 4.1 0.2 1.2 0.5 2.2 1.4 2.9 2.5z" fill="#b42846"/>
	<path d="m67.9 45.7c1 1.9 0.9 4.2-0.3 6-0.8 1-1.8 1.8-2.9 2.5l-15.9 10.9 0.2-0.5 8.4-19c1.6-2.9 5.3-3.9 8.2-2.3 1 0.6 1.8 1.4 2.3 2.4z" fill="#008cc3"/>
	<path d="m31.8 45.6 8.8 19.5h-0.2l-17.6-12.1c-1.8-1.5-2.5-3.8-1.9-6.1 0.5-1.8 1.8-3.3 3.6-4 2.7-1 5.9 0.1 7.3 2.7z" fill="#e16428"/>
	<path d="m72.5 59.5c0.9 2 0.6 4.3-0.7 6-1.2 1.5-3 2.4-4.9 2.3h-18.8l15.8-11c2.9-1.7 6.6-0.8 8.3 2.1l0.3 0.6z" fill="#00a846"/>
	<path d="m16.8 59.5c-1.3 3 0 6.5 3 7.8 0.8 0.4 1.7 0.5 2.6 0.5h18.8l-15.8-11c-2.9-1.7-6.6-0.8-8.3 2.1-0.1 0.1-0.2 0.3-0.3 0.6z" fill="#f0b428"/>
	<path d="m130.3 49.1c-1.5-1.2-3.7-0.3-3.7-0.3-4.1 1.3-8.6 4.6-12.1 7.7 1.6-1.8 3.4-3.9 5.5-6 0 0 1.5-0.8 0.3-1.9-1.1-1.1-2.5-2.2-2.5-2.2s-0.5-0.5-0.8-0.3-0.1 0.7 0 0.8c-0.2 0.4-0.4 0.7-0.7 1l-0.1 0.1c-1.4 1-2.9 1.9-4.4 2.6-2.4 0.9-5.4 1.9-8.6 3-0.2-0.2-0.4-0.4-0.7-0.5-3.9-2.4-15.5-2.6-20-3-4.8-0.4-5.9-0.7-6.1-1.5-0.2-1 1.3-2.5 3.5-4.1 8.4-6.2 20-7.4 23.8-7.3 4.1 0 5.3 0.5 5.3 0.8 0 0.2 0 0.4-0.1 0.5-0.8 0.8-1.6 1.4-2.6 1.9-2.5 1.6-5.2 3-7.9 4.3-0.9 0.8 0.8 1 0.8 1 2.4-0.1 4.7-0.6 6.9-1.5 4.5-1.7 5.6-3.3 5.7-4.2 0.1-1.1 0-2.1-0.4-3.1-1.2-4.9-8.9-4.7-8.9-4.7-9.2 0.1-18.1 3.1-25.5 8.4-4.5 3.3-3.8 5.7-3.8 5.7s-0.1 4.6 3.4 5.7c1.5 0.5 3.1 0.8 4.8 0.9 4.6 0.7 7.9 0.8 12.6 1.1 2 0.1 4 0.4 5.9 0.8-3.8 1.4-7.5 2.9-11.1 4.7-3 1.5-7.4 4-9 6-1.7 2.2-0.4 3.9-0.3 3.9 0.3 0.6 1.6 2.6 6.5 2 2.7-0.5 5.3-1.4 7.6-2.7 2.6-1.4 4.9-3.1 7-5.2 2.9-2.8 3.7-4.9 3.7-6.8 0-0.6-0.1-1.2-0.3-1.8 3.5-1.2 6.5-2.1 8.6-2.7-4.8 5.8-12.4 16-12 22.6 0 1.2 0.4 2.3 1 3.2 0.2 0.2 0.3 0.5 0.5 0.7l0.1 0.2c0.1 0.1 0.2 0.1 0.3 0.2 0.2 0.1 0.6 0.3 0.7 0 0.3-0.4-0.6-0.8-0.6-0.8-0.3-0.5-0.4-1-0.3-1.6l0.3-1.5c0.2-0.8 0.4-1.6 0.7-2.3l1.2-2.6c1.9-3.3 4.2-6.3 6.9-9 7.6-7.3 14.3-10.3 15.6-10.8 1-0.3 1.4-0.2 1.6-0.1 1 0.9-1.4 4.7-1.4 4.7l-0.1 0.2c-4.3 6.2-6.8 8-9 8.8-0.9 0.3-1.9 0.2-2.8-0.3-0.5-0.4-0.7-1-0.8-1.6 0.1-0.7-0.2-0.6-0.2-0.6-1.1 0.4-0.5 2.2-0.5 2.2 0.8 3.5 5.7 4.5 10.4 1 6.2-4.6 7.4-8.3 8.3-10.6 0.9-2.2-0.7-3.9-2.2-5.1zm-28.8 8c-1.6 2.7-6.8 6-8.6 6.9-1.9 1.1-3.9 2.1-6 2.9-3.1 1.1-5.8 1.6-6 0.9-0.1-0.3-0.3-0.5 0.7-1.5 2.4-2.1 5.1-3.8 8-5.2 3.9-2 7.9-3.7 12-5.2 0.1 0.3 0.1 0.8-0.1 1.2z" fill="#f0b428"/>
	<path d="m206 46.5c-0.3-2-3.4-2.5-8.9-2.1-2.9 0.2-8.3 1-13.1 1.8l4.8-5.3c0.4-0.2 0.6-0.7 0.4-1.1-0.1-0.2-0.2-0.3-0.4-0.4-0.7-0.5-1.5-1-2.3-1.3 0 0-0.5-0.5-1.3 0.3-2.8 2.8-5.4 5.8-7.9 9-4.8 0.6-10.3 1-11.7 1.2 0 0-0.7 0.2-1-0.3 0 0-0.6-0.4-0.5 0.6 0 0 0.1 2.8 2.8 2.3 1.5-0.3 4.6-0.7 8.4-1.2-0.6 0.8-1.6 2.1-2.7 3.6-4.8 5.2-12.9 13.6-14.7 12.5 0 0-0.4-0.4-0.1-1.3 0.4-1.3 1.9-3.7 5-7.4 0 0 1.4-1.7 1.4-2.4-0.1-1.1-0.7-1.1-0.7-1.1s-4.1-1.2-5.5-2.4c0.6-0.9 1.6-2.9 0.3-3.8 0 0-1.7-1.1-3 1.5-0.5 0.9-0.5 2.1 0.2 3-0.9 1-3.5 3.5-6.1 4.3-0.1-0.7-0.5-1.4-1.1-1.7 0 0-1.4-0.7-2.2 0.2s-0.1 1.8 0.7 2.4c-0.5 1-1 2-1.7 3-1.2 2-2.8 3.7-4.8 5-0.7 0.5-3.6 2.1-4.3-0.1-0.4-1.3 0.3-3.7 2.1-6.4 3.6-5.7 8.8-7.5 10.1-6.7 0.4 0.3 0.5 0.9 0.3 1.3 0 0-0.1 0.4 0.4 0.4s0.8-0.4 0.9-0.9c0.2-1.2-0.9-2.6-2.1-3.6-0.4-0.3-0.8-0.5-1.3-0.8-1.7-0.4-3.6-0.2-5.1 0.7-3.2 1.7-5.9 4.4-7.6 7.6-0.9 1.5-1.4 3.2-1.4 5 0 1.1 0.3 2.2 0.8 3.2 0.8 1.1 1.8 2.1 3 2.8 3.2 1.6 6.9-1.5 8.4-2.8 2.1-1.9 3.8-4.2 5-6.8 3.4-0.9 6.7-4.2 7.8-5.4 0.2 0.1 0.4 0.3 0.6 0.4l2 1.1c-0.9 1-1.7 2-2.4 3.1-1.3 1.8-4.5 6.1-2.4 8.9 0.5 0.7 1.1 1.2 1.9 1.6 2.7 1.1 5.8-1.6 10.6-6.7 0.8-0.8 1.5-1.6 2.2-2.4-0.3 0.6-0.6 1.2-0.8 1.8-1.1 2.9-0.5 5.5 1.9 7.1 1.4 0.9 3.2 0.5 5.3-0.9 4.1-2.7 10.1-8.8 13.9-12.8-0.1 0.5-0.3 1.2-0.4 1.8-0.9 5.1-4 11.6-5.2 9.9 0 0.2 0-1.1-0.7-1.7-0.5-0.5-1.2-0.6-1.8-0.2-0.9 0.6-0.4 2.7 2.2 4.1 0.5 0.3 1.1 0.5 1.7 0.5 1.4 0.3 4.4 0.3 7.9-2.3 3.4-2.7 6.7-5.5 9.8-8.6 0 0 1-0.9 0.1-1.5-0.3-0.1-0.7-0.1-0.9 0.2l-0.5 0.5c0.1-0.1-7.1 6.8-11.4 9.1 0.7-1 1.2-2.2 1.5-3.5 0.3-1.2 0.8-4.5 1.4-6.9 0.2-0.9 0.5-1.8 0.9-2.7 0.5-1.2 1.2-1.1 1.4-1.4s0.1-0.5-0.2-0.8l-0.9-0.9c-0.4-0.4-0.9-0.7-1.4-0.9-0.3-0.1-0.6 0-0.8 0.2-0.5 0.4-0.8 0.8-1.1 1.3-2.6 2.8-11 11.8-16.2 14.9 0.3-0.2-4.2 2.9-3.3-1.1 0.4-1.8 2.2-5.8 7.3-12.1l2.6-2.9c2.2-0.3 4.4-0.6 6.6-1 0 0 19.7-2.5 14.4 1.8 0 0 0.3 0.7 1.2 0 1.7-1.4 2.4-2.5 2.3-3.2z" fill="#f0b428"/>
</g>
</svg>
