<svg width="1e3" height="322.6" version="1.1" xmlns="http://www.w3.org/2000/svg">
 <g transform="scale(.28425)">
  <path d="m1219.8 820.33h68.136l-83.747 309.63h-68.136z" fill-rule="evenodd"/>
  <path transform="translate(0 18.206)" d="m278.82 1115.7c-25.189-2.9274-50.324-12.052-69.632-25.277-9.9708-6.8297-24.52-21.337-30.754-30.667-9.4895-14.2-16.191-30.011-19.922-47-1.5299-6.9667-1.8598-12.649-1.829-31.5 0.0328-20.066 0.32705-24.339 2.3066-33.5 12.593-58.275 50.401-106.1 104.3-131.93 14.95-7.1656 26.914-11.214 43.705-14.788 11.64-2.4777 14.526-2.6961 36.15-2.7351 20.62-0.0372 24.88 0.23735 34.763 2.2398 28.419 5.7586 48.678 16.468 68.332 36.122 8.9076 8.9076 21.893 25.534 20.74 26.555-2.179 1.9294-54.963 38.535-55.543 38.519-0.43553-0.0117-2.1043-1.8754-3.7084-4.1414-12.216-17.258-29.762-29.889-48.638-35.016-11.674-3.1706-34.59-3.1898-46.121-0.0388-18.642 5.0941-35.412 14.835-49.224 28.592-17.833 17.761-28.522 36.763-34.667 61.626-1.9604 7.9312-2.353 12.142-2.3781 25.5-0.0344 18.361 1.0688 23.779 7.617 37.41 3.2445 6.7536 5.7428 10.127 12.684 17.127 7.3778 7.4402 10.035 9.3811 18.144 13.251 13.959 6.6619 20.791 8.1285 37.5 8.0498 10.923-0.052 15.758-0.5319 22-2.1861 11.07-2.9335 28.211-11.69 39.34-20.097 5.1371-3.8803 9.6937-7.0552 10.126-7.0552s10.59 10.148 22.573 22.551c18.392 19.037 21.567 22.755 20.374 23.856-21.229 19.598-47.186 34.024-73.143 40.652-17.51 4.4707-45.621 6.1485-65.095 3.8852z"/>
  <path transform="translate(0 18.206)" d="m1823.2 797.88c-6.3633 0.0242-12.202 0.267-16.563 0.78125-32.774 3.8652-61.127 14.799-87.812 33.844-9.5034 6.7822-26.362 22.651-34.063 32.094-18.947 23.235-32.843 52.719-38.844 82.344-1.9715 9.7333-2.3121 14.349-2.3125 32.812-4e-4 18.878 0.2958 22.789 2.3438 31.938 3.0049 13.423 6.1734 22.209 12.469 34.531 19.313 37.802 57.698 63.62 103.19 69.406 10.056 1.2794 32.993 1.3036 44.312 0.062 22.392-2.455 41.437-8.1393 62.188-18.594 17.927-9.0323 30.202-17.712 44.375-31.344 22.948-22.071 38.343-46.471 48.188-76.438 13.071-39.787 11.628-82.77-3.875-115.81-18.057-38.485-50.417-63.355-94.875-72.875-8.2569-1.7681-24.72-2.8032-38.719-2.75zm-1.0626 62.031c1.4682 0.0201 2.929 0.0692 4.4063 0.15625 21.637 1.2744 37.949 8.0543 51.219 21.25 6.7781 6.7402 8.8934 9.6446 12.656 17.5 6.1308 12.798 7.7921 19.929 8.4063 35.938 0.5908 15.396-0.8561 25.629-5.7813 40.406-14.176 42.532-48.416 72.987-88.281 78.531-26.55 3.6929-53.386-3.9216-69.562-19.75-22.148-21.671-28.05-57.582-15.594-94.844 16.222-48.526 57.018-79.812 102.53-79.188z"/>
  <path transform="translate(0 18.206)" d="m659.34 800.75-214.59 311.2 71.58-0.1983 47.483-69.5h130.81l9.9375 69.281 69.188-0.2812-48.875-310.5zm13.344 81.781 13.438 100.22-80.656-1.4062z"/>
  <path transform="translate(0 18.206)" d="m1303.7 1111.8 82.486-308.97 155.7-0.034c6.6606 24.2 17.266 42.096 30.216 61.644l-134.34 0.24663-17.568 65.158 146.62 1.5757-15.237 60.557-148.02-0.18103-32.442 120z"/>
  <path transform="translate(0 18.206)" d="m2090.9 803.25-41.375 154c-22.754 84.7-41.365 154.11-41.375 154.25s15.269 0.25 33.969 0.25 34-0.2415 34-0.5625 5.85-22.375 13-49 13-48.649 13-48.938c0-0.2885 11.574-0.3968 25.719-0.25l25.719 0.25 23.656 49 23.625 49 38.656 0.2812 38.656 0.25-26-52c-14.304-28.604-26.031-52.429-26.031-52.937s1.4625-1.246 3.25-1.625c7.3681-1.5626 22.847-6.9692 31.625-11.063 26.289-12.258 46.584-32.118 56.031-54.812 6.1586-14.793 7.5863-23.023 7.5313-43.594-0.046-17.172-0.2466-19.137-2.75-27.312-11.11-36.283-39.228-57.101-86.188-63.875-6.6774-0.96328-26.49-1.3125-76.844-1.3125zm51.719 60.344 37.5 0.4375c40.479 0.46611 44.544 0.91974 55.062 6.25 18.713 9.4825 24.631 30.243 14.5 50.969-7.683 15.718-23.968 25.679-48.938 29.969-6.8507 1.177-17.195 1.5312-45.25 1.5312-20.003 0-36.375-0.3375-36.375-0.75s5.2861-20.456 11.75-44.562z"/>
  <path transform="translate(0 18.206)" d="m2434.2 802.73 62.978 0.0452 90.039 195.15 52.993-195.17 66.492 0.15698-82.175 308.86-58.087-0.02-93.298-201.3-54.778 200.8-66.758-0.1678z"/>
  <path transform="translate(0 18.206)" d="m3076 800.75-214.59 311.2 71.58-0.1983 47.483-69.5h130.81l9.9375 69.281 69.188-0.2812-48.875-310.5zm13.344 81.781 13.438 100.22-80.656-1.4062z"/>
  <path d="m1056.1 1130 16.824-61.5h-154.42l66.373-247h-67.492l-82.563 308.53z"/>
  <path d="m2807 820.33h68.136l-83.747 309.63h-68.136z" fill-rule="evenodd"/>
 </g>
 <g transform="translate(-3.0319e-5 2.5956e-6)">
  <g transform="matrix(.29482 0 0 .29656 1082.3 -163.84)">
   <g transform="matrix(15.203 0 0 -15.045 -3632.8 1032.3)">
    <path transform="translate(32.64 26.529)" d="m0 0c0.969 1.59 2.584 3.245 4.316 3.943 2.978 1.367 6.989 0.786 9.428-1.368 2.359-2.137 3.556-5.063 2.993-8.34 0.584 0.108 1.163 0.482 1.78 0.689 3.647 1.031 7.521-0.088 9.864-3.231 1.771-2.238 2.224-5.72 1.168-8.417-0.528-1.365-1.423-2.596-2.583-3.637l0.119-0.112c3.405-0.168 6.751-2.81 7.789-6.056 1.111-3.271 0.129-6.766-2.267-9.157-1.958-1.927-4.46-2.603-7.256-2.542h-50.701c-4.169-0.091-7.383 1.755-9.119 5.455-1.355 3.183-0.691 7.248 1.857 9.661 1.587 1.681 3.593 2.367 5.762 2.71-2.444 2.266-3.632 5.381-2.942 8.711 0.498 2.701 2.799 5.435 5.437 6.377 2.333 0.925 5.485 0.763 7.62-0.494l0.082 0.09c-0.646 3.678 0.988 6.991 4.028 9.021 2.715 1.834 7.066 1.793 9.732-0.161 1.191-0.736 2.179-1.989 2.893-3.142" fill="#fff"/>
    <path transform="translate(47.001 25.154)" d="m0 0c1.078-2.192 0.456-5.074-0.695-7.047l-8.796-19.801-0.072-0.084-3.19 20.081c-0.256 1.921 1.816 2.744 3.023 3.675-0.054 0.283-0.376 0.27-0.575 0.4l-2.966 0.032-0.088 0.094c9e-3 2.486 1.361 4.793 3.629 6 2.372 1.376 5.721 1.002 7.777-0.755 0.835-0.749 1.544-1.618 1.953-2.595" fill="#5f53ae"/>
    <path transform="translate(30.79 25.849)" d="m0 0c0.712-1.329 1.136-2.846 0.879-4.515l-3.585-22.99c0.014-0.038-0.013-0.064-0.047-0.075l-0.923 1.844-8.994 20.085c-0.84 2.589-0.058 5.289 1.816 7.139 1.896 1.93 5.032 2.456 7.504 1.403 1.318-0.563 2.566-1.611 3.35-2.891" fill="#c81a46"/>
    <path transform="translate(60.013 16.165)" d="m0 0c1.208-2.063 0.934-5.183-0.406-7.098-0.838-1.346-2.219-2.013-3.368-2.899l-18.633-12.786h-0.051l0.21 0.614 9.877 22.284c1.479 2.63 4.297 3.964 7.291 3.561 2.047-0.371 4.088-1.702 5.08-3.676" fill="#0e88d3"/>
    <path transform="translate(17.686 16.28)" d="m0 0 10.278-22.898h-0.17l-20.719 14.282c-2.11 1.772-2.966 4.435-2.251 7.126 0.534 2.017 2.209 3.901 4.193 4.645 3.259 1.194 6.934-0.073 8.669-3.155" fill="#f25c19"/>
    <path transform="translate(65.416 2.7327e-6)" d="m0 0c1.024-2.178 0.62-5.168-0.853-7.024-1.464-1.779-3.424-2.744-5.721-2.682l-22.091-0.018 18.507 12.872c1.812 1.166 4.557 1.378 6.527 0.436 1.528-0.592 2.957-2.089 3.631-3.584" fill="#33b540"/>
    <path d="m0 0c-1.036-2.178-0.632-5.168 0.844-7.024 1.467-1.779 3.427-2.744 5.723-2.682l22.097-0.018-18.51 12.872c-1.806 1.166-4.557 1.378-6.533 0.436-1.522-0.592-2.956-2.089-3.621-3.584" fill="#fab20b"/>
   </g>
   <g transform="matrix(1.3947 0 0 1.3934 -328.65 -476.28)">
    <g transform="matrix(17.401 0 0 -17.401 -1289.4 1050.7)">
     <path d="m0 0c-1.132-1.974-4.98-4.341-6.263-5.061-0.71-0.401-2.35-1.358-4.371-2.091-2.229-0.808-4.219-1.179-4.404-0.633-0.077 0.229-0.226 0.329 0.498 1.093 0.851 0.89 3.446 2.558 5.843 3.798 2.789 1.446 5.898 2.725 8.768 3.777 0.119-0.225 0.142-0.512-0.071-0.883m20.956 5.793c-1.097 0.851-2.659 0.18-2.659 0.18-3.003-0.957-6.242-3.353-8.807-5.592 1.176 1.35 2.507 2.804 4.025 4.374 0 0 1.081 0.556 0.25 1.375-0.829 0.817-1.815 1.591-1.815 1.591s-0.395 0.347-0.583 0.205c-0.187-0.142-0.048-0.523-0.012-0.578 0.033-0.052-0.494-0.697-0.494-0.697s-0.036-0.038-0.087-0.094c-0.87-0.759-2.443-1.519-3.242-1.88-1.723-0.63-3.923-1.372-6.292-2.214-0.136 0.134-0.294 0.263-0.484 0.383-2.83 1.771-11.292 1.925-14.541 2.165-3.509 0.264-4.299 0.493-4.43 1.074-0.17 0.755 0.936 1.823 2.521 2.979 6.139 4.478 14.614 5.389 17.358 5.343 3.012-0.047 3.856-0.4 3.902-0.621 0.047-0.212-0.097-0.376-0.097-0.376-0.485-0.566-1.151-0.92-1.869-1.382-2.757-1.785-5.752-3.104-5.752-3.104-0.655-0.61 0.617-0.764 0.617-0.764 1.749 0.057 3.427 0.479 5.004 1.083 3.263 1.249 4.047 2.375 4.14 3.046 0.161 1.158-0.335 2.369-0.272 2.263-0.836 3.547-6.456 3.404-6.456 3.404-4.852-0.017-12.116-1.4-18.566-6.131-3.306-2.423-2.806-4.159-2.806-4.159s-0.058-3.363 2.494-4.18c1.031-0.331 1.782-0.506 3.464-0.674 3.264-0.327 5.68-0.373 9.063-0.603 1.994-0.137 3.377-0.363 4.322-0.61-2.767-1.022-5.617-2.166-8.102-3.411-2.169-1.087-5.417-2.91-6.58-4.367-1.392-1.745-0.092-3.132-0.254-2.83 0.206-0.384 1.074-1.94 4.783-1.47 1.812 0.231 3.927 1.089 5.565 1.978 2.344 1.274 4.081 2.756 5.13 3.769 2.101 2.029 2.696 3.594 2.699 4.958 0 0.526-0.105 0.956-0.238 1.292 2.533 0.879 4.755 1.551 6.23 1.965-4.131-4.965-11.1-14.473-8.009-18.841 0 0 0.201-0.34 0.472-0.647 0 0 0.547-0.453 0.752-0.176 0.205 0.276-0.404 0.573-0.404 0.573-0.177 0.216-0.288 0.562-0.209 1.145 0.081 0.581 0.238 1.491 0.74 2.809l0.852 1.912c-2e-3 -2e-3 -3e-3 -5e-3 -5e-3 -8e-3 3e-3 8e-3 7e-3 0.014 0.011 0.021l-6e-3 -0.013c1.06 1.839 2.869 4.374 5.051 6.541 5.44 5.403 10.296 7.629 11.29 7.948 0.723 0.231 1.04 0.17 1.159 0.06 0.695-0.623-1.035-3.408-1.035-3.408-0.03-0.045-0.058-0.085-0.088-0.127-3.119-4.551-4.947-5.816-6.579-6.44-1.13-0.335-1.817 0.04-2.025 0.182-0.396 0.377-0.616 0.894-0.58 1.146 0.07 0.479-0.144 0.465-0.144 0.465-0.777-0.264-0.344-1.635-0.344-1.635 0.577-2.594 4.178-3.256 7.592-0.7 4.515 3.379 5.41 6.088 6.057 7.733 0.645 1.645-0.583 2.913-1.677 3.77" fill="#efb428"/>
    </g>
    <g transform="matrix(17.401 0 0 -17.401 35.359 916.7)">
     <path d="m0 0c-0.248 1.484-2.504 1.834-6.461 1.518-2.089-0.166-6.037-0.726-9.579-1.292l3.481 3.884s0.757 0.487-0.021 1.087c-0.777 0.6-1.625 1.002-1.625 1.002s-0.347 0.333-0.954-0.221c-0.355-0.327-2.593-2.596-5.731-6.52-3.495-0.466-7.517-0.75-8.553-0.872 0 0-0.51-0.105-0.708 0.246 0 0-0.454 0.316-0.348-0.442 0 0 0.111-2.012 2.049-1.646 1.099 0.208 3.333 0.5 6.12 0.875-0.472-0.614-1.195-1.534-1.964-2.611-3.476-3.794-9.375-9.892-10.694-9.085 0 0-0.289 0.268-0.087 0.919 0.298 0.969 1.417 2.726 3.666 5.364 0 0 1.036 1.229 0.993 1.772-0.065 0.833-0.531 0.815-0.531 0.815s-2.99 0.884-3.988 1.78c0.419 0.65 1.183 2.101 0.207 2.78 0 0-1.257 0.798-2.178-1.094-0.372-0.755-0.339-1.482 0.145-2.152-0.684-0.725-2.578-2.577-4.464-3.124-0.107 0.658-0.386 1.059-0.805 1.269 0 0-1.039 0.523-1.603-0.128-0.561-0.648-0.064-1.295 0.512-1.736-0.171-0.514-0.646-1.187-1.311-2.229-0.85-1.336-1.958-2.601-3.47-3.626-0.513-0.35-2.611-1.562-3.162 0.097-0.301 0.913 0.203 2.679 1.496 4.686 2.662 4.145 6.384 5.503 7.392 4.858 0 0 0.473-0.468 0.193-0.985 0 0-0.107-0.284 0.274-0.318 0.385-0.037 0.598 0.297 0.662 0.632 0.158 0.877-0.637 1.881-1.543 2.601-0.272 0.216-0.585 0.366-0.945 0.547 0 0-1.583 0.558-3.745-0.518-0.664-0.328-3.499-1.89-5.56-5.561-0.654-1.162-1.066-2.407-1.052-3.612 5e-3 -0.794 0.154-1.578 0.579-2.307 0.163-0.278 1.029-1.417 2.193-2.013 2.323-1.19 5.049 1.072 6.111 2.04 1.868 1.711 3.297 3.977 3.625 4.962 2.448 0.633 4.87 3.086 5.66 3.948 0.144-0.096 0.29-0.191 0.458-0.283l1.47-0.781c-0.862-0.992-0.867-0.996-1.781-2.285-0.94-1.329-3.274-4.451-1.765-6.461 0.295-0.399 0.697-0.889 1.357-1.15 1.993-0.789 4.252 1.17 7.747 4.843 0.553 0.582 1.086 1.162 1.594 1.729-0.218-0.436-0.418-0.874-0.583-1.305-0.815-2.125-0.342-4.038 1.368-5.173 1.014-0.673 2.332-0.366 3.837 0.624 2.974 1.962 7.364 6.381 10.152 9.32-0.101-0.403-0.196-0.845-0.284-1.34-0.662-3.687-2.9-8.429-3.783-7.214-0.016-0.178-0.028 0.82-0.507 1.223-0.437 0.363-0.819 0.459-1.307 0.139-0.634-0.417-0.319-1.967 1.629-2.962 0.446-0.228 0.844-0.349 1.21-0.392 1.06-0.179 3.206-0.196 5.735 1.699 3.424 2.572 7.132 6.258 7.132 6.258s0.743 0.657 0.04 1.063c0 0-0.341 0.178-0.663-0.11-0.185-0.166-0.35-0.383-0.35-0.383 0.05 0.05-5.193-4.947-8.294-6.622 0.5 0.614 0.813 1.501 1.076 2.55 0.22 0.881 0.598 3.258 0.996 5 0.217 0.948 0.523 1.709 0.622 1.934 0.377 0.85 0.9 0.778 1.021 1.026 0.087 0.175 0.054 0.334-0.171 0.611-0.188 0.236-0.44 0.479-0.647 0.67-0.246 0.227-0.761 0.576-1.034 0.628-0.188 0.036-0.403 0.022-0.593-0.128-0.173-0.135-0.475-0.405-0.814-0.976-1.879-2.05-8.04-8.623-11.811-10.861 0.201 0.121-3.062-2.085-2.372 0.784 0.317 1.306 1.627 4.228 5.307 8.84l1.913 2.136c1.571 0.225 3.205 0.47 4.835 0.734 0 0 14.381 1.783 10.487-1.279 0 0 0.25-0.482 0.851-6e-3 1.252 0.991 1.719 1.853 1.646 2.31" fill="#efb428"/>
    </g>
   </g>
  </g>
 </g>
</svg>
