<svg width="933.25" height="502.89" version="1.1" viewBox="0 0 933.25 502.89" xmlns="http://www.w3.org/2000/svg">
 <link href="" rel="stylesheet" type="text/css"/>
 <style type="text/css"/>
 <g transform="translate(-.0037847 .0064737)" fill="#383a3f" stroke-width=".95569">
  <path d="m509.27 171.93c8.2715-10.818 17.47-23.064 27.723-36.992l67.421-94.813c22.68-34.843 69.819-48.142 87.85-35.378 0 0-15.565 3.5436-55.546 58.476-13.117 17.991-78.363 110.82-100.1 141.79z"/>
  <path d="m254.85 4.7938c-18.184-12.865-65.721 0.53568-88.597 35.685l-67.999 95.617c-82.196 111.65-98.245 118.13-98.245 118.13 31.216 11.507 66.767-4.1302 90.731-37.307 0 0 92.176-131.3 108.08-153.16 40.328-55.391 56.03-58.969 56.03-58.969"/>
  <path d="m510.48 173.41c-2.9328-3.8326-9.1902-12.11-9.1902-12.11l-84.645-120.23c-18.872-26.131-44.928-41.385-70.397-41.063h-2.5162c-22.154 0-53.514 13.911-70.796 40.469l-68 95.617c-82.187 111.64-98.245 118.13-98.245 118.13 31.216 11.507 66.766-4.1379 90.732-37.307 0 0 86.37-123.23 102.29-145.09 4.803-6.6024 18.66-31.044 44.027-29.828 6.053 0.28918 11.46 1.8097 16.254 4.0448 6.4945 3.0337 12.097 7.691 16.56 13.299 8.2715 10.394 17.835 22.733 28.852 37.349 32.626 46.128 84.645 120.23 84.645 120.23 18.872 26.123 44.962 41.378 70.422 41.055h2.4998c22.145 0 53.505-13.902 70.788-40.469l67.999-95.617c82.196-111.65 98.245-118.13 98.245-118.13-31.206-11.515-66.758 4.1301-90.722 37.307 0 0-86.37 123.24-102.29 145.09-4.803 6.6031-18.668 31.044-44.027 29.829-10.031-0.48458-18.278-4.3596-24.909-9.229z"/>
 </g>
 <g transform="translate(-5.7476 -278.21)" fill="#383a3f">
  <path d="m864.81 562.83v46.363h-46.363v27.818h46.363v46.363h27.818v-46.363h46.363v-27.818h-46.363v-46.363z" style="paint-order:markers stroke fill"/>
  <g transform="translate(5.7437 278.21)" stroke-width=".95569">
   <path d="m722.01 330.98v84.225l18.422 39.804-18.422-20.566v0.29761l-93.724-103.76h-21.176v170.87h35.067v-104.19l93.732 104.19h21.16v-170.87z"/>
   <path d="m153.34 415.61 18.302 39.602-21.074-23.531-90.962-100.7h-21.168v170.87h35.067v-104.19l93.732 104.19h21.159v-170.87h-35.059z"/>
   <path d="m287.34 430.25h65.364v-30.143h-65.364v-36.542h72.497v-32.59h-108.68v170.87h111.15v-32.607h-74.962z"/>
   <path d="m441.22 497.74c10.916 3.3478 23.114 5.141 37.515 5.141 10.933 0 17.121-1.1645 24.721-3.314 7.7531-2.1841 14.664-5.6001 20.53-10.138 5.8571-4.5295 10.576-10.317 14.018-17.192 3.4348-6.8836 5.186-15.051 5.186-24.28 0-9.6869-1.896-17.523-5.6363-23.284-3.7489-5.7786-8.5433-10.445-14.239-13.886-5.7381-3.4504-11.978-6.1522-18.55-8.031-6.6309-1.8951-12.913-3.8153-18.676-5.7104-5.8062-1.9038-10.686-4.2406-14.503-6.9431-3.9102-2.7707-5.8916-6.8069-5.8916-12.007 0-3.2469 0.82468-6.0512 2.4576-8.3372 1.6148-2.26 3.7489-4.1043 6.3333-5.481 2.5586-1.3595 5.3215-2.3713 8.1948-3.0088 2.8138-0.62885 4.9901-0.96009 8.4156-0.96009 5.6708 0 11.714 1.2154 18.082 3.0088 5.1938 1.4612 10.472 3.8662 15.387 7.5633l17.504-28.996c-5.3301-2.6007-11.68-5.839-17.699-7.9713-13.041-4.6314-22.052-6.2212-32.398-6.2212-10.091 0-16.262 0.40823-24.041 2.7111-7.6763 2.2687-14.546 5.719-20.418 10.257-5.8657 4.5382-10.626 10.249-14.146 16.963-3.5108 6.7222-5.2964 14.642-5.2964 23.557 0 9.2204 1.9383 16.733 5.7468 22.333 3.8342 5.626 8.7055 10.215 14.477 13.648 5.8148 3.4504 12.174 6.2375 18.923 8.2767 6.7585 2.04 13.16 4.1224 19.034 6.1789 5.8743 2.0651 10.838 4.6055 14.741 7.5546 3.9792 3.0079 6.002 7.164 6.002 12.348 0 3.0847-0.79012 5.8132-2.3376 8.0904-1.5389 2.2609-3.5877 4.1474-6.0865 5.6001-2.4912 1.4448-5.3301 2.5412-8.4415 3.2555-2.9925 0.68834-4.8712 1.0791-8.7391 1.0791-6.8008 0-13.967-1.1137-22.451-3.9689l-0.53568-0.17859c-7.2089-2.4222-13.296-4.9626-18.881-8.6761l-19.094 31.384 0.74012 0.41663c6.3928 3.6454 12.53 6.9086 20.054 9.2204"/>
  </g>
 </g>
</svg>
