<svg width="1060.1pt" height="241.04pt" version="1.1" viewBox="0 0 1060.1 241.04" xmlns="http://www.w3.org/2000/svg">
 <g transform="matrix(.9375 0 0 -.9375 -81.213 741.77)">
  <path transform="matrix(.8 0 0 -.8 86.627 791.22)" d="m49.674 0-18.797 120.01c22.443 3.9947 38.273 22.937 38.273 44.246 0 31.796-30.917 48.05-51.744 43.432l-17.406 113.7 950.05-2e-5 17.439-113.84c-18.235-1.8054-38.137-18.43-38.137-43.566 0-30.82 28.266-47.539 51.574-43.566l19.068-120.42z" fill="#114375"/>
  <g fill="#fff">
   <path d="m223 573.18 28.384 182.41h51.529l18.993-80.635 14.014 80.635h51.529l-28.945-182.41h-50.828l-21.507 77.951-13.448-77.951z"/>
   <path d="m373.86 571.45 28.805 182.41h91.345l-6.949-43.431h-42.114l-3.9227-25.19h37.631l-6.6409-42.997h-37.799l-4.203-27.362h41.862l-6.6964-43.431z"/>
   <path d="m585.94 572.31 28.384 182.41h51.529l18.993-80.635 14.014 80.635h51.529l-28.945-182.41h-50.828l-21.507 77.951-13.448-77.951z"/>
   <path d="m486.74 633.5-8.9188-57.675s15.84-7.581 37.063-7.581c38.167 0 70.494 31.842 70.494 72.17 0 36.679-37.559 43.336-37.559 58.371 0 7.8024 7.8956 12.893 14.715 12.893 12.796 0 22.585-11.605 27.609-19.761l8.619 55.778s-14.918 9.1796-35.177 9.1796c-41.724 0-67.48-38.559-67.48-69.232 0-36.896 37.069-45.014 37.069-60.193 0-7.633-7.7612-14.645-17.238-14.645-10.509 0-22.011 7.4272-29.195 20.695z"/>
   <path transform="scale(1,-1)" d="m151.83-534.11h5.266l41.042-257.11h-5.266z"/>
   <path d="m774.93 534.11h5.266l41.042 257.11h-5.266z"/>
  </g>
 </g>
 <path d="m718.16 241.04 36.074-241.04h62.202l-12.755 86.035h27.603l13.04-86.035h62.012l-35.979 241.04h-61.584l13.944-98.113h-27.46l-15.182 98.113z" fill="#0081c6" stroke-width="4.7592"/>
 <path d="m912.91 0h55.354c61.995 0 91.834 39.742 91.837 94.753 0 84.537-48.184 146.29-124.73 146.29h-59.586m89.092-180.02-18.561 120.98c34.16-4.1174 46.23-36.155 47.68-85.177 0.086-17.488-9.1686-36.68-29.119-35.801z" fill="#0081c6" stroke-width="4.7592"/>
</svg>
