<svg width="800" height="502.89" version="1.1" viewBox="0 0 800 502.89" xmlns="http://www.w3.org/2000/svg">
 <link href="" rel="stylesheet" type="text/css"/>
 <style type="text/css"/>
 <g transform="translate(98.961 -144.8)">
  <g transform="matrix(.95569 0 0 .95569 -4.385 28.699)" fill="#383a3f">
   <path d="m433.92 301.39c8.655-11.32 18.28-24.133 29.008-38.707l70.547-99.209c23.732-36.458 73.056-50.374 91.923-37.018 0 0-16.287 3.7079-58.121 61.187-13.725 18.825-81.996 115.96-104.74 148.36z"/>
   <path d="m167.7 126.5c-19.027-13.462-68.768 0.56052-92.705 37.339l-71.152 100.05c-86.007 116.83-102.8 123.61-102.8 123.61 32.663 12.041 69.863-4.3217 94.938-39.037 0 0 96.45-137.39 113.09-160.26 42.198-57.959 58.628-61.703 58.628-61.703"/>
   <path d="m435.19 302.93c-3.0688-4.0103-9.6163-12.672-9.6163-12.672l-88.569-125.8c-19.747-27.343-47.011-43.304-73.661-42.967h-2.6329c-23.181 0-55.995 14.556-74.078 42.345l-71.153 100.05c-85.998 116.82-102.8 123.61-102.8 123.61 32.663 12.04 69.862-4.3298 94.939-39.037 0 0 90.375-128.94 107.03-151.82 5.0257-6.9085 19.525-32.483 46.068-31.211 6.3336 0.30259 11.991 1.8936 17.008 4.2323 6.7956 3.1744 12.658 8.0476 17.328 13.916 8.655 10.876 18.662 23.787 30.19 39.081 34.139 48.267 88.569 125.8 88.569 125.8 19.747 27.334 47.047 43.296 73.687 42.958h2.6157c23.172 0 55.986-14.547 74.07-42.345l71.152-100.05c86.007-116.83 102.8-123.61 102.8-123.61-32.653-12.049-69.853 4.3216-94.928 39.037 0 0-90.375 128.95-107.03 151.82-5.0257 6.9093-19.534 32.483-46.068 31.212-10.496-0.50705-19.125-4.5617-26.064-9.6569z"/>
   <path d="m656.52 467.81v88.13l19.276 41.65-19.276-21.519v0.3114l-98.069-108.57h-22.158v178.79h36.693v-109.02l98.078 109.02h22.141v-178.79z"/>
   <path d="m61.489 556.36 19.151 41.438-22.051-24.622-95.179-105.37h-22.149v178.79h36.693v-109.02l98.078 109.02h22.14v-178.79h-36.684z"/>
   <path d="m201.7 571.68h68.395v-31.541h-68.395v-38.236h75.858v-34.101h-113.72v178.79h116.3v-34.119h-78.438z"/>
   <path d="m362.72 642.3c11.422 3.503 24.186 5.3794 39.254 5.3794 11.44 0 17.915-1.2185 25.867-3.4677 8.1126-2.2854 15.344-5.8597 21.482-10.608 6.1287-4.7395 11.066-10.795 14.668-17.989 3.5941-7.2028 5.4264-15.749 5.4264-25.406 0-10.136-1.9839-18.335-5.8976-24.364-3.9227-6.0465-8.9394-10.929-14.899-14.53-6.0041-3.6104-12.533-6.4374-19.41-8.4033-6.9383-1.983-13.512-3.9922-19.542-5.9752-6.0754-1.9921-11.181-4.4372-15.175-7.265-4.0915-2.8992-6.1648-7.1225-6.1648-12.564 0-3.3974 0.86291-6.3318 2.5715-8.7237 1.6897-2.3648 3.9227-4.2946 6.6269-5.7351 2.6772-1.4225 5.5682-2.4812 8.5747-3.1483 2.9443-0.65801 5.2215-1.0046 8.8058-1.0046 5.9337 0 12.257 1.2718 18.92 3.1483 5.4346 1.529 10.958 4.0455 16.1 7.914l18.316-30.34c-5.5772-2.7213-12.222-6.1097-18.52-8.3409-13.646-4.8461-23.074-6.5096-33.9-6.5096-10.559 0-17.016 0.42715-25.156 2.8368-8.0322 2.3739-15.22 5.9842-21.365 10.733-6.1377 4.7486-11.119 10.724-14.802 17.749-3.6736 7.0339-5.542 15.321-5.542 24.649 0 9.6479 2.0282 17.509 6.0132 23.368 4.012 5.8868 9.1091 10.689 15.148 14.281 6.0844 3.6104 12.738 6.5267 19.8 8.6604 7.0719 2.1346 13.77 4.3135 19.917 6.4654 6.1467 2.1608 11.341 4.819 15.424 7.9049 4.1637 3.1474 6.2803 7.4961 6.2803 12.92 0 3.2277-0.82675 6.0827-2.446 8.4655-1.6103 2.3657-3.754 4.3397-6.3687 5.8597-2.6067 1.5118-5.5772 2.659-8.8329 3.4064-3.1312 0.72025-5.097 1.1291-9.1443 1.1291-7.1161 0-14.615-1.1653-23.492-4.1529l-0.56052-0.18687c-7.5431-2.5345-13.912-5.1927-19.756-9.0784l-19.979 32.839 0.77443 0.43594c6.6892 3.8144 13.111 7.2289 20.984 9.6479"/>
  </g>
 </g>
</svg>
