<svg width="1e3" height="339.91" version="1.1" xmlns="http://www.w3.org/2000/svg">
 <link href="" rel="stylesheet" type="text/css"/>
 <style type="text/css"/>
 <g transform="translate(-261 -572.21)">
  <g transform="matrix(8.9914 0 0 8.9914 -2e3 -7438.2)">
   <path d="m251.46 919.34v-27.7h6.9118v2.7007c2.0219-2.3001 4.1858-3.3721 7.4126-3.3721 7.2935 0 10.914 5.5816 10.914 12.034v16.337h-7.226v-16.128c0-3.7124-2.1315-5.5458-5.2258-5.5458-3.8724 0-5.5608 3.048-5.5608 5.5458v16.128z" fill="#1a1919"/>
   <path d="m293.47 890.95c-8.7029 0-14.37 7.4571-14.37 14.439 0 8.555 6.6525 14.619 14.609 14.619 7.1078 0 11.893-3.8666 13.572-9.4612h-7.7496c-0.55424 1.1861-2.5973 3.2497-5.9464 3.2497-3.977 0-6.2916-2.6253-7.1605-5.5536h21.367s0.14072-1.0316 0.14072-2.1338c0-9.5931-6.3831-15.159-14.462-15.159zm0.0654 6.2311c3.2299 0 6.369 2.0793 7.0427 5.3017h-14.033c0.91839-2.8921 3.3746-5.3017 6.9903-5.3017z" fill="#1a1919"/>
   <path d="m337.44 919.34v-27.7h6.9118v2.7007c2.0219-2.3001 4.1858-3.3721 7.4126-3.3721 7.2935 0 10.914 5.5816 10.914 12.034v16.337h-7.226v-16.128c0-3.7124-2.1315-5.5458-5.2258-5.5458-3.8724 0-5.5608 3.048-5.5608 5.5458v16.128z" fill="#1a1919"/>
   <path d="m321.41 913.47c2.895 0 5.0098-1.6401 5.9721-3.5561h7.7496c-1.7692 6.4941-6.8321 10.059-13.796 10.059-5.0367 0-8.7487-2.3594-11.024-4.9274l5.0791-5.0268c1.5513 1.9248 3.1803 3.4514 6.0188 3.4514z" fill="#1a1919"/>
   <path d="m321.51 890.89c6.6966 0 11.97 3.6673 13.572 10.018h-7.7478c-1.0428-1.8989-3.2588-3.5418-5.933-3.5418-2.7434 0-4.9784 1.8675-5.8997 3.5884l-5.1838-5.0734c2.5565-3.0228 6.0823-4.9912 11.193-4.9912z" fill="#1a1919"/>
   <path d="m317.28 905.46-9.687-9.4775c1.2686 2.4141 2.2402 5.4652 2.2402 9.4662 0 4.5046-0.77346 7.0014-2.2402 9.5936z" fill="#f8cc24" stroke="#f8cc24" stroke-miterlimit="6.7" stroke-width=".31417"/>
  </g>
  <g transform="matrix(1.4519 0 0 1.4519 3.0279 -491.91)" fill="#1a1919" font-family="'Swis721 BT'" font-size="40px" font-weight="bold" letter-spacing="0px" word-spacing="0px">
   <path d="m229.9 966.25v-28.77h6.1914l11.68 19.766v-19.766h5.8398v28.77h-6.1133l-11.758-19.766v19.766z"/>
   <path d="m258.84 966.25v-28.77h20.879v5h-15.039v6.1328h13.75v4.9219h-13.75v7.4024h15.742v5.3125z"/>
   <path d="m291.3 966.25-8.2422-28.77h6.1328l4.9219 20.293 4.1602-20.293h6.3086l4.1602 20.293 4.9219-20.293h6.0742l-8.2227 28.77h-5.6445l-4.4531-22.031-4.4726 22.031z"/>
   <path d="m336.65 966.25v-28.77h20.879v5h-15.039v6.1328h13.75v4.9219h-13.75v7.4024h15.742v5.3125z"/>
   <path d="m364.01 966.25v-28.77h6.1914l11.68 19.766v-19.766h5.8398v28.77h-6.1133l-11.758-19.766v19.766z"/>
   <path d="m413.13 962.85c-1.0677 1.4453-2.2819 2.5065-3.6426 3.1836-1.3607 0.67709-2.959 1.0156-4.7949 1.0156-4.0234 0-7.2819-1.3965-9.7754-4.1895s-3.7402-6.4616-3.7402-11.006c0-4.5833 1.2435-8.2487 3.7305-10.996 2.487-2.7474 5.8008-4.1211 9.9414-4.1211 3.6068 3e-5 6.5495 0.86266 8.8281 2.5879 2.2786 1.7253 3.6328 4.0983 4.0625 7.1191h-6.0352c-0.3646-1.4974-1.11-2.6367-2.2363-3.418-1.1263-0.78123-2.5944-1.1718-4.4043-1.1719-2.4089 2e-5 -4.3001 0.88218-5.6738 2.6465-1.3737 1.7643-2.0606 4.2025-2.0606 7.3144 0 3.125 0.71614 5.5729 2.1484 7.3438 1.4323 1.7708 3.3984 2.6563 5.8984 2.6562 1.875 1e-5 3.444-0.55338 4.707-1.6602 1.263-1.1068 2.0442-2.6237 2.3438-4.5508h-6.5234v-4.9219h11.914v15.566h-3.9648z"/>
   <path d="m421.41 966.25v-28.77h5.918v23.457h14.043v5.3125z"/>
   <path d="m457.74 943.24-3.9844 12.246h7.9883zm-3.4375-5.7617h6.8359l10.371 28.77h-6.2109l-1.9531-5.918h-11.152l-1.8945 5.918h-6.2305z"/>
   <path d="m474.57 966.25v-28.77h6.1914l11.68 19.766v-19.766h5.8398v28.77h-6.1133l-11.758-19.766v19.766z"/>
   <path d="m511.96 961.06h4.7461c2.7474 1e-5 4.7363-0.71939 5.9668-2.1582 1.2304-1.4388 1.8457-3.7728 1.8457-7.002-2e-5 -3.2161-0.57293-5.5794-1.7188-7.0898-1.1458-1.5104-2.9362-2.2656-5.3711-2.2656h-5.4688zm-5.8008 5.1953v-28.77h11.27c4.414 2e-5 7.7051 1.1914 9.873 3.5742s3.2519 5.9961 3.252 10.84c-3e-5 2.6302-0.40042 4.9479-1.2012 6.9531-0.80081 2.0052-1.9629 3.6198-3.4863 4.8438-1.1458 0.91146-2.4479 1.5658-3.9062 1.9629-1.4584 0.39714-3.5026 0.59571-6.1328 0.59571z"/>
   <path d="m571.56 956.37c-0.22138 3.2682-1.4811 5.8659-3.7793 7.793s-5.2962 2.8906-8.9942 2.8906c-4.2578 0-7.5684-1.3281-9.9316-3.9844-2.3633-2.6562-3.5449-6.3802-3.5449-11.172 0-4.8958 1.2044-8.6458 3.6133-11.25 2.4088-2.6041 5.8724-3.9062 10.391-3.9062 3.6718 3e-5 6.5722 0.89521 8.7012 2.6855 2.1289 1.7904 3.2975 4.3197 3.5059 7.5879h-5.8398c-0.24742-1.6276-0.91148-2.8678-1.9922-3.7207-1.0808-0.85284-2.5391-1.2793-4.375-1.2793-2.6042 2e-5 -4.5834 0.83986-5.9375 2.5195-1.3542 1.6797-2.0313 4.1341-2.0312 7.3633-1e-5 3.125 0.67382 5.5404 2.0215 7.2461 1.3476 1.7057 3.265 2.5586 5.752 2.5586 1.7968 0 3.2682-0.45898 4.4141-1.377 1.1458-0.91796 1.888-2.2363 2.2266-3.9551z"/>
   <path d="m586.99 943.24-3.9844 12.246h7.9883zm-3.4375-5.7617h6.8359l10.371 28.77h-6.2109l-1.9531-5.918h-11.152l-1.8945 5.918h-6.2305z"/>
   <path d="m609.9 961.06h7.0117c1.6536 1e-5 2.8581-0.29947 3.6133-0.89843 0.75519-0.59896 1.1328-1.543 1.1328-2.832-2e-5 -1.3411-0.37111-2.3079-1.1133-2.9004-0.7422-0.59243-1.9662-0.88865-3.6719-0.88867h-6.9727zm0-12.441h6.7578c1.4583 2e-5 2.526-0.25064 3.2031-0.75196 0.67706-0.50128 1.0156-1.2923 1.0156-2.373-1e-5 -1.0547-0.32879-1.8196-0.98632-2.2949-0.65757-0.47524-1.7481-0.71287-3.2715-0.71289h-6.7188zm-5.6641 17.637v-28.77h13.555c2.9427 2e-5 5.1855 0.62177 6.7285 1.8652 1.543 1.2435 2.3144 3.0502 2.3145 5.4199-3e-5 1.4584-0.28649 2.6758-0.85938 3.6524-0.57294 0.97657-1.4323 1.7318-2.5781 2.2656 1.4844 0.59897 2.5944 1.4616 3.3301 2.5879 0.73566 1.1263 1.1035 2.5293 1.1035 4.209-3e-5 2.7995-0.91148 4.9609-2.7344 6.4844-1.8229 1.5234-4.4076 2.2852-7.7539 2.2852z"/>
   <path d="m632.37 966.25v-28.77h5.918v23.457h14.043v5.3125z"/>
   <path d="m656.28 966.25v-28.77h20.879v5h-15.039v6.1328h13.75v4.9219h-13.75v7.4024h15.742v5.3125z"/>
   <path d="m694.41 966.25v-28.77h6.1914l11.68 19.766v-19.766h5.8398v28.77h-6.1133l-11.758-19.766v19.766z"/>
   <path d="m724.73 966.46v-28.77h20.879v5h-15.039v6.1328h13.75v4.9219h-13.75v7.4024h15.742v5.3125z"/>
   <path d="m757.89 966.25-8.2422-28.77h6.1328l4.9219 20.293 4.1602-20.293h6.3086l4.1602 20.293 4.9219-20.293h6.0742l-8.2227 28.77h-5.6445l-4.4531-22.031-4.4726 22.031z"/>
   <path d="m788.64 957.36h5.8398c0.22135 1.5755 0.86588 2.7441 1.9336 3.5059 1.0677 0.76172 2.6107 1.1426 4.6289 1.1426 1.7187 0 3.0143-0.30599 3.8867-0.91797 0.87237-0.61198 1.3086-1.5169 1.3086-2.7148-2e-5 -1.7448-2.5065-3.1901-7.5195-4.3359-0.0651-0.013-0.12371-0.026-0.17578-0.0391-0.13022-0.026-0.33204-0.0716-0.60547-0.13672-2.6823-0.58592-4.5964-1.2435-5.7422-1.9726-1.0156-0.65103-1.7904-1.5267-2.3242-2.627-0.53385-1.1002-0.80078-2.3991-0.80078-3.8965 0-2.7995 0.95052-4.9446 2.8516-6.4356 1.901-1.4908 4.6484-2.2363 8.2422-2.2363 3.3594 2e-5 5.9863 0.79429 7.8809 2.3828 1.8945 1.5886 2.8939 3.8282 2.998 6.7188h-5.6836c-0.10418-1.3932-0.63803-2.4544-1.6016-3.1836-0.96355-0.72914-2.3372-1.0937-4.1211-1.0938-1.5495 3e-5 -2.7442 0.30276-3.584 0.90821-0.83985 0.60549-1.2598 1.4681-1.2598 2.5879-1e-5 1.5234 1.6341 2.6628 4.9023 3.418 0.88541 0.20835 1.5755 0.37111 2.0703 0.48828 2.0963 0.53387 3.584 0.95053 4.4629 1.25 0.87888 0.29949 1.6438 0.63152 2.2949 0.99609 1.1718 0.65106 2.0508 1.5137 2.6367 2.5879 0.58591 1.0742 0.87888 2.36 0.8789 3.8574-2e-5 2.9948-1.0091 5.3158-3.0273 6.9629s-4.8633 2.4707-8.5352 2.4707c-3.6198 0-6.4583-0.83985-8.5156-2.5195-2.0573-1.6797-3.1641-4.069-3.3203-7.168z"/>
  </g>
 </g>
</svg>
