<svg width="800" height="189.58" version="1.1" viewBox="0 0 800 189.58" xml:space="preserve" xmlns="http://www.w3.org/2000/svg"><g transform="matrix(1.3333 0 0 -1.3333 161.87 754.53)"><g transform="matrix(8.4768 0 0 8.4768 4802.9 337.53)" stroke-width=".19524"><path d="m-545.08 18.543c0 2.2056 1.6072 3.9958 3.7584 4.3765-1.9848 2.4249-5.5292 4.02-9.5922 4.02-6.2422 0-11.302-3.7545-11.302-8.3852 0-4.6321 5.0559-8.4887 11.302-8.3865 4.0516 0.06696 7.6053 1.5822 9.6 3.9587-2.1429 0.38657-3.7666 2.2167-3.7666 4.4167z" fill="#fbc112"/><path d="m-515.35 22.703h-3.2663v-8.6788h3.1613c3.3288 0 5.3171 1.6416 5.3171 4.3917v0.02733c0 2.7079-1.9009 4.2601-5.2121 4.2601zm2.5938-4.3519c0-1.371-0.90005-2.1262-2.5303-2.1262h-0.73995v4.2765h0.73995c1.6302 0 2.5283-0.75441 2.5283-2.1242v-0.02636zm-11.181 4.348h-2.5906v-8.6801h6.8801v2.1496h-4.2894zm-13.372-0.56464s-1.5229 1.3355-4.0278 0.77218c0 0 2.9813-0.67551 3.3347-4.1661 0 0 0.25615-3.4585-3.3632-4.6006 0 0 3.5065-0.9645 5.405 2.3019 0 0 1.7533 3.1531-1.3511 5.6951zm9.9067-2.1935c0 1.4467-0.94887 2.7601-3.2585 2.7601h-4.1586v-8.671h2.7236v2.8701h0.57205l1.3979-2.8701h2.9911l-1.8235 3.3204c1.0699 0.51075 1.5561 1.5196 1.5561 2.5904zm-3.6237-1.1802h-1.0699v1.8974h1.0816c0.65597 0 0.96059-0.47444 0.96059-0.94848 0-0.49845-0.34109-0.94887-0.97329-0.94887z" fill="#fff"/><path d="m-547.07 22.746-1.1527-4.8166-1.6791 4.8423h-2.2921l-1.3595-4.84-1.4721 4.8142h-2.704l2.8357-8.7296h2.3331l1.4811 3.8228 1.4815-3.8228h2.3348l2.8349 8.7296z"/></g><g transform="matrix(10.361 0 0 10.361 1640.3 -2300.6)" fill="#3a9fdf"><g transform="translate(-165.15 266.26)"><path d="m0 0-2.323 4.409c-0.244 0.46-0.458 0.979-0.644 1.556 0.052-1.676 0.091-3.343 0.119-5.002h0.86v-0.963h-2.9v0.963h0.845v5.105h-0.845v0.963h2.787l2.168-4.131c0.213-0.402 0.419-0.945 0.618-1.628-0.065 1.618-0.1 3.216-0.103 4.796h-0.865v0.963h2.853v-0.963h-0.793v-6.068z" fill="#3a9fdf"/></g><g transform="translate(-159.71 270.31)"><path d="m0 0h2.776v2.024h-0.819v0.964h3.142v-0.964h-0.839v-5.104h0.839v-0.963h-3.142v0.963h0.819v2.117h-2.776v-2.117h0.814v-0.963h-3.137v0.963h0.84v5.104h-0.84v0.964h3.137v-0.964h-0.814z" fill="#3a9fdf"/></g></g></g></svg>
