<svg width="800" height="134.12" version="1.1" viewBox="0 0 800 134.12" xml:space="preserve" xmlns="http://www.w3.org/2000/svg"><g transform="matrix(1.3333 0 0 -1.3333 165.3 954.6)"><g transform="matrix(8.4985 0 0 8.4985 105.8 695.48)" fill="#e37c26"><path d="m0 0c-0.972 1.024-2.328 1.566-3.923 1.566-0.064 0-0.13-1e-3 -0.196-3e-3h-7e-3c-2.973-0.164-5.463-2.713-5.33-5.455 0.022-0.909 0.366-2.296 1.877-3.757 1.041-1.006 2.208-1.618 2.903-1.778l0.194 0.496c-1.357 0.775-2.301 1.691-2.807 2.724-0.45 0.92-0.496 1.804-0.487 2.471l1e-3 8e-3 -1e-3 7e-3c-0.078 1.912 1.311 4.067 3.692 4.218 0.058 2e-3 0.115 3e-3 0.172 3e-3 1.64 0 2.873-0.727 3.471-2.047 0.633-1.397 0.409-3.251-0.519-4.311-0.49-0.544-1.146-0.843-1.848-0.843-1.179 0-2.222 0.812-2.535 1.974l-4e-3 0.012c-0.22 0.687-0.19 1.73 0.294 2.393 0.364 0.499 0.927 0.713 1.661 0.63 0.969-0.167 1.252-0.975 1.193-1.677-0.062-0.74-0.518-1.506-1.175-1.506-0.084 0-0.172 0.012-0.261 0.038l-0.182-0.505c0.322-0.142 0.668-0.217 0.998-0.217 0.905 0 1.886 0.584 1.923 2.23 0 1.291-1.007 2.662-2.871 2.662h-0.073c-1.309-0.01-2.798-0.989-3.113-2.842-0.327-2.028 1.386-3.819 3.127-4.157 0.266-0.053 0.542-0.08 0.821-0.08 2.071 1e-3 4.287 1.505 4.41 4.023 0.055 1.026-0.286 2.543-1.405 3.723" fill="#e37c26"/></g><g transform="matrix(8.4985 0 0 8.4985 1321.1 -1622.2)"><path d="m-135.51 271.21c-0.027 0.494-0.59 0.796-1.111 0.796-1.372 0-1.66-1.207-1.66-2.333 0-1.083 0.26-2.428 1.591-2.428 0.604 0 1.18 0.453 1.18 1.043h1.413c0-1.455-1.413-2.223-2.689-2.223-2.03 0-2.908 1.743-2.908 3.595 0 1.838 1.028 3.526 3.032 3.526 1.276 0 2.359-0.631 2.565-1.976z"/><path d="m-131.17 272.31h0.028c0.425 0.562 1.056 0.878 1.783 0.878 1.208 0 2.086-0.864 2.086-2.085v-0.275h-1.414v0.206c0 0.535-0.26 1.098-0.864 1.098-1.345 0-1.619-1.345-1.619-2.388v-3.553h-1.413v6.874h1.413z"/><path d="m-121.99 270.53c-0.014 0.919-0.7 1.482-1.605 1.482-0.865 0-1.674-0.563-1.729-1.482zm-3.334-1.18c-0.069-1.248 0.741-2.099 2.003-2.099 0.412 0 0.933 0.041 1.084 0.48h1.4c-0.069-1.303-1.482-1.66-2.552-1.66-2.182 0-3.348 1.372-3.348 3.512 0 2.045 1.001 3.609 3.169 3.609 2.154 0 2.991-1.414 2.991-3.417v-0.425z"/><g transform="translate(-116.08 269.44)"><path d="m0 0c-0.768 0-1.578-0.288-1.578-1.194 0-0.713 0.508-1.111 1.194-1.111 1.248 0 1.852 0.947 1.852 2.072v0.233zm1.468-2.593c-0.535-0.508-1.262-0.782-1.989-0.782-1.331 0-2.47 0.727-2.47 2.127 0 1.783 1.674 2.318 3.183 2.318h1.276v0.247c0 0.782-0.11 1.358-1.276 1.358-0.727 0-1.468-0.109-1.468-0.782h-1.413c0.096 1.523 1.55 1.853 2.813 1.853 1.989 0 2.757-0.7 2.757-2.717v-4.281h-1.413z"/></g><g transform="translate(-109.09 273.19)"><path d="m0 0h2.455v-1.18h-2.455v-3.444c0-0.644 0.11-1.317 0.919-1.317 0.48 0 1.152 0.247 1.536 0.535v-1.303c-0.439-0.261-1.043-0.412-1.564-0.412-1.659 0-2.304 1.098-2.304 2.635v3.306h-1.412v1.18h1.412v1.564l1.413 0.371z"/></g><path d="m-100.85 270.53c-0.014 0.919-0.7 1.482-1.606 1.482-0.865 0-1.675-0.563-1.73-1.482zm-3.336-1.18c-0.068-1.248 0.742-2.099 2.004-2.099 0.412 0 0.934 0.041 1.085 0.48h1.4c-0.069-1.303-1.482-1.66-2.553-1.66-2.183 0-3.349 1.372-3.349 3.512 0 2.045 1.002 3.609 3.171 3.609 2.155 0 2.992-1.414 2.992-3.417v-0.425z"/></g><g transform="matrix(8.4985 0 0 8.4985 1321.1 -1622.2)" fill="#3a9fdf"><g transform="translate(-165.15 266.26)"><path d="m0 0-2.323 4.409c-0.244 0.46-0.458 0.979-0.644 1.556 0.052-1.676 0.091-3.343 0.119-5.002h0.86v-0.963h-2.9v0.963h0.845v5.105h-0.845v0.963h2.787l2.168-4.131c0.213-0.402 0.419-0.945 0.618-1.628-0.065 1.618-0.1 3.216-0.103 4.796h-0.865v0.963h2.853v-0.963h-0.793v-6.068z" fill="#3a9fdf"/></g><g transform="translate(-159.71 270.31)"><path d="m0 0h2.776v2.024h-0.819v0.964h3.142v-0.964h-0.839v-5.104h0.839v-0.963h-3.142v0.963h0.819v2.117h-2.776v-2.117h0.814v-0.963h-3.137v0.963h0.84v5.104h-0.84v0.964h3.137v-0.964h-0.814z" fill="#3a9fdf"/></g></g></g></svg>
