<svg width="800" height="211.58" version="1.1" viewBox="0 0 800 211.58" xml:space="preserve" xmlns="http://www.w3.org/2000/svg"><defs><radialGradient id="SVGID_1_" cx="96.973" cy="28.951" r="65.771" gradientTransform="matrix(-.5076 .8616 -.8616 -.5076 187.3 -61.064)" gradientUnits="userSpaceOnUse"><stop offset=".7"/><stop stop-color="#030303" offset=".7679"/><stop stop-color="#0B0B0B" offset=".8088"/><stop stop-color="#191919" offset=".8425"/><stop stop-color="#2E2E2E" offset=".8723"/><stop stop-color="#484848" offset=".8996"/><stop stop-color="#686868" offset=".925"/><stop stop-color="#8F8F8F" offset=".9489"/><stop stop-color="#bbb" offset=".9717"/><stop stop-color="#EDEDED" offset=".9928"/><stop stop-color="#fff" offset="1"/></radialGradient><linearGradient id="SVGID_5_" x1="-1004" x2="-1004" y1="488.58" y2="407.31" gradientTransform="matrix(.8873 -.4612 .4612 .8873 801.62 -849.8)" gradientUnits="userSpaceOnUse"><stop stop-color="#404040" offset=".2582"/><stop stop-color="#3B3B3B" offset=".2638"/><stop stop-color="#252525" offset=".2947"/><stop stop-color="#141414" offset=".3311"/><stop stop-color="#090909" offset=".3762"/><stop stop-color="#020202" offset=".4396"/><stop offset=".6154"/></linearGradient><mask id="SVGID_2_" x="97.2" y="1" width="59.2" height="55.5" maskUnits="userSpaceOnUse"><g class="st4" filter="url(#Adobe_OpacityMaskFilter)"><linearGradient id="SVGID_3_" x1="5.5047" x2="5.5047" y1="-891.84" y2="-945.78" gradientTransform="matrix(.8836 -.4684 .4684 .8836 552.29 843.18)" gradientUnits="userSpaceOnUse"><stop offset="0"/><stop stop-color="#020202" offset=".2481"/><stop stop-color="#0A0A0A" offset=".3852"/><stop stop-color="#181818" offset=".4953"/><stop stop-color="#2C2C2C" offset=".591"/><stop stop-color="#454545" offset=".6774"/><stop stop-color="#646464" offset=".7571"/><stop stop-color="#898989" offset=".8317"/><stop stop-color="#B5B5B5" offset=".9022"/><stop stop-color="#E4E4E4" offset=".9671"/><stop stop-color="#fff" offset="1"/></linearGradient><path class="st5" d="m153.6 14.5c7 13.2 0.6 30.2-14.2 38s-32.4 3.5-39.4-9.6c-7-13.2-0.6-30.2 14.1-38 14.8-7.8 32.5-3.5 39.5 9.6z" fill="url(#SVGID_3_)"/><path class="st6" d="m153.6 14.5c7 13.2 0.6 30.2-14.2 38s-32.4 3.5-39.4-9.6c-7-13.2-0.6-30.2 14.1-38 14.8-7.8 32.5-3.5 39.5 9.6z" fill="url(#SVGID_3_)"/></g></mask><filter id="Adobe_OpacityMaskFilter" x="97.2" y="1" width="59.2" height="55.5" filterUnits="userSpaceOnUse"><feColorMatrix values="1 0 0 0 0  0 1 0 0 0  0 0 1 0 0  0 0 0 1 0"/></filter><linearGradient id="SVGID_9_" x1="429.46" x2="400.55" y1="-470.27" y2="-508.51" gradientTransform="matrix(.9824 .1866 -.1866 .9824 -378.83 419.12)" gradientUnits="userSpaceOnUse"><stop offset=".4011"/><stop stop-color="#282828" offset=".427"/><stop stop-color="#545454" offset=".4606"/><stop stop-color="#7D7D7D" offset=".4978"/><stop stop-color="#A0A0A0" offset=".5374"/><stop stop-color="#BEBEBE" offset=".5804"/><stop stop-color="#D6D6D6" offset=".6277"/><stop stop-color="#E8E8E8" offset=".6812"/><stop stop-color="#F5F5F5" offset=".7444"/><stop stop-color="#FDFDFD" offset=".8269"/><stop stop-color="#fff" offset="1"/></linearGradient><mask id="SVGID_6_" x="100" y="1.8" width="46.1" height="39.5" maskUnits="userSpaceOnUse"><g class="st8" filter="url(#Adobe_OpacityMaskFilter_1_)"><linearGradient id="SVGID_7_" x1="5.57" x2="5.57" y1="-908.64" y2="-945.25" gradientTransform="matrix(.8836 -.4684 .4684 .8836 552.29 843.18)" gradientUnits="userSpaceOnUse"><stop offset="0"/><stop stop-color="#020202" offset=".2481"/><stop stop-color="#0A0A0A" offset=".3852"/><stop stop-color="#181818" offset=".4953"/><stop stop-color="#2C2C2C" offset=".591"/><stop stop-color="#454545" offset=".6774"/><stop stop-color="#646464" offset=".7571"/><stop stop-color="#898989" offset=".8317"/><stop stop-color="#B5B5B5" offset=".9022"/><stop stop-color="#E4E4E4" offset=".9671"/><stop stop-color="#fff" offset="1"/></linearGradient><path class="st9" d="m144.4 10.2c4.7 8.9-1 21.3-12.8 27.5-11.8 6.3-25.2 4.1-30-4.8-4.7-8.9 1-21.3 12.8-27.5 11.9-6.3 25.3-4.2 30 4.8z" fill="url(#SVGID_7_)"/><path class="st10" d="m144.4 10.2c4.7 8.9-1 21.3-12.8 27.5-11.8 6.3-25.2 4.1-30-4.8-4.7-8.9 1-21.3 12.8-27.5 11.9-6.3 25.3-4.2 30 4.8z" fill="url(#SVGID_7_)"/></g></mask><filter id="Adobe_OpacityMaskFilter_1_" x="100" y="1.8" width="46.1" height="39.5" filterUnits="userSpaceOnUse"><feColorMatrix values="1 0 0 0 0  0 1 0 0 0  0 0 1 0 0  0 0 0 1 0"/></filter></defs><g transform="matrix(1.3333 0 0 -1.3333 237.4 1517.7)"><g transform="matrix(2.4044 0 0 -2.4044 -200.06 1138.3)"><path d="m162.3 33c0 18.2-14.8 33-33 33s-33-14.8-33-33 14.8-33 33-33c18.3 0 33 14.8 33 33z"/><path class="st3" d="m113.8 60.5c-15.1-8.9-20.1-28.3-11.2-43.3s28.3-20.1 43.3-11.2c15.1 8.9 20.1 28.3 11.2 43.3-8.9 15.1-28.3 20.1-43.3 11.2z" fill="url(#SVGID_1_)"/><mask x="97.2" y="1" width="59.2" height="55.5" maskUnits="userSpaceOnUse"><g class="st4" fill="url(#SVGID_3_)" filter="url(#Adobe_OpacityMaskFilter)"><path class="st5" d="m153.6 14.5c7 13.2 0.6 30.2-14.2 38s-32.4 3.5-39.4-9.6c-7-13.2-0.6-30.2 14.1-38 14.8-7.8 32.5-3.5 39.5 9.6z"/><path class="st6" d="m153.6 14.5c7 13.2 0.6 30.2-14.2 38s-32.4 3.5-39.4-9.6c-7-13.2-0.6-30.2 14.1-38 14.8-7.8 32.5-3.5 39.5 9.6z"/></g></mask><path class="st7" d="m153.6 14.5c7 13.2 0.6 30.2-14.2 38s-32.4 3.5-39.4-9.6c-7-13.2-0.6-30.2 14.1-38 14.8-7.8 32.5-3.5 39.5 9.6z" fill="url(#SVGID_5_)" mask="url(#SVGID_2_)"/><mask x="100" y="1.8" width="46.1" height="39.5" maskUnits="userSpaceOnUse"><g class="st8" fill="url(#SVGID_7_)" filter="url(#Adobe_OpacityMaskFilter_1_)"><path class="st9" d="m144.4 10.2c4.7 8.9-1 21.3-12.8 27.5-11.8 6.3-25.2 4.1-30-4.8-4.7-8.9 1-21.3 12.8-27.5 11.9-6.3 25.3-4.2 30 4.8z"/><path class="st10" d="m144.4 10.2c4.7 8.9-1 21.3-12.8 27.5-11.8 6.3-25.2 4.1-30-4.8-4.7-8.9 1-21.3 12.8-27.5 11.9-6.3 25.3-4.2 30 4.8z"/></g></mask><path class="st11" d="m144.4 10.2c4.7 8.9-1 21.3-12.8 27.5-11.8 6.3-25.2 4.1-30-4.8-4.7-8.9 1-21.3 12.8-27.5 11.9-6.3 25.3-4.2 30 4.8z" fill="url(#SVGID_9_)" mask="url(#SVGID_6_)"/><path class="st1" d="m132.7 14.6h-10c-8.2 0-14.9 5.7-14.9 14.2 0 7.1 4.3 12.2 10.7 13.2v9.9h13.3v-9.5h1.8c2.2-0.2 3.6-1.6 3.6-3.6v-5.5h3.6zm-2.6 16c-1.8 0-3.3-1.5-3.3-3.3s1.5-3.3 3.3-3.3 3.3 1.5 3.3 3.3-1.5 3.3-3.3 3.3zm13.8-16h-5.4l8.2 18.6h-3.7v4.9c0 3-1.2 4.3-5.3 4.2v9.5h5.3v-9.5h1.7c1.6 0 3.6-1.2 3.7-3.7v-5.5h3.6z" fill="#fff"/></g><g transform="matrix(6.7486 0 0 6.7486 1023.5 -1161.5)" fill="#3a9fdf"><g transform="translate(-117.28 329.6)"><path d="m0 0h1.639c1.394 0 2.155 0.87 2.155 1.941 0 1.11-0.801 1.943-2.155 1.943h-1.639zm-2.459 3.881h-1.698v2.102h5.615c3.049 0 4.794-1.572 4.794-4.042 0-2.518-1.827-4.051-4.713-4.051-0.242-5e-3 -1.539-2e-3 -1.539-2e-3v-3.196h1.99v-2.115h-6.17v2.115h1.721z" fill="#3a9fdf"/></g><g transform="translate(-106.17 330.22)"><path d="m0 0h1.47c1.106 0 1.85 0.654 1.85 1.637 0 0.969-0.736 1.628-1.85 1.628h-1.47zm0-5.925h1.565c1.292 0 2.166 0.711 2.166 1.911 0 1.015-0.681 1.898-2.166 1.898h-1.565zm-2.456 9.189h-1.543v2.102h5.389c3.336 0 4.399-1.996 4.399-3.452 0-1.234-0.656-2.226-1.618-2.695 1.349-0.563 2.105-1.949 2.105-3.163 0-2.919-2.293-4.095-4.487-4.095h-5.966v2.114h1.721z" fill="#3a9fdf"/></g><g transform="translate(-91.884 333.49)"><path d="m0 0c-0.44 0.171-1.016 0.324-1.592 0.324-1.643 0-2.168-0.952-2.168-1.694 0-0.971 0.627-1.256 1.406-1.465l1.423-0.4c1.744-0.495 3.675-1.142 3.675-3.901 0-2.531-1.524-4.377-4.895-4.377-1.304 0-2.659 0.152-4.251 0.742v3.52h2.473v-1.75c0.627-0.286 1.304-0.343 1.998-0.343 1.457 0 2.101 0.781 2.101 1.789 0 0.685-0.339 1.18-1.931 1.637l-1.304 0.38c-2.439 0.705-3.269 1.77-3.269 3.825 0 2.113 1.321 3.977 4.675 3.977 1.439 0 2.879-0.266 3.895-0.703v-3.178h-2.236z" fill="#3a9fdf"/></g></g><g transform="matrix(6.7486 0 0 6.7486 1023.5 -1161.5)" fill="#3a9fdf"><g transform="translate(-173.22 330.54)"><path d="m0 0c-0.595 1.171-0.794 1.667-1.211 2.938 0.139-4.427 0.139-5.002 0.219-9.429h1.627v-1.806h-5.458v1.806h1.588v9.627h-1.588v1.806h5.24l4.069-7.781c0.496-0.952 0.754-1.627 1.171-3.076-0.159 4.287-0.179 4.922-0.198 9.051h-1.628v1.806h5.379v-1.806h-1.489v-11.433h-3.354z" fill="#3a9fdf"/></g><g transform="translate(-153.42 329.84)"><path d="m0 0v3.831h-1.528v1.806h5.915v-1.806h-1.588v-9.627h1.588v-1.806h-5.915v1.806h1.528v3.99h-5.22v-3.99h1.548v-1.806h-5.915v1.806h1.568v9.627h-1.568v1.806h5.915v-1.806h-1.548v-3.831z" fill="#3a9fdf"/></g></g></g></svg>
