<svg width="800" height="124.01" version="1.1" viewBox="0 0 800 124.01" xml:space="preserve" xmlns="http://www.w3.org/2000/svg"><defs><radialGradient id="SVGID_1_-9" cx="96.973" cy="28.951" r="65.771" gradientTransform="matrix(-.5076 .8616 -.8616 -.5076 187.3 -61.064)" gradientUnits="userSpaceOnUse"><stop offset=".7"/><stop stop-color="#030303" offset=".7679"/><stop stop-color="#0B0B0B" offset=".8088"/><stop stop-color="#191919" offset=".8425"/><stop stop-color="#2E2E2E" offset=".8723"/><stop stop-color="#484848" offset=".8996"/><stop stop-color="#686868" offset=".925"/><stop stop-color="#8F8F8F" offset=".9489"/><stop stop-color="#bbb" offset=".9717"/><stop stop-color="#EDEDED" offset=".9928"/><stop stop-color="#fff" offset="1"/></radialGradient><linearGradient id="SVGID_5_-7" x1="-1004" x2="-1004" y1="488.58" y2="407.31" gradientTransform="matrix(.8873 -.4612 .4612 .8873 801.62 -849.8)" gradientUnits="userSpaceOnUse"><stop stop-color="#404040" offset=".2582"/><stop stop-color="#3B3B3B" offset=".2638"/><stop stop-color="#252525" offset=".2947"/><stop stop-color="#141414" offset=".3311"/><stop stop-color="#090909" offset=".3762"/><stop stop-color="#020202" offset=".4396"/><stop offset=".6154"/></linearGradient><mask id="SVGID_2_-4" x="97.2" y="1" width="59.2" height="55.5" maskUnits="userSpaceOnUse"><g class="st4" filter="url(#Adobe_OpacityMaskFilter-5)"><path class="st5" d="m153.6 14.5c7 13.2 0.6 30.2-14.2 38s-32.4 3.5-39.4-9.6c-7-13.2-0.6-30.2 14.1-38 14.8-7.8 32.5-3.5 39.5 9.6z" fill="url(#SVGID_3_)"/><path class="st6" d="m153.6 14.5c7 13.2 0.6 30.2-14.2 38s-32.4 3.5-39.4-9.6c-7-13.2-0.6-30.2 14.1-38 14.8-7.8 32.5-3.5 39.5 9.6z" fill="url(#SVGID_3_)"/></g></mask><filter id="Adobe_OpacityMaskFilter-5" x="97.2" y="1" width="59.2" height="55.5" filterUnits="userSpaceOnUse"><feColorMatrix values="1 0 0 0 0  0 1 0 0 0  0 0 1 0 0  0 0 0 1 0"/></filter><linearGradient id="SVGID_9_-7" x1="429.46" x2="400.55" y1="-470.27" y2="-508.51" gradientTransform="matrix(.9824 .1866 -.1866 .9824 -378.83 419.12)" gradientUnits="userSpaceOnUse"><stop offset=".4011"/><stop stop-color="#282828" offset=".427"/><stop stop-color="#545454" offset=".4606"/><stop stop-color="#7D7D7D" offset=".4978"/><stop stop-color="#A0A0A0" offset=".5374"/><stop stop-color="#BEBEBE" offset=".5804"/><stop stop-color="#D6D6D6" offset=".6277"/><stop stop-color="#E8E8E8" offset=".6812"/><stop stop-color="#F5F5F5" offset=".7444"/><stop stop-color="#FDFDFD" offset=".8269"/><stop stop-color="#fff" offset="1"/></linearGradient><mask id="SVGID_6_-2" x="100" y="1.8" width="46.1" height="39.5" maskUnits="userSpaceOnUse"><g class="st8" filter="url(#Adobe_OpacityMaskFilter_1_-6)"><path class="st9" d="m144.4 10.2c4.7 8.9-1 21.3-12.8 27.5-11.8 6.3-25.2 4.1-30-4.8-4.7-8.9 1-21.3 12.8-27.5 11.9-6.3 25.3-4.2 30 4.8z" fill="url(#SVGID_7_)"/><path class="st10" d="m144.4 10.2c4.7 8.9-1 21.3-12.8 27.5-11.8 6.3-25.2 4.1-30-4.8-4.7-8.9 1-21.3 12.8-27.5 11.9-6.3 25.3-4.2 30 4.8z" fill="url(#SVGID_7_)"/></g></mask><filter id="Adobe_OpacityMaskFilter_1_-6" x="100" y="1.8" width="46.1" height="39.5" filterUnits="userSpaceOnUse"><feColorMatrix values="1 0 0 0 0  0 1 0 0 0  0 0 1 0 0  0 0 0 1 0"/></filter></defs><g transform="matrix(1.3333 0 0 -1.3333 233.68 1209.2)"><g transform="matrix(6.812 0 0 6.812 1034.8 -1180)" fill="#3a9fdf"><path d="m-172.01 295.37-2.671 5.069c-0.28 0.529-0.527 1.125-0.74 1.789 0.059-1.927 0.104-3.844 0.136-5.751h0.989v-1.107h-3.334v1.107h0.971v5.869h-0.971v1.108h3.204l2.493-4.75c0.245-0.462 0.482-1.086 0.711-1.871-0.075 1.859-0.115 3.697-0.119 5.513h-0.995v1.108h3.281v-1.108h-0.912v-6.976z"/><path d="m-165.76 300.02h3.192v2.327h-0.942v1.108h3.613v-1.108h-0.965v-5.868h0.965v-1.108h-3.613v1.108h0.942v2.434h-3.192v-2.434h0.936v-1.108h-3.607v1.108h0.966v5.868h-0.966v1.108h3.607v-1.108h-0.936z"/></g><g transform="matrix(6.812 0 0 6.812 1034.8 -1180)" fill="#3ab54a"><path d="m-140.93 300.03h1.125v0.959h1.161v-3.032h-1.161v0.96h-1.125v-2.44h2.937v1.48h1.38v-2.588h-7v1.108h0.977v5.868h-0.977v1.108h7v-2.464h-1.38v1.356h-2.937z"/><path d="m-135.54 303.45h3.583v-1.107h-0.989l1.504-1.955 1.498 1.955h-0.971v1.107h3.352v-1.107h-0.716l-2.233-2.79 2.475-3.079h0.664v-1.108h-3.672v1.108h1.101l-1.758 2.215-1.7-2.215h1.089v-1.108h-3.434v1.108h0.675l2.475 3.079-2.238 2.79h-0.705z"/><path d="m-124.06 299.57h0.918c0.486 0 0.831 0.097 1.036 0.29 0.273 0.249 0.409 0.616 0.409 1.102 0 0.466-0.121 0.813-0.361 1.042-0.241 0.229-0.604 0.343-1.09 0.343h-0.912zm0-1.107v-1.984h1.143v-1.108h-3.837v1.108h0.988v5.868h-0.988v1.108h4.228c0.734 0 1.326-0.18 1.776-0.539 0.561-0.442 0.841-1.096 0.841-1.96 0-0.589-0.138-1.094-0.414-1.516-0.233-0.352-0.533-0.602-0.9-0.752-0.367-0.151-0.865-0.225-1.493-0.225z"/><path d="m-113.2 298.28v-2.914h-6.485v1.108h0.978v5.868h-0.978v1.108h3.844v-1.108h-1.161v-5.868h2.422v1.806z"/><path d="m-108.83 302.48c-0.549 0-1.023-0.176-1.421-0.527-0.545-0.486-0.818-1.342-0.818-2.57 0-0.995 0.202-1.751 0.604-2.268 0.395-0.514 0.94-0.77 1.635-0.77 0.699 0 1.247 0.258 1.646 0.776 0.399 0.517 0.598 1.275 0.598 2.274 0 0.864-0.134 1.543-0.402 2.037-0.174 0.32-0.419 0.57-0.735 0.752-0.335 0.197-0.704 0.296-1.107 0.296m-0.024 1.137c1.354 0 2.405-0.436 3.151-1.309 0.604-0.707 0.906-1.652 0.906-2.837 0-1.223-0.306-2.206-0.918-2.949-0.367-0.45-0.819-0.781-1.356-0.995-0.545-0.213-1.125-0.319-1.741-0.319-1.323 0-2.351 0.418-3.086 1.255-0.639 0.727-0.959 1.727-0.959 3.003 0 1.263 0.345 2.26 1.036 2.99 0.735 0.774 1.724 1.161 2.967 1.161"/><path d="m-101.94 299.84h0.876c0.482 0 0.859 0.114 1.131 0.344 0.273 0.228 0.409 0.545 0.409 0.947 0 0.805-0.43 1.208-1.291 1.208h-1.125zm0-1.102v-2.267h0.876v-1.108h-3.582v1.108h1v5.868h-1v1.108h4.204c1.043 0 1.767-0.253 2.174-0.758 0.296-0.372 0.444-0.826 0.444-1.362 0-0.324-0.056-0.629-0.169-0.915-0.112-0.287-0.269-0.517-0.471-0.69-0.26-0.233-0.659-0.385-1.196-0.456v-0.042c0.395-0.023 0.688-0.116 0.879-0.278 0.192-0.162 0.353-0.45 0.483-0.865l0.503-1.61h0.782v-1.108h-2.132l-0.781 2.505c-0.099 0.32-0.234 0.545-0.403 0.675-0.17 0.13-0.415 0.195-0.735 0.195z"/><path d="m-93.871 300.03h1.125v0.959h1.161v-3.032h-1.161v0.96h-1.125v-2.44h2.937v1.48h1.38v-2.588h-6.999v1.108h0.976v5.868h-0.976v1.108h6.999v-2.464h-1.38v1.356h-2.937z"/></g><g transform="matrix(1.4092 0 0 -1.4092 -181.74 906.89)"><path d="m162.3 33c0 18.2-14.8 33-33 33s-33-14.8-33-33 14.8-33 33-33c18.3 0 33 14.8 33 33z"/><path class="st3" d="m113.8 60.5c-15.1-8.9-20.1-28.3-11.2-43.3s28.3-20.1 43.3-11.2c15.1 8.9 20.1 28.3 11.2 43.3-8.9 15.1-28.3 20.1-43.3 11.2z" fill="url(#SVGID_1_-9)"/><mask x="97.2" y="1" width="59.2" height="55.5" maskUnits="userSpaceOnUse"><g class="st4" fill="url(#SVGID_3_)" filter="url(#Adobe_OpacityMaskFilter-5)"><path class="st5" d="m153.6 14.5c7 13.2 0.6 30.2-14.2 38s-32.4 3.5-39.4-9.6c-7-13.2-0.6-30.2 14.1-38 14.8-7.8 32.5-3.5 39.5 9.6z"/><path class="st6" d="m153.6 14.5c7 13.2 0.6 30.2-14.2 38s-32.4 3.5-39.4-9.6c-7-13.2-0.6-30.2 14.1-38 14.8-7.8 32.5-3.5 39.5 9.6z"/></g></mask><path class="st7" d="m153.6 14.5c7 13.2 0.6 30.2-14.2 38s-32.4 3.5-39.4-9.6c-7-13.2-0.6-30.2 14.1-38 14.8-7.8 32.5-3.5 39.5 9.6z" fill="url(#SVGID_5_-7)" mask="url(#SVGID_2_-4)"/><mask x="100" y="1.8" width="46.1" height="39.5" maskUnits="userSpaceOnUse"><g class="st8" fill="url(#SVGID_7_)" filter="url(#Adobe_OpacityMaskFilter_1_-6)"><path class="st9" d="m144.4 10.2c4.7 8.9-1 21.3-12.8 27.5-11.8 6.3-25.2 4.1-30-4.8-4.7-8.9 1-21.3 12.8-27.5 11.9-6.3 25.3-4.2 30 4.8z"/><path class="st10" d="m144.4 10.2c4.7 8.9-1 21.3-12.8 27.5-11.8 6.3-25.2 4.1-30-4.8-4.7-8.9 1-21.3 12.8-27.5 11.9-6.3 25.3-4.2 30 4.8z"/></g></mask><path class="st11" d="m144.4 10.2c4.7 8.9-1 21.3-12.8 27.5-11.8 6.3-25.2 4.1-30-4.8-4.7-8.9 1-21.3 12.8-27.5 11.9-6.3 25.3-4.2 30 4.8z" fill="url(#SVGID_9_-7)" mask="url(#SVGID_6_-2)"/><path class="st1" d="m132.7 14.6h-10c-8.2 0-14.9 5.7-14.9 14.2 0 7.1 4.3 12.2 10.7 13.2v9.9h13.3v-9.5h1.8c2.2-0.2 3.6-1.6 3.6-3.6v-5.5h3.6zm-2.6 16c-1.8 0-3.3-1.5-3.3-3.3s1.5-3.3 3.3-3.3 3.3 1.5 3.3 3.3-1.5 3.3-3.3 3.3zm13.8-16h-5.4l8.2 18.6h-3.7v4.9c0 3-1.2 4.3-5.3 4.2v9.5h5.3v-9.5h1.7c1.6 0 3.6-1.2 3.7-3.7v-5.5h3.6z" fill="#fff"/></g></g></svg>
