<svg width="800" height="217.88" version="1.1" viewBox="0 0 800 217.88" xmlns="http://www.w3.org/2000/svg">
 <g transform="translate(94.13 -459.05)">
  <g transform="matrix(39.096 0 0 39.096 -3641.6 -2762.6)">
   <g transform="translate(.13229 -.13229)">
    <g transform="matrix(.35278 0 0 -.35278 106.89 83.226)">
     <path d="m0 0c3.789 1.862 8.243 1.81 9.965-0.737 1.821-2.694-0.638-5.286-3.793-8.123l-0.09 0.037c2.52 2.213 4.27 5.239 3.205 7.113-1.41 2.479-4.831 2.646-8.547 1.575-1.017-0.293-2.641-1.018-3.108-1.344-0.122-0.085 0.892 0.754 2.368 1.479" fill="#bb1a2d" fill-rule="evenodd"/>
    </g>
    <g transform="matrix(.35278 0 0 -.35278 103.62 86.451)">
     <path d="m0 0c0.517 3.774 4.891 7.344 8.699 9.131 3.943 1.849 9.428 1.763 10.804-1.203 1.011-2.177-0.477-5.363-3.264-7.81l0.097-0.041c3.492 3.138 6.056 5.903 4.081 8.929-1.868 2.86-8.452 2.895-13.877-0.576-1.295-0.828-6.317-3.358-6.54-8.43" fill="#1d62af" fill-rule="evenodd"/>
    </g>
    <g transform="matrix(.35278 0 0 -.35278 104.02 86.774)">
     <path d="m0 0h3.453l1.961 9.145h-2.78c-0.72-1.265-1.639-1.622-3.266-1.647h-0.554l-0.491-2.293h2.793z" fill="#fbbe11" fill-rule="evenodd"/>
    </g>
    <g transform="matrix(.35278 0 0 -.35278 107.39 84.989)">
     <path d="m0 0c-2.289-0.474-4.744-1.542-5.564-5.06h11.569l0.491 2.293h-7.655c0.297 0.342 0.763 0.553 1.586 0.699l3.439 0.618c1.371 0.251 3.315 0.949 3.687 2.688 0.549 2.557-2.158 3.084-5.162 3.084-2.333 0-5.442-0.422-6.394-3.571h3.953c0.361 1.186 1.396 1.278 2.397 1.278 0.855 0 1.457-0.211 1.343-0.738-0.082-0.382-0.382-0.619-0.864-0.711z" fill="#fbbe11" fill-rule="evenodd"/>
    </g>
    <g transform="matrix(.35278 0 0 -.35278 99.996 85.929)">
     <path d="m0 0h3.204s-0.158-0.669 1.101-0.669 1.116 0.567 1.122 0.691c0.031 0.653-2.424 0.432-3.508 0.806-1.085 0.374-1.368 1.039-1.351 1.608 0.017 0.568 0.248 2.597 4.584 2.644 4.703 0.052 3.804-2.293 3.804-2.293l-3.111 0.015s0.225 0.709-1.054 0.709c-1.331 0-1.243-0.666-0.965-0.855 0.617-0.416 4.902 0.139 4.902-1.98 0-1.262-0.728-3.072-4.675-3.072-3.256 0-3.839 0.695-4.055 1.418-0.157 0.528 2e-3 0.978 2e-3 0.978" fill="#fbbe10" fill-rule="evenodd"/>
    </g>
    <g transform="matrix(.35278 0 0 -.35278 91.442 84.226)">
     <path d="m0 0-1.547-6.953 2.539-2e-3 0.847 3.956 1.995-3.954h2.909l1.583 6.953h-2.566l-0.899-3.832-1.804 3.832z" fill="#fbbe10" fill-rule="evenodd"/>
    </g>
    <g transform="matrix(.35278 0 0 -.35278 94.505 84.226)">
     <path d="m0 0-1.597-6.953h7.18l0.384 1.69h-4.491l0.214 0.945h4.176l0.384 1.724h-4.176l0.189 0.889 5.037-4e-3 0.89 1.709z" fill="#fbbe10" fill-rule="evenodd"/>
    </g>
    <g transform="matrix(.35278 0 0 -.35278 96.783 84.226)">
     <path d="m0 0 0.345-6.953h2.671l1.758 3.817 0.057-3.817h2.64l3.55 6.953h-2.637l-1.766-4.22-0.045 4.22h-2.161l-1.934-4.22 0.081 4.22z" fill="#fbbe10" fill-rule="evenodd"/>
    </g>
   </g>
  </g>
  <g transform="matrix(.49365 0 0 .49365 -47.663 342.76)" fill="#1b184b">
   <path transform="translate(-94.13 235.57)" d="m18.443 352.54-18.443 86.635h12.861l14.682-68.92h0.24219l41.014 68.92h14.924l18.443-86.635h-12.861l-14.682 68.92h-0.24414l-41.012-68.92z"/>
   <path transform="translate(-94.13 235.57)" d="m190.36 352.54-18.443 86.635h70.861l2.4258-11.162h-57.998l5.9453-28.029h55.088l2.3047-11.162h-55.088l5.3398-25.117h56.785l2.4277-11.164z"/>
   <path transform="translate(-94.13 235.57)" d="m334.57 352.54 10.07 86.635h14.197l39.191-71.83h0.24219l8.7363 71.83h14.076l47.807-86.635h-13.348l-37.129 70.375h-0.24219l-8.7363-70.375h-15.289l-38.221 70.375h-0.24219l-7.1602-70.375z"/>
   <path transform="translate(-94.13 235.57)" d="m694.86 352.54-13.104 61.396c-2.4267 11.487-8.9786 17.23-19.656 17.23-9.3834 0-14.076-4.0035-14.076-12.012 0-1.6178 0.20296-3.3984 0.60742-5.3398l0.97071-4.125h-12.135c-1.1325 5.0152-1.6973 9.059-1.6973 12.133 0 13.023 8.1296 19.535 24.389 19.535 19.09 0 30.777-10.029 35.064-30.09l12.498-58.729z"/>
   <path transform="translate(-94.13 235.57)" d="m794.91 352.54-18.443 86.635h70.861l2.4277-11.162h-58l5.9453-28.029h55.088l2.3047-11.162h-55.086l5.3379-25.117h56.785l2.4277-11.164z"/>
   <path transform="translate(-94.13 235.57)" d="m949.79 352.54-18.443 86.635h12.861l7.7656-36.766h33.611c4.5299 0 7.8461 0.97072 9.9492 2.9121 2.1032 1.8605 3.1543 5.1384 3.1543 9.8301 0 2.1841-0.20101 4.6903-0.60547 7.5215-1.1325 7.1993-1.6992 11.486-1.6992 12.861 0 1.5369 0.28337 2.7508 0.84961 3.6406h13.59c-0.9707-1.456-1.4571-3.3573-1.4571-5.7031 0-2.6694 0.7678-8.6143 2.3047-17.836 0.3236-1.8605 0.4863-3.599 0.4863-5.2168 1e-4 -7.9273-3.0327-12.337-9.0996-13.227v-0.24218c10.354-3.0739 16.703-10.192 19.049-21.355 0.4853-1.9414 0.7285-3.8828 0.7285-5.8242 0-5.0153-1.4571-9.0188-4.3692-12.012-3.3165-3.4783-8.3309-5.2188-15.045-5.2188zm10.436 11.164h36.279c8.4936 0 12.74 3.3966 12.74 10.191 0 5.2579-1.7806 9.4644-5.3398 12.619-3.5592 3.1548-8.0873 4.7324-13.588 4.7324h-35.916z"/>
   <path transform="translate(-94.13 235.57)" d="m1141 350.35c-11.001 0-20.061 2.3856-27.18 7.1582-7.0376 4.7726-11.447 11.164-13.227 19.172-0.3235 1.7796-0.4844 3.4377-0.4844 4.9746 0 9.3025 7.1588 15.207 21.477 17.715l18.928 3.2773c9.1407 1.6178 13.711 5.0144 13.711 10.191 0 0.80891-0.1207 1.6992-0.3633 2.6699-0.9708 4.6108-3.8829 8.2103-8.7364 10.799-4.7726 2.5885-10.677 3.8828-17.715 3.8828-16.178 0-24.268-5.137-24.268-15.41 0-1.2943 0.1608-2.669 0.4844-4.125h-12.861c-0.5663 2.6694-0.8496 5.1374-0.8496 7.4024 0 8.3318 3.5191 14.438 10.557 18.32 5.8241 3.3165 13.67 4.9746 23.539 4.9746 10.354 0 19.171-1.9816 26.451-5.9453 9.0598-4.8535 14.683-12.336 16.867-22.447 0.3236-1.5369 0.4844-3.0322 0.4844-4.4883 0-9.2216-7.2794-15.126-21.84-17.715l-20.506-3.6406c-8.0083-1.456-12.014-4.531-12.014-9.2227 0-0.64712 0.082-1.3747 0.2442-2.1836 1.0516-4.6917 4.0039-8.3314 8.8574-10.92 4.2063-2.1841 8.9776-3.2754 14.316-3.2754 15.45 0 22.892 5.338 22.326 16.016h12.863c0.2427-1.6987 0.3633-3.3166 0.3633-4.8535 0-7.8464-3.2357-13.711-9.707-17.594-5.5006-3.1548-12.74-4.7324-21.719-4.7324z"/>
   <path transform="translate(-94.13 235.57)" d="m1260.7 352.54-18.443 86.635h70.859l2.4277-11.162h-58l5.9453-28.029h55.088l2.3047-11.162h-55.086l5.3379-25.117h56.785l2.4278-11.164z"/>
   <path transform="translate(-94.13 235.57)" d="m1405 352.54 27.059 50.963-7.5234 35.672h12.863l7.7656-36.279 48.898-50.355h-15.652l-37.129 39.436-19.9-39.436z"/>
  </g>
  <text x="796.18298" y="924.29456" fill="#000000" font-family="sans-serif" font-size="53.333px" letter-spacing="0px" word-spacing="0px" style="line-height:1.25" xml:space="preserve"><tspan x="796.18298" y="972.95215"/></text>
 </g>
</svg>
