<svg width="800" height="168.07" version="1.1" viewBox="0 0 800 168.07" xmlns="http://www.w3.org/2000/svg">
 <g transform="translate(71.169 -403.14)">
  <g transform="matrix(39.658 0 0 39.658 -3681.2 -2864.8)">
   <g transform="translate(.13229 -.13229)">
    <g transform="matrix(.35278 0 0 -.35278 106.89 83.226)">
     <path d="m0 0c3.789 1.862 8.243 1.81 9.965-0.737 1.821-2.694-0.638-5.286-3.793-8.123l-0.09 0.037c2.52 2.213 4.27 5.239 3.205 7.113-1.41 2.479-4.831 2.646-8.547 1.575-1.017-0.293-2.641-1.018-3.108-1.344-0.122-0.085 0.892 0.754 2.368 1.479" fill="#bb1a2d" fill-rule="evenodd"/>
    </g>
    <g transform="matrix(.35278 0 0 -.35278 103.62 86.451)">
     <path d="m0 0c0.517 3.774 4.891 7.344 8.699 9.131 3.943 1.849 9.428 1.763 10.804-1.203 1.011-2.177-0.477-5.363-3.264-7.81l0.097-0.041c3.492 3.138 6.056 5.903 4.081 8.929-1.868 2.86-8.452 2.895-13.877-0.576-1.295-0.828-6.317-3.358-6.54-8.43" fill="#1d62af" fill-rule="evenodd"/>
    </g>
    <g transform="matrix(.35278 0 0 -.35278 104.02 86.774)">
     <path d="m0 0h3.453l1.961 9.145h-2.78c-0.72-1.265-1.639-1.622-3.266-1.647h-0.554l-0.491-2.293h2.793z" fill="#fbbe11" fill-rule="evenodd"/>
    </g>
    <g transform="matrix(.35278 0 0 -.35278 107.39 84.989)">
     <path d="m0 0c-2.289-0.474-4.744-1.542-5.564-5.06h11.569l0.491 2.293h-7.655c0.297 0.342 0.763 0.553 1.586 0.699l3.439 0.618c1.371 0.251 3.315 0.949 3.687 2.688 0.549 2.557-2.158 3.084-5.162 3.084-2.333 0-5.442-0.422-6.394-3.571h3.953c0.361 1.186 1.396 1.278 2.397 1.278 0.855 0 1.457-0.211 1.343-0.738-0.082-0.382-0.382-0.619-0.864-0.711z" fill="#fbbe11" fill-rule="evenodd"/>
    </g>
    <g transform="matrix(.35278 0 0 -.35278 99.996 85.929)">
     <path d="m0 0h3.204s-0.158-0.669 1.101-0.669 1.116 0.567 1.122 0.691c0.031 0.653-2.424 0.432-3.508 0.806-1.085 0.374-1.368 1.039-1.351 1.608 0.017 0.568 0.248 2.597 4.584 2.644 4.703 0.052 3.804-2.293 3.804-2.293l-3.111 0.015s0.225 0.709-1.054 0.709c-1.331 0-1.243-0.666-0.965-0.855 0.617-0.416 4.902 0.139 4.902-1.98 0-1.262-0.728-3.072-4.675-3.072-3.256 0-3.839 0.695-4.055 1.418-0.157 0.528 2e-3 0.978 2e-3 0.978" fill="#fbbe10" fill-rule="evenodd"/>
    </g>
    <g transform="matrix(.35278 0 0 -.35278 91.442 84.226)">
     <path d="m0 0-1.547-6.953 2.539-2e-3 0.847 3.956 1.995-3.954h2.909l1.583 6.953h-2.566l-0.899-3.832-1.804 3.832z" fill="#fbbe10" fill-rule="evenodd"/>
    </g>
    <g transform="matrix(.35278 0 0 -.35278 94.505 84.226)">
     <path d="m0 0-1.597-6.953h7.18l0.384 1.69h-4.491l0.214 0.945h4.176l0.384 1.724h-4.176l0.189 0.889 5.037-4e-3 0.89 1.709z" fill="#fbbe10" fill-rule="evenodd"/>
    </g>
    <g transform="matrix(.35278 0 0 -.35278 96.783 84.226)">
     <path d="m0 0 0.345-6.953h2.671l1.758 3.817 0.057-3.817h2.64l3.55 6.953h-2.637l-1.766-4.22-0.045 4.22h-2.161l-1.934-4.22 0.081 4.22z" fill="#fbbe10" fill-rule="evenodd"/>
    </g>
   </g>
  </g>
  <text x="796.18298" y="924.29456" fill="#000000" font-family="sans-serif" font-size="53.333px" letter-spacing="0px" word-spacing="0px" style="line-height:1.25" xml:space="preserve"><tspan x="796.18298" y="972.95215"/></text>
 </g>
</svg>
