<svg width="800" height="220.44" version="1.1" viewBox="0 0 800 220.44" xmlns="http://www.w3.org/2000/svg">
 <g transform="translate(78.712 -457.43)">
  <g transform="matrix(39.472 0 0 39.472 -3668 -2795.2)">
   <g transform="translate(.13229 -.13229)">
    <g transform="matrix(.35278 0 0 -.35278 106.89 83.226)">
     <path d="m0 0c3.789 1.862 8.243 1.81 9.965-0.737 1.821-2.694-0.638-5.286-3.793-8.123l-0.09 0.037c2.52 2.213 4.27 5.239 3.205 7.113-1.41 2.479-4.831 2.646-8.547 1.575-1.017-0.293-2.641-1.018-3.108-1.344-0.122-0.085 0.892 0.754 2.368 1.479" fill="#bb1a2d" fill-rule="evenodd"/>
    </g>
    <g transform="matrix(.35278 0 0 -.35278 103.62 86.451)">
     <path d="m0 0c0.517 3.774 4.891 7.344 8.699 9.131 3.943 1.849 9.428 1.763 10.804-1.203 1.011-2.177-0.477-5.363-3.264-7.81l0.097-0.041c3.492 3.138 6.056 5.903 4.081 8.929-1.868 2.86-8.452 2.895-13.877-0.576-1.295-0.828-6.317-3.358-6.54-8.43" fill="#1d62af" fill-rule="evenodd"/>
    </g>
    <g transform="matrix(.35278 0 0 -.35278 104.02 86.774)">
     <path d="m0 0h3.453l1.961 9.145h-2.78c-0.72-1.265-1.639-1.622-3.266-1.647h-0.554l-0.491-2.293h2.793z" fill="#fbbe11" fill-rule="evenodd"/>
    </g>
    <g transform="matrix(.35278 0 0 -.35278 107.39 84.989)">
     <path d="m0 0c-2.289-0.474-4.744-1.542-5.564-5.06h11.569l0.491 2.293h-7.655c0.297 0.342 0.763 0.553 1.586 0.699l3.439 0.618c1.371 0.251 3.315 0.949 3.687 2.688 0.549 2.557-2.158 3.084-5.162 3.084-2.333 0-5.442-0.422-6.394-3.571h3.953c0.361 1.186 1.396 1.278 2.397 1.278 0.855 0 1.457-0.211 1.343-0.738-0.082-0.382-0.382-0.619-0.864-0.711z" fill="#fbbe11" fill-rule="evenodd"/>
    </g>
    <g transform="matrix(.35278 0 0 -.35278 99.996 85.929)">
     <path d="m0 0h3.204s-0.158-0.669 1.101-0.669 1.116 0.567 1.122 0.691c0.031 0.653-2.424 0.432-3.508 0.806-1.085 0.374-1.368 1.039-1.351 1.608 0.017 0.568 0.248 2.597 4.584 2.644 4.703 0.052 3.804-2.293 3.804-2.293l-3.111 0.015s0.225 0.709-1.054 0.709c-1.331 0-1.243-0.666-0.965-0.855 0.617-0.416 4.902 0.139 4.902-1.98 0-1.262-0.728-3.072-4.675-3.072-3.256 0-3.839 0.695-4.055 1.418-0.157 0.528 2e-3 0.978 2e-3 0.978" fill="#fbbe10" fill-rule="evenodd"/>
    </g>
    <g transform="matrix(.35278 0 0 -.35278 91.442 84.226)">
     <path d="m0 0-1.547-6.953 2.539-2e-3 0.847 3.956 1.995-3.954h2.909l1.583 6.953h-2.566l-0.899-3.832-1.804 3.832z" fill="#fbbe10" fill-rule="evenodd"/>
    </g>
    <g transform="matrix(.35278 0 0 -.35278 94.505 84.226)">
     <path d="m0 0-1.597-6.953h7.18l0.384 1.69h-4.491l0.214 0.945h4.176l0.384 1.724h-4.176l0.189 0.889 5.037-4e-3 0.89 1.709z" fill="#fbbe10" fill-rule="evenodd"/>
    </g>
    <g transform="matrix(.35278 0 0 -.35278 96.783 84.226)">
     <path d="m0 0 0.345-6.953h2.671l1.758 3.817 0.057-3.817h2.64l3.55 6.953h-2.637l-1.766-4.22-0.045 4.22h-2.161l-1.934-4.22 0.081 4.22z" fill="#fbbe10" fill-rule="evenodd"/>
    </g>
   </g>
  </g>
  <text x="796.18298" y="924.29456" fill="#000000" font-family="sans-serif" font-size="53.333px" letter-spacing="0px" word-spacing="0px" style="line-height:1.25" xml:space="preserve"><tspan x="796.18298" y="972.95215"/></text>
  <g fill="#fff">
   <path d="m-77.416 630.45-1.2956 5.9603h17.491l-8.5515 40.297h6.8675l8.5515-40.297h17.492l1.2956-5.9603z"/>
   <path d="m8.9546 630.45-9.8472 46.257h6.8665l4.6004-21.768h31.485l-4.5994 21.768h6.8675l9.8472-46.257h-6.8675l-3.9511 18.529h-31.486l3.9521-18.529z"/>
   <path d="m103.56 630.45-9.8472 46.257h37.835l1.2956-5.9603h-30.968l3.1743-14.965h29.413l1.2304-5.9603h-29.413l2.8512-13.411h30.319l1.2966-5.9603z"/>
   <path d="m249.63 630.45-9.8481 46.257h27.341c4.7078 0 8.7023-1.4036 11.985-4.211 2.8938-2.4619 4.7292-5.5066 5.5067-9.1346 0.25915-1.1662 0.38937-2.2672 0.38937-3.3038 0-4.3191-2.2462-7.0182-6.738-8.0979l0.0652-0.13044c4.8374-1.6412 7.7739-4.9014 8.8105-9.782 0.21595-1.0798 0.32415-2.0947 0.32415-3.0449 0-5.7012-4.0386-8.5525-12.115-8.5525zm5.5709 5.9603h18.334c4.4918 0 6.738 1.577 6.738 4.7299 0 0.60467-0.0862 1.2529-0.25893 1.9439-0.38871 1.9436-1.3385 3.4765-2.8502 4.5994-1.5981 1.2525-3.6068 1.8787-6.0255 1.8787h-18.723zm-4.0164 19.112h19.176c5.0965 0 7.6453 1.8786 7.6453 5.6361 0 3.1097-1.1451 5.5283-3.4342 7.2559-2.1164 1.5549-4.7934 2.3323-8.0327 2.3323h-18.594z"/>
   <path d="m339.69 630.45-9.8472 46.257h6.8675l4.1458-19.63h17.946c2.4187 0 4.19 0.51896 5.313 1.5555 1.123 0.99339 1.684 2.7427 1.684 5.2477 0 1.1662-0.1082 2.5047-0.32415 4.0164-0.60467 3.844-0.90723 6.1333-0.90723 6.8675 0 0.82063 0.15128 1.4679 0.45361 1.943h7.2559c-0.51829-0.77744-0.77679-1.7923-0.77679-3.0449 0-1.4253 0.40978-4.5993 1.2304-9.523 0.17276-0.99338 0.2599-1.9221 0.2599-2.7859 0-4.2327-1.62-6.5871-4.8593-7.0622v-0.12947c5.5284-1.6412 8.9188-5.4414 10.171-11.402 0.25914-1.0366 0.3884-2.0735 0.3884-3.1101 0-2.6778-0.77746-4.8158-2.3323-6.4139-1.7708-1.8572-4.4479-2.7859-8.0327-2.7859zm5.5719 5.9603h19.371c4.535 0 6.8023 1.8144 6.8023 5.4424 0 2.8074-0.9498 5.0536-2.8502 6.738s-4.3189 2.526-7.2559 2.526h-19.176z"/>
   <path d="m451.54 629.28c-8.8541 0-16.326 2.8724-22.416 8.6168-6.0899 5.7444-9.1356 12.936-9.1356 21.574 0 5.3556 1.599 9.6317 4.7951 12.828 3.6712 3.7144 9.1345 5.5709 16.391 5.5709 8.8109 0 16.261-2.8714 22.351-8.6158 6.1331-5.7444 9.1998-12.936 9.1998-21.574 0-5.3556-1.598-9.6317-4.7941-12.828-3.6713-3.7144-9.1345-5.5719-16.391-5.5719zm-1.2956 5.9603c4.7078 0 8.4218 1.1231 11.143 3.369 2.8938 2.3755 4.3405 5.7448 4.3405 10.107 0 1.5117-0.17234 3.1307-0.51783 4.8584-1.2526 5.8739-4.0598 10.453-8.4221 13.735-4.0167 3.0665-8.7897 4.5994-14.318 4.5994-4.7078 0-8.4218-1.1221-11.143-3.368-2.937-2.3755-4.4057-5.7448-4.4057-10.107 0-1.5117 0.19432-3.1317 0.58307-4.8593 1.2525-5.8739 4.0378-10.452 8.3569-13.734 4.0599-3.0665 8.8549-4.6004 14.383-4.6004z"/>
   <path d="m524.09 630.45-9.8472 46.257h6.8675l7.839-36.798h0.12948l21.897 36.798h7.9695l9.8472-46.257h-6.8675l-7.839 36.798h-0.12949l-21.898-36.798z"/>
   <path d="m614.42 630.45 12.569 22.545-23.323 23.712h8.5525l17.881-18.723 10.042 18.723h9.0051l-13.281-23.712 22.611-22.545h-8.4873l-17.427 17.817-9.3945-17.817z"/>
  </g>
 </g>
</svg>
