<svg width="800" height="217.88" version="1.1" viewBox="0 0 800 217.88" xmlns="http://www.w3.org/2000/svg">
 <g transform="translate(94.13 -459.05)">
  <g transform="matrix(39.096 0 0 39.096 -3641.6 -2762.6)">
   <g transform="translate(.13229 -.13229)">
    <g transform="matrix(.35278 0 0 -.35278 106.89 83.226)">
     <path d="m0 0c3.789 1.862 8.243 1.81 9.965-0.737 1.821-2.694-0.638-5.286-3.793-8.123l-0.09 0.037c2.52 2.213 4.27 5.239 3.205 7.113-1.41 2.479-4.831 2.646-8.547 1.575-1.017-0.293-2.641-1.018-3.108-1.344-0.122-0.085 0.892 0.754 2.368 1.479" fill="#bb1a2d" fill-rule="evenodd"/>
    </g>
    <g transform="matrix(.35278 0 0 -.35278 103.62 86.451)">
     <path d="m0 0c0.517 3.774 4.891 7.344 8.699 9.131 3.943 1.849 9.428 1.763 10.804-1.203 1.011-2.177-0.477-5.363-3.264-7.81l0.097-0.041c3.492 3.138 6.056 5.903 4.081 8.929-1.868 2.86-8.452 2.895-13.877-0.576-1.295-0.828-6.317-3.358-6.54-8.43" fill="#1d62af" fill-rule="evenodd"/>
    </g>
    <g transform="matrix(.35278 0 0 -.35278 104.02 86.774)">
     <path d="m0 0h3.453l1.961 9.145h-2.78c-0.72-1.265-1.639-1.622-3.266-1.647h-0.554l-0.491-2.293h2.793z" fill="#fbbe11" fill-rule="evenodd"/>
    </g>
    <g transform="matrix(.35278 0 0 -.35278 107.39 84.989)">
     <path d="m0 0c-2.289-0.474-4.744-1.542-5.564-5.06h11.569l0.491 2.293h-7.655c0.297 0.342 0.763 0.553 1.586 0.699l3.439 0.618c1.371 0.251 3.315 0.949 3.687 2.688 0.549 2.557-2.158 3.084-5.162 3.084-2.333 0-5.442-0.422-6.394-3.571h3.953c0.361 1.186 1.396 1.278 2.397 1.278 0.855 0 1.457-0.211 1.343-0.738-0.082-0.382-0.382-0.619-0.864-0.711z" fill="#fbbe11" fill-rule="evenodd"/>
    </g>
    <g transform="matrix(.35278 0 0 -.35278 99.996 85.929)">
     <path d="m0 0h3.204s-0.158-0.669 1.101-0.669 1.116 0.567 1.122 0.691c0.031 0.653-2.424 0.432-3.508 0.806-1.085 0.374-1.368 1.039-1.351 1.608 0.017 0.568 0.248 2.597 4.584 2.644 4.703 0.052 3.804-2.293 3.804-2.293l-3.111 0.015s0.225 0.709-1.054 0.709c-1.331 0-1.243-0.666-0.965-0.855 0.617-0.416 4.902 0.139 4.902-1.98 0-1.262-0.728-3.072-4.675-3.072-3.256 0-3.839 0.695-4.055 1.418-0.157 0.528 2e-3 0.978 2e-3 0.978" fill="#fbbe10" fill-rule="evenodd"/>
    </g>
    <g transform="matrix(.35278 0 0 -.35278 91.442 84.226)">
     <path d="m0 0-1.547-6.953 2.539-2e-3 0.847 3.956 1.995-3.954h2.909l1.583 6.953h-2.566l-0.899-3.832-1.804 3.832z" fill="#fbbe10" fill-rule="evenodd"/>
    </g>
    <g transform="matrix(.35278 0 0 -.35278 94.505 84.226)">
     <path d="m0 0-1.597-6.953h7.18l0.384 1.69h-4.491l0.214 0.945h4.176l0.384 1.724h-4.176l0.189 0.889 5.037-4e-3 0.89 1.709z" fill="#fbbe10" fill-rule="evenodd"/>
    </g>
    <g transform="matrix(.35278 0 0 -.35278 96.783 84.226)">
     <path d="m0 0 0.345-6.953h2.671l1.758 3.817 0.057-3.817h2.64l3.55 6.953h-2.637l-1.766-4.22-0.045 4.22h-2.161l-1.934-4.22 0.081 4.22z" fill="#fbbe10" fill-rule="evenodd"/>
    </g>
   </g>
  </g>
  <g transform="matrix(.49365 0 0 .49365 -47.663 342.76)" fill="#1b184b">
   <path transform="translate(-94.13 235.57)" d="m18.443 352.54-18.443 86.635h65.521l2.4277-11.162h-52.66l16.016-75.473z"/>
   <path transform="translate(-94.13 235.57)" d="m196.32 350.35c-16.583 0-30.577 5.3802-41.982 16.139s-17.109 24.226-17.109 40.404c0 10.03 2.9945 18.039 8.9805 24.025 6.8758 6.9566 17.108 10.434 30.697 10.434 16.502 0 30.456-5.3782 41.861-16.137 11.487-10.759 17.23-24.228 17.23-40.406 0-10.03-2.9945-18.037-8.9805-24.023-6.8757-6.9566-17.108-10.436-30.697-10.436zm-2.4277 11.164c8.8171 0 15.775 2.1022 20.871 6.3086 5.4197 4.449 8.1289 10.758 8.1289 18.928 1e-5 2.8312-0.32357 5.8659-0.9707 9.1016-2.3458 11.001-7.6034 19.575-15.773 25.723-7.5229 5.7433-16.462 8.6152-26.816 8.6152-8.8171 0-15.773-2.1042-20.869-6.3106-5.5006-4.449-8.25-10.758-8.25-18.928 0-2.8312 0.36377-5.864 1.0918-9.0996 2.3458-11.001 7.5632-19.577 15.652-25.725 7.6038-5.7433 16.581-8.6133 26.936-8.6133z"/>
   <path transform="translate(-94.13 235.57)" d="m316.23 352.54-18.443 86.635h12.861l14.682-68.92h0.24219l41.012 68.92h14.926l18.443-86.635h-12.863l-14.682 68.92h-0.24219l-41.012-68.92z"/>
   <path transform="translate(-94.13 235.57)" d="m519.67 350.35c-12.538 0-23.702 3.6397-33.49 10.92-11.325 8.4127-18.644 20.425-21.961 36.037-0.72803 3.5592-1.0918 7.0381-1.0918 10.436 0 9.5452 2.669 17.231 8.0078 23.055 6.4713 7.0375 16.299 10.555 29.484 10.555 13.913 0 26.046-4.8536 36.4-14.561l-0.48437 12.377h9.2207l9.9512-46.715h-39.799l-2.4277 11.164h28.393c-2.3458 7.8464-6.9563 14.236-13.832 19.17-6.8758 4.9344-14.925 7.4023-24.146 7.4023-8.3318 0-14.884-1.861-19.656-5.582-5.3388-4.2063-8.0078-10.394-8.0078-18.564 0-3.0739 0.36378-6.3498 1.0918-9.8281 2.1032-9.9496 6.4724-18.039 13.105-24.268 7.442-6.9566 16.582-10.434 27.422-10.434 15.531 0 24.024 6.1057 25.48 18.32h13.59c-0.32356-19.657-12.74-29.484-37.25-29.484z"/>
   <path transform="translate(-94.13 235.57)" d="m739.81 352.54-18.443 86.635h12.861l18.443-86.635z"/>
   <path transform="translate(-94.13 235.57)" d="m860.72 350.35c-11.001 0-20.061 2.3856-27.18 7.1582-7.0375 4.7726-11.445 11.164-13.225 19.172-0.32356 1.7796-0.48633 3.4377-0.48633 4.9746 0 9.3025 7.1588 15.207 21.477 17.715l18.93 3.2773c9.1407 1.6178 13.711 5.0144 13.711 10.191 0 0.80891-0.12061 1.6992-0.36328 2.6699-0.97069 4.6108-3.8828 8.2103-8.7363 10.799-4.7726 2.5885-10.679 3.8828-17.717 3.8828-16.178 0-24.266-5.137-24.266-15.41 0-1.2943 0.16082-2.669 0.48438-4.125h-12.861c-0.56624 2.6694-0.84961 5.1374-0.84961 7.4024 0 8.3318 3.5191 14.438 10.557 18.32 5.8242 3.3165 13.67 4.9746 23.539 4.9746 10.354 0 19.171-1.9816 26.451-5.9453 9.0598-4.8535 14.681-12.336 16.865-22.447 0.32356-1.5369 0.48633-3.0322 0.48633-4.4883 0-9.2216-7.2814-15.126-21.842-17.715l-20.506-3.6406c-8.0082-1.456-12.012-4.531-12.012-9.2227 0-0.64712 0.0804-1.3747 0.24219-2.1836 1.0516-4.6917 4.004-8.3314 8.8574-10.92 4.2063-2.1841 8.9796-3.2754 14.318-3.2754 15.45 0 22.892 5.338 22.326 16.016h12.861c0.24267-1.6987 0.36523-3.3166 0.36523-4.8535 0-7.8464-3.2357-13.711-9.707-17.594-5.5006-3.1548-12.742-4.7324-21.721-4.7324z"/>
   <path transform="translate(-94.13 235.57)" d="m969.69 352.54-18.443 86.635h65.523l2.4258-11.162h-52.66l16.018-75.473z"/>
   <path transform="translate(-94.13 235.57)" d="m1133 352.54-57.635 86.635h13.834l16.379-25.238h42.469l5.7032 25.238h14.682l-20.748-86.635zm4.248 11.893 8.4941 38.342h-32.883z"/>
   <path transform="translate(-94.13 235.57)" d="m1254.2 352.54-18.443 86.635h12.861l14.682-68.92h0.2422l41.012 68.92h14.924l18.443-86.635h-12.861l-14.682 68.92h-0.2422l-41.012-68.92z"/>
   <path transform="translate(-94.13 235.57)" d="m1414.9 352.54-18.441 86.635h44.65c12.538-1e-5 22.973-4.4075 31.305-13.225 7.4419-7.7656 12.539-18.202 15.289-31.307 1.0516-4.8535 1.5781-9.3414 1.5781-13.467 0-19.09-10.151-28.637-30.455-28.637zm10.436 11.164h28.758c14.641 0 21.961 6.7549 21.961 20.264 0 3.2356-0.4039 6.8754-1.2129 10.92-4.6916 22.083-15.329 33.125-31.912 33.125h-31.184z"/>
  </g>
  <text x="796.18298" y="924.29456" fill="#000000" font-family="sans-serif" font-size="53.333px" letter-spacing="0px" word-spacing="0px" style="line-height:1.25" xml:space="preserve"><tspan x="796.18298" y="972.95215"/></text>
 </g>
</svg>
