<svg version="1.1" viewBox="0 0 512.3 187.84" xmlns="http://www.w3.org/2000/svg">
 <path d="m234.1 108.24v-25.8h7.9l12.9 18.2v-18.2h6.2v25.8h-7.9l-13-18.3v18.3z"/>
 <path d="m290.2 101.94a9.9 9.9 0 0 1-4.1 5.1 13.13 13.13 0 0 1-7.1 1.8c-3.6 0-6.4-0.9-8.5-2.8a9.59 9.59 0 0 1-3.1-7.5 9.32 9.32 0 0 1 3.1-7.5 12.6 12.6 0 0 1 8.5-2.8c3.7 0 6.6 1 8.6 2.9s3 4.6 3 8.2v0.8h-16.4a4.6 4.6 0 0 0 1.4 3.4 5.13 5.13 0 0 0 3.5 1.2c2.4 0 3.9-0.9 4.7-2.8zm-15.9-5.8h9.6a3.75 3.75 0 0 0-1.5-2.8 6.28 6.28 0 0 0-6.8 0 4.34 4.34 0 0 0-1.3 2.8z"/>
 <path d="m301.4 108.24-7.7-19.24h6.4l4.3 13.3 4-13.3h5.9l4 13.3 4.3-13.3h6.4l-7.7 19.2h-5.9l-4-12.9-4 12.9z"/>
 <path d="m332.7 101.94h6.3q0.3 2.7 5.4 2.7a7.75 7.75 0 0 0 3-0.5c0.7-0.4 1.1-0.8 1.1-1.4a1.17 1.17 0 0 0-0.8-1.1 9 9 0 0 0-2.5-0.4l-5.4-0.5a7.49 7.49 0 0 1-4.7-1.9 5.09 5.09 0 0 1-1.7-4 5.3 5.3 0 0 1 2.7-4.8c1.8-1.1 4.4-1.7 7.8-1.7a14.5 14.5 0 0 1 7.6 1.7 5.1 5.1 0 0 1 2.7 4.6v0.2h-6c-0.3-1.7-1.8-2.5-4.7-2.5-2.6 0-3.9 0.6-3.9 1.7s1.5 1.6 4.5 1.8l4.2 0.3c4.3 0.3 6.4 2.2 6.4 5.7 0 4.7-3.6 7-10.8 7s-11-2.3-11.2-6.9z"/>
 <path d="m363.7 101.24h6.4c0.2 1.7 1.5 2.6 3.9 2.6 3.6 0 5.3-1.9 5.3-5.6v-0.4a10.19 10.19 0 0 1-6.4 2 11.39 11.39 0 0 1-7.5-2.3 8.51 8.51 0 0 1 0.3-12.7c2-1.6 4.8-2.4 8.5-2.4 3.9 0 6.8 1.1 8.8 3.3s3 5.4 3 9.7-1.1 7.7-3.2 10-5.2 3.4-9.2 3.4a10.93 10.93 0 0 1-7.1-2.1 7 7 0 0 1-2.8-5.5zm5.5-10a3.17 3.17 0 0 0 1.3 2.8 5.94 5.94 0 0 0 3.8 1 5.72 5.72 0 0 0 3.6-1.1 3.23 3.23 0 0 0 1.3-2.7 3.49 3.49 0 0 0-1.2-2.8 5.11 5.11 0 0 0-3.4-1 6.25 6.25 0 0 0-3.9 1 3.22 3.22 0 0 0-1.5 2.8z"/>
 <path d="m395.2 82.74h11.5l10.2 14.1h0.1v-14.1h9.6v25.5h-11l-10.7-14.3h-0.1v14.3h-9.6z"/>
 <path d="m449.9 81.84c6.1 0 17.4 0.4 17.4 13.6s-11.3 13.56-17.4 13.56-17.4-0.4-17.4-13.6 11.3-13.56 17.4-13.56zm0 20.8c4.1 0 6.7-2 6.7-7.2s-2.6-7.2-6.7-7.2-6.7 2-6.7 7.2 2.6 7.2 6.7 7.2z"/>
 <path d="m470.7 82.74h9.7l3.3 15.6h0.1l3.7-15.6h8l3.7 15.6h0.1l3.3-15.6h9.7l-7.5 25.5h-9.9l-3.5-14.1h-0.1l-3.5 14.1h-9.9z"/>
 <g fill="#be2419">
  <path class="cls-1" d="m100.6 0.14h3.3c-0.4 0-0.8-0.1-1.3-0.1a6.73 6.73 0 0 0-2 0.1z"/>
  <path class="cls-1" d="m176.8 63c0 67.1-52.3 108-79.9 124.8h69c20.1 0 36.4-15.1 36.4-33.8v-120.06c0-18.7-16.3-33.8-36.4-33.8h-16.9c18.9 14.4 27.8 38 27.8 62.86z"/>
  <path class="cls-1" d="m36.5 187.84h30.2a38.32 38.32 0 0 0 8.6-4.6c12.7-9.6 36.8-22.2 56.5-77.3l-0.7 0.5c-13.4 10.7-23.8 16.7-42.9 16.2-27.2-0.7-61.9-20-61.2-65.5 0.4-26.2 12.7-45.3 29.5-57.1h-20.1c-20.1-0.04-36.4 15.1-36.4 33.8v120.16c0 18.74 16.3 33.84 36.5 33.84z"/>
  <path class="cls-1" d="m65.8 48.54c0 36.4 16.5 52.2 36.5 52.2 27.2 0 34.6-23 34.6-49.3 0-22.9-8.7-50-33-51.3h-3.3c-16.6 1.1-34.8 18.2-34.8 48.4z"/>
 </g>
</svg>
