<svg width="800" height="218.24" version="1.1" viewBox="0 0 800 218.24" xmlns="http://www.w3.org/2000/svg">
 <g transform="translate(91.46 -458.69)">
  <g transform="matrix(39.161 0 0 39.161 -3646.1 -2768.3)">
   <g transform="translate(.13229 -.13229)">
    <g transform="matrix(.35278 0 0 -.35278 106.89 83.226)">
     <path d="m0 0c3.789 1.862 8.243 1.81 9.965-0.737 1.821-2.694-0.638-5.286-3.793-8.123l-0.09 0.037c2.52 2.213 4.27 5.239 3.205 7.113-1.41 2.479-4.831 2.646-8.547 1.575-1.017-0.293-2.641-1.018-3.108-1.344-0.122-0.085 0.892 0.754 2.368 1.479" fill="#bb1a2d" fill-rule="evenodd"/>
    </g>
    <g transform="matrix(.35278 0 0 -.35278 103.62 86.451)">
     <path d="m0 0c0.517 3.774 4.891 7.344 8.699 9.131 3.943 1.849 9.428 1.763 10.804-1.203 1.011-2.177-0.477-5.363-3.264-7.81l0.097-0.041c3.492 3.138 6.056 5.903 4.081 8.929-1.868 2.86-8.452 2.895-13.877-0.576-1.295-0.828-6.317-3.358-6.54-8.43" fill="#1d62af" fill-rule="evenodd"/>
    </g>
    <g transform="matrix(.35278 0 0 -.35278 104.02 86.774)">
     <path d="m0 0h3.453l1.961 9.145h-2.78c-0.72-1.265-1.639-1.622-3.266-1.647h-0.554l-0.491-2.293h2.793z" fill="#fbbe11" fill-rule="evenodd"/>
    </g>
    <g transform="matrix(.35278 0 0 -.35278 107.39 84.989)">
     <path d="m0 0c-2.289-0.474-4.744-1.542-5.564-5.06h11.569l0.491 2.293h-7.655c0.297 0.342 0.763 0.553 1.586 0.699l3.439 0.618c1.371 0.251 3.315 0.949 3.687 2.688 0.549 2.557-2.158 3.084-5.162 3.084-2.333 0-5.442-0.422-6.394-3.571h3.953c0.361 1.186 1.396 1.278 2.397 1.278 0.855 0 1.457-0.211 1.343-0.738-0.082-0.382-0.382-0.619-0.864-0.711z" fill="#fbbe11" fill-rule="evenodd"/>
    </g>
    <g transform="matrix(.35278 0 0 -.35278 99.996 85.929)">
     <path d="m0 0h3.204s-0.158-0.669 1.101-0.669 1.116 0.567 1.122 0.691c0.031 0.653-2.424 0.432-3.508 0.806-1.085 0.374-1.368 1.039-1.351 1.608 0.017 0.568 0.248 2.597 4.584 2.644 4.703 0.052 3.804-2.293 3.804-2.293l-3.111 0.015s0.225 0.709-1.054 0.709c-1.331 0-1.243-0.666-0.965-0.855 0.617-0.416 4.902 0.139 4.902-1.98 0-1.262-0.728-3.072-4.675-3.072-3.256 0-3.839 0.695-4.055 1.418-0.157 0.528 2e-3 0.978 2e-3 0.978" fill="#fbbe10" fill-rule="evenodd"/>
    </g>
    <g transform="matrix(.35278 0 0 -.35278 91.442 84.226)">
     <path d="m0 0-1.547-6.953 2.539-2e-3 0.847 3.956 1.995-3.954h2.909l1.583 6.953h-2.566l-0.899-3.832-1.804 3.832z" fill="#fbbe10" fill-rule="evenodd"/>
    </g>
    <g transform="matrix(.35278 0 0 -.35278 94.505 84.226)">
     <path d="m0 0-1.597-6.953h7.18l0.384 1.69h-4.491l0.214 0.945h4.176l0.384 1.724h-4.176l0.189 0.889 5.037-4e-3 0.89 1.709z" fill="#fbbe10" fill-rule="evenodd"/>
    </g>
    <g transform="matrix(.35278 0 0 -.35278 96.783 84.226)">
     <path d="m0 0 0.345-6.953h2.671l1.758 3.817 0.057-3.817h2.64l3.55 6.953h-2.637l-1.766-4.22-0.045 4.22h-2.161l-1.934-4.22 0.081 4.22z" fill="#fbbe10" fill-rule="evenodd"/>
    </g>
   </g>
  </g>
  <g transform="matrix(.49447 0 0 .49447 -46.236 342.21)" fill="#1b184b">
   <path transform="translate(-94.13 235.57)" d="m59.092 350.35c-14.318 0-26.533 4.4094-36.645 13.227-9.4643 8.17-15.612 18.846-18.443 32.031-0.8898 4.449-1.334 8.6555-1.334 12.619 0 11.244 3.8427 19.779 11.527 25.604 6.5522 5.0152 15.086 7.5215 25.602 7.5215 12.053 0 22.851-3.477 32.396-10.434 9.1407-6.6331 15.289-14.925 18.443-24.875h-12.861c-6.8757 16.097-18.687 24.146-35.432 24.146-9.2216 0-16.137-2.4278-20.748-7.2812-3.9637-4.2063-5.9453-9.9081-5.9453-17.107 0-2.8312 0.32357-5.7836 0.9707-8.8574 2.4267-11.567 7.3205-20.425 14.682-26.572 7.0375-5.905 15.814-8.8574 26.33-8.8574 8.6554 0 15.167 2.1826 19.535 6.5508 3.8828 3.9637 5.6634 9.181 5.3398 15.652h12.861c0.24267-1.6987 0.36328-3.3568 0.36328-4.9746 0-9.9496-4.0839-17.432-12.254-22.447-6.5522-3.9637-14.682-5.9453-24.389-5.9453z"/>
   <path transform="translate(-94.13 235.57)" d="m210.77 350.35c-16.583 0-30.577 5.3802-41.982 16.139s-17.109 24.226-17.109 40.404c0 10.03 2.9926 18.039 8.9785 24.025 6.8758 6.9566 17.11 10.434 30.699 10.434 16.502 0 30.456-5.3782 41.861-16.137 11.487-10.759 17.229-24.228 17.229-40.406 0-10.03-2.9926-18.037-8.9785-24.023-6.8758-6.9566-17.108-10.436-30.697-10.436zm-2.4277 11.164c8.8171 0 15.773 2.1022 20.869 6.3086 5.4197 4.449 8.1309 10.758 8.1309 18.928 0 2.8312-0.32358 5.8659-0.9707 9.1016-2.3458 11.001-7.6034 19.575-15.773 25.723-7.5229 5.7433-16.462 8.6152-26.816 8.6152-8.8171 0-15.773-2.1042-20.869-6.3106-5.5006-4.449-8.252-10.758-8.252-18.928 0-2.8312 0.36378-5.864 1.0918-9.0996 2.3458-11.001 7.5632-19.577 15.652-25.725 7.6038-5.7433 16.583-8.6133 26.938-8.6133z"/>
   <path transform="translate(-94.13 235.57)" d="m322.85 352.54-18.443 86.635h12.861l14.682-68.92h0.24219l41.012 68.92h14.926l18.441-86.635h-12.861l-14.682 68.92h-0.24219l-41.012-68.92z"/>
   <path transform="translate(-94.13 235.57)" d="m476.23 352.54-18.443 86.635h12.861l14.682-68.92h0.24414l41.012 68.92h14.924l18.443-86.635h-12.861l-14.682 68.92h-0.24414l-41.012-68.92z"/>
   <path transform="translate(-94.13 235.57)" d="m629.13 352.54-18.443 86.635h70.861l2.4258-11.162h-57.998l5.9453-28.029h55.086l2.3066-11.162h-55.088l5.3398-25.117h56.785l2.4277-11.164z"/>
   <path transform="translate(-94.13 235.57)" d="m805.64 350.35c-14.318 0-26.531 4.4094-36.643 13.227-9.4643 8.17-15.612 18.846-18.443 32.031-0.8898 4.449-1.3359 8.6555-1.3359 12.619 0 11.244 3.8427 19.779 11.527 25.604 6.5522 5.0152 15.086 7.5215 25.602 7.5215 12.053 0 22.853-3.477 32.398-10.434 9.1407-6.6331 15.289-14.925 18.443-24.875h-12.863c-6.8757 16.097-18.685 24.146-35.43 24.146-9.2216 0-16.137-2.4278-20.748-7.2812-3.9637-4.2063-5.9453-9.9081-5.9453-17.107 0-2.8312 0.32357-5.7836 0.97071-8.8574 2.4267-11.567 7.3205-20.425 14.682-26.572 7.0375-5.905 15.814-8.8574 26.33-8.8574 8.6554 0 15.167 2.1826 19.535 6.5508 3.8828 3.9637 5.6614 9.181 5.3379 15.652h12.861c0.24267-1.6987 0.36523-3.3568 0.36523-4.9746 0-9.9496-4.0858-17.432-12.256-22.447-6.5522-3.9637-14.682-5.9453-24.389-5.9453z"/>
   <path transform="translate(-94.13 235.57)" d="m904.17 352.54-2.4277 11.164h32.762l-16.018 75.471h12.863l16.016-75.471h32.762l2.4258-11.164z"/>
   <path transform="translate(-94.13 235.57)" d="m1043.2 352.54-18.443 86.635h12.861l18.443-86.635z"/>
   <path transform="translate(-94.13 235.57)" d="m1167 350.35c-14.318 0-26.531 4.4094-36.643 13.227-9.4642 8.17-15.612 18.846-18.443 32.031-0.8898 4.449-1.334 8.6555-1.334 12.619 0 11.244 3.8408 19.779 11.525 25.604 6.5522 5.0152 15.088 7.5215 25.604 7.5215 12.053 0 22.851-3.477 32.396-10.434 9.1407-6.6331 15.289-14.925 18.443-24.875h-12.861c-6.8758 16.097-18.687 24.146-35.432 24.146-9.2216 0-16.137-2.4278-20.748-7.2812-3.9637-4.2063-5.9453-9.9081-5.9453-17.107 0-2.8312 0.3235-5.7836 0.9707-8.8574 2.4267-11.567 7.3205-20.425 14.682-26.572 7.0375-5.905 15.814-8.8574 26.33-8.8574 8.6553 0 15.167 2.1826 19.535 6.5508 3.8828 3.9637 5.6615 9.181 5.3379 15.652h12.863c0.2427-1.6987 0.3633-3.3568 0.3633-4.9746 0-9.9496-4.0859-17.432-12.256-22.447-6.5522-3.9637-14.682-5.9453-24.389-5.9453z"/>
   <path transform="translate(-94.13 235.57)" d="m1274.5 352.54-11.527 53.875c-0.728 3.721-1.0918 7.1578-1.0918 10.312 0 16.421 10.961 24.631 32.883 24.631 26.128 0 41.66-11.647 46.594-34.943l11.525-53.875h-12.861l-11.77 55.451c-3.1547 14.803-13.509 22.205-31.062 22.205-14.884 0-22.326-5.4204-22.326-16.26 0-1.7796 0.2431-3.7612 0.7285-5.9453l11.77-55.451z"/>
   <path transform="translate(-94.13 235.57)" d="m1412.3 352.54-2.4278 11.164h32.762l-16.016 75.471h12.861l16.016-75.471h32.762l2.4258-11.164z"/>
  </g>
  <text x="796.18298" y="924.29456" fill="#000000" font-family="sans-serif" font-size="53.333px" letter-spacing="0px" word-spacing="0px" style="line-height:1.25" xml:space="preserve"><tspan x="796.18298" y="972.95215"/></text>
 </g>
</svg>
