<svg width="800" height="218.36" version="1.1" viewBox="0 0 800 218.36" xmlns="http://www.w3.org/2000/svg">
 <g transform="translate(93.993 -459.51)">
  <g transform="matrix(39.099 0 0 39.099 -3641.9 -2762.4)">
   <g transform="translate(.13229 -.13229)">
    <g transform="matrix(.35278 0 0 -.35278 106.89 83.226)">
     <path d="m0 0c3.789 1.862 8.243 1.81 9.965-0.737 1.821-2.694-0.638-5.286-3.793-8.123l-0.09 0.037c2.52 2.213 4.27 5.239 3.205 7.113-1.41 2.479-4.831 2.646-8.547 1.575-1.017-0.293-2.641-1.018-3.108-1.344-0.122-0.085 0.892 0.754 2.368 1.479" fill="#bb1a2d" fill-rule="evenodd"/>
    </g>
    <g transform="matrix(.35278 0 0 -.35278 103.62 86.451)">
     <path d="m0 0c0.517 3.774 4.891 7.344 8.699 9.131 3.943 1.849 9.428 1.763 10.804-1.203 1.011-2.177-0.477-5.363-3.264-7.81l0.097-0.041c3.492 3.138 6.056 5.903 4.081 8.929-1.868 2.86-8.452 2.895-13.877-0.576-1.295-0.828-6.317-3.358-6.54-8.43" fill="#1d62af" fill-rule="evenodd"/>
    </g>
    <g transform="matrix(.35278 0 0 -.35278 104.02 86.774)">
     <path d="m0 0h3.453l1.961 9.145h-2.78c-0.72-1.265-1.639-1.622-3.266-1.647h-0.554l-0.491-2.293h2.793z" fill="#fbbe11" fill-rule="evenodd"/>
    </g>
    <g transform="matrix(.35278 0 0 -.35278 107.39 84.989)">
     <path d="m0 0c-2.289-0.474-4.744-1.542-5.564-5.06h11.569l0.491 2.293h-7.655c0.297 0.342 0.763 0.553 1.586 0.699l3.439 0.618c1.371 0.251 3.315 0.949 3.687 2.688 0.549 2.557-2.158 3.084-5.162 3.084-2.333 0-5.442-0.422-6.394-3.571h3.953c0.361 1.186 1.396 1.278 2.397 1.278 0.855 0 1.457-0.211 1.343-0.738-0.082-0.382-0.382-0.619-0.864-0.711z" fill="#fbbe11" fill-rule="evenodd"/>
    </g>
    <g transform="matrix(.35278 0 0 -.35278 99.996 85.929)">
     <path d="m0 0h3.204s-0.158-0.669 1.101-0.669 1.116 0.567 1.122 0.691c0.031 0.653-2.424 0.432-3.508 0.806-1.085 0.374-1.368 1.039-1.351 1.608 0.017 0.568 0.248 2.597 4.584 2.644 4.703 0.052 3.804-2.293 3.804-2.293l-3.111 0.015s0.225 0.709-1.054 0.709c-1.331 0-1.243-0.666-0.965-0.855 0.617-0.416 4.902 0.139 4.902-1.98 0-1.262-0.728-3.072-4.675-3.072-3.256 0-3.839 0.695-4.055 1.418-0.157 0.528 2e-3 0.978 2e-3 0.978" fill="#fbbe10" fill-rule="evenodd"/>
    </g>
    <g transform="matrix(.35278 0 0 -.35278 91.442 84.226)">
     <path d="m0 0-1.547-6.953 2.539-2e-3 0.847 3.956 1.995-3.954h2.909l1.583 6.953h-2.566l-0.899-3.832-1.804 3.832z" fill="#fbbe10" fill-rule="evenodd"/>
    </g>
    <g transform="matrix(.35278 0 0 -.35278 94.505 84.226)">
     <path d="m0 0-1.597-6.953h7.18l0.384 1.69h-4.491l0.214 0.945h4.176l0.384 1.724h-4.176l0.189 0.889 5.037-4e-3 0.89 1.709z" fill="#fbbe10" fill-rule="evenodd"/>
    </g>
    <g transform="matrix(.35278 0 0 -.35278 96.783 84.226)">
     <path d="m0 0 0.345-6.953h2.671l1.758 3.817 0.057-3.817h2.64l3.55 6.953h-2.637l-1.766-4.22-0.045 4.22h-2.161l-1.934-4.22 0.081 4.22z" fill="#fbbe10" fill-rule="evenodd"/>
    </g>
   </g>
  </g>
  <text x="796.18298" y="924.29456" fill="#000000" font-family="sans-serif" font-size="53.333px" letter-spacing="0px" word-spacing="0px" style="line-height:1.25" xml:space="preserve"><tspan x="796.18298" y="972.95215"/></text>
  <g transform="matrix(.49369 0 0 .49369 -47.589 343.21)" fill="#1b184b">
   <path transform="translate(-94.13 235.57)" d="m19.896 347.15-19.76 92.812h13.779l9.2305-43.676h63.174l-9.2285 43.676h13.779l19.758-92.812h-13.779l-7.9297 37.178h-63.174l7.9297-37.178z"/>
   <path transform="translate(-94.13 235.57)" d="m153.35 347.15-12.348 57.717c-0.77994 3.9864-1.1699 7.6691-1.1699 11.049 0 17.592 11.742 26.387 35.227 26.387 27.991 0 44.63-12.478 49.916-37.436l12.35-57.717h-13.779l-12.609 59.406c-3.3797 15.859-14.472 23.787-33.277 23.787-15.945 0-23.918-5.8056-23.918-17.418 0-1.9065 0.25934-4.0293 0.7793-6.3691l12.609-59.406z"/>
   <path transform="translate(-94.13 235.57)" d="m280.22 347.15-19.76 92.812h47.836c13.432 0 24.613-4.722 33.539-14.168 7.9727-8.3193 13.432-19.498 16.379-33.537 1.1266-5.1996 1.6894-10.01 1.6894-14.43 0-20.452-10.877-30.678-32.629-30.678zm11.178 11.959h30.809c15.685 0 23.527 7.2368 23.527 21.709 0 3.4664-0.43223 7.3662-1.2988 11.699-5.0263 23.658-16.422 35.486-34.188 35.486h-33.408z"/>
   <path transform="translate(-94.13 235.57)" d="m439.45 344.81c-11.786 0-21.491 2.557-29.117 7.6699-7.5394 5.1129-12.263 11.96-14.17 20.539-0.34664 1.9065-0.51953 3.6816-0.51953 5.3281 0 9.9659 7.669 16.292 23.008 18.979l20.279 3.5098c9.7926 1.7332 14.688 5.3737 14.688 10.92 0 0.8666-0.12869 1.8195-0.38867 2.8594-1.0399 4.9396-4.1598 8.7972-9.3594 11.57-5.1129 2.7731-11.439 4.1582-18.979 4.1582-17.332 0-25.998-5.502-25.998-16.508 0-1.3866 0.17289-2.86 0.51953-4.4199h-13.779c-0.60662 2.8598-0.91015 5.5032-0.91015 7.9297 0 8.926 3.7711 15.469 11.311 19.629 6.2395 3.553 14.644 5.3281 25.217 5.3281 11.092 0 20.539-2.1228 28.338-6.3691 9.7059-5.1996 15.729-13.214 18.068-24.047 0.34664-1.6465 0.52148-3.2507 0.52148-4.8106 0-9.8792-7.7997-16.205-23.398-18.979l-21.969-3.9004c-8.5793-1.5599-12.869-4.8526-12.869-9.8789 0-0.69328 0.0864-1.4732 0.25976-2.3398 1.1266-5.0263 4.2906-8.9261 9.4902-11.699 4.5063-2.3398 9.6183-3.5098 15.338-3.5098 16.552 0 24.525 5.7211 23.918 17.16h13.779c0.25998-1.8199 0.39063-3.5546 0.39063-5.2012 0-8.406-3.4676-14.688-10.4-18.848-5.8929-3.3797-13.648-5.0703-23.268-5.0703z"/>
   <path transform="translate(-94.13 235.57)" d="m563.73 344.81c-17.765 0-32.758 5.7633-44.977 17.289s-18.328 25.955-18.328 43.287c0 10.746 3.2063 19.325 9.6191 25.738 7.3661 7.4528 18.33 11.178 32.889 11.178 17.679 0 32.627-5.7614 44.846-17.287 12.306-11.526 18.459-25.955 18.459-43.287 0-10.746-3.2063-19.325-9.6192-25.738-7.3661-7.4527-18.33-11.18-32.889-11.18zm-2.5996 11.959c9.4459 0 16.9 2.2534 22.359 6.7598 5.8062 4.7663 8.709 11.527 8.709 20.279 0 3.0331-0.34774 6.2817-1.041 9.748-2.5131 11.786-8.1458 20.972-16.898 27.559-8.0594 6.1529-17.634 9.2285-28.727 9.2285-9.4459 0-16.9-2.2515-22.359-6.7578-5.8929-4.7663-8.8398-11.527-8.8398-20.279 0-3.0331 0.38998-6.2836 1.1699-9.75 2.5131-11.786 8.1036-20.97 16.77-27.557 8.146-6.1528 17.765-9.2305 28.857-9.2305z"/>
   <path transform="translate(-94.13 235.57)" d="m653.19 347.15-19.758 92.812h13.779l15.729-73.834h0.25977l43.938 73.834h15.988l19.758-92.812h-13.779l-15.729 73.834h-0.25977l-43.936-73.834z"/>
   <path transform="translate(-94.13 235.57)" d="m841.38 347.15 21.578 92.812h14.688l60.445-92.812h-14.818l-49.656 78.514-16.639-78.514z"/>
   <path transform="translate(-94.13 235.57)" d="m996.54 347.15-61.746 92.812h14.82l17.549-27.037h45.496l6.1093 27.037h15.729l-22.229-92.812zm4.5489 12.74 9.0996 41.076h-35.227z"/>
   <path transform="translate(-94.13 235.57)" d="m1087.5 347.15-19.76 92.812h70.195l2.5996-11.959h-56.416l17.158-80.854z"/>
   <path transform="translate(-94.13 235.57)" d="m1192.5 347.15-19.758 92.812h70.195l2.5996-11.959h-56.416l17.158-80.854z"/>
   <path transform="translate(-94.13 235.57)" d="m1297 347.15-19.758 92.812h75.914l2.5996-11.959h-62.135l6.3691-30.027h59.016l2.4688-11.959h-59.016l5.7208-26.908h60.836l2.5996-11.959z"/>
   <path transform="translate(-94.13 235.57)" d="m1400.7 347.15 28.986 54.596-8.0585 38.217h13.779l8.3183-38.865 52.387-53.947h-16.77l-39.775 42.248-21.318-42.248z"/>
  </g>
 </g>
</svg>
