<svg width="1e3" height="209.93" version="1.1" viewBox="0 0 264.58 55.544" xmlns="http://www.w3.org/2000/svg">
 <link href="" rel="stylesheet" type="text/css"/>
 <style type="text/css"/>
 <g transform="translate(788.72 -989.55)">
  <g fill="#396ff6">
   <path d="m-788.72 1043.8v-44.494h13.138v5.5171c1.8735-3.7683 6.4659-6.513 12.85-6.513 11.172 0 16.839 7.4053 16.839 18.182v11.788c0 4.1023 1.5745 4.3944 2.9411 4.3944 0.55507 0 1.3853-0.093 1.3853-0.093v11.138s-1.6285 0.616-5.6942 0.616c-7.2375 0-11.81-3.3272-11.81-13.039v-13.336c0-3.9841-2.2742-7.978-7.9383-7.978-5.2893 0-8.5734 4.151-8.5734 8.6924v25.125z"/>
   <path d="m-716.43 998.18c-13.633 0-24.109 8.7851-24.109 23.516 0 14.496 10.22 23.221 24.361 23.221 8.7514 0 14.435-3.3097 19.211-8.1322l-7.703-7.3588c-2.2531 2.1391-5.3464 4.3437-10.838 4.3437-6.3684 0-11.512-2.943-11.848-8.7396h33.641s0.17226-1.9371 0.17226-4.1342c0-12.849-9.2052-22.716-22.888-22.716zm-0.0193 10.87c4.7455 0 9.5549 2.8406 9.6542 7.4066h-20.379c0.14404-3.3223 4.1288-7.4066 10.725-7.4066z"/>
   <path d="m-694.92 999.31 14.049 44.534h10.956l7.7795-25.428 7.8438 25.428h10.875l14.148-44.534h-12.203l-7.8589 24.82-7.685-24.82h-10.256l-7.5823 24.837-7.8577-24.837z"/>
   <path d="m-612.61 1045.1c12.937 0 19.621-5.8646 19.621-14.999 0-4.7122-2.0128-7.6964-5.1495-9.8727-3.7026-2.569-9.6786-4.0687-14.571-5.3602-2.5367-0.7565-3.4232-1.3545-3.4232-2.8709 0-1.8758 1.9098-2.8478 4.4951-2.8478 4.2183 0 6.8761 1.1825 9.2866 3.277l6.2849-8.6627c-3.9681-3.7172-8.3784-5.7602-15.308-5.7602-8.9337 0-17.313 4.6749-17.313 14.393 0 15.797 23.141 12.15 23.141 17.903 0 2.3133-2.5716 3.5779-6.6661 3.5779-5.404 0-9.9018-2.1503-12.225-4.8721l-7.6108 8.1442c4.6466 5.6008 11.542 7.9507 19.439 7.9507z"/>
  </g>
  <g fill="#fff">
   <path d="m-582.09 1043.8h14.884v-52.71h-12.29c-2.8996 2.882-7.3157 6.094-12.358 8.2716v13.797c3.8848-1.2826 7.4732-3.1525 9.7641-5.0011z"/>
   <path d="m-562.96 1043.8h38.818v-12.939h-16.393l7.5414-8.4146c0.87832-1.0501 5.9592-6.4854 7.5934-11.07 0.56577-1.5873 0.87829-2.9872 0.87829-4.8289 0-10.603-7.7994-17.043-19.144-17.043-9.6784 0-16.337 4.3596-19.061 11.487-0.94674 2.4769-1.3049 5.2095-1.3049 8.3172h14.646c0-2.799 0.8151-6.4131 5.2256-6.4131 2.096 0 4.4695 0.8329 4.4695 3.6433 0 2.7661-3.1801 6.0003-5.0005 8.265l-18.269 21.058z"/>
  </g>
 </g>
</svg>
