<svg width="800" height="220.17" version="1.1" viewBox="0 0 800 220.17" xmlns="http://www.w3.org/2000/svg">
 <g transform="translate(80.712 -457.71)">
  <g transform="matrix(39.422 0 0 39.422 -3664.5 -2790.9)">
   <g transform="translate(.13229 -.13229)">
    <g transform="matrix(.35278 0 0 -.35278 106.89 83.226)">
     <path d="m0 0c3.789 1.862 8.243 1.81 9.965-0.737 1.821-2.694-0.638-5.286-3.793-8.123l-0.09 0.037c2.52 2.213 4.27 5.239 3.205 7.113-1.41 2.479-4.831 2.646-8.547 1.575-1.017-0.293-2.641-1.018-3.108-1.344-0.122-0.085 0.892 0.754 2.368 1.479" fill="#bb1a2d" fill-rule="evenodd"/>
    </g>
    <g transform="matrix(.35278 0 0 -.35278 103.62 86.451)">
     <path d="m0 0c0.517 3.774 4.891 7.344 8.699 9.131 3.943 1.849 9.428 1.763 10.804-1.203 1.011-2.177-0.477-5.363-3.264-7.81l0.097-0.041c3.492 3.138 6.056 5.903 4.081 8.929-1.868 2.86-8.452 2.895-13.877-0.576-1.295-0.828-6.317-3.358-6.54-8.43" fill="#1d62af" fill-rule="evenodd"/>
    </g>
    <g transform="matrix(.35278 0 0 -.35278 104.02 86.774)">
     <path d="m0 0h3.453l1.961 9.145h-2.78c-0.72-1.265-1.639-1.622-3.266-1.647h-0.554l-0.491-2.293h2.793z" fill="#fbbe11" fill-rule="evenodd"/>
    </g>
    <g transform="matrix(.35278 0 0 -.35278 107.39 84.989)">
     <path d="m0 0c-2.289-0.474-4.744-1.542-5.564-5.06h11.569l0.491 2.293h-7.655c0.297 0.342 0.763 0.553 1.586 0.699l3.439 0.618c1.371 0.251 3.315 0.949 3.687 2.688 0.549 2.557-2.158 3.084-5.162 3.084-2.333 0-5.442-0.422-6.394-3.571h3.953c0.361 1.186 1.396 1.278 2.397 1.278 0.855 0 1.457-0.211 1.343-0.738-0.082-0.382-0.382-0.619-0.864-0.711z" fill="#fbbe11" fill-rule="evenodd"/>
    </g>
    <g transform="matrix(.35278 0 0 -.35278 99.996 85.929)">
     <path d="m0 0h3.204s-0.158-0.669 1.101-0.669 1.116 0.567 1.122 0.691c0.031 0.653-2.424 0.432-3.508 0.806-1.085 0.374-1.368 1.039-1.351 1.608 0.017 0.568 0.248 2.597 4.584 2.644 4.703 0.052 3.804-2.293 3.804-2.293l-3.111 0.015s0.225 0.709-1.054 0.709c-1.331 0-1.243-0.666-0.965-0.855 0.617-0.416 4.902 0.139 4.902-1.98 0-1.262-0.728-3.072-4.675-3.072-3.256 0-3.839 0.695-4.055 1.418-0.157 0.528 2e-3 0.978 2e-3 0.978" fill="#fbbe10" fill-rule="evenodd"/>
    </g>
    <g transform="matrix(.35278 0 0 -.35278 91.442 84.226)">
     <path d="m0 0-1.547-6.953 2.539-2e-3 0.847 3.956 1.995-3.954h2.909l1.583 6.953h-2.566l-0.899-3.832-1.804 3.832z" fill="#fbbe10" fill-rule="evenodd"/>
    </g>
    <g transform="matrix(.35278 0 0 -.35278 94.505 84.226)">
     <path d="m0 0-1.597-6.953h7.18l0.384 1.69h-4.491l0.214 0.945h4.176l0.384 1.724h-4.176l0.189 0.889 5.037-4e-3 0.89 1.709z" fill="#fbbe10" fill-rule="evenodd"/>
    </g>
    <g transform="matrix(.35278 0 0 -.35278 96.783 84.226)">
     <path d="m0 0 0.345-6.953h2.671l1.758 3.817 0.057-3.817h2.64l3.55 6.953h-2.637l-1.766-4.22-0.045 4.22h-2.161l-1.934-4.22 0.081 4.22z" fill="#fbbe10" fill-rule="evenodd"/>
    </g>
   </g>
  </g>
  <text x="796.18298" y="924.29456" fill="#000000" font-family="sans-serif" font-size="53.333px" letter-spacing="0px" word-spacing="0px" style="line-height:1.25" xml:space="preserve"><tspan x="796.18298" y="972.95215"/></text>
  <g transform="matrix(.49777 0 0 .49777 -40.536 340.45)" fill="#fff">
   <path transform="translate(-94.13 235.57)" d="m16.018 347.15-2.5996 11.959h35.096l-17.158 80.854h13.779l17.158-80.854h35.098l2.5996-11.959z"/>
   <path transform="translate(-94.13 235.57)" d="m109.9 347.15-19.758 92.812h13.777l8.3203-39.387h36.008c4.853 0 8.405 1.0413 10.658 3.1211 2.2532 1.9932 3.3789 5.503 3.3789 10.529 0 2.3398-0.21514 5.0255-0.64844 8.0586-1.2132 7.7127-1.8203 12.306-1.8203 13.779 0 1.6465 0.30354 2.9452 0.91016 3.8984h14.559c-1.0399-1.5599-1.5606-3.5962-1.5606-6.1094 0-2.8598 0.82417-9.2282 2.4707-19.107 0.34664-1.9932 0.51953-3.8566 0.51953-5.5898 0-8.4927-3.2505-13.217-9.75-14.17v-0.25977c11.092-3.2931 17.897-10.918 20.41-22.877 0.51996-2.0798 0.7793-4.1604 0.7793-6.2402 0-5.3729-1.5599-9.6627-4.6797-12.869-3.553-3.7264-8.9264-5.5898-16.119-5.5898zm11.18 11.959h38.867c9.0993 0 13.648 3.6405 13.648 10.92 0 5.6329-1.9077 10.14-5.7207 13.52-3.813 3.3797-8.6657 5.0684-14.559 5.0684h-38.477z"/>
   <path transform="translate(-94.13 235.57)" d="m238.79 347.15-61.744 92.812h14.818l17.549-27.037h45.496l6.1094 27.037h15.729l-22.229-92.812zm4.5508 12.74 9.0976 41.076h-35.227z"/>
   <path d="m191.39 675.53 19.758-92.813h71.884l-2.5998 11.959h-58.105l-5.8495 27.428h55.376l-2.4698 11.959h-55.376l-8.8393 41.467z"/>
   <path transform="translate(-94.13 235.57)" d="m388.76 347.15-19.758 92.812h13.779l8.8379-41.467h55.377l2.4688-11.959h-55.375l5.8496-27.428h58.105l2.5996-11.959z"/>
   <path transform="translate(-94.13 235.57)" d="m473.41 347.15-19.758 92.812h13.779l19.758-92.812z"/>
   <path transform="translate(-94.13 235.57)" d="m551.55 344.81c-15.339 0-28.425 4.724-39.258 14.17-10.139 8.7526-16.725 20.191-19.758 34.316-0.95326 4.7663-1.4297 9.2732-1.4297 13.52 0 12.046 4.1169 21.188 12.35 27.428 7.0194 5.3729 16.162 8.0586 27.428 8.0586 12.912 0 24.481-3.725 34.707-11.178 9.7926-7.1061 16.378-15.989 19.758-26.648h-13.779c-7.3661 17.245-20.018 25.867-37.957 25.867-9.8792 0-17.287-2.5992-22.227-7.7988-4.2463-4.5063-6.3711-10.615-6.3711-18.328 0-3.0331 0.34773-6.1972 1.041-9.4902 2.5998-12.392 7.8425-21.881 15.729-28.467 7.5394-6.3262 16.941-9.4902 28.207-9.4902 9.2726 0 16.25 2.3399 20.93 7.0195 4.1597 4.2463 6.0654 9.8368 5.7188 16.77h13.779c0.25998-1.8199 0.38867-3.5969 0.38867-5.3301 0-10.659-4.3763-18.674-13.129-24.047-7.0194-4.2463-15.728-6.3711-26.127-6.3711z"/>
   <path transform="translate(-94.13 235.57)" d="m693.1 347.15c-7.5394 0-13.866 1.9077-18.979 5.7207-5.0263 3.813-8.1884 8.8828-9.4883 15.209-0.34664 1.3866-0.51953 2.7294-0.51953 4.0293 0 5.1129 2.2092 10.052 6.6289 14.818-8.7526 2.7731-15.772 6.7172-21.059 11.83-6.4128 6.0662-9.6191 13.172-9.6191 21.318 0 6.3262 2.2534 11.394 6.7598 15.207 5.3729 4.6796 13.563 7.0195 24.568 7.0195 14.992 0 26.907-4.2898 35.746-12.869l8.9707 10.529h18.068l-17.549-20.148c6.2395-6.6728 10.399-14.211 12.479-22.617h-12.219c-1.6465 5.6329-4.1171 10.441-7.4102 14.428l-19.627-22.748c6.3262-2.3398 11.525-5.5019 15.598-9.4883 4.853-4.853 7.2793-10.226 7.2793-16.119 0-4.7663-1.7328-8.6219-5.1992-11.568-3.4664-3.0331-8.2768-4.5508-14.43-4.5508zm-2.209 10.92c2.7731 0 4.9824 0.77997 6.6289 2.3398 1.7332 1.5599 2.5996 3.4656 2.5996 5.7188 0 6.4128-5.502 11.7-16.508 15.859-4.593-5.1996-6.8887-9.403-6.8887-12.609 0-3.4664 1.5157-6.2827 4.5488-8.4492 2.6864-1.9065 5.8928-2.8594 9.6191-2.8594zm-14.299 36.137 23.658 27.688c-6.1528 6.3262-14.775 9.4902-25.867 9.4902-13.519 0-20.279-4.5934-20.279-13.779 0-9.7926 7.4961-17.592 22.488-23.398z"/>
   <path transform="translate(-94.13 235.57)" d="m791.89 347.15 10.789 92.812h15.209l41.988-76.953h0.25976l9.3594 76.953h15.078l51.215-92.812h-14.299l-39.775 75.395h-0.25977l-9.3594-75.395h-16.379l-40.947 75.395h-0.25976l-7.6699-75.395z"/>
   <path transform="translate(-94.13 235.57)" d="m944.18 347.15-19.76 92.812h75.914l2.5996-11.959h-62.135l6.3691-30.027h59.016l2.4707-11.959h-59.016l5.7188-26.908h60.836l2.5996-11.959z"/>
   <path transform="translate(-94.13 235.57)" d="m1066.2 347.15-61.744 92.812h14.818l17.549-27.037h45.496l6.1093 27.037h15.728l-22.228-92.812zm4.5508 12.74 9.0996 41.076h-35.228z"/>
   <path transform="translate(-94.13 235.57)" d="m1115.7 347.15-2.5996 11.959h35.098l-17.158 80.854h13.777l17.16-80.854h35.096l2.5996-11.959z"/>
   <path transform="translate(-94.13 235.57)" d="m1209.1 347.15-19.76 92.812h13.779l9.2285-43.676h63.176l-9.2285 43.676h13.777l19.76-92.812h-13.779l-7.9297 37.178h-63.174l7.9277-37.178z"/>
   <path transform="translate(-94.13 235.57)" d="m1319 347.15-19.758 92.812h75.914l2.5996-11.959h-62.135l6.3691-30.027h59.016l2.4707-11.959h-59.016l5.7188-26.908h60.836l2.5996-11.959z"/>
   <path transform="translate(-94.13 235.57)" d="m1410.1 347.15-19.758 92.812h13.779l8.3183-39.387h36.008c4.853 0 8.405 1.0413 10.658 3.1211 2.2532 1.9932 3.3809 5.503 3.3809 10.529 0 2.3398-0.2171 5.0255-0.6504 8.0586-1.2132 7.7127-1.8203 12.306-1.8203 13.779 0 1.6465 0.3036 2.9452 0.9102 3.8984h14.559c-1.04-1.5599-1.5586-3.5962-1.5586-6.1094 0-2.8598 0.8222-9.2282 2.4687-19.107 0.3467-1.9932 0.5195-3.8566 0.5195-5.5898 0-8.4927-3.2485-13.217-9.748-14.17v-0.25977c11.092-3.2931 17.895-10.918 20.408-22.877 0.52-2.0798 0.7793-4.1604 0.7793-6.2402 0-5.3729-1.5599-9.6627-4.6797-12.869-3.5531-3.7264-8.9264-5.5898-16.119-5.5898zm11.18 11.959h38.867c9.0992 0 13.648 3.6405 13.648 10.92 0 5.6329-1.9058 10.14-5.7188 13.52-3.813 3.3797-8.6676 5.0684-14.56 5.0684h-38.477z"/>
  </g>
 </g>
</svg>
