<svg width="800" height="221.21" version="1.1" viewBox="0 0 800 221.21" xmlns="http://www.w3.org/2000/svg">
 <g transform="translate(73.153 -456.67)">
  <g transform="matrix(39.609 0 0 39.609 -3677.7 -2807.2)">
   <g transform="translate(.13229 -.13229)">
    <g transform="matrix(.35278 0 0 -.35278 106.89 83.226)">
     <path d="m0 0c3.789 1.862 8.243 1.81 9.965-0.737 1.821-2.694-0.638-5.286-3.793-8.123l-0.09 0.037c2.52 2.213 4.27 5.239 3.205 7.113-1.41 2.479-4.831 2.646-8.547 1.575-1.017-0.293-2.641-1.018-3.108-1.344-0.122-0.085 0.892 0.754 2.368 1.479" fill="#bb1a2d" fill-rule="evenodd"/>
    </g>
    <g transform="matrix(.35278 0 0 -.35278 103.62 86.451)">
     <path d="m0 0c0.517 3.774 4.891 7.344 8.699 9.131 3.943 1.849 9.428 1.763 10.804-1.203 1.011-2.177-0.477-5.363-3.264-7.81l0.097-0.041c3.492 3.138 6.056 5.903 4.081 8.929-1.868 2.86-8.452 2.895-13.877-0.576-1.295-0.828-6.317-3.358-6.54-8.43" fill="#1d62af" fill-rule="evenodd"/>
    </g>
    <g transform="matrix(.35278 0 0 -.35278 104.02 86.774)">
     <path d="m0 0h3.453l1.961 9.145h-2.78c-0.72-1.265-1.639-1.622-3.266-1.647h-0.554l-0.491-2.293h2.793z" fill="#fbbe11" fill-rule="evenodd"/>
    </g>
    <g transform="matrix(.35278 0 0 -.35278 107.39 84.989)">
     <path d="m0 0c-2.289-0.474-4.744-1.542-5.564-5.06h11.569l0.491 2.293h-7.655c0.297 0.342 0.763 0.553 1.586 0.699l3.439 0.618c1.371 0.251 3.315 0.949 3.687 2.688 0.549 2.557-2.158 3.084-5.162 3.084-2.333 0-5.442-0.422-6.394-3.571h3.953c0.361 1.186 1.396 1.278 2.397 1.278 0.855 0 1.457-0.211 1.343-0.738-0.082-0.382-0.382-0.619-0.864-0.711z" fill="#fbbe11" fill-rule="evenodd"/>
    </g>
    <g transform="matrix(.35278 0 0 -.35278 99.996 85.929)">
     <path d="m0 0h3.204s-0.158-0.669 1.101-0.669 1.116 0.567 1.122 0.691c0.031 0.653-2.424 0.432-3.508 0.806-1.085 0.374-1.368 1.039-1.351 1.608 0.017 0.568 0.248 2.597 4.584 2.644 4.703 0.052 3.804-2.293 3.804-2.293l-3.111 0.015s0.225 0.709-1.054 0.709c-1.331 0-1.243-0.666-0.965-0.855 0.617-0.416 4.902 0.139 4.902-1.98 0-1.262-0.728-3.072-4.675-3.072-3.256 0-3.839 0.695-4.055 1.418-0.157 0.528 2e-3 0.978 2e-3 0.978" fill="#fbbe10" fill-rule="evenodd"/>
    </g>
    <g transform="matrix(.35278 0 0 -.35278 91.442 84.226)">
     <path d="m0 0-1.547-6.953 2.539-2e-3 0.847 3.956 1.995-3.954h2.909l1.583 6.953h-2.566l-0.899-3.832-1.804 3.832z" fill="#fbbe10" fill-rule="evenodd"/>
    </g>
    <g transform="matrix(.35278 0 0 -.35278 94.505 84.226)">
     <path d="m0 0-1.597-6.953h7.18l0.384 1.69h-4.491l0.214 0.945h4.176l0.384 1.724h-4.176l0.189 0.889 5.037-4e-3 0.89 1.709z" fill="#fbbe10" fill-rule="evenodd"/>
    </g>
    <g transform="matrix(.35278 0 0 -.35278 96.783 84.226)">
     <path d="m0 0 0.345-6.953h2.671l1.758 3.817 0.057-3.817h2.64l3.55 6.953h-2.637l-1.766-4.22-0.045 4.22h-2.161l-1.934-4.22 0.081 4.22z" fill="#fbbe10" fill-rule="evenodd"/>
    </g>
   </g>
  </g>
  <text x="796.18298" y="924.29456" fill="#000000" font-family="sans-serif" font-size="53.333px" letter-spacing="0px" word-spacing="0px" style="line-height:1.25" xml:space="preserve"><tspan x="796.18298" y="972.95215"/></text>
  <g transform="matrix(.50013 0 0 .50013 -36.568 338.85)" fill="#1b184b">
   <path transform="translate(-94.13 235.57)" d="m20.977 347.15 10.789 92.812h15.209l41.986-76.953h0.25976l9.3594 76.953h15.08l51.215-92.812h-14.299l-39.775 75.395h-0.26172l-9.3574-75.395h-16.379l-40.947 75.395h-0.25977l-7.6699-75.395z"/>
   <path transform="translate(-94.13 235.57)" d="m214.21 347.15-19.758 92.812h75.914l2.5996-11.959h-62.135l6.3691-30.027h59.016l2.4688-11.959h-59.016l5.7207-26.908h60.834l2.5996-11.959z"/>
   <path transform="translate(-94.13 235.57)" d="m378.38 344.81c-11.786 0-21.493 2.557-29.119 7.6699-7.5394 5.1129-12.261 11.96-14.168 20.539-0.34664 1.9065-0.51954 3.6816-0.51954 5.3281 1e-5 9.9659 7.669 16.292 23.008 18.979l20.277 3.5098c9.7926 1.7332 14.689 5.3737 14.689 10.92 0 0.8666-0.13064 1.8195-0.39062 2.8594-1.0399 4.9396-4.1598 8.7972-9.3594 11.57-5.1129 2.7731-11.439 4.1582-18.979 4.1582-17.332 0-25.998-5.502-25.998-16.508 0-1.3866 0.17485-2.86 0.52149-4.4199h-13.779c-0.60661 2.8598-0.91016 5.5032-0.91016 7.9297 0 8.926 3.7692 15.469 11.309 19.629 6.2395 3.553 14.646 5.3281 25.219 5.3281 11.092 0 20.538-2.1228 28.338-6.3691 9.7059-5.1996 15.729-13.214 18.068-24.047 0.34664-1.6465 0.51953-3.2507 0.51953-4.8106 0-9.8792-7.7997-16.205-23.398-18.979l-21.967-3.9004c-8.5793-1.5599-12.869-4.8526-12.869-9.8789 0-0.69328 0.0864-1.4732 0.25977-2.3398 1.1266-5.0263 4.2887-8.9261 9.4883-11.699 4.5063-2.3398 9.6203-3.5098 15.34-3.5098 16.552 0 24.525 5.7211 23.918 17.16h13.779c0.25998-1.8199 0.38867-3.5546 0.38867-5.2012 0-8.406-3.4656-14.688-10.398-18.848-5.8929-3.3797-13.648-5.0703-23.268-5.0703z"/>
   <path transform="translate(-94.13 235.57)" d="m462.85 347.15-2.6016 11.959h35.098l-17.158 80.854h13.779l17.158-80.854h35.098l2.5996-11.959z"/>
   <path transform="translate(-94.13 235.57)" d="m641.23 344.81c-15.339 0-28.423 4.724-39.256 14.17-10.139 8.7526-16.727 20.191-19.76 34.316-0.95326 4.7663-1.4297 9.2732-1.4297 13.52 0 12.046 4.1169 21.188 12.35 27.428 7.0194 5.3729 16.162 8.0586 27.428 8.0586 12.912 0 24.481-3.725 34.707-11.178 9.7926-7.1061 16.38-15.989 19.76-26.648h-13.779c-7.3661 17.245-20.018 25.867-37.957 25.867-9.8792 0-17.289-2.5992-22.229-7.7988-4.2463-4.5063-6.3691-10.615-6.3691-18.328 0-3.0331 0.34579-6.1972 1.0391-9.4902 2.5998-12.392 7.8425-21.881 15.729-28.467 7.5394-6.3262 16.943-9.4902 28.209-9.4902 9.2726 0 16.248 2.3399 20.928 7.0195 4.1597 4.2463 6.0654 9.8368 5.7188 16.77h13.779c0.25998-1.8199 0.39063-3.5969 0.39063-5.3301 0-10.659-4.3763-18.674-13.129-24.047-7.0194-4.2463-15.73-6.3711-26.129-6.3711z"/>
   <path transform="translate(-94.13 235.57)" d="m743.17 347.15-19.758 92.812h13.777l9.2305-43.676h63.174l-9.2285 43.676h13.779l19.758-92.812h-13.779l-7.9277 37.178h-63.176l7.9297-37.178z"/>
   <path transform="translate(-94.13 235.57)" d="m894.01 347.15-19.758 92.812h75.914l2.5996-11.959h-62.135l6.3691-30.027h59.016l2.4707-11.959h-59.016l5.7188-26.908h60.836l2.5996-11.959z"/>
   <path transform="translate(-94.13 235.57)" d="m1058.2 344.81c-11.786 0-21.491 2.557-29.117 7.6699-7.5394 5.1129-12.263 11.96-14.17 20.539-0.3467 1.9065-0.5196 3.6816-0.5196 5.3281 0 9.9659 7.6691 16.292 23.008 18.979l20.279 3.5098c9.7925 1.7332 14.688 5.3737 14.688 10.92 0 0.8666-0.1287 1.8195-0.3887 2.8594-1.0399 4.9396-4.1598 8.7972-9.3594 11.57-5.1129 2.7731-11.439 4.1582-18.978 4.1582-17.332 0-25.998-5.502-25.998-16.508 0-1.3866 0.1729-2.86 0.5196-4.4199h-13.779c-0.6066 2.8598-0.9102 5.5032-0.9102 7.9297 0 8.926 3.7712 15.469 11.311 19.629 6.2395 3.553 14.644 5.3281 25.217 5.3281 11.092 0 20.538-2.1228 28.338-6.3691 9.7059-5.1996 15.728-13.214 18.068-24.047 0.3467-1.6465 0.5215-3.2507 0.5215-4.8106 0-9.8792-7.7997-16.205-23.398-18.979l-21.969-3.9004c-8.5793-1.5599-12.869-4.8526-12.869-9.8789 0-0.69328 0.086-1.4732 0.2597-2.3398 1.1266-5.0263 4.2907-8.9261 9.4903-11.699 4.5063-2.3398 9.6183-3.5098 15.338-3.5098 16.552 0 24.525 5.7211 23.918 17.16h13.779c0.26-1.8199 0.3907-3.5546 0.3907-5.2012 0-8.406-3.4676-14.688-10.4-18.848-5.8929-3.3797-13.648-5.0703-23.268-5.0703z"/>
   <path transform="translate(-94.13 235.57)" d="m1142.6 347.15-2.5996 11.959h35.098l-17.16 80.854h13.779l17.158-80.854h35.098l2.5996-11.959z"/>
   <path transform="translate(-94.13 235.57)" d="m1277 347.15-19.76 92.812h75.914l2.5996-11.959h-62.135l6.3691-30.027h59.016l2.4707-11.959h-59.016l5.7188-26.908h60.836l2.5996-11.959z"/>
   <path transform="translate(-94.13 235.57)" d="m1409 347.15-19.758 92.812h13.779l8.3183-39.387h36.008c4.853 0 8.4051 1.0413 10.658 3.1211 2.2532 1.9932 3.3809 5.503 3.3809 10.529 0 2.3398-0.2171 5.0255-0.6504 8.0586-1.2132 7.7127-1.8203 12.306-1.8203 13.779 0 1.6465 0.3035 2.9452 0.9102 3.8984h14.558c-1.0398-1.5599-1.5585-3.5962-1.5585-6.1094 0-2.8598 0.8222-9.2282 2.4687-19.107 0.3466-1.9932 0.5195-3.8566 0.5195-5.5898 0-8.4927-3.2485-13.217-9.748-14.17v-0.25977c11.092-3.2931 17.895-10.918 20.408-22.877 0.5199-2.0798 0.7793-4.1604 0.7793-6.2402 0-5.3729-1.56-9.6627-4.6797-12.869-3.5531-3.7264-8.9264-5.5898-16.119-5.5898zm11.18 11.959h38.867c9.0993 0 13.648 3.6405 13.648 10.92 0 5.6329-1.9057 10.14-5.7188 13.52-3.813 3.3797-8.6676 5.0684-14.56 5.0684h-38.477z"/>
  </g>
 </g>
</svg>
