<svg width="2718.2pt" height="382.5pt" version="1.1" viewBox="0 0 2718.2 382.5" xmlns="http://www.w3.org/2000/svg">
 <g transform="matrix(1.7743 0 0 1.7743 516.02 -160.33)" fill="#1b184b">
  <path d="m178.64 90.425h149.39l-216.18 215.5h-51.84v-215.5h90.68l-56.68 178.66z"/>
  <path d="m413.08 90.425 0.27 161.12 47.38-161.12h86.27c23.133 0 58.211-1.6883 71.7 11.865 9.59 9.14 12.18 23.13 11.76 35.86 8.1-13.06 18.68-24.82 31.91-32.82 18.66-11.52 40.93-14.655 62.58-14.905h164.5l-62.81 215.5h-65.46l49.18-169.41h-90.36c-8.74-0.02-17.97-0.53-26.02 3.47-9.9766 5.3753-15.795 18.472-4.06 24.12 6.38 3.07 13.48 4.1 20.34 5.57 16.27 3.32 33.03 6.24 47.78 14.27 9.29 5 17.13 13.62 18.93 24.29 2.67 14.9-1.99 30.04-8.2 43.48-8.32 16.35-20.87 31.21-37.44 39.59-28.865 13.517-52.35 14.62-82.33 14.62h-128.73c-7.83-38-16.791-75.94-24.651-113.94-11.39 37.93-21.989 75.94-33.129 113.94h-106.25l-0.24-29.92-92.25-0.03 49.23-48.445h43.95l0.03-61.225-142.22 139.62h-83.98l216.8-215.5zm84.48 94.74h29.43c7.93-0.15 16.19-1.695 22.75-6.425 8.15-5.66 13.078-15.43 13.81-24.98 0.6714-17.164-9.6941-18.955-24.57-18.955h-26.85zm89.77 25.155c-6.12 3.6-12.89 5.84-19.44 8.51l11.023 39.935h95.087c9.22 0.13 18.97-0.065 27.3-4.535 9.3855-5.1915 15.266-19.95 2.29-22.448l-24.02-5.302c-16.52-3.8-34.25-6.3-48.03-17.01-8.56-6.3-13.98-16.16-15.41-26.63-7.42 11.12-17.2 20.76-28.8 27.48z"/>
  <path d="m899.41 90.425h181.3l18.69 70.755 60.97-70.755h80.76l-128.94 136.95-23.11 78.56h-64.29l22.29-78.56-24.68-84.295h-25.17l-47.36 162.86h-65.08l47.34-162.86h-48.05z"/>
 </g>
 <g transform="scale(.59631)">
  <g transform="translate(-46.5 -58.55)" fill-rule="evenodd">
   <path class="cls-1" d="m510.6 223.76c179.4-88.15 390.29-85.65 471.83 34.94 86.22 127.51-30.19 250.29-179.6 384.59l-4.25-1.72c119.32-104.78 202.2-248.13 151.72-336.84-66.75-117.31-228.71-125.22-404.68-74.57-48.15 13.84-125.05 48.24-147.13 63.67-5.76 4.03 42.22-35.72 112.11-70.07z" fill="#b91f2f"/>
   <path class="cls-2" d="m72 656.62c24.45-178.73 231.54-347.7 411.89-432.34 186.65-87.6 446.37-83.48 511.53 57 47.82 103.07-22.58 253.85-154.57 369.72l4.65 2c165.3-148.59 286.67-279.55 193.17-422.77-88.42-135.44-400.15-137.12-657 27.27-61.32 39.2-299.16 158.98-309.67 399.12z" fill="#0079c1"/>
   <path class="cls-3" d="m125.89 700h163.47l92.87-433h-131.64c-34.05 59.9-77.59 76.76-154.59 78h-26.22l-23.28 108.56h132.25z" fill="#fdc21c"/>
   <path class="cls-3" d="m577.2 460.42c-108.38 22.46-224.65 73-263.5 239.58h547.77l23.29-108.56h-362.49c14.08-16.22 36.2-26.21 75.1-33.07l162.88-29.32c64.94-11.85 156.88-44.92 174.54-127.27 26-121-102.2-146-244.45-146-110.43 0-257.59 20-302.67 169.08h187.18c17-56.16 66-60.52 113.42-60.52 40.56 0 69 10 63.63 34.94-3.9 18.09-18.14 29.32-40.9 33.72z" fill="#fdc21c"/>
  </g>
  <g transform="translate(-46.5 -58.55)">
   <g data-name="NEWS yellow">
    <g fill="#fec21a" fill-rule="evenodd" data-name="Layer 11">
     <path class="cls-4" d="m761.91 180.93h77.16s-3.82 16.07 26.49 16.07 26.88-13.66 27-16.63c0.75-15.71-58.36-10.41-84.47-19.42s-32.94-25-32.53-38.7 6-62.55 110.39-63.68c113.23-1.22 91.6 55.21 91.6 55.21l-74.93-0.33s5.42-17.07-25.37-17.07c-32 0-29.92 16-23.23 20.55 14.86 10 118-3.31 118 47.71 0 30.35-17.52 74-112.56 74-78.41 0-92.44-16.73-97.64-34.16a41.67 41.67 0 0 1 0.09-23.55z"/>
     <path d="m178.02 64.72-37.26 167.44 61.14 0.03 20.39-95.26 48.04 95.23h70.06l38.12-167.44h-61.79l-21.63 92.28-43.46-92.28z"/>
     <path d="m387.12 64.72-38.44 167.44h172.89l9.24-40.71h-108.17l5.18-22.76h100.56l9.25-41.49h-100.56l4.54-21.42 121.3 0.1 21.43-41.16z"/>
     <path d="m542.6 64.72 8.3 167.44h64.32l42.37-91.91 1.34 91.91h63.58l85.49-167.44h-63.52l-42.52 101.63-1.08-101.63h-52.03l-46.58 101.63 1.95-101.63z"/>
    </g>
   </g>
  </g>
 </g>
</svg>
