<svg width="800" height="218.36" version="1.1" viewBox="0 0 800 218.36" xmlns="http://www.w3.org/2000/svg">
 <g transform="translate(93.993 -459.51)">
  <g transform="matrix(39.099 0 0 39.099 -3641.9 -2762.4)">
   <g transform="translate(.13229 -.13229)">
    <g transform="matrix(.35278 0 0 -.35278 106.89 83.226)">
     <path d="m0 0c3.789 1.862 8.243 1.81 9.965-0.737 1.821-2.694-0.638-5.286-3.793-8.123l-0.09 0.037c2.52 2.213 4.27 5.239 3.205 7.113-1.41 2.479-4.831 2.646-8.547 1.575-1.017-0.293-2.641-1.018-3.108-1.344-0.122-0.085 0.892 0.754 2.368 1.479" fill="#bb1a2d" fill-rule="evenodd"/>
    </g>
    <g transform="matrix(.35278 0 0 -.35278 103.62 86.451)">
     <path d="m0 0c0.517 3.774 4.891 7.344 8.699 9.131 3.943 1.849 9.428 1.763 10.804-1.203 1.011-2.177-0.477-5.363-3.264-7.81l0.097-0.041c3.492 3.138 6.056 5.903 4.081 8.929-1.868 2.86-8.452 2.895-13.877-0.576-1.295-0.828-6.317-3.358-6.54-8.43" fill="#1d62af" fill-rule="evenodd"/>
    </g>
    <g transform="matrix(.35278 0 0 -.35278 104.02 86.774)">
     <path d="m0 0h3.453l1.961 9.145h-2.78c-0.72-1.265-1.639-1.622-3.266-1.647h-0.554l-0.491-2.293h2.793z" fill="#fbbe11" fill-rule="evenodd"/>
    </g>
    <g transform="matrix(.35278 0 0 -.35278 107.39 84.989)">
     <path d="m0 0c-2.289-0.474-4.744-1.542-5.564-5.06h11.569l0.491 2.293h-7.655c0.297 0.342 0.763 0.553 1.586 0.699l3.439 0.618c1.371 0.251 3.315 0.949 3.687 2.688 0.549 2.557-2.158 3.084-5.162 3.084-2.333 0-5.442-0.422-6.394-3.571h3.953c0.361 1.186 1.396 1.278 2.397 1.278 0.855 0 1.457-0.211 1.343-0.738-0.082-0.382-0.382-0.619-0.864-0.711z" fill="#fbbe11" fill-rule="evenodd"/>
    </g>
    <g transform="matrix(.35278 0 0 -.35278 99.996 85.929)">
     <path d="m0 0h3.204s-0.158-0.669 1.101-0.669 1.116 0.567 1.122 0.691c0.031 0.653-2.424 0.432-3.508 0.806-1.085 0.374-1.368 1.039-1.351 1.608 0.017 0.568 0.248 2.597 4.584 2.644 4.703 0.052 3.804-2.293 3.804-2.293l-3.111 0.015s0.225 0.709-1.054 0.709c-1.331 0-1.243-0.666-0.965-0.855 0.617-0.416 4.902 0.139 4.902-1.98 0-1.262-0.728-3.072-4.675-3.072-3.256 0-3.839 0.695-4.055 1.418-0.157 0.528 2e-3 0.978 2e-3 0.978" fill="#fbbe10" fill-rule="evenodd"/>
    </g>
    <g transform="matrix(.35278 0 0 -.35278 91.442 84.226)">
     <path d="m0 0-1.547-6.953 2.539-2e-3 0.847 3.956 1.995-3.954h2.909l1.583 6.953h-2.566l-0.899-3.832-1.804 3.832z" fill="#fbbe10" fill-rule="evenodd"/>
    </g>
    <g transform="matrix(.35278 0 0 -.35278 94.505 84.226)">
     <path d="m0 0-1.597-6.953h7.18l0.384 1.69h-4.491l0.214 0.945h4.176l0.384 1.724h-4.176l0.189 0.889 5.037-4e-3 0.89 1.709z" fill="#fbbe10" fill-rule="evenodd"/>
    </g>
    <g transform="matrix(.35278 0 0 -.35278 96.783 84.226)">
     <path d="m0 0 0.345-6.953h2.671l1.758 3.817 0.057-3.817h2.64l3.55 6.953h-2.637l-1.766-4.22-0.045 4.22h-2.161l-1.934-4.22 0.081 4.22z" fill="#fbbe10" fill-rule="evenodd"/>
    </g>
   </g>
  </g>
  <text x="796.18298" y="924.29456" fill="#000000" font-family="sans-serif" font-size="53.333px" letter-spacing="0px" word-spacing="0px" style="line-height:1.25" xml:space="preserve"><tspan x="796.18298" y="972.95215"/></text>
  <g fill="#fff">
   <path d="m-84.238 630.9-9.7553 45.821h27.083c4.6634 0 8.6202-1.3904 11.872-4.1713 2.8665-2.4386 4.6846-5.4547 5.4547-9.0485 0.2567-1.1552 0.3857-2.2459 0.3857-3.2726 0-4.2784-2.225-6.952-6.6745-8.0216l0.06461-0.12921c4.7917-1.6258 7.7006-4.8552 8.7274-9.6897 0.21392-1.0696 0.32109-2.0749 0.32109-3.0162 0-5.6474-4.0005-8.4719-12.001-8.4719zm5.5193 5.9041h18.162c4.4495 0 6.6735 1.5621 6.6735 4.6853 0 0.59896-0.08535 1.2411-0.25649 1.9256-0.38505 1.9252-1.3259 3.4437-2.8233 4.5561-1.583 1.2407-3.5728 1.861-5.9687 1.861h-18.546zm-3.9794 18.932h18.996c5.0484 0 7.5732 1.8608 7.5732 5.583 0 3.0804-1.1343 5.4762-3.4019 7.1875-2.0964 1.5402-4.7482 2.3103-7.957 2.3103h-18.419z"/>
   <path d="m15.146 630.9-9.7543 45.821h6.8018l4.1077-19.445h17.777c2.3959 0 4.1495 0.51406 5.2619 1.5409 1.1124 0.98402 1.6681 2.7168 1.6681 5.1982 0 1.1552-0.10621 2.481-0.32013 3.9785-0.59896 3.8077-0.89868 6.0754-0.89868 6.8028 0 0.81289 0.14986 1.454 0.44934 1.9246h7.1875c-0.5134-0.77011-0.77043-1.7754-0.77043-3.0162 0-1.4119 0.40689-4.5559 1.2198-9.4332 0.17113-0.98401 0.25649-1.904 0.25649-2.7597 0-4.1928-1.6048-6.525-4.8135-6.9956v-0.12825c5.4763-1.6258 8.8347-5.3901 10.075-11.294 0.2567-1.0268 0.3857-2.054 0.3857-3.0808 0-2.6526-0.77013-4.7704-2.3103-6.3534-1.7541-1.8397-4.4069-2.7597-7.9579-2.7597zm5.5193 5.9041h19.188c4.4923 0 6.7391 1.7973 6.7391 5.3911 0 2.7809-0.9418 5.006-2.8243 6.6745-1.8825 1.6686-4.2782 2.5022-7.1875 2.5022h-18.996z"/>
   <path d="m136.12 629.74c-8.7706 0-16.172 2.8453-22.205 8.5355-6.0325 5.6902-9.0485 12.814-9.0485 21.371 0 5.3052 1.5829 9.5408 4.7489 12.707 3.6366 3.6794 9.0493 5.5184 16.237 5.5184 8.7278 0 16.108-2.8443 22.14-8.5345 6.0752-5.6902 9.1131-12.814 9.1131-21.371 0-5.3051-1.5829-9.5408-4.7489-12.707-3.6366-3.6794-9.0493-5.5193-16.237-5.5193zm-1.2834 5.9041c4.6634 0 8.3433 1.1125 11.039 3.3373 2.8665 2.3531 4.2996 5.6906 4.2996 10.012 0 1.4974-0.17167 3.1012-0.51394 4.8126-1.2407 5.8185-4.0215 10.354-8.3426 13.606-3.9789 3.0376-8.7058 4.5561-14.182 4.5561-4.6634 0-8.3433-1.1116-11.039-3.3363-2.9093-2.3531-4.3632-5.6906-4.3632-10.012 0-1.4974 0.19253-3.1022 0.57758-4.8135 1.2407-5.8185 3.9997-10.353 8.278-13.605 4.0216-3.0376 8.7704-4.557 14.247-4.557z"/>
   <path d="m241.14 629.74c-8.7706 0-16.172 2.8453-22.205 8.5355-6.0325 5.6902-9.0485 12.814-9.0485 21.371 0 5.3052 1.5829 9.5408 4.7489 12.707 3.6366 3.6794 9.0484 5.5184 16.236 5.5184 8.7278 0 16.108-2.8443 22.14-8.5345 6.0752-5.6902 9.1131-12.814 9.1131-21.371 0-5.3051-1.5829-9.5408-4.7489-12.707-3.6366-3.6794-9.0484-5.5193-16.236-5.5193zm-1.2834 5.9041c4.6634 0 8.3424 1.1125 11.038 3.3373 2.8665 2.3531 4.2996 5.6906 4.2996 10.012 0 1.4974-0.17071 3.1012-0.51298 4.8126-1.2407 5.8185-4.0215 10.354-8.3426 13.606-3.9788 3.0376-8.7068 4.5561-14.183 4.5561-4.6634 0-8.3424-1.1116-11.038-3.3363-2.9093-2.3531-4.3642-5.6906-4.3642-10.012 0-1.4974 0.19253-3.1022 0.57759-4.8135 1.2407-5.8185 3.9997-10.353 8.278-13.605 4.0216-3.0376 8.7714-4.557 14.248-4.557z"/>
   <path d="m323.18 630.9-9.7543 45.821h6.8027l3.209-14.953 9.8826-7.3803 13.99 22.333h9.3696l-17.263-26.824 25.798-18.997h-9.6261l-30.547 23.039 4.9408-23.039z"/>
   <path d="m421.18 630.9-9.7543 45.821h34.655l1.2834-5.9041h-27.852l8.4709-39.917z"/>
   <path d="m498.25 630.9 14.311 26.954-3.9795 18.867h6.8028l4.1077-19.188 25.862-26.633h-8.278l-19.638 20.858-10.525-20.858z"/>
   <path d="m599.51 630.9-9.7553 45.821h6.8028l7.765-36.451h0.12827l21.692 36.451h7.8933l9.7543-45.821h-6.8018l-7.766 36.451h-0.12826l-21.691-36.451z"/>
  </g>
 </g>
</svg>
