<svg width="800" height="506.67" version="1.1" viewBox="0 0 800 506.67" xmlns="http://www.w3.org/2000/svg">
 <g transform="matrix(1.5253 0 0 1.5253 263.12 -18.046)">
  <path d="m179.12 29.946c-8.2309 5.8746-23.891 13.942-44.182 8.9509-35.182-8.6236-45.164-38.946-45.164-38.946s-10.031 30.273-45.164 38.946c-20.291 4.9909-36-3.0764-44.182-8.9509h-6.3327v163.15c0.00853 4.1073 1.0047 12.256 7.6909 20.455 8.2636 10.015 22.255 16.527 41.564 19.309 15.431 2.2255 26.836 7.0855 34.855 14.825 5.9073 5.6782 11.52 15.545 11.52 15.545s5.8255-10.064 11.536-15.562c8.0509-7.7236 19.473-12.584 34.855-14.809 19.309-2.7982 33.382-9.3273 41.564-19.309 6.6764-8.1327 7.6909-16.249 7.7073-20.455v-163.15h-6.3655" fill="#fff" stroke-width="1.6364"/>
  <g transform="matrix(1.0667 0 0 1.0667 519.07 -130.42)">
   <path d="m-317.16 156.48s-17.949 13.991-43.261 7.6705c-29.608-7.379-41.114-29.455-41.114-29.455s-11.475 22.091-40.96 29.455c-25.313 6.3358-43.415-7.6705-43.415-7.6705v146.97c0 4.9858 2.0864 26.233 41.574 31.909 15.648 2.2705 27.307 7.2716 35.744 15.341 3.0068 2.8841 5.308 5.8296 7.0568 8.5449 1.7642-2.7154 4.0347-5.6608 7.0568-8.5449 8.3915-8.0693 20.097-13.07 35.744-15.341 39.58-5.7222 41.574-26.847 41.574-31.909v-146.97" fill="#013369" stroke-width="1.5341"/>
   <path d="m-401.54 343.64s11.475-14.175 41.267-18.716c34.21-5.2619 33.136-21.324 33.136-22.091v-77.012l-148.96 0.0218v77.012c0 0.81153-0.99409 16.875 33.136 22.091 29.761 4.6023 41.267 18.716 41.267 18.716" fill="#fff" stroke-width="1.5341"/>
   <g transform="matrix(1.5341 0 0 -1.5341 -870.97 912.78)" fill="#d50a0a">
    <path d="m283 411v23.9l-2.99 1.68v6.19h13.6v-6.19l-2.85-1.68v-48.7l-7.28 2.18-10.5 31.1v-20.5l3.34-2.57v-6.32l-14.6 3.73v5.37l3.34 1.32v34.3l-3.42 1.71v6.19h11.1l10.3-31.7"/>
    <path d="m308 389 2.92-3.49v-6.19l-14.5 5.41v5.25l3.2 1.32v43.4l-3.18 1.61v6.27h25.2v-12.6h-5.53l-1.68 5.17h-6.4v-14.6h4.81l1.88 2.77h3.86v-12.9h-3.86l-1.82 2.62h-4.87v-24"/>
    <path d="m324 387v6.2l3.59 2.94v38.7l-3.06 1.61v6.27h14.5v-6.27l-2.84-1.61v-36.3l6.23 1.69 1.19 9.52h5.98v-15.9l-25.6-6.84"/>
   </g>
   <g transform="matrix(1.5341 0 0 -1.5341 -870.97 912.78)" fill="#fff">
    <path d="m260 458-4.39 3.3h5.37l1.77 5.08 1.78-5.08h5.36l-4.39-3.3 1.62-5.17-4.37 3.06-4.36-3.06 1.61 5.17"/>
    <path d="m279 458-4.39 3.3h5.37l1.77 5.08 1.77-5.08h5.36l-4.39-3.3 1.62-5.17-4.37 3.06-4.36-3.06 1.61 5.17"/>
    <path d="m260 475-4.39 3.29h5.37l1.77 5.09 1.78-5.09h5.36l-4.39-3.29 1.62-5.17-4.37 3.08-4.36-3.08 1.61 5.17"/>
    <path d="m279 475-4.39 3.29h5.37l1.77 5.09 1.77-5.09h5.36l-4.39-3.29 1.62-5.17-4.37 3.08-4.36-3.08 1.61 5.17"/>
    <path d="m353 453-4.36 3.06-4.36-3.06 1.61 5.17-4.38 3.3h5.37l1.77 5.08 1.77-5.08h5.37l-4.39-3.3 1.62-5.17"/>
    <path d="m334 453-4.36 3.06-4.37-3.06 1.62 5.17-4.4 3.3h5.37l1.78 5.08 1.77-5.08h5.37l-4.39-3.3 1.62-5.17"/>
    <path d="m353 470-4.36 3.08-4.36-3.08 1.61 5.17-4.38 3.29h5.37l1.77 5.09 1.77-5.09h5.37l-4.39-3.29 1.62-5.17"/>
    <path d="m334 470-4.36 3.08-4.37-3.08 1.62 5.17-4.4 3.29h5.37l1.78 5.09 1.77-5.09h5.37l-4.39-3.29 1.62-5.17"/>
    <path d="m318 489s-2.28-1.18-5.45-4.3c0.716-0.417 1.52-0.972 1.97-1.36-0.475-0.411-0.961-0.88-1.43-1.32-2.06 1.71-4.21 2.57-5.87 2.98 0.554 0.382 1.14 0.787 1.72 1.14 0.889-0.212 1.76-0.576 1.76-0.576 3.58 2.73 6.68 3.92 6.68 3.92s-0.357 0.178-1.32 0.167c-14.1-0.192-27.1-10.7-24.6-28.7 0.268-1.91 1.01-5.39 1.95-6.9 0.312 3 1.44 9.62 4.79 16.7-1.17 0.411-2.14 0.582-2.14 0.582 0.349 0.722 0.821 1.63 0.821 1.63 2.47-0.47 4.65-1.51 6.54-3-0.453-0.735-0.762-1.21-0.976-1.6-0.662 0.535-1.33 0.972-2.07 1.39-3.76-6.56-5.5-12.8-6.21-16 0.0456-0.192 0.448-0.297 0.787-0.256 15.4 2.01 22.7 9.87 24.9 18.4 1.44 5.59 0.977 11.4-0.958 16.2-0.145 0.33-0.406 0.894-0.85 0.854m-13.3-17c-2.01 1.68-4.35 2.71-6.65 3.16 0 0 0.698 1.15 1.1 1.73 2.8-0.548 5.09-1.87 6.69-3.22-0.415-0.577-0.798-1.14-1.14-1.67m2.53 3.55c-1.86 1.59-4.13 2.73-6.69 3.26 0.393 0.504 0.851 1.05 1.3 1.53 1.95-0.33 4.46-1.35 6.65-3.17-0.445-0.543-0.868-1.08-1.26-1.62m2.83 3.41c-1.96 1.6-4.15 2.65-6.48 3.14 0.566 0.536 1.15 0.986 1.65 1.41 2.91-0.688 4.87-2 6.2-3.12-0.472-0.477-0.942-0.96-1.37-1.44"/>
   </g>
  </g>
 </g>
 <description>Created with Sketch (http://www.bohemiancoding.com/sketch)</description>
 <g transform="matrix(2.6667 0 0 2.6667 0 2.6667)" fill="#d50a0a" fill-rule="evenodd">
  <path d="m0 189h15.388l8.6124-24h-15.273l-8.7273 24"/>
  <path d="m8.6906 155-2.6906 7.1912h26.321c1.2283 0 2.3396 0.5753 1.6377 2.7614-0.70189 2.1861-1.4623 6.0981-5.0302 6.0981h-4.4453l-2.4566 6.6734h5.1472c0.93585 0 1.9302-0.0575 0.6434 3.6819-0.62144 1.8059-0.8882 3.0885-0.87274 4.0358 0.06938 1.5019 0.94426 2.5016 1.8882 3.0466 0.65044 0.33331 2.1444 0.51159 6.8808 0.51159h6.9604l2.5736-7.3638s-2.4566 0-1.4623-1.7834 2.3396-4.3147-1.2868-5.6379c3.5094-1.4958 4.6208-3.3367 5.3227-5.1777 0.70189-1.8409 2.1642-5.5228 2.7491-7.3638 0.58491-1.8409 2.0472-6.6734-7.9547-6.6734z"/>
 </g>
 <g transform="matrix(2.6667 0 0 2.6667 0 6.5583e-6)" fill="#d50a0a" fill-rule="evenodd">
  <path d="m53.981 170-6.9808 20h32.481l3.5192-10h-11.481l-1.0385 2.3077h-5.8269l1.4423-3.7278h10.615l2.4808-7.1006h-10.615l0.46154-1.4793z"/>
  <path d="m52 167.47h23.598l-0.7519 2.5294h11.568l3.586-10h-35.455z"/>
 </g>
 <g transform="matrix(2.6667 0 0 2.6667 0 6.5583e-6)" fill="#d50a0a" fill-rule="evenodd">
  <path d="m92.026 170h14.974l-6.7958 20h-15.204z"/>
  <path d="m106.16 182.44-2.5074 7.5591h10.904c2.9739 0 8.98-0.82677 11.254-6.9094 2.2742-6.0827 4.8398-12.815 5.423-14.646 0.58311-1.8307 2.9739-8.4449-5.3646-8.4449h-32.13l-2.7406 7.3819s20.642 0.0591 22.158 0.0591c1.5161 0 3.2654 0 2.3908 2.5984-0.87467 2.5984-3.6666 9.626-4.0491 10.63-0.38253 1.0039-0.84902 1.7716-2.3068 1.7716h-3.0322z"/>
 </g>
 <g transform="matrix(2.6667 0 0 2.6667 0 6.5583e-6)" fill="#fff" fill-rule="evenodd">
  <path d="m134 167h11.897l1.899-4.7624h29.452l2.7516-7.2376h-41.543z"/>
  <path d="m126 190h41.631l4.3741-12.579h-11.779l-1.7651 5.0475h-8.4029l23.942-17.469h-21.41l-23.904 17.469z"/>
 </g>
 <g transform="matrix(2.6667 0 0 2.6667 0 6.5583e-6)" fill="#fff">
  <path d="m178.07 170.65h15.201s-2.9394 7.8461-3.365 8.9614c-0.42538 1.1153-1.4697 3.3076 0.92828 3.3076h3.8679c1.3924 0 2.514-0.0769 3.481-2.8461 0.96703-2.7692 2.7461-7.7308 3.3262-9.423 0.58018-1.6924 0.0775-2.4231-2.0111-2.4231h-20.538s3.3263-7.2309 9.0507-7.2309h24.135c3.7904 0 7.0781 1.2309 5.4149 6.7694-1.6632 5.5384-4.6026 12.808-5.6084 15.577-1.0056 2.7692-4.0997 6.6538-10.211 6.6538h-23.671c-3.5196 0-6.2271-2.3462-4.5639-6.9999 1.663-4.6539 4.5639-12.346 4.5639-12.346z" fill="#fff" fill-rule="evenodd"/>
 </g>
 <g transform="matrix(2.6667 0 0 2.6667 0 6.5583e-6)" fill="#fff" fill-rule="evenodd">
  <path d="m215 190h9.8246l3.1754-9.2644-2.2788-10.736h-3.9598z"/>
  <path d="m220 168.12h8.0483l5.04 21.884h18.168l10.744-29h-10.275l-4.8056 13.077-3.1255-13.077h-21.215z"/>
 </g>
 <g transform="matrix(2.6667 0 0 2.6667 0 6.5583e-6)" fill="#fff" fill-rule="evenodd">
  <path d="m262 167.42h23.692l-0.84623 2.5807h11.538l3.6154-10h-35.384z"/>
  <path d="m263.88 170-6.8845 20h32.423l3.5769-10h-11.616l-0.846 2.6443h-6.1925l1.5771-4.2148h10.654l2.577-6.9185h-10.808l0.61523-1.5109z"/>
 </g>
</svg>
