<svg width="1e3" height="320.71" enable-background="new 0 0 1000 320.7062988" version="1.1" viewBox="0 0 1e3 320.71" xml:space="preserve" xmlns="http://www.w3.org/2000/svg">
<path d="m849.78 47.295c42.851-4.7584 87.238 12.664 115.61 45.092 35.248 38.596 44.488 97.986 23.465 145.7-14.351 33.76-42.927 61.228-77.346 73.967-40.963 15.509-89.529 10.02-125.43-15.308-29.91-20.393-51.109-53.146-57.252-88.847-4.2045-28.979-1.3596-59.669 12.437-85.904 20.343-41.167 62.665-70.75 108.51-74.702" fill="#231f20"/><g transform="translate(2.3079e-6)">
				<path d="m877.81 78.615c23.971 4.8591 45.948 22.911 51.487 47.307 4.7081 14.98 0.85595 31.068-5.262 45.044-10.927 23.49-31.297 40.258-49.271 58.181 20.544-0.3273 41.066-0.0252 61.583-0.29962-0.35254 12.888-0.37513 25.806 0.0529 38.694-49.853 0-99.703-0.25174-149.55 0.15359 27.669-31.849 55.339-63.672 82.681-95.801 8.7112-11.254 17.349-26.587 11.657-41.038-5.4105-14.099-26.662-17.297-36.479-6.1935-5.3904 6.6467-6.4478 15.61-6.5712 23.893-15.889 0-31.798 0.0252-47.685-0.0252 0.82581-21.929 8.4544-45.595 26.481-58.423 18.027-12.828 40.409-13.608 60.878-11.493z" fill="#fff"/>
			</g><g transform="translate(2.3079e-6)" fill="#f57c14">
			<path d="m236.53 1.8763c18.228-6.1935 40.031 3.5248 48.44 20.645 6.3446 11.632 6.3949 26.31 0.17624 38.017-6.2187 11.959-18.127 19.286-25.983 29.961-3.5751 4.3556-3.4996 11.229 0.0252 15.585 6.8733 9.0385 16.919 15.459 22.332 25.655 4.2549 7.3013 4.1038 16.013 4.1794 24.195-0.22657 42.801 0.1007 85.624-0.17624 128.45-24.95-0.47836-49.926-0.42801-74.901-0.0277 0.0252-45.291-0.20141-90.584 0.0755-135.85-0.47836-14.93 10.272-26.285 20.519-35.65 5.5389-5.1864 11.984-13.369 6.8229-21.048-8.8371-12.815-23.994-21.149-28.979-36.607-8.4846-21.224 5.4886-47.635 27.468-53.325z"/>
			<path d="m611.71 110.89c9.1895-15.182 30.139-20.846 46.051-13.52 13.945 5.9418 23.185 21.123 22.181 36.23-0.37512 9.2147-5.2897 17.322-9.615 25.152-8.2101 14.175-15.537 28.853-23.845 42.977 13.291 21.224 27.848 41.643 41.013 62.942 6.0929 8.5098-2.772 20.517-12.641 19.084-19.585-0.4784-39.427 1.0826-58.861-0.75534-13.724-18.81-25.431-39.049-39.2-57.857-0.35504 19.714-0.12842 39.402-0.15356 59.115-24.699-0.20145-49.395-0.40287-74.07 0.12588-0.17627-50.329-0.15359-100.63-0.0252-150.96-1.2337-19.865 16.315-38.448 36.255-37.942 19.562-1.2588 37.612 15.962 37.838 35.449 0.20141 13.797-0.29963 27.644 0.20141 41.441 12.266-20.116 22.891-41.215 34.873-61.482z"/>
			<path d="m21.943 132.82c18.077-23.012 46.829-37.614 76.21-37.363 30.791-0.78049 61.281 14.628 79.509 39.301 11.858 16.34 19.562 36.255 19.109 56.623 0.20142 30.97-0.10072 61.935 0.15105 92.903-24.547-0.27694-49.12-0.40283-73.668 0.073 0.0252-30.237 0.40283-60.475-0.10071-90.687-1.1581-14.275-6.1935-33.133-22.256-36.632-15.257-0.80566-23.213 16.239-24.875 29.155-0.9819 32.629-0.15106 65.309-0.42801 97.961-25.177-0.29705-50.354 0.35755-75.531-0.37259 0.20142-33.662-0.37765-67.348 0.20142-100.98 4.6074-17.624 9.7686-35.726 21.677-49.976z"/>
			<path d="m340.78 111.4c30.464-20.444 72.509-21.249 103.78-2.0897 26.562 15.635 44.689 44.437 47.458 75.103-24.623-0.25176-49.221-0.27695-73.844 0.0252-2.8953-11.783-5.6648-25.177-16.214-32.654-7.5279-5.5138-17.674-0.52872-21.904 6.7474-12.865 20.57-12.966 48.292-1.0323 69.289 3.9276 7.2761 13.47 14.25 21.577 8.963 11.657-6.8229 14.603-21.098 17.573-33.208 24.598 0.32982 49.221 0.25429 73.844 0.0252-3.55 49.271-49.598 91.04-99.121 88.65-49.246 0.9819-94.086-41.718-96.226-90.79-3.273-35.149 14.326-71.152 44.11-90.06z"/>
		</g>
</svg>
