<svg width="967" height="170.7" space="preserve" version="1.1" viewBox="0 0 967 170.7" xmlns="http://www.w3.org/2000/svg">
 <style type="text/css">.st0{fill:#FF6700;}
	.st1{fill:#F57C14;}
	.st2{fill:#EF3642;}
	.st3{fill:#449DE8;}
	.st4{fill:#BEF003;}
	.st5{fill:#C8C8C8;}</style>
 <link href="" rel="stylesheet" type="text/css"/>
 <g transform="translate(0 -.2)">
  <path class="st1" d="m57.1 55c15.8 0 29.3 5.6 40.5 16.7 11.1 11 16.7 24.5 16.7 40.4v52.5h-43.4v-51.6c0-6.1-1.3-11.3-4-15.7-2.7-4.3-6-6.5-9.8-6.5s-7 2.2-9.7 6.5-4 9.5-4 15.7v51.6h-43.4v-52.5c0-15.9 5.6-29.4 16.7-40.4 11.1-11.1 24.5-16.7 40.4-16.7z" fill="#f57c14"/>
  <path class="st1" d="m156 46.4c-4.6 4.5-7 7.9-7.1 10.1v0.2c0 2.3 2 5.4 6.1 9.4l4.8 4.8c4.3 4.3 6.4 9.5 6.4 15.5v78.1h-43.8v-78c0-6.1 2.1-11.3 6.4-15.5l4.9-4.8c4-4 6-7.1 6-9.5v-0.2c-0.2-2.1-2.6-5.5-7.1-10l-5.2-5.3c-4.8-4.7-7.1-10.4-7.1-17 0-6.7 2.4-12.3 7.1-16.9 4.6-4.8 10.3-7.1 16.9-7.1 6.7 0 12.4 2.3 17 7 4.8 4.7 7.1 10.4 7.1 17 0 6.7-2.4 12.4-7.1 17z" fill="#f57c14"/>
  <path class="st1" d="m238.5 130.5c1.9-3.6 3.2-7.9 3.7-12.8h43.2c-1.2 13.7-6.7 25.3-16.4 34.9v0.1c-11.1 11.1-24.4 16.7-40 16.7h-0.5c-15.7 0-29.1-5.6-40.1-16.7v-0.1c-11.1-11-16.7-24.3-16.7-40v-0.6c0-15.7 5.6-29 16.7-40 11.1-11.1 24.5-16.7 40.4-16.7 15.8 0 29.2 5.6 40.4 16.7 9.7 9.7 15.2 21.3 16.4 34.9h-43.2c-0.6-4.9-1.8-9.2-3.7-12.8-2.8-5-6-7.5-9.8-7.5s-7 2.5-9.7 7.5-4 11.1-4 18.2c0 7 1.3 13.1 4 18.1s5.9 7.5 9.7 7.6c3.6-0.1 6.9-2.6 9.6-7.5z" fill="#f57c14"/>
  <path class="st1" d="m376.3 116.9 21.9 33.5c1.8 2.8 2.8 5.3 2.8 7.5 0 0.9-0.1 1.8-0.4 2.6-1 2.8-3.1 4.2-6.4 4.2h-35.8l-22.6-34.7v34.5h-43.3v-87.8c0-6 2.1-11.1 6.4-15.3 4.2-4.2 9.3-6.3 15.2-6.3 6 0 11.1 2.1 15.3 6.3 4.3 4.3 6.4 9.4 6.4 15.3v23.4l19.6-35c3.1-5.2 7.5-8.5 13.3-10 1.9-0.5 3.8-0.7 5.6-0.7 3.8 0 7.3 1 10.8 3 5.2 3.1 8.5 7.6 10 13.4 0.5 1.8 0.7 3.7 0.7 5.5 0 3.8-1 7.3-3.1 10.8z" fill="#f57c14"/>
  <path class="st3" d="m491.4 55.6c6 0 11 2.1 15.2 6.3s6.3 9.2 6.3 15v0.3c0 6-2.1 11.1-6.3 15.3s-9.3 6.3-15.3 6.3h-12.3l0.1 65.8h-43.2v-65.8h-12.2c-6 0-11-2.1-15.2-6.3-4.3-4.3-6.4-9.4-6.4-15.3 0-6 2.1-11.1 6.3-15.3s9.3-6.3 15.3-6.3z" fill="#449de8"/>
  <path class="st3" d="m609.8 72.4c11.1 11.1 16.7 24.6 16.7 40.4s-5.6 29.3-16.7 40.5c-0.4 0.4-1 1-2 1.9-0.9 0.8-1.3 1.2-1.3 1.3-10.7 9-23 13.5-36.9 13.5h-0.5c-13.8 0-26.1-4.5-36.7-13.6-0.7-0.4-1.8-1.5-3.4-3.1-11.1-11.1-16.7-24.6-16.7-40.5 0-15.8 5.6-29.2 16.7-40.4s24.6-16.8 40.5-16.8c15.7 0 29.2 5.6 40.3 16.8zm-30.7 58.6c2.8-5 4.2-11.1 4.2-18.2 0-7-1.4-13.1-4.2-18.1-2.7-5-5.9-7.6-9.7-7.6s-7 2.5-9.8 7.6c-2.6 5.1-3.9 11.1-3.9 18.1s1.3 13.1 3.9 18.2c2.8 5 6 7.6 9.8 7.6 3.7-0.1 7-2.6 9.7-7.6z" fill="#449de8"/>
  <path class="st3" d="m727.5 72.4c11.1 11.1 16.7 24.6 16.7 40.4s-5.6 29.3-16.7 40.5c-0.4 0.4-1 1-2 1.9-0.9 0.8-1.3 1.2-1.3 1.3-10.7 9-23 13.5-36.9 13.5h-0.5c-13.8 0-26.1-4.5-36.7-13.6-0.7-0.4-1.8-1.5-3.4-3.1-11.1-11.1-16.7-24.6-16.7-40.5 0-15.8 5.6-29.2 16.7-40.4s24.6-16.8 40.5-16.8c15.7 0 29.2 5.6 40.3 16.8zm-30.7 58.6c2.8-5 4.2-11.1 4.2-18.2 0-7-1.4-13.1-4.2-18.1-2.7-5-5.9-7.6-9.7-7.6s-7 2.5-9.8 7.6c-2.6 5.1-3.9 11.1-3.9 18.1s1.3 13.1 3.9 18.2c2.8 5 6 7.6 9.8 7.6 3.7-0.1 7-2.6 9.7-7.6z" fill="#449de8"/>
  <path class="st3" d="m807.3 55c15.8 0 29.3 5.6 40.5 16.7 11.1 11 16.7 24.5 16.7 40.4v52.5h-43.3v-51.6c0-6.1-1.3-11.3-4-15.7-2.7-4.3-6-6.5-9.8-6.5s-7 2.2-9.7 6.5-4 9.5-4 15.7v51.6h-43.3v-52.5c0-15.9 5.6-29.4 16.7-40.4 10.9-11.1 24.3-16.7 40.2-16.7z" fill="#449de8"/>
  <path class="st3" d="m935.5 103.9c21 9.3 31.5 19.9 31.5 31.9 0 9-4.1 17-12.2 24-8.7 7.4-19.4 11.1-32 11.1-14.6 0-26.6-4.3-35.9-12.8-8.6-7.8-12.9-17-12.9-27.7h35.1c0 3.1 0.6 5.9 1.9 8.4 2.1 4.3 5.6 6.5 10.4 6.5 1.6 0 3.1-0.5 4.6-1.5 1.8-1.1 2.8-2.7 2.8-4.8v-0.4c0-2.6-2.2-5.1-6.5-7.5-1-0.6-7.2-3.4-18.6-8.5-20.9-9.3-31.4-19.9-31.4-31.9 0-9 4.1-17 12.2-24 8.7-7.4 19.3-11.1 32-11.1 14.6 0 26.5 4.3 35.9 12.8 8.5 7.8 12.8 17 12.8 27.7h-35.2c0-3-0.6-5.7-1.8-8.2-2.1-4-5.6-6.1-10.5-6.1-1.6 0-3.1 0.4-4.5 1.2-2 1-3 2.6-3 4.7v0.3c0.1 2.6 2.3 5.1 6.6 7.5 1.1 0.6 7.3 3.4 18.7 8.4z" fill="#449de8"/>
 </g>
</svg>
