<svg width="800" height="172.09" version="1.1" viewBox="0 0 800 172.09" xml:space="preserve" xmlns="http://www.w3.org/2000/svg" xmlns:xlink="http://www.w3.org/1999/xlink"><defs><radialGradient id="l" cx="96.973" cy="28.951" r="65.771" gradientTransform="matrix(-.5076 .8616 -.8616 -.5076 187.3 -61.064)" gradientUnits="userSpaceOnUse"><stop offset=".7"/><stop stop-color="#030303" offset=".7679"/><stop stop-color="#0B0B0B" offset=".8088"/><stop stop-color="#191919" offset=".8425"/><stop stop-color="#2E2E2E" offset=".8723"/><stop stop-color="#484848" offset=".8996"/><stop stop-color="#686868" offset=".925"/><stop stop-color="#8F8F8F" offset=".9489"/><stop stop-color="#bbb" offset=".9717"/><stop stop-color="#EDEDED" offset=".9928"/><stop stop-color="#fff" offset="1"/></radialGradient><linearGradient id="g" x1="-1004" x2="-1004" y1="488.58" y2="407.31" gradientTransform="matrix(.8873 -.4612 .4612 .8873 801.62 -849.8)" gradientUnits="userSpaceOnUse"><stop stop-color="#404040" offset=".2582"/><stop stop-color="#3B3B3B" offset=".2638"/><stop stop-color="#252525" offset=".2947"/><stop stop-color="#141414" offset=".3311"/><stop stop-color="#090909" offset=".3762"/><stop stop-color="#020202" offset=".4396"/><stop offset=".6154"/></linearGradient><mask id="k" x="97.2" y="1" width="59.2" height="55.5" maskUnits="userSpaceOnUse"><g class="st4" filter="url(#d)"><linearGradient id="b" x1="5.5047" x2="5.5047" y1="-891.84" y2="-945.78" gradientTransform="matrix(.8836 -.4684 .4684 .8836 552.29 843.18)" gradientUnits="userSpaceOnUse"><stop offset="0"/><stop stop-color="#020202" offset=".2481"/><stop stop-color="#0A0A0A" offset=".3852"/><stop stop-color="#181818" offset=".4953"/><stop stop-color="#2C2C2C" offset=".591"/><stop stop-color="#454545" offset=".6774"/><stop stop-color="#646464" offset=".7571"/><stop stop-color="#898989" offset=".8317"/><stop stop-color="#B5B5B5" offset=".9022"/><stop stop-color="#E4E4E4" offset=".9671"/><stop stop-color="#fff" offset="1"/></linearGradient><path class="st5" d="m153.6 14.5c7 13.2 0.6 30.2-14.2 38s-32.4 3.5-39.4-9.6c-7-13.2-0.6-30.2 14.1-38 14.8-7.8 32.5-3.5 39.5 9.6z" fill="url(#b)"/><path class="st6" d="m153.6 14.5c7 13.2 0.6 30.2-14.2 38s-32.4 3.5-39.4-9.6c-7-13.2-0.6-30.2 14.1-38 14.8-7.8 32.5-3.5 39.5 9.6z" fill="url(#b)"/></g></mask><filter id="d" x="97.2" y="1" width="59.2" height="55.5" filterUnits="userSpaceOnUse"><feColorMatrix values="1 0 0 0 0  0 1 0 0 0  0 0 1 0 0  0 0 0 1 0"/></filter><linearGradient id="e" x1="429.46" x2="400.55" y1="-470.27" y2="-508.51" gradientTransform="matrix(.9824 .1866 -.1866 .9824 -378.83 419.12)" gradientUnits="userSpaceOnUse"><stop offset=".4011"/><stop stop-color="#282828" offset=".427"/><stop stop-color="#545454" offset=".4606"/><stop stop-color="#7D7D7D" offset=".4978"/><stop stop-color="#A0A0A0" offset=".5374"/><stop stop-color="#BEBEBE" offset=".5804"/><stop stop-color="#D6D6D6" offset=".6277"/><stop stop-color="#E8E8E8" offset=".6812"/><stop stop-color="#F5F5F5" offset=".7444"/><stop stop-color="#FDFDFD" offset=".8269"/><stop stop-color="#fff" offset="1"/></linearGradient><mask id="f" x="100" y="1.8" width="46.1" height="39.5" maskUnits="userSpaceOnUse"><g class="st8" filter="url(#c)"><linearGradient id="a" x1="5.57" x2="5.57" y1="-908.64" y2="-945.25" gradientTransform="matrix(.8836 -.4684 .4684 .8836 552.29 843.18)" gradientUnits="userSpaceOnUse"><stop offset="0"/><stop stop-color="#020202" offset=".2481"/><stop stop-color="#0A0A0A" offset=".3852"/><stop stop-color="#181818" offset=".4953"/><stop stop-color="#2C2C2C" offset=".591"/><stop stop-color="#454545" offset=".6774"/><stop stop-color="#646464" offset=".7571"/><stop stop-color="#898989" offset=".8317"/><stop stop-color="#B5B5B5" offset=".9022"/><stop stop-color="#E4E4E4" offset=".9671"/><stop stop-color="#fff" offset="1"/></linearGradient><path class="st9" d="m144.4 10.2c4.7 8.9-1 21.3-12.8 27.5-11.8 6.3-25.2 4.1-30-4.8-4.7-8.9 1-21.3 12.8-27.5 11.9-6.3 25.3-4.2 30 4.8z" fill="url(#a)"/><path class="st10" d="m144.4 10.2c4.7 8.9-1 21.3-12.8 27.5-11.8 6.3-25.2 4.1-30-4.8-4.7-8.9 1-21.3 12.8-27.5 11.9-6.3 25.3-4.2 30 4.8z" fill="url(#a)"/></g></mask><filter id="c" x="100" y="1.8" width="46.1" height="39.5" filterUnits="userSpaceOnUse"><feColorMatrix values="1 0 0 0 0  0 1 0 0 0  0 0 1 0 0  0 0 0 1 0"/></filter><radialGradient id="radialGradient1972" cx="-183.68" cy="94.904" r="570.96" gradientTransform="matrix(5.6071 0 -1.1939e-8 .34059 851.02 -336.96)" gradientUnits="userSpaceOnUse"><stop stop-color="#547fbf" offset="0"/><stop stop-color="#244a7c" offset="1"/></radialGradient></defs><g transform="matrix(1.3333 0 0 -1.3333 -49.812 305.7)"><g transform="matrix(1.9556 0 0 -1.9556 319.97 229.28)"><path d="m162.3 33c0 18.2-14.8 33-33 33s-33-14.8-33-33 14.8-33 33-33c18.3 0 33 14.8 33 33z"/><path class="st3" d="m113.8 60.5c-15.1-8.9-20.1-28.3-11.2-43.3s28.3-20.1 43.3-11.2c15.1 8.9 20.1 28.3 11.2 43.3-8.9 15.1-28.3 20.1-43.3 11.2z" fill="url(#l)"/><mask x="97.2" y="1" width="59.2" height="55.5" maskUnits="userSpaceOnUse"><g class="st4" fill="url(#b)" filter="url(#d)"><path class="st5" d="m153.6 14.5c7 13.2 0.6 30.2-14.2 38s-32.4 3.5-39.4-9.6c-7-13.2-0.6-30.2 14.1-38 14.8-7.8 32.5-3.5 39.5 9.6z"/><path class="st6" d="m153.6 14.5c7 13.2 0.6 30.2-14.2 38s-32.4 3.5-39.4-9.6c-7-13.2-0.6-30.2 14.1-38 14.8-7.8 32.5-3.5 39.5 9.6z"/></g></mask><path class="st7" d="m153.6 14.5c7 13.2 0.6 30.2-14.2 38s-32.4 3.5-39.4-9.6c-7-13.2-0.6-30.2 14.1-38 14.8-7.8 32.5-3.5 39.5 9.6z" fill="url(#g)" mask="url(#k)"/><mask x="100" y="1.8" width="46.1" height="39.5" maskUnits="userSpaceOnUse"><g class="st8" fill="url(#a)" filter="url(#c)"><path class="st9" d="m144.4 10.2c4.7 8.9-1 21.3-12.8 27.5-11.8 6.3-25.2 4.1-30-4.8-4.7-8.9 1-21.3 12.8-27.5 11.9-6.3 25.3-4.2 30 4.8z"/><path class="st10" d="m144.4 10.2c4.7 8.9-1 21.3-12.8 27.5-11.8 6.3-25.2 4.1-30-4.8-4.7-8.9 1-21.3 12.8-27.5 11.9-6.3 25.3-4.2 30 4.8z"/></g></mask><path class="st11" d="m144.4 10.2c4.7 8.9-1 21.3-12.8 27.5-11.8 6.3-25.2 4.1-30-4.8-4.7-8.9 1-21.3 12.8-27.5 11.9-6.3 25.3-4.2 30 4.8z" fill="url(#e)" mask="url(#f)"/><path class="st1" d="m132.7 14.6h-10c-8.2 0-14.9 5.7-14.9 14.2 0 7.1 4.3 12.2 10.7 13.2v9.9h13.3v-9.5h1.8c2.2-0.2 3.6-1.6 3.6-3.6v-5.5h3.6zm-2.6 16c-1.8 0-3.3-1.5-3.3-3.3s1.5-3.3 3.3-3.3 3.3 1.5 3.3 3.3-1.5 3.3-3.3 3.3zm13.8-16h-5.4l8.2 18.6h-3.7v4.9c0 3-1.2 4.3-5.3 4.2v9.5h5.3v-9.5h1.7c1.6 0 3.6-1.2 3.7-3.7v-5.5h3.6z" fill="#fff"/></g><g transform="matrix(.40398 0 0 .40398 116.12 325.06)" fill="#38518d"><g transform="matrix(7.9157 0 0 7.9157 -67.095 -345.11)"><path transform="matrix(.094749 0 0 -.094749 8.4762 143.65)" d="m-113.52 1439.7c-32.971 0-57.943 1.5939-74.207 4.7285-16.422 3.1663-29.814 8.5378-39.777 15.978-11.462 8.5278-19.843 20.211-24.898 34.713-5.0027 14.333-7.5352 34.027-7.5352 58.523v79.432c0 22.438 2.5442 40.718 7.5469 54.344 5.066 13.784 13.434 25.097 24.875 33.604 10.1 7.5674 23.324 12.982 39.293 16.074 15.821 3.0818 41.078 4.6328 75.094 4.6328h104.29c33.615 0 58.819-1.551 74.893-4.6328 16.232-3.0924 29.52-8.5053 39.504-16.094 11.05-8.5172 19.252-20.086 24.381-34.387 5.066-14.153 7.6406-32.761 7.6406-55.305v-81.193c0-22.28-2.5746-40.844-7.6406-55.197-5.1188-14.502-13.332-26.111-24.393-34.502-9.8365-7.4407-23.229-12.824-39.799-15.99-16.391-3.1346-41.488-4.7285-74.586-4.7285zm24.064 76.445h56.939c30.871 0 51.568 3.8513 61.5 11.461 9.7732 7.4935 14.732 21.784 14.732 42.471v41.287c0 20.686-4.9592 34.977-14.732 42.471-9.9421 7.5991-30.629 11.461-61.5 11.461h-56.549c-30.755 0-51.485-3.8299-61.617-11.387-9.9632-7.4197-15.008-21.478-15.008-41.774v-40.496c0-21.615 4.8036-36.413 14.281-43.959 9.5938-7.6518 30.438-11.535 61.953-11.535z" fill="#264878"/></g><g transform="matrix(7.9157 0 0 7.9157 142.94 -508.92)"><path d="m30.495-0.346h-30.841v27.95h30.508v-7.076h-21.745v-3.825h20.483v-6.149h-20.483v-3.88h22.078z" fill="#264878"/></g><g transform="matrix(7.9157 0 0 7.9157 499.09 -508.92)"><path d="m8.416-0.346h-8.762v20.836h-11.55v7.114h31.862v-7.114h-11.55z" fill="#264878"/></g><g transform="matrix(7.9157 0 0 7.9157 752.11 -419.99)"><path transform="matrix(.094749 0 0 -.094749 -95.016 153.11)" d="m998.68 1443.2-161.07 294.99h101.17l28.381-48.529h175.35l28.18 48.529h101.73l-158.09-294.99zm56.465 75.314 53.447 97.447h-105.77z" fill="#264878"/></g></g><g transform="matrix(.40398 0 0 .40398 116.12 325.06)" fill="url(#radialGradient1972)"><path d="m750.61-293.16-117.8-215.76h69.683l21.284 36.388h134.67l21.127-36.388h70.141l-115.62 215.76zm40.721-47.988 44.739-81.579h-88.544z"/><path d="m142.94-508.91h238.65v50.082h-174.77v36.206h162.14v43.18h-162.14v35.763h172.13v50.526h-236.01z"/><path d="m499.09-508.91h63.879v164.94h91.418v50.819h-246.72v-50.819h91.418z"/><path d="m-24.389-459.71h-42.412c-24.008 0-39.657 2.9684-47.85 9.0792-8.2006 6.1109-12.364 17.391-12.364 33.531v30.372c0 17.09 3.9499 28.9 11.747 35.114 7.8048 6.2217 23.565 9.2455 48.175 9.2455h42.705c24.111 0 39.737-2.9921 47.787-9.1584 8.0502-6.1663 12.135-17.612 12.135-34.029v-30.966c0-16.409-4.0845-27.863-12.135-34.029-8.0502-6.1663-23.684-9.1584-47.787-9.1584m-60.753 169.19c-24.554 0-43.109-1.1715-55.133-3.4908-11.913-2.2956-21.578-6.1663-28.718-11.494-8.1531-6.0634-14.114-14.391-17.723-24.744-3.6491-10.457-5.4935-24.918-5.4935-42.982v-59.573c0-16.496 1.8444-29.89 5.4856-39.808 3.6174-9.8312 9.5779-17.889 17.731-23.953 7.2428-5.4302 16.781-9.3246 28.346-11.565 11.691-2.2718 30.459-3.4275 55.797-3.4275h78.215c25.045 0 43.766 1.1557 55.655 3.4275 11.755 2.2401 21.333 6.1267 28.481 11.557 7.8602 6.0555 13.702 14.312 17.367 24.531 3.6966 10.322 5.5647 23.969 5.5647 40.56v60.895c0 16.401-1.8681 30.016-5.5726 40.489-3.657 10.354-9.4988 18.633-17.359 24.602-7.0449 5.3272-16.702 9.1901-28.71 11.486-12.127 2.3193-30.776 3.4908-55.425 3.4908z"/></g></g></svg>
