<svg width="800" height="160.27" version="1.1" viewBox="0 0 800 160.27" xmlns="http://www.w3.org/2000/svg">
 <g transform="matrix(19.101 0 0 19.101 -1.2364 -229.21)" fill="none" fill-rule="evenodd">
  <g transform="translate(0,12)">
   <path d="m29.886 4.598c-0.31553 0-0.56623 0.10603-0.71184 0.4475h1.0758c-0.01621-0.15431-0.03235-0.29294-0.0728-0.40681-0.08091-0.024391-0.17796-0.040693-0.29116-0.040693zm-0.41252 2.328c0.55002 0 0.78458-0.21964 0.90606-0.70025h-1.3352c0.0085 0.27689 0.04064 0.49666 0.10559 0.65937 0.09705 0.032231 0.20196 0.04088 0.32357 0.04088zm-9.1019-0.20359v-1.937h-0.34781v0.2441h-1.2946l-0.33161-0.32548-0.0407-0.081573c-0.0887-0.056933-0.25837-0.073236-0.42841-0.073236-0.29981 0-0.59882 0.024578-0.63953 0.2441 0.2674 0.10603 1.1814 0.22014 1.5292 0.31752 0.72037 0.29294 1.327 0.86271 1.3027 1.6116zm4.9921-1.416c0-0.20372-0.04051-0.39872-0.12161-0.56983-0.08116-0.032542-0.17821-0.056933-0.28311-0.056933-0.69582 0-0.89808 0.61836-0.89808 1.2044 0 0.29288 0.03241 0.61021 0.14567 0.85475 0.08895 0.040507 0.19429 0.056996 0.3235 0.056996 0.59091 0 0.83363-0.52124 0.83363-1.042zm-10.307 0.895h1.5287c0.2995 0.48838 0.60711 0.78126 1.2461 0.78126 0.26715 0 0.55027-0.032231 0.56623-0.33357-0.97113-0.6674-2.5564-0.049031-2.7993-1.8637h-0.77672v2.1889c0.26715-0.040631 0.2593-0.30887 0.23499-0.77286zm-11.092 0.55347c1.0439 0 1.3429-1.3021 1.3429-2.3033 0-0.69975-0.18581-1.8799-0.70392-2.6041-0.18606-0.13017-0.40441-0.20365-0.65518-0.20365-1.8285 0-1.3108 3.9555-0.59858 4.9159 0.18606 0.12227 0.38802 0.19525 0.61472 0.19525zm16.367-5.0132h1.327l0.56648 0.57767v1.0582h-0.44542l0.44542 0.45559v0.94385c0.25856-1.0089 1.0272-1.5299 1.9738-1.5299 0.55856 0 0.92252 0.29313 1.1569 0.65931l0.0084 0.00815v-0.64282h-0.39648l-0.40466-0.40706v-1.123h2.2085l0.48575 0.48004v2.4739c0.2828-0.84616 1.1164-1.4973 2.2167-1.4973 1.4968 0 2.6782 1.0498 2.6782 2.8159 0 0.073173 0 0.15456-0.0086 0.21149h-0.2429l0.29146 0.29294c-0.16986 1.3512-1.2537 1.8235-2.4027 1.8235-0.88194 0-1.4322-0.17901-1.853-0.74088v0.6346h-2.1682l-0.29097-0.28473c-0.25911 0.23595-0.59072 0.34981-1.0358 0.34981-0.70373 0-1.2216-0.21156-1.5293-0.68345v0.61836h-3.0011l-0.25144-0.25225c-0.29072 0.21971-0.67942 0.31733-1.1484 0.31733-0.68771 0-1.2056-0.15437-1.5939-0.6753v0.61021h-0.95462l-0.2588-0.26855c-0.18631 0.16302-0.45322 0.33364-0.96303 0.33364-1.1485 0-1.8123-0.74853-1.8123-2.0915v-1.4241h-0.44487v1.937h0.19416l0.2833 0.28473v1.2288h-1.8768l-0.3159-0.30918c-0.32357 0.26849-0.66328 0.37427-1.2459 0.37427-1.1892 0-1.8204-0.71599-1.8204-1.6845v-0.90334c-0.45266 1.5708-1.7716 2.6773-3.5354 2.6773-2.3866 0-4.1018-2.018-4.1018-4.3295 0-2.2624 1.3674-4.061 3.6971-4.061 2.0471 0 3.7864 1.1314 4.1021 3.2552h1.3106l0.40466 0.40712v2.7102c0 0.13826 0.00804 0.26009 0.032289 0.3663 0.05666 0.016053 0.12111 0.016053 0.19416 0.016053 0.60687 0 0.86567-0.40681 0.86567-0.96843v-1.001h-0.33186l-0.40441-0.40706v-1.1231h2.1116c1.0596 0 1.2378-0.38217 1.2378-1.1881h1.1326l0.40448 0.40681v0.78132h0.95493l0.2507 0.26059c0.30755-0.21964 0.79262-0.28498 1.2539-0.28498 0.58256 0 0.92227 0.2362 1.173 0.58607v-0.56168h2.2814l-0.40441-0.28498z" fill="#d81f26"/>
   <path d="m20.355 2.9458h1.2784v-1.18h-1.2784zm8.2764 2.1246c0.09705-0.65956 0.43682-0.91174 0.84971-0.91174 0.55794 0 0.76058 0.33382 0.80084 0.91174zm-4.1018 1.7495c-0.73608 0-0.89833-0.74063-0.89833-1.3429 0-0.58582 0.2267-1.2289 0.92252-1.2289 0.55008 0 0.83363 0.52889 0.83363 1.0583v0.4475c0 0.52074-0.26697 1.0661-0.85782 1.0661zm-20.566-0.040631c-1.1003 0.0079022-1.7719-1.7577-1.7719-3.3122 0-0.8955 0.33971-2.2543 1.351-2.2543 1.3432 0 1.7883 2.1811 1.7883 3.2388 0 1.0013-0.32357 2.3277-1.3674 2.3277zm15.711-0.032542c0.01664-0.097689 0.0245-0.22804 0.0245-0.34179 0-1.9613-2.8395-1.164-2.8395-1.9697 0-0.26849 0.34806-0.31727 0.66346-0.31727 0.44493 0 0.70355 0.13826 0.90619 0.56162h1.1647v-0.32567h0.80103v2.3928zm-1.8442 0.26034c-0.63897 0-0.93068-0.29288-1.2297-0.78132h-1.5291c0.02425 0.4966 0.01614 0.77342-0.31571 0.77342-0.33161 0-0.36396-0.33382-0.36396-0.6025v-2.0428h1.2299c-0.0081 0.065084-0.0081 0.15456-0.0081 0.21971 0 2.059 2.8071 1.2291 2.8071 2.0754 0 0.29319-0.33977 0.35803-0.59047 0.35803zm-14.069 0.95225c2.1037 0 3.5035-1.5383 3.6653-3.6054h0.35592v2.2626c0 0.90334 0.62276 1.2532 1.4399 1.2532 0.65542 0 1.2135-0.40656 1.4807-0.8871v0.82208h1.9498v-1.0499h-0.59876v-2.401h0.95437v1.8556c0 1.107 0.43732 1.6603 1.4484 1.6603 0.58262 0 0.89802-0.28479 1.1248-0.61021v0.54519h0.90606v-0.59397c0.46911 0.50444 0.93043 0.659 1.618 0.659 0.63136 0 1.149-0.21971 1.4235-0.62676v0.56174h2.9533v-0.67542c0.30779 0.46356 0.84946 0.7326 1.5534 0.7326 0.63111 0 1.0358-0.26905 1.3512-0.757v0.69981h2.1197v-0.69191c0.4208 0.56168 1.0434 0.78948 1.8768 0.78948 1.1493 0 2.2165-0.47214 2.3787-1.7742h-1.3351c-0.10516 0.56168-0.36396 0.83017-0.95437 0.83017-0.49367 0-0.84173-0.30134-0.86598-1.1637h3.115v-0.18741c0-1.4648-0.86567-2.3842-2.249-2.3842-1.2866 0-2.33 0.895-2.33 2.3356 0 0.4475 0.06464 0.86246 0.21835 1.1882h-0.61472v-4.9809h-2.1606v1.0742h0.80122v1.0989c-0.22695-0.34179-0.62326-0.64276-1.1895-0.64276-1.327 0-2.0388 0.94379-2.0388 2.2299 0 0.46374 0.07287 0.89494 0.19416 1.2288h-0.71988v-3.4587h-3.1554v0.56137c-0.25095-0.35803-0.61472-0.60237-1.2461-0.60237-0.7599 0-1.2456 0.2362-1.4801 0.55334v-0.52889h-1.3593v-1.1881h-1.0758c0 0.80553-0.21074 1.1881-1.2703 1.1881h-2.0873v1.0987h0.73602v1.4081c0 0.56162-0.28287 0.99288-0.88973 0.99288-0.51786 0-0.65542-0.35012-0.65542-0.81387v-2.6858h-1.788c-0.32375-1.7577-1.5775-3.1983-3.6003-3.1983-2.3297 0-3.6729 1.7172-3.6729 3.9797 0 2.1973 1.4643 3.8983 3.6729 3.8983z" fill="#fdd106"/>
   <path d="m35.483 6.133c0.02938 0.42299 0.0011 0.66036-0.12984 0.71941-3e-3 -0.081138-2e-3 -0.15979-2e-3 -0.22599v-1.8395l0.96068-0.00143 1.3333 3.0496 0.41988 0.39436h1.7816l1.5105-3.3577h0.59041v-1.1969l-0.47666-0.40824h-2.5543v1.1121l0.4153 0.4037-0.6608 1.6039-0.62697-1.5146h0.48606v-1.1969l-0.37293-0.40824-2.8061 1.867e-4v-0.7914l-0.45612-0.40824h-1.1441c0 0.8339-0.20982 1.23-1.3068 1.23l1.85e-4 1.0818 0.41796 0.40812 0.56994-0.00156 0.02363 1.9194c0.18996 1.1979 0.87581 1.5859 1.8938 1.5995 0.60309 0.00815 0.94472-0.30719 1.1644-0.63174 0.10157-0.15898 0.2648-0.59802 0.17586-1.2231l-0.41806-0.31652" fill="#d81f26"/>
   <path d="m36.134 4.3786 1.5105 3.4564h1.7835l1.5105-3.4564h0.53177v-1.1121h-2.5543v1.1121h0.58132l-0.96099 2.3366-0.96099-2.3366h0.58132v-1.1121h-3.2622v-1.1994h-1.1441c0 0.83384-0.20982 1.2299-1.3068 1.2299v1.0815h0.98808v1.8904c0 1.1461 0.45266 1.7188 1.4994 1.7188 0.60315 0 0.94126-0.30035 1.1644-0.63174 0.08517-0.14516 0.26487-0.59808 0.17586-1.2232h-0.78885c0.02511 0.51408 0.13237 0.80068-0.21118 0.80068-0.3433 0-0.37682-0.34552-0.37682-0.62378v-1.9313z" fill="#fff"/>
   <path d="m34.895 2.1346h-1.0774c-0.0012 0.71724-0.22825 1.2242-1.3078 1.2242v1.0198h0.98944v1.8904c0.01274 1.2293 0.38561 1.7188 1.4323 1.7188 0.60315 0 0.94126-0.30035 1.1644-0.63174 0.08517-0.14516 0.2747-0.53063 0.18569-1.1557h-0.72841c0.02511 0.51402-0.05499 0.73329-0.28144 0.73329-0.3433 0-0.37682-0.34558-0.37682-0.62378v-1.9313h1.3118l1.5113 3.4564h1.7105l1.5105-3.4564h0.53177v-1.0448h-2.4886v1.0448h0.5885l-1.0006 2.4248-0.99433-2.4248h0.58132v-1.0442h-3.2622zm-0.06705 0.067387v1.2h3.2622v0.90925h-0.61243l1.0923 2.6771 1.0992-2.6771h-0.61986v-0.90994h2.3545v0.90994h-0.50938l-1.5106 3.4564h-1.6212l-1.5113-3.4564h-1.4235v1.9988c0 0.18903 0 0.69123 0.44388 0.69123 0.12631 0 0.1552-0.024329 0.23208-0.10559 0.11326-0.11972 0.12445-0.33675 0.11876-0.6277h0.60025c0.06018 0.50375-0.0712 0.86949-0.15909 1.012-0.0092 0.014871-0.01781 0.028747-0.02326 0.038453-0.27668 0.41073-0.62901 0.60206-1.1089 0.60206-0.98691 0-1.3569-0.44769-1.3653-1.6514v-1.9579h-0.98944v-0.88561c1.1075-0.023022 1.2941-0.61917 1.3069-1.2236h0.9441z" fill="#fff"/>
  </g>
 </g>
</svg>
