<svg width="1e3" height="1011.7" version="1.1" viewBox="0 0 1e3 1011.7" xmlns="http://www.w3.org/2000/svg">
 <g transform="translate(-534.55 430.9)">
  <g fill="#fff">
   <g transform="matrix(7.3634 0 0 7.3634 534.6 -430.9)">
    <path class="st0" d="m68.8 23.4c-17.3 0-32.4 9.7-40 24h80c-7.7-14.3-22.7-24-40-24z" display="none"/>
    <path class="st0" d="m68.8 114c17.6 0 32.8-10 40.3-24.6h-80.6c7.5 14.6 22.7 24.6 40.3 24.6z" display="none"/>
    <path class="st1" d="m68.8 114c-17.6 0-32.8-10-40.3-24.6h-25.2c8.8 27.8 34.8 48 65.5 48s56.7-20.2 65.5-48h-25.2c-7.5 14.6-22.8 24.6-40.3 24.6z"/>
    <path class="st1" d="m68.8 23.4c17.3 0 32.4 9.7 40 24h25.3c-9-27.5-34.8-47.4-65.3-47.4s-56.4 19.9-65.3 47.4h25.3c7.6-14.3 22.6-24 40-24z"/>
    <polygon class="st2" points="28.8 47.4 3.5 47.4 -12.1 47.4 -12.1 89.4 3.3 89.4 28.5 89.4 109.1 89.4 134.3 89.4 145.2 89.4 145.2 47.4 134.1 47.4 108.8 47.4" display="none" fill="#fff"/>
   </g>
   <g transform="matrix(7.3634 0 0 7.3634 534.6 -430.9)">
    <path class="st1" d="m34.7 78.2h-3.6l-7.8-19.6 5.1 4e-6 4.7 12.5 4.9-12.5h4.8z" fill="#fff"/>
   </g>
   <g transform="matrix(7.3634 0 0 7.3634 534.6 -430.9)">
    <path class="st1" d="m63.2 78.2h-5.1l-1.7-4.1h-7.3l-1.6 4.1h-5l8.5-19.5h3.7zm-12.6-7.9h4.3l-2.2-5.5z" fill="#fff"/>
   </g>
   <g transform="matrix(7.3634 0 0 7.3634 534.6 -430.9)">
    <path class="st1" d="m72.9 78.2h-4.5v-15.5h-5.5v-4h15.5v4h-5.5z" fill="#fff"/>
   </g>
   <g transform="matrix(7.3634 0 0 7.3634 534.6 -430.9)">
    <path class="st1" d="m87.6 78.2h-4.5v-19.5h4.5z" fill="#fff"/>
   </g>
   <g transform="matrix(7.3634 0 0 7.3634 534.6 -430.9)">
    <path class="st1" d="m135.8 78.2h-5.8l-8.2-13.5v13.5h-4.5v-19.5h6l8 13.2v-13.2h4.5z" fill="#fff"/>
   </g>
   <path d="m1289.1-1.5199c-53.509 0-78.696 36.256-78.696 75.015 0 43.068 31.725 75.015 76.625 75.015 52.222 0 78.926-36.705 78.926-75.935 0-41.245-28.55-74.094-76.856-74.094zm-0.4602 30.144c26.857 0 42.8 21.479 42.8 44.41 0 21.811-14.916 45.331-43.95 45.331-24.964 0-42.8-20.926-42.8-44.871 0-21.549 14.2-44.871 43.95-44.871z"/>
   <path d="m613.24-1.5199c-53.509 0-78.696 36.256-78.696 75.015 0 43.068 31.725 75.015 76.625 75.015 52.222 0 78.926-36.705 78.926-75.935 0-41.245-28.549-74.094-76.855-74.094zm-0.46021 30.144c26.857 0 42.8 21.479 42.8 44.41 0 21.811-14.916 45.331-43.95 45.331-24.964 0-42.8-20.926-42.8-44.871 0-21.549 14.2-44.871 43.95-44.871z"/>
  </g>
 </g>
 <style type="text/css">.st0{display:none;fill:none;}
	.st1{fill:#FFFFFF;}
	.st2{display:none;}</style>
 <style type="text/css">.st0{display:none;fill:none;}
	.st1{fill:#FFFFFF;}
	.st2{display:none;}</style>
</svg>
