<svg width="482.29pt" height="255.66pt" version="1.1" viewBox="0 0 482.29 255.66" xmlns="http://www.w3.org/2000/svg">
 <g transform="matrix(10.57 0 0 10.57 165.24 -.96692)">
  <path d="m12.646 1.3044c-0.01053-0.00827-2.369-0.85707-5.7647-0.85707h-0.0012c-3.3957 0-5.754 0.8488-5.765 0.85707-0.55755 1.2575-1.566 8.5753 5.6723 14.452l0.093031 0.07211 5.655e-4 -4.24e-4 1.414e-4 4.24e-4 0.09296-0.07211c7.2381-5.8768 6.2299-13.195 5.672-14.452" fill="#00264c"/>
  <path d="m12.898 1.0039c0.58582 1.3381 1.6456 9.0342-5.9614 15.289l-0.097767 0.07606h-7.776e-4l-0.097626-0.07606c-7.6072-6.255-6.5476-13.951-5.9615-15.289 0.011523-0.008907 2.4899-0.91242 6.0589-0.91242h0.00156c3.5685 0 6.0467 0.90351 6.0586 0.91242zm-6.6452 1.9498s0.36371-0.021208 0.5912-0.021632c0.22777 4.242e-4 0.59106 0.021632 0.59106 0.021632l-0.59106-1.0846zm0.67157 12.789c0.74163-0.60272 1.3476-1.1776 1.9253-1.8026-0.59247 0.42521-1.2311 0.62379-2.0062 0.62379-0.75888 0-1.4827-0.24438-2.0464-0.62951 0.56525 0.60654 1.2205 1.2229 1.941 1.8083l0.092748 0.07196 2.827e-4 -7.07e-4 3.535e-4 7.07e-4zm-0.085961-11.04c0.68599 0.55797 2.045 1.557 2.6642 2.0255-0.9361-0.36039-1.6918-0.88471-2.3277-1.4309-0.10024-0.14831 0.91977 1.4361 2.912 2.5109-0.59975-1.1039-1.3333-2.4512-1.971-3.6131-0.050474-0.092041-0.10045-0.18337-0.14958-0.27287l-0.00657-0.011664-0.013432-7.069e-4h-2.121e-4c-0.38379-0.018097-0.95724-0.027641-1.1021-0.02962-0.14478 0.00198-0.71844 0.011523-1.1022 0.02962l-0.013573 7.069e-4 -0.00657 0.011664c-0.47393 0.86251-1.0142 1.8524-1.5187 2.7797 0.53174-0.41023 2.5765-1.9328 2.6354-1.9992zm-5.7605-3.3909c-0.45448 1.0257-1.2088 6.0895 2.4673 11.108-0.19815-0.45052-0.30878-0.94918-0.30878-1.4748 0-1.997 1.5889-3.6155 3.5488-3.6155 0.55924 0 1.0882 0.13198 1.5585 0.36689 0.15135 0.070056 0.29351 0.14937 0.42238 0.23661-0.00509-0.00269-0.00891-0.00431 0.0017 0.00106 0.011664 0.00629 0.00551 0.0024-4.948e-4 -4.242e-4 -0.97866-1.3036-2.828-2.1744-4.5741-1.2144-0.44925 0.82596-0.87022 1.6005-1.1896 2.1889-0.27655 0.50983-0.5029 0.92295-0.57119 1.047-0.25435-0.50835-0.44345-0.98905-0.47505-1.074l4.3763-8.0163c0.031316-0.00205 0.13325-0.002898 0.30383-0.002898l0.20649 2.8277e-4 0.20635-2.8277e-4c0.17079 0 0.27259 8.4831e-4 0.30412 0.002898 0.51697 0.90486 3.719 6.8117 4.2613 7.8142 0.0023 0.00332 0.0037 0.00693 0.0059 0.010321 0.03485 0.065249 0.05825 0.10837 0.0673 0.12569v7.07e-5l0.22664 0.41468c1.5682-3.8121 1.0259-7.1124 0.66857-7.9185-0.01068-0.00827-2.3642-0.85566-5.7524-0.85566h-0.00127c-3.3883 0-5.7415 0.84738-5.7526 0.85566zm0.46655 0.24218 0.035417-0.010392c1.5719-0.46148 3.0997-0.62619 4.1181-0.68274-0.25456 0.47017-0.56907 1.046-0.87389 1.6034-0.418 0.7646-0.78044 1.4273-0.86202 1.5879-1.0988 0.15241-1.9212 0.3864-1.9293 0.38902l-0.017461 0.00509v0.018239c0 0.00976 0.0087 1.2634 0.37905 2.6878-0.23053 0.43016-0.54341 1.0064-0.63524 1.1678-0.76114-2.4116-0.92119-4.9041-0.40245-6.7099 0.018521-0.00551 0.066026-0.020006 0.18783-0.0562zm0.47321 1.9044-0.00219 0.034568 0.033013-0.00933c0.43645-0.12456 1.2867-0.28475 1.2952-0.28637l0.01124-0.00212 0.00544-0.01018c0.073594-0.13545 0.13092-0.24198 0.18246-0.3377 0.13085-0.24297 0.22579-0.41843 0.45059-0.823l0.023682-0.04291-0.048 0.00665c-0.54567 0.075211-0.99626 0.15396-1.8147 0.356l-0.015128 0.00375-0.0029 0.015482c-0.054714 0.30652-0.083344 0.52658-0.11876 1.0952zm10.569 1.4485c-0.03528 0.45872-0.11841 1.5266-0.63276 3.219-0.09614-0.16627-0.44564-0.81246-0.9079-1.6671-0.80433-1.4886-2.0175-3.7323-3.0574-5.596 2.1235 0.12505 3.6215 0.51775 4.3341 0.7441 0.03019 0.092465 0.27436 0.90182 0.3027 2.1131-0.12399-0.037113-0.58363-0.17411-0.90931-0.26665-7e-5 -0.28517-0.03195-0.72212-0.10229-1.0745l-0.0029-0.014845-0.01484-0.00396c-0.76942-0.20091-1.2988-0.28277-1.8596-0.36958l-0.048848-0.00756 0.023965 0.043334c0.57048 1.0233 0.92119 1.6849 1.2029 2.2165 0.22268 0.41963 0.41475 0.78221 0.64768 1.1962l0.03591 0.063623 0.0093-0.072742c0.08186-0.65015 0.08943-0.87142 0.09225-0.95498 7e-5 -0.00657 7e-5 -0.012654 4.24e-4 -0.017532 0.26891 0.065743 0.59254 0.16591 0.90309 0.26333-0.0052 0.045243-0.0098 0.1059-0.0164 0.1862zm-7.86 8.0143h0.68182v-4.1718s-0.34088 0.050403-0.68182 0.34328zm4.7367-0.67368-2.3453-2.83e-4 2.1988-2.2334v-0.92133s-0.79974-0.44225-1.7057-0.44225c-0.90542 0-1.5742 0.44225-1.5742 0.44225v0.95406h0.71201l-4.242e-4 -0.49428s0.12696-0.22049 0.86265-0.22049c0.73604 0 0.94748 0.26142 0.94748 0.26142l-4.241e-4 0.20338-2.5213 2.4544v0.67023h2.8772c0.21943-0.25138 0.54928-0.67369 0.54928-0.67369z" fill="#fff"/>
 </g>
 <g transform="translate(-7.5363 -529.09)" fill="#221e1f">
  <path d="m15.548 784.08h5.2036l5.2036-19.317h0.07487l5.1662 19.317h5.0913l7.9365-27.216h-5.2036l-5.2036 18.681h-0.07487l-5.2785-18.681h-5.0913l-5.2036 18.718h-0.07487l-5.2411-18.718h-5.3159z"/>
  <path d="m73.143 773.26 5.6903-12.129 5.6903 12.129zm-10.744 10.819h5.6529l2.8826-6.2518h15.686l2.8451 6.2518h5.6154l-13.215-27.216h-6.0646z"/>
  <path d="m143.49 763.49c-0.67385-1.8718-2.6954-7.3-14.413-7.3-2.0964 0-12.691 0-12.691 8.1611 0 4.1554 3.519 6.8882 9.8083 7.7493l6.5139 0.89847c3.8934 0.48667 5.9149 1.6472 5.9149 3.4067 0 2.3585-3.5939 3.781-7.9364 3.781-7.1877 0-9.2093-2.8826-10.183-4.8667l-5.1288 1.6098c0.63641 2.059 3.4816 7.8241 15.162 7.8241 7.2626 0 13.402-2.3959 13.402-8.8349 0-4.5672-3.5939-6.9257-9.696-7.8616l-6.439-0.97334c-5.4282-0.67385-6.1021-1.9092-6.1021-3.0698 0-2.5082 3.6313-3.4067 7.2252-3.4067 6.4764 0 8.6852 2.0964 9.5462 4.5298z"/>
  <path d="m167.17 784.08h5.3159v-11.718h18.269v11.718h5.3159v-27.216h-5.3159v10.782h-18.269v-10.782h-5.3159z"/>
  <path d="m221.34 784.08h5.3159v-27.216h-5.3159z"/>
  <path d="m251.92 784.08h5.0913v-20.365l18.943 20.365h4.8667v-27.216h-5.0913v19.654l-18.194-19.654h-5.6154z"/>
  <path d="m319.51 770.11v4.2677h9.5462c-1.2728 3.8185-4.1928 5.6528-9.4339 5.6528-5.7652 0-10.108-3.2944-10.108-9.7334 0-3.781 2.0216-9.5462 10.557-9.5462 6.2518 0 7.7118 3.2195 8.3482 4.6046h5.4282c-1.3103-6.8508-8.1611-9.1718-14.413-9.1718-10.856 0-15.236 7.0754-15.236 14.338 0 10.819 8.4231 14.226 15.386 14.226 5.2785 0 8.1236-1.8344 10.183-3.1821l1.0482 2.8077h3.2195v-14.263z"/>
  <path d="m367.59 784.08h5.3159v-22.649h12.167v-4.5672h-29.649v4.5672h12.167z"/>
  <path d="m421.5 780.18c-5.0913 0-10.894-2.0964-10.894-9.8083 0-6.5513 4.6795-9.6211 10.894-9.6211 6.2144 0 10.894 3.0698 10.894 9.6211 0 7.7118-5.8026 9.8083-10.894 9.8083zm-16.21-9.5088c0 5.6528 3.3318 14.076 16.21 14.076s16.21-8.4231 16.21-14.076c0-7.4498-4.2303-14.488-16.21-14.488-11.98 0-16.21 7.038-16.21 14.488z"/>
  <path d="m460.93 784.08h5.0913v-20.365l18.943 20.365h4.8667v-27.216h-5.0913v19.654l-18.194-19.654h-5.6154z"/>
 </g>
</svg>
