<svg width="800" height="482.52" version="1.0" viewBox="0 0 640 386.02" xmlns="http://www.w3.org/2000/svg">
 <link href="" rel="stylesheet" type="text/css"/>
 <style type="text/css"/>
 <g transform="matrix(.014942 0 0 -.014326 -.019382 386.93)" fill="#fff">
  <path d="m9050 22613c-959-45-2094-321-3110-756-1125-481-2169-1156-3480-2246-260-217-488-429-851-791-468-468-852-884-1310-1420-234-275-244-287-273-350-31-67-33-103-5-131 20-20 28-21 119-15 88 6 105 4 175-19 126-41 151-36 242 47 46 41 99 51 123 23 15-18 27-15 134 32 67 30 86 35 127 30l48-6 139 162c552 643 1379 1427 2212 2098 1107 892 2103 1490 3235 1944 500 200 729 279 1055 360 604 151 1166 213 1830 202 733-12 1227-101 1616-291 202-98 328-181 489-322 274-239 514-639 571-953 34-185 29-564-12-886-88-704-265-1263-639-2020-490-991-1130-1902-2064-2940-374-414-509-544-918-878-321-261-411-341-392-345 9-1 55 11 103 28s92 30 98 28c35-12-259-204-1189-776-436-268-543-331-828-492-237-133-298-170-289-179 3-3 36-6 72-6 80 0 89-15 42-69-39-44-136-93-215-107-73-13-87-20-148-75-56-50-90-59-185-50l-67 7-195-119c-252-153-330-196-330-183 0 50 871 3654 1021 4223 248 947 358 1350 580 2128 274 957 359 1357 329 1544-18 115-50 160-169 234-36 22-80 61-100 88-26 35-58 61-111 89-41 23-104 63-140 89-70 52-125 80-140 71-5-3-14-24-20-45-14-51-46-55-72-10-24 43-48 38-138-25-102-72-114-76-172-58-67 22-108 11-153-39-67-74-78-112-86-308-11-247-35-364-145-705-92-283-208-680-657-2245-217-756-478-1665-580-2020-198-688-284-1013-396-1500-471-2052-945-5167-1331-8755-22-209-54-474-71-590-17-115-28-224-24-242 7-37 29-53 75-53 17 0 47-8 68-19 57-29 90-33 191-21 81 9 106 8 204-11 149-29 229-23 362 26 55 20 155 47 222 60s139 33 161 44c69 35 152 152 188 265 35 110 50 214 169 1146 260 2028 471 3622 601 4530 84 588 244 1574 257 1582 7 4 27 8 45 8 143 1 783 228 1500 534 1308 558 2452 1178 3160 1711 665 501 1181 1085 1824 2065 540 822 884 1489 1154 2235 70 192 248 760 279 888 62 255 72 632 25 952-55 379-183 884-366 1440-152 461-341 816-599 1125-87 103-303 312-405 392-427 330-963 537-1593 613-253 30-596 41-877 28z"/>
  <path d="m37525 16646c-22-14-58-48-80-78-69-92-353-446-504-628-445-537-663-755-1301-1306-1126-974-1957-1678-2425-2055-451-364-1028-759-1645-1126-341-203-856-483-889-483-39 0-131 115-115 143 4 7 71 93 149 192 388 494 741 998 1061 1515 243 390 406 738 599 1270 197 543 275 1e3 253 1480-6 140-26 294-49 374-22 77-142 176-215 176-16 0-51 7-79 16-59 18-129 12-195-18-34-15-72-21-160-23-129-4-200-17-375-70-642-194-1171-570-1501-1065-348-524-577-1093-763-1902-125-541-155-791-155-1283 1-301 15-513 45-666l10-54-128-125c-200-195-342-319-551-482-352-274-526-382-602-376-33 3-36 6-48 53-17 64-10 441 13 665 42 424 95 786 185 1263 106 562 221 1263 322 1952 49 331 51 361 52 555 0 174-4 220-22 308-42 192-114 352-200 444-35 38-48 46-58 37-8-6-14-18-14-26 0-11-7-9-31 7-21 15-39 21-58 17-15-3-45-1-67 5-21 5-82 13-134 17-52 5-109 14-127 22-30 12-35 11-62-9-17-12-36-22-43-22s-34 21-60 47c-36 35-52 45-62 38-94-70-91-69-209-69-132-1-160-12-291-110-172-129-374-356-632-711-104-144-467-681-768-1136-79-119-149-220-156-224-11-7-12 10-6 82 14 183 99 705 172 1058 20 93 40 209 45 257 25 220-48 471-175 601-72 75-100 85-331 128-604 111-608 111-684 104-234-20-506-170-1041-573-118-88-268-203-332-254-275-218-734-582-746-591-8-7-37 6-96 42-228 140-495 231-761 261-118 13-463 13-601-1-499-48-879-188-1097-404-110-109-178-225-219-377-20-72-23-106-23-258 1-138 5-188 19-235 66-221 290-352 701-409 283-39 637-44 894-11 297 39 624 126 848 226l64 28 10-27c56-145 118-444 145-695 20-189 14-660-10-832-62-434-182-829-396-1294-230-503-540-921-814-1099-124-81-209-101-260-61-102 80-200 438-262 954-45 378 27 1293 143 1810 30 130 37 181 37 275 1 105-1 119-24 160-14 25-41 54-59 65-19 11-69 55-112 98-43 42-83 77-90 77s-60 22-119 50c-129 60-208 74-370 68-138-6-187-25-254-99-60-67-76-118-86-284-13-196-15-208-60-372-51-186-71-325-115-803-55-601-77-740-146-916-142-365-488-906-739-1155-146-146-232-179-326-124-96 57-159 216-195 500-17 128-17 629 0 830 24 299 65 468 316 1305 159 530 164 559 124 691-26 85-43 99-124 99-46 1-74 8-120 30-42 22-74 30-110 30-43 0-60 6-101 35-67 48-97 46-152-7l-43-43h-142c-118 0-147-3-169-17-36-23-93-146-238-508-328-818-435-990-977-1572-91-98-169-178-172-178s-26 80-50 178c-24 97-62 233-83 302-84 265-342 910-558 1395-69 155-129 311-185 480-90 273-126 355-182 411-86 87-227 116-349 73l-66-23-106 23c-283 60-342 71-408 71-75 0-90-6-234-88-30-17-63-32-73-32-34 0-94-39-105-67-6-15-13-62-16-103-4-48-20-115-45-185-34-98-528-1352-1021-2590-299-752-562-1364-763-1770-196-396-253-470-290-377-30 74-39 217-35 552l3 325 36 60c96 157 216 423 286 632 124 371 182 867 139 1188-37 280-105 370-315 415-65 14-104 28-135 50-57 41-113 57-232 65-238 16-398-59-544-256-108-145-213-383-300-675-79-270-108-488-117-878l-6-280-60-95c-255-406-614-913-856-1208-339-415-862-839-1324-1072-101-51-130-62-137-51-41 67-48 555-11 850 55 454 138 766 290 1100 426 933 1484 1946 2774 2654 398 218 514 261 742 275 101 7 155 15 195 30 60 22 130 74 130 96 0 34-190 155-244 155-28 0-101 47-141 90-50 53-116 81-224 91-53 6-145 22-206 37-91 22-131 27-230 26-332-4-823-143-1215-345-548-282-1339-948-1835-1544-340-408-624-874-788-1290-177-451-290-986-304-1441-15-516 77-876 325-1269 115-181 222-286 362-356 66-32 337-131 445-161 90-25 262-20 375 12 158 44 447 208 705 400 303 225 691 567 897 794 128 140 357 423 442 546 96 138 81 136 142 12 44-90 65-122 127-184 81-82 208-171 302-213 130-57 185-67 401-72 386-10 515 29 750 229 299 251 651 782 968 1456 186 394 321 721 565 1364 83 216 185 481 229 588s141 362 215 565c159 431 189 507 205 513 35 11 320-675 437-1053 58-186 146-529 224-870 33-143 70-302 82-352l22-93-119-126c-302-320-544-598-806-926-254-316-325-434-374-623-23-86-27-122-27-250-1-126 3-164 22-235 77-291 229-405 536-403 219 2 440 63 705 194 703 349 1019 840 1160 1804 12 77 24 212 27 300l6 160 215 225c119 124 274 282 346 352l131 127 12-197c32-523 98-1035 157-1208 52-154 148-305 267-423 125-125 278-211 458-258 134-36 328-38 447-6 254 69 475 212 744 482 209 210 400 451 551 696 35 58 67 105 70 105s18-23 33-51c51-93 182-283 258-374 240-289 568-499 883-566 135-28 305-26 431 6 134 34 327 131 469 236 132 98 386 350 507 502 240 302 449 635 588 938 113 246 190 489 310 974 121 487 153 732 154 1150 0 284-9 408-50 670-55 358-145 687-282 1022l-21 52 82 74c107 96 191 166 502 417 207 167 265 217 578 504 217 198 341 300 361 293 58-19-5-493-158-1189-128-585-215-1122-426-2643-45-319-114-791-155-1050-114-723-133-910-104-1047 24-110 81-177 171-199 62-14 105-8 155 25 60 39 92 40 292 7 213-36 365-41 452-15 41 12 66 28 106 69 67 69 83 124 118 390 14 110 32 236 40 280s26 145 41 225c139 770 355 1423 733 2216 109 231 183 367 334 614 55 91 117 194 137 230 98 171 558 864 773 1165 161 224 244 328 260 322 19-6 13-172-13-342-24-170-92-557-173-1e3 -97-527-162-996-238-1725-54-520-29-912 81-1241 82-246 202-422 366-535 110-75 280-121 413-111 75 6 255 48 289 67 9 5 60 28 112 51 355 153 860 514 1380 986l154 141 58-54c162-150 382-211 727-201 184 5 251 14 424 58 646 162 1562 635 2611 1346 471 320 1026 737 1115 838 33 38 40 72 17 81-27 11-96-35-356-236-153-119-249-184-257-176-18 17 127 166 342 351 83 71 200 174 260 230 196 181 288 256 405 333 63 41 153 100 200 131 114 74 279 208 415 334 158 149 342 304 393 334 39 23 45 24 59 11 13-14 13-19 0-44-18-35-161-174-362-354-314-280-398-378-266-311 74 38 468 346 736 576 209 179 486 395 506 395 14 0 11-51-15-250-43-321-58-503-87-1030-6-113-13-210-14-216-2-6-63-44-137-84-73-40-151-85-173-100s-98-63-170-106c-265-161-596-391-860-599-417-329-885-785-1138-1110-243-312-416-654-479-949-32-150-32-388 1-504 38-134 124-243 272-345 156-107 449-133 764-68 156 32 174 40 227 89l51 47 69-2c60-2 81 2 154 32 212 88 383 171 511 247 98 59 158 87 207 100 60 15 77 24 125 72 33 33 73 61 99 70 24 9 62 30 85 49 23 18 82 58 131 88 158 97 327 277 617 659 177 233 389 679 389 819 0 24-4 31-20 31-23 0-36-22-84-152-84-225-213-462-355-653-104-140-262-334-332-410-99-106-239-204-239-167 0 4 59 66 131 137 141 140 306 335 386 455 111 168 222 385 268 524 47 144 102 402 114 539 8 79 20 140 36 184 17 45 28 103 35 182 11 122 31 213 56 246 13 18 15 18 31 2 28-27 29-182 3-415-24-225-24-265 3-270 26-5 45 49 67 197 27 173 67 582 76 761 4 81 11 151 18 159 34 44 455 294 861 511 127 68 246 133 265 145s129 70 243 129c359 183 897 488 1921 1089 291 170 570 329 620 352 50 24 159 66 241 95 172 60 289 116 343 164 48 43 74 56 111 56 22 0 38 10 63 39 18 21 52 50 75 64 79 50 91 97 47 185-27 55-96 122-156 153-21 11-68 26-105 35-38 8-119 35-180 60-157 63-247 80-341 65-114-17-173-51-287-167-55-55-134-123-175-151-87-58-351-213-805-473-176-100-455-261-620-358-165-96-370-216-455-265-446-260-1347-805-1503-909-99-66-181-117-183-115-16 15 66 729 116 1022 116 678 293 1275 538 1817 73 161 189 468 217 577 34 134-18 211-146 211-20 0-58 12-85 27-27 14-67 29-89 33s-93 24-158 44c-140 43-196 46-252 12zm-6088-1393c4-21 7-173 8-338 0-268-2-314-23-429-65-369-150-600-441-1201-229-471-627-1203-645-1185-16 16-14 617 2 800 43 477 87 669 263 1145 100 272 312 676 461 877 130 177 314 368 354 368 7 0 16-17 21-37zm-10142-1467c145-38 345-170 390-256 14-27 13-30-23-65-76-74-311-222-489-308-106-51-110-52-198-52-81 0-97 4-160 33-213 100-281 325-149 497 54 72 190 141 322 165 66 12 236 4 307-14zm15065-2345c0-13-22-30-72-56-80-41-118-71-118-92 0-27 49-19 132 23 37 19 73 34 79 34 13 0 6-94-17-235-55-336-313-778-668-1144-360-370-875-722-1108-756-62-9-108 18-139 83-82 167 70 571 354 947 74 97 266 296 362 375 130 106 534 370 773 504 126 71 158 96 149 121-14 35-68 10-476-223-74-42-43-3 65 81 105 82 310 221 409 277 96 55 165 80 223 80 44 0 52-3 52-19zm-21230-3633c-1-482-70-715-194-655-57 27-80 90-84 227-5 148 12 222 83 365 53 107 167 275 186 275 5 0 9-88 9-212z"/>
  <path d="m17849 13690c-364-41-712-255-745-459-9-58 1-85 55-145 34-37 54-71 65-108 8-30 27-64 40-77 23-22 30-23 108-17 63 6 91 4 118-7 31-13 38-13 64 0 17 9 39 12 55 8 14-3 46-10 71-16 24-5 79-23 122-39 95-37 127-38 166-5 37 31 37 31 83-1 40-27 59-25 59 7 0 23 1 23 47 4 66-28 159-11 183 34 13 25 40 27 81 5 37-19 56-13 69 22 9 23 15 26 43 21 24-3 39 2 64 22 17 14 51 38 75 53 162 100 219 221 158 338-112 218-611 401-981 360z"/>
  <path d="m7970 13083c-164-86-316-207-245-195 45 8 335 200 335 222 0 16-14 12-90-27z"/>
  <path d="m34995 12776c-39-17-294-208-369-276-59-55-73-90-33-90 32 0 87 34 228 141 151 114 232 190 227 215-4 23-17 26-53 10z"/>
 </g>
 <g fill="#b91eff" stroke-width="8.1891">
  <path d="m606.92 0.066852c-7.7998 0.74798-16.81 3.9832-25.551 9.1693-14.568 8.6381-34.471 28.208-57.168 56.216-7.4561 9.2113-14.897 18.881-21.098 27.477-1.2402 1.7188-2.3011 3.1376-2.3459 3.1513-0.0598 0-0.44835-0.90213-0.8816-2.0485-4.6619-12.292-12.178-26.174-19.858-36.747-14.15-19.44-30.99-31.746-47.844-34.941-7.0078-1.3181-15.256-1.4326-23.041-0.31292-16.944 2.4637-32.17 11.447-44.393 26.202-10.938 13.195-19.305 31.346-24.146 52.391-1.6437 7.1628-2.316 12.865-2.6597 22.32-0.53786 15.272 1.3747 35.787 4.9757 53.466 0.25403 1.2173 0.46318 2.3202 0.47816 2.4492 0.0156 0.31291-0.0737 0.374 2.2712-1.3753 9.5181-7.0911 14.09-9.9417 17.691-11.031 2.0769-0.61819 3.078-0.61819 6.3653 0 1.5689 0.28998 3.8551 0.6869 5.0803 0.8884 1.2402 0.19842 2.3608 0.39684 2.5103 0.44262 0.22405 0.0762 0.23912 0 0.1194-0.25952-0.61255-1.4318-3.3172-14.125-4.2585-20.028-1.793-11.189-2.3758-23.925-1.7183-37.892 0.97123-21.002 4.9159-38.653 11.416-51.002 2.7493-5.2433 5.5435-9.0396 9.2641-12.607 6.9929-6.7194 15.256-10.931 23.907-12.192 2.4505-0.35868 7.1124-0.35868 9.4135 0 12.507 1.9195 23.041 9.7845 32.813 24.512 11.595 17.463 19.918 36.36 21.875 49.64 0.37358 2.5934 0.38857 2.5217-0.85171 3.4383-1.7034 1.2463-1.8379 1.5325-2.1516 4.155-0.14953 1.2318-0.26893 3.3093-0.26893 4.6556-0.0155 2.9651 0.14946 3.5818 1.3298 5.1288 1.046 1.3608 1.2253 1.776 1.3448 3.1086 0.0737 0.78845 0.25394 1.4043 0.67241 2.292 0.3138 0.67159 0.91146 2.1492 1.3448 3.2956 1.3896 3.6963 2.4057 5.7875 3.0631 6.3034 0.14945 0.11448 0.49306 0.54187 0.76208 0.95937 0.37358 0.54187 0.62744 0.75561 0.95628 0.83115 0.41838 0.0839 0.55276 0.25959 1.1356 1.4471 0.762 1.5188 1.3298 2.063 2.1666 2.063 0.28384 0 0.59764-0.0762 0.70222-0.17549 0.22413-0.21373 0.47816 0 1.0758 0.90213 0.50797 0.73268 0.73219 0.84564 1.0459 0.48848 0.14945-0.17549 0.14945-0.44262 0-1.3463-0.10449-0.6182-0.13446-1.2754-0.0737-1.4616 0.17934-0.5571 0.68731-0.98837 1.1655-0.98837 0.61254 0 1.1356 0.60288 1.6586 1.9058 0.44819 1.1601 0.83674 1.6188 1.2103 1.4898 0.14945-0.0762 0.22414-0.28998 0.22414-0.73268 0-0.86015 0.22405-1.4043 0.56775-1.3471 0.13446 0 0.44835 0.42748 0.70221 0.90289 0.67241 1.2891 1.2103 1.1891 1.4046-0.24412 0.0737-0.65636 0.13455-0.75561 0.44836-0.80294 0.22413-0.0762 0.50805 0.0839 0.82183 0.38923 0.83674 0.77387 1.9126 0.94562 3.0033 0.45801 1.6287-0.70213 2.9585-3.4528 3.362-6.9194 0.22413-1.8768 0.22413-10.587 0.0156-13.725-0.3885-5.5868-0.91147-8.5382-1.9574-11.317-0.55277-1.4188-1.046-3.3101-1.046-3.9832 0-0.54188 1.1655-3.5528 2.7195-6.9766 4.9458-10.96 18.14-31.804 28.659-45.27 17.437-22.32 35.966-39.068 51.49-46.532 9.3089-4.4694 18.05-5.8593 25.506-4.0542 7.0228 1.705 11.102 7.2491 12.462 16.92 0.37359 2.6499 0.37359 10.601 0 14.039-0.97123 8.9106-3.0182 18.567-6.2308 29.44-3.5114 11.818-8.248 24.569-12.043 32.305-6.7837 13.854-18.558 35.143-31.408 56.732-3.601 6.06-9.548 15.873-11.236 18.567-0.68731 1.0746-0.9563 1.705-1.3299 3.0086-1.1804 4.2122-2.3907 10.3-3.078 15.458-0.38849 3.0376-1.016 9.2548-0.94135 9.47 0.0295 0.0839 1.4643-0.75552 3.1827-1.8485 2.3309-1.4898 18.633-10.916 23.952-13.868 0.53794-0.29768 1.9275-2.4782 6.6343-10.372 20.321-34.096 34.426-65.842 41.793-94.066 3.108-11.919 4.901-22.306 5.7228-33.366 0.22414-3.1803 0.23912-12.292 0-15.042-0.67308-7.8368-1.9133-13.237-3.9902-17.334-1.7786-3.5101-3.8256-6.2898-6.56-8.8824-4.1838-3.9687-9.0549-6.3469-14.628-7.1628-1.9275-0.2748-5.8722-0.38924-7.725-0.1984z"/>
  <path d="m364.1 177.81c-0.67241 0.41216-2.3608 1.834-5.663 4.7564-2.8689 2.5354-5.1998 4.4694-8.0687 6.6904-1.4345 1.1029-2.8689 2.2347-3.1827 2.4927l-0.56783 0.48848 0.83675 2.9369c2.4804 8.7106 5.6033 17.822 9.4583 27.492 0.59764 1.4753 0.59764 1.4753 0.68731 0.93113 0.045-0.31291 0.38849-2.5644 0.76199-4.9999 1.5988-10.458 2.9884-18.136 4.2436-23.567 0.94138-4.068 1.7184-7.8932 2.1965-10.745 0.44836-2.6644 0.64252-6.3317 0.35844-6.6614-0.25403-0.28244-0.28383-0.28244-1.0609 0.18311z"/>
  <path d="m382.01 184.43c-0.0598 0.27483-0.32871 1.7623-0.62753 3.2948-0.68731 3.6963-1.2551 7.3498-1.3746 8.9824-0.0895 1.1609-0.0737 1.3326 0.13454 1.3326 0.14945 0 1.0908-1.2318 2.4057-3.1368l2.1516-3.1231-1.0758-3.2093c-0.58282-1.7623-1.1805-3.5383-1.3-3.9252l-0.22414-0.71745-0.0895 0.50371z"/>
  <path d="m573.83 203.57c-9.2491 4.7846-14.957 8.0795-15.091 8.7099-0.0295 0.16026-0.10482 1.2326-0.14937 2.3782-0.10482 2.3927-0.7023 8.152-1.1057 10.687-0.28384 1.7478-0.52296 2.4927-0.86663 2.6072-0.26893 0.0762-0.25403-0.74799 0.10449-3.7818 0.44835-3.8398 0.35852-5.9455-0.23912-6.1744-0.61255-0.21374-1.1655 1.3036-1.3896 3.8253-0.10449 1.1311-0.26893 1.9477-0.52296 2.6072-0.25394 0.64113-0.43336 1.5043-0.53794 2.5789-0.19433 2.0912-0.22414 2.1912-0.91146 4.9564-0.77698 3.0804-1.1356 3.997-2.57 6.6187-2.1666 3.9397-4.3482 6.7049-7.9641 10.114-1.1057 1.0464-2.0022 1.992-2.0022 2.1202 0 0.41977 0.68731 0.24411 1.5241-0.35869 1.7482-1.3036 3.7056-3.3666 6.4998-6.8621 2.57-3.2231 4.7814-6.9766 6.0814-10.343 0.7023-1.8195 0.83677-2.092 1.0759-2.1782 0.32871-0.12971 0.25394 0.84564-0.16444 2.1347-0.20923 0.63351-0.37351 1.1746-0.37351 1.2036 0 0.0762 0.22414-0.28244 0.49307-0.71745 0.26893-0.42739 2.8539-4.3839 5.7228-8.7969 4.632-7.0911 9.4284-14.498 13.194-20.386 0.6575-1.0319 1.1655-1.8913 1.0908-1.8768-0.0598 0-0.91147 0.42747-1.8976 0.93113z"/>
  <path d="m542.78 207.45c-1.3747 2.0912-2.4804 3.8245-2.4654 3.8535 0.0295 0 1.0608-0.51895 2.2861-1.1746 1.2402-0.65636 2.3011-1.2181 2.3758-1.2463 0.14936-0.0762 0.44835-4.284 0.35851-4.9281-0.0295-0.22897-0.74717 0.75553-2.5551 3.4956z"/>
  <path d="m389.49 209.44c-2.4057 3.7535-3.7355 6.0027-5.0504 8.5809-6.186 12.163-9.7124 22.291-11.879 34.182l-0.37358 2.0775 0.91146 1.5761c6.0515 10.286 9.7422 16.073 15.286 23.982 16.631 23.681 38.431 47.09 58.379 62.691 1.046 0.81661 1.9275 1.576 1.9724 1.6905 0.0598 0.12972-0.64252 0.97464-1.8678 2.2637-2.3459 2.4499-6.4699 6.9339-9.7572 10.558-1.3149 1.4608-4.8412 5.0426-7.8446 7.9512-5.409 5.2571-7.2768 7.1773-13.433 13.695-3.855 4.0687-4.886 5.2723-5.3642 6.2752-0.31381 0.67159-0.32871 0.80212-0.14945 0.97387 0.32871 0.31291 1.5241-0.34345 4.5274-2.4782 3.1827-2.2492 4.9907-3.4093 5.6929-3.6245 0.49315-0.16026 0.58282-0.16026 0.76208 0.0839 0.2989 0.38923 0.14945 0.94563-0.65743 2.25-0.61254 1.0166-0.6575 1.1456-0.44835 1.3463 0.53794 0.51894 1.4195-0.0839 5.6033-3.868 3.616-3.2521 5.2446-4.5557 6.3504-5.1143 0.91146-0.47325 1.6436-0.52664 1.7183-0.12971 0.0598 0.28244-0.89652 1.4753-2.7045 3.3666-1.4195 1.5043-1.539 1.934-0.37359 1.3463 0.77698-0.38923 1.1505-0.65636 4.3033-3.1658 4.1091-3.2521 6.0366-4.7129 6.201-4.7129 0.10449 0 0.14937 0.16796 0.10449 0.42739-0.0295 0.24412 0 0.42739 0.0895 0.42739 0.23912 0 2.1815-1.2753 5.8124-3.8108 4.4378-3.1086 4.8711-3.3521 6.2906-3.61 1.4643-0.25951 2.062-0.55718 3.0482-1.5188 0.71728-0.6869 0.89651-0.77387 1.6137-0.87388 1.9126-0.24412 4.647-1.4753 6.7986-3.0514 0.82181-0.61828 2.1666-1.5333 2.9735-2.063l1.4942-0.97464h2.1666c2.4356 0 3.2723-0.14511 4.0792-0.64112 0.77698-0.48848 1.0161-0.90288 1.2551-2.1202 0.26893-1.3326 0.16444-1.834-0.56775-2.6506-0.50805-0.55719-0.58274-0.71745-0.52296-1.1319 0.0598-0.32822 0.94137-1.5898 2.6896-3.8825 9.5031-12.421 18.394-24.526 24.236-33.051 6.9929-10.171 26.432-39.096 38.028-56.588 2.824-4.2542 5.2297-7.865 5.3642-8.0222 0.13463-0.16026-0.35844 0.29767-1.1057 1.0311-1.808 1.7768-2.8988 2.6507-4.393 3.5101-0.68731 0.40446-1.4643 0.91663-1.7332 1.1464-0.26893 0.21373-0.77699 0.50371-1.1207 0.61819-0.34362 0.11449-1.0609 0.60289-1.5988 1.0746-0.83674 0.73268-1.0908 0.87388-1.8677 1.0166-0.62753 0.12972-1.3747 0.45794-2.6298 1.1754-2.2263 1.2601-3.6608 1.9622-6.8136 3.2521-2.3608 0.97386-2.5551 1.0311-3.3321 0.95937-1.016-0.0993-1.4344 0.0762-2.1218 0.73268-0.80687 0.78845-2.824 1.3036-6.3653 1.605-3.2125 0.28244-5.4688 0-7.3664-0.91739l-0.98619-0.47317-1.0609 1.5905c-0.58282 0.8739-2.9735 4.4267-5.3044 7.8932-2.331 3.4673-7.2469 10.845-10.938 16.389-13.941 20.945-21.711 32.348-23.459 34.44-0.46318 0.54195-0.71729 0.42739-1.5092-0.67159-0.35852-0.47317-1.9873-2.7072-3.6458-4.9564-14.046-19.183-30.392-43.008-40.388-58.881-0.76208-1.2173-1.4344-2.2637-1.4942-2.3347-0.0598-0.0762-0.73218 0.0762-1.5091 0.2596-3.0033 0.77387-5.2596 0.61819-7.74-0.58765-4.3481-2.0775-7.1423-7.3636-7.9492-15-0.22414-2.1492-0.10466-7.0201 0.23904-10.558l0.26901-2.6507-1.0011-1.905c-2.1517-4.097-6.8733-14.212-8.3376-17.85l-0.22406-0.54188-1.2701 1.9775z"/>
  <path d="m541.01 222.87c-2.1965 0.87389-7.9193 4.5267-9.2342 5.8738-0.61254 0.64112-0.13438 0.80212 0.73219 0.22888 0.68731-0.44262 5.4986-2.9651 6.0366-3.1513 0.2989-0.0992 0.56775-0.14511 0.62753-0.0839 0.20923 0.19842-0.1194 0.50371-1.3448 1.1746-2.1666 1.2181-8.5917 5.0571-9.8618 5.9028-0.67241 0.44262-1.7183 1.2036-2.331 1.676-1.2402 0.96012-3.4367 3.0369-3.4367 3.2521 0 0.0839-1.3896 2.1202-3.093 4.5274-3.6309 5.1426-3.4964 4.8991-4.0642 6.5606-1.1356 3.2238-0.79189 5.4586 0.95627 6.089 1.8229 0.65636 8.1434-2.7361 13.956-7.507 7.2319-5.931 12.626-13.767 13.672-19.799 0.32871-1.9195 0.41838-3.3238 0.22414-3.4383-0.0895-0.0762-0.76208 0.18311-1.5092 0.51894-1.0012 0.45794-1.3747 0.57242-1.5092 0.44262-0.23904-0.22896 0.045-0.45793 1.4643-1.1891 1.0011-0.51894 1.1954-0.67158 1.1954-0.97463 0-0.3283-0.0598-0.35868-0.82181-0.38923-0.58274 0-1.0609 0.0762-1.6586 0.28245z"/>
 </g>
</svg>
