<svg width="600pt" height="179.02pt" version="1.0" viewBox="0 0 600 179.02" xmlns="http://www.w3.org/2000/svg">
 <link href="" rel="stylesheet" type="text/css"/>
 <style type="text/css"/>
 <defs>
  <clipPath id="clipPath5688">
   <path d="m755 154h74v-74h-74z"/>
  </clipPath>
  <radialGradient id="SVGID_1_" cx="96.973" cy="28.951" r="65.771" gradientTransform="matrix(-.5076 .8616 -.8616 -.5076 187.3 -61.064)" gradientUnits="userSpaceOnUse">
   <stop offset=".7"/>
   <stop stop-color="#030303" offset=".7679"/>
   <stop stop-color="#0B0B0B" offset=".8088"/>
   <stop stop-color="#191919" offset=".8425"/>
   <stop stop-color="#2E2E2E" offset=".8723"/>
   <stop stop-color="#484848" offset=".8996"/>
   <stop stop-color="#686868" offset=".925"/>
   <stop stop-color="#8F8F8F" offset=".9489"/>
   <stop stop-color="#bbb" offset=".9717"/>
   <stop stop-color="#EDEDED" offset=".9928"/>
   <stop stop-color="#fff" offset="1"/>
  </radialGradient>
  <linearGradient id="SVGID_5_" x1="-1004" x2="-1004" y1="488.58" y2="407.31" gradientTransform="matrix(.8873 -.4612 .4612 .8873 801.62 -849.8)" gradientUnits="userSpaceOnUse">
   <stop stop-color="#404040" offset=".2582"/>
   <stop stop-color="#3B3B3B" offset=".2638"/>
   <stop stop-color="#252525" offset=".2947"/>
   <stop stop-color="#141414" offset=".3311"/>
   <stop stop-color="#090909" offset=".3762"/>
   <stop stop-color="#020202" offset=".4396"/>
   <stop offset=".6154"/>
  </linearGradient>
  <mask id="SVGID_2_" x="97.2" y="1" width="59.2" height="55.5" maskUnits="userSpaceOnUse">
   <g class="st4" filter="url(#Adobe_OpacityMaskFilter)">
    <linearGradient id="SVGID_3_" x1="5.5047" x2="5.5047" y1="-891.84" y2="-945.78" gradientTransform="matrix(.8836 -.4684 .4684 .8836 552.29 843.18)" gradientUnits="userSpaceOnUse">
     <stop offset="0"/>
     <stop stop-color="#020202" offset=".2481"/>
     <stop stop-color="#0A0A0A" offset=".3852"/>
     <stop stop-color="#181818" offset=".4953"/>
     <stop stop-color="#2C2C2C" offset=".591"/>
     <stop stop-color="#454545" offset=".6774"/>
     <stop stop-color="#646464" offset=".7571"/>
     <stop stop-color="#898989" offset=".8317"/>
     <stop stop-color="#B5B5B5" offset=".9022"/>
     <stop stop-color="#E4E4E4" offset=".9671"/>
     <stop stop-color="#fff" offset="1"/>
    </linearGradient>
    <path class="st5" d="m153.6 14.5c7 13.2 0.6 30.2-14.2 38s-32.4 3.5-39.4-9.6c-7-13.2-0.6-30.2 14.1-38 14.8-7.8 32.5-3.5 39.5 9.6z" fill="url(#SVGID_3_)"/>
    <path class="st6" d="m153.6 14.5c7 13.2 0.6 30.2-14.2 38s-32.4 3.5-39.4-9.6c-7-13.2-0.6-30.2 14.1-38 14.8-7.8 32.5-3.5 39.5 9.6z" fill="url(#SVGID_3_)"/>
   </g>
  </mask>
  <filter id="Adobe_OpacityMaskFilter" x="97.2" y="1" width="59.2" height="55.5" filterUnits="userSpaceOnUse">
   <feColorMatrix values="1 0 0 0 0  0 1 0 0 0  0 0 1 0 0  0 0 0 1 0"/>
  </filter>
  <linearGradient id="SVGID_9_" x1="429.46" x2="400.55" y1="-470.27" y2="-508.51" gradientTransform="matrix(.9824 .1866 -.1866 .9824 -378.83 419.12)" gradientUnits="userSpaceOnUse">
   <stop offset=".4011"/>
   <stop stop-color="#282828" offset=".427"/>
   <stop stop-color="#545454" offset=".4606"/>
   <stop stop-color="#7D7D7D" offset=".4978"/>
   <stop stop-color="#A0A0A0" offset=".5374"/>
   <stop stop-color="#BEBEBE" offset=".5804"/>
   <stop stop-color="#D6D6D6" offset=".6277"/>
   <stop stop-color="#E8E8E8" offset=".6812"/>
   <stop stop-color="#F5F5F5" offset=".7444"/>
   <stop stop-color="#FDFDFD" offset=".8269"/>
   <stop stop-color="#fff" offset="1"/>
  </linearGradient>
  <mask id="SVGID_6_" x="100" y="1.8" width="46.1" height="39.5" maskUnits="userSpaceOnUse">
   <g class="st8" filter="url(#Adobe_OpacityMaskFilter_1_)">
    <linearGradient id="SVGID_7_" x1="5.57" x2="5.57" y1="-908.64" y2="-945.25" gradientTransform="matrix(.8836 -.4684 .4684 .8836 552.29 843.18)" gradientUnits="userSpaceOnUse">
     <stop offset="0"/>
     <stop stop-color="#020202" offset=".2481"/>
     <stop stop-color="#0A0A0A" offset=".3852"/>
     <stop stop-color="#181818" offset=".4953"/>
     <stop stop-color="#2C2C2C" offset=".591"/>
     <stop stop-color="#454545" offset=".6774"/>
     <stop stop-color="#646464" offset=".7571"/>
     <stop stop-color="#898989" offset=".8317"/>
     <stop stop-color="#B5B5B5" offset=".9022"/>
     <stop stop-color="#E4E4E4" offset=".9671"/>
     <stop stop-color="#fff" offset="1"/>
    </linearGradient>
    <path class="st9" d="m144.4 10.2c4.7 8.9-1 21.3-12.8 27.5-11.8 6.3-25.2 4.1-30-4.8-4.7-8.9 1-21.3 12.8-27.5 11.9-6.3 25.3-4.2 30 4.8z" fill="url(#SVGID_7_)"/>
    <path class="st10" d="m144.4 10.2c4.7 8.9-1 21.3-12.8 27.5-11.8 6.3-25.2 4.1-30-4.8-4.7-8.9 1-21.3 12.8-27.5 11.9-6.3 25.3-4.2 30 4.8z" fill="url(#SVGID_7_)"/>
   </g>
  </mask>
  <filter id="Adobe_OpacityMaskFilter_1_" x="100" y="1.8" width="46.1" height="39.5" filterUnits="userSpaceOnUse">
   <feColorMatrix values="1 0 0 0 0  0 1 0 0 0  0 0 1 0 0  0 0 0 1 0"/>
  </filter>
 </defs>
 <g transform="matrix(2.7124 0 0 2.7124 -261.21 0)">
  <path d="m162.3 33c0 18.2-14.8 33-33 33s-33-14.8-33-33 14.8-33 33-33c18.3 0 33 14.8 33 33z"/>
  <path class="st3" d="m113.8 60.5c-15.1-8.9-20.1-28.3-11.2-43.3s28.3-20.1 43.3-11.2c15.1 8.9 20.1 28.3 11.2 43.3-8.9 15.1-28.3 20.1-43.3 11.2z" fill="url(#SVGID_1_)"/>
  <mask x="97.2" y="1" width="59.2" height="55.5" maskUnits="userSpaceOnUse">
   <g class="st4" fill="url(#SVGID_3_)" filter="url(#Adobe_OpacityMaskFilter)">
    <path class="st5" d="m153.6 14.5c7 13.2 0.6 30.2-14.2 38s-32.4 3.5-39.4-9.6c-7-13.2-0.6-30.2 14.1-38 14.8-7.8 32.5-3.5 39.5 9.6z"/>
    <path class="st6" d="m153.6 14.5c7 13.2 0.6 30.2-14.2 38s-32.4 3.5-39.4-9.6c-7-13.2-0.6-30.2 14.1-38 14.8-7.8 32.5-3.5 39.5 9.6z"/>
   </g>
  </mask>
  <path class="st7" d="m153.6 14.5c7 13.2 0.6 30.2-14.2 38s-32.4 3.5-39.4-9.6c-7-13.2-0.6-30.2 14.1-38 14.8-7.8 32.5-3.5 39.5 9.6z" fill="url(#SVGID_5_)" mask="url(#SVGID_2_)"/>
  <mask x="100" y="1.8" width="46.1" height="39.5" maskUnits="userSpaceOnUse">
   <g class="st8" fill="url(#SVGID_7_)" filter="url(#Adobe_OpacityMaskFilter_1_)">
    <path class="st9" d="m144.4 10.2c4.7 8.9-1 21.3-12.8 27.5-11.8 6.3-25.2 4.1-30-4.8-4.7-8.9 1-21.3 12.8-27.5 11.9-6.3 25.3-4.2 30 4.8z"/>
    <path class="st10" d="m144.4 10.2c4.7 8.9-1 21.3-12.8 27.5-11.8 6.3-25.2 4.1-30-4.8-4.7-8.9 1-21.3 12.8-27.5 11.9-6.3 25.3-4.2 30 4.8z"/>
   </g>
  </mask>
  <path class="st11" d="m144.4 10.2c4.7 8.9-1 21.3-12.8 27.5-11.8 6.3-25.2 4.1-30-4.8-4.7-8.9 1-21.3 12.8-27.5 11.9-6.3 25.3-4.2 30 4.8z" fill="url(#SVGID_9_)" mask="url(#SVGID_6_)"/>
  <path class="st1" d="m132.7 14.6h-10c-8.2 0-14.9 5.7-14.9 14.2 0 7.1 4.3 12.2 10.7 13.2v9.9h13.3v-9.5h1.8c2.2-0.2 3.6-1.6 3.6-3.6v-5.5h3.6zm-2.6 16c-1.8 0-3.3-1.5-3.3-3.3s1.5-3.3 3.3-3.3 3.3 1.5 3.3 3.3-1.5 3.3-3.3 3.3zm13.8-16h-5.4l8.2 18.6h-3.7v4.9c0 3-1.2 4.3-5.3 4.2v9.5h5.3v-9.5h1.7c1.6 0 3.6-1.2 3.7-3.7v-5.5h3.6z" fill="#fff"/>
 </g>
 <g fill="#fff">
  <g transform="matrix(.041176 0 0 -.043495 325.4 155.89)">
   <path d="m1366.5 2665v-2542.5h726v1108.5h1443.5v-1108.5h708v1979.5h1189.2c344.91 0 675.61-159.49 675.61-707 0-488.67-419.34-702.81-675.61-707h-748.17v-565.5h626.5c784.18 0 1357.5 411.7 1357.5 1272.5 1.9155 842.19-575.83 1270-1357.5 1270h-1775.5l0.01-998.5h-1443.5v998.5z"/>
   <path d="m205 2665v-2542.5h335v2542.5z"/>
  </g>
  <g transform="matrix(.88616 0 0 .88616 -7.8546 -40.584)">
   <path d="m253.41 144.23h6.7822c5.7744 0 8.9207-3.5994 8.9207-8.0311 0-4.5964-3.3132-8.0443-8.9207-8.0443h-6.7822zm-10.179-16.067h-7.0259v-8.7031h23.238c12.622 0 19.842 6.5114 19.842 16.739 0 10.423-7.5616 16.767-19.506 16.767-0.9968 0.0176-6.3694 7e-3 -6.3694 7e-3v13.234h8.2357v8.7558h-25.533v-8.7558h7.1181z"/>
   <path d="m299.38 141.67h6.0796c4.58 0 7.6626-2.7056 7.6626-6.7705 0-4.0144-3.0475-6.7442-7.6626-6.7442h-6.0796zm0 24.53h6.4792c5.3419 0 8.9624-2.9428 8.9624-7.9103 0-4.1989-2.817-7.8554-8.9624-7.8554h-6.4792zm-10.168-38.043h-6.3848v-8.7031h22.301c13.806 0 18.212 8.2683 18.212 14.294 0 5.1103-2.7225 9.2148-6.6966 11.158 5.5768 2.3322 8.7121 8.0662 8.7121 13.089 0 12.085-9.4894 16.96-18.573 16.96h-24.689v-8.7558h7.1181z"/>
   <path d="m358.09 128.06c-1.8223-0.70934-4.2068-1.3396-6.589-1.3396-6.7998 0-8.9756 3.9398-8.9756 7.0121 0 4.0188 2.5952 5.1981 5.8161 6.0678l5.8908 1.6515c7.2213 2.0512 15.215 4.7304 15.215 16.152 0 10.478-6.3123 18.116-20.263 18.116-5.3946 0-11.004-0.63028-17.596-3.0657v-14.575h10.238v7.2449c2.593 1.1815 5.399 1.4187 8.2708 1.4187 6.0291 0 8.6946-3.2304 8.6946-7.4052 0-2.8352-1.403-4.8841-7.9942-6.7749l-5.3968-1.5746c-10.093-2.9186-13.529-7.3305-13.529-15.838 0-8.7426 5.4692-16.462 19.348-16.462 5.9566 0 11.916 1.1024 16.122 2.9142v13.155h-9.2522z"/>
  </g>
 </g>
 <g transform="matrix(2.1956 0 0 -2.1961 -1242.2 1013.5)">
  <g clip-path="url(#clipPath5688)"></g>
 </g>
</svg>
