<svg width="800" height="333.04" version="1.1" viewBox="0 0 800 333.04" xml:space="preserve" xmlns="http://www.w3.org/2000/svg">
<g transform="matrix(2.3128 0 0 2.3128 -515.76 -541.2)">
	<g fill="#fff">
		<path class="st0" d="m547.4 298c-7.9-4.1-14.2-7.4-14.2-13.7 0-4.5 3.8-7.2 10.3-7.2 7.6 0 14.4 2.5 19.6 5.6v-16.3c-5.4-2.3-12.9-4.3-19.6-4.3-19 0-27.5 11.3-27.5 23.6 0 14.4 9.7 21.3 20.3 26.9 10.5 5.6 14.5 8 14.5 14 0 5.1-4.4 8-11.8 8-10.3 0-17.5-4.7-22.3-8.5v17.3c4.4 3.1 13.9 6.8 22.1 6.8 18.4 0 30.1-9.6 30.1-25.1 0.1-16.2-13.6-23-21.5-27.1z"/>
		<path class="st0" d="m406.8 262.8h-22.8v86.4h17v-27.5h3.4c21.3 0 34.5-11.3 34.5-29.5 0.1-18.4-11.9-29.4-32.1-29.4zm-5.8 14.4h5c10 0 16.4 5.8 16.4 14.7 0 9.7-5.9 15.2-16.3 15.2h-5.1z"/>
		<path class="st0" d="m493.3 302.7c5.8-4 8.6-9.9 8.6-17.8 0-13.6-10-22.1-26.2-22.1h-26.4v86.4h27.5c21.1 0 30.7-13.6 30.7-26.2 0.1-9.9-5.4-17.6-14.2-20.3zm-18.9-25.3c6.7 0 11 4.1 11 10.6s-4.7 10.7-11.9 10.7h-7.2v-21.2h8.1zm-8.1 57.4v-22.6h10.8c8.6 0 13.7 4.2 13.7 11.2 0 7.5-5.1 11.3-15.3 11.3h-9.2z"/>
	</g>
		<path class="st0" d="m367 306c0 39.8-32.2 72-72 72s-72-32.2-72-72 32.2-72 72-72 72 32.2 72 72" fill="#fff"/>
				<path class="st1" d="m347.5 306.7-8 1.6v14.8c0 5-4.1 8.9-9.4 8.9h-4.1v17.2h-13.2v-17.2h4.1c5.3 0 9.4-4 9.4-8.9v-14.8l8-1.6c1.7-0.4 2.6-2.3 1.8-3.8l-21-40.1h13.1l21 40.1c0.9 1.5 0 3.5-1.7 3.8z" fill="#2638c4"/>
			<path class="st1" d="m320.5 302.9-21-40.1h-21.7c-19.7 0-36.5 16.1-36 35.9 0.3 14.7 9.8 25.7 23 29.9v20.6h32.4v-17.2h4.1c5.3 0 9.4-4 9.4-8.9v-14.8l8-1.6c1.8-0.3 2.7-2.3 1.8-3.8zm-27.2-2.3c-4.5 0-8.2-3.7-8.2-8.2s3.7-8.2 8.2-8.2 8.2 3.7 8.2 8.2-3.7 8.2-8.2 8.2z" fill="#2638c4"/>
</g>
</svg>
