<svg width="211.67mm" height="73.194mm" version="1.1" viewBox="0 0 211.67 73.194" xmlns="http://www.w3.org/2000/svg">
 <path d="m204.7 0h-197.73c-3.7178 0-6.9708 3.0207-6.9708 6.9708v59.252c0 3.7178 3.0207 6.9708 6.9708 6.9708h197.73c3.7178 0 6.9708-3.0207 6.9708-6.9708v-59.252c0-3.9501-3.0207-6.9708-6.9708-6.9708z" fill="#2e903d" stroke-width="2.3236"/>
 <path d="m35.318 16.73c-5.5767 0-10.224 4.648-10.224 10.225v29.509h8.597v-11.153c0-0.92944 0.69716-1.6266 1.6266-1.6266h28.581c5.5767 0 10.224-4.648 10.224-10.225v-6.5054c0-5.5767-4.647-10.225-10.224-10.225zm60.547 0c-6.7385 0-10.224 6.0421-10.224 10.225v19.286c0 4.8795-4.39e-4 0.0509-0.03106 10.043 9.4434 0 9.332 0.0039 9.3321 0.0039 0 0-0.0065-9.1174-0.0065-10.047v-6.274h35.551v-8.3644h-35.551v-5.3449c0.02979-0.69645 0.4648-1.3941 1.6266-1.3941h33.924v-8.133zm56.796 0c-6.7385 0-10.224 6.0421-10.224 10.225v19.286c0 4.8795 3.9503 9.991 10.921 9.991h33.926v-8.597h-33.926c-0.69708 0-1.6266-0.46464-1.6266-1.3941v-19.983c0-0.69708 0.4648-1.3941 1.6266-1.3941h33.926v-8.133zm-117.34 8.5981h29.046c0.92943 0 1.6266 0.69716 1.6266 1.6266v6.5054c0 0.92944-0.6972 1.6266-1.6266 1.6266h-29.046c-0.46472 0-1.1619 0.23252-1.6266 0.23252v-8.3644c0-0.92944 0.69716-1.6266 1.6266-1.6266z" fill="#fff" stroke-width="1.2951"/>
</svg>
