<svg width="928.64pt" height="326.57pt" version="1.1" viewBox="0 0 928.64 326.57" xmlns="http://www.w3.org/2000/svg">
 <defs>
  <clipPath id="clipPath840-5">
   <path d="m0 0h841.89v595.28h-841.89z"/>
  </clipPath>
 </defs>
 <g transform="matrix(.64832 0 0 .64832 417.86 -410.81)">
  <path d="m-644.54 633.65v503.72h496.37v-503.72z" fill="#231f20" stroke-width=".74999"/>
  <g transform="matrix(36.179 0 0 -36.179 -23531 12653)" fill="#fff">
   <g clip-path="url(#clipPath840-5)" fill="#fff">
    <path transform="matrix(.020731 0 0 -.020731 662.37 323.53)" d="m-1312.6-416.75c29.35 71.728 82.761 134.38 144.26 192.92 68.447 59.475 153.29 82.145 232.16 116.1-89.286 7.0907-172.64 25.518-236.65 89.238-44.619 39.65-69.894 102.6-55.037 151.56 18.759 54.576 103.16 96.468 170.29 116.23h281.39v-666.05h-4.3691c-19.165 27.93-34.395 57.424-44.018 88.1-28.266 66.566-25.324 144.47-29.762 219.52-70.514-108.58-163-219.94-270.98-307.62zm241.36 387.36c18.531-0.20145 37.31 9.1231 44.281 27.928 4.486 15.58 4e-4 33.957-11.914 45.293-13.41 11.336-32.753 15.581-49.106 8.4902-16.352-7.0425-25.276-22.623-26.772-38.203 0-18.426 10.42-35.454 28.268-41.098 4.8854-1.5511 10.054-2.3538 15.242-2.4102z" fill="#fff"/>
   </g>
  </g>
 </g>
 <path d="m367.14 1.3062h58.91c4.5467 0 7.6047 2.4461 7.6047 6.94v118.54h123.48v-125.48h57.27c5.7005 0 9.255 2.6811 9.255 6.94l-0.01 310.08c0.0319 4.3422-3.7428 7.205-9.245 7.205h-57.27v-141h-123.48v133.8c0 4.525-3.4504 7.205-7.6047 7.205h-58.91z" fill="#231f20"/>
 <path d="m661.87 1.3062h115.22c106.73 0 151.55 48.561 151.55 162.11 0 111.77-42.329 162.11-151.55 162.11h-124.19c-0.01-103.42 0.02-213.86-0.01-317.28 0-4.5069 3.4005-6.94 8.98-6.94zm58.54 54.74v214.49h59.46c61.156 0 81.02-52.292 81.02-107.25 0-60.281-22.306-107.24-93.02-107.24z" fill="#231f20"/>
</svg>
