<svg width="800" height="355.25" version="1.1" viewBox="0 0 800 355.25" xmlns="http://www.w3.org/2000/svg">
 <g transform="translate(0 329.61)" fill="#fff" fill-rule="evenodd">
  <path d="m753.28-203.65h10.45v38.396h31.552v9.0798h-31.552v83.737c0 14.303 7.6119 16.579 20.534 16.579 4.7733 0 10.673-1.0262 15.398-2.3013l0.34155 9.0484c-5.5315 1.5179-12.655 2.3263-18.332 2.3263-24.282 0-28.392-9.0735-28.392-31.308v-87.162z"/>
  <polygon transform="matrix(19.06 0 0 19.06 0 -329.61)" points="37.916 6.6086 37.916 14.72 38.464 14.72 38.464 6.6086"/>
  <path d="m697.54-64.798c-14.132 7.2297-31.641 10.128-50.515 10.128-34.976 0-55.683-21.174-56.344-50.219h116.28c0-35.99-19.699-63.991-61.841-63.991-49.459 0-64.904 36.52-64.904 60.826 0 38.576 27.589 62.634 67.315 62.634 19.032 0 33.982-2.848 50.357-9.5622zm-53.54-95.002c30.526 0 49.657 16.302 51.974 45.845h-105.29c4.5132-27.7 23.351-45.845 53.319-45.845z"/>
  <polygon transform="matrix(19.06 0 0 19.06 0 -329.61)" points="22.56 14.736 23.179 14.736 25.323 9.258 27.467 14.736 28.086 14.736 30.575 8.6385 29.956 8.6385 27.825 14.044 25.668 8.6385 24.977 8.6385 22.894 14.044 20.69 8.6385 20.072 8.6385"/>
  <polygon transform="matrix(19.06 0 0 19.06 0 -329.61)" points="41.697 5.2469 41.697 5.5517 40.803 5.5517 40.803 5.2469 41.085 5.2469 41.085 4.3458 40.818 4.4293 40.818 4.1052 41.434 3.8831 41.434 5.2469"/>
  <polygon transform="matrix(19.06 0 0 19.06 0 -329.61)" points="39.666 5.5517 39.666 4.2144 39.157 4.2144 39.157 3.8831 40.543 3.8831 40.543 4.2144 40.034 4.2144 40.034 5.5517"/>
  <path d="m730.67-248.42-5.483 12.899h10.939zm8.1508 19.181h-16.325l-2.3013 5.4438h-7.6385l14.27-31.804h7.7106l14.27 31.804h-7.684z"/>
  <path d="m704-247.92c-1.7781-1.8595-4.861-2.6835-7.3659-2.6835-3.1331 0-5.671 1.3128-5.671 3.4997 0 2.9044 2.7666 3.4527 6.8537 3.8099 6.2662 0.54673 12.23 2.9624 12.23 10.314 0 7.0902-6.5513 10.181-13.413 10.23-5.5002 0.0408-11.226-2.0882-13.903-6.5419l4.2344-4.4067c2.447 3.1331 6.4855 4.4882 9.7173 4.4882 3.7692 0 6.3649-1.4945 6.3649-3.7691 0.0496-2.6757-2.0961-3.9007-6.4135-4.2673-6.7237-0.63759-12.719-2.3185-12.623-9.816 0.0419-6.3148 6.0391-9.6688 12.581-9.6688 4.9127 0 8.5847 1.0856 11.865 4.8955z"/>
  <polygon transform="matrix(19.06 0 0 19.06 0 -329.61)" points="33.935 5.0325 33.935 5.5518 33.558 5.5518 33.558 3.8831 33.878 3.8831 34.719 4.9683 34.695 4.4434 34.695 3.8831 35.069 3.8831 35.069 5.5518 34.75 5.5518 33.92 4.4841"/>
  <polygon transform="matrix(19.06 0 0 19.06 0 -329.61)" points="33.084 4.5462 33.084 4.8722 32.262 4.8722 32.262 5.2088 33.168 5.2088 33.168 5.5517 31.898 5.5517 31.898 3.8831 33.135 3.8831 33.135 4.2238 32.262 4.2238 32.262 4.5462"/>
  <path d="m580.05-229.98h8.721c3.1832 0 4.6777-1.4099 4.6777-3.6375s-1.6229-3.7206-4.7748-3.7206h-8.6239zm0-13.266h8.6239c2.7838 0 4.1373-1.142 4.1373-3.0031 0-1.8595-1.3534-3.2146-4.0401-3.2146h-8.721zm8.721-12.36c6.0391 0 11.041 2.7227 11.041 8.6396 0 2.6256-1.1844 5.0913-4.2187 6.4949 4.0401 1.46 5.7101 5.5487 5.0443 9.2192-0.97281 5.1399-5.2323 7.449-11.597 7.449h-15.941v-31.803z"/>
  <polygon transform="matrix(19.06 0 0 19.06 0 -329.61)" points="29.595 4.5462 29.595 4.8722 28.773 4.8722 28.773 5.2088 29.679 5.2088 29.679 5.5517 28.408 5.5517 28.408 3.8831 29.645 3.8831 29.645 4.2238 28.773 4.2238 28.773 4.5462"/>
  <polygon transform="matrix(19.06 0 0 19.06 0 -329.61)" points="27.571 3.8831 27.571 5.5517 27.971 5.5517 27.971 3.8831"/>
  <path d="m512.75-247.92c-1.7718-1.8595-4.8563-2.6835-7.3534-2.6835-3.1488 0-5.6788 1.3128-5.6788 3.4997 0 2.9044 2.7666 3.4527 6.8537 3.8099 6.2678 0.54673 12.222 2.9624 12.222 10.314 0 7.0902-6.5435 10.181-13.397 10.23-5.5065 0.0408-11.234-2.0882-13.919-6.5419l4.2344-4.4067c2.4485 3.1331 6.5028 4.4882 9.7158 4.4882 3.7723 0 6.3665-1.4945 6.3665-3.7691 0.0476-2.6757-2.0882-3.9007-6.3978-4.2673-6.7299-0.63759-12.727-2.3185-12.631-9.816 0.0343-6.3148 6.0328-9.6688 12.581-9.6688 4.9049 0 8.5926 1.0856 11.857 4.8955z"/>
  <path d="m469.66-250.01c-6.0453 0-10.223 4.5446-10.223 10.32 0 5.9482 4.178 10.266 10.223 10.266 6.1769 0 10.216-4.366 10.216-10.266 0-5.8166-4.0386-10.32-10.216-10.32m0 26.99c-10.181 0-17.174-6.3164-17.174-16.67 0-10.371 6.9931-16.685 17.174-16.685 10.167 0 17.166 6.3148 17.166 16.685 0 10.353-6.9994 16.67-17.166 16.67"/>
  <path d="m426.83-249.51v9.2615h8.0944c3.2647 0 4.6746-2.4485 4.6746-4.4553-0.04-2.1791-1.4443-4.8062-4.7733-4.8062zm21.123 25.71h-7.8563l-8.1273-10.454h-5.1399v10.454h-7.0824v-31.804h15.078c7.6871 0 11.773 5.1399 11.773 10.728-0.0477 4.1279-1.2705 7.8093-7.3581 9.9868l8.7132 10.549z"/>
  <path d="m393.24-239.29h7.908c3.4026 0 5.0897-2.2276 5.0897-4.7733 0-2.53-1.7295-4.8046-5.0897-4.8046h-7.908zm0 6.5012v8.9936h-7.0886v-31.804h14.997c8.1226 0 12.172 5.2699 12.172 11.406 0 6.3649-4.0887 11.317-12.172 11.405z"/>
 </g>
 <path d="m309.65 186.66c-2.2182 4.449-5.6694 8.7555-10.026 12.728-4.391 4.0088-9.6688 7.6558-15.478 10.762-5.8182 3.1096-12.141 5.6396-18.595 7.4176-6.437 1.7718-12.955 2.7728-19.239 2.8464-6.2161 0.0743-11.563-0.78164-15.91-2.3718-4.308-1.576-7.6213-3.8757-9.8396-6.7158-2.1869-2.8088-3.3054-6.119-3.2318-9.8098 0.0648-3.6297 1.2909-7.6119 3.7864-11.796 2.472-4.1216 5.9576-8.0615 10.142-11.677 4.1608-3.5812 9.0328-6.8537 14.32-9.65 5.2856-2.7916 11.005-5.1336 16.864-6.8537 5.8903-1.731 11.943-2.8558 17.893-3.1754 5.9874-0.34151 11.282 0.14733 15.786 1.3394 4.5462 1.2062 8.2495 3.1159 10.956 5.6302 2.7509 2.5284 4.4647 5.6521 4.9691 9.2348 0.51538 3.6219-0.23653 7.7106-2.3984 12.091m-80.961 61.807c-2.7164 4.9096-6.6156 9.6171-11.365 13.919-4.767 4.3315-10.371 8.2072-16.414 11.455-6.0328 3.2302-12.507 5.801-19.004 7.496-6.4793 1.7076-12.963 2.5394-19.068 2.3044-6.0359-0.24597-11.105-1.4788-15.1-3.5028-3.9665-2.0052-6.8709-4.7796-8.6161-8.1007-1.7389-3.2804-2.3655-7.0824-1.789-11.242 0.56396-4.1044 2.2856-8.544 5.2715-13.147 2.9295-4.543 6.8051-8.8354 11.325-12.719 4.4882-3.8428 9.6453-7.3017 15.111-10.231 5.4829-2.8966 11.325-5.2699 17.224-6.9351 5.9231-1.6794 11.928-2.66 17.722-2.7587 5.848-0.0972 10.922 0.72694 15.133 2.2762 4.2501 1.5822 7.5884 3.9336 9.8881 6.8788 2.3263 3.0015 3.5749 6.625 3.6 10.695 0.0157 4.1388-1.2328 8.7398-3.918 13.612m-99.287-55.564c-2.2198 3.1566-5.1634 6.2161-8.591 9.0312-3.4417 2.8308-7.366 5.403-11.497 7.5884-4.1435 2.1791-8.4939 3.9822-12.783 5.2307-4.283 1.2501-8.5111 1.966-12.402 2.0397-3.8678 0.0486-7.0323-0.54673-9.473-1.6731-2.4235-1.1013-4.0965-2.7415-5.0004-4.7482-0.90547-1.9989-1.0277-4.3817-0.36031-7.015 0.66109-2.6052 2.1321-5.4861 4.4302-8.4954 2.3013-2.9953 5.2151-5.8589 8.5189-8.4766 3.3039-2.6208 6.9915-4.9942 10.861-7.026 3.8647-2.0303 7.9127-3.7362 11.928-4.9613 4.0292-1.2298 8.0443-1.9895 11.813-2.1869 3.802-0.19426 7.0072 0.20521 9.5716 1.1107 2.5692 0.92271 4.4788 2.3498 5.6537 4.2015 1.1749 1.8454 1.5979 4.12 1.2 6.7064-0.41827 2.6193-1.6809 5.5581-3.8694 8.674m-68.485-4.8548c-0.60469 2.2276-1.9269 4.7091-4.0072 7.3675-2.1055 2.6772-4.7811 5.2699-7.8077 7.6605-3.0344 2.4015-6.4135 4.579-9.921 6.415-3.5154 1.8423-7.1466 3.3602-10.689 4.4302-3.531 1.0527-6.9586 1.6622-10.084 1.7201-3.0939 0.0496-5.5816-0.44961-7.4239-1.3927-1.8282-0.93984-3.0282-2.3106-3.5498-4.0245-0.5295-1.706-0.40731-3.7206 0.39164-5.9717 0.79111-2.2277 2.2511-4.6934 4.3879-7.2704 2.1477-2.5629 4.767-5.0177 7.6871-7.261 2.9044-2.2276 6.1096-4.261 9.4244-5.9983 3.3039-1.7373 6.7315-3.166 10.084-4.2093 3.3697-1.0371 6.6579-1.6966 9.6923-1.8438 3.0595-0.16297 5.5973 0.19582 7.532 1.0042 1.9645 0.79111 3.3274 2.0318 4.0621 3.6062 0.74255 1.6073 0.83184 3.5655 0.22088 5.7681m-40.917-27.797c0.55456-1.5666 1.6151-3.3039 3.2052-5.1399 1.5838-1.836 3.542-3.6062 5.7289-5.2636 2.1775-1.6402 4.5931-3.1347 7.0981-4.4553 2.4955-1.2971 5.0913-2.3984 7.6354-3.2302 2.5472-0.81618 5.0427-1.3707 7.3424-1.5681 2.3201-0.17859 4.2125 0 5.6725 0.51539 1.4506 0.506 2.4814 1.3206 3.0172 2.4156 0.54046 1.0856 0.60625 2.4313 0.13952 3.9884-0.45743 1.5509-1.4585 3.3054-3.0015 5.19-1.5667 1.883-3.5342 3.7284-5.7776 5.4422-2.2527 1.7138-4.7482 3.3039-7.3518 4.6652-2.6114 1.3566-5.3263 2.4986-7.9706 3.3305-2.6271 0.83968-5.2135 1.3707-7.5649 1.5008-2.3232 0.14726-4.1905-0.10496-5.6036-0.68458-1.3942-0.58746-2.3248-1.4788-2.765-2.6271-0.42454-1.1264-0.36814-2.5222 0.19582-4.0793m118.1 42.214c0.45743-3.0767 1.8517-6.4385 4.2845-9.979 2.3984-3.5248 5.6051-6.8772 9.3257-9.9445 3.7127-3.061 7.9471-5.8432 12.449-8.226 4.5132-2.3733 9.3257-4.3566 14.173-5.8166 4.8532-1.4522 9.791-2.3733 14.522-2.6271 4.742-0.26944 8.8526 0.17859 12.207 1.2329 3.4104 1.0512 6.0547 2.7086 7.8578 4.861 1.8109 2.1556 2.7399 4.8234 2.6678 7.8578-0.0743 3.083-1.1687 6.52-3.4026 10.214-2.2684 3.7378-5.4751 7.344-9.3414 10.689-3.8913 3.3556-8.4296 6.3994-13.325 8.9842-4.8939 2.602-10.107 4.7247-15.362 6.2177-5.2229 1.4756-10.452 2.3248-15.373 2.3984-4.8704 0.0736-8.967-0.63603-12.197-1.9739-3.2083-1.3222-5.5722-3.2396-7.0009-5.6302-1.4193-2.3498-1.9331-5.1477-1.4851-8.2573m5.2386-55.946c1.9989-2.7493 4.6511-5.4093 7.7341-7.8813 3.0752-2.4485 6.5842-4.7075 10.33-6.6814 3.7629-1.9676 7.7356-3.6313 11.748-4.8955 4.0308-1.2564 8.096-2.1305 11.994-2.4579 3.9101-0.33368 7.2704-0.11283 10.031 0.58902 2.7712 0.70966 4.9174 1.8924 6.3477 3.484 1.4428 1.6073 2.1666 3.614 2.0538 5.9232-0.10483 2.342-1.0527 4.9848-2.9357 7.8563-1.8924 2.8809-4.554 5.7038-7.745 8.3388-3.1973 2.6443-6.9257 5.0913-10.933 7.1968-3.9978 2.1039-8.273 3.8757-12.554 5.1728-4.2673 1.2893-8.544 2.1054-12.558 2.3404-3.99 0.22089-7.3503-0.16919-10.02-1.0512-2.6428-0.88197-4.5931-2.2433-5.7759-3.99-1.1937-1.7295-1.6167-3.8349-1.2501-6.1926 0.36814-2.3498 1.5274-4.9691 3.5342-7.7513m199.31 11.92c-6.3806 1.836-12.949 3.0031-19.363 3.3211-6.3634 0.32584-11.962-0.18793-16.612-1.4115-4.5837-1.2078-8.2558-3.0846-10.867-5.4908-2.5707-2.3733-4.0872-5.2636-4.4381-8.4923-0.35871-3.2083 0.43856-6.7816 2.5049-10.566 2.0475-3.7456 5.1555-7.3769 9.0296-10.747 3.8694-3.3618 8.4954-6.462 13.612-9.1612 5.1148-2.7101 10.72-5.0114 16.562-6.78 2.4987-0.76762 5.0506-1.3723 7.6182-1.93-27.272-63.052-90.016-107.18-163.1-107.18-98.095 0-177.6 79.517-177.6 177.62 0 20.69 3.5717 40.527 10.067 58.995 3.3289-2.5582 6.9195-4.8955 10.638-6.849 3.9916-2.0898 8.1116-3.8036 12.15-4.991 4.037-1.2015 8.0208-1.8862 11.668-1.919 3.6783-0.04 6.7127 0.57179 9.0547 1.7139 2.3498 1.1577 3.9728 2.8621 4.8469 4.9926 0.86474 2.1525 0.95247 4.7482 0.19738 7.6448-0.75978 2.9279-2.3921 6.1691-4.9221 9.5952-2.5613 3.4496-5.8166 6.755-9.4965 9.7581-3.6971 3.0109-7.8234 5.7273-12.108 7.9879-2.4485 1.297-4.9456 2.389-7.4364 3.3524 30.914 52.274 87.818 87.351 152.94 87.351 98.112 0 177.64-79.526 177.64-177.63 0-7.8641-0.5655-15.587-1.5524-23.177-3.5686 1.5211-7.2406 2.9106-11.038 3.9963" fill="#f0001e" fill-rule="evenodd"/>
</svg>
