<svg width="410.44pt" height="600pt" fill-rule="evenodd" version="1.1" viewBox="0 0 410.44 600" xmlns="http://www.w3.org/2000/svg">
 <path d="m323.22 481.77c-0.66237 1.4351-1.1592 3.2015-1.3799 5.1886l-0.1656 2.4287v57.185c0 0.8832 0 1.8767 0.1656 2.9807 1.0488 9.6044 8.4453 14.241 22.19 13.91h44.048c15.014 0.3864 22.466-5.299 22.355-16.89v-57.571c-0.0552-0.0552-0.0552-0.1104 0-0.1104-0.11039-2.7599-0.60717-5.1334-1.6007-7.1205-2.8703-6.0718-9.8252-8.9972-20.754-8.7213h-46.753c-9.3836 0.27599-15.4 3.1463-18.105 8.7213zm20.699 19.926c0.38639-5.5198 3.3119-8.1693 8.8317-7.8933h27.489c5.5198 0 8.4453 2.4839 8.8317 7.3965v34.388c-0.38639 4.5814-3.0359 7.0101-7.9485 7.2861h-30.083c-4.4158-0.3864-6.7893-2.9807-7.1205-7.9485z" fill="#3aa2e9"/>
 <path d="m304.35 488.89c-0.16559-2.7599-0.66237-5.1334-1.6007-7.1205-2.7047-5.575-8.7213-8.4453-18.05-8.7213h-46.753v-36.541h-22.355v126.95h66.403c15.014 0.3864 22.466-5.299 22.355-16.89zm-30.248 4.9126c5.1886 0.0552 8.1141 2.3183 8.8317 6.7341l0.11039 36.155c-0.16559 4.1398-2.1527 6.1821-5.851 6.1821h-39.356l0.1104-49.071z" fill="#3aa2e9"/>
 <path d="m195.83 563.46v-90.414h-22.355l0.0552 69.825h-39.301c-3.8086 0-5.7406-2.0423-5.7958-6.1821v-63.643h-21.362v73.524c-0.16559 11.592 7.2309 17.277 22.355 16.89z" fill="#3aa2e9"/>
 <path d="m19.637 473.04c-9.3284 0.27599-15.345 3.1463-18.05 8.7213-0.99356 2.0975-1.4903 4.471-1.5455 7.1205v0.27599c-0.055198 0.27599-0.055198 0.55198 0 0.82797v56.578c-0.22079 11.592 7.2309 17.277 22.355 16.89h44.048v36.541h22.3v-126.96zm1.7663 27.489c0.66238-4.4158 3.6431-6.6789 8.8317-6.7341h36.21l0.1104 49.071h-39.411c-3.7535 0-5.6854-2.0423-5.7958-6.1821z" fill="#3aa2e9"/>
 <path d="m367.33 94.222c-1.4903-2.2079-3.2567-4.2502-5.1886-6.2374-4.8574-4.195-10.156-7.7828-15.787-10.874-5.6854-3.0359-11.647-5.4646-17.939-7.1757-6.0166-1.6559-12.088-3.0359-18.27-4.2502-7.2309-1.2696-14.296-3.1463-21.251-5.6854-6.6789-2.4287-13.027-5.4094-19.098-9.0524-5.4646-3.2567-10.598-6.9549-15.455-11.04-3.7534-3.2015-7.2861-6.6789-10.598-10.377-4.5262-5.1334-9.3836-9.9908-14.462-14.572-5.2438-4.747-11.095-8.6109-17.443-11.647-5.9614-2.8151-12.199-3.8639-18.712-3.0359-7.3413 0.77277-14.186 3.0359-20.589 6.7341-6.1822 3.5879-11.868 7.8381-17.001 12.806-5.299 5.023-10.322 10.212-15.124 15.566-3.4223 3.7534-7.1205 7.1757-11.095 10.267-5.1334 4.0294-10.488 7.6173-16.118 10.819-6.3478 3.5879-12.861 6.6789-19.65 9.2732-5.3542 2.0423-10.874 3.7535-16.449 5.2438-6.2926 1.6007-12.42 3.3119-18.546 5.0782-6.403 1.9319-12.53 4.5262-18.326 7.7828-6.4582 3.6431-11.812 8.5005-16.063 14.627-4.2502 6.0718-6.6237 12.806-7.1757 20.202-0.27599 4.1398-0.27599 8.2797 0.0552 12.42 0.49678 6.8446 1.4903 13.579 3.0911 20.258 1.6007 7.0101 3.4775 13.965 5.575 20.754 2.0423 6.4582 3.4223 13.027 4.2502 19.651 0.88316 7.1205 0.99356 14.241 0.27599 21.362-0.66238 6.4582-1.7111 12.916-3.1463 19.264-1.4351 6.4582-3.0911 12.861-4.9678 19.319-1.8215 6.4582-3.0359 13.027-3.5879 19.816-0.66237 7.3413-0.27599 14.683 1.1592 21.914 1.1592 5.9614 3.4223 11.426 6.7341 16.339 1.9319 2.8703 4.3054 5.3542 7.1205 7.3965 5.0782 3.6431 10.488 6.6789 16.173 9.1628 6.7341 2.8703 13.634 5.4646 20.644 7.6725 5.6302 1.8215 11.371 3.3671 17.167 4.6366 6.8445 1.6007 13.579 3.6431 20.092 6.2374 5.851 2.2631 11.426 5.023 16.78 8.2245 5.575 3.4223 10.764 7.2309 15.676 11.481 5.2438 4.5814 10.267 9.5492 14.959 14.793 4.8022 5.299 10.156 10.046 16.063 14.131 5.9062 4.1398 12.364 6.9549 19.374 8.3901 6.9549 1.5455 13.744 0.88316 20.313-1.9319 6.403-2.7599 12.364-6.1822 17.939-10.322 5.023-3.6983 9.8252-7.6725 14.351-11.812 4.9126-4.4158 9.6044-8.9421 14.186-13.634 4.5814-4.8022 9.6596-8.9972 15.069-12.751 5.575-3.8086 11.426-7.0653 17.608-9.77 5.1334-2.3183 10.322-4.3606 15.621-6.127 6.4582-2.0975 12.972-3.9742 19.54-5.575 6.2926-1.5455 12.42-3.5879 18.436-5.9614 6.6237-2.6495 12.751-6.2374 18.27-10.764 5.7958-4.6366 9.9356-10.488 12.475-17.387 2.1527-5.9062 3.0359-12.033 2.5943-18.436-0.38639-6.2374-1.1592-12.475-2.3183-18.712-1.104-6.1822-2.6495-12.199-4.5814-18.05-1.9871-6.1822-3.6431-12.364-4.9678-18.602-1.2696-6.1822-1.9871-12.364-2.1527-18.712-0.16559-6.2926 0.16559-12.585 0.99356-18.767 0.88317-7.0654 2.3183-13.965 4.2502-20.81 1.8215-6.4582 3.5327-12.971 5.1334-19.485 0.88317-3.5327 1.5455-7.1757 1.9319-10.764 0.77277-7.1757 0.60717-14.296-0.60718-21.417-1.0488-6.5133-3.4775-12.475-7.2309-17.884z" fill="#fff"/>
 <path d="m357.5 160.07c1.8767-6.7893 3.5879-13.689 5.023-20.534 1.4904-7.0101 1.8767-13.965 1.104-20.975-0.77277-7.0653-3.0911-13.468-6.9549-19.264-4.9678-5.299-10.819-9.5493-17.498-12.64-6.403-2.9255-13.082-5.1334-19.982-6.6236-6.127-1.4351-12.199-2.8151-18.215-4.3054-6.2374-1.5455-12.309-3.5327-18.215-5.9062-5.9614-2.3183-11.702-5.1334-17.111-8.5005-5.575-3.3671-10.764-7.1757-15.676-11.426-4.747-3.9742-9.1628-8.3349-13.303-12.916-3.9742-4.5262-8.2245-8.7765-12.64-12.806-5.5198-5.023-11.702-8.8869-18.602-11.536-2.8703-1.104-5.7958-1.8215-8.7213-2.1527-4.6366 0.0552-8.9972 1.0488-13.247 3.0359-6.5685 3.0359-12.53 7.0653-17.884 12.033-2.7047 2.5391-5.4094 5.2438-7.9485 8.0589-4.3606 4.8022-8.942 9.3836-13.634 13.744-5.3542 4.9126-11.205 9.218-17.498 13.027-6.2374 3.6983-12.696 7.0653-19.43 9.9356-6.5133 2.8703-13.192 5.3542-19.982 7.5069-6.1822 2.0423-12.475 3.8085-18.878 5.2437-6.6237 1.5455-12.861 4.1398-18.712 7.7277-4.747 2.9807-7.6725 7.1205-8.8317 12.42-0.38638 1.8215-0.27599 3.5879 0.16559 5.3542 2.0423 7.0101 5.7958 12.861 11.371 17.553 5.2438 4.4158 10.819 8.2797 16.67 11.702 5.7958 3.3671 11.647 6.5134 17.608 9.4388 6.0166 2.9254 12.088 5.6302 18.16 8.2245 5.299 2.2631 10.653 4.4158 16.063 6.403 5.5198 2.0975 11.095 4.1398 16.67 6.0166 5.6854 1.9319 11.426 3.7534 17.277 5.4645 5.9062 1.7664 11.923 3.4223 17.884 4.9127 5.6302 1.4351 10.653 4.0294 15.014 7.9485 5.3542 4.6918 9.5492 10.212 12.696 16.67 3.0911 6.403 4.6918 13.192 4.8022 20.368 0.0552 6.6237-0.33119 13.192-1.2144 19.65-0.88317 6.6789-2.0975 13.247-3.5327 19.761-1.2696 5.575-2.2079 11.205-2.7599 16.891-0.77277 6.9549-1.0488 13.91-0.82797 20.92 0.16559 7.2861 1.5455 14.407 4.0294 21.306 2.6495 7.1757 7.2309 12.64 13.855 16.283 6.403 3.5879 13.137 4.4158 20.313 2.5943 6.7893-1.7111 13.027-4.6366 18.657-8.8317 3.2567-2.4287 6.403-5.023 9.3836-7.7829 5.1334-4.6366 10.267-9.1076 15.511-13.468 2.3183-1.8767 4.747-3.6982 7.2309-5.4094 6.1822-4.0294 12.972-6.6237 20.313-7.6725 1.7663-0.27599 3.5327-0.44158 5.299-0.49678 7.0653-0.1104 14.131-0.1104 21.251 0 4.0846 0.0552 8.0589-0.60718 11.868-1.9319 7.0101-2.3735 11.481-7.2309 13.468-14.462 1.8767-7.1205 2.2079-14.296 1.104-21.527-1.1592-7.2861-2.4287-14.517-3.6983-21.638-1.1592-6.3478-2.0975-12.751-2.8151-19.154-0.71757-6.2374-1.0488-12.42-0.99356-18.712 0.0552-7.2309 0.71757-14.407 1.9319-21.472 1.0488-6.127 2.4287-12.088 4.0846-18.05z" fill="#3aa2e9"/>
</svg>
