<svg width="800" height="305.12" enable-background="new 0 0 1684.5 642.5" version="1.1" viewBox="0 0 800 305.12" xml:space="preserve" xmlns="http://www.w3.org/2000/svg">
<g transform="scale(.47489)" fill="#4144c5">
		<path d="m537.2 244.9c-18.7 0-34-15.3-34-34s15.4-34 34-34c18.7 0 34 15.3 34 34s-15.3 34-34 34m30.3 202.9h-60.7v-171.2h60.7zm-95.7 0h-60.7v-19h-0.7c-10.7 17-31.7 24.7-51.7 24.7-50.7 0-86.4-42.4-86.4-91.4 0-49.1 35-91.1 85.8-91.1 19.7 0 40.4 7.3 53.1 22.4v-16.7h60.7v171.1zm-270.4 0-61.7-96.8h-0.7v96.8h-65.4v-251.6h97.8c49.7 0 87.4 23.7 87.4 77.4 0 34.7-19.3 64.7-55.1 71.1l79.1 103.1zm-201.4 194.7h642.5v-642.5h-642.5z"/>
		<path d="m145.4 246.3h-6.4v62.7h6.3c21.4 0 45.4-4 45.4-31.4 0-27.3-24-31.3-45.3-31.3"/>
		<path d="m374.1 323.7c-24.7 0-39 17.7-39 38.7 0 21.7 14.3 38.4 39 38.4s39-16.7 39-38.4c0-21-14.3-38.7-39-38.7"/>
	<polygon points="724.2 397.7 749.3 397.7 749.3 248 724.2 248 724.2 195.6 835 195.6 835 248 811.7 248 811.7 397.7 835 397.7 835 450.5 724.2 450.5"/>
	<polygon points="875.5 253.7 875.5 195.7 932.2 195.7 932.2 253.7 965.6 253.7 965.6 305.3 932.2 305.3 932.2 398.5 959.8 398.5 959.8 450.4 875.5 450.4 875.5 305.3 850.8 305.3 850.8 253.7"/>
	<path d="m1077.2 401c27.2 0 47.3-20.4 47.3-49.1 0-28.6-20.1-49.1-47.3-49.1s-47.3 20.4-47.3 49.1c0 28.6 20.1 49.1 47.3 49.1m-10.4 52.3c-55.2 0-96.4-42.3-96.4-101.4s41.2-101.4 96.4-101.4c26.5 0 45.5 8.2 60.2 27.6v-24.4h75.2v51.6h-21.5v93.2h21.5v51.9h-78.1v-21.9c-13.2 16.9-31.8 24.8-57.3 24.8"/>
	<polygon points="1303.1 195.6 1303.1 398.5 1327.8 398.5 1327.8 450.4 1222.8 450.4 1222.8 398.5 1247.5 398.5 1247.5 247.2 1223.5 247.2 1223.5 195.6"/>
	<path d="m1369.4 195.6h55.5v47.3h-55.5zm0 109.7h-24v-51.6h79.5v144.8h24.7v51.9h-101.3v-51.9h21v-93.2z"/>
	<path d="m1559.5 401c27.2 0 47.3-20.4 47.3-49.1 0-28.6-20.1-49.1-47.3-49.1s-47.3 20.4-47.3 49.1c0 28.6 20 49.1 47.3 49.1m-10.4 52.3c-55.2 0-96.4-42.3-96.4-101.4s41.2-101.4 96.4-101.4c26.5 0 45.5 8.2 60.2 27.6v-24.4h75.3v51.6h-21.6v93.2h21.5v51.9h-78.1v-21.9c-13.3 16.9-31.9 24.8-57.3 24.8"/>
</g>
</svg>
