<svg width="715pt" height="237pt" version="1.1" viewBox="0 0 715 237" xmlns="http://www.w3.org/2000/svg">
 <path d="m715 0v237h-715v-237z" fill="#bf1e2d"/>
 <path d="m146.02 19.265c15.66 0.32 32.45 2.475 44.91 12.855 9.53 7.46 15.44 18.97 15.94 31.08l8.99-43.935h150.3l18.69 156.9 82.87-156.9h104.27l61.01 148.12 30.36-148.12h34.95l-41.17 198.48h-38.13l-61.31-147.66-30.06 147.66h-34.99l30.3-147.04c-3.06 8.44-8.72 16.13-16.52 20.74-6.81 4.41-14.98 5.95-22.95 6.41 1.09-5.44 2.27-10.87 3.34-16.32 5.43-0.85 11.19-2.5 14.86-6.88 4-5.11 6.16-11.39 7.57-17.66h-20.8l2.55-12.15-94.91 172.9h-39.66l-21.93-168.26h-90.36l-10.77 51.745h102.12l-5.85 28.53h-102.42l-11.91 57.74h111l-6.14 30.24h-173.08c-2.61-6.99-2.11-14.505-2.06-21.815 0.51-14.03 4.46-27.92 2.87-42.02-0.59-5.91-4.17-11.48-9.55-14.12-7.5-3.83-16.15-3.41-24.32-3.79h-44.06l-16.99 81.745h-35.52l41.1-198.48zm-70.37 90.225h53.35c10.93-0.33 22.42-2.39 31.29-9.21 6.94-5.25 10.96-13.71 11.63-22.29 0.92-7.88-0.35-16.82-6.48-22.44-7.09-6.56-17.27-7.4-26.45-7.79h-50.64zm85.99 14.47c7.56 2.74 14.89 7.82 17.81 15.62 6.6 15.96 2.82 33.5 1 50l18.17-86.97c-8.58 12.03-22.66 18.98-36.98 21.35z" fill="#fff"/>
</svg>
