<svg width="800" height="432.28" version="1.1" viewBox="0 0 800 432.28" xmlns="http://www.w3.org/2000/svg">
 <g transform="matrix(6.8269 0 0 6.8269 -3.9058 -.12206)" fill="none" fill-rule="evenodd">
  <g transform="translate(-864,-741)" fill="#005baa">
   <g transform="translate(864,741)">
    <path d="m4.6425 0.92374 1.6031-0.13111-0.89394 1.9786c0.00633 0.30854-0.04417 0.6156-0.14899 0.90586v0.33374l1.2515 0.38141 0.32778 0.72707c-0.42168 0.3424-0.51218 0.95008-0.20859 1.4005 0.15342 0.17645 0.20819 0.41805 0.14586 0.6434-0.062333 0.22536-0.23347 0.40447-0.45576 0.477-0.099015 0.19664-0.29838 0.32268-0.51848 0.32778-0.30015 0.1727-0.54744 0.4241-0.71515 0.72707-0.13111 0.035758-0.19667 0.10131-0.19667 0.19667-0.19667 0-0.26222 0.10131-0.19667 0.31586 0.065555 0.21455 0.21455 0.42313 0.053636 0.59596 1.0548 1.7342 1.5972 3.6234 2.1216 6.1861 0.52444 2.5626 1.0012 4.9226 1.5555 7.2111h3.2003c0.22178-0.2756 0.42107-0.56856 0.59596-0.87606l-3.0573-2.9023 3.9155 2.1753 0.89394-0.5304-0.51848-3.6294 1.5793 3.4327c0.48417 0.08207 0.96208 0.19756 1.4303 0.34566l1.9488-2.8546-0.91182 3.2361 0.91182 0.92374 3.3791-1.6508-3.0573 2.3242 0.39333 0.90586h4.2254l-3.9035 0.92374v1.6329c-0.20859 0.14899-0.32778 0.2801-0.32778 0.38141 0.25954 0.92822 0.37018 1.8918 0.32778 2.8546v1.6508l1.1025 1.7879c0 0.09535 0.04768 0.13111 0.16091 0.09535s0.16091 0 0.16091 0.10131c0.09535 0 0.14899 0 0.16091 0.06556s0.08343 0.08344 0.17879 0.08344l1.0906 0.59596c0.44953 1.455 1.1058 2.8379 1.9488 4.1062 0.44101 1.323 0.86414 2.0441 1.2336 2.1753 0.41717 0 0.19667 0.5304 0.48273 0.5304 0.43871-0.75315 0.79249-1.5527 1.0548-2.3838h0.37545c-0.01043-0.18842 0.04197-0.37497 0.14899-0.5304l3.093 2.1633-0.38737 0.52444-0.84626 1.9786c0.35058 0.78042 0.48044 1.642 0.37546 2.4911-0.09535 0.92374-0.22646 1.7879-0.37546 2.5924-0.29652 0.45962-0.43271 1.0044-0.38737 1.5495 0.02944 0.58047-0.08307 1.1594-0.32778 1.6866 0 1.8654-0.48869 3.1347-1.4303 3.7784-0.35505 0.15055-0.6519 0.41186-0.84626 0.74495-0.0544 0.13983-0.16261 0.25199-0.3004 0.31136s-0.29364 0.06099-0.43263 0.0045c-0.33448-0.08227-0.65008-0.22794-0.9297-0.42909-0.25924-0.206-0.55712-0.35798-0.87606-0.44697-0.05752 1.2217 0.01239 2.446 0.20859 3.6532h-17.575c-0.11001-0.27405-0.23741-0.54079-0.38141-0.7986-0.3765-0.83231-0.52854-1.7487-0.44101-2.658 0.095354-0.90586 0.24434-1.7879 0.44101-2.7533-0.19667-1.7879-0.37545-3.6294-0.51848-5.5603-0.17192-1.9079 0.46607-3.8003 1.7581-5.2146 0.019987-0.13577 0.090163-0.25911 0.19667-0.34566-0.30845-0.5039-0.48284-1.0783-0.50657-1.6687-0.047677-0.66152-0.11323-1.3052-0.20859-1.9607-0.16041-0.58167-0.2268-1.1852-0.19667-1.7879-0.69871-0.39152-1.0518-1.2-0.86414-1.9786-0.47081-0.47677-0.82838-0.72707-1.0906-0.72707-0.18343-1.0577-0.11606-2.1436 0.19667-3.1705 0.3099-1.3052 0.59596-2.3838 0.89394-3.3135-0.47081-1.6031-0.94162-3.248-1.4005-4.9167-0.45497-1.6191-0.59258-3.3109-0.40525-4.9822 0-0.16687-0.047677-0.23242-0.16091-0.19667-0.11323 0.03576-0.17879 0.10131-0.17879 0.19667-0.30583-0.15939-0.55082-0.41484-0.69727-0.72707l-0.19667-1.0727c0-0.2503-0.11323-0.38141-0.3397-0.38141 0.00215-0.41476 0.1022-0.82314 0.29202-1.1919 0.19276-0.42956 0.13562-0.93008-0.14899-1.3052-0.063872-0.037319-0.11879-0.088173-0.16091-0.14899-0.050172-0.068315-0.10388-0.13396-0.16091-0.19667 4.688e-4 -0.10141-0.033108-0.20004-0.095353-0.2801-0.073686-0.13687-0.10677-0.29194-0.095354-0.44697-0.095354 0-0.14899-0.17879-0.14899-0.5304l0.3397-1.2515 0.32778-0.39333c-0.01277-0.40057-0.28238-0.7472-0.66747-0.85818v-0.39333c-0.16042-0.1494-0.37812-0.22125-0.59596-0.19667-0.31485-0.11222-0.56085-0.36261-0.66747-0.67939 0.44101-0.79461 0.49067-1.4541 0.14899-1.9786 0.13111-0.21455 0.17879-0.2801 0.17879-0.17879v-0.54232c0.13111-0.2503 0.55424-0.38141 1.2515-0.38141 0.089779-0.50126 0.1178-1.0116 0.083434-1.5197-0.065572-0.54401 0.28049-1.0529 0.8105-1.1919 0.45078-0.45793 0.98746-0.82246 1.5793-1.0727v0.92374zm75.204 4.2254 21.556 21.681-0.11323 0.29798 8.2123 10.692v-10.638l-29.655-22.051zm1.1442-0.56616 36.765 22.122v31.973h-8.3434l-7.7832-13.344v13.349h-8.3434l-7.372-24.279h-4.9524v24.291h-8.0633v-24.291h-3.4864l-5.4411 23.975-0.45293 0.12515-6.2218 4.8332c-2.3321-2.7659-4.4254-5.7245-6.2576-8.844-0.50855-0.85421-1.0072-1.7342-1.4959-2.6401l-3.8201 6.9846-0.49465-0.14303h-7.813v-22.944l-0.16687-0.50061 1.2575-1.0727h-2.4971l1.7879-6.9906-0.10131-0.38141 34.405-22.199 0.13707-0.041717h1.5495c0.47161-0.05576 0.9339 0.16151 1.1919 0.5602l0.16687-0.39333 0.24434-0.17283h2.3362l0.19667 0.17283 0.20263 0.37545 0.25626-0.54828zm-41.64 29.583-1.1919 1.0131h7.2111l0.94162-1.0131zm7.7117 0-1.3052 1.4303v7.4972l6.2397-8.4149c-0.49727-0.35929-1.1041-0.53419-1.7164-0.49465zm5.2921 0.91778-5.5067 7.4197c2.205-1.3111 5.7629-2.9083 5.7629-6.4006 0.01043-0.35686-0.07827-0.70962-0.25626-1.0191zm-6.5913 8.9394v13.624l3.4804-6.3589c-1.1919-2.2726-2.3461-4.7001-3.4625-7.2826zm9.7022 0.8105-0.15495 0.30394 0.18475 0.35758 0.50061 0.96545 0.2503 0.47081 0.25626 0.47081 0.25626 0.46485 0.25626 0.45889 0.25626 0.45293 0.25626 0.44697 0.26222 0.44697 0.26222 0.44101 0.26222 0.43505 0.26222 0.42313 0.26818 0.42313 0.26818 0.41717 0.26818 0.41121 0.26818 0.40525 0.26818 0.39929 0.27414 0.39929 0.27414 0.39333 0.27414 0.38737 0.2801 0.38141 0.5602 0.75091 0.2801 0.36354 0.57212 0.71515 0.28606 0.35162 0.29202 0.34566 0.29202 0.3397 0.2503 0.28606 5.31-23.338h-4.3565l1.7521-7.08h-0.3099l-5.0239 11.705c-0.82838 1.9249-3.7128 4.6544-5.4471 5.7808zm33.886-10.429h-2.8785l6.782 22.48v-25.591l-14.041-23.648 8.5937 19.267-0.21455 0.3397 1.7342 7.1515zm12.241 4.4399v5.4292l7.9144 13.433v-7.8071l-7.9144-11.061zm-8.3434-8.5699v-3.1407l-0.077475-0.11323-13.922-20.346 14.005 23.594zm5.5067-3.5102-19.47-20.966 14.369 20.984zm-12.861-14.661 13.618 14.655h1.0548l-14.577-14.661zm-4.9226-6.7939 28.886 21.455h6.8714zm-34.995 21.455 25.376-21.008-32.575 21.008zm26.961-21.609-26.103 21.609h5.5126l20.626-21.615zm-12.616 25.12 12.372-22.688-14.1 20.96c0.67313 0.47212 1.2598 1.0568 1.7342 1.7283zm-2.1872-2.0263 10.882-16.145-11.818 15.65c0.32 0.13894 0.62883 0.30232 0.92374 0.48869zm-1.4422-0.70323 16.139-21.455-19.756 20.704c1.2371 0.07494 2.4571 0.32578 3.6234 0.74495zm17.789-22.104-13.826 25.346v0.03576c0.81882 1.5636 1.1588 3.3338 0.97737 5.0895l12.849-29.846c0.08365-0.18985 0.08365-0.40611 0-0.59596zm1.0489-0.29202-9.1599 21.609h20.787l-9.6367-21.609z"/>
   </g>
  </g>
 </g>
</svg>
