<svg width="800" height="254.46" version="1.1" viewBox="0 0 800 254.46" xml:space="preserve" xmlns="http://www.w3.org/2000/svg">
<style type="text/css">
	.st0{fill:#1F2B7B;}
	.st1{fill:#C51F30;}
	.st2{fill-rule:evenodd;clip-rule:evenodd;}
	.st3{fill-rule:evenodd;clip-rule:evenodd;fill:#FFCF01;}
	.st4{fill-rule:evenodd;clip-rule:evenodd;fill:#FFFFFF;}
</style>
<g fill="#48a3f1"><path class="st1" d="m396.38 223.65c-19.033 0-32.356-3.8066-39.732-11.182-7.3753-7.3753-11.658-16.892-12.609-28.193l-0.11896-1.1896 34.735-2.1412 0.11895 1.0706c0.71374 4.9962 2.0223 8.9217 4.0445 11.42 3.3308 4.1635 7.8511 6.1857 14.037 6.1857 4.5204 0 8.089-1.0706 10.468-3.0929 2.3791-2.0223 3.5687-4.4014 3.5687-7.0184 0-2.4981-1.0706-4.7583-3.3308-6.7805-2.3791-2.1412-7.9701-4.1635-16.892-6.0668-15.107-3.3308-25.933-7.9701-32.475-13.68-6.6616-5.7099-9.9924-13.204-9.9924-22.126 0-5.8289 1.6654-11.539 5.1151-16.654 3.4498-5.2341 8.5649-9.3976 15.345-12.371 6.6616-2.9739 15.94-4.4014 27.598-4.4014 14.275 0 25.338 2.736 32.951 8.089 7.6132 5.472 12.253 14.156 13.68 25.814l0.11896 1.3085-34.378 2.0223-0.23792-1.0706c-0.83269-4.6393-2.4981-8.089-4.9962-10.111s-6.0668-3.0929-10.587-3.0929c-3.6876 0-6.4236 0.71374-8.208 2.2602-1.7844 1.4275-2.617 3.2118-2.617 5.2341 0 1.4275 0.71374 2.617 2.0223 3.8066 1.0706 0.95165 3.6877 2.2602 10.944 3.8066 14.87 3.2118 25.814 6.5426 32.237 9.8734 6.6616 3.3308 11.539 7.6132 14.513 12.609 2.9739 4.9962 4.5204 10.706 4.5204 16.892 0 7.2564-2.0223 14.037-6.0668 20.223-4.0445 6.1857-9.7544 10.825-16.892 14.037-6.8995 2.9739-16.059 4.5204-26.884 4.5204z"/><path class="st1" d="m521.17 221.75h-59.954v-112.53h64.95c10.825 0 19.39 2.736 25.219 8.208 5.9478 5.472 8.9217 12.371 8.9217 20.461 0 6.7805-2.1412 12.728-6.4236 17.487-2.2602 2.4981-5.2341 4.6393-9.0407 6.4237 6.4236 2.0223 11.301 5.1151 14.632 9.2786 3.9256 4.8772 5.8289 10.944 5.8289 18.2 0 5.9478-1.4275 11.301-4.1635 16.059s-6.5426 8.5649-11.301 11.301c-2.9739 1.6654-7.4943 2.9739-13.323 3.8066-7.7322 0.83269-12.728 1.3085-15.345 1.3085zm-23.197-26.051h16.178c5.591 0 9.3976-0.95166 11.658-2.855 2.1412-1.9033 3.2118-4.2824 3.2118-7.4943 0-2.855-1.0706-5.2341-3.0929-6.8995-2.1412-1.7844-6.0668-2.736-11.777-2.736h-16.059v19.985zm0-43.3h13.561c4.9962 0 8.4459-0.8327 10.349-2.4981 1.7844-1.6654 2.736-3.9256 2.736-7.0184 0-2.855-0.8327-4.9962-2.736-6.6616-1.9033-1.5464-5.2341-2.3791-10.111-2.3791h-13.799z"/><path class="st1" d="m644.29 221.75h-36.401v-83.032h-34.735v-29.62h105.87v29.62h-34.735z"/><path class="st1" d="m800 221.75h-33.903l-39.494-57.813v57.813h-34.378v-112.53h33.665l39.613 58.289v-58.289h34.497z"/></g><path class="st2" d="m132.53 140.26c-11.42-20.936-10.111-41.516-0.47583-62.452-2.3791-2.1412-4.7583-4.4014-7.2564-6.5426 3.5687-2.855 7.7322-3.9256 12.015-4.5204 2.1412-0.23791 3.5687-1.0706 4.9962-2.736 9.5165-11.301 21.293-19.866 34.022-27.003 17.13-9.6355 35.33-16.178 54.839-19.033 25.219-3.6877 49.962-2.2602 73.634 7.8511 6.0668 2.617 11.658 6.1857 17.487 9.1597 0.71374 0.35687 1.9033 0.59478 2.617 0.23791l75.3-33.546c2.3791-1.0706 4.6393-1.7843 7.2564-1.6654 2.855 0.11896 5.591-0.11896 8.4459 0.11896 1.5464 0.11896 3.0929 0.59478 4.5204 1.3085 0.47583 0.23791 0.95166 1.3085 0.95166 2.0223 0.35687 3.3308-1.3085 6.0668-3.2118 8.5649-0.95166 1.3085-2.0223 2.4981-3.3308 4.1635h4.4014c3.3308 0.11896 5.2341 3.2118 4.5204 6.4237-0.8327 3.9256-4.1635 5.7099-6.5426 8.327-1.9033 2.1412-4.5204 3.8066-7.0184 5.353-3.4497 2.2602-7.1374 4.4014-10.587 6.5426-2.1412 1.3085-4.4014 2.736-6.5426 4.1635-3.8066 2.4981-7.3753 5.591-11.539 7.1374-4.0445 1.5464-6.7805 4.9962-10.944 6.0668-1.9033 0.47583-3.3308 2.2602-5.1151 3.3308-3.2118 1.9033-6.4237 3.8066-9.6355 5.7099-1.4275 0.8327-2.9739 1.5464-4.1635 2.736-0.71374 0.71374-1.0706 2.0223-0.95166 2.9739 1.0706 7.8511 0.95166 15.702-0.71374 23.434-0.11895 0.59478-0.95165 1.4275-1.4275 1.4275-9.5165 0.11896-19.033 0.11896-28.431 0.11896-0.23791 0-0.35687-0.11896-0.59478-0.23791 0-2.736 1.9033-5.2341 1.1896-8.208-4.1635 2.9739-7.7322 6.0668-9.8734 10.468-0.8327 1.6654-2.3791 2.9739-3.5687 4.4014-0.23791 0.35687-0.59478 0.59479-0.8327 0.8327-1.4275 2.617-1.4275 2.617 1.0706 4.4014 9.3976 6.8995 17.368 14.989 22.245 25.814 3.9256 8.8028 5.2341 17.962 4.7583 27.479-1.1896 22.245-11.777 39.494-28.312 53.412-21.412 17.962-46.274 28.669-73.634 33.665-13.323 2.4981-26.646 3.0929-40.088 1.9033-22.126-1.7844-42.586-8.208-60.668-21.65-12.728-9.3976-20.579-22.007-23.315-37.709-0.83269-4.5204-0.83269-4.5204-5.353-4.5204h-66.973c-2.9739 0-6.0668 0-8.9217-0.47583-3.4497-0.59478-6.1857-2.4981-8.327-5.2341-1.0706-1.4275-2.3791-2.2602-4.1635-2.1412-1.5464 0.11895-3.0929-0.23792-4.6393 0-2.4981 0.23791-3.9256-0.71374-5.2341-2.855-3.5687-5.9478-5.353-12.371-3.9256-19.033 1.6654-7.7322 5.591-14.751 12.253-19.628 0.59478-0.47583 1.6654-0.35687 2.4981-0.35687h117.29zm120.62-14.751c0.11895 0.11896 0.35687 0.35687 0.47582 0.47583-1.9033 2.2602-3.6876 4.6393-5.8289 6.7805-15.702 15.464-35.33 19.39-56.385 19.152-6.5426-0.11895-13.085-0.95165-19.509-1.4275-9.7544-0.59478-19.628-1.1896-29.382-1.6654-10.349-0.59478-20.698-1.3085-31.048-1.9033-9.6355-0.59479-19.39-1.0706-29.025-1.6654-9.9924-0.59478-19.985-1.3085-29.977-1.9033-10.349-0.59478-20.817-1.3085-31.167-1.9033-2.2602-0.11895-4.6393 0-7.0184 0-2.3791 13.204-4.6393 26.408-7.0184 39.613h11.539c21.888-0.11896 43.895-0.11896 65.783-0.23792 13.323 0 26.646-0.11895 39.85-0.23791 7.7322 0 15.464 0 23.315-0.11896 13.323 0 26.646-0.11895 39.969-0.11895 3.3308 0 6.6616 0.71374 8.4459 3.9256 1.7844 3.0929 0.11896 5.9478-1.5464 8.5649-3.2118 5.1151-5.9478 10.587-7.0184 16.654-0.8327 4.9962-0.59478 9.8734 3.3308 13.561 4.5204 4.2824 10.23 6.0668 16.178 5.353 4.6393-0.59478 9.2786-2.3791 13.68-4.1635 7.4943-3.2118 13.323-8.327 16.059-16.416 2.4981-7.2564 1.5464-14.513-0.8327-21.65-2.4981-7.3753-4.7583-14.87-7.1374-22.364l2.1412-1.0706c9.0407-4.5204 17.606-9.8734 25.219-16.654 15.107-13.561 24.505-29.858 25.338-50.557 0.11896-2.9739-0.11895-5.8289-2.3791-8.208-0.71374-0.8327-1.3085-1.7843-2.0223-2.855 18.795-11.539 37.352-22.959 55.91-34.497-0.11895-0.11896-0.11895-0.23791-0.23791-0.35687-20.342 7.3753-40.683 14.751-61.025 22.126-0.11895-0.35687-0.23791-0.59478-0.35687-0.95165 22.364-8.089 44.609-16.178 66.973-24.267 0.11896 0.23791 0.23791 0.35687 0.35687 0.59478-0.35687 0.35687-0.71374 0.71374-1.0706 0.95165-17.843 13.68-35.806 27.36-53.649 41.04-1.5464 1.1896-1.6654 2.1412-1.4275 3.8066 1.4275 6.8995 1.5464 13.918 0.47583 20.936-1.9033 12.015-7.3753 22.245-15.583 31.048-0.8327 0.95166-1.7844 1.9033-2.617 2.736-0.8327 0.83269-1.6654 1.6654-2.4981 2.4981 7.3753-5.591 13.442-12.134 17.368-20.698 3.6877-7.9701 7.2564-16.059 11.182-23.91 6.3047-12.728 14.513-23.672 27.479-30.81 16.535-9.1597 32.713-19.152 48.891-29.144 13.68-8.327 27.241-16.892 40.683-25.695 4.2824-2.736 7.9701-6.5426 10.706-10.944 0.95165-1.5464 1.4275-3.4497 2.0223-5.1151-0.23791-0.11896-0.35687-0.23791-0.59478-0.35687-1.6654 0.59478-3.3308 1.1896-4.9962 1.9033-42.705 17.962-85.411 35.806-128 53.768-1.9033 0.8327-3.6876 2.0223-5.472 3.2118-5.8289 3.8066-11.777 4.9962-18.2 1.5464-3.2118-1.6654-6.4236-1.4275-9.8734-0.47583-3.8066 0.95165-7.7322 1.0706-11.658 1.4275-0.71374 0-2.0223-0.71374-2.2602-1.3085-0.59478-1.9033-0.71374-3.9256-1.0706-6.4237-1.4275 2.1412-3.0929 4.0445-4.2824 6.3047-1.3085 2.3791-1.0706 4.9962 0.35687 7.4943 1.9033 3.2118 2.0223 6.7805 1.0706 10.23-1.4275 5.472-5.353 8.6838-10.349 10.706-8.208 3.2118-16.773 3.9256-25.338 2.1412-2.736-0.59478-5.7099-1.1896-8.089-2.736-9.8734-6.5426-20.104-12.134-31.286-16.059-9.5165-3.3308-19.271-5.472-29.382-4.9962-1.5464 0.11896-2.9739 0.59478-4.6393 0.95165 0.35687 0.47583 0.35687 0.71374 0.47582 0.71374 7.8511 6.8995 14.989 14.513 21.412 22.721 0.35687 0.47583 1.3085 0.71374 1.7844 0.59478 4.8772-0.8327 9.7544-1.6654 14.632-2.4981 0.71374-0.11896 1.9033-0.11896 2.3791 0.35687 1.1896 1.0706 2.0223 2.4981 3.2118 3.9256-5.472 2.0223-10.706 3.9256-15.94 5.8289 0.47583 1.5464 1.1896 1.6654 2.4981 1.1896 4.4014-1.7844 8.8028-3.3308 13.323-4.9962 0.59478-0.23791 1.6654-0.35687 1.9033 0 2.855 2.855 5.591 5.8289 8.5649 9.0407-6.4237 2.617-12.49 5.1151-18.557 7.6132 0.23792 1.7844 1.0706 1.7844 2.2602 1.3085 5.472-2.2602 11.063-4.4014 16.535-6.5426 0.59479-0.23792 1.5464-0.35687 1.9033 0 1.6654 1.5464 3.2118 3.3308 4.9962 5.1151-7.4943 2.736-14.751 5.472-22.126 8.208 0.47583 0.95165 0.71374 1.5464 1.0706 2.3791 7.1374-2.617 14.156-5.2341 21.174-7.8511 0.71374-0.23791 1.7844-0.35687 2.1412 0 2.4981 2.4981 4.8772 5.2341 7.3753 7.8511-9.1597 1.9033-18.795 3.8066-28.431 5.7099 0.23792 0.71374 0.47583 1.3085 0.71374 1.7844 9.2786-1.7844 18.438-3.4497 27.598-5.2341 1.7844-0.35687 2.9739 0 3.9256 1.5464 1.5464 2.4981 3.4497 4.7583 5.1151 7.1374 0.23792 0.35687 0.47583 0.8327 0.8327 1.4275-11.658 0.71374-23.078 1.4275-34.735 2.1412 1.7843 1.4275 3.5687 2.617 4.9962 4.0445 1.4275 1.5464 2.4981 3.4497 3.8066 5.353 10.23-0.95166 20.817-2.617 31.167-5.2341 0.47583-0.11896 1.1896-1.1896 1.0706-1.6654-0.59478-3.4498-1.0706-6.8995-2.1412-10.111-3.3308-10.23-8.327-19.747-13.442-29.263-0.35687-0.59478-0.59479-1.1896-0.8327-1.7844 0.23791-0.11896 0.35687-0.23791 0.59478-0.23791 12.847 10.706 18.319 25.457 21.769 41.159 12.134-3.6876 23.791-8.4459 33.427-17.368zm-59.716 66.021c-1.3085-0.47583-2.736-1.3085-4.1635-1.3085-16.416-0.11895-32.951 0-49.367-0.11895-1.7844 0-2.3791 0.71374-2.2602 2.3791 0.35687 5.353 1.4275 10.587 3.6877 15.464 5.7099 12.847 15.821 21.293 28.193 27.122 16.892 7.9701 34.616 8.6838 52.698 6.0668 16.416-2.3791 31.523-8.4459 45.204-17.725 13.799-9.3976 24.862-21.174 31.642-36.639 1.0706-2.3791 1.9033-4.8772 2.9739-7.6132h-30.096c-7.4943 0-14.989 0.11896-22.483 0.23791-1.5464 0-2.855 0.47583-3.3308 1.7844-0.8327 2.4981-1.9033 5.1151-1.7844 7.7322 0.11896 4.0445 1.0706 7.9701 1.6654 12.015 0 0.35687 0.35687 0.59478 0.47583 0.83269 0.35687 0.95166 0.8327 1.7844 0.95165 2.736 0.11896 2.2602 0.23792 4.5204 0 6.7805-0.35687 2.736-0.71374 5.7099-1.9033 8.089-1.9033 4.0445-4.5204 7.8511-8.327 10.468-2.0223 1.4275-4.0445 2.617-6.1858 3.6876-1.4275 0.8327-3.3308 0.95165-4.6393 1.9033-1.1896 0.95165-2.3791 1.0706-3.6877 1.0706-1.5464 0-3.2118 0.11895-4.7583 0.11895-3.9256 0.11896-7.7322-0.23791-10.468-3.4497-2.3791-2.855-5.472-4.1635-8.9218-4.8772-1.5464-0.35687-3.0929-1.0706-4.6393-1.9033-4.1635-2.2602-6.7805-5.7099-7.4943-10.468-0.59478-4.0445 0.11896-7.9701 1.5464-11.777 1.4275-4.0445 3.4497-7.9701 5.472-12.609zm113.01-15.94c-0.11896 0.71374-0.23791 0.95166-0.23791 1.3085-4.9962 18.795-15.702 33.665-31.048 45.204-21.412 16.178-45.322 24.743-72.445 23.91-11.063-0.35687-21.888-2.2602-32.118-6.6616-13.204-5.591-24.148-14.037-31.048-26.884-2.736-5.2341-4.5204-10.825-5.472-16.654-0.23792-1.1896-0.11896-2.4981-1.9033-2.4981h-18.676c-1.0706 0-1.6654 0.35686-1.3085 1.5464 1.1896 4.1635 1.9033 8.5649 3.5687 12.609 4.8772 11.658 13.799 19.866 24.386 26.408 19.271 11.896 40.445 16.773 62.809 16.892 11.42 0.11895 22.602-0.95166 33.784-3.3308 24.981-5.353 47.583-15.583 67.21-32.118 14.87-12.609 24.862-28.074 26.646-48.058 1.6654-18.081-3.6877-33.665-17.13-46.036-2.1412-2.0223-4.6393-3.6876-6.7805-5.353-0.83269 1.1896-1.4275 1.9033-1.9033 2.736-0.47583 0.95165-0.8327 1.9033-1.3085 2.855-0.47582 0.95165-0.71374 2.0223-1.4275 2.855-1.9033 2.4981-2.1412 4.9962-0.71374 7.6132 6.4236 11.539 8.327 23.791 6.4236 36.758-0.23791 1.7844-0.95165 2.1412-2.4981 2.1412-12.371 0-24.743 0.11896-37.114 0.11896-4.0445 0-7.0184 2.0223-9.9924 4.6393h48.296zm-3.8066-130.73c-4.0445-3.9256-13.561-9.1597-20.936-11.658-14.989-5.1151-30.334-5.7099-45.917-3.2118-23.434 3.6877-43.657 14.037-60.43 30.81-2.855 2.855-5.2341 6.0668-7.9701 9.2786 10.111 4.6393 19.509 9.7544 28.312 15.94 0.35687 0.23791 0.71374 0.47583 1.0706 0.47583 8.089 1.4275 16.178 1.7843 24.148-0.71374 4.1635-1.3085 7.4943-3.8066 8.327-8.4459 0.47583-2.3791 0.11896-4.8772 0.23792-7.3753 0.35687-4.7583 1.3085-9.3976 4.4014-13.204 2.1412-2.855 5.353-3.5687 8.4459-2.2602-0.47583 0.71374-0.95165 1.4275-1.4275 2.1412-0.47583 0.71374-0.8327 1.5464-1.0706 2.3791-0.11896 0.47583-0.11896 1.1896 0.23791 1.6654 0.11896 0.23791 0.95166 0.11896 1.4275-0.11896 0.71374-0.23791 1.4275-0.71374 2.1412-1.0706 8.5649-4.6393 17.249-4.9962 26.289-1.3085 0.71374 0.35687 1.7844 0.35687 2.617 0 4.6393-1.9033 9.1597-3.9256 13.799-5.9478 5.1151-2.4981 10.587-4.8772 16.297-7.3753zm-158.45 21.055c3.6877 0.35687 6.6616 0.47583 9.7544 0.95165 3.0929 0.47583 6.0668 1.3085 9.1597 1.9033 0.47583 0.11896 1.3085-0.47583 1.6654-0.95165 2.617-2.9739 4.8772-6.1857 7.6132-9.0407 24.624-24.148 54.125-35.449 88.623-33.189 16.535 1.0706 31.405 6.4237 44.371 16.773 0.35687 0.35687 1.1896 0.59478 1.5464 0.47583 4.0445-1.6654 8.089-3.5687 12.371-5.353-0.47583-0.35687-0.8327-0.59478-1.0706-0.71374-17.13-10.825-36.044-16.059-56.148-17.011-11.777-0.59478-23.434 0.11896-35.092 2.2602-26.765 5.1151-50.913 16.059-71.969 33.546-3.6876 3.0929-7.0184 6.6616-10.825 10.349zm13.68 74.229c-0.23791-0.59478-0.23791-0.8327-0.35687-0.95165-6.5426-11.42-8.327-23.791-6.6616-36.758 0.11896-1.1896-0.35687-2.617-1.0706-3.6877-1.5464-2.3791-3.3308-4.5204-5.1151-6.6616-3.2118-3.8066-6.4236-7.6132-9.8734-11.539-0.47582 0.8327-0.71373 1.3085-0.95165 1.9033-3.4497 7.3753-5.353 14.989-5.8289 23.078-0.8327 11.896 1.4275 23.078 7.9701 33.189 0.47583 0.71374 1.6654 1.3085 2.617 1.3085 5.7099 0.11896 11.301 0 17.011 0 0.71374 0.11896 1.4275 0.11896 2.2602 0.11896zm146.44 27.003c3.3308-9.3976-2.855-33.546-9.3976-36.877-0.95165 2.1412-1.5464 4.4014-2.736 6.3047-2.1412 3.5687-4.4014 7.2564-7.0184 10.587-2.617 3.4497-5.472 6.6616-8.4459 9.7544-1.9033 1.9033-4.0445 3.5687-6.1857 5.2341-2.1412 1.5464-4.4014 2.9739-6.5426 4.5204 0.11895 0.11896 0.11895 0.35687 0.23791 0.47583h40.088zm-133.71-26.884c-3.5687-12.728-9.0407-23.91-16.178-34.497-0.35687 1.5464-0.47583 2.9739-0.47583 4.5204-0.35686 10.23 1.7844 19.747 7.3753 28.431 0.47583 0.71374 1.1896 1.5464 1.7844 1.5464h7.4943zm153.57-44.014h21.412c0.47582 0 1.1896-0.8327 1.1896-1.3085 0.23792-4.6393 0.23792-9.1597 0.35687-13.799 0-0.47583-0.35687-1.4275-0.59478-1.4275-0.59478 0-1.1896 0.23791-1.7844 0.59478-0.47583 0.23791-0.8327 0.8327-1.3085 1.0706-2.3791 1.3085-4.7583 2.3791-7.0184 3.6877-2.617 1.6654-5.2341 3.4497-7.7322 5.2341-2.0223 1.3085-4.4014 2.4981-4.5204 5.9478z" clip-rule="evenodd" fill="#808080" fill-rule="evenodd" stroke-width="1.1896"/><path class="st3" d="m306.45 175.59h-48.415c2.9739-2.617 6.0668-4.6393 9.9924-4.6393 12.371 0 24.743-0.11896 37.114-0.11896 1.6654 0 2.2602-0.35687 2.4981-2.1412 1.9033-12.966 0-25.219-6.4236-36.758-1.4275-2.617-1.1896-5.1151 0.71374-7.6132 0.59478-0.83269 0.95165-1.9033 1.4275-2.855 0.47582-0.95166 0.83269-1.9033 1.3085-2.855 0.47583-0.83269 1.0706-1.5464 1.9033-2.736 2.1412 1.6654 4.6393 3.3308 6.7805 5.353 13.561 12.371 18.795 27.955 17.13 46.036-1.7844 19.985-11.777 35.449-26.646 48.058-19.628 16.535-42.23 26.765-67.21 32.118-11.182 2.3791-22.364 3.4497-33.784 3.3308-22.364-0.23792-43.538-4.9962-62.809-16.892-10.587-6.5426-19.39-14.751-24.386-26.408-1.6654-4.0445-2.3791-8.4459-3.5687-12.609-0.35687-1.1896 0.23791-1.5464 1.3085-1.5464h18.676c1.7844 0 1.7844 1.3085 1.9033 2.4981 0.95165 5.8289 2.736 11.42 5.472 16.654 6.8995 12.966 17.843 21.293 31.048 26.884 10.23 4.4014 21.055 6.3047 32.118 6.6616 27.122 0.8327 51.032-7.6132 72.445-23.91 15.345-11.658 26.051-26.527 31.048-45.204 0.23791-0.35687 0.23791-0.59479 0.35687-1.3085z" clip-rule="evenodd" fill="#ffcf01" fill-rule="evenodd" stroke-width="1.1896"/><path class="st3" d="m144.19 65.915c3.8066-3.6877 7.0184-7.2564 10.825-10.349 21.055-17.487 45.085-28.431 71.969-33.546 11.658-2.2602 23.315-2.855 35.092-2.2602 20.104 0.95165 39.018 6.1857 56.148 17.011 0.23791 0.11896 0.59478 0.35687 1.0706 0.71374-4.2824 1.9033-8.208 3.6877-12.371 5.353-0.35687 0.11896-1.1896-0.11896-1.5464-0.47583-12.966-10.349-27.836-15.702-44.371-16.773-34.497-2.2602-63.999 9.0407-88.623 33.189-2.855 2.736-5.1151 6.0668-7.6132 9.0407-0.35687 0.47583-1.1896 0.95165-1.6654 0.95165-3.0929-0.47583-6.0668-1.4275-9.1597-1.9033-2.9739-0.47583-6.0668-0.59478-9.7544-0.95165z" clip-rule="evenodd" fill="#ffcf01" fill-rule="evenodd" stroke-width="1.1896"/><path class="st3" d="m157.87 140.14h-2.1412c-5.7099 0-11.301 0.11896-17.011 0-0.83269 0-2.1412-0.59478-2.617-1.3085-6.5426-10.111-8.8028-21.293-7.9701-33.189 0.47582-8.089 2.3791-15.821 5.8289-23.078 0.23791-0.59478 0.59478-1.0706 0.95165-1.9033 3.4497 3.9256 6.6616 7.7322 9.8734 11.539 1.7844 2.1412 3.5687 4.4014 5.1151 6.6616 0.71374 1.0706 1.1896 2.4981 1.0706 3.6877-1.7844 12.966 0.11896 25.219 6.6616 36.758 0 0 0 0.23792 0.23791 0.8327z" clip-rule="evenodd" fill="#ffcf01" fill-rule="evenodd" stroke-width="1.1896"/><path class="st3" d="m324.17 96.249c0.11896-3.4497 2.617-4.5204 4.5204-5.9478 2.4981-1.7843 5.1151-3.5687 7.7322-5.2341 2.2602-1.4275 4.6393-2.4981 7.0184-3.6877 0.47582-0.23791 0.83269-0.8327 1.3085-1.0706 0.59478-0.35687 1.1896-0.59478 1.7844-0.59478 0.23791 0 0.59478 0.95165 0.59478 1.4275 0 4.6393-0.11895 9.1597-0.35687 13.799 0 0.47583-0.83269 1.3085-1.1896 1.3085h-21.412z" clip-rule="evenodd" fill="#ffcf01" fill-rule="evenodd" stroke-width="1.1896"/><path class="st2" d="m266.36 111.71c-0.59478 2.855-1.0706 5.7099-2.0223 8.327-3.3308 9.5165-9.7544 16.773-17.487 22.959-10.587 8.327-22.602 13.918-35.211 18.2-14.632 4.9962-29.739 8.208-45.085 10.587-16.059 2.3791-32.237 4.0445-48.415 4.4014-15.345 0.47582-30.691 0.83269-46.036 0.59478-14.87-0.23791-29.739-1.1896-44.609-1.9033-5.8289-0.23791-11.539-0.83269-17.487-1.3085 0-0.59478 0-0.95165 0.11896-1.4275 2.2602-8.208 4.6393-16.416 6.8995-24.624 0.47583-1.6654 1.1896-1.9033 2.855-1.7844 8.327 0.95165 16.535 1.7844 24.862 2.617 8.089 0.83269 16.178 1.5464 24.267 2.2602 7.4943 0.59478 14.87 1.1896 22.364 1.7844 11.063 0.71374 22.126 1.6654 33.189 1.9033 18.676 0.47583 37.352 0.8327 56.148 0.71374 10.23-0.11895 20.579-1.0706 30.691-2.2602 7.0184-0.8327 14.275-1.9033 20.579-4.6393 15.821-6.8995 27.717-18.2 33.189-35.092 0.11896-0.47582 0.35687-0.83269 0.47583-1.3085 0.23791-0.11896 0.47583-0.11896 0.71374 0zm-119.67 45.204v12.372c25.457-2.3791 50.557-6.1857 74.348-15.821-24.624 3.9256-49.248 4.0445-74.348 3.4497zm-90.169 13.204c0.95165-6.1857 1.7843-12.253 2.617-18.319-2.855-0.35687-5.591-0.59479-8.327-0.95166-1.1896-0.11895-1.7843 0.35687-2.1412 1.4275-1.1896 3.6877-2.4981 7.2564-3.8066 10.944-0.71374 1.9033-1.3085 3.8066-2.0223 5.9478 4.7583 0.35687 9.1597 0.59478 13.68 0.95165zm77.679-13.323c-0.59478 4.2824-1.0706 8.8028-1.7844 13.442 4.5204-0.35687 8.6838-0.59479 13.085-0.95166v-12.609c-3.6877 0.11895-7.3753 0.11895-11.301 0.11895zm-24.148 14.275c0.95166-5.2341 2.0223-10.23 2.9739-15.464-2.855-0.11896-5.591-0.35687-8.4459-0.47583-1.0706 5.472-2.0223 10.706-2.9739 15.94h8.4459zm-37.828-0.23791c1.7843 0 3.2118-0.11896 4.7583 0 1.1896 0.11896 1.7843-0.23791 1.9033-1.5464 0.35687-2.617 0.95165-5.2341 1.4275-7.8511s0.95165-5.1151 1.4275-7.9701c-2.3791-0.11896-4.4014-0.23791-6.4237-0.35687-0.95165 6.0668-2.0223 11.777-3.0929 17.725zm10.706-17.249c-1.0706 5.8289-2.1412 11.42-3.3308 17.487 1.9033 0 3.4497 0.11896 4.9962 0 0.47583 0 1.3085-0.59478 1.4275-0.95165 1.0706-5.2341 1.9033-10.587 2.855-15.94-1.9033-0.23792-3.8066-0.35687-5.9478-0.59478zm28.074 17.487c2.3791-0.11895 4.5204-0.23791 6.7805-0.35687 0.8327-4.9962 1.6654-9.7544 2.4981-14.751-2.3791-0.11896-4.2824-0.23792-6.3047-0.35687-0.95165 5.2341-1.9033 10.23-2.9739 15.464zm-85.768-19.509c4.5204 0.71374 9.0407 1.4275 13.68 2.0223 0.47583 0 1.1896-0.47583 1.4275-0.95166 0.47583-0.71374 0.59478-1.5464 1.0706-2.617-4.4014-0.47583-8.5649-0.8327-12.728-1.3085-3.0929-0.35687-3.0929-0.35687-3.4497 2.855zm10.349 13.799c-3.5687-0.59479-7.2564-1.1896-10.825-1.6654-3.4497-0.47583-3.4497-0.47583-4.1635 2.9739v0.47583c3.9256 0.35687 7.8511 0.83269 11.777 1.1896 2.736 0.35687 2.9739 0.11896 3.2118-2.9739zm3.0929-6.8995c-5.2341-0.71374-9.9924-1.4275-14.989-2.0223-0.35687 1.0706-0.59478 1.9033-0.8327 2.9739 4.9962 0.71374 9.7544 1.4275 14.632 2.1412 0.35687-1.0706 0.71374-1.9033 1.1896-3.0929z" clip-rule="evenodd" fill="#808080" fill-rule="evenodd" stroke-width="1.1896"/><path class="st2" d="m210.21 101.96c4.0445-0.8327 7.8511-1.6654 11.658-2.4981 4.0445-0.8327 8.208-1.5464 12.253-2.617 1.3085-0.35687 2.0223 0 2.4981 1.0706 0.23792 0.47583 0.59479 0.8327 0.8327 1.3085 0.71374 1.6654 1.9033 2.1412 3.8066 2.1412 5.591 0 9.5165 3.6876 9.6355 9.0407 0 1.1896-0.47582 2.617-1.0706 3.8066-3.2118 6.0668-8.208 10.587-14.275 13.561-4.7583 2.3791-9.9924 4.0445-14.989 5.9478-0.47582 0.11895-1.0706 0.11895-1.5464 0.11895-1.0706-6.0668-2.1412-11.896-2.9739-17.843-0.59478-4.2824-1.7844-8.327-4.5204-11.777-0.35687-0.47582-0.71374-1.1896-1.3085-2.2602zm19.152 27.836c8.4459-3.4497 15.583-7.9701 19.866-16.535-0.8327-0.11895-1.1896-0.11895-1.5464-0.11895-2.2602 0-4.6393-0.35687-6.5426 1.5464-3.3308-0.47582-5.472 1.7844-7.6132 3.6877-3.2118 2.855-5.7099 6.3047-4.1635 11.42z" clip-rule="evenodd" fill="#808080" fill-rule="evenodd" stroke-width="1.1896"/><path class="st2" d="m215.57 206.16c-3.4497 6.5426-6.3047 13.204-12.134 17.487-0.23791-0.11895-0.59478-0.23791-0.83269-0.35687 0.47583-2.0223 0.59478-4.0445 1.3085-5.9478 2.1412-5.1151 4.2824-10.23 6.8995-15.107 1.6654-3.0929 5.353-4.0445 8.5649-4.9962 3.0929-0.83269 5.9478-0.23791 8.8028 2.0223-0.71374-3.6876-1.5464-6.7805-1.9033-9.9924-0.59478-5.472-1.0706-10.944-1.4275-16.535-0.11896-2.0223 0.11896-4.2824 2.3791-6.0668 0.71374 2.3791 1.3085 4.4014 1.7844 6.4237 2.1412 8.4459 4.1635 17.011 4.1635 25.814 0 3.8066-0.59478 7.7322-1.4275 11.42-0.59478 2.9739-2.4981 5.353-5.7099 6.1857-0.8327 0.23791-1.6654 0.23791-2.617 0.35687 2.0223-5.7099 1.9033-8.208-0.59478-10.825-0.59478 2.736-1.3085 5.2341-1.7844 7.8511-0.8327 3.6877-2.9739 6.5426-5.353 9.1597-0.47582 0.47583-1.5464 0.95165-2.0223 0.71374-0.47582-0.23791-0.95165-1.3085-0.95165-2.0223 0-1.0706 0.23791-2.2602 0.71374-3.2118 2.2602-3.6876 2.9739-7.4943 2.1412-12.371z" clip-rule="evenodd" fill="#808080" fill-rule="evenodd" stroke-width="1.1896"/><path class="st2" d="m198.67 193.32c1.3085 4.5204 4.1635 7.6132 8.089 9.9924-3.0929 6.5426-6.1857 12.966-9.2786 19.509-2.1412-0.23791-3.2118-1.6654-4.0445-3.2118-2.0223-3.6876-2.4981-7.7322-2.1412-11.777 0-0.47583 0.11896-0.95165 0.35687-1.3085 2.3791-4.5204 4.7583-8.8028 7.0184-13.204z" clip-rule="evenodd" fill="#808080" fill-rule="evenodd" stroke-width="1.1896"/><path class="st2" d="m221.04 190.46c-4.9962-0.35687-9.7544-0.8327-14.513-0.95166-2.3791 0-3.5687-0.95165-4.1635-3.2118-0.23792-1.0706-0.8327-2.1412-1.3085-3.4497 6.7805-0.35687 13.323-0.8327 19.985-1.1896v8.8028z" clip-rule="evenodd" fill="#808080" fill-rule="evenodd" stroke-width="1.1896"/><path class="st2" d="m202.48 99.461c9.6355-2.1412 19.271-4.4014 28.906-6.5426 0 0.23791 0.11896 0.47583 0.11896 0.71374-8.9217 5.472-19.033 5.353-28.906 6.5426 0-0.35687 0-0.47583-0.11896-0.71374z" clip-rule="evenodd" fill="#808080" fill-rule="evenodd" stroke-width="1.1896"/><path class="st2" d="m257.56 89.825c-2.1412 0-3.6876-1.5464-3.6876-3.5687 0-1.9033 1.6654-3.5687 3.5687-3.6877 2.0223 0 3.6876 1.6654 3.6876 3.6877s-1.6654 3.5687-3.5687 3.5687z" clip-rule="evenodd" fill="#808080" fill-rule="evenodd" stroke-width="1.1896"/><path class="st2" d="m252.09 91.015c-1.3085 0.95165-1.9033 0.47583-2.0223-0.71374-0.95166-5.2341 0.35687-9.0407 6.6616-9.9924 1.1896-0.23791 2.3791-0.11896 3.5687 0 0.47583 0 0.8327 0.59478 1.1896 0.95165-0.47583 0.35687-0.8327 0.95165-1.3085 0.95165-1.0706 0.11896-2.2602 0-3.3308 0.11896-3.5687 0.23791-5.472 2.736-5.1151 6.3047 0 0.71374 0.23791 1.5464 0.35687 2.3791z" clip-rule="evenodd" fill="#808080" fill-rule="evenodd" stroke-width="1.1896"/><path class="st2" d="m221.87 193.32c-5.472 2.0223-11.063 2.1412-16.773 1.0706 5.591-0.35687 11.182-0.71374 16.773-1.0706z" clip-rule="evenodd" fill="#808080" fill-rule="evenodd" stroke-width="1.1896"/><path class="st2" d="m262.67 85.662c0.47582 4.1635-4.0445 8.208-7.4943 6.7805 1.6654-0.71374 3.4497-1.1896 4.6393-2.3791 1.3085-0.95165 1.9033-2.736 2.855-4.4014z" clip-rule="evenodd" fill="#808080" fill-rule="evenodd" stroke-width="1.1896"/><g transform="matrix(1.1896 0 0 1.1896 -19.254 -23.897)" clip-rule="evenodd" fill="#ffcf01" fill-rule="evenodd">
		<path class="st3" d="m229 125.6c-8 7.5-17.9 11.6-28.3 14.9-3-13.3-7.5-25.7-18.3-34.6-0.2 0.1-0.3 0.2-0.5 0.2 0.2 0.5 0.5 1 0.7 1.5 4.3 7.9 8.5 15.9 11.3 24.6 0.9 2.8 1.3 5.7 1.8 8.5 0.1 0.4-0.5 1.3-0.9 1.4-8.7 2.2-17.6 3.6-26.2 4.4-1.1-1.6-2-3.2-3.2-4.5-1.2-1.2-2.6-2.2-4.2-3.4 9.8-0.6 19.4-1.2 29.2-1.8-0.3-0.5-0.4-0.9-0.7-1.2-1.4-2-3-4-4.3-6-0.9-1.4-1.8-1.6-3.3-1.3-7.7 1.5-15.4 3-23.2 4.4-0.2-0.5-0.3-0.9-0.6-1.5 8.2-1.6 16.2-3.3 23.9-4.8-2-2.2-4.1-4.5-6.2-6.6-0.3-0.3-1.3-0.2-1.8 0-5.9 2.1-11.8 4.3-17.8 6.6-0.3-0.6-0.6-1.2-0.9-2 6.2-2.3 12.3-4.5 18.6-6.9-1.5-1.6-2.7-3-4.2-4.3-0.3-0.3-1.1-0.2-1.6 0-4.7 1.8-9.3 3.6-13.9 5.5-1 0.4-1.7 0.4-1.9-1.1 5.1-2.1 10.2-4.2 15.6-6.4-2.5-2.7-4.8-5.2-7.2-7.6-0.3-0.3-1.1-0.2-1.6 0-3.7 1.3-7.5 2.7-11.2 4.2-1.1 0.4-1.7 0.3-2.1-1 4.4-1.6 8.8-3.2 13.4-4.9-1-1.2-1.7-2.4-2.7-3.3-0.4-0.4-1.3-0.4-2-0.3-4.1 0.7-8.2 1.4-12.3 2.1-0.5 0.1-1.3-0.1-1.5-0.5-5.4-6.9-11.4-13.3-18-19.1-0.1-0.1-0.1-0.2-0.4-0.6 1.4-0.3 2.7-0.7 3.9-0.8 8.5-0.4 16.7 1.3 24.7 4.2 9.4 3.3 18 8 26.3 13.5 1.9 1.3 4.4 1.8 6.8 2.3 7.3 1.5 14.4 0.9 21.3-1.8 4.2-1.7 7.5-4.3 8.7-9 0.7-3 0.6-5.9-0.9-8.6-1.2-2-1.4-4.2-0.3-6.3 1-1.8 2.3-3.5 3.6-5.3 0.3 2.1 0.4 3.8 0.9 5.4 0.2 0.5 1.3 1.1 1.9 1.1 3.3-0.2 6.6-0.4 9.8-1.2 2.9-0.7 5.6-1 8.3 0.4 5.4 2.9 10.5 1.9 15.3-1.3 1.5-1 3-2 4.6-2.7 35.9-15.1 71.7-30.2 107.6-45.2 1.4-0.6 2.8-1.1 4.2-1.6 0.2 0.1 0.3 0.2 0.5 0.3-0.6 1.4-0.9 3-1.7 4.3-2.3 3.8-5.4 6.9-9 9.2-11.3 7.3-22.7 14.5-34.2 21.6-13.6 8.3-27.2 16.7-41.1 24.5-10.9 6-17.8 15.2-23.1 25.9-3.3 6.6-6.3 13.4-9.4 20.1-3.3 7.1-8.4 12.7-14.6 17.4l2.1-2.1c0.8-0.8 1.5-1.5 2.2-2.3 6.9-7.4 11.5-16 13.1-26.1 0.9-5.9 0.8-11.8-0.4-17.6-0.3-1.4-0.1-2.3 1.2-3.2 15.1-11.8 30.2-23.3 45.2-34.8 0.3-0.2 0.6-0.5 0.9-0.8-0.1-0.2-0.2-0.3-0.3-0.5-18.8 6.8-37.5 13.6-56.3 20.4 0.1 0.3 0.2 0.5 0.3 0.8l51.3-18.6c0.1 0.1 0.1 0.2 0.2 0.3-15.6 9.6-31.2 19.3-47 29 0.6 0.9 1 1.7 1.7 2.4 1.9 2 2 4.3 2 6.9-0.7 17.4-8.6 31.2-21.3 42.5-6.4 5.7-13.5 10.2-21.2 14l-1.8 0.9c2 6.4 4 12.6 6 18.8 2 6 2.8 12 0.7 18.2-2.3 6.7-7.2 11.1-13.5 13.8-3.7 1.6-7.6 3-11.5 3.5-5 0.6-9.8-0.9-13.6-4.5-3.3-3.1-3.5-7.3-2.8-11.4 0.9-5.1 3.2-9.7 5.9-14 1.4-2.2 2.8-4.6 1.3-7.2-1.5-2.7-4.3-3.3-7.1-3.3-11.2 0-22.4 0.1-33.6 0.1-6.5 0-13 0-19.6 0.1-11.2 0-22.4 0.1-33.5 0.2-18.4 0.1-36.9 0.1-55.3 0.2h-9.7c2-11.1 3.9-22.2 5.9-33.3 2 0 4-0.1 5.9 0 8.7 0.5 17.5 1 26.2 1.6 8.4 0.5 16.8 1.1 25.2 1.6 8.1 0.5 16.2 0.9 24.4 1.4 8.7 0.5 17.4 1.1 26.1 1.6 8.2 0.5 16.5 0.9 24.7 1.4 5.5 0.3 11 1.1 16.4 1.2 17.7 0.3 34.2-3.1 47.4-16.1 1.8-1.8 3.3-3.8 4.9-5.7-0.1-0.2-0.2-0.3-0.3-0.4zm11.1-11.6c-0.2 0-0.5-0.1-0.7-0.1-0.1 0.4-0.3 0.7-0.4 1.1-4.6 14.3-14.5 23.8-27.9 29.5-5.3 2.3-11.4 3.2-17.3 3.9-8.6 1.1-17.2 1.8-25.8 1.9-15.7 0.1-31.4-0.2-47.2-0.6-9.3-0.2-18.6-1-27.9-1.6-6.3-0.4-12.5-0.9-18.8-1.5-6.8-0.6-13.6-1.2-20.4-1.9-7-0.7-14-1.4-20.9-2.2-1.4-0.2-2 0.1-2.4 1.5-1.9 6.9-3.9 13.8-5.8 20.7-0.1 0.3-0.1 0.7-0.1 1.2 5 0.4 9.8 0.8 14.7 1.1 12.5 0.6 25 1.4 37.5 1.6 12.9 0.2 25.8-0.1 38.7-0.5 13.6-0.4 27.2-1.7 40.7-3.7 12.9-1.9 25.6-4.6 37.9-8.9 10.6-3.7 20.7-8.3 29.6-15.3 6.5-5.2 12-11.2 14.7-19.3 0.9-2.2 1.3-4.6 1.8-6.9zm-47.2-8.2c0.5 0.8 0.8 1.5 1.2 2 2.3 2.9 3.2 6.3 3.8 9.9 0.8 5 1.7 9.9 2.5 15 0.5 0 1 0 1.3-0.1 4.2-1.6 8.6-3 12.6-5 5.1-2.5 9.3-6.3 12-11.4 0.5-1 0.9-2.1 0.9-3.2-0.1-4.5-3.4-7.6-8.1-7.6-1.5 0-2.5-0.4-3.2-1.8-0.2-0.4-0.5-0.7-0.7-1.1-0.5-0.9-1-1.2-2.1-0.9-3.4 0.8-6.9 1.5-10.3 2.2-3.3 0.6-6.5 1.3-9.9 2zm4.5 87.6c0.7 4.1 0.1 7.2-1.6 10.5-0.4 0.8-0.6 1.8-0.6 2.7 0 0.6 0.4 1.4 0.8 1.7 0.4 0.2 1.3-0.2 1.7-0.6 2.1-2.2 3.9-4.7 4.5-7.7 0.5-2.2 1-4.3 1.5-6.6 2.1 2.3 2.2 4.3 0.5 9.1 0.8-0.1 1.5-0.1 2.2-0.3 2.7-0.7 4.2-2.7 4.8-5.2 0.7-3.1 1.2-6.4 1.2-9.6 0-7.4-1.7-14.5-3.5-21.7-0.4-1.7-1-3.5-1.5-5.4-1.9 1.5-2.1 3.4-2 5.1 0.2 4.6 0.6 9.3 1.2 13.9 0.3 2.7 1 5.3 1.6 8.4-2.4-1.9-4.9-2.4-7.4-1.7-2.8 0.8-5.8 1.6-7.2 4.2-2.2 4.1-4 8.4-5.8 12.7-0.6 1.5-0.8 3.3-1.1 5 0.2 0.1 0.5 0.2 0.7 0.3 4.7-3.7 7.1-9.2 10-14.8zm-14.2-10.8c-2 3.7-4 7.4-5.9 11.1-0.2 0.3-0.3 0.7-0.3 1.1-0.3 3.5 0.1 6.8 1.8 9.9 0.7 1.3 1.6 2.4 3.4 2.7 2.6-5.4 5.2-10.9 7.8-16.4-3.3-2.1-5.7-4.6-6.8-8.4zm18.8-2.4v-7.4c-5.6 0.3-11.1 0.7-16.8 1 0.5 1.2 0.9 2 1.1 2.9 0.4 1.9 1.4 2.7 3.5 2.7 4 0.1 8 0.5 12.2 0.8zm-15.6-76.5v0.5c8.3-1 16.9-0.9 24.3-5.5 0-0.2-0.1-0.4-0.1-0.6-8 1.9-16.1 3.8-24.2 5.6zm46.3-8.1c1.7 0 3-1.3 3-3s-1.5-3.1-3.1-3.1-3 1.4-3 3.1c0 1.8 1.3 3 3.1 3zm-4.6 1c-0.1-0.7-0.3-1.4-0.4-2.2-0.4-3 1.3-5 4.3-5.3 0.9-0.1 1.9 0 2.8-0.1 0.4-0.1 0.7-0.5 1.1-0.8-0.3-0.3-0.6-0.7-1-0.8-1-0.1-2-0.1-3 0-5.3 0.8-6.4 4-5.6 8.4 0.3 1.2 0.7 1.6 1.8 0.8zm-25.4 86-14.1 0.9c4.8 0.9 9.5 0.8 14.1-0.9zm34.3-90.5c-0.8 1.4-1.3 2.9-2.3 3.8s-2.6 1.3-3.9 2c2.8 1.2 6.6-2.2 6.2-5.8z"/>
		<path class="st3" d="m139.5 152c21 0.5 41.8 0.4 62.5-3-20 8.1-41.1 11.3-62.5 13.3v-10.3z"/>
		<path class="st3" d="m63.7 163.1c-3.8-0.2-7.5-0.5-11.4-0.8 0.6-1.7 1.1-3.4 1.7-5 1.1-3.1 2.2-6.1 3.2-9.2 0.3-1 0.7-1.4 1.8-1.2 2.3 0.3 4.6 0.5 7 0.8-0.8 5.1-1.5 10.1-2.3 15.4z"/>
		<path class="st3" d="m129 151.9h9.6v10.6c-3.7 0.3-7.2 0.5-11 0.8 0.5-4 0.9-7.8 1.4-11.4z"/>
		<path class="st3" d="m108.7 163.9h-7.1c0.8-4.4 1.7-8.8 2.5-13.4 2.4 0.1 4.7 0.3 7.1 0.4-0.8 4.4-1.7 8.6-2.5 13z"/>
		<path class="st3" d="m76.9 163.7c0.9-5 1.8-9.9 2.7-14.9 1.7 0.1 3.4 0.2 5.4 0.3-0.4 2.4-0.8 4.5-1.2 6.7s-0.9 4.4-1.2 6.6c-0.2 1.1-0.6 1.4-1.6 1.3h-4.1z"/>
		<path class="st3" d="m85.9 149.2c1.7 0.2 3.3 0.3 5.1 0.5-0.8 4.5-1.6 9-2.4 13.4-0.1 0.4-0.7 0.8-1.2 0.8-1.3 0.1-2.6 0-4.2 0 0.9-5.1 1.8-9.8 2.7-14.7z"/>
		<path class="st3" d="m109.5 163.9c0.9-4.5 1.7-8.6 2.5-13 1.7 0.1 3.4 0.2 5.3 0.3-0.7 4.2-1.4 8.2-2.1 12.4-1.8 0.2-3.6 0.2-5.7 0.3z"/>
		<path class="st3" d="m37.4 147.5c0.3-2.7 0.3-2.7 2.8-2.4 3.5 0.4 7 0.7 10.7 1.1-0.3 0.9-0.5 1.6-0.9 2.2-0.2 0.4-0.8 0.8-1.2 0.8-3.7-0.6-7.5-1.1-11.4-1.7z"/>
		<path class="st3" d="m46.1 159.1c-0.2 2.6-0.4 2.8-2.7 2.5-3.3-0.3-6.6-0.7-9.9-1v-0.4c0.6-2.9 0.6-3 3.5-2.5 3.1 0.4 6.1 0.9 9.1 1.4z"/>
		<path class="st3" d="m48.7 153.3c-0.4 1-0.7 1.7-1 2.5-4.1-0.6-8.1-1.2-12.3-1.8 0.2-0.9 0.5-1.6 0.7-2.5 4.1 0.6 8.2 1.2 12.6 1.8z"/>
	</g><path class="st4" d="m229.37 129.79c-1.4275-5.1151 0.95165-8.5649 4.1635-11.42 2.1412-1.9033 4.2824-4.1635 7.6132-3.6877 1.9033-1.9033 4.2824-1.5464 6.5426-1.5464 0.35686 0 0.83269 0.11895 1.5464 0.11895-4.4014 8.4459-11.42 13.085-19.866 16.535z" clip-rule="evenodd" fill="#fff" fill-rule="evenodd" stroke-width="1.1896"/>
</svg>
