<svg width="1e3" height="466.17" version="1.1" xmlns="http://www.w3.org/2000/svg">
 <g transform="translate(-1920 -3146.2)">
  <g transform="matrix(.4129 0 0 .4129 1709 2629.1)">
   <path d="m2526 1552.5 87.557 1e-4v-47.114c0-31.994-9.7747-68.033-37.099-97.608-25.672-27.212-63.653-41.002-101.69-41.002-50.109 0-82.501 19.909-102.86 39.755-26.173 27.132-41.292 58.06-41.292 105.86v340c0 45.034 13.705 75.257 39.216 102.66 29.223 28.012 62.042 38.904 107.16 38.904 47.782 0 77.924-22.671 97.754-41.44 23.462-23.862 38.816-55.24 38.816-100.13v-37h-87.557v37.963c0 29.626-18.368 52.676-52.951 52.676-15.638 0-29.403-3.6583-40.109-15.347-10.234-11.174-14.94-32.09-14.94-42.292v-329c0-22.144 9.7124-45.205 17.454-52.062 9.5481-8.5152 20.233-12.326 37.985-12.326 33.427 0 52.561 27.998 52.561 61.388z" fill="#529ee9"/>
   <path transform="matrix(2.0233 0 0 2.0233 -1110.2 -3901.8)" d="m1359.2 2911.9h129v-43.477h-82v-88h65v-44h-65v-84h82v-45.197h-129l-19 20.197v268z" fill="#529ee9" fill-rule="evenodd"/>
   <path transform="matrix(2.0233 0 0 2.0233 -1110.2 -3901.8)" d="m1518.2 2911.9v-304.68h59l49.558 185.51v-185.51h42.442v305.2h-49l-59.438-222.12v220.48z" fill="#529ee9" fill-rule="evenodd"/>
   <path d="m2671.9 1989.8h261.01v-87.966h-165.91v-178.05h131.51v-89.025h-131.51v-169.96h165.91v-91.447h-261.01z" fill="#529ee9" fill-rule="evenodd"/>
   <path transform="translate(1118.8 506.97)" d="m-607.76 1874.4v-866l263-263h866v871l-258 258z" fill="#529ee9"/>
   <path transform="translate(1118.8 506.97)" d="m-319.76 1308.4h87v16.77c0 9.6885-3.7763 73.844 63.878 73.844 22.591 0 35.881-5.0751 47.122-15.614 9.4125-8.9943 16.983-21.155 16.983-78.048 0-37.644-1.7967-57.55-15.983-72.328-6.9585-7.1774-24.376-15.766-52-26.624l-57.5-23.923c-18.954-8.9242-35.255-19.651-49.775-34.58-21.8-23.163-35.17-61.454-35.17-117.99 0-49.326 13.618-99.445 47.302-131.38 25.13-23.09 55.837-38.761 104.37-38.761 50.052 0 83.523 20.995 106.62 43.585 26.738 30.588 36.663 59.365 36.663 93.308v48.735h-87.507v-26c0-28.096-8.5042-71.408-59.881-71.408-38.498 0-59.534 24.228-59.534 81.125 0 26.286 1.3553 41.2 9.6622 53.996s24.427 19.176 37.167 25.819l71.704 28.123c24.17 9.9106 41.516 19.82 55.88 34.345 25.006 25.567 36.158 60.908 36.158 133.01 0 61.912-11.818 112.32-46.158 145.99-24.458 22.465-55.683 36.541-104.96 36.541-50.183 0-84.16-17.962-111.04-44.541-26.876-26.578-41-62.59-41-99z" fill="#fff"/>
   <rect transform="translate(1118.8 506.97)" x="359.24" y="866.39" width="87" height="616.45" fill="#fff"/>
   <path transform="translate(1118.8 506.97)" d="m221.24 1045.5 87.557 1e-4v-47.114c0-31.994-9.7747-68.033-37.099-97.609-25.672-27.212-63.653-41.002-101.69-41.002-50.109 0-82.501 19.909-102.86 39.755-26.173 27.132-41.292 58.06-41.292 105.86v340c0 45.034 13.705 75.257 39.216 102.66 29.223 28.012 62.042 38.904 107.16 38.904 47.782 0 77.924-22.671 97.754-41.44 23.462-23.862 38.816-55.24 38.816-100.13v-37h-87.557v37.963c0 29.626-18.368 52.676-52.951 52.676-15.638 0-29.403-3.6583-40.109-15.347-10.234-11.174-14.94-32.09-14.94-42.292v-329c0-22.144 9.7124-45.205 17.454-52.062 9.5481-8.5152 20.233-12.326 37.985-12.326 33.427 0 52.561 27.998 52.561 61.388z" fill="#fff"/>
  </g>
 </g>
</svg>
