<svg width="221.8" height="41.9" version="1.1" viewBox="0 0 221.8 41.9" xml:space="preserve" xmlns="http://www.w3.org/2000/svg">
<style type="text/css">
	.st0{fill:#2780DC;}
	.st1{fill:#EE1D25;}
</style>
<g transform="translate(-.3 -.4)">
		<path class="st0" d="m23.6 9.9c-0.8-1-1.8-1.7-3.1-2.4-1.4-0.7-2.7-1-4.1-1-0.9 0-1.6 0.1-2.5 0.3s-1.5 0.5-2.3 1c-0.5 0.4-1.1 1-1.5 1.6-0.4 0.7-0.7 1.5-0.7 2.5 0 0.9 0.2 1.6 0.5 2.3s0.9 1.2 1.5 1.6c0.7 0.4 1.4 0.9 2.4 1.2s2 0.7 3 1c1.3 0.4 2.6 0.9 3.9 1.4 1.4 0.5 2.6 1.2 3.7 2.1s2.1 2 2.8 3.3c0.8 1.3 1.1 2.9 1.1 4.9 0 2.2-0.4 4-1.2 5.5-0.8 1.6-1.8 2.9-3.1 3.9s-2.8 1.8-4.6 2.4-3.6 0.8-5.5 0.8c-2.6 0-5.1-0.4-7.6-1.4s-4.3-2.5-6-4.4l5-4.7c1.2 1.3 2.5 2.4 4.1 3.1 1.6 0.8 3.3 1.2 4.8 1.2 0.9 0 1.6-0.1 2.5-0.3s1.6-0.5 2.3-1c0.7-0.4 1.2-1.1 1.6-1.8 0.4-0.8 0.7-1.6 0.7-2.7s-0.2-2-0.8-2.6c-0.4-0.7-1.1-1.3-2-1.7-0.9-0.5-1.7-1-2.9-1.3-1.1-0.3-2.3-0.8-3.5-1.2-1.2-0.3-2.4-0.9-3.6-1.3s-2.3-1.2-3.3-2.1-1.5-2.1-2.2-3.3c-0.5-1.2-0.9-2.8-0.9-4.7 0-2.1 0.4-3.7 1.3-5.2s2-2.6 3.3-3.6c1.4-1 2.9-1.6 4.7-2.2 1.7-0.4 3.5-0.7 5.2-0.7 2.1 0 4 0.3 6.1 1.1s3.9 1.7 5.4 3.1z" fill="#2780dc"/>
		<path class="st0" d="m32.5 1.7h7v15.9h18.5v-15.9h7v39.4h-7v-17.5h-18.4v17.6h-7v-39.5z" fill="#2780dc"/>
		<path class="st0" d="m115.2 1.7h12.9c2.3 0 4.3 0.2 6.2 0.7 1.8 0.4 3.4 1.1 4.7 2.1s2.3 2.2 3 3.6c0.8 1.4 1.1 3.1 1.1 5.2 0 2.2-0.4 4-1.2 5.5s-2 2.7-3.4 3.6-3 1.6-4.9 2c-1.8 0.4-3.8 0.7-6 0.7h-5.4v16.4h-7v-39.8zm11.9 17.2c1.2 0 2.3-0.1 3.3-0.2s2-0.4 2.8-0.9c0.9-0.4 1.5-1 2-1.7 0.4-0.8 0.8-1.7 0.8-2.9s-0.2-2.1-0.8-2.8c-0.4-0.8-1.1-1.3-2-1.7s-1.7-0.7-2.7-0.8-2.1-0.2-3.1-0.2h-5.1v11.3h4.8z" fill="#2780dc"/>
			<path class="st0" d="m109.8 12.7c0-0.1 0-0.1-0.1-0.2-1.2 0.8-2.8 1.5-4.3 2-4.5 1.1-5.9-0.3-6.1-0.5-0.3-0.4-0.5-1.1-0.7-1.8-0.2 0.1-0.4 0.2-0.7 0.3-0.8 0.7-0.9 1.8-0.2 2.6s1.8 0.9 2.6 0.2l0.1-0.1c0.5 0.1 1.1 0.2 1.7 0.2 0.8 0 1.6-0.1 2.6-0.3v5.9c0 0.4 0 0.8-0.3 1l-19.4 15.8c-0.4 0.3-1.1 0.3-1.4-0.1l-10.9-13.2c-0.3-0.4-0.3-1.1 0.1-1.4l19.5-16c0.3-0.2 0.7-0.2 1.1-0.1l6.4 1.3v-0.1c0.8-1.5 1.8-3.1 2.9-4.3-1.2-0.8-2.5-1.4-4-2-2.6-1-5.4-1.4-8.6-1.4-3 0-5.9 0.4-8.5 1.4s-4.7 2.4-6.6 4.1c-2 1.7-3.4 3.9-4.4 6.5-1.1 2.5-1.6 5.4-1.6 8.6 0 3 0.5 5.9 1.6 8.5 1.1 2.5 2.5 4.8 4.4 6.6 1.8 1.8 4.1 3.3 6.7 4.3s5.4 1.5 8.5 1.5c3 0 6-0.5 8.6-1.5s4.9-2.5 6.7-4.3 3.4-4 4.4-6.6 1.6-5.3 1.6-8.5c-0.2-3-0.7-5.8-1.7-8.4z" fill="#2780dc"/>
			<path class="st0" d="m100.7 8.7 3 0.7c0.5 0.1 1 0.5 0.9 1.1v2.7c-1 0.3-1.8 0.4-2.6 0.4-0.5 0-1-0.1-1.3-0.2-0.1-0.1-0.1-0.3-0.2-0.4-0.2-0.3-0.5-0.4-0.9-0.5 0 0.4 0.1 0.8 0.3 1.1 0.9 0.9 2.8 0.7 2.8 0.7 2.1-0.2 4.6-1.2 6.3-2.3-1-2.1-2.3-3.8-3.9-5.3-0.5-0.5-1.2-1.1-1.8-1.5-0.9 0.6-2 2-2.6 3.5z" fill="#2780dc"/>
		<path class="st1" d="m159.8 1.7h7v33.3h16.8v6.3h-23.8z" fill="#ee1d25"/>
		<path class="st1" d="m216.2 11c-1.1-1.4-2.4-2.5-4.1-3.1-1.6-0.7-3.4-1-4.9-1-2.1 0-3.9 0.3-5.6 1.1-1.6 0.8-3.1 1.7-4.3 3s-2.2 2.8-2.8 4.6c-0.7 1.7-1 3.7-1 5.7 0 2.2 0.3 4.1 1 6 0.7 1.7 1.5 3.4 2.7 4.6 1.2 1.3 2.6 2.3 4.2 3 1.6 0.8 3.5 1.1 5.5 1.1 2.2 0 4-0.4 5.6-1.3s2.9-2 4-3.4l5.6 4c-1.7 2.2-3.9 3.9-6.4 5.1s-5.5 1.8-8.9 1.8c-3 0-6-0.5-8.5-1.5-2.6-1-4.8-2.5-6.6-4.3s-3.4-4-4.3-6.6c-1.1-2.5-1.5-5.3-1.5-8.5s0.5-6 1.6-8.6c1.1-2.5 2.6-4.7 4.6-6.5 2-1.7 4.2-3.1 6.8-4.1s5.4-1.4 8.5-1.4c1.3 0 2.6 0.1 4 0.3s2.7 0.7 4 1.1 2.5 1.1 3.6 1.8 2.1 1.6 2.8 2.7z" fill="#ee1d25"/>
</g>
</svg>
