<svg width="615.18" height="226.13" version="1.1" viewBox="0 0 576.73 212" xmlns="http://www.w3.org/2000/svg">
 <g transform="translate(-494.16 -229.24)">
  <path d="m596.13 339.23h2.384c3.9228 0 8.1862 0.85773 8.1862 16.549 0 12.803-1.5389 17.571-8.1862 17.571h-2.384zm-16.209 100.64h15.351c17.735 0 30.02-5.8023 30.02-32.24 0-8.3628-1.7028-25.076-15.691-28.305 12.614-2.5606 12.614-20.812 12.614-25.088 0-28.141-18.252-28.141-26.943-28.141h-15.351zm16.209-53.557h2.8885c4.2634 0 9.2206 0.68113 9.2206 20.295 0 14.846-1.3623 19.791-9.2206 19.791h-2.8885" fill="#fff"/>
  <path d="m668.45 439.88v-113.77h38.724v14.493h-21.658v32.417h15.691v14.506h-15.691v37.866h23.196v14.493z" fill="#fff"/>
  <path d="m759.54 439.88v-47.768l-17.23-66.007h16.89l5.1211 23.878c2.2074 10.242 4.4274 20.131 4.9445 28.999 0.85773-10.394 3.7462-26.955 4.4274-29.844l4.6166-23.032h16.196l-17.911 65.679v48.096z" fill="#fff"/>
  <path d="m845.9 383.08c0-0.68114 0-30.197 1.3623-37.362 0.68113-3.5823 1.8794-6.824 6.1428-6.824 4.44 0 6.4834 3.2417 6.824 11.605 0.68114 12.109 0.84512 19.274 0.84512 35.482 0 2.0434 0 26.602-1.5262 34.284-0.68114 3.4057-1.8794 6.824-6.1428 6.824s-5.4617-3.5823-6.1428-6.824c-1.3623-7.6817-1.3623-28.318-1.3623-37.185m-18.252 0c0 33.439 2.7245 58.161 25.757 58.161 18.075 0 25.934-14.152 25.934-58.161s-7.8583-58.351-25.934-58.351c-23.537 0-25.757 26.11-25.757 58.351" fill="#fff"/>
  <path d="m960.01 439.88-15.174-50.316c-0.51715-1.7154-4.0994-13.143-7.3537-28.658 0.52977 12.954 1.3749 35.129 1.3749 42.306v36.668h-13.989v-113.77h14.329l14.506 51.173c3.9102 13.812 5.2725 18.933 7.8457 29.856-0.85773-13.484-1.5389-28.154-1.5389-40.603v-40.427h13.825v113.77z" fill="#fff"/>
  <path d="m1039.2 340.59c5.2978 0 9.8891 0 12.286 12.803 1.7028 9.5485 1.7028 25.58 1.7028 31.383 0 5.4491-0.1765 26.438-3.2417 34.296-2.5605 6.3068-5.6256 6.3068-10.747 6.3068zm-17.054 99.282h18.933c16.549 0 29.856-5.1085 29.856-56.799 0-12.626-0.6811-34.284-7.6817-44.867-7.5051-11.769-16.372-12.109-24.912-12.109h-16.196z" fill="#fff"/>
  <path d="m563.69 279.03c0-19.665 7.2781-32.076 15.969-33.388-8.6908-10.684-23.196-16.398-36.39-16.398-14.518 0-27.548 6.2942-36.542 16.309 8.5773 1.7028 11.491 8.88 11.491 20.018h-10.495c0-6.5591-1.3623-9.9648-5.2599-9.9648-1.7407 0-3.103 0.89557-3.8976 2.3966-0.11352 0.25227-0.22704 0.50455-0.34057 0.75682-0.30272 0.84511-0.4667 1.8164-0.4667 2.9011 0 13.61 22.339 12.929 22.339 33.842 0 8.1736-6.2437 15.78-13.307 15.78 9.271 10.129 21.91 16.171 36.479 16.171 14.152 0 26.917-5.9915 35.886-15.578-8.2619-2.0812-15.464-13.963-15.464-32.846m-4.667 32.417h-11.239v-27.939h-12.134v27.939h-11.264v-64.493h11.226v25.984h12.172v-25.984h11.239z" fill="#df001c"/>
  <path d="m503.88 301.19c3.1408 0 5.3608-2.775 5.3608-6.7861 0-8.3124-7.2907-9.9143-15.073-16.953-0.1009 14.241 4.3012 23.739 9.7125 23.739" fill="#df001c"/>
  <path d="m574.87 277.99c0-10.86 3.1534-21.733 8.9304-21.733 6.8492 0 8.5773 16.789 8.5773 22.099 0 11.63-3.658 22.137-8.5773 22.137-5.9158 0-8.9304-11.075-8.9304-22.503" fill="#df001c"/>
  <path d="m689.68 247.85h-47.377l-4.5031 36.832h-0.16398l-5.0328-36.832h-10.305l-5.4617 36.832h-0.16398l-4.0616-36.832h-10.394l8.3628 62.74h10.04l5.6509-39.746h0.16398l5.4617 39.746h10.406l6.9249-53.053h9.7377v53.053h11.441v-53.053h10.495v53.053h11.453v-62.74z" fill="#df001c"/>
  <path d="m697.98 247.85h15.25l5.1085 32.165h0.17659l5.3734-32.165h14.897v62.74h-10.23v-46.002h-0.16398l-7.7574 46.002h-6.3446l-7.6691-46.002h-0.17659v46.002h-8.4637z" fill="#df001c"/>
  <path d="m744.41 247.85h25.921v9.6873h-14.455v16.045h10.659v10.217h-10.659v17.091h15.061v9.6999h-26.526z" fill="#df001c"/>
 </g>
</svg>
