<svg width="744.39" height="225.07" version="1.1" viewBox="0 0 697.87 211" xmlns="http://www.w3.org/2000/svg">
 <g transform="translate(-103.16 -467.48)">
  <path d="m354.3 678.48h-4.2797l-25.695-67.983-25.908 67.983h-4.0993l-35.762-85.315h8.7561l28.498 68.18 26.268-68.18h4.8372l25.531 68.18 29.056-68.18h8.9365z"/>
  <path d="m471.12 635.08c0 19.923-14.151 34.647-32.958 34.647-19.004 0-33.155-14.725-33.155-34.647 0-20.103 14.151-34.828 33.155-34.828 18.808 0 32.958 14.889 32.958 34.828m9.5104 0c0-24.957-18.07-43.584-42.469-43.584-24.416 0-42.666 18.627-42.666 43.584 0 24.776 18.25 43.404 42.666 43.404 24.399 0 42.469-18.627 42.469-43.404"/>
  <path d="m508.75 607.89h0.37714c7.4444-11.74 15.266-16.397 26.629-16.397 13.036 0 21.612 6.5097 27.023 20.119 8.379-13.97 16.955-20.119 29.056-20.119 17.512 0 29.072 13.397 29.072 33.91v51.405h-8.9529v-47.503c0-16.774-7.0836-29.056-21.792-29.056-10.248 0-16.971 5.5751-25.334 19.546v57.013h-8.9365v-47.683c0-20.677-10.265-28.876-21.989-28.876-10.248 0-17.332 5.0176-25.153 17.889v58.669h-8.9365v-83.642h8.9365z"/>
  <path d="m650.32 624.65c3.1647-15.282 13.97-24.399 27.761-24.399 14.348 0 23.284 8.0019 26.449 24.399zm64.835 7.264c0-27.941-19.185-40.419-37.074-40.419-22.169 0-38.37 17.873-38.37 42.469 0 25.891 17.512 44.519 41.715 44.519 12.118 0 22.366-3.5418 32.237-11.183v-10.052c-10.806 8.7561-19.939 12.478-31.122 12.478-18.988 0-35.943-16.381-33.336-37.812z"/>
  <path d="m741.97 607.69h0.37714c7.8215-11.724 15.463-16.2 27.58-16.2 17.873 0 31.106 11.74 31.106 34.27v51.045h-8.9365v-47.683c0-18.824-8.0183-28.876-22.727-28.876-12.118 0-19.939 5.7718-27.4 17.889v58.669h-8.9365v-83.642h8.9365z"/>
  <path d="m196.62 534.4c0-26.449 9.7728-43.125 21.464-44.879-11.691-14.364-31.204-22.038-48.913-22.038-19.529 0-37.058 8.461-49.126 21.923 11.527 2.2792 15.446 11.937 15.446 26.908h-14.102c0-8.8217-1.8365-13.397-7.0672-13.397-2.3448 0-4.1649 1.197-5.2471 3.2139-0.14758 0.32795-0.29515 0.67229-0.45913 1.033-0.40993 1.115-0.62309 2.4268-0.62309 3.8862 0 18.299 30.023 17.365 30.023 45.486 0 10.97-8.4118 21.218-17.889 21.218 12.462 13.593 29.449 21.743 49.044 21.743 19.021 0 36.172-8.0674 48.224-20.956-11.117-2.7875-20.775-18.775-20.775-44.141m-6.2966 43.584h-15.102v-37.583h-16.315v37.583h-15.135v-86.709h15.118v34.943h16.332v-34.943h15.102z" fill="#df001c" fill-rule="evenodd"/>
  <path d="m116.21 564.18c4.2141 0 7.2148-3.7222 7.2148-9.1005 0-11.199-9.7892-13.347-20.267-22.792-0.14757 19.119 5.7718 31.893 13.052 31.893" fill="#df001c" fill-rule="evenodd"/>
  <path d="m211.63 532.99c0-14.577 4.2469-29.187 12.003-29.187 9.1989 0 11.527 22.563 11.527 29.679 0 15.643-4.9192 29.777-11.527 29.777-7.9527 0-12.003-14.889-12.003-30.269" fill="#df001c" fill-rule="evenodd"/>
  <path d="m362.48 492.47h-63.671l-6.0342 49.52h-0.22957l-6.7557-49.52h-13.872l-7.3296 49.52h-0.24596l-5.4439-49.52h-13.97l11.249 84.331h13.495l7.5919-53.422h0.22957l7.346 53.422h13.97l9.3136-71.295h13.069v71.295h15.397v-71.295h14.102v71.295h15.397v-84.331z" fill="#df001c"/>
  <path d="m373.65 492.47h20.497l6.8704 43.24h0.24596l7.2312-43.24h20.005v84.331h-13.725v-61.818h-0.26236l-10.412 61.818h-8.5266l-10.297-61.818h-0.26236v61.818h-11.363z" fill="#df001c"/>
  <path d="m436.06 492.47h34.828v13.036h-19.431v21.546h14.348v13.757h-14.348v22.973h20.267v13.019h-35.664z" fill="#df001c"/>
 </g>
</svg>
