<svg width="813.03" height="291.2" version="1.1" viewBox="0 0 762.21 273" xmlns="http://www.w3.org/2000/svg">
 <g transform="translate(451.57 -387.02)" fill="#e51635">
  <path d="m-424.59 586.98c8.7186 0 14.912-7.6645 14.912-18.832 0-23.103-20.237-27.605-41.891-47.129-0.30746 39.574 11.958 65.961 26.979 65.961" fill-rule="evenodd"/>
  <path d="m-271.31 615.54h-31.229v-77.71h-33.732v77.71h-31.295v-179.3h31.24v72.198h33.787v-72.198h31.229zm13.012-90.129c0-54.694 20.215-89.206 44.384-92.83-24.157-29.703-64.5-45.559-101.16-45.559-40.343 0-76.601 17.503-101.58 45.317 23.839 4.7436 31.932 24.728 31.932 55.639h-29.143c0-18.239-3.7993-27.682-14.593-27.682-4.8754 0-8.6637 2.4597-10.871 6.6433-0.31844 0.72472-0.63687 1.4055-0.94433 2.1302-0.84551 2.3389-1.2957 5.0291-1.2957 8.0488 0 37.817 62.106 35.94 62.106 94.049 0 22.708-17.404 43.89-36.994 43.89 25.75 28.132 60.898 44.966 101.38 44.966 39.366 0 74.822-16.68 99.737-43.33-22.982-5.7648-42.956-38.816-42.956-91.282" fill-rule="evenodd"/>
  <path d="m-227.25 522.5c0-30.175 8.7735-60.36 24.805-60.36 19.073 0 23.872 46.635 23.872 61.393 0 32.327-10.168 61.546-23.872 61.546-16.449 0-24.805-30.768-24.805-62.579" fill-rule="evenodd"/>
  <path d="m84.728 438.72h-131.67l-12.507 102.38h-0.47217l-13.978-102.38h-28.648l-15.186 102.38h-0.5051l-11.266-102.38h-28.901l23.268 174.41h27.935l15.68-110.48h0.48315l15.186 110.48h28.912l19.249-147.47h27.045v147.47h31.822v-147.47h29.175v147.47h31.844v-174.41h-7.4668"/>
  <path d="m107.83 438.72h42.363l14.209 89.404h0.48314l14.945-89.404h41.397v174.41h-28.396v-127.87h-0.51609l-21.533 127.87h-17.646l-21.313-127.87h-0.47217v127.87h-23.52v-174.41"/>
  <path d="m236.87 438.72h72.011v26.935h-40.167v44.559h29.659v28.418h-29.659v47.535h41.924v26.957h-73.768v-174.41"/>
 </g>
</svg>
