<svg width="638.32" height="237.22" version="1.1" viewBox="0 0 598.43 222.4" xmlns="http://www.w3.org/2000/svg">
 <g transform="translate(-41.146 -391.43)">
  <path d="m105.98 437.85c0-18.352 6.7735-29.915 14.88-31.14-8.091-9.9511-21.623-15.283-33.93-15.283-13.516 0-25.684 5.8745-34.054 15.206 7.998 1.581 10.711 8.2926 10.711 18.662h-9.7806c0-6.1225-1.2865-9.2846-4.9135-9.2846-1.612 0-2.883 0.82151-3.627 2.2165-0.1085 0.248-0.217 0.4805-0.3255 0.7285-0.279 0.77501-0.434 1.674-0.434 2.697 0 12.679 20.832 12.044 20.832 31.558 0 7.6106-5.8435 14.71-12.416 14.71 8.6491 9.4396 20.429 15.082 34.007 15.082 13.206 0 25.11-5.58 33.465-14.524-7.7036-1.953-14.415-13.02-14.415-30.628m-4.3555 30.225h-10.478v-26.071h-11.315v26.071h-10.509v-60.14h10.494v24.227h11.331v-24.227h10.478z" fill="#df001c" fill-rule="evenodd"/>
  <path d="m50.215 458.5c2.914 0 4.991-2.573 4.991-6.3085 0-7.75-6.789-9.2536-14.059-15.81-0.093 13.268 4.0145 22.119 9.0676 22.119" fill="#df001c" fill-rule="evenodd"/>
  <path d="m116.4 436.88c0-10.106 2.945-20.243 8.3236-20.243 6.386 0 8.0136 15.64 8.0136 20.584 0 10.85-3.4255 20.646-8.0136 20.646-5.518 0-8.3236-10.323-8.3236-20.987" fill="#df001c" fill-rule="evenodd"/>
  <path d="m221.04 408.78h-44.16l-4.185 34.333h-0.1705l-4.681-34.333h-9.6256l-5.084 34.333h-0.1705l-3.782-34.333h-9.6876l7.812 58.497h9.3621l5.2545-37.061h0.155l5.115 37.061h9.6876l6.4635-49.461h9.0676v49.461h10.664v-49.461h9.7961v49.461h10.664v-58.497z" fill="#df001c"/>
  <path d="m228.79 408.78h14.214l4.774 29.993h0.155l5.0065-29.993h13.888v58.497h-9.5171v-42.873h-0.1705l-7.2385 42.873h-5.9055l-7.161-42.873h-0.155v42.873h-7.8896z" fill="#df001c"/>
  <path d="m272.08 408.78h24.149v9.0366h-13.47v14.958h9.9356v9.5171h-9.9356v15.95h14.059v9.0366h-24.738z" fill="#df001c"/>
  <path d="m226.17 611.77-30.861-42.703c-5.735-7.9516-16.833-24.599-20.166-30.303 0.93 5.704 1.116 22.94 1.116 33.449v39.556h-34.395v-129.41h31.605l28.489 38.27c5.921 7.936 17.376 25.157 20.135 30.52-0.9145-5.7505-1.085-22.94-1.085-33.48v-35.309h34.379v129.41z"/>
  <path d="m277.94 611.77v-129.41h99.123v30.132h-63.628v17.205h38.301v29.776h-38.301v22.181h64.914v30.117z"/>
  <path d="m603.37 513.6v98.162h-35.883v-98.162h-36.239v-31.248h108.33v31.248z"/>
  <path d="m489.77 544.62 26.505-20.29v-44.02l-61.241 54.421-61.225-54.421v44.02l26.49 20.29z"/>
  <path d="m420.7 549.94-26.893 20.615v43.276l61.225-54.405 61.241 54.405v-43.276l-26.893-20.615z"/>
 </g>
</svg>
