<svg width="745.59" height="206.93" version="1.1" viewBox="0 0 698.99 194" xmlns="http://www.w3.org/2000/svg">
 <g transform="translate(260.81 139.28)">
  <path d="m-123.48-40.934c0-38.866 14.383-63.371 31.554-65.962-17.171-21.102-45.849-32.388-71.891-32.388-28.677 0-54.434 12.45-72.176 32.213 16.93 3.3596 22.683 17.566 22.683 39.547h-20.707c0-12.977-2.7008-19.696-10.386-19.696-3.4474 0-6.1263 1.7566-7.7073 4.743-0.21958 0.48308-0.46112 0.98812-0.6807 1.4932-0.59287 1.6688-0.92224 3.6011-0.92224 5.7311 0 26.877 44.136 25.537 44.136 66.862 0 16.117-12.362 31.159-26.284 31.159 18.291 19.982 43.279 31.949 72.045 31.949 27.975 0 53.161-11.835 70.859-30.785-16.315-4.1062-30.522-27.579-30.522-64.864m-9.2224 64.03h-22.2v-55.203h-23.978v55.203h-22.244v-127.4h22.2v51.316h24.022v-51.316h22.2z" fill="#e51635"/>
  <path d="m-241.63 2.82c6.1922 0 10.584-5.4456 10.584-13.372 0-16.447-14.361-19.609-29.753-33.508-0.21958 28.128 8.4978 46.881 19.169 46.881" fill="#e51635"/>
  <path d="m-101.42-42.989c0-21.453 6.2361-42.906 17.632-42.906 13.548 0 16.974 33.157 16.974 43.631 0 22.99-7.2462 43.719-16.974 43.719-11.682 0-17.632-21.848-17.632-44.443" fill="#e51635"/>
  <path d="m120.28-102.54h-93.586l-8.8711 72.769h-0.35133l-9.9251-72.769h-20.355l-10.781 72.769h-0.35133l-8.0147-72.769h-20.531l16.534 123.93h19.828l11.155-78.5h0.32937l10.803 78.5h20.531l13.702-104.78h19.191v104.78h22.639v-104.78h20.707v104.78h22.639v-123.93z" fill="#e51635"/>
  <path d="m136.68-102.54h30.127l10.079 63.525h0.35133l10.628-63.525h29.402v123.93h-20.18v-90.863h-0.35133l-15.327 90.863h-12.516l-15.151-90.863h-0.32937v90.863h-16.732z" fill="#e51635"/>
  <path d="m228.39-102.54h51.184v19.147h-28.546v31.664h21.036v20.201h-21.036v33.772h29.753v19.147h-52.392z" fill="#e51635"/>
  <path d="m333.69 1.9351c0.10979-11.243 4.2379-21.87 11.55-29.336 6.3678-6.5874 13.57-11.133 19.301-15.437 5.5993-4.4136 9.6396-8.7174 9.6396-14.668 0-6.829-3.7988-11.001-9.5298-11.001-9.5518 0-12.209 8.2343-12.297 17.852h-16.864c-1.054-21.892 10.606-36.692 29.051-36.692 14.624 0 27.667 9.1126 27.667 27.953 0 16.952-10.167 23.276-20.992 31.246-5.6213 4.172-8.5856 6.302-13.351 11.879h35.089v18.203z"/>
  <path d="m430.13-40.541c0-36.253-29.38-65.633-65.633-65.633s-65.655 29.38-65.655 65.633 29.402 65.633 65.655 65.633 65.633-29.38 65.633-65.633z" fill="none" stroke="#000" stroke-width="12.692"/>
 </g>
</svg>
