<svg width="800.01" height="402.92" version="1.1" viewBox="0 0 211.67 106.61" xmlns="http://www.w3.org/2000/svg">
 <g transform="translate(298.6 45.077)">
  <g transform="matrix(.34301 0 0 .34301 -298.6 -45.043)">
   <path class="st0" d="m32.5 72.9 2.6-15.6h25.1c1.7 0 3.2-0.2 4.3-0.5s2-0.7 2.7-1.3c0.7-0.5 1.2-1.1 1.5-1.9 0.3-0.7 0.6-1.5 0.7-2.3 0.2-1.1 0.3-2.2 0.3-3.2s-0.2-1.8-0.7-2.5-1.3-1.2-2.4-1.6-2.7-0.6-4.7-0.6h-1.6c-4.1 0-7.7-0.4-10.6-1.1s-5.2-1.9-6.9-3.5-2.8-3.7-3.3-6.3c-0.2-1.2-0.3-2.5-0.3-3.9 0-1.6 0.2-3.3 0.5-5.2l0.5-3.3c0.6-3.5 1.7-6.5 3.1-9.1s3.3-4.7 5.6-6.3c2.3-1.7 5.1-2.9 8.3-3.7 3.3-0.6 7-1 11.1-1h24.3l-2.6 15.6h-24.1c-1.9 0-3.4 0.1-4.5 0.4-1.2 0.3-2 0.7-2.7 1.3-0.6 0.6-1.1 1.3-1.4 2.1s-0.5 1.8-0.7 2.9-0.2 2-0.1 2.9c0.1 0.8 0.4 1.5 1 2 0.5 0.5 1.3 1 2.4 1.2 1.1 0.3 2.5 0.4 4.2 0.4h1.7c4.1 0 7.6 0.4 10.5 1.1s5.2 1.9 6.9 3.5 2.8 3.7 3.3 6.3c0.3 1.2 0.4 2.5 0.4 4 0 1.6-0.2 3.3-0.5 5.1l-0.5 3.4c-0.6 3.6-1.7 6.6-3.1 9.3-1.4 2.6-3.3 4.8-5.7 6.4-2.3 1.7-5.1 2.9-8.3 3.7s-6.9 1.2-11.1 1.2h-25.2z"/>
   <path class="st0" d="m90.2 72.9 12.5-72.9h28.9c3.7 0 7 0.4 9.8 1.1 2.8 0.8 5.1 2 6.8 3.7 1.8 1.7 3 3.9 3.7 6.6 0.3 1.3 0.5 2.8 0.4 4.4 0 1.7-0.2 3.5-0.5 5.4l-1.6 9.4c-1.2 7.1-4.1 12.4-8.7 15.8s-11.1 5.1-19.3 5.1h-11.6l-3.7 21.4zm23-36.9h11.6c1.7 0 3.1-0.2 4.1-0.5 1.1-0.3 2-0.8 2.6-1.3 0.7-0.6 1.2-1.3 1.5-2.3 0.3-0.9 0.6-2 0.8-3.2l1.2-6.8c0.1-0.8 0.2-1.5 0.2-2.1 0-0.4 0-0.7-0.1-1-0.1-0.8-0.5-1.4-1-1.9s-1.3-0.8-2.2-1-2.1-0.3-3.5-0.3h-11.9z"/>
   <path class="st0" d="m149.9 72.9 12.4-72.9h46.7l-2.7 15.6h-30l-2 11.8h27.7l-2.7 15.6h-27.7l-2.4 14.4h30l-2.7 15.6h-46.6z"/>
   <path class="st0" d="m207.6 53.6 5.9-34.2c0.4-2.3 1.2-4.7 2.4-7s3-4.4 5.2-6.2 5-3.3 8.3-4.5c3.3-1.1 7.2-1.7 11.7-1.7h20.9l-2.7 15.6h-19.1c-2.2 0-4 0.2-5.3 0.7s-2.4 1.1-3.2 1.9-1.3 1.7-1.7 2.7c-0.3 1-0.6 2.1-0.8 3.2l-4.2 25.2c-0.2 1.1-0.3 2.1-0.3 3.1s0.3 1.8 0.8 2.6c0.5 0.7 1.4 1.3 2.5 1.8 1.2 0.4 2.9 0.7 5.1 0.7h19.1l-2.7 15.6h-20.9c-4.5 0-8.2-0.6-11.1-1.7s-5.1-2.6-6.7-4.5c-1.6-1.8-2.6-3.9-3.1-6.2-0.2-1.2-0.4-2.4-0.4-3.7 0-1.2 0.1-2.3 0.3-3.4z"/>
   <path class="st0" d="m265.2 15.6 2.6-15.6h53.6l-2.7 15.6h-18.5l-9.8 57.4h-16.7l9.8-57.4z"/>
   <path class="st0" d="m315.2 72.9 12.5-72.9h28.9c4.1 0 7.6 0.4 10.5 1.3 2.8 0.9 5.1 2.2 6.7 3.9s2.7 3.9 3.1 6.6c0.2 1.2 0.3 2.4 0.3 3.7 0 1.7-0.2 3.6-0.5 5.6l-1.6 9.4c-1.5 8.8-5.7 14.9-12.5 18.1l9.5 24.3h-18l-8.2-21.4h-10.6l-3.7 21.4zm22.8-36.9h11.5c1.6 0 3-0.2 4.1-0.5s2-0.8 2.7-1.3c0.7-0.6 1.2-1.3 1.6-2.3 0.4-0.9 0.7-2 0.9-3.2l1.2-6.8c0.1-0.8 0.2-1.5 0.2-2 0-0.4 0-0.8-0.1-1.1-0.1-0.8-0.5-1.4-1-1.9s-1.3-0.8-2.3-1-2.1-0.3-3.5-0.3h-11.8z"/>
   <path class="st0" d="m380.4 52 8.9-52h16.7l-8.8 51.4c-0.1 0.6-0.1 1.1-0.1 1.6 0 0.7 0.1 1.4 0.3 2 0.4 1 1 1.9 1.9 2.5 0.9 0.7 2 1.2 3.4 1.5s2.9 0.5 4.7 0.5 3.4-0.2 5-0.5c1.5-0.3 2.9-0.9 4-1.6 1.2-0.7 2.1-1.6 2.8-2.7s1.2-2.3 1.5-3.8l8.7-51h16.7l-9 52.8c-0.5 2.7-1.5 5.4-3 8.1s-3.6 5.1-6.3 7.2c-2.6 2.1-5.9 3.8-9.7 5.2-3.8 1.3-8.3 2-13.3 2-4.3 0-8.1-0.5-11.4-1.6s-6-2.6-8.2-4.5c-2.1-2-3.6-4.3-4.4-7.1-0.5-1.6-0.7-3.4-0.7-5.3 0-1.6 0.1-3.1 0.3-4.7z"/>
   <path class="st0" d="m443.7 72.9 12.4-72.9h19.6l10.7 41 24.7-41h19.6l-12.5 72.9h-16.7l7.7-45.3-18.2 30.6h-15.4l-7.6-30.6-7.7 45.3z"/>
  </g>
  <g transform="matrix(.34301 0 0 .34301 -298.6 -45.043)">
   <path class="st0" d="m1.2 240.4 15.6-88.8c1.5-8.5 4.6-16.9 9.2-25.2s11-15.8 19.1-22.4c8.2-6.6 18.2-12 30.2-16.1 11.9-4.1 26-6.1 42.1-6.1 13.5 0 25.3 1.6 35.6 4.9s18.7 7.9 25.2 14.1c6.5 6.1 11.1 13.5 13.8 22.2 1.5 5 2.3 10.3 2.3 15.9 0 4.3-0.4 8.8-1.2 13.5l-15.6 88.6c-1.5 8.5-4.6 16.9-9.2 25.2s-11 15.8-19.1 22.4c-8.2 6.6-18.2 11.9-30.2 16-11.9 4.1-25.9 6.1-42 6.1-13.7 0-25.7-1.6-35.9-4.8-10.3-3.2-18.7-7.8-25.3-13.9s-11.1-13.4-13.7-22.1c-1.4-4.9-2.1-10.2-2.1-15.9 0-4.3 0.4-8.8 1.2-13.6zm52-1.6c-0.4 2-0.6 3.8-0.5 5.6 0 6 2.2 10.5 6.4 13.6 5.5 3.9 14.3 5.9 26.2 5.9 24.3 0 38.1-9 41.3-27l14.4-82.1c0.4-2.2 0.6-4.2 0.6-6.1 0-6.3-2.1-11.1-6.4-14.1-5.5-4.1-14.3-6.1-26.3-6-24.3 0-38 8.9-41.1 26.8z"/>
   <path class="st0" d="m197.6 247.6 18.2-102.9c1.2-7 3.8-14 7.6-21 3.8-6.9 9.2-13.2 16.1-18.8s15.5-10.1 25.7-13.5c10.3-3.4 22.4-5.1 36.4-5.1h64.9l-8.3 46.9h-59.2c-6.8 0-12.4 0.7-16.5 2.1-4.2 1.4-7.5 3.2-9.9 5.6-2.4 2.3-4.1 5.1-5.1 8.1-1 3.1-1.8 6.2-2.4 9.5l-13.5 76.3c-0.6 3.2-0.9 6.3-0.9 9.2s0.8 5.5 2.4 7.8c1.6 2.2 4.2 4 7.9 5.3s8.9 2 15.8 2h59.3l-8.3 46.9h-64.9c-14 0-25.5-1.7-34.5-5.1s-16-7.9-20.9-13.6c-4.9-5.5-8-11.7-9.5-18.7-0.7-3.7-1.1-7.4-1.2-11-0.1-3.4 0.2-6.7 0.8-10z"/>
   <path class="st0" d="m379.4 306 30.8-174.8h-27.4l7.9-44.9h76.1l-38.7 219.7z"/>
   <path class="st0" d="m474.3 290.6c-4.4-5.5-7.3-12.1-8.5-19.8s-1-16.3 0.6-25.7l17.3-97.9c1.3-8 3.6-15.6 6.9-22.9s8-13.8 14-19.5 13.6-10.2 22.8-13.6 20.3-5.1 33.5-5.1h56.2l-8.1 46.9h-54.4c-3.9 0-7.2 0.6-9.8 1.7-2.7 1.1-4.9 2.6-6.7 4.5s-3.3 4.1-4.4 6.6-1.9 5.2-2.4 8.1l-3.2 18.4h19.5c11.6 0 21.6 0.9 29.9 2.6s14.9 4.7 19.8 9 8.1 10.2 9.5 17.5c1.4 7.4 1.2 16.7-0.8 28l-2.6 15c-1.4 7.9-3.8 15.7-7 23.2-3.3 7.6-8 14.3-14.3 20.3s-14.3 10.8-24.2 14.4c-9.9 3.7-22 5.5-36.4 5.5-11.4 0-21-1.5-28.8-4.6-7.9-2.7-14-7-18.4-12.6zm41.1-45.2c-0.6 3-0.5 5.5 0.2 7.5 0.8 2 1.9 3.6 3.5 4.8s3.5 2.1 5.7 2.6 4.6 0.8 7 0.8c5.1 0 9.1-0.7 12.1-2.2s5.2-3.1 6.7-5 2.5-3.7 3-5.4c0.5-1.8 0.7-3 0.8-3.7l1.5-8.7c0.4-2.2 0.6-4.3 0.5-6.4s-0.6-3.9-1.7-5.4-2.8-2.8-5.3-3.7-5.9-1.4-10.3-1.4h-19.5z"/>
  </g>
 </g>
</svg>
