<svg width="69.3px" height="27px" enable-background="new 0 0 69.3 27" version="1.1" viewBox="0 0 69.3 27" xml:space="preserve" xmlns="http://www.w3.org/2000/svg">
<path class="st0" d="m21.3 5.8v0.4c0 0.2 0.1 0.5 0.3 0.7s0.4 0.4 0.7 0.5c0.4 0.1 0.8 0.2 1.1 0.2h2.1l0.3-1.6h-1.9c-0.2 0-0.3 0-0.5-0.1-0.1 0-0.2-0.1-0.3-0.2s-0.1-0.2-0.1-0.3v-0.3l0.4-2.6c0-0.1 0-0.2 0.1-0.3 0-0.1 0.1-0.2 0.2-0.3s0.2-0.2 0.3-0.2c0.2-0.1 0.4-0.1 0.5-0.1h1.9l0.5-1.6h-2.1c-0.4 0-0.8 0.1-1.2 0.2-0.3 0.1-0.6 0.3-0.8 0.5s-0.4 0.4-0.5 0.6c-0.2 0.2-0.3 0.4-0.3 0.7l-0.6 3.5c-0.1 0.1-0.1 0.2-0.1 0.3z" fill="#1c4176"/>
<path d="m20.2 7.4 0.3-1.5h-3l0.2-1.5h2.8l0.3-1.6h-2.8l0.2-1.2h3.1l0.2-1.6h-4.8l-1.2 7.4z" fill="#1c4176"/>
<path class="st0" d="m60.6 13.5c0.2-0.2 0.5-0.4 0.7-0.4 0.4-0.1 0.8-0.2 1.2-0.2h6l0.6-3.8h-6.1c-2.1 0-3.7 0.4-4.8 1.2s-1.8 2.1-2.1 3.8l-0.2 0.8c0 0.2-0.1 0.5-0.1 0.6v0.6c-0.1 1.1 0.4 2.1 1.3 2.7s2.2 0.9 4.1 0.9h0.3c0.5 0 1.1 0.1 1.5 0.3 0.3 0.2 0.4 0.6 0.4 0.9s0 0.5-0.1 0.8c0 0.3-0.1 0.5-0.3 0.7s-0.4 0.4-0.7 0.5c-0.4 0.1-0.9 0.2-1.3 0.2h-6.3l-0.4 3.9h6.4c2.1 0 3.7-0.4 4.8-1.2s1.8-2.1 2.1-3.8l0.2-0.8c0-0.2 0.1-0.5 0.1-0.7v-0.6c0.1-1.1-0.4-2.1-1.3-2.7s-2.2-0.8-4.1-0.8h-0.3c-0.5 0-1.1-0.1-1.5-0.3-0.3-0.2-0.5-0.5-0.4-0.9 0-0.3 0-0.6 0.1-0.9 0-0.4 0.1-0.6 0.2-0.8z" fill="#1c4176"/>
<path d="m52.4 9.1-5.6 12.1-0.6-12.1h-3l-5.6 12.1-0.5-12.1h-4.3l0.8 17.8h5l4.6-10 0.4 10h4.9l8.2-17.8z" fill="#1c4176"/>
<path d="m47.1 7.4 0.8-4.6 0.8 3.1h1.5l1.9-3.1-0.8 4.6h1.7l1.3-7.4h-2l-2.5 4.2-1.1-4.2h-2l-1.3 7.4z" fill="#1c4176"/>
<path d="m28.1 7.4h1.7l1-5.8h1.9l0.2-1.6h-5.4l-0.3 1.6h1.9z" fill="#1c4176"/>
<path class="st0" d="m39.4 7c0.2 0.2 0.5 0.4 0.8 0.5 0.4 0.1 0.8 0.2 1.2 0.2 0.5 0 0.9-0.1 1.4-0.2 0.4-0.1 0.7-0.3 1-0.5s0.5-0.5 0.6-0.8 0.3-0.5 0.3-0.8l0.9-5.4h-1.7l-0.9 5.2c0 0.1-0.1 0.3-0.2 0.4l-0.3 0.3s-0.2 0.1-0.3 0.1c-0.2 0-0.3 0.1-0.5 0h-0.5c-0.1 0-0.2 0-0.3-0.1s-0.2-0.2-0.2-0.3v-0.4l0.8-5.2h-1.7l-0.9 5.3v0.5c0 0.2 0 0.3 0.1 0.5 0.1 0.3 0.2 0.5 0.4 0.7z" fill="#1c4176"/>
<path d="m28.1 7.4z" fill="#1c4176"/>
<path d="m13.8 9.1-2 11.1-3.5-11.1h-5.2l-3.1 17.8h4.1l1.9-11 3.6 11.1h5.1l3.2-17.9z" fill="#1c4176"/>
<path class="st0" d="m38.6 1.2c0-0.3-0.1-0.5-0.3-0.7s-0.4-0.3-0.7-0.4c-0.4-0.1-0.7-0.1-1.1-0.1h-2.9l-1.3 7.4h1.7l0.4-2.2h1.1l0.8 2.2h1.8l-1-2.5c0.7-0.4 1.2-1.1 1.3-1.8l0.2-1v-0.9zm-1.7 0.8v0.2l-0.1 0.7c0 0.1 0 0.2-0.1 0.3 0 0.1-0.1 0.2-0.2 0.2-0.1 0.1-0.2 0.1-0.3 0.1h-1.6l0.4-1.9h1.6c0.1 0 0.2 0 0.2 0.1 0.1 0 0.1 0.1 0.1 0.2v0.1z" fill="#1c4176"/>
<path class="st0" d="m7.2 7.3c0.3-0.1 0.6-0.2 0.8-0.4l0.6-0.6c0.2-0.3 0.3-0.6 0.3-1l0.1-0.3v-0.9c0-0.2-0.2-0.5-0.3-0.6-0.2-0.2-0.5-0.4-0.7-0.4-0.4-0.1-0.7-0.2-1.1-0.2h-0.6c-0.1 0-0.2-0.1-0.3-0.1 0-0.1 0-0.2-0.1-0.2v-0.3c0.1-0.1 0.1-0.2 0.1-0.3s0.1-0.2 0.1-0.2c0.1-0.1 0.2-0.1 0.3-0.1 0.2 0 0.3-0.1 0.5 0h2.5l0.2-1.7h-2.4c-0.4 0-0.8 0-1.2 0.1-0.3 0.1-0.6 0.2-0.8 0.4-0.3 0.2-0.4 0.4-0.6 0.7-0.1 0.2-0.2 0.6-0.3 0.9v1.2c0 0.2 0.2 0.5 0.3 0.6 0.2 0.2 0.4 0.4 0.7 0.4 0.3 0.1 0.7 0.1 1 0.1h0.2c0.2 0 0.3 0 0.5 0.1 0.1 0 0.2 0.1 0.2 0.2s0.1 0.2 0.1 0.3v0.3c0 0.1 0 0.2-0.1 0.2 0 0.1-0.1 0.1-0.2 0.2-0.1 0-0.2 0.1-0.3 0.1s-0.3 0.1-0.4 0h-2.6l-0.2 1.6h2.5c0.4 0 0.8 0 1.2-0.1z" fill="#1c4176"/>
<path class="st0" d="m11.1 7.4 0.4-2.2h1.2c0.7 0 1.4-0.1 2-0.5 0.5-0.4 0.8-1 0.9-1.6l0.2-1v-1.1c-0.1-0.3-0.2-0.5-0.4-0.7s-0.4-0.3-0.7-0.4c-0.4 0.1-0.8 0.1-1.1 0.1h-3l-1.2 7.4h1.7zm1-5.8h1.6c0.1 0 0.2 0 0.2 0.1 0 0 0.1 0.1 0.1 0.2v0.3l-0.1 0.7c0 0.1 0 0.2-0.1 0.3 0 0.1-0.1 0.2-0.2 0.2-0.1 0.1-0.2 0.1-0.3 0.1s-0.3 0.1-0.4 0h-1.2l0.4-1.9z" fill="#1c4176"/>
<path d="m16.9 26.9h11.4l0.7-3.8h-7.1l0.6-3.5h6.6l0.6-3.8h-6.5l0.5-2.9h7.1l0.7-3.8h-11.4z" fill="#1c4176"/>
</svg>
