<svg width="100.6px" height="27.3px" enable-background="new 0 0 100.6 27.3" version="1.1" viewBox="0 0 100.6 27.3" xml:space="preserve" xmlns="http://www.w3.org/2000/svg">
<path class="st0" d="m8.6 7.8c-1.3 0-2.5 0.5-3.4 1.4l0.2-1h-3.1l-2.3 12.9h3.1l1.5-8.4c0.2-1.3 1.5-2.2 3-2.2 0.5-0.1 1 0.1 1.4 0.5 0.2 0.2 0.3 0.5 0.3 0.8v0.3l-1.6 9.1h3.1l1.6-9.2c0-0.2 0.1-0.5 0.1-0.7-0.1-2.2-1.7-3.5-3.9-3.5z" fill="#1c4176"/>
<path d="m35.4 10.9 0.5-2.7h-9.9l-0.5 2.7h3.4l-1.8 10.2h3.1l1.8-10.2z" fill="#1c4176"/>
<path d="m19.9 7.8h0.1z" fill="#1c4176"/>
<path class="st0" d="m19.9 7.8c-1.2 0-2.4 0.2-3.5 0.8-1.3 0.7-2.2 1.9-2.4 3.3l-1 5.5c0 0.2-0.1 0.5-0.1 0.7 0 2.1 1.7 3.4 4.6 3.4 0.5 0 0.9 0 1.3-0.1 2.9-0.4 4.3-2.3 4.6-4l1-5.5c0-0.2 0.1-0.5 0.1-0.7 0-2.2-1.7-3.4-4.6-3.4zm1.4 4.3-0.9 5.1c-0.1 0.8-0.7 1.4-1.5 1.5h-0.9c-1.2 0-1.8-0.4-1.8-1.2v-0.3l0.9-5.1c0.1-0.5 0.3-0.9 0.8-1.2s1.1-0.4 1.6-0.4c0.8 0 1.3 0.2 1.5 0.5 0.2 0.2 0.3 0.5 0.3 0.8v0.3z" fill="#1c4176"/>
<path d="m18 18.8z" fill="#1c4176"/>
<path d="m37.4 8.2-2.3 12.9h3.1l2.3-12.9z" fill="#1c4176"/>
<path class="st0" d="m44.5 12.4c0-0.8 0.7-1.4 1.5-1.5h4l0.5-2.8h-3.7c-0.4 0-0.8 0-1.2 0.1-2.5 0.4-3.7 1.9-3.9 3.4 0 0.1-0.9 5.2-1.1 6.1-0.3 1.7 0.6 3.4 3.9 3.4h3.7l0.5-2.8h-3.5c-1.6 0-1.6-0.7-1.5-1.5l0.8-4.4z" fill="#1c4176"/>
<path d="m52.4 8.2-2.3 12.9h3.1l2.3-12.9z" fill="#1c4176"/>
<path class="st0" d="m54.4 21.1h3.2l1.4-2.9h3.6v2.9h3.2v-13h-5.1l-6.3 13zm8.2-5.1h-2.6l2.6-5.2v5.2z" fill="#1c4176"/>
<path d="m60.6 8.2z" fill="#1c4176"/>
<path class="st0" d="m71.5 8.4c-1.7 0.4-2.7 1.5-3 3.5l-0.1 0.6c-0.1 0.3-0.1 0.6-0.1 0.9 0 1.8 1.2 2.6 3.9 2.6h0.2c1.1 0 1.4 0.3 1.4 0.9s-0.1 1.4-1.2 1.5h-5.1l-0.5 2.7h4.6c3.1 0 4.6-1.1 5-3.7l0.1-0.6c0.1-0.3 0.1-0.6 0.1-0.9 0-1.8-1.2-2.6-3.9-2.6h-0.2c-1 0-1.4-0.3-1.4-0.9 0-0.8 0.2-1.4 1.2-1.5h4.9l0.6-2.7h-4.4c-0.7-0.1-1.4 0-2.1 0.2z" fill="#1c4176"/>
<path class="st0" d="m5.6 6.6c0.3-0.1 0.5-0.2 0.8-0.4 0.2-0.2 0.4-0.4 0.5-0.6l0.4-1.2v-0.9c0-0.2-0.1-0.4-0.3-0.6-0.2 0-0.4-0.1-0.7-0.1-0.3-0.1-0.6-0.1-0.9-0.1h-0.6c-0.1 0-0.1-0.1-0.2-0.1 0 0-0.1-0.1-0.1-0.2v-0.3c0-0.1 0.1-0.2 0.1-0.3s0.1-0.1 0.1-0.2c0.1-0.1 0.2-0.1 0.3-0.1h2.6l0.3-1.5h-2.3c-0.3 0-0.6 0-1 0.1-0.3 0.1-0.5 0.2-0.7 0.4-0.3 0.1-0.4 0.3-0.6 0.5-0.1 0.3-0.2 0.6-0.2 0.9l-0.1 0.3v0.8c0 0.2 0.1 0.4 0.3 0.6s0.4 0.3 0.6 0.3c0.3 0.1 0.7 0.1 1 0.1h0.1c0.1 0 0.3 0 0.4 0.1 0.1 0 0.2 0.1 0.2 0.1 0 0.1 0.1 0.1 0.1 0.2v0.3c0 0.1 0 0.1-0.1 0.2 0 0.1-0.1 0.1-0.1 0.2s-0.1 0.2-0.2 0.2-0.3 0.1-0.4 0h-2.3l-0.3 1.5h2.3c0.4 0 0.7-0.1 1-0.2z" fill="#1c4176"/>
<path class="st0" d="m13.3 2v-0.9l-0.3-0.6c-0.2-0.2-0.4-0.3-0.6-0.3-0.3-0.2-0.6-0.2-0.9-0.2h-2.7l-1.2 6.7h1.5l0.3-2h1.1c0.6 0 1.3-0.1 1.8-0.5s0.7-0.9 0.8-1.4l0.2-0.8zm-1.5-0.2v0.2l-0.1 0.6c0 0.1 0 0.2-0.1 0.3 0 0.1-0.1 0.2-0.1 0.2-0.1 0.1-0.2 0.1-0.2 0.1h-1.5v-0.3c0.1-0.4 0.3-1.6 0.3-1.6h1.4c0.1 0 0.1 0 0.2 0.1 0.1 0.2 0.1 0.3 0.1 0.4z" fill="#1c4176"/>
<path class="st0" d="m17.4 6.7 0.2-1.4h-2.8l0.3-1.3h2.6l0.2-1.4h-2.6l0.2-1.1h2.8l0.3-1.5h-4.3l-1.2 6.7h4.3z" fill="#1c4176"/>
<path class="st0" d="m18.4 5.3v0.3c0 0.2 0.1 0.4 0.3 0.6s0.4 0.3 0.6 0.4c0.3 0.1 0.7 0.2 1 0.2h1.9l0.2-1.4h-1.8c-0.2 0-0.3 0-0.5-0.1-0.1 0-0.2-0.1-0.2-0.2 0.1-0.1 0.1-0.2 0.1-0.2v-0.3l0.4-2.4c0-0.1 0-0.2 0.1-0.3 0-0.1 0.1-0.2 0.2-0.3s0.2-0.1 0.3-0.2c0.2 0 0.3-0.1 0.5-0.1h1.8l0.2-1.3h-1.9c-0.4 0-0.7 0-1.1 0.2-0.3 0.1-0.5 0.2-0.8 0.4-0.2 0.2-0.4 0.4-0.5 0.6-0.1 0.1-0.2 0.4-0.2 0.6l-0.6 3.2v0.3z" fill="#1c4176"/>
<path d="m26.1 6.7 0.9-5.3h1.7l0.2-1.4h-4.9l-0.3 1.4h1.7l-0.9 5.3z" fill="#1c4176"/>
<path class="st0" d="m29.8 6.7 0.3-2h1l0.8 2h1.7l-0.9-2.2c0.6-0.3 1.1-1 1.1-1.7l0.2-0.8v-0.8c0-0.2-0.1-0.4-0.3-0.6s-0.4-0.3-0.6-0.4c-0.3-0.2-0.6-0.2-1-0.2h-2.7l-1.2 6.7h1.6zm0.9-5.3h1.4c0.1 0 0.1 0 0.2 0.1 0 0 0.1 0.1 0.1 0.2v0.3l-0.1 0.6c0 0.1 0 0.2-0.1 0.3 0 0.1-0.1 0.2-0.2 0.2 0 0.1 0 0.2-0.1 0.2h-1.5l0.3-1.9z" fill="#1c4176"/>
<path class="st0" d="m34.8 6.4c0.2 0.2 0.5 0.3 0.8 0.4s0.6 0.2 1 0.2 0.8-0.1 1.2-0.2c0.3-0.1 0.6-0.3 0.9-0.5 0.2-0.2 0.4-0.4 0.6-0.7 0.1-0.2 0.2-0.5 0.3-0.8l0.8-4.8h-1.5l-0.9 4.7c0 0.3-0.2 0.5-0.4 0.6-0.1 0.1-0.2 0.1-0.4 0.1h-0.9c-0.1 0-0.2-0.1-0.3-0.1l-0.2-0.2v-0.4l0.8-4.7h-1.5l-0.8 4.8v0.4c0 0.2 0 0.3 0.1 0.5 0 0.3 0.2 0.5 0.4 0.7z" fill="#1c4176"/>
<path d="m41.7 6.7 0.7-4.1 0.7 2.8h1.4l1.7-2.8-0.7 4.1h1.5l1.2-6.7h-1.8l-2.3 3.8-1-3.8h-1.8l-1.2 6.7z" fill="#1c4176"/>
<path class="st0" d="m80.6 0.7v20.7h2.4v5.9h7.3v-5.9h10.4v-20.7h-20.1zm7.7 24.7h-3.3v-10h-1.1v-2.6h4.4v12.6zm2-15.2h-2.3l-2.3-4.5v4.5h-1.9v-7.8h2.3l2.4 4.8v-4.8h1.8v7.8zm6.3 5v4.5h-1.6v-4.7c0-0.1 0-0.3-0.1-0.4-0.2-0.2-0.4-0.3-0.7-0.2-0.6 0-1.1 0.4-1.1 1v4.2h-1.4v-6.3h1.4v0.5c0.4-0.4 1-0.7 1.7-0.7 1.1 0 1.8 0.6 1.8 1.7v0.4zm-0.5-8.1v3h-1.8v-3l-2.5-4.7h2l1.5 3.1 1.5-3.1h2l-2.7 4.7z" fill="#1c4176"/>
</svg>
