<svg width="773.8" height="412.04" version="1.1" viewBox="0 0 773.8 412.04" xml:space="preserve" xmlns="http://www.w3.org/2000/svg">
<g transform="translate(-13.203 -194.16)" fill="#fff">
	<path class="st0" d="m94.8 224.2c6.1-1.3 12.2-2.3 18.3-3.1 6.1-0.9 12.1-1.6 18.2-2.3 12.1-1.3 24.2-2.4 36.3-3.3s24.2-1.7 36.3-2.3 24.2-1.2 36.3-1.6 24.2-0.8 36.3-1.1 24.2-0.5 36.3-0.6c24.2-0.2 48.4-0.2 72.6 0.1s48.4 0.8 72.6 1.7c-24.2 0.9-48.3 1.8-72.5 2.7-24.2 1-48.3 2.1-72.4 3.3-12.1 0.6-24.1 1.3-36.2 2s-24.1 1.5-36.1 2.3-24.1 1.7-36.1 2.7-24 2.1-36 3.2"/>
		<path class="st0" d="m21.8 281.1c0.8 0.6 1.7 1.1 2.6 1.5 1.8 0.8 3.7 1.4 5.6 2 3.8 1.1 7.8 1.8 11.7 2.5 7.9 1.3 15.9 2.3 23.8 3.1 8 0.8 16 1.5 24 2.1s16 1.1 24 1.5c32.1 1.8 64.2 2.9 96.3 3.7 8 0.2 16.1 0.4 24.1 0.6l24.1 0.5c16.1 0.3 32.1 0.5 48.2 0.7l48.2 0.4c16.1 0.1 32.1 0.2 48.2 0.1 16.1 0 32.1 0 48.2-0.1s32.1-0.3 48.2-0.5 32.1-0.5 48.2-0.9l24.1-0.6c8-0.2 16-0.4 24.1-0.7 32.1-1 64.2-2.4 96.2-4.6 16-1.1 32-2.4 47.9-4.2 4-0.4 8-0.9 11.9-1.5 4-0.5 7.9-1.1 11.9-1.8s7.9-1.4 11.8-2.4c1.9-0.5 3.9-1 5.8-1.6s3.8-1.3 5.6-2.2c-1.7 1.1-3.5 2-5.4 2.8s-3.8 1.5-5.7 2.2c-3.8 1.3-7.7 2.5-11.6 3.5-7.8 2.1-15.7 3.8-23.7 5.3-15.9 3.1-31.8 5.4-47.8 7.6-32 4.2-64.2 7-96.3 9.3-8 0.6-16.1 1.1-24.1 1.6s-16.1 0.9-24.1 1.3c-16.1 0.8-32.2 1.4-48.3 1.9-8.1 0.3-16.1 0.5-24.2 0.6-8.1 0.2-16.1 0.3-24.2 0.5-16.1 0.2-32.2 0.3-48.3 0.4-16.1 0-32.2-0.1-48.3-0.3l-24.2-0.4c-8.1-0.2-16.1-0.3-24.2-0.6-16.1-0.5-32.2-1-48.3-1.8-8-0.4-16.1-0.7-24.1-1.2-8-0.4-16.1-0.9-24.1-1.4-32.2-2-64.3-4.6-96.4-8.4-16-1.9-32-4.1-47.9-7-8-1.4-15.9-3.1-23.7-5.1-3.9-1.1-7.8-2.2-11.6-3.6-1.9-0.7-3.8-1.5-5.5-2.6-0.9-0.5-1.7-1.1-2.5-1.8"/>
		<path class="st1" d="m403.2 245.1" stroke="#231f20" stroke-linejoin="bevel" stroke-miterlimit="10" stroke-width="8.1615"/>
		<path class="st1" d="m403.2 221.5" stroke="#231f20" stroke-linejoin="bevel" stroke-miterlimit="10" stroke-width="8.1615"/>
		<path class="st0" d="m787 250.5c0 0.7-0.2 1.3-0.6 1.9-0.3 0.5-0.7 0.9-1.1 1.3-0.8 0.7-1.7 1.3-2.7 1.8-1.8 1-3.8 1.8-5.7 2.4-3.9 1.3-7.8 2.4-11.7 3.3-7.9 1.9-15.9 3.3-23.8 4.6-16 2.5-32 4.4-48.1 6.1s-32.1 3.1-48.2 4.3-32.2 2.3-48.3 3.3c-32.2 1.9-64.5 3.3-96.7 4.3-32.3 1-64.5 1.6-96.8 2-32.3 0.3-64.6 0.7-96.9 0.6-8.1-0.1-16.1-0.1-24.2-0.2s-16.1-0.3-24.2-0.6c-16.1-0.5-32.3-1.2-48.4-2.1-32.3-1.9-64.5-4.5-96.6-8.4-16.1-2-32.1-4.3-48.1-7.3-8-1.5-15.9-3.2-23.8-5.4-3.9-1.1-7.9-2.3-11.7-3.8-1.9-0.8-3.8-1.6-5.6-2.7-0.9-0.6-1.8-1.2-2.6-2-0.4-0.4-0.8-0.9-1.1-1.4s-0.5-1.2-0.5-1.9v-0.8h1.5l0.1 0.8c0.1 0.6 0.6 1.3 1.3 1.8s1.6 1 2.4 1.3c1.8 0.8 3.6 1.3 5.5 1.8 3.8 1 7.7 1.7 11.7 2.3 7.9 1.2 15.8 2.1 23.8 2.8 16 1.5 32 2.4 48 3.3 32.1 1.7 64.2 2.8 96.4 3.7l48.2 1.5 48.2 1.6c32.2 1.2 64.3 2.1 96.5 2.4 32.2 0.4 64.4 0.4 96.6 0.1 32.2-0.2 64.4-0.7 96.6-1.7 32.2-0.9 64.4-2.3 96.5-4.6 16-1.1 32.1-2.5 48-4.5 8-1 15.9-2.1 23.8-3.6 3.9-0.8 7.8-1.7 11.6-2.8 1.9-0.6 3.8-1.3 5.5-2.1 0.9-0.4 1.7-0.9 2.4-1.5s1.2-1.3 1.2-1.9v-0.8"/>
		<path class="st0" d="m786.2 224.7c0 0.4-0.1 0.8-0.2 1.1-0.2 0.3-0.4 0.7-0.6 1-0.5 0.6-1.1 1.1-1.7 1.5-1.3 0.9-2.6 1.5-4 2.2-2.8 1.2-5.7 2.2-8.6 3-5.8 1.7-11.8 3-17.7 4.2-11.9 2.4-23.9 4.2-35.9 5.8-24 3.2-48.1 5.6-72.3 7.6-48.3 3.9-96.7 6.3-145.1 7.9-12.1 0.4-24.2 0.7-36.3 1s-24.2 0.5-36.3 0.6c-24.2 0.4-48.4 0.4-72.6 0.4-12.1 0-24.2-0.1-36.3-0.3s-24.2-0.4-36.3-0.6c-24.2-0.5-48.4-1.3-72.6-2.4s-48.4-2.5-72.6-4.3c-12.1-0.9-24.2-2-36.3-3.2s-24.2-2.6-36.3-4.4c-6.1-0.9-12.1-1.9-18.2-3.1-3-0.6-6.1-1.2-9.2-2-3.1-0.7-6.2-1.6-9.4-2.6-1.6-0.5-3.2-1.1-4.9-1.9-0.9-0.4-1.7-0.8-2.7-1.4-0.9-0.5-1.9-1.2-3-2.1-0.6-0.5-1.1-1.1-1.7-1.8-0.2-0.2-0.3-0.4-0.4-0.6-0.2-0.2-0.3-0.5-0.5-0.7-0.1-0.2-0.3-0.5-0.4-0.8s-0.3-0.6-0.4-0.9c-0.5-1.4-0.6-3-0.4-4.6 0.1-0.7 0.3-1.5 0.6-2.1 0.1-0.3 0.3-0.6 0.4-0.9s0.3-0.5 0.4-0.8c0.2-0.3 0.3-0.4 0.5-0.6 0.1-0.2 0.3-0.4 0.5-0.6 0.3-0.3 0.6-0.7 0.9-0.9 0.3-0.3 0.6-0.5 0.8-0.7 0.3-0.2 0.5-0.4 0.8-0.6 1-0.8 2-1.3 2.9-1.7 1.8-0.9 3.4-1.6 5.1-2.1 1.6-0.6 3.2-1.1 4.8-1.5 3.1-0.9 6.2-1.6 9.3-2.2 6.1-1.3 12.2-2.3 18.3-3.1 6.1-0.9 12.1-1.6 18.2-2.3 12.1-1.3 24.2-2.4 36.3-3.3s24.2-1.7 36.3-2.3 24.2-1.2 36.3-1.6 24.2-0.8 36.3-1.1 24.2-0.5 36.3-0.6c24.2-0.2 48.4-0.2 72.6 0.1s48.4 0.8 72.6 1.7c-24.2 0.9-48.3 1.8-72.5 2.7-24.2 1-48.3 2.1-72.4 3.3-12.1 0.6-24.1 1.3-36.2 2s-24.1 1.5-36.1 2.3-24.1 1.7-36.1 2.7-24 2.1-36 3.2c-12 1.2-23.9 2.5-35.8 4.1-5.9 0.8-11.9 1.6-17.7 2.6-5.9 1-11.7 2-17.4 3.3-2.8 0.6-5.6 1.3-8.3 2.1-1.3 0.4-2.6 0.8-3.9 1.3-1.2 0.5-2.4 0.9-3.3 1.4-0.4 0.2-0.8 0.5-1 0.6-0.1 0-0.1 0.1-0.1 0.1l0.2-0.2c0-0.1 0.1-0.1 0.1-0.2 0.1-0.1 0.1-0.2 0.2-0.3 0-0.1 0.1-0.2 0.2-0.4s0.2-0.6 0.3-1c0.2-0.8 0.1-1.7-0.2-2.4 0-0.1-0.1-0.3-0.2-0.4l-0.2-0.3c0-0.1-0.1-0.2-0.2-0.3 0-0.1-0.1-0.1-0.1-0.2l-0.2-0.2s0.3 0.2 0.7 0.5c0.4 0.2 0.9 0.5 1.4 0.7 1.1 0.5 2.3 0.9 3.6 1.3 2.6 0.8 5.3 1.5 8.1 2.2 2.8 0.6 5.7 1.2 8.6 1.7 5.8 1.1 11.7 1.9 17.6 2.7 11.8 1.6 23.7 2.9 35.7 4s24 2 36 2.9c24 1.7 48.1 3 72.2 4 24.1 1.1 48.2 1.9 72.3 2.6 12.1 0.4 24.1 0.6 36.2 0.9l36.2 0.7c24.1 0.4 48.3 0.6 72.4 0.7 12.1 0.1 24.1 0 36.2 0s24.1-0.1 36.2-0.2c48.3-0.4 96.6-1.3 144.8-3.2 12.1-0.5 24.1-1.1 36.2-1.7 12.1-0.7 24.1-1.5 36.1-2.4 12-1 24-2.1 36-3.8 6-0.8 11.9-1.8 17.8-3.1 2.9-0.7 5.9-1.4 8.7-2.4 1.4-0.5 2.8-1.1 4.1-1.8 0.6-0.4 1.3-0.8 1.8-1.3 0.3-0.3 0.5-0.6 0.7-0.9-0.1-0.6 0-0.9 0-1.3z"/>
		<path class="st0" d="m785.8 350.3c-0.2 0.5-0.5 0.9-0.9 1.3-0.7 0.8-1.5 1.5-2.3 2.1-1.7 1.2-3.4 2.3-5.2 3.3-3.6 1.9-7.4 3.6-11.2 5.1-7.6 3-15.4 5.6-23.2 8-15.7 4.7-31.6 8.7-47.5 12.2-31.9 7-64.2 12.3-96.6 16.6-8.1 1.1-16.2 2-24.3 3-8.1 0.9-16.3 1.7-24.4 2.5-16.3 1.6-32.6 2.8-48.9 3.9-8.2 0.5-16.3 1-24.5 1.4s-16.3 0.7-24.5 1c-16.3 0.5-32.7 0.8-49 0.8-16.4 0-32.7-0.3-49-0.8-16.3-0.6-32.7-1.3-49-2.3-16.3-1.1-32.6-2.3-48.9-3.9-8.1-0.8-16.3-1.6-24.4-2.5s-16.2-1.9-24.3-3c-32.4-4.3-64.7-9.6-96.6-16.6-16-3.5-31.9-7.4-47.5-12.2-7.8-2.4-15.6-5-23.2-8-3.8-1.5-7.6-3.2-11.2-5.1-1.8-1-3.6-2-5.2-3.3-0.8-0.6-1.6-1.3-2.3-2.1-0.3-0.4-0.6-0.8-0.9-1.3-0.2-0.5-0.4-1-0.4-1.5 0 0.5 0.2 1 0.5 1.4s0.6 0.8 1 1.1c0.7 0.7 1.6 1.3 2.4 1.8 1.7 1 3.6 1.9 5.4 2.7 3.7 1.6 7.6 2.8 11.4 4 7.8 2.3 15.6 4.2 23.5 6 7.9 1.7 15.9 3.3 23.9 4.8s16 2.8 24 4.1c32.1 5 64.3 8.8 96.6 11.9 8.1 0.8 16.2 1.5 24.2 2.1 8.1 0.7 16.2 1.3 24.3 1.8 16.2 1.1 32.4 2.1 48.6 2.8 8.1 0.4 16.2 0.7 24.3 1s16.2 0.5 24.3 0.7c16.2 0.4 32.4 0.6 48.6 0.6s32.4-0.2 48.6-0.6c8.1-0.2 16.2-0.4 24.3-0.7s16.2-0.6 24.3-1c16.2-0.7 32.4-1.7 48.6-2.8l24.3-1.8c8.1-0.6 16.2-1.4 24.2-2.1 32.3-3 64.5-6.8 96.6-11.9 8-1.2 16-2.6 24-4.1 8-1.4 15.9-3 23.9-4.8 7.9-1.8 15.8-3.7 23.5-6 3.9-1.2 7.7-2.4 11.4-4 1.9-0.8 3.7-1.6 5.4-2.7 0.9-0.5 1.7-1.1 2.4-1.8 0.4-0.3 0.7-0.7 1-1.1"/>
		<path class="st1" d="m403.2 449.2" stroke="#231f20" stroke-linejoin="bevel" stroke-miterlimit="10" stroke-width="8.1615"/>
		<path class="st1" d="m20.2 506.2" stroke="#231f20" stroke-linejoin="bevel" stroke-miterlimit="10" stroke-width="8.1615"/>
		<path class="st1" d="m20.2 274.1" stroke="#231f20" stroke-linejoin="bevel" stroke-miterlimit="10" stroke-width="8.1615"/>
		<path class="st1" d="m786.2 487.5" stroke="#231f20" stroke-linejoin="bevel" stroke-miterlimit="10" stroke-width="8.1615"/>
		<path class="st1" d="m786.2 274.1" stroke="#231f20" stroke-linejoin="bevel" stroke-miterlimit="10" stroke-width="8.1615"/>
	<path class="st2" d="m103.4 361.9" stroke="#231f20" stroke-miterlimit="10" stroke-width="4.7085"/>
	<path class="st2" d="m103.4 313.3" stroke="#231f20" stroke-miterlimit="10" stroke-width="4.7085"/>
	<path class="st2" d="m193.1 377.7" stroke="#231f20" stroke-miterlimit="10" stroke-width="4.7085"/>
		<path class="st0" d="m292.1 383.8" fill="#fff"/>
			<line class="st0" x1="400" x2="400" y1="326.4" y2="385.7"/>
			<path class="st0" d="m400 326.4s0.4 0.9 0.9 2.5c0.3 0.8 0.6 1.8 0.8 2.9 0.2 0.6 0.3 1.2 0.5 1.8 0.1 0.3 0.1 0.6 0 1v42.8c0.1 0.3 0 0.7-0.1 1-0.2 0.6-0.3 1.2-0.5 1.8-0.3 1.1-0.6 2.1-0.8 2.9-0.5 1.6-0.8 2.5-0.8 2.5s-0.3-0.9-0.8-2.5c-0.2-0.8-0.5-1.8-0.8-2.9-0.2-0.6-0.3-1.2-0.5-1.8-0.1-0.3-0.1-0.6-0.1-1v-42.8c0-0.3-0.1-0.7 0-1 0.2-0.6 0.3-1.2 0.5-1.8 0.3-1.1 0.6-2.1 0.8-2.9 0.5-1.6 0.9-2.5 0.9-2.5z"/>
			<line class="st0" x1="252.9" x2="252.9" y1="326.4" y2="377.7"/>
			<path class="st0" d="m252.9 326.4s0.4 0.8 0.9 2.2c0.3 0.7 0.6 1.6 0.8 2.5 0.2 0.5 0.3 1 0.5 1.6 0.1 0.3 0.1 0.6 0 0.8v37.2c0.1 0.3 0 0.6-0.1 0.8-0.2 0.5-0.3 1.1-0.5 1.6-0.3 1-0.6 1.8-0.8 2.5-0.5 1.4-0.8 2.2-0.8 2.2s-0.3-0.8-0.8-2.2c-0.2-0.7-0.5-1.6-0.8-2.5-0.2-0.5-0.3-1-0.5-1.6-0.1-0.3-0.1-0.6-0.1-0.8v-37.2c0-0.3-0.1-0.6 0-0.8 0.2-0.5 0.3-1.1 0.5-1.6 0.3-1 0.6-1.8 0.8-2.5 0.5-1.4 0.9-2.2 0.9-2.2z"/>
			<line class="st0" x1="548.3" x2="548.3" y1="326.4" y2="377.7"/>
			<path class="st0" d="m548.3 326.4s0.4 0.8 0.9 2.2c0.3 0.7 0.6 1.6 0.8 2.5 0.2 0.5 0.3 1 0.5 1.6 0.1 0.3 0.1 0.6 0 0.8v37.2c0.1 0.3 0 0.6-0.1 0.8-0.2 0.5-0.3 1.1-0.5 1.6-0.3 1-0.6 1.8-0.8 2.5-0.5 1.4-0.8 2.2-0.8 2.2s-0.3-0.8-0.8-2.2c-0.2-0.7-0.5-1.6-0.8-2.5-0.2-0.5-0.3-1-0.5-1.6-0.1-0.3-0.1-0.6-0.1-0.8v-37.2c0-0.3-0.1-0.6 0-0.8 0.2-0.5 0.3-1.1 0.5-1.6 0.3-1 0.6-1.8 0.8-2.5 0.5-1.4 0.9-2.2 0.9-2.2z"/>
			<line class="st0" x1="133.8" x2="133.8" y1="320.8" y2="365.4"/>
			<path class="st0" d="m133.8 320.8s0.4 0.7 0.9 1.9c0.3 0.6 0.6 1.4 0.8 2.2 0.2 0.4 0.3 0.9 0.5 1.4 0.1 0.2 0.1 0.5 0 0.7v32.2c0.1 0.3 0 0.5-0.1 0.7-0.2 0.5-0.3 0.9-0.5 1.4-0.3 0.8-0.6 1.6-0.8 2.2-0.5 1.2-0.8 1.9-0.8 1.9s-0.3-0.7-0.8-1.9c-0.2-0.6-0.5-1.4-0.8-2.2-0.2-0.4-0.3-0.9-0.5-1.4-0.1-0.2-0.1-0.5-0.1-0.7v-32.2c0-0.3-0.1-0.5 0-0.7 0.2-0.5 0.3-0.9 0.5-1.4 0.3-0.8 0.6-1.6 0.8-2.2 0.5-1.2 0.9-1.9 0.9-1.9z"/>
			<line class="st0" x1="668.6" x2="668.6" y1="320.8" y2="365.4"/>
			<path class="st0" d="m668.6 320.8s0.4 0.7 0.9 1.9c0.3 0.6 0.6 1.4 0.8 2.2 0.2 0.4 0.3 0.9 0.5 1.4 0.1 0.2 0.1 0.5 0 0.7v32.2c0.1 0.3 0 0.5-0.1 0.7-0.2 0.5-0.3 0.9-0.5 1.4-0.3 0.8-0.6 1.6-0.8 2.2-0.5 1.2-0.8 1.9-0.8 1.9s-0.3-0.7-0.8-1.9c-0.2-0.6-0.5-1.4-0.8-2.2-0.2-0.4-0.3-0.9-0.5-1.4-0.1-0.2-0.1-0.5-0.1-0.7v-32.2c0-0.3-0.1-0.5 0-0.7 0.2-0.5 0.3-0.9 0.5-1.4 0.3-0.8 0.6-1.6 0.8-2.2 0.5-1.2 0.9-1.9 0.9-1.9z"/>
	<path class="st1" d="m450.3 237.4" stroke="#231f20" stroke-linejoin="bevel" stroke-miterlimit="10" stroke-width="8.1615"/>
		<path d="m25 606.2c-1.9 0-3.4-0.7-4.8-2-1.3-1.3-2-2.9-2-4.8v-20.2h6.8v20.2h26.9v-13.4l-33.6-67.2v-13.4c0-1.8 0.7-3.4 2-4.7s2.9-2 4.8-2h26.9c1.9 0 3.4 0.7 4.7 2s2 2.9 2 4.7v20.2h-6.7v-20.2h-27v13.4l33.6 67.2v13.4c0 1.9-0.7 3.5-2 4.8s-2.9 2-4.7 2z"/>
		<path d="m155.8 606.2v-100.9h-18.8v-6.7h44.2v6.7h-18.8v100.8h-6.6z"/>
		<path d="m244 606.2 21.3-107.6h6.7l-21.3 107.6zm49.4 0-21.3-107.6h6.7l21.3 107.6z"/>
		<path d="m379.9 606.2v-107.6h33.6c1.9 0 3.4 0.7 4.7 2s2 2.9 2 4.7v94.1c0 1.9-0.7 3.5-2 4.8s-2.9 2-4.7 2zm33.6-6.7v-94.1h-26.9v94.1z"/>
		<path d="m499.9 606.2v-107.6h6.7v107.6z"/>
		<path d="m593.1 606.2c-1.9 0-3.4-0.7-4.8-2-1.3-1.3-2-2.9-2-4.8v-100.8h6.7v100.8h27v-100.8h6.7v100.8c0 1.9-0.7 3.5-2 4.8s-2.9 2-4.7 2z"/>
		<path d="m727.9 567-14.7-46.9v86.1h-6.7v-107.6h6.7l18 57.6 18-57.6h6.7v107.6h-6.7v-86.1l-14.6 46.9z"/>
	<rect x="262.9" y="555" width="23.8" height="6.3"/>
	<polygon points="259.5 561.3 262.9 555 262.9 561.3"/>
</g>
</svg>
