<svg width="999" height="246.5" version="1.1" xmlns="http://www.w3.org/2000/svg">
 <g transform="translate(-283.77 -711.45)" fill="#fff">
  <path d="m439.77 783.2 20.686-41.437s-31.746-30.309-87.457-30.309c-50.444 0-83.028 29.749-83.028 71.933 0 90.84 130.29 57.974 130.29 104.94 0 18.932-19.131 26.643-37.837 26.643-46.078 0-78.292-36.266-78.292-36.266l-20.364 43.22s35.121 36.029 96.882 36.029c50.368 0 87.3-24.615 87.3-74.079 0-89.038-130.16-57.079-130.16-104.8 0-14.248 13.834-24.44 34.392-24.44 35.786 0 67.59 28.558 67.59 28.558z"/>
  <path d="m546.62 953.98v-194.22h-70.625v-44.729h190.1v44.729h-70.625v194.22z"/>
  <path d="m743.78 713.73-120.65 240.24h50.284l18.576-37.189h103l18.833 37.189h50.799zm-0.14713 101.23 29.243 57.788h-58.67z"/>
  <path d="m875.61 715.02v238.95h48.849v-87.104h34.136l49.879 87.104h56.059l-56.61-98.691c24.371-11.752 40.867-33.35 40.867-66.984 0-36.781-25.577-73.274-85.486-73.274zm48.849 44.729h40.021c21.983 0 35.202 12.441 35.202 29.795 0 19.028-15.429 30.236-35.202 30.236h-40.021z"/>
  <path d="m1085.1 759.76v-44.729h197.64l-122.89 195.4h120.06v43.552h-204.81l122.23-194.22z"/>
 </g>
</svg>
