<svg width="958.39" height="372.45" version="1.1" xmlns="http://www.w3.org/2000/svg">
 <defs>
  <clipPath id="clipPath20">
   <path d="m0 790.84v-790.84h2087.7v790.84z"/>
  </clipPath>
 </defs>
 <g transform="translate(-5.3894 -676.07)">
  <g transform="matrix(4.7095 0 0 -4.7095 5.3894 1048.5)">
   <g transform="scale(.1)">
    <g clip-path="url(#clipPath20)" fill="#100f0d">
     <path d="m723.59 3.1562h26.039v185.7h-26.039z"/>
     <path d="m825.11 188.85h25.778l82.589-120.73c6.836-9.9922 15.516-26.828 15.516-26.828h0.527s-1.839 16.57-1.839 26.828v120.73h26.035v-185.7h-25.508l-82.856 120.46c-6.835 10.254-15.511 27.09-15.511 27.09h-0.532s1.844-16.566 1.844-27.09v-120.46h-26.043v185.7"/>
     <path d="m1209.6 25.781c19.99 0 31.82 12.625 31.82 31.559 0 18.938-12.62 31.828-32.08 31.828h-41.56v-63.387zm-2.89 84.949c16.83 0 27.35 11.836 27.35 28.145s-9.99 27.352-27.88 27.352h-38.4v-55.497zm-64.97 78.122h64.97c31.3 0 53.91-17.364 53.91-47.344 0-18.153-8.94-32.621-23.14-39.985v-0.527c19.46-5.7812 30.51-24.191 30.51-44.973 0-34.98-27.09-52.867-59.7-52.867h-66.55v185.7"/>
     <path d="m1328.3 188.85h26.05v-163.07h83.1v-22.625h-109.15v185.7"/>
     <path d="m1566 163.34s-4.2-16.836-7.36-26.301l-20.78-58.914h56.29l-20.52 58.914c-3.15 9.465-7.1 26.301-7.1 26.301zm34.98-106.79h-69.96l-18.41-53.395h-26.82l66.8 185.7h27.35l66.81-185.7h-27.09l-18.68 53.395"/>
     <path d="m1769.4 192c44.72 0 67.59-24.461 67.59-24.461l-12.88-19.461s-21.57 20.246-53.66 20.246c-41.55 0-68.64-31.555-68.64-71.008 0-39.715 27.61-73.383 68.91-73.383 34.98 0 57.33 24.195 57.33 24.195l13.94-18.672s-25.51-29.461-72.06-29.461c-55.76 0-94.95 42.609-94.95 97.051 0 53.922 40.5 94.953 94.42 94.953"/>
     <path d="m1902.4 188.85h26.04v-78.122h27.61l46.82 78.122h28.67l-53.92-88.114v-0.527l57.34-97.055h-29.46l-49.45 85.219h-27.61v-85.219h-26.04v185.7"/>
     <path d="m876.57 461.46 60.133 119.14 60.117-119.14zm-83.25-164.95 38.18 75.847h210.31l38.28-75.847h103.09l-246.48 488.29-245.13-488.29h101.75"/>
     <path d="m778.49 782.57h-386.81v-89.132h144.03v-396.93h98.773v396.93h144.01v89.132"/>
     <path d="m1376.8 568.95h-71.9v124.48h71.9c53.02 0 82.22-21.411 82.22-62 0-40.266-30.74-62.481-82.22-62.481zm181.68 64.996c0 42.778-15.48 79.528-44.79 106.28-30.34 27.703-73.4 42.339-124.5 42.339h-183.06v-486.06h98.77v177.23h70.39l102.1-177.23h113.28l-115.5 201.1c72.68 34.043 83.31 100.34 83.31 136.34"/>
     <path d="m2034.9 782.57h-401.61v-89.117h229.65l-249.4-396.94h416.24v89.14h-244.28l249.4 396.92"/>
     <path d="m217.48 584.32c-79.707 18.895-108 31.825-108 68.555 0 30.594 28.304 50.098 70.429 50.098 64.36 0 121.99-44.446 137.53-57.633l41.273 83.711c-51.254 41.023-110.02 61.793-177.44 61.793-99.594 0-169.16-59.664-169.16-144.73 0-93 59.957-124.97 163.53-149.98 86.609-19.988 101.86-37.211 101.86-65.856 0-33.929-30.316-54.156-77.23-54.156-57.926 0-105.29 22.129-159.72 72.836l-40.543-86.828c56.453-48.469 125.25-73.871 198.24-73.871 107.3 0 176.63 57.797 176.63 150.16 0 76.035-45.598 118.71-157.39 145.9"/>
    </g>
   </g>
  </g>
 </g>
</svg>
