<svg width="935.67" height="196.83" version="1.1" xmlns="http://www.w3.org/2000/svg">
 <defs>
  <clipPath id="clipPath20">
   <path d="m0 0h4791.8v988h-4791.8z"/>
  </clipPath>
 </defs>
 <g transform="translate(96.598 -879.97)">
  <g transform="matrix(1.9922 0 0 -1.9922 -96.598 1076.8)" fill="#fff">
   <g transform="scale(.1)" fill="#fff">
    <g fill="#fff">
     <g clip-path="url(#clipPath20)" fill="#fff">
      <path d="m2376.9 314.75 60.49-227.07c4.38-17.09 6.57-32.879 6.57-32.879h0.88s1.32 16.223 5.7 32.879l56.99 227.07h44.72l-81.1-309.49h-50.42l-53.47 200.77c-5.26 19.727-9.21 43.836-9.21 43.836h-0.88s-3.94-24.109-9.2-43.836l-53.49-200.77h-50.4l-78.91 309.49h44.72l54.79-227.07c3.95-16.656 5.7-32.879 5.7-32.879h0.87s2.19 15.789 6.58 32.879l60.49 227.07h38.58"/>
      <path d="m2641.3 314.75h179.73v-37.707h-136.33v-96.875h110.9v-37.695h-110.9v-99.504h143.78v-37.707h-187.18v309.49"/>
      <path d="m2935 73.644s32.87-33.312 78.9-33.312c28.93 0 53.49 16.223 53.49 45.598 0 67.066-149.93 52.59-149.93 147.72 0 48.219 41.65 86.352 99.95 86.352 57.42 0 87.67-31.121 87.67-31.121l-19.72-35.949s-28.5 26.746-67.95 26.746c-32.88 0-56.11-20.606-56.11-45.149 0-64.011 149.91-46.91 149.91-147.29 0-47.785-36.81-87.238-98.19-87.238-65.75 0-102.57 40.777-102.57 40.777l24.55 32.867"/>
      <path d="m3281.3 277.04h-106.09v37.707h255.57v-37.707h-106.09v-271.78h-43.39v271.78"/>
      <path d="m3516.7 314.75h179.72v-37.707h-136.33v-96.875h110.91v-37.695h-110.91v-99.504h143.79v-37.707h-187.18v309.49"/>
      <path d="m3924 166.14c33.76 0 54.8 21.484 54.8 56.109 0 22.797-8.77 39.02-24.54 47.789-8.34 4.383-18.42 7.008-42.53 7.008h-49.98v-110.91zm-105.64 148.61h94.68c32.45 0 46.03-2.637 57.87-7.02 31.56-11.839 52.16-42.96 52.16-83.726 0-39.453-21.92-72.766-55.67-83.723v-0.879s3.51-3.941 9.21-14.031l65.75-120.11h-49.1l-65.31 123.18h-66.2v-123.18h-43.39v309.49"/>
      <path d="m4141 314.75h42.96l137.64-201.21c11.41-16.656 25.87-44.715 25.87-44.715h0.87s-3.06 27.613-3.06 44.715v201.21h43.39v-309.49h-42.52l-138.08 200.77c-11.39 17.09-25.87 45.153-25.87 45.153h-0.87s3.06-27.618 3.06-45.153v-200.77h-43.39v309.49"/>
      <path d="m4515.3 73.644s32.88-33.312 78.91-33.312c28.93 0 53.49 16.223 53.49 45.598 0 67.066-149.93 52.59-149.93 147.72 0 48.219 41.65 86.352 99.95 86.352 57.42 0 87.67-31.121 87.67-31.121l-19.73-35.949s-28.49 26.746-67.94 26.746c-32.88 0-56.11-20.606-56.11-45.149 0-64.011 149.91-46.91 149.91-147.29 0-47.785-36.81-87.238-98.19-87.238-65.75 0-102.57 40.777-102.57 40.777l24.54 32.867"/>
      <path d="m2122.3 980.12h265.9v-27.812h-236.03v-199.25h193.67v-27.75h-193.67v-203.39h249.19v-27.773h-279.06v485.98"/>
      <path d="m2487.9 980.12h27.76l277.03-381.17c15.96-22.203 39.54-61.074 39.54-61.074h1.42s-3.49 36.781-3.49 61.074v381.17h29.83v-485.98h-27.76l-276.98 381.14c-15.93 22.196-39.59 61.067-39.59 61.067h-1.37s3.46-36.797 3.46-61.067v-381.14h-29.85v485.98"/>
      <path d="m3190.2 988.4c115.21 0 173.53-61.062 173.53-61.062l-18.02-22.227s-57.63 54.832-154.82 54.832c-119.41 0-210.35-93.703-210.35-219.35 0-126.39 90.23-226.32 212.41-226.32 104.15 0 164.57 65.926 164.57 65.926l18.73-20.797s-65.27-73.59-183.3-73.59c-141.59 0-243.65 113.84-243.65 254.79 0 140.92 104.13 247.8 240.9 247.8"/>
      <path d="m3669.2 514.27c118.73 0 214.52 98.567 214.52 226.32 0 124.24-95.79 219.35-214.52 219.35-118.72 0-214.51-95.109-214.51-219.35 0-127.76 95.79-226.32 214.51-226.32zm0 474.13c135.4 0 245.75-108.29 245.75-247.8 0-143.03-110.35-254.79-245.75-254.79-135.36 0-245.74 111.75-245.74 254.79 0 139.52 110.38 247.8 245.74 247.8"/>
      <path d="m4166.9 737.12c63.83 0 104.14 45.801 104.14 111.78 0 43.016-21.51 77.711-56.93 93.672-13.9 6.266-29.17 9.723-68.04 9.723h-111.1v-215.18zm-161.76 242.99h142.33c45.11 0 68.01-4.898 87.48-14.625 40.26-20.105 67.29-61.066 67.29-116.58 0-69.488-40.23-121.55-97.16-134.01v-1.371s4.81-5.558 11.11-17.382l108.98-202.01h-35.39l-115.23 215.2h-139.58v-215.2h-29.83v485.98"/>
      <path d="m4417.5 980.12h265.88v-27.812h-236.08v-199.25h193.71v-27.75h-193.71v-203.39h249.26v-27.773h-279.06v485.98"/>
      <path d="m876.57 659.03 60.133 119.13 60.117-119.13zm-83.25-164.95 38.18 75.848h210.31l38.28-75.848h103.09l-246.48 488.29-245.13-488.29h101.75"/>
      <path d="m778.49 980.13h-386.81v-89.133h144.03v-396.93h98.773v396.93h144.01v89.133"/>
      <path d="m1376.8 766.52h-71.9v124.48h71.9c53.02 0 82.22-21.414 82.22-62 0-40.266-30.74-62.48-82.22-62.48zm181.68 64.996c0 42.777-15.48 79.527-44.79 106.28-30.34 27.703-73.4 42.34-124.5 42.34h-183.06v-486.06h98.77v177.24h70.39l102.1-177.24h113.28l-115.5 201.1c72.68 34.043 83.31 100.33 83.31 136.34"/>
      <path d="m2034.9 980.13h-401.61v-89.121h229.65l-249.4-396.94h416.24v89.141h-244.28l249.4 396.92"/>
      <path d="m217.48 781.88c-79.707 18.894-108 31.82-108 68.555 0 30.589 28.304 50.097 70.429 50.097 64.36 0 121.99-44.445 137.53-57.633l41.273 83.707c-51.254 41.028-110.02 61.793-177.44 61.793-99.594 0-169.16-59.66-169.16-144.73 0-93 59.957-124.98 163.53-149.98 86.609-19.988 101.86-37.211 101.86-65.855 0-33.93-30.316-54.152-77.23-54.152-57.926 0-105.29 22.128-159.72 72.836l-40.543-86.829c56.453-48.468 125.25-73.875 198.24-73.875 107.3 0 176.63 57.797 176.63 150.16 0 76.039-45.598 118.71-157.39 145.91"/>
     </g>
    </g>
   </g>
  </g>
 </g>
</svg>
