<svg width="955.85" height="200.93" version="1.1" xmlns="http://www.w3.org/2000/svg">
 <defs>
  <clipPath id="clipPath20">
   <path d="m0 0h4791.8v988h-4791.8z"/>
  </clipPath>
 </defs>
 <g transform="translate(-4.8304 -855.87)">
  <g transform="matrix(2.0337 0 0 -2.0337 4.8304 1056.8)" fill="#fff">
   <g transform="scale(.1)" fill="#fff">
    <g fill="#fff">
     <g clip-path="url(#clipPath20)" fill="#fff">
      <path d="m3333.4 42.965c33.31 0 53.04 21.039 53.04 52.586 0 31.558-21.05 53.039-53.49 53.039h-69.25v-105.63zm-4.83 141.56c28.06 0 45.58 19.727 45.58 46.903s-16.64 45.578-46.45 45.578h-64v-92.481zm-108.25 130.18h108.25c52.16 0 89.86-28.937 89.86-78.898 0-30.247-14.9-54.356-38.57-66.625v-0.879c32.43-9.633 50.84-40.317 50.84-74.946 0-58.297-45.14-88.098-99.49-88.098h-110.89v309.45"/>
      <path d="m3531 314.71h43.38v-271.74h138.5v-37.703h-181.88v309.45"/>
      <path d="m3927.3 272.19s-7.01-28.055-12.27-43.833l-34.62-98.171h93.8l-34.19 98.171c-5.26 15.778-11.84 43.833-11.84 43.833zm58.29-177.95h-116.58l-30.67-88.977h-44.72l111.34 309.45h45.58l111.32-309.45h-45.13l-31.14 88.977"/>
      <path d="m4266.1 319.96c74.51 0 112.64-40.762 112.64-40.762l-21.47-32.425s-35.94 33.738-89.41 33.738c-69.25 0-114.4-52.586-114.4-118.33 0-66.18 46.02-122.28 114.83-122.28 58.29 0 95.55 40.316 95.55 40.316l23.22-31.117s-42.51-49.094-120.08-49.094c-92.92 0-158.23 71.008-158.23 161.73 0 89.856 67.51 158.23 157.35 158.23"/>
      <path d="m4479.1 314.71h43.38v-130.18h46.02l78.03 130.18h47.76l-89.84-146.84v-0.879l95.54-161.73h-49.08l-82.41 142h-46.02v-142h-43.38v309.45"/>
      <path d="m2122.3 980.18h265.9v-27.809h-236.03v-199.26h193.67v-27.75h-193.67v-203.39h249.19v-27.774h-279.06v485.98"/>
      <path d="m2487.9 980.18h27.76l277.03-381.17c15.96-22.207 39.54-61.078 39.54-61.078h1.42s-3.49 36.781-3.49 61.078v381.17h29.83v-485.98h-27.76l-276.98 381.15c-15.93 22.191-39.59 61.062-39.59 61.062h-1.37s3.46-36.793 3.46-61.062v-381.15h-29.85v485.98"/>
      <path d="m3190.2 988.47c115.21 0 173.53-61.067 173.53-61.067l-18.02-22.226s-57.63 54.832-154.82 54.832c-119.41 0-210.35-93.703-210.35-219.35 0-126.39 90.23-226.32 212.41-226.32 104.15 0 164.57 65.93 164.57 65.93l18.73-20.801s-65.27-73.586-183.3-73.586c-141.59 0-243.65 113.84-243.65 254.78 0 140.92 104.13 247.81 240.9 247.81"/>
      <path d="m3669.2 514.34c118.73 0 214.52 98.566 214.52 226.32 0 124.24-95.79 219.35-214.52 219.35-118.72 0-214.51-95.11-214.51-219.35 0-127.76 95.79-226.32 214.51-226.32zm0 474.13c135.4 0 245.75-108.29 245.75-247.81 0-143.03-110.35-254.78-245.75-254.78-135.36 0-245.74 111.75-245.74 254.78 0 139.52 110.38 247.81 245.74 247.81"/>
      <path d="m4166.9 737.19c63.83 0 104.14 45.8 104.14 111.79 0 43.015-21.51 77.707-56.93 93.668-13.9 6.265-29.17 9.726-68.04 9.726h-111.1v-215.18zm-161.76 242.99h142.33c45.11 0 68.01-4.899 87.48-14.625 40.26-20.102 67.29-61.063 67.29-116.58 0-69.493-40.23-121.55-97.16-134.02v-1.367s4.81-5.563 11.11-17.387l108.98-202.01h-35.39l-115.23 215.2h-139.58v-215.2h-29.83v485.98"/>
      <path d="m4417.5 980.18h265.88v-27.809h-236.08v-199.26h193.71v-27.75h-193.71v-203.39h249.26v-27.774h-279.06v485.98"/>
      <path d="m876.57 659.09 60.133 119.14 60.117-119.14zm-83.25-164.95 38.18 75.847h210.31l38.28-75.847h103.09l-246.48 488.29-245.13-488.29h101.75"/>
      <path d="m778.49 980.2h-386.81v-89.133h144.03v-396.92h98.773v396.92h144.01v89.133"/>
      <path d="m1376.8 766.58h-71.9v124.48h71.9c53.02 0 82.22-21.414 82.22-62 0-40.265-30.74-62.48-82.22-62.48zm181.68 64.996c0 42.777-15.48 79.527-44.79 106.28-30.34 27.704-73.4 42.34-124.5 42.34h-183.06v-486.06h98.77v177.23h70.39l102.1-177.23h113.28l-115.5 201.1c72.68 34.043 83.31 100.33 83.31 136.34"/>
      <path d="m2034.9 980.2h-401.61v-89.121h229.65l-249.4-396.94h416.24v89.14h-244.28l249.4 396.92"/>
      <path d="m217.48 781.94c-79.707 18.895-108 31.825-108 68.555 0 30.594 28.304 50.098 70.429 50.098 64.36 0 121.99-44.446 137.53-57.633l41.273 83.707c-51.254 41.027-110.02 61.797-177.44 61.797-99.594 0-169.16-59.664-169.16-144.73 0-93 59.957-124.97 163.53-149.98 86.609-19.988 101.86-37.211 101.86-65.86 0-33.925-30.316-54.152-77.23-54.152-57.926 0-105.29 22.129-159.72 72.836l-40.543-86.828c56.453-48.469 125.25-73.875 198.24-73.875 107.3 0 176.63 57.797 176.63 150.16 0 76.035-45.598 118.71-157.39 145.9"/>
     </g>
    </g>
   </g>
  </g>
 </g>
</svg>
