<svg width="1e3px" height="217.29px" enable-background="new -194.005 287.356 1000.001 217.288" version="1.1" viewBox="-194 287.36 1e3 217.29" xml:space="preserve" xmlns="http://www.w3.org/2000/svg">
	<path d="m601.16 341.16c-11.26 0-20.387 9.128-20.387 20.387v140.58h204.84c11.259 0 20.387-9.128 20.387-20.387v-140.58h-204.84z" fill="#FF4D80"/>
	<polygon points="747.93 376.9 731.8 429.74 715.61 376.9 682.13 376.9 677.87 376.9 606.71 376.9 606.71 407.81 626.39 407.81 626.39 473.29 662 473.29 662 407.94 682.13 407.94 682.13 387.48 716.13 473.29 747.54 473.29 785.61 376.9" fill="#E1FAF9"/>
	<path d="m-77.088 392.77c0.385-3.87-1.568-7.598-4.968-9.484-4.629-2.548-9.886-3.733-15.161-3.419-4.832-0.085-9.626 0.86-14.064 2.774-3.714 1.062-6.32 4.397-6.451 8.258 0 3.785 2.968 6.365 8.903 7.742 8.719 1.858 17.526 3.279 26.387 4.257 6.924 0.989 13.957 2.108 21.096 3.356 6.904 1.148 13.716 2.787 20.387 4.901 5.887 1.907 11.571 4.393 16.967 7.42 5.193 2.758 9.813 6.48 13.613 10.967 3.342 4.376 5.658 9.448 6.774 14.84 1.359 6.745 1.205 13.709-0.452 20.387-3.054 12.128-12.129 21.74-27.226 28.838-15.097 7.096-37.504 10.774-67.225 11.033-33.333 0-57.633-4.303-72.902-12.904-14.597-7.248-23.217-22.742-21.677-38.967v-4.451h74.837c-0.893 4.177 0.339 8.525 3.291 11.613 4.96 3.467 11.024 4.982 17.032 4.257 5.125 0.242 10.217-0.941 14.709-3.42 3.167-1.657 5.208-4.879 5.354-8.45 0-4.518-3.032-7.527-9.096-9.033-8.358-1.857-16.827-3.172-25.354-3.935-5.936-0.646-12.387-1.613-19.354-2.904-6.903-1.319-13.713-3.086-20.387-5.29-6.435-2.019-12.693-4.565-18.709-7.612-5.541-2.937-10.537-6.798-14.774-11.419-3.921-4.141-6.643-9.27-7.871-14.838-1.224-6.504-0.552-13.223 1.936-19.355 1.943-6.105 5.538-11.554 10.387-15.742 5.823-5.309 12.553-9.527 19.87-12.452 9.147-3.566 18.671-6.077 28.387-7.483 11.504-1.782 23.132-2.645 34.773-2.581 14.324-0.209 28.627 1.175 42.645 4.129 10.509 2.244 20.636 6.004 30.064 11.161 7.371 3.854 13.7 9.432 18.452 16.259 3.817 5.582 5.822 12.204 5.741 18.967v5.419h-76.708l0.774-2.839zm649.8 2.904v-53.871h-24.064v-54.451l-75.676 10.838v43.612h-14.452v53.934h14.516v37.548c0 22.107 5.462 39.118 16.388 51.032 10.924 11.913 27.697 17.87 50.321 17.87h32.968v-56.32c-3.646-0.064-7.286-0.322-10.903-0.775-2.54-0.238-5.002-1.007-7.225-2.258-1.973-1.173-3.528-2.934-4.452-5.031-1.114-2.855-1.62-5.909-1.484-8.968v-33.226l24.063 0.066zm-252.12 61.611c-1.249-3.063-1.759-6.379-1.484-9.678v-39.741c0-23.526-8.216-40.73-24.645-51.612-16.431-10.881-41.376-16.365-74.838-16.452-31.741 0-55.397 4.796-70.967 14.388-15.05 8.307-24.079 24.439-23.29 41.612h76.257c-0.15-3.943 1.724-7.69 4.968-9.936 5.059-2.784 10.825-4.018 16.58-3.548 3.296-0.123 6.585 0.403 9.677 1.548 2.392 0.93 4.472 2.519 6 4.581 1.459 2.03 2.491 4.333 3.032 6.774 0.622 3.057 0.924 6.17 0.903 9.29h-59.483c-8.351-0.078-16.683 0.787-24.839 2.58-6.96 1.57-13.54 4.51-19.354 8.646-5.467 3.717-9.905 8.754-12.903 14.646-2.982 6.665-4.373 13.93-4.064 21.226-0.082 7.212 1.369 14.359 4.258 20.967 2.953 6.491 7.369 12.21 12.902 16.71 6.366 5.12 13.692 8.915 21.548 11.161 9.917 2.846 20.202 4.192 30.516 3.999 7.45 0.178 14.896-0.493 22.193-1.999 6.03-1.424 11.859-3.591 17.355-6.451 4.475-2.217 8.552-5.159 12.064-8.71 2.969-2.817 5.282-6.253 6.774-10.064l1.29 7.419c3.768 9.153 12.44 15.345 22.322 15.935 17.371 1.593 34.831 2.003 52.257 1.228v-41.419c-2.061-0.211-3.915-1.352-5.029-3.1zm-77.418-18.193c0.035 2.829-0.313 5.65-1.033 8.387-0.604 2.451-1.877 4.684-3.678 6.451-2.109 1.885-4.627 3.254-7.354 4-3.925 1.09-7.992 1.59-12.064 1.484-5.309 0.594-10.656-0.708-15.097-3.677-2.363-2.069-3.726-5.053-3.742-8.193-0.392-3.79 1.688-7.404 5.161-8.968 5.67-1.883 11.647-2.671 17.612-2.323h20.387l-0.192 2.839zm180-96.773c-5.286 0.614-10.471 1.917-15.421 3.871-5.162 2.105-9.631 5.614-12.902 10.128l-4.838 6.774v-21.355h-58.064v160.39h75.354v-54.451c0-13.612 2.001-32.902 7.356-40.129 5.353-7.226 10.127-11.419 27.225-12.129h9.29v-53.612h-1.936c-7.225 0-20 0-25.807 0.452l-0.257 0.065zm-303.22 135.03c-3.036-7.312-4.487-15.183-4.258-23.096-0.184-2.858-0.184-5.724 0-8.582h-0.774c-3.34 0.02-6.679-0.152-10-0.515-2.54-0.238-5.001-1.007-7.225-2.258-1.972-1.175-3.527-2.934-4.452-5.033-1.114-2.853-1.619-5.907-1.484-8.968v-33.29h24.064v-53.806h-23.677v-54.451l-75.354 10.838v43.612h-14.709v53.934h14.774v37.548c0 22.107 5.462 39.118 16.387 51.032 10.924 11.913 27.656 17.956 50.193 18.129h60.322c-3.303-1.839-6.415-3.999-9.291-6.451-6.143-5.017-11.026-11.403-14.257-18.646h-0.259z" fill="#e1faf9"/>
</svg>
