<svg width="990.66" height="106.01" version="1.1" xmlns="http://www.w3.org/2000/svg">
 <defs>
  <clipPath id="clipPath20">
   <path d="m0 502.59v-502.59h4791.8v502.59z"/>
  </clipPath>
 </defs>
 <g transform="translate(-2.6875 -912.71)">
  <g transform="matrix(2.1093 0 0 -2.1093 2.6875 1018.7)">
   <g transform="scale(.1)">
    <g clip-path="url(#clipPath20)" fill="#100f0d">
     <path d="m2122.3 494.3h265.9v-27.809h-236.03v-199.25h193.67v-27.754h-193.67v-203.39h249.19v-27.777h-279.06v485.98"/>
     <path d="m2487.9 494.3h27.76l277.03-381.17c15.96-22.203 39.54-61.074 39.54-61.074h1.42s-3.49 36.781-3.49 61.074v381.17h29.83v-485.98h-27.76l-276.98 381.15c-15.93 22.191-39.59 61.062-39.59 61.062h-1.37s3.46-36.793 3.46-61.062v-381.15h-29.85v485.98"/>
     <path d="m3190.2 502.59c115.21 0 173.53-61.067 173.53-61.067l-18.02-22.226s-57.63 54.832-154.82 54.832c-119.41 0-210.35-93.703-210.35-219.35 0-126.39 90.23-226.32 212.41-226.32 104.15 0 164.57 65.926 164.57 65.926l18.73-20.801s-65.27-73.586-183.3-73.586c-141.59 0-243.65 113.84-243.65 254.78 0 140.92 104.13 247.81 240.9 247.81"/>
     <path d="m3669.2 28.461c118.73 0 214.52 98.566 214.52 226.32 0 124.24-95.79 219.35-214.52 219.35-118.72 0-214.51-95.106-214.51-219.35 0-127.75 95.79-226.32 214.51-226.32zm0 474.13c135.4 0 245.75-108.29 245.75-247.81 0-143.03-110.35-254.78-245.75-254.78-135.36 0-245.74 111.75-245.74 254.78 0 139.52 110.38 247.81 245.74 247.81"/>
     <path d="m4166.9 251.31c63.83 0 104.14 45.801 104.14 111.79 0 43.015-21.51 77.707-56.93 93.668-13.9 6.265-29.17 9.726-68.04 9.726h-111.1v-215.18zm-161.76 242.99h142.33c45.11 0 68.01-4.895 87.48-14.621 40.26-20.106 67.29-61.067 67.29-116.58 0-69.489-40.23-121.55-97.16-134.01v-1.371s4.81-5.559 11.11-17.387l108.98-202.01h-35.39l-115.23 215.2h-139.58v-215.2h-29.83v485.98"/>
     <path d="m4417.5 494.3h265.88v-27.809h-236.08v-199.25h193.71v-27.754h-193.71v-203.39h249.26v-27.777h-279.06v485.98"/>
     <path d="m876.57 173.22 60.133 119.13 60.117-119.13zm-83.25-164.95 38.18 75.844h210.31l38.28-75.844h103.09l-246.48 488.29-245.13-488.29h101.75"/>
     <path d="m778.49 494.32h-386.81v-89.136h144.03v-396.92h98.773v396.92h144.01v89.136"/>
     <path d="m1376.8 280.7h-71.9v124.48h71.9c53.02 0 82.22-21.411 82.22-61.996 0-40.266-30.74-62.485-82.22-62.485zm181.68 64.996c0 42.781-15.48 79.528-44.79 106.28-30.34 27.703-73.4 42.343-124.5 42.343h-183.06v-486.06h98.77v177.23h70.39l102.1-177.23h113.28l-115.5 201.1c72.68 34.043 83.31 100.33 83.31 136.34"/>
     <path d="m2034.9 494.32h-401.61v-89.121h229.65l-249.4-396.94h416.24v89.141h-244.28l249.4 396.92"/>
     <path d="m217.48 296.07c-79.707 18.895-108 31.825-108 68.555 0 30.594 28.304 50.098 70.429 50.098 64.36 0 121.99-44.442 137.53-57.633l41.273 83.711c-51.254 41.023-110.02 61.793-177.44 61.793-99.594 0-169.16-59.664-169.16-144.73 0-93 59.957-124.97 163.53-149.98 86.609-19.988 101.86-37.211 101.86-65.856 0-33.929-30.316-54.152-77.23-54.152-57.926 0-105.29 22.125-159.72 72.836l-40.543-86.832c56.453-48.465 125.25-73.871 198.24-73.871 107.3 0 176.63 57.797 176.63 150.16 0 76.035-45.598 118.71-157.39 145.9"/>
    </g>
   </g>
  </g>
 </g>
</svg>
