<svg width="962.29" height="202.43" version="1.1" xmlns="http://www.w3.org/2000/svg">
 <defs>
  <clipPath id="clipPath20">
   <path d="m0 0h4791.8v988h-4791.8z"/>
  </clipPath>
 </defs>
 <g transform="translate(15.17 -854.37)">
  <g transform="matrix(2.0489 0 0 -2.0489 -15.17 1056.8)">
   <g transform="scale(.1)">
    <g clip-path="url(#clipPath20)" fill="#100f0d">
     <path d="m2866.2 320c74.52 0 112.65-40.766 112.65-40.766l-21.47-32.433s-35.95 33.754-89.42 33.754c-69.26 0-114.41-52.602-114.41-118.36 0-66.187 46.01-122.3 114.84-122.3 58.3 0 95.56 40.324 95.56 40.324l23.24-31.125s-42.52-49.094-120.11-49.094c-92.94 0-158.25 71.012-158.25 161.75 0 89.859 67.5 158.24 157.37 158.24"/>
     <path d="m3079.2 314.74h43.39v-271.78h138.52v-37.699h-181.91v309.48"/>
     <path d="m3475.5 272.22s-7.01-28.055-12.27-43.836l-34.64-98.188h93.82l-34.19 98.188c-5.27 15.781-11.84 43.836-11.84 43.836zm58.3-177.97h-116.6l-30.69-88.988h-44.71l111.35 309.48h45.58l111.34-309.48h-45.15l-31.12 88.988"/>
     <path d="m3707 73.644s32.88-33.316 78.91-33.316c28.93 0 53.48 16.223 53.48 45.59 0 67.066-149.93 52.598-149.93 147.73 0 48.222 41.65 86.351 99.95 86.351 57.42 0 87.68-31.117 87.68-31.117l-19.73-35.949s-28.49 26.746-67.95 26.746c-32.88 0-56.11-20.606-56.11-45.153 0-64.003 149.92-46.906 149.92-147.29 0-47.785-36.82-87.234-98.19-87.234-65.76 0-102.58 40.766-102.58 40.766l24.55 32.879"/>
     <path d="m3988 73.644s32.88-33.316 78.91-33.316c28.93 0 53.48 16.223 53.48 45.59 0 67.066-149.92 52.598-149.92 147.73 0 48.222 41.64 86.351 99.95 86.351 57.42 0 87.67-31.117 87.67-31.117l-19.73-35.949s-28.49 26.746-67.94 26.746c-32.88 0-56.11-20.606-56.11-45.153 0-64.003 149.91-46.906 149.91-147.29 0-47.785-36.82-87.234-98.19-87.234-65.75 0-102.57 40.766-102.57 40.766l24.54 32.879"/>
     <path d="m4268.1 5.2578h43.398v309.48h-43.398z"/>
     <path d="m4573.6 320c74.52 0 112.66-40.766 112.66-40.766l-21.48-32.433s-35.94 33.754-89.43 33.754c-69.26 0-114.41-52.602-114.41-118.36 0-66.187 46.03-122.3 114.85-122.3 58.3 0 95.56 40.324 95.56 40.324l23.23-31.125s-42.51-49.094-120.11-49.094c-92.92 0-158.24 71.012-158.24 161.75 0 89.859 67.51 158.24 157.37 158.24"/>
     <path d="m2122.3 980.16h265.9v-27.808h-236.03v-199.25h193.67v-27.754h-193.67v-203.39h249.19v-27.773h-279.06v485.98"/>
     <path d="m2487.9 980.16h27.76l277.03-381.17c15.96-22.203 39.54-61.074 39.54-61.074h1.42s-3.49 36.781-3.49 61.074v381.17h29.83v-485.98h-27.76l-276.98 381.14c-15.93 22.192-39.59 61.067-39.59 61.067h-1.37s3.46-36.797 3.46-61.067v-381.14h-29.85v485.98"/>
     <path d="m3190.2 988.45c115.21 0 173.53-61.062 173.53-61.062l-18.02-22.227s-57.63 54.828-154.82 54.828c-119.41 0-210.35-93.703-210.35-219.35 0-126.38 90.23-226.32 212.41-226.32 104.15 0 164.57 65.926 164.57 65.926l18.73-20.801s-65.27-73.586-183.3-73.586c-141.59 0-243.65 113.84-243.65 254.78 0 140.92 104.13 247.81 240.9 247.81"/>
     <path d="m3669.2 514.32c118.73 0 214.52 98.567 214.52 226.32 0 124.24-95.79 219.35-214.52 219.35-118.72 0-214.51-95.105-214.51-219.35 0-127.75 95.79-226.32 214.51-226.32zm0 474.13c135.4 0 245.75-108.29 245.75-247.81 0-143.03-110.35-254.78-245.75-254.78-135.36 0-245.74 111.75-245.74 254.78 0 139.52 110.38 247.81 245.74 247.81"/>
     <path d="m4166.9 737.17c63.83 0 104.14 45.801 104.14 111.78 0 43.016-21.51 77.711-56.93 93.668-13.9 6.27-29.17 9.727-68.04 9.727h-111.1v-215.18zm-161.76 242.99h142.33c45.11 0 68.01-4.894 87.48-14.621 40.26-20.105 67.29-61.066 67.29-116.58 0-69.488-40.23-121.55-97.16-134.01v-1.371s4.81-5.558 11.11-17.386l108.98-202h-35.39l-115.23 215.2h-139.58v-215.2h-29.83v485.98"/>
     <path d="m4417.5 980.16h265.88v-27.808h-236.08v-199.25h193.71v-27.754h-193.71v-203.39h249.26v-27.773h-279.06v485.98"/>
     <path d="m876.57 659.07 60.133 119.13 60.117-119.13zm-83.25-164.95 38.18 75.844h210.31l38.28-75.844h103.09l-246.48 488.29-245.13-488.29h101.75"/>
     <path d="m778.49 980.18h-386.81v-89.133h144.03v-396.93h98.773v396.93h144.01v89.133"/>
     <path d="m1376.8 766.56h-71.9v124.48h71.9c53.02 0 82.22-21.414 82.22-62 0-40.266-30.74-62.485-82.22-62.485zm181.68 64.997c0 42.781-15.48 79.527-44.79 106.28-30.34 27.703-73.4 42.34-124.5 42.34h-183.06v-486.06h98.77v177.23h70.39l102.1-177.23h113.28l-115.5 201.1c72.68 34.043 83.31 100.33 83.31 136.34"/>
     <path d="m2034.9 980.18h-401.61v-89.121h229.65l-249.4-396.94h416.24v89.141h-244.28l249.4 396.92"/>
     <path d="m217.48 781.93c-79.707 18.894-108 31.824-108 68.554 0 30.594 28.304 50.098 70.429 50.098 64.36 0 121.99-44.441 137.53-57.633l41.273 83.711c-51.254 41.028-110.02 61.793-177.44 61.793-99.594 0-169.16-59.664-169.16-144.73 0-93 59.957-124.98 163.53-149.98 86.609-19.988 101.86-37.211 101.86-65.855 0-33.93-30.316-54.153-77.23-54.153-57.926 0-105.29 22.129-159.72 72.836l-40.543-86.832c56.453-48.464 125.25-73.871 198.24-73.871 107.3 0 176.63 57.797 176.63 150.16 0 76.039-45.598 118.71-157.39 145.9"/>
    </g>
   </g>
  </g>
 </g>
</svg>
