<svg width="656.3" height="217.8" enable-background="new 0 0 899.5 576" version="1.1" viewBox="0 0 656.3 217.8" xml:space="preserve" xmlns="http://www.w3.org/2000/svg" xmlns:xlink="http://www.w3.org/1999/xlink"><defs><linearGradient id="linearGradient4543"><stop stop-color="#1d64b1" offset="0"/><stop stop-color="#224699" offset="1"/></linearGradient><radialGradient id="radialGradient4525-6" cx="107" cy="467.1" r="107" gradientTransform="matrix(1 0 0 1.0178 0 -366.49)" gradientUnits="userSpaceOnUse" xlink:href="#linearGradient4543"/><radialGradient id="radialGradient4541-9" cx="328.1" cy="467.1" r="107" gradientTransform="matrix(1 0 0 1.0178 0 -366.49)" gradientUnits="userSpaceOnUse"><stop stop-color="#ed2239" offset="0"/><stop stop-color="#c0202e" offset="1"/></radialGradient><radialGradient id="radialGradient4533-4" cx="549.3" cy="467.1" r="107" gradientTransform="matrix(1 0 0 1.0178 0 -366.49)" gradientUnits="userSpaceOnUse" xlink:href="#linearGradient4543"/></defs>
<path class="st1" d="m484.7 3.6" fill="#fff"/><path class="st6" d="m15.8 16.7h182.3v53h-59.8v134.3h-62.6v-134.3h-59.9z" fill="#fff"/><path class="st7" d="m350.9 77.5v-0.5c0-8.6-6.7-12.8-20.1-12.8h-27v26.2h27.3c13.2-0.1 19.8-4.4 19.8-12.9m4.8 65.5v-0.5c0-4.1-1.7-7.4-5.1-9.9s-8.5-3.7-15.3-3.7h-31.6v27.8h31.3c6.8 0 11.9-1.2 15.4-3.7 3.6-2.6 5.3-5.9 5.3-10m63.2 9.1c0 7.5-1.5 14.4-4.6 20.7-3 6.3-7.6 11.8-13.7 16.5-6.1 4.6-13.6 8.3-22.7 10.8-9 2.6-19.4 3.9-31.2 3.9h-104v-187.3h104.9c13 0 23.8 1.4 32.2 4.3 8.5 2.9 15.5 7 21 12.6 3.4 3.4 6.2 7.5 8.3 12.3s3.2 10.4 3.2 16.9v0.5c0 11.2-3 20.3-9.1 27.2s-14.2 12.1-24.4 15.7c12.2 3.6 21.9 8.8 29.1 15.8s10.8 16.9 10.8 29.7v0.4z" fill="#fff"/><path class="st6" d="m580.9 16.7h62.1v187.3h-55.7l-69.6-86.4v86.4h-62.1v-187.3h58.6l66.6 82.7v-82.7z" fill="#fff"/><path class="st1" d="m484.7 3.6"/><path class="st6" d="m15.8 16.7h182.3v53h-59.8v134.3h-62.6v-134.3h-59.9zm-15.8 201.1h214v-217.8h-214z" fill="url(#radialGradient4525-6)"/><path class="st7" d="m350.9 77.5v-0.5c0-8.6-6.7-12.8-20.1-12.8h-27v26.2h27.3c13.2-0.1 19.8-4.4 19.8-12.9m4.8 65.5v-0.5c0-4.1-1.7-7.4-5.1-9.9s-8.5-3.7-15.3-3.7h-31.6v27.8h31.3c6.8 0 11.9-1.2 15.4-3.7 3.6-2.6 5.3-5.9 5.3-10m63.2 9.1c0 7.5-1.5 14.4-4.6 20.7-3 6.3-7.6 11.8-13.7 16.5-6.1 4.6-13.6 8.3-22.7 10.8-9 2.6-19.4 3.9-31.2 3.9h-104v-187.3h104.9c13 0 23.8 1.4 32.2 4.3 8.5 2.9 15.5 7 21 12.6 3.4 3.4 6.2 7.5 8.3 12.3s3.2 10.4 3.2 16.9v0.5c0 11.2-3 20.3-9.1 27.2s-14.2 12.1-24.4 15.7c12.2 3.6 21.9 8.8 29.1 15.8s10.8 16.9 10.8 29.7v0.4zm16.2-152.1h-214v217.8h214z" fill="url(#radialGradient4541-9)"/><path class="st6" d="m580.9 16.7h62.1v187.3h-55.7l-69.6-86.4v86.4h-62.1v-187.3h58.6l66.6 82.7v-82.7zm-138.6 201.1h214v-217.8h-214z" fill="url(#radialGradient4533-4)"/></svg>
