<svg width="1e3" height="193.06" enable-background="new 0 0 1000.2 185.65" space="preserve" version="1.1" viewBox="0 0 1e3 193.06" xmlns="http://www.w3.org/2000/svg">
 <link href="" rel="stylesheet" type="text/css"/>
 <style type="text/css"/>
 <path d="m101.78 63.327c6.7938 0 12.576 2.3866 17.348 7.1578 4.7722 4.7732 7.1578 10.475 7.1578 17.105v0.36501c0 6.7928-2.3856 12.615-7.1578 17.468-4.7722 4.7743-10.595 7.1588-17.469 7.1588h-13.952l0.12167 74.973h-49.254v-74.972h-13.952c-6.7938 0-12.577-2.3845-17.348-7.1588-4.8533-4.8523-7.2795-10.675-7.2795-17.468 0-6.7949 2.3845-12.617 7.1578-17.47 4.7712-4.7712 10.595-7.1578 17.47-7.1578h77.156z" fill="#ec008b" stroke-width="1.0399"/>
 <path d="m188.29 62.443c17.713 0 32.998 6.4704 45.857 19.411 8.7354 8.7343 13.952 20.099 15.651 34.09 0.40245 3.3974 0.60524 6.5515 0.60524 9.4622 0 3.2352-0.24126 6.1491-0.72691 8.7343h-76.551c0.64683 5.0967 2.0216 9.5444 4.1243 13.345 3.073 5.6624 6.7533 8.5346 11.04 8.6137 4.3677 0 8.4514-2.5488 12.252-7.6434 1.8604-2.5884 3.3153-5.1747 4.3687-7.7641h44.038c-0.48461 11.159-5.2578 21.916-14.316 32.269-12.86 12.941-28.186 19.41-45.979 19.41-18.197 0-33.646-6.3477-46.343-19.045-12.697-12.617-19.045-27.943-19.045-45.978 0-17.956 6.3477-33.281 19.045-45.979 12.698-12.617 28.026-18.926 45.979-18.926zm14.318 53.379c-0.89226-4.1264-1.9426-7.2805-3.1551-9.4643-3.2362-5.8225-6.9571-8.7343-11.161-8.7343-4.6911 0-8.3703 2.8338-11.04 8.4931-1.3758 2.9107-2.4688 6.147-3.2758 9.7056z" fill="#ec008b" stroke-width="1.0399"/>
 <path d="m325.07 62.443c17.713 0 32.997 6.4704 45.857 19.411 8.7354 8.7343 13.952 20.099 15.651 34.09 0.40245 3.3974 0.60523 6.5515 0.60523 9.4622 0 3.2352-0.24126 6.1491-0.7269 8.7343h-76.551c0.64683 5.0967 2.0216 9.5444 4.1243 13.345 3.073 5.6624 6.7532 8.5346 11.04 8.6137 4.3677 0 8.4515-2.5488 12.252-7.6434 1.8604-2.5884 3.3153-5.1747 4.3687-7.7641h44.038c-0.4846 11.159-5.2578 21.916-14.316 32.269-12.86 12.941-28.186 19.41-45.979 19.41-18.197 0-33.646-6.3477-46.343-19.045-12.697-12.617-19.045-27.943-19.045-45.978 0-17.956 6.3477-33.281 19.045-45.979 12.697-12.617 28.025-18.926 45.979-18.926zm14.317 53.379c-0.89225-4.1264-1.9426-7.2805-3.1551-9.4643-3.2362-5.8225-6.9571-8.7343-11.161-8.7343-4.6921 0-8.3703 2.8338-11.04 8.4931-1.3769 2.9107-2.4688 6.147-3.2758 9.7056z" fill="#ec008b" stroke-width="1.0399"/>
 <path d="m460.1 62.721c18.034 0 33.402 6.3508 46.101 19.047 12.695 12.536 19.045 27.862 19.045 45.978v59.809h-49.376v-58.838c0-6.955-1.537-12.9-4.6089-17.833-3.0761-4.9334-6.7949-7.4011-11.161-7.4011-4.2886 0-7.9668 2.4677-11.04 7.4011-3.075 4.9324-4.61 10.879-4.61 17.833v58.838h-49.376v-59.809c0-18.116 6.3477-33.442 19.045-45.978 12.618-12.696 27.943-19.047 45.98-19.047z" fill="#ec008b" stroke-width="1.0399"/>
 <path d="m608.12 62.721c18.035 0 33.402 6.3508 46.1 19.047 12.696 12.536 19.047 27.862 19.047 45.978v59.809h-49.374v-58.838c0-6.955-1.538-12.9-4.611-17.833-3.074-4.9334-6.7949-7.4011-11.161-7.4011-4.2866 0-7.9648 2.4677-11.04 7.4011-3.074 4.9324-4.6079 10.879-4.6079 17.833v58.838h-49.376v-59.809c0-18.116 6.3477-33.442 19.045-45.978 12.617-12.696 27.943-19.047 45.978-19.047z" fill="#f57c14" stroke-width="1.0399"/>
 <path d="m720.8 52.894c-5.2589 5.1778-7.9679 9.0203-8.1291 11.525v0.2423c0 2.5904 2.3066 6.147 6.9155 10.677l5.4586 5.4586c4.8533 4.9344 7.2794 10.839 7.2794 17.713v89.045h-49.861v-89.045c0-6.955 2.4261-12.86 7.2795-17.713l5.5802-5.4586c4.5278-4.5299 6.7938-8.128 6.7938-10.798v-0.2423c-0.2423-2.4261-2.9544-6.2271-8.128-11.405l-5.9442-6.0659c-5.419-5.3379-8.1291-11.808-8.1291-19.41 0-7.6029 2.71-14.031 8.1291-19.288 5.2568-5.419 11.687-8.1291 19.288-8.1291 7.683 0 14.152 2.6684 19.41 8.0074 5.419 5.3379 8.1291 11.808 8.1291 19.411 0 7.685-2.71 14.154-8.1291 19.41z" fill="#f57c14" stroke-width="1.0399"/>
 <path d="m814.87 148.66c2.1838-4.1243 3.5992-8.9776 4.246-14.558h49.255c-1.3758 15.609-7.6039 28.873-18.683 39.792v0.12167c-12.616 12.698-27.823 19.046-45.615 19.046h-0.60628c-17.875 0-33.119-6.3477-45.736-19.046v-0.12167c-12.697-12.536-19.045-27.74-19.045-45.613v-0.60836c0-17.873 6.3477-33.078 19.045-45.614 12.617-12.697 27.944-19.047 45.978-19.047 17.957 0 33.281 6.3487 45.98 19.047 11.079 10.999 17.307 24.263 18.683 39.791h-49.255c-0.64683-5.5792-2.0622-10.433-4.246-14.558-3.1541-5.6593-6.8749-8.492-11.161-8.492s-7.9658 2.8328-11.038 8.492c-3.0761 5.7424-4.61 12.66-4.61 20.744 0 8.0074 1.5339 14.883 4.61 20.625 3.0719 5.6613 6.7512 8.5326 11.038 8.6137 4.2855-0.0811 8.0064-2.9523 11.16-8.6137z" fill="#f57c14" stroke-width="1.0399"/>
 <path d="m971.85 133.2 24.991 38.215c2.1017 3.1541 3.1541 5.9858 3.1541 8.491 0 1.0534-0.16327 2.0226-0.48564 2.9139-1.1335 3.153-3.5597 4.7306-7.2784 4.7306h-40.762l-25.719-39.428v39.306h-49.376v-100.09c0-6.7938 2.4272-12.615 7.2795-17.469 4.7712-4.7722 10.554-7.1578 17.348-7.1578 6.8739 0 12.697 2.3856 17.47 7.1578 4.8533 4.8533 7.2794 10.675 7.2794 17.469v26.691l22.322-39.914c3.4775-5.9016 8.5326-9.7056 15.164-11.403 2.1849-0.56468 4.3261-0.84858 6.4309-0.84858 4.2866 0 8.3703 1.1335 12.253 3.3964 5.9026 3.5597 9.7056 8.6563 11.404 15.286 0.56467 2.1048 0.84857 4.2065 0.84857 6.3082 0 4.2897-1.1741 8.3703-3.5191 12.253z" fill="#f57c14" stroke-width="1.0399"/>
</svg>
