<svg width="800" height="643.49" version="1.0" viewBox="0 0 640 514.79" xmlns="http://www.w3.org/2000/svg">
 <g transform="matrix(.074144 0 0 -.076849 -12.613 537.8)" fill="#ff8d00">
  <path d="m4105 6985c-167-16-343-41-470-67l-145-29c-25-5-58-13-75-18-16-5-47-12-68-16-127-21 54-25 1136-25 648 0 1168 4 1176 9 10 6 4 11-20 15-33 7-126 28-199 46-122 30-395 70-615 90-145 13-557 10-720-5z"/>
  <path d="m2351 6470c-51-27-126-69-165-92l-71-43 583-3 583-2 97 63c53 35 118 75 145 91 26 15 47 29 47 31 0 3-253 5-562 4l-563-1z"/>
  <path d="m5410 6515c0-3 10-10 23-15 23-10 31-15 105-62 24-16 45-28 48-28s29-18 58-40l53-40h578c504 0 576 2 565 15s-93 60-248 142l-63 33h-560c-307 0-559-2-559-5z"/>
  <path d="m1651 6021c-90-68-282-243-278-255 4-13 1375-21 1392-8 6 4 33 41 60 82s72 105 102 141c29 36 53 69 53 73 0 3-287 6-638 6h-638z"/>
  <path d="m6010 6050c0-5 32-51 71-102s87-117 105-145l34-53h687c379 0 693 4 700 8 13 8-109 126-245 235l-83 67h-634c-398 0-635-4-635-10z"/>
  <path d="m1160 5517c-50-39-216-363-208-405 3-16 56-17 771-20 480-1 775 1 786 8 12 6 20 26 25 57 3 26 13 71 22 98 8 28 22 75 32 105 9 30 19 60 23 65 3 6 12 27 19 49 10 32 10 40-1 47-23 14-1451 11-1469-4z"/>
  <path d="m6353 5513c-4-9 6-51 21-92 34-91 52-154 71-240 8-35 20-70 26-77 10-12 136-14 778-14 421 0 772 4 779 8 13 9 8 31-18 87-5 11-21 47-35 80-37 83-111 208-142 239l-26 26h-724c-669 0-724-1-730-17z"/>
  <path d="m893 4844c-3-9-3-86 0-172 6-143 19-226 40-259 10-16 1562-19 1572-3 3 5 1 47-5 92-7 46-12 144-13 218l-2 135-793 3c-717 2-793 1-799-14z"/>
  <path d="m6507 4853c-4-3-7-65-8-137 0-72-6-169-13-216-9-61-10-87-2-92 6-4 358-8 781-8 424 0 775 4 780 8 30 20 60 276 46 392l-6 55-786 3c-432 1-789-1-792-5z"/>
  <path d="m1011 4221c-12-8-12-14-1-40 38-94 182-306 273-403l35-38h695c382 0 702 2 710 6 11 4 3 28-38 112-49 100-125 304-125 337 0 8-9 19-19 25-25 13-1510 14-1530 1z"/>
  <path d="m6436 4208c-8-13-18-36-21-53-15-68-76-220-131-328-19-37-32-72-29-77 4-6 270-10 708-10h701l49 53c100 105 257 351 260 405l2 27-762 3-762 2z"/>
  <path d="m1496 3581c-11-18 187-179 389-316 52-36 97-65 100-65 2 0 30-18 63-39 56-38 150-93 182-108 8-4 36-19 61-35l46-28h562c549 0 602 3 539 30-13 5-50 29-83 52-172 123-322 264-431 406-37 48-74 93-83 100-11 9-162 12-677 12-373 0-665-4-668-9z"/>
  <path d="m6073 3493c-143-180-381-395-512-464-23-11-41-25-41-30s236-9 561-9c513 0 564 1 592 17 246 135 621 383 718 475 8 7 36 30 62 52 36 29 45 41 35 47-7 5-311 9-675 9h-662z"/>
  <path d="m2555 2890c-3-5 7-13 22-16 15-4 37-13 48-19 11-7 74-34 140-60s129-51 140-56c29-13 283-96 330-108 22-6 67-17 100-26s87-23 120-30 67-15 75-18c14-5 130-25 325-57 219-36 823-48 1085-22 180 18 431 59 590 97 36 9 85 20 110 25 25 6 56 14 70 19 14 4 52 16 85 26 163 48 401 135 530 195 33 15 70 30 83 34 68 22-14 26-532 26h-554l-58-26c-103-45-128-53-319-102-329-85-751-64-1105 55-47 16-53 18-134 52-47 20-65 21-597 21-343 0-550-4-554-10z"/>
  <path d="m177 1783c-9-8-9-335-1-357 5-14 32-16 199-16s194-2 199-16c3-9 6-252 6-540v-524h450l2 538 3 537 189 3c121 1 194 6 203 14 11 8 13 49 11 187l-3 176-626 3c-344 1-629-1-632-5z"/>
  <path d="m2667 1783c-4-3-7-332-7-730v-723h199c172 0 200 2 205 16 3 9 6 332 6 718 0 533-3 705-12 714-13 13-379 18-391 5z"/>
  <path d="m5842 1648 3-143 184-3c129-2 188 1 197 9 12 9 14 40 12 143l-3 131-198 3-198 2z"/>
  <path d="m1745 1408c-97-25-144-42-197-74-108-66-214-207-239-321-64-284 47-543 278-650 93-43 144-54 268-60 192-9 358 48 470 161 62 63 102 133 92 160-5 14-32 16-176 16-161 0-171-1-198-23-101-81-249-74-315 14-30 40-52 103-44 124 5 13 61 15 380 15 274 0 377 3 382 12 4 6 6 41 5 77-6 168-64 314-161 409-66 64-168 115-265 133-92 16-230 20-280 7zm212-265c65-30 103-79 103-130v-33h-184c-102 0-187 3-189 8-9 16 14 70 45 105 55 62 152 83 225 50z"/>
  <path d="m3689 1402c-189-44-323-162-391-344-27-73-31-96-32-193-1-121 10-176 55-270 51-107 127-180 250-237 71-34 142-49 264-55 181-9 343 45 453 151 52 49 116 151 108 171-4 12-36 15-180 15-169 0-175-1-203-24-104-88-260-70-326 36-16 26-30 61-30 80l-2 33 770 10-2 78c-6 236-111 421-286 502-128 59-311 78-448 47zm244-261c47-20 76-51 97-100 24-60 20-61-185-61h-185v23c0 28 38 90 70 115 58 44 133 53 203 23z"/>
  <path d="m6803 1404c-236-43-353-151-353-327 0-172 117-268 392-322 221-44 262-62 262-119 0-62-76-97-178-82-34 5-52 16-75 42-17 19-31 41-31 49 0 7-4 17-10 20-7 5-213 8-364 5-17 0-18-6-13-51 23-191 234-319 527-319 259 0 443 83 509 230 16 35 21 66 21 138 0 122-24 173-111 237-34 25-69 45-78 45s-21 4-26 9c-11 10-134 41-265 66-110 21-159 42-166 71-14 57 31 94 113 94 57 0 114-33 138-80l16-30h349v41c0 22-9 59-19 82-20 42-84 111-131 138-112 67-335 94-507 63z"/>
  <path d="m8074 1405c-205-32-308-107-349-253-16-54-16-65-4-73 8-5 92-9 187-9 155 0 173 2 179 18 17 44 47 71 94 82 100 24 189-18 189-89 0-65-48-93-195-111-254-32-334-57-418-130-68-60-91-115-91-220 0-108 29-179 95-231 60-47 76-55 148-73 148-38 323-9 429 72 37 28 49 23 54-23l3-30 204-3 203-2-6 22c-4 13-12 39-17 58s-9 163-9 319c0 375-15 495-72 561-89 106-362 156-624 115zm295-694c-4-72-7-83-34-112-17-17-44-38-62-45-90-39-193 8-193 88 0 48 34 83 94 99 42 11 77 21 131 38 66 21 67 19 64-68z"/>
  <path d="m4510 1374c0-8 29-102 63-207 35-106 110-331 166-502s105-315 109-322c6-9 69-13 241-13 128-1 236 1 239 5 11 11 351 1039 346 1047-3 5-94 8-203 8h-198l-16-52c-8-29-18-64-22-78-83-318-115-444-115-462 0-33-21-29-36 7-8 21-40 134-70 254-30 119-58 230-63 246-5 17-12 42-15 58l-6 27h-210c-184 0-210-2-210-16z"/>
  <path d="m5840 861c0-339 4-531 10-533 5-1 94-1 197 2l188 5v1050l-197 3-198 2z"/>
 </g>
</svg>
