<svg width="800" height="614.97" version="1.1" viewBox="0 0 800 614.97" xmlns="http://www.w3.org/2000/svg">
 <g transform="matrix(5.635 0 0 5.635 -144.14 -234.17)" fill="#fff">
  <polygon points="30.87 149.03 30.87 134.63 25.58 134.63 25.58 131.37 40.05 131.37 40.05 134.63 34.76 134.63 34.76 149.03"/>
  <rect x="52.76" y="131.37" width="3.51" height="17.66"/>
  <rect x="71.84" y="140.77" width="7.44" height="3.02"/>
  <path d="m91.24 142.5 2 1.83a6.88 6.88 0 0 0 1.09-4.06c0-3.09-1.32-6.06-4.8-6.06s-4.8 3-4.8 6.06 1.31 5.92 4.8 5.92a2.86 2.86 0 0 0 1.56-0.25l-1.66-1.51zm5.06 8.19-2.49-2.28a8.58 8.58 0 0 1-4.28 1c-5.47 0-8.69-4.08-8.69-9.18s3.22-9.23 8.69-9.23 8.68 4.08 8.68 9.32a9.73 9.73 0 0 1-2.3 6.51l2.2 2z"/>
  <path d="m111.79 149h-3.34v-1.78h-0.07a4.56 4.56 0 0 1-3.91 2.13c-3.74 0-4.68-2.11-4.68-5.27v-7.87h3.52v7.22c0 2.11 0.61 3.15 2.25 3.15 1.9 0 2.72-1.07 2.72-3.66v-6.71h3.51z"/>
  <path d="m120.13 134.66h-2.45l2.21-3.29h3.88zm2.25 6.6c-0.32-1.78-1.09-2.72-2.8-2.72a2.78 2.78 0 0 0-2.92 2.72zm-5.72 2.23c0.1 2.23 1.19 3.24 3.15 3.24a2.88 2.88 0 0 0 2.77-1.66h3.09a5.76 5.76 0 0 1-6 4.31c-4 0-6.53-2.77-6.53-6.73a6.42 6.42 0 0 1 6.53-6.76c4.36 0 6.46 3.67 6.21 7.6z"/>
  <path d="m45.52 134.66h-2.45l2.2-3.29h3.89zm2.25 6.6c-0.33-1.78-1.09-2.72-2.8-2.72a2.77 2.77 0 0 0-2.92 2.72zm-5.72 2.23c0.1 2.23 1.19 3.24 3.14 3.24a2.88 2.88 0 0 0 2.81-1.66h3.1a5.76 5.76 0 0 1-6 4.31c-4 0-6.53-2.77-6.53-6.73a6.42 6.42 0 0 1 6.53-6.76c4.35 0 6.46 3.67 6.21 7.6z"/>
  <path d="m64.71 134.66h-2.45l2.21-3.29h3.88zm2.25 6.6c-0.32-1.78-1.08-2.72-2.79-2.72a2.77 2.77 0 0 0-2.92 2.72zm-5.71 2.23c0.1 2.23 1.18 3.24 3.14 3.24a2.88 2.88 0 0 0 2.77-1.66h3.09a5.75 5.75 0 0 1-6 4.31c-4 0-6.53-2.77-6.53-6.73a6.42 6.42 0 0 1 6.53-6.76c4.35 0 6.45 3.67 6.21 7.6z"/>
  <path d="m133.66 138.54c-2.08 0-3 2-3 4.11s0.91 4.08 3 4.08 3-1.95 3-4.08-0.92-4.11-3-4.11m-6.38-7.17h3.51v6.43h0.05a4.73 4.73 0 0 1 4-1.9c2.55 0 5.3 2 5.3 6.72s-2.75 6.76-5.3 6.76c-1.88 0-3.43-0.57-4.2-2v1.62h-3.34z"/>
  <path d="m150.31 141.26c-0.32-1.78-1.09-2.72-2.8-2.72a2.76 2.76 0 0 0-2.91 2.72zm-5.71 2.23c0.09 2.23 1.18 3.24 3.14 3.24a2.88 2.88 0 0 0 2.77-1.66h3.09a5.75 5.75 0 0 1-6 4.31c-4 0-6.54-2.77-6.54-6.73a6.43 6.43 0 0 1 6.54-6.76c4.35 0 6.45 3.67 6.2 7.6z"/>
  <path d="m163.92 140.74a2.4 2.4 0 0 0-2.6-2.2c-2.26 0-3 2.28-3 4.16s0.72 4 2.92 4a2.7 2.7 0 0 0 2.8-2.6h3.39c-0.45 3.39-2.8 5.25-6.16 5.25a6.21 6.21 0 0 1-6.46-6.56c0-4 2.38-6.93 6.53-6.93 3 0 5.79 1.59 6 4.85z"/>
  <path d="m114.82 105.55-4.82-2.25a219.21 219.21 0 0 0-26.33-11.7c-14.06-5.12-26.77-8.52-34.62-9.92l26.15-32.41a258 258 0 0 1 30.32 0.22l14 1.43c12.34 1.73 22.73 4.41 28.88 5.74zm11.77-61.3-18.1-1.92a321.23 321.23 0 0 0-39.17-0.33l-33.77 43.59c10.14 1.87 26.56 6.41 44.72 13.32a278.39 278.39 0 0 1 34 15.73l5.83 3.39 43.79-66.03c-7.95-1.79-21.37-5.39-37.3-7.71"/>
  <path d="m167.55 80.9c-7.56 6.32-35.9 6.87-69.9 0.69-33.29-6-61.48-16.63-70.2-25.65 16.73 6.84 41.55 13.77 69.22 18.8 28.84 5.26 54.42 7.26 70.88 6.16"/>
  <path d="m165.25 91c-7.66 6.19-36 6.28-69.91-0.46-33.17-6.54-61.19-17.64-69.76-26.8 16.61 7.12 41.32 14.46 68.9 19.94 28.75 5.71 54.3 8.16 70.77 7.33"/>
  <path d="m93 70.46c-3.56-3.62-2.78-10.14 1.73-14.58s11-5.11 14.61-1.5 2.78 10.14-1.73 14.58-11 5.11-14.61 1.5"/>
 </g>
</svg>
