<svg width="800" height="205.34" version="1.1" viewBox="0 0 800 205.34" xmlns="http://www.w3.org/2000/svg">
 <defs>
  <style>.cls-1{fill:#a41e35;}.cls-2{fill:#fff;}</style>
 </defs>
 <g transform="matrix(3.9899 0 0 3.9899 -7.8201 -5.7086)">
  <path d="m1.96 2.94h48.94v49.05h-48.94z" fill="#a41e35"/>
  <path d="m12.85 10.95h27.29v10.65h2.71v-13.3h-32.85v13.3h2.85z" fill="#fff"/>
  <path d="m17.33 40.81h7.53v-26.54h-8.82v7.33h2.79v-4.55h3.25v21.04h-4.75z" fill="#fff"/>
  <path d="m28.16 14.24v26.53h7.53v-2.71h-4.75v-21.04h3.26v4.58h2.78v-7.36h-6.04z" fill="#fff"/>
  <path d="m17.33 43.95v2.68h18.36v-2.68z" fill="#fff"/>
 </g>
 <g transform="matrix(1.026 0 0 1.026 232.75 -28.881)">
  <path transform="matrix(.75 0 0 .75 -.34501 .06999)" d="m72.687 56.56v32.025h-38.754l-0.02734 38.107h38.781v66.641c0 25.574 9.0853 41.856 33.873 51.945 23.636 7.5471 51.195 5.1426 77.412 1.6816v-38.32c-11.373 1.1733-22.706 2.4534-34.119 1.0801-14.037-2.0553-16.859-14.609-16.859-29.734v-53.293h50.033v57.293c0 44.779 33.909 68.654 80.086 68.654 31.52 0 51.643-13.875 67.268-34.281l1.2793 28.281h58.133l3e-5 -158.05-61.02 2e-3v65.986c0 30.53-15.923 57.99-46.961 57.99-28.448-0.0475-38.406-19.722-38.406-47.311v-76.666l-110.41-2e-3v-51.146z" fill="#a41e35" stroke-width="1.3333"/>
 </g>
 <path d="m532.34 68.68h28.63v51.279c0 19.679 6.9911 32.208 26.065 39.971 18.188 5.8074 39.395 3.9572 59.569 1.294v-29.487c-8.7516 0.90287-17.473 1.8879-26.256 0.83111-10.801-1.5816-12.973-11.242-12.973-22.88v-41.008h35.485l43.243 92.251h56.906l56.989-121.57h-44.055l-41.387 94.174-41.386-94.174h-65.796v-39.358l-46.405 14.713v24.643l-28.63 1e-3z" fill="#fff" stroke-width="1.026"/>
 <path d="m225.37 6.0216h6.0216v195.7h-6.0216z" fill="#fff" stroke-width=".70066"/>
 <g transform="matrix(.74855 0 0 .74855 283.96 89.517)" fill="#fff" aria-label="TEMPLE UNIVERSITY TELEVISION">
  <path d="m-1.3302 131.89h-7.76v-5.64h23.28v5.64h-7.76v22.36h-7.76z"/>
  <path d="m17.372 126.25h20.2v5.44h-12.44v5.6h11.52v5.44h-11.52v6.08h12.76v5.44h-20.52z"/>
  <path d="m49.654 136.45v17.8h-7.36v-28h8.92l6.72 12.56 6.92-12.56h8.72v28h-7.36v-17.8l-5.04 9.32h-6.48z"/>
  <path d="m101.53 135.69q0 2.36-0.84 4.16-0.84 1.76-2.4 2.96-1.56 1.16-3.76 1.76-2.16 0.56-4.84 0.56h-3v9.12h-7.52v-28h10.52q2.68 0 4.84 0.6 2.2 0.56 3.76 1.76 1.56 1.16 2.4 2.92t0.84 4.16zm-7.6 0q0-2.28-1.24-3.16-1.2-0.92-3.44-0.92h-2.56v8.16h2.56q2.24 0 3.44-0.92 1.24-0.92 1.24-3.16z"/>
  <path d="m105.42 126.25h7.76v22.36h13.4v5.64h-21.16z"/>
  <path d="m129.95 126.25h20.2v5.44h-12.44v5.6h11.52v5.44h-11.52v6.08h12.76v5.44h-20.52z"/>
  <path d="m179.54 154.73q-2.84 0-5.2-0.72-2.32-0.76-4-2.24-1.64-1.48-2.56-3.72-0.88-2.28-0.88-5.28v-16.52h7.76v16.52q0 3.12 1.16 4.68t3.72 1.56 3.72-1.56 1.16-4.68v-16.52h7.76v16.52q0 3-0.92 5.28-0.88 2.24-2.56 3.72-1.64 1.48-4 2.24-2.32 0.72-5.16 0.72z"/>
  <path d="m197.76 126.25h8.8l8.88 17.92v-17.92h7.36v28h-8.76l-8.92-17.92v17.92h-7.36z"/>
  <path d="m236.35 126.25v28h-7.76v-28z"/>
  <path d="m254.22 147.73 6.36-21.48h7.92l-9.16 28h-10.24l-9.16-28h7.92z"/>
  <path d="m271.9 126.25h20.2v5.44h-12.44v5.6h11.52v5.44h-11.52v6.08h12.76v5.44h-20.52z"/>
  <path d="m304.35 144.41v9.84h-7.52v-28h10.8q2.56 0 4.72 0.56 2.16 0.52 3.72 1.6t2.4 2.76q0.88 1.64 0.88 3.92 0 2.64-1.36 4.76t-4.36 3.32l7.84 11.08h-8.36l-6.36-9.84zm7.4-9.32q0-1.92-1.16-2.76-1.12-0.84-3.16-0.84h-3.08v7.16h3.08q2.04 0 3.16-0.84 1.16-0.84 1.16-2.72z"/>
  <path d="m323.28 134.13q0-3.88 2.92-6.12t8.4-2.24q2.2 0 4.28 0.36 2.12 0.36 3.96 1l-0.48 5.84q-1.92-0.68-3.68-1.08t-3.44-0.4q-2.24 0-3.2 0.68-0.92 0.68-0.92 1.56 0 0.56 0.2 1.04 0.24 0.44 0.8 0.88 0.6 0.44 1.56 0.88 1 0.44 2.52 0.92 4.28 1.4 6.2 3.48t1.92 5.32q0 4-2.84 6.24-2.8 2.24-8.52 2.24-2.56 0-5.08-0.56-2.48-0.56-4.48-1.56l0.56-6.2q1.68 1.24 3.84 1.96t4.44 0.72q0.8 0 1.56-0.12 0.76-0.16 1.36-0.44 0.6-0.32 0.96-0.8t0.36-1.16q0-0.6-0.24-1.08-0.2-0.48-0.8-0.92t-1.64-0.88-2.64-0.96q-4.04-1.28-5.96-3.36t-1.92-5.24z"/>
  <path d="m356.58 126.25v28h-7.76v-28z"/>
  <path d="m367.73 131.89h-7.76v-5.64h23.28v5.64h-7.76v22.36h-7.76z"/>
  <path d="m395.38 143.21-10.36-16.96h8.28l5.96 10.4 5.96-10.4h8.28l-10.36 16.96v11.04h-7.76z"/>
  <path d="m434.29 131.89h-7.76v-5.64h23.28v5.64h-7.76v22.36h-7.76z"/>
  <path d="m453 126.25h20.2v5.44h-12.44v5.6h11.52v5.44h-11.52v6.08h12.76v5.44h-20.52z"/>
  <path d="m477.92 126.25h7.76v22.36h13.4v5.64h-21.16z"/>
  <path d="m502.45 126.25h20.2v5.44h-12.44v5.6h11.52v5.44h-11.52v6.08h12.76v5.44h-20.52z"/>
  <path d="m539.45 147.73 6.36-21.48h7.92l-9.16 28h-10.24l-9.16-28h7.92z"/>
  <path d="m565.1 126.25v28h-7.76v-28z"/>
  <path d="m569.77 134.13q0-3.88 2.92-6.12t8.4-2.24q2.2 0 4.28 0.36 2.12 0.36 3.96 1l-0.48 5.84q-1.92-0.68-3.68-1.08t-3.44-0.4q-2.24 0-3.2 0.68-0.92 0.68-0.92 1.56 0 0.56 0.2 1.04 0.24 0.44 0.8 0.88 0.6 0.44 1.56 0.88 1 0.44 2.52 0.92 4.28 1.4 6.2 3.48t1.92 5.32q0 4-2.84 6.24-2.8 2.24-8.52 2.24-2.56 0-5.08-0.56-2.48-0.56-4.48-1.56l0.56-6.2q1.68 1.24 3.84 1.96t4.44 0.72q0.8 0 1.56-0.12 0.76-0.16 1.36-0.44 0.6-0.32 0.96-0.8t0.36-1.16q0-0.6-0.24-1.08-0.2-0.48-0.8-0.92t-1.64-0.88-2.64-0.96q-4.04-1.28-5.96-3.36t-1.92-5.24z"/>
  <path d="m603.07 126.25v28h-7.76v-28z"/>
  <path d="m635.22 140.25q0 3.12-0.92 5.76-0.88 2.64-2.64 4.6-1.76 1.92-4.36 3.04-2.6 1.08-5.96 1.08t-5.96-1.08q-2.6-1.12-4.36-3.04-1.76-1.96-2.68-4.6-0.88-2.64-0.88-5.76t0.88-5.76q0.92-2.64 2.68-4.56 1.76-1.96 4.36-3.04 2.6-1.12 5.96-1.12t5.96 1.12q2.6 1.08 4.36 3.04 1.76 1.92 2.64 4.56 0.92 2.64 0.92 5.76zm-7.84 0q0-4.32-1.6-6.64-1.56-2.32-4.44-2.32t-4.48 2.32q-1.56 2.32-1.56 6.64t1.56 6.64q1.6 2.32 4.48 2.32t4.44-2.32q1.6-2.32 1.6-6.64z"/>
  <path d="m639.4 126.25h8.8l8.88 17.92v-17.92h7.36v28h-8.76l-8.92-17.92v17.92h-7.36z"/>
 </g>
</svg>
