<svg width="1e3" height="400.73" version="1.0" xmlns="http://www.w3.org/2000/svg">
 <g transform="translate(-247.35 -182.58)">
  <g transform="matrix(40.376 0 0 -40.376 -8816.4 7972)" clip-path="url(#id9)">
   <g transform="translate(232.99 183)">
    <path d="m0 0c1.205 0.035 2.297 0.551 3.114 1.366 0.742-0.837 1.824-1.366 3.025-1.366 1.207 0 2.293 0.534 3.035 1.379 0.743-0.845 1.829-1.379 3.036-1.379 2.225 0 4.044 1.818 4.044 4.044v5.881h-2.64v-5.881c0-0.862-0.689-1.568-1.551-1.568-0.863 0-1.569 0.706-1.569 1.568v5.881h-2.64v-5.881c0-0.862-0.706-1.568-1.569-1.568-0.862 0-1.551 0.706-1.551 1.568v5.881h-2.64v-4.996c-0.019-1.234-0.92-2.258-2.026-2.291l-3.861 1e-3c-1.148 0-2.081 1.038-2.081 2.315 0 1.286 0.933 2.332 2.081 2.332h3.868v2.639l-3.868-7.2e-6c-2.603-4.8e-6 -4.72-2.227-4.72-4.971 0-2.728 2.117-4.954 4.72-4.954z" fill="#2e7734"/>
   </g>
   <g transform="translate(229.42 187.15)">
    <path d="m0 0v1.355h0.482v0.267h-1.297v-0.267h0.482v-1.355h0.333z" fill="#2e7734"/>
   </g>
   <g transform="translate(232.85 188.5)">
    <path d="m0 0v0.267h-1.05v-1.622h1.08v0.267h-0.746v0.421h0.655v0.273h-0.655v0.394h0.716z" fill="#2e7734"/>
   </g>
   <g transform="translate(231.49 187.15)">
    <path d="m0 0v1.622h-0.332v-0.661h-0.69v0.661h-0.332v-1.621h0.332v0.687h0.69v-0.688h0.332z" fill="#2e7734"/>
   </g>
  </g>
 </g>
</svg>
