<svg width="811.73" height="281.61" version="1.0" viewBox="0 0 761 264.01" xmlns="http://www.w3.org/2000/svg" xmlns:xlink="http://www.w3.org/1999/xlink">
 <g transform="translate(-3.2644 -780.15)">
  <g transform="matrix(1 0 0 -1 508.37 1373.2)" clip-path="url(#id180)">
   <g clip-path="url(#id181)">
    <g clip-path="url(#id182)">
     <g transform="matrix(.1725 0 0 .1725 303.3 602.67)">
      <use width="744.09448" height="1052.3622" xlink:href="#id183"/>
     </g>
    </g>
   </g>
  </g>
  <g transform="matrix(1 0 0 -1 508.37 1373.2)" clip-path="url(#id2157)">
   <g transform="matrix(.039856 0 0 .050919 476.08 545.49)">
    <use width="744.09448" height="1052.3622" xlink:href="#id2158"/>
   </g>
  </g>
  <g transform="matrix(1 0 0 -1 508.37 1373.2)" clip-path="url(#id2166)">
   <g transform="matrix(.039856 0 0 .039856 476.08 545.51)">
    <use width="744.09448" height="1052.3622" xlink:href="#id2025"/>
   </g>
  </g>
  <g transform="matrix(1 0 0 -1 508.37 1373.2)" clip-path="url(#id2257)">
   <g transform="matrix(.034317 0 0 .039856 470.06 542.61)">
    <use width="744.09448" height="1052.3622" xlink:href="#id2258"/>
   </g>
  </g>
  <g transform="matrix(1 0 0 -1 508.37 1373.2)" clip-path="url(#id2976)">
   <g transform="matrix(.13815 0 0 .13815 295.07 454.25)">
    <use width="744.09448" height="1052.3622" xlink:href="#id2977"/>
   </g>
  </g>
  <g transform="matrix(1 0 0 -1 508.37 1373.2)" clip-path="url(#id3465)">
   <g transform="matrix(.073578 0 0 .059952 327.02 475.44)">
    <use width="744.09448" height="1052.3622" xlink:href="#id3466"/>
   </g>
  </g>
  <g transform="matrix(1 0 0 -1 508.37 1373.2)" clip-path="url(#id4627)">
   <g transform="matrix(.038559 0 0 .038559 414.59 647.69)">
    <use width="744.09448" height="1052.3622" xlink:href="#id4628"/>
   </g>
  </g>
  <g transform="matrix(1 0 0 -1 508.37 1373.2)" clip-path="url(#id4686)">
   <g transform="matrix(.033203 0 0 .038559 402.02 648.8)">
    <use width="744.09448" height="1052.3622" xlink:href="#id2438"/>
   </g>
  </g>
  <g transform="matrix(23.993 0 0 -23.993 -7071.6 7869.9)" clip-path="url(#id4693)">
   <g transform="translate(307.44 284.75)">
    <path d="m0 0-0.565 1.509c0.527 0.166 1.027 0.448 1.461 0.848 0.464 0.428 0.799 0.94 1.005 1.493l1.483-0.629c-0.296-0.755-0.761-1.459-1.398-2.045-0.59-0.548-1.27-0.936-1.986-1.176" fill="#c3cc98"/>
   </g>
  </g>
  <g transform="matrix(23.993 0 0 -23.993 -7071.6 7869.9)" clip-path="url(#id4694)">
   <g transform="translate(309.06 291.9)">
    <path d="m0 0c-0.272 0.48-0.65 0.912-1.132 1.255-0.505 0.361-1.066 0.581-1.639 0.672-0.207 0.033-0.417 0.05-0.629 0.05-0.306 0-0.617-0.036-0.927-0.112-0.613-0.15-1.154-0.44-1.602-0.824l-0.995 1.264c0.622 0.522 1.37 0.912 2.21 1.12 0.441 0.109 0.882 0.161 1.316 0.161 0.307 0 0.612-0.026 0.91-0.075 0.801-0.133 1.584-0.444 2.29-0.948 0.654-0.466 1.175-1.051 1.556-1.703l-1.358-0.86" fill="#e3e8d0"/>
   </g>
   <g transform="translate(301.87 285.89)">
    <path d="m0 0 1.03 1.236c0.406-0.375 0.899-0.67 1.461-0.849 0.6-0.191 1.213-0.227 1.795-0.134l0.187-1.598c-0.803-0.119-1.644-0.062-2.47 0.2-0.766 0.244-1.44 0.641-2.003 1.145" fill="#93a445"/>
   </g>
  </g>
  <g transform="matrix(23.993 0 0 -23.993 -7071.6 7869.9)" clip-path="url(#id4695)">
   <g transform="translate(295.58 289.16)">
    <path d="m0 0v1.651h-0.71v0.221h1.705v-0.221h-0.711v-1.651z"/>
   </g>
   <g transform="translate(296.77 289.16)">
    <path d="m0 0v1.872h0.284v-0.769h1.122v0.769h0.284v-1.872h-0.284v0.883h-1.122v-0.883z"/>
   </g>
   <g transform="translate(298.78 289.16)">
    <path d="m0 0v1.872h1.557v-0.221h-1.273v-0.572h1.191v-0.22h-1.191v-0.638h1.324v-0.221z"/>
   </g>
   <g transform="translate(300.97 291.02)">
    <path d="m0 0h0.877l0.335-1.136 0.336 1.136h0.873v-1.868h-0.544v1.426l-0.422-1.426h-0.49l-0.421 1.426v-1.426h-0.544z"/>
   </g>
   <g transform="translate(304.22 290.09)">
    <path d="m0 0c0-0.189 0.04-0.325 0.121-0.407 0.08-0.082 0.19-0.124 0.329-0.124 0.142 0 0.253 0.041 0.331 0.121 0.078 0.081 0.117 0.226 0.117 0.436 0 0.176-0.041 0.304-0.122 0.385-0.082 0.082-0.193 0.122-0.332 0.122-0.134 0-0.241-0.041-0.322-0.123-0.081-0.083-0.122-0.219-0.122-0.41m-0.665 3e-3c0 0.306 0.098 0.543 0.293 0.714 0.196 0.17 0.468 0.255 0.817 0.255 0.358 0 0.634-0.084 0.828-0.251 0.193-0.167 0.29-0.401 0.29-0.703 0-0.218-0.042-0.397-0.127-0.537s-0.207-0.249-0.367-0.327-0.359-0.117-0.597-0.117c-0.243 0-0.444 0.034-0.602 0.101-0.159 0.067-0.288 0.174-0.387 0.319-0.098 0.145-0.148 0.327-0.148 0.546"/>
   </g>
   <g transform="translate(305.63 291.02)">
    <path d="m0 0h0.696l0.484-1.344 0.479 1.344h0.675l-0.8-1.868h-0.721z"/>
   </g>
   <path d="m308.04 291.02h0.665v-1.868h-0.665z"/>
   <g transform="translate(309 291.02)">
    <path d="m0 0h1.781v-0.399h-1.116v-0.296h1.037v-0.381h-1.037v-0.369h1.149v-0.423h-1.814z"/>
   </g>
   <g transform="translate(312.87 289.81)">
    <path d="m0 0 0.284-0.063c-0.06-0.203-0.167-0.358-0.322-0.465-0.156-0.107-0.346-0.16-0.57-0.16-0.232 0-0.421 0.041-0.566 0.123-0.146 0.082-0.257 0.201-0.333 0.357-0.075 0.155-0.113 0.323-0.113 0.501 0 0.195 0.043 0.365 0.128 0.51 0.086 0.145 0.208 0.255 0.366 0.331 0.159 0.075 0.333 0.113 0.523 0.113 0.215 0 0.397-0.048 0.544-0.143s0.249-0.229 0.307-0.402l-0.281-0.058c-0.05 0.136-0.123 0.236-0.218 0.298s-0.215 0.093-0.359 0.093c-0.165 0-0.304-0.034-0.415-0.103s-0.189-0.162-0.235-0.278c-0.044-0.116-0.067-0.236-0.067-0.359 0-0.159 0.027-0.298 0.08-0.417 0.054-0.119 0.137-0.208 0.25-0.266 0.112-0.059 0.234-0.088 0.366-0.088 0.16 0 0.295 0.04 0.406 0.12s0.186 0.198 0.225 0.356"/>
   </g>
   <g transform="translate(313.36 289.16)">
    <path d="m0 0v1.872h0.284v-0.769h1.122v0.769h0.284v-1.872h-0.284v0.883h-1.122v-0.883z"/>
   </g>
   <g transform="translate(315.8 289.93)">
    <path d="m0 0h0.732l-0.225 0.517c-0.068 0.158-0.119 0.288-0.153 0.39-0.029-0.122-0.069-0.242-0.118-0.36zm-0.62-0.771 0.825 1.871h0.312l0.879-1.871h-0.324l-0.25 0.568h-0.907l-0.234-0.568z"/>
   </g>
   <g transform="translate(317.32 289.16)">
    <path d="m0 0v1.872h0.291l1.133-1.47v1.47h0.272v-1.872h-0.291l-1.133 1.47v-1.47z"/>
   </g>
   <g transform="translate(319.33 289.16)">
    <path d="m0 0v1.872h0.291l1.133-1.47v1.47h0.272v-1.872h-0.291l-1.133 1.47v-1.47z"/>
   </g>
   <g transform="translate(321.41 289.16)">
    <path d="m0 0v1.872h1.557v-0.221h-1.273v-0.572h1.191v-0.22h-1.191v-0.638h1.324v-0.221z"/>
   </g>
   <g transform="translate(323.29 289.16)">
    <path d="m0 0v1.872h0.284v-1.651h1.061v-0.221z"/>
   </g>
   <g transform="translate(319.92 287.85)">
    <path d="m0 0-0.59 0.73h0.603l0.278-0.409 0.28 0.409h0.602l-0.59-0.73 0.66-0.79h-0.628l-0.324 0.46-0.323-0.46h-0.628z"/>
   </g>
   <g transform="translate(321.12 288.58)">
    <path d="m0 0h1.622v-0.34h-0.558v-1.18h-0.506v1.18h-0.558z"/>
   </g>
   <g transform="translate(323.4 287.91)">
    <path d="m0 0h0.487c0.124 0 0.19 0.064 0.19 0.168 0 0.1-0.066 0.164-0.19 0.164h-0.487zm-0.507 0.673h1.218c0.373 0 0.509-0.171 0.509-0.424 0-0.202-0.107-0.313-0.243-0.347v-4e-3c0.096-0.032 0.17-0.109 0.183-0.273 0.024-0.3 0.032-0.395 0.096-0.472h-0.556c-0.027 0.066-0.03 0.155-0.03 0.225 0 0.239-0.078 0.281-0.206 0.281h-0.464v-0.506h-0.507z"/>
   </g>
   <g transform="translate(325.62 288.2)">
    <path d="m0 0h-4e-3l-0.211-0.575h0.426zm-0.308 0.383h0.619l0.654-1.52h-0.543l-0.092 0.247h-0.664l-0.092-0.247h-0.542z"/>
   </g>
  </g>
 </g>
</svg>
