<svg width="1e3" height="398" version="1.1" xmlns="http://www.w3.org/2000/svg">
 <g transform="translate(723 385.92)">
  <g transform="matrix(3.7453 0 0 3.7197 -1649.4 -2157.7)" fill="#2e7734">
   <g transform="matrix(10.781 0 0 -10.781 -2172.7 2556.1)" clip-path="url(#id9)" fill="#2e7734">
    <g transform="translate(232.99 183)">
     <path d="m0 0c1.205 0.035 2.297 0.551 3.114 1.366 0.742-0.837 1.824-1.366 3.025-1.366 1.207 0 2.293 0.534 3.035 1.379 0.743-0.845 1.829-1.379 3.036-1.379 2.225 0 4.044 1.818 4.044 4.044v5.88h-2.64v-5.88c0-0.862-0.689-1.568-1.551-1.568-0.863 0-1.569 0.706-1.569 1.568v5.88h-2.64v-5.88c0-0.862-0.706-1.568-1.569-1.568-0.862 0-1.551 0.706-1.551 1.568v5.88h-2.64v-4.995c-0.019-1.234-0.92-2.258-2.026-2.291l-3.861 1e-3c-1.148 0-2.081 1.038-2.081 2.315 0 1.286 0.933 2.332 2.081 2.332h3.868v2.639h-3.868c-2.603 0-4.72-2.227-4.72-4.971 0-2.728 2.117-4.954 4.72-4.954z" fill="#2e7734"/>
    </g>
    <g transform="translate(229.42 187.15)">
     <path d="m0 0v1.355h0.482v0.267h-1.297v-0.267h0.482v-1.355z" fill="#2e7734"/>
    </g>
    <g transform="translate(232.85 188.5)">
     <path d="m0 0v0.267h-1.05v-1.622h1.08v0.267h-0.746v0.421h0.655v0.273h-0.655v0.394z" fill="#2e7734"/>
    </g>
    <g transform="translate(231.49 187.15)">
     <path d="m0 0v1.622h-0.332v-0.661h-0.69v0.661h-0.332v-1.621h0.332v0.687h0.69v-0.688z" fill="#2e7734"/>
    </g>
   </g>
  </g>
  <g transform="matrix(1.5636 0 0 1.5611 -340.18 -88.645)" fill="#fff">
   <g fill="#fff">
    <path d="m250.75 30.346v10.923h-7.9678v-30.285h12.073c2.6449 3.1e-5 4.6918 0.29186 6.1407 0.87547 1.4488 0.58368 2.739 1.6223 3.8706 3.116s1.6974 3.3186 1.6974 5.4746c-3e-5 1.5051-0.30009 2.9778-0.90019 4.4179-0.60016 1.4401-1.453 2.5768-2.5584 3.4099-1.1055 0.83314-2.1781 1.3861-3.2176 1.6589-1.0396 0.27284-2.6306 0.40925-4.7729 0.40924zm-0.23758-6.221h3.9976c1.5509 1.7e-5 2.6301-0.34811 3.2375-1.0444 0.60743-0.69624 0.91116-1.5017 0.91118-2.4163-2e-5 -1.0647-0.339-1.9075-1.0169-2.5282-0.67796-0.6207-1.7288-0.93107-3.1524-0.93109h-3.9771z"/>
    <path d="m277.99 34.573h11.698v6.6962h-19.645v-30.285h7.9472z"/>
    <path d="m316.96 10.984v18.751c-2e-5 3.013-0.35639 5.2812-1.0691 6.8047-0.71277 1.5234-2.016 2.7679-3.9098 3.7333-1.8938 0.96542-4.3019 1.4481-7.2242 1.4481-2.9196-1e-6 -5.2554-0.43602-7.0072-1.3081-1.7519-0.87204-3.0629-2.111-3.9331-3.7168-0.87022-1.6058-1.3053-3.9262-1.3053-6.9612v-18.751h8.4416v18.751c-1e-5 1.5408 0.11947 2.6463 0.35843 3.3165 0.23894 0.67017 0.71113 1.1991 1.4166 1.5868 0.7054 0.38773 1.5974 0.5816 2.6759 0.58159 1.2048 6e-6 2.1684-0.19157 2.8908-0.57472 0.72233-0.38314 1.2023-0.8924 1.4399-1.5278 0.23756-0.63537 0.35635-1.7628 0.35637-3.3824v-18.751z"/>
    <path d="m343.45 18.154-6.6577 2.1313c-0.82033-2.3263-2.3891-3.4895-4.7063-3.4895-2.406 2.4e-5 -3.609 0.73702-3.609 2.211-1e-5 0.58871 0.21628 1.0902 0.64888 1.5044 0.43257 0.4143 1.4925 0.79035 3.1798 1.1282 3.045 0.61159 5.2938 1.2392 6.7463 1.8828 1.4525 0.64363 2.6813 1.6876 3.6866 3.1318 1.0052 1.4443 1.5078 3.0531 1.5079 4.8264-3e-5 2.7768-1.0691 5.1778-3.2073 7.2029s-5.2874 3.0377-9.4476 3.0377c-3.122-1e-6 -5.7889-0.71617-8.0008-2.1485-2.2119-1.4323-3.6704-3.6907-4.3753-6.7751l7.2125-1.5628c0.73333 2.7429 2.6124 4.1144 5.6374 4.1144 1.4593 6e-6 2.5264-0.26527 3.2012-0.79582 0.67472-0.53054 1.0121-1.1529 1.0121-1.867-2e-5 -0.70952-0.30786-1.2714-0.92354-1.6857-0.6157-0.41426-1.8885-0.82099-3.8184-1.2202-3.8425-0.79558-6.6016-1.8992-8.2775-3.311-1.6759-1.4117-2.5138-3.4758-2.5138-6.1922 0-2.7292 0.99861-5.0358 2.9958-6.92 1.9972-1.8841 4.6928-2.8262 8.0866-2.8262 6.0049 3.1e-5 9.879 2.5411 11.622 7.6231z"/>
   </g>
  </g>
 </g>
</svg>
