<svg width="390.83pt" height="390.84pt" version="1.1" viewBox="0 0 390.83 390.84" xmlns="http://www.w3.org/2000/svg">
 <path d="m180.56 0.53419c31.15-2.29 62.87 2.79 91.61 15.1 32.11 13.61 60.38 36.08 80.95 64.23 20.86 28.39 33.75 62.55 36.88 97.63 2.91 31.38-1.88 63.46-13.93 92.6-11.78 28.73-30.61 54.53-54.34 74.56-20.19 17.13-43.94 30.05-69.28 37.73-29.32 8.94-60.75 10.81-90.94 5.51-34.13-5.9-66.58-21.14-92.9-43.65-24.47-20.78-43.66-47.73-55.27-77.66-12.15-31.06-16.09-65.27-11.46-98.29 4.45-32.39 17.23-63.59 36.81-89.77 21.53-28.94 51.25-51.73 84.85-64.89 18.2-7.23 37.5-11.54 57.02-13.1" fill="#6f7071"/>
 <g transform="translate(-4.5868 -4.5758)" fill="#f9b21c">
  <path d="m180.5 7.92c29.47-2.97 59.63 0.85 87.36 11.31 32.57 12.2 61.67 33.46 83.29 60.7 19.63 24.59 33.09 54.06 38.72 85.03 6.49 35.25 3.03 72.32-10.16 105.67-19.94 51.33-62.97 92.99-114.92 111.26-29.57 10.58-61.73 13.68-92.8 9.14-29.99-4.33-58.89-15.94-83.57-33.5-28.38-20.09-51.2-47.96-65.18-79.81-12.53-28.35-17.97-59.78-15.85-90.7 2.11-33.11 13.07-65.59 31.4-93.24 19.89-30.2 48.42-54.63 81.35-69.57 19.05-8.69 39.53-14.19 60.36-16.29m10.91 5.57c-29.31 1.29-58.31 9.56-83.81 24.08-29.72 16.8-54.68 41.89-71.35 71.68-15.69 27.86-23.97 59.83-23.87 91.8-0.06 31.7 8.12 63.37 23.58 91.04 17.52 31.55 44.34 57.86 76.25 74.72 28.37 15.1 60.69 22.59 92.81 21.68 33.16-0.8 66.06-10.64 94.18-28.25 27.33-17.03 50.17-41.21 65.58-69.5 15.16-27.66 23.07-59.22 22.84-90.76-0.08-31.85-8.48-63.63-24.21-91.32-17.03-30.19-42.59-55.49-72.96-72.18-30.04-16.66-64.75-24.58-99.04-22.99z"/>
  <path d="m128.71 130.71c19.05-18.74 45.34-30.72 72.28-30.37 23.44 0.18 46.19 9.72 64.14 24.52 7.27 5.79 13 13.24 18.19 20.89 10.65 15.95 16.77 35.04 16.47 54.28-0.08 17.66-5.03 35.16-13.54 50.59-7.05-16.53-18-31.59-32.49-42.36-26.04-19.63-63.01-22.54-92.42-9.01-21.61 10.12-38.31 29.34-47.11 51.33-9.93-19.1-15.06-41-12.61-62.53 2.49-21.36 12.14-41.87 27.09-57.34m65.46-14.74c0.55 2.18 2.5 3.49 4.13 4.85-0.06 2.05-0.13 4.11-0.21 6.16-5.87 1.31-11.65 3.83-15.86 8.25-4.57 4.47-6.54 10.83-7.14 17.06 1.91-0.01 3.83-0.02 5.76-0.03 0.81-9.25 7.47-18.01 17-19.31-0.25 6.38-0.54 12.77-0.76 19.15 2.05 0 4.11 0.01 6.16 0.01-0.25-6.43-0.55-12.85-0.66-19.28 3.99 1.13 8.09 2.51 11.07 5.53 3.88 3.48 5.38 8.71 5.79 13.75 1.92 0 3.84-0.01 5.77-0.01-0.49-5.85-2.04-11.85-5.99-16.36-4.2-5.07-10.67-7.53-17.05-8.3-0.06-2.18-0.11-4.37-0.18-6.55 1.38-1.23 3.05-2.3 3.91-4.01 1.25-2.91-0.34-6.42-3.08-7.8-4.17-2.54-10.23 2.23-8.66 6.89m-23.57 40.45c0.05 2 0.08 4 0.12 6.01 19.63 0.02 39.25 0.03 58.88-0.01-0.02-2.04-0.02-4.07-0.02-6.11-19.66 0.05-39.32-0.17-58.98 0.11m4.3 10.05c-0.11 8.02 0.43 16.03 0.23 24.05 2.03-0.62 4.07-1.24 6.1-1.86 0.04-7.39-0.02-14.77 0.04-22.15-2.13-0.01-4.25-0.02-6.37-0.04m44.33 0.05c0.12 7.35 0.1 14.71 0.01 22.07 2.04 0.66 4.07 1.33 6.11 2 0.08-8.03 0.14-16.06 0.33-24.09-2.15 0-4.3 0.01-6.45 0.02m-29.47 0.09c0.03 7.08 0.02 14.16 0.01 21.24 2.13-0.22 4.27-0.43 6.41-0.65 0.01-6.89-0.01-13.77 0.01-20.66-2.14 0.02-4.28 0.04-6.43 0.07m14.48-0.01c0.19 6.86 0.1 13.72 0.06 20.58 2.11 0.26 4.23 0.51 6.35 0.77-0.01-7.08-0.07-14.16 0.04-21.24-2.15-0.06-4.3-0.1-6.45-0.11z"/>
  <path d="m145.77 220.75c10.77-9.73 24-16.59 37.98-20.38-8.25 5.75-15.74 12.75-20.89 21.47-7.25 11.94-11.03 25.88-11.27 39.82-9.91-0.09-19.81-0.03-29.72-0.04 3.64-15.61 11.9-30.17 23.9-40.87z"/>
  <path d="m217.21 200.37c18.73 5.11 36.26 15.78 48.02 31.41 6.71 8.79 11.16 19.13 13.83 29.82-9.92 0.05-19.84-0.01-29.76 0.03-0.32-18.83-7.11-37.95-20.39-51.55-3.47-3.74-7.76-6.53-11.7-9.71z"/>
  <path d="m160.73 261.93c1.3-24.4 13.88-48.49 34.87-61.51-0.12 20.52 0.03 41.04-0.07 61.57-11.6-0.19-23.2-0.08-34.8-0.06z"/>
  <path d="m205.24 200.45c20.91 13.02 33.6 37.07 34.76 61.45-11.57 0.01-23.15-0.04-34.72 0.03-0.01-20.5 0.06-40.99-0.04-61.48z"/>
  <path d="m133.39 273.75c6.09 0.09 12.18 0 18.27 0.08-0.07 4.45-0.02 8.91-0.05 13.37-6.36-4.08-12.62-8.37-18.22-13.45z"/>
  <path d="m160.51 274.07c6.79 0.14 13.58 0.05 20.37 0.06 0.01 7.89-0.13 15.78 0.09 23.67-7.06-1.39-14.04-3.41-20.53-6.54 0.11-5.73 0.01-11.46 0.07-17.19z"/>
  <path d="m190.11 273.8c6.8-0.01 13.61 0 20.42-0.01-0.04 8.43 0.01 16.87-0.03 25.3-6.77 0.51-13.58 0.63-20.35 0.02-0.03-8.44 0.04-16.87-0.04-25.31z"/>
  <path d="m218.8 274.11c6.81 0.04 13.63 0.07 20.45-0.01 0.02 5.71-0.03 11.43 0.04 17.14-6.46 3.24-13.5 5.03-20.5 6.67 0.01-7.93 0-15.86 0.01-23.8z"/>
  <path d="m248.45 287.2c-0.03-4.48-0.01-8.95-0.02-13.42 6.07 0.02 12.15 0.04 18.22-0.03-5.61 5.07-11.87 9.34-18.2 13.45z"/>
 </g>
 <g transform="translate(-4.5868 -4.5758)" fill="#a7acb3">
  <path d="m189.34 16.37c33.72-1.94 67.95 5.42 97.71 21.45 29.29 15.64 54.21 39.32 71.33 67.76 17.32 28.61 26.64 62.03 26.43 95.49 0.17 34.11-9.59 68.16-27.6 97.12-17.36 28.03-42.32 51.31-71.56 66.57-27.47 14.47-58.66 21.72-89.69 20.96-33.73-0.6-67.2-10.82-95.57-29.06-30.95-19.79-55.79-48.98-70.27-82.75-14.21-32.79-18.34-69.74-12.23-104.91 5.13-29.7 17.79-58.04 36.36-81.77 20.15-25.84 47.25-46.2 77.73-58.24 18.28-7.24 37.73-11.51 57.36-12.62m-5.94 73.22c-26.27 3.81-50.91 17.52-68.12 37.7-17.08 19.74-26.81 45.64-26.91 71.75-0.31 24.83 8.03 49.67 23.31 69.26 15.18 19.72 37.16 34.12 61.34 40.05 24.3 6.08 50.63 3.69 73.39-6.78 25.78-11.7 46.71-33.61 57.2-59.92 9.99-24.68 10.67-52.96 1.94-78.11-8.48-24.75-26.02-46.24-48.54-59.55-21.89-13.12-48.39-18.23-73.61-14.4"/>
  <path d="m129.59 57.65c4.74 5.65 8.62 11.97 13.64 17.4-2.6 1.25-5.17 2.56-7.71 3.93-2.29-7.02-3.9-14.23-5.93-21.33z"/>
  <path d="m281.43 62.51c2.74-2.37 7.21-0.77 8.22 2.57 0.66 2.98-0.69 5.92-1.95 8.55-2.13 4.11-4.59 8.06-7.35 11.78-1.95 2.43-4.17 5.1-7.4 5.7-3.12 0.05-6.03-2.91-5.43-6.09 0.65-4.44 3.17-8.27 5.41-12.05 2.44-3.76 4.81-7.78 8.5-10.46z"/>
  <path d="m323.58 92.87c1.35 1.96 3.75 4.33 2.26 6.88-1.53 2.55-3.93 4.76-6.83 5.58-2.64 0.59-4.53-1.72-6.36-3.18 3.64-3.1 7.34-6.12 10.93-9.28z"/>
  <path d="m337.7 221.44c0.39-2.94 0.75-5.88 1.08-8.82 6.9 2.45 13.95 4.46 20.83 6.97-7.28 0.89-14.66 0.62-21.91 1.85z"/>
  <path d="m155.38 351.37c3.58-6.43 6.43-13.25 10.11-19.62-0.64 7.3-1.46 14.59-1.54 21.93-2.87-0.74-5.72-1.51-8.57-2.31z"/>
 </g>
 <g transform="translate(-4.5868 -4.5758)" fill="#fff">
  <path d="m203.32 32.79c2.47-0.02 4.93 0.02 7.39 0.11-0.41 14.16-1.07 28.32-1.48 42.49-2.47-0.07-4.94-0.15-7.41-0.23 0.58-14.12 1.15-28.25 1.5-42.37z"/>
  <path d="m162.17 36.99c2.41-0.43 4.84-0.81 7.27-1.12 2.19 12.24 4.7 24.42 6.79 36.68 4.07-0.65 8.11-1.46 12.15-2.3 0.32 1.62 0.66 3.24 0.99 4.86-6.45 1.23-12.91 2.44-19.37 3.64-2.57-13.92-5.24-27.84-7.83-41.76z"/>
  <path d="m225.77 77.21c3.93-13.55 7.38-27.24 11.11-40.84 6.38 1.8 12.81 3.45 19.21 5.21-0.44 1.58-0.88 3.15-1.32 4.73-4.03-1.09-8.05-2.21-12.08-3.29-1.15 4.31-2.35 8.6-3.43 12.93 3.65 0.96 7.31 1.94 10.96 2.93-0.53 1.59-1.05 3.19-1.58 4.78-3.53-1.1-7.1-2.08-10.68-3.02-1.68 6.21-3.35 12.43-5.01 18.65-2.43-0.6-4.82-1.29-7.18-2.08z"/>
  <path d="m123.47 51.65c1.76-0.91 3.52-1.81 5.29-2.7 9.78 10.95 19.64 21.82 29.49 32.7-2.17 1.09-4.33 2.21-6.46 3.38-1.98-2.14-3.88-4.35-5.73-6.6-3.32 1.69-6.68 3.28-9.88 5.19 0.72 2.66 1.39 5.33 1.98 8.02-2.16 1.09-4.31 2.19-6.46 3.3-2.75-14.43-5.34-28.89-8.23-43.29m6.12 6c2.03 7.1 3.64 14.31 5.93 21.33 2.54-1.37 5.11-2.68 7.71-3.93-5.02-5.43-8.9-11.75-13.64-17.4z"/>
  <path d="m280.39 55.55c8.11-1.45 17.64 5.81 16.33 14.5-0.74 6.04-4.27 11.23-7.46 16.24-3.31 5.01-7.81 10.34-14.22 10.85-7.62-0.13-15.85-6.84-14.42-15.05 0.87-5.99 4.34-11.12 7.54-16.1 2.98-4.48 6.76-9.09 12.23-10.44m1.04 6.96c-3.69 2.68-6.06 6.7-8.5 10.46-2.24 3.78-4.76 7.61-5.41 12.05-0.6 3.18 2.31 6.14 5.43 6.09 3.23-0.6 5.45-3.27 7.4-5.7 2.76-3.72 5.22-7.67 7.35-11.78 1.26-2.63 2.61-5.57 1.95-8.55-1.01-3.34-5.48-4.94-8.22-2.57z"/>
  <path d="m85.55 82.11c0.8-5.86 5.57-10.16 10.54-12.82 1.24 1.27 2.48 2.53 3.74 3.78-3.62 1.65-7.25 4.61-7.39 8.92 0.09 5.33 3.91 9.53 7.28 13.28 3.28 3.41 7.22 7.13 12.27 7.19 4.08 0.01 7.06-3.21 9.08-6.39 1.14 1.31 2.27 2.62 3.42 3.92-3.37 5.21-8.95 9.82-15.48 9.49-6.74-0.59-11.95-5.56-16.24-10.35-4.07-4.68-8.01-10.51-7.22-17.02z"/>
  <path d="m289.98 111.69c10.82-9.14 21.71-18.19 32.44-27.42 3.36 4.08 7.34 7.8 9.74 12.57 4.13 9.09-9.03 18.86-16.84 13.09-3.03 6.99-6.12 13.95-9.12 20.95-1.64-2.01-3.3-3.99-4.99-5.95 3.27-7.02 6.4-14.09 9.62-21.13-5.45 4.35-10.71 8.93-16.01 13.46-1.6-1.87-3.22-3.72-4.84-5.57m33.6-18.82c-3.59 3.16-7.29 6.18-10.93 9.28 1.83 1.46 3.72 3.77 6.36 3.18 2.9-0.82 5.3-3.03 6.83-5.58 1.49-2.55-0.91-4.92-2.26-6.88z"/>
  <path d="m193.31 91.36c25.96-1.71 52.37 6.41 72.94 22.32 20.32 15.5 34.89 38.36 40.17 63.37 5.25 24.36 1.94 50.53-9.58 72.66-12.81 25.16-35.85 44.82-62.66 53.64-26.63 8.9-56.72 6.93-81.89-5.54-23.25-11.27-42.19-31.11-52.34-54.87-11.73-27.05-11.72-58.91 0.03-85.95 9.96-23.26 28.33-42.76 50.94-54.12 13.14-6.68 27.66-10.66 42.39-11.51m-64.6 39.35c-14.95 15.47-24.6 35.98-27.09 57.34-2.45 21.53 2.68 43.43 12.61 62.53 8.8-21.99 25.5-41.21 47.11-51.33 29.41-13.53 66.38-10.62 92.42 9.01 14.49 10.77 25.44 25.83 32.49 42.36 8.51-15.43 13.46-32.93 13.54-50.59 0.3-19.24-5.82-38.33-16.47-54.28-5.19-7.65-10.92-15.1-18.19-20.89-17.95-14.8-40.7-24.34-64.14-24.52-26.94-0.35-53.23 11.63-72.28 30.37m17.06 90.04c-12 10.7-20.26 25.26-23.9 40.87 9.91 0.01 19.81-0.05 29.72 0.04 0.24-13.94 4.02-27.88 11.27-39.82 5.15-8.72 12.64-15.72 20.89-21.47-13.98 3.79-27.21 10.65-37.98 20.38m71.44-20.38c3.94 3.18 8.23 5.97 11.7 9.71 13.28 13.6 20.07 32.72 20.39 51.55 9.92-0.04 19.84 0.02 29.76-0.03-2.67-10.69-7.12-21.03-13.83-29.82-11.76-15.63-29.29-26.3-48.02-31.41m-56.48 61.56c11.6-0.02 23.2-0.13 34.8 0.06 0.1-20.53-0.05-41.05 0.07-61.57-20.99 13.02-33.57 37.11-34.87 61.51m44.51-61.48c0.1 20.49 0.03 40.98 0.04 61.48 11.57-0.07 23.15-0.02 34.72-0.03-1.16-24.38-13.85-48.43-34.76-61.45m-71.85 73.3c5.6 5.08 11.86 9.37 18.22 13.45 0.03-4.46-0.02-8.92 0.05-13.37-6.09-0.08-12.18 0.01-18.27-0.08m27.12 0.32c-0.06 5.73 0.04 11.46-0.07 17.19 6.49 3.13 13.47 5.15 20.53 6.54-0.22-7.89-0.08-15.78-0.09-23.67-6.79-0.01-13.58 0.08-20.37-0.06m29.6-0.27c0.08 8.44 0.01 16.87 0.04 25.31 6.77 0.61 13.58 0.49 20.35-0.02 0.04-8.43-0.01-16.87 0.03-25.3-6.81 0.01-13.62 0-20.42 0.01m28.69 0.31c-0.01 7.94 0 15.87-0.01 23.8 7-1.64 14.04-3.43 20.5-6.67-0.07-5.71-0.02-11.43-0.04-17.14-6.82 0.08-13.64 0.05-20.45 0.01m29.65 13.09c6.33-4.11 12.59-8.38 18.2-13.45-6.07 0.07-12.15 0.05-18.22 0.03 0.01 4.47-0.01 8.94 0.02 13.42z"/>
  <path d="m194.17 115.97c-1.57-4.66 4.49-9.43 8.66-6.89 2.74 1.38 4.33 4.89 3.08 7.8-0.86 1.71-2.53 2.78-3.91 4.01 0.07 2.18 0.12 4.37 0.18 6.55 6.38 0.77 12.85 3.23 17.05 8.3 3.95 4.51 5.5 10.51 5.99 16.36-1.93 0-3.85 0.01-5.77 0.01-0.41-5.04-1.91-10.27-5.79-13.75-2.98-3.02-7.08-4.4-11.07-5.53 0.11 6.43 0.41 12.85 0.66 19.28-2.05 0-4.11-0.01-6.16-0.01 0.22-6.38 0.51-12.77 0.76-19.15-9.53 1.3-16.19 10.06-17 19.31-1.93 0.01-3.85 0.02-5.76 0.03 0.6-6.23 2.57-12.59 7.14-17.06 4.21-4.42 9.99-6.94 15.86-8.25 0.08-2.05 0.15-4.11 0.21-6.16-1.63-1.36-3.58-2.67-4.13-4.85z"/>
  <path d="m50.89 124.07c1.5 0.68 3 1.36 4.51 2.03-1.62 3.78-3.22 7.57-4.96 11.29 4.12 1.77 8.2 3.64 12.4 5.23 1.38-3.4 2.83-6.77 4.28-10.14 1.53 0.69 3.06 1.38 4.59 2.08-1.49 3.28-2.94 6.59-4.49 9.85 4.35 2.17 8.83 4.07 13.37 5.82 1.52-3.81 3.16-7.57 4.82-11.33 1.52 0.67 3.05 1.34 4.57 2.01-2.77 5.95-5.2 12.06-7.86 18.06-12.99-5.69-26.09-11.15-39.09-16.84 2.79-5.94 5.23-12.04 7.86-18.06z"/>
  <path d="m312.33 141.54c13.04-5.49 26.24-10.63 39.26-16.2 0.95 2.16 1.89 4.33 2.82 6.51-8.2 8.13-16.82 15.86-24.82 24.17 5.7-2.63 10.95-6.17 16.72-8.65 4.06-1.71 8.19-3.27 12.19-5.11 1 2.25 1.98 4.52 2.96 6.79-13.12 5.36-26.23 10.75-39.36 16.07-0.88-2.07-1.77-4.14-2.66-6.2 8.61-8.16 17.09-16.45 25.78-24.51-9.76 5.15-19.71 9.9-30.03 13.83-0.94-2.24-1.9-4.47-2.86-6.7z"/>
  <path d="m170.6 156.42c19.66-0.28 39.32-0.06 58.98-0.11 0 2.04 0 4.07 0.02 6.11-19.63 0.04-39.25 0.03-58.88 0.01-0.04-2.01-0.07-4.01-0.12-6.01z"/>
  <path d="m174.9 166.47c2.12 0.02 4.24 0.03 6.37 0.04-0.06 7.38 0 14.76-0.04 22.15-2.03 0.62-4.07 1.24-6.1 1.86 0.2-8.02-0.34-16.03-0.23-24.05z"/>
  <path d="m219.23 166.52c2.15-0.01 4.3-0.02 6.45-0.02-0.19 8.03-0.25 16.06-0.33 24.09-2.04-0.67-4.07-1.34-6.11-2 0.09-7.36 0.11-14.72-0.01-22.07z"/>
  <path d="m189.76 166.61c2.15-0.03 4.29-0.05 6.43-0.07-0.02 6.89 0 13.77-0.01 20.66-2.14 0.22-4.28 0.43-6.41 0.65 0.01-7.08 0.02-14.16-0.01-21.24z"/>
  <path d="m204.24 166.6c2.15 0.01 4.3 0.05 6.45 0.11-0.11 7.08-0.05 14.16-0.04 21.24-2.12-0.26-4.24-0.51-6.35-0.77 0.04-6.86 0.13-13.72-0.06-20.58z"/>
  <path d="m35.18 169.49c14.09 1.53 28.18 3.12 42.27 4.63-0.24 2.44-0.5 4.87-0.77 7.31-6.96-0.78-13.92-1.52-20.88-2.33-0.42 3.67-0.84 7.35-1.25 11.02 6.99 0.74 13.98 1.45 20.95 2.35-0.28 2.38-0.55 4.77-0.8 7.16-14.1-1.4-28.16-3.13-42.26-4.55 0.25-2.45 0.51-4.91 0.79-7.36 5.51 0.61 11.01 1.3 16.53 1.82 0.37-3.68 0.79-7.34 1.08-11.02-5.47-0.51-10.94-1.12-16.4-1.75 0.24-2.43 0.49-4.85 0.74-7.28z"/>
  <path d="m325.07 181.19c14.01-1.88 28.06-3.53 42.07-5.42 0.34 2.43 0.67 4.87 1 7.31-14.06 1.76-28.12 3.57-42.18 5.36-0.31-2.42-0.6-4.83-0.89-7.25z"/>
  <path d="m327.42 200.91c13.56 5.74 27.21 11.27 40.78 16.98-0.24 1.88-0.46 3.76-0.68 5.64-14.53 2.39-29.11 4.52-43.65 6.89 0.32-2.48 0.64-4.96 0.96-7.43 2.8-0.33 5.6-0.67 8.4-1 0.47-3.65 0.9-7.3 1.29-10.96-2.67-0.99-5.33-1.98-7.99-3 0.29-2.38 0.59-4.75 0.89-7.12m10.28 20.53c7.25-1.23 14.63-0.96 21.91-1.85-6.88-2.51-13.93-4.52-20.83-6.97-0.33 2.94-0.69 5.88-1.08 8.82z"/>
  <path d="m33.25 218.63c1.63-0.33 3.26-0.66 4.89-0.98 0.48 2.76 0.99 5.53 1.52 8.29 12.26-2.41 24.6-4.39 36.87-6.72 0.47 2.39 0.94 4.79 1.4 7.18-12.31 2.3-24.65 4.45-36.98 6.64 0.43 2.82 0.96 5.62 1.53 8.42-1.62 0.36-3.25 0.71-4.87 1.07-1.49-7.96-2.78-15.95-4.36-23.9z"/>
  <path d="m67.32 256.52c4-1.61 8.82 2.18 8.15 6.45-0.42 4.35-6.19 7.09-9.65 4.17-4.01-2.53-2.97-9.23 1.5-10.62z"/>
  <path d="m330.25 257.23c4.37-1.7 9.41 3.32 7.64 7.71-1.28 3.82-6.55 5.61-9.63 2.78-3.79-2.73-2.51-9.29 1.99-10.49z"/>
  <path d="m82.47 291.44c4.66-3.98 10.17-7.9 16.57-7.86 6.5 0.27 11.64 5.47 14.2 11.11-1.31 1.12-2.61 2.25-3.9 3.39-1.7-3.73-4.78-7.63-9.3-7.47-5.25 0.31-9.43 3.95-13.16 7.29-3.43 3.22-7.13 7.13-7.18 12.14 0.17 3.91 3.15 6.85 6.19 8.93-1.31 1.06-2.62 2.14-3.91 3.22-5.18-3.25-9.46-8.86-9.26-15.21 0.48-6.44 5.12-11.49 9.75-15.54z"/>
  <path d="m293.15 288.95c1.63-1.87 3.24-3.76 4.83-5.66 9.45 8.21 19.06 16.24 28.62 24.33 2.66-3.11 5.29-6.26 7.95-9.37 1.25 1.05 2.5 2.11 3.76 3.16-4.22 5.02-8.51 9.97-12.68 15.03-10.81-9.19-21.59-18.4-32.48-27.49z"/>
  <path d="m268.6 309.07c5.37-3.82 10.71-7.69 16.05-11.56 0.93 1.36 1.87 2.72 2.8 4.09-3.4 2.35-6.75 4.78-10.09 7.2 2.72 3.52 5.27 7.16 7.87 10.77 3.02-2.11 6-4.28 8.93-6.52 0.99 1.33 1.98 2.68 2.98 4.02-3.06 2.15-6.09 4.32-9.07 6.57 2.91 3.8 5.67 7.71 8.45 11.6 3.4-2.36 6.68-4.87 10.07-7.23 0.96 1.32 1.91 2.64 2.87 3.97-5.33 3.81-10.69 7.57-15.9 11.55-8.45-11.39-16.61-23-24.96-34.46z"/>
  <path d="m122.24 301.87c2.09 1.3 4.18 2.61 6.26 3.94-3.03 4.61-5.92 9.31-8.89 13.95 3.11 1.98 6.22 3.95 9.34 5.91 2.94-4.7 5.89-9.39 8.84-14.07 2.06 1.34 4.13 2.65 6.21 3.95-7.57 12-15.12 24-22.69 35.99-2.07-1.37-4.14-2.73-6.21-4.08 3.89-5.8 7.4-11.84 11.32-17.62-3.14-1.99-6.27-3.97-9.38-5.99-3.71 5.95-7.48 11.86-11.19 17.82-2.09-1.3-4.18-2.61-6.25-3.92 7.55-11.95 15.07-23.93 22.64-35.88z"/>
  <path d="m249 318.98c2.32-0.84 4.64-1.67 6.96-2.51 4.84 13.23 9.36 26.59 14.39 39.75-2.13 0.93-4.29 1.77-6.47 2.56-7.74-8.73-15.21-17.72-23.16-26.26 4.91 9.68 8.87 19.78 12.38 30.04-2.31 0.85-4.62 1.68-6.93 2.49-4.83-13.29-9.55-26.63-14.36-39.93 2.24-0.8 4.48-1.58 6.72-2.35 7.73 8.63 15.13 17.57 23.15 25.93-2.98-6.48-6.64-12.66-8.96-19.43-1.19-3.45-2.43-6.88-3.72-10.29z"/>
  <path d="m164.9 323.04c1.86 0.54 3.71 1.08 5.57 1.63 0.09 14.66 0.09 29.33 0.42 43.99-2.4-0.63-4.8-1.26-7.19-1.92 0.02-2.83 0.07-5.66 0.14-8.49-3.53-1.02-7.07-2-10.63-2.85-1.34 2.49-2.71 4.97-4.09 7.44-2.32-0.64-4.64-1.28-6.95-1.92 7.62-12.6 15.08-25.3 22.73-37.88m-9.52 28.33c2.85 0.8 5.7 1.57 8.57 2.31 0.08-7.34 0.9-14.63 1.54-21.93-3.68 6.37-6.53 13.19-10.11 19.62z"/>
  <path d="m192.24 328.56c2.36-0.09 4.73-0.15 7.09-0.2 4.75 10.61 9.15 21.38 14.05 31.92-0.34-4.51-1.32-8.94-1.84-13.42-0.86-6.28-0.77-12.62-0.96-18.93 2.44-0.08 4.88-0.14 7.32-0.2 0.52 14.16 0.78 28.33 1.39 42.49-2.33 0.05-4.66 0.08-6.99 0.07-4.52-10.79-9.17-21.53-13.84-32.25 1.55 10.84 2.42 21.73 2.51 32.69-2.48 0.08-4.96 0.11-7.43 0.1-0.2-14.1-0.88-28.18-1.3-42.27z"/>
 </g>
</svg>
