<svg width="173.16" height="64.002" version="1.0" viewBox="0 0 162.34 60.002" xmlns="http://www.w3.org/2000/svg">
 <g transform="translate(-334.89 -511.67)">
  <g transform="matrix(4.0106 0 0 -4.0106 -384.34 1486.6)" clip-path="url(#id295)">
   <g transform="translate(196.42 228.51)">
    <path d="m 0,0 -0.768,2.049 c 0.717,0.228 1.397,0.611 1.987,1.155 0.63,0.579 1.085,1.278 1.368,2.029 L 4.601,4.378 C 4.2,3.351 3.567,2.395 2.7,1.595 1.897,0.854 0.973,0.325 0,0" fill="#c2d087"/>
   </g>
  </g>
  <g transform="matrix(4.0106 0 0 -4.0106 -384.34 1486.6)" clip-path="url(#id296)">
   <g transform="translate(198.63 238.22)">
    <path d="m0 0c-0.37 0.654-0.885 1.241-1.539 1.707-0.687 0.49-1.449 0.79-2.231 0.915-0.277 0.045-0.56 0.068-0.846 0.068-0.419 0-0.845-0.049-1.269-0.154-0.831-0.205-1.567-0.597-2.175-1.119l-1.355 1.719c0.848 0.708 1.863 1.241 3.007 1.522 0.599 0.148 1.2 0.219 1.79 0.219 0.418 0 0.83-0.036 1.235-0.104v2e-3c1.088-0.18 2.154-0.605 3.113-1.288 0.89-0.634 1.597-1.429 2.116-2.316l-1.846-1.171" fill="#e6eccb"/>
   </g>
   <g transform="translate(188.86 230.05)">
    <path d="m0 0 1.4 1.681c0.552-0.51 1.222-0.911 1.987-1.154 0.816-0.26 1.648-0.31 2.44-0.183l0.255-2.173c-1.092-0.161-2.236-0.084-3.359 0.273-1.041 0.332-1.958 0.872-2.723 1.556" fill="#8ba330"/>
   </g>
  </g>
  <g transform="matrix(4.0106 0 0 -4.0106 338.77 546.18)">
   <path d="m0 0v2.244h-0.966v0.301h2.318v-0.301h-0.966v-2.244z"/>
  </g>
  <g transform="matrix(4.0106 0 0 -4.0106 345.29 546.18)">
   <path d="m0 0v2.545h0.386v-1.045h1.525v1.045h0.387v-2.545h-0.387v1.2h-1.525v-1.2z"/>
  </g>
  <g transform="matrix(4.0106 0 0 -4.0106 356.24 546.18)">
   <path d="m0 0v2.545h2.117v-0.301h-1.731v-0.776h1.62v-0.301h-1.62v-0.867h1.801v-0.3z"/>
  </g>
  <g transform="matrix(4.0106 0 0 -4.0106 368.16 536)">
   <path d="m0 0h1.193l0.455-1.545 0.457 1.545h1.187v-2.54h-0.74v1.939l-0.573-1.939h-0.668l-0.571 1.939v-1.939h-0.74z"/>
  </g>
  <g transform="matrix(4.0106 0 0 -4.0106 385.9 541.11)">
   <path d="m0 0c0-0.257 0.055-0.441 0.164-0.553 0.11-0.112 0.259-0.169 0.448-0.169 0.193 0 0.343 0.055 0.449 0.165 0.107 0.11 0.16 0.307 0.16 0.592 0 0.239-0.056 0.414-0.167 0.525-0.11 0.11-0.261 0.165-0.451 0.165-0.181 0-0.327-0.056-0.438-0.168-0.11-0.112-0.165-0.298-0.165-0.557m-0.904 4e-3c0 0.415 0.133 0.739 0.399 0.97s0.636 0.347 1.11 0.347c0.487 0 0.862-0.113 1.125-0.341 0.263-0.227 0.395-0.546 0.395-0.955 0-0.297-0.057-0.541-0.172-0.731-0.116-0.191-0.282-0.339-0.499-0.445-0.217-0.105-0.488-0.158-0.813-0.158-0.329 0-0.602 0.045-0.818 0.137-0.216 0.091-0.392 0.236-0.526 0.434-0.134 0.197-0.201 0.445-0.201 0.742"/>
  </g>
  <g transform="matrix(4.0106 0 0 -4.0106 393.58 536)">
   <path d="m0 0h0.946l0.659-1.828 0.65 1.828h0.918l-1.087-2.54h-0.98z"/>
  </g>
  <path d="m406.7 536h3.6256v10.187h-3.6256z"/>
  <g transform="matrix(4.0106 0 0 -4.0106 411.98 536)">
   <path d="m0 0h2.421v-0.543h-1.517v-0.402h1.41v-0.518h-1.41v-0.502h1.562v-0.575h-2.466z"/>
  </g>
  <g transform="matrix(4.0106 0 0 -4.0106 433.09 542.6)">
   <path d="m0 0 0.386-0.085c-0.081-0.276-0.227-0.487-0.438-0.633-0.211-0.145-0.47-0.217-0.775-0.217-0.315 0-0.572 0.056-0.77 0.167-0.197 0.112-0.348 0.274-0.451 0.485-0.104 0.212-0.155 0.439-0.155 0.682 0 0.265 0.058 0.496 0.175 0.693 0.116 0.198 0.282 0.347 0.497 0.45 0.216 0.102 0.452 0.153 0.711 0.153 0.293 0 0.539-0.064 0.739-0.194s0.339-0.312 0.418-0.546l-0.382-0.079c-0.068 0.185-0.167 0.32-0.296 0.405-0.129 0.084-0.292 0.127-0.488 0.127-0.225 0-0.414-0.047-0.565-0.141s-0.257-0.22-0.318-0.378c-0.062-0.158-0.092-0.32-0.092-0.488 0-0.217 0.036-0.405 0.109-0.567 0.072-0.161 0.185-0.282 0.339-0.362 0.153-0.08 0.319-0.119 0.498-0.119 0.217 0 0.401 0.054 0.552 0.163 0.15 0.108 0.253 0.27 0.306 0.484"/>
  </g>
  <g transform="matrix(4.0106 0 0 -4.0106 435.71 546.18)">
   <path d="m0 0v2.545h0.387v-1.045h1.524v1.045h0.387v-2.545h-0.387v1.2h-1.524v-1.2z"/>
  </g>
  <g transform="matrix(4.0106 0 0 -4.0106 449.05 541.98)">
   <path d="m0 0h0.995l-0.305 0.704c-0.092 0.214-0.162 0.391-0.209 0.529-0.04-0.165-0.093-0.329-0.161-0.49zm-0.842-1.048 1.121 2.544h0.424l1.196-2.544h-0.442l-0.339 0.773h-1.233l-0.318-0.773z"/>
  </g>
  <g transform="matrix(4.0106 0 0 -4.0106 457.31 546.18)">
   <path d="m0 0v2.545h0.396l1.54-1.999v1.999h0.37v-2.545h-0.396l-1.54 1.998v-1.998z"/>
  </g>
  <g transform="matrix(4.0106 0 0 -4.0106 468.27 546.18)">
   <path d="m0 0v2.545h0.396l1.54-1.999v1.999h0.37v-2.545h-0.396l-1.54 1.998v-1.998z"/>
  </g>
  <g transform="matrix(4.0106 0 0 -4.0106 479.61 546.18)">
   <path d="m0 0v2.545h2.117v-0.301h-1.731v-0.776h1.62v-0.301h-1.62v-0.867h1.801v-0.3z"/>
  </g>
  <g transform="matrix(4.0106 0 0 -4.0106 489.9 546.18)">
   <path d="m0 0v2.545h0.386v-2.245h1.443v-0.3z"/>
  </g>
 </g>
</svg>
