<svg width="800" height="493.1" version="1.1" viewBox="0 0 800 493.1" xmlns="http://www.w3.org/2000/svg">
 <g transform="matrix(22.166 0 0 22.166 -.22226 -44.492)">
  <path d="m23.73 15.5h-0.33v-0.29c0-0.1 0-0.14-0.1-0.14v0.93c0 0.09 0 0.13 0.13 0.16v0.31h-0.7v-0.31c0.11 0 0.12-0.07 0.12-0.16v-0.92c-0.07 0-0.09 0-0.09 0.14v0.29h-0.33v-0.79h1.3z"/>
  <path d="m24.37 16.17v0.29h-0.56v-0.29c0.08 0 0.1-0.07 0.1-0.17v-0.86c0-0.08 0-0.12-0.1-0.14v-0.29h0.51v0.54a0.46 0.46 0 0 1 0.27-0.09c0.23 0 0.3 0.14 0.3 0.42v0.42c0 0.1 0 0.15 0.09 0.17v0.29h-0.48a3.48 3.48 0 0 1 0-0.5v-0.28c0-0.12 0-0.18-0.09-0.18h-0.07v0.5c-0.02 0.09-0.01 0.15 0.03 0.17z"/>
  <path d="m25.59 16.19c0.07 0 0.08-0.06 0.08-0.16h0.42v0.32a0.77 0.77 0 0 1-0.52 0.16c-0.35 0-0.47-0.13-0.47-0.47v-0.39c0-0.36 0.13-0.47 0.49-0.47s0.5 0.13 0.5 0.5v0.26h-0.58v0.06c0 0.14 0.02 0.19 0.08 0.19zm-0.08-0.54h0.16v-0.05c0-0.1 0-0.15-0.08-0.15s-0.08 0.05-0.08 0.15z"/>
  <path d="m5.05 18.34h-1.7v-0.34c0-0.33-0.15-0.49-0.41-0.49s-0.42 0.16-0.42 0.49v2.18c0 0.32 0.15 0.48 0.42 0.48s0.41-0.16 0.41-0.48v-0.62h1.7v1.65a3.9 3.9 0 0 1-2.2 0.52c-1.53 0-2.1-0.51-2.1-1.77v-1.77c0-1.23 0.57-1.77 2.05-1.77a4.28 4.28 0 0 1 2.25 0.58z"/>
  <path d="m7.77 16.42c1.6 0 2.2 0.47 2.2 1.77v1.73c0 1.31-0.6 1.77-2.2 1.77s-2.12-0.46-2.12-1.77v-1.73c0-1.3 0.51-1.77 2.12-1.77zm0.44 1.58c0-0.33-0.17-0.49-0.44-0.49s-0.43 0.16-0.43 0.49v2.18c0 0.32 0.16 0.48 0.43 0.48s0.44-0.15 0.44-0.48z"/>
  <path d="m13 17.45v-0.87h2.11v0.87c-0.27 0.08-0.3 0.22-0.3 0.45v1.74a2.75 2.75 0 0 1-0.21 1.36 2.36 2.36 0 0 1-2 0.74 2.09 2.09 0 0 1-1.71-0.61 1.53 1.53 0 0 1-0.27-1v-2.23c0-0.25 0-0.37-0.33-0.45v-0.87h2.25v0.87c-0.17 0.06-0.19 0.2-0.19 0.45v2.24c0 0.32 0.15 0.48 0.43 0.48s0.43-0.15 0.43-0.48v-2.24c-0.03-0.26-0.06-0.39-0.21-0.45z"/>
  <path d="m17.44 20.65v0.88h-2v-0.88c0.26-0.08 0.3-0.21 0.3-0.45v-2.3c0-0.24 0-0.37-0.3-0.45v-0.87h2l1.08 2.5v-1.18c0-0.25 0-0.38-0.33-0.45v-0.87h2v0.87c-0.27 0.08-0.29 0.22-0.29 0.45v3.63h-1.65l-1.1-2.36v1c0 0.29 0.02 0.42 0.29 0.48z"/>
  <path d="m25.46 18.82h-1.25v-0.82c0-0.28-0.06-0.38-0.35-0.4v2.6c0 0.24 0.05 0.37 0.39 0.45v0.88h-2.47v-0.88c0.34-0.08 0.38-0.21 0.38-0.45v-2.61c-0.29 0-0.35 0.12-0.35 0.4v0.83h-1.24v-2.24h4.89z"/>
  <path d="m28.22 20.65v0.88h-2.34v-0.88c0.26-0.08 0.29-0.21 0.29-0.45v-2.3c0-0.24 0-0.37-0.29-0.45v-0.87h2.56c1.36 0 2 0.3 2 1.33a1 1 0 0 1-0.85 1.09c0.65 0.16 0.71 0.42 0.73 1 0 0.35 0 0.53 0.29 0.62v0.88h-2a4.7 4.7 0 0 1-0.11-1.27c0-0.48-0.05-0.66-0.52-0.66h-0.1v0.6c0.04 0.28 0.06 0.41 0.34 0.48zm-0.12-2c0.4 0 0.53-0.12 0.53-0.52s-0.14-0.5-0.62-0.5h-0.09v1z"/>
  <path d="m34.21 20.65v0.88h-2.45v-0.88c0.3-0.08 0.34-0.21 0.34-0.45v-0.62l-1.1-1.9a0.53 0.53 0 0 0-0.31-0.23v-0.87h2.16v0.86h-0.08a1.07 1.07 0 0 0 0.1 0.5 3 3 0 0 0 0.23 0.33 3 3 0 0 0 0.23-0.34 1 1 0 0 0 0.12-0.49h-0.08v-0.85h1.93v0.87a0.45 0.45 0 0 0-0.31 0.22l-1.12 1.91v0.62c0 0.23 0.04 0.36 0.34 0.44z"/>
  <path d="m20.68 23.74v0.46h-0.78v-0.46c0.13 0 0.14-0.11 0.14-0.24v-1.21c0-0.13 0-0.2-0.14-0.24v-0.46h0.83l0.43 1.32v-0.62c0-0.14 0-0.2-0.1-0.24v-0.46h0.8v0.46c-0.14 0-0.15 0.11-0.15 0.24v1.91h-0.71l-0.41-1.2v0.54c0 0.1 0.01 0.17 0.09 0.2z"/>
  <path d="m22.75 23.8c0.09 0 0.12-0.08 0.12-0.23v-0.06h0.61v0.49a1.06 1.06 0 0 1-0.77 0.25c-0.52 0-0.7-0.19-0.7-0.7v-0.55c0-0.53 0.2-0.7 0.74-0.7s0.73 0.2 0.73 0.75v0.39h-0.85v0.18c0 0.1 0.02 0.18 0.12 0.18zm-0.12-0.8h0.24v-0.07c0-0.15 0-0.23-0.12-0.23s-0.12 0.08-0.12 0.23z"/>
  <path d="m24.33 24.24c-0.41 0-0.52-0.2-0.52-0.64v-0.88h-0.21v-0.44h0.21v-0.36l0.61-0.2v0.56h0.21v0.44h-0.21v0.66c0 0.28 0 0.39 0.27 0.39v0.43a3.25 3.25 0 0 1-0.36 0.04z"/>
  <path d="m24.9 22.91a0.2 0.2 0 0 0-0.17-0.19v-0.44h0.84v0.44a0.07 0.07 0 0 0-0.06 0.08 0.66 0.66 0 0 0 0 0.11l0.07 0.48 0.24-1.11h0.39l0.24 1.11 0.08-0.49v-0.07a0.12 0.12 0 0 0-0.05-0.11v-0.44h0.72v0.44a0.22 0.22 0 0 0-0.17 0.2l-0.3 1.28h-0.6l-0.13-0.87-0.17 0.87h-0.6z"/>
  <path d="m28.8 23.54c0 0.53-0.18 0.7-0.73 0.7s-0.73-0.17-0.73-0.7v-0.54c0-0.53 0.18-0.7 0.73-0.7s0.73 0.17 0.73 0.7zm-0.73-0.85c-0.1 0-0.12 0.08-0.12 0.23v0.65c0 0.15 0 0.23 0.12 0.23s0.12-0.08 0.12-0.23v-0.65c0-0.15-0.03-0.23-0.12-0.23z"/>
  <path d="m29.9 23.77v0.43h-0.9v-0.43c0.11 0 0.14-0.09 0.14-0.24v-0.61c0-0.11 0-0.17-0.14-0.2v-0.44h0.72v0.15a0.32 0.32 0 0 1 0.27-0.19h0.14v0.66h-0.13c-0.17 0-0.25 0.12-0.25 0.36v0.25c0 0.16 0.02 0.23 0.15 0.26z"/>
  <path d="m30.21 22v-0.43h0.79v1.43l0.13-0.19a0.32 0.32 0 0 0 0.07-0.23v-0.27h0.75v0.44c-0.11 0-0.15 0.05-0.18 0.1l-0.22 0.3 0.24 0.51c0 0.08 0.08 0.13 0.25 0.14v0.43h-0.65a1.64 1.64 0 0 1-0.14-0.3l-0.25-0.65v0.24c0 0.14 0 0.22 0.07 0.25v0.43h-0.83v-0.43c0.11 0 0.14-0.1 0.14-0.25v-1.29c-0.03-0.11-0.04-0.17-0.17-0.23z"/>
 </g>
 <g transform="matrix(22.166 0 0 22.166 -.22226 -44.492)" fill="#2e90ca">
  <path class="cls-1" d="m0.55 19.78a40.15 40.15 0 0 1 0.45-5.78 16.51 16.51 0 0 1 2.15-6.42c2.51-4.35 9.03-5.26 13.85-2.08 1.27 0.72 2.42 1.61 3.89 2.28a4.39 4.39 0 0 0 2.53 0.37 10.75 10.75 0 0 0 2.18-0.65 8.62 8.62 0 0 1 3.64-0.87 5.36 5.36 0 0 1 3.2 1.23c1.76 1.46 2.36 4 2.72 6.06a38.57 38.57 0 0 1 0.43 5.79 20.55 20.55 0 0 0 0.47-5.87c-0.19-2.12-0.62-4.91-2.69-6.88a6.16 6.16 0 0 0-4-1.7 10.38 10.38 0 0 0-4.3 0.81c-1.34 0.48-2.45 0.82-3.53 0.24s-2.38-1.46-3.71-2.22a12.78 12.78 0 0 0-8.83-1.95 9.88 9.88 0 0 0-7.18 4.74 16.58 16.58 0 0 0-1.8 7 25.22 25.22 0 0 0 0.53 5.9z"/>
  <path class="cls-1" d="m24.05 12h0.21a4.4 4.4 0 0 1 4.16 3.86 4.33 4.33 0 0 0 0.09-0.89 4.46 4.46 0 1 0-8.91 0 4.41 4.41 0 0 0 0.09 0.89 4.38 4.38 0 0 1 4.36-3.86z"/>
 </g>
</svg>
