<svg width="800" height="247.7" version="1.1" viewBox="0 0 800 247.7" xml:space="preserve" xmlns="http://www.w3.org/2000/svg">
<path d="m31.871 48.095v35.963h50.695v27.731h-50.695v44.196h52.621v27.731h-84.492v-163.35h84.492v27.731zm70.675 29.223h36.83l19.739 27.49 16.898-27.49h37.263l-37.696 48.529 44.822 57.82h-37.263l-27.297-37.022-24.457 37.022h-37.696l45.447-57.82zm157.81 9.7731c6.9327-8.2325 18.198-13.239 29.464-13.239 30.09 0 48.529 28.164 48.529 56.087 0 29.031-17.765 57.194-49.154 57.194-10.832 0-22.29-4.7662-28.356-13.432h-0.43329v73.948h-30.33v-170.33h30.33v9.7731zm47.229 43.329c0-14.299-9.5324-29.656-25.131-29.656-15.598 0-25.131 15.358-25.131 29.656s9.5324 29.897 25.131 29.897c15.598 0 25.131-15.598 25.131-29.897zm77.174 53.295h-30.33v-183.72h30.33zm184.68-95.324h0.43329c6.0661-9.2917 15.165-14.491 26.431-14.491 4.3329 0 8.6658 1.1073 12.565 2.5998l-3.707 28.164c-3.707-2.5998-8.04-3.8996-12.565-3.8996-21.039 0-23.205 18.632-23.205 35.097v47.855h-30.33v-106.4h30.33v11.073zm74.959 46.988c0 13.432 5.1995 28.597 20.991 28.597 9.9657 0 16.272-6.0661 20.365-14.491l27.923 4.5736c-7.366 21.231-25.997 33.123-48.288 33.123-32.93 0-53.054-23.398-53.054-55.654s17.091-57.628 51.562-57.628c34.904 0 50.454 25.757 50.454 57.82v3.6589zm41.403-18.824c-1.4924-10.832-8.4251-21.424-20.124-21.424-12.132 0-18.824 10.399-20.365 21.424zm74.767-28.164h0.43329c6.0661-9.2917 15.165-14.491 26.431-14.491 4.3329 0 8.6658 1.1073 12.565 2.5998l-3.6589 28.164c-3.6589-2.5998-7.9918-3.8996-12.565-3.8996-20.991 0-23.157 18.632-23.157 35.097v47.855h-30.33v-106.4h30.33v11.073zm-298.59-22.05c-34.808 0-63.068 28.212-63.068 63.068s28.212 63.068 63.068 63.068c34.808 0 63.068-28.212 63.068-63.068s-28.26-63.068-63.068-63.068zm9.2917 104.13-9.3398 16.224-9.3398-16.224c-15.791-3.5626-28.212-15.984-31.775-31.775l-16.224-9.3398 16.224-9.3398c3.5626-15.791 15.984-28.212 31.775-31.775l9.3398-16.224 9.3398 16.224c15.791 3.5626 28.212 15.984 31.775 31.775l16.224 9.3398-16.224 9.3398c-3.5626 15.791-15.984 28.212-31.775 31.775zm-31.871-63.598 15.55 10.832-0.72215 3.9959-3.9959 0.72215zm10.832 29.512-10.832 15.55 15.55-10.832-0.72215-3.9959zm19.45 0.72216-0.72215 3.9959 15.55 10.832-10.832-15.55zm0-15.406 3.9959 0.72215 10.832-15.55-15.55 10.832z" fill="#444447" stroke-width=".48143"/><path d="m504.11 129.41-36.3 5.8254-5.8254 36.3-5.8254-36.3-36.348-5.8254 36.3-5.8254 5.8254-36.3 5.8254 36.3zm-167.88 82.181c-2.7442-1.685-5.9698-2.4553-9.1473-2.4553-10.688 0-19.306 8.377-19.306 19.113 0 10.495 8.5695 18.728 18.92 18.728 3.1775 0 6.7401-0.91473 9.5324-2.5516v-5.3439c-2.696 2.4072-6.1142 3.7552-9.6768 3.7552-8.0881 0-14.25-6.7882-14.25-14.732 0-8.04 6.2105-14.828 14.347-14.828 3.4182 0 6.9808 1.2517 9.5806 3.5626zm45.929 12.951v-14.636h-4.5255v36.3h4.5255v-17.428h17.284v17.428h4.5255v-36.3h-4.5255v14.636zm87.573 12.565 4.1403 9.0991h4.8625l-17.332-37.841-17.332 37.841h4.8625l4.1403-9.0991zm-1.8776-4.1403h-12.902l6.4512-14.684zm50.936 13.239h4.5255v-27.057l27.249 28.549v-37.793h-4.5255v26.816l-27.249-28.549zm75.441 0h4.5255v-27.057l27.249 28.549v-37.793h-4.5255v26.816l-27.249-28.549zm75.633 0h19.498v-4.1403h-14.973v-13.721h14.539v-4.1403h-14.539v-10.158h14.973v-4.1403h-19.498zm66.149-36.3h-4.5255v36.3h15.55v-4.1403h-11.025z" fill="#00a0af" stroke-width=".48143"/>
</svg>
