<svg width="529.27" height="233.57" enable-background="new 0 0 529.271 233.565" version="1.1" viewBox="0 0 529.27 233.57" xml:space="preserve" xmlns="http://www.w3.org/2000/svg"><path d="m65.243 75.911v49.438c0 3.647-0.203 6.889 2.633 9.117 2.432 2.026 5.269 3.444 8.511 3.444h12.359v30.799l-28.367 3.241c-12.562 1.216-22.084-1.013-31.607-9.726-11.144-10.132-11.144-22.085-11.144-37.282v-49.031h-17.628v-30.596h18.37v-31.982h46.467v32.186h25.125v30.393h-24.719z"/><path d="m223.09 168.64h-48.478v-69.405c0-10.566 0.828-24.447-12.432-24.239-9.322 0.206-13.88 8.908-13.88 17.402v76.241h-47.65v-168.64h48.065v58.424c8.908-13.053 22.789-17.817 37.291-17.817 37.291-0.208 37.083 32.319 37.083 52v76.035z"/><path d="m352.68 171.75c-32.732-0.828-52.208-8.701-62.98-30.869l-3.521-7.458 38.326-5.801 2.901 4.973c4.143 7.457 11.602 8.286 20.096 8.701 9.115 0.621 22.789-1.037 22.168-7.252-0.622-7.044-10.566-6.837-18.024-8.08l-24.654-4.557c-20.303-3.73-36.463-19.683-35.635-39.571 1.037-25.275 26.934-39.363 50.966-41.642 29.625-2.693 53.037 8.08 66.296 33.562l-37.913 6.422-3.107-4.143c-4.559-6.009-12.638-6.838-18.231-6.63-4.558 0.206-15.123 0.206-15.745 6.836-0.414 3.729 5.387 6.216 9.944 6.837l28.798 3.937c21.131 2.9 39.361 14.709 40.812 36.67 2.484 31.491-30.456 48.686-60.497 48.065z"/><g fill="#f9a628"><path d="m468.8 120.14h-12.823l-8.6 46.617h-17.727l8.977-46.617h-12.823l3.018-14.182h42.694z"/><path d="m498.34 166.75h-18.934l-7.693-60.799h19.386l3.923 38.998 18.707-38.998h15.539z"/></g><path d="m34.553 232.99-10.097-17.883-0.034 17.883h-6.052v-27.674h7.921l8.941 15.401v-15.401h6.222v27.674z"/><path d="m98.677 211.98v3.671h9.995v6.222h-10.029v4.42h12.375v6.697h-20.772v-27.674h20.806v6.664z"/><path d="m173.1 211.98-0.034 21.01h-8.057v-21.01h-5.711v-6.664h19.514v6.664z"/><path d="m256.2 232.99h-7.105l-3.91-15.026-3.706 15.026h-7.31l-7.513-27.674h8.227l3.74 15.741 4.012-15.741h6.561l3.944 15.877 3.978-15.877h6.357z"/><path d="m323.29 233.56c-8.737 0.102-13.089-6.392-13.36-13.837-0.272-7.717 5.133-15.095 13.156-14.925 8.023 0.136 12.885 6.323 13.225 13.701 0.374 7.684-4.216 14.959-13.021 15.061zm0-22.234c-3.468-0.102-4.216 4.454-4.216 7.922-0.034 3.399 0.544 7.683 3.943 7.818 3.502 0.171 4.318-4.453 4.318-7.955 1e-3 -3.399-0.645-7.682-4.045-7.785z"/><path d="m399.79 232.99-3.876-10.505-2.754 0.034v10.471h-8.431v-27.674h13.769c6.119 0 10.709 2.856 10.811 8.092 0.103 4.896-3.025 6.731-4.93 7.581l4.93 12.001zm-2.312-21.826h-4.453v5.304h4.59c1.495 0 2.924-1.054 2.753-2.754-0.171-1.768-1.394-2.55-2.89-2.55z"/><path d="m474.04 232.99-4.556-10.369-2.651 3.739v6.63h-8.228v-27.674h8.228v11.083l7.343-11.083h7.718l-6.97 10.335 8.499 17.339z"/><path d="m281.97 35.201c0 1.798-1.334 3.255-2.982 3.255h-43.868c-1.647 0-2.982-1.457-2.982-3.255v-29.445c0-1.798 1.335-3.256 2.982-3.256h43.868c1.648 0 2.982 1.458 2.982 3.256z" fill="#f9a628"/><path d="m281.97 78.201c0 1.798-1.334 3.255-2.982 3.255h-43.869c-1.647 0-2.982-1.457-2.982-3.255v-29.445c0-1.798 1.335-3.256 2.982-3.256h43.868c1.648 0 2.982 1.458 2.982 3.256v29.445z"/><path d="m281.97 121.2c0 1.798-1.334 3.255-2.982 3.255h-43.869c-1.647 0-2.982-1.457-2.982-3.255v-29.445c0-1.798 1.335-3.256 2.982-3.256h43.868c1.648 0 2.982 1.458 2.982 3.256v29.445z"/><path d="m281.97 164.2c0 1.798-1.334 3.255-2.982 3.255h-43.869c-1.647 0-2.982-1.457-2.982-3.255v-29.445c0-1.798 1.335-3.256 2.982-3.256h43.868c1.648 0 2.982 1.458 2.982 3.256v29.445z"/><polygon points="488.82 190.37 18.37 190.37 18.37 181.35 493.74 181.35" fill="#f9a628"/></svg>
