<svg width="1e3" height="487.57" version="1.1" xmlns="http://www.w3.org/2000/svg">
 <link href="" rel="stylesheet" type="text/css"/>
 <style type="text/css"/>
 <g transform="translate(199 -450.78)">
  <path d="m633.13 809.04v-346.18c0-7.1256 4.0895-12.081 11.314-12.081 4.2202 0 6.8888 2.3801 9.5695 5.6558l143.78 171.89s3.2128 3.2622 3.2128 7.2289c0 3.8761-3.2128 7.2289-3.2128 7.2289l-144.58 173.49c-1.8195 2.145-3.8802 4.2946-8.4703 4.2946-5.7608 0-11.61-4.6802-11.61-11.523z" fill="#852980"/>
  <g fill="#e6be29">
   <path d="m-89.763 820.29v-301.2h-109.24v-68.273h298.8v68.273h-109.24v301.2z" fill-rule="evenodd"/>
   <path d="m114.25 820.29h-72.289v-135.74c0-74.858 61.842-132.53 131.73-132.53v73.092c-31.085 0-59.438 26.341-59.438 59.438z"/>
   <path d="m194.57 552.82h75.775l65.59 197.59s1.4306 4.0428 5.6428 4.0428c4.1401 0 5.6021-4.0428 5.6021-4.0428l65.06-197.59h76.305l-73.896 223.29c-7.6511 21.252-30.532 50.837-73.169 50.837-34.476 0-62.314-22.099-73.016-50.837z"/>
   <path d="m508.63 820.29h73.092v-369.48h-73.092z"/>
   <path d="m67.208 938.35c-16.478 0-26.047-8.6692-26.047-21.677v-23.293c0-10.669 9.3569-21.687 26.506-21.687 11.145 0 19.139 5.897 24.424 14.312l-9.8998 5.2612c-2.536-3.7358-6.2493-9.131-15.327-9.131-9.221 0-14.458 4.0822-14.458 11.245v22.49c0 6.4082 5.0554 11.245 15.261 11.245 7.8687 0 12.259-5.3877 14.493-9.2314l10.032 5.42c-4.2752 6.9134-11.685 15.047-24.983 15.047z"/>
   <path d="m124.69 937.56v-64.257h11.245v27.309h29.719v-27.309h11.245v64.257h-11.245v-27.309h-29.719v27.309z"/>
   <path d="m228.13 872.51-23.921 64.257h12.048l5.6225-16.867h24.096l6.4257 16.867h11.245l-23.946-64.257zm5.8165 10.442 8.6355 26.506h-17.062z"/>
   <path d="m290.96 936.75v-64.257l11.531 9e-5 29.51 49.866s-0.87952-11.682-0.87952-13.721v-36.144h11.245v64.257h-12.305l-29.06-49.391s1.2048 11.988 1.2048 14.853v34.538z"/>
   <path d="m501.4 937.56h-44.177v-64.257h44.177v9.6386h-32.932v16.867h30.522v10.442h-30.522v16.867h32.932z"/>
   <path d="m552 926.31h30.522v10.442h-41.767v-64.257h11.245z"/>
   <path d="m373.68 936.75v-64.257l11.531 9e-5 29.51 49.866s-0.87952-11.682-0.87952-13.721v-36.144h11.245v64.257h-12.305l-29.06-49.391s1.2048 11.988 1.2048 14.853v34.538z"/>
  </g>
 </g>
</svg>
