<svg width="1000.1" height="574.66" enable-background="new -100.029 -47.956 1000.051 574.661" space="preserve" version="1.1" viewBox="-100.03 -47.956 1000.1 574.66" xmlns="http://www.w3.org/2000/svg">
 <link href="" rel="stylesheet" type="text/css"/>
 <style type="text/css"/>
 <g transform="translate(.00039171 -.00067256)">
  <path d="m587.24-37.813c2.921-2.986 4.574-6.933 7.401-9.973 1.985-0.586 4.079 0.36 3.96 2.667 1.306 16.493 1.933 33.119 0.346 49.613-1.306 14.479-5.094 29.719-15.799 40.239-14.32 14.413-35.493 18.679-55.093 19.292-29.76 2.267-61.026 4.761-87.411 20.053-2.801-17.773-1.601-36.533 4.586-53.519 6.36-17.359 20.466-31.212 37.359-38.453 25.932-11.986 55.306-9.906 82.398-17.56 8.228-2.306 16.282-6.119 22.253-12.359z" fill="#7e4096"/>
  <path d="m491.88 80.931c26.946-5 55.492-4.52 81.358 5.227 21.253 8.053 40.506 21.827 54.293 39.959 18.013 23.959 26.013 55.159 21.906 84.852-2.921 22.48-11.8 44.613-27.333 61.359 15.76 13.666 28.72 30.64 36.933 49.853 9.613 22.398 13.413 47.186 11.626 71.452-2.293 29.266-13.905 57.799-33.279 79.918-31.439 36.294-80.545 54.6-128 53.065-40.346 1-80.692-14.039-110.77-40.919-18.573-15.612-32.04-36.492-41.386-58.705-7.52-18.266-12.626-37.68-13.919-57.414 0.026-3.158 3.466-3.944 5.959-4.239 28.506-4.532 56.986-9.278 85.492-13.825 3.133-1.027 5.613 1.894 5.613 4.839 2.8 20.64 9.88 41.986 25.946 56.133 12.894 12.106 31.119 16.547 48.399 16.493 17.079-0.294 35.039-6.346 45.985-20.067 8.773-10.411 10.84-24.919 8.813-38.052-1.652-10.56-7.959-19.933-16.198-26.559-13.12-10.787-30.094-15.227-46.627-17.374-14.199-1.506-28.506-0.72-42.732-1.16-2.773-0.08-4.026-3.025-3.706-5.439 0.014-27.613-0.067-55.239 0.039-82.852-0.252-2.374 1.201-4.907 3.787-4.974 21.332-0.586 42.973-0.12 63.932-4.826 11.4-2.44 22.227-10.546 25.36-22.12 2.199-7.373-0.521-15.492-5.88-20.813-8.813-8.866-22.094-11.227-34.119-10.613-13.641 0.507-26.707 5.187-38.64 11.56-15.733 8.12-30.32 18.267-44.706 28.533-2.12 1.894-5.507 1.534-7-0.933-16.719-20.693-33.239-41.559-49.946-62.266-1.453-1.706-2.919-3.959-1.866-6.266 2.08-2.773 4.906-4.854 7.466-7.16 32.254-27.801 71.133-48.747 113.2-56.667z" fill="#7e4096"/>
  <path d="m-45.671 86.904c-0.227-2.307 1.88-4.56 4.213-4.36 29.413-0.16 58.826 0.053 88.252-0.107 1.4 1.654 3 3.4 2.68 5.773 0.08 21.653 0 43.32 0.027 64.986 28.852 0.026 57.705-0.12 86.558 0.066 3.48 0.027 4.373 4.12 4.16 6.906-0.067 27.587 0.027 55.186-0.053 82.772 0.399 3.106-2.227 5.853-5.374 5.468-28.426 0.066-56.866 0.013-85.292 0.013 0.053 27.039-0.094 54.08 0.066 81.118 0.146 11.786 1.094 25 9.919 33.854 10.253 10.879 26.24 12.706 40.4 11.813 9.28-0.253 18.013-3.547 26.813-6.106 2.854-1.094 5.52 1.466 5.467 4.294 3.387 26.731 6.8 53.466 10.12 80.198 0.747 2.533-0.84 5.16-3.414 5.692-34.119 9.813-71.225 13.121-105.54 2.36-24.693-7.16-45.826-24.252-59.719-45.679-13.773-20.707-18.374-45.999-19.293-70.452-0.093-32.373 0.014-64.746-0.053-97.118-16.319 0.053-32.64 0.065-48.959 0.014-2.467 0.227-5.493-1.188-5.2-4.068-0.146-28.532 0-57.051-0.08-85.584-0.347-2.44 1.04-5.52 3.854-5.454 16.787-0.28 33.6-0.066 50.386-0.093 0.079-22.093-0.054-44.213 0.066-66.306z" fill="#3a3838"/>
  <path d="m755.33 145.22c28.399-3.653 57.373 0.121 84.666 8.387 20.653 6.44 40.813 15.439 58.012 28.746 2.387 1.467 1.44 4.653-0.16 6.333-16.906 21.813-33.72 43.707-50.598 65.545-1.295 2.267-4.28 2.373-6.241 0.948-11.453-6.948-24.106-11.682-36.972-15.214-9.987-2.6-20.28-4.84-30.653-4.053-4.094 0.252-8.707 1.746-10.587 5.72-1.613 3.56 0.521 7.492 3.2 9.893 5.12 4.733 11.692 7.466 18.133 9.933 24.693 8.494 51.146 13.333 73.372 27.747 17.641 10.76 31.747 27.64 37.853 47.505 4.521 14 5.307 28.921 4.254 43.506-1.627 22.081-12.133 43.053-27.733 58.6-22.973 22.906-56.012 33.239-87.958 33.106-36.772 0.84-73.572-6.48-107.65-20.16-3.626-0.827-2.827-4.919-2.414-7.641 4.547-26.146 9.067-52.29 13.574-78.438 0.372-1.985 0.72-4.026 1.639-5.839 3.201-1.602 6.293 0.866 9.241 1.945 27.425 11.786 57.238 17.667 87.037 18.534 6.628-0.347 13.801-0.641 19.427-4.613 2.761-1.894 3.68-5.934 1.867-8.786-2.533-4.254-7.121-6.667-11.6-8.361-11.267-4.133-23.254-5.731-34.72-9.213-22.613-6.625-44.866-16.306-62.652-32.092-18.239-15.64-30.72-38.267-32.293-62.426-1.547-23.733 3.08-48.719 16.919-68.453 16.612-23.852 44.692-37.586 73.038-41.159z" fill="#3a3838"/>
  <path d="m248.34 163.65c20.839-12.973 46.533-15.907 70.518-12.907 24.053 3.467 46.439 15.32 63.787 32.187 11.693 11.292 21.545 24.52 29.079 38.919 1.854 2.387 0.28 5.333-2.053 6.627-22.974 15.732-46.012 31.386-68.958 47.159-1.494 0.906-2.974 2.039-4.773 2.199-2.534-0.412-3.667-2.84-4.934-4.746-6.626-11.279-18.346-19.4-31.226-21.733-11.32-2.319-23.427 1.161-32.386 8.319-8.187 6.601-13.64 16.241-15.919 26.44-2.667 11.6-3.267 23.587-3.133 35.452 0.013 45.8 0 91.586 0 137.38 0.346 2.6-1.227 6.053-4.294 5.747-28.906 0.066-57.812 0.079-86.705 0-3.24 0.374-4.48-3.16-4.16-5.773 0.053-99.133 0.041-198.25-0.266-297.38-0.134-3.173-0.014-8.374 4.373-8.28 28.88-0.133 57.786-0.133 86.666-0.013 5.344 0.2 4.371 6.72 4.384 10.4z" fill="#3a3838"/>
 </g>
</svg>
