<svg width="2318.6pt" height="577.77pt" version="1.1" viewBox="0 0 2318.6 577.77" xmlns="http://www.w3.org/2000/svg">
 <g transform="translate(-44.159 -934.46)">
  <path d="m1595 1066.2h40.245v199.74h260.24v-199.74h40.255v439.8h-40.255v-199.8h-260.24v199.8h-40.245z"/>
  <path d="m2141 1066.2c122.95 0 221.79 74.219 221.79 220.05 0 135.26-95.323 219.75-221.79 219.75h-149.72v-439.8zm-109.46 40.3v359.5h90.47c107.81 3.572 199.27-72.167 199.27-179.75 1.5541-113.31-79.679-179.75-199.27-179.75z"/>
  <g stroke-width="1.5011">
   <path d="m122.25 1506.4v-324.01h-78.093v-115.46h78.093v-122.62h150.82v122.62h78.093v115.46h-78.093v324.01z"/>
   <path d="m373.09 1506.4v-439.47h139.63v73.395c22.562-39.35 56.496-73.395 129.55-73.395h19.03v152.61h-28.147c-35.953 0-68.53 6.6333-88.115 25.802-16.434 16.889-21.128 37.28-21.128 64.597v196.47z"/>
   <path d="m683.01 1066.9h149.7v230.03c0 46.542 24.472 74.743 65.511 74.743 44.277 0 65.616-34.194 65.616-73.772v-231h150.59v439.47h-139.4v-65.338c-25.143 51.21-71.289 71.164-129.01 71.164-98.795 0-163-62.95-163-160.82v-284.48z"/>
  </g>
 </g>
 <path d="m1499.6 204.26c0 112.81-91.452 204.26-204.26 204.26-112.81 0-204.26-91.452-204.26-204.26s91.45-204.26 204.26-204.26 204.26 91.452 204.26 204.26z" fill="#b7d433" stroke-width="1.5011"/>
 <g transform="translate(-44.159 -934.46)" stroke-width="1.5011">
  <path d="m1269.9 1219.5h-40.278l20.588-117.7h-43.685l6.0915-34.908h125.16l-6.1185 34.908h-41.321z"/>
  <path d="m1407.3 1219.5 82.344-152.61h-42.514l-53.083 103.12-7.9859-103.12h-39.054l15.541 152.61z"/>
 </g>
</svg>
