<svg width="800" height="188.84" space="preserve" version="1.1" viewBox="0 0 800 188.84" xmlns="http://www.w3.org/2000/svg">
 <link href="" rel="stylesheet" type="text/css"/>
 <style type="text/css"/>
 <style type="text/css">.st0{fill:#FFFFFF;}
	.st1{fill:#007350;}</style>
 <g transform="matrix(4.4643 0 0 4.4643 -1417.4 -2808.5)" fill="#007350">
  <path class="st0" d="m432.6 629.1h-21.6v4.7h21.4c8.7 0.1 15.7 7.2 15.7 15.9s-7 15.8-15.7 15.9h-16.5v-20.3l-4.9-4.9v30.1h21.5c10.7 0 20.2-7.5 20.2-20.5 0.1-13.9-9.3-20.9-20.1-20.9z"/>
  <path class="st0" d="m433 640.5c5.8 0 9.3 4.4 9.3 9.3 0 5.2-4.1 9.4-9.3 9.4h-10.6v-7.3l-4.7-4.7v16.8h14.7c7.7-0.1 14-6.4 14-14.2s-6.2-14.1-14-14.2h-21.4v4.9z"/>
  <rect class="st0" x="317.5" y="629.1" width="42.4" height="4.8"/>
  <polygon class="st0" points="333 640.5 344.3 640.5 359.8 640.5 359.8 635.7 317.5 635.7 317.5 640.5"/>
  <polygon class="st0" points="339.5 670.6 339.5 670.7 344.3 670.7 344.3 651.9 339.5 647.1 339.5 647.6"/>
  <polygon class="st0" points="337.8 645.3 333 640.5 333 670.7 337.8 670.7 337.8 670.6 337.8 647.6"/>
  <path class="st0" d="m401.4 629.1v22.1c-0.1 8.7-7.2 15.7-15.9 15.7s-15.8-7-15.9-15.7v-22.1h-4.8v22.1c0 10.7 7.5 20.2 20.5 20.2 14 0 21-9.4 21-20.2v-22.1z"/>
  <path class="st0" d="m371.3 629.1v22.1c0.1 7.7 6.4 14 14.2 14s14.1-6.2 14.2-14v-22.1h-4.8v22.5c0 5.8-4.4 9.3-9.3 9.3-5.2 0-9.4-4.1-9.4-9.3v-22.5z"/>
  <polygon class="st0" points="465.1 635.6 464.1 635.6 464.1 670.7 468.9 670.7 468.9 647.9 486.6 670.7 496.7 670.7 496.7 629.2 491.9 629.2 491.9 665.7 488.5 665.7"/>
  <polygon class="st0" points="485.3 651.1 468.3 629.2 457.5 629.2 457.5 670.7 462.4 670.7 462.4 633.8 465.9 633.8 489.4 663.9 490.1 663.9 490.1 629.2 485.3 629.2"/>
 </g>
</svg>
