<svg width="800" height="229.26" version="1.1" viewBox="0 0 800 229.26" xmlns="http://www.w3.org/2000/svg">
 <g transform="matrix(20.099 0 0 20.099 -20.098 -204.97)" fill="none" fill-rule="evenodd">
  <g transform="translate(1,10)" fill="#009ee0">
   <polygon points="-5.9406e-5 0.27733 -5.9406e-5 1.8811 1.1683 1.8811 1.1683 5.3268 3.0692 5.3268 3.0692 1.8613 4.099 1.8613 5.5049 5.3268 7.1881 5.3268 9.3069 0.27733 7.1881 0.27733 6.3566 3.1286 5.5049 0.27733"/>
   <path d="m11.881 2.0396c0.61386 0 1.7228 0.53465 1.6436 1.5446-0.09901 1.5644-1.8218 1.7624-2.6931 1.7822s-2.0594-0.39604-2.0594-0.39604l0.21782-1.3267s0.53465 0.25743 1.1287 0.37624c0.61386 0.13861 1.4059-0.059406 1.4257-0.41584 0.019801-0.41584-0.63366-0.57426-1.2871-0.53465-0.61386 0.039604-1.2079 0.19802-1.2079 0.19802l0.49505-2.9901h3.6634v1.4257h-2.3168l-0.09901 0.53465s0.31683-0.19802 1.0891-0.19802z"/>
   <polygon points="14.396 0.27725 13.584 5.307 15.347 5.307 15.604 2.5545 16.475 5.307 17.525 5.307 18.396 2.5545 18.634 5.307 20.396 5.307 19.584 0.27725 17.723 0.27725 16.99 2.9307 16.277 0.27725"/>
   <path d="m23.05 3.802c-0.55465 0-0.93069-0.39604-0.93069-0.9703 0-0.53465 0.35644-0.9901 0.93069-0.9901 0.57406 0 0.9505 0.45545 0.9505 0.9901-0.02 0.57426-0.41604 0.9703-0.9505 0.9703m0-3.604c-1.5248 0-2.7723 1.0297-2.7723 2.6139 0 1.6238 1.2475 2.5743 2.7723 2.5743 1.5446 0 2.7921-0.9703 2.7921-2.5743-0.019802-1.5842-1.2675-2.6139-2.7921-2.6139"/>
   <polygon points="26.02 5.3069 27.782 5.3069 27.782 2.6732 29.327 5.3069 31.069 5.3069 31.069 0.27717 29.327 0.27717 29.327 3.0692 27.782 0.27717 26.02 0.27717"/>
   <path d="m33.287 3.802h-0.11881v-1.9406h0.11881c0.67327 0 1.0693 0.29703 1.0693 1.0099 0 0.65347-0.45525 0.93069-1.0693 0.93069m-0.07901-3.5248h-1.8616v5.0297h2.3168c1.4655 0 2.5347-0.9505 2.5347-2.4356-0.0196-1.8614-1.3067-2.5941-2.9899-2.5941"/>
   <polygon points="39.624 2.1386 38.198 2.1386 38.198 1.6436 39.743 1.6436 39.743 0.27725 36.356 0.27725 36.356 5.307 39.802 5.307 39.802 3.9406 38.198 3.9406 38.198 3.4456 39.624 3.4456"/>
   <path d="m1.2079 7.0891v4.3366h0.53465v-4.3366z" style=""/>
   <path d="m6.5743 7.089v4.515l-3.2475-3.4059v3.2275h-0.53465v-4.5347l3.2475 3.4059v-3.2079z" style=""/>
   <path d="m9.6831 9.2872h-1.505v2.1188h-0.53465v-4.3368h2.099v0.49505h-1.5644v1.2279h1.505z" style=""/>
   <path d="m14.337 9.2672c0-0.9505-0.71287-1.7426-1.7228-1.7426s-1.7228 0.79208-1.7228 1.7426c0 0.9901 0.79208 1.7428 1.7228 1.7428s1.7228-0.75267 1.7228-1.7428m0.53465 0c0 1.2871-1.0099 2.2574-2.2772 2.2574-1.2475 0-2.2772-0.9703-2.2772-2.2574 0-1.2475 1.0297-2.2572 2.2772-2.2572s2.2772 1.0097 2.2772 2.2572"/>
  </g>
 </g>
</svg>
