<svg width="800.4" height="293.23" version="1.1" xmlns="http://www.w3.org/2000/svg">
 <defs>
  <linearGradient id="linearGradient3174" x1="-199.86" x2="120" y1="422.76" y2="422.76" gradientUnits="userSpaceOnUse">
   <stop stop-color="#1b96d1" offset="0"/>
   <stop stop-color="#2183c4" offset=".2"/>
   <stop stop-color="#216aaf" offset=".40131"/>
   <stop stop-color="#2253a0" offset=".6046"/>
   <stop stop-color="#254195" offset=".80208"/>
   <stop stop-color="#204299" offset="1"/>
  </linearGradient>
  <linearGradient id="linearGradient3176" x1="209.75" x2="322.04" y1="377.57" y2="656.88" gradientUnits="userSpaceOnUse">
   <stop stop-color="#139adc" offset="0"/>
   <stop stop-color="#1c8ac9" offset=".2"/>
   <stop stop-color="#2178bb" offset=".40131"/>
   <stop stop-color="#2267ad" offset=".6046"/>
   <stop stop-color="#245aa4" offset=".80208"/>
   <stop stop-color="#23459c" offset="1"/>
  </linearGradient>
  <linearGradient id="linearGradient3178" x1="326.89" x2="478.87" y1="756.45" y2="377.39" gradientUnits="userSpaceOnUse">
   <stop stop-color="#169cdb" offset="0"/>
   <stop stop-color="#199bd7" offset=".2"/>
   <stop stop-color="#1b82c4" offset=".40131"/>
   <stop stop-color="#226db1" offset=".6046"/>
   <stop stop-color="#2257a3" offset=".80208"/>
   <stop stop-color="#254395" offset="1"/>
  </linearGradient>
  <linearGradient id="linearGradient3180" x1="196.61" x2="303.09" y1="435.08" y2="709.24" gradientUnits="userSpaceOnUse">
   <stop stop-color="#1a90d1" offset="0"/>
   <stop stop-color="#217fbf" offset=".2"/>
   <stop stop-color="#1f70b2" offset=".40131"/>
   <stop stop-color="#235ea7" offset=".6046"/>
   <stop stop-color="#254e9e" offset=".80208"/>
   <stop stop-color="#23479b" offset="1"/>
  </linearGradient>
  <linearGradient id="linearGradient3182" x1="329.54" x2="478.16" y1="757.34" y2="378.09" gradientUnits="userSpaceOnUse">
   <stop stop-color="#1a9bd2" offset="0"/>
   <stop stop-color="#1a9ad7" offset=".2"/>
   <stop stop-color="#1c84c5" offset=".40131"/>
   <stop stop-color="#206db1" offset=".6046"/>
   <stop stop-color="#2058a3" offset=".80208"/>
   <stop stop-color="#224798" offset="1"/>
  </linearGradient>
  <linearGradient id="linearGradient3184" x1="-36.724" x2="-36.724" y1="464.43" y2="759.13" gradientUnits="userSpaceOnUse">
   <stop stop-color="#1d83c3" offset="0"/>
   <stop stop-color="#1f70b2" offset=".2"/>
   <stop stop-color="#2161a8" offset=".40131"/>
   <stop stop-color="#284d9e" offset=".6046"/>
   <stop stop-color="#254195" offset=".80208"/>
   <stop stop-color="#1f4590" offset="1"/>
  </linearGradient>
 </defs>
 <g transform="translate(158.25 -1266.3)">
  <g transform="matrix(.75778 0 0 .75778 -6.4957 983.17)">
   <path d="m-158 464.36c-22.881 0-42-18.605-42-42 0-19.032 14.772-42 42-42h236c21.587 0 42 17.185 42 42 0 24.022-19.604 42-42 42h-76l-40 40-44-40z" fill="url(#linearGradient3174)"/>
   <path d="m375 672.36-34.165 47.55-35.759 14.089-118.46-302.9c-5.825-15.173-2.5722-33.593 10.651-45.861 18.963-17.593 45.257-12.972 59.355 2.2239 5.9578 6.4216 8.389 13.361 8.389 13.361l82.977 212.39z" fill="url(#linearGradient3176)"/>
   <path d="m344 760.36c-24.551 0-42-20.206-42-42 0-7.4625 2.1433-13.402 2.1433-13.402l119.86-304.22c6.0496-15.085 20.962-26.376 39-26.376 25.867 0 42 21.272 42 42 0 8.7596-2.9376 15.501-2.9376 15.501l-119.71 303.68c-6.0579 13.584-20.205 24.823-38.353 24.823z" fill="url(#linearGradient3178)"/>
   <g transform="rotate(180 519.81 567.23)">
    <path d="m375 672.36-34.165 47.55-35.759 14.089-118.46-302.9 78.396-30.276 82.977 212.39z" fill="url(#linearGradient3180)"/>
    <path d="m344 760.36c-24.551 0-42-20.206-42-42 0-7.4625 2.1433-13.402 2.1433-13.402l119.86-304.22c6.0496-15.085 20.962-26.376 39-26.376 25.867 0 42 21.272 42 42 0 8.7596-2.9376 15.501-2.9376 15.501l-119.71 303.68c-6.0579 13.584-20.205 24.823-38.353 24.823z" fill="url(#linearGradient3182)"/>
   </g>
   <circle transform="matrix(1.3226 0 0 1.3226 -141.31 -221.7)" cx="722.1" cy="710.79" r="31.71" fill="#254195" fill-rule="evenodd"/>
   <path d="m-40 759.36c-25.386 0-42-20.982-42-42v-253h84v253c0 23.025-18.415 42-42 42z" fill="url(#linearGradient3184)"/>
  </g>
 </g>
</svg>
