<svg width="800" height="766.02" version="1.1" viewBox="0 0 800 766.02" xmlns="http://www.w3.org/2000/svg">
 <defs>
  <linearGradient id="linearGradient893" x1="10.438" x2="31.738" y1="11.531" y2="11.531" gradientTransform="matrix(30.862 0 0 30.862 -246.89 -92.585)" gradientUnits="userSpaceOnUse">
   <stop stop-color="#adbcba" offset="0"/>
   <stop stop-color="#fff" offset="1"/>
  </linearGradient>
 </defs>
 <g transform="matrix(.97945 0 0 .97945 .00050945 -.00016615)" fill-rule="evenodd">
  <path d="m522.39 526.58h-236.97c-115.61 0-210.19-94.587-210.19-210.2v-120.44c0-108.21 87.725-195.94 195.94-195.94h260.6c110.45 0 200.82 90.369 200.82 200.82v115.56c0 115.61-94.589 210.2-210.2 210.2z" fill="url(#linearGradient893)"/>
  <path d="m422.24 367.2c-106.49 0-230.77 10.204-230.98 10.221 41.997 73.663 121.25 123.33 212.12 123.33 91.026 0 170.4-49.85 212.34-123.73-4.1568-1.8813-31.3-9.8225-193.48-9.8225z" fill="#f00"/>
  <path d="m423.7 343.11c192.08 0 202.61 10.812 202.44 13.342 13.646-30.44 21.244-64.184 21.244-99.705 0-20.843-2.6192-41.073-7.536-60.385-0.28393-0.60458-17.387-35.028-242.65-35.028-200.02 0-229.93 34.601-230.3 35.032-4.9167 19.31-7.536 39.54-7.536 60.38 0 35.435 7.5623 69.101 21.147 99.486 9.4786-2.8843 56.283-13.123 243.18-13.123z" fill="#32ff06"/>
  <path d="m397.2 133.59c194.41 0 232.36 32.363 232.91 32.84-35.9-90.051-123.88-153.69-226.74-153.69-102.67 0-190.52 63.42-226.55 153.22 5.3941-4.0604 49.125-32.363 220.37-32.363z" fill="#00d0ff"/>
 </g>
 <g fill-rule="evenodd">
  <path d="m512.98 649.01c0.5124 0.15609 0.6733 0.24614 0.83329 0.24614 8.2297 0.0139 16.47 0.29418 24.686-0.042 10.787-0.44036 18.547-6.7881 21.775-16.315 2.3621-6.9704 1.9758-14.006 0.18911-21.016-2.287-8.9781-7.9238-14.778-16.802-17.424-5.6524-1.6849-11.436-2.0727-17.278-1.5813-2.0346 0.1711-4.0927 0.46977-6.0536 1.0188-3.7898 1.062-6.153 3.6127-6.8782 7.5246-0.26416 1.4231-0.44876 2.8844-0.45237 4.3286-0.033 13.548-0.0201 27.096-0.0201 40.643zm0 25.512v2.6821c5.1e-4 13.72 5.1e-4 27.441 5.1e-4 41.162 0 0.42865-0.033 0.86121 0.0103 1.2857 0.58564 5.6858 2.3729 9.6988 9.5648 10.897 7.6838 1.28 15.398 0.88132 22.947-1.0635 7.9671-2.0526 13.155-7.0827 15.127-15.173 0.48479-1.9893 0.81828-4.032 1.0167-6.0696 0.5022-5.1399 0.5031-10.282-0.83089-15.317-2.2678-8.5588-7.2712-14.696-16.028-17.107-2.77-0.76275-5.7296-1.0518-8.6155-1.1398-6.3394-0.19212-12.687-0.12007-19.032-0.15309-1.2712-7e-3 -2.5422-1e-3 -4.1597-1e-3zm-79.214 87.669v-29.001c1.7614-0.15609 3.4396-0.3434 5.1228-0.44036 2.7637-0.15909 5.4391-0.72613 8.0108-1.7194 4.2215-1.6312 7.3114-4.5316 8.8272-8.7958 0.93896-2.6428 1.5837-5.4288 2.0073-8.204 0.39923-2.6124 0.45326-5.2964 0.45626-7.949 0.0294-29.011 0.039-58.021-7e-3 -87.032-6e-3 -4.0217-0.32299-8.0361-1.2718-11.986-1.8476-7.691-6.8267-11.837-14.487-12.936-2.7865-0.39923-5.6091-0.54092-8.4203-0.80057-0.42505-1.8299-0.54392-24.36-0.12007-27.79 0.71592-0.042 1.4634-0.12007 2.2108-0.12007 41.542-6e-3 83.083-0.06 124.63 0.042 8.5671 0.0211 17.128 0.65769 25.467 2.9556 6.3338 1.7455 12.305 4.2518 17.578 8.2431 7.4139 5.6116 11.937 13.103 14.239 22.022 1.1845 4.5892 1.6678 9.2563 1.7341 13.996 0.081 5.6688-0.22214 11.275-1.539 16.815-2.9958 12.606-10.612 21.253-22.393 26.392-4.0974 1.7872-8.3503 3.0894-12.679 4.171-0.54332 0.13508-1.0605 0.38122-2.0583 0.74744 2.472 0.58774 4.4646 0.96567 6.4002 1.5366 13.292 3.9222 22.418 12.528 27.857 25.128 2.8118 6.514 4.0629 13.378 4.4203 20.479 0.68801 13.65-4.7736 24.664-14.244 33.953-9.1744 8.9987-20.36 14.389-32.703 17.534-7.4288 1.8929-14.993 2.7592-22.656 2.7592-37.937 5.4e-4 -75.874 5.4e-4 -113.81 5.4e-4z"/>
  <path d="m0.24649 565.53h202.22c0.46857 1.829 0.61506 83.502 0.16209 87.146-1.9698 0.39503-26.409 0.54482-31.071 0.16509-0.0211-0.88221-0.06-1.7972-0.063-2.7118-0.0263-9.0987 0.078-18.2-0.11407-27.295-0.12607-6.0407-1.2481-11.955-4.1221-17.364-3.9866-7.5014-10.225-11.671-18.788-11.907-6.2617-0.1741-12.532-0.051-18.798-0.048-0.40434 0-0.80928 0.10206-1.4475 0.19212v2.622c5.1e-4 38.63 2e-3 77.259-3e-3 115.89-5.1e-4 3.3773 0.41785 6.6887 1.7548 9.8053 3.0028 6.9982 8.5408 10.642 15.958 11.144 5.1234 0.3467 10.292 0.0278 15.44 8e-3 1.0188-4e-3 2.0382-5.1e-4 3.0162-5.1e-4 0.49079 1.9677 0.63248 25.357 0.21613 29.092-1.9052 0.41965-121.39 0.60096-126.07 0.19212-0.45894-1.7822-0.59798-25.201-0.15039-29.131 0.70202-0.048 1.4427-0.14709 2.1839-0.14409 5.3201 9e-3 10.642 0.14709 15.959 0.036 8.7314-0.18311 15.953-6.3559 17.554-14.931 0.35901-1.9262 0.54752-3.914 0.54902-5.8738 0.03002-38.802 0.02317-77.603 0.01906-116.4-5.41e-4 -0.75134-0.06604-1.5024-0.10206-2.2627-0.37912-0.0991-0.61506-0.21613-0.851-0.21613-6.6088 8e-3 -13.224-0.14108-19.825 0.0901-7.6977 0.27016-13.51 3.9902-17.488 10.555-2.7201 4.4878-4.0778 9.4463-4.5063 14.616-0.35385 4.2658-0.42235 8.5604-0.47284 12.844-0.07414 6.2658-0.01906 12.533-0.01906 18.799v2.2036c-2.2483 0.43376-28.41 0.5064-31.015 0.13508-0.39455-1.8491-0.54647-82.959-0.13388-87.241"/>
  <path d="m422.41 593.45c-1.7152 0.26416-3.4813 0.5166-5.2413 0.80567-6.1391 1.0074-10.651 4.4492-14.133 9.4448-3.504 5.025-6.2493 10.472-8.391 16.17-11.456 30.471-22.797 60.986-34.179 91.485-6.0799 16.293-12.161 32.587-18.246 48.878-0.20712 0.55592-0.47068 1.0914-0.6865 1.5873-1.9043 0.43946-50.73 0.55623-53.968 0.12608-1.2178-3.3741-2.4837-6.8199-3.708-10.282-14.481-40.945-28.95-81.895-43.439-122.84-2.3432-6.6212-4.7247-13.229-7.1687-19.814-1.1668-3.1429-2.7118-6.1102-4.7927-8.7716-3.2604-4.17-7.5725-6.307-12.814-6.6686-0.58204-0.039-1.1605-0.13208-1.8533-0.21613v-27.582c0.0811-0.066 0.14409-0.12308 0.21313-0.17411 0.069-0.048 0.14108-0.13208 0.21012-0.13208 33.649-0.0227 67.298-0.039 100.95-0.051 0.24014-5.1e-4 0.48298 0.0961 0.8546 0.17711v27.897c-0.96327 0-1.8017-5e-3 -2.6404 1e-3 -3.3474 0.0268-6.7-0.063-10.04 0.11107-5.7935 0.30228-9.161 3.7729-9.3938 9.5128-0.14408 3.5359 0.27616 6.9539 1.434 10.367 8.7216 25.712 17.335 51.46 25.989 77.195 1.3109 3.8986 2.6548 7.7863 3.9912 11.676 0.19211 0.55743 0.43015 1.0986 0.81168 2.064 1.2181-3.2624 2.3153-6.1478 3.3732-9.0472 9.7523-26.719 19.499-53.44 29.244-80.162 1.388-3.8074 2.3615-7.6863 2.2636-11.794-0.14409-6.0598-3.6982-9.7224-9.8023-9.9052-2.4873-0.0751-4.9786-0.017-7.468-0.0191-0.8447-1e-3 -1.6888-5.4e-4 -2.4882-5.4e-4 -0.49439-2.0274-0.59945-24.931-0.15009-27.95h81.199c0.44546 2.0901 0.5052 25.144 0.069 27.905"/>
  <path d="m692.34 667.82c0.40854 0 0.74324 0.051 1.0575-8e-3 5.0096-0.94556 9.7338-2.5893 13.94-5.571 4.5079-3.196 7.5972-7.3423 8.8447-12.784 0.77206-3.3675 0.99419-6.784 0.68651-10.207-0.23114-2.5701-0.8417-5.0827-2.5506-7.1466-1.7353-2.0946-4.6907-3.4438-7.6982-1.1146-0.94316 0.73033-1.862 1.5189-2.6659 2.396-2.4558 2.6779-4.1988 5.8136-5.6683 9.1152-2.7655 6.2143-4.4888 12.733-5.5035 19.432-0.28517 1.8917-0.94736 3.8105-0.44186 5.8877m-2.7145 27.85c0.20712 5.5256 0.3389 10.842 2.1571 15.911 1.8989 5.2944 5.6936 8.3786 11.276 9.3408 5.1841 0.89422 10.268 0.21612 15.303-0.88012 11.054-2.4059 20.986-7.3845 30.241-13.741 14.527-9.9769 26.62-22.38 36.395-37.043 0.28517-0.42655 0.59765-0.83449 0.86901-1.2124 7.1708-0.94196 14.025 4.9374 14.133 11.982 0.054 3.5905-0.83689 6.9483-2.1304 10.245-2.9468 7.5097-7.3578 14.142-12.409 20.347-15.436 18.964-34.068 34.002-55.922 44.983-8.4518 4.2467-17.292 7.4819-26.636 9.1919-5.8368 1.0683-11.696 1.488-17.647 1.0389-5.4185-0.40944-10.73-1.2244-15.857-3.0173-12.009-4.2004-20.407-12.325-25.558-23.866-2.7793-6.2272-4.3044-12.805-5.2336-19.545-0.94046-6.821-1.1974-13.673-0.91825-20.534 0.46048-11.292 2.7382-22.263 6.3492-32.955 5.2331-15.496 12.858-29.709 23.034-42.529 6.9761-8.7886 14.84-16.653 24.248-22.857 5.2454-3.4582 10.795-6.2879 16.879-8.0304 5.6225-1.6104 11.337-1.7894 17.087-1.246 4.1839 0.39563 8.3075 1.1722 12.279 2.6548 10.476 3.9119 17.136 11.323 19.407 22.201 2.8052 13.43 1.6729 26.633-4.0294 39.233-3.8316 8.4656-9.8532 15.213-17.217 20.795-9.2676 7.0271-19.694 11.754-30.711 15.242-4.323 1.3685-8.7366 2.4518-13.11 3.6642-0.65678 0.18311-1.3151 0.36052-2.2792 0.62467"/>
 </g>
</svg>
