<svg width="211.67mm" height="98.55mm" version="1.1" viewBox="0 0 749.97 349.19" xmlns="http://www.w3.org/2000/svg">
 <defs>
  <linearGradient id="a" x1="-144.4" x2="185.8" y1="437.16" y2="627.8" gradientTransform="translate(179.96,-410.02)" gradientUnits="userSpaceOnUse">
   <stop stop-color="#ED1944" offset="0"/>
   <stop stop-color="#ED1944" offset=".5"/>
   <stop stop-color="#C12448" offset=".7913"/>
   <stop stop-color="#A62B4B" offset="1"/>
  </linearGradient>
 </defs>
 <g transform="matrix(1.9172 0 0 1.9172 -22.926 -36.11)">
  <path d="m11.955 71.525c0-5.307 4.928-10.804 11.372-10.804h9.098c2.274 0 2.654-0.189 2.843-0.568 0.379-0.379 0.568-2.272 0.568-5.876v-20.848c0-3.603 0.19-7.202 1.896-10.045 1.516-2.844 4.738-4.549 9.477-4.549h0.189c4.549 0 7.771 1.895 9.477 4.736 1.517 2.845 1.896 6.255 1.896 9.666v24.829c0 1.896 0.189 2.274 0.189 2.274s0.758 0.188 2.464 0.188h25.208c5.497 0 9.098 0.761 11.562 2.846 2.464 2.084 3.222 5.115 3.222 8.339 0 2.651-0.758 5.687-3.222 7.771s-6.444 3.224-12.32 3.224h-22.555c-2.843 0-4.359 0.379-4.549 0.566 0 0.19-0.379 0.759-0.379 3.033v61.788c0.379 23.124 4.549 28.62 17.058 28.81 14.025 0 16.3-11.372 16.49-23.689v-8.15c0-5.876 0.758-10.234 2.653-13.268 1.896-3.032 5.307-4.359 9.287-4.359 8.529 0 11.183 7.393 11.183 13.836 0 14.784-1.137 28.812-7.202 39.424-1.896 3.412-4.359 6.635-7.582 9.1-6.254 5.115-15.163 8.148-27.483 8.148h-0.189c-8.908 0-18.195-2.464-25.019-8.148-2.653-2.274-4.928-4.93-6.634-8.149-3.98-7.771-5.307-14.405-5.307-35.254v-56.487c-0.568-7.581 0.569-6.441-7.202-7.2-5.307 0-9.098-0.381-12.13-2.086s-4.359-4.929-4.359-9.098zm158.45 8.529c1.706 0 3.412 0.379 5.497 0.947 1.706 0.759 3.98 1.325 5.686 1.325 4.359 0 10.424-4.17 10.614-11.183 0-5.876-4.739-10.045-12.889-10.045-8.34 0-17.058 2.843-25.587 2.843-8.908 0-15.163-2.843-23.502-2.843-3.98 0-7.013 0.947-9.098 2.843s-2.843 4.549-2.843 7.202c0 6.444 3.791 10.993 8.529 11.183 2.274 0 4.17-0.566 5.875-1.517 1.327-0.379 2.654-0.758 4.17-0.758 1.896-0.189 4.359 1.896 8.15 11.751l35.633 91.733c3.033 7.771 7.582 15.924 18.195 15.924h0.19c10.803 0 15.542-7.582 18.764-15.924l34.496-88.892c2.464-6.063 3.791-9.854 4.928-12.131 1.137-2.464 1.516-2.274 1.706-2.274 0.758 0 2.654 0.379 4.359 0.948 1.706 0.758 3.979 1.326 5.875 1.326 4.739 0 10.425-4.17 10.614-11.183 0-5.878-4.738-10.047-11.941-10.047-7.392 0-16.11 2.845-24.64 2.653-8.908 0-17.627-2.843-24.261-2.843-5.875 0-10.424 4.357-10.424 10.045 0 6.634 4.738 10.993 10.045 11.183 3.033 0 5.118-0.566 6.823-1.517 1.517-0.568 2.274-0.947 3.033-0.758 0.948 0 2.085 0.566 2.085 3.791 0 2.464-1.706 6.442-3.791 11.938l-26.535 74.867-30.326-81.312c-0.758-2.274-1.895-5.496-1.895-6.823 0.191-1.883 0.57-2.263 2.465-2.452zm168.12 120.92c-41.698-0.188-62.168-33.737-62.168-71.455 0.189-38.097 20.28-71.834 62.168-72.021 18.764 0 36.012 5.115 48.142 20.091 11.562 14.215 16.489 33.548 16.489 51.175 0 39.421-22.175 72.21-64.631 72.21zm0.379-20.66c30.136 0 39.803-25.588 39.992-52.502 0-11.562-2.464-25.587-8.908-35.44-6.634-10.046-17.627-14.026-29.568-14.026-13.836 0-23.692 4.549-30.894 16.49-5.686 9.666-8.529 22.934-8.529 33.927-1e-3 25.016 9.476 51.363 37.907 51.551z" fill="url(#a)"/>
 </g>
</svg>
