<svg width="800" height="695.17" version="1.1" viewBox="0 0 800 695.17" xml:space="preserve" xmlns="http://www.w3.org/2000/svg"><g transform="matrix(1.3333 0 0 -1.3333 -1169.9 1237.1)"><g fill="#4bafff"><g transform="matrix(4.6163 0 0 -4.682 57.218 1077.5)"><g transform="translate(258.07 105.33)" fill="#4bafff"><path d="m0 0-18.143 4.166-5.554-1.667-7.036 2.777-2.962-2.406-3.702-4.999-4.351-1.759-4.351 1.111-0.648-2.314 1.111-2.407-3.055-4.721 1.019-2.407-6.388-14.903 2.592-1.574 5.277 3.518 11.848 1.851 0.463 1.759-1.203 2.777 2.036 4.443 0.926-0.37v-6.11l1.666-2.684-3.055-4.351-0.925-4.998-1.759-1.759 0.37-1.679h49.191c-7.43-13.507-21.796-22.661-38.3-22.661-24.125 0-43.683 19.558-43.683 43.683 0 24.126 19.558 43.681 43.683 43.681 17.888 0 33.266-10.74 40.021-26.135z" fill="#4bafff"/></g></g><g transform="matrix(4.6163 0 0 -4.682 57.218 1077.5)"><g transform="translate(248.27 77.54)" fill="#4bafff"><path d="m0 0h-13.845v5.335h4.881v14.185h5.627v-14.185h4.883v-5.335z" fill="#4bafff"/></g></g><g transform="matrix(4.6163 0 0 -4.682 57.218 1077.5)"><g transform="translate(273.96 77.54)" fill="#4bafff"><path d="m0 0h-3.522s-2.91 7.039-3.597 8.698c-0.972-2.32-3.647-8.698-3.647-8.698h-6.109l8.54 19.69h2.351l8.312-19.69z" fill="#4bafff"/></g></g><g transform="matrix(4.6163 0 0 -4.682 57.218 1077.5)"><g transform="translate(294.97 77.394)" fill="#4bafff"><path d="m0 0h-1.21s-2.774 6.561-3.607 8.532c-0.834-2.519-2.77-8.358-2.77-8.358h-5.588l6.758 19.588h2.166s3.262-7.637 4.075-9.538c1.111 2.661 3.979 9.538 3.979 9.538h2.179l6.7-19.588h-5.386s-2.097 6.326-2.773 8.366c-1.077-2.53-3.635-8.54-3.635-8.54z" fill="#4bafff"/></g></g><g transform="matrix(4.6163 0 0 -4.682 57.218 1077.5)"><g transform="translate(280.9 105.2)" fill="#4bafff"><path d="m0 0c-7.153 19.325-25.768 33.136-47.548 33.136-27.946 0-50.681-22.735-50.681-50.681 0-27.945 22.735-50.68 50.681-50.68 20.439 0 38.09 12.163 46.097 29.631h5.446c-8.319-20.296-28.287-34.63-51.543-34.63-30.702 0-55.68 24.978-55.68 55.679 0 30.702 24.978 55.68 55.68 55.68 24.574 0 45.478-16.004 52.844-38.135z" fill="#4bafff"/></g></g></g></g></svg>
