<svg width="800" height="166.96" version="1.1" xmlns="http://www.w3.org/2000/svg">
 <g transform="matrix(2.2771 0 0 2.2771 -150.29 -53.824)" fill="#003984">
  <polygon points="79.838 79.822 91.812 79.822 91.812 36.546 105.65 36.546 105.65 24.638 66 24.638 66 36.546 79.838 36.546"/>
  <path d="m167.92 68.814c-9.102-9e-3 -16.501-7.394-16.492-16.447 0.012-9.064 7.417-16.429 16.52-16.42 4.414 7e-3 8.562 1.722 11.677 4.82l8.708-8.638c-5.438-5.42-12.674-8.407-20.374-8.415-15.881-0.02-28.812 12.828-28.832 28.638-0.01 15.808 12.897 28.688 28.78 28.705m1e-3 -1e-3c7.695 8e-3 14.93-2.968 20.378-8.377l-8.69-8.669c-3.124 3.101-7.267 4.808-11.676 4.804"/>
  <path d="m397.77 62.713c-4.093-1.527-11.827-4.063-11.827-13.119 0-7.69 8.19-13.118 16.376-13.118 6.819 0 10.909 2.267 14.73 5.883l-6.545 8.13c-1.821-2.074-5.008-3.147-7.272-3.147-3.102 0-5.462 0.721-5.462 2.972 0 1.638 2.275 2.271 4.093 2.902l3.635 1.357c5.278 1.986 11.827 4.076 11.827 13.117 0 8.154-8.098 14.032-16.372 14.032-6.82 0-12.275-1.811-16.371-6.332l-1.279-1.451 7.399-7.812c0.059 0.074 0.334 0.354 0.4 0.433 1.892 2.179 5.776 4.313 8.943 4.313 3.18 0 5.451-0.906 5.451-3.46 0-1.991-2.271-2.624-4.09-3.345z"/>
  <path d="m326.15 43.521c-4.183-4.166-9.737-6.456-15.655-6.456-12.206 0-22.144 9.876-22.146 22.021 0 12.163 9.929 22.05 22.136 22.05s22.142-9.878 22.145-22.033c-2e-3 -5.887-2.303-11.422-6.48-15.582zm-15.667 25.694c-5.605 0-10.162-4.55-10.162-10.131 2e-3 -5.571 4.565-10.11 10.173-10.11 2.715 0 5.268 1.052 7.184 2.966 1.923 1.909 2.98 4.452 2.98 7.161-3e-3 5.571-4.567 10.114-10.175 10.114z"/>
  <path d="m227.12 48.329-4.96-2.692c-3.428-1.789-6.76-3.494-6.76-6.544 0-3.062 3.06-3.958 6.31-3.958 0.101 0 0.185 8e-3 0.287 8e-3v2e-3c2.178 0.064 4.31 0.765 7.124 2.65l8.45-8.344c-4.044-4.02-9.861-5.814-15.577-5.814v0.037c-0.393-8e-3 -0.776-0.029-1.188-0.029-8.112 0-18.035 6.474-18.035 15.447 0 7.89 5.143 12.296 10.371 15.056l4.962 2.7c4.06 2.241 7.213 4.032 7.213 7.166 0 3.5-3.244 5.399-6.308 5.399-3.611 0-7.214-2.248-9.473-5.399l-7.664 9.438c4.505 5.838 11.09 7.628 17.135 7.628 9.736 0 18.933-7.354 18.933-17.065 1e-3 -7.076-4.412-12.278-10.82-15.686z"/>
  <path d="m278.67 43.521c-4.181-4.166-9.745-6.456-15.658-6.456-4.951 0-9.512 1.645-13.204 4.391-0.947-1.608-2.09-3.124-3.444-4.479l-8.472 8.424c1.917 1.911 2.975 4.451 2.975 7.157v44.399h11.978v-18.305c3.047 1.578 6.495 2.482 10.156 2.482 12.207 0 22.146-9.878 22.149-22.033-1e-3 -5.885-2.305-11.42-6.48-15.58zm-15.67 25.694c-5.6 0-10.15-4.543-10.156-10.12v-0.025c6e-3 -5.564 4.567-10.096 10.168-10.096 2.715 0 5.266 1.052 7.186 2.966 1.922 1.909 2.979 4.452 2.979 7.161-6e-3 5.571-4.57 10.114-10.177 10.114z"/>
  <path d="m345.8 42.734c-1.056-2.104-2.436-4.051-4.148-5.757l-8.472 8.424c1.918 1.911 2.979 4.451 2.979 7.157v27.264h11.975v-18.905c0-2.705 1.054-5.249 2.979-7.16 1.915-1.911 4.468-2.966 7.181-2.966v-11.908c-4.532 0-8.846 1.352-12.494 3.851z"/>
  <path d="m382.66 50.791v-11.908h-8.715v-12.746h-11.974v39.39c0 5.902 2.299 11.436 6.478 15.599l8.473-8.417c-1.921-1.917-2.979-4.472-2.979-7.182l2e-3 -14.735h8.715z"/>
  <path d="m135.29 46.966h-11.782v14.784c0 4.215-2.606 6.938-6.644 6.938-4.035 0-6.645-2.724-6.645-6.938v-14.784h-11.779v14.784c0 5.259 1.825 9.78 5.283 13.056 3.313 3.14 7.983 4.871 13.142 4.871 2.33 0 4.559-0.365 6.644-1.062v0.47c-6e-3 4.204-2.612 7.329-6.644 7.329h-4.902l-10.388 10.543h14.749c1.574-0.01 2.091-0.033 2.091-0.033 4.539-0.312 8.611-1.989 11.592-4.812 3.147-2.979 4.987-6.99 5.284-11.652v-16.931z"/>
 </g>
</svg>
