<svg width="800" height="175.15" version="1.1" viewBox="0 0 800 175.15" xml:space="preserve" xmlns="http://www.w3.org/2000/svg">
<path d="m800 3.0005-49.508 169.71h-39.381l-49.695-169.71h48.57l17.065 77.262c1.8753 8.2513 3.188 16.69 3.188 25.129h0.93765c0-8.6264 1.3127-16.878 3.188-25.129l17.065-77.262zm-238.16 53.821h25.692v116.08h46.507v-116.27l25.692 0.18753v-53.821h-97.89zm-201.41 15.002c-7.5012-9.1889-16.878-17.065-27.379-17.065-13.877 0-25.316 14.627-25.316 32.818 0 18.565 12.002 32.818 26.067 32.818 10.689 0 19.128-6.0009 26.629-15.565l-0.18752 63.385c-7.5012 4.6882-26.067 6.7511-34.318 6.7511-36.568 0-65.073-37.693-65.073-85.888 0-49.32 29.442-89.076 66.948-89.076 10.502 0 22.504 2.4379 32.443 6.9386zm-191.65 11.627 40.881 89.264h44.444v-169.9h-42.194v94.14l-41.256-94.14h-44.82v169.71h42.944zm-50.07-80.638v100.33c0 49.508-23.441 72.011-59.447 72.011s-59.259-22.504-59.259-72.011v-100.33h46.507v94.515c0 13.315 0.37506 24.941 12.94 24.941s12.94-11.627 12.94-24.941v-94.515z" fill="#fff" stroke-width="1.8753"/><path d="m492.64 39.944c10.314 5.8134 20.066 16.878 24.004 27.754 8.0638 18.94 3.7506 43.507-10.877 58.134l-42.757 36.381 1.3127 0.18753c30.005 0.56259 58.322-17.253 69.948-44.82 11.064-24.754 6.1885-57.759-12.189-77.637zm10.689 22.316c8.4388 12.002 10.877 30.192 4.5007 43.882-2.6254 5.4384-5.8134 10.689-10.502 15.002l-47.632 39.569c-7.3136-1.6878-14.44-3.9381-20.816-7.6887l8.6264-7.5012 47.257-39.756c7.3136-7.8762 8.8139-19.503 4.1256-29.255-3.188-6.7511-9.9391-12.752-17.065-14.627zm-24.191-47.445-47.257 39.381c-4.5007 4.6882-8.6264 10.127-10.877 16.128-5.6259 13.502-3.7506 30.942 4.8758 42.757l30.192 0.18753c-8.8139-3.0005-16.878-12.189-18.19-21.378-1.1252-8.0638 1.1252-15.752 6.0009-21.753l39.194-33.193 17.065-14.815c-6.5635-3.7506-13.69-6.0009-21.003-7.3136m-14.815 0-39.756 33.568c-14.065 13.502-19.316 33.193-14.44 52.696 3.5631 13.315 12.564 25.692 24.566 33.38-8.6264 0-19.503 0-28.88-0.18753-17.628-20.253-22.128-52.883-10.877-77.262 12.377-27.942 40.694-45.007 70.886-44.069z" fill="#009aa7" stroke-width="1.8753"/>
</svg>
