<svg width="800" height="175.15" version="1.1" viewBox="0 0 800 175.15" xml:space="preserve" xmlns="http://www.w3.org/2000/svg" xmlns:xlink="http://www.w3.org/1999/xlink"><defs>
	<clipPath id="SVGID_2_">
		<use width="100%" height="100%" xlink:href="#SVGID_1_"/>
	</clipPath>
</defs>
<path transform="matrix(1.8753 0 0 1.8753 0 .18753)" d="m426.6 1.5-26.4 90.5h-21l-26.5-90.5h25.9l9.1 41.2c1 4.4 1.7 8.9 1.7 13.4h0.5c0-4.6 0.7-9 1.7-13.4l9.1-41.2zm-127 28.7h13.7v61.9h24.8v-62l13.7 0.1v-28.7h-52.2zm-107.4 8c-4-4.9-9-9.1-14.6-9.1-7.4 0-13.5 7.8-13.5 17.5 0 9.9 6.4 17.5 13.9 17.5 5.7 0 10.2-3.2 14.2-8.3l-0.1 33.8c-4 2.5-13.9 3.6-18.3 3.6-19.5 0-34.7-20.1-34.7-45.8 0-26.3 15.7-47.5 35.7-47.5 5.6 0 12 1.3 17.3 3.7zm-102.2 6.2 21.8 47.6h23.7v-90.6h-22.5v50.2l-22-50.2h-23.9v90.5h22.9zm-26.7-43v53.5c0 26.4-12.5 38.4-31.7 38.4s-31.6-12-31.6-38.4v-53.5h24.8v50.4c0 7.1 0.2 13.3 6.9 13.3s6.9-6.2 6.9-13.3v-50.4z" clip-path="url(#SVGID_2_)" fill="#fff"/><path transform="matrix(1.8753 0 0 1.8753 0 .18753)" d="m262.7 21.2c5.5 3.1 10.7 9 12.8 14.8 4.3 10.1 2 23.2-5.8 31l-22.8 19.4 0.7 0.1c16 0.3 31.1-9.2 37.3-23.9 5.9-13.2 3.3-30.8-6.5-41.4zm5.7 11.9c4.5 6.4 5.8 16.1 2.4 23.4-1.4 2.9-3.1 5.7-5.6 8l-25.4 21.1c-3.9-0.9-7.7-2.1-11.1-4.1l4.6-4 25.2-21.2c3.9-4.2 4.7-10.4 2.2-15.6-1.7-3.6-5.3-6.8-9.1-7.8zm-12.9-25.3-25.2 21c-2.4 2.5-4.6 5.4-5.8 8.6-3 7.2-2 16.5 2.6 22.8l16.1 0.1c-4.7-1.6-9-6.5-9.7-11.4-0.6-4.3 0.6-8.4 3.2-11.6l20.9-17.7 9.1-7.9c-3.5-2-7.3-3.2-11.2-3.9m-7.9 0-21.2 17.9c-7.5 7.2-10.3 17.7-7.7 28.1 1.9 7.1 6.7 13.7 13.1 17.8-4.6 0-10.4 0-15.4-0.1-9.4-10.8-11.8-28.2-5.8-41.2 6.6-14.9 21.7-24 37.8-23.5z" clip-path="url(#SVGID_2_)" fill="#009aa7"/>
</svg>
