<svg width="600pt" height="264.07pt" version="1.1" viewBox="0 0 600 264.07" xmlns="http://www.w3.org/2000/svg">
 <g transform="translate(-5.97 114.05)" fill="#33579a" stroke-width="2.5552">
  <path d="m312.08-114h6.9117v249.28h-6.9117z" opacity=".89"/>
  <path d="m353.61-113.95 6.7456-0.10221v34.277h-6.7456z" opacity=".89"/>
  <path d="m437.46-112.83c2.1612 0 11.047 0.3709 15.837 1.5412v6.6178c-4.8815-0.88012-13.734-1.4184-15.837-1.4184-9.9149 0-24.794 0.74489-25.403 15.255v41.866l66.191 0.0511v-51.334h7.562v51.308l30.19 0.02555v6.8478h-30.19c-0.25551 55.421 0.1924 111-0.19087 166.42 0.48548 11.447-6.1324 26.293-19.47 25.654-153.39-0.0511-306.8-0.0256-460.18-0.0256 0.025552-1.1754 0.12776-3.5006 0.15331-4.6759 149.86 0.63878 299.72 0.20441 449.58 0 6.1579-0.38328 13.542-0.28107 17.733-5.6469 4.6759-5.6469 4.9314-13.287 4.9059-20.262-0.15331-53.786 0.16659-107.67-0.0889-161.46h-66.191v177.35h-6.7341v-177.35h-27.902v-6.8478l27.902-0.02555v-41.892c0-18 16.431-21.995 32.137-21.995z" opacity=".89"/>
  <path d="m353.61-48.844 6.7456-0.02555v184.15h-6.7456z" opacity=".89"/>
  <path d="m497.48 7.3678 51.074 127.68h6.3442l51.074-127.68h-7.6467l-46.595 119.69-46.599-119.69z" opacity=".89"/>
 </g>
 <g transform="matrix(2.5552 0 0 2.5552 -15.254 -119.25)" fill="#e57d27">
  <path d="m91.298 70.566c18.821 0 27.444 16.565 27.444 32.968 0 19.729-8.1243 34.645-27.444 34.645-14.743 0-22.279-6.3143-26.068-19.279v25.35h-2.5548v-72.06h2.5548v17.86c4.9551-11.67 14.113-19.484 26.068-19.484zm-25.538 26.664c-0.63492 5.0489-0.84739 10.4 0 15.519 4.3015 17.226 12.072 22.879 25.538 22.879 18.085 0 24.742-17.12 24.742-32.095-0.78033-16.106-8.1342-29.841-24.742-30.215-13.591 0.029667-23.26 12.574-25.538 23.912z" opacity=".97"/>
  <path d="m6.215 72.17 2.56 0.04v42.79c0 13.094 7.6006 20.62 20.434 20.62 13.777-0.31143 20.975-8.9829 23.311-24.5v-38.93h2.68v72.06h-2.68v-22.54c-4.8648 11.72-11.562 16.469-23.311 16.469-14.594 0-22.958-7.9612-22.994-23.119z" opacity=".97"/>
 </g>
</svg>
