<svg width="1291.2" height="809.4" version="1.1" viewBox="0 0 1291.2 809.4" xml:space="preserve" xmlns="http://www.w3.org/2000/svg">
<style type="text/css">
	.st0{fill:#FFFFFF;}
	.st1{fill:#49CAC6;}
</style>
<g transform="translate(-14.2,-9.7)">
	<path class="st0" d="m1218.4 61.6-7.2 189.9-129.8-140.3-87.7 32.2 191.1 208.4c16.1 18 35 27.5 53.7 27.5 6.4 0 12.9-1.1 19.2-3.4 24.4-8.9 38.8-33 39.5-66l8.2-280z"/>
	<path class="st0" d="m1099.6 326.9-4.7 3.3c-13 8.9-28.4 18.8-43.9 24.5-20.4 7.4-47.4 9-60-25.5l-30.6-84.2 56.1-20.7-28.7-78.7-56.2 20.6-28.6-78.7-91.2 33.2 28.6 78.7-50.4 18.4 28.7 78.8 50.5-18.4 30.8 84.7c13.5 37.2 36.2 64.8 65.7 79.8 16.1 8.2 33.5 12.3 51.7 12.3 15.2 0 31-2.9 47-8.7 27.8-10.1 42.8-18.7 72.8-41.5l3.5-2.7z"/>
</g>
<path class="st1" d="m809.2 404.8c0 223.4-181.1 404.6-404.6 404.6-223.4 0-404.6-181.1-404.6-404.6 0-223.4 183.6-404.8 407-404.8s402.2 181.4 402.2 404.8z" fill="#49cac6"/>
<g transform="translate(-14.2,-9.7)">
	<g fill="#fff">
		<path class="st0" d="m783.5 287.2c27.4 75.3-6.3 162-84 190.2l-110.7 40.3 27.6 75.9-89.6 32.6-130.5-358.4 200.4-72.9c77.6-28.3 159.4 16.9 186.8 92.3zm-89.6 32.6c-9.1-25.1-37.2-45.3-64.6-35.3l-110.7 40.3 37.6 103.3 110.7-40.3c27.4-10 36.1-42.9 27-68z"/>
		<path class="st0" d="m352.2 496.5-68.6-188.4 89.6-32.6 68.6 188.4c34.5 94.8-7.8 205.8-105.4 241.4-97.6 35.5-201.4-22.4-235.9-117.1l-68.6-188.4 89.6-32.6 68.6 188.4c16.4 45.1 65.5 77 113.5 59.5 47.9-17.5 65-73.5 48.6-118.6z"/>
	</g>
</g>
</svg>
