<svg width="794.71" height="388.97" version="1.1" viewBox="0 0 745.04 364.66" xmlns="http://www.w3.org/2000/svg">
 <g transform="translate(-30.275 -43.853)" fill="#d81411">
  <path d="m531.52 67.809c-15.66-14.946-36.778-23.091-58.316-23.889-21.496-0.79769-43.201 5.4999-60.751 17.969-15.324 10.874-27.248 26.156-35.476 42.991-10.034-8.9006-20.446-17.507-33.041-22.587-11.672-4.7442-25.862-6.9273-37.744-1.5954-5.3739 2.4351-10.034 6.3816-13.015 11.504-2.9809 5.206-4.1984 11.42-3.5686 17.423 0.67174 5.7938 3.1908 10.958 7.3472 15.03 4.4083 4.2824 9.9922 7.0953 15.576 9.3624 6.4655 2.645 13.183 4.5343 19.816 6.5495 6.3816 1.9313 12.679 3.9465 18.893 6.2976 12.007 4.5343 23.805 10.538 33.083 19.564 18.725 18.053 24.729 45.511 21.622 70.701-0.88166 7.0953-2.603 14.107-5.122 20.782-0.62976 1.5534-1.2595 3.1488-1.9313 4.6602-0.20992 0.41984-0.50381 1.2175-0.50381 1.2175s1.5114 1.6374 2.1832 2.2671c2.0992 2.1412 4.3243 4.1144 6.6334 6.0457 8.4807 7.0113 18.179 12.553 28.507 16.416 20.488 7.725 43.663 8.9006 64.487 1.7633 11.714-3.9885 22.713-10.538 31.32-19.439v20.656h71.163l-0.042-244.26h-71.121v20.572zm-47.442 162.6c-11.084 0-21.622-4.4503-29.893-11.714-8.9006-7.809-14.988-18.431-18.263-29.725-6.6754-23.049-1.2595-50.171 16.164-67.258 8.1449-8.0189 18.893-13.015 30.396-13.393 11.504-0.33587 22.881 3.9465 31.614 11.378 15.24 12.931 22.209 33.965 21.244 53.529-1.0076 19.69-10.286 39.717-27.457 50.339-7.0953 4.4503-15.408 6.8434-23.805 6.8434m-217.14-39.549c-3.3167-1.3015-6.5915-2.729-9.8242-4.3243-6.0457-3.0228-11.839-6.5915-17.087-10.874-9.6143-7.935-16.626-18.389-20.782-30.102-4.2824-12.007-5.7938-25.064-5.0381-37.744 0.7977-13.561 4.4503-26.954 11.168-38.793 5.29-9.2784 12.259-17.591 20.446-24.435h-71.666s-0.12595 75.571-0.12595 105.72v22.545c0 7.0113-0.12595 13.981-1.0076 20.95-1.5114 12.343-5.4999 26.702-17.129 33.209-5.6258 3.1068-12.217 4.0724-18.599 3.8625s-12.847-1.8473-18.011-5.8358c-10.16-7.809-13.393-21.874-14.526-34.007-0.62976-6.7594-0.62976-13.519-0.62976-20.236v-22.587c0-15.156-0.042-103.62-0.042-103.62l-73.724-0.04198s0.04198 100.59-0.08397 130.74c-0.04198 14.61 0.20992 29.389 3.2328 43.747 2.645 12.721 7.3892 25.106 14.694 35.854 7.0953 10.412 16.626 18.893 27.583 25.106 11.755 6.6334 24.938 10.496 38.247 12.427 13.435 1.9732 27.206 2.2252 40.682 1.0916 12.889-1.1336 25.736-3.7366 37.702-8.7326 11.336-4.7022 21.706-11.588 30.018-20.656 7.935-8.6487 13.939-18.977 17.927-29.976 0.29389-0.88166 0.62976-1.8053 0.92365-2.687 8.7746 8.6487 18.389 16.668 29.431 22.293 10.832 5.5419 23.553 8.8586 35.728 6.6754 6.0037-1.0496 11.797-3.6106 16.248-7.893 4.2404-4.0304 7.0113-9.3624 8.0609-15.114 0.96563-5.4159 0.41984-11.168-2.0152-16.164-2.1832-4.5762-5.8777-8.3128-10.076-11.168-6.0877-4.1144-13.309-6.6754-20.278-8.9426-7.767-2.519-19.439-5.9197-22.251-6.8854s-7.683-2.7709-9.1945-3.4007"/>
  <path d="m323.33 354.27h15.072v7.5151c3.4427-4.4503 7.893-8.5227 15.534-8.5227 11.378 0 18.011 7.5151 18.011 19.69v34.385h-15.03v-29.599c0-7.1373-3.3587-10.79-9.1105-10.79s-9.4044 3.6526-9.4044 10.79v29.599h-15.072z"/>
  <path d="m379.5 381.09v-0.20992c0-15.156 10.79-27.625 26.24-27.625 17.717 0 25.82 13.771 25.82 28.843 0 1.1756-0.084 2.561-0.16794 3.9465h-36.946c1.4694 6.8434 6.2136 10.37 12.973 10.37 5.0381 0 8.6907-1.5534 12.847-5.4159l8.6487 7.5991c-4.9541 6.1716-12.091 9.9082-21.706 9.9082-15.954 0-27.709-11.168-27.709-27.415m37.408-4.4503c-0.88167-6.7594-4.8282-11.294-11.168-11.294-6.2556 0-10.328 4.4503-11.504 11.294z"/>
  <path d="m442.73 392.3v-25.19h-6.3396v-12.847h6.3396v-13.561h15.03v13.561h12.511v12.847h-12.511v22.671c0 3.4847 1.5114 5.164 4.8701 5.164 2.7709 0 5.248-0.67174 7.4312-1.8893v12.091c-3.1908 1.8893-6.8434 3.0648-11.881 3.0648-9.1945 0-15.45-3.6526-15.45-15.912"/>
  <path d="m477.99 354.27h15.282l8.5227 32.16 9.9922-32.37h12.973l10.076 32.496 8.7326-32.286h14.946l-16.542 53.445h-13.561l-10.202-32.579-10.412 32.579h-13.435z"/>
  <path d="m559.86 381.09v-0.20992c0-15.24 12.259-27.625 28.801-27.625 16.458 0 28.633 12.175 28.633 27.457v0.16794c0 15.24-12.301 27.625-28.843 27.625-16.416 0-28.591-12.175-28.591-27.415m42.572 0v-0.20992c0-7.809-5.6678-14.652-13.981-14.652-8.6067 0-13.771 6.6335-13.771 14.484v0.16794c0 7.809 5.6678 14.652 13.981 14.652 8.6067 0 13.771-6.6334 13.771-14.442"/>
  <path d="m624.98 354.27h15.03v10.664c3.0648-7.3052 8.0189-12.049 16.961-11.672v15.744h-0.79769c-9.9922 0-16.164 6.0457-16.164 18.725v19.606h-15.03z"/>
  <path d="m664.87 335.04h15.072v38.541l17.633-19.313h18.011l-20.194 20.866 20.908 32.202h-17.255l-13.855-21.706-5.248 5.5838v16.122h-15.072z"/>
  <path d="m662.03 222.19v68.062h19.031v-29.125h15.75v29.125h19.062v-68.062h-19.062v23.625h-15.75v-23.625z" fill-rule="evenodd"/>
  <path d="m718.72 222.19v68.062h34.781c27.521-0.0195 30.607-66.876 0-68.062zm19.25 11.812h10.25c11.098 2.8518 9.0149 42.985 0 44.094h-10.25z" fill-rule="evenodd"/>
 </g>
</svg>
