<svg width="800" height="483.92" version="1.1" viewBox="0 0 800 483.92" xmlns="http://www.w3.org/2000/svg">
 <style>.st0{fill:#cd040b}.st1{fill:#333}</style>
 <path d="m36.798 449.7h-0.4779v9.7969h-11.947v-96.774h12.186v24.612c0 5.2569-0.23895 10.275-0.4779 13.381h0.4779c4.54-7.4074 12.425-12.664 22.461-12.664 17.682 0 29.869 13.859 29.869 36.798 0 22.461-11.231 36.798-30.108 36.798-9.319 0-17.443-4.0621-21.983-11.947zm39.665-24.612c0-15.293-6.2127-26.762-19.116-26.762-14.815 0-21.505 11.947-21.505 26.762 0 15.293 7.1685 26.762 21.505 26.762 12.903-0.23895 19.116-11.47 19.116-26.762zm22.7 57.587v-10.514h0.4779c1.1947 0.71685 4.3011 1.1948 7.1685 1.1948 4.779 0 7.8853-1.9116 10.514-8.3632 0-0.23895 2.6284-8.1242 2.3895-8.8411l-26.762-66.428h13.142l14.337 38.71c2.8674 7.8853 5.7348 18.877 5.7348 18.877h0.23895s3.3453-10.992 5.9737-18.877l13.859-38.71h12.664l-29.63 76.225c-5.7348 14.815-11.231 17.921-20.311 17.921-3.3453 0.23895-7.8853-0.47789-9.7969-1.1947zm93.668-92.951h12.903l12.186 37.754c3.1063 9.319 6.4516 22.222 6.4516 22.222h0.23895s3.1063-12.903 6.2127-22.222l12.425-37.754h12.425l-25.09 69.773h-13.381zm67.145 35.125c0-20.311 13.381-36.798 33.453-36.798 10.514 0 18.399 4.0621 23.895 10.753 5.7348 6.9295 8.6022 16.965 8.6022 28.674h-53.524c0.9558 13.62 8.3632 24.134 21.744 24.134 9.5579 0 16.249-4.54 18.399-11.947h11.947c-3.1063 12.903-14.337 21.744-30.346 21.744-21.505 0.23895-34.17-16.248-34.17-36.559zm12.664-5.9737h40.382c-0.71685-13.381-7.6464-21.505-19.594-21.505-12.664 0-19.116 9.319-20.789 21.505zm78.614-16.487h0.4779c4.3011-8.1242 11.47-13.62 20.789-13.62 1.9116 0 3.1063 0.23895 4.54 0.71685v11.47h-0.4779c-1.6726-0.4779-2.8674-0.71684-5.0179-0.71684-10.753 0-20.072 8.1242-20.072 21.266v37.993h-12.186v-69.773h11.947zm37.515-39.427h12.664v14.098h-12.664zm0.23895 26.762h12.186v69.773h-12.186zm26.523 60.454 31.302-40.621c2.8674-3.5842 8.3632-9.5579 8.3632-9.5579v-0.4779s-8.3632 0.4779-13.142 0.4779h-24.134v-10.275h52.33v7.6464l-31.78 41.577c-3.1063 3.8232-8.8411 10.036-8.8411 10.036v0.47789s8.8411-0.47789 13.859-0.47789h28.196v10.753h-56.392v-9.5579zm63.321-25.329c0-20.311 13.142-36.798 34.17-36.798s33.931 16.487 33.931 36.798-12.903 36.798-33.931 36.798-34.17-16.487-34.17-36.798zm55.675 0c0-15.054-7.4074-27.001-21.744-27.001s-21.744 11.947-21.744 27.001 7.4074 27.001 21.744 27.001c14.337-0.23895 21.744-11.947 21.744-27.001zm37.754-25.09h0.4779c5.0179-6.9295 11.947-11.47 22.222-11.47 14.576 0 23.656 8.1243 23.656 22.7v48.746h-11.947v-47.312c0-9.08-5.9737-14.098-15.293-14.098-10.753 0-18.638 7.6464-18.638 18.877v42.533h-12.186v-69.773h11.947v9.7969zm-23.656-85.066c53.286 0 92.473-23.656 92.473-68.1 0-52.091-41.577-61.41-78.136-67.622-26.045-4.3011-49.701-6.4516-49.701-21.266 0-12.903 12.425-19.355 28.913-19.355 18.877 0 31.302 5.9737 33.692 24.851h59.02c-3.3453-40.86-34.409-66.189-92.234-66.189-48.029 0-87.694 22.461-87.694 65.711 0 47.79 36.798 57.826 73.357 64.038 27.718 4.779 52.569 6.4516 52.569 24.851 0 13.142-12.425 20.789-32.975 20.789-21.744 0-35.603-10.036-37.993-30.824h-60.932c2.3895 45.4 39.665 73.118 99.642 73.118zm-402.63-229.39h62.843v-55.675h-62.843zm187.1 183.27c-29.63 0-45.4-24.851-45.4-62.605 0-37.993 15.532-62.605 45.4-62.605 29.63 0 46.117 24.373 46.117 62.605 0 37.754-16.487 62.605-46.117 62.605zm0.23895 46.117c65.233 0 108.96-47.312 108.96-108.72 0-61.649-43.728-108.72-108.96-108.72-65.233 0-108.96 46.834-108.96 108.72 0 61.41 43.728 108.72 108.96 108.72zm-187.34-6.4516h62.843v-205.26h-62.843zm-121.62 0h62.605v-160.33h41.338v-44.922h-41.338v-5.9737c0-17.921 15.293-20.55 41.338-19.355v-47.551c-34.409-3.5842-70.251 0-87.455 17.682-10.275 10.275-16.487 26.045-16.487 43.967v11.231h-24.373v44.922h24.373z" stroke-width="2.3895"/>
 <path class="st0" d="m768.7 0-77.419 166.07-29.152-63.082h-31.78l48.029 102.99h25.568l96.057-205.97z" fill="#cd040b" stroke-width="2.3895"/>
</svg>
