<svg width="597.35" height="241.38" version="1.1" viewBox="0 0 158.05 63.865" xmlns="http://www.w3.org/2000/svg">
 <path d="m0 60.013 18.673-8.4133 6.4386 11.674 26.416-63.274z" fill="#346ebf"/>
 <path d="m8.836 29.073 9.8737 22.475 38.383-15.844z" fill="#346ebf"/>
 <path d="m32.17 36.233 8.8726-20.253-16.478 19.187-9.791-1.3777 3.7199 8.4501-9.2675 10.801 11.527-5.1986 3.1688 7.2101 4.7853-10.912 14.2-6.4018z" fill="#83a7dd"/>
 <path d="m45.254 7.543-1.3594 1.5155-18.866 31.945-7.4122-10.627-2.7646 0.25717 9.3961 25.258 22.374-49.672z" fill="#233b73"/>
 <path d="m44.059 8.663-0.22044 0.35821-2.7922 4.6659-16.937 27.931-6.5396-11.343-4.8955-0.68886 12.051 27.61 3.5913-12.785 17.91-37.392 0.95522-1.9839z" fill="#fff"/>
 <path d="m135.04 46.203h-17.653l-0.88174 3.3433h5.4925l-3.7199 14.319h6.7141l3.7199-14.319h5.4558z" fill="#243d78"/>
 <g transform="translate(-24.075 -97.727)" fill="#4788ce">
  <path d="m65.355 161.59-7.3295-17.405v-0.24798h7.4765l4.969 12.758 4.9874-12.758h4.6475v0.24798l-7.8255 17.405z"/>
  <path d="m81.175 143.93h6.7141v17.653h-6.7141z"/>
  <path d="m112.04 143.93h6.7141v17.653h-6.7141z"/>
  <path d="m96.415 161.59-7.3295-17.405v-0.24798h7.4765l4.969 12.758 4.9966-12.758h4.6384v0.24798l-7.8255 17.405z"/>
 </g>
 <path d="m138.24 63.863-2.3513-17.405 0.0735-0.24798h7.4765l1.2308 11.545 8.4868-11.545h4.8863l-0.0735 0.24798-12.804 17.405z" fill="#243d78"/>
 <path d="m104.66 61.183c3.0126 0 5.2262-1.7543 5.2262-6.76 0-3.8025-2.2135-5.5293-5.2262-5.5293h-0.9644v12.289zm-7.7704 2.682v-17.653h9.0287c5.4007 0 11.04 2.1952 11.04 8.2112 0 6.0253-5.6395 9.442-11.04 9.442z" fill="#4788ce"/>
</svg>
