<svg width="800" height="502.76" version="1.1" viewBox="0 0 800 502.76" xmlns="http://www.w3.org/2000/svg">
 <defs>
  <linearGradient id="linearGradient-1" x1="6.2747" x2="6.2747" y1=".32644" y2="12.876" gradientTransform="scale(1.0986 .91024)" gradientUnits="userSpaceOnUse">
   <stop stop-color="#84058E" offset="0"/>
   <stop stop-color="#4D0252" offset="1"/>
  </linearGradient>
  <linearGradient id="linearGradient-2" x1="3.9058" x2="3.9058" y1=".77314" y2="6.877" gradientTransform="scale(1.4633 .68337)" gradientUnits="userSpaceOnUse">
   <stop stop-color="#BC94C4" offset="0"/>
   <stop stop-color="#75047E" offset="1"/>
  </linearGradient>
  <linearGradient id="linearGradient-3" x1="21.468" x2="21.468" y2="26.232" gradientTransform="scale(1.0986 .91024)" gradientUnits="userSpaceOnUse">
   <stop stop-color="#F1C900" offset="0"/>
   <stop stop-color="#CE820D" offset="1"/>
  </linearGradient>
  <linearGradient id="linearGradient-4" x1="17.8" x2="17.8" y1=".70695" y2="13.704" gradientTransform="scale(1.4633 .68338)" gradientUnits="userSpaceOnUse">
   <stop stop-color="#FBEAA5" offset="0"/>
   <stop stop-color="#E7B504" offset="1"/>
  </linearGradient>
 </defs>
 <g transform="matrix(21.056 0 0 21.056 -42.112 -105.28)" fill="none" fill-rule="evenodd">
  <g transform="translate(2,5)">
   <path d="m0 6.0089c0 3.1543 2.5567 5.7113 5.711 5.7113 1.5485 0 2.9524-0.61666 3.9811-1.6176l4.0947-4.0937-4.0947-4.0946c-1.0288-1.0005-2.4322-1.6172-3.9811-1.6172-3.1543 0-5.711 2.5573-5.711 5.7117" fill="url(#linearGradient-1)"/>
   <path d="m5.8008 4.7773c1.6665 0 3.2068-2.4807 4.4639-1.7568-1.0245-1.5105-2.6629-2.4921-4.5139-2.4921-1.8934 0-3.5647 1.026-4.5845 2.5935 1.2883-0.78383 2.8909 1.6554 4.6345 1.6554" fill="url(#linearGradient-2)"/>
   <path d="m9.3378 5.8294c0.02434-0.25391 0.23508-0.45347 0.49541-0.45347 0.2601 0 0.47163 0.19956 0.49557 0.45347zm1.7673 0.2882c0-0.73667-0.51918-1.3124-1.2559-1.3124-0.73757 0-1.3348 0.57573-1.3348 1.3124 0 0.7374 0.59721 1.3018 1.3348 1.3018 0.44588 0 0.8116-0.20754 1.0311-0.53459-0.13896-0.11175-0.38186-0.30479-0.46404-0.3664-0.12957 0.14728-0.2416 0.28809-0.54161 0.28809-0.54206 0-0.54206-0.47691-0.54206-0.47691h1.7564c0.0098-0.068411 0.01619-0.13941 0.01619-0.21204zm-3.8383-1.3316c-0.49333 0-0.70795 0.24801-0.73622 0.28427-0.029118-0.036257-0.24335-0.28427-0.73735-0.28427-0.85764 0-1.0474 0.79513-1.0474 1.0479v1.5379h0.82195v-1.3966c0.00354-0.11687 0.03918-0.40282 0.29787-0.40282 0.22581 0 0.27145 0.23879 0.27949 0.36409v1.4353h0.76967v-1.4353c0.0086-0.1253 0.053683-0.36409 0.28-0.36409 0.25864 0 0.29422 0.28596 0.29849 0.40282v1.3966h0.82127v-1.5379c0-0.25273-0.18961-1.0479-1.0478-1.0479zm-3.1707 1.7832 0.00112 8.432e-4s-0.29872 0.82824-0.94893 0.82824c-0.55921 0-0.84454-0.59114-0.91402-0.75753l-0.00208 1.124e-4 -1.1247-2.7036h1.3075l0.73431 2.0663 0.73414-2.0663h1.3077z" fill="#f4f4f4"/>
   <path d="m26.056 0c-3.2376 0-6.1714 1.289-8.3217 3.3803l-8.5594 8.5588 8.5594 8.5573c2.1503 2.0923 5.0849 3.3813 8.3217 3.3813 6.5932 0 11.938-5.3452 11.938-11.939 0-6.5937-5.3445-11.939-11.938-11.939z" fill="url(#linearGradient-3)"/>
   <path d="m25.869 9.3647c-3.4834 0-6.7031-5.1854-9.3309-3.6722 2.1415-3.1574 5.5666-5.2094 9.4354-5.2094 3.9578 0 7.4514 2.1446 9.5829 5.4212-2.6929-1.6384-6.0427 3.4604-9.6875 3.4604" fill="url(#linearGradient-4)"/>
   <path d="m22.882 14.525c-0.06105-0.1746-0.04688-0.45718 0.04261-0.84741l0.65263-2.967c0.05683-0.26814 0.06116-0.48967 0.01231-0.66449-0.048849-0.17477-0.13412-0.31491-0.25611-0.42064-0.12198-0.10557-0.27022-0.18078-0.44493-0.22558-0.17494-0.044577-0.35971-0.067062-0.55488-0.067062h-0.29253c-0.17881 0-0.33964 0.022485-0.48152 0.067062-0.14233 0.044802-0.26634 0.12204-0.37196 0.23171s-0.19512 0.252-0.26825 0.42671c-0.07313 0.17494-0.13823 0.39226-0.19506 0.6523l-0.62841 2.8452c-0.05694 0.27646-0.07729 0.53858-0.06088 0.78631 0.01619 0.24818 0.08533 0.46775 0.2072 0.65848 0.12193 0.19118 0.30276 0.34144 0.54268 0.45105 0.23964 0.10984 0.55864 0.16465 0.95703 0.16465 0.31687 0 0.57495-0.03457 0.77417-0.1036 0.19899-0.06892 0.35369-0.14621 0.46325-0.23171 0.1099-0.08516 0.18494-0.16454 0.2257-0.23767 0.04047-0.07319 0.05672-0.11383 0.04868-0.12193-0.18702-0.08938-0.3108-0.22131-0.37174-0.3963m5.3193-2.1518c-0.1457 0.86461-0.48304 1.4896-1.331 1.5653-0.76764 0.06886-1.2601-0.30552-1.0477-1.5653 0.18994-1.1281 0.80761-1.6826 1.5308-1.5654 0.79637 0.1289 0.99368 0.70086 0.84786 1.5654m2.2979 2.1518c-0.06093-0.1746-0.04688-0.45718 0.04272-0.84741l1.1704-5.5232c0.056831-0.26819 0.060991-0.48956 0.012198-0.66444-0.048736-0.17465-0.13407-0.31485-0.25599-0.42064-0.12187-0.10551-0.27033-0.18072-0.44493-0.22553-0.17488-0.044577-0.35971-0.067118-0.55488-0.067118h-0.29253c-0.17893 0-0.33953 0.022541-0.48169 0.067118-0.14228 0.044802-0.26634 0.12187-0.37191 0.2316-0.10562 0.10973-0.195 0.252-0.26814 0.42683-0.07325 0.17488-0.13823 0.39225-0.19512 0.65218l-0.34993 1.6367c-0.35218-0.48967-0.92667-0.8084-1.8007-0.8084-2.0336 0-2.9788 1.7228-3.2243 3.3204-0.24548 1.5975 0.16982 3.3203 2.2036 3.3203 0.94095 0 1.6485-0.36926 2.162-0.92397 0.10124 0.25628 0.25639 0.4451 0.39372 0.56938 0.25605 0.23154 0.64808 0.43582 1.1765 0.43531 0.52503-6.18e-4 1.0815-0.07375 1.4081-0.57309 0.04491-0.06841 0.05082-0.11372 0.04283-0.12187-0.18719-0.08938-0.31097-0.30917-0.3719-0.48416m6.4648-4.1514c-0.057108-0.12198-0.13013-0.22755-0.21956-0.31704-0.26015-0.26015-0.60963-0.46528-1.0485-0.6157-0.4388-0.15043-0.93072-0.22558-1.4752-0.22558-0.4632 0-0.86377 0.056888-1.2009 0.17066-0.33745 0.11394-0.61992 0.26628-0.84736 0.45724-0.22755 0.19101-0.39625 0.41457-0.50592 0.67056-0.10978 0.25605-0.16454 0.52632-0.16454 0.8107 0 0.29276 0.04874 0.54262 0.14632 0.74994 0.09747 0.20714 0.22744 0.38405 0.39012 0.53031 0.16229 0.14627 0.3452 0.27252 0.54853 0.37798 0.20315 0.10579 0.40631 0.20338 0.60974 0.29276 0.12985 0.05683 0.23351 0.10962 0.3108 0.15835 0.07712 0.04874 0.1158 0.10163 0.1158 0.15852 0 0.13008-0.09354 0.19506-0.28045 0.19506-0.14615 0-0.30681-0.0244-0.48152-0.07313-0.17494-0.04874-0.34745-0.1158-0.51817-0.20107-0.17072-0.08544-0.33526-0.18297-0.49389-0.29276-0.15841-0.10956-0.29855-0.22131-0.42047-0.33525-0.01641-0.01625-0.06515-0.0039-0.14638 0.03654-0.08123 0.04075-0.16662 0.10371-0.25594 0.18916-0.0896 0.08516-0.17072 0.19691-0.24396 0.33526-0.07308 0.13834-0.10754 0.29669-0.10962 0.47528-0.01012 0.87422 0.96731 1.2824 1.4143 1.4327 0.44695 0.15026 1.0037 0.22564 1.6704 0.22564 0.47112 0 0.88384-0.05087 1.2373-0.15251 0.35364-0.10152 0.64819-0.2438 0.88412-0.42671 0.23542-0.18297 0.41238-0.39821 0.5302-0.64617 0.11782-0.24773 0.17668-0.52216 0.17668-0.82302 0-0.2601-0.04857-0.48759-0.14621-0.68259-0.09747-0.19506-0.2316-0.36589-0.40232-0.51221-0.17066-0.14627-0.36775-0.27629-0.5913-0.39018-0.22367-0.11372-0.46134-0.2235-0.71329-0.32913-0.17881-0.0733-0.32727-0.14025-0.44504-0.2013-0.11799-0.06094-0.17668-0.12384-0.17668-0.18893 0-0.13806 0.11366-0.20726 0.34127-0.20726 0.3171 0 0.62796 0.09753 0.93269 0.29259 0.30496 0.19512 0.57101 0.41463 0.79862 0.65842 0.0163 0.0081 0.06897-0.0062 0.15858-0.04267 0.08932-0.03643 0.18691-0.10366 0.29264-0.20113 0.10551-0.09764 0.20107-0.22356 0.28663-0.37809 0.08522-0.15419 0.12783-0.33717 0.12783-0.54864 0-0.1624-0.0285-0.30484-0.08522-0.4266m-16.269 5.4518c-0.252-0.032492-0.44908-0.12193-0.59125-0.26842-0.14239-0.14627-0.28264-0.40232-0.42075-0.76804l-0.81009-2.2087 1.012-0.82903c0.19506-0.16251 0.34543-0.33317 0.45111-0.51216 0.10562-0.17876 0.15852-0.3859 0.15852-0.62183 0-0.30861-0.07926-0.55876-0.23772-0.74977-0.15852-0.1909-0.33525-0.33722-0.53037-0.43897-0.195-0.10158-0.37601-0.16847-0.54268-0.20119-0.16662-0.032266-0.25397-0.044464-0.26201-0.036482l-2.1337 2.2679c0.04874-0.18702 0.08932-0.35982 0.12193-0.5184 0.03232-0.15846 0.06886-0.33705 0.10967-0.53633 0.04064-0.19899 0.08123-0.40029 0.12193-0.6035 0.09759-0.4877 0.21535-1.0364 0.35358-1.6461 0.05689-0.26819 0.0588-0.48956 6e-3 -0.66444-0.052825-0.17465-0.14018-0.31485-0.26199-0.42064-0.12198-0.10551-0.26825-0.18072-0.43886-0.22553-0.17072-0.044577-0.35369-0.067118-0.54875-0.067118h-0.29264c-0.17881 0-0.33941 0.022541-0.48158 0.067118-0.14233 0.044802-0.26628 0.12187-0.3719 0.2316-0.10568 0.10973-0.19512 0.252-0.26819 0.42683-0.07319 0.17488-0.13834 0.39225-0.19506 0.65218l-1.268 5.9865c-0.05672 0.26819-0.05891 0.4899-0.0061 0.66449 0.05284 0.17505 0.1402 0.31524 0.26212 0.4207 0.12193 0.10568 0.2683 0.18101 0.43897 0.22541 0.17066 0.04463 0.35352 0.06712 0.54853 0.06712h0.29264c0.36584 0 0.65027-0.09944 0.8536-0.29883 0.2031-0.19899 0.35768-0.55859 0.46325-1.0789 0.04879-0.2438 0.09343-0.45904 0.13412-0.64611 0.0407-0.16257 0.07516-0.31086 0.10366-0.44504 0.02119-0.10034 0.03227-0.16083 0.03311-0.18146l1.0268 2.9692c0.08123 0.2438 0.16459 0.45313 0.24992 0.62779 0.08539 0.17499 0.18916 0.31918 0.31097 0.43301 0.12193 0.11372 0.26617 0.19916 0.43273 0.25582 0.1665 0.05689 0.36786 0.08544 0.60362 0.08544 0.39017 0 0.69687-0.07313 0.92054-0.21957 0.2235-0.14632 0.38602-0.30653 0.48759-0.48158 0.10169-0.1746 0.16054-0.33717 0.1769-0.48754 0.01613-0.15026 0.0122-0.22547-0.0122-0.22547m2.1028-6.7498c0.9627 0 1.7432-0.78041 1.7432-1.7432 0-0.9627-0.78052-1.7431-1.7432-1.7431-0.9627 0-1.7431 0.78041-1.7431 1.7431 0 0.96282 0.7804 1.7432 1.7431 1.7432" fill="#fefefe"/>
  </g>
 </g>
</svg>
