<svg width="608.47" height="166.16" version="1.0" xml:space="preserve" xmlns="http://www.w3.org/2000/svg"><g transform="translate(-3.0423 -.8308)" fill="#fff"><path d="m29.427 10.167s26.596 57.986 26.596 57.986l28.68-67.322 28.887 67.322s26.285-57.986 26.285-57.986h26.278l-53.187 109.09s-28.263-65.389-28.263-65.389-28.578 65.389-28.578 65.389l-53.084-109.09h26.385z"/><path d="m184.06 60.686c0 9.7424 2.6123 17.673 7.8302 23.793 5.3589 6.1914 12.112 9.2859 20.257 9.2859 8.7018 0 15.729-2.9883 21.089-8.9734 5.362-6.1878 8.0396-14.052 8.0396-23.579 0-9.53-2.6776-17.393-8.0396-23.585-5.3601-6.0528-12.323-9.0796-20.881-9.0796-8.075 0-14.825 3.0603-20.257 9.1821-5.3571 6.1951-8.0383 13.845-8.0383 22.957zm55.731-50.519h23.569v101.54h-23.569v-10.643c-9.671 9.0686-20.073 13.601-31.207 13.601-14.057 0-25.678-5.0745-34.862-15.222-9.1174-10.363-13.676-23.295-13.676-38.801 0-15.226 4.5587-27.908 13.676-38.061 9.115-10.154 20.527-15.228 34.235-15.228 11.829 0 22.441 4.8706 31.834 14.6v-11.785z"/><path d="m355.24 61.626c0-9.7363-2.6453-17.665-7.9358-23.794-5.3552-6.189-12.113-9.2847-20.254-9.2847-8.6328 0-15.63 2.9913-20.986 8.9758-5.3601 5.9839-8.0414 13.844-8.0414 23.579 0 9.5337 2.6813 17.391 8.0414 23.585 5.2893 6.0584 12.249 9.0772 20.884 9.0772 8.1421 0 14.861-3.0579 20.145-9.1785 5.4272-6.123 8.147-13.776 8.147-22.96zm-55.882 105.36h-23.419v-156.82h23.452v11.053c9.2542-9.2444 19.763-13.869 31.525-13.869 13.99 0 25.508 5.1489 34.554 15.433 9.1846 10.225 13.781 23.118 13.781 38.693 0 15.226-4.5593 27.919-13.679 38.068-9.0503 10.081-20.472 15.118-34.261 15.118-11.901 0-22.554-4.7595-31.953-14.287v66.614z"/><path d="m410.32 60.686c0 9.7424 2.6123 17.673 7.8345 23.793 5.3577 6.1914 12.107 9.2859 20.258 9.2859 8.6963 0 15.731-2.9883 21.086-8.9734 5.3613-6.1878 8.0383-14.052 8.0383-23.579 0-9.53-2.677-17.393-8.0383-23.585-5.3552-6.0528-12.321-9.0796-20.884-9.0796-8.075 0-14.823 3.0603-20.254 9.1821-5.3552 6.1951-8.0408 13.845-8.0408 22.957zm55.732-50.519h23.569v101.54h-23.569v-10.643c-9.6704 9.0686-20.074 13.601-31.202 13.601-14.062 0-25.684-5.0745-34.864-15.222-9.1211-10.363-13.676-23.295-13.676-38.801 0-15.226 4.5544-27.908 13.676-38.061 9.1138-10.154 20.527-15.228 34.232-15.228 11.83 0 22.441 4.8706 31.835 14.6v-11.785z"/></g><g transform="translate(-3.0423 -.8308)" fill="#fa0029"><path d="m498.56 10.172 22.677 20.456h90.272v-20.456h-112.95z"/><path d="m554.67 60.797-11.522 10.389 68.357 0.0038 2e-3 -20.465h-67.998l11.161 10.072z"/><path d="m498.2 111.74h113.31v-20.459h-90.632l-22.681 20.459z"/></g><g transform="translate(-3.0423 -.8308)" fill="#fff"><path d="m317.65 132.46h5.7019l4.6887 13.867 5.0513-13.867h3.4802l4.906 13.711 4.6619-13.711h5.7288l-8.4351 24.375h-3.7036l-4.9707-13.89-5.0598 13.89h-3.6646l-8.385-24.375z"/><path d="m352.64 132.46h5.7019l4.6887 13.867 5.0513-13.867h3.4802l4.906 13.711 4.6619-13.711h5.7288l-8.435 24.375h-3.7036l-4.9707-13.89-5.0598 13.89h-3.6646l-8.385-24.375z"/><path d="m387.63 132.46h5.7019l4.6887 13.867 5.0513-13.867h3.4802l4.906 13.711 4.6619-13.711h5.7288l-8.4351 24.375h-3.7036l-4.9707-13.89-5.0598 13.89h-3.6646l-8.385-24.375z"/><path d="m428.52 150.43c0.92651 0 1.7175 0.3418 2.3743 1.023 0.65674 0.68115 0.9851 1.5088 0.9851 2.4817 0 0.97412-0.32836 1.8054-0.9851 2.4939-0.65673 0.68725-1.4478 1.0327-2.3743 1.0327-0.92774 0-1.7188-0.34546-2.3755-1.0327-0.65674-0.68848-0.98389-1.5198-0.98389-2.4939 0-0.9729 0.32715-1.8005 0.98389-2.4817s1.4478-1.023 2.3755-1.023z"/><path d="m434.86 132.46h5.7019l4.6887 13.867 5.0513-13.867h3.4802l4.906 13.711 4.6619-13.711h5.7288l-8.435 24.375h-3.7036l-4.9707-13.89-5.0598 13.89h-3.6646l-8.385-24.375z"/><path d="m483.59 137.46c-1.8018 0-3.2971 0.66895-4.4885 2.0044-1.1914 1.3354-1.7859 3.0481-1.7859 5.1379 0 2.1057 0.60547 3.8379 1.8188 5.1953 1.2122 1.3586 2.7051 2.0374 4.4775 2.0374 1.8286 0 3.346-0.66773 4.552-2.0032 1.2048-1.3355 1.8079-3.0859 1.8079-5.2515 0-2.1191-0.60304-3.8367-1.8079-5.1502-1.2061-1.3135-2.7307-1.9702-4.574-1.9702zm6.1475-5h5.8594v24.375h-5.8594v-2.5903c-1.1475 1.1401-2.2974 1.9604-3.4509 2.4622-1.1536 0.50171-2.4036 0.75317-3.7512 0.75317-3.0249 0-5.6396-1.2207-7.8467-3.6621-2.207-2.4414-3.3105-5.4761-3.3105-9.1052 0-3.7622 1.0669-6.8457 3.2031-9.2505 2.135-2.4048 4.729-3.6072 7.782-3.6072 1.4038 0 2.7222 0.27588 3.9551 0.82641 1.2329 0.55054 2.3718 1.3757 3.4192 2.4768v-2.6782z"/><path d="m513.34 137.46c-1.8298 0-3.3472 0.65674-4.552 1.9702-1.206 1.3135-1.8079 3.031-1.8079 5.1502 0 2.1655 0.60181 3.916 1.8079 5.2515 1.2048 1.3354 2.7222 2.0032 4.552 2.0032 1.7725 0 3.2642-0.67871 4.4776-2.0374 1.2122-1.3574 1.8188-3.0896 1.8188-5.1953 0-2.0898-0.5957-3.8025-1.7871-5.1379s-2.6941-2.0044-4.5093-2.0044zm-6.1255-5v2.6782c1.0596-1.1011 2.2046-1.9263 3.4351-2.4768 1.2305-0.55053 2.5476-0.82641 3.9514-0.82641 3.0493 0 5.6396 1.2024 7.7734 3.6072 2.1326 2.4048 3.1995 5.4883 3.1995 9.2505 0 3.6292-1.1023 6.6638-3.3069 9.1052s-4.8181 3.6621-7.8381 3.6621c-1.3452 0-2.5977-0.25146-3.7573-0.75318-1.1597-0.50292-2.312-1.3245-3.457-2.4646v11.499h-5.8594v-33.281h5.8594z"/><path d="m541.36 137.46c-1.8018 0-3.2971 0.66895-4.4885 2.0044-1.1914 1.3354-1.7859 3.0481-1.7859 5.1379 0 2.1057 0.60548 3.8379 1.8188 5.1953 1.2122 1.3586 2.7051 2.0374 4.4775 2.0374 1.8286 0 3.346-0.66773 4.552-2.0032 1.2048-1.3355 1.8079-3.0859 1.8079-5.2515 0-2.1191-0.60302-3.8367-1.8079-5.1502-1.206-1.3135-2.7307-1.9702-4.574-1.9702zm6.1475-5h5.8594v24.375h-5.8594v-2.5903c-1.1475 1.1401-2.2974 1.9604-3.4509 2.4622-1.1536 0.50171-2.4036 0.75317-3.7512 0.75317-3.0249 0-5.6396-1.2207-7.8467-3.6621-2.207-2.4414-3.3106-5.4761-3.3106-9.1052 0-3.7622 1.0669-6.8457 3.2031-9.2505 2.135-2.4048 4.729-3.6072 7.782-3.6072 1.4038 0 2.7222 0.27588 3.9551 0.82641 1.2329 0.55054 2.3718 1.3757 3.4192 2.4768v-2.6782z"/><path d="m562.4 150.43c0.92652 0 1.7175 0.3418 2.3743 1.023 0.65674 0.68115 0.9851 1.5088 0.9851 2.4817 0 0.97412-0.32836 1.8054-0.9851 2.4939-0.65675 0.68725-1.4478 1.0327-2.3743 1.0327-0.92773 0-1.7188-0.34546-2.3755-1.0327-0.65673-0.68848-0.98388-1.5198-0.98388-2.4939 0-0.9729 0.32715-1.8005 0.98388-2.4817 0.65674-0.68115 1.4478-1.023 2.3755-1.023z"/><path d="m572.06 123.4h5.8594v9.0625h3.4375v5.1562h-3.4375v19.219h-5.8594v-19.219h-2.9688v-5.1562h2.9688v-9.0625z"/><path d="m582.01 132.46h5.9595l5.8374 14.384 5.9045-14.384h5.8923l-10.007 24.375h-3.6951l-9.8914-24.375z"/></g></svg>
