<svg width="800" height="745.39" enable-background="new 0 0 594 774" version="1.1" viewBox="0 0 800 745.39" xml:space="preserve" xmlns="http://www.w3.org/2000/svg">
<polyline transform="matrix(16.195 0 0 16.195 -7998.4 -8016.7)" points="497.63 537.4 497.65 537.83 498.87 532.9 500.74 532.9 501.9 537.4 501.92 537.83 502.95 532.9 505.11 532.9 503.01 540.97 501.05 540.97 499.83 536.66 499.82 536.29 498.64 540.97 496.62 540.97 494.39 532.9 496.49 532.9 497.63 537.4" clip-path="url(#SVGID_9_)" fill="#0081bb"/><path d="m241.29 701.45h-25.135l12.47-45.039 0.29151-2.3321 12.373 47.371m10.333 28.358 5.3282 14.673h34.982l-49.557-130.74h-26.609l-50.464 130.74h34.464l6.883-14.673z" clip-path="url(#SVGID_9_)" fill="#0081bb" stroke-width="16.195"/><polyline transform="matrix(16.195 0 0 16.195 -7998.4 -8016.7)" points="514.22 538.53 515.87 532.9 518.01 532.9 515.47 540.97 513.04 540.97 510.6 532.9 512.64 532.9 514.22 538.53" clip-path="url(#SVGID_9_)" fill="#0081bb"/><polyline transform="matrix(16.195 0 0 16.195 -7998.4 -8016.7)" points="518.42 532.9 520.68 532.9 521.93 535.98 523.29 532.9 525.33 532.9 522.84 538.16 522.84 541.02 520.82 540.97 520.8 538.16 518.42 532.9" clip-path="url(#SVGID_9_)" fill="#0081bb"/><polyline transform="matrix(16.195 0 0 16.195 -7998.4 -8016.7)" points="533.16 540.97 531.16 540.97 531.16 534.85 529.48 534.85 529.47 532.9 534.71 532.9 534.71 534.85 533.16 534.91 533.16 540.97" clip-path="url(#SVGID_9_)" fill="#0081bb"/><polyline transform="matrix(16.195 0 0 16.195 -7998.4 -8016.7)" points="539.04 538.42 540.72 532.9 542.75 532.9 540.23 540.97 537.91 540.97 535.36 532.9 537.51 532.9 539.04 538.42" clip-path="url(#SVGID_9_)" fill="#0081bb"/><path d="m518.01 1.4576c159.52 0.3563 281.46 122.26 281.46 281.93 0 158.75-127.88 281.05-279.72 281.05-171.7 0-283.43-149.3-283.43-282.57 0-156.17 125.55-280.78 281.7-280.4" clip-path="url(#SVGID_11_)" fill="#fff" stroke-width="16.195"/><path d="m800 281.85c-0.76118-160.06-126.19-281.85-281.85-281.85-155.65 0-281.85 126.19-281.85 281.85 0 39.516 10.559 73.332 10.559 73.332s147.7-204.64 294.87-190.39c30.172 2.9151 71.696 16.341 88.248 39.824-62.238 11.482-108.48 62.368-109.59 123.38-1.6195 88.685 74.093 129.97 136.32 125.84 64.23-4.2918 115.93-40.148 133.14-95.892l2.7532-9.6362c0 0.0162 7.5794-30.706 7.4012-66.449" clip-path="url(#SVGID_11_)" fill="#008ec5" stroke-width="16.195"/><path d="m530.05 208.77s-53.671 35.597-53.671 137.64c0 37.055 30.933 94.985 71.567 122.48 89.463 60.57 166.54 16.535 166.54 16.535 0.45346 2.2673-74.32 79.826-194.75 79-125.93-0.87454-204.74-65.413-253.96-160.22 0 0 161.05-213.34 264.27-195.44" clip-path="url(#SVGID_9_)" fill="#0081bb" stroke-width="16.195"/><polyline transform="matrix(16.195 0 0 16.195 -7998.4 -8016.7)" points="506.31 527 495.65 527 495.65 519.44 506.31 519.44 506.31 527" clip-path="url(#SVGID_9_)" fill="#fff"/><path d="m87.892 461.87c-38.545 5.5064-59.388-13.798-59.388-13.798l-0.04858-282.07-28.455 0.22673s31.16-10.268 111.89-71.502c53.218-40.375 89.916-85.689 89.916-85.689l0.12955 399.78c0-0.0162-27.338 40.65-114.05 53.056" clip-path="url(#SVGID_9_)" fill="#008ec5" stroke-width="16.195"/><path d="m28.617 557.36v-57.882s29.686 19.272 79.243 9.1827c79-16.098 93.625-42.205 93.625-42.205v90.904h-172.87" clip-path="url(#SVGID_9_)" fill="#0081bb" stroke-width="16.195"/>
</svg>
