<svg width="800" height="490.15" version="1.1" xmlns="http://www.w3.org/2000/svg">
 <g transform="translate(636.64 -468.25)">
  <g transform="matrix(.8008 0 0 .8008 -412.78 -1416.8)">
   <path d="m17.521 2410.3c-138.61 0-251.13 110.37-251.13 248.98s112.52 251.31 251.13 251.31c138.61-4e-4 250.12-112.79 250.12-251.4s-111.5-248.89-250.12-248.89zm0.2627 101.17c100.65 0 194.87 61.379 233.98 148.46-42.597 92.795-137.12 149.65-235.04 149.65-94.373 0-184.09-49.328-235.2-149 38.259-83.172 129.13-150.41 236.25-149.11z" fill="#ccc"/>
   <path transform="matrix(2.1654 0 0 2.1654 -556.74 2180.2)" d="m326.24 221.52c0 33.903-27.484 61.386-61.386 61.386-33.903 0-61.386-27.484-61.386-61.386 0-33.903 27.484-61.386 61.386-61.386 33.903 0 61.386 27.484 61.386 61.386z" fill="#ccc"/>
   <path d="m-279.55 2354v612.07h999v-612.07h-994.72zm8.5604 8.5604h981.88v594.95h-981.88z" color="#000000" fill="#ccc" style="text-decoration-line:none;text-indent:0;text-transform:none"/>
   <path d="m274.31 2595.4c0-130 93.778-185.2 199.77-185.2 120.48 0 190.58 62.809 190.58 156.58 0 60.592-26.164 91.781-75.76 125.52-41.085 26.051-96.386 56.63-139.97 91.389h214.01v116.42h-397.2s-0.69023-6.619-0.69023-11.977c0-66.273 40.525-115.56 84.452-153.28 39.339-32.914 83.4-59.982 121.23-85.622 27.714-19.153 55.146-37.934 55.146-71.296 0-41.586-25.17-60.004-58.428-60.004-45.983 0-66.454 28.715-66.454 94.547h-125.97s-0.72216-6.7516-0.72216-17.08z" fill="#ffd42a"/>
  </g>
 </g>
</svg>
