<svg width="800" height="667.24" version="1.1" viewBox="0 0 211.67 176.54" xmlns="http://www.w3.org/2000/svg">
 <g transform="translate(462.64 43.759)">
  <g transform="matrix(.26458 0 0 .26458 -462.64 -43.759)" fill="#fff">
   <path d="m205.17-1.4485e-4c-113.72 0-204.23 92.93-204.23 205.99 0 114.49 90.511 207.31 204.23 207.31 114.38 0 203.68-92.82 203.68-207.2 0-113.17-89.301-206.1-203.68-206.1zm0 87.431c92.93 0 161.01 59.057 189.71 118.66-28.704 60.487-96.779 119.76-189.71 119.76-93.48 0-161.01-59.277-189.71-119.76 28.704-59.607 96.23-118.55 189.71-118.55zm0 9.458c-60.487 0-109.87 48.94-109.87 109.1 0 61.147 49.379 109.87 109.87 109.87s109.21-48.72 109.21-109.76c0-60.267-48.72-109.21-109.21-109.21z"/>
   <g stroke-width="2.7778">
    <path d="m442.58 519.38c0-11.781-7.225-17.369-24.697-17.369h-51.019v35.519h56.242c8.4278 0 19.475-1.9944 19.475-18.15z"/>
    <path d="m273.39 440.52v226.73h255.05v-226.73zm157.14 181.62h-93.792v-142.48h94.792c32.736 0 41.172 17.358 41.172 35.519 0 20.356-11.844 26.142-19.469 29.728 11.033 3.3889 26.106 11.372 26.106 35.319-3e-3 15.969-10.056 41.908-48.808 41.908z"/>
    <path d="m425.31 558.67h-58.447v41.106h54.025c13.461 0 27.111-2.5944 27.111-20.942 0-13.178-9.2333-20.164-22.689-20.164z"/>
    <path d="m8e-7 440.52v226.73h255.04v-226.73zm195.55 181.62h-32.531l-35.747-109.35h-0.39723l-35.95 109.35h-32.531l-47.6-142.48h32.536l32.325 110.54h0.40556l35.744-110.54h31.325l35.944 110.54h0.41112l32.933-110.54h31.331z"/>
    <path d="m544.95 440.52v226.73h255.05v-226.73zm205.99 182.19h-141.57v-22.608l101.38-98.694h-96.392v-21.333h132.65v19.669l-102.7 99.814h106.64v23.153z"/>
   </g>
  </g>
  <path d="m-268.58 23.17v-66.827h-29.3l-51.916 65.282v20.05h55v21.076h26.732v-21.075h16.448v-18.505zm-25.701-1.0289h-26.216l26.216-34.954z" fill="#ffb317" stroke-width=".73495"/>
 </g>
</svg>
