<svg width="800" height="450.4" version="1.1" xmlns="http://www.w3.org/2000/svg">
 <g transform="translate(-228.62 228.15)">
  <g transform="matrix(5.3997 0 0 5.3997 -1005.9 -977.84)">
   <path d="m332.07 170.12h-20.87c-0.35096-9.6569 2.8312-17.384 8.7571-23.575 5.9259-6.1915 13.892-7.7087 24.689-7.7088 8.779 8e-5 16.746 1.4688 22.718 5.9846 6.3197 4.8297 8.8876 11.889 8.8877 19.599-7e-5 7.2422-0.94611 14.815-6.3898 19.956-2.7219 2.5694-10.269 6.1083-20.471 10.42-9.1042 3.3815-15.91 5.3994-19.157 9.4494h46.544v18.003h-67.684c0.0884-8.4899 1.6917-19.33 6.1916-25.991 3.49-4.7489 7.0796-10.037 17.977-15.309 7.6503-3.7806 22.182-6.8476 22.317-15.244 0.30407-2.0238-0.5684-4.282-2.3074-6.0127-2.5906-2.2983-4.9286-2.5353-8.9658-2.5353-5.0901 7e-5 -7.7145 1.1521-9.6702 3.702-1.4164 2.2002-2.5666 4.2004-2.5666 9.2629z" fill="#dbb000"/>
   <path d="m268.72 142.35c-22.337 0-40.098 17.949-40.098 39.812 0 22.103 17.762 40.056 40.098 40.056 22.455 0 39.978-17.95 39.978-40.049 4e-3 -21.863-17.523-39.819-39.978-39.819zm0 16.899c18.238 0 31.599 11.399 37.245 22.92-5.646 11.697-19.007 23.15-37.245 23.15-18.356 0-31.61-11.457-37.252-23.15 5.6422-11.517 18.9-22.913 37.252-22.913v-7e-3zm0 1.8118c-11.881 0-21.568 9.4641-21.568 21.101 0 11.813 9.6868 21.226 21.568 21.226 11.881 0 21.441-9.4142 21.441-21.22 0-11.637-9.5593-21.108-21.441-21.108z" fill="#9caabd"/>
  </g>
 </g>
</svg>
