<svg width="800" height="181.29" space="preserve" version="1.1" viewBox="0 0 800 181.29" xmlns="http://www.w3.org/2000/svg" xmlns:xlink="http://www.w3.org/1999/xlink">
 <link href="" rel="stylesheet" type="text/css"/>
 <style type="text/css"/>
 <style type="text/css">.st0{fill:none;}
	.st1{fill:#F7BC60;}
	.st2{fill:#FFFFFF;}
	.st3{fill:url(#SVGID_1_);}
	.st4{fill:url(#path3011_1_);}
	.st5{fill:url(#path3151_1_);}
	.st6{fill:url(#path3016_1_);}
	.st7{fill:#010101;}
	.st8{fill:url(#path3015-9_1_);}
	.st9{display:none;}
	.st10{display:inline;}</style>
 <g transform="matrix(1.2375 0 0 1.2375 -20.506 -12.796)" fill="#fff">
  <path d="m38.98 147.31-22.41-126.98h29.88l11.03 90.34h0.36l13.16-90.34h27.74l14.23 90.34h0.35l10.67-90.34h28.81l-22.05 126.98h-33.09l-12.98-90.16h-0.36l-12.27 90.16z"/>
  <path d="m245.09 64.44h-28.81c0-9.72-0.77-16.48-2.31-20.28-1.78-4.27-5.04-6.4-9.78-6.4-5.69 0-9.37 3.26-11.03 9.78-1.31 5.46-1.96 17.07-1.96 34.86 0 19.68 0.71 32.31 2.13 37.88 1.66 6.4 5.51 9.6 11.56 9.6 5.1 0 8.54-2.9 10.32-8.71 1.3-4.38 2.02-12.27 2.14-23.65h28.81v4.44c0 15.41-2.79 26.8-8.36 34.14-7 9.13-19.09 13.7-36.28 13.7-17.43 0-29.11-6.34-35.04-19.03-4.15-9.13-6.23-25.07-6.23-47.83 0-21.11 2.07-36.04 6.23-44.82 6.4-13.51 19.03-20.28 37.88-20.28 13.52 0 23.59 3.14 30.23 9.42 6.99 6.64 10.49 17.26 10.49 31.84v5.34z"/>
  <path d="m277.63 147.31-27.92-126.98h32.01l15.12 98.17h0.36l15.3-98.17h32.01l-28.81 126.98z"/>
  <path d="m354.1 147.31v-126.98h46.42c11.14 0 19.86 2.55 26.14 7.65 6.64 5.45 9.96 13.33 9.96 23.65 0 7.47-1.81 13.81-5.42 19.03-3.62 5.22-8.45 8.42-14.5 9.6v0.36c15.65 2.37 23.47 12.87 23.47 31.48 0 23.47-13.99 35.21-41.97 35.21zm29.88-104.92v28.63h8.18c9.72 0 14.58-4.98 14.58-14.94 0-9.13-4.8-13.7-14.41-13.7h-8.35zm0 48.54v34.32h9.07c10.79 0 16.18-5.51 16.18-16.53 0-11.86-5.22-17.79-15.65-17.79z"/>
 </g>
 <g transform="matrix(1.2375 0 0 1.2375 -20.506 -12.796)">
  <linearGradient id="SVGID_1_" x1="523.33" x2="523.33" y1="156.83" y2="10.341" gradientUnits="userSpaceOnUse">
   <stop stop-color="#C42127" offset="0"/>
   <stop stop-color="#CD2026" offset=".1171"/>
   <stop stop-color="#DC1E25" offset=".3746"/>
   <stop stop-color="#E81D25" offset=".6553"/>
   <stop stop-color="#ED1C24" offset="1"/>
  </linearGradient>
  <rect class="st3" x="460.99" y="10.34" width="124.67" height="146.49" fill="url(#SVGID_1_)"/>
  <g fill="#fff">
   <path class="st2" d="m466.51 87.9c-0.56-2.01-0.88 27.01 15.16 43.76 12.66 13.24 29.57 16.11 40.39 16.11 14.91 0 29.34-4.08 41.36-15.87 11.2-10.97 15.25-23.31 14.92-37.99-0.25-10.58-6.26-27.66-19.24-39.68h-24.29c-1.75 0 23.57 17.8 24.05 38.48 0.33 14.18-5.95 22.19-11.31 26.45-5.13 4.09-12 9.13-25.24 9.37-12.74 0.25-23.32-6.96-27.9-12.73-4.57-5.78-8.42-12.99-8.42-27.89h-19.48z"/>
   <path class="st2" d="m505.87 88.05h16.11l-0.04-21.56s8.36 8.34 12.27 13.11c2.16 2.64 6.25 7.82 6.01 14.55-0.18 5.05-2.66 8.86-5.41 11.18-3.12 2.65-7.55 4.64-12.86 4.46-6.74-0.25-11.23-3.4-13.22-6.26-3.83-5.46-2.86-15.48-2.86-15.48z"/>
   <polygon class="st2" points="505.46 88.06 485.99 88.04 485.99 16.96 568.47 16.96 568.47 37.4 505.46 37.4"/>
  </g>
  <defs>
   <path id="SVGID_2_" d="m617.09 66.27c4.27-0.05 8.08 0.33 11.48 1.2 15.16 3.87 25.73 13.55 31.27 27.04 1.04 2.52 1.78 5.27 2.43 8.22 0.18 1.25 0.36 2.49 0.54 3.74 0.21 1.22 0 2.46 0.2 3.77 0.16 1.04 0.07 2.78-0.09 3.77-0.25 1.51-0.18 2.92-0.46 4.31-0.72 3.59-1.52 6.87-2.8 9.88-5.33 12.57-14.99 21.61-28.64 25.87-2.47 0.77-5.09 1.1-7.91 1.6-1.29 0.09-2.59 0.17-3.88 0.26-0.71-0.01-1.43-0.02-2.14-0.03-0.49-0.01-0.97-0.02-1.46-0.03-0.88-0.09-1.77-0.17-2.66-0.26-1.52-0.27-2.94-0.33-4.34-0.69-3.36-0.84-6.37-1.85-9.22-3.11-7.85-3.47-14.52-9.41-18.9-16.36-1.06-1.68-2.16-3.42-3-5.31-0.96-2.18-1.76-4.38-2.51-6.82-0.71-2.35-1.02-4.89-1.48-7.59-0.21-1.22 0-2.46-0.2-3.77-0.16-1.04-0.08-2.78 0.09-3.77 0.2-1.24 0.11-2.4 0.34-3.57 0.61-3.05 1.1-5.92 2.11-8.54 5.22-13.43 13.98-22.07 27.41-27.3 2.74-1.07 5.77-1.54 8.99-2.14 1.12-0.1 2.25-0.21 3.37-0.31 0.49-0.03 0.98-0.04 1.46-0.06z"/>
  </defs>
  <clipPath>
   <use width="100%" height="100%" xlink:href="#SVGID_2_"/>
  </clipPath>
 </g>
 <g transform="matrix(1.2375 0 0 1.2375 -20.506 -12.796)">
  <radialGradient id="path3011_1_" cx="567.92" cy="-10.752" r="44.592" gradientTransform="matrix(.7334 2.0204 -1.4328 .5201 208.01 -1001.9)" gradientUnits="userSpaceOnUse">
   <stop stop-color="#2D2D2D" offset="0"/>
   <stop offset="1"/>
  </radialGradient>
  <path class="st4" d="m662.51 111.04c0 24.58-19.96 44.51-44.59 44.51s-44.59-19.93-44.59-44.51 19.96-44.51 44.59-44.51c24.63 0.01 44.59 19.93 44.59 44.51z" fill="url(#path3011_1_)"/>
  <linearGradient id="path3151_1_" x1="618.41" x2="618.41" y1="186.79" y2="246.66" gradientTransform="translate(0 -94.385)" gradientUnits="userSpaceOnUse">
   <stop offset="0"/>
   <stop stop-opacity="0" offset="1"/>
  </linearGradient>
  <path class="st5" d="m663.01 111.13c0 24.58-19.96 44.51-44.59 44.51s-44.59-19.93-44.59-44.51 19.96-44.51 44.59-44.51 44.59 19.93 44.59 44.51z" fill="url(#path3151_1_)"/>
  <linearGradient id="path3016_1_" x1="593.99" x2="620.95" y1="167.86" y2="197.67" gradientTransform="translate(0 -94.385)" gradientUnits="userSpaceOnUse">
   <stop stop-color="#989898" offset="0"/>
   <stop stop-color="#989898" stop-opacity="0" offset="1"/>
  </linearGradient>
  <path class="st6" d="m574.29 102.11c1.55-5.69 2.91-11.57 10.74-21.04 4.47-4.14 8.34-8.25 17.86-11.84 11.31-3.68 23.03-3.7 34.85 2.19-0.43 15.67-4.89 23.48-10.85 28.38-11.93 9.1-22.32 11.81-32.22 12.49-9.21 0.49-15.44-5.87-20.38-10.18z" fill="url(#path3016_1_)"/>
  <path class="st7" d="m618 66.62c-24.63 0-44.59 19.92-44.59 44.5s19.96 44.51 44.59 44.51 44.59-19.93 44.59-44.51-19.96-44.5-44.59-44.5zm-0.09 0.86c24.1 0 43.65 19.51 43.65 43.57s-19.54 43.56-43.65 43.56c-24.1 0-43.64-19.5-43.64-43.56s19.54-43.57 43.64-43.57z" fill="#010101"/>
  <linearGradient id="path3015-9_1_" x1="618.83" x2="657.19" y1="205.43" y2="205.43" gradientTransform="translate(0 -94.385)" gradientUnits="userSpaceOnUse">
   <stop stop-color="#010101" offset="0"/>
   <stop stop-color="#010101" stop-opacity="0" offset="1"/>
  </linearGradient>
  <path class="st8" d="m589.36 97.4c-7.43 0-13.4 6.09-13.4 13.64s5.96 13.64 13.4 13.64c4.56 0 6.35-3.28 6.35-3.28v2.98h7.05v-13.34c-0.01-7.55-5.97-13.64-13.4-13.64zm0 7.14c3.54 0 6.38 2.91 6.38 6.51s-2.84 6.51-6.38 6.51-6.38-2.91-6.38-6.51c-0.01-3.61 2.83-6.51 6.38-6.51z" fill="url(#path3015-9_1_)"/>
  <path class="st2" d="m588.72 97.16c-7.74 0-13.96 6.24-13.96 13.97s6.21 13.97 13.96 13.97c4.76 0 6.61-3.36 6.61-3.36v3.05h7.34v-13.67c0-7.72-6.21-13.96-13.95-13.96zm0 7.3c3.69 0 6.65 2.98 6.65 6.67s-2.96 6.67-6.65 6.67-6.65-2.98-6.65-6.67 2.96-6.67 6.65-6.67z" fill="#fff"/>
  <path class="st2" d="m604.45 87.53v23.6c0 7.73 6.22 13.98 13.96 13.98s13.95-6.24 13.95-13.98-6.2-13.98-13.95-13.98c-4.75 0-6.62 3.37-6.62 3.37v-12.98zm13.96 16.93c3.69 0 6.65 2.98 6.65 6.67s-2.96 6.67-6.65 6.67-6.65-2.98-6.65-6.67 2.96-6.67 6.65-6.67z" fill="#fff"/>
  <path class="st2" d="m647.51 97.16c-7.74 0-13.96 6.24-13.96 13.97s6.21 13.97 13.96 13.97c6.68 0 12.23-4.65 13.62-10.89h-7.72c-1.11 2.13-3.33 3.59-5.9 3.59-3.69 0-6.65-2.98-6.65-6.67s2.96-6.67 6.65-6.67c2.58 0 4.81 1.46 5.92 3.6h7.7c-1.38-6.25-6.93-10.9-13.62-10.9z" fill="#fff"/>
 </g>
 <g class="st9" transform="translate(-16.57 24.458)" display="none">
  <g class="st10" display="inline">
   <path d="m39.67 171.95h9.5c1.41 0 2.61 0.19 3.61 0.58 1 0.38 1.82 0.9 2.45 1.55 0.63 0.64 1.1 1.39 1.38 2.24s0.43 1.74 0.43 2.69c0 0.81-0.13 1.57-0.39 2.29-0.26 0.71-0.61 1.36-1.05 1.95s-0.98 1.08-1.61 1.48-1.34 0.68-2.11 0.82c0.74 0.11 1.52 0.32 2.32 0.6 0.8 0.29 1.53 0.71 2.19 1.27s1.2 1.29 1.64 2.17c0.43 0.89 0.64 2 0.64 3.31 0 1.55-0.28 2.81-0.86 3.81-0.57 0.99-1.35 1.78-2.34 2.37s-2.14 1-3.45 1.22c-1.3 0.23-2.69 0.34-4.14 0.34h-8.21zm8.34 12.78c0.77 0 1.57-0.1 2.39-0.3s1.56-0.53 2.21-0.99c0.66-0.46 1.21-1.04 1.64-1.75 0.43-0.7 0.64-1.55 0.64-2.56 0-1.15-0.21-2.07-0.63-2.75-0.41-0.69-0.95-1.22-1.61-1.59-0.65-0.38-1.4-0.62-2.21-0.73-0.82-0.12-1.63-0.17-2.43-0.17h-6.28v10.84zm-0.65 13.98c1.09 0 2.18-0.05 3.27-0.15s2.07-0.34 2.95-0.73 1.58-0.97 2.13-1.74 0.82-1.83 0.82-3.18c0-1.29-0.27-2.35-0.8-3.16-0.53-0.82-1.2-1.45-2.02-1.89-0.81-0.45-1.72-0.75-2.73-0.93-1-0.17-1.98-0.25-2.92-0.25h-6.32v12.04h5.62z"/>
   <path d="m79.33 201.33c-2.06 0-3.96-0.39-5.7-1.16s-3.23-1.83-4.5-3.18c-1.26-1.35-2.25-2.93-2.96-4.75-0.73-1.82-1.08-3.79-1.08-5.91 0-2.09 0.36-4.06 1.08-5.89 0.71-1.84 1.7-3.44 2.96-4.8 1.27-1.36 2.76-2.43 4.5-3.21 1.73-0.77 3.63-1.16 5.7-1.16s3.97 0.39 5.7 1.16c1.74 0.77 3.23 1.84 4.5 3.21 1.26 1.36 2.25 2.96 2.97 4.8s1.08 3.8 1.08 5.89c0 2.12-0.36 4.09-1.08 5.91s-1.71 3.4-2.97 4.75c-1.27 1.35-2.76 2.41-4.5 3.18-1.74 0.78-3.64 1.16-5.7 1.16zm0-1.93c1.81 0 3.46-0.34 4.95-1.01s2.75-1.6 3.81-2.8c1.04-1.19 1.85-2.58 2.43-4.17s0.86-3.29 0.86-5.1-0.29-3.51-0.86-5.12c-0.58-1.61-1.39-2.99-2.43-4.17-1.06-1.17-2.32-2.11-3.81-2.79-1.49-0.69-3.14-1.03-4.95-1.03s-3.46 0.35-4.94 1.03c-1.5 0.69-2.76 1.62-3.82 2.79-1.04 1.18-1.85 2.57-2.42 4.17-0.58 1.61-0.87 3.31-0.87 5.12s0.29 3.5 0.87 5.1c0.57 1.59 1.38 2.98 2.42 4.17 1.05 1.19 2.32 2.12 3.82 2.8 1.48 0.67 3.13 1.01 4.94 1.01z"/>
   <path d="m100.96 195.4c0.98 1.17 2.14 2.14 3.51 2.88 1.35 0.75 3.01 1.12 4.96 1.12 1.12 0 2.14-0.13 3.08-0.39 0.93-0.26 1.73-0.64 2.41-1.14 0.67-0.5 1.2-1.13 1.56-1.89 0.37-0.76 0.56-1.64 0.56-2.65 0-1.06-0.21-1.96-0.62-2.71-0.42-0.75-0.97-1.37-1.66-1.87-0.68-0.5-1.47-0.91-2.34-1.22-0.88-0.32-1.76-0.61-2.64-0.86-1.1-0.29-2.18-0.61-3.27-0.97s-2.07-0.83-2.92-1.42c-0.87-0.59-1.56-1.33-2.09-2.24-0.53-0.9-0.8-2.07-0.8-3.5 0-0.98 0.21-1.91 0.6-2.8 0.41-0.89 0.98-1.66 1.74-2.32 0.75-0.66 1.69-1.18 2.79-1.57 1.11-0.38 2.36-0.58 3.77-0.58 1.2 0 2.26 0.13 3.2 0.39 0.93 0.26 1.75 0.58 2.45 0.97s1.29 0.81 1.77 1.27c0.47 0.46 0.86 0.9 1.18 1.33l-1.47 1.25c-0.26-0.34-0.58-0.71-0.99-1.1-0.4-0.39-0.89-0.74-1.46-1.08-0.58-0.33-1.25-0.6-2.04-0.82-0.79-0.21-1.7-0.32-2.74-0.32-1.17 0-2.18 0.16-3.02 0.47-0.85 0.31-1.55 0.73-2.09 1.25s-0.94 1.1-1.2 1.74-0.39 1.31-0.39 2c0 1.03 0.24 1.89 0.71 2.56 0.48 0.68 1.1 1.24 1.87 1.68s1.64 0.81 2.6 1.1c0.97 0.28 1.94 0.56 2.9 0.81 1.01 0.26 2.01 0.58 3.02 0.97 1 0.39 1.89 0.9 2.68 1.55 0.79 0.64 1.43 1.45 1.94 2.43s0.75 2.18 0.75 3.61c0 1.23-0.26 2.34-0.77 3.33s-1.21 1.83-2.09 2.52-1.91 1.22-3.12 1.59c-1.2 0.37-2.5 0.56-3.87 0.56-1.21 0-2.32-0.13-3.35-0.39s-1.97-0.6-2.82-1.01c-0.84-0.42-1.59-0.89-2.23-1.42s-1.17-1.08-1.57-1.66z"/>
   <path d="m134.34 173.8h-11.14v-1.85h24.35v1.85h-11.14v26.84h-2.06v-26.84z"/>
   <path d="m163.98 201.33c-2.06 0-3.97-0.39-5.7-1.16s-3.23-1.83-4.49-3.18c-1.27-1.35-2.25-2.93-2.97-4.75s-1.08-3.79-1.08-5.91c0-2.09 0.36-4.06 1.08-5.89 0.72-1.84 1.7-3.44 2.97-4.8 1.26-1.36 2.76-2.43 4.49-3.21 1.73-0.77 3.64-1.16 5.7-1.16 2.07 0 3.96 0.39 5.7 1.16s3.23 1.84 4.5 3.21c1.25 1.36 2.25 2.96 2.96 4.8 0.72 1.84 1.08 3.8 1.08 5.89 0 2.12-0.36 4.09-1.08 5.91-0.71 1.82-1.71 3.4-2.96 4.75-1.27 1.35-2.76 2.41-4.5 3.18-1.74 0.78-3.63 1.16-5.7 1.16zm0-1.93c1.81 0 3.46-0.34 4.94-1.01 1.5-0.67 2.76-1.6 3.81-2.8 1.05-1.19 1.86-2.58 2.43-4.17 0.58-1.59 0.86-3.29 0.86-5.1s-0.28-3.51-0.86-5.12c-0.57-1.61-1.38-2.99-2.43-4.17-1.05-1.17-2.31-2.11-3.81-2.79-1.49-0.69-3.13-1.03-4.94-1.03s-3.46 0.35-4.95 1.03c-1.49 0.69-2.76 1.62-3.81 2.79-1.05 1.18-1.85 2.57-2.43 4.17-0.58 1.61-0.86 3.31-0.86 5.12s0.28 3.5 0.86 5.1c0.58 1.59 1.38 2.98 2.43 4.17s2.32 2.12 3.81 2.8c1.49 0.67 3.14 1.01 4.95 1.01z"/>
   <path d="m186.05 171.95h2.15l18.41 25.59v-25.59h2.02v28.69h-2.15l-18.41-25.25v25.25h-2.02z"/>
   <path d="m217.97 171.95h2.15l-1.25 7.66h-1.67z"/>
   <path d="m227.6 195.4c0.98 1.17 2.14 2.14 3.51 2.88 1.35 0.75 3.01 1.12 4.96 1.12 1.12 0 2.14-0.13 3.08-0.39 0.93-0.26 1.73-0.64 2.41-1.14 0.67-0.5 1.2-1.13 1.57-1.89s0.56-1.64 0.56-2.65c0-1.06-0.21-1.96-0.62-2.71-0.42-0.75-0.97-1.37-1.66-1.87-0.68-0.5-1.47-0.91-2.34-1.22-0.88-0.32-1.76-0.61-2.64-0.86-1.1-0.29-2.18-0.61-3.27-0.97s-2.07-0.83-2.92-1.42c-0.87-0.59-1.56-1.33-2.09-2.24-0.53-0.9-0.8-2.07-0.8-3.5 0-0.98 0.21-1.91 0.61-2.8 0.41-0.89 0.98-1.66 1.75-2.32 0.75-0.66 1.69-1.18 2.79-1.57 1.11-0.38 2.36-0.58 3.77-0.58 1.2 0 2.26 0.13 3.21 0.39 0.92 0.26 1.74 0.58 2.45 0.97 0.7 0.39 1.29 0.81 1.77 1.27 0.47 0.46 0.86 0.9 1.18 1.33l-1.47 1.25c-0.26-0.34-0.58-0.71-0.99-1.1-0.4-0.39-0.89-0.74-1.46-1.08-0.58-0.33-1.25-0.6-2.04-0.82-0.79-0.21-1.7-0.32-2.73-0.32-1.17 0-2.19 0.16-3.02 0.47-0.86 0.31-1.55 0.73-2.09 1.25s-0.94 1.1-1.2 1.74-0.39 1.31-0.39 2c0 1.03 0.24 1.89 0.71 2.56 0.48 0.68 1.1 1.24 1.87 1.68 0.78 0.44 1.65 0.81 2.6 1.1 0.97 0.28 1.94 0.56 2.91 0.81 1.01 0.26 2.01 0.58 3.02 0.97 1 0.39 1.89 0.9 2.68 1.55 0.79 0.64 1.43 1.45 1.94 2.43 0.5 0.98 0.75 2.18 0.75 3.61 0 1.23-0.26 2.34-0.77 3.33s-1.21 1.83-2.09 2.52-1.91 1.22-3.12 1.59c-1.2 0.37-2.5 0.56-3.87 0.56-1.2 0-2.32-0.13-3.35-0.39s-1.97-0.6-2.82-1.01c-0.84-0.42-1.6-0.89-2.24-1.42s-1.17-1.08-1.57-1.66z"/>
   <path d="m271.65 171.95h6.92l11.01 16v-16h7.53v28.69h-6.49l-11.44-16.48v16.48h-7.53z"/>
   <path d="m303.99 171.95h20.65v6.58h-13.03v4.43h10.71v6.2h-10.71v4.9h13.94v6.58h-21.56z"/>
   <path d="m329.08 171.95h8.04l3.7 19.23 4.51-18.54h6.94l4.56 18.54 3.66-19.23h7.78l-7.14 28.69h-7.96l-4.51-18.15-4.51 18.15h-8.09z"/>
   <path d="m375.23 191.57c0.8 0.81 1.85 1.54 3.13 2.2 1.3 0.66 2.72 0.99 4.27 0.99 0.37 0 0.76-0.04 1.16-0.11s0.76-0.19 1.08-0.36 0.58-0.4 0.78-0.69c0.2-0.28 0.3-0.66 0.3-1.12 0-0.74-0.38-1.36-1.14-1.85-0.76-0.48-1.87-0.97-3.33-1.46l-1.6-0.52c-0.88-0.29-1.78-0.66-2.69-1.12-0.9-0.46-1.71-1.01-2.43-1.66-0.72-0.64-1.3-1.4-1.75-2.28-0.44-0.88-0.66-1.9-0.66-3.08 0-1.32 0.24-2.55 0.73-3.68 0.48-1.13 1.2-2.12 2.12-2.97 0.94-0.84 2.09-1.5 3.47-1.98 1.37-0.47 2.97-0.71 4.78-0.71 1.4 0 2.68 0.13 3.83 0.39 1.14 0.26 2.15 0.57 3 0.95 0.86 0.37 1.6 0.77 2.19 1.2 0.61 0.43 1.07 0.81 1.38 1.16l-3.88 4.9c-1-0.75-2.05-1.36-3.14-1.83s-2.21-0.71-3.35-0.71c-0.37 0-0.75 0.04-1.12 0.13s-0.71 0.21-1.01 0.39c-0.3 0.17-0.54 0.39-0.73 0.66-0.18 0.28-0.29 0.61-0.29 1.01 0 0.43 0.12 0.8 0.33 1.12s0.51 0.59 0.88 0.82 0.83 0.44 1.35 0.62c0.53 0.18 1.1 0.38 1.69 0.58l1.38 0.43c0.98 0.32 1.96 0.68 2.97 1.09 1 0.42 1.9 0.98 2.71 1.68 0.8 0.71 1.46 1.58 1.98 2.63 0.51 1.05 0.77 2.33 0.77 3.85 0 1.32-0.31 2.54-0.93 3.65-0.61 1.12-1.44 2.08-2.49 2.88-1.05 0.81-2.28 1.43-3.7 1.87s-2.93 0.67-4.54 0.67c-2.87 0-5.27-0.38-7.21-1.14s-3.58-1.78-4.93-3.08z"/>
   <path d="m417.3 171.95h7.62v21.98h13.29v6.71h-20.9v-28.69z"/>
   <path d="m443.37 171.95h20.65v6.58h-13.04v4.43h10.71v6.2h-10.71v4.9h13.94v6.58h-21.55z"/>
   <path d="m478.99 171.95h8.73l10.16 28.69h-8.22l-1.85-5.93h-9.59l-1.89 5.93h-7.87zm7.26 17.21-3.18-10.54-3.32 10.54z"/>
   <path d="m502.6 171.95h11.01c2.21 0 4.25 0.29 6.13 0.86 1.88 0.58 3.5 1.45 4.88 2.63s2.45 2.68 3.23 4.52c0.77 1.84 1.16 4 1.16 6.5 0 2.38-0.4 4.45-1.18 6.21-0.79 1.76-1.87 3.24-3.25 4.43s-3.01 2.08-4.91 2.67c-1.89 0.59-3.93 0.88-6.11 0.88h-10.96zm10.71 21.98c2.5 0 4.42-0.71 5.79-2.13 1.35-1.42 2.04-3.26 2.04-5.53 0-1.14-0.16-2.19-0.47-3.12s-0.8-1.73-1.44-2.41c-0.65-0.68-1.46-1.2-2.43-1.57-0.98-0.37-2.14-0.56-3.48-0.56h-3.1v15.32z"/>
   <path d="m534.78 171.95h20.65v6.58h-13.04v4.43h10.71v6.2h-10.71v4.9h13.94v6.58h-21.54v-28.69z"/>
   <path d="m562.01 171.95h11.87c1.54 0 2.95 0.2 4.19 0.6 1.25 0.4 2.31 1 3.21 1.78 0.89 0.79 1.58 1.77 2.06 2.95 0.49 1.17 0.73 2.54 0.73 4.09 0 1.89-0.42 3.54-1.25 4.92-0.83 1.39-1.94 2.5-3.32 3.34l6.15 11.01h-8.17l-4.85-9.76h-3.19v9.76h-7.44v-28.69zm11.13 12.95c1.01 0 1.82-0.31 2.45-0.93 0.63-0.61 0.96-1.44 0.96-2.48 0-1.09-0.3-1.95-0.91-2.58-0.6-0.63-1.44-0.95-2.53-0.95h-3.66v6.93h3.69z"/>
  </g>
 </g>
</svg>
