<svg width="353.95" height="268.24" version="1.1" viewBox="0 0 331.83 251.48" xmlns="http://www.w3.org/2000/svg">
 <path d="m20.428 205.1c-3.2092 0-5.793 2.5838-5.793 5.793v34.793c0 3.2092 2.5838 5.793 5.793 5.793h305.61c3.2092 0 5.793-2.5838 5.793-5.793v-34.793c0-3.2092-2.5838-5.793-5.793-5.793z" fill="#67b2e8"/>
 <path d="m290.93 210.63c-1.0888 0-1.9668 0.87603-1.9668 1.9648v5.8125h-5.9512c-0.45089 0-0.81445 0.36162-0.81445 0.8125v4.8848c0 0.45089 0.36356 0.8125 0.81445 0.8125h5.9512v19.842c0 1.0888 0.87799 1.9648 1.9668 1.9648h3.9551c1.0888 0 1.9648-0.87603 1.9648-1.9648v-19.842h5.3887l6.2715 19.785c0.2953 0.93172 0.83442 1.7539 1.8711 1.7539h2.3926c0.11713 0 0.23432-0.0137 0.34961-0.0332 0.11466 0.0193 0.23116 0.0332 0.34765 0.0332h2.3906c1.0367 0 1.5777-0.82218 1.873-1.7539l7.7871-24.574c0.29531-0.93173-0.83442-1.7539-1.8711-1.7539h-5.0586c-1.0367 0-1.6743 0.80014-1.873 1.7539l-3.5977 17.264-3.5976-17.264c-0.0236-0.11304-0.0736-0.21267-0.10938-0.32032v-0.58789c0-0.45088-0.36356-0.8125-0.81445-0.8125h-0.61524c-0.10586-0.0191-0.21608-0.0332-0.33203-0.0332h-5.0586c-0.11598 0-0.23342 0.0136-0.34961 0.0332h-5.3945v-5.8125c0-1.0888-0.87603-1.9648-1.9648-1.9648z" fill="#322e5e"/>
 <path d="m237.02 0c-2.0722 0-3.7402 1.6681-3.7402 3.7402v186.85c0 2.0722 1.6681 3.7402 3.7402 3.7402h90.66c2.0722 0 3.7402-1.6681 3.7402-3.7402v-38.191c0-2.0722-1.6681-3.7402-3.7402-3.7402h-37.256v-29.887h31.146c2.9334 0 5.2949-2.3615 5.2949-5.2949v-33.84c0-2.9334-2.3615-5.2949-5.2949-5.2949h-31.146v-28.67h37.256c2.0722 0 3.7402-1.6681 3.7402-3.7402v-38.191c0-2.0722-1.6681-3.7402-3.7402-3.7402z" fill="#67b2e8"/>
 <path d="m5.4197 0c-2.9603 0-5.936 2.4414-5.3437 5.3418l37.5 183.65c0.59226 2.9004 2.3835 5.3418 5.3438 5.3418h44.617c2.9603 0 4.8402-2.4247 5.3438-5.3418l18.807-108.95 20.289 108.95c0.54196 2.9102 2.3835 5.3418 5.3438 5.3418h49.018c2.9602 0 4.8402-2.4247 5.3438-5.3418l31.699-183.65c0.50354-2.9171-2.3835-5.3418-5.3438-5.3418h-42.256c-2.9602 0-4.968 2.4055-5.3438 5.3418l-15.329 116.65-17.889-116.65c-0.44874-2.926-2.3835-5.3418-5.3438-5.3418h-37.695c-2.9603 0-4.556 2.4883-5.3438 5.3418l-19.468 115.74-15.549-115.74c-0.39415-2.9339-2.3835-5.3418-5.3438-5.3418z" fill="#67b2e8"/>
</svg>
