<svg width="800" height="337.69" version="1.1" viewBox="0 0 800 337.69" xml:space="preserve" xmlns="http://www.w3.org/2000/svg"><g transform="matrix(1.3333 0 0 -1.3333 -122.77 1730)"><path d="m527.41 1169.8c-0.26368-0.9424-0.60548-1.6163-0.6006-2.378 0.0293-1.6308 0.83987-2.1582 3.2081-2.1924h21.47c2.3584 0 2.9737 0.7861 2.9737 2.1924 0 0.7862-0.46877 1.5674-0.61525 2.3584l-10.825 32.335c-0.78616 2.5099-1.0987 3.6085-2.0411 3.6085-0.78614 0-1.2598-0.9423-1.875-2.5146zm-36.475-46.9 4.3897 1.7236c7.2218 3.2961 8.4816 10.2 13.032 21.495l22.598 61.52c2.2608 6.2453 4.7999 13.301 5.8986 16.128l0.93752 0.7812h13.54l1.0938-0.7812c0.78615-2.5148 2.9883-8.638 5.1808-14.751l22.281-63.053c4.8536-13.809 5.4835-18.355 13.321-21.495l3.9307-1.5674v-3.4523h-42.047v3.4523l8.3156 2.9835c2.1973 0.7812 3.6036 1.5625 3.6036 3.4424 0 1.7286-0.93751 3.6182-1.4063 5.1808l-5.9278 17.818c-1.5625 4.3947-2.6661 5.0197-7.2169 5.0197l-22.266-0.029c-6.587 0-7.1632 0-9.6779-7.3683l-3.9161-11.201c-0.93751-2.9835-1.9532-5.6495-1.9532-8.4718 0-2.505 1.7237-3.4425 4.712-4.3898l7.3439-2.9834v-3.4523h-35.767z" fill="#fff"/><path d="m527.41 1169.8c-0.26368-0.9424-0.60548-1.6163-0.6006-2.378 0.0293-1.6308 0.83987-2.1582 3.2081-2.1924h21.47c2.3584 0 2.9737 0.7861 2.9737 2.1924 0 0.7862-0.46877 1.5674-0.61525 2.3584l-10.825 32.335c-0.78616 2.5099-1.0987 3.6085-2.0411 3.6085-0.78614 0-1.2598-0.9423-1.875-2.5146zm-36.475-46.9 4.3897 1.7236c7.2218 3.2961 8.4816 10.2 13.032 21.495l22.598 61.52c2.2608 6.2453 4.7999 13.301 5.8986 16.128l0.93752 0.7812h13.54l1.0938-0.7812c0.78615-2.5148 2.9883-8.638 5.1808-14.751l22.281-63.053c4.8536-13.809 5.4835-18.355 13.321-21.495l3.9307-1.5674v-3.4523h-42.047v3.4523l8.3156 2.9835c2.1973 0.7812 3.6036 1.5625 3.6036 3.4424 0 1.7286-0.93751 3.6182-1.4063 5.1808l-5.9278 17.818c-1.5625 4.3947-2.6661 5.0197-7.2169 5.0197l-22.266-0.029c-6.587 0-7.1632 0-9.6779-7.3683l-3.9161-11.201c-0.93751-2.9835-1.9532-5.6495-1.9532-8.4718 0-2.505 1.7237-3.4425 4.712-4.3898l7.3439-2.9834v-3.4523h-35.767z" fill="#fff" stroke="#fff" stroke-width="1.7041"/><path d="m440.63 1122.9 7.5246 2.3487c6.2697 1.8751 6.2697 3.6036 6.2697 14.424v71.808c0 4.7022 0 5.9571-6.7433 5.9571-12.071 0-14.424-1.7236-18.189-8.3107l-5.796-10.347h-5.171v24.458l1.4063 1.2549h86.393l1.4063-1.2549v-24.458h-5.1759l-5.6446 10.347c-3.9161 7.0558-6.2745 8.3107-18.345 8.3107-6.7433 0-6.7433-1.2549-6.7433-5.9571v-71.808c0-10.821-0.15625-12.549 6.1232-14.424l7.6808-2.3487v-3.4522h-44.996z" fill="#fff"/><path d="m440.63 1122.9 7.5246 2.3487c6.2697 1.8751 6.2697 3.6036 6.2697 14.424v71.808c0 4.7022 0 5.9571-6.7433 5.9571-12.071 0-14.424-1.7236-18.189-8.3107l-5.796-10.347h-5.171v24.458l1.4063 1.2549h86.393l1.4063-1.2549v-24.458h-5.1759l-5.6446 10.347c-3.9161 7.0558-6.2745 8.3107-18.345 8.3107-6.7433 0-6.7433-1.2549-6.7433-5.9571v-71.808c0-10.821-0.15625-12.549 6.1232-14.424l7.6808-2.3487v-3.4522h-44.996z" fill="#fff" stroke="#fff" stroke-width="1.7041"/><path d="m226.66 1120.7c-0.7715 2.8224-2.9737 11.914-5.0099 19.434l-12.691 45.943c-5.9718 21.485-6.758 29.005-13.653 32.139l-6.2696 2.8224v3.4521h40.767v-3.4521l-5.4884-2.3488c-2.8272-1.2548-5.1808-1.8799-5.1808-4.0821 0-2.6612 4.5509-20.22 8.1544-33.238l10.347-37.472c0.63479-2.3438 0.65432-3.9161 1.6407-3.9161 0.89357 0 0.96193 0.4688 1.4307 1.88l11.28 31.988c2.6612 7.3683 7.3341 20.538 7.9835 23.668 0.38575 1.8457-0.0732 3.7696-0.54689 5.6495l-2.1973 7.3682c-1.5674 5.1759-2.1778 6.2746-5.7862 7.8371l-5.4933 2.6662v3.4521h39.356v-3.4521l-5.796-2.5099c-2.8272-1.2549-4.5509-1.7188-4.5509-3.921 0-1.88 3.6134-14.112 6.7433-24.766l13.321-45.157c0.79103-2.6709 1.1231-4.6387 1.8408-4.7022 0.93264-0.087 1.1817 0.9424 1.8116 3.1397l7.3634 25.552c3.7598 13.008 11.807 42.203 11.963 45.47 0.0879 1.7189-1.0303 2.6661-3.8477 3.7647l-8.6232 3.1301v3.4521h34.171v-6.963l-2.7198 0.034c-5.9083-0.3027-8.3302-8.9064-13.975-26.47l-13.907-45.465c-3.2862-10.347-6.8898-21.485-7.9835-24.927l-1.4209-1.2549h-12.984l-1.5625 1.2549c-0.77639 2.6661-3.1397 10.816-5.0245 16.929l-13.008 41.554c-0.77637 2.5001-1.0986 2.8223-1.8799 2.8223-0.94728 0-1.2988-1.1036-1.9288-2.671l-12.617-35.899c-3.7598-10.347-7.0607-19.444-8.1544-22.735l-1.2549-1.2549h-13.36z" fill="#fff"/><path d="m226.66 1120.7c-0.7715 2.8224-2.9737 11.914-5.0099 19.434l-12.691 45.943c-5.9718 21.485-6.758 29.005-13.653 32.139l-6.2696 2.8224v3.4521h40.767v-3.4521l-5.4884-2.3488c-2.8272-1.2548-5.1808-1.8799-5.1808-4.0821 0-2.6612 4.5509-20.22 8.1544-33.238l10.347-37.472c0.63479-2.3438 0.65432-3.9161 1.6407-3.9161 0.89357 0 0.96193 0.4688 1.4307 1.88l11.28 31.988c2.6612 7.3683 7.3341 20.538 7.9835 23.668 0.38575 1.8457-0.0732 3.7696-0.54689 5.6495l-2.1973 7.3682c-1.5674 5.1759-2.1778 6.2746-5.7862 7.8371l-5.4933 2.6662v3.4521h39.356v-3.4521l-5.796-2.5099c-2.8272-1.2549-4.5509-1.7188-4.5509-3.921 0-1.88 3.6134-14.112 6.7433-24.766l13.321-45.157c0.79103-2.6709 1.1231-4.6387 1.8408-4.7022 0.93264-0.087 1.1817 0.9424 1.8116 3.1397l7.3634 25.552c3.7598 13.008 11.807 42.203 11.963 45.47 0.0879 1.7189-1.0303 2.6661-3.8477 3.7647l-8.6232 3.1301v3.4521h34.171v-6.963l-2.7198 0.034c-5.9083-0.3027-8.3302-8.9064-13.975-26.47l-13.907-45.465c-3.2862-10.347-6.8898-21.485-7.9835-24.927l-1.4209-1.2549h-12.984l-1.5625 1.2549c-0.77639 2.6661-3.1397 10.816-5.0245 16.929l-13.008 41.554c-0.77637 2.5001-1.0986 2.8223-1.8799 2.8223-0.94728 0-1.2988-1.1036-1.9288-2.671l-12.617-35.899c-3.7598-10.347-7.0607-19.444-8.1544-22.735l-1.2549-1.2549h-13.36z" fill="#fff" stroke="#fff" stroke-width="1.7041"/><path d="m334.69 1122.9 6.8947 2.3487c5.3321 1.8751 5.3321 3.9162 5.3321 12.857v67.658c0 7.9933 0.63477 11.704-5.2003 11.782l-2.0362-0.015v6.963h72.145l1.25-1.0937v-24.62h-5.0099l-4.2384 7.6857c-5.6495 9.8731-6.8947 10.972-22.891 10.972-16.143 0-16.617-0.7813-16.617-7.8372v-25.293c0-5.3274 0.47365-5.4836 6.5822-5.4836h10.982c6.1036 0 6.421 0.8252 9.4045 7.0997l2.5098 5.8009h3.4424v-33.56h-3.4424l-2.5098 5.6495c-3.3008 6.7482-3.3008 7.2121-9.5607 7.2121h-11.294c-5.962 0-6.1134-0.7813-6.1134-6.5822v-27.593c0-7.5245 0-10.347 19.287-10.347 16.304 0 18.658 2.8223 24.302 13.325l4.7071 8.9357h5.0099v-28.062l-1.25-1.255h-81.686z" fill="#fff"/><path d="m334.69 1122.9 6.8947 2.3487c5.3321 1.8751 5.3321 3.9162 5.3321 12.857v67.658c0 7.9933 0.63477 11.704-5.2003 11.782l-2.0362-0.015v6.963h72.145l1.25-1.0937v-24.62h-5.0099l-4.2384 7.6857c-5.6495 9.8731-6.8947 10.972-22.891 10.972-16.143 0-16.617-0.7813-16.617-7.8372v-25.293c0-5.3274 0.47365-5.4836 6.5822-5.4836h10.982c6.1036 0 6.421 0.8252 9.4045 7.0997l2.5098 5.8009h3.4424v-33.56h-3.4424l-2.5098 5.6495c-3.3008 6.7482-3.3008 7.2121-9.5607 7.2121h-11.294c-5.962 0-6.1134-0.7813-6.1134-6.5822v-27.593c0-7.5245 0-10.347 19.287-10.347 16.304 0 18.658 2.8223 24.302 13.325l4.7071 8.9357h5.0099v-28.062l-1.25-1.255h-81.686z" fill="#fff" stroke="#fff" stroke-width="1.7041"/><g transform="matrix(1.3217 0 0 1.3217 -29.621 -335.93)"><g transform="matrix(3.6944 0 0 3.6944 93.071 1183.6)"><path d="m0 0c7.669 8.532 14.578 13.58 26.078 13.95 6.237 0.201 10.824-1.087 16.225-4.804 1.415-0.972 5.351-4.524 5.388-4.556 2.212-1.908-0.142 0.057-0.142 0.057-2.756 2.039-7.981 3.77-12.011 3.642-11.503-0.324-18.47-5.185-26.137-13.717z" fill="#d62242"/></g><g transform="matrix(3.6944 0 0 3.6944 93.071 1183.6)"><path d="m0 0c7.669 8.532 14.578 13.58 26.078 13.95 6.237 0.201 10.824-1.087 16.225-4.804 1.415-0.972 5.351-4.524 5.388-4.556 2.212-1.908-0.142 0.057-0.142 0.057-2.756 2.039-7.981 3.77-12.011 3.642-11.503-0.324-18.47-5.185-26.137-13.717z" fill="none" stroke="#d62242" stroke-miterlimit="3.863" stroke-width=".343"/></g><g transform="matrix(3.6944 0 0 3.6944 545.05 1096.5)"><path d="m0 0c-7.67-8.533-14.58-13.579-26.079-13.951-6.237-0.201-10.825 1.087-16.226 4.804-1.414 0.971-5.35 4.525-5.386 4.556-2.212 1.909 0.141-0.055 0.141-0.055 2.759-2.04 7.98-3.769 12.01-3.645 11.503 0.324 18.47 5.186 26.138 13.718z" fill="#d62242"/></g><g transform="matrix(3.6944 0 0 3.6944 545.05 1096.5)"><path d="m0 0c-7.67-8.533-14.58-13.579-26.079-13.951-6.237-0.201-10.825 1.087-16.226 4.804-1.414 0.971-5.35 4.525-5.386 4.556-2.212 1.909 0.141-0.055 0.141-0.055 2.759-2.04 7.98-3.769 12.01-3.645 11.503 0.324 18.47 5.186 26.138 13.718z" fill="none" stroke="#d62242" stroke-miterlimit="3.863" stroke-width=".343"/></g></g></g></svg>
