<svg width="800" height="518.14" version="1.1" viewBox="0 0 800 518.14" xml:space="preserve" xmlns="http://www.w3.org/2000/svg"><g transform="matrix(1.3333 0 0 -1.3333 -122.77 1647.8)"><path d="m421.45 1139.2c-0.1995-0.713-0.45811-1.2229-0.45442-1.7992 0.0222-1.2339 0.63545-1.6329 2.4272-1.6588h16.244c1.7844 0 2.2499 0.5948 2.2499 1.6588 0 0.5948-0.35467 1.1859-0.4655 1.7844l-8.1906 24.464c-0.59481 1.899-0.83125 2.7302-1.5443 2.7302-0.5948 0-0.95316-0.713-1.4187-1.9026zm-27.597-35.485 3.3213 1.3041c5.4641 2.4938 6.4172 7.7177 9.8604 16.263l17.098 46.546c1.7105 4.7252 3.6316 10.064 4.4629 12.203l0.70933 0.5911h10.245l0.82755-0.5911c0.5948-1.9027 2.261-6.5355 3.9198-11.161l16.858-47.706c3.6723-10.448 4.1488-13.887 10.078-16.263l2.974-1.1859v-2.612h-31.813v2.612l6.2916 2.2573c1.6625 0.5911 2.7265 1.1822 2.7265 2.6046 0 1.3078-0.70933 2.7375-1.064 3.9198l-4.485 13.481c-1.1822 3.325-2.0172 3.7979-5.4604 3.7979l-16.847-0.022c-4.9838 0-5.4197 0-7.3224-5.5749l-2.9629-8.475c-0.70933-2.2573-1.4778-4.2744-1.4778-6.4098 0-1.8953 1.3041-2.6046 3.5651-3.3213l5.5564-2.2573v-2.612h-27.062z" fill="#fff"/><path d="m421.45 1139.2c-0.1995-0.713-0.45811-1.2229-0.45442-1.7992 0.0222-1.2339 0.63545-1.6329 2.4272-1.6588h16.244c1.7844 0 2.2499 0.5948 2.2499 1.6588 0 0.5948-0.35467 1.1859-0.4655 1.7844l-8.1906 24.464c-0.59481 1.899-0.83125 2.7302-1.5443 2.7302-0.5948 0-0.95316-0.713-1.4187-1.9026zm-27.597-35.485 3.3213 1.3041c5.4641 2.4938 6.4172 7.7177 9.8604 16.263l17.098 46.546c1.7105 4.7252 3.6316 10.064 4.4629 12.203l0.70933 0.5911h10.245l0.82755-0.5911c0.5948-1.9027 2.261-6.5355 3.9198-11.161l16.858-47.706c3.6723-10.448 4.1488-13.887 10.078-16.263l2.974-1.1859v-2.612h-31.813v2.612l6.2916 2.2573c1.6625 0.5911 2.7265 1.1822 2.7265 2.6046 0 1.3078-0.70933 2.7375-1.064 3.9198l-4.485 13.481c-1.1822 3.325-2.0172 3.7979-5.4604 3.7979l-16.847-0.022c-4.9838 0-5.4197 0-7.3224-5.5749l-2.9629-8.475c-0.70933-2.2573-1.4778-4.2744-1.4778-6.4098 0-1.8953 1.3041-2.6046 3.5651-3.3213l5.5564-2.2573v-2.612h-27.062z" fill="#fff" stroke="#fff" stroke-width="1.2894"/><path d="m355.8 1103.8 5.6931 1.777c4.7436 1.4187 4.7436 2.7265 4.7436 10.913v54.33c0 3.5577 0 4.5072-5.102 4.5072-9.1326 0-10.913-1.3041-13.762-6.2879l-4.3853-7.8285h-3.9124v18.505l1.064 0.9494h65.366l1.064-0.9494v-18.505h-3.9161l-4.2708 7.8285c-2.9629 5.3384-4.7474 6.2879-13.88 6.2879-5.102 0-5.102-0.9495-5.102-4.5072v-54.33c0-8.1869-0.11822-9.4947 4.6328-10.913l5.8113-1.777v-2.612h-34.044z" fill="#fff"/><path d="m355.8 1103.8 5.6931 1.777c4.7436 1.4187 4.7436 2.7265 4.7436 10.913v54.33c0 3.5577 0 4.5072-5.102 4.5072-9.1326 0-10.913-1.3041-13.762-6.2879l-4.3853-7.8285h-3.9124v18.505l1.064 0.9494h65.366l1.064-0.9494v-18.505h-3.9161l-4.2708 7.8285c-2.9629 5.3384-4.7474 6.2879-13.88 6.2879-5.102 0-5.102-0.9495-5.102-4.5072v-54.33c0-8.1869-0.11822-9.4947 4.6328-10.913l5.8113-1.777v-2.612h-34.044z" fill="#fff" stroke="#fff" stroke-width="1.2894"/><path d="m193.9 1102.1c-0.58372 2.1354-2.2499 9.0144-3.7905 14.704l-9.6018 34.761c-4.5183 16.256-5.1131 21.945-10.33 24.317l-4.7436 2.1354v2.6119h30.845v-2.6119l-4.1525-1.7771c-2.1391-0.9494-3.9198-1.4223-3.9198-3.0885 0-2.0135 3.4432-15.299 6.1697-25.148l7.8285-28.351c0.48028-1.7733 0.49506-2.9629 1.2413-2.9629 0.67608 0 0.7278 0.3547 1.0825 1.4224l8.5341 24.202c2.0135 5.5749 5.549 15.539 6.0404 17.907 0.29186 1.3965-0.0554 2.8521-0.41378 4.2745l-1.6625 5.5748c-1.1859 3.9161-1.6477 4.7474-4.3779 5.9296l-4.1562 2.0172v2.6119h29.777v-2.6119l-4.3853-1.899c-2.1391-0.9494-3.4432-1.3004-3.4432-2.9666 0-1.4224 2.7339-10.677 5.102-18.738l10.078-34.166c0.5985-2.0208 0.84972-3.5097 1.3928-3.5577 0.70564-0.066 0.89405 0.713 1.3706 2.3755l5.5712 19.333c2.8447 9.842 8.9331 31.931 9.0514 34.402 0.0665 1.3005-0.77952 2.0172-2.9112 2.8484l-6.5244 2.3682v2.6119h25.854v-5.2682l-2.0578 0.026c-4.4703-0.229-6.3027-6.7386-10.573-20.028l-10.522-34.399c-2.4864-7.8285-5.2128-16.256-6.0404-18.86l-1.0751-0.9495h-9.8235l-1.1822 0.9495c-0.58742 2.0172-2.3755 8.1832-3.8016 12.809l-9.842 31.44c-0.58741 1.8916-0.83124 2.1354-1.4224 2.1354-0.71672 0-0.98272-0.835-1.4593-2.0209l-9.5464-27.161c-2.8447-7.8285-5.3422-14.711-6.1697-17.201l-0.94947-0.9495h-10.108z" fill="#fff"/><path d="m193.9 1102.1c-0.58372 2.1354-2.2499 9.0144-3.7905 14.704l-9.6018 34.761c-4.5183 16.256-5.1131 21.945-10.33 24.317l-4.7436 2.1354v2.6119h30.845v-2.6119l-4.1525-1.7771c-2.1391-0.9494-3.9198-1.4223-3.9198-3.0885 0-2.0135 3.4432-15.299 6.1697-25.148l7.8285-28.351c0.48028-1.7733 0.49506-2.9629 1.2413-2.9629 0.67608 0 0.7278 0.3547 1.0825 1.4224l8.5341 24.202c2.0135 5.5749 5.549 15.539 6.0404 17.907 0.29186 1.3965-0.0554 2.8521-0.41378 4.2745l-1.6625 5.5748c-1.1859 3.9161-1.6477 4.7474-4.3779 5.9296l-4.1562 2.0172v2.6119h29.777v-2.6119l-4.3853-1.899c-2.1391-0.9494-3.4432-1.3004-3.4432-2.9666 0-1.4224 2.7339-10.677 5.102-18.738l10.078-34.166c0.5985-2.0208 0.84972-3.5097 1.3928-3.5577 0.70564-0.066 0.89405 0.713 1.3706 2.3755l5.5712 19.333c2.8447 9.842 8.9331 31.931 9.0514 34.402 0.0665 1.3005-0.77952 2.0172-2.9112 2.8484l-6.5244 2.3682v2.6119h25.854v-5.2682l-2.0578 0.026c-4.4703-0.229-6.3027-6.7386-10.573-20.028l-10.522-34.399c-2.4864-7.8285-5.2128-16.256-6.0404-18.86l-1.0751-0.9495h-9.8235l-1.1822 0.9495c-0.58742 2.0172-2.3755 8.1832-3.8016 12.809l-9.842 31.44c-0.58741 1.8916-0.83124 2.1354-1.4224 2.1354-0.71672 0-0.98272-0.835-1.4593-2.0209l-9.5464-27.161c-2.8447-7.8285-5.3422-14.711-6.1697-17.201l-0.94947-0.9495h-10.108z" fill="#fff" stroke="#fff" stroke-width="1.2894"/><path d="m275.64 1103.8 5.2165 1.777c4.0343 1.4187 4.0343 2.963 4.0343 9.7275v51.19c0 6.0478 0.48027 8.8556-3.9346 8.9147l-1.5406-0.011v5.2682h54.585l0.94578-0.8275v-18.627h-3.7905l-3.2068 5.815c-4.2744 7.4701-5.2165 8.3014-17.319 8.3014-12.214 0-12.572-0.5911-12.572-5.9296v-19.137c0-4.0307 0.35836-4.1489 4.9801-4.1489h8.3088c4.618 0 4.8582 0.6244 7.1155 5.3717l1.8989 4.389h2.6046v-25.392h-2.6046l-1.8989 4.2744c-2.4974 5.1057-2.4974 5.4567-7.2337 5.4567h-8.5452c-4.5109 0-4.6254-0.5911-4.6254-4.9801v-20.877c0-5.6931 0-7.8285 14.593-7.8285 12.336 0 14.116 2.1354 18.387 10.082l3.5614 6.7608h3.7905v-21.232l-0.94578-0.9495h-61.804z" fill="#fff"/><path d="m275.64 1103.8 5.2165 1.777c4.0343 1.4187 4.0343 2.963 4.0343 9.7275v51.19c0 6.0478 0.48027 8.8556-3.9346 8.9147l-1.5406-0.011v5.2682h54.585l0.94578-0.8275v-18.627h-3.7905l-3.2068 5.815c-4.2744 7.4701-5.2165 8.3014-17.319 8.3014-12.214 0-12.572-0.5911-12.572-5.9296v-19.137c0-4.0307 0.35836-4.1489 4.9801-4.1489h8.3088c4.618 0 4.8582 0.6244 7.1155 5.3717l1.8989 4.389h2.6046v-25.392h-2.6046l-1.8989 4.2744c-2.4974 5.1057-2.4974 5.4567-7.2337 5.4567h-8.5452c-4.5109 0-4.6254-0.5911-4.6254-4.9801v-20.877c0-5.6931 0-7.8285 14.593-7.8285 12.336 0 14.116 2.1354 18.387 10.082l3.5614 6.7608h3.7905v-21.232l-0.94578-0.9495h-61.804z" fill="#fff" stroke="#fff" stroke-width="1.2894"/><g transform="matrix(3.6944 0 0 3.6944 93.071 1183.6)"><path d="m0 0c7.669 8.532 14.578 13.58 26.078 13.95 6.237 0.201 10.824-1.087 16.225-4.804 1.415-0.972 5.351-4.524 5.388-4.556 2.212-1.908-0.142 0.057-0.142 0.057-2.756 2.039-7.981 3.77-12.011 3.642-11.503-0.324-18.47-5.185-26.137-13.717z" fill="#d62242"/></g><g transform="matrix(3.6944 0 0 3.6944 93.071 1183.6)"><path d="m0 0c7.669 8.532 14.578 13.58 26.078 13.95 6.237 0.201 10.824-1.087 16.225-4.804 1.415-0.972 5.351-4.524 5.388-4.556 2.212-1.908-0.142 0.057-0.142 0.057-2.756 2.039-7.981 3.77-12.011 3.642-11.503-0.324-18.47-5.185-26.137-13.717z" fill="none" stroke="#d62242" stroke-miterlimit="3.863" stroke-width=".343"/></g><g transform="matrix(3.6944 0 0 3.6944 545.05 1096.5)"><path d="m0 0c-7.67-8.533-14.58-13.579-26.079-13.951-6.237-0.201-10.825 1.087-16.226 4.804-1.414 0.971-5.35 4.525-5.386 4.556-2.212 1.909 0.141-0.055 0.141-0.055 2.759-2.04 7.98-3.769 12.01-3.645 11.503 0.324 18.47 5.186 26.138 13.718z" fill="#d62242"/></g><g transform="matrix(3.6944 0 0 3.6944 545.05 1096.5)"><path d="m0 0c-7.67-8.533-14.58-13.579-26.079-13.951-6.237-0.201-10.825 1.087-16.226 4.804-1.414 0.971-5.35 4.525-5.386 4.556-2.212 1.909 0.141-0.055 0.141-0.055 2.759-2.04 7.98-3.769 12.01-3.645 11.503 0.324 18.47 5.186 26.138 13.718z" fill="none" stroke="#d62242" stroke-miterlimit="3.863" stroke-width=".343"/></g><g transform="matrix(3.6944 0 0 3.6944 -96.419 -1691.4)"><g transform="translate(173.46 750.43)"><path d="m0 0c-1.021-0.996-2.047-1.939-3.089-2.823v-58.908h43.06v61.731z" fill="#fff"/></g><g transform="translate(147.31 738.64)"><path d="m0 0c-0.482-0.015-0.956-0.023-1.422-0.023-1.368 0-2.666 0.073-3.922 0.217v-28.25c-6.139-9.096-12.662-13.643-19.568-13.643-3.187 0-5.459 0.986-6.822 2.965-1.361 1.976-2.042 5.303-2.042 9.984v41.218h-11.341v-44.897c0-5.838 1.613-10.472 4.833-13.904 3.224-3.434 7.561-5.15 13.011-5.15 8.594 0 15.909 4.391 21.929 13.18v-11.744h11.342v50.663c-1.881-0.339-3.873-0.547-5.998-0.616" fill="#d62242"/></g><g transform="translate(163.57 763.41)"><path d="m0 0 0.316 0.352 6.486-3.797v19.525h-11.34v-20.934c1.427 1.439 2.917 3.051 4.538 4.854" fill="#d62242"/></g><g transform="translate(183.75 721.2)"><path d="m0 0 25.334 29.228h-12.224l-26.488-30.374 28.532-31.357h14.529z" fill="#d62242"/></g><g transform="translate(159.03 740.8)"><path d="m0 0v-52.208h11.339v59.01c-3.485-2.957-7.144-5.264-11.339-6.802" fill="#d62242"/></g><g transform="translate(173.63 750.43)"><path d="m0 0v-21.307l18.74 21.307z" fill="#083a62"/></g><g transform="translate(173.63 707.65)"><path d="m0 0v-18.956h16.917z" fill="#083a62"/></g><g transform="translate(213.43 747.24)"><path d="m0 0-22.238-25.25 22.238-24.179z" fill="#083a62"/></g></g></g></svg>
