<svg width="800" height="271.33" version="1.1" viewBox="0 0 800 271.33" xml:space="preserve" xmlns="http://www.w3.org/2000/svg"><defs><clipPath id="clipPath1776"><path d="m355.18 670.46h135.64v46.003h-135.64z"/></clipPath></defs><g transform="matrix(1.3333 0 0 -1.3333 -578.66 1100.5)"><g transform="matrix(4.4236 0 0 4.4236 -1137.2 -2344)"><g clip-path="url(#clipPath1776)"><g transform="translate(456.31 685.67)"><path d="m0 0 2.871-0.087-0.171-5.666 0.057-1e-3c0.3 0.486 0.618 0.933 0.917 1.38l3.037 4.171 3.555-0.107-4.404-5.328 4.246-7.494-3.385 0.102-2.969 5.628-1.144-1.316-0.126-4.183-2.872 0.087z" fill="#0079c1"/></g><g transform="translate(470.12 686.05)"><path d="m0 0c0.067-0.796-0.485-1.492-1.433-1.572-0.91-0.076-1.57 0.517-1.619 1.315-0.089 0.833 0.465 1.509 1.394 1.587 0.928 0.079 1.568-0.498 1.658-1.33m-1.979-12.097-0.78 9.269 2.881 0.242 0.781-9.268z" fill="#0079c1"/></g><g transform="translate(483.08 683.81)"><path d="m0 0-1.686-10.595c-0.164-1.033-0.3-2.129-0.361-2.755l-2.536 0.404 0.084 1.373-0.038 7e-3c-0.747-0.941-1.939-1.291-3.122-1.102-2.179 0.346-3.63 2.484-3.176 5.34 0.475 3.102 2.693 4.579 4.891 4.229 1.128-0.179 1.947-0.714 2.259-1.419l0.038-5e-3 0.792 4.978zm-4.135-7.586c0.024 0.15 0.038 0.361 0.043 0.513-0.046 0.797-0.564 1.534-1.447 1.675-1.296 0.207-2.158-0.851-2.388-2.297-0.248-1.559 0.366-2.659 1.55-2.847 0.827-0.132 1.574 0.327 1.872 1.108 0.088 0.198 0.14 0.401 0.179 0.646z" fill="#0079c1"/></g><g transform="translate(484.29 677.01)"><path d="m0 0c0.53-0.328 1.629-0.719 2.485-0.727 0.875-8e-3 1.239 0.293 1.243 0.769 5e-3 0.475-0.279 0.706-1.36 1.077-1.914 0.665-2.647 1.718-2.617 2.821 0.016 1.731 1.512 3.029 3.813 3.008 1.084-0.01 2.052-0.265 2.62-0.556l-0.532-1.993c-0.416 0.232-1.212 0.544-2.012 0.552-0.704 6e-3 -1.105-0.276-1.11-0.752-4e-3 -0.437 0.356-0.668 1.494-1.078 1.763-0.625 2.496-1.526 2.502-2.896-0.016-1.731-1.397-2.992-4.059-2.968-1.218 0.011-2.3 0.288-3 0.674z" fill="#0079c1"/></g><g transform="translate(421.88 693.61)"><path d="m0 0v-3.488c1.115 0 2.177-0.049 3.232 0.016 0.889 0.054 1.509 0.79 1.494 1.669-0.018 1.123-0.519 1.659-1.451 1.773-0.418 0.051-0.842 0.067-1.27 0.067-0.658 0-1.326-0.037-2.005-0.037m9.578 2.413c0.657-0.353 1.32-0.599 1.842-1.02 0.515-0.414 0.887-1.006 1.304-1.499 0.116 0.579 0.102 4.225-0.042 4.757-0.758-1.137-1.786-1.869-3.104-2.238m-9.086 5.827c-0.165-3e-3 -0.33-0.037-0.52-0.06v-3.37c1.108-0.077 2.166-0.137 3.221 1e-3 0.486 0.064 0.907 0.284 1.178 0.729 0.646 1.061 0.015 2.461-1.211 2.67-0.169 0.03-0.346 0.031-0.519 0.032-0.325 1e-3 -0.65 2e-3 -0.976 2e-3 -0.391 0-0.782-1e-3 -1.173-4e-3m-19.466 0.32c-1.252-0.159-1.943-1.006-1.949-2.277-0.012-2.738-0.016-5.476-0.016-8.214 0-0.973 0.639-1.807 1.58-2.07 0.775-0.216 1.554-0.176 2.315 0.063 0.628 0.198 1.092 0.636 1.146 1.292 0.073 0.879 0.018 1.768 0.018 2.741h-2.588c-0.026 1.378-0.018 2.668-9e-3 4.018h10.356c-5e-3 0.786 0.077 1.51-0.028 2.283h-7.533c-0.054 0.298-0.077 0.516-0.134 0.723-0.196 0.704-0.645 1.218-1.352 1.362-0.378 0.077-0.773 0.118-1.165 0.118-0.216 0-0.432-0.012-0.641-0.039m-10.546 0.386c0.719 0.872 1.447 1.732 2.375 2.4 1.375 0.991 2.934 1.487 4.587 1.723 2.403 0.345 4.812 0.361 7.214 2e-3 2.151-0.322 4.198-0.945 5.966-2.275 0.411-0.309 0.786-0.667 1.267-1.078v2.96h0.717c4.566 1e-3 9.133 0.02 13.7-7e-3 1.344-9e-3 2.687-0.127 3.939-0.735 0.939-0.457 1.63-1.133 2.095-2.057 0.105-0.207 0.218-0.409 0.439-0.6 0.012 1.112 0.024 2.224 0.035 3.371h8.766c0.047-1.21 0.02-2.417 0.023-3.622 4e-3 -1.194 1e-3 -2.386 1e-3 -3.56 0.52-0.18 3.315-0.212 4.162-0.055v7.13c0.504 0.172 7.843 0.197 8.511 0.038v-20.347h-8.491v7.157h-4.195v-7.057c-0.501-0.169-7.61-0.22-8.769-0.064-0.016 0.938-0.033 1.895-0.049 2.853-0.038 5e-3 -0.075 0.01-0.112 0.016-0.079-0.126-0.166-0.247-0.235-0.377-0.677-1.252-1.767-1.962-3.117-2.258-0.779-0.171-1.589-0.285-2.386-0.29-4.784-0.027-9.569-0.016-14.353-0.014-0.212 0-0.424 0.022-0.713 0.039v1.838c-0.231-0.089-0.374-0.126-0.5-0.194-1.743-0.965-3.602-1.628-5.545-2.026-2.599-0.532-5.212-0.622-7.839-0.143-1.778 0.325-3.436 0.92-4.943 1.917-1.991 1.314-3.253 3.156-3.903 5.435-0.095 0.333-0.183 0.668-0.329 1.01-0.679-2.579-1.094-5.213-1.708-7.84h-8.29c-0.771 2.55-1.531 5.061-2.291 7.572-0.604-1.22-0.873-2.521-1.269-3.779-0.396-1.26-0.744-2.534-1.114-3.81h-8.419c-1.398 6.788-2.7 13.586-4.084 20.363 0.49 0.151 6.242 0.204 7.574 0.07 0.55-2.421 1.105-4.869 1.66-7.318 0.045-4e-3 0.091-9e-3 0.136-0.013 0.619 2.432 1.239 4.864 1.859 7.3h7.472c0.563-2.381 1.12-4.738 1.678-7.095 0.045-6e-3 0.09-0.01 0.135-0.016 0.393 1.152 0.605 2.357 0.931 3.529 0.325 1.17 0.586 2.359 0.896 3.623 1.639 0.029 3.275 0.024 4.932 0.019 0.643-1e-3 1.289-3e-3 1.941-3e-3 -0.241-1.354-0.469-2.629-0.697-3.903 0.033-0.017 0.066-0.033 0.099-0.051 0.081 0.074 0.171 0.139 0.241 0.222m19.639 13.84c-1.351-0.087-2.663-0.371-3.934-0.848-1.567-0.587-2.916-1.526-4.213-2.556-0.154-0.122-0.279-0.324-0.583-0.267 0.231 0.976 0.455 1.919 0.686 2.893-0.164 0.021-0.268 0.045-0.372 0.045-0.661 1e-3 -1.322 1e-3 -1.983 1e-3 -1.514 0-3.028-1e-3 -4.541 9e-3 -0.3 3e-3 -0.482-0.129-0.671-0.32-1.041-1.048-2.086-2.093-3.133-3.135-0.111-0.11-0.244-0.197-0.424-0.34-0.316 1.303-0.611 2.522-0.917 3.788h-0.67c-1.891 0-3.784-0.018-5.676 0.012-0.503 7e-3 -0.856-0.154-1.198-0.504-0.972-0.992-1.973-1.958-2.965-2.932-0.103-0.101-0.222-0.185-0.393-0.328-0.285 1.268-0.554 2.461-0.827 3.678h-0.794c-0.557 0-1.115-1e-3 -1.671-3e-3 -1.464-2e-3 -2.929-4e-3 -4.392 0.017-0.565 8e-3 -0.973-0.17-1.372-0.567-3.331-3.307-6.679-6.592-10.02-9.888-2.135-2.105-4.255-4.225-6.404-6.314-0.349-0.339-0.403-0.642-0.31-1.09 0.508-2.468 0.986-4.943 1.474-7.416 0.404-2.046 0.809-4.091 1.211-6.137 0.355-1.811 0.704-3.625 1.062-5.436 0.164-0.825 0.345-1.646 0.516-2.463 0.142-0.02 0.227-0.043 0.311-0.043 2.218-3e-3 4.436 0 6.654-0.01 0.312-1e-3 0.536 0.125 0.745 0.332 0.695 0.687 1.394 1.37 2.094 2.053 0.428 0.415 0.86 0.828 1.366 1.315 0.338-1.276 0.647-2.441 0.957-3.607 0.17-0.021 0.276-0.044 0.381-0.044 2.131 1e-3 4.261 0.01 6.392 3e-3 0.284 0 0.491 0.086 0.693 0.28 0.658 0.631 1.332 1.247 2 1.868 0.522 0.485 1.044 0.968 1.6 1.485 0.166-0.198 0.296-0.365 0.438-0.521 0.291-0.321 0.568-0.66 0.888-0.95 1.427-1.295 3.164-1.945 5.01-2.351 1.38-0.304 2.776-0.426 4.179-0.429h0.071c0.291 1e-3 0.581 7e-3 0.873 0.017 3.659 0.126 7.139 0.937 10.337 2.787 0.099 0.057 0.22 0.075 0.407 0.137v-2.292c0.227-0.011 0.396-0.026 0.566-0.026 2.479-3e-3 4.957-2e-3 7.434-3e-3 1.979 0 3.957-0.013 5.935 2e-3 2.209 0.016 4.137 0.711 5.628 2.415 0.272 0.311 0.557 0.61 0.837 0.915 0.044-0.018 0.088-0.036 0.133-0.054v-3.289h0.711c2.326 5e-3 4.653 0.043 6.978-5e-3 0.703-0.016 1.182 0.217 1.646 0.692 0.911 0.932 1.856 1.83 2.792 2.735 0.126 0.121 0.286 0.206 0.504 0.358 0.027-1.325 0.051-2.529 0.077-3.785 0.327 0 0.563-1e-3 0.799 0 2.392 5e-3 4.784 0.025 7.175 5e-3 0.503-4e-3 0.847 0.161 1.191 0.51 1.31 1.33 2.644 2.638 3.978 3.945 1.271 1.247 2.559 2.477 3.83 3.724 2.588 2.541 5.174 5.084 7.754 7.631 0.819 0.809 1.622 1.634 2.431 2.451v21.012c-2.304 0.011-4.607 2e-3 -6.91 0.045-0.578 0.011-0.978-0.186-1.364-0.586-0.933-0.972-1.895-1.916-2.85-2.867-0.094-0.094-0.222-0.155-0.449-0.309v3.768c-0.292 0.015-0.507 0.035-0.721 0.035-0.623 0-1.246-3e-3 -1.869-5e-3 -1.463-6e-3 -2.927-0.013-4.39 0.016-0.651 0.013-1.098-0.209-1.536-0.655-1.019-1.039-2.077-2.04-3.123-3.052-0.094-0.091-0.223-0.145-0.372-0.241-0.034 0.267-0.052 0.461-0.085 0.652-0.305 1.741-1.513 2.928-3.257 3.177-0.45 0.064-0.909 0.096-1.364 0.097-3.347 0.01-6.695-7e-3 -10.042 0.024-0.68 6e-3 -1.185-0.148-1.644-0.685-0.549-0.64-1.206-1.189-1.82-1.774-0.105-0.1-0.228-0.181-0.369-0.291-0.199 0.183-0.375 0.34-0.546 0.502-1.374 1.291-2.957 2.18-4.806 2.618-1.322 0.314-2.654 0.43-3.992 0.43-0.59 0-1.18-0.023-1.772-0.061" fill="#f68b33"/></g></g></g></g></svg>
