<svg width="1e3" height="369.89" version="1.1" xmlns="http://www.w3.org/2000/svg">
 <defs>
  <clipPath id="clipPath3009">
   <path d="m0 0h612v738h-612z"/>
  </clipPath>
 </defs>
 <g transform="translate(-125.7 -180.53)">
  <g transform="matrix(4.2096 0 0 -4.2096 -398.14 2229.8)" clip-path="url(#clipPath3009)" fill="#125687">
   <g transform="matrix(2.7341 0 0 2.7341 -215.79 -691.83)" fill="#125687">
    <path d="m131.02 423.11 3.226-16.196h6.675l1.797 6.206 1.865-6.206h6.573l1.323 6.502c1.15-6.868 8.083-7.132 10.088-7.132s5.258 0.494 8.084 2.17v-1.54h11.534c3.286 0 4.272 1.046 4.994 2.558v-2.558h6.934v5.713h3.287v-5.713h6.77v16.176h-6.77v-5.796h-3.253v5.796h-6.968v-3.004c-0.656 1.939-1.938 3.004-5.257 3.004h-11.239v-2.379c-0.952 1.117-3.318 2.892-8.412 2.892s-6.901-1.249-8.774-3.878l0.615 3.365h-5.455l-1.469-5.895-1.38 5.882h-5.915l-1.512-5.981-1.347 6.014zm7.162 7.305h6.025l0.637-2.967 3.088 3.023h5.521l0.723-3.056 3.056 3.056h5.718l-0.624-2.564c2.399 2.005 4.305 3.188 8.314 3.188 4.008 0 5.849-1.216 7.427-2.859l2.267 2.202h8.971c2.597 0 3.384-1.841 3.384-3.22l3.32 3.22h6.177v-3.089l3.089 3.066h6.048v-16.604l-14.641-14.386h-6.812l-6e-3 3.114-3.221-3.114h-6.77v2.852c-1.905-2.597-3.614-2.852-5.849-2.852h-10.351v1.964c-0.887-0.691-4.338-2.432-9.003-2.432-4.667 0-7.231 1.445-8.479 3.385l-3.114-2.917h-5.613l-0.77 2.917-3.024-2.958h-5.782l-3.451 17.482z"/>
    <path d="m164.67 418.11h6.014v-1.775h-8.183v-3.187h2.071v-1.774c0-0.92-0.526-1.545-2.005-1.545-1.478 0-2.005 1.117-2.005 1.643s0.034 6.047 0.034 6.704 0.493 1.709 2.037 1.709 2.037-0.822 2.037-1.775"/>
    <path d="m177.06 419.56v-2.694s1.348-0.034 2.169-0.034 1.479 0.494 1.479 1.348c0 0.855-0.559 1.38-1.479 1.38z"/>
    <path d="m177.06 413.08v-2.728s1.445-0.033 2.268-0.033c0.821 0 1.478 0.493 1.478 1.348 0 0.853-0.558 1.413-1.478 1.413z"/>
    <g transform="translate(187.18 416.96)">
     <path d="m0 0v-4.338c-0.559 1.742-1.807 2.037-2.661 2.334 0.821 0.131 2.169 0.853 2.661 2.004" fill="#125687"/>
    </g>
   </g>
  </g>
 </g>
</svg>
