<svg width="2193.4" height="1978.5" version="1.1" viewBox="0 0 2193.4 1978.5" xmlns="http://www.w3.org/2000/svg">
 <defs>
  <linearGradient id="linearGradient987" x1="11942" x2="25686" y1="10549" y2="10549" gradientTransform="matrix(1.4612 0 0 1.4612 -2285.4 -730.78)" gradientUnits="userSpaceOnUse">
   <stop stop-color="#9B2E90" offset="0"/>
   <stop stop-color="#A82C9B" offset=".2246"/>
   <stop stop-color="#BE27AF" offset=".6966"/>
   <stop stop-color="#C626B6" offset="1"/>
  </linearGradient>
  <linearGradient id="linearGradient999" x1="25687" x2="46087" y1="9971.9" y2="9971.9" gradientTransform="matrix(.037795 0 0 .037795 -2285.4 -729.03)" gradientUnits="userSpaceOnUse">
   <stop stop-color="#51BB83" offset="0"/>
   <stop stop-color="#4DBA81" offset=".2181"/>
   <stop stop-color="#41B77B" offset=".4428"/>
   <stop stop-color="#2CB272" offset=".6704"/>
   <stop stop-color="#0FAB65" offset=".8988"/>
   <stop stop-color="#00A75E" offset="1"/>
  </linearGradient>
  <linearGradient id="linearGradient1019" x1="16.003" x2="28.544" y1="16.905" y2="29.446" gradientTransform="matrix(38.661 0 0 38.661 -1834.8 -729.03)" gradientUnits="userSpaceOnUse">
   <stop stop-color="#1D1DEA" offset=".4967"/>
   <stop stop-color="#2022E0" offset=".6006"/>
   <stop stop-color="#292EC4" offset=".78"/>
   <stop stop-color="#374199" offset="1"/>
  </linearGradient>
  <linearGradient id="linearGradient1021" x1="4.6351" x2="13.922" y1="29.228" y2="19.941" gradientTransform="matrix(38.661 0 0 38.661 -1838 -726.03)" gradientUnits="userSpaceOnUse">
   <stop stop-color="#AE1F23" offset="0"/>
   <stop stop-color="#CC1E23" offset=".382"/>
   <stop stop-color="#E41C24" offset=".7639"/>
   <stop stop-color="#ED1C24" offset="1"/>
  </linearGradient>
 </defs>
 <g transform="matrix(.55599 0 0 .55599 -726.34 2010.9)" fill="#6e6d72" fill-rule="evenodd">
  <polygon transform="matrix(55.416 0 0 55.416 .0038578 -1197.1)" points="46.524 0.83168 46.524 9.4378 44.232 9.4378 44.232 2.0281 44.232 0.83168"/>
  <polygon transform="matrix(55.416 0 0 55.416 .0038578 -1197.1)" points="61.227 0.83168 61.227 9.4378 58.935 9.4378 58.935 2.0281 58.935 0.83168"/>
  <polygon transform="matrix(55.416 0 0 55.416 .0038578 -1197.1)" points="74.035 0.83168 74.035 9.4378 71.743 9.4378 71.743 2.0281 71.743 0.83168"/>
  <path d="m2000.6-674.14v-263.7c0-65.489 48.913-104.5 103.99-104.5 58.558 0 104.7 45.48 104.7 104.5v263.7h126.78v-258.85c0-120.89-83.446-227.82-228.69-227.82-156.11 0-234.03 106.26-234.03 227.82v258.85z"/>
  <path d="m4915.9-674.14v-263.7c0-65.489 49.03-104.5 103.99-104.5 58.558 0 104.7 45.48 104.7 104.5v263.7h126.78v-258.85c0-120.89-83.446-227.82-228.67-227.82-156.13 0-234.03 106.26-234.03 227.82v258.85z"/>
  <polygon transform="matrix(55.416 0 0 55.416 .0038578 -1178.7)" points="52.726 5.7541 55.069 0.49914 57.452 0.49914 53.523 9.1041 51.938 9.1041 48.007 0.49914 50.384 0.49914"/>
  <path d="m3556.4-819.49c32.216 29.43 82.071 47.143 129.69 47.143 34.239 0 60.601-16.724 60.601-40.236 0-71.704-229.36-46.153-229.36-199.77 0-91.535 87.886-148.51 181.53-148.51 61.642 0 128.82 23.512 160.15 48.093l-59.402 92.504c-24.476-17.654-56.711-32.319-90.95-32.319-34.946 0-64.372 13.557-64.372 38.178 0 62.006 229.4 37.326 229.4 202.82 0 91.317-88.691 147.46-188.32 147.46-65.413 0-134.83-22.76-190.27-64.045z"/>
  <path d="m4446-782.28c74.233 0 124.85-58.147 124.85-129.73 0-71.763-50.622-130.78-124.85-130.78-74.076 0-125.09 59.018-125.09 130.78 0 71.585 51.014 129.73 125.09 129.73m0-378.53c143.5 0 251.61 111.11 251.61 248.8 0 137.79-108.12 247.93-251.61 247.93s-252.26-110.14-252.26-247.93c0-137.69 108.77-248.8 252.26-248.8"/>
  <path d="m1642.5-1151v263.94c0 65.252-49.443 104.48-104.66 104.48-58.361 0-104.52-45.797-104.52-104.48v-263.94h-126.96v258.97c0 120.57 83.387 227.94 228.67 227.94 156.17 0 234.19-106.28 234.19-227.94v-258.97z"/>
 </g>
 <g transform="matrix(.87123 0 0 .87123 2132.4 635.14)" fill-rule="evenodd">
  <path d="m-1218.2 598.73c-28.608-26.791-49.043-77.194-63.572-142.58a1394.5 1394.5 0 0 1-25.883-202.52 3039.7 3039.7 0 0 1-6.8115-217.06v-12.714c-169.83 0-317.41-12.714-387.78-25.429-74.015-13.623-123.06-40.868-131.69-54.49a641.16 641.16 0 0 0 117.61 382.34 644.34 644.34 0 0 0 499.51 273.82l-1.3623-1.3623" fill="url(#linearGradient1021)" stroke-width="38.661"/>
  <path d="m-543.47-78.755c-29.97 24.975-115.83 55.416-218 74.941-40.868 6.8115-84.896 12.665-129.4 17.206-177.09 15.893-385.97 10.465-423.69 10.465v12.683a3039.7 3039.7 0 0 0 6.8288 217.11 1394.5 1394.5 0 0 0 25.898 202.48c14.531 65.39 34.983 115.82 63.591 142.61l1.3305 1.3305 28.115 0.8868c218.87 0 411.9-108.91 528.57-275.56 44.531-67.378 76.4-142.37 94.012-221.19 14.985-54.49 22.704-112.56 22.704-172.5v-0.5322z" fill="url(#linearGradient1019)" stroke-width="38.661"/>
  <path d="m-1314.5 23.86c37.235 0 246.57 5.449 423.65-10.444 44.5-4.5408 88.094-9.9901 129.87-17.256 101.72-19.526 187.54-49.951 217.51-74.926v-575.32c-77.651-57.668-404.15-74.926-771.03-74.926z" fill="url(#linearGradient999)" stroke-width="45.408"/>
  <path d="m-1809-684.5c-13.623 0-25.01 11.299-25.01 24.922v603.52c8.6276 13.623 57.687 40.834 131.7 54.456 70.383 12.714 217.92 25.454 387.74 25.454v-464.13c-160.75-207.07-409.51-244.25-494.44-244.25z" fill="url(#linearGradient987)" stroke-width="38.661"/>
 </g>
 <g transform="matrix(.70381 0 0 .70381 -588.63 2050.1)" fill="#6e6d72" fill-rule="evenodd">
  <path d="m1485.9-446.29c47.498 0 92.62 19.633 121.59 51.695l-31.823 31.587c-19.467-21.553-54.157-37.801-89.771-37.801-67.928 0-120.65 54.545-120.65 126.8 0 75.603 54.157 126.8 124.93 126.8 44.63 0 76.944-24.878 95.468-47.361l33.728 30.637c-28.503 36.851-77.906 62.204-129.2 62.204-99.279 0-172.43-73.228-172.43-172.28 0-96.68 72.21-172.28 168.15-172.28"/>
  <polygon transform="matrix(55.416 0 0 55.416 .0038578 -1178.7)" points="35.22 19.347 34.363 19.347 34.363 16.498 31.021 16.498 31.021 19.347 30.163 19.347 30.163 13.303 31.021 13.303 31.021 15.677 34.363 15.677 34.363 13.303 35.22 13.303"/>
  <polygon transform="matrix(55.416 0 0 55.416 .0038578 -1178.7)" points="37.619 13.302 36.762 13.302 36.762 19.348 37.619 19.348"/>
  <path d="m2312.2-446.29c47.498 0 92.62 19.633 121.59 51.695l-31.823 31.587c-19.467-21.553-54.157-37.801-89.771-37.801-67.928 0-120.65 54.545-120.65 126.8 0 75.603 54.157 126.8 124.93 126.8 44.63 0 76.944-24.878 95.468-47.361l33.728 30.637c-28.503 36.851-77.906 62.204-129.2 62.204-99.279 0-172.43-73.228-172.43-172.28 0-96.68 72.19-172.28 168.15-172.28"/>
  <path d="m2567.7-238.12h102.6l-51.309-124.41zm121.12 45.48h-140.12l-34.671 86.112h-49.404l137.76-334.97h33.237l137.74 334.97h-49.404z"/>
  <path d="m3086.8-163.94c-28.503 36.376-77.906 62.224-129.2 62.224-99.279 0-172.41-73.248-172.41-172.3 0-96.661 72.171-172.28 168.13-172.28 47.498 0 92.62 19.653 121.61 51.715l-31.842 31.567c-19.467-21.533-54.138-37.801-89.771-37.801-67.928 0-120.65 54.545-120.65 126.8 0 75.623 54.157 126.82 124.93 126.82 35.142 0 64.117-13.399 81.678-31.112v-86.132h-94.977v-45.461h142.49z"/>
  <path d="m3305.2-147.2c67.908 0 118.75-54.07 118.75-126.8 0-72.278-50.838-126.8-118.75-126.8-67.928 0-118.75 54.525-118.75 126.8 0 72.733 50.818 126.8 118.75 126.8m0-299.09c94.034 0 166.24 74.653 166.24 172.28 0 97.611-72.21 172.28-166.24 172.28-94.054 0-166.24-74.673-166.24-172.28 0-97.63 72.19-172.28 166.24-172.28"/>
 </g>
</svg>
