<svg width="800" height="354.93" version="1.1" viewBox="0 0 800 354.93" xml:space="preserve" xmlns="http://www.w3.org/2000/svg"><defs><clipPath id="clipPath72"><path d="m37.866 290.6h23.162v52.207h-23.162z"/></clipPath><clipPath id="clipPath108"><path d="m-9 792h1188v-801h-1188z"/></clipPath><clipPath id="clipPath112"><path d="m-9-9h1188v801h-1188z"/></clipPath><clipPath id="clipPath116"><path d="m-9 792h1188v-801h-1188z"/></clipPath></defs><g transform="matrix(0 1.3333 1.3333 0 -429.19 389.24)" fill="#fff"><g transform="matrix(11.493 0 0 11.493 269.98 -3377.6)"><g transform="translate(-36.347 370.3)"><path d="m0 0 5.189-3.309v-0.17h-5.189v-2.7l5.301-3.381h1.499v3.752h1.573v2.329h-1.573v3.851h1.573v2.328h-1.573v1.102h-1.611v-1.102h-5.189zm2.304 0.372h2.885v-1.783zm0-6.18h2.885v-1.784z" fill="#fff"/></g><g transform="translate(-86.758 31.295)"><g clip-path="url(#clipPath72)" fill="#fff"><g transform="translate(44.517 319.58)"><path d="m0 0c-0.441 0-0.714-0.289-0.714-0.765v-1.121h1.394s0.017 0.697 0.017 1.121c0 0.426-0.255 0.765-0.697 0.765" fill="#fff"/></g><g transform="translate(43.633 310.23)"><path d="m0 0c0-0.799 0.544-1.054 0.883-1.054l3.467-0.016c0.272 0 0.85 0.271 0.85 1.036 0 0.764-0.323 1.036-0.799 1.036h-0.917v-1.07h-1.648v4.231h-0.919v-3.109c-0.493 0-0.917-0.256-0.917-1.054" fill="#fff"/></g><g transform="translate(47.151 318.86)"><path d="m0 0v-1.172h1.411s0.017 0.748 0.017 1.172c0 0.425-0.255 0.765-0.697 0.765s-0.731-0.289-0.731-0.765" fill="#fff"/></g><g transform="translate(43.266 322.82)"><path d="m0 0c0.085 0.037 0.172 0.073 0.265 0.104 0 0 0.973 0.312 1.614 0 0.64-0.312 0.968-0.951 1.036-1.377 0.154 0.442 0.402 1.173 1.207 1.377 0.611 0.155 1.029 0.146 1.458 0.039 0.1-0.022 0.2-0.057 0.294-0.1l-2.943 2.045-2.968-2.105c0.012 6e-3 0.025 0.012 0.037 0.017" fill="#fff"/></g><g transform="translate(38.244 335.94)"><path d="m0 0v-4.369l1.425-0.99-1.425-0.995v-3.435l-0.015 6e-3 0.015-0.016v-0.184l0.479-0.479c-0.302-0.272-0.518-0.697-0.518-1.334v-4.64l1.139-1.172c-0.033-0.033-0.065-0.066-0.098-0.098-0.186-0.185-0.36-0.379-0.518-0.593-0.038-0.051-0.074-0.104-0.11-0.158-0.457-0.684-0.752-1.576-0.752-2.992 0-0.354 0.02-0.674 0.055-0.971 8e-3 -0.068 0.016-0.134 0.025-0.199 0.011-0.07 0.023-0.139 0.035-0.206 0.221-1.206 0.757-1.995 1.533-2.924l-1.325 0.323v-3.419l1.58-1.581-1.58-0.189v-2.781l1.563-1.486-1.581-0.265v-3.117l7.053-7.079 9.041 1.784v2.992l-1.529 1.563 1.507 0.397c0 2.904 1e-3 2.904 1e-3 2.904l-1.508 1.611c0.1 0.064 0.197 0.137 0.292 0.216 0.338 0.28 0.636 0.653 0.874 1.136 0.124 0.234 0.225 0.474 0.307 0.712 0.26 0.761 0.334 1.508 0.353 2.016 6e-3 0.142 7e-3 0.266 7e-3 0.366 0 0.201-0.011 0.428-0.033 0.672-0.046 0.516-0.147 1.11-0.327 1.727-0.097 0.33-0.216 0.665-0.361 0.996-0.123 0.314-0.248 0.578-0.36 0.786h0.782l4e-3 6.433c-0.04 1.072-0.497 1.501-0.833 1.885l0.815-0.567v3.884l-1.053 1.053 1.053 0.746v3.862l-3.927 3.928v-3.862l-1.302-0.923 1.302-0.877v-4.001l-0.488 0.339c0.267-0.327 0.502-1.072 0.502-2.035v-5.966h-0.796c0.867-1.461 1.122-3.144 1.122-4.18s-0.136-4.622-3.687-5.217l3.361-0.684v-3.399l-3.209-0.964 3.209-0.93v-3.453l-8.375-1.668v3.11l3.11 0.697-3.092 0.782v3.059l3.041 0.714-3.049 0.759v2.821l1.74-0.317c-1.359 0.968-2.005 1.903-2.005 4.537s0.917 3.858 1.495 4.35h-1.23v5.812c0 1.054 0.209 1.709 0.601 2.137l-0.611-0.433v3.955l1.425 0.995-1.425 0.99v3.818l4.232-2.848 4.129 2.882-3.724 3.724-3.727-2.602z" fill="#fff"/></g><g transform="translate(100.24 316.99)"><path d="m0 0c-0.044 0-0.071-0.029-0.071-0.077v-0.112h0.139s2e-3 0.07 2e-3 0.112c0 0.043-0.026 0.077-0.07 0.077" fill="#fff"/></g><g transform="translate(100.15 316.06)"><path d="m0 0c0-0.08 0.054-0.105 0.088-0.105l0.347-2e-3c0.027 0 0.085 0.027 0.085 0.104 0 0.076-0.032 0.103-0.08 0.103h-0.092v-0.107h-0.164v0.423h-0.092v-0.311c-0.05 0-0.092-0.025-0.092-0.105" fill="#fff"/></g><g transform="translate(100.5 316.92)"><path d="m0 0v-0.117h0.141s2e-3 0.075 2e-3 0.117c0 0.043-0.026 0.077-0.07 0.077s-0.073-0.029-0.073-0.077" fill="#fff"/></g><g transform="translate(100.11 317.31)"><path d="m0 0c8e-3 4e-3 0.017 7e-3 0.026 0.01 0 0 0.098 0.032 0.162 0 0.064-0.031 0.097-0.095 0.104-0.137 0.015 0.044 0.04 0.117 0.12 0.137 0.061 0.016 0.103 0.015 0.146 4e-3 0.01-2e-3 0.02-5e-3 0.029-0.01l-0.294 0.205-0.297-0.211c1e-3 1e-3 3e-3 1e-3 4e-3 2e-3" fill="#fff"/></g><g transform="translate(99.609 318.63)"><path d="m0 0v-0.437l0.142-0.099-0.142-0.099v-0.344l-1e-3 1e-3 1e-3 -2e-3v-0.018l0.048-0.048c-0.03-0.027-0.052-0.07-0.052-0.134v-0.463l0.114-0.118-0.01-0.01c-0.018-0.018-0.036-0.037-0.052-0.059-3e-3 -5e-3 -7e-3 -0.01-0.011-0.016-0.045-0.068-0.075-0.157-0.075-0.299 0-0.035 2e-3 -0.067 6e-3 -0.097 1e-3 -7e-3 1e-3 -0.013 2e-3 -0.02s3e-3 -0.014 4e-3 -0.02c0.022-0.121 0.076-0.2 0.153-0.293l-0.132 0.032v-0.342l0.157-0.158-0.157-0.018v-0.279l0.156-0.148-0.158-0.027v-0.311l0.705-0.708 0.904 0.178v0.299l-0.153 0.157 0.151 0.039v0.291l-0.151 0.161c0.01 6e-3 0.02 0.014 0.029 0.021 0.034 0.029 0.064 0.066 0.088 0.114 0.012 0.023 0.022 0.047 0.031 0.071 0.026 0.076 0.033 0.151 0.035 0.202 0 0.014 1e-3 0.027 1e-3 0.036 0 0.021-2e-3 0.043-4e-3 0.068-4e-3 0.051-0.014 0.111-0.032 0.172-0.01 0.033-0.022 0.067-0.037 0.1-0.012 0.031-0.024 0.058-0.036 0.079h0.079v0.643c-4e-3 0.107-0.05 0.15-0.083 0.188l0.081-0.056v0.388l-0.105 0.105 0.105 0.075v0.386l-0.393 0.393v-0.386l-0.13-0.093 0.13-0.087v-0.4l-0.048 0.034c0.026-0.033 0.05-0.108 0.05-0.204v-0.596h-0.08c0.087-0.147 0.113-0.315 0.113-0.419 0-0.103-0.014-0.462-0.369-0.521l0.336-0.069v-0.34l-0.321-0.096 0.321-0.093v-0.345l-0.838-0.167v0.311l0.311 0.07-0.309 0.078v0.306l0.304 0.071-0.305 0.076v0.282l0.174-0.032c-0.136 0.097-0.2 0.191-0.2 0.454 0 0.264 0.092 0.386 0.149 0.435h-0.123v0.581c0 0.106 0.021 0.171 0.061 0.214l-0.061-0.043v0.395l0.142 0.1-0.142 0.099v0.382l0.423-0.285 0.412 0.288-0.372 0.372-0.373-0.26z" fill="#fff"/></g><g transform="translate(91.159 322.37)"><path d="m0 0v-0.446l-0.721 0.446zm0-1.545v-0.446l-0.721 0.446zm0 2.127h-1.297v-0.675l1.297-0.827v-0.043h-1.297v-0.675l1.325-0.845h0.375v0.938h0.393v0.582h-0.393v0.963h0.393v0.582h-0.393v0.276h-0.403z" fill="#fff"/></g><g transform="translate(88.388 317.42)"><path d="m0 0c-0.11 0-0.178-0.072-0.178-0.191v-0.28h0.348s4e-3 0.174 4e-3 0.28-0.064 0.191-0.174 0.191" fill="#fff"/></g><g transform="translate(88.168 315.08)"><path d="m0 0c0-0.2 0.136-0.264 0.221-0.264l0.867-4e-3c0.067 0 0.212 0.068 0.212 0.26 0 0.191-0.081 0.259-0.2 0.259h-0.229v-0.268h-0.412v1.058h-0.23v-0.777c-0.123 0-0.229-0.064-0.229-0.264" fill="#fff"/></g><g transform="translate(89.047 317.24)"><path d="m0 0v-0.293h0.353s4e-3 0.187 4e-3 0.293-0.064 0.191-0.174 0.191c-0.111 0-0.183-0.072-0.183-0.191" fill="#fff"/></g><g transform="translate(88.076 318.23)"><path d="m0 0c0.021 9e-3 0.043 0.018 0.066 0.026 0 0 0.244 0.078 0.404 0s0.242-0.238 0.259-0.344c0.038 0.11 0.1 0.293 0.302 0.344 0.152 0.039 0.257 0.037 0.364 0.01 0.025-6e-3 0.05-0.015 0.074-0.025l-0.736 0.511-0.742-0.526c3e-3 1e-3 6e-3 3e-3 9e-3 4e-3" fill="#fff"/></g><g transform="translate(86.82 321.51)"><path d="m0 0v-1.092l0.356-0.248-0.356-0.248v-0.859l-4e-3 2e-3 4e-3 -5e-3v-0.046l0.12-0.119c-0.076-0.068-0.13-0.175-0.13-0.334v-1.16l0.285-0.293-0.024-0.024c-0.047-0.047-0.09-0.095-0.13-0.149-9e-3 -0.012-0.019-0.026-0.028-0.039-0.114-0.171-0.187-0.394-0.187-0.748 0-0.089 5e-3 -0.169 0.013-0.243 2e-3 -0.017 4e-3 -0.034 7e-3 -0.05 2e-3 -0.017 5e-3 -0.034 8e-3 -0.051 0.056-0.302 0.19-0.499 0.384-0.731l-0.332 0.081v-0.855l0.395-0.396-0.395-0.047v-0.695l0.391-0.371-0.395-0.067v-0.779l1.763-1.77 2.26 0.446v0.748l-0.382 0.391 0.377 0.099v0.726l-0.377 0.403c0.025 0.016 0.049 0.034 0.073 0.054 0.085 0.07 0.159 0.163 0.219 0.284 0.031 0.059 0.056 0.118 0.076 0.178 0.066 0.19 0.084 0.377 0.089 0.504 1e-3 0.036 1e-3 0.067 1e-3 0.092 0 0.05-2e-3 0.107-8e-3 0.168-0.011 0.128-0.037 0.277-0.082 0.431-0.024 0.083-0.054 0.166-0.09 0.249-0.031 0.079-0.062 0.145-0.09 0.197h0.196l1e-3 1.608c-0.01 0.268-0.125 0.375-0.209 0.471l0.204-0.141v0.971l-0.263 0.263 0.263 0.186v0.966l-0.982 0.982v-0.966l-0.325-0.23 0.325-0.22v-1l-0.122 0.085c0.067-0.082 0.126-0.268 0.126-0.509v-1.491h-0.199c0.216-0.366 0.28-0.786 0.28-1.045 0-0.26-0.034-1.156-0.921-1.305l0.84-0.171v-0.849l-0.802-0.241 0.802-0.233v-0.863l-2.094-0.417v0.777l0.778 0.174-0.773 0.196v0.765l0.76 0.178-0.762 0.19v0.705l0.435-0.079c-0.34 0.242-0.502 0.476-0.502 1.134 0 0.659 0.23 0.965 0.374 1.088h-0.307v1.453c0 0.263 0.052 0.427 0.15 0.534l-0.153-0.108v0.989l0.356 0.248-0.356 0.248v0.954l1.058-0.712 1.032 0.721-0.931 0.931-0.931-0.651z" fill="#fff"/></g><g transform="translate(75.965 328.04)"><path d="m0 0v-0.892l-1.443 0.892zm0-3.09v-0.892l-1.443 0.892zm0 4.254h-2.595v-1.35l2.595-1.655v-0.085h-2.595v-1.35l2.651-1.69h0.749v1.876h0.787v1.164h-0.787v1.926h0.787v1.164h-0.787v0.551h-0.805z" fill="#fff"/></g><g transform="translate(70.424 318.14)"><path d="m0 0c-0.221 0-0.357-0.144-0.357-0.382v-0.561h0.697s8e-3 0.349 8e-3 0.561-0.127 0.382-0.348 0.382" fill="#fff"/></g><g transform="translate(69.982 313.47)"><path d="m0 0c0-0.399 0.272-0.527 0.442-0.527l1.733-8e-3c0.136 0 0.425 0.136 0.425 0.518s-0.161 0.518-0.399 0.518h-0.459v-0.535h-0.824v2.116h-0.459v-1.555c-0.247 0-0.459-0.128-0.459-0.527" fill="#fff"/></g><g transform="translate(71.741 317.78)"><path d="m0 0v-0.586h0.705s9e-3 0.374 9e-3 0.586c0 0.213-0.127 0.382-0.349 0.382-0.221 0-0.365-0.144-0.365-0.382" fill="#fff"/></g><g transform="translate(69.798 319.76)"><path d="m0 0c0.042 0.019 0.086 0.036 0.132 0.052 0 0 0.487 0.156 0.807 0 0.321-0.156 0.485-0.476 0.519-0.688 0.077 0.221 0.201 0.586 0.603 0.688 0.306 0.077 0.515 0.073 0.729 0.019 0.05-0.01 0.1-0.028 0.147-0.049l-1.471 1.022-1.484-1.052c6e-3 2e-3 0.012 5e-3 0.018 8e-3" fill="#fff"/></g><g transform="translate(67.287 326.32)"><path d="m0 0v-2.184l0.712-0.496-0.712-0.497v-1.717l-7e-3 3e-3 7e-3 -8e-3v-0.092l0.239-0.24c-0.151-0.136-0.258-0.348-0.258-0.667v-2.32l0.569-0.586c-0.017-0.016-0.033-0.033-0.049-0.049-0.093-0.093-0.18-0.19-0.259-0.296-0.019-0.026-0.037-0.052-0.055-0.079-0.229-0.342-0.376-0.788-0.376-1.497 0-0.177 0.01-0.337 0.027-0.485 4e-3 -0.034 8e-3 -0.067 0.013-0.1 5e-3 -0.035 0.011-0.069 0.017-0.103 0.111-0.603 0.379-0.997 0.767-1.462l-0.663 0.162v-1.71l0.79-0.79-0.79-0.094 1e-3 -1.391 0.781-0.743-0.79-0.133v-1.558l3.526-3.539 4.521 0.891v1.496l-0.765 0.782 0.754 0.199v1.451l-0.754 0.806c0.05 0.032 0.099 0.069 0.146 0.108 0.169 0.14 0.318 0.326 0.437 0.568 0.062 0.117 0.112 0.237 0.153 0.356 0.131 0.38 0.167 0.754 0.177 1.008 3e-3 0.071 4e-3 0.133 4e-3 0.183 0 0.1-6e-3 0.214-0.017 0.336-0.023 0.258-0.073 0.555-0.164 0.863-0.048 0.165-0.108 0.333-0.18 0.499-0.062 0.156-0.124 0.289-0.18 0.392h0.391l2e-3 3.217c-0.02 0.536-0.249 0.75-0.416 0.942l0.407-0.283v1.942l-0.526 0.526 0.526 0.374v1.931l-1.964 1.963v-1.931l-0.65-0.461 0.65-0.438v-2.001l-0.244 0.17c0.134-0.164 0.251-0.536 0.251-1.018v-2.983h-0.397c0.433-0.73 0.561-1.572 0.561-2.09s-0.069-2.311-1.844-2.608l1.68-0.343v-1.699l-1.604-0.482 1.604-0.465v-1.726l-4.187-0.834v1.555l1.555 0.348-1.546 0.391v1.53l1.521 0.356-1.525 0.38v1.411l0.87-0.159c-0.68 0.484-1.003 0.951-1.003 2.268 0 1.318 0.459 1.929 0.748 2.176h-0.615v2.906c0 0.527 0.105 0.854 0.301 1.068l-0.306-0.217v1.978l0.712 0.497-0.712 0.496v1.909l2.116-1.425 2.064 1.441-1.862 1.862-1.863-1.301z" fill="#fff"/></g></g></g></g><g transform="translate(-15.183 19.521)"><g clip-path="url(#clipPath108)" fill="#fff"><text transform="matrix(0,1,1,0,1200,1)" fill="#ffffff" font-family="'Helvetica LT Std'" font-size="6px"><tspan x="0 4.0019999 8.0039997 12.006 15.342 20.01 23.346001 26.346001 30.677999 34.014 37.349998 40.686001 44.021999 48.689999 53.021999 54.689999 59.021999 63.023998 66.360001 69.360001 73.692001 77.694 81.695999 83.363998 87.365997 91.367996 95.699997 97.367996 98.699997 102.036 105.372 108.708 113.712" y="0">EXPLO_JUL18_GRIDS_vREVISED.indd 1</tspan></text>
</g></g><g transform="translate(-15.183 19.521)"><g clip-path="url(#clipPath112)" fill="#fff"><g transform="translate(1195.8 739.75)"><path d="m0 0c0-0.648 0.348-1.095 1.043-1.339 0.363-0.127 0.806-0.19 1.327-0.19 0.705 0 1.207 0.142 1.505 0.427 0.297 0.286 0.446 0.624 0.446 1.017 0 0.459-0.147 0.813-0.441 1.061s-0.631 0.372-1.012 0.372c-0.445 0-0.78-0.131-1.005-0.393-0.224-0.262-0.337-0.568-0.337-0.92 0-0.207 0.039-0.394 0.118-0.562 0.087-0.184 0.22-0.336 0.398-0.457-0.508 0.019-0.898 0.116-1.17 0.29-0.273 0.173-0.409 0.408-0.409 0.703 0 0.258 0.088 0.45 0.264 0.577 0.093 0.068 0.223 0.118 0.389 0.149v0.522c-0.258 0-0.508-0.092-0.751-0.277s-0.365-0.511-0.365-0.98zm3.853-0.038c0-0.275-0.091-0.491-0.271-0.646-0.181-0.155-0.404-0.233-0.67-0.233-0.303 0-0.529 0.085-0.68 0.256-0.15 0.171-0.225 0.37-0.225 0.597 0 0.324 0.097 0.547 0.291 0.67 0.195 0.123 0.399 0.185 0.614 0.185 0.254 0 0.474-0.069 0.661-0.207 0.186-0.137 0.28-0.345 0.28-0.622z" fill="#fff" stroke="#fff" stroke-miterlimit="10" stroke-width=".4"/></g><g transform="translate(1197 744.57)"><path d="m0 0h2.971v0.562h-4.178v-0.416c0.324-0.074 0.53-0.186 0.617-0.336 0.087-0.151 0.149-0.416 0.186-0.797h0.404z" fill="#fff" stroke="#fff" stroke-miterlimit="10" stroke-width=".4"/></g><g transform="translate(1197 747.9)"><path d="m0 0h2.971v0.562h-4.178v-0.416c0.324-0.074 0.53-0.186 0.617-0.336 0.087-0.151 0.149-0.416 0.186-0.797h0.404z" fill="#fff" stroke="#fff" stroke-miterlimit="10" stroke-width=".4"/></g><g transform="translate(1197 752.91)"><path d="m0 0h2.971v0.562h-4.178v-0.416c0.324-0.074 0.53-0.186 0.617-0.336 0.087-0.151 0.149-0.416 0.186-0.797h0.404z" fill="#fff" stroke="#fff" stroke-miterlimit="10" stroke-width=".4"/></g><g transform="translate(1197.6 756.31)"><path d="m0 0c0-0.199-0.056-0.371-0.167-0.518-0.112-0.146-0.267-0.219-0.464-0.219-0.176 0-0.33 0.057-0.461 0.17-0.132 0.113-0.197 0.296-0.197 0.549 0 0.256 0.065 0.446 0.197 0.571 0.131 0.124 0.275 0.187 0.431 0.187 0.18 0 0.336-0.066 0.466-0.196 0.13-0.131 0.195-0.312 0.195-0.544zm2.077 0.034c0-0.305-0.079-0.53-0.239-0.676-0.159-0.145-0.348-0.218-0.567-0.218-0.253 0-0.452 0.08-0.596 0.239-0.143 0.159-0.215 0.365-0.215 0.617 0 0.259 0.07 0.472 0.211 0.638s0.347 0.249 0.618 0.249c0.262 0 0.459-0.08 0.59-0.241 0.132-0.162 0.198-0.364 0.198-0.608zm-1.875-0.75c0.096-0.239 0.234-0.418 0.415-0.539 0.18-0.121 0.395-0.182 0.643-0.182 0.422 0 0.743 0.141 0.965 0.423 0.222 0.283 0.333 0.628 0.333 1.036 0 0.453-0.129 0.804-0.386 1.052-0.256 0.248-0.569 0.372-0.939 0.372-0.312 0-0.566-0.093-0.761-0.28-0.104-0.1-0.196-0.237-0.276-0.411-0.088 0.156-0.177 0.271-0.269 0.345-0.162 0.133-0.374 0.199-0.636 0.199-0.283 0-0.531-0.114-0.743-0.342s-0.318-0.543-0.318-0.945c0-0.416 0.113-0.737 0.337-0.963 0.225-0.226 0.494-0.34 0.806-0.34 0.25 0 0.453 0.078 0.609 0.232 0.084 0.082 0.158 0.196 0.22 0.343z" fill="#fff" stroke="#fff" stroke-miterlimit="10" stroke-width=".4"/></g><g transform="translate(1197 764.58)"><path d="m0 0h2.971v0.562h-4.178v-0.416c0.324-0.074 0.53-0.186 0.617-0.336 0.087-0.151 0.149-0.416 0.186-0.797h0.404z" fill="#fff" stroke="#fff" stroke-miterlimit="10" stroke-width=".4"/></g><g transform="translate(1197 767.92)"><path d="m0 0h2.971v0.562h-4.178v-0.416c0.324-0.074 0.53-0.186 0.617-0.336 0.087-0.151 0.149-0.416 0.186-0.797h0.404z" fill="#fff" stroke="#fff" stroke-miterlimit="10" stroke-width=".4"/></g><g transform="translate(1200.1 772.92)"><path d="m0 0c0 0.484-0.126 0.858-0.378 1.122s-0.578 0.396-0.978 0.396c-0.25 0-0.462-0.062-0.635-0.186s-0.289-0.297-0.35-0.518c-0.056 0.137-0.135 0.248-0.234 0.334-0.16 0.139-0.369 0.208-0.627 0.208-0.361 0-0.637-0.117-0.828-0.351-0.19-0.234-0.285-0.566-0.285-0.993 0-0.541 0.195-0.919 0.586-1.134 0.218-0.125 0.484-0.188 0.796-0.188v0.522c-0.238 0.01-0.421 0.052-0.55 0.126-0.235 0.135-0.352 0.378-0.352 0.729 0 0.198 0.057 0.37 0.17 0.519 0.113 0.148 0.274 0.223 0.483 0.223 0.282 0 0.477-0.112 0.586-0.334 0.063-0.127 0.094-0.289 0.094-0.487 0-0.043-1e-3 -0.083-3e-3 -0.12s-6e-3 -0.083-0.012-0.138h0.466c-2e-3 0.038-3e-3 0.074-4e-3 0.11s-2e-3 0.072-2e-3 0.107c0 0.315 0.058 0.56 0.173 0.737s0.318 0.265 0.607 0.265c0.234 0 0.425-0.084 0.574-0.252 0.148-0.168 0.223-0.39 0.223-0.668 0-0.357-0.111-0.604-0.332-0.741-0.123-0.078-0.32-0.129-0.591-0.152v-0.551c0.39 0 0.722 0.112 0.994 0.335 0.273 0.224 0.409 0.584 0.409 1.08z" fill="#fff" stroke="#fff" stroke-miterlimit="10" stroke-width=".4"/></g><g transform="translate(1195.8 776.45)"><path d="m0 0c0-0.648 0.348-1.095 1.043-1.339 0.363-0.127 0.806-0.19 1.327-0.19 0.705 0 1.207 0.142 1.505 0.427 0.297 0.286 0.446 0.624 0.446 1.017 0 0.459-0.147 0.813-0.441 1.061s-0.631 0.372-1.012 0.372c-0.445 0-0.78-0.131-1.005-0.393-0.224-0.262-0.337-0.568-0.337-0.92 0-0.207 0.039-0.394 0.118-0.562 0.087-0.184 0.22-0.336 0.398-0.457-0.508 0.019-0.898 0.116-1.17 0.29-0.273 0.173-0.409 0.408-0.409 0.703 0 0.258 0.088 0.45 0.264 0.577 0.093 0.068 0.223 0.118 0.389 0.149v0.522c-0.258 0-0.508-0.092-0.751-0.277s-0.365-0.511-0.365-0.98zm3.853-0.038c0-0.275-0.091-0.491-0.271-0.646-0.181-0.155-0.404-0.233-0.67-0.233-0.303 0-0.529 0.085-0.68 0.256-0.15 0.171-0.225 0.37-0.225 0.597 0 0.324 0.097 0.547 0.291 0.67 0.195 0.123 0.399 0.185 0.614 0.185 0.254 0 0.474-0.069 0.661-0.207 0.186-0.137 0.28-0.345 0.28-0.622z" fill="#fff" stroke="#fff" stroke-miterlimit="10" stroke-width=".4"/></g><g transform="translate(1200 784.15)"><path d="m0 0v0.557h-2.54c-0.102 0-0.26-3e-3 -0.476-9e-3s-0.377-9e-3 -0.482-9e-3h-0.132l3.63 1.241v0.577l-3.63 1.229c0.233 0 0.45-2e-3 0.653-6e-3 0.204-4e-3 0.349-6e-3 0.437-6e-3h2.54v0.557h-4.304v-0.829l3.639-1.229-3.639-1.238v-0.835z" fill="#fff" stroke="#fff" stroke-miterlimit="10" stroke-width=".4"/></g></g></g><g transform="translate(-15.183 19.521)"><g clip-path="url(#clipPath116)" fill="#fff"><text transform="matrix(0,1,1,0,1200,738)" fill="#ffffff" font-family="'Helvetica LT Std'" font-size="6px"><tspan x="0 3.336 5.0040002 8.3400002 11.676 13.344 16.68 20.016001 25.02 28.356001 31.691999 33.360001 36.695999 40.032001 41.700001 45.702" y="0">6/11/18 11:36 AM</tspan></text>
</g></g></g></svg>
