<svg width="1e3" height="352.07" version="1.1" viewBox="0 0 282.22 99.362" xmlns="http://www.w3.org/2000/svg">
 <g transform="matrix(7.0828 0 0 7.0828 -911.36 -1371.3)" fill="#125687">
  <path d="m134.99 193.61-6.3159 6.0064 1.6335 8.0222h2.7745l1.1948-1.3105 0.52039 1.3105h2.5823l1.2335-1.3105s1.137 1.3105 3.7192 1.3105 3.8732-0.63614 3.8732-0.63614v0.63614h6.2048l1.2335-0.57826-0.57826 0.57826h3.3926l0.8785-0.90951 0.63355 0.90951h3.3796l6.7851-6.5903-2.3508-3.3145 2.7363-4.1238h-3.854l-0.80925 1.1948-0.73226-1.1948h-3.3915l-0.31884 0.46044s0.041-0.14303-0.23152-0.29973c-0.27251-0.1567-5.0384-0.16071-5.0384-0.16071l-1.0402 1.1948s-0.578-1.1948-3.4685-1.1948-3.6613 1.1948-3.6613 1.1948l0.26975-1.1948h-3.1605l-1.1178 1.1948h-0.26975v-1.1948h-2.5823l-1.1948 1.1948-0.154-1.1948zm10.831 2.9993c1.64 0 2.8826 0.41709 3.729 1.2511v-1.0464h5.4286c0.79549 8e-3 1.3787 0.22636 1.7518 0.65422l-0.36948-0.57723h3.1936l0.99374 2.0996 1.0573-2.0996h3.0246l-2.358 3.6158 2.4531 3.7796h-3.1936l-1.1312-2.2329-1.1741 2.2329h-3.0241l0.26975-0.41238c-0.34098 0.22171-0.79632 0.34146-1.3705 0.35554l-5.5516-0.0202v-0.76171c-0.13505 0.0828-0.27924 0.16345-0.44131 0.23926-1.0584 0.48482-2.1306 0.72709-3.2164 0.72709-1.6388 0-2.8782-0.47454-3.7181-1.4237-0.45326-0.6064-0.70108-1.3097-0.74776-2.1084l-0.60152 3.3274h-3.0112l-0.86041-2.8169-0.80926 2.8169h-3.0629l-1.4438-7.3851h2.7347l0.62477 2.7244 0.68626-2.7244h2.6629l0.67592 2.6836 0.65578-2.6836h2.4784v0.0207l-0.2744 1.5188c0.30383-0.53076 0.75612-0.96562 1.358-1.3038 0.64187-0.30045 1.5024-0.45062 2.5812-0.45062zm11.173 1.2712c0.13238 0.28455 0.20962 0.62408 0.22738 1.0227-0.0409 1.0174-0.49495 1.5606-1.3622 1.6288 0.8672 0.10925 1.3212 0.69642 1.3622 1.7616-3e-3 0.18892-0.0238 0.36221-0.0579 0.52349l1.5126-2.3104zm-11.03 0.40824c-0.60773 0-0.91509 0.22226-0.92191 0.66611l-0.0103 3.0928c0 0.49847 0.28384 0.75126 0.8506 0.75809 0.63503 0 0.95239-0.21525 0.95239-0.64544v-0.83974h-0.9219v-1.4237h3.637v-0.79891h-2.6334c0-0.53945-0.31735-0.80926-0.95239-0.80926zm6.505 0.22531v1.2702h0.90124c0.48482-0.0137 0.72709-0.22892 0.72709-0.64544-7e-3 -0.41653-0.25557-0.62477-0.74724-0.62477zm0 2.7761v1.2599h0.91158c0.47115 0 0.73745-0.20524 0.79891-0.61495-0.0615-0.42336-0.32777-0.63809-0.79891-0.64492z" fill="#125687"/>
 </g>
</svg>
