<svg width="596.2" height="264.49" version="1.1" viewBox="0 0 596.2 264.49" xml:space="preserve" xmlns="http://www.w3.org/2000/svg"><g fill="#47afc8"><path d="m73.573 245.9h-13.67l6.8095-18.905zm-2.3886-28.374c-0.18412-0.48787-0.65-0.80912-1.17-0.80912h-6.4854c-0.5195 0-0.98475 0.32038-1.1689 0.80662l-16.852 44.51c-0.146 0.38379-0.09375 0.81494 0.14025 1.1523 0.23338 0.33887 0.61762 0.54004 1.0282 0.54004h5.915c0.52688 0 0.99762-0.33105 1.1764-0.82616l3.644-10.112h18.66l3.7056 10.119c0.17962 0.49268 0.64838 0.81982 1.1732 0.81982h5.8511c0.41012 0 0.79438-0.20117 1.0279-0.54004 0.23388-0.33593 0.28662-0.76708 0.1415-1.1509l-16.788-44.509"/><path d="m182.1 216.72h-5.7862c-0.41125 0-0.79625 0.20263-1.03 0.54l-14.868 21.588-14.864-21.588c-0.23375-0.33737-0.61875-0.54-1.03-0.54h-5.8512c-0.69 0-1.25 0.55912-1.25 1.25v44.509c0 0.69141 0.56 1.25 1.25 1.25h5.2138c0.69 0 1.25-0.55859 1.25-1.25v-32.89l14.194 20.442c0.23375 0.3365 0.61625 0.53763 1.0262 0.53763s0.7925-0.20013 1.0262-0.53663l14.192-20.386v32.833c0 0.69141 0.56 1.25 1.25 1.25h5.2762c0.69125 0 1.25-0.55859 1.25-1.25v-44.509c0-0.69088-0.55875-1.25-1.25-1.25"/><path d="m266.92 256.4h-24.248v-13.078h21.385c0.69125 0 1.25-0.55862 1.25-1.25v-4.5146c0-0.6915-0.55875-1.25-1.25-1.25h-21.385v-12.253h23.865c0.69125 0 1.25-0.5585 1.25-1.25v-4.8325c0-0.69087-0.55875-1.25-1.25-1.25h-30.521c-0.69 0-1.25 0.55913-1.25 1.25v44.509c0 0.69141 0.56 1.25 1.25 1.25h30.904c0.69 0 1.25-0.55859 1.25-1.25v-4.831c0-0.69141-0.56-1.25-1.25-1.25"/><path d="m326.33 223.8h11.911c7.8262 0 8.6712 5.2622 8.6712 7.5235 0 1.7949-0.63 7.6514-8.7362 7.6514h-11.846zm19.649 20.691c5.5262-2.2374 8.9-7.1885 8.9-13.23 0-7.0289-4.355-14.538-16.574-14.538h-18.63c-0.69125 0-1.25 0.55912-1.25 1.25v44.509c0 0.69141 0.55875 1.25 1.25 1.25h5.405c0.69125 0 1.25-0.55859 1.25-1.25v-16.681h12.076l8.1812 17.218c0.2075 0.43603 0.64625 0.71337 1.1288 0.71337h5.9762c0.435 0 0.8375-0.22607 1.0662-0.59619 0.2275-0.36865 0.245-0.83105 0.0487-1.2188l-8.8288-17.426"/><path d="m413.07 216.72h-5.405c-0.69125 0-1.25 0.55912-1.25 1.25v44.509c0 0.69141 0.55875 1.25 1.25 1.25h5.405c0.69125 0 1.25-0.55859 1.25-1.25v-44.509c0-0.69088-0.55875-1.25-1.25-1.25"/><path d="m502.14 252.85c-0.2275-0.2412-0.54375-0.38232-0.8775-0.39111-0.32375-1e-3 -0.65375 0.11866-0.895 0.34864-3.0575 2.9326-7.0238 4.4839-11.47 4.4839-9.5925 0-15.791-6.874-15.791-17.511 0-10.093 6.1988-16.615 15.791-16.615 3.9675 0 7.6712 1.2838 11.006 3.8165 0.26625 0.20112 0.60125 0.28999 0.93125 0.24112 0.33125-0.0474 0.62875-0.225 0.8275-0.49362l2.9262-3.9414c0.40625-0.54637 0.29875-1.3199-0.24125-1.7364-4.3325-3.331-9.6975-5.0912-15.515-5.0912-13.952 0-23.696 9.7949-23.696 23.82 0 14.782 9.4725 24.715 23.57 24.715 6.6338 0 12.43-2.1875 16.76-6.3252 0.49875-0.4746 0.5175-1.2637 0.045-1.7622l-3.3712-3.5576"/><path d="m581.72 245.9h-13.67l6.81-18.905zm14.4 16.135-16.789-44.509c-0.1825-0.48787-0.64875-0.80912-1.1688-0.80912h-6.4862c-0.52 0-0.985 0.32038-1.1688 0.80662l-16.852 44.51c-0.145 0.38379-0.0925 0.81494 0.14125 1.1523 0.23375 0.33887 0.61875 0.54004 1.0288 0.54004h5.915c0.5275 0 0.9975-0.33105 1.1762-0.82616l3.6438-10.112h18.66l3.705 10.119c0.18125 0.49268 0.65 0.81982 1.175 0.81982h5.85c0.41 0 0.795-0.20117 1.0288-0.54004 0.2325-0.33593 0.28625-0.76708 0.14125-1.1509"/></g><g fill="#fff"><path d="m0.29155 9.7162c-1.1362-4.0038 1.1465-6.86 5.1445-6.86h33.416c2.2881 0 4.5714 2.0062 5.1446 4.0025l24.561 96.826h1.1465l44.269-100.54c0.854-1.71 2.5694-3.1425 4.852-3.1425h5.1398c2.5754 0 4.2904 1.4325 4.8579 3.1425l44.274 100.54h1.1412l24.566-96.825c0.56875-1.9975 2.8562-4.0038 5.14-4.0038h33.416c3.9975 0 6.2862 2.8562 5.14 6.86l-53.98 191.94c-0.5725 2.2836-2.8562 3.9941-5.145 3.9941h-4.5662c-2.0012 0-4.0025-1.4239-4.8575-3.1441l-52.269-116.81h-0.855l-51.983 116.81c-0.85988 1.7203-2.8565 3.1441-4.8525 3.1441h-4.5762c-2.2836 0-4.5664-1.7105-5.1396-3.9941l-53.985-191.94"/><path d="m331.88 0.2875c23.986 0 50.268 10.001 69.689 26.854 2.57 1.9962 2.8562 5.4262 0.57375 7.7088l-22.564 23.992c-2.2888 2.0012-5.4325 2.0012-7.715 0.28125-10.858-9.9925-23.42-13.709-37.415-13.709-31.132 0-56.268 26.281-56.268 57.701 0 31.134 25.421 56.836 56.55 56.836 8.2875 0 16.851-1.1411 25.42-4.5714v-16.565h-17.992c-3.1438 0-5.4262-2.2825-5.4262-5.14v-28.276c0-3.1438 2.2825-5.4262 5.4262-5.4262h57.409c2.8562 0 5.145 2.57 5.145 5.4262l0.28625 76.83c0 1.4288-1.1462 3.7115-2.2875 4.5714 0 0-29.419 18.562-70.831 18.562-56.841 0-102.54-45.124-102.54-102.25 0-57.128 45.702-102.83 102.54-102.83"/><path d="m415.28 5.1438c0-2.8562 2.575-5.1438 5.4312-5.1438h7.1412l113.96 109.68h0.28125v-101.39c0-2.8562 2.2888-5.4312 5.4262-5.4312h34.278c2.8562 0 5.4262 2.575 5.4262 5.4312v192.22c0 2.8559-2.57 5.1401-5.4262 5.1401h-4.5662c-0.86125 0-3.1438-0.855-3.7175-1.4239l-112.82-113.4h-0.2875v106.54c0 2.8565-2.2825 5.4262-5.4262 5.4262h-33.989c-2.8575 0-5.4262-2.5698-5.4262-5.4262l-0.2875-192.22"/></g></svg>
