<svg width="998.7" height="243" version="1.1" xmlns="http://www.w3.org/2000/svg">
 <g transform="matrix(2.0989 0 0 2.1019 -32.91 -104.02)" fill="#2a336c">
  <path transform="matrix(5.245 0 0 5.245 -1312.5 -154.19)" d="m261.54 55.647-4.379-16.514h-3.9319l6.0557 21.151h4.0107l4.0432-15.764 4.1772 15.764h3.9433l5.9883-21.151h-4.026l-4.2442 16.514-4.3794-16.574h-2.8112z"/>
  <path transform="matrix(5.245 0 0 5.245 -1312.5 -154.19)" d="m317.16 54.2-10.902-15.067h-3.8017v21.191h3.6301v-15.6l11.294 15.6h3.3768v-21.191h-3.5964z"/>
  <path d="m159.81 107.47c-0.30867-27.165 22.528-57.983 57.276-57.983 32.844 0 46.492 22.981 46.492 22.981l-16.263 8.8388s-9.0094-14.849-28.815-14.849c-25.298 0-38.891 20.331-38.891 41.896 0 20.634 14.522 39.598 37.3 39.598 18.104 0 28.461-10.43 28.461-10.43v-17.501h-33.234v-17.147h51.972v42.073s-15.645 20.153-44.724 20.153c-36.976 0-59.26-30.002-59.574-57.629z"/>
 </g>
 <path d="m764.81 3.7156h233.88v232.97h-233.88z" fill="#2a336c" fill-rule="evenodd"/>
 <path d="m856.1 3.7023c-43.36 10.19-47.828 46.064-49.193 80.396-1.2598 31.693 13.558 74.354 59.294 74.354 10.389 0 19.939-2.8901 19.939-2.8901l-46.438 81.119h50.898l51.685-99.248s12.856-17.844 12.856-59.378c0-22.303-4.3493-63.227-47.422-74.354zm25.055 37.308c15.698 0 28.335 12.655 28.335 28.375v22.858c0 15.72-12.637 28.375-28.335 28.375s-28.335-12.655-28.335-28.375v-22.858c0-15.72 12.637-28.375 28.335-28.375z" fill="#fff" fill-rule="evenodd"/>
 <g transform="matrix(10.851 0 0 10.815 -2292.2 -91.334)">
  <text x="300.60001" y="30.331289" fill="#000000" font-family="DIN" font-size="30px" font-weight="bold" style="line-height:0%" xml:space="preserve"> </text>
 </g>
</svg>
