<svg width="800" height="176.37" space="preserve" version="1.1" viewBox="0 0 800 176.37" xmlns="http://www.w3.org/2000/svg">
 <link href="" rel="stylesheet" type="text/css"/>
 <style type="text/css"/>
 <ellipse cx="716.5" cy="92.871" rx="83.505" ry="83.503" style="paint-order:stroke markers fill"/>
 <g transform="matrix(4.0733 0 0 4.0733 -479.02 -27314)">
  <path transform="matrix(.2455 0 0 .2455 127.05 6814.6)" d="m653.15-393.92v42.77c0.40733 14.257 11.814 25.254 26.07 25.254 13.442-0.40733 24.846-11.405 24.846-25.254 0.40733-13.849-10.996-25.662-24.846-25.662-5.2953 0-10.185 2.4443-13.443 6.5176v-23.625zm-28.92 16.701c-13.849 0-25.254 11.405-25.254 25.254s11.405 25.254 25.254 25.254c5.2953 0 10.183-2.4423 13.441-6.5156v6.9238h12.627v-25.662c-0.40733-14.257-11.812-25.254-26.068-25.254zm109.16 0c-13.849 0-25.254 11.405-25.254 25.254s11.405 25.254 25.254 25.254c11.813 0 22.404-8.1464 24.848-19.959h-12.627c-1.222 2.8513-3.6663 5.2956-6.5176 6.5176-6.11 2.8513-13.85-0.40762-16.701-6.5176-2.8513-6.11 2.9e-4 -13.848 6.5176-16.699 6.11-2.8513 13.85-2e-3 16.701 6.5156h12.627c-2.444-11.813-13.035-20.365-24.848-20.365zm-109.16 12.219c7.332 0 13.034 6.1105 12.627 13.035 0 6.9246-6.1106 12.627-13.035 12.627-6.9246 0-12.627-6.1086-12.627-13.033 0-6.9246 6.1105-12.629 13.035-12.629zm54.582 0c6.9246 0 12.627 6.1105 12.627 13.035 0 6.9246-6.1105 12.627-13.035 12.627-6.9246 0-12.627-6.1086-12.627-13.033 0-6.9246 6.1105-12.629 13.035-12.629z" clip-rule="evenodd" fill="#fff" fill-rule="evenodd" stroke-width="4.0733"/>
 </g>
 <g transform="matrix(4.0733 0 0 4.0733 1073.9 -3920.7)">
  <path class="st3" d="m-218.25 969.54h-9.4v1.6h1c0.5 0 1.1 0.2 1.5 0.5 0.2 0.1 0.4 0.3 0.5 0.6s0.1 0.7 0 1l-6.7 20c-2.4-6.7-4.8-13.4-7.1-20.1-0.1-0.3-0.1-0.6 0-0.9s0.3-0.5 0.5-0.7c0.3-0.3 1-0.2 1.9-0.3h1.1v-1.6h-13.6v1.6h0.6c0.7 0 1.4 0.2 2.1 0.5 0.6 0.4 1 1 1.3 1.6l2.3 5.8-4.8 13.6c-2.5-6.4-5.1-12.6-7.4-19.1 0-0.1-0.1-0.2-0.1-0.3v-0.7c0-0.3 0.1-0.7 0.3-1 0.2-0.2 0.5-0.4 0.8-0.4h1.9v-1.6h-12.1v1.6c0.7 0.1 1.4 0.3 2 0.7 0.7 0.6 1.2 1.3 1.4 2.2l11.2 29.7h1.1c2.4-6.8 4.8-13.6 7.2-20.4 2.6 6.8 5.1 13.7 7.7 20.4h1.1c3.4-9.9 6.9-19.9 10.3-29.8 0.2-0.5 0.4-1 0.7-1.4 0.4-0.6 1-1 1.7-1.3h1.2v-1.8z"/>
  <path class="st3" d="m-196.45 984.54v1.6h1.7c0.5 0 0.9 0.1 1.4 0.2 0.6 0.1 1.2 0.4 1.7 0.8 0.2 0.2 0.3 0.5 0.3 0.9v10.7c-0.4 0.3-0.7 0.6-1.1 0.8-1.3 0.8-2.8 1.4-4.3 1.6-2.7 0.4-5.4 0-7.8-1.4-1.7-1-3.1-2.5-4.1-4.2-1.4-2.3-2.3-4.8-2.4-7.5-0.5-3.2 0-6.4 1.3-9.4 1.1-2.8 3.2-5.1 5.8-6.5s5.5-1.7 8.3-0.9c2 0.7 3.8 2 5.1 3.7 0.9 1.1 1.6 2.4 2 3.7v0.9h1.6v-10.6h-1.6v1.2c0 0.5-0.6 0.7-1 0.7-0.2 0-0.4 0-0.5-0.1s-0.3-0.1-0.6-0.3c-2-0.8-4.1-1.4-6.3-1.7-3.4-0.4-6.8 0.2-9.9 1.5-5.8 2.6-9.7 8.2-10 14.5-0.5 3.4 0.1 6.9 1.7 10 3.3 6.3 9.8 8 11.1 8.3 4 0.9 8.1 0.7 11.9-0.7 2.2-0.7 4.4-1.7 6.3-2.9v-11.4c0-0.3 0.1-0.6 0.2-0.8 0 0 0-0.1 0.1-0.1 0.5-0.6 1.3-1 2.1-1h1.6v-1.6z"/>
  <path class="st3" d="m-111.55 985.94c0.1-3.7-0.9-7.4-3-10.5-1.9-2.6-4.5-4.6-7.5-5.7-2.8-1-5.8-1.3-8.7-0.8-2 0.3-4 0.9-5.8 1.8s-3.4 2.2-4.8 3.7c-3.6 4.1-3.6 9.2-3.6 11.4-0.2 3.7 0.7 7.4 2.7 10.5 1.8 2.6 4.3 4.7 7.3 6 3.7 1.6 7.8 1.8 11.6 0.7 4.2-1.2 7.8-4 10-7.8 1.4-2.8 2-6.1 1.8-9.3zm-7.2 8.2c-0.9 3-3.2 5.5-6.1 6.7-2.7 0.9-5.7 0.7-8.2-0.6-4.2-2.3-5.7-7.1-5.9-11.4-0.4-4.1 0.1-8.2 1.6-12 0.9-2 2.4-3.6 4.3-4.6 1.8-0.9 3.8-1.3 5.8-1.1 2.2 0.3 4.3 1.3 5.9 2.8 3 2.8 3.3 6.6 3.7 10.5 0.3 3.3-0.1 6.6-1.1 9.7z"/>
  <path class="st3" d="m-145.35 969.94c-1.2-1.3-3.1-0.7-3.4-0.6-1.3 0.5-2.3 1.6-2.7 2.9-0.2 0.6-0.3 1.2-0.4 1.9h-0.3c-0.1-0.9 0-1.8 0.2-2.6 0.2-0.6 0.4-1.1 0.7-1.6 0.3-0.3 0.5-0.6 0.7-1 0.2-0.7 0.2-1.4-0.1-2.1-0.5-1.6-1.3-3-2.3-4.3-1 1.3-1.7 2.8-2.2 4.4-0.3 0.7-0.3 1.4-0.1 2.1 0.2 0.4 0.4 0.4 0.7 1 0.3 0.5 0.6 1 0.7 1.6 0.3 0.8 0.3 1.7 0.3 2.6h-0.3c0-0.6-0.1-1.3-0.4-1.9-0.4-1.3-1.4-2.4-2.7-2.9-0.3-0.1-2.2-0.6-3.4 0.6-0.7 0.8-0.9 1.8-0.5 2.8 0.3 0.8 1 1.4 1.7 1.6 0-0.4 0.1-0.8 0.3-1.1 0.2-0.5 0.6-1 1.1-1.2 1.1-0.4 2.1 0.7 2.3 0.8 0.3 0.4 0.6 0.8 0.7 1.3h-0.9v0.7h0.9v0.7c-0.3 0.5-0.9 0.7-1.4 0.5-0.3-0.2-0.5-0.6-0.5-1 0-0.3 0.1-0.6 0.3-0.9-0.3-0.1-0.6-0.1-0.9 0-0.5 0.3-0.8 0.9-0.7 1.5 0.1 0.5 0.3 1 0.8 1.3s1.1 0.4 1.6 0.2c0.6-0.2 1-0.6 1.3-1.1 0.2-0.4 0.3-0.9 0.2-1.4h0.5v1.3c-0.3 0.5-0.6 1-0.9 1.5v14.7l-18.4-22.9h-9v1.6h0.2c0.8 0 1.6 0.1 2.4 0.4 1 0.5 1.8 1.4 2.3 2.5v25c0 0.3-0.2 0.7-0.3 1-0.6 0.8-1.6 1.3-2.7 1.3h-1.8v1.6h12.2v-1.6h-1.6c-0.7-0.1-1.4-0.3-2-0.7-0.4-0.3-0.8-0.7-1.1-1.1v-22.5l21.4 26.2h1.4c-0.1-8.4-0.2-16.9-0.3-25.3-0.3-0.6-0.5-0.9-0.8-1.5v-1.3h0.5c-0.1 0.5 0 1 0.3 1.4 0.3 0.5 0.8 0.9 1.3 1.1 0.6 0.2 1.2 0.1 1.6-0.2s0.7-0.8 0.8-1.3c0.1-0.6-0.2-1.2-0.7-1.5-0.3-0.1-0.6-0.1-0.9 0 0.2 0.2 0.3 0.6 0.3 0.9 0 0.4-0.2 0.7-0.5 1-0.4 0.2-0.8 0.1-1.1-0.1l-0.3-0.3v-0.7h0.9v-0.7h-0.9c0.1-0.5 0.4-0.9 0.7-1.3 0.1-0.1 1.2-1.2 2.3-0.9 0.5 0.2 0.9 0.7 1.1 1.2 0.2 0.4 0.3 0.7 0.3 1.1 0.8-0.3 1.4-0.9 1.7-1.6 0.6-1.3 0.4-2.4-0.2-3.1z"/>
 </g>
</svg>
