<svg width="800" height="393.21" version="1.1" viewBox="0 0 800 393.21" xml:space="preserve" xmlns="http://www.w3.org/2000/svg"><g transform="matrix(1.3333 0 0 -1.3333 -107.3 480.95)"><g transform="matrix(2.8151 0 0 2.8151 593.96 154.94)"><path d="m0 0h1.845c2.115 0 3.195-1.08 3.195-3.195v-27.493h-6.256v20.653h-5.715v4.5c3.42 0 6.077 2.475 6.931 5.535" fill="#d4d6d8"/></g><g transform="matrix(2.8151 0 0 2.8151 647.67 113.65)"><path d="m0 0c-1.755 0-3.195-0.72-4.23-2.205l-5.624 0.315 2.024 16.559h14.939c2.116 0 3.151-1.08 3.151-3.194v-2.115h-13.635l-0.855-5.94c1.621 1.035 3.33 1.575 5.085 1.575 7.2 0 10.799-3.465 10.799-10.305 0-7.154-3.914-10.844-11.744-11.069-6.84 0-10.484 3.105-10.845 9.315h6.165c0.045-2.925 1.62-4.365 4.68-4.365 3.51 0 5.265 1.934 5.265 5.804 0 3.735-1.71 5.625-5.175 5.625" fill="#d4d6d8"/></g><g transform="matrix(2.8151 0 0 2.8151 243.48 186.11)"><path d="m0 0-11.612-41.788h-10.901l-6.32 29.939-6.636-29.939h-10.98l-11.454 41.788h10.664l6.636-28.991 6.003 28.991h11.139l5.687-28.991 5.688 25.12c0.79 2.607 2.528 3.871 5.134 3.871z" fill="#75787b"/></g><g transform="matrix(2.8151 0 0 2.8151 311.98 161.42)"><path d="m0 0c-6.241 0-8.927-5.214-8.927-11.612v-21.408h-10.506v53.716h5.293c3.475 0 5.213-1.817 5.213-5.292v-12.482c5.372 6.162 11.928 7.9 19.749 5.135 5.845-2.133 8.611-7.741 8.294-16.826v-24.251h-10.427v21.408c0 7.03-2.686 11.612-8.689 11.612" fill="#75787b"/></g><g transform="matrix(2.8151 0 0 2.8151 380.92 129.18)"><path d="m0 0c0.315 13.508 7.504 20.223 21.486 20.223h1.501v-10.902h-3.554c-5.846 0-8.769-3.08-8.769-9.163v-21.723h-10.664z" fill="#75787b"/></g><g transform="matrix(2.8151 0 0 2.8151 488.56 126.73)"><path d="m0 0c0.079-8.137 2.844-12.244 8.215-12.244 5.372 0 8.057 4.265 8.137 12.56 0 8.136-2.686 12.165-8.058 12.165-5.529 0-8.294-4.187-8.294-12.481m27.332 0c0-14.377-6.398-21.645-19.038-21.645-12.639 0-18.958 7.268-18.958 21.645 0 14.535 6.319 21.724 18.958 21.724 12.64 0 19.038-7.189 19.038-21.724" fill="#75787b"/></g><g transform="matrix(2.8151 0 0 2.8151 553.8 312.5)"><path d="m0 0c-9.196 0.024-41.85 0.16-41.85 0.16-6.039 0.018-11.24-2.406-15.588-7.246-4.336-4.855-6.533-10.691-6.566-17.493l0.058-26.124s5.974 6.877 12.353 9.099c10.037 3.499 39.717 1.518 39.717 1.518l4.022-0.014c6.052-0.017 11.248 2.405 15.592 7.25 4.339 4.856 6.536 10.682 6.563 17.487l0.099 19.392s-5.212-4.057-14.4-4.029" fill="#dd6e2d"/></g><g transform="matrix(2.8151 0 0 2.8151 355.56 268.98)"><path d="m0 0h-6.554c-1.756 0-3.404 0.685-4.644 1.927-1.239 1.236-1.925 2.889-1.925 4.64v6.559h6.558c1.757 0 3.403-0.679 4.642-1.922 1.24-1.242 1.923-2.89 1.923-4.64zm5.284-5.279v11.843c0 3.269-1.323 6.234-3.472 8.375-2.139 2.146-5.103 3.47-8.377 3.47h-11.843v-11.842c0-3.271 1.328-6.234 3.472-8.375 2.145-2.148 5.106-3.471 8.378-3.471h4e-3z" fill="#dd6e2d"/></g><g transform="matrix(2.8151 0 0 2.8151 395.47 317.95)"><path d="m0 0h-7.596v7.591c0 2.103 0.844 3.999 2.225 5.38 1.378 1.372 3.271 2.218 5.373 2.218h7.595v-7.592c0-2.103-0.849-3.993-2.227-5.372-1.379-1.38-3.27-2.225-5.37-2.225" fill="#dd6e2d"/></g></g></svg>
