<svg width="700.33" height="137.08" version="1.1" viewBox="0 0 700.33 137.08" xmlns="http://www.w3.org/2000/svg">
 <g transform="translate(-4.093e-7 -2.031e-6)" fill-rule="evenodd">
  <path d="m528.1 68.046c0 37.062-29.563 67.109-66.028 67.109s-66.026-30.047-66.026-67.109 29.561-67.109 66.026-67.109 66.028 30.047 66.028 67.109" fill="#9b1e2d"/>
  <path d="m478.73 3.091c-1.0584 0.067387-2.4745 0.20281-4.1545 0.43728-3.9819 0.55573-7.9628 1.4891-11.673 2.8872-0.71358 0.2689-1.4114 0.55321-2.0921 0.85332-4.5092 1.988-5.8868 2.6097-7.7157 3.512-1.8873 0.93118-3.4713 1.8129-5.0086 2.7998-2.3191 1.4887-4.6254 3.2802-7.4439 5.7886-8.9796 7.992-14.903 15.01-20.063 24.783-5.5964 10.598-10.045 22.991-11.931 32.714-0.3089 1.5923-0.64613 3.6874-1.0069 6.2254-0.34761 2.4465-0.71258 5.2706-1.0889 8.3985-0.41805 3.4735-0.83171 7.1634-1.2272 10.881-0.28755-0.49007-0.56911-0.98414-0.84469-1.4822 0.35101-3.2543 0.71438-6.4693 1.0814-9.5185 0.37714-3.1345 0.74291-5.9653 1.0917-8.4196 0.36277-2.5532 0.7026-4.6636 1.0151-6.2751 1.9055-9.8211 6.3873-22.306 12.029-32.99 5.223-9.891 11.22-16.997 20.282-25.063 2.855-2.541 5.2016-4.3638 7.5682-5.883 1.5708-1.0084 3.187-1.9081 5.1062-2.8549 1.847-0.91125 3.2304-1.5356 7.7546-3.5302 0.69761-0.30759 1.4124-0.59879 2.1428-0.87403 3.7862-1.4267 7.837-2.3765 11.887-2.9417 0.44719-0.062418 0.87621-0.11795 1.2853-0.16716 1.0111 0.21603 2.0136 0.45557 3.007 0.71803z" fill="#fff"/>
  <path d="m500.2 13.249c-2.9298 0.41316-6.2917 0.98656-9.6514 1.7301-2.9053 0.64296-5.4716 1.3535-7.6052 2.1321-7.1819 2.621-6.8195 2.4873-8.9203 3.322-4.5867 1.8224-7.7823 3.4483-10.676 5.5311-7.0958 5.108-15.498 13.104-20.144 20.057-8.2075 12.283-14.458 25.516-16.663 38.641-0.42503 2.5301-0.8345 5.2541-1.228 8.1442-0.81814 6.0074-1.5319 12.445-2.1369 18.884-0.36298 3.863-0.60902 6.8672-0.73413 8.5825l-0.99514-0.0724c0.12571-1.7218 0.37195-4.7328 0.73573-8.6033 0.60622-6.4511 1.3214-12.902 2.1417-18.925 0.3949-2.8998 0.80597-5.634 1.2328-8.1748 2.2323-13.29 8.5382-26.64 16.817-39.03 4.7214-7.066 13.206-15.14 20.39-20.312 2.9697-2.1378 6.2338-3.7985 10.89-5.6486 2.1143-0.84007 1.7494-0.70544 8.9467-3.3321 2.18-0.79555 4.7868-1.5173 7.7317-2.169 2.9938-0.66255 5.9859-1.1907 8.6787-1.5919 0.39929 0.27436 0.79539 0.55302 1.1883 0.83596z" fill="#fff"/>
 </g>
 <path d="m0 5.0104h20.41l24.056 64.167c1.5417 4.2067 2.8742 7.9092 3.9402 11.111 1.066 3.1694 2.0132 6.1625 2.8127 8.9178 2.0419-6.6955 4.1452-13.272 6.3388-19.701 0.29521-0.79952 0.50431-1.3612 0.62322-1.6278l25.507-67.841 26.901 69.145c1.2752 3.3457 2.4888 6.6955 3.6163 10.041 1.1275 3.3785 2.1936 6.7529 3.1694 10.16 0.56172-2.6077 1.3612-5.4491 2.3412-8.5898 0.97584-3.112 2.251-6.8144 3.8213-11.111l23.879-64.672h20.562l-49.21 132.07-29.004-72.523c-1.2751-3.2309-2.4273-6.3388-3.4646-9.3319-1.0373-2.9644-1.9845-5.8058-2.784-8.4422-0.97583 3.4072-1.9558 6.6053-2.9603 9.5697-0.97583 2.9931-1.9845 5.8345-3.0218 8.5611l-28.471 72.167zm182.37 127.1v-127.1h20.62v127.1zm50.337 0v-127.1h20.62v108.61h46.213v18.488zm83.573 0v-127.1h20.62v108.61h46.217v18.488zm216.09-127.07h20.415l24.027 64.138c1.5704 4.2354 2.8742 7.9379 3.9689 11.111 1.066 3.1694 1.9845 6.1625 2.8127 8.9465 2.0132-6.7242 4.1165-13.272 6.3388-19.701 0.2666-0.82822 0.47572-1.3612 0.59445-1.6605l25.507-67.874 26.93 69.178c1.2751 3.3498 2.4601 6.7242 3.5835 10.074s2.1936 6.7242 3.1694 10.16c0.59046-2.6077 1.3613-5.4819 2.3412-8.5898 0.97578-3.1407 2.251-6.8431 3.8213-11.111l23.879-64.676h20.562l-49.21 132.01-28.976-72.466c-1.2751-3.2596-2.4601-6.3716-3.4974-9.3319-1.0372-2.9931-1.9558-5.8058-2.7553-8.4709-1.0087 3.4072-1.9845 6.6053-2.9644 9.5984-0.97578 2.9644-1.9845 5.8345-3.0505 8.5324l-28.443 72.138z" fill="#fff"/>
</svg>
