<svg width="800" height="99.2" version="1.1" viewBox="0 0 800 99.2" xmlns="http://www.w3.org/2000/svg">
 <g fill="#fff" fill-rule="evenodd">
  <path d="m2.4987e-7 3.6261h14.533l17.128 46.435c1.0964 3.0448 2.0461 5.7253 2.8053 8.0416 0.75918 2.2933 1.4351 4.4575 2.0052 6.4525 1.4534-4.8447 2.952-9.6048 4.5127-14.257 0.21166-0.57798 0.35842-0.9853 0.44309-1.1789l18.162-49.094 19.152 50.036c0.90734 2.4238 1.7723 4.8462 2.5739 7.2685 0.8015 2.4439 1.5607 4.8878 2.2578 7.3546 0.40076-1.8874 0.96943-3.9455 1.6651-6.2173 0.69568-2.2531 1.6044-4.9322 2.722-8.0401l17.001-46.801h14.639l-35.036 95.574-20.65-52.482c-0.90734-2.3363-1.73-4.588-2.468-6.7536-0.73801-2.1441-1.4139-4.2022-1.9826-6.1097-0.69568 2.4654-1.3928 4.7816-2.1096 6.9243-0.69568 2.1656-1.4125 4.2237-2.1519 6.1972l-20.271 52.224z"/>
  <polygon transform="matrix(19.513 0 0 19.513 -19.104 -15.249)" points="8.386 5.6806 8.386 0.9673 7.6337 0.9673 7.6337 5.6806"/>
  <polygon transform="matrix(19.513 0 0 19.513 -19.104 -15.249)" points="10.223 4.9951 11.909 4.9951 11.909 5.6806 9.4703 5.6806 9.4703 0.96731 10.223 0.96731"/>
  <polygon transform="matrix(19.513 0 0 19.513 -19.104 -15.249)" points="13.272 4.9951 14.959 4.9951 14.959 5.6806 12.52 5.6806 12.52 0.96731 13.272 0.96731"/>
  <path d="m379.06 3.6457h14.534l17.105 46.415c1.1175 3.0649 2.0475 5.7468 2.8279 8.0401 0.7577 2.2933 1.4126 4.4604 2.0038 6.4754 1.4352-4.8677 2.9309-9.6048 4.5127-14.259 0.19123-0.5995 0.33855-0.9853 0.42324-1.199l18.161-49.118 19.174 50.061c0.90873 2.4224 1.7511 4.8662 2.5541 7.29 0.80004 2.4224 1.5593 4.8662 2.2549 7.3531 0.42188-1.8874 0.97235-3.967 1.668-6.2173 0.69565-2.2718 1.603-4.9523 2.7206-8.0401l17.002-46.801h14.639l-35.036 95.532-20.632-52.44c-0.90594-2.3578-1.7498-4.6095-2.4878-6.7536-0.73941-2.1642-1.3928-4.2008-1.9614-6.1312-0.71828 2.4654-1.4139 4.7816-2.1096 6.9473-0.69565 2.1427-1.4139 4.2237-2.1731 6.1742l-20.251 52.203z"/>
 </g>
 <g fill="#9b1e2d" fill-rule="evenodd">
  <path d="m511.12 95.483 32.324-46.267-21.858-45.369h14.523l13.493 28.175c0.0429 0.12762 0.14635 0.34134 0.29348 0.68411 1.4506 3.0534 2.3961 5.4256 2.8377 7.1337 0.29348-1.09 0.71399-2.2216 1.3025-3.3747 0.56725-1.1746 1.3448-2.4998 2.3326-3.9527l19.692-28.665h16.142l-32.386 46.138 21.92 45.499h-14.774l-13.597-28.601c-0.42051-0.96091-0.84102-2.0939-1.2828-3.3761-0.42051-1.3023-0.83965-2.7121-1.2602-4.271-0.48393 1.3453-1.009 2.5629-1.5974 3.6959-0.56725 1.1316-1.2405 2.2417-2.0179 3.3316l-20.197 29.22z"/>
  <polygon transform="matrix(19.513 0 0 19.513 -19.104 -15.249)" points="32.547 1.6551 31.301 1.6551 31.389 0.97855 34.545 0.97855 34.454 1.6551 33.276 1.6551 32.753 5.6747 32.024 5.6747"/>
  <path d="m676.23 44.602h2.8377c8.8688 0 14.921-1.133 18.116-3.3761 3.2159-2.2632 4.8133-6.1513 4.8133-11.661 0-4.6784-1.3448-7.9469-4.0358-9.8257-2.6896-1.8802-7.9431-2.8196-15.741-2.8196h-2.2916zm-6.5151 50.881h-13.997l11.832-91.637h16.267c7.1882 0 12.357 0.42739 15.51 1.2592 3.1538 0.83327 5.969 2.2431 8.4286 4.251 2.7531 2.1786 4.8542 4.8921 6.3048 8.1391 1.4506 3.2671 2.1844 6.8784 2.1844 10.83 0 7.5611-2.0376 13.714-6.0946 18.477-4.0555 4.763-9.7931 7.7533-17.211 8.9709l24.905 39.71h-15.847l-23.855-39.218h-3.2568z"/>
  <path d="m734.26 60.125 32.808-59.868 20.705 59.868h-14.091l-6.4883-21.14c-0.33582-1.0685-0.67301-2.5213-1.0498-4.3155-0.37953-1.7942-0.81975-4.1434-1.3448-7.0706-0.90443 2.1786-1.8091 4.2309-2.691 6.1742-0.88337 1.9433-1.7441 3.759-2.6063 5.4672l-10.911 20.885zm58.713 15.039 7.0287 20.32h-14.649l-6.882-20.32zm-62.027-8.9924 1.579-2.8827h56.341l0.99615 2.8827zm-3.1933 5.8286 1.459-2.6647h61.746l0.92142 2.6647zm-12.869 23.484 11.134-20.32h15.387l-11.158 20.32z"/>
  <path d="m374.33 49.261c0 26.239-20.93 47.511-46.746 47.511s-46.744-21.272-46.744-47.511 20.928-47.511 46.744-47.511 46.746 21.272 46.746 47.511"/>
 </g>
 <g fill="#fff">
  <path d="m339.91 3.4182c-2.9757 0.094951-7.331 0.73483-11.674 2.3714-0.73838 0.28546-0.73838 0.28546-1.4725 0.60056-3.1898 1.4063-4.164 1.846-5.4557 2.4833-1.3306 0.65654-2.4465 1.2777-3.5291 1.9727-1.6336 1.0487-3.2595 2.3116-5.2485 4.0819-6.3431 5.6454-10.524 10.599-14.166 17.497-3.9544 7.4885-7.0981 16.246-8.4303 23.113-0.21815 1.124-0.45641 2.6046-0.71145 4.3988-0.24606 1.7307-0.50402 3.7288-0.77038 5.9422-0.32977 2.7399-0.63535 5.4803-0.89507 7.928-0.30577-0.51406-0.60218-1.0345-0.88922-1.561 0.22363-2.0613 0.47456-4.2768 0.74112-6.4925 0.26713-2.2202 0.52627-4.2255 0.7733-5.9645 0.25719-1.8102 0.49818-3.3069 0.72024-4.4511 1.3523-6.97 4.531-15.825 8.5326-23.403 3.7085-7.0229 7.9672-12.069 14.397-17.792 2.0276-1.8046 3.6959-3.1004 5.3795-4.1812 1.1179-0.7176 2.2676-1.3577 3.6318-2.0307 1.3107-0.64669 2.2912-1.0892 5.4967-2.5024 0.7616-0.32694 0.7616-0.32694 1.5257-0.62235 3.0742-1.1584 6.1427-1.8302 8.7614-2.1688 1.1089 0.22086 2.2039 0.48157 3.2833 0.78062z"/>
  <path d="m354.78 10.612c-2.1112 0.29365-4.5553 0.70692-6.9968 1.2472-2.05 0.45368-3.8599 0.95478-5.3624 1.5031-5.0819 1.8546-4.8257 1.7601-6.3107 2.3501-3.2352 1.2855-5.4858 2.4305-7.521 3.8956-5.0082 3.6052-10.943 9.2527-14.218 14.155-5.7983 8.6776-10.214 18.026-11.77 27.289-0.3005 1.7893-0.59008 3.7161-0.86853 5.7605-0.57896 4.2504-1.084 8.806-1.5121 13.362-0.25679 2.7336-0.43105 4.8593-0.51944 6.0725l-1.0479-0.0763c0.0898-1.2201 0.26362-3.3529 0.5212-6.0945 0.42948-4.5693 0.93605-9.1389 1.5172-13.405 0.27982-2.0547 0.57096-3.9921 0.87361-5.7928 1.585-9.4371 6.0591-18.909 11.933-27.699 3.3557-5.022 9.3765-10.752 14.478-14.424 2.1156-1.5229 4.4383-2.7047 7.7469-4.0193 1.4992-0.59566 1.2403-0.50018 6.3385-2.3607 1.5513-0.56616 3.4039-1.079 5.4956-1.542 2.0562-0.45505 4.1105-0.82061 5.9724-1.1017 0.42208 0.28669 0.83927 0.58017 1.2514 0.8803z"/>
 </g>
</svg>
