<svg width="800" height="137.08" version="1.1" viewBox="0 0 800 137.08" xmlns="http://www.w3.org/2000/svg">
 <g fill-rule="evenodd">
  <path d="m528.1 68.046c0 37.062-29.563 67.109-66.028 67.109s-66.026-30.047-66.026-67.109 29.561-67.109 66.026-67.109 66.028 30.047 66.028 67.109" fill="#9b1e2d"/>
  <path d="m478.73 3.091c-1.0584 0.067387-2.4745 0.20281-4.1545 0.43728-3.9819 0.55573-7.9628 1.4891-11.673 2.8872-0.71358 0.2689-1.4114 0.55321-2.0921 0.85332-4.5092 1.988-5.8868 2.6097-7.7157 3.512-1.8873 0.93118-3.4713 1.8129-5.0086 2.7998-2.3191 1.4887-4.6254 3.2802-7.4439 5.7886-8.9796 7.992-14.903 15.01-20.063 24.783-5.5964 10.598-10.045 22.991-11.931 32.714-0.3089 1.5923-0.64613 3.6874-1.0069 6.2254-0.34761 2.4465-0.71258 5.2706-1.0889 8.3985-0.41805 3.4735-0.83171 7.1634-1.2272 10.881-0.28755-0.49007-0.56911-0.98414-0.84469-1.4822 0.35101-3.2543 0.71438-6.4693 1.0814-9.5185 0.37714-3.1345 0.74291-5.9653 1.0917-8.4196 0.36277-2.5532 0.7026-4.6636 1.0151-6.2751 1.9055-9.8211 6.3873-22.306 12.029-32.99 5.223-9.891 11.22-16.997 20.282-25.063 2.855-2.541 5.2016-4.3638 7.5682-5.883 1.5708-1.0084 3.187-1.9081 5.1062-2.8549 1.847-0.91125 3.2304-1.5356 7.7546-3.5302 0.69761-0.30759 1.4124-0.59879 2.1428-0.87403 3.7862-1.4267 7.837-2.3765 11.887-2.9417 0.44719-0.062418 0.87621-0.11795 1.2853-0.16716 1.0111 0.21603 2.0136 0.45557 3.007 0.71803z" fill="#fff"/>
  <path d="m500.2 13.249c-2.9298 0.41316-6.2917 0.98656-9.6514 1.7301-2.9053 0.64296-5.4716 1.3535-7.6052 2.1321-7.1819 2.621-6.8195 2.4873-8.9203 3.322-4.5867 1.8224-7.7823 3.4483-10.676 5.5311-7.0958 5.108-15.498 13.104-20.144 20.057-8.2075 12.283-14.458 25.516-16.663 38.641-0.42503 2.5301-0.8345 5.2541-1.228 8.1442-0.81814 6.0074-1.5319 12.445-2.1369 18.884-0.36298 3.863-0.60902 6.8672-0.73413 8.5825l-0.99514-0.0724c0.12571-1.7218 0.37195-4.7328 0.73573-8.6033 0.60622-6.4511 1.3214-12.902 2.1417-18.925 0.3949-2.8998 0.80597-5.634 1.2328-8.1748 2.2323-13.29 8.5382-26.64 16.817-39.03 4.7214-7.066 13.206-15.14 20.39-20.312 2.9697-2.1378 6.2338-3.7985 10.89-5.6486 2.1143-0.84007 1.7494-0.70544 8.9467-3.3321 2.18-0.79555 4.7868-1.5173 7.7317-2.169 2.9938-0.66255 5.9859-1.1907 8.6787-1.5919 0.39929 0.27436 0.79539 0.55302 1.1883 0.83596z" fill="#fff"/>
 </g>
 <path d="m4.093e-7 5.0104h20.41l24.056 64.167c1.5417 4.2067 2.8742 7.9092 3.9402 11.111 1.066 3.1694 2.0132 6.1625 2.8127 8.9178 2.0419-6.6955 4.1452-13.272 6.3388-19.701 0.29521-0.79952 0.50431-1.3612 0.62322-1.6278l25.507-67.841 26.901 69.145c1.2752 3.3457 2.4888 6.6955 3.6163 10.041 1.1275 3.3785 2.1936 6.7529 3.1694 10.16 0.56172-2.6077 1.3612-5.4491 2.3412-8.5898 0.97584-3.112 2.251-6.8144 3.8213-11.111l23.879-64.672h20.562l-49.21 132.07-29.004-72.523c-1.2751-3.2309-2.4273-6.3388-3.4646-9.3319-1.0373-2.9644-1.9845-5.8058-2.784-8.4422-0.97583 3.4072-1.9558 6.6053-2.9603 9.5697-0.97583 2.9931-1.9845 5.8345-3.0218 8.5611l-28.471 72.167zm182.37 127.1v-127.1h20.62v127.1zm50.337 0v-127.1h20.62v108.61h46.213v18.488zm83.573 0v-127.1h20.62v108.61h46.217v18.488zm216.09-127.07h20.415l24.027 64.138c1.5704 4.2354 2.8742 7.9379 3.9689 11.111 1.066 3.1694 1.9845 6.1625 2.8127 8.9465 2.0132-6.7242 4.1165-13.272 6.3388-19.701 0.2666-0.82822 0.47572-1.3612 0.59445-1.6605l25.507-67.874 26.93 69.178c1.2751 3.3498 2.4601 6.7242 3.5835 10.074s2.1936 6.7242 3.1694 10.16c0.59046-2.6077 1.3613-5.4819 2.3412-8.5898 0.97578-3.1407 2.251-6.8431 3.8213-11.111l23.879-64.676h20.562l-49.21 132.01-28.976-72.466c-1.2751-3.2596-2.4601-6.3716-3.4974-9.3319-1.0372-2.9931-1.9558-5.8058-2.7553-8.4709-1.0087 3.4072-1.9845 6.6053-2.9644 9.5984-0.97578 2.9644-1.9845 5.8345-3.0505 8.5324l-28.443 72.138zm231.6 60.206c-2.7922 0-5.5844 0.0082-8.3807 0-2.6282-0.0082-5.0678-2.2592-4.8218-4.8628 0.37714-3.9566 1.0291-7.8928 1.6606-11.821 0.74631-4.6373 1.5868-9.2581 2.4068-13.879 0.77484-4.3666 1.595-8.7292 2.3658-13.096 0.7012-3.9648 1.4718-7.9174 2.0296-11.903 0.49607-3.5548 3.8008-7.3475 7.2695-7.4049 4.5635-0.073812 9.131-0.39361 13.686-0.25011 4.3543 0.13531 8.6472 0.85283 12.239 3.7229 4.0509 3.2391 6.593 7.2654 7.3843 12.51 0.7052 4.6783-0.83231 9.0326-1.3982 13.518-0.4839 3.8254-1.5006 7.5853-2.0952 11.402-0.68065 4.3954-2.7594 8.0978-5.4655 11.46-2.8906 3.5917-6.4208 6.4741-10.669 8.3684-3.0382 1.3571-6.1502 2.4191-9.5738 2.2551-2.2059-0.11075-4.424-0.02055-6.6381-0.02055zm8.0158-49.94c-2.1813 12.382-4.3052 24.433-6.4823 36.791 2.5954-0.15984 4.9776-0.34031 7.368-0.44692 4.6783-0.2091 8.9342-4.0058 9.7952-8.885 1.0907-6.1953 2.1116-12.399 3.1981-18.598 0.6192-3.5384-1.2751-7.1014-4.7726-7.8969-2.9111-0.66423-5.9657-0.66012-9.1064-0.96352zm-37.816 25.306h-16.573c-0.55354 2.9275-1.144 5.8878-1.6688 8.8604-0.56991 3.2555-0.7914 6.6012-1.681 9.7624-1.2669 4.5102-5.281 7.1219-10.312 5.7033-1.7344-0.49202-3.3498-2.5544-3.1653-4.3051 0.41406-3.9607 0.96361-7.9092 1.5868-11.845 0.64374-4.0755 1.4391-8.1265 2.1731-12.19 1.0414-5.7361 2.1034-11.468 3.1325-17.204 0.66429-3.7065 1.2013-7.4418 1.9476-11.132 0.93487-4.5963 5.5229-6.9456 9.8772-5.8509 2.8865 0.72572 4.2518 3.5138 3.5589 7.1752-1.066 5.6254-2.0091 11.275-2.9972 16.917-0.0164 0.09019 0.0459 0.19675 0.0938 0.37311h16.573c0.54536-3.0136 1.1153-6.0846 1.6606-9.1638 0.54536-3.0997 0.85685-6.2609 1.6482-9.295 1.1686-4.5061 5.2687-7.1998 9.988-5.9944 2.8578 0.73393 4.1739 4.1739 3.4933 7.6386-1.0169 5.1621-1.8614 10.357-2.784 15.54-0.88559 4.9776-1.7877 9.9551-2.6733 14.933-0.69702 3.9115-1.3202 7.8395-2.0911 11.735-0.58627 2.9685-1.0414 6.019-2.1116 8.8194-1.1767 3.0669-5.978 5.1006-9.0203 4.0632-2.9521-1.0086-4.2354-3.5425-3.6204-7.0604 0.99633-5.691 2.0378-11.374 3.0505-17.061 0.0164-0.086-0.0359-0.19276-0.0858-0.41821z" fill="#fff"/>
</svg>
