<svg width="600pt" height="327.95pt" version="1.1" viewBox="0 0 600 327.95" xmlns="http://www.w3.org/2000/svg">
 <g transform="matrix(1.2955 0 0 1.2955 -20.016 -198.03)">
  <path d="m427.47 236.61c-97.067 15.951-188 19.816-354.35-12.313l-1.2194-43.55c88.463 39.555 236.41 55.954 355.57 55.863z" fill="#8ec545"/>
 </g>
 <path d="m343.8 9.2544e-7c6.5114 0 12.021 2.304 16.529 6.9121 4.5079 4.5079 6.7618 9.9674 6.7618 16.379s-2.304 11.871-6.9121 16.379c-4.5079 4.5079-9.9675 6.7618-16.379 6.7618s-11.871-2.2539-16.379-6.7618c-4.5079-4.5079-6.7618-9.9674-6.7618-16.379s2.2539-11.871 6.7618-16.379c4.5079-4.6081 9.9674-6.9121 16.379-6.9121z" fill="#f11924"/>
 <g fill="#fff">
  <g transform="matrix(7.6935 0 0 7.6935 136.38 -255.8)" aria-label="WiN">
   <path d="m21.57 33.874v0.72266q-0.74219 0.05859-1.25 0.41016-0.50781 0.35156-0.89844 1.0742-0.11719 0.23438-1.2305 3.0273l-8.3008 21.855h-0.76172l-6.5625-17.07-7.2266 17.07h-0.72266l-8.7109-21.621q-1.3281-3.2617-1.8555-3.9453-0.52734-0.68359-1.7773-0.80078v-0.72266h11.484v0.72266q-1.3867 0.03906-1.8555 0.42969-0.44922 0.37109-0.44922 0.9375 0 0.74219 0.95703 3.1445l5.1953 12.852 4.1602-10.039-1.0938-2.8125q-0.89844-2.3047-1.3867-3.0664-0.48828-0.78125-1.1328-1.1133-0.625-0.33203-1.8555-0.33203v-0.72266h12.832v0.72266q-1.3477 0.01953-1.9336 0.21484-0.41016 0.13672-0.64453 0.46875-0.23438 0.3125-0.23438 0.72266 0 0.44922 0.87891 2.7539l4.8242 12.539 4.3164-11.348q0.68359-1.7578 0.83984-2.4023t0.15625-1.1914q0-0.80078-0.54688-1.25-0.54688-0.46875-2.0898-0.50781v-0.72266z"/>
   <path d="m29.695 42.097v14.473c0 1.2891 0.14974 2.1159 0.44922 2.4805 0.29948 0.35156 0.88542 0.55339 1.7578 0.60547v0.70312h-9.8633v-0.70312c0.80729-0.02604 1.4062-0.26042 1.7969-0.70312 0.26042-0.29948 0.39062-1.0938 0.39062-2.3828v-10.664c0-1.2891-0.14974-2.1094-0.44922-2.4609-0.29948-0.36458-0.87891-0.57292-1.7383-0.625v-0.72266z"/>
   <path d="m42.273 33.874 13.066 16.426v-11.387q0-2.3828-0.68359-3.2227-0.9375-1.1328-3.1445-1.0938v-0.72266h8.75v0.72266q-1.6797 0.21484-2.2656 0.56641-0.56641 0.33203-0.89844 1.1133-0.3125 0.76172-0.3125 2.6367v22.051h-0.66406l-17.91-22.051v16.836q0 2.2852 1.0352 3.0859 1.0547 0.80078 2.4023 0.80078h0.625v0.72266h-9.3945v-0.72266q2.1875-0.01953 3.0469-0.89844 0.85938-0.87891 0.85938-2.9883v-18.691l-0.56641-0.70312q-0.83984-1.0547-1.4844-1.3867t-1.8555-0.37109v-0.72266z"/>
  </g>
  <g transform="matrix(2.2252 0 0 2.2252 238.42 -992.04)" aria-label="CHICAGO">
   <path d="m-42.334 590.5q-1.0742 0.46875-1.9531 0.87891-0.85938 0.41015-2.2656 0.85937-1.1914 0.37109-2.5977 0.625-1.3867 0.27344-3.0664 0.27344-3.1641 0-5.7617-0.87891-2.5781-0.89844-4.4922-2.793-1.875-1.8555-2.9297-4.707-1.0547-2.8711-1.0547-6.6602 0-3.5938 1.0156-6.4258t2.9297-4.7852q1.8555-1.8945 4.4727-2.8906 2.6367-0.99609 5.8398-0.99609 2.3438 0 4.668 0.56641 2.3438 0.5664 5.1953 1.9922v4.5898h-0.29297q-2.4023-2.0117-4.7656-2.9297t-5.0586-0.91797q-2.207 0-3.9844 0.72266-1.7578 0.70312-3.1445 2.207-1.3477 1.4648-2.1094 3.7109-0.74219 2.2266-0.74219 5.1562 0 3.0664 0.82031 5.2734 0.83984 2.207 2.1484 3.5938 1.3672 1.4453 3.1836 2.1484 1.8359 0.68359 3.8672 0.68359 2.793 0 5.2344-0.95703t4.5703-2.8711h0.27344z"/>
   <path d="m-14.58 592.61h-3.8672v-14.238h-14.512v14.238h-3.8672v-29.082h3.8672v11.406h14.512v-11.406h3.8672z"/>
   <path d="m3.5059 592.61h-11.484v-2.9688h3.8086v-23.145h-3.8086v-2.9688h11.484v2.9688h-3.8086v23.145h3.8086z"/>
   <path d="m32.588 590.5q-1.0742 0.46875-1.9531 0.87891-0.85938 0.41015-2.2656 0.85937-1.1914 0.37109-2.5977 0.625-1.3867 0.27344-3.0664 0.27344-3.1641 0-5.7617-0.87891-2.5781-0.89844-4.4922-2.793-1.875-1.8555-2.9297-4.707-1.0547-2.8711-1.0547-6.6602 0-3.5938 1.0156-6.4258t2.9297-4.7852q1.8555-1.8945 4.4727-2.8906 2.6367-0.99609 5.8398-0.99609 2.3438 0 4.668 0.56641 2.3438 0.5664 5.1953 1.9922v4.5898h-0.29297q-2.4023-2.0117-4.7656-2.9297t-5.0586-0.91797q-2.207 0-3.9844 0.72266-1.7578 0.70312-3.1445 2.207-1.3477 1.4648-2.1094 3.7109-0.74219 2.2266-0.74219 5.1562 0 3.0664 0.82031 5.2734 0.83984 2.207 2.1484 3.5938 1.3672 1.4453 3.1836 2.1484 1.8359 0.68359 3.8672 0.68359 2.793 0 5.2344-0.95703t4.5703-2.8711h0.27344z"/>
   <path d="m61.025 592.61h-4.1211l-2.8516-8.1055h-12.578l-2.8516 8.1055h-3.9258l10.586-29.082h5.1562zm-8.1641-11.426-5.0977-14.277-5.1172 14.277z"/>
   <path d="m89.697 590.46q-2.3828 1.0938-5.2148 1.9141-2.8125 0.80078-5.4492 0.80078-3.3984 0-6.2305-0.9375-2.832-0.9375-4.8242-2.8125-2.0117-1.8945-3.1055-4.7266-1.0938-2.8516-1.0938-6.6602 0-6.9726 4.0625-10.996 4.082-4.043 11.191-4.043 2.4805 0 5.0586 0.60547 2.5977 0.58594 5.5859 2.0117v4.5898h-0.35156q-0.60547-0.46875-1.7578-1.2305-1.1523-0.76172-2.2656-1.2695-1.3477-0.60547-3.0664-0.99609-1.6992-0.41016-3.8672-0.41016-4.8828 0-7.7344 3.1445-2.832 3.125-2.832 8.4766 0 5.6445 2.9688 8.7891 2.9688 3.125 8.0859 3.125 1.875 0 3.7305-0.3711 1.875-0.37109 3.2812-0.95703v-7.1289h-7.793v-3.3984h11.621z"/>
   <path d="m118.13 566.86q1.7773 1.9531 2.7148 4.7852 0.95703 2.832 0.95703 6.4258t-0.97656 6.4453q-0.95703 2.832-2.6953 4.7266-1.7969 1.9727-4.2578 2.9688-2.4414 0.99609-5.5859 0.99609-3.0664 0-5.5859-1.0156-2.5-1.0156-4.2578-2.9492t-2.7148-4.7461q-0.9375-2.8125-0.9375-6.4258 0-3.5547 0.9375-6.3672 0.9375-2.832 2.7344-4.8438 1.7188-1.9141 4.2578-2.9297 2.5586-1.0156 5.5664-1.0156 3.125 0 5.6055 1.0352 2.5 1.0156 4.2383 2.9102zm-0.35157 11.211q0-5.6641-2.5391-8.7305-2.5391-3.0859-6.9336-3.0859-4.4336 0-6.9727 3.0859-2.5195 3.0664-2.5195 8.7305 0 5.7227 2.5781 8.7695 2.5781 3.0273 6.9141 3.0273 4.3359 0 6.8945-3.0273 2.5781-3.0469 2.5781-8.7695z"/>
  </g>
 </g>
 <g transform="matrix(1.2955 0 0 1.2955 -18.694 -198.03)">
  <path d="m16 329h460v11h-460z" fill="#f00"/>
 </g>
</svg>
