<svg width="800" height="204.18" version="1.1" xmlns="http://www.w3.org/2000/svg">
 <g fill="#528917">
  <path d="m172.98 203.5c24.485-0.71117 46.673-11.196 63.274-27.756 15.077 17.007 37.062 27.756 61.465 27.756 24.525 0 46.592-10.85 61.668-28.02 15.097 17.17 37.164 28.02 61.689 28.02 45.21 0 82.17-36.94 82.17-82.17v-119.48h-53.642v119.48c0 17.515-14 31.86-31.515 31.86-17.535 0-31.881-14.345-31.881-31.86v-119.48h-53.642v119.48c0 17.515-14.345 31.86-31.881 31.86-17.515 0-31.515-14.345-31.515-31.86v-119.48h-53.642v101.49c-0.38605 25.074-18.694 45.881-41.167 46.551l-78.452-0.0204c-23.326 0-42.284-21.091-42.284-47.039 0-26.13 18.958-47.384 42.284-47.384h78.594v-53.622h-78.594c-52.891 0-95.906 45.251-95.906 101.01 0 55.431 43.016 100.66 95.906 100.66h77.07z"/>
  <path d="m100.27 119.16v-27.532h9.7938v-5.4252h-26.354v5.4252h9.7938v27.532z"/>
  <path d="m170.12 91.621v-5.4252h-21.335v32.958h21.945v-5.4252h-15.158v-8.5544h13.309v-5.5471h-13.309v-8.0057z"/>
  <path d="m142.4 119.16v-32.958h-6.7459v13.431h-14.02v-13.431h-6.7459v32.937h6.7459v-13.959h14.02v13.98z"/>
 </g>
 <g fill="#005026" stroke-width="4.5253">
  <path d="m652.98 65.164c-0.40176-18.87-6.6579-34.347-18.769-46.429-12.111-12.082-27.666-18.327-46.667-18.735-19.64 0.14727-35.546 6.5053-47.719 19.074-12.173 12.569-18.44 30.467-18.802 53.692h35.569c0.12988-12.105 2.9923-21.698 8.5867-28.781 5.5943-7.0819 13.14-10.702 22.638-10.861 8.4565 0.19251 15.369 3.2018 20.737 9.0279 5.368 5.8264 8.1397 13.316 8.3152 22.468 0.0566 6.409-1.7536 12.801-5.4303 19.176-3.6769 6.3751-9.5598 13.378-17.649 21.009l-71.409 67.607v31.767h133.15v-33.94h-82.376l40.999-37.198c14.922-13.282 25.194-24.934 30.817-34.958 5.6225-10.023 8.2924-20.997 8.0097-32.921z"/>
  <path d="m799.98 65.164c-0.40185-18.87-6.6579-34.347-18.769-46.429-12.111-12.082-27.666-18.327-46.667-18.735-19.64 0.14727-35.546 6.5053-47.719 19.074-12.173 12.569-18.44 30.467-18.802 53.692h35.569c0.12987-12.105 2.9923-21.698 8.5867-28.781 5.5943-7.0819 13.14-10.702 22.638-10.861 8.4565 0.19251 15.369 3.2018 20.737 9.0279 5.368 5.8264 8.1398 13.316 8.3152 22.468 0.0566 6.409-1.7537 12.801-5.4303 19.176-3.6769 6.3751-9.5598 13.378-17.649 21.009l-71.409 67.607v31.767h129.78v-33.94h-79.011l40.999-37.198c14.922-13.282 25.194-24.934 30.817-34.958 5.6225-10.023 8.2924-20.997 8.0097-32.921z"/>
 </g>
</svg>
