<svg width="800" height="133.81" enable-background="new 0 0 1512 792" version="1.1" viewBox="0 0 800 133.81" xml:space="preserve" xmlns="http://www.w3.org/2000/svg">
<path d="m492.89 133.81h-31.655l-43.83-132.07h38.408l22.84 75.842 25.283-75.842h31.265l25.291 75.842 22.848-75.842h37.637l-43.814 132.07h-31.655l-26.412-75.517z" fill="#018dcb" stroke-width="8.1166"/><path d="m75.477 133.81h-31.655l-43.822-132.07h38.4l22.84 75.842 25.275-75.842h31.273l25.291 75.842 22.848-75.842h37.629l-43.805 132.07h-31.655l-26.395-75.517z" fill="#018dcb" stroke-width="8.1166"/><path d="m226.55 1.7451h36.314v99.25h63.48v31.833h-99.794z" fill="#018dcb" stroke-width="8.1166"/><path d="m354.11 33.692v99.145h36.517v-131.1h-36.517z" fill="#018dcb" stroke-width="8.1166"/><path d="m636.32 27.524c12.54-17.605 24.902-27.524 48.318-27.524 26.209 0 43.254 15.909 43.254 39.325 0 20.779-10.852 32.02-34.09 50.932l-26.955 22.475h62.368v20.227h-94.762v-18.165l45.137-38.392c17.97-15.17 24.528-23.595 24.528-35.397 0-12.914-9.1799-20.413-21.168-20.413-11.996 0-20.227 6.5582-30.332 19.667z" fill="#018dcb" stroke-width="1.0152"/><path d="m753.55 30.892-4.8619-18.725 35.202-11.242h16.112v132.03h-22.848v-108.62z" fill="#018dcb" stroke-width="8.1166"/>
</svg>
