<svg width="800" height="512.02" version="1.1" xmlns="http://www.w3.org/2000/svg" xmlns:xlink="http://www.w3.org/1999/xlink">
 <defs>
  <linearGradient id="linearGradient4618">
   <stop stop-color="#fff" offset="0"/>
   <stop stop-color="#9caabd" stop-opacity="0" offset="1"/>
  </linearGradient>
  <linearGradient id="linearGradient5275">
   <stop stop-color="#fff" offset="0"/>
   <stop stop-color="#a9b3cc" stop-opacity="0" offset="1"/>
  </linearGradient>
  <linearGradient id="linearGradient4749" x1="142.85" x2="142.85" y1=".72769" y2="170.25" gradientTransform="matrix(.90263 0 0 .90328 -70.751 -64.196)" gradientUnits="userSpaceOnUse">
   <stop stop-color="#91979f" offset="0"/>
   <stop stop-color="#a9b3cc" offset="1"/>
  </linearGradient>
  <radialGradient id="radialGradient4751" cx="255.27" cy="101.1" r="143.18" gradientTransform="matrix(.011317 .024127 -.059382 .027893 161.6 12.513)" gradientUnits="userSpaceOnUse" xlink:href="#linearGradient5275"/>
  <radialGradient id="radialGradient4753" cx="2373.5" cy="104.4" r="143.18" gradientTransform="matrix(.016357 .021034 -.030945 .024099 146.67 20.251)" gradientUnits="userSpaceOnUse" xlink:href="#linearGradient5275"/>
  <radialGradient id="radialGradient4755" cx="406.69" cy="-136.27" r="142.43" gradientTransform="matrix(2.5007e-5 .78766 -1.214 -1.8971e-8 -14.446 -197.37)" gradientUnits="userSpaceOnUse" xlink:href="#linearGradient4618"/>
  <radialGradient id="radialGradient4757" cx="321.46" cy="-138.27" r="142.43" gradientTransform="matrix(5.2211e-5 .71043 -1.1647 5.366e-5 -7.8469 -173.41)" gradientUnits="userSpaceOnUse" xlink:href="#linearGradient4618"/>
  <radialGradient id="radialGradient4759" cx="65.784" cy="-59.439" r="48.162" gradientTransform="matrix(-.28953 .33722 -.70396 -.60529 29.179 19.986)" gradientUnits="userSpaceOnUse">
   <stop stop-color="#f37021" offset="0"/>
   <stop stop-color="#c63b26" offset="1"/>
  </radialGradient>
  <radialGradient id="radialGradient4761" cx="189.46" cy="105.57" r="29.033" gradientTransform="matrix(.7639 -.17374 .47184 2.0776 -87.447 -131.66)" gradientUnits="userSpaceOnUse">
   <stop stop-color="#ab2121" offset="0"/>
   <stop stop-color="#ef352b" offset="1"/>
  </radialGradient>
  <radialGradient id="radialGradient4763" cx="306.1" cy="76.677" r="29.104" gradientTransform="matrix(.84066 .42331 -.78637 1.5639 -10.676 -197.18)" gradientUnits="userSpaceOnUse">
   <stop stop-color="#946bae" offset="0"/>
   <stop stop-color="#683a94" offset="1"/>
  </radialGradient>
  <linearGradient id="linearGradient4765" x1="343.63" x2="310.13" y1="171.93" y2="133.95" gradientTransform="matrix(.90263 0 0 .90328 -70.751 -64.196)" gradientUnits="userSpaceOnUse">
   <stop stop-color="#133d76" offset="0"/>
   <stop stop-color="#0ec3f4" offset="1"/>
  </linearGradient>
  <linearGradient id="linearGradient4767" x1="368.68" x2="307.46" y1="287.14" y2="204.23" gradientTransform="matrix(.90263 0 0 .90328 -70.751 -64.196)" gradientUnits="userSpaceOnUse">
   <stop stop-color="#55b947" offset="0"/>
   <stop stop-color="#225f24" offset="1"/>
  </linearGradient>
  <radialGradient id="radialGradient4769" cx="-48.296" cy="-17.677" r="61.589" gradientTransform="matrix(-1.2028 -.48404 .11865 -.29525 -12.25 113.7)" gradientUnits="userSpaceOnUse">
   <stop stop-color="#fcb711" offset="0"/>
   <stop stop-color="#d49d28" offset="1"/>
  </radialGradient>
 </defs>
 <g transform="matrix(1.3792 0 0 1.3792 -14.607 -13.224)">
  <g transform="matrix(1.1079 0 0 1.1071 11.339 91.77)">
   <path d="m142.42 21.679c-4.44-11.061-15.258-23.008-35.521-21.367-25.809 2.799-33.854 27.476-29.953 42.197-10.28-6.944-27.759-9.998-43.017 3.04-19.7 19.7-9.164 46.342 1.668 52.733-11.935-1.103-30.799 6.943-34.972 27.988-4.44 26.13 15.528 41.363 34.972 41.363h215.6c22.484 0 34.958-19.403 33.559-37.703-2.207-23.883-24.114-33.047-36.062-31.083 9.984-5.557 23.318-31.66 3.041-52.182-16.093-15.272-36.612-9.715-43.825-3.054 3.888-12.757-2.489-39.129-28.593-43.301-1.803-0.201-3.54-0.31-5.196-0.31-19.928 3e-3 -28.888 14.534-31.701 21.679" fill="none" stroke="url(#linearGradient4749)" stroke-width="1.3544"/>
   <path d="m142.42 21.679c-4.44-11.061-15.258-23.008-35.521-21.367-25.809 2.799-33.854 27.476-29.953 42.197-10.28-6.944-27.759-9.998-43.017 3.04-19.7 19.7-9.164 46.342 1.668 52.733-11.935-1.103-30.799 6.943-34.972 27.988-4.44 26.13 15.528 41.363 34.972 41.363h215.6c22.484 0 34.958-19.403 33.559-37.703-2.207-23.883-24.114-33.047-36.062-31.083 9.984-5.557 23.318-31.66 3.041-52.182-16.093-15.272-36.612-9.715-43.825-3.054 3.888-12.757-2.489-39.129-28.593-43.301-1.803-0.201-3.54-0.31-5.196-0.31-19.928 3e-3 -28.888 14.534-31.701 21.679" fill="none" stroke="url(#radialGradient4751)" stroke-width="1.3544"/>
   <path d="m142.42 21.679c-4.44-11.061-15.258-23.008-35.521-21.367-25.809 2.799-33.854 27.476-29.953 42.197-10.28-6.944-27.759-9.998-43.017 3.04-19.7 19.7-9.164 46.342 1.668 52.733-11.935-1.103-30.799 6.943-34.972 27.988-4.44 26.13 15.528 41.363 34.972 41.363h215.6c22.484 0 34.958-19.403 33.559-37.703-2.207-23.883-24.114-33.047-36.062-31.083 9.984-5.557 23.318-31.66 3.041-52.182-16.093-15.272-36.612-9.715-43.825-3.054 3.888-12.757-2.489-39.129-28.593-43.301-1.803-0.201-3.54-0.31-5.196-0.31-19.928 3e-3 -28.888 14.534-31.701 21.679" fill="none" stroke="url(#radialGradient4753)" stroke-width="1.3544"/>
   <path d="m142.42 21.679c-4.44-11.061-15.258-23.008-35.521-21.367-25.809 2.799-33.854 27.476-29.953 42.197-10.28-6.944-27.759-9.998-43.017 3.04-19.7 19.7-9.164 46.342 1.668 52.733-11.935-1.103-30.799 6.943-34.972 27.988-4.44 26.13 15.528 41.363 34.972 41.363h215.6c22.484 0 34.958-19.403 33.559-37.703-2.207-23.883-24.114-33.047-36.062-31.083 9.984-5.557 23.318-31.66 3.041-52.182-16.093-15.272-36.612-9.715-43.825-3.054 3.888-12.757-2.489-39.129-28.593-43.301-1.803-0.201-3.54-0.31-5.196-0.31-19.928 3e-3 -28.888 14.534-31.701 21.679" fill="url(#radialGradient4755)" stroke="#ccc" stroke-width=".45148"/>
   <path d="m142.42 21.679c-4.44-11.061-15.258-23.008-35.521-21.367-25.809 2.799-33.854 27.476-29.953 42.197-10.28-6.944-27.759-9.998-43.017 3.04-19.7 19.7-9.164 46.342 1.668 52.733-11.935-1.103-30.799 6.943-34.972 27.988-4.44 26.13 15.528 41.363 34.972 41.363h215.6c22.484 0 34.958-19.403 33.559-37.703-2.207-23.883-24.114-33.047-36.062-31.083 9.984-5.557 23.318-31.66 3.041-52.182-16.093-15.272-36.612-9.715-43.825-3.054 3.888-12.757-2.489-39.129-28.593-43.301-1.803-0.201-3.54-0.31-5.196-0.31-19.928 3e-3 -28.888 14.534-31.701 21.679" fill="url(#radialGradient4757)" stroke="#ccc" stroke-width=".45148"/>
   <path d="m37.521 49.707c-11.382 10.28-15.527 33.572 4.993 47.188l81.863 56.028-39.693-90.716c-8.317-21.407-31.07-26.076-47.163-12.5" fill="none" stroke="#8e2814" stroke-width=".90295"/>
   <path d="m37.521 49.707c-11.382 10.28-15.527 33.572 4.993 47.188l81.863 56.028-39.693-90.716c-8.317-21.407-31.07-26.076-47.163-12.5" fill="url(#radialGradient4759)"/>
   <path d="m107.99 5.6c-13.308 0.27-33.289 16.079-24.395 40.218l41.052 96.585 14.424-101.59c3.338-25.243-15.809-36.896-31.081-35.214" stroke="#710b0d" stroke-width=".90295"/>
   <path d="m107.99 5.6c-13.308 0.27-33.289 16.079-24.395 40.218l41.052 96.585 14.424-101.59c3.338-25.243-15.809-36.896-31.081-35.214" fill="url(#radialGradient4761)"/>
   <path d="m145.48 36.939h7.763s4.145 0 4.708 1.951c-3.054 2.489-11.368 2.8-10.266 16.093l13.051 87.406 40.771-96.839c8.341-21.622-9.165-39.68-24.692-40.232-0.726-0.053-1.453-0.095-2.206-0.095-13.939 0-29.909 10.106-29.129 31.716" fill="none" stroke="#4f2b6e" stroke-width=".90295"/>
   <path d="m145.48 36.939h7.763s4.145 0 4.708 1.951c-3.054 2.489-11.368 2.8-10.266 16.093l13.051 87.406 40.771-96.839c8.341-21.622-9.165-39.68-24.692-40.232-0.726-0.053-1.453-0.095-2.206-0.095-13.939 0-29.909 10.106-29.129 31.716" fill="url(#radialGradient4763)"/>
   <path d="m199.86 63.029-38.564 89.628 81.836-56.324c18.866-13.348 15.824-34.689 5.263-45.238-4.428-4.965-12.555-8.8-21.165-8.8-10.174-2e-3 -21.059 5.381-27.37 20.734" fill="none" stroke="#122c5a" stroke-width=".90295"/>
   <path d="m199.86 63.029-38.564 89.628 81.836-56.324c18.866-13.348 15.824-34.689 5.263-45.238-4.428-4.965-12.555-8.8-21.165-8.8-10.174-2e-3 -21.059 5.381-27.37 20.734" fill="url(#linearGradient4765)"/>
   <path d="m233.97 109.09-76.856 53.554h94.632c19.415 0 31.89-19.97 26.345-38.296-3.714-11.518-14.707-20.56-27.463-20.573-5.369 1e-3 -11.062 1.615-16.658 5.315" fill="none" stroke="#215c22" stroke-width=".90295"/>
   <path d="m233.97 109.09-76.856 53.554h94.632c19.415 0 31.89-19.97 26.345-38.296-3.714-11.518-14.707-20.56-27.463-20.573-5.369 1e-3 -11.062 1.615-16.658 5.315" fill="url(#linearGradient4767)"/>
   <path d="m35.315 162.64h93.234l-76.873-53.554c-17.761-11.384-37.729-4.723-44.94 14.167-6.11 21.625 9.149 39.387 28.579 39.387" fill="none" stroke="#836311" stroke-width=".90295"/>
   <path d="m35.315 162.64h93.234l-76.873-53.554c-17.761-11.384-37.729-4.723-44.94 14.167-6.11 21.625 9.149 39.387 28.579 39.387" fill="url(#radialGradient4769)"/>
  </g>
  <g transform="matrix(7.7985 0 0 6.5997 338.92 -99.436)">
   <path d="m30.14 16.52 0.06978 8.8343h-19.324l-0.83604 6.5198c2.847-2.0694 6.4471-1.9188 9.2704-1.9142 4.0002 2.8e-5 7.2003 1.4002 9.6002 4.2004 2.24 2.6404 3.36 6.0004 3.36 10.08-3.2e-5 4.2798-1.0862 8.1945-4.1458 11.115-3.0597 2.9205-6.6851 4.1509-10.965 4.1107-5.159-0.047662-8.0892-0.98662-11.289-3.4648-3.1592-2.4402-4.7589-6.2601-4.7992-10.461h9.0236c0 1.783 0.75502 3.1934 2.0349 4.3537 1.961 1.6721 3.9312 1.4332 5.0474 1.398 2.4085-0.07598 3.5796-0.37075 4.7831-1.7929 1.0592-1.2516 1.5685-2.1132 1.5685-4.4202-2.4e-5 -2.24-0.47257-3.8476-1.7726-5.3473-1.3001-1.4996-2.6264-2.197-4.8664-2.197-2.6392 2.2e-5 -4.6976 0.63364-6.464 3.0454h-8.3769l2.7379-24.06z" fill="#1d598e"/>
  </g>
  <g fill="#1c5991">
   <path d="m89.811 338.56h-15.533c-0.47832-3.0434-2.2505-5.5984-5.3165-7.665-3.0661-2.0666-6.6089-3.0999-10.628-3.0999-6.7456 6e-5 -11.856 2.1814-15.33 6.5441-2.9985 3.732-4.4978 8.5836-4.4977 14.555-1.9e-5 5.7417 1.4992 10.45 4.4977 14.124 3.5412 4.3067 8.6513 6.46 15.33 6.46 4.7701 1e-5 8.6201-1.2922 11.55-3.8765 2.724-2.4109 4.3927-5.7118 5.0062-9.9029h15.536c-0.81728 7.6357-4.1391 13.736-9.9655 18.3-5.8265 4.5642-13.202 6.8464-22.127 6.8464-10.971 0-19.761-3.1004-26.369-9.3011-6.338-5.9134-9.507-13.463-9.507-22.65-4e-6 -9.4158 3.169-17.109 9.507-23.081 6.5397-6.2567 15.329-9.3851 26.369-9.3852 8.3113 6e-5 15.329 1.923 21.054 5.7688 5.9969 4.0194 9.4716 9.4737 10.424 16.363z"/>
   <path d="m112.69 379.38v-61.488h16.048v23.596h29.538v-23.596h16.045v61.488h-16.045v-26.526h-29.538v26.526z"/>
   <path d="m200.56 379.38v-61.488h16.048v61.488z"/>
   <path d="m306.3 338.56h-15.533c-0.47831-3.0434-2.2505-5.5984-5.3165-7.665-3.0661-2.0666-6.6089-3.0999-10.628-3.0999-6.7456 6e-5 -11.856 2.1814-15.33 6.5441-2.9985 3.732-4.4978 8.5836-4.4977 14.555-2e-5 5.7417 1.4992 10.45 4.4977 14.124 3.5412 4.3067 8.6513 6.46 15.33 6.46 4.7701 1e-5 8.6201-1.2922 11.55-3.8765 2.724-2.4109 4.3927-5.7118 5.0061-9.9029h15.536c-0.81726 7.6357-4.1391 13.736-9.9655 18.3-5.8265 4.5642-13.202 6.8464-22.127 6.8464-10.971 0-19.761-3.1004-26.369-9.3011-6.338-5.9134-9.507-13.463-9.507-22.65 0-9.4158 3.169-17.109 9.507-23.081 6.5397-6.2567 15.329-9.3851 26.369-9.3852 8.3113 6e-5 15.329 1.923 21.054 5.7688 5.9969 4.0194 9.4716 9.4737 10.424 16.363z"/>
   <path d="m322.22 379.38 27.698-61.488h16.453l27.289 61.488h-16.659l-5.5177-13.693h-27.289l-5.7236 13.693zm35.67-46.332-9.507 22.563h18.908l-9.1982-22.563z"/>
   <path d="m466.65 379.38-1.6375-6.9751c-5.1778 5.626-11.855 8.439-20.031 8.439-10.971 0-19.761-3.1004-26.369-9.3011-6.338-5.9134-9.507-13.463-9.507-22.65-2e-5 -9.4158 3.169-17.109 9.507-23.081 6.5397-6.2567 15.329-9.3851 26.369-9.3852 7.8351 6e-5 14.615 1.8661 20.34 5.598 6.1321 4.0176 9.6068 9.3852 10.424 16.103h-15.33c-0.88589-3.329-2.7085-5.8835-5.4678-7.6637-2.7594-1.7801-6.0813-2.6702-9.9655-2.6702-6.7456 6e-5 -11.856 2.1814-15.33 6.5441-2.9985 3.732-4.4978 8.5836-4.4977 14.555-1e-5 5.7417 1.4992 10.45 4.4977 14.124 3.5412 4.3067 8.6513 6.46 15.33 6.46 10.63 1e-5 16.421-4.4214 17.373-13.264h-16.148v-10.074h30.661v33.241z"/>
   <path d="m498.17 348.89c0-9.4158 3.169-17.109 9.507-23.081 6.5397-6.2567 15.329-9.3851 26.369-9.3852 11.037 6e-5 19.827 3.1284 26.369 9.3852 6.3358 5.9712 9.5038 13.665 9.5039 23.081-7e-5 9.1863-3.168 16.736-9.5039 22.65-6.6105 6.2007-15.4 9.3011-26.369 9.3011-10.971 0-19.761-3.1004-26.369-9.3011-6.338-5.9134-9.507-13.463-9.507-22.65zm16.048 0c-2e-5 5.7417 1.4992 10.45 4.4977 14.124 3.5412 4.3067 8.6513 6.46 15.33 6.46 6.6769 1e-5 11.787-2.1533 15.33-6.46 2.9984-3.6742 4.4977-8.3821 4.4977-14.124-6e-5 -5.9712-1.4993-10.823-4.4977-14.555-3.4747-4.3627-8.5848-6.5441-15.33-6.5441-6.7456 6e-5 -11.856 2.1814-15.33 6.5441-2.9985 3.732-4.4978 8.5836-4.4977 14.555z"/>
  </g>
 </g>
</svg>
