<svg width="800" height="196.38" version="1.1" xmlns="http://www.w3.org/2000/svg">
 <g transform="translate(-49.192 -618.09)" fill="#46c3d3">
  <path d="m356.23 717.79c0-42.366 13.291-69.717 32.76-87.386-13.254-8.5194-30.63-12.304-49.749-12.304-35.302 0-58.355 14.334-70.235 31.804-10.137-18.875-25.508-31.804-63.252-31.804-36.351 0-57.662 13.629-71.297 31.461h-0.6933v-26.22h-84.57v191.14h87.368v-101.34c0-23.41 11.53-32.141 29.706-32.141 15.371 0 23.41 6.2896 23.41 25.514v107.97h84.563v-101.34c0-23.41 11.536-32.141 29.699-32.141 15.377 0 23.428 6.2896 23.428 25.514v107.97h73.67c-25.833-16.833-44.808-46.045-44.808-96.693m386.47-10.862h-53.783v-36.039h52.709c12.635 0 22.048 3.4915 22.048 18.026 0 12.092-6.1772 18.013-20.974 18.013m97.08 84.969-3.2354-41.947c-1.3366-16.677-10.481-26.358-21.773-29.587v-0.52466c22.048-6.4583 29.587-25.821 29.587-43.834 0-20.986-11.842-39.537-26.095-46.519-10.481-5.1216-23.659-6.9954-45.439-6.9954h-153.96c24.777 17.033 42.766 46.014 42.766 95.3 0 50.648-18.975 79.86-44.814 96.693h72.103v-59.155h53.783c13.991 0 18.831 8.6006 19.631 22.854 1.3429 22.323 1.3429 30.655 4.0348 36.301h82.833c-4.8406-5.9149-8.6068-13.978-9.4188-22.585"/>
  <path d="m509.09 785.58c38.225-0.0937 62.434-19.1 62.315-67.3-0.11866-48.175-24.434-67.068-62.646-66.975-38.225 0.0999-62.434 19.1-62.315 67.281 0.12491 48.2 24.421 67.093 62.646 66.994"/>
 </g>
</svg>
