<svg width="769.71" height="800" data-name="Layer 1" version="1.1" viewBox="0 0 769.71 800" xmlns="http://www.w3.org/2000/svg">
 <defs>
  <linearGradient id="linear-gradient" x1="429.42" x2="462.59" y1="-5.35" y2="21.51" gradientTransform="matrix(9.2926 0 0 -9.2926 -3598.6 264.24)" gradientUnits="userSpaceOnUse">
   <stop stop-color="#524a48" offset="0"/>
   <stop stop-color="#000105" offset="1"/>
  </linearGradient>
  <linearGradient id="linear-gradient-2" x1="391.2" x2="428.41" y1="9.55" y2="9.55" gradientTransform="matrix(9.2926 0 0 -9.2926 -3598.6 264.24)" gradientUnits="userSpaceOnUse">
   <stop stop-color="#0a4662" offset="0"/>
   <stop stop-color="#24769e" offset="1"/>
  </linearGradient>
  <linearGradient id="linear-gradient-3" x1="429.26" x2="466.39" y1="-20.75" y2="-20.75" gradientTransform="matrix(9.2926 0 0 -9.2926 -3598.6 264.24)" gradientUnits="userSpaceOnUse">
   <stop stop-color="#78bcce" offset="0"/>
   <stop stop-color="#497783" offset="1"/>
  </linearGradient>
  <linearGradient id="linear-gradient-4" x1="391.2" x2="428.41" y1="-20.75" y2="-20.75" gradientTransform="matrix(9.2926 0 0 -9.2926 -3598.6 264.24)" gradientUnits="userSpaceOnUse">
   <stop stop-color="#524a48" offset="0"/>
   <stop stop-color="#949494" offset="1"/>
  </linearGradient>
 </defs>
 <path class="cls-1" d="m764.27 284.59v-168.66c0-61.238-53.99-110.86-120.8-110.86h-517.6c-62.446 0-120.8 44.604-120.8 126.38v552.63c0.3717 61.238 57.521 110.86 110.49 110.86h528.28c66.628 0 120.8-49.622 120.8-110.86v-399.58z" fill="#fff" stroke="#f1f1f2" stroke-miterlimit="10" stroke-width="10.129px"/>
 <path class="cls-2" d="m621.81 38.797h-231.48v272.92h344.94v-170.43c0.0929-56.592-50.923-102.5-113.46-102.5z" fill="url(#linear-gradient)" stroke-width="9.2926"/>
 <path class="cls-3" d="m150.49 38.797h232.32v272.92h-346.43v-170.43c0-56.592 51.202-102.5 114.11-102.5z" fill="url(#linear-gradient-2)" stroke-width="9.2926"/>
 <path class="cls-4" d="m621.81 593.75h-231.48v-273.39h344.94v170.89c0.0929 56.592-50.923 102.5-113.46 102.5z" fill="url(#linear-gradient-3)" stroke-width="9.2926"/>
 <path class="cls-5" d="m150.49 593.75h232.32v-273.39h-346.43v170.89c0 56.592 51.202 102.5 114.11 102.5z" fill="url(#linear-gradient-4)" stroke-width="9.2926"/>
 <path class="cls-6" d="m72.529 182.27h54.269v22.395c11.523-21.931 41.724-30.294 65.048-30.294a83.633 83.633 0 0 1 65.792 30.294 47.857 47.857 0 0 1 5.7614 7.4341 26.112 26.112 0 0 1 6.226-7.4341 94.227 94.227 0 0 1 72.111-30.294 96.178 96.178 0 0 1 75.084 30.294c22.674 24.068 25.369 52.596 25.369 84.191v136.42h-59.287v-129.35c0-14.032 0-34.197-9.2926-46.463a45.348 45.348 0 0 0-37.17-18.028 47.206 47.206 0 0 0-39.865 21.001c-10.222 15.797-9.2926 39.494-9.2926 56.964v115.88h-59.473v-129.35a75.27 75.27 0 0 0-9.2926-44.697 46.463 46.463 0 0 0-38.657-19.793c-47.113 0-48.043 43.861-48.043 78.058v115.79h-59.287z" fill="#fff" stroke-width="9.2926"/>
 <path class="cls-6" d="m532.79 402.42-90.231-220.23h67.186l56.313 155.74 59.101-155.65h67.186l-141.25 324.03h-63.654z" fill="#fff" stroke-width="9.2926"/>
 <path class="cls-7" d="m119.27 739.18-22.674-73.226v73.226h-25.555v-110.4h37.17l21.094 67.743 21.187-67.836h37.17v110.49h-26.112v-73.04l-22.953 73.04z" fill="#000105" stroke-width="9.2926"/>
 <path class="cls-7" d="m195.93 628.78h24.254v19.422h-24.254zm0 27.041h24.254v83.633h-24.254v-83.912z" fill="#000105" stroke-width="9.2926"/>
 <path class="cls-7" d="m283.94 709.54h26.112a46.463 46.463 0 0 1-17.284 24.532 45.534 45.534 0 0 1-25.462 7.3412 41.073 41.073 0 0 1-31.316-13.288 43.211 43.211 0 0 1-12.545-30.294 47.299 47.299 0 0 1 11.616-30.666 39.122 39.122 0 0 1 31.967-14.032 43.396 43.396 0 0 1 43.118 32.803h-26.205a18.028 18.028 0 0 0-16.448-9.2926 19.236 19.236 0 0 0-19.607 20.351 22.767 22.767 0 0 0 4.6463 14.311 17.284 17.284 0 0 0 14.589 6.0402 20.63 20.63 0 0 0 16.82-7.8058z" fill="#000105" stroke-width="9.2926"/>
 <path class="cls-7" d="m336.9 694.11v45.069h-23.882v-110.4h23.324v37.17a29.922 29.922 0 0 1 9.7572-9.2926 28.435 28.435 0 0 1 13.66-2.9736h2.3232a25.276 25.276 0 0 1 18.585 7.7129 30.201 30.201 0 0 1 7.7129 22.302v55.477h-24.718v-45.069a25.09 25.09 0 0 0-2.0444-12.638 9.2926 9.2926 0 0 0-9.2926-4.1817h-3.2524a14.032 14.032 0 0 0-8.6421 4.1817 17.284 17.284 0 0 0-3.5312 12.638z" fill="#000105" stroke-width="9.2926"/>
 <path class="cls-7" d="m396.28 628.78h24.254v19.422h-24.254zm0 27.041h24.254v83.633h-24.254v-83.912z" fill="#000105" stroke-width="9.2926"/>
 <path class="cls-7" d="m516.34 655.55v83.633h-24.068v-9.2926a35.962 35.962 0 0 1-25.183 9.9431 37.17 37.17 0 0 1-28.435-12.452 42.467 42.467 0 0 1-11.987-30.201 44.512 44.512 0 0 1 11.523-29.179 37.17 37.17 0 0 1 29.829-13.66 29.736 29.736 0 0 1 12.917 2.6948 32.896 32.896 0 0 1 10.779 7.8058v-9.2926h24.532zm-65.048 41.352a18.585 18.585 0 0 0 6.0402 14.589 22.302 22.302 0 0 0 28.807 0 18.585 18.585 0 0 0 5.9473-14.775 19.236 19.236 0 0 0-20.351-20.63 21.187 21.187 0 0 0-14.311 5.3897 19.05 19.05 0 0 0-6.226 15.054z" fill="#000105" stroke-width="9.2926"/>
 <path class="cls-7" d="m550.45 694.11v45.069h-23.975v-83.633h23.046v11.244a27.878 27.878 0 0 1 24.254-12.731h1.5798a25.183 25.183 0 0 1 18.585 7.7129 30.201 30.201 0 0 1 7.7129 22.302v55.105h-24.532v-45.069a25.462 25.462 0 0 0-2.509-12.824 9.2926 9.2926 0 0 0-9.2926-4.1817l-4.7392 0.46463a12.452 12.452 0 0 0-7.1553 3.9958 17.935 17.935 0 0 0-2.9736 12.545z" fill="#000105" stroke-width="9.2926"/>
 <path class="cls-7" d="m696.16 655.55v83.633h-24.161v-9.2926a36.055 36.055 0 0 1-25.276 9.9431 37.17 37.17 0 0 1-28.435-12.452 42.467 42.467 0 0 1-11.616-30.201 44.512 44.512 0 0 1 11.616-29.179 37.17 37.17 0 0 1 29.829-13.66 29.643 29.643 0 0 1 12.917 2.6948 32.71 32.71 0 0 1 10.594 8.1775v-9.6643zm-65.048 41.352a18.585 18.585 0 0 0 6.0402 14.589 22.302 22.302 0 0 0 28.807 0 18.585 18.585 0 0 0 5.9473-14.775 19.236 19.236 0 0 0-20.351-20.63 21.187 21.187 0 0 0-14.311 5.3897 18.585 18.585 0 0 0-6.226 15.054z" fill="#000105" stroke-width="9.2926"/>
</svg>
