<svg width="800" height="745.66" version="1.1" xmlns="http://www.w3.org/2000/svg">
 <defs>
  <radialGradient id="radialGradient3071" cx="508.87" cy="1084.3" r="497" gradientTransform="matrix(.99173 0 0 .92207 4.2098 -37.034)" gradientUnits="userSpaceOnUse">
   <stop stop-color="#fefe9e" offset="0"/>
   <stop stop-color="#f8b33a" offset="1"/>
  </radialGradient>
 </defs>
 <g transform="matrix(.80483 0 0 .80483 -14.085 -38.239)">
  <path d="m17.504 47.512h993.99v896.39h-993.99z" fill="#cb0101" fill-rule="evenodd"/>
  <g fill="#fff" fill-rule="evenodd">
   <path d="m78.769 102.53h180.04v793.94h-180.04z"/>
   <path d="m307.56 102.53v167.53h342.31l-342.31 626.41h216.31l433.84-793.94z"/>
  </g>
  <path d="m17.5 943.91v30.094h994v-30.094z" fill="url(#radialGradient3071)" fill-rule="evenodd"/>
  <g transform="matrix(2.0116 0 0 2.0116 612.71 536.44)" fill="#fff" stroke="#cb0101" stroke-width="1.9884">
   <path d="m92.594 0c-51.108-1e-6 -92.594 41.486-92.594 92.594s41.486 92.562 92.594 92.562c51.108-1e-5 92.562-41.455 92.562-92.562s-41.455-92.594-92.562-92.594zm-3.4062 39.5c0.91489-0.01786 1.8334-0.01244 2.75 0 30.87-0.12765 61.29 15.769 78.188 41.719 2.2615 3.3552 5.2477 8.7472 6.4062 11.375-10.503 22.439-30.5 40.066-53.969 47.938-30.551 10.834-66.764 4.2925-90.844-17.625-9.6719-8.401-17.132-19.295-23.125-30.312 2.5454-4.0985 5.4204-9.8751 8.7188-14.219 16.107-23.302 43.513-38.321 71.875-38.875z"/>
   <path d="m92.561 43.786c-26.936 0-48.775 21.84-48.775 48.775 0 26.936 21.84 48.809 48.775 48.809 26.936 0 48.809-21.874 48.809-48.809 0-26.936-21.874-48.775-48.809-48.775z"/>
  </g>
 </g>
</svg>
