<svg width="800" height="257.65" version="1.1" viewBox="0 0 800 257.65" xmlns="http://www.w3.org/2000/svg">
 <path d="m263.22 128.97c0-33.879 24.687-61.377 57.73-67.224-30.487-37.247-84.93-61.748-147.34-61.748-95.882 0-173.61 57.67-173.61 128.8 0 71.15 77.661 130.39 173.61 128.82 62.234-1.0286 116.82-24.303 147.46-60.807-32.916-5.9379-57.856-34.05-57.856-67.842z" fill="#fbc112" stroke-width="2.999"/>
 <path d="m719.94 65.071h-50.172v133.31h48.559c51.132 0 81.673-25.215 81.673-67.458v-0.41985c0-41.595-29.198-65.437-80.06-65.437zm39.841 66.847c0 21.059-13.825 32.659-38.866 32.659h-11.366v-65.689h11.366c25.041 0 38.836 11.588 38.836 32.629v0.40485zm-171.75-66.787h-39.793v133.33h105.68v-33.018h-65.887zm-205.4 8.673s-23.392-20.513-61.868-11.861c0 0 45.794 10.376 51.222 63.992 0 0 3.9346 53.123-51.66 70.667 0 0 53.861 14.815 83.023-35.358 0 0 26.931-48.433-20.753-87.479zm152.17 33.693c0-22.222-14.575-42.396-50.052-42.396h-63.878v133.19h41.835v-44.085h8.7869l21.472 44.085h45.944l-28.01-51.003c16.434-7.8453 23.902-23.341 23.902-39.79zm-55.661 18.129h-16.434v-29.144h16.614c10.076 0 14.755 7.2875 14.755 14.569 0 7.6563-5.2392 14.575-14.95 14.575z" fill="#fff" stroke-width="2.999"/>
 <path d="m232.72 64.411-17.706 73.984-25.791-74.38h-35.208l-20.882 74.344-22.612-73.948h-41.535l43.557 134.09h35.837l22.75-58.719 22.756 58.719h35.864l43.545-134.09z" stroke-width="2.999"/>
</svg>
