<svg width="800" height="667.24" version="1.1" viewBox="0 0 800 667.24" xmlns="http://www.w3.org/2000/svg">
 <g transform="matrix(26.567 0 0 26.567 -159.4 -81.707)" fill="none" fill-rule="evenodd">
  <g fill="#02273d">
   <g transform="translate(6,3)">
    <path d="m0.78459 11.002c1.4936-3.5592 6.1167-9.4637 6.1632-9.5229 0.029741-0.037818 0.083411-0.046499 0.12342-0.020004s0.053066 0.079335 0.029892 0.12138c-1.6546 3.0073-2.3195 5.6925-2.5859 7.4156-0.27394 1.7713-0.19445 2.9163-0.18456 3.0393 0.00136 0.0063 0.00204 0.01283 0.00204 0.01955 0 0.05171-0.043178 0.09421-0.094659 0.09217-0.035554-6.04e-4 -0.068541-0.02189-0.083109-0.05593-0.00415-0.0097-0.42234-0.97255-1.0258-1.1579-0.071183-0.02189-0.14131-0.03299-0.20834-0.03299-0.53413 0-0.79637 0.70201-0.79894 0.70911-9.059e-4 0.0025-0.00189 0.0048-0.00302 0.0072-2.4372 5.2588-0.25846 10.561 5.4217 13.193 0.311 0.14418 0.62766 0.26948 0.94915 0.37667l0.015022 0.0043v-9.1758h5.3091v-7.2843h-5.3091v-1.56h7.2717v-7.0956h-15.776v13.449c0.16992-0.83683 0.43117-1.6798 0.7846-2.522"/>
    <polygon points="15.608 8.7732 15.871 10.023 16.181 8.7732 16.646 8.7732 16.956 10.023 17.216 8.7732 17.912 8.7732 17.327 10.817 16.677 10.817 16.414 9.6587 16.15 10.817 15.501 10.817 14.915 8.7732"/>
    <path d="m19.478 9.7965c0-0.28488-0.19309-0.51164-0.4902-0.51164-0.29726 0-0.4902 0.22676-0.4902 0.51164 0 0.28496 0.19294 0.51164 0.4902 0.51164 0.29711 0 0.4902-0.22668 0.4902-0.51164m-1.6086 0c0-0.62804 0.48726-1.057 1.1184-1.057s1.1182 0.42898 1.1182 1.057c0 0.62811-0.48711 1.057-1.1182 1.057s-1.1184-0.42891-1.1184-1.057"/>
    <path d="m21.463 9.4718c0-0.11028-0.09805-0.15935-0.20222-0.15935h-0.37682v0.32172h0.37682c0.10417 0 0.20222-0.04899 0.20222-0.16237zm-0.07352 1.345-0.28186-0.64336h-0.22366v0.64336h-0.61891v-2.0435h1.0907c0.47797 0 0.7353 0.31862 0.7353 0.70164 0 0.35229-0.20517 0.53919-0.36761 0.61883l0.37071 0.72307z"/>
    <polygon points="23.737 10.817 22.343 10.817 22.343 8.7732 22.962 8.7732 22.962 10.278 23.737 10.278"/>
    <path d="m25.33 9.7935c0-0.27575-0.15927-0.48107-0.4902-0.48107h-0.29726v0.96516h0.29417c0.30942 0 0.4933-0.22668 0.4933-0.48409zm-1.4063 1.0234v-2.0436h0.913c0.64336 0 1.1213 0.36761 1.1213 1.0203 0 0.65265-0.47797 1.0234-1.1182 1.0234z"/>
    <polygon points="15.736 12.119 16.646 12.119 16.646 12.658 15.736 12.658 15.736 13.421 15.118 13.421 15.118 11.377 16.668 11.377 16.668 11.917 15.736 11.917"/>
    <polygon points="17.55 13.421 17.55 11.377 16.932 11.377 16.932 13.421"/>
    <path d="m17.725 13.133 0.3218-0.45956c0.15316 0.14705 0.38294 0.26344 0.65861 0.26344 0.11647 0 0.22676-0.03057 0.22676-0.11028 0-0.19604-1.1397 0.0031-1.1397-0.80271 0-0.34618 0.28798-0.6771 0.84868-0.6771 0.33395 0 0.63415 0.09496 0.86702 0.28496l-0.33093 0.43812c-0.17769-0.13482-0.40747-0.20222-0.60049-0.20222-0.12259 0-0.15626 0.03986-0.15626 0.09194 0 0.19302 1.1367 0.02755 1.1367 0.78739 0 0.45042-0.33387 0.71085-0.88235 0.71085-0.4351 0-0.73228-0.1287-0.94983-0.32481"/>
    <polygon points="19.76 11.377 20.379 11.377 20.379 12.101 21.111 12.101 21.111 11.377 21.73 11.377 21.73 13.421 21.111 13.421 21.111 12.64 20.379 12.64 20.379 13.421 19.76 13.421"/>
    <polygon points="22.68 13.421 22.68 11.377 22.061 11.377 22.061 13.421"/>
    <polygon points="23.648 11.377 24.359 12.346 24.359 11.377 24.978 11.377 24.978 13.421 24.383 13.421 23.63 12.385 23.63 13.421 23.011 13.421 23.011 11.377"/>
    <path d="m25.137 12.401c0-0.65567 0.50553-1.057 1.1244-1.057 0.48718 0 0.76904 0.26963 0.89775 0.53315l-0.52085 0.26654c-0.05827-0.12561-0.19302-0.25431-0.3769-0.25431-0.29719 0-0.49632 0.22676-0.49632 0.51164 0 0.28496 0.19913 0.51172 0.49632 0.51172 0.1164 0 0.25439-0.04295 0.31862-0.09194v-0.0736h-0.37984v-0.53919h0.99565v0.83645c-0.22668 0.25122-0.533 0.41358-0.93443 0.41358-0.6189 0-1.1244-0.40445-1.1244-1.057"/>
    <polygon points="15.755 13.982 16.466 14.95 16.466 13.982 17.085 13.982 17.085 16.025 16.49 16.025 15.736 14.99 15.736 16.025 15.118 16.025 15.118 13.982"/>
    <polygon points="17.973 14.723 18.883 14.723 18.883 15.262 17.973 15.262 17.973 15.486 18.905 15.486 18.905 16.025 17.354 16.025 17.354 13.982 18.905 13.982 18.905 14.521 17.973 14.521"/>
    <polygon points="20.783 14.521 20.238 14.521 20.238 16.025 19.619 16.025 19.619 14.521 19.07 14.521 19.07 13.982 20.783 13.982"/>
    <polygon points="21.494 13.982 21.757 15.232 22.067 13.982 22.533 13.982 22.842 15.232 23.102 13.982 23.798 13.982 23.213 16.025 22.563 16.025 22.3 14.867 22.036 16.025 21.387 16.025 20.801 13.982"/>
    <path d="m25.364 15.005c0-0.28488-0.19302-0.51156-0.4902-0.51156s-0.4902 0.22668-0.4902 0.51156c0 0.28496 0.19302 0.51172 0.4902 0.51172s0.4902-0.22676 0.4902-0.51172m-1.6085 0c0-0.62804 0.48718-1.0569 1.1183-1.0569 0.63113 0 1.1183 0.42891 1.1183 1.0569 0 0.62811-0.48718 1.0571-1.1183 1.0571-0.63113 0-1.1183-0.42898-1.1183-1.0571"/>
    <path d="m27.349 14.68c0-0.11028-0.09806-0.15927-0.20223-0.15927h-0.37682v0.32164h0.37682c0.10417 0 0.20223-0.04899 0.20223-0.16237zm-0.07352 1.345-0.28186-0.64336h-0.22366v0.64336h-0.6189v-2.0435h1.0907c0.47797 0 0.7353 0.31862 0.7353 0.70164 0 0.35229-0.20517 0.53919-0.36761 0.61883l0.37071 0.72307z"/>
    <polygon points="28.168 13.982 28.786 13.982 28.786 14.748 29.323 13.982 30.079 13.982 29.307 14.932 30.113 16.025 29.359 16.025 28.9 15.305 28.786 15.458 28.786 16.025 28.168 16.025"/>
   </g>
  </g>
 </g>
</svg>
