<svg width="3167.1" height="1e3" version="1.1" xmlns="http://www.w3.org/2000/svg">
 <defs>
  <radialGradient id="radialGradient3041" cx="652.73" cy="32.683" r="38.379" gradientTransform="matrix(1.3891 2.7717e-5 .00043414 1.4493 -716.25 -12.374)" gradientUnits="userSpaceOnUse">
   <stop stop-color="#373838" offset="0"/>
   <stop offset="1"/>
  </radialGradient>
  <radialGradient id="radialGradient3043" cx="800.86" cy="-1263" r="112.88" gradientTransform="matrix(.18763 1.3613 -1.4202 .19575 -1043.1 -382.27)" gradientUnits="userSpaceOnUse">
   <stop offset="0"/>
   <stop stop-color="#3e3e3e" offset="1"/>
  </radialGradient>
 </defs>
 <g transform="translate(473.61 728.72)">
  <g transform="matrix(3.8151 0 0 3.8151 1333.3 -763.69)">
   <g transform="matrix(3.4721 0 0 3.3878 -553.91 13.335)" fill="#fff">
    <g fill="#000">
     <path d="m23.129 8.7164h36.474c17.216 0 24.156 11.87 24.203 20.436 0 11.086-8.9288 20.75-23.572 20.75l-19.679 0.14532v16.105h-17.427zm38.489 27.287c1.5628 0.0011 4.9661-2.859 4.9661-6.8885 0-3.4585-2.7869-6.2853-5.2747-6.3743l-1.4745-0.05271h-19.202l-0.07606 13.315h19.684z"/>
     <path d="m87.266 8.571h17.438v57.68h-17.438z"/>
     <path transform="matrix(.92233 0 0 1 14.477 0)" d="m160.8 8.94h23.904l-28.713 27.411 30.129 29.801h-24.786l-18.334-18.407-19.055 18.407h-24.374l31.522-29.353-29.225-27.859h25.794l16.176 16.53z"/>
    </g>
   </g>
   <g transform="matrix(3.4865 0 0 3.4018 -560.48 9.1682)">
    <path d="m224.65 0c-21.191 0-38.379 17.247-38.379 38.523 0 21.28 17.186 38.529 38.379 38.529 21.198 0 38.379-17.247 38.379-38.529-9.9e-4 -21.276-17.18-38.523-38.379-38.523m0 68.211c-16.327 0-29.568-13.293-29.568-29.69 0-16.398 13.241-29.684 29.568-29.684 16.334 0 29.568 13.286 29.568 29.684s-13.234 29.69-29.568 29.69" fill="url(#radialGradient3041)"/>
    <path d="m225.31 21.8c0.643 0.318 1.803 1.13 1.803 2.104v38.096h12.162v-47.152l-13.965 6.952z"/>
    <path d="m208.4 21.8c0.643 0.318 1.803 1.13 1.803 2.104v38.096h12.168v-47.152l-13.971 6.952z"/>
   </g>
   <path transform="translate(-574.29 -370.49)" d="m814.73 610.23s83.804-13.174 83.804-100.15c0-52.039-39.541-98.995-97.48-98.995-73.458 0-96.55 55.053-96.55 55.053s23.781-80.812 122.31-80.812c42.848 0 104.03 53.396 104.03 124.78 0 111.56-116.11 100.13-116.11 100.13z" fill="url(#radialGradient3043)"/>
  </g>
 </g>
</svg>
