<svg width="800" height="311.92" version="1.1" xmlns="http://www.w3.org/2000/svg">
 <g transform="scale(.1655)">
  <g fill="#ac1f25">
   <g fill-rule="evenodd">
    <path d="m0 34.781v1238.5h353.38v-400.31h336.91v-336.35h-336.91v-164.32h412.41l-21.219-337.49h-391.19z"/>
    <path d="m1331.3 54.062c-326.59 0-591.34 268.73-591.34 600.22s264.76 600.22 591.34 600.22c326.59 0 591.31-268.73 591.31-600.22s-264.73-600.22-591.31-600.22zm7.25 247.59c57.563 0 103.91 42.258 103.91 94.781v515.12c0 52.523-46.343 94.812-103.91 94.812-57.563 0-103.91-42.29-103.91-94.812v-515.12c0-52.523 46.343-94.781 103.91-94.781z"/>
    <path d="m1743 34.781 344.19 598.16-368.44 640.31h386.72l175.09-304.28 175.09 304.28h386.72l-367.69-641.69 343.41-596.78h-386.72l-149.62 260.03-149-260.03z"/>
   </g>
   <path d="m3033.8 946.15c-0.2255 23.82 7.9865 67.742 16.33 102.69 8.3432 34.951 27.736 71.46 58.177 109.53 44.309 50.052 97.3 85.299 158.97 105.74 61.672 20.444 125.94 30.313 192.8 29.608 159.99-5.5283 275.21-54.133 345.68-145.81 70.466-91.681 108.08-189.11 106.62-300.61-2.857-125.56-36.422-235.08-106.93-303.64-70.505-68.565-166-104.33-269.88-105.22-68.212 1.5963-110.96 7.0161-146.92 26.643-35.966 19.628-60.136 27.277-78.739 45.791l14.159-288.08h516.64v-197.09h-767.22l-25.748 738.64 270.92 7.1237c3.0813-17.66 13.783-45.115 36.257-76.133 22.474-31.017 53.868-59.654 112.87-63.068 59.868 1.8186 100.86 35.427 127.13 77.984 26.269 42.557 33.931 94.575 33.368 156.05-1.6542 81.404-36.336 165.46-66.756 190.55-35.458 29.25-46.886 40.154-99.322 43.787-61.522-4.0068-89.726-27.75-116.8-61.886-19.806-35.173-33.642-74.347-31.123-92.602z"/>
   <path d="m4391.1 0c-148.38 5.4941-239.03 56.907-302 139.41-62.969 82.501-95.156 165.98-113.16 267.06-18 101.08-25.95 181.97-23.875 242.62-0.6134 113.23 13.04 218.41 41 315.53 27.96 97.118 73.887 175.64 137.78 235.59 63.894 59.958 149.44 90.84 256.62 92.594 124.95-2.9303 219.75-39.636 284.34-110.09 64.596-70.458 108.09-157.11 130.53-259.94 22.438-102.82 32.922-204.22 31.406-304.25-0.6785-115.97-26.06-226.69-47.063-296.81-21.004-70.124-40.833-110.46-74.031-156.31-23.187-37.571-54.475-73.899-108.38-109-53.902-35.099-124.96-53.895-213.19-56.406zm-1.0937 190.94c110.72 0 151.59 203.61 151.59 454.78s-28.415 454.78-151.59 454.78c-108.64 0-151.59-203.61-151.59-454.78s53.335-454.78 151.59-454.78z"/>
  </g>
  <g fill="#808183" fill-rule="evenodd">
   <path d="m921.71 1405.7v471.26h136.37v-152.33h130.02v-127.99h-130.02v-62.526h159.15l-8.1886-128.42h-150.96z"/>
   <path d="m1431.7 1413c-123.34 0-223.32 102.26-223.32 228.4s99.986 228.4 223.32 228.4c123.34 0 223.31-102.26 223.31-228.4s-99.974-228.4-223.31-228.4zm2.738 94.215c21.739 0 39.24 16.08 39.24 36.066v196.02c0 19.986-17.502 36.078-39.24 36.078s-39.24-16.092-39.24-36.078v-196.02c0-19.986 17.502-36.066 39.24-36.066z"/>
   <path d="m1584.9 1405.7 128.51 225.65-137.57 241.55h144.4l65.378-114.79 65.378 114.79h148.46l-141.36-242.07 128.22-225.13h-144.4l-55.868 98.094-52.73-98.094z"/>
  </g>
  <g fill="#808183">
   <path d="m1989.1 1753.5c-0.086 8.9958 3.0271 25.583 6.1896 38.783 3.1624 13.2 10.513 26.988 22.051 41.364 16.795 18.902 36.88 32.214 60.257 39.935 23.376 7.7207 47.735 11.448 73.077 11.182 60.641-2.0878 104.32-20.444 131.03-55.068 26.709-34.624 40.967-71.421 40.412-113.53-1.0829-47.417-13.805-88.778-40.529-114.67-26.724-25.894-62.921-39.402-102.29-39.738-25.855 0.6029-42.056 2.6497-55.689 10.062-13.633 7.4127-22.794 10.302-29.845 17.293l5.3668-108.79h195.83v-74.433h-290.81l-9.7596 278.95 102.69 2.6904c1.1679-6.6696 5.2242-17.038 13.743-28.752 8.5184-11.714 20.418-22.529 42.783-23.818 22.692 0.6868 38.23 13.379 48.187 29.451 9.9571 16.072 12.861 35.717 12.648 58.935-0.627 30.743-13.772 62.487-25.303 71.964-13.44 11.046-17.771 15.164-37.647 16.537-23.319-1.5131-34.01-10.48-44.272-23.372-7.5073-13.283-12.752-28.078-11.797-34.972z"/>
   <path d="m2503.7 1396.1c-56.05 2.0749-90.291 21.492-114.08 52.648-23.786 31.157-35.944 62.685-42.743 100.86-6.7995 38.174-9.8021 68.722-9.0185 91.629-0.2317 42.764 4.9257 82.486 15.487 119.16 10.561 36.677 27.91 66.33 52.045 88.974s56.447 34.306 96.937 34.969c47.2-1.1067 83.006-14.969 107.41-41.578 24.4-26.609 40.83-59.336 49.306-98.167 8.4758-38.832 12.436-77.127 11.863-114.9-0.2562-43.799-9.8438-85.61-17.777-112.09-7.934-26.483-15.424-41.716-27.964-59.033-8.7587-14.189-20.577-27.909-40.937-41.165-20.361-13.255-47.202-20.354-80.529-21.302zm-0.4132 72.109c41.823 0 57.263 76.896 57.263 171.75 0 94.856-10.733 171.75-57.263 171.75-41.038 0-57.263-76.896-57.263-171.75 0-94.856 20.146-171.75 57.263-171.75z"/>
  </g>
  <path transform="matrix(.96605 0 0 .9784 97.686 33.506)" d="m2893.1 1662.6c0 48.158-39.04 87.198-87.198 87.198s-87.198-39.04-87.198-87.198 39.04-87.198 87.198-87.198 87.198 39.04 87.198 87.198z" fill="#ac1f25" fill-rule="evenodd"/>
  <path d="m2735.3 1646.1s12.332-54.772 65.824-59.456c51.99-4.5533 69.28 35.814 69.28 35.814-48.093-35.804-95.266-21.633-135.1 23.642z" fill="#ffb39f"/>
  <g fill="#808183">
   <path d="m3120 1692.1 84.966 11.429c-4.684 20.954-12.368 39.093-23.053 54.419s-24.334 27.231-40.946 35.716c-16.613 8.4853-37.726 12.728-63.34 12.728-24.736 0-45.337-2.7274-61.803-8.1823s-30.627-14.287-42.483-26.495-21.15-26.538-27.883-42.99c-6.7328-16.451-10.099-38.271-10.099-65.458 0-28.4 4.0982-52.038 12.295-70.914 6.001-13.853 14.198-26.278 24.59-37.275 10.392-10.996 21.077-19.178 32.054-24.547 17.418-8.4852 39.738-12.728 66.963-12.728 38.055 3e-4 67.072 8.0527 87.051 24.157 19.979 16.105 33.993 39.656 42.044 70.654l-84.087 13.248c-2.6348-11.776-7.4283-20.65-14.38-26.625-6.9526-5.9741-16.283-8.9613-27.992-8.9615-14.783 2e-4 -26.749 6.2776-35.896 18.832-9.148 12.555-13.722 31.56-13.722 57.016-1e-4 22.686 4.5373 39.916 13.612 51.692 9.0746 11.776 20.638 17.663 34.689 17.663 11.709 0 21.552-3.5499 29.529-10.65 7.9767-7.1 13.941-18.01 17.893-32.729z"/>
   <path d="m3218.9 1662.7c0-42.08 11.929-76.758 35.788-104.03 23.859-27.274 56.082-40.911 96.672-40.912 46.408 3e-4 81.469 16.018 105.18 48.055 19.058 25.803 28.587 57.579 28.587 95.33-3e-4 42.427-11.821 77.191-35.461 104.29-23.641 27.101-56.337 40.652-98.09 40.652-37.243 0-67.357-11.256-90.343-33.768-28.223-27.88-42.335-64.42-42.335-109.62zm89.034-0.2597c-1e-4 24.59 4.1825 42.773 12.548 54.549 8.3649 11.776 18.876 17.663 31.533 17.663 12.802 0 23.313-5.8013 31.533-17.404 8.2194-11.602 12.329-30.218 12.329-55.848-2e-4 -23.897-4.1464-41.691-12.438-53.38-8.2926-11.689-18.549-17.533-30.769-17.534-12.948 1e-4 -23.641 5.9312-32.078 17.793-8.438 11.862-12.657 29.915-12.657 54.159z"/>
   <path d="m3513.5 1524h83.003v40.262c11.941-16.797 23.991-28.746 36.15-35.846 12.159-7.0997 26.83-10.65 44.014-10.65 18.494 3e-4 33.128 3.8967 43.904 11.689 10.776 7.7929 19.586 19.395 26.43 34.807 13.979-18.009 26.721-30.261 38.225-36.755 11.504-6.4937 25.702-9.7406 42.594-9.7409 24.901 3e-4 44.341 8.7888 58.321 26.365 13.979 17.577 20.969 45.068 20.969 82.473v173.26h-89.119v-157.15c-4e-4 -12.468-2.039-21.733-6.116-27.794-5.9707-9.5242-13.397-14.286-22.28-14.287-10.485 2e-4 -18.931 4.5026-25.338 13.507-6.4075 9.0051-9.6111 23.465-9.6108 43.379v142.35h-89.119v-151.96c-2e-4 -12.122-0.5827-20.347-1.7474-24.677-1.8933-6.9267-5.1697-12.511-9.8293-16.754-4.66-4.2425-10.121-6.3638-16.382-6.364-10.194 2e-4 -18.567 4.5892-25.119 13.767-6.553 9.1782-9.8294 24.244-9.8293 45.198v140.79h-89.119z"/>
  </g>
 </g>
</svg>
