<svg width="800.01" height="214.12" version="1.1" xmlns="http://www.w3.org/2000/svg">
 <g transform="matrix(.1655 0 0 .1655 0 .000331)" fill="#ac1f25">
  <g fill-rule="evenodd">
   <path d="m0 34.781v1238.5h353.38v-400.31h336.91v-336.35h-336.91v-164.32h412.41l-21.219-337.49h-391.19z"/>
   <path d="m1331.3 54.062c-326.59 0-591.34 268.73-591.34 600.22s264.76 600.22 591.34 600.22c326.59 0 591.31-268.73 591.31-600.22s-264.73-600.22-591.31-600.22zm7.25 247.59c57.563 0 103.91 42.258 103.91 94.781v515.12c0 52.523-46.343 94.812-103.91 94.812-57.563 0-103.91-42.29-103.91-94.812v-515.12c0-52.523 46.343-94.781 103.91-94.781z"/>
   <path d="m1743 34.781 344.19 598.16-368.44 640.31h386.72l175.09-304.28 175.09 304.28h386.72l-367.69-641.69 343.41-596.78h-386.72l-149.62 260.03-149-260.03z"/>
  </g>
  <path d="m3033.8 946.15c-0.2255 23.82 7.9865 67.742 16.33 102.69 8.3432 34.951 27.736 71.46 58.177 109.53 44.309 50.052 97.3 85.299 158.97 105.74 61.672 20.444 125.94 30.313 192.8 29.608 159.99-5.5283 275.21-54.133 345.68-145.81 70.466-91.681 108.08-189.11 106.62-300.61-2.857-125.56-36.422-235.08-106.93-303.64-70.505-68.565-166-104.33-269.88-105.22-68.212 1.5963-110.96 7.0161-146.92 26.643-35.966 19.628-60.136 27.277-78.739 45.791l14.159-288.08h516.64v-197.09h-767.22l-25.748 738.64 270.92 7.1237c3.0813-17.66 13.783-45.115 36.257-76.133 22.474-31.017 53.868-59.654 112.87-63.068 59.868 1.8186 100.86 35.427 127.13 77.984 26.269 42.557 33.931 94.575 33.368 156.05-1.6542 81.404-36.336 165.46-66.756 190.55-35.458 29.25-46.886 40.154-99.322 43.787-61.522-4.0068-89.726-27.75-116.8-61.886-19.806-35.173-33.642-74.347-31.123-92.602z"/>
  <path d="m4391.1 0c-148.38 5.4941-239.03 56.907-302 139.41-62.969 82.501-95.156 165.98-113.16 267.06-18 101.08-25.95 181.97-23.875 242.62-0.6134 113.23 13.04 218.41 41 315.53 27.96 97.118 73.887 175.64 137.78 235.59 63.894 59.958 149.44 90.84 256.62 92.594 124.95-2.9303 219.75-39.636 284.34-110.09 64.596-70.458 108.09-157.11 130.53-259.94 22.438-102.82 32.922-204.22 31.406-304.25-0.6785-115.97-26.06-226.69-47.063-296.81-21.004-70.124-40.833-110.46-74.031-156.31-23.187-37.571-54.475-73.899-108.38-109-53.902-35.099-124.96-53.895-213.19-56.406zm-1.0937 190.94c110.72 0 151.59 203.61 151.59 454.78s-28.415 454.78-151.59 454.78c-108.64 0-151.59-203.61-151.59-454.78s53.335-454.78 151.59-454.78z"/>
 </g>
</svg>
