<svg width="1e3" height="767.65" version="1.1" viewBox="0 0 1e3 767.65" xmlns="http://www.w3.org/2000/svg">
 <defs>
  <clipPath id="clipPath20">
   <path d="m0 0h8053v6181.9h-8053z"/>
  </clipPath>
 </defs>
 <g transform="translate(626.15 -246.99)">
  <g transform="matrix(1.2418 0 0 -1.2418 -626.15 1014.6)">
   <g transform="scale(.1)">
    <g clip-path="url(#clipPath20)">
     <path d="m3940.7 0h3857.3v3050.6h-3857.3z" fill="#f47216"/>
     <path d="m6527 6170.1h-2579.5v-3051h3850.5v1906.8c0 631.9-569.04 1144.1-1271 1144.1" fill="#5a5758"/>
     <path d="m1282.8 0h2588.9v3050.9h-3859.9v-1906.8c0-631.86 569.04-1144.1 1271-1144.1" fill="#b2b1b1"/>
     <path d="m1282.8 6170.1h2588.9v-3051h-3859.9v1906.8c0 631.9 569.04 1144.1 1271 1144.1" fill="#1ea1e3"/>
     <path d="m1282.8 6170.1h2588.9v-3051h-3859.9v1906.8c0 631.9 569.04 1144.1 1271 1144.1z" fill="none" stroke="#1ea1e3" stroke-width="23.564"/>
     <path d="m6999.2 1779.9c218.55 0 348.94 102.22 377.16 239.62 42.28 193.9-70.57 338.48-313.79 370.25-42.28 7-81.04 7-123.39 0-215-28.22-320.79-137.51-324.26-296.13-3.53-179.78 133.94-313.74 384.28-313.74zm-70.58-1089.2c45.84-7.109 95.18-7.109 144.58 0 190.38 28.211 313.71 140.99 345.44 271.46 45.8 197.38-88.16 384.17-345.44 422.93-49.4 7.03-98.74 7.03-144.58 0-225.56-31.73-352.51-179.76-352.51-345.44 0-169.12 126.95-313.7 352.51-348.95zm-486.47 912.98c-133.99 38.77-243.21 130.36-313.74 260.8-207.96 394.87 91.71 888.36 705.02 958.86 109.3 14.15 222.11 14.15 331.41 0 613.46-70.5 913.06-563.99 705.06-958.86-70.58-130.44-179.76-222.03-313.79-260.8 24.62-7.07 45.8-14.14 70.5-24.69 236.25-88.12 352.47-222.07 394.82-461.77 59.91-345.44-95.18-623.94-468.84-796.73-137.47-59.832-296.12-91.601-556.99-91.601-260.88 0-415.94 31.769-549.89 91.601-373.72 172.79-528.78 451.29-468.84 796.73 42.25 239.7 155.14 373.65 394.79 461.77 21.22 10.55 45.8 17.62 70.49 24.69" fill="#fff"/>
     <path d="m6999.2 1779.9c218.55 0 348.94 102.22 377.16 239.62 42.28 193.9-70.57 338.48-313.79 370.25-42.28 7-81.04 7-123.39 0-215-28.22-320.79-137.51-324.26-296.13-3.53-179.78 133.94-313.74 384.28-313.74zm-70.58-1089.2c45.84-7.109 95.18-7.109 144.58 0 190.38 28.211 313.71 140.99 345.44 271.46 45.8 197.38-88.16 384.17-345.44 422.93-49.4 7.03-98.74 7.03-144.58 0-225.56-31.73-352.51-179.76-352.51-345.44 0-169.12 126.95-313.7 352.51-348.95zm-486.47 912.98c-133.99 38.77-243.21 130.36-313.74 260.8-207.96 394.87 91.71 888.36 705.02 958.86 109.3 14.15 222.11 14.15 331.41 0 613.46-70.5 913.06-563.99 705.06-958.86-70.58-130.44-179.76-222.03-313.79-260.8 24.62-7.07 45.8-14.14 70.5-24.69 236.25-88.12 352.47-222.07 394.82-461.77 59.91-345.44-95.18-623.94-468.84-796.73-137.47-59.832-296.12-91.601-556.99-91.601-260.88 0-415.94 31.769-549.89 91.601-373.72 172.79-528.78 451.29-468.84 796.73 42.25 239.7 155.14 373.65 394.79 461.77 21.22 10.55 45.8 17.62 70.49 24.69z" fill="none" stroke="#fefce9" stroke-width="38.315"/>
     <path d="m3875.4 1166.6h595.78c-3.56-21.18-3.56-42.36-3.56-63.53 10.59-225.56 109.34-327.79 331.3-363.11 52.98-7.031 102.3-7.031 151.77 0 193.78 28.25 278.42 102.23 310.11 250.36 49.31 243.11-98.67 398.24-493.61 387.69-28.06 0-52.76-3.52-77.46-7.07v426.59c28.15-3.59 56.39-3.59 88.13-3.59 380.68-10.55 493.57 109.26 447.69 342-14.14 63.38-63.42 123.36-151.58 165.68-28.24 14.06-63.42 24.62-102.26 28.14-260.8 31.76-416-84.56-444.15-303.16-3.55-24.62-3.55-52.83 0-77.53h-595.74c-14.16 419.45 296.18 793.14 757.91 860.12 609.9 88.19 1032.9-186.83 1110.5-546.42 63.43-299.56-38.76-518.18-250.32-620.37-24.7-10.63-45.8-21.18-70.5-28.29 28.17-6.96 52.84-14.07 77.53-21.1 257.36-91.6 405.42-366.62 331.44-708.54-45.9-211.4-190.48-408.86-423.11-546.36-169.24-98.679-398.35-144.48-779.03-109.27-186.87 17.629-341.96 77.488-482.95 186.86-169.26 130.44-285.61 324.26-320.87 535.82-10.54 70.49-14.09 144.51-7 215.08" fill="#fff"/>
     <path d="m3875.4 1166.6h595.78c-3.56-21.18-3.56-42.36-3.56-63.53 10.59-225.56 109.34-327.79 331.3-363.11 52.98-7.031 102.3-7.031 151.77 0 193.78 28.25 278.42 102.23 310.11 250.36 49.31 243.11-98.67 398.24-493.61 387.69-28.06 0-52.76-3.52-77.46-7.07v426.59c28.15-3.59 56.39-3.59 88.13-3.59 380.68-10.55 493.57 109.26 447.69 342-14.14 63.38-63.42 123.36-151.58 165.68-28.24 14.06-63.42 24.62-102.26 28.14-260.8 31.76-416-84.56-444.15-303.16-3.55-24.62-3.55-52.83 0-77.53h-595.74c-14.16 419.45 296.18 793.14 757.91 860.12 609.9 88.19 1032.9-186.83 1110.5-546.42 63.43-299.56-38.76-518.18-250.32-620.37-24.7-10.63-45.8-21.18-70.5-28.29 28.17-6.96 52.84-14.07 77.53-21.1 257.36-91.6 405.42-366.62 331.44-708.54-45.9-211.4-190.48-408.86-423.11-546.36-169.24-98.679-398.35-144.48-779.03-109.27-186.87 17.629-341.96 77.488-482.95 186.86-169.26 130.44-285.61 324.26-320.87 535.82-10.54 70.49-14.09 144.51-7 215.08z" fill="none" stroke="#fefce9" stroke-width="38.315"/>
     <path d="m216.25 4680.1h350.94v-144.67c74.789 141.85 270.4 195.74 419.96 195.74 163.94 0 325.04-68.08 425.72-195.74 14.39-14.18 25.88-31.22 37.4-48.21 11.49 19.84 25.86 36.86 40.25 48.21 112.19 133.34 293.38 195.74 466 195.74 186.93 0 359.55-53.89 486.09-195.74 146.68-156.02 163.95-340.37 163.95-544.63v-882.21h-382.54v836.82c0 90.77-2.89 221.25-57.56 300.69-48.86 73.75-146.68 116.29-238.73 116.29-106.42 0-207.09-45.38-264.63-136.14-66.14-102.12-60.39-255.29-60.39-368.76v-748.9h-382.57v836.82c0 102.12 0 198.57-60.4 289.36-54.66 82.24-152.44 127.62-250.25 127.62-304.89 0-310.66-283.64-310.66-504.9v-748.9h-382.57v1571.5" fill="#fff"/>
     <path d="m3078.2 3256.1-583.92 1424h434.36l365.33-1007 382.5 1007h434.32l-914.64-2096.2h-411.36l293.41 672.25" fill="#fff"/>
    </g>
   </g>
  </g>
 </g>
</svg>
