<svg width="800" height="500" version="1.1" viewBox="0 0 800 500" xml:space="preserve" xmlns="http://www.w3.org/2000/svg"><defs><clipPath id="clipPath352-7"><path d="m0 0h594v738h-594z"/></clipPath><clipPath id="clipPath368-1"><path d="m0 0h594v738h-594z"/></clipPath></defs><g transform="matrix(1.3333 0 0 -1.3333 137.03 944.08)"><g transform="matrix(10.248 0 0 10.248 4.2869 586.45)"><path d="m0 0c-1.073 1.104-2.57 1.687-4.331 1.687-0.072 0-0.144-1e-3 -0.217-3e-3h-8e-3c-3.282-0.177-6.031-2.923-5.885-5.878 0.024-0.978 0.404-2.474 2.073-4.047 1.149-1.084 2.438-1.743 3.205-1.916l0.214 0.535c-1.498 0.834-2.54 1.821-3.098 2.934-0.497 0.991-0.549 1.944-0.538 2.663v0.016c-0.087 2.06 1.447 4.382 4.076 4.545 0.064 1e-3 0.127 2e-3 0.189 2e-3 1.811 0 3.172-0.783 3.833-2.205 0.699-1.505 0.452-3.503-0.573-4.644-0.541-0.586-1.265-0.909-2.04-0.909-1.303 0-2.454 0.875-2.8 2.127l-4e-3 0.013c-0.243 0.74-0.21 1.863 0.324 2.578 0.402 0.538 1.024 0.768 1.835 0.679 1.07-0.18 1.382-1.051 1.317-1.807-0.068-0.798-0.572-1.623-1.297-1.623-0.094 0-0.191 0.014-0.288 0.041l-0.202-0.544c0.356-0.153 0.738-0.234 1.102-0.234 1 0 2.083 0.63 2.123 2.404 0 1.39-1.111 2.868-3.17 2.868-0.027 0-0.055-1e-3 -0.08-1e-3 -1.445-0.011-3.089-1.065-3.437-3.062-0.361-2.185 1.531-4.114 3.453-4.479 0.294-0.057 0.598-0.085 0.906-0.085 2.287 0 4.734 1.621 4.869 4.333 0.061 1.106-0.315 2.74-1.551 4.012" fill="#e37c26"/></g><g transform="matrix(1.5803 0 0 1.5803 -251.26 169.17)"><g transform="matrix(6.4851 0 0 6.4851 215.35 253.55)"><path d="m0 0c-0.03 0.532-0.651 0.857-1.227 0.857-1.515 0-1.833-1.3-1.833-2.513 0-1.167 0.288-2.616 1.757-2.616 0.667 0 1.303 0.488 1.303 1.123h1.56c0-1.567-1.56-2.394-2.969-2.394-2.242 0-3.211 1.877-3.211 3.873 0 1.98 1.136 3.799 3.348 3.799 1.408 0 2.605-0.68 2.832-2.129z"/></g><g transform="matrix(6.4851 0 0 6.4851 246.36 261.22)"><path d="m0 0h0.03c0.47 0.606 1.167 0.946 1.97 0.946 1.333 0 2.302-0.931 2.302-2.247v-0.295h-1.56v0.221c0 0.577-0.288 1.183-0.955 1.183-1.484 0-1.787-1.449-1.787-2.572v-3.829h-1.56v7.406h1.56z"/></g><g transform="matrix(6.4851 0 0 6.4851 288.25 240.52)"><path d="m0 0c-0.076-1.345 0.818-2.262 2.212-2.262 0.454 0 1.03 0.045 1.197 0.518h1.545c-0.076-1.405-1.636-1.789-2.818-1.789-2.409 0-3.696 1.478-3.696 3.784 0 2.203 1.106 3.888 3.499 3.888 2.378 0 3.302-1.523 3.302-3.681v-0.458zm3.681 1.271c-0.015 0.991-0.772 1.597-1.772 1.597-0.955 0-1.848-0.606-1.909-1.597z"/></g><g transform="matrix(6.4851 0 0 6.4851 364.99 223.07)"><path d="m0 0c-0.591-0.547-1.394-0.843-2.197-0.843-1.469 0-2.726 0.784-2.726 2.292 0 1.921 1.848 2.498 3.514 2.498h1.409v0.266c0 0.843-0.121 1.463-1.409 1.463-0.803 0-1.621-0.118-1.621-0.842h-1.56c0.106 1.641 1.712 1.995 3.105 1.995 2.197 0 3.045-0.753 3.045-2.926v-4.613h-1.56zm-1.621 2.794c-0.848 0-1.742-0.311-1.742-1.286 0-0.769 0.561-1.198 1.318-1.198 1.378 0 2.045 1.02 2.045 2.232v0.252z"/></g><g transform="matrix(6.4851 0 0 6.4851 404.53 267.36)"><path d="m0 0h2.71v-1.271h-2.71v-3.711c0-0.695 0.121-1.419 1.014-1.419 0.53 0 1.272 0.266 1.696 0.577v-1.405c-0.484-0.28-1.151-0.443-1.726-0.443-1.832 0-2.544 1.183-2.544 2.838v3.563h-1.559v1.271h1.559v1.685l1.56 0.399z"/></g><g transform="matrix(6.4851 0 0 6.4851 439.62 240.52)"><path d="m0 0c-0.076-1.345 0.819-2.262 2.213-2.262 0.455 0 1.03 0.045 1.197 0.518h1.546c-0.076-1.405-1.637-1.789-2.819-1.789-2.41 0-3.698 1.478-3.698 3.784 0 2.203 1.106 3.888 3.501 3.888 2.38 0 3.304-1.523 3.304-3.681v-0.458zm3.683 1.271c-0.015 0.991-0.773 1.597-1.773 1.597-0.955 0-1.849-0.606-1.91-1.597z"/></g></g><g transform="matrix(10.248 0 0 10.248 -859.21 -2248.7)"><g clip-path="url(#clipPath352-7)"><g transform="translate(94.622 259.88)"><path d="m0 0c0 2.095 1.527 3.796 3.57 4.158-1.885 2.304-5.253 3.82-9.112 3.82-5.931 0-10.738-3.568-10.738-7.968s4.803-8.065 10.738-7.967c3.849 0.064 7.225 1.503 9.12 3.761-2.036 0.367-3.578 2.106-3.578 4.196" fill="#fbc112"/></g></g></g><g transform="matrix(10.248 0 0 10.248 66.566 370.56)"><path d="m0 0h2.217l2.694 8.294h-2.509l-1.095-4.576-1.595 4.6h-2.178l-1.292-4.598-1.398 4.574h-2.569l2.694-8.294h2.217l1.407 3.632z"/></g><g transform="matrix(1.5803 0 0 1.5803 -248.1 185.5)"><g transform="matrix(6.4851 0 0 6.4851 -386.7 -1540.3)"><g clip-path="url(#clipPath368-1)"><g transform="translate(119.77 255.59)"><path d="m0 0h3.004c3.163 0 5.052 1.56 5.052 4.172v0.026c0 2.572-1.806 4.048-4.952 4.048h-3.104zm3.165 2.091h-0.703v4.063h0.703c1.549 0 2.403-0.717 2.403-2.018v-0.025c0-1.302-0.854-2.02-2.403-2.02"/></g></g></g><g transform="matrix(6.4851 0 0 6.4851 341.26 117.12)"><path d="m0 0h6.537v2.042h-4.077v6.204h-2.46z"/></g><g transform="matrix(6.4851 0 0 6.4851 250.02 171.87)"><path d="m0 0s2.833-0.642 3.169-3.958c0 0 0.244-3.286-3.194-4.371 0 0 3.331-0.917 5.135 2.185 0 0 1.665 2.996-1.284 5.41 0 0-1.447 1.269-3.826 0.734"/></g><g transform="matrix(6.4851 0 0 6.4851 319.09 117.19)"><path d="m0 0-1.328 2.727h-0.543v-2.727h-2.588v8.238h3.951c2.195 0 3.096-1.248 3.096-2.623 0-1.017-0.462-1.975-1.478-2.461l1.732-3.154zm-0.843 6.297h-1.028v-1.803h1.016c0.601 0 0.925 0.428 0.925 0.902 0 0.45-0.289 0.901-0.913 0.901"/></g></g><path d="m336.01 688.55-12.175-46.672-15.506 46.672h-13.774l-15.363-46.672-12.175 46.672-36.31-0.0205v19.534h-19.4v-19.534h-28.675v19.534h-19.4v-19.534l-35.665 0.0205-12.175-46.672-15.506 46.672h-13.774l-15.363-46.672-12.165 46.672h-20.005l23.192-75.511h15.506l15.793 47.389 15.803-47.389h15.506l17.955 60.712h20.897v-38.483c0-11.038 6.7128-22.229 22.536-22.229h10.597v16.408h-7.01c-4.6323 0-6.723 2.5416-6.723 7.0202v37.284h28.675v-38.483c0-11.038 6.723-22.229 22.536-22.229h10.597v16.408h-7.01c-4.6323 0-6.723 2.5416-6.723 7.0202v37.284h20.856l18.652-60.712h15.506l15.793 47.389 15.793-47.389h15.506l23.059 75.511z"/></g></svg>
