<svg width="800" height="132.76" enable-background="new 0 0 523.858 86.937" version="1.1" viewBox="0 0 800 132.76" xml:space="preserve" xmlns="http://www.w3.org/2000/svg">
<path d="m341.56 44.751-13.99 53.593-17.8-53.593h-15.812l-17.64 53.593-13.981-53.593-41.698 0.024435v-22.434h-22.278v22.434h-32.93v-22.434h-22.279v22.434l-40.953-0.024435-13.984 53.593-17.806-53.593h-15.812l-17.64 53.593-13.978-53.593h-22.974l26.633 86.711h17.811l18.138-54.418 18.142 54.419h17.806l20.618-69.721h23.997v44.192c0 12.677 7.7136 25.531 25.882 25.531h12.165v-18.848h-8.0511c-5.3144 0-7.7151-2.9168-7.7151-8.0556v-42.821h32.93v44.192c0 12.677 7.712 25.531 25.876 25.531h12.171v-18.846h-8.0526c-5.3144 0-7.7166-2.9168-7.7166-8.0556v-42.821h23.944l21.418 69.721h17.805l18.142-54.419 18.138 54.419h17.811l26.465-86.711h-22.802" fill="#fff" stroke-width="1.5271"/>
<g transform="scale(1.5271)" fill="#8b2332">
	<path d="m308.98 85.404h-37.5l0.77-3.596c9.633-0.771 10.788-1.67 13.614-15.541l12.843-61.901c-17.852 0.514-30.823 9.504-30.823 27.869 0 8.476 1.927 13.485 3.597 15.668 0.898 1.156 0.385 2.569-0.899 2.569-9.118-0.386-14.897-8.862-14.897-19.136 0-5.266 1.285-11.815 6.935-17.723 8.86-9.503 24.014-13.613 41.351-13.613 14.256 0 23.759 2.055 29.796 6.164 6.293 4.11 9.632 9.889 9.632 18.108 0 16.695-16.054 25.942-33.135 26.456l-0.642-2.953c9.247-1.541 19.521-7.834 19.521-22.989 0-12.971-6.807-18.493-16.952-19.906l-12.714 61.387c-2.826 13.871-1.927 14.771 10.146 15.541z"/>
	<path d="m349.55 26.472h11.831l-1.956 9.202h0.219c4.025-6.572 9.293-10.735 15.975-10.735 1.314 0 2.035 0.219 2.754 0.438l-2.561 12.049c-0.83-0.219-2.818-0.658-4.789-0.658-5.367 0-12.343 2.41-14.671 13.364l-7.497 35.271h-11.83z"/>
	<path d="m384.6 26.472h11.831l-12.526 58.932h-11.83zm4.285-20.155h11.829l-2.514 11.83h-11.831z"/>
	<path d="m408.04 26.472h11.174l-1.467 6.901h0.329c4.075-5.258 10.336-8.435 15.922-8.435 8.435 0 11.079 4.053 11.784 8.982 4.606-5.696 9.686-8.982 16.806-8.982 8.325 0 13.441 4.272 11.02 15.664l-9.521 44.802h-11.831l8.592-40.42c1.629-7.668-0.043-10.625-4.862-10.625-4.818 0-10.234 3.833-11.864 11.501l-8.404 39.544h-11.831l8.592-40.42c1.629-7.668-0.042-10.625-4.971-10.625-4.711 0-10.126 3.833-11.756 11.501l-8.405 39.544h-11.83z"/>
	<path d="m490.34 57.47-0.721 3.396c-1.677 7.887-2.834 17.965 6.04 17.965 8.434 0 11.469-9.64 12.213-13.146h11.174c-2.771 13.035-12.404 21.251-25.22 21.251-9.64 0-20.975-2.848-15.176-30.123 3.283-15.445 10.061-31.876 28.573-31.876 16.431 0 18.716 9.859 15.224 26.29l-1.327 6.242h-30.78zm20.674-8.104 0.675-3.177c1.583-7.449 0.384-13.145-6.298-13.145-7.558 0-11.441 7.449-13.072 15.117l-0.256 1.205z"/>
</g>
</svg>
