<svg width="800" height="216.1" version="1.1" viewBox="0 0 800 216.1" xmlns="http://www.w3.org/2000/svg">
 <path d="m595.34 64.937-24.484 93.147-31.138-93.147h-27.412l-30.872 93.147-25.017-93.147h-72.655v-38.856h-37.791v38.856h-57.751v-38.856h-38.856v38.856h-71.058l-24.484 93.147-31.138-93.147h-26.88l-30.605 93.147-24.484-93.147h-40.719l46.307 151.16h30.872l31.936-94.744 31.936 94.744h30.605l35.928-121.36h41.783v77.179c0 21.823 13.307 44.178 45.243 44.178h21.291v-32.468h-14.105c-9.3147 0-13.307-5.3227-13.307-14.371v-74.518h57.485v77.179c0 21.823 13.307 44.178 44.444 44.178h21.291v-32.468h-14.105c-9.3147 0-13.307-5.3227-13.307-14.371v-74.518h41.517l37.259 121.36h31.138l31.936-94.744 31.404 94.744h31.138l46.041-151.16h-39.92" stroke-width="2.6613"/>
 <g fill="#006bb6" stroke-width="2.6613">
  <path d="m800 216.1h-43.646v-151.16h-39.92v-29.275c20.492 0 46.307-13.307 48.969-35.662h34.597v216.1"/>
  <path d="m718.03 216.1h-43.38v-151.16h-39.92v-29.275c20.492 0 46.307-13.307 48.703-35.662h34.597v216.1"/>
 </g>
</svg>
