<svg width="800" height="799.99" version="1.1" viewBox="0 0 800 799.99" xml:space="preserve" xmlns="http://www.w3.org/2000/svg"><defs><clipPath id="clipPath554"><path d="m0 0h594v738h-594z"/></clipPath></defs><g transform="matrix(1.3333 0 0 -1.3333 117.84 1703.4)"><g transform="matrix(11.883 0 0 11.883 499.67 1061.1)"><path d="m0 0c3.883-13.388-3.821-27.388-17.21-31.271-13.387-3.883-27.388 3.821-31.271 17.21-3.883 13.387 3.822 27.388 17.21 31.27 13.388 3.884 27.388-3.821 31.271-17.209" fill="#99d420"/></g><g transform="matrix(11.883 0 0 11.883 -25.926 1032.1)"><path d="m0 0c0.816-0.979 1.633-1.959 2.449-2.938l0.813 6.201 0.075 0.566 0.365-0.439c1.335-1.601 2.67-3.202 4.004-4.803 0.166 1.265 0.332 2.529 0.498 3.793l0.032 0.25 0.25-0.035 2.141-0.297 0.246-0.034-0.032-0.246-1.218-9.22-0.075-0.565-0.365 0.438c-1.334 1.601-2.669 3.202-4.004 4.803l-0.813-6.201-0.074-0.565-0.366 0.438-5.96 7.137-0.159 0.19 0.189 0.161 1.65 1.397 0.193 0.162z" fill="#fff"/></g><g transform="matrix(11.883 0 0 11.883 -25.926 1032.1)"><path d="m0 0c0.816-0.979 1.633-1.959 2.449-2.938l0.813 6.201 0.075 0.566 0.365-0.439c1.335-1.601 2.67-3.202 4.004-4.803 0.166 1.265 0.332 2.529 0.498 3.793l0.032 0.25 0.25-0.035 2.141-0.297 0.246-0.034-0.032-0.246-1.218-9.22-0.075-0.565-0.365 0.438c-1.334 1.601-2.669 3.202-4.004 4.803l-0.813-6.201-0.074-0.565-0.366 0.438-5.96 7.137-0.159 0.19 0.189 0.161 1.65 1.397 0.193 0.162z" fill="none" stroke="#231f20" stroke-miterlimit="10" stroke-width=".5"/></g><g transform="matrix(11.883 0 0 11.883 104.29 1085.6)"><path d="m0 0c-0.233 0.802-0.467 1.604-0.7 2.406l-0.07 0.24 0.241 0.07 2.12 0.614 0.24 0.069 0.07-0.24c0.233-0.802 0.467-1.604 0.7-2.407 0.661 0.192 1.322 0.383 1.982 0.574l0.24 0.069 0.07-0.239 0.611-2.103 0.07-0.24-0.24-0.07c-0.661-0.191-1.321-0.382-1.982-0.573 0.13-0.447 0.26-0.895 0.391-1.343 0.261-0.899 1.245-1.439 2.147-1.178l0.161 0.047 0.156 0.045 0.24 0.07 0.07-0.24 0.615-2.115 0.07-0.24-0.24-0.07-0.161-0.047-0.157-0.045c-2.352-0.68-4.82 0.675-5.502 3.02-0.13 0.448-0.261 0.896-0.391 1.344l-0.814-0.236-0.24-0.069-0.07 0.24-0.611 2.102-0.07 0.24 0.241 0.07c0.271 0.078 0.542 0.157 0.813 0.235" fill="#fff"/></g><g transform="matrix(11.883 0 0 11.883 104.29 1085.6)"><path d="m0 0c-0.233 0.802-0.467 1.604-0.7 2.406l-0.07 0.24 0.241 0.07 2.12 0.614 0.24 0.069 0.07-0.24c0.233-0.802 0.467-1.604 0.7-2.407 0.661 0.192 1.322 0.383 1.982 0.574l0.24 0.069 0.07-0.239 0.611-2.103 0.07-0.24-0.24-0.07c-0.661-0.191-1.321-0.382-1.982-0.573 0.13-0.447 0.26-0.895 0.391-1.343 0.261-0.899 1.245-1.439 2.147-1.178l0.161 0.047 0.156 0.045 0.24 0.07 0.07-0.24 0.615-2.115 0.07-0.24-0.24-0.07-0.161-0.047-0.157-0.045c-2.352-0.68-4.82 0.675-5.502 3.02-0.13 0.448-0.261 0.896-0.391 1.344l-0.814-0.236-0.24-0.069-0.07 0.24-0.611 2.102-0.07 0.24 0.241 0.07c0.271 0.078 0.542 0.157 0.813 0.235z" fill="none" stroke="#231f20" stroke-miterlimit="10" stroke-width=".5"/></g><g transform="matrix(11.883 0 0 11.883 186.04 1085.8)"><path d="m0 0c-0.233 0.802-0.467 1.604-0.7 2.406l-0.07 0.24 0.241 0.07 2.12 0.613 0.24 0.07 0.07-0.24c0.233-0.802 0.467-1.604 0.7-2.407 0.661 0.191 1.322 0.383 1.983 0.574l0.239 0.069 0.07-0.24 0.612-2.102 0.069-0.24-0.24-0.07c-0.661-0.191-1.321-0.382-1.982-0.573 0.13-0.447 0.26-0.895 0.39-1.342 0.262-0.9 1.246-1.44 2.149-1.179l0.284 0.083 0.24 0.069 0.102-0.23 0.615-2.115 0.07-0.24-0.24-0.07-0.317-0.092c-2.352-0.68-4.821 0.675-5.503 3.02-0.13 0.448-0.261 0.896-0.391 1.344-0.271-0.079-0.543-0.157-0.814-0.236l-0.24-0.069-0.07 0.24-0.611 2.102-0.07 0.24 0.24 0.07c0.272 0.078 0.543 0.157 0.814 0.235" fill="#fff"/></g><g transform="matrix(11.883 0 0 11.883 186.04 1085.8)"><path d="m0 0c-0.233 0.802-0.467 1.604-0.7 2.406l-0.07 0.24 0.241 0.07 2.12 0.613 0.24 0.07 0.07-0.24c0.233-0.802 0.467-1.604 0.7-2.407 0.661 0.191 1.322 0.383 1.983 0.574l0.239 0.069 0.07-0.24 0.612-2.102 0.069-0.24-0.24-0.07c-0.661-0.191-1.321-0.382-1.982-0.573 0.13-0.447 0.26-0.895 0.39-1.342 0.262-0.9 1.246-1.44 2.149-1.179l0.284 0.083 0.24 0.069 0.102-0.23 0.615-2.115 0.07-0.24-0.24-0.07-0.317-0.092c-2.352-0.68-4.821 0.675-5.503 3.02-0.13 0.448-0.261 0.896-0.391 1.344-0.271-0.079-0.543-0.157-0.814-0.236l-0.24-0.069-0.07 0.24-0.611 2.102-0.07 0.24 0.24 0.07c0.272 0.078 0.543 0.157 0.814 0.235z" fill="none" stroke="#231f20" stroke-miterlimit="10" stroke-width=".5"/></g><g transform="matrix(11.883 0 0 11.883 261.48 1133.1)"><path d="m0 0c0.816-0.979 1.633-1.959 2.449-2.938l0.813 6.201 0.075 0.566 0.365-0.439c1.335-1.601 2.669-3.202 4.004-4.803 0.166 1.265 0.332 2.529 0.498 3.793l0.032 0.25 0.25-0.035 2.141-0.297 0.246-0.034-0.032-0.246-1.218-9.22-0.075-0.565-0.365 0.438c-1.335 1.601-2.669 3.202-4.004 4.803l-0.813-6.201-0.074-0.565-0.366 0.438-5.96 7.137-0.159 0.191 0.189 0.16 1.65 1.397 0.193 0.162z" fill="#fff"/></g><g transform="matrix(11.883 0 0 11.883 261.48 1133.1)"><path d="m0 0c0.816-0.979 1.633-1.959 2.449-2.938l0.813 6.201 0.075 0.566 0.365-0.439c1.335-1.601 2.669-3.202 4.004-4.803 0.166 1.265 0.332 2.529 0.498 3.793l0.032 0.25 0.25-0.035 2.141-0.297 0.246-0.034-0.032-0.246-1.218-9.22-0.075-0.565-0.365 0.438c-1.335 1.601-2.669 3.202-4.004 4.803l-0.813-6.201-0.074-0.565-0.366 0.438-5.96 7.137-0.159 0.191 0.189 0.16 1.65 1.397 0.193 0.162z" fill="none" stroke="#231f20" stroke-miterlimit="10" stroke-width=".5"/></g><g transform="matrix(11.883 0 0 11.883 113.58 818.6)"><path d="m0 0c-0.624-1.72-1.247-3.439-1.871-5.159l-0.083-0.229-0.231 0.077-2.141 0.714-0.123 0.041-0.037 0.124-3.903 13.06-0.073 0.241 0.242 0.07 2.755 0.799 0.24 0.069 0.07-0.24c0.748-2.579 1.497-5.158 2.245-7.738 0.849 2.066 1.699 4.132 2.548 6.198l0.096 0.234 0.234-0.1 2.613-1.119 0.226-0.096-0.092-0.227c-0.476-1.174-0.951-2.348-1.426-3.522 1.46-1.031 2.92-2.061 4.381-3.091l0.164-0.116-0.078-0.186-1.12-2.656-0.12-0.284-0.253 0.175-4.263 2.961" fill="#fff"/></g><g transform="matrix(11.883 0 0 11.883 113.58 818.6)"><path d="m0 0c-0.624-1.72-1.247-3.439-1.871-5.159l-0.083-0.229-0.231 0.077-2.141 0.714-0.123 0.041-0.037 0.124-3.903 13.06-0.073 0.241 0.242 0.07 2.755 0.799 0.24 0.069 0.07-0.24c0.748-2.579 1.497-5.158 2.245-7.738 0.849 2.066 1.699 4.132 2.548 6.198l0.096 0.234 0.234-0.1 2.613-1.119 0.226-0.096-0.092-0.227c-0.476-1.174-0.951-2.348-1.426-3.522 1.46-1.031 2.92-2.061 4.381-3.091l0.164-0.116-0.078-0.186-1.12-2.656-0.12-0.284-0.253 0.175-4.263 2.961z" fill="none" stroke="#231f20" stroke-miterlimit="10" stroke-width=".5"/></g><g transform="matrix(11.883 0 0 11.883 289.64 1007.6)"><path d="m0 0 2.874 0.394 0.214 0.029 0.06-0.207 4.072-14.02 0.07-0.24-0.24-0.07-2.757-0.798-0.24-0.069-0.07 0.24c-0.077 0.267-0.155 0.533-0.232 0.8-0.598-0.525-1.3-0.906-2.094-1.136-3.009-0.872-6.169 0.871-7.044 3.885-0.424 1.459-0.256 2.993 0.475 4.318 0.73 1.325 1.937 2.288 3.399 2.712 0.793 0.23 1.591 0.283 2.378 0.159-0.357 1.228-0.714 2.457-1.071 3.686l-0.081 0.278zm-2.647-10.399c0.427-1.47 2.032-2.352 3.504-1.925 0.711 0.205 1.306 0.688 1.675 1.358 0.37 0.671 0.46 1.431 0.254 2.141-0.428 1.471-2.032 2.353-3.505 1.926-0.692-0.201-1.3-0.697-1.667-1.363s-0.462-1.445-0.261-2.137" fill="#fff"/></g><g transform="matrix(11.883 0 0 11.883 289.64 1007.6)"><path d="m0 0 2.874 0.394 0.214 0.029 0.06-0.207 4.072-14.02 0.07-0.24-0.24-0.07-2.757-0.798-0.24-0.069-0.07 0.24c-0.077 0.267-0.155 0.533-0.232 0.8-0.598-0.525-1.3-0.906-2.094-1.136-3.009-0.872-6.169 0.871-7.044 3.885-0.424 1.459-0.256 2.993 0.475 4.318 0.73 1.325 1.937 2.288 3.399 2.712 0.793 0.23 1.591 0.283 2.378 0.159-0.357 1.228-0.714 2.457-1.071 3.686l-0.081 0.278zm-2.647-10.399c0.427-1.47 2.032-2.352 3.504-1.925 0.711 0.205 1.306 0.688 1.675 1.358 0.37 0.671 0.46 1.431 0.254 2.141-0.428 1.471-2.032 2.353-3.505 1.926-0.692-0.201-1.3-0.697-1.667-1.363s-0.462-1.445-0.261-2.137z" fill="none" stroke="#231f20" stroke-miterlimit="10" stroke-width=".5"/></g><g transform="matrix(11.883 0 0 11.883 446.6 991.88)"><path d="m0 0-0.09-0.026-0.326-0.093c-0.584-0.168-1.093-0.58-1.396-1.131s-0.377-1.172-0.208-1.75l0.886-2.271c0.492-1.677 0.37-3.299-0.339-4.586-0.618-1.123-1.643-1.917-2.966-2.297l-0.198-0.056-0.219-0.063-0.239-0.069-0.07 0.239-0.802 2.738-0.071 0.241 0.242 0.069 0.207 0.06 0.209 0.06c0.436 0.125 0.752 0.363 0.941 0.706 0.267 0.486 0.285 1.196 0.05 1.999l-0.886 2.27c-0.433 1.472-0.264 3.003 0.467 4.331 0.739 1.344 1.963 2.319 3.447 2.744l0.345 0.1 0.239 0.068 0.141-0.218 0.807-2.754 0.071-0.242z" fill="#fff"/></g><g transform="matrix(11.883 0 0 11.883 446.6 991.88)"><path d="m0 0-0.09-0.026-0.326-0.093c-0.584-0.168-1.093-0.58-1.396-1.131s-0.377-1.172-0.208-1.75l0.886-2.271c0.492-1.677 0.37-3.299-0.339-4.586-0.618-1.123-1.643-1.917-2.966-2.297l-0.198-0.056-0.219-0.063-0.239-0.069-0.07 0.239-0.802 2.738-0.071 0.241 0.242 0.069 0.207 0.06 0.209 0.06c0.436 0.125 0.752 0.363 0.941 0.706 0.267 0.486 0.285 1.196 0.05 1.999l-0.886 2.27c-0.433 1.472-0.264 3.003 0.467 4.331 0.739 1.344 1.963 2.319 3.447 2.744l0.345 0.1 0.239 0.068 0.141-0.218 0.807-2.754 0.071-0.242z" fill="none" stroke="#231f20" stroke-miterlimit="10" stroke-width=".5"/></g><g transform="matrix(11.883 0 0 11.883 205.1 919.35)"><path d="m0 0 2.807-9.613 0.071-0.241-0.241-0.069-2.773-0.799-0.239-0.069-0.07 0.24-2.808 9.612-0.07 0.241 0.241 0.069 2.773 0.799 0.239 0.069z" fill="#fff"/></g><g transform="matrix(11.883 0 0 11.883 205.1 919.35)"><path d="m0 0 2.807-9.613 0.071-0.241-0.241-0.069-2.773-0.799-0.239-0.069-0.07 0.24-2.808 9.612-0.07 0.241 0.241 0.069 2.773 0.799 0.239 0.069z" fill="none" stroke="#231f20" stroke-miterlimit="10" stroke-width=".5"/></g><g transform="matrix(11.883 0 0 11.883 -429.29 -7236.5)"><g clip-path="url(#clipPath554)"><g transform="translate(50.784 687.05)"><path d="m0 0c1.119 0 2.029 0.91 2.029 2.03 0 1.119-0.91 2.029-2.029 2.029s-2.029-0.91-2.029-2.029c0-1.12 0.91-2.03 2.029-2.03" fill="#fff"/></g><g transform="translate(50.784 687.05)"><path d="m0 0c1.119 0 2.029 0.91 2.029 2.03 0 1.119-0.91 2.029-2.029 2.029s-2.029-0.91-2.029-2.029c0-1.12 0.91-2.03 2.029-2.03z" fill="none" stroke="#231f20" stroke-miterlimit="10" stroke-width=".5"/></g></g></g></g></svg>
