<svg width="2193.4" height="1476.6" version="1.1" viewBox="0 0 2193.4 1476.6" xmlns="http://www.w3.org/2000/svg">
 <defs>
  <linearGradient id="linearGradient1119" x1="4.6351" x2="13.922" y1="29.228" y2="19.941" gradientTransform="matrix(38.661 0 0 38.661 -1838 -726.03)" gradientUnits="userSpaceOnUse">
   <stop stop-color="#AE1F23" offset="0"/>
   <stop stop-color="#CC1E23" offset=".382"/>
   <stop stop-color="#E41C24" offset=".7639"/>
   <stop stop-color="#ED1C24" offset="1"/>
  </linearGradient>
  <linearGradient id="linearGradient1121" x1="16.003" x2="28.544" y1="16.905" y2="29.446" gradientTransform="matrix(38.661 0 0 38.661 -1834.8 -729.03)" gradientUnits="userSpaceOnUse">
   <stop stop-color="#1D1DEA" offset=".4967"/>
   <stop stop-color="#2022E0" offset=".6006"/>
   <stop stop-color="#292EC4" offset=".78"/>
   <stop stop-color="#374199" offset="1"/>
  </linearGradient>
  <linearGradient id="linearGradient1123" x1="25687" x2="46087" y1="9971.9" y2="9971.9" gradientTransform="matrix(.037795 0 0 .037795 -2285.4 -729.03)" gradientUnits="userSpaceOnUse">
   <stop stop-color="#51BB83" offset="0"/>
   <stop stop-color="#4DBA81" offset=".2181"/>
   <stop stop-color="#41B77B" offset=".4428"/>
   <stop stop-color="#2CB272" offset=".6704"/>
   <stop stop-color="#0FAB65" offset=".8988"/>
   <stop stop-color="#00A75E" offset="1"/>
  </linearGradient>
  <linearGradient id="linearGradient1125" x1="11942" x2="25686" y1="10549" y2="10549" gradientTransform="matrix(1.4612 0 0 1.4612 -2285.4 -730.78)" gradientUnits="userSpaceOnUse">
   <stop stop-color="#9B2E90" offset="0"/>
   <stop stop-color="#A82C9B" offset=".2246"/>
   <stop stop-color="#BE27AF" offset=".6966"/>
   <stop stop-color="#C626B6" offset="1"/>
  </linearGradient>
 </defs>
 <g transform="matrix(.59631 0 0 .59631 -125.26 2.777e-6)" fill-rule="evenodd">
  <g transform="matrix(.87123 0 0 .87123 2132.4 635.14)">
   <path d="m-1218.2 598.73c-28.608-26.791-49.043-77.194-63.572-142.58a1394.5 1394.5 0 0 1-25.883-202.52 3039.7 3039.7 0 0 1-6.8115-217.06v-12.714c-169.83 0-317.41-12.714-387.78-25.429-74.015-13.623-123.06-40.868-131.69-54.49a641.16 641.16 0 0 0 117.61 382.34 644.34 644.34 0 0 0 499.51 273.82l-1.3623-1.3623" fill="url(#linearGradient1119)" stroke-width="38.661"/>
   <path d="m-543.47-78.755c-29.97 24.975-115.83 55.416-218 74.941-40.868 6.8115-84.896 12.665-129.4 17.206-177.09 15.893-385.97 10.465-423.69 10.465v12.683a3039.7 3039.7 0 0 0 6.8288 217.11 1394.5 1394.5 0 0 0 25.898 202.48c14.531 65.39 34.983 115.82 63.591 142.61l1.3305 1.3305 28.115 0.8868c218.87 0 411.9-108.91 528.57-275.56 44.531-67.378 76.4-142.37 94.012-221.19 14.985-54.49 22.704-112.56 22.704-172.5v-0.5322z" fill="url(#linearGradient1121)" stroke-width="38.661"/>
   <path d="m-1314.5 23.86c37.235 0 246.57 5.449 423.65-10.444 44.5-4.5408 88.094-9.9901 129.87-17.256 101.72-19.526 187.54-49.951 217.51-74.926v-575.32c-77.651-57.668-404.15-74.926-771.03-74.926z" fill="url(#linearGradient1123)" stroke-width="45.408"/>
   <path d="m-1809-684.5c-13.623 0-25.01 11.299-25.01 24.922v603.52c8.6276 13.623 57.687 40.834 131.7 54.456 70.383 12.714 217.92 25.454 387.74 25.454v-464.13c-160.75-207.07-409.51-244.25-494.44-244.25z" fill="url(#linearGradient1125)" stroke-width="38.661"/>
  </g>
  <path d="m2300.3 684.51v-261.03l-208.81 261.03zm215.22-668.47v668.47h183.31v190.98h-183.31v254.66h-215.22v-254.66h-518.06v-127.32l581.84-732.13z" fill="#6e6d72"/>
  <path d="m3169.1 191.1c-129.12 0-175.35 171.89-175.35 381.98s46.225 382 175.35 382c129.1 0 175.35-171.91 175.35-382s-46.246-381.98-175.35-381.98m0-191c285.33 0 390.54 256.26 390.54 572.98 0 316.74-105.21 572.98-390.54 572.98-285.36 0-390.54-256.24-390.54-572.98 0-316.72 105.19-572.98 390.54-572.98" fill="#6e6d72"/>
 </g>
 <g transform="translate(-3029.8 -501.84)" fill="#6e6d72" fill-rule="evenodd">
  <g transform="matrix(5.1247 0 0 5.1247 -12497 -8160.7)">
   <polygon transform="matrix(5.951 0 0 5.951 2644.6 1861.6)" points="85.569 0.83182 87.882 0.83182 87.882 9.4379 85.569 9.4379 85.569 2.0282"/>
   <polygon transform="matrix(5.951 0 0 5.951 2644.6 1861.6)" points="100.41 0.83182 102.72 0.83182 102.72 9.4379 100.41 9.4379 100.41 2.0282"/>
   <polygon transform="matrix(5.951 0 0 5.951 2644.6 1861.6)" points="113.33 0.83182 115.64 0.83182 115.64 9.4379 113.33 9.4379 113.33 2.0282"/>
   <path d="m3105 1917.8v-28.32c0-7.0307 5.3004-11.22 11.269-11.22 6.3456 0 11.346 4.8819 11.346 11.22v28.32h13.738v-27.798c0-12.982-9.0426-24.467-24.782-24.467-16.917 0-25.361 11.411-25.361 24.467v27.798z"/>
   <path d="m3420.9 1917.8v-28.32c0-7.0307 5.3132-11.22 11.269-11.22 6.3456 0 11.346 4.8819 11.346 11.22v28.32h13.738v-27.798c0-12.982-9.0426-24.467-24.782-24.467-16.917 0-25.359 11.411-25.359 24.467v27.798z"/>
   <polygon transform="matrix(5.951 0 0 5.951 2644.6 1863.6)" points="94.141 5.7539 96.504 0.49929 98.909 0.49929 94.944 9.1043 93.346 9.1043 89.379 0.49929 91.778 0.49929"/>
   <path d="m3273.6 1902.2c3.4911 3.1583 8.8937 5.0626 14.054 5.0626 3.7103 0 6.5671-1.7959 6.5671-4.3208 0-7.7002-24.855-4.9563-24.855-21.456 0-9.8277 9.5237-15.947 19.671-15.947 6.6798 0 13.96 2.525 17.353 5.1646l-6.435 9.934c-2.6524-1.8958-6.1456-3.4729-9.8559-3.4729-3.7869 0-6.9757 1.458-6.9757 4.102 0 6.6566 24.859 4.0063 24.859 21.778 0 9.8086-9.611 15.836-20.408 15.836-7.0886 0-14.611-2.4421-20.618-6.8777z"/>
   <path d="m3370 1906.1c8.0444 0 13.53-6.2422 13.53-13.932 0-7.7066-5.4856-14.042-13.53-14.042-8.0272 0-13.555 6.3357-13.555 14.042 0 7.6895 5.5282 13.932 13.555 13.932m0-40.65c15.55 0 27.266 11.934 27.266 26.718 0 14.797-11.716 26.626-27.266 26.626s-27.337-11.83-27.337-26.626c0-14.784 11.787-26.718 27.337-26.718"/>
   <path d="m3066.2 1866.6v28.342c0 7.0073-5.3579 11.222-11.342 11.222-6.3244 0-11.329-4.9181-11.329-11.222v-28.342h-13.756v27.808c0 12.948 9.0363 24.478 24.78 24.478 16.923 0 25.378-11.413 25.378-24.478v-27.808z"/>
  </g>
  <g transform="matrix(5.1247 0 0 5.1247 -12497 -8160.7)">
   <polygon transform="matrix(5.951 0 0 5.951 2644.6 1863.6)" points="69.133 17.583 69.133 13.068 70.013 13.068 70.013 19.218 69.397 19.218 65.702 14.702 65.702 19.218 64.822 19.218 64.822 13.068 65.438 13.068"/>
   <path d="m3084.5 1973.5c7.4887 0 13.089-5.9063 13.089-13.855 0-7.8914-5.6006-13.851-13.089-13.851-7.4866 0-13.089 5.9595-13.089 13.851 0 7.9489 5.6027 13.855 13.089 13.855m0-32.673c10.367 0 18.326 8.155 18.326 18.818 0 10.667-7.9592 18.822-18.326 18.822s-18.324-8.155-18.324-18.822c0-10.663 7.9571-18.818 18.324-18.818"/>
   <path d="m3120.2 1955.7c2.3564 0 3.5591-0.5228 4.3978-1.3602 0.8366-0.8353 1.3603-2.0382 1.3603-3.3453 0-1.305-0.5237-2.5101-1.3603-3.3453-0.8387-0.8374-2.0414-1.3581-4.3978-1.3581h-7.3291v9.4089zm-7.3291 4.967v17.252h-5.2366v-36.594h12.828c3.3506 0 5.4473 0.7843 7.1226 2.1424 2.1968 1.7789 3.6102 4.4972 3.6102 7.528 0 3.0329-1.4134 5.7512-3.6102 7.528-1.1538 0.9415-2.4608 1.6217-4.2957 1.9341l13.142 17.462h-6.3371l-13.038-17.252z"/>
   <polygon transform="matrix(5.951 0 0 5.951 2644.6 1863.6)" points="84.74 13.903 84.74 19.218 83.86 19.218 83.86 13.903 82.188 13.903 82.188 13.068 86.411 13.068 86.411 13.903"/>
   <polygon transform="matrix(5.951 0 0 5.951 2644.6 1863.6)" points="91.364 19.218 91.364 16.319 87.933 16.319 87.933 19.218 87.053 19.218 87.053 13.068 87.933 13.068 87.933 15.484 91.364 15.484 91.364 13.068 92.244 13.068 92.244 19.218"/>
   <path d="m3229.4 1940.8c5.2366 0 10.209 2.1445 13.404 5.645l-3.5081 3.4515c-2.1478-2.3527-5.9688-4.1295-9.8963-4.1295-7.4887 0-13.298 5.9595-13.298 13.851 0 8.2613 5.9668 13.855 13.77 13.855 4.9194 0 8.4807-2.7183 10.522-5.1752l3.7167 3.3474c-3.1376 4.0233-8.585 6.7948-14.239 6.7948-10.944 0-19.009-7.9998-19.009-18.822 0-10.559 7.9592-18.818 18.537-18.818"/>
   <path d="m3255.9 1963.6h11.308l-5.6538-13.592zm13.349 4.967h-15.444l-3.821 9.4111h-5.4473l15.184-36.594h3.6677l15.182 36.594h-5.4452z"/>
   <path d="m3294.4 1955.7c2.3543 0 3.5591-0.5228 4.3957-1.3602 0.8387-0.8353 1.3623-2.0382 1.3623-3.3453 0-1.305-0.5237-2.5101-1.3623-3.3453-0.8366-0.8374-2.0414-1.3581-4.3957-1.3581h-7.3313v9.4089zm-7.3313 4.967v17.252h-5.2366v-36.594h12.83c3.3505 0 5.4452 0.7843 7.1204 2.1424 2.1968 1.7789 3.6124 4.4972 3.6124 7.528 0 3.0329-1.4156 5.7512-3.6124 7.528-1.1537 0.9415-2.4607 1.6217-4.2935 1.9341l13.142 17.462h-6.3371l-13.038-17.252z"/>
   <path d="m3327.8 1973.5c7.4887 0 13.087-5.9063 13.087-13.855 0-7.8914-5.5984-13.851-13.087-13.851-7.4888 0-13.089 5.9595-13.089 13.851 0 7.9489 5.6005 13.855 13.089 13.855m0-32.673c10.367 0 18.326 8.155 18.326 18.818 0 10.667-7.9591 18.822-18.326 18.822-10.369 0-18.326-8.155-18.326-18.822 0-10.663 7.957-18.818 18.326-18.818"/>
   <polygon transform="matrix(5.951 0 0 5.951 2644.6 1863.6)" points="119.59 13.068 119.59 18.383 122.31 18.383 122.31 19.218 118.71 19.218 118.71 13.068"/>
   <polygon transform="matrix(5.951 0 0 5.951 2644.6 1863.6)" points="123 13.068 123 19.218 123.88 19.218 123.88 13.068"/>
   <polygon transform="matrix(5.951 0 0 5.951 2644.6 1863.6)" points="129.49 17.583 129.49 13.068 130.37 13.068 130.37 19.218 129.76 19.218 126.06 14.702 126.06 19.218 125.18 19.218 125.18 13.068 125.8 13.068"/>
   <path d="m3435.1 1963.6h11.308l-5.6538-13.592zm13.349 4.967h-15.444l-3.8209 9.4111h-5.4473l15.184-36.594h3.6677l15.182 36.594h-5.4452z"/>
  </g>
 </g>
</svg>
