<svg width="1e3" height="783.9" version="1.1" xmlns="http://www.w3.org/2000/svg">
 <g transform="translate(-107 -5.4767)">
  <path d="m213.64 685.54v-103.11h15.639l56.819 77.754v-77.754h15.113v103.11h-14.831l-57.627-79.167v79.167z" fill="#0550ab"/>
  <path d="m318.16 685.54v-103.11h69.209v13.418h-54.379v31.073h52.966v12.712h-52.966v32.486h54.379v13.418z" fill="#0550ab"/>
  <path d="m402.75 582.44h16.823l21.752 83.506 23.022-83.506h11.943l22.505 83.067 21.83-83.067h17.169l-29.865 103.11h-16.086l-21.736-79.269-21.296 79.269h-16.015z" fill="#0550ab"/>
  <path d="m544.56 671.2 8.8189-11.383s13.696 14.53 32.711 14.53c8.7206 0 22.653-4.3866 22.653-16.076 0-24.08-61.15-11.682-61.15-47.58 0-16.454 12.872-29.669 37.141-29.669 26.092 0 36.921 14.724 36.921 14.724l-9.2396 10.679s-11.616-11.997-28.835-11.997c-10.394 0-20.493 5.4892-20.493 14.944 0 22.02 60.985 8.4612 60.985 47.085 0 18.107-14.846 30.847-38.254 30.749-28.941 0-41.258-16.006-41.258-16.006z" fill="#0550ab"/>
  <path d="m638.78 685.54v-103.11h31.78l36.723 52.433v-52.433h30.791v103.11h-29.379l-38.842-55.791v55.791z" fill="#0550ab"/>
  <path d="m806.02 581.13c-35.311 0-56.365 23.373-56.365 52.745 0 30.969 23.468 53.672 56.321 53.672 30.72 0 56.232-20.032 56.232-54.599 0-29.76-24.247-51.819-56.188-51.819zm-0.0441 27.233c17.258 0 24.938 13.836 24.938 26.13 0 14.337-10.035 25.865-25.159 25.865-14.767 0-25.159-12.574-25.159-26.262 0-14.428 10.449-25.733 25.38-25.733z" fill="#0550ab"/>
  <path d="m860.52 582.44h34.611l13.333 63.63 16.003-63.63h23.22l15.395 63.941 13.503-63.941h34.534l-29.35 103.11h-32.175l-13.439-59.199-13.877 59.199h-32.33z" fill="#0550ab"/>
  <path d="m295.56 547.83v-298.57l-40.254 38.685-59.711-62.613 114.8-112.53h87.571v435.03z" fill="#0550ab"/>
  <path d="m589.82 547.78c-77.196 0-139.11-29.488-172.73-72.727l54.545-68.065c17.554 21.269 62.427 51.204 115.07 51.204 53.118 0 70.6-25.915 70.6-47.649 0-44.907-59.431-44.509-134.21-40.126v-91.698c61.709 3.481 127.34 5.2095 127.34-36.957 0-33.042-37.012-43.396-70.492-43.396-45.758 0-82.034 21.525-105.1 46.803l-52.524-65.051c44.471-46.751 92.513-71.65 169.44-71.65 106.44 0 160.14 51.044 160.14 116.7 0 49.21-31.101 79.286-69.59 94.937 33.483 9.4086 54.887 38.185 54.887 38.185l-82.343 181.17s-29.278 6.7988-65.034 8.3138z" fill="#0550ab"/>
  <path d="m664.42 547.83h40.042l198.55-439.97h-40.055z" fill="#ffc50b"/>
  <path d="m107 5.4767v783.9h1e3v-783.9zm28.249 28.249h943.5v727.4h-943.5z" fill="#0550ab"/>
  <path d="m901.09 315.71c-64.495 0-116.31 51.964-116.31 116.44 0 64.471 51.813 116.44 116.31 116.44 64.496 0 116.27-51.964 116.27-116.44 0-64.471-51.776-116.44-116.27-116.44zm-35.16 54.783h19.188v33.924s4.8751-8.7944 17.298-8.7944c20.232 0 36.431 16.315 36.431 36.522s-16.2 36.522-36.431 36.522c-20.232 0-36.486-16.315-36.486-36.522zm-41.101 25.148c20.232 0 36.468 16.297 36.468 36.504v35.705h-19.188v-7.9767s-4.857 8.7762-17.28 8.7762c-20.232 0-36.468-16.297-36.468-36.504s16.236-36.504 36.468-36.504zm153.61 0c17.477 0 31.974 12.152 35.596 28.491h-20.133c-2.8842-5.5922-8.7108-9.4122-15.463-9.4122-9.6458 0-17.371 7.7832-17.371 17.425 0 9.6422 7.725 17.407 17.371 17.407 6.7321 0 12.533-3.811 15.427-9.3759h20.169c-3.6369 16.318-18.132 28.473-35.596 28.473-20.231 0-36.468-16.297-36.468-36.504s16.236-36.504 36.468-36.504zm-153.61 19.079c-9.6458 0-17.371 7.7832-17.371 17.425 0 9.6422 7.725 17.407 17.371 17.407 9.6458 0 17.389-7.765 17.389-17.407 0-9.6421-7.7432-17.425-17.389-17.425zm77.587 0c-9.6458 0-17.389 7.7832-17.389 17.425 0 9.6422 7.7432 17.425 17.389 17.425s17.371-7.7832 17.371-17.425c0-9.6421-7.725-17.425-17.371-17.425z" fill="#0550ab"/>
 </g>
</svg>
