<svg width="800" height="317.47" version="1.1" viewBox="0 0 800 317.47" xmlns="http://www.w3.org/2000/svg" xmlns:xlink="http://www.w3.org/1999/xlink">
 <link href="" rel="stylesheet" type="text/css"/>
 <style type="text/css"/>
 <defs>
  <style>.cls-1{fill:#0751a3;}.cls-2{fill:#be1e2d;}</style>
  <linearGradient id="linearGradient912" x1="46.28" x2="797.05" y1="257.2" y2="257.2" gradientUnits="userSpaceOnUse">
   <stop stop-color="#ffcf0f" offset="0"/>
   <stop stop-color="#eea216" offset=".12351"/>
   <stop stop-color="#de761e" offset=".30306"/>
   <stop stop-color="#ce4a25" offset=".495"/>
   <stop stop-color="#b52323" offset=".74655"/>
   <stop stop-color="#831c1e" offset="1"/>
  </linearGradient>
  <linearGradient id="linearGradient918" x1="571.59" x2="797.06" y1="28.7" y2="256.34" gradientUnits="userSpaceOnUse">
   <stop stop-color="#ffcf0f" offset="0"/>
   <stop stop-color="#eea216" offset=".10133"/>
   <stop stop-color="#de761e" offset=".23373"/>
   <stop stop-color="#ce4a25" offset=".44468"/>
   <stop stop-color="#b52323" offset=".58894"/>
   <stop stop-color="#831c1e" offset="1"/>
  </linearGradient>
 </defs>
 <g transform="translate(-12.816 -475.11)">
  <g transform="matrix(1.065 0 0 1.065 -36.085 445.84)" data-name="plate copy">
   <path d="m571.59 28.7h225.47v227.64h-225.47z" fill="url(#linearGradient918)"/>
  </g>
  <g transform="matrix(1.065 0 0 1.065 -36.085 445.84)" fill="#fff">
   <path transform="translate(-15,-15.23)" d="m351.41 176.18c10.63-19.13-27.37-16.65-26.31 4.69l7.06 0.31v7.82l-7.38 0.31c4.64 19.24 19.11 15.67 21.11 3.14 17.5 13.47-1.1 31.14-16.33 21.71-6-3.7-13.23-10.38-14.86-24.85h-3c0.95 14.47 7.43 19.17 7.64 26.67 0.33 11.72-6.65 18.51-15.09 24.56-8.44-6.05-15.42-12.84-15.09-24.56 0.21-7.5 6.69-12.2 7.64-26.67h-3c-1.64 14.47-8.91 21.16-14.88 24.85-15.21 9.43-33.8-8.24-16.33-21.71 2 12.53 16.49 16.1 21.13-3.14l-7.38-0.31v-7.8l7.05-0.31c1.06-21.34-37-23.82-26.31-4.69-29.25-1.61-28.05-27.57-16.54-37.56 13.48-11.7 48.16-12.49 53.91 42.55h2c3.34-33.23-44.56-65 0.43-102.12 3.19-2.62 7.33-6.32 7.33-6.32s4.23 3.75 7.47 6.44c44.7 37.05-3.08 68.8 0.29 102h2c5.76-55 40.41-54.26 53.89-42.55 11.63 9.97 12.81 35.94-16.42 37.54zm-47-127.89c-59 0-106.85 48.8-106.85 109s47.84 109 106.85 109 106.87-48.83 106.87-109-47.83-109-106.87-109z"/>
   <polygon points="46.32 252.34 109.53 252.34 109.4 181.43 171.5 181.43 171.5 120.26 109.9 120.26 109.9 90.99 185.49 90.99 181.32 29.69 46.32 29.69"/>
   <polygon points="464.25 78.35 438.28 30.04 366.73 30.04 429.32 138.04 363.73 252.34 433.37 252.34 463.4 197.06 493.91 252.34 565.3 252.34 498.55 137.26 559.89 30.04 490.71 30.04"/>
   <path d="m285.68 309.15c2.7103-4.8775-6.9785-4.2452-6.7082 1.1958l1.8001 0.079v1.9938l-1.8817 0.079c1.183 4.9056 4.8724 3.9954 5.3824 0.80059 4.4619 3.4344-0.28046 7.9397-4.1636 5.5354-1.5298-0.94339-3.3732-2.6466-3.7888-6.336h-0.76492c0.24222 3.6894 1.8944 4.8877 1.948 6.8 0.0841 2.9882-1.6955 4.7194-3.8475 6.262-2.1519-1.5426-3.9316-3.2738-3.8475-6.262 0.0535-1.9123 1.7057-3.1106 1.9479-6.8h-0.76488c-0.41817 3.6894-2.2718 5.3951-3.7939 6.336-3.8781 2.4044-8.6179-2.1009-4.1636-5.5354 0.50994 3.1948 4.2044 4.105 5.3875-0.80059l-1.8817-0.079v-1.9887l1.7975-0.079c0.27026-5.441-9.4338-6.0733-6.7082-1.1958-7.4578-0.41048-7.1518-7.0295-4.2172-9.5766 3.437-2.9831 12.279-3.1845 13.745 10.849h0.50994c0.8516-8.4726-11.361-16.573 0.10964-26.037 0.81336-0.66803 1.8689-1.6114 1.8689-1.6114s1.0785 0.95613 1.9046 1.642c11.397 9.4466-0.78529 17.542 0.0739 26.007h0.50993c1.4686-14.023 10.303-13.835 13.74-10.849 2.9653 2.542 3.2661 9.1636-4.1866 9.5715z" stroke-width=".25497"/>
  </g>
  <g transform="matrix(1.065 0 0 1.065 -36.085 445.84)" data-name="8">
   <path d="m685.93 253.81c-83.543 0-85.204-25.291-85.204-43.936v-49.926c0-9.6549 10.861-20.639 32.022-25.3-21.161-4.3196-32.022-15.313-32.022-24.958v-38.268c0-18.636 1.7088-43.936 85.204-43.936 83.495 0 85.204 25.291 85.204 43.936v38.268c0 9.6549-10.87 20.639-32.022 24.958 21.161 4.6613 32.022 15.645 32.022 25.3v49.926c0.01 18.636-1.7088 43.936-85.204 43.936zm14.297-191.71c0-4.9936-6.2942-8.6581-14.297-8.6581-8.003 0-14.297 3.6645-14.297 8.6581v51.265c0 4.6613 6.2942 8.3163 14.297 8.3163 8.003 0 14.297-3.6645 14.297-8.3163zm0 95.191c0-4.6613-6.2942-8.3258-14.297-8.3258-8.003 0-14.297 3.6645-14.297 8.3258v62.239c0 4.6518 6.2942 8.3163 14.297 8.3163 8.003 0 14.297-3.655 14.297-8.3163z" fill="#fff" stroke-width=".94935"/>
  </g>
  <g transform="matrix(1.065 0 0 1.065 -36.085 445.84)" data-name="line copy">
   <path d="m46.28 252.34h750.77v9.71h-750.77z" fill="url(#linearGradient912)"/>
  </g>
  <g fill="#fff" font-family="'Akzidenz-Grotesk BQ Extended'" font-size="46.793px" font-weight="500" letter-spacing="6.2924px" word-spacing="0px">
   <path d="m12.816 751.19 9.2713 35.186h8.7699l8.3726-25.617 8.5224 25.617h8.6223l9.2193-35.186h-8.4226l-5.3335 24.022-7.9233-24.022h-9.1693l-8.0731 24.022-5.2836-24.022z"/>
   <path d="m72.519 751.19 15.899 35.186h8.5723l15.797-35.186h-9.4689l-10.565 25.967-10.515-25.967z"/>
   <path d="m123.45 751.19v20.433c0 3.2228 0.33191 5.615 0.9964 7.1765 1.7609 4.1198 5.5162 6.8106 11.264 8.0731 2.1928 0.46514 4.4848 0.69893 6.877 0.69893 2.7576 0 5.4818-0.3653 8.1729-1.0962 2.7244-0.73093 4.9664-1.877 6.7272-3.4385 0.73094-0.66449 1.4282-1.4953 2.0926-2.492 0.56481-0.89706 0.98022-1.8615 1.246-2.8914 0.26579-1.0632 0.41609-1.9775 0.44932-2.7416 0.0665-0.79738 0.0998-1.8766 0.0998-3.2388v-20.483h-8.772v21.979c0 1.2625-0.19831 2.2916-0.59701 3.089-0.63125 1.1961-1.5623 2.1271-2.7916 2.7916-1.628 0.93028-3.8198 1.3958-6.5775 1.3958-3.3224 0-5.865-0.63251-7.6259-1.895-1.0964-0.79739-1.8437-1.7096-2.2424-2.7396-0.36546-1.0632-0.54916-2.3595-0.54916-3.8878v-20.733z"/>
   <path d="m176 751.19v35.186h33.79v-6.28h-24.968v-8.3726h23.173v-6.28h-23.173v-7.9233h23.972v-6.3299z"/>
   <path d="m298.39 751.19v35.186h8.3726v-24.669l21.727 24.669h8.6722v-35.186h-8.3726v24.571l-21.58-24.571z"/>
   <path d="m351.82 751.19v35.186h33.79v-6.28h-24.968v-8.3726h23.173v-6.28h-23.173v-7.9233h23.97v-6.3299z"/>
   <path d="m394.15 751.19 9.2692 35.186h8.772l8.3726-25.617 8.5224 25.617h8.6202l9.2213-35.186h-8.4226l-5.3335 24.022-7.9233-24.022h-9.1693l-8.0752 24.022-5.2815-24.022z"/>
   <path d="m503.64 750.08c-0.6432-0.0107-1.2992-6e-3 -1.9678 0.0146-5.6813 0.23258-10.249 1.6792-13.704 4.3371-4.3524 3.3556-6.5296 8.1402-6.5296 14.353 0 4.2195 1.0479 7.8079 3.141 10.765 1.5283 2.226 3.8037 4.1194 6.8271 5.6809 3.0566 1.5283 6.9602 2.2923 11.711 2.2923 5.6149 0 10.249-1.1961 13.904-3.5883 3.8872-2.6247 6.2795-6.2966 7.1765-11.014 0.2658-1.2958 0.39939-2.7904 0.39939-4.4848 0-4.7511-1.2462-8.5878-3.738-11.512-0.73093-0.89705-1.662-1.778-2.7916-2.6418-0.66448-0.46513-1.5934-1.0308-2.7895-1.6953-3.256-1.5989-7.1361-2.4339-11.638-2.5066zm-1.0214 6.3445c4.153-0.0997 7.4429 1.18 9.8683 3.8379 2.0931 2.2925 3.139 5.1502 3.139 8.5723 0 0.76415-0.0815 1.5783-0.24755 2.4421-0.13289 0.86384-0.43348 1.9097-0.89863 3.139-0.43191 1.2293-1.1959 2.392-2.2923 3.4884-1.0964 1.0632-2.4574 1.8773-4.0854 2.4421-1.5615 0.56481-3.2566 0.84662-5.0839 0.84662-3.5218 0-6.3294-0.89763-8.4226-2.6917-0.29902-0.23258-0.89604-0.8964-1.7931-1.9928-0.59804-0.83061-1.0468-1.628-1.3459-2.3922-0.63127-1.4619-0.94648-3.1569-0.94648-5.0839 0-0.79739 0.0648-1.6115 0.19762-2.4421 0.13289-0.8306 0.40008-1.8263 0.79878-2.9892 0.43191-1.1961 1.1625-2.3254 2.1925-3.3886 1.03-1.0964 2.3096-1.9773 3.8379-2.6418 1.4951-0.63126 3.188-1.0133 5.0818-1.1462z"/>
   <path d="m537.62 751.19v35.186h8.7699v-14.153h10.068l9.369 14.153h10.415l-10.715-14.703c2.0599-0.36547 3.7549-0.92909 5.0839-1.6932 1.3622-0.76415 2.408-1.977 3.139-3.6382 0.63126-1.3954 0.94855-2.9402 0.94855-4.6346 0-2.3589-0.6158-4.4193-1.8451-6.1802-1.2293-1.7941-2.9577-3.0236-5.1838-3.6881-1.3954-0.43191-3.3389-0.649-5.8307-0.649zm8.7699 6.1801h13.856c2.4586 0 4.0701 0.5991 4.8343 1.7952 0.46515 0.73093 0.69686 1.6098 0.69686 2.6397 0 2.1928-1.0291 3.5392-3.089 4.0376-0.36546 0.0997-1.0961 0.14976-2.1925 0.14976h-14.106z"/>
   <path d="m586.86 751.19v35.186h28.357v-6.4797h-19.535v-28.706z"/>
   <path d="m626.8 751.19v35.186h33.79v-6.28h-24.968v-8.3726h23.173v-6.28h-23.173v-7.9233h23.97v-6.3299z"/>
   <path d="m686.23 751.19-16.995 35.186h9.6186l2.9892-6.6295h18.041l2.9892 6.6295h9.8683l-16.993-35.186zm4.6845 8.5723 6.1281 13.756h-12.358z"/>
   <path d="m723.33 751.19v35.186h8.3726v-24.669l21.727 24.669h8.6722v-35.186h-8.3726v24.571l-21.58-24.571z"/>
   <path d="m793.05 750.09c-5.1498 0-9.2036 1.0145-12.161 3.0412-2.8573 1.927-4.2851 4.5844-4.2851 7.9732 0 3.854 1.8432 6.645 5.5311 8.3726 0.89705 0.43191 2.0285 0.81392 3.3907 1.1462 1.3622 0.33224 2.5583 0.59735 3.5883 0.79669 1.0632 0.16613 3.0066 0.46672 5.8307 0.89863 3.6547 0.56481 5.8465 1.1284 6.5775 1.6933 0.76416 0.56481 1.1462 1.3455 1.1462 2.3423 0 1.2625-0.56362 2.277-1.6932 3.0412-1.5615 1.0632-3.9538 1.5934-7.1766 1.5934-2.5583 0-4.9338-0.4154-7.1266-1.246-2.1596-0.8306-3.721-2.2418-4.6845-4.2352l-8.0252 2.0427c0.33224 0.66449 0.61614 1.1634 0.8487 1.4956 0.89706 1.5615 2.1245 2.956 3.686 4.1853 0.96351 0.73093 1.7776 1.2632 2.4421 1.5955 3.256 1.7609 7.3433 2.6418 12.26 2.6418 1.2293 0 2.4755-0.0501 3.738-0.14977 2.3921-0.23257 4.3356-0.58118 5.8307-1.0463 5.5485-1.7609 8.3227-5.2658 8.3227-10.515 0-1.5283-0.24842-2.858-0.74679-3.9877-0.49835-1.1628-1.1977-2.0772-2.0947-2.7416-0.89706-0.69771-1.6277-1.1778-2.1925-1.4436-0.56481-0.29901-1.2453-0.58291-2.0427-0.8487-1.03-0.33225-2.6248-0.69756-4.7844-1.0962-0.5316-0.0997-1.6442-0.28129-3.3387-0.54708-1.6612-0.29902-3.2226-0.58292-4.6845-0.84871s-2.5578-0.5142-3.2887-0.74677c-1.8606-0.59803-2.7916-1.6105-2.7916-3.0391 0-2.0599 1.6449-3.3562 4.9341-3.8878 0.89705-0.1329 1.8761-0.1997 2.9393-0.1997 4.4853 0 7.6081 1.0291 9.369 3.089 0.19935 0.19934 0.46654 0.58343 0.79878 1.1482l8.3227-2.0947c-0.76417-1.2958-1.5616-2.3583-2.3922-3.1889-1.2625-1.2625-2.7258-2.2603-4.387-2.9913-3.1231-1.4951-7.01-2.2424-11.661-2.2424z"/>
  </g>
 </g>
</svg>
