<svg width="800" height="246.21" version="1.1" viewBox="0 0 800 246.21" xmlns="http://www.w3.org/2000/svg">
 <path d="m0 57.852h30.296l22.903 75.378 22.644-75.378h25.281l22.903 76.257 22.644-76.257h30.296l-40.171 134.26h-23.782l-24.506-80.91-24.609 80.91h-23.782zm180.17 0h31.95l26.263 86.183 26.16-86.183h31.64l-37.948 126.15a172 172 0 0 1-13.39 34.122 63.229 63.229 0 0 1-15.717 18.612 42.083 42.083 0 0 1-14.166 6.7726 76.257 76.257 0 0 1-21.559 2.6884h-12.201v-23.523h6.6692c9.3059 0 16.854-2.2748 22.748-6.7726a32.984 32.984 0 0 0 11.788-19.594zm219.93 98.178a84.167 84.167 0 0 1-9.7195 18.457 51.286 51.286 0 0 1-17.526 14.683c-6.876 3.4639-14.993 5.17-24.454 5.17-20.215 0-36.035-7.8066-47.564-23.42-9.0991-12.46-13.649-27.659-13.649-45.444 0-20.835 6.0488-37.741 18.095-50.614a58.421 58.421 0 0 1 44.358-19.336c8.427 0 15.768 1.4993 21.972 4.5496s11.632 7.2896 16.337 12.666c3.2571 3.7741 6.8244 9.461 10.598 17.113l-28.848 7.6515a37.379 37.379 0 0 0-9.7712-11.477 19.698 19.698 0 0 0-11.374-3.4639 21.093 21.093 0 0 0-16.957 8.9957c-4.7047 5.9972-7.0828 15.613-7.0828 28.848 0 10.288 1.2925 19.491 3.8258 27.711 1.7061 5.8938 4.4979 10.392 8.3753 13.494 3.8775 3.102 8.1685 4.6013 12.925 4.6013 5.0666 0 9.7712-1.8612 13.959-5.5319 4.2394-3.6707 7.5482-9.6678 9.9263-17.836zm113.22 0a84.167 84.167 0 0 1-9.7195 18.457 51.286 51.286 0 0 1-17.526 14.683c-6.876 3.4639-14.993 5.17-24.454 5.17-20.215 0-36.035-7.8066-47.564-23.42-9.0991-12.46-13.649-27.659-13.649-45.444 0-20.835 6.0488-37.741 18.095-50.614a58.421 58.421 0 0 1 44.358-19.336c8.4787 0 15.768 1.4993 21.972 4.5496s11.632 7.2896 16.337 12.666c3.2571 3.7741 6.8244 9.461 10.598 17.113l-28.797 7.6515a37.379 37.379 0 0 0-9.7712-11.477 19.698 19.698 0 0 0-11.374-3.4639 21.093 21.093 0 0 0-16.957 8.9957c-4.7047 5.9972-7.0828 15.613-7.0828 28.848 0 10.288 1.2925 19.491 3.8258 27.711 1.7061 5.8938 4.4979 10.392 8.3753 13.494 3.8775 3.102 8.1685 4.6013 12.925 4.6013a20.68 20.68 0 0 0 13.959-5.5319c4.2394-3.6707 7.5482-9.6678 9.9263-17.836zm142.02-97.454a4.136 4.136 0 0 0 3.2571 1.8612h17.991c1.1891 0 2.6367-0.82719 3.2571-1.8612l8.9957-15.562c0.56869-1.034 0.56869-2.7401 0-3.7741l-8.9957-15.562c-0.62039-1.034-2.068-1.8612-3.2571-1.8612h-17.991a4.1877 4.1877 0 0 0-3.2571 1.8612l-8.9957 15.562a4.0843 4.0843 0 0 0 0 3.7741zm37.172-21.766a4.136 4.136 0 0 0 3.2571 1.8612h17.991c1.1891 0 2.6367-0.8272 3.2571-1.8612l8.9957-15.613c0.56869-1.034 0.56869-2.6884 0-3.7224l-8.9957-15.562a4.136 4.136 0 0 0-3.2571-1.9129h-17.991a4.2394 4.2394 0 0 0-3.2571 1.9129l-8.9957 15.562a3.9292 3.9292 0 0 0 0 3.7224zm28.125 6.1523 8.9957 15.562c0.6204 1.034 2.068 1.8612 3.2571 1.8612h17.991c1.1891 0 2.6367-0.82719 3.2054-1.8612l8.9957-15.562c0.62039-1.034 0.62039-2.7401 0-3.7741l-8.9957-15.562a4.0326 4.0326 0 0 0-3.2054-1.8612h-17.991a4.1877 4.1877 0 0 0-3.2571 1.8612l-8.9957 15.562a4.0843 4.0843 0 0 0 0 3.7741zm-50.355 99.056h-0.517l-24.557-82.513h-34.535l48.649 135.04h19.956l17.681-60.54-12.666-44.1z" stroke-width=".517"/>
 <path d="m765.41 59.506-24.816 82.513h-0.4653l-21.921-82.513h-25.178l37.586 135.04h19.956l49.425-135.04z" stroke-width=".517"/>
 <g transform="scale(.517)">
  <path d="m1505.8 376.4h4.7v9.1h8.1v-9.1h4.6v24.2h-4.6v-10.6h-8.1v10.6h-4.7zm-26.5 0h4.4l5.6 16.9 5.7-16.9h4.4l4.2 24.2h-4.5l-2.6-15.3-5.1 15.3h-4.1l-5.1-15.3-2.7 15.3h-4.5zm47.9 6.3h19.9l-11.6 14.1h11.7v3.8h-20.9l11.6-14.1h-10.7z"/>
 </g>
 <g transform="scale(.517)">
  <path d="m1181.2 414.9h10.7l7.6 25.6h0.1l6.9-25.6h8l6.8 25.6h0.2l7.7-25.6h10.7l-15.3 41.9h-6.2l-7.8-27.2h-0.2l-7.9 27.2h-6.2zm59.2 21a22.3 22.3 0 0 1 22.3-22.4c11.9 0 22.2 9.4 22.2 22.3a21.9 21.9 0 0 1-22.2 22.4 22.4 22.4 0 0 1-22.3-22.3zm34.5 0.1c0-7.6-5.9-13.3-12.2-13.3-5.2 0-12.3 4.5-12.3 13.2 0 7.9 6 13.1 12.3 13.1 7.4 0 12.2-6.4 12.2-13zm16.7-21.1h9.2v3.7h0.2c1.9-2.7 3.8-5.1 9-5.1h0.8v9.8c-9.1 0.4-9.1 7.5-9.1 10v23.6h-10zm25-13.9h10.1v55.9h-10.1zm60.7 55.8h-9.2v-5.1h-0.2c-1.9 3-6.3 6.5-13.4 6.5a21.8 21.8 0 0 1-21.4-22.3 21.9 21.9 0 0 1 21.4-22.4c6.1 0 9.7 2.1 12.7 5.1v-17.7h10.1zm-21.7-7.8c7.6 0 12.4-6.8 12.4-13.1 0-6.9-5.3-13.2-12.4-13.2-7.5 0-12.4 7-12.4 12.8 0 7.8 5.9 13.5 12.4 13.5zm25.1-34.1h10.9l10.1 27.8h0.2l9.5-27.8h11l-17 41.9h-7.9zm46.1-13.9h10v9.2h-10zm0 13.9h10v41.9h-10zm27 25.5a12 12 0 0 0 11.6 8.6c4.4 0 7.8-1.9 9.7-5.3h10.6a21.8 21.8 0 0 1-20.2 14.6 22 22 0 0 1-22.1-22.2c0-11.8 9.1-22.7 22.1-22.7a22 22 0 0 1 21.1 27.1zm22.9-8.1a11.2 11.2 0 0 0-11.3-9.8c-3.7 0-10 2-11.9 9.8zm11.9-17.4h10.7l7.6 25.6h0.2l6.9-25.6h8l6.8 25.6h0.1l7.7-25.6h10.7l-15.3 41.9h-6.2l-7.9-27.2h-0.2l-7.9 27.2h-6.2z"/>
 </g>
 <path d="m569.01 38.878v174.74" fill="none" stroke="#000" stroke-miterlimit="10" stroke-width="1.034"/>
</svg>
