<svg width="800" height="208.18" version="1.1" viewBox="0 0 800 208.18" xmlns="http://www.w3.org/2000/svg">
 <defs>
  <linearGradient id="linearGradient-1" x1=".92319" x2="10.048" y1="1.6014" y2="9.3711" gradientTransform="scale(1.0055 .99452)" gradientUnits="userSpaceOnUse">
   <stop stop-color="#FAC43B" offset="0"/>
   <stop stop-color="#F68A2A" offset=".48"/>
   <stop stop-color="#ED662E" offset=".74"/>
   <stop stop-color="#EC3D34" offset="1"/>
  </linearGradient>
 </defs>
 <g transform="matrix(19.058 0 0 19.058 0 -209.64)" fill="none">
  <g transform="translate(0,11)">
   <polygon points="17.171 9.0729 12.297 9.0729 12.297 1.7494 13.492 1.7494 13.492 7.9783 17.171 7.9783" fill="#f1664f"/>
   <polygon points="17.721 1.7494 18.914 1.7494 18.914 9.0729 17.721 9.0729" fill="#f1664f"/>
   <polygon points="22.66 9.3891 19.512 1.7494 20.756 1.7494 22.66 6.378 24.576 1.7494 25.82 1.7494" fill="#f1664f"/>
   <polygon points="26.379 1.7494 27.574 1.7494 27.574 9.0729 26.379 9.0729" fill="#f1664f"/>
   <polygon points="33.068 1.7494 34.191 1.7494 34.191 9.3891 29.464 4.2969 29.464 9.0729 28.341 9.0729 28.341 1.4151 33.068 6.5143" fill="#f1664f"/>
   <path d="m38.384 9.2314c-0.49156 0.0028377-0.97798-0.10006-1.4263-0.30171-0.43586-0.19487-0.8295-0.47292-1.1589-0.81857-0.33502-0.35409-0.60127-0.7674-0.78514-1.2189-0.19541-0.47307-0.29421-0.98046-0.29057-1.4923-0.0038-0.50935 0.09501-1.0142 0.29057-1.4846 0.18459-0.4498 0.45078-0.86159 0.78514-1.2146 0.32971-0.34437 0.72332-0.62124 1.1589-0.81514 0.44837-0.20136 0.93479-0.30396 1.4263-0.30086 0.50569-0.00176 1.0057 0.10615 1.4657 0.31629 0.46426 0.21114 0.87939 0.51679 1.2189 0.89743l-0.88886 0.79029c-0.22562-0.25495-0.50251-0.45941-0.81257-0.6-0.30911-0.13867-0.64436-0.2094-0.98314-0.20743-0.33213-0.00177-0.66064 0.069026-0.96257 0.20743-0.29496 0.13558-0.5612 0.32646-0.78429 0.56229-0.22682 0.2422-0.40569 0.52519-0.52714 0.834-0.25707 0.66014-0.25707 1.3927 0 2.0529 0.12104 0.30901 0.29995 0.59208 0.52714 0.834 0.22262 0.23637 0.48897 0.42732 0.78429 0.56229 0.3018 0.1388 0.6304 0.20961 0.96257 0.20743 0.33176 0.00285 0.66123-0.055256 0.972-0.17143 0.28129-0.10444 0.537-0.2678 0.75-0.47914 0.21105-0.21225 0.37593-0.46584 0.48429-0.74486 0.11959-0.31229 0.18454-0.64283 0.192-0.97714h-0.73886c-0.45714 0-0.76657 0.148-0.92829 0.444-0.03067 0.054323-0.05539 0.1118-0.07371 0.17143-0.01714 0.052286-0.03171 0.102-0.04543 0.14829-0.01371 0.046286-0.02228 0.102-0.03 0.14743l-1.194-0.029143c0-0.013714 0-0.052286 0.0094-0.11829 0.0094-0.066 0.02057-0.14486 0.03943-0.23743 0.01886-0.092572 0.05057-0.19714 0.09-0.31543 0.04376-0.12457 0.10125-0.24388 0.17143-0.35571 0.17767-0.32434 0.45424-0.58349 0.78943-0.73971 0.3678-0.16652 0.76804-0.24908 1.1717-0.24171h1.9337v1.0371c0.0065 0.51587-0.08569 1.0282-0.27171 1.5094-0.17614 0.44763-0.44722 0.85176-0.79455 1.1846-0.3234 0.31595-0.71022 0.55961-1.1349 0.71486-0.44577 0.16342-0.91723 0.24558-1.392 0.24257z" fill="#f1664f"/>
   <ellipse cx="5.5226" cy="5.4617" rx="5.5226" ry="5.4617" fill="#fff"/>
   <path d="m10.192 2.5466c0.98876 1.5478 1.1259 3.4912 0.36428 5.1626h-3.8477zm-6.078 6.5734 4.1297-5.9066h-3.4689v-1.4134h4.8463c-1.0519-1.1504-2.5401-1.8039-4.0989-1.8-3.0506 0-5.5226 2.4454-5.5226 5.4617s2.472 5.4617 5.5226 5.4617c1.5588 0.0039 3.047-0.64964 4.0989-1.8z" fill="url(#linearGradient-1)"/>
  </g>
 </g>
</svg>
