<svg width="800" height="372.96" version="1.1" viewBox="0 0 800 372.96" xmlns="http://www.w3.org/2000/svg">
 <g transform="matrix(19.061 0 0 19.061 -.024114 -114.37)" fill="#d7212a" fill-rule="evenodd">
  <g fill="#d7212a" fill-rule="nonzero">
   <g transform="translate(0,6)" fill="#d7212a">
    <path d="m16.798 8.2672v1.0045l2.5862-0.016024c-0.017877-0.331-0.052358-0.66089-0.10331-0.98843z"/>
    <path d="m16.794 11.281h2.488c0.05333-0.34929 0.08768-0.70121 0.10289-1.0542l-2.5904 0.01602z"/>
    <path d="m15.86 12.245v-4.946h3.3528c-1.0964-4.1996-4.9114-7.2986-9.4458-7.2986-5.3938 0-9.7658 4.3809-9.7658 9.7831s4.372 9.7831 9.7658 9.7831c4.5454 0 8.365-3.1112 9.4542-7.3243zm-6.2013-4.119-2.7148 3.1652h2.7148v0.95386h-4.111v-0.82693l2.7148-3.1652h-2.6301v-0.95386h4.0263zm4.8941 0.14127h-2.6798v1.0032h2.6798v0.96777h-2.6798v1.0386h2.6798v0.96988h-3.7585v-4.9477h3.7585z"/>
    <polygon points="23.954 7.2981 24.81 7.2981 24.81 12.25 24.082 12.25 21.353 8.7268 21.353 12.25 20.497 12.25 20.495 7.2981 21.302 7.2981 23.954 10.722"/>
    <polygon points="26.919 8.0761 26.919 9.3636 29.401 9.3636 29.401 10.142 26.919 10.142 26.919 11.472 29.755 11.472 29.755 12.25 26.048 12.25 26.048 7.2981 29.719 7.2981 29.719 8.0761"/>
    <polygon points="33.708 7.2838 34.444 7.2838 35.66 10.969 36.841 7.2981 37.756 7.2981 36.027 12.285 35.279 12.285 34.063 8.7268 32.846 12.285 32.096 12.285 30.37 7.2981 31.311 7.2981 32.492 10.969"/>
    <path d="m38.136 11.528 0.52458-0.62367c0.47398 0.4103 0.94795 0.64349 1.5636 0.64349 0.53723 0 0.87711-0.24753 0.87711-0.62241v-0.01392c0-0.3538-0.19819-0.54482-1.1179-0.75693-1.0542-0.25301-1.648-0.5659-1.648-1.4784v-0.014337c0-0.84886 0.70717-1.4358 1.6905-1.4358 0.72151 0 1.2946 0.21928 1.7968 0.62241l-0.46681 0.65783c-0.44572-0.33229-0.89145-0.50898-1.3443-0.50898-0.50898 0-0.80626 0.26145-0.80626 0.58699v0.013916c0 0.38205 0.22645 0.55199 1.1744 0.77843 1.0466 0.25301 1.5914 0.62958 1.5914 1.4498v0.01434c0 0.92771-0.72868 1.4784-1.7686 1.4784-0.76364 0.0043-1.5011-0.27797-2.0667-0.79108z"/>
   </g>
  </g>
 </g>
</svg>
